<svg xmlns="http://www.w3.org/2000/svg" width="32" height="32" viewBox="0 0 24 24">
    <path d="M0 .2v23.6h24V.2zM23.2 23H.8V1h22.4zm0 0"/>
    <path d="M5.2 7.398c.663 0 1.198-.535 1.198-1.199h4.403v12H10a1.202 1.202 0 0 0 0 2.403h4a1.202 1.202 0 0 0 0-2.402h-.8v-12h4.402A1.2 1.2 0 0 0 20 6.2V4.94c0-.628-.512-1.14-1.14-1.14H5.14C4.513 3.8 4 4.312 4 4.94V6.2c0 .664.54 1.2 1.2 1.2zm-.4-2.457a.34.34 0 0 1 .34-.34h13.72a.34.34 0 0 1 .34.34V6.2a.401.401 0 1 1-.802 0v-.8h-6V19H14a.4.4 0 0 1 0 .8h-4a.401.401 0 0 1 0-.8h1.602V5.398h-6V6.2a.401.401 0 0 1-.8 0zm0 0"/>
</svg>
