<svg xmlns="http://www.w3.org/2000/svg" width="32" height="32" viewBox="0 0 24 24">
    <path d="M23.601562 22.800781C23.378906 22.800781 23.199219 22.980469 23.199219 23.199219 22.980469 23.199219 22.800781 23.378906 22.800781 23.601562 22.800781 23.820312 22.980469 24 23.199219 24L24 24 24 23.199219C24 22.980469 23.820312 22.800781 23.601562 22.800781zM21.476562 23.199219L20.613281 23.199219C20.394531 23.199219 20.214844 23.378906 20.214844 23.601562 20.214844 23.820312 20.394531 24 20.613281 24L21.476562 24C21.699219 24 21.875 23.820312 21.875 23.601562 21.875 23.378906 21.699219 23.199219 21.476562 23.199219zM18.890625 23.199219L18.03125 23.199219C17.808594 23.199219 17.628906 23.378906 17.628906 23.601562 17.628906 23.820312 17.808594 24 18.03125 24L18.890625 24C19.113281 24 19.292969 23.820312 19.292969 23.601562 19.292969 23.378906 19.113281 23.199219 18.890625 23.199219zM8.554688 23.199219L7.691406 23.199219C7.472656 23.199219 7.292969 23.378906 7.292969 23.601562 7.292969 23.820312 7.472656 24 7.691406 24L8.554688 24C8.773438 24 8.953125 23.820312 8.953125 23.601562 8.953125 23.378906 8.773438 23.199219 8.554688 23.199219zM5.96875 23.199219L5.109375 23.199219C4.886719 23.199219 4.707031 23.378906 4.707031 23.601562 4.707031 23.820312 4.886719 24 5.109375 24L5.96875 24C6.191406 24 6.371094 23.820312 6.371094 23.601562 6.371094 23.378906 6.191406 23.199219 5.96875 23.199219zM11.136719 23.199219L10.277344 23.199219C10.054688 23.199219 9.875 23.378906 9.875 23.601562 9.875 23.820312 10.054688 24 10.277344 24L11.136719 24C11.359375 24 11.539062 23.820312 11.539062 23.601562 11.539062 23.378906 11.359375 23.199219 11.136719 23.199219zM3.382812 23.199219L2.523438 23.199219C2.300781 23.199219 2.125 23.378906 2.125 23.601562 2.125 23.820312 2.300781 24 2.523438 24L3.386719 24C3.605469 24 3.785156 23.820312 3.785156 23.601562 3.785156 23.378906 3.605469 23.199219 3.382812 23.199219zM13.722656 23.199219L12.863281 23.199219C12.640625 23.199219 12.460938 23.378906 12.460938 23.601562 12.460938 23.820312 12.640625 24 12.863281 24L13.722656 24C13.945312 24 14.125 23.820312 14.125 23.601562 14.125 23.378906 13.945312 23.199219 13.722656 23.199219zM16.308594 23.199219L15.445312 23.199219C15.226562 23.199219 15.046875 23.378906 15.046875 23.601562 15.046875 23.820312 15.226562 24 15.445312 24L16.308594 24C16.527344 24 16.707031 23.820312 16.707031 23.601562 16.707031 23.378906 16.527344 23.199219 16.308594 23.199219zM.800781 23.199219C.800781 22.980469.621094 22.800781.398438 22.800781.179688 22.800781 0 22.980469 0 23.199219L0 24 .800781 24C1.019531 24 1.199219 23.820312 1.199219 23.601562 1.199219 23.378906 1.019531 23.199219.800781 23.199219zM.398438 21.875C.621094 21.875.800781 21.699219.800781 21.476562L.800781 20.613281C.800781 20.394531.621094 20.214844.398438 20.214844.179688 20.214844 0 20.394531 0 20.613281L0 21.476562C0 21.699219.179688 21.875.398438 21.875zM18.890625 0L0 0 0 18.890625C0 19.113281.179688 19.292969.398438 19.292969.621094 19.292969.800781 19.113281.800781 18.890625L.800781 18.800781 18.800781 18.800781 18.800781.800781 18.890625.800781C19.113281.800781 19.292969.621094 19.292969.398438 19.292969.179688 19.113281 0 18.890625 0zM2.523438.800781L18 .800781 18 4.800781.800781 4.800781.800781.800781zM18 18L.800781 18 .800781 5.601562 18 5.601562zM21.476562 0L20.617188 0C20.394531 0 20.214844.179688 20.214844.398438 20.214844.621094 20.394531.800781 20.617188.800781L21.476562.800781C21.699219.800781 21.875.621094 21.875.398438 21.875.179688 21.699219 0 21.476562 0zM23.199219 0C22.980469 0 22.800781.179688 22.800781.398438 22.800781.621094 22.980469.800781 23.199219.800781 23.199219 1.019531 23.378906 1.199219 23.601562 1.199219 23.820312 1.199219 24 1.019531 24 .800781L24 0zM23.601562 4.707031C23.378906 4.707031 23.199219 4.886719 23.199219 5.109375L23.199219 5.96875C23.199219 6.191406 23.378906 6.371094 23.601562 6.371094 23.820312 6.371094 24 6.191406 24 5.96875L24 5.109375C24 4.886719 23.820312 4.707031 23.601562 4.707031zM23.601562 2.125C23.378906 2.125 23.199219 2.300781 23.199219 2.523438L23.199219 3.386719C23.199219 3.605469 23.378906 3.785156 23.601562 3.785156 23.820312 3.785156 24 3.605469 24 3.386719L24 2.523438C24 2.300781 23.820312 2.125 23.601562 2.125zM23.601562 15.046875C23.378906 15.046875 23.199219 15.226562 23.199219 15.445312L23.199219 16.308594C23.199219 16.527344 23.378906 16.707031 23.601562 16.707031 23.820312 16.707031 24 16.527344 24 16.308594L24 15.445312C24 15.226562 23.820312 15.046875 23.601562 15.046875zM23.601562 12.460938C23.378906 12.460938 23.199219 12.640625 23.199219 12.859375L23.199219 13.722656C23.199219 13.945312 23.378906 14.121094 23.601562 14.121094 23.820312 14.121094 24 13.945312 24 13.722656L24 12.859375C24 12.640625 23.820312 12.460938 23.601562 12.460938zM23.601562 17.628906C23.378906 17.628906 23.199219 17.808594 23.199219 18.03125L23.199219 18.890625C23.199219 19.113281 23.378906 19.292969 23.601562 19.292969 23.820312 19.292969 24 19.113281 24 18.890625L24 18.03125C24 17.808594 23.820312 17.628906 23.601562 17.628906zM23.601562 20.214844C23.378906 20.214844 23.199219 20.394531 23.199219 20.613281L23.199219 21.476562C23.199219 21.699219 23.378906 21.875 23.601562 21.875 23.820312 21.875 24 21.699219 24 21.476562L24 20.613281C24 20.394531 23.820312 20.214844 23.601562 20.214844zM23.601562 9.875C23.378906 9.875 23.199219 10.054688 23.199219 10.277344L23.199219 11.136719C23.199219 11.359375 23.378906 11.539062 23.601562 11.539062 23.820312 11.539062 24 11.359375 24 11.136719L24 10.277344C24 10.054688 23.820312 9.875 23.601562 9.875zM23.601562 7.292969C23.378906 7.292969 23.199219 7.472656 23.199219 7.691406L23.199219 8.554688C23.199219 8.773438 23.378906 8.953125 23.601562 8.953125 23.820312 8.953125 24 8.773438 24 8.554688L24 7.691406C24 7.472656 23.820312 7.292969 23.601562 7.292969zM23.601562 7.292969"/>
    <path d="M2.800781 4.398438C3.683594 4.398438 4.398438 3.683594 4.398438 2.800781 4.398438 1.917969 3.683594 1.199219 2.800781 1.199219 1.917969 1.199219 1.199219 1.917969 1.199219 2.800781 1.199219 3.683594 1.917969 4.398438 2.800781 4.398438zM2.800781 2C3.242188 2 3.601562 2.359375 3.601562 2.800781 3.601562 3.242188 3.242188 3.601562 2.800781 3.601562 2.359375 3.601562 2 3.242188 2 2.800781 2 2.359375 2.359375 2 2.800781 2zM6.398438 4.398438C7.28125 4.398438 8 3.683594 8 2.800781 8 1.917969 7.28125 1.199219 6.398438 1.199219 5.519531 1.199219 4.800781 1.917969 4.800781 2.800781 4.800781 3.683594 5.519531 4.398438 6.398438 4.398438zM6.398438 2C6.839844 2 7.199219 2.359375 7.199219 2.800781 7.199219 3.242188 6.839844 3.601562 6.398438 3.601562 5.957031 3.601562 5.601562 3.242188 5.601562 2.800781 5.601562 2.359375 5.957031 2 6.398438 2zM10 4.398438C10.882812 4.398438 11.601562 3.683594 11.601562 2.800781 11.601562 1.917969 10.882812 1.199219 10 1.199219 9.117188 1.199219 8.398438 1.917969 8.398438 2.800781 8.398438 3.683594 9.117188 4.398438 10 4.398438zM10 2C10.441406 2 10.800781 2.359375 10.800781 2.800781 10.800781 3.242188 10.441406 3.601562 10 3.601562 9.558594 3.601562 9.199219 3.242188 9.199219 2.800781 9.199219 2.359375 9.558594 2 10 2zM10 2"/>
</svg>
