<svg xmlns="http://www.w3.org/2000/svg" width="32" height="32" viewBox="0 0 24 24">
    <path d="M23.602 22.8a.401.401 0 0 0-.403.4.401.401 0 0 0 0 .8H24v-.8a.4.4 0 0 0-.398-.4zm0 0M21.477 23.2h-.864a.401.401 0 0 0 0 .8h.864c.222 0 .398-.18.398-.398a.398.398 0 0 0-.398-.403zm0 0M18.89 23.2h-.859a.401.401 0 0 0 0 .8h.86a.401.401 0 1 0 0-.8zm0 0M8.555 23.2H7.69a.401.401 0 0 0 0 .8h.864a.4.4 0 0 0 0-.8zm0 0M5.969 23.2h-.86a.401.401 0 0 0 0 .8h.86a.401.401 0 1 0 0-.8zm0 0M11.137 23.2h-.86a.401.401 0 0 0 0 .8h.86a.401.401 0 1 0 0-.8zm0 0M3.383 23.2h-.86a.398.398 0 0 0-.398.402c0 .218.176.398.398.398h.864a.4.4 0 1 0-.004-.8zm0 0M13.723 23.2h-.86a.401.401 0 0 0 0 .8h.86a.401.401 0 1 0 0-.8zm0 0M16.309 23.2h-.864a.401.401 0 0 0 0 .8h.864a.4.4 0 0 0 0-.8zm0 0M.8 23.2a.401.401 0 0 0-.8 0v.8h.8a.4.4 0 0 0 0-.8zm0 0M.398 21.875a.398.398 0 0 0 .403-.398v-.864a.401.401 0 0 0-.801 0v.864c0 .222.18.398.398.398zm0 0M18.89 0H0v18.89a.401.401 0 1 0 .8 0v-.09h18V.8h.09a.401.401 0 0 0 0-.8zM2.524.8H18v4H.8v-4zM18 18H.8V5.602H18zm0 0M21.477 0h-.86a.401.401 0 1 0 0 .8h.86c.222 0 .398-.179.398-.402A.398.398 0 0 0 21.477 0zm0 0M23.2 0a.4.4 0 0 0 0 .8.401.401 0 0 0 .8 0V0zm0 0M23.602 4.707a.402.402 0 0 0-.403.402v.86a.401.401 0 0 0 .8 0l.001-.86a.401.401 0 0 0-.398-.402zm0 0M23.602 2.125a.398.398 0 0 0-.403.398v.864a.401.401 0 0 0 .801 0v-.864a.398.398 0 0 0-.398-.398zm0 0M23.602 15.047a.401.401 0 0 0-.403.398v.864a.401.401 0 0 0 .801 0v-.864a.4.4 0 0 0-.398-.398zm0 0M23.602 12.46a.401.401 0 0 0-.403.4v.863c0 .222.18.398.403.398a.398.398 0 0 0 .398-.398v-.864a.4.4 0 0 0-.398-.398zm0 0M23.602 17.629a.402.402 0 0 0-.403.402v.86a.401.401 0 0 0 .8 0l.001-.86a.401.401 0 0 0-.398-.402zm0 0M23.602 20.215a.401.401 0 0 0-.403.398v.864c0 .222.18.398.403.398a.398.398 0 0 0 .398-.398v-.864a.4.4 0 0 0-.398-.398zm0 0M23.602 9.875a.402.402 0 0 0-.403.402v.86a.401.401 0 0 0 .8 0l.001-.86a.401.401 0 0 0-.398-.402zm0 0M23.602 7.293a.401.401 0 0 0-.403.398v.864a.401.401 0 0 0 .801 0V7.69a.4.4 0 0 0-.398-.398zm0 0"/>
    <path d="M2.8 4.398a1.6 1.6 0 0 0 0-3.2 1.6 1.6 0 0 0 0 3.2zM2.8 2a.802.802 0 0 1 0 1.602A.802.802 0 0 1 2.8 2zm0 0M6.398 4.398A1.6 1.6 0 0 0 8 2.801c0-.883-.719-1.602-1.602-1.602a1.6 1.6 0 1 0 0 3.2zm0-2.398a.802.802 0 0 1 0 1.602.799.799 0 0 1-.796-.801c0-.442.355-.801.796-.801zm0 0M10 4.398a1.6 1.6 0 0 0 1.602-1.597c0-.883-.72-1.602-1.602-1.602a1.6 1.6 0 0 0 0 3.2zM10 2a.802.802 0 0 1 0 1.602A.802.802 0 0 1 10 2zm0 0"/>
</svg>
