<svg xmlns="http://www.w3.org/2000/svg" width="32" height="32" viewBox="0 0 24 24">
    <path d="M6 15.2a2.399 2.399 0 0 0 2.398-2.4A2.402 2.402 0 0 0 6 10.399a2.402 2.402 0 0 0-2.398 2.403A2.399 2.399 0 0 0 6 15.199zm0-4c.883 0 1.602.718 1.602 1.6A1.6 1.6 0 0 1 6 14.399a1.6 1.6 0 0 1-1.602-1.597c0-.883.72-1.602 1.602-1.602zm0 0"/>
    <path d="M0 0v24h24V0zm.8 6.8V5.603H14V6.8zm22.4 16.4H.8V7.601h22.4zm0-16.4h-8.4V5.603h8.4zM.8 4.8v-4h22.4v4zm0 0"/>
    <path d="M21.719 1.316l-.918.918-.918-.918-.567.567.918.918-.918.918.567.562.918-.914.918.914.562-.562-.914-.918.914-.918zm0 0M10 13.602h8.8a.401.401 0 0 0 0-.801H10a.398.398 0 0 0-.398.398c0 .223.175.403.398.403zm0 0M10 16h8.8a.4.4 0 0 0 0-.8H10a.398.398 0 0 0-.398.402c0 .218.175.398.398.398zm0 0M10 11.2h3.602a.4.4 0 0 0 0-.802H10a.398.398 0 0 0-.398.403c0 .219.175.398.398.398zm0 0M15.2 11.2a.43.43 0 0 0 .284-.114.442.442 0 0 0 .118-.285.426.426 0 0 0-.118-.285.42.42 0 0 0-.57 0 .423.423 0 0 0-.113.285c0 .101.043.207.113.285.078.07.184.113.285.113zm0 0"/>
</svg>
