<svg xmlns="http://www.w3.org/2000/svg" width="32" height="32" viewBox="0 0 24 24">
    <path d="M2.8 1.2c-.882 0-1.6.718-1.6 1.6a1.6 1.6 0 1 0 1.6-1.6zm0 2.402A.802.802 0 0 1 2.8 2a.802.802 0 0 1 0 1.602zm0 0M6.398 1.2A1.6 1.6 0 1 0 8 2.801c0-.884-.719-1.603-1.602-1.603zm0 2.402a.799.799 0 0 1-.796-.801.799.799 0 1 1 1.597 0c0 .441-.36.8-.8.8zm0 0M10 1.2c-.883 0-1.602.718-1.602 1.6A1.6 1.6 0 0 0 10 4.399a1.6 1.6 0 0 0 1.602-1.597c0-.883-.72-1.602-1.602-1.602zm0 2.402A.802.802 0 0 1 10 2a.802.802 0 0 1 0 1.602zm0 0"/>
    <path d="M0 0v24h24V0zm.8.8h22.4v4H.8zm22.4 20v2.4a.4.4 0 0 0-.802 0h-1.597a.401.401 0 0 0-.801 0h-1.602a.398.398 0 1 0-.796 0H16a.4.4 0 0 0-.8 0h-1.598a.401.401 0 0 0-.801 0h-1.602a.4.4 0 0 0-.8 0H8.8a.401.401 0 0 0-.801 0H6.398a.398.398 0 1 0-.796 0H4a.4.4 0 0 0-.8 0H1.601a.401.401 0 0 0-.801 0v-3.598H2a.4.4 0 0 0 .8 0h1.598a.401.401 0 0 0 .801 0h1.602a.4.4 0 0 0 .8 0H9.2a.401.401 0 0 0 .801 0h1.602a.398.398 0 1 0 .796 0H14a.4.4 0 0 0 .8 0h1.598a.401.401 0 0 0 .801 0h1.602a.4.4 0 0 0 .8 0H21.2a.401.401 0 0 0 .801 0h1.2zm0-2H.8V5.603h22.4zm0 0"/>
    <path d="M23.2 20.8a.4.4 0 1 1-.801-.003.4.4 0 0 1 .8.004zm0 0M20.8 20.8a.401.401 0 1 1-.801-.004.401.401 0 0 1 .802.005zm0 0M22 22c0 .223-.18.398-.398.398a.398.398 0 1 1 0-.796c.218 0 .398.175.398.398zm0 0M18.398 20.8a.398.398 0 1 1-.796 0 .398.398 0 1 1 .796 0zm0 0M19.602 22c0 .223-.18.398-.403.398a.398.398 0 1 1 0-.796c.223 0 .403.175.403.398zm0 0M16 20.8a.4.4 0 1 1-.8-.003.4.4 0 0 1 .8.004zm0 0M17.2 22c0 .223-.18.398-.4.398a.398.398 0 1 1 0-.796c.22 0 .4.175.4.398zm0 0M13.602 20.8a.401.401 0 1 1-.802-.004.401.401 0 0 1 .802.005zm0 0M14.8 22c0 .223-.179.398-.402.398a.398.398 0 1 1 0-.796c.223 0 .403.175.403.398zm0 0M11.2 20.8a.4.4 0 1 1-.801-.003.4.4 0 0 1 .8.004zm0 0M12.398 22a.395.395 0 0 1-.398.398.395.395 0 0 1-.398-.398c0-.223.175-.398.398-.398.223 0 .398.175.398.398zm0 0M8.8 20.8A.401.401 0 1 1 8 20.797a.401.401 0 0 1 .802.005zm0 0M10 22c0 .223-.18.398-.398.398a.398.398 0 1 1 0-.796c.218 0 .398.175.398.398zm0 0M6.398 20.8a.398.398 0 1 1-.796 0 .398.398 0 1 1 .796 0zm0 0M7.602 22c0 .223-.18.398-.403.398a.398.398 0 1 1 0-.796c.223 0 .403.175.403.398zm0 0M4 20.8a.4.4 0 1 1-.8-.003.4.4 0 0 1 .8.004zm0 0M5.2 22c0 .223-.18.398-.4.398a.398.398 0 1 1 0-.796c.22 0 .4.175.4.398zm0 0M1.602 20.8a.401.401 0 1 1-.802-.004.401.401 0 0 1 .802.005zm0 0M2.8 22c0 .223-.179.398-.402.398a.398.398 0 1 1 0-.796c.223 0 .403.175.403.398zm0 0"/>
</svg>
