<svg xmlns="http://www.w3.org/2000/svg" width="32" height="32" viewBox="0 0 24 24">
    <path d="M2.800781 1.199219C1.917969 1.199219 1.199219 1.917969 1.199219 2.800781 1.199219 3.683594 1.917969 4.398438 2.800781 4.398438 3.683594 4.398438 4.398438 3.683594 4.398438 2.800781 4.398438 1.917969 3.683594 1.199219 2.800781 1.199219zM2.800781 3.601562C2.359375 3.601562 2 3.242188 2 2.800781 2 2.359375 2.359375 2 2.800781 2 3.242188 2 3.601562 2.359375 3.601562 2.800781 3.601562 3.242188 3.242188 3.601562 2.800781 3.601562zM6.398438 1.199219C5.519531 1.199219 4.800781 1.917969 4.800781 2.800781 4.800781 3.683594 5.519531 4.398438 6.398438 4.398438 7.28125 4.398438 8 3.683594 8 2.800781 8 1.917969 7.28125 1.199219 6.398438 1.199219zM6.398438 3.601562C5.957031 3.601562 5.601562 3.242188 5.601562 2.800781 5.601562 2.359375 5.957031 2 6.398438 2 6.839844 2 7.199219 2.359375 7.199219 2.800781 7.199219 3.242188 6.839844 3.601562 6.398438 3.601562zM10 1.199219C9.117188 1.199219 8.398438 1.917969 8.398438 2.800781 8.398438 3.683594 9.117188 4.398438 10 4.398438 10.882812 4.398438 11.601562 3.683594 11.601562 2.800781 11.601562 1.917969 10.882812 1.199219 10 1.199219zM10 3.601562C9.558594 3.601562 9.199219 3.242188 9.199219 2.800781 9.199219 2.359375 9.558594 2 10 2 10.441406 2 10.800781 2.359375 10.800781 2.800781 10.800781 3.242188 10.441406 3.601562 10 3.601562zM10 3.601562"/>
    <path d="M 0 0 L 0 24 L 24 24 L 24 0 Z M 0.800781 0.800781 L 23.199219 0.800781 L 23.199219 4.800781 L 0.800781 4.800781 Z M 23.199219 23.199219 L 0.800781 23.199219 L 0.800781 5.601562 L 23.199219 5.601562 Z M 23.199219 23.199219"/>
    <path d="M10 7.199219L2 7.199219 2 15.199219 10 15.199219zM9.199219 14.398438L2.800781 14.398438 2.800781 8 9.199219 8zM19.601562 18.800781L9.601562 18.800781 9.601562 18.398438C9.601562 18.179688 9.421875 18 9.199219 18 8.980469 18 8.800781 18.179688 8.800781 18.398438L8.800781 18.800781 7.601562 18.800781C7.378906 18.800781 7.199219 18.980469 7.199219 19.199219 7.199219 19.421875 7.378906 19.601562 7.601562 19.601562L8.800781 19.601562 8.800781 20C8.800781 20.222656 8.980469 20.398438 9.199219 20.398438 9.421875 20.398438 9.601562 20.222656 9.601562 20L9.601562 19.601562 19.601562 19.601562C19.820312 19.601562 20 19.421875 20 19.199219 20 18.980469 19.820312 18.800781 19.601562 18.800781zM4 18C3.777344 18 3.601562 18.179688 3.601562 18.398438L3.601562 20C3.601562 20.222656 3.777344 20.398438 4 20.398438 4.222656 20.398438 4.398438 20.222656 4.398438 20L4.398438 18.398438C4.398438 18.179688 4.222656 18 4 18zM5.199219 18C4.980469 18 4.800781 18.179688 4.800781 18.398438L4.800781 20C4.800781 20.222656 4.980469 20.398438 5.199219 20.398438 5.421875 20.398438 5.601562 20.222656 5.601562 20L5.601562 18.398438C5.601562 18.179688 5.421875 18 5.199219 18zM12 8L15.601562 8C15.820312 8 16 7.820312 16 7.601562 16 7.378906 15.820312 7.199219 15.601562 7.199219L12 7.199219C11.777344 7.199219 11.601562 7.378906 11.601562 7.601562 11.601562 7.820312 11.777344 8 12 8zM12 10L19.199219 10C19.421875 10 19.601562 9.820312 19.601562 9.601562 19.601562 9.378906 19.421875 9.199219 19.199219 9.199219L12 9.199219C11.777344 9.199219 11.601562 9.378906 11.601562 9.601562 11.601562 9.820312 11.777344 10 12 10zM12 12L21.601562 12C21.820312 12 22 11.820312 22 11.601562 22 11.378906 21.820312 11.199219 21.601562 11.199219L12 11.199219C11.777344 11.199219 11.601562 11.378906 11.601562 11.601562 11.601562 11.820312 11.777344 12 12 12zM12 14L20.398438 14C20.621094 14 20.800781 13.820312 20.800781 13.601562 20.800781 13.378906 20.621094 13.199219 20.398438 13.199219L12 13.199219C11.777344 13.199219 11.601562 13.378906 11.601562 13.601562 11.601562 13.820312 11.777344 14 12 14zM12 14"/>
    <path d="M22 21.601562L22 16.800781 2 16.800781 2 21.601562zM2.800781 17.601562L21.199219 17.601562 21.199219 20.800781 2.800781 20.800781zM5.363281 13.601562C6.210938 13.601562 6.800781 12.910156 6.800781 11.921875L6.800781 9.601562 7.601562 9.601562C7.820312 9.601562 8 9.421875 8 9.199219 8 8.980469 7.820312 8.800781 7.601562 8.800781L6.800781 8.800781C6.800781 8.578125 6.621094 8.398438 6.398438 8.398438 6.179688 8.398438 6 8.578125 6 8.800781L6 10.800781 5.484375 10.800781C4.652344 10.800781 4 11.429688 4 12.238281 4 13.050781 4.546875 13.601562 5.363281 13.601562zM5.484375 11.601562L6 11.601562 6 11.921875C6 12.347656 5.832031 12.800781 5.363281 12.800781 4.984375 12.800781 4.800781 12.617188 4.800781 12.238281 4.800781 11.875 5.09375 11.601562 5.484375 11.601562zM5.484375 11.601562"/>
</svg>
