<svg xmlns="http://www.w3.org/2000/svg" width="32" height="32" viewBox="0 0 24 24">
    <path d="M22 6.800781L18 6.800781 18 22 22 22zM19.199219 21.199219C19.199219 20.980469 19.019531 20.800781 18.800781 20.800781L18.800781 19.199219C19.019531 19.199219 19.199219 19.019531 19.199219 18.800781 19.199219 18.578125 19.019531 18.398438 18.800781 18.398438L18.800781 16.800781C19.019531 16.800781 19.199219 16.621094 19.199219 16.398438 19.199219 16.179688 19.019531 16 18.800781 16L18.800781 14.398438C19.019531 14.398438 19.199219 14.222656 19.199219 14 19.199219 13.777344 19.019531 13.601562 18.800781 13.601562L18.800781 12C19.019531 12 19.199219 11.820312 19.199219 11.601562 19.199219 11.378906 19.019531 11.199219 18.800781 11.199219L18.800781 9.601562C19.019531 9.601562 19.199219 9.421875 19.199219 9.199219 19.199219 8.980469 19.019531 8.800781 18.800781 8.800781L18.800781 7.601562 21.199219 7.601562 21.199219 8.800781C20.980469 8.800781 20.800781 8.980469 20.800781 9.199219 20.800781 9.421875 20.980469 9.601562 21.199219 9.601562L21.199219 11.199219C20.980469 11.199219 20.800781 11.378906 20.800781 11.601562 20.800781 11.820312 20.980469 12 21.199219 12L21.199219 13.601562C20.980469 13.601562 20.800781 13.777344 20.800781 14 20.800781 14.222656 20.980469 14.398438 21.199219 14.398438L21.199219 16C20.980469 16 20.800781 16.179688 20.800781 16.398438 20.800781 16.621094 20.980469 16.800781 21.199219 16.800781L21.199219 18.398438C20.980469 18.398438 20.800781 18.578125 20.800781 18.800781 20.800781 19.019531 20.980469 19.199219 21.199219 19.199219L21.199219 20.800781C20.980469 20.800781 20.800781 20.980469 20.800781 21.199219zM6 22L6 6.800781 2 6.800781 2 22zM2.800781 7.601562L5.199219 7.601562 5.199219 8.800781C4.980469 8.800781 4.800781 8.980469 4.800781 9.199219 4.800781 9.421875 4.980469 9.601562 5.199219 9.601562L5.199219 11.199219C4.980469 11.199219 4.800781 11.378906 4.800781 11.601562 4.800781 11.820312 4.980469 12 5.199219 12L5.199219 13.601562C4.980469 13.601562 4.800781 13.777344 4.800781 14 4.800781 14.222656 4.980469 14.398438 5.199219 14.398438L5.199219 16C4.980469 16 4.800781 16.179688 4.800781 16.398438 4.800781 16.621094 4.980469 16.800781 5.199219 16.800781L5.199219 18.398438C4.980469 18.398438 4.800781 18.578125 4.800781 18.800781 4.800781 19.019531 4.980469 19.199219 5.199219 19.199219L5.199219 20.800781C4.980469 20.800781 4.800781 20.980469 4.800781 21.199219L3.199219 21.199219C3.199219 20.980469 3.019531 20.800781 2.800781 20.800781L2.800781 19.199219C3.019531 19.199219 3.199219 19.019531 3.199219 18.800781 3.199219 18.578125 3.019531 18.398438 2.800781 18.398438L2.800781 16.800781C3.019531 16.800781 3.199219 16.621094 3.199219 16.398438 3.199219 16.179688 3.019531 16 2.800781 16L2.800781 14.398438C3.019531 14.398438 3.199219 14.222656 3.199219 14 3.199219 13.777344 3.019531 13.601562 2.800781 13.601562L2.800781 12C3.019531 12 3.199219 11.820312 3.199219 11.601562 3.199219 11.378906 3.019531 11.199219 2.800781 11.199219L2.800781 9.601562C3.019531 9.601562 3.199219 9.421875 3.199219 9.199219 3.199219 8.980469 3.019531 8.800781 2.800781 8.800781zM2.800781 1.199219C1.917969 1.199219 1.199219 1.917969 1.199219 2.800781 1.199219 3.683594 1.917969 4.398438 2.800781 4.398438 3.683594 4.398438 4.398438 3.683594 4.398438 2.800781 4.398438 1.917969 3.683594 1.199219 2.800781 1.199219zM2.800781 3.601562C2.359375 3.601562 2 3.242188 2 2.800781 2 2.359375 2.359375 2 2.800781 2 3.242188 2 3.601562 2.359375 3.601562 2.800781 3.601562 3.242188 3.242188 3.601562 2.800781 3.601562zM6.398438 1.199219C5.519531 1.199219 4.800781 1.917969 4.800781 2.800781 4.800781 3.683594 5.519531 4.398438 6.398438 4.398438 7.28125 4.398438 8 3.683594 8 2.800781 8 1.917969 7.28125 1.199219 6.398438 1.199219zM6.398438 3.601562C5.957031 3.601562 5.601562 3.242188 5.601562 2.800781 5.601562 2.359375 5.957031 2 6.398438 2 6.839844 2 7.199219 2.359375 7.199219 2.800781 7.199219 3.242188 6.839844 3.601562 6.398438 3.601562zM10 1.199219C9.117188 1.199219 8.398438 1.917969 8.398438 2.800781 8.398438 3.683594 9.117188 4.398438 10 4.398438 10.882812 4.398438 11.601562 3.683594 11.601562 2.800781 11.601562 1.917969 10.882812 1.199219 10 1.199219zM10 3.601562C9.558594 3.601562 9.199219 3.242188 9.199219 2.800781 9.199219 2.359375 9.558594 2 10 2 10.441406 2 10.800781 2.359375 10.800781 2.800781 10.800781 3.242188 10.441406 3.601562 10 3.601562zM10 3.601562"/>
    <path d="M 0 0 L 0 24 L 24 24 L 24 0 Z M 0.800781 0.800781 L 23.199219 0.800781 L 23.199219 4.800781 L 0.800781 4.800781 Z M 23.199219 23.199219 L 0.800781 23.199219 L 0.800781 5.601562 L 23.199219 5.601562 Z M 23.199219 23.199219"/>
    <path d="M16.800781 18.800781L7.199219 18.800781 7.199219 22 16.800781 22zM16 21.199219L8 21.199219 8 19.601562 16 19.601562zM16.800781 6.800781L7.199219 6.800781 7.199219 12.398438 16.800781 12.398438zM16 11.601562L8 11.601562 8 7.601562 16 7.601562zM7.601562 14L11.199219 14C11.421875 14 11.601562 13.820312 11.601562 13.601562 11.601562 13.378906 11.421875 13.199219 11.199219 13.199219L7.601562 13.199219C7.378906 13.199219 7.199219 13.378906 7.199219 13.601562 7.199219 13.820312 7.378906 14 7.601562 14zM7.601562 15.601562L16.398438 15.601562C16.621094 15.601562 16.800781 15.421875 16.800781 15.199219 16.800781 14.980469 16.621094 14.800781 16.398438 14.800781L7.601562 14.800781C7.378906 14.800781 7.199219 14.980469 7.199219 15.199219 7.199219 15.421875 7.378906 15.601562 7.601562 15.601562zM7.601562 17.199219L16.398438 17.199219C16.621094 17.199219 16.800781 17.019531 16.800781 16.800781 16.800781 16.578125 16.621094 16.398438 16.398438 16.398438L7.601562 16.398438C7.378906 16.398438 7.199219 16.578125 7.199219 16.800781 7.199219 17.019531 7.378906 17.199219 7.601562 17.199219zM4.398438 8C4.398438 8.222656 4.222656 8.398438 4 8.398438 3.777344 8.398438 3.601562 8.222656 3.601562 8 3.601562 7.777344 3.777344 7.601562 4 7.601562 4.222656 7.601562 4.398438 7.777344 4.398438 8zM4.398438 10.398438C4.398438 10.621094 4.222656 10.800781 4 10.800781 3.777344 10.800781 3.601562 10.621094 3.601562 10.398438 3.601562 10.179688 3.777344 10 4 10 4.222656 10 4.398438 10.179688 4.398438 10.398438zM4.398438 12.800781C4.398438 13.019531 4.222656 13.199219 4 13.199219 3.777344 13.199219 3.601562 13.019531 3.601562 12.800781 3.601562 12.578125 3.777344 12.398438 4 12.398438 4.222656 12.398438 4.398438 12.578125 4.398438 12.800781zM4.398438 15.199219C4.398438 15.421875 4.222656 15.601562 4 15.601562 3.777344 15.601562 3.601562 15.421875 3.601562 15.199219 3.601562 14.980469 3.777344 14.800781 4 14.800781 4.222656 14.800781 4.398438 14.980469 4.398438 15.199219zM4.398438 17.601562C4.398438 17.820312 4.222656 18 4 18 3.777344 18 3.601562 17.820312 3.601562 17.601562 3.601562 17.378906 3.777344 17.199219 4 17.199219 4.222656 17.199219 4.398438 17.378906 4.398438 17.601562zM4.398438 20C4.398438 20.222656 4.222656 20.398438 4 20.398438 3.777344 20.398438 3.601562 20.222656 3.601562 20 3.601562 19.777344 3.777344 19.601562 4 19.601562 4.222656 19.601562 4.398438 19.777344 4.398438 20zM20.398438 8C20.398438 8.222656 20.222656 8.398438 20 8.398438 19.777344 8.398438 19.601562 8.222656 19.601562 8 19.601562 7.777344 19.777344 7.601562 20 7.601562 20.222656 7.601562 20.398438 7.777344 20.398438 8zM20.398438 10.398438C20.398438 10.621094 20.222656 10.800781 20 10.800781 19.777344 10.800781 19.601562 10.621094 19.601562 10.398438 19.601562 10.179688 19.777344 10 20 10 20.222656 10 20.398438 10.179688 20.398438 10.398438zM20.398438 12.800781C20.398438 13.019531 20.222656 13.199219 20 13.199219 19.777344 13.199219 19.601562 13.019531 19.601562 12.800781 19.601562 12.578125 19.777344 12.398438 20 12.398438 20.222656 12.398438 20.398438 12.578125 20.398438 12.800781zM20.398438 15.199219C20.398438 15.421875 20.222656 15.601562 20 15.601562 19.777344 15.601562 19.601562 15.421875 19.601562 15.199219 19.601562 14.980469 19.777344 14.800781 20 14.800781 20.222656 14.800781 20.398438 14.980469 20.398438 15.199219zM20.398438 17.601562C20.398438 17.820312 20.222656 18 20 18 19.777344 18 19.601562 17.820312 19.601562 17.601562 19.601562 17.378906 19.777344 17.199219 20 17.199219 20.222656 17.199219 20.398438 17.378906 20.398438 17.601562zM20.398438 20C20.398438 20.222656 20.222656 20.398438 20 20.398438 19.777344 20.398438 19.601562 20.222656 19.601562 20 19.601562 19.777344 19.777344 19.601562 20 19.601562 20.222656 19.601562 20.398438 19.777344 20.398438 20zM20.398438 20"/>
</svg>
