<svg xmlns="http://www.w3.org/2000/svg" width="32" height="32" viewBox="0 0 24 24">
    <path d="M2.800781 1.199219C1.917969 1.199219 1.199219 1.917969 1.199219 2.800781 1.199219 3.683594 1.917969 4.398438 2.800781 4.398438 3.683594 4.398438 4.398438 3.683594 4.398438 2.800781 4.398438 1.917969 3.683594 1.199219 2.800781 1.199219zM2.800781 3.601562C2.359375 3.601562 2 3.242188 2 2.800781 2 2.359375 2.359375 2 2.800781 2 3.242188 2 3.601562 2.359375 3.601562 2.800781 3.601562 3.242188 3.242188 3.601562 2.800781 3.601562zM6.398438 1.199219C5.519531 1.199219 4.800781 1.917969 4.800781 2.800781 4.800781 3.683594 5.519531 4.398438 6.398438 4.398438 7.28125 4.398438 8 3.683594 8 2.800781 8 1.917969 7.28125 1.199219 6.398438 1.199219zM6.398438 3.601562C5.957031 3.601562 5.601562 3.242188 5.601562 2.800781 5.601562 2.359375 5.957031 2 6.398438 2 6.839844 2 7.199219 2.359375 7.199219 2.800781 7.199219 3.242188 6.839844 3.601562 6.398438 3.601562zM10 1.199219C9.117188 1.199219 8.398438 1.917969 8.398438 2.800781 8.398438 3.683594 9.117188 4.398438 10 4.398438 10.882812 4.398438 11.601562 3.683594 11.601562 2.800781 11.601562 1.917969 10.882812 1.199219 10 1.199219zM10 3.601562C9.558594 3.601562 9.199219 3.242188 9.199219 2.800781 9.199219 2.359375 9.558594 2 10 2 10.441406 2 10.800781 2.359375 10.800781 2.800781 10.800781 3.242188 10.441406 3.601562 10 3.601562zM10 3.601562"/>
    <path d="M 0 0 L 0 24 L 24 24 L 24 0 Z M 0.800781 0.800781 L 23.199219 0.800781 L 23.199219 4.800781 L 0.800781 4.800781 Z M 23.199219 23.199219 L 0.800781 23.199219 L 0.800781 5.601562 L 23.199219 5.601562 Z M 23.199219 23.199219"/>
    <path d="M 3.601562 14.398438 C 3.378906 14.398438 3.199219 14.578125 3.199219 14.800781 C 3.199219 15.019531 3.378906 15.199219 3.601562 15.199219 L 5.601562 15.199219 L 5.601562 18.398438 L 3.601562 18.398438 C 3.378906 18.398438 3.199219 18.578125 3.199219 18.800781 C 3.199219 19.019531 3.378906 19.199219 3.601562 19.199219 L 5.601562 19.199219 L 5.601562 20.398438 C 5.601562 20.621094 5.777344 20.800781 6 20.800781 C 6.222656 20.800781 6.398438 20.621094 6.398438 20.398438 L 6.398438 19.199219 L 16.800781 19.199219 L 16.800781 20.800781 C 16.800781 21.019531 16.980469 21.199219 17.199219 21.199219 C 17.421875 21.199219 17.601562 21.019531 17.601562 20.800781 L 17.601562 19.199219 L 20.398438 19.199219 C 20.621094 19.199219 20.800781 19.019531 20.800781 18.800781 C 20.800781 18.578125 20.621094 18.398438 20.398438 18.398438 L 17.601562 18.398438 L 17.601562 15.199219 L 20.398438 15.199219 C 20.621094 15.199219 20.800781 15.019531 20.800781 14.800781 C 20.800781 14.578125 20.621094 14.398438 20.398438 14.398438 L 17.601562 14.398438 L 17.601562 13.199219 C 17.601562 12.980469 17.421875 12.800781 17.199219 12.800781 C 16.980469 12.800781 16.800781 12.980469 16.800781 13.199219 L 16.800781 14.398438 L 15.320312 14.398438 C 15.6875 13.578125 16.019531 12.613281 16.253906 11.511719 C 16.273438 11.40625 16.289062 11.304688 16.304688 11.199219 L 20.398438 11.199219 C 20.621094 11.199219 20.800781 11.019531 20.800781 10.800781 C 20.800781 10.578125 20.621094 10.398438 20.398438 10.398438 L 16.394531 10.398438 C 16.40625 10.074219 16.394531 9.753906 16.355469 9.445312 C 16.09375 7.453125 14.855469 6.398438 12.777344 6.398438 C 10.703125 6.398438 9.464844 7.453125 9.203125 9.445312 C 9.164062 9.753906 9.152344 10.074219 9.164062 10.398438 L 6.398438 10.398438 L 6.398438 9.199219 C 6.398438 8.980469 6.222656 8.800781 6 8.800781 C 5.777344 8.800781 5.601562 8.980469 5.601562 9.199219 L 5.601562 10.398438 L 3.601562 10.398438 C 3.378906 10.398438 3.199219 10.578125 3.199219 10.800781 C 3.199219 11.019531 3.378906 11.199219 3.601562 11.199219 L 5.601562 11.199219 L 5.601562 14.398438 Z M 16.800781 15.199219 L 16.800781 18.398438 L 6.398438 18.398438 L 6.398438 15.199219 L 10.628906 15.199219 C 11.34375 16.558594 12.085938 17.417969 12.394531 17.75 C 12.496094 17.855469 12.636719 17.914062 12.777344 17.914062 C 12.777344 17.914062 12.78125 17.914062 12.78125 17.914062 C 12.925781 17.914062 13.0625 17.855469 13.164062 17.75 C 13.472656 17.417969 14.214844 16.558594 14.929688 15.199219 Z M 9.996094 9.546875 C 10.203125 7.96875 11.113281 7.199219 12.777344 7.199219 C 14.445312 7.199219 15.355469 7.96875 15.5625 9.546875 C 15.632812 10.105469 15.601562 10.710938 15.46875 11.347656 C 14.839844 14.339844 13.375 16.285156 12.777344 16.980469 C 12.183594 16.285156 10.71875 14.339844 10.089844 11.347656 C 10.050781 11.164062 10.023438 10.980469 10 10.800781 C 9.949219 10.363281 9.945312 9.945312 9.996094 9.546875 Z M 6.398438 11.199219 L 9.25 11.199219 C 9.269531 11.304688 9.28125 11.40625 9.304688 11.511719 C 9.539062 12.613281 9.871094 13.578125 10.238281 14.398438 L 6.398438 14.398438 Z M 6.398438 11.199219"/>
    <path d="M 12.777344 11.769531 C 13.804688 11.769531 14.644531 10.933594 14.644531 9.90625 C 14.644531 8.878906 13.804688 8.042969 12.777344 8.042969 C 11.75 8.042969 10.914062 8.878906 10.914062 9.90625 C 10.914062 10.933594 11.75 11.769531 12.777344 11.769531 Z M 12.777344 8.84375 C 13.367188 8.84375 13.84375 9.320312 13.84375 9.90625 C 13.84375 10.492188 13.367188 10.96875 12.777344 10.96875 C 12.191406 10.96875 11.714844 10.492188 11.714844 9.90625 C 11.714844 9.320312 12.191406 8.84375 12.777344 8.84375 Z M 12.777344 8.84375"/>
</svg>
