<svg xmlns="http://www.w3.org/2000/svg" width="32" height="32" viewBox="0 0 24 24">
    <path d="M2.800781 1.199219C1.917969 1.199219 1.199219 1.917969 1.199219 2.800781 1.199219 3.683594 1.917969 4.398438 2.800781 4.398438 3.683594 4.398438 4.398438 3.683594 4.398438 2.800781 4.398438 1.917969 3.683594 1.199219 2.800781 1.199219zM2.800781 3.601562C2.359375 3.601562 2 3.242188 2 2.800781 2 2.359375 2.359375 2 2.800781 2 3.242188 2 3.601562 2.359375 3.601562 2.800781 3.601562 3.242188 3.242188 3.601562 2.800781 3.601562zM6.398438 1.199219C5.519531 1.199219 4.800781 1.917969 4.800781 2.800781 4.800781 3.683594 5.519531 4.398438 6.398438 4.398438 7.28125 4.398438 8 3.683594 8 2.800781 8 1.917969 7.28125 1.199219 6.398438 1.199219zM6.398438 3.601562C5.957031 3.601562 5.601562 3.242188 5.601562 2.800781 5.601562 2.359375 5.957031 2 6.398438 2 6.839844 2 7.199219 2.359375 7.199219 2.800781 7.199219 3.242188 6.839844 3.601562 6.398438 3.601562zM10 1.199219C9.117188 1.199219 8.398438 1.917969 8.398438 2.800781 8.398438 3.683594 9.117188 4.398438 10 4.398438 10.882812 4.398438 11.601562 3.683594 11.601562 2.800781 11.601562 1.917969 10.882812 1.199219 10 1.199219zM10 3.601562C9.558594 3.601562 9.199219 3.242188 9.199219 2.800781 9.199219 2.359375 9.558594 2 10 2 10.441406 2 10.800781 2.359375 10.800781 2.800781 10.800781 3.242188 10.441406 3.601562 10 3.601562zM10 3.601562"/>
    <path d="M 0 0 L 0 24 L 24 24 L 24 0 Z M 0.800781 0.800781 L 23.199219 0.800781 L 23.199219 4.800781 L 0.800781 4.800781 Z M 23.199219 23.199219 L 0.800781 23.199219 L 0.800781 5.601562 L 23.199219 5.601562 Z M 23.199219 23.199219"/>
    <path d="M 20.398438 13.601562 C 20.398438 13.492188 20.386719 13.386719 20.382812 13.28125 C 20.390625 13.253906 20.398438 13.226562 20.398438 13.199219 C 20.398438 13.152344 20.386719 13.109375 20.371094 13.066406 C 20.097656 9.34375 16.988281 6.398438 13.199219 6.398438 L 12.800781 6.398438 L 12.800781 14 L 20.398438 14 Z M 18 13.199219 C 18 12.980469 17.820312 12.800781 17.601562 12.800781 C 17.378906 12.800781 17.199219 12.980469 17.199219 13.199219 L 15.601562 13.199219 C 15.601562 12.980469 15.421875 12.800781 15.199219 12.800781 C 14.980469 12.800781 14.800781 12.980469 14.800781 13.199219 L 13.601562 13.199219 L 13.601562 7.210938 C 13.609375 7.425781 13.785156 7.601562 14 7.601562 C 14.179688 7.601562 14.328125 7.476562 14.375 7.3125 C 17.21875 7.84375 19.40625 10.253906 19.585938 13.199219 Z M 18 13.199219"/>
    <path d="M11.601562 22.398438C15.570312 22.398438 18.800781 19.171875 18.800781 15.199219L18.800781 14.800781 12 14.800781 12 8 11.601562 8C7.628906 8 4.398438 11.230469 4.398438 15.199219 4.398438 19.171875 7.628906 22.398438 11.601562 22.398438zM11.199219 8.8125L11.199219 15.601562 17.988281 15.601562C17.78125 18.941406 14.996094 21.601562 11.601562 21.601562 8.070312 21.601562 5.199219 18.730469 5.199219 15.199219 5.199219 11.804688 7.855469 9.019531 11.199219 8.8125zM18 10.800781C18 11.019531 17.820312 11.199219 17.601562 11.199219 17.378906 11.199219 17.199219 11.019531 17.199219 10.800781 17.199219 10.578125 17.378906 10.398438 17.601562 10.398438 17.820312 10.398438 18 10.578125 18 10.800781zM19.199219 12C19.199219 12.222656 19.019531 12.398438 18.800781 12.398438 18.578125 12.398438 18.398438 12.222656 18.398438 12 18.398438 11.777344 18.578125 11.601562 18.800781 11.601562 19.019531 11.601562 19.199219 11.777344 19.199219 12zM16.800781 9.601562C16.800781 9.820312 16.621094 10 16.398438 10 16.179688 10 16 9.820312 16 9.601562 16 9.378906 16.179688 9.199219 16.398438 9.199219 16.621094 9.199219 16.800781 9.378906 16.800781 9.601562zM15.601562 8.398438C15.601562 8.621094 15.421875 8.800781 15.199219 8.800781 14.980469 8.800781 14.800781 8.621094 14.800781 8.398438 14.800781 8.179688 14.980469 8 15.199219 8 15.421875 8 15.601562 8.179688 15.601562 8.398438zM15.601562 8.398438"/>
    <path d="M15.601562 10.800781C15.601562 11.019531 15.421875 11.199219 15.199219 11.199219 14.980469 11.199219 14.800781 11.019531 14.800781 10.800781 14.800781 10.578125 14.980469 10.398438 15.199219 10.398438 15.421875 10.398438 15.601562 10.578125 15.601562 10.800781zM16.800781 12C16.800781 12.222656 16.621094 12.398438 16.398438 12.398438 16.179688 12.398438 16 12.222656 16 12 16 11.777344 16.179688 11.601562 16.398438 11.601562 16.621094 11.601562 16.800781 11.777344 16.800781 12zM14.398438 9.601562C14.398438 9.820312 14.222656 10 14 10 13.777344 10 13.601562 9.820312 13.601562 9.601562 13.601562 9.378906 13.777344 9.199219 14 9.199219 14.222656 9.199219 14.398438 9.378906 14.398438 9.601562zM14.398438 12C14.398438 12.222656 14.222656 12.398438 14 12.398438 13.777344 12.398438 13.601562 12.222656 13.601562 12 13.601562 11.777344 13.777344 11.601562 14 11.601562 14.222656 11.601562 14.398438 11.777344 14.398438 12zM14.398438 12"/>
</svg>
