<svg xmlns="http://www.w3.org/2000/svg" width="32" height="32" viewBox="0 0 24 24">
    <path d="M22 6.800781L2 6.800781 2 12.398438 22 12.398438zM21.199219 11.601562L19.601562 11.601562C19.601562 11.378906 19.421875 11.199219 19.199219 11.199219 18.980469 11.199219 18.800781 11.378906 18.800781 11.601562L17.199219 11.601562C17.199219 11.378906 17.019531 11.199219 16.800781 11.199219 16.578125 11.199219 16.398438 11.378906 16.398438 11.601562L14.800781 11.601562C14.800781 11.378906 14.621094 11.199219 14.398438 11.199219 14.179688 11.199219 14 11.378906 14 11.601562L12.398438 11.601562C12.398438 11.378906 12.222656 11.199219 12 11.199219 11.777344 11.199219 11.601562 11.378906 11.601562 11.601562L10 11.601562C10 11.378906 9.820312 11.199219 9.601562 11.199219 9.378906 11.199219 9.199219 11.378906 9.199219 11.601562L7.601562 11.601562C7.601562 11.378906 7.421875 11.199219 7.199219 11.199219 6.980469 11.199219 6.800781 11.378906 6.800781 11.601562L5.199219 11.601562C5.199219 11.378906 5.019531 11.199219 4.800781 11.199219 4.578125 11.199219 4.398438 11.378906 4.398438 11.601562L2.800781 11.601562 2.800781 7.601562 21.199219 7.601562zM2.800781 1.199219C1.917969 1.199219 1.199219 1.917969 1.199219 2.800781 1.199219 3.683594 1.917969 4.398438 2.800781 4.398438 3.683594 4.398438 4.398438 3.683594 4.398438 2.800781 4.398438 1.917969 3.683594 1.199219 2.800781 1.199219zM2.800781 3.601562C2.359375 3.601562 2 3.242188 2 2.800781 2 2.359375 2.359375 2 2.800781 2 3.242188 2 3.601562 2.359375 3.601562 2.800781 3.601562 3.242188 3.242188 3.601562 2.800781 3.601562zM6.398438 1.199219C5.519531 1.199219 4.800781 1.917969 4.800781 2.800781 4.800781 3.683594 5.519531 4.398438 6.398438 4.398438 7.28125 4.398438 8 3.683594 8 2.800781 8 1.917969 7.28125 1.199219 6.398438 1.199219zM6.398438 3.601562C5.957031 3.601562 5.601562 3.242188 5.601562 2.800781 5.601562 2.359375 5.957031 2 6.398438 2 6.839844 2 7.199219 2.359375 7.199219 2.800781 7.199219 3.242188 6.839844 3.601562 6.398438 3.601562zM10 1.199219C9.117188 1.199219 8.398438 1.917969 8.398438 2.800781 8.398438 3.683594 9.117188 4.398438 10 4.398438 10.882812 4.398438 11.601562 3.683594 11.601562 2.800781 11.601562 1.917969 10.882812 1.199219 10 1.199219zM10 3.601562C9.558594 3.601562 9.199219 3.242188 9.199219 2.800781 9.199219 2.359375 9.558594 2 10 2 10.441406 2 10.800781 2.359375 10.800781 2.800781 10.800781 3.242188 10.441406 3.601562 10 3.601562zM10 3.601562"/>
    <path d="M 0 0 L 0 24 L 24 24 L 24 0 Z M 0.800781 0.800781 L 23.199219 0.800781 L 23.199219 4.800781 L 0.800781 4.800781 Z M 23.199219 23.199219 L 0.800781 23.199219 L 0.800781 5.601562 L 23.199219 5.601562 Z M 23.199219 23.199219"/>
    <path d="M12.398438 18.398438L22 18.398438 22 13.601562 12.398438 13.601562zM13.199219 14.398438L21.199219 14.398438 21.199219 17.601562 13.199219 17.601562zM21.601562 19.199219L12.800781 19.199219C12.578125 19.199219 12.398438 19.378906 12.398438 19.601562 12.398438 19.820312 12.578125 20 12.800781 20L21.601562 20C21.820312 20 22 19.820312 22 19.601562 22 19.378906 21.820312 19.199219 21.601562 19.199219zM21.601562 20.800781L12.800781 20.800781C12.578125 20.800781 12.398438 20.980469 12.398438 21.199219 12.398438 21.421875 12.578125 21.601562 12.800781 21.601562L21.601562 21.601562C21.820312 21.601562 22 21.421875 22 21.199219 22 20.980469 21.820312 20.800781 21.601562 20.800781zM11.601562 13.601562L2 13.601562 2 18.398438 11.601562 18.398438zM10.800781 17.601562L2.800781 17.601562 2.800781 14.398438 10.800781 14.398438zM2.398438 20L11.199219 20C11.421875 20 11.601562 19.820312 11.601562 19.601562 11.601562 19.378906 11.421875 19.199219 11.199219 19.199219L2.398438 19.199219C2.179688 19.199219 2 19.378906 2 19.601562 2 19.820312 2.179688 20 2.398438 20zM11.199219 20.800781L2.398438 20.800781C2.179688 20.800781 2 20.980469 2 21.199219 2 21.421875 2.179688 21.601562 2.398438 21.601562L11.199219 21.601562C11.421875 21.601562 11.601562 21.421875 11.601562 21.199219 11.601562 20.980469 11.421875 20.800781 11.199219 20.800781zM20.800781 8C20.800781 8.222656 20.621094 8.398438 20.398438 8.398438 20.179688 8.398438 20 8.222656 20 8 20 7.777344 20.179688 7.601562 20.398438 7.601562 20.621094 7.601562 20.800781 7.777344 20.800781 8zM20.800781 10.398438C20.800781 10.621094 20.621094 10.800781 20.398438 10.800781 20.179688 10.800781 20 10.621094 20 10.398438 20 10.179688 20.179688 10 20.398438 10 20.621094 10 20.800781 10.179688 20.800781 10.398438zM19.601562 9.199219C19.601562 9.421875 19.421875 9.601562 19.199219 9.601562 18.980469 9.601562 18.800781 9.421875 18.800781 9.199219 18.800781 8.980469 18.980469 8.800781 19.199219 8.800781 19.421875 8.800781 19.601562 8.980469 19.601562 9.199219zM18.398438 8C18.398438 8.222656 18.222656 8.398438 18 8.398438 17.777344 8.398438 17.601562 8.222656 17.601562 8 17.601562 7.777344 17.777344 7.601562 18 7.601562 18.222656 7.601562 18.398438 7.777344 18.398438 8zM18.398438 10.398438C18.398438 10.621094 18.222656 10.800781 18 10.800781 17.777344 10.800781 17.601562 10.621094 17.601562 10.398438 17.601562 10.179688 17.777344 10 18 10 18.222656 10 18.398438 10.179688 18.398438 10.398438zM17.199219 9.199219C17.199219 9.421875 17.019531 9.601562 16.800781 9.601562 16.578125 9.601562 16.398438 9.421875 16.398438 9.199219 16.398438 8.980469 16.578125 8.800781 16.800781 8.800781 17.019531 8.800781 17.199219 8.980469 17.199219 9.199219zM16 8C16 8.222656 15.820312 8.398438 15.601562 8.398438 15.378906 8.398438 15.199219 8.222656 15.199219 8 15.199219 7.777344 15.378906 7.601562 15.601562 7.601562 15.820312 7.601562 16 7.777344 16 8zM16 10.398438C16 10.621094 15.820312 10.800781 15.601562 10.800781 15.378906 10.800781 15.199219 10.621094 15.199219 10.398438 15.199219 10.179688 15.378906 10 15.601562 10 15.820312 10 16 10.179688 16 10.398438zM14.800781 9.199219C14.800781 9.421875 14.621094 9.601562 14.398438 9.601562 14.179688 9.601562 14 9.421875 14 9.199219 14 8.980469 14.179688 8.800781 14.398438 8.800781 14.621094 8.800781 14.800781 8.980469 14.800781 9.199219zM13.601562 8C13.601562 8.222656 13.421875 8.398438 13.199219 8.398438 12.980469 8.398438 12.800781 8.222656 12.800781 8 12.800781 7.777344 12.980469 7.601562 13.199219 7.601562 13.421875 7.601562 13.601562 7.777344 13.601562 8zM13.601562 10.398438C13.601562 10.621094 13.421875 10.800781 13.199219 10.800781 12.980469 10.800781 12.800781 10.621094 12.800781 10.398438 12.800781 10.179688 12.980469 10 13.199219 10 13.421875 10 13.601562 10.179688 13.601562 10.398438zM12.398438 9.199219C12.398438 9.421875 12.222656 9.601562 12 9.601562 11.777344 9.601562 11.601562 9.421875 11.601562 9.199219 11.601562 8.980469 11.777344 8.800781 12 8.800781 12.222656 8.800781 12.398438 8.980469 12.398438 9.199219zM11.199219 8C11.199219 8.222656 11.019531 8.398438 10.800781 8.398438 10.578125 8.398438 10.398438 8.222656 10.398438 8 10.398438 7.777344 10.578125 7.601562 10.800781 7.601562 11.019531 7.601562 11.199219 7.777344 11.199219 8zM11.199219 10.398438C11.199219 10.621094 11.019531 10.800781 10.800781 10.800781 10.578125 10.800781 10.398438 10.621094 10.398438 10.398438 10.398438 10.179688 10.578125 10 10.800781 10 11.019531 10 11.199219 10.179688 11.199219 10.398438zM10 9.199219C10 9.421875 9.820312 9.601562 9.601562 9.601562 9.378906 9.601562 9.199219 9.421875 9.199219 9.199219 9.199219 8.980469 9.378906 8.800781 9.601562 8.800781 9.820312 8.800781 10 8.980469 10 9.199219zM8.800781 8C8.800781 8.222656 8.621094 8.398438 8.398438 8.398438 8.179688 8.398438 8 8.222656 8 8 8 7.777344 8.179688 7.601562 8.398438 7.601562 8.621094 7.601562 8.800781 7.777344 8.800781 8zM8.800781 10.398438C8.800781 10.621094 8.621094 10.800781 8.398438 10.800781 8.179688 10.800781 8 10.621094 8 10.398438 8 10.179688 8.179688 10 8.398438 10 8.621094 10 8.800781 10.179688 8.800781 10.398438zM7.601562 9.199219C7.601562 9.421875 7.421875 9.601562 7.199219 9.601562 6.980469 9.601562 6.800781 9.421875 6.800781 9.199219 6.800781 8.980469 6.980469 8.800781 7.199219 8.800781 7.421875 8.800781 7.601562 8.980469 7.601562 9.199219zM6.398438 8C6.398438 8.222656 6.222656 8.398438 6 8.398438 5.777344 8.398438 5.601562 8.222656 5.601562 8 5.601562 7.777344 5.777344 7.601562 6 7.601562 6.222656 7.601562 6.398438 7.777344 6.398438 8zM6.398438 10.398438C6.398438 10.621094 6.222656 10.800781 6 10.800781 5.777344 10.800781 5.601562 10.621094 5.601562 10.398438 5.601562 10.179688 5.777344 10 6 10 6.222656 10 6.398438 10.179688 6.398438 10.398438zM5.199219 9.199219C5.199219 9.421875 5.019531 9.601562 4.800781 9.601562 4.578125 9.601562 4.398438 9.421875 4.398438 9.199219 4.398438 8.980469 4.578125 8.800781 4.800781 8.800781 5.019531 8.800781 5.199219 8.980469 5.199219 9.199219zM4 8C4 8.222656 3.820312 8.398438 3.601562 8.398438 3.378906 8.398438 3.199219 8.222656 3.199219 8 3.199219 7.777344 3.378906 7.601562 3.601562 7.601562 3.820312 7.601562 4 7.777344 4 8zM4 10.398438C4 10.621094 3.820312 10.800781 3.601562 10.800781 3.378906 10.800781 3.199219 10.621094 3.199219 10.398438 3.199219 10.179688 3.378906 10 3.601562 10 3.820312 10 4 10.179688 4 10.398438zM4 10.398438"/>
</svg>
