<svg xmlns="http://www.w3.org/2000/svg" width="32" height="32" viewBox="0 0 24 24">
    <path d="M4.398438 2.800781C4.398438 1.917969 3.683594 1.199219 2.800781 1.199219 1.917969 1.199219 1.199219 1.917969 1.199219 2.800781 1.199219 3.683594 1.917969 4.398438 2.800781 4.398438 3.683594 4.398438 4.398438 3.683594 4.398438 2.800781zM2 2.800781C2 2.359375 2.359375 2 2.800781 2 3.242188 2 3.601562 2.359375 3.601562 2.800781 3.601562 3.242188 3.242188 3.601562 2.800781 3.601562 2.359375 3.601562 2 3.242188 2 2.800781zM6.398438 4.398438C7.28125 4.398438 8 3.683594 8 2.800781 8 1.917969 7.28125 1.199219 6.398438 1.199219 5.519531 1.199219 4.800781 1.917969 4.800781 2.800781 4.800781 3.683594 5.519531 4.398438 6.398438 4.398438zM6.398438 2C6.839844 2 7.199219 2.359375 7.199219 2.800781 7.199219 3.242188 6.839844 3.601562 6.398438 3.601562 5.957031 3.601562 5.601562 3.242188 5.601562 2.800781 5.601562 2.359375 5.957031 2 6.398438 2zM10 4.398438C10.882812 4.398438 11.601562 3.683594 11.601562 2.800781 11.601562 1.917969 10.882812 1.199219 10 1.199219 9.117188 1.199219 8.398438 1.917969 8.398438 2.800781 8.398438 3.683594 9.117188 4.398438 10 4.398438zM10 2C10.441406 2 10.800781 2.359375 10.800781 2.800781 10.800781 3.242188 10.441406 3.601562 10 3.601562 9.558594 3.601562 9.199219 3.242188 9.199219 2.800781 9.199219 2.359375 9.558594 2 10 2zM10 2"/>
    <path d="M 0 0 L 0 24 L 24 24 L 24 0 Z M 0.800781 0.800781 L 23.199219 0.800781 L 23.199219 4.800781 L 0.800781 4.800781 Z M 23.199219 23.199219 L 0.800781 23.199219 L 0.800781 18.800781 C 1.019531 18.800781 1.199219 18.621094 1.199219 18.398438 C 1.199219 18.179688 1.019531 18 0.800781 18 L 0.800781 5.601562 L 18 5.601562 C 18 5.820312 18.179688 6 18.398438 6 C 18.621094 6 18.800781 5.820312 18.800781 5.601562 L 23.199219 5.601562 Z M 23.199219 23.199219"/>
    <path d="M18.398438 17.601562C18.179688 17.601562 18 17.777344 18 18 17.777344 18 17.601562 18.179688 17.601562 18.398438 17.601562 18.621094 17.777344 18.800781 18 18.800781L18.800781 18.800781 18.800781 18C18.800781 17.777344 18.621094 17.601562 18.398438 17.601562zM14.691406 18L14.03125 18C13.808594 18 13.628906 18.179688 13.628906 18.398438 13.628906 18.621094 13.808594 18.800781 14.03125 18.800781L14.691406 18.800781C14.914062 18.800781 15.09375 18.621094 15.09375 18.398438 15.09375 18.179688 14.914062 18 14.691406 18zM16.675781 18L16.015625 18C15.792969 18 15.613281 18.179688 15.613281 18.398438 15.613281 18.621094 15.792969 18.800781 16.015625 18.800781L16.675781 18.800781C16.898438 18.800781 17.078125 18.621094 17.078125 18.398438 17.078125 18.179688 16.898438 18 16.675781 18zM4.769531 18L4.109375 18C3.886719 18 3.707031 18.179688 3.707031 18.398438 3.707031 18.621094 3.886719 18.800781 4.109375 18.800781L4.769531 18.800781C4.992188 18.800781 5.167969 18.621094 5.167969 18.398438 5.167969 18.179688 4.992188 18 4.769531 18zM2.785156 18L2.125 18C1.902344 18 1.722656 18.179688 1.722656 18.398438 1.722656 18.621094 1.902344 18.800781 2.125 18.800781L2.785156 18.800781C3.007812 18.800781 3.183594 18.621094 3.183594 18.398438 3.183594 18.179688 3.007812 18 2.785156 18zM10.722656 18L10.0625 18C9.839844 18 9.660156 18.179688 9.660156 18.398438 9.660156 18.621094 9.839844 18.800781 10.0625 18.800781L10.722656 18.800781C10.945312 18.800781 11.125 18.621094 11.125 18.398438 11.125 18.179688 10.945312 18 10.722656 18zM12.707031 18L12.046875 18C11.824219 18 11.644531 18.179688 11.644531 18.398438 11.644531 18.621094 11.824219 18.800781 12.046875 18.800781L12.707031 18.800781C12.929688 18.800781 13.109375 18.621094 13.109375 18.398438 13.109375 18.179688 12.929688 18 12.707031 18zM6.753906 18L6.09375 18C5.871094 18 5.691406 18.179688 5.691406 18.398438 5.691406 18.621094 5.871094 18.800781 6.09375 18.800781L6.753906 18.800781C6.976562 18.800781 7.152344 18.621094 7.152344 18.398438 7.152344 18.179688 6.976562 18 6.753906 18zM8.738281 18L8.078125 18C7.855469 18 7.675781 18.179688 7.675781 18.398438 7.675781 18.621094 7.855469 18.800781 8.078125 18.800781L8.738281 18.800781C8.960938 18.800781 9.140625 18.621094 9.140625 18.398438 9.140625 18.179688 8.960938 18 8.738281 18zM18.398438 8.847656C18.179688 8.847656 18 9.027344 18 9.246094L18 9.976562C18 10.199219 18.179688 10.375 18.398438 10.375 18.621094 10.375 18.800781 10.199219 18.800781 9.976562L18.800781 9.246094C18.800781 9.027344 18.621094 8.847656 18.398438 8.847656zM18.398438 6.660156C18.179688 6.660156 18 6.835938 18 7.058594L18 7.789062C18 8.007812 18.179688 8.1875 18.398438 8.1875 18.621094 8.1875 18.800781 8.007812 18.800781 7.789062L18.800781 7.058594C18.800781 6.839844 18.621094 6.660156 18.398438 6.660156zM18.398438 15.410156C18.179688 15.410156 18 15.589844 18 15.8125L18 16.539062C18 16.761719 18.179688 16.941406 18.398438 16.941406 18.621094 16.941406 18.800781 16.761719 18.800781 16.539062L18.800781 15.8125C18.800781 15.589844 18.621094 15.410156 18.398438 15.410156zM18.398438 11.035156C18.179688 11.035156 18 11.214844 18 11.433594L18 12.164062C18 12.386719 18.179688 12.5625 18.398438 12.5625 18.621094 12.5625 18.800781 12.386719 18.800781 12.164062L18.800781 11.433594C18.800781 11.214844 18.621094 11.035156 18.398438 11.035156zM18.398438 13.222656C18.179688 13.222656 18 13.402344 18 13.625L18 14.351562C18 14.574219 18.179688 14.753906 18.398438 14.753906 18.621094 14.753906 18.800781 14.574219 18.800781 14.351562L18.800781 13.625C18.800781 13.402344 18.621094 13.222656 18.398438 13.222656zM18.398438 13.222656"/>
</svg>
