<svg xmlns="http://www.w3.org/2000/svg" width="32" height="32" viewBox="0 0 24 24">
    <path d="M2.800781 1.199219C1.917969 1.199219 1.199219 1.917969 1.199219 2.800781 1.199219 3.683594 1.917969 4.398438 2.800781 4.398438 3.683594 4.398438 4.398438 3.683594 4.398438 2.800781 4.398438 1.917969 3.683594 1.199219 2.800781 1.199219zM2.800781 3.601562C2.359375 3.601562 2 3.242188 2 2.800781 2 2.359375 2.359375 2 2.800781 2 3.242188 2 3.601562 2.359375 3.601562 2.800781 3.601562 3.242188 3.242188 3.601562 2.800781 3.601562zM6.398438 1.199219C5.519531 1.199219 4.800781 1.917969 4.800781 2.800781 4.800781 3.683594 5.519531 4.398438 6.398438 4.398438 7.28125 4.398438 8 3.683594 8 2.800781 8 1.917969 7.28125 1.199219 6.398438 1.199219zM6.398438 3.601562C5.957031 3.601562 5.601562 3.242188 5.601562 2.800781 5.601562 2.359375 5.957031 2 6.398438 2 6.839844 2 7.199219 2.359375 7.199219 2.800781 7.199219 3.242188 6.839844 3.601562 6.398438 3.601562zM10 1.199219C9.117188 1.199219 8.398438 1.917969 8.398438 2.800781 8.398438 3.683594 9.117188 4.398438 10 4.398438 10.882812 4.398438 11.601562 3.683594 11.601562 2.800781 11.601562 1.917969 10.882812 1.199219 10 1.199219zM10 3.601562C9.558594 3.601562 9.199219 3.242188 9.199219 2.800781 9.199219 2.359375 9.558594 2 10 2 10.441406 2 10.800781 2.359375 10.800781 2.800781 10.800781 3.242188 10.441406 3.601562 10 3.601562zM10 3.601562"/>
    <path d="M 0 0 L 0 24 L 24 24 L 24 0 Z M 0.800781 0.800781 L 23.199219 0.800781 L 23.199219 4.800781 L 0.800781 4.800781 Z M 23.199219 23.199219 L 0.800781 23.199219 L 0.800781 5.601562 L 23.199219 5.601562 Z M 23.199219 23.199219"/>
    <path d="M8 11.199219L8 8.398438 1.601562 8.398438 1.601562 17.199219 8 17.199219zM2.398438 9.199219L7.199219 9.199219 7.199219 10.398438 2.398438 10.398438zM2.398438 16.398438L2.398438 11.199219 7.199219 11.199219 7.199219 16.398438zM22.398438 11.199219L22.398438 8.398438 16 8.398438 16 17.199219 22.398438 17.199219zM16.800781 9.199219L21.601562 9.199219 21.601562 10.398438 16.800781 10.398438zM16.800781 16.398438L16.800781 11.199219 21.601562 11.199219 21.601562 16.398438zM15.199219 9.601562L15.199219 6.800781 8.800781 6.800781 8.800781 18.800781 15.199219 18.800781zM14.398438 7.835938L13.433594 8.800781 12.566406 8.800781 13.765625 7.601562 14.398438 7.601562zM10.566406 8.800781L11.765625 7.601562 12.632812 7.601562 11.433594 8.800781zM10.632812 7.601562L9.601562 8.632812 9.601562 7.601562zM9.601562 18L9.601562 9.601562 14.398438 9.601562 14.398438 18zM9.601562 18"/>
    <path d="M2.800781 16L6.800781 16 6.800781 13.601562 2.800781 13.601562zM3.601562 14.398438L6 14.398438 6 15.199219 3.601562 15.199219zM10 17.601562L14 17.601562 14 15.199219 10 15.199219zM10.800781 16L13.199219 16 13.199219 16.800781 10.800781 16.800781zM17.199219 16L21.199219 16 21.199219 13.601562 17.199219 13.601562zM18 14.398438L20.398438 14.398438 20.398438 15.199219 18 15.199219zM2 20.398438L7.601562 20.398438C7.820312 20.398438 8 20.222656 8 20 8 19.777344 7.820312 19.601562 7.601562 19.601562L2 19.601562C1.777344 19.601562 1.601562 19.777344 1.601562 20 1.601562 20.222656 1.777344 20.398438 2 20.398438zM7.601562 20.800781L2 20.800781C1.777344 20.800781 1.601562 20.980469 1.601562 21.199219 1.601562 21.421875 1.777344 21.601562 2 21.601562L7.601562 21.601562C7.820312 21.601562 8 21.421875 8 21.199219 8 20.980469 7.820312 20.800781 7.601562 20.800781zM9.199219 20.398438L14.800781 20.398438C15.019531 20.398438 15.199219 20.222656 15.199219 20 15.199219 19.777344 15.019531 19.601562 14.800781 19.601562L9.199219 19.601562C8.980469 19.601562 8.800781 19.777344 8.800781 20 8.800781 20.222656 8.980469 20.398438 9.199219 20.398438zM9.199219 21.601562L14.800781 21.601562C15.019531 21.601562 15.199219 21.421875 15.199219 21.199219 15.199219 20.980469 15.019531 20.800781 14.800781 20.800781L9.199219 20.800781C8.980469 20.800781 8.800781 20.980469 8.800781 21.199219 8.800781 21.421875 8.980469 21.601562 9.199219 21.601562zM16.398438 20.398438L22 20.398438C22.222656 20.398438 22.398438 20.222656 22.398438 20 22.398438 19.777344 22.222656 19.601562 22 19.601562L16.398438 19.601562C16.179688 19.601562 16 19.777344 16 20 16 20.222656 16.179688 20.398438 16.398438 20.398438zM16.398438 21.601562L22 21.601562C22.222656 21.601562 22.398438 21.421875 22.398438 21.199219 22.398438 20.980469 22.222656 20.800781 22 20.800781L16.398438 20.800781C16.179688 20.800781 16 20.980469 16 21.199219 16 21.421875 16.179688 21.601562 16.398438 21.601562zM16.398438 21.601562"/>
</svg>
