<svg xmlns="http://www.w3.org/2000/svg" width="32" height="32" viewBox="0 0 24 24">
    <path d="M2.800781 1.199219C1.917969 1.199219 1.199219 1.917969 1.199219 2.800781 1.199219 3.683594 1.917969 4.398438 2.800781 4.398438 3.683594 4.398438 4.398438 3.683594 4.398438 2.800781 4.398438 1.917969 3.683594 1.199219 2.800781 1.199219zM2.800781 3.601562C2.359375 3.601562 2 3.242188 2 2.800781 2 2.359375 2.359375 2 2.800781 2 3.242188 2 3.601562 2.359375 3.601562 2.800781 3.601562 3.242188 3.242188 3.601562 2.800781 3.601562zM6.398438 1.199219C5.519531 1.199219 4.800781 1.917969 4.800781 2.800781 4.800781 3.683594 5.519531 4.398438 6.398438 4.398438 7.28125 4.398438 8 3.683594 8 2.800781 8 1.917969 7.28125 1.199219 6.398438 1.199219zM6.398438 3.601562C5.957031 3.601562 5.601562 3.242188 5.601562 2.800781 5.601562 2.359375 5.957031 2 6.398438 2 6.839844 2 7.199219 2.359375 7.199219 2.800781 7.199219 3.242188 6.839844 3.601562 6.398438 3.601562zM10 1.199219C9.117188 1.199219 8.398438 1.917969 8.398438 2.800781 8.398438 3.683594 9.117188 4.398438 10 4.398438 10.882812 4.398438 11.601562 3.683594 11.601562 2.800781 11.601562 1.917969 10.882812 1.199219 10 1.199219zM10 3.601562C9.558594 3.601562 9.199219 3.242188 9.199219 2.800781 9.199219 2.359375 9.558594 2 10 2 10.441406 2 10.800781 2.359375 10.800781 2.800781 10.800781 3.242188 10.441406 3.601562 10 3.601562zM10 3.601562"/>
    <path d="M 0 0 L 0 24 L 24 24 L 24 0 Z M 0.800781 0.800781 L 23.199219 0.800781 L 23.199219 4.800781 L 0.800781 4.800781 Z M 23.199219 23.199219 L 0.800781 23.199219 L 0.800781 5.601562 L 23.199219 5.601562 Z M 23.199219 23.199219"/>
    <path d="M18.800781 8.398438L20.800781 8.398438C21.019531 8.398438 21.199219 8.222656 21.199219 8 21.199219 7.777344 21.019531 7.601562 20.800781 7.601562L18.800781 7.601562C18.578125 7.601562 18.398438 7.777344 18.398438 8 18.398438 8.222656 18.578125 8.398438 18.800781 8.398438zM18.800781 9.601562L20.800781 9.601562C21.019531 9.601562 21.199219 9.421875 21.199219 9.199219 21.199219 8.980469 21.019531 8.800781 20.800781 8.800781L18.800781 8.800781C18.578125 8.800781 18.398438 8.980469 18.398438 9.199219 18.398438 9.421875 18.578125 9.601562 18.800781 9.601562zM18.800781 10.800781L20.800781 10.800781C21.019531 10.800781 21.199219 10.621094 21.199219 10.398438 21.199219 10.179688 21.019531 10 20.800781 10L18.800781 10C18.578125 10 18.398438 10.179688 18.398438 10.398438 18.398438 10.621094 18.578125 10.800781 18.800781 10.800781zM4.800781 11.199219C5.902344 11.199219 6.800781 10.304688 6.800781 9.199219 6.800781 8.097656 5.902344 7.199219 4.800781 7.199219 3.695312 7.199219 2.800781 8.097656 2.800781 9.199219 2.800781 10.304688 3.695312 11.199219 4.800781 11.199219zM4.800781 8C5.460938 8 6 8.539062 6 9.199219 6 9.863281 5.460938 10.398438 4.800781 10.398438 4.136719 10.398438 3.601562 9.863281 3.601562 9.199219 3.601562 8.539062 4.136719 8 4.800781 8zM3.199219 14.800781L11.601562 14.800781C11.820312 14.800781 12 14.621094 12 14.398438 12 14.179688 11.820312 14 11.601562 14L3.199219 14C2.980469 14 2.800781 14.179688 2.800781 14.398438 2.800781 14.621094 2.980469 14.800781 3.199219 14.800781zM13.199219 14.800781L16.800781 14.800781C17.019531 14.800781 17.199219 14.621094 17.199219 14.398438 17.199219 14.179688 17.019531 14 16.800781 14L13.199219 14C12.980469 14 12.800781 14.179688 12.800781 14.398438 12.800781 14.621094 12.980469 14.800781 13.199219 14.800781zM18.398438 14.800781L20.800781 14.800781C21.019531 14.800781 21.199219 14.621094 21.199219 14.398438 21.199219 14.179688 21.019531 14 20.800781 14L18.398438 14C18.179688 14 18 14.179688 18 14.398438 18 14.621094 18.179688 14.800781 18.398438 14.800781zM12.398438 16.800781L20.800781 16.800781C21.019531 16.800781 21.199219 16.621094 21.199219 16.398438 21.199219 16.179688 21.019531 16 20.800781 16L12.398438 16C12.179688 16 12 16.179688 12 16.398438 12 16.621094 12.179688 16.800781 12.398438 16.800781zM7.199219 16C6.980469 16 6.800781 16.179688 6.800781 16.398438 6.800781 16.621094 6.980469 16.800781 7.199219 16.800781L10.800781 16.800781C11.019531 16.800781 11.199219 16.621094 11.199219 16.398438 11.199219 16.179688 11.019531 16 10.800781 16zM3.199219 16.800781L5.601562 16.800781C5.820312 16.800781 6 16.621094 6 16.398438 6 16.179688 5.820312 16 5.601562 16L3.199219 16C2.980469 16 2.800781 16.179688 2.800781 16.398438 2.800781 16.621094 2.980469 16.800781 3.199219 16.800781zM3.199219 18.800781L11.601562 18.800781C11.820312 18.800781 12 18.621094 12 18.398438 12 18.179688 11.820312 18 11.601562 18L3.199219 18C2.980469 18 2.800781 18.179688 2.800781 18.398438 2.800781 18.621094 2.980469 18.800781 3.199219 18.800781zM16.800781 18.800781C17.019531 18.800781 17.199219 18.621094 17.199219 18.398438 17.199219 18.179688 17.019531 18 16.800781 18L13.199219 18C12.980469 18 12.800781 18.179688 12.800781 18.398438 12.800781 18.621094 12.980469 18.800781 13.199219 18.800781zM20.800781 18L18.398438 18C18.179688 18 18 18.179688 18 18.398438 18 18.621094 18.179688 18.800781 18.398438 18.800781L20.800781 18.800781C21.019531 18.800781 21.199219 18.621094 21.199219 18.398438 21.199219 18.179688 21.019531 18 20.800781 18zM20.800781 20L12.398438 20C12.179688 20 12 20.179688 12 20.398438 12 20.621094 12.179688 20.800781 12.398438 20.800781L20.800781 20.800781C21.019531 20.800781 21.199219 20.621094 21.199219 20.398438 21.199219 20.179688 21.019531 20 20.800781 20zM10.800781 20L7.199219 20C6.980469 20 6.800781 20.179688 6.800781 20.398438 6.800781 20.621094 6.980469 20.800781 7.199219 20.800781L10.800781 20.800781C11.019531 20.800781 11.199219 20.621094 11.199219 20.398438 11.199219 20.179688 11.019531 20 10.800781 20zM5.601562 20L3.199219 20C2.980469 20 2.800781 20.179688 2.800781 20.398438 2.800781 20.621094 2.980469 20.800781 3.199219 20.800781L5.601562 20.800781C5.820312 20.800781 6 20.621094 6 20.398438 6 20.179688 5.820312 20 5.601562 20zM5.601562 20"/>
</svg>
