<svg xmlns="http://www.w3.org/2000/svg" width="32" height="32" viewBox="0 0 24 24">
    <path d="M2.8 1.2c-.882 0-1.6.718-1.6 1.6a1.6 1.6 0 1 0 1.6-1.6zm0 2.402A.802.802 0 0 1 2.8 2a.802.802 0 0 1 0 1.602zm0 0M6.398 1.2A1.6 1.6 0 1 0 8 2.801c0-.884-.719-1.603-1.602-1.603zm0 2.402a.799.799 0 0 1-.796-.801.799.799 0 1 1 1.597 0c0 .441-.36.8-.8.8zm0 0M10 1.2c-.883 0-1.602.718-1.602 1.6A1.6 1.6 0 0 0 10 4.399a1.6 1.6 0 0 0 1.602-1.597c0-.883-.72-1.602-1.602-1.602zm0 2.402A.802.802 0 0 1 10 2a.802.802 0 0 1 0 1.602zm0 0"/>
    <path d="M0 0v24h24V0zm.8.8h22.4v4H.8zm22.4 22.4H.8V5.601h22.4zm0 0"/>
    <path d="M17.602 11.2c1.101 0 2-.895 2-2 0-1.102-.899-2-2-2a1.999 1.999 0 1 0 0 4zm0-3.2a1.2 1.2 0 1 1 0 2.398A1.2 1.2 0 0 1 16.398 9.2c0-.66.54-1.199 1.204-1.199zm0 0"/>
    <path d="M8.398 14.398c0-1.101-.894-2-2-2-1.101 0-2 .899-2 2 0 .97.692 1.774 1.602 1.961v1.282a2.007 2.007 0 0 0-1.602 1.96c0 1.102.899 2 2 2 .97 0 1.774-.69 1.961-1.601h1.68A2.01 2.01 0 0 0 12 21.602 2.01 2.01 0 0 0 13.96 20h1.68c.188.91.993 1.602 1.962 1.602 1.101 0 2-.899 2-2 0-.97-.692-1.774-1.602-1.961v-1.282a2.007 2.007 0 0 0 1.602-1.96c0-1.102-.899-2-2-2-.97 0-1.774.69-1.961 1.601h-1.68a2.008 2.008 0 0 0-1.563-1.559v-1.28A2.006 2.006 0 0 0 14 9.198c0-1.101-.898-2-2-2-.965 0-1.773.688-1.96 1.602H8.36a2.003 2.003 0 0 0-1.962-1.602c-1.101 0-2 .899-2 2a2.001 2.001 0 0 0 3.961.403h1.68c.16.78.777 1.398 1.563 1.558v1.281A1.999 1.999 0 0 0 12 16.398c.965 0 1.773-.687 1.96-1.597h1.68c.16.781.778 1.398 1.56 1.558v1.282a2.008 2.008 0 0 0-1.56 1.558h-1.68A2.006 2.006 0 0 0 12 17.602c-.965 0-1.773.687-1.96 1.597H8.36a2.008 2.008 0 0 0-1.56-1.558v-1.282a2.003 2.003 0 0 0 1.598-1.96zm-3.199 0a1.202 1.202 0 0 1 2.403 0 1.203 1.203 0 0 1-2.402 0zm1.2-4a1.2 1.2 0 0 1 0-2.398c.663 0 1.203.54 1.203 1.2a1.2 1.2 0 0 1-1.204 1.198zM10.8 9.2C10.8 8.54 11.34 8 12 8s1.2.54 1.2 1.2a1.2 1.2 0 0 1-2.4 0zM12 15.602a1.202 1.202 0 0 1 0-2.402 1.202 1.202 0 0 1 0 2.402zm4.398-1.204a1.202 1.202 0 1 1 1.203 1.203c-.663 0-1.203-.538-1.203-1.203zm1.204 4a1.202 1.202 0 1 1-1.203 1.203c0-.663.539-1.203 1.203-1.203zm-5.602 0a1.202 1.202 0 0 1 0 2.402 1.202 1.202 0 0 1 0-2.402zm-4.398 1.204a1.202 1.202 0 1 1-1.203-1.203c.664 0 1.203.539 1.203 1.203zm0 0"/>
</svg>
