<svg xmlns="http://www.w3.org/2000/svg" width="32" height="32" viewBox="0 0 24 24">
    <path d="M14.398 19.2a.401.401 0 1 0 0-.802H9.2a.401.401 0 0 0 0 .801zm0 0M16.398 20H7.2a.4.4 0 0 0 0 .8h9.2a.401.401 0 0 0 0-.8zm0 0M2.8 1.2c-.882 0-1.6.718-1.6 1.6a1.6 1.6 0 1 0 1.6-1.6zm0 2.402A.802.802 0 0 1 2.8 2a.802.802 0 0 1 0 1.602zm0 0M6.398 1.2A1.6 1.6 0 1 0 8 2.801c0-.884-.719-1.603-1.602-1.603zm0 2.402a.799.799 0 0 1-.796-.801.799.799 0 1 1 1.597 0c0 .441-.36.8-.8.8zm0 0M10 1.2c-.883 0-1.602.718-1.602 1.6A1.6 1.6 0 0 0 10 4.399a1.6 1.6 0 0 0 1.602-1.597c0-.883-.72-1.602-1.602-1.602zm0 2.402A.802.802 0 0 1 10 2a.802.802 0 0 1 0 1.602zm0 0"/>
    <path d="M0 0v24h24V0zm.8.8h22.4v4H.8zm22.4 22.4H.8V5.601h22.4zm0 0"/>
    <path d="M4.832 13.836c.211 1.46 1.527 2.562 3.063 2.562h8.207c1.648 0 3.039-1.293 3.097-2.89a3.022 3.022 0 0 0-1.156-2.473c-.023-.02-.043-.066-.043-.117v-.398c0-1.895-1.422-3.52-3.234-3.7a3.574 3.574 0 0 0-3.153 1.313.16.16 0 0 1-.21.023 3.198 3.198 0 0 0-5 2.594 3.007 3.007 0 0 0-1.571 3.086zm2.133-2.469l.262-.14-.02-.286c-.004-.046-.008-.093-.008-.14a2.406 2.406 0 0 1 2.403-2.403c.484 0 .949.145 1.347.418a.96.96 0 0 0 1.281-.18 2.799 2.799 0 0 1 2.454-1.023c1.41.14 2.515 1.418 2.515 2.907v.398c0 .3.13.574.356.75.562.441.87 1.102.843 1.812-.043 1.168-1.07 2.122-2.296 2.122H7.895c-1.141 0-2.118-.809-2.27-1.88a2.206 2.206 0 0 1 1.34-2.355zm0 0"/>
</svg>
