<svg xmlns="http://www.w3.org/2000/svg" width="32" height="32" viewBox="0 0 24 24">
    <path d="M22 21.8V7h-4v14.8zm-3.2-14h2.4V9a.4.4 0 0 0 0 .8v1.598a.401.401 0 0 0 0 .801v1.602a.4.4 0 0 0 0 .8V16.2a.401.401 0 0 0 0 .801v1.602a.398.398 0 1 0 0 .796V21h-2.4v-1.602a.398.398 0 1 0 0-.796V17a.4.4 0 0 0 0-.8v-1.598a.401.401 0 0 0 0-.801v-1.602a.4.4 0 0 0 0-.8V9.8a.401.401 0 0 0 0-.801zm0 0M16.8 7H2v4h14.8zm-.8 3.2H2.8V7.8H16zm0 0M2.8 1.398c-.882 0-1.6.72-1.6 1.602 0 .883.718 1.602 1.6 1.602A1.6 1.6 0 0 0 4.399 3a1.6 1.6 0 0 0-1.597-1.602zm0 2.403a.802.802 0 0 1 0-1.602.802.802 0 0 1 0 1.602zm0 0M6.398 1.398a1.603 1.603 0 0 0 0 3.203C7.281 4.602 8 3.884 8 3s-.719-1.602-1.602-1.602zm0 2.403A.799.799 0 0 1 5.602 3a.799.799 0 1 1 1.597 0c0 .441-.36.8-.8.8zm0 0M10 1.398c-.883 0-1.602.72-1.602 1.602 0 .883.72 1.602 1.602 1.602.883 0 1.602-.72 1.602-1.602 0-.883-.72-1.602-1.602-1.602zm0 2.403a.802.802 0 0 1 0-1.602.802.802 0 0 1 0 1.602zm0 0"/>
    <path d="M0 .2v23.6h24V.2zm.8.8h22.4v4H.8zm22.4 22H.8V5.8h22.4zm0 0"/>
    <path d="M16.8 12.2H2v4h14.8zm-.8 3.198H2.8V13H16zm0 0M16.8 21.8v-4H2v4zm-14-3.198H16V21H2.8zm0 0M20.398 8.2a.398.398 0 1 1-.796 0 .398.398 0 1 1 .796 0zm0 0M20.398 10.602a.398.398 0 1 1-.796 0 .398.398 0 1 1 .796 0zm0 0M20.398 13a.395.395 0 0 1-.398.398.395.395 0 0 1-.398-.398c0-.223.175-.398.398-.398.223 0 .398.175.398.398zm0 0M20.398 15.398a.398.398 0 1 1-.796 0 .398.398 0 1 1 .796 0zm0 0M20.398 17.8a.398.398 0 1 1-.796 0 .398.398 0 1 1 .796 0zm0 0M20.398 20.2a.398.398 0 1 1-.796 0 .398.398 0 1 1 .796 0zm0 0"/>
</svg>
