<svg xmlns="http://www.w3.org/2000/svg" width="32" height="32" viewBox="0 0 24 24">
    <path d="M 0 0.199219 L 0 23.800781 L 24 23.800781 L 24 0.199219 Z M 23.199219 23 L 0.800781 23 L 0.800781 1 L 23.199219 1 Z M 23.199219 23"/>
    <path d="M10.398438 5.800781L19.199219 5.800781C19.421875 5.800781 19.601562 5.621094 19.601562 5.398438 19.601562 5.179688 19.421875 5 19.199219 5L10.398438 5C10.179688 5 10 5.179688 10 5.398438 10 5.621094 10.179688 5.800781 10.398438 5.800781zM10.398438 12.199219L19.199219 12.199219C19.421875 12.199219 19.601562 12.019531 19.601562 11.800781 19.601562 11.578125 19.421875 11.398438 19.199219 11.398438L10.398438 11.398438C10.179688 11.398438 10 11.578125 10 11.800781 10 12.019531 10.179688 12.199219 10.398438 12.199219zM10.398438 18.601562L19.199219 18.601562C19.421875 18.601562 19.601562 18.421875 19.601562 18.199219 19.601562 17.980469 19.421875 17.800781 19.199219 17.800781L10.398438 17.800781C10.179688 17.800781 10 17.980469 10 18.199219 10 18.421875 10.179688 18.601562 10.398438 18.601562zM4.800781 5.398438C4.902344 5.398438 5.003906 5.359375 5.082031 5.28125L6 4.367188 6 7.398438C6 7.621094 6.179688 7.800781 6.398438 7.800781 6.621094 7.800781 6.800781 7.621094 6.800781 7.398438L6.800781 3.398438C6.800781 3.347656 6.789062 3.296875 6.769531 3.246094 6.730469 3.148438 6.652344 3.070312 6.554688 3.03125 6.457031 2.992188 6.34375 2.992188 6.246094 3.03125 6.199219 3.050781 6.152344 3.082031 6.117188 3.117188L4.515625 4.71875C4.359375 4.875 4.359375 5.125 4.515625 5.28125 4.59375 5.359375 4.699219 5.398438 4.800781 5.398438zM4.601562 11C4.601562 11.222656 4.777344 11.398438 5 11.398438 5.222656 11.398438 5.398438 11.222656 5.398438 11 5.398438 10.558594 5.757812 10.199219 6.214844 10.199219 6.542969 10.207031 6.691406 10.453125 6.738281 10.558594 6.824219 10.746094 6.84375 11.035156 6.640625 11.269531L4.824219 13.390625C4.699219 13.535156 4.671875 13.742188 4.75 13.914062 4.832031 14.089844 5.007812 14.199219 5.195312 14.199219L7.199219 14.199219C7.421875 14.199219 7.601562 14.023438 7.601562 13.800781 7.601562 13.578125 7.421875 13.402344 7.199219 13.402344L5.871094 13.402344 7.25 11.789062C7.621094 11.355469 7.707031 10.757812 7.46875 10.230469 7.242188 9.726562 6.765625 9.410156 6.199219 9.402344 5.316406 9.398438 4.601562 10.117188 4.601562 11zM6 15.800781L5.199219 15.800781C4.980469 15.800781 4.800781 15.980469 4.800781 16.199219 4.800781 16.421875 4.980469 16.601562 5.199219 16.601562L6 16.601562C6.332031 16.601562 6.601562 16.871094 6.601562 17.199219 6.601562 17.53125 6.332031 17.800781 6 17.800781L5.199219 17.800781C4.980469 17.800781 4.800781 17.980469 4.800781 18.199219 4.800781 18.421875 4.980469 18.601562 5.199219 18.601562L6 18.601562C6.332031 18.601562 6.601562 18.871094 6.601562 19.199219 6.601562 19.53125 6.332031 19.800781 6 19.800781L5.199219 19.800781C4.980469 19.800781 4.800781 19.980469 4.800781 20.199219 4.800781 20.421875 4.980469 20.601562 5.199219 20.601562L6 20.601562C6.773438 20.601562 7.398438 19.972656 7.398438 19.199219 7.398438 18.808594 7.238281 18.453125 6.980469 18.199219 7.238281 17.945312 7.398438 17.589844 7.398438 17.199219 7.398438 16.429688 6.773438 15.800781 6 15.800781zM6 15.800781"/>
</svg>
