<svg xmlns="http://www.w3.org/2000/svg" width="32" height="32" viewBox="0 0 24 24">
    <path d="M0 0v24h24V0zm23.188 23.188H.813V.813h22.375zm0 0"/>
    <path d="M7.934 15.863a2.647 2.647 0 0 0 2.644-2.644 2.646 2.646 0 0 0-4.02-2.254 4.884 4.884 0 0 1 4.426-2.828.408.408 0 0 0 0-.817 5.701 5.701 0 0 0-5.695 5.696c0 .015.008.027.008.043-.004.054-.008.105-.008.16a2.644 2.644 0 0 0 2.645 2.644zm0-4.472a1.83 1.83 0 1 1-.005 3.66 1.83 1.83 0 0 1 .005-3.66zm0 0M14.848 15.863a2.647 2.647 0 0 0 2.644-2.644 2.646 2.646 0 0 0-2.644-2.64c-.504 0-.973.14-1.371.386a4.882 4.882 0 0 1 4.421-2.828.406.406 0 0 0 .407-.407c0-.226-.18-.41-.407-.41a5.701 5.701 0 0 0-5.695 5.696c0 .015.008.027.008.043-.004.054-.008.105-.008.16a2.647 2.647 0 0 0 2.645 2.644zm0-4.472c1.007 0 1.832.82 1.832 1.828a1.835 1.835 0 0 1-1.832 1.832 1.835 1.835 0 0 1-1.832-1.832c0-1.008.824-1.828 1.832-1.828zm0 0"/>
</svg>
