<svg xmlns="http://www.w3.org/2000/svg" width="32" height="32" viewBox="0 0 24 24">
    <path d="M 17.8125 14.585938 C 17.636719 14.515625 17.449219 14.480469 17.261719 14.480469 L 15.597656 14.480469 C 15.566406 14.1875 15.542969 13.90625 15.546875 13.632812 C 15.550781 13.539062 15.554688 13.445312 15.5625 13.351562 C 15.707031 11.894531 16.925781 10.691406 18.460938 10.484375 L 21.554688 10.074219 C 21.820312 10.039062 22.054688 9.875 22.175781 9.636719 C 22.300781 9.398438 22.300781 9.113281 22.175781 8.871094 C 19.414062 3.542969 12.035156 1.058594 6.390625 3.558594 C 1.621094 5.667969 -0.59375 10.847656 0.742188 16.289062 C 0.0859375 16.71875 -0.1875 17.574219 0.136719 18.316406 L 1.144531 20.617188 C 1.257812 20.878906 1.484375 21.066406 1.765625 21.128906 C 1.832031 21.144531 1.898438 21.152344 1.964844 21.152344 C 2.175781 21.152344 2.382812 21.074219 2.546875 20.929688 L 4.320312 19.382812 L 3.652344 18.191406 L 4.261719 17.921875 C 4.855469 17.65625 5.542969 17.839844 5.976562 18.371094 C 7.082031 19.722656 8.71875 20.457031 10.394531 20.457031 C 11.167969 20.457031 11.949219 20.296875 12.691406 19.96875 C 13.078125 19.800781 13.410156 19.621094 13.707031 19.4375 C 15.125 20.589844 16.78125 21.417969 17.890625 21.417969 L 22.515625 21.417969 C 23.347656 21.417969 24 20.789062 24 19.984375 L 24 17.261719 Z M 23.179688 18.800781 L 17.890625 17.804688 L 17.890625 15.511719 L 23.179688 17.800781 Z M 13.773438 18.398438 C 13.304688 17.980469 12.875 17.53125 12.539062 17.070312 C 12.710938 16.902344 12.863281 16.710938 12.996094 16.5 L 14.675781 17.285156 C 14.507812 17.671875 14.222656 18.042969 13.773438 18.398438 Z M 12.351562 15.296875 L 12.601562 15.296875 C 12.59375 15.332031 12.585938 15.367188 12.578125 15.402344 Z M 12.246094 16.152344 C 12.199219 16.222656 12.148438 16.289062 12.09375 16.351562 C 12.035156 16.238281 11.984375 16.125 11.941406 16.011719 Z M 11.835938 14.480469 C 11.433594 14.480469 11.078125 14.722656 10.929688 15.09375 C 10.800781 15.429688 10.859375 15.800781 11.085938 16.070312 C 11.167969 16.335938 11.292969 16.601562 11.441406 16.867188 C 11.132812 17.027344 10.78125 17.121094 10.40625 17.121094 C 9.175781 17.121094 8.171875 16.121094 8.171875 14.886719 C 8.171875 13.65625 9.175781 12.65625 10.40625 12.65625 C 11.5 12.65625 12.410156 13.441406 12.601562 14.480469 Z M 13.332031 15.753906 C 13.378906 15.609375 13.410156 15.453125 13.429688 15.296875 L 14.859375 15.296875 C 14.902344 15.707031 14.925781 16.097656 14.882812 16.480469 Z M 15.683594 15.296875 L 17.070312 15.296875 L 17.070312 17.5 L 15.652344 16.839844 C 15.746094 16.3125 15.730469 15.792969 15.683594 15.296875 Z M 2.898438 18.523438 L 3.28125 19.203125 L 2.011719 20.3125 C 1.988281 20.332031 1.960938 20.335938 1.945312 20.332031 C 1.929688 20.328125 1.90625 20.316406 1.894531 20.289062 L 0.886719 17.988281 C 0.765625 17.707031 0.8125 17.390625 0.988281 17.160156 C 1.03125 17.300781 1.078125 17.445312 1.128906 17.585938 C 1.175781 17.730469 1.226562 17.871094 1.28125 18.007812 C 1.386719 18.28125 1.601562 18.507812 1.871094 18.617188 C 2.140625 18.730469 2.4375 18.726562 2.703125 18.609375 Z M 12.359375 19.222656 C 10.355469 20.105469 7.992188 19.542969 6.609375 17.851562 C 6.148438 17.285156 5.492188 16.980469 4.828125 16.980469 C 4.523438 16.980469 4.222656 17.042969 3.929688 17.171875 L 3.25 17.472656 L 2.792969 17.675781 L 2.371094 17.859375 C 2.296875 17.894531 2.230469 17.878906 2.1875 17.863281 C 2.121094 17.835938 2.070312 17.78125 2.042969 17.714844 C 1.996094 17.59375 1.957031 17.472656 1.914062 17.351562 C 1.816406 17.0625 1.71875 16.746094 1.625 16.386719 L 1.503906 15.921875 L 1.492188 15.929688 C 0.179688 10.390625 2.949219 5.976562 6.722656 4.304688 C 11.992188 1.976562 18.875 4.28125 21.449219 9.261719 L 18.355469 9.675781 C 16.441406 9.929688 14.925781 11.441406 14.75 13.273438 C 14.738281 13.386719 14.730469 13.503906 14.730469 13.621094 C 14.722656 13.90625 14.746094 14.195312 14.777344 14.480469 L 13.429688 14.480469 C 13.226562 12.988281 11.949219 11.835938 10.40625 11.835938 C 8.722656 11.835938 7.355469 13.207031 7.355469 14.890625 C 7.355469 16.570312 8.722656 17.941406 10.40625 17.941406 C 10.941406 17.941406 11.445312 17.800781 11.882812 17.558594 C 12.214844 18.011719 12.613281 18.457031 13.054688 18.871094 C 12.84375 18.988281 12.617188 19.105469 12.359375 19.222656 Z M 15.410156 17.628906 L 17.070312 18.40625 L 17.070312 20.4375 C 16.289062 20.179688 15.3125 19.628906 14.40625 18.925781 C 14.890625 18.511719 15.210938 18.074219 15.410156 17.628906 Z M 22.515625 20.601562 L 17.890625 20.601562 L 17.890625 18.625 L 23.179688 19.632812 L 23.179688 19.980469 C 23.179688 20.335938 22.894531 20.601562 22.515625 20.601562 Z M 22.515625 20.601562"/>
    <path d="M 5.183594 13.222656 L 4.683594 13.222656 C 4.007812 13.222656 3.457031 13.773438 3.457031 14.449219 L 3.457031 14.949219 C 3.457031 15.628906 4.007812 16.179688 4.683594 16.179688 L 5.183594 16.179688 C 5.859375 16.179688 6.410156 15.628906 6.410156 14.949219 L 6.410156 14.449219 C 6.410156 13.773438 5.859375 13.222656 5.183594 13.222656 Z M 5.59375 14.949219 C 5.59375 15.175781 5.410156 15.359375 5.183594 15.359375 L 4.683594 15.359375 C 4.457031 15.359375 4.273438 15.175781 4.273438 14.949219 L 4.273438 14.449219 C 4.273438 14.226562 4.457031 14.042969 4.683594 14.042969 L 5.183594 14.042969 C 5.410156 14.042969 5.59375 14.226562 5.59375 14.449219 C 5.59375 14.449219 5.59375 14.949219 5.59375 14.949219 Z M 5.59375 14.949219"/>
</svg>
