<svg xmlns="http://www.w3.org/2000/svg" width="32" height="32" viewBox="0 0 24 24">
    <path d="M6.945 5.492a.402.402 0 1 1-.806.001.402.402 0 0 1 .806 0zm0 0M4.531 7.504a.402.402 0 1 1-.803.001.402.402 0 0 1 .803-.001zm0 0M5.738 6.297a.402.402 0 1 1-.803.001.402.402 0 0 1 .803-.001zm0 0M5.738 8.71a.402.402 0 1 1-.803.002.402.402 0 0 1 .803-.001zm0 0M6.945 7.504a.402.402 0 1 1-.806.001.402.402 0 0 1 .806-.001zm0 0M6.14 10.723a.402.402 0 1 1-.806.001.402.402 0 0 1 .807-.001zm0 0M6.945 9.516a.402.402 0 1 1-.806.001.402.402 0 0 1 .806-.001zm0 0"/>
    <path d="M22.902 3.926a2.324 2.324 0 0 0-1.566-1.63 2.265 2.265 0 0 0-1.715.15c-.195-.446-.578-1.051-1.254-1.348-.683-.301-1.488-.223-2.402.226-.254-.433-.766-1.078-1.582-1.27-.82-.19-1.719.122-2.668.93-.469-.214-1.457-.53-2.418.043-.664.395-1.164 1.137-1.512 2.211-2.715.512-4.969 2.325-5.95 4.793-.007.004-.015.008-.019.012C1.22 8.383.504 9.332.504 11.93c0 6.086 1.758 7.738 7.293 11.906a.76.76 0 0 0 .16.113l.043.02.035.011a.291.291 0 0 0 .102.016c.004 0 .008.004.011.004H17a.404.404 0 0 0 .293-.125c.047-.05 2.418-2.625 4.215-6.637a.396.396 0 0 0 .074-.105.479.479 0 0 0 .027-.125c1.54-3.531 2.606-8.125 1.293-13.082zm-15.347.18c-.09.41-.157.859-.211 1.343-.004.035-.004.07-.008.106-.02.199-.04.398-.055.61-.004.1-.008.21-.015.315l-.024.45a24.1 24.1 0 0 0-.008.539c0 .093-.004.183-.004.277-.003.227 0 .465.004.703.004.059.004.114.004.172.008.274.016.555.032.84 0 .031 0 .059.003.086.016.32.036.644.059.98a4.48 4.48 0 0 0-1.59 2.399 2.864 2.864 0 0 0-.043.195c-.008.04-.02.074-.023.113-.012.047-.016.094-.02.137-.011.066-.023.129-.027.191-.004.032-.004.06-.008.086a5.703 5.703 0 0 0-.016.258c-.355-.594-.695-1.504-.675-2.773a3.222 3.222 0 0 0-.02-.434c-.008-.086-.023-.172-.039-.258-.008-.05-.016-.101-.027-.152-.196-.926-.727-1.758-1.43-2.176a1.826 1.826 0 0 0-.633-.238c.91-1.871 2.664-3.258 4.774-3.77zm13.402 12.39a.396.396 0 0 0-.297.23.406.406 0 0 0 .035.368c-1.363 2.976-3.03 5.105-3.695 5.89v-1.398a.402.402 0 1 0-.805 0v1.61h-.804v-1.61a.402.402 0 1 0-.805 0v1.61h-.805v-1.61a.402.402 0 1 0-.804 0v1.61h-.805v-1.61a.402.402 0 1 0-.805 0v1.61h-.805v-1.61a.402.402 0 1 0-.804 0v1.61h-.805v-1.61a.402.402 0 1 0-.805 0v1.5l-.023-.012c-5.277-3.98-6.813-5.476-6.813-11.144 0-2.414.63-3.035.903-3.188a.631.631 0 0 1 .324-.086c.242.028.465.168.594.266.445.34.883 1.015.976 1.832.012.117.02.238.02.363-.055 3.02 1.703 4.305 1.777 4.36a.41.41 0 0 0 .11.054c.007.004.015 0 .023.004a.424.424 0 0 0 .098.016h.004c.015 0 .03-.004.046-.008.024-.004.047-.004.067-.008.039-.012.074-.031.11-.05a.404.404 0 0 0 .167-.426c-.625-2.715 1.34-3.942 1.422-3.989a.403.403 0 0 0 .195-.379c-.027-.355-.046-.699-.066-1.039 0-.035-.004-.074-.004-.109a37.937 37.937 0 0 1-.035-.895c0-.062-.004-.125-.004-.187-.004-.262-.004-.512-.004-.758v-.25c.004-.215.012-.422.02-.629a15.793 15.793 0 0 1 .047-.805c.015-.164.027-.324.046-.476.008-.086.02-.176.028-.262.023-.172.047-.336.074-.492.008-.062.02-.125.031-.187.028-.157.059-.309.09-.45l.07-.28c.352-1.34.864-1.911 1.262-2.15.715-.433 1.488-.105 1.754.032.355.73.383 2.008.25 3.414l-.488-.39a.403.403 0 0 0-.504.628l.765.614-.796.796a.399.399 0 0 0 0 .57.399.399 0 0 0 .566 0l.184-.179a39.183 39.183 0 0 1-.856 3.809.404.404 0 0 0 .387.511.4.4 0 0 0 .387-.293c.046-.16.632-2.246.98-4.535l.395.317a.404.404 0 0 0 .566-.067.402.402 0 0 0-.063-.562l-.543-.438.575-.574a.406.406 0 0 0 0-.57.4.4 0 0 0-.567 0l-.16.16c.102-1.313.059-2.547-.273-3.387.734-.617 1.386-.867 1.933-.742.692.16 1.082.875 1.192 1.105-.051.727-.102 1.403-.153 2.032a.4.4 0 0 0-.527.597l.238.239-.566.34a.404.404 0 0 0-.137.55.396.396 0 0 0 .55.137l.282-.168c-.418 4.137-.867 5.727-.87 5.746a.397.397 0 0 0 .273.496c.035.012.074.02.113.02a.4.4 0 0 0 .383-.29c.023-.081.48-1.683.906-5.898l.437.438a.399.399 0 0 0 .566 0 .406.406 0 0 0 0-.57l-.64-.641.563-.34a.401.401 0 1 0-.414-.688l-.368.22c.055-.634.11-1.313.157-2.044.75-.398 1.375-.496 1.855-.285.66.285.918 1.078.973 1.281a63.349 63.349 0 0 1-.285 3.18l-.2-.25a.407.407 0 0 0-.566-.063.407.407 0 0 0-.062.567l.636.793-.949.633a.403.403 0 0 0 .45.668l.41-.274c-.473 2.985-.989 4.176-1 4.2a.397.397 0 0 0 .199.53c.054.028.109.04.164.04a.4.4 0 0 0 .367-.239c.035-.07.601-1.359 1.101-4.628l.23.289a.392.392 0 0 0 .313.152.406.406 0 0 0 .316-.656l-.425-.532.734-.492a.395.395 0 0 0 .114-.554.4.4 0 0 0-.559-.114l-.512.34c.121-.996.23-2.133.32-3.422.372-.277.837-.36 1.294-.219.504.16.886.56 1.023 1.067 1.238 4.66.274 8.996-1.164 12.367zm0 0"/>
    <path d="M17.395 15.598c-.141-.012-.286-.02-.43-.028a.396.396 0 0 0-.426.38c-.012.222.16.41.383.425.137.004.273.016.406.023a.108.108 0 0 0 .035.004.4.4 0 0 0 .399-.37.402.402 0 0 0-.367-.434zm0 0M15.23 15.582c-.144.008-.289.02-.433.035a.403.403 0 0 0-.36.442c.02.207.196.359.399.359h.043c.133-.016.27-.023.406-.035a.4.4 0 0 0 .375-.426.408.408 0 0 0-.43-.375zm0 0M19.54 15.953c-.142-.035-.282-.07-.427-.098a.395.395 0 0 0-.476.305.4.4 0 0 0 .304.48c.133.028.266.06.395.094a.405.405 0 0 0 .492-.29.407.407 0 0 0-.289-.49zm0 0M13.086 15.887a6.661 6.661 0 0 0-.422.101.398.398 0 0 0-.289.489c.047.183.207.3.387.3.035 0 .07-.004.101-.011.133-.036.262-.067.399-.094a.405.405 0 0 0 .304-.48.4.4 0 0 0-.48-.305zm0 0M11.012 16.543c-.137.059-.27.117-.403.18a.409.409 0 0 0-.191.539.405.405 0 0 0 .539.187c.121-.054.242-.113.367-.164a.402.402 0 1 0-.312-.742zm0 0M8.117 19.133a.4.4 0 0 0-.55.133c-.083.132-.157.27-.223.406a.404.404 0 0 0 .187.539c.059.023.117.039.176.039a.407.407 0 0 0 .363-.23c.055-.114.114-.223.18-.332a.401.401 0 0 0-.133-.555zm0 0M9.098 17.629c-.121.09-.239.183-.348.277a.402.402 0 0 0 .52.614c.101-.086.203-.168.312-.247a.403.403 0 1 0-.484-.645zm0 0M7.336 21.07a.402.402 0 0 0-.39.414c.003.157.019.313.042.47a.4.4 0 0 0 .395.343c.02 0 .043-.004.062-.004a.403.403 0 0 0 .336-.461 3.853 3.853 0 0 1-.031-.371c-.008-.219-.195-.383-.414-.39zm0 0"/>
</svg>
