<svg xmlns="http://www.w3.org/2000/svg" width="32" height="32" viewBox="0 0 24 24">
    <path d="M22.898 17.016c.047-.102.094-.2.137-.301.043-.102.082-.203.121-.3l.082-.212c.043-.11.078-.223.117-.332.024-.066.043-.129.067-.191.035-.114.07-.23.101-.344.02-.066.04-.129.055-.191.031-.114.063-.23.09-.348l.047-.2.07-.34c.016-.077.027-.152.04-.226.019-.11.038-.215.054-.324.012-.09.02-.176.031-.266l.035-.293.024-.332c.008-.078.011-.156.015-.238.012-.191.016-.383.016-.578 0-.195-.004-.387-.016-.578-.004-.082-.011-.16-.015-.238l-.024-.332-.035-.293c-.012-.09-.02-.176-.035-.266-.012-.11-.031-.215-.05-.324-.012-.074-.024-.149-.04-.227l-.07-.34-.047-.199a9.032 9.032 0 0 0-.09-.348c-.015-.062-.035-.125-.055-.19a5.772 5.772 0 0 0-.105-.345 5.403 5.403 0 0 0-.063-.191l-.117-.332-.082-.211c-.039-.098-.078-.2-.12-.3-.044-.102-.09-.2-.138-.302-.03-.066-.058-.132-.093-.199A11.882 11.882 0 0 0 21 4.066l-.309-.351-.011.012a11.968 11.968 0 0 0-17.36 0l-.011-.012L3 4.066a12.028 12.028 0 0 0-1.809 2.72c-.03.066-.058.132-.09.198-.046.102-.093.2-.136.301a9.67 9.67 0 0 0-.121.3l-.082.212c-.043.11-.078.223-.117.332-.024.066-.043.129-.067.191-.035.114-.07.23-.101.344-.02.066-.04.129-.055.191-.031.114-.063.23-.09.348l-.047.2-.07.34c-.016.077-.027.152-.04.226-.019.11-.038.215-.054.324-.012.09-.02.176-.031.266l-.035.293-.024.332A9.434 9.434 0 0 0 0 12c0 .195.004.387.016.578.004.082.011.16.015.238l.024.332.035.293c.012.09.02.176.035.266.012.11.031.215.05.324.013.074.024.149.04.227l.07.34.047.199c.027.117.059.234.09.348.016.062.035.125.055.19.03.114.066.231.105.345.02.062.04.125.063.191l.117.332.082.211c.039.102.078.2.12.3.044.102.095.2.138.302.03.066.058.132.093.199.47.976 1.075 1.89 1.805 2.719l.309.351.011-.012a11.968 11.968 0 0 0 17.36 0l.011.012.309-.351a12.028 12.028 0 0 0 1.809-2.72c.03-.066.058-.132.09-.198zm.239-4.145l-.012.137c-.027.285-.063.566-.11.847-.003.032-.011.067-.019.102a10.538 10.538 0 0 1-.473 1.785c-.093.27-.203.535-.316.793l-.059.13c-.113.245-.234.487-.367.73l-.082.14c-.129.223-.262.442-.406.656-.031.047-.063.094-.094.137a8.593 8.593 0 0 1-.422.57c-.03.04-.058.079-.09.118a11.24 11.24 0 0 1-1.406-2.25l.711-.235a.412.412 0 0 0 .262-.523.41.41 0 0 0-.524-.262l-.773.258a12.138 12.138 0 0 1-.434-1.387l.985-.14a.413.413 0 1 0-.117-.817l-1.032.145a10.283 10.283 0 0 1-.132-1.39h.808a.414.414 0 0 0 0-.828l-.808-.001c.015-.469.054-.934.132-1.395l1.032.149c.02.004.039.004.058.004a.415.415 0 0 0 .41-.356.417.417 0 0 0-.351-.468l-.985-.141c.118-.469.262-.93.434-1.383l.773.258a.413.413 0 0 0 .523-.262.412.412 0 0 0-.26-.523l-.712-.235a11.24 11.24 0 0 1 1.407-2.25c.03.04.058.079.09.114.144.187.288.379.421.57l.094.14a11.418 11.418 0 0 1 .855 1.528l.059.125c.113.262.223.523.316.793.008.02.016.039.02.059.2.562.348 1.14.453 1.73.008.035.016.066.02.102.047.28.082.562.109.847.004.043.004.09.008.133.023.293.039.582.039.875 0 .293-.016.582-.035.871zM3.747 7.992a.413.413 0 0 0 .523.262l.773-.258c.172.453.316.914.43 1.387l-.98.137a.417.417 0 0 0-.352.468.415.415 0 0 0 .41.356c.02 0 .039 0 .058-.004l1.032-.145c.078.457.117.922.132 1.39h-.808a.414.414 0 0 0 0 .828l.808.001c-.015.469-.054.934-.132 1.395l-1.032-.149a.419.419 0 0 0-.468.352.417.417 0 0 0 .351.468l.985.141c-.118.469-.262.93-.434 1.383l-.773-.258a.412.412 0 0 0-.524.262.412.412 0 0 0 .262.523l.71.239c-.378.793-.843 1.55-1.405 2.246-.032-.04-.06-.078-.09-.114-.145-.187-.29-.379-.422-.57l-.094-.14a11.418 11.418 0 0 1-.406-.657l-.082-.14a12.758 12.758 0 0 1-.367-.73l-.059-.126a12.407 12.407 0 0 1-.316-.793c-.008-.02-.016-.039-.02-.059-.2-.562-.348-1.14-.453-1.73-.008-.035-.012-.07-.02-.102a12.258 12.258 0 0 1-.109-.847 1.514 1.514 0 0 1-.008-.133C.844 12.582.828 12.293.828 12c0-.293.016-.582.035-.871l.012-.137c.027-.285.063-.566.11-.847.003-.032.011-.067.019-.102.101-.59.254-1.168.453-1.73a12.407 12.407 0 0 1 .336-.852c.02-.04.039-.082.059-.125.113-.246.234-.492.367-.73l.082-.141c.129-.223.261-.442.406-.656.031-.047.063-.094.094-.137.133-.195.273-.387.422-.57.03-.04.058-.079.09-.118a11.24 11.24 0 0 1 1.406 2.25l-.711.235a.412.412 0 0 0-.262.523zM12 23.172c-3.203 0-6.098-1.36-8.137-3.527.664-.801 1.215-1.68 1.649-2.614l.976.328c.047.012.09.02.133.02a.41.41 0 0 0 .39-.281.41.41 0 0 0-.261-.524l-.914-.308c.187-.496.344-1.008.469-1.528l1.086.153c.02.004.039.007.058.007a.414.414 0 0 0 .059-.824l-1.047-.148c.082-.5.133-1.004.148-1.512h.84A.417.417 0 0 0 7.863 12a.417.417 0 0 0-.414-.414h-.84a11.517 11.517 0 0 0-.148-1.512l1.047-.148a.414.414 0 0 0 .351-.469.416.416 0 0 0-.468-.348l-1.086.153a12.783 12.783 0 0 0-.47-1.528l.915-.308a.41.41 0 0 0 .262-.524.415.415 0 0 0-.524-.261l-.976.328a12.023 12.023 0 0 0-1.649-2.614 11.148 11.148 0 0 1 16.274 0c-.664.801-1.215 1.68-1.649 2.614l-.976-.328a.415.415 0 0 0-.524.261.41.41 0 0 0 .262.524l.914.304c-.187.5-.344 1.012-.469 1.532l-1.086-.157a.414.414 0 0 0-.117.82l1.047.15c-.082.5-.133 1.003-.148 1.51h-.84a.414.414 0 0 0 0 .83h.84c.015.507.066 1.01.148 1.507l-1.047.152a.414.414 0 0 0 .059.824c.02 0 .039-.003.058-.007l1.086-.153c.125.52.282 1.032.47 1.528l-.915.308a.41.41 0 0 0-.262.524.41.41 0 0 0 .39.28.546.546 0 0 0 .134-.019l.976-.328c.434.934.985 1.813 1.649 2.614A11.148 11.148 0 0 1 12 23.172zm0 0"/>
</svg>
