<svg xmlns="http://www.w3.org/2000/svg" width="32" height="32" viewBox="0 0 24 24">
    <path d="M.8 4H.399v16h23.204V4zm11.598 6.04A2.006 2.006 0 0 1 14 12c0 .965-.688 1.773-1.602 1.96zM1.2 10.112l2.403.598v2.578l-2.403.598zm0 4.598l3.2-.797v-3.828l-3.2-.797V4.816C4.191 5.063 6.4 8.07 6.4 12s-2.208 6.938-5.2 7.184zm10.403-.75A2.006 2.006 0 0 1 10 12c0-.965.688-1.773 1.602-1.96zm0-4.73A2.806 2.806 0 0 0 9.199 12a2.806 2.806 0 0 0 2.403 2.77v4.43H3.668c2.129-1.27 3.531-3.946 3.531-7.2S5.797 6.07 3.668 4.8h7.934zm.796 9.968v-4.43A2.806 2.806 0 0 0 14.801 12a2.806 2.806 0 0 0-2.403-2.77V4.8h7.934c-2.129 1.27-3.531 3.946-3.531 7.2s1.402 5.93 3.531 7.2zm10.403-5.312l-2.403-.598v-2.578l2.403-.598zm0-4.598l-3.2.797v3.828l3.2.797v4.473c-2.992-.247-5.2-3.254-5.2-7.184s2.208-6.938 5.2-7.184zm0 0M10.398 23.2H10a.398.398 0 0 0-.398.402c0 .218.175.398.398.398h.398a.401.401 0 1 0 0-.8zm0 0M12 23.2h-.398a.401.401 0 0 0 0 .8H12c.223 0 .398-.18.398-.398a.398.398 0 0 0-.398-.403zm0 0M8.8 23.2h-.402a.401.401 0 0 0 0 .8h.403a.4.4 0 0 0 0-.8zm0 0M13.602 23.2h-.403a.401.401 0 0 0 0 .8h.403a.4.4 0 0 0 0-.8zm0 0M15.2 23.2h-.4a.401.401 0 0 0 0 .8h.4a.401.401 0 1 0 0-.8zm0 0M7.2 23.2h-.4a.401.401 0 0 0 0 .8h.4a.401.401 0 1 0 0-.8zm0 0M2.398 23.2H2a.398.398 0 0 0-.398.402c0 .218.175.398.398.398h.398a.401.401 0 1 0 0-.8zm0 0M.8 23.2H.399a.401.401 0 0 0 0 .8h.403a.4.4 0 0 0 0-.8zm0 0M16.8 23.2h-.402a.401.401 0 0 0 0 .8h.403a.4.4 0 0 0 0-.8zm0 0M4 23.2h-.398a.401.401 0 0 0 0 .8H4c.223 0 .398-.18.398-.398A.398.398 0 0 0 4 23.199zm0 0M5.602 23.2h-.403a.401.401 0 0 0 0 .8h.403a.4.4 0 0 0 0-.8zm0 0M20 23.2h-.398a.401.401 0 0 0 0 .8H20c.223 0 .398-.18.398-.398a.398.398 0 0 0-.398-.403zm0 0M21.602 23.2h-.403a.401.401 0 0 0 0 .8h.403a.4.4 0 0 0 0-.8zm0 0M18.398 23.2H18a.398.398 0 0 0-.398.402c0 .218.175.398.398.398h.398a.401.401 0 1 0 0-.8zm0 0M23.2 23.2h-.4a.401.401 0 0 0 0 .8h.4a.401.401 0 1 0 0-.8zm0 0M7.2 22h-.4a.401.401 0 1 0 0 .8h.4a.401.401 0 0 0 0-.8zm0 0M10.398 22H10a.398.398 0 0 0-.398.398c0 .223.175.403.398.403h.398a.401.401 0 0 0 0-.8zm0 0M5.602 22h-.403a.4.4 0 0 0 0 .8h.403a.401.401 0 0 0 0-.8zm0 0M8.8 22h-.402a.4.4 0 0 0 0 .8h.403a.401.401 0 0 0 0-.8zm0 0M20 22h-.398a.401.401 0 1 0 0 .8H20c.223 0 .398-.179.398-.402A.398.398 0 0 0 20 22zm0 0M21.602 22h-.403a.4.4 0 0 0 0 .8h.403a.401.401 0 0 0 0-.8zm0 0M4 22h-.398a.401.401 0 1 0 0 .8H4c.223 0 .398-.179.398-.402A.398.398 0 0 0 4 22zm0 0M2.398 22H2a.398.398 0 0 0-.398.398c0 .223.175.403.398.403h.398a.401.401 0 0 0 0-.8zm0 0M15.2 22h-.4a.401.401 0 1 0 0 .8h.4a.401.401 0 0 0 0-.8zm0 0M13.602 22h-.403a.4.4 0 0 0 0 .8h.403a.401.401 0 0 0 0-.8zm0 0M16.8 22h-.402a.4.4 0 0 0 0 .8h.403a.401.401 0 0 0 0-.8zm0 0M12 22h-.398a.401.401 0 1 0 0 .8H12c.223 0 .398-.179.398-.402A.398.398 0 0 0 12 22zm0 0M18.398 22H18a.398.398 0 0 0-.398.398c0 .223.175.403.398.403h.398a.401.401 0 0 0 0-.8zm0 0M13.602 20.8h-.403a.4.4 0 0 0 0 .802h.403a.401.401 0 0 0 0-.801zm0 0M16.8 20.8h-.402a.4.4 0 0 0 0 .802h.403a.401.401 0 0 0 0-.801zm0 0M4 20.8h-.398a.401.401 0 1 0 0 .802H4c.223 0 .398-.18.398-.403A.398.398 0 0 0 4 20.801zm0 0M10.398 20.8H10a.398.398 0 0 0-.398.4c0 .222.175.402.398.402h.398a.401.401 0 0 0 0-.8zm0 0M15.2 20.8h-.4a.401.401 0 1 0 0 .802h.4a.401.401 0 0 0 0-.8zm0 0M8.8 20.8h-.402a.4.4 0 0 0 0 .802h.403a.401.401 0 0 0 0-.801zm0 0M5.602 20.8h-.403a.4.4 0 0 0 0 .802h.403a.401.401 0 0 0 0-.801zm0 0M18.398 20.8H18a.398.398 0 0 0-.398.4c0 .222.175.402.398.402h.398a.401.401 0 0 0 0-.8zm0 0M7.2 20.8h-.4a.401.401 0 1 0 0 .802h.4a.401.401 0 0 0 0-.8zm0 0M20 20.8h-.398a.401.401 0 1 0 0 .802H20c.223 0 .398-.18.398-.403a.398.398 0 0 0-.398-.398zm0 0M12 20.8h-.398a.401.401 0 1 0 0 .802H12c.223 0 .398-.18.398-.403a.398.398 0 0 0-.398-.398zm0 0M13.602.8H14c.223 0 .398-.179.398-.402A.398.398 0 0 0 14 0h-.398a.401.401 0 1 0 0 .8zm0 0M12 .8h.398a.401.401 0 0 0 0-.8H12a.398.398 0 0 0-.398.398c0 .223.175.403.398.403zm0 0M15.2.8h.402a.401.401 0 0 0 0-.8h-.403a.4.4 0 0 0 0 .8zm0 0M10.398.8h.403a.401.401 0 0 0 0-.8h-.403a.4.4 0 0 0 0 .8zm0 0M8.8.8h.4a.401.401 0 0 0 0-.8h-.4a.401.401 0 1 0 0 .8zm0 0M21.602.8H22c.223 0 .398-.179.398-.402A.398.398 0 0 0 22 0h-.398a.401.401 0 1 0 0 .8zm0 0M20 .8h.398a.401.401 0 0 0 0-.8H20a.398.398 0 0 0-.398.398c0 .223.175.403.398.403zm0 0M16.8.8h.4a.401.401 0 0 0 0-.8h-.4a.401.401 0 1 0 0 .8zm0 0M7.2.8h.402a.401.401 0 0 0 0-.8h-.403a.4.4 0 0 0 0 .8zm0 0M18.398.8h.403a.401.401 0 0 0 0-.8h-.403a.4.4 0 0 0 0 .8zm0 0M23.602 0h-.403a.4.4 0 0 0 0 .8h.403a.401.401 0 0 0 0-.8zm0 0M5.602.8H6c.223 0 .398-.179.398-.402A.398.398 0 0 0 6 0h-.398a.401.401 0 1 0 0 .8zm0 0M2.398.8h.403a.401.401 0 0 0 0-.8h-.403a.4.4 0 0 0 0 .8zm0 0M.8.8h.4a.401.401 0 0 0 0-.8H.8a.401.401 0 1 0 0 .8zm0 0M4 .8h.398a.401.401 0 0 0 0-.8H4a.398.398 0 0 0-.398.398c0 .223.175.403.398.403zm0 0M16.8 2h.4a.401.401 0 1 0 0-.8h-.4a.401.401 0 0 0 0 .8zm0 0M4 2h.398a.401.401 0 1 0 0-.8H4a.398.398 0 0 0-.398.402c0 .218.175.398.398.398zm0 0M7.2 2h.402a.4.4 0 0 0 0-.8h-.403a.401.401 0 0 0 0 .8zm0 0M2.398 2h.403a.4.4 0 0 0 0-.8h-.403a.401.401 0 0 0 0 .8zm0 0M21.602 2H22c.223 0 .398-.18.398-.398A.398.398 0 0 0 22 1.199h-.398a.401.401 0 0 0 0 .8zm0 0M18.398 2h.403a.4.4 0 0 0 0-.8h-.403a.401.401 0 0 0 0 .8zm0 0M13.602 2H14c.223 0 .398-.18.398-.398A.398.398 0 0 0 14 1.199h-.398a.401.401 0 0 0 0 .8zm0 0M20 2h.398a.401.401 0 1 0 0-.8H20a.398.398 0 0 0-.398.402c0 .218.175.398.398.398zm0 0M15.2 2h.402a.4.4 0 0 0 0-.8h-.403a.401.401 0 0 0 0 .8zm0 0M8.8 2h.4a.401.401 0 1 0 0-.8h-.4a.401.401 0 0 0 0 .8zm0 0M5.602 2H6c.223 0 .398-.18.398-.398A.398.398 0 0 0 6 1.199h-.398a.401.401 0 0 0 0 .8zm0 0M12 2h.398a.401.401 0 1 0 0-.8H12a.398.398 0 0 0-.398.402c0 .218.175.398.398.398zm0 0M10.398 2h.403a.4.4 0 0 0 0-.8h-.403a.401.401 0 0 0 0 .8zm0 0M10.398 3.2h.403a.4.4 0 0 0 0-.802h-.403a.401.401 0 0 0 0 .801zm0 0M20 3.2h.398a.401.401 0 1 0 0-.802H20a.398.398 0 0 0-.398.403c0 .219.175.398.398.398zm0 0M8.8 3.2h.4a.401.401 0 1 0 0-.802h-.4a.401.401 0 0 0 0 .8zm0 0M7.2 3.2h.402a.4.4 0 0 0 0-.802h-.403a.401.401 0 0 0 0 .801zm0 0M16.8 3.2h.4a.401.401 0 1 0 0-.802h-.4a.401.401 0 0 0 0 .8zm0 0M5.602 3.2H6c.223 0 .398-.18.398-.4A.398.398 0 0 0 6 2.399h-.398a.401.401 0 0 0 0 .8zm0 0M15.2 3.2h.402a.4.4 0 0 0 0-.802h-.403a.401.401 0 0 0 0 .801zm0 0M13.602 3.2H14c.223 0 .398-.18.398-.4A.398.398 0 0 0 14 2.399h-.398a.401.401 0 0 0 0 .8zm0 0M4 3.2h.398a.401.401 0 1 0 0-.802H4a.398.398 0 0 0-.398.403c0 .219.175.398.398.398zm0 0M18.398 3.2h.403a.4.4 0 0 0 0-.802h-.403a.401.401 0 0 0 0 .801zm0 0M12 3.2h.398a.401.401 0 1 0 0-.802H12a.398.398 0 0 0-.398.403c0 .219.175.398.398.398zm0 0"/>
</svg>
