<svg xmlns="http://www.w3.org/2000/svg" width="32" height="32" viewBox="0 0 24 24">
    <path d="M 17.589844 7.195312 C 17.652344 6.796875 17.539062 6.390625 17.277344 6.082031 C 17.015625 5.777344 16.632812 5.601562 16.226562 5.601562 L 15.523438 5.601562 L 15.523438 4.800781 L 15.925781 4.800781 C 16.144531 4.800781 16.324219 4.621094 16.324219 4.398438 C 16.324219 3.296875 15.425781 2.398438 14.324219 2.398438 L 13.125 2.398438 L 13.125 2.140625 C 13.125 2.0625 13.1875 2 13.261719 2 L 13.523438 2 C 13.746094 2 13.925781 1.820312 13.925781 1.601562 L 13.925781 0.398438 C 13.925781 0.179688 13.746094 0 13.523438 0 L 10.722656 0 C 10.503906 0 10.324219 0.179688 10.324219 0.398438 L 10.324219 1.601562 C 10.324219 1.820312 10.503906 2 10.722656 2 L 10.984375 2 C 11.0625 2 11.125 2.0625 11.125 2.140625 L 11.125 2.398438 L 9.925781 2.398438 C 8.820312 2.398438 7.925781 3.296875 7.925781 4.398438 C 7.925781 4.621094 8.101562 4.800781 8.324219 4.800781 L 8.722656 4.800781 L 8.722656 5.601562 L 7.769531 5.601562 C 7.367188 5.601562 6.984375 5.777344 6.722656 6.082031 C 6.460938 6.390625 6.34375 6.796875 6.410156 7.203125 L 7.128906 11.261719 C 7.332031 12.546875 7.417969 13.878906 7.386719 15.199219 C 7.367188 16.074219 7.300781 16.945312 7.179688 17.796875 L 6.722656 20.515625 C 6.589844 21.4375 6.878906 22.359375 7.519531 23.039062 C 8.097656 23.65625 8.890625 24 9.726562 24 C 9.804688 24 9.882812 23.996094 9.960938 23.992188 C 11.355469 23.882812 12.726562 23.871094 14.042969 23.957031 C 14.972656 24.015625 15.863281 23.660156 16.492188 22.980469 C 17.121094 22.304688 17.402344 21.390625 17.273438 20.488281 L 16.953125 17.808594 C 16.828125 16.953125 16.761719 16.078125 16.742188 15.199219 C 16.710938 13.875 16.796875 12.546875 17 11.257812 Z M 11.125 0.800781 L 13.125 0.800781 L 13.125 1.210938 C 12.671875 1.277344 12.324219 1.667969 12.324219 2.136719 L 12.324219 2.398438 L 11.925781 2.398438 L 11.925781 2.140625 C 11.925781 1.667969 11.578125 1.277344 11.125 1.210938 Z M 9.925781 3.199219 L 14.324219 3.199219 C 14.847656 3.199219 15.292969 3.535156 15.457031 4 L 8.792969 4 C 8.957031 3.535156 9.402344 3.199219 9.925781 3.199219 Z M 14.726562 4.800781 L 14.726562 5.601562 L 9.523438 5.601562 L 9.523438 4.800781 Z M 15.90625 22.433594 C 15.441406 22.9375 14.78125 23.203125 14.09375 23.15625 C 12.742188 23.070312 11.328125 23.082031 9.898438 23.191406 C 9.222656 23.242188 8.570312 22.992188 8.101562 22.492188 C 7.632812 21.988281 7.417969 21.308594 7.511719 20.636719 L 7.820312 18.800781 L 16.265625 18.800781 L 16.480469 20.59375 C 16.578125 21.265625 16.367188 21.9375 15.90625 22.433594 Z M 15.953125 15.601562 C 15.964844 15.867188 15.976562 16.132812 15.996094 16.398438 L 8.128906 16.398438 C 8.148438 16.132812 8.164062 15.867188 8.175781 15.601562 Z M 8.179688 14 L 15.945312 14 C 15.9375 14.265625 15.933594 14.53125 15.9375 14.800781 L 8.191406 14.800781 C 8.191406 14.53125 8.1875 14.265625 8.179688 14 Z M 15.984375 13.199219 L 8.144531 13.199219 C 8.125 12.933594 8.105469 12.664062 8.078125 12.398438 L 16.050781 12.398438 C 16.023438 12.664062 16.003906 12.933594 15.984375 13.199219 Z M 16.070312 17.199219 C 16.097656 17.4375 16.125 17.675781 16.15625 17.910156 L 16.167969 18 L 7.957031 18 L 7.96875 17.921875 C 8.003906 17.683594 8.03125 17.441406 8.058594 17.199219 Z M 16.144531 11.601562 L 7.984375 11.601562 C 7.960938 11.441406 7.941406 11.285156 7.917969 11.128906 L 7.859375 10.800781 L 16.257812 10.800781 L 16.207031 11.136719 C 16.183594 11.289062 16.164062 11.445312 16.144531 11.601562 Z M 16.800781 7.074219 L 16.375 10 L 7.71875 10 L 7.199219 7.070312 C 7.171875 6.902344 7.21875 6.730469 7.328125 6.601562 C 7.441406 6.472656 7.601562 6.398438 7.769531 6.398438 L 16.230469 6.398438 C 16.398438 6.398438 16.558594 6.472656 16.667969 6.601562 C 16.777344 6.730469 16.828125 6.902344 16.800781 7.074219 Z M 16.800781 7.074219"/>
</svg>
