<svg xmlns="http://www.w3.org/2000/svg" width="32" height="32" viewBox="0 0 24 24">
    <path d="M12 0C5.383 0 0 5.383 0 12s5.383 12 12 12 12-5.383 12-12S18.617 0 12 0zm0 23.172C5.84 23.172.828 18.16.828 12 .828 5.84 5.84.828 12 .828 18.16.828 23.172 5.84 23.172 12c0 6.16-5.012 11.172-11.172 11.172zm0 0"/>
    <path d="M11.828 14.898a2.314 2.314 0 0 0-2.312 2.309 2.31 2.31 0 0 0 4.621 0 2.31 2.31 0 0 0-2.309-2.309zm0 3.793a1.489 1.489 0 0 1-1.484-1.484c0-.816.668-1.484 1.484-1.484a1.485 1.485 0 0 1 0 2.968zm0 0M17.516 15.656a2.31 2.31 0 0 0 0 4.621 2.317 2.317 0 0 0 2.312-2.312 2.311 2.311 0 0 0-2.312-2.309zm0 3.793a1.483 1.483 0 1 1 .004-2.966 1.483 1.483 0 0 1-.004 2.966zm0 0M15.242 14.965a2.31 2.31 0 0 0 0-4.621 2.317 2.317 0 0 0-2.312 2.312 2.314 2.314 0 0 0 2.312 2.309zm0-3.793a1.483 1.483 0 1 1-.005 2.966 1.483 1.483 0 0 1 .005-2.966zm0 0M12.828 2.484a.414.414 0 0 0 0-.828c-1.176 0-2.332.18-3.437.535a.42.42 0 0 0-.27.524.414.414 0 0 0 .524.265 10.292 10.292 0 0 1 3.183-.496zm0 0M8.102 2.7a11.237 11.237 0 0 0-3.868 2.984.414.414 0 1 0 .637.53A10.402 10.402 0 0 1 8.45 3.45a.419.419 0 0 0 .203-.55.414.414 0 0 0-.55-.2zm0 0M3.715 7.09a.415.415 0 0 0-.567.152c-.082.14-.16.285-.238.43a.415.415 0 0 0 .367.605.408.408 0 0 0 .368-.222c.07-.137.144-.27.218-.399a.413.413 0 0 0-.148-.566zm0 0M2.453 9.941a.416.416 0 0 0-.5.309c-.2.84-.297 1.707-.297 2.578a.414.414 0 0 0 .828 0c0-.808.09-1.61.274-2.387a.416.416 0 0 0-.305-.5zm0 0"/>
</svg>
