<svg xmlns="http://www.w3.org/2000/svg" width="32" height="32" viewBox="0 0 24 24">
    <path d="M 22.328125 7.601562 L 21.171875 7.601562 C 20.953125 5.175781 19.167969 4.585938 18.378906 4.445312 C 18.203125 2.847656 16.84375 1.601562 15.199219 1.601562 L 9.199219 1.601562 C 7.570312 1.601562 6.226562 2.824219 6.027344 4.398438 L 5.992188 4.398438 C 5.960938 4.402344 3.109375 4.5 2.828125 7.601562 L 1.671875 7.601562 C 0.75 7.601562 0 8.351562 0 9.273438 L 0 13.527344 C 0 14.449219 0.75 15.199219 1.671875 15.199219 L 2.800781 15.199219 L 2.8125 15.300781 C 2.882812 15.558594 4.53125 21.609375 9.132812 22.394531 L 12.386719 22.398438 C 12.390625 22.398438 12.394531 22.398438 12.398438 22.398438 C 12.402344 22.398438 12.40625 22.398438 12.410156 22.398438 L 14.835938 22.398438 L 14.867188 22.394531 C 19.46875 21.609375 21.117188 15.558594 21.1875 15.300781 L 21.1875 15.199219 L 22.328125 15.199219 C 23.25 15.199219 24 14.449219 24 13.527344 L 24 9.273438 C 24 8.351562 23.25 7.601562 22.328125 7.601562 Z M 2.800781 14.398438 L 1.671875 14.398438 C 1.191406 14.398438 0.800781 14.007812 0.800781 13.527344 L 0.800781 9.273438 C 0.800781 8.792969 1.191406 8.398438 1.671875 8.398438 L 2.800781 8.398438 Z M 9.199219 2.398438 L 15.199219 2.398438 C 16.386719 2.398438 17.375 3.265625 17.566406 4.398438 L 6.832031 4.398438 C 7.023438 3.265625 8.011719 2.398438 9.199219 2.398438 Z M 10.621094 17.972656 C 9.417969 18 9.03125 17.71875 8.925781 17.59375 C 8.820312 17.476562 8.832031 17.367188 8.832031 17.367188 L 8.847656 17.3125 L 8.84375 17.253906 C 8.796875 16.519531 9.351562 16.175781 9.351562 16.175781 C 10.464844 15.613281 10.457031 14.6875 10.285156 14.242188 C 10.003906 13.054688 8.152344 12.589844 7.824219 12.515625 C 6.5 12.019531 6.289062 10.328125 6.289062 10.328125 C 6.261719 9.742188 6.421875 9.226562 6.578125 9 C 6.664062 8.875 6.816406 8.800781 6.980469 8.800781 L 17.199219 8.800781 C 17.363281 8.800781 17.515625 8.875 17.601562 9 C 17.757812 9.226562 17.917969 9.742188 17.894531 10.304688 C 17.890625 10.320312 17.695312 12.015625 16.355469 12.515625 C 16.023438 12.589844 14.136719 13.066406 13.878906 14.3125 C 13.875 14.367188 13.742188 15.652344 14.808594 16.164062 C 14.8125 16.167969 15.382812 16.503906 15.339844 17.253906 L 15.335938 17.3125 L 15.347656 17.367188 C 15.347656 17.371094 15.355469 17.472656 15.269531 17.578125 C 15.164062 17.707031 14.796875 18.003906 13.546875 17.96875 Z M 20.398438 15.144531 C 20.242188 15.699219 18.640625 20.910156 14.765625 21.601562 L 12.800781 21.601562 L 12.800781 21.199219 L 13.601562 21.199219 C 13.820312 21.199219 14 21.019531 14 20.800781 C 14 20.578125 13.820312 20.398438 13.601562 20.398438 L 12.800781 20.398438 L 12.800781 20 L 13.601562 20 C 13.820312 20 14 19.820312 14 19.601562 C 14 19.378906 13.820312 19.199219 13.601562 19.199219 L 12.800781 19.199219 L 12.800781 18.769531 L 13.539062 18.769531 C 14.699219 18.804688 15.496094 18.570312 15.890625 18.082031 C 16.160156 17.75 16.15625 17.40625 16.140625 17.257812 C 16.1875 16.050781 15.246094 15.496094 15.179688 15.457031 C 14.605469 15.179688 14.671875 14.441406 14.671875 14.441406 C 14.800781 13.808594 16.105469 13.386719 16.550781 13.292969 L 16.601562 13.277344 C 18.425781 12.621094 18.679688 10.480469 18.691406 10.363281 C 18.726562 9.535156 18.480469 8.863281 18.261719 8.546875 C 18.023438 8.203125 17.625 8 17.199219 8 L 6.980469 8 C 6.554688 8 6.15625 8.203125 5.921875 8.546875 C 5.699219 8.863281 5.453125 9.53125 5.492188 10.390625 C 5.503906 10.480469 5.753906 12.621094 7.578125 13.277344 L 7.628906 13.289062 C 8.074219 13.386719 9.378906 13.808594 9.511719 14.4375 L 9.53125 14.507812 C 9.570312 14.605469 9.714844 15.097656 8.972656 15.472656 C 8.933594 15.496094 7.992188 16.050781 8.042969 17.257812 C 8.023438 17.40625 8.019531 17.75 8.289062 18.082031 C 8.664062 18.542969 9.390625 18.773438 10.445312 18.773438 C 10.503906 18.773438 10.570312 18.773438 10.632812 18.769531 L 12 18.769531 L 12 19.199219 L 11.199219 19.199219 C 10.980469 19.199219 10.800781 19.378906 10.800781 19.601562 C 10.800781 19.820312 10.980469 20 11.199219 20 L 12 20 L 12 20.398438 L 11.199219 20.398438 C 10.980469 20.398438 10.800781 20.578125 10.800781 20.800781 C 10.800781 21.019531 10.980469 21.199219 11.199219 21.199219 L 12 21.199219 L 12 21.601562 L 9.234375 21.601562 C 5.363281 20.914062 3.761719 15.699219 3.601562 15.144531 L 3.601562 8.007812 C 3.644531 5.292969 5.914062 5.203125 6 5.199219 L 17.996094 5.199219 C 18.128906 5.203125 20.355469 5.300781 20.398438 8 Z M 23.199219 13.527344 C 23.199219 14.007812 22.808594 14.398438 22.328125 14.398438 L 21.199219 14.398438 L 21.199219 8.398438 L 22.328125 8.398438 C 22.808594 8.398438 23.199219 8.792969 23.199219 9.273438 Z M 23.199219 13.527344"/>
</svg>
