<svg xmlns="http://www.w3.org/2000/svg" width="32" height="32" viewBox="0 0 24 24">
    <path d="M19.762.938C18.937.324 17.91 0 16.789 0H9.883c-.207 0-.41.027-.602.074-.82.219-3.504 1.168-3.5 4.344l.102 1.144c-1.348-.027-2.309.227-2.848.758-.34.336-.504.782-.48 1.293v3.274c0 .437.16.855.445 1.175l3.953 4.54c.016.02.04.023.055.039.015.011.023.03.039.039.012.011.094.058.23.136v5.086c0 .149.078.285.203.368.06.035 1.461.894 3.575 1.343 1.015.258 1.789.387 2.586.387.796 0 1.62-.129 2.742-.387 2.351-.398 3.562-1.332 3.613-1.37a.427.427 0 0 0 .164-.34V16.82a2.78 2.78 0 0 0 .246-.148.439.439 0 0 0 .184-.32l.86-11.973c0-1.434-.583-2.625-1.688-3.441zM3.414 10.89V7.6c0-.007 0-.015-.004-.019-.012-.277.059-.48.23-.648.337-.336 1.083-.516 2.087-.516.074 0 .152 0 .234.004l.738 8.258.031.36-3.085-3.544a.914.914 0 0 1-.23-.605zm4.723 6.328a11.542 11.542 0 0 0 1.11.39 5.224 5.224 0 0 0 .366.106l.266.07.14.035c.079.02.153.035.235.055.066.016.133.027.203.043.066.012.137.027.207.043.016 0 .031.004.047.008v4.68a11.812 11.812 0 0 1-2.574-.997zm3.433 5.636l.004-7.613c0-.133.016-.262.043-.387v-.003c.086-.36.281-.68.555-.938.066-.062.14-.117.215-.172.039-.027.074-.058.113-.082.098-.062.207-.117.316-.164.024-.008.04-.02.063-.027.133-.051.273-.09.422-.117.035-.008.074-.004.113-.012.11-.012.219-.024.328-.024.047 0 .094.008.14.012 1.067.09 1.985 1.098 1.985 2.23v7.29c-1.773.386-2.695.39-4.297.007zm7.73-1.18c-.34.22-1.206.7-2.573.997v-4.7l.058-.011c.067-.012.133-.027.195-.04.075-.015.149-.03.223-.042.078-.02.152-.035.227-.055l.152-.035c.086-.02.172-.043.258-.066.027-.004.05-.012.078-.02a11.719 11.719 0 0 0 1.383-.469zm.45-5.605c-.059.032-.129.07-.215.114a9.692 9.692 0 0 1-1.656.64c-.106.028-.215.059-.324.086-.067.016-.13.035-.196.05-.09.024-.183.04-.277.063-.098.02-.195.043-.3.063l-.055.012v-1.805c0-1.512-1.262-2.746-2.84-2.832-.035 0-.067-.004-.102-.008h-.066c-.528 0-1.024.129-1.457.352-.012.008-.024.015-.04.023-.07.04-.14.078-.206.121a1.44 1.44 0 0 0-.098.067c-.043.03-.09.062-.129.093-.047.036-.09.075-.133.11-.023.023-.05.047-.078.07-.015.016-.031.027-.047.043a3 3 0 0 0-.11.117c-.007.012-.019.02-.026.028-.055.066-.11.132-.16.203-.005 0-.005.004-.008.004-.106.148-.2.304-.274.468v.008a2.442 2.442 0 0 0-.094.235 1.495 1.495 0 0 0-.07.25c-.004.011-.012.027-.012.043-.015.07-.027.144-.039.218a.23.23 0 0 1-.008.055 3.392 3.392 0 0 0-.015.281v1.848a.229.229 0 0 1-.05-.008c-.106-.02-.204-.043-.302-.066l-.25-.059c-.117-.027-.222-.059-.332-.09a2.648 2.648 0 0 0-.168-.043 12.057 12.057 0 0 1-.441-.14h-.008a9.811 9.811 0 0 1-1.476-.625L6.78 5.969V5.96l-.144-1.582C6.637 1.926 8.64 1.133 9.5.906c.121-.031.25-.047.383-.047h6.906c.922 0 1.793.274 2.465.766.887.66 1.336 1.586 1.34 2.723zm0 0"/>
    <path d="M15.313 14.727a.431.431 0 0 0-.61 0l-.984.984-.985-.984a.427.427 0 0 0-.605 0 .431.431 0 0 0 0 .609l.984.984-.984.985a.427.427 0 0 0 0 .605.423.423 0 0 0 .605 0l.985-.984.984.984a.43.43 0 0 0 .305.13.43.43 0 0 0 .305-.13.427.427 0 0 0 0-.605l-.985-.985.985-.984a.431.431 0 0 0 0-.61zm0 0M15.313 19.023a.431.431 0 0 0-.61 0l-.984.985-.985-.985a.427.427 0 0 0-.605 0 .427.427 0 0 0 0 .606l.984.984-.984.985a.431.431 0 0 0 .3.734c.11 0 .223-.043.305-.125l.985-.984.984.984a.442.442 0 0 0 .305.125.431.431 0 0 0 .305-.734l-.985-.985.985-.984a.427.427 0 0 0 0-.606zm0 0M14.578 2.148a.428.428 0 0 0-.43.43c0 .235.192.43.43.43a3.868 3.868 0 0 1 3.867 3.863.428.428 0 1 0 .856 0 4.726 4.726 0 0 0-4.723-4.723zm0 0"/>
</svg>
