<svg xmlns="http://www.w3.org/2000/svg" width="32" height="32" viewBox="0 0 24 24">
    <path d="M 23.945312 6.777344 L 22.144531 3.53125 C 22.40625 3.042969 22.34375 2.453125 21.945312 2.054688 C 21.550781 1.660156 20.96875 1.59375 20.472656 1.859375 L 17.222656 0.0546875 C 17.054688 -0.0390625 16.847656 -0.0117188 16.714844 0.125 L 13.628906 3.210938 C 13.519531 3.320312 13.480469 3.476562 13.519531 3.625 L 14.613281 7.628906 L 12.128906 10.113281 C 11.699219 10.078125 11.257812 10.210938 10.949219 10.519531 L 3.964844 17.503906 C 3.683594 17.785156 3.53125 18.160156 3.53125 18.558594 C 3.53125 18.914062 3.660156 19.246094 3.886719 19.515625 L 0.125 23.273438 C -0.0429688 23.441406 -0.0429688 23.710938 0.125 23.875 C 0.207031 23.957031 0.316406 24 0.425781 24 C 0.535156 24 0.644531 23.957031 0.726562 23.875 L 4.484375 20.117188 C 4.753906 20.34375 5.085938 20.472656 5.441406 20.472656 C 5.839844 20.472656 6.214844 20.316406 6.496094 20.035156 L 13.480469 13.050781 C 13.757812 12.773438 13.914062 12.398438 13.914062 12 C 13.914062 11.953125 13.902344 11.90625 13.898438 11.859375 L 16.371094 9.386719 L 20.375 10.480469 C 20.414062 10.492188 20.449219 10.496094 20.488281 10.496094 C 20.601562 10.496094 20.707031 10.453125 20.789062 10.371094 L 23.875 7.285156 C 24.007812 7.152344 24.039062 6.945312 23.945312 6.777344 Z M 14.40625 3.636719 L 17.089844 0.953125 L 19.789062 2.453125 L 15.304688 6.9375 Z M 5.894531 19.433594 C 5.652344 19.675781 5.230469 19.675781 4.992188 19.433594 L 4.566406 19.007812 C 4.445312 18.890625 4.378906 18.730469 4.378906 18.558594 C 4.378906 18.386719 4.445312 18.226562 4.566406 18.105469 L 5.332031 17.339844 L 6.660156 18.667969 Z M 7.261719 18.066406 L 5.933594 16.738281 L 6.792969 15.882812 L 8.117188 17.210938 Z M 8.71875 16.609375 L 7.394531 15.28125 L 8.335938 14.339844 L 9.664062 15.664062 Z M 10.261719 15.0625 L 8.9375 13.738281 L 9.878906 12.796875 L 11.203125 14.121094 Z M 12.878906 12.449219 L 11.808594 13.519531 L 10.480469 12.195312 L 11.550781 11.125 C 11.59375 11.078125 11.644531 11.046875 11.695312 11.015625 L 12.128906 11.078125 C 12.339844 11.105469 12.523438 11.195312 12.664062 11.335938 C 12.804688 11.476562 12.894531 11.660156 12.921875 11.871094 L 12.984375 12.304688 C 12.953125 12.355469 12.921875 12.40625 12.878906 12.449219 Z M 15.945312 8.613281 L 13.539062 11.019531 C 13.515625 10.996094 13.5 10.96875 13.480469 10.945312 L 13.054688 10.519531 C 13.03125 10.5 13.003906 10.484375 12.980469 10.464844 L 15.386719 8.058594 C 15.386719 8.058594 15.386719 8.058594 15.386719 8.054688 L 20.773438 2.671875 C 20.929688 2.535156 21.164062 2.476562 21.34375 2.65625 C 21.523438 2.835938 21.464844 3.074219 21.34375 3.210938 Z M 20.363281 9.59375 L 17.0625 8.695312 L 21.546875 4.210938 L 23.046875 6.910156 Z M 20.363281 9.59375"/>
</svg>
