<svg xmlns="http://www.w3.org/2000/svg" width="32" height="32" viewBox="0 0 24 24">
    <path d="M 18.761719 9.222656 L 18.761719 3.816406 C 18.761719 1.710938 17.050781 0 14.945312 0 L 9.054688 0 C 6.949219 0 5.238281 1.710938 5.238281 3.816406 L 5.238281 9.222656 C 3.832031 10.851562 3.054688 12.914062 3.054688 15.054688 C 3.054688 19.988281 7.066406 24 12 24 C 16.933594 24 20.945312 19.988281 20.945312 15.054688 C 20.945312 12.914062 20.167969 10.851562 18.761719 9.222656 Z M 6.109375 3.816406 C 6.109375 2.191406 7.429688 0.871094 9.054688 0.871094 L 14.945312 0.871094 C 16.570312 0.871094 17.890625 2.191406 17.890625 3.816406 L 17.890625 10.769531 C 17.890625 11.117188 17.714844 11.4375 17.417969 11.621094 C 17.121094 11.800781 16.757812 11.820312 16.445312 11.664062 L 15.824219 11.351562 C 15.484375 11.179688 15.273438 10.839844 15.273438 10.460938 L 15.273438 4.914062 C 15.273438 4.128906 14.632812 3.492188 13.851562 3.492188 L 10.148438 3.492188 C 9.367188 3.492188 8.726562 4.128906 8.726562 4.914062 L 8.726562 10.460938 C 8.726562 10.554688 8.714844 10.648438 8.6875 10.734375 C 8.613281 11 8.429688 11.222656 8.175781 11.351562 L 7.863281 11.507812 L 7.554688 11.664062 C 7.398438 11.742188 7.230469 11.777344 7.0625 11.769531 C 6.894531 11.761719 6.730469 11.710938 6.582031 11.621094 C 6.285156 11.4375 6.109375 11.117188 6.109375 10.769531 Z M 14.398438 6.449219 C 12.820312 6.003906 11.179688 6.003906 9.601562 6.449219 L 9.601562 4.914062 C 9.601562 4.609375 9.847656 4.363281 10.148438 4.363281 L 13.851562 4.363281 C 14.152344 4.363281 14.398438 4.609375 14.398438 4.914062 Z M 12 23.128906 C 7.546875 23.128906 3.925781 19.507812 3.925781 15.054688 C 3.925781 13.488281 4.386719 11.964844 5.238281 10.660156 L 5.238281 10.769531 C 5.238281 11.421875 5.566406 12.019531 6.125 12.363281 C 6.402344 12.535156 6.710938 12.625 7.023438 12.640625 C 7.207031 12.648438 7.394531 12.625 7.578125 12.578125 C 7.703125 12.546875 7.824219 12.503906 7.945312 12.441406 L 8.566406 12.132812 C 9.203125 11.8125 9.601562 11.171875 9.601562 10.457031 L 9.601562 7.355469 C 11.175781 6.859375 12.828125 6.859375 14.402344 7.355469 L 14.402344 10.457031 C 14.402344 10.636719 14.425781 10.8125 14.472656 10.976562 C 14.613281 11.472656 14.957031 11.894531 15.433594 12.132812 L 16.058594 12.441406 C 16.0625 12.445312 16.066406 12.445312 16.070312 12.449219 C 16.136719 12.480469 16.203125 12.507812 16.269531 12.535156 C 16.292969 12.542969 16.320312 12.546875 16.34375 12.554688 C 16.390625 12.570312 16.441406 12.585938 16.492188 12.597656 C 16.519531 12.601562 16.546875 12.605469 16.574219 12.613281 C 16.621094 12.621094 16.667969 12.628906 16.714844 12.632812 C 16.746094 12.636719 16.777344 12.636719 16.804688 12.636719 C 16.835938 12.636719 16.867188 12.640625 16.894531 12.640625 C 16.910156 12.640625 16.921875 12.640625 16.933594 12.640625 C 16.980469 12.640625 17.027344 12.632812 17.074219 12.628906 C 17.109375 12.625 17.144531 12.625 17.179688 12.617188 C 17.226562 12.613281 17.273438 12.601562 17.324219 12.589844 C 17.355469 12.582031 17.386719 12.574219 17.417969 12.566406 C 17.472656 12.550781 17.523438 12.53125 17.578125 12.507812 C 17.601562 12.5 17.628906 12.492188 17.652344 12.480469 C 17.730469 12.445312 17.804688 12.40625 17.875 12.363281 C 18.433594 12.019531 18.761719 11.421875 18.761719 10.769531 L 18.761719 10.660156 C 19.613281 11.964844 20.074219 13.488281 20.074219 15.054688 C 20.074219 19.507812 16.453125 23.128906 12 23.128906 Z M 12 23.128906"/>
    <path d="M12.21875 20.507812C10.574219 20.507812 8.957031 19.761719 7.890625 18.507812 7.734375 18.324219 7.460938 18.300781 7.277344 18.457031 7.09375 18.613281 7.070312 18.890625 7.226562 19.074219 8.453125 20.519531 10.320312 21.382812 12.21875 21.382812 12.460938 21.382812 12.65625 21.1875 12.65625 20.945312 12.65625 20.703125 12.460938 20.507812 12.21875 20.507812zM6.546875 14.835938C6.546875 14.59375 6.351562 14.398438 6.109375 14.398438 5.867188 14.398438 5.671875 14.59375 5.671875 14.835938 5.671875 15.664062 5.824219 16.46875 6.125 17.234375 6.191406 17.40625 6.355469 17.511719 6.53125 17.511719 6.585938 17.511719 6.640625 17.5 6.691406 17.480469 6.914062 17.394531 7.027344 17.140625 6.9375 16.914062 6.675781 16.253906 6.546875 15.554688 6.546875 14.835938zM6.546875 14.835938"/>
</svg>
