<svg xmlns="http://www.w3.org/2000/svg" width="32" height="32" viewBox="0 0 24 24">
    <path d="M12 0C5.383 0 0 5.383 0 12s5.383 12 12 12 12-5.383 12-12S18.617 0 12 0zm0 23.172C5.84 23.172.828 18.16.828 12 .828 5.84 5.84.828 12 .828 18.16.828 23.172 5.84 23.172 12c0 6.16-5.012 11.172-11.172 11.172zm0 0"/>
    <path d="M9.516 3.309c-3.88 0-7.032 3.066-7.032 6.828 0 3.765 3.153 6.828 7.032 6.828s7.035-3.063 7.035-6.828c0-3.762-3.156-6.828-7.035-6.828zm0 12.828c-3.422 0-6.207-2.692-6.207-6 0-3.309 2.785-6 6.207-6 3.425 0 6.207 2.691 6.207 6 0 3.308-2.782 6-6.207 6zm0 0"/>
    <path d="M12 8.07a2.277 2.277 0 0 0-2.277-2.277H8.484A2.277 2.277 0 0 0 6.207 8.07c0 .77.383 1.45.973 1.86a2.27 2.27 0 0 0-.973 1.863 2.28 2.28 0 0 0 2.277 2.277h1.239A2.28 2.28 0 0 0 12 11.793c0-.77-.387-1.45-.973-1.863.586-.41.973-1.09.973-1.86zm-.828 3.723c0 .797-.649 1.45-1.45 1.45H8.485c-.8 0-1.449-.653-1.449-1.45 0-.797.649-1.45 1.45-1.45h1.238c.8 0 1.449.653 1.449 1.45zm-1.45-2.277H8.485a1.448 1.448 0 1 1 0-2.895h1.239a1.448 1.448 0 0 1 0 2.895zm0 0"/>
</svg>
