<svg xmlns="http://www.w3.org/2000/svg" width="32" height="32" viewBox="0 0 24 24">
    <path d="M 12 12 C 10.960938 12 9.957031 12.054688 9 12.164062 L 9 6.738281 L 16.421875 4.261719 C 16.601562 4.203125 16.71875 4.035156 16.714844 3.847656 C 16.710938 3.660156 16.582031 3.496094 16.402344 3.445312 L 8.6875 1.300781 C 8.671875 1.296875 8.65625 1.300781 8.640625 1.300781 C 8.617188 1.296875 8.59375 1.285156 8.570312 1.285156 C 8.554688 1.285156 8.542969 1.292969 8.527344 1.292969 C 8.503906 1.296875 8.480469 1.300781 8.457031 1.308594 C 8.417969 1.320312 8.382812 1.335938 8.351562 1.355469 C 8.335938 1.363281 8.324219 1.363281 8.3125 1.375 C 8.304688 1.378906 8.300781 1.386719 8.296875 1.390625 C 8.261719 1.421875 8.238281 1.453125 8.214844 1.492188 C 8.203125 1.507812 8.191406 1.519531 8.183594 1.535156 C 8.160156 1.589844 8.144531 1.648438 8.144531 1.714844 L 8.144531 12.273438 C 3.363281 12.976562 0 14.957031 0 17.355469 C 0 20.363281 5.269531 22.714844 12 22.714844 C 18.730469 22.714844 24 20.363281 24 17.355469 C 24 14.351562 18.730469 12 12 12 Z M 9 5.832031 L 9 2.277344 L 14.820312 3.894531 Z M 12 21.855469 C 5.960938 21.855469 0.855469 19.796875 0.855469 17.355469 C 0.855469 15.460938 3.9375 13.796875 8.144531 13.148438 L 8.144531 14.816406 C 7.128906 15.214844 6.429688 16.054688 6.429688 17.023438 C 6.429688 18.375 7.789062 19.476562 9.460938 19.476562 C 11.128906 19.476562 12.488281 18.375 12.488281 17.023438 C 12.488281 15.671875 11.128906 14.570312 9.460938 14.570312 C 9.300781 14.570312 9.148438 14.582031 9 14.601562 L 9 13.03125 C 9.960938 12.917969 10.964844 12.855469 12 12.855469 C 18.039062 12.855469 23.144531 14.917969 23.144531 17.355469 C 23.144531 19.796875 18.039062 21.855469 12 21.855469 Z M 8.570312 17.144531 C 8.808594 17.144531 9 16.953125 9 16.714844 L 9 15.464844 C 9.148438 15.441406 9.300781 15.429688 9.460938 15.429688 C 10.65625 15.429688 11.632812 16.144531 11.632812 17.023438 C 11.632812 17.902344 10.65625 18.621094 9.460938 18.621094 C 8.261719 18.621094 7.285156 17.902344 7.285156 17.023438 C 7.285156 16.507812 7.625 16.054688 8.144531 15.761719 L 8.144531 16.714844 C 8.144531 16.953125 8.335938 17.144531 8.570312 17.144531 Z M 8.570312 17.144531"/>
    <path d="M 17.570312 16.714844 C 16.625 16.714844 15.855469 17.484375 15.855469 18.429688 C 15.855469 19.375 16.625 20.144531 17.570312 20.144531 C 18.515625 20.144531 19.285156 19.375 19.285156 18.429688 C 19.285156 17.484375 18.515625 16.714844 17.570312 16.714844 Z M 17.570312 19.285156 C 17.097656 19.285156 16.714844 18.902344 16.714844 18.429688 C 16.714844 17.957031 17.097656 17.570312 17.570312 17.570312 C 18.042969 17.570312 18.429688 17.957031 18.429688 18.429688 C 18.429688 18.902344 18.042969 19.285156 17.570312 19.285156 Z M 17.570312 19.285156"/>
</svg>
