<svg xmlns="http://www.w3.org/2000/svg" width="32" height="32" viewBox="0 0 24 24">
    <path d="M 23.292969 6.269531 L 23.078125 5.902344 C 23.070312 5.875 23.058594 5.847656 23.042969 5.820312 L 21.230469 2.554688 C 20.558594 1.347656 19.285156 0.597656 17.90625 0.597656 L 14 0.597656 C 13.972656 0.597656 13.945312 0.601562 13.917969 0.609375 C 13.914062 0.609375 13.90625 0.609375 13.902344 0.609375 C 13.878906 0.617188 13.859375 0.625 13.835938 0.636719 C 13.824219 0.640625 13.8125 0.644531 13.800781 0.648438 C 13.800781 0.652344 13.796875 0.652344 13.796875 0.652344 C 13.789062 0.65625 13.785156 0.664062 13.777344 0.667969 C 13.769531 0.671875 13.765625 0.675781 13.757812 0.683594 C 13.742188 0.691406 13.730469 0.703125 13.71875 0.710938 C 13.71875 0.714844 13.714844 0.71875 13.714844 0.71875 C 13.695312 0.738281 13.675781 0.761719 13.660156 0.789062 L 11.605469 4.164062 L 9.957031 0.820312 C 9.957031 0.816406 9.953125 0.8125 9.949219 0.808594 C 9.945312 0.800781 9.945312 0.796875 9.941406 0.789062 C 9.933594 0.777344 9.921875 0.769531 9.914062 0.757812 C 9.90625 0.746094 9.898438 0.730469 9.886719 0.71875 C 9.871094 0.707031 9.855469 0.695312 9.839844 0.683594 C 9.828125 0.671875 9.816406 0.664062 9.804688 0.65625 C 9.785156 0.644531 9.765625 0.636719 9.746094 0.628906 C 9.734375 0.625 9.722656 0.617188 9.707031 0.613281 C 9.683594 0.605469 9.65625 0.605469 9.632812 0.601562 C 9.621094 0.601562 9.613281 0.597656 9.605469 0.597656 C 9.601562 0.597656 9.601562 0.597656 9.597656 0.597656 L 6.09375 0.597656 C 4.714844 0.597656 3.441406 1.347656 2.769531 2.554688 L 0.957031 5.820312 C 0.941406 5.847656 0.929688 5.875 0.921875 5.902344 L 0.707031 6.269531 C -0.667969 8.609375 0.0195312 11.628906 2.265625 13.148438 L 3.996094 14.320312 L 3.996094 21.800781 C 3.996094 22.023438 4.175781 22.203125 4.398438 22.203125 L 9.199219 22.203125 L 9.199219 23.003906 C 9.199219 23.222656 9.378906 23.402344 9.597656 23.402344 L 11.199219 23.402344 C 11.421875 23.402344 11.597656 23.222656 11.597656 23.003906 L 11.597656 22.203125 L 12.398438 22.203125 L 12.398438 23.003906 C 12.398438 23.222656 12.578125 23.402344 12.800781 23.402344 L 14.398438 23.402344 C 14.621094 23.402344 14.800781 23.222656 14.800781 23.003906 L 14.800781 22.203125 L 19.601562 22.203125 C 19.824219 22.203125 20 22.023438 20 21.800781 L 20 14.316406 L 21.734375 13.148438 C 23.980469 11.628906 24.667969 8.609375 23.292969 6.269531 Z M 11.113281 4.972656 L 8.277344 9.628906 L 6.136719 8.542969 L 9.589844 1.882812 Z M 4.621094 13.773438 L 2.714844 12.484375 C 0.816406 11.203125 0.238281 8.648438 1.398438 6.671875 L 1.660156 6.222656 C 1.679688 6.191406 1.691406 6.160156 1.703125 6.128906 L 3.472656 2.941406 C 4 1.988281 5.007812 1.398438 6.097656 1.398438 L 8.941406 1.398438 L 5.378906 8.265625 L 4.175781 9.066406 C 3.992188 9.1875 3.945312 9.4375 4.066406 9.621094 C 4.144531 9.738281 4.269531 9.800781 4.398438 9.800781 C 4.476562 9.800781 4.554688 9.777344 4.621094 9.730469 L 5.523438 9.128906 L 9.5 11.144531 L 7.417969 14.800781 L 7.0625 15.421875 L 5.949219 14.667969 L 4.625 13.773438 C 4.621094 13.773438 4.621094 13.773438 4.621094 13.773438 Z M 6.785156 16.199219 L 4.800781 16.199219 L 4.800781 15.402344 L 5.601562 15.402344 Z M 9.199219 21.402344 L 4.800781 21.402344 L 4.800781 17 L 9.199219 17 Z M 9.199219 16.199219 L 7.539062 16.199219 C 7.542969 16.199219 7.542969 16.195312 7.542969 16.191406 L 7.996094 15.402344 L 9.199219 15.402344 Z M 10.800781 21.800781 L 10.800781 22.601562 L 10 22.601562 L 10 15.363281 C 10 15.261719 10.019531 15.167969 10.058594 15.078125 L 10.800781 16.6875 Z M 12.402344 21.402344 L 11.601562 21.402344 L 11.601562 17 L 12.402344 17 Z M 12.546875 16.199219 L 11.457031 16.199219 L 10.71875 14.605469 C 10.734375 14.605469 10.75 14.601562 10.765625 14.601562 L 13.238281 14.601562 C 13.253906 14.601562 13.269531 14.605469 13.28125 14.605469 Z M 14 16.601562 L 14 22.601562 L 13.199219 22.601562 L 13.199219 16.6875 L 13.945312 15.078125 C 13.980469 15.167969 14 15.261719 14 15.363281 Z M 14.59375 14.601562 C 14.460938 14.367188 14.273438 14.171875 14.042969 14.03125 C 14.042969 14.03125 14.039062 14.027344 14.039062 14.023438 C 14.011719 14.011719 13.988281 14 13.960938 13.988281 C 13.894531 13.953125 13.828125 13.921875 13.753906 13.894531 C 13.707031 13.875 13.65625 13.859375 13.605469 13.847656 C 13.570312 13.839844 13.539062 13.832031 13.503906 13.828125 C 13.417969 13.8125 13.328125 13.800781 13.238281 13.800781 L 10.765625 13.800781 C 10.675781 13.800781 10.585938 13.8125 10.496094 13.828125 C 10.464844 13.832031 10.429688 13.839844 10.398438 13.847656 C 10.347656 13.859375 10.296875 13.878906 10.246094 13.894531 C 10.175781 13.921875 10.105469 13.953125 10.039062 13.988281 C 10.015625 14 9.988281 14.011719 9.964844 14.023438 C 9.960938 14.027344 9.960938 14.03125 9.957031 14.03125 C 9.726562 14.171875 9.539062 14.367188 9.40625 14.601562 L 8.453125 14.601562 L 10.402344 11.175781 C 10.457031 11.078125 10.472656 10.964844 10.441406 10.863281 C 10.40625 10.757812 10.335938 10.667969 10.238281 10.621094 L 8.996094 9.992188 L 13.988281 1.785156 L 17.847656 8.550781 L 13.765625 10.621094 C 13.667969 10.667969 13.59375 10.757812 13.5625 10.863281 C 13.53125 10.96875 13.542969 11.082031 13.597656 11.175781 L 15.550781 14.601562 Z M 16.003906 15.402344 L 16.457031 16.191406 C 16.457031 16.195312 16.460938 16.199219 16.460938 16.199219 L 14.800781 16.199219 L 14.800781 15.402344 Z M 19.203125 21.402344 L 14.800781 21.402344 L 14.800781 17 L 19.203125 17 Z M 19.203125 16.199219 L 17.214844 16.199219 L 18.398438 15.402344 L 19.203125 15.402344 Z M 21.285156 12.484375 L 19.378906 13.773438 L 18.054688 14.667969 L 16.9375 15.421875 L 16.585938 14.800781 L 14.503906 11.144531 L 18.523438 9.105469 L 19.824219 9.757812 C 19.882812 9.785156 19.941406 9.796875 20.003906 9.796875 C 20.148438 9.796875 20.289062 9.71875 20.359375 9.578125 C 20.460938 9.378906 20.378906 9.140625 20.183594 9.039062 L 19.199219 8.546875 L 19.824219 8.132812 C 20.007812 8.007812 20.058594 7.761719 19.933594 7.574219 C 19.8125 7.390625 19.566406 7.34375 19.378906 7.464844 L 18.488281 8.058594 L 14.691406 1.398438 L 17.90625 1.398438 C 18.996094 1.398438 20 1.988281 20.53125 2.941406 L 22.300781 6.125 C 22.308594 6.160156 22.320312 6.191406 22.339844 6.222656 L 22.605469 6.671875 C 23.761719 8.648438 23.183594 11.203125 21.285156 12.484375 Z M 21.285156 12.484375"/>
</svg>
