<svg xmlns="http://www.w3.org/2000/svg" width="32" height="32" viewBox="0 0 24 24">
    <path d="M 20.121094 6.460938 C 18.167969 6.460938 16.550781 7.914062 16.28125 9.792969 C 16.191406 9.789062 16.097656 9.78125 16.003906 9.78125 C 15.949219 9.78125 15.894531 9.785156 15.835938 9.789062 C 15.566406 7.910156 13.953125 6.460938 12 6.460938 C 10.046875 6.460938 8.429688 7.910156 8.164062 9.792969 C 8.085938 9.789062 8.007812 9.78125 7.929688 9.78125 C 7.859375 9.78125 7.789062 9.785156 7.714844 9.789062 C 7.449219 7.910156 5.832031 6.460938 3.878906 6.460938 C 1.742188 6.460938 0 8.199219 0 10.339844 C 0 12.480469 1.742188 14.21875 3.878906 14.21875 C 3.953125 14.21875 4.023438 14.214844 4.09375 14.210938 C 4.363281 16.089844 5.976562 17.539062 7.929688 17.539062 C 9.882812 17.539062 11.5 16.089844 11.765625 14.207031 C 11.84375 14.214844 11.921875 14.21875 12 14.21875 C 12.058594 14.21875 12.113281 14.214844 12.167969 14.210938 C 12.4375 16.089844 14.054688 17.539062 16.003906 17.539062 C 17.957031 17.539062 19.574219 16.085938 19.84375 14.207031 C 19.933594 14.210938 20.027344 14.21875 20.121094 14.21875 C 22.257812 14.21875 24 12.480469 24 10.339844 C 24 8.203125 22.257812 6.460938 20.121094 6.460938 Z M 0.800781 10.339844 C 0.800781 8.640625 2.179688 7.261719 3.878906 7.261719 C 5.433594 7.261719 6.71875 8.417969 6.925781 9.917969 C 5.351562 10.339844 4.171875 11.730469 4.0625 13.410156 C 4.003906 13.414062 3.941406 13.421875 3.878906 13.421875 C 2.179688 13.421875 0.800781 12.039062 0.800781 10.339844 Z M 6.929688 10.75 C 6.773438 11.917969 5.964844 12.875 4.878906 13.25 C 5.035156 12.085938 5.847656 11.125 6.929688 10.75 Z M 7.929688 16.742188 C 6.375 16.742188 5.089844 15.582031 4.882812 14.085938 C 6.460938 13.660156 7.640625 12.269531 7.746094 10.589844 C 7.808594 10.585938 7.867188 10.582031 7.929688 10.582031 C 8 10.582031 8.066406 10.585938 8.132812 10.589844 C 8.238281 12.265625 9.410156 13.652344 10.976562 14.078125 C 10.773438 15.578125 9.484375 16.742188 7.929688 16.742188 Z M 8.953125 10.757812 C 10.023438 11.136719 10.820312 12.085938 10.976562 13.242188 C 9.910156 12.863281 9.109375 11.914062 8.953125 10.757812 Z M 11.796875 13.410156 C 11.691406 11.734375 10.519531 10.351562 8.953125 9.921875 C 9.15625 8.421875 10.445312 7.261719 12 7.261719 C 13.550781 7.261719 14.832031 8.414062 15.046875 9.90625 C 13.445312 10.3125 12.246094 11.714844 12.136719 13.414062 C 12.089844 13.414062 12.046875 13.421875 12 13.421875 C 11.929688 13.421875 11.863281 13.414062 11.796875 13.410156 Z M 15.050781 10.734375 C 14.898438 11.925781 14.066406 12.90625 12.953125 13.269531 C 13.105469 12.078125 13.941406 11.097656 15.050781 10.734375 Z M 16.003906 16.742188 C 14.453125 16.742188 13.171875 15.589844 12.960938 14.09375 C 14.558594 13.6875 15.761719 12.285156 15.867188 10.585938 C 15.914062 10.585938 15.957031 10.582031 16.003906 10.582031 C 16.089844 10.582031 16.171875 10.585938 16.253906 10.59375 C 16.359375 12.25 17.511719 13.625 19.054688 14.070312 C 18.855469 15.574219 17.566406 16.742188 16.003906 16.742188 Z M 17.074219 10.777344 C 18.113281 11.164062 18.890625 12.09375 19.050781 13.226562 C 18.011719 12.839844 17.234375 11.90625 17.074219 10.777344 Z M 20.121094 13.421875 C 20.035156 13.421875 19.953125 13.414062 19.871094 13.40625 C 19.765625 11.75 18.613281 10.375 17.070312 9.933594 C 17.269531 8.425781 18.558594 7.261719 20.121094 7.261719 C 21.820312 7.261719 23.199219 8.640625 23.199219 10.339844 C 23.199219 12.039062 21.820312 13.421875 20.121094 13.421875 Z M 20.121094 13.421875"/>
</svg>
