<svg xmlns="http://www.w3.org/2000/svg" width="32" height="32" viewBox="0 0 24 24">
    <path d="M21.5 2.36C18.793-.353 14.187-.763 10.21 1.312a3.976 3.976 0 0 0-2.605-.97c-1.07 0-2.078.415-2.832 1.173a4.007 4.007 0 0 0-.035 5.625 7.813 7.813 0 0 0-.562 2.402c-.008.031-.02.059-.02.09-.023.433-.008.867.043 1.3v.005c.031.257.078.515.137.773.008.027.012.05.02.078.058.246.128.492.21.734l.036.094c.085.246.183.492.296.738.313.668.399 1.383.243 2.012-.016.067-.036.125-.055.188a4.67 4.67 0 0 1-.074.25c-.028.074-.063.148-.094.222-.027.063-.05.125-.082.188-.04.086-.09.164-.133.246l-.082.144a3.666 3.666 0 0 1-.18.25c-.027.036-.05.075-.078.114a4.91 4.91 0 0 1-.23.258c-.028.027-.051.058-.074.085-.086.086-.18.168-.278.25-.027.024-.047.051-.074.07a4.44 4.44 0 0 1-.363.278c-.012.008-.024.02-.04.027a6.24 6.24 0 0 1-.445.29c-.46.273-1.062.644-1.636 1.082l-.637.492a1.187 1.187 0 0 0-.457.855c-.02.336.105.668.344.907l2.093 2.093c.223.223.52.344.832.344.028 0 .055 0 .086-.004.34-.023.653-.195.856-.469l.66-.886c.188-.258.379-.536.57-.84.13-.207.262-.422.399-.656.09-.157.18-.305.277-.446.367-.543.774-.965 1.238-1.281l.047-.035c.086-.059.176-.106.266-.156l.105-.063c.082-.043.164-.074.246-.113.051-.02.102-.047.153-.067.07-.027.148-.047.222-.074.067-.02.13-.043.2-.062.632-.172 1.234-.07 1.699.086a3.648 3.648 0 0 1 .308.117c.18.074.36.144.54.207l.136.047a12.355 12.355 0 0 0 .551.164c.75.191 1.508.27 2.262.23.023-.004.043-.012.066-.015 2.11-.137 4.195-1.172 6.098-3.075 4.168-4.164 4.68-10.691 1.117-14.25zM5.34 2.081a3.182 3.182 0 0 1 2.265-.937c.856 0 1.66.332 2.262.937a3.206 3.206 0 0 1 0 4.531c-.074.074-.156.145-.238.215-.027.024-.059.043-.09.067-.05.039-.105.082-.16.117-.04.027-.078.047-.117.07-.051.031-.098.063-.153.09a1.947 1.947 0 0 1-.129.062c-.05.024-.097.047-.148.07-.047.02-.094.036-.14.051a2.18 2.18 0 0 1-.297.09c-.047.012-.094.028-.141.035-.055.012-.11.02-.16.028-.047.008-.09.015-.137.02-.055.007-.113.007-.172.011-.043.004-.082.004-.12.008-.067 0-.13-.004-.192-.004-.035-.004-.07-.004-.106-.008-.07-.004-.137-.012-.207-.02a4.47 4.47 0 0 1-.309-.059.293.293 0 0 0-.062-.015c-.078-.023-.16-.046-.238-.074-.012-.004-.028-.008-.04-.015a2.866 2.866 0 0 1-.253-.102c-.008-.004-.012-.008-.016-.008a3.144 3.144 0 0 1-.765-.508l-.09-.078c-.016-.015-.032-.027-.047-.043a3.206 3.206 0 0 1 0-4.531zM3.7 23.047a.374.374 0 0 1-.566.043l-2.095-2.094a.374.374 0 0 1 .035-.563l.637-.488c.539-.414 1.117-.77 1.559-1.03.359-.212.683-.442.972-.685.145-.125.278-.25.406-.378.012-.012.02-.028.032-.036.113-.12.222-.246.324-.37.016-.02.027-.044.043-.063.094-.121.18-.242.262-.371.02-.028.035-.063.05-.094.07-.121.141-.238.204-.363l.046-.117c.055-.122.11-.243.157-.368.015-.043.027-.09.039-.133.043-.12.082-.246.113-.374.004-.004.004-.008.004-.008v-.004c.2-.813.098-1.688-.297-2.531-.043-.102-.078-.2-.121-.297a7.08 7.08 0 0 1-.55-2.32l8.491 8.492h-.004a7.052 7.052 0 0 1-.57-.06c-.012 0-.027-.003-.043-.003a8.746 8.746 0 0 1-.605-.121 6.52 6.52 0 0 1-.52-.152l-.078-.024a7.225 7.225 0 0 1-.586-.226 4.598 4.598 0 0 0-.855-.27c-.04-.008-.075-.02-.114-.023A.981.981 0 0 0 9.965 18c-.074-.012-.145-.023-.215-.027-.012-.004-.027-.004-.04-.004-.093-.008-.187-.012-.276-.016-.004 0-.008.004-.008.004a2.6 2.6 0 0 0-.305.008l-.086.012c-.074.007-.148.015-.223.03a1.854 1.854 0 0 0-.246.055c-.02.004-.035.004-.054.012h-.004a5.772 5.772 0 0 0-.461.149l-.035.011c-.149.059-.29.121-.43.192-.012.008-.027.012-.039.02-.133.066-.258.144-.383.222-.02.012-.039.02-.058.031-.13.086-.254.18-.375.278-.012.011-.028.02-.04.027-.53.441-1 1.016-1.414 1.742a14.409 14.409 0 0 1-.918 1.414zm10.847-4.18c0-.004-.004-.008-.008-.012L4.996 9.312s-.004 0-.004-.003c.063-.543.188-1.09.387-1.633.191.125.39.234.594.324a2.76 2.76 0 0 0 .297.117.899.899 0 0 1 .074.028c.082.023.164.05.25.07.035.012.066.02.101.027.078.016.157.035.239.047.039.008.082.012.125.02.074.007.148.02.222.027.047.004.098.004.145.004.058.004.117.008.18.008h.03c.063 0 .126-.004.188-.008.098-.008.196-.016.297-.027.07-.008.145-.02.219-.032l.152-.035c.067-.016.137-.031.203-.05.051-.012.102-.032.153-.048.066-.02.132-.043.195-.066l.148-.062c.067-.028.13-.06.196-.09.047-.024.093-.047.14-.075.063-.035.13-.074.192-.113.043-.027.086-.05.125-.078a3.5 3.5 0 0 0 .207-.152c.031-.024.066-.047.097-.074a3.64 3.64 0 0 0 .29-.262c.093-.09.18-.192.261-.29.028-.034.055-.074.082-.109a6.57 6.57 0 0 0 .149-.199c.03-.047.054-.094.082-.137.039-.062.078-.125.113-.191.027-.05.05-.102.074-.152a2.09 2.09 0 0 0 .09-.188c.024-.05.043-.105.063-.16l.066-.188.047-.171c.02-.063.031-.125.047-.184.011-.062.023-.121.035-.18.012-.062.02-.125.027-.183.008-.063.012-.125.02-.188.004-.058.004-.117.008-.176 0-.066.003-.128.003-.195 0-.055-.003-.11-.007-.168a3.418 3.418 0 0 0-.016-.199c-.004-.05-.016-.102-.02-.156l-.035-.211c-.007-.04-.02-.074-.027-.11a3.82 3.82 0 0 0-.281-.808c-.016-.035-.031-.074-.051-.113-.035-.067-.074-.13-.113-.196-.028-.043-.051-.09-.078-.133l-.122-.175c-.023-.036-.046-.07-.074-.102 3.621-1.8 7.735-1.406 10.153 1.012 3.253 3.25 2.742 9.258-1.118 13.117-1.68 1.684-3.46 2.629-5.27 2.824zm0 0"/>
    <path d="M6.004 4.348c0-.883.719-1.602 1.601-1.602a.401.401 0 0 0 0-.8 2.4 2.4 0 0 0-2.402 2.402.401.401 0 0 0 .8 0zm0 0"/>
</svg>
