<svg xmlns="http://www.w3.org/2000/svg" width="32" height="32" viewBox="0 0 24 24">
    <path d="M22.398 8.8c0-4.85-3.496-8.8-7.796-8.8-1.223 0-2.38.32-3.407.887A6.99 6.99 0 0 0 7.801 0C3.5 0 0 3.95 0 8.8c0 3.99 2.367 7.368 5.602 8.442v5.278c0 .816.664 1.48 1.48 1.48H8.52c.816 0 1.48-.664 1.48-1.48v-5.282a6.986 6.986 0 0 0 1.195-.523c.383.21.79.387 1.203.527v5.278c0 .816.668 1.48 1.485 1.48h1.437c.817 0 1.48-.664 1.48-1.48v-5.278c3.231-1.074 5.598-4.453 5.598-8.441zm-6.113 7.755c-.223.062-.437.11-.656.148-.066.012-.137.027-.203.035-.086.012-.168.02-.254.028a5.62 5.62 0 0 1-.516.03h-.11c-.175 0-.347-.015-.519-.03-.082-.008-.168-.016-.25-.028-.07-.008-.136-.023-.207-.035a6.351 6.351 0 0 1-2.473-.988c-.085-.059-.171-.117-.253-.176a4.852 4.852 0 0 1-.227-.168 8.38 8.38 0 0 1-.449-.387 8.16 8.16 0 0 1-.473-.484c-.027-.031-.05-.063-.078-.09a.008.008 0 0 0-.008-.008h9.985c-.895 1.036-2.035 1.793-3.309 2.153zM21.602 8.8c0 1.8-.532 3.46-1.415 4.8H9.012c-.07-.109-.145-.21-.207-.324-.008-.007-.012-.015-.016-.023a6.966 6.966 0 0 1-.336-.633c-.004-.008-.008-.012-.008-.016a9.818 9.818 0 0 1-.293-.687.12.12 0 0 0-.007-.031 8.182 8.182 0 0 1-.207-.64l-.036-.122c-.058-.23-.113-.465-.156-.703-.004-.02-.008-.035-.008-.055a8.845 8.845 0 0 1-.09-.656c-.003-.059-.011-.121-.015-.184a8.885 8.885 0 0 1-.031-.726c0-.246.011-.489.03-.73.005-.06.013-.122.016-.184a9.03 9.03 0 0 1 .09-.653 10.206 10.206 0 0 1 .164-.758 8.85 8.85 0 0 1 .242-.766.074.074 0 0 0 .008-.03c.09-.235.184-.461.293-.684a7.6 7.6 0 0 1 .344-.652c.004-.008.008-.016.016-.024.238-.406.511-.78.812-1.129.024-.03.051-.058.078-.09a8.16 8.16 0 0 1 .403-.417l.07-.07a7.032 7.032 0 0 1 .93-.727A6.284 6.284 0 0 1 14.602.8c3.859 0 7 3.59 7 8zM7.8.8a6.14 6.14 0 0 1 2.61.582c-.009.004-.02.015-.028.023a9.825 9.825 0 0 0-.41.317c-.11.09-.215.183-.32.277a9.118 9.118 0 0 0-.196.191l-.125.125c-.07.075-.145.153-.215.23l-.062.071c-.34.39-.649.813-.918 1.262 0 .004-.004.004-.004.008-.266.441-.492.91-.684 1.402-.015.043-.035.086-.05.133l-.094.273c-.024.067-.047.133-.067.2-.023.082-.05.164-.074.246-.027.101-.055.203-.078.304-.016.067-.035.133-.047.2-.035.144-.062.289-.09.433l-.023.168c-.02.113-.035.227-.051.344-.008.058-.012.117-.02.18-.011.117-.023.234-.03.355l-.013.156a11.398 11.398 0 0 0 0 1.035l.012.16c.008.122.02.239.031.356.008.059.012.121.02.18.016.113.031.226.05.34l.024.168c.028.148.055.293.09.437l.047.195c.023.102.05.203.078.305l.074.246a4.1 4.1 0 0 0 .067.203l.093.274c.016.043.036.09.051.133.176.449.38.878.614 1.285H2.215A8.698 8.698 0 0 1 .8 8.8c0-4.41 3.14-8 7-8zm.719 22.398H7.082a.684.684 0 0 1-.684-.68V20.4H9.2v2.12a.68.68 0 0 1-.68.68zm.68-3.597H6.397v-2.145c.457.09.922.145 1.403.145.23 0 .457-.016.683-.04h.024c.23-.023.465-.058.691-.105zm1.21-3.383c-.207.097-.418.18-.629.254l-.07.02c-.082.027-.164.046-.242.066a6.628 6.628 0 0 1-.7.156c-.054.008-.109.02-.164.027-.09.012-.18.02-.27.028a6.284 6.284 0 0 1-.468.027h-.12a7.57 7.57 0 0 1-.52-.031c-.082-.008-.168-.016-.25-.028-.07-.008-.137-.023-.207-.035a6.79 6.79 0 0 1-.653-.148c-1.277-.36-2.414-1.117-3.308-2.157h5.773c.148.204.309.395.473.582.02.024.043.047.062.07.07.079.145.157.219.235.039.04.078.082.121.121a7.17 7.17 0 0 0 .516.473c.03.023.058.047.09.07.105.086.21.168.32.246.008.008.02.016.027.024zm4.91 6.98h-1.437a.684.684 0 0 1-.684-.68V20.4H16v2.12a.68.68 0 0 1-.68.68zm.68-3.597h-2.8v-2.145c.456.09.921.145 1.402.145.476 0 .945-.055 1.398-.145zm0 0M21.398 18.398a2.602 2.602 0 0 0 0 5.204A2.606 2.606 0 0 0 24 21a2.606 2.606 0 0 0-2.602-2.602zm0 4.403a1.8 1.8 0 0 1 0-3.602c.993 0 1.801.809 1.801 1.801 0 .992-.808 1.8-1.8 1.8zm0 0"/>
</svg>
