<svg xmlns="http://www.w3.org/2000/svg" width="32" height="32" viewBox="0 0 24 24">
    <path d="M15.148 19.281c0-1.761-1.433-3.199-3.199-3.199a3.203 3.203 0 0 0-3.199 3.2 3.2 3.2 0 0 0 3.2 3.198 3.2 3.2 0 0 0 3.198-3.199zm-3.199 2.403a2.402 2.402 0 0 1-2.398-2.403 2.399 2.399 0 0 1 4.797 0 2.402 2.402 0 0 1-2.399 2.403zm0 0"/>
    <path d="M23.813 21.2L13.188 2.753A1.351 1.351 0 0 0 12 2.062c-.496 0-.941.258-1.188.692L.188 21.199c-.25.434-.25.957.003 1.395.25.43.692.687 1.184.687h21.25c.492 0 .934-.258 1.184-.687a1.38 1.38 0 0 0 .003-1.395zm-2.665-1.919a2.402 2.402 0 0 1-2.398 2.403 2.406 2.406 0 0 1-2.402-2.403 2.402 2.402 0 0 1 2.402-2.398 2.399 2.399 0 0 1 2.398 2.398zM11.95 5.285a2.399 2.399 0 1 1 0 4.798 2.399 2.399 0 0 1 0-4.798zm-.445-2.133a.571.571 0 0 1 .992 0l.996 1.73a3.171 3.171 0 0 0-2.945-.07zm-6.356 13.73a2.402 2.402 0 0 1 2.403 2.4 2.406 2.406 0 0 1-2.403 2.402A2.405 2.405 0 0 1 2.75 19.28a2.401 2.401 0 0 1 2.398-2.398zm17.97 5.31c-.052.085-.2.288-.493.288H1.375a.559.559 0 0 1-.492-.289.587.587 0 0 1-.004-.593l1.101-1.91a3.198 3.198 0 0 0 6.372-.407c0-1.761-1.438-3.199-3.204-3.199-.437 0-.855.09-1.234.25l1.648-2.863a1.98 1.98 0 0 0-.011.215c0 1.761 1.433 3.199 3.199 3.199 1.766 0 3.2-1.438 3.2-3.2a3.2 3.2 0 0 0-4.981-2.656l1.793-3.113a3.2 3.2 0 0 0 3.187 2.969 3.198 3.198 0 0 0 3.196-3.13l1.96 3.403a3.164 3.164 0 0 0-1.957-.672 3.203 3.203 0 0 0-3.199 3.2c0 1.761 1.438 3.199 3.2 3.199 1.765 0 3.199-1.438 3.199-3.2 0-.144-.012-.285-.032-.421l1.809 3.136a3.187 3.187 0 0 0-1.375-.316 3.203 3.203 0 0 0-3.2 3.2 3.2 3.2 0 0 0 3.2 3.198 3.2 3.2 0 0 0 3.184-2.937l1.187 2.059a.59.59 0 0 1-.004.59zM6.351 13.683A2.402 2.402 0 0 1 8.75 11.28a2.402 2.402 0 0 1 2.398 2.403 2.399 2.399 0 0 1-4.796 0zm11.199 0a2.402 2.402 0 0 1-2.403 2.398 2.399 2.399 0 0 1-2.398-2.398 2.402 2.402 0 0 1 2.398-2.403 2.406 2.406 0 0 1 2.403 2.403zm0 0M23.047 4.215L19.55.719l-3.5 3.496 3.5 3.496zM19.55 1.848l2.363 2.367-2.363 2.367-2.367-2.367zm0 0"/>
    <path d="M20.586 4.215a1.038 1.038 0 0 1-2.074 0c0-.574.465-1.035 1.035-1.035.574 0 1.039.46 1.039 1.035zm0 0"/>
</svg>
