<svg xmlns="http://www.w3.org/2000/svg" width="32" height="32" viewBox="0 0 24 24">
    <path d="M 23.882812 23.316406 L 19.855469 19.289062 C 20.214844 18.675781 20.136719 17.875 19.613281 17.347656 C 19.371094 17.105469 19.066406 16.960938 18.75 16.90625 C 19.644531 15.628906 20.121094 14.105469 20.101562 12.496094 C 20.070312 10.441406 19.246094 8.5 17.773438 7.027344 C 16.300781 5.554688 14.359375 4.726562 12.304688 4.699219 C 10.699219 4.683594 9.171875 5.15625 7.890625 6.050781 C 7.839844 5.734375 7.695312 5.429688 7.449219 5.1875 C 6.925781 4.660156 6.125 4.585938 5.511719 4.945312 L 0.683594 0.117188 C 0.527344 -0.0390625 0.273438 -0.0390625 0.117188 0.117188 C -0.0390625 0.273438 -0.0390625 0.527344 0.117188 0.683594 L 4.945312 5.511719 C 4.585938 6.125 4.660156 6.925781 5.1875 7.449219 C 5.429688 7.691406 5.734375 7.839844 6.046875 7.890625 C 5.15625 9.167969 4.679688 10.695312 4.699219 12.304688 C 4.726562 14.359375 5.554688 16.300781 7.027344 17.773438 C 8.496094 19.246094 10.441406 20.070312 12.496094 20.101562 C 12.53125 20.101562 12.566406 20.101562 12.601562 20.101562 C 14.171875 20.101562 15.660156 19.625 16.90625 18.753906 C 16.960938 19.066406 17.105469 19.371094 17.347656 19.613281 C 17.660156 19.925781 18.070312 20.082031 18.480469 20.082031 C 18.761719 20.082031 19.039062 20.003906 19.289062 19.855469 L 23.316406 23.882812 C 23.394531 23.960938 23.496094 24 23.601562 24 C 23.703125 24 23.804688 23.960938 23.882812 23.882812 C 24.039062 23.726562 24.039062 23.472656 23.882812 23.316406 Z M 12.195312 5.5 C 12.230469 5.5 12.261719 5.5 12.292969 5.5 C 14.140625 5.523438 15.882812 6.269531 17.207031 7.589844 C 18.53125 8.914062 19.273438 10.660156 19.300781 12.503906 C 19.316406 13.746094 19 14.925781 18.40625 15.957031 C 18.34375 15.5 18.199219 14.992188 17.96875 14.445312 C 17.359375 13.007812 16.238281 11.429688 14.804688 9.996094 C 13.371094 8.5625 11.789062 7.4375 10.355469 6.832031 C 9.804688 6.597656 9.300781 6.457031 8.839844 6.394531 C 9.847656 5.8125 10.992188 5.5 12.195312 5.5 Z M 5.753906 6.886719 C 5.441406 6.574219 5.441406 6.066406 5.753906 5.753906 C 5.910156 5.597656 6.113281 5.519531 6.320312 5.519531 C 6.523438 5.519531 6.726562 5.597656 6.886719 5.753906 C 7.195312 6.066406 7.195312 6.574219 6.886719 6.886719 C 6.574219 7.195312 6.066406 7.195312 5.753906 6.886719 Z M 12.503906 19.300781 C 10.660156 19.273438 8.914062 18.53125 7.59375 17.207031 C 6.269531 15.882812 5.527344 14.140625 5.5 12.292969 C 5.484375 11.054688 5.796875 9.875 6.394531 8.839844 C 6.457031 9.300781 6.601562 9.808594 6.832031 10.355469 C 7.4375 11.792969 8.5625 13.371094 9.996094 14.804688 C 11.429688 16.238281 13.007812 17.363281 14.445312 17.96875 C 14.992188 18.199219 15.496094 18.34375 15.953125 18.40625 C 14.917969 19 13.734375 19.3125 12.503906 19.300781 Z M 17.347656 17.347656 C 16.910156 17.789062 15.96875 17.742188 14.757812 17.230469 C 13.414062 16.664062 11.925781 15.601562 10.5625 14.238281 C 9.199219 12.875 8.136719 11.386719 7.570312 10.042969 C 7.054688 8.832031 7.011719 7.886719 7.449219 7.449219 C 7.652344 7.25 7.957031 7.152344 8.347656 7.152344 C 8.808594 7.152344 9.386719 7.292969 10.042969 7.570312 C 11.386719 8.136719 12.875 9.199219 14.238281 10.5625 C 15.601562 11.925781 16.664062 13.414062 17.230469 14.757812 C 17.742188 15.96875 17.789062 16.910156 17.347656 17.347656 Z M 19.046875 19.046875 C 18.734375 19.359375 18.226562 19.359375 17.914062 19.046875 C 17.605469 18.734375 17.605469 18.226562 17.914062 17.914062 C 18.070312 17.757812 18.277344 17.679688 18.480469 17.679688 C 18.6875 17.679688 18.890625 17.757812 19.046875 17.914062 C 19.359375 18.226562 19.359375 18.734375 19.046875 19.046875 Z M 19.046875 19.046875"/>
</svg>
