<svg xmlns="http://www.w3.org/2000/svg" width="32" height="32" viewBox="0 0 24 24">
    <path d="M 18.703125 11.398438 C 17.820312 9.96875 16.898438 8.980469 16.84375 8.925781 C 14.0625 6.242188 14.382812 3.769531 14.398438 3.667969 C 14.417969 3.550781 14.382812 3.433594 14.308594 3.34375 C 14.230469 3.257812 14.121094 3.203125 14.003906 3.203125 L 13.601562 3.203125 L 13.601562 1.546875 C 13.601562 0.691406 12.882812 0 12 0 C 11.117188 0 10.398438 0.691406 10.398438 1.546875 L 10.398438 3.203125 L 9.996094 3.203125 C 9.878906 3.203125 9.769531 3.257812 9.691406 3.34375 C 9.617188 3.433594 9.582031 3.550781 9.601562 3.667969 C 9.605469 3.691406 9.957031 6.222656 7.140625 8.941406 C 7.101562 8.980469 6.179688 9.96875 5.296875 11.398438 C 3.425781 14.421875 3.558594 18.140625 5.640625 20.871094 C 6.757812 22.34375 8.246094 23.316406 10.058594 23.765625 C 10.695312 23.921875 11.347656 24 12 24 C 12.652344 24 13.304688 23.921875 13.941406 23.765625 C 15.753906 23.316406 17.242188 22.34375 18.359375 20.871094 C 20.441406 18.140625 20.574219 14.421875 18.703125 11.398438 Z M 13.722656 5.207031 C 13.75 5.335938 13.785156 5.46875 13.824219 5.609375 L 10.175781 5.609375 C 10.214844 5.46875 10.25 5.335938 10.277344 5.207031 Z M 10.402344 4.40625 C 10.414062 4.253906 10.417969 4.121094 10.417969 4.007812 L 13.582031 4.007812 C 13.582031 4.121094 13.585938 4.253906 13.597656 4.40625 Z M 11.199219 1.546875 C 11.199219 1.136719 11.558594 0.800781 12 0.800781 C 12.441406 0.800781 12.800781 1.136719 12.800781 1.546875 L 12.800781 3.203125 L 11.199219 3.203125 Z M 17.722656 20.386719 C 16.800781 21.601562 15.59375 22.429688 14.144531 22.871094 C 15.152344 22.019531 16.007812 20.28125 16.007812 16.824219 C 16.007812 16.605469 15.828125 16.425781 15.605469 16.425781 C 15.382812 16.425781 15.203125 16.605469 15.203125 16.824219 C 15.203125 19.421875 14.703125 22.484375 12.402344 22.804688 L 12.402344 11.21875 C 12.402344 10.996094 12.222656 10.816406 12 10.816406 C 11.777344 10.816406 11.597656 10.996094 11.597656 11.21875 L 11.597656 22.800781 C 9.296875 22.484375 8.796875 19.421875 8.796875 16.824219 C 8.796875 16.605469 8.617188 16.425781 8.394531 16.425781 C 8.171875 16.425781 7.992188 16.605469 7.992188 16.824219 C 7.992188 20.28125 8.847656 22.019531 9.855469 22.871094 C 8.40625 22.429688 7.199219 21.601562 6.277344 20.386719 C 4.398438 17.921875 4.28125 14.558594 5.976562 11.820312 C 6.816406 10.464844 7.710938 9.5 7.710938 9.5 C 8.84375 8.410156 9.503906 7.335938 9.894531 6.410156 L 14.105469 6.410156 C 14.492188 7.335938 15.148438 8.402344 16.273438 9.488281 C 16.28125 9.496094 17.179688 10.457031 18.023438 11.820312 C 19.71875 14.558594 19.601562 17.921875 17.722656 20.386719 Z M 17.722656 20.386719"/>
    <path d="M10.398438 7.613281L13.601562 7.613281C13.824219 7.613281 14.003906 7.433594 14.003906 7.210938 14.003906 6.988281 13.824219 6.808594 13.601562 6.808594L10.398438 6.808594C10.175781 6.808594 9.996094 6.988281 9.996094 7.210938 9.996094 7.433594 10.175781 7.613281 10.398438 7.613281zM14.402344 8.011719L9.597656 8.011719C9.375 8.011719 9.195312 8.191406 9.195312 8.414062 9.195312 8.632812 9.375 8.8125 9.597656 8.8125L14.402344 8.8125C14.625 8.8125 14.804688 8.632812 14.804688 8.414062 14.804688 8.191406 14.625 8.011719 14.402344 8.011719zM14.402344 8.011719"/>
</svg>
