<svg xmlns="http://www.w3.org/2000/svg" width="32" height="32" viewBox="0 0 24 24">
    <path d="M 14.75 13.40625 C 15.613281 13.40625 16.46875 13.046875 17.074219 12.347656 L 23.25 5.230469 C 23.789062 4.613281 24.050781 3.820312 23.992188 3 C 23.933594 2.179688 23.5625 1.429688 22.945312 0.894531 C 21.664062 -0.214844 19.71875 -0.078125 18.609375 1.203125 L 12.433594 8.320312 C 12.257812 8.519531 12.117188 8.742188 12 8.976562 C 11.886719 8.742188 11.746094 8.523438 11.566406 8.320312 L 5.390625 1.199219 C 4.28125 -0.078125 2.335938 -0.214844 1.054688 0.894531 C 0.4375 1.429688 0.0664062 2.175781 0.0078125 3 C -0.0507812 3.820312 0.214844 4.609375 0.75 5.230469 L 6.925781 12.347656 C 7.53125 13.046875 8.386719 13.40625 9.25 13.40625 C 9.480469 13.40625 9.714844 13.375 9.941406 13.324219 L 10.101562 13.507812 L 5.480469 18.832031 L 5.171875 18.5625 C 4.488281 17.972656 3.449219 18.042969 2.859375 18.726562 C 2.265625 19.410156 2.339844 20.445312 3.019531 21.039062 L 5.808594 23.457031 C 6.117188 23.726562 6.5 23.855469 6.878906 23.855469 C 7.339844 23.855469 7.796875 23.664062 8.117188 23.292969 C 8.710938 22.609375 8.636719 21.574219 7.957031 20.980469 L 7.644531 20.710938 L 12 15.695312 L 16.355469 20.710938 L 16.042969 20.980469 C 15.714844 21.265625 15.515625 21.664062 15.484375 22.101562 C 15.453125 22.539062 15.59375 22.964844 15.882812 23.292969 C 16.167969 23.621094 16.566406 23.820312 17.003906 23.851562 C 17.042969 23.855469 17.082031 23.855469 17.121094 23.855469 C 17.515625 23.855469 17.894531 23.714844 18.191406 23.457031 L 20.976562 21.039062 C 21.660156 20.445312 21.734375 19.410156 21.140625 18.726562 C 20.550781 18.046875 19.511719 17.972656 18.828125 18.5625 L 18.519531 18.832031 L 13.898438 13.507812 L 14.058594 13.324219 C 14.285156 13.375 14.519531 13.40625 14.75 13.40625 Z M 19.226562 1.738281 C 19.671875 1.226562 20.300781 0.960938 20.933594 0.960938 C 21.453125 0.960938 21.980469 1.144531 22.40625 1.511719 C 22.859375 1.90625 23.132812 2.453125 23.175781 3.054688 C 23.21875 3.660156 23.023438 4.238281 22.632812 4.691406 L 17.648438 10.433594 L 14.28125 7.4375 Z M 1.367188 4.691406 C 0.976562 4.238281 0.78125 3.660156 0.824219 3.054688 C 0.867188 2.453125 1.140625 1.90625 1.59375 1.511719 C 2.019531 1.144531 2.542969 0.960938 3.070312 0.960938 C 3.699219 0.960938 4.328125 1.226562 4.773438 1.738281 L 9.644531 7.351562 L 6.273438 10.34375 Z M 9.957031 12.46875 L 9.929688 12.480469 C 9.097656 12.742188 8.152344 12.507812 7.542969 11.808594 L 6.8125 10.964844 L 10.179688 7.96875 L 10.949219 8.855469 C 11.554688 9.554688 11.652344 10.523438 11.277344 11.3125 L 11.261719 11.335938 C 11.199219 11.46875 11.121094 11.59375 11.03125 11.710938 C 10.96875 11.789062 10.894531 11.859375 10.824219 11.929688 C 10.789062 11.964844 10.761719 12.003906 10.722656 12.035156 C 10.679688 12.074219 10.632812 12.097656 10.585938 12.132812 C 10.511719 12.1875 10.4375 12.246094 10.359375 12.292969 C 10.230469 12.363281 10.097656 12.425781 9.957031 12.46875 Z M 7.5 22.753906 C 7.203125 23.097656 6.6875 23.132812 6.34375 22.835938 L 3.558594 20.421875 C 3.21875 20.125 3.179688 19.605469 3.476562 19.265625 C 3.773438 18.921875 4.292969 18.886719 4.632812 19.183594 L 4.941406 19.449219 L 7.109375 21.332031 L 7.417969 21.597656 C 7.757812 21.894531 7.796875 22.414062 7.5 22.753906 Z M 7.027344 20.175781 L 6.097656 19.367188 L 10.644531 14.132812 L 11.457031 15.070312 Z M 19.367188 19.183594 C 19.523438 19.046875 19.714844 18.980469 19.902344 18.980469 C 20.132812 18.980469 20.363281 19.078125 20.523438 19.265625 C 20.820312 19.605469 20.78125 20.125 20.441406 20.421875 L 17.65625 22.835938 C 17.316406 23.132812 16.796875 23.097656 16.5 22.753906 C 16.359375 22.589844 16.289062 22.378906 16.304688 22.160156 C 16.320312 21.941406 16.417969 21.742188 16.582031 21.597656 L 16.890625 21.332031 L 18.070312 20.308594 Z M 17.902344 19.367188 L 16.972656 20.175781 L 10.753906 13.011719 C 10.761719 13.007812 10.769531 13.003906 10.773438 13 C 10.832031 12.964844 10.890625 12.925781 10.945312 12.890625 C 10.972656 12.871094 11 12.855469 11.027344 12.835938 C 11.089844 12.792969 11.152344 12.742188 11.210938 12.691406 C 11.226562 12.679688 11.246094 12.667969 11.261719 12.65625 C 11.339844 12.585938 11.414062 12.515625 11.484375 12.4375 C 11.554688 12.363281 11.621094 12.285156 11.683594 12.203125 L 12 12.570312 L 12.8125 13.507812 Z M 13.640625 12.292969 C 13.550781 12.242188 13.464844 12.175781 13.382812 12.109375 C 13.347656 12.082031 13.308594 12.0625 13.277344 12.035156 C 13.050781 11.839844 12.871094 11.605469 12.738281 11.335938 L 12.734375 11.335938 C 12.609375 11.074219 12.53125 10.789062 12.507812 10.492188 C 12.464844 9.890625 12.660156 9.308594 13.050781 8.855469 L 13.746094 8.058594 L 17.113281 11.054688 L 16.457031 11.808594 C 15.851562 12.507812 14.90625 12.742188 14.074219 12.480469 L 14.046875 12.472656 C 13.902344 12.425781 13.769531 12.363281 13.640625 12.292969 Z M 13.640625 12.292969"/>
</svg>
