<svg xmlns="http://www.w3.org/2000/svg" width="32" height="32" viewBox="0 0 24 24">
    <path d="M23.992 2.277A2.462 2.462 0 0 0 21.543 0h-2.75C8.43 0 0 8.43 0 18.793v2.75c0 .91.5 1.707 1.242 2.133v.02l.25.105h.004c.149.066.305.117.469.148.012.004.027.004.039.008.066.012.137.023.203.031.086.008.168.012.25.012h2.75C15.57 24 24 15.57 24 5.207V2.289zM.828 18.793C.828 8.887 8.887.828 18.793.828h2.75c.691 0 1.281.434 1.516 1.043a1.642 1.642 0 0 0-1.313 1.606v.304c0 9.906-8.058 17.965-17.965 17.965h-.906c-.672 0-1.25.406-1.5 1.004a1.618 1.618 0 0 1-.547-1.207zM23.172 5.207c0 9.906-8.059 17.965-17.965 17.965h-2.75c-.113 0-.227-.012-.34-.035-.004-.004-.004-.004-.008-.004a.808.808 0 0 1 .766-.559h.906c10.364 0 18.793-8.43 18.793-18.793v-.304a.81.81 0 0 1 .598-.782zm0 0"/>
    <path d="M2.766 20.453a.414.414 0 0 0 .523-.262 46.346 46.346 0 0 1 1.664-4.296.412.412 0 0 0-.207-.547.412.412 0 0 0-.547.207 46.5 46.5 0 0 0-1.695 4.375.412.412 0 0 0 .262.523zm0 0M6.098 12.766a.414.414 0 0 0 .57-.137C9.992 7.19 14.402 4.813 19.996 2.91a.413.413 0 0 0-.266-.781C13.965 4.086 9.418 6.547 5.96 12.199a.412.412 0 0 0 .138.567zm0 0"/>
</svg>
