<svg xmlns="http://www.w3.org/2000/svg" width="32" height="32" viewBox="0 0 24 24">
    <path d="M23.93 12.219c0-.012 0-.024-.004-.035a6.68 6.68 0 0 0-.153-.692 2.387 2.387 0 0 0-.117-.312l-1-2.657a1.044 1.044 0 0 0-.843-.671 1.05 1.05 0 0 0-.993.421c-.484.66-1.246 1.067-2.027 1.09h-1.64l-1.532-1.71-.066-.063A1.585 1.585 0 0 0 14 7.426c-.457.195-.941.484-1.477.824l-.324.207a3.02 3.02 0 0 0-.144.094c-.172.11-.352.226-.54.344-.027.015-.062.035-.09.054-.148.094-.296.188-.452.281-.082.051-.168.098-.25.149-.114.066-.223.133-.34.195a22.381 22.381 0 0 1-.63.348l-.35.176c-.11.054-.22.109-.333.16a7.989 7.989 0 0 1-.367.168c-.117.054-.242.105-.367.156-.121.047-.246.098-.371.145a6.693 6.693 0 0 1-.422.148c-.121.043-.242.086-.367.125-.25.074-.5.148-.762.215-.426.105-.867.215-1.281.215h-3.18c-.832 0-1.527.449-1.812 1.168-.344.855-.04 1.84.722 2.347l.051.035a10.05 10.05 0 0 0 6.527 1.625c1.68-.156 4.063-.414 5.872-.734a7.713 7.713 0 0 1 3.124.078l2.145.508.098.031c.468.149.953.219 1.43.219 1.097 0 2.156-.379 2.874-1.078.848-.82 1.172-2.012.946-3.41zM9.074 11.168c.086-.035.168-.074.25-.113.2-.09.39-.184.578-.278.07-.035.137-.07.203-.105.149-.078.297-.156.442-.238.066-.036.137-.075.203-.114.184-.105.363-.207.535-.312.043-.024.082-.051.121-.074l.469-.29c.035-.023.07-.042.105-.066.153-.098.301-.191.446-.285l1.113 1.047c.316.297.297.68.18.933a.801.801 0 0 1-.836.461l-3.965-.496c.055-.023.105-.047.156-.07zm-7.754 3.09a1.116 1.116 0 0 1-.488-.926H.84c.09 0 .18-.027.254-.086a.416.416 0 0 0 .07-.582l-.047-.07c.203-.211.492-.336.836-.336h3.18c.515 0 1.027-.13 1.48-.238.196-.051.383-.11.57-.165l5.598.7c.07.008.14.011.215.011a1.61 1.61 0 0 0 1.469-.937 1.61 1.61 0 0 0-.36-1.89l-.957-.903c.43-.27.825-.5 1.18-.652a.754.754 0 0 1 .711.058l1.746 1.945h2.02a3.476 3.476 0 0 0 2.683-1.425.226.226 0 0 1 .215-.094c.04.008.137.031.18.148l1.008 2.672c.03.075.066.149.086.23.054.192.097.376.128.555l-.007.043a.412.412 0 0 0 .058.313c.02.187.028.367.024.539a.415.415 0 0 0-.48.16 1.818 1.818 0 0 1-.212.274.413.413 0 0 0 .305.691c.05 0 .102-.012.148-.031-.128.293-.3.554-.53.773-.81.785-2.24 1.059-3.477.664l-2.305-.554a8.43 8.43 0 0 0-1.93-.223c-.504 0-1.015.043-1.527.137-1.781.316-4.14.566-5.805.722a9.193 9.193 0 0 1-5.996-1.492zm0 0"/>
    <path d="M8.602 14.152c-.137.02-.274.036-.407.051a.414.414 0 1 0 .043.824c.016 0 .032 0 .047-.004.14-.015.277-.03.418-.05a.413.413 0 0 0-.101-.82zm0 0M6.992 14.293c-.133.004-.265.008-.406.008a.412.412 0 0 0-.41.418c0 .226.183.41.414.41.144 0 .285-.004.422-.008a.414.414 0 1 0-.02-.828zm0 0M5.379 14.258a13.74 13.74 0 0 1-.399-.04.414.414 0 1 0-.09.824c.145.017.286.028.426.04h.032a.413.413 0 0 0 .031-.824zm0 0M3.8 14.031c-.128-.027-.257-.062-.386-.094a.41.41 0 0 0-.504.293.41.41 0 0 0 .293.504c.137.04.277.075.418.106a.417.417 0 0 0 .496-.316.415.415 0 0 0-.316-.493zm0 0M10.227 13.926l-.407.062a.414.414 0 0 0-.351.469.415.415 0 0 0 .41.352c.02 0 .039 0 .059-.004l.414-.059a.418.418 0 0 0 .347-.473.418.418 0 0 0-.472-.347zm0 0M2.324 13.54a3.8 3.8 0 0 1-.332-.177.414.414 0 1 0-.426.711c.13.074.262.145.399.211a.41.41 0 0 0 .55-.191.416.416 0 0 0-.19-.555zm0 0M21.629 14.148c-.113.036-.23.067-.352.09a.42.42 0 0 0-.324.489.417.417 0 0 0 .488.324c.157-.031.309-.07.45-.117a.418.418 0 0 0 .261-.528.412.412 0 0 0-.523-.258zm0 0M18.563 14.098c-.137-.024-.27-.051-.403-.078a.414.414 0 1 0-.164.812c.137.027.274.055.414.078a.41.41 0 0 0 .48-.328.414.414 0 0 0-.328-.484zm0 0M11.879 13.695c-.14.02-.277.04-.418.055a.414.414 0 0 0 .059.824c.015 0 .035 0 .054-.004.133-.02.27-.035.406-.05a.416.416 0 0 0-.101-.825zm0 0M20.145 14.305a6.561 6.561 0 0 1-.391-.028.409.409 0 0 0-.453.371.415.415 0 0 0 .37.454c.145.011.29.023.434.03h.02a.418.418 0 0 0 .414-.394.417.417 0 0 0-.394-.433zm0 0M16.945 13.766c-.14-.028-.277-.055-.41-.079a.414.414 0 1 0-.152.813c.129.023.262.05.398.078a.41.41 0 0 0 .488-.324.42.42 0 0 0-.324-.488zm0 0M15.254 13.512l-.125-.008c-.102-.004-.207-.004-.309-.008-.238-.02-.418.184-.418.41-.004.23.18.414.407.418.097.004.195.004.293.008l.101.004h.024a.411.411 0 1 0 .027-.824zm0 0M13.547 13.531c-.14.012-.281.02-.418.031a.416.416 0 1 0 .031.828c.012 0 .024 0 .035-.003.137-.012.27-.02.407-.028a.418.418 0 0 0 .386-.441.416.416 0 0 0-.441-.387zm0 0"/>
</svg>
