<svg xmlns="http://www.w3.org/2000/svg" width="32" height="32" viewBox="0 0 24 24">
    <path d="M 12 0 C 5.382812 0 0 5.382812 0 12 C 0 18.617188 5.382812 24 12 24 C 18.617188 24 24 18.617188 24 12 C 24 5.382812 18.617188 0 12 0 Z M 12 23.199219 C 5.824219 23.199219 0.800781 18.175781 0.800781 12 C 0.800781 5.824219 5.824219 0.800781 12 0.800781 C 18.175781 0.800781 23.199219 5.824219 23.199219 12 C 23.199219 18.175781 18.175781 23.199219 12 23.199219 Z M 12 23.199219"/>
    <path d="M 22.003906 12.015625 L 21.992188 11.644531 C 21.980469 11.375 21.960938 11.109375 21.929688 10.84375 C 21.929688 10.839844 21.929688 10.835938 21.929688 10.832031 C 21.871094 10.316406 21.769531 9.816406 21.636719 9.328125 C 21.625 9.296875 21.617188 9.265625 21.609375 9.234375 C 21.539062 8.996094 21.460938 8.757812 21.375 8.527344 L 21.324219 8.378906 L 21.316406 8.378906 C 19.863281 4.648438 16.238281 2 12 2 C 7.738281 2 4.09375 4.679688 2.65625 8.441406 L 2.652344 8.441406 L 2.617188 8.542969 C 2.609375 8.558594 2.605469 8.574219 2.597656 8.59375 C 2.515625 8.816406 2.445312 9.042969 2.378906 9.273438 C 2.371094 9.304688 2.363281 9.335938 2.351562 9.367188 C 2.289062 9.601562 2.234375 9.835938 2.1875 10.074219 C 2.1875 10.082031 2.1875 10.089844 2.183594 10.09375 C 2.136719 10.339844 2.097656 10.585938 2.070312 10.832031 C 2.070312 10.839844 2.070312 10.847656 2.066406 10.851562 C 2.039062 11.105469 2.019531 11.359375 2.007812 11.621094 L 1.996094 12.019531 L 2 12.019531 C 2.007812 16.484375 4.957031 20.273438 9.011719 21.542969 L 9.011719 21.546875 L 9.359375 21.644531 C 9.363281 21.644531 9.363281 21.644531 9.363281 21.644531 C 9.777344 21.757812 10.199219 21.84375 10.628906 21.902344 C 10.664062 21.90625 10.699219 21.910156 10.734375 21.917969 C 10.902344 21.9375 11.070312 21.953125 11.242188 21.96875 C 11.289062 21.972656 11.335938 21.976562 11.386719 21.980469 C 11.589844 21.992188 11.792969 22 12 22 C 12.210938 22 12.421875 21.992188 12.632812 21.976562 C 12.679688 21.976562 12.730469 21.972656 12.777344 21.96875 C 12.960938 21.953125 13.144531 21.933594 13.328125 21.910156 C 13.351562 21.90625 13.378906 21.902344 13.402344 21.898438 C 13.855469 21.835938 14.300781 21.742188 14.730469 21.617188 C 14.734375 21.617188 14.734375 21.617188 14.734375 21.617188 L 15.078125 21.519531 L 15.078125 21.511719 C 19.085938 20.210938 21.992188 16.449219 22 12.015625 Z M 13.628906 21.054688 C 13.472656 21.082031 13.316406 21.105469 13.160156 21.125 C 13.136719 21.125 13.113281 21.128906 13.089844 21.132812 C 12.9375 21.152344 12.785156 21.164062 12.632812 21.175781 C 12.609375 21.175781 12.585938 21.179688 12.566406 21.179688 C 12.035156 21.214844 11.503906 21.199219 10.976562 21.140625 C 10.976562 21.140625 10.972656 21.140625 10.972656 21.140625 C 10.800781 21.121094 10.628906 21.097656 10.460938 21.070312 C 10.445312 21.066406 10.433594 21.0625 10.417969 21.0625 C 10.257812 21.03125 10.097656 21 9.933594 20.964844 C 9.929688 20.960938 9.921875 20.960938 9.917969 20.957031 C 10.015625 20.230469 10.085938 19.15625 9.914062 18 L 14.183594 18 C 14.015625 19.148438 14.082031 20.214844 14.179688 20.9375 C 14.007812 20.976562 13.839844 21.011719 13.667969 21.046875 C 13.65625 21.046875 13.640625 21.050781 13.628906 21.054688 Z M 14.34375 17.199219 L 9.753906 17.199219 C 9.503906 16.199219 9.046875 15.183594 8.242188 14.3125 C 7.402344 13.402344 6.570312 12.753906 5.785156 12.292969 L 9.324219 7.695312 C 10.140625 7.636719 11.046875 7.597656 12.046875 7.597656 C 13.007812 7.597656 13.875 7.632812 14.667969 7.6875 L 18.257812 12.351562 C 17.488281 12.800781 16.667969 13.429688 15.855469 14.3125 C 15.050781 15.179688 14.59375 16.199219 14.34375 17.199219 Z M 2.832031 11.25 C 2.847656 11.066406 2.867188 10.878906 2.894531 10.699219 C 2.894531 10.695312 2.894531 10.695312 2.894531 10.695312 C 2.945312 10.324219 3.023438 9.960938 3.121094 9.601562 C 3.128906 9.570312 3.136719 9.535156 3.148438 9.5 C 3.1875 9.363281 3.230469 9.222656 3.277344 9.085938 C 3.285156 9.0625 3.292969 9.039062 3.300781 9.015625 C 4.132812 8.621094 5.679688 8.082031 8.238281 7.796875 L 5.070312 11.914062 C 4.238281 11.527344 3.476562 11.34375 2.832031 11.269531 C 2.832031 11.265625 2.832031 11.257812 2.832031 11.25 Z M 18.976562 11.972656 L 15.75 7.78125 C 18.152344 8.035156 19.710938 8.519531 20.683594 8.960938 C 20.6875 8.980469 20.695312 8.996094 20.699219 9.015625 C 20.753906 9.167969 20.800781 9.324219 20.84375 9.476562 C 20.855469 9.507812 20.863281 9.539062 20.871094 9.566406 C 21.023438 10.125 21.125 10.699219 21.167969 11.28125 C 21.167969 11.285156 21.171875 11.289062 21.171875 11.292969 C 20.589844 11.378906 19.828125 11.570312 18.976562 11.972656 Z M 12 2.800781 C 15.609375 2.800781 18.738281 4.890625 20.242188 7.921875 C 18.652344 7.347656 16.078125 6.796875 12.050781 6.796875 C 7.929688 6.796875 5.328125 7.367188 3.734375 7.964844 C 5.230469 4.910156 8.375 2.800781 12 2.800781 Z M 2.800781 12.074219 C 4.0625 12.230469 5.816406 12.863281 7.65625 14.855469 C 9.359375 16.695312 9.3125 19.332031 9.136719 20.742188 C 5.484375 19.542969 2.835938 16.117188 2.800781 12.074219 Z M 14.957031 20.710938 C 14.785156 19.304688 14.75 16.683594 16.441406 14.855469 C 18.257812 12.890625 20.074219 12.28125 21.199219 12.101562 C 21.15625 16.09375 18.554688 19.484375 14.957031 20.710938 Z M 14.957031 20.710938"/>
</svg>
