<svg xmlns="http://www.w3.org/2000/svg" width="32" height="32" viewBox="0 0 24 24">
    <path d="M21.465 21.602l-2.98-12.055c-.094-.461-.36-.86-.755-1.117a1.733 1.733 0 0 0-1.32-.258l-.234.047-1.102-2.938c.242-.492.383-1.039.383-1.62 0-2.02-1.64-3.661-3.66-3.661a3.663 3.663 0 0 0-3.281 5.281L7.434 8.164a1.754 1.754 0 0 0-1.266.266c-.39.258-.66.656-.75 1.101L2.531 21.617c-.094.461-.004.934.258 1.324.258.391.656.66 1.117.754l1.332.27a1.758 1.758 0 0 0 2.074-1.363L10.2 10.52A1.76 1.76 0 0 0 8.824 8.44l-.578-.117.832-2.219.035.036c.067.07.133.14.207.207.02.015.035.035.059.05.074.07.156.137.238.196l.047.035c.09.066.184.129.281.184.012.007.02.011.028.019.105.059.214.113.324.164a3.527 3.527 0 0 0 .727.242h.007c.114.028.23.047.352.059.008 0 .02.004.027.004.13.015.258.02.387.02.133 0 .258-.005.387-.02.007 0 .02-.004.027-.004.121-.012.238-.031.355-.059h.004A3.45 3.45 0 0 0 13.29 7c.003 0 .007-.004.007-.004.113-.05.219-.105.324-.164.008-.008.02-.012.027-.02.098-.054.192-.117.282-.183.015-.012.03-.024.047-.035.082-.063.164-.125.242-.196.02-.015.039-.035.058-.05.07-.067.141-.137.207-.207.008-.012.024-.024.032-.036l.855 2.278-.293.058a1.763 1.763 0 0 0-1.371 2.094l2.98 12.055c.094.46.36.855.754 1.117a1.753 1.753 0 0 0 1.32.258l1.333-.27c.46-.093.86-.363 1.12-.754.259-.39.349-.863.25-1.34zM5.199 13.96l3.117.934-.406 1.703-3.098-1.032zm1.317 8.465a.945.945 0 0 1-1.118.742l-1.332-.27a.952.952 0 0 1-.742-1.105l1.301-5.434 3.094 1.036zm2.89-12.082l-.898 3.758-3.121-.934.828-3.461a.932.932 0 0 1 .402-.602.966.966 0 0 1 .715-.136l1.328.27a.947.947 0 0 1 .746 1.105zm2.39-9.531a2.85 2.85 0 0 1 2.509 4.195l-.024.043c-.011.015-.02.031-.031.05a4.316 4.316 0 0 1-.188.278l-.023.031a2.819 2.819 0 0 1-.816.711c-.004.004-.008.004-.008.004a2.855 2.855 0 0 1-.711.293c-.094.023-.188.039-.281.055-.028.004-.055.011-.078.011a2.599 2.599 0 0 1-.692 0l-.082-.011c-.094-.016-.187-.032-.277-.055a2.855 2.855 0 0 1-.715-.293s-.004 0-.004-.004a2.059 2.059 0 0 1-.29-.191c-.007-.004-.015-.012-.023-.016a2.951 2.951 0 0 1-.507-.504 4.316 4.316 0 0 1-.21-.309 2.867 2.867 0 0 1-.396-1.44A2.85 2.85 0 0 1 11.797.811zm7.337 14.738l-3.094 1.031-.422-1.7 3.117-.937zm-3.895-6.313l1.332-.27a.953.953 0 0 1 .71.137.95.95 0 0 1 .411.622l.848 3.43-3.117.937-.922-3.739a.947.947 0 0 1 .738-1.117zm5.297 13.254a.952.952 0 0 1-.601.406l-1.332.27a.955.955 0 0 1-1.121-.758l-1.247-5.039 3.094-1.031 1.344 5.441c.05.246.004.5-.137.711zm0 0"/>
    <path d="M11.742 5.695a2.039 2.039 0 0 0 2.035-2.035 2.032 2.032 0 1 0-2.035 2.035zm0-3.254a1.221 1.221 0 1 1 .003 2.443 1.221 1.221 0 0 1-.003-2.443zm0 0"/>
</svg>
