<svg xmlns="http://www.w3.org/2000/svg" width="32" height="32" viewBox="0 0 24 24">
    <path d="M 21.464844 21.601562 L 18.484375 9.546875 C 18.390625 9.085938 18.125 8.6875 17.730469 8.429688 C 17.339844 8.167969 16.871094 8.078125 16.410156 8.171875 L 16.175781 8.21875 L 15.074219 5.28125 C 15.316406 4.789062 15.457031 4.242188 15.457031 3.660156 C 15.457031 1.640625 13.816406 0 11.796875 0 C 9.777344 0 8.136719 1.640625 8.136719 3.660156 C 8.136719 4.242188 8.277344 4.792969 8.515625 5.28125 L 7.433594 8.164062 C 6.996094 8.089844 6.546875 8.179688 6.167969 8.429688 C 5.777344 8.6875 5.507812 9.085938 5.417969 9.53125 L 2.53125 21.617188 C 2.4375 22.078125 2.527344 22.550781 2.789062 22.941406 C 3.046875 23.332031 3.445312 23.601562 3.90625 23.695312 L 5.238281 23.964844 C 5.355469 23.988281 5.472656 24 5.589844 24 C 6.410156 24 7.144531 23.425781 7.3125 22.601562 L 10.199219 10.519531 C 10.394531 9.566406 9.777344 8.632812 8.824219 8.441406 L 8.246094 8.324219 L 9.078125 6.105469 C 9.089844 6.117188 9.101562 6.128906 9.113281 6.140625 C 9.179688 6.210938 9.246094 6.28125 9.320312 6.347656 C 9.339844 6.363281 9.355469 6.382812 9.378906 6.398438 C 9.453125 6.46875 9.535156 6.535156 9.617188 6.59375 C 9.632812 6.605469 9.648438 6.617188 9.664062 6.628906 C 9.753906 6.695312 9.847656 6.757812 9.945312 6.8125 C 9.957031 6.820312 9.964844 6.824219 9.972656 6.832031 C 10.078125 6.890625 10.1875 6.945312 10.296875 6.996094 C 10.300781 7 10.304688 7 10.304688 7 C 10.535156 7.105469 10.773438 7.183594 11.023438 7.238281 C 11.023438 7.238281 11.027344 7.238281 11.03125 7.238281 C 11.144531 7.265625 11.261719 7.285156 11.382812 7.296875 C 11.390625 7.296875 11.402344 7.300781 11.410156 7.300781 C 11.539062 7.316406 11.667969 7.320312 11.796875 7.320312 C 11.929688 7.320312 12.054688 7.316406 12.183594 7.300781 C 12.191406 7.300781 12.203125 7.296875 12.210938 7.296875 C 12.332031 7.285156 12.449219 7.265625 12.566406 7.238281 C 12.566406 7.238281 12.570312 7.238281 12.570312 7.238281 C 12.820312 7.183594 13.0625 7.105469 13.289062 7 C 13.292969 7 13.296875 6.996094 13.296875 6.996094 C 13.410156 6.945312 13.515625 6.890625 13.621094 6.832031 C 13.628906 6.824219 13.640625 6.820312 13.648438 6.8125 C 13.746094 6.757812 13.839844 6.695312 13.929688 6.628906 C 13.945312 6.617188 13.960938 6.605469 13.976562 6.59375 C 14.058594 6.53125 14.140625 6.46875 14.21875 6.398438 C 14.238281 6.382812 14.257812 6.363281 14.277344 6.347656 C 14.347656 6.28125 14.417969 6.210938 14.484375 6.140625 C 14.492188 6.128906 14.507812 6.117188 14.515625 6.105469 L 15.371094 8.382812 L 15.078125 8.441406 C 14.125 8.632812 13.507812 9.566406 13.707031 10.535156 L 16.6875 22.589844 C 16.78125 23.050781 17.046875 23.445312 17.441406 23.707031 C 17.730469 23.898438 18.066406 24 18.410156 24 C 18.527344 24 18.644531 23.988281 18.761719 23.964844 L 20.09375 23.695312 C 20.554688 23.601562 20.953125 23.332031 21.214844 22.941406 C 21.472656 22.550781 21.5625 22.078125 21.464844 21.601562 Z M 5.199219 13.960938 L 8.316406 14.894531 L 7.910156 16.597656 L 4.8125 15.566406 Z M 6.515625 22.425781 C 6.414062 22.941406 5.910156 23.273438 5.398438 23.167969 L 4.066406 22.898438 C 3.820312 22.847656 3.605469 22.703125 3.464844 22.492188 C 3.328125 22.28125 3.277344 22.027344 3.324219 21.792969 L 4.625 16.359375 L 7.71875 17.394531 Z M 9.40625 10.34375 L 8.507812 14.101562 L 5.386719 13.167969 L 6.214844 9.707031 C 6.261719 9.460938 6.40625 9.246094 6.617188 9.105469 C 6.773438 9.003906 6.957031 8.949219 7.140625 8.949219 C 7.203125 8.949219 7.265625 8.957031 7.332031 8.96875 L 8.660156 9.238281 C 9.175781 9.34375 9.507812 9.84375 9.40625 10.34375 Z M 11.796875 0.8125 C 13.367188 0.8125 14.644531 2.089844 14.644531 3.660156 C 14.644531 4.148438 14.523438 4.605469 14.304688 5.007812 L 14.28125 5.050781 C 14.269531 5.066406 14.261719 5.082031 14.25 5.101562 C 14.191406 5.195312 14.128906 5.289062 14.0625 5.378906 C 14.054688 5.386719 14.046875 5.398438 14.039062 5.410156 C 13.890625 5.597656 13.722656 5.769531 13.53125 5.914062 C 13.527344 5.917969 13.515625 5.925781 13.507812 5.929688 C 13.417969 6 13.320312 6.066406 13.222656 6.121094 C 13.21875 6.125 13.214844 6.125 13.214844 6.125 C 13.007812 6.246094 12.789062 6.335938 12.558594 6.402344 C 12.539062 6.40625 12.519531 6.410156 12.503906 6.417969 C 12.410156 6.441406 12.316406 6.457031 12.222656 6.472656 C 12.195312 6.476562 12.167969 6.484375 12.144531 6.484375 C 12.027344 6.5 11.914062 6.507812 11.796875 6.507812 C 11.679688 6.507812 11.566406 6.5 11.453125 6.484375 C 11.425781 6.480469 11.398438 6.476562 11.371094 6.472656 C 11.277344 6.457031 11.183594 6.441406 11.09375 6.417969 C 11.074219 6.410156 11.054688 6.40625 11.035156 6.402344 C 10.804688 6.335938 10.585938 6.246094 10.378906 6.125 C 10.378906 6.125 10.375 6.125 10.375 6.121094 C 10.273438 6.066406 10.175781 6 10.085938 5.929688 C 10.078125 5.925781 10.070312 5.917969 10.0625 5.914062 C 9.875 5.769531 9.703125 5.597656 9.554688 5.410156 C 9.546875 5.398438 9.539062 5.386719 9.53125 5.378906 C 9.464844 5.289062 9.402344 5.195312 9.34375 5.101562 C 9.097656 4.675781 8.949219 4.1875 8.949219 3.660156 C 8.949219 2.089844 10.226562 0.8125 11.796875 0.8125 Z M 19.132812 15.550781 L 16.039062 16.582031 L 15.617188 14.882812 L 18.734375 13.945312 Z M 15.238281 9.238281 L 16.570312 8.96875 C 16.636719 8.957031 16.699219 8.949219 16.761719 8.949219 C 16.945312 8.949219 17.125 9.003906 17.28125 9.105469 C 17.496094 9.246094 17.636719 9.460938 17.691406 9.726562 L 18.539062 13.15625 L 15.421875 14.09375 L 14.5 10.355469 C 14.394531 9.84375 14.726562 9.34375 15.238281 9.238281 Z M 20.535156 22.492188 C 20.394531 22.703125 20.179688 22.847656 19.933594 22.898438 L 18.601562 23.167969 C 18.351562 23.21875 18.101562 23.167969 17.890625 23.027344 C 17.679688 22.886719 17.535156 22.675781 17.480469 22.410156 L 16.234375 17.371094 L 19.328125 16.339844 L 20.671875 21.78125 C 20.722656 22.027344 20.675781 22.28125 20.535156 22.492188 Z M 20.535156 22.492188"/>
    <path d="M 11.742188 5.695312 C 12.863281 5.695312 13.777344 4.78125 13.777344 3.660156 C 13.777344 2.539062 12.863281 1.628906 11.742188 1.628906 C 10.621094 1.628906 9.710938 2.539062 9.710938 3.660156 C 9.710938 4.78125 10.621094 5.695312 11.742188 5.695312 Z M 11.742188 2.441406 C 12.417969 2.441406 12.964844 2.988281 12.964844 3.660156 C 12.964844 4.332031 12.417969 4.882812 11.742188 4.882812 C 11.070312 4.882812 10.523438 4.332031 10.523438 3.660156 C 10.523438 2.988281 11.070312 2.441406 11.742188 2.441406 Z M 11.742188 2.441406"/>
</svg>
