<svg xmlns="http://www.w3.org/2000/svg" width="32" height="32" viewBox="0 0 24 24">
    <path d="M 23.601562 11.601562 L 23.589844 11.601562 C 23.382812 5.523438 18.476562 0.617188 12.398438 0.410156 L 12.398438 0.398438 C 12.398438 0.179688 12.222656 0 12 0 C 11.777344 0 11.601562 0.179688 11.601562 0.398438 L 11.601562 0.410156 C 5.523438 0.617188 0.617188 5.523438 0.410156 11.601562 L 0.398438 11.601562 C 0.179688 11.601562 0 11.777344 0 12 C 0 12.222656 0.179688 12.398438 0.398438 12.398438 L 0.410156 12.398438 C 0.617188 18.476562 5.523438 23.382812 11.601562 23.589844 L 11.601562 23.601562 C 11.601562 23.820312 11.777344 24 12 24 C 12.222656 24 12.398438 23.820312 12.398438 23.601562 L 12.398438 23.589844 C 18.476562 23.382812 23.382812 18.476562 23.589844 12.398438 L 23.601562 12.398438 C 23.820312 12.398438 24 12.222656 24 12 C 24 11.777344 23.820312 11.601562 23.601562 11.601562 Z M 22.789062 11.601562 L 20.789062 11.601562 C 20.585938 7.066406 16.933594 3.414062 12.398438 3.210938 L 12.398438 1.210938 C 18.039062 1.417969 22.582031 5.960938 22.789062 11.601562 Z M 11.601562 12.398438 L 11.601562 14.363281 C 10.597656 14.195312 9.804688 13.402344 9.636719 12.398438 Z M 9.636719 11.601562 C 9.804688 10.597656 10.597656 9.804688 11.601562 9.636719 L 11.601562 11.601562 Z M 12.398438 12.398438 L 14.363281 12.398438 C 14.195312 13.402344 13.402344 14.195312 12.398438 14.363281 Z M 12.398438 11.601562 L 12.398438 9.636719 C 13.402344 9.804688 14.195312 10.597656 14.363281 11.601562 Z M 11.601562 8.828125 C 10.15625 9.007812 9.007812 10.15625 8.828125 11.601562 L 6.820312 11.601562 C 7.015625 9.050781 9.050781 7.015625 11.601562 6.820312 Z M 8.828125 12.398438 C 9.007812 13.84375 10.15625 14.992188 11.601562 15.171875 L 11.601562 17.179688 C 9.050781 16.984375 7.015625 14.949219 6.820312 12.398438 Z M 12.398438 15.171875 C 13.84375 14.992188 14.992188 13.84375 15.171875 12.398438 L 17.179688 12.398438 C 16.984375 14.949219 14.949219 16.984375 12.398438 17.179688 Z M 15.171875 11.601562 C 14.992188 10.15625 13.84375 9.007812 12.398438 8.828125 L 12.398438 6.820312 C 14.949219 7.015625 16.984375 9.050781 17.179688 11.601562 Z M 11.601562 6.019531 C 8.609375 6.21875 6.21875 8.609375 6.019531 11.601562 L 4.019531 11.601562 C 4.222656 7.507812 7.507812 4.222656 11.601562 4.019531 Z M 6.019531 12.398438 C 6.21875 15.390625 8.609375 17.78125 11.601562 17.980469 L 11.601562 19.980469 C 7.507812 19.777344 4.222656 16.492188 4.019531 12.398438 Z M 12.398438 17.980469 C 15.390625 17.78125 17.78125 15.390625 17.980469 12.398438 L 19.980469 12.398438 C 19.777344 16.492188 16.492188 19.777344 12.398438 19.980469 Z M 17.980469 11.601562 C 17.78125 8.609375 15.390625 6.21875 12.398438 6.019531 L 12.398438 4.019531 C 16.492188 4.222656 19.777344 7.507812 19.980469 11.601562 Z M 11.601562 1.210938 L 11.601562 3.210938 C 7.066406 3.414062 3.414062 7.066406 3.210938 11.601562 L 1.210938 11.601562 C 1.417969 5.960938 5.960938 1.417969 11.601562 1.210938 Z M 1.210938 12.398438 L 3.210938 12.398438 C 3.414062 16.933594 7.066406 20.585938 11.601562 20.789062 L 11.601562 22.789062 C 5.960938 22.582031 1.417969 18.039062 1.210938 12.398438 Z M 12.398438 22.789062 L 12.398438 20.789062 C 16.933594 20.585938 20.585938 16.933594 20.789062 12.398438 L 22.789062 12.398438 C 22.582031 18.039062 18.039062 22.582031 12.398438 22.789062 Z M 12.398438 22.789062"/>
</svg>
