<svg xmlns="http://www.w3.org/2000/svg" width="32" height="32" viewBox="0 0 24 24">
    <path d="M 21.269531 17.042969 C 21.261719 17.042969 21.253906 17.042969 21.246094 17.042969 C 21.238281 17.042969 21.230469 17.042969 21.226562 17.042969 L 6.753906 17.042969 L 7.582031 4.957031 L 9.921875 4.957031 C 10.730469 4.957031 11.390625 4.296875 11.390625 3.484375 C 11.390625 2.671875 10.730469 2.011719 9.921875 2.011719 L 6.835938 2.011719 C 6.3125 2.011719 5.792969 1.882812 5.332031 1.628906 L 3.109375 0.417969 C 2.636719 0.160156 2.082031 0.171875 1.621094 0.445312 C 1.160156 0.71875 0.882812 1.199219 0.882812 1.738281 C 0.882812 2.324219 1.230469 2.863281 1.765625 3.105469 L 4.679688 4.429688 L 2.585938 17.050781 C 1.148438 17.128906 0 18.320312 0 19.773438 C 0 21.28125 1.226562 22.507812 2.730469 22.507812 L 3.40625 22.507812 C 3.40625 23.214844 3.980469 23.769531 4.710938 23.769531 L 7.144531 23.769531 C 7.875 23.769531 8.449219 23.214844 8.449219 22.507812 L 15.59375 22.507812 C 15.59375 23.214844 16.167969 23.769531 16.898438 23.769531 L 19.332031 23.769531 C 20.066406 23.769531 20.636719 23.214844 20.636719 22.507812 L 21.222656 22.507812 C 21.230469 22.507812 21.238281 22.507812 21.246094 22.507812 C 21.253906 22.507812 21.261719 22.507812 21.269531 22.507812 C 22.773438 22.507812 24 21.28125 24 19.773438 C 24 18.269531 22.773438 17.042969 21.269531 17.042969 Z M 2.113281 2.339844 C 1.878906 2.234375 1.726562 1.996094 1.726562 1.738281 C 1.726562 1.5 1.847656 1.289062 2.050781 1.167969 C 2.253906 1.046875 2.496094 1.042969 2.707031 1.15625 L 4.929688 2.367188 C 5.511719 2.6875 6.171875 2.855469 6.835938 2.855469 L 9.921875 2.855469 C 10.269531 2.855469 10.550781 3.136719 10.550781 3.484375 C 10.550781 3.832031 10.269531 4.113281 9.921875 4.113281 L 6.019531 4.113281 Z M 5.445312 4.957031 L 6.738281 4.957031 L 5.914062 17.042969 L 3.4375 17.042969 Z M 2.777344 21.667969 C 1.734375 21.667969 0.882812 20.816406 0.882812 19.773438 C 0.882812 18.734375 1.734375 17.882812 2.777344 17.882812 C 3.820312 17.882812 4.667969 18.734375 4.667969 19.773438 C 4.667969 20.816406 3.820312 21.667969 2.777344 21.667969 Z M 7.144531 22.925781 L 4.710938 22.925781 C 4.480469 22.925781 4.246094 22.78125 4.246094 22.507812 L 7.609375 22.507812 C 7.609375 22.78125 7.375 22.925781 7.144531 22.925781 Z M 15.59375 21.667969 L 4.742188 21.667969 C 5.214844 21.175781 5.507812 20.507812 5.507812 19.773438 C 5.507812 19.042969 5.214844 18.375 4.742188 17.882812 L 19.300781 17.882812 C 18.828125 18.375 18.535156 19.042969 18.535156 19.773438 C 18.535156 20.507812 18.828125 21.175781 19.300781 21.667969 Z M 19.332031 22.925781 L 16.898438 22.925781 C 16.667969 22.925781 16.433594 22.78125 16.433594 22.507812 L 19.796875 22.507812 C 19.796875 22.78125 19.5625 22.925781 19.332031 22.925781 Z M 21.246094 21.664062 C 20.214844 21.652344 19.375 20.8125 19.375 19.773438 C 19.375 18.738281 20.214844 17.898438 21.246094 17.886719 C 22.277344 17.898438 23.117188 18.738281 23.117188 19.773438 C 23.117188 20.808594 22.277344 21.652344 21.246094 21.664062 Z M 21.246094 21.664062"/>
    <path d="M6.769531 18.722656L17.277344 18.722656 17.277344 19.566406 6.769531 19.566406zM6.769531 19.984375L17.277344 19.984375 17.277344 20.824219 6.769531 20.824219zM6.769531 19.984375"/>
</svg>
