<svg xmlns="http://www.w3.org/2000/svg" width="32" height="32" viewBox="0 0 24 24">
    <path d="M 12 0 C 5.382812 0 0 5.382812 0 12 C 0 18.617188 5.382812 24 12 24 C 18.617188 24 24 18.617188 24 12 C 24 5.382812 18.617188 0 12 0 Z M 23.171875 12 C 23.171875 12.722656 23.101562 13.429688 22.96875 14.117188 C 21.859375 9.53125 20.078125 6.304688 15.632812 4 C 15.910156 3.660156 16.203125 3.316406 16.511719 2.957031 C 16.738281 2.691406 16.972656 2.410156 17.214844 2.125 C 20.753906 4 23.171875 7.722656 23.171875 12 Z M 3.378906 19.101562 C 2.613281 18.171875 1.996094 17.113281 1.558594 15.96875 C 3.480469 16.792969 5.101562 17.210938 6.800781 17.210938 C 8.820312 17.210938 10.960938 16.617188 13.84375 15.425781 C 14.371094 16.375 14.816406 17.363281 15.171875 18.398438 C 10.035156 20.441406 7.769531 20.222656 3.378906 19.101562 Z M 6.632812 13.246094 C 8.511719 13.246094 10.265625 12.988281 11.84375 12.484375 L 11.894531 12.546875 C 12.460938 13.234375 12.972656 13.953125 13.429688 14.699219 C 7.761719 17.019531 5.292969 16.789062 1.214844 14.90625 C 1.007812 14.140625 0.878906 13.347656 0.839844 12.527344 C 2.863281 13.003906 4.804688 13.246094 6.632812 13.246094 Z M 12.542969 12.035156 L 12.429688 11.882812 C 12.597656 10.289062 12.871094 9.042969 13.246094 7.992188 C 17.695312 11.023438 19.609375 14.703125 19.601562 20.179688 C 18.792969 20.929688 17.878906 21.5625 16.878906 22.050781 C 16.363281 18.257812 14.902344 14.886719 12.542969 12.035156 Z M 11.621094 11.6875 C 10.453125 12.0625 9.183594 12.292969 7.832031 12.378906 C 8.480469 6.613281 10.195312 4.546875 12.984375 1.183594 L 13.222656 0.894531 C 14.355469 1.019531 15.4375 1.3125 16.445312 1.753906 C 16.253906 1.980469 16.0625 2.203125 15.878906 2.421875 C 13.722656 4.957031 12.152344 6.808594 11.621094 11.6875 Z M 12.199219 0.832031 C 9.472656 4.121094 7.652344 6.410156 6.996094 12.410156 C 6.066406 12.429688 5.101562 12.378906 4.109375 12.265625 C 4.722656 6.609375 6.09375 4.960938 8.761719 1.761719 L 9.253906 1.167969 C 10.132812 0.945312 11.050781 0.828125 12 0.828125 C 12.066406 0.828125 12.132812 0.832031 12.199219 0.832031 Z M 7.765625 1.664062 C 5.304688 4.625 3.90625 6.53125 3.289062 12.15625 C 2.488281 12.039062 1.667969 11.878906 0.835938 11.675781 C 0.964844 7.152344 3.792969 3.296875 7.765625 1.664062 Z M 4.433594 20.210938 C 5.972656 20.570312 7.28125 20.785156 8.613281 20.785156 C 10.554688 20.785156 12.5625 20.320312 15.414062 19.191406 C 15.71875 20.222656 15.941406 21.289062 16.082031 22.398438 C 14.816406 22.894531 13.441406 23.171875 12 23.171875 C 9.082031 23.171875 6.425781 22.046875 4.433594 20.210938 Z M 20.417969 19.335938 C 20.230469 13.953125 18.136719 10.265625 13.558594 7.203125 C 13.980469 6.246094 14.5 5.449219 15.109375 4.660156 C 19.859375 7.070312 21.441406 10.597656 22.5 15.820312 C 22.023438 17.121094 21.3125 18.308594 20.417969 19.335938 Z M 20.417969 19.335938"/>
</svg>
