<svg xmlns="http://www.w3.org/2000/svg" width="32" height="32" viewBox="0 0 24 24">
    <path d="M15.93 8.254a2.276 2.276 0 1 0 2.277 2.277 2.28 2.28 0 0 0-2.277-2.277zm0 3.723a1.447 1.447 0 1 1 .003-2.895 1.447 1.447 0 0 1-.003 2.895zm0 0M23.266 20.844c-.364.449-.836.695-1.336.695-.496 0-.97-.246-1.332-.695-.524-.649-1.227-1.004-1.977-1.004-.754 0-1.453.355-1.976 1.004-.364.449-.836.695-1.336.695-.496 0-.97-.246-1.332-.695-.524-.649-1.223-1.004-1.977-1.004s-1.453.355-1.977 1.004c-.363.449-.835.695-1.332.695-.5 0-.972-.246-1.336-.695-.523-.649-1.222-1.004-1.976-1.004-.75 0-1.453.355-1.977 1.004-.363.449-.836.695-1.332.695-.5 0-.972-.246-1.336-.695a.411.411 0 0 0-.582-.063.415.415 0 0 0-.058.582c.52.649 1.222 1.004 1.976 1.004.75 0 1.453-.355 1.977-1.004.36-.449.836-.695 1.332-.695.496 0 .973.246 1.336.695.52.649 1.223 1.004 1.976 1.004.75 0 1.454-.355 1.977-1.004.36-.449.836-.695 1.332-.695.496 0 .973.246 1.332.695.523.649 1.227 1.004 1.977 1.004.754 0 1.457-.355 1.976-1.004.363-.449.84-.695 1.336-.695.496 0 .973.246 1.332.695.524.649 1.227 1.004 1.977 1.004.754 0 1.457-.355 1.976-1.004a.414.414 0 0 0-.058-.582.411.411 0 0 0-.582.063zm0 0M23.266 17.945c-.364.45-.836.696-1.336.696-.496 0-.97-.246-1.332-.696-.524-.644-1.227-1-1.977-1-.754 0-1.453.356-1.976 1-.364.45-.836.696-1.336.696-.496 0-.97-.246-1.332-.696-.524-.644-1.223-1-1.977-1s-1.453.356-1.977 1c-.363.45-.835.696-1.332.696-.5 0-.972-.246-1.336-.696-.523-.644-1.222-1-1.976-1-.75 0-1.453.356-1.977 1-.363.45-.836.696-1.332.696-.5 0-.972-.246-1.336-.696a.41.41 0 0 0-.582-.058.41.41 0 0 0-.058.578c.52.648 1.222 1.004 1.976 1.004.75 0 1.453-.356 1.977-1.004.36-.445.836-.695 1.332-.695.496 0 .973.25 1.336.695.52.648 1.223 1.004 1.976 1.004.75 0 1.454-.356 1.977-1.004.36-.445.836-.695 1.332-.695.496 0 .973.25 1.332.695.523.648 1.227 1.004 1.977 1.004.754 0 1.457-.356 1.976-1.004.363-.445.84-.695 1.336-.695.496 0 .973.25 1.332.695.524.648 1.227 1.004 1.977 1.004.754 0 1.457-.356 1.976-1.004a.41.41 0 0 0-.058-.578.41.41 0 0 0-.582.058zm0 0"/>
    <path d="M2.07 16.574c.75 0 1.453-.355 1.977-1.004.36-.449.836-.695 1.332-.695.496 0 .973.246 1.336.695.52.649 1.223 1.004 1.976 1.004.75 0 1.454-.355 1.977-1.004.36-.449.836-.695 1.332-.695.496 0 .973.246 1.332.695.523.649 1.227 1.004 1.977 1.004.754 0 1.457-.355 1.976-1.004.363-.449.84-.695 1.336-.695.496 0 .973.246 1.332.695.524.649 1.227 1.004 1.977 1.004.754 0 1.457-.355 1.976-1.004a.414.414 0 0 0-.058-.582.413.413 0 0 0-.262-.086V3.18c0-.852-.691-1.547-1.543-1.547H1.813A1.4 1.4 0 0 0 .413 3.03v11.871a.413.413 0 0 0-.262.086.415.415 0 0 0-.058.582c.52.649 1.222 1.004 1.976 1.004zm16.551-2.527c-.754 0-1.453.355-1.976 1.004-.364.449-.836.695-1.336.695-.496 0-.97-.246-1.332-.695-.524-.649-1.223-1.004-1.977-1.004s-1.453.355-1.977 1.004c-.363.449-.835.695-1.332.695-.5 0-.972-.246-1.336-.695-.523-.649-1.222-1.004-1.976-1.004-.75 0-1.453.355-1.977 1.004-.03.039-.066.066-.097.101 0-.023.004-.047.004-.07V4.532H20.69v10.55c0 .023.004.047.004.07-.03-.035-.066-.062-.097-.101-.524-.649-1.227-1.004-1.977-1.004zM1.242 3.03c0-.312.254-.57.57-.57h20.231c.395 0 .715.32.715.719v11.902a.62.62 0 1 1-1.242 0V3.703H2.484v11.379a.62.62 0 1 1-1.242 0zm0 0"/>
</svg>
