<svg xmlns="http://www.w3.org/2000/svg" width="32" height="32" viewBox="0 0 24 24">
    <path d="M 22.402344 4 L 19.199219 4 C 18.320312 4 17.601562 4.714844 17.601562 5.597656 L 17.601562 8.785156 C 17.601562 8.792969 17.601562 8.796875 17.601562 8.800781 L 17.601562 9.074219 L 17.554688 9.113281 L 16.601562 8.808594 L 16.550781 8.796875 C 13.523438 8.261719 11.273438 8.261719 8.246094 8.796875 L 6.445312 9.113281 L 6.398438 9.074219 L 6.398438 8.800781 C 6.398438 8.796875 6.398438 8.792969 6.398438 8.785156 L 6.398438 5.597656 C 6.398438 4.714844 5.679688 4 4.800781 4 L 1.597656 4 C 0.714844 4 0 4.714844 0 5.597656 L 0 18.402344 C 0 19.285156 0.714844 20 1.597656 20 L 4.800781 20 C 5.679688 20 6.398438 19.285156 6.398438 18.402344 L 6.398438 15.214844 C 6.398438 15.207031 6.398438 15.203125 6.398438 15.199219 L 6.398438 14.925781 L 6.445312 14.886719 L 8.246094 15.203125 C 11.273438 15.738281 13.523438 15.738281 16.550781 15.203125 L 17.589844 14.878906 L 17.601562 18.402344 C 17.601562 19.285156 18.320312 20 19.199219 20 L 22.402344 20 C 23.285156 20 24 19.285156 24 18.402344 L 24 5.597656 C 24 4.714844 23.285156 4 22.402344 4 Z M 0.800781 5.597656 C 0.800781 5.15625 1.15625 4.800781 1.597656 4.800781 L 4.800781 4.800781 C 5.238281 4.800781 5.597656 5.15625 5.597656 5.597656 L 5.597656 8.398438 L 0.800781 8.398438 Z M 5.597656 18.402344 C 5.597656 18.84375 5.238281 19.199219 4.800781 19.199219 L 1.597656 19.199219 C 1.15625 19.199219 0.800781 18.84375 0.800781 18.402344 L 0.800781 15.601562 L 5.597656 15.601562 Z M 5.601562 14.800781 L 0.800781 14.800781 L 0.800781 9.199219 L 5.601562 9.199219 Z M 17.601562 14.089844 C 17.585938 14.085938 17.574219 14.085938 17.5625 14.085938 C 17.511719 14.085938 17.460938 14.089844 17.414062 14.097656 L 16.386719 14.417969 C 13.472656 14.933594 11.300781 14.929688 8.386719 14.414062 L 6.585938 14.097656 C 6.523438 14.085938 6.460938 14.082031 6.398438 14.085938 L 6.398438 9.914062 C 6.460938 9.917969 6.523438 9.914062 6.585938 9.902344 L 8.386719 9.585938 C 11.300781 9.070312 13.472656 9.066406 16.386719 9.582031 L 17.363281 9.890625 L 17.414062 9.902344 C 17.476562 9.914062 17.539062 9.917969 17.601562 9.914062 C 17.601562 9.914062 17.601562 14.089844 17.601562 14.089844 Z M 23.199219 18.402344 C 23.199219 18.84375 22.84375 19.199219 22.402344 19.199219 L 19.199219 19.199219 C 18.761719 19.199219 18.402344 18.84375 18.402344 18.402344 L 18.402344 15.601562 L 23.199219 15.601562 Z M 23.199219 14.800781 L 18.398438 14.800781 L 18.398438 9.199219 L 23.199219 9.199219 Z M 23.199219 8.398438 L 18.402344 8.398438 L 18.402344 5.597656 C 18.402344 5.15625 18.761719 4.800781 19.199219 4.800781 L 22.402344 4.800781 C 22.84375 4.800781 23.199219 5.15625 23.199219 5.597656 Z M 23.199219 8.398438"/>
</svg>
