<svg xmlns="http://www.w3.org/2000/svg" width="32" height="32" viewBox="0 0 24 24">
    <path d="M 22.398438 19.199219 L 14.800781 19.199219 L 14.800781 18.800781 L 20 18.800781 C 20.136719 18.800781 20.261719 18.730469 20.335938 18.613281 C 20.410156 18.5 20.421875 18.355469 20.363281 18.230469 L 14.378906 5.3125 C 14.386719 5.277344 14.398438 5.238281 14.398438 5.199219 L 14.398438 0.398438 C 14.398438 0.179688 14.222656 0 14 0 C 13.777344 0 13.601562 0.179688 13.601562 0.398438 L 13.601562 3.632812 L 13.5625 3.554688 C 13.496094 3.410156 13.359375 3.3125 13.191406 3.320312 C 13.03125 3.324219 12.890625 3.421875 12.828125 3.570312 L 12.800781 3.640625 L 12.800781 2 C 12.800781 1.820312 12.679688 1.660156 12.507812 1.613281 C 12.332031 1.566406 12.148438 1.640625 12.054688 1.796875 L 3.257812 16.59375 C 3.183594 16.71875 3.179688 16.871094 3.253906 16.996094 C 3.324219 17.121094 3.457031 17.199219 3.601562 17.199219 L 7.257812 17.199219 L 6.828125 18.25 C 6.8125 18.289062 6.804688 18.328125 6.804688 18.371094 C 6.800781 18.382812 6.800781 18.390625 6.804688 18.402344 C 6.804688 18.445312 6.808594 18.492188 6.824219 18.535156 C 6.824219 18.539062 6.824219 18.539062 6.824219 18.539062 C 6.835938 18.570312 6.851562 18.597656 6.867188 18.625 C 6.878906 18.636719 6.890625 18.644531 6.898438 18.65625 C 6.902344 18.664062 6.902344 18.667969 6.90625 18.671875 C 6.910156 18.675781 6.914062 18.675781 6.917969 18.679688 C 6.949219 18.714844 6.988281 18.742188 7.035156 18.761719 C 7.042969 18.765625 7.050781 18.769531 7.058594 18.769531 C 7.105469 18.789062 7.152344 18.800781 7.199219 18.800781 L 14 18.800781 L 14 19.199219 L 4 19.199219 C 3.859375 19.199219 3.730469 19.273438 3.65625 19.394531 L 1.257812 23.394531 C 1.183594 23.519531 1.179688 23.671875 1.253906 23.796875 C 1.324219 23.921875 1.457031 24 1.601562 24 L 16.800781 24 C 18.941406 24 20.578125 21.964844 20.777344 20 L 22.398438 20 C 22.621094 20 22.800781 19.820312 22.800781 19.601562 C 22.800781 19.378906 22.621094 19.199219 22.398438 19.199219 Z M 13.222656 4.722656 L 15.226562 9.050781 C 13.855469 12.066406 13.617188 12.269531 11.398438 14.148438 C 10.617188 14.808594 9.609375 15.664062 8.246094 16.898438 Z M 4.304688 16.398438 L 12 3.457031 L 12 5.597656 L 7.585938 16.398438 Z M 8.222656 18 C 9.871094 16.492188 11.035156 15.503906 11.917969 14.757812 C 14.046875 12.953125 14.457031 12.601562 15.667969 10.003906 L 19.375 18 Z M 16.800781 23.199219 L 2.304688 23.199219 L 3.027344 22 L 19.113281 22 C 18.542969 22.707031 17.730469 23.199219 16.800781 23.199219 Z M 19.617188 21.203125 C 19.613281 21.203125 19.605469 21.199219 19.601562 21.199219 L 3.507812 21.199219 L 4.226562 20 L 19.976562 20 C 19.925781 20.410156 19.800781 20.820312 19.617188 21.203125 Z M 19.617188 21.203125"/>
</svg>
