<svg xmlns="http://www.w3.org/2000/svg" width="32" height="32" viewBox="0 0 24 24">
    <path d="M12 9.199219C10.441406 9.199219 9.199219 10.441406 9.199219 12 9.199219 12.238281 9.359375 12.398438 9.601562 12.398438 9.839844 12.398438 10 12.238281 10 12 10 10.878906 10.878906 10 12 10 12.238281 10 12.398438 9.839844 12.398438 9.601562 12.398438 9.359375 12.238281 9.199219 12 9.199219zM19.601562 3.601562C19.839844 3.601562 20 3.441406 20 3.199219 20 2.761719 20.359375 2.398438 20.800781 2.398438 21.039062 2.398438 21.199219 2.238281 21.199219 2 21.199219 1.761719 21.039062 1.601562 20.800781 1.601562 19.921875 1.601562 19.199219 2.320312 19.199219 3.199219 19.199219 3.441406 19.359375 3.601562 19.601562 3.601562zM2.800781 1.601562C2.121094 1.601562 1.601562 2.121094 1.601562 2.800781 1.601562 3.039062 1.761719 3.199219 2 3.199219 2.238281 3.199219 2.398438 3.039062 2.398438 2.800781 2.398438 2.558594 2.558594 2.398438 2.800781 2.398438 3.039062 2.398438 3.199219 2.238281 3.199219 2 3.199219 1.761719 3.039062 1.601562 2.800781 1.601562zM2.800781 1.601562"/>
    <path d="M 20.398438 16.800781 C 19.542969 16.800781 18.761719 17.09375 18.144531 17.585938 L 15.382812 14.820312 C 16.019531 14.058594 16.398438 13.078125 16.398438 12 C 16.398438 10.894531 15.996094 9.882812 15.328125 9.113281 L 18.769531 5.667969 C 19.324219 6.125 20.03125 6.398438 20.800781 6.398438 C 22.558594 6.398438 24 4.960938 24 3.199219 C 24 1.441406 22.558594 0 20.800781 0 C 19.039062 0 17.601562 1.441406 17.601562 3.199219 C 17.601562 3.90625 17.832031 4.5625 18.226562 5.09375 L 14.757812 8.5625 C 14.003906 7.960938 13.046875 7.601562 12 7.601562 C 10.914062 7.601562 9.925781 7.988281 9.160156 8.632812 L 5.058594 4.464844 C 5.398438 4 5.601562 3.425781 5.601562 2.800781 C 5.601562 1.238281 4.359375 0 2.800781 0 C 1.238281 0 0 1.238281 0 2.800781 C 0 4.359375 1.238281 5.601562 2.800781 5.601562 C 3.445312 5.601562 4.035156 5.386719 4.507812 5.027344 L 8.617188 9.175781 C 7.980469 9.9375 7.601562 10.921875 7.601562 12 C 7.601562 13.078125 7.980469 14.058594 8.617188 14.820312 L 6.53125 16.910156 C 5.839844 16.339844 4.957031 16 4 16 C 1.800781 16 0 17.800781 0 20 C 0 22.199219 1.800781 24 4 24 C 6.199219 24 8 22.199219 8 20 C 8 19.042969 7.660156 18.160156 7.089844 17.46875 L 9.179688 15.382812 C 9.941406 16.019531 10.921875 16.398438 12 16.398438 C 13.078125 16.398438 14.058594 16.019531 14.820312 15.382812 L 17.585938 18.144531 C 17.09375 18.761719 16.800781 19.542969 16.800781 20.398438 C 16.800781 22.398438 18.398438 24 20.398438 24 C 22.398438 24 24 22.398438 24 20.398438 C 24 18.398438 22.398438 16.800781 20.398438 16.800781 Z M 20.800781 0.800781 C 22.121094 0.800781 23.199219 1.878906 23.199219 3.199219 C 23.199219 4.519531 22.121094 5.601562 20.800781 5.601562 C 19.480469 5.601562 18.398438 4.519531 18.398438 3.199219 C 18.398438 1.878906 19.480469 0.800781 20.800781 0.800781 Z M 0.800781 2.800781 C 0.800781 1.679688 1.679688 0.800781 2.800781 0.800781 C 3.921875 0.800781 4.800781 1.679688 4.800781 2.800781 C 4.800781 3.921875 3.921875 4.800781 2.800781 4.800781 C 1.679688 4.800781 0.800781 3.921875 0.800781 2.800781 Z M 4 23.199219 C 2.238281 23.199219 0.800781 21.761719 0.800781 20 C 0.800781 18.238281 2.238281 16.800781 4 16.800781 C 4.828125 16.800781 5.585938 17.121094 6.15625 17.640625 C 6.175781 17.683594 6.203125 17.722656 6.238281 17.761719 C 6.28125 17.800781 6.320312 17.828125 6.363281 17.851562 C 6.882812 18.417969 7.199219 19.175781 7.199219 20 C 7.199219 21.761719 5.761719 23.199219 4 23.199219 Z M 8.398438 12 C 8.398438 11.039062 8.769531 10.171875 9.375 9.527344 C 9.398438 9.515625 9.417969 9.5 9.441406 9.480469 C 9.464844 9.453125 9.484375 9.429688 9.503906 9.398438 C 10.148438 8.78125 11.027344 8.398438 12 8.398438 C 12.9375 8.398438 13.785156 8.75 14.421875 9.328125 C 14.4375 9.355469 14.457031 9.378906 14.480469 9.398438 C 14.511719 9.429688 14.539062 9.453125 14.570312 9.472656 C 15.207031 10.121094 15.601562 11.011719 15.601562 12 C 15.601562 12.9375 15.25 13.785156 14.671875 14.421875 C 14.617188 14.441406 14.566406 14.476562 14.519531 14.519531 C 14.476562 14.566406 14.441406 14.617188 14.421875 14.671875 C 13.785156 15.25 12.9375 15.601562 12 15.601562 C 10 15.601562 8.398438 14 8.398438 12 Z M 20.398438 23.199219 C 18.839844 23.199219 17.601562 21.960938 17.601562 20.398438 C 17.601562 18.839844 18.839844 17.601562 20.398438 17.601562 C 21.960938 17.601562 23.199219 18.839844 23.199219 20.398438 C 23.199219 21.960938 21.960938 23.199219 20.398438 23.199219 Z M 20.398438 23.199219"/>
    <path d="M20.398438 18.398438C19.28125 18.398438 18.398438 19.28125 18.398438 20.398438 18.398438 20.640625 18.558594 20.800781 18.800781 20.800781 19.039062 20.800781 19.199219 20.640625 19.199219 20.398438 19.199219 19.71875 19.71875 19.199219 20.398438 19.199219 20.640625 19.199219 20.800781 19.039062 20.800781 18.800781 20.800781 18.558594 20.640625 18.398438 20.398438 18.398438zM4 17.601562C2.679688 17.601562 1.601562 18.679688 1.601562 20 1.601562 20.238281 1.761719 20.398438 2 20.398438 2.238281 20.398438 2.398438 20.238281 2.398438 20 2.398438 19.121094 3.121094 18.398438 4 18.398438 4.238281 18.398438 4.398438 18.238281 4.398438 18 4.398438 17.761719 4.238281 17.601562 4 17.601562zM4 17.601562"/>
</svg>
