<svg xmlns="http://www.w3.org/2000/svg" width="32" height="32" viewBox="0 0 24 24">
    <path d="M12.29 9.04c-1.642 0-2.962 1.32-2.962 2.96s1.32 2.96 2.961 2.96c1.64 0 2.961-1.32 2.961-2.96s-1.32-2.96-2.96-2.96zm0 5.12c-1.2 0-2.161-.96-2.161-2.16 0-1.2.96-2.16 2.16-2.16 1.2 0 2.16.96 2.16 2.16 0 1.2-.96 2.16-2.16 2.16zm0 0"/>
    <path d="M22.531 7.281c.16-.8 0-1.52-.441-2.082-.387-.562-1.024-.91-1.88-1.011a1.806 1.806 0 0 0-.28-.708c-.239-.359-.64-.601-1.078-.68-.48-.081-.922.04-1.282.278-.484.36-.722.906-.703 1.453-.258.074-.52.157-.785.246C15.227 1.86 13.855 0 12.289 0c-1.535 0-2.887 1.84-3.738 4.73-2.711-.945-5.04-1.015-6.063.391-.386.527-.492 1.238-.297 2.11-.18.117-.336.265-.46.449-.563.761-.36 1.84.398 2.36.281.198.601.32.96.32.079 0 .2 0 .321-.04.098-.02.195-.047.29-.078.417.574.902 1.164 1.445 1.754-1.68 1.805-2.782 3.59-3.016 5.004-.117.762 0 1.398.32 1.879C2.97 19.602 3.891 20 5.211 20c.934 0 2.055-.21 3.348-.66.847 2.851 2.187 4.66 3.73 4.66.707 0 1.356-.344 1.938-.98.203.09.43.14.664.14.918 0 1.68-.762 1.68-1.68 0-.585-.31-1.101-.766-1.406.093-.27.183-.547.265-.836 1.422.492 2.73.762 3.782.762.316 0 .636-.04.918-.121.68-.117 1.12-.438 1.398-.879 1.047-1.762.105-4.238-2.535-6.984 1.668-1.739 2.691-3.383 2.898-4.735zm-4.48-3.562a.82.82 0 0 1 .52-.16c.038 0 .12.043.16 0 .238.043.437.16.558.363a.783.783 0 0 1 .16.348v.25c0 .035 0 .07-.004.105-.047.195-.164.422-.355.535-.399.281-.961.2-1.238-.2-.282-.401-.204-.96.199-1.241zm-.977 1.566l.094.156c.066.086.14.168.219.243l.004.003c.015.012.03.028.047.04.328.289.73.433 1.132.433.32 0 .68-.12.961-.32.09-.055.168-.125.239-.203.19-.196.328-.446.402-.715.558.078 1 .32 1.277.68.32.398.403.878.32 1.476-.18 1.203-1.16 2.73-2.726 4.348a30.09 30.09 0 0 0-2.125-1.848 25.4 25.4 0 0 0-.633-4.05c.266-.09.531-.173.79-.243zM14.531 15.2a35.2 35.2 0 0 1-2.195 1.426 29.576 29.576 0 0 1-3.863-2.64C8.43 13.347 8.41 12.683 8.41 12c0-.684.02-1.344.063-1.98A29.617 29.617 0 0 1 10.09 8.8c.73-.519 1.469-.995 2.207-1.425.734.426 1.484.902 2.234 1.426.555.39 1.086.781 1.586 1.172.04.648.059 1.324.051 2.027 0 .688-.02 1.371-.066 2.04-.5.39-1.024.776-1.57 1.16zm1.473-.015a24.288 24.288 0 0 1-.5 2.972 23.942 23.942 0 0 1-2.32-1.07 37.88 37.88 0 0 0 1.746-1.125c.367-.258.726-.52 1.074-.777zM11.52 17.09c-.848.469-1.66.863-2.43 1.18a23.51 23.51 0 0 1-.527-3.184c.351.273.714.535 1.085.793.614.434 1.239.84 1.872 1.21zM7.637 13.28c-.489-.426-.95-.855-1.375-1.289.426-.426.886-.855 1.375-1.277-.02.422-.028.851-.028 1.285 0 .434.008.86.028 1.281zm.922-4.355c.117-1.153.293-2.207.52-3.149.776.313 1.593.703 2.437 1.157a30.178 30.178 0 0 0-2.957 1.992zm4.55-2.004c.82-.438 1.63-.813 2.414-1.117.223.925.395 1.965.508 3.093a38.42 38.42 0 0 0-1.02-.738 31.041 31.041 0 0 0-1.902-1.238zm3.871 3.746c.54.45 1.036.895 1.489 1.332-.457.438-.953.887-1.489 1.332.02-.441.032-.883.032-1.332 0-.45-.012-.895-.032-1.332zM12.29.801c1.112 0 2.28 1.578 3.038 4.25-.973.379-1.98.855-3 1.418a25.98 25.98 0 0 0-3.047-1.465C10.04 2.364 11.184.8 12.29.8zM2.57 9.398c-.402-.277-.48-.84-.199-1.238a.724.724 0 0 1 .211-.21l.227-.071a.949.949 0 0 1 .8.121.769.769 0 0 1 .356.54.902.902 0 0 1-.156.66c-.118.198-.32.32-.559.359-.242.043-.48-.04-.68-.16zm1.918.282a2.53 2.53 0 0 0 .133-.246A1.68 1.68 0 0 0 4.09 7.28a1.62 1.62 0 0 0-1.137-.312c-.137-.567-.055-1.024.176-1.367.738-1.036 2.703-1 5.215-.106-.309 1.227-.528 2.613-.645 4.11a27.486 27.486 0 0 0-1.996 1.804A18.945 18.945 0 0 1 4.371 9.8c.04-.038.078-.081.117-.12zm-1.36 8.718c-.198-.32-.276-.757-.198-1.277.203-1.27 1.215-2.883 2.765-4.547.61.621 1.282 1.235 2.004 1.832.117 1.512.336 2.91.645 4.153-2.5.898-4.43.902-5.215-.16zm11.763 3.922a.89.89 0 0 1-.88-.86.887.887 0 0 1 .88-.858c.12 0 .199 0 .32.039l.113.039a.88.88 0 0 1 .446.761c0 .48-.399.88-.88.88zm.16-2.558c-1-.121-1.883.68-1.883 1.68 0 .398.16.796.402 1.078-.441.44-.84.68-1.28.68-1.095 0-2.231-1.536-2.99-4.137.942-.375 1.962-.868 3.06-1.493a24.445 24.445 0 0 0 2.94 1.383c-.077.277-.163.547-.25.809zm6.48-1.16c-.16.238-.441.437-.883.52-.925.198-2.484-.017-4.367-.673.297-1.219.512-2.558.63-3.969a29.696 29.696 0 0 0 2.151-1.89c2.329 2.43 3.266 4.601 2.47 6.012zm0 0"/>
</svg>
