<svg xmlns="http://www.w3.org/2000/svg" width="32" height="32" viewBox="0 0 24 24">
    <path d="M2.8 5.602c-.679 0-1.198.52-1.198 1.199 0 .238.16.398.398.398.238 0 .398-.16.398-.398 0-.242.16-.403.403-.403.238 0 .398-.16.398-.398 0-.238-.16-.398-.398-.398zm0 0M12 13.602a2.783 2.783 0 0 0-2.8 2.796c0 .243.16.403.402.403.238 0 .398-.16.398-.403 0-1.117.879-2 2-2 .238 0 .398-.16.398-.398 0-.238-.16-.398-.398-.398zm0 0"/>
    <path d="M20.398 3.2a3.586 3.586 0 0 0-3.578 3.198H5.57A2.781 2.781 0 0 0 2.8 4 2.781 2.781 0 0 0 0 6.8c0 1.56 1.238 2.802 2.8 2.802.614 0 1.173-.192 1.634-.52L8.68 13.48l.011.012a4.382 4.382 0 0 0-1.09 2.906A4.386 4.386 0 0 0 12 20.801a4.386 4.386 0 0 0 4.398-4.403 4.395 4.395 0 0 0-1.203-3.03l.004-.009 3.153-3.593a3.598 3.598 0 0 0 2.046.632c2 0 3.602-1.597 3.602-3.597s-1.602-3.602-3.602-3.602zM.801 6.8c0-1.12.879-2 2-2 1.066 0 1.914.798 1.992 1.84a.335.335 0 0 0-.031.16c0 .56-.203 1.04-.602 1.438a.61.61 0 0 0-.078.106c-.344.285-.789.457-1.281.457-1.121 0-2-.88-2-2zM12 20c-2 0-3.602-1.602-3.602-3.602 0-1.015.415-1.93 1.086-2.582l.036-.015a3.617 3.617 0 0 1 2.304-.996c.059-.004.117-.004.176-.004a2.523 2.523 0 0 1 .29.011c.01 0 .026 0 .042.004.75.07 1.434.38 2.027.903.036.027.079.05.121.062a3.59 3.59 0 0 1 1.122 2.617C15.602 18.398 14 20 12 20zm2.602-7.2l-.028.024A4.388 4.388 0 0 0 12 12h-.117c-.973.02-1.903.336-2.645.96l-4.23-4.429c.304-.386.504-.855.57-1.37h11.223c.058.581.262 1.136.586 1.616.097.153.207.297.328.43zm5.796-3.198c-.71 0-1.355-.262-1.847-.692-.594-.558-.95-1.312-.95-2.11A2.78 2.78 0 0 1 20.399 4C21.961 4 23.2 5.238 23.2 6.8c0 1.56-1.238 2.802-2.8 2.802zm0 0"/>
    <path d="M20.398 4.8c-1.117 0-2 .88-2 2 0 .24.16.4.403.4.238 0 .398-.16.398-.4 0-.679.52-1.198 1.2-1.198.242 0 .402-.16.402-.403 0-.238-.16-.398-.403-.398zm0 0"/>
</svg>
