<svg xmlns="http://www.w3.org/2000/svg" width="32" height="32" viewBox="0 0 24 24">
    <path d="M 19.878906 14.03125 L 23.9375 7.492188 C 24.019531 7.371094 24.019531 7.207031 23.9375 7.085938 L 19.878906 0.222656 C 19.796875 0.101562 19.675781 0.0195312 19.511719 0.0195312 L 11.796875 0.0195312 C 11.632812 0.0195312 11.511719 0.101562 11.472656 0.222656 L 7.410156 7.085938 C 7.328125 7.207031 7.328125 7.371094 7.410156 7.492188 L 8.066406 8.546875 L 3.269531 8.546875 C 3.105469 8.546875 2.984375 8.628906 2.902344 8.75 L 0.0625 13.625 C -0.0195312 13.746094 -0.0195312 13.910156 0.0625 14.03125 L 2.902344 18.902344 C 2.984375 19.023438 3.105469 19.105469 3.269531 19.105469 L 8.707031 19.105469 L 11.429688 23.777344 C 11.511719 23.898438 11.632812 23.980469 11.796875 23.980469 L 17.480469 23.980469 C 17.644531 23.980469 17.765625 23.898438 17.808594 23.777344 L 20.648438 18.496094 C 20.730469 18.375 20.730469 18.214844 20.648438 18.089844 L 18.195312 14.234375 L 19.511719 14.234375 C 19.632812 14.234375 19.796875 14.152344 19.878906 14.03125 Z M 0.914062 13.828125 L 3.511719 9.359375 L 8.546875 9.359375 L 10.914062 13.128906 L 11.328125 13.800781 L 8.707031 18.292969 L 3.511719 18.292969 Z M 19.835938 18.292969 L 17.238281 23.167969 L 12.039062 23.167969 L 9.441406 18.699219 L 12.039062 14.234375 L 17.238281 14.234375 Z M 17.480469 13.421875 L 12.039062 13.421875 L 8.222656 7.289062 L 12.039062 0.832031 L 19.269531 0.832031 L 23.125 7.289062 L 19.308594 13.421875 Z M 17.480469 13.421875"/>
    <path d="M18.292969 1.644531L13.015625 1.644531C12.894531 1.644531 12.730469 1.726562 12.691406 1.847656L9.441406 7.125C9.320312 7.328125 9.359375 7.574219 9.5625 7.695312 9.605469 7.734375 9.683594 7.734375 9.765625 7.734375 9.886719 7.734375 10.050781 7.65625 10.132812 7.53125L13.257812 2.457031 18.292969 2.457031C18.539062 2.457031 18.699219 2.292969 18.699219 2.050781 18.699219 1.808594 18.539062 1.644531 18.292969 1.644531zM7.734375 10.171875L4.488281 10.171875C4.367188 10.171875 4.203125 10.253906 4.164062 10.335938L2.132812 13.582031C2.011719 13.785156 2.050781 14.03125 2.253906 14.152344 2.292969 14.234375 2.375 14.234375 2.457031 14.234375 2.578125 14.234375 2.742188 14.152344 2.824219 14.03125L4.730469 10.984375 7.734375 10.984375C7.980469 10.984375 8.140625 10.824219 8.140625 10.578125 8.140625 10.335938 7.980469 10.171875 7.734375 10.171875zM10.78125 19.105469C10.824219 19.148438 10.902344 19.148438 10.984375 19.148438 11.105469 19.148438 11.269531 19.066406 11.390625 18.945312L13.300781 15.859375 16.710938 15.859375C16.953125 15.859375 17.117188 15.695312 17.117188 15.453125 17.117188 15.207031 16.953125 15.046875 16.710938 15.046875L13.054688 15.046875C12.894531 15.046875 12.773438 15.125 12.691406 15.25L10.660156 18.539062C10.539062 18.742188 10.578125 18.984375 10.78125 19.105469zM10.78125 19.105469"/>
</svg>
