<svg xmlns="http://www.w3.org/2000/svg" width="32" height="32" viewBox="0 0 24 24">
    <path d="M22.926 1.074a3.68 3.68 0 0 0-5.2 0l-1.148 1.149c-1.265-1.27-3.355-1.27-4.625 0l-.86.859a.392.392 0 0 0 0 .57L13.98 6.54 2.54 17.98a3.628 3.628 0 0 0-.442.543 3 3 0 0 0-.141.243 3.818 3.818 0 0 0-.402 1.18 2.71 2.71 0 0 1-.344 1.008c-.11.183-.238.355-.39.507l-.454.453a.999.999 0 0 0-.324.535 1.067 1.067 0 0 0-.043.317v.007c0 .325.121.614.367.86.207.246.535.367.86.367.328 0 .656-.121.859-.367l.453-.453c.41-.367.941-.653 1.516-.735a3.643 3.643 0 0 0 1.965-.984L17.46 10.02l2.888 2.886a.37.37 0 0 0 .285.121.57.57 0 0 0 .285-.082l.86-.86a3.37 3.37 0 0 0 .945-2.331c0-.902-.328-1.719-.946-2.332l1.149-1.149a3.68 3.68 0 0 0 0-5.199zM3.93 21.625c-.739.125-1.434.45-1.965.984l-.45.45a.396.396 0 0 1-.574 0 .396.396 0 0 1 0-.575l.45-.449c.535-.531.859-1.226.984-1.965a2.67 2.67 0 0 1 .734-1.515l2.22-2.211h4.66L5.444 20.89c-.41.367-.941.652-1.515.734zM16.867 9.469l-6.058 6.058H6.152l8.422-8.394zm4.051-2.293a.37.37 0 0 0-.121.285c0 .121.039.203.121.285l.289.29c.488.448.734 1.062.734 1.718 0 .656-.285 1.27-.734 1.719l-.574.574-8.68-8.68.613-.574c.985-.941 2.54-.941 3.48 0l.29.289a.392.392 0 0 0 .57 0l1.434-1.434c1.105-1.105 2.95-1.105 4.055 0 1.105 1.106 1.105 2.946 0 4.051zm0 0"/>
    <path d="M20.348 1.605c-.453 0-1.067.083-1.516.536l-.82.816a.396.396 0 0 0 0 .574.372.372 0 0 0 .289.121.37.37 0 0 0 .285-.12l.82-.821c.242-.246.696-.285.942-.285s.695.039.941.285a.392.392 0 0 0 .57 0 .392.392 0 0 0 0-.57c-.449-.454-1.062-.536-1.511-.536zm0 0"/>
</svg>
