<svg xmlns="http://www.w3.org/2000/svg" width="32" height="32" viewBox="0 0 24 24">
    <path d="M5.18 9.602h2.398c.242 0 .402-.16.402-.403 0-.238-.16-.398-.402-.398H5.18c-.239 0-.399.16-.399.398 0 .242.16.403.399.403zm0 0M3.98 11.2h1.2c.242 0 .398-.16.398-.4 0-.241-.156-.402-.398-.402h-1.2c-.242 0-.402.16-.402.403 0 .238.16.398.402.398zm0 0M3.18 12.8h2.398c.242 0 .402-.16.402-.402 0-.238-.16-.398-.402-.398H3.18c-.239 0-.399.16-.399.398 0 .243.16.403.399.403zm0 0"/>
    <path d="M23.5 14.281a.578.578 0 0 0-.074-.18 11.596 11.596 0 0 0-7.446-8.98V3.125c.7-.203 1.2-.813 1.2-1.523C17.18.719 16.422 0 15.5 0h-7c-.96 0-1.719.719-1.719 1.602 0 .71.5 1.32 1.2 1.523v1.996C3.42 6.801.378 11.121.378 16a11.55 11.55 0 0 0 3.082 7.879c.078.082.16.121.277.121h16.48c.083 0 .204-.04.321-.078 2-2.16 3.082-4.961 3.082-7.883 0-.559-.043-1.16-.121-1.758zM7.578 1.601c0-.44.402-.8.922-.8h6.96c.52 0 .919.36.919.8 0 .438-.399.797-.879.797h-7c-.52 0-.922-.359-.922-.796zm.922 4.16a.392.392 0 0 0 .281-.363V3.2h6.399v2.2c0 .16.12.32.28.363 3.638 1.265 6.302 4.316 7.083 7.988-2.227-.66-3.75-.75-4.844.45-.277.32-1.078 1.32-3.48-.122-2.16-1.316-4.438-2.156-6.52.524-1.277 1.636-3.918 1.199-5.879-.082 0-.04-.039-.04-.039-.04-.152-.074-.3-.152-.46-.214.632-3.899 3.37-7.18 7.179-8.504zM20.02 23.2H3.94c-1.8-2-2.761-4.52-2.761-7.199 0-.129.004-.258.008-.387.007-.168.027-.336.074-.492.039.04.117.04.16.078 2.277 1.442 5.36 1.88 6.918-.12C9.94 13 11.62 13.44 13.82 14.761c2.442 1.476 3.801.758 4.48-.082.759-.88 1.876-.88 4.387-.082.016.105.028.214.04.324.03.371.054.738.054 1.078 0 2.68-1 5.2-2.761 7.2zm0 0"/>
</svg>
