<svg xmlns="http://www.w3.org/2000/svg" width="32" height="32" viewBox="0 0 24 24">
    <path d="M 21.601562 5.601562 L 19.125 5.601562 L 19.53125 3.199219 C 19.554688 3.199219 19.578125 3.199219 19.601562 3.199219 C 20.480469 3.199219 21.199219 2.480469 21.199219 1.601562 C 21.199219 0.71875 20.480469 0 19.601562 0 C 18.71875 0 18 0.71875 18 1.601562 C 18 2.167969 18.300781 2.667969 18.746094 2.953125 L 18.296875 5.601562 L 2.398438 5.601562 C 2.160156 5.601562 2 5.761719 2 6 C 2 6.238281 2.160156 6.398438 2.398438 6.398438 L 3.199219 6.398438 L 3.199219 20.800781 C 3.199219 22.558594 4.640625 24 6.398438 24 L 18.800781 24 C 20.800781 24 20.800781 22.238281 20.800781 20.800781 L 20.800781 6.398438 L 21.601562 6.398438 C 21.839844 6.398438 22 6.238281 22 6 C 22 5.761719 21.839844 5.601562 21.601562 5.601562 Z M 19.601562 0.800781 C 20.039062 0.800781 20.398438 1.160156 20.398438 1.601562 C 20.398438 2.039062 20.039062 2.398438 19.601562 2.398438 C 19.535156 2.398438 19.46875 2.390625 19.40625 2.375 C 19.367188 2.347656 19.324219 2.328125 19.28125 2.320312 C 19.269531 2.316406 19.257812 2.316406 19.246094 2.316406 C 18.984375 2.183594 18.800781 1.914062 18.800781 1.601562 C 18.800781 1.160156 19.160156 0.800781 19.601562 0.800781 Z M 18.164062 6.398438 L 16.515625 16.121094 C 16.109375 16.339844 15.730469 16.589844 15.398438 16.921875 C 13.761719 18.441406 11.441406 17.238281 9.921875 15.71875 C 8.28125 14.257812 5.820312 14.003906 4 14.984375 L 4 6.398438 Z M 20 20.800781 C 20 22.601562 19.839844 23.199219 18.800781 23.199219 L 6.398438 23.199219 C 5.078125 23.199219 4 22.121094 4 20.800781 L 4 15.921875 C 5.519531 14.839844 7.921875 15 9.359375 16.320312 C 11.078125 18.078125 13.839844 19.441406 15.921875 17.519531 C 16.054688 17.386719 16.195312 17.269531 16.339844 17.160156 L 15.601562 21.519531 C 15.558594 21.761719 15.71875 21.960938 15.921875 22 C 15.960938 22 15.960938 22 16 22 C 16.199219 22 16.359375 21.878906 16.398438 21.679688 L 17.257812 16.625 C 17.355469 16.574219 17.457031 16.527344 17.558594 16.480469 L 17.800781 16.359375 C 18.480469 15.960938 19.238281 15.71875 20 15.640625 Z M 20 14.828125 C 19.097656 14.914062 18.207031 15.1875 17.441406 15.640625 L 17.421875 15.652344 L 18.988281 6.398438 L 20 6.398438 Z M 20 14.828125"/>
    <path d="M10.398438 8.800781L13.601562 8.800781C13.839844 8.800781 14 8.640625 14 8.398438 14 8.160156 13.839844 8 13.601562 8L10.398438 8C10.160156 8 10 8.160156 10 8.398438 10 8.640625 10.160156 8.800781 10.398438 8.800781zM10.398438 11.199219L13.601562 11.199219C13.839844 11.199219 14 11.039062 14 10.800781 14 10.558594 13.839844 10.398438 13.601562 10.398438L10.398438 10.398438C10.160156 10.398438 10 10.558594 10 10.800781 10 11.039062 10.160156 11.199219 10.398438 11.199219zM10.398438 13.601562L13.601562 13.601562C13.839844 13.601562 14 13.441406 14 13.199219 14 12.960938 13.839844 12.800781 13.601562 12.800781L10.398438 12.800781C10.160156 12.800781 10 12.960938 10 13.199219 10 13.441406 10.160156 13.601562 10.398438 13.601562zM10.398438 13.601562"/>
</svg>
