<svg xmlns="http://www.w3.org/2000/svg" width="32" height="32" viewBox="0 0 24 24">
    <path d="M 22.800781 20.851562 L 22.800781 7.109375 C 22.871094 7.070312 22.9375 7.019531 23 6.960938 C 23.121094 6.800781 23.199219 6.601562 23.199219 6.398438 L 23.199219 4.039062 C 23.199219 3.839844 23.121094 3.601562 23 3.441406 C 22.9375 3.378906 22.871094 3.328125 22.800781 3.292969 L 22.800781 1.601562 C 22.800781 1.359375 22.640625 1.199219 22.398438 1.199219 L 19.601562 1.199219 C 19.359375 1.199219 19.199219 1.359375 19.199219 1.601562 L 19.199219 3.308594 C 18.960938 3.449219 18.800781 3.707031 18.800781 4 L 14.800781 4 L 14.800781 3.601562 C 14.800781 3.359375 14.640625 3.199219 14.398438 3.199219 L 13.601562 3.199219 L 13.601562 2.335938 C 14.074219 2.175781 14.398438 1.738281 14.398438 1.199219 C 14.398438 0.519531 13.878906 0 13.199219 0 L 7.601562 0 C 6.921875 0 6.398438 0.519531 6.398438 1.199219 C 6.398438 1.738281 6.726562 2.175781 7.199219 2.335938 L 7.199219 3.199219 L 6.398438 3.199219 C 6.160156 3.199219 6 3.359375 6 3.601562 L 6 6.800781 C 6 7.039062 6.160156 7.199219 6.398438 7.199219 L 7.199219 7.199219 L 7.199219 7.601562 C 5.398438 8.566406 4.164062 10.230469 3.753906 12.15625 C 3.734375 12.191406 3.71875 12.234375 3.71875 12.28125 C 3.65625 12.636719 3.617188 12.992188 3.605469 13.347656 C 3.605469 13.359375 3.605469 13.371094 3.605469 13.382812 C 3.601562 13.453125 3.601562 13.527344 3.601562 13.601562 C 3.601562 17.359375 6.640625 20.398438 10.398438 20.398438 C 10.457031 20.398438 10.515625 20.398438 10.574219 20.398438 C 14.253906 20.304688 17.199219 17.300781 17.199219 13.601562 C 17.199219 11.078125 15.839844 8.800781 13.601562 7.601562 L 13.601562 7.199219 L 14.398438 7.199219 C 14.640625 7.199219 14.800781 7.039062 14.800781 6.800781 L 14.800781 6.398438 L 18.800781 6.398438 C 18.800781 6.695312 18.960938 6.953125 19.199219 7.089844 L 19.199219 20.800781 L 1.601562 20.800781 C 0.71875 20.800781 0 21.519531 0 22.398438 C 0 23.28125 0.71875 24 1.601562 24 L 10 24 C 10.121094 24 10.199219 23.960938 10.28125 23.878906 L 10.960938 23.199219 L 13.441406 23.199219 L 14.121094 23.878906 C 14.199219 23.960938 14.28125 24 14.398438 24 L 22.398438 24 C 23.28125 24 24 23.28125 24 22.398438 C 24 21.65625 23.488281 21.03125 22.800781 20.851562 Z M 19.601562 6 L 19.601562 4 L 22.398438 4 L 22.398438 6.398438 L 19.601562 6.398438 Z M 20 2 L 22 2 L 22 3.199219 L 20 3.199219 Z M 7.601562 0.800781 L 13.199219 0.800781 C 13.441406 0.800781 13.601562 0.960938 13.601562 1.199219 C 13.601562 1.441406 13.441406 1.601562 13.199219 1.601562 L 7.601562 1.601562 C 7.359375 1.601562 7.199219 1.441406 7.199219 1.199219 C 7.199219 0.960938 7.359375 0.800781 7.601562 0.800781 Z M 6.800781 4 L 7.601562 4 L 7.601562 6.398438 L 6.800781 6.398438 Z M 4.398438 13.601562 C 4.398438 13.554688 4.402344 13.511719 4.402344 13.46875 C 4.410156 13.203125 4.441406 12.933594 4.476562 12.640625 C 4.476562 12.625 4.480469 12.613281 4.480469 12.597656 C 6.042969 11.640625 8.28125 11.839844 9.71875 13.078125 C 11.441406 14.839844 14.238281 16.199219 16.28125 14.28125 C 16.320312 14.238281 16.320312 14.238281 16.359375 14.199219 C 16.296875 14.90625 16.105469 15.578125 15.816406 16.191406 C 15.019531 17.859375 13.476562 19.097656 11.613281 19.476562 C 11.613281 19.476562 11.609375 19.480469 11.605469 19.480469 C 11.5625 19.488281 11.519531 19.496094 11.472656 19.503906 C 11.46875 19.503906 11.460938 19.507812 11.453125 19.507812 C 11.414062 19.515625 11.375 19.523438 11.332031 19.527344 C 11.324219 19.53125 11.3125 19.53125 11.300781 19.53125 C 11.265625 19.539062 11.226562 19.542969 11.191406 19.546875 C 11.175781 19.550781 11.164062 19.550781 11.152344 19.554688 C 11.117188 19.558594 11.082031 19.5625 11.046875 19.566406 C 11.03125 19.566406 11.015625 19.570312 11 19.570312 C 10.96875 19.574219 10.933594 19.578125 10.902344 19.578125 C 10.882812 19.582031 10.867188 19.582031 10.851562 19.582031 C 10.816406 19.585938 10.785156 19.585938 10.75 19.589844 C 10.734375 19.589844 10.71875 19.589844 10.703125 19.59375 C 10.667969 19.59375 10.632812 19.59375 10.597656 19.597656 C 10.582031 19.597656 10.566406 19.597656 10.550781 19.597656 C 10.5 19.597656 10.449219 19.601562 10.398438 19.601562 C 7.078125 19.601562 4.398438 16.921875 4.398438 13.601562 Z M 13.039062 8.199219 C 14.980469 9.167969 16.222656 11.007812 16.382812 13.132812 C 16.136719 13.316406 15.914062 13.484375 15.71875 13.679688 C 14.078125 15.199219 11.761719 14 10.238281 12.480469 C 8.738281 11.183594 6.511719 10.847656 4.746094 11.570312 C 5.257812 10.125 6.316406 8.921875 7.761719 8.199219 C 7.921875 8.121094 8 8 8 7.839844 L 8 7.199219 C 8.238281 7.199219 8.398438 7.039062 8.398438 6.800781 L 8.398438 3.601562 C 8.398438 3.359375 8.238281 3.199219 8 3.199219 L 8 2.398438 L 12.800781 2.398438 L 12.800781 3.199219 C 12.558594 3.199219 12.398438 3.359375 12.398438 3.601562 L 12.398438 6.800781 C 12.398438 7.039062 12.558594 7.199219 12.800781 7.199219 L 12.800781 7.839844 C 12.800781 8 12.878906 8.160156 13.039062 8.199219 Z M 14 6.398438 L 13.199219 6.398438 L 13.199219 4 L 14 4 Z M 14.800781 5.601562 L 14.800781 4.800781 L 18.800781 4.800781 L 18.800781 5.601562 Z M 20 7.199219 L 22 7.199219 L 22 20.800781 L 20 20.800781 Z M 22.398438 23.199219 L 14.558594 23.199219 L 13.878906 22.519531 C 13.800781 22.441406 13.71875 22.398438 13.601562 22.398438 L 10.800781 22.398438 C 10.679688 22.398438 10.601562 22.441406 10.519531 22.519531 L 9.839844 23.199219 L 1.601562 23.199219 C 1.160156 23.199219 0.800781 22.839844 0.800781 22.398438 C 0.800781 21.960938 1.160156 21.601562 1.601562 21.601562 L 22.398438 21.601562 C 22.839844 21.601562 23.199219 21.960938 23.199219 22.398438 C 23.199219 22.839844 22.839844 23.199219 22.398438 23.199219 Z M 22.398438 23.199219"/>
</svg>
