<svg xmlns="http://www.w3.org/2000/svg" width="32" height="32" viewBox="0 0 24 24">
    <path d="M10.379 5.602h2.402c.239 0 .399-.16.399-.403 0-.238-.16-.398-.399-.398H10.38c-.238 0-.399.16-.399.398 0 .242.16.403.399.403zm0 0M10.379 7.2h1.2c.241 0 .401-.16.401-.4 0-.241-.16-.402-.402-.402h-1.2c-.237 0-.398.16-.398.403 0 .238.16.398.399.398zm0 0M10.379 8.8h2.402c.239 0 .399-.16.399-.402 0-.238-.16-.398-.399-.398H10.38c-.238 0-.399.16-.399.398 0 .243.16.403.399.403zm0 0M10.379 10.398h1.2c.241 0 .401-.16.401-.398 0-.238-.16-.398-.402-.398h-1.2c-.237 0-.398.16-.398.398 0 .238.16.398.399.398zm0 0"/>
    <path d="M18.82 19.16c0-.2-.039-.398-.039-.601a.358.358 0 0 0-.054-.184 6.905 6.905 0 0 0-3.149-4.934V3.148a1.604 1.604 0 0 0 1.203-1.546C16.781.719 16.06 0 15.18 0H8.78C7.898 0 7.18.719 7.18 1.602c0 .742.511 1.367 1.199 1.546v10.293c-1.945 1.23-3.18 3.407-3.2 5.707V19.2c0 1.76.68 3.402 1.88 4.679.082.082.16.121.28.121h9.282c.117 0 .2-.04.277-.121.008-.004.012-.008.016-.012a.091.091 0 0 1 .027-.027c1.2-1.281 1.88-2.918 1.88-4.68zM7.98 1.602c0-.442.36-.801.801-.801h6.399c.441 0 .8.36.8.8 0 .438-.359.797-.8.797H8.78c-.441 0-.8-.359-.8-.796zm1 12.437c.122-.078.2-.2.2-.36V3.2h5.64v10.442c0 .16.078.28.2.359a6.096 6.096 0 0 1 2.886 4.063c-1.742-.333-3.226.105-4.125 1.257-1.601 2.078-3.32 1.68-5.52.32-.66-.331-1.488-.69-2.269-.812.13-1.98 1.258-3.808 2.988-4.789zm7.48 9.16H7.54a6.23 6.23 0 0 1-1.075-1.672 5.335 5.335 0 0 1-.406-1.886c.601.12 1.32.437 1.84.718 2.16 1.32 4.44 2.16 6.523-.52.719-.917 2.035-1.237 3.594-.882.004.082.004.164.004.242 0 1.48-.56 2.88-1.56 4zm0 0"/>
</svg>
