<svg xmlns="http://www.w3.org/2000/svg" width="32" height="32" viewBox="0 0 24 24">
    <path d="M 23.875 2.515625 L 23.285156 1.929688 L 22.113281 0.753906 L 21.484375 0.125 C 21.316406 -0.0429688 21.0625 -0.0429688 20.894531 0.125 C 20.726562 0.292969 20.726562 0.546875 20.894531 0.714844 L 21.230469 1.050781 L 18.546875 3.734375 L 17.035156 2.222656 C 16.867188 2.054688 16.617188 2.054688 16.449219 2.222656 L 15.273438 3.398438 C 15.1875 3.484375 15.148438 3.566406 15.148438 3.691406 C 15.148438 3.816406 15.1875 3.902344 15.273438 3.984375 L 15.566406 4.28125 L 13.175781 6.671875 L 8.726562 11.117188 L 6.042969 13.804688 C 5.875 13.972656 5.875 14.222656 6.042969 14.390625 L 6.964844 15.316406 L 6.082031 16.195312 L 4.824219 17.453125 C 4.453125 17.828125 4.378906 18.367188 4.609375 18.800781 L 0.125 23.285156 C -0.0429688 23.453125 -0.0429688 23.707031 0.125 23.875 C 0.210938 23.957031 0.292969 24 0.417969 24 C 0.546875 24 0.628906 23.957031 0.714844 23.875 L 5.179688 19.410156 C 5.359375 19.527344 5.574219 19.59375 5.789062 19.59375 C 6.125 19.59375 6.378906 19.46875 6.585938 19.21875 L 8.726562 17.078125 L 9.609375 17.957031 C 9.691406 18.042969 9.777344 18.082031 9.902344 18.082031 C 10.027344 18.082031 10.113281 18.042969 10.195312 17.957031 L 19.71875 8.433594 L 20.015625 8.726562 C 20.097656 8.8125 20.183594 8.851562 20.308594 8.851562 C 20.390625 8.851562 20.515625 8.8125 20.601562 8.726562 L 21.777344 7.550781 C 21.945312 7.382812 21.945312 7.132812 21.777344 6.964844 L 20.308594 5.496094 L 22.992188 2.8125 L 23.285156 3.105469 C 23.371094 3.1875 23.453125 3.230469 23.582031 3.230469 C 23.664062 3.230469 23.789062 3.1875 23.875 3.105469 C 24.042969 2.9375 24.042969 2.683594 23.875 2.515625 Z M 15.273438 8.140625 L 17.328125 6.082031 L 17.917969 6.671875 L 15.859375 8.726562 Z M 16.152344 4.910156 L 16.761719 5.515625 L 14.683594 7.59375 L 14.054688 6.964844 Z M 6 18.628906 C 5.917969 18.753906 5.707031 18.753906 5.582031 18.628906 L 5.414062 18.460938 C 5.285156 18.378906 5.285156 18.167969 5.414062 18.042969 L 6.378906 17.078125 L 6.964844 17.664062 Z M 7.550781 17.035156 L 6.964844 16.449219 L 7.53125 15.882812 L 8.117188 16.46875 Z M 9.945312 17.078125 L 6.964844 14.097656 L 9.042969 12.019531 L 10.195312 13.175781 C 10.28125 13.257812 10.363281 13.300781 10.488281 13.300781 C 10.617188 13.300781 10.742188 13.257812 10.785156 13.175781 C 10.949219 13.007812 10.949219 12.753906 10.785156 12.585938 L 9.628906 11.433594 L 10.53125 10.53125 L 11.707031 11.707031 C 11.789062 11.789062 11.875 11.832031 12 11.832031 C 12.082031 11.832031 12.210938 11.789062 12.292969 11.707031 C 12.460938 11.539062 12.460938 11.285156 12.292969 11.117188 L 11.117188 9.945312 L 12 9.0625 L 13.175781 10.238281 C 13.257812 10.320312 13.34375 10.363281 13.46875 10.363281 C 13.59375 10.363281 13.679688 10.320312 13.761719 10.238281 C 13.929688 10.070312 13.929688 9.816406 13.761719 9.648438 L 12.585938 8.476562 L 13.488281 7.574219 L 14.390625 8.476562 L 15.566406 9.648438 L 16.46875 10.550781 Z M 17.035156 9.945312 L 16.449219 9.355469 L 18.523438 7.28125 L 19.132812 7.886719 Z M 20.308594 7.847656 L 20.015625 7.550781 L 18.839844 6.378906 L 17.664062 5.203125 L 16.449219 3.984375 L 16.152344 3.691406 L 16.742188 3.105469 L 18.25 4.617188 L 19.425781 5.789062 L 20.894531 7.257812 Z M 19.679688 4.867188 L 19.386719 4.574219 L 19.089844 4.28125 L 21.777344 1.59375 L 22.363281 2.183594 Z M 19.679688 4.867188"/>
</svg>
