<svg xmlns="http://www.w3.org/2000/svg" width="32" height="32" viewBox="0 0 24 24">
    <path d="M22.445312 2.453125L21.875 1.878906 20.6875.695312 20.117188.121094C19.953125-.0390625 19.707031-.0390625 19.542969.121094 19.378906.285156 19.378906.53125 19.542969.695312L19.832031.984375 18.375 2.472656 17.5 1.59375C17.335938 1.429688 17.089844 1.429688 16.925781 1.59375L15.78125 2.738281C15.617188 2.902344 15.617188 3.148438 15.78125 3.3125L14.351562 4.742188C14.308594 4.785156 14.277344 4.828125 14.257812 4.878906L10.140625 8.996094 10.015625 9.117188C9.527344 9.566406 9.28125 10.179688 9.28125 10.835938 9.28125 11.066406 9.316406 11.292969 9.382812 11.507812L8.300781 12.59375C8.261719 12.632812 8.230469 12.675781 8.210938 12.722656L7.03125 13.902344C6.675781 14.257812 6.605469 14.765625 6.8125 15.1875L2.738281 19.257812C2.574219 19.421875 2.574219 19.625 2.738281 19.789062 2.820312 19.871094 2.902344 19.910156 3.027344 19.910156 3.148438 19.910156 3.230469 19.871094 3.269531 19.789062L7.304688 15.753906C7.496094 15.902344 7.734375 15.984375 7.972656 15.984375 8.257812 15.984375 8.546875 15.863281 8.75 15.617188L9.976562 14.390625C10.015625 14.351562 10.046875 14.308594 10.066406 14.261719L11.117188 13.210938C11.316406 13.261719 11.523438 13.289062 11.734375 13.289062 12.386719 13.289062 13 13.042969 13.492188 12.550781L17.828125 8.257812C17.867188 8.21875 17.894531 8.175781 17.914062 8.128906L19.257812 6.785156C19.339844 6.867188 19.421875 6.910156 19.542969 6.910156 19.667969 6.910156 19.746094 6.867188 19.828125 6.785156L20.972656 5.640625C21.136719 5.480469 21.136719 5.234375 20.972656 5.070312L20.117188 4.210938 21.585938 2.738281 21.875 3.027344C21.957031 3.105469 22.039062 3.148438 22.160156 3.148438 22.242188 3.148438 22.363281 3.105469 22.445312 3.027344 22.609375 2.863281 22.609375 2.617188 22.445312 2.453125zM16.355469 3.882812L16.660156 4.191406 15.515625 5.335938 15.210938 5.027344zM16.027344 8.871094L11.40625 8.871094 14.636719 5.640625 15.160156 6.15625C15.175781 6.175781 15.191406 6.195312 15.210938 6.214844L16.355469 7.359375C16.394531 7.398438 16.433594 7.425781 16.476562 7.449219L16.96875 7.933594zM16.089844 5.90625L17.214844 4.785156 17.785156 5.355469 16.660156 6.480469zM8.21875 15.085938C8.09375 15.210938 7.890625 15.210938 7.769531 15.085938L7.605469 14.921875C7.480469 14.839844 7.480469 14.636719 7.605469 14.515625L8.546875 13.574219 9.160156 14.148438zM9.691406 13.410156L9.117188 12.839844 9.730469 12.226562C9.773438 12.347656 9.851562 12.46875 9.976562 12.550781 10.035156 12.59375 10.085938 12.632812 10.136719 12.671875 10.1875 12.71875 10.238281 12.765625 10.292969 12.808594zM10.589844 11.980469C10.460938 11.867188 10.355469 11.726562 10.277344 11.574219 10.257812 11.53125 10.238281 11.488281 10.222656 11.449219 10.21875 11.433594 10.210938 11.421875 10.203125 11.410156 10.132812 11.222656 10.097656 11.023438 10.097656 10.835938 10.097656 10.425781 10.261719 10.015625 10.589844 9.691406 11.042969 9.691406 15.210938 9.691406 15.210938 9.691406L12.921875 11.980469C12.265625 12.632812 11.242188 12.632812 10.589844 11.980469zM17.539062 7.359375L17.234375 7.054688 18.378906 5.90625 18.683594 6.214844zM19.542969 5.929688L16.640625 3.027344 17.214844 2.453125 20.117188 5.355469zM19.542969 3.597656L18.972656 3.027344 20.402344 1.59375 20.972656 2.167969zM3.269531 20.523438C3.105469 20.359375 2.863281 20.359375 2.699219 20.523438L1.878906 21.34375C1.59375 21.628906 1.429688 22.039062 1.429688 22.445312 1.429688 22.855469 1.59375 23.265625 1.878906 23.550781 2.167969 23.835938 2.574219 24 2.984375 24 3.394531 24 3.800781 23.835938 4.089844 23.550781 4.375 23.265625 4.539062 22.855469 4.539062 22.445312 4.539062 22.039062 4.375 21.628906 4.089844 21.34375zM3.515625 22.976562C3.230469 23.265625 2.738281 23.265625 2.453125 22.976562 2.332031 22.8125 2.25 22.652344 2.25 22.445312 2.25 22.242188 2.332031 22.039062 2.453125 21.914062L2.984375 21.382812 3.515625 21.914062C3.640625 22.078125 3.71875 22.242188 3.71875 22.445312 3.71875 22.652344 3.640625 22.855469 3.515625 22.976562zM3.515625 22.976562"/>
</svg>
