<svg xmlns="http://www.w3.org/2000/svg" width="32" height="32" viewBox="0 0 24 24">
    <path d="M23.199219 23.199219L22.800781 23.199219 22.800781 22.257812C22.800781 20.84375 22.0625 19.558594 20.871094 18.800781 22.0625 18.042969 22.800781 16.757812 22.800781 15.34375L22.800781 14.398438 23.199219 14.398438C23.421875 14.398438 23.601562 14.222656 23.601562 14 23.601562 13.777344 23.421875 13.601562 23.199219 13.601562L16 13.601562C15.777344 13.601562 15.601562 13.777344 15.601562 14 15.601562 14.222656 15.777344 14.398438 16 14.398438L16.398438 14.398438 16.398438 15.34375C16.398438 16.757812 17.136719 18.042969 18.332031 18.800781 17.136719 19.558594 16.398438 20.84375 16.398438 22.257812L16.398438 23.199219 16 23.199219C15.777344 23.199219 15.601562 23.378906 15.601562 23.601562 15.601562 23.820312 15.777344 24 16 24L23.199219 24C23.421875 24 23.601562 23.820312 23.601562 23.601562 23.601562 23.378906 23.421875 23.199219 23.199219 23.199219zM17.199219 15.34375L17.199219 14.398438 22 14.398438 22 15.34375C22 16.671875 21.1875 17.863281 19.921875 18.398438L19.277344 18.398438C18.011719 17.863281 17.199219 16.671875 17.199219 15.34375zM17.199219 22.257812C17.199219 20.929688 18.011719 19.738281 19.277344 19.199219L19.921875 19.199219C21.1875 19.738281 22 20.929688 22 22.257812L22 23.199219 17.199219 23.199219zM9.003906 7.199219L13.398438 7.199219C14.171875 7.199219 14.800781 6.570312 14.800781 5.796875L14.800781 5.199219C14.800781 4.980469 14.621094 4.800781 14.398438 4.800781 14.179688 4.800781 14 4.980469 14 5.199219L14 5.796875C14 6.128906 13.730469 6.398438 13.398438 6.398438L9.003906 6.398438C8.671875 6.398438 8.398438 6.128906 8.398438 5.796875L8.398438 5.199219C8.398438 4.980469 8.222656 4.800781 8 4.800781 7.777344 4.800781 7.601562 4.980469 7.601562 5.199219L7.601562 5.796875C7.601562 6.570312 8.230469 7.199219 9.003906 7.199219zM8 16.398438C7.777344 16.398438 7.601562 16.578125 7.601562 16.800781L7.601562 17.398438C7.601562 18.171875 8.230469 18.800781 9.003906 18.800781L12 18.800781C12.222656 18.800781 12.398438 18.621094 12.398438 18.398438 12.398438 18.179688 12.222656 18 12 18L9.003906 18C8.671875 18 8.398438 17.730469 8.398438 17.398438L8.398438 16.800781C8.398438 16.578125 8.222656 16.398438 8 16.398438zM8 16.398438"/>
    <path d="M 13.601562 23.199219 L 1.53125 23.199219 C 1.347656 23.199219 1.199219 23.050781 1.199219 22.867188 L 1.199219 12.398438 L 21.601562 12.398438 C 21.820312 12.398438 22 12.222656 22 12 L 22 1.132812 C 22 0.507812 21.492188 0 20.867188 0 L 1.53125 0 C 0.910156 0 0.398438 0.507812 0.398438 1.132812 L 0.398438 22.867188 C 0.398438 23.492188 0.910156 24 1.53125 24 L 13.601562 24 C 13.820312 24 14 23.820312 14 23.601562 C 14 23.378906 13.820312 23.199219 13.601562 23.199219 Z M 1.53125 0.800781 L 20.867188 0.800781 C 21.050781 0.800781 21.199219 0.949219 21.199219 1.132812 L 21.199219 11.601562 L 1.199219 11.601562 L 1.199219 1.132812 C 1.199219 0.949219 1.347656 0.800781 1.53125 0.800781 Z M 1.53125 0.800781"/>
</svg>
