<svg xmlns="http://www.w3.org/2000/svg" width="32" height="32" viewBox="0 0 24 24">
    <path d="M23.29 23.324l-2.388-2.5a4.284 4.284 0 0 0 1.13-2.898 4.318 4.318 0 1 0-8.637 0 4.318 4.318 0 0 0 4.316 4.316 4.29 4.29 0 0 0 2.598-.875l2.402 2.508a.4.4 0 1 0 .578-.55zm-9.099-5.398a3.523 3.523 0 0 1 3.52-3.52 3.523 3.523 0 0 1 3.52 3.52 3.523 3.523 0 0 1-3.52 3.52 3.523 3.523 0 0 1-3.52-3.52zm0 0M9.203 7.2h4.395C14.37 7.2 15 6.57 15 5.796v-.598a.4.4 0 0 0-.8 0v.598c0 .332-.27.601-.602.601H9.203a.602.602 0 0 1-.601-.601v-.598a.401.401 0 0 0-.801 0v.598c0 .773.629 1.402 1.402 1.402zm0 0M8.2 16.398a.401.401 0 0 0-.4.403v.597c0 .774.63 1.403 1.403 1.403H12.2a.401.401 0 0 0 0-.8l-2.996-.001a.602.602 0 0 1-.601-.602v-.597a.402.402 0 0 0-.403-.403zm0 0"/>
    <path d="M13.398 23.2H1.734a.335.335 0 0 1-.336-.333V12.398h20v2a.401.401 0 0 0 .8 0L22.2 1.133C22.2.508 21.691 0 21.066 0H1.734C1.11 0 .602.508.602 1.133v21.734c0 .625.507 1.133 1.132 1.133h11.664a.401.401 0 1 0 0-.8zM1.734.8h19.332c.184 0 .332.15.332.333v10.469h-20V1.132c0-.183.153-.331.336-.331zm0 0"/>
</svg>
