<svg xmlns="http://www.w3.org/2000/svg" width="32" height="32" viewBox="0 0 24 24">
    <path d="M14 14.398438L14 24 23.601562 24 23.601562 14.398438zM22.800781 23.199219L14.800781 23.199219 14.800781 15.199219 18.398438 15.199219 18.398438 20.234375 16.683594 18.515625 16.117188 19.082031 18.800781 21.765625 21.484375 19.082031 20.917969 18.515625 19.199219 20.234375 19.199219 15.199219 22.800781 15.199219zM9 7.199219L13.398438 7.199219C14.171875 7.199219 14.800781 6.570312 14.800781 5.796875L14.800781 5.199219C14.800781 4.980469 14.621094 4.800781 14.398438 4.800781 14.179688 4.800781 14 4.980469 14 5.199219L14 5.796875C14 6.128906 13.730469 6.398438 13.398438 6.398438L9 6.398438C8.671875 6.398438 8.398438 6.128906 8.398438 5.796875L8.398438 5.199219C8.398438 4.980469 8.222656 4.800781 8 4.800781 7.777344 4.800781 7.601562 4.980469 7.601562 5.199219L7.601562 5.796875C7.601562 6.570312 8.230469 7.199219 9 7.199219zM12 18L9 18C8.671875 18 8.398438 17.730469 8.398438 17.398438L8.398438 16.800781C8.398438 16.578125 8.222656 16.398438 8 16.398438 7.777344 16.398438 7.601562 16.578125 7.601562 16.800781L7.601562 17.398438C7.601562 18.171875 8.230469 18.800781 9 18.800781L12 18.800781C12.222656 18.800781 12.398438 18.621094 12.398438 18.398438 12.398438 18.179688 12.222656 18 12 18zM12 18"/>
    <path d="M 11.601562 23.199219 L 1.53125 23.199219 C 1.347656 23.199219 1.199219 23.050781 1.199219 22.867188 L 1.199219 12.398438 L 21.199219 12.398438 L 21.199219 13.199219 C 21.199219 13.421875 21.378906 13.601562 21.601562 13.601562 C 21.820312 13.601562 22 13.421875 22 13.199219 L 22 1.132812 C 22 0.507812 21.492188 0 20.867188 0 L 1.53125 0 C 0.910156 0 0.398438 0.507812 0.398438 1.132812 L 0.398438 22.867188 C 0.398438 23.492188 0.910156 24 1.53125 24 L 11.601562 24 C 11.820312 24 12 23.820312 12 23.601562 C 12 23.378906 11.820312 23.199219 11.601562 23.199219 Z M 1.53125 0.800781 L 20.867188 0.800781 C 21.050781 0.800781 21.199219 0.949219 21.199219 1.132812 L 21.199219 11.601562 L 1.199219 11.601562 L 1.199219 1.132812 C 1.199219 0.949219 1.347656 0.800781 1.53125 0.800781 Z M 1.53125 0.800781"/>
</svg>
