<svg xmlns="http://www.w3.org/2000/svg" width="32" height="32" viewBox="0 0 24 24">
    <path d="M 23.03125 17.199219 C 21.527344 14.902344 19.515625 13.605469 17.351562 13.519531 C 17.234375 13.503906 17.121094 13.496094 17 13.496094 C 16.789062 13.496094 16.585938 13.519531 16.386719 13.558594 C 14.417969 13.816406 12.605469 15.082031 11.21875 17.199219 L 11.015625 17.503906 L 11.171875 17.738281 C 12.730469 20.117188 14.828125 21.429688 17.078125 21.429688 C 19.328125 21.429688 21.425781 20.117188 22.984375 17.738281 L 23.183594 17.433594 Z M 19.105469 16.457031 C 19.105469 17.617188 18.160156 18.558594 17 18.558594 C 15.839844 18.558594 14.894531 17.617188 14.894531 16.457031 C 14.894531 15.453125 15.605469 14.613281 16.546875 14.402344 C 16.738281 14.382812 16.929688 14.367188 17.125 14.367188 C 17.136719 14.367188 17.144531 14.367188 17.15625 14.367188 C 18.242188 14.449219 19.105469 15.347656 19.105469 16.457031 Z M 17.078125 20.570312 C 15.199219 20.570312 13.417969 19.484375 12.046875 17.503906 C 12.714844 16.523438 13.480469 15.757812 14.308594 15.230469 C 14.136719 15.605469 14.039062 16.019531 14.039062 16.457031 C 14.039062 18.089844 15.367188 19.417969 17 19.417969 C 18.632812 19.417969 19.960938 18.089844 19.960938 16.457031 C 19.960938 15.933594 19.824219 15.445312 19.585938 15.019531 C 20.53125 15.539062 21.40625 16.351562 22.15625 17.4375 C 20.777344 19.460938 18.980469 20.570312 17.078125 20.570312 Z M 17.078125 20.570312"/>
    <path d="M 8.101562 16.445312 L 1.671875 22.871094 L 1.671875 5.570312 L 14.53125 5.570312 L 14.53125 11.570312 C 14.53125 11.808594 14.722656 12 14.957031 12 C 15.195312 12 15.386719 11.808594 15.386719 11.570312 L 15.386719 0 L 0.816406 0 L 0.816406 23.332031 C 0.816406 23.605469 0.976562 23.84375 1.226562 23.949219 C 1.308594 23.984375 1.394531 24 1.484375 24 C 1.65625 24 1.824219 23.933594 1.953125 23.804688 L 8.101562 17.65625 L 9.558594 19.113281 C 9.726562 19.28125 9.996094 19.28125 10.164062 19.113281 C 10.332031 18.945312 10.332031 18.675781 10.164062 18.507812 Z M 1.671875 0.855469 L 14.53125 0.855469 L 14.53125 4.714844 L 1.671875 4.714844 Z M 1.671875 0.855469"/>
</svg>
