<svg xmlns="http://www.w3.org/2000/svg" width="32" height="32" viewBox="0 0 24 24">
    <path d="M22.152 22.559l-5.074-8.704a.956.956 0 0 0-1.656 0l-5.078 8.704a.95.95 0 0 0-.004.96c.176.301.484.481.832.481h10.152c.348 0 .66-.18.832-.48a.941.941 0 0 0-.004-.961zm-.738.535c-.012.023-.039.05-.09.05H11.172a.093.093 0 0 1-.086-.05c-.016-.028-.027-.063 0-.106l5.074-8.699a.096.096 0 0 1 .09-.05c.027 0 .063.007.086.05l5.078 8.7c.023.042.012.077 0 .105zm0 0"/>
    <path d="M16.285 16.285a.428.428 0 0 0-.43.43v3.43c0 .234.192.425.43.425s.43-.191.43-.425v-3.43a.428.428 0 0 0-.43-.43zm0 0M15.98 21.555a.436.436 0 0 0-.125.3c0 .114.047.223.125.305a.435.435 0 0 0 .61 0 .428.428 0 0 0 0-.605.446.446 0 0 0-.61 0zm0 0M11.063 19.113a.427.427 0 0 0 0-.605L9 16.445l-6.43 6.426v-17.3h12.86v6a.428.428 0 1 0 .855 0V0H1.715v23.332a.668.668 0 0 0 .668.668.66.66 0 0 0 .469-.195L9 17.656l1.457 1.457a.427.427 0 0 0 .605 0zM2.57.855h12.86v3.86H2.57zm0 0"/>
</svg>
