<svg xmlns="http://www.w3.org/2000/svg" width="32" height="32" viewBox="0 0 24 24">
    <path d="M22.602 23.266l-2.559-2.676a4.606 4.606 0 0 0 1.207-3.106 4.634 4.634 0 0 0-4.629-4.629 4.633 4.633 0 0 0-4.625 4.63 4.63 4.63 0 0 0 4.625 4.624 4.62 4.62 0 0 0 2.79-.937l2.57 2.687c.081.09.195.133.308.133.11 0 .215-.039.297-.117a.435.435 0 0 0 .016-.61zm-9.75-5.782a3.774 3.774 0 0 1 3.77-3.77 3.775 3.775 0 0 1 3.773 3.77 3.775 3.775 0 0 1-3.774 3.77 3.774 3.774 0 0 1-3.77-3.77zm0 0"/>
    <path d="M8.566 16.445l-6.43 6.43V5.57h12.86v5.145a.428.428 0 1 0 .856 0V0H1.282v23.332a.664.664 0 0 0 1.136.473l6.148-6.149 1.457 1.457a.431.431 0 0 0 .61 0 .434.434 0 0 0 0-.605zM2.136.855h12.86v3.86H2.136zm0 0"/>
</svg>
