<svg xmlns="http://www.w3.org/2000/svg" width="32" height="32" viewBox="0 0 24 24">
    <path d="M23.852 19.07c-1.45-2.215-3.383-3.46-5.47-3.543a3.162 3.162 0 0 0-.335-.023c-.2 0-.399.023-.586.062-1.895.246-3.645 1.465-4.977 3.504l-.191.293.145.227c1.5 2.289 3.519 3.55 5.687 3.55 2.164 0 4.184-1.261 5.684-3.55l.191-.293zm-3.778-.715a2.026 2.026 0 0 1-4.05 0c0-.968.683-1.777 1.59-1.976a5.22 5.22 0 0 1 .554-.035h.023a2.025 2.025 0 0 1 1.883 2.011zm-1.949 3.961c-1.813 0-3.523-1.046-4.844-2.953.64-.945 1.38-1.68 2.176-2.187-.164.36-.258.758-.258 1.18a2.85 2.85 0 0 0 5.7 0c0-.504-.133-.973-.36-1.383.906.496 1.75 1.28 2.473 2.324-1.328 1.95-3.059 3.02-4.887 3.02zm0 0"/>
    <path d="M14.848 13.445h3.71V8.906H2.888v11.961h8.25v-7.422zm0-3.715h2.886v2.887h-2.886zm-7.426 0h2.887v2.887H7.422zm-3.711 0h2.887v2.887H3.71zm0 3.715h2.887v2.887H3.71zm2.887 6.598H3.71v-2.887h2.887zm3.71 0H7.423v-2.887h2.887zm0-3.711H7.423v-2.887h2.887zm.829-3.715V9.73h2.886v2.887zm0 0"/>
    <path d="M10.723 22.93H.824V6.844h19.797v7.011a.412.412 0 1 0 .824 0V2.31a.414.414 0 0 0-.414-.414H18.97V.66a.411.411 0 0 0-.41-.414h-2.887a.414.414 0 0 0-.414.414v1.235h-9.07V.66a.414.414 0 0 0-.415-.414H2.887a.414.414 0 0 0-.414.414v1.235H.414A.414.414 0 0 0 0 2.309v21.03c0 .231.184.415.414.415h10.309a.414.414 0 0 0 .414-.414.413.413 0 0 0-.414-.41zm5.359-21.86h2.063v2.477h-2.063zm-12.781 0h2.058v2.477H3.301zM.824 2.723h1.649v1.234c0 .23.187.414.414.414h2.886a.414.414 0 0 0 .415-.414V2.723h9.07v1.234c0 .23.187.414.414.414h2.887c.226 0 .41-.184.41-.414V2.723h1.652V6.02H.824zm0 0"/>
</svg>
