<svg xmlns="http://www.w3.org/2000/svg" width="32" height="32" viewBox="0 0 24 24">
    <path d="M 22.34375 16.136719 L 22.34375 15.722656 C 22.34375 14.128906 21.046875 12.828125 19.449219 12.828125 C 17.851562 12.828125 16.550781 14.128906 16.550781 15.722656 L 16.550781 16.136719 L 14.898438 16.136719 L 14.898438 23.585938 L 24 23.585938 L 24 16.136719 Z M 17.378906 15.722656 C 17.378906 14.582031 18.308594 13.65625 19.449219 13.65625 C 20.589844 13.65625 21.515625 14.582031 21.515625 15.722656 L 21.515625 16.136719 L 17.378906 16.136719 Z M 23.171875 22.757812 L 15.722656 22.757812 L 15.722656 16.964844 L 23.171875 16.964844 Z M 23.171875 22.757812"/>
    <path d="M19.449219 18.207031C18.535156 18.207031 17.792969 18.949219 17.792969 19.863281 17.792969 20.632812 18.324219 21.273438 19.035156 21.457031L19.035156 21.929688C19.035156 22.160156 19.21875 22.34375 19.449219 22.34375 19.675781 22.34375 19.863281 22.160156 19.863281 21.929688L19.863281 21.457031C20.574219 21.273438 21.101562 20.632812 21.101562 19.863281 21.101562 18.949219 20.359375 18.207031 19.449219 18.207031zM19.449219 20.691406C18.992188 20.691406 18.621094 20.320312 18.621094 19.863281 18.621094 19.40625 18.992188 19.035156 19.449219 19.035156 19.90625 19.035156 20.277344 19.40625 20.277344 19.863281 20.277344 20.320312 19.90625 20.691406 19.449219 20.691406zM7.472656 16.996094L7.472656 7.449219 6.644531 7.449219 4.550781 8.691406 4.550781 9.515625 6.644531 8.277344 6.644531 16.996094zM14.921875 10.484375C14.921875 9.640625 14.625 8.925781 14.039062 8.335938 13.449219 7.746094 12.734375 7.453125 11.894531 7.453125 11.054688 7.453125 10.339844 7.746094 9.75 8.335938 9.164062 8.925781 8.867188 9.636719 8.867188 10.476562 8.867188 11.320312 9.164062 12.03125 9.75 12.621094 10.339844 13.210938 11.066406 13.503906 11.9375 13.503906 12.804688 13.503906 13.539062 13.183594 14.136719 12.535156L14.136719 13.425781C14.136719 14.316406 13.875 14.992188 13.351562 15.453125 12.832031 15.914062 12.214844 16.144531 11.5 16.144531L11.195312 16.144531 11.195312 16.929688 11.445312 16.929688C12.082031 16.929688 12.636719 16.816406 13.109375 16.59375 13.585938 16.371094 13.945312 16.082031 14.191406 15.730469 14.675781 15.046875 14.917969 14.3125 14.917969 13.523438L14.917969 10.484375zM13.488281 12.074219C13.058594 12.503906 12.527344 12.71875 11.902344 12.71875 11.273438 12.71875 10.742188 12.503906 10.308594 12.074219 9.871094 11.640625 9.652344 11.113281 9.652344 10.484375 9.652344 9.859375 9.871094 9.328125 10.308594 8.890625 10.742188 8.453125 11.273438 8.234375 11.894531 8.234375 12.515625 8.234375 13.046875 8.445312 13.480469 8.867188 13.917969 9.292969 14.136719 9.824219 14.136719 10.464844 14.136719 11.105469 13.921875 11.640625 13.488281 12.074219zM13.488281 12.074219"/>
    <path d="M 12.828125 19.035156 L 0.828125 19.035156 L 0.828125 5.378906 L 20.277344 5.378906 L 20.277344 11.171875 C 20.277344 11.402344 20.460938 11.585938 20.691406 11.585938 C 20.917969 11.585938 21.101562 11.402344 21.101562 11.171875 L 21.101562 0.414062 L 0 0.414062 L 0 19.449219 C 0 19.675781 0.183594 19.863281 0.414062 19.863281 L 12.828125 19.863281 C 13.054688 19.863281 13.242188 19.675781 13.242188 19.449219 C 13.242188 19.21875 13.054688 19.035156 12.828125 19.035156 Z M 14.484375 1.242188 L 20.277344 1.242188 L 20.277344 4.550781 L 14.484375 4.550781 Z M 7.863281 1.242188 L 13.65625 1.242188 L 13.65625 4.550781 L 7.863281 4.550781 Z M 0.828125 1.242188 L 7.035156 1.242188 L 7.035156 4.550781 L 0.828125 4.550781 Z M 0.828125 1.242188"/>
</svg>
