<svg xmlns="http://www.w3.org/2000/svg" width="32" height="32" viewBox="0 0 24 24">
    <path d="M22.137 19.172c-.176-1.7-1.594-3.035-3.29-3.035a3.31 3.31 0 0 0-2.683 1.41 1.902 1.902 0 0 0-.363-.031c-.961 0-1.813.652-2.098 1.578a2.653 2.653 0 0 0-1.289 2.273c0 1.453 1.152 2.633 2.57 2.633h4.457c.028 0 .051 0 .07-.004.028.004.052.004.079.004h1.785c1.332 0 2.418-1.113 2.418-2.477 0-1.078-.68-2.02-1.656-2.351zm-.766 4h-1.797l-.078-.004-4.512.004c-.96 0-1.742-.809-1.742-1.805 0-.687.39-1.328 1-1.625l.18-.09.043-.195c.137-.648.7-1.117 1.336-1.117.14 0 .285.027.422.07l.32.11.168-.293c.453-.79 1.254-1.262 2.137-1.262 1.351 0 2.465 1.137 2.48 2.535l.004.336.332.062c.754.149 1.3.829 1.3 1.622 0 .914-.714 1.652-1.593 1.652zm0 0M15.102 13.242h3.726v-4.55H3.102v12h8.277v-3.727h3.723zm0-3.726H18v2.898h-2.898zm-3.723 0h2.898v2.898H11.38zm-3.723 0h2.895v2.898H7.656zm2.895 6.62H7.656v-2.894h2.895zM3.93 9.517h2.898v2.898H3.93zm0 3.726h2.898v2.895H3.93zm2.898 6.621H3.93v-2.898h2.898zm3.723 0H7.656v-2.898h2.895zm3.726-3.726H11.38v-2.895h2.898zm0 0"/>
    <path d="M10.965 22.758h-9.93V6.62h19.863v7.035c0 .227.184.414.41.414.231 0 .415-.187.415-.414V2.07a.412.412 0 0 0-.414-.414h-2.067V.414A.414.414 0 0 0 18.828 0H15.93a.414.414 0 0 0-.414.414v1.242H6.414V.414A.412.412 0 0 0 6 0H3.102a.411.411 0 0 0-.41.414v1.242H.621a.412.412 0 0 0-.415.414v21.102c0 .23.184.414.414.414h10.344a.414.414 0 0 0 0-.828zM16.344.828h2.07v2.48h-2.07zm-12.828 0h2.07v2.48h-2.07zm-2.48 1.656H2.69v1.239c0 .23.184.414.41.414H6c.23 0 .414-.184.414-.414V2.484h9.102v1.239c0 .23.187.414.414.414h2.898a.414.414 0 0 0 .414-.414V2.484h1.656v3.309H1.035zm0 0"/>
</svg>
