<svg xmlns="http://www.w3.org/2000/svg" width="32" height="32" viewBox="0 0 24 24">
    <path d="M 21.152344 14.023438 L 21.152344 2.035156 C 21.152344 1.808594 20.96875 1.628906 20.746094 1.628906 L 18.710938 1.628906 L 18.710938 0.40625 C 18.710938 0.183594 18.53125 0 18.304688 0 L 15.457031 0 C 15.234375 0 15.050781 0.183594 15.050781 0.40625 L 15.050781 1.628906 L 6.101562 1.628906 L 6.101562 0.40625 C 6.101562 0.183594 5.917969 0 5.695312 0 L 2.847656 0 C 2.621094 0 2.441406 0.183594 2.441406 0.40625 L 2.441406 1.628906 L 0.40625 1.628906 C 0.183594 1.628906 0 1.808594 0 2.035156 L 0 22.78125 C 0 23.003906 0.183594 23.1875 0.40625 23.1875 L 15.90625 23.1875 C 16.722656 23.699219 17.679688 24 18.710938 24 C 21.628906 24 24 21.628906 24 18.710938 C 24 16.675781 22.84375 14.910156 21.152344 14.023438 Z M 15.863281 0.8125 L 17.898438 0.8125 L 17.898438 3.253906 L 15.863281 3.253906 Z M 3.253906 0.8125 L 5.289062 0.8125 L 5.289062 3.253906 L 3.253906 3.253906 Z M 0.8125 2.441406 L 2.441406 2.441406 L 2.441406 3.660156 C 2.441406 3.886719 2.621094 4.066406 2.847656 4.066406 L 5.695312 4.066406 C 5.917969 4.066406 6.101562 3.886719 6.101562 3.660156 L 6.101562 2.441406 L 15.050781 2.441406 L 15.050781 3.660156 C 15.050781 3.886719 15.234375 4.066406 15.457031 4.066406 L 18.304688 4.066406 C 18.53125 4.066406 18.710938 3.886719 18.710938 3.660156 L 18.710938 2.441406 L 20.339844 2.441406 L 20.339844 5.695312 L 0.8125 5.695312 Z M 0.8125 22.371094 L 0.8125 6.507812 L 20.339844 6.507812 L 20.339844 13.683594 C 20.257812 13.65625 20.179688 13.636719 20.097656 13.613281 C 20.019531 13.59375 19.945312 13.574219 19.871094 13.554688 C 19.800781 13.539062 19.730469 13.527344 19.660156 13.511719 C 19.5625 13.496094 19.464844 13.480469 19.363281 13.46875 C 19.308594 13.460938 19.253906 13.453125 19.195312 13.449219 C 19.035156 13.433594 18.875 13.421875 18.710938 13.421875 C 18.574219 13.421875 18.441406 13.433594 18.304688 13.445312 L 18.304688 8.542969 L 2.847656 8.542969 L 2.847656 20.339844 L 13.683594 20.339844 C 13.695312 20.375 13.707031 20.410156 13.722656 20.445312 C 13.753906 20.542969 13.789062 20.644531 13.828125 20.738281 C 13.851562 20.792969 13.878906 20.84375 13.902344 20.898438 C 13.949219 21 13.996094 21.105469 14.050781 21.203125 C 14.074219 21.246094 14.101562 21.289062 14.125 21.332031 C 14.183594 21.4375 14.246094 21.542969 14.3125 21.644531 C 14.339844 21.679688 14.367188 21.714844 14.390625 21.75 C 14.464844 21.851562 14.535156 21.953125 14.617188 22.050781 C 14.644531 22.085938 14.675781 22.121094 14.707031 22.15625 C 14.769531 22.226562 14.828125 22.304688 14.898438 22.375 L 0.8125 22.375 Z M 16.398438 13.964844 C 16.355469 13.984375 16.308594 14.003906 16.265625 14.027344 C 16.191406 14.066406 16.117188 14.109375 16.042969 14.15625 C 15.976562 14.191406 15.914062 14.230469 15.851562 14.269531 C 15.785156 14.3125 15.722656 14.355469 15.660156 14.398438 C 15.589844 14.449219 15.523438 14.5 15.457031 14.554688 C 15.402344 14.597656 15.347656 14.640625 15.292969 14.683594 C 15.222656 14.742188 15.15625 14.808594 15.085938 14.871094 C 15.039062 14.917969 14.992188 14.957031 14.945312 15.003906 C 14.871094 15.078125 14.804688 15.160156 14.734375 15.238281 C 14.703125 15.273438 14.671875 15.300781 14.644531 15.335938 L 14.644531 13.015625 L 17.492188 13.015625 L 17.492188 13.570312 C 17.484375 13.574219 17.476562 13.574219 17.472656 13.578125 C 17.097656 13.667969 16.738281 13.796875 16.398438 13.964844 Z M 13.65625 17.164062 C 13.640625 17.210938 13.632812 17.261719 13.617188 17.308594 C 13.585938 17.425781 13.554688 17.542969 13.527344 17.664062 C 13.507812 17.757812 13.5 17.855469 13.484375 17.949219 C 13.472656 18.027344 13.457031 18.101562 13.449219 18.179688 C 13.433594 18.355469 13.421875 18.535156 13.421875 18.710938 C 13.421875 18.859375 13.433594 19.007812 13.445312 19.15625 C 13.449219 19.183594 13.449219 19.210938 13.449219 19.238281 C 13.457031 19.304688 13.46875 19.367188 13.480469 19.433594 C 13.484375 19.464844 13.484375 19.496094 13.488281 19.527344 L 10.984375 19.527344 L 10.984375 16.679688 L 13.832031 16.679688 C 13.828125 16.691406 13.824219 16.699219 13.820312 16.710938 C 13.757812 16.859375 13.703125 17.011719 13.65625 17.164062 Z M 3.660156 16.679688 L 6.507812 16.679688 L 6.507812 19.527344 L 3.660156 19.527344 Z M 3.660156 13.015625 L 6.507812 13.015625 L 6.507812 15.863281 L 3.660156 15.863281 Z M 17.492188 12.203125 L 14.644531 12.203125 L 14.644531 9.355469 L 17.492188 9.355469 Z M 13.832031 12.203125 L 10.984375 12.203125 L 10.984375 9.355469 L 13.832031 9.355469 Z M 13.832031 15.863281 L 10.984375 15.863281 L 10.984375 13.015625 L 13.832031 13.015625 Z M 7.320312 13.015625 L 10.167969 13.015625 L 10.167969 15.863281 L 7.320312 15.863281 Z M 10.167969 12.203125 L 7.320312 12.203125 L 7.320312 9.355469 L 10.167969 9.355469 Z M 6.507812 12.203125 L 3.660156 12.203125 L 3.660156 9.355469 L 6.507812 9.355469 Z M 7.320312 16.679688 L 10.167969 16.679688 L 10.167969 19.527344 L 7.320312 19.527344 Z M 18.710938 23.1875 C 17.792969 23.1875 16.9375 22.90625 16.226562 22.429688 C 16.089844 22.339844 15.957031 22.238281 15.832031 22.132812 C 15.789062 22.09375 15.746094 22.054688 15.703125 22.015625 C 15.625 21.941406 15.546875 21.867188 15.472656 21.789062 C 15.425781 21.738281 15.378906 21.6875 15.332031 21.636719 C 15.265625 21.558594 15.203125 21.480469 15.144531 21.398438 C 15.105469 21.347656 15.0625 21.296875 15.027344 21.246094 C 14.9375 21.113281 14.851562 20.980469 14.777344 20.839844 C 14.757812 20.808594 14.746094 20.773438 14.730469 20.742188 C 14.667969 20.625 14.613281 20.507812 14.566406 20.386719 C 14.542969 20.332031 14.527344 20.277344 14.507812 20.226562 C 14.46875 20.117188 14.433594 20.011719 14.402344 19.902344 C 14.394531 19.875 14.390625 19.851562 14.382812 19.824219 C 14.335938 19.644531 14.304688 19.46875 14.277344 19.292969 C 14.277344 19.277344 14.273438 19.265625 14.273438 19.253906 C 14.25 19.070312 14.238281 18.890625 14.238281 18.710938 C 14.238281 18.558594 14.246094 18.40625 14.261719 18.253906 C 14.261719 18.242188 14.265625 18.226562 14.265625 18.214844 C 14.28125 18.078125 14.300781 17.9375 14.332031 17.800781 C 14.332031 17.789062 14.339844 17.777344 14.339844 17.761719 C 14.371094 17.628906 14.40625 17.496094 14.445312 17.363281 C 14.453125 17.347656 14.457031 17.332031 14.464844 17.316406 C 14.503906 17.1875 14.550781 17.0625 14.605469 16.9375 C 14.65625 16.824219 14.710938 16.707031 14.769531 16.597656 L 14.808594 16.527344 C 14.828125 16.5 14.847656 16.472656 14.863281 16.441406 C 14.933594 16.324219 15.007812 16.207031 15.089844 16.097656 C 15.109375 16.066406 15.128906 16.039062 15.152344 16.015625 C 15.222656 15.917969 15.300781 15.824219 15.382812 15.734375 C 15.410156 15.703125 15.4375 15.671875 15.46875 15.640625 C 15.546875 15.554688 15.628906 15.476562 15.714844 15.398438 C 15.746094 15.371094 15.777344 15.339844 15.808594 15.316406 C 15.910156 15.230469 16.011719 15.148438 16.121094 15.070312 C 16.136719 15.058594 16.15625 15.046875 16.171875 15.03125 C 16.703125 14.667969 17.3125 14.414062 17.964844 14.304688 L 17.976562 14.304688 C 18.214844 14.261719 18.460938 14.238281 18.710938 14.238281 C 18.871094 14.238281 19.027344 14.246094 19.183594 14.261719 C 19.207031 14.265625 19.230469 14.269531 19.257812 14.273438 C 19.390625 14.289062 19.523438 14.308594 19.652344 14.339844 C 19.671875 14.34375 19.6875 14.347656 19.703125 14.351562 C 19.839844 14.382812 19.980469 14.421875 20.117188 14.464844 C 20.125 14.46875 20.136719 14.472656 20.144531 14.476562 C 20.285156 14.523438 20.421875 14.578125 20.5625 14.640625 C 22.105469 15.347656 23.1875 16.90625 23.1875 18.710938 C 23.1875 21.179688 21.179688 23.1875 18.710938 23.1875 Z M 18.710938 23.1875"/>
    <path d="M 21.152344 18.335938 L 19.117188 18.335938 L 19.117188 16.304688 C 19.117188 16.078125 18.9375 15.898438 18.710938 15.898438 C 18.488281 15.898438 18.304688 16.078125 18.304688 16.304688 L 18.304688 18.335938 L 16.269531 18.335938 C 16.046875 18.335938 15.863281 18.519531 15.863281 18.746094 C 15.863281 18.96875 16.046875 19.152344 16.269531 19.152344 L 18.304688 19.152344 L 18.304688 21.183594 C 18.304688 21.410156 18.488281 21.59375 18.710938 21.59375 C 18.9375 21.59375 19.117188 21.410156 19.117188 21.183594 L 19.117188 19.152344 L 21.152344 19.152344 C 21.378906 19.152344 21.558594 18.96875 21.558594 18.746094 C 21.558594 18.519531 21.378906 18.335938 21.152344 18.335938 Z M 21.152344 18.335938"/>
</svg>
