<svg xmlns="http://www.w3.org/2000/svg" width="32" height="32" viewBox="0 0 24 24">
    <path d="M14.398 14.398V24H24v-9.602zM23.2 23.2h-8v-8h3.602v4.637l-1.719-1.719-.566.567 2.683 2.683 2.684-2.683-.567-.567-1.714 1.719v-4.637h3.597zm0 0M7.223 16.031v-9.23h-.801L4.398 8v.8l2.024-1.198v8.43zm0 0M14.422 9.734c0-.816-.285-1.507-.852-2.078a2.836 2.836 0 0 0-2.074-.851c-.812 0-1.5.285-2.07.851-.57.57-.852 1.262-.852 2.074 0 .813.281 1.5.852 2.07.57.571 1.273.856 2.113.856.84 0 1.547-.312 2.125-.937v.86c0 .862-.25 1.515-.758 1.96a2.608 2.608 0 0 1-1.789.668h-.293v.758h.239c.617 0 1.152-.11 1.613-.324.457-.215.804-.493 1.043-.832.469-.664.703-1.375.703-2.137zm-1.383 1.536c-.418.418-.93.625-1.535.625a2.101 2.101 0 0 1-1.54-.625 2.067 2.067 0 0 1-.636-1.536c0-.605.211-1.117.637-1.539a2.088 2.088 0 0 1 1.531-.633c.602 0 1.113.204 1.535.61.426.41.633.922.633 1.543 0 .62-.207 1.137-.625 1.555zm0 0"/>
    <path d="M11.2 18H.8V4.8h18.802V12c0 .223.175.398.398.398a.395.395 0 0 0 .398-.398V0H0v18.398c0 .223.18.403.398.403H11.2a.401.401 0 0 0 0-.8zM14 .8h5.602V4H14zM7.602.8h5.597V4H7.602zM.8.8h6V4h-6zm0 0"/>
</svg>
