<svg xmlns="http://www.w3.org/2000/svg" width="32" height="32" viewBox="0 0 24 24">
    <path d="M23.977 17.941a.411.411 0 0 0-.332-.28l-3.16-.442-1.415-2.758c-.136-.27-.582-.27-.722 0l-1.41 2.758-3.165.441a.406.406 0 1 0-.223.7l2.282 2.144-.539 3.02a.405.405 0 0 0 .16.394c.125.094.29.11.426.039l2.832-1.437 2.832 1.437a.436.436 0 0 0 .184.043.394.394 0 0 0 .242-.082.405.405 0 0 0 .16-.395l-.54-3.02 2.278-2.144a.406.406 0 0 0 .11-.418zM20.87 20.06a.405.405 0 0 0-.121.367l.434 2.437-2.29-1.16a.389.389 0 0 0-.367 0l-2.289 1.16.43-2.437a.395.395 0 0 0-.121-.367l-1.82-1.711 2.53-.352a.405.405 0 0 0 .305-.219l1.149-2.238 1.144 2.238c.06.118.176.2.305.22l2.531.35zm0 0"/>
    <path d="M14.645 13.012h3.66V8.539H2.852v11.793h8.132v-3.66h3.66zm0-3.66h2.843v2.847h-2.843zm-3.66 0h2.847v2.847h-2.848zm-3.66 0h2.847v2.847H7.324zm2.847 6.507H7.324v-2.847h2.848zM3.664 9.352h2.848v2.847H3.664zm0 3.66h2.848v2.847H3.664zm2.848 6.508H3.664v-2.848h2.848zm3.66 0H7.324v-2.848h2.848zm3.66-3.66h-2.848v-2.848h2.848zm0 0"/>
    <path d="M10.578 22.367H.816V6.507h19.52v6.911a.406.406 0 1 0 .812 0V2.035c0-.226-.18-.41-.406-.41h-2.031V.406A.408.408 0 0 0 18.305 0h-2.848a.406.406 0 0 0-.406.406v1.219H6.105V.406A.41.41 0 0 0 5.695 0H2.852a.406.406 0 0 0-.407.406v1.219H.41a.41.41 0 0 0-.406.41v20.738c0 .223.183.407.406.407h10.168a.406.406 0 1 0 0-.813zM15.863.812h2.035v2.442h-2.035zm-12.605 0h2.031v2.442H3.258zM.816 2.442h1.63V3.66c0 .223.179.406.406.406h2.843a.41.41 0 0 0 .41-.406V2.441h8.946v1.22c0 .222.18.405.406.405h2.848a.408.408 0 0 0 .406-.406V2.441h1.625v3.25H.816zm0 0"/>
</svg>
