<svg xmlns="http://www.w3.org/2000/svg" width="32" height="32" viewBox="0 0 24 24">
    <path d="M14.398438 14.398438L14.398438 24 24 24 24 14.398438zM23.199219 23.199219L15.199219 23.199219 15.199219 15.199219 18.800781 15.199219 18.800781 19.835938 17.082031 18.117188 16.515625 18.683594 19.199219 21.367188 21.882812 18.683594 21.316406 18.117188 19.601562 19.835938 19.601562 15.199219 23.199219 15.199219zM7.222656 16.03125L7.222656 6.800781 6.421875 6.800781 4.398438 8 4.398438 8.800781 6.421875 7.601562 6.421875 16.03125zM14.421875 9.734375C14.421875 8.917969 14.136719 8.226562 13.570312 7.65625 13 7.089844 12.308594 6.804688 11.496094 6.804688 10.683594 6.804688 9.996094 7.089844 9.425781 7.65625 8.855469 8.226562 8.574219 8.917969 8.574219 9.730469 8.574219 10.542969 8.855469 11.230469 9.425781 11.800781 9.996094 12.371094 10.699219 12.65625 11.539062 12.65625 12.378906 12.65625 13.085938 12.34375 13.664062 11.71875L13.664062 12.578125C13.664062 13.441406 13.414062 14.09375 12.90625 14.539062 12.402344 14.984375 11.808594 15.207031 11.117188 15.207031L10.824219 15.207031 10.824219 15.964844 11.0625 15.964844C11.679688 15.964844 12.214844 15.855469 12.675781 15.640625 13.132812 15.425781 13.480469 15.148438 13.71875 14.808594 14.1875 14.144531 14.421875 13.433594 14.421875 12.671875zM13.039062 11.269531C12.621094 11.6875 12.109375 11.894531 11.503906 11.894531 10.898438 11.894531 10.386719 11.6875 9.964844 11.269531 9.539062 10.851562 9.328125 10.339844 9.328125 9.734375 9.328125 9.128906 9.539062 8.617188 9.964844 8.195312 10.386719 7.773438 10.898438 7.5625 11.496094 7.5625 12.097656 7.5625 12.609375 7.765625 13.03125 8.171875 13.457031 8.582031 13.664062 9.09375 13.664062 9.714844 13.664062 10.335938 13.457031 10.851562 13.039062 11.269531zM13.039062 11.269531"/>
    <path d="M 11.199219 18 L 0.800781 18 L 0.800781 4.800781 L 19.601562 4.800781 L 19.601562 12 C 19.601562 12.222656 19.777344 12.398438 20 12.398438 C 20.222656 12.398438 20.398438 12.222656 20.398438 12 L 20.398438 0 L 0 0 L 0 18.398438 C 0 18.621094 0.179688 18.800781 0.398438 18.800781 L 11.199219 18.800781 C 11.421875 18.800781 11.601562 18.621094 11.601562 18.398438 C 11.601562 18.179688 11.421875 18 11.199219 18 Z M 14 0.800781 L 19.601562 0.800781 L 19.601562 4 L 14 4 Z M 7.601562 0.800781 L 13.199219 0.800781 L 13.199219 4 L 7.601562 4 Z M 0.800781 0.800781 L 6.800781 0.800781 L 6.800781 4 L 0.800781 4 Z M 0.800781 0.800781"/>
</svg>
