<svg xmlns="http://www.w3.org/2000/svg" width="32" height="32" viewBox="0 0 24 24">
    <path d="M15.5 19.223a4.299 4.299 0 0 0 1.129-2.899 4.324 4.324 0 0 0-4.317-4.32 4.324 4.324 0 0 0-4.32 4.32 4.324 4.324 0 0 0 4.32 4.317c.977 0 1.876-.328 2.598-.88l2.402 2.512a.4.4 0 0 0 .29.125c.097 0 .195-.039.273-.113a.401.401 0 0 0 .016-.566zM8.793 16.32a3.522 3.522 0 0 1 3.52-3.515 3.52 3.52 0 0 1 3.515 3.515 3.522 3.522 0 0 1-3.515 3.52 3.523 3.523 0 0 1-3.52-3.52zm0 0"/>
    <path d="M20.39 8.082c-.21-3.602-3.18-6.477-6.757-6.477-2.172 0-4.274 1.063-5.578 2.801-.028-.015-.063-.027-.09-.039a6.613 6.613 0 0 0-.242-.11c-.047-.015-.094-.034-.137-.05a4.67 4.67 0 0 0-.25-.074c-.043-.012-.09-.028-.137-.035a2.24 2.24 0 0 0-.273-.051c-.043-.008-.082-.016-.121-.02A3.602 3.602 0 0 0 2.8 7.605c0 .051.004.102.008.153C1.145 8.664 0 10.562 0 12.465a5.146 5.146 0 0 0 5.137 5.14.401.401 0 0 0 0-.8A4.342 4.342 0 0 1 .8 12.465c0-1.66 1.082-3.387 2.574-4.102l.227-.11v-.25c0-.046 0-.097.003-.144l.004-.074-.004-.078c-.003-.035-.003-.07-.003-.102a2.8 2.8 0 0 1 2.796-2.8c.125 0 .247.008.368.027l.093.012c.11.02.211.043.317.07l.043.012c.113.035.222.078.332.129.031.011.058.027.086.039a2.799 2.799 0 0 1 1.562 2.512.401.401 0 0 0 .801 0c0-1.102-.5-2.09-1.281-2.75 1.148-1.5 3.035-2.454 4.914-2.454 3.097 0 5.672 2.457 5.941 5.555a7.7 7.7 0 0 0-1.633.05.401.401 0 0 0 .059.798c.02 0 .04-.004.059-.004.894-.137 1.82-.012 1.875-.004 1.863.355 3.265 2.07 3.265 3.996a4.015 4.015 0 0 1-4.012 4.012.401.401 0 0 0 0 .8A4.82 4.82 0 0 0 24 12.793c0-2.195-1.531-4.164-3.61-4.711zm0 0"/>
</svg>
