<svg xmlns="http://www.w3.org/2000/svg" width="32" height="32" viewBox="0 0 24 24">
    <path d="M 17.273438 16.34375 L 16.699219 16.234375 C 16.425781 16.183594 16.214844 16.003906 16.113281 15.746094 C 16.011719 15.492188 16.046875 15.214844 16.210938 14.992188 L 16.574219 14.5 C 16.691406 14.339844 16.671875 14.121094 16.535156 13.980469 L 15.75 13.195312 C 15.613281 13.0625 15.402344 13.042969 15.242188 13.148438 L 14.757812 13.476562 C 14.527344 13.632812 14.25 13.660156 13.996094 13.546875 C 13.746094 13.4375 13.574219 13.21875 13.535156 12.945312 L 13.441406 12.339844 C 13.410156 12.144531 13.242188 12 13.046875 12 L 11.9375 12 C 11.746094 12 11.582031 12.136719 11.546875 12.324219 L 11.402344 13.070312 C 11.351562 13.335938 11.179688 13.546875 10.929688 13.648438 C 10.679688 13.753906 10.410156 13.726562 10.1875 13.574219 L 9.558594 13.148438 C 9.398438 13.042969 9.1875 13.0625 9.050781 13.195312 L 8.265625 13.980469 C 8.125 14.121094 8.109375 14.339844 8.226562 14.5 L 8.589844 14.996094 C 8.753906 15.21875 8.789062 15.492188 8.6875 15.75 C 8.585938 16.003906 8.371094 16.183594 8.101562 16.234375 L 7.523438 16.34375 C 7.335938 16.382812 7.199219 16.546875 7.199219 16.738281 L 7.199219 17.847656 C 7.199219 18.042969 7.34375 18.210938 7.539062 18.242188 L 8.144531 18.335938 C 8.417969 18.375 8.636719 18.546875 8.75 18.796875 C 8.859375 19.050781 8.832031 19.328125 8.679688 19.558594 L 8.347656 20.042969 C 8.242188 20.203125 8.261719 20.414062 8.398438 20.550781 L 9.179688 21.335938 C 9.320312 21.472656 9.539062 21.492188 9.699219 21.375 L 10.195312 21.011719 C 10.417969 20.847656 10.691406 20.8125 10.949219 20.914062 C 11.207031 21.015625 11.382812 21.226562 11.433594 21.5 L 11.546875 22.074219 C 11.582031 22.261719 11.746094 22.398438 11.9375 22.398438 L 13.046875 22.398438 C 13.242188 22.398438 13.410156 22.257812 13.441406 22.0625 L 13.507812 21.636719 C 13.550781 21.359375 13.726562 21.132812 13.984375 21.027344 C 14.242188 20.917969 14.527344 20.953125 14.753906 21.117188 L 15.101562 21.375 C 15.261719 21.492188 15.480469 21.472656 15.621094 21.335938 L 16.402344 20.550781 C 16.539062 20.414062 16.558594 20.203125 16.453125 20.042969 L 16.121094 19.554688 C 15.96875 19.328125 15.941406 19.050781 16.050781 18.796875 C 16.160156 18.546875 16.382812 18.375 16.65625 18.335938 L 17.261719 18.242188 C 17.457031 18.210938 17.601562 18.042969 17.601562 17.847656 L 17.601562 16.738281 C 17.601562 16.546875 17.464844 16.382812 17.273438 16.34375 Z M 16.800781 17.503906 L 16.53125 17.542969 C 15.992188 17.628906 15.539062 17.976562 15.320312 18.480469 C 15.097656 18.980469 15.152344 19.550781 15.460938 20.003906 L 15.605469 20.21875 L 15.296875 20.527344 L 15.226562 20.472656 C 14.773438 20.140625 14.195312 20.074219 13.679688 20.285156 C 13.160156 20.5 12.800781 20.960938 12.714844 21.511719 L 12.703125 21.601562 L 12.269531 21.601562 L 12.21875 21.347656 C 12.117188 20.808594 11.75 20.367188 11.242188 20.167969 C 10.730469 19.96875 10.164062 20.042969 9.722656 20.367188 L 9.503906 20.523438 L 9.195312 20.21875 L 9.339844 20.003906 C 9.648438 19.550781 9.699219 18.980469 9.480469 18.480469 C 9.261719 17.976562 8.808594 17.628906 8.265625 17.542969 L 8 17.503906 L 8 17.070312 L 8.253906 17.019531 C 8.792969 16.917969 9.230469 16.550781 9.433594 16.039062 C 9.632812 15.53125 9.558594 14.960938 9.234375 14.519531 L 9.074219 14.304688 L 9.382812 13.996094 L 9.738281 14.238281 C 10.179688 14.539062 10.742188 14.59375 11.238281 14.390625 C 11.730469 14.183594 12.085938 13.746094 12.1875 13.222656 L 12.269531 12.800781 L 12.703125 12.800781 L 12.746094 13.066406 C 12.828125 13.609375 13.175781 14.0625 13.679688 14.28125 C 14.179688 14.5 14.753906 14.449219 15.207031 14.140625 L 15.417969 13.996094 L 15.726562 14.304688 L 15.566406 14.519531 C 15.242188 14.960938 15.167969 15.53125 15.367188 16.039062 C 15.570312 16.550781 16.007812 16.917969 16.546875 17.019531 L 16.800781 17.070312 Z M 16.800781 17.503906"/>
    <path d="M 12.398438 15.199219 C 11.296875 15.199219 10.398438 16.097656 10.398438 17.199219 C 10.398438 18.304688 11.296875 19.199219 12.398438 19.199219 C 13.503906 19.199219 14.398438 18.304688 14.398438 17.199219 C 14.398438 16.097656 13.503906 15.199219 12.398438 15.199219 Z M 12.398438 18.398438 C 11.738281 18.398438 11.199219 17.863281 11.199219 17.199219 C 11.199219 16.539062 11.738281 16 12.398438 16 C 13.0625 16 13.601562 16.539062 13.601562 17.199219 C 13.601562 17.863281 13.0625 18.398438 12.398438 18.398438 Z M 12.398438 18.398438"/>
    <path d="M 20.390625 8.078125 C 20.179688 4.476562 17.210938 1.601562 13.632812 1.601562 C 11.460938 1.601562 9.359375 2.664062 8.054688 4.402344 C 8.027344 4.386719 7.992188 4.375 7.964844 4.363281 C 7.882812 4.324219 7.804688 4.289062 7.722656 4.253906 C 7.675781 4.238281 7.628906 4.21875 7.585938 4.203125 C 7.503906 4.175781 7.421875 4.152344 7.335938 4.128906 C 7.292969 4.117188 7.246094 4.101562 7.199219 4.09375 C 7.109375 4.070312 7.015625 4.054688 6.925781 4.042969 C 6.882812 4.035156 6.84375 4.027344 6.804688 4.023438 C 6.671875 4.007812 6.535156 4 6.398438 4 C 4.414062 4 2.800781 5.613281 2.800781 7.601562 C 2.800781 7.652344 2.804688 7.703125 2.808594 7.753906 C 1.144531 8.660156 0 10.558594 0 12.460938 C 0 15.292969 2.304688 17.601562 5.136719 17.601562 C 5.359375 17.601562 5.539062 17.421875 5.539062 17.199219 C 5.539062 16.980469 5.359375 16.800781 5.136719 16.800781 C 2.746094 16.800781 0.800781 14.855469 0.800781 12.460938 C 0.800781 10.800781 1.882812 9.074219 3.375 8.359375 L 3.601562 8.253906 L 3.601562 8 C 3.601562 7.953125 3.601562 7.902344 3.605469 7.855469 L 3.609375 7.78125 L 3.605469 7.703125 C 3.601562 7.667969 3.601562 7.632812 3.601562 7.601562 C 3.601562 6.054688 4.855469 4.800781 6.398438 4.800781 C 6.523438 4.800781 6.644531 4.8125 6.765625 4.828125 C 6.796875 4.832031 6.828125 4.835938 6.859375 4.839844 C 6.96875 4.859375 7.070312 4.882812 7.175781 4.910156 C 7.191406 4.914062 7.203125 4.917969 7.21875 4.921875 C 7.332031 4.957031 7.441406 5 7.550781 5.050781 C 7.582031 5.0625 7.609375 5.078125 7.636719 5.089844 C 7.730469 5.140625 7.824219 5.191406 7.917969 5.25 C 8.6875 5.75 9.199219 6.613281 9.199219 7.601562 C 9.199219 7.820312 9.378906 8 9.601562 8 C 9.820312 8 10 7.820312 10 7.601562 C 10 6.5 9.5 5.511719 8.71875 4.851562 C 9.867188 3.351562 11.753906 2.398438 13.632812 2.398438 C 16.730469 2.398438 19.304688 4.855469 19.574219 7.957031 C 19.164062 7.925781 18.550781 7.910156 17.941406 8.003906 C 17.722656 8.039062 17.570312 8.242188 17.605469 8.460938 C 17.636719 8.660156 17.804688 8.800781 18 8.800781 C 18.019531 8.800781 18.039062 8.796875 18.058594 8.796875 C 18.953125 8.660156 19.878906 8.789062 19.933594 8.792969 C 21.796875 9.148438 23.199219 10.863281 23.199219 12.789062 C 23.199219 15 21.402344 16.800781 19.1875 16.800781 C 18.96875 16.800781 18.789062 16.980469 18.789062 17.199219 C 18.789062 17.421875 18.96875 17.601562 19.1875 17.601562 C 21.839844 17.601562 24 15.441406 24 12.789062 C 24 10.59375 22.46875 8.625 20.390625 8.078125 Z M 20.390625 8.078125"/>
</svg>
