<svg xmlns="http://www.w3.org/2000/svg" width="32" height="32" viewBox="0 0 24 24">
    <path d="M12.398 12A5.205 5.205 0 0 0 7.2 17.2c0 2.866 2.332 5.198 5.2 5.198a5.208 5.208 0 0 0 5.203-5.199c0-2.867-2.336-5.199-5.204-5.199zm0 9.602A4.406 4.406 0 0 1 8 17.199a4.403 4.403 0 0 1 4.398-4.398 4.406 4.406 0 0 1 4.403 4.398 4.41 4.41 0 0 1-4.403 4.403zm0 0"/>
    <path d="M14.8 16.8H10a.398.398 0 0 0-.398.4c0 .222.175.402.398.402h4.8a.401.401 0 0 0 0-.801zm0 0"/>
    <path d="M20.39 8.078c-.21-3.601-3.18-6.476-6.757-6.476-2.172 0-4.274 1.062-5.578 2.8-.032-.015-.063-.027-.094-.039a4.425 4.425 0 0 0-.238-.11c-.047-.015-.094-.034-.141-.05-.078-.027-.16-.05-.242-.074-.047-.012-.094-.027-.145-.035-.086-.024-.175-.035-.265-.051-.043-.004-.086-.016-.125-.02A3.602 3.602 0 0 0 2.8 7.601c0 .051.004.102.004.153C1.145 8.66 0 10.559 0 12.46a5.146 5.146 0 0 0 5.137 5.14.401.401 0 0 0 0-.8A4.342 4.342 0 0 1 .8 12.46c0-1.66 1.082-3.387 2.57-4.102l.23-.105V8c0-.05 0-.098.004-.148l.004-.07-.004-.083c-.003-.031-.003-.066-.003-.097A2.8 2.8 0 0 1 6.398 4.8c.125 0 .247.011.368.027l.093.012c.11.02.215.043.317.07l.043.012c.113.035.226.078.332.129.031.011.058.027.086.039a2.804 2.804 0 0 1 1.562 2.512.401.401 0 0 0 .801 0c0-1.102-.5-2.09-1.281-2.75 1.148-1.5 3.035-2.454 4.914-2.454 3.097 0 5.672 2.457 5.941 5.559a7.418 7.418 0 0 0-1.633.047A.401.401 0 0 0 18 8.8c.02 0 .04-.004.059-.004.89-.137 1.82-.008 1.875-.004 1.863.355 3.265 2.07 3.265 3.996a4.015 4.015 0 0 1-4.012 4.012.4.4 0 0 0 0 .8A4.82 4.82 0 0 0 24 12.79c0-2.195-1.531-4.164-3.61-4.71zm0 0"/>
</svg>
