<svg xmlns="http://www.w3.org/2000/svg" width="32" height="32" viewBox="0 0 24 24">
    <path d="M17.281 17.61a.399.399 0 0 0-.472.312c-.45 2.2-2.18 3.68-4.309 3.68a4.612 4.612 0 0 1-4.379-3.204H10v-.796H6.8V20.8h.802v-1.54a5.417 5.417 0 0 0 4.898 3.137c2.52 0 4.566-1.734 5.094-4.32a.4.4 0 0 0-.313-.469zm0 0M17.2 14.523c-.9-1.78-2.68-2.921-4.7-2.921-2.445 0-4.617 1.597-5.285 3.886a.405.405 0 0 0 .273.496.402.402 0 0 0 .496-.273c.559-1.918 2.457-3.313 4.516-3.313 1.824 0 3.426 1.11 4.133 2.801H14.8V16H18v-3.2h-.8zm0 0"/>
    <path d="M20.39 8.078c-.21-3.601-3.18-6.476-6.757-6.476-2.172 0-4.274 1.062-5.578 2.8-.028-.015-.063-.027-.09-.039a6.613 6.613 0 0 0-.242-.11c-.047-.015-.094-.034-.137-.05a4.67 4.67 0 0 0-.25-.074c-.043-.012-.09-.027-.137-.035a2.24 2.24 0 0 0-.273-.051c-.043-.008-.082-.016-.121-.02A3.602 3.602 0 0 0 2.8 7.601c0 .051.004.102.008.153C1.145 8.66 0 10.559 0 12.46a5.146 5.146 0 0 0 5.137 5.14.401.401 0 0 0 0-.8A4.342 4.342 0 0 1 .8 12.46c0-1.66 1.082-3.387 2.574-4.102l.227-.105V8c0-.047 0-.098.003-.145l.004-.074-.004-.078c-.003-.035-.003-.07-.003-.101A2.8 2.8 0 0 1 6.398 4.8c.125 0 .247.011.368.027l.093.012c.11.02.211.043.317.07l.043.012c.113.035.222.078.332.129.031.011.058.027.086.039a2.799 2.799 0 0 1 1.562 2.512.401.401 0 0 0 .801 0c0-1.102-.5-2.09-1.281-2.75 1.148-1.5 3.035-2.454 4.914-2.454 3.097 0 5.672 2.457 5.941 5.559a7.418 7.418 0 0 0-1.633.047A.401.401 0 0 0 18 8.8c.02 0 .04-.004.059-.004.894-.137 1.82-.008 1.875-.004 1.863.355 3.265 2.07 3.265 3.996a4.015 4.015 0 0 1-4.012 4.012.4.4 0 0 0 0 .8A4.82 4.82 0 0 0 24 12.79c0-2.195-1.531-4.164-3.61-4.71zm0 0"/>
</svg>
