<svg xmlns="http://www.w3.org/2000/svg" width="32" height="32" viewBox="0 0 24 24">
    <path d="M 12.738281 12.332031 C 12.578125 12.054688 12.289062 11.886719 11.964844 11.886719 C 11.644531 11.886719 11.355469 12.054688 11.191406 12.332031 L 6.453125 20.453125 C 6.292969 20.734375 6.289062 21.070312 6.453125 21.351562 C 6.613281 21.632812 6.902344 21.800781 7.226562 21.800781 L 16.703125 21.800781 C 17.027344 21.800781 17.320312 21.632812 17.480469 21.351562 C 17.640625 21.070312 17.640625 20.734375 17.476562 20.453125 Z M 16.785156 20.953125 C 16.773438 20.972656 16.75 21 16.703125 21 L 7.226562 21 C 7.183594 21 7.15625 20.972656 7.144531 20.953125 C 7.132812 20.929688 7.125 20.894531 7.144531 20.855469 L 11.882812 12.734375 C 11.90625 12.695312 11.941406 12.6875 11.964844 12.6875 C 11.992188 12.6875 12.023438 12.695312 12.046875 12.734375 L 16.785156 20.855469 C 16.808594 20.894531 16.800781 20.929688 16.785156 20.953125 Z M 16.785156 20.953125"/>
    <path d="M12 14.601562C11.777344 14.601562 11.601562 14.777344 11.601562 15L11.601562 18.199219C11.601562 18.421875 11.777344 18.601562 12 18.601562 12.222656 18.601562 12.398438 18.421875 12.398438 18.199219L12.398438 15C12.398438 14.777344 12.222656 14.601562 12 14.601562zM11.714844 19.515625C11.644531 19.589844 11.601562 19.691406 11.601562 19.800781 11.601562 19.902344 11.644531 20.007812 11.714844 20.085938 11.792969 20.15625 11.894531 20.199219 12 20.199219 12.105469 20.199219 12.207031 20.15625 12.285156 20.085938 12.355469 20.007812 12.398438 19.902344 12.398438 19.800781 12.398438 19.695312 12.355469 19.589844 12.285156 19.515625 12.136719 19.367188 11.859375 19.371094 11.714844 19.515625zM11.714844 19.515625"/>
    <path d="M 20.390625 8.675781 C 20.179688 5.078125 17.210938 2.199219 13.632812 2.199219 C 11.460938 2.199219 9.359375 3.265625 8.054688 5.003906 C 8.027344 4.988281 7.992188 4.976562 7.964844 4.960938 C 7.886719 4.925781 7.804688 4.886719 7.722656 4.855469 C 7.675781 4.835938 7.628906 4.820312 7.582031 4.804688 C 7.503906 4.777344 7.421875 4.75 7.339844 4.730469 C 7.292969 4.714844 7.246094 4.703125 7.195312 4.691406 C 7.109375 4.671875 7.019531 4.65625 6.929688 4.644531 C 6.886719 4.636719 6.84375 4.628906 6.804688 4.625 C 6.671875 4.609375 6.535156 4.601562 6.398438 4.601562 C 4.414062 4.601562 2.800781 6.214844 2.800781 8.199219 C 2.800781 8.25 2.804688 8.300781 2.804688 8.351562 C 1.144531 9.257812 0 11.160156 0 13.0625 C 0 15.894531 2.304688 18.199219 5.136719 18.199219 C 5.359375 18.199219 5.539062 18.019531 5.539062 17.800781 C 5.539062 17.578125 5.359375 17.398438 5.136719 17.398438 C 2.746094 17.398438 0.800781 15.453125 0.800781 13.0625 C 0.800781 11.398438 1.882812 9.675781 3.371094 8.960938 L 3.601562 8.851562 L 3.601562 8.601562 C 3.601562 8.550781 3.601562 8.5 3.605469 8.449219 L 3.609375 8.378906 L 3.605469 8.300781 C 3.601562 8.265625 3.601562 8.234375 3.601562 8.199219 C 3.601562 6.65625 4.855469 5.398438 6.398438 5.398438 C 6.523438 5.398438 6.644531 5.410156 6.765625 5.425781 C 6.796875 5.429688 6.828125 5.4375 6.859375 5.441406 C 6.96875 5.457031 7.074219 5.480469 7.175781 5.511719 C 7.191406 5.515625 7.203125 5.519531 7.21875 5.523438 C 7.332031 5.558594 7.445312 5.601562 7.550781 5.652344 C 7.582031 5.664062 7.609375 5.675781 7.636719 5.691406 C 7.730469 5.738281 7.828125 5.789062 7.917969 5.851562 C 8.6875 6.347656 9.199219 7.214844 9.199219 8.199219 C 9.199219 8.421875 9.378906 8.601562 9.601562 8.601562 C 9.820312 8.601562 10 8.421875 10 8.199219 C 10 7.097656 9.5 6.113281 8.71875 5.453125 C 9.867188 3.953125 11.753906 3 13.632812 3 C 16.730469 3 19.304688 5.453125 19.574219 8.554688 C 19.164062 8.527344 18.550781 8.511719 17.941406 8.605469 C 17.722656 8.636719 17.570312 8.84375 17.605469 9.058594 C 17.636719 9.257812 17.804688 9.402344 18 9.402344 C 18.019531 9.402344 18.039062 9.398438 18.058594 9.394531 C 18.953125 9.261719 19.878906 9.386719 19.933594 9.394531 C 21.796875 9.75 23.199219 11.464844 23.199219 13.390625 C 23.199219 15.601562 21.402344 17.398438 19.1875 17.398438 C 18.96875 17.398438 18.789062 17.578125 18.789062 17.800781 C 18.789062 18.019531 18.96875 18.199219 19.1875 18.199219 C 21.839844 18.199219 24 16.042969 24 13.390625 C 24 11.191406 22.46875 9.222656 20.390625 8.675781 Z M 20.390625 8.675781"/>
</svg>
