<svg xmlns="http://www.w3.org/2000/svg" width="32" height="32" viewBox="0 0 24 24">
    <path d="M23.504 17.324c-.164-1.719-1.45-2.965-3.055-2.965-1.004 0-1.851.61-2.387 1.352-.535-.742-1.382-1.352-2.39-1.352-1.602 0-2.887 1.246-3.055 2.965-.015.11-.062.512.094 1.137.23.926.758 1.762 1.527 2.426l3.496 2.992c.094.082.211.121.328.121.114 0 .231-.04.32-.117l3.505-2.996c.765-.664 1.293-1.5 1.523-2.426.156-.625.113-1.023.094-1.137zm-.91.934c-.188.754-.621 1.441-1.254 1.988l-3.277 2.805-3.278-2.801c-.633-.55-1.07-1.238-1.258-1.992-.125-.508-.078-.797-.078-.797l.004-.043c.106-1.102.899-2.219 2.223-2.219.918 0 1.668.762 2.004 1.516l.383.867.382-.867c.336-.754 1.086-1.516 2.004-1.516 1.324 0 2.117 1.117 2.227 2.258 0 0 .047.29-.082.8zm0 0"/>
    <path d="M10.98 17.23c-.347 0-.687-.007-1.02-.02-.206-.007-.401-.019-.6-.03-.126-.008-.25-.012-.372-.024-.265-.015-.523-.043-.777-.066-.047-.008-.098-.012-.145-.016a18.05 18.05 0 0 1-.851-.11c-.008 0-.016 0-.02-.003-1.425-.207-2.644-.527-3.597-.91-.008 0-.012-.004-.016-.004a8.702 8.702 0 0 1-.5-.219c-.02-.008-.035-.02-.055-.027a6.298 6.298 0 0 1-.398-.207c-.027-.02-.059-.035-.09-.051-.105-.066-.207-.129-.3-.195-.036-.028-.075-.051-.11-.075-.078-.062-.152-.12-.219-.18-.039-.034-.078-.066-.11-.1a1.946 1.946 0 0 1-.152-.165 1.23 1.23 0 0 1-.093-.117c-.035-.05-.067-.102-.098-.152a1.172 1.172 0 0 1-.11-.278c-.015-.07-.03-.136-.03-.203v-3.45c.011.009.027.02.038.032.09.082.184.16.29.238 1.582 1.2 4.75 2.13 9.335 2.13 4.57 0 7.727-.923 9.317-2.114.129-.094.242-.187.351-.285v1.559a.42.42 0 1 0 .84 0V3.78a.401.401 0 0 0-.062-.203C20.938 1.773 17.316 0 10.98 0 4.645 0 1.023 1.773.535 3.578a.398.398 0 0 0-.058.203v15.551c0 .066.015.129.046.188.48 2.03 4.493 3.226 8.325 3.515h.03a.425.425 0 0 0 .423-.39.422.422 0 0 0-.39-.45c-4.669-.351-7.391-1.773-7.583-2.933 0-.02-.008-.035-.012-.055v-3.535c.012.012.028.02.04.031.09.082.183.16.289.238 1.582 1.2 4.75 2.13 9.335 2.13a.42.42 0 1 0 0-.84zM1.57 5.797c.125.101.262.2.407.293.03.02.066.039.097.058.125.079.254.153.395.227l.152.082c.152.078.317.152.484.227.028.011.051.027.083.039.195.082.406.16.62.238.063.023.126.043.188.062a14.491 14.491 0 0 0 1.504.418c.035.012.074.016.113.024a12.58 12.58 0 0 0 .985.187c.238.04.484.078.738.11.062.008.125.015.191.027.313.035.637.07.97.098l.25.015c.265.02.538.035.816.047.101.008.203.012.304.016.363.012.73.02 1.113.02s.754-.008 1.114-.02c.105-.004.203-.012.304-.016.282-.011.551-.027.817-.047.086-.004.168-.011.254-.015.332-.028.652-.063.965-.098.066-.008.129-.02.195-.027.25-.032.496-.07.734-.11.086-.011.172-.027.258-.043.25-.043.492-.09.73-.144.036-.008.075-.012.11-.024a12.308 12.308 0 0 0 .969-.25c.183-.054.363-.109.539-.168.058-.02.125-.039.183-.062.22-.078.426-.156.625-.238.028-.012.051-.028.078-.04.172-.074.332-.148.485-.226.055-.027.105-.055.156-.082.137-.074.266-.148.39-.227l.098-.058c.149-.094.282-.192.41-.293.032-.024.06-.05.09-.074.055-.047.114-.09.164-.137v3.45c0 .066-.02.136-.035.202-.011.051-.027.102-.047.153a1.864 1.864 0 0 1-.16.28c-.027.04-.058.079-.09.118-.046.055-.097.11-.152.164l-.11.098c-.07.058-.14.12-.222.18-.035.023-.07.05-.11.074a3.638 3.638 0 0 1-.3.195c-.027.02-.059.035-.09.05-.125.071-.254.141-.398.208a8.552 8.552 0 0 1-.55.246c-.009.004-.013.004-.017.004-.957.383-2.176.703-3.597.914-.008 0-.016 0-.024.004-.273.039-.559.074-.851.105-.047.008-.098.012-.145.016-.254.027-.512.05-.777.07-.121.008-.246.012-.371.02-.2.011-.395.023-.598.031-.336.012-.676.02-1.024.02-.347 0-.687-.008-1.02-.02-.206-.008-.401-.02-.6-.031-.126-.008-.25-.012-.372-.02-.265-.02-.523-.047-.777-.07-.047-.008-.098-.012-.145-.016a18.048 18.048 0 0 1-.851-.11h-.02c-1.425-.21-2.644-.53-3.597-.913-.008 0-.012-.004-.016-.004a8.7 8.7 0 0 1-.5-.219c-.02-.008-.035-.02-.055-.027a6.297 6.297 0 0 1-.398-.207c-.027-.02-.059-.035-.09-.051-.105-.066-.207-.129-.3-.195l-.11-.075c-.078-.062-.152-.12-.219-.18-.039-.034-.078-.066-.11-.1a1.946 1.946 0 0 1-.152-.165 1.23 1.23 0 0 1-.093-.117c-.035-.05-.067-.102-.098-.152a1.172 1.172 0 0 1-.11-.278c-.015-.07-.03-.136-.03-.203v-3.45l.16.138.093.074zM10.98.84c5.7 0 9.668 1.66 9.668 3.152 0 1.492-3.968 3.153-9.668 3.153-5.695 0-9.664-1.66-9.664-3.153C1.316 2.5 5.286.84 10.98.84zm0 0"/>
</svg>
