<svg xmlns="http://www.w3.org/2000/svg" width="32" height="32" viewBox="0 0 24 24">
    <path d="M 13.449219 14.070312 L 13.449219 24 L 23.378906 24 L 23.378906 14.070312 Z M 22.550781 23.171875 L 14.277344 23.171875 L 14.277344 14.898438 L 18 14.898438 L 18 20.105469 L 16.222656 18.328125 L 15.636719 18.914062 L 18.414062 21.6875 L 21.1875 18.914062 L 20.605469 18.328125 L 18.828125 20.105469 L 18.828125 14.898438 L 22.550781 14.898438 Z M 22.550781 23.171875"/>
    <path d="M 10.964844 17.378906 C 10.625 17.378906 10.289062 17.371094 9.960938 17.359375 C 9.757812 17.355469 9.566406 17.339844 9.371094 17.328125 C 9.25 17.324219 9.125 17.316406 9.003906 17.308594 C 8.746094 17.289062 8.492188 17.265625 8.246094 17.242188 C 8.195312 17.234375 8.144531 17.230469 8.09375 17.226562 C 7.8125 17.195312 7.535156 17.160156 7.265625 17.121094 C 7.253906 17.121094 7.246094 17.117188 7.234375 17.117188 C 5.835938 16.910156 4.636719 16.597656 3.699219 16.222656 C 3.691406 16.21875 3.683594 16.214844 3.675781 16.214844 C 3.503906 16.144531 3.34375 16.074219 3.191406 16 C 3.171875 15.992188 3.152344 15.980469 3.132812 15.972656 C 2.992188 15.90625 2.867188 15.839844 2.746094 15.769531 C 2.714844 15.753906 2.683594 15.734375 2.652344 15.71875 C 2.546875 15.65625 2.449219 15.59375 2.359375 15.527344 C 2.320312 15.503906 2.285156 15.476562 2.25 15.453125 C 2.171875 15.394531 2.101562 15.335938 2.035156 15.277344 C 1.996094 15.246094 1.957031 15.210938 1.921875 15.179688 C 1.867188 15.125 1.820312 15.070312 1.773438 15.019531 C 1.742188 14.980469 1.710938 14.941406 1.683594 14.902344 C 1.644531 14.851562 1.617188 14.800781 1.589844 14.75 C 1.566406 14.707031 1.546875 14.667969 1.527344 14.625 C 1.507812 14.574219 1.492188 14.527344 1.480469 14.476562 C 1.464844 14.410156 1.449219 14.34375 1.449219 14.277344 L 1.449219 10.878906 C 1.457031 10.886719 1.464844 10.894531 1.472656 10.898438 C 1.566406 10.984375 1.667969 11.070312 1.777344 11.148438 C 3.339844 12.328125 6.453125 13.242188 10.964844 13.242188 C 15.464844 13.242188 18.574219 12.332031 20.140625 11.160156 C 20.261719 11.070312 20.375 10.976562 20.480469 10.882812 C 20.480469 10.882812 20.480469 10.878906 20.484375 10.878906 L 20.484375 12.414062 C 20.484375 12.644531 20.667969 12.828125 20.898438 12.828125 C 21.125 12.828125 21.308594 12.644531 21.308594 12.414062 L 21.308594 4.136719 C 21.308594 4.070312 21.289062 4.007812 21.261719 3.953125 C 20.757812 1.804688 16.164062 0 10.964844 0 C 5.765625 0 1.175781 1.804688 0.667969 3.953125 C 0.640625 4.007812 0.621094 4.070312 0.621094 4.136719 L 0.621094 19.449219 C 0.621094 19.515625 0.636719 19.578125 0.667969 19.632812 C 1.140625 21.632812 5.09375 22.8125 8.867188 23.09375 C 8.875 23.09375 8.886719 23.097656 8.898438 23.097656 C 9.113281 23.097656 9.292969 22.929688 9.308594 22.714844 C 9.328125 22.484375 9.15625 22.285156 8.929688 22.269531 C 4.328125 21.925781 1.648438 20.523438 1.460938 19.382812 C 1.457031 19.363281 1.453125 19.34375 1.449219 19.328125 L 1.449219 15.84375 C 1.457031 15.851562 1.464844 15.859375 1.472656 15.867188 C 1.566406 15.949219 1.667969 16.035156 1.777344 16.117188 C 3.339844 17.292969 6.453125 18.207031 10.964844 18.207031 C 11.195312 18.207031 11.378906 18.023438 11.378906 17.792969 C 11.378906 17.5625 11.195312 17.378906 10.964844 17.378906 Z M 1.695312 6.121094 C 1.820312 6.21875 1.957031 6.316406 2.101562 6.410156 C 2.128906 6.429688 2.164062 6.449219 2.195312 6.46875 C 2.316406 6.542969 2.445312 6.617188 2.582031 6.691406 C 2.632812 6.71875 2.683594 6.746094 2.734375 6.769531 C 2.882812 6.847656 3.042969 6.921875 3.210938 6.996094 C 3.238281 7.007812 3.261719 7.019531 3.289062 7.03125 C 3.484375 7.113281 3.691406 7.191406 3.902344 7.269531 C 3.964844 7.289062 4.023438 7.308594 4.085938 7.328125 C 4.257812 7.386719 4.433594 7.441406 4.617188 7.496094 C 4.679688 7.515625 4.746094 7.535156 4.8125 7.554688 C 5.054688 7.621094 5.304688 7.683594 5.566406 7.742188 C 5.605469 7.75 5.640625 7.757812 5.679688 7.765625 C 5.910156 7.816406 6.148438 7.863281 6.398438 7.90625 C 6.480469 7.921875 6.566406 7.9375 6.652344 7.949219 C 6.886719 7.988281 7.125 8.023438 7.375 8.054688 C 7.4375 8.0625 7.5 8.074219 7.5625 8.082031 C 7.871094 8.117188 8.191406 8.152344 8.515625 8.179688 C 8.597656 8.183594 8.683594 8.191406 8.765625 8.195312 C 9.027344 8.214844 9.292969 8.230469 9.566406 8.242188 C 9.667969 8.246094 9.765625 8.25 9.867188 8.253906 C 10.226562 8.265625 10.589844 8.277344 10.964844 8.277344 C 11.34375 8.277344 11.707031 8.265625 12.0625 8.253906 C 12.164062 8.25 12.261719 8.246094 12.363281 8.242188 C 12.636719 8.230469 12.90625 8.214844 13.167969 8.195312 C 13.25 8.1875 13.332031 8.183594 13.414062 8.179688 C 13.742188 8.152344 14.058594 8.117188 14.367188 8.082031 C 14.429688 8.074219 14.492188 8.0625 14.554688 8.054688 C 14.804688 8.023438 15.046875 7.988281 15.28125 7.949219 C 15.367188 7.9375 15.449219 7.921875 15.535156 7.90625 C 15.78125 7.863281 16.019531 7.816406 16.25 7.765625 C 16.289062 7.757812 16.328125 7.75 16.363281 7.742188 C 16.625 7.683594 16.875 7.621094 17.117188 7.554688 C 17.183594 7.535156 17.25 7.515625 17.316406 7.496094 C 17.496094 7.441406 17.675781 7.386719 17.84375 7.328125 C 17.90625 7.308594 17.96875 7.289062 18.027344 7.269531 C 18.242188 7.191406 18.449219 7.113281 18.640625 7.03125 C 18.667969 7.019531 18.695312 7.007812 18.722656 6.996094 C 18.886719 6.921875 19.046875 6.847656 19.195312 6.769531 C 19.25 6.746094 19.300781 6.71875 19.347656 6.691406 C 19.484375 6.617188 19.613281 6.546875 19.734375 6.46875 C 19.765625 6.449219 19.800781 6.429688 19.832031 6.410156 C 19.976562 6.316406 20.109375 6.222656 20.234375 6.121094 C 20.265625 6.097656 20.292969 6.074219 20.324219 6.046875 C 20.375 6.003906 20.433594 5.960938 20.484375 5.914062 L 20.484375 9.308594 C 20.484375 9.378906 20.464844 9.445312 20.449219 9.511719 C 20.4375 9.5625 20.421875 9.609375 20.402344 9.660156 C 20.386719 9.703125 20.367188 9.742188 20.34375 9.785156 C 20.316406 9.835938 20.285156 9.886719 20.246094 9.9375 C 20.21875 9.972656 20.1875 10.011719 20.15625 10.050781 C 20.109375 10.105469 20.0625 10.160156 20.007812 10.210938 C 19.972656 10.246094 19.9375 10.277344 19.898438 10.3125 C 19.832031 10.371094 19.761719 10.429688 19.683594 10.488281 C 19.648438 10.511719 19.609375 10.535156 19.574219 10.5625 C 19.480469 10.625 19.382812 10.691406 19.277344 10.753906 C 19.25 10.769531 19.21875 10.785156 19.1875 10.804688 C 19.066406 10.871094 18.9375 10.941406 18.800781 11.007812 C 18.78125 11.015625 18.761719 11.027344 18.742188 11.035156 C 18.589844 11.105469 18.425781 11.179688 18.253906 11.246094 C 18.25 11.25 18.242188 11.253906 18.234375 11.253906 C 17.296875 11.628906 16.097656 11.945312 14.695312 12.152344 C 14.6875 12.152344 14.679688 12.152344 14.667969 12.15625 C 14.398438 12.195312 14.121094 12.230469 13.835938 12.261719 C 13.789062 12.265625 13.738281 12.269531 13.6875 12.277344 C 13.4375 12.300781 13.1875 12.324219 12.929688 12.34375 C 12.808594 12.351562 12.683594 12.355469 12.558594 12.363281 C 12.367188 12.375 12.171875 12.386719 11.972656 12.394531 C 11.644531 12.40625 11.308594 12.414062 10.964844 12.414062 C 10.625 12.414062 10.289062 12.40625 9.960938 12.394531 C 9.757812 12.386719 9.566406 12.375 9.371094 12.363281 C 9.25 12.355469 9.125 12.351562 9.003906 12.34375 C 8.746094 12.324219 8.492188 12.300781 8.246094 12.277344 C 8.195312 12.269531 8.144531 12.265625 8.09375 12.261719 C 7.8125 12.230469 7.535156 12.195312 7.265625 12.15625 C 7.253906 12.15625 7.246094 12.152344 7.234375 12.152344 C 5.835938 11.945312 4.636719 11.628906 3.699219 11.257812 C 3.691406 11.253906 3.683594 11.25 3.675781 11.246094 C 3.503906 11.179688 3.34375 11.109375 3.191406 11.035156 C 3.171875 11.027344 3.152344 11.015625 3.132812 11.007812 C 2.992188 10.941406 2.867188 10.871094 2.746094 10.804688 C 2.714844 10.785156 2.683594 10.769531 2.652344 10.753906 C 2.546875 10.691406 2.449219 10.625 2.359375 10.5625 C 2.320312 10.539062 2.285156 10.511719 2.25 10.488281 C 2.171875 10.429688 2.101562 10.371094 2.035156 10.3125 C 1.996094 10.277344 1.957031 10.246094 1.921875 10.210938 C 1.867188 10.160156 1.820312 10.105469 1.773438 10.050781 C 1.742188 10.011719 1.710938 9.972656 1.683594 9.933594 C 1.644531 9.886719 1.617188 9.835938 1.589844 9.785156 C 1.566406 9.742188 1.546875 9.703125 1.527344 9.660156 C 1.507812 9.609375 1.492188 9.5625 1.480469 9.511719 C 1.464844 9.445312 1.449219 9.378906 1.449219 9.308594 L 1.449219 5.914062 C 1.496094 5.960938 1.554688 6.003906 1.609375 6.046875 C 1.636719 6.074219 1.664062 6.097656 1.695312 6.121094 Z M 10.964844 0.828125 C 16.074219 0.828125 20.214844 2.632812 20.46875 4.195312 C 20.472656 4.199219 20.46875 4.203125 20.46875 4.203125 C 20.476562 4.25 20.484375 4.296875 20.484375 4.34375 C 20.484375 5.8125 16.574219 7.449219 10.964844 7.449219 C 5.355469 7.449219 1.449219 5.8125 1.449219 4.34375 C 1.449219 4.296875 1.453125 4.25 1.460938 4.203125 C 1.460938 4.203125 1.460938 4.199219 1.460938 4.195312 C 1.714844 2.632812 5.859375 0.828125 10.964844 0.828125 Z M 10.964844 0.828125"/>
</svg>
