<svg xmlns="http://www.w3.org/2000/svg" width="32" height="32" viewBox="0 0 24 24">
    <path d="M 23.167969 23.292969 L 20.351562 20.480469 L 23.035156 19.140625 L 15.738281 16.449219 L 18.425781 23.75 L 19.769531 21.066406 L 22.582031 23.878906 C 22.664062 23.960938 22.769531 24 22.875 24 C 22.980469 24 23.085938 23.960938 23.167969 23.878906 C 23.328125 23.71875 23.328125 23.457031 23.167969 23.292969 Z M 17.132812 17.847656 L 20.953125 19.253906 L 19.347656 20.058594 L 18.542969 21.667969 Z M 17.132812 17.847656"/>
    <path d="M 11.058594 17.042969 C 10.714844 17.042969 10.378906 17.035156 10.050781 17.023438 C 9.851562 17.015625 9.65625 17.003906 9.460938 16.992188 C 9.339844 16.984375 9.214844 16.980469 9.09375 16.972656 C 8.835938 16.953125 8.582031 16.929688 8.335938 16.902344 C 8.285156 16.898438 8.234375 16.894531 8.1875 16.890625 C 7.902344 16.859375 7.625 16.824219 7.355469 16.785156 C 7.34375 16.78125 7.335938 16.78125 7.328125 16.78125 C 5.925781 16.574219 4.726562 16.257812 3.785156 15.882812 C 3.78125 15.878906 3.773438 15.878906 3.769531 15.875 C 3.597656 15.808594 3.433594 15.734375 3.28125 15.664062 C 3.261719 15.652344 3.242188 15.644531 3.222656 15.636719 C 3.085938 15.570312 2.957031 15.5 2.835938 15.429688 C 2.804688 15.414062 2.773438 15.398438 2.746094 15.382812 C 2.636719 15.320312 2.539062 15.253906 2.449219 15.191406 C 2.410156 15.164062 2.375 15.140625 2.339844 15.113281 C 2.261719 15.058594 2.191406 15 2.125 14.9375 C 2.085938 14.90625 2.050781 14.875 2.015625 14.839844 C 1.960938 14.789062 1.910156 14.734375 1.867188 14.679688 C 1.832031 14.640625 1.800781 14.601562 1.773438 14.566406 C 1.738281 14.515625 1.707031 14.464844 1.679688 14.410156 C 1.65625 14.371094 1.636719 14.328125 1.621094 14.289062 C 1.601562 14.238281 1.585938 14.1875 1.574219 14.140625 C 1.558594 14.074219 1.539062 14.003906 1.539062 13.9375 L 1.539062 10.542969 C 1.550781 10.554688 1.566406 10.5625 1.578125 10.574219 C 1.667969 10.652344 1.761719 10.734375 1.863281 10.808594 C 3.421875 11.988281 6.539062 12.902344 11.058594 12.902344 C 15.554688 12.902344 18.664062 11.996094 20.230469 10.824219 C 20.355469 10.730469 20.46875 10.636719 20.574219 10.542969 L 20.574219 12.078125 C 20.574219 12.304688 20.757812 12.492188 20.988281 12.492188 C 21.21875 12.492188 21.402344 12.304688 21.402344 12.078125 L 21.402344 3.800781 C 21.402344 3.734375 21.382812 3.671875 21.355469 3.617188 C 20.863281 1.558594 16.515625 0 11.058594 0 C 5.597656 0 1.253906 1.558594 0.761719 3.617188 C 0.730469 3.671875 0.710938 3.734375 0.710938 3.800781 L 0.710938 19.109375 C 0.710938 19.175781 0.730469 19.242188 0.761719 19.296875 C 1.230469 21.296875 5.183594 22.472656 8.957031 22.757812 C 8.96875 22.757812 8.976562 22.757812 8.988281 22.757812 C 9.203125 22.757812 9.386719 22.59375 9.402344 22.375 C 9.417969 22.148438 9.246094 21.949219 9.019531 21.933594 C 4.421875 21.585938 1.742188 20.1875 1.554688 19.042969 C 1.550781 19.023438 1.546875 19.007812 1.539062 18.988281 L 1.539062 15.507812 C 1.550781 15.519531 1.566406 15.527344 1.578125 15.539062 C 1.667969 15.617188 1.761719 15.699219 1.863281 15.773438 C 3.421875 16.953125 6.539062 17.871094 11.058594 17.871094 C 11.285156 17.871094 11.472656 17.683594 11.472656 17.457031 C 11.472656 17.226562 11.285156 17.042969 11.058594 17.042969 Z M 1.789062 5.785156 C 1.914062 5.882812 2.046875 5.980469 2.191406 6.074219 C 2.222656 6.09375 2.257812 6.113281 2.289062 6.132812 C 2.410156 6.207031 2.539062 6.28125 2.671875 6.355469 C 2.722656 6.378906 2.773438 6.40625 2.824219 6.433594 C 2.976562 6.511719 3.136719 6.585938 3.300781 6.65625 C 3.328125 6.671875 3.355469 6.683594 3.382812 6.695312 C 3.574219 6.777344 3.78125 6.855469 3.996094 6.929688 C 4.054688 6.953125 4.117188 6.972656 4.179688 6.992188 C 4.347656 7.050781 4.523438 7.105469 4.707031 7.160156 C 4.773438 7.175781 4.839844 7.195312 4.90625 7.214844 C 5.148438 7.28125 5.398438 7.347656 5.660156 7.40625 C 5.695312 7.414062 5.734375 7.421875 5.769531 7.429688 C 6.003906 7.480469 6.242188 7.527344 6.488281 7.570312 C 6.574219 7.585938 6.65625 7.597656 6.742188 7.613281 C 6.976562 7.652344 7.21875 7.6875 7.46875 7.71875 C 7.53125 7.726562 7.59375 7.734375 7.65625 7.742188 C 7.964844 7.78125 8.28125 7.8125 8.609375 7.839844 C 8.691406 7.847656 8.773438 7.851562 8.855469 7.859375 C 9.117188 7.878906 9.386719 7.894531 9.660156 7.90625 C 9.757812 7.910156 9.859375 7.914062 9.960938 7.917969 C 10.316406 7.929688 10.679688 7.9375 11.058594 7.9375 C 11.433594 7.9375 11.796875 7.929688 12.152344 7.917969 C 12.253906 7.914062 12.355469 7.910156 12.453125 7.90625 C 12.730469 7.894531 12.996094 7.878906 13.257812 7.859375 C 13.339844 7.851562 13.425781 7.847656 13.503906 7.839844 C 13.832031 7.8125 14.152344 7.78125 14.457031 7.742188 C 14.523438 7.734375 14.585938 7.726562 14.648438 7.71875 C 14.894531 7.6875 15.136719 7.652344 15.371094 7.613281 C 15.457031 7.597656 15.542969 7.585938 15.625 7.570312 C 15.871094 7.527344 16.113281 7.480469 16.34375 7.429688 C 16.378906 7.421875 16.417969 7.414062 16.453125 7.40625 C 16.71875 7.347656 16.96875 7.28125 17.210938 7.214844 C 17.277344 7.195312 17.339844 7.175781 17.40625 7.160156 C 17.589844 7.105469 17.765625 7.050781 17.9375 6.992188 C 17.996094 6.972656 18.058594 6.953125 18.117188 6.929688 C 18.332031 6.855469 18.539062 6.777344 18.734375 6.695312 C 18.761719 6.683594 18.785156 6.667969 18.8125 6.65625 C 18.980469 6.585938 19.136719 6.511719 19.289062 6.433594 C 19.339844 6.40625 19.390625 6.378906 19.441406 6.355469 C 19.578125 6.28125 19.707031 6.207031 19.828125 6.132812 C 19.859375 6.113281 19.890625 6.09375 19.921875 6.074219 C 20.066406 5.980469 20.203125 5.882812 20.324219 5.785156 C 20.355469 5.761719 20.382812 5.734375 20.414062 5.710938 C 20.46875 5.667969 20.523438 5.621094 20.574219 5.578125 L 20.574219 8.972656 C 20.574219 9.039062 20.558594 9.105469 20.542969 9.171875 C 20.53125 9.222656 20.515625 9.273438 20.492188 9.324219 C 20.476562 9.363281 20.457031 9.40625 20.433594 9.445312 C 20.40625 9.496094 20.375 9.546875 20.339844 9.597656 C 20.3125 9.636719 20.28125 9.675781 20.25 9.714844 C 20.203125 9.765625 20.152344 9.820312 20.097656 9.875 C 20.066406 9.910156 20.027344 9.941406 19.992188 9.972656 C 19.921875 10.03125 19.851562 10.089844 19.773438 10.148438 C 19.738281 10.175781 19.703125 10.199219 19.667969 10.222656 C 19.574219 10.289062 19.476562 10.351562 19.371094 10.414062 C 19.339844 10.433594 19.308594 10.449219 19.28125 10.464844 C 19.15625 10.535156 19.03125 10.601562 18.890625 10.671875 C 18.871094 10.679688 18.851562 10.6875 18.835938 10.695312 C 18.679688 10.769531 18.519531 10.839844 18.347656 10.910156 C 18.339844 10.914062 18.332031 10.914062 18.328125 10.917969 C 17.386719 11.292969 16.1875 11.605469 14.789062 11.8125 C 14.78125 11.816406 14.769531 11.816406 14.761719 11.816406 C 14.492188 11.855469 14.214844 11.894531 13.929688 11.925781 C 13.878906 11.929688 13.828125 11.933594 13.78125 11.9375 C 13.53125 11.964844 13.277344 11.988281 13.019531 12.007812 C 12.898438 12.015625 12.773438 12.019531 12.652344 12.027344 C 12.457031 12.039062 12.261719 12.050781 12.0625 12.058594 C 11.734375 12.070312 11.398438 12.074219 11.058594 12.074219 C 10.714844 12.074219 10.378906 12.070312 10.050781 12.058594 C 9.851562 12.050781 9.65625 12.039062 9.460938 12.027344 C 9.339844 12.019531 9.214844 12.015625 9.09375 12.007812 C 8.835938 11.988281 8.582031 11.964844 8.335938 11.9375 C 8.285156 11.933594 8.234375 11.929688 8.1875 11.925781 C 7.902344 11.894531 7.625 11.855469 7.351562 11.816406 C 7.34375 11.816406 7.335938 11.816406 7.324219 11.8125 C 5.925781 11.605469 4.726562 11.292969 3.785156 10.917969 C 3.78125 10.914062 3.773438 10.914062 3.769531 10.910156 C 3.59375 10.839844 3.433594 10.769531 3.28125 10.695312 C 3.261719 10.6875 3.242188 10.679688 3.222656 10.671875 C 3.085938 10.601562 2.957031 10.535156 2.832031 10.464844 C 2.804688 10.449219 2.773438 10.433594 2.746094 10.414062 C 2.636719 10.351562 2.539062 10.289062 2.445312 10.222656 C 2.410156 10.199219 2.375 10.175781 2.339844 10.148438 C 2.261719 10.089844 2.191406 10.03125 2.125 9.972656 C 2.085938 9.941406 2.046875 9.910156 2.015625 9.875 C 1.960938 9.820312 1.910156 9.769531 1.863281 9.714844 C 1.832031 9.675781 1.800781 9.636719 1.773438 9.597656 C 1.738281 9.546875 1.707031 9.496094 1.679688 9.445312 C 1.65625 9.40625 1.636719 9.363281 1.621094 9.324219 C 1.601562 9.273438 1.582031 9.222656 1.570312 9.171875 C 1.554688 9.105469 1.539062 9.039062 1.539062 8.972656 L 1.539062 5.578125 C 1.589844 5.621094 1.644531 5.667969 1.699219 5.710938 C 1.730469 5.734375 1.757812 5.761719 1.789062 5.785156 Z M 11.058594 0.828125 C 16.667969 0.828125 20.574219 2.503906 20.574219 4.007812 C 20.574219 5.476562 16.667969 7.109375 11.058594 7.109375 C 5.449219 7.109375 1.539062 5.476562 1.539062 4.007812 C 1.539062 2.503906 5.449219 0.828125 11.058594 0.828125 Z M 11.058594 0.828125"/>
</svg>
