<svg xmlns="http://www.w3.org/2000/svg" width="32" height="32" viewBox="0 0 24 24">
    <path d="M23.453 22.582l-4.988-8.547a.932.932 0 0 0-.813-.469.927.927 0 0 0-.812.47l-4.988 8.546a.931.931 0 0 0-.004.945.934.934 0 0 0 .816.473h9.973a.94.94 0 1 0 .816-1.418zm-.726.527c-.016.02-.04.047-.086.047h-9.977c-.047 0-.074-.023-.086-.047a.103.103 0 0 1 0-.101l4.988-8.551a.094.094 0 0 1 .086-.047c.024 0 .063.008.086.047l4.989 8.55a.103.103 0 0 1 0 .102zm0 0"/>
    <path d="M17.688 16.422a.42.42 0 0 0-.422.422v3.367a.423.423 0 0 0 .844 0v-3.367a.42.42 0 0 0-.422-.422zm0 0M17.39 21.598a.413.413 0 0 0 0 .593.415.415 0 0 0 .297.13.43.43 0 0 0 .422-.423.443.443 0 0 0-.12-.3.432.432 0 0 0-.598 0zm0 0"/>
    <path d="M10.941 17.262c-.347 0-.687-.008-1.023-.02-.203-.008-.398-.02-.594-.031-.129-.008-.254-.012-.379-.02-.261-.02-.52-.043-.77-.07-.05-.004-.105-.008-.152-.016-.289-.03-.57-.066-.847-.105-.008-.004-.02-.004-.028-.004-1.421-.21-2.644-.531-3.601-.914a8.584 8.584 0 0 1-.516-.223c-.02-.007-.039-.02-.058-.027a9.11 9.11 0 0 1-.395-.207c-.031-.02-.062-.035-.094-.055a4.42 4.42 0 0 1-.3-.191c-.036-.027-.075-.05-.11-.078a3.575 3.575 0 0 1-.219-.176l-.113-.102a1.878 1.878 0 0 1-.148-.164c-.035-.039-.067-.078-.098-.117a1.653 1.653 0 0 1-.094-.156c-.023-.04-.043-.082-.062-.125a1.135 1.135 0 0 1-.047-.152c-.016-.067-.035-.137-.035-.204v-3.457c.008.008.02.016.027.02.098.09.195.172.309.258 1.59 1.195 4.758 2.125 9.347 2.125 4.579 0 7.743-.926 9.336-2.117.125-.09.239-.188.348-.282v-.004 3.668a.422.422 0 0 0 .844 0V3.79a.415.415 0 0 0-.063-.207C20.918 1.777 17.29 0 10.941 0 4.594 0 .965 1.777.481 3.582a.38.38 0 0 0-.063.207v15.578c0 .067.016.133.047.188.48 2.035 4.504 3.234 8.34 3.523h.035a.418.418 0 0 0 .418-.39.417.417 0 0 0-.387-.45c-4.68-.351-7.406-1.777-7.598-2.937-.003-.02-.007-.04-.015-.059v-3.539c.008.004.02.012.027.02.098.086.195.172.309.254 1.59 1.199 4.758 2.128 9.347 2.128a.423.423 0 0 0 0-.843zM1.511 5.809c.13.101.266.199.41.293.032.02.067.039.099.058.125.078.253.152.394.227l.152.082c.157.078.317.152.485.226.027.016.054.028.082.04a10.46 10.46 0 0 0 .812.3c.172.059.352.117.535.172.07.02.133.04.204.059.246.066.5.132.765.191l.114.023c.238.051.48.098.73.145.086.016.172.027.262.043.238.039.484.074.734.11l.191.023c.317.039.641.07.973.097.082.008.168.012.25.02.266.02.54.035.817.047.101.004.203.012.308.012a25.777 25.777 0 0 0 2.23 0c.102 0 .204-.008.305-.012.282-.012.551-.027.82-.047.083-.008.169-.012.25-.02.333-.027.657-.058.97-.097l.195-.024c.25-.035.496-.07.734-.109.086-.016.172-.027.258-.043.254-.047.496-.094.73-.145a15.829 15.829 0 0 0 .883-.215l.2-.058c.187-.055.367-.113.538-.172.063-.02.125-.039.188-.062.215-.075.426-.157.625-.239.027-.011.05-.027.078-.039.172-.074.332-.148.484-.226l.157-.082c.136-.074.27-.149.39-.227.035-.02.07-.039.098-.058a4.24 4.24 0 0 0 .41-.293c.035-.024.063-.051.094-.075l.16-.136V9.05c0 .07-.016.136-.031.207a1.172 1.172 0 0 1-.207.43c-.028.039-.059.078-.094.117-.047.054-.094.11-.152.164-.032.035-.07.066-.11.101a3.59 3.59 0 0 1-.218.18c-.036.023-.075.05-.11.074a3.725 3.725 0 0 1-.305.196c-.027.015-.058.035-.09.05-.124.07-.253.14-.394.207a8.553 8.553 0 0 1-.555.246c-.007.004-.011.004-.02.008-.956.38-2.175.7-3.6.91-.009.004-.02.004-.028.004-.274.043-.559.078-.848.11-.047.004-.101.008-.148.015-.254.024-.512.051-.774.067-.125.011-.25.015-.375.023-.199.012-.394.024-.597.031-.336.012-.68.02-1.028.02-.347 0-.687-.008-1.023-.02-.203-.007-.398-.02-.594-.03-.129-.009-.254-.013-.379-.024-.261-.016-.52-.043-.77-.067-.05-.008-.105-.011-.152-.015-.289-.032-.57-.067-.847-.11-.008 0-.02 0-.028-.004-1.421-.207-2.644-.527-3.601-.91-.004-.004-.012-.004-.02-.008-.175-.07-.34-.14-.496-.214-.02-.012-.039-.02-.058-.032a6.172 6.172 0 0 1-.395-.207c-.031-.015-.062-.035-.094-.05a6.732 6.732 0 0 1-.3-.192 3.59 3.59 0 0 1-.328-.258 1.4 1.4 0 0 1-.114-.101c-.054-.055-.105-.106-.148-.16-.035-.04-.067-.082-.098-.121a1.604 1.604 0 0 1-.094-.153.938.938 0 0 1-.11-.277c-.015-.07-.034-.137-.034-.207V5.598c.05.047.11.09.164.136.031.024.058.051.09.075zm9.43-4.965c5.707 0 9.684 1.664 9.684 3.156 0 1.492-3.977 3.156-9.684 3.156-5.707 0-9.683-1.664-9.683-3.156 0-1.492 3.976-3.156 9.683-3.156zm0 0"/>
</svg>
