<svg xmlns="http://www.w3.org/2000/svg" width="32" height="32" viewBox="0 0 24 24">
    <path d="M14.602 8.8h-10a.401.401 0 1 0 0 .802h10a.401.401 0 0 0 0-.801zm0 0M4.602 6.398h4a.398.398 0 1 0 0-.796h-4a.398.398 0 1 0 0 .796zm0 0M15 12.398a.4.4 0 0 0-.398-.398h-10a.401.401 0 1 0 0 .8h10c.218 0 .398-.179.398-.402zm0 0M11.8 15.602a.402.402 0 0 0-.402-.403H4.602a.401.401 0 0 0 0 .8l6.796.001c.223 0 .403-.18.403-.398zm0 0M4.602 18.398a.401.401 0 0 0 0 .8l5.597.001a.401.401 0 1 0 0-.8zm0 0"/>
    <path d="M1 .8h11.602v5.598h5.597V13.2H19V5.836L13.164 0H.2v24h13.2v-.8H1zm12.398.567l4.235 4.235h-4.235zm0 0"/>
    <path d="M23.781 18.04a.397.397 0 0 0-.324-.274l-3.113-.438-1.387-2.71c-.137-.266-.578-.266-.71 0l-1.392 2.71-3.109.438a.4.4 0 0 0-.219.688l2.243 2.105-.532 2.972c-.023.149.035.301.157.39a.41.41 0 0 0 .421.036l2.786-1.41 2.785 1.41a.406.406 0 0 0 .418-.035.4.4 0 0 0 .156-.39l-.527-2.973 2.242-2.106a.406.406 0 0 0 .105-.414zm-3.054 2.085a.408.408 0 0 0-.122.363l.426 2.39-2.25-1.14a.436.436 0 0 0-.183-.043.433.433 0 0 0-.18.043l-2.25 1.14.426-2.39a.405.405 0 0 0-.121-.363l-1.793-1.684 2.492-.347a.401.401 0 0 0 .3-.215l1.126-2.203 1.129 2.203a.401.401 0 0 0 .3.215l2.489.347zm0 0"/>
</svg>
