<svg xmlns="http://www.w3.org/2000/svg" width="32" height="32" viewBox="0 0 24 24">
    <path d="M14.688 8.8h-10a.4.4 0 0 0 0 .802h10c.222 0 .398-.18.398-.403a.398.398 0 0 0-.399-.398zm0 0M4.688 6.398h4A.395.395 0 0 0 9.085 6a.395.395 0 0 0-.399-.398h-4a.398.398 0 1 0 0 .796zm0 0M14.688 12h-10a.4.4 0 0 0 0 .8h10c.222 0 .398-.179.398-.402a.398.398 0 0 0-.399-.398zm0 0M11.488 15.2h-6.8a.401.401 0 0 0 0 .8h6.8a.4.4 0 0 0 0-.8zm0 0M10.29 19.2a.4.4 0 0 0 0-.802H4.687a.401.401 0 0 0 0 .801zm0 0"/>
    <path d="M1.086.8h11.601v5.598h5.602v7.204h.797V5.836L13.254 0H.289v24h11.598v-.8H1.086zm12.402.567l4.235 4.235h-4.235zm0 0"/>
    <path d="M23.363 14.863l-1.14-1.136c-.45-.454-1.239-.454-1.688 0l-6.156 6.152-.848 3.113-.21.207a.403.403 0 0 0 0 .563l-.005.008h.008a.41.41 0 0 0 .281.113c.102 0 .204-.04.282-.117l.207-.207 3.113-.848 6.156-6.156c.227-.227.348-.528.348-.848 0-.316-.121-.617-.348-.844zm-8.062 5.227l4.097-4.098 1.7 1.695L17 21.785zm-.36.77l1.286 1.288-1.77.48zm7.856-4.872l-1.137 1.137-1.695-1.7 1.137-1.136a.401.401 0 0 1 .554 0l1.14 1.14a.397.397 0 0 1 .118.278.4.4 0 0 1-.117.281zm0 0"/>
</svg>
