<svg xmlns="http://www.w3.org/2000/svg" width="32" height="32" viewBox="0 0 24 24">
    <path d="M22.512 12.043a1.222 1.222 0 0 0-1.692 0l-6.156 6.156-.848 3.11-.207.207a.4.4 0 0 0-.004.562v.008h.008a.399.399 0 0 0 .563-.004l.207-.207 3.113-.848 6.156-6.156a1.2 1.2 0 0 0 0-1.691zm-6.922 6.363l4.098-4.097 1.695 1.699-4.098 4.094zm-.363.77l1.289 1.289-1.77.48zm7.859-4.871l-1.137 1.136-1.699-1.699 1.137-1.133a.398.398 0 0 1 .558 0l1.14 1.137a.398.398 0 0 1 0 .559zm0 0"/>
    <path d="M10.61 4.2L8.761 1.62l-.157-.223H0v21.204h11.602V21.8H.8V2.199h7.394l2 2.801h.004l1.875 2.621c.078.11.2.168.324.168v.012H23.2V11H24V4.2zM12.612 7l-1.43-2H23.2v2zm0 0"/>
</svg>
