<svg xmlns="http://www.w3.org/2000/svg" width="32" height="32" viewBox="0 0 24 24">
    <path d="M 20.363281 18.796875 L 22.957031 17.5 L 15.902344 14.902344 L 18.5 21.957031 L 19.796875 19.363281 L 22.515625 22.082031 C 22.59375 22.160156 22.699219 22.199219 22.800781 22.199219 C 22.902344 22.199219 23.003906 22.160156 23.082031 22.082031 C 23.238281 21.925781 23.238281 21.671875 23.082031 21.515625 Z M 17.253906 16.253906 L 20.945312 17.613281 L 19.390625 18.390625 L 18.613281 19.945312 Z M 17.253906 16.253906"/>
    <path d="M 10.609375 4.199219 L 8.726562 1.566406 L 8.605469 1.398438 L 0 1.398438 L 0 22.601562 L 15.199219 22.601562 L 15.199219 21.800781 L 0.800781 21.800781 L 0.800781 2.199219 L 8.195312 2.199219 L 10.195312 5 L 10.199219 5 L 12.074219 7.621094 C 12.152344 7.730469 12.277344 7.789062 12.398438 7.789062 L 12.398438 7.800781 L 23.199219 7.800781 L 23.199219 15 L 24 15 L 24 4.199219 Z M 12.613281 7 L 11.183594 5 L 23.199219 5 L 23.199219 7 Z M 12.613281 7"/>
</svg>
