<svg xmlns="http://www.w3.org/2000/svg" width="32" height="32" viewBox="0 0 24 24">
    <path d="M 23.875 21.253906 L 19.140625 13.132812 C 18.976562 12.855469 18.6875 12.6875 18.367188 12.6875 C 18.042969 12.6875 17.753906 12.855469 17.59375 13.132812 L 12.855469 21.253906 C 12.691406 21.535156 12.691406 21.871094 12.851562 22.152344 C 13.011719 22.433594 13.304688 22.601562 13.628906 22.601562 L 23.105469 22.601562 C 23.429688 22.601562 23.71875 22.433594 23.878906 22.152344 C 24.042969 21.871094 24.039062 21.535156 23.875 21.253906 Z M 23.1875 21.753906 C 23.175781 21.773438 23.148438 21.800781 23.105469 21.800781 L 13.628906 21.800781 C 13.582031 21.800781 13.558594 21.773438 13.546875 21.753906 C 13.53125 21.730469 13.523438 21.695312 13.546875 21.65625 L 18.285156 13.535156 C 18.304688 13.496094 18.339844 13.488281 18.367188 13.488281 C 18.390625 13.488281 18.425781 13.496094 18.449219 13.535156 L 23.1875 21.65625 C 23.207031 21.695312 23.199219 21.730469 23.1875 21.753906 Z M 23.1875 21.753906"/>
    <path d="M18.398438 15.398438C18.179688 15.398438 18 15.578125 18 15.800781L18 19C18 19.222656 18.179688 19.398438 18.398438 19.398438 18.621094 19.398438 18.800781 19.222656 18.800781 19L18.800781 15.800781C18.800781 15.578125 18.621094 15.398438 18.398438 15.398438zM18.117188 20.316406C18.042969 20.390625 18 20.492188 18 20.601562 18 20.707031 18.042969 20.808594 18.117188 20.882812 18.191406 20.957031 18.296875 21 18.398438 21 18.507812 21 18.613281 20.957031 18.679688 20.882812 18.753906 20.8125 18.800781 20.707031 18.800781 20.601562 18.800781 20.492188 18.753906 20.386719 18.683594 20.316406 18.539062 20.167969 18.269531 20.167969 18.117188 20.316406zM18.117188 20.316406"/>
    <path d="M 23.199219 7.800781 L 23.199219 14.199219 L 24 14.199219 L 24 4.199219 L 10.609375 4.199219 L 8.761719 1.621094 L 8.605469 1.398438 L 0 1.398438 L 0 22.601562 L 9.601562 22.601562 L 9.601562 21.800781 L 0.800781 21.800781 L 0.800781 2.199219 L 8.195312 2.199219 L 10.195312 5 L 10.199219 5 L 12.074219 7.621094 C 12.152344 7.730469 12.273438 7.789062 12.398438 7.789062 L 12.398438 7.800781 Z M 11.183594 5 L 23.199219 5 L 23.199219 7 L 12.613281 7 Z M 11.183594 5"/>
</svg>
