<svg xmlns="http://www.w3.org/2000/svg" width="32" height="32" viewBox="0 0 24 24">
    <path d="M 20.605469 12.957031 C 19.648438 12.957031 18.84375 13.535156 18.332031 14.242188 C 17.824219 13.535156 17.019531 12.957031 16.058594 12.957031 C 14.53125 12.957031 13.3125 14.140625 13.152344 15.777344 C 13.136719 15.882812 13.09375 16.265625 13.242188 16.859375 C 13.460938 17.738281 13.960938 18.539062 14.695312 19.167969 L 18.027344 22.023438 C 18.117188 22.097656 18.226562 22.132812 18.332031 22.132812 C 18.441406 22.132812 18.550781 22.097656 18.640625 22.019531 L 21.972656 19.167969 C 22.703125 18.539062 23.207031 17.742188 23.425781 16.859375 C 23.574219 16.265625 23.53125 15.886719 23.515625 15.777344 C 23.355469 14.140625 22.136719 12.957031 20.605469 12.957031 Z M 22.648438 16.667969 C 22.46875 17.386719 22.054688 18.039062 21.453125 18.5625 L 18.332031 21.230469 L 15.214844 18.5625 C 14.609375 18.039062 14.195312 17.386719 14.019531 16.667969 C 13.898438 16.183594 13.941406 15.910156 13.941406 15.910156 L 13.949219 15.867188 C 14.046875 14.820312 14.800781 13.757812 16.058594 13.757812 C 16.9375 13.757812 17.648438 14.480469 17.96875 15.199219 L 18.332031 16.023438 L 18.699219 15.199219 C 19.019531 14.480469 19.730469 13.757812 20.605469 13.757812 C 21.867188 13.757812 22.621094 14.820312 22.726562 15.902344 C 22.726562 15.90625 22.769531 16.179688 22.648438 16.667969 Z M 22.648438 16.667969"/>
    <path d="M 10.609375 4.199219 L 8.726562 1.566406 L 8.605469 1.398438 L 0 1.398438 L 0 22.601562 L 12.800781 22.601562 L 12.800781 21.800781 L 0.800781 21.800781 L 0.800781 2.199219 L 8.195312 2.199219 L 10.195312 5 L 10.199219 5 L 12.074219 7.621094 C 12.152344 7.730469 12.277344 7.789062 12.398438 7.789062 L 12.398438 7.800781 L 23.199219 7.800781 L 23.199219 12.601562 L 24 12.601562 L 24 4.199219 Z M 12.613281 7 L 11.183594 5 L 23.199219 5 L 23.199219 7 Z M 12.613281 7"/>
</svg>
