<svg xmlns="http://www.w3.org/2000/svg" width="32" height="32" viewBox="0 0 24 24">
    <path d="M20.605 12.957c-.957 0-1.761.578-2.273 1.285-.508-.707-1.312-1.285-2.273-1.285-1.528 0-2.747 1.184-2.907 2.82-.015.106-.058.489.09 1.082a4.46 4.46 0 0 0 1.453 2.309l3.332 2.855a.479.479 0 0 0 .614-.003l3.332-2.852c.73-.629 1.234-1.426 1.453-2.309.148-.593.105-.972.09-1.082-.16-1.636-1.38-2.82-2.91-2.82zm2.043 3.711c-.18.719-.593 1.371-1.195 1.895l-3.121 2.667-3.117-2.668c-.606-.523-1.02-1.175-1.195-1.894-.122-.484-.079-.758-.079-.758l.008-.043c.098-1.047.852-2.11 2.11-2.11.878 0 1.59.723 1.91 1.442l.363.824.367-.824c.32-.719 1.031-1.441 1.906-1.441 1.262 0 2.016 1.062 2.122 2.144 0 .004.043.278-.079.766zm0 0"/>
    <path d="M10.61 4.2L8.726 1.565l-.122-.168H0v21.204h12.8V21.8H.8V2.199h7.395l2 2.801h.004l1.875 2.621c.078.11.203.168.324.168v.012H23.2v4.8H24V4.2zM12.612 7l-1.43-2H23.2v2zm0 0"/>
</svg>
