<svg xmlns="http://www.w3.org/2000/svg" width="32" height="32" viewBox="0 0 24 24">
    <path d="M23.765625 17.167969C23.59375 15.410156 22.28125 14.136719 20.640625 14.136719 19.609375 14.136719 18.746094 14.761719 18.195312 15.519531 17.648438 14.761719 16.78125 14.136719 15.753906 14.136719 14.113281 14.136719 12.800781 15.410156 12.628906 17.167969 12.609375 17.285156 12.566406 17.695312 12.726562 18.332031 12.960938 19.277344 13.5 20.132812 14.285156 20.8125L17.867188 23.878906C17.964844 23.960938 18.078125 24 18.195312 24 18.3125 24 18.429688 23.957031 18.527344 23.878906L22.109375 20.8125C22.894531 20.136719 23.433594 19.277344 23.667969 18.332031 23.828125 17.695312 23.78125 17.285156 23.765625 17.167969zM22.832031 18.125C22.640625 18.898438 22.199219 19.601562 21.546875 20.160156L18.195312 23.027344 14.847656 20.160156C14.195312 19.601562 13.75 18.898438 13.558594 18.125 13.429688 17.605469 13.476562 17.3125 13.476562 17.3125L13.484375 17.265625C13.589844 16.140625 14.402344 14.996094 15.753906 14.996094 16.695312 14.996094 17.460938 15.777344 17.804688 16.546875L18.195312 17.433594 18.589844 16.546875C18.933594 15.777344 19.699219 15 20.640625 15 21.992188 15 22.804688 16.140625 22.917969 17.304688 22.917969 17.308594 22.964844 17.601562 22.832031 18.125zM11.820312 5.15625C11.582031 5.15625 11.390625 5.351562 11.390625 5.589844 11.390625 5.824219 11.582031 6.019531 11.820312 6.019531L19.558594 6.019531C19.796875 6.019531 19.988281 5.824219 19.988281 5.589844 19.988281 5.351562 19.796875 5.15625 19.558594 5.15625zM19.988281 11.605469C19.988281 11.367188 19.796875 11.175781 19.558594 11.175781L11.820312 11.175781C11.582031 11.175781 11.390625 11.367188 11.390625 11.605469 11.390625 11.84375 11.582031 12.035156 11.820312 12.035156L19.558594 12.035156C19.796875 12.035156 19.988281 11.84375 19.988281 11.605469zM9.0625 3.113281C8.882812 2.957031 8.609375 2.976562 8.457031 3.160156L5.769531 6.292969 4.125 5.058594C3.9375 4.917969 3.667969 4.957031 3.527344 5.144531 3.382812 5.335938 3.421875 5.605469 3.613281 5.746094L5.578125 7.222656C5.652344 7.277344 5.742188 7.308594 5.832031 7.308594 5.957031 7.308594 6.074219 7.253906 6.160156 7.15625L9.109375 3.71875C9.261719 3.539062 9.242188 3.265625 9.0625 3.113281zM9.0625 9.128906C8.882812 8.976562 8.609375 8.996094 8.457031 9.175781L5.769531 12.308594 4.125 11.078125C3.9375 10.933594 3.667969 10.972656 3.527344 11.164062 3.382812 11.351562 3.421875 11.621094 3.613281 11.765625L5.578125 13.238281C5.652344 13.296875 5.742188 13.324219 5.832031 13.324219 5.957031 13.324219 6.074219 13.273438 6.160156 13.175781L9.109375 9.734375C9.261719 9.554688 9.242188 9.285156 9.0625 9.128906zM8.457031 15.625L5.769531 18.757812 4.125 17.523438C3.9375 17.382812 3.667969 17.421875 3.527344 17.609375 3.382812 17.800781 3.421875 18.070312 3.613281 18.210938L5.578125 19.6875C5.652344 19.746094 5.742188 19.773438 5.832031 19.773438 5.957031 19.773438 6.074219 19.722656 6.160156 19.621094L9.109375 16.183594C9.261719 16.003906 9.242188 15.730469 9.0625 15.578125 8.882812 15.421875 8.609375 15.445312 8.457031 15.625zM8.457031 15.625"/>
    <path d="M 10.960938 22.351562 L 5.449219 22.351562 C 3.039062 22.351562 1.074219 20.390625 1.074219 17.976562 L 1.074219 5.234375 C 1.074219 2.820312 3.039062 0.859375 5.449219 0.859375 L 18.191406 0.859375 C 20.605469 0.859375 22.566406 2.820312 22.566406 5.234375 L 22.566406 12.894531 C 22.566406 13.132812 22.757812 13.324219 22.996094 13.324219 C 23.234375 13.324219 23.425781 13.132812 23.425781 12.894531 L 23.425781 5.234375 C 23.425781 2.347656 21.078125 0 18.191406 0 L 5.449219 0 C 2.5625 0 0.214844 2.347656 0.214844 5.234375 L 0.214844 17.976562 C 0.214844 20.863281 2.5625 23.210938 5.449219 23.210938 L 10.960938 23.210938 C 11.199219 23.210938 11.390625 23.019531 11.390625 22.78125 C 11.390625 22.542969 11.199219 22.351562 10.960938 22.351562 Z M 10.960938 22.351562"/>
</svg>
