<svg xmlns="http://www.w3.org/2000/svg" width="32" height="32" viewBox="0 0 24 24">
    <path d="M21.262 14.887v-.992h.422a.423.423 0 0 0 0-.844h-7.579a.423.423 0 0 0 0 .844h.422v.992c0 1.488.778 2.843 2.032 3.64-1.254.797-2.032 2.149-2.032 3.637v.992h-.422a.423.423 0 0 0 0 .844h7.579a.423.423 0 0 0 0-.844h-.422v-.992c0-1.488-.778-2.84-2.032-3.637 1.254-.797 2.032-2.152 2.032-3.64zm-.84 7.277v.992h-5.055v-.992c0-1.398.856-2.652 2.188-3.215h.675c1.336.563 2.192 1.817 2.192 3.215zm-2.188-4.059h-.675c-1.332-.566-2.192-1.82-2.192-3.218v-.992h5.055v.992c0 1.398-.856 2.652-2.188 3.218zm0 0M12 5.895h7.578a.423.423 0 0 0 0-.844H12a.423.423 0 0 0 0 .844zm0 0M12 11.79h7.578a.42.42 0 1 0 0-.84H12a.42.42 0 1 0 0 .84zm0 0M9.297 3.05a.42.42 0 0 0-.594.044l-2.629 3.07-1.61-1.207a.422.422 0 0 0-.507.672l1.926 1.445a.428.428 0 0 0 .574-.062L9.344 3.64a.42.42 0 0 0-.047-.59zm0 0M9.297 8.945a.42.42 0 0 0-.594.043l-2.629 3.07-1.61-1.206a.422.422 0 0 0-.507.671l1.926 1.446a.428.428 0 0 0 .574-.063l2.887-3.37a.42.42 0 0 0-.047-.59zm0 0M8.703 15.305l-2.629 3.07-1.61-1.207a.418.418 0 0 0-.589.082.422.422 0 0 0 .082.59l1.926 1.445a.428.428 0 0 0 .574-.066l2.887-3.367a.425.425 0 0 0-.047-.594.425.425 0 0 0-.594.047zm0 0"/>
    <path d="M18.242 0H5.758A5.13 5.13 0 0 0 .633 5.125v12.484a5.131 5.131 0 0 0 5.125 5.13h5.82a.423.423 0 0 0 0-.844h-5.82a4.29 4.29 0 0 1-4.285-4.286V5.125A4.289 4.289 0 0 1 5.758.844h12.484a4.289 4.289 0 0 1 4.285 4.281v6.242a.42.42 0 1 0 .84 0V5.125A5.13 5.13 0 0 0 18.242 0zm0 0"/>
</svg>
