<svg xmlns="http://www.w3.org/2000/svg" width="32" height="32" viewBox="0 0 24 24">
    <path d="M21.261719 14.886719L21.261719 13.894531 21.683594 13.894531C21.917969 13.894531 22.105469 13.707031 22.105469 13.472656 22.105469 13.242188 21.917969 13.050781 21.683594 13.050781L14.105469 13.050781C13.871094 13.050781 13.683594 13.242188 13.683594 13.472656 13.683594 13.707031 13.871094 13.894531 14.105469 13.894531L14.527344 13.894531 14.527344 14.886719C14.527344 16.375 15.304688 17.730469 16.558594 18.527344 15.304688 19.324219 14.527344 20.675781 14.527344 22.164062L14.527344 23.15625 14.105469 23.15625C13.871094 23.15625 13.683594 23.347656 13.683594 23.578125 13.683594 23.8125 13.871094 24 14.105469 24L21.683594 24C21.917969 24 22.105469 23.8125 22.105469 23.578125 22.105469 23.347656 21.917969 23.15625 21.683594 23.15625L21.261719 23.15625 21.261719 22.164062C21.261719 20.675781 20.484375 19.324219 19.230469 18.527344 20.484375 17.730469 21.261719 16.375 21.261719 14.886719zM20.421875 22.164062L20.421875 23.15625 15.367188 23.15625 15.367188 22.164062C15.367188 20.765625 16.222656 19.511719 17.554688 18.949219L18.230469 18.949219C19.566406 19.511719 20.421875 20.765625 20.421875 22.164062zM18.234375 18.105469L17.558594 18.105469C16.226562 17.539062 15.367188 16.285156 15.367188 14.886719L15.367188 13.894531 20.421875 13.894531 20.421875 14.886719C20.421875 16.285156 19.566406 17.539062 18.234375 18.105469zM12 5.894531L19.578125 5.894531C19.8125 5.894531 20 5.707031 20 5.472656 20 5.242188 19.8125 5.050781 19.578125 5.050781L12 5.050781C11.765625 5.050781 11.578125 5.242188 11.578125 5.472656 11.578125 5.707031 11.765625 5.894531 12 5.894531zM12 11.789062L19.578125 11.789062C19.8125 11.789062 20 11.601562 20 11.367188 20 11.136719 19.8125 10.949219 19.578125 10.949219L12 10.949219C11.765625 10.949219 11.578125 11.136719 11.578125 11.367188 11.578125 11.601562 11.765625 11.789062 12 11.789062zM9.296875 3.050781C9.121094 2.898438 8.855469 2.917969 8.703125 3.09375L6.074219 6.164062 4.464844 4.957031C4.277344 4.816406 4.011719 4.855469 3.875 5.039062 3.734375 5.226562 3.773438 5.488281 3.957031 5.628906L5.882812 7.074219C5.957031 7.128906 6.046875 7.15625 6.136719 7.15625 6.253906 7.15625 6.371094 7.105469 6.457031 7.011719L9.34375 3.640625C9.492188 3.464844 9.472656 3.199219 9.296875 3.050781zM9.296875 8.945312C9.121094 8.792969 8.855469 8.8125 8.703125 8.988281L6.074219 12.058594 4.464844 10.851562C4.277344 10.710938 4.011719 10.75 3.875 10.933594 3.734375 11.121094 3.773438 11.386719 3.957031 11.523438L5.882812 12.96875C5.957031 13.023438 6.046875 13.050781 6.136719 13.050781 6.253906 13.050781 6.371094 13.003906 6.457031 12.90625L9.34375 9.535156C9.492188 9.359375 9.472656 9.09375 9.296875 8.945312zM8.703125 15.304688L6.074219 18.375 4.464844 17.167969C4.277344 17.027344 4.011719 17.0625 3.875 17.25 3.734375 17.4375 3.773438 17.699219 3.957031 17.839844L5.882812 19.285156C5.957031 19.339844 6.046875 19.367188 6.136719 19.367188 6.253906 19.367188 6.371094 19.316406 6.457031 19.21875L9.34375 15.851562C9.492188 15.675781 9.472656 15.410156 9.296875 15.257812 9.121094 15.109375 8.855469 15.128906 8.703125 15.304688zM8.703125 15.304688"/>
    <path d="M 18.242188 0 L 5.757812 0 C 2.929688 0 0.632812 2.300781 0.632812 5.125 L 0.632812 17.609375 C 0.632812 20.4375 2.929688 22.738281 5.757812 22.738281 L 11.578125 22.738281 C 11.8125 22.738281 12 22.546875 12 22.316406 C 12 22.082031 11.8125 21.894531 11.578125 21.894531 L 5.757812 21.894531 C 3.394531 21.894531 1.472656 19.972656 1.472656 17.609375 L 1.472656 5.125 C 1.472656 2.765625 3.394531 0.84375 5.757812 0.84375 L 18.242188 0.84375 C 20.605469 0.84375 22.527344 2.765625 22.527344 5.125 L 22.527344 11.367188 C 22.527344 11.601562 22.714844 11.789062 22.949219 11.789062 C 23.179688 11.789062 23.367188 11.601562 23.367188 11.367188 L 23.367188 5.125 C 23.367188 2.300781 21.070312 0 18.242188 0 Z M 18.242188 0"/>
</svg>
