<svg xmlns="http://www.w3.org/2000/svg" width="32" height="32" viewBox="0 0 24 24">
    <path d="M18.547 13.527a5.24 5.24 0 0 0-5.238 5.235A5.241 5.241 0 0 0 18.547 24a5.24 5.24 0 0 0 5.234-5.238 5.24 5.24 0 0 0-5.234-5.235zm0 9.602a4.371 4.371 0 0 1-4.363-4.367 4.37 4.37 0 0 1 4.363-4.364 4.37 4.37 0 0 1 4.363 4.364 4.371 4.371 0 0 1-4.363 4.367zm0 0"/>
    <path d="M21.164 18.328H18.98v-2.183a.433.433 0 0 0-.433-.434.433.433 0 0 0-.438.434v2.617c0 .242.196.437.438.437h2.617a.436.436 0 0 0 0-.871zm0 0M12 6.11h7.855a.433.433 0 0 0 .434-.438.43.43 0 0 0-.434-.434H12a.433.433 0 0 0-.438.434c0 .242.196.437.438.437zm0 0M12 12.219h7.855a.433.433 0 0 0 .434-.438.433.433 0 0 0-.434-.437H12a.437.437 0 1 0 0 .875zm0 0M9.2 3.16a.438.438 0 0 0-.618.047l-2.727 3.18-1.668-1.25a.436.436 0 1 0-.523.699L5.66 7.332a.437.437 0 0 0 .594-.066l2.992-3.493A.434.434 0 0 0 9.2 3.16zm0 0M9.2 9.27a.438.438 0 0 0-.618.046l-2.727 3.18-1.668-1.25a.436.436 0 0 0-.523.695l1.996 1.5a.437.437 0 0 0 .594-.066l2.992-3.492A.434.434 0 0 0 9.2 9.27zm0 0M8.582 15.863l-2.727 3.18-1.668-1.254a.436.436 0 0 0-.523.7l1.996 1.495c.078.059.172.09.262.09a.434.434 0 0 0 .332-.156l2.992-3.488a.439.439 0 0 0-.047-.617.439.439 0 0 0-.617.05zm0 0"/>
    <path d="M18.469 0H5.53A5.318 5.318 0 0 0 .22 5.313V18.25a5.318 5.318 0 0 0 5.312 5.313H12a.436.436 0 1 0 0-.872H5.531A4.446 4.446 0 0 1 1.09 18.25V5.312A4.446 4.446 0 0 1 5.53.872H18.47a4.446 4.446 0 0 1 4.441 4.44v6.47a.436.436 0 1 0 .871 0v-6.47A5.318 5.318 0 0 0 18.47 0zm0 0"/>
</svg>
