<svg xmlns="http://www.w3.org/2000/svg" width="32" height="32" viewBox="0 0 24 24">
    <path d="M13.895 13.684v10.105H24V13.684zm9.261 9.261h-3.789v-5.297l1.809 1.805.594-.594-2.82-2.824-2.825 2.824.594.594 1.808-1.805v5.297h-3.789v-8.418h8.418zm0 0"/>
    <path d="M11.113 19.613l-2.691-1.156V1.332l6.316 3.34v6.484a.42.42 0 1 0 .84 0V4.703l6.317-2.601V12a.422.422 0 0 0 .844 0V1.473c0-.141-.071-.274-.188-.352a.43.43 0 0 0-.395-.039L15.18 3.957 8.195.257 8.18.255a482.546 482.546 0 0 0-.098-.035C8.059.215 8.035.215 8.016.215 8.004.21 7.992.21 7.98.21l-.066.012a.139.139 0 0 0-.039.007h-.008L.285 2.758A.425.425 0 0 0 0 3.156v18.106a.42.42 0 0 0 .555.398l7.425-2.473 2.801 1.2c.055.023.11.031.168.031.16 0 .317-.094.387-.254a.42.42 0 0 0-.223-.55zM.843 3.461l6.735-2.246v17.219L.844 20.68zm0 0"/>
</svg>
