<svg xmlns="http://www.w3.org/2000/svg" width="32" height="32" viewBox="0 0 24 24">
    <path d="M 20.707031 15.789062 L 18.351562 19.175781 L 16.6875 17.808594 C 16.507812 17.660156 16.242188 17.6875 16.09375 17.867188 C 15.949219 18.046875 15.972656 18.3125 16.152344 18.460938 L 18.167969 20.113281 C 18.246094 20.175781 18.339844 20.210938 18.4375 20.210938 C 18.457031 20.210938 18.472656 20.207031 18.492188 20.207031 C 18.609375 20.191406 18.714844 20.125 18.78125 20.03125 L 21.398438 16.269531 C 21.53125 16.078125 21.484375 15.816406 21.292969 15.683594 C 21.101562 15.550781 20.839844 15.597656 20.707031 15.789062 Z M 20.707031 15.789062"/>
    <path d="M 22.738281 14.613281 L 22.738281 1.683594 C 22.738281 1.542969 22.667969 1.410156 22.550781 1.332031 C 22.433594 1.253906 22.285156 1.242188 22.15625 1.292969 L 15.179688 4.167969 L 8.195312 0.46875 C 8.191406 0.464844 8.1875 0.464844 8.179688 0.464844 C 8.160156 0.453125 8.136719 0.445312 8.117188 0.441406 C 8.105469 0.4375 8.09375 0.433594 8.085938 0.429688 C 8.058594 0.425781 8.035156 0.421875 8.007812 0.421875 C 8 0.421875 7.992188 0.421875 7.980469 0.421875 C 7.957031 0.421875 7.933594 0.425781 7.910156 0.433594 C 7.898438 0.433594 7.886719 0.4375 7.875 0.441406 C 7.871094 0.441406 7.867188 0.441406 7.867188 0.441406 L 0.289062 2.96875 C 0.117188 3.027344 0 3.1875 0 3.367188 L 0 21.472656 C 0 21.609375 0.0664062 21.734375 0.175781 21.816406 C 0.246094 21.867188 0.332031 21.894531 0.421875 21.894531 C 0.464844 21.894531 0.511719 21.886719 0.554688 21.871094 L 7.984375 19.394531 L 14.996094 22.285156 C 14.996094 22.285156 15 22.285156 15 22.285156 C 15.953125 23.089844 17.183594 23.578125 18.527344 23.578125 C 21.542969 23.578125 24 21.121094 24 18.105469 C 24 16.777344 23.523438 15.558594 22.738281 14.613281 Z M 21.894531 13.796875 C 21.863281 13.769531 21.828125 13.75 21.796875 13.726562 C 21.710938 13.660156 21.621094 13.59375 21.527344 13.53125 C 21.519531 13.527344 21.507812 13.519531 21.5 13.515625 C 21.28125 13.375 21.054688 13.25 20.816406 13.140625 C 20.785156 13.125 20.753906 13.109375 20.722656 13.09375 C 20.628906 13.054688 20.535156 13.019531 20.441406 12.984375 C 20.378906 12.960938 20.320312 12.9375 20.257812 12.917969 C 20.171875 12.886719 20.082031 12.863281 19.996094 12.835938 C 19.917969 12.816406 19.84375 12.796875 19.765625 12.777344 C 19.6875 12.761719 19.605469 12.742188 19.523438 12.726562 C 19.429688 12.710938 19.332031 12.695312 19.230469 12.683594 C 19.167969 12.675781 19.101562 12.664062 19.035156 12.65625 C 18.867188 12.640625 18.695312 12.632812 18.527344 12.632812 C 18.359375 12.632812 18.199219 12.640625 18.035156 12.65625 C 17.984375 12.660156 17.933594 12.667969 17.878906 12.671875 C 17.765625 12.6875 17.648438 12.707031 17.535156 12.726562 C 17.484375 12.734375 17.433594 12.742188 17.382812 12.753906 C 17.242188 12.785156 17.101562 12.820312 16.960938 12.863281 C 16.894531 12.882812 16.824219 12.90625 16.757812 12.929688 C 16.679688 12.957031 16.601562 12.984375 16.527344 13.015625 C 16.453125 13.046875 16.378906 13.074219 16.304688 13.105469 C 16.238281 13.136719 16.167969 13.171875 16.097656 13.207031 C 15.972656 13.269531 15.851562 13.335938 15.730469 13.410156 C 15.679688 13.4375 15.628906 13.46875 15.578125 13.5 L 15.578125 4.914062 L 21.894531 2.3125 Z M 0.84375 3.671875 L 7.578125 1.425781 L 7.578125 18.644531 L 0.84375 20.890625 Z M 8.421875 18.664062 L 8.421875 1.539062 L 14.738281 4.882812 L 14.738281 14.160156 C 14.734375 14.164062 14.730469 14.167969 14.726562 14.171875 C 14.597656 14.296875 14.476562 14.425781 14.359375 14.5625 C 14.359375 14.566406 14.355469 14.566406 14.355469 14.566406 C 13.542969 15.523438 13.050781 16.757812 13.050781 18.105469 C 13.050781 18.269531 13.0625 18.429688 13.078125 18.589844 C 13.082031 18.640625 13.085938 18.6875 13.09375 18.738281 C 13.105469 18.867188 13.125 18.996094 13.152344 19.121094 C 13.164062 19.191406 13.179688 19.261719 13.195312 19.332031 C 13.21875 19.429688 13.242188 19.523438 13.269531 19.621094 C 13.292969 19.695312 13.316406 19.769531 13.339844 19.84375 C 13.363281 19.910156 13.390625 19.980469 13.414062 20.046875 C 13.464844 20.179688 13.523438 20.3125 13.582031 20.441406 C 13.609375 20.492188 13.632812 20.546875 13.660156 20.601562 C 13.703125 20.679688 13.746094 20.757812 13.792969 20.835938 C 13.800781 20.851562 13.808594 20.871094 13.820312 20.886719 Z M 18.527344 22.734375 C 17.324219 22.734375 16.234375 22.273438 15.410156 21.519531 C 15.308594 21.429688 15.210938 21.332031 15.121094 21.230469 C 15.101562 21.210938 15.085938 21.195312 15.070312 21.175781 C 14.976562 21.070312 14.890625 20.964844 14.808594 20.855469 C 14.796875 20.835938 14.78125 20.820312 14.769531 20.804688 C 14.683594 20.6875 14.605469 20.566406 14.53125 20.4375 C 14.527344 20.429688 14.519531 20.417969 14.515625 20.410156 C 14.4375 20.273438 14.367188 20.136719 14.300781 19.992188 C 14.300781 19.992188 14.300781 19.988281 14.296875 19.984375 C 14.101562 19.550781 13.976562 19.085938 13.921875 18.609375 C 13.921875 18.601562 13.921875 18.597656 13.921875 18.589844 C 13.902344 18.429688 13.894531 18.269531 13.894531 18.105469 C 13.894531 17.941406 13.902344 17.777344 13.921875 17.617188 C 13.921875 17.613281 13.921875 17.605469 13.921875 17.601562 C 13.976562 17.121094 14.101562 16.65625 14.296875 16.222656 C 14.300781 16.21875 14.300781 16.21875 14.300781 16.214844 C 14.367188 16.074219 14.4375 15.933594 14.515625 15.800781 C 14.519531 15.789062 14.527344 15.78125 14.53125 15.769531 C 14.605469 15.644531 14.683594 15.523438 14.769531 15.402344 C 14.78125 15.386719 14.796875 15.371094 14.808594 15.355469 C 14.890625 15.242188 14.976562 15.136719 15.070312 15.03125 C 15.085938 15.015625 15.101562 14.996094 15.121094 14.976562 C 15.210938 14.878906 15.308594 14.78125 15.410156 14.6875 C 15.429688 14.671875 15.449219 14.652344 15.46875 14.636719 C 15.554688 14.558594 15.640625 14.488281 15.734375 14.417969 C 15.757812 14.398438 15.78125 14.382812 15.804688 14.363281 C 15.894531 14.296875 15.988281 14.234375 16.082031 14.175781 C 16.109375 14.160156 16.136719 14.140625 16.167969 14.125 C 16.261719 14.070312 16.355469 14.019531 16.449219 13.96875 C 16.484375 13.953125 16.519531 13.9375 16.550781 13.921875 C 16.644531 13.875 16.738281 13.835938 16.835938 13.796875 C 16.878906 13.78125 16.917969 13.765625 16.960938 13.75 C 17.050781 13.71875 17.144531 13.6875 17.234375 13.660156 C 17.289062 13.644531 17.34375 13.628906 17.398438 13.617188 C 17.484375 13.597656 17.566406 13.574219 17.652344 13.558594 C 17.726562 13.542969 17.800781 13.535156 17.878906 13.523438 C 17.945312 13.511719 18.011719 13.5 18.082031 13.496094 C 18.226562 13.480469 18.375 13.472656 18.527344 13.472656 C 18.691406 13.472656 18.855469 13.480469 19.015625 13.5 C 19.035156 13.5 19.050781 13.503906 19.070312 13.507812 C 19.214844 13.523438 19.359375 13.546875 19.496094 13.578125 C 19.515625 13.578125 19.527344 13.585938 19.542969 13.589844 C 19.6875 13.621094 19.828125 13.660156 19.964844 13.703125 C 19.980469 13.710938 19.996094 13.714844 20.011719 13.722656 C 20.148438 13.765625 20.28125 13.820312 20.414062 13.878906 C 20.433594 13.886719 20.449219 13.894531 20.46875 13.90625 C 20.59375 13.964844 20.71875 14.027344 20.839844 14.097656 C 20.859375 14.109375 20.882812 14.121094 20.902344 14.136719 C 21.019531 14.203125 21.132812 14.277344 21.238281 14.359375 C 21.261719 14.375 21.285156 14.390625 21.308594 14.410156 C 21.414062 14.488281 21.515625 14.574219 21.617188 14.664062 C 21.636719 14.683594 21.660156 14.699219 21.679688 14.71875 C 21.78125 14.8125 21.875 14.914062 21.96875 15.015625 C 22.707031 15.839844 23.15625 16.917969 23.15625 18.105469 C 23.15625 20.660156 21.078125 22.734375 18.527344 22.734375 Z M 18.527344 22.734375"/>
</svg>
