<svg xmlns="http://www.w3.org/2000/svg" width="32" height="32" viewBox="0 0 24 24">
    <path d="M 19.761719 19.773438 L 22.644531 18.335938 L 14.804688 15.445312 L 17.691406 23.285156 L 19.132812 20.402344 L 22.15625 23.425781 C 22.242188 23.511719 22.355469 23.554688 22.46875 23.554688 C 22.582031 23.554688 22.695312 23.511719 22.785156 23.425781 C 22.957031 23.25 22.957031 22.96875 22.785156 22.796875 Z M 16.304688 16.945312 L 20.410156 18.457031 L 18.679688 19.320312 L 17.816406 21.050781 Z M 16.304688 16.945312"/>
    <path d="M 23.804688 1.40625 C 23.679688 1.324219 23.523438 1.308594 23.386719 1.367188 L 16.023438 4.398438 L 8.652344 0.496094 C 8.648438 0.492188 8.640625 0.492188 8.632812 0.488281 C 8.613281 0.480469 8.59375 0.472656 8.570312 0.464844 C 8.558594 0.460938 8.542969 0.457031 8.53125 0.453125 C 8.507812 0.449219 8.484375 0.449219 8.460938 0.445312 C 8.449219 0.445312 8.433594 0.445312 8.421875 0.445312 C 8.398438 0.445312 8.378906 0.453125 8.355469 0.457031 C 8.339844 0.460938 8.328125 0.460938 8.3125 0.464844 C 8.308594 0.464844 8.308594 0.464844 8.304688 0.46875 L 0.304688 3.132812 C 0.121094 3.195312 0 3.363281 0 3.554688 L 0 22.664062 C 0 22.808594 0.0703125 22.941406 0.183594 23.027344 C 0.261719 23.082031 0.351562 23.109375 0.445312 23.109375 C 0.492188 23.109375 0.539062 23.101562 0.585938 23.085938 L 8.429688 20.472656 L 14.945312 23.078125 C 15 23.101562 15.054688 23.109375 15.109375 23.109375 C 15.289062 23.109375 15.453125 23.003906 15.523438 22.832031 C 15.613281 22.601562 15.503906 22.34375 15.277344 22.253906 L 8.890625 19.699219 L 8.890625 1.625 L 15.554688 5.15625 L 15.554688 12.886719 C 15.554688 13.132812 15.753906 13.332031 16 13.332031 C 16.246094 13.332031 16.445312 13.132812 16.445312 12.886719 L 16.445312 5.183594 L 23.109375 2.441406 L 23.109375 16.441406 C 23.109375 16.6875 23.308594 16.886719 23.554688 16.886719 C 23.800781 16.886719 24 16.6875 24 16.441406 L 24 1.777344 C 24 1.628906 23.925781 1.488281 23.804688 1.40625 Z M 0.890625 3.875 L 8 1.503906 L 8 19.679688 L 0.890625 22.050781 Z M 0.890625 3.875"/>
</svg>
