<svg xmlns="http://www.w3.org/2000/svg" width="32" height="32" viewBox="0 0 24 24">
    <path d="M23.98 16.453c-.171-1.75-1.48-3.023-3.117-3.023-1.027 0-1.886.62-2.433 1.379-.547-.758-1.41-1.38-2.438-1.38-1.637 0-2.945 1.27-3.117 3.024-.016.117-.059.524.098 1.16.234.942.773 1.797 1.554 2.477l3.903 3.336 3.898-3.34c.785-.676 1.32-1.527 1.555-2.473.16-.636.117-1.043.097-1.16zm-.93.957c-.19.766-.632 1.469-1.28 2.027l-3.34 2.86-3.34-2.86c-.649-.558-1.094-1.261-1.285-2.03-.13-.52-.082-.813-.082-.813l.007-.043c.106-1.125.915-2.262 2.262-2.262.938 0 1.703.777 2.047 1.547l.39.883.391-.887c.34-.766 1.106-1.543 2.043-1.543 1.348 0 2.16 1.137 2.27 2.3 0 .005.05.294-.082.821zm0 0"/>
    <path d="M11.313 20.324L8.57 19.148V1.715L15 5.117v6.172c0 .238.191.43.43.43a.43.43 0 0 0 .43-.43V5.15L22.284 2.5v9.645c0 .238.192.43.43.43s.43-.192.43-.43V1.859a.434.434 0 0 0-.192-.355.432.432 0 0 0-.402-.04l-7.098 2.923L8.343.625C8.34.621 8.333.621 8.329.617L8.262.594C8.25.59 8.238.586 8.227.586 8.203.578 8.18.578 8.157.578c-.012 0-.024-.004-.036-.004L8.06.586C8.043.59 8.03.59 8.016.594c-.004.004-.004.004-.008.004L.293 3.168A.428.428 0 0 0 0 3.574v18.43a.43.43 0 0 0 .563.406l7.562-2.52 2.848 1.22a.377.377 0 0 0 .172.035.429.429 0 0 0 .168-.82zM.854 3.883l6.86-2.285V19.12l-6.86 2.29zm0 0"/>
</svg>
