<svg xmlns="http://www.w3.org/2000/svg" width="32" height="32" viewBox="0 0 24 24">
    <path d="M 23.847656 18.675781 C 22.347656 16.382812 20.34375 15.09375 18.1875 15.007812 C 18.070312 14.992188 17.957031 14.984375 17.835938 14.984375 C 17.628906 14.984375 17.421875 15.007812 17.226562 15.046875 C 15.261719 15.300781 13.457031 16.566406 12.074219 18.675781 L 11.875 18.980469 L 12.027344 19.214844 C 13.582031 21.585938 15.671875 22.890625 17.914062 22.890625 C 20.160156 22.890625 22.25 21.582031 23.800781 19.214844 L 24 18.910156 Z M 19.933594 17.933594 C 19.933594 19.089844 18.992188 20.03125 17.835938 20.03125 C 16.679688 20.03125 15.738281 19.089844 15.738281 17.933594 C 15.738281 16.933594 16.445312 16.097656 17.386719 15.890625 C 17.574219 15.867188 17.765625 15.851562 17.960938 15.851562 C 17.972656 15.851562 17.980469 15.851562 17.992188 15.855469 C 19.074219 15.933594 19.933594 16.832031 19.933594 17.933594 Z M 17.914062 22.035156 C 16.039062 22.035156 14.269531 20.953125 12.898438 18.976562 C 13.566406 18 14.328125 17.238281 15.152344 16.710938 C 14.984375 17.085938 14.886719 17.5 14.886719 17.933594 C 14.886719 19.5625 16.210938 20.886719 17.835938 20.886719 C 19.464844 20.886719 20.785156 19.5625 20.785156 17.933594 C 20.785156 17.414062 20.652344 16.929688 20.414062 16.503906 C 21.355469 17.019531 22.226562 17.832031 22.976562 18.910156 C 21.601562 20.929688 19.808594 22.035156 17.914062 22.035156 Z M 17.914062 22.035156"/>
    <path d="M 11.273438 20.789062 L 8.542969 19.617188 L 8.542969 2.246094 L 14.949219 5.636719 L 14.949219 13.066406 C 14.949219 13.304688 15.140625 13.492188 15.375 13.492188 C 15.609375 13.492188 15.800781 13.304688 15.800781 13.066406 L 15.800781 5.664062 L 22.207031 3.027344 L 22.207031 14.347656 C 22.207031 14.585938 22.398438 14.773438 22.636719 14.773438 C 22.871094 14.773438 23.0625 14.585938 23.0625 14.347656 L 23.0625 2.390625 C 23.0625 2.246094 22.992188 2.113281 22.875 2.035156 C 22.753906 1.957031 22.605469 1.941406 22.472656 1.996094 L 15.398438 4.90625 L 8.316406 1.15625 C 8.308594 1.15625 8.300781 1.152344 8.296875 1.152344 C 8.277344 1.140625 8.257812 1.132812 8.234375 1.128906 C 8.222656 1.125 8.210938 1.121094 8.199219 1.117188 C 8.175781 1.113281 8.152344 1.113281 8.128906 1.109375 C 8.117188 1.109375 8.105469 1.109375 8.09375 1.109375 C 8.070312 1.113281 8.050781 1.117188 8.027344 1.121094 C 8.015625 1.125 8 1.125 7.988281 1.128906 C 7.984375 1.128906 7.980469 1.128906 7.980469 1.132812 L 0.292969 3.695312 C 0.117188 3.75 0 3.914062 0 4.097656 L 0 22.464844 C 0 22.601562 0.0664062 22.730469 0.175781 22.808594 C 0.25 22.863281 0.339844 22.890625 0.425781 22.890625 C 0.472656 22.890625 0.519531 22.882812 0.5625 22.867188 L 8.09375 20.355469 L 10.9375 21.574219 C 10.992188 21.597656 11.046875 21.609375 11.105469 21.609375 C 11.269531 21.609375 11.425781 21.511719 11.496094 21.347656 C 11.589844 21.132812 11.488281 20.882812 11.273438 20.789062 Z M 0.855469 4.40625 L 7.6875 2.128906 L 7.6875 19.59375 L 0.855469 21.871094 Z M 0.855469 4.40625"/>
</svg>
