<svg xmlns="http://www.w3.org/2000/svg" width="32" height="32" viewBox="0 0 24 24">
    <path d="M 14.238281 14.035156 L 14.238281 23.796875 L 24 23.796875 L 24 14.035156 Z M 23.1875 22.984375 L 19.527344 22.984375 L 19.527344 17.863281 L 21.273438 19.609375 L 21.847656 19.035156 L 19.117188 16.304688 L 16.390625 19.035156 L 16.964844 19.609375 L 18.710938 17.863281 L 18.710938 22.984375 L 15.050781 22.984375 L 15.050781 14.847656 L 23.1875 14.847656 Z M 23.1875 22.984375"/>
    <path d="M 11.390625 19.320312 L 0.8125 19.320312 L 0.8125 1.015625 L 22.78125 1.015625 L 22.78125 12.8125 C 22.78125 13.039062 22.960938 13.21875 23.1875 13.21875 C 23.410156 13.21875 23.59375 13.039062 23.59375 12.8125 L 23.59375 0.609375 C 23.59375 0.386719 23.410156 0.203125 23.1875 0.203125 L 0.40625 0.203125 C 0.183594 0.203125 0 0.386719 0 0.609375 L 0 19.730469 C 0 19.953125 0.183594 20.136719 0.40625 20.136719 L 11.390625 20.136719 C 11.613281 20.136719 11.796875 19.953125 11.796875 19.730469 C 11.796875 19.503906 11.613281 19.320312 11.390625 19.320312 Z M 11.390625 19.320312"/>
    <path d="M 12.617188 12.703125 C 12.617188 11.863281 13.40625 11.183594 14.378906 11.183594 C 14.835938 11.183594 15.269531 11.335938 15.601562 11.617188 C 15.773438 11.761719 16.03125 11.742188 16.175781 11.570312 C 16.253906 11.476562 16.277344 11.363281 16.265625 11.25 C 16.265625 11.238281 16.269531 11.226562 16.269531 11.214844 L 16.269531 4.300781 C 16.269531 4.183594 16.222656 4.070312 16.132812 3.992188 C 16.042969 3.917969 15.925781 3.878906 15.8125 3.898438 L 8.488281 4.859375 C 8.285156 4.886719 8.136719 5.058594 8.136719 5.261719 L 8.136719 13.167969 C 7.660156 12.753906 7.015625 12.496094 6.304688 12.496094 C 4.847656 12.496094 3.660156 13.574219 3.660156 14.894531 C 3.660156 16.214844 4.847656 17.289062 6.304688 17.289062 C 7.761719 17.289062 8.949219 16.214844 8.949219 14.894531 L 8.949219 7.652344 L 15.457031 6.796875 L 15.457031 10.597656 C 15.121094 10.453125 14.753906 10.371094 14.378906 10.371094 C 12.957031 10.371094 11.804688 11.414062 11.804688 12.703125 C 11.804688 13.332031 12.078125 13.925781 12.574219 14.367188 C 12.652344 14.433594 12.746094 14.46875 12.84375 14.46875 C 12.957031 14.46875 13.066406 14.421875 13.148438 14.332031 C 13.296875 14.164062 13.28125 13.910156 13.113281 13.757812 C 12.792969 13.472656 12.617188 13.097656 12.617188 12.703125 Z M 6.304688 16.472656 C 5.296875 16.472656 4.472656 15.765625 4.472656 14.894531 C 4.472656 14.019531 5.296875 13.3125 6.304688 13.3125 C 7.3125 13.3125 8.136719 14.019531 8.136719 14.894531 C 8.136719 15.765625 7.3125 16.472656 6.304688 16.472656 Z M 8.949219 6.832031 L 8.949219 5.621094 L 15.457031 4.761719 L 15.457031 5.976562 Z M 8.949219 6.832031"/>
</svg>
