<svg xmlns="http://www.w3.org/2000/svg" width="32" height="32" viewBox="0 0 24 24">
    <path d="M23.887 23.102l-2.426-2.54a4.363 4.363 0 0 0 1.144-2.949 4.397 4.397 0 0 0-4.39-4.39 4.394 4.394 0 0 0-4.387 4.39 4.394 4.394 0 0 0 4.387 4.39 4.36 4.36 0 0 0 2.644-.894l2.442 2.555a.408.408 0 0 0 .574.012.407.407 0 0 0 .012-.574zm-9.246-5.489a3.582 3.582 0 0 1 3.574-3.578 3.583 3.583 0 0 1 3.578 3.578 3.583 3.583 0 0 1-3.578 3.578 3.582 3.582 0 0 1-3.574-3.578zm0 0"/>
    <path d="M11.793 19.324H.813v-18.3h21.96v11.792a.406.406 0 1 0 .813 0V.617a.406.406 0 0 0-.406-.406H.406A.406.406 0 0 0 0 .617V19.73c0 .223.184.407.406.407h11.387a.406.406 0 1 0 0-.813zm0 0"/>
    <path d="M12.613 12.707c0-.84.79-1.52 1.762-1.52.453 0 .89.153 1.223.434.172.149.43.125.574-.047a.416.416 0 0 0 .086-.32.114.114 0 0 0 .008-.035V4.305a.405.405 0 0 0-.46-.402l-7.318.964a.405.405 0 0 0-.355.403v7.902a2.787 2.787 0 0 0-1.828-.672c-1.457 0-2.645 1.074-2.645 2.395 0 1.32 1.188 2.394 2.645 2.394s2.64-1.074 2.64-2.394V7.66l6.508-.855v3.797a2.734 2.734 0 0 0-1.078-.227c-1.422 0-2.574 1.047-2.574 2.332 0 .629.273 1.223.77 1.664a.41.41 0 0 0 .574-.035.407.407 0 0 0-.036-.574 1.408 1.408 0 0 1-.496-1.055zm-6.308 3.77c-1.012 0-1.832-.707-1.832-1.582 0-.872.82-1.582 1.832-1.582 1.008 0 1.828.71 1.828 1.582 0 .875-.82 1.582-1.828 1.582zm2.64-9.637V5.625l6.508-.855v1.21zm0 0"/>
</svg>
