<svg xmlns="http://www.w3.org/2000/svg" width="32" height="32" viewBox="0 0 24 24">
    <path d="M19.781 16.82a.4.4 0 0 0-.566 0L17.8 18.234l-1.414-1.414a.4.4 0 0 0-.567.567l1.414 1.414-1.414 1.414a.4.4 0 0 0 .567.566l1.414-1.414 1.414 1.414c.078.078.18.117.281.117a.4.4 0 0 0 .285-.684l-1.414-1.413 1.414-1.414a.4.4 0 0 0 0-.567zm0 0"/>
    <path d="M18.2 13.621V2.801a.401.401 0 0 0-.4-.403h-3.198v-.796a.402.402 0 0 0-.403-.403h-2.398V.4A.401.401 0 0 0 11.398 0H7.801a.401.401 0 0 0-.403.398V1.2H5a.398.398 0 0 0-.398.403v.796H1.398A.401.401 0 0 0 1 2.801v20a.4.4 0 0 0 .398.398h13.645c.8.504 1.742.801 2.758.801C20.668 24 23 21.668 23 18.8a5.202 5.202 0 0 0-4.8-5.179zM8.2.801H11v1.597H8.2zM5.397 2h2v.8c0 .22.18.4.403.4h3.597c.223 0 .403-.18.403-.4V2h2v1.602H5.398zM1.801 22.398V3.2h2.8V4c0 .223.176.398.399.398h9.2A.398.398 0 0 0 14.601 4v-.8h2.796v10.413l-.066.012a2.186 2.186 0 0 0-.23.027 4.868 4.868 0 0 0-.504.094 3.717 3.717 0 0 0-.48.14 4.707 4.707 0 0 0-.25.09c-.071.028-.141.06-.212.094-.082.035-.16.075-.238.114-.066.035-.137.07-.2.109-.077.043-.152.09-.222.137a2.05 2.05 0 0 0-.191.129c-.07.05-.14.101-.207.156a3.228 3.228 0 0 0-.18.144 7.588 7.588 0 0 0-.191.172c-.055.055-.11.106-.16.16a4.254 4.254 0 0 0-.18.196c-.047.054-.098.113-.145.172-.055.066-.105.14-.156.21-.047.063-.09.122-.133.184a4.473 4.473 0 0 0-.137.23c-.039.063-.078.126-.113.192-.043.082-.078.164-.117.246a4.472 4.472 0 0 0-.09.2c-.039.09-.07.179-.101.269-.024.066-.047.133-.067.2-.031.097-.055.194-.078.292l-.047.195c-.023.11-.035.223-.05.332-.008.059-.02.114-.024.172-.02.172-.027.344-.027.52 0 .172.007.347.023.515.008.067.02.13.031.192.012.105.024.21.047.316.012.07.035.137.05.207.024.094.044.192.075.285.02.063.043.125.067.188.03.098.066.195.105.289.02.055.047.105.07.156.047.102.094.203.145.301.023.043.05.086.074.125.059.105.121.207.188.309.023.035.05.07.074.105.07.102.144.2.222.293.028.035.059.07.09.105.063.07.121.145.188.211zm16 .801a4.383 4.383 0 0 1-2.832-1.035c-.043-.039-.086-.078-.125-.117a6.096 6.096 0 0 1-.23-.219c-.048-.05-.09-.101-.137-.152a5.272 5.272 0 0 1-.184-.23 4.467 4.467 0 0 1-.363-.55l-.047-.1a4.052 4.052 0 0 1-.16-.35l-.059-.157c-.039-.105-.07-.21-.101-.32-.016-.055-.032-.11-.043-.168a4.859 4.859 0 0 1-.067-.344l-.023-.152a5.368 5.368 0 0 1-.032-.504 4.41 4.41 0 0 1 4.403-4.403 4.406 4.406 0 0 1 4.398 4.403 4.403 4.403 0 0 1-4.398 4.398zm0 0"/>
    <path d="M3.8 7.2H9c.223 0 .398-.18.398-.4A.398.398 0 0 0 9 6.399H3.8a.401.401 0 0 0 0 .8zm0 0M9 18.398H3.8a.401.401 0 0 0 0 .8L9 19.2c.223 0 .398-.18.398-.398A.398.398 0 0 0 9 18.398zm0 0M3.8 9.602h11.598a.401.401 0 0 0 0-.8L3.801 8.8a.401.401 0 1 0 0 .8zm0 0M3.8 14.398h9.598a.398.398 0 1 0 0-.796H3.801a.398.398 0 1 0 0 .796zm0 0M11.398 16H3.801a.401.401 0 1 0 0 .8h7.597a.401.401 0 0 0 0-.8zm0 0M3.8 12h5.598a.401.401 0 1 0 0-.8H3.801a.401.401 0 0 0 0 .8zm0 0M15.398 11.2h-2.796a.401.401 0 0 0 0 .8h2.796a.401.401 0 1 0 0-.8zm0 0M10.715 11.316a.423.423 0 0 0-.113.286.42.42 0 0 0 .113.28c.078.079.18.118.285.118.105 0 .207-.04.285-.117a.42.42 0 0 0 .113-.281.423.423 0 0 0-.113-.286.425.425 0 0 0-.57 0zm0 0"/>
</svg>
