<svg xmlns="http://www.w3.org/2000/svg" width="32" height="32" viewBox="0 0 24 24">
    <path d="M 23.292969 23.316406 L 20.90625 20.820312 C 21.605469 20.050781 22.03125 19.035156 22.03125 17.917969 C 22.03125 15.539062 20.097656 13.601562 17.714844 13.601562 C 15.332031 13.601562 13.394531 15.539062 13.394531 17.917969 C 13.394531 20.300781 15.332031 22.238281 17.714844 22.238281 C 18.691406 22.238281 19.589844 21.90625 20.3125 21.359375 L 22.714844 23.871094 C 22.792969 23.953125 22.898438 23.992188 23.003906 23.992188 C 23.105469 23.992188 23.203125 23.957031 23.28125 23.882812 C 23.441406 23.730469 23.445312 23.476562 23.292969 23.316406 Z M 14.195312 17.917969 C 14.195312 15.976562 15.773438 14.398438 17.714844 14.398438 C 19.65625 14.398438 21.234375 15.976562 21.234375 17.917969 C 21.234375 19.859375 19.65625 21.4375 17.714844 21.4375 C 15.773438 21.4375 14.195312 19.859375 14.195312 17.917969 Z M 14.195312 17.917969"/>
    <path d="M 4.597656 0.800781 L 18.195312 0.800781 L 18.195312 11.601562 L 18.996094 11.601562 L 18.996094 0 L 0.597656 0 L 0.597656 24 L 14.195312 24 L 14.195312 23.199219 L 4.597656 23.199219 Z M 1.394531 23.199219 L 1.394531 0.800781 L 3.796875 0.800781 L 3.796875 23.199219 Z M 1.394531 23.199219"/>
    <path d="M 16.195312 9.601562 L 16.195312 4 L 6.597656 4 L 6.597656 9.601562 Z M 7.394531 4.800781 L 15.394531 4.800781 L 15.394531 8.800781 L 7.394531 8.800781 Z M 7.394531 4.800781"/>
    <path d="M8.597656 5.601562L14.195312 5.601562 14.195312 6.398438 8.597656 6.398438zM8.597656 7.199219L14.195312 7.199219 14.195312 8 8.597656 8zM8.597656 7.199219"/>
</svg>
