<svg xmlns="http://www.w3.org/2000/svg" width="32" height="32" viewBox="0 0 24 24">
    <path d="M20.8 16.8v-.402a2.802 2.802 0 0 0-2.8-2.796 2.802 2.802 0 0 0-2.8 2.796v.403h-1.598V24h8.796v-7.2zm-4.8-.402c0-1.101.898-2 2-2 1.102 0 2 .899 2 2v.403h-4zm5.602 6.801h-7.204v-5.597h7.204zm0 0"/>
    <path d="M18 18.8c-.883 0-1.602.72-1.602 1.598 0 .747.512 1.368 1.204 1.543v.457a.398.398 0 1 0 .796 0v-.457a1.592 1.592 0 0 0 1.204-1.543c0-.878-.72-1.597-1.602-1.597zm0 2.4a.799.799 0 1 1 0-1.598.799.799 0 1 1 0 1.597zm0 0M4.398 7.2h5.204a.4.4 0 0 0 0-.802H4.398a.401.401 0 0 0 0 .801zm0 0M4.398 18.398a.401.401 0 0 0 0 .801h5.204a.4.4 0 0 0 0-.8zm0 0M16 8.8H4.398a.4.4 0 0 0 0 .802H16c.223 0 .398-.18.398-.403A.398.398 0 0 0 16 8.801zm0 0M14.398 14a.395.395 0 0 0-.398-.398H4.398a.398.398 0 1 0 0 .796H14a.395.395 0 0 0 .398-.398zm0 0M12.398 16.398A.398.398 0 0 0 12 16H4.398a.4.4 0 0 0 0 .8H12c.223 0 .398-.179.398-.402zm0 0M4.398 12H10c.223 0 .398-.18.398-.398a.398.398 0 0 0-.398-.403H4.398a.401.401 0 0 0 0 .801zm0 0M16.398 11.602a.398.398 0 0 0-.398-.403h-2.8a.401.401 0 0 0 0 .801H16c.223 0 .398-.18.398-.398zm0 0M11.883 11.883a.406.406 0 0 0 .117-.281.409.409 0 0 0-.117-.286.416.416 0 0 0-.567 0 .409.409 0 0 0-.117.286c0 .101.043.207.117.28.075.075.18.118.286.118.105 0 .21-.043.28-.117zm0 0"/>
    <path d="M12.398 22.398h-10V3.2H5.2V4c0 .223.18.398.403.398H14.8A.398.398 0 0 0 15.199 4v-.8H18v9.198a.401.401 0 1 0 .8 0V2.801a.402.402 0 0 0-.402-.403H15.2v-.796a.401.401 0 0 0-.398-.403h-2.403V.4A.398.398 0 0 0 12 0H8.398A.4.4 0 0 0 8 .398V1.2H5.602a.402.402 0 0 0-.403.403v.796H2a.398.398 0 0 0-.398.403v20c0 .219.175.398.398.398h10.398a.401.401 0 1 0 0-.8zM8.801.801h2.8v1.597h-2.8zM6 2h2v.8a.4.4 0 0 0 .398.4H12c.223 0 .398-.18.398-.4V2h2v1.602H6zm0 0"/>
</svg>
