<svg xmlns="http://www.w3.org/2000/svg" width="32" height="32" viewBox="0 0 24 24">
    <path d="M12.601562 14.398438L12.601562 24 22.199219 24 22.199219 14.398438zM21.398438 23.199219L17.800781 23.199219 17.800781 18.164062 19.515625 19.882812 20.082031 19.316406 17.398438 16.632812 14.71875 19.316406 15.28125 19.882812 17 18.164062 17 23.199219 13.398438 23.199219 13.398438 15.199219 21.398438 15.199219zM4.53125 7.199219L9.734375 7.199219C9.953125 7.199219 10.132812 7.019531 10.132812 6.800781 10.132812 6.578125 9.953125 6.398438 9.734375 6.398438L4.53125 6.398438C4.3125 6.398438 4.132812 6.578125 4.132812 6.800781 4.132812 7.019531 4.3125 7.199219 4.53125 7.199219zM4.53125 18.398438C4.3125 18.398438 4.132812 18.578125 4.132812 18.800781 4.132812 19.019531 4.3125 19.199219 4.53125 19.199219L8.933594 19.199219C9.152344 19.199219 9.332031 19.019531 9.332031 18.800781 9.332031 18.578125 9.152344 18.398438 8.933594 18.398438zM16.132812 8.800781L4.53125 8.800781C4.3125 8.800781 4.132812 8.980469 4.132812 9.199219 4.132812 9.421875 4.3125 9.601562 4.53125 9.601562L16.132812 9.601562C16.355469 9.601562 16.53125 9.421875 16.53125 9.199219 16.53125 8.980469 16.355469 8.800781 16.132812 8.800781zM11.332031 13.601562L4.53125 13.601562C4.3125 13.601562 4.132812 13.777344 4.132812 14 4.132812 14.222656 4.3125 14.398438 4.53125 14.398438L11.332031 14.398438C11.554688 14.398438 11.734375 14.222656 11.734375 14 11.734375 13.777344 11.554688 13.601562 11.332031 13.601562zM10.53125 16.398438C10.53125 16.179688 10.355469 16 10.132812 16L4.53125 16C4.3125 16 4.132812 16.179688 4.132812 16.398438 4.132812 16.621094 4.3125 16.800781 4.53125 16.800781L10.132812 16.800781C10.355469 16.800781 10.53125 16.621094 10.53125 16.398438zM4.53125 11.199219C4.3125 11.199219 4.132812 11.378906 4.132812 11.601562 4.132812 11.820312 4.3125 12 4.53125 12L10.132812 12C10.355469 12 10.53125 11.820312 10.53125 11.601562 10.53125 11.378906 10.355469 11.199219 10.132812 11.199219zM16.132812 11.199219L13.332031 11.199219C13.113281 11.199219 12.933594 11.378906 12.933594 11.601562 12.933594 11.820312 13.113281 12 13.332031 12L16.132812 12C16.355469 12 16.53125 11.820312 16.53125 11.601562 16.53125 11.378906 16.355469 11.199219 16.132812 11.199219zM11.453125 11.316406C11.375 11.390625 11.332031 11.496094 11.332031 11.601562 11.332031 11.703125 11.375 11.808594 11.453125 11.882812 11.523438 11.957031 11.628906 12 11.730469 12 11.839844 12 11.945312 11.957031 12.015625 11.882812 12.09375 11.808594 12.132812 11.703125 12.132812 11.601562 12.132812 11.496094 12.09375 11.390625 12.015625 11.316406 11.867188 11.167969 11.597656 11.167969 11.453125 11.316406zM11.453125 11.316406"/>
    <path d="M 11 22.398438 L 2.601562 22.398438 L 2.601562 3.199219 L 5.398438 3.199219 L 5.398438 4 C 5.398438 4.222656 5.578125 4.398438 5.800781 4.398438 L 15 4.398438 C 15.222656 4.398438 15.398438 4.222656 15.398438 4 L 15.398438 3.199219 L 18.199219 3.199219 L 18.199219 12.398438 C 18.199219 12.621094 18.378906 12.800781 18.601562 12.800781 C 18.820312 12.800781 19 12.621094 19 12.398438 L 19 2.800781 C 19 2.578125 18.820312 2.398438 18.601562 2.398438 L 15.398438 2.398438 L 15.398438 1.601562 C 15.398438 1.378906 15.222656 1.199219 15 1.199219 L 12.601562 1.199219 L 12.601562 0.398438 C 12.601562 0.179688 12.421875 0 12.199219 0 L 8.601562 0 C 8.378906 0 8.199219 0.179688 8.199219 0.398438 L 8.199219 1.199219 L 5.800781 1.199219 C 5.578125 1.199219 5.398438 1.378906 5.398438 1.601562 L 5.398438 2.398438 L 2.199219 2.398438 C 1.980469 2.398438 1.800781 2.578125 1.800781 2.800781 L 1.800781 22.800781 C 1.800781 23.019531 1.980469 23.199219 2.199219 23.199219 L 11 23.199219 C 11.222656 23.199219 11.398438 23.019531 11.398438 22.800781 C 11.398438 22.578125 11.222656 22.398438 11 22.398438 Z M 9 0.800781 L 11.800781 0.800781 L 11.800781 2.398438 L 9 2.398438 Z M 6.199219 2 L 8.199219 2 L 8.199219 2.800781 C 8.199219 3.019531 8.378906 3.199219 8.601562 3.199219 L 12.199219 3.199219 C 12.421875 3.199219 12.601562 3.019531 12.601562 2.800781 L 12.601562 2 L 14.601562 2 L 14.601562 3.601562 L 6.199219 3.601562 Z M 6.199219 2"/>
</svg>
