<svg xmlns="http://www.w3.org/2000/svg" width="32" height="32" viewBox="0 0 24 24">
    <path d="M 18.199219 13.199219 C 16.695312 13.199219 15.273438 13.832031 14.300781 14.933594 C 14.152344 15.101562 14.167969 15.355469 14.335938 15.5 C 14.5 15.644531 14.753906 15.628906 14.898438 15.464844 C 15.722656 14.535156 16.925781 14 18.199219 14 C 20.625 14 22.601562 15.972656 22.601562 18.398438 C 22.601562 20.824219 20.625 22.800781 18.199219 22.800781 C 16.203125 22.800781 14.4375 21.453125 13.902344 19.601562 L 15.800781 19.601562 L 15.800781 18.800781 L 12.601562 18.800781 L 12.601562 22 L 13.398438 22 L 13.398438 20.535156 C 14.238281 22.347656 16.113281 23.601562 18.199219 23.601562 C 21.066406 23.601562 23.398438 21.265625 23.398438 18.398438 C 23.398438 15.53125 21.066406 13.199219 18.199219 13.199219 Z M 18.199219 13.199219"/>
    <path d="M 4.601562 0.800781 L 18.199219 0.800781 L 18.199219 11.199219 L 19 11.199219 L 19 0 L 0.601562 0 L 0.601562 24 L 11 24 L 11 23.199219 L 4.601562 23.199219 Z M 1.398438 23.199219 L 1.398438 0.800781 L 3.800781 0.800781 L 3.800781 23.199219 Z M 1.398438 23.199219"/>
    <path d="M 16.199219 9.601562 L 16.199219 4 L 6.601562 4 L 6.601562 9.601562 Z M 7.398438 4.800781 L 15.398438 4.800781 L 15.398438 8.800781 L 7.398438 8.800781 Z M 7.398438 4.800781"/>
    <path d="M8.601562 5.601562L14.199219 5.601562 14.199219 6.398438 8.601562 6.398438zM8.601562 7.199219L14.199219 7.199219 14.199219 8 8.601562 8zM8.601562 7.199219"/>
</svg>
