<svg xmlns="http://www.w3.org/2000/svg" width="32" height="32" viewBox="0 0 24 24">
    <path d="M21.965 23.188h-.406v-.961c0-1.438-.75-2.747-1.961-3.516 1.21-.77 1.96-2.074 1.96-3.512v-.96h.407a.406.406 0 0 0 .406-.407c0-.227-.18-.41-.406-.41h-7.32a.407.407 0 0 0-.407.41c0 .223.18.406.407.406h.406v.961c0 1.438.75 2.742 1.965 3.512-1.215.77-1.965 2.078-1.965 3.516v.96h-.406a.406.406 0 1 0 0 .813h7.32a.406.406 0 1 0 0-.813zm-6.102-7.989v-.96h4.883v.96c0 1.348-.828 2.559-2.113 3.106h-.653c-1.289-.547-2.117-1.758-2.117-3.106zm0 7.028c0-1.352.828-2.563 2.114-3.11h.656c1.285.547 2.113 1.758 2.113 3.11v.96h-4.883zm0 0M4.406 7.32h5.29a.406.406 0 1 0 0-.812h-5.29a.406.406 0 1 0 0 .813zm0 0M10.578 19.527a.408.408 0 0 0 0-.816H4.406a.408.408 0 0 0 0 .816zm0 0M16.203 8.95H4.406a.406.406 0 1 0 0 .813l11.797-.001c.227 0 .406-.18.406-.407a.406.406 0 0 0-.406-.406zm0 0M13.016 13.832h-8.61a.406.406 0 1 0 0 .813h8.61a.406.406 0 1 0 0-.813zm0 0M11.797 16.27h-7.39a.408.408 0 0 0 0 .816h7.39a.406.406 0 0 0 .406-.406c0-.227-.18-.41-.406-.41zm0 0M4.406 11.39a.406.406 0 1 0 0 .813h5.696c.226 0 .406-.18.406-.406a.403.403 0 0 0-.406-.406zm0 0M16.203 11.39h-2.848a.403.403 0 0 0-.406.407c0 .226.18.406.406.406h2.848c.227 0 .406-.18.406-.406a.403.403 0 0 0-.406-.406zm0 0M11.441 11.508a.43.43 0 0 0-.12.289c0 .105.042.21.12.289a.409.409 0 0 0 .575-.004.392.392 0 0 0 .117-.285c0-.106-.04-.211-.117-.29a.418.418 0 0 0-.575 0zm0 0"/>
    <path d="M11.797 22.781H2.44V3.254H5.29v.812c0 .227.18.407.406.407h9.356c.226 0 .406-.18.406-.407v-.812h2.848v7.73a.406.406 0 1 0 .813 0V2.848a.403.403 0 0 0-.407-.407h-3.254V1.63c0-.227-.18-.41-.406-.41h-2.442V.406A.406.406 0 0 0 12.203 0h-3.66a.406.406 0 0 0-.406.406v.813H5.695a.407.407 0 0 0-.406.41v.812H2.035a.403.403 0 0 0-.406.407v20.34c0 .222.18.406.406.406h9.762a.406.406 0 1 0 0-.813zM8.949.813h2.848V2.44H8.949zM6.102 2.034h2.035v.813c0 .226.18.406.406.406h3.66c.227 0 .406-.18.406-.406v-.813h2.036V3.66H6.102zm0 0"/>
</svg>
