<svg xmlns="http://www.w3.org/2000/svg" width="32" height="32" viewBox="0 0 24 24">
    <path d="M 22.601562 23.199219 L 22.199219 23.199219 L 22.199219 22.257812 C 22.199219 20.84375 21.460938 19.558594 20.269531 18.800781 C 21.460938 18.042969 22.199219 16.757812 22.199219 15.34375 L 22.199219 14.398438 L 22.601562 14.398438 C 22.820312 14.398438 23 14.222656 23 14 C 23 13.777344 22.820312 13.601562 22.601562 13.601562 L 15.398438 13.601562 C 15.179688 13.601562 15 13.777344 15 14 C 15 14.222656 15.179688 14.398438 15.398438 14.398438 L 15.800781 14.398438 L 15.800781 15.34375 C 15.800781 16.757812 16.539062 18.042969 17.730469 18.800781 C 16.539062 19.558594 15.800781 20.84375 15.800781 22.257812 L 15.800781 23.199219 L 15 23.199219 C 14.777344 23.199219 14.601562 23.378906 14.601562 23.601562 C 14.601562 23.820312 14.777344 24 15 24 L 22.601562 24 C 22.820312 24 23 23.820312 23 23.601562 C 23 23.378906 22.820312 23.199219 22.601562 23.199219 Z M 16.601562 15.34375 L 16.601562 14.398438 L 21.398438 14.398438 L 21.398438 15.34375 C 21.398438 16.671875 20.585938 17.863281 19.320312 18.398438 L 18.679688 18.398438 C 17.414062 17.863281 16.601562 16.671875 16.601562 15.34375 Z M 16.601562 23.199219 L 16.601562 22.257812 C 16.601562 20.929688 17.414062 19.738281 18.679688 19.199219 L 19.320312 19.199219 C 20.585938 19.738281 21.398438 20.929688 21.398438 22.257812 L 21.398438 23.199219 Z M 16.601562 23.199219"/>
    <path d="M 5 0.800781 L 18.601562 0.800781 L 18.601562 11.601562 L 19.398438 11.601562 L 19.398438 0 L 1 0 L 1 24 L 12.601562 24 L 12.601562 23.199219 L 5 23.199219 Z M 1.800781 23.199219 L 1.800781 0.800781 L 4.199219 0.800781 L 4.199219 23.199219 Z M 1.800781 23.199219"/>
    <path d="M 16.601562 9.601562 L 16.601562 4 L 7 4 L 7 9.601562 Z M 7.800781 4.800781 L 15.800781 4.800781 L 15.800781 8.800781 L 7.800781 8.800781 Z M 7.800781 4.800781"/>
    <path d="M9 5.601562L14.601562 5.601562 14.601562 6.398438 9 6.398438zM9 7.199219L14.601562 7.199219 14.601562 8 9 8zM9 7.199219"/>
</svg>
