<svg xmlns="http://www.w3.org/2000/svg" width="32" height="32" viewBox="0 0 24 24">
    <path d="M7.844 15.473c0-1.68-1.367-3.051-3.051-3.051a3.057 3.057 0 0 0-3.05 3.05v.438H0v7.844h9.586V15.91H7.844zm-5.23 0c0-1.2.98-2.18 2.179-2.18 1.203 0 2.18.98 2.18 2.18v.437h-4.36zm6.1 1.308v6.102H.872V16.78zm0 0"/>
    <path d="M4.36 21.512v.5a.435.435 0 0 0 .87 0v-.5a1.738 1.738 0 0 0-.437-3.422c-.961 0-1.742.781-1.742 1.742 0 .809.558 1.484 1.308 1.68zm.433-2.551a.872.872 0 1 1-.002 1.744.872.872 0 0 1 .002-1.744zm0 0M23.746 18.074c-.875-1.652-3.914-3.449-4.047-3.527-.554-.317-1.133-.418-1.62-.281a1.457 1.457 0 0 0-.872.675c-.441.532-.996 1.153-1.129 1.25-1.031.696-1.851.614-2.742-.277L8.332 10.91c-.895-.89-.973-1.71-.277-2.742.097-.133.718-.688 1.25-1.129.34-.203.574-.504.675-.871.133-.488.036-1.066-.285-1.625C9.621 4.414 7.825 1.375 6.172.5a2.139 2.139 0 0 0-2.527.379L2.539 1.984c-2.629 2.63-2.715 5.84-.25 9.29a.438.438 0 0 0 .71-.508C.755 7.62.806 4.953 3.157 2.602l1.106-1.106a1.274 1.274 0 0 1 1.504-.226c1.433.757 3.16 3.683 3.175 3.707.196.343.27.703.2.957a.596.596 0 0 1-.297.367l-.067.043c-.37.312-1.257 1.062-1.441 1.336-.27.39-.445.78-.54 1.16a6.2 6.2 0 0 1-.64-2.13.441.441 0 0 0-.48-.386.434.434 0 0 0-.387.477c.313 3.031 2.672 5.004 2.77 5.086.011.011.027.011.039.02l4.62 4.624.063.059c.012.02.024.047.043.066.082.082 2.051 1.989 5.055 2.301.016 0 .031.004.047.004.219 0 .41-.168.433-.39a.438.438 0 0 0-.39-.481 7.647 7.647 0 0 1-2.418-.68 3.67 3.67 0 0 0 1.02-.5c.273-.183 1.023-1.07 1.331-1.441l.047-.063a.574.574 0 0 1 .363-.3c.258-.07.614.003.954.195.027.02 2.953 1.746 3.71 3.18.266.5.176 1.105-.226 1.503l-1.105 1.106c-2.348 2.348-5.137 2.37-8.286.066a.437.437 0 0 0-.515.703c1.715 1.258 3.37 1.883 4.93 1.883 1.617 0 3.132-.68 4.488-2.035l1.105-1.11a2.132 2.132 0 0 0 .38-2.523zm0 0"/>
</svg>
