<svg xmlns="http://www.w3.org/2000/svg" width="32" height="32" viewBox="0 0 24 24">
    <path d="M0 23.367h9.93v-9.933H0zm.828-9.105h8.274v8.277H5.379v-5.207l1.777 1.773.582-.582-2.773-2.777-2.774 2.777.582.582 1.778-1.773v5.207H.828zm0 0"/>
    <path d="M23.762 17.559c-.832-1.57-3.719-3.274-3.844-3.348-.527-.3-1.074-.395-1.54-.266a1.381 1.381 0 0 0-.827.64c-.422.505-.946 1.095-1.07 1.185-.981.664-1.758.585-2.606-.258l-4.75-4.754c-.848-.848-.926-1.625-.262-2.602.09-.129.68-.652 1.188-1.074.32-.191.543-.477.64-.828.125-.461.032-1.008-.273-1.543-.07-.121-1.773-3.008-3.344-3.836a2.032 2.032 0 0 0-2.398.36l-1.051 1.05c-2.496 2.496-2.574 5.543-.234 8.817a.41.41 0 0 0 .574.097.414.414 0 0 0 .098-.578c-2.133-2.984-2.086-5.52.148-7.754L5.26 1.82a1.203 1.203 0 0 1 1.426-.215c1.364.72 3 3.497 3.016 3.52.188.324.258.664.188.91a.542.542 0 0 1-.282.344l-.062.043c-.352.297-1.192 1.008-1.367 1.266a3.455 3.455 0 0 0-.512 1.105 5.876 5.876 0 0 1-.61-2.02.421.421 0 0 0-.453-.37.421.421 0 0 0-.37.456c.3 2.875 2.538 4.75 2.632 4.829.012.007.024.011.035.019l4.391 4.39.055.051c.015.02.023.047.043.063.078.078 1.945 1.89 4.796 2.187.016 0 .032.004.043.004a.414.414 0 0 0 .043-.828 7.311 7.311 0 0 1-2.296-.644c.32-.094.64-.254.968-.473.258-.176.973-1.016 1.266-1.371l.043-.063a.555.555 0 0 1 .344-.28c.246-.071.586.003.906.187.027.015 2.805 1.656 3.527 3.015.25.477.164 1.047-.215 1.426l-1.05 1.05c-2.23 2.231-4.88 2.255-7.868.067a.412.412 0 0 0-.578.09.41.41 0 0 0 .09.578c1.625 1.192 3.2 1.785 4.676 1.785 1.539 0 2.977-.644 4.266-1.933l1.046-1.051c.641-.637.786-1.602.364-2.398zm0 0"/>
</svg>
