<svg xmlns="http://www.w3.org/2000/svg" width="32" height="32" viewBox="0 0 24 24">
    <path d="M8.57 20.715a4.44 4.44 0 0 0 1.168-3 4.473 4.473 0 0 0-4.468-4.469A4.475 4.475 0 0 0 .8 17.715a4.475 4.475 0 0 0 4.47 4.469c1.011 0 1.94-.34 2.69-.91l2.485 2.597a.4.4 0 0 0 .297.129c.106 0 .207-.04.29-.113a.417.417 0 0 0 .011-.586zm-6.941-3a3.644 3.644 0 0 1 3.64-3.64 3.644 3.644 0 0 1 3.641 3.64 3.644 3.644 0 0 1-3.64 3.64 3.644 3.644 0 0 1-3.641-3.64zm0 0"/>
    <path d="M22.957 16.934c-.832-1.575-3.715-3.278-3.844-3.352-.527-.3-1.074-.395-1.539-.266a1.381 1.381 0 0 0-.828.641c-.422.504-.945 1.094-1.07 1.184-.98.664-1.762.586-2.606-.258l-4.754-4.754C7.47 9.28 7.391 8.5 8.055 7.523c.093-.128.683-.652 1.187-1.074.32-.191.543-.476.64-.824.126-.457.028-1.02-.269-1.547C9.54 3.957 7.836 1.07 6.266.238a2.027 2.027 0 0 0-2.399.364l-1.05 1.05C.32 4.148.237 7.2 2.577 10.472c.133.184.395.231.578.094a.414.414 0 0 0 .098-.578c-2.133-2.98-2.086-5.52.148-7.754l1.051-1.046A1.203 1.203 0 0 1 5.88.973c1.363.718 3.004 3.496 3.016 3.52.187.327.257.667.19.91a.578.578 0 0 1-.284.347l-.063.043c-.351.293-1.191 1.004-1.367 1.266A3.476 3.476 0 0 0 6.86 8.16a5.876 5.876 0 0 1-.609-2.02.412.412 0 0 0-.453-.367.413.413 0 0 0-.371.454c.3 2.878 2.539 4.753 2.633 4.832.011.007.023.011.035.02l4.39 4.39c.02.015.036.031.055.05.016.024.024.047.043.067.078.074 1.95 1.89 4.8 2.184a.418.418 0 0 0 .457-.367.415.415 0 0 0-.37-.454 7.31 7.31 0 0 1-2.297-.648c.316-.094.64-.25.965-.473.261-.176.972-1.015 1.27-1.371l.042-.062a.555.555 0 0 1 .344-.282c.242-.066.582.004.906.188.778.457 2.926 1.886 3.528 3.02a1.21 1.21 0 0 1-.215 1.425l-1.051 1.05c-2.234 2.231-4.879 2.255-7.871.063a.416.416 0 0 0-.578.09.416.416 0 0 0 .09.578c1.628 1.196 3.199 1.79 4.68 1.79 1.538 0 2.976-.649 4.265-1.938l1.05-1.047c.637-.64.782-1.605.36-2.398zm0 0"/>
</svg>
