<svg xmlns="http://www.w3.org/2000/svg" width="32" height="32" viewBox="0 0 24 24">
    <path d="M9.438 13.285c-.473-.469-1.297-.469-1.77 0L1.227 19.73.34 22.984l-.219.22a.417.417 0 0 0 0 .585l-.004.008h.008a.428.428 0 0 0 .293.121.424.424 0 0 0 .297-.125l.219-.215 3.253-.89 6.442-6.442a1.247 1.247 0 0 0 0-1.766zm-7.243 6.66L6.48 15.66l1.778 1.774-4.29 4.289zm-.379.809l1.348 1.348-1.855.503zm8.22-5.098l-1.188 1.188-1.774-1.778 1.188-1.187a.42.42 0 0 1 .582 0l1.191 1.191a.41.41 0 0 1 0 .586zm0 0"/>
    <path d="M23.758 17.207c-.84-1.59-3.758-3.312-3.887-3.387-.535-.304-1.09-.402-1.558-.27-.352.098-.641.321-.836.645-.426.512-.957 1.11-1.082 1.2-.993.671-1.782.593-2.637-.262l-4.809-4.809c-.855-.855-.933-1.644-.261-2.633.093-.128.687-.656 1.199-1.086.324-.195.55-.48.648-.835.13-.47.035-1.024-.273-1.56-.075-.124-1.797-3.042-3.383-3.886a2.056 2.056 0 0 0-2.426.367L3.391 1.754C.863 4.277.78 7.364 3.148 10.672a.42.42 0 0 0 .684-.485c-2.16-3.019-2.11-5.582.148-7.843L5.043 1.28a1.22 1.22 0 0 1 1.441-.215c1.38.727 3.04 3.54 3.051 3.563.192.328.262.672.192.918a.55.55 0 0 1-.286.351l-.062.043c-.356.297-1.207 1.016-1.383 1.282-.258.379-.43.75-.516 1.113a5.927 5.927 0 0 1-.617-2.043.426.426 0 0 0-.46-.371.411.411 0 0 0-.372.457c.301 2.91 2.563 4.805 2.66 4.887.012.007.024.011.036.02l4.441 4.44a.698.698 0 0 0 .055.051c.015.024.027.047.043.067.082.078 1.968 1.91 4.855 2.21h.043a.42.42 0 0 0 .418-.374.42.42 0 0 0-.375-.457 7.43 7.43 0 0 1-2.32-.653c.32-.097.644-.258.976-.48.262-.18.985-1.027 1.282-1.387l.043-.062a.578.578 0 0 1 .347-.286c.25-.07.59.004.918.188.027.02 2.836 1.676 3.567 3.055a1.22 1.22 0 0 1-.22 1.441l-1.062 1.063c-2.258 2.257-4.933 2.277-7.957.066a.418.418 0 1 0-.496.676c1.649 1.203 3.238 1.804 4.735 1.804 1.554 0 3.007-.652 4.312-1.953l1.063-1.062c.644-.645.789-1.621.363-2.426zm0 0"/>
</svg>
