<svg xmlns="http://www.w3.org/2000/svg" width="32" height="32" viewBox="0 0 24 24">
    <path d="M 7.671875 16.097656 C 7.503906 15.929688 7.234375 15.929688 7.066406 16.097656 L 5.550781 17.617188 L 4.03125 16.097656 C 3.863281 15.929688 3.59375 15.929688 3.425781 16.097656 C 3.257812 16.265625 3.257812 16.539062 3.425781 16.707031 L 4.941406 18.222656 L 3.425781 19.738281 C 3.257812 19.90625 3.257812 20.175781 3.425781 20.34375 C 3.511719 20.429688 3.621094 20.472656 3.730469 20.472656 C 3.839844 20.472656 3.949219 20.429688 4.03125 20.34375 L 5.550781 18.828125 L 7.066406 20.34375 C 7.152344 20.429688 7.261719 20.472656 7.371094 20.472656 C 7.480469 20.472656 7.589844 20.429688 7.671875 20.34375 C 7.839844 20.175781 7.839844 19.90625 7.671875 19.738281 L 6.15625 18.222656 L 7.671875 16.707031 C 7.839844 16.539062 7.839844 16.265625 7.671875 16.097656 Z M 7.671875 16.097656"/>
    <path d="M 23.75 17.75 C 22.890625 16.125 19.898438 14.355469 19.765625 14.28125 C 19.21875 13.96875 18.652344 13.871094 18.171875 14.003906 C 17.808594 14.101562 17.511719 14.332031 17.316406 14.667969 C 16.875 15.191406 16.335938 15.800781 16.203125 15.894531 C 15.1875 16.582031 14.378906 16.503906 13.503906 15.625 L 8.574219 10.699219 C 7.695312 9.820312 7.617188 9.011719 8.304688 8 C 8.398438 7.867188 9.011719 7.324219 9.535156 6.886719 C 9.867188 6.6875 10.097656 6.390625 10.199219 6.03125 C 10.328125 5.554688 10.226562 4.972656 9.917969 4.429688 C 9.84375 4.300781 8.078125 1.308594 6.449219 0.449219 C 5.625 0.0117188 4.625 0.160156 3.960938 0.824219 L 2.875 1.910156 C 1.152344 3.632812 0.527344 5.585938 1.019531 7.710938 C 1.398438 9.339844 2.445312 11.066406 4.121094 12.84375 C 1.75 13.488281 0 15.652344 0 18.222656 C 0 21.296875 2.503906 23.800781 5.578125 23.800781 C 8.144531 23.800781 10.304688 22.054688 10.953125 19.691406 C 12.875 21.601562 14.738281 22.773438 16.488281 23.179688 C 16.957031 23.289062 17.417969 23.34375 17.871094 23.34375 C 19.464844 23.34375 20.949219 22.667969 22.289062 21.328125 L 23.378906 20.238281 C 24.039062 19.578125 24.1875 18.578125 23.75 17.75 Z M 5.578125 22.941406 C 2.976562 22.941406 0.859375 20.824219 0.859375 18.222656 C 0.859375 15.808594 2.675781 13.820312 5.015625 13.539062 L 5.023438 13.539062 C 5.085938 13.53125 5.144531 13.527344 5.207031 13.523438 C 5.328125 13.511719 5.453125 13.503906 5.578125 13.503906 C 8.179688 13.503906 10.296875 15.621094 10.296875 18.222656 C 10.296875 18.347656 10.289062 18.472656 10.277344 18.597656 C 10.273438 18.65625 10.269531 18.714844 10.261719 18.773438 C 9.984375 21.117188 7.992188 22.941406 5.578125 22.941406 Z M 22.769531 19.632812 L 21.683594 20.71875 C 20.164062 22.238281 18.527344 22.769531 16.683594 22.34375 C 15.066406 21.972656 13.320312 20.851562 11.488281 19.019531 L 11.132812 18.667969 C 11.148438 18.511719 11.15625 18.363281 11.15625 18.222656 C 11.15625 15.148438 8.652344 12.644531 5.578125 12.644531 C 5.578125 12.644531 5.574219 12.644531 5.574219 12.644531 C 5.433594 12.644531 5.289062 12.652344 5.132812 12.664062 C 3.328125 10.847656 2.226562 9.117188 1.855469 7.519531 C 1.429688 5.671875 1.960938 4.039062 3.480469 2.519531 L 4.570312 1.429688 C 4.960938 1.039062 5.558594 0.949219 6.046875 1.207031 C 7.460938 1.953125 9.160156 4.832031 9.175781 4.859375 C 9.367188 5.195312 9.441406 5.546875 9.371094 5.800781 C 9.328125 5.957031 9.230469 6.074219 9.078125 6.160156 L 9.011719 6.203125 C 8.648438 6.507812 7.777344 7.246094 7.59375 7.515625 C 7.332031 7.90625 7.15625 8.285156 7.066406 8.660156 C 6.761719 8.054688 6.515625 7.347656 6.433594 6.566406 C 6.410156 6.332031 6.199219 6.164062 5.960938 6.183594 C 5.726562 6.210938 5.554688 6.417969 5.578125 6.65625 C 5.890625 9.640625 8.207031 11.582031 8.308594 11.660156 C 8.316406 11.671875 8.332031 11.675781 8.34375 11.683594 L 12.894531 16.234375 C 12.914062 16.253906 12.933594 16.269531 12.953125 16.289062 C 12.96875 16.308594 12.976562 16.335938 12.996094 16.355469 C 13.078125 16.433594 15.015625 18.316406 17.972656 18.621094 C 17.988281 18.625 18.003906 18.625 18.019531 18.625 C 18.234375 18.625 18.421875 18.460938 18.445312 18.238281 C 18.46875 18.003906 18.296875 17.792969 18.0625 17.769531 C 17.15625 17.675781 16.351562 17.40625 15.683594 17.097656 C 16.011719 17 16.34375 16.835938 16.683594 16.609375 C 16.953125 16.425781 17.691406 15.554688 17.996094 15.1875 L 18.042969 15.125 C 18.128906 14.96875 18.246094 14.875 18.398438 14.832031 C 18.652344 14.761719 19.003906 14.832031 19.335938 15.023438 C 19.367188 15.039062 22.246094 16.742188 22.992188 18.152344 C 23.253906 18.644531 23.164062 19.238281 22.769531 19.632812 Z M 22.769531 19.632812"/>
</svg>
