<svg xmlns="http://www.w3.org/2000/svg" width="32" height="32" viewBox="0 0 24 24">
    <path d="M 10.792969 17.515625 L 10.175781 17.394531 C 9.886719 17.339844 9.65625 17.148438 9.550781 16.875 C 9.441406 16.597656 9.480469 16.304688 9.652344 16.066406 L 10.042969 15.535156 C 10.167969 15.367188 10.148438 15.128906 10 14.980469 L 9.160156 14.140625 C 9.015625 13.996094 8.785156 13.972656 8.617188 14.089844 L 8.09375 14.441406 C 7.851562 14.609375 7.554688 14.636719 7.285156 14.515625 C 7.011719 14.398438 6.832031 14.164062 6.785156 13.871094 L 6.6875 13.222656 C 6.652344 13.011719 6.472656 12.859375 6.261719 12.859375 L 5.074219 12.859375 C 4.871094 12.859375 4.695312 13.003906 4.65625 13.207031 L 4.5 14.003906 C 4.445312 14.289062 4.261719 14.515625 3.996094 14.625 C 3.726562 14.738281 3.4375 14.707031 3.199219 14.546875 L 2.523438 14.089844 C 2.355469 13.972656 2.128906 13.996094 1.980469 14.140625 L 1.140625 14.980469 C 0.992188 15.128906 0.972656 15.367188 1.097656 15.535156 L 1.488281 16.066406 C 1.664062 16.304688 1.703125 16.597656 1.59375 16.875 C 1.484375 17.148438 1.257812 17.339844 0.964844 17.394531 L 0.347656 17.515625 C 0.144531 17.550781 0 17.730469 0 17.933594 L 0 19.121094 C 0 19.332031 0.152344 19.511719 0.363281 19.546875 L 1.011719 19.644531 C 1.304688 19.691406 1.539062 19.871094 1.660156 20.140625 C 1.777344 20.414062 1.75 20.707031 1.582031 20.953125 L 1.230469 21.476562 C 1.117188 21.644531 1.136719 21.875 1.28125 22.019531 L 2.121094 22.859375 C 2.269531 23.007812 2.507812 23.027344 2.679688 22.902344 L 3.207031 22.511719 C 3.445312 22.335938 3.742188 22.300781 4.015625 22.40625 C 4.292969 22.515625 4.480469 22.742188 4.535156 23.035156 L 4.65625 23.652344 C 4.695312 23.855469 4.871094 24 5.078125 24 L 6.261719 24 C 6.472656 24 6.65625 23.847656 6.6875 23.636719 L 6.757812 23.179688 C 6.800781 22.886719 6.992188 22.644531 7.269531 22.527344 C 7.542969 22.414062 7.851562 22.453125 8.089844 22.628906 L 8.464844 22.902344 C 8.636719 23.027344 8.871094 23.007812 9.019531 22.859375 L 9.859375 22.019531 C 10.003906 21.875 10.027344 21.644531 9.910156 21.476562 L 9.558594 20.953125 C 9.390625 20.710938 9.363281 20.414062 9.484375 20.140625 C 9.601562 19.871094 9.835938 19.691406 10.128906 19.644531 L 10.777344 19.546875 C 10.988281 19.511719 11.140625 19.332031 11.140625 19.121094 L 11.140625 17.933594 C 11.140625 17.730469 10.996094 17.550781 10.792969 17.515625 Z M 10.285156 18.753906 L 10 18.796875 C 9.417969 18.886719 8.933594 19.261719 8.699219 19.800781 C 8.464844 20.335938 8.519531 20.949219 8.847656 21.433594 L 9.003906 21.664062 L 8.675781 21.992188 L 8.597656 21.9375 C 8.113281 21.582031 7.496094 21.507812 6.941406 21.734375 C 6.386719 21.964844 6 22.457031 5.910156 23.050781 L 5.894531 23.144531 L 5.429688 23.144531 L 5.378906 22.871094 C 5.265625 22.292969 4.875 21.824219 4.328125 21.609375 C 3.78125 21.394531 3.171875 21.472656 2.699219 21.820312 L 2.46875 21.992188 L 2.136719 21.664062 L 2.292969 21.433594 C 2.621094 20.949219 2.679688 20.335938 2.445312 19.800781 C 2.210938 19.261719 1.722656 18.886719 1.144531 18.796875 L 0.855469 18.753906 L 0.855469 18.289062 L 1.128906 18.238281 C 1.707031 18.125 2.175781 17.734375 2.390625 17.1875 C 2.605469 16.640625 2.527344 16.03125 2.179688 15.558594 L 2.007812 15.324219 L 2.335938 14.996094 L 2.71875 15.253906 C 3.195312 15.578125 3.792969 15.636719 4.324219 15.417969 C 4.855469 15.199219 5.234375 14.730469 5.34375 14.167969 L 5.429688 13.714844 L 5.894531 13.714844 L 5.941406 14 C 6.03125 14.582031 6.402344 15.066406 6.941406 15.300781 C 7.480469 15.539062 8.089844 15.480469 8.578125 15.152344 L 8.804688 14.996094 L 9.132812 15.324219 L 8.964844 15.558594 C 8.617188 16.03125 8.535156 16.640625 8.75 17.1875 C 8.964844 17.734375 9.4375 18.125 10.015625 18.238281 L 10.285156 18.289062 Z M 10.285156 18.753906"/>
    <path d="M5.570312 16.285156C4.390625 16.285156 3.429688 17.246094 3.429688 18.429688 3.429688 19.609375 4.390625 20.570312 5.570312 20.570312 6.753906 20.570312 7.714844 19.609375 7.714844 18.429688 7.714844 17.246094 6.753906 16.285156 5.570312 16.285156zM5.570312 19.714844C4.863281 19.714844 4.285156 19.136719 4.285156 18.429688 4.285156 17.71875 4.863281 17.144531 5.570312 17.144531 6.28125 17.144531 6.855469 17.71875 6.855469 18.429688 6.855469 19.136719 6.28125 19.714844 5.570312 19.714844zM23.75 17.53125C22.890625 15.90625 19.902344 14.140625 19.773438 14.0625 19.222656 13.75 18.65625 13.652344 18.175781 13.785156 17.816406 13.886719 17.519531 14.117188 17.324219 14.449219 16.886719 14.972656 16.34375 15.582031 16.210938 15.675781 15.195312 16.363281 14.390625 16.285156 13.515625 15.40625L8.59375 10.484375C7.714844 9.609375 7.636719 8.804688 8.320312 7.789062 8.417969 7.65625 9.027344 7.113281 9.550781 6.675781 9.882812 6.480469 10.113281 6.183594 10.214844 5.824219 10.34375 5.347656 10.242188 4.765625 9.933594 4.222656 9.859375 4.097656 8.097656 1.109375 6.46875.25 5.644531-.1875 4.644531-.0390625 3.984375.621094L2.898438 1.710938C.3125 4.292969.226562 7.453125 2.652344 10.84375 2.789062 11.035156 3.058594 11.078125 3.25 10.941406 3.445312 10.804688 3.488281 10.535156 3.351562 10.34375 1.140625 7.253906 1.191406 4.628906 3.503906 2.316406L4.589844 1.226562C4.984375.835938 5.578125.746094 6.066406 1.003906 7.480469 1.753906 9.175781 4.628906 9.191406 4.652344 9.382812 4.988281 9.457031 5.34375 9.386719 5.59375 9.34375 5.75 9.25 5.863281 9.09375 5.953125L9.03125 5.996094C8.664062 6.300781 7.792969 7.039062 7.613281 7.308594 7.351562 7.695312 7.175781 8.078125 7.085938 8.449219 6.78125 7.84375 6.535156 7.140625 6.453125 6.359375 6.429688 6.125 6.222656 5.953125 5.980469 5.976562 5.746094 6 5.574219 6.210938 5.601562 6.449219 5.910156 9.425781 8.226562 11.367188 8.324219 11.449219 8.335938 11.457031 8.347656 11.460938 8.359375 11.46875L12.90625 16.015625C12.925781 16.035156 12.945312 16.050781 12.964844 16.070312 12.980469 16.089844 12.988281 16.117188 13.011719 16.136719 13.089844 16.214844 15.027344 18.09375 17.980469 18.398438 17.996094 18.402344 18.011719 18.402344 18.023438 18.402344 18.242188 18.402344 18.429688 18.238281 18.449219 18.019531 18.476562 17.78125 18.304688 17.570312 18.070312 17.546875 17.164062 17.453125 16.359375 17.1875 15.691406 16.878906 16.019531 16.78125 16.351562 16.617188 16.691406 16.386719 16.960938 16.207031 17.699219 15.335938 18.003906 14.96875L18.046875 14.90625C18.132812 14.753906 18.25 14.65625 18.40625 14.613281 18.65625 14.542969 19.007812 14.617188 19.34375 14.804688 20.148438 15.277344 22.371094 16.757812 22.992188 17.933594 23.253906 18.421875 23.164062 19.015625 22.769531 19.410156L21.683594 20.496094C19.371094 22.808594 16.632812 22.828125 13.535156 20.5625 13.34375 20.425781 13.074219 20.464844 12.9375 20.65625 12.796875 20.847656 12.839844 21.117188 13.03125 21.253906 14.714844 22.488281 16.34375 23.105469 17.875 23.105469 19.46875 23.105469 20.953125 22.4375 22.289062 21.101562L23.378906 20.015625C24.039062 19.355469 24.1875 18.355469 23.75 17.53125zM23.75 17.53125"/>
</svg>
