<svg xmlns="http://www.w3.org/2000/svg" width="32" height="32" viewBox="0 0 24 24">
    <path d="M17.398 12.68c1.5-3.375.825-7.742-1.664-10.23A8.314 8.314 0 0 0 9.816 0a8.312 8.312 0 0 0-5.914 2.45C.977 5.374.613 10.878 3.113 14.21l6.703 9.685 2.04-2.942A5.671 5.671 0 0 0 16.878 24a5.679 5.679 0 0 0 5.672-5.672 5.68 5.68 0 0 0-5.153-5.648zm-7.582 9.68L3.82 13.702c-2.265-3.027-1.941-7.996.7-10.637A7.447 7.447 0 0 1 9.816.871c2.004 0 3.887.781 5.301 2.195 2.293 2.293 2.863 6.555 1.32 9.61a6.99 6.99 0 0 0-.562.074c-.137.023-.27.055-.402.086-.059.016-.114.027-.168.043-.094.031-.192.062-.285.094-.09.03-.184.062-.274.101l-.168.07a8.19 8.19 0 0 0-.433.215 5.62 5.62 0 0 0-2.82 3.817c-.005.004-.005.008-.005.012a5.132 5.132 0 0 0-.078.5c0 .019-.008.042-.008.066-.02.187-.03.379-.03.574 0 .168.01.332.026.5a7.101 7.101 0 0 0 .063.469c.016.09.031.183.05.273.009.024.016.047.02.075.032.117.055.238.09.351zm7.063.769a4.807 4.807 0 0 1-4.531-3.227 3.737 3.737 0 0 1-.102-.34l-.023-.082c-.024-.101-.047-.203-.067-.304-.008-.059-.02-.121-.027-.18-.012-.078-.024-.152-.031-.23a4.802 4.802 0 0 1 2.484-4.652c.016-.009.035-.02.055-.028.11-.059.218-.11.332-.16.066-.028.136-.055.207-.082.062-.024.129-.047.195-.07a4.96 4.96 0 0 1 .344-.098 4.005 4.005 0 0 1 .523-.102h.004c.156-.02.317-.035.48-.039l.196-.004a4.8 4.8 0 0 1 4.758 4.797c0 2.645-2.153 4.8-4.797 4.8zm0 0"/>
    <path d="M19.496 17.89h-2.183v-2.18a.436.436 0 1 0-.872 0v2.18h-2.183a.436.436 0 0 0 0 .872h2.183v2.183a.436.436 0 0 0 .871 0v-2.183h2.184a.436.436 0 1 0 0-.871zm0 0M12.95 8.29a3.056 3.056 0 0 0-6.11 0 3.057 3.057 0 0 0 3.055 3.054 3.057 3.057 0 0 0 3.054-3.055zm-3.055 2.183c-1.204 0-2.18-.98-2.18-2.184a2.18 2.18 0 1 1 2.18 2.184zm0 0"/>
</svg>
