<svg xmlns="http://www.w3.org/2000/svg" width="32" height="32" viewBox="0 0 24 24">
    <path d="M20.550781 21.191406L17.566406 18.207031 20.410156 16.785156 12.671875 13.933594 15.523438 21.671875 16.945312 18.828125 19.929688 21.808594C20.015625 21.894531 20.128906 21.9375 20.238281 21.9375 20.351562 21.9375 20.464844 21.894531 20.550781 21.808594 20.722656 21.636719 20.722656 21.359375 20.550781 21.191406zM14.152344 15.414062L18.203125 16.90625 16.5 17.761719 15.648438 19.464844zM8.742188 8.335938C8.742188 10.03125 10.121094 11.40625 11.8125 11.40625 13.507812 11.40625 14.886719 10.03125 14.886719 8.335938 14.886719 6.644531 13.507812 5.265625 11.8125 5.265625 10.121094 5.265625 8.742188 6.644531 8.742188 8.335938zM14.007812 8.335938C14.007812 9.546875 13.023438 10.53125 11.8125 10.53125 10.605469 10.53125 9.621094 9.546875 9.621094 8.335938 9.621094 7.128906 10.605469 6.144531 11.8125 6.144531 13.023438 6.144531 14.007812 7.128906 14.007812 8.335938zM14.007812 8.335938"/>
    <path d="M 13.066406 20.792969 L 11.753906 22.511719 L 5.707031 13.777344 C 3.425781 10.734375 3.753906 5.738281 6.40625 3.085938 C 7.832031 1.660156 9.722656 0.878906 11.734375 0.878906 C 13.75 0.878906 15.640625 1.660156 17.066406 3.085938 C 19.425781 5.445312 19.96875 9.875 18.28125 12.960938 C 18.164062 13.171875 18.242188 13.441406 18.453125 13.554688 C 18.664062 13.675781 18.933594 13.59375 19.050781 13.382812 C 20.945312 9.917969 20.347656 5.125 17.6875 2.464844 C 16.097656 0.875 13.984375 0 11.734375 0 C 9.488281 0 7.375 0.875 5.785156 2.464844 C 2.84375 5.40625 2.480469 10.9375 4.996094 14.289062 L 11.71875 24 L 13.761719 21.328125 C 13.910156 21.136719 13.871094 20.859375 13.679688 20.710938 C 13.488281 20.566406 13.210938 20.601562 13.066406 20.792969 Z M 13.066406 20.792969"/>
</svg>
