<svg xmlns="http://www.w3.org/2000/svg" width="32" height="32" viewBox="0 0 24 24">
    <path d="M23.367 12.922l-1.25-1.25c-.496-.492-1.355-.492-1.851 0l-6.754 6.754-.93 3.414-.227.226a.437.437 0 0 0-.003.618l-.004.007h.007c.086.082.2.125.31.125a.432.432 0 0 0 .308-.128l.23-.227 3.41-.934 6.754-6.75a1.313 1.313 0 0 0 0-1.855zm-8.844 5.734l4.497-4.496 1.863 1.863-4.496 4.493zm-.394.844l1.414 1.41-1.945.531zm8.617-5.344L21.5 15.402l-1.86-1.863 1.247-1.246a.439.439 0 0 1 .61 0l1.25 1.25a.436.436 0 0 1 0 .613zm0 0M8.742 5.266a3.077 3.077 0 0 0-3.074 3.07 3.073 3.073 0 0 0 6.145 0 3.076 3.076 0 0 0-3.07-3.07zm0 5.265a2.197 2.197 0 0 1-2.195-2.195c0-1.207.984-2.191 2.195-2.191 1.207 0 2.192.984 2.192 2.19 0 1.212-.985 2.196-2.192 2.196zm0 0"/>
    <path d="M9.992 20.793L8.68 22.512l-6.047-8.735C.352 10.734.68 5.738 3.336 3.086A7.475 7.475 0 0 1 8.664.879c2.012 0 3.906.781 5.328 2.207 1.945 1.941 2.703 5.242 1.887 8.207a.437.437 0 1 0 .844.23c.898-3.257.05-6.898-2.11-9.058A8.36 8.36 0 0 0 8.664 0a8.36 8.36 0 0 0-5.95 2.465c-2.94 2.941-3.308 8.473-.792 11.824L8.645 24l2.043-2.672a.438.438 0 1 0-.696-.535zm0 0"/>
</svg>
