<svg xmlns="http://www.w3.org/2000/svg" width="32" height="32" viewBox="0 0 24 24">
    <path d="M12.512 13.527V24h10.472V13.527zm9.597 9.602h-8.726v-8.73h3.93v5.492l-1.875-1.871-.618.617 2.926 2.925 2.93-2.925-.617-.617-1.875 1.87v-5.492h3.925zm0 0M9.46 5.238A3.056 3.056 0 0 0 6.407 8.29a3.057 3.057 0 0 0 3.055 3.055 3.057 3.057 0 0 0 3.055-3.055A3.056 3.056 0 0 0 9.46 5.24zm0 5.235c-1.202 0-2.179-.98-2.179-2.184a2.18 2.18 0 1 1 2.18 2.184zm0 0"/>
    <path d="M10.707 20.68l-1.305 1.707-6.015-8.684c-2.266-3.027-1.942-7.996.699-10.637A7.447 7.447 0 0 1 9.383.871c2.004 0 3.887.781 5.3 2.195C16.618 5 17.372 8.281 16.56 11.23c-.067.23.07.473.304.536.23.066.473-.07.535-.305.895-3.242.051-6.863-2.097-9.012A8.32 8.32 0 0 0 9.383 0a8.312 8.312 0 0 0-5.914 2.45c-2.926 2.925-3.29 8.429-.79 11.76l6.688 9.657 2.031-2.656a.437.437 0 0 0-.691-.531zm0 0"/>
</svg>
