<svg xmlns="http://www.w3.org/2000/svg" width="32" height="32" viewBox="0 0 24 24">
    <path d="M20.55 21.191l-2.984-2.984 2.844-1.422-7.738-2.851 2.851 7.738 1.422-2.844 2.985 2.98a.438.438 0 0 0 .62-.617zm-6.398-5.777l4.051 1.492-1.703.856-.852 1.703zm0 0M8.742 8.336a3.073 3.073 0 0 0 6.145 0 3.077 3.077 0 0 0-3.075-3.07 3.076 3.076 0 0 0-3.07 3.07zm5.266 0c0 1.21-.985 2.195-2.195 2.195A2.196 2.196 0 0 1 9.62 8.336c0-1.207.984-2.191 2.191-2.191 1.211 0 2.196.984 2.196 2.19zm0 0"/>
    <path d="M13.066 20.793l-1.312 1.719-6.047-8.735c-2.281-3.043-1.953-8.039.7-10.691A7.481 7.481 0 0 1 11.733.879c2.016 0 3.907.781 5.332 2.207 2.36 2.36 2.903 6.789 1.215 9.875a.438.438 0 1 0 .77.422c1.894-3.465 1.297-8.258-1.363-10.918A8.362 8.362 0 0 0 11.733 0a8.36 8.36 0 0 0-5.949 2.465c-2.941 2.941-3.305 8.473-.789 11.824L11.72 24l2.043-2.672a.441.441 0 0 0-.082-.617.44.44 0 0 0-.614.082zm0 0"/>
</svg>
