<svg xmlns="http://www.w3.org/2000/svg" width="32" height="32" viewBox="0 0 24 24">
    <path d="M23.875 17.742L19.09 9.54a.889.889 0 0 0-.781-.445.887.887 0 0 0-.778.445l-4.785 8.203a.887.887 0 0 0-.004.906.893.893 0 0 0 .781.454h9.57a.894.894 0 0 0 .786-.454.896.896 0 0 0-.004-.906zm-.695.504a.095.095 0 0 1-.086.047h-9.567c-.047 0-.074-.023-.086-.047-.011-.023-.023-.058 0-.098l4.786-8.199a.09.09 0 0 1 .082-.05c.027 0 .062.011.086.05l4.785 8.2c.02.038.011.074 0 .097zm0 0"/>
    <path d="M18.344 11.832a.402.402 0 0 0-.403.402v3.23c0 .227.18.407.403.407.222 0 .406-.18.406-.406v-3.23a.405.405 0 0 0-.406-.403zm0 0M18.059 16.8a.396.396 0 0 0-.122.282.409.409 0 0 0 .691.285.38.38 0 0 0 .118-.285c0-.105-.039-.21-.117-.281a.406.406 0 0 0-.57 0zm0 0M15.55 5.836c0 .875.712 1.59 1.59 1.59a1.59 1.59 0 0 0 0-3.18c-.878 0-1.59.711-1.59 1.59zm2.372 0a.784.784 0 1 1-1.567-.005.784.784 0 0 1 1.567.005zm0 0"/>
    <path d="M12.977 1.418h4.988l4.015 4.004v5.21h.81V5.09L18.296.61H12.64L2.42 10.796h.005L0 13.219 10.152 23.39l3.118-2.985-9.7-9.61zm-.868 18.98l-1.945 1.864-9.02-9.043L3 11.367zm0 0"/>
</svg>
