<svg xmlns="http://www.w3.org/2000/svg" width="32" height="32" viewBox="0 0 24 24">
    <path d="M23.851562 15.046875C22.414062 12.851562 20.492188 11.609375 18.421875 11.53125 18.3125 11.519531 18.203125 11.507812 18.089844 11.507812 17.890625 11.507812 17.695312 11.53125 17.507812 11.570312 15.625 11.8125 13.890625 13.023438 12.566406 15.046875L12.375 15.339844 12.519531 15.5625C14.007812 17.835938 16.015625 19.089844 18.164062 19.089844 20.316406 19.089844 22.320312 17.835938 23.808594 15.5625L24 15.273438zM20.101562 14.335938C20.101562 15.445312 19.199219 16.347656 18.089844 16.347656 16.980469 16.347656 16.082031 15.445312 16.082031 14.335938 16.082031 13.378906 16.757812 12.574219 17.660156 12.375 17.839844 12.355469 18.023438 12.339844 18.210938 12.339844 18.21875 12.339844 18.226562 12.34375 18.234375 12.34375 19.273438 12.417969 20.101562 13.277344 20.101562 14.335938zM18.164062 18.269531C16.367188 18.269531 14.667969 17.230469 13.355469 15.335938 13.996094 14.402344 14.726562 13.671875 15.519531 13.164062 15.355469 13.523438 15.261719 13.917969 15.261719 14.339844 15.261719 15.898438 16.53125 17.167969 18.089844 17.167969 19.652344 17.167969 20.917969 15.898438 20.917969 14.339844 20.917969 13.839844 20.789062 13.371094 20.5625 12.964844 21.464844 13.460938 22.300781 14.238281 23.019531 15.273438 21.699219 17.207031 19.980469 18.269531 18.164062 18.269531zM15.761719 5.84375C15.761719 6.734375 16.484375 7.457031 17.375 7.457031 18.261719 7.457031 18.984375 6.734375 18.984375 5.84375 18.984375 4.957031 18.261719 4.234375 17.375 4.234375 16.484375 4.234375 15.761719 4.957031 15.761719 5.84375zM18.167969 5.84375C18.167969 6.28125 17.8125 6.636719 17.375 6.636719 16.9375 6.636719 16.582031 6.28125 16.582031 5.84375 16.582031 5.410156 16.9375 5.050781 17.375 5.050781 17.8125 5.050781 18.167969 5.410156 18.167969 5.84375zM18.167969 5.84375"/>
    <path d="M 13.152344 1.269531 L 18.210938 1.269531 L 22.28125 5.332031 L 22.28125 10.613281 L 23.101562 10.613281 L 23.101562 4.992188 L 18.550781 0.453125 L 12.816406 0.453125 L 2.457031 10.777344 L 2.457031 10.78125 L 0 13.234375 L 10.292969 23.546875 L 13.449219 20.523438 L 3.621094 10.78125 Z M 12.277344 20.511719 L 10.304688 22.402344 L 1.160156 13.234375 L 3.039062 11.359375 Z M 12.277344 20.511719"/>
</svg>
