<svg xmlns="http://www.w3.org/2000/svg" width="32" height="32" viewBox="0 0 24 24">
    <path d="M 20.234375 13.226562 L 22.789062 10.679688 L 22.789062 4.96875 L 18.296875 0.488281 L 12.640625 0.488281 L 12.335938 0.792969 L 2.421875 10.671875 L 2.425781 10.675781 L 0 13.09375 L 10.15625 23.273438 L 13.710938 19.730469 C 14.347656 21.914062 16.363281 23.511719 18.75 23.511719 C 21.644531 23.511719 24 21.15625 24 18.261719 C 24 15.882812 22.40625 13.871094 20.234375 13.226562 Z M 17.964844 1.296875 L 21.980469 5.300781 L 21.980469 10.34375 L 19.277344 13.035156 C 19.238281 13.03125 19.199219 13.035156 19.164062 13.03125 C 19.132812 13.027344 19.101562 13.023438 19.074219 13.023438 C 19.050781 13.019531 19.023438 13.019531 19.003906 13.015625 C 18.914062 13.011719 18.832031 13.007812 18.75 13.007812 C 15.851562 13.007812 13.496094 15.363281 13.496094 18.261719 C 13.496094 18.339844 13.5 18.421875 13.503906 18.507812 C 13.507812 18.535156 13.511719 18.566406 13.511719 18.597656 C 13.515625 18.625 13.515625 18.652344 13.519531 18.679688 C 13.519531 18.707031 13.519531 18.742188 13.523438 18.769531 L 12.582031 19.707031 L 3.570312 10.675781 L 12.976562 1.296875 Z M 1.144531 13.097656 L 2.996094 11.246094 L 12.015625 20.28125 L 10.160156 22.132812 Z M 18.75 22.703125 C 16.507812 22.703125 14.652344 21.035156 14.351562 18.875 L 14.351562 18.867188 C 14.34375 18.800781 14.339844 18.746094 14.332031 18.683594 C 14.328125 18.65625 14.324219 18.625 14.320312 18.597656 C 14.3125 18.484375 14.304688 18.375 14.304688 18.261719 C 14.304688 15.8125 16.296875 13.816406 18.75 13.816406 C 18.863281 13.816406 18.972656 13.824219 19.085938 13.835938 C 19.101562 13.835938 19.121094 13.839844 19.140625 13.839844 C 19.214844 13.847656 19.285156 13.855469 19.367188 13.867188 L 19.375 13.867188 C 21.527344 14.171875 23.191406 16.023438 23.191406 18.261719 C 23.191406 20.710938 21.199219 22.703125 18.75 22.703125 Z M 18.75 22.703125"/>
    <path d="M20.746094 16.261719C20.589844 16.105469 20.335938 16.105469 20.175781 16.261719L18.75 17.691406 17.320312 16.261719C17.164062 16.105469 16.90625 16.105469 16.75 16.261719 16.589844 16.417969 16.589844 16.675781 16.75 16.832031L18.175781 18.261719 16.75 19.6875C16.589844 19.847656 16.589844 20.101562 16.75 20.261719 16.828125 20.339844 16.929688 20.378906 17.035156 20.378906 17.136719 20.378906 17.242188 20.339844 17.320312 20.261719L18.75 18.832031 20.175781 20.261719C20.253906 20.339844 20.359375 20.378906 20.460938 20.378906 20.566406 20.378906 20.667969 20.339844 20.746094 20.261719 20.90625 20.101562 20.90625 19.847656 20.746094 19.6875L19.320312 18.261719 20.746094 16.832031C20.90625 16.675781 20.90625 16.417969 20.746094 16.261719zM17.140625 7.300781C18.015625 7.300781 18.730469 6.589844 18.730469 5.710938 18.730469 4.835938 18.015625 4.121094 17.140625 4.121094 16.261719 4.121094 15.550781 4.835938 15.550781 5.710938 15.550781 6.589844 16.261719 7.300781 17.140625 7.300781zM17.140625 4.929688C17.570312 4.929688 17.921875 5.28125 17.921875 5.714844 17.921875 6.144531 17.570312 6.496094 17.140625 6.496094 16.707031 6.496094 16.355469 6.144531 16.355469 5.714844 16.355469 5.28125 16.707031 4.929688 17.140625 4.929688zM17.140625 4.929688"/>
</svg>
