<svg xmlns="http://www.w3.org/2000/svg" width="32" height="32" viewBox="0 0 24 24">
    <path d="M22.328 13.309c-.18-1.715-1.61-3.063-3.324-3.063a3.34 3.34 0 0 0-2.711 1.422 1.918 1.918 0 0 0-.367-.035c-.969 0-1.832.66-2.117 1.597a2.685 2.685 0 0 0-1.305 2.297c0 1.47 1.164 2.66 2.598 2.66h4.503c.024 0 .051-.003.07-.003.028 0 .052.003.079.003h1.8c1.348 0 2.446-1.125 2.446-2.503 0-1.086-.688-2.04-1.672-2.375zm-.773 4.043l-1.82-.004h-.079l-4.558.004c-.97 0-1.758-.817-1.758-1.825 0-.695.398-1.34 1.012-1.644l.18-.09.042-.195c.14-.653.707-1.13 1.352-1.13.144 0 .285.028.426.075l.324.11.172-.301c.457-.797 1.261-1.27 2.156-1.27 1.363 0 2.488 1.148 2.508 2.559l.004.34.332.062c.761.148 1.316.84 1.316 1.64 0 .919-.723 1.669-1.61 1.669zm0 0M16.09 5.621a1.647 1.647 0 1 0 1.648-1.648c-.91 0-1.648.738-1.648 1.648zm2.453 0a.808.808 0 1 1-1.617 0 .809.809 0 0 1 1.617 0zm0 0"/>
    <path d="M13.426 1.047h5.164l4.156 4.148v5.39h.836V4.849L18.937.21h-5.855L2.508 10.754l.004.004L0 13.258l10.508 10.531 3.222-3.09-10.035-9.945zM12.53 20.69l-2.011 1.926-9.336-9.355 1.918-1.918zm0 0"/>
</svg>
