<svg xmlns="http://www.w3.org/2000/svg" width="32" height="32" viewBox="0 0 24 24">
    <path d="M14.140625 11.097656L14.140625 20.957031 24 20.957031 24 11.097656zM23.179688 20.136719L19.480469 20.136719 19.480469 14.964844 21.246094 16.726562 21.824219 16.148438 19.070312 13.390625 16.3125 16.148438 16.894531 16.726562 18.660156 14.964844 18.660156 20.136719 14.960938 20.136719 14.960938 11.917969 23.179688 11.917969zM15.816406 5.824219C15.816406 6.714844 16.539062 7.441406 17.433594 7.441406 18.324219 7.441406 19.050781 6.714844 19.050781 5.824219 19.050781 4.933594 18.324219 4.207031 17.433594 4.207031 16.539062 4.207031 15.816406 4.933594 15.816406 5.824219zM18.226562 5.824219C18.226562 6.261719 17.871094 6.621094 17.433594 6.621094 16.992188 6.621094 16.636719 6.261719 16.636719 5.824219 16.636719 5.386719 16.992188 5.03125 17.433594 5.03125 17.871094 5.03125 18.226562 5.386719 18.226562 5.824219zM18.226562 5.824219"/>
    <path d="M 13.199219 1.234375 L 18.273438 1.234375 L 22.355469 5.3125 L 22.355469 9.453125 L 23.179688 9.453125 L 23.179688 4.96875 L 18.613281 0.414062 L 12.859375 0.414062 L 2.464844 10.773438 L 2.464844 10.777344 L 0 13.238281 L 10.324219 23.585938 L 13.496094 20.550781 L 3.632812 10.777344 Z M 12.316406 20.539062 L 10.339844 22.4375 L 1.164062 13.238281 L 3.050781 11.355469 Z M 12.316406 20.539062"/>
</svg>
