<svg xmlns="http://www.w3.org/2000/svg" width="32" height="32" viewBox="0 0 24 24">
    <path d="M22.512 13.64a1.23 1.23 0 0 0-1.692 0l-6.156 6.157-.848 3.113-.207.207a.4.4 0 0 0-.004.563v.008l.008-.004a.394.394 0 0 0 .563 0l.207-.207 3.113-.852 6.156-6.156a1.195 1.195 0 0 0 0-1.688zm-6.922 6.368l4.098-4.098 1.695 1.695-4.098 4.098zm-.363.77l1.289 1.285-1.77.484zm7.859-4.872l-1.137 1.133-1.699-1.695 1.137-1.137a.406.406 0 0 1 .558 0l1.14 1.14a.398.398 0 0 1 0 .56zm0 0M4.2 2.602a1.8 1.8 0 0 0-1.802 1.796c0 .993.809 1.801 1.801 1.801C5.191 6.2 6 5.391 6 4.4a1.8 1.8 0 0 0-1.8-1.797zm0 2.796A1 1 0 1 1 4.197 3.4 1 1 0 0 1 4.2 5.398zm0 0M20.398 3.8a.398.398 0 1 1-.796 0 .398.398 0 1 1 .796 0zm0 0M18.8 3.8A.401.401 0 1 1 18 3.797a.401.401 0 0 1 .802.005zm0 0M21.2 5c0 .223-.18.398-.4.398a.398.398 0 1 1 0-.796c.22 0 .4.175.4.398zm0 0M19.602 5c0 .223-.18.398-.403.398a.398.398 0 1 1 0-.796c.223 0 .403.175.403.398zm0 0M17.2 3.8a.4.4 0 1 1-.801-.003.4.4 0 0 1 .8.004zm0 0M18 5c0 .223-.18.398-.398.398a.398.398 0 1 1 0-.796c.218 0 .398.175.398.398zm0 0M15.602 3.8a.401.401 0 1 1-.802-.004.401.401 0 0 1 .802.005zm0 0M16.398 5a.395.395 0 0 1-.398.398.395.395 0 0 1-.398-.398c0-.223.175-.398.398-.398.223 0 .398.175.398.398zm0 0M14 3.8a.4.4 0 1 1-.8-.003.4.4 0 0 1 .8.004zm0 0M14.8 5c0 .223-.179.398-.402.398a.398.398 0 1 1 0-.796c.223 0 .403.175.403.398zm0 0"/>
    <path d="M24 6.758V2.043A1.847 1.847 0 0 0 22.156.199H1.844A1.847 1.847 0 0 0 0 2.043v4.715c0 .586.281 1.105.71 1.441-.429.34-.71.856-.71 1.446v4.71c0 .59.281 1.106.71 1.446-.429.336-.71.855-.71 1.441v4.715c0 1.016.828 1.844 1.844 1.844h9.758V23H1.844A1.045 1.045 0 0 1 .8 21.957v-4.715c0-.574.469-1.043 1.043-1.043h13.355v-.8H1.844A1.043 1.043 0 0 1 .8 14.354v-4.71c0-.579.469-1.043 1.043-1.043h20.312c.574 0 1.043.464 1.043 1.043v2.957H24V9.645c0-.59-.281-1.106-.71-1.446.429-.336.71-.855.71-1.441zM1.844 7.8A1.045 1.045 0 0 1 .8 6.758V2.043C.8 1.469 1.27 1 1.844 1h20.312c.574 0 1.043.469 1.043 1.043v4.715c0 .574-.469 1.043-1.043 1.043zm0 0"/>
    <path d="M2.398 12c0 .992.809 1.8 1.801 1.8C5.191 13.8 6 12.993 6 12s-.809-1.8-1.8-1.8c-.993 0-1.802.808-1.802 1.8zM5.2 12c0 .55-.449 1-1 1-.55 0-1-.45-1-1s.45-1 1-1c.551 0 1 .45 1 1zm0 0M20.398 11.398a.398.398 0 1 1-.796 0 .398.398 0 1 1 .796 0zm0 0M18.8 11.398a.401.401 0 1 1 0 0zm0 0M21.2 12.602a.4.4 0 1 1-.801-.004.4.4 0 0 1 .8.004zm0 0M19.602 12.602a.401.401 0 1 1-.802-.005.401.401 0 0 1 .802.005zm0 0M17.2 11.398a.401.401 0 1 1-.803.003.401.401 0 0 1 .802-.003zm0 0M18 12.602a.4.4 0 1 1-.8-.004.4.4 0 0 1 .8.004zm0 0M15.602 11.398a.401.401 0 1 1 0 0zm0 0M16.398 12.602a.398.398 0 1 1-.796 0 .398.398 0 1 1 .796 0zm0 0M14 11.398a.401.401 0 1 1-.802.003.401.401 0 0 1 .802-.003zm0 0M14.8 12.602a.401.401 0 1 1-.801-.005.401.401 0 0 1 .802.005zm0 0M2.398 19.602a1.8 1.8 0 0 0 3.602 0c0-.993-.809-1.801-1.8-1.801-.993 0-1.802.808-1.802 1.8zm2.801 0c0 .55-.449 1-1 1a1 1 0 1 1 1-1zm0 0"/>
</svg>
