<svg xmlns="http://www.w3.org/2000/svg" width="32" height="32" viewBox="0 0 24 24">
    <path d="M23.59375 17.765625L20.484375 17.328125 19.09375 14.617188C18.957031 14.351562 18.519531 14.351562 18.382812 14.617188L16.996094 17.328125 13.882812 17.765625C13.730469 17.789062 13.605469 17.894531 13.558594 18.039062 13.511719 18.1875 13.554688 18.347656 13.667969 18.453125L15.910156 20.558594 15.378906 23.53125C15.351562 23.679688 15.414062 23.832031 15.535156 23.921875 15.65625 24.011719 15.820312 24.027344 15.953125 23.957031L18.742188 22.546875 21.527344 23.957031C21.582031 23.988281 21.644531 24 21.707031 24 21.789062 24 21.875 23.972656 21.945312 23.921875 22.066406 23.832031 22.125 23.679688 22.101562 23.53125L21.570312 20.558594 23.8125 18.453125C23.925781 18.347656 23.96875 18.1875 23.921875 18.039062 23.875 17.894531 23.746094 17.789062 23.59375 17.765625zM20.867188 20.125C20.765625 20.21875 20.722656 20.351562 20.746094 20.484375L21.171875 22.878906 18.921875 21.738281C18.804688 21.683594 18.671875 21.683594 18.558594 21.738281L16.308594 22.878906 16.734375 20.484375C16.757812 20.351562 16.710938 20.21875 16.613281 20.125L14.820312 18.441406 17.3125 18.09375C17.441406 18.074219 17.550781 17.996094 17.613281 17.878906L18.738281 15.679688 19.867188 17.878906C19.925781 17.996094 20.039062 18.074219 20.167969 18.09375L22.65625 18.441406zM4.199219 2.398438C3.207031 2.398438 2.402344 3.207031 2.402344 4.199219 2.402344 5.191406 3.207031 6 4.199219 6 5.191406 6 6 5.191406 6 4.199219 6 3.207031 5.191406 2.398438 4.199219 2.398438zM4.199219 5.199219C3.648438 5.199219 3.199219 4.75 3.199219 4.199219 3.199219 3.648438 3.648438 3.199219 4.199219 3.199219 4.753906 3.199219 5.199219 3.648438 5.199219 4.199219 5.199219 4.75 4.753906 5.199219 4.199219 5.199219zM20.398438 3.601562C20.398438 3.820312 20.21875 4 20 4 19.777344 4 19.597656 3.820312 19.597656 3.601562 19.597656 3.378906 19.777344 3.199219 20 3.199219 20.21875 3.199219 20.398438 3.378906 20.398438 3.601562zM18.800781 3.601562C18.800781 3.820312 18.621094 4 18.398438 4 18.179688 4 18 3.820312 18 3.601562 18 3.378906 18.179688 3.199219 18.398438 3.199219 18.621094 3.199219 18.800781 3.378906 18.800781 3.601562zM21.199219 4.800781C21.199219 5.019531 21.019531 5.199219 20.800781 5.199219 20.578125 5.199219 20.398438 5.019531 20.398438 4.800781 20.398438 4.578125 20.578125 4.398438 20.800781 4.398438 21.019531 4.398438 21.199219 4.578125 21.199219 4.800781zM19.597656 4.800781C19.597656 5.019531 19.421875 5.199219 19.199219 5.199219 18.980469 5.199219 18.800781 5.019531 18.800781 4.800781 18.800781 4.578125 18.980469 4.398438 19.199219 4.398438 19.421875 4.398438 19.597656 4.578125 19.597656 4.800781zM17.199219 3.601562C17.199219 3.820312 17.019531 4 16.800781 4 16.578125 4 16.398438 3.820312 16.398438 3.601562 16.398438 3.378906 16.578125 3.199219 16.800781 3.199219 17.019531 3.199219 17.199219 3.378906 17.199219 3.601562zM18 4.800781C18 5.019531 17.820312 5.199219 17.601562 5.199219 17.378906 5.199219 17.199219 5.019531 17.199219 4.800781 17.199219 4.578125 17.378906 4.398438 17.601562 4.398438 17.820312 4.398438 18 4.578125 18 4.800781zM15.601562 3.601562C15.601562 3.820312 15.421875 4 15.199219 4 14.980469 4 14.800781 3.820312 14.800781 3.601562 14.800781 3.378906 14.980469 3.199219 15.199219 3.199219 15.421875 3.199219 15.601562 3.378906 15.601562 3.601562zM16.398438 4.800781C16.398438 5.019531 16.21875 5.199219 16 5.199219 15.777344 5.199219 15.601562 5.019531 15.601562 4.800781 15.601562 4.578125 15.777344 4.398438 16 4.398438 16.21875 4.398438 16.398438 4.578125 16.398438 4.800781zM14 3.601562C14 3.820312 13.820312 4 13.601562 4 13.378906 4 13.199219 3.820312 13.199219 3.601562 13.199219 3.378906 13.378906 3.199219 13.601562 3.199219 13.820312 3.199219 14 3.378906 14 3.601562zM14.800781 4.800781C14.800781 5.019531 14.621094 5.199219 14.398438 5.199219 14.179688 5.199219 14 5.019531 14 4.800781 14 4.578125 14.179688 4.398438 14.398438 4.398438 14.621094 4.398438 14.800781 4.578125 14.800781 4.800781zM14.800781 4.800781"/>
    <path d="M 24 6.554688 L 24 1.84375 C 24 0.828125 23.171875 0 22.15625 0 L 1.84375 0 C 0.828125 0 0 0.828125 0 1.84375 L 0 6.554688 C 0 7.144531 0.28125 7.660156 0.710938 8 C 0.28125 8.335938 0 8.855469 0 9.441406 L 0 14.15625 C 0 14.742188 0.28125 15.261719 0.710938 15.597656 C 0.28125 15.9375 0 16.453125 0 17.042969 L 0 21.753906 C 0 22.773438 0.828125 23.597656 1.84375 23.597656 L 11.199219 23.597656 L 11.199219 22.796875 L 1.84375 22.796875 C 1.269531 22.796875 0.800781 22.332031 0.800781 21.753906 L 0.800781 17.042969 C 0.800781 16.46875 1.269531 16 1.84375 16 L 15.199219 16 L 15.199219 15.199219 L 1.84375 15.199219 C 1.269531 15.199219 0.800781 14.730469 0.800781 14.15625 L 0.800781 9.441406 C 0.800781 8.867188 1.269531 8.398438 1.84375 8.398438 L 22.15625 8.398438 C 22.730469 8.398438 23.199219 8.867188 23.199219 9.441406 L 23.199219 15.199219 L 24 15.199219 L 24 9.441406 C 24 8.855469 23.71875 8.335938 23.289062 8 C 23.71875 7.660156 24 7.144531 24 6.554688 Z M 1.84375 7.597656 C 1.269531 7.597656 0.800781 7.132812 0.800781 6.554688 L 0.800781 1.84375 C 0.800781 1.269531 1.269531 0.800781 1.84375 0.800781 L 22.15625 0.800781 C 22.730469 0.800781 23.199219 1.269531 23.199219 1.84375 L 23.199219 6.554688 C 23.199219 7.132812 22.730469 7.597656 22.15625 7.597656 Z M 1.84375 7.597656"/>
    <path d="M2.402344 11.800781C2.402344 12.792969 3.207031 13.597656 4.199219 13.597656 5.191406 13.597656 6 12.792969 6 11.800781 6 10.808594 5.191406 10 4.199219 10 3.207031 10 2.402344 10.808594 2.402344 11.800781zM5.199219 11.800781C5.199219 12.351562 4.753906 12.800781 4.199219 12.800781 3.648438 12.800781 3.199219 12.351562 3.199219 11.800781 3.199219 11.246094 3.648438 10.800781 4.199219 10.800781 4.753906 10.800781 5.199219 11.246094 5.199219 11.800781zM20.398438 11.199219C20.398438 11.421875 20.21875 11.597656 20 11.597656 19.777344 11.597656 19.597656 11.421875 19.597656 11.199219 19.597656 10.976562 19.777344 10.800781 20 10.800781 20.21875 10.800781 20.398438 10.976562 20.398438 11.199219zM18.800781 11.199219C18.800781 11.421875 18.621094 11.597656 18.398438 11.597656 18.179688 11.597656 18 11.421875 18 11.199219 18 10.976562 18.179688 10.800781 18.398438 10.800781 18.621094 10.800781 18.800781 10.976562 18.800781 11.199219zM21.199219 12.398438C21.199219 12.621094 21.019531 12.800781 20.800781 12.800781 20.578125 12.800781 20.398438 12.621094 20.398438 12.398438 20.398438 12.179688 20.578125 12 20.800781 12 21.019531 12 21.199219 12.179688 21.199219 12.398438zM19.597656 12.398438C19.597656 12.621094 19.421875 12.800781 19.199219 12.800781 18.980469 12.800781 18.800781 12.621094 18.800781 12.398438 18.800781 12.179688 18.980469 12 19.199219 12 19.421875 12 19.597656 12.179688 19.597656 12.398438zM17.199219 11.199219C17.199219 11.421875 17.019531 11.597656 16.800781 11.597656 16.578125 11.597656 16.398438 11.421875 16.398438 11.199219 16.398438 10.976562 16.578125 10.800781 16.800781 10.800781 17.019531 10.800781 17.199219 10.976562 17.199219 11.199219zM18 12.398438C18 12.621094 17.820312 12.800781 17.601562 12.800781 17.378906 12.800781 17.199219 12.621094 17.199219 12.398438 17.199219 12.179688 17.378906 12 17.601562 12 17.820312 12 18 12.179688 18 12.398438zM15.601562 11.199219C15.601562 11.421875 15.421875 11.597656 15.199219 11.597656 14.980469 11.597656 14.800781 11.421875 14.800781 11.199219 14.800781 10.976562 14.980469 10.800781 15.199219 10.800781 15.421875 10.800781 15.601562 10.976562 15.601562 11.199219zM16.398438 12.398438C16.398438 12.621094 16.21875 12.800781 16 12.800781 15.777344 12.800781 15.601562 12.621094 15.601562 12.398438 15.601562 12.179688 15.777344 12 16 12 16.21875 12 16.398438 12.179688 16.398438 12.398438zM14 11.199219C14 11.421875 13.820312 11.597656 13.601562 11.597656 13.378906 11.597656 13.199219 11.421875 13.199219 11.199219 13.199219 10.976562 13.378906 10.800781 13.601562 10.800781 13.820312 10.800781 14 10.976562 14 11.199219zM14.800781 12.398438C14.800781 12.621094 14.621094 12.800781 14.398438 12.800781 14.179688 12.800781 14 12.621094 14 12.398438 14 12.179688 14.179688 12 14.398438 12 14.621094 12 14.800781 12.179688 14.800781 12.398438zM2.402344 19.398438C2.402344 20.390625 3.207031 21.199219 4.199219 21.199219 5.191406 21.199219 6 20.390625 6 19.398438 6 18.40625 5.191406 17.597656 4.199219 17.597656 3.207031 17.597656 2.402344 18.40625 2.402344 19.398438zM5.199219 19.398438C5.199219 19.949219 4.753906 20.398438 4.199219 20.398438 3.648438 20.398438 3.199219 19.949219 3.199219 19.398438 3.199219 18.847656 3.648438 18.398438 4.199219 18.398438 4.753906 18.398438 5.199219 18.847656 5.199219 19.398438zM5.199219 19.398438"/>
</svg>
