<svg xmlns="http://www.w3.org/2000/svg" width="32" height="32" viewBox="0 0 24 24">
    <path d="M20.879 19.207a.407.407 0 0 0-.473.313c-.445 2.203-2.176 3.68-4.308 3.68a4.617 4.617 0 0 1-4.38-3.2h1.884v-.8h-3.204v3.198h.801V20.86A5.414 5.414 0 0 0 16.098 24c2.523 0 4.57-1.738 5.093-4.32a.4.4 0 0 0-.312-.473zm0 0M20.8 16.125c-.902-1.785-2.683-2.926-4.702-2.926-2.442 0-4.614 1.598-5.282 3.89a.399.399 0 0 0 .274.497.405.405 0 0 0 .496-.273C12.145 15.395 14.043 14 16.098 14c1.828 0 3.425 1.105 4.132 2.8h-1.832v.802h3.204v-3.204H20.8zm0 0M11.602 10.41a1.594 1.594 0 0 0-1.16 1.192h-2.84a.398.398 0 1 0 0 .796h2.87a1.595 1.595 0 0 0 3.13-.445c0-.746-.512-1.367-1.204-1.543V6.352A.395.395 0 0 0 12 5.953a.395.395 0 0 0-.398.399zm1.199 1.543c0 .442-.36.797-.801.797a.799.799 0 1 1 0-1.598c.441 0 .8.36.8.801zm0 0M12 3.953c.223 0 .398-.18.398-.402v-.399a.398.398 0 1 0-.796 0v.399c0 .222.175.402.398.402zm0 0M20.8 12.352a.4.4 0 0 0 0-.801h-.402a.401.401 0 0 0 0 .8zm0 0M3.2 11.55a.401.401 0 0 0 0 .802h.402a.4.4 0 0 0 0-.801zm0 0M18.223 6.293l.28-.281a.4.4 0 0 0 0-.567.396.396 0 0 0-.562 0l-.285.285a.399.399 0 1 0 .566.563zm0 0M5.777 17.61l-.28.28a.4.4 0 0 0 .28.684c.102 0 .203-.039.282-.117l.285-.281a.4.4 0 0 0-.567-.567zm0 0M6.344 5.73l-.285-.285a.396.396 0 0 0-.563 0 .4.4 0 0 0 0 .567l.281.281a.399.399 0 1 0 .566-.563zm0 0"/>
    <path d="M12 0C5.383 0 0 5.383 0 12c0 5.531 3.742 10.32 9.105 11.648a.403.403 0 0 0 .484-.293.4.4 0 0 0-.292-.484A11.173 11.173 0 0 1 .8 12C.8 5.824 5.824.8 12 .8S23.2 5.825 23.2 12c0 1.387-.255 2.746-.755 4.04a.4.4 0 0 0 .746.284c.536-1.383.809-2.84.809-4.324 0-6.617-5.383-12-12-12zm0 0"/>
</svg>
