<svg xmlns="http://www.w3.org/2000/svg" width="32" height="32" viewBox="0 0 24 24">
    <path d="M21.813 16.258c-1.403-2.149-3.282-3.36-5.301-3.438a2.77 2.77 0 0 0-.898.04c-1.837.238-3.532 1.421-4.825 3.398l-.187.285.144.219c1.453 2.218 3.41 3.441 5.512 3.441 2.101 0 4.058-1.223 5.512-3.441l.187-.285zm-6.047-2.61a4.06 4.06 0 0 1 .535-.035h.023a1.961 1.961 0 0 1 1.824 1.95 1.966 1.966 0 0 1-1.964 1.964 1.966 1.966 0 0 1-1.961-1.965c0-.937.66-1.722 1.543-1.914zm.492 5.758c-1.754 0-3.414-1.015-4.695-2.867.62-.914 1.34-1.625 2.109-2.121-.16.352-.25.738-.25 1.145a2.767 2.767 0 0 0 2.762 2.765 2.77 2.77 0 0 0 2.765-2.765 2.74 2.74 0 0 0-.351-1.34c.882.484 1.699 1.242 2.402 2.254-1.29 1.89-2.969 2.93-4.742 2.93zm0 0M7.242 21.2c0 .882.719 1.6 1.602 1.6a1.6 1.6 0 1 0-1.602-1.602zm2.399 0c0 .44-.36.8-.797.8a.802.802 0 0 1 0-1.602c.437 0 .797.36.797.801zm0 0"/>
    <path d="M13.879 23.2H3.805a.96.96 0 0 1-.961-.962V19.2h8.398a.4.4 0 0 0 0-.8H2.844v-15.2h12V12c0 .223.176.398.398.398a.398.398 0 0 0 .399-.398V1.762C15.64.789 14.85 0 13.879 0H3.805c-.973 0-1.762.79-1.762 1.762v20.476c0 .973.789 1.762 1.762 1.762h10.074a.401.401 0 1 0 0-.8zM2.844 1.761c0-.532.43-.961.96-.961H13.88c.531 0 .965.43.965.96v.637h-12zm0 0"/>
    <path d="M8.844 1.2H7.242a.398.398 0 0 0-.398.402c0 .218.176.398.398.398h1.602a.4.4 0 0 0 0-.8zm0 0M10.441 1.2h-.398a.401.401 0 0 0 0 .8h.398a.401.401 0 1 0 0-.8zm0 0"/>
</svg>
