<svg xmlns="http://www.w3.org/2000/svg" width="32" height="32" viewBox="0 0 24 24">
    <path d="M22.082 21.055l-4.738-8.121a.894.894 0 0 0-1.547 0l-4.738 8.12a.89.89 0 0 0-.004.9.89.89 0 0 0 .777.448h9.477a.88.88 0 0 0 .773-.449.882.882 0 0 0 0-.898zm-.691.5a.096.096 0 0 1-.082.047h-9.477a.09.09 0 0 1-.082-.047c-.012-.024-.023-.059 0-.098l4.738-8.121a.089.089 0 0 1 .082-.047c.024 0 .059.008.082.047l4.739 8.121c.023.04.011.074 0 .098zm0 0"/>
    <path d="M16.605 15.203a.398.398 0 0 0-.402.399V18.8a.401.401 0 0 0 .8 0v-3.2a.398.398 0 0 0-.398-.398zm0 0M16.32 20.121a.395.395 0 0 0 0 .563.402.402 0 0 0 .285.117.39.39 0 0 0 .278-.117.39.39 0 0 0 .004-.563.408.408 0 0 0-.567 0zm0 0M6.996 2h1.598a.401.401 0 1 0 0-.8H6.996a.401.401 0 0 0 0 .8zm0 0M9.797 2h.398c.223 0 .399-.18.399-.398a.398.398 0 0 0-.399-.403h-.398a.401.401 0 0 0 0 .8zm0 0M6.996 21.2c0 .882.719 1.6 1.598 1.6.883 0 1.601-.718 1.601-1.6a1.6 1.6 0 0 0-3.199 0zm2.399 0c0 .44-.36.8-.801.8a.801.801 0 0 1 0-1.602c.441 0 .8.36.8.801zm0 0"/>
    <path d="M10.594 23.2H3.559a.96.96 0 0 1-.961-.962V19.2h8.398c.223 0 .399-.18.399-.398a.398.398 0 0 0-.399-.403H2.598V3.2h12V12c0 .223.175.398.398.398a.395.395 0 0 0 .399-.398V1.762c0-.973-.79-1.762-1.762-1.762H3.559c-.973 0-1.762.79-1.762 1.762v20.476c0 .973.789 1.762 1.762 1.762h7.039a.4.4 0 1 0-.004-.8zM3.559.8h10.074c.531 0 .96.43.96.962v.636h-12v-.636c0-.532.434-.961.966-.961zm0 0"/>
</svg>
