<svg xmlns="http://www.w3.org/2000/svg" width="32" height="32" viewBox="0 0 24 24">
    <path d="M20.969 17.336c-.172-1.645-1.54-2.934-3.18-2.934a3.186 3.186 0 0 0-2.594 1.36 2.138 2.138 0 0 0-.351-.032c-.93 0-1.754.633-2.028 1.528a2.574 2.574 0 0 0-1.246 2.199c0 1.402 1.114 2.543 2.485 2.543H20.23c1.29 0 2.34-1.074 2.34-2.395a2.39 2.39 0 0 0-1.601-2.27zm-.739 3.867l-1.742-.004h-.066l-4.367.004c-.93 0-1.684-.785-1.684-1.746 0-.664.379-1.281.965-1.574l.176-.086.039-.188c.133-.625.676-1.078 1.293-1.078.136 0 .273.024.406.067l.313.105.164-.285c.437-.762 1.207-1.215 2.062-1.215 1.305 0 2.383 1.098 2.398 2.45l.004.324.32.062c.731.14 1.259.8 1.259 1.566 0 .88-.692 1.598-1.54 1.598zm0 0M6.629 2H8.23c.223 0 .399-.18.399-.398a.398.398 0 0 0-.399-.403H6.63a.401.401 0 0 0 0 .801zm0 0M9.43 2h.398a.401.401 0 1 0 0-.8H9.43a.398.398 0 0 0-.399.402c0 .218.176.398.399.398zm0 0M6.629 21.2c0 .882.719 1.6 1.601 1.6a1.6 1.6 0 1 0-1.601-1.6zm2.402 0a.802.802 0 0 1-1.601 0 .802.802 0 0 1 1.601 0zm0 0"/>
    <path d="M10.629 18.398H2.23V3.2h12V12c0 .223.18.398.399.398A.398.398 0 0 0 15.03 12V1.762C15.031.789 14.238 0 13.27 0H3.19C2.223 0 1.43.79 1.43 1.762v20.476c0 .973.793 1.762 1.761 1.762h7.04c.222 0 .398-.18.398-.398a.398.398 0 0 0-.399-.403H3.191a.96.96 0 0 1-.96-.96v-3.04h8.398a.401.401 0 1 0 0-.8zM3.19.801H13.27c.527 0 .96.43.96.96v.637h-12v-.636c0-.532.43-.961.961-.961zm0 0"/>
</svg>
