<svg xmlns="http://www.w3.org/2000/svg" width="32" height="32" viewBox="0 0 24 24">
    <path d="M12 22.793h9.598v-9.598H12zm.8-8.797h7.997v8h-3.598v-5.035l1.715 1.719.566-.567-2.683-2.683-2.68 2.683.567.567 1.714-1.72v5.036h-3.597zm0 0"/>
    <path d="M16.797 0H7.199C3.23 0 .004 3.23.004 7.2v5.597A7.204 7.204 0 0 0 6.8 19.984v3.336a.677.677 0 0 0 1.16.48l.75-.75a10.42 10.42 0 0 1 2.594-1.894.398.398 0 0 0 .172-.539.396.396 0 0 0-.536-.172 11.156 11.156 0 0 0-2.796 2.04l-.543.542v-3.832h-.403a6.407 6.407 0 0 1-6.398-6.398V7.199A6.407 6.407 0 0 1 7.199.801h9.598a6.404 6.404 0 0 1 6.398 6.398v5.598c0 .922-.195 1.82-.59 2.672-.09.199-.003.437.196.531.203.09.441.004.531-.195a7.132 7.132 0 0 0 .664-3.008V7.199C23.996 3.23 20.77 0 16.796 0zm0 0"/>
</svg>
