<svg xmlns="http://www.w3.org/2000/svg" width="32" height="32" viewBox="0 0 24 24">
    <path d="M 19.160156 19.101562 L 21.753906 17.804688 L 14.703125 15.207031 L 17.300781 22.257812 L 18.597656 19.667969 L 21.316406 22.386719 C 21.394531 22.460938 21.496094 22.503906 21.597656 22.503906 C 21.699219 22.503906 21.800781 22.460938 21.878906 22.386719 C 22.035156 22.226562 22.035156 21.976562 21.878906 21.820312 Z M 16.050781 16.554688 L 19.742188 17.917969 L 18.1875 18.691406 L 17.410156 20.25 Z M 16.050781 16.554688"/>
    <path d="M 16.796875 0 L 7.199219 0 C 3.230469 0 0.00390625 3.230469 0.00390625 7.199219 L 0.00390625 12.796875 C 0.00390625 16.632812 3.015625 19.777344 6.800781 19.984375 L 6.800781 23.320312 C 6.800781 23.597656 6.964844 23.84375 7.21875 23.949219 C 7.304688 23.984375 7.394531 24 7.480469 24 C 7.65625 24 7.828125 23.929688 7.960938 23.800781 L 8.710938 23.050781 C 9.472656 22.289062 10.347656 21.652344 11.304688 21.15625 C 11.503906 21.054688 11.578125 20.8125 11.476562 20.617188 C 11.378906 20.421875 11.136719 20.34375 10.941406 20.445312 C 9.90625 20.976562 8.964844 21.664062 8.144531 22.484375 L 7.601562 23.027344 L 7.601562 19.195312 L 7.199219 19.195312 C 3.671875 19.195312 0.800781 16.324219 0.800781 12.796875 L 0.800781 7.199219 C 0.800781 3.671875 3.671875 0.800781 7.199219 0.800781 L 16.796875 0.800781 C 20.328125 0.800781 23.195312 3.671875 23.195312 7.199219 L 23.195312 12.796875 C 23.195312 13.71875 23 14.617188 22.605469 15.46875 C 22.515625 15.667969 22.601562 15.90625 22.800781 16 C 23.003906 16.089844 23.242188 16.003906 23.332031 15.804688 C 23.773438 14.847656 23.996094 13.835938 23.996094 12.796875 L 23.996094 7.199219 C 23.996094 3.230469 20.769531 0 16.796875 0 Z M 16.796875 0"/>
</svg>
