<svg xmlns="http://www.w3.org/2000/svg" width="32" height="32" viewBox="0 0 24 24">
    <path d="M19.996 14.14v-.945h.402a.398.398 0 1 0 0-.797H13.2a.395.395 0 0 0-.398.399c0 .223.176.398.398.398h.399v.946c0 1.414.738 2.699 1.933 3.453-1.195.758-1.933 2.043-1.933 3.457v.945h-.399a.395.395 0 0 0-.398.399c0 .222.176.398.398.398h7.2a.398.398 0 1 0 0-.797h-.403v-.945c0-1.414-.734-2.7-1.93-3.457 1.196-.754 1.93-2.04 1.93-3.453zm-.797 6.91v.946h-4.8v-.945c0-1.328.812-2.52 2.078-3.055h.644c1.266.535 2.078 1.727 2.078 3.055zm-2.078-3.855h-.644c-1.266-.535-2.079-1.726-2.079-3.054v-.946H19.2v.946c0 1.328-.812 2.52-2.078 3.054zm0 0"/>
    <path d="M16.797 0H7.199C3.23 0 .004 3.23.004 7.2v5.597A7.204 7.204 0 0 0 6.8 19.984v3.336a.677.677 0 0 0 1.16.48l.75-.75a10.492 10.492 0 0 1 2.594-1.894.398.398 0 0 0 .172-.539.396.396 0 0 0-.536-.172 11.156 11.156 0 0 0-2.796 2.04l-.543.542v-3.832h-.403a6.407 6.407 0 0 1-6.398-6.398V7.199A6.407 6.407 0 0 1 7.199.801h9.598a6.404 6.404 0 0 1 6.398 6.398v5.598c0 .922-.195 1.82-.59 2.672-.09.199-.003.437.196.531.203.09.441.004.531-.195a7.132 7.132 0 0 0 .664-3.008V7.199C23.996 3.23 20.77 0 16.796 0zm0 0"/>
</svg>
