<svg xmlns="http://www.w3.org/2000/svg" width="32" height="32" viewBox="0 0 24 24">
    <path d="M 21.671875 16.746094 L 21.09375 16.636719 C 20.824219 16.585938 20.613281 16.40625 20.511719 16.148438 C 20.410156 15.894531 20.445312 15.617188 20.609375 15.394531 L 20.972656 14.902344 C 21.089844 14.742188 21.070312 14.523438 20.929688 14.382812 L 20.148438 13.597656 C 20.011719 13.464844 19.800781 13.445312 19.640625 13.550781 L 19.15625 13.878906 C 18.925781 14.035156 18.648438 14.0625 18.398438 13.949219 C 18.144531 13.839844 17.976562 13.621094 17.933594 13.347656 L 17.839844 12.742188 C 17.808594 12.546875 17.640625 12.402344 17.445312 12.402344 L 16.335938 12.402344 C 16.144531 12.402344 15.980469 12.539062 15.945312 12.726562 L 15.800781 13.472656 C 15.75 13.738281 15.578125 13.949219 15.328125 14.050781 C 15.078125 14.15625 14.808594 14.128906 14.585938 13.976562 L 13.957031 13.550781 C 13.796875 13.445312 13.585938 13.464844 13.449219 13.597656 L 12.664062 14.382812 C 12.527344 14.523438 12.507812 14.742188 12.625 14.902344 L 12.988281 15.394531 C 13.152344 15.617188 13.1875 15.894531 13.085938 16.148438 C 12.984375 16.40625 12.773438 16.585938 12.503906 16.636719 L 11.925781 16.746094 C 11.734375 16.785156 11.601562 16.949219 11.601562 17.140625 L 11.601562 18.246094 C 11.601562 18.445312 11.742188 18.613281 11.9375 18.640625 L 12.542969 18.734375 C 12.816406 18.777344 13.039062 18.945312 13.148438 19.199219 C 13.257812 19.453125 13.234375 19.730469 13.078125 19.957031 L 12.75 20.445312 C 12.640625 20.601562 12.660156 20.816406 12.796875 20.949219 L 13.578125 21.734375 C 13.71875 21.875 13.9375 21.890625 14.097656 21.773438 L 14.59375 21.410156 C 14.816406 21.25 15.089844 21.214844 15.347656 21.3125 C 15.605469 21.414062 15.78125 21.628906 15.832031 21.898438 L 15.945312 22.476562 C 15.980469 22.664062 16.144531 22.800781 16.335938 22.800781 L 17.445312 22.800781 C 17.640625 22.800781 17.808594 22.65625 17.839844 22.460938 L 17.90625 22.035156 C 17.949219 21.761719 18.125 21.535156 18.382812 21.425781 C 18.640625 21.320312 18.925781 21.355469 19.152344 21.519531 L 19.5 21.773438 C 19.65625 21.890625 19.878906 21.875 20.019531 21.734375 L 20.800781 20.953125 C 20.9375 20.816406 20.957031 20.601562 20.847656 20.445312 L 20.519531 19.957031 C 20.363281 19.730469 20.339844 19.453125 20.449219 19.199219 C 20.558594 18.945312 20.78125 18.777344 21.054688 18.734375 L 21.660156 18.644531 C 21.851562 18.613281 21.996094 18.445312 21.996094 18.246094 L 21.996094 17.140625 C 21.996094 16.949219 21.863281 16.785156 21.671875 16.746094 Z M 21.199219 17.90625 L 20.929688 17.945312 C 20.390625 18.027344 19.933594 18.378906 19.714844 18.878906 C 19.496094 19.382812 19.550781 19.953125 19.859375 20.40625 L 20 20.617188 L 19.695312 20.925781 L 19.625 20.875 C 19.171875 20.542969 18.59375 20.472656 18.078125 20.6875 C 17.558594 20.902344 17.199219 21.359375 17.113281 21.914062 L 17.101562 22 L 16.667969 22 L 16.617188 21.746094 C 16.515625 21.207031 16.148438 20.769531 15.640625 20.570312 C 15.128906 20.367188 14.5625 20.441406 14.121094 20.765625 L 13.902344 20.925781 L 13.59375 20.617188 L 13.738281 20.40625 C 14.046875 19.953125 14.097656 19.382812 13.878906 18.878906 C 13.660156 18.378906 13.207031 18.027344 12.667969 17.945312 L 12.398438 17.902344 L 12.398438 17.46875 L 12.652344 17.421875 C 13.191406 17.316406 13.632812 16.953125 13.832031 16.441406 C 14.03125 15.933594 13.957031 15.363281 13.632812 14.921875 L 13.472656 14.703125 L 13.78125 14.398438 L 14.136719 14.636719 C 14.578125 14.9375 15.140625 14.996094 15.636719 14.789062 C 16.128906 14.585938 16.484375 14.148438 16.585938 13.625 L 16.667969 13.203125 L 17.101562 13.203125 L 17.144531 13.46875 C 17.226562 14.011719 17.574219 14.464844 18.078125 14.683594 C 18.578125 14.902344 19.152344 14.847656 19.601562 14.542969 L 19.816406 14.398438 L 20.125 14.703125 L 19.964844 14.921875 C 19.640625 15.363281 19.566406 15.929688 19.765625 16.441406 C 19.964844 16.953125 20.40625 17.316406 20.945312 17.421875 L 21.199219 17.46875 Z M 21.199219 17.90625"/>
    <path d="M 16.796875 15.601562 C 15.695312 15.601562 14.800781 16.5 14.800781 17.601562 C 14.800781 18.703125 15.695312 19.601562 16.796875 19.601562 C 17.902344 19.601562 18.796875 18.703125 18.796875 17.601562 C 18.796875 16.5 17.902344 15.601562 16.796875 15.601562 Z M 16.796875 18.800781 C 16.136719 18.800781 15.597656 18.261719 15.597656 17.601562 C 15.597656 16.941406 16.136719 16.402344 16.796875 16.402344 C 17.460938 16.402344 18 16.941406 18 17.601562 C 18 18.261719 17.460938 18.800781 16.796875 18.800781 Z M 16.796875 18.800781"/>
    <path d="M 16.796875 0 L 7.199219 0 C 3.230469 0 0.00390625 3.230469 0.00390625 7.199219 L 0.00390625 12.796875 C 0.00390625 16.632812 3.015625 19.777344 6.800781 19.984375 L 6.800781 23.320312 C 6.800781 23.597656 6.964844 23.84375 7.21875 23.949219 C 7.304688 23.984375 7.394531 24 7.480469 24 C 7.65625 24 7.828125 23.929688 7.960938 23.800781 L 8.710938 23.050781 C 9.472656 22.285156 10.347656 21.648438 11.304688 21.15625 C 11.5 21.054688 11.578125 20.8125 11.480469 20.617188 C 11.378906 20.421875 11.136719 20.34375 10.941406 20.445312 C 9.90625 20.976562 8.964844 21.664062 8.144531 22.484375 L 7.601562 23.027344 L 7.601562 19.195312 L 7.199219 19.195312 C 3.671875 19.195312 0.800781 16.324219 0.800781 12.796875 L 0.800781 7.199219 C 0.800781 3.671875 3.671875 0.800781 7.199219 0.800781 L 16.796875 0.800781 C 20.328125 0.800781 23.195312 3.671875 23.195312 7.199219 L 23.195312 12.796875 C 23.195312 13.71875 23 14.617188 22.605469 15.46875 C 22.515625 15.667969 22.601562 15.90625 22.800781 16 C 23.003906 16.089844 23.242188 16.003906 23.332031 15.800781 C 23.773438 14.847656 23.996094 13.835938 23.996094 12.796875 L 23.996094 7.199219 C 23.996094 3.230469 20.769531 0 16.796875 0 Z M 16.796875 0"/>
</svg>
