<svg xmlns="http://www.w3.org/2000/svg" width="32" height="32" viewBox="0 0 24 24">
    <path d="M20.879 19.207a.403.403 0 0 0-.473.313c-.445 2.203-2.176 3.68-4.308 3.68a4.617 4.617 0 0 1-4.38-3.2h1.884v-.8h-3.204v3.198h.801V20.86A5.414 5.414 0 0 0 16.098 24c2.523 0 4.57-1.738 5.093-4.32a.4.4 0 0 0-.312-.473zm0 0M20.8 16.125c-.902-1.785-2.683-2.926-4.702-2.926-2.442 0-4.614 1.598-5.282 3.89a.399.399 0 0 0 .274.497.405.405 0 0 0 .496-.273C12.145 15.395 14.043 14 16.098 14c1.828 0 3.425 1.105 4.132 2.8h-1.832v.802h3.204v-3.204H20.8zm0 0M11.422 13.012c.246.34.625.55 1.043.582.035.004.074.008.11.008a1.427 1.427 0 0 0 .836-2.582L8.233 7.277a.397.397 0 0 0-.515.04.403.403 0 0 0-.043.519zm1.52-1.344a.64.64 0 0 1 .257.457.638.638 0 0 1-.183.492.632.632 0 0 1-.489.18.608.608 0 0 1-.457-.254L9.785 9.387zm0 0"/>
    <path d="M12 0a.398.398 0 0 0-.398.398v5.317a.398.398 0 1 0 .796 0V.809C18.391 1.019 23.2 5.957 23.2 12c0 1.387-.254 2.746-.754 4.04a.4.4 0 0 0 .746.284c.536-1.383.809-2.84.809-4.324 0-6.617-5.383-12-12-12zm0 0M9.297 22.871A11.173 11.173 0 0 1 .8 12c0-2.984 1.16-5.793 3.265-7.906a.4.4 0 0 0-.566-.567A11.93 11.93 0 0 0 0 12c0 5.531 3.742 10.32 9.105 11.648a.403.403 0 0 0 .484-.293.403.403 0 0 0-.292-.484zm0 0"/>
</svg>
