<svg xmlns="http://www.w3.org/2000/svg" width="32" height="32" viewBox="0 0 24 24">
    <path d="M21.65625 17.765625L18.542969 17.328125 17.15625 14.617188C17.019531 14.351562 16.582031 14.351562 16.445312 14.617188L15.054688 17.328125 11.945312 17.765625C11.792969 17.785156 11.664062 17.894531 11.617188 18.039062 11.574219 18.1875 11.613281 18.347656 11.726562 18.453125L13.96875 20.558594 13.441406 23.53125C13.414062 23.679688 13.472656 23.832031 13.59375 23.921875 13.71875 24.011719 13.878906 24.027344 14.015625 23.957031L16.800781 22.546875 19.585938 23.957031C19.640625 23.984375 19.703125 24 19.765625 24 19.851562 24 19.933594 23.972656 20.003906 23.921875 20.125 23.832031 20.1875 23.679688 20.160156 23.53125L19.632812 20.558594 21.875 18.453125C21.984375 18.347656 22.027344 18.1875 21.980469 18.039062 21.933594 17.894531 21.808594 17.785156 21.65625 17.765625zM18.925781 20.125C18.828125 20.21875 18.78125 20.351562 18.804688 20.484375L19.230469 22.878906 16.980469 21.738281C16.921875 21.710938 16.863281 21.695312 16.800781 21.695312 16.738281 21.695312 16.675781 21.710938 16.617188 21.738281L14.367188 22.878906 14.792969 20.484375C14.816406 20.351562 14.773438 20.21875 14.671875 20.125L12.882812 18.441406 15.371094 18.09375C15.5 18.074219 15.613281 17.996094 15.671875 17.878906L16.800781 15.679688 17.925781 17.878906C17.984375 17.996094 18.097656 18.074219 18.226562 18.09375L20.71875 18.441406zM11.601562 10.410156C11.023438 10.558594 10.574219 11.015625 10.441406 11.601562L7.601562 11.601562C7.378906 11.601562 7.199219 11.777344 7.199219 12 7.199219 12.222656 7.378906 12.398438 7.601562 12.398438L10.472656 12.398438C10.667969 13.0625 11.273438 13.550781 12 13.550781 12.882812 13.550781 13.601562 12.832031 13.601562 11.953125 13.601562 11.207031 13.089844 10.585938 12.398438 10.410156L12.398438 6.351562C12.398438 6.128906 12.222656 5.953125 12 5.953125 11.777344 5.953125 11.601562 6.128906 11.601562 6.351562zM12.800781 11.953125C12.800781 12.394531 12.441406 12.75 12 12.75 11.558594 12.75 11.199219 12.394531 11.199219 11.953125 11.199219 11.511719 11.558594 11.152344 12 11.152344 12.441406 11.152344 12.800781 11.511719 12.800781 11.953125zM12 3.953125C12.222656 3.953125 12.398438 3.773438 12.398438 3.550781L12.398438 3.152344C12.398438 2.929688 12.222656 2.75 12 2.75 11.777344 2.75 11.601562 2.929688 11.601562 3.152344L11.601562 3.550781C11.601562 3.773438 11.777344 3.953125 12 3.953125zM20.800781 12.351562C21.019531 12.351562 21.199219 12.171875 21.199219 11.953125 21.199219 11.730469 21.019531 11.550781 20.800781 11.550781L20.398438 11.550781C20.179688 11.550781 20 11.730469 20 11.953125 20 12.171875 20.179688 12.351562 20.398438 12.351562zM3.199219 11.550781C2.980469 11.550781 2.800781 11.730469 2.800781 11.953125 2.800781 12.171875 2.980469 12.351562 3.199219 12.351562L3.601562 12.351562C3.820312 12.351562 4 12.171875 4 11.953125 4 11.730469 3.820312 11.550781 3.601562 11.550781zM18.222656 6.292969L18.503906 6.011719C18.660156 5.855469 18.660156 5.601562 18.503906 5.445312 18.347656 5.289062 18.097656 5.289062 17.941406 5.445312L17.65625 5.730469C17.5 5.886719 17.5 6.136719 17.65625 6.292969 17.734375 6.371094 17.835938 6.410156 17.941406 6.410156 18.042969 6.410156 18.144531 6.371094 18.222656 6.292969zM5.777344 17.609375L5.496094 17.890625C5.339844 18.046875 5.339844 18.300781 5.496094 18.457031 5.574219 18.535156 5.675781 18.574219 5.777344 18.574219 5.878906 18.574219 5.980469 18.535156 6.058594 18.457031L6.34375 18.171875C6.5 18.015625 6.5 17.765625 6.34375 17.609375 6.1875 17.453125 5.933594 17.453125 5.777344 17.609375zM6.34375 5.730469L6.058594 5.445312C5.902344 5.289062 5.652344 5.289062 5.496094 5.445312 5.339844 5.601562 5.339844 5.855469 5.496094 6.011719L5.777344 6.292969C5.855469 6.371094 5.957031 6.410156 6.058594 6.410156 6.164062 6.410156 6.265625 6.371094 6.34375 6.292969 6.5 6.136719 6.5 5.886719 6.34375 5.730469zM6.34375 5.730469"/>
    <path d="M 12 0 C 5.382812 0 0 5.382812 0 12 C 0 17.53125 3.746094 22.320312 9.105469 23.648438 C 9.136719 23.65625 9.167969 23.660156 9.203125 23.660156 C 9.382812 23.660156 9.542969 23.539062 9.589844 23.355469 C 9.644531 23.140625 9.511719 22.925781 9.296875 22.871094 C 4.292969 21.632812 0.800781 17.160156 0.800781 12 C 0.800781 5.824219 5.824219 0.800781 12 0.800781 C 18.175781 0.800781 23.199219 5.824219 23.199219 12 C 23.199219 13.386719 22.945312 14.746094 22.445312 16.039062 C 22.367188 16.242188 22.46875 16.476562 22.675781 16.554688 C 22.878906 16.632812 23.113281 16.53125 23.191406 16.324219 C 23.726562 14.941406 24 13.484375 24 12 C 24 5.382812 18.617188 0 12 0 Z M 12 0"/>
</svg>
