<svg xmlns="http://www.w3.org/2000/svg" width="32" height="32" viewBox="0 0 24 24">
    <path d="M20.78125 16.820312C20.625 16.664062 20.371094 16.664062 20.214844 16.820312L18.800781 18.234375 17.386719 16.820312C17.230469 16.664062 16.976562 16.664062 16.820312 16.820312 16.664062 16.976562 16.664062 17.230469 16.820312 17.386719L18.234375 18.800781 16.820312 20.214844C16.664062 20.371094 16.664062 20.625 16.820312 20.78125 16.898438 20.859375 17 20.898438 17.101562 20.898438 17.207031 20.898438 17.308594 20.859375 17.386719 20.78125L18.800781 19.367188 20.214844 20.78125C20.292969 20.859375 20.394531 20.898438 20.496094 20.898438 20.597656 20.898438 20.703125 20.859375 20.78125 20.78125 20.9375 20.625 20.9375 20.371094 20.78125 20.214844L19.367188 18.800781 20.78125 17.386719C20.9375 17.230469 20.9375 16.976562 20.78125 16.820312zM11.421875 13.414062C11.667969 13.75 12.046875 13.960938 12.464844 13.996094 12.5 14 12.539062 14 12.574219 14 12.953125 14 13.3125 13.851562 13.582031 13.582031 13.878906 13.289062 14.027344 12.878906 13.996094 12.464844 13.960938 12.046875 13.75 11.667969 13.410156 11.421875L8.234375 7.675781C8.074219 7.558594 7.855469 7.578125 7.71875 7.71875 7.578125 7.855469 7.5625 8.074219 7.675781 8.234375zM12.941406 12.070312C13.089844 12.175781 13.183594 12.34375 13.199219 12.527344 13.210938 12.707031 13.144531 12.886719 13.015625 13.015625 12.886719 13.148438 12.710938 13.210938 12.527344 13.199219 12.34375 13.183594 12.175781 13.089844 12.070312 12.945312L9.785156 9.785156zM12.941406 12.070312"/>
    <path d="M 24 12 C 24 5.382812 18.617188 0 12 0 C 11.777344 0 11.601562 0.179688 11.601562 0.398438 L 11.601562 5.714844 C 11.601562 5.9375 11.777344 6.117188 12 6.117188 C 12.222656 6.117188 12.398438 5.9375 12.398438 5.714844 L 12.398438 0.808594 C 18.390625 1.019531 23.199219 5.957031 23.199219 12 C 23.199219 13.144531 23.027344 14.265625 22.6875 15.351562 C 22.65625 15.316406 22.621094 15.285156 22.589844 15.25 C 22.523438 15.179688 22.457031 15.109375 22.386719 15.042969 C 22.324219 14.984375 22.261719 14.925781 22.195312 14.871094 C 22.132812 14.816406 22.066406 14.761719 22 14.710938 C 21.925781 14.652344 21.851562 14.597656 21.777344 14.542969 C 21.710938 14.496094 21.644531 14.453125 21.578125 14.410156 C 21.496094 14.363281 21.417969 14.3125 21.335938 14.265625 C 21.265625 14.226562 21.191406 14.1875 21.117188 14.152344 C 21.035156 14.113281 20.957031 14.070312 20.871094 14.035156 C 20.789062 13.996094 20.707031 13.96875 20.621094 13.9375 C 20.542969 13.90625 20.464844 13.875 20.382812 13.847656 C 20.289062 13.816406 20.1875 13.792969 20.085938 13.769531 C 20.015625 13.75 19.945312 13.726562 19.875 13.714844 C 19.757812 13.6875 19.636719 13.671875 19.511719 13.65625 C 19.457031 13.648438 19.402344 13.636719 19.34375 13.628906 C 19.164062 13.609375 18.984375 13.601562 18.800781 13.601562 C 15.933594 13.601562 13.601562 15.933594 13.601562 18.800781 C 13.601562 18.984375 13.609375 19.164062 13.628906 19.34375 C 13.636719 19.402344 13.648438 19.457031 13.65625 19.515625 C 13.671875 19.636719 13.6875 19.757812 13.714844 19.875 C 13.726562 19.945312 13.75 20.019531 13.769531 20.089844 C 13.792969 20.1875 13.816406 20.289062 13.847656 20.382812 C 13.875 20.464844 13.90625 20.542969 13.9375 20.625 C 13.96875 20.707031 13.996094 20.789062 14.035156 20.871094 C 14.070312 20.957031 14.113281 21.039062 14.152344 21.121094 C 14.191406 21.191406 14.226562 21.265625 14.265625 21.335938 C 14.3125 21.417969 14.363281 21.5 14.414062 21.578125 C 14.457031 21.644531 14.496094 21.710938 14.542969 21.777344 C 14.597656 21.851562 14.652344 21.925781 14.710938 22 C 14.761719 22.066406 14.816406 22.128906 14.871094 22.191406 C 14.925781 22.257812 14.984375 22.324219 15.046875 22.386719 C 15.113281 22.457031 15.179688 22.523438 15.246094 22.585938 C 15.28125 22.621094 15.3125 22.65625 15.351562 22.6875 C 14.265625 23.027344 13.144531 23.199219 12 23.199219 C 5.824219 23.199219 0.800781 18.175781 0.800781 12 C 0.800781 9.015625 1.960938 6.207031 4.066406 4.09375 C 4.222656 3.9375 4.222656 3.683594 4.066406 3.527344 C 3.910156 3.371094 3.65625 3.371094 3.5 3.527344 C 1.242188 5.792969 0 8.804688 0 12 C 0 18.617188 5.382812 24 12 24 C 13.421875 24 14.8125 23.75 16.140625 23.261719 C 16.917969 23.726562 17.828125 24 18.800781 24 C 21.667969 24 24 21.667969 24 18.800781 C 24 17.828125 23.726562 16.917969 23.261719 16.140625 C 23.75 14.8125 24 13.421875 24 12 Z M 18.800781 23.199219 C 17.910156 23.199219 17.082031 22.933594 16.386719 22.476562 C 16.242188 22.378906 16.101562 22.277344 15.972656 22.164062 C 15.945312 22.144531 15.925781 22.121094 15.902344 22.101562 C 15.800781 22.015625 15.707031 21.921875 15.613281 21.828125 C 15.574219 21.785156 15.535156 21.742188 15.5 21.699219 C 15.425781 21.617188 15.359375 21.53125 15.292969 21.445312 C 15.257812 21.398438 15.21875 21.351562 15.1875 21.304688 C 15.105469 21.1875 15.027344 21.066406 14.957031 20.941406 C 14.941406 20.90625 14.921875 20.875 14.90625 20.839844 C 14.839844 20.714844 14.777344 20.585938 14.726562 20.453125 C 14.703125 20.402344 14.6875 20.347656 14.667969 20.296875 C 14.628906 20.191406 14.59375 20.085938 14.5625 19.976562 C 14.546875 19.921875 14.535156 19.863281 14.519531 19.808594 C 14.492188 19.691406 14.472656 19.578125 14.457031 19.460938 C 14.449219 19.410156 14.4375 19.359375 14.429688 19.308594 C 14.414062 19.140625 14.398438 18.972656 14.398438 18.800781 C 14.398438 16.375 16.375 14.398438 18.800781 14.398438 C 18.972656 14.398438 19.140625 14.414062 19.308594 14.433594 C 19.359375 14.4375 19.410156 14.449219 19.460938 14.457031 C 19.578125 14.472656 19.691406 14.496094 19.804688 14.519531 C 19.863281 14.535156 19.921875 14.550781 19.976562 14.566406 C 20.085938 14.59375 20.191406 14.628906 20.296875 14.667969 C 20.347656 14.6875 20.402344 14.703125 20.453125 14.726562 C 20.585938 14.78125 20.714844 14.839844 20.839844 14.90625 C 20.875 14.921875 20.90625 14.941406 20.941406 14.960938 C 21.066406 15.03125 21.1875 15.105469 21.304688 15.1875 C 21.351562 15.21875 21.398438 15.257812 21.445312 15.292969 C 21.53125 15.359375 21.617188 15.425781 21.699219 15.5 C 21.742188 15.539062 21.785156 15.578125 21.828125 15.617188 C 21.921875 15.707031 22.015625 15.800781 22.101562 15.902344 C 22.121094 15.925781 22.144531 15.949219 22.164062 15.972656 C 22.277344 16.105469 22.378906 16.242188 22.476562 16.386719 C 22.933594 17.082031 23.199219 17.910156 23.199219 18.800781 C 23.199219 21.226562 21.226562 23.199219 18.800781 23.199219 Z M 18.800781 23.199219"/>
</svg>
