<svg xmlns="http://www.w3.org/2000/svg" width="32" height="32" viewBox="0 0 24 24">
    <path d="M20.871 16.973l-2.238 3.215-1.578-1.297a.401.401 0 0 0-.563.054.398.398 0 0 0 .055.563l1.914 1.574c.07.059.16.09.254.09.015 0 .035 0 .055-.004a.394.394 0 0 0 .273-.168l2.484-3.57a.4.4 0 1 0-.656-.457zm0 0M11.422 13.414c.246.336.625.547 1.043.582.035.004.074.004.11.004.378 0 .738-.148 1.007-.418a1.418 1.418 0 0 0-.172-2.16L8.234 7.676a.393.393 0 0 0-.515.043.398.398 0 0 0-.043.515zm1.52-1.344a.625.625 0 0 1 .257.457.635.635 0 0 1-.672.672.633.633 0 0 1-.457-.254l-2.285-3.16zm0 0"/>
    <path d="M24 12c0-6.617-5.383-12-12-12a.398.398 0 0 0-.398.398v5.317a.398.398 0 1 0 .796 0V.809C18.391 1.019 23.2 5.957 23.2 12c0 1.145-.172 2.266-.512 3.352-.03-.036-.066-.067-.097-.102a5.077 5.077 0 0 0-.203-.207c-.063-.059-.125-.117-.192-.172a8.315 8.315 0 0 0-.418-.328c-.066-.047-.132-.09-.199-.133-.082-.047-.16-.098-.242-.144a3.843 3.843 0 0 0-.219-.114c-.082-.039-.16-.082-.246-.117-.082-.039-.164-.066-.25-.098-.078-.03-.156-.062-.238-.09-.094-.03-.195-.054-.297-.077-.07-.02-.14-.043-.211-.055a3.524 3.524 0 0 0-.363-.059c-.055-.008-.11-.02-.168-.027a5.205 5.205 0 0 0-5.715 5.715c.008.058.02.113.027.172.016.12.031.242.059.359.012.07.035.145.055.215.023.098.046.2.078.293.027.082.058.16.09.242.03.082.058.164.097.246.035.086.078.168.117.25.04.07.075.145.114.215.046.082.097.164.148.242.043.067.082.133.129.2.055.074.11.148.168.222.05.066.105.129.16.191a4.79 4.79 0 0 0 .375.395c.035.035.066.07.106.101-1.086.34-2.207.512-3.352.512C5.824 23.2.8 18.176.8 12c0-2.984 1.16-5.793 3.266-7.906a.4.4 0 0 0-.566-.567A11.93 11.93 0 0 0 0 12c0 6.617 5.383 12 12 12 1.422 0 2.813-.25 4.14-.738A5.172 5.172 0 0 0 18.8 24c2.868 0 5.2-2.332 5.2-5.2 0-.972-.273-1.882-.738-2.66.488-1.328.738-2.718.738-4.14zm-5.2 11.2a4.377 4.377 0 0 1-2.827-1.036c-.028-.02-.047-.043-.07-.062-.102-.086-.196-.18-.29-.274-.039-.043-.078-.086-.113-.129-.074-.082-.14-.168-.207-.254-.035-.047-.074-.093-.105-.14a4.385 4.385 0 0 1-.231-.364c-.016-.035-.035-.066-.05-.101a3.475 3.475 0 0 1-.18-.387c-.024-.05-.04-.105-.059-.156a4.388 4.388 0 0 1-.105-.32c-.016-.055-.028-.114-.043-.168a3.608 3.608 0 0 1-.063-.348c-.008-.05-.02-.102-.027-.152a5.451 5.451 0 0 1-.032-.508 4.41 4.41 0 0 1 4.403-4.403c.172 0 .34.016.508.036.05.004.101.015.152.023.117.016.23.04.344.063.058.015.117.03.172.046.109.028.214.063.32.102.05.02.105.035.156.059.133.054.262.113.387.18.035.015.066.034.101.054.125.07.247.144.364.226.047.032.093.07.14.106.086.066.172.133.254.207l.13.117c.093.09.187.184.273.285.02.024.043.047.062.07A4.377 4.377 0 0 1 23.2 18.8a4.403 4.403 0 0 1-4.398 4.4zm0 0"/>
</svg>
