<svg xmlns="http://www.w3.org/2000/svg" width="32" height="32" viewBox="0 0 24 24">
    <path d="M13.45 24h9.929v-9.93h-9.93zm.827-9.102H18v5.207l-1.777-1.777-.586.586 2.777 2.773 2.773-2.773-.582-.586-1.777 1.777v-5.207h3.723v8.274h-8.274zm0 0"/>
    <path d="M12 21.93c-.047 0-.098 0-.145-.004a10.504 10.504 0 0 1-6.418-2.293c.16-.149.333-.274.512-.367l3.793-1.625c.309-.153.492-.493.676-.856a.737.737 0 0 0-.66-1.063l-2.63.005c-.007 0-.905-.094-1.581-.383-.063-.028-.098-.063-.113-.114a.229.229 0 0 1 .043-.187c.91-1.32 2.449-3.941 2.503-6.691.004-.157.125-3.844 3.86-3.875 2.223.02 3.27 1.32 3.762 2.41.242.543.386 1.191.441 1.976.05.778.203 1.594.453 2.43a.414.414 0 0 0 .793-.234 10.362 10.362 0 0 1-.422-2.25c-.058-.887-.226-1.63-.512-2.262-.59-1.313-1.847-2.875-4.515-2.899-4.535.04-4.688 4.637-4.688 4.684-.05 2.535-1.496 4.996-2.355 6.238a1.04 1.04 0 0 0-.156.887c.082.29.293.523.578.648.793.34 1.789.442 1.87.446h2.52c-.07.137-.164.304-.214.336l-3.793 1.629a3.088 3.088 0 0 0-.79.578 10.53 10.53 0 0 1-3.363-7.715C1.45 5.563 6.184.829 12 .829s10.55 4.734 10.55 10.55a.414.414 0 0 0 .829 0C23.379 5.105 18.273 0 12 0S.621 5.105.621 11.379c0 3.3 1.414 6.277 3.664 8.355l-.027.043.289.25a11.368 11.368 0 0 0 6.11 2.649c.16.02.32.035.484.047.242.02.48.03.726.03.024 0 .051.005.074.005H12a.414.414 0 0 0 0-.828zm0 0"/>
</svg>
