<svg xmlns="http://www.w3.org/2000/svg" width="32" height="32" viewBox="0 0 24 24">
    <path d="M 23.570312 14.382812 L 22.355469 13.167969 C 21.859375 12.671875 21.050781 12.671875 20.554688 13.167969 L 13.988281 19.734375 L 13.085938 23.050781 L 12.863281 23.273438 C 12.699219 23.4375 12.699219 23.703125 12.859375 23.871094 L 12.859375 23.878906 L 12.867188 23.878906 C 12.949219 23.960938 13.058594 24 13.164062 24 C 13.273438 24 13.382812 23.957031 13.464844 23.875 L 13.6875 23.652344 L 17.003906 22.75 L 23.570312 16.183594 C 24.066406 15.6875 24.066406 14.878906 23.570312 14.382812 Z M 14.972656 19.953125 L 19.34375 15.585938 L 21.152344 17.394531 L 16.785156 21.765625 Z M 14.589844 20.777344 L 15.960938 22.148438 L 14.074219 22.664062 Z M 22.964844 15.582031 L 21.753906 16.792969 L 19.945312 14.984375 L 21.15625 13.773438 C 21.320312 13.609375 21.585938 13.609375 21.75 13.769531 L 22.96875 14.988281 C 23.128906 15.148438 23.128906 15.417969 22.964844 15.582031 Z M 22.964844 15.582031"/>
    <path d="M 7.644531 8.605469 C 7.644531 8.445312 7.773438 4.644531 11.621094 4.613281 C 13.910156 4.632812 14.992188 5.976562 15.5 7.097656 C 15.75 7.65625 15.898438 8.324219 15.953125 9.136719 C 16.003906 9.9375 16.164062 10.78125 16.421875 11.640625 C 16.492188 11.867188 16.726562 11.996094 16.953125 11.929688 C 17.179688 11.859375 17.308594 11.621094 17.238281 11.398438 C 17 10.59375 16.851562 9.816406 16.804688 9.082031 C 16.742188 8.164062 16.570312 7.402344 16.277344 6.746094 C 15.667969 5.398438 14.371094 3.785156 11.621094 3.761719 C 6.945312 3.800781 6.789062 8.539062 6.789062 8.589844 C 6.738281 11.199219 5.246094 13.738281 4.359375 15.019531 C 4.171875 15.292969 4.113281 15.628906 4.199219 15.933594 C 4.285156 16.230469 4.503906 16.472656 4.796875 16.597656 C 5.617188 16.949219 6.640625 17.054688 6.726562 17.0625 L 9.320312 17.0625 C 9.25 17.199219 9.152344 17.375 9.101562 17.40625 L 5.191406 19.085938 C 4.886719 19.238281 4.617188 19.441406 4.375 19.683594 C 2.214844 17.667969 0.910156 14.816406 0.910156 11.730469 C 0.910156 5.730469 5.789062 0.851562 11.785156 0.851562 C 17.785156 0.851562 22.664062 5.730469 22.664062 11.730469 C 22.664062 11.964844 22.855469 12.15625 23.089844 12.15625 C 23.324219 12.15625 23.515625 11.964844 23.515625 11.730469 C 23.515625 5.261719 18.253906 0 11.785156 0 C 5.320312 0 0.0585938 5.261719 0.0585938 11.730469 C 0.0585938 15.078125 1.480469 18.171875 3.835938 20.34375 L 3.804688 20.382812 L 4.105469 20.640625 C 5.265625 21.636719 6.585938 22.382812 8.027344 22.863281 C 8.070312 22.875 8.117188 22.882812 8.164062 22.882812 C 8.339844 22.882812 8.507812 22.769531 8.566406 22.589844 C 8.585938 22.53125 8.589844 22.472656 8.585938 22.414062 C 8.574219 22.246094 8.464844 22.089844 8.296875 22.035156 C 7.082031 21.621094 5.984375 21.007812 5.019531 20.238281 C 5.183594 20.082031 5.363281 19.953125 5.550781 19.859375 L 9.460938 18.179688 C 9.777344 18.023438 9.96875 17.675781 10.15625 17.300781 C 10.273438 17.066406 10.257812 16.792969 10.121094 16.566406 C 9.980469 16.34375 9.738281 16.207031 9.472656 16.207031 L 6.765625 16.210938 C 6.757812 16.207031 5.832031 16.113281 5.132812 15.816406 C 5.070312 15.789062 5.035156 15.75 5.019531 15.699219 C 5 15.640625 5.019531 15.570312 5.0625 15.503906 C 6.003906 14.144531 7.585938 11.441406 7.644531 8.605469 Z M 7.644531 8.605469"/>
</svg>
