<svg xmlns="http://www.w3.org/2000/svg" width="32" height="32" viewBox="0 0 24 24">
    <path d="M23.785 17.418c-.164-1.691-1.43-2.922-3.012-2.922-.992 0-1.824.602-2.351 1.332-.531-.73-1.363-1.332-2.356-1.332-1.582 0-2.847 1.227-3.011 2.922-.02.11-.059.504.093 1.121.227.91.747 1.738 1.504 2.39l3.45 2.954a.489.489 0 0 0 .636 0l3.453-2.953c.754-.653 1.274-1.48 1.5-2.39.153-.618.114-1.013.094-1.122zm-.898.922c-.184.742-.61 1.422-1.239 1.96l-3.226 2.762-3.23-2.761c-.626-.54-1.055-1.219-1.239-1.961-.125-.504-.082-.785-.082-.785l.008-.043c.101-1.086.887-2.188 2.187-2.188.907 0 1.645.75 1.977 1.496l.379.852.379-.852c.328-.746 1.066-1.496 1.972-1.496 1.305 0 2.086 1.102 2.196 2.223 0 .004.047.289-.082.793zm0 0"/>
    <path d="M11.586 21.953c-.262 0-.524-.012-.785-.031l-.133-.012a10.26 10.26 0 0 1-.785-.098c-.012 0-.024-.003-.035-.003a10.774 10.774 0 0 1-1.61-.403c-.015-.008-.035-.011-.05-.02a9.707 9.707 0 0 1-.77-.292c-.004 0-.004-.004-.008-.004a9.647 9.647 0 0 1-.703-.336l-.094-.047c-.21-.113-.418-.238-.62-.363-.063-.04-.122-.078-.18-.117a8.82 8.82 0 0 1-.555-.387c-.02-.012-.035-.027-.055-.043a.182.182 0 0 1 .04-.02l3.273-1.789a1.74 1.74 0 0 0 .914-1.539v-1.492l-.094-.113a6.867 6.867 0 0 1-1.242-2.574l-.04-.165-.14-.093a.687.687 0 0 1-.32-.575V9.97c0-.192.082-.371.23-.508l.137-.121V7.03l-.004-.054c0-.008-.121-1.004.578-1.805.602-.684 1.625-1.031 3.05-1.031 1.419 0 2.442.343 3.044 1.023.7.79.586 1.805.586 1.813L15.21 9.34l.137.12c.148.138.23.317.23.509v1.469a.694.694 0 0 1-.488.652.415.415 0 0 0 .242.793 1.51 1.51 0 0 0 1.074-1.445v-1.47c0-.359-.133-.706-.367-.98V7.055c.02-.215.098-1.43-.781-2.43-.762-.871-1.996-1.313-3.672-1.313-1.672 0-2.91.442-3.672 1.313-.879 1-.8 2.215-.781 2.43v1.933a1.51 1.51 0 0 0-.367.98v1.47c0 .457.203.882.554 1.167.336 1.317 1.028 2.31 1.282 2.649v1.195c0 .34-.184.649-.48.813l-3.274 1.785a3 3 0 0 0-.313.2 10.53 10.53 0 0 1-3.512-7.856C1.023 5.566 5.762.828 11.586.828c5.824 0 10.562 4.738 10.562 10.563 0 .23.184.414.415.414.23 0 .414-.184.414-.414C22.977 5.109 17.867 0 11.586 0S.196 5.11.196 11.39c0 3.317 1.425 6.31 3.699 8.391l-.012.008.367.313c.023.02.05.039.074.058a13.934 13.934 0 0 0 .813.61c.218.152.445.296.68.433.05.031.101.059.152.09.254.145.511.281.777.406l.059.024c.867.402 1.789.699 2.754.875l.078.011c.3.051.601.094.91.121.035.004.074.004.11.008.308.028.616.043.929.043.23 0 .414-.183.414-.414a.412.412 0 0 0-.414-.414zm0 0"/>
</svg>
