<svg xmlns="http://www.w3.org/2000/svg" width="32" height="32" viewBox="0 0 24 24">
    <path d="M23.457 17.738l-.598-.117a.805.805 0 0 1-.605-.504.795.795 0 0 1 .101-.777l.375-.512a.416.416 0 0 0-.039-.539l-.812-.809a.414.414 0 0 0-.524-.05l-.503.34a.807.807 0 0 1-.786.074.803.803 0 0 1-.48-.625l-.094-.625a.415.415 0 0 0-.41-.352h-1.145c-.199 0-.37.14-.406.336l-.148.77a.815.815 0 0 1-1.262.523l-.648-.441a.414.414 0 0 0-.524.05l-.812.81a.416.416 0 0 0-.04.538l.376.512c.168.23.203.512.101.777a.796.796 0 0 1-.605.504l-.598.117a.411.411 0 0 0-.336.407v1.144c0 .203.149.379.352.41l.625.094a.81.81 0 0 1 .625.48.807.807 0 0 1-.075.786l-.34.503a.41.41 0 0 0 .051.524l.809.812c.145.145.371.16.54.04l.51-.375a.796.796 0 0 1 .778-.102c.27.105.45.328.504.605l.117.598a.411.411 0 0 0 .407.336h1.144a.415.415 0 0 0 .41-.352l.067-.441a.807.807 0 0 1 .496-.629.804.804 0 0 1 .793.098l.359.262a.416.416 0 0 0 .54-.04l.808-.812c.14-.14.16-.36.05-.523l-.34-.504a.807.807 0 0 1-.074-.786.797.797 0 0 1 .625-.48l.625-.094a.415.415 0 0 0 .352-.41v-1.144c0-.2-.14-.372-.336-.407zm-.492 1.196l-.274.043a1.635 1.635 0 0 0-1.257.968c-.227.52-.172 1.11.144 1.578l.149.22-.317.32-.074-.055a1.636 1.636 0 0 0-1.602-.195 1.63 1.63 0 0 0-.992 1.269l-.015.09h-.45l-.05-.262a1.647 1.647 0 0 0-2.586-1.016l-.223.169-.32-.32.152-.22a1.637 1.637 0 0 0 .145-1.578 1.635 1.635 0 0 0-1.258-.968l-.274-.043v-.45l.262-.05a1.647 1.647 0 0 0 1.016-2.586l-.168-.223.32-.32.367.25a1.638 1.638 0 0 0 2.535-1.051l.082-.434h.45l.043.274c.085.562.449 1.031.968 1.258.52.226 1.11.171 1.578-.145l.22-.152.32.32-.169.223a1.647 1.647 0 0 0 1.016 2.586l.262.05zm0 0"/>
    <path d="M18.414 16.55c-1.14 0-2.07.93-2.07 2.071 0 1.14.93 2.07 2.07 2.07 1.14 0 2.07-.93 2.07-2.07 0-1.14-.93-2.07-2.07-2.07zm0 3.313a1.245 1.245 0 0 1-1.242-1.242c0-.683.558-1.242 1.242-1.242.684 0 1.242.558 1.242 1.242 0 .684-.558 1.242-1.242 1.242zm0 0"/>
    <path d="M11.586 21.93c-.262 0-.524-.012-.785-.032l-.133-.011a8.7 8.7 0 0 1-.781-.094c-.012-.004-.024-.004-.035-.008a10.317 10.317 0 0 1-1.61-.402 13.005 13.005 0 0 1-.82-.309c-.004-.004-.004-.004-.008-.004a9.692 9.692 0 0 1-.703-.34c-.031-.015-.063-.027-.09-.046-.21-.11-.418-.235-.625-.36a7.189 7.189 0 0 0-.18-.117 8.74 8.74 0 0 1-.609-.43c.016-.007.027-.015.043-.02l3.27-1.784c.562-.309.914-.899.914-1.54v-1.488l-.098-.117a6.925 6.925 0 0 1-1.242-2.57l-.035-.164L7.918 12a.687.687 0 0 1-.32-.574V9.957c0-.191.082-.371.23-.504l.137-.125V7.023L7.96 6.97c0-.008-.121-1.004.578-1.801.598-.684 1.625-1.031 3.047-1.031 1.418 0 2.441.343 3.039 1.023.7.79.586 1.805.586 1.813l-.004 2.359.137.121c.148.133.23.313.23.508v1.465a.69.69 0 0 1-.488.652.413.413 0 0 0 .242.79 1.501 1.501 0 0 0 1.074-1.442V9.96c0-.36-.132-.707-.367-.98V7.046c.02-.215.098-1.426-.781-2.426-.762-.871-1.996-1.312-3.668-1.312-1.672 0-2.906.441-3.668 1.312-.879 1-.8 2.211-.781 2.426V8.98a1.51 1.51 0 0 0-.367.98v1.466c0 .457.207.879.554 1.168.336 1.312 1.028 2.304 1.281 2.644v1.196c0 .34-.183.648-.48.812l-3.273 1.785a2.696 2.696 0 0 0-.309.196 10.524 10.524 0 0 1-3.508-7.848c0-5.816 4.735-10.55 10.55-10.55 5.821 0 10.552 4.734 10.552 10.55a.414.414 0 0 0 .828 0C22.965 5.105 17.859 0 11.585 0 5.313 0 .208 5.105.208 11.379c0 3.316 1.426 6.3 3.695 8.383l-.011.008.367.312c.023.02.05.04.074.059.195.16.398.316.606.464l.203.145c.222.152.449.297.68.434a11.282 11.282 0 0 0 .93.492 11.32 11.32 0 0 0 2.813.898l.073.012c.3.055.601.094.91.121l.113.012c.305.023.613.039.926.039a.414.414 0 0 0 0-.828zm0 0"/>
</svg>
