<svg xmlns="http://www.w3.org/2000/svg" width="32" height="32" viewBox="0 0 24 24">
    <path d="M 21.664062 14.066406 C 21.882812 13.191406 22 12.296875 22 11.398438 C 22 5.335938 17.066406 0.398438 11 0.398438 C 4.933594 0.398438 0 5.335938 0 11.398438 C 0 14.589844 1.367188 17.46875 3.542969 19.476562 L 3.515625 19.515625 L 3.796875 19.757812 C 5.359375 21.09375 7.257812 21.953125 9.269531 22.261719 C 9.410156 22.285156 9.554688 22.304688 9.699219 22.320312 C 9.855469 22.339844 10.011719 22.355469 10.171875 22.367188 C 10.402344 22.382812 10.636719 22.394531 10.871094 22.398438 C 10.894531 22.398438 10.917969 22.398438 10.945312 22.398438 C 10.953125 22.398438 10.964844 22.398438 10.972656 22.398438 C 10.980469 22.398438 10.992188 22.398438 11 22.398438 C 12.304688 22.398438 13.582031 22.167969 14.800781 21.71875 C 15.753906 22.867188 17.195312 23.601562 18.800781 23.601562 C 21.667969 23.601562 24 21.265625 24 18.398438 C 24 16.589844 23.070312 14.996094 21.664062 14.066406 Z M 0.800781 11.398438 C 0.800781 5.777344 5.375 1.199219 11 1.199219 C 16.625 1.199219 21.199219 5.777344 21.199219 11.398438 C 21.199219 12.160156 21.113281 12.921875 20.945312 13.667969 C 20.9375 13.664062 20.929688 13.660156 20.921875 13.65625 C 20.773438 13.589844 20.617188 13.53125 20.460938 13.476562 C 20.445312 13.472656 20.433594 13.464844 20.421875 13.460938 C 20.257812 13.40625 20.089844 13.363281 19.917969 13.324219 C 19.910156 13.320312 19.902344 13.320312 19.894531 13.316406 C 19.726562 13.28125 19.558594 13.253906 19.386719 13.234375 C 19.371094 13.234375 19.359375 13.230469 19.347656 13.230469 C 19.167969 13.210938 18.984375 13.199219 18.800781 13.199219 C 18.203125 13.199219 17.632812 13.304688 17.101562 13.492188 C 16.28125 11.894531 15.796875 10.320312 15.707031 8.917969 C 15.648438 8.058594 15.488281 7.339844 15.210938 6.726562 C 14.640625 5.460938 13.421875 3.949219 10.847656 3.925781 C 6.460938 3.964844 6.3125 8.410156 6.3125 8.457031 C 6.261719 11.042969 4.660156 13.597656 3.972656 14.574219 C 3.785156 14.839844 3.726562 15.101562 3.796875 15.34375 C 3.871094 15.609375 4.082031 15.8125 4.445312 15.96875 C 5.210938 16.296875 6.175781 16.394531 6.253906 16.398438 L 8.6875 16.398438 C 8.621094 16.53125 8.527344 16.695312 8.480469 16.726562 L 4.816406 18.296875 C 4.53125 18.441406 4.277344 18.628906 4.050781 18.855469 C 2.054688 16.992188 0.800781 14.339844 0.800781 11.398438 Z M 15.824219 14.140625 C 15.792969 14.164062 15.765625 14.1875 15.734375 14.207031 C 15.59375 14.3125 15.460938 14.421875 15.332031 14.539062 C 15.300781 14.5625 15.273438 14.589844 15.242188 14.617188 C 14.9375 14.90625 14.664062 15.226562 14.433594 15.582031 C 14.429688 15.589844 14.425781 15.59375 14.421875 15.597656 L 13.308594 15.597656 C 13.023438 15.597656 12.777344 15.78125 12.679688 16.058594 C 12.582031 16.339844 12.667969 16.648438 12.894531 16.824219 C 13.179688 17.050781 13.292969 17.117188 13.335938 17.140625 L 13.703125 17.363281 C 13.636719 17.699219 13.601562 18.046875 13.601562 18.398438 C 13.601562 18.515625 13.605469 18.632812 13.613281 18.746094 C 13.613281 18.789062 13.621094 18.832031 13.625 18.871094 C 13.628906 18.910156 13.632812 18.945312 13.636719 18.984375 C 13.640625 19.019531 13.640625 19.054688 13.644531 19.09375 C 13.652344 19.144531 13.664062 19.199219 13.671875 19.253906 C 13.683594 19.3125 13.691406 19.371094 13.703125 19.429688 C 13.703125 19.433594 13.703125 19.4375 13.703125 19.441406 C 13.707031 19.453125 13.710938 19.464844 13.714844 19.476562 C 13.722656 19.515625 13.730469 19.554688 13.742188 19.589844 C 13.753906 19.648438 13.765625 19.707031 13.78125 19.765625 C 13.792969 19.804688 13.804688 19.839844 13.816406 19.875 C 13.828125 19.917969 13.84375 19.964844 13.855469 20.007812 C 13.867188 20.035156 13.875 20.066406 13.882812 20.09375 C 13.902344 20.144531 13.921875 20.191406 13.941406 20.238281 C 13.957031 20.28125 13.972656 20.324219 13.988281 20.367188 C 14.011719 20.417969 14.03125 20.46875 14.054688 20.519531 C 14.0625 20.53125 14.066406 20.539062 14.070312 20.550781 C 14.097656 20.609375 14.125 20.671875 14.152344 20.726562 C 14.164062 20.75 14.175781 20.769531 14.1875 20.789062 C 14.21875 20.847656 14.25 20.910156 14.285156 20.96875 C 14.292969 20.984375 14.304688 21.003906 14.3125 21.019531 C 13.226562 21.402344 12.105469 21.597656 10.964844 21.597656 C 10.929688 21.597656 10.894531 21.597656 10.859375 21.597656 C 10.667969 21.59375 10.476562 21.585938 10.285156 21.574219 C 8.167969 21.425781 6.226562 20.628906 4.65625 19.378906 C 4.808594 19.234375 4.976562 19.113281 5.152344 19.023438 L 8.820312 17.449219 C 9.113281 17.304688 9.292969 16.976562 9.46875 16.625 C 9.578125 16.40625 9.566406 16.148438 9.4375 15.9375 C 9.304688 15.726562 9.078125 15.601562 8.832031 15.601562 L 6.292969 15.601562 C 6.285156 15.601562 5.414062 15.511719 4.761719 15.230469 C 4.636719 15.179688 4.585938 15.136719 4.570312 15.136719 C 4.578125 15.121094 4.589844 15.085938 4.628906 15.035156 C 5.53125 13.746094 7.0625 11.179688 7.113281 8.472656 C 7.117188 8.320312 7.234375 4.757812 10.847656 4.726562 C 12.992188 4.746094 14.007812 6.003906 14.480469 7.054688 C 14.71875 7.582031 14.855469 8.207031 14.90625 8.96875 C 15.003906 10.46875 15.507812 12.132812 16.359375 13.808594 C 16.355469 13.8125 16.351562 13.816406 16.347656 13.816406 C 16.167969 13.914062 15.992188 14.023438 15.824219 14.140625 Z M 13.9375 16.570312 L 13.734375 16.449219 C 13.730469 16.445312 13.707031 16.433594 13.660156 16.398438 L 14 16.398438 C 13.976562 16.457031 13.960938 16.515625 13.9375 16.570312 Z M 18.800781 22.800781 C 17.335938 22.800781 16.039062 22.078125 15.238281 20.972656 C 15.207031 20.933594 15.179688 20.886719 15.152344 20.84375 C 15.125 20.804688 15.097656 20.769531 15.074219 20.730469 C 15.058594 20.707031 15.042969 20.679688 15.03125 20.65625 C 15.007812 20.617188 14.984375 20.578125 14.964844 20.539062 C 14.941406 20.496094 14.914062 20.457031 14.890625 20.414062 C 14.875 20.378906 14.859375 20.34375 14.84375 20.308594 C 14.828125 20.28125 14.816406 20.253906 14.804688 20.226562 C 14.78125 20.179688 14.757812 20.132812 14.738281 20.085938 C 14.722656 20.054688 14.714844 20.019531 14.699219 19.988281 C 14.671875 19.90625 14.640625 19.828125 14.613281 19.746094 C 14.597656 19.695312 14.582031 19.644531 14.570312 19.597656 C 14.546875 19.515625 14.527344 19.4375 14.507812 19.355469 C 14.496094 19.3125 14.488281 19.269531 14.480469 19.226562 C 14.480469 19.21875 14.476562 19.210938 14.476562 19.207031 C 14.460938 19.117188 14.445312 19.027344 14.4375 18.9375 C 14.433594 18.910156 14.429688 18.882812 14.425781 18.859375 C 14.425781 18.839844 14.421875 18.824219 14.421875 18.804688 C 14.410156 18.671875 14.398438 18.539062 14.398438 18.398438 C 14.398438 18.222656 14.414062 18.042969 14.4375 17.859375 C 14.4375 17.84375 14.441406 17.828125 14.445312 17.8125 C 14.46875 17.636719 14.503906 17.460938 14.550781 17.285156 C 14.554688 17.261719 14.558594 17.242188 14.566406 17.222656 L 14.601562 17.085938 C 14.683594 16.820312 14.792969 16.5625 14.925781 16.320312 L 14.964844 16.253906 C 14.984375 16.214844 15.007812 16.179688 15.03125 16.140625 C 15.191406 15.878906 15.375 15.628906 15.585938 15.40625 C 15.605469 15.386719 15.621094 15.367188 15.640625 15.347656 C 15.695312 15.285156 15.757812 15.230469 15.820312 15.171875 C 15.855469 15.140625 15.890625 15.109375 15.925781 15.078125 C 15.980469 15.027344 16.039062 14.980469 16.097656 14.9375 C 16.144531 14.898438 16.191406 14.863281 16.242188 14.828125 C 16.292969 14.789062 16.347656 14.753906 16.402344 14.71875 C 16.46875 14.671875 16.535156 14.632812 16.605469 14.59375 C 16.648438 14.570312 16.6875 14.542969 16.726562 14.519531 C 16.84375 14.457031 16.964844 14.398438 17.085938 14.347656 L 17.09375 14.34375 C 17.617188 14.125 18.195312 14 18.800781 14 C 18.976562 14 19.15625 14.011719 19.332031 14.035156 C 19.375 14.039062 19.414062 14.046875 19.453125 14.054688 C 19.597656 14.074219 19.742188 14.105469 19.886719 14.140625 C 19.917969 14.148438 19.945312 14.15625 19.976562 14.164062 C 20.328125 14.261719 20.671875 14.40625 20.992188 14.589844 C 22.308594 15.351562 23.199219 16.773438 23.199219 18.398438 C 23.199219 20.824219 21.226562 22.800781 18.800781 22.800781 Z M 18.800781 22.800781"/>
    <path d="M 21.199219 18 L 19.199219 18 L 19.199219 16 C 19.199219 15.777344 19.019531 15.601562 18.800781 15.601562 C 18.578125 15.601562 18.398438 15.777344 18.398438 16 L 18.398438 18 L 16.398438 18 C 16.179688 18 16 18.179688 16 18.398438 C 16 18.621094 16.179688 18.800781 16.398438 18.800781 L 18.398438 18.800781 L 18.398438 20.800781 C 18.398438 21.019531 18.578125 21.199219 18.800781 21.199219 C 19.019531 21.199219 19.199219 21.019531 19.199219 20.800781 L 19.199219 18.800781 L 21.199219 18.800781 C 21.421875 18.800781 21.601562 18.621094 21.601562 18.398438 C 21.601562 18.179688 21.421875 18 21.199219 18 Z M 21.199219 18"/>
</svg>
