<svg xmlns="http://www.w3.org/2000/svg" width="32" height="32" viewBox="0 0 24 24">
    <path d="M 23.980469 17.734375 C 23.933594 17.585938 23.804688 17.476562 23.648438 17.457031 L 20.484375 17.011719 L 19.074219 14.253906 C 18.933594 13.984375 18.488281 13.984375 18.351562 14.253906 L 16.9375 17.011719 L 13.773438 17.457031 C 13.621094 17.476562 13.492188 17.585938 13.441406 17.734375 C 13.394531 17.886719 13.4375 18.046875 13.550781 18.15625 L 15.832031 20.296875 L 15.292969 23.320312 C 15.269531 23.46875 15.328125 23.625 15.453125 23.714844 C 15.578125 23.808594 15.742188 23.824219 15.878906 23.753906 L 18.710938 22.316406 L 21.542969 23.753906 C 21.601562 23.78125 21.664062 23.796875 21.730469 23.796875 C 21.8125 23.796875 21.898438 23.769531 21.972656 23.714844 C 22.09375 23.625 22.15625 23.46875 22.128906 23.316406 L 21.59375 20.296875 L 23.871094 18.15625 C 23.984375 18.046875 24.027344 17.886719 23.980469 17.734375 Z M 20.875 19.855469 C 20.773438 19.949219 20.726562 20.085938 20.75 20.222656 L 21.183594 22.65625 L 18.894531 21.496094 C 18.835938 21.46875 18.773438 21.453125 18.710938 21.453125 C 18.648438 21.453125 18.585938 21.46875 18.527344 21.496094 L 16.238281 22.65625 L 16.671875 20.222656 C 16.695312 20.085938 16.648438 19.949219 16.550781 19.855469 L 14.726562 18.144531 L 17.257812 17.789062 C 17.390625 17.769531 17.503906 17.691406 17.566406 17.570312 L 18.710938 15.332031 L 19.859375 17.570312 C 19.917969 17.691406 20.03125 17.769531 20.164062 17.789062 L 22.695312 18.144531 Z M 20.875 19.855469"/>
    <path d="M 11.1875 21.761719 C 10.929688 21.761719 10.671875 21.75 10.414062 21.730469 C 10.371094 21.726562 10.328125 21.722656 10.28125 21.71875 C 10.023438 21.699219 9.769531 21.667969 9.515625 21.625 C 9.503906 21.625 9.492188 21.621094 9.480469 21.621094 C 8.941406 21.53125 8.414062 21.398438 7.898438 21.222656 C 7.882812 21.21875 7.867188 21.214844 7.851562 21.207031 C 7.59375 21.121094 7.339844 21.023438 7.09375 20.917969 C 7.089844 20.917969 7.089844 20.917969 7.085938 20.914062 C 6.851562 20.816406 6.621094 20.703125 6.394531 20.582031 C 6.363281 20.570312 6.332031 20.554688 6.304688 20.539062 C 6.097656 20.425781 5.894531 20.308594 5.691406 20.179688 C 5.632812 20.144531 5.574219 20.105469 5.515625 20.066406 C 5.332031 19.945312 5.148438 19.820312 4.972656 19.6875 C 4.953125 19.675781 4.933594 19.660156 4.917969 19.644531 C 4.929688 19.640625 4.941406 19.632812 4.957031 19.625 L 8.171875 17.871094 C 8.726562 17.566406 9.070312 16.988281 9.070312 16.359375 L 9.070312 14.894531 L 8.976562 14.78125 C 8.964844 14.769531 8.085938 13.699219 7.753906 12.253906 L 7.71875 12.089844 L 7.578125 12 C 7.382812 11.875 7.265625 11.664062 7.265625 11.433594 L 7.265625 9.992188 C 7.265625 9.804688 7.347656 9.628906 7.492188 9.496094 L 7.628906 9.375 L 7.628906 7.109375 L 7.625 7.054688 C 7.621094 7.046875 7.503906 6.066406 8.191406 5.28125 C 8.78125 4.609375 9.789062 4.269531 11.1875 4.269531 C 12.578125 4.269531 13.585938 4.609375 14.175781 5.273438 C 14.863281 6.050781 14.75 7.046875 14.75 7.054688 L 14.746094 9.375 L 14.878906 9.496094 C 15.027344 9.628906 15.105469 9.804688 15.105469 9.992188 L 15.105469 11.433594 C 15.105469 11.726562 14.910156 11.988281 14.625 12.074219 C 14.410156 12.140625 14.292969 12.371094 14.359375 12.585938 C 14.421875 12.800781 14.652344 12.917969 14.867188 12.851562 C 15.496094 12.660156 15.921875 12.089844 15.921875 11.433594 L 15.921875 9.992188 C 15.921875 9.640625 15.789062 9.296875 15.558594 9.03125 L 15.558594 7.132812 C 15.582031 6.917969 15.65625 5.730469 14.792969 4.746094 C 14.042969 3.890625 12.832031 3.457031 11.1875 3.457031 C 9.542969 3.457031 8.328125 3.890625 7.578125 4.746094 C 6.71875 5.730469 6.792969 6.921875 6.8125 7.132812 L 6.8125 9.03125 C 6.582031 9.296875 6.453125 9.640625 6.453125 9.992188 L 6.453125 11.433594 C 6.453125 11.882812 6.652344 12.300781 6.996094 12.582031 C 7.328125 13.875 8.003906 14.851562 8.257812 15.183594 L 8.257812 16.359375 C 8.257812 16.691406 8.074219 16.996094 7.785156 17.15625 L 4.566406 18.910156 C 4.464844 18.964844 4.363281 19.03125 4.261719 19.105469 C 2.144531 17.203125 0.8125 14.449219 0.8125 11.390625 C 0.8125 5.667969 5.464844 1.015625 11.1875 1.015625 C 16.90625 1.015625 21.558594 5.671875 21.558594 11.390625 C 21.558594 11.613281 21.742188 11.796875 21.964844 11.796875 C 22.191406 11.796875 22.371094 11.613281 22.371094 11.390625 C 22.371094 5.222656 17.355469 0.203125 11.1875 0.203125 C 5.019531 0.203125 0 5.222656 0 11.390625 C 0 14.648438 1.402344 17.582031 3.632812 19.628906 L 3.621094 19.640625 L 3.984375 19.945312 C 4.007812 19.964844 4.03125 19.980469 4.054688 20 C 4.25 20.160156 4.449219 20.3125 4.652344 20.460938 C 4.71875 20.507812 4.785156 20.554688 4.851562 20.601562 C 5.066406 20.75 5.289062 20.894531 5.519531 21.027344 C 5.570312 21.054688 5.617188 21.085938 5.667969 21.113281 C 5.917969 21.253906 6.171875 21.390625 6.433594 21.511719 C 6.453125 21.519531 6.472656 21.527344 6.492188 21.539062 C 7.339844 21.933594 8.246094 22.222656 9.195312 22.394531 C 9.222656 22.398438 9.246094 22.402344 9.269531 22.40625 C 9.566406 22.457031 9.863281 22.5 10.164062 22.527344 C 10.203125 22.53125 10.238281 22.53125 10.273438 22.535156 C 10.578125 22.558594 10.878906 22.574219 11.1875 22.574219 C 11.414062 22.574219 11.59375 22.394531 11.59375 22.167969 C 11.59375 21.945312 11.410156 21.761719 11.1875 21.761719 Z M 11.1875 21.761719"/>
</svg>
