<svg xmlns="http://www.w3.org/2000/svg" width="32" height="32" viewBox="0 0 24 24">
    <path d="M19.117 13.832a4.883 4.883 0 0 0-4.879 4.879 4.886 4.886 0 0 0 4.88 4.883A4.89 4.89 0 0 0 24 18.71a4.886 4.886 0 0 0-4.883-4.879zm0 8.95a4.074 4.074 0 0 1-4.066-4.071 4.071 4.071 0 0 1 4.066-4.066 4.072 4.072 0 0 1 4.07 4.066 4.075 4.075 0 0 1-4.07 4.07zm0 0"/>
    <path d="M21.559 18.305h-2.032V16.27a.408.408 0 0 0-.816 0v2.44c0 .227.184.407.406.407h2.442a.406.406 0 1 0 0-.813zm0 0M12.488 13.129a7.667 7.667 0 0 1-.773-1.238l-.016-.04c-.004-.003-.004-.007-.008-.011-.043-.086-.086-.184-.132-.281l-.02-.043-.066-.16-.024-.06c-.023-.054-.043-.108-.066-.171a4.436 4.436 0 0 1-.117-.344l-.032-.097a5.584 5.584 0 0 1-.105-.387v-.008l-.008-.031-.027-.13-.14-.089a.813.813 0 0 1-.376-.684V7.73c0-.23.094-.44.27-.601l.136-.121V4.332l-.011-.012c-.016-.293.004-1.191.66-1.941.672-.77 1.824-1.16 3.418-1.16 1.59 0 2.738.386 3.41 1.152.793.895.664 2.04.66 2.05l-.004 2.587.137.12c.176.161.273.372.273.602v1.625a.81.81 0 0 1-.582.774.407.407 0 0 0 .242.777 1.623 1.623 0 0 0 1.153-1.55V7.73c0-.394-.149-.773-.406-1.07V4.496c.023-.223.109-1.555-.852-2.652C18.246.89 16.891.406 15.051.406c-1.84 0-3.196.485-4.031 1.438-.582.664-.778 1.414-.84 1.953-.696-.36-1.52-.543-2.45-.543-4.226 0-4.472 3.601-4.476 3.66v1.863c-.262.29-.406.621-.406.95v1.402c0 .441.195.851.53 1.125.337 1.266 1.165 2.223 1.485 2.559v1.117a.887.887 0 0 1-.476.777l-2.707 1.7A3.219 3.219 0 0 0 0 21.233v1.547h10.984a.408.408 0 0 0 0-.816H6.508v-.91c0-1.043.57-2.008 1.488-2.508l3.629-1.977c.61-.332.984-.968.984-1.66v-1.633l-.093-.113c0-.004-.012-.016-.028-.035zm-.691 1.781c0 .395-.215.754-.559.945l-1.078.586-.265.145-2.29 1.246a3.668 3.668 0 0 0-1.91 3.223v.91H.812v-.73a2.43 2.43 0 0 1 1.278-2.13l2.707-1.695c.543-.297.879-.863.879-1.48v-1.461l-.13-.121c-.01-.012-1.093-1.04-1.41-2.422l-.038-.164-.137-.09a.647.647 0 0 1-.3-.543V9.727c0-.149.1-.32.273-.477l.132-.121V6.938c.008-.118.22-2.872 3.664-2.872.973 0 1.793.227 2.438.672V6.66a1.636 1.636 0 0 0-.406 1.07v1.625c0 .293.086.567.23.813.098.168.223.324.38.453.003.012.007.02.007.031.023.09.05.176.074.262l.035.113c.008.02.012.04.02.059.015.043.027.086.043.125.023.07.05.144.078.226.012.032.027.06.039.09l.105.262c.008.016.012.031.02.05l.023.056.036.07c.039.082.078.164.113.242l.023.047.032.059c.007.015.015.027.023.042.066.125.129.247.195.356l.024.047c.07.117.136.226.199.324.004.004.008.008.012.016.132.207.25.367.324.468zm0 0"/>
</svg>
