<svg xmlns="http://www.w3.org/2000/svg" width="32" height="32" viewBox="0 0 24 24">
    <path d="M23.98 17.734a.4.4 0 0 0-.332-.277l-3.164-.445-1.41-2.758c-.14-.27-.586-.27-.722 0l-1.415 2.758-3.164.445a.411.411 0 0 0-.332.277.413.413 0 0 0 .11.422l2.281 2.14-.539 3.024a.409.409 0 0 0 .16.395c.125.094.29.11.426.039l2.832-1.438 2.832 1.438a.411.411 0 0 0 .43-.04.41.41 0 0 0 .156-.398l-.535-3.02 2.277-2.14a.413.413 0 0 0 .11-.422zm-3.105 2.121a.404.404 0 0 0-.125.368l.434 2.433-2.29-1.16a.436.436 0 0 0-.183-.043.436.436 0 0 0-.184.043l-2.289 1.16.434-2.433a.412.412 0 0 0-.121-.368l-1.824-1.71 2.53-.356a.41.41 0 0 0 .31-.219l1.144-2.238 1.148 2.238c.059.121.172.2.305.22l2.531.355zm0 0"/>
    <path d="M11.188 21.762a10.238 10.238 0 0 1-.907-.043 8.359 8.359 0 0 1-.765-.094c-.012 0-.024-.004-.036-.004a9.978 9.978 0 0 1-1.628-.414 9.782 9.782 0 0 1-.758-.289c-.004 0-.004 0-.008-.004a8.005 8.005 0 0 1-.691-.332.635.635 0 0 1-.09-.043 10.9 10.9 0 0 1-1.332-.852.295.295 0 0 1-.055-.042c.012-.004.023-.012.039-.02l3.215-1.754c.555-.305.898-.883.898-1.512v-1.464l-.093-.114a6.764 6.764 0 0 1-1.223-2.527l-.035-.164-.14-.09a.67.67 0 0 1-.313-.566V9.992c0-.187.082-.363.226-.496l.137-.121V7.109l-.004-.054c-.004-.008-.121-.989.566-1.774.59-.672 1.598-1.011 2.996-1.011 1.391 0 2.399.34 2.989 1.003.687.778.574 1.774.574 1.782l-.004 2.32.133.121a.658.658 0 0 1 .226.496v1.442a.673.673 0 0 1-.48.64.408.408 0 0 0-.266.512.402.402 0 0 0 .508.266 1.478 1.478 0 0 0 1.055-1.418V9.992c0-.351-.133-.695-.363-.96v-1.9c.023-.214.097-1.402-.766-2.386-.75-.855-1.961-1.289-3.605-1.289-1.645 0-2.86.434-3.61 1.29-.86.983-.785 2.175-.766 2.386V9.03c-.23.266-.359.61-.359.961v1.442c0 .449.2.867.543 1.148a7.623 7.623 0 0 0 1.262 2.602v1.175a.914.914 0 0 1-.473.797L4.566 18.91a2.657 2.657 0 0 0-.304.195 10.348 10.348 0 0 1-3.45-7.714c0-5.723 4.653-10.375 10.376-10.375 5.718 0 10.37 4.656 10.37 10.375a.406.406 0 1 0 .813 0c0-6.168-5.016-11.188-11.183-11.188C5.02.203 0 5.223 0 11.391c0 3.257 1.402 6.191 3.633 8.238l-.012.012.363.304c.024.02.047.035.07.055.196.16.395.313.598.46l.2.142c.214.148.437.293.668.425.05.028.097.059.148.086a10.926 10.926 0 0 0 .824.426 11.075 11.075 0 0 0 3.672.988c.04.004.074.004.11.008.304.024.605.04.914.04.226 0 .406-.18.406-.407a.408.408 0 0 0-.406-.406zm0 0"/>
</svg>
