<svg xmlns="http://www.w3.org/2000/svg" width="32" height="32" viewBox="0 0 24 24">
    <path d="M23.875 21.176l-2.86-2.863 2.731-1.364-7.43-2.734 2.739 7.426 1.363-2.73 2.863 2.859a.417.417 0 0 0 .594 0 .413.413 0 0 0 0-.594zm-6.137-5.543l3.887 1.433-1.637.817-.816 1.64zm0 0"/>
    <path d="M12.04 2.46c.698-.792 1.89-1.198 3.538-1.198 1.645 0 2.832.402 3.531 1.191.82.926.684 2.113.684 2.125l-.004 2.676.14.125a.84.84 0 0 1 .282.621v1.684a.84.84 0 0 1-.598.8.424.424 0 0 0-.281.528c.07.218.305.347.527.277a1.677 1.677 0 0 0 1.192-1.605V8c0-.406-.149-.797-.418-1.105V4.656c.023-.234.113-1.61-.883-2.75C18.887.922 17.484.422 15.578.422c-1.902 0-3.305.5-4.172 1.484a3.694 3.694 0 0 0-.867 2.024C9.816 3.559 8.965 3.367 8 3.367c-4.375 0-4.629 3.73-4.633 3.79v1.929c-.273.297-.418.64-.418.98v1.454c0 .457.203.878.551 1.164.348 1.312 1.2 2.3 1.535 2.648v1.156a.92.92 0 0 1-.496.805l-2.8 1.758A3.34 3.34 0 0 0 0 21.98v1.597h14.738a.42.42 0 0 0 0-.84h-8v-.945c0-1.082.59-2.074 1.54-2.594l3.757-2.05c.63-.34 1.016-1 1.016-1.715v-1.692l-.098-.117s-.012-.016-.023-.035a7.572 7.572 0 0 1-.801-1.281l-.02-.04c-.004-.003-.004-.007-.007-.011-.047-.094-.09-.192-.137-.293l-.02-.047-.07-.164-.023-.063a2.741 2.741 0 0 1-.07-.175c-.044-.114-.083-.235-.122-.356l-.031-.101a8.467 8.467 0 0 1-.11-.403v-.008l-.007-.03-.032-.134-.144-.093a.846.846 0 0 1-.387-.707V8c0-.234.098-.457.281-.621l.137-.125v-2.77l-.012-.011c-.011-.301.004-1.235.684-2.012zm.17 12.974c0 .406-.222.78-.581.976l-1.113.61-.274.148-2.367 1.293a3.788 3.788 0 0 0-1.98 3.332v.945H.844v-.758c0-.914.496-1.753 1.32-2.203l2.8-1.757c.563-.305.911-.895.911-1.532v-1.511l-.133-.125c-.012-.012-1.133-1.079-1.46-2.508l-.04-.168-.144-.094a.674.674 0 0 1-.309-.562v-1.454c0-.152.102-.332.281-.492l.14-.125V7.184C4.22 7.062 4.439 4.21 8 4.21c1.008 0 1.855.234 2.527.691v1.993c-.27.308-.422.699-.422 1.105v1.684c0 .3.09.586.235.84.105.175.23.34.394.468a.27.27 0 0 0 .012.031 4.6 4.6 0 0 0 .074.274l.035.117.024.063c.012.043.027.085.039.128l.086.235a.954.954 0 0 0 .039.094c.035.09.07.18.11.27.007.015.011.034.019.05l.027.059.035.07a7.962 7.962 0 0 0 .141.3l.031.063.024.043a7.803 7.803 0 0 0 .226.414c.074.125.14.238.207.34l.012.012c.137.215.258.383.336.484zm0 0"/>
</svg>
