<svg xmlns="http://www.w3.org/2000/svg" width="32" height="32" viewBox="0 0 24 24">
    <path d="M23.2 14.84V1.602a.401.401 0 0 0-.4-.403H.399A.401.401 0 0 0 0 1.602v17.597c0 .223.18.403.398.403H14a5.211 5.211 0 0 0 4.8 3.199c2.868 0 5.2-2.332 5.2-5.2 0-1.015-.297-1.96-.8-2.761zm-4-2.426v-1.613h3.198v3.047c-.066-.067-.14-.125-.21-.184l-.106-.094a5.03 5.03 0 0 0-.289-.215c-.04-.027-.074-.054-.113-.082a7.71 7.71 0 0 0-.301-.183l-.129-.074c-.094-.051-.191-.094-.29-.141-.015-.008-.03-.016-.046-.02-.039-.02-.078-.039-.121-.058-.074-.031-.152-.055-.227-.082l-.097-.035c-.051-.02-.102-.04-.153-.055-.054-.016-.113-.027-.168-.043-.05-.016-.105-.027-.156-.039-.055-.012-.113-.031-.168-.043a1.204 1.204 0 0 0-.117-.016c-.074-.015-.148-.023-.223-.035-.054-.008-.109-.02-.168-.023-.02 0-.043-.004-.066-.004-.016 0-.031-.004-.05-.008zM22.397 10H19.2V6.398h3.2zm0-8v3.602H19.2V2zM4 10H.8V6.398H4zm-3.2.8H4v3.598H.8zM.8 2H4v3.602H.8zm0 16.8v-3.6H4v3.6zm12.942 0H4.801V2h13.597v10.422a5.198 5.198 0 0 0-4.796 5.18c0 .195.011.39.035.582 0 .027.008.058.011.09a5.438 5.438 0 0 0 .094.527zm5.059 3.2a4.408 4.408 0 0 1-4.149-2.941c-.035-.11-.07-.215-.097-.325-.008-.023-.012-.047-.02-.07a6.109 6.109 0 0 1-.062-.285l-.024-.16c-.011-.074-.023-.145-.027-.215a4.63 4.63 0 0 1-.024-.402 4.41 4.41 0 0 1 4.403-4.403c.168 0 .34.012.504.031.035.004.066.012.101.016.106.016.207.035.309.059.027.004.058.008.086.015l.094.024a4.6 4.6 0 0 1 .464.148c.149.055.293.117.434.192.004 0 .008.004.012.004.144.074.285.16.418.25.011.003.02.007.03.015.126.082.243.176.36.274l.059.046c.105.09.203.188.297.29l.082.082a4.06 4.06 0 0 1 .246.3c.055.07.11.14.16.215.469.695.742 1.535.742 2.442A4.403 4.403 0 0 1 18.801 22zm0 0"/>
    <path d="M21.2 17.2h-4.802a.401.401 0 0 0 0 .8H21.2a.401.401 0 1 0 0-.8zm0 0M14.8 10.398a.396.396 0 0 0-.187-.335l-4.398-2.801a.399.399 0 0 0-.613.34v5.597c0 .149.078.281.207.352.058.031.125.05.191.05a.428.428 0 0 0 .215-.062l4.398-2.8a.403.403 0 0 0 .188-.34zm-4.402 2.075V8.328l3.258 2.07zm0 0"/>
</svg>
