<svg xmlns="http://www.w3.org/2000/svg" width="32" height="32" viewBox="0 0 24 24">
    <path d="M23.25 16.91l-.598-.117a.792.792 0 0 1-.605-.5.8.8 0 0 1 .101-.781l.375-.512a.416.416 0 0 0-.039-.54l-.812-.808a.414.414 0 0 0-.524-.05l-.503.34a.797.797 0 0 1-.786.074.803.803 0 0 1-.48-.625l-.094-.625a.415.415 0 0 0-.41-.352H17.73c-.199 0-.37.14-.406.336l-.148.773a.803.803 0 0 1-.488.598.796.796 0 0 1-.77-.078l-.652-.441a.414.414 0 0 0-.524.05l-.812.809a.416.416 0 0 0-.04.539l.376.512a.812.812 0 0 1-.504 1.281l-.598.117a.411.411 0 0 0-.336.406v1.145c0 .203.149.379.352.41l.625.098a.792.792 0 0 1 .625.476.806.806 0 0 1-.075.785l-.34.504a.414.414 0 0 0 .051.524l.809.812a.42.42 0 0 0 .54.043l.51-.379a.812.812 0 0 1 1.282.504l.117.598a.411.411 0 0 0 .406.336h1.145a.415.415 0 0 0 .41-.352l.067-.441a.813.813 0 0 1 .496-.629.804.804 0 0 1 .793.098l.359.261a.416.416 0 0 0 .54-.039l.808-.812c.14-.14.16-.36.05-.524l-.34-.504a.806.806 0 0 1-.074-.785.81.81 0 0 1 .625-.48l.625-.094a.415.415 0 0 0 .352-.41v-1.145c0-.199-.14-.37-.336-.406zm-.492 1.195l-.274.043a1.635 1.635 0 0 0-1.257.97c-.227.519-.172 1.109.144 1.577l.149.22-.317.32-.074-.055a1.62 1.62 0 0 0-1.598-.192c-.539.219-.91.696-.996 1.266l-.015.09h-.45l-.05-.262a1.647 1.647 0 0 0-2.586-1.016l-.223.168-.32-.32.152-.219a1.637 1.637 0 0 0 .145-1.578 1.635 1.635 0 0 0-1.258-.969l-.274-.043v-.449l.262-.05a1.632 1.632 0 0 0 1.219-1.012 1.64 1.64 0 0 0-.203-1.57l-.168-.227.32-.317.367.247a1.638 1.638 0 0 0 2.535-1.051l.082-.434h.45l.043.274c.085.562.449 1.03.968 1.257.52.227 1.11.172 1.578-.144l.22-.149.32.317-.169.226a1.638 1.638 0 0 0-.203 1.57c.207.528.664.907 1.22 1.012l.26.051zm0 0"/>
    <path d="M18.207 15.723c-1.14 0-2.07.93-2.07 2.07 0 1.14.93 2.07 2.07 2.07 1.14 0 2.07-.93 2.07-2.07 0-1.14-.93-2.07-2.07-2.07zm0 3.312a1.245 1.245 0 0 1-1.242-1.242c0-.684.558-1.242 1.242-1.242.684 0 1.242.558 1.242 1.242 0 .684-.558 1.242-1.242 1.242zm0 0M15.309 10.344c0-.14-.07-.274-.192-.348l-4.55-2.898a.414.414 0 1 0-.637.352v5.792c0 .149.082.29.215.363a.413.413 0 0 0 .422-.016l4.55-2.894a.413.413 0 0 0 .192-.351zm-4.551 2.144V8.203l3.367 2.14zm0 0"/>
    <path d="M23.586.828H.414A.412.412 0 0 0 0 1.242V19.45c0 .227.184.414.414.414h10.344a.414.414 0 0 0 0-.828H4.965V1.656h14.07v8.688c0 .23.184.414.414.414h3.723v2.898a.414.414 0 0 0 .828 0V1.242a.412.412 0 0 0-.414-.414zM.828 10.758h3.309v3.726H.828zm3.309-.828H.828V6.207h3.309zM.828 19.035V15.31h3.309v3.726zM4.137 5.38H.828V1.656h3.309zm19.035-3.723V5.38h-3.309V1.656zM19.863 9.93V6.207h3.309V9.93zm0 0"/>
</svg>
