<svg xmlns="http://www.w3.org/2000/svg" width="32" height="32" viewBox="0 0 24 24">
    <path d="M 21.308594 4.042969 L 4.996094 4.042969 C 3.386719 4.042969 3.484375 2.554688 3.484375 2.53125 C 3.484375 1.695312 4.164062 1.019531 4.996094 1.019531 L 20.894531 1.019531 L 20.894531 0 L 4.996094 0 C 3.601562 0 2.464844 1.136719 2.464844 2.53125 L 2.464844 21.46875 C 2.464844 22.863281 3.601562 24 4.996094 24 L 21.535156 24 L 21.535156 4.042969 Z M 20.515625 22.980469 L 4.996094 22.980469 C 4.164062 22.980469 3.484375 22.304688 3.484375 21.46875 L 3.484375 4.558594 C 3.488281 4.5625 3.492188 4.5625 3.492188 4.5625 C 3.914062 4.875 4.433594 5.0625 4.996094 5.0625 L 20.515625 5.0625 Z M 20.515625 22.980469"/>
</svg>
