<svg xmlns="http://www.w3.org/2000/svg" width="32" height="32" viewBox="0 0 24 24">
    <path d="M23.977.508a.516.516 0 0 0-.672-.485l-7.489 2.508L8.32.043a.395.395 0 0 0-.32 0L.348 2.602A.513.513 0 0 0 0 3.086l.023 20.402c0 .164.079.317.211.414.09.063.301.141.461.07l7.489-2.507 7.496 2.488a.515.515 0 0 0 .316.004l7.656-2.562A.513.513 0 0 0 24 20.91zM1.055 22.78L1.03 3.453l6.63-2.219.023 19.328zm7.648-2.218L8.68 1.233l6.636 2.204.024 19.328zm7.656 2.203l-.023-19.328 6.633-2.22.02 19.329zm0 0"/>
</svg>
