<svg xmlns="http://www.w3.org/2000/svg" width="32" height="32" viewBox="0 0 24 24">
    <path d="M18.047 0H5.953A2.637 2.637 0 0 0 3.32 2.633v18.734A2.634 2.634 0 0 0 5.953 24h12.094a2.634 2.634 0 0 0 2.633-2.633V2.633C20.68 1.183 19.5 0 18.047 0zm1.613 21.367c0 .887-.723 1.613-1.613 1.613H5.953c-.89 0-1.613-.726-1.613-1.613V2.633c0-.887.723-1.613 1.613-1.613h12.094c.89 0 1.613.726 1.613 1.613zm0 0"/>
    <path d="M6.383 8.523h11.234v-5.46H6.383zm1.02-4.437h9.195v3.418H7.402zm0 0M7.422 13.438h1.535v1.023H7.422zm0 0M11.234 13.438h1.532v1.023h-1.532zm0 0M15.043 13.438h1.535v1.023h-1.535zm0 0M7.422 16.676h1.535v1.023H7.422zm0 0M11.234 16.676h1.532v1.023h-1.532zm0 0M15.043 16.676h1.535v1.023h-1.535zm0 0M7.422 19.914h1.535v1.023H7.422zm0 0M11.234 19.914h1.532v1.023h-1.532zm0 0M15.043 19.914h1.535v1.023h-1.535zm0 0M14.238 10.469h3.067v1.023h-3.067zm0 0M6.7 10.469h3.062v1.023H6.699zm0 0"/>
</svg>
