<svg xmlns="http://www.w3.org/2000/svg" width="32" height="32" viewBox="0 0 24 24">
    <path d="M 20.007812 1.734375 L 18.253906 1.734375 L 18.253906 0 L 17.234375 0 L 17.234375 1.734375 L 12.511719 1.734375 L 12.511719 0 L 11.488281 0 L 11.488281 1.734375 L 6.765625 1.734375 L 6.765625 0 L 5.746094 0 L 5.746094 1.734375 L 3.992188 1.734375 C 1.789062 1.734375 0 3.523438 0 5.726562 L 0 20.003906 C 0 22.207031 1.789062 24 3.992188 24 L 20.007812 24 C 22.210938 24 24 22.207031 24 20.003906 L 24 5.726562 C 24 3.523438 22.210938 1.734375 20.007812 1.734375 Z M 22.980469 20.003906 C 22.980469 21.644531 21.644531 22.976562 20.007812 22.976562 L 3.992188 22.976562 C 2.355469 22.976562 1.019531 21.644531 1.019531 20.003906 L 1.019531 5.726562 C 1.019531 4.089844 2.355469 2.753906 3.992188 2.753906 L 5.746094 2.753906 L 5.746094 4.488281 L 6.765625 4.488281 L 6.765625 2.753906 L 11.488281 2.753906 L 11.488281 4.488281 L 12.511719 4.488281 L 12.511719 2.753906 L 17.234375 2.753906 L 17.234375 4.488281 L 18.253906 4.488281 L 18.253906 2.753906 L 20.007812 2.753906 C 21.644531 2.753906 22.980469 4.089844 22.980469 5.726562 Z M 22.980469 20.003906"/>
    <path d="M 20.425781 7.34375 L 3.574219 7.34375 C 3.292969 7.34375 3.0625 7.570312 3.0625 7.851562 L 3.0625 20.125 C 3.0625 20.40625 3.292969 20.632812 3.574219 20.632812 L 20.425781 20.632812 C 20.707031 20.632812 20.9375 20.40625 20.9375 20.125 L 20.9375 7.851562 C 20.9375 7.570312 20.707031 7.34375 20.425781 7.34375 Z M 19.914062 19.613281 L 4.085938 19.613281 L 4.085938 8.363281 L 19.914062 8.363281 Z M 19.914062 19.613281"/>
</svg>
