<svg xmlns="http://www.w3.org/2000/svg" width="32" height="32" viewBox="0 0 24 24">
    <path d="M 23.976562 18.769531 L 19.539062 2.574219 C 19.464844 2.300781 19.1875 2.140625 18.914062 2.214844 L 17.902344 2.480469 L 17.609375 1.410156 C 17.335938 0.402344 16.269531 -0.21875 15.253906 0.0703125 C 13.882812 0.460938 13.667969 1.753906 13.894531 2.402344 L 14.1875 3.464844 L 12.101562 4.015625 L 11.808594 2.941406 C 11.53125 1.933594 10.46875 1.316406 9.453125 1.605469 C 8.082031 1.992188 7.867188 3.289062 8.09375 3.933594 L 8.382812 5 L 6.296875 5.550781 L 6 4.472656 C 5.722656 3.464844 4.660156 2.847656 3.644531 3.136719 C 2.273438 3.523438 2.058594 4.820312 2.285156 5.464844 L 2.578125 6.535156 L 1.554688 6.804688 C 1.359375 6.875 1.222656 7.042969 1.195312 7.246094 L 0.00390625 20.636719 C -0.0117188 20.800781 0.0546875 20.960938 0.179688 21.070312 C 0.273438 21.148438 0.390625 21.191406 0.511719 21.191406 C 0.550781 21.191406 0.59375 21.1875 0.636719 21.175781 L 4.699219 20.15625 L 5.648438 23.625 C 5.710938 23.851562 5.917969 24 6.140625 24 C 6.183594 24 6.230469 23.996094 6.273438 23.984375 L 23.613281 19.398438 C 23.816406 19.378906 24.078125 19.054688 23.976562 18.769531 Z M 15.515625 1.058594 C 15.996094 0.933594 16.496094 1.207031 16.625 1.679688 L 16.917969 2.742188 L 15.171875 3.203125 L 14.878906 2.128906 C 14.796875 1.800781 14.890625 1.21875 15.515625 1.058594 Z M 9.714844 2.589844 C 10.195312 2.464844 10.695312 2.742188 10.824219 3.210938 L 11.113281 4.277344 L 9.371094 4.738281 L 9.078125 3.664062 C 8.992188 3.335938 9.085938 2.753906 9.714844 2.589844 Z M 3.90625 4.121094 C 4.386719 3.996094 4.886719 4.273438 5.015625 4.742188 L 5.308594 5.8125 L 3.566406 6.273438 L 3.269531 5.195312 C 3.183594 4.867188 3.277344 4.285156 3.90625 4.121094 Z M 1.082031 20.011719 L 1.960938 10.160156 L 4.429688 19.171875 Z M 6.5 22.867188 L 4.542969 15.726562 L 2.332031 7.652344 L 5.578125 6.796875 L 5.976562 8.246094 L 6.960938 7.976562 L 6.566406 6.535156 L 11.382812 5.261719 L 11.78125 6.714844 L 12.765625 6.445312 L 12.371094 5 L 17.1875 3.726562 L 17.585938 5.179688 L 18.570312 4.910156 L 18.175781 3.464844 L 18.6875 3.332031 L 22.855469 18.542969 Z M 6.5 22.867188"/>
    <path d="M9.953125 11.671875L8.742188 11.992188 9.003906 12.976562 10.210938 12.65625zM13.042969 10.855469L11.832031 11.171875 12.09375 12.160156 13.300781 11.839844zM16.132812 10.035156L14.921875 10.355469 15.183594 11.34375 16.394531 11.023438zM18.273438 10.527344L19.484375 10.207031 19.222656 9.21875 18.011719 9.539062zM7.671875 15.4375L6.460938 15.757812 6.71875 16.746094 7.929688 16.425781zM10.761719 14.621094L9.550781 14.941406 9.808594 15.929688 11.019531 15.609375zM13.851562 13.804688L12.640625 14.125 12.902344 15.113281 14.113281 14.792969zM15.730469 13.308594L15.992188 14.292969 17.203125 13.976562 16.941406 12.988281zM19.082031 13.476562L20.292969 13.15625 20.03125 12.171875 18.820312 12.492188zM7.269531 18.710938L7.527344 19.695312 8.738281 19.375 8.480469 18.390625zM10.359375 17.894531L10.621094 18.878906 11.828125 18.558594 11.570312 17.574219zM13.449219 17.074219L13.710938 18.0625 14.921875 17.742188 14.660156 16.757812zM13.449219 17.074219"/>
</svg>
