<svg xmlns="http://www.w3.org/2000/svg" width="32" height="32" viewBox="0 0 24 24">
    <path d="M23.977 18.77L19.539 2.574a.508.508 0 0 0-.625-.36l-1.012.266-.293-1.07C17.336.402 16.27-.219 15.254.07c-1.371.39-1.586 1.684-1.36 2.332l.293 1.063-2.085.55-.293-1.074c-.278-1.007-1.34-1.625-2.356-1.336-1.371.387-1.586 1.684-1.36 2.329L8.384 5l-2.086.55L6 4.474c-.277-1.008-1.34-1.625-2.355-1.336-1.372.386-1.586 1.683-1.36 2.328l.293 1.07-1.023.27a.545.545 0 0 0-.36.441L.004 20.636a.512.512 0 0 0 .176.434.519.519 0 0 0 .457.106l4.062-1.02.95 3.469a.512.512 0 0 0 .624.36l17.34-4.587c.203-.02.465-.343.364-.628zM15.516 1.059c.48-.125.98.148 1.109.62l.293 1.063-1.746.461-.293-1.074c-.082-.328.012-.91.637-1.07zm-5.801 1.53c.48-.124.98.153 1.11.622l.288 1.066-1.742.461-.293-1.074c-.086-.328.008-.91.637-1.074zM3.906 4.122c.48-.125.98.152 1.11.621l.293 1.07-1.743.461-.296-1.078c-.086-.328.007-.91.636-1.074zm-2.824 15.89l.879-9.85 2.469 9.01zM6.5 22.868l-1.957-7.14-2.211-8.075 3.246-.855.399 1.45.984-.27-.395-1.442 4.817-1.273.398 1.453.985-.27L12.37 5l4.816-1.273.399 1.453.984-.27-.394-1.445.512-.133 4.167 15.211zm0 0"/>
    <path d="M9.953 11.672l-1.21.32.26.985 1.208-.32zm0 0M13.043 10.855l-1.211.317.262.988 1.207-.32zm0 0M16.133 10.035l-1.211.32.262.989 1.21-.32zm0 0M18.273 10.527l1.211-.32-.261-.988-1.211.32zm0 0M7.672 15.438l-1.211.32.258.988 1.21-.32zm0 0M10.762 14.621l-1.211.32.258.989 1.21-.32zm0 0M13.852 13.805l-1.211.32.261.988 1.211-.32zm0 0M15.73 13.309l.262.984 1.211-.316-.262-.989zm0 0M19.082 13.477l1.211-.32-.262-.985-1.21.32zm0 0M7.27 18.71l.257.985 1.211-.32-.258-.984zm0 0M10.36 17.895l.261.984 1.207-.32-.258-.985zm0 0M13.45 17.074l.26.988 1.212-.32-.262-.984zm0 0"/>
</svg>
