<svg xmlns="http://www.w3.org/2000/svg" width="32" height="32" viewBox="0 0 24 24">
    <path d="M7.05 15.46a7.912 7.912 0 0 0 7.93-.003 7.927 7.927 0 0 0 2.915-2.902 7.963 7.963 0 0 0 1.058-3.97 7.971 7.971 0 0 0-3.965-6.87c-2.414-1.39-5.515-1.383-7.922 0-.003 0-.003 0-.007.004a7.888 7.888 0 0 0-2.91 2.902 7.887 7.887 0 0 0-1.06 3.973 7.966 7.966 0 0 0 3.962 6.867zm.513-.886c-.801-.465-1.137-1.808-.833-3.586l4.356 2.516c-.953.8-1.918 1.266-2.738 1.266a1.56 1.56 0 0 1-.786-.196zm5.964-3.949a13.232 13.232 0 0 1-1.66 2.148l-2.422-1.402L6.97 9.945C7.195 9.156 7.535 8.31 8 7.437zM8.512 6.551a13.232 13.232 0 0 1 1.66-2.149l1.793 1.035 3.101 1.793c-.234.82-.582 1.672-1.027 2.508zm2.492 8.949c-.348 0-.695-.027-1.04-.082.68-.3 1.38-.766 2.056-1.375l1.62.934a6.946 6.946 0 0 1-2.636.523zm3.719-1.082l-1.946-1.121a14.064 14.064 0 0 0 1.637-2.156l2.32 1.336a6.858 6.858 0 0 1-2.011 1.941zM16.41 4.266a6.988 6.988 0 0 1 1.453 3.394l-1.617-.933c.094-.461.156-.91.184-1.34a7.05 7.05 0 0 0-.02-1.121zm1.512 4.613a6.92 6.92 0 0 1-.676 2.71l-2.32-1.335a13.92 13.92 0 0 0 1.05-2.5zm-3.445-6.277c.671.386 1.011 1.378.93 2.722-.016.278-.052.567-.098.86l-4.356-2.512c.957-.8 1.922-1.266 2.742-1.266.293 0 .555.067.782.196zm-2.418-.836c-.676.3-1.368.765-2.04 1.367l-1.617-.934a6.961 6.961 0 0 1 3.657-.433zm-4.739.992l1.942 1.12a14.064 14.064 0 0 0-1.637 2.157L5.309 4.7A6.858 6.858 0 0 1 7.32 2.758zM4.797 5.586l2.316 1.336c-.449.844-.8 1.687-1.05 2.5L4.12 8.3a6.79 6.79 0 0 1 .676-2.715zm1 4.863c-.188.895-.242 1.73-.16 2.465a6.945 6.945 0 0 1-1.461-3.398zm0 0"/>
    <path d="M15.98 0l-.515.887c6.05 3.699 4.777 9.894 3.258 12.148-1.504 2.227-5.223 6.496-12.149 3.254l-.511.887a9.935 9.935 0 0 0 3.207 1.176v1.62c-1.598.122-4.891.54-4.891 1.985 0 1.613 4.176 2.043 6.64 2.043 2.47 0 6.645-.43 6.645-2.043 0-1.445-3.297-1.863-4.894-1.984v-1.625c.273-.051 4.195-.489 6.84-4.801C20.882 11.469 22.937 4.363 15.98 0zm.641 21.957c-.293.383-2.305 1.02-5.601 1.02-3.297 0-5.31-.637-5.598-1.02.23-.297 1.664-.852 4.387-.992a.512.512 0 0 0 .488-.512V18.48a9.424 9.424 0 0 0 1.45 0v1.973c0 .274.214.5.483.512 2.727.14 4.157.695 4.391.992zm0 0"/>
</svg>
