<svg xmlns="http://www.w3.org/2000/svg" width="32" height="32" viewBox="0 0 24 24">
    <path d="M 23.984375 8.523438 C 23.984375 8.324219 23.851562 8.152344 23.675781 8.070312 L 12.273438 0.09375 C 12.097656 -0.03125 11.863281 -0.03125 11.6875 0.09375 L 0.351562 8.066406 C 0.148438 8.132812 0 8.324219 0 8.550781 L 0.015625 23.492188 C 0.015625 23.773438 0.246094 24 0.527344 24 L 23.492188 23.972656 C 23.773438 23.972656 24 23.746094 24 23.460938 Z M 9.066406 16.480469 L 14.9375 16.472656 L 22.125 22.953125 L 11.847656 22.964844 L 1.890625 22.976562 Z M 15.90625 15.972656 L 22.964844 9.632812 L 22.976562 22.347656 Z M 11.984375 1.132812 L 22.617188 8.574219 L 14.960938 15.453125 L 9.039062 15.457031 L 1.367188 8.597656 Z M 8.09375 15.984375 L 1.035156 22.375 L 1.023438 9.660156 Z M 8.09375 15.984375"/>
</svg>
