<svg xmlns="http://www.w3.org/2000/svg" width="32" height="32" viewBox="0 0 24 24">
    <path d="M 22.699219 1.292969 C 21.746094 0.375 19.152344 -1.089844 16.464844 1.292969 L 7.5625 10.199219 C 7.105469 10.660156 6.878906 11.265625 6.890625 11.871094 C 6.058594 12.050781 5.304688 12.457031 4.703125 13.0625 C 4.097656 13.664062 3.6875 14.425781 3.511719 15.257812 C 3.128906 17.0625 2.113281 18.832031 0.574219 20.375 L 0.148438 20.796875 C -0.0507812 20.996094 -0.0507812 21.320312 0.148438 21.519531 L 2.480469 23.851562 C 2.597656 24 2.964844 24.09375 3.203125 23.851562 L 3.710938 23.34375 C 5.046875 22.007812 6.824219 21.023438 9 20.425781 C 9.648438 20.246094 10.234375 19.925781 10.742188 19.476562 C 11.417969 18.875 11.890625 18.039062 12.082031 17.105469 C 12.109375 17.105469 12.136719 17.109375 12.164062 17.109375 C 12.78125 17.109375 13.359375 16.867188 13.796875 16.433594 L 22.699219 7.527344 C 24.417969 5.808594 24.449219 2.976562 22.699219 1.292969 Z M 10.0625 18.714844 C 9.675781 19.058594 9.226562 19.304688 8.726562 19.441406 C 6.382812 20.089844 4.449219 21.160156 2.988281 22.621094 L 2.839844 22.769531 L 2.410156 22.339844 L 6.507812 18.277344 C 6.703125 18.367188 6.921875 18.417969 7.152344 18.417969 C 8.023438 18.417969 8.730469 17.710938 8.730469 16.839844 C 8.730469 15.964844 8.023438 15.257812 7.152344 15.257812 C 6.28125 15.257812 5.574219 15.964844 5.574219 16.839844 C 5.574219 17.09375 5.636719 17.335938 5.746094 17.550781 L 1.667969 21.59375 L 1.230469 21.160156 L 1.292969 21.097656 C 2.976562 19.414062 4.085938 17.46875 4.511719 15.46875 C 4.644531 14.832031 4.960938 14.246094 5.425781 13.785156 C 5.863281 13.347656 6.402344 13.042969 7 12.894531 L 11.066406 16.964844 C 10.914062 17.660156 10.5625 18.273438 10.0625 18.714844 Z M 6.558594 16.839844 C 6.558594 16.507812 6.824219 16.242188 7.152344 16.242188 C 7.480469 16.242188 7.75 16.507812 7.75 16.839844 C 7.75 17.167969 7.480469 17.433594 7.152344 17.433594 C 6.824219 17.433594 6.558594 17.167969 6.558594 16.839844 Z M 13.074219 15.710938 C 12.589844 16.195312 11.746094 16.195312 11.261719 15.714844 L 8.285156 12.738281 C 7.785156 12.238281 7.785156 11.421875 8.285156 10.921875 L 9.515625 9.691406 L 14.304688 14.480469 Z M 21.976562 6.804688 L 15.027344 13.757812 L 10.238281 8.96875 L 17.1875 2.015625 C 17.917969 1.207031 20.226562 0.261719 21.976562 2.015625 C 23.296875 3.335938 23.296875 5.484375 21.976562 6.804688 Z M 21.976562 6.804688"/>
</svg>
