<svg xmlns="http://www.w3.org/2000/svg" width="32" height="32" viewBox="0 0 24 24">
    <path d="M 15.800781 8.804688 L 15.507812 8.804688 L 15.507812 6.507812 C 15.507812 6.226562 15.28125 5.996094 15 5.996094 L 13.808594 5.996094 L 12.496094 0.394531 C 12.441406 0.164062 12.238281 0 12 0 C 11.761719 0 11.558594 0.164062 11.503906 0.394531 L 10.191406 5.996094 L 9 5.996094 C 8.71875 5.996094 8.492188 6.226562 8.492188 6.507812 L 8.492188 8.804688 L 8.199219 8.804688 C 6.886719 8.804688 5.820312 9.871094 5.820312 11.183594 L 5.820312 21.621094 C 5.820312 22.933594 6.886719 24 8.199219 24 L 15.800781 24 C 17.113281 24 18.179688 22.933594 18.179688 21.621094 L 18.179688 11.183594 C 18.179688 9.871094 17.113281 8.804688 15.800781 8.804688 Z M 12 2.75 L 12.761719 5.996094 L 11.238281 5.996094 Z M 9.511719 7.019531 L 14.488281 7.019531 L 14.488281 8.804688 L 9.511719 8.804688 Z M 17.160156 21.621094 C 17.160156 22.371094 16.550781 22.980469 15.800781 22.980469 L 8.199219 22.980469 C 7.449219 22.980469 6.839844 22.371094 6.839844 21.621094 L 6.839844 11.183594 C 6.839844 10.433594 7.449219 9.824219 8.199219 9.824219 L 15.800781 9.824219 C 16.550781 9.824219 17.160156 10.433594 17.160156 11.183594 Z M 17.160156 21.621094"/>
</svg>
