<svg xmlns="http://www.w3.org/2000/svg" width="32" height="32" viewBox="0 0 24 24">
    <path d="M23.36 16.242L12.562 5.445 7.758.637c-.922-.922-2.317-.774-3.094 0l-4.02 4.02c-.992.995-.714 2.378 0 3.097l15.602 15.601c.715.715 2.106.993 3.098 0l4.015-4.015a2.19 2.19 0 0 0 0-3.098zM1.366 7.032c-.3-.286-.59-1.063 0-1.653l4.02-4.02a1.155 1.155 0 0 1 1.648 0l4.445 4.446-1.273 1.277-3.434-3.434a.505.505 0 0 0-.722 0L3.652 6.043a.515.515 0 0 0 0 .723l3.434 3.433-1.274 1.278zm3.371-.626L6.41 4.73l5.348 5.348c.402.399.406 1.04 0 1.442l-.23.23a1.045 1.045 0 0 1-1.446 0zm17.899 12.211l-4.016 4.016a1.196 1.196 0 0 1-1.652 0L6.535 12.195l1.274-1.273 1.55 1.55c.887.883 2.176.716 2.891 0l.23-.23a2.034 2.034 0 0 0 0-2.887l-1.55-1.55 1.273-1.278 10.434 10.438a1.167 1.167 0 0 1 0 1.652zm0 0"/>
</svg>
