<svg xmlns="http://www.w3.org/2000/svg" width="32" height="32" viewBox="0 0 24 24">
    <path d="M23.414 4.086L20.117.633c-.969-.973-2.23-.707-2.894 0l-.594.625C16.062.906 15.277.98 14.8 1.48L5.43 11.297l-1.653 5.715L0 20.965 5.043 24l2.727-2.855 5.433-1.704 9.402-9.847c.493-.512.555-1.305.196-1.895l.613-.64a2.178 2.178 0 0 0 0-2.973zM4.875 22.715l-3.27-1.965 2.622-2.742 2.57 2.691zm2.762-2.602l-2.84-2.972 1.555-4.88 5.945 6.227zM21.879 8.891l-8.676 9.086-6.375-6.68 8.703-9.113a.446.446 0 0 1 .645 0l5.703 5.968a.546.546 0 0 1 0 .739zm.808-2.536l-.562.59-4.766-4.988.594-.621a1.002 1.002 0 0 1 1.434 0l3.3 3.457c.41.43.41 1.129 0 1.562zm0 0"/>
</svg>
