<svg xmlns="http://www.w3.org/2000/svg" width="32" height="32" viewBox="0 0 24 24">
    <path d="M 23.730469 13.289062 L 21.441406 12.015625 L 23.730469 10.746094 C 23.921875 10.703125 24.226562 10.15625 23.730469 9.851562 L 21.472656 8.59375 L 23.730469 7.339844 C 23.972656 7.246094 24.171875 6.722656 23.730469 6.445312 L 12.246094 0.0625 C 12.09375 -0.0195312 11.90625 -0.0195312 11.753906 0.0625 L 0.269531 6.449219 C -0.152344 6.679688 -0.0078125 7.238281 0.269531 7.339844 L 2.527344 8.597656 L 0.269531 9.851562 C -0.144531 10.085938 -0.03125 10.625 0.269531 10.746094 L 2.558594 12.015625 L 0.269531 13.289062 C -0.144531 13.523438 -0.03125 14.0625 0.269531 14.179688 L 2.527344 15.4375 L 0.269531 16.691406 C -0.144531 16.925781 -0.03125 17.464844 0.269531 17.585938 L 11.753906 23.96875 C 11.828125 24.011719 12.171875 24.011719 12.246094 23.96875 L 23.730469 17.585938 C 23.921875 17.542969 24.226562 17 23.730469 16.691406 L 21.472656 15.4375 L 23.730469 14.179688 C 23.921875 14.140625 24.226562 13.59375 23.730469 13.289062 Z M 12 1.09375 L 22.433594 6.894531 L 12 12.691406 L 1.566406 6.894531 Z M 3.578125 9.179688 L 11.753906 13.722656 C 11.988281 13.847656 12.171875 13.765625 12.246094 13.722656 L 20.421875 9.179688 L 22.433594 10.296875 L 12 16.097656 L 1.566406 10.296875 Z M 22.433594 17.140625 L 12 22.9375 L 1.566406 17.140625 L 3.578125 16.019531 L 11.753906 20.5625 C 11.828125 20.605469 12.171875 20.605469 12.246094 20.5625 L 20.421875 16.019531 Z M 12 19.53125 L 1.566406 13.734375 L 3.578125 12.617188 L 3.570312 12.578125 L 11.753906 17.125 C 11.828125 17.167969 12.171875 17.167969 12.246094 17.125 L 20.429688 12.578125 L 20.421875 12.617188 L 22.433594 13.734375 Z M 12 19.53125"/>
</svg>
