<svg xmlns="http://www.w3.org/2000/svg" width="32" height="32" viewBox="0 0 24 24">
    <path d="M23.094 18.73a2.964 2.964 0 0 0-.813-.578c-1.734-.859-3-1.715-3.98-2.691l-2.446-2.445A8.514 8.514 0 0 0 17.11 8.55 8.55 8.55 0 0 0 8.56 0C3.836 0 .004 3.828.004 8.55a8.555 8.555 0 0 0 13.012 7.302l1.785 1.785c1.441 1.441 2.504 3.16 3.437 4.8.227.399.528.75.922 1.008 1.54 1.02 2.93.38 3.422.059a3.108 3.108 0 0 0 1.398-2.277 3.089 3.089 0 0 0-.886-2.497zM1.008 8.55a7.55 7.55 0 0 1 7.55-7.546 7.547 7.547 0 0 1 7.547 7.547A7.548 7.548 0 0 1 8.56 16.1a7.551 7.551 0 0 1-7.551-7.55zM22.96 21.122a2.06 2.06 0 0 1-.941 1.531c-.903.594-1.907.227-2.274-.043a2.176 2.176 0 0 1-.621-.675c-.969-1.707-2.074-3.493-3.602-5.02L13.88 15.27a7.995 7.995 0 0 0 1.394-1.395l2.305 2.309c1.063 1.058 2.414 1.976 4.254 2.882a2.055 2.055 0 0 1 1.129 2.055zm0 0"/>
    <path d="M4.422 4.418A5.806 5.806 0 0 0 2.71 8.551c0 1.562.605 3.031 1.71 4.136l.724-.722A4.809 4.809 0 0 1 3.73 8.55c0-1.285.504-2.496 1.415-3.41zm0 0"/>
</svg>
