<svg xmlns="http://www.w3.org/2000/svg" width="32" height="32" viewBox="0 0 24 24">
    <path d="M23.488 0h-6.855H2.797a.513.513 0 0 0-.512.512v5.234H0v1.02h2.285v4.722H0v1.024h2.285v4.722H0v1.02h2.285v5.234c0 .282.23.512.512.512h20.691c.282 0 .512-.23.512-.512V.512A.513.513 0 0 0 23.488 0zm-6.351 1.645l5.004 4.433h-5.004zm5.84 3.808L17.973 1.02h5.004zM3.309 22.98v-4.726h1.793v-1.02H3.309v-4.722h1.793v-1.024H3.309V6.766h1.793v-1.02H3.309V1.02h12.808v5.566c0 .285.227.512.512.512h6.348V22.98zm0 0"/>
</svg>
