<svg xmlns="http://www.w3.org/2000/svg" width="32" height="32" viewBox="0 0 24 24">
    <path d="M21.070312 0L.511719 0C.226562 0 0 .230469 0 .511719L0 23.488281C0 23.769531.226562 24 .511719 24L21.070312 24C21.351562 24 21.582031 23.769531 21.582031 23.488281L21.582031.511719C21.582031.230469 21.351562 0 21.070312 0zM20.558594 22.980469L1.019531 22.980469 1.019531 1.019531 20.558594 1.019531zM22.980469.511719L24 .511719 24 3.0625 22.980469 3.0625zM22.980469 5.617188L24 5.617188 24 8.171875 22.980469 8.171875zM22.980469 10.722656L24 10.722656 24 13.277344 22.980469 13.277344zM22.980469 15.828125L24 15.828125 24 18.382812 22.980469 18.382812zM22.980469 20.9375L24 20.9375 24 23.488281 22.980469 23.488281zM22.980469 20.9375"/>
    <path d="M 4.839844 6.382812 L 16.742188 6.382812 L 16.742188 7.402344 L 4.839844 7.402344 Z M 4.839844 6.382812"/>
</svg>
