<svg xmlns="http://www.w3.org/2000/svg" width="32" height="32" viewBox="0 0 24 24">
    <path d="M23.695312 1.246094C21.804688.417969 19.808594 0 17.761719 0 15.777344 0 13.839844.394531 12 1.175781 10.160156.394531 8.222656 0 6.238281 0 4.191406 0 2.195312.417969.304688 1.246094.121094 1.328125 0 1.511719 0 1.714844L0 17.367188C0 17.539062.0859375 17.699219.230469 17.792969.375 17.886719.558594 17.902344.714844 17.832031 4.234375 16.292969 8.230469 16.316406 11.761719 17.832031 11.917969 17.902344 12.152344 17.871094 12.238281 17.832031 15.730469 16.226562 19.761719 16.292969 23.285156 17.832031 23.441406 17.902344 23.625 17.886719 23.769531 17.792969 23.914062 17.699219 24 17.539062 24 17.367188L24 1.714844C24 1.511719 23.878906 1.328125 23.695312 1.246094zM11.457031 16.605469C9.78125 15.972656 8.027344 15.652344 6.238281 15.652344 4.449219 15.652344 2.695312 15.972656 1.019531 16.605469L1.019531 2.054688C4.359375.683594 8.117188.683594 11.457031 2.054688zM22.980469 16.605469C21.300781 15.972656 19.550781 15.652344 17.761719 15.652344 15.96875 15.652344 14.21875 15.972656 12.542969 16.605469L12.542969 2.054688C15.882812.683594 19.640625.683594 22.980469 2.054688zM12 19.785156C8.269531 18.21875 4.019531 18.246094.304688 19.871094L.714844 20.808594C4.234375 19.265625 8.273438 19.265625 11.796875 20.808594 11.859375 20.835938 11.929688 20.851562 12 20.851562 12.070312 20.851562 12.140625 20.835938 12.203125 20.808594 15.726562 19.265625 19.761719 19.265625 23.285156 20.808594L23.695312 19.871094C19.980469 18.246094 15.730469 18.21875 12 19.785156zM12 22.933594C8.265625 21.367188 4.019531 21.398438.304688 23.023438L.714844 23.957031C4.234375 22.417969 8.273438 22.417969 11.796875 23.957031 11.859375 23.984375 11.929688 24 12 24 12.070312 24 12.140625 23.984375 12.203125 23.957031 15.726562 22.417969 19.761719 22.414062 23.285156 23.957031L23.695312 23.023438C19.980469 21.394531 15.730469 21.367188 12 22.933594zM12 22.933594"/>
</svg>
