<svg xmlns="http://www.w3.org/2000/svg" width="32" height="32" viewBox="0 0 24 24">
    <path d="M 23.421875 2.351562 L 22.101562 2.53125 L 22.101562 0.511719 C 22.101562 0.121094 21.753906 -0.03125 21.507812 0.0078125 L 12 1.558594 L 2.492188 0.0078125 C 2.117188 -0.0585938 1.898438 0.285156 1.898438 0.511719 L 1.898438 2.53125 L 0.578125 2.351562 C 0.230469 2.296875 0 2.582031 0 2.855469 L 0 21.929688 C 0 22.183594 0.1875 22.402344 0.441406 22.433594 L 11.929688 23.996094 C 11.933594 24 11.9375 23.996094 11.941406 24 C 11.960938 24 12.039062 24 12.058594 24 C 12.0625 23.996094 12.066406 24 12.070312 23.996094 L 23.558594 22.433594 C 23.8125 22.402344 24 22.183594 24 21.929688 L 24 2.855469 C 24 2.546875 23.746094 2.316406 23.421875 2.351562 Z M 11.488281 22.90625 L 1.019531 21.484375 L 1.019531 3.441406 L 1.898438 3.5625 L 1.898438 19.585938 C 1.898438 19.835938 2.082031 20.050781 2.328125 20.089844 L 11.488281 21.582031 Z M 11.488281 20.546875 L 2.917969 19.152344 L 2.917969 1.113281 L 11.488281 2.511719 Z M 12.511719 2.511719 L 21.082031 1.113281 L 21.082031 19.152344 L 12.511719 20.546875 Z M 22.980469 21.484375 L 12.511719 22.90625 L 12.511719 21.582031 L 21.671875 20.089844 C 21.921875 20.050781 22.101562 19.835938 22.101562 19.585938 L 22.101562 3.5625 L 22.980469 3.441406 Z M 22.980469 21.484375"/>
</svg>
