<svg xmlns="http://www.w3.org/2000/svg" width="32" height="32" viewBox="0 0 24 24">
    <path d="M23.422 2.352l-1.32.18V.511c0-.39-.348-.543-.594-.504L12 1.558 2.492.009c-.375-.067-.594.277-.594.504v2.02l-1.32-.18C.23 2.297 0 2.582 0 2.855V21.93c0 .254.188.472.441.504l11.489 1.562c.004.004.008 0 .011.004h.118c.004-.004.007 0 .011-.004l11.489-1.562A.506.506 0 0 0 24 21.93V2.855a.504.504 0 0 0-.578-.503zM11.488 22.906L1.02 21.484V3.441l.878.122v16.023c0 .25.184.465.43.504l9.16 1.492zm0-2.36l-8.57-1.394V1.113l8.57 1.399zm1.024-18.034l8.57-1.399v18.04l-8.57 1.394zM22.98 21.484l-10.468 1.422v-1.324l9.16-1.492c.25-.04.43-.254.43-.504V3.563l.878-.122zm0 0"/>
</svg>
