<svg xmlns="http://www.w3.org/2000/svg" width="32" height="32" viewBox="0 0 24 24">
    <path d="M16.238 5.523a2.607 2.607 0 1 0-5.214.004 2.607 2.607 0 0 0 5.214-.004zm-2.605 1.582a1.58 1.58 0 1 1-.003-3.16 1.58 1.58 0 0 1 .003 3.16zm0 0M18.473 7.758a2.608 2.608 0 1 0 .005 5.216 2.608 2.608 0 0 0-.005-5.216zm0 4.187a1.58 1.58 0 1 1 1.582-1.578 1.58 1.58 0 0 1-1.582 1.578zm0 0M17.117 15.066a2.606 2.606 0 0 0 0 5.21 2.605 2.605 0 1 0 0-5.21zm0 4.184a1.58 1.58 0 0 1-1.582-1.578 1.58 1.58 0 0 1 3.16 0c0 .871-.707 1.578-1.578 1.578zm0 0"/>
    <path d="M20.363 3.637A12.351 12.351 0 0 0 11.578 0a12.349 12.349 0 0 0-8.781 3.637 12.492 12.492 0 0 0-2.367 3.3 4.225 4.225 0 0 0 .172 4.032 4.385 4.385 0 0 0 3.593 2.152l3.356.14a3.345 3.345 0 0 1 3.187 3.184l.14 3.356C10.978 22.117 12.923 24 15.216 24a4.14 4.14 0 0 0 1.848-.434 12.492 12.492 0 0 0 3.3-2.367A12.342 12.342 0 0 0 24 12.418c0-3.316-1.293-6.434-3.637-8.781zm-.722 16.84c-.891.89-1.91 1.62-3.032 2.171a3.13 3.13 0 0 1-1.394.332c-1.754-.003-3.242-1.445-3.317-3.222l-.14-3.356c-.094-2.238-1.922-4.07-4.164-4.164l-3.356-.14a3.358 3.358 0 0 1-2.758-1.653c-.57-.96-.617-2.074-.132-3.058A11.288 11.288 0 0 1 3.52 4.359a11.326 11.326 0 0 1 8.058-3.34c3.047 0 5.91 1.188 8.063 3.34a11.326 11.326 0 0 1 3.34 8.059 11.32 11.32 0 0 1-3.34 8.059zm0 0"/>
    <path d="M6.324 4.277a2.605 2.605 0 1 0 0 5.211 2.606 2.606 0 1 0 0-5.21zm0 4.184a1.579 1.579 0 0 1 0-3.156 1.58 1.58 0 0 1 1.582 1.578A1.58 1.58 0 0 1 6.324 8.46zm0 0"/>
</svg>
