<svg xmlns="http://www.w3.org/2000/svg" width="32" height="32" viewBox="0 0 24 24">
    <path d="M 23.960938 17.34375 L 20.730469 9.347656 C 20.777344 9.167969 20.726562 8.96875 20.582031 8.835938 L 14.234375 3.054688 C 14.203125 2.871094 14.070312 2.710938 13.878906 2.65625 L 4.949219 0.0195312 C 4.816406 -0.015625 4.675781 -0.00390625 4.558594 0.0625 C 4.4375 0.128906 4.351562 0.238281 4.3125 0.367188 L 0.207031 14.589844 C -0.566406 17.269531 0.894531 20.082031 3.484375 20.980469 C 4.328125 22.820312 6.140625 24 8.167969 24 C 8.835938 24 9.496094 23.867188 10.121094 23.609375 L 23.683594 18.007812 C 23.941406 17.902344 24.066406 17.605469 23.960938 17.34375 Z M 13.957031 4.210938 L 19.519531 9.25 L 10.046875 19.878906 C 9.265625 20.757812 8.144531 21.261719 6.972656 21.261719 C 6.769531 21.261719 6.203125 21.191406 6.117188 21.171875 C 7.992188 20.808594 9.570312 19.40625 10.117188 17.507812 Z M 4.003906 20.074219 C 1.8125 19.425781 0.546875 17.09375 1.1875 14.871094 L 5.152344 1.144531 L 13.101562 3.492188 L 9.136719 17.226562 C 8.625 19 6.992188 20.242188 5.164062 20.242188 C 4.773438 20.242188 4.382812 20.1875 4.003906 20.074219 Z M 9.730469 22.667969 C 9.230469 22.875 8.703125 22.980469 8.167969 22.980469 C 7.226562 22.980469 6.339844 22.660156 5.632812 22.105469 C 5.648438 22.109375 6.445312 22.296875 6.972656 22.285156 C 8.433594 22.285156 9.832031 21.65625 10.808594 20.558594 L 19.996094 10.253906 L 22.824219 17.257812 Z M 9.730469 22.667969"/>
    <path d="M 5.355469 15.378906 C 4.789062 15.210938 4.195312 15.539062 4.03125 16.113281 C 3.867188 16.683594 4.191406 17.285156 4.757812 17.453125 C 5.324219 17.617188 5.917969 17.289062 6.082031 16.71875 C 6.25 16.144531 5.921875 15.542969 5.355469 15.378906 Z M 5.355469 15.378906"/>
</svg>
