<svg xmlns="http://www.w3.org/2000/svg" width="32" height="32" viewBox="0 0 24 24">
    <path d="M19.629 0H4.37C1.918 0 0 3.21 0 7.309V24h20.14v-9.43c2.2-.414 3.86-3.453 3.86-7.261C24 3.21 22.082 0 19.629 0zM4.37 1.02c1.816 0 3.348 2.882 3.348 6.289 0 3.406-1.532 6.285-3.348 6.285-1.816 0-3.351-2.88-3.351-6.285 0-3.407 1.535-6.29 3.351-6.29zm14.746 21.96H1.02V12.05c.796 1.579 1.992 2.567 3.351 2.567h14.746zm.512-9.386h-13c1.273-1.262 2.113-3.578 2.113-6.285 0-2.707-.84-5.024-2.113-6.29h13c1.816 0 3.351 2.883 3.351 6.29 0 3.406-1.535 6.285-3.351 6.285zm0 0"/>
    <path d="M4.414 11.746c.395 0 .945-.258 1.336-1.48.254-.79.395-1.829.395-2.93 0-1.102-.141-2.145-.395-2.934-.39-1.222-.941-1.476-1.336-1.476-.394 0-.945.254-1.336 1.476-.254.79-.394 1.832-.394 2.934 0 1.101.14 2.14.394 2.93.39 1.222.942 1.48 1.336 1.48zm0-7.887c.23.106.797 1.286.797 3.477s-.566 3.367-.797 3.476c-.23-.109-.8-1.285-.8-3.476s.57-3.371.8-3.477zm0 0"/>
</svg>
