<svg xmlns="http://www.w3.org/2000/svg" width="32" height="32" viewBox="0 0 24 24">
    <path d="M 19.628906 0 L 4.371094 0 C 1.917969 0 0 3.210938 0 7.308594 L 0 24 L 20.140625 24 L 20.140625 14.570312 C 22.339844 14.15625 24 11.117188 24 7.308594 C 24 3.210938 22.082031 0 19.628906 0 Z M 4.371094 1.019531 C 6.1875 1.019531 7.71875 3.902344 7.71875 7.308594 C 7.71875 10.714844 6.1875 13.59375 4.371094 13.59375 C 2.554688 13.59375 1.019531 10.714844 1.019531 7.308594 C 1.019531 3.902344 2.554688 1.019531 4.371094 1.019531 Z M 19.117188 22.980469 L 1.019531 22.980469 L 1.019531 12.050781 C 1.816406 13.628906 3.011719 14.617188 4.371094 14.617188 L 19.117188 14.617188 Z M 19.628906 13.59375 L 6.628906 13.59375 C 7.902344 12.332031 8.742188 10.015625 8.742188 7.308594 C 8.742188 4.601562 7.902344 2.285156 6.628906 1.019531 L 19.628906 1.019531 C 21.445312 1.019531 22.980469 3.902344 22.980469 7.308594 C 22.980469 10.714844 21.445312 13.59375 19.628906 13.59375 Z M 19.628906 13.59375"/>
    <path d="M 4.414062 11.746094 C 4.808594 11.746094 5.359375 11.488281 5.75 10.265625 C 6.003906 9.476562 6.144531 8.4375 6.144531 7.335938 C 6.144531 6.234375 6.003906 5.191406 5.75 4.402344 C 5.359375 3.179688 4.808594 2.925781 4.414062 2.925781 C 4.019531 2.925781 3.46875 3.179688 3.078125 4.402344 C 2.824219 5.191406 2.683594 6.234375 2.683594 7.335938 C 2.683594 8.4375 2.824219 9.476562 3.078125 10.265625 C 3.46875 11.488281 4.019531 11.746094 4.414062 11.746094 Z M 4.414062 3.859375 C 4.644531 3.964844 5.210938 5.144531 5.210938 7.335938 C 5.210938 9.527344 4.644531 10.703125 4.414062 10.8125 C 4.183594 10.703125 3.613281 9.527344 3.613281 7.335938 C 3.613281 5.144531 4.183594 3.964844 4.414062 3.859375 Z M 4.414062 3.859375"/>
</svg>
