<svg xmlns="http://www.w3.org/2000/svg" width="32" height="32" viewBox="0 0 24 24">
    <path d="M 23.976562 4.910156 C 23.320312 2.835938 21.785156 1.34375 19.648438 0.707031 C 19.46875 0.652344 19.277344 0.699219 19.140625 0.828125 L 18.214844 1.726562 L 16.4375 0 L 10.535156 5.726562 L 11.253906 6.457031 L 16.4375 1.425781 L 17.480469 2.441406 L 11.152344 8.582031 C 10.878906 8.90625 11.019531 9.179688 11.183594 9.324219 L 2.910156 17.351562 C 2.445312 17.816406 2.421875 18.324219 2.539062 18.664062 L 0.417969 20.722656 L 1.523438 21.792969 L 0 23.273438 L 0.71875 24 L 2.257812 22.507812 L 3.363281 23.578125 L 5.480469 21.523438 C 5.875 21.664062 6.398438 21.589844 6.816406 21.175781 L 15.101562 13.136719 C 15.3125 13.394531 15.699219 13.34375 15.859375 13.175781 L 23.84375 5.425781 C 23.984375 5.292969 24.035156 5.089844 23.976562 4.910156 Z M 3.363281 22.152344 L 1.886719 20.722656 L 3.207031 19.441406 L 4.679688 20.875 Z M 6.097656 20.449219 C 6.007812 20.539062 5.90625 20.570312 5.851562 20.570312 L 5.847656 20.578125 L 3.507812 18.320312 C 3.503906 18.292969 3.519531 18.1875 3.628906 18.082031 L 12.207031 9.761719 C 12.339844 9.824219 12.46875 9.890625 12.59375 9.960938 C 13.480469 10.480469 14.171875 11.230469 14.652344 12.148438 Z M 15.699219 11.902344 C 15.046875 10.46875 13.929688 9.378906 12.453125 8.746094 L 19.636719 1.773438 C 21.1875 2.320312 22.332031 3.421875 22.894531 4.921875 Z M 15.699219 11.902344"/>
</svg>
