<svg xmlns="http://www.w3.org/2000/svg" width="32" height="32" viewBox="0 0 24 24">
    <path d="M 6.121094 6.121094 C 3.910156 8.335938 3.875 11.96875 6.070312 14.246094 C 6.113281 14.285156 6.855469 15 6.855469 15 L 14.996094 6.859375 L 14.222656 6.046875 C 12.84375 4.511719 8.957031 3.289062 6.121094 6.121094 Z M 6.84375 13.582031 C 5.65625 12.582031 4.414062 9.257812 6.835938 6.835938 C 8.773438 4.902344 11.816406 5.078125 13.582031 6.84375 Z M 6.84375 13.582031"/>
    <path d="M 19.945312 0 L 17.15625 2.789062 C 12.355469 -1.59375 6.269531 -0.222656 3.023438 3.023438 C -0.863281 6.90625 -0.9375 13.175781 2.789062 17.15625 L 0 19.945312 L 4.054688 24 L 24 4.054688 Z M 19.785156 6.839844 L 17.765625 8.859375 L 16.78125 7.871094 L 16.066406 8.585938 L 17.050781 9.574219 L 15.035156 11.589844 L 14.046875 10.601562 L 13.332031 11.316406 L 14.320312 12.304688 L 12.304688 14.320312 L 11.316406 13.332031 L 10.601562 14.046875 L 11.589844 15.035156 L 9.574219 17.050781 L 8.585938 16.066406 L 7.871094 16.78125 L 8.859375 17.765625 L 6.839844 19.785156 L 5.855469 18.796875 L 5.140625 19.511719 L 6.125 20.5 L 4.054688 22.570312 L 1.429688 19.945312 L 4.226562 17.148438 L 3.738281 16.683594 C 0.167969 13.113281 0.167969 7.308594 3.738281 3.738281 C 6.683594 0.792969 12.292969 -0.5 16.683594 3.738281 L 17.148438 4.226562 L 19.945312 1.429688 L 22.570312 4.054688 L 20.5 6.125 L 19.511719 5.140625 L 18.796875 5.851562 Z M 19.785156 6.839844"/>
</svg>
