<svg xmlns="http://www.w3.org/2000/svg" width="32" height="32" viewBox="0 0 24 24">
    <path d="M23.848 6.512L17.484.152c-.199-.199-.52-.199-.718 0L.148 16.766c-.199.199-.199.523 0 .722l6.36 6.36c.191.203.558.195.722 0L23.848 7.234c.152-.109.25-.468 0-.722zM6.87 22.766l-5.637-5.641 1.121-1.121 1.458 1.457.722-.723-1.457-1.457 1.125-1.125 2.387 2.39.723-.722-2.387-2.39 1.12-1.121 1.458 1.453.723-.723L6.77 11.59l1.125-1.125 2.386 2.387.723-.72-2.387-2.39 1.125-1.125 1.453 1.457.723-.722-1.457-1.457 1.125-1.122 2.39 2.387.723-.723-2.39-2.386 1.125-1.125 1.457 1.457.718-.723-1.453-1.457 1.121-1.121 2.391 2.387.723-.723L16 2.36l1.125-1.125 5.637 5.637zm0 0"/>
</svg>
