<svg xmlns="http://www.w3.org/2000/svg" width="32" height="32" viewBox="0 0 24 24">
    <path d="M21.07 12.184c-1.168 0-2.18.687-2.648 1.68l-5.07-1.36L10.004 0 9 .27l3.195 11.925L.27 9 0 10l12.504 3.352 1.36 5.07A2.93 2.93 0 0 0 15.11 24a2.93 2.93 0 0 0 2.93-2.926 2.93 2.93 0 0 0-3.173-2.918l-1.203-4.492 4.492 1.203a2.93 2.93 0 0 0 2.914 3.172 2.927 2.927 0 1 0 0-5.855zM17 21.074a1.886 1.886 0 0 1-1.89 1.887 1.885 1.885 0 0 1-1.887-1.887c0-1.047.843-1.89 1.886-1.89 1.047 0 1.891.843 1.891 1.89zM21.07 17a1.889 1.889 0 1 1 .005-3.778A1.889 1.889 0 0 1 21.07 17zm0 0"/>
</svg>
