<svg xmlns="http://www.w3.org/2000/svg" width="32" height="32" viewBox="0 0 24 24">
    <path d="M 21.070312 12.183594 C 19.902344 12.183594 18.890625 12.871094 18.421875 13.863281 L 13.351562 12.503906 L 10.003906 0 L 9 0.269531 L 12.195312 12.195312 L 0.269531 9 L 0 10 L 12.503906 13.351562 L 13.863281 18.421875 C 12.871094 18.890625 12.183594 19.902344 12.183594 21.074219 C 12.183594 22.6875 13.496094 24 15.109375 24 C 16.726562 24 18.039062 22.6875 18.039062 21.074219 C 18.039062 19.457031 16.726562 18.144531 15.109375 18.144531 C 15.027344 18.144531 14.949219 18.148438 14.867188 18.15625 L 13.664062 13.664062 L 18.15625 14.867188 C 18.148438 14.945312 18.144531 15.027344 18.144531 15.109375 C 18.144531 16.726562 19.457031 18.039062 21.070312 18.039062 C 22.6875 18.039062 24 16.726562 24 15.109375 C 24 13.492188 22.6875 12.183594 21.070312 12.183594 Z M 17 21.074219 C 17 22.117188 16.15625 22.960938 15.109375 22.960938 C 14.066406 22.960938 13.222656 22.117188 13.222656 21.074219 C 13.222656 20.027344 14.066406 19.183594 15.109375 19.183594 C 16.15625 19.183594 17 20.027344 17 21.074219 Z M 21.070312 17 C 20.027344 17 19.183594 16.152344 19.183594 15.109375 C 19.183594 14.066406 20.027344 13.222656 21.070312 13.222656 C 22.117188 13.222656 22.960938 14.066406 22.960938 15.109375 C 22.960938 16.152344 22.117188 17 21.070312 17 Z M 21.070312 17"/>
</svg>
