<svg xmlns="http://www.w3.org/2000/svg" width="32" height="32" viewBox="0 0 24 24">
    <path d="M22.004 16.3h-1.676v-1.632a3.491 3.491 0 0 0 3.274-2.578 3.488 3.488 0 0 0-2.465-4.266L6.387 3.871a4.714 4.714 0 0 0-1.23-.164 4.752 4.752 0 0 0-4.583 3.52L0 9.367l2.89.778-.53 2.773 1.46.133v1.59h1.016v-1.496l14.125 1.304.352.094v1.758H2.495a1.997 1.997 0 0 0 0 3.992h19.508a1.997 1.997 0 0 0 0-3.992zM3.57 12.009l.309-1.602 9.27 2.485zm-2.324-3.36l.309-1.16A3.737 3.737 0 0 1 6.12 4.852l14.754 3.953a2.465 2.465 0 1 1-1.277 4.762zm20.758 10.625H2.496a.98.98 0 0 1-.98-.976.98.98 0 0 1 .98-.977h19.508c.539 0 .98.438.98.977a.98.98 0 0 1-.98.976zm0 0"/>
    <path d="M21.57 11.074a1.752 1.752 0 1 0-3.504.004 1.752 1.752 0 0 0 3.504-.004zm-2.508 0a.759.759 0 1 1 1.518.002.759.759 0 0 1-1.517-.002zm0 0"/>
</svg>
