<svg xmlns="http://www.w3.org/2000/svg" width="32" height="32" viewBox="0 0 24 24">
    <path d="M 23.488281 16.539062 L 6.78125 16.539062 C 6.230469 16.554688 6.195312 15.828125 6.550781 15.683594 L 20.914062 7.394531 C 21.15625 7.253906 21.242188 6.941406 21.101562 6.695312 C 20.003906 4.800781 17.964844 3.621094 15.769531 3.621094 C 14.699219 3.621094 13.636719 3.90625 12.703125 4.445312 L 1.585938 10.863281 C 0.0703125 11.738281 -0.449219 13.683594 0.425781 15.199219 L 1.84375 17.65625 L 1.84375 19.867188 C 1.84375 20.148438 2.070312 20.378906 2.351562 20.378906 L 23.488281 20.378906 C 23.773438 20.378906 24 20.148438 24 19.867188 L 24 17.050781 C 24 16.769531 23.773438 16.539062 23.488281 16.539062 Z M 22.980469 19.355469 L 2.863281 19.355469 L 2.863281 17.519531 C 2.863281 17.429688 2.839844 17.339844 2.796875 17.265625 L 1.308594 14.691406 C 0.714844 13.660156 1.070312 12.34375 2.097656 11.75 L 13.214844 5.332031 C 13.992188 4.878906 14.878906 4.644531 15.769531 4.644531 C 17.425781 4.644531 18.980469 5.449219 19.9375 6.777344 L 6.042969 14.800781 C 4.550781 15.792969 5.523438 17.601562 6.78125 17.558594 L 22.980469 17.558594 Z M 22.980469 19.355469"/>
</svg>
