<svg xmlns="http://www.w3.org/2000/svg" width="32" height="32" viewBox="0 0 24 24">
    <path d="M14.477.04c-2.356-.216-4.493.5-6.02 2.019 0 0-6.32 5.394-6.328 5.406-3.277 3.277-2.707 9.156 1.27 13.137 3.98 3.976 9.859 4.546 13.136 1.27.012-.009 5.406-6.329 5.406-6.329 1.52-1.527 2.235-3.664 2.02-6.02-.211-2.328-1.313-4.593-3.102-6.382C19.07 1.35 16.805.25 14.477.039zm1.347 21.128c-2.879 2.879-8.136 2.305-11.715-1.277C.527 16.313.004 11.1 2.832 8.176c2.074-2.14 7.258-3.203 11.727 1.265 4.265 4.27 3.488 9.5 1.265 11.727zm5.395-6.32l-.012.011-2.68 3.137c.348-1.902.032-4.012-.922-5.984l4.782-4.778c1.082 2.746.734 5.711-1.168 7.614zm-4.11-3.754a12.133 12.133 0 0 0-1.843-2.36c-2.684-2.683-6.23-3.816-9.262-3.261l3.121-2.664.027-.028C11.891.043 16.824.523 20.148 3.851c.743.739 1.34 1.555 1.793 2.41zm0 0"/>
    <path d="M11.844 12.074c-2.067-2.07-4.996-2.496-6.543-.953-1.543 1.547-1.117 4.477.953 6.543 2.066 2.07 4.996 2.496 6.543.953 1.543-1.547 1.117-4.476-.953-6.543zm-4.899 4.899c-1.687-1.688-2.113-3.996-.949-5.157 1.16-1.164 3.469-.738 5.156.95 1.688 1.687 2.114 3.996.95 5.156-1.16 1.164-3.47.738-5.157-.95zm0 0"/>
</svg>
