<svg xmlns="http://www.w3.org/2000/svg" width="32" height="32" viewBox="0 0 24 24">
    <path d="M18.918 0H5.082a2.788 2.788 0 0 0-2.785 2.781V21.22A2.788 2.788 0 0 0 5.082 24h13.836a2.788 2.788 0 0 0 2.785-2.781V2.78A2.788 2.788 0 0 0 18.918 0zm1.762 21.219c0 .968-.79 1.761-1.762 1.761H5.082A1.765 1.765 0 0 1 3.32 21.22V2.78c0-.969.79-1.761 1.762-1.761h13.836c.973 0 1.762.792 1.762 1.761zm0 0"/>
    <path d="M11.488 2.809h1.024V21.19h-1.024zm0 0M16.625 2.578A2.424 2.424 0 0 0 14.203 5a2.424 2.424 0 0 0 2.422 2.422A2.424 2.424 0 0 0 19.047 5a2.424 2.424 0 0 0-2.422-2.422zm0 3.82a1.4 1.4 0 1 1-.004-2.8 1.4 1.4 0 0 1 .004 2.8zm0 0M16.625 9.578A2.424 2.424 0 0 0 14.203 12a2.424 2.424 0 0 0 2.422 2.422A2.424 2.424 0 0 0 19.047 12a2.424 2.424 0 0 0-2.422-2.422zm0 3.824A1.404 1.404 0 0 1 15.223 12c0-.773.629-1.402 1.402-1.402a1.403 1.403 0 0 1 0 2.804zm0 0M16.625 16.578A2.424 2.424 0 0 0 14.203 19a2.424 2.424 0 0 0 2.422 2.422A2.424 2.424 0 0 0 19.047 19a2.424 2.424 0 0 0-2.422-2.422zm0 3.824A1.404 1.404 0 0 1 15.223 19c0-.77.629-1.398 1.402-1.398.77 0 1.398.628 1.398 1.398 0 .773-.628 1.402-1.398 1.402zm0 0M7.273 2.578A2.424 2.424 0 0 0 4.852 5a2.424 2.424 0 0 0 2.421 2.422A2.424 2.424 0 0 0 9.695 5a2.424 2.424 0 0 0-2.422-2.422zm0 3.82a1.4 1.4 0 1 1 0-2.8 1.4 1.4 0 0 1 0 2.8zm0 0M7.273 9.578A2.424 2.424 0 0 0 4.852 12a2.424 2.424 0 0 0 2.421 2.422A2.424 2.424 0 0 0 9.695 12a2.424 2.424 0 0 0-2.422-2.422zm0 3.824A1.404 1.404 0 0 1 5.871 12c0-.773.629-1.402 1.402-1.402.774 0 1.403.629 1.403 1.402 0 .773-.63 1.402-1.403 1.402zm0 0M7.273 16.578A2.424 2.424 0 0 0 4.852 19a2.424 2.424 0 0 0 2.421 2.422A2.424 2.424 0 0 0 9.695 19a2.424 2.424 0 0 0-2.422-2.422zm0 3.824A1.404 1.404 0 0 1 5.871 19a1.403 1.403 0 0 1 2.805 0c0 .773-.63 1.402-1.403 1.402zm0 0"/>
</svg>
