<svg xmlns="http://www.w3.org/2000/svg" width="32" height="32" viewBox="0 0 24 24">
    <path d="M18.734 2.559l-.379-.102.22-.824c.218-.793-.31-1.43-.915-1.59-.672-.184-1.398.242-1.578.918l-.219.824-.379-.101c-1.105-.055-2.152.718-2.449 1.836l-1.027 3.855.98.266 1.028-3.856a1.397 1.397 0 0 1 1.18-1.023l-1.821 6.836H9.496V2.816a.51.51 0 0 0-.508-.511.513.513 0 0 0-.508.511v6.782H5.266L7.805 24h8.375l2.535-14.402h-1.86zm-1.672-1.336a.279.279 0 0 1 .336-.196c.125.036.235.145.196.34l-.219.824-.531-.144zm-.859 1.71l1.285.348-1.683 6.317h-1.38zm1.3 7.684L15.329 22.98H8.656L6.48 10.617zm0 0"/>
</svg>
