<svg xmlns="http://www.w3.org/2000/svg" width="32" height="32" viewBox="0 0 24 24">
    <path d="M13.05 7.578a5.461 5.461 0 0 0-5.472 5.473 5.462 5.462 0 0 0 5.473 5.476 5.463 5.463 0 0 0 5.476-5.476 5.462 5.462 0 0 0-5.476-5.473zm0 10.106a4.617 4.617 0 0 1-4.628-4.633 4.616 4.616 0 0 1 4.629-4.63 4.617 4.617 0 0 1 4.633 4.63 4.618 4.618 0 0 1-4.633 4.633zm0 0"/>
    <path d="M13.05 11.367c-.925 0-1.683.758-1.683 1.684 0 .93.758 1.687 1.684 1.687a1.69 1.69 0 0 0 1.687-1.687 1.69 1.69 0 0 0-1.687-1.684zm0 2.528a.844.844 0 0 1-.84-.844c0-.461.38-.84.84-.84.466 0 .845.379.845.84a.845.845 0 0 1-.844.844zm0 0M13.05 10.527c.255 0 .423-.168.423-.422 0-.253-.168-.421-.422-.421-.25 0-.418.168-.418.421 0 .254.168.422.418.422zm0 0M13.05 15.578c-.25 0-.417.168-.417.422s.168.422.418.422c.254 0 .422-.168.422-.422s-.168-.422-.422-.422zm0 0M16 12.633c-.254 0-.422.168-.422.418 0 .254.168.422.422.422s.422-.168.422-.422c0-.25-.168-.418-.422-.418zm0 0M10.105 12.633c-.253 0-.421.168-.421.418 0 .254.168.422.421.422.254 0 .422-.168.422-.422 0-.25-.168-.418-.422-.418zm0 0"/>
    <path d="M13.895 2.133V1.05c0-.293-.125-.547-.336-.758A1.03 1.03 0 0 0 12.8 0 13.434 13.434 0 0 0 0 12.8c0 .294.125.59.293.759.21.21.465.336.758.336h1.082C2.59 19.585 7.3 24 13.05 24 19.074 24 24 19.074 24 13.05 24 7.3 19.586 2.59 13.895 2.134zM.883 13.012c0-.043-.04-.086-.04-.168a12.606 12.606 0 0 1 12-12c.083 0 .126.039.169.082 0 0 .039.043.039.125v2.992c0 .082-.082.168-.168.168-4.63.293-8.38 4.043-8.672 8.672 0 .086-.086.168-.168.168H1.051c-.082 0-.125-.04-.168-.04zM13.05 23.156a10.06 10.06 0 0 1-10.063-9.261h1.055c.547 0 1.008-.422 1.008-.97.254-4.21 3.664-7.577 7.875-7.874.547 0 .969-.461.969-1.008V2.988a10.06 10.06 0 0 1 9.261 10.063c0 5.558-4.547 10.105-10.105 10.105zm0 0"/>
</svg>
