<svg xmlns="http://www.w3.org/2000/svg" width="32" height="32" viewBox="0 0 24 24">
    <path d="M 12 0 C 5.398438 0 0 5.398438 0 12 C 0 18.601562 5.398438 24 12 24 C 18.601562 24 24 18.601562 24 12 C 24 5.398438 18.601562 0 12 0 Z M 12 23.199219 C 5.839844 23.199219 0.800781 18.160156 0.800781 12 C 0.800781 5.839844 5.839844 0.800781 12 0.800781 C 18.160156 0.800781 23.199219 5.839844 23.199219 12 C 23.199219 18.160156 18.160156 23.199219 12 23.199219 Z M 12 23.199219"/>
    <path d="M 19.03125 5.484375 C 18.964844 5.382812 18.886719 5.289062 18.800781 5.199219 C 18.726562 5.132812 18.648438 5.070312 18.566406 5.011719 C 16.84375 3.394531 14.53125 2.398438 12 2.398438 C 9.417969 2.398438 7.070312 3.433594 5.339844 5.101562 C 5.304688 5.132812 5.273438 5.167969 5.238281 5.199219 C 5.238281 5.203125 5.238281 5.203125 5.238281 5.203125 C 3.488281 6.945312 2.398438 9.351562 2.398438 12 C 2.398438 17.28125 6.71875 21.601562 12 21.601562 C 14.648438 21.601562 17.050781 20.515625 18.792969 18.765625 C 18.796875 18.765625 18.796875 18.761719 18.800781 18.761719 C 18.800781 18.757812 18.804688 18.753906 18.804688 18.753906 C 20.53125 17.015625 21.601562 14.625 21.601562 12 C 21.601562 9.492188 20.625 7.199219 19.03125 5.484375 Z M 17.359375 16.160156 C 17.679688 16.160156 18 16.28125 18.199219 16.519531 C 18.679688 16.960938 18.679688 17.71875 18.199219 18.199219 C 17.761719 18.679688 17 18.640625 16.519531 18.199219 C 16.039062 17.761719 16.039062 17 16.519531 16.519531 C 16.761719 16.28125 17.039062 16.160156 17.359375 16.160156 Z M 16.160156 15.738281 C 16.089844 15.792969 16.023438 15.851562 15.960938 15.921875 C 15.910156 15.972656 15.863281 16.03125 15.816406 16.085938 C 14.816406 17.023438 13.472656 17.601562 12 17.601562 C 8.921875 17.601562 6.398438 15.078125 6.398438 12 C 6.398438 10.523438 6.980469 9.175781 7.921875 8.171875 C 7.976562 8.128906 8.027344 8.085938 8.078125 8.039062 C 8.128906 7.988281 8.171875 7.9375 8.214844 7.882812 C 9.214844 6.960938 10.542969 6.398438 12 6.398438 C 15.078125 6.398438 17.601562 8.921875 17.601562 12 C 17.601562 13.433594 17.054688 14.746094 16.160156 15.738281 Z M 7.839844 17.359375 C 7.839844 17.679688 7.71875 17.960938 7.480469 18.199219 C 7.039062 18.679688 6.28125 18.679688 5.800781 18.199219 C 5.558594 18 5.441406 17.679688 5.441406 17.359375 C 5.441406 17.039062 5.558594 16.761719 5.800781 16.519531 C 6 16.28125 6.320312 16.160156 6.640625 16.160156 C 6.960938 16.160156 7.238281 16.28125 7.480469 16.519531 C 7.511719 16.550781 7.542969 16.582031 7.574219 16.613281 C 7.75 16.8125 7.839844 17.085938 7.839844 17.359375 Z M 5.800781 7.480469 C 5.320312 7.039062 5.320312 6.28125 5.800781 5.800781 C 6.039062 5.558594 6.320312 5.441406 6.640625 5.441406 C 6.921875 5.441406 7.238281 5.558594 7.480469 5.800781 C 7.960938 6.238281 7.960938 7 7.480469 7.480469 C 7.464844 7.496094 7.449219 7.511719 7.433594 7.527344 C 6.988281 7.960938 6.261719 7.945312 5.800781 7.480469 Z M 16.519531 7.480469 C 16.488281 7.449219 16.457031 7.417969 16.425781 7.386719 C 16.25 7.1875 16.160156 6.914062 16.160156 6.640625 C 16.160156 6.320312 16.28125 6.039062 16.519531 5.800781 C 16.71875 5.558594 17.039062 5.441406 17.359375 5.441406 C 17.679688 5.441406 18 5.558594 18.199219 5.800781 C 18.679688 6.238281 18.679688 7 18.199219 7.480469 C 17.761719 7.921875 16.960938 7.921875 16.519531 7.480469 Z M 15.960938 5.199219 C 15.617188 5.578125 15.386719 6.066406 15.363281 6.5625 C 14.785156 6.203125 14.144531 5.933594 13.464844 5.769531 C 13.796875 5.414062 14 4.933594 14 4.398438 C 14 4.019531 13.898438 3.671875 13.722656 3.371094 C 14.855469 3.597656 15.914062 4.046875 16.847656 4.667969 C 16.511719 4.753906 16.199219 4.933594 15.960938 5.199219 Z M 13.199219 4.398438 C 13.199219 5.078125 12.679688 5.601562 12 5.601562 C 11.320312 5.601562 10.800781 5.078125 10.800781 4.398438 C 10.800781 3.71875 11.320312 3.199219 12 3.199219 C 12.679688 3.199219 13.199219 3.71875 13.199219 4.398438 Z M 10.535156 5.769531 C 9.859375 5.929688 9.222656 6.199219 8.648438 6.554688 C 8.636719 6.058594 8.449219 5.566406 8.078125 5.199219 C 7.8125 4.933594 7.492188 4.753906 7.152344 4.664062 C 8.085938 4.046875 9.144531 3.597656 10.277344 3.371094 C 10.101562 3.671875 10 4.019531 10 4.398438 C 10 4.933594 10.203125 5.414062 10.535156 5.769531 Z M 5.238281 8.039062 C 5.582031 8.417969 6.066406 8.617188 6.5625 8.636719 C 6.203125 9.214844 5.933594 9.855469 5.769531 10.535156 C 5.414062 10.203125 4.933594 10 4.398438 10 C 4.019531 10 3.671875 10.101562 3.371094 10.277344 C 3.605469 9.113281 4.070312 8.027344 4.71875 7.074219 C 4.796875 7.433594 4.96875 7.769531 5.238281 8.039062 Z M 4.398438 10.800781 C 5.078125 10.800781 5.601562 11.320312 5.601562 12 C 5.601562 12.679688 5.078125 13.199219 4.398438 13.199219 C 3.71875 13.199219 3.199219 12.679688 3.199219 12 C 3.199219 11.320312 3.71875 10.800781 4.398438 10.800781 Z M 4.398438 14 C 4.933594 14 5.414062 13.796875 5.769531 13.464844 C 5.933594 14.144531 6.203125 14.785156 6.5625 15.363281 C 6.070312 15.386719 5.621094 15.617188 5.238281 15.960938 C 4.960938 16.210938 4.78125 16.539062 4.695312 16.890625 C 4.058594 15.949219 3.601562 14.875 3.371094 13.722656 C 3.671875 13.898438 4.019531 14 4.398438 14 Z M 8.039062 18.800781 C 8.382812 18.421875 8.613281 17.933594 8.636719 17.4375 C 9.214844 17.796875 9.855469 18.066406 10.535156 18.230469 C 10.203125 18.585938 10 19.066406 10 19.601562 C 10 19.980469 10.101562 20.328125 10.277344 20.628906 C 9.125 20.398438 8.046875 19.9375 7.101562 19.300781 C 7.4375 19.21875 7.765625 19.046875 8.039062 18.800781 Z M 10.800781 19.601562 C 10.800781 18.921875 11.320312 18.398438 12 18.398438 C 12.679688 18.398438 13.199219 18.921875 13.199219 19.601562 C 13.199219 20.28125 12.679688 20.800781 12 20.800781 C 11.320312 20.800781 10.800781 20.28125 10.800781 19.601562 Z M 13.464844 18.230469 C 14.15625 18.066406 14.804688 17.789062 15.390625 17.421875 C 15.40625 17.914062 15.597656 18.394531 15.960938 18.761719 C 16.210938 19.039062 16.539062 19.21875 16.890625 19.304688 C 15.949219 19.941406 14.875 20.398438 13.722656 20.628906 C 13.898438 20.328125 14 19.980469 14 19.601562 C 14 19.066406 13.796875 18.585938 13.464844 18.230469 Z M 18.800781 15.921875 C 18.421875 15.5625 17.9375 15.363281 17.453125 15.339844 C 17.804688 14.765625 18.070312 14.136719 18.230469 13.464844 C 18.585938 13.796875 19.066406 14 19.601562 14 C 19.980469 14 20.328125 13.898438 20.628906 13.722656 C 20.398438 14.867188 19.949219 15.929688 19.320312 16.871094 C 19.238281 16.519531 19.066406 16.1875 18.800781 15.921875 Z M 19.601562 13.199219 C 18.921875 13.199219 18.398438 12.679688 18.398438 12 C 18.398438 11.320312 18.921875 10.800781 19.601562 10.800781 C 20.28125 10.800781 20.800781 11.320312 20.800781 12 C 20.800781 12.679688 20.28125 13.199219 19.601562 13.199219 Z M 19.601562 10 C 19.066406 10 18.585938 10.203125 18.230469 10.535156 C 18.066406 9.855469 17.796875 9.214844 17.4375 8.636719 C 17.964844 8.617188 18.417969 8.382812 18.800781 8.039062 C 19.054688 7.773438 19.222656 7.449219 19.308594 7.113281 C 19.941406 8.054688 20.398438 9.125 20.628906 10.277344 C 20.328125 10.101562 19.980469 10 19.601562 10 Z M 19.601562 10"/>
    <path d="M 12 7.601562 C 9.558594 7.601562 7.601562 9.558594 7.601562 12 C 7.601562 14.441406 9.558594 16.398438 12 16.398438 C 14.441406 16.398438 16.398438 14.441406 16.398438 12 C 16.398438 9.558594 14.441406 7.601562 12 7.601562 Z M 12 15.601562 C 10 15.601562 8.398438 14 8.398438 12 C 8.398438 10 10 8.398438 12 8.398438 C 14 8.398438 15.601562 10 15.601562 12 C 15.601562 14 14 15.601562 12 15.601562 Z M 12 15.601562"/>
</svg>
