<svg xmlns="http://www.w3.org/2000/svg" width="32" height="32" viewBox="0 0 24 24">
    <path d="M 23.078125 0 L 20.121094 0 C 19.640625 0 19.265625 0.339844 19.207031 0.800781 L 17.375 0.800781 C 17.261719 0.753906 17.121094 0.765625 17 0.839844 L 13.199219 3.257812 L 13.199219 2.398438 C 13.199219 2.160156 13.039062 2 12.800781 2 L 11.199219 2 C 10.960938 2 10.800781 2.160156 10.800781 2.398438 L 10.800781 3.234375 L 7.039062 0.839844 C 6.917969 0.765625 6.78125 0.753906 6.664062 0.800781 L 4.792969 0.800781 C 4.734375 0.339844 4.359375 0 3.878906 0 L 0.921875 0 C 0.398438 0 0 0.398438 0 0.921875 L 0 1.480469 C 0 2 0.398438 2.398438 0.921875 2.398438 L 3.878906 2.398438 C 4.359375 2.398438 4.734375 2.058594 4.792969 1.601562 L 6.726562 1.601562 L 10.800781 4.191406 L 10.800781 4.800781 C 10.800781 5.039062 10.960938 5.199219 11.199219 5.199219 L 11.601562 5.199219 L 11.601562 5.761719 L 9.441406 6.839844 C 9.28125 6.921875 9.199219 7.039062 9.199219 7.199219 L 9.199219 8.398438 L 8.398438 8.398438 C 8.160156 8.398438 8 8.558594 8 8.800781 L 8 12.800781 C 8 12.921875 8.078125 13.078125 8.199219 13.160156 C 8.238281 13.199219 8.320312 13.199219 8.398438 13.199219 C 8.480469 13.199219 8.519531 13.199219 8.558594 13.160156 L 9.199219 12.839844 L 9.199219 15.199219 L 8 15.199219 C 7.761719 15.199219 7.601562 15.359375 7.601562 15.601562 L 7.601562 18 L 6.390625 18 C 6.335938 17.539062 5.960938 17.199219 5.480469 17.199219 L 3.71875 17.199219 C 3.199219 17.199219 2.800781 17.601562 2.800781 18.121094 L 2.800781 18.679688 C 2.800781 19.199219 3.199219 19.601562 3.71875 19.601562 L 5.480469 19.601562 C 5.960938 19.601562 6.335938 19.261719 6.390625 18.800781 L 8 18.800781 C 8.238281 18.800781 8.398438 18.640625 8.398438 18.398438 L 8.398438 16 L 9.199219 16 L 9.199219 18.800781 C 9.199219 18.960938 9.28125 19.078125 9.398438 19.160156 L 10.800781 19.859375 L 10.800781 22.800781 C 10.800781 23.480469 11.320312 24 12 24 C 12.679688 24 13.199219 23.480469 13.199219 22.800781 L 13.199219 19.859375 L 14.601562 19.160156 C 14.761719 19.078125 14.839844 18.960938 14.839844 18.800781 L 14.839844 16 L 15.601562 16 L 15.601562 18.398438 C 15.601562 18.640625 15.761719 18.800781 16 18.800781 L 17.609375 18.800781 C 17.664062 19.261719 18.039062 19.601562 18.519531 19.601562 L 20.28125 19.601562 C 20.800781 19.601562 21.199219 19.199219 21.199219 18.679688 L 21.199219 18.121094 C 21.199219 17.601562 20.800781 17.199219 20.28125 17.199219 L 18.519531 17.199219 C 17.960938 17.199219 17.601562 17.519531 17.601562 18 L 16.398438 18 L 16.398438 15.601562 C 16.398438 15.359375 16.238281 15.199219 16 15.199219 L 14.839844 15.199219 L 14.839844 12.859375 L 15.441406 13.160156 C 15.480469 13.199219 15.519531 13.199219 15.601562 13.199219 C 15.679688 13.199219 15.761719 13.199219 15.800781 13.160156 C 15.921875 13.078125 16 12.921875 16 12.800781 L 16 8.800781 C 16 8.558594 15.839844 8.398438 15.601562 8.398438 L 14.839844 8.398438 L 14.839844 7.199219 C 14.839844 7.039062 14.71875 6.921875 14.601562 6.839844 L 12.398438 5.738281 L 12.398438 5.199219 L 12.800781 5.199219 C 13.039062 5.199219 13.199219 5.039062 13.199219 4.800781 L 13.199219 4.21875 L 17.3125 1.601562 L 19.207031 1.601562 C 19.265625 2.058594 19.640625 2.398438 20.121094 2.398438 L 23.078125 2.398438 C 23.601562 2.398438 24 2 24 1.480469 L 24 0.921875 C 24 0.398438 23.601562 0 23.078125 0 Z M 4 1.480469 C 4 1.558594 3.960938 1.601562 3.878906 1.601562 L 0.921875 1.601562 C 0.839844 1.601562 0.800781 1.558594 0.800781 1.480469 L 0.800781 0.921875 C 0.800781 0.839844 0.839844 0.800781 0.921875 0.800781 L 3.878906 0.800781 C 3.960938 0.800781 4 0.839844 4 0.921875 Z M 5.601562 18.679688 C 5.601562 18.761719 5.558594 18.800781 5.480469 18.800781 L 3.71875 18.800781 C 3.640625 18.800781 3.601562 18.761719 3.601562 18.679688 L 3.601562 18.121094 C 3.601562 18.039062 3.640625 18 3.71875 18 L 5.480469 18 C 5.558594 18 5.601562 18.039062 5.601562 18.121094 Z M 18.519531 18 L 18.519531 18.039062 L 20.320312 18.039062 C 20.398438 18.039062 20.441406 18.078125 20.441406 18.160156 L 20.441406 18.71875 C 20.441406 18.800781 20.398438 18.839844 20.320312 18.839844 L 18.558594 18.839844 C 18.480469 18.839844 18.441406 18.800781 18.441406 18.71875 L 18.398438 18.039062 C 18.398438 18 18.441406 18 18.519531 18 Z M 8.800781 9.199219 L 10.398438 9.199219 L 10.398438 11.359375 L 9.441406 11.839844 L 8.800781 12.160156 Z M 12.398438 22.800781 C 12.398438 23.039062 12.238281 23.199219 12 23.199219 C 11.761719 23.199219 11.601562 23.039062 11.601562 22.800781 L 11.601562 13.601562 C 11.601562 13.359375 11.761719 13.199219 12 13.199219 C 12.238281 13.199219 12.398438 13.359375 12.398438 13.601562 Z M 15.199219 12.160156 L 14.679688 11.898438 C 14.652344 11.878906 14.625 11.859375 14.601562 11.839844 L 13.640625 11.359375 L 13.640625 9.199219 L 15.199219 9.199219 Z M 14 8.398438 L 13.199219 8.398438 C 12.960938 8.398438 12.800781 8.558594 12.800781 8.800781 L 12.800781 11.601562 C 12.800781 11.660156 12.8125 11.714844 12.832031 11.761719 C 12.871094 11.84375 12.941406 11.910156 13.039062 11.960938 L 14 12.441406 L 14 18.558594 L 13.199219 18.960938 L 13.199219 13.601562 C 13.199219 12.921875 12.679688 12.398438 12 12.398438 C 11.320312 12.398438 10.800781 12.921875 10.800781 13.601562 L 10.800781 18.960938 L 10 18.558594 L 10 12.441406 L 10.960938 11.960938 C 11.121094 11.878906 11.199219 11.761719 11.199219 11.601562 L 11.199219 8.800781 C 11.199219 8.558594 11.039062 8.398438 10.800781 8.398438 L 10 8.398438 L 10 7.441406 L 12 6.441406 L 14 7.441406 Z M 12.398438 4.398438 L 11.601562 4.398438 L 11.601562 4.117188 C 11.636719 4.015625 11.636719 3.914062 11.601562 3.824219 L 11.601562 2.800781 L 12.398438 2.800781 Z M 23.199219 1.480469 C 23.199219 1.558594 23.160156 1.601562 23.078125 1.601562 L 20.121094 1.601562 C 20.039062 1.601562 20 1.558594 20 1.480469 L 20 0.921875 C 20 0.839844 20.039062 0.800781 20.121094 0.800781 L 23.078125 0.800781 C 23.160156 0.800781 23.199219 0.839844 23.199219 0.921875 Z M 23.199219 1.480469"/>
</svg>
