<svg xmlns="http://www.w3.org/2000/svg" width="32" height="32" viewBox="0 0 24 24">
    <path d="M 20 11.394531 C 19.359375 11.394531 18.753906 11.546875 18.214844 11.820312 L 16.761719 9.554688 C 16.742188 9.527344 16.722656 9.5 16.699219 9.480469 L 15.71875 7.554688 L 17.601562 6.59375 C 17.722656 6.59375 17.839844 6.554688 17.921875 6.433594 C 18.039062 6.273438 18 5.996094 17.839844 5.875 L 16.238281 4.675781 C 16.078125 4.554688 15.800781 4.59375 15.679688 4.753906 C 15.558594 4.914062 15.601562 5.195312 15.761719 5.316406 L 16.832031 6.117188 L 15 7.035156 C 14.839844 7.113281 14.761719 7.355469 14.839844 7.554688 L 15.761719 9.394531 L 11.601562 9.394531 C 10.40625 9.394531 9.214844 9.683594 8.234375 10.171875 L 7.101562 8.195312 L 8.398438 8.195312 C 8.640625 8.195312 8.800781 8.035156 8.800781 7.792969 C 8.800781 7.554688 8.640625 7.394531 8.398438 7.394531 L 5.601562 7.394531 C 5.359375 7.394531 5.199219 7.554688 5.199219 7.792969 C 5.199219 8.035156 5.359375 8.195312 5.601562 8.195312 L 6.15625 8.195312 L 7.519531 10.585938 C 7.101562 10.871094 6.746094 11.199219 6.480469 11.554688 L 6.125 12.011719 C 5.507812 11.621094 4.78125 11.394531 4 11.394531 C 1.800781 11.394531 0 13.195312 0 15.394531 C 0 17.59375 1.800781 19.394531 4 19.394531 C 5.882812 19.394531 7.46875 18.078125 7.890625 16.320312 L 9.640625 16.550781 C 9.804688 17.261719 10.441406 17.792969 11.199219 17.792969 C 12.078125 17.792969 12.800781 17.074219 12.800781 16.195312 C 12.800781 15.792969 12.648438 15.425781 12.402344 15.144531 C 12.472656 12.78125 13.972656 10.332031 16.210938 10.199219 L 17.53125 12.253906 C 16.601562 12.988281 16 14.125 16 15.394531 C 16 17.59375 17.800781 19.394531 20 19.394531 C 22.199219 19.394531 24 17.59375 24 15.394531 C 24 13.195312 22.199219 11.394531 20 11.394531 Z M 7.199219 15.40625 L 4.761719 15.074219 L 6.261719 13.136719 C 6.839844 13.71875 7.199219 14.515625 7.199219 15.394531 C 7.199219 15.398438 7.199219 15.402344 7.199219 15.40625 Z M 4 18.59375 C 2.238281 18.59375 0.800781 17.15625 0.800781 15.394531 C 0.800781 13.636719 2.238281 12.195312 4 12.195312 C 4.59375 12.195312 5.152344 12.359375 5.632812 12.644531 L 3.679688 15.15625 C 3.601562 15.273438 3.601562 15.433594 3.640625 15.554688 C 3.679688 15.675781 3.800781 15.792969 3.960938 15.792969 L 7.09375 16.210938 C 6.730469 17.578125 5.476562 18.59375 4 18.59375 Z M 6.757812 12.503906 L 7.121094 12.035156 C 7.339844 11.75 7.632812 11.488281 7.972656 11.257812 L 10.285156 14.886719 C 9.992188 15.09375 9.769531 15.394531 9.664062 15.742188 L 7.996094 15.515625 C 8 15.476562 8 15.4375 8 15.394531 C 8 14.261719 7.519531 13.234375 6.757812 12.503906 Z M 11.199219 16.996094 C 10.761719 16.996094 10.398438 16.636719 10.398438 16.195312 C 10.398438 15.753906 10.761719 15.394531 11.199219 15.394531 C 11.371094 15.394531 11.53125 15.449219 11.660156 15.542969 C 11.695312 15.597656 11.742188 15.640625 11.800781 15.671875 C 11.925781 15.8125 12 15.996094 12 16.195312 C 12 16.636719 11.640625 16.996094 11.199219 16.996094 Z M 11.632812 14.65625 C 11.496094 14.617188 11.351562 14.59375 11.199219 14.59375 C 11.152344 14.59375 11.109375 14.597656 11.0625 14.601562 L 8.675781 10.855469 C 9.535156 10.441406 10.574219 10.195312 11.601562 10.195312 L 14 10.195312 C 12.671875 11.167969 11.808594 12.894531 11.632812 14.65625 Z M 20 18.59375 C 18.238281 18.59375 16.800781 17.15625 16.800781 15.394531 C 16.800781 14.40625 17.253906 13.515625 17.964844 12.929688 L 19.679688 15.59375 C 19.71875 15.714844 19.878906 15.792969 20 15.792969 C 20.078125 15.792969 20.160156 15.753906 20.238281 15.714844 C 20.441406 15.59375 20.480469 15.355469 20.359375 15.15625 L 18.652344 12.496094 C 19.0625 12.304688 19.519531 12.195312 20 12.195312 C 21.761719 12.195312 23.199219 13.636719 23.199219 15.394531 C 23.199219 17.15625 21.761719 18.59375 20 18.59375 Z M 20 18.59375"/>
</svg>
