<svg xmlns="http://www.w3.org/2000/svg" width="32" height="32" viewBox="0 0 24 24">
    <path d="M15.414 4.613H12.54a.969.969 0 0 0-.957.957v3.676c0 .52.438.957.957.957h2.875c.52 0 .957-.437.957-.957V5.57a.969.969 0 0 0-.957-.957zm.16 4.633c0 .078-.078.16-.16.16H12.54c-.078 0-.16-.082-.16-.16V5.57c0-.078.082-.16.16-.16h2.875c.082 0 .16.082.16.16zm0 0M9.426 4.613H6.55c-.52 0-.961.438-.961.957v3.676c0 .52.441.957.96.957h2.876c.52 0 .957-.437.957-.957V5.57a.969.969 0 0 0-.957-.957zm.16 4.633c0 .078-.082.16-.16.16H6.55c-.082 0-.16-.082-.16-.16V5.57c0-.078.078-.16.16-.16h2.875c.078 0 .16.082.16.16zm0 0M4.793 16.191c-.441 0-.8.36-.8.801 0 .438.359.797.8.797a.8.8 0 0 0 .797-.797c0-.441-.36-.8-.797-.8zm0 0"/>
    <path d="M24 8.207c0-.36-.121-.68-.36-.918l-3.472-3.836c-.281-.277-.64-.437-1-.437H1.199C.56 3.016 0 3.536 0 4.215V16.19c0 .641.52 1.2 1.2 1.2h.823a2.778 2.778 0 0 0 2.77 2.394 2.774 2.774 0 0 0 2.766-2.394h6.855v3.593H24zm-1-.398c.121.078.16.238.16.359v1.238h-4.789V5.41h2.434zM.797 5.41h2.719c.039 0 .078.04.078.082v3.832c0 .04-.04.082-.078.082H.796zm3.996 13.578a1.977 1.977 0 0 1-1.996-1.996c0-1.117.879-1.996 1.996-1.996s1.996.879 1.996 1.996a1.977 1.977 0 0 1-1.996 1.996zm9.582-7.586v5.192H7.559a2.774 2.774 0 0 0-2.766-2.399h-.04a2.796 2.796 0 0 0-2.757 2.399H1.2c-.199 0-.402-.16-.402-.403v-2.793h11.582c.238 0 .398-.16.398-.398 0-.242-.16-.402-.398-.402H.797V11.8h9.984c.242 0 .399-.16.399-.399 0-.242-.157-.402-.399-.402H.797v-.797h2.719a.888.888 0 0 0 .879-.879V5.492a.888.888 0 0 0-.88-.879H.798v-.398c0-.203.203-.402.402-.402h17.969c.121 0 .281.082.398.16l.575.64H18.25c-.36 0-.68.32-.68.68v4.23c0 .36.32.68.68.68h4.91v1.2zm8.828 8.786h-3.637v-5.032l1.72 1.715.558-.558-2.676-2.676-2.676 2.675.559.56 1.719-1.716v5.031h-3.555V12.2h7.988zm0 0"/>
</svg>
