<svg xmlns="http://www.w3.org/2000/svg" width="32" height="32" viewBox="0 0 24 24">
    <path d="M18.809 11.043c-1.516 0-2.954.598-3.914 1.715-.16.16-.122.398.039.558.16.16.402.121.562-.039.797-.957 1.996-1.476 3.274-1.476a4.38 4.38 0 0 1 4.39 4.39 4.38 4.38 0 0 1-4.39 4.395c-1.989 0-3.739-1.356-4.282-3.195h1.883v-.797h-2.348a.336.336 0 0 0-.125 0h-.718v3.191h.797v-1.43c.835 1.782 2.707 3.028 4.793 3.028 2.875 0 5.23-2.274 5.23-5.149a5.181 5.181 0 0 0-5.191-5.191zm0 0M16.371 8.844V5.172a.969.969 0 0 0-.957-.957H12.54a.969.969 0 0 0-.957.957v3.672c0 .52.438.96.957.96h2.875c.52 0 .957-.44.957-.96zm-3.992 0V5.172c0-.082.082-.16.16-.16h2.875a.17.17 0 0 1 .16.16v3.672c0 .082-.082.16-.16.16H12.54c-.078 0-.16-.078-.16-.16zm0 0M6.55 4.215c-.519 0-.96.437-.96.957v3.672c0 .52.441.96.96.96h2.876c.52 0 .957-.44.957-.96V5.172a.969.969 0 0 0-.957-.957zm3.036.957v3.672c0 .082-.082.16-.16.16H6.55a.17.17 0 0 1-.16-.16V5.172a.17.17 0 0 1 .16-.16h2.875c.078 0 .16.078.16.16zm0 0M4.793 15.793c-.441 0-.8.36-.8.8 0 .438.359.798.8.798a.8.8 0 0 0 .797-.797c0-.442-.36-.801-.797-.801zm0 0"/>
    <path d="M23.64 6.887l-3.472-3.832c-.281-.278-.64-.438-1-.438H1.199C.56 2.617 0 3.133 0 3.813v11.98c0 .64.52 1.2 1.2 1.2h.823a2.778 2.778 0 0 0 2.77 2.394 2.774 2.774 0 0 0 2.766-2.395h4.023v-.8H7.559a2.774 2.774 0 0 0-2.766-2.395h-.04a2.796 2.796 0 0 0-2.757 2.394H1.2a.4.4 0 0 1-.402-.398V13H13.18c.238 0 .398-.16.398-.402 0-.239-.16-.399-.398-.399H.797v-.797h10.785c.238 0 .398-.16.398-.402 0-.238-.16-.398-.398-.398H.797v-.797h2.719a.888.888 0 0 0 .879-.88V5.09a.887.887 0 0 0-.88-.875H.798v-.402c0-.2.203-.399.402-.399h17.969c.121 0 .281.082.398.16l.579.64H18.25c-.36 0-.68.317-.68.677v4.234c0 .36.32.68.68.68h4.953V11.8H24V7.809c0-.36-.121-.68-.36-.922zM4.794 18.59a1.977 1.977 0 0 1-1.996-1.996c0-1.121.879-2 1.996-2s1.996.879 1.996 2a1.977 1.977 0 0 1-1.996 1.996zM3.516 5.012c.039 0 .078.039.078.078v3.836c0 .039-.04.078-.078.078H.796V5.012zM23.16 9.004h-4.789V5.012h2.434L23 7.406c.121.082.16.242.16.36zm0 0"/>
</svg>
