<svg xmlns="http://www.w3.org/2000/svg" width="32" height="32" viewBox="0 0 24 24">
    <path d="M17.969 14.156v3.196c0 .238.16.398.402.398a.4.4 0 0 0 .399-.398v-3.196c0-.238-.16-.398-.399-.398-.242 0-.402.16-.402.398zm0 0M15.414 4.652H12.54a.969.969 0 0 0-.957.957v3.676c0 .52.438.957.957.957h2.875c.52 0 .957-.437.957-.957V5.61a.969.969 0 0 0-.957-.957zm.16 4.633c0 .078-.078.16-.16.16H12.54c-.078 0-.16-.082-.16-.16V5.61c0-.078.082-.16.16-.16h2.875c.082 0 .16.082.16.16zm0 0M9.426 4.652H6.55c-.52 0-.961.438-.961.957v3.676c0 .52.441.957.96.957h2.876c.52 0 .957-.437.957-.957V5.61a.969.969 0 0 0-.957-.957zm.16 4.633c0 .078-.082.16-.16.16H6.55c-.082 0-.16-.082-.16-.16V5.61c0-.078.078-.16.16-.16h2.875c.078 0 .16.082.16.16zm0 0M4.793 16.234c-.441 0-.8.36-.8.797 0 .442.359.801.8.801.437 0 .797-.36.797-.8a.8.8 0 0 0-.797-.798zm0 0"/>
    <path d="M24 16.234V8.246c0-.36-.121-.68-.36-.918l-3.472-3.832a1.432 1.432 0 0 0-1-.441H1.199C.56 3.055 0 3.575 0 4.254v11.98c0 .637.52 1.196 1.2 1.196h.823a2.778 2.778 0 0 0 2.77 2.398 2.774 2.774 0 0 0 2.766-2.398h6.57l-1.27 2.199a.857.857 0 0 0 0 .875c.16.281.438.441.758.441h9.465c.32 0 .598-.16.719-.48a.864.864 0 0 0 0-.88l-1.254-2.155h.215c.64 0 1.199-.559 1.238-1.196zm-1-8.386c.121.078.16.238.16.359v1.238h-4.789V5.45h2.434zM.797 5.449h2.719c.039 0 .078.043.078.082v3.832c0 .043-.04.082-.078.082H.796zm3.996 13.578a1.977 1.977 0 0 1-1.996-1.996c0-1.117.879-1.996 1.996-1.996s1.996.88 1.996 1.996a1.977 1.977 0 0 1-1.996 1.996zm18.367 1.04s-.039.038-.078.038h-9.465c-.039 0-.078 0-.078-.039 0 0-.043-.039 0-.078l4.711-8.11c.04-.038.04-.038.078-.038.043 0 .082 0 .082.039l4.75 8.11c.043.038 0 .077 0 .077zm-1.433-4.044a2.923 2.923 0 0 0-.473-.816L19.09 11.48a.863.863 0 0 0-.762-.437.861.861 0 0 0-.758.437l-3.074 5.153H7.56a2.777 2.777 0 0 0-2.766-2.399c-.008 0-.016.004-.02.004-.007 0-.015-.004-.02-.004a2.796 2.796 0 0 0-2.757 2.399H1.2c-.199 0-.402-.16-.402-.399v-2.797h13.98c.239 0 .399-.16.399-.398 0-.242-.16-.398-.399-.398H.797v-.801H13.18c.238 0 .398-.16.398-.399 0-.238-.16-.398-.398-.398H.797v-.8h2.719a.888.888 0 0 0 .879-.88V5.531a.888.888 0 0 0-.88-.879H.798v-.398c0-.2.203-.399.402-.399h17.969c.121 0 .281.079.398.157l.575.64H18.25c-.36 0-.68.32-.68.68v4.23c0 .36.32.68.68.68h4.91v1.996h-1.996c-.238 0-.398.16-.398.403 0 .238.16.398.398.398h1.996v3.195a.4.4 0 0 1-.398.399h-.637l-.254-.367zm0 0"/>
</svg>
