<svg xmlns="http://www.w3.org/2000/svg" width="32" height="32" viewBox="0 0 24 24">
    <path d="M15.414 7.809H12.54a.969.969 0 0 0-.957.957v3.671c0 .52.438.961.957.961h2.875c.52 0 .957-.441.957-.96V8.765a.969.969 0 0 0-.957-.957zm.16 4.628a.17.17 0 0 1-.16.16H12.54c-.078 0-.16-.077-.16-.16V8.767c0-.082.082-.16.16-.16h2.875a.17.17 0 0 1 .16.16zm0 0M9.426 7.809H6.55c-.52 0-.961.437-.961.957v3.671c0 .52.441.961.96.961h2.876c.52 0 .957-.441.957-.96V8.765a.969.969 0 0 0-.957-.957zm.16 4.628c0 .083-.082.16-.16.16H6.55a.17.17 0 0 1-.16-.16V8.767a.17.17 0 0 1 .16-.16h2.875c.078 0 .16.078.16.16zm0 0M19.168 19.387a.801.801 0 0 0-.797.8.8.8 0 0 0 .797.797.8.8 0 0 0 .797-.797c0-.44-.36-.8-.797-.8zm0 0M4.793 19.387c-.441 0-.8.36-.8.8 0 .438.359.797.8.797a.8.8 0 0 0 .797-.797c0-.44-.36-.8-.797-.8zm0 0"/>
    <path d="M23.64 10.484l-3.472-3.836c-.281-.277-.64-.437-1-.437h-3.945l1.675-1.2h4.946l.16-.558-4.195-3.355-.118-.078H.797A.8.8 0 0 0 0 1.816v2.399a.8.8 0 0 0 .797.797h2.27L4.741 6.21H1.2C.56 6.21 0 6.73 0 7.406v11.98c0 .641.52 1.2 1.2 1.2h.823a2.778 2.778 0 0 0 2.77 2.394 2.774 2.774 0 0 0 2.766-2.394h8.843a2.77 2.77 0 0 0 2.766 2.394 2.77 2.77 0 0 0 2.766-2.394h.828c.64 0 1.199-.559 1.238-1.2v-7.984c0-.359-.121-.68-.36-.918zm-1.808-.761L22.961 11c.121.082.16.242.16.36v1.238h-4.75V8.605h2.434zM.797 1.816h16.652l2.996 2.399H.797zM4.44 5.012h11.086l-1.68 1.199h-7.73zM.797 8.605h2.719c.039 0 .078.04.078.079v3.836c0 .039-.04.078-.078.078H.796zm3.996 13.579a1.977 1.977 0 0 1-1.996-1.997c0-1.12.879-1.996 1.996-1.996s1.996.875 1.996 1.997a1.977 1.977 0 0 1-1.996 1.996zm14.375 0a1.977 1.977 0 0 1-1.996-1.997c0-1.12.879-1.996 1.996-1.996s1.996.875 1.996 1.997a1.977 1.977 0 0 1-1.996 1.996zm3.555-2.399h-.79a2.77 2.77 0 0 0-2.765-2.394h-.078a2.796 2.796 0 0 0-2.758 2.394H7.559a2.774 2.774 0 0 0-2.766-2.394h-.04a2.796 2.796 0 0 0-2.757 2.394H1.2a.4.4 0 0 1-.402-.398v-2.793h13.98c.239 0 .399-.16.399-.403 0-.238-.16-.398-.399-.398H.797v-.797H13.18c.238 0 .398-.16.398-.398 0-.243-.16-.403-.398-.403H.797v-.797h2.719a.888.888 0 0 0 .879-.878V8.684a.887.887 0 0 0-.88-.875H.798v-.403a.4.4 0 0 1 .402-.398h17.969c.16 0 .281.039.398.16l.567.64H18.25c-.36 0-.68.317-.68.676v4.235c0 .36.32.68.68.68h4.871v1.996h-1.957c-.238 0-.398.16-.398.398 0 .242.16.398.398.398h1.957v3.196a.4.4 0 0 1-.398.398zm0 0"/>
</svg>
