<svg xmlns="http://www.w3.org/2000/svg" width="32" height="32" viewBox="0 0 24 24">
    <path d="M13.16 10h-2.32c-.442 0-.84.36-.84.84v4.719c0 .441.398.84.84.84h2.32a.87.87 0 0 0 .84-.84v-4.72c0-.44-.36-.839-.84-.839zm.04 5.559s0 .043-.04.043h-2.32s-.04 0-.04-.043v-4.72s0-.038.04-.038h2.32s.04 0 .04.039zm0 0M11.602 18h-1.204c-.238 0-.398.16-.398.398 0 .243.16.403.398.403h.801v.8c0 .239.16.399.403.399.238 0 .398-.16.398-.398v-1.204c0-.238-.16-.398-.398-.398zm0 0"/>
    <path d="M21.922 10.238l-.063-.117a11.786 11.786 0 0 0-2.058-3.281 1.303 1.303 0 0 0-1-.442H12V3.785c.234.137.508.215.8.215.88 0 1.598-.719 1.598-1.602 0-.878-.718-1.597-1.597-1.597-.293 0-.567.078-.801.215V.398C12 .16 11.84 0 11.602 0c-.243 0-.403.16-.403.398v.618A1.583 1.583 0 0 0 10.4.8C9.518.8 8.8 1.52 8.8 2.398 8.8 3.281 9.52 4 10.398 4c.293 0 .567-.078.801-.215v2.613H5.24c-.4 0-.759.16-1 .442a11.957 11.957 0 0 0-2 3.16h-.04l-.12.238c-.72 1.84-1 3.84-.84 5.801l.042.36h.032c.3 2.617 1.41 5.163 3.328 7.203.238.238.597.398.96.398h12.797c.364 0 .723-.16 1-.398a12.723 12.723 0 0 0 3.387-7.875 12.413 12.413 0 0 0-.863-5.489zM12.8 1.602c.437 0 .8.359.8.796 0 .442-.363.801-.8.801-.442 0-.801-.36-.801-.8 0-.438.36-.797.8-.797zm-2.403 1.597a.801.801 0 0 1-.796-.8.8.8 0 0 1 .796-.797c.442 0 .801.359.801.796 0 .442-.36.801-.8.801zm11.586 12.403h-4.343l-.04-.043.04-4.758h3.625c.574 1.527.812 3.168.718 4.8zM2.762 10.8l3.636.039v4.762H2.04c-.117-1.641.121-3.282.723-4.801zm6.437 12.398V9.24s0-.04.04-.04h5.523s.039 0 .039.04v13.96zm9.602-.16a.516.516 0 0 1-.403.16h-2.796V9.24a.849.849 0 0 0-.84-.84H9.238a.849.849 0 0 0-.84.84v13.96H5.602c-.16 0-.32-.039-.403-.16a11.887 11.887 0 0 1-3.11-6.64h4.27c.48 0 .84-.36.84-.797V10.84c0-.48-.398-.84-.84-.84H3.074a11.06 11.06 0 0 1 1.727-2.64.612.612 0 0 1 .398-.16h13.602c.16 0 .32.038.398.16.711.808 1.29 1.699 1.727 2.64H17.64c-.48 0-.84.398-.84.84v4.719c0 .48.398.84.84.84h4.27a11.887 11.887 0 0 1-3.11 6.64zm0 0"/>
    <path d="M8 2.398C8 2.16 7.84 2 7.602 2H.398C.16 2 0 2.16 0 2.398c0 .243.16.403.398.403h7.204C7.84 2.8 8 2.64 8 2.398zm0 0M23.602 2H16c-.238 0-.398.16-.398.398 0 .243.16.403.398.403h7.602c.238 0 .398-.16.398-.403C24 2.16 23.84 2 23.602 2zm0 0"/>
</svg>
