<svg xmlns="http://www.w3.org/2000/svg" width="32" height="32" viewBox="0 0 24 24">
    <path d="M22.602 23.2h-.403v-.962a4.12 4.12 0 0 0-1.875-3.437 4.122 4.122 0 0 0 1.875-3.442v-.96h.403c.238 0 .398-.16.398-.399 0-.238-.16-.398-.398-.398H21V2c0-.68-.52-1.2-1.2-1.2h-5.198c0-.44-.364-.8-.801-.8H8.199c-.437 0-.8.36-.8.8h-5.2C1.52.8 1 1.32 1 2v20.8c0 .68.52 1.2 1.2 1.2h20.402c.238 0 .398-.16.398-.398 0-.243-.16-.403-.398-.403zM8.199 4h5.602c.437 0 .8-.36.8-.8h4.04v10.402h-3.243c-.238 0-.398.16-.398.398 0 .238.16.398.398.398h.403v.961c0 1.391.71 2.664 1.898 3.426a4.147 4.147 0 0 0-1.765 2.43c-.004.004-.004.012-.008.02l-.024.105-.011.047-.024.12c-.004.032-.012.063-.015.095H3.398V3.199h4c0 .442.364.801.801.801zm13.2 11.36c0 1.288-.758 2.46-1.985 3h-.828a3.477 3.477 0 0 1-.555-.31c-.015-.007-.027-.019-.043-.027a.14.14 0 0 0-.039-.027 3.36 3.36 0 0 1-.89-.976c-.004-.008-.008-.012-.008-.016a1.376 1.376 0 0 0-.047-.078c-.008-.012-.012-.024-.02-.035-.011-.02-.02-.04-.03-.063a.636.636 0 0 1-.024-.05l-.024-.048a.346.346 0 0 1-.031-.066.704.704 0 0 1-.047-.113c-.004-.008-.008-.012-.008-.02-.011-.031-.027-.062-.035-.097-.004 0-.004-.004-.004-.008a3.21 3.21 0 0 1-.144-.578c-.008-.04-.012-.078-.016-.118v-.015l-.012-.11c0-.011 0-.027-.004-.043 0-.027-.003-.05-.003-.078V14.4h4.796zM19.8 1.601c.238 0 .398.16.398.398v11.602h-.8V3.199c0-.437-.36-.8-.797-.8h-4v-.797zM8.199.8h5.602v2.398H8.199zm-6 22.398c-.238 0-.398-.16-.398-.398V2c0-.238.16-.398.398-.398h5.2v.796h-4a.804.804 0 0 0-.797.801v18.403a.8.8 0 0 0 .796.796h12.403v.801zm14.403-.96v-.106A.477.477 0 0 0 16.64 22a3.254 3.254 0 0 1 1.406-2.465c.195-.129.406-.242.633-.336h.64c1.282.52 2.078 1.723 2.078 3.04v.96h-4.796zm0 0"/>
    <path d="M5.64 8.36c-.6 0-1.038.48-1.038 1.038v1.563c0 .598.437 1.039 1.039 1.039h.609c.18.688.809 1.2 1.55 1.2.743 0 1.372-.512 1.548-1.2h3.304c.176.688.805 1.2 1.547 1.2.742 0 1.371-.512 1.551-1.2h.61c.6 0 1.038-.441 1.081-1.04V9.399c0-.597-.48-1.039-1.043-1.039h-.851L14 6.2a1.273 1.273 0 0 0-1.078-.558h-1.735A.413.413 0 0 0 11 5.6a.413.413 0 0 0-.188.04H9.079c-.437 0-.84.199-1.078.558L6.453 8.36zm2.16 4.038c-.44 0-.8-.359-.8-.796 0-.442.36-.801.8-.801.438 0 .802.36.802.8a.804.804 0 0 1-.801.797zm6.4 0c-.438 0-.802-.359-.802-.796 0-.442.364-.801.801-.801.442 0 .801.36.801.8 0 .438-.36.797-.8.797zm2.44-3v1.563c0 .117-.12.238-.242.238h-.636c-.203-.68-.723-1.199-1.48-1.199H14.198c-.742 0-1.37.512-1.547 1.2H9.398C9.2 10.52 8.602 10 7.84 10H7.8c-.742 0-1.371.512-1.551 1.2h-.61c-.12 0-.242-.122-.242-.24V9.399c0-.117.122-.238.243-.238h.78c.052.024.11.04.18.04h8.797a.42.42 0 0 0 .18-.04h.82c.122 0 .243.121.243.238zm-3.32-2.796l1.25 1.757h-3.172V6.4h1.48c.2 0 .36.081.442.203zm-4.718 0a.63.63 0 0 1 .437-.204h1.563V8.36H7.387zm0 0M11 15.2H5c-.238 0-.398.16-.398.402 0 .238.16.398.398.398h6c.238 0 .398-.16.398-.398 0-.243-.16-.403-.398-.403zm0 0M11 17.2H5c-.238 0-.398.16-.398.402 0 .238.16.398.398.398h6c.238 0 .398-.16.398-.398 0-.243-.16-.403-.398-.403zm0 0M11 19.2H5c-.238 0-.398.16-.398.402 0 .238.16.398.398.398h6c.238 0 .398-.16.398-.398 0-.243-.16-.403-.398-.403zm0 0"/>
</svg>
