<svg xmlns="http://www.w3.org/2000/svg" width="32" height="32" viewBox="0 0 24 24">
    <path d="M22.973 18.04c-.043-.161-.16-.243-.32-.282l-1.641-.23V2c0-.68-.52-1.2-1.2-1.2h-5.199c0-.44-.36-.8-.8-.8H8.215c-.442 0-.8.36-.8.8h-5.2c-.68 0-1.2.52-1.2 1.2v20.797c0 .68.52 1.2 1.2 1.2h12.558a.408.408 0 0 0 .098 0 .395.395 0 0 0 .293-.138l2.61-1.304 2.796 1.402c.082.04.121.04.2.04a.32.32 0 0 0 .203-.079.392.392 0 0 0 .16-.402l-.524-2.957 2.243-2.122c.12-.082.16-.238.12-.398zM8.215 4h5.598c.44 0 .8-.36.8-.8h4.04v12.277l-.442-.88a.426.426 0 0 0-.395-.206.067.067 0 0 0-.039 0c-.152-.008-.304.062-.367.207l-1.398 2.718-3.121.442a.454.454 0 0 0-.317.281c-.043.117 0 .277.117.398l2.243 2.122-.184 1.039H3.414V3.199h4c0 .442.36.801.8.801zm11.598-2.398c.238 0 .398.156.398.398v15.398l-.64-.082-.16-.308V3.199c0-.441-.36-.8-.798-.8h-4v-.797zM8.214.8h5.598v2.398H8.215zM1.813 22.797V2c0-.242.16-.398.402-.398h5.2v.796h-4c-.442 0-.802.36-.802.801v18.399c0 .437.36.8.801.8H14.61l-.14.797H2.215c-.242 0-.402-.16-.402-.398zm18.117-2.68c-.078.078-.16.238-.117.36l.437 2.398-2.238-1.16c-.082-.04-.121-.04-.2-.04-.082 0-.12.04-.199.04l-2.218 1.148.418-2.386c.039-.122-.04-.282-.122-.36l-1.8-1.68 2.48-.359c.16 0 .281-.082.32-.2l1.122-2.202.84 1.68a.298.298 0 0 0 .058.09l.219.433c.023.027.043.055.07.082a.414.414 0 0 0 .16.102.256.256 0 0 0 .09.015l1.32.2c.047.015.098.019.14.011l1.02.148zm0 0"/>
    <path d="M5.652 8.36c-.597 0-1.039.48-1.039 1.038v1.559c0 .602.442 1.043 1.04 1.043h.613c.175.688.804 1.2 1.546 1.2.743 0 1.372-.512 1.551-1.2h3.301c.18.688.805 1.2 1.547 1.2.742 0 1.371-.512 1.55-1.2h.61c.602 0 1.04-.441 1.082-1.043V9.398c0-.601-.48-1.039-1.043-1.039h-.851L14.012 6.2a1.273 1.273 0 0 0-1.078-.558h-1.73a.431.431 0 0 0-.38 0h-1.73c-.442 0-.84.199-1.082.558L6.465 8.36zm2.16 4.038c-.437 0-.8-.359-.8-.8 0-.438.363-.801.8-.801.442 0 .801.363.801.8 0 .442-.36.801-.8.801zm6.399 0a.801.801 0 0 1 0-1.601c.441 0 .8.363.8.8 0 .442-.359.801-.8.801zm2.441-3v1.559a.26.26 0 0 1-.242.242h-.637c-.203-.68-.722-1.199-1.48-1.199H14.21c-.741 0-1.366.512-1.546 1.2h-3.25c-.2-.68-.8-1.2-1.562-1.2h-.04c-.742 0-1.37.512-1.546 1.2h-.614c-.117 0-.238-.122-.238-.243V9.398c0-.12.121-.238.238-.238h.782c.054.024.113.04.18.04h8.796c.07 0 .13-.016.184-.04h.816c.121 0 .242.117.242.238zm-3.32-2.8l1.25 1.761h-3.168V6.4h1.477c.203 0 .363.081.441.199zm-4.719 0a.659.659 0 0 1 .442-.2h1.558V8.36h-3.21zm0 0M11.012 15.2h-6c-.239 0-.399.16-.399.398 0 .238.16.398.399.398h6c.242 0 .402-.16.402-.398 0-.239-.16-.399-.402-.399zm0 0M11.012 17.2h-6c-.239 0-.399.155-.399.398 0 .238.16.398.399.398h6c.242 0 .402-.16.402-.398 0-.243-.16-.399-.402-.399zm0 0M11.012 19.195h-6c-.239 0-.399.16-.399.403 0 .238.16.398.399.398h6c.242 0 .402-.16.402-.398 0-.243-.16-.403-.402-.403zm0 0"/>
</svg>
