<svg xmlns="http://www.w3.org/2000/svg" width="32" height="32" viewBox="0 0 24 24">
    <path d="M 21.398438 19.320312 C 21.347656 18.875 21.207031 18.460938 21 18.085938 L 21 2 C 21 1.320312 20.480469 0.800781 19.800781 0.800781 L 14.601562 0.800781 C 14.601562 0.359375 14.238281 0 13.800781 0 L 8.199219 0 C 7.761719 0 7.398438 0.359375 7.398438 0.800781 L 2.199219 0.800781 C 1.519531 0.800781 1 1.320312 1 2 L 1 22.800781 C 1 23.480469 1.519531 24 2.199219 24 L 18.71875 24 C 18.761719 24 18.761719 24 18.800781 24 C 18.839844 24 18.839844 24 18.878906 24 L 20.601562 24 C 21.878906 24 22.921875 22.921875 23 21.601562 C 23 20.558594 22.359375 19.640625 21.398438 19.320312 Z M 19.800781 1.601562 C 20.039062 1.601562 20.199219 1.761719 20.199219 2 L 20.199219 17.125 C 19.957031 16.925781 19.691406 16.761719 19.398438 16.640625 L 19.398438 3.199219 C 19.398438 2.761719 19.039062 2.398438 18.601562 2.398438 L 14.601562 2.398438 L 14.601562 1.601562 Z M 8.199219 4 L 13.800781 4 C 14.238281 4 14.601562 3.640625 14.601562 3.199219 L 18.640625 3.199219 L 18.640625 16.429688 C 18.496094 16.410156 18.347656 16.398438 18.199219 16.398438 C 18.191406 16.398438 18.183594 16.398438 18.175781 16.398438 C 18.171875 16.398438 18.164062 16.398438 18.160156 16.398438 C 17.125 16.398438 16.167969 16.917969 15.566406 17.75 C 15.457031 17.71875 15.347656 17.71875 15.238281 17.71875 C 15.226562 17.71875 15.210938 17.71875 15.199219 17.71875 C 14.238281 17.71875 13.441406 18.359375 13.160156 19.238281 C 12.398438 19.679688 11.921875 20.519531 11.921875 21.441406 C 11.921875 21.492188 11.921875 21.546875 11.925781 21.601562 L 3.398438 21.601562 L 3.398438 3.199219 L 7.398438 3.199219 C 7.398438 3.640625 7.761719 4 8.199219 4 Z M 8.199219 0.800781 L 13.800781 0.800781 L 13.800781 3.199219 L 8.199219 3.199219 Z M 2.199219 23.199219 C 1.960938 23.199219 1.800781 23.039062 1.800781 22.800781 L 1.800781 2 C 1.800781 1.761719 1.960938 1.601562 2.199219 1.601562 L 7.398438 1.601562 L 7.398438 2.398438 L 3.398438 2.398438 C 2.960938 2.398438 2.601562 2.761719 2.601562 3.199219 L 2.601562 21.601562 C 2.601562 22.039062 2.960938 22.398438 3.398438 22.398438 L 12.105469 22.398438 C 12.226562 22.703125 12.398438 22.976562 12.601562 23.199219 Z M 20.601562 23.199219 L 18.800781 23.199219 C 18.800781 23.199219 18.746094 23.199219 18.75 23.199219 L 14.628906 23.199219 C 14.574219 23.175781 14.511719 23.160156 14.441406 23.160156 C 13.707031 23.160156 13.074219 22.652344 12.847656 21.957031 C 12.859375 21.90625 12.859375 21.851562 12.839844 21.800781 C 12.804688 21.65625 12.769531 21.511719 12.761719 21.398438 C 12.777344 20.773438 13.132812 20.152344 13.71875 19.878906 C 13.800781 19.839844 13.878906 19.71875 13.921875 19.601562 C 14.039062 18.960938 14.601562 18.519531 15.199219 18.519531 C 15.320312 18.519531 15.480469 18.558594 15.601562 18.601562 C 15.800781 18.640625 16 18.558594 16.082031 18.398438 C 16.519531 17.640625 17.320312 17.199219 18.160156 17.199219 C 18.195312 17.199219 18.226562 17.203125 18.261719 17.203125 C 18.277344 17.203125 18.292969 17.203125 18.308594 17.207031 C 18.316406 17.207031 18.324219 17.207031 18.328125 17.207031 C 19.105469 17.265625 19.828125 17.734375 20.238281 18.480469 C 20.261719 18.523438 20.292969 18.5625 20.328125 18.59375 C 20.476562 18.910156 20.558594 19.261719 20.558594 19.640625 C 20.558594 19.839844 20.679688 20 20.878906 20.039062 C 21.601562 20.160156 22.121094 20.839844 22.121094 21.601562 C 22.121094 22.480469 21.441406 23.199219 20.601562 23.199219 Z M 20.601562 23.199219"/>
    <path d="M5.640625 8.359375C5.039062 8.359375 4.601562 8.839844 4.601562 9.398438L4.601562 10.960938C4.601562 11.558594 5.039062 12 5.640625 12L6.25 12C6.429688 12.6875 7.058594 13.199219 7.800781 13.199219 8.542969 13.199219 9.171875 12.6875 9.347656 12L12.652344 12C12.828125 12.6875 13.457031 13.199219 14.199219 13.199219 14.941406 13.199219 15.570312 12.6875 15.75 12L16.359375 12C16.960938 12 17.398438 11.558594 17.441406 10.960938L17.441406 9.398438C17.441406 8.800781 16.960938 8.359375 16.398438 8.359375L15.546875 8.359375 14 6.199219C13.761719 5.839844 13.359375 5.640625 12.921875 5.640625L11.1875 5.640625C11.132812 5.613281 11.070312 5.601562 11 5.601562 10.929688 5.601562 10.867188 5.613281 10.8125 5.640625L9.078125 5.640625C8.640625 5.640625 8.238281 5.839844 8 6.199219L6.453125 8.359375zM7.800781 12.398438C7.359375 12.398438 7 12.039062 7 11.601562 7 11.160156 7.359375 10.800781 7.800781 10.800781 8.238281 10.800781 8.601562 11.160156 8.601562 11.601562 8.601562 12.039062 8.238281 12.398438 7.800781 12.398438zM14.199219 12.398438C13.761719 12.398438 13.398438 12.039062 13.398438 11.601562 13.398438 11.160156 13.761719 10.800781 14.199219 10.800781 14.640625 10.800781 15 11.160156 15 11.601562 15 12.039062 14.640625 12.398438 14.199219 12.398438zM16.640625 9.398438L16.640625 10.960938C16.640625 11.078125 16.519531 11.199219 16.398438 11.199219L15.761719 11.199219C15.558594 10.519531 15.039062 10 14.28125 10 14.265625 10 14.25 10 14.238281 10 14.222656 10 14.210938 10 14.199219 10 13.457031 10 12.828125 10.511719 12.652344 11.199219L9.398438 11.199219C9.199219 10.519531 8.601562 10 7.839844 10 7.832031 10 7.824219 10 7.816406 10 7.8125 10 7.804688 10 7.800781 10 7.058594 10 6.429688 10.511719 6.25 11.199219L5.640625 11.199219C5.519531 11.199219 5.398438 11.078125 5.398438 10.960938L5.398438 9.398438C5.398438 9.28125 5.519531 9.160156 5.640625 9.160156L6.421875 9.160156C6.472656 9.183594 6.53125 9.199219 6.601562 9.199219L15.398438 9.199219C15.46875 9.199219 15.527344 9.183594 15.578125 9.160156L16.398438 9.160156C16.519531 9.160156 16.640625 9.28125 16.640625 9.398438zM13.320312 6.601562L14.570312 8.359375 11.398438 8.359375 11.398438 6.398438 12.878906 6.398438C13.078125 6.398438 13.238281 6.480469 13.320312 6.601562zM8.601562 6.601562C8.71875 6.480469 8.878906 6.398438 9.039062 6.398438L10.601562 6.398438 10.601562 8.359375 7.386719 8.359375zM11 15.199219L5 15.199219C4.761719 15.199219 4.601562 15.359375 4.601562 15.601562 4.601562 15.839844 4.761719 16 5 16L11 16C11.238281 16 11.398438 15.839844 11.398438 15.601562 11.398438 15.359375 11.238281 15.199219 11 15.199219zM11 17.199219L5 17.199219C4.761719 17.199219 4.601562 17.359375 4.601562 17.601562 4.601562 17.839844 4.761719 18 5 18L11 18C11.238281 18 11.398438 17.839844 11.398438 17.601562 11.398438 17.359375 11.238281 17.199219 11 17.199219zM11 19.199219L5 19.199219C4.761719 19.199219 4.601562 19.359375 4.601562 19.601562 4.601562 19.839844 4.761719 20 5 20L11 20C11.238281 20 11.398438 19.839844 11.398438 19.601562 11.398438 19.359375 11.238281 19.199219 11 19.199219zM11 19.199219"/>
</svg>
