<svg xmlns="http://www.w3.org/2000/svg" width="32" height="32" viewBox="0 0 24 24">
    <path d="M4.8 18.398c-.44 0-.8.364-.8.801 0 .442.36.801.8.801.438 0 .802-.36.802-.8 0-.438-.364-.802-.801-.802zm0 0M19.2 18.398c-.438 0-.802.364-.802.801 0 .442.364.801.801.801.442 0 .801-.36.801-.8 0-.438-.36-.802-.8-.802zm0 0"/>
    <path d="M23 13.602h-1.64c-1.16 0-2.282-.641-2.919-1.641L17.04 9.719a2.794 2.794 0 0 0-2.36-1.32H12.4v-1.29c.414-.289.73-.671.933-1.109h1.387c.48 0 .883-.398.883-.84V3.68a.889.889 0 0 0-.883-.88h-1.95c-.503-.495-1.199-.8-1.968-.8A2.781 2.781 0 0 0 8 4.8c0 .923.441 1.774 1.2 2.278v1.32H6.52c-.961 0-1.84.524-2.36 1.32l-2 3.243c-.238.398-.68.64-1.16.64-.281 0-.52.118-.719.278-.16.2-.281.441-.281.723v3.597c0 .762.64 1.403 1.398 1.403h.63A2.782 2.782 0 0 0 4.8 22a2.781 2.781 0 0 0 2.77-2.398h8.859A2.781 2.781 0 0 0 19.2 22a2.782 2.782 0 0 0 2.773-2.398h.425c.883 0 1.602-.723 1.602-1.602v-3.398a.99.99 0 0 0-1-1zM6.398 12.398v-1.597h5.204v1.597zm6-1.597h4.297l1 1.597h-5.297zm2.403-7.121V5.12c0 .04-.04.078-.082.078H13.57c.008-.039.012-.074.016-.113.016-.098.016-.203.016-.285 0-.274-.04-.563-.125-.832a2.967 2.967 0 0 0-.141-.367h1.383c.043 0 .082.039.082.078zm-6 1.12c0-1.12.879-2 2-2 .488 0 .933.169 1.277.45l.203.23c.32.36.52.84.52 1.32a2.07 2.07 0 0 1-.441 1.238 1.588 1.588 0 0 0-1.395-1.23h-.004c-.024-.003-.047-.003-.066-.003-.008-.004-.012-.004-.016-.004h-.156c-.008 0-.012 0-.016.004-.023 0-.047 0-.066.004h-.008a1.592 1.592 0 0 0-1.395 1.23c-.277-.36-.437-.8-.437-1.238zM10 7.56v-1.16a.801.801 0 0 1 1.602 0v2H10zm-5.2 13.64c-1.12 0-2-.879-2-2 0-1.12.88-2 2-2 1.122 0 2 .88 2 2 0 1.121-.878 2-2 2zm14.4 0c-1.122 0-2-.879-2-2 0-1.12.878-2 2-2 1.12 0 2 .88 2 2 0 1.121-.88 2-2 2zm3.16-2.398h-.387a2.782 2.782 0 0 0-2.774-2.403c-.004 0-.012.004-.02.004-.007 0-.011-.004-.019-.004-1.398 0-2.558 1.043-2.762 2.403H7.57a2.772 2.772 0 0 0-2.508-2.387c-.007-.004-.019-.004-.027-.004-.035-.004-.066-.004-.101-.008-.043 0-.09-.004-.133-.004-.047 0-.09.004-.137.004-.031.004-.066.004-.098.008-.011 0-.02 0-.027.004a2.776 2.776 0 0 0-2.512 2.387h-.629a.614.614 0 0 1-.597-.602v-1.8H2c.238 0 .398-.16.398-.399 0-.238-.16-.398-.398-.398H.8v-1c0-.043 0-.082.079-.122.043-.039.082-.082.16-.082.723 0 1.441-.398 1.8-1l2-3.238c.36-.601 1-.96 1.68-.96h8.16c.622 0 1.208.3 1.548.84H6.32a.718.718 0 0 0-.718.722v1.718c0 .399.32.72.718.72h11.996a4.23 4.23 0 0 0 3.004 1.241h1.64c.118 0 .2.079.2.2v.96H22c-.238 0-.398.16-.398.399 0 .238.16.398.398.398h1.16V18c0 .441-.36.8-.8.8zm0 0"/>
    <path d="M14 14.398h-2c-.238 0-.398.16-.398.403 0 .238.16.398.398.398h1.602v.403c0 .238.16.398.398.398.238 0 .398-.16.398-.398V14.8c0-.242-.16-.403-.398-.403zm0 0"/>
</svg>
