<svg xmlns="http://www.w3.org/2000/svg" width="32" height="32" viewBox="0 0 24 24">
    <path d="M4.8 18c-.44 0-.8.36-.8.8 0 .438.36.802.8.802.438 0 .802-.364.802-.801 0-.442-.364-.801-.801-.801zm0 0M15.2 18c-.438 0-.802.36-.802.8 0 .438.364.802.801.802.442 0 .801-.364.801-.801 0-.442-.36-.801-.8-.801zm0 0"/>
    <path d="M23.602 13.602h-1.204v-1.204c0-.238-.16-.398-.398-.398-.238 0-.398.16-.398.398v1.204H20V3.96c0-.883-.68-1.563-1.52-1.563H1.56C.679 2.398 0 3.078 0 3.961V17.8c0 .758.64 1.398 1.398 1.398h.63A2.782 2.782 0 0 0 4.8 21.602a2.781 2.781 0 0 0 2.77-2.403h4.859a2.781 2.781 0 0 0 2.77 2.403 2.782 2.782 0 0 0 2.773-2.403H20v-4.8h3.602c.238 0 .398-.16.398-.399 0-.238-.16-.398-.398-.398zM.8 10.398h5.597c.243 0 .403-.16.403-.398 0-.238-.16-.398-.403-.398H.801V8.398h4c.238 0 .398-.16.398-.398 0-.238-.16-.398-.398-.398h-4V3.96c0-.441.32-.762.758-.762H18.44a.76.76 0 0 1 .758.762v9.64H.801zm4 10.403c-1.121 0-2-.88-2-2 0-1.121.879-2 2-2 1.12 0 2 .879 2 2 0 1.12-.88 2-2 2zm10.398 0c-1.12 0-2-.88-2-2 0-1.121.88-2 2-2 1.121 0 2 .879 2 2 0 1.12-.879 2-2 2zm4-2.403h-1.226A2.782 2.782 0 0 0 15.199 16h-.039c-1.398 0-2.558 1.04-2.762 2.398H7.57a2.772 2.772 0 0 0-2.508-2.386h-.027c-.035-.004-.066-.008-.101-.008C4.89 16 4.844 16 4.8 16c-.047 0-.09 0-.137.004a.822.822 0 0 0-.098.008H4.54a2.776 2.776 0 0 0-2.512 2.386h-.629a.61.61 0 0 1-.597-.597v-3.403h18.398zm0 0"/>
</svg>
