<svg xmlns="http://www.w3.org/2000/svg" width="32" height="32" viewBox="0 0 24 24">
    <path d="M23.633 11.836L20.102 7.94c-.286-.285-.649-.449-1.016-.449h-3.734c-.649 0-1.137.528-1.137 1.137v6.215h-1.676l-1.45-3.492c-.015-.04-.034-.075-.05-.106l3.277-5.398a2.008 2.008 0 0 0 1.524-1.97 2.012 2.012 0 0 0-2.031-2.03c-.465 0-.891.152-1.23.406H.41c-.12 0-.242.082-.324.164-.082.121-.121.242-.043.363l1.3 3.942c.243.73.934 1.218 1.708 1.218h2.23c.895 0 1.625-.734 1.625-1.625V4.691h4.434l-3.371 5.54a2.28 2.28 0 0 0-1.024 1.12l-1.449 3.493H.816v3.894c0 .532.446.977.973.977h.274a2.823 2.823 0 0 0 2.812 2.437 2.827 2.827 0 0 0 2.816-2.437h8.582a2.823 2.823 0 0 0 2.813 2.437 2.827 2.827 0 0 0 2.816-2.437h1.082c.528 0 .977-.445 1.016-.977v-5.965c0-.367-.121-.691-.367-.937zm-.649.57H17.06V8.348h2.027c.164 0 .285.039.406.16zM15.027 3.88c0 .691-.527 1.219-1.218 1.219-.528 0-.996-.368-1.164-.86a.274.274 0 0 0-.012-.113.575.575 0 0 1-.043-.219v-.031a1.2 1.2 0 0 1 1.219-1.215c.691 0 1.218.527 1.218 1.219zm-8.933-.813v1.625H1.527l-.55-1.625zM5.28 7.13h-2.23c-.406 0-.813-.285-.938-.691l-.312-.934h4.293v.812a.814.814 0 0 1-.813.813zm1.625-4.063h5.035a1.835 1.835 0 0 0-.164.813h-4.87zm5.18 1.899c.27.437.703.758 1.223.883l-2.829 4.648c-.406-.324-.894-.527-1.421-.527zm-4.367 6.71c.11-.304.312-.542.566-.695a.376.376 0 0 0 .125-.035c.598-.28 1.356-.086 1.766.461.058.086.105.176.14.27l1.34 3.168H6.38zM4.875 21.34a2.01 2.01 0 0 1-2.027-2.031 2.01 2.01 0 0 1 2.027-2.032c1.137 0 2.031.895 2.031 2.032a2.012 2.012 0 0 1-2.031 2.03zm14.21 0a2.01 2.01 0 0 1-2.026-2.031 2.01 2.01 0 0 1 2.027-2.032c1.137 0 2.031.895 2.031 2.032a2.012 2.012 0 0 1-2.031 2.03zm3.9-2.438h-1.083a2.827 2.827 0 0 0-2.816-2.437h-.04c-1.421 0-2.597 1.058-2.8 2.437H7.691a2.817 2.817 0 0 0-2.55-2.422c-.008-.003-.016-.003-.028-.003-.031-.004-.066-.004-.101-.008-.043 0-.09-.004-.137-.004-.047 0-.09.004-.137.004-.035.004-.066.004-.101.008-.008 0-.02 0-.028.003a2.817 2.817 0 0 0-2.546 2.422h-.274c-.082 0-.16-.082-.16-.164v-3.086h13.398v-6.98c0-.203.16-.324.325-.324h.894v4.18a.71.71 0 0 0 .688.69h6.214v1.22h-2.03c-.243 0-.407.16-.407.406 0 .242.164.406.406.406h2.031v3.488a.176.176 0 0 1-.164.164zm0 0"/>
    <path d="M4.875 18.496a.817.817 0 0 0-.813.813c0 .445.368.812.813.812.45 0 .813-.367.813-.812a.814.814 0 0 0-.813-.813zm0 0M19.086 18.496a.817.817 0 0 0-.813.813c0 .445.368.812.813.812.45 0 .812-.367.812-.812a.814.814 0 0 0-.812-.813zm0 0M9.016 12c-.243 0-.403.164-.403.406 0 .242.16.406.403.406.246 0 .406-.164.406-.406 0-.242-.16-.406-.406-.406zm0 0"/>
</svg>
