<svg xmlns="http://www.w3.org/2000/svg" width="32" height="32" viewBox="0 0 24 24">
    <path d="M 23.621094 12.671875 L 19.964844 8.636719 C 19.671875 8.34375 19.292969 8.175781 18.914062 8.175781 L 15.046875 8.175781 C 14.375 8.175781 13.871094 8.722656 13.871094 9.351562 L 13.871094 15.78125 L 9.949219 15.78125 L 8.449219 12.167969 C 8.425781 12.117188 8.402344 12.066406 8.375 12.015625 L 12.324219 6.472656 C 12.960938 6.308594 13.492188 5.855469 13.746094 5.25 L 17.738281 4.855469 C 17.777344 4.847656 17.8125 4.835938 17.847656 4.820312 C 18.3125 5.355469 18.996094 5.695312 19.753906 5.695312 C 20.300781 5.695312 20.847656 5.527344 21.269531 5.191406 C 21.4375 5.066406 21.476562 4.769531 21.351562 4.601562 C 21.226562 4.433594 20.933594 4.390625 20.761719 4.519531 C 20.46875 4.730469 20.132812 4.855469 19.753906 4.855469 C 18.957031 4.855469 18.285156 4.292969 18.117188 3.542969 L 18.117188 2.800781 C 18.285156 2.054688 18.957031 1.492188 19.753906 1.492188 C 20.132812 1.492188 20.46875 1.617188 20.761719 1.828125 C 20.933594 1.953125 21.226562 1.914062 21.351562 1.746094 C 21.476562 1.578125 21.4375 1.28125 21.269531 1.15625 C 20.847656 0.820312 20.300781 0.652344 19.753906 0.652344 C 18.996094 0.652344 18.316406 0.988281 17.855469 1.523438 C 17.757812 1.476562 17.664062 1.460938 17.570312 1.492188 L 13.003906 2.695312 C 12.664062 2.464844 12.257812 2.332031 11.8125 2.332031 C 10.632812 2.332031 9.710938 3.257812 9.710938 4.433594 C 9.710938 4.445312 9.710938 4.457031 9.710938 4.464844 L 4.777344 11.316406 C 4.519531 11.542969 4.304688 11.832031 4.160156 12.167969 L 2.660156 15.78125 L 0 15.78125 L 0 19.816406 C 0 20.363281 0.460938 20.828125 1.007812 20.828125 L 1.289062 20.828125 C 1.492188 22.261719 2.707031 23.347656 4.203125 23.347656 C 5.699219 23.347656 6.914062 22.261719 7.117188 20.828125 L 16 20.828125 C 16.203125 22.261719 17.417969 23.347656 18.914062 23.347656 C 20.410156 23.347656 21.625 22.261719 21.828125 20.828125 L 22.949219 20.828125 C 23.496094 20.828125 23.957031 20.363281 24 19.816406 L 24 13.640625 C 24 13.261719 23.875 12.925781 23.621094 12.671875 Z M 22.949219 13.261719 L 16.8125 13.261719 L 16.8125 9.058594 L 18.914062 9.058594 C 19.082031 9.058594 19.207031 9.101562 19.335938 9.226562 Z M 17.273438 2.71875 C 17.246094 2.867188 17.234375 3.019531 17.234375 3.171875 C 17.234375 3.328125 17.246094 3.480469 17.273438 3.628906 L 17.273438 4.054688 L 13.914062 4.390625 C 13.910156 4.390625 13.910156 4.386719 13.910156 4.382812 C 13.902344 4.015625 13.804688 3.675781 13.636719 3.378906 L 17.273438 2.457031 Z M 11.8125 3.171875 C 12.484375 3.171875 13.070312 3.71875 13.070312 4.433594 C 13.070312 5.148438 12.527344 5.695312 11.8125 5.695312 C 11.789062 5.695312 11.765625 5.695312 11.746094 5.695312 C 11.742188 5.695312 11.742188 5.695312 11.742188 5.695312 C 11.0625 5.660156 10.550781 5.125 10.550781 4.433594 C 10.550781 3.71875 11.097656 3.171875 11.8125 3.171875 Z M 6.179688 10.738281 L 9.960938 5.484375 C 10.214844 5.949219 10.675781 6.285156 11.179688 6.453125 L 7.785156 11.273438 C 7.398438 10.953125 6.917969 10.765625 6.410156 10.742188 C 6.410156 10.742188 6.40625 10.742188 6.40625 10.742188 C 6.371094 10.738281 6.339844 10.738281 6.304688 10.738281 C 6.261719 10.738281 6.21875 10.738281 6.179688 10.738281 Z M 4.960938 12.503906 C 5.03125 12.300781 5.144531 12.128906 5.285156 11.988281 C 5.304688 11.980469 5.320312 11.96875 5.339844 11.957031 C 5.429688 11.867188 5.53125 11.792969 5.640625 11.734375 C 5.648438 11.730469 5.65625 11.726562 5.667969 11.722656 C 5.671875 11.71875 5.675781 11.71875 5.679688 11.714844 C 5.839844 11.640625 6.015625 11.597656 6.195312 11.582031 C 6.195312 11.582031 6.195312 11.582031 6.199219 11.582031 C 6.234375 11.582031 6.269531 11.578125 6.304688 11.578125 C 6.335938 11.578125 6.363281 11.582031 6.394531 11.582031 C 6.757812 11.609375 7.113281 11.785156 7.382812 12.050781 C 7.496094 12.179688 7.585938 12.332031 7.648438 12.503906 L 9.035156 15.78125 L 3.574219 15.78125 Z M 4.203125 22.507812 C 3.027344 22.507812 2.101562 21.582031 2.101562 20.40625 C 2.101562 19.230469 3.027344 18.304688 4.203125 18.304688 C 5.378906 18.304688 6.304688 19.230469 6.304688 20.40625 C 6.304688 21.582031 5.378906 22.507812 4.203125 22.507812 Z M 18.914062 22.507812 C 17.738281 22.507812 16.8125 21.582031 16.8125 20.40625 C 16.8125 19.230469 17.738281 18.304688 18.914062 18.304688 C 20.089844 18.304688 21.015625 19.230469 21.015625 20.40625 C 21.015625 21.582031 20.089844 22.507812 18.914062 22.507812 Z M 22.949219 19.984375 L 21.828125 19.984375 C 21.625 18.550781 20.410156 17.464844 18.914062 17.464844 C 18.90625 17.464844 18.902344 17.464844 18.894531 17.464844 C 18.886719 17.464844 18.878906 17.464844 18.871094 17.464844 C 17.402344 17.464844 16.183594 18.558594 15.972656 19.984375 L 7.117188 19.984375 C 6.925781 18.640625 5.847656 17.601562 4.480469 17.476562 C 4.46875 17.476562 4.460938 17.476562 4.449219 17.476562 C 4.414062 17.472656 4.378906 17.46875 4.34375 17.46875 C 4.296875 17.464844 4.25 17.464844 4.203125 17.464844 C 4.15625 17.464844 4.109375 17.464844 4.0625 17.46875 C 4.027344 17.46875 3.992188 17.472656 3.957031 17.476562 C 3.945312 17.476562 3.9375 17.476562 3.925781 17.476562 C 2.558594 17.601562 1.480469 18.640625 1.289062 19.984375 L 1.007812 19.984375 C 0.925781 19.984375 0.839844 19.902344 0.839844 19.816406 L 0.839844 16.625 L 14.710938 16.625 L 14.710938 9.394531 C 14.710938 9.183594 14.878906 9.058594 15.046875 9.058594 L 15.972656 9.058594 L 15.972656 13.386719 C 15.972656 13.765625 16.308594 14.101562 16.6875 14.101562 L 23.117188 14.101562 L 23.117188 15.363281 L 21.015625 15.363281 C 20.761719 15.363281 20.59375 15.53125 20.59375 15.78125 C 20.59375 16.035156 20.761719 16.203125 21.015625 16.203125 L 23.117188 16.203125 L 23.117188 19.816406 C 23.117188 19.902344 23.035156 19.984375 22.949219 19.984375 Z M 22.949219 19.984375"/>
    <path d="M4.203125 19.566406C3.742188 19.566406 3.363281 19.945312 3.363281 20.40625 3.363281 20.867188 3.742188 21.246094 4.203125 21.246094 4.664062 21.246094 5.042969 20.867188 5.042969 20.40625 5.042969 19.945312 4.664062 19.566406 4.203125 19.566406zM18.914062 19.566406C18.453125 19.566406 18.074219 19.945312 18.074219 20.40625 18.074219 20.867188 18.453125 21.246094 18.914062 21.246094 19.375 21.246094 19.753906 20.867188 19.753906 20.40625 19.753906 19.945312 19.375 19.566406 18.914062 19.566406zM6.304688 12.839844C6.050781 12.839844 5.882812 13.007812 5.882812 13.261719 5.882812 13.511719 6.050781 13.679688 6.304688 13.679688 6.558594 13.679688 6.726562 13.511719 6.726562 13.261719 6.726562 13.007812 6.558594 12.839844 6.304688 12.839844zM6.304688 12.839844"/>
</svg>
