<svg xmlns="http://www.w3.org/2000/svg" width="32" height="32" viewBox="0 0 24 24">
    <path d="M 3.199219 20 C 2.761719 20 2.398438 20.359375 2.398438 20.800781 C 2.398438 21.238281 2.761719 21.601562 3.199219 21.601562 C 3.640625 21.601562 4 21.238281 4 20.800781 C 4 20.359375 3.640625 20 3.199219 20 Z M 3.199219 20"/>
    <path d="M 22.800781 21.601562 L 18.800781 21.601562 L 18.800781 1.199219 C 18.800781 0.519531 18.28125 0 17.601562 0 C 16.921875 0 16.398438 0.519531 16.398438 1.199219 L 16.398438 14.398438 L 15.179688 14.398438 C 15.066406 5.992188 14.429688 0 11.199219 0 L 3.199219 0 C 2.960938 0 2.800781 0.160156 2.800781 0.398438 L 2.800781 2 C 2.800781 2.238281 2.960938 2.398438 3.199219 2.398438 L 3.605469 2.398438 L 2.402344 10.214844 C 2.164062 10.078125 1.890625 10 1.601562 10 C 0.71875 10 0 10.71875 0 11.601562 C 0 12.144531 0.273438 12.625 0.691406 12.914062 C 0.269531 13.289062 0 13.835938 0 14.441406 L 0 20.800781 C 0 22.558594 1.441406 24 3.199219 24 C 4.378906 24 5.410156 23.355469 5.96875 22.398438 L 9.238281 22.398438 C 9.417969 23.324219 10.21875 24 11.199219 24 C 12.183594 24 12.980469 23.324219 13.160156 22.398438 L 13.558594 22.398438 C 14.480469 22.398438 15.199219 21.679688 15.199219 20.761719 L 15.199219 20 L 16.398438 20 L 16.398438 23.601562 C 16.398438 23.839844 16.558594 24 16.800781 24 L 22.800781 24 C 23.480469 24 24 23.480469 24 22.800781 C 24 22.121094 23.480469 21.601562 22.800781 21.601562 Z M 15.199219 15.199219 L 16.398438 15.199219 L 16.398438 16 L 15.199219 16 Z M 16.398438 16.800781 L 16.398438 17.601562 L 15.199219 17.601562 C 15.199219 17.332031 15.199219 17.066406 15.199219 16.800781 Z M 2.320312 17.71875 C 1.71875 17.878906 1.199219 18.238281 0.800781 18.679688 L 0.800781 16.398438 L 12.796875 16.398438 C 12.800781 16.914062 12.800781 17.449219 12.800781 18 L 4.761719 18 C 4.667969 17.953125 4.585938 17.914062 4.5 17.878906 C 4.410156 17.839844 4.320312 17.804688 4.226562 17.769531 C 4.179688 17.753906 4.128906 17.738281 4.078125 17.71875 L 4.0625 17.71875 C 4.023438 17.707031 3.984375 17.699219 3.945312 17.6875 C 3.867188 17.664062 3.785156 17.644531 3.707031 17.640625 C 3.542969 17.613281 3.371094 17.601562 3.199219 17.601562 C 2.902344 17.601562 2.613281 17.640625 2.335938 17.71875 Z M 2.398438 13.199219 L 4 13.199219 L 4 15.601562 L 0.800781 15.601562 L 0.800781 14.441406 C 0.800781 13.761719 1.359375 13.199219 2.039062 13.199219 Z M 10.398438 2.398438 C 10.558594 2.398438 11 2.761719 11.960938 5.921875 C 12.5625 7.941406 12.734375 10.597656 12.78125 14.355469 L 10.898438 10.859375 L 11.480469 10.28125 C 11.640625 10.121094 11.640625 9.878906 11.480469 9.71875 C 11.320312 9.558594 11.078125 9.558594 10.921875 9.71875 L 10.199219 10.441406 C 10.132812 10.480469 10.078125 10.535156 10.039062 10.601562 L 9.320312 11.320312 C 9.160156 11.480469 9.160156 11.71875 9.320312 11.878906 C 9.398438 11.960938 9.480469 12 9.601562 12 C 9.71875 12 9.800781 11.960938 9.878906 11.878906 L 10.292969 11.46875 L 12.515625 15.601562 L 9.640625 15.601562 L 9.640625 14.761719 C 9.640625 13.921875 8.960938 13.238281 8.121094 13.238281 L 7.800781 13.238281 C 7.480469 13.238281 7.199219 12.960938 7.199219 12.640625 L 7.199219 11.121094 C 7.199219 10.28125 6.519531 9.601562 5.679688 9.601562 L 5.132812 9.601562 L 5.996094 2.398438 Z M 4.800781 12.800781 L 4.800781 10.386719 C 4.820312 10.378906 4.835938 10.371094 4.855469 10.359375 L 5.640625 10.359375 C 6.039062 10.359375 6.359375 10.679688 6.359375 11.078125 L 6.359375 12.601562 C 6.359375 13.359375 7 14 7.761719 14 L 8.078125 14 C 8.480469 14 8.800781 14.320312 8.800781 14.71875 L 8.800781 15.601562 L 4.800781 15.601562 Z M 3.601562 0.800781 L 11.199219 0.800781 C 14.121094 0.800781 14.398438 9.238281 14.398438 18 L 13.601562 18 C 13.601562 17.34375 13.597656 16.71875 13.597656 16.117188 C 13.621094 16.039062 13.625 15.960938 13.597656 15.878906 C 13.578125 11.121094 13.457031 8.0625 12.71875 5.679688 C 11.800781 2.640625 11.238281 1.601562 10.398438 1.601562 L 3.601562 1.601562 Z M 5.238281 2.398438 L 4.359375 9.601562 C 4.304688 9.601562 4.253906 9.617188 4.207031 9.640625 C 4.078125 9.707031 4 9.832031 4 10 L 4 12.398438 L 3 12.398438 C 3.0625 12.277344 3.109375 12.148438 3.144531 12.011719 C 3.171875 11.914062 3.1875 11.8125 3.195312 11.710938 C 3.195312 11.707031 3.195312 11.703125 3.195312 11.699219 C 3.199219 11.667969 3.199219 11.632812 3.199219 11.601562 C 3.199219 11.574219 3.199219 11.550781 3.199219 11.523438 C 3.1875 11.339844 3.148438 11.160156 3.082031 10.996094 L 4.441406 2.398438 Z M 1.601562 10.800781 C 1.929688 10.800781 2.210938 11 2.335938 11.285156 C 2.363281 11.371094 2.390625 11.460938 2.398438 11.546875 C 2.398438 11.566406 2.398438 11.582031 2.398438 11.601562 C 2.398438 11.625 2.398438 11.652344 2.394531 11.675781 C 2.378906 11.851562 2.300781 12.019531 2.160156 12.160156 C 2.121094 12.179688 2.089844 12.210938 2.070312 12.246094 C 1.9375 12.34375 1.777344 12.398438 1.601562 12.398438 C 1.160156 12.398438 0.800781 12.039062 0.800781 11.601562 C 0.800781 11.160156 1.160156 10.800781 1.601562 10.800781 Z M 3.199219 23.199219 C 1.878906 23.199219 0.800781 22.121094 0.800781 20.800781 C 0.800781 20.761719 0.800781 20.722656 0.804688 20.6875 C 0.804688 20.675781 0.804688 20.664062 0.804688 20.652344 C 0.808594 20.625 0.808594 20.597656 0.8125 20.574219 C 0.8125 20.558594 0.8125 20.546875 0.816406 20.535156 C 0.816406 20.507812 0.820312 20.484375 0.824219 20.457031 C 0.828125 20.445312 0.828125 20.433594 0.832031 20.421875 C 0.835938 20.394531 0.839844 20.367188 0.84375 20.339844 C 0.847656 20.332031 0.847656 20.320312 0.851562 20.3125 C 0.859375 20.277344 0.867188 20.242188 0.875 20.210938 C 0.878906 20.195312 0.882812 20.179688 0.886719 20.164062 C 0.890625 20.144531 0.898438 20.128906 0.902344 20.109375 C 0.910156 20.085938 0.914062 20.066406 0.921875 20.046875 C 0.925781 20.035156 0.929688 20.027344 0.933594 20.015625 C 1.1875 19.292969 1.785156 18.730469 2.558594 18.519531 L 2.550781 18.492188 C 2.566406 18.484375 2.582031 18.480469 2.597656 18.476562 L 2.601562 18.480469 C 2.679688 18.480469 2.761719 18.441406 2.839844 18.441406 L 2.921875 18.441406 C 3.121094 18.398438 3.320312 18.398438 3.519531 18.441406 L 3.601562 18.441406 C 3.679688 18.480469 3.761719 18.480469 3.878906 18.519531 C 4.078125 18.558594 4.28125 18.640625 4.441406 18.761719 C 4.457031 18.777344 4.480469 18.785156 4.507812 18.792969 C 5.160156 19.21875 5.59375 19.949219 5.597656 20.777344 C 5.597656 21.132812 5.515625 21.484375 5.359375 21.800781 C 5.351562 21.824219 5.34375 21.851562 5.339844 21.878906 C 4.945312 22.660156 4.132812 23.199219 3.199219 23.199219 Z M 11.199219 23.199219 C 10.519531 23.199219 10 22.679688 10 22 C 10 21.320312 10.519531 20.800781 11.199219 20.800781 C 11.878906 20.800781 12.398438 21.320312 12.398438 22 C 12.398438 22.679688 11.878906 23.199219 11.199219 23.199219 Z M 14.398438 20.761719 C 14.398438 21.238281 14 21.601562 13.558594 21.601562 L 13.160156 21.601562 C 12.992188 20.734375 12.28125 20.085938 11.382812 20.007812 C 11.375 20.007812 11.367188 20.007812 11.359375 20.007812 C 11.335938 20.003906 11.316406 20.003906 11.292969 20.003906 C 11.261719 20 11.230469 20 11.199219 20 C 11.167969 20 11.136719 20 11.105469 20.003906 C 11.085938 20.003906 11.0625 20.003906 11.042969 20.007812 C 11.035156 20.007812 11.027344 20.007812 11.019531 20.007812 C 10.121094 20.085938 9.410156 20.734375 9.238281 21.601562 L 6.296875 21.601562 C 6.355469 21.382812 6.386719 21.160156 6.398438 20.929688 C 6.398438 20.886719 6.398438 20.84375 6.398438 20.800781 C 6.398438 20.75 6.398438 20.699219 6.394531 20.648438 C 6.394531 20.617188 6.390625 20.585938 6.390625 20.554688 C 6.386719 20.539062 6.386719 20.527344 6.386719 20.511719 C 6.328125 19.867188 6.078125 19.277344 5.691406 18.800781 L 14.398438 18.800781 Z M 15.199219 19.199219 L 15.199219 18.398438 L 16.398438 18.398438 L 16.398438 19.199219 Z M 22.800781 23.199219 L 17.199219 23.199219 L 17.199219 1.199219 C 17.199219 0.960938 17.359375 0.800781 17.601562 0.800781 C 17.839844 0.800781 18 0.960938 18 1.199219 L 18 22 C 18 22.238281 18.160156 22.398438 18.398438 22.398438 L 22.800781 22.398438 C 23.039062 22.398438 23.199219 22.558594 23.199219 22.800781 C 23.199219 23.039062 23.039062 23.199219 22.800781 23.199219 Z M 22.800781 23.199219"/>
    <path d="M 23.601562 5.601562 L 20 5.601562 C 19.761719 5.601562 19.601562 5.761719 19.601562 6 L 19.601562 20.398438 C 19.601562 20.640625 19.761719 20.800781 20 20.800781 L 23.601562 20.800781 C 23.839844 20.800781 24 20.640625 24 20.398438 L 24 6 C 24 5.761719 23.839844 5.601562 23.601562 5.601562 Z M 23.199219 10.398438 L 20.398438 10.398438 L 20.398438 8.800781 L 23.199219 8.800781 Z M 23.199219 12.800781 L 20.398438 12.800781 L 20.398438 11.199219 L 23.199219 11.199219 Z M 23.199219 15.199219 L 20.398438 15.199219 L 20.398438 13.601562 L 23.199219 13.601562 Z M 20.398438 16 L 23.199219 16 L 23.199219 17.601562 L 20.398438 17.601562 Z M 20.398438 6.398438 L 23.199219 6.398438 L 23.199219 8 L 20.398438 8 Z M 23.199219 20 L 20.398438 20 L 20.398438 18.398438 L 23.199219 18.398438 Z M 23.199219 20"/>
</svg>
