<svg xmlns="http://www.w3.org/2000/svg" width="32" height="32" viewBox="0 0 24 24">
    <path d="M23.922 20.96l-.961-1.28a.432.432 0 0 0-.563-.078l-2.117 1.597c-.281.2-.64.2-.922.04a.896.896 0 0 1-.398-.598l-.16-1.2V18c0-.238-.16-.398-.403-.398H15.2V16.8h3.2c.242 0 .402-.16.402-.403V15l.16-1.2c.039-.241.2-.48.398-.6.282-.16.641-.16.922.038l2.117 1.602c.16.12.442.082.563-.078l.96-1.282c.079-.082.079-.16.079-.28 0-.122-.078-.2-.16-.278l-2.121-1.602c-1.078-.8-2.48-.879-3.598-.199-.84.52-1.441 1.36-1.562 2.32l-.118.957H15.18C15.066 5.992 14.43 0 11.2 0h-8c-.24 0-.4.16-.4.398V2c0 .238.16.398.4.398h.405l-1.203 7.817A1.604 1.604 0 0 0 0 11.602c0 .543.273 1.023.691 1.312A2.044 2.044 0 0 0 0 14.441v6.36A3.21 3.21 0 0 0 3.2 24c1.179 0 2.21-.645 2.769-1.602h3.27c.179.926.98 1.602 1.96 1.602.985 0 1.781-.676 1.961-1.602h.399a1.62 1.62 0 0 0 1.64-1.636V20h1.242l.16.96c.16.962.72 1.802 1.56 2.321.48.32 1.038.48 1.64.48.68 0 1.36-.241 1.918-.64l2.12-1.601c.083-.079.161-.16.161-.282 0-.078 0-.199-.078-.277zm-8.723-5.76h1.602c.199 0 .36-.16.398-.36l.16-1.281c.121-.758.52-1.399 1.16-1.758.88-.52 1.922-.48 2.72.12l1.8 1.36-.48.64-1.797-1.362a1.57 1.57 0 0 0-1.801-.079 1.6 1.6 0 0 0-.8 1.16L18 14.88V16h-2.8zM2.32 17.718c-.601.16-1.12.52-1.52.96V16.4h11.997c.004.515.004 1.05.004 1.601H4.76a5.696 5.696 0 0 0-.535-.23c-.046-.016-.097-.032-.148-.051h-.016c-.039-.012-.078-.02-.117-.032a1.03 1.03 0 0 0-.238-.046 3.108 3.108 0 0 0-.508-.04c-.297 0-.586.04-.863.118zm.078-4.52H4v2.403H.8v-1.16c0-.68.56-1.243 1.24-1.243zm8-10.8c.16 0 .602.363 1.563 3.523.601 2.02.773 4.676.82 8.433l-1.883-3.496.582-.578a.39.39 0 0 0 0-.562.385.385 0 0 0-.558 0l-.723.722a.45.45 0 0 0-.16.16l-.719.72a.385.385 0 0 0 0 .558c.078.082.16.121.282.121.117 0 .199-.04.277-.121l.414-.41 2.223 4.133H9.64v-.84c0-.84-.68-1.524-1.52-1.524h-.32a.614.614 0 0 1-.602-.597v-1.52c0-.84-.68-1.52-1.52-1.52h-.546l.863-7.203zM4.801 12.8v-2.414a.357.357 0 0 0 .054-.028h.786c.398 0 .718.32.718.72v1.523C6.36 13.359 7 14 7.762 14h.316c.402 0 .723.32.723.719v.883h-4zM3.6.8H11.2C14.121.8 14.4 9.238 14.4 18h-.797c0-.656-.004-1.281-.004-1.883a.382.382 0 0 0 0-.238c-.02-4.758-.141-7.816-.88-10.2-.917-3.038-1.48-4.077-2.32-4.077H3.602zm1.637 1.597L4.36 9.602a.34.34 0 0 0-.152.039A.383.383 0 0 0 4 10v2.398H3a1.833 1.833 0 0 0 .195-.687v-.012c.004-.031.004-.066.004-.097v-.079a1.699 1.699 0 0 0-.117-.527l1.36-8.598zm-3.636 8.403c.328 0 .609.199.734.484.027.086.055.176.062.262v.055c0 .023 0 .05-.003.074a.778.778 0 0 1-.235.484c-.039.02-.07.05-.09.086a.801.801 0 0 1-1.27-.645c0-.44.36-.8.802-.8zm1.597 12.398a2.404 2.404 0 0 1-2.394-2.512v-.035c.004-.027.004-.054.007-.078 0-.015 0-.027.004-.039 0-.027.004-.05.008-.078.004-.012.004-.023.008-.035l.012-.082c.004-.008.004-.02.008-.027a802.183 802.183 0 0 1 .035-.148c.004-.02.011-.036.015-.056.008-.023.012-.043.02-.062l.012-.031a2.37 2.37 0 0 1 1.625-1.496l-.008-.028c.015-.008.031-.012.047-.015l.004.003c.078 0 .16-.039.238-.039h.082c.2-.043.398-.043.598 0h.082c.078.04.16.04.277.079.2.039.402.12.562.242a.15.15 0 0 0 .067.031 2.385 2.385 0 0 1 1.09 1.984c0 .356-.082.707-.239 1.024a.457.457 0 0 0-.02.078 2.402 2.402 0 0 1-2.14 1.32zm8 0C10.52 23.2 10 22.68 10 22c0-.68.52-1.2 1.2-1.2.679 0 1.198.52 1.198 1.2 0 .68-.52 1.2-1.199 1.2zm3.2-2.437c0 .476-.399.84-.84.84h-.399a1.968 1.968 0 0 0-1.777-1.594h-.024c-.023-.004-.043-.004-.066-.004C11.262 20 11.23 20 11.199 20s-.062 0-.094.004c-.02 0-.043 0-.062.004h-.023a1.977 1.977 0 0 0-1.782 1.594H6.297c.058-.22.09-.442.101-.672v-.13c0-.05 0-.1-.003-.152 0-.03-.004-.062-.004-.093-.004-.016-.004-.028-.004-.043A3.164 3.164 0 0 0 5.69 18.8h8.707zm6.882 1.758c-.8.558-1.883.64-2.722.12a2.558 2.558 0 0 1-1.16-1.761l-.2-1.32c-.039-.2-.199-.36-.398-.36h-1.602v-.8H18v1.12l.2 1.282c.081.48.359.918.8 1.16.559.36 1.281.32 1.8-.082l1.802-1.36.476.641zm0 0"/>
    <path d="M3.2 20c-.438 0-.802.36-.802.8 0 .438.364.802.801.802.442 0 .801-.364.801-.801 0-.442-.36-.801-.8-.801zm0 0"/>
</svg>
