<svg xmlns="http://www.w3.org/2000/svg" width="32" height="32" viewBox="0 0 24 24">
    <path d="M23.602 23.2h-2v-.598a.99.99 0 0 0-1-1h-.223a3.575 3.575 0 0 0-2.422-3.012c.277-.317.445-.73.445-1.188v-1l-.761-5.199a3.776 3.776 0 0 0-3.72-3.2h-.32V6.567c0-.52-.437-.96-.956-.96h-.243V3.722L23.52 6.406h.082c.199 0 .359-.12.359-.32.078-.2-.082-.441-.281-.48l-9.938-2.399L23.68.809c.242-.082.32-.32.28-.52-.038-.203-.28-.32-.48-.281L11.984 2.78.488.008C.29-.032.086.086.008.328c-.04.2.078.399.32.48l9.918 2.395L.29 5.605c-.203.04-.32.282-.281.48.039.2.199.321.398.321h.082l11.117-2.683v1.882h-.242a.972.972 0 0 0-.957.961v1.438h-.32a3.743 3.743 0 0 0-3.719 3.2l-.762 5.16v1.038c0 .457.168.871.446 1.188a3.575 3.575 0 0 0-2.422 3.012h-.223a.99.99 0 0 0-1 1v.597h-2c-.238 0-.398.16-.398.403 0 .238.16.398.398.398h23.196c.238 0 .398-.16.398-.398 0-.243-.16-.403-.398-.403zm-9.68-14.395c1.441 0 2.719 1.078 2.922 2.52l.336 2.277h-3.016l1.32-1.317a.39.39 0 0 0 0-.562.39.39 0 0 0-.562 0l-1.879 1.879h-.64V8.805zm-2.719-2.239c0-.082.082-.16.16-.16h1.282c.078 0 .16.078.16.16v1.438h-1.602zm-1.117 2.239h1.52v4.797H8.964l1.32-1.317a.39.39 0 0 0 0-.562.39.39 0 0 0-.562 0l-1.88 1.879H6.829l.336-2.278c.242-1.48 1.441-2.52 2.922-2.52zm-3.68 7.636l.301-2.039h10.594l.3 2.04v.96a.99.99 0 0 1-1 1H7.407a.99.99 0 0 1-1-1zM3.207 23.2v-.597c0-.122.078-.2.2-.2h1.198c.122 0 .2.078.2.2v.597zm2.398 0v-.597a.99.99 0 0 0-1-1h-.171a2.779 2.779 0 0 1 2.773-2.399v-.012c.063.008.129.012.2.012h9.195c.07 0 .136-.004.199-.012v.012a2.779 2.779 0 0 1 2.773 2.399h-.172c-.562 0-1 .437-1 1v.597zm13.598 0v-.597c0-.122.078-.2.2-.2h1.199c.12 0 .199.078.199.2v.597zm0 0"/>
</svg>
