<svg xmlns="http://www.w3.org/2000/svg" width="32" height="32" viewBox="0 0 24 24">
    <path d="M 23.621094 12.042969 L 19.964844 8.007812 C 19.671875 7.710938 19.292969 7.542969 18.914062 7.542969 L 15.046875 7.542969 C 14.375 7.542969 13.871094 8.089844 13.871094 8.722656 L 13.871094 15.152344 L 13.617188 15.152344 L 8.285156 13.039062 L 12.734375 11.328125 C 12.863281 11.285156 12.988281 11.117188 12.988281 10.949219 C 12.988281 10.78125 12.902344 10.613281 12.734375 10.570312 L 8.269531 8.855469 L 13.476562 6.746094 C 13.714844 6.734375 13.871094 6.570312 13.871094 6.324219 L 13.871094 2.964844 C 13.871094 2.710938 13.703125 2.542969 13.449219 2.542969 L 9.246094 2.542969 L 9.246094 1.703125 C 9.246094 1.449219 9.078125 1.28125 8.828125 1.28125 L 5.464844 1.28125 C 5.210938 1.28125 5.042969 1.449219 5.042969 1.703125 L 5.042969 2.542969 L 0.839844 2.542969 C 0.589844 2.542969 0.421875 2.710938 0.421875 2.964844 L 0.421875 6.15625 C 0.371094 6.28125 0.394531 6.417969 0.464844 6.527344 C 0.519531 6.640625 0.625 6.71875 0.761719 6.738281 L 5.996094 8.847656 L 1.511719 10.570312 C 1.386719 10.613281 1.261719 10.78125 1.261719 10.949219 C 1.261719 11.117188 1.386719 11.285156 1.511719 11.328125 L 5.988281 13.050781 L 0.714844 15.152344 L 0 15.152344 L 0 19.1875 C 0 19.734375 0.460938 20.195312 1.007812 20.195312 L 1.289062 20.195312 C 1.492188 21.632812 2.707031 22.71875 4.203125 22.71875 C 5.699219 22.71875 6.914062 21.632812 7.117188 20.195312 L 16 20.195312 C 16.203125 21.632812 17.417969 22.71875 18.914062 22.71875 C 20.410156 22.71875 21.625 21.632812 21.828125 20.195312 L 22.949219 20.195312 C 23.496094 20.195312 23.957031 19.734375 24 19.1875 L 24 13.007812 C 24 12.628906 23.875 12.292969 23.621094 12.042969 Z M 22.949219 12.628906 L 16.8125 12.628906 L 16.8125 8.425781 L 18.914062 8.425781 C 19.082031 8.425781 19.207031 8.46875 19.335938 8.59375 Z M 5.464844 5.066406 L 13.03125 5.066406 L 13.03125 5.90625 L 1.261719 5.90625 L 1.261719 5.066406 Z M 11.203125 6.746094 L 7.144531 8.386719 L 3.0625 6.746094 Z M 13.03125 3.382812 L 13.03125 4.222656 L 9.246094 4.222656 L 9.246094 3.382812 Z M 5.882812 2.121094 L 8.40625 2.121094 L 8.40625 4.222656 L 5.882812 4.222656 Z M 1.261719 3.382812 L 5.042969 3.382812 L 5.042969 4.222656 L 1.261719 4.222656 Z M 2.859375 10.949219 L 7.144531 9.308594 L 11.433594 10.949219 L 7.144531 12.589844 Z M 7.144531 13.511719 L 11.273438 15.152344 L 3.019531 15.152344 Z M 4.203125 21.878906 C 3.027344 21.878906 2.101562 20.953125 2.101562 19.777344 C 2.101562 18.597656 3.027344 17.675781 4.203125 17.675781 C 5.378906 17.675781 6.304688 18.597656 6.304688 19.777344 C 6.304688 20.953125 5.378906 21.878906 4.203125 21.878906 Z M 18.914062 21.878906 C 17.738281 21.878906 16.8125 20.953125 16.8125 19.777344 C 16.8125 18.597656 17.738281 17.675781 18.914062 17.675781 C 20.089844 17.675781 21.015625 18.597656 21.015625 19.777344 C 21.015625 20.953125 20.089844 21.878906 18.914062 21.878906 Z M 22.949219 19.355469 L 21.828125 19.355469 C 21.625 17.917969 20.410156 16.832031 18.914062 16.832031 C 18.90625 16.832031 18.902344 16.835938 18.894531 16.835938 C 18.886719 16.835938 18.878906 16.832031 18.871094 16.832031 C 17.402344 16.832031 16.183594 17.925781 15.972656 19.355469 L 7.117188 19.355469 C 6.925781 18.007812 5.847656 16.972656 4.480469 16.847656 C 4.46875 16.84375 4.460938 16.84375 4.449219 16.84375 C 4.414062 16.839844 4.378906 16.839844 4.34375 16.835938 C 4.296875 16.835938 4.25 16.832031 4.203125 16.832031 C 4.15625 16.832031 4.109375 16.835938 4.0625 16.835938 C 4.027344 16.839844 3.992188 16.839844 3.957031 16.84375 C 3.945312 16.84375 3.9375 16.84375 3.925781 16.847656 C 2.558594 16.972656 1.480469 18.007812 1.289062 19.355469 L 1.007812 19.355469 C 0.925781 19.355469 0.839844 19.269531 0.839844 19.1875 L 0.839844 15.992188 L 14.710938 15.992188 L 14.710938 8.761719 C 14.710938 8.554688 14.878906 8.425781 15.046875 8.425781 L 15.972656 8.425781 L 15.972656 12.757812 C 15.972656 13.136719 16.308594 13.472656 16.6875 13.472656 L 23.117188 13.472656 L 23.117188 14.730469 L 21.015625 14.730469 C 20.761719 14.730469 20.59375 14.898438 20.59375 15.152344 C 20.59375 15.40625 20.761719 15.574219 21.015625 15.574219 L 23.117188 15.574219 L 23.117188 19.1875 C 23.117188 19.269531 23.035156 19.355469 22.949219 19.355469 Z M 22.949219 19.355469"/>
    <path d="M4.203125 18.933594C3.742188 18.933594 3.363281 19.3125 3.363281 19.777344 3.363281 20.238281 3.742188 20.617188 4.203125 20.617188 4.664062 20.617188 5.042969 20.238281 5.042969 19.777344 5.042969 19.3125 4.664062 18.933594 4.203125 18.933594zM18.914062 18.933594C18.453125 18.933594 18.074219 19.3125 18.074219 19.777344 18.074219 20.238281 18.453125 20.617188 18.914062 20.617188 19.375 20.617188 19.753906 20.238281 19.753906 19.777344 19.753906 19.3125 19.375 18.933594 18.914062 18.933594zM18.914062 18.933594"/>
</svg>
