<svg xmlns="http://www.w3.org/2000/svg" width="32" height="32" viewBox="0 0 24 24">
    <path d="M7.25 8.504c-.078-.32-.398-.563-.762-.563H3.605c-.44 0-.8.36-.8.801v2.004c0 .441.36.8.8.8H7.09c.242 0 .48-.12.601-.32.16-.242.2-.48.122-.722zm-3.645 2.242V8.742h2.883l.602 2.004zm0 0M5.61 20.762c.238 0 .398-.16.398-.403 0-.242-.16-.402-.399-.402-.242 0-.402.16-.402.402 0 .243.16.403.402.403zm0 0M7.61 20.762c.242 0 .402-.16.402-.403 0-.242-.16-.402-.403-.402-.238 0-.398.16-.398.402 0 .243.16.403.398.403zm0 0M9.613 20.762c.242 0 .403-.16.403-.403 0-.242-.16-.402-.403-.402-.238 0-.398.16-.398.402 0 .243.16.403.398.403zm0 0"/>
    <path d="M23.996 12.348c0-2.32-2.883-2.97-3.969-3.121V4.953l.442-.457c.32-.36.48-.8.441-1.281a1.716 1.716 0 0 0-.64-1.203 1.68 1.68 0 0 0-2.286.16L10.22 10.39l-.805-3.61A1.59 1.59 0 0 0 7.852 5.54H6.809v-.8c0-.884-.72-1.606-1.602-1.606a1.61 1.61 0 0 0-1.602 1.605v.801H2.402c-.879 0-1.601.719-1.601 1.602v11.605C.312 19.11 0 19.691 0 20.36c0 1.121.883 2.004 2.004 2.004h11.215a1.986 1.986 0 0 0 2.004-2.004 1.986 1.986 0 0 0-2.004-2.004h-.14l1.343-3.804c.16-.281.117-.64-.043-.922-.2-.32-.48-.48-.84-.48h-1.387l7.075-7.36v3.39c-1.043.133-3.973.747-4.004 3.13-.04.32.078 1.48 2.523 3.925.078.078.16.121.281.121.04 0 .078 0 .078-.043.16-.039.243-.12.282-.28l.8-3.563.418-1.461.422 1.46.801 3.606c.043.117.121.238.281.281h.121c.122 0 .2-.043.243-.082 2.441-2.445 2.562-3.644 2.523-3.925zm-19.59-7.61a.802.802 0 0 1 1.602 0v.801H4.406zM1.602 7.141c0-.442.359-.801.8-.801h5.41c.399 0 .72.281.801.64l1.403 6.168H1.602zM.8 20.359c0-.68.52-1.203 1.203-1.203.68 0 1.2.524 1.2 1.203 0 .68-.52 1.203-1.2 1.203A1.182 1.182 0 0 1 .8 20.36zm2.812-1.203h7.992c-.246.336-.39.75-.39 1.203 0 .453.144.868.39 1.203H3.613c.246-.335.39-.75.39-1.203 0-.453-.144-.867-.39-1.203zm10.809 1.203c0 .68-.524 1.203-1.203 1.203-.68 0-1.203-.523-1.203-1.203s.523-1.203 1.203-1.203 1.203.524 1.203 1.203zm-.723-6.289s.04.078 0 .16l-1.441 4.047c-.04.04-.082.078-.16.078H1.602v-1.199h8.812c.242 0 .402-.16.402-.402 0-.238-.16-.399-.402-.399H1.602v-.804h6.41c.238 0 .398-.16.398-.399 0-.242-.16-.402-.398-.402h-6.41v-.762h11.937c.082 0 .16.043.16.082zm-2.844-.922l-.285-1.199-.148-.652 8.164-8.524a.917.917 0 0 1 1.203-.078c.2.118.32.36.32.598 0 .242-.082.48-.242.644l-.414.434a.348.348 0 0 0-.2.207l-8.198 8.57zm7.57-.878l-.64 2.882c-1.762-1.882-1.762-2.722-1.762-2.722v-.082c0-1.602 2.043-2.164 3.043-2.325zm3.048 2.843l-.645-2.886-.64-2.204c1.003.16 3.046.723 3.046 2.325 0 .039.04.84-1.761 2.765zm0 0"/>
</svg>
