<svg xmlns="http://www.w3.org/2000/svg" width="32" height="32" viewBox="0 0 24 24">
    <path d="M 5.558594 14.957031 C 5.125 14.957031 4.769531 15.308594 4.769531 15.742188 C 4.769531 16.175781 5.125 16.53125 5.558594 16.53125 C 5.988281 16.53125 6.34375 16.175781 6.34375 15.742188 C 6.34375 15.308594 5.988281 14.957031 5.558594 14.957031 Z M 5.558594 14.957031"/>
    <path d="M 5.558594 12.589844 C 3.824219 12.589844 2.402344 14.011719 2.402344 15.742188 C 2.402344 17.476562 3.824219 18.898438 5.558594 18.898438 C 7.289062 18.898438 8.710938 17.476562 8.710938 15.742188 C 8.710938 14.011719 7.289062 12.589844 5.558594 12.589844 Z M 5.558594 18.109375 C 4.257812 18.109375 3.191406 17.042969 3.191406 15.742188 C 3.191406 14.445312 4.257812 13.378906 5.558594 13.378906 C 6.855469 13.378906 7.921875 14.445312 7.921875 15.742188 C 7.921875 17.042969 6.855469 18.109375 5.558594 18.109375 Z M 5.558594 18.109375"/>
    <path d="M 24 15.742188 C 24 15.351562 23.722656 15.035156 23.328125 14.996094 C 23.683594 14.796875 23.84375 14.445312 23.722656 14.050781 C 23.609375 13.699219 23.261719 13.46875 22.878906 13.535156 C 23.316406 13.214844 23.605469 12.726562 23.605469 12.195312 L 23.605469 10.414062 C 23.632812 10.359375 23.644531 10.296875 23.644531 10.226562 C 23.644531 10.15625 23.632812 10.09375 23.605469 10.039062 L 23.605469 8.847656 C 23.605469 8.296875 23.171875 7.863281 22.621094 7.863281 L 21.003906 7.863281 C 19.863281 7.863281 18.757812 7.230469 18.128906 6.246094 L 16.789062 4.039062 C 16.316406 3.25 15.410156 2.738281 14.464844 2.738281 L 6.421875 2.738281 C 5.476562 2.738281 4.609375 3.25 4.097656 4.039062 L 2.128906 7.230469 C 1.890625 7.625 1.457031 7.863281 0.984375 7.863281 C 0.710938 7.863281 0.472656 7.980469 0.277344 8.136719 C 0.117188 8.335938 0 8.570312 0 8.847656 L 0 12.394531 C 0 12.882812 0.269531 13.320312 0.664062 13.566406 C 0.503906 13.652344 0.375 13.804688 0.316406 14.011719 C 0.195312 14.402344 0.355469 14.796875 0.710938 14.957031 C 0.316406 15.035156 0.078125 15.351562 0.0390625 15.742188 C 0 16.136719 0.277344 16.453125 0.667969 16.492188 C 0.316406 16.691406 0.15625 17.042969 0.277344 17.4375 C 0.394531 17.792969 0.75 18.03125 1.144531 17.949219 C 0.867188 18.226562 0.828125 18.660156 1.0625 18.976562 C 1.300781 19.289062 1.695312 19.410156 2.050781 19.210938 C 1.851562 19.566406 1.96875 19.960938 2.285156 20.195312 C 2.601562 20.433594 2.996094 20.394531 3.269531 20.117188 C 3.191406 20.511719 3.390625 20.867188 3.78125 20.984375 C 4.175781 21.101562 4.570312 20.945312 4.730469 20.589844 C 4.808594 20.984375 5.125 21.261719 5.515625 21.261719 C 5.910156 21.261719 6.226562 20.984375 6.304688 20.628906 C 6.503906 20.984375 6.855469 21.144531 7.25 21.023438 C 7.605469 20.90625 7.84375 20.550781 7.761719 20.15625 C 8.039062 20.433594 8.472656 20.472656 8.789062 20.238281 C 9.101562 20 9.222656 19.605469 9.023438 19.25 C 9.378906 19.449219 9.773438 19.371094 10.007812 19.015625 C 10.246094 18.660156 10.207031 18.265625 9.929688 17.988281 C 10.324219 18.070312 10.679688 17.871094 10.796875 17.476562 C 10.917969 17.082031 10.757812 16.691406 10.402344 16.53125 C 10.796875 16.453125 11.074219 16.136719 11.074219 15.742188 C 11.074219 15.351562 10.796875 15.035156 10.402344 14.996094 C 10.757812 14.796875 10.917969 14.445312 10.796875 14.050781 C 10.761719 13.945312 10.707031 13.851562 10.636719 13.773438 L 13.355469 13.773438 C 13.308594 13.839844 13.269531 13.921875 13.242188 14.011719 C 13.121094 14.402344 13.28125 14.796875 13.636719 14.957031 C 13.242188 15.035156 12.964844 15.351562 12.964844 15.742188 C 12.964844 16.136719 13.242188 16.453125 13.636719 16.492188 C 13.28125 16.691406 13.121094 17.042969 13.242188 17.4375 C 13.359375 17.792969 13.714844 18.03125 14.109375 17.949219 C 13.832031 18.226562 13.792969 18.660156 14.03125 18.976562 C 14.265625 19.289062 14.660156 19.410156 15.015625 19.210938 C 14.816406 19.566406 14.9375 19.960938 15.25 20.195312 C 15.605469 20.433594 16 20.394531 16.277344 20.117188 C 16.195312 20.511719 16.394531 20.867188 16.789062 20.984375 C 17.183594 21.101562 17.578125 20.945312 17.734375 20.589844 C 17.8125 20.984375 18.128906 21.261719 18.523438 21.261719 C 18.917969 21.261719 19.230469 20.984375 19.230469 20.589844 C 19.429688 20.945312 19.78125 21.101562 20.175781 20.984375 C 20.53125 20.867188 20.769531 20.511719 20.6875 20.117188 C 20.964844 20.394531 21.398438 20.433594 21.714844 20.195312 C 22.03125 19.960938 22.148438 19.566406 21.949219 19.210938 C 22.304688 19.410156 22.699219 19.289062 22.9375 18.976562 C 23.171875 18.660156 23.132812 18.265625 22.855469 17.988281 C 23.25 18.070312 23.605469 17.871094 23.722656 17.476562 C 23.84375 17.082031 23.683594 16.691406 23.328125 16.53125 C 23.722656 16.453125 24 16.136719 24 15.742188 Z M 6.304688 6.679688 L 6.304688 5.101562 L 11.429688 5.101562 L 11.429688 6.679688 Z M 12.214844 5.101562 L 16.472656 5.101562 L 17.457031 6.679688 L 12.214844 6.679688 Z M 0.867188 8.730469 C 0.90625 8.691406 0.945312 8.648438 1.023438 8.648438 C 1.734375 8.648438 2.441406 8.257812 2.796875 7.664062 L 4.769531 4.472656 C 5.125 3.882812 5.753906 3.527344 6.421875 3.527344 L 14.464844 3.527344 C 15.070312 3.527344 15.644531 3.820312 15.980469 4.316406 L 6.226562 4.316406 C 5.832031 4.316406 5.515625 4.628906 5.515625 5.023438 L 5.515625 6.757812 C 5.515625 7.152344 5.832031 7.46875 6.226562 7.46875 L 18.085938 7.46875 C 18.851562 8.214844 19.894531 8.648438 21.003906 8.648438 L 22.621094 8.648438 C 22.738281 8.648438 22.816406 8.730469 22.816406 8.847656 L 22.816406 9.832031 L 21.675781 9.832031 C 21.4375 9.832031 21.28125 9.988281 21.28125 10.226562 C 21.28125 10.464844 21.4375 10.621094 21.675781 10.621094 L 22.816406 10.621094 L 22.816406 12.15625 C 22.816406 12.234375 22.78125 12.308594 22.777344 12.351562 C 22.6875 12.277344 22.585938 12.226562 22.476562 12.199219 C 22.460938 12.195312 22.441406 12.191406 22.421875 12.1875 C 22.265625 12.164062 22.101562 12.1875 21.949219 12.277344 C 22.148438 11.921875 22.03125 11.527344 21.714844 11.289062 C 21.402344 11.054688 21.011719 11.09375 20.734375 11.324219 C 20.792969 10.949219 20.59375 10.617188 20.214844 10.503906 C 20.117188 10.472656 20.019531 10.460938 19.921875 10.464844 C 19.738281 10.464844 19.5625 10.523438 19.429688 10.660156 C 19.316406 10.660156 19.242188 10.625 19.167969 10.621094 C 19.035156 10.398438 18.808594 10.25 18.542969 10.230469 C 18.523438 10.226562 18.503906 10.226562 18.484375 10.226562 C 18.128906 10.226562 17.835938 10.453125 17.753906 10.785156 C 17.746094 10.808594 17.738281 10.832031 17.734375 10.855469 C 17.605469 10.601562 17.320312 10.449219 17.027344 10.464844 C 16.949219 10.464844 16.867188 10.476562 16.789062 10.503906 C 16.445312 10.617188 16.214844 10.949219 16.269531 11.328125 C 16.117188 11.195312 15.925781 11.128906 15.734375 11.136719 C 15.566406 11.132812 15.394531 11.183594 15.25 11.289062 C 14.945312 11.519531 14.824219 11.902344 15 12.25 C 14.894531 12.199219 14.789062 12.179688 14.683594 12.179688 C 14.433594 12.171875 14.195312 12.292969 14.03125 12.511719 C 13.917969 12.660156 13.871094 12.824219 13.875 12.984375 L 10.164062 12.984375 C 10.167969 12.820312 10.117188 12.65625 10.011719 12.511719 C 9.773438 12.195312 9.378906 12.078125 9.023438 12.277344 C 9.222656 11.921875 9.101562 11.527344 8.789062 11.289062 C 8.535156 11.097656 8.226562 11.089844 7.972656 11.238281 C 7.914062 11.261719 7.859375 11.296875 7.808594 11.335938 C 7.871094 10.957031 7.671875 10.617188 7.289062 10.503906 C 7.058594 10.433594 6.828125 10.460938 6.644531 10.5625 C 6.515625 10.617188 6.40625 10.707031 6.328125 10.824219 C 6.226562 10.46875 5.925781 10.226562 5.558594 10.226562 C 5.402344 10.226562 5.261719 10.269531 5.144531 10.34375 C 5 10.410156 4.878906 10.523438 4.808594 10.660156 C 4.757812 10.660156 4.691406 10.660156 4.621094 10.660156 C 4.421875 10.480469 4.152344 10.414062 3.863281 10.503906 C 3.769531 10.535156 3.683594 10.582031 3.609375 10.640625 C 3.472656 10.730469 3.363281 10.855469 3.308594 11.015625 C 3.242188 11.050781 3.140625 11.117188 3.0625 11.183594 C 2.925781 11.132812 2.777344 11.121094 2.632812 11.152344 C 2.515625 11.171875 2.394531 11.21875 2.285156 11.289062 C 1.976562 11.519531 1.859375 11.902344 2.035156 12.25 C 1.929688 12.199219 1.824219 12.179688 1.71875 12.179688 C 1.46875 12.171875 1.226562 12.292969 1.0625 12.511719 C 1.023438 12.589844 0.984375 12.710938 0.945312 12.789062 C 0.828125 12.671875 0.789062 12.550781 0.789062 12.394531 L 0.789062 10.621094 L 1.96875 10.621094 C 2.207031 10.621094 2.363281 10.464844 2.363281 10.226562 C 2.363281 9.992188 2.207031 9.832031 1.96875 9.832031 L 0.789062 9.832031 L 0.789062 8.847656 C 0.789062 8.808594 0.789062 8.769531 0.867188 8.730469 Z M 9.578125 16.335938 C 9.535156 16.691406 9.695312 17.003906 10.011719 17.164062 C 9.65625 17.125 9.339844 17.28125 9.183594 17.597656 C 9.023438 17.910156 9.101562 18.265625 9.339844 18.503906 C 9.023438 18.34375 8.671875 18.421875 8.433594 18.660156 C 8.195312 18.898438 8.15625 19.25 8.316406 19.566406 C 8.078125 19.289062 7.722656 19.25 7.410156 19.410156 C 7.09375 19.566406 6.9375 19.882812 7.015625 20.238281 C 6.855469 19.921875 6.542969 19.761719 6.1875 19.804688 C 5.871094 19.882812 5.597656 20.117188 5.554688 20.472656 C 5.476562 20.117188 5.242188 19.84375 4.886719 19.804688 C 4.847656 19.804688 4.808594 19.804688 4.769531 19.804688 C 4.453125 19.804688 4.214844 19.960938 4.097656 20.238281 C 4.136719 19.882812 3.980469 19.566406 3.664062 19.410156 C 3.351562 19.25 2.996094 19.332031 2.757812 19.566406 C 2.917969 19.289062 2.875 18.898438 2.601562 18.621094 C 2.363281 18.382812 2.011719 18.34375 1.695312 18.503906 C 1.96875 18.265625 2.007812 17.910156 1.851562 17.597656 C 1.695312 17.28125 1.378906 17.125 1.023438 17.203125 C 1.339844 17.042969 1.535156 16.691406 1.457031 16.375 C 1.378906 16.058594 1.144531 15.785156 0.789062 15.742188 C 1.144531 15.703125 1.417969 15.46875 1.457031 15.152344 C 1.496094 14.796875 1.339844 14.484375 1.023438 14.324219 C 1.378906 14.363281 1.695312 14.207031 1.851562 13.890625 C 2.003906 13.589844 1.9375 13.253906 1.726562 13.019531 C 1.714844 13.007812 1.707031 12.996094 1.695312 12.984375 C 2.007812 13.144531 2.363281 13.105469 2.523438 12.945312 C 2.539062 12.925781 2.558594 12.90625 2.574219 12.886719 C 2.597656 12.867188 2.617188 12.847656 2.640625 12.828125 C 2.8125 12.652344 2.878906 12.417969 2.84375 12.179688 C 2.933594 12.203125 3.027344 12.1875 3.117188 12.148438 C 3.28125 12.1875 3.453125 12.152344 3.585938 12.039062 C 3.832031 11.917969 3.984375 11.695312 4 11.4375 C 4.070312 11.503906 4.171875 11.542969 4.277344 11.535156 C 4.429688 11.628906 4.613281 11.667969 4.808594 11.644531 C 4.945312 11.613281 5.066406 11.558594 5.164062 11.484375 C 5.265625 11.4375 5.347656 11.351562 5.398438 11.25 C 5.4375 11.210938 5.4375 11.171875 5.4375 11.09375 C 5.515625 11.449219 5.753906 11.722656 6.109375 11.765625 C 6.460938 11.800781 6.769531 11.648438 6.929688 11.339844 C 6.929688 11.351562 6.929688 11.363281 6.933594 11.375 C 6.910156 11.710938 7.066406 12.007812 7.371094 12.15625 C 7.65625 12.300781 7.980469 12.246094 8.214844 12.054688 C 8.195312 12.132812 8.191406 12.207031 8.195312 12.285156 C 8.179688 12.511719 8.265625 12.738281 8.433594 12.90625 C 8.632812 13.105469 8.917969 13.164062 9.1875 13.082031 C 9.058594 13.300781 9.058594 13.570312 9.183594 13.8125 C 9.339844 14.128906 9.65625 14.285156 10.011719 14.207031 C 9.695312 14.363281 9.535156 14.679688 9.578125 15.035156 C 9.65625 15.351562 9.890625 15.625 10.246094 15.664062 C 9.890625 15.742188 9.617188 15.980469 9.578125 16.335938 Z M 23.015625 17.164062 C 22.660156 17.125 22.34375 17.28125 22.1875 17.597656 C 22.03125 17.910156 22.109375 18.265625 22.34375 18.503906 C 22.03125 18.34375 21.675781 18.421875 21.4375 18.660156 C 21.203125 18.898438 21.164062 19.25 21.320312 19.566406 C 21.082031 19.289062 20.730469 19.25 20.414062 19.410156 C 20.097656 19.566406 19.941406 19.882812 20.019531 20.238281 C 19.863281 19.921875 19.546875 19.761719 19.191406 19.804688 C 18.875 19.882812 18.601562 20.117188 18.5625 20.472656 C 18.484375 20.117188 18.246094 19.84375 17.890625 19.804688 C 17.851562 19.804688 17.8125 19.804688 17.773438 19.804688 C 17.457031 19.804688 17.222656 19.960938 17.0625 20.238281 C 17.101562 19.882812 16.945312 19.566406 16.628906 19.410156 C 16.316406 19.25 15.960938 19.332031 15.722656 19.566406 C 15.882812 19.25 15.804688 18.898438 15.566406 18.660156 C 15.328125 18.421875 14.976562 18.382812 14.660156 18.542969 C 14.9375 18.304688 14.976562 17.949219 14.816406 17.636719 C 14.660156 17.320312 14.34375 17.164062 13.988281 17.242188 C 14.304688 17.082031 14.503906 16.730469 14.421875 16.414062 C 14.34375 16.097656 14.109375 15.824219 13.753906 15.785156 C 14.109375 15.703125 14.382812 15.46875 14.421875 15.113281 C 14.464844 14.757812 14.304688 14.441406 13.988281 14.285156 C 14.34375 14.324219 14.660156 14.167969 14.816406 13.851562 C 14.902344 13.6875 14.917969 13.507812 14.882812 13.34375 C 14.878906 13.300781 14.871094 13.261719 14.855469 13.222656 C 14.816406 13.144531 14.777344 13.0625 14.699219 12.984375 C 15.015625 13.144531 15.371094 13.0625 15.605469 12.828125 C 15.839844 12.59375 15.882812 12.242188 15.726562 11.925781 C 15.734375 11.933594 15.738281 11.9375 15.746094 11.945312 C 15.984375 12.199219 16.324219 12.230469 16.628906 12.078125 C 16.933594 11.925781 17.089844 11.628906 17.03125 11.292969 C 17.066406 11.347656 17.109375 11.398438 17.152344 11.4375 C 17.324219 11.628906 17.570312 11.714844 17.8125 11.683594 C 17.890625 11.683594 17.929688 11.683594 17.96875 11.644531 C 18.050781 11.605469 18.089844 11.605469 18.167969 11.566406 C 18.207031 11.566406 18.246094 11.527344 18.285156 11.488281 C 18.390625 11.382812 18.464844 11.242188 18.480469 11.101562 C 18.582031 11.394531 18.800781 11.609375 19.113281 11.644531 C 19.234375 11.660156 19.351562 11.648438 19.457031 11.617188 C 19.601562 11.632812 19.753906 11.582031 19.824219 11.449219 C 19.824219 11.414062 19.855469 11.375 19.859375 11.339844 C 19.859375 11.339844 19.863281 11.339844 19.863281 11.339844 C 19.863281 11.457031 19.863281 11.609375 19.941406 11.761719 C 19.980469 11.84375 20.019531 11.882812 20.058594 11.921875 C 20.136719 11.960938 20.214844 12.039062 20.257812 12.078125 C 20.296875 12.117188 20.375 12.117188 20.414062 12.15625 C 20.730469 12.277344 21.042969 12.195312 21.242188 11.960938 C 21.082031 12.277344 21.164062 12.628906 21.398438 12.867188 C 21.621094 13.085938 21.945312 13.136719 22.242188 13.015625 C 22.0625 13.242188 22.050781 13.542969 22.1875 13.8125 C 22.34375 14.128906 22.660156 14.285156 23.015625 14.207031 C 22.699219 14.363281 22.542969 14.679688 22.582031 15.035156 C 22.660156 15.351562 22.894531 15.625 23.25 15.664062 C 22.894531 15.742188 22.621094 15.980469 22.582031 16.335938 C 22.542969 16.691406 22.699219 17.003906 23.015625 17.164062 Z M 23.015625 17.164062"/>
    <path d="M 18.5625 14.957031 C 18.128906 14.957031 17.773438 15.308594 17.773438 15.742188 C 17.773438 16.175781 18.128906 16.53125 18.5625 16.53125 C 18.996094 16.53125 19.351562 16.175781 19.351562 15.742188 C 19.351562 15.308594 18.996094 14.957031 18.5625 14.957031 Z M 18.5625 14.957031"/>
    <path d="M 18.523438 12.589844 C 16.789062 12.589844 15.371094 14.011719 15.371094 15.742188 C 15.371094 17.476562 16.789062 18.898438 18.523438 18.898438 C 20.296875 18.898438 21.675781 17.476562 21.675781 15.742188 C 21.675781 14.011719 20.257812 12.589844 18.523438 12.589844 Z M 18.523438 18.109375 C 17.222656 18.109375 16.15625 17.042969 16.15625 15.742188 C 16.15625 14.445312 17.222656 13.378906 18.523438 13.378906 C 19.863281 13.378906 20.886719 14.445312 20.886719 15.742188 C 20.886719 17.042969 19.824219 18.109375 18.523438 18.109375 Z M 18.523438 18.109375"/>
</svg>
