<svg xmlns="http://www.w3.org/2000/svg" width="32" height="32" viewBox="0 0 24 24">
    <path d="M6.8 13.2H3.603c-.243 0-.403.16-.403.402V16c0 .238.16.398.403.398H6.8c.238 0 .398-.16.398-.398v-2.398c0-.243-.16-.403-.398-.403zm-.402 2.402H4V14h2.398zm0 0M20.398 13.2H17.2c-.238 0-.398.16-.398.402V16c0 .238.16.398.398.398h3.2c.242 0 .402-.16.402-.398v-2.398c0-.243-.16-.403-.403-.403zM20 15.601h-2.398V14H20zm0 0"/>
    <path d="M22.36 9.2h.921c.399 0 .719-.321.719-.72V5.96a.718.718 0 0 0-.719-.722h-.922a.718.718 0 0 0-.718.723v.84h-.914l-.766-2.36c-.281-.96-1.16-1.64-2.16-1.64H14V2c0-1.121-.879-2-2-2s-2 .879-2 2v.8H6.2c-1 0-1.88.68-2.16 1.641l-.767 2.36H2.36v-.84a.718.718 0 0 0-.718-.723H.719A.718.718 0 0 0 0 5.961v2.52c0 .398.32.718.719.718h.96c.4 0 .72-.32.68-.719v-.878h.653l-1.016 3.125L1 12.68c-.121.28-.2.601-.2.922v4.464A1.17 1.17 0 0 0 0 19.2V20c0 .68.52 1.2 1.2 1.2H2v1.198C2 23.281 2.719 24 3.602 24h1.597c.88 0 1.602-.719 1.602-1.602V21.2h10v1.2c0 .882.719 1.601 1.597 1.601H20c.879 0 1.602-.719 1.602-1.602V21.2H22.8C23.48 21.2 24 20.68 24 20v-.8c0-.54-.328-.977-.8-1.134v-4.464c0-.32-.079-.641-.2-.922l-.996-1.953-1.016-3.125h.653v.878c0 .399.32.72.718.72zM1.601 8.397H.8V6h.8zM10.8 2c0-.68.52-1.2 1.199-1.2.68 0 1.2.52 1.2 1.2v.8h-2.4zM6 22.398c0 .442-.36.801-.8.801H3.601c-.442 0-.801-.36-.801-.8v-1.2H6zm14.8 0c0 .442-.359.801-.8.801h-1.602a.801.801 0 0 1-.796-.8v-1.2H20.8zM23.2 20c0 .238-.16.398-.4.398H1.2c-.24 0-.4-.16-.4-.398v-.8c0-.24.16-.4.4-.4h21.6c.24 0 .4.16.4.4zm-.802-6.398V18H1.602v-4.398c0-.204.039-.403.117-.563l.922-1.84h18.718l.922 1.84c.078.2.117.36.117.563zm-8.636-3.204l.851-.851a.382.382 0 0 0 .137-.137l1.93-1.93a.385.385 0 0 0 0-.558.385.385 0 0 0-.559 0l-1.32 1.316v-.636c0-.243-.16-.403-.403-.403-.238 0-.398.16-.398.403v1.437l-1.36 1.36H8.16l.852-.852a.33.33 0 0 0 .136-.137l1.93-1.93a.385.385 0 0 0 0-.558.385.385 0 0 0-.558 0L9.2 8.238v-.636c0-.243-.16-.403-.4-.403-.241 0-.402.16-.402.403v1.437L7.04 10.4H2.961l.93-2.907C3.96 7.422 4 7.32 4 7.2c0-.015 0-.031-.004-.047l.805-2.511C5 4.039 5.559 3.6 6.199 3.6h11.602c.64 0 1.199.438 1.398 1.079L20 7.172v.027a.4.4 0 0 0 .102.281l.937 2.918zM22.398 6h.801v2.398h-.8zm0 0"/>
    <path d="M10.398 13.602h3.204c.238 0 .398-.16.398-.403 0-.238-.16-.398-.398-.398h-3.204c-.238 0-.398.16-.398.398 0 .242.16.403.398.403zm0 0M13.602 16h-3.204c-.238 0-.398.16-.398.398 0 .243.16.403.398.403h3.204c.238 0 .398-.16.398-.403 0-.238-.16-.398-.398-.398zm0 0M14.398 14.398H9.602c-.243 0-.403.16-.403.403 0 .238.16.398.403.398h4.796c.243 0 .403-.16.403-.398 0-.242-.16-.403-.403-.403zm0 0"/>
</svg>
