<svg xmlns="http://www.w3.org/2000/svg" width="32" height="32" viewBox="0 0 24 24">
    <path d="M6.14 15.48c.2 1 1.079 1.72 2.079 1.72.16 0 .32-.04.441-.04 1.16-.238 2.281-.36 3.32-.36 1.04 0 2.16.122 3.282.36 1.16.238 2.277-.52 2.52-1.68.038-.12.038-.28.077-.402.04-.316.04-.68-.039-1l-1.16-5c-.2-.797-.8-1.398-1.558-1.598-.524-.16-1.48-.32-2.762-.32H11.859h-.28c-1.278 0-2.2.16-2.759.32-.8.2-1.36.84-1.558 1.598l-1.16 5a2.825 2.825 0 0 0-.043 1c.043.16.043.281.082.402zm.758-1.199l1.16-5c.122-.48.481-.883.962-1C9.5 8.161 10.379 8 11.578 8H12.38c1.2 0 2.043.16 2.601.281.48.117.84.52.961 1l1.16 5c.079.239.079.438.04.68-.04.117-.04.238-.082.36a1.36 1.36 0 0 1-1.48 1.058v-1.18c0-.238-.157-.398-.4-.398-.238 0-.398.16-.398.398v1.035c-.27-.043-.535-.078-.8-.113v-1.32c0-.242-.16-.403-.403-.403-.238 0-.398.16-.398.403v1.246a13.93 13.93 0 0 0-.801-.043v-1.606c0-.238-.16-.398-.399-.398-.242 0-.402.16-.402.398v1.606c-.262.008-.531.02-.797.043V14.8c0-.242-.16-.403-.402-.403-.238 0-.399.16-.399.403v1.324c-.265.031-.53.07-.8.113V15.2c0-.238-.16-.398-.399-.398-.242 0-.402.16-.402.398v1.184c-.691.066-1.29-.395-1.438-1.063a1.111 1.111 0 0 1-.082-.36c-.039-.198 0-.44.04-.679zm0 0"/>
    <path d="M22.02 19.96c0-.679-.239-1.28-.68-1.679-.496-.468-1.184-.636-1.645-.695.242-.606.43-1.324.567-2.145.078-.64.078-1.28-.082-1.921l-1.442-6.04c-.449-1.433-2.035-2.105-3.558-2.418V4h1.12c.438 0 .84-.2 1-.52.24-.359.321-.8.16-1.199L16.942.84c-.203-.52-.68-.84-1.203-.84H8.18c-.52 0-1 .32-1.2.8l-.52 1.438c-.12.403-.081.84.161 1.203.238.36.598.559 1.04.559h1.12v1.063c-1.539.312-3.148.996-3.601 2.457l-1.399 6c-.16.64-.203 1.28-.082 1.921.137.84.332 1.57.582 2.188-.465.058-1.129.226-1.62.691-.442.442-.68 1-.68 1.72 0 .038.265 3.745 4.8 3.952V24H17.18v-.008c4.535-.207 4.8-3.914 4.84-4.031zM7.262 3c-.082-.121-.082-.281-.043-.441l.52-1.438c.042-.2.241-.32.44-.32h7.602c.2 0 .36.12.438.32l.52 1.438c.081.16.042.32-.04.441a.483.483 0 0 1-.398.2H7.66a.483.483 0 0 1-.4-.2zm2.316 1h4.8v.93c-1.257-.172-2.316-.13-2.398-.13-.101 0-1.148-.042-2.402.126zm-5 9.719l1.402-6c.56-1.758 3.88-2.117 5.598-2.117h.402c1.48-.082 5.399.16 6 2.078l1.48 6.039c.161.52.161 1.082.08 1.601-.102.61-.274 1.39-.575 2.09l-.024-.012-.203.364c-.492.914-1.097 1.39-1.847 1.433-.453-.16-2.43-.777-4.77-.793h-.047c-.02-.004-.035-.004-.054-.004h-.04c-.44 0-.87.024-1.28.063h-.005l-.133.012c-1.753.172-3.101.597-3.421.726h-.016c-1.75-.094-2.387-2.445-2.625-3.879a4.43 4.43 0 0 1 .078-1.601zM2.781 20c0-.48.117-.84.399-1.121.48-.438 1.199-.48 1.48-.48.395.671.883 1.14 1.461 1.39.211.098.43.168.66.211v3.2c-3.761-.2-4-3.079-4-3.2zm4.797 3.2v-3.321c.64-.2 2.395-.676 4.387-.68H12.062c1.985.02 3.704.5 4.317.688v3.312zm9.602-.04v-3.187c.87-.125 1.582-.66 2.12-1.575.282 0 1 .043 1.481.48.278.282.399.642.399 1.083 0 .117-.2 3-4 3.2zm0 0"/>
</svg>
