<svg xmlns="http://www.w3.org/2000/svg" width="32" height="32" viewBox="0 0 24 24">
    <path d="M10.598 13.43a.408.408 0 0 0-.407.406c0 .203.164.406.407.406a.406.406 0 1 0 0-.813zm0 0M12.629 13.43a.408.408 0 0 0-.406.406.406.406 0 1 0 .813 0 .406.406 0 0 0-.407-.406zm0 0M14.66 13.43a.408.408 0 0 0-.406.406.406.406 0 1 0 .406-.406zm0 0"/>
    <path d="M21.969 15.055h-3.653v-1.34a1.907 1.907 0 0 0-1.91-1.906h-3.37v-.977l3.452-1.707a2.69 2.69 0 0 0 1.461-2.273c.04-1.016-.406-1.868-1.258-2.395l-3.859-2.355a.366.366 0 0 0-.406 0c-.012.007-.02.015-.028.023a.365.365 0 0 0-.171.281v.004c0 .016-.004.035-.004.059v9.34h-3.41L4.75 15.055H0l.04.449c0 .078.772 6.457 5.687 6.457h13.847l-.043-.45s-.078-1.015.532-1.702c.406-.45 1.054-.692 1.906-.692A2.012 2.012 0 0 0 24 17.086a2.012 2.012 0 0 0-2.031-2.031zm-4.832-8.242c-.04.69-.407 1.3-1.016 1.582l-3.086 1.543V3.199l3.25 1.95c.567.363.89.972.852 1.663zm-8.04 5.808h7.31c.609 0 1.097.484 1.097 1.094v1.34H6.09zm12.872 5.684c-1.094 0-1.95.324-2.516.972-.57.61-.691 1.383-.73 1.871H5.727c-1.153 0-2.125-.406-2.915-1.218h13.473a.385.385 0 0 0 .406-.407c0-.246-.164-.406-.406-.406H2.175a6.881 6.881 0 0 1-.429-.773 7.567 7.567 0 0 1-.207-.446H14.66a.385.385 0 0 0 .406-.406.385.385 0 0 0-.406-.406H1.242c-.148-.48-.242-.906-.308-1.219h21.035c.691 0 1.218.528 1.218 1.219 0 .691-.527 1.219-1.218 1.219zm0 0"/>
</svg>
