<svg xmlns="http://www.w3.org/2000/svg" width="32" height="32" viewBox="0 0 24 24">
    <path d="M 23.941406 9.175781 C 23.878906 9.039062 23.746094 8.957031 23.574219 8.957031 C 23.5625 8.957031 23.550781 8.957031 23.539062 8.957031 L 18.824219 7.78125 C 18.621094 7.699219 18.378906 7.863281 18.339844 8.066406 C 18.257812 8.265625 18.421875 8.511719 18.621094 8.550781 L 19.109375 8.671875 L 19.109375 10.578125 L 16.269531 10.578125 L 16.269531 8.308594 L 17.363281 7.210938 C 17.488281 7.089844 17.527344 6.929688 17.445312 6.765625 C 17.40625 6.605469 17.242188 6.523438 17.082031 6.523438 L 7.75 6.523438 C 7.667969 6.523438 7.546875 6.5625 7.507812 6.644531 L 3.175781 10.578125 L 0 10.578125 L 0.0390625 11.027344 C 0.0390625 11.109375 0.8125 17.476562 5.722656 17.476562 L 19.554688 17.476562 L 19.515625 17.03125 C 19.515625 17.03125 19.433594 16.015625 20.042969 15.328125 C 20.449219 14.878906 21.097656 14.636719 21.949219 14.636719 C 23.085938 14.636719 23.980469 13.746094 23.980469 12.609375 L 23.980469 9.484375 C 24.019531 9.382812 24 9.269531 23.941406 9.175781 Z M 21.949219 9.382812 L 23.167969 9.6875 L 23.167969 10.976562 C 22.828125 10.726562 22.410156 10.578125 21.949219 10.578125 Z M 19.921875 8.875 L 21.136719 9.179688 L 21.136719 10.578125 L 19.921875 10.578125 Z M 7.910156 7.335938 L 16.109375 7.335938 L 15.578125 7.863281 C 15.5 7.941406 15.457031 8.023438 15.457031 8.144531 L 15.457031 10.578125 L 12.617188 10.578125 L 12.617188 9.363281 C 12.617188 9.121094 12.457031 8.957031 12.210938 8.957031 C 11.96875 8.957031 11.808594 9.121094 11.808594 9.363281 L 11.808594 10.578125 L 8.964844 10.578125 L 8.964844 9.363281 C 8.964844 9.121094 8.804688 8.957031 8.5625 8.957031 C 8.316406 8.957031 8.15625 9.121094 8.15625 9.363281 L 8.15625 10.578125 L 4.332031 10.578125 Z M 21.949219 13.824219 C 20.855469 13.824219 20.003906 14.148438 19.433594 14.800781 C 18.867188 15.40625 18.746094 16.179688 18.703125 16.664062 L 5.722656 16.664062 C 4.570312 16.664062 3.597656 16.261719 2.8125 15.449219 L 16.269531 15.449219 C 16.511719 15.449219 16.675781 15.285156 16.675781 15.042969 C 16.675781 14.800781 16.511719 14.636719 16.269531 14.636719 L 2.171875 14.636719 C 2.019531 14.402344 1.878906 14.144531 1.746094 13.867188 C 1.667969 13.714844 1.601562 13.566406 1.539062 13.421875 L 14.648438 13.421875 C 14.890625 13.421875 15.050781 13.257812 15.050781 13.015625 C 15.050781 12.769531 14.890625 12.609375 14.648438 12.609375 L 1.257812 12.609375 C 1.253906 12.609375 1.246094 12.609375 1.242188 12.609375 C 1.09375 12.128906 1 11.703125 0.933594 11.390625 L 21.949219 11.390625 C 22.640625 11.390625 23.167969 11.917969 23.167969 12.609375 C 23.167969 13.296875 22.640625 13.824219 21.949219 13.824219 Z M 21.949219 13.824219"/>
</svg>
