<svg xmlns="http://www.w3.org/2000/svg" width="32" height="32" viewBox="0 0 24 24">
    <path d="M4.8 18c-.44 0-.8.36-.8.8 0 .438.36.802.8.802.438 0 .802-.364.802-.801 0-.442-.364-.801-.801-.801zm0 0M19.2 18c-.438 0-.802.36-.802.8 0 .438.364.802.801.802.442 0 .801-.364.801-.801 0-.442-.36-.801-.8-.801zm0 0"/>
    <path d="M23 13.2h-1.64c-1.16 0-2.282-.641-2.919-1.641L17.04 9.32A2.785 2.785 0 0 0 14.68 8h-.28v-.8H16c.238 0 .398-.16.398-.4v-4c0-.241-.16-.402-.398-.402H4.398c-.238 0-.398.16-.398.403v4c0 .238.16.398.398.398H6v.852a2.893 2.893 0 0 0-1.84 1.27l-2 3.238c-.238.402-.68.64-1.16.64-.281 0-.52.121-.719.281-.16.2-.281.442-.281.72v3.6c0 .759.64 1.4 1.398 1.4h.63A2.782 2.782 0 0 0 4.8 21.601a2.781 2.781 0 0 0 2.77-2.403h8.859a2.781 2.781 0 0 0 2.77 2.403 2.782 2.782 0 0 0 2.773-2.403h.425c.883 0 1.602-.719 1.602-1.597v-3.403c0-.558-.441-1-1-1zM6.398 12v-1.602h5.204V12zm6-1.602h4.297l1 1.602h-5.297zM4.801 3.2h10.8v3.2h-10.8zm8.8 4V8h-6.8v-.8zm-8.8 13.602c-1.121 0-2-.88-2-2 0-1.121.879-2 2-2 1.12 0 2 .879 2 2 0 1.12-.88 2-2 2zm14.398 0c-1.12 0-2-.88-2-2 0-1.121.88-2 2-2 1.121 0 2 .879 2 2 0 1.12-.879 2-2 2zm3.16-2.403h-.386A2.782 2.782 0 0 0 19.199 16h-.039c-1.398 0-2.558 1.04-2.762 2.398H7.57a2.772 2.772 0 0 0-2.508-2.386h-.027c-.035-.004-.066-.008-.101-.008C4.89 16 4.844 16 4.8 16c-.047 0-.09 0-.137.004a.822.822 0 0 0-.098.008H4.54a2.776 2.776 0 0 0-2.512 2.386h-.629a.61.61 0 0 1-.597-.597v-2.2H2c.238 0 .398-.16.398-.402 0-.238-.16-.398-.398-.398H.8v-.602c0-.039 0-.078.079-.12.043-.04.082-.079.16-.079.723 0 1.441-.398 1.8-1l2-3.238c.36-.602 1-.961 1.68-.961h8.16c.622 0 1.208.3 1.548.84H6.32a.717.717 0 0 0-.718.718v1.72c0 .401.32.722.718.722h11.996a4.243 4.243 0 0 0 3.004 1.238h1.64c.118 0 .2.082.2.2v.96H22c-.238 0-.398.16-.398.403 0 .238.16.398.398.398h1.16v1.602c0 .437-.36.796-.8.796zm0 0"/>
    <path d="M14 14h-2c-.238 0-.398.16-.398.398 0 .243.16.403.398.403h1.602v.398c0 .242.16.403.398.403.238 0 .398-.16.398-.403v-.8c0-.239-.16-.399-.398-.399zm0 0M7.2 5.602c.241 0 .402-.16.402-.403v-.8c0-.239-.16-.399-.403-.399-.238 0-.398.16-.398.398V5.2c0 .242.16.403.398.403zm0 0M9.2 5.602c.241 0 .402-.16.402-.403v-.8c0-.239-.16-.399-.403-.399-.238 0-.398.16-.398.398V5.2c0 .242.16.403.398.403zm0 0M11.2 5.602c.241 0 .402-.16.402-.403v-.8c0-.239-.16-.399-.403-.399-.238 0-.398.16-.398.398V5.2c0 .242.16.403.398.403zm0 0M13.2 5.602c.241 0 .402-.16.402-.403v-.8c0-.239-.16-.399-.403-.399-.238 0-.398.16-.398.398V5.2c0 .242.16.403.398.403zm0 0"/>
</svg>
