<svg xmlns="http://www.w3.org/2000/svg" width="32" height="32" viewBox="0 0 24 24">
    <path d="M18.055 17.879c-.461 0-.84.379-.84.84 0 .46.379.84.84.84a.841.841 0 0 0 0-1.68zm0 0M5.457 15.36c-.46 0-.84.378-.84.84 0 .46.38.84.84.84a.841.841 0 0 0 0-1.68zm0 0"/>
    <path d="M23.852 12.926c-.211-.336-.504-.504-.883-.504h-3.235V9.48c0-.238-.148-.398-.375-.418V7.801c0-.168-.129-.293-.254-.375l-1.68-.84a.371.371 0 0 0-.417 0 .487.487 0 0 0-.211.375v2.101c-.254 0-.422.168-.422.418v2.942h-3.754L11.13 5.746a1.669 1.669 0 0 0-1.64-1.305H3.776c-.922 0-1.68.758-1.68 1.68v5.77A5.453 5.453 0 0 0 0 16.199c0 1.512.61 2.88 1.594 3.863h.004a5.424 5.424 0 0 0 3.859 1.598c1.512 0 2.879-.61 3.863-1.598a5.32 5.32 0 0 0 .985-1.343h4.812c0 1.636 1.301 2.941 2.938 2.941a2.923 2.923 0 0 0 2.941-2.941h.461c.379 0 .758-.211.926-.547l1.512-4.281c.168-.293.125-.672-.043-.965zm-6.215-5.293l.84.422v1.008h-.84zm-.422 2.27h1.68v2.519h-1.68zm-7.559 8.23l-.152.308c-.14.254-.309.497-.496.723l-1.156-1.16a.404.404 0 0 0-.586 0 .408.408 0 0 0 0 .59l1.156 1.156c-.7.586-1.578.965-2.543 1.05v-1.66c0-.253-.168-.421-.422-.421-.25 0-.418.168-.418.422v1.66a4.583 4.583 0 0 1-2.543-1.051l1.156-1.156a.408.408 0 0 0 0-.59.404.404 0 0 0-.586 0l-1.156 1.16a4.595 4.595 0 0 1-1.05-2.543h1.66c.25 0 .417-.168.417-.422 0-.25-.167-.418-.417-.418H.86a4.583 4.583 0 0 1 1.05-2.543l1.195 1.2a.392.392 0 0 0 .297.124.468.468 0 0 0 .293-.124.408.408 0 0 0 0-.59l-1.199-1.196.274-.191a4.49 4.49 0 0 1 2.148-.848h.004l.117-.011v1.66c0 .25.168.418.418.418.254 0 .422-.168.422-.418v-1.66a4.543 4.543 0 0 1 2.535 1.054l-1.191 1.192a.408.408 0 0 0 0 .59.384.384 0 0 0 .293.124c.125 0 .254-.042.293-.124L9 13.245a4.609 4.609 0 0 1 1.059 2.535h-1.66c-.254 0-.422.168-.422.418 0 .254.168.422.421.422h1.66a4.661 4.661 0 0 1-.402 1.512zM2.937 6.12c0-.46.38-.84.84-.84H9.45c.418 0 .754.297.84.672l1.469 6.469H9.406l-.043-.043a5.437 5.437 0 0 0-3.906-1.637h-.152c-.016 0-.032.004-.043.004-.04 0-.078.004-.117.004-.016 0-.028.004-.043.004-.04 0-.079.004-.118.008-.011 0-.023.004-.035.004a1.72 1.72 0 0 0-.14.015h-.012a5.457 5.457 0 0 0-1.86.57zm15.118 14.7a2.08 2.08 0 0 1-2.098-2.102c0-.07.004-.14.008-.207l.035-.13a2.111 2.111 0 0 1 1.96-1.76h.192c.793.038 1.496.542 1.836 1.265.11.254.168.535.168.832a2.083 2.083 0 0 1-2.101 2.101zm5.082-7.266l-1.512 4.242c-.043.039-.082.082-.168.082h-.582a2.917 2.917 0 0 0-2.82-2.098c-1.36 0-2.489.899-2.828 2.14h-4.563c.16-.515.242-1.03.25-1.577v-.004c.004-.031.004-.067.004-.098v-.015-.028a5.436 5.436 0 0 0-.828-2.894h12.879c.086 0 .168.039.168.082 0 0 .043.082 0 .168zm0 0M17.848 4.402c.004 0 .007.004.015.004.16.145.192.25.192.29 0 .042-.04.124-.207.21-.211.125-.297.375-.168.586.082.125.25.211.375.211.086 0 .129 0 .21-.043.505-.336.63-.672.63-.922 0-.242-.075-.633-.516-.996a.465.465 0 0 0-.113-.097c-.168-.083-.211-.168-.211-.211 0-.04.043-.168.254-.336.21-.125.21-.418.082-.586-.125-.211-.418-.211-.586-.086-.504.422-.59.84-.59 1.094 0 .25.129.585.633.882zm0 0"/>
    <path d="M5.04 9.902H8.69a.733.733 0 0 0 .63-.336c.167-.254.21-.504.128-.757L8.86 6.71c-.082-.336-.418-.59-.796-.59H5.038c-.46 0-.84.379-.84.84v2.101c0 .461.38.84.84.84zm0-2.941h3.022l.63 2.101H5.038zm0 0M12.176 14.941h1.68c.253 0 .421-.168.421-.421 0-.25-.168-.418-.422-.418h-1.68c-.25 0-.417.168-.417.418 0 .253.168.421.418.421zm0 0M14.695 15.781h-2.52c-.25 0-.417.168-.417.418 0 .254.168.422.418.422h2.52c.253 0 .421-.168.421-.422 0-.25-.168-.418-.422-.418zm0 0"/>
</svg>
