<svg xmlns="http://www.w3.org/2000/svg" width="32" height="32" viewBox="0 0 24 24">
    <path d="M21.441 23.281l-3.597-2.617c.562-.25.957-.812.957-1.465V5.602C18.8 4.719 18.078 4 17.199 4h-2.133l-.707-2.121A.38.38 0 0 0 14 1.602h-4a.38.38 0 0 0-.36.277L8.935 4H6.8c-.88 0-1.602.719-1.602 1.602v13.597c0 .574.305 1.078.762 1.36L2.559 23.28c-.118.117-.16.278-.118.438.04.16.2.281.36.281h18.398c.16 0 .32-.121.403-.281.039-.16 0-.32-.16-.438zm-12.64-1.68v-.8h6v.8zm6 .797v.801h-6v-.8zM8 21.602H5.96l1-.801H8zm7.602-.801h1.117l1.093.8h-2.21zM18 19.199c0 .442-.36.801-.8.801H6.8c-.44 0-.8-.36-.8-.8V16h12zm0-4H6V9.602h12zM10.281 2.4h3.438L14.239 4H9.761zM6 5.601c0-.442.36-.801.8-.801h10.4c.44 0 .8.36.8.8v3.2H6zM4.96 22.398H8v.801H3.96zm10.642.801v-.8H18.8v-.079L20 23.2zm0 0"/>
    <path d="M8 19.2c.68 0 1.2-.52 1.2-1.2 0-.68-.52-1.2-1.2-1.2-.68 0-1.2.52-1.2 1.2 0 .68.52 1.2 1.2 1.2zm0-1.598c.238 0 .398.16.398.398 0 .238-.16.398-.398.398-.238 0-.398-.16-.398-.398 0-.238.16-.398.398-.398zm0 0M16 19.2c.68 0 1.2-.52 1.2-1.2 0-.68-.52-1.2-1.2-1.2-.68 0-1.2.52-1.2 1.2 0 .68.52 1.2 1.2 1.2zm0-1.598c.238 0 .398.16.398.398 0 .238-.16.398-.398.398-.238 0-.398-.16-.398-.398 0-.238.16-.398.398-.398zm0 0M14.8 5.602H9.2c-.24 0-.4.16-.4.398v1.602c0 .238.16.398.4.398h5.6c.24 0 .4-.16.4-.398V6c0-.238-.16-.398-.4-.398zm-.402 1.597H9.602v-.8h4.796zm0 0"/>
    <path d="M3.2 21.2c.081 0 .16-.04.241-.079.16-.121.2-.402.079-.562C1.8 18.28.8 15.079.8 12 .8 5.84 5.84.8 12 .8 18.16.8 23.2 5.84 23.2 12c0 2.84-1.2 6.121-3.122 8.559-.117.16-.078.441.082.562.16.117.442.078.559-.082C22.762 18.441 24 15.04 24 12c0-6.602-5.398-12-12-12S0 5.398 0 12c0 3.238 1.078 6.602 2.879 9.04.082.12.2.16.32.16zm0 0"/>
</svg>
