<svg xmlns="http://www.w3.org/2000/svg" width="32" height="32" viewBox="0 0 24 24">
    <path d="M21.422 23.281l-3.598-2.617c.563-.25.957-.812.957-1.465V5.602C18.781 4.719 18.06 4 17.18 4h-2.133l-.707-2.121a.38.38 0 0 0-.36-.277h-.238L14.66.68a.385.385 0 0 0 0-.559.385.385 0 0 0-.558 0l-1.48 1.48H11.34l.922-.921a.385.385 0 0 0 0-.559.39.39 0 0 0-.563 0l-1.48 1.48h-.637c-.16 0-.32.118-.363.278L8.512 4H6.379C5.5 4 4.78 4.719 4.78 5.602v13.597c0 .672.418 1.246 1.004 1.485L2.54 23.28a.443.443 0 0 0-.117.438c.039.16.2.281.36.281H21.18c.16 0 .32-.121.402-.281.04-.16 0-.32-.16-.438zm-12.64-1.68v-.8h6v.8zm6 .797v.801h-6v-.8zm-6.802-.796H5.941l1-.801h1.04zm7.602-.801h1.117l1.094.8h-2.211zm-10-11.2H17.98V15.2H5.582zm4.277-7.203h3.84L14.22 4h-4.88zM5.582 5.602c0-.442.36-.801.797-.801h10.8c.442 0 .801.36.801.8v3.2H5.582zm0 10.398H17.98v3.2c0 .44-.359.8-.8.8H6.379a.801.801 0 0 1-.797-.8zm-.64 6.398H7.98v.801H3.941zm10.64.801v-.8h3.2v-.079l1.198.88zm0 0"/>
    <path d="M7.582 19.2c.68 0 1.2-.52 1.2-1.2 0-.68-.52-1.2-1.2-1.2-.684 0-1.203.52-1.203 1.2 0 .68.52 1.2 1.203 1.2zm0-1.598c.238 0 .398.16.398.398 0 .238-.16.398-.398.398-.242 0-.402-.16-.402-.398 0-.238.16-.398.402-.398zm0 0M15.98 19.2c.68 0 1.2-.52 1.2-1.2 0-.68-.52-1.2-1.2-1.2-.68 0-1.199.52-1.199 1.2 0 .68.52 1.2 1.2 1.2zm0-1.598c.239 0 .399.16.399.398 0 .238-.16.398-.399.398-.238 0-.398-.16-.398-.398 0-.238.16-.398.398-.398zm0 0M14.781 5.602h-6c-.242 0-.402.16-.402.398v1.602c0 .238.16.398.402.398h6c.239 0 .399-.16.399-.398V6c0-.238-.16-.398-.399-.398zm-.402 1.597h-5.2v-.8h5.2zm0 0"/>
</svg>
