<svg xmlns="http://www.w3.org/2000/svg" width="32" height="32" viewBox="0 0 24 24">
    <path d="M 22.789062 18.003906 L 22.390625 18.003906 L 22.390625 16.007812 C 22.390625 14.382812 21.164062 13.035156 19.59375 12.835938 L 19.59375 9.210938 L 20.433594 9.210938 L 20.433594 10.089844 C 20.433594 10.492188 20.753906 10.8125 21.152344 10.8125 L 22.070312 10.8125 C 22.472656 10.8125 22.792969 10.492188 22.792969 10.089844 L 22.792969 7.574219 C 22.792969 7.175781 22.472656 6.855469 22.070312 6.855469 L 21.152344 6.855469 C 20.753906 6.855469 20.433594 7.175781 20.433594 7.574219 L 20.433594 8.414062 L 19.59375 8.414062 L 19.59375 4.417969 C 19.59375 4.175781 19.433594 4.015625 19.195312 4.015625 L 18.394531 4.015625 L 18.394531 2.816406 C 18.394531 2.578125 18.234375 2.417969 17.996094 2.417969 L 17.996094 0.417969 C 17.996094 0.300781 17.953125 0.101562 17.835938 0.0585938 C 17.714844 0.0195312 17.554688 -0.0195312 17.433594 0.0585938 L 15.835938 0.859375 C 15.675781 0.9375 15.597656 1.058594 15.597656 1.21875 L 15.597656 2.417969 C 15.355469 2.417969 15.199219 2.578125 15.199219 2.816406 L 15.199219 4.015625 L 8.800781 4.015625 L 8.800781 2.816406 C 8.800781 2.578125 8.644531 2.417969 8.402344 2.417969 L 8.402344 1.21875 C 8.402344 1.058594 8.324219 0.9375 8.203125 0.859375 L 6.605469 0.0585938 C 6.484375 -0.0195312 6.324219 -0.0195312 6.203125 0.0585938 C 6.085938 0.140625 6.003906 0.300781 6.003906 0.417969 L 6.003906 2.417969 C 5.765625 2.417969 5.605469 2.578125 5.605469 2.816406 L 5.605469 4.015625 L 4.804688 4.015625 C 4.566406 4.015625 4.40625 4.175781 4.40625 4.417969 L 4.40625 8.414062 L 3.566406 8.414062 L 3.566406 7.574219 C 3.566406 7.175781 3.246094 6.855469 2.847656 6.855469 L 1.929688 6.855469 C 1.527344 6.855469 1.207031 7.175781 1.207031 7.574219 L 1.207031 10.089844 C 1.207031 10.492188 1.527344 10.8125 1.929688 10.8125 L 2.886719 10.8125 C 3.289062 10.8125 3.605469 10.492188 3.566406 10.089844 L 3.566406 9.210938 L 4.40625 9.210938 L 4.40625 12.835938 C 2.835938 13.035156 1.609375 14.382812 1.609375 16.007812 L 1.609375 18.003906 L 1.210938 18.003906 C 0.53125 18.003906 0.0117188 18.523438 0.0117188 19.203125 L 0.0117188 20.003906 C 0.0117188 20.683594 0.53125 21.203125 1.210938 21.203125 L 2.007812 21.203125 L 2.007812 22.402344 C 2.007812 23.28125 2.726562 24 3.605469 24 L 5.207031 24 C 6.085938 24 6.804688 23.28125 6.804688 22.402344 L 6.804688 21.203125 L 16.796875 21.203125 L 16.796875 22.402344 C 16.796875 23.28125 17.515625 24 18.394531 24 L 19.992188 24 C 20.871094 24 21.59375 23.28125 21.59375 22.402344 L 21.59375 21.203125 L 22.789062 21.203125 C 23.46875 21.203125 23.988281 20.683594 23.988281 20.003906 L 23.988281 19.203125 C 23.988281 18.523438 23.46875 18.003906 22.789062 18.003906 Z M 21.191406 7.613281 L 21.992188 7.613281 L 21.992188 10.011719 L 21.191406 10.011719 Z M 2.808594 10.011719 L 2.007812 10.011719 L 2.007812 7.613281 L 2.808594 7.613281 Z M 16.394531 1.457031 L 17.195312 1.058594 L 17.195312 2.417969 L 16.394531 2.417969 Z M 15.996094 3.21875 L 17.59375 3.21875 L 17.59375 4.015625 L 15.996094 4.015625 Z M 6.804688 1.058594 L 7.605469 1.457031 L 7.605469 2.417969 L 6.804688 2.417969 Z M 6.40625 3.21875 L 8.003906 3.21875 L 8.003906 4.015625 L 6.40625 4.015625 Z M 5.207031 4.816406 L 18.792969 4.816406 L 18.792969 12.808594 L 5.207031 12.808594 Z M 2.40625 16.007812 C 2.40625 14.6875 3.488281 13.609375 4.804688 13.609375 L 19.195312 13.609375 C 20.511719 13.609375 21.59375 14.6875 21.59375 16.007812 L 21.59375 18.003906 L 2.40625 18.003906 Z M 6.003906 22.402344 C 6.003906 22.839844 5.644531 23.199219 5.207031 23.199219 L 3.605469 23.199219 C 3.167969 23.199219 2.808594 22.839844 2.808594 22.402344 L 2.808594 21.203125 L 6.003906 21.203125 Z M 20.792969 22.402344 C 20.792969 22.839844 20.433594 23.199219 19.992188 23.199219 L 18.394531 23.199219 C 17.953125 23.199219 17.59375 22.839844 17.59375 22.402344 L 17.59375 21.203125 L 20.792969 21.203125 Z M 23.191406 20.003906 C 23.191406 20.242188 23.03125 20.402344 22.792969 20.402344 L 1.207031 20.402344 C 0.96875 20.402344 0.808594 20.242188 0.808594 20.003906 L 0.808594 19.203125 C 0.808594 18.964844 0.96875 18.804688 1.207031 18.804688 L 22.789062 18.804688 C 23.03125 18.804688 23.191406 18.964844 23.191406 19.203125 Z M 23.191406 20.003906"/>
    <path d="M17.59375 11.609375L17.59375 6.015625 6.40625 6.015625 6.40625 11.609375zM7.203125 6.8125L16.796875 6.8125 16.796875 10.8125 13.757812 10.8125 15.078125 9.492188C15.238281 9.332031 15.238281 9.09375 15.078125 8.933594 14.917969 8.773438 14.679688 8.773438 14.519531 8.933594L12.640625 10.8125 10.160156 10.8125 11.480469 9.492188C11.640625 9.332031 11.640625 9.09375 11.480469 8.933594 11.320312 8.773438 11.082031 8.773438 10.921875 8.933594L9.042969 10.8125 7.203125 10.8125zM7.203125 14.40625L4.007812 14.40625C3.765625 14.40625 3.605469 14.566406 3.605469 14.808594L3.605469 16.804688C3.605469 17.046875 3.765625 17.207031 4.007812 17.207031L7.203125 17.207031C7.445312 17.207031 7.605469 17.046875 7.605469 16.804688L7.605469 14.808594C7.605469 14.566406 7.445312 14.40625 7.203125 14.40625zM6.804688 16.40625L4.40625 16.40625 4.40625 15.207031 6.804688 15.207031zM19.992188 14.40625L16.796875 14.40625C16.554688 14.40625 16.394531 14.566406 16.394531 14.808594L16.394531 16.804688C16.394531 17.046875 16.554688 17.207031 16.796875 17.207031L19.992188 17.207031C20.234375 17.207031 20.394531 17.046875 20.394531 16.804688L20.394531 14.808594C20.394531 14.566406 20.234375 14.40625 19.992188 14.40625zM19.59375 16.40625L17.195312 16.40625 17.195312 15.207031 19.59375 15.207031zM10.402344 15.207031L13.597656 15.207031C13.839844 15.207031 14 15.046875 14 14.808594 14 14.566406 13.839844 14.40625 13.597656 14.40625L10.402344 14.40625C10.160156 14.40625 10 14.566406 10 14.808594 10 15.046875 10.160156 15.207031 10.402344 15.207031zM14.796875 16.007812L9.203125 16.007812C8.960938 16.007812 8.800781 16.167969 8.800781 16.40625 8.800781 16.644531 8.960938 16.804688 9.203125 16.804688L14.796875 16.804688C15.039062 16.804688 15.199219 16.644531 15.199219 16.40625 15.199219 16.167969 15.039062 16.007812 14.796875 16.007812zM14.796875 16.007812"/>
</svg>
