<svg xmlns="http://www.w3.org/2000/svg" width="32" height="32" viewBox="0 0 24 24">
    <path d="M 23.640625 9.085938 L 20.167969 5.25 C 19.886719 4.972656 19.527344 4.8125 19.167969 4.8125 L 15.175781 4.8125 L 15.175781 3.972656 C 15.175781 3.09375 14.496094 2.414062 13.65625 2.414062 L 1.558594 2.414062 C 0.679688 2.414062 0 3.09375 0 3.972656 L 0 17.789062 C 0 18.550781 0.640625 19.1875 1.398438 19.1875 L 2.023438 19.1875 C 2.214844 20.550781 3.371094 21.585938 4.792969 21.585938 C 6.214844 21.585938 7.367188 20.550781 7.558594 19.1875 L 16.402344 19.1875 C 16.589844 20.550781 17.746094 21.585938 19.167969 21.585938 C 20.589844 21.585938 21.746094 20.550781 21.933594 19.1875 L 24 19.1875 L 24 10.003906 C 24 9.644531 23.878906 9.324219 23.640625 9.085938 Z M 23 9.605469 C 23.121094 9.683594 23.160156 9.84375 23.160156 9.964844 L 23.160156 11.203125 L 17.171875 11.203125 L 17.171875 7.207031 L 20.804688 7.207031 Z M 0.796875 10.800781 L 6.390625 10.800781 C 6.628906 10.800781 6.789062 10.640625 6.789062 10.402344 C 6.789062 10.164062 6.628906 10.003906 6.390625 10.003906 L 0.796875 10.003906 L 0.796875 8.804688 L 4.792969 8.804688 C 5.03125 8.804688 5.191406 8.644531 5.191406 8.40625 C 5.191406 8.167969 5.03125 8.007812 4.792969 8.007812 L 0.796875 8.007812 L 0.796875 3.972656 C 0.796875 3.535156 1.117188 3.214844 1.558594 3.214844 L 13.617188 3.214844 C 14.054688 3.214844 14.375 3.574219 14.375 3.972656 L 14.375 13.597656 L 0.796875 13.597656 Z M 4.792969 20.785156 C 3.675781 20.785156 2.796875 19.90625 2.796875 18.789062 C 2.796875 17.671875 3.675781 16.792969 4.792969 16.792969 C 5.910156 16.792969 6.789062 17.671875 6.789062 18.789062 C 6.789062 19.90625 5.910156 20.785156 4.792969 20.785156 Z M 14.375 18.390625 L 7.558594 18.390625 C 7.378906 17.109375 6.355469 16.125 5.054688 16.003906 C 5.042969 16.003906 5.035156 16.003906 5.027344 16.003906 C 4.992188 16 4.960938 16 4.925781 15.996094 C 4.882812 15.996094 4.835938 15.992188 4.792969 15.992188 C 4.746094 15.992188 4.703125 15.996094 4.65625 15.996094 C 4.625 16 4.589844 16 4.558594 16.003906 C 4.550781 16.003906 4.539062 16.003906 4.53125 16.003906 C 3.230469 16.125 2.203125 17.109375 2.023438 18.390625 L 1.398438 18.390625 C 1.078125 18.390625 0.796875 18.109375 0.796875 17.789062 L 0.796875 14.394531 L 14.375 14.394531 Z M 19.167969 20.785156 C 18.050781 20.785156 17.171875 19.90625 17.171875 18.789062 C 17.171875 17.671875 18.050781 16.792969 19.167969 16.792969 C 20.285156 16.792969 21.164062 17.671875 21.164062 18.789062 C 21.164062 19.90625 20.285156 20.785156 19.167969 20.785156 Z M 21.933594 18.390625 C 21.757812 17.109375 20.730469 16.125 19.429688 16.003906 C 19.421875 16.003906 19.410156 16.003906 19.402344 16.003906 C 19.367188 16 19.335938 16 19.304688 15.996094 C 19.257812 15.996094 19.214844 15.992188 19.167969 15.992188 C 19.121094 15.992188 19.078125 15.996094 19.03125 15.996094 C 19 16 18.96875 16 18.933594 16.003906 C 18.925781 16.003906 18.914062 16.003906 18.90625 16.003906 C 17.605469 16.125 16.578125 17.109375 16.402344 18.390625 L 15.175781 18.390625 L 15.175781 5.609375 L 19.167969 5.609375 C 19.289062 5.609375 19.449219 5.691406 19.566406 5.769531 L 20.140625 6.410156 L 17.050781 6.410156 C 16.691406 6.410156 16.371094 6.730469 16.371094 7.089844 L 16.371094 11.320312 C 16.371094 11.679688 16.691406 12 17.050781 12 L 23.160156 12 L 23.160156 13.996094 L 21.164062 13.996094 C 20.925781 13.996094 20.765625 14.15625 20.765625 14.394531 C 20.765625 14.636719 20.925781 14.796875 21.164062 14.796875 L 23.160156 14.796875 L 23.160156 18.390625 Z M 21.933594 18.390625"/>
    <path d="M4.792969 17.988281C4.351562 17.988281 3.992188 18.347656 3.992188 18.789062 3.992188 19.226562 4.351562 19.585938 4.792969 19.585938 5.230469 19.585938 5.589844 19.226562 5.589844 18.789062 5.589844 18.347656 5.230469 17.988281 4.792969 17.988281zM19.167969 17.988281C18.730469 17.988281 18.371094 18.347656 18.371094 18.789062 18.371094 19.226562 18.730469 19.585938 19.167969 19.585938 19.605469 19.585938 19.964844 19.226562 19.964844 18.789062 19.964844 18.347656 19.605469 17.988281 19.167969 17.988281zM19.167969 17.988281"/>
</svg>
