<svg xmlns="http://www.w3.org/2000/svg" width="32" height="32" viewBox="0 0 24 24">
    <path d="M24 10.582c0-.367-.164-.691-.406-.934a26.135 26.135 0 0 0-2.473-2.027V4.09c0-.164-.082-.285-.246-.367l-2.434-1.215c-.12-.082-.324-.043-.445.082l-2.234 2.12c-4.008-1.542-7.043-1.433-7.219-1.433a8.993 8.993 0 0 0-6.828 3.13c-.028.034-.059.066-.086.1-.024.028-.043.056-.067.083-.007.012-.015.02-.023.031C.594 7.805.055 9.141.023 10.457a.377.377 0 0 0 0 .262c.032 1.199.485 2.414 1.282 3.515.02.024.035.051.054.075l.024.03c.988 1.333 2.46 2.458 4.234 3.067l.45 3.766c.042.2.203.363.406.363h7.304a.363.363 0 0 0 .364-.363l.53-4.32c.356-.118.724-.247 1.099-.391l2.226 2.113c.082.082.16.121.285.121.078 0 .121 0 .121-.039l2.434-1.218c.16-.083.242-.204.242-.368v-3.492a25.958 25.958 0 0 0 2.516-2.062c.242-.246.406-.57.406-.934zm-5.64-7.223l1.949.973v2.73a24.265 24.265 0 0 0-3.72-2.011zM2.663 14.59c-.094-.093-.187-.187-.277-.288-.735-.84-1.227-1.762-1.438-2.696l1.063.922a.7.7 0 0 0 .281.082c.121 0 .246-.039.285-.12.164-.165.121-.407-.039-.571l-1.074-.93h.992a.385.385 0 0 0 .406-.406c0-.246-.164-.406-.406-.406h-.871l1.113-.895c.203-.12.203-.406.082-.566-.12-.203-.406-.203-.566-.082L.93 9.66c.191-.945.672-1.883 1.406-2.738.105-.121.215-.238.332-.352.887.934 1.41 2.434 1.41 4.012 0 1.578-.523 3.074-1.414 4.008zm4.176 6.134l-.145-1.215h6.864l-.149 1.215zm6.82-2.028H6.598l-.125-1.043c.648.149 1.324.23 2.027.23H8.785c.707 0 2.594-.07 5.067-.777zm6.649-1.867l-1.95.973-1.757-1.68a23.521 23.521 0 0 0 3.707-2.012zm2.718-5.922c-3.011 2.813-6.152 4.344-8.738 5.176a.314.314 0 0 0-.105.016c-3.246 1.015-5.602.933-5.641.933a8.443 8.443 0 0 1-2.43-.363 8.98 8.98 0 0 1-2.851-1.543C4.297 14.07 4.89 12.41 4.89 10.582c0-1.824-.625-3.484-1.633-4.539C4.754 4.832 6.738 4.09 8.582 4.09h.164c1.176 0 7.992.285 14.281 6.168.121.078.16.203.16.324s-.078.242-.16.324zm0 0"/>
    <path d="M19.902 10.176H7.73c-.242 0-.406.16-.406.406 0 .242.164.406.406.406h12.172a.385.385 0 0 0 .407-.406c0-.246-.164-.406-.407-.406zm0 0M17.469 12.203h-7.305a.385.385 0 0 0-.406.406c0 .243.164.407.406.407h7.305a.385.385 0 0 0 .406-.407.385.385 0 0 0-.406-.406zm0 0M10.164 8.957h7.305c.242 0 .406-.16.406-.406 0-.242-.164-.403-.406-.403h-7.305c-.242 0-.406.16-.406.403 0 .246.164.406.406.406zm0 0"/>
</svg>
