<svg xmlns="http://www.w3.org/2000/svg" width="32" height="32" viewBox="0 0 24 24">
    <path d="M19.714844 23.316406C19.644531 23.390625 19.601562 23.496094 19.601562 23.601562 19.601562 23.703125 19.644531 23.808594 19.714844 23.882812 19.792969 23.957031 19.894531 24 20 24 20.105469 24 20.207031 23.957031 20.285156 23.882812 20.355469 23.808594 20.398438 23.703125 20.398438 23.601562 20.398438 23.496094 20.355469 23.390625 20.285156 23.316406 20.132812 23.167969 19.867188 23.167969 19.714844 23.316406zM15.601562 23.601562C15.601562 23.820312 15.421875 24 15.199219 24 14.980469 24 14.800781 23.820312 14.800781 23.601562 14.800781 23.378906 14.980469 23.199219 15.199219 23.199219 15.421875 23.199219 15.601562 23.378906 15.601562 23.601562zM18.800781 23.601562C18.800781 23.820312 18.621094 24 18.398438 24 18.179688 24 18 23.820312 18 23.601562 18 23.378906 18.179688 23.199219 18.398438 23.199219 18.621094 23.199219 18.800781 23.378906 18.800781 23.601562zM17.199219 23.601562C17.199219 23.820312 17.019531 24 16.800781 24 16.578125 24 16.398438 23.820312 16.398438 23.601562 16.398438 23.378906 16.578125 23.199219 16.800781 23.199219 17.019531 23.199219 17.199219 23.378906 17.199219 23.601562zM14 23.601562C14 23.820312 13.820312 24 13.601562 24 13.378906 24 13.199219 23.820312 13.199219 23.601562 13.199219 23.378906 13.378906 23.199219 13.601562 23.199219 13.820312 23.199219 14 23.378906 14 23.601562zM6 23.601562C6 23.820312 5.820312 24 5.601562 24 5.378906 24 5.199219 23.820312 5.199219 23.601562 5.199219 23.378906 5.378906 23.199219 5.601562 23.199219 5.820312 23.199219 6 23.378906 6 23.601562zM9.199219 23.601562C9.199219 23.820312 9.019531 24 8.800781 24 8.578125 24 8.398438 23.820312 8.398438 23.601562 8.398438 23.378906 8.578125 23.199219 8.800781 23.199219 9.019531 23.199219 9.199219 23.378906 9.199219 23.601562zM10.800781 23.601562C10.800781 23.820312 10.621094 24 10.398438 24 10.179688 24 10 23.820312 10 23.601562 10 23.378906 10.179688 23.199219 10.398438 23.199219 10.621094 23.199219 10.800781 23.378906 10.800781 23.601562zM12.398438 23.601562C12.398438 23.820312 12.222656 24 12 24 11.777344 24 11.601562 23.820312 11.601562 23.601562 11.601562 23.378906 11.777344 23.199219 12 23.199219 12.222656 23.199219 12.398438 23.378906 12.398438 23.601562zM7.601562 23.601562C7.601562 23.820312 7.421875 24 7.199219 24 6.980469 24 6.800781 23.820312 6.800781 23.601562 6.800781 23.378906 6.980469 23.199219 7.199219 23.199219 7.421875 23.199219 7.601562 23.378906 7.601562 23.601562zM3.714844 23.316406C3.644531 23.390625 3.601562 23.496094 3.601562 23.601562 3.601562 23.703125 3.644531 23.808594 3.714844 23.882812 3.792969 23.957031 3.894531 24 4 24 4.105469 24 4.207031 23.957031 4.285156 23.882812 4.355469 23.808594 4.398438 23.703125 4.398438 23.601562 4.398438 23.496094 4.355469 23.390625 4.285156 23.316406 4.132812 23.167969 3.867188 23.167969 3.714844 23.316406zM4.398438 12.773438C4.398438 12.992188 4.222656 13.171875 4 13.171875 3.777344 13.171875 3.601562 12.992188 3.601562 12.773438 3.601562 12.550781 3.777344 12.371094 4 12.371094 4.222656 12.371094 4.398438 12.550781 4.398438 12.773438zM4 15.46875C3.78125 15.46875 3.601562 15.644531 3.601562 15.867188 3.601562 16.089844 3.78125 16.269531 4 16.269531 4.21875 16.269531 4.398438 16.089844 4.398438 15.867188 4.398438 15.644531 4.21875 15.46875 4 15.46875zM4.398438 14.320312C4.398438 14.539062 4.222656 14.71875 4 14.71875 3.777344 14.71875 3.601562 14.539062 3.601562 14.320312 3.601562 14.097656 3.777344 13.921875 4 13.921875 4.222656 13.921875 4.398438 14.097656 4.398438 14.320312zM4 10.828125C3.78125 10.828125 3.601562 11.003906 3.601562 11.226562 3.601562 11.449219 3.78125 11.628906 4 11.628906 4.21875 11.628906 4.398438 11.449219 4.398438 11.226562 4.398438 11.003906 4.21875 10.828125 4 10.828125zM4 20.109375C3.78125 20.109375 3.601562 20.285156 3.601562 20.507812 3.601562 20.726562 3.78125 20.90625 4 20.90625 4.21875 20.90625 4.398438 20.726562 4.398438 20.507812 4.398438 20.285156 4.21875 20.109375 4 20.109375zM4.398438 9.679688C4.398438 9.902344 4.222656 10.078125 4 10.078125 3.777344 10.078125 3.601562 9.902344 3.601562 9.679688 3.601562 9.460938 3.777344 9.28125 4 9.28125 4.222656 9.28125 4.398438 9.460938 4.398438 9.679688zM4.398438 18.960938C4.398438 19.179688 4.222656 19.359375 4 19.359375 3.777344 19.359375 3.601562 19.179688 3.601562 18.960938 3.601562 18.738281 3.777344 18.558594 4 18.558594 4.222656 18.558594 4.398438 18.738281 4.398438 18.960938zM4 17.011719C3.78125 17.011719 3.601562 17.191406 3.601562 17.410156 3.601562 17.636719 3.78125 17.8125 4 17.8125 4.21875 17.8125 4.398438 17.636719 4.398438 17.410156 4.398438 17.191406 4.21875 17.011719 4 17.011719zM4 21.652344C3.78125 21.652344 3.601562 21.832031 3.601562 22.050781 3.601562 22.277344 3.78125 22.453125 4 22.453125 4.21875 22.453125 4.398438 22.277344 4.398438 22.050781 4.398438 21.832031 4.21875 21.652344 4 21.652344zM20.398438 18.960938C20.398438 19.179688 20.222656 19.359375 20 19.359375 19.777344 19.359375 19.601562 19.179688 19.601562 18.960938 19.601562 18.738281 19.777344 18.558594 20 18.558594 20.222656 18.558594 20.398438 18.738281 20.398438 18.960938zM20 17.011719C19.78125 17.011719 19.601562 17.191406 19.601562 17.410156 19.601562 17.636719 19.78125 17.8125 20 17.8125 20.21875 17.8125 20.398438 17.636719 20.398438 17.410156 20.398438 17.191406 20.21875 17.011719 20 17.011719zM20 15.46875C19.78125 15.46875 19.601562 15.644531 19.601562 15.867188 19.601562 16.089844 19.78125 16.269531 20 16.269531 20.21875 16.269531 20.398438 16.089844 20.398438 15.867188 20.398438 15.644531 20.21875 15.46875 20 15.46875zM20 20.109375C19.78125 20.109375 19.601562 20.285156 19.601562 20.507812 19.601562 20.726562 19.78125 20.90625 20 20.90625 20.21875 20.90625 20.398438 20.726562 20.398438 20.507812 20.398438 20.285156 20.21875 20.109375 20 20.109375zM20 21.652344C19.78125 21.652344 19.601562 21.832031 19.601562 22.050781 19.601562 22.277344 19.78125 22.453125 20 22.453125 20.21875 22.453125 20.398438 22.277344 20.398438 22.050781 20.398438 21.832031 20.21875 21.652344 20 21.652344zM20.398438 12.773438C20.398438 12.992188 20.222656 13.171875 20 13.171875 19.777344 13.171875 19.601562 12.992188 19.601562 12.773438 19.601562 12.550781 19.777344 12.371094 20 12.371094 20.222656 12.371094 20.398438 12.550781 20.398438 12.773438zM20 10.828125C19.78125 10.828125 19.601562 11.003906 19.601562 11.226562 19.601562 11.449219 19.78125 11.628906 20 11.628906 20.21875 11.628906 20.398438 11.449219 20.398438 11.226562 20.398438 11.003906 20.21875 10.828125 20 10.828125zM20.398438 9.679688C20.398438 9.902344 20.222656 10.078125 20 10.078125 19.777344 10.078125 19.601562 9.902344 19.601562 9.679688 19.601562 9.460938 19.777344 9.28125 20 9.28125 20.222656 9.28125 20.398438 9.460938 20.398438 9.679688zM20.398438 14.320312C20.398438 14.539062 20.222656 14.71875 20 14.71875 19.777344 14.71875 19.601562 14.539062 19.601562 14.320312 19.601562 14.097656 19.777344 13.921875 20 13.921875 20.222656 13.921875 20.398438 14.097656 20.398438 14.320312zM3.601562 0L3.601562 8.398438 3.707031 8.398438C3.78125 8.480469 3.882812 8.53125 4 8.53125 4.117188 8.53125 4.21875 8.480469 4.292969 8.398438L19.707031 8.398438C19.78125 8.480469 19.882812 8.53125 20 8.53125 20.117188 8.53125 20.21875 8.480469 20.292969 8.398438L20.398438 8.398438 20.398438 0zM4.398438.800781L19.601562.800781 19.601562 7.601562 4.398438 7.601562zM4.398438.800781"/>
</svg>
