<svg xmlns="http://www.w3.org/2000/svg" width="32" height="32" viewBox="0 0 24 24">
    <path d="M15.602 23a.404.404 0 0 0-.368.234.4.4 0 0 0 .164.766H16v-.602a.4.4 0 0 0-.398-.398zm0 0M12.18 23.2h-.36a.398.398 0 0 0-.398.402c0 .218.176.398.398.398h.36a.4.4 0 0 0 0-.8zm0 0M10.39 23.2h-.359a.398.398 0 0 0-.398.402c0 .218.176.398.398.398h.36a.4.4 0 0 0 0-.8zm0 0M13.969 23.2h-.36a.401.401 0 0 0 0 .8h.36c.222 0 .398-.18.398-.398a.398.398 0 0 0-.398-.403zm0 0M8.766 23.234a.4.4 0 0 0-.766.164V24h.602a.4.4 0 0 0 .164-.766zm0 0M8.398 18.39c.223 0 .403-.18.403-.402v-.383a.401.401 0 0 0-.8 0l-.001.383c0 .223.18.403.398.403zm0 0M8.398 20.324c.223 0 .403-.18.403-.402v-.387a.398.398 0 0 0-.403-.398.398.398 0 0 0-.398.398v.387c0 .223.18.402.398.402zm0 0M8.398 16.457c.223 0 .403-.18.403-.398v-.387a.401.401 0 0 0-.8 0l-.001.387a.4.4 0 0 0 .398.398zm0 0M8.398 14.523a.398.398 0 0 0 .403-.398v-.387a.401.401 0 0 0-.801 0v.387c0 .223.18.398.398.398zm0 0M8.398 8.73c.223 0 .403-.18.403-.402v-.387a.401.401 0 0 0-.801 0v.387c0 .223.18.402.398.402zm0 0M8.398 22.254c.223 0 .403-.18.403-.399v-.386a.401.401 0 0 0-.8 0l-.001.386a.4.4 0 0 0 .398.399zm0 0M8.398 6.797c.223 0 .403-.18.403-.402v-.383a.401.401 0 0 0-.8 0l-.001.383c0 .222.18.402.398.402zm0 0M8.398 2.934c.223 0 .403-.18.403-.403v-.386a.401.401 0 0 0-.801 0v.386c0 .223.18.403.398.403zm0 0M8.398 4.863a.398.398 0 0 0 .403-.398v-.387a.398.398 0 0 0-.403-.398.398.398 0 0 0-.398.398v.387c0 .223.18.398.398.398zm0 0M8.398 10.66c.223 0 .403-.18.403-.398v-.387a.401.401 0 0 0-.8 0l-.001.387a.4.4 0 0 0 .398.398zm0 0M8.398 12.594c.223 0 .403-.18.403-.403v-.382a.401.401 0 0 0-.8 0l-.001.382c0 .223.18.403.398.403zm0 0M8.602 0H8v.602a.4.4 0 0 0 .766.164A.4.4 0 0 0 8.602 0zm0 0M13.969 0h-.36a.4.4 0 0 0 0 .8h.36c.222 0 .398-.179.398-.402A.398.398 0 0 0 13.97 0zm0 0M10.39 0h-.359a.398.398 0 0 0-.398.398c0 .223.176.403.398.403h.36a.401.401 0 0 0 0-.801zm0 0M12.18 0h-.36a.398.398 0 0 0-.398.398c0 .223.176.403.398.403h.36a.401.401 0 0 0 0-.801zm0 0M15.398 0a.4.4 0 0 0-.164.766A.4.4 0 0 0 16 .602V0zm0 0M15.602 13.34a.401.401 0 0 0-.403.398v.387a.401.401 0 0 0 .8 0l.001-.387a.4.4 0 0 0-.398-.398zm0 0M15.602 7.543a.401.401 0 0 0-.403.398v.387a.401.401 0 0 0 .8 0l.001-.387a.4.4 0 0 0-.398-.398zm0 0M15.602 9.477a.398.398 0 0 0-.403.398v.387a.401.401 0 0 0 .801 0v-.387a.398.398 0 0 0-.398-.398zm0 0M15.602 21.066a.402.402 0 0 0-.403.403v.386a.401.401 0 0 0 .801 0v-.386a.401.401 0 0 0-.398-.403zm0 0M15.602 5.61a.402.402 0 0 0-.403.402v.383a.401.401 0 0 0 .8 0l.001-.383a.401.401 0 0 0-.398-.403zm0 0M15.602 3.676a.402.402 0 0 0-.403.402v.387c0 .223.18.398.403.398A.398.398 0 0 0 16 4.465v-.387a.401.401 0 0 0-.398-.402zm0 0M15.602 11.406a.402.402 0 0 0-.403.403v.382a.401.401 0 0 0 .8 0l.001-.382a.401.401 0 0 0-.398-.403zm0 0M15.602 17.203a.402.402 0 0 0-.403.402v.383a.401.401 0 0 0 .8 0l.001-.383a.401.401 0 0 0-.398-.402zm0 0M15.602 19.137a.398.398 0 0 0-.403.398v.387c0 .223.18.398.403.398a.398.398 0 0 0 .398-.398v-.387a.398.398 0 0 0-.398-.398zm0 0M15.602 15.27a.402.402 0 0 0-.403.402v.387a.401.401 0 0 0 .801 0v-.387a.401.401 0 0 0-.398-.402zm0 0M15.602 1.746a.401.401 0 0 0-.403.399v.386a.401.401 0 0 0 .8 0l.001-.386a.4.4 0 0 0-.398-.399zm0 0"/>
</svg>
