<svg xmlns="http://www.w3.org/2000/svg" width="32" height="32" viewBox="0 0 24 24">
    <path d="M12.398 13.988V6.602a.398.398 0 1 0-.796 0v7.394l-7.036 5.078a.4.4 0 1 0 .47.649l6.972-5.035 7.367 5.042a.395.395 0 0 0 .555-.105.397.397 0 0 0-.106-.555zm0 0M11.602 3.566v1.036a.398.398 0 1 0 .796 0V3.566l1.086-1.082a.4.4 0 0 0-.566-.566L12 2.836l-.918-.918a.4.4 0 0 0-.566.566zm0 0M22.965 20.602l.918-.918a.4.4 0 0 0-.567-.567l-.918.918-.914-.918a.4.4 0 0 0-.566.567l.918.918-.918.914a.4.4 0 0 0 .566.566l.914-.918.918.918a.399.399 0 0 0 .567 0 .4.4 0 0 0 0-.566zm0 0M3.168 19.555a.385.385 0 0 0 0-.309.387.387 0 0 0-.215-.215.425.425 0 0 0-.152-.031H.398a.4.4 0 0 0 0 .8h1.438L.117 21.517a.41.41 0 0 0-.086.438c.04.097.117.175.215.214.05.02.102.031.152.031h2.403a.4.4 0 0 0 0-.8H1.367l1.715-1.715a.392.392 0 0 0 .086-.13zm0 0"/>
</svg>
