<svg xmlns="http://www.w3.org/2000/svg" width="32" height="32" viewBox="0 0 24 24">
    <path d="M 22.800781 5.597656 C 22.800781 5.589844 22.796875 5.585938 22.796875 5.578125 C 22.796875 5.550781 22.792969 5.519531 22.785156 5.492188 C 22.78125 5.480469 22.773438 5.46875 22.769531 5.457031 C 22.761719 5.4375 22.753906 5.414062 22.742188 5.394531 C 22.734375 5.382812 22.726562 5.375 22.71875 5.363281 C 22.703125 5.34375 22.691406 5.328125 22.675781 5.3125 C 22.664062 5.304688 22.652344 5.296875 22.640625 5.285156 C 22.632812 5.277344 22.621094 5.269531 22.609375 5.261719 C 22.605469 5.257812 22.597656 5.253906 22.589844 5.25 C 22.585938 5.246094 22.578125 5.242188 22.574219 5.242188 L 11.773438 0.0390625 C 11.660156 -0.015625 11.527344 -0.0117188 11.414062 0.046875 L 1.414062 5.246094 C 1.410156 5.25 1.410156 5.253906 1.40625 5.253906 C 1.398438 5.257812 1.394531 5.257812 1.390625 5.261719 C 1.375 5.269531 1.367188 5.28125 1.355469 5.289062 C 1.34375 5.300781 1.328125 5.308594 1.320312 5.320312 C 1.304688 5.332031 1.292969 5.351562 1.277344 5.367188 C 1.269531 5.378906 1.261719 5.390625 1.253906 5.402344 C 1.242188 5.421875 1.234375 5.445312 1.226562 5.46875 C 1.222656 5.476562 1.21875 5.488281 1.214844 5.496094 C 1.207031 5.53125 1.199219 5.5625 1.199219 5.601562 L 1.199219 18.398438 C 1.199219 18.550781 1.285156 18.691406 1.421875 18.757812 L 11.820312 23.957031 C 11.828125 23.960938 11.832031 23.960938 11.839844 23.960938 C 11.890625 23.984375 11.945312 24 12 24 C 12.054688 24 12.109375 23.984375 12.160156 23.960938 C 12.167969 23.960938 12.171875 23.960938 12.179688 23.957031 L 22.578125 18.757812 C 22.714844 18.691406 22.800781 18.550781 22.800781 18.398438 L 22.800781 5.601562 C 22.800781 5.597656 22.800781 5.597656 22.800781 5.597656 Z M 11.605469 0.847656 L 21.492188 5.605469 L 12 10.351562 L 2.480469 5.59375 Z M 2 6.246094 L 11.601562 11.046875 L 11.601562 22.953125 L 2 18.152344 Z M 22 18.152344 L 19.191406 19.558594 C 19.167969 19.359375 19.003906 19.199219 18.800781 19.199219 C 18.578125 19.199219 18.398438 19.378906 18.398438 19.601562 C 18.398438 19.714844 18.449219 19.816406 18.527344 19.890625 L 14.390625 21.957031 C 14.367188 21.757812 14.207031 21.601562 14 21.601562 C 13.777344 21.601562 13.601562 21.777344 13.601562 22 C 13.601562 22.113281 13.648438 22.214844 13.726562 22.289062 L 12.398438 22.953125 L 12.398438 11.046875 L 12.445312 11.023438 C 12.417969 11.078125 12.398438 11.136719 12.398438 11.199219 C 12.398438 11.421875 12.578125 11.601562 12.800781 11.601562 C 13.019531 11.601562 13.199219 11.421875 13.199219 11.199219 C 13.199219 11.003906 13.054688 10.847656 12.867188 10.8125 L 13.808594 10.34375 C 13.863281 10.375 13.929688 10.398438 14 10.398438 C 14.203125 10.398438 14.363281 10.246094 14.390625 10.050781 L 17.246094 8.625 C 17.21875 8.679688 17.199219 8.738281 17.199219 8.800781 C 17.199219 9.019531 17.378906 9.199219 17.601562 9.199219 C 17.820312 9.199219 18 9.019531 18 8.800781 C 18 8.601562 17.855469 8.445312 17.667969 8.414062 L 18.605469 7.945312 C 18.664062 7.976562 18.730469 8 18.800781 8 C 19.003906 8 19.164062 7.847656 19.1875 7.652344 L 22 6.246094 Z M 22 18.152344"/>
    <path d="M20.398438 8.800781C20.398438 9.019531 20.222656 9.199219 20 9.199219 19.777344 9.199219 19.601562 9.019531 19.601562 8.800781 19.601562 8.578125 19.777344 8.398438 20 8.398438 20.222656 8.398438 20.398438 8.578125 20.398438 8.800781zM21.601562 7.601562C21.601562 7.820312 21.421875 8 21.199219 8 20.980469 8 20.800781 7.820312 20.800781 7.601562 20.800781 7.378906 20.980469 7.199219 21.199219 7.199219 21.421875 7.199219 21.601562 7.378906 21.601562 7.601562zM15.601562 11.199219C15.601562 11.421875 15.421875 11.601562 15.199219 11.601562 14.980469 11.601562 14.800781 11.421875 14.800781 11.199219 14.800781 10.980469 14.980469 10.800781 15.199219 10.800781 15.421875 10.800781 15.601562 10.980469 15.601562 11.199219zM13.199219 13.601562C13.199219 13.820312 13.019531 14 12.800781 14 12.578125 14 12.398438 13.820312 12.398438 13.601562 12.398438 13.378906 12.578125 13.199219 12.800781 13.199219 13.019531 13.199219 13.199219 13.378906 13.199219 13.601562zM15.601562 13.601562C15.601562 13.820312 15.421875 14 15.199219 14 14.980469 14 14.800781 13.820312 14.800781 13.601562 14.800781 13.378906 14.980469 13.199219 15.199219 13.199219 15.421875 13.199219 15.601562 13.378906 15.601562 13.601562zM20.398438 13.601562C20.398438 13.820312 20.222656 14 20 14 19.777344 14 19.601562 13.820312 19.601562 13.601562 19.601562 13.378906 19.777344 13.199219 20 13.199219 20.222656 13.199219 20.398438 13.378906 20.398438 13.601562zM14.398438 12.398438C14.398438 12.621094 14.222656 12.800781 14 12.800781 13.777344 12.800781 13.601562 12.621094 13.601562 12.398438 13.601562 12.179688 13.777344 12 14 12 14.222656 12 14.398438 12.179688 14.398438 12.398438zM16.800781 10C16.800781 10.222656 16.621094 10.398438 16.398438 10.398438 16.179688 10.398438 16 10.222656 16 10 16 9.777344 16.179688 9.601562 16.398438 9.601562 16.621094 9.601562 16.800781 9.777344 16.800781 10zM18 11.199219C18 11.421875 17.820312 11.601562 17.601562 11.601562 17.378906 11.601562 17.199219 11.421875 17.199219 11.199219 17.199219 10.980469 17.378906 10.800781 17.601562 10.800781 17.820312 10.800781 18 10.980469 18 11.199219zM20.398438 11.199219C20.398438 11.421875 20.222656 11.601562 20 11.601562 19.777344 11.601562 19.601562 11.421875 19.601562 11.199219 19.601562 10.980469 19.777344 10.800781 20 10.800781 20.222656 10.800781 20.398438 10.980469 20.398438 11.199219zM19.199219 10C19.199219 10.222656 19.019531 10.398438 18.800781 10.398438 18.578125 10.398438 18.398438 10.222656 18.398438 10 18.398438 9.777344 18.578125 9.601562 18.800781 9.601562 19.019531 9.601562 19.199219 9.777344 19.199219 10zM16.800781 12.398438C16.800781 12.621094 16.621094 12.800781 16.398438 12.800781 16.179688 12.800781 16 12.621094 16 12.398438 16 12.179688 16.179688 12 16.398438 12 16.621094 12 16.800781 12.179688 16.800781 12.398438zM18 13.601562C18 13.820312 17.820312 14 17.601562 14 17.378906 14 17.199219 13.820312 17.199219 13.601562 17.199219 13.378906 17.378906 13.199219 17.601562 13.199219 17.820312 13.199219 18 13.378906 18 13.601562zM19.199219 12.398438C19.199219 12.621094 19.019531 12.800781 18.800781 12.800781 18.578125 12.800781 18.398438 12.621094 18.398438 12.398438 18.398438 12.179688 18.578125 12 18.800781 12 19.019531 12 19.199219 12.179688 19.199219 12.398438zM21.601562 10C21.601562 10.222656 21.421875 10.398438 21.199219 10.398438 20.980469 10.398438 20.800781 10.222656 20.800781 10 20.800781 9.777344 20.980469 9.601562 21.199219 9.601562 21.421875 9.601562 21.601562 9.777344 21.601562 10zM21.601562 12.398438C21.601562 12.621094 21.421875 12.800781 21.199219 12.800781 20.980469 12.800781 20.800781 12.621094 20.800781 12.398438 20.800781 12.179688 20.980469 12 21.199219 12 21.421875 12 21.601562 12.179688 21.601562 12.398438zM13.199219 16C13.199219 16.222656 13.019531 16.398438 12.800781 16.398438 12.578125 16.398438 12.398438 16.222656 12.398438 16 12.398438 15.777344 12.578125 15.601562 12.800781 15.601562 13.019531 15.601562 13.199219 15.777344 13.199219 16zM15.601562 16C15.601562 16.222656 15.421875 16.398438 15.199219 16.398438 14.980469 16.398438 14.800781 16.222656 14.800781 16 14.800781 15.777344 14.980469 15.601562 15.199219 15.601562 15.421875 15.601562 15.601562 15.777344 15.601562 16zM14.398438 14.800781C14.398438 15.019531 14.222656 15.199219 14 15.199219 13.777344 15.199219 13.601562 15.019531 13.601562 14.800781 13.601562 14.578125 13.777344 14.398438 14 14.398438 14.222656 14.398438 14.398438 14.578125 14.398438 14.800781zM13.199219 18.398438C13.199219 18.621094 13.019531 18.800781 12.800781 18.800781 12.578125 18.800781 12.398438 18.621094 12.398438 18.398438 12.398438 18.179688 12.578125 18 12.800781 18 13.019531 18 13.199219 18.179688 13.199219 18.398438zM15.601562 18.398438C15.601562 18.621094 15.421875 18.800781 15.199219 18.800781 14.980469 18.800781 14.800781 18.621094 14.800781 18.398438 14.800781 18.179688 14.980469 18 15.199219 18 15.421875 18 15.601562 18.179688 15.601562 18.398438zM20.398438 18.398438C20.398438 18.621094 20.222656 18.800781 20 18.800781 19.777344 18.800781 19.601562 18.621094 19.601562 18.398438 19.601562 18.179688 19.777344 18 20 18 20.222656 18 20.398438 18.179688 20.398438 18.398438zM14.398438 17.199219C14.398438 17.421875 14.222656 17.601562 14 17.601562 13.777344 17.601562 13.601562 17.421875 13.601562 17.199219 13.601562 16.980469 13.777344 16.800781 14 16.800781 14.222656 16.800781 14.398438 16.980469 14.398438 17.199219zM16.800781 14.800781C16.800781 15.019531 16.621094 15.199219 16.398438 15.199219 16.179688 15.199219 16 15.019531 16 14.800781 16 14.578125 16.179688 14.398438 16.398438 14.398438 16.621094 14.398438 16.800781 14.578125 16.800781 14.800781zM18 16C18 16.222656 17.820312 16.398438 17.601562 16.398438 17.378906 16.398438 17.199219 16.222656 17.199219 16 17.199219 15.777344 17.378906 15.601562 17.601562 15.601562 17.820312 15.601562 18 15.777344 18 16zM20.398438 16C20.398438 16.222656 20.222656 16.398438 20 16.398438 19.777344 16.398438 19.601562 16.222656 19.601562 16 19.601562 15.777344 19.777344 15.601562 20 15.601562 20.222656 15.601562 20.398438 15.777344 20.398438 16zM19.199219 14.800781C19.199219 15.019531 19.019531 15.199219 18.800781 15.199219 18.578125 15.199219 18.398438 15.019531 18.398438 14.800781 18.398438 14.578125 18.578125 14.398438 18.800781 14.398438 19.019531 14.398438 19.199219 14.578125 19.199219 14.800781zM16.800781 17.199219C16.800781 17.421875 16.621094 17.601562 16.398438 17.601562 16.179688 17.601562 16 17.421875 16 17.199219 16 16.980469 16.179688 16.800781 16.398438 16.800781 16.621094 16.800781 16.800781 16.980469 16.800781 17.199219zM18 18.398438C18 18.621094 17.820312 18.800781 17.601562 18.800781 17.378906 18.800781 17.199219 18.621094 17.199219 18.398438 17.199219 18.179688 17.378906 18 17.601562 18 17.820312 18 18 18.179688 18 18.398438zM19.199219 17.199219C19.199219 17.421875 19.019531 17.601562 18.800781 17.601562 18.578125 17.601562 18.398438 17.421875 18.398438 17.199219 18.398438 16.980469 18.578125 16.800781 18.800781 16.800781 19.019531 16.800781 19.199219 16.980469 19.199219 17.199219zM21.601562 14.800781C21.601562 15.019531 21.421875 15.199219 21.199219 15.199219 20.980469 15.199219 20.800781 15.019531 20.800781 14.800781 20.800781 14.578125 20.980469 14.398438 21.199219 14.398438 21.421875 14.398438 21.601562 14.578125 21.601562 14.800781zM21.601562 17.199219C21.601562 17.421875 21.421875 17.601562 21.199219 17.601562 20.980469 17.601562 20.800781 17.421875 20.800781 17.199219 20.800781 16.980469 20.980469 16.800781 21.199219 16.800781 21.421875 16.800781 21.601562 16.980469 21.601562 17.199219zM13.199219 20.800781C13.199219 21.019531 13.019531 21.199219 12.800781 21.199219 12.578125 21.199219 12.398438 21.019531 12.398438 20.800781 12.398438 20.578125 12.578125 20.398438 12.800781 20.398438 13.019531 20.398438 13.199219 20.578125 13.199219 20.800781zM15.601562 20.800781C15.601562 21.019531 15.421875 21.199219 15.199219 21.199219 14.980469 21.199219 14.800781 21.019531 14.800781 20.800781 14.800781 20.578125 14.980469 20.398438 15.199219 20.398438 15.421875 20.398438 15.601562 20.578125 15.601562 20.800781zM14.398438 19.601562C14.398438 19.820312 14.222656 20 14 20 13.777344 20 13.601562 19.820312 13.601562 19.601562 13.601562 19.378906 13.777344 19.199219 14 19.199219 14.222656 19.199219 14.398438 19.378906 14.398438 19.601562zM16.800781 19.601562C16.800781 19.820312 16.621094 20 16.398438 20 16.179688 20 16 19.820312 16 19.601562 16 19.378906 16.179688 19.199219 16.398438 19.199219 16.621094 19.199219 16.800781 19.378906 16.800781 19.601562zM16.800781 19.601562"/>
</svg>
