<svg xmlns="http://www.w3.org/2000/svg" width="32" height="32" viewBox="0 0 24 24">
    <path d="M 23.957031 8.328125 C 23.957031 8.308594 23.957031 8.289062 23.953125 8.269531 C 23.925781 8.003906 23.886719 7.742188 23.835938 7.480469 C 23.828125 7.4375 23.820312 7.394531 23.8125 7.351562 C 23.765625 7.117188 23.707031 6.886719 23.640625 6.65625 C 23.617188 6.578125 23.59375 6.496094 23.570312 6.414062 C 23.507812 6.226562 23.441406 6.039062 23.367188 5.851562 C 23.320312 5.738281 23.273438 5.625 23.226562 5.511719 C 23.160156 5.359375 23.085938 5.210938 23.011719 5.0625 C 22.949219 4.933594 22.882812 4.808594 22.8125 4.683594 C 22.734375 4.546875 22.65625 4.414062 22.570312 4.285156 C 22.496094 4.167969 22.417969 4.050781 22.335938 3.933594 C 22.242188 3.796875 22.140625 3.664062 22.039062 3.53125 C 21.960938 3.433594 21.882812 3.335938 21.800781 3.238281 C 21.679688 3.097656 21.554688 2.957031 21.421875 2.824219 C 21.382812 2.78125 21.347656 2.734375 21.304688 2.695312 C 21.300781 2.6875 21.289062 2.683594 21.285156 2.679688 C 19.621094 1.023438 17.328125 0 14.800781 0 C 10.886719 0 7.425781 2.453125 6.128906 6.128906 C 2.453125 7.425781 0 10.886719 0 14.800781 C 0 17.328125 1.023438 19.621094 2.679688 21.285156 C 2.6875 21.289062 2.6875 21.300781 2.695312 21.304688 C 2.734375 21.347656 2.78125 21.382812 2.824219 21.421875 C 2.957031 21.554688 3.097656 21.679688 3.242188 21.800781 C 3.335938 21.882812 3.433594 21.960938 3.53125 22.039062 C 3.664062 22.140625 3.796875 22.242188 3.933594 22.335938 C 4.050781 22.417969 4.167969 22.496094 4.285156 22.570312 C 4.417969 22.65625 4.550781 22.734375 4.683594 22.8125 C 4.808594 22.882812 4.933594 22.949219 5.0625 23.011719 C 5.210938 23.085938 5.359375 23.160156 5.511719 23.226562 C 5.625 23.273438 5.738281 23.320312 5.851562 23.367188 C 6.039062 23.441406 6.226562 23.507812 6.417969 23.570312 C 6.496094 23.59375 6.578125 23.617188 6.660156 23.640625 C 6.886719 23.707031 7.117188 23.765625 7.351562 23.8125 C 7.394531 23.820312 7.4375 23.828125 7.480469 23.835938 C 7.742188 23.886719 8.003906 23.925781 8.269531 23.953125 C 8.289062 23.957031 8.308594 23.957031 8.328125 23.957031 C 8.613281 23.984375 8.90625 24 9.199219 24 C 13.113281 24 16.574219 21.546875 17.871094 17.871094 C 21.546875 16.574219 24 13.113281 24 9.199219 C 24 8.90625 23.984375 8.613281 23.957031 8.328125 Z M 5.863281 7.09375 C 5.859375 7.273438 5.972656 7.441406 6.15625 7.484375 C 6.191406 7.492188 6.222656 7.496094 6.253906 7.496094 C 6.433594 7.496094 6.597656 7.375 6.640625 7.195312 C 6.671875 7.070312 6.707031 6.945312 6.742188 6.824219 C 6.757812 6.777344 6.757812 6.726562 6.753906 6.679688 C 6.78125 6.644531 6.808594 6.609375 6.824219 6.566406 C 7.960938 3.117188 11.167969 0.800781 14.800781 0.800781 C 16.972656 0.800781 18.949219 1.636719 20.441406 2.992188 L 15.417969 8.019531 C 15.410156 8.011719 15.40625 8.007812 15.402344 8.003906 C 15.242188 7.855469 14.988281 7.867188 14.839844 8.03125 C 14.695312 8.1875 14.703125 8.429688 14.851562 8.582031 L 2.992188 20.441406 C 1.636719 18.949219 0.800781 16.972656 0.800781 14.800781 C 0.800781 11.421875 2.804688 8.414062 5.863281 7.09375 Z M 17.429688 17.175781 C 17.3125 17.21875 17.21875 17.3125 17.175781 17.429688 C 16.039062 20.882812 12.832031 23.199219 9.199219 23.199219 C 8.921875 23.199219 8.644531 23.183594 8.371094 23.15625 C 8.300781 23.152344 8.230469 23.136719 8.164062 23.128906 C 7.957031 23.105469 7.753906 23.074219 7.554688 23.035156 C 7.488281 23.023438 7.421875 23.003906 7.355469 22.988281 C 7.152344 22.941406 6.949219 22.894531 6.753906 22.835938 C 6.699219 22.816406 6.644531 22.796875 6.589844 22.777344 C 6.382812 22.710938 6.179688 22.640625 5.980469 22.554688 C 5.9375 22.539062 5.890625 22.515625 5.847656 22.496094 C 5.644531 22.40625 5.445312 22.3125 5.25 22.207031 C 5.207031 22.1875 5.167969 22.164062 5.125 22.140625 C 4.933594 22.035156 4.746094 21.921875 4.566406 21.796875 C 4.523438 21.769531 4.480469 21.738281 4.4375 21.710938 C 4.261719 21.589844 4.09375 21.464844 3.929688 21.332031 C 3.882812 21.292969 3.835938 21.253906 3.785156 21.210938 C 3.707031 21.148438 3.636719 21.074219 3.558594 21.007812 L 21.007812 3.558594 C 21.074219 3.636719 21.148438 3.707031 21.214844 3.789062 C 21.253906 3.835938 21.292969 3.882812 21.332031 3.929688 C 21.464844 4.09375 21.589844 4.261719 21.710938 4.4375 C 21.742188 4.480469 21.769531 4.523438 21.800781 4.566406 C 21.921875 4.746094 22.035156 4.933594 22.140625 5.128906 C 22.164062 5.167969 22.1875 5.207031 22.210938 5.25 C 22.3125 5.445312 22.410156 5.644531 22.496094 5.847656 C 22.515625 5.890625 22.539062 5.9375 22.558594 5.980469 C 22.640625 6.179688 22.710938 6.382812 22.78125 6.589844 C 22.796875 6.644531 22.816406 6.699219 22.835938 6.753906 C 22.894531 6.949219 22.945312 7.152344 22.988281 7.355469 C 23.003906 7.421875 23.023438 7.488281 23.035156 7.554688 C 23.078125 7.753906 23.105469 7.957031 23.128906 8.164062 C 23.136719 8.234375 23.152344 8.300781 23.160156 8.371094 C 23.183594 8.644531 23.199219 8.921875 23.199219 9.199219 C 23.199219 12.832031 20.882812 16.039062 17.429688 17.175781 Z M 17.429688 17.175781"/>
    <path d="M13.320312 7.476562C13.433594 7.539062 13.542969 7.605469 13.648438 7.671875 13.714844 7.714844 13.789062 7.734375 13.859375 7.734375 13.992188 7.734375 14.125 7.667969 14.199219 7.546875 14.316406 7.359375 14.261719 7.113281 14.074219 6.996094 13.957031 6.921875 13.835938 6.851562 13.714844 6.78125 13.519531 6.671875 13.277344 6.742188 13.167969 6.933594 13.058594 7.125 13.128906 7.371094 13.320312 7.476562zM7.71875 6.523438C7.742188 6.523438 7.765625 6.523438 7.789062 6.519531 7.914062 6.496094 8.039062 6.480469 8.164062 6.464844 8.386719 6.4375 8.539062 6.238281 8.511719 6.015625 8.488281 5.796875 8.289062 5.636719 8.066406 5.667969 7.929688 5.6875 7.789062 5.707031 7.652344 5.730469 7.433594 5.769531 7.289062 5.976562 7.328125 6.191406 7.359375 6.386719 7.527344 6.523438 7.71875 6.523438zM11.566406 6.738281C11.6875 6.773438 11.808594 6.8125 11.929688 6.855469 11.972656 6.867188 12.015625 6.875 12.058594 6.875 12.226562 6.875 12.382812 6.773438 12.4375 6.605469 12.511719 6.398438 12.398438 6.167969 12.191406 6.097656 12.058594 6.054688 11.925781 6.011719 11.789062 5.972656 11.578125 5.910156 11.355469 6.03125 11.292969 6.242188 11.234375 6.457031 11.355469 6.675781 11.566406 6.738281zM9.691406 6.414062C9.816406 6.421875 9.945312 6.429688 10.070312 6.445312 10.085938 6.445312 10.097656 6.445312 10.113281 6.445312 10.316406 6.445312 10.488281 6.292969 10.511719 6.089844 10.53125 5.867188 10.375 5.671875 10.152344 5.648438 10.015625 5.636719 9.875 5.625 9.738281 5.617188 9.503906 5.601562 9.328125 5.769531 9.3125 5.992188 9.300781 6.210938 9.46875 6.402344 9.691406 6.414062zM5.996094 9.476562C5.996094 9.476562 6 9.476562 6 9.476562 6.21875 9.476562 6.398438 9.300781 6.402344 9.082031 6.402344 8.953125 6.40625 8.828125 6.414062 8.703125 6.425781 8.480469 6.257812 8.292969 6.039062 8.277344 5.820312 8.265625 5.628906 8.433594 5.617188 8.652344 5.609375 8.792969 5.601562 8.933594 5.601562 9.074219 5.597656 9.292969 5.773438 9.476562 5.996094 9.476562zM6.054688 10.277344C5.839844 10.3125 5.691406 10.519531 5.726562 10.738281 5.753906 10.875 5.777344 11.011719 5.808594 11.148438 5.847656 11.335938 6.015625 11.464844 6.199219 11.464844 6.226562 11.464844 6.253906 11.460938 6.285156 11.453125 6.5 11.40625 6.636719 11.195312 6.589844 10.976562 6.5625 10.855469 6.539062 10.730469 6.519531 10.605469 6.480469 10.386719 6.273438 10.242188 6.054688 10.277344zM7.578125 14.898438C7.65625 14.996094 7.773438 15.050781 7.890625 15.050781 7.976562 15.050781 8.066406 15.023438 8.136719 14.964844 8.3125 14.828125 8.339844 14.574219 8.203125 14.402344 8.125 14.300781 8.046875 14.199219 7.972656 14.097656 7.84375 13.917969 7.59375 13.875 7.414062 14.003906 7.238281 14.132812 7.195312 14.382812 7.324219 14.5625 7.40625 14.675781 7.488281 14.789062 7.578125 14.898438zM6.308594 12.742188C6.359375 12.871094 6.417969 13 6.476562 13.125 6.542969 13.269531 6.6875 13.355469 6.839844 13.355469 6.894531 13.355469 6.953125 13.339844 7.007812 13.316406 7.207031 13.222656 7.292969 12.984375 7.199219 12.78125 7.144531 12.667969 7.09375 12.550781 7.046875 12.433594 6.960938 12.230469 6.726562 12.132812 6.523438 12.21875 6.316406 12.304688 6.222656 12.539062 6.308594 12.742188zM6.308594 12.742188"/>
</svg>
