<svg xmlns="http://www.w3.org/2000/svg" width="32" height="32" viewBox="0 0 24 24">
    <path d="M19.136719 17.765625C19.144531 17.742188 19.144531 17.71875 19.148438 17.699219 19.15625 17.671875 19.160156 17.644531 19.164062 17.621094 19.1875 17.507812 19.199219 17.390625 19.199219 17.277344L19.199219 5.601562C19.421875 5.601562 19.601562 5.421875 19.601562 5.199219 19.601562 4.980469 19.421875 4.800781 19.199219 4.800781L19.199219 1.925781C19.199219.863281 18.335938 0 17.277344 0L1.925781 0C.863281 0 0 .863281 0 1.925781L0 17.277344C0 18.335938.863281 19.199219 1.925781 19.199219L4.800781 19.199219C4.800781 19.421875 4.980469 19.601562 5.199219 19.601562 5.421875 19.601562 5.601562 19.421875 5.601562 19.199219L17.277344 19.199219C17.394531 19.199219 17.507812 19.1875 17.621094 19.164062 17.648438 19.160156 17.671875 19.15625 17.699219 19.152344 17.722656 19.144531 17.746094 19.144531 17.769531 19.136719 17.785156 19.132812 17.796875 19.121094 17.8125 19.113281 18.4375 18.929688 18.929688 18.441406 19.113281 17.820312 19.121094 17.800781 19.132812 17.785156 19.136719 17.765625zM17.539062 18.367188C17.453125 18.386719 17.363281 18.398438 17.277344 18.398438L1.925781 18.398438C1.304688 18.398438.800781 17.894531.800781 17.277344L.800781 1.925781C.800781 1.304688 1.304688.800781 1.925781.800781L17.277344.800781C17.894531.800781 18.398438 1.304688 18.398438 1.925781L18.398438 17.277344C18.398438 17.363281 18.386719 17.449219 18.367188 17.535156 18.269531 17.945312 17.949219 18.269531 17.539062 18.367188zM15.476562 23.199219L14.695312 23.199219C14.476562 23.199219 14.296875 23.378906 14.296875 23.601562 14.296875 23.820312 14.476562 24 14.695312 24L15.476562 24C15.695312 24 15.875 23.820312 15.875 23.601562 15.875 23.378906 15.695312 23.199219 15.476562 23.199219zM17.8125 23.199219L17.035156 23.199219C16.8125 23.199219 16.632812 23.378906 16.632812 23.601562 16.632812 23.820312 16.8125 24 17.035156 24L17.8125 24C18.035156 24 18.214844 23.820312 18.214844 23.601562 18.214844 23.378906 18.035156 23.199219 17.8125 23.199219zM8.464844 23.199219L7.6875 23.199219C7.464844 23.199219 7.285156 23.378906 7.285156 23.601562 7.285156 23.820312 7.464844 24 7.6875 24L8.464844 24C8.6875 24 8.863281 23.820312 8.863281 23.601562 8.863281 23.378906 8.6875 23.199219 8.464844 23.199219zM5.601562 21.539062L5.601562 20.757812C5.601562 20.539062 5.421875 20.359375 5.199219 20.359375 4.980469 20.359375 4.800781 20.539062 4.800781 20.757812L4.800781 21.539062C4.800781 21.757812 4.980469 21.9375 5.199219 21.9375 5.421875 21.9375 5.601562 21.757812 5.601562 21.539062zM6.296875 23.117188C6.117188 23.042969 5.960938 22.925781 5.839844 22.773438 5.707031 22.601562 5.453125 22.570312 5.28125 22.707031 5.105469 22.84375 5.078125 23.09375 5.214844 23.269531 5.417969 23.527344 5.6875 23.730469 5.988281 23.855469 6.039062 23.875 6.089844 23.886719 6.144531 23.886719 6.300781 23.886719 6.449219 23.792969 6.511719 23.636719 6.597656 23.433594 6.5 23.199219 6.296875 23.117188zM13.140625 23.199219L12.359375 23.199219C12.140625 23.199219 11.960938 23.378906 11.960938 23.601562 11.960938 23.820312 12.140625 24 12.359375 24L13.140625 24C13.359375 24 13.539062 23.820312 13.539062 23.601562 13.539062 23.378906 13.359375 23.199219 13.140625 23.199219zM10.800781 23.199219L10.023438 23.199219C9.800781 23.199219 9.621094 23.378906 9.621094 23.601562 9.621094 23.820312 9.800781 24 10.023438 24L10.800781 24C11.023438 24 11.203125 23.820312 11.203125 23.601562 11.203125 23.378906 11.023438 23.199219 10.800781 23.199219zM20.152344 23.199219L19.371094 23.199219C19.152344 23.199219 18.972656 23.378906 18.972656 23.601562 18.972656 23.820312 19.152344 24 19.371094 24L20.152344 24C20.371094 24 20.550781 23.820312 20.550781 23.601562 20.550781 23.378906 20.371094 23.199219 20.152344 23.199219zM21.949219 5.199219C21.949219 4.980469 21.773438 4.800781 21.550781 4.800781L20.773438 4.800781C20.550781 4.800781 20.371094 4.980469 20.371094 5.199219 20.371094 5.421875 20.550781 5.601562 20.773438 5.601562L21.550781 5.601562C21.773438 5.601562 21.949219 5.421875 21.949219 5.199219zM23.601562 16.648438C23.378906 16.648438 23.199219 16.828125 23.199219 17.046875L23.199219 17.828125C23.199219 18.046875 23.378906 18.226562 23.601562 18.226562 23.820312 18.226562 24 18.046875 24 17.828125L24 17.046875C24 16.828125 23.820312 16.648438 23.601562 16.648438zM23.601562 14.308594C23.378906 14.308594 23.199219 14.488281 23.199219 14.710938L23.199219 15.488281C23.199219 15.710938 23.378906 15.890625 23.601562 15.890625 23.820312 15.890625 24 15.710938 24 15.488281L24 14.710938C24 14.488281 23.820312 14.308594 23.601562 14.308594zM23.601562 11.972656C23.378906 11.972656 23.199219 12.152344 23.199219 12.375L23.199219 13.152344C23.199219 13.375 23.378906 13.550781 23.601562 13.550781 23.820312 13.550781 24 13.375 24 13.152344L24 12.375C24 12.152344 23.820312 11.972656 23.601562 11.972656zM23.601562 21.320312C23.378906 21.320312 23.199219 21.5 23.199219 21.722656L23.199219 22.074219C23.199219 22.179688 23.1875 22.285156 23.15625 22.386719 23.097656 22.597656 23.21875 22.820312 23.433594 22.878906 23.46875 22.890625 23.507812 22.894531 23.542969 22.894531 23.714844 22.894531 23.875 22.78125 23.925781 22.605469 23.976562 22.433594 24 22.253906 24 22.074219L24 21.722656C24 21.5 23.820312 21.320312 23.601562 21.320312zM23.601562 18.984375C23.378906 18.984375 23.199219 19.164062 23.199219 19.386719L23.199219 20.164062C23.199219 20.386719 23.378906 20.5625 23.601562 20.5625 23.820312 20.5625 24 20.386719 24 20.164062L24 19.386719C24 19.164062 23.820312 18.984375 23.601562 18.984375zM22.375 23.160156C22.277344 23.1875 22.175781 23.199219 22.074219 23.199219L21.707031 23.199219C21.488281 23.199219 21.308594 23.378906 21.308594 23.601562 21.308594 23.820312 21.488281 24 21.707031 24L22.074219 24C22.25 24 22.421875 23.976562 22.589844 23.929688 22.800781 23.871094 22.925781 23.652344 22.867188 23.441406 22.808594 23.226562 22.589844 23.101562 22.375 23.160156zM23.601562 9.636719C23.378906 9.636719 23.199219 9.816406 23.199219 10.035156L23.199219 10.816406C23.199219 11.035156 23.378906 11.214844 23.601562 11.214844 23.820312 11.214844 24 11.035156 24 10.816406L24 10.035156C24 9.816406 23.820312 9.636719 23.601562 9.636719zM23.492188 6.554688C23.539062 6.554688 23.589844 6.546875 23.640625 6.527344 23.84375 6.445312 23.945312 6.210938 23.863281 6.003906 23.738281 5.703125 23.539062 5.429688 23.28125 5.226562 23.109375 5.085938 22.859375 5.113281 22.71875 5.285156 22.582031 5.457031 22.609375 5.707031 22.78125 5.847656 22.929688 5.96875 23.046875 6.125 23.121094 6.304688 23.183594 6.460938 23.332031 6.554688 23.492188 6.554688zM23.601562 7.300781C23.378906 7.300781 23.199219 7.476562 23.199219 7.699219L23.199219 8.476562C23.199219 8.699219 23.378906 8.878906 23.601562 8.878906 23.820312 8.878906 24 8.699219 24 8.476562L24 7.699219C24 7.476562 23.820312 7.300781 23.601562 7.300781zM23.601562 7.300781"/>
    <path d="M3.601562 3.199219C3.601562 3.421875 3.421875 3.601562 3.199219 3.601562 2.980469 3.601562 2.800781 3.421875 2.800781 3.199219 2.800781 2.980469 2.980469 2.800781 3.199219 2.800781 3.421875 2.800781 3.601562 2.980469 3.601562 3.199219zM2.398438 2C2.398438 2.222656 2.222656 2.398438 2 2.398438 1.777344 2.398438 1.601562 2.222656 1.601562 2 1.601562 1.777344 1.777344 1.601562 2 1.601562 2.222656 1.601562 2.398438 1.777344 2.398438 2zM4.800781 2C4.800781 2.222656 4.621094 2.398438 4.398438 2.398438 4.179688 2.398438 4 2.222656 4 2 4 1.777344 4.179688 1.601562 4.398438 1.601562 4.621094 1.601562 4.800781 1.777344 4.800781 2zM6 3.199219C6 3.421875 5.820312 3.601562 5.601562 3.601562 5.378906 3.601562 5.199219 3.421875 5.199219 3.199219 5.199219 2.980469 5.378906 2.800781 5.601562 2.800781 5.820312 2.800781 6 2.980469 6 3.199219zM8.398438 3.199219C8.398438 3.421875 8.222656 3.601562 8 3.601562 7.777344 3.601562 7.601562 3.421875 7.601562 3.199219 7.601562 2.980469 7.777344 2.800781 8 2.800781 8.222656 2.800781 8.398438 2.980469 8.398438 3.199219zM13.199219 3.199219C13.199219 3.421875 13.019531 3.601562 12.800781 3.601562 12.578125 3.601562 12.398438 3.421875 12.398438 3.199219 12.398438 2.980469 12.578125 2.800781 12.800781 2.800781 13.019531 2.800781 13.199219 2.980469 13.199219 3.199219zM7.199219 2C7.199219 2.222656 7.019531 2.398438 6.800781 2.398438 6.578125 2.398438 6.398438 2.222656 6.398438 2 6.398438 1.777344 6.578125 1.601562 6.800781 1.601562 7.019531 1.601562 7.199219 1.777344 7.199219 2zM9.601562 2C9.601562 2.222656 9.421875 2.398438 9.199219 2.398438 8.980469 2.398438 8.800781 2.222656 8.800781 2 8.800781 1.777344 8.980469 1.601562 9.199219 1.601562 9.421875 1.601562 9.601562 1.777344 9.601562 2zM10.800781 3.199219C10.800781 3.421875 10.621094 3.601562 10.398438 3.601562 10.179688 3.601562 10 3.421875 10 3.199219 10 2.980469 10.179688 2.800781 10.398438 2.800781 10.621094 2.800781 10.800781 2.980469 10.800781 3.199219zM12 2C12 2.222656 11.820312 2.398438 11.601562 2.398438 11.378906 2.398438 11.199219 2.222656 11.199219 2 11.199219 1.777344 11.378906 1.601562 11.601562 1.601562 11.820312 1.601562 12 1.777344 12 2zM14.398438 2C14.398438 2.222656 14.222656 2.398438 14 2.398438 13.777344 2.398438 13.601562 2.222656 13.601562 2 13.601562 1.777344 13.777344 1.601562 14 1.601562 14.222656 1.601562 14.398438 1.777344 14.398438 2zM15.601562 3.199219C15.601562 3.421875 15.421875 3.601562 15.199219 3.601562 14.980469 3.601562 14.800781 3.421875 14.800781 3.199219 14.800781 2.980469 14.980469 2.800781 15.199219 2.800781 15.421875 2.800781 15.601562 2.980469 15.601562 3.199219zM16.800781 2C16.800781 2.222656 16.621094 2.398438 16.398438 2.398438 16.179688 2.398438 16 2.222656 16 2 16 1.777344 16.179688 1.601562 16.398438 1.601562 16.621094 1.601562 16.800781 1.777344 16.800781 2zM18 3.199219C18 3.421875 17.820312 3.601562 17.601562 3.601562 17.378906 3.601562 17.199219 3.421875 17.199219 3.199219 17.199219 2.980469 17.378906 2.800781 17.601562 2.800781 17.820312 2.800781 18 2.980469 18 3.199219zM3.601562 8C3.601562 8.222656 3.421875 8.398438 3.199219 8.398438 2.980469 8.398438 2.800781 8.222656 2.800781 8 2.800781 7.777344 2.980469 7.601562 3.199219 7.601562 3.421875 7.601562 3.601562 7.777344 3.601562 8zM3.601562 5.601562C3.601562 5.820312 3.421875 6 3.199219 6 2.980469 6 2.800781 5.820312 2.800781 5.601562 2.800781 5.378906 2.980469 5.199219 3.199219 5.199219 3.421875 5.199219 3.601562 5.378906 3.601562 5.601562zM2.398438 4.398438C2.398438 4.621094 2.222656 4.800781 2 4.800781 1.777344 4.800781 1.601562 4.621094 1.601562 4.398438 1.601562 4.179688 1.777344 4 2 4 2.222656 4 2.398438 4.179688 2.398438 4.398438zM2.398438 6.800781C2.398438 7.019531 2.222656 7.199219 2 7.199219 1.777344 7.199219 1.601562 7.019531 1.601562 6.800781 1.601562 6.578125 1.777344 6.398438 2 6.398438 2.222656 6.398438 2.398438 6.578125 2.398438 6.800781zM4.800781 4.398438C4.800781 4.621094 4.621094 4.800781 4.398438 4.800781 4.179688 4.800781 4 4.621094 4 4.398438 4 4.179688 4.179688 4 4.398438 4 4.621094 4 4.800781 4.179688 4.800781 4.398438zM6 5.601562C6 5.820312 5.820312 6 5.601562 6 5.378906 6 5.199219 5.820312 5.199219 5.601562 5.199219 5.378906 5.378906 5.199219 5.601562 5.199219 5.820312 5.199219 6 5.378906 6 5.601562zM8.398438 5.601562C8.398438 5.820312 8.222656 6 8 6 7.777344 6 7.601562 5.820312 7.601562 5.601562 7.601562 5.378906 7.777344 5.199219 8 5.199219 8.222656 5.199219 8.398438 5.378906 8.398438 5.601562zM7.199219 4.398438C7.199219 4.621094 7.019531 4.800781 6.800781 4.800781 6.578125 4.800781 6.398438 4.621094 6.398438 4.398438 6.398438 4.179688 6.578125 4 6.800781 4 7.019531 4 7.199219 4.179688 7.199219 4.398438zM4.800781 6.800781C4.800781 7.019531 4.621094 7.199219 4.398438 7.199219 4.179688 7.199219 4 7.019531 4 6.800781 4 6.578125 4.179688 6.398438 4.398438 6.398438 4.621094 6.398438 4.800781 6.578125 4.800781 6.800781zM6 8C6 8.222656 5.820312 8.398438 5.601562 8.398438 5.378906 8.398438 5.199219 8.222656 5.199219 8 5.199219 7.777344 5.378906 7.601562 5.601562 7.601562 5.820312 7.601562 6 7.777344 6 8zM8.398438 8C8.398438 8.222656 8.222656 8.398438 8 8.398438 7.777344 8.398438 7.601562 8.222656 7.601562 8 7.601562 7.777344 7.777344 7.601562 8 7.601562 8.222656 7.601562 8.398438 7.777344 8.398438 8zM13.199219 8C13.199219 8.222656 13.019531 8.398438 12.800781 8.398438 12.578125 8.398438 12.398438 8.222656 12.398438 8 12.398438 7.777344 12.578125 7.601562 12.800781 7.601562 13.019531 7.601562 13.199219 7.777344 13.199219 8zM7.199219 6.800781C7.199219 7.019531 7.019531 7.199219 6.800781 7.199219 6.578125 7.199219 6.398438 7.019531 6.398438 6.800781 6.398438 6.578125 6.578125 6.398438 6.800781 6.398438 7.019531 6.398438 7.199219 6.578125 7.199219 6.800781zM9.601562 4.398438C9.601562 4.621094 9.421875 4.800781 9.199219 4.800781 8.980469 4.800781 8.800781 4.621094 8.800781 4.398438 8.800781 4.179688 8.980469 4 9.199219 4 9.421875 4 9.601562 4.179688 9.601562 4.398438zM10.800781 5.601562C10.800781 5.820312 10.621094 6 10.398438 6 10.179688 6 10 5.820312 10 5.601562 10 5.378906 10.179688 5.199219 10.398438 5.199219 10.621094 5.199219 10.800781 5.378906 10.800781 5.601562zM13.199219 5.601562C13.199219 5.820312 13.019531 6 12.800781 6 12.578125 6 12.398438 5.820312 12.398438 5.601562 12.398438 5.378906 12.578125 5.199219 12.800781 5.199219 13.019531 5.199219 13.199219 5.378906 13.199219 5.601562zM12 4.398438C12 4.621094 11.820312 4.800781 11.601562 4.800781 11.378906 4.800781 11.199219 4.621094 11.199219 4.398438 11.199219 4.179688 11.378906 4 11.601562 4 11.820312 4 12 4.179688 12 4.398438zM9.601562 6.800781C9.601562 7.019531 9.421875 7.199219 9.199219 7.199219 8.980469 7.199219 8.800781 7.019531 8.800781 6.800781 8.800781 6.578125 8.980469 6.398438 9.199219 6.398438 9.421875 6.398438 9.601562 6.578125 9.601562 6.800781zM10.800781 8C10.800781 8.222656 10.621094 8.398438 10.398438 8.398438 10.179688 8.398438 10 8.222656 10 8 10 7.777344 10.179688 7.601562 10.398438 7.601562 10.621094 7.601562 10.800781 7.777344 10.800781 8zM12 6.800781C12 7.019531 11.820312 7.199219 11.601562 7.199219 11.378906 7.199219 11.199219 7.019531 11.199219 6.800781 11.199219 6.578125 11.378906 6.398438 11.601562 6.398438 11.820312 6.398438 12 6.578125 12 6.800781zM14.398438 4.398438C14.398438 4.621094 14.222656 4.800781 14 4.800781 13.777344 4.800781 13.601562 4.621094 13.601562 4.398438 13.601562 4.179688 13.777344 4 14 4 14.222656 4 14.398438 4.179688 14.398438 4.398438zM14.398438 6.800781C14.398438 7.019531 14.222656 7.199219 14 7.199219 13.777344 7.199219 13.601562 7.019531 13.601562 6.800781 13.601562 6.578125 13.777344 6.398438 14 6.398438 14.222656 6.398438 14.398438 6.578125 14.398438 6.800781zM15.601562 8C15.601562 8.222656 15.421875 8.398438 15.199219 8.398438 14.980469 8.398438 14.800781 8.222656 14.800781 8 14.800781 7.777344 14.980469 7.601562 15.199219 7.601562 15.421875 7.601562 15.601562 7.777344 15.601562 8zM15.601562 5.601562C15.601562 5.820312 15.421875 6 15.199219 6 14.980469 6 14.800781 5.820312 14.800781 5.601562 14.800781 5.378906 14.980469 5.199219 15.199219 5.199219 15.421875 5.199219 15.601562 5.378906 15.601562 5.601562zM16.800781 4.398438C16.800781 4.621094 16.621094 4.800781 16.398438 4.800781 16.179688 4.800781 16 4.621094 16 4.398438 16 4.179688 16.179688 4 16.398438 4 16.621094 4 16.800781 4.179688 16.800781 4.398438zM16.800781 6.800781C16.800781 7.019531 16.621094 7.199219 16.398438 7.199219 16.179688 7.199219 16 7.019531 16 6.800781 16 6.578125 16.179688 6.398438 16.398438 6.398438 16.621094 6.398438 16.800781 6.578125 16.800781 6.800781zM18 8C18 8.222656 17.820312 8.398438 17.601562 8.398438 17.378906 8.398438 17.199219 8.222656 17.199219 8 17.199219 7.777344 17.378906 7.601562 17.601562 7.601562 17.820312 7.601562 18 7.777344 18 8zM18 5.601562C18 5.820312 17.820312 6 17.601562 6 17.378906 6 17.199219 5.820312 17.199219 5.601562 17.199219 5.378906 17.378906 5.199219 17.601562 5.199219 17.820312 5.199219 18 5.378906 18 5.601562zM3.601562 12.800781C3.601562 13.019531 3.421875 13.199219 3.199219 13.199219 2.980469 13.199219 2.800781 13.019531 2.800781 12.800781 2.800781 12.578125 2.980469 12.398438 3.199219 12.398438 3.421875 12.398438 3.601562 12.578125 3.601562 12.800781zM3.601562 10.398438C3.601562 10.621094 3.421875 10.800781 3.199219 10.800781 2.980469 10.800781 2.800781 10.621094 2.800781 10.398438 2.800781 10.179688 2.980469 10 3.199219 10 3.421875 10 3.601562 10.179688 3.601562 10.398438zM2.398438 9.199219C2.398438 9.421875 2.222656 9.601562 2 9.601562 1.777344 9.601562 1.601562 9.421875 1.601562 9.199219 1.601562 8.980469 1.777344 8.800781 2 8.800781 2.222656 8.800781 2.398438 8.980469 2.398438 9.199219zM2.398438 11.601562C2.398438 11.820312 2.222656 12 2 12 1.777344 12 1.601562 11.820312 1.601562 11.601562 1.601562 11.378906 1.777344 11.199219 2 11.199219 2.222656 11.199219 2.398438 11.378906 2.398438 11.601562zM4.800781 9.199219C4.800781 9.421875 4.621094 9.601562 4.398438 9.601562 4.179688 9.601562 4 9.421875 4 9.199219 4 8.980469 4.179688 8.800781 4.398438 8.800781 4.621094 8.800781 4.800781 8.980469 4.800781 9.199219zM6 10.398438C6 10.621094 5.820312 10.800781 5.601562 10.800781 5.378906 10.800781 5.199219 10.621094 5.199219 10.398438 5.199219 10.179688 5.378906 10 5.601562 10 5.820312 10 6 10.179688 6 10.398438zM8.398438 10.398438C8.398438 10.621094 8.222656 10.800781 8 10.800781 7.777344 10.800781 7.601562 10.621094 7.601562 10.398438 7.601562 10.179688 7.777344 10 8 10 8.222656 10 8.398438 10.179688 8.398438 10.398438zM7.199219 9.199219C7.199219 9.421875 7.019531 9.601562 6.800781 9.601562 6.578125 9.601562 6.398438 9.421875 6.398438 9.199219 6.398438 8.980469 6.578125 8.800781 6.800781 8.800781 7.019531 8.800781 7.199219 8.980469 7.199219 9.199219zM4.800781 11.601562C4.800781 11.820312 4.621094 12 4.398438 12 4.179688 12 4 11.820312 4 11.601562 4 11.378906 4.179688 11.199219 4.398438 11.199219 4.621094 11.199219 4.800781 11.378906 4.800781 11.601562zM6 12.800781C6 13.019531 5.820312 13.199219 5.601562 13.199219 5.378906 13.199219 5.199219 13.019531 5.199219 12.800781 5.199219 12.578125 5.378906 12.398438 5.601562 12.398438 5.820312 12.398438 6 12.578125 6 12.800781zM8.398438 12.800781C8.398438 13.019531 8.222656 13.199219 8 13.199219 7.777344 13.199219 7.601562 13.019531 7.601562 12.800781 7.601562 12.578125 7.777344 12.398438 8 12.398438 8.222656 12.398438 8.398438 12.578125 8.398438 12.800781zM13.199219 12.800781C13.199219 13.019531 13.019531 13.199219 12.800781 13.199219 12.578125 13.199219 12.398438 13.019531 12.398438 12.800781 12.398438 12.578125 12.578125 12.398438 12.800781 12.398438 13.019531 12.398438 13.199219 12.578125 13.199219 12.800781zM7.199219 11.601562C7.199219 11.820312 7.019531 12 6.800781 12 6.578125 12 6.398438 11.820312 6.398438 11.601562 6.398438 11.378906 6.578125 11.199219 6.800781 11.199219 7.019531 11.199219 7.199219 11.378906 7.199219 11.601562zM9.601562 9.199219C9.601562 9.421875 9.421875 9.601562 9.199219 9.601562 8.980469 9.601562 8.800781 9.421875 8.800781 9.199219 8.800781 8.980469 8.980469 8.800781 9.199219 8.800781 9.421875 8.800781 9.601562 8.980469 9.601562 9.199219zM10.800781 10.398438C10.800781 10.621094 10.621094 10.800781 10.398438 10.800781 10.179688 10.800781 10 10.621094 10 10.398438 10 10.179688 10.179688 10 10.398438 10 10.621094 10 10.800781 10.179688 10.800781 10.398438zM13.199219 10.398438C13.199219 10.621094 13.019531 10.800781 12.800781 10.800781 12.578125 10.800781 12.398438 10.621094 12.398438 10.398438 12.398438 10.179688 12.578125 10 12.800781 10 13.019531 10 13.199219 10.179688 13.199219 10.398438zM12 9.199219C12 9.421875 11.820312 9.601562 11.601562 9.601562 11.378906 9.601562 11.199219 9.421875 11.199219 9.199219 11.199219 8.980469 11.378906 8.800781 11.601562 8.800781 11.820312 8.800781 12 8.980469 12 9.199219zM9.601562 11.601562C9.601562 11.820312 9.421875 12 9.199219 12 8.980469 12 8.800781 11.820312 8.800781 11.601562 8.800781 11.378906 8.980469 11.199219 9.199219 11.199219 9.421875 11.199219 9.601562 11.378906 9.601562 11.601562zM10.800781 12.800781C10.800781 13.019531 10.621094 13.199219 10.398438 13.199219 10.179688 13.199219 10 13.019531 10 12.800781 10 12.578125 10.179688 12.398438 10.398438 12.398438 10.621094 12.398438 10.800781 12.578125 10.800781 12.800781zM12 11.601562C12 11.820312 11.820312 12 11.601562 12 11.378906 12 11.199219 11.820312 11.199219 11.601562 11.199219 11.378906 11.378906 11.199219 11.601562 11.199219 11.820312 11.199219 12 11.378906 12 11.601562zM14.398438 9.199219C14.398438 9.421875 14.222656 9.601562 14 9.601562 13.777344 9.601562 13.601562 9.421875 13.601562 9.199219 13.601562 8.980469 13.777344 8.800781 14 8.800781 14.222656 8.800781 14.398438 8.980469 14.398438 9.199219zM14.398438 11.601562C14.398438 11.820312 14.222656 12 14 12 13.777344 12 13.601562 11.820312 13.601562 11.601562 13.601562 11.378906 13.777344 11.199219 14 11.199219 14.222656 11.199219 14.398438 11.378906 14.398438 11.601562zM15.601562 12.800781C15.601562 13.019531 15.421875 13.199219 15.199219 13.199219 14.980469 13.199219 14.800781 13.019531 14.800781 12.800781 14.800781 12.578125 14.980469 12.398438 15.199219 12.398438 15.421875 12.398438 15.601562 12.578125 15.601562 12.800781zM15.601562 10.398438C15.601562 10.621094 15.421875 10.800781 15.199219 10.800781 14.980469 10.800781 14.800781 10.621094 14.800781 10.398438 14.800781 10.179688 14.980469 10 15.199219 10 15.421875 10 15.601562 10.179688 15.601562 10.398438zM16.800781 9.199219C16.800781 9.421875 16.621094 9.601562 16.398438 9.601562 16.179688 9.601562 16 9.421875 16 9.199219 16 8.980469 16.179688 8.800781 16.398438 8.800781 16.621094 8.800781 16.800781 8.980469 16.800781 9.199219zM16.800781 11.601562C16.800781 11.820312 16.621094 12 16.398438 12 16.179688 12 16 11.820312 16 11.601562 16 11.378906 16.179688 11.199219 16.398438 11.199219 16.621094 11.199219 16.800781 11.378906 16.800781 11.601562zM18 12.800781C18 13.019531 17.820312 13.199219 17.601562 13.199219 17.378906 13.199219 17.199219 13.019531 17.199219 12.800781 17.199219 12.578125 17.378906 12.398438 17.601562 12.398438 17.820312 12.398438 18 12.578125 18 12.800781zM18 10.398438C18 10.621094 17.820312 10.800781 17.601562 10.800781 17.378906 10.800781 17.199219 10.621094 17.199219 10.398438 17.199219 10.179688 17.378906 10 17.601562 10 17.820312 10 18 10.179688 18 10.398438zM3.601562 17.601562C3.601562 17.820312 3.421875 18 3.199219 18 2.980469 18 2.800781 17.820312 2.800781 17.601562 2.800781 17.378906 2.980469 17.199219 3.199219 17.199219 3.421875 17.199219 3.601562 17.378906 3.601562 17.601562zM3.601562 15.199219C3.601562 15.421875 3.421875 15.601562 3.199219 15.601562 2.980469 15.601562 2.800781 15.421875 2.800781 15.199219 2.800781 14.980469 2.980469 14.800781 3.199219 14.800781 3.421875 14.800781 3.601562 14.980469 3.601562 15.199219zM2.398438 14C2.398438 14.222656 2.222656 14.398438 2 14.398438 1.777344 14.398438 1.601562 14.222656 1.601562 14 1.601562 13.777344 1.777344 13.601562 2 13.601562 2.222656 13.601562 2.398438 13.777344 2.398438 14zM2.398438 16.398438C2.398438 16.621094 2.222656 16.800781 2 16.800781 1.777344 16.800781 1.601562 16.621094 1.601562 16.398438 1.601562 16.179688 1.777344 16 2 16 2.222656 16 2.398438 16.179688 2.398438 16.398438zM4.800781 14C4.800781 14.222656 4.621094 14.398438 4.398438 14.398438 4.179688 14.398438 4 14.222656 4 14 4 13.777344 4.179688 13.601562 4.398438 13.601562 4.621094 13.601562 4.800781 13.777344 4.800781 14zM6 15.199219C6 15.421875 5.820312 15.601562 5.601562 15.601562 5.378906 15.601562 5.199219 15.421875 5.199219 15.199219 5.199219 14.980469 5.378906 14.800781 5.601562 14.800781 5.820312 14.800781 6 14.980469 6 15.199219zM8.398438 15.199219C8.398438 15.421875 8.222656 15.601562 8 15.601562 7.777344 15.601562 7.601562 15.421875 7.601562 15.199219 7.601562 14.980469 7.777344 14.800781 8 14.800781 8.222656 14.800781 8.398438 14.980469 8.398438 15.199219zM7.199219 14C7.199219 14.222656 7.019531 14.398438 6.800781 14.398438 6.578125 14.398438 6.398438 14.222656 6.398438 14 6.398438 13.777344 6.578125 13.601562 6.800781 13.601562 7.019531 13.601562 7.199219 13.777344 7.199219 14zM4.800781 16.398438C4.800781 16.621094 4.621094 16.800781 4.398438 16.800781 4.179688 16.800781 4 16.621094 4 16.398438 4 16.179688 4.179688 16 4.398438 16 4.621094 16 4.800781 16.179688 4.800781 16.398438zM6 17.601562C6 17.820312 5.820312 18 5.601562 18 5.378906 18 5.199219 17.820312 5.199219 17.601562 5.199219 17.378906 5.378906 17.199219 5.601562 17.199219 5.820312 17.199219 6 17.378906 6 17.601562zM8.398438 17.601562C8.398438 17.820312 8.222656 18 8 18 7.777344 18 7.601562 17.820312 7.601562 17.601562 7.601562 17.378906 7.777344 17.199219 8 17.199219 8.222656 17.199219 8.398438 17.378906 8.398438 17.601562zM13.199219 17.601562C13.199219 17.820312 13.019531 18 12.800781 18 12.578125 18 12.398438 17.820312 12.398438 17.601562 12.398438 17.378906 12.578125 17.199219 12.800781 17.199219 13.019531 17.199219 13.199219 17.378906 13.199219 17.601562zM7.199219 16.398438C7.199219 16.621094 7.019531 16.800781 6.800781 16.800781 6.578125 16.800781 6.398438 16.621094 6.398438 16.398438 6.398438 16.179688 6.578125 16 6.800781 16 7.019531 16 7.199219 16.179688 7.199219 16.398438zM9.601562 14C9.601562 14.222656 9.421875 14.398438 9.199219 14.398438 8.980469 14.398438 8.800781 14.222656 8.800781 14 8.800781 13.777344 8.980469 13.601562 9.199219 13.601562 9.421875 13.601562 9.601562 13.777344 9.601562 14zM10.800781 15.199219C10.800781 15.421875 10.621094 15.601562 10.398438 15.601562 10.179688 15.601562 10 15.421875 10 15.199219 10 14.980469 10.179688 14.800781 10.398438 14.800781 10.621094 14.800781 10.800781 14.980469 10.800781 15.199219zM13.199219 15.199219C13.199219 15.421875 13.019531 15.601562 12.800781 15.601562 12.578125 15.601562 12.398438 15.421875 12.398438 15.199219 12.398438 14.980469 12.578125 14.800781 12.800781 14.800781 13.019531 14.800781 13.199219 14.980469 13.199219 15.199219zM12 14C12 14.222656 11.820312 14.398438 11.601562 14.398438 11.378906 14.398438 11.199219 14.222656 11.199219 14 11.199219 13.777344 11.378906 13.601562 11.601562 13.601562 11.820312 13.601562 12 13.777344 12 14zM9.601562 16.398438C9.601562 16.621094 9.421875 16.800781 9.199219 16.800781 8.980469 16.800781 8.800781 16.621094 8.800781 16.398438 8.800781 16.179688 8.980469 16 9.199219 16 9.421875 16 9.601562 16.179688 9.601562 16.398438zM10.800781 17.601562C10.800781 17.820312 10.621094 18 10.398438 18 10.179688 18 10 17.820312 10 17.601562 10 17.378906 10.179688 17.199219 10.398438 17.199219 10.621094 17.199219 10.800781 17.378906 10.800781 17.601562zM12 16.398438C12 16.621094 11.820312 16.800781 11.601562 16.800781 11.378906 16.800781 11.199219 16.621094 11.199219 16.398438 11.199219 16.179688 11.378906 16 11.601562 16 11.820312 16 12 16.179688 12 16.398438zM14.398438 14C14.398438 14.222656 14.222656 14.398438 14 14.398438 13.777344 14.398438 13.601562 14.222656 13.601562 14 13.601562 13.777344 13.777344 13.601562 14 13.601562 14.222656 13.601562 14.398438 13.777344 14.398438 14zM14.398438 16.398438C14.398438 16.621094 14.222656 16.800781 14 16.800781 13.777344 16.800781 13.601562 16.621094 13.601562 16.398438 13.601562 16.179688 13.777344 16 14 16 14.222656 16 14.398438 16.179688 14.398438 16.398438zM15.601562 17.601562C15.601562 17.820312 15.421875 18 15.199219 18 14.980469 18 14.800781 17.820312 14.800781 17.601562 14.800781 17.378906 14.980469 17.199219 15.199219 17.199219 15.421875 17.199219 15.601562 17.378906 15.601562 17.601562zM15.601562 15.199219C15.601562 15.421875 15.421875 15.601562 15.199219 15.601562 14.980469 15.601562 14.800781 15.421875 14.800781 15.199219 14.800781 14.980469 14.980469 14.800781 15.199219 14.800781 15.421875 14.800781 15.601562 14.980469 15.601562 15.199219zM16.800781 14C16.800781 14.222656 16.621094 14.398438 16.398438 14.398438 16.179688 14.398438 16 14.222656 16 14 16 13.777344 16.179688 13.601562 16.398438 13.601562 16.621094 13.601562 16.800781 13.777344 16.800781 14zM16.800781 16.398438C16.800781 16.621094 16.621094 16.800781 16.398438 16.800781 16.179688 16.800781 16 16.621094 16 16.398438 16 16.179688 16.179688 16 16.398438 16 16.621094 16 16.800781 16.179688 16.800781 16.398438zM18 17.601562C18 17.820312 17.820312 18 17.601562 18 17.378906 18 17.199219 17.820312 17.199219 17.601562 17.199219 17.378906 17.378906 17.199219 17.601562 17.199219 17.820312 17.199219 18 17.378906 18 17.601562zM18 15.199219C18 15.421875 17.820312 15.601562 17.601562 15.601562 17.378906 15.601562 17.199219 15.421875 17.199219 15.199219 17.199219 14.980469 17.378906 14.800781 17.601562 14.800781 17.820312 14.800781 18 14.980469 18 15.199219zM18 15.199219"/>
</svg>
