<svg xmlns="http://www.w3.org/2000/svg" width="32" height="32" viewBox="0 0 24 24">
    <path d="M6.398 7.602a.398.398 0 1 1-.796 0 .398.398 0 1 1 .796 0zm0 0M7.602 8.8a.401.401 0 1 1-.802-.004.401.401 0 0 1 .802.005zm0 0M10 8.8a.4.4 0 1 1-.8-.003.4.4 0 0 1 .8.004zm0 0M8.8 7.602A.401.401 0 1 1 8 7.597a.401.401 0 0 1 .802.005zm0 0M12.398 8.8a.398.398 0 1 1-.796 0 .398.398 0 1 1 .796 0zm0 0M7.602 6.398a.401.401 0 1 1 0 0zm0 0M10 6.398a.401.401 0 1 1-.802.003.401.401 0 0 1 .802-.003zm0 0M12.398 6.398a.398.398 0 1 1-.796 0 .398.398 0 1 1 .796 0zm0 0M11.2 7.602a.4.4 0 1 1-.801-.004.4.4 0 0 1 .8.004zm0 0M6.398 10a.395.395 0 0 1-.398.398.395.395 0 0 1-.398-.398c0-.223.175-.398.398-.398.223 0 .398.175.398.398zm0 0M7.602 11.2a.401.401 0 1 1 0 0zm0 0M10 11.2a.401.401 0 1 1-.802.002.401.401 0 0 1 .802-.003zm0 0M8.8 10c0 .223-.179.398-.402.398a.398.398 0 1 1 0-.796c.223 0 .403.175.403.398zm0 0M12.398 11.2a.398.398 0 1 1-.796 0 .398.398 0 1 1 .796 0zm0 0M11.2 10c0 .223-.18.398-.4.398a.398.398 0 1 1 0-.796c.22 0 .4.175.4.398zm0 0M6.398 12.398a.398.398 0 1 1-.796 0 .398.398 0 1 1 .796 0zm0 0M13.602 7.602a.401.401 0 1 1-.802-.005.401.401 0 0 1 .802.005zm0 0M13.602 10c0 .223-.18.398-.403.398a.398.398 0 1 1 0-.796c.223 0 .403.175.403.398zm0 0M13.602 12.398a.401.401 0 1 1 0 0zm0 0M7.602 13.602a.401.401 0 1 1-.802-.005.401.401 0 0 1 .802.005zm0 0M10 13.602a.4.4 0 1 1-.8-.004.4.4 0 0 1 .8.004zm0 0M8.8 12.398a.401.401 0 1 1 0 0zm0 0M12.398 13.602a.398.398 0 1 1-.796 0 .398.398 0 1 1 .796 0zm0 0M11.2 12.398a.401.401 0 1 1-.803.003.401.401 0 0 1 .802-.003zm0 0"/>
    <path d="M24 3.2V0h-3.2v1.2H3.2V0H0v3.2h1.2v17.6H0V24h3.2v-1.2h17.6V24H24v-3.2h-1.2V3.2zM21.602.8h1.597v1.598h-1.597zM.8 2.399V.801h1.597v1.597zM2.398 23.2H.801v-1.597h1.597zM23.2 21.602v1.597h-1.597v-1.597zM22 20.8h-1.2V22H3.2v-1.2H2V3.2h1.2V2h17.6v1.2H22zm0 0"/>
    <path d="M14.398 5.2H4.801v9.6h4.398v4.4h9.602V9.601h-4.403zM7.2 14H5.602V6h8v8zM18 10.398v8h-8v-3.597h4.398v-4.403zm0 0"/>
</svg>
