<svg xmlns="http://www.w3.org/2000/svg" width="32" height="32" viewBox="0 0 24 24">
    <path d="M23.879 2.379L21.617.117a.4.4 0 0 0-.566 0l-1.2 1.2a.416.416 0 0 0-.566 0l-1.129 1.132-.566-.566a.4.4 0 0 0-.567 0L13.066 5.84a.4.4 0 0 0 .567.566l3.676-3.676.28.282L5.708 14.895a.4.4 0 0 0 0 .566l-.812.812a2.007 2.007 0 0 0-2.512.258.4.4 0 0 0 0 .567.783.783 0 0 1 .234.562.785.785 0 0 1-.234.567.816.816 0 0 1-1.133 0 .401.401 0 0 0-.68.238l-.562 5.09A.4.4 0 0 0 .403 24c.015 0 .03 0 .046-.004l5.09-.562a.404.404 0 0 0 .332-.266.412.412 0 0 0-.094-.418.783.783 0 0 1-.234-.563c0-.214.082-.414.234-.566.301-.3.828-.3 1.13 0a.416.416 0 0 0 .566 0 2.003 2.003 0 0 0 .25-2.52l.812-.812a.4.4 0 0 0 .563 0L22.68 4.711a.4.4 0 0 0 0-.566l1.199-1.2a.4.4 0 0 0 0-.566zM7.109 20.785a1.626 1.626 0 0 0-1.898.27 1.6 1.6 0 0 0-.383 1.652l-3.332.371 1.133-1.133a.393.393 0 0 0 .176.047h.797c.105 0 .21-.043.285-.117l.398-.398a.402.402 0 0 0 .117-.286v-.796c0-.11-.043-.211-.117-.286l-.398-.398a.409.409 0 0 0-.285-.117h-.797c-.11 0-.211.043-.285.117l-.399.398a.402.402 0 0 0-.117.286v.796c0 .07.023.133.055.192L.926 22.512l.37-3.336a1.631 1.631 0 0 0 1.653-.383 1.597 1.597 0 0 0 .27-1.898 1.2 1.2 0 0 1 1.426.203c.003 0 .003.004.007.007l2.254 2.254c.387.383.453.97.203 1.426zm-4.304.242v-.468l.164-.164h.469l.164.164v.468l-.164.164h-.47zm4.379-2.52L5.488 16.81l.77-.766 1.695 1.695zm1.632-1.066L6.555 15.18l5.222-5.223.563.566a.405.405 0 0 0 .285.118.4.4 0 0 0 .281-.684l-.566-.562.726-.727.848.848a.399.399 0 0 0 .566 0 .4.4 0 0 0 0-.567l-.847-.847.722-.723 2.262 2.262zm8.364-8.367l-2.262-2.261 4.652-4.649 2.262 2.262zm4.945-5.504l-1.7-1.699.91-.906 1.696 1.695zm0 0"/>
</svg>
