<svg xmlns="http://www.w3.org/2000/svg" width="32" height="32" viewBox="0 0 24 24">
    <path d="M7.316406 23.316406C7.242188 23.390625 7.199219 23.496094 7.199219 23.601562 7.199219 23.703125 7.242188 23.808594 7.316406 23.882812 7.390625 23.957031 7.496094 24 7.601562 24 7.707031 24 7.808594 23.957031 7.882812 23.882812 7.960938 23.808594 8 23.703125 8 23.601562 8 23.496094 7.957031 23.390625 7.882812 23.316406 7.734375 23.167969 7.464844 23.167969 7.316406 23.316406zM8 9.679688C8 9.902344 7.820312 10.078125 7.601562 10.078125 7.378906 10.078125 7.199219 9.902344 7.199219 9.679688 7.199219 9.460938 7.378906 9.28125 7.601562 9.28125 7.820312 9.28125 8 9.460938 8 9.679688zM7.601562 10.828125C7.378906 10.828125 7.199219 11.003906 7.199219 11.226562 7.199219 11.449219 7.378906 11.628906 7.601562 11.628906 7.820312 11.628906 8 11.449219 8 11.226562 8 11.003906 7.820312 10.828125 7.601562 10.828125zM7.601562 7.730469C7.378906 7.730469 7.199219 7.910156 7.199219 8.132812 7.199219 8.355469 7.378906 8.53125 7.601562 8.53125 7.820312 8.53125 8 8.355469 8 8.132812 8 7.910156 7.820312 7.730469 7.601562 7.730469zM7.601562 3.09375C7.378906 3.09375 7.199219 3.273438 7.199219 3.492188 7.199219 3.714844 7.378906 3.890625 7.601562 3.890625 7.820312 3.890625 8 3.714844 8 3.492188 8 3.273438 7.820312 3.09375 7.601562 3.09375zM7.601562 6.1875C7.378906 6.1875 7.199219 6.363281 7.199219 6.589844 7.199219 6.808594 7.378906 6.988281 7.601562 6.988281 7.820312 6.988281 8 6.808594 8 6.589844 8 6.363281 7.820312 6.1875 7.601562 6.1875zM7.601562 1.546875C7.378906 1.546875 7.199219 1.722656 7.199219 1.949219 7.199219 2.167969 7.378906 2.347656 7.601562 2.347656 7.820312 2.347656 8 2.167969 8 1.949219 8 1.722656 7.820312 1.546875 7.601562 1.546875zM7.601562 12.371094C7.378906 12.371094 7.199219 12.550781 7.199219 12.773438 7.199219 12.996094 7.378906 13.171875 7.601562 13.171875 7.820312 13.171875 8 12.996094 8 12.773438 8 12.550781 7.820312 12.371094 7.601562 12.371094zM8 5.039062C8 5.261719 7.820312 5.441406 7.601562 5.441406 7.378906 5.441406 7.199219 5.261719 7.199219 5.039062 7.199219 4.820312 7.378906 4.640625 7.601562 4.640625 7.820312 4.640625 8 4.820312 8 5.039062zM7.601562 20.109375C7.378906 20.109375 7.199219 20.285156 7.199219 20.507812 7.199219 20.726562 7.378906 20.90625 7.601562 20.90625 7.820312 20.90625 8 20.726562 8 20.507812 8 20.285156 7.820312 20.109375 7.601562 20.109375zM8 18.960938C8 19.179688 7.820312 19.359375 7.601562 19.359375 7.378906 19.359375 7.199219 19.179688 7.199219 18.960938 7.199219 18.738281 7.378906 18.558594 7.601562 18.558594 7.820312 18.558594 8 18.738281 8 18.960938zM7.601562 21.652344C7.378906 21.652344 7.199219 21.832031 7.199219 22.050781 7.199219 22.277344 7.378906 22.453125 7.601562 22.453125 7.820312 22.453125 8 22.277344 8 22.050781 8 21.832031 7.820312 21.652344 7.601562 21.652344zM7.601562 17.011719C7.378906 17.011719 7.199219 17.191406 7.199219 17.410156 7.199219 17.636719 7.378906 17.8125 7.601562 17.8125 7.820312 17.8125 8 17.636719 8 17.410156 8 17.191406 7.820312 17.011719 7.601562 17.011719zM8 14.320312C8 14.539062 7.820312 14.71875 7.601562 14.71875 7.378906 14.71875 7.199219 14.539062 7.199219 14.320312 7.199219 14.097656 7.378906 13.921875 7.601562 13.921875 7.820312 13.921875 8 14.097656 8 14.320312zM7.601562 15.46875C7.378906 15.46875 7.199219 15.644531 7.199219 15.867188 7.199219 16.089844 7.378906 16.269531 7.601562 16.269531 7.820312 16.269531 8 16.089844 8 15.867188 8 15.644531 7.820312 15.46875 7.601562 15.46875zM7.882812.117188C7.871094.101562 7.847656.09375 7.832031.0820312 7.765625.0351562 7.6875 0 7.601562 0 4.511719 0 2 2.511719 2 5.601562L1.039062 4.878906C.863281 4.746094.613281 4.78125.480469 4.960938.347656 5.136719.382812 5.386719.558594 5.519531L2.160156 6.71875C2.175781 6.730469 2.191406 6.734375 2.203125 6.742188 2.21875 6.75 2.230469 6.757812 2.246094 6.765625 2.292969 6.785156 2.347656 6.800781 2.398438 6.800781 2.453125 6.800781 2.507812 6.785156 2.558594 6.761719 2.5625 6.761719 2.570312 6.761719 2.578125 6.757812 2.59375 6.75 2.601562 6.742188 2.613281 6.734375 2.625 6.726562 2.632812 6.726562 2.640625 6.71875L4.238281 5.519531C4.417969 5.386719 4.453125 5.136719 4.320312 4.960938 4.1875 4.78125 3.9375 4.746094 3.761719 4.878906L2.800781 5.601562C2.800781 2.953125 4.953125.800781 7.601562.800781 7.652344.800781 7.707031.789062 7.753906.769531 7.769531.761719 7.78125.75 7.796875.742188 7.828125.722656 7.859375.707031 7.882812.683594 7.914062.652344 7.9375.613281 7.957031.574219 7.960938.566406 7.964844.5625 7.96875.554688 7.988281.503906 8 .453125 8 .398438 8 .316406 7.96875.246094 7.925781.183594 7.914062.160156 7.902344.136719 7.882812.117188zM12.425781.398438C12.425781.621094 12.246094.800781 12.023438.800781 11.804688.800781 11.625.621094 11.625.398438 11.625.179688 11.804688 0 12.023438 0 12.246094 0 12.425781.179688 12.425781.398438zM10.546875 0C10.328125 0 10.148438.179688 10.148438.398438 10.148438.621094 10.328125.800781 10.546875.800781 10.773438.800781 10.949219.621094 10.949219.398438 10.949219.179688 10.773438 0 10.546875 0zM14.976562 0C14.75 0 14.574219.179688 14.574219.398438 14.574219.621094 14.75.800781 14.976562.800781 15.195312.800781 15.375.621094 15.375.398438 15.375.179688 15.195312 0 14.976562 0zM13.898438.398438C13.898438.621094 13.722656.800781 13.5.800781 13.277344.800781 13.101562.621094 13.101562.398438 13.101562.179688 13.277344 0 13.5 0 13.722656 0 13.898438.179688 13.898438.398438zM9.476562.398438C9.476562.621094 9.296875.800781 9.074219.800781 8.855469.800781 8.675781.621094 8.675781.398438 8.675781.179688 8.855469 0 9.074219 0 9.296875 0 9.476562.179688 9.476562.398438zM16.453125.800781C16.554688.800781 16.660156.757812 16.730469.683594 16.808594.609375 16.847656.503906 16.847656.398438 16.847656.296875 16.808594.191406 16.730469.117188 16.585938-.03125 16.316406-.03125 16.167969.117188 16.09375.191406 16.046875.296875 16.046875.398438 16.046875.503906 16.089844.609375 16.167969.683594 16.238281.757812 16.34375.800781 16.453125.800781zM16.449219 13.171875C16.671875 13.171875 16.851562 12.996094 16.851562 12.773438 16.851562 12.550781 16.671875 12.371094 16.449219 12.371094 16.226562 12.371094 16.046875 12.550781 16.046875 12.773438 16.046875 12.996094 16.226562 13.171875 16.449219 13.171875zM16.449219 16.269531C16.671875 16.269531 16.851562 16.089844 16.851562 15.867188 16.851562 15.644531 16.671875 15.46875 16.449219 15.46875 16.226562 15.46875 16.046875 15.644531 16.046875 15.867188 16.046875 16.089844 16.226562 16.269531 16.449219 16.269531zM16.449219 10.078125C16.671875 10.078125 16.851562 9.898438 16.851562 9.679688 16.851562 9.460938 16.671875 9.28125 16.449219 9.28125 16.226562 9.28125 16.046875 9.460938 16.046875 9.679688 16.046875 9.898438 16.226562 10.078125 16.449219 10.078125zM16.449219 11.628906C16.671875 11.628906 16.851562 11.449219 16.851562 11.226562 16.851562 11.003906 16.671875 10.828125 16.449219 10.828125 16.226562 10.828125 16.046875 11.003906 16.046875 11.226562 16.046875 11.449219 16.226562 11.628906 16.449219 11.628906zM16.449219 2.347656C16.671875 2.347656 16.851562 2.167969 16.851562 1.949219 16.851562 1.722656 16.671875 1.546875 16.449219 1.546875 16.226562 1.546875 16.046875 1.722656 16.046875 1.949219 16.046875 2.167969 16.226562 2.347656 16.449219 2.347656zM16.449219 5.441406C16.671875 5.441406 16.851562 5.261719 16.851562 5.039062 16.851562 4.820312 16.671875 4.640625 16.449219 4.640625 16.226562 4.640625 16.046875 4.820312 16.046875 5.039062 16.046875 5.261719 16.226562 5.441406 16.449219 5.441406zM16.449219 6.988281C16.671875 6.988281 16.851562 6.808594 16.851562 6.589844 16.851562 6.363281 16.671875 6.1875 16.449219 6.1875 16.226562 6.1875 16.046875 6.363281 16.046875 6.589844 16.046875 6.808594 16.226562 6.988281 16.449219 6.988281zM16.449219 8.53125C16.671875 8.53125 16.851562 8.355469 16.851562 8.132812 16.851562 7.910156 16.671875 7.730469 16.449219 7.730469 16.226562 7.730469 16.046875 7.910156 16.046875 8.132812 16.046875 8.355469 16.226562 8.53125 16.449219 8.53125zM16.449219 17.8125C16.671875 17.8125 16.851562 17.636719 16.851562 17.410156 16.851562 17.191406 16.671875 17.011719 16.449219 17.011719 16.226562 17.011719 16.046875 17.191406 16.046875 17.410156 16.046875 17.636719 16.226562 17.8125 16.449219 17.8125zM16.449219 3.890625C16.671875 3.890625 16.851562 3.710938 16.851562 3.492188 16.851562 3.273438 16.671875 3.09375 16.449219 3.09375 16.226562 3.09375 16.046875 3.273438 16.046875 3.492188 16.046875 3.710938 16.226562 3.890625 16.449219 3.890625zM16.449219 14.71875C16.671875 14.71875 16.851562 14.539062 16.851562 14.320312 16.851562 14.101562 16.671875 13.921875 16.449219 13.921875 16.226562 13.921875 16.046875 14.101562 16.046875 14.320312 16.046875 14.539062 16.226562 14.71875 16.449219 14.71875zM16.449219 20.90625C16.671875 20.90625 16.851562 20.726562 16.851562 20.507812 16.851562 20.285156 16.671875 20.109375 16.449219 20.109375 16.226562 20.109375 16.046875 20.285156 16.046875 20.507812 16.046875 20.726562 16.226562 20.90625 16.449219 20.90625zM16.449219 22.453125C16.671875 22.453125 16.851562 22.277344 16.851562 22.050781 16.851562 21.832031 16.671875 21.652344 16.449219 21.652344 16.226562 21.652344 16.046875 21.832031 16.046875 22.050781 16.046875 22.277344 16.226562 22.453125 16.449219 22.453125zM16.449219 19.359375C16.671875 19.359375 16.851562 19.179688 16.851562 18.960938 16.851562 18.738281 16.671875 18.558594 16.449219 18.558594 16.226562 18.558594 16.046875 18.738281 16.046875 18.960938 16.046875 19.179688 16.226562 19.359375 16.449219 19.359375zM12.425781 23.601562C12.425781 23.820312 12.246094 24 12.023438 24 11.804688 24 11.625 23.820312 11.625 23.601562 11.625 23.378906 11.804688 23.199219 12.023438 23.199219 12.246094 23.199219 12.425781 23.378906 12.425781 23.601562zM15.375 23.601562C15.375 23.820312 15.195312 24 14.976562 24 14.753906 24 14.574219 23.820312 14.574219 23.601562 14.574219 23.378906 14.753906 23.199219 14.976562 23.199219 15.195312 23.199219 15.375 23.378906 15.375 23.601562zM13.898438 23.601562C13.898438 23.820312 13.722656 24 13.5 24 13.277344 24 13.101562 23.820312 13.101562 23.601562 13.101562 23.378906 13.277344 23.199219 13.5 23.199219 13.722656 23.199219 13.898438 23.378906 13.898438 23.601562zM9.074219 23.199219C8.851562 23.199219 8.675781 23.378906 8.675781 23.601562 8.675781 23.820312 8.851562 24 9.074219 24 9.296875 24 9.476562 23.820312 9.476562 23.601562 9.476562 23.378906 9.296875 23.199219 9.074219 23.199219zM10.550781 23.199219C10.328125 23.199219 10.152344 23.378906 10.152344 23.601562 10.152344 23.820312 10.328125 24 10.550781 24 10.773438 24 10.949219 23.820312 10.949219 23.601562 10.949219 23.378906 10.773438 23.199219 10.550781 23.199219zM6.800781 16L.800781 16 .800781 8 6.800781 8C7.019531 8 7.199219 7.820312 7.199219 7.601562 7.199219 7.378906 7.019531 7.199219 6.800781 7.199219L0 7.199219 0 16.800781 6.800781 16.800781C7.019531 16.800781 7.199219 16.621094 7.199219 16.398438 7.199219 16.179688 7.019531 16 6.800781 16zM6.800781 16"/>
    <path d="M17.199219 7.199219C16.980469 7.199219 16.800781 7.378906 16.800781 7.601562 16.800781 7.820312 16.980469 8 17.199219 8L23.199219 8 23.199219 16 17.199219 16C16.980469 16 16.800781 16.179688 16.800781 16.398438 16.800781 16.621094 16.980469 16.800781 17.199219 16.800781L24 16.800781 24 7.199219zM22.238281 17.28125C22.230469 17.273438 22.222656 17.269531 22.214844 17.265625 22.203125 17.257812 22.191406 17.253906 22.179688 17.246094 22.148438 17.230469 22.113281 17.21875 22.078125 17.210938 22.066406 17.210938 22.058594 17.207031 22.046875 17.203125 22.003906 17.199219 21.957031 17.203125 21.914062 17.210938 21.902344 17.214844 21.894531 17.21875 21.882812 17.222656 21.863281 17.226562 21.839844 17.234375 21.820312 17.242188 21.804688 17.25 21.792969 17.261719 21.78125 17.269531 21.773438 17.273438 21.765625 17.277344 21.761719 17.28125L20.160156 18.480469C19.984375 18.613281 19.949219 18.863281 20.082031 19.039062 20.160156 19.144531 20.277344 19.199219 20.402344 19.199219 20.484375 19.199219 20.570312 19.175781 20.640625 19.121094L21.601562 18.398438C21.601562 21.046875 19.445312 23.199219 16.800781 23.199219 16.734375 23.199219 16.675781 23.21875 16.621094 23.246094 16.472656 23.179688 16.285156 23.199219 16.167969 23.316406 16.09375 23.390625 16.046875 23.496094 16.046875 23.601562 16.046875 23.703125 16.089844 23.808594 16.167969 23.882812 16.238281 23.957031 16.34375 24 16.453125 24 16.511719 24 16.570312 23.980469 16.625 23.957031 16.679688 23.980469 16.734375 24 16.800781 24 19.886719 24 22.398438 21.488281 22.398438 18.398438L23.359375 19.121094C23.535156 19.253906 23.789062 19.21875 23.917969 19.039062 24.050781 18.863281 24.015625 18.613281 23.839844 18.480469zM22.238281 17.28125"/>
</svg>
