<svg xmlns="http://www.w3.org/2000/svg" width="32" height="32" viewBox="0 0 24 24">
    <path d="M23.703 18.738l-6.035-7.078a.396.396 0 0 0-.41-.125.395.395 0 0 0-.29.313l-1.69 9.148a.404.404 0 0 0 .21.43.412.412 0 0 0 .473-.078l2.75-2.848 1.394 5.203a.4.4 0 1 0 .774-.207l-1.395-5.2 3.805 1.087a.406.406 0 0 0 .45-.168.4.4 0 0 0-.036-.477zm-4.68-1.406c-.011-.004-.023-.004-.035-.004-.011-.004-.023-.004-.035-.008a.398.398 0 0 0-.137.008h-.003l-.004.004a.385.385 0 0 0-.122.059c-.011.007-.023.015-.03.023l-.028.023-2.324 2.403 1.297-7.02 4.632 5.43zm0 0M14.2 20H14a.398.398 0 0 0-.398.398c0 .223.175.403.398.403h.2a.401.401 0 0 0 0-.8zm0 0M10.508 20h-.39a.4.4 0 0 0 0 .8h.39a.401.401 0 0 0 0-.8zm0 0M8.566 20h-.39a.4.4 0 0 0 0 .8h.39a.401.401 0 0 0 0-.8zm0 0M6.625 20h-.39a.4.4 0 0 0 0 .8h.39a.401.401 0 0 0 0-.8zm0 0M4.684 20h-.391a.4.4 0 0 0 0 .8h.39a.401.401 0 0 0 0-.8zm0 0M2.742 20h-.39a.4.4 0 0 0 0 .8h.39a.401.401 0 0 0 0-.8zm0 0M12.445 20h-.386a.398.398 0 0 0-.399.398c0 .223.176.403.399.403h.386a.401.401 0 0 0 0-.8zm0 0M.965 20.035a.401.401 0 0 0-.766.164v.2c0 .222.18.402.403.402H.8a.401.401 0 0 0 .164-.766zm0 0M.602 11A.4.4 0 0 0 1 10.602v-.403a.4.4 0 0 0-.8 0v.403c0 .218.179.398.402.398zm0 0M.602 9A.4.4 0 0 0 1 8.602v-.403a.4.4 0 0 0-.8 0v.403C.2 8.82.378 9 .601 9zm0 0M.602 17A.4.4 0 0 0 1 16.602v-.403a.4.4 0 0 0-.8 0v.403c0 .218.179.398.402.398zm0 0M.602 15A.4.4 0 0 0 1 14.602v-.403a.4.4 0 0 0-.8 0v.403c0 .218.179.398.402.398zm0 0M.602 13A.4.4 0 0 0 1 12.602v-.403a.4.4 0 0 0-.8 0v.403c0 .218.179.398.402.398zm0 0M.602 19A.4.4 0 0 0 1 18.602v-.403a.4.4 0 0 0-.8 0v.403c0 .218.179.398.402.398zm0 0M.602 3A.4.4 0 0 0 1 2.602v-.403a.4.4 0 0 0-.8 0v.403C.2 2.82.378 3 .601 3zm0 0M.602 5A.4.4 0 0 0 1 4.602v-.403a.4.4 0 0 0-.8 0v.403C.2 4.82.378 5 .601 5zm0 0M.602 7A.4.4 0 0 0 1 6.602v-.403a.4.4 0 0 0-.8 0v.403C.2 6.82.378 7 .601 7zm0 0M.8 0H.603a.401.401 0 0 0-.403.398v.204a.401.401 0 0 0 .766.164A.4.4 0 0 0 .8 0zm0 0M18.398.8h.403a.401.401 0 0 0 0-.8h-.403a.4.4 0 0 0 0 .8zm0 0M16.398.8h.403a.401.401 0 0 0 0-.8h-.403a.4.4 0 0 0 0 .8zm0 0M8.8 0h-.402a.4.4 0 0 0 0 .8h.403a.401.401 0 0 0 0-.8zm0 0M4.8 0h-.402a.4.4 0 0 0 0 .8h.403a.401.401 0 0 0 0-.8zm0 0M6.8 0h-.402a.4.4 0 0 0 0 .8h.403a.401.401 0 0 0 0-.8zm0 0M10.8 0h-.402a.4.4 0 0 0 0 .8h.403a.401.401 0 0 0 0-.8zm0 0M2.8 0h-.402a.4.4 0 0 0 0 .8h.403a.401.401 0 0 0 0-.8zm0 0M12.8 0h-.402a.4.4 0 0 0 0 .8h.403a.401.401 0 0 0 0-.8zm0 0M14.8 0h-.402a.4.4 0 0 0 0 .8h.403a.401.401 0 0 0 0-.8zm0 0M20.234.766A.4.4 0 0 0 21 .602V.398A.4.4 0 0 0 20.602 0h-.204a.4.4 0 0 0-.164.766zm0 0M21 7.938a.4.4 0 0 0-.8 0v.386c0 .223.179.399.402.399A.398.398 0 0 0 21 8.324zm0 0M21 9.871a.401.401 0 1 0-.8 0v.383a.401.401 0 0 0 .8 0zm0 0M21 6.008a.401.401 0 1 0-.8 0v.387a.401.401 0 0 0 .8 0zm0 0M21 2.145a.398.398 0 0 0-.398-.399.398.398 0 0 0-.403.399v.386c0 .223.18.399.403.399A.398.398 0 0 0 21 2.53zm0 0M21 4.074a.4.4 0 0 0-.8 0v.387a.401.401 0 0 0 .8 0zm0 0M20.602 11.398a.402.402 0 0 0-.403.403V12c0 .223.18.398.403.398A.398.398 0 0 0 21 12v-.2a.401.401 0 0 0-.398-.402zm0 0"/>
</svg>
