<svg xmlns="http://www.w3.org/2000/svg" width="32" height="32" viewBox="0 0 24 24">
    <path d="M23.602 15.602c.218 0 .398-.18.398-.403V9.602a.401.401 0 0 0-.398-.403h-8.403v-2h3.2a.401.401 0 0 0 .285-.683L12.28.117a.396.396 0 0 0-.562 0L5.316 6.516a.401.401 0 0 0 .285.684h3.2v2H.398A.401.401 0 0 0 0 9.601v5.597c0 .223.18.403.398.403h8.403v2H.398A.398.398 0 0 0 0 18v5.602A.4.4 0 0 0 .398 24h23.204a.4.4 0 0 0 .398-.398V18a.398.398 0 0 0-.398-.398h-8.403v-2zM23.199 10v4.8h-8V10zM.801 14.8V10h8v4.8zm22.398 3.598V23.2H.801v-4.8h8.398A.398.398 0 0 0 9.602 18V6.8a.402.402 0 0 0-.403-.402H6.566L12 .965l5.434 5.433H14.8a.402.402 0 0 0-.403.403V18c0 .223.18.398.403.398zm0 0"/>
</svg>
