<svg xmlns="http://www.w3.org/2000/svg" width="32" height="32" viewBox="0 0 24 24">
    <path d="M5.601562 5.601562L5.601562 0 0 0 0 5.601562zM.800781.800781L4.800781.800781 4.800781 4.800781.800781 4.800781zM18.398438 0L18.398438 5.601562 24 5.601562 24 0zM23.199219 2.632812L21.035156 4.800781 19.765625 4.800781 23.199219 1.367188zM19.199219 2.964844L21.367188.800781 22.632812.800781 19.199219 4.234375zM20.234375.800781L19.199219 1.835938 19.199219.800781zM22.164062 4.800781L23.199219 3.765625 23.199219 4.800781zM5.601562 18.398438L0 18.398438 0 24 5.601562 24zM4.800781 23.199219L.800781 23.199219.800781 19.199219 4.800781 19.199219zM18.398438 18.398438L18.398438 24 24 24 24 18.398438zM23.199219 23.199219L19.199219 23.199219 19.199219 19.199219 23.199219 19.199219zM7.199219 2.800781C7.199219 3.019531 7.019531 3.199219 6.800781 3.199219 6.578125 3.199219 6.398438 3.019531 6.398438 2.800781 6.398438 2.578125 6.578125 2.398438 6.800781 2.398438 7.019531 2.398438 7.199219 2.578125 7.199219 2.800781zM6.398438 21.199219C6.398438 21.421875 6.222656 21.601562 6 21.601562 5.777344 21.601562 5.601562 21.421875 5.601562 21.199219 5.601562 20.980469 5.777344 20.800781 6 20.800781 6.222656 20.800781 6.398438 20.980469 6.398438 21.199219zM8 21.199219C8 21.421875 7.820312 21.601562 7.601562 21.601562 7.378906 21.601562 7.199219 21.421875 7.199219 21.199219 7.199219 20.980469 7.378906 20.800781 7.601562 20.800781 7.820312 20.800781 8 20.980469 8 21.199219zM8.800781 2.800781C8.800781 3.019531 8.621094 3.199219 8.398438 3.199219 8.179688 3.199219 8 3.019531 8 2.800781 8 2.578125 8.179688 2.398438 8.398438 2.398438 8.621094 2.398438 8.800781 2.578125 8.800781 2.800781zM3.199219 14.800781C3.199219 15.019531 3.019531 15.199219 2.800781 15.199219 2.578125 15.199219 2.398438 15.019531 2.398438 14.800781 2.398438 14.578125 2.578125 14.398438 2.800781 14.398438 3.019531 14.398438 3.199219 14.578125 3.199219 14.800781zM9.601562 21.199219C9.601562 21.421875 9.421875 21.601562 9.199219 21.601562 8.980469 21.601562 8.800781 21.421875 8.800781 21.199219 8.800781 20.980469 8.980469 20.800781 9.199219 20.800781 9.421875 20.800781 9.601562 20.980469 9.601562 21.199219zM3.199219 16.398438C3.199219 16.621094 3.019531 16.800781 2.800781 16.800781 2.578125 16.800781 2.398438 16.621094 2.398438 16.398438 2.398438 16.179688 2.578125 16 2.800781 16 3.019531 16 3.199219 16.179688 3.199219 16.398438zM10.398438 2.800781C10.398438 3.019531 10.222656 3.199219 10 3.199219 9.777344 3.199219 9.601562 3.019531 9.601562 2.800781 9.601562 2.578125 9.777344 2.398438 10 2.398438 10.222656 2.398438 10.398438 2.578125 10.398438 2.800781zM3.199219 10C3.199219 10.222656 3.019531 10.398438 2.800781 10.398438 2.578125 10.398438 2.398438 10.222656 2.398438 10 2.398438 9.777344 2.578125 9.601562 2.800781 9.601562 3.019531 9.601562 3.199219 9.777344 3.199219 10zM3.199219 8.398438C3.199219 8.621094 3.019531 8.800781 2.800781 8.800781 2.578125 8.800781 2.398438 8.621094 2.398438 8.398438 2.398438 8.179688 2.578125 8 2.800781 8 3.019531 8 3.199219 8.179688 3.199219 8.398438zM3.199219 11.601562C3.199219 11.820312 3.019531 12 2.800781 12 2.578125 12 2.398438 11.820312 2.398438 11.601562 2.398438 11.378906 2.578125 11.199219 2.800781 11.199219 3.019531 11.199219 3.199219 11.378906 3.199219 11.601562zM3.199219 13.199219C3.199219 13.421875 3.019531 13.601562 2.800781 13.601562 2.578125 13.601562 2.398438 13.421875 2.398438 13.199219 2.398438 12.980469 2.578125 12.800781 2.800781 12.800781 3.019531 12.800781 3.199219 12.980469 3.199219 13.199219zM3.199219 18C3.199219 18.222656 3.019531 18.398438 2.800781 18.398438 2.578125 18.398438 2.398438 18.222656 2.398438 18 2.398438 17.777344 2.578125 17.601562 2.800781 17.601562 3.019531 17.601562 3.199219 17.777344 3.199219 18zM3.199219 6.800781C3.199219 7.019531 3.019531 7.199219 2.800781 7.199219 2.578125 7.199219 2.398438 7.019531 2.398438 6.800781 2.398438 6.578125 2.578125 6.398438 2.800781 6.398438 3.019531 6.398438 3.199219 6.578125 3.199219 6.800781zM21.601562 9.199219C21.601562 9.421875 21.421875 9.601562 21.199219 9.601562 20.980469 9.601562 20.800781 9.421875 20.800781 9.199219 20.800781 8.980469 20.980469 8.800781 21.199219 8.800781 21.421875 8.800781 21.601562 8.980469 21.601562 9.199219zM21.601562 14C21.601562 14.222656 21.421875 14.398438 21.199219 14.398438 20.980469 14.398438 20.800781 14.222656 20.800781 14 20.800781 13.777344 20.980469 13.601562 21.199219 13.601562 21.421875 13.601562 21.601562 13.777344 21.601562 14zM21.601562 12.398438C21.601562 12.621094 21.421875 12.800781 21.199219 12.800781 20.980469 12.800781 20.800781 12.621094 20.800781 12.398438 20.800781 12.179688 20.980469 12 21.199219 12 21.421875 12 21.601562 12.179688 21.601562 12.398438zM21.601562 7.601562C21.601562 7.820312 21.421875 8 21.199219 8 20.980469 8 20.800781 7.820312 20.800781 7.601562 20.800781 7.378906 20.980469 7.199219 21.199219 7.199219 21.421875 7.199219 21.601562 7.378906 21.601562 7.601562zM21.601562 10.800781C21.601562 11.019531 21.421875 11.199219 21.199219 11.199219 20.980469 11.199219 20.800781 11.019531 20.800781 10.800781 20.800781 10.578125 20.980469 10.398438 21.199219 10.398438 21.421875 10.398438 21.601562 10.578125 21.601562 10.800781zM18.398438 2.800781C18.398438 3.019531 18.222656 3.199219 18 3.199219 17.777344 3.199219 17.601562 3.019531 17.601562 2.800781 17.601562 2.578125 17.777344 2.398438 18 2.398438 18.222656 2.398438 18.398438 2.578125 18.398438 2.800781zM21.601562 15.601562C21.601562 15.820312 21.421875 16 21.199219 16 20.980469 16 20.800781 15.820312 20.800781 15.601562 20.800781 15.378906 20.980469 15.199219 21.199219 15.199219 21.421875 15.199219 21.601562 15.378906 21.601562 15.601562zM21.601562 6C21.601562 6.222656 21.421875 6.398438 21.199219 6.398438 20.980469 6.398438 20.800781 6.222656 20.800781 6 20.800781 5.777344 20.980469 5.601562 21.199219 5.601562 21.421875 5.601562 21.601562 5.777344 21.601562 6zM21.601562 17.199219C21.601562 17.421875 21.421875 17.601562 21.199219 17.601562 20.980469 17.601562 20.800781 17.421875 20.800781 17.199219 20.800781 16.980469 20.980469 16.800781 21.199219 16.800781 21.421875 16.800781 21.601562 16.980469 21.601562 17.199219zM16.800781 2.800781C16.800781 3.019531 16.621094 3.199219 16.398438 3.199219 16.179688 3.199219 16 3.019531 16 2.800781 16 2.578125 16.179688 2.398438 16.398438 2.398438 16.621094 2.398438 16.800781 2.578125 16.800781 2.800781zM17.601562 21.199219C17.601562 21.421875 17.421875 21.601562 17.199219 21.601562 16.980469 21.601562 16.800781 21.421875 16.800781 21.199219 16.800781 20.980469 16.980469 20.800781 17.199219 20.800781 17.421875 20.800781 17.601562 20.980469 17.601562 21.199219zM12.800781 21.199219C12.800781 21.421875 12.621094 21.601562 12.398438 21.601562 12.179688 21.601562 12 21.421875 12 21.199219 12 20.980469 12.179688 20.800781 12.398438 20.800781 12.621094 20.800781 12.800781 20.980469 12.800781 21.199219zM14.398438 21.199219C14.398438 21.421875 14.222656 21.601562 14 21.601562 13.777344 21.601562 13.601562 21.421875 13.601562 21.199219 13.601562 20.980469 13.777344 20.800781 14 20.800781 14.222656 20.800781 14.398438 20.980469 14.398438 21.199219zM12 2.800781C12 3.019531 11.820312 3.199219 11.601562 3.199219 11.378906 3.199219 11.199219 3.019531 11.199219 2.800781 11.199219 2.578125 11.378906 2.398438 11.601562 2.398438 11.820312 2.398438 12 2.578125 12 2.800781zM13.601562 2.800781C13.601562 3.019531 13.421875 3.199219 13.199219 3.199219 12.980469 3.199219 12.800781 3.019531 12.800781 2.800781 12.800781 2.578125 12.980469 2.398438 13.199219 2.398438 13.421875 2.398438 13.601562 2.578125 13.601562 2.800781zM11.199219 21.199219C11.199219 21.421875 11.019531 21.601562 10.800781 21.601562 10.578125 21.601562 10.398438 21.421875 10.398438 21.199219 10.398438 20.980469 10.578125 20.800781 10.800781 20.800781 11.019531 20.800781 11.199219 20.980469 11.199219 21.199219zM15.199219 2.800781C15.199219 3.019531 15.019531 3.199219 14.800781 3.199219 14.578125 3.199219 14.398438 3.019531 14.398438 2.800781 14.398438 2.578125 14.578125 2.398438 14.800781 2.398438 15.019531 2.398438 15.199219 2.578125 15.199219 2.800781zM15.601562 20.800781C15.375 20.800781 15.199219 20.980469 15.199219 21.199219 15.199219 21.421875 15.375 21.601562 15.601562 21.601562 15.820312 21.601562 16 21.421875 16 21.199219 16 20.980469 15.820312 20.800781 15.601562 20.800781zM15.601562 20.800781"/>
</svg>
