<svg xmlns="http://www.w3.org/2000/svg" width="32" height="32" viewBox="0 0 24 24">
    <path d="M23.602 4.36H13.199a.398.398 0 0 0-.398.398v3.25L8.82 1.047C8.75.922 8.624.828 8.472.844a.402.402 0 0 0-.344.199L.055 14.957a.384.384 0 0 0 0 .398c.07.125.203.204.343.204h6.52a6.37 6.37 0 0 0-.117 1.199 6.407 6.407 0 0 0 6.398 6.398c3.531 0 6.403-2.87 6.403-6.398 0-.41-.043-.813-.118-1.2h4.118c.218 0 .398-.18.398-.402V4.758a.398.398 0 0 0-.398-.399zM1.094 14.757L8.473 2.047 12.8 9.62v.75c-.051.004-.102.012-.153.016a6.014 6.014 0 0 0-.586.078l-.199.035a5.44 5.44 0 0 0-.496.129c-.094.027-.187.062-.281.094l-.227.082-.3.129a6.376 6.376 0 0 0-1.164.691c-.047.035-.094.066-.137.102-.09.07-.18.144-.266.218a4.392 4.392 0 0 0-.14.133 4.612 4.612 0 0 0-.247.235l-.105.117c-.145.156-.281.32-.41.492a4.312 4.312 0 0 0-.305.437c-.035.055-.07.114-.105.172-.055.098-.114.2-.168.305l-.063.133a6.08 6.08 0 0 0-.324.789zm12.105 7.601a5.608 5.608 0 0 1-5.597-5.601 5.586 5.586 0 0 1 .335-1.899c.008-.023.02-.05.028-.074.047-.125.098-.242.152-.363.012-.027.028-.055.04-.082a9.7 9.7 0 0 1 .179-.348c.008-.012.016-.023.023-.039.211-.36.457-.691.739-.992.023-.024.043-.05.062-.074.082-.082.168-.164.254-.242.031-.032.063-.06.098-.09.086-.075.175-.149.265-.22.032-.026.067-.05.098-.073.098-.07.195-.14.297-.207l.058-.035a5.382 5.382 0 0 1 1.043-.512c.055-.02.106-.043.165-.063.085-.027.18-.054.269-.078.078-.023.152-.043.23-.062.083-.016.165-.035.243-.051l.304-.047.196-.023a5.71 5.71 0 0 1 .52-.028 5.796 5.796 0 0 1 .718.051l.3.047c.083.016.165.035.247.05.078.02.152.04.23.063.09.024.18.051.27.078.055.02.11.043.164.063.363.133.715.305 1.043.512l.058.035a8.03 8.03 0 0 1 .395.28c.09.071.18.145.266.22.03.03.066.058.097.09.086.078.172.16.25.242.024.023.043.05.067.074.28.3.527.633.738.992.008.016.016.027.023.04.063.112.122.23.176.347.016.027.031.055.043.082.055.121.106.238.152.363.008.024.016.05.028.074.047.13.09.262.125.399.133.476.21.98.21 1.5a5.609 5.609 0 0 1-5.6 5.601zm7.602-7.601h-1.524a6.684 6.684 0 0 0-.324-.79c-.023-.042-.043-.09-.066-.132a5.61 5.61 0 0 0-.168-.305c-.035-.058-.07-.117-.106-.172a4.254 4.254 0 0 0-.183-.277l-.117-.16a6.222 6.222 0 0 0-.762-.844 2.328 2.328 0 0 0-.145-.133c-.086-.074-.172-.148-.261-.218l-.137-.102a6.413 6.413 0 0 0-.992-.605c-.059-.032-.118-.06-.176-.086a6.925 6.925 0 0 0-.527-.211l-.13-.047a.393.393 0 0 0-.382-.317.384.384 0 0 0-.293.133c-.059-.012-.113-.015-.168-.027a6.603 6.603 0 0 0-.387-.059c-.066-.008-.133-.015-.2-.02-.05-.003-.1-.011-.151-.015v-.414a.398.398 0 1 0 0-.797V7.56a.4.4 0 0 0 0-.801V5.16h9.597v1.598a.401.401 0 0 0 0 .8V9.16a.398.398 0 1 0 0 .797v1.602a.4.4 0 0 0 0 .8v1.598a.401.401 0 0 0 0 .8zm0 0"/>
    <path d="M16.398 7.156a.398.398 0 1 1-.796 0 .398.398 0 1 1 .796 0zm0 0M15.2 5.957a.401.401 0 1 1-.803.003.401.401 0 0 1 .802-.003zm0 0M16.398 9.559a.398.398 0 1 1-.796 0 .398.398 0 1 1 .796 0zm0 0M21.2 9.559a.4.4 0 1 1-.801-.004.4.4 0 0 1 .8.004zm0 0M15.2 8.36a.4.4 0 1 1-.801-.004.4.4 0 0 1 .8.003zm0 0M17.602 5.957a.401.401 0 1 1 0 0zm0 0M18.8 7.156a.401.401 0 1 1 0 0zm0 0M21.2 7.156a.401.401 0 1 1-.803.003.401.401 0 0 1 .802-.003zm0 0M20 5.957a.401.401 0 1 1-.802.003.401.401 0 0 1 .802-.003zm0 0M17.602 8.36a.401.401 0 1 1-.802-.006.401.401 0 0 1 .802.005zm0 0M18.8 9.559A.401.401 0 1 1 18 9.554a.401.401 0 0 1 .802.005zm0 0M20 8.36a.4.4 0 1 1-.8-.004.4.4 0 0 1 .8.003zm0 0M22.398 5.957a.398.398 0 1 1-.796 0 .398.398 0 1 1 .796 0zm0 0M22.398 8.36a.398.398 0 1 1-.796 0 .398.398 0 1 1 .796 0zm0 0M21.2 14.36a.4.4 0 1 1-.801-.004.4.4 0 0 1 .8.003zm0 0M17.602 10.758a.401.401 0 0 1-.801 0c0-.223.18-.399.398-.399.223 0 .403.176.403.399zm0 0M18.8 11.957a.401.401 0 1 1 0 0zm0 0M21.2 11.957a.401.401 0 1 1-.803.003.401.401 0 0 1 .802-.003zm0 0M20 10.758a.4.4 0 0 1-.8 0c0-.223.179-.399.402-.399.218 0 .398.176.398.399zm0 0M20 13.156a.401.401 0 1 1-.802.003.401.401 0 0 1 .802-.003zm0 0M22.398 10.758a.398.398 0 1 1-.796 0c0-.223.175-.399.398-.399.223 0 .398.176.398.399zm0 0M22.398 13.156a.398.398 0 1 1-.796 0 .398.398 0 1 1 .796 0zm0 0"/>
</svg>
