<svg xmlns="http://www.w3.org/2000/svg" width="32" height="32" viewBox="0 0 24 24">
    <path d="M10.398 0v3.2h3.204V0zm.801 2.398V.801h1.602v1.597zm0 0M20.8 0v3.2H22v.402a.4.4 0 0 0 .8 0v-.403H24V0zm2.4 2.398h-1.598V.801h1.597zm0 0M6.8 22H6a.398.398 0 0 0-.398.398c0 .223.175.403.398.403h.8a.401.401 0 0 0 0-.801zm0 0M7.602 1.2H6.8a.401.401 0 0 0 0 .8h.8a.4.4 0 0 0 0-.8zm0 0M9.2 22h-.802a.4.4 0 0 0 0 .8H9.2a.401.401 0 0 0 0-.8zm0 0M1.602 16.8a.401.401 0 0 0-.403.4v.8c0 .223.18.398.403.398A.398.398 0 0 0 2 18v-.8a.4.4 0 0 0-.398-.4zm0 0M2 5.2a.4.4 0 0 0-.8 0V6c0 .223.179.398.402.398A.398.398 0 0 0 2 6zm0 0M4.398 22h-.796a.401.401 0 1 0 0 .8h.796a.401.401 0 0 0 0-.8zm0 0M1.602 7.2a.402.402 0 0 0-.403.402v.796a.401.401 0 0 0 .8 0l.001-.796a.401.401 0 0 0-.398-.403zm0 0M1.2 3.602a.401.401 0 0 0 .8 0v-.403h1.2V0H0v3.2h1.2zM.8.8h1.598v1.597H.801zm0 0M2 14.8a.401.401 0 1 0-.8 0v.802a.401.401 0 0 0 .8 0zm0 0M2 20.398v-.796a.401.401 0 1 0-.8 0v.796a.401.401 0 0 0 .8 0zm0 0M5.2 1.2h-.802a.401.401 0 0 0 0 .8H5.2a.401.401 0 1 0 0-.8zm0 0M22.398 17.602c.223 0 .403-.18.403-.403v-.8a.401.401 0 0 0-.801 0v.8c0 .223.18.403.398.403zm0 0M22 19.602a.4.4 0 0 0 .8 0V18.8a.401.401 0 0 0-.8 0zm0 0M22 14v.8a.4.4 0 0 0 .8 0V14a.398.398 0 0 0-.402-.398A.398.398 0 0 0 22 14zm0 0"/>
    <path d="M22.8 10a.398.398 0 0 0-.402-.398A.398.398 0 0 0 22 10v.398h-1.2v3.204H24v-3.204h-1.2zm.4 2.8h-1.598v-1.6h1.597zm0 0M22.398 6.398A.398.398 0 0 0 22.801 6v-.8a.401.401 0 0 0-.801 0V6c0 .223.18.398.398.398zm0 0M14 22h-.398v-1.2h-3.204V24h3.204v-1.2H14c.223 0 .398-.179.398-.402A.398.398 0 0 0 14 22zm-1.2 1.2h-1.6v-1.598h1.6zm0 0M19.602 1.2H18.8a.401.401 0 0 0 0 .8h.8a.4.4 0 0 0 0-.8zm0 0M22 8.398a.401.401 0 1 0 .8 0v-.796a.401.401 0 0 0-.8 0zm0 0M14.8 1.2H14a.398.398 0 0 0-.398.402c0 .218.175.398.398.398h.8a.4.4 0 0 0 0-.8zm0 0M10 1.2h-.8a.401.401 0 0 0 0 .8h.8c.223 0 .398-.18.398-.398A.398.398 0 0 0 10 1.199zm0 0M17.2 1.2h-.802a.401.401 0 0 0 0 .8h.801a.401.401 0 1 0 0-.8zm0 0M16.398 22h-.796a.401.401 0 1 0 0 .8h.796a.401.401 0 0 0 0-.8zm0 0M18.8 22H18a.398.398 0 0 0-.398.398c0 .223.175.403.398.403h.8a.401.401 0 0 0 0-.801zm0 0M2.398 13.602H3.2v-3.204H2V10a.398.398 0 0 0-.398-.398.398.398 0 0 0-.403.398v.398H0v3.204zM.801 11.199h1.597v1.602H.801zm0 0M3.2 20.8H0V24h3.2zm-.802 2.4H.801v-1.598h1.597zm0 0M21.602 20.8H20.8V22h-.403a.4.4 0 0 0 0 .8h.403V24H24v-3.2zm1.597 2.4h-1.597v-1.598h1.597zm0 0"/>
</svg>
