<svg xmlns="http://www.w3.org/2000/svg" width="32" height="32" viewBox="0 0 24 24">
    <path d="M18.398 0v5.602H24V0zM23.2 4.8h-4v-4h4zm0 0M5.602 0H0v5.602h5.602zM3.766 4.8L4.8 3.767V4.8zM4.8 2.634L2.633 4.8H1.367l3.434-3.434zm-4 .332L2.965.8h1.27L.8 4.234zM1.836.8L.8 1.836V.8zm0 0M18.398 18.398V24H24v-5.602zM23.2 23.2h-4v-4h4zm0 0M0 18.398V24h5.602v-5.602zM4.8 23.2h-4v-4h4zm0 0M7.2 21.2a.401.401 0 1 1-.803.002.401.401 0 0 1 .802-.003zm0 0M8.8 21.2a.401.401 0 1 1 0 0zm0 0"/>
    <path d="M6.398 2.8a.398.398 0 1 1-.796 0 .398.398 0 1 1 .796 0zm0 0M8 2.8a.4.4 0 1 1-.8-.003.4.4 0 0 1 .8.004zm0 0M3.2 10.8a.4.4 0 1 1-.801-.003.4.4 0 0 1 .8.004zm0 0M3.2 12.398a.401.401 0 1 1-.803.003.401.401 0 0 1 .802-.003zm0 0M3.2 7.602a.4.4 0 1 1-.801-.004.4.4 0 0 1 .8.004zm0 0M3.2 9.2a.401.401 0 1 1-.803.002.401.401 0 0 1 .802-.003zm0 0M3.2 17.2a.401.401 0 1 1-.803.002.401.401 0 0 1 .802-.003zm0 0M3.2 6c0 .223-.18.398-.4.398a.398.398 0 1 1 0-.796c.22 0 .4.175.4.398zm0 0M3.2 15.602a.4.4 0 1 1-.801-.004.4.4 0 0 1 .8.004zm0 0M3.2 14c0 .223-.18.398-.4.398a.398.398 0 1 1 0-.796c.22 0 .4.175.4.398zm0 0M12.8 2.8A.401.401 0 1 1 12 2.797a.401.401 0 0 1 .802.005zm0 0M21.602 8.398a.401.401 0 1 1 0 0zm0 0M21.602 6.8a.401.401 0 1 1-.802-.004.401.401 0 0 1 .802.005zm0 0M21.602 18c0 .223-.18.398-.403.398a.398.398 0 1 1 0-.796c.223 0 .403.175.403.398zm0 0M21.602 10c0 .223-.18.398-.403.398a.398.398 0 1 1 0-.796c.223 0 .403.175.403.398zm0 0M21.602 14.8a.401.401 0 1 1-.802-.004.401.401 0 0 1 .802.005zm0 0M18.398 21.2a.398.398 0 1 1-.796 0 .398.398 0 1 1 .796 0zm0 0M21.602 16.398a.401.401 0 1 1 0 0zm0 0M21.602 11.602a.401.401 0 1 1-.802-.005.401.401 0 0 1 .802.005zm0 0M21.602 13.2a.401.401 0 1 1 0 0zm0 0M12 21.2a.401.401 0 1 1-.802.002.401.401 0 0 1 .802-.003zm0 0M13.602 21.2a.401.401 0 1 1 0 0zm0 0M17.602 2.8a.401.401 0 1 1-.802-.004.401.401 0 0 1 .802.005zm0 0M11.2 2.8a.4.4 0 1 1-.801-.003.4.4 0 0 1 .8.004zm0 0M10.398 21.2a.398.398 0 1 1-.796 0 .398.398 0 1 1 .796 0zm0 0M9.602 2.8a.401.401 0 1 1-.802-.004.401.401 0 0 1 .802.005zm0 0M16 2.8a.4.4 0 1 1-.8-.003.4.4 0 0 1 .8.004zm0 0M16.8 21.2a.401.401 0 1 1 0 0zm0 0M14.398 2.8a.398.398 0 1 1-.796 0 .398.398 0 1 1 .796 0zm0 0M15.2 21.2a.401.401 0 1 1-.803.002.401.401 0 0 1 .802-.003zm0 0"/>
</svg>
