<svg xmlns="http://www.w3.org/2000/svg" width="32" height="32" viewBox="0 0 24 24">
    <path d="M0 8h2.398V2.398H8V0H0zM.8.8h6.4v.802H1.601v5.597H.8zm0 0M16 0v2.398h5.602V8H24V0zm7.2 7.2h-.802V1.601h-5.597V.8h6.398zm0 0M21.602 21.602H16V24h8v-8h-2.398zm.796-4.801h.801v6.398h-6.398v-.8h5.597zm0 0M2.398 16H0v8h8v-2.398H2.398zM7.2 22.398v.801H.801v-6.398h.8v5.597zm0 0M12 1.2a3.608 3.608 0 0 0-3.602 3.6v4.802c0 .886.336 1.738.926 2.398a3.605 3.605 0 0 0-.926 2.398V19.2A3.608 3.608 0 0 0 12 22.801a3.608 3.608 0 0 0 3.602-3.602v-4.8c0-.887-.336-1.739-.926-2.399.59-.66.926-1.512.926-2.398V4.8A3.608 3.608 0 0 0 12 1.199zm2.8 8.402a2.81 2.81 0 0 1-.956 2.097L13.5 12l.344.3c.605.536.957 1.302.957 2.098V19.2C14.8 20.742 13.543 22 12 22a2.806 2.806 0 0 1-2.8-2.8v-4.802c0-.796.35-1.562.956-2.097L10.5 12l-.344-.3A2.81 2.81 0 0 1 9.2 9.601V4.8C9.2 3.258 10.457 2 12 2c1.543 0 2.8 1.258 2.8 2.8zm0 0"/>
    <path d="M12.398 16V8A.395.395 0 0 0 12 7.602a.395.395 0 0 0-.398.398v8c0 .223.175.398.398.398a.395.395 0 0 0 .398-.398zm0 0"/>
    <path d="M12 2.8c-1.102 0-2 .895-2 2v4.802c0 .757.133 1 .488 1.445a.394.394 0 0 0 .559.066.399.399 0 0 0 .066-.562c-.258-.328-.312-.395-.312-.95v-4.8a1.2 1.2 0 0 1 2.398 0v4.8c0 .555-.054.622-.312.95a.399.399 0 0 0 .312.648c.117 0 .235-.05.313-.152.355-.445.488-.688.488-1.445V4.8c0-1.106-.898-2-2-2zm0 0M12.953 12.887a.399.399 0 0 0-.066.562c.258.328.312.395.312.95v4.8a1.2 1.2 0 0 1-2.398 0v-4.8c0-.555.054-.622.312-.95a.399.399 0 0 0-.066-.562.394.394 0 0 0-.559.066c-.355.445-.488.688-.488 1.445V19.2c0 1.106.898 2 2 2 1.102 0 2-.894 2-2v-4.8c0-.758-.133-1-.488-1.446a.394.394 0 0 0-.559-.066zm0 0"/>
</svg>
