<svg xmlns="http://www.w3.org/2000/svg" width="32" height="32" viewBox="0 0 24 24">
    <path d="M23.602 3.2A.4.4 0 0 0 24 2.8V.399A.4.4 0 0 0 23.602 0h-2.403a.4.4 0 0 0-.398.398v2.235l-7.992 7.992a1.712 1.712 0 0 0-.418-.172c-.18-5.015-4.227-9.066-9.246-9.246A1.596 1.596 0 0 0 0 1.602c0 .878.719 1.597 1.602 1.597A1.6 1.6 0 0 0 3.14 2.008c4.582.176 8.273 3.87 8.449 8.453A1.593 1.593 0 0 0 10.398 12c0 .297.09.57.227.809L2.633 20.8H.398a.4.4 0 0 0-.398.398v2.403A.4.4 0 0 0 .398 24h2.403a.4.4 0 0 0 .398-.398v-2.235l7.992-7.992c.22.125.465.203.735.219l-1.317 7.11a.404.404 0 0 0 .211.429.384.384 0 0 0 .184.043c.105 0 .21-.04.289-.121l2.14-2.215a9.595 9.595 0 0 0 7.422 3.95c.172.694.797 1.21 1.543 1.21.883 0 1.602-.719 1.602-1.602 0-.878-.719-1.597-1.602-1.597a1.6 1.6 0 0 0-1.539 1.187 8.787 8.787 0 0 1-6.632-3.418l3.066.875a.4.4 0 0 0 .45-.168.394.394 0 0 0-.036-.472l-4.73-5.547c.378-.293.625-.746.625-1.258 0-.297-.09-.57-.227-.809L21.367 3.2zm-22-.802A.799.799 0 1 1 1.597.801a.799.799 0 0 1 .005 1.597zm20.796 19.204a.799.799 0 1 1 .005 1.597.799.799 0 0 1-.005-1.597zM21.602.8h1.597v1.597h-1.597zM12 11.199a.802.802 0 0 1 0 1.602.794.794 0 0 1-.563-.235h-.003v-.004a.794.794 0 0 1-.235-.562c0-.441.36-.8.801-.8zm-9.602 12H.801v-1.597h1.597zm11.403-5.586a.406.406 0 0 0-.399.11l-1.765 1.824 1.008-5.45 3.593 4.216zm0 0"/>
</svg>
