<svg xmlns="http://www.w3.org/2000/svg" width="32" height="32" viewBox="0 0 24 24">
    <path d="M16.082 6.602h4.773c.18.687.801 1.199 1.543 1.199a1.6 1.6 0 0 0 0-3.2 1.6 1.6 0 0 0-1.543 1.2h-7.253V4.6h-3.204v1.2H3.145a1.6 1.6 0 0 0-1.543-1.2A1.6 1.6 0 0 0 0 6.2c0 .883.719 1.602 1.602 1.602a1.6 1.6 0 0 0 1.543-1.2h4.773A10.79 10.79 0 0 0 1.211 16.2H0v3.2h3.2v-3.2H2.02c.187-4.754 3.69-8.719 8.378-9.469V7.8h3.204V6.73c4.687.75 8.191 4.715 8.378 9.47H20.8v3.198H24V16.2h-1.21a10.79 10.79 0 0 0-6.708-9.597zm-13.684 12H.801V17h1.597zm20-13.204a.802.802 0 0 1 0 1.602.799.799 0 0 1-.796-.8c0-.442.355-.802.796-.802zM1.602 7a.802.802 0 0 1 0-1.602c.441 0 .796.36.796.801 0 .442-.355.801-.796.801zM12.8 7h-1.602V5.398h1.602zm10.398 11.602h-1.597V17h1.597zm0 0"/>
</svg>
