<svg xmlns="http://www.w3.org/2000/svg" width="32" height="32" viewBox="0 0 24 24">
    <path d="M23.594 9.355V6.508h-4.067v2.847h-.41v2.524c0 .402.328.73.73.73h.493c0 .532.34.977.812 1.145v1.152c0 2.805-1.453 5.625-4.597 7.004a6.484 6.484 0 0 0 2.156-4.824 6.513 6.513 0 0 0-6.508-6.508 6.513 6.513 0 0 0-6.508 6.508c0 1.324.399 2.555 1.082 3.582a7.476 7.476 0 0 1-2.304-5.398V8.543h.816V6.508h2.848V2.44H7.73V.406H.406v2.035H0v4.067h2.848v2.035h.812v7.125h.012c.207 4.406 3.855 7.926 8.312 7.926.051 0 .106-.004.16-.004.02 0 .04.004.06.004.046 0 .089-.008.132-.008 5.687-.14 9.629-3.668 9.629-8.68v-1.152c.473-.168.816-.613.816-1.145h.489c.402 0 .73-.328.73-.73V9.355zM1.219 1.22h5.695V2.44h-.406V1.63h-.813v.812H2.441V1.63H1.63v.812h-.41zM.812 5.695V3.254H7.32v2.441zm3.66.813V7.73H3.66V6.508zm7.872 16.265c-.067 0-.133.004-.203.004a4.48 4.48 0 0 1-4.41-4.472 4.477 4.477 0 0 1 4.472-4.473 4.48 4.48 0 0 1 4.477 4.473 4.477 4.477 0 0 1-4.336 4.468zm-.14-11.382a5.701 5.701 0 0 1 5.694 5.695 5.68 5.68 0 0 1-.55 2.426c.09-.387.144-.79.144-1.207a5.296 5.296 0 0 0-5.289-5.29 5.298 5.298 0 0 0-5.289 5.29c0 .418.055.82.145 1.207a5.68 5.68 0 0 1-.551-2.426 5.701 5.701 0 0 1 5.695-5.695zm8.136-2.848h.812V7.73h-.812v-.41h2.441v.41h-.816v.813h.816v.812H20.34zm1.219 4.473a.406.406 0 0 1-.407-.407v-.812h.813v.812c0 .227-.18.407-.406.407zm1.628-1.22h-.406v-.812H20.34v.813h-.406v-1.629h3.253zm0 0"/>
</svg>
