<svg xmlns="http://www.w3.org/2000/svg" width="32" height="32" viewBox="0 0 24 24">
    <path d="M18.637 0H5.363C4.613 0 4 .613 4 1.363v21.274C4 23.387 4.613 24 5.363 24h13.274c.75 0 1.363-.613 1.363-1.363V1.363C20 .613 19.387 0 18.637 0zm.562 22.637a.565.565 0 0 1-.562.562H5.363a.565.565 0 0 1-.562-.562V1.363c0-.308.254-.562.562-.562h13.274c.308 0 .562.254.562.562zm0 0"/>
    <path d="M6 5.2v7.198h12V2H6zm11.2 6.402H6.8V9.199h10.4zm0-3.204H6.8V6h10.4zM6.8 2.801h10.4v2.398H6.8zm0 0M8.8 19.602a.401.401 0 0 0 0-.801H8a.398.398 0 0 0-.398.398c0 .223.175.403.398.403zm0 0M8 20.398A.4.4 0 0 0 7.602 20H6.8a.401.401 0 1 0 0 .8h.8c.22 0 .399-.179.399-.402zm0 0M10.398 20.398A.398.398 0 0 0 10 20h-.8a.4.4 0 0 0 0 .8h.8c.223 0 .398-.179.398-.402zm0 0M11.2 19.602a.401.401 0 0 0 0-.8l-.802-.001a.4.4 0 0 0 0 .8zm0 0M13.602 19.602a.401.401 0 0 0 0-.801H12.8a.401.401 0 1 0 0 .8zm0 0M12.8 20.398a.401.401 0 0 0-.402-.398h-.796a.401.401 0 1 0 0 .8h.796c.223 0 .403-.179.403-.402zm0 0M15.2 20.398a.4.4 0 0 0-.4-.398H14a.398.398 0 0 0-.398.398c0 .223.175.403.398.403h.8c.22 0 .4-.18.4-.403zm0 0M16 19.602c.223 0 .398-.18.398-.403a.398.398 0 0 0-.398-.398h-.8a.4.4 0 0 0 0 .8zm0 0M17.2 20h-.802a.4.4 0 0 0 0 .8h.801a.401.401 0 0 0 0-.8zm0 0M8.8 21.2H8a.398.398 0 0 0-.398.402c0 .218.175.398.398.398h.8a.4.4 0 0 0 0-.8zm0 0M11.2 21.2h-.802a.401.401 0 0 0 0 .8h.801a.401.401 0 1 0 0-.8zm0 0M13.602 21.2H12.8a.401.401 0 0 0 0 .8h.8a.4.4 0 0 0 0-.8zm0 0M16 21.2h-.8a.401.401 0 0 0 0 .8h.8c.223 0 .398-.18.398-.398a.398.398 0 0 0-.398-.403zm0 0M16.398 13.2A1.6 1.6 0 1 0 18 14.801c0-.884-.719-1.603-1.602-1.603zm0 2.402a.799.799 0 0 1-.796-.801.799.799 0 1 1 1.597 0c0 .441-.36.8-.8.8zm0 0"/>
</svg>
