<svg xmlns="http://www.w3.org/2000/svg" width="32" height="32" viewBox="0 0 24 24">
    <path d="M1.684 2.95H4.21v.84H1.684zm0 0"/>
    <path d="M23.578 8V5.05h-5.05V8h-.423v2.613c0 .418.34.754.754.754h.93v.422c0 .547.356 1.012.844 1.188v1.191c0 2.902-1.504 5.82-4.758 7.246a6.716 6.716 0 0 0 2.23-4.992 6.747 6.747 0 0 0-6.738-6.738c-3.715 0-6.734 3.023-6.734 6.738 0 1.371.414 2.644 1.117 3.707a7.74 7.74 0 0 1-2.383-5.586v-6.2c.488-.175.844-.636.844-1.187h.93a.754.754 0 0 0 .754-.754V3.79h-.422V.844H.422v2.945H0v2.613c0 .418.34.754.754.754h.93c0 .551.355 1.012.843 1.188v6.61h.008c.215 4.562 3.992 8.202 8.606 8.202h.226c.047 0 .094-.004.137-.004 5.89-.148 9.969-3.797 9.969-8.984v-1.191c.488-.176.843-.641.843-1.188v-.422h.93a.754.754 0 0 0 .754-.754V8zM1.684 5.473v.843h-.84V4.633h.418v-2.95h.422v.844h.843v-.843h.84v.843h.844v-.843h.422v2.949h.418v1.683h-.84v-.843zm1.265 2.105a.42.42 0 0 1-.422-.422v-.84h.84v.84a.42.42 0 0 1-.418.422zm2.524 8.844a5.902 5.902 0 0 1 5.894-5.895 5.902 5.902 0 0 1 5.895 5.895c0 .898-.207 1.75-.57 2.512.093-.403.152-.82.152-1.25a5.482 5.482 0 0 0-5.477-5.473 5.481 5.481 0 0 0-5.472 5.473c0 .43.054.847.148 1.25a5.878 5.878 0 0 1-.57-2.512zm6.039 5.887c-.067 0-.137.003-.207.003a4.636 4.636 0 0 1-4.567-4.628 4.637 4.637 0 0 1 4.63-4.633A4.638 4.638 0 0 1 16 17.684c0 2.507-2 4.546-4.488 4.625zm9.96-10.942v.422a.42.42 0 1 1-.84 0v-.84h.84zm1.684-.84h-.84v-.843H19.79v.843h-.84V8.844h.418v-2.95h.422v.844h.844v-.843h.84v.843h.843v-.843h.422v2.949h.418zm0 0"/>
    <path d="M19.79 7.156h2.526V8H19.79zm0 0"/>
</svg>
