<svg xmlns="http://www.w3.org/2000/svg" width="32" height="32" viewBox="0 0 24 24">
    <path d="M23.996 8.773a.512.512 0 0 0-.023-.105c-.004-.016-.012-.027-.016-.043a.313.313 0 0 0-.059-.082c-.007-.012-.015-.023-.023-.031a64.74 64.74 0 0 0-.012-.012l-3.199-2.8a.412.412 0 0 0-.266-.098H3.602a.412.412 0 0 0-.266.097L.136 8.5a64.74 64.74 0 0 0-.011.012c-.008.008-.016.02-.023.031a.313.313 0 0 0-.059.082c-.004.012-.012.027-.016.043a.512.512 0 0 0-.023.105c0 .012-.004.02-.004.028v6.73c0 .059.012.121.04.176l1.202 2.469a.395.395 0 0 0 .36.222h20.796a.395.395 0 0 0 .36-.222l1.203-2.469a.398.398 0 0 0 .039-.176v-6.73c0-.008-.004-.016-.004-.028zM.801 12.801h1.597a.401.401 0 0 0 0-.8l-1.597-.001v-.398h1.597a.401.401 0 0 0 0-.8L.801 10.8v-.403h1.597a.398.398 0 1 0 0-.796H.801v-.403h16v4.403H.8zm16.8-3.602H19.2v4.403h-1.597zM20 9.2h3.2v4.403H20zm2.535-.8h-2.383l-2.289-2h2.387zm-5.887-2l2.286 2h-1.567l-2-2zm-12.898 0h10.484l2 2H1.464zM.8 15.437v-1.04h16v3.204H1.853zm16.802 2.164v-3.204h1.597v3.204zm5.597-2.165l-1.05 2.165H20v-3.204h3.2zm0 0"/>
    <path d="M2.8 17.2h3.598v-2.4H2.801zm.802-1.598h2v.796h-2zm0 0M7.2 14.8v2.4h3.6v-2.4zm2.8 1.598H8v-.796h2zm0 0M10 10.398H5.2a.401.401 0 0 0 0 .801H10c.223 0 .398-.18.398-.398a.398.398 0 0 0-.398-.403zm0 0"/>
</svg>
