<svg xmlns="http://www.w3.org/2000/svg" width="32" height="32" viewBox="0 0 24 24">
    <path d="M16.8 13.602A1.4 1.4 0 0 0 15.399 15a1.4 1.4 0 0 0 2.801 0 1.4 1.4 0 0 0-1.398-1.398zm0 2a.602.602 0 0 1 0-1.204.601.601 0 0 1 0 1.204zm0 0M14.398 16c-.77 0-1.398.629-1.398 1.398 0 .774.629 1.403 1.398 1.403.774 0 1.403-.63 1.403-1.403 0-.77-.63-1.398-1.403-1.398zm0 2a.6.6 0 1 1 .602-.602c0 .332-.27.602-.602.602zm0 0"/>
    <path d="M18.652 12.621a.618.618 0 0 1-.039-.191c0-.012-.004-.024-.004-.035a.593.593 0 0 1 .172-.41l.5-.5a.399.399 0 0 0 .117-.286V1.891C19.398.848 18.551 0 17.508 0H6.492c-1.043 0-1.89.848-1.89 1.89v9.31c0 .105.039.206.117.284l.523.524c.106.105.16.242.16.39 0 .149-.054.29-.16.395l-.523.523a.386.386 0 0 0-.117.286v8.253c0 1.184.96 2.145 2.144 2.145h10.508c1.183 0 2.148-.96 2.148-2.145v-8.253a.39.39 0 0 0-.12-.286l-.5-.5a.64.64 0 0 1-.079-.101c-.015-.02-.027-.047-.039-.07l-.012-.024zM5.398 11.035V1.891c0-.602.493-1.09 1.094-1.09h11.016c.601 0 1.094.488 1.094 1.09v9.144l-.387.383a1.374 1.374 0 0 0-.34.582H6.137a1.333 1.333 0 0 0-.328-.559zm13.204 10.82c0 .743-.606 1.344-1.348 1.344H6.746a1.347 1.347 0 0 1-1.348-1.344v-8.09l.41-.406c.07-.074.133-.156.188-.242.016-.027.027-.055.043-.086a1.21 1.21 0 0 0 .082-.176c.004-.02.02-.035.024-.054h11.718c.008.02.02.039.028.058.023.067.054.13.086.192l.043.078a1.2 1.2 0 0 0 .195.25l.383.387v8.09zm0 0"/>
    <path d="M7 10.8h10c.223 0 .398-.179.398-.402v-8A.398.398 0 0 0 17 2H7a.398.398 0 0 0-.398.398v8c0 .223.175.403.398.403zm.398-8h9.204V10H7.398zm0 0M10.883 21.086A.416.416 0 0 0 11 20.8a.409.409 0 0 0-.117-.285.416.416 0 0 0-.567 0 .409.409 0 0 0-.117.285c0 .101.043.207.117.285a.42.42 0 0 0 .282.113c.109 0 .21-.043.285-.113zm0 0M12.082 20.516a.416.416 0 0 0-.566 0 .426.426 0 0 0-.118.285c0 .105.047.207.118.285.074.07.175.113.285.113a.42.42 0 0 0 .281-.113.423.423 0 0 0 .117-.285.409.409 0 0 0-.117-.285zm0 0M12.715 20.516a.423.423 0 0 0-.113.285c0 .101.043.207.113.285a.43.43 0 0 0 .285.113.43.43 0 0 0 .285-.113.438.438 0 0 0 .113-.285.423.423 0 0 0-.113-.285.42.42 0 0 0-.57 0zm0 0M12.316 21.715a.409.409 0 0 0 0 .57.413.413 0 0 0 .566 0 .409.409 0 0 0 0-.57.416.416 0 0 0-.566 0zm0 0M10.715 21.715a.43.43 0 0 0-.113.285.43.43 0 0 0 .113.285.43.43 0 0 0 .285.113.43.43 0 0 0 .285-.113.43.43 0 0 0 .113-.285.43.43 0 0 0-.113-.285.42.42 0 0 0-.57 0zm0 0M12.316 19.316a.4.4 0 1 0 .566.566.406.406 0 0 0 .118-.28.409.409 0 0 0-.117-.286.416.416 0 0 0-.567 0zm0 0M10.715 19.316a.423.423 0 0 0-.113.286.42.42 0 0 0 .113.28c.078.075.18.118.285.118.11 0 .207-.043.285-.117a.413.413 0 0 0 0-.567.42.42 0 0 0-.57 0zm0 0M11.398 14.398h1.204a.398.398 0 1 0 0-.796h-1.204a.398.398 0 1 0 0 .796zm0 0"/>
    <path d="M8.602 6c.101 0 .203-.04.28-.117l1.602-1.602a.396.396 0 0 0 0-.562.4.4 0 0 0-.566 0L8.316 5.316A.4.4 0 0 0 8.602 6zm0 0M9.117 6.516l-.8.8a.4.4 0 0 0 .566.567l.8-.801a.4.4 0 0 0-.566-.566zm0 0M9.914 5.715A.423.423 0 0 0 9.801 6a.43.43 0 0 0 .113.285c.078.07.184.113.285.113a.43.43 0 0 0 .285-.113.434.434 0 0 0 .118-.285.434.434 0 0 0-.118-.285.42.42 0 0 0-.57 0zm0 0M11.918 3.719l-1.2 1.199a.394.394 0 0 0 0 .566.396.396 0 0 0 .563 0l1.203-1.203a.396.396 0 0 0 0-.562.4.4 0 0 0-.566 0zm0 0M11.398 17.313v-1.028a.682.682 0 0 0-.683-.683H9.8v-.915A.689.689 0 0 0 9.113 14H8.086a.689.689 0 0 0-.688.688v.914h-.914a.684.684 0 0 0-.683.683v1.027c0 .38.308.688.683.688h.914v.914c0 .379.309.688.688.688h1.027a.689.689 0 0 0 .688-.688V18h.914a.685.685 0 0 0 .683-.688zm-.796-.114H9v1.602h-.8v-1.602H6.601v-.8h1.597V14.8H9v1.597h1.602zm0 0"/>
</svg>
