<svg xmlns="http://www.w3.org/2000/svg" width="32" height="32" viewBox="0 0 24 24">
    <path d="M6.398 10c.106 0 .207-.04.286-.117L8.28 8.28a.396.396 0 0 0 0-.562.396.396 0 0 0-.562 0L6.117 9.316a.4.4 0 0 0 .281.684zm0 0M6.918 10.516l-.8.8a.4.4 0 0 0 .566.567l.8-.801a.4.4 0 0 0-.566-.566zm0 0M7.715 9.715a.423.423 0 0 0-.113.285.43.43 0 0 0 .113.285.43.43 0 0 0 .285.113.43.43 0 0 0 .285-.113.43.43 0 0 0 .113-.285.43.43 0 0 0-.113-.285.42.42 0 0 0-.57 0zm0 0M9.719 7.719L8.516 8.918a.4.4 0 0 0 .566.566l1.2-1.203a.396.396 0 0 0 0-.562.396.396 0 0 0-.563 0zm0 0"/>
    <path d="M20.523 3.2H3.477A3.48 3.48 0 0 0 0 6.675v10.648a3.48 3.48 0 0 0 3.477 3.477h17.046A3.48 3.48 0 0 0 24 17.324V6.676a3.48 3.48 0 0 0-3.477-3.477zM23.2 17.323C23.2 18.801 22 20 20.523 20H3.477A2.677 2.677 0 0 1 .8 17.324V6.676C.8 5.199 2 4 3.477 4h17.046C22 4 23.2 5.2 23.2 6.676zm0 0"/>
    <path d="M18.133 6.398H5.867c-.59 0-1.066.48-1.066 1.07v9.063c0 .59.476 1.07 1.066 1.07h12.266c.59 0 1.066-.48 1.066-1.07V7.47c0-.59-.476-1.07-1.066-1.07zm.265 10.133a.27.27 0 0 1-.265.27H5.867a.27.27 0 0 1-.265-.27V7.47a.27.27 0 0 1 .265-.27h12.266a.27.27 0 0 1 .265.27zm0 0M2.8 6.8c-.882 0-1.6.72-1.6 1.598C1.2 9.281 1.917 10 2.8 10a1.6 1.6 0 0 0 0-3.2zm0 2.4a.799.799 0 1 1 0-1.598.799.799 0 1 1 0 1.597zm0 0M21.2 6.8a1.6 1.6 0 1 0 .003 3.2 1.6 1.6 0 0 0-.004-3.2zm0 2.4a.799.799 0 1 1 0-1.598.799.799 0 1 1 0 1.597zm0 0M12.398 18.8a.398.398 0 1 1-.796 0 .398.398 0 1 1 .796 0zm0 0M14 18.8a.4.4 0 1 1-.8-.003.4.4 0 0 1 .8.004zm0 0M19.2 18.8a.4.4 0 1 1-.801-.003.4.4 0 0 1 .8.004zm0 0M21.602 11.602a.401.401 0 1 1-.802-.005.401.401 0 0 1 .802.005zm0 0M21.602 14c0 .223-.18.398-.403.398a.398.398 0 1 1 0-.796c.223 0 .403.175.403.398zm0 0M22.8 12.8a.401.401 0 1 1-.801-.004.401.401 0 0 1 .802.005zm0 0M20.398 12.8a.398.398 0 1 1-.796 0 .398.398 0 1 1 .796 0zm0 0M20.8 18.8a.401.401 0 1 1-.801-.004.401.401 0 0 1 .802.005zm0 0M10.8 18.8a.401.401 0 1 1-.801-.004.401.401 0 0 1 .802.005zm0 0M4 18.398h-.8a.401.401 0 0 0 0 .801H4c.223 0 .398-.18.398-.398A.398.398 0 0 0 4 18.398zm0 0M4 12.398h-.8v-.796a.401.401 0 1 0-.802 0v.796h-.796a.401.401 0 0 0 0 .8l.796.001V14c0 .223.18.398.403.398A.398.398 0 0 0 3.199 14v-.8H4c.223 0 .398-.18.398-.4A.398.398 0 0 0 4 12.399zm0 0M10.398 5.602h3.204a.401.401 0 0 0 0-.801h-3.204a.4.4 0 0 0 0 .8zm0 0"/>
</svg>
