<svg xmlns="http://www.w3.org/2000/svg" width="32" height="32" viewBox="0 0 24 24">
    <path d="M7.2 9.602c.1 0 .206-.04.284-.118l1.598-1.601a.4.4 0 0 0-.566-.567L6.918 8.918a.4.4 0 0 0 .281.684zm0 0M7.719 10.117l-.801.801a.4.4 0 0 0 .566.566l.797-.8a.4.4 0 0 0 0-.567.396.396 0 0 0-.562 0zm0 0M8.516 9.316a.419.419 0 0 0-.118.286A.402.402 0 0 0 8.8 10a.423.423 0 0 0 .286-.117.42.42 0 0 0 .113-.281.423.423 0 0 0-.113-.286.42.42 0 0 0-.57 0zm0 0M10.516 7.316l-1.2 1.2a.4.4 0 0 0 .567.566l1.199-1.2a.4.4 0 0 0-.566-.566zm0 0M3.2 12.398A1.6 1.6 0 0 0 1.601 14a1.6 1.6 0 0 0 1.597 1.602c.883 0 1.602-.72 1.602-1.602 0-.883-.719-1.602-1.602-1.602zm0 2.403a.802.802 0 0 1 0-1.602.802.802 0 0 1 0 1.602zm0 0M20.8 12.398c-.882 0-1.6.72-1.6 1.602 0 .883.718 1.602 1.6 1.602A1.6 1.6 0 0 0 22.399 14a1.6 1.6 0 0 0-1.597-1.602zm0 2.403a.802.802 0 0 1 0-1.602.802.802 0 0 1 0 1.602zm0 0"/>
    <path d="M22.809 17.293C24 15.805 24 13.211 24 12c0-1.559-.004-5.406-2.535-6.238-.008 0-.016-.004-.024-.008a3.388 3.388 0 0 0-.285-.074l-.054-.012c-.09-.02-.184-.031-.278-.043a3.453 3.453 0 0 0-.426-.023H3.602a4.15 4.15 0 0 0-.489.03c-.101.016-.203.032-.3.056a2.712 2.712 0 0 0-.758.285c-.008.004-.012.004-.016.007C.004 7.125 0 10.555 0 12c0 1.105 0 3.371.91 4.89l.02.036c.011.015.023.027.03.043.067.101.134.199.204.293.004.008.012.011.016.02a2.861 2.861 0 0 0 .28.308c.087.082.177.16.27.234.094.067.192.13.293.188.02.011.04.02.055.031.203.11.426.195.668.254.027.008.05.015.078.02.094.019.192.038.29.05l.097.012c.125.012.254.02.39.02h16.797c.125 0 .243-.004.356-.016a4.959 4.959 0 0 0 .34-.047 2.944 2.944 0 0 0 .664-.215h.004c.308-.14.574-.332.804-.562.008-.004.012-.012.02-.016.074-.078.148-.16.219-.246 0 0 .004 0 .004-.004zm.39-5.293c0 1.77-.183 3.086-.562 4h-2.07l-1.2 1.602h-.566V6.398h.566L20.567 8h2.07c.379.914.562 2.23.562 4zm-2.8-5.602c.113 0 .218.008.32.02l.09.012c.074.011.144.027.214.043.032.007.063.015.09.023.075.02.145.043.215.074.02.008.043.012.063.02.082.039.164.082.242.129.027.02.055.039.086.058.047.032.093.067.136.102.036.031.07.062.102.094.035.03.07.066.105.101.032.035.07.074.102.114.004.003.004.007.008.011h-1.203l-.602-.8h.031zm-18.56.786c.024-.032.056-.063.083-.094.039-.043.082-.086.125-.125l.086-.078c.05-.043.105-.082.16-.117.023-.016.043-.032.066-.047.079-.047.16-.09.243-.13a.416.416 0 0 0 .074-.027 1.78 1.78 0 0 1 .203-.07c.031-.008.058-.016.09-.023.074-.016.152-.032.226-.043.028-.004.047-.008.075-.008.093-.012.195-.02.296-.02L2.97 7.2h-1.14l.01-.015zm1.427 10.398l-.063-.012a3.735 3.735 0 0 1-.238-.043 2.302 2.302 0 0 1-.309-.102c-.015-.003-.031-.01-.043-.015a1.564 1.564 0 0 1-.265-.14h-.004c-.082-.051-.16-.11-.235-.176-.011-.008-.023-.024-.039-.035a2.212 2.212 0 0 1-.191-.192c-.008-.008-.016-.02-.024-.027-.007-.012-.02-.027-.027-.04h1.14l.598.798c-.101 0-.203-.008-.3-.016zm1.3.02L3.367 16H1.363c-.379-.914-.562-2.23-.562-4s.183-3.086.562-4h2.004l1.2-1.602h.632v11.204zm1.434 0V6.398h12v11.204zm14.367 0l.602-.801h1.203c-.008.012-.016.027-.027.039l-.032.035a2.599 2.599 0 0 1-.18.18c-.019.015-.038.035-.054.05-.063.051-.129.102-.195.145-.016.008-.028.02-.04.027-.085.051-.171.098-.265.137-.004.004-.008.004-.016.008a1.814 1.814 0 0 1-.258.086c-.023.008-.046.012-.074.02a2.11 2.11 0 0 1-.312.054c-.102.012-.207.02-.32.02zm0 0"/>
    <path d="M3.2 9.602c.222 0 .402-.18.402-.403v-.398a.401.401 0 0 0-.8 0l-.001.398c0 .223.18.403.398.403zm0 0M4 10.398h.398a.398.398 0 1 0 0-.796H4a.395.395 0 0 0-.398.398c0 .223.175.398.398.398zm0 0M2 10.398h.398a.398.398 0 1 0 0-.796H2a.395.395 0 0 0-.398.398c0 .223.175.398.398.398zm0 0M3.2 10.398a.401.401 0 0 0-.4.403v.398a.401.401 0 1 0 .802 0v-.398a.402.402 0 0 0-.403-.403zm0 0M20.398 8.8c0 .102.047.208.118.286a.415.415 0 0 0 .57 0 .438.438 0 0 0 .113-.285.423.423 0 0 0-.113-.285.42.42 0 0 0-.57 0 .426.426 0 0 0-.118.285zm0 0M21.086 11.484a.43.43 0 0 0 .113-.285.438.438 0 0 0-.113-.285.43.43 0 0 0-.57 0 .442.442 0 0 0-.118.285c0 .106.047.207.118.285.074.07.18.118.285.118a.423.423 0 0 0 .285-.118zm0 0M19.602 10.398a.413.413 0 0 0 .28-.113A.416.416 0 0 0 20 10a.416.416 0 0 0-.117-.285.416.416 0 0 0-.567 0A.416.416 0 0 0 19.2 10c0 .105.043.207.117.285.075.07.176.113.286.113zm0 0M22 10.398c.11 0 .207-.043.285-.113a.43.43 0 0 0 .113-.285.43.43 0 0 0-.113-.285.42.42 0 0 0-.57 0 .43.43 0 0 0-.113.285.43.43 0 0 0 .113.285c.074.07.176.113.285.113zm0 0"/>
</svg>
