<svg xmlns="http://www.w3.org/2000/svg" width="32" height="32" viewBox="0 0 24 24">
    <path d="M8.402 12.258h-.8v-.801a.4.4 0 0 0-.399-.398h-2a.398.398 0 0 0-.398.398v.8h-.801a.401.401 0 0 0-.402.4v2c0 .222.18.402.402.402h.8v.796c0 .223.176.403.4.403h2c.218 0 .398-.18.398-.403v-.796h.8c.22 0 .399-.18.399-.403v-2a.4.4 0 0 0-.399-.398zm-.402 2h-.797a.401.401 0 0 0-.402.398v.801H5.6v-.8a.398.398 0 0 0-.398-.4h-.8V13.06h.8c.223 0 .399-.18.399-.403v-.797H6.8v.797c0 .223.18.403.402.403H8zm0 0M16.797 12.059c0 .77.629 1.398 1.402 1.398.77 0 1.399-.629 1.399-1.398a1.4 1.4 0 0 0-2.801 0zm2 0c0 .332-.27.597-.598.597a.598.598 0 1 1 0-1.199c.328 0 .598.27.598.602zm0 0M18.2 14.656c-.774 0-1.403.63-1.403 1.403 0 .77.629 1.398 1.402 1.398.77 0 1.399-.629 1.399-1.398 0-.774-.63-1.403-1.399-1.403zm0 2a.601.601 0 0 1-.602-.597c0-.332.27-.602.601-.602a.6.6 0 0 1 0 1.2zm0 0M15.797 12.656c-.77 0-1.399.63-1.399 1.403 0 .77.63 1.398 1.399 1.398.773 0 1.402-.629 1.402-1.398 0-.774-.629-1.403-1.402-1.403zm0 2a.6.6 0 1 1 .005-1.2.6.6 0 0 1-.005 1.2zm0 0M10.8 8.262a.4.4 0 1 1-.8-.004.4.4 0 0 1 .8.004zm0 0M12.398 8.262a.398.398 0 1 1-.796 0 .398.398 0 1 1 .796 0zm0 0M12.398 14.258a.398.398 0 1 1-.796 0c0-.223.175-.399.398-.399.223 0 .398.176.398.399zm0 0M14 8.262a.401.401 0 1 1-.802-.005.401.401 0 0 1 .802.005zm0 0M20.598 12.656c-.774 0-1.403.63-1.403 1.403 0 .77.63 1.398 1.403 1.398.77 0 1.398-.629 1.398-1.398 0-.774-.629-1.403-1.398-1.403zm0 2a.601.601 0 0 1-.602-.597.601.601 0 0 1 1.2 0 .6.6 0 0 1-.598.597zm0 0"/>
    <path d="M23.059 12.14c-.223-1.308-.434-2.546-.59-3.683-.387-2.762-1.215-4.484-2.473-5.125v-.715c0-.637-.516-1.156-1.152-1.156h-.895c-.633 0-1.152.52-1.152 1.156v1.25c-2.297 1.235-3.938 1.078-3.95 1.078L11.2 4.941l-.047.004c-.015 0-1.632.168-3.949-1.078v-1.25c0-.637-.52-1.156-1.152-1.156h-.895c-.636 0-1.152.52-1.152 1.156v.715c-1.258.64-2.086 2.363-2.473 5.125-.156 1.137-.367 2.375-.59 3.684-.98 5.765-1.476 9.328-.062 10.21.2.126.422.188.664.188.477 0 1.047-.242 1.719-.727.558-.402 1.082-.933 1.605-1.62 1.637-2.16 3.871-3.255 6.64-3.255h.852c2.829-.042 5.11 1.06 6.774 3.254.523.688 1.047 1.22 1.605 1.622 1.016.73 1.793.906 2.383.539 1.414-.883.918-4.446-.062-10.211zm-5.461-9.523c0-.195.16-.355.351-.355h.895c.195 0 .351.16.351.355v.465h-.023a2.402 2.402 0 0 0-.555-.004c-.012 0-.027.004-.039.004-.082.012-.164.023-.238.04-.008.003-.016.003-.024.007a1.26 1.26 0 0 0-.183.047l-.047.011c-.055.02-.106.036-.148.055-.028.008-.047.016-.07.024l-.052.023a1.516 1.516 0 0 0-.183.09l-.016.008c-.004.004-.012.008-.02.011zm-12.793 0c0-.195.156-.355.351-.355h.895c.191 0 .351.16.351.355v.781l-.02-.011-.015-.008-.023-.016c-.008 0-.012-.004-.02-.008a1.397 1.397 0 0 0-.176-.082c-.003-.003-.007-.003-.011-.007-.04-.016-.078-.032-.125-.047L5.98 3.21a1.627 1.627 0 0 0-.164-.05s0-.005-.003-.005a8.24 8.24 0 0 0-.204-.047h-.015a1.644 1.644 0 0 0-.207-.03c-.008 0-.02-.005-.028-.005a2.47 2.47 0 0 0-.535.008h-.02zm17.89 19.055c-.27.168-.797-.012-1.488-.508-.492-.355-.965-.832-1.437-1.457-2.274-3-5.286-3.598-7.422-3.57h-.696c-2.136-.028-5.144.57-7.422 3.57-.472.625-.945 1.102-1.437 1.457-.691.496-1.219.676-1.488.508-1.063-.66-.203-5.711.425-9.395.223-1.316.434-2.562.594-3.71.434-3.126 1.364-4.192 2.067-4.536.054-.027.113-.05.168-.07.078-.031.16-.05.238-.066.008-.004.016-.004.023-.004.078-.016.157-.024.23-.028h.005c.48-.015.855.176.902.203.14.086.273.168.406.247l.227.132c.004.004.012.004.015.008l.598.336v-.02c2.203 1.086 3.785.997 4.016.973h1.558c.235.024 1.82.113 4.02-.972v.02l.582-.33a12.942 12.942 0 0 0 .664-.395v-.002c.047-.024.398-.2.855-.196h.063c.047 0 .102.008.152.016.043.008.082.012.13.023a.87.87 0 0 1 .124.035c.078.024.153.047.23.082.708.344 1.641 1.41 2.079 4.543.156 1.149.37 2.395.594 3.711.628 3.684 1.488 8.735.425 9.395zm0 0"/>
    <path d="M6.004 9.86a2.401 2.401 0 0 0 2.398-2.4 2.401 2.401 0 0 0-4.8 0 2.402 2.402 0 0 0 2.402 2.4zm0-4a1.6 1.6 0 1 1-1.602 1.602c0-.884.72-1.603 1.602-1.603zm0 0M17.996 9.86a2.402 2.402 0 0 0 2.402-2.4 2.401 2.401 0 0 0-4.8 0 2.401 2.401 0 0 0 2.398 2.4zm0-4c.883 0 1.602.718 1.602 1.6a1.6 1.6 0 0 1-3.2 0c0-.882.72-1.6 1.598-1.6zm0 0"/>
</svg>
