<svg xmlns="http://www.w3.org/2000/svg" width="32" height="32" viewBox="0 0 24 24">
    <path d="M16.8 7.203a1.6 1.6 0 1 0-1.6 1.602c.882 0 1.6-.72 1.6-1.602zm-1.6.8a.802.802 0 0 1 0-1.6.802.802 0 0 1 0 1.6zm0 0"/>
    <path d="M19.2 9.605a1.6 1.6 0 0 0-1.598-1.601c-.883 0-1.602.719-1.602 1.601a1.6 1.6 0 0 0 3.2 0zm-1.598.801a.802.802 0 0 1 0-1.601.802.802 0 0 1 0 1.601zm0 0M8.133 7.203h-.535v-.531a.668.668 0 0 0-.668-.668H5.867a.67.67 0 0 0-.668.668v.531h-.531c-.371 0-.668.3-.668.668v1.066c0 .368.297.668.668.668h.531v.532c0 .367.301.668.668.668H6.93c.37 0 .668-.301.668-.668v-.532h.535a.67.67 0 0 0 .668-.668V7.872a.67.67 0 0 0-.668-.668zM8 8.805h-.531c-.371 0-.668.3-.668.668v.53H6v-.53a.67.67 0 0 0-.668-.668h-.531v-.801h.531A.67.67 0 0 0 6 7.336v-.531h.8v.53c0 .368.298.669.669.669H8zm0 0"/>
    <path d="M23.594 8.313l-.02-.067a3.176 3.176 0 0 0-.058-.371c-.18-.89-.649-1.73-1.36-2.434-.847-.84-2.398-1.726-4.277-1.82l-.336-.836a2.37 2.37 0 0 0-1.617-1.414l-.414-.101c-2.457-.614-4.758-.614-7.024 0l-.414.101a2.362 2.362 0 0 0-1.617 1.414l-.336.836c-1.879.094-3.43.98-4.277 1.82-.707.704-1.18 1.543-1.36 2.434-.023.105-.039.215-.054.316l-.024.121c-.015.079-1.254 8.36.668 13.07.168.403.418.75.73 1.005.348.281.716.422 1.087.422.449 0 .898-.207 1.312-.618 1.7-1.671 2.39-7.918 2.418-8.187l.04-.399c.175.192.32.387.437.567.277.43.46.96.55 1.578.508 3.531 1.825 5.625 2.84 6.758.387.433.938.683 1.512.683.574 0 1.125-.25 1.512-.683 1.015-1.133 2.332-3.227 2.84-6.758.09-.617.273-1.148.55-1.578a3.8 3.8 0 0 1 .438-.563l.039.399c.027.265.719 6.508 2.418 8.183.414.41.863.618 1.312.618.368 0 .739-.141 1.086-.422.313-.254.563-.602.727-1.004 1.926-4.711.687-12.992.672-13.07zM7.199 3.082a1.558 1.558 0 0 1 1.07-.934l.418-.105c2.141-.578 4.31-.578 6.633.004l.41.101c.485.122.887.47 1.07.934l.208.523H6.988zm-1.37 10.84c-.188 1.726-.946 6.476-2.188 7.703-.465.457-.887.5-1.332.14a1.728 1.728 0 0 1-.493-.687C.598 18.094.72 13.297.95 10.535a3.703 3.703 0 0 0 .555.656c.094.09.187.176.281.25.012.012.024.02.031.028.094.074.192.144.282.207.574.39 1.28.636 2.097.73.184.02.356.055.52.09l.168.047c.105.031.207.059.304.094.063.023.125.05.188.078.082.035.16.066.234.105.067.035.133.07.2.11l.105.066zm11.413-1.32v.011c-.445.36-.781.762-1.015 1.13-.336.523-.559 1.163-.665 1.89-.48 3.336-1.703 5.289-2.644 6.344a1.25 1.25 0 0 1-1.836 0c-.941-1.055-2.164-3.008-2.645-6.344-.105-.727-.328-1.367-.664-1.89a4.753 4.753 0 0 0-1.015-1.13v-.011l-.176-.125a4.522 4.522 0 0 0-1.066-.575c-.051-.02-.106-.03-.157-.047-.14-.046-.277-.093-.43-.128a4.822 4.822 0 0 0-.644-.114c-.687-.078-1.27-.281-1.734-.597a4.369 4.369 0 0 1-.36-.278l-.125-.117c-.058-.059-.12-.117-.175-.176-.047-.05-.086-.105-.13-.16-.038-.05-.081-.101-.116-.152-.04-.063-.079-.125-.114-.188-.027-.047-.05-.093-.078-.144a4.876 4.876 0 0 1-.09-.211 1.399 1.399 0 0 1-.043-.137c-.023-.078-.047-.152-.062-.234a1.196 1.196 0 0 1-.02-.125 1.916 1.916 0 0 1-.031-.262c-.004-.035 0-.07 0-.11 0-.097-.004-.195.008-.292.008-.13.023-.262.05-.395.153-.734.548-1.433 1.141-2.027.781-.774 2.254-1.606 4.031-1.606h11.125c1.778 0 3.25.832 4.032 1.606.593.594.988 1.293 1.14 2.027.028.133.043.266.051.395.012.097.008.195.008.293 0 .039.004.074 0 .109-.004.09-.016.176-.031.262a1.196 1.196 0 0 1-.02.125c-.015.082-.039.156-.062.234a1.399 1.399 0 0 1-.043.137c-.028.07-.059.14-.09.21-.027.052-.05.098-.078.145-.035.063-.074.125-.114.188-.039.05-.078.101-.117.156-.043.05-.082.106-.129.156-.054.059-.117.117-.18.176-.042.04-.077.082-.12.117-.114.098-.23.192-.36.278-.058.039-.12.07-.18.105-.417.246-.914.406-1.488.48l-.066.012h-.012c-.219.028-.43.063-.633.114a4.683 4.683 0 0 0-.433.128c-.051.02-.102.032-.153.047-.41.157-.765.352-1.066.575zm4.942 8.476a1.728 1.728 0 0 1-.493.688c-.445.359-.867.316-1.332-.141-1.242-1.227-2-5.977-2.183-7.7l-.09-.929.105-.066c.067-.04.133-.075.2-.11.074-.039.152-.07.23-.105.067-.027.129-.055.192-.078.097-.035.199-.063.304-.094a4.93 4.93 0 0 1 .688-.137c.816-.09 1.523-.336 2.097-.73.09-.063.184-.133.278-.203.011-.012.023-.02.035-.032a3.96 3.96 0 0 0 .281-.246l.012-.011c.195-.192.383-.403.543-.645.23 2.758.351 7.555-.867 10.54zm0 0"/>
    <path d="M12 12.406a1.995 1.995 0 0 0-1.988 1.88c-.266.394-.41.847-.41 1.32a2.399 2.399 0 0 0 4.796 0c0-.473-.144-.926-.41-1.32A1.995 1.995 0 0 0 12 12.405zm0 .797a1.2 1.2 0 0 1 1.2 1.192v.02a1.203 1.203 0 0 1-1.2 1.19 1.203 1.203 0 0 1-1.2-1.19v-.02a1.2 1.2 0 0 1 1.2-1.192zm1.602 2.402c0 .883-.72 1.602-1.602 1.602a1.604 1.604 0 0 1-1.602-1.602v-.003a1.963 1.963 0 0 0 .235.253 1.87 1.87 0 0 0 .547.372c.027.007.05.02.074.03.101.044.207.075.316.098.024.008.047.008.067.012.12.024.238.04.363.04s.242-.016.363-.04c.02-.004.043-.004.067-.012.11-.023.215-.054.316-.097.024-.012.047-.024.074-.031.098-.047.196-.098.285-.157l.047-.035a1.87 1.87 0 0 0 .215-.18 1.963 1.963 0 0 0 .234-.254v.004zm0 0M20 6.004c0 .223-.18.398-.398.398a.398.398 0 1 1 0-.797c.218 0 .398.176.398.399zm0 0M20 7.605a.4.4 0 1 1-.8-.003.4.4 0 0 1 .8.003zm0 0M19.2 6.805a.398.398 0 1 1-.798 0 .398.398 0 1 1 .797 0zm0 0M20.8 6.805A.4.4 0 1 1 20 6.8a.4.4 0 0 1 .8.004zm0 0"/>
</svg>
