<svg xmlns="http://www.w3.org/2000/svg" width="32" height="32" viewBox="0 0 24 24">
    <path d="M 18 10.996094 L 12.609375 10.996094 L 12.609375 6.316406 C 12.609375 5.53125 13.25 4.894531 14.035156 4.894531 C 14.820312 4.894531 15.457031 5.53125 15.457031 6.316406 L 15.457031 7.738281 C 15.457031 8.863281 16.371094 9.773438 17.492188 9.773438 C 18.613281 9.773438 19.527344 8.863281 19.527344 7.738281 L 19.527344 1.230469 C 19.527344 1.007812 19.34375 0.824219 19.117188 0.824219 C 18.894531 0.824219 18.710938 1.007812 18.710938 1.230469 L 18.710938 7.738281 C 18.710938 8.414062 18.164062 8.960938 17.492188 8.960938 C 16.820312 8.960938 16.269531 8.414062 16.269531 7.738281 L 16.269531 6.316406 C 16.269531 5.082031 15.269531 4.078125 14.035156 4.078125 C 12.800781 4.078125 11.796875 5.082031 11.796875 6.316406 L 11.796875 10.996094 L 6.089844 10.996094 C 2.730469 10.996094 0 13.726562 0 17.085938 C 0 19.992188 2.117188 23.132812 5.273438 23.175781 C 5.300781 23.175781 5.328125 23.175781 5.359375 23.175781 C 6.203125 23.175781 7.667969 23.03125 9.175781 22.621094 C 10.949219 22.132812 13.144531 22.132812 14.914062 22.617188 C 16.519531 23.0625 18.234375 23.179688 18.816406 23.175781 C 21.308594 23.132812 24 20.792969 24 17.085938 C 24 13.726562 21.308594 10.996094 18 10.996094 Z M 18.804688 22.359375 C 18.285156 22.371094 16.636719 22.25 15.128906 21.835938 C 13.230469 21.3125 10.867188 21.3125 8.960938 21.832031 C 7.484375 22.238281 6.0625 22.371094 5.285156 22.359375 C 3.125 22.332031 0.8125 20.207031 0.8125 17.085938 C 0.8125 14.175781 3.179688 11.808594 6.089844 11.808594 L 18 11.808594 C 20.859375 11.808594 23.1875 14.175781 23.1875 17.085938 C 23.1875 19.597656 21.425781 22.316406 18.804688 22.359375 Z M 18.804688 22.359375"/>
    <path d="M13.679688 13.027344C13.679688 12.804688 13.5 12.621094 13.273438 12.621094L11.390625 12.621094C11.164062 12.621094 10.984375 12.804688 10.984375 13.027344 10.984375 13.253906 11.164062 13.433594 11.390625 13.433594L13.273438 13.433594C13.5 13.433594 13.679688 13.253906 13.679688 13.027344zM15.050781 15.46875C14.152344 15.46875 13.421875 16.199219 13.421875 17.097656 13.421875 17.992188 14.152344 18.722656 15.050781 18.722656 15.949219 18.722656 16.679688 17.992188 16.679688 17.097656 16.679688 16.199219 15.949219 15.46875 15.050781 15.46875zM15.050781 17.910156C14.601562 17.910156 14.238281 17.542969 14.238281 17.097656 14.238281 16.648438 14.601562 16.28125 15.050781 16.28125 15.5 16.28125 15.863281 16.648438 15.863281 17.097656 15.863281 17.542969 15.5 17.910156 15.050781 17.910156zM20.746094 15.46875C19.847656 15.46875 19.117188 16.199219 19.117188 17.097656 19.117188 17.992188 19.847656 18.722656 20.746094 18.722656 21.644531 18.722656 22.371094 17.992188 22.371094 17.097656 22.371094 16.199219 21.644531 15.46875 20.746094 15.46875zM20.746094 17.910156C20.296875 17.910156 19.933594 17.542969 19.933594 17.097656 19.933594 16.648438 20.296875 16.28125 20.746094 16.28125 21.195312 16.28125 21.558594 16.648438 21.558594 17.097656 21.558594 17.542969 21.195312 17.910156 20.746094 17.910156zM17.898438 18.316406C17 18.316406 16.269531 19.046875 16.269531 19.945312 16.269531 20.839844 17 21.570312 17.898438 21.570312 18.796875 21.570312 19.527344 20.839844 19.527344 19.945312 19.527344 19.046875 18.796875 18.316406 17.898438 18.316406zM17.898438 20.757812C17.449219 20.757812 17.085938 20.390625 17.085938 19.945312 17.085938 19.496094 17.449219 19.128906 17.898438 19.128906 18.347656 19.128906 18.710938 19.496094 18.710938 19.945312 18.710938 20.390625 18.347656 20.757812 17.898438 20.757812zM17.898438 15.875C18.796875 15.875 19.527344 15.144531 19.527344 14.25 19.527344 13.351562 18.796875 12.621094 17.898438 12.621094 17 12.621094 16.269531 13.351562 16.269531 14.25 16.269531 15.144531 17 15.875 17.898438 15.875zM17.898438 13.433594C18.347656 13.433594 18.710938 13.800781 18.710938 14.25 18.710938 14.699219 18.347656 15.0625 17.898438 15.0625 17.449219 15.0625 17.085938 14.699219 17.085938 14.25 17.085938 13.800781 17.449219 13.433594 17.898438 13.433594zM9.355469 15.46875L8.136719 15.46875 8.136719 14.25C8.136719 14.023438 7.953125 13.84375 7.730469 13.84375L5.289062 13.84375C5.0625 13.84375 4.882812 14.023438 4.882812 14.25L4.882812 15.46875 3.660156 15.46875C3.4375 15.46875 3.253906 15.652344 3.253906 15.875L3.253906 18.316406C3.253906 18.542969 3.4375 18.722656 3.660156 18.722656L4.882812 18.722656 4.882812 19.945312C4.882812 20.167969 5.0625 20.351562 5.289062 20.351562L7.730469 20.351562C7.953125 20.351562 8.136719 20.167969 8.136719 19.945312L8.136719 18.722656 9.355469 18.722656C9.582031 18.722656 9.761719 18.542969 9.761719 18.316406L9.761719 15.875C9.761719 15.652344 9.582031 15.46875 9.355469 15.46875zM8.949219 17.910156L7.730469 17.910156C7.503906 17.910156 7.320312 18.089844 7.320312 18.316406L7.320312 19.535156 5.695312 19.535156 5.695312 18.316406C5.695312 18.089844 5.511719 17.910156 5.289062 17.910156L4.066406 17.910156 4.066406 16.28125 5.289062 16.28125C5.511719 16.28125 5.695312 16.101562 5.695312 15.875L5.695312 14.65625 7.320312 14.65625 7.320312 15.875C7.320312 16.101562 7.503906 16.28125 7.730469 16.28125L8.949219 16.28125zM8.949219 17.910156"/>
</svg>
