<svg xmlns="http://www.w3.org/2000/svg" width="32" height="32" viewBox="0 0 24 24">
    <path d="M 23.578125 6.527344 L 23.578125 5.367188 C 23.578125 4.613281 22.964844 4 22.210938 4 L 19.894531 4 C 19.140625 4 18.527344 4.613281 18.527344 5.367188 L 18.527344 6.527344 L 18.105469 6.527344 L 18.105469 12 L 19.367188 12 L 19.367188 13.261719 L 20.632812 13.261719 L 20.632812 14.378906 C 20.632812 17.28125 19.128906 20.199219 15.875 21.625 C 17.238281 20.390625 18.105469 18.613281 18.105469 16.632812 C 18.105469 12.917969 15.082031 9.894531 11.367188 9.894531 C 7.652344 9.894531 4.632812 12.917969 4.632812 16.632812 C 4.632812 18 5.046875 19.277344 5.75 20.339844 C 4.285156 18.925781 3.367188 16.945312 3.367188 14.753906 L 3.367188 9.894531 L 4.632812 9.894531 L 4.632812 8.632812 L 5.894531 8.632812 L 5.894531 3.15625 L 5.472656 3.15625 L 5.472656 2 C 5.472656 1.246094 4.859375 0.632812 4.105469 0.632812 L 1.789062 0.632812 C 1.035156 0.632812 0.421875 1.246094 0.421875 2 L 0.421875 3.15625 L 0 3.15625 L 0 8.632812 L 1.261719 8.632812 L 1.261719 9.894531 L 2.527344 9.894531 L 2.527344 15.164062 L 2.535156 15.164062 C 2.75 19.722656 6.527344 23.367188 11.140625 23.367188 C 11.195312 23.367188 11.25 23.367188 11.304688 23.363281 C 11.328125 23.363281 11.347656 23.367188 11.367188 23.367188 C 11.414062 23.367188 11.460938 23.363281 11.503906 23.359375 C 17.394531 23.214844 21.472656 19.566406 21.472656 14.378906 L 21.472656 13.261719 L 22.738281 13.261719 L 22.738281 12 L 24 12 L 24 6.527344 Z M 1.261719 2 C 1.261719 1.710938 1.5 1.472656 1.789062 1.472656 L 4.105469 1.472656 C 4.394531 1.472656 4.632812 1.710938 4.632812 2 L 4.632812 3.15625 L 1.261719 3.15625 Z M 0.84375 7.789062 L 0.84375 4 L 5.050781 4 L 5.050781 7.789062 Z M 2.105469 9.050781 L 2.105469 8.632812 L 3.789062 8.632812 L 3.789062 9.050781 Z M 5.472656 16.632812 C 5.472656 13.382812 8.117188 10.738281 11.367188 10.738281 C 14.617188 10.738281 17.261719 13.382812 17.261719 16.632812 C 17.261719 17.53125 17.054688 18.382812 16.691406 19.144531 C 16.785156 18.742188 16.84375 18.324219 16.84375 17.894531 C 16.84375 14.875 14.386719 12.421875 11.367188 12.421875 C 8.351562 12.421875 5.894531 14.875 5.894531 17.894531 C 5.894531 18.324219 5.949219 18.742188 6.042969 19.144531 C 5.683594 18.382812 5.472656 17.53125 5.472656 16.632812 Z M 11.511719 22.519531 C 11.445312 22.519531 11.375 22.523438 11.304688 22.523438 C 8.78125 22.488281 6.738281 20.425781 6.738281 17.894531 C 6.738281 15.339844 8.816406 13.261719 11.367188 13.261719 C 13.921875 13.261719 16 15.339844 16 17.894531 C 16 20.398438 14 22.441406 11.511719 22.519531 Z M 19.367188 5.367188 C 19.367188 5.078125 19.605469 4.84375 19.894531 4.84375 L 22.210938 4.84375 C 22.5 4.84375 22.738281 5.078125 22.738281 5.367188 L 22.738281 6.527344 L 19.367188 6.527344 Z M 21.894531 12.421875 L 20.210938 12.421875 L 20.210938 12 L 21.894531 12 Z M 23.15625 11.15625 L 18.949219 11.15625 L 18.949219 7.367188 L 23.15625 7.367188 Z M 23.15625 11.15625"/>
</svg>
