<svg xmlns="http://www.w3.org/2000/svg" width="32" height="32" viewBox="0 0 24 24">
    <path d="M3.886719 6.152344C3.992188 6.152344 4.09375 6.113281 4.175781 6.03125L5.796875 4.410156C5.957031 4.25 5.957031 3.996094 5.796875 3.835938 5.636719 3.679688 5.382812 3.679688 5.222656 3.835938L3.601562 5.460938C3.441406 5.617188 3.441406 5.875 3.601562 6.03125 3.679688 6.113281 3.785156 6.152344 3.886719 6.152344zM3.886719 8.179688C3.992188 8.179688 4.09375 8.140625 4.175781 8.0625L4.984375 7.25C5.144531 7.089844 5.144531 6.835938 4.984375 6.675781 4.828125 6.515625 4.570312 6.515625 4.410156 6.675781L3.601562 7.488281C3.441406 7.644531 3.441406 7.902344 3.601562 8.0625 3.679688 8.140625 3.785156 8.179688 3.886719 8.179688zM5.222656 5.863281C5.148438 5.941406 5.105469 6.046875 5.105469 6.152344 5.105469 6.257812 5.148438 6.363281 5.222656 6.441406 5.300781 6.511719 5.40625 6.558594 5.511719 6.558594 5.617188 6.558594 5.722656 6.511719 5.796875 6.441406 5.871094 6.363281 5.914062 6.257812 5.914062 6.152344 5.914062 6.046875 5.871094 5.941406 5.796875 5.863281 5.648438 5.714844 5.371094 5.714844 5.222656 5.863281zM6.035156 5.628906C6.113281 5.707031 6.21875 5.746094 6.320312 5.746094 6.425781 5.746094 6.527344 5.707031 6.609375 5.628906L7.824219 4.410156C7.984375 4.25 7.984375 3.996094 7.824219 3.835938 7.667969 3.679688 7.410156 3.679688 7.25 3.835938L6.035156 5.054688C5.875 5.210938 5.875 5.46875 6.035156 5.628906zM7.25 5.863281L3.601562 9.515625C3.441406 9.675781 3.441406 9.929688 3.601562 10.089844 3.679688 10.167969 3.785156 10.207031 3.886719 10.207031 3.992188 10.207031 4.09375 10.167969 4.175781 10.089844L7.824219 6.4375C7.984375 6.28125 7.984375 6.023438 7.824219 5.863281 7.667969 5.707031 7.410156 5.707031 7.25 5.863281zM8.0625 5.050781C7.988281 5.128906 7.945312 5.234375 7.945312 5.339844 7.945312 5.445312 7.988281 5.550781 8.0625 5.628906 8.136719 5.703125 8.238281 5.746094 8.347656 5.746094 8.453125 5.746094 8.558594 5.703125 8.636719 5.628906 8.710938 5.550781 8.753906 5.445312 8.753906 5.339844 8.753906 5.234375 8.710938 5.128906 8.636719 5.050781 8.488281 4.902344 8.214844 4.902344 8.0625 5.050781zM9.28125 3.835938L8.875 4.242188C8.714844 4.402344 8.714844 4.65625 8.875 4.816406 8.953125 4.894531 9.058594 4.933594 9.160156 4.933594 9.265625 4.933594 9.367188 4.894531 9.449219 4.816406L9.851562 4.410156C10.011719 4.25 10.011719 3.996094 9.851562 3.835938 9.695312 3.679688 9.4375 3.679688 9.28125 3.835938zM9.28125 3.835938"/>
    <path d="M 22.460938 0.640625 C 19.039062 -0.214844 4.960938 -0.214844 1.539062 0.640625 C 0.773438 0.832031 0.238281 1.519531 0.238281 2.308594 L 0.238281 21.605469 C 0.238281 22.925781 1.3125 24 2.632812 24 L 21.367188 24 C 22.6875 24 23.761719 22.925781 23.761719 21.605469 L 23.761719 2.308594 C 23.761719 1.519531 23.226562 0.832031 22.460938 0.640625 Z M 22.953125 21.605469 C 22.953125 22.476562 22.242188 23.1875 21.367188 23.1875 L 2.632812 23.1875 C 1.757812 23.1875 1.046875 22.476562 1.046875 21.605469 L 1.046875 2.308594 C 1.046875 1.894531 1.332031 1.53125 1.734375 1.429688 C 3.367188 1.019531 7.683594 0.816406 12 0.816406 C 16.316406 0.816406 20.632812 1.019531 22.261719 1.429688 C 22.667969 1.53125 22.953125 1.894531 22.953125 2.308594 Z M 22.953125 21.605469"/>
    <path d="M4.496094 17.507812C3.042969 17.507812 1.859375 18.691406 1.859375 20.144531 1.859375 21.601562 3.042969 22.78125 4.496094 22.78125 5.949219 22.78125 7.132812 21.601562 7.132812 20.144531 7.132812 18.691406 5.949219 17.507812 4.496094 17.507812zM6.191406 20.808594C6.121094 20.738281 6.023438 20.695312 5.914062 20.695312 5.691406 20.695312 5.507812 20.878906 5.507812 21.101562 5.507812 21.265625 5.605469 21.40625 5.746094 21.46875 5.652344 21.554688 5.550781 21.632812 5.441406 21.699219 5.367188 21.585938 5.246094 21.507812 5.105469 21.507812 4.878906 21.507812 4.699219 21.6875 4.699219 21.914062 4.699219 21.925781 4.703125 21.9375 4.707031 21.949219 4.636719 21.957031 4.566406 21.972656 4.496094 21.972656 4.277344 21.972656 4.070312 21.925781 3.875 21.855469 3.847656 21.660156 3.683594 21.507812 3.480469 21.507812 3.425781 21.507812 3.375 21.519531 3.328125 21.539062 3.222656 21.449219 3.128906 21.351562 3.046875 21.246094 3.0625 21.199219 3.074219 21.152344 3.074219 21.101562 3.074219 20.914062 2.945312 20.761719 2.769531 20.714844 2.710938 20.535156 2.667969 20.347656 2.667969 20.144531 2.667969 20.054688 2.683594 19.96875 2.695312 19.878906 2.90625 19.863281 3.074219 19.695312 3.074219 19.480469 3.074219 19.363281 3.027344 19.261719 2.949219 19.1875 3.011719 19.085938 3.082031 18.992188 3.164062 18.90625 3.234375 19.003906 3.347656 19.074219 3.480469 19.074219 3.703125 19.074219 3.886719 18.890625 3.886719 18.667969 3.886719 18.589844 3.855469 18.515625 3.816406 18.453125 4.027344 18.371094 4.253906 18.320312 4.496094 18.320312 4.617188 18.320312 4.738281 18.332031 4.851562 18.355469 4.761719 18.429688 4.699219 18.539062 4.699219 18.667969 4.699219 18.890625 4.878906 19.074219 5.101562 19.074219 5.328125 19.074219 5.507812 18.890625 5.507812 18.667969 5.507812 18.652344 5.503906 18.640625 5.5 18.625 5.6875 18.746094 5.84375 18.90625 5.976562 19.085938 5.953125 19.082031 5.9375 19.074219 5.914062 19.074219 5.691406 19.074219 5.507812 19.253906 5.507812 19.480469 5.507812 19.703125 5.691406 19.882812 5.914062 19.882812 6.0625 19.882812 6.183594 19.804688 6.253906 19.6875 6.292969 19.835938 6.320312 19.988281 6.320312 20.144531 6.320312 20.378906 6.273438 20.601562 6.191406 20.808594zM19.503906 17.507812C18.050781 17.507812 16.867188 18.691406 16.867188 20.144531 16.867188 21.601562 18.050781 22.78125 19.503906 22.78125 20.957031 22.78125 22.140625 21.601562 22.140625 20.144531 22.140625 18.691406 20.957031 17.507812 19.503906 17.507812zM21.230469 20.714844C21.054688 20.761719 20.925781 20.914062 20.925781 21.101562 20.925781 21.152344 20.9375 21.199219 20.953125 21.242188 20.871094 21.351562 20.777344 21.449219 20.671875 21.539062 20.625 21.519531 20.574219 21.507812 20.519531 21.507812 20.316406 21.507812 20.152344 21.660156 20.125 21.855469 19.929688 21.925781 19.722656 21.972656 19.503906 21.972656 19.433594 21.972656 19.363281 21.957031 19.292969 21.949219 19.296875 21.9375 19.300781 21.925781 19.300781 21.914062 19.300781 21.6875 19.121094 21.507812 18.894531 21.507812 18.75 21.507812 18.632812 21.585938 18.558594 21.699219 18.449219 21.632812 18.347656 21.554688 18.253906 21.46875 18.390625 21.402344 18.488281 21.265625 18.488281 21.101562 18.488281 20.878906 18.308594 20.695312 18.085938 20.695312 17.976562 20.695312 17.878906 20.738281 17.808594 20.808594 17.726562 20.601562 17.679688 20.378906 17.679688 20.144531 17.679688 19.984375 17.707031 19.835938 17.746094 19.6875 17.816406 19.800781 17.9375 19.882812 18.085938 19.882812 18.308594 19.882812 18.488281 19.703125 18.488281 19.476562 18.488281 19.253906 18.308594 19.074219 18.085938 19.074219 18.0625 19.074219 18.046875 19.082031 18.023438 19.085938 18.15625 18.90625 18.3125 18.746094 18.5 18.625 18.496094 18.640625 18.492188 18.652344 18.492188 18.667969 18.492188 18.890625 18.671875 19.074219 18.894531 19.074219 19.121094 19.074219 19.300781 18.890625 19.300781 18.667969 19.300781 18.539062 19.238281 18.429688 19.148438 18.355469 19.261719 18.332031 19.382812 18.320312 19.503906 18.320312 19.746094 18.320312 19.972656 18.371094 20.183594 18.453125 20.140625 18.515625 20.113281 18.585938 20.113281 18.667969 20.113281 18.890625 20.292969 19.074219 20.519531 19.074219 20.652344 19.074219 20.761719 19.003906 20.835938 18.90625 20.917969 18.992188 20.988281 19.085938 21.050781 19.1875 20.972656 19.261719 20.925781 19.363281 20.925781 19.480469 20.925781 19.691406 21.09375 19.863281 21.300781 19.878906 21.316406 19.96875 21.328125 20.054688 21.328125 20.144531 21.328125 20.347656 21.289062 20.535156 21.230469 20.714844zM21.296875 2.09375L2.703125 2.09375C2.238281 2.09375 1.859375 2.472656 1.859375 2.9375L1.859375 15.886719C1.859375 16.351562 2.238281 16.730469 2.703125 16.730469L21.296875 16.730469C21.761719 16.730469 22.140625 16.351562 22.140625 15.886719L22.140625 2.9375C22.140625 2.472656 21.761719 2.09375 21.296875 2.09375zM21.328125 15.886719C21.328125 15.902344 21.316406 15.917969 21.296875 15.917969L2.703125 15.917969C2.683594 15.917969 2.671875 15.902344 2.671875 15.886719L2.671875 2.9375C2.671875 2.921875 2.683594 2.90625 2.703125 2.90625L21.296875 2.90625C21.316406 2.90625 21.328125 2.921875 21.328125 2.9375zM15.246094 20.347656L8.753906 20.347656C8.53125 20.347656 8.347656 20.53125 8.347656 20.753906 8.347656 20.976562 8.53125 21.160156 8.753906 21.160156L15.246094 21.160156C15.46875 21.160156 15.652344 20.976562 15.652344 20.753906 15.652344 20.53125 15.46875 20.347656 15.246094 20.347656zM12.8125 19.132812C13.035156 19.132812 13.21875 18.949219 13.21875 18.726562 13.21875 18.503906 13.035156 18.320312 12.8125 18.320312L10.78125 18.320312C10.558594 18.320312 10.378906 18.503906 10.378906 18.726562 10.378906 18.949219 10.558594 19.132812 10.78125 19.132812zM12.8125 19.132812"/>
    <path d="M4.699219 19.480469C4.699219 19.703125 4.515625 19.886719 4.292969 19.886719 4.070312 19.886719 3.886719 19.703125 3.886719 19.480469 3.886719 19.253906 4.070312 19.074219 4.292969 19.074219 4.515625 19.074219 4.699219 19.253906 4.699219 19.480469zM5.511719 20.289062C5.511719 20.515625 5.328125 20.695312 5.105469 20.695312 4.878906 20.695312 4.699219 20.515625 4.699219 20.289062 4.699219 20.066406 4.878906 19.886719 5.105469 19.886719 5.328125 19.886719 5.511719 20.066406 5.511719 20.289062zM3.886719 20.289062C3.886719 20.515625 3.707031 20.695312 3.480469 20.695312 3.257812 20.695312 3.074219 20.515625 3.074219 20.289062 3.074219 20.066406 3.257812 19.886719 3.480469 19.886719 3.707031 19.886719 3.886719 20.066406 3.886719 20.289062zM4.699219 21.101562C4.699219 21.324219 4.515625 21.507812 4.292969 21.507812 4.070312 21.507812 3.886719 21.324219 3.886719 21.101562 3.886719 20.878906 4.070312 20.695312 4.292969 20.695312 4.515625 20.695312 4.699219 20.878906 4.699219 21.101562zM20.113281 19.480469C20.113281 19.703125 19.929688 19.886719 19.707031 19.886719 19.484375 19.886719 19.300781 19.703125 19.300781 19.480469 19.300781 19.253906 19.484375 19.074219 19.707031 19.074219 19.929688 19.074219 20.113281 19.253906 20.113281 19.480469zM20.925781 20.289062C20.925781 20.515625 20.742188 20.695312 20.519531 20.695312 20.292969 20.695312 20.113281 20.515625 20.113281 20.289062 20.113281 20.066406 20.292969 19.886719 20.519531 19.886719 20.742188 19.886719 20.925781 20.066406 20.925781 20.289062zM19.300781 20.289062C19.300781 20.515625 19.121094 20.695312 18.894531 20.695312 18.671875 20.695312 18.488281 20.515625 18.488281 20.289062 18.488281 20.066406 18.671875 19.886719 18.894531 19.886719 19.121094 19.886719 19.300781 20.066406 19.300781 20.289062zM20.113281 21.101562C20.113281 21.324219 19.929688 21.507812 19.707031 21.507812 19.484375 21.507812 19.300781 21.324219 19.300781 21.101562 19.300781 20.878906 19.484375 20.695312 19.707031 20.695312 19.929688 20.695312 20.113281 20.878906 20.113281 21.101562zM20.113281 21.101562"/>
</svg>
