<svg xmlns="http://www.w3.org/2000/svg" width="32" height="32" viewBox="0 0 24 24">
    <path d="M5.2 6.398c.1 0 .206-.039.284-.117l1.598-1.597a.4.4 0 0 0-.566-.567L4.918 5.72a.396.396 0 0 0 0 .562c.078.078.18.117.281.117zm0 0M5.2 8.398c.1 0 .206-.039.284-.117l.797-.797a.4.4 0 0 0 0-.566.396.396 0 0 0-.562 0l-.801.8a.396.396 0 0 0 0 .563c.078.078.18.117.281.117zm0 0M6.516 6.117a.424.424 0 0 0-.118.281c0 .106.047.211.118.286.078.074.18.117.285.117a.423.423 0 0 0 .285-.117.423.423 0 0 0 .113-.286.42.42 0 0 0-.113-.28.42.42 0 0 0-.57 0zm0 0M7.316 5.883a.399.399 0 0 0 .567 0l1.199-1.2a.4.4 0 0 0-.566-.566l-1.2 1.2a.4.4 0 0 0 0 .566zm0 0M8.516 6.117L4.918 9.72a.396.396 0 0 0 0 .562c.078.078.18.117.281.117.102 0 .207-.039.285-.117l3.598-3.597a.4.4 0 0 0-.566-.567zm0 0M9.316 5.316a.409.409 0 0 0-.117.286c0 .101.043.207.117.28.075.075.18.118.286.118a.406.406 0 0 0 .28-.117.406.406 0 0 0 .118-.281.409.409 0 0 0-.117-.286.416.416 0 0 0-.567 0zm0 0M10.516 4.117l-.399.399a.4.4 0 0 0 .567.566l.398-.398a.4.4 0 0 0-.566-.567zm0 0M12.8 1.2h-.402a.401.401 0 0 0 0 .8h.403a.4.4 0 0 0 0-.8zm0 0"/>
    <path d="M19.242 0H4.758c-.86 0-1.559.71-1.559 1.586v20.828C3.2 23.29 3.9 24 4.758 24h14.484c.86 0 1.559-.71 1.559-1.586V1.586C20.8.71 20.1 0 19.242 0zm-6.844 22.8a.799.799 0 0 1-.796-.8.799.799 0 1 1 1.597 0c0 .441-.36.8-.8.8zM4 3.2h16V20H4zm0 19.214v-1.613h7.352c-.336.293-.551.719-.551 1.199 0 .48.215.906.55 1.2H4.759A.772.772 0 0 1 4 22.413zm16 0c0 .434-.34.785-.758.785h-5.797c.336-.293.555-.719.555-1.199 0-.48-.219-.906-.555-1.2H20zM4 2.398v-.812C4 1.152 4.34.8 4.758.8h14.484c.418 0 .758.351.758.785v.812zm0 0"/>
</svg>
