<svg xmlns="http://www.w3.org/2000/svg" width="32" height="32" viewBox="0 0 24 24">
    <path d="M6.398 6.398c.106 0 .207-.039.286-.117L8.28 4.684a.4.4 0 0 0 0-.567.396.396 0 0 0-.562 0L6.117 5.72a.396.396 0 0 0 0 .562c.078.078.18.117.281.117zm0 0M6.398 8.398c.106 0 .207-.039.286-.117l.8-.797a.4.4 0 0 0-.566-.566l-.8.8a.396.396 0 0 0 0 .563c.077.078.179.117.28.117zm0 0M7.715 6.117a.42.42 0 0 0-.113.281c0 .11.043.211.113.286.078.078.18.117.285.117a.416.416 0 0 0 .285-.117.415.415 0 0 0 .113-.286.42.42 0 0 0-.113-.28.42.42 0 0 0-.57 0zm0 0M8.516 5.883A.405.405 0 0 0 8.8 6c.101 0 .203-.04.281-.117l1.2-1.2a.4.4 0 0 0 0-.566.396.396 0 0 0-.563 0l-1.203 1.2a.4.4 0 0 0 0 .566zm0 0M6.398 10.398c.106 0 .207-.039.286-.117l3.597-3.597a.4.4 0 0 0 0-.567.396.396 0 0 0-.562 0L6.117 9.72a.396.396 0 0 0 0 .562c.078.078.18.117.281.117zm0 0M10.516 5.883A.402.402 0 0 0 10.8 6a.423.423 0 0 0 .285-.117.402.402 0 0 0 .113-.281c0-.106-.039-.211-.113-.286a.42.42 0 0 0-.57 0 .426.426 0 0 0-.118.286c0 .101.047.207.118.28zm0 0M11.602 5.2c.101 0 .203-.04.28-.118l.4-.398a.4.4 0 0 0 0-.567.396.396 0 0 0-.563 0l-.403.399a.4.4 0 0 0 .286.683zm0 0M12.398 1.2H12a.398.398 0 0 0-.398.402c0 .218.175.398.398.398h.398a.401.401 0 1 0 0-.8zm0 0"/>
    <path d="M19.242 0H4.758c-.86 0-1.559.71-1.559 1.586v20.828C3.2 23.29 3.9 24 4.758 24h14.484c.86 0 1.559-.71 1.559-1.586V1.586C20.8.71 20.1 0 19.242 0zM20 22.414c0 .434-.34.785-.758.785H4.758A.772.772 0 0 1 4 22.414V1.586C4 1.152 4.34.8 4.758.8h14.484c.418 0 .758.351.758.785zm0 0"/>
    <path d="M19.602 2.398H4.398V20h15.204zM18.8 19.2H5.199v-16h13.602zm0 0M13.602 21.602c0-.883-.72-1.602-1.602-1.602-.883 0-1.602.719-1.602 1.602a1.603 1.603 0 0 0 3.203 0zM12 22.398a.799.799 0 1 1 0-1.597.799.799 0 0 1 0 1.598zm0 0"/>
</svg>
