<svg xmlns="http://www.w3.org/2000/svg" width="32" height="32" viewBox="0 0 24 24">
    <path d="M7.602 5.602c.101 0 .203-.04.28-.118l1.602-1.601a.4.4 0 0 0-.566-.567L7.316 4.918a.4.4 0 0 0 .286.684zm0 0M8.117 6.117l-.8.801a.4.4 0 0 0 .566.566l.8-.8a.4.4 0 0 0-.566-.567zm0 0M8.918 5.316a.406.406 0 0 0-.117.282c0 .109.043.215.117.285A.39.39 0 0 0 9.199 6c.106 0 .211-.04.285-.117a.411.411 0 0 0 .118-.285.407.407 0 0 0-.118-.278.416.416 0 0 0-.566-.004zm0 0M10.918 3.316l-1.2 1.204a.396.396 0 0 0 0 .562.396.396 0 0 0 .563 0l1.203-1.2a.4.4 0 0 0-.566-.566zm0 0"/>
    <path d="M18.398 0H5.602C4.719 0 4 .719 4 1.602v20.796C4 23.281 4.719 24 5.602 24h12.796c.883 0 1.602-.719 1.602-1.602V1.602C20 .719 19.281 0 18.398 0zm.801 22.398c0 .442-.36.801-.8.801H5.601c-.442 0-.801-.36-.801-.8V1.601c0-.442.36-.801.8-.801h12.797c.442 0 .801.36.801.8v20.797zm0 0"/>
    <path d="M6 10.402h12V2.004H6v8.398zm.8-7.601h10.4v6.8H6.8v-6.8zm0 0M12 11.203a5.605 5.605 0 0 0-5.598 5.598A5.605 5.605 0 0 0 12 22.398a5.605 5.605 0 0 0 5.598-5.597A5.605 5.605 0 0 0 12 11.203zm0 10.399A4.807 4.807 0 0 1 7.2 16.8C7.2 14.152 9.351 12 12 12c2.648 0 4.8 2.152 4.8 4.8 0 2.645-2.152 4.802-4.8 4.802zm0 0"/>
    <path d="M12 14.8c-1.102 0-2 .9-2 2 0 1.102.898 2 2 2 1.102 0 2-.898 2-2 0-1.1-.898-2-2-2zm0 3.2c-.66 0-1.2-.54-1.2-1.2 0-.66.54-1.198 1.2-1.198.66 0 1.2.539 1.2 1.199S12.66 18 12 18zm0 0M11.602 14h.796a.401.401 0 1 0 0-.8h-.796a.401.401 0 0 0 0 .8zm0 0M12.398 19.602h-.796a.398.398 0 0 0 0 .797h.796a.398.398 0 1 0 0-.797zm0 0M14.8 16.8c0 .223.177.4.4.4h.402a.398.398 0 1 0 0-.798h-.403a.395.395 0 0 0-.398.399zm0 0M8.8 16.402h-.402a.398.398 0 1 0 0 .797h.403a.395.395 0 0 0 .398-.398.395.395 0 0 0-.398-.399zm0 0"/>
</svg>
