<svg xmlns="http://www.w3.org/2000/svg" width="32" height="32" viewBox="0 0 24 24">
    <path d="M23.492.832A2.276 2.276 0 0 0 20.13.664l-.32.324a.907.907 0 0 0 0 1.285l-.645.641a.934.934 0 0 0-1.285 0l-4.82 4.824-.965-.965-7.715 7.715a3.614 3.614 0 0 0-1.066 2.57c0 .497.101.977.289 1.422L.41 21.672A1.36 1.36 0 0 0 1.371 24c.352 0 .7-.133.965-.398l3.195-3.196a3.638 3.638 0 0 0 3.992-.777l7.715-7.715-.965-.96 4.82-4.825a.908.908 0 0 0 0-1.285l.645-.645a.908.908 0 0 0 1.285 0l.266-.265c.852-.848.941-2.215.203-3.102zM4.72 19.934l-3.024 3.023a.453.453 0 0 1-.644 0 .442.442 0 0 1-.133-.32.45.45 0 0 1 .133-.32l3.027-3.028a2.993 2.993 0 0 0 .297.336c0 .004 0 .004.004.008s.008.004.012.008c.097.097.199.187.304.27.012.007.016.015.024.023zm4.16-.946a2.73 2.73 0 0 1-3.348.395c-.043-.031-.09-.059-.133-.086a2.525 2.525 0 0 1-.37-.305c-.005 0-.005-.004-.005-.004a2.655 2.655 0 0 1-.238-.273c-.012-.016-.023-.035-.039-.05-.07-.099-.137-.2-.195-.31l-.028-.05a2.728 2.728 0 0 1 .5-3.176l5.465-5.465 3.856 3.86zm7.074-7.07l-.965.965-3.86-3.86.966-.964zM13.7 8.378l3.215-3.21 1.93 1.926-3.215 3.215zm7.395-3.534l-.32-.32zm1.55-1.551l-.265.266a.908.908 0 0 0-1.285 0l-.64.644a.902.902 0 0 0 0 1.285l-.966.965-1.93-1.93.965-.964a.908.908 0 0 0 1.286 0l.644-.645a.915.915 0 0 0 0-1.285l.32-.32c.274-.27.653-.418 1.032-.399.386.02.738.195.988.5.441.531.375 1.36-.148 1.883zm0 0"/>
</svg>
