<svg xmlns="http://www.w3.org/2000/svg" width="32" height="32" viewBox="0 0 24 24">
    <path d="M6.586 18.887a1.538 1.538 0 1 0 1.54 1.54c-.001-.849-.692-1.54-1.54-1.54zm0 2.258a.722.722 0 1 1 .723-.723.724.724 0 0 1-.723.723zm0 0M18.73 18.29a.41.41 0 0 0-.41.41 2.856 2.856 0 0 1-2.851 2.855.407.407 0 1 0 0 .812 3.671 3.671 0 0 0 3.668-3.668c0-.226-.18-.41-.407-.41zm0 0M9.348 4.828a.41.41 0 0 0 .41-.406c0-.902.73-1.633 1.629-1.633a.41.41 0 0 0 .41-.406.41.41 0 0 0-.41-.41A2.45 2.45 0 0 0 8.94 4.422c0 .223.18.406.407.406zm0 0"/>
    <path d="M18.191 6.46h-2.265c.27-.581.422-1.226.422-1.905A4.556 4.556 0 0 0 11.797 0a4.56 4.56 0 0 0-4.555 4.555c0 .68.156 1.324.426 1.906h-1.86A2.58 2.58 0 0 0 3.23 9.039v12.383A2.58 2.58 0 0 0 5.81 24H18.19a2.58 2.58 0 0 0 2.579-2.578V9.039a2.58 2.58 0 0 0-2.579-2.578zM11.797.817a3.743 3.743 0 0 1 3.738 3.739 3.72 3.72 0 0 1-1.012 2.543c-.05.054-.101.109-.152.16-.05.043-.098.09-.148.133-.059.05-.118.093-.176.14-.05.035-.098.074-.145.11-.109.07-.218.14-.332.203-.035.015-.074.031-.11.05-.089.043-.179.086-.269.126-.046.02-.093.035-.14.05a3.52 3.52 0 0 1-.586.152l-.113.024a3.956 3.956 0 0 1-1.11 0l-.117-.023a3.446 3.446 0 0 1-.348-.078c-.078-.024-.16-.047-.238-.075-.043-.015-.09-.03-.137-.05a4.308 4.308 0 0 1-.27-.125.935.935 0 0 1-.109-.051 4.703 4.703 0 0 1-.332-.203c-.05-.036-.097-.075-.144-.11-.059-.047-.121-.093-.176-.14-.05-.043-.101-.09-.148-.133-.055-.051-.106-.106-.157-.16a3.651 3.651 0 0 1-.313-.383 3.692 3.692 0 0 1-.694-2.16A3.741 3.741 0 0 1 11.797.816zm0 15.5c.898 0 1.629-.73 1.629-1.632V11.43a3.428 3.428 0 0 1 1.804 3.02 3.44 3.44 0 0 1-3.433 3.433 3.438 3.438 0 0 1-3.434-3.434c0-1.277.703-2.43 1.801-3.02v3.255c0 .902.73 1.632 1.633 1.632zm.816-6.074v4.442a.816.816 0 1 1-1.633 0V9.035l.184.024c.043.004.086.011.125.02a3.986 3.986 0 0 0 .441.023c.024.003.043.003.067.003.02 0 .043 0 .062-.003a3.875 3.875 0 0 0 .442-.024c.043-.004.082-.015.125-.02l.187-.023zm-2.449.285a4.242 4.242 0 0 0-2.617 3.918 4.254 4.254 0 0 0 4.25 4.25 4.254 4.254 0 0 0 4.25-4.25 4.246 4.246 0 0 0-2.621-3.918v-.52a4.867 4.867 0 0 1 3.265 4.61 4.9 4.9 0 0 1-4.894 4.895 4.9 4.9 0 0 1-4.895-4.895 4.867 4.867 0 0 1 3.262-4.61zm9.79 10.895c0 .973-.79 1.762-1.763 1.762H5.81c-.973 0-1.762-.79-1.762-1.762V9.039c0-.973.789-1.762 1.762-1.762h2.336l.082.094c.046.063.101.125.156.184.055.062.11.129.168.187.054.055.113.106.172.16.09.082.18.164.277.239.086.066.172.132.262.195.062.039.125.074.187.113.078.047.156.094.239.137.058.031.124.062.187.09.086.043.176.082.266.113l.023.012v.355a5.673 5.673 0 0 0-4.078 5.461 5.713 5.713 0 0 0 5.71 5.711 5.716 5.716 0 0 0 5.712-5.71 5.677 5.677 0 0 0-4.082-5.462v-.355l.023-.012c.09-.035.18-.074.266-.113.066-.031.129-.059.191-.09.078-.043.156-.09.235-.137.062-.039.129-.074.187-.113.09-.063.176-.129.262-.195.098-.075.187-.157.281-.239.055-.054.113-.105.168-.16.059-.062.113-.125.172-.187.05-.059.105-.121.156-.184.024-.035.055-.062.078-.094h2.746c.973 0 1.762.79 1.762 1.762zm0 0"/>
</svg>
