<svg xmlns="http://www.w3.org/2000/svg" width="32" height="32" viewBox="0 0 24 24">
    <path d="M4.800781 8.800781C4.902344 8.800781 5.003906 8.761719 5.082031 8.683594L6.683594 7.082031C6.839844 6.925781 6.839844 6.671875 6.683594 6.515625 6.527344 6.359375 6.273438 6.359375 6.117188 6.515625L4.515625 8.117188C4.359375 8.273438 4.359375 8.527344 4.515625 8.683594 4.59375 8.761719 4.699219 8.800781 4.800781 8.800781zM4.800781 10.800781C4.902344 10.800781 5.003906 10.761719 5.082031 10.683594L5.882812 9.882812C6.039062 9.726562 6.039062 9.472656 5.882812 9.316406 5.726562 9.160156 5.472656 9.160156 5.316406 9.316406L4.515625 10.117188C4.359375 10.273438 4.359375 10.527344 4.515625 10.683594 4.59375 10.761719 4.699219 10.800781 4.800781 10.800781zM6.117188 8.515625C6.042969 8.59375 6 8.691406 6 8.800781 6 8.90625 6.042969 9.007812 6.117188 9.085938 6.191406 9.15625 6.296875 9.199219 6.398438 9.199219 6.503906 9.199219 6.609375 9.15625 6.683594 9.085938 6.757812 9.007812 6.800781 8.902344 6.800781 8.800781 6.800781 8.695312 6.757812 8.59375 6.683594 8.515625 6.535156 8.367188 6.265625 8.367188 6.117188 8.515625zM6.917969 8.28125C6.996094 8.359375 7.097656 8.398438 7.199219 8.398438 7.300781 8.398438 7.40625 8.359375 7.484375 8.28125L8.683594 7.082031C8.839844 6.925781 8.839844 6.671875 8.683594 6.515625 8.527344 6.359375 8.273438 6.359375 8.117188 6.515625L6.917969 7.71875C6.761719 7.875 6.761719 8.125 6.917969 8.28125zM8.117188 8.515625L4.515625 12.117188C4.359375 12.273438 4.359375 12.527344 4.515625 12.683594 4.59375 12.761719 4.699219 12.800781 4.800781 12.800781 4.902344 12.800781 5.003906 12.761719 5.082031 12.683594L8.683594 9.082031C8.839844 8.925781 8.839844 8.671875 8.683594 8.515625 8.527344 8.359375 8.273438 8.359375 8.117188 8.515625zM8.914062 7.714844C8.84375 7.792969 8.800781 7.894531 8.800781 8 8.800781 8.105469 8.84375 8.207031 8.914062 8.285156 8.992188 8.355469 9.097656 8.398438 9.199219 8.398438 9.304688 8.398438 9.40625 8.355469 9.484375 8.285156 9.554688 8.207031 9.601562 8.105469 9.601562 8 9.601562 7.894531 9.554688 7.792969 9.484375 7.714844 9.335938 7.566406 9.0625 7.566406 8.914062 7.714844zM10.117188 6.515625L9.71875 6.917969C9.5625 7.074219 9.5625 7.328125 9.71875 7.484375 9.796875 7.5625 9.898438 7.601562 10 7.601562 10.101562 7.601562 10.203125 7.5625 10.28125 7.484375L10.683594 7.082031C10.839844 6.925781 10.839844 6.671875 10.683594 6.515625 10.527344 6.359375 10.273438 6.359375 10.117188 6.515625zM10.117188 6.515625"/>
    <path d="M2.398438 16.800781L21.601562 16.800781 21.601562 4.398438 2.398438 4.398438zM3.199219 5.199219L20.800781 5.199219 20.800781 16 3.199219 16zM12.800781 17.199219L11.199219 17.199219C10.980469 17.199219 10.800781 17.378906 10.800781 17.601562 10.800781 17.820312 10.980469 18 11.199219 18L12.800781 18C13.019531 18 13.199219 17.820312 13.199219 17.601562 13.199219 17.378906 13.019531 17.199219 12.800781 17.199219zM12.800781 17.199219"/>
    <path d="M 22.800781 18.800781 L 22.800781 4.828125 C 22.800781 3.929688 22.070312 3.199219 21.171875 3.199219 L 2.828125 3.199219 C 1.929688 3.199219 1.199219 3.929688 1.199219 4.828125 L 1.199219 18.800781 L 0 18.800781 L 0 20.800781 L 24 20.800781 L 24 18.800781 Z M 2 4.828125 C 2 4.371094 2.371094 4 2.828125 4 L 21.171875 4 C 21.628906 4 22 4.371094 22 4.828125 L 22 18.800781 L 2 18.800781 Z M 23.199219 20 L 0.800781 20 L 0.800781 19.601562 L 23.199219 19.601562 Z M 23.199219 20"/>
</svg>
