<svg xmlns="http://www.w3.org/2000/svg" width="32" height="32" viewBox="0 0 24 24">
    <path d="M 23.007812 1.894531 L 17.683594 1.894531 L 17.683594 0.632812 C 17.683594 0.398438 17.496094 0.210938 17.261719 0.210938 C 17.03125 0.210938 16.84375 0.398438 16.84375 0.632812 L 16.84375 1.894531 L 16 1.894531 L 16 0.632812 C 16 0.398438 15.8125 0.210938 15.578125 0.210938 C 15.347656 0.210938 15.15625 0.398438 15.15625 0.632812 L 15.15625 1.894531 L 14.886719 1.894531 C 14.339844 1.894531 13.894531 2.339844 13.894531 2.886719 L 13.894531 10.589844 C 13.894531 11.136719 14.339844 11.578125 14.886719 11.578125 L 17.683594 11.578125 L 17.683594 13.683594 L 18.527344 13.683594 L 18.527344 14.800781 C 18.527344 17.699219 17.023438 20.621094 13.769531 22.046875 C 15.132812 20.8125 16 19.035156 16 17.050781 C 16 13.339844 12.976562 10.316406 9.261719 10.316406 C 5.546875 10.316406 2.527344 13.339844 2.527344 17.050781 C 2.527344 18.421875 2.941406 19.699219 3.644531 20.761719 C 2.179688 19.347656 1.261719 17.367188 1.261719 15.175781 L 1.261719 9.050781 L 2.527344 9.050781 L 2.527344 8.210938 L 3.789062 8.210938 L 3.789062 4.421875 L 2.527344 4.421875 L 2.527344 3.578125 L 0 3.578125 L 0 9.050781 L 0.421875 9.050781 L 0.421875 15.585938 L 0.429688 15.585938 C 0.644531 20.144531 4.421875 23.789062 9.035156 23.789062 C 9.089844 23.789062 9.144531 23.785156 9.199219 23.785156 C 9.222656 23.785156 9.242188 23.789062 9.261719 23.789062 C 9.308594 23.789062 9.355469 23.785156 9.402344 23.78125 C 15.289062 23.636719 19.367188 19.984375 19.367188 14.800781 L 19.367188 13.683594 L 20.210938 13.683594 L 20.210938 11.578125 L 23.007812 11.578125 C 23.554688 11.578125 24 11.132812 24 10.589844 L 24 2.886719 C 24 2.339844 23.554688 1.894531 23.007812 1.894531 Z M 2.949219 5.261719 L 2.949219 7.367188 L 2.527344 7.367188 L 2.527344 5.261719 Z M 0.84375 4.421875 L 1.683594 4.421875 L 1.683594 8.210938 L 0.84375 8.210938 Z M 9.40625 22.941406 C 9.339844 22.941406 9.269531 22.945312 9.199219 22.945312 C 6.675781 22.910156 4.632812 20.847656 4.632812 18.316406 C 4.632812 15.761719 6.710938 13.683594 9.261719 13.683594 C 11.816406 13.683594 13.894531 15.761719 13.894531 18.316406 C 13.894531 20.820312 11.894531 22.863281 9.40625 22.941406 Z M 9.261719 11.15625 C 12.515625 11.15625 15.15625 13.800781 15.15625 17.050781 C 15.15625 17.953125 14.949219 18.800781 14.585938 19.566406 C 14.683594 19.164062 14.738281 18.746094 14.738281 18.316406 C 14.738281 15.296875 12.28125 12.84375 9.261719 12.84375 C 6.246094 12.84375 3.789062 15.296875 3.789062 18.316406 C 3.789062 18.746094 3.84375 19.164062 3.9375 19.566406 C 3.578125 18.800781 3.367188 17.953125 3.367188 17.050781 C 3.367188 13.800781 6.011719 11.15625 9.261719 11.15625 Z M 14.738281 2.886719 C 14.738281 2.804688 14.804688 2.738281 14.886719 2.738281 L 17.957031 2.738281 C 18.039062 2.738281 18.105469 2.804688 18.105469 2.886719 L 18.105469 5.117188 C 18.105469 5.195312 18.039062 5.261719 17.957031 5.261719 L 14.882812 5.261719 C 14.804688 5.261719 14.738281 5.195312 14.738281 5.113281 Z M 19.367188 12.84375 L 18.527344 12.84375 L 18.527344 11.578125 L 19.367188 11.578125 Z M 23.15625 10.589844 C 23.15625 10.671875 23.089844 10.738281 23.007812 10.738281 L 14.886719 10.738281 C 14.804688 10.738281 14.738281 10.671875 14.738281 10.589844 L 14.738281 6.089844 C 14.785156 6.097656 14.835938 6.105469 14.886719 6.105469 L 17.957031 6.105469 C 18.503906 6.105469 18.949219 5.660156 18.949219 5.113281 L 18.949219 2.886719 C 18.949219 2.835938 18.941406 2.785156 18.933594 2.738281 L 23.011719 2.738281 C 23.089844 2.738281 23.15625 2.804688 23.15625 2.886719 Z M 23.15625 10.589844"/>
</svg>
