<svg xmlns="http://www.w3.org/2000/svg" width="32" height="32" viewBox="0 0 24 24">
    <path d="M23.008 1.895h-5.324V.633a.42.42 0 1 0-.84 0v1.262H16V.633a.423.423 0 0 0-.844 0v1.262h-.27a.994.994 0 0 0-.991.992v7.703a.99.99 0 0 0 .992.988h2.797v2.106h.843V14.8c0 2.898-1.504 5.82-4.757 7.246A6.724 6.724 0 0 0 16 17.05c0-3.711-3.023-6.735-6.738-6.735a6.743 6.743 0 0 0-6.735 6.735c0 1.37.414 2.648 1.118 3.71a7.748 7.748 0 0 1-2.383-5.585V9.05h1.265v-.84H3.79V4.42H2.527v-.843H0v5.473h.422v6.535H.43c.215 4.559 3.992 8.203 8.605 8.203.055 0 .11-.004.164-.004.024 0 .043.004.063.004.047 0 .093-.004.14-.008 5.887-.144 9.965-3.797 9.965-8.98v-1.117h.844v-2.106h2.797A.993.993 0 0 0 24 10.59V2.887a.994.994 0 0 0-.992-.992zM2.949 5.262v2.105h-.422V5.262zm-2.105-.84h.84V8.21h-.84zm8.562 18.52c-.066 0-.136.003-.207.003a4.636 4.636 0 0 1-4.566-4.629 4.637 4.637 0 0 1 4.629-4.632 4.638 4.638 0 0 1 4.633 4.632c0 2.504-2 4.547-4.489 4.625zm-.144-11.786a5.899 5.899 0 0 1 5.894 5.895c0 .902-.207 1.75-.57 2.515.098-.402.152-.82.152-1.25a5.48 5.48 0 0 0-5.476-5.472 5.479 5.479 0 0 0-5.473 5.472c0 .43.055.848.148 1.25a5.896 5.896 0 0 1-.57-2.515 5.902 5.902 0 0 1 5.895-5.895zm5.476-8.27c0-.081.067-.148.149-.148h3.07c.082 0 .148.067.148.149v2.23a.148.148 0 0 1-.148.145h-3.074a.148.148 0 0 1-.145-.149zm4.63 9.958h-.84v-1.266h.84zm3.788-2.254a.148.148 0 0 1-.148.148h-8.121a.148.148 0 0 1-.149-.148v-4.5a.91.91 0 0 0 .149.015h3.07a.994.994 0 0 0 .992-.992V2.887a.91.91 0 0 0-.015-.149h4.078c.078 0 .144.067.144.149zm0 0"/>
</svg>
