<svg xmlns="http://www.w3.org/2000/svg" width="32" height="32" viewBox="0 0 24 24">
    <path d="M 12.773438 19.566406 C 12.710938 19.550781 12.644531 19.519531 12.578125 19.46875 C 12.449219 19.375 12.363281 19.242188 12.347656 19.117188 C 12.34375 19.074219 12.34375 19.035156 12.351562 18.996094 C 12.386719 18.71875 12.273438 18.445312 12.050781 18.265625 C 11.832031 18.09375 11.546875 18.046875 11.289062 18.140625 C 11.019531 18.242188 10.757812 18.425781 10.492188 18.703125 C 10.183594 19.019531 10.015625 19.425781 10.019531 19.839844 C 10.027344 20.808594 10.820312 21.601562 11.792969 21.601562 C 12.398438 21.601562 12.953125 21.296875 13.28125 20.785156 C 13.417969 20.570312 13.445312 20.3125 13.351562 20.070312 C 13.253906 19.824219 13.035156 19.632812 12.773438 19.566406 Z M 11.792969 20.800781 C 11.257812 20.800781 10.824219 20.367188 10.820312 19.832031 C 10.816406 19.628906 10.90625 19.425781 11.066406 19.257812 C 11.246094 19.074219 11.414062 18.949219 11.558594 18.894531 C 11.542969 18.996094 11.542969 19.097656 11.554688 19.203125 C 11.59375 19.554688 11.792969 19.890625 12.109375 20.117188 C 12.257812 20.222656 12.414062 20.300781 12.574219 20.339844 C 12.589844 20.347656 12.601562 20.355469 12.605469 20.355469 C 12.425781 20.632812 12.121094 20.800781 11.792969 20.800781 Z M 11.792969 20.800781"/>
    <path d="M 18.617188 4.105469 C 18.503906 2.648438 17.617188 1.335938 16.308594 0.683594 C 15.414062 0.238281 14.414062 0 13.414062 0 L 10.585938 0 C 9.585938 0 8.585938 0.238281 7.691406 0.683594 C 6.382812 1.335938 5.5 2.648438 5.382812 4.105469 C 4.960938 9.34375 4.960938 14.65625 5.382812 19.894531 L 5.394531 20.03125 C 5.503906 21.417969 6.289062 22.65625 7.496094 23.34375 L 7.675781 23.445312 C 8.308594 23.808594 9.03125 24 9.761719 24 L 14.238281 24 C 14.96875 24 15.6875 23.808594 16.324219 23.445312 L 16.503906 23.34375 C 17.710938 22.652344 18.496094 21.414062 18.605469 20.03125 L 18.617188 19.894531 C 19.039062 14.65625 19.039062 9.34375 18.617188 4.105469 Z M 17.820312 19.832031 L 17.808594 19.96875 C 17.71875 21.089844 17.085938 22.089844 16.109375 22.648438 L 15.925781 22.753906 C 15.414062 23.042969 14.832031 23.199219 14.238281 23.199219 L 9.761719 23.199219 C 9.167969 23.199219 8.585938 23.042969 8.074219 22.753906 L 7.890625 22.648438 C 6.917969 22.089844 6.28125 21.089844 6.191406 19.96875 L 6.179688 19.832031 C 5.761719 14.636719 5.761719 9.363281 6.179688 4.167969 C 6.273438 2.988281 6.988281 1.929688 8.046875 1.398438 C 8.832031 1.007812 9.707031 0.800781 10.585938 0.800781 L 13.414062 0.800781 C 14.289062 0.800781 15.167969 1.007812 15.953125 1.398438 C 17.011719 1.929688 17.726562 2.988281 17.820312 4.167969 C 18.238281 9.363281 18.238281 14.636719 17.820312 19.832031 Z M 17.820312 19.832031"/>
</svg>
