<svg xmlns="http://www.w3.org/2000/svg" width="32" height="32" viewBox="0 0 24 24">
    <path d="M5.086 15.863c0 3.813 3.101 6.918 6.914 6.918 3.813 0 6.914-3.105 6.914-6.918A6.922 6.922 0 0 0 12 8.95a6.922 6.922 0 0 0-6.914 6.914zm13.016 0A6.107 6.107 0 0 1 12 21.965a6.107 6.107 0 0 1-6.102-6.102A6.11 6.11 0 0 1 12 9.762a6.11 6.11 0 0 1 6.102 6.101zm0 0"/>
    <path d="M6.219 21.836a.941.941 0 0 0-.137-1.012 7.713 7.713 0 0 1-1.812-4.96c0-2.16.918-4.235 2.52-5.696a.924.924 0 0 0 .241-1.027.931.931 0 0 0-.875-.598h-4.34c-.668 0-1.207.539-1.207 1.203v11.422c0 .664.54 1.203 1.207 1.203h3.559a.916.916 0 0 0 .844-.535zm-.739-.344c-.02.043-.054.067-.109.067H1.816a.393.393 0 0 1-.394-.391V9.746c0-.215.176-.39.394-.39h4.34c.07 0 .102.042.117.078.012.035.02.086-.03.132a8.545 8.545 0 0 0-2.786 6.297c0 2.004.711 3.95 2.004 5.485.047.058.035.117.02.144zm0 0M22.184 8.543h-4.34a.931.931 0 0 0-.875.598.924.924 0 0 0 .242 1.027 7.726 7.726 0 0 1 2.52 5.695 7.713 7.713 0 0 1-1.813 4.961.94.94 0 0 0-.137 1.012.916.916 0 0 0 .844.535h3.563c.664 0 1.203-.539 1.203-1.203V9.746c0-.664-.54-1.203-1.207-1.203zm.394 12.625c0 .215-.176.39-.394.39h-3.559a.108.108 0 0 1-.105-.066c-.016-.027-.028-.086.02-.144a8.521 8.521 0 0 0 2.003-5.485 8.545 8.545 0 0 0-2.785-6.297c-.051-.046-.043-.097-.031-.132.015-.036.046-.079.117-.079h4.34a.39.39 0 0 1 .39.391s0 11.422.004 11.422zm0 0M8.746 15.863A3.257 3.257 0 0 0 12 19.117a3.257 3.257 0 0 0 3.254-3.254A3.26 3.26 0 0 0 12 12.61a3.26 3.26 0 0 0-3.254 3.254zm5.695 0a2.442 2.442 0 0 1-4.882 0A2.445 2.445 0 0 1 12 13.422a2.445 2.445 0 0 1 2.441 2.441zm0 0M5.086 6.102H1.832v2.035h3.254zM4.27 7.32H2.645v-.406H4.27zm0 0M18.914 8.137h2.848a.406.406 0 0 0 .406-.407c0-.226-.18-.41-.406-.41h-2.848a.408.408 0 0 0 0 .816zm0 0M7.117 8.543a.41.41 0 0 0 .41-.406h8.946a.408.408 0 0 0 .816 0V7.73a.41.41 0 0 0-.406-.41h-3.664V6.27a3.26 3.26 0 0 0 2.035-3.016A3.26 3.26 0 0 0 12 0a3.26 3.26 0 0 0-3.254 3.254 3.26 3.26 0 0 0 2.035 3.016v1.05H7.117a.41.41 0 0 0-.406.41v.407c0 .222.184.406.406.406zm5.29-1.223h-.813v-.836h.027a3.036 3.036 0 0 0 .758 0h.027zM9.558 3.254A2.445 2.445 0 0 1 12 .812a2.445 2.445 0 0 1 2.441 2.442c0 1.09-.718 2.012-1.703 2.328l-.035.008c-.004.004-.008.004-.012.004-.101.031-.207.05-.308.066l-.059.012a2.573 2.573 0 0 1-.648 0l-.059-.012a2.066 2.066 0 0 1-.308-.066c-.004 0-.008 0-.012-.004l-.035-.008a2.446 2.446 0 0 1-1.703-2.328zm0 0M17.695 22.371a.407.407 0 0 0-.406.41v.407H6.711v-.407a.407.407 0 1 0-.813 0v.813c0 .222.184.406.407.406h11.39a.408.408 0 0 0 .407-.406v-.813a.41.41 0 0 0-.407-.41zm0 0"/>
    <path d="M13.629 3.254c0-.899-.73-1.625-1.629-1.625a1.627 1.627 0 1 0 0 3.254 1.63 1.63 0 0 0 1.629-1.63zm-2.441 0a.812.812 0 1 1 1.623-.001.812.812 0 0 1-1.623 0zm0 0"/>
</svg>
