<svg xmlns="http://www.w3.org/2000/svg" width="32" height="32" viewBox="0 0 24 24">
    <path d="M6.621094 5.945312C6.621094 5.40625 6.179688 4.964844 5.640625 4.964844L5.117188 4.964844C4.578125 4.964844 4.136719 5.40625 4.136719 5.945312L4.136719 8.535156C4.136719 9.078125 4.578125 9.515625 5.117188 9.515625L5.640625 9.515625C6.179688 9.515625 6.621094 9.078125 6.621094 8.535156zM5.792969 8.535156C5.792969 8.621094 5.722656 8.691406 5.640625 8.691406L5.117188 8.691406C5.035156 8.691406 4.964844 8.621094 4.964844 8.535156L4.964844 5.945312C4.964844 5.863281 5.035156 5.792969 5.117188 5.792969L5.640625 5.792969C5.722656 5.792969 5.792969 5.863281 5.792969 5.945312zM10.605469 4.964844L10.085938 4.964844C9.542969 4.964844 9.101562 5.40625 9.101562 5.945312L9.101562 8.535156C9.101562 9.078125 9.542969 9.515625 10.085938 9.515625L10.605469 9.515625C11.144531 9.515625 11.585938 9.078125 11.585938 8.535156L11.585938 5.945312C11.585938 5.40625 11.144531 4.964844 10.605469 4.964844zM10.757812 8.535156C10.757812 8.621094 10.6875 8.691406 10.605469 8.691406L10.085938 8.691406C10 8.691406 9.929688 8.621094 9.929688 8.535156L9.929688 5.945312C9.929688 5.863281 10 5.792969 10.085938 5.792969L10.605469 5.792969C10.6875 5.792969 10.757812 5.863281 10.757812 5.945312zM8.414062 9.515625L7.308594 9.515625C6.929688 9.515625 6.621094 9.824219 6.621094 10.207031L6.621094 11.3125C6.621094 11.691406 6.929688 12 7.308594 12L8.414062 12C8.792969 12 9.101562 11.691406 9.101562 11.3125L9.101562 10.207031C9.101562 9.824219 8.792969 9.515625 8.414062 9.515625zM8.277344 11.171875L7.449219 11.171875 7.449219 10.34375 8.277344 10.34375zM8.277344 11.171875"/>
    <path d="M 22.820312 11.585938 L 22.34375 11.585938 L 22.34375 8.070312 C 22.34375 7.5 21.882812 7.035156 21.308594 7.035156 C 20.738281 7.035156 20.277344 7.5 20.277344 8.070312 L 20.277344 11.585938 L 19.449219 11.585938 L 19.449219 9.515625 L 17.378906 9.515625 L 17.378906 11.585938 L 16.550781 11.585938 L 16.550781 8.070312 C 16.550781 7.570312 16.195312 7.152344 15.722656 7.054688 L 15.722656 0.828125 L 0 0.828125 L 0 15.722656 L 12.828125 15.722656 L 12.828125 17.28125 C 12.828125 18.703125 13.984375 19.863281 15.40625 19.863281 L 16.964844 19.863281 L 16.964844 21.515625 L 17.71875 21.515625 C 17.546875 21.996094 17.089844 22.34375 16.550781 22.34375 L 14.484375 22.34375 C 13.796875 22.34375 13.242188 21.789062 13.242188 21.101562 L 13.242188 20.691406 C 13.242188 19.09375 11.941406 17.792969 10.34375 17.792969 L 9.929688 17.792969 C 8.335938 17.792969 7.035156 19.09375 7.035156 20.691406 C 7.035156 20.917969 7.21875 21.101562 7.449219 21.101562 C 7.675781 21.101562 7.863281 20.917969 7.863281 20.691406 C 7.863281 19.546875 8.789062 18.621094 9.929688 18.621094 L 10.34375 18.621094 C 11.484375 18.621094 12.414062 19.546875 12.414062 20.691406 L 12.414062 21.101562 C 12.414062 22.246094 13.34375 23.171875 14.484375 23.171875 L 16.550781 23.171875 C 17.550781 23.171875 18.386719 22.460938 18.578125 21.515625 L 19.863281 21.515625 L 19.863281 19.863281 L 21.417969 19.863281 C 22.84375 19.863281 24 18.703125 24 17.28125 L 24 12.765625 C 24 12.113281 23.472656 11.585938 22.820312 11.585938 Z M 21.101562 8.070312 C 21.101562 7.957031 21.195312 7.863281 21.308594 7.863281 C 21.425781 7.863281 21.515625 7.957031 21.515625 8.070312 L 21.515625 12.414062 L 21.101562 12.414062 Z M 18.207031 10.34375 L 18.621094 10.34375 L 18.621094 12.414062 L 18.207031 12.414062 Z M 17.378906 12.414062 L 17.378906 13.242188 L 19.449219 13.242188 L 19.449219 12.414062 L 20.277344 12.414062 L 20.277344 13.242188 L 22.34375 13.242188 L 22.34375 12.414062 L 22.820312 12.414062 C 23.015625 12.414062 23.171875 12.570312 23.171875 12.765625 L 23.171875 13.65625 L 13.65625 13.65625 L 13.65625 12.777344 C 13.65625 12.578125 13.820312 12.414062 14.019531 12.414062 L 14.484375 12.414062 L 14.484375 13.242188 L 16.550781 13.242188 L 16.550781 12.414062 Z M 12.628906 11.746094 C 12.484375 12.144531 12.101562 12.414062 11.675781 12.414062 L 4.160156 12.414062 C 3.734375 12.414062 3.351562 12.144531 3.207031 11.746094 C 2.394531 9.507812 2.394531 7.042969 3.207031 4.804688 C 3.351562 4.40625 3.734375 4.136719 4.160156 4.136719 L 11.675781 4.136719 C 12.101562 4.136719 12.484375 4.40625 12.628906 4.804688 C 13.445312 7.042969 13.445312 9.507812 12.628906 11.746094 Z M 15.722656 12.414062 L 15.308594 12.414062 L 15.308594 8.070312 C 15.308594 8.042969 15.316406 8.015625 15.324219 7.992188 C 15.328125 7.984375 15.332031 7.980469 15.335938 7.972656 C 15.34375 7.957031 15.351562 7.945312 15.363281 7.933594 C 15.371094 7.925781 15.382812 7.917969 15.390625 7.910156 C 15.398438 7.902344 15.40625 7.898438 15.410156 7.894531 C 15.421875 7.886719 15.4375 7.878906 15.449219 7.875 L 15.453125 7.875 C 15.472656 7.867188 15.492188 7.863281 15.515625 7.863281 C 15.632812 7.863281 15.722656 7.957031 15.722656 8.070312 Z M 0.828125 14.898438 L 0.828125 1.65625 L 14.898438 1.65625 L 14.898438 7.246094 C 14.890625 7.25 14.882812 7.257812 14.878906 7.261719 C 14.828125 7.300781 14.785156 7.34375 14.742188 7.390625 C 14.730469 7.402344 14.71875 7.417969 14.707031 7.433594 C 14.671875 7.476562 14.640625 7.523438 14.613281 7.574219 C 14.605469 7.589844 14.59375 7.609375 14.585938 7.625 C 14.5625 7.679688 14.542969 7.730469 14.527344 7.789062 C 14.519531 7.804688 14.515625 7.824219 14.507812 7.839844 C 14.492188 7.914062 14.484375 7.992188 14.484375 8.070312 L 14.484375 11.585938 L 14.019531 11.585938 C 13.835938 11.585938 13.664062 11.632812 13.507812 11.707031 C 14.277344 9.371094 14.25 6.835938 13.40625 4.523438 C 13.144531 3.796875 12.449219 3.308594 11.675781 3.308594 L 4.160156 3.308594 C 3.386719 3.308594 2.691406 3.796875 2.429688 4.523438 C 1.546875 6.941406 1.546875 9.609375 2.429688 12.03125 C 2.691406 12.753906 3.386719 13.242188 4.160156 13.242188 L 11.675781 13.242188 C 12.105469 13.242188 12.507812 13.085938 12.828125 12.828125 L 12.828125 14.898438 Z M 19.035156 20.691406 L 17.792969 20.691406 L 17.792969 19.863281 L 19.035156 19.863281 Z M 21.417969 19.035156 L 15.40625 19.035156 C 14.441406 19.035156 13.65625 18.25 13.65625 17.28125 L 13.65625 14.484375 L 23.171875 14.484375 L 23.171875 17.28125 C 23.171875 18.25 22.386719 19.035156 21.417969 19.035156 Z M 21.417969 19.035156"/>
</svg>
