<svg xmlns="http://www.w3.org/2000/svg" width="32" height="32" viewBox="0 0 24 24">
    <path d="M 7.855469 1.964844 C 4.484375 1.964844 1.746094 4.703125 1.746094 8.074219 C 1.746094 11.441406 4.484375 14.183594 7.855469 14.183594 C 11.222656 14.183594 13.964844 11.441406 13.964844 8.074219 C 13.964844 4.703125 11.222656 1.964844 7.855469 1.964844 Z M 8.289062 13.285156 L 8.289062 12.4375 C 8.289062 12.195312 8.097656 12 7.855469 12 C 7.613281 12 7.417969 12.195312 7.417969 12.4375 L 7.417969 13.285156 C 4.734375 13.0625 2.617188 10.8125 2.617188 8.074219 C 2.617188 5.332031 4.734375 3.082031 7.417969 2.859375 L 7.417969 3.710938 C 7.417969 3.949219 7.613281 4.144531 7.855469 4.144531 C 8.097656 4.144531 8.289062 3.949219 8.289062 3.710938 L 8.289062 2.859375 C 10.972656 3.082031 13.089844 5.332031 13.089844 8.074219 C 13.089844 10.8125 10.972656 13.0625 8.289062 13.285156 Z M 8.289062 13.285156"/>
    <path d="M5.671875 6.328125C4.710938 6.328125 3.925781 7.109375 3.925781 8.074219 3.925781 9.035156 4.710938 9.816406 5.671875 9.816406 6.636719 9.816406 7.417969 9.035156 7.417969 8.074219 7.417969 7.109375 6.636719 6.328125 5.671875 6.328125zM5.671875 8.945312C5.191406 8.945312 4.800781 8.554688 4.800781 8.074219 4.800781 7.589844 5.191406 7.199219 5.671875 7.199219 6.152344 7.199219 6.546875 7.589844 6.546875 8.074219 6.546875 8.554688 6.152344 8.945312 5.671875 8.945312zM10.035156 6.328125C9.074219 6.328125 8.289062 7.109375 8.289062 8.074219 8.289062 9.035156 9.074219 9.816406 10.035156 9.816406 11 9.816406 11.78125 9.035156 11.78125 8.074219 11.78125 7.109375 11 6.328125 10.035156 6.328125zM10.035156 8.945312C9.554688 8.945312 9.164062 8.554688 9.164062 8.074219 9.164062 7.589844 9.554688 7.199219 10.035156 7.199219 10.519531 7.199219 10.910156 7.589844 10.910156 8.074219 10.910156 8.554688 10.519531 8.945312 10.035156 8.945312zM10.035156 8.945312"/>
    <path d="M 22.757812 11.5625 L 21.816406 11.5625 L 21.816406 7.855469 C 21.816406 7.253906 21.328125 6.761719 20.726562 6.761719 C 20.125 6.761719 19.636719 7.253906 19.636719 7.855469 L 19.636719 11.5625 L 18.328125 11.5625 L 18.328125 7.855469 C 18.328125 7.253906 17.839844 6.761719 17.238281 6.761719 C 16.632812 6.761719 16.144531 7.253906 16.144531 7.855469 L 16.144531 11.5625 L 15.710938 11.5625 L 15.710938 0.21875 L 0 0.21875 L 0 15.925781 L 13.964844 15.925781 L 13.964844 17.570312 C 13.964844 19.070312 15.183594 20.289062 16.683594 20.289062 L 17.453125 20.289062 L 17.453125 22.035156 L 18.246094 22.035156 C 18.066406 22.542969 17.585938 22.910156 17.019531 22.910156 L 14.835938 22.910156 C 14.113281 22.910156 13.527344 22.320312 13.527344 21.601562 L 13.527344 21.164062 C 13.527344 19.480469 12.15625 18.109375 10.472656 18.109375 L 10.035156 18.109375 C 8.351562 18.109375 6.980469 19.480469 6.980469 21.164062 C 6.980469 21.40625 7.175781 21.601562 7.417969 21.601562 C 7.660156 21.601562 7.855469 21.40625 7.855469 21.164062 C 7.855469 19.960938 8.832031 18.980469 10.035156 18.980469 L 10.472656 18.980469 C 11.675781 18.980469 12.65625 19.960938 12.65625 21.164062 L 12.65625 21.601562 C 12.65625 22.804688 13.632812 23.78125 14.835938 23.78125 L 17.019531 23.78125 C 18.070312 23.78125 18.953125 23.03125 19.15625 22.035156 L 20.507812 22.035156 L 20.507812 20.289062 L 21.277344 20.289062 C 22.777344 20.289062 24 19.070312 24 17.570312 L 24 12.808594 C 24 12.121094 23.441406 11.5625 22.757812 11.5625 Z M 20.507812 7.855469 C 20.507812 7.734375 20.605469 7.636719 20.726562 7.636719 C 20.847656 7.636719 20.945312 7.734375 20.945312 7.855469 L 20.945312 12.4375 L 20.507812 12.4375 Z M 17.019531 7.855469 C 17.019531 7.734375 17.117188 7.636719 17.238281 7.636719 C 17.355469 7.636719 17.453125 7.734375 17.453125 7.855469 L 17.453125 12.4375 L 17.019531 12.4375 Z M 16.144531 12.4375 L 16.144531 13.308594 L 18.328125 13.308594 L 18.328125 12.4375 L 19.636719 12.4375 L 19.636719 13.308594 L 21.816406 13.308594 L 21.816406 12.4375 L 22.757812 12.4375 C 22.960938 12.4375 23.128906 12.601562 23.128906 12.808594 L 23.128906 13.746094 L 14.835938 13.746094 L 14.835938 12.820312 C 14.835938 12.609375 15.007812 12.4375 15.222656 12.4375 Z M 0.871094 15.054688 L 0.871094 1.089844 L 14.835938 1.089844 L 14.835938 11.625 C 14.816406 11.632812 14.796875 11.640625 14.773438 11.648438 C 14.75 11.660156 14.722656 11.667969 14.699219 11.679688 C 14.652344 11.703125 14.605469 11.726562 14.5625 11.753906 C 14.542969 11.765625 14.523438 11.777344 14.503906 11.789062 C 14.445312 11.832031 14.386719 11.878906 14.335938 11.929688 C 14.328125 11.9375 14.324219 11.945312 14.316406 11.949219 C 14.273438 11.996094 14.230469 12.046875 14.195312 12.101562 C 14.179688 12.121094 14.167969 12.140625 14.15625 12.160156 C 14.128906 12.203125 14.105469 12.25 14.082031 12.296875 C 14.070312 12.320312 14.0625 12.34375 14.050781 12.367188 C 14.03125 12.417969 14.019531 12.46875 14.003906 12.519531 C 14 12.542969 13.992188 12.566406 13.988281 12.589844 C 13.972656 12.664062 13.964844 12.742188 13.964844 12.820312 L 13.964844 15.054688 Z M 19.636719 21.164062 L 18.328125 21.164062 L 18.328125 20.289062 L 19.636719 20.289062 Z M 21.277344 19.417969 L 16.683594 19.417969 C 15.664062 19.417969 14.835938 18.589844 14.835938 17.570312 L 14.835938 14.617188 L 23.128906 14.617188 L 23.128906 17.570312 C 23.128906 18.589844 22.296875 19.417969 21.277344 19.417969 Z M 21.277344 19.417969"/>
</svg>
