<svg xmlns="http://www.w3.org/2000/svg" width="32" height="32" viewBox="0 0 24 24">
    <path d="M8.398 3.2h-4a.401.401 0 0 0 0 .8h4a.401.401 0 1 0 0-.8zm0 0M8.398 4.398h-4a.401.401 0 0 0 0 .801h4a.401.401 0 1 0 0-.8zm0 0"/>
    <path d="M21.121 5.602h-.32v-2h-6.403v2h-.32a.877.877 0 0 0-.879.875V9.12a.88.88 0 0 0 .88.879h.32v8.2A5.009 5.009 0 0 1 12 22.46a4.99 4.99 0 0 1-2.398-4.26V6.397h.32c.484 0 .879-.39.879-.875V2.88A.88.88 0 0 0 9.92 2h-.32V0H3.2v2h-.32A.88.88 0 0 0 2 2.879v2.64c0 .489.395.88.879.88h.32v11.8C3.2 21.4 5.801 24 9 24h6.2c.023 0 .046-.008.066-.012 3.074-.144 5.535-2.68 5.535-5.789V10h.32A.88.88 0 0 0 22 9.121v-2.64a.878.878 0 0 0-.879-.88zM15.2 4.398H16v.403a.4.4 0 0 0 .8 0v-.403H20v1.204h-4.8zM4 .801h.8v.398a.401.401 0 1 0 .802 0V.801H8.8V2H4zM2.879 5.6a.078.078 0 0 1-.078-.078V2.88c0-.043.035-.078.078-.078h7.043c.043 0 .078.035.078.078v2.64a.08.08 0 0 1-.078.083zM4 18.2V6.4h4.8v11.8c0 1.938.954 3.653 2.415 4.703l-.024.016a5.29 5.29 0 0 1-3.59-5.004V9.602a.401.401 0 0 0-.8 0v8.312c0 2 .972 3.773 2.469 4.883A5.285 5.285 0 0 1 6 17.914V9.602a.401.401 0 1 0-.8 0v8.312a6.08 6.08 0 0 0 2.952 5.207A5.003 5.003 0 0 1 4 18.2zm16 0c0 2.758-2.242 5-5 5h-.398c-.16 0-.32-.008-.477-.023-.086-.008-.168-.024-.254-.035a3.648 3.648 0 0 1-.203-.032c-.105-.02-.211-.047-.316-.074a1.169 1.169 0 0 1-.125-.031 5.054 5.054 0 0 1-.344-.113l-.055-.02A5.808 5.808 0 0 0 15.2 18.2V10H20zm1.2-9.078a.078.078 0 0 1-.079.078h-7.043A.078.078 0 0 1 14 9.121v-2.64a.08.08 0 0 1 .078-.083h7.043c.043 0 .078.036.078.079zm0 0"/>
    <path d="M19.602 6.8h-4a.401.401 0 1 0 0 .802h4a.401.401 0 0 0 0-.801zm0 0M19.602 8h-4a.401.401 0 1 0 0 .8h4a.401.401 0 0 0 0-.8zm0 0M16.785 21.906a.403.403 0 0 0 .563-.047 6.08 6.08 0 0 0 1.453-3.945v-3.113a.401.401 0 0 0-.8 0l-.001 3.113a5.29 5.29 0 0 1-1.262 3.426.406.406 0 0 0 .047.566zm0 0"/>
    <path d="M15.184 21.906a.406.406 0 0 0 .261.094c.11 0 .223-.047.301-.14a6.08 6.08 0 0 0 1.453-3.946v-3.113a.401.401 0 1 0-.8 0v3.113a5.279 5.279 0 0 1-1.258 3.426.402.402 0 0 0 .043.566zm0 0"/>
</svg>
