<svg xmlns="http://www.w3.org/2000/svg" width="32" height="32" viewBox="0 0 24 24">
    <path d="M6.398438 3.601562C6.503906 3.601562 6.605469 3.5625 6.683594 3.484375L8.28125 1.882812C8.4375 1.726562 8.4375 1.472656 8.28125 1.316406 8.125 1.160156 7.875 1.160156 7.71875 1.316406L6.117188 2.917969C5.960938 3.074219 5.960938 3.328125 6.117188 3.484375 6.195312 3.5625 6.296875 3.601562 6.398438 3.601562zM6.398438 5.601562C6.503906 5.601562 6.605469 5.5625 6.683594 5.484375L7.484375 4.683594C7.640625 4.527344 7.640625 4.273438 7.484375 4.117188 7.328125 3.960938 7.074219 3.960938 6.917969 4.117188L6.117188 4.917969C5.960938 5.074219 5.960938 5.328125 6.117188 5.484375 6.195312 5.5625 6.296875 5.601562 6.398438 5.601562zM7.714844 3.316406C7.644531 3.390625 7.601562 3.496094 7.601562 3.601562 7.601562 3.703125 7.644531 3.808594 7.714844 3.882812 7.792969 3.957031 7.890625 4 8 4 8.105469 4 8.207031 3.957031 8.285156 3.882812 8.355469 3.808594 8.398438 3.703125 8.398438 3.601562 8.398438 3.496094 8.355469 3.390625 8.285156 3.316406 8.136719 3.167969 7.863281 3.167969 7.714844 3.316406zM8.515625 3.082031C8.59375 3.160156 8.699219 3.199219 8.800781 3.199219 8.902344 3.199219 9.003906 3.160156 9.082031 3.082031L10.28125 1.882812C10.4375 1.726562 10.4375 1.472656 10.28125 1.316406 10.125 1.160156 9.875 1.160156 9.71875 1.316406L8.515625 2.515625C8.359375 2.671875 8.359375 2.925781 8.515625 3.082031zM6.398438 7.601562C6.503906 7.601562 6.605469 7.5625 6.683594 7.484375L10.28125 3.882812C10.4375 3.726562 10.4375 3.472656 10.28125 3.316406 10.125 3.160156 9.875 3.160156 9.71875 3.316406L6.117188 6.917969C5.960938 7.074219 5.960938 7.328125 6.117188 7.484375 6.195312 7.5625 6.296875 7.601562 6.398438 7.601562zM10.515625 3.085938C10.589844 3.15625 10.695312 3.199219 10.800781 3.199219 10.902344 3.199219 11.007812 3.15625 11.085938 3.085938 11.15625 3.007812 11.199219 2.902344 11.199219 2.800781 11.199219 2.695312 11.15625 2.589844 11.085938 2.515625 10.9375 2.367188 10.664062 2.367188 10.515625 2.515625 10.445312 2.589844 10.398438 2.691406 10.398438 2.800781 10.398438 2.90625 10.445312 3.007812 10.515625 3.085938zM11.601562 2.398438C11.703125 2.398438 11.804688 2.359375 11.882812 2.28125L12.28125 1.882812C12.4375 1.726562 12.4375 1.472656 12.28125 1.316406 12.125 1.160156 11.875 1.160156 11.71875 1.316406L11.316406 1.71875C11.160156 1.875 11.160156 2.125 11.316406 2.28125 11.394531 2.359375 11.496094 2.398438 11.601562 2.398438zM11.601562 2.398438"/>
    <path d="M 4.800781 0 L 4.800781 24 L 19.199219 24 L 19.199219 0 Z M 18.398438 23.199219 L 5.601562 23.199219 L 5.601562 20 L 18.398438 20 Z M 18.398438 19.199219 L 5.601562 19.199219 L 5.601562 0.800781 L 18.398438 0.800781 Z M 18.398438 19.199219"/>
    <path d="M9.601562 21.601562C9.601562 21.820312 9.421875 22 9.199219 22 8.980469 22 8.800781 21.820312 8.800781 21.601562 8.800781 21.378906 8.980469 21.199219 9.199219 21.199219 9.421875 21.199219 9.601562 21.378906 9.601562 21.601562zM10.800781 22L13.199219 22C13.421875 22 13.601562 21.820312 13.601562 21.601562 13.601562 21.378906 13.421875 21.199219 13.199219 21.199219L10.800781 21.199219C10.578125 21.199219 10.398438 21.378906 10.398438 21.601562 10.398438 21.820312 10.578125 22 10.800781 22zM14.800781 22L15.199219 22C15.421875 22 15.601562 21.820312 15.601562 21.601562 15.601562 21.378906 15.421875 21.199219 15.199219 21.199219L14.800781 21.199219C14.578125 21.199219 14.398438 21.378906 14.398438 21.601562 14.398438 21.820312 14.578125 22 14.800781 22zM14.800781 22"/>
</svg>
