<svg xmlns="http://www.w3.org/2000/svg" width="32" height="32" viewBox="0 0 24 24">
    <path d="M19.008 10h-.61V6.117C18.398 4.95 17.45 4 16.281 4h-.05l-.274-.477a2.91 2.91 0 0 1-.39-1.445C15.566.934 14.522 0 13.241 0H9.16C7.88 0 6.836.934 6.836 2.078c0 .496-.137.996-.395 1.445L6.168 4h-.05C4.948 4 4 4.95 4 6.117v11.766C4 19.05 4.95 20 6.117 20h.051l.273.477c.258.449.395.949.395 1.445C6.836 23.066 7.879 24 9.16 24h4.078c1.285 0 2.328-.934 2.328-2.078 0-.496.137-.996.391-1.445L16.23 20h.051c1.168 0 2.117-.95 2.117-2.117V14h.61a.994.994 0 0 0 .992-.992v-2.016a.994.994 0 0 0-.992-.992zM7.137 3.922c.324-.57.5-1.207.5-1.844 0-.703.683-1.277 1.523-1.277h4.078c.844 0 1.528.574 1.528 1.277 0 .637.171 1.274.5 1.844l.043.078h-8.22zm8.129 16.156c-.329.57-.5 1.207-.5 1.844 0 .707-.684 1.277-1.528 1.277H9.16c-.84 0-1.527-.574-1.527-1.277a3.74 3.74 0 0 0-.496-1.844L7.09 20h8.219zm2.336-2.195a1.32 1.32 0 0 1-1.32 1.316H6.116c-.726 0-1.316-.59-1.316-1.316V6.117c0-.726.59-1.316 1.316-1.316h10.164c.727 0 1.32.59 1.32 1.316zm1.597-4.875a.192.192 0 0 1-.191.191h-.61v-2.398h.61c.105 0 .191.086.191.191zm0 0"/>
    <path d="M6.398 8.398c.106 0 .207-.039.286-.117L8.28 6.684a.4.4 0 0 0 0-.567.396.396 0 0 0-.562 0L6.117 7.72a.396.396 0 0 0 0 .562c.078.078.18.117.281.117zm0 0M6.398 10.398c.106 0 .207-.039.286-.117l.8-.797a.4.4 0 0 0-.566-.566l-.8.8a.396.396 0 0 0 0 .563c.077.078.179.117.28.117zm0 0M7.715 8.117a.413.413 0 0 0-.113.281.399.399 0 0 0 .398.403c.11 0 .207-.043.285-.117a.423.423 0 0 0 .113-.286.42.42 0 0 0-.113-.28.42.42 0 0 0-.57 0zm0 0M8.516 7.883A.405.405 0 0 0 8.8 8c.101 0 .203-.04.281-.117l1.2-1.2a.4.4 0 0 0 0-.566.396.396 0 0 0-.563 0l-1.203 1.2a.4.4 0 0 0 0 .566zm0 0M9.719 8.117L6.117 11.72a.396.396 0 0 0 0 .562.399.399 0 0 0 .566 0l3.598-3.597a.4.4 0 0 0 0-.567.396.396 0 0 0-.562 0zm0 0M10.52 7.316a.398.398 0 0 0-.122.286c0 .105.047.207.118.28.074.075.18.118.285.118a.423.423 0 0 0 .285-.117.42.42 0 0 0 .113-.281.423.423 0 0 0-.113-.286.416.416 0 0 0-.566 0zm0 0M11.719 6.117l-.403.399a.4.4 0 0 0 .567.566l.398-.398a.4.4 0 0 0 0-.567.396.396 0 0 0-.562 0zm0 0"/>
</svg>
