<svg xmlns="http://www.w3.org/2000/svg" width="32" height="32" viewBox="0 0 24 24">
    <path d="M6.398438 6C6.503906 6 6.605469 5.960938 6.683594 5.882812L8.28125 4.28125C8.4375 4.125 8.4375 3.875 8.28125 3.71875 8.125 3.5625 7.875 3.5625 7.71875 3.71875L6.117188 5.316406C5.960938 5.472656 5.960938 5.726562 6.117188 5.882812 6.195312 5.960938 6.296875 6 6.398438 6zM6.398438 8C6.503906 8 6.605469 7.960938 6.683594 7.882812L7.484375 7.082031C7.640625 6.925781 7.640625 6.671875 7.484375 6.515625 7.328125 6.359375 7.074219 6.359375 6.917969 6.515625L6.117188 7.316406C5.960938 7.472656 5.960938 7.726562 6.117188 7.882812 6.195312 7.960938 6.296875 8 6.398438 8zM7.714844 5.714844C7.644531 5.792969 7.601562 5.890625 7.601562 6 7.601562 6.105469 7.644531 6.207031 7.714844 6.285156 7.792969 6.355469 7.894531 6.398438 8 6.398438 8.105469 6.398438 8.207031 6.355469 8.285156 6.285156 8.355469 6.207031 8.398438 6.105469 8.398438 6 8.398438 5.894531 8.355469 5.792969 8.285156 5.714844 8.132812 5.566406 7.863281 5.566406 7.714844 5.714844zM8.515625 5.484375C8.59375 5.5625 8.699219 5.601562 8.800781 5.601562 8.902344 5.601562 9.003906 5.5625 9.082031 5.484375L10.28125 4.28125C10.4375 4.125 10.4375 3.875 10.28125 3.71875 10.125 3.5625 9.875 3.5625 9.71875 3.71875L8.515625 4.917969C8.359375 5.074219 8.359375 5.328125 8.515625 5.484375zM9.71875 5.71875L6.117188 9.316406C5.960938 9.472656 5.960938 9.726562 6.117188 9.882812 6.195312 9.960938 6.296875 10 6.398438 10 6.503906 10 6.605469 9.960938 6.683594 9.882812L10.28125 6.28125C10.4375 6.125 10.4375 5.875 10.28125 5.71875 10.125 5.5625 9.875 5.5625 9.71875 5.71875zM10.515625 4.914062C10.445312 4.992188 10.398438 5.089844 10.398438 5.199219 10.398438 5.304688 10.445312 5.40625 10.515625 5.484375 10.589844 5.554688 10.695312 5.601562 10.800781 5.601562 10.902344 5.601562 11.007812 5.554688 11.085938 5.484375 11.160156 5.40625 11.199219 5.304688 11.199219 5.199219 11.199219 5.097656 11.15625 4.992188 11.085938 4.914062 10.933594 4.769531 10.664062 4.769531 10.515625 4.914062zM9.316406 1.316406C9.242188 1.390625 9.199219 1.496094 9.199219 1.601562 9.199219 1.703125 9.242188 1.808594 9.316406 1.882812 9.390625 1.957031 9.496094 2 9.601562 2 9.703125 2 9.808594 1.957031 9.882812 1.882812 9.957031 1.808594 10 1.703125 10 1.601562 10 1.496094 9.957031 1.390625 9.882812 1.316406 9.730469 1.167969 9.46875 1.167969 9.316406 1.316406zM6.117188 1.316406C6.042969 1.390625 6 1.492188 6 1.601562 6 1.707031 6.042969 1.808594 6.117188 1.882812 6.191406 1.957031 6.292969 2 6.398438 2 6.503906 2 6.609375 1.957031 6.683594 1.882812 6.757812 1.808594 6.800781 1.703125 6.800781 1.601562 6.800781 1.496094 6.757812 1.390625 6.683594 1.316406 6.53125 1.167969 6.265625 1.167969 6.117188 1.316406zM17.316406 1.316406C17.242188 1.390625 17.199219 1.496094 17.199219 1.601562 17.199219 1.703125 17.242188 1.808594 17.316406 1.882812 17.390625 1.957031 17.492188 2 17.601562 2 17.707031 2 17.808594 1.957031 17.882812 1.882812 17.957031 1.808594 18 1.703125 18 1.601562 18 1.496094 17.957031 1.390625 17.882812 1.316406 17.734375 1.167969 17.464844 1.167969 17.316406 1.316406zM10.515625 1.316406C10.445312 1.390625 10.398438 1.496094 10.398438 1.601562 10.398438 1.703125 10.445312 1.808594 10.515625 1.882812 10.589844 1.957031 10.695312 2 10.800781 2 10.902344 2 11.007812 1.957031 11.085938 1.882812 11.160156 1.808594 11.199219 1.703125 11.199219 1.601562 11.199219 1.496094 11.160156 1.390625 11.085938 1.316406 10.933594 1.167969 10.664062 1.167969 10.515625 1.316406zM11.714844 1.316406C11.644531 1.390625 11.601562 1.492188 11.601562 1.601562 11.601562 1.703125 11.644531 1.808594 11.714844 1.882812 11.792969 1.960938 11.894531 2 12 2 12.105469 2 12.207031 1.960938 12.285156 1.882812 12.355469 1.808594 12.398438 1.703125 12.398438 1.601562 12.398438 1.496094 12.355469 1.390625 12.285156 1.316406 12.136719 1.167969 11.859375 1.167969 11.714844 1.316406zM12.914062 1.316406C12.84375 1.390625 12.800781 1.496094 12.800781 1.601562 12.800781 1.703125 12.84375 1.808594 12.914062 1.882812 12.992188 1.957031 13.097656 2 13.199219 2 13.304688 2 13.40625 1.957031 13.484375 1.882812 13.558594 1.808594 13.601562 1.703125 13.601562 1.601562 13.601562 1.496094 13.554688 1.390625 13.484375 1.316406 13.332031 1.167969 13.0625 1.167969 12.914062 1.316406zM14.117188 1.316406C14.042969 1.390625 14 1.492188 14 1.601562 14 1.703125 14.042969 1.808594 14.117188 1.882812 14.191406 1.957031 14.296875 2 14.398438 2 14.503906 2 14.609375 1.957031 14.683594 1.882812 14.757812 1.808594 14.800781 1.703125 14.800781 1.601562 14.800781 1.496094 14.757812 1.390625 14.683594 1.316406 14.535156 1.167969 14.269531 1.167969 14.117188 1.316406zM9.601562 22.800781C9.703125 22.800781 9.808594 22.757812 9.882812 22.683594 9.957031 22.609375 10 22.503906 10 22.398438 10 22.292969 9.957031 22.191406 9.882812 22.117188 9.734375 21.96875 9.464844 21.96875 9.316406 22.117188 9.242188 22.191406 9.199219 22.296875 9.199219 22.398438 9.199219 22.503906 9.242188 22.609375 9.316406 22.683594 9.390625 22.757812 9.496094 22.800781 9.601562 22.800781zM10.800781 22.800781C10.902344 22.800781 11.007812 22.757812 11.085938 22.683594 11.15625 22.609375 11.199219 22.503906 11.199219 22.398438 11.199219 22.296875 11.160156 22.191406 11.085938 22.117188 10.933594 21.96875 10.664062 21.96875 10.515625 22.117188 10.445312 22.191406 10.398438 22.296875 10.398438 22.398438 10.398438 22.507812 10.445312 22.609375 10.515625 22.683594 10.589844 22.757812 10.691406 22.800781 10.800781 22.800781zM12 22.800781C12.105469 22.800781 12.207031 22.757812 12.285156 22.683594 12.355469 22.609375 12.398438 22.503906 12.398438 22.398438 12.398438 22.296875 12.355469 22.191406 12.285156 22.117188 12.136719 21.96875 11.863281 21.96875 11.714844 22.117188 11.644531 22.191406 11.601562 22.296875 11.601562 22.398438 11.601562 22.503906 11.644531 22.609375 11.714844 22.683594 11.792969 22.757812 11.890625 22.800781 12 22.800781zM13.199219 22.800781C13.304688 22.800781 13.40625 22.757812 13.484375 22.683594 13.554688 22.609375 13.601562 22.503906 13.601562 22.398438 13.601562 22.296875 13.558594 22.191406 13.484375 22.117188 13.332031 21.96875 13.066406 21.96875 12.914062 22.117188 12.84375 22.191406 12.800781 22.296875 12.800781 22.398438 12.800781 22.503906 12.84375 22.609375 12.914062 22.683594 12.992188 22.757812 13.097656 22.800781 13.199219 22.800781zM14.398438 22.800781C14.503906 22.800781 14.609375 22.757812 14.683594 22.683594 14.757812 22.609375 14.800781 22.503906 14.800781 22.398438 14.800781 22.296875 14.757812 22.191406 14.683594 22.121094 14.535156 21.96875 14.265625 21.96875 14.117188 22.117188 14.042969 22.191406 14 22.296875 14 22.398438 14 22.507812 14.042969 22.609375 14.117188 22.683594 14.191406 22.757812 14.296875 22.800781 14.398438 22.800781zM11.71875 3.71875L11.316406 4.117188C11.160156 4.273438 11.160156 4.527344 11.316406 4.683594 11.394531 4.761719 11.496094 4.800781 11.601562 4.800781 11.703125 4.800781 11.804688 4.761719 11.882812 4.683594L12.28125 4.28125C12.4375 4.125 12.4375 3.875 12.28125 3.71875 12.125 3.5625 11.875 3.5625 11.71875 3.71875zM11.71875 3.71875"/>
    <path d="M 17.328125 0 L 6.671875 0 C 5.640625 0 4.800781 0.839844 4.800781 1.871094 L 4.800781 22.128906 C 4.800781 23.160156 5.640625 24 6.671875 24 L 17.328125 24 C 18.359375 24 19.199219 23.160156 19.199219 22.128906 L 19.199219 1.871094 C 19.199219 0.839844 18.359375 0 17.328125 0 Z M 5.601562 3.199219 L 18.398438 3.199219 L 18.398438 20.800781 L 5.601562 20.800781 Z M 18.398438 22.128906 C 18.398438 22.71875 17.917969 23.199219 17.328125 23.199219 L 6.671875 23.199219 C 6.082031 23.199219 5.601562 22.71875 5.601562 22.128906 L 5.601562 21.601562 L 18.398438 21.601562 Z M 5.601562 2.398438 L 5.601562 1.871094 C 5.601562 1.28125 6.082031 0.800781 6.671875 0.800781 L 17.328125 0.800781 C 17.917969 0.800781 18.398438 1.28125 18.398438 1.871094 L 18.398438 2.398438 Z M 5.601562 2.398438"/>
</svg>
