<svg xmlns="http://www.w3.org/2000/svg" width="32" height="32" viewBox="0 0 24 24">
    <path d="M6.398 6c.106 0 .207-.04.286-.117L8.28 4.28a.396.396 0 0 0 0-.562.396.396 0 0 0-.562 0L6.117 5.316A.4.4 0 0 0 6.398 6zm0 0M6.398 8c.106 0 .207-.04.286-.117l.8-.801a.4.4 0 0 0-.566-.566l-.8.8a.4.4 0 0 0 .28.684zm0 0M7.715 5.715A.423.423 0 0 0 7.602 6a.43.43 0 0 0 .113.285.43.43 0 0 0 .285.113.43.43 0 0 0 .285-.113A.43.43 0 0 0 8.398 6a.43.43 0 0 0-.113-.285.42.42 0 0 0-.57 0zm0 0M8.516 5.484a.405.405 0 0 0 .285.118c.101 0 .203-.04.281-.118l1.2-1.203a.396.396 0 0 0 0-.562.396.396 0 0 0-.563 0L8.516 4.918a.4.4 0 0 0 0 .566zm0 0M9.719 5.719L6.117 9.316a.4.4 0 0 0 .567.567L10.28 6.28a.396.396 0 0 0 0-.562.396.396 0 0 0-.562 0zm0 0M10.516 4.914a.426.426 0 0 0-.118.285c0 .106.047.207.118.285.074.07.18.118.285.118a.442.442 0 0 0 .285-.118.43.43 0 0 0 .113-.285.39.39 0 0 0-.113-.277.421.421 0 0 0-.57-.008zm0 0M6.516 1.316a.419.419 0 0 0-.118.286c0 .101.047.207.118.28a.409.409 0 0 0 .57 0 .42.42 0 0 0 .113-.28.423.423 0 0 0-.113-.286.42.42 0 0 0-.57 0zm0 0M11.719 3.719l-.403.398a.4.4 0 0 0 .567.567l.398-.403a.396.396 0 0 0 0-.562.396.396 0 0 0-.562 0zm0 0"/>
    <path d="M17.965 0H6.035c-.68 0-1.234.555-1.234 1.234v21.532c0 .68.554 1.234 1.234 1.234h11.93c.68 0 1.234-.555 1.234-1.234V1.234C19.2.554 18.645 0 17.965 0zM5.602 3.2h12.796v16.402H5.602zm12.796 19.566a.435.435 0 0 1-.433.433H6.035a.435.435 0 0 1-.433-.433v-2.368h12.796zM5.602 2.398V1.234c0-.238.195-.433.433-.433h11.93c.238 0 .433.195.433.433v1.164zm0 0"/>
    <path d="M13.2 1.2h-2.4a.401.401 0 0 0 0 .8h2.4a.401.401 0 1 0 0-.8zm0 0M16.8 1.2h-.402a.401.401 0 0 0 0 .8h.403a.4.4 0 0 0 0-.8zm0 0M15.2 1.2h-.4a.401.401 0 0 0 0 .8h.4a.401.401 0 1 0 0-.8zm0 0M11 22.8h2c.55 0 1-.448 1-1 0-.55-.45-1-1-1h-2c-.55 0-1 .45-1 1 0 .552.45 1 1 1zm0-1.198h2c.11 0 .2.09.2.199A.2.2 0 0 1 13 22h-2a.2.2 0 0 1-.2-.2c0-.109.09-.198.2-.198zm0 0"/>
</svg>
