<svg xmlns="http://www.w3.org/2000/svg" width="32" height="32" viewBox="0 0 24 24">
    <path d="M2.398 5.2a.398.398 0 1 1-.796 0 .398.398 0 1 1 .796 0zm0 0M2.398 18.8a.398.398 0 1 1-.796 0 .398.398 0 1 1 .796 0zm0 0M22.398 5.2a.398.398 0 1 1-.796 0 .398.398 0 1 1 .796 0zm0 0M22.398 18.8a.398.398 0 1 1-.796 0 .398.398 0 1 1 .796 0zm0 0M18.11 13.926c-.516-1.18-2.282-1.508-4.016-.742-.797.347-1.465.882-1.88 1.5-.448.671-.554 1.367-.292 1.96.262.594.844.989 1.644 1.11.172.027.348.039.532.039a4.6 4.6 0 0 0 1.84-.406c1.738-.762 2.69-2.282 2.171-3.461zm-2.493 2.73c-.66.29-1.344.399-1.93.309-.519-.082-.886-.309-1.03-.64-.15-.337-.067-.762.222-1.196.332-.492.875-.922 1.535-1.215a3.933 3.933 0 0 1 1.531-.34c.684 0 1.239.235 1.434.672.324.742-.48 1.844-1.762 2.41zm0 0"/>
    <path d="M22.766 3.2H1.234C.554 3.2 0 3.753 0 4.436v15.125c0 .684.555 1.239 1.234 1.239h21.532c.68 0 1.234-.555 1.234-1.238V4.438c0-.684-.555-1.239-1.234-1.239zM.8 4.436C.8 4.196.996 4 1.234 4h11.559c-.211 4.887-4.254 8.8-9.191 8.8H.8zm22.398 3.961H22V9.2h1.2v.403H22v.796h1.2v.403H22v.8h1.2V12H22v.8h1.2v1.598H22v.801h1.2v.403h-.802v.796h.801v.403h-.984l-.613-.922V8h1.597zm0-1.199h-2.398v8.922l.984 1.48H23.2v1.962a.436.436 0 0 1-.433.437H1.234a.436.436 0 0 1-.433-.438v-5.96h2.8c5.38 0 9.778-4.274 9.989-9.602h9.176c.238 0 .433.195.433.438zm0 0"/>
    <path d="M1.602 11.2h.796v.8h-.796zm0 0M1.602 10h.796v.8h-.796zm0 0M1.602 8.8h.796v.802h-.796zm0 0M1.602 7.602h.796v.796h-.796zm0 0M1.602 6.398h.796V7.2h-.796zm0 0M4 5.602h5.2v.796H4zm0 0M4 6.8h4v.802H4zm0 0M4 8h4.398v.8H4zm0 0M4 9.2h1.602v.8H4zm0 0"/>
</svg>
