<svg xmlns="http://www.w3.org/2000/svg" width="32" height="32" viewBox="0 0 24 24">
    <path d="M1.602 12v9.602h5.597V6.398H1.602zm4.796 8.8h-4v-4h4zm0-4.8h-4v-4h4zm-4-8.8h4v4h-4zm0 0"/>
    <path d="M20 4.8v-2h-.398v-1a1 1 0 1 0-2 0v1h-.403v2H0v18.4h24V4.8zm-1.602-3c0-.109.094-.198.204-.198.105 0 .199.09.199.199v1h-.403zM18 3.603h1.2v10H18zm-.719 10.476a.52.52 0 0 0 .055.285L18.152 16h.246v.8h.403V16h.246l.82-1.637a.554.554 0 0 0 .051-.285.627.627 0 0 0 .082-.308V7.2h1.602v13.6H8.8V7.2h8.398v6.57c0 .113.031.218.082.308zm1.32 1.027l-.355-.707h.707zm4.598 7.293H.801V5.602h16.398v.796H8v15.204h14.398V6.398H20v-.796h3.2zm0 0"/>
</svg>
