<svg xmlns="http://www.w3.org/2000/svg" width="32" height="32" viewBox="0 0 24 24">
    <path d="M22.992 2.8H1.008A1.01 1.01 0 0 0 0 3.81V20.19A1.01 1.01 0 0 0 1.008 21.2h21.984A1.01 1.01 0 0 0 24 20.191V3.81A1.01 1.01 0 0 0 22.992 2.8zm.207 17.391a.206.206 0 0 1-.207.207H1.008a.206.206 0 0 1-.207-.207v-1.793a.398.398 0 1 0 0-.796v-.403a.4.4 0 0 0 0-.8V16a.4.4 0 0 0 0-.8v-.4a.401.401 0 0 0 0-.8v-.398a.401.401 0 0 0 0-.801v-.403a.398.398 0 1 0 0-.796v-.403a.4.4 0 0 0 0-.8V10a.4.4 0 0 0 0-.8v-.4a.401.401 0 0 0 0-.8v-.398a.401.401 0 0 0 0-.801v-.403a.398.398 0 1 0 0-.796V3.809c0-.118.094-.207.207-.207h21.984c.113 0 .207.09.207.207v1.793a.398.398 0 1 0 0 .796v.403a.4.4 0 0 0 0 .8V8a.4.4 0 0 0 0 .8v.4a.401.401 0 0 0 0 .8v.398a.401.401 0 0 0 0 .801v.403a.398.398 0 1 0 0 .796v.403a.4.4 0 0 0 0 .8V14a.4.4 0 0 0 0 .8v.4a.401.401 0 0 0 0 .8v.398a.401.401 0 0 0 0 .801v.403a.398.398 0 1 0 0 .796zm0 0"/>
    <path d="M1.602 20h20.796V4H1.602zm.796-15.2h19.204v14.4H2.398zm0 0"/>
    <path d="M3.602 8c.101 0 .203-.04.28-.117L5.485 6.28a.396.396 0 0 0 0-.562.4.4 0 0 0-.566 0L3.316 7.316A.4.4 0 0 0 3.602 8zm0 0M3.602 10c.101 0 .203-.04.28-.117l.802-.801a.4.4 0 0 0-.567-.566l-.8.8a.4.4 0 0 0 .285.684zm0 0M4.914 7.715A.43.43 0 0 0 4.801 8a.43.43 0 0 0 .113.285c.078.07.184.113.285.113a.43.43 0 0 0 .285-.113A.434.434 0 0 0 5.602 8a.434.434 0 0 0-.118-.285.42.42 0 0 0-.57 0zm0 0M5.719 7.484a.396.396 0 0 0 .562 0l1.203-1.203a.396.396 0 0 0 0-.562.4.4 0 0 0-.566 0l-1.2 1.199a.4.4 0 0 0 0 .566zm0 0M6.918 7.719l-3.602 3.597a.4.4 0 0 0 .567.567L7.484 8.28a.396.396 0 0 0 0-.562.4.4 0 0 0-.566 0zm0 0M7.715 6.914a.43.43 0 0 0-.113.285c0 .11.043.207.113.285.078.07.18.118.285.118a.434.434 0 0 0 .285-.118.43.43 0 0 0 .113-.285.438.438 0 0 0-.113-.285.43.43 0 0 0-.57 0zm0 0M8.918 5.719l-.402.398a.4.4 0 0 0 .566.567l.402-.403a.396.396 0 0 0 0-.562.4.4 0 0 0-.566 0zm0 0"/>
</svg>
