<svg xmlns="http://www.w3.org/2000/svg" width="32" height="32" viewBox="0 0 24 24">
    <path d="M22 12.602a.395.395 0 0 0-.398.398v2c0 .223.175.398.398.398a.395.395 0 0 0 .398-.398v-2a.395.395 0 0 0-.398-.398zm0 0M2.398 9.398h1.204a.398.398 0 1 0 0-.796H2.398a.398.398 0 1 0 0 .796zm0 0M2.398 11h1.204a.4.4 0 0 0 0-.8H2.398a.401.401 0 0 0 0 .8zm0 0M3.602 16.2H2.398a.401.401 0 0 0 0 .8h1.204a.4.4 0 0 0 0-.8zm0 0M3.602 17.8H2.398a.4.4 0 0 0 0 .802h1.204a.401.401 0 0 0 0-.801zm0 0M3 15.398a1.8 1.8 0 0 0 1.8-1.796c0-.993-.808-1.801-1.8-1.801s-1.8.808-1.8 1.8A1.8 1.8 0 0 0 3 15.399zm0-2.796a1 1 0 1 1 .001 1.998A1 1 0 0 1 3 12.602zm0 0"/>
    <path d="M3.602 13.602a.601.601 0 0 1-1.204 0 .602.602 0 0 1 1.204 0zm0 0"/>
    <path d="M22.055 4.2h-3.657V3H18V2c0-.55-.45-1-1-1s-1 .45-1 1v1h-.398v1.2H1.945C.875 4.2 0 5.073 0 6.147v14.907A1.95 1.95 0 0 0 1.945 23h20.11A1.95 1.95 0 0 0 24 21.055V6.148c0-1.074-.875-1.949-1.945-1.949zM16.8 2c0-.11.09-.2.199-.2.11 0 .2.09.2.2v1h-.4zm-.403 1.8h1.204v10h-1.204zm-.714 10.477a.517.517 0 0 0 .05.286l.82 1.636h.247V17h.398v-.8h.246l.82-1.637a.517.517 0 0 0 .051-.286.623.623 0 0 0 .082-.304V7.8H20v11.597H6V7.801h9.602v6.172c0 .109.03.214.082.304zM17 15.305l-.352-.703h.704zM.8 6.148A1.15 1.15 0 0 1 1.946 5h13.657v2H.8zm4.4 1.653v11.597H.8V7.801zm18 13.254c0 .633-.516 1.144-1.145 1.144H1.945a1.149 1.149 0 0 1-1.144-1.144v-.856h20V7h-2.403V5h3.657a1.15 1.15 0 0 1 1.144 1.148zm0 0"/>
</svg>
