<svg xmlns="http://www.w3.org/2000/svg" width="32" height="32" viewBox="0 0 24 24">
    <path d="M2 8.098c.102 0 .203-.04.281-.118l1.602-1.597a.4.4 0 0 0-.567-.567L1.72 7.418a.396.396 0 0 0 0 .562c.078.079.18.118.281.118zm0 0M2 10.098c.102 0 .203-.04.281-.118l.801-.796a.4.4 0 0 0-.566-.567l-.797.801a.396.396 0 0 0 0 .562c.078.079.18.118.281.118zm0 0M3.316 7.816a.406.406 0 0 0-.117.282c0 .105.043.21.117.285.075.074.18.117.286.117a.406.406 0 0 0 .28-.117A.409.409 0 0 0 4 8.098a.406.406 0 0 0-.117-.282.416.416 0 0 0-.567 0zm0 0M4.117 7.582a.399.399 0 0 0 .566 0l1.2-1.2a.4.4 0 0 0-.567-.566l-1.199 1.2a.4.4 0 0 0 0 .566zm0 0M5.316 7.816L1.72 11.418a.396.396 0 0 0 0 .562.396.396 0 0 0 .562 0l3.602-3.597a.4.4 0 0 0-.567-.567zm0 0M6.117 7.016A.409.409 0 0 0 6 7.3a.4.4 0 0 0 .8 0 .409.409 0 0 0-.116-.285.416.416 0 0 0-.567 0zm0 0M7.316 5.816l-.398.403a.396.396 0 0 0 0 .562c.078.078.18.117.281.117.102 0 .207-.039.285-.117l.399-.398a.4.4 0 0 0-.567-.567zm0 0"/>
    <path d="M22.2 2.898H1.8C.81 2.898 0 3.707 0 4.7v12c0 .992.809 1.801 1.8 1.801h7.802v.8H8.199c-.77 0-1.398.63-1.398 1.4a.401.401 0 1 0 .8 0 .6.6 0 0 1 .598-.598h7.602a.6.6 0 0 1 .597.597.401.401 0 0 0 .8 0c.001-.77-.628-1.398-1.397-1.398h-1.403V18.5H22.2c.992 0 1.801-.809 1.801-1.8v-12c0-.993-.809-1.802-1.8-1.802zm-21.4 2h22.4V16.5l-22.4.004zm1-1.199h20.4c.327 0 .613.16.796.399H1.004c.183-.239.469-.399.797-.399zm11.802 15.602h-3.204V18.5h3.204zm8.597-1.602H1.801a.993.993 0 0 1-.797-.398h21.992a.993.993 0 0 1-.797.398zm0 0"/>
</svg>
