<svg xmlns="http://www.w3.org/2000/svg" width="32" height="32" viewBox="0 0 24 24">
    <path d="M1.601562 7.699219C1.703125 7.699219 1.804688 7.660156 1.882812 7.582031L3.484375 5.984375C3.640625 5.828125 3.640625 5.574219 3.484375 5.417969 3.328125 5.261719 3.074219 5.261719 2.917969 5.417969L1.316406 7.015625C1.160156 7.171875 1.160156 7.425781 1.316406 7.582031 1.394531 7.660156 1.496094 7.699219 1.601562 7.699219zM1.601562 9.699219C1.703125 9.699219 1.804688 9.660156 1.882812 9.582031L2.683594 8.78125C2.839844 8.625 2.839844 8.375 2.683594 8.21875 2.527344 8.0625 2.273438 8.0625 2.117188 8.21875L1.316406 9.015625C1.160156 9.171875 1.160156 9.425781 1.316406 9.582031 1.394531 9.660156 1.496094 9.699219 1.601562 9.699219zM2.914062 7.414062C2.84375 7.492188 2.800781 7.597656 2.800781 7.699219 2.800781 7.808594 2.84375 7.90625 2.914062 7.984375 2.992188 8.054688 3.097656 8.101562 3.199219 8.101562 3.304688 8.101562 3.40625 8.054688 3.484375 7.984375 3.554688 7.90625 3.601562 7.804688 3.601562 7.699219 3.601562 7.597656 3.554688 7.492188 3.484375 7.414062 3.332031 7.269531 3.0625 7.269531 2.914062 7.414062zM3.71875 7.183594C3.796875 7.261719 3.898438 7.300781 4 7.300781 4.101562 7.300781 4.203125 7.261719 4.28125 7.183594L5.484375 5.984375C5.640625 5.828125 5.640625 5.574219 5.484375 5.417969 5.328125 5.261719 5.074219 5.261719 4.917969 5.417969L3.71875 6.617188C3.5625 6.773438 3.5625 7.027344 3.71875 7.183594zM4.917969 7.417969L1.316406 11.015625C1.160156 11.171875 1.160156 11.425781 1.316406 11.582031 1.394531 11.660156 1.496094 11.699219 1.601562 11.699219 1.703125 11.699219 1.804688 11.660156 1.882812 11.582031L5.484375 7.984375C5.640625 7.828125 5.640625 7.574219 5.484375 7.417969 5.328125 7.261719 5.074219 7.261719 4.917969 7.417969zM5.714844 6.617188C5.644531 6.691406 5.601562 6.796875 5.601562 6.898438 5.601562 7.003906 5.644531 7.109375 5.714844 7.183594 5.792969 7.257812 5.894531 7.300781 6 7.300781 6.105469 7.300781 6.207031 7.257812 6.285156 7.183594 6.355469 7.109375 6.398438 7.003906 6.398438 6.898438 6.398438 6.796875 6.355469 6.691406 6.285156 6.617188 6.136719 6.46875 5.859375 6.46875 5.714844 6.617188zM6.917969 5.417969L6.515625 5.816406C6.359375 5.972656 6.359375 6.226562 6.515625 6.382812 6.59375 6.460938 6.699219 6.5 6.800781 6.5 6.902344 6.5 7.003906 6.460938 7.082031 6.382812L7.484375 5.984375C7.640625 5.828125 7.640625 5.574219 7.484375 5.417969 7.328125 5.261719 7.074219 5.261719 6.917969 5.417969zM6.917969 5.417969"/>
    <path d="M 22.199219 2.898438 L 1.800781 2.898438 C 0.808594 2.898438 0 3.707031 0 4.699219 L 0 16.699219 C 0 17.691406 0.808594 18.5 1.800781 18.5 L 9.601562 18.5 L 9.601562 19.300781 L 8.199219 19.300781 C 7.429688 19.300781 6.800781 19.929688 6.800781 20.699219 C 6.800781 20.921875 6.980469 21.101562 7.199219 21.101562 C 7.421875 21.101562 7.601562 20.921875 7.601562 20.699219 C 7.601562 20.371094 7.871094 20.101562 8.199219 20.101562 L 15.800781 20.101562 C 16.128906 20.101562 16.398438 20.371094 16.398438 20.699219 C 16.398438 20.921875 16.578125 21.101562 16.800781 21.101562 C 17.019531 21.101562 17.199219 20.921875 17.199219 20.699219 C 17.199219 19.929688 16.570312 19.300781 15.800781 19.300781 L 14.398438 19.300781 L 14.398438 18.5 L 22.199219 18.5 C 23.191406 18.5 24 17.691406 24 16.699219 L 24 4.699219 C 24 3.707031 23.191406 2.898438 22.199219 2.898438 Z M 0.800781 15.699219 L 0.800781 4.898438 L 23.199219 4.898438 L 23.199219 15.699219 Z M 1.800781 3.699219 L 22.199219 3.699219 C 22.527344 3.699219 22.8125 3.859375 22.996094 4.101562 L 1.003906 4.101562 C 1.1875 3.859375 1.472656 3.699219 1.800781 3.699219 Z M 1.800781 17.699219 C 1.25 17.699219 0.800781 17.25 0.800781 16.699219 L 0.800781 16.5 L 11.601562 16.5 L 11.601562 17.699219 Z M 13.601562 19.300781 L 10.398438 19.300781 L 10.398438 18.5 L 13.601562 18.5 Z M 23.199219 16.699219 C 23.199219 17.25 22.75 17.699219 22.199219 17.699219 L 12.398438 17.699219 L 12.398438 16.5 L 23.199219 16.5 Z M 23.199219 16.699219"/>
</svg>
