<svg xmlns="http://www.w3.org/2000/svg" width="32" height="32" viewBox="0 0 24 24">
    <path d="M 21.082031 5.042969 L 20.765625 4.722656 L 16.585938 0.546875 L 16.265625 0.226562 C 16.121094 0.0820312 15.921875 0 15.71875 0 L 3.707031 0 C 3.21875 0 2.691406 0.378906 2.691406 1.210938 L 2.691406 23.171875 C 2.691406 23.519531 3.039062 23.855469 3.449219 23.960938 C 3.472656 23.96875 3.492188 23.976562 3.511719 23.980469 C 3.578125 23.992188 3.644531 24 3.707031 24 L 20.292969 24 C 20.355469 24 20.421875 23.992188 20.488281 23.980469 C 20.507812 23.976562 20.527344 23.96875 20.550781 23.960938 C 20.960938 23.855469 21.308594 23.519531 21.308594 23.171875 L 21.308594 5.785156 C 21.308594 5.464844 21.273438 5.230469 21.082031 5.042969 Z M 19.835938 4.964844 L 16.34375 4.964844 L 16.34375 1.476562 Z M 3.707031 23.171875 C 3.679688 23.171875 3.652344 23.160156 3.625 23.152344 C 3.5625 23.121094 3.515625 23.058594 3.515625 22.980469 L 3.515625 16.964844 L 20.484375 16.964844 L 20.484375 22.980469 C 20.484375 23.058594 20.4375 23.121094 20.375 23.152344 C 20.347656 23.160156 20.320312 23.171875 20.292969 23.171875 Z M 3.515625 16.136719 L 3.515625 1.210938 C 3.515625 1.121094 3.53125 0.828125 3.707031 0.828125 L 15.542969 0.828125 C 15.527344 0.878906 15.515625 0.933594 15.515625 0.988281 L 15.515625 5.792969 L 20.320312 5.792969 C 20.375 5.792969 20.429688 5.78125 20.480469 5.769531 C 20.480469 5.773438 20.484375 5.777344 20.484375 5.785156 L 20.484375 16.136719 Z M 3.515625 16.136719"/>
    <path d="M7.460938 19.015625C7.5625 18.890625 7.675781 18.800781 7.800781 18.746094 7.929688 18.695312 8.0625 18.667969 8.199219 18.667969 8.324219 18.667969 8.445312 18.691406 8.558594 18.742188 8.675781 18.789062 8.78125 18.871094 8.875 18.980469L9.34375 18.558594C9.1875 18.410156 9.011719 18.296875 8.816406 18.222656 8.621094 18.144531 8.410156 18.109375 8.183594 18.109375 7.9375 18.109375 7.710938 18.152344 7.5 18.246094 7.289062 18.339844 7.105469 18.472656 6.949219 18.652344 6.792969 18.828125 6.667969 19.050781 6.582031 19.316406 6.492188 19.582031 6.449219 19.890625 6.449219 20.242188 6.449219 20.589844 6.492188 20.902344 6.582031 21.167969 6.667969 21.4375 6.792969 21.660156 6.949219 21.835938 7.105469 22.011719 7.289062 22.148438 7.496094 22.238281 7.707031 22.328125 7.933594 22.375 8.183594 22.375 8.410156 22.375 8.621094 22.335938 8.816406 22.261719 9.011719 22.183594 9.1875 22.070312 9.34375 21.921875L8.875 21.507812C8.777344 21.617188 8.667969 21.695312 8.546875 21.746094 8.429688 21.792969 8.300781 21.820312 8.167969 21.820312 8.03125 21.820312 7.902344 21.789062 7.777344 21.730469 7.65625 21.671875 7.546875 21.582031 7.449219 21.453125 7.355469 21.328125 7.277344 21.164062 7.222656 20.964844 7.167969 20.765625 7.140625 20.523438 7.136719 20.242188 7.140625 19.949219 7.171875 19.707031 7.226562 19.503906 7.285156 19.304688 7.363281 19.140625 7.460938 19.015625zM12.21875 20.300781C12.089844 20.207031 11.949219 20.128906 11.796875 20.0625 11.648438 19.996094 11.507812 19.929688 11.378906 19.859375 11.25 19.789062 11.144531 19.707031 11.058594 19.613281 10.96875 19.523438 10.925781 19.402344 10.925781 19.25 10.925781 19.191406 10.941406 19.125 10.972656 19.0625 11.003906 18.996094 11.042969 18.933594 11.097656 18.882812 11.148438 18.828125 11.210938 18.785156 11.277344 18.75 11.347656 18.714844 11.417969 18.691406 11.492188 18.683594 11.628906 18.671875 11.742188 18.671875 11.828125 18.679688 11.914062 18.6875 11.984375 18.699219 12.035156 18.71875 12.089844 18.738281 12.128906 18.757812 12.160156 18.773438 12.1875 18.792969 12.210938 18.808594 12.234375 18.820312 12.238281 18.816406 12.25 18.796875 12.269531 18.761719 12.289062 18.730469 12.308594 18.6875 12.335938 18.636719 12.363281 18.585938 12.390625 18.53125 12.421875 18.472656 12.453125 18.414062 12.476562 18.359375 12.5 18.3125 12.390625 18.238281 12.246094 18.1875 12.070312 18.15625 11.894531 18.125 11.71875 18.105469 11.542969 18.105469 11.375 18.105469 11.214844 18.132812 11.0625 18.1875 10.910156 18.238281 10.773438 18.316406 10.660156 18.414062 10.542969 18.515625 10.453125 18.636719 10.386719 18.78125 10.316406 18.925781 10.28125 19.085938 10.28125 19.273438 10.28125 19.476562 10.328125 19.644531 10.414062 19.78125 10.5 19.917969 10.609375 20.035156 10.742188 20.132812 10.875 20.234375 11.015625 20.320312 11.164062 20.394531 11.316406 20.46875 11.457031 20.542969 11.585938 20.617188 11.71875 20.6875 11.824219 20.769531 11.914062 20.863281 12 20.953125 12.042969 21.0625 12.042969 21.191406 12.042969 21.402344 11.980469 21.5625 11.859375 21.667969 11.734375 21.777344 11.558594 21.828125 11.328125 21.828125 11.253906 21.828125 11.171875 21.820312 11.085938 21.804688 11 21.792969 10.914062 21.773438 10.824219 21.746094 10.738281 21.722656 10.65625 21.695312 10.574219 21.667969 10.492188 21.640625 10.425781 21.609375 10.375 21.582031L10.253906 22.066406C10.320312 22.125 10.394531 22.171875 10.484375 22.210938 10.574219 22.25 10.664062 22.28125 10.765625 22.304688 10.863281 22.328125 10.960938 22.34375 11.054688 22.351562 11.152344 22.363281 11.246094 22.367188 11.335938 22.367188 11.546875 22.367188 11.734375 22.335938 11.902344 22.269531 12.066406 22.207031 12.207031 22.121094 12.320312 22.011719 12.433594 21.90625 12.519531 21.78125 12.582031 21.640625 12.644531 21.5 12.675781 21.351562 12.675781 21.203125 12.675781 20.980469 12.632812 20.796875 12.546875 20.65625 12.457031 20.515625 12.351562 20.398438 12.21875 20.300781zM14.945312 21.773438L13.976562 18.175781 13.203125 18.175781 14.496094 22.367188 15.378906 22.367188 16.738281 18.175781 15.96875 18.175781zM10.136719 5.378906L5.171875 5.378906 5.171875 14.484375 18.828125 14.484375 18.828125 7.035156 10.136719 7.035156zM6 7.863281L9.308594 7.863281 9.308594 8.691406 6 8.691406zM6 9.515625L9.308594 9.515625 9.308594 10.34375 6 10.34375zM6 11.171875L9.308594 11.171875 9.308594 12 6 12zM9.308594 13.65625L6 13.65625 6 12.828125 9.308594 12.828125zM18 13.65625L10.136719 13.65625 10.136719 12.828125 18 12.828125zM18 12L10.136719 12 10.136719 11.171875 18 11.171875zM18 10.34375L10.136719 10.34375 10.136719 9.515625 18 9.515625zM18 7.863281L18 8.691406 10.136719 8.691406 10.136719 7.863281zM6 7.035156L6 6.207031 9.308594 6.207031 9.308594 7.035156zM6 7.035156"/>
</svg>
