<svg xmlns="http://www.w3.org/2000/svg" width="32" height="32" viewBox="0 0 24 24">
    <path d="M21.082 5.043l-.316-.32-4.18-4.176-.32-.32A.778.778 0 0 0 15.719 0H3.707c-.488 0-1.016.379-1.016 1.21v21.962c0 .348.348.683.758.789.024.008.043.016.063.02.066.011.133.019.195.019h16.586c.062 0 .129-.008.195-.02.02-.003.04-.011.063-.02.41-.105.758-.44.758-.788V5.785c0-.32-.036-.555-.227-.742zm-1.246-.078h-3.492V1.477zM3.707 23.172c-.027 0-.055-.012-.082-.02a.192.192 0 0 1-.11-.172v-6.015h16.97v6.015c0 .079-.047.141-.11.172-.027.008-.055.02-.082.02zm-.191-7.035V1.21c0-.09.015-.383.191-.383h11.836a.55.55 0 0 0-.027.16v4.805h4.804a.72.72 0 0 0 .16-.023c0 .003.004.007.004.015v10.352zm0 0"/>
    <path d="M9.387 18.785a1.92 1.92 0 0 0-.664-.441 2.338 2.338 0 0 0-.922-.168H6.543v4.168h1.578c.055 0 .133-.004.242-.02.11-.012.23-.043.364-.09.132-.047.27-.117.41-.21.14-.098.27-.227.383-.391.113-.164.207-.367.28-.61.071-.242.11-.535.11-.878 0-.25-.043-.493-.129-.727a1.876 1.876 0 0 0-.394-.633zm-.496 2.621c-.204.293-.536.442-.996.442h-.672V18.69h.394c.324 0 .59.04.793.125.203.086.363.196.485.336.117.137.199.29.238.461.043.168.062.34.062.512 0 .559-.101.988-.304 1.281zm0 0M13.418 20.426a.99.99 0 0 0-.55-.278.601.601 0 0 0 .214-.093.916.916 0 0 0 .195-.176.911.911 0 0 0 .195-.57c0-.204-.034-.375-.113-.52a.95.95 0 0 0-.304-.352 1.265 1.265 0 0 0-.442-.199 2.018 2.018 0 0 0-.511-.062h-1.204v4.168h1.567c.023 0 .07 0 .144-.008a1.407 1.407 0 0 0 .532-.164 1.01 1.01 0 0 0 .277-.207c.086-.09.156-.203.215-.34.055-.133.086-.297.086-.484a.96.96 0 0 0-.086-.41 1.04 1.04 0 0 0-.215-.305zm-1.84-1.735h.453c.172 0 .313.02.418.055.106.04.188.086.242.149a.428.428 0 0 1 .114.199c.02.074.027.144.027.215a.854.854 0 0 1-.07.386.408.408 0 0 1-.184.196.635.635 0 0 1-.242.062c-.086.004-.172.004-.254.004h-.504zm1.317 2.965a.597.597 0 0 1-.47.192h-.847v-1.434h.797c.227 0 .398.07.516.211.117.14.175.313.175.516a.754.754 0 0 1-.171.515zm0 0M14.691 22.344h.688v-1.88h1.742v-.46H15.38V18.69h1.918v-.515H14.69zm0 0M10.55 5.379H5.587v9.105h13.656V7.035h-8.691zM6.415 7.863h3.309v.828H6.414zm0 1.653h3.309v.828H6.414zm0 1.656h3.309V12H6.414zm3.309 2.484H6.414v-.828h3.309zm8.691 0h-7.863v-.828h7.863zm0-1.656h-7.863v-.828h7.863zm0-1.656h-7.863v-.828h7.863zm0-2.48v.827h-7.863v-.828zm-12-.829v-.828h3.309v.828zm0 0"/>
</svg>
