<svg xmlns="http://www.w3.org/2000/svg" width="32" height="32" viewBox="0 0 24 24">
    <path d="M21.082 5.043l-.316-.32-4.18-4.176-.32-.32A.778.778 0 0 0 15.719 0H3.707c-.488 0-1.016.379-1.016 1.21v21.962c0 .348.348.683.758.789.024.008.043.016.063.02.066.011.133.019.195.019h16.586c.062 0 .129-.008.195-.02.02-.003.04-.011.063-.02.41-.105.758-.44.758-.788V5.785c0-.32-.036-.555-.227-.742zm-1.246-.078h-3.492V1.477zM3.707 23.172c-.027 0-.055-.012-.082-.02a.192.192 0 0 1-.11-.172v-6.015h16.97v6.015c0 .079-.047.141-.11.172-.027.008-.055.02-.082.02zm-.191-7.035V1.21c0-.09.015-.383.191-.383h11.836a.55.55 0 0 0-.027.16v4.805h4.804a.72.72 0 0 0 .16-.023c0 .003.004.007.004.015v10.352zm0 0"/>
    <path d="M9.613 18.785a1.902 1.902 0 0 0-.66-.441 2.345 2.345 0 0 0-.926-.168H6.773v4.168h1.579c.05 0 .132-.004.242-.02.11-.012.23-.043.363-.09.129-.047.266-.117.41-.21.14-.098.266-.227.38-.391.112-.164.206-.367.28-.61.075-.242.11-.535.11-.878 0-.25-.043-.493-.13-.727a1.817 1.817 0 0 0-.394-.633zm-.492 2.621c-.207.293-.535.442-.996.442h-.676V18.69h.399c.324 0 .586.04.793.125.203.086.363.196.48.336.121.137.2.29.242.461.04.168.063.34.063.512 0 .559-.102.988-.305 1.281zm0 0M13.766 18.652a1.555 1.555 0 0 0-.551-.406 1.652 1.652 0 0 0-.688-.14c-.246 0-.476.046-.687.14-.207.094-.39.227-.547.406a1.844 1.844 0 0 0-.367.664c-.09.266-.133.575-.133.922 0 .352.043.66.133.93.086.266.21.488.367.668.156.176.34.309.547.402.21.09.441.133.687.133.25 0 .48-.043.688-.133.21-.093.394-.226.55-.402a1.96 1.96 0 0 0 .368-.668c.09-.27.133-.578.133-.93 0-.347-.043-.656-.133-.922a1.904 1.904 0 0 0-.367-.664zm-.282 2.325a1.313 1.313 0 0 1-.234.492.912.912 0 0 1-.738.351.878.878 0 0 1-.715-.367 1.382 1.382 0 0 1-.227-.488 2.924 2.924 0 0 1-.09-.727c.004-.289.036-.535.094-.734.055-.2.133-.363.235-.488a.837.837 0 0 1 .336-.27c.128-.05.261-.078.402-.078a.868.868 0 0 1 .715.363c.093.125.172.29.226.489.055.199.082.437.086.722-.004.29-.031.535-.09.735zm0 0M16.164 19.016a.855.855 0 0 1 .34-.27 1.05 1.05 0 0 1 .398-.078.847.847 0 0 1 .672.313l.469-.422a1.521 1.521 0 0 0-.523-.336 1.686 1.686 0 0 0-.633-.114c-.246 0-.477.043-.688.137-.21.094-.394.227-.55.406a1.904 1.904 0 0 0-.368.664c-.09.266-.133.575-.133.926 0 .348.043.66.133.926.09.27.211.492.367.668.157.176.34.312.551.402.207.09.438.137.688.137.226 0 .437-.04.633-.113.195-.078.37-.192.523-.34l-.469-.414a.928.928 0 0 1-.324.238 1.028 1.028 0 0 1-.383.074.878.878 0 0 1-.715-.367 1.382 1.382 0 0 1-.226-.488 2.754 2.754 0 0 1-.086-.723c0-.293.031-.535.09-.738.054-.2.133-.363.234-.488zm0 0M5.586 5.793H8.07a.414.414 0 0 0 0-.828H5.586a.414.414 0 0 0 0 .828zm0 0M5.586 7.863h3.723a.414.414 0 0 0 0-.828H5.586a.414.414 0 0 0 0 .828zm0 0M10.965 7.863c.11 0 .215-.047.293-.12a.439.439 0 0 0 .12-.294.431.431 0 0 0-.12-.293.425.425 0 0 0-.586 0 .431.431 0 0 0-.121.293c0 .106.047.215.12.293a.439.439 0 0 0 .294.121zm0 0M12.621 7.863h3.309a.414.414 0 0 0 0-.828H12.62a.414.414 0 0 0 0 .828zm0 0M5.293 13.363a.431.431 0 0 0-.121.293c0 .106.047.215.121.293a.439.439 0 0 0 .293.121c.11 0 .215-.047.293-.12A.439.439 0 0 0 6 13.655a.424.424 0 0 0-.121-.293.425.425 0 0 0-.586 0zm0 0M10.55 13.242H7.243a.414.414 0 0 0 0 .828h3.309a.414.414 0 0 0 0-.828zm0 0M18.414 7.035h-.828a.414.414 0 0 0 0 .828h.828a.414.414 0 0 0 0-.828zm0 0M5.586 9.93h9.105c.227 0 .41-.184.41-.414a.413.413 0 0 0-.41-.414H5.586a.414.414 0 0 0 0 .828zm0 0M18.414 9.102H15.93a.414.414 0 0 0 0 .828h2.484a.414.414 0 0 0 0-.828zm0 0M5.586 12h1.656a.414.414 0 0 0 0-.828H5.586a.414.414 0 0 0 0 .828zm0 0M13.035 11.172H8.898a.414.414 0 0 0 0 .828h4.137a.414.414 0 0 0 0-.828zm0 0M18.414 11.172h-3.723a.414.414 0 0 0 0 .828h3.723a.414.414 0 0 0 0-.828zm0 0"/>
</svg>
