<svg xmlns="http://www.w3.org/2000/svg" width="32" height="32" viewBox="0 0 24 24">
    <path d="M18.59 0H5.41A5.415 5.415 0 0 0 0 5.41v13.18A5.415 5.415 0 0 0 5.41 24h13.18A5.415 5.415 0 0 0 24 18.59V5.41A5.415 5.415 0 0 0 18.59 0zm4.52 18.59a4.525 4.525 0 0 1-4.52 4.52H5.41a4.525 4.525 0 0 1-4.52-4.52V5.41A4.525 4.525 0 0 1 5.41.89h13.18a4.525 4.525 0 0 1 4.52 4.52zm0 0"/>
    <path d="M5.652 5.316h-3.34v12.461h3.696c2.515 0 3.77-1.183 3.77-3.554V9.352c0-1.223-.352-2.2-1.06-2.934-.702-.734-1.726-1.102-3.066-1.102zm2.844 9.082c0 .477-.082.868-.246 1.176-.367.7-1.21 1.047-2.527 1.047H3.59V6.543h2.242c.746 0 1.375.215 1.89.648.516.434.774 1.094.774 1.98zm0 0M18.754 16.02L16.926 8.87h-1.262l-1.832 7.149L11.68 8.87h-1.367l2.773 8.906h1.527l1.653-6.468 1.636 6.468h1.528l2.793-8.906h-1.371zm0 0"/>
</svg>
