<svg xmlns="http://www.w3.org/2000/svg" width="32" height="32" viewBox="0 0 24 24">
    <path d="M 18.589844 0 L 5.410156 0 C 2.425781 0 0 2.425781 0 5.410156 L 0 18.589844 C 0 21.574219 2.425781 24 5.410156 24 L 18.589844 24 C 21.574219 24 24 21.574219 24 18.589844 L 24 5.410156 C 24 2.425781 21.574219 0 18.589844 0 Z M 23.109375 18.589844 C 23.109375 21.082031 21.082031 23.109375 18.589844 23.109375 L 5.410156 23.109375 C 2.917969 23.109375 0.890625 21.082031 0.890625 18.589844 L 0.890625 5.410156 C 0.890625 2.917969 2.917969 0.890625 5.410156 0.890625 L 18.589844 0.890625 C 21.082031 0.890625 23.109375 2.917969 23.109375 5.410156 Z M 23.109375 18.589844"/>
    <path d="M5.652344 5.316406L2.3125 5.316406 2.3125 17.777344 6.007812 17.777344C8.523438 17.777344 9.777344 16.59375 9.777344 14.222656L9.777344 9.351562C9.777344 8.128906 9.425781 7.152344 8.71875 6.417969 8.015625 5.683594 6.992188 5.316406 5.652344 5.316406zM8.496094 14.398438C8.496094 14.875 8.414062 15.265625 8.25 15.574219 7.882812 16.273438 7.039062 16.621094 5.722656 16.621094L3.589844 16.621094 3.589844 6.542969 5.832031 6.542969C6.578125 6.542969 7.207031 6.757812 7.722656 7.191406 8.238281 7.625 8.496094 8.285156 8.496094 9.171875zM18.753906 16.019531L16.925781 8.871094 15.664062 8.871094 13.832031 16.019531 11.679688 8.871094 10.3125 8.871094 13.085938 17.777344 14.613281 17.777344 16.265625 11.308594 17.902344 17.777344 19.429688 17.777344 22.222656 8.871094 20.851562 8.871094zM18.753906 16.019531"/>
</svg>
