<svg xmlns="http://www.w3.org/2000/svg" width="32" height="32" viewBox="0 0 24 24">
    <path d="M 21.082031 5.042969 L 16.585938 0.546875 L 16.269531 0.226562 C 16.121094 0.0820312 15.925781 0 15.71875 0 L 3.707031 0 C 3.144531 0 2.691406 0.457031 2.691406 1.019531 L 2.691406 22.980469 C 2.691406 23.542969 3.144531 24 3.707031 24 L 20.292969 24 C 20.851562 24 21.308594 23.542969 21.308594 22.980469 L 21.308594 5.59375 C 21.308594 5.386719 21.230469 5.191406 21.082031 5.042969 Z M 19.835938 4.964844 L 16.34375 4.964844 L 16.34375 1.476562 Z M 20.484375 22.980469 C 20.484375 23.085938 20.398438 23.171875 20.292969 23.171875 L 3.707031 23.171875 C 3.601562 23.171875 3.515625 23.085938 3.515625 22.980469 L 3.515625 16.964844 L 20.484375 16.964844 Z M 3.515625 16.136719 L 3.515625 1.019531 C 3.515625 0.914062 3.601562 0.828125 3.707031 0.828125 L 15.542969 0.828125 C 15.527344 0.878906 15.515625 0.933594 15.515625 0.988281 L 15.515625 5.792969 L 20.320312 5.792969 C 20.375 5.792969 20.429688 5.78125 20.484375 5.769531 L 20.484375 16.136719 Z M 3.515625 16.136719"/>
    <path d="M7.550781 20.464844L9.292969 20.464844 9.292969 20.003906 7.550781 20.003906 7.550781 18.691406 9.46875 18.691406 9.46875 18.175781 6.859375 18.175781 6.859375 22.34375 7.550781 22.34375zM12.800781 21.828125L10.882812 21.828125 10.882812 18.175781 10.191406 18.175781 10.191406 22.34375 12.800781 22.34375zM14.339844 21.480469L15.90625 21.480469 16.207031 22.34375 16.90625 22.34375 15.457031 18.179688 14.785156 18.179688 13.328125 22.34375 14.035156 22.34375zM15.125 19.222656L15.742188 21.019531 14.496094 21.019531zM14.890625 6.175781L14.597656 5.886719C12.824219 4.109375 9.933594 4.109375 8.160156 5.886719 6.386719 7.660156 6.386719 10.546875 8.160156 12.324219 9.046875 13.210938 10.214844 13.652344 11.378906 13.652344 12.542969 13.652344 13.710938 13.210938 14.597656 12.324219L14.890625 12.03125 11.964844 9.101562zM13.703125 12.011719C12.242188 13.183594 10.097656 13.089844 8.746094 11.738281 7.292969 10.285156 7.292969 7.921875 8.746094 6.46875 9.472656 5.742188 10.425781 5.378906 11.378906 5.378906 12.203125 5.378906 13.027344 5.652344 13.703125 6.191406L10.792969 9.101562zM13.703125 12.011719"/>
    <path d="M11.792969 7.035156C11.792969 7.492188 11.421875 7.863281 10.964844 7.863281 10.507812 7.863281 10.136719 7.492188 10.136719 7.035156 10.136719 6.578125 10.507812 6.207031 10.964844 6.207031 11.421875 6.207031 11.792969 6.578125 11.792969 7.035156zM15.101562 8.691406L13.863281 8.691406C13.632812 8.691406 13.449219 8.875 13.449219 9.101562 13.449219 9.332031 13.632812 9.515625 13.863281 9.515625L15.101562 9.515625C15.332031 9.515625 15.515625 9.332031 15.515625 9.101562 15.515625 8.875 15.332031 8.691406 15.101562 8.691406zM17.585938 8.691406L16.757812 8.691406C16.53125 8.691406 16.34375 8.875 16.34375 9.101562 16.34375 9.332031 16.53125 9.515625 16.757812 9.515625L17.585938 9.515625C17.816406 9.515625 18 9.332031 18 9.101562 18 8.875 17.816406 8.691406 17.585938 8.691406zM17.585938 8.691406"/>
</svg>
