<svg xmlns="http://www.w3.org/2000/svg" width="32" height="32" viewBox="0 0 24 24">
    <path d="M21.082 5.043L16.266.227A.771.771 0 0 0 15.719 0H3.707c-.488 0-1.016.379-1.016 1.21v21.962c0 .348.348.683.758.789.02.008.043.016.063.02.066.011.133.019.195.019h16.586c.062 0 .129-.008.195-.02a.384.384 0 0 0 .063-.02c.41-.105.758-.44.758-.788V5.785c0-.32-.036-.555-.227-.742zm-4.738-3.566l3.492 3.488h-3.492zM3.707 23.172c-.027 0-.055-.012-.082-.02a.192.192 0 0 1-.11-.172v-6.015h16.97v6.015c0 .079-.047.141-.11.172-.027.008-.055.02-.082.02zm-.191-7.035V1.21c0-.09.015-.383.191-.383h11.836a.55.55 0 0 0-.027.16v4.805h4.804a.72.72 0 0 0 .16-.023c0 .003.004.007.004.015v10.352zm0 0"/>
    <path d="M6.957 20.004H5.152v-1.828h-.691v4.168h.691v-1.88h1.805v1.88h.68v-4.168h-.68zm0 0M8.457 18.64h1.246v3.704h.684V18.64h1.242v-.465H8.457zm0 0M14.367 21.027l-1.238-2.851h-.688v4.168h.688v-2.867l.941 2.32h.598l.934-2.32v2.867h.691v-4.168h-.691zm0 0M18.027 18.176h-.687v4.168h2.605v-.516h-1.918zm0 0M10.016 7.156a.41.41 0 0 0-.586 0l-2.48 2.48a.41.41 0 0 0 0 .587l2.48 2.484a.428.428 0 0 0 .293.121.42.42 0 0 0 .293-.121.41.41 0 0 0 0-.586L7.828 9.93l2.188-2.188a.41.41 0 0 0 0-.586zm0 0M14.98 7.156a.406.406 0 0 0-.582 0 .41.41 0 0 0 0 .586l2.188 2.188-2.188 2.191a.414.414 0 1 0 .293.707c.106 0 .211-.043.29-.121l2.484-2.484a.417.417 0 0 0 0-.586zm0 0"/>
</svg>
