<svg xmlns="http://www.w3.org/2000/svg" width="32" height="32" viewBox="0 0 24 24">
    <path d="M21.082 5.043L16.586.547l-.316-.32A.787.787 0 0 0 15.719 0H3.707c-.562 0-1.016.457-1.016 1.02v21.96c0 .563.454 1.02 1.016 1.02h16.586a1.02 1.02 0 0 0 1.016-1.02V5.594a.77.77 0 0 0-.227-.551zm-1.246-.078h-3.492V1.477zm.648 18.015a.192.192 0 0 1-.191.192H3.707a.192.192 0 0 1-.191-.192v-6.015h16.968zM3.516 16.137V1.02c0-.106.086-.192.191-.192h11.836a.55.55 0 0 0-.027.16v4.805h4.804c.055 0 .11-.012.164-.023v10.367zm0 0"/>
    <path d="M7.21 19.477l.938 2.32h.602l.934-2.32v2.867h.687v-4.168h-.687l-1.235 2.851-1.238-2.851H6.52v4.168h.69zm0 0M12.086 20.84h.504c.219 0 .418-.031.601-.098.18-.062.336-.152.465-.27.125-.117.227-.261.297-.433.074-.172.11-.363.11-.574 0-.2-.043-.38-.13-.54a1.303 1.303 0 0 0-.331-.41 1.4 1.4 0 0 0-.47-.253 1.615 1.615 0 0 0-.523-.086H11.41v4.168h.676zm0-2.149h.512c.172 0 .312.028.418.082a.675.675 0 0 1 .363.457 1.324 1.324 0 0 1-.035.66.69.69 0 0 1-.164.27.713.713 0 0 1-.223.14.771.771 0 0 1-.246.04h-.625zm0 0M15.77 21.887c-.176 0-.317-.008-.418-.02a1.177 1.177 0 0 1-.239-.05.491.491 0 0 1-.129-.067c-.03-.02-.062-.043-.097-.063l-.153.489c.075.043.2.09.383.133a3.42 3.42 0 0 0 .938.054 1.592 1.592 0 0 0 .574-.172 1.055 1.055 0 0 0 .484-.562c.055-.137.082-.3.082-.488a.961.961 0 0 0-.078-.41 1.112 1.112 0 0 0-.199-.305.922.922 0 0 0-.258-.192.8.8 0 0 0-.265-.082.784.784 0 0 0 .218-.093c.078-.051.153-.11.215-.18a.913.913 0 0 0 .16-.25.851.851 0 0 0 .063-.32c0-.2-.035-.375-.106-.524a.997.997 0 0 0-.285-.36 1.147 1.147 0 0 0-.414-.206 1.937 1.937 0 0 0-.504-.067 2.684 2.684 0 0 0-.918.133l.2.508c.054-.02.132-.043.234-.078.105-.031.242-.047.418-.047.172 0 .308.02.406.059.098.039.172.093.223.156a.43.43 0 0 1 .093.21c.012.075.016.145.016.216 0 .168-.023.3-.07.39a.466.466 0 0 1-.188.192.586.586 0 0 1-.242.062c-.086.004-.168.004-.25.004h-.387l.008.461h.57c.227 0 .399.066.516.207.117.14.176.313.176.516a.78.78 0 0 1-.192.535c-.128.14-.324.21-.585.21zm0 0M14.219 5.64c-1.621-1.292-1.969-2.593-2.012-2.785v-.37a.412.412 0 0 0-.414-.415.412.412 0 0 0-.414.414v7.618H9.848c-1.61 0-2.606.812-2.606 2.117 0 1.433.926 2.36 2.36 2.36a2.607 2.607 0 0 0 2.605-2.602v-4.75l.125.101c.14.14.355.297.629.5.957.707 2.562 1.89 2.16 3.223a.417.417 0 0 0 .395.535c.18 0 .343-.113.398-.293a5.268 5.268 0 0 0-.742-4.68c-.235-.328-.535-.636-.953-.972zm-2.84 6.337c0 .98-.797 1.777-1.777 1.777-.973 0-1.532-.559-1.532-1.535 0-1.067.965-1.29 1.778-1.29h1.53zm2.07-4.817a6.164 6.164 0 0 1-.566-.445l-.676-.555V4.723c.344.484.82 1.027 1.496 1.566.352.285.61.54.797.805.297.418.594.968.738 1.648-.547-.668-1.273-1.203-1.789-1.582zm0 0"/>
</svg>
