<svg xmlns="http://www.w3.org/2000/svg" width="32" height="32" viewBox="0 0 24 24">
    <path d="M21.082 5.043l-.316-.32-4.18-4.176-.316-.32A.787.787 0 0 0 15.719 0H3.707c-.488 0-1.016.379-1.016 1.21v21.962c0 .348.348.683.758.789.024.008.043.016.063.02.066.011.133.019.195.019h16.586c.062 0 .129-.008.195-.02.02-.003.04-.011.063-.02.41-.105.758-.44.758-.788V5.785c0-.316-.036-.55-.227-.742zm-3.496 3.648a5.386 5.386 0 0 1-5.379 5.38 5.386 5.386 0 0 1-5.379-5.38 5.387 5.387 0 0 1 5.379-5.382c1.2 0 2.367.406 3.309 1.144v1.34h1.222c.555.867.848 1.863.848 2.898zm-.629-3.726h-.613V1.477l3.492 3.488zM3.707 23.172c-.027 0-.055-.012-.082-.02a.197.197 0 0 1-.11-.172v-6.015h16.97v6.015c0 .075-.047.141-.11.172-.027.008-.055.02-.082.02zm-.191-7.035V1.21c0-.09.015-.383.191-.383h11.836a.55.55 0 0 0-.027.16V3.45a6.18 6.18 0 0 0-3.309-.965A6.212 6.212 0 0 0 6 8.691a6.215 6.215 0 0 0 6.207 6.207 6.215 6.215 0 0 0 6.207-6.207c0-1.023-.25-2.007-.723-2.898h2.63a.72.72 0 0 0 .16-.023v10.367zm0 0"/>
    <path d="M8.45 21.027l-1.24-2.851h-.69v4.168h.69v-2.867l.938 2.32h.602l.934-2.32v2.867h.687v-4.168h-.687zm0 0M13.602 18.516a1.4 1.4 0 0 0-.47-.254 1.615 1.615 0 0 0-.523-.086H11.41v4.168h.676V20.84h.504c.219 0 .418-.031.601-.098.18-.062.336-.152.465-.27.125-.117.227-.261.297-.433.074-.172.11-.363.11-.574 0-.2-.043-.38-.13-.54a1.303 1.303 0 0 0-.331-.41zm-.258 1.375a.69.69 0 0 1-.164.27.649.649 0 0 1-.47.183h-.624V18.69h.512c.172 0 .312.028.418.082a.675.675 0 0 1 .363.457 1.307 1.307 0 0 1-.035.66zm0 0M17.027 18.176h-.691l-1.805 2.66v.535h1.805v.973h.691v-.973h.434v-.535h-.434zm-.691 2.66h-1.2l1.2-1.867zm0 0M15.324 8.34l-4.55-2.895a.414.414 0 0 0-.637.348v5.793a.414.414 0 0 0 .636.348l4.551-2.895a.41.41 0 0 0 .192-.348.413.413 0 0 0-.192-.351zm-4.36 2.492V6.547l3.368 2.144zm0 0"/>
</svg>
