<svg xmlns="http://www.w3.org/2000/svg" width="32" height="32" viewBox="0 0 24 24">
    <path d="M18.59 0H5.41A5.415 5.415 0 0 0 0 5.41v13.18A5.415 5.415 0 0 0 5.41 24h13.18A5.415 5.415 0 0 0 24 18.59V5.41A5.415 5.415 0 0 0 18.59 0zm4.52 18.59a4.525 4.525 0 0 1-4.52 4.52H5.41a4.525 4.525 0 0 1-4.52-4.52V5.41A4.525 4.525 0 0 1 5.41.89h13.18a4.525 4.525 0 0 1 4.52 4.52zm0 0"/>
    <path d="M10.543 5.332H6.258v12.445h1.281v-4.09h3.129c.602 0 1.125-.109 1.562-.328.438-.218.766-.472.977-.765.215-.29.383-.66.508-1.117.125-.457.2-.836.223-1.141.023-.3.035-.66.035-1.074 0-1.172-.282-2.121-.844-2.844-.563-.723-1.426-1.086-2.586-1.086zm2.14 4.711c-.003.18-.046.445-.124.8-.075.356-.184.63-.32.821-.134.188-.352.367-.65.531-.296.168-.655.25-1.081.25H7.539V6.578h2.899c1.503 0 2.257.902 2.257 2.703 0 .332-.004.586-.011.762zm0 0M16.055 5.332h1.277v12.445h-1.277zm0 0"/>
</svg>
