<svg xmlns="http://www.w3.org/2000/svg" width="32" height="32" viewBox="0 0 24 24">
    <path d="M21.082 5.043L16.586.547l-.316-.32A.794.794 0 0 0 15.719 0H3.707a1.02 1.02 0 0 0-1.016 1.02v21.96c0 .563.457 1.02 1.016 1.02h16.586a1.02 1.02 0 0 0 1.016-1.02V5.594a.78.78 0 0 0-.227-.551zm-4.738-.078V1.477l3.492 3.488zM9.94 12.898a.394.394 0 0 0-.218-.07.405.405 0 0 0-.399.356 1.77 1.77 0 0 1-.383.046h-.46a.411.411 0 0 0-.41-.402.415.415 0 0 0-.415.406l-.945.008c.11-.164.195-.34.262-.52a.414.414 0 0 0 .27.106.414.414 0 0 0 0-.828c-.028 0-.052.012-.075.016.027-.168.047-.32.059-.45l.035-.207c.004-.07.023-.132.039-.199a.408.408 0 0 0 .355-.402.416.416 0 0 0-.078-.227c.07-.101.152-.195.246-.277.07.055.153.09.246.09a.414.414 0 0 0 .414-.414c0-.008-.007-.016-.007-.028.148-.043.3-.074.464-.074.051 0 .098.012.145.016l.07.011c.055.004.11.02.164.032-.004.015-.011.027-.011.043 0 .23.187.414.414.414a.42.42 0 0 0 .293-.117 1.564 1.564 0 0 1 .242.242.407.407 0 0 0-.121.289c0 .23.187.414.414.414.015 0 .027-.008.043-.008.004.02.011.04.015.059v.011a1.471 1.471 0 0 1-.043.77c-.007 0-.011-.004-.015-.004a.414.414 0 0 0-.414.414c0 .086.035.16.078.227a1.71 1.71 0 0 1-.274.257zm1.032-2.863A2.554 2.554 0 0 0 10 9.238l.879-.879 1.168 1.172-.856.856a2.305 2.305 0 0 0-.218-.352zm1.66-1.09l-1.168-1.172 1.152-1.152c.613-.613 2.012-1.773 2.899-2.297v1.422a21.824 21.824 0 0 1-1.727 2.047zm7.851 14.035a.192.192 0 0 1-.191.192H3.707a.192.192 0 0 1-.191-.192v-6.015h16.968zM3.516 16.137V1.02c0-.106.086-.192.191-.192h11.836a.55.55 0 0 0-.027.16v2.403c-1.063.484-2.907 2.066-3.485 2.644L9.06 9.008c-.04 0-.079-.004-.118-.004-1.23 0-2.261.879-2.476 2.074l-.043.031-.012.223c-.012.387-.125 1.676-.969 1.879a.436.436 0 0 0-.328.476l.067.383h2.89l.871-.015a2.53 2.53 0 0 0 2.516-2.762l2.914-2.918c.508-.504 1.488-1.645 2.129-2.582h3.82c.055 0 .11-.012.164-.023v10.367zm0 0"/>
    <path d="M7.61 20.84h.5c.218 0 .421-.031.6-.098.18-.062.337-.152.466-.27.129-.117.226-.261.3-.433.07-.172.106-.363.106-.574 0-.2-.043-.38-.129-.54a1.364 1.364 0 0 0-.8-.664 1.615 1.615 0 0 0-.524-.085h-1.2v4.168h.68zm0-2.149h.507c.172 0 .313.028.418.082a.675.675 0 0 1 .363.457 1.225 1.225 0 0 1-.035.66.69.69 0 0 1-.164.27.671.671 0 0 1-.222.14.771.771 0 0 1-.247.04h-.62zm0 0M11.371 21.828c-.078 0-.156-.008-.246-.02a1.44 1.44 0 0 1-.71-.227l-.118.485a.777.777 0 0 0 .226.145c.09.039.184.07.282.094.097.023.195.039.293.05.093.008.187.012.277.012.21 0 .402-.031.566-.094.168-.066.305-.152.418-.257.114-.11.204-.235.266-.375.063-.141.094-.29.094-.438a1.04 1.04 0 0 0-.133-.547 1.215 1.215 0 0 0-.324-.351 2.236 2.236 0 0 0-.422-.242 5.23 5.23 0 0 1-.418-.204 1.404 1.404 0 0 1-.324-.242.52.52 0 0 1-.082-.555.553.553 0 0 1 .125-.18.614.614 0 0 1 .18-.132.598.598 0 0 1 .214-.066 2.47 2.47 0 0 1 .336-.004c.086.008.156.02.207.039a.5.5 0 0 1 .121.058c.028.016.055.032.078.043.004-.004.016-.023.036-.054.015-.036.039-.078.066-.13l.086-.163c.027-.059.055-.114.078-.16a1.11 1.11 0 0 0-.43-.157 3.075 3.075 0 0 0-.527-.047c-.168 0-.332.024-.484.078-.153.051-.286.13-.403.231a1.114 1.114 0 0 0-.273.363 1.166 1.166 0 0 0-.102.492c0 .204.043.372.13.508.089.137.198.254.327.356.133.097.274.183.426.258.152.074.293.148.422.222.129.074.238.156.324.246.086.09.133.2.133.328 0 .211-.063.372-.188.477-.12.11-.3.16-.527.16zm0 0M15.266 22.324c.109-.012.23-.043.363-.09.133-.047.27-.117.41-.21.14-.098.27-.227.383-.391.113-.164.207-.367.281-.61.07-.242.11-.535.11-.878 0-.25-.043-.493-.13-.727a1.839 1.839 0 0 0-.394-.633 1.945 1.945 0 0 0-.664-.445 2.412 2.412 0 0 0-.922-.164h-1.258v4.168h1.578c.055 0 .133-.004.243-.02zm-1.141-.476V18.69h.395c.324 0 .59.043.793.125.203.086.367.2.484.336.117.137.2.29.238.461.043.168.063.34.063.516 0 .555-.102.984-.305 1.277-.203.293-.535.442-.996.442zm0 0M9.309 10.758a.412.412 0 1 1-.824 0c0-.227.183-.414.413-.414.227 0 .41.187.41.414zm0 0M10.137 11.586a.414.414 0 1 1-.828 0 .414.414 0 0 1 .828 0zm0 0M8.484 11.586a.414.414 0 1 1-.828 0 .414.414 0 0 1 .828 0zm0 0M9.309 12.414a.413.413 0 0 1-.41.414.414.414 0 0 1 0-.828c.226 0 .41.184.41.414zm0 0"/>
</svg>
