<svg xmlns="http://www.w3.org/2000/svg" width="32" height="32" viewBox="0 0 24 24">
    <path d="M21.082 5.043L16.266.227A.771.771 0 0 0 15.719 0H3.707c-.562 0-1.016.457-1.016 1.02v21.96c0 .563.454 1.02 1.016 1.02h16.586a1.02 1.02 0 0 0 1.016-1.02V5.594a.78.78 0 0 0-.227-.551zm-1.246-.078h-3.492V1.477zm.648 18.015a.192.192 0 0 1-.191.192H3.707a.192.192 0 0 1-.191-.192v-6.015h16.968zM3.516 16.137V1.02c0-.106.086-.192.191-.192h11.836a.55.55 0 0 0-.027.16v4.805h4.804c.055 0 .11-.012.164-.023v10.367zm0 0"/>
    <path d="M7.945 21.828c-.074 0-.156-.008-.242-.02a2.302 2.302 0 0 1-.262-.062c-.086-.023-.168-.05-.25-.078a1.258 1.258 0 0 1-.199-.086l-.12.484c.066.059.14.106.23.145.09.039.18.07.28.094.098.023.196.039.29.05.098.008.191.012.281.012.211 0 .399-.031.567-.094.164-.066.304-.152.418-.257.113-.11.199-.235.261-.375.063-.141.094-.29.094-.438a1.04 1.04 0 0 0-.129-.547 1.215 1.215 0 0 0-.324-.351 2.236 2.236 0 0 0-.422-.242A4.651 4.651 0 0 1 8 19.858a1.325 1.325 0 0 1-.324-.242.52.52 0 0 1-.086-.555.707.707 0 0 1 .125-.18.69.69 0 0 1 .398-.198c.137-.008.246-.012.332-.004.09.008.157.02.211.039.051.02.094.039.121.058.028.016.055.032.078.043.004-.004.012-.023.032-.054l.07-.13c.023-.05.055-.105.082-.163l.082-.16a1.11 1.11 0 0 0-.43-.157 3.075 3.075 0 0 0-.527-.047c-.172 0-.332.024-.484.078-.153.051-.285.13-.403.231a1.062 1.062 0 0 0-.273.363 1.166 1.166 0 0 0-.102.492c0 .204.043.372.13.508.085.137.195.254.327.356.133.097.274.183.426.258.149.074.29.148.422.222.129.074.238.156.324.246.086.09.13.2.13.328 0 .211-.06.372-.184.477-.125.11-.301.16-.532.16zm0 0M11.996 22.367l1.36-4.191h-.77l-1.024 3.597-.968-3.597H9.82l1.293 4.191zm0 0M14.633 21.836c.156.176.336.312.547.402.21.09.437.137.687.137.125 0 .25-.012.375-.031a1.734 1.734 0 0 0 .707-.266c.11-.07.207-.16.293-.27v-1.613H15.86v.465h.707v1.027a.26.26 0 0 1-.14.098c-.063.024-.13.04-.2.055-.07.012-.14.023-.21.027-.07.004-.125.008-.164.008a.859.859 0 0 1-.391-.094 1.015 1.015 0 0 1-.328-.297 1.531 1.531 0 0 1-.227-.507 3.082 3.082 0 0 1-.086-.735c.004-.293.035-.535.09-.734a1.48 1.48 0 0 1 .235-.492.862.862 0 0 1 .34-.266.983.983 0 0 1 .761-.008c.117.051.219.13.313.238l.468-.418a1.527 1.527 0 0 0-.527-.34 1.768 1.768 0 0 0-.633-.113c-.246 0-.472.047-.683.137-.211.094-.395.23-.551.406a1.85 1.85 0 0 0-.371.664 3.006 3.006 0 0 0-.133.926c0 .352.047.66.133.926.09.27.21.492.37.668zm0 0M16.758 7.863h-2.48V6.207h-4.141v1.656h-2.48v-.828H5.171v2.48h2.484v-.824h1.469C7.235 9.781 6 11.828 6 14.071a.414.414 0 0 0 .828 0 5.415 5.415 0 0 1 3.309-4.966v1.239h4.14V9.105a5.419 5.419 0 0 1 3.309 4.965.414.414 0 0 0 .828 0c0-2.242-1.234-4.289-3.125-5.379h1.469v.825h2.484v-2.48h-2.484zm-9.93.828H6v-.828h.828zm6.621.825h-2.484v-2.48h2.484zm4.137-1.653h.828v.828h-.828zm0 0"/>
</svg>
