<svg xmlns="http://www.w3.org/2000/svg" width="32" height="32" viewBox="0 0 24 24">
    <path d="M21.082 5.043L16.266.227A.771.771 0 0 0 15.719 0H3.707c-.488 0-1.016.379-1.016 1.21v21.962c0 .348.348.683.758.789.02.008.043.016.063.02.066.011.133.019.195.019h16.586c.062 0 .129-.008.195-.02a.384.384 0 0 0 .063-.02c.41-.105.758-.44.758-.788V5.785c0-.32-.036-.555-.227-.742zm-4.738-3.566l3.492 3.488h-3.492zM3.707 23.172c-.027 0-.055-.012-.082-.02a.192.192 0 0 1-.11-.172v-6.015h16.97v6.015c0 .079-.047.141-.11.172-.027.008-.055.02-.082.02zm-.191-7.035V1.21c0-.09.015-.383.191-.383h11.836a.55.55 0 0 0-.027.16v4.805h4.804a.72.72 0 0 0 .16-.023c0 .003.004.007.004.015v10.352zm0 0"/>
    <path d="M6.29 18.64H7.53v3.704h.688V18.64H9.46v-.465H6.289zm0 0M12.535 18.176l-.797 1.695h-.058l-.735-1.695h-.777l1.129 2.144-1.059 2.024h.785l.715-1.57h.055l.664 1.57h.785l-1.058-2.024 1.125-2.144zm0 0M14.012 18.64h1.242v3.704h.687V18.64h1.243v-.465h-3.172zm0 0M5.586 5.793H8.07a.414.414 0 0 0 0-.828H5.586a.414.414 0 0 0 0 .828zm0 0M5.586 7.863h3.723a.414.414 0 0 0 0-.828H5.586a.414.414 0 0 0 0 .828zm0 0M10.965 7.863c.11 0 .215-.047.293-.12a.439.439 0 0 0 .12-.294.431.431 0 0 0-.12-.293.42.42 0 0 0-.582 0 .41.41 0 0 0 .289.707zm0 0M12.621 7.863h3.309a.414.414 0 0 0 0-.828H12.62a.414.414 0 0 0 0 .828zm0 0M5.293 13.363a.431.431 0 0 0-.121.293c0 .106.047.215.121.293a.439.439 0 0 0 .293.121c.11 0 .215-.047.293-.12A.439.439 0 0 0 6 13.655a.414.414 0 0 0-.121-.289.421.421 0 0 0-.586-.004zm0 0M10.55 13.242H7.243a.414.414 0 0 0 0 .828h3.309a.414.414 0 0 0 0-.828zm0 0M18.414 7.035h-.828a.414.414 0 0 0 0 .828h.828a.414.414 0 0 0 0-.828zm0 0M5.586 9.93h9.105c.227 0 .41-.184.41-.414a.413.413 0 0 0-.41-.414H5.586a.414.414 0 0 0 0 .828zm0 0M18.414 9.102H15.93a.414.414 0 0 0 0 .828h2.484a.414.414 0 0 0 0-.828zm0 0M5.586 12h1.656a.414.414 0 0 0 0-.828H5.586a.414.414 0 0 0 0 .828zm0 0M13.035 11.172H8.898a.414.414 0 0 0 0 .828h4.137a.414.414 0 0 0 0-.828zm0 0M18.414 11.172h-3.723a.414.414 0 0 0 0 .828h3.723a.414.414 0 0 0 0-.828zm0 0"/>
</svg>
