<svg xmlns="http://www.w3.org/2000/svg" width="32" height="32" viewBox="0 0 24 24">
    <path d="M21.082 5.043L16.266.227A.771.771 0 0 0 15.719 0H3.707c-.488 0-1.016.379-1.016 1.21v21.962c0 .348.348.683.758.789.02.008.043.016.063.02.066.011.133.019.195.019h16.586c.062 0 .129-.008.195-.02a.384.384 0 0 0 .063-.02c.41-.105.758-.44.758-.788V5.785c0-.32-.036-.555-.227-.742zm-4.738-3.566l3.492 3.488h-3.492zM3.707 23.172c-.027 0-.055-.012-.082-.02a.192.192 0 0 1-.11-.172v-6.015h16.97v6.015c0 .079-.047.141-.11.172-.027.008-.055.02-.082.02zm-.191-7.035V1.21c0-.09.015-.383.191-.383h11.836a.55.55 0 0 0-.027.16v4.805h4.804a.72.72 0 0 0 .16-.023c0 .003.004.007.004.015v10.352zm0 0"/>
    <path d="M8.785 18.176l-.8 1.695H7.93l-.735-1.695h-.777l1.125 2.144-1.055 2.024h.785l.711-1.57h.059l.66 1.57h.79l-1.06-2.024 1.126-2.144zm0 0M12.422 21.027l-1.238-2.851h-.692v4.168h.692v-2.867l.937 2.32h.602l.933-2.32v2.867h.688v-4.168h-.688zm0 0M16.082 18.176h-.691v4.168H18v-.516h-1.918zm0 0M9.602 7.156a.406.406 0 0 0-.582 0l-2.485 2.48a.417.417 0 0 0 0 .587l2.485 2.484a.412.412 0 0 0 .582 0 .41.41 0 0 0 0-.586L7.414 9.93l2.188-2.188a.41.41 0 0 0 0-.586zm0 0M14.57 7.156a.41.41 0 0 0-.586 0 .41.41 0 0 0 0 .586l2.188 2.188-2.188 2.191a.41.41 0 0 0 0 .586.42.42 0 0 0 .293.121c.106 0 .211-.043.293-.121l2.48-2.484a.41.41 0 0 0 0-.586zm0 0M13.172 5.816a.412.412 0 0 0-.527.254l-2.485 7.035a.417.417 0 0 0 .39.551c.173 0 .333-.11.391-.277l2.485-7.035a.417.417 0 0 0-.254-.528zm0 0"/>
</svg>
