<svg xmlns="http://www.w3.org/2000/svg" width="32" height="32" viewBox="0 0 24 24">
    <path d="M12 0c-.504 0-1 .035-1.488.094-.012.004-.02.004-.028.004-.171.023-.343.047-.511.078l-.07.012c-.16.027-.321.058-.477.093-.04.008-.078.02-.117.028-.141.03-.282.066-.422.101l-.2.059C8.579.5 8.47.53 8.364.566c-.113.036-.222.075-.332.11-.062.023-.125.043-.187.066a11.971 11.971 0 0 0-4.106 2.559c-.004.008-.011.011-.02.02a12.548 12.548 0 0 0-.726.757c-.004.004-.008.008-.008.012-.07.078-.14.152-.207.234l-.011.024A11.937 11.937 0 0 0 .043 12.98v.012c.02.203.039.406.066.61.004.011.004.027.008.043.024.187.055.37.09.558.004.027.012.059.016.09.03.164.066.328.105.488l.035.145c.035.14.075.281.117.422a5.543 5.543 0 0 0 .176.55c.063.184.13.364.2.543.03.079.058.157.093.23.043.11.094.212.14.317.04.082.075.164.114.242.05.102.106.207.156.31.043.077.082.155.125.23.02.035.036.07.055.101.004.012.012.02.02.031C3.62 21.54 7.527 24 12 24c6.617 0 12-5.383 12-12S18.617 0 12 0zm-1.762.941c.164.715.403 1.16.735 1.391a.41.41 0 0 0 .308.059c.024-.004 2.328-.473 3.824.796.946.801 1.383 2.145 1.297 3.993-.004.03 0 .058.004.09.016.097.418 2.418.813 3.652 1.039 3.258-.371 6.484-.383 6.515a.368.368 0 0 0-.035.184c0 .024.02.559-.406.992-.368.375-.957.578-1.758.598l-1.164-3.234-.418-1.157.187-.023a.402.402 0 0 0 .344-.29.405.405 0 0 0-.14-.425c-.02-.016-2.02-1.617-1.063-4.766.004-.02.012-.035.012-.054.09-.547-.02-1.676-1.063-2.04a.395.395 0 0 0-.508.247.396.396 0 0 0 .246.508c.617.214.555.992.54 1.136-.657 2.184-.083 3.73.507 4.64-1.094.204-1.91.5-2.262.642L5.27 3.063c.054-.043.113-.09.171-.133.098-.07.192-.14.293-.207.188-.13.38-.25.579-.364a10.375 10.375 0 0 1 1.164-.602c.25-.109.5-.214.757-.304.043-.016.09-.031.133-.043a10.84 10.84 0 0 1 1.871-.469zM8.387 19.195h-.012c-.29-.047-.57-.101-.848-.164L6.48 15.004 3.734 4.46c.07-.074.137-.152.204-.227.035-.035.07-.07.101-.105.02-.016.035-.035.05-.05.052-.052.102-.099.153-.145.121-.118.25-.235.375-.344l6.09 15.047.328.812c-.02 0-.035 0-.055-.004-.25-.011-.5-.027-.75-.043a14.4 14.4 0 0 1-.125-.011c-.27-.02-.539-.043-.808-.075-.027-.003-.059-.003-.09-.007-.273-.032-.55-.067-.82-.114zM2.129 17.29a1.343 1.343 0 0 0-.035-.074c-.133-.246-.25-.496-.364-.75-.011-.031-.027-.063-.042-.094-.11-.266-.211-.535-.301-.805-.016-.046-.035-.093-.047-.14-.09-.278-.168-.559-.235-.84-.007-.035-.015-.07-.027-.106-.066-.304-.125-.609-.168-.918 1.293.52 2.246 1.024 2.781 1.461.211.176.45.329.707.454v1.722c-.015 0-.03 0-.046.004-.012 0-1.055.125-2.223.086zm3.07.602v-2.536a4.02 4.02 0 0 0 .574.11l.864 3.32c-.528-.176-1-.387-1.438-.64zm6.719 1.601l-1.762-4.355a11.24 11.24 0 0 1 1.957-.567l.7 1.946 1.109 3.078a55.96 55.96 0 0 0-1.817-.094l-.046-.004c-.047 0-.094-.004-.141-.004zM3.102 5.207l2.449 9.402c-.2-.039-.39-.101-.578-.187a.401.401 0 0 0-.52.164c-.086-.059-.176-.113-.25-.176-.66-.547-1.8-1.129-3.379-1.742A9.54 9.54 0 0 1 .801 12c0-2.55.86-4.906 2.3-6.793zM12 23.199c-3.93 0-7.39-2.035-9.39-5.105.75 0 1.382-.051 1.671-.078l.117.082v.273c0 .137.075.266.188.34.73.457 1.547.793 2.512 1.039h.004c.003 0 .007.004.011.004.14.035.282.066.426.098.063.011.125.027.188.039.12.023.246.047.367.066l.289.047c.105.016.21.035.324.047.156.023.316.043.477.058.05.004.093.012.144.02h.035c.172.02.348.035.52.05h.055v.005h.023l.473.035h.035c.008 0 .02.004.027.004h.031c.368.023.735.039 1.098.058h.008c.129.004.258.012.39.016h.047c.621.027 1.258.055 1.871.101.192.016.38.024.559.024a.402.402 0 0 0 .398-.422c.907-.063 1.606-.344 2.079-.84a2.26 2.26 0 0 0 .62-1.476c.231-.555 1.434-3.707.383-7.004-.347-1.094-.722-3.184-.78-3.504.09-2.086-.442-3.633-1.575-4.598-1.52-1.289-3.621-1.105-4.297-1.008-.078-.105-.187-.32-.289-.726C11.355.816 11.676.8 12 .8 18.176.8 23.2 5.824 23.2 12S18.175 23.2 12 23.2zm0 0"/>
</svg>
