<svg xmlns="http://www.w3.org/2000/svg" width="32" height="32" viewBox="0 0 24 24">
    <path d="M 22.398438 12.800781 L 22.398438 6.398438 L 23.199219 6.398438 L 23.199219 4 L 22.398438 4 L 22.398438 0.597656 C 22.398438 0.269531 22.132812 0 21.800781 0 L 16.597656 0 C 16.269531 0 16 0.269531 16 0.597656 L 16 4 L 15.199219 4 L 15.199219 0.597656 C 15.199219 0.269531 14.929688 0 14.601562 0 L 9.398438 0 C 9.070312 0 8.800781 0.269531 8.800781 0.597656 L 8.800781 4 L 8 4 L 8 0.597656 C 8 0.269531 7.730469 0 7.402344 0 L 2.199219 0 C 1.867188 0 1.601562 0.269531 1.601562 0.597656 L 1.601562 4 L 0.800781 4 L 0.800781 6.398438 L 1.601562 6.398438 L 1.601562 12.800781 L 0 12.800781 L 0 24 L 24 24 L 24 12.800781 Z M 16.800781 18.398438 L 16.800781 16.800781 C 17.019531 16.800781 17.199219 16.621094 17.199219 16.398438 C 17.199219 16.179688 17.019531 16 16.800781 16 L 16.800781 14.398438 C 17.019531 14.398438 17.199219 14.222656 17.199219 14 C 17.199219 13.777344 17.019531 13.601562 16.800781 13.601562 L 16.800781 12 C 17.019531 12 17.199219 11.820312 17.199219 11.601562 C 17.199219 11.378906 17.019531 11.199219 16.800781 11.199219 L 16.800781 9.601562 C 17.019531 9.601562 17.199219 9.421875 17.199219 9.199219 L 18.800781 9.199219 C 18.800781 9.421875 18.980469 9.601562 19.199219 9.601562 C 19.421875 9.601562 19.601562 9.421875 19.601562 9.199219 L 21.199219 9.199219 C 21.199219 9.421875 21.378906 9.601562 21.601562 9.601562 L 21.601562 11.199219 C 21.378906 11.199219 21.199219 11.378906 21.199219 11.601562 C 21.199219 11.820312 21.378906 12 21.601562 12 L 21.601562 13.601562 C 21.378906 13.601562 21.199219 13.777344 21.199219 14 C 21.199219 14.222656 21.378906 14.398438 21.601562 14.398438 L 21.601562 16 C 21.378906 16 21.199219 16.179688 21.199219 16.398438 C 21.199219 16.621094 21.378906 16.800781 21.601562 16.800781 L 21.601562 18.398438 C 21.378906 18.398438 21.199219 18.578125 21.199219 18.800781 C 21.199219 18.976562 21.3125 19.121094 21.46875 19.171875 C 21.148438 20.117188 20.253906 20.800781 19.199219 20.800781 C 18.148438 20.800781 17.253906 20.117188 16.929688 19.171875 C 17.085938 19.121094 17.199219 18.976562 17.199219 18.800781 C 17.199219 18.578125 17.019531 18.398438 16.800781 18.398438 Z M 21.601562 8.398438 L 16.800781 8.398438 L 16.800781 6.398438 L 21.601562 6.398438 Z M 20.800781 3.398438 C 20.800781 3.070312 21.070312 2.800781 21.398438 2.800781 C 21.476562 2.800781 21.542969 2.816406 21.601562 2.835938 L 21.601562 3.964844 C 21.542969 3.984375 21.476562 4 21.398438 4 C 21.070312 4 20.800781 3.730469 20.800781 3.398438 Z M 19.929688 0.800781 C 19.765625 1.265625 19.320312 1.601562 18.800781 1.601562 C 18.277344 1.601562 17.832031 1.265625 17.667969 0.800781 Z M 16.839844 0.800781 C 17.027344 1.710938 17.835938 2.398438 18.800781 2.398438 C 19.765625 2.398438 20.574219 1.710938 20.757812 0.800781 L 21.601562 0.800781 L 21.601562 2.015625 C 21.535156 2.007812 21.46875 2 21.398438 2 C 20.628906 2 20 2.628906 20 3.398438 C 20 3.617188 20.054688 3.816406 20.140625 4 L 19.578125 4 C 19.480469 3.101562 18.722656 2.398438 17.800781 2.398438 C 17.429688 2.398438 17.085938 2.511719 16.800781 2.703125 L 16.800781 0.800781 Z M 18.78125 4 L 16.820312 4 C 16.914062 3.542969 17.316406 3.199219 17.800781 3.199219 C 18.28125 3.199219 18.6875 3.542969 18.78125 4 Z M 16 4.800781 L 22.398438 4.800781 L 22.398438 5.601562 L 16 5.601562 Z M 16 6.398438 L 16 12.800781 L 15.199219 12.800781 L 15.199219 6.398438 Z M 14.398438 8.398438 L 9.601562 8.398438 L 9.601562 6.398438 L 14.398438 6.398438 Z M 9.601562 18.398438 L 9.601562 16.800781 C 9.820312 16.800781 10 16.621094 10 16.398438 C 10 16.179688 9.820312 16 9.601562 16 L 9.601562 14.398438 C 9.820312 14.398438 10 14.222656 10 14 C 10 13.777344 9.820312 13.601562 9.601562 13.601562 L 9.601562 12 C 9.820312 12 10 11.820312 10 11.601562 C 10 11.378906 9.820312 11.199219 9.601562 11.199219 L 9.601562 9.601562 C 9.820312 9.601562 10 9.421875 10 9.199219 L 11.601562 9.199219 C 11.601562 9.421875 11.777344 9.601562 12 9.601562 C 12.222656 9.601562 12.398438 9.421875 12.398438 9.199219 L 14 9.199219 C 14 9.421875 14.179688 9.601562 14.398438 9.601562 L 14.398438 11.199219 C 14.179688 11.199219 14 11.378906 14 11.601562 C 14 11.820312 14.179688 12 14.398438 12 L 14.398438 13.601562 C 14.179688 13.601562 14 13.777344 14 14 C 14 14.222656 14.179688 14.398438 14.398438 14.398438 L 14.398438 16 C 14.179688 16 14 16.179688 14 16.398438 C 14 16.621094 14.179688 16.800781 14.398438 16.800781 L 14.398438 18.398438 C 14.179688 18.398438 14 18.578125 14 18.800781 C 14 18.976562 14.113281 19.121094 14.269531 19.171875 C 13.945312 20.117188 13.050781 20.800781 12 20.800781 C 10.949219 20.800781 10.054688 20.117188 9.730469 19.171875 C 9.886719 19.121094 10 18.976562 10 18.800781 C 10 18.578125 9.820312 18.398438 9.601562 18.398438 Z M 13.601562 3.398438 C 13.601562 3.070312 13.871094 2.800781 14.199219 2.800781 C 14.273438 2.800781 14.34375 2.816406 14.398438 2.835938 L 14.398438 3.964844 C 14.34375 3.984375 14.273438 4 14.199219 4 C 13.871094 4 13.601562 3.730469 13.601562 3.398438 Z M 12.730469 0.800781 C 12.566406 1.265625 12.121094 1.601562 11.601562 1.601562 C 11.078125 1.601562 10.632812 1.265625 10.46875 0.800781 Z M 9.640625 0.800781 C 9.828125 1.710938 10.632812 2.398438 11.601562 2.398438 C 12.566406 2.398438 13.375 1.710938 13.558594 0.800781 L 14.398438 0.800781 L 14.398438 2.015625 C 14.335938 2.007812 14.269531 2 14.199219 2 C 13.429688 2 12.800781 2.628906 12.800781 3.398438 C 12.800781 3.617188 12.851562 3.816406 12.941406 4 L 12.378906 4 C 12.277344 3.101562 11.523438 2.398438 10.601562 2.398438 C 10.230469 2.398438 9.886719 2.511719 9.601562 2.703125 L 9.601562 0.800781 Z M 11.578125 4 L 9.621094 4 C 9.710938 3.542969 10.117188 3.199219 10.601562 3.199219 C 11.082031 3.199219 11.488281 3.542969 11.578125 4 Z M 8.800781 4.800781 L 15.199219 4.800781 L 15.199219 5.601562 L 8.800781 5.601562 Z M 8.800781 6.398438 L 8.800781 12.800781 L 8 12.800781 L 8 6.398438 Z M 2.398438 18.398438 L 2.398438 16.800781 C 2.621094 16.800781 2.800781 16.621094 2.800781 16.398438 C 2.800781 16.179688 2.621094 16 2.398438 16 L 2.398438 14.398438 C 2.621094 14.398438 2.800781 14.222656 2.800781 14 C 2.800781 13.777344 2.621094 13.601562 2.398438 13.601562 L 2.398438 12 C 2.621094 12 2.800781 11.820312 2.800781 11.601562 C 2.800781 11.378906 2.621094 11.199219 2.398438 11.199219 L 2.398438 9.601562 C 2.621094 9.601562 2.800781 9.421875 2.800781 9.199219 L 4.398438 9.199219 C 4.398438 9.421875 4.578125 9.601562 4.800781 9.601562 C 5.019531 9.601562 5.199219 9.421875 5.199219 9.199219 L 6.800781 9.199219 C 6.800781 9.421875 6.980469 9.601562 7.199219 9.601562 L 7.199219 11.199219 C 6.980469 11.199219 6.800781 11.378906 6.800781 11.601562 C 6.800781 11.820312 6.980469 12 7.199219 12 L 7.199219 13.601562 C 6.980469 13.601562 6.800781 13.777344 6.800781 14 C 6.800781 14.222656 6.980469 14.398438 7.199219 14.398438 L 7.199219 16 C 6.980469 16 6.800781 16.179688 6.800781 16.398438 C 6.800781 16.621094 6.980469 16.800781 7.199219 16.800781 L 7.199219 18.398438 C 6.980469 18.398438 6.800781 18.578125 6.800781 18.800781 C 6.800781 18.976562 6.914062 19.121094 7.070312 19.171875 C 6.746094 20.117188 5.851562 20.800781 4.800781 20.800781 C 3.746094 20.800781 2.851562 20.117188 2.53125 19.171875 C 2.6875 19.121094 2.800781 18.976562 2.800781 18.800781 C 2.800781 18.578125 2.621094 18.398438 2.398438 18.398438 Z M 6.398438 3.398438 C 6.398438 3.070312 6.667969 2.800781 7 2.800781 C 7.074219 2.800781 7.140625 2.816406 7.199219 2.835938 L 7.199219 3.964844 C 7.140625 3.984375 7.074219 4 7 4 C 6.667969 4 6.398438 3.730469 6.398438 3.398438 Z M 5.53125 0.800781 C 5.367188 1.265625 4.921875 1.601562 4.398438 1.601562 C 3.878906 1.601562 3.433594 1.265625 3.269531 0.800781 Z M 2.441406 0.800781 C 2.625 1.710938 3.433594 2.398438 4.398438 2.398438 C 5.367188 2.398438 6.171875 1.710938 6.359375 0.800781 L 7.199219 0.800781 L 7.199219 2.015625 C 7.132812 2.007812 7.066406 2 7 2 C 6.226562 2 5.601562 2.628906 5.601562 3.398438 C 5.601562 3.617188 5.652344 3.816406 5.742188 4 L 5.179688 4 C 5.078125 3.101562 4.324219 2.398438 3.398438 2.398438 C 3.03125 2.398438 2.6875 2.511719 2.398438 2.703125 L 2.398438 0.800781 Z M 4.378906 4 L 2.421875 4 C 2.511719 3.542969 2.917969 3.199219 3.398438 3.199219 C 3.882812 3.199219 4.285156 3.542969 4.378906 4 Z M 1.601562 4.800781 L 8 4.800781 L 8 5.601562 L 1.601562 5.601562 Z M 2.398438 6.398438 L 7.199219 6.398438 L 7.199219 8.398438 L 2.398438 8.398438 Z M 23.199219 23.199219 L 0.800781 23.199219 L 0.800781 13.601562 L 1.601562 13.601562 L 1.601562 18.398438 C 1.601562 20.164062 3.035156 21.601562 4.800781 21.601562 C 6.5625 21.601562 8 20.164062 8 18.398438 L 8 13.601562 L 8.800781 13.601562 L 8.800781 18.398438 C 8.800781 20.164062 10.234375 21.601562 12 21.601562 C 13.765625 21.601562 15.199219 20.164062 15.199219 18.398438 L 15.199219 13.601562 L 16 13.601562 L 16 18.398438 C 16 20.164062 17.4375 21.601562 19.199219 21.601562 C 20.964844 21.601562 22.398438 20.164062 22.398438 18.398438 L 22.398438 13.601562 L 23.199219 13.601562 Z M 23.199219 23.199219"/>
    <path d="M18.398438 10.398438C18.398438 10.621094 18.222656 10.800781 18 10.800781 17.777344 10.800781 17.601562 10.621094 17.601562 10.398438 17.601562 10.179688 17.777344 10 18 10 18.222656 10 18.398438 10.179688 18.398438 10.398438zM20.800781 10.398438C20.800781 10.621094 20.621094 10.800781 20.398438 10.800781 20.179688 10.800781 20 10.621094 20 10.398438 20 10.179688 20.179688 10 20.398438 10 20.621094 10 20.800781 10.179688 20.800781 10.398438zM19.601562 11.601562C19.601562 11.820312 19.421875 12 19.199219 12 18.980469 12 18.800781 11.820312 18.800781 11.601562 18.800781 11.378906 18.980469 11.199219 19.199219 11.199219 19.421875 11.199219 19.601562 11.378906 19.601562 11.601562zM18.398438 12.800781C18.398438 13.019531 18.222656 13.199219 18 13.199219 17.777344 13.199219 17.601562 13.019531 17.601562 12.800781 17.601562 12.578125 17.777344 12.398438 18 12.398438 18.222656 12.398438 18.398438 12.578125 18.398438 12.800781zM18.398438 15.199219C18.398438 15.421875 18.222656 15.601562 18 15.601562 17.777344 15.601562 17.601562 15.421875 17.601562 15.199219 17.601562 14.980469 17.777344 14.800781 18 14.800781 18.222656 14.800781 18.398438 14.980469 18.398438 15.199219zM19.601562 14C19.601562 14.222656 19.421875 14.398438 19.199219 14.398438 18.980469 14.398438 18.800781 14.222656 18.800781 14 18.800781 13.777344 18.980469 13.601562 19.199219 13.601562 19.421875 13.601562 19.601562 13.777344 19.601562 14zM20.800781 12.800781C20.800781 13.019531 20.621094 13.199219 20.398438 13.199219 20.179688 13.199219 20 13.019531 20 12.800781 20 12.578125 20.179688 12.398438 20.398438 12.398438 20.621094 12.398438 20.800781 12.578125 20.800781 12.800781zM20.800781 15.199219C20.800781 15.421875 20.621094 15.601562 20.398438 15.601562 20.179688 15.601562 20 15.421875 20 15.199219 20 14.980469 20.179688 14.800781 20.398438 14.800781 20.621094 14.800781 20.800781 14.980469 20.800781 15.199219zM19.601562 16.398438C19.601562 16.621094 19.421875 16.800781 19.199219 16.800781 18.980469 16.800781 18.800781 16.621094 18.800781 16.398438 18.800781 16.179688 18.980469 16 19.199219 16 19.421875 16 19.601562 16.179688 19.601562 16.398438zM18.398438 17.601562C18.398438 17.820312 18.222656 18 18 18 17.777344 18 17.601562 17.820312 17.601562 17.601562 17.601562 17.378906 17.777344 17.199219 18 17.199219 18.222656 17.199219 18.398438 17.378906 18.398438 17.601562zM19.601562 18.800781C19.601562 19.019531 19.421875 19.199219 19.199219 19.199219 18.980469 19.199219 18.800781 19.019531 18.800781 18.800781 18.800781 18.578125 18.980469 18.398438 19.199219 18.398438 19.421875 18.398438 19.601562 18.578125 19.601562 18.800781zM20.800781 17.601562C20.800781 17.820312 20.621094 18 20.398438 18 20.179688 18 20 17.820312 20 17.601562 20 17.378906 20.179688 17.199219 20.398438 17.199219 20.621094 17.199219 20.800781 17.378906 20.800781 17.601562zM11.199219 10.398438C11.199219 10.621094 11.019531 10.800781 10.800781 10.800781 10.578125 10.800781 10.398438 10.621094 10.398438 10.398438 10.398438 10.179688 10.578125 10 10.800781 10 11.019531 10 11.199219 10.179688 11.199219 10.398438zM13.601562 10.398438C13.601562 10.621094 13.421875 10.800781 13.199219 10.800781 12.980469 10.800781 12.800781 10.621094 12.800781 10.398438 12.800781 10.179688 12.980469 10 13.199219 10 13.421875 10 13.601562 10.179688 13.601562 10.398438zM12.398438 11.601562C12.398438 11.820312 12.222656 12 12 12 11.777344 12 11.601562 11.820312 11.601562 11.601562 11.601562 11.378906 11.777344 11.199219 12 11.199219 12.222656 11.199219 12.398438 11.378906 12.398438 11.601562zM11.199219 12.800781C11.199219 13.019531 11.019531 13.199219 10.800781 13.199219 10.578125 13.199219 10.398438 13.019531 10.398438 12.800781 10.398438 12.578125 10.578125 12.398438 10.800781 12.398438 11.019531 12.398438 11.199219 12.578125 11.199219 12.800781zM11.199219 15.199219C11.199219 15.421875 11.019531 15.601562 10.800781 15.601562 10.578125 15.601562 10.398438 15.421875 10.398438 15.199219 10.398438 14.980469 10.578125 14.800781 10.800781 14.800781 11.019531 14.800781 11.199219 14.980469 11.199219 15.199219zM12.398438 14C12.398438 14.222656 12.222656 14.398438 12 14.398438 11.777344 14.398438 11.601562 14.222656 11.601562 14 11.601562 13.777344 11.777344 13.601562 12 13.601562 12.222656 13.601562 12.398438 13.777344 12.398438 14zM13.601562 12.800781C13.601562 13.019531 13.421875 13.199219 13.199219 13.199219 12.980469 13.199219 12.800781 13.019531 12.800781 12.800781 12.800781 12.578125 12.980469 12.398438 13.199219 12.398438 13.421875 12.398438 13.601562 12.578125 13.601562 12.800781zM13.601562 15.199219C13.601562 15.421875 13.421875 15.601562 13.199219 15.601562 12.980469 15.601562 12.800781 15.421875 12.800781 15.199219 12.800781 14.980469 12.980469 14.800781 13.199219 14.800781 13.421875 14.800781 13.601562 14.980469 13.601562 15.199219zM12.398438 16.398438C12.398438 16.621094 12.222656 16.800781 12 16.800781 11.777344 16.800781 11.601562 16.621094 11.601562 16.398438 11.601562 16.179688 11.777344 16 12 16 12.222656 16 12.398438 16.179688 12.398438 16.398438zM11.199219 17.601562C11.199219 17.820312 11.019531 18 10.800781 18 10.578125 18 10.398438 17.820312 10.398438 17.601562 10.398438 17.378906 10.578125 17.199219 10.800781 17.199219 11.019531 17.199219 11.199219 17.378906 11.199219 17.601562zM12.398438 18.800781C12.398438 19.019531 12.222656 19.199219 12 19.199219 11.777344 19.199219 11.601562 19.019531 11.601562 18.800781 11.601562 18.578125 11.777344 18.398438 12 18.398438 12.222656 18.398438 12.398438 18.578125 12.398438 18.800781zM13.601562 17.601562C13.601562 17.820312 13.421875 18 13.199219 18 12.980469 18 12.800781 17.820312 12.800781 17.601562 12.800781 17.378906 12.980469 17.199219 13.199219 17.199219 13.421875 17.199219 13.601562 17.378906 13.601562 17.601562zM4 10.398438C4 10.621094 3.820312 10.800781 3.601562 10.800781 3.378906 10.800781 3.199219 10.621094 3.199219 10.398438 3.199219 10.179688 3.378906 10 3.601562 10 3.820312 10 4 10.179688 4 10.398438zM6.398438 10.398438C6.398438 10.621094 6.222656 10.800781 6 10.800781 5.777344 10.800781 5.601562 10.621094 5.601562 10.398438 5.601562 10.179688 5.777344 10 6 10 6.222656 10 6.398438 10.179688 6.398438 10.398438zM5.199219 11.601562C5.199219 11.820312 5.019531 12 4.800781 12 4.578125 12 4.398438 11.820312 4.398438 11.601562 4.398438 11.378906 4.578125 11.199219 4.800781 11.199219 5.019531 11.199219 5.199219 11.378906 5.199219 11.601562zM4 12.800781C4 13.019531 3.820312 13.199219 3.601562 13.199219 3.378906 13.199219 3.199219 13.019531 3.199219 12.800781 3.199219 12.578125 3.378906 12.398438 3.601562 12.398438 3.820312 12.398438 4 12.578125 4 12.800781zM4 15.199219C4 15.421875 3.820312 15.601562 3.601562 15.601562 3.378906 15.601562 3.199219 15.421875 3.199219 15.199219 3.199219 14.980469 3.378906 14.800781 3.601562 14.800781 3.820312 14.800781 4 14.980469 4 15.199219zM5.199219 14C5.199219 14.222656 5.019531 14.398438 4.800781 14.398438 4.578125 14.398438 4.398438 14.222656 4.398438 14 4.398438 13.777344 4.578125 13.601562 4.800781 13.601562 5.019531 13.601562 5.199219 13.777344 5.199219 14zM6.398438 12.800781C6.398438 13.019531 6.222656 13.199219 6 13.199219 5.777344 13.199219 5.601562 13.019531 5.601562 12.800781 5.601562 12.578125 5.777344 12.398438 6 12.398438 6.222656 12.398438 6.398438 12.578125 6.398438 12.800781zM6.398438 15.199219C6.398438 15.421875 6.222656 15.601562 6 15.601562 5.777344 15.601562 5.601562 15.421875 5.601562 15.199219 5.601562 14.980469 5.777344 14.800781 6 14.800781 6.222656 14.800781 6.398438 14.980469 6.398438 15.199219zM5.199219 16.398438C5.199219 16.621094 5.019531 16.800781 4.800781 16.800781 4.578125 16.800781 4.398438 16.621094 4.398438 16.398438 4.398438 16.179688 4.578125 16 4.800781 16 5.019531 16 5.199219 16.179688 5.199219 16.398438zM4 17.601562C4 17.820312 3.820312 18 3.601562 18 3.378906 18 3.199219 17.820312 3.199219 17.601562 3.199219 17.378906 3.378906 17.199219 3.601562 17.199219 3.820312 17.199219 4 17.378906 4 17.601562zM5.199219 18.800781C5.199219 19.019531 5.019531 19.199219 4.800781 19.199219 4.578125 19.199219 4.398438 19.019531 4.398438 18.800781 4.398438 18.578125 4.578125 18.398438 4.800781 18.398438 5.019531 18.398438 5.199219 18.578125 5.199219 18.800781zM6.398438 17.601562C6.398438 17.820312 6.222656 18 6 18 5.777344 18 5.601562 17.820312 5.601562 17.601562 5.601562 17.378906 5.777344 17.199219 6 17.199219 6.222656 17.199219 6.398438 17.378906 6.398438 17.601562zM6.398438 17.601562"/>
</svg>
