<svg xmlns="http://www.w3.org/2000/svg" width="32" height="32" viewBox="0 0 24 24">
    <path d="M22.398 12.8V6.399h.801V4h-.8V.598A.598.598 0 0 0 21.8 0h-5.203A.6.6 0 0 0 16 .598V4h-.8V.598A.6.6 0 0 0 14.601 0H9.398a.6.6 0 0 0-.597.598V4H8V.598A.6.6 0 0 0 7.402 0H2.2a.598.598 0 0 0-.597.598V4H.8v2.398h.8v6.403H0V24h24V12.8zm-5.597 5.598v-1.597a.401.401 0 0 0 0-.801v-1.602a.398.398 0 1 0 0-.796V12a.4.4 0 0 0 0-.8V9.601c.219 0 .398-.18.398-.403h1.602a.401.401 0 1 0 .8 0H21.2c0 .223.18.403.403.403v1.597a.401.401 0 0 0 0 .8v1.603a.398.398 0 1 0 0 .796V16a.401.401 0 1 0 0 .8v1.598a.402.402 0 0 0-.403.403c0 .176.113.32.27.37a2.399 2.399 0 0 1-2.27 1.63 2.406 2.406 0 0 1-2.27-1.63.388.388 0 0 0 .27-.37.401.401 0 0 0-.398-.403zm4.8-10h-4.8v-2h4.8zm-.8-5a.6.6 0 0 1 .8-.562v1.129a.601.601 0 0 1-.8-.566zM19.93.801c-.164.465-.61.8-1.13.8-.523 0-.968-.335-1.132-.8zm-3.09 0a1.999 1.999 0 1 0 3.918 0h.844v1.215A1.402 1.402 0 0 0 20 3.399c0 .218.055.417.14.601h-.562a1.789 1.789 0 0 0-2.777-1.297V.801zM18.78 4h-1.96a1.001 1.001 0 0 1 1.96 0zM16 4.8h6.398v.802H16zm0 1.598v6.403h-.8V6.398zm-1.602 2H9.602v-2h4.796zm-4.796 10v-1.597a.401.401 0 0 0 0-.801v-1.602a.398.398 0 1 0 0-.796V12a.4.4 0 0 0 0-.8V9.601c.218 0 .398-.18.398-.403h1.602a.398.398 0 1 0 .796 0H14c0 .223.18.403.398.403v1.597a.401.401 0 0 0 0 .801v1.602a.398.398 0 1 0 0 .796V16a.4.4 0 0 0 0 .8v1.598a.401.401 0 0 0-.398.403c0 .176.113.32.27.37a2.406 2.406 0 0 1-2.27 1.63 2.406 2.406 0 0 1-2.27-1.63.388.388 0 0 0 .27-.37.401.401 0 0 0-.398-.403zm4-15a.6.6 0 0 1 .796-.562v1.129a.601.601 0 0 1-.797-.566zM12.73.801c-.164.465-.609.8-1.128.8-.524 0-.97-.335-1.133-.8zM9.64.8c.188.91.993 1.597 1.962 1.597.964 0 1.773-.687 1.957-1.597h.84v1.215A1.402 1.402 0 0 0 12.8 3.399c0 .218.05.417.14.601h-.562a1.796 1.796 0 0 0-1.777-1.602c-.372 0-.715.114-1 .305V.801zM11.579 4H9.621a.998.998 0 0 1 1.957 0zm-2.777.8h6.398v.802H8.801zm0 1.598v6.403H8V6.398zm-6.403 12v-1.597a.401.401 0 0 0 0-.8v-1.603a.398.398 0 1 0 0-.796V12a.401.401 0 1 0 0-.8V9.601c.223 0 .403-.18.403-.403h1.597a.401.401 0 0 0 .8 0h1.603c0 .223.18.403.398.403v1.597a.401.401 0 0 0 0 .801v1.602a.398.398 0 1 0 0 .796V16a.4.4 0 0 0 0 .8v1.598a.401.401 0 0 0-.398.403c0 .176.113.32.27.37a2.406 2.406 0 0 1-2.27 1.63 2.399 2.399 0 0 1-2.27-1.63.388.388 0 0 0 .27-.37.402.402 0 0 0-.403-.403zm4-15a.601.601 0 0 1 .801-.562v1.129a.602.602 0 0 1-.8-.566zM5.531.801c-.164.465-.61.8-1.133.8-.52 0-.964-.335-1.128-.8zm-3.09 0A1.999 1.999 0 0 0 6.36.8h.84v1.215a1.4 1.4 0 0 0-1.598 1.383c0 .218.051.417.141.601H5.18a1.797 1.797 0 0 0-1.782-1.602c-.367 0-.71.114-1 .305V.801zM4.38 4H2.422a.997.997 0 0 1 1.957 0zm-2.777.8H8v.802H1.602zm.796 1.598H7.2v2H2.4zM23.2 23.2H.801v-9.597h.8v4.796a3.204 3.204 0 0 0 3.2 3.204C6.562 21.602 8 20.164 8 18.398v-4.796h.8v4.796a3.204 3.204 0 0 0 3.2 3.204c1.766 0 3.2-1.438 3.2-3.204v-4.796h.8v4.796a3.207 3.207 0 0 0 3.2 3.204c1.765 0 3.198-1.438 3.198-3.204v-4.796h.801zm0 0"/>
    <path d="M18.398 10.398a.398.398 0 1 1-.796 0 .398.398 0 1 1 .796 0zm0 0M20.8 10.398a.401.401 0 1 1 0 0zm0 0M19.602 11.602a.401.401 0 1 1-.802-.005.401.401 0 0 1 .802.005zm0 0M18.398 12.8a.398.398 0 1 1-.796 0 .398.398 0 1 1 .796 0zm0 0M18.398 15.2a.398.398 0 1 1-.796 0 .398.398 0 1 1 .796 0zm0 0M19.602 14c0 .223-.18.398-.403.398a.398.398 0 1 1 0-.796c.223 0 .403.175.403.398zm0 0M20.8 12.8a.401.401 0 1 1-.801-.004.401.401 0 0 1 .802.005zm0 0M20.8 15.2a.401.401 0 1 1 0 0zm0 0M19.602 16.398a.401.401 0 1 1 0 0zm0 0M18.398 17.602a.398.398 0 1 1-.796 0 .398.398 0 1 1 .796 0zm0 0M19.602 18.8a.401.401 0 1 1-.802-.004.401.401 0 0 1 .802.005zm0 0M20.8 17.602a.401.401 0 1 1-.801-.005.401.401 0 0 1 .802.005zm0 0M11.2 10.398a.401.401 0 1 1-.803.003.401.401 0 0 1 .802-.003zm0 0M13.602 10.398a.401.401 0 1 1 0 0zm0 0M12.398 11.602a.398.398 0 1 1-.796 0 .398.398 0 1 1 .796 0zm0 0M11.2 12.8a.4.4 0 1 1-.801-.003.4.4 0 0 1 .8.004zm0 0M11.2 15.2a.401.401 0 1 1-.803.002.401.401 0 0 1 .802-.003zm0 0M12.398 14a.395.395 0 0 1-.398.398.395.395 0 0 1-.398-.398c0-.223.175-.398.398-.398.223 0 .398.175.398.398zm0 0M13.602 12.8a.401.401 0 1 1-.802-.004.401.401 0 0 1 .802.005zm0 0M13.602 15.2a.401.401 0 1 1 0 0zm0 0M12.398 16.398a.398.398 0 1 1-.796 0 .398.398 0 1 1 .796 0zm0 0M11.2 17.602a.4.4 0 1 1-.801-.004.4.4 0 0 1 .8.004zm0 0M12.398 18.8a.398.398 0 1 1-.796 0 .398.398 0 1 1 .796 0zm0 0M13.602 17.602a.401.401 0 1 1-.802-.005.401.401 0 0 1 .802.005zm0 0M4 10.398a.401.401 0 1 1-.802.003.401.401 0 0 1 .802-.003zm0 0M6.398 10.398a.398.398 0 1 1-.796 0 .398.398 0 1 1 .796 0zm0 0M5.2 11.602a.4.4 0 1 1-.801-.004.4.4 0 0 1 .8.004zm0 0M4 12.8a.4.4 0 1 1-.8-.003.4.4 0 0 1 .8.004zm0 0M4 15.2a.401.401 0 1 1-.802.002.401.401 0 0 1 .802-.003zm0 0M5.2 14c0 .223-.18.398-.4.398a.398.398 0 1 1 0-.796c.22 0 .4.175.4.398zm0 0M6.398 12.8a.398.398 0 1 1-.796 0 .398.398 0 1 1 .796 0zm0 0M6.398 15.2a.398.398 0 1 1-.796 0 .398.398 0 1 1 .796 0zm0 0M5.2 16.398a.401.401 0 1 1-.803.003.401.401 0 0 1 .802-.003zm0 0M4 17.602a.4.4 0 1 1-.8-.004.4.4 0 0 1 .8.004zm0 0M5.2 18.8a.4.4 0 1 1-.801-.003.4.4 0 0 1 .8.004zm0 0M6.398 17.602a.398.398 0 1 1-.796 0 .398.398 0 1 1 .796 0zm0 0"/>
</svg>
