<svg xmlns="http://www.w3.org/2000/svg" width="32" height="32" viewBox="0 0 24 24">
    <path d="M17.098 2.398h-1.97A.128.128 0 0 1 15 2.27V1.172C15 .527 14.473 0 13.828 0H10.57c-.644 0-1.172.527-1.172 1.172V2.27a.125.125 0 0 1-.128.128H7.3a1.907 1.907 0 0 0-1.902 1.903v12.558c0 .852.692 1.54 1.543 1.54h4.86v.402h-1.602a.4.4 0 0 0 0 .8h.403v1.766l1.03 1.031h.095c-.165.465-.606.801-1.125.801A1.603 1.603 0 0 1 9 21.602c0-.036-.012-.063-.02-.094-.093-1.098-.906-1.906-1.98-1.906-1.074 0-1.887.808-1.98 1.906-.008.031-.02.058-.02.094v2a.4.4 0 0 0 .8 0v-1.887c0-.762.505-1.317 1.2-1.317s1.2.555 1.2 1.317c0 .012.007.023.007.039A2.404 2.404 0 0 0 10.602 24c.964 0 1.773-.688 1.957-1.602h.207l1.035-1.03v-1.766h.398a.401.401 0 0 0 0-.8l-1.597-.001v-.403h4.859c.848 0 1.539-.691 1.539-1.539V4.301a1.905 1.905 0 0 0-1.902-1.903zM13 21.035l-.566.567h-.47l-.566-.567v-1.433H13zm5.2-4.176c0 .41-.333.743-.74.743h-4.858v-.403h2.644a.822.822 0 0 0 .524-.183l1.718-1.375a.82.82 0 0 0 .313-.649V4.434a.834.834 0 0 0-.836-.832H7.434a.83.83 0 0 0-.832.832v10.558a.82.82 0 0 0 .312.649l1.719 1.379a.83.83 0 0 0 .52.18H11.8v.402H6.94a.742.742 0 0 1-.742-.743V4.301c0-.606.496-1.102 1.102-1.102H9.27c.511 0 .93-.418.93-.93V1.173c0-.203.167-.371.37-.371h3.258a.37.37 0 0 1 .371.37V2.27c0 .511.418.93.93.93h1.969c.609 0 1.101.495 1.101 1.1zm-6-1.257a.398.398 0 0 0-.4.398v.395h-1.6a.4.4 0 0 0-.798 0h-.27l-1.734-1.403V4.434c0-.02.016-.036.036-.036h1.964a.401.401 0 0 0 .8 0h1.603a.401.401 0 1 0 .8 0H14.2a.401.401 0 0 0 .8 0h1.966c.02 0 .035.016.035.036l-.012 10.586-1.718 1.37c-.008.008-.012.008-.024.008H15a.4.4 0 0 0-.8 0h-1.598V16a.398.398 0 0 0-.403-.398zm0 0"/>
    <path d="M12.602 20.8a.401.401 0 1 1-.802-.004.401.401 0 0 1 .802.005zm0 0M13.398 1.602h-.796a.401.401 0 0 0-.8 0h-.802a.395.395 0 0 0-.398.398c0 .223.175.398.398.398h.8a.401.401 0 1 0 .802 0h.796a.398.398 0 1 0 0-.796zm0 0M9 5.602a.4.4 0 1 1-.8-.004.4.4 0 0 1 .8.004zm0 0M11.398 5.602a.398.398 0 1 1-.796 0 .398.398 0 1 1 .796 0zm0 0M13.8 5.602A.401.401 0 1 1 13 5.597a.401.401 0 0 1 .802.005zm0 0M16.2 5.602a.4.4 0 1 1-.801-.004.4.4 0 0 1 .8.004zm0 0M10.2 6.8a.4.4 0 1 1-.801-.003.4.4 0 0 1 .8.004zm0 0M12.602 6.8a.401.401 0 1 1-.802-.004.401.401 0 0 1 .802.005zm0 0M15 6.8a.4.4 0 1 1-.8-.003.4.4 0 0 1 .8.004zm0 0M9 8c0 .223-.18.398-.398.398a.398.398 0 1 1 0-.796C8.82 7.602 9 7.777 9 8zm0 0M11.398 8a.395.395 0 0 1-.398.398.395.395 0 0 1-.398-.398c0-.223.175-.398.398-.398.223 0 .398.175.398.398zm0 0M9 10.398a.401.401 0 1 1-.802.003.401.401 0 0 1 .802-.003zm0 0M11.398 10.398a.398.398 0 1 1-.796 0 .398.398 0 1 1 .796 0zm0 0M10.2 9.2a.401.401 0 1 1-.803.002.401.401 0 0 1 .802-.003zm0 0M12.602 9.2a.401.401 0 1 1 0 0zm0 0M13.8 8c0 .223-.179.398-.402.398a.398.398 0 1 1 0-.796c.223 0 .403.175.403.398zm0 0M16.2 8c0 .223-.18.398-.4.398a.398.398 0 1 1 0-.796c.22 0 .4.175.4.398zm0 0M13.8 10.398a.401.401 0 1 1 0 0zm0 0M16.2 10.398a.401.401 0 1 1-.803.003.401.401 0 0 1 .802-.003zm0 0M15 9.2a.401.401 0 1 1-.802.002.401.401 0 0 1 .802-.003zm0 0M10.2 11.602a.4.4 0 1 1-.801-.004.4.4 0 0 1 .8.004zm0 0M12.602 11.602a.401.401 0 1 1-.802-.005.401.401 0 0 1 .802.005zm0 0M15 11.602a.4.4 0 1 1-.8-.004.4.4 0 0 1 .8.004zm0 0M9 12.8a.4.4 0 1 1-.8-.003.4.4 0 0 1 .8.004zm0 0M11.398 12.8a.398.398 0 1 1-.796 0 .398.398 0 1 1 .796 0zm0 0M9 15.2a.401.401 0 1 1-.802.002.401.401 0 0 1 .802-.003zm0 0M11.398 15.2a.398.398 0 1 1-.796 0 .398.398 0 1 1 .796 0zm0 0M10.2 14c0 .223-.18.398-.4.398a.398.398 0 1 1 0-.796c.22 0 .4.175.4.398zm0 0M12.602 14c0 .223-.18.398-.403.398a.398.398 0 1 1 0-.796c.223 0 .403.175.403.398zm0 0M13.8 12.8a.401.401 0 1 1-.801-.004.401.401 0 0 1 .802.005zm0 0M16.2 12.8a.4.4 0 1 1-.801-.003.4.4 0 0 1 .8.004zm0 0M13.8 15.2a.401.401 0 1 1 0 0zm0 0M16.2 15.2a.401.401 0 1 1-.803.002.401.401 0 0 1 .802-.003zm0 0M15 14c0 .223-.18.398-.398.398a.398.398 0 1 1 0-.796c.218 0 .398.175.398.398zm0 0"/>
</svg>
