<svg xmlns="http://www.w3.org/2000/svg" width="32" height="32" viewBox="0 0 24 24">
    <path d="M13.941406 12.902344C13.785156 13.0625 13.785156 13.316406 13.941406 13.472656 14.304688 13.835938 14.503906 14.320312 14.503906 14.832031 14.503906 15.347656 14.304688 15.832031 13.941406 16.195312 13.785156 16.351562 13.785156 16.605469 13.941406 16.765625 14.019531 16.84375 14.125 16.882812 14.226562 16.882812 14.328125 16.882812 14.433594 16.84375 14.511719 16.765625 15.027344 16.25 15.3125 15.5625 15.3125 14.832031 15.3125 14.105469 15.027344 13.417969 14.511719 12.902344 14.355469 12.746094 14.097656 12.746094 13.941406 12.902344zM19.1875 9.066406C18.144531 9.25 17.144531 8.550781 16.960938 7.503906 16.699219 6.019531 15.28125 5.03125 13.796875 5.285156 13.578125 5.324219 13.433594 5.535156 13.472656 5.753906 13.507812 5.972656 13.71875 6.117188 13.9375 6.082031 14.984375 5.898438 15.984375 6.597656 16.167969 7.644531 16.398438 8.96875 17.554688 9.902344 18.855469 9.902344 19.011719 9.902344 19.167969 9.890625 19.328125 9.859375 19.546875 9.820312 19.695312 9.613281 19.65625 9.394531 19.617188 9.175781 19.40625 9.027344 19.1875 9.066406zM19.1875 9.066406"/>
    <path d="M 22.3125 9.152344 C 22 8.667969 21.828125 7.613281 21.867188 6.976562 C 21.957031 5.480469 21.160156 3.992188 19.933594 3.363281 C 19.695312 3.242188 19.484375 3.179688 19.296875 3.125 C 18.972656 3.03125 18.839844 2.996094 18.714844 2.742188 C 18.070312 1.402344 17.363281 1.214844 16.007812 1.300781 C 15.882812 1.304688 15.714844 1.117188 15.539062 0.929688 C 15.238281 0.609375 14.839844 0.183594 14.207031 0.113281 L 14.003906 0.0898438 C 13.324219 0.0898438 12.667969 0.292969 12.203125 0.644531 C 12.070312 0.746094 11.90625 0.746094 11.796875 0.648438 C 11.242188 0.164062 10.410156 -0.195312 9.835938 0.121094 C 9.207031 0.242188 8.804688 0.644531 8.507812 0.9375 C 8.273438 1.171875 8.125 1.316406 7.992188 1.300781 C 6.640625 1.214844 5.925781 1.402344 5.28125 2.738281 C 5.160156 2.992188 5.027344 3.03125 4.703125 3.125 C 4.515625 3.179688 4.304688 3.242188 4.066406 3.363281 C 2.835938 3.992188 2.042969 5.480469 2.132812 6.972656 C 2.171875 7.613281 2 8.667969 1.6875 9.152344 C 0.914062 10.351562 0.914062 12.023438 1.6875 13.21875 C 1.804688 13.40625 1.980469 13.621094 2.179688 13.871094 C 2.539062 14.316406 3.144531 15.058594 3.125 15.398438 C 3.03125 16.90625 3.953125 18.644531 5.171875 19.269531 C 5.394531 19.382812 5.429688 19.496094 5.515625 19.84375 C 5.558594 20.035156 5.617188 20.273438 5.742188 20.527344 C 6.074219 21.21875 6.59375 21.417969 6.972656 21.5625 C 7.351562 21.703125 7.507812 21.765625 7.566406 22.179688 C 7.699219 23.140625 8.210938 23.789062 8.976562 23.957031 C 9.105469 23.984375 9.234375 24 9.371094 24 C 10.230469 24 11.167969 23.429688 11.761719 22.507812 C 11.832031 22.394531 11.953125 22.382812 12 22.382812 C 12.046875 22.382812 12.164062 22.394531 12.238281 22.507812 C 12.921875 23.570312 14.070312 24.167969 15.023438 23.957031 C 15.789062 23.789062 16.300781 23.140625 16.433594 22.179688 C 16.492188 21.765625 16.648438 21.707031 17.027344 21.5625 C 17.40625 21.417969 17.925781 21.21875 18.257812 20.527344 C 18.382812 20.273438 18.4375 20.035156 18.484375 19.84375 C 18.570312 19.5 18.605469 19.382812 18.824219 19.269531 C 20.046875 18.644531 20.96875 16.90625 20.875 15.398438 C 20.855469 15.058594 21.457031 14.316406 21.816406 13.871094 C 22.019531 13.621094 22.195312 13.40625 22.3125 13.222656 C 23.082031 12.023438 23.082031 10.351562 22.3125 9.152344 Z M 21.632812 12.785156 C 21.539062 12.933594 21.371094 13.140625 21.191406 13.363281 C 21 13.597656 20.804688 13.84375 20.628906 14.089844 C 20.140625 12.925781 18.988281 12.105469 17.648438 12.105469 C 16.3125 12.105469 15.226562 11.019531 15.226562 9.683594 C 15.226562 9.460938 15.046875 9.28125 14.824219 9.28125 C 14.601562 9.28125 14.421875 9.460938 14.421875 9.683594 C 14.421875 11.464844 15.867188 12.910156 17.648438 12.910156 C 18.984375 12.910156 20.070312 13.996094 20.070312 15.332031 C 20.070312 15.34375 20.074219 15.351562 20.074219 15.359375 C 20.074219 15.390625 20.070312 15.417969 20.070312 15.449219 C 20.140625 16.625 19.386719 18.074219 18.457031 18.554688 C 18.375 18.59375 18.304688 18.640625 18.238281 18.691406 C 17.8125 17.667969 16.804688 16.945312 15.632812 16.945312 C 15.410156 16.945312 15.226562 17.125 15.226562 17.351562 C 15.226562 17.574219 15.410156 17.753906 15.632812 17.753906 C 16.742188 17.753906 17.648438 18.660156 17.648438 19.769531 C 17.648438 19.789062 17.65625 19.800781 17.65625 19.816406 C 17.625 19.9375 17.589844 20.058594 17.53125 20.179688 C 17.339844 20.578125 17.074219 20.679688 16.738281 20.808594 C 16.324219 20.964844 15.757812 21.179688 15.632812 22.070312 C 15.574219 22.503906 15.390625 23.050781 14.847656 23.171875 C 14.226562 23.308594 13.414062 22.84375 12.914062 22.070312 C 12.714844 21.761719 12.375 21.578125 12 21.578125 C 11.910156 21.578125 11.824219 21.589844 11.738281 21.609375 C 11.695312 21.589844 11.648438 21.578125 11.597656 21.578125 C 11.394531 21.578125 11.234375 21.730469 11.203125 21.925781 C 11.160156 21.972656 11.117188 22.015625 11.082031 22.070312 C 11.007812 22.1875 10.921875 22.292969 10.835938 22.394531 C 10.820312 22.394531 10.804688 22.386719 10.789062 22.386719 C 10.566406 22.386719 10.386719 22.566406 10.386719 22.789062 C 10.386719 22.796875 10.390625 22.804688 10.390625 22.8125 C 10.015625 23.085938 9.605469 23.222656 9.242188 23.179688 C 9.433594 23.144531 9.578125 22.988281 9.578125 22.789062 C 9.578125 22.566406 9.398438 22.386719 9.175781 22.386719 C 8.953125 22.386719 8.773438 22.566406 8.773438 22.789062 C 8.773438 22.890625 8.8125 22.980469 8.871094 23.050781 C 8.636719 22.894531 8.503906 22.636719 8.429688 22.375 C 8.621094 22.34375 8.773438 22.183594 8.773438 21.984375 C 8.773438 21.761719 8.589844 21.578125 8.367188 21.578125 C 8.320312 21.578125 8.277344 21.589844 8.234375 21.605469 C 8.160156 21.4375 8.066406 21.308594 7.960938 21.203125 C 7.960938 21.195312 7.964844 21.1875 7.964844 21.175781 C 7.964844 20.953125 7.785156 20.773438 7.5625 20.773438 C 7.480469 20.773438 7.410156 20.800781 7.347656 20.84375 C 7.320312 20.832031 7.289062 20.820312 7.261719 20.808594 C 7.160156 20.769531 7.070312 20.734375 6.984375 20.691406 C 7.085938 20.621094 7.15625 20.503906 7.15625 20.367188 C 7.15625 20.144531 6.976562 19.964844 6.753906 19.964844 C 6.628906 19.964844 6.519531 20.027344 6.445312 20.121094 C 6.378906 19.960938 6.335938 19.804688 6.300781 19.65625 C 6.207031 19.273438 6.101562 18.839844 5.542969 18.554688 C 4.921875 18.234375 4.386719 17.480469 4.113281 16.664062 C 4.179688 16.707031 4.25 16.738281 4.332031 16.738281 C 4.554688 16.738281 4.738281 16.558594 4.738281 16.335938 C 4.738281 16.113281 4.554688 15.929688 4.332031 15.929688 C 4.179688 15.929688 4.050781 16.019531 3.984375 16.144531 C 3.941406 15.910156 3.914062 15.671875 3.929688 15.449219 C 3.949219 15.09375 3.773438 14.703125 3.523438 14.316406 C 3.523438 14.316406 3.527344 14.316406 3.527344 14.316406 C 3.75 14.316406 3.929688 14.136719 3.929688 13.914062 C 3.929688 13.691406 3.75 13.511719 3.527344 13.511719 C 3.347656 13.511719 3.199219 13.628906 3.148438 13.789062 C 3.0625 13.679688 2.976562 13.574219 2.894531 13.46875 C 3.027344 13.402344 3.125 13.265625 3.125 13.105469 C 3.125 12.882812 2.941406 12.703125 2.71875 12.703125 C 2.59375 12.703125 2.488281 12.761719 2.414062 12.851562 C 2.398438 12.828125 2.378906 12.804688 2.367188 12.785156 C 1.761719 11.84375 1.761719 10.53125 2.367188 9.589844 C 2.785156 8.933594 2.988281 7.722656 2.941406 6.925781 C 2.871094 5.757812 3.496094 4.5625 4.433594 4.082031 C 4.597656 4 4.757812 3.953125 4.910156 3.90625 C 4.808594 3.980469 4.738281 4.09375 4.738281 4.230469 C 4.738281 4.453125 4.917969 4.632812 5.140625 4.632812 C 5.363281 4.632812 5.542969 4.453125 5.542969 4.230469 C 5.542969 4.011719 5.371094 3.839844 5.160156 3.828125 C 5.308594 3.777344 5.457031 3.710938 5.59375 3.609375 C 5.664062 3.734375 5.792969 3.824219 5.949219 3.824219 C 6.171875 3.824219 6.351562 3.644531 6.351562 3.421875 C 6.351562 3.230469 6.214844 3.078125 6.039062 3.039062 C 6.152344 2.804688 6.261719 2.628906 6.375 2.492188 C 6.363281 2.53125 6.351562 2.570312 6.351562 2.613281 C 6.351562 2.835938 6.53125 3.019531 6.753906 3.019531 C 6.976562 3.019531 7.15625 2.835938 7.15625 2.613281 C 7.15625 2.390625 6.976562 2.210938 6.753906 2.210938 C 6.738281 2.210938 6.726562 2.21875 6.714844 2.21875 C 6.867188 2.144531 7.050781 2.105469 7.277344 2.09375 C 7.351562 2.167969 7.449219 2.210938 7.5625 2.210938 C 7.667969 2.210938 7.761719 2.167969 7.835938 2.101562 C 7.871094 2.105469 7.902344 2.105469 7.9375 2.109375 C 8.28125 2.128906 8.546875 1.980469 8.777344 1.789062 C 8.777344 1.796875 8.773438 1.800781 8.773438 1.808594 C 8.773438 2.03125 8.953125 2.210938 9.175781 2.210938 C 9.398438 2.210938 9.578125 2.03125 9.578125 1.808594 C 9.578125 1.589844 9.402344 1.410156 9.183594 1.40625 C 9.3125 1.28125 9.445312 1.167969 9.59375 1.078125 C 9.628906 1.261719 9.785156 1.40625 9.984375 1.40625 C 10.207031 1.40625 10.386719 1.222656 10.386719 1 C 10.386719 0.929688 10.363281 0.863281 10.328125 0.804688 C 10.53125 0.804688 10.917969 0.953125 11.265625 1.253906 C 11.664062 1.605469 12.25 1.621094 12.691406 1.289062 C 12.976562 1.074219 13.390625 0.933594 13.828125 0.902344 L 14.015625 0.90625 C 14.386719 0.90625 14.613281 1.125 14.949219 1.484375 C 15.238281 1.789062 15.566406 2.132812 16.058594 2.109375 C 17.1875 2.035156 17.523438 2.121094 17.988281 3.089844 C 18.019531 3.15625 18.054688 3.210938 18.085938 3.265625 C 17.152344 3.4375 16.4375 4.257812 16.4375 5.246094 C 16.4375 5.46875 16.617188 5.648438 16.839844 5.648438 C 17.0625 5.648438 17.246094 5.46875 17.246094 5.246094 C 17.246094 4.578125 17.789062 4.035156 18.457031 4.035156 C 18.609375 4.035156 18.738281 3.945312 18.808594 3.820312 C 18.894531 3.851562 18.984375 3.875 19.070312 3.902344 C 19.230469 3.949219 19.398438 3.996094 19.5625 4.082031 C 20.5 4.5625 21.128906 5.757812 21.058594 6.925781 C 21.011719 7.722656 21.214844 8.933594 21.632812 9.589844 C 22.238281 10.53125 22.238281 11.84375 21.632812 12.785156 Z M 21.632812 12.785156"/>
    <path d="M9.578125 21.175781C9.578125 21.398438 9.398438 21.578125 9.175781 21.578125 8.953125 21.578125 8.773438 21.398438 8.773438 21.175781 8.773438 20.953125 8.953125 20.773438 9.175781 20.773438 9.398438 20.773438 9.578125 20.953125 9.578125 21.175781zM11.191406 21.175781C11.191406 21.398438 11.011719 21.578125 10.789062 21.578125 10.566406 21.578125 10.386719 21.398438 10.386719 21.175781 10.386719 20.953125 10.566406 20.773438 10.789062 20.773438 11.011719 20.773438 11.191406 20.953125 11.191406 21.175781zM10.386719 20.367188C10.386719 20.589844 10.207031 20.773438 9.984375 20.773438 9.757812 20.773438 9.578125 20.589844 9.578125 20.367188 9.578125 20.144531 9.757812 19.964844 9.984375 19.964844 10.207031 19.964844 10.386719 20.144531 10.386719 20.367188zM8.773438 20.367188C8.773438 20.589844 8.589844 20.773438 8.367188 20.773438 8.144531 20.773438 7.964844 20.589844 7.964844 20.367188 7.964844 20.144531 8.144531 19.964844 8.367188 19.964844 8.589844 19.964844 8.773438 20.144531 8.773438 20.367188zM12 20.367188C12 20.589844 11.820312 20.773438 11.597656 20.773438 11.375 20.773438 11.191406 20.589844 11.191406 20.367188 11.191406 20.144531 11.375 19.964844 11.597656 19.964844 11.820312 19.964844 12 20.144531 12 20.367188zM8.773438 18.753906C8.773438 18.976562 8.589844 19.160156 8.367188 19.160156 8.144531 19.160156 7.964844 18.976562 7.964844 18.753906 7.964844 18.53125 8.144531 18.351562 8.367188 18.351562 8.589844 18.351562 8.773438 18.53125 8.773438 18.753906zM12 18.753906C12 18.976562 11.820312 19.160156 11.597656 19.160156 11.375 19.160156 11.191406 18.976562 11.191406 18.753906 11.191406 18.53125 11.375 18.351562 11.597656 18.351562 11.820312 18.351562 12 18.53125 12 18.753906zM11.191406 17.949219C11.191406 18.171875 11.011719 18.351562 10.789062 18.351562 10.566406 18.351562 10.386719 18.171875 10.386719 17.949219 10.386719 17.726562 10.566406 17.542969 10.789062 17.542969 11.011719 17.542969 11.191406 17.726562 11.191406 17.949219zM10.386719 17.140625C10.386719 17.363281 10.207031 17.542969 9.984375 17.542969 9.757812 17.542969 9.578125 17.363281 9.578125 17.140625 9.578125 16.917969 9.757812 16.738281 9.984375 16.738281 10.207031 16.738281 10.386719 16.917969 10.386719 17.140625zM8.773438 17.140625C8.773438 17.363281 8.589844 17.542969 8.367188 17.542969 8.144531 17.542969 7.964844 17.363281 7.964844 17.140625 7.964844 16.917969 8.144531 16.738281 8.367188 16.738281 8.589844 16.738281 8.773438 16.917969 8.773438 17.140625zM12 17.140625C12 17.363281 11.820312 17.542969 11.597656 17.542969 11.375 17.542969 11.191406 17.363281 11.191406 17.140625 11.191406 16.917969 11.375 16.738281 11.597656 16.738281 11.820312 16.738281 12 16.917969 12 17.140625zM9.578125 16.332031C9.578125 16.558594 9.398438 16.738281 9.175781 16.738281 8.953125 16.738281 8.773438 16.558594 8.773438 16.332031 8.773438 16.109375 8.953125 15.929688 9.175781 15.929688 9.398438 15.929688 9.578125 16.109375 9.578125 16.332031zM12 15.527344C12 15.75 11.820312 15.929688 11.597656 15.929688 11.375 15.929688 11.191406 15.75 11.191406 15.527344 11.191406 15.304688 11.375 15.125 11.597656 15.125 11.820312 15.125 12 15.304688 12 15.527344zM9.578125 14.71875C9.578125 14.941406 9.398438 15.125 9.175781 15.125 8.953125 15.125 8.773438 14.941406 8.773438 14.71875 8.773438 14.496094 8.953125 14.316406 9.175781 14.316406 9.398438 14.316406 9.578125 14.496094 9.578125 14.71875zM11.191406 14.71875C11.191406 14.941406 11.011719 15.125 10.789062 15.125 10.566406 15.125 10.386719 14.941406 10.386719 14.71875 10.386719 14.496094 10.566406 14.316406 10.789062 14.316406 11.011719 14.316406 11.191406 14.496094 11.191406 14.71875zM12 13.914062C12 14.136719 11.820312 14.316406 11.597656 14.316406 11.375 14.316406 11.191406 14.136719 11.191406 13.914062 11.191406 13.691406 11.375 13.507812 11.597656 13.507812 11.820312 13.507812 12 13.691406 12 13.914062zM11.191406 13.105469C11.191406 13.328125 11.011719 13.507812 10.789062 13.507812 10.566406 13.507812 10.386719 13.328125 10.386719 13.105469 10.386719 12.882812 10.566406 12.703125 10.789062 12.703125 11.011719 12.703125 11.191406 12.882812 11.191406 13.105469zM10.386719 12.300781C10.386719 12.523438 10.207031 12.703125 9.984375 12.703125 9.757812 12.703125 9.578125 12.523438 9.578125 12.300781 9.578125 12.074219 9.757812 11.894531 9.984375 11.894531 10.207031 11.894531 10.386719 12.074219 10.386719 12.300781zM8.773438 12.300781C8.773438 12.523438 8.589844 12.703125 8.367188 12.703125 8.144531 12.703125 7.964844 12.523438 7.964844 12.300781 7.964844 12.074219 8.144531 11.894531 8.367188 11.894531 8.589844 11.894531 8.773438 12.074219 8.773438 12.300781zM12 12.300781C12 12.523438 11.820312 12.703125 11.597656 12.703125 11.375 12.703125 11.191406 12.523438 11.191406 12.300781 11.191406 12.074219 11.375 11.894531 11.597656 11.894531 11.820312 11.894531 12 12.074219 12 12.300781zM9.578125 11.492188C9.578125 11.714844 9.398438 11.894531 9.175781 11.894531 8.953125 11.894531 8.773438 11.714844 8.773438 11.492188 8.773438 11.269531 8.953125 11.089844 9.175781 11.089844 9.398438 11.089844 9.578125 11.269531 9.578125 11.492188zM10.386719 10.683594C10.386719 10.90625 10.207031 11.089844 9.984375 11.089844 9.757812 11.089844 9.578125 10.90625 9.578125 10.683594 9.578125 10.460938 9.757812 10.28125 9.984375 10.28125 10.207031 10.28125 10.386719 10.460938 10.386719 10.683594zM8.773438 10.683594C8.773438 10.90625 8.589844 11.089844 8.367188 11.089844 8.144531 11.089844 7.964844 10.90625 7.964844 10.683594 7.964844 10.460938 8.144531 10.28125 8.367188 10.28125 8.589844 10.28125 8.773438 10.460938 8.773438 10.683594zM12 10.683594C12 10.90625 11.820312 11.089844 11.597656 11.089844 11.375 11.089844 11.191406 10.90625 11.191406 10.683594 11.191406 10.460938 11.375 10.28125 11.597656 10.28125 11.820312 10.28125 12 10.460938 12 10.683594zM11.191406 9.878906C11.191406 10.101562 11.011719 10.28125 10.789062 10.28125 10.566406 10.28125 10.386719 10.101562 10.386719 9.878906 10.386719 9.65625 10.566406 9.472656 10.789062 9.472656 11.011719 9.472656 11.191406 9.65625 11.191406 9.878906zM10.386719 9.070312C10.386719 9.292969 10.207031 9.472656 9.984375 9.472656 9.757812 9.472656 9.578125 9.292969 9.578125 9.070312 9.578125 8.847656 9.757812 8.667969 9.984375 8.667969 10.207031 8.667969 10.386719 8.847656 10.386719 9.070312zM9.578125 8.265625C9.578125 8.488281 9.398438 8.667969 9.175781 8.667969 8.953125 8.667969 8.773438 8.488281 8.773438 8.265625 8.773438 8.042969 8.953125 7.859375 9.175781 7.859375 9.398438 7.859375 9.578125 8.042969 9.578125 8.265625zM11.191406 8.265625C11.191406 8.488281 11.011719 8.667969 10.789062 8.667969 10.566406 8.667969 10.386719 8.488281 10.386719 8.265625 10.386719 8.042969 10.566406 7.859375 10.789062 7.859375 11.011719 7.859375 11.191406 8.042969 11.191406 8.265625zM12 7.457031C12 7.679688 11.820312 7.859375 11.597656 7.859375 11.375 7.859375 11.191406 7.679688 11.191406 7.457031 11.191406 7.234375 11.375 7.054688 11.597656 7.054688 11.820312 7.054688 12 7.234375 12 7.457031zM9.578125 6.648438C9.578125 6.871094 9.398438 7.054688 9.175781 7.054688 8.953125 7.054688 8.773438 6.871094 8.773438 6.648438 8.773438 6.425781 8.953125 6.246094 9.175781 6.246094 9.398438 6.246094 9.578125 6.425781 9.578125 6.648438zM11.191406 6.648438C11.191406 6.871094 11.011719 7.054688 10.789062 7.054688 10.566406 7.054688 10.386719 6.871094 10.386719 6.648438 10.386719 6.425781 10.566406 6.246094 10.789062 6.246094 11.011719 6.246094 11.191406 6.425781 11.191406 6.648438zM10.386719 5.84375C10.386719 6.066406 10.207031 6.246094 9.984375 6.246094 9.757812 6.246094 9.578125 6.066406 9.578125 5.84375 9.578125 5.621094 9.757812 5.441406 9.984375 5.441406 10.207031 5.441406 10.386719 5.621094 10.386719 5.84375zM8.773438 5.84375C8.773438 6.066406 8.589844 6.246094 8.367188 6.246094 8.144531 6.246094 7.964844 6.066406 7.964844 5.84375 7.964844 5.621094 8.144531 5.441406 8.367188 5.441406 8.589844 5.441406 8.773438 5.621094 8.773438 5.84375zM9.578125 5.035156C9.578125 5.257812 9.398438 5.441406 9.175781 5.441406 8.953125 5.441406 8.773438 5.257812 8.773438 5.035156 8.773438 4.8125 8.953125 4.632812 9.175781 4.632812 9.398438 4.632812 9.578125 4.8125 9.578125 5.035156zM11.191406 5.035156C11.191406 5.257812 11.011719 5.441406 10.789062 5.441406 10.566406 5.441406 10.386719 5.257812 10.386719 5.035156 10.386719 4.8125 10.566406 4.632812 10.789062 4.632812 11.011719 4.632812 11.191406 4.8125 11.191406 5.035156zM12 4.230469C12 4.453125 11.820312 4.632812 11.597656 4.632812 11.375 4.632812 11.191406 4.453125 11.191406 4.230469 11.191406 4.007812 11.375 3.824219 11.597656 3.824219 11.820312 3.824219 12 4.007812 12 4.230469zM9.578125 3.421875C9.578125 3.644531 9.398438 3.824219 9.175781 3.824219 8.953125 3.824219 8.773438 3.644531 8.773438 3.421875 8.773438 3.199219 8.953125 3.019531 9.175781 3.019531 9.398438 3.019531 9.578125 3.199219 9.578125 3.421875zM8.773438 2.613281C8.773438 2.839844 8.589844 3.019531 8.367188 3.019531 8.144531 3.019531 7.964844 2.839844 7.964844 2.613281 7.964844 2.390625 8.144531 2.210938 8.367188 2.210938 8.589844 2.210938 8.773438 2.390625 8.773438 2.613281zM12 2.613281C12 2.839844 11.820312 3.019531 11.597656 3.019531 11.375 3.019531 11.191406 2.839844 11.191406 2.613281 11.191406 2.390625 11.375 2.210938 11.597656 2.210938 11.820312 2.210938 12 2.390625 12 2.613281zM11.191406 1.808594C11.191406 2.03125 11.011719 2.210938 10.789062 2.210938 10.566406 2.210938 10.386719 2.03125 10.386719 1.808594 10.386719 1.585938 10.566406 1.40625 10.789062 1.40625 11.011719 1.40625 11.191406 1.585938 11.191406 1.808594zM7.964844 19.5625C7.964844 19.785156 7.785156 19.964844 7.5625 19.964844 7.339844 19.964844 7.15625 19.785156 7.15625 19.5625 7.15625 19.339844 7.339844 19.160156 7.5625 19.160156 7.785156 19.160156 7.964844 19.339844 7.964844 19.5625zM7.15625 18.753906C7.15625 18.976562 6.976562 19.160156 6.753906 19.160156 6.53125 19.160156 6.351562 18.976562 6.351562 18.753906 6.351562 18.53125 6.53125 18.351562 6.753906 18.351562 6.976562 18.351562 7.15625 18.53125 7.15625 18.753906zM6.351562 17.949219C6.351562 18.171875 6.171875 18.351562 5.949219 18.351562 5.726562 18.351562 5.542969 18.171875 5.542969 17.949219 5.542969 17.726562 5.726562 17.542969 5.949219 17.542969 6.171875 17.542969 6.351562 17.726562 6.351562 17.949219zM5.542969 17.140625C5.542969 17.363281 5.363281 17.542969 5.140625 17.542969 4.917969 17.542969 4.738281 17.363281 4.738281 17.140625 4.738281 16.917969 4.917969 16.738281 5.140625 16.738281 5.363281 16.738281 5.542969 16.917969 5.542969 17.140625zM7.15625 17.140625C7.15625 17.363281 6.976562 17.542969 6.753906 17.542969 6.53125 17.542969 6.351562 17.363281 6.351562 17.140625 6.351562 16.917969 6.53125 16.738281 6.753906 16.738281 6.976562 16.738281 7.15625 16.917969 7.15625 17.140625zM6.351562 16.332031C6.351562 16.558594 6.171875 16.738281 5.949219 16.738281 5.726562 16.738281 5.542969 16.558594 5.542969 16.332031 5.542969 16.109375 5.726562 15.929688 5.949219 15.929688 6.171875 15.929688 6.351562 16.109375 6.351562 16.332031zM5.542969 15.527344C5.542969 15.75 5.363281 15.929688 5.140625 15.929688 4.917969 15.929688 4.738281 15.75 4.738281 15.527344 4.738281 15.304688 4.917969 15.125 5.140625 15.125 5.363281 15.125 5.542969 15.304688 5.542969 15.527344zM6.351562 14.71875C6.351562 14.941406 6.171875 15.125 5.949219 15.125 5.726562 15.125 5.542969 14.941406 5.542969 14.71875 5.542969 14.496094 5.726562 14.316406 5.949219 14.316406 6.171875 14.316406 6.351562 14.496094 6.351562 14.71875zM4.738281 14.71875C4.738281 14.941406 4.554688 15.125 4.332031 15.125 4.109375 15.125 3.929688 14.941406 3.929688 14.71875 3.929688 14.496094 4.109375 14.316406 4.332031 14.316406 4.554688 14.316406 4.738281 14.496094 4.738281 14.71875zM7.964844 14.71875C7.964844 14.941406 7.785156 15.125 7.5625 15.125 7.339844 15.125 7.15625 14.941406 7.15625 14.71875 7.15625 14.496094 7.339844 14.316406 7.5625 14.316406 7.785156 14.316406 7.964844 14.496094 7.964844 14.71875zM6.351562 13.105469C6.351562 13.328125 6.171875 13.507812 5.949219 13.507812 5.726562 13.507812 5.542969 13.328125 5.542969 13.105469 5.542969 12.882812 5.726562 12.703125 5.949219 12.703125 6.171875 12.703125 6.351562 12.882812 6.351562 13.105469zM4.738281 13.105469C4.738281 13.328125 4.554688 13.507812 4.332031 13.507812 4.109375 13.507812 3.929688 13.328125 3.929688 13.105469 3.929688 12.882812 4.109375 12.703125 4.332031 12.703125 4.554688 12.703125 4.738281 12.882812 4.738281 13.105469zM7.964844 13.105469C7.964844 13.328125 7.785156 13.507812 7.5625 13.507812 7.339844 13.507812 7.15625 13.328125 7.15625 13.105469 7.15625 12.882812 7.339844 12.703125 7.5625 12.703125 7.785156 12.703125 7.964844 12.882812 7.964844 13.105469zM6.351562 11.492188C6.351562 11.714844 6.171875 11.894531 5.949219 11.894531 5.726562 11.894531 5.542969 11.714844 5.542969 11.492188 5.542969 11.269531 5.726562 11.089844 5.949219 11.089844 6.171875 11.089844 6.351562 11.269531 6.351562 11.492188zM4.738281 11.492188C4.738281 11.714844 4.554688 11.894531 4.332031 11.894531 4.109375 11.894531 3.929688 11.714844 3.929688 11.492188 3.929688 11.269531 4.109375 11.089844 4.332031 11.089844 4.554688 11.089844 4.738281 11.269531 4.738281 11.492188zM7.15625 10.683594C7.15625 10.90625 6.976562 11.089844 6.753906 11.089844 6.53125 11.089844 6.351562 10.90625 6.351562 10.683594 6.351562 10.460938 6.53125 10.28125 6.753906 10.28125 6.976562 10.28125 7.15625 10.460938 7.15625 10.683594zM6.351562 9.878906C6.351562 10.101562 6.171875 10.28125 5.949219 10.28125 5.726562 10.28125 5.542969 10.101562 5.542969 9.878906 5.542969 9.65625 5.726562 9.472656 5.949219 9.472656 6.171875 9.472656 6.351562 9.65625 6.351562 9.878906zM5.542969 9.070312C5.542969 9.292969 5.363281 9.472656 5.140625 9.472656 4.917969 9.472656 4.738281 9.292969 4.738281 9.070312 4.738281 8.847656 4.917969 8.667969 5.140625 8.667969 5.363281 8.667969 5.542969 8.847656 5.542969 9.070312zM7.15625 9.070312C7.15625 9.292969 6.976562 9.472656 6.753906 9.472656 6.53125 9.472656 6.351562 9.292969 6.351562 9.070312 6.351562 8.847656 6.53125 8.667969 6.753906 8.667969 6.976562 8.667969 7.15625 8.847656 7.15625 9.070312zM6.351562 8.265625C6.351562 8.488281 6.171875 8.667969 5.949219 8.667969 5.726562 8.667969 5.542969 8.488281 5.542969 8.265625 5.542969 8.042969 5.726562 7.859375 5.949219 7.859375 6.171875 7.859375 6.351562 8.042969 6.351562 8.265625zM7.964844 8.265625C7.964844 8.488281 7.785156 8.667969 7.5625 8.667969 7.339844 8.667969 7.15625 8.488281 7.15625 8.265625 7.15625 8.042969 7.339844 7.859375 7.5625 7.859375 7.785156 7.859375 7.964844 8.042969 7.964844 8.265625zM5.542969 7.457031C5.542969 7.679688 5.363281 7.859375 5.140625 7.859375 4.917969 7.859375 4.738281 7.679688 4.738281 7.457031 4.738281 7.234375 4.917969 7.054688 5.140625 7.054688 5.363281 7.054688 5.542969 7.234375 5.542969 7.457031zM4.738281 6.648438C4.738281 6.871094 4.554688 7.054688 4.332031 7.054688 4.109375 7.054688 3.929688 6.871094 3.929688 6.648438 3.929688 6.425781 4.109375 6.246094 4.332031 6.246094 4.554688 6.246094 4.738281 6.425781 4.738281 6.648438zM5.542969 5.84375C5.542969 6.066406 5.363281 6.246094 5.140625 6.246094 4.917969 6.246094 4.738281 6.066406 4.738281 5.84375 4.738281 5.621094 4.917969 5.441406 5.140625 5.441406 5.363281 5.441406 5.542969 5.621094 5.542969 5.84375zM7.15625 5.84375C7.15625 6.066406 6.976562 6.246094 6.753906 6.246094 6.53125 6.246094 6.351562 6.066406 6.351562 5.84375 6.351562 5.621094 6.53125 5.441406 6.753906 5.441406 6.976562 5.441406 7.15625 5.621094 7.15625 5.84375zM4.738281 5.035156C4.738281 5.257812 4.554688 5.441406 4.332031 5.441406 4.109375 5.441406 3.929688 5.257812 3.929688 5.035156 3.929688 4.8125 4.109375 4.632812 4.332031 4.632812 4.554688 4.632812 4.738281 4.8125 4.738281 5.035156zM7.964844 5.035156C7.964844 5.257812 7.785156 5.441406 7.5625 5.441406 7.339844 5.441406 7.15625 5.257812 7.15625 5.035156 7.15625 4.8125 7.339844 4.632812 7.5625 4.632812 7.785156 4.632812 7.964844 4.8125 7.964844 5.035156zM7.15625 4.230469C7.15625 4.453125 6.976562 4.632812 6.753906 4.632812 6.53125 4.632812 6.351562 4.453125 6.351562 4.230469 6.351562 4.007812 6.53125 3.824219 6.753906 3.824219 6.976562 3.824219 7.15625 4.007812 7.15625 4.230469zM3.125 11.492188C3.125 11.714844 2.941406 11.894531 2.71875 11.894531 2.496094 11.894531 2.316406 11.714844 2.316406 11.492188 2.316406 11.269531 2.496094 11.089844 2.71875 11.089844 2.941406 11.089844 3.125 11.269531 3.125 11.492188zM3.929688 10.683594C3.929688 10.90625 3.75 11.089844 3.527344 11.089844 3.304688 11.089844 3.125 10.90625 3.125 10.683594 3.125 10.460938 3.304688 10.28125 3.527344 10.28125 3.75 10.28125 3.929688 10.460938 3.929688 10.683594zM3.125 9.878906C3.125 10.101562 2.941406 10.28125 2.71875 10.28125 2.496094 10.28125 2.316406 10.101562 2.316406 9.878906 2.316406 9.65625 2.496094 9.472656 2.71875 9.472656 2.941406 9.472656 3.125 9.65625 3.125 9.878906zM3.929688 9.070312C3.929688 9.292969 3.75 9.472656 3.527344 9.472656 3.304688 9.472656 3.125 9.292969 3.125 9.070312 3.125 8.847656 3.304688 8.667969 3.527344 8.667969 3.75 8.667969 3.929688 8.847656 3.929688 9.070312zM3.929688 7.457031C3.929688 7.679688 3.75 7.859375 3.527344 7.859375 3.304688 7.859375 3.125 7.679688 3.125 7.457031 3.125 7.234375 3.304688 7.054688 3.527344 7.054688 3.75 7.054688 3.929688 7.234375 3.929688 7.457031zM3.929688 5.84375C3.929688 6.066406 3.75 6.246094 3.527344 6.246094 3.304688 6.246094 3.125 6.066406 3.125 5.84375 3.125 5.621094 3.304688 5.441406 3.527344 5.441406 3.75 5.441406 3.929688 5.621094 3.929688 5.84375zM3.929688 5.84375"/>
</svg>
