<svg xmlns="http://www.w3.org/2000/svg" width="32" height="32" viewBox="0 0 24 24">
    <path d="M10.059 12.902a.406.406 0 0 0-.57 0 2.716 2.716 0 0 0-.802 1.93c0 .73.286 1.418.801 1.934a.405.405 0 0 0 .57 0 .406.406 0 0 0 0-.57 1.914 1.914 0 0 1-.562-1.364c0-.512.2-.996.563-1.36a.406.406 0 0 0 0-.57zm0 0M10.203 5.285A2.736 2.736 0 0 0 7.04 7.504a1.925 1.925 0 0 1-2.226 1.562.404.404 0 0 0-.47.329.4.4 0 0 0 .329.464 2.731 2.731 0 0 0 3.16-2.215 1.929 1.929 0 0 1 2.23-1.562c.22.035.43-.11.465-.328a.403.403 0 0 0-.324-.469zm0 0"/>
    <path d="M22.313 9.152c-.313-.484-.485-1.539-.446-2.175.09-1.497-.707-2.985-1.933-3.614a3.458 3.458 0 0 0-.637-.238c-.324-.094-.457-.129-.582-.383-.645-1.34-1.352-1.527-2.707-1.441-.125.004-.293-.184-.469-.371-.3-.32-.7-.746-1.332-.817L14.004.09c-.68 0-1.336.203-1.8.555-.134.101-.298.101-.407.003-.555-.484-1.387-.843-1.961-.527-.629.121-1.031.524-1.328.817-.235.234-.39.378-.516.363-1.355-.086-2.066.101-2.71 1.437-.122.254-.255.293-.579.387a3.458 3.458 0 0 0-.637.238c-1.23.63-2.023 2.117-1.933 3.61.039.64-.133 1.695-.446 2.18-.773 1.199-.773 2.87 0 4.066.118.187.293.402.493.652.36.445.965 1.188.945 1.527-.094 1.508.828 3.247 2.047 3.872.223.113.258.226.344.574.043.191.101.43.226.683.332.692.852.891 1.23 1.035.38.141.536.204.594.618.133.96.645 1.61 1.41 1.777.13.027.258.043.395.043.86 0 1.797-.57 2.39-1.492a.277.277 0 0 1 .239-.125.28.28 0 0 1 .238.125c.684 1.062 1.832 1.66 2.785 1.449.766-.168 1.278-.816 1.41-1.777.06-.414.215-.473.594-.617.38-.145.899-.344 1.23-1.036.126-.254.18-.492.227-.683.086-.344.121-.461.34-.574 1.223-.625 2.145-2.364 2.051-3.872-.02-.34.582-1.082.941-1.527.204-.25.38-.465.497-.648.769-1.2.769-2.871 0-4.07zm-.239 2.266a.401.401 0 0 0-.39-.328.402.402 0 1 0 0 .805c.164 0 .3-.098.367-.235a3.004 3.004 0 0 1-.371 1.043.403.403 0 0 0-.399.402c0 .043.012.079.024.118-.04.047-.075.093-.114.14-.05.059-.097.121-.148.184a.394.394 0 0 0-.168-.04.405.405 0 0 0-.402.407c0 .098.039.184.097.254a9.427 9.427 0 0 0-.191.3.402.402 0 0 0-.309-.152.405.405 0 0 0 0 .809c.012 0 .024-.008.035-.008a1.217 1.217 0 0 0-.035.332c.012.156.004.32-.015.485a.398.398 0 1 0-.176.75c-.066.195-.14.386-.234.57a.366.366 0 0 0 .023-.113.405.405 0 0 0-.809 0 .402.402 0 0 0 .68.293c-.289.492-.664.906-1.082 1.12a1.365 1.365 0 0 0-.434.34.411.411 0 0 0 .032-.14.405.405 0 0 0-.809 0 .402.402 0 0 0 .668.3c-.113.196-.164.403-.21.602-.028.102-.056.211-.095.317a.399.399 0 0 0-.332.554 1.44 1.44 0 0 1-.457.25.374.374 0 0 0-.222.086c-.391.157-.852.414-.961 1.207-.063.434-.246.98-.79 1.102-.617.137-1.433-.328-1.933-1.102-.2-.308-.539-.492-.914-.492s-.715.184-.914.492c-.5.774-1.313 1.239-1.934 1.102-.543-.121-.726-.668-.789-1.102-.12-.89-.687-1.105-1.101-1.261-.336-.13-.602-.23-.793-.63a2.246 2.246 0 0 1-.13-.363c.005-.015.013-.03.013-.046 0-1.114.906-2.016 2.015-2.016a.405.405 0 0 0 0-.809 2.824 2.824 0 0 0-2.605 1.746 1.22 1.22 0 0 0-.219-.136c-.93-.48-1.684-1.93-1.613-3.106 0-.031-.004-.058-.004-.09 0-.007.004-.015.004-.027a2.424 2.424 0 0 1 2.422-2.422 3.233 3.233 0 0 0 3.226-3.226.405.405 0 0 0-.402-.407.405.405 0 0 0-.403.407 2.424 2.424 0 0 1-2.421 2.421c-1.34 0-2.493.82-2.98 1.985-.177-.25-.376-.492-.563-.727-.18-.222-.348-.43-.442-.578-.605-.941-.605-2.254 0-3.195.418-.656.621-1.867.574-2.664-.074-1.168.555-2.364 1.493-2.844.168-.086.336-.137.496-.18.086-.027.172-.054.261-.086.07.13.2.22.352.22.668 0 1.21.542 1.21 1.21a.405.405 0 0 0 .809 0c0-.988-.714-1.808-1.652-1.98a1.27 1.27 0 0 0 .098-.176c.39-.809.691-1.004 1.433-1.004.145 0 .313.008.497.02.503.03.84-.301 1.136-.594.285-.282.551-.547.969-.61l.133-.023.062-.059c.149-.066.621.078 1.028.434.375.328.914.36 1.34.09a.384.384 0 0 0 .199.058.405.405 0 0 0 .402-.379c.191-.062.402-.105.621-.12l.188.003c.007 0 .011.004.02.004-.009.031-.02.059-.02.09 0 .223.183.406.406.406.125 0 .23-.062.305-.152.07.066.144.144.222.226a.104.104 0 0 1 .02.024.4.4 0 1 0 .605.5c.145.07.305.113.489.105.187-.011.343-.02.492-.02a.407.407 0 0 0 .289.122.398.398 0 0 0 .218-.074.947.947 0 0 1 .348.16.4.4 0 0 0-.164.316c0 .223.18.407.402.407.098 0 .184-.04.254-.098.028.055.059.105.086.168.032.062.067.117.098.172a.436.436 0 0 0-.035.16c0 .223.183.402.406.402a.415.415 0 0 0 .207-.062c.129.054.258.097.387.133a.394.394 0 0 0-.192.335.405.405 0 0 0 .809 0c0-.035-.012-.066-.02-.097.493.281.887.762 1.137 1.324a.397.397 0 0 0-.312.387c0 .222.18.402.402.402.05 0 .094-.012.137-.027.043.234.062.468.047.707 0 .054 0 .117-.004.176a.396.396 0 0 0-.18-.047.402.402 0 1 0 0 .804.384.384 0 0 0 .219-.07c.07.613.234 1.262.488 1.707a.397.397 0 0 0-.3.383c0 .223.179.402.402.402.09 0 .168-.035.234-.082.133.387.184.805.156 1.219zm0 0"/>
    <path d="M15.633 21.176a.405.405 0 0 1-.809 0 .405.405 0 0 1 .809 0zm0 0M14.016 21.176a.402.402 0 1 1-.804 0 .402.402 0 0 1 .804 0zm0 0M14.824 20.367c0 .223-.18.406-.402.406a.408.408 0 0 1-.406-.406.405.405 0 0 1 .808 0zm0 0M16.438 20.367c0 .223-.18.406-.403.406a.405.405 0 0 1 0-.808c.223 0 .402.18.402.402zm0 0M13.21 20.367c0 .223-.179.406-.401.406a.408.408 0 0 1-.407-.406.405.405 0 0 1 .809 0zm0 0M16.438 18.754c0 .223-.18.406-.403.406a.405.405 0 0 1 0-.808c.223 0 .402.18.402.402zm0 0M13.21 18.754c0 .223-.179.406-.401.406a.408.408 0 0 1-.407-.406.405.405 0 0 1 .809 0zm0 0M14.016 17.95a.402.402 0 1 1-.805 0c0-.223.18-.407.402-.407.223 0 .403.184.403.406zm0 0M14.824 17.14a.405.405 0 0 1-.809 0 .405.405 0 0 1 .81 0zm0 0M16.438 17.14a.402.402 0 1 1-.804.002.402.402 0 0 1 .803-.001zm0 0M13.21 17.14c0 .223-.179.403-.401.403a.405.405 0 0 1-.407-.402.405.405 0 0 1 .809 0zm0 0M15.633 16.332a.406.406 0 0 1-.406.406.403.403 0 0 1-.403-.406.405.405 0 0 1 .809 0zm0 0M13.21 15.527c0 .223-.179.403-.401.403a.405.405 0 0 1-.407-.403.405.405 0 0 1 .809 0zm0 0M15.633 14.719a.408.408 0 0 1-.406.406.405.405 0 0 1 0-.809c.222 0 .406.18.406.403zm0 0M14.016 14.719c0 .222-.18.406-.403.406a.405.405 0 0 1 0-.809c.223 0 .403.18.403.403zm0 0M13.21 13.914c0 .223-.179.402-.401.402a.405.405 0 0 1-.407-.402.405.405 0 0 1 .809 0zm0 0M14.016 13.105a.402.402 0 1 1-.804.002.402.402 0 0 1 .804-.002zm0 0M14.824 12.3a.405.405 0 1 1-.402-.406c.223 0 .402.18.402.407zm0 0M16.438 12.3a.402.402 0 1 1-.805 0 .403.403 0 1 1 .805 0zm0 0M13.21 12.3c0 .223-.179.403-.401.403a.405.405 0 1 1 .402-.402zm0 0M15.633 11.492a.405.405 0 0 1-.809 0 .405.405 0 0 1 .809 0zm0 0M14.824 10.684c0 .222-.18.406-.402.406a.408.408 0 0 1-.406-.406.405.405 0 0 1 .808 0zm0 0M16.438 10.684c0 .222-.18.406-.403.406a.405.405 0 0 1 0-.809c.223 0 .402.18.402.403zm0 0M13.21 10.684c0 .222-.179.406-.401.406a.408.408 0 0 1-.407-.406.405.405 0 0 1 .809 0zm0 0M14.016 9.879a.402.402 0 1 1-.805 0c0-.223.18-.406.402-.406.223 0 .403.183.403.406zm0 0M14.824 9.07a.405.405 0 0 1-.809 0 .405.405 0 0 1 .81 0zm0 0M15.633 8.266a.405.405 0 0 1-.809 0c0-.223.18-.407.403-.407.222 0 .406.184.406.407zm0 0M14.016 8.266a.402.402 0 1 1-.805 0c0-.223.18-.407.402-.407.223 0 .403.184.403.407zm0 0M13.21 7.457c0 .223-.179.402-.401.402a.405.405 0 0 1-.407-.402.405.405 0 0 1 .809 0zm0 0M15.633 6.648a.408.408 0 0 1-.406.407.405.405 0 0 1 0-.809c.222 0 .406.18.406.402zm0 0M14.016 6.648c0 .223-.18.407-.403.407a.405.405 0 0 1 0-.809c.223 0 .403.18.403.402zm0 0M14.824 5.844a.405.405 0 0 1-.809 0 .405.405 0 0 1 .81 0zm0 0M16.438 5.844a.402.402 0 1 1-.804 0 .402.402 0 0 1 .803 0zm0 0M15.633 5.035a.408.408 0 0 1-.406.406.405.405 0 0 1 0-.808c.222 0 .406.18.406.402zm0 0M14.016 5.035c0 .223-.18.406-.403.406a.405.405 0 0 1 0-.808c.223 0 .403.18.403.402zm0 0M13.21 4.23c0 .223-.179.403-.401.403a.405.405 0 0 1-.407-.403c0-.222.184-.406.407-.406.222 0 .402.184.402.406zm0 0M15.633 3.422a.405.405 0 0 1-.809 0 .405.405 0 0 1 .809 0zm0 0M16.438 2.613a.403.403 0 1 1-.805 0 .402.402 0 1 1 .805 0zm0 0M13.21 2.613c0 .227-.179.407-.401.407a.405.405 0 1 1 .402-.406zm0 0M14.016 1.809a.402.402 0 1 1-.804 0 .402.402 0 0 1 .804 0zm0 0M17.246 19.563c0 .222-.18.402-.402.402a.403.403 0 1 1 0-.805c.222 0 .402.18.402.402zm0 0M18.86 17.95a.405.405 0 0 1-.809 0c0-.223.183-.407.406-.407.223 0 .402.184.402.406zm0 0M18.05 17.14a.402.402 0 1 1-.803.002.402.402 0 0 1 .804-.001zm0 0M18.86 16.332c0 .227-.18.406-.403.406a.405.405 0 1 1 .402-.406zm0 0M19.668 15.527a.405.405 0 0 1-.809 0 .405.405 0 0 1 .809 0zm0 0M18.86 14.719c0 .222-.18.406-.403.406a.408.408 0 0 1-.406-.406.405.405 0 0 1 .808 0zm0 0M17.246 14.719a.405.405 0 1 1-.81.002.405.405 0 0 1 .81-.002zm0 0M18.86 13.105a.405.405 0 0 1-.809 0 .405.405 0 0 1 .808 0zm0 0M20.473 13.105a.402.402 0 1 1-.804.002.402.402 0 0 1 .804-.002zm0 0M17.246 13.105c0 .223-.18.403-.402.403a.403.403 0 1 1 0-.805c.222 0 .402.18.402.402zm0 0M18.86 11.492a.405.405 0 0 1-.809 0 .405.405 0 0 1 .808 0zm0 0M20.473 11.492a.402.402 0 1 1-.804.001.402.402 0 0 1 .804 0zm0 0M18.05 10.684c0 .222-.179.406-.402.406a.405.405 0 0 1 0-.809c.223 0 .403.18.403.403zm0 0M18.86 9.879a.405.405 0 0 1-.809 0c0-.223.183-.406.406-.406.223 0 .402.183.402.406zm0 0M19.668 9.07a.405.405 0 0 1-.809 0 .405.405 0 0 1 .809 0zm0 0M18.05 9.07a.402.402 0 1 1-.803.001.402.402 0 0 1 .804 0zm0 0M18.86 8.266a.405.405 0 0 1-.809 0c0-.223.183-.407.406-.407.223 0 .402.184.402.407zm0 0M17.246 8.266c0 .222-.18.402-.402.402a.403.403 0 0 1-.407-.402.405.405 0 0 1 .809 0zm0 0M19.668 7.457a.405.405 0 0 1-.809 0 .405.405 0 0 1 .809 0zm0 0M20.473 6.648c0 .223-.18.407-.403.407a.405.405 0 0 1 0-.809c.223 0 .403.18.403.402zm0 0M19.668 5.844a.405.405 0 0 1-.809 0 .405.405 0 0 1 .809 0zm0 0M18.05 5.844a.402.402 0 1 1-.803 0 .402.402 0 0 1 .804 0zm0 0M20.473 5.035c0 .223-.18.406-.403.406a.405.405 0 0 1 0-.808c.223 0 .403.18.403.402zm0 0M17.246 5.035a.405.405 0 1 1-.81.002.405.405 0 0 1 .81-.002zm0 0M18.05 4.23a.402.402 0 1 1-.804 0c0-.222.18-.406.402-.406.223 0 .403.184.403.406zm0 0M21.281 10.684c0 .222-.18.406-.406.406a.405.405 0 1 1 .406-.406zm0 0M21.281 9.07c0 .223-.18.403-.406.403a.402.402 0 1 1 0-.805c.227 0 .406.18.406.402zm0 0"/>
</svg>
