<svg xmlns="http://www.w3.org/2000/svg" width="32" height="32" viewBox="0 0 24 24">
    <path d="M13.941 12.902a.406.406 0 0 0 0 .57c.364.364.563.848.563 1.36 0 .516-.2 1-.563 1.363a.406.406 0 0 0 0 .57.405.405 0 0 0 .57 0c.516-.515.802-1.203.802-1.933 0-.727-.286-1.414-.801-1.93a.406.406 0 0 0-.57 0zm0 0M19.188 9.066a1.925 1.925 0 0 1-2.227-1.562 2.74 2.74 0 0 0-3.164-2.219.403.403 0 0 0-.324.469.403.403 0 0 0 .464.328 1.927 1.927 0 0 1 2.231 1.563 2.731 2.731 0 0 0 3.16 2.214.402.402 0 1 0-.14-.793zm0 0"/>
    <path d="M22.313 9.152c-.313-.484-.485-1.539-.446-2.175.09-1.497-.707-2.985-1.933-3.614a3.458 3.458 0 0 0-.637-.238c-.324-.094-.457-.129-.582-.383-.645-1.34-1.352-1.527-2.707-1.441-.125.004-.293-.184-.469-.371-.3-.32-.7-.746-1.332-.817L14.004.09c-.68 0-1.336.203-1.8.555-.134.101-.298.101-.407.003-.555-.484-1.387-.843-1.961-.527-.629.121-1.031.524-1.328.817-.235.234-.383.378-.516.363-1.351-.086-2.066.101-2.71 1.437-.122.254-.255.293-.579.387a3.458 3.458 0 0 0-.637.238c-1.23.63-2.023 2.117-1.933 3.61.039.64-.133 1.695-.446 2.18-.773 1.199-.773 2.87 0 4.066.118.187.293.402.493.652.36.445.965 1.188.945 1.527-.094 1.508.828 3.247 2.047 3.872.223.113.258.226.344.574.043.191.101.43.226.683.332.692.852.891 1.23 1.035.38.141.536.204.594.618.133.96.645 1.61 1.41 1.777.13.027.258.043.395.043.86 0 1.797-.57 2.39-1.492a.277.277 0 0 1 .239-.125.28.28 0 0 1 .238.125c.684 1.062 1.832 1.66 2.785 1.449.766-.168 1.278-.816 1.41-1.777.06-.414.215-.473.594-.617.38-.145.899-.344 1.23-1.036.126-.254.18-.492.227-.683.086-.344.121-.461.34-.574 1.223-.625 2.145-2.364 2.051-3.872-.02-.34.582-1.082.941-1.527.204-.25.38-.465.497-.648.769-1.2.769-2.871 0-4.07zm-.68 3.633c-.094.149-.262.356-.442.578-.191.235-.386.48-.562.727a3.236 3.236 0 0 0-2.98-1.985 2.424 2.424 0 0 1-2.422-2.421.402.402 0 1 0-.805 0 3.227 3.227 0 0 0 3.226 3.226 2.424 2.424 0 0 1 2.422 2.422c0 .012.004.02.004.027 0 .032-.004.059-.004.09.07 1.176-.683 2.625-1.613 3.106a1.22 1.22 0 0 0-.219.136 2.828 2.828 0 0 0-2.605-1.746.405.405 0 0 0 0 .809 2.02 2.02 0 0 1 2.015 2.016c0 .02.008.03.008.046a1.907 1.907 0 0 1-.125.364c-.191.398-.457.5-.793.629-.414.156-.98.37-1.105 1.261-.059.434-.242.98-.785 1.102-.621.137-1.434-.328-1.934-1.102-.2-.308-.539-.492-.914-.492-.09 0-.176.012-.262.031a.337.337 0 0 0-.14-.03.403.403 0 0 0-.395.347c-.043.047-.086.09-.121.144-.074.117-.16.223-.246.325-.016 0-.031-.008-.047-.008a.402.402 0 0 0-.402.402c0 .008.004.016.004.023-.375.274-.786.41-1.149.368a.398.398 0 0 0-.066-.793.402.402 0 0 0-.305.664c-.234-.156-.367-.414-.441-.676a.402.402 0 0 0 .343-.39.408.408 0 0 0-.406-.407.384.384 0 0 0-.133.027 1.302 1.302 0 0 0-.273-.402c0-.008.004-.015.004-.027a.402.402 0 0 0-.402-.403.372.372 0 0 0-.215.07l-.086-.034a3.12 3.12 0 0 1-.278-.118.394.394 0 0 0 .172-.324.402.402 0 0 0-.402-.402.394.394 0 0 0-.309.156 2.998 2.998 0 0 1-.144-.465c-.094-.383-.2-.816-.758-1.101-.621-.32-1.156-1.075-1.43-1.89a.398.398 0 0 0 .219.073c.223 0 .406-.18.406-.402a.408.408 0 0 0-.406-.406.396.396 0 0 0-.348.215 2.83 2.83 0 0 1-.054-.696c.02-.355-.157-.746-.407-1.133h.004a.402.402 0 1 0 0-.804.396.396 0 0 0-.379.277l-.253-.32a.41.41 0 0 0 .23-.364.405.405 0 0 0-.406-.402.391.391 0 0 0-.305.149c-.016-.024-.035-.047-.047-.067-.605-.941-.605-2.254 0-3.195.418-.656.621-1.867.574-2.664-.07-1.168.555-2.364 1.493-2.844.164-.082.324-.129.476-.176a.4.4 0 0 0 .23.727.402.402 0 0 0 .02-.805c.149-.05.297-.117.434-.219a.402.402 0 0 0 .758-.188.394.394 0 0 0-.313-.382 2.67 2.67 0 0 1 .336-.547.416.416 0 0 0-.023.121c0 .223.18.407.402.407a.405.405 0 0 0 0-.81c-.016 0-.027.009-.04.009.153-.074.337-.114.563-.125a.395.395 0 0 0 .285.117c.106 0 .2-.043.274-.11.035.004.066.004.101.008.344.02.61-.129.84-.32 0 .008-.004.012-.004.02a.402.402 0 1 0 .41-.403c.13-.125.262-.238.41-.328a.399.399 0 0 0 .391.328.405.405 0 0 0 .403-.406.381.381 0 0 0-.059-.195c.203 0 .59.148.938.449.398.351.984.367 1.425.035.286-.215.7-.355 1.137-.387l.188.004c.37 0 .597.219.933.578.29.305.617.649 1.11.625 1.128-.074 1.464.012 1.93.98.03.067.066.122.097.177a2.017 2.017 0 0 0-1.648 1.98.405.405 0 0 0 .809 0c0-.668.542-1.21 1.21-1.21.152 0 .281-.09.352-.216.086.032.175.055.261.082.16.047.328.094.492.18.938.48 1.567 1.676 1.497 2.844-.047.797.156 2.008.574 2.664.605.941.605 2.254 0 3.195zm0 0"/>
    <path d="M9.578 21.176a.402.402 0 1 1-.803 0 .402.402 0 0 1 .803 0zm0 0M11.191 21.176a.402.402 0 1 1-.803 0 .402.402 0 0 1 .803 0zm0 0M10.387 20.367a.405.405 0 1 1-.81.002.405.405 0 0 1 .81-.002zm0 0M8.773 20.367a.408.408 0 0 1-.406.406.405.405 0 0 1 0-.808c.223 0 .406.18.406.402zm0 0M12 20.367c0 .223-.18.406-.402.406a.408.408 0 0 1-.407-.406.405.405 0 0 1 .809 0zm0 0M8.773 18.754a.408.408 0 0 1-.406.406.405.405 0 0 1 0-.808c.223 0 .406.18.406.402zm0 0M12 18.754c0 .223-.18.406-.402.406a.408.408 0 0 1-.407-.406.405.405 0 0 1 .809 0zm0 0M11.191 17.95a.402.402 0 1 1-.804 0c0-.223.18-.407.402-.407.223 0 .402.184.402.406zm0 0M10.387 17.14c0 .223-.18.403-.403.403a.403.403 0 1 1 0-.805c.223 0 .403.18.403.403zm0 0M8.773 17.14a.405.405 0 0 1-.808 0 .405.405 0 0 1 .809 0zm0 0M12 17.14a.405.405 0 0 1-.809 0 .405.405 0 0 1 .809 0zm0 0M9.578 16.332a.403.403 0 1 1-.805 0 .402.402 0 1 1 .805 0zm0 0M12 15.527a.405.405 0 0 1-.809 0 .405.405 0 0 1 .809 0zm0 0M9.578 14.719c0 .222-.18.406-.402.406a.405.405 0 0 1 0-.809c.222 0 .402.18.402.403zm0 0M11.191 14.719c0 .222-.18.406-.402.406a.405.405 0 0 1 0-.809c.223 0 .402.18.402.403zm0 0M12 13.914a.405.405 0 0 1-.809 0 .405.405 0 0 1 .809 0zm0 0M11.191 13.105a.402.402 0 1 1-.803.002.402.402 0 0 1 .803-.002zm0 0M10.387 12.3c0 .223-.18.403-.403.403a.403.403 0 1 1 .402-.402zm0 0M8.773 12.3a.405.405 0 1 1-.81-.005.405.405 0 0 1 .81.006zm0 0M12 12.3a.405.405 0 1 1-.402-.406c.222 0 .402.18.402.407zm0 0M9.578 11.492a.402.402 0 1 1-.803.001.402.402 0 0 1 .803 0zm0 0M10.387 10.684a.405.405 0 1 1-.81.002.405.405 0 0 1 .81-.002zm0 0M8.773 10.684a.408.408 0 0 1-.406.406.405.405 0 0 1 0-.809c.223 0 .406.18.406.403zm0 0M12 10.684c0 .222-.18.406-.402.406a.408.408 0 0 1-.407-.406.405.405 0 0 1 .809 0zm0 0M11.191 9.879a.402.402 0 1 1-.804 0c0-.223.18-.406.402-.406.223 0 .402.183.402.406zm0 0M10.387 9.07c0 .223-.18.403-.403.403a.403.403 0 1 1 0-.805c.223 0 .403.18.403.402zm0 0M9.578 8.266a.402.402 0 1 1-.805 0c0-.223.18-.407.403-.407.222 0 .402.184.402.407zm0 0M11.191 8.266a.402.402 0 1 1-.804 0c0-.223.18-.407.402-.407.223 0 .402.184.402.407zm0 0M12 7.457a.405.405 0 0 1-.809 0 .405.405 0 0 1 .809 0zm0 0M9.578 6.648c0 .223-.18.407-.402.407a.405.405 0 0 1 0-.809c.222 0 .402.18.402.402zm0 0M11.191 6.648c0 .223-.18.407-.402.407a.405.405 0 0 1 0-.809c.223 0 .402.18.402.402zm0 0M10.387 5.844c0 .222-.18.402-.403.402a.403.403 0 1 1 0-.805c.223 0 .403.18.403.403zm0 0M8.773 5.844a.405.405 0 0 1-.808 0 .405.405 0 0 1 .809 0zm0 0M9.578 5.035c0 .223-.18.406-.402.406a.405.405 0 0 1 0-.808c.222 0 .402.18.402.402zm0 0M11.191 5.035c0 .223-.18.406-.402.406a.405.405 0 0 1 0-.808c.223 0 .402.18.402.402zm0 0M12 4.23a.405.405 0 0 1-.809 0c0-.222.184-.406.407-.406.222 0 .402.184.402.406zm0 0M9.578 3.422a.402.402 0 1 1-.803.001.402.402 0 0 1 .803-.001zm0 0M8.773 2.613a.406.406 0 0 1-.406.407.403.403 0 0 1-.402-.407.405.405 0 0 1 .809 0zm0 0M12 2.613c0 .227-.18.407-.402.407A.405.405 0 1 1 12 2.614zm0 0M11.191 1.809a.402.402 0 1 1-.803 0 .402.402 0 0 1 .803 0zm0 0M7.965 19.563a.405.405 0 0 1-.809 0 .405.405 0 0 1 .809 0zm0 0M7.156 18.754c0 .223-.18.406-.402.406a.405.405 0 0 1 0-.808c.223 0 .402.18.402.402zm0 0M6.352 17.95a.405.405 0 0 1-.809 0c0-.223.184-.407.406-.407.223 0 .403.184.403.406zm0 0M5.543 17.14a.402.402 0 1 1-.804.002.402.402 0 0 1 .804-.001zm0 0M7.156 17.14a.402.402 0 1 1-.803.002.402.402 0 0 1 .803-.001zm0 0M6.352 16.332c0 .227-.18.406-.403.406a.405.405 0 1 1 .402-.406zm0 0M5.543 15.527a.402.402 0 1 1-.804.001.402.402 0 0 1 .804 0zm0 0M6.352 14.719c0 .222-.18.406-.403.406a.408.408 0 0 1-.406-.406.405.405 0 0 1 .809 0zm0 0M4.738 14.719a.408.408 0 0 1-.406.406.405.405 0 0 1 0-.809c.223 0 .406.18.406.403zm0 0M7.965 14.719c0 .222-.18.406-.402.406a.408.408 0 0 1-.407-.406.405.405 0 0 1 .809 0zm0 0M6.352 13.105a.405.405 0 0 1-.809 0 .405.405 0 0 1 .809 0zm0 0M4.738 13.105a.405.405 0 0 1-.808 0 .405.405 0 0 1 .809 0zm0 0M7.965 13.105a.405.405 0 0 1-.809 0 .405.405 0 0 1 .809 0zm0 0M6.352 11.492a.405.405 0 0 1-.809 0 .405.405 0 0 1 .809 0zm0 0M4.738 11.492a.405.405 0 0 1-.808 0 .405.405 0 0 1 .809 0zm0 0M7.156 10.684c0 .222-.18.406-.402.406a.405.405 0 0 1 0-.809c.223 0 .402.18.402.403zm0 0M6.352 9.879a.405.405 0 0 1-.809 0c0-.223.184-.406.406-.406.223 0 .403.183.403.406zm0 0M5.543 9.07a.402.402 0 1 1-.804.001.402.402 0 0 1 .804 0zm0 0M7.156 9.07a.402.402 0 1 1-.803.001.402.402 0 0 1 .803 0zm0 0M6.352 8.266a.405.405 0 0 1-.809 0c0-.223.184-.407.406-.407.223 0 .403.184.403.407zm0 0M7.965 8.266a.405.405 0 0 1-.809 0c0-.223.184-.407.407-.407.222 0 .402.184.402.407zm0 0M5.543 7.457a.402.402 0 1 1-.804.001.402.402 0 0 1 .804-.001zm0 0M4.738 6.648a.408.408 0 0 1-.406.407.405.405 0 0 1 0-.809c.223 0 .406.18.406.402zm0 0M5.543 5.844a.402.402 0 1 1-.804 0 .402.402 0 0 1 .804 0zm0 0M7.156 5.844a.402.402 0 1 1-.803 0 .402.402 0 0 1 .803 0zm0 0M4.738 5.035a.408.408 0 0 1-.406.406.405.405 0 0 1 0-.808c.223 0 .406.18.406.402zm0 0M7.965 5.035c0 .223-.18.406-.402.406a.408.408 0 0 1-.407-.406.405.405 0 0 1 .809 0zm0 0M7.156 4.23a.402.402 0 1 1-.804 0c0-.222.18-.406.402-.406.223 0 .402.184.402.406zm0 0M3.125 11.492a.405.405 0 0 1-.809 0 .405.405 0 0 1 .809 0zm0 0M3.93 10.684c0 .222-.18.406-.403.406a.405.405 0 0 1 0-.809c.223 0 .403.18.403.403zm0 0M3.125 9.879a.405.405 0 0 1-.809 0c0-.223.18-.406.403-.406.222 0 .406.183.406.406zm0 0M3.93 9.07a.402.402 0 1 1-.804.001.402.402 0 0 1 .804 0zm0 0M3.93 7.457a.402.402 0 1 1-.804.001.402.402 0 0 1 .804-.001zm0 0M3.93 5.844a.402.402 0 1 1-.804 0 .402.402 0 0 1 .804 0zm0 0"/>
</svg>
