<svg xmlns="http://www.w3.org/2000/svg" width="32" height="32" viewBox="0 0 24 24">
    <path d="M10.058594 12.902344C9.902344 12.746094 9.644531 12.746094 9.488281 12.902344 8.972656 13.417969 8.6875 14.105469 8.6875 14.832031 8.6875 15.5625 8.972656 16.25 9.488281 16.765625 9.566406 16.84375 9.671875 16.882812 9.773438 16.882812 9.875 16.882812 9.980469 16.84375 10.058594 16.765625 10.214844 16.605469 10.214844 16.351562 10.058594 16.195312 9.695312 15.832031 9.496094 15.347656 9.496094 14.832031 9.496094 14.320312 9.695312 13.835938 10.058594 13.472656 10.214844 13.316406 10.214844 13.058594 10.058594 12.902344zM10.203125 5.285156C8.714844 5.027344 7.300781 6.019531 7.039062 7.503906 6.855469 8.550781 5.855469 9.25 4.8125 9.066406 4.589844 9.027344 4.382812 9.175781 4.34375 9.394531 4.304688 9.613281 4.453125 9.824219 4.671875 9.859375 4.832031 9.886719 4.988281 9.902344 5.144531 9.902344 6.445312 9.902344 7.601562 8.96875 7.832031 7.644531 8.015625 6.597656 9.019531 5.898438 10.0625 6.082031 10.28125 6.117188 10.492188 5.972656 10.527344 5.753906 10.566406 5.535156 10.421875 5.324219 10.203125 5.285156zM10.203125 5.285156"/>
    <path d="M 22.3125 9.152344 C 22 8.667969 21.828125 7.613281 21.867188 6.976562 C 21.957031 5.480469 21.160156 3.992188 19.933594 3.363281 C 19.695312 3.242188 19.484375 3.179688 19.296875 3.125 C 18.972656 3.03125 18.839844 2.996094 18.714844 2.742188 C 18.070312 1.402344 17.363281 1.214844 16.007812 1.300781 C 15.882812 1.304688 15.714844 1.117188 15.539062 0.929688 C 15.238281 0.609375 14.839844 0.183594 14.207031 0.113281 L 14.003906 0.0898438 C 13.324219 0.0898438 12.667969 0.292969 12.203125 0.644531 C 12.070312 0.746094 11.90625 0.746094 11.796875 0.648438 C 11.242188 0.164062 10.410156 -0.195312 9.835938 0.121094 C 9.207031 0.242188 8.804688 0.644531 8.507812 0.9375 C 8.273438 1.171875 8.117188 1.316406 7.992188 1.300781 C 6.636719 1.214844 5.925781 1.402344 5.28125 2.738281 C 5.160156 2.992188 5.027344 3.03125 4.703125 3.125 C 4.515625 3.179688 4.304688 3.242188 4.066406 3.363281 C 2.835938 3.992188 2.042969 5.480469 2.132812 6.972656 C 2.171875 7.613281 2 8.667969 1.6875 9.152344 C 0.914062 10.351562 0.914062 12.023438 1.6875 13.21875 C 1.804688 13.40625 1.980469 13.621094 2.179688 13.871094 C 2.539062 14.316406 3.144531 15.058594 3.125 15.398438 C 3.03125 16.90625 3.953125 18.644531 5.171875 19.269531 C 5.394531 19.382812 5.429688 19.496094 5.515625 19.84375 C 5.558594 20.035156 5.617188 20.273438 5.742188 20.527344 C 6.074219 21.21875 6.59375 21.417969 6.972656 21.5625 C 7.351562 21.703125 7.507812 21.765625 7.566406 22.179688 C 7.699219 23.140625 8.210938 23.789062 8.976562 23.957031 C 9.105469 23.984375 9.234375 24 9.371094 24 C 10.230469 24 11.167969 23.429688 11.761719 22.507812 C 11.832031 22.394531 11.953125 22.382812 12 22.382812 C 12.046875 22.382812 12.164062 22.394531 12.238281 22.507812 C 12.921875 23.570312 14.070312 24.167969 15.023438 23.957031 C 15.789062 23.789062 16.300781 23.140625 16.433594 22.179688 C 16.492188 21.765625 16.648438 21.707031 17.027344 21.5625 C 17.40625 21.417969 17.925781 21.21875 18.257812 20.527344 C 18.382812 20.273438 18.4375 20.035156 18.484375 19.84375 C 18.570312 19.5 18.605469 19.382812 18.824219 19.269531 C 20.046875 18.644531 20.96875 16.90625 20.875 15.398438 C 20.855469 15.058594 21.457031 14.316406 21.816406 13.871094 C 22.019531 13.621094 22.195312 13.40625 22.3125 13.222656 C 23.082031 12.023438 23.082031 10.351562 22.3125 9.152344 Z M 22.074219 11.417969 C 22.035156 11.230469 21.878906 11.089844 21.683594 11.089844 C 21.460938 11.089844 21.28125 11.269531 21.28125 11.492188 C 21.28125 11.714844 21.460938 11.894531 21.683594 11.894531 C 21.847656 11.894531 21.984375 11.796875 22.050781 11.660156 C 21.992188 12.027344 21.867188 12.382812 21.679688 12.703125 C 21.457031 12.707031 21.28125 12.886719 21.28125 13.105469 C 21.28125 13.148438 21.292969 13.183594 21.304688 13.222656 C 21.265625 13.269531 21.230469 13.316406 21.191406 13.363281 C 21.140625 13.421875 21.09375 13.484375 21.042969 13.546875 C 20.992188 13.523438 20.9375 13.507812 20.875 13.507812 C 20.652344 13.507812 20.472656 13.691406 20.472656 13.914062 C 20.472656 14.011719 20.511719 14.097656 20.570312 14.167969 C 20.503906 14.269531 20.4375 14.371094 20.378906 14.46875 C 20.304688 14.378906 20.195312 14.316406 20.070312 14.316406 C 19.847656 14.316406 19.667969 14.496094 19.667969 14.71875 C 19.667969 14.941406 19.847656 15.125 20.070312 15.125 C 20.082031 15.125 20.09375 15.117188 20.105469 15.117188 C 20.082031 15.230469 20.0625 15.339844 20.070312 15.449219 C 20.082031 15.605469 20.074219 15.769531 20.054688 15.933594 C 19.839844 15.941406 19.667969 16.117188 19.667969 16.332031 C 19.667969 16.488281 19.753906 16.613281 19.878906 16.683594 C 19.8125 16.878906 19.738281 17.070312 19.644531 17.253906 C 19.65625 17.21875 19.667969 17.179688 19.667969 17.140625 C 19.667969 16.917969 19.484375 16.738281 19.261719 16.738281 C 19.039062 16.738281 18.859375 16.917969 18.859375 17.140625 C 18.859375 17.363281 19.039062 17.542969 19.261719 17.542969 C 19.371094 17.542969 19.464844 17.5 19.539062 17.433594 C 19.25 17.925781 18.875 18.339844 18.457031 18.554688 C 18.265625 18.652344 18.128906 18.769531 18.023438 18.894531 C 18.039062 18.851562 18.054688 18.804688 18.054688 18.753906 C 18.054688 18.53125 17.871094 18.351562 17.648438 18.351562 C 17.425781 18.351562 17.246094 18.53125 17.246094 18.753906 C 17.246094 18.976562 17.425781 19.15625 17.648438 19.15625 C 17.75 19.15625 17.84375 19.117188 17.914062 19.054688 C 17.800781 19.25 17.75 19.457031 17.703125 19.65625 C 17.675781 19.757812 17.648438 19.867188 17.609375 19.972656 C 17.40625 19.992188 17.246094 20.160156 17.246094 20.367188 C 17.246094 20.425781 17.257812 20.476562 17.277344 20.527344 C 17.144531 20.644531 16.992188 20.710938 16.820312 20.777344 C 16.734375 20.78125 16.660156 20.8125 16.597656 20.863281 C 16.207031 21.019531 15.746094 21.277344 15.636719 22.070312 C 15.574219 22.503906 15.390625 23.050781 14.847656 23.171875 C 14.230469 23.308594 13.414062 22.84375 12.914062 22.070312 C 12.714844 21.761719 12.375 21.578125 12 21.578125 C 11.625 21.578125 11.285156 21.761719 11.085938 22.070312 C 10.585938 22.84375 9.773438 23.308594 9.152344 23.171875 C 8.609375 23.050781 8.425781 22.503906 8.363281 22.070312 C 8.242188 21.179688 7.675781 20.964844 7.261719 20.808594 C 6.925781 20.679688 6.660156 20.578125 6.46875 20.179688 C 6.410156 20.058594 6.375 19.9375 6.339844 19.816406 C 6.34375 19.800781 6.351562 19.785156 6.351562 19.769531 C 6.351562 18.65625 7.257812 17.753906 8.367188 17.753906 C 8.589844 17.753906 8.773438 17.574219 8.773438 17.347656 C 8.773438 17.125 8.589844 16.945312 8.367188 16.945312 C 7.195312 16.945312 6.183594 17.667969 5.761719 18.691406 C 5.695312 18.640625 5.625 18.59375 5.542969 18.554688 C 4.613281 18.074219 3.859375 16.625 3.929688 15.449219 C 3.929688 15.417969 3.925781 15.390625 3.925781 15.359375 C 3.925781 15.351562 3.929688 15.34375 3.929688 15.332031 C 3.929688 13.996094 5.015625 12.910156 6.351562 12.910156 C 8.128906 12.910156 9.578125 11.460938 9.578125 9.683594 C 9.578125 9.460938 9.398438 9.277344 9.175781 9.277344 C 8.953125 9.277344 8.773438 9.460938 8.773438 9.683594 C 8.773438 11.019531 7.6875 12.105469 6.351562 12.105469 C 5.011719 12.105469 3.859375 12.925781 3.371094 14.089844 C 3.195312 13.839844 2.996094 13.597656 2.808594 13.363281 C 2.628906 13.140625 2.460938 12.933594 2.367188 12.785156 C 1.761719 11.84375 1.761719 10.53125 2.367188 9.589844 C 2.785156 8.933594 2.988281 7.722656 2.941406 6.925781 C 2.867188 5.757812 3.496094 4.5625 4.433594 4.082031 C 4.601562 3.996094 4.769531 3.945312 4.929688 3.902344 C 5.015625 3.875 5.101562 3.847656 5.191406 3.816406 C 5.261719 3.945312 5.390625 4.035156 5.542969 4.035156 C 6.210938 4.035156 6.753906 4.578125 6.753906 5.246094 C 6.753906 5.46875 6.933594 5.648438 7.15625 5.648438 C 7.378906 5.648438 7.5625 5.46875 7.5625 5.246094 C 7.5625 4.257812 6.847656 3.4375 5.910156 3.265625 C 5.945312 3.210938 5.980469 3.152344 6.007812 3.089844 C 6.398438 2.28125 6.699219 2.085938 7.441406 2.085938 C 7.585938 2.085938 7.753906 2.09375 7.9375 2.105469 C 8.441406 2.136719 8.777344 1.804688 9.074219 1.511719 C 9.359375 1.230469 9.625 0.964844 10.042969 0.902344 L 10.175781 0.878906 L 10.238281 0.820312 C 10.386719 0.753906 10.859375 0.898438 11.265625 1.253906 C 11.640625 1.582031 12.179688 1.613281 12.605469 1.34375 C 12.664062 1.378906 12.730469 1.402344 12.804688 1.402344 C 13.019531 1.402344 13.191406 1.234375 13.207031 1.023438 C 13.398438 0.960938 13.609375 0.917969 13.828125 0.902344 L 14.015625 0.90625 C 14.023438 0.90625 14.027344 0.910156 14.035156 0.910156 C 14.027344 0.941406 14.015625 0.96875 14.015625 1 C 14.015625 1.222656 14.199219 1.40625 14.421875 1.40625 C 14.546875 1.40625 14.652344 1.34375 14.726562 1.253906 C 14.796875 1.320312 14.871094 1.398438 14.949219 1.480469 C 14.957031 1.488281 14.964844 1.496094 14.96875 1.503906 C 14.882812 1.578125 14.824219 1.683594 14.824219 1.808594 C 14.824219 2.03125 15.003906 2.210938 15.226562 2.210938 C 15.378906 2.210938 15.503906 2.125 15.574219 2.003906 C 15.71875 2.074219 15.878906 2.117188 16.0625 2.109375 C 16.25 2.097656 16.40625 2.089844 16.554688 2.089844 C 16.628906 2.164062 16.730469 2.210938 16.84375 2.210938 C 16.925781 2.210938 16.996094 2.179688 17.0625 2.136719 C 17.195312 2.167969 17.308594 2.222656 17.410156 2.296875 C 17.3125 2.371094 17.246094 2.484375 17.246094 2.613281 C 17.246094 2.835938 17.425781 3.019531 17.648438 3.019531 C 17.746094 3.019531 17.832031 2.980469 17.902344 2.921875 C 17.929688 2.976562 17.960938 3.027344 17.988281 3.089844 C 18.019531 3.152344 18.054688 3.207031 18.085938 3.261719 C 18.066406 3.3125 18.050781 3.363281 18.050781 3.421875 C 18.050781 3.644531 18.234375 3.824219 18.457031 3.824219 C 18.535156 3.824219 18.601562 3.796875 18.664062 3.761719 C 18.792969 3.816406 18.921875 3.859375 19.050781 3.894531 C 18.9375 3.964844 18.859375 4.085938 18.859375 4.230469 C 18.859375 4.453125 19.039062 4.632812 19.261719 4.632812 C 19.484375 4.632812 19.667969 4.453125 19.667969 4.230469 C 19.667969 4.195312 19.65625 4.164062 19.648438 4.132812 C 20.140625 4.414062 20.535156 4.894531 20.785156 5.457031 C 20.605469 5.5 20.472656 5.652344 20.472656 5.84375 C 20.472656 6.066406 20.652344 6.246094 20.875 6.246094 C 20.925781 6.246094 20.96875 6.234375 21.011719 6.21875 C 21.054688 6.453125 21.074219 6.6875 21.058594 6.925781 C 21.058594 6.980469 21.058594 7.042969 21.054688 7.101562 C 21 7.074219 20.941406 7.054688 20.875 7.054688 C 20.652344 7.054688 20.472656 7.234375 20.472656 7.457031 C 20.472656 7.679688 20.652344 7.859375 20.875 7.859375 C 20.957031 7.859375 21.03125 7.832031 21.09375 7.789062 C 21.164062 8.402344 21.328125 9.050781 21.582031 9.496094 C 21.410156 9.542969 21.28125 9.691406 21.28125 9.878906 C 21.28125 10.101562 21.460938 10.28125 21.683594 10.28125 C 21.773438 10.28125 21.851562 10.246094 21.917969 10.199219 C 22.050781 10.585938 22.101562 11.003906 22.074219 11.417969 Z M 22.074219 11.417969"/>
    <path d="M15.632812 21.175781C15.632812 21.398438 15.449219 21.578125 15.226562 21.578125 15.003906 21.578125 14.824219 21.398438 14.824219 21.175781 14.824219 20.953125 15.003906 20.773438 15.226562 20.773438 15.449219 20.773438 15.632812 20.953125 15.632812 21.175781zM14.015625 21.175781C14.015625 21.398438 13.835938 21.578125 13.613281 21.578125 13.390625 21.578125 13.210938 21.398438 13.210938 21.175781 13.210938 20.953125 13.390625 20.773438 13.613281 20.773438 13.835938 20.773438 14.015625 20.953125 14.015625 21.175781zM14.824219 20.367188C14.824219 20.589844 14.644531 20.773438 14.421875 20.773438 14.199219 20.773438 14.015625 20.589844 14.015625 20.367188 14.015625 20.144531 14.199219 19.964844 14.421875 19.964844 14.644531 19.964844 14.824219 20.144531 14.824219 20.367188zM16.4375 20.367188C16.4375 20.589844 16.257812 20.773438 16.035156 20.773438 15.8125 20.773438 15.632812 20.589844 15.632812 20.367188 15.632812 20.144531 15.8125 19.964844 16.035156 19.964844 16.257812 19.964844 16.4375 20.144531 16.4375 20.367188zM13.210938 20.367188C13.210938 20.589844 13.03125 20.773438 12.808594 20.773438 12.585938 20.773438 12.402344 20.589844 12.402344 20.367188 12.402344 20.144531 12.585938 19.964844 12.808594 19.964844 13.03125 19.964844 13.210938 20.144531 13.210938 20.367188zM16.4375 18.753906C16.4375 18.976562 16.257812 19.160156 16.035156 19.160156 15.8125 19.160156 15.632812 18.976562 15.632812 18.753906 15.632812 18.53125 15.8125 18.351562 16.035156 18.351562 16.257812 18.351562 16.4375 18.53125 16.4375 18.753906zM13.210938 18.753906C13.210938 18.976562 13.03125 19.160156 12.808594 19.160156 12.585938 19.160156 12.402344 18.976562 12.402344 18.753906 12.402344 18.53125 12.585938 18.351562 12.808594 18.351562 13.03125 18.351562 13.210938 18.53125 13.210938 18.753906zM14.015625 17.949219C14.015625 18.171875 13.835938 18.351562 13.613281 18.351562 13.390625 18.351562 13.210938 18.171875 13.210938 17.949219 13.210938 17.726562 13.390625 17.542969 13.613281 17.542969 13.835938 17.542969 14.015625 17.726562 14.015625 17.949219zM14.824219 17.140625C14.824219 17.363281 14.644531 17.542969 14.421875 17.542969 14.199219 17.542969 14.015625 17.363281 14.015625 17.140625 14.015625 16.917969 14.199219 16.738281 14.421875 16.738281 14.644531 16.738281 14.824219 16.917969 14.824219 17.140625zM16.4375 17.140625C16.4375 17.363281 16.257812 17.542969 16.035156 17.542969 15.8125 17.542969 15.632812 17.363281 15.632812 17.140625 15.632812 16.917969 15.8125 16.738281 16.035156 16.738281 16.257812 16.738281 16.4375 16.917969 16.4375 17.140625zM13.210938 17.140625C13.210938 17.363281 13.03125 17.542969 12.808594 17.542969 12.585938 17.542969 12.402344 17.363281 12.402344 17.140625 12.402344 16.917969 12.585938 16.738281 12.808594 16.738281 13.03125 16.738281 13.210938 16.917969 13.210938 17.140625zM15.632812 16.332031C15.632812 16.558594 15.449219 16.738281 15.226562 16.738281 15.003906 16.738281 14.824219 16.558594 14.824219 16.332031 14.824219 16.109375 15.003906 15.929688 15.226562 15.929688 15.449219 15.929688 15.632812 16.109375 15.632812 16.332031zM13.210938 15.527344C13.210938 15.75 13.03125 15.929688 12.808594 15.929688 12.585938 15.929688 12.402344 15.75 12.402344 15.527344 12.402344 15.304688 12.585938 15.125 12.808594 15.125 13.03125 15.125 13.210938 15.304688 13.210938 15.527344zM15.632812 14.71875C15.632812 14.941406 15.449219 15.125 15.226562 15.125 15.003906 15.125 14.824219 14.941406 14.824219 14.71875 14.824219 14.496094 15.003906 14.316406 15.226562 14.316406 15.449219 14.316406 15.632812 14.496094 15.632812 14.71875zM14.015625 14.71875C14.015625 14.941406 13.835938 15.125 13.613281 15.125 13.390625 15.125 13.210938 14.941406 13.210938 14.71875 13.210938 14.496094 13.390625 14.316406 13.613281 14.316406 13.835938 14.316406 14.015625 14.496094 14.015625 14.71875zM13.210938 13.914062C13.210938 14.136719 13.03125 14.316406 12.808594 14.316406 12.585938 14.316406 12.402344 14.136719 12.402344 13.914062 12.402344 13.691406 12.585938 13.507812 12.808594 13.507812 13.03125 13.507812 13.210938 13.691406 13.210938 13.914062zM14.015625 13.105469C14.015625 13.328125 13.835938 13.507812 13.613281 13.507812 13.390625 13.507812 13.210938 13.328125 13.210938 13.105469 13.210938 12.882812 13.390625 12.703125 13.613281 12.703125 13.835938 12.703125 14.015625 12.882812 14.015625 13.105469zM14.824219 12.300781C14.824219 12.523438 14.644531 12.703125 14.421875 12.703125 14.199219 12.703125 14.015625 12.523438 14.015625 12.300781 14.015625 12.074219 14.199219 11.894531 14.421875 11.894531 14.644531 11.894531 14.824219 12.074219 14.824219 12.300781zM16.4375 12.300781C16.4375 12.523438 16.257812 12.703125 16.035156 12.703125 15.8125 12.703125 15.632812 12.523438 15.632812 12.300781 15.632812 12.074219 15.8125 11.894531 16.035156 11.894531 16.257812 11.894531 16.4375 12.074219 16.4375 12.300781zM13.210938 12.300781C13.210938 12.523438 13.03125 12.703125 12.808594 12.703125 12.585938 12.703125 12.402344 12.523438 12.402344 12.300781 12.402344 12.074219 12.585938 11.894531 12.808594 11.894531 13.03125 11.894531 13.210938 12.074219 13.210938 12.300781zM15.632812 11.492188C15.632812 11.714844 15.449219 11.894531 15.226562 11.894531 15.003906 11.894531 14.824219 11.714844 14.824219 11.492188 14.824219 11.269531 15.003906 11.089844 15.226562 11.089844 15.449219 11.089844 15.632812 11.269531 15.632812 11.492188zM14.824219 10.683594C14.824219 10.90625 14.644531 11.089844 14.421875 11.089844 14.199219 11.089844 14.015625 10.90625 14.015625 10.683594 14.015625 10.460938 14.199219 10.28125 14.421875 10.28125 14.644531 10.28125 14.824219 10.460938 14.824219 10.683594zM16.4375 10.683594C16.4375 10.90625 16.257812 11.089844 16.035156 11.089844 15.8125 11.089844 15.632812 10.90625 15.632812 10.683594 15.632812 10.460938 15.8125 10.28125 16.035156 10.28125 16.257812 10.28125 16.4375 10.460938 16.4375 10.683594zM13.210938 10.683594C13.210938 10.90625 13.03125 11.089844 12.808594 11.089844 12.585938 11.089844 12.402344 10.90625 12.402344 10.683594 12.402344 10.460938 12.585938 10.28125 12.808594 10.28125 13.03125 10.28125 13.210938 10.460938 13.210938 10.683594zM14.015625 9.878906C14.015625 10.101562 13.835938 10.28125 13.613281 10.28125 13.390625 10.28125 13.210938 10.101562 13.210938 9.878906 13.210938 9.65625 13.390625 9.472656 13.613281 9.472656 13.835938 9.472656 14.015625 9.65625 14.015625 9.878906zM14.824219 9.070312C14.824219 9.292969 14.644531 9.472656 14.421875 9.472656 14.199219 9.472656 14.015625 9.292969 14.015625 9.070312 14.015625 8.847656 14.199219 8.667969 14.421875 8.667969 14.644531 8.667969 14.824219 8.847656 14.824219 9.070312zM15.632812 8.265625C15.632812 8.488281 15.449219 8.667969 15.226562 8.667969 15.003906 8.667969 14.824219 8.488281 14.824219 8.265625 14.824219 8.042969 15.003906 7.859375 15.226562 7.859375 15.449219 7.859375 15.632812 8.042969 15.632812 8.265625zM14.015625 8.265625C14.015625 8.488281 13.835938 8.667969 13.613281 8.667969 13.390625 8.667969 13.210938 8.488281 13.210938 8.265625 13.210938 8.042969 13.390625 7.859375 13.613281 7.859375 13.835938 7.859375 14.015625 8.042969 14.015625 8.265625zM13.210938 7.457031C13.210938 7.679688 13.03125 7.859375 12.808594 7.859375 12.585938 7.859375 12.402344 7.679688 12.402344 7.457031 12.402344 7.234375 12.585938 7.054688 12.808594 7.054688 13.03125 7.054688 13.210938 7.234375 13.210938 7.457031zM15.632812 6.648438C15.632812 6.871094 15.449219 7.054688 15.226562 7.054688 15.003906 7.054688 14.824219 6.871094 14.824219 6.648438 14.824219 6.425781 15.003906 6.246094 15.226562 6.246094 15.449219 6.246094 15.632812 6.425781 15.632812 6.648438zM14.015625 6.648438C14.015625 6.871094 13.835938 7.054688 13.613281 7.054688 13.390625 7.054688 13.210938 6.871094 13.210938 6.648438 13.210938 6.425781 13.390625 6.246094 13.613281 6.246094 13.835938 6.246094 14.015625 6.425781 14.015625 6.648438zM14.824219 5.84375C14.824219 6.066406 14.644531 6.246094 14.421875 6.246094 14.199219 6.246094 14.015625 6.066406 14.015625 5.84375 14.015625 5.621094 14.199219 5.441406 14.421875 5.441406 14.644531 5.441406 14.824219 5.621094 14.824219 5.84375zM16.4375 5.84375C16.4375 6.066406 16.257812 6.246094 16.035156 6.246094 15.8125 6.246094 15.632812 6.066406 15.632812 5.84375 15.632812 5.621094 15.8125 5.441406 16.035156 5.441406 16.257812 5.441406 16.4375 5.621094 16.4375 5.84375zM15.632812 5.035156C15.632812 5.257812 15.449219 5.441406 15.226562 5.441406 15.003906 5.441406 14.824219 5.257812 14.824219 5.035156 14.824219 4.8125 15.003906 4.632812 15.226562 4.632812 15.449219 4.632812 15.632812 4.8125 15.632812 5.035156zM14.015625 5.035156C14.015625 5.257812 13.835938 5.441406 13.613281 5.441406 13.390625 5.441406 13.210938 5.257812 13.210938 5.035156 13.210938 4.8125 13.390625 4.632812 13.613281 4.632812 13.835938 4.632812 14.015625 4.8125 14.015625 5.035156zM13.210938 4.230469C13.210938 4.453125 13.03125 4.632812 12.808594 4.632812 12.585938 4.632812 12.402344 4.453125 12.402344 4.230469 12.402344 4.007812 12.585938 3.824219 12.808594 3.824219 13.03125 3.824219 13.210938 4.007812 13.210938 4.230469zM15.632812 3.421875C15.632812 3.644531 15.449219 3.824219 15.226562 3.824219 15.003906 3.824219 14.824219 3.644531 14.824219 3.421875 14.824219 3.199219 15.003906 3.019531 15.226562 3.019531 15.449219 3.019531 15.632812 3.199219 15.632812 3.421875zM16.4375 2.613281C16.4375 2.839844 16.257812 3.019531 16.035156 3.019531 15.8125 3.019531 15.632812 2.839844 15.632812 2.613281 15.632812 2.390625 15.8125 2.210938 16.035156 2.210938 16.257812 2.210938 16.4375 2.390625 16.4375 2.613281zM13.210938 2.613281C13.210938 2.839844 13.03125 3.019531 12.808594 3.019531 12.585938 3.019531 12.402344 2.839844 12.402344 2.613281 12.402344 2.390625 12.585938 2.210938 12.808594 2.210938 13.03125 2.210938 13.210938 2.390625 13.210938 2.613281zM14.015625 1.808594C14.015625 2.03125 13.835938 2.210938 13.613281 2.210938 13.390625 2.210938 13.210938 2.03125 13.210938 1.808594 13.210938 1.585938 13.390625 1.40625 13.613281 1.40625 13.835938 1.40625 14.015625 1.585938 14.015625 1.808594zM17.246094 19.5625C17.246094 19.785156 17.066406 19.964844 16.84375 19.964844 16.617188 19.964844 16.4375 19.785156 16.4375 19.5625 16.4375 19.339844 16.617188 19.160156 16.84375 19.160156 17.066406 19.160156 17.246094 19.339844 17.246094 19.5625zM18.859375 17.949219C18.859375 18.171875 18.679688 18.351562 18.457031 18.351562 18.234375 18.351562 18.050781 18.171875 18.050781 17.949219 18.050781 17.726562 18.234375 17.542969 18.457031 17.542969 18.679688 17.542969 18.859375 17.726562 18.859375 17.949219zM18.050781 17.140625C18.050781 17.363281 17.871094 17.542969 17.648438 17.542969 17.425781 17.542969 17.246094 17.363281 17.246094 17.140625 17.246094 16.917969 17.425781 16.738281 17.648438 16.738281 17.871094 16.738281 18.050781 16.917969 18.050781 17.140625zM18.859375 16.332031C18.859375 16.558594 18.679688 16.738281 18.457031 16.738281 18.234375 16.738281 18.050781 16.558594 18.050781 16.332031 18.050781 16.109375 18.234375 15.929688 18.457031 15.929688 18.679688 15.929688 18.859375 16.109375 18.859375 16.332031zM19.667969 15.527344C19.667969 15.75 19.484375 15.929688 19.261719 15.929688 19.039062 15.929688 18.859375 15.75 18.859375 15.527344 18.859375 15.304688 19.039062 15.125 19.261719 15.125 19.484375 15.125 19.667969 15.304688 19.667969 15.527344zM18.859375 14.71875C18.859375 14.941406 18.679688 15.125 18.457031 15.125 18.234375 15.125 18.050781 14.941406 18.050781 14.71875 18.050781 14.496094 18.234375 14.316406 18.457031 14.316406 18.679688 14.316406 18.859375 14.496094 18.859375 14.71875zM17.246094 14.71875C17.246094 14.941406 17.066406 15.125 16.84375 15.125 16.617188 15.125 16.4375 14.941406 16.4375 14.71875 16.4375 14.496094 16.617188 14.316406 16.84375 14.316406 17.066406 14.316406 17.246094 14.496094 17.246094 14.71875zM18.859375 13.105469C18.859375 13.328125 18.679688 13.507812 18.457031 13.507812 18.234375 13.507812 18.050781 13.328125 18.050781 13.105469 18.050781 12.882812 18.234375 12.703125 18.457031 12.703125 18.679688 12.703125 18.859375 12.882812 18.859375 13.105469zM20.472656 13.105469C20.472656 13.328125 20.292969 13.507812 20.070312 13.507812 19.847656 13.507812 19.667969 13.328125 19.667969 13.105469 19.667969 12.882812 19.847656 12.703125 20.070312 12.703125 20.292969 12.703125 20.472656 12.882812 20.472656 13.105469zM17.246094 13.105469C17.246094 13.328125 17.066406 13.507812 16.84375 13.507812 16.617188 13.507812 16.4375 13.328125 16.4375 13.105469 16.4375 12.882812 16.617188 12.703125 16.84375 12.703125 17.066406 12.703125 17.246094 12.882812 17.246094 13.105469zM18.859375 11.492188C18.859375 11.714844 18.679688 11.894531 18.457031 11.894531 18.234375 11.894531 18.050781 11.714844 18.050781 11.492188 18.050781 11.269531 18.234375 11.089844 18.457031 11.089844 18.679688 11.089844 18.859375 11.269531 18.859375 11.492188zM20.472656 11.492188C20.472656 11.714844 20.292969 11.894531 20.070312 11.894531 19.847656 11.894531 19.667969 11.714844 19.667969 11.492188 19.667969 11.269531 19.847656 11.089844 20.070312 11.089844 20.292969 11.089844 20.472656 11.269531 20.472656 11.492188zM18.050781 10.683594C18.050781 10.90625 17.871094 11.089844 17.648438 11.089844 17.425781 11.089844 17.246094 10.90625 17.246094 10.683594 17.246094 10.460938 17.425781 10.28125 17.648438 10.28125 17.871094 10.28125 18.050781 10.460938 18.050781 10.683594zM18.859375 9.878906C18.859375 10.101562 18.679688 10.28125 18.457031 10.28125 18.234375 10.28125 18.050781 10.101562 18.050781 9.878906 18.050781 9.65625 18.234375 9.472656 18.457031 9.472656 18.679688 9.472656 18.859375 9.65625 18.859375 9.878906zM19.667969 9.070312C19.667969 9.292969 19.484375 9.472656 19.261719 9.472656 19.039062 9.472656 18.859375 9.292969 18.859375 9.070312 18.859375 8.847656 19.039062 8.667969 19.261719 8.667969 19.484375 8.667969 19.667969 8.847656 19.667969 9.070312zM18.050781 9.070312C18.050781 9.292969 17.871094 9.472656 17.648438 9.472656 17.425781 9.472656 17.246094 9.292969 17.246094 9.070312 17.246094 8.847656 17.425781 8.667969 17.648438 8.667969 17.871094 8.667969 18.050781 8.847656 18.050781 9.070312zM18.859375 8.265625C18.859375 8.488281 18.679688 8.667969 18.457031 8.667969 18.234375 8.667969 18.050781 8.488281 18.050781 8.265625 18.050781 8.042969 18.234375 7.859375 18.457031 7.859375 18.679688 7.859375 18.859375 8.042969 18.859375 8.265625zM17.246094 8.265625C17.246094 8.488281 17.066406 8.667969 16.84375 8.667969 16.617188 8.667969 16.4375 8.488281 16.4375 8.265625 16.4375 8.042969 16.617188 7.859375 16.84375 7.859375 17.066406 7.859375 17.246094 8.042969 17.246094 8.265625zM19.667969 7.457031C19.667969 7.679688 19.484375 7.859375 19.261719 7.859375 19.039062 7.859375 18.859375 7.679688 18.859375 7.457031 18.859375 7.234375 19.039062 7.054688 19.261719 7.054688 19.484375 7.054688 19.667969 7.234375 19.667969 7.457031zM20.472656 6.648438C20.472656 6.871094 20.292969 7.054688 20.070312 7.054688 19.847656 7.054688 19.667969 6.871094 19.667969 6.648438 19.667969 6.425781 19.847656 6.246094 20.070312 6.246094 20.292969 6.246094 20.472656 6.425781 20.472656 6.648438zM19.667969 5.84375C19.667969 6.066406 19.484375 6.246094 19.261719 6.246094 19.039062 6.246094 18.859375 6.066406 18.859375 5.84375 18.859375 5.621094 19.039062 5.441406 19.261719 5.441406 19.484375 5.441406 19.667969 5.621094 19.667969 5.84375zM18.050781 5.84375C18.050781 6.066406 17.871094 6.246094 17.648438 6.246094 17.425781 6.246094 17.246094 6.066406 17.246094 5.84375 17.246094 5.621094 17.425781 5.441406 17.648438 5.441406 17.871094 5.441406 18.050781 5.621094 18.050781 5.84375zM20.472656 5.035156C20.472656 5.257812 20.292969 5.441406 20.070312 5.441406 19.847656 5.441406 19.667969 5.257812 19.667969 5.035156 19.667969 4.8125 19.847656 4.632812 20.070312 4.632812 20.292969 4.632812 20.472656 4.8125 20.472656 5.035156zM17.246094 5.035156C17.246094 5.257812 17.066406 5.441406 16.84375 5.441406 16.617188 5.441406 16.4375 5.257812 16.4375 5.035156 16.4375 4.8125 16.617188 4.632812 16.84375 4.632812 17.066406 4.632812 17.246094 4.8125 17.246094 5.035156zM18.050781 4.230469C18.050781 4.453125 17.871094 4.632812 17.648438 4.632812 17.425781 4.632812 17.246094 4.453125 17.246094 4.230469 17.246094 4.007812 17.425781 3.824219 17.648438 3.824219 17.871094 3.824219 18.050781 4.007812 18.050781 4.230469zM21.28125 10.683594C21.28125 10.90625 21.101562 11.089844 20.875 11.089844 20.652344 11.089844 20.472656 10.90625 20.472656 10.683594 20.472656 10.460938 20.652344 10.28125 20.875 10.28125 21.101562 10.28125 21.28125 10.460938 21.28125 10.683594zM21.28125 9.070312C21.28125 9.292969 21.101562 9.472656 20.875 9.472656 20.652344 9.472656 20.472656 9.292969 20.472656 9.070312 20.472656 8.847656 20.652344 8.667969 20.875 8.667969 21.101562 8.667969 21.28125 8.847656 21.28125 9.070312zM21.28125 9.070312"/>
</svg>
