<svg xmlns="http://www.w3.org/2000/svg" width="32" height="32" viewBox="0 0 24 24">
    <path d="M 22.3125 9.152344 C 22 8.667969 21.828125 7.613281 21.867188 6.972656 C 21.957031 5.480469 21.160156 3.992188 19.933594 3.363281 C 19.695312 3.242188 19.484375 3.179688 19.296875 3.125 C 18.972656 3.03125 18.839844 2.992188 18.714844 2.738281 C 18.074219 1.402344 17.359375 1.214844 16.007812 1.300781 C 15.882812 1.324219 15.714844 1.117188 15.539062 0.929688 C 15.242188 0.609375 14.839844 0.183594 14.207031 0.109375 L 14.003906 0.0898438 C 13.171875 0.0898438 12.425781 0.390625 11.988281 0.835938 C 11.773438 0.601562 11.5 0.398438 11.226562 0.253906 C 10.695312 -0.0273438 10.195312 -0.078125 9.835938 0.117188 C 9.207031 0.242188 8.804688 0.640625 8.507812 0.9375 C 8.273438 1.167969 8.125 1.316406 7.992188 1.300781 C 6.636719 1.214844 5.925781 1.402344 5.28125 2.738281 C 5.160156 2.992188 5.027344 3.03125 4.703125 3.125 C 4.515625 3.179688 4.304688 3.242188 4.066406 3.363281 C 2.835938 3.992188 2.042969 5.476562 2.132812 6.972656 C 2.171875 7.613281 1.996094 8.667969 1.683594 9.152344 C 0.914062 10.351562 0.914062 12.023438 1.683594 13.21875 C 1.804688 13.40625 1.980469 13.621094 2.179688 13.871094 C 2.539062 14.3125 3.144531 15.058594 3.121094 15.398438 C 3.03125 16.90625 3.953125 18.644531 5.171875 19.269531 C 5.394531 19.382812 5.429688 19.496094 5.511719 19.84375 C 5.558594 20.035156 5.617188 20.273438 5.742188 20.527344 C 6.074219 21.21875 6.59375 21.417969 6.972656 21.5625 C 7.351562 21.707031 7.507812 21.765625 7.566406 22.179688 C 7.75 23.527344 8.597656 24 9.375 24 C 9.421875 24 9.464844 24 9.507812 23.996094 C 10.460938 23.929688 11.460938 23.199219 12 22.074219 C 12.539062 23.199219 13.539062 23.929688 14.492188 23.996094 C 14.535156 24 14.578125 24 14.625 24 C 15.402344 24 16.25 23.527344 16.433594 22.179688 C 16.492188 21.765625 16.648438 21.707031 17.027344 21.5625 C 17.40625 21.417969 17.925781 21.21875 18.257812 20.527344 C 18.382812 20.273438 18.441406 20.035156 18.484375 19.84375 C 18.570312 19.5 18.605469 19.382812 18.824219 19.269531 C 20.046875 18.644531 20.96875 16.90625 20.875 15.398438 C 20.855469 15.058594 21.460938 14.3125 21.820312 13.871094 C 22.019531 13.621094 22.195312 13.40625 22.3125 13.21875 C 23.082031 12.023438 23.082031 10.351562 22.3125 9.152344 Z M 9.453125 23.191406 C 8.859375 23.222656 8.46875 22.832031 8.363281 22.070312 C 8.242188 21.179688 7.675781 20.964844 7.261719 20.808594 C 6.925781 20.679688 6.660156 20.578125 6.46875 20.179688 C 6.382812 20 6.339844 19.824219 6.300781 19.65625 C 6.296875 19.652344 6.296875 19.652344 6.296875 19.648438 C 6.328125 19.589844 6.351562 19.527344 6.351562 19.457031 C 6.351562 18.347656 7.257812 17.441406 8.367188 17.441406 C 8.589844 17.441406 8.773438 17.261719 8.773438 17.039062 C 8.773438 16.816406 8.589844 16.632812 8.367188 16.632812 C 7.097656 16.632812 6.023438 17.476562 5.667969 18.628906 C 5.628906 18.601562 5.589844 18.578125 5.542969 18.554688 C 4.613281 18.074219 3.859375 16.625 3.929688 15.449219 C 3.96875 14.792969 3.351562 14.035156 2.808594 13.363281 C 2.628906 13.140625 2.460938 12.933594 2.363281 12.785156 C 1.761719 11.84375 1.761719 10.53125 2.363281 9.589844 C 2.785156 8.933594 2.988281 7.722656 2.9375 6.925781 C 2.867188 5.757812 3.496094 4.5625 4.433594 4.082031 C 4.601562 3.996094 4.769531 3.945312 4.929688 3.902344 C 5.097656 3.851562 5.277344 3.796875 5.449219 3.703125 C 5.480469 3.710938 5.511719 3.722656 5.542969 3.722656 C 6.433594 3.722656 7.15625 4.445312 7.15625 5.335938 C 7.15625 5.558594 7.339844 5.738281 7.5625 5.738281 C 7.785156 5.738281 7.964844 5.558594 7.964844 5.335938 C 7.964844 4.183594 7.152344 3.214844 6.070312 2.972656 C 6.429688 2.269531 6.738281 2.085938 7.441406 2.085938 C 7.585938 2.085938 7.753906 2.09375 7.9375 2.105469 C 8.441406 2.136719 8.777344 1.804688 9.074219 1.511719 C 9.359375 1.230469 9.625 0.964844 10.042969 0.902344 L 10.175781 0.878906 L 10.238281 0.820312 C 10.316406 0.785156 10.53125 0.796875 10.847656 0.96875 C 11.3125 1.210938 11.597656 1.582031 11.597656 1.703125 L 11.597656 4.960938 C 10.007812 5.160156 8.773438 6.515625 8.773438 8.160156 C 8.773438 9.496094 7.6875 10.582031 6.351562 10.582031 C 6.128906 10.582031 5.949219 10.761719 5.949219 10.984375 C 5.949219 11.207031 6.128906 11.386719 6.351562 11.386719 C 8.132812 11.386719 9.578125 9.941406 9.578125 8.160156 C 9.578125 6.960938 10.453125 5.96875 11.597656 5.773438 L 11.597656 20.265625 C 11.597656 22.054688 10.328125 23.128906 9.453125 23.191406 Z M 21.636719 12.785156 C 21.539062 12.933594 21.371094 13.140625 21.191406 13.363281 C 21.027344 13.5625 20.859375 13.773438 20.703125 13.984375 C 20.273438 12.710938 19.066406 11.792969 17.648438 11.792969 C 16.3125 11.792969 15.226562 10.707031 15.226562 9.371094 C 15.226562 9.148438 15.046875 8.96875 14.824219 8.96875 C 14.601562 8.96875 14.421875 9.148438 14.421875 9.371094 C 14.421875 11.152344 15.867188 12.597656 17.648438 12.597656 C 18.984375 12.597656 20.070312 13.683594 20.070312 15.019531 C 20.070312 15.066406 20.082031 15.109375 20.097656 15.152344 C 20.078125 15.253906 20.066406 15.351562 20.070312 15.449219 C 20.140625 16.625 19.386719 18.074219 18.457031 18.554688 C 18.410156 18.578125 18.371094 18.605469 18.332031 18.628906 C 17.976562 17.476562 16.898438 16.632812 15.632812 16.632812 C 15.410156 16.632812 15.226562 16.816406 15.226562 17.039062 C 15.226562 17.261719 15.410156 17.441406 15.632812 17.441406 C 16.742188 17.441406 17.648438 18.347656 17.648438 19.457031 C 17.648438 19.527344 17.671875 19.589844 17.703125 19.648438 C 17.703125 19.652344 17.699219 19.652344 17.699219 19.65625 C 17.660156 19.824219 17.617188 20 17.53125 20.179688 C 17.339844 20.578125 17.074219 20.679688 16.738281 20.808594 C 16.324219 20.964844 15.757812 21.179688 15.636719 22.070312 C 15.53125 22.832031 15.136719 23.222656 14.546875 23.191406 C 13.671875 23.128906 12.402344 22.054688 12.402344 20.265625 L 12.402344 1.703125 C 12.402344 1.398438 12.992188 0.957031 13.828125 0.902344 L 14.015625 0.90625 C 14.386719 0.90625 14.617188 1.125 14.949219 1.480469 C 15.238281 1.789062 15.570312 2.128906 16.0625 2.105469 C 17.144531 2.039062 17.496094 2.125 17.9375 2.992188 C 17.078125 3.222656 16.4375 4 16.4375 4.933594 C 16.4375 5.15625 16.621094 5.335938 16.84375 5.335938 C 17.066406 5.335938 17.246094 5.15625 17.246094 4.933594 C 17.246094 4.265625 17.789062 3.722656 18.457031 3.722656 C 18.488281 3.722656 18.519531 3.710938 18.550781 3.703125 C 18.722656 3.796875 18.902344 3.851562 19.070312 3.902344 C 19.230469 3.945312 19.398438 3.996094 19.566406 4.082031 C 20.5 4.5625 21.132812 5.757812 21.058594 6.925781 C 21.011719 7.722656 21.214844 8.933594 21.632812 9.589844 C 22.238281 10.53125 22.238281 11.84375 21.636719 12.785156 Z M 21.636719 12.785156"/>
    <path d="M10.601562 11.242188C10.445312 11.082031 10.191406 11.082031 10.03125 11.242188 9.480469 11.792969 9.175781 12.527344 9.175781 13.308594 9.175781 13.960938 9.390625 14.582031 9.785156 15.089844 9.390625 15.597656 9.175781 16.21875 9.175781 16.871094 9.175781 17.652344 9.480469 18.382812 10.03125 18.9375 10.109375 19.015625 10.214844 19.054688 10.316406 19.054688 10.421875 19.054688 10.523438 19.015625 10.601562 18.9375 10.761719 18.777344 10.761719 18.523438 10.601562 18.367188 10.203125 17.964844 9.984375 17.433594 9.984375 16.871094 9.984375 16.304688 10.203125 15.773438 10.601562 15.375 10.761719 15.214844 10.761719 14.960938 10.601562 14.804688 10.203125 14.402344 9.984375 13.871094 9.984375 13.308594 9.984375 12.742188 10.203125 12.210938 10.601562 11.8125 10.761719 11.65625 10.761719 11.398438 10.601562 11.242188zM13.941406 12.589844C13.785156 12.75 13.785156 13.003906 13.941406 13.160156 14.691406 13.910156 14.691406 15.132812 13.941406 15.882812 13.425781 16.398438 13.140625 17.085938 13.140625 17.8125 13.140625 18.542969 13.425781 19.226562 13.941406 19.742188 14.019531 19.824219 14.125 19.863281 14.226562 19.863281 14.332031 19.863281 14.433594 19.824219 14.511719 19.742188 14.667969 19.585938 14.667969 19.332031 14.511719 19.171875 14.148438 18.808594 13.949219 18.324219 13.949219 17.8125 13.949219 17.300781 14.148438 16.816406 14.511719 16.453125 15.578125 15.386719 15.578125 13.65625 14.511719 12.589844 14.355469 12.433594 14.097656 12.433594 13.941406 12.589844zM19.1875 8.753906C18.148438 8.9375 17.144531 8.234375 16.960938 7.191406 16.835938 6.472656 16.4375 5.847656 15.839844 5.425781 15.242188 5.007812 14.519531 4.847656 13.800781 4.972656 13.578125 5.011719 13.433594 5.222656 13.472656 5.441406 13.511719 5.660156 13.71875 5.804688 13.9375 5.769531 14.445312 5.679688 14.957031 5.792969 15.375 6.085938 15.796875 6.382812 16.078125 6.824219 16.167969 7.332031 16.398438 8.65625 17.554688 9.589844 18.855469 9.589844 19.011719 9.589844 19.167969 9.578125 19.328125 9.546875 19.546875 9.507812 19.695312 9.300781 19.65625 9.082031 19.617188 8.863281 19.410156 8.714844 19.1875 8.753906zM5.492188 9.199219C6.15625 9.199219 6.78125 8.789062 7.023438 8.132812 7.101562 7.921875 6.996094 7.691406 6.785156 7.613281 6.578125 7.535156 6.34375 7.644531 6.265625 7.851562 6.109375 8.28125 5.632812 8.5 5.207031 8.339844 4.363281 8.03125 3.425781 8.460938 3.113281 9.304688 3.035156 9.515625 3.144531 9.746094 3.351562 9.824219 3.398438 9.839844 3.445312 9.847656 3.492188 9.847656 3.65625 9.847656 3.808594 9.75 3.871094 9.585938 4.027344 9.160156 4.5 8.941406 4.929688 9.097656 5.113281 9.164062 5.304688 9.199219 5.492188 9.199219zM6.777344 15.375C6.351562 15.21875 6.132812 14.742188 6.289062 14.316406 6.601562 13.472656 6.167969 12.53125 5.324219 12.21875 5.113281 12.144531 4.882812 12.25 4.804688 12.460938 4.726562 12.667969 4.832031 12.902344 5.042969 12.976562 5.46875 13.136719 5.6875 13.609375 5.53125 14.035156 5.21875 14.878906 5.652344 15.820312 6.496094 16.132812 6.542969 16.148438 6.589844 16.15625 6.636719 16.15625 6.800781 16.15625 6.953125 16.054688 7.015625 15.894531 7.09375 15.683594 6.984375 15.453125 6.777344 15.375zM6.777344 15.375"/>
</svg>
