<svg xmlns="http://www.w3.org/2000/svg" width="32" height="32" viewBox="0 0 24 24">
    <path d="M22.313 9.152c-.313-.484-.485-1.539-.446-2.18.09-1.492-.707-2.98-1.933-3.609a3.458 3.458 0 0 0-.637-.238c-.324-.094-.457-.133-.582-.387-.64-1.336-1.356-1.523-2.707-1.437-.125.023-.293-.184-.469-.371-.297-.32-.7-.746-1.332-.82l-.203-.02c-.832 0-1.578.3-2.016.746a2.884 2.884 0 0 0-.761-.582c-.532-.281-1.032-.332-1.391-.137-.629.125-1.031.524-1.328.82-.235.231-.383.38-.516.364-1.355-.086-2.066.101-2.71 1.437-.122.254-.255.293-.579.387a3.458 3.458 0 0 0-.637.238c-1.23.63-2.023 2.114-1.933 3.61.039.64-.137 1.695-.45 2.18-.769 1.199-.769 2.87 0 4.066.122.187.297.402.497.652.36.441.965 1.188.941 1.527-.09 1.508.832 3.247 2.05 3.872.224.113.259.226.34.574.048.191.106.43.231.683.332.692.852.891 1.23 1.035.38.145.536.204.594.618C7.75 23.527 8.598 24 9.375 24c.047 0 .09 0 .133-.004.953-.066 1.953-.797 2.492-1.922.54 1.125 1.54 1.856 2.492 1.922.043.004.086.004.133.004.777 0 1.625-.473 1.809-1.82.058-.414.214-.473.593-.617.38-.145.899-.344 1.23-1.036.126-.254.184-.492.227-.683.086-.344.121-.461.34-.574 1.223-.625 2.145-2.364 2.051-3.872-.02-.34.586-1.085.945-1.527.2-.25.375-.465.492-.652.77-1.196.77-2.867 0-4.067zm-12.86 14.04c-.594.03-.984-.36-1.09-1.122-.12-.89-.687-1.105-1.101-1.261-.336-.13-.602-.23-.793-.63a2.459 2.459 0 0 1-.168-.523c-.004-.004-.004-.004-.004-.008a.403.403 0 0 0 .055-.191 2.02 2.02 0 0 1 2.015-2.016c.223 0 .406-.18.406-.402a.408.408 0 0 0-.406-.406 2.83 2.83 0 0 0-2.699 1.996.96.96 0 0 0-.125-.074c-.93-.48-1.684-1.93-1.613-3.106.039-.656-.578-1.414-1.121-2.086-.18-.222-.348-.43-.446-.578-.601-.941-.601-2.254 0-3.195.422-.656.625-1.867.575-2.664-.07-1.168.558-2.364 1.496-2.844.168-.086.336-.137.496-.18a2.67 2.67 0 0 0 .52-.199c.03.008.062.02.093.02.89 0 1.613.722 1.613 1.613a.405.405 0 0 0 .809 0A2.428 2.428 0 0 0 6.07 2.973c.36-.703.668-.887 1.371-.887.145 0 .313.008.497.02.503.03.84-.301 1.136-.594.285-.282.551-.547.969-.61l.133-.023.062-.059c.078-.035.293-.023.61.149.464.242.75.613.75.734v3.258a3.228 3.228 0 0 0-2.825 3.2 2.424 2.424 0 0 1-2.421 2.421.402.402 0 1 0 0 .805A3.228 3.228 0 0 0 9.578 8.16c0-1.2.875-2.191 2.02-2.387v14.493c0 1.789-1.27 2.863-2.145 2.925zm12.184-10.407c-.098.149-.266.356-.446.578-.164.2-.332.41-.488.621a3.226 3.226 0 0 0-3.055-2.191 2.424 2.424 0 0 1-2.421-2.422.402.402 0 1 0-.805 0 3.227 3.227 0 0 0 3.226 3.227 2.424 2.424 0 0 1 2.422 2.422c0 .046.012.09.028.132-.02.102-.032.2-.028.297.07 1.176-.683 2.625-1.613 3.106-.047.023-.086.05-.125.074a2.835 2.835 0 0 0-2.7-1.996.408.408 0 0 0-.405.406c0 .223.183.402.406.402a2.02 2.02 0 0 1 2.015 2.016c0 .07.024.133.055.191 0 .004-.004.004-.004.008-.039.168-.082.344-.168.524-.191.398-.457.5-.793.629-.414.156-.98.37-1.101 1.261-.106.762-.5 1.153-1.09 1.121-.875-.062-2.145-1.136-2.145-2.925V1.703c0-.305.59-.746 1.426-.8l.188.003c.37 0 .601.219.933.574.29.31.621.649 1.114.625 1.082-.066 1.433.02 1.875.887-.86.23-1.5 1.008-1.5 1.942a.405.405 0 0 0 .808 0c0-.668.543-1.211 1.211-1.211.031 0 .063-.012.094-.02.172.094.351.149.52.2.16.042.327.093.495.179.934.48 1.567 1.676 1.493 2.844-.047.797.156 2.008.574 2.664.605.941.605 2.254.004 3.195zm0 0"/>
    <path d="M10.602 11.242a.399.399 0 0 0-.57 0 2.904 2.904 0 0 0-.856 2.067c0 .652.215 1.273.61 1.78a2.891 2.891 0 0 0-.61 1.782c0 .781.304 1.512.855 2.067a.405.405 0 0 0 .57 0 .399.399 0 0 0 0-.57 2.114 2.114 0 0 1-.617-1.497 2.1 2.1 0 0 1 .618-1.496.399.399 0 0 0 0-.57 2.114 2.114 0 0 1-.618-1.496 2.1 2.1 0 0 1 .618-1.496.399.399 0 0 0 0-.57zm0 0M13.941 12.59a.406.406 0 0 0 0 .57c.75.75.75 1.973 0 2.723a2.716 2.716 0 0 0-.8 1.93c0 .73.285 1.414.8 1.93a.394.394 0 0 0 .57 0 .406.406 0 0 0 0-.571 1.912 1.912 0 0 1-.562-1.36c0-.511.2-.996.563-1.359a2.732 2.732 0 0 0 0-3.863.406.406 0 0 0-.57 0zm0 0M19.188 8.754A1.93 1.93 0 0 1 16.96 7.19a2.717 2.717 0 0 0-1.121-1.765 2.719 2.719 0 0 0-2.04-.453.403.403 0 0 0 .137.797 1.922 1.922 0 0 1 2.23 1.563 2.731 2.731 0 0 0 3.161 2.214.402.402 0 1 0-.14-.793zm0 0M5.492 9.2c.664 0 1.29-.41 1.531-1.067a.402.402 0 0 0-.238-.52.407.407 0 0 0-.52.239.82.82 0 0 1-1.058.488 1.634 1.634 0 0 0-2.094.965.405.405 0 0 0 .239.52.442.442 0 0 0 .14.023.403.403 0 0 0 .38-.262.825.825 0 0 1 1.058-.488c.183.066.375.101.562.101zm0 0M6.777 15.375a.827.827 0 0 1-.488-1.059 1.635 1.635 0 0 0-.965-2.097.407.407 0 0 0-.52.242.398.398 0 0 0 .239.516c.426.16.644.632.488 1.058a1.635 1.635 0 0 0 .965 2.098.409.409 0 0 0 .52-.238.405.405 0 0 0-.239-.52zm0 0"/>
</svg>
