<svg xmlns="http://www.w3.org/2000/svg" width="32" height="32" viewBox="0 0 24 24">
    <path d="M7.601562 15.199219C7.601562 15.421875 7.421875 15.601562 7.199219 15.601562 6.980469 15.601562 6.800781 15.421875 6.800781 15.199219 6.800781 14.980469 6.980469 14.800781 7.199219 14.800781 7.421875 14.800781 7.601562 14.980469 7.601562 15.199219zM17.199219 15.199219C17.199219 15.421875 17.019531 15.601562 16.800781 15.601562 16.578125 15.601562 16.398438 15.421875 16.398438 15.199219 16.398438 14.980469 16.578125 14.800781 16.800781 14.800781 17.019531 14.800781 17.199219 14.980469 17.199219 15.199219zM17.199219 15.199219"/>
    <path d="M 24 12 C 24 11.1875 23.917969 10.394531 23.761719 9.625 L 23.769531 9.625 L 23.679688 9.253906 C 23.675781 9.242188 23.671875 9.226562 23.671875 9.214844 C 23.550781 8.722656 23.40625 8.238281 23.226562 7.769531 C 23.214844 7.734375 23.199219 7.699219 23.183594 7.660156 C 23.109375 7.472656 23.03125 7.285156 22.949219 7.097656 C 22.925781 7.042969 22.902344 6.992188 22.875 6.9375 C 22.78125 6.734375 22.683594 6.535156 22.578125 6.339844 C 22.570312 6.320312 22.558594 6.304688 22.550781 6.289062 C 22.441406 6.085938 22.324219 5.890625 22.207031 5.695312 C 22.160156 5.621094 22.109375 5.546875 22.0625 5.472656 C 21.984375 5.351562 21.902344 5.230469 21.816406 5.113281 C 21.761719 5.03125 21.707031 4.949219 21.648438 4.871094 C 21.535156 4.722656 21.421875 4.574219 21.304688 4.429688 C 21.222656 4.332031 21.140625 4.234375 21.054688 4.136719 C 20.972656 4.042969 20.890625 3.949219 20.804688 3.859375 C 20.765625 3.816406 20.730469 3.769531 20.691406 3.726562 L 20.535156 3.566406 L 20.53125 3.570312 C 19.355469 2.378906 17.933594 1.4375 16.347656 0.820312 L 16.347656 0.808594 L 16.144531 0.734375 C 15.957031 0.664062 15.765625 0.601562 15.570312 0.542969 C 15.554688 0.539062 15.539062 0.53125 15.519531 0.527344 C 15.363281 0.480469 15.207031 0.4375 15.050781 0.394531 C 14.972656 0.375 14.890625 0.355469 14.808594 0.335938 C 14.714844 0.3125 14.625 0.289062 14.53125 0.269531 C 14.417969 0.246094 14.304688 0.226562 14.191406 0.203125 C 14.128906 0.191406 14.066406 0.179688 14.007812 0.171875 C 13.871094 0.148438 13.738281 0.128906 13.601562 0.109375 C 13.5625 0.105469 13.527344 0.101562 13.488281 0.09375 C 13.335938 0.078125 13.183594 0.0585938 13.03125 0.046875 C 13.015625 0.046875 13 0.0429688 12.984375 0.0429688 C 12.660156 0.015625 12.332031 0 12 0 C 11.261719 0 10.539062 0.0703125 9.835938 0.199219 C 9.824219 0.203125 9.808594 0.203125 9.796875 0.207031 C 9.640625 0.234375 9.492188 0.265625 9.339844 0.300781 C 9.304688 0.308594 9.265625 0.316406 9.226562 0.328125 C 9.09375 0.359375 8.964844 0.390625 8.832031 0.425781 C 8.773438 0.441406 8.714844 0.460938 8.652344 0.476562 C 8.542969 0.511719 8.429688 0.542969 8.320312 0.578125 C 8.238281 0.605469 8.15625 0.632812 8.074219 0.664062 C 7.984375 0.695312 7.894531 0.722656 7.804688 0.757812 C 7.785156 0.765625 7.761719 0.773438 7.742188 0.78125 L 7.527344 0.859375 L 7.527344 0.867188 C 5.992188 1.484375 4.613281 2.410156 3.46875 3.570312 L 3.464844 3.566406 L 3.308594 3.730469 C 3.273438 3.769531 3.238281 3.8125 3.199219 3.851562 C 3.109375 3.949219 3.023438 4.046875 2.9375 4.148438 C 2.863281 4.234375 2.789062 4.316406 2.71875 4.402344 C 2.59375 4.558594 2.46875 4.714844 2.351562 4.875 C 2.292969 4.953125 2.242188 5.03125 2.183594 5.109375 C 2.101562 5.230469 2.015625 5.351562 1.9375 5.476562 C 1.886719 5.550781 1.839844 5.621094 1.796875 5.695312 C 1.675781 5.890625 1.558594 6.085938 1.449219 6.289062 C 1.441406 6.300781 1.433594 6.316406 1.425781 6.328125 C 1.320312 6.527344 1.21875 6.730469 1.121094 6.9375 C 1.097656 6.992188 1.074219 7.042969 1.050781 7.09375 C 0.96875 7.28125 0.886719 7.472656 0.8125 7.664062 C 0.800781 7.699219 0.785156 7.734375 0.773438 7.769531 C 0.59375 8.238281 0.449219 8.71875 0.328125 9.214844 C 0.328125 9.226562 0.324219 9.242188 0.320312 9.253906 L 0.230469 9.625 L 0.238281 9.625 C 0.0820312 10.394531 0 11.1875 0 12 C 0 15.910156 1.882812 19.390625 4.785156 21.582031 L 4.785156 21.589844 L 4.929688 21.695312 C 4.984375 21.734375 5.039062 21.765625 5.09375 21.804688 C 5.246094 21.910156 5.398438 22.015625 5.554688 22.113281 C 5.640625 22.167969 5.722656 22.222656 5.808594 22.273438 C 6 22.390625 6.199219 22.5 6.398438 22.605469 C 6.496094 22.660156 6.597656 22.710938 6.699219 22.761719 C 6.886719 22.855469 7.074219 22.941406 7.269531 23.027344 C 7.382812 23.074219 7.496094 23.121094 7.613281 23.164062 C 7.769531 23.226562 7.925781 23.285156 8.082031 23.339844 C 8.183594 23.375 8.285156 23.410156 8.390625 23.445312 C 8.613281 23.515625 8.84375 23.578125 9.074219 23.636719 C 9.167969 23.660156 9.257812 23.679688 9.351562 23.703125 C 9.554688 23.746094 9.757812 23.789062 9.964844 23.824219 C 10.027344 23.835938 10.089844 23.847656 10.152344 23.855469 C 10.414062 23.898438 10.675781 23.925781 10.945312 23.949219 C 11.015625 23.957031 11.085938 23.960938 11.15625 23.96875 C 11.4375 23.988281 11.71875 24 12 24 C 12.28125 24 12.5625 23.988281 12.84375 23.96875 C 12.914062 23.960938 12.984375 23.957031 13.054688 23.949219 C 13.320312 23.925781 13.585938 23.898438 13.847656 23.855469 C 13.910156 23.847656 13.972656 23.835938 14.035156 23.824219 C 14.242188 23.789062 14.445312 23.746094 14.648438 23.703125 C 14.742188 23.679688 14.832031 23.660156 14.925781 23.636719 C 15.15625 23.578125 15.386719 23.515625 15.609375 23.445312 C 15.714844 23.410156 15.816406 23.375 15.917969 23.339844 C 16.074219 23.285156 16.230469 23.226562 16.386719 23.164062 C 16.503906 23.121094 16.617188 23.074219 16.730469 23.027344 C 16.921875 22.941406 17.113281 22.855469 17.300781 22.761719 C 17.402344 22.710938 17.503906 22.660156 17.601562 22.605469 C 17.800781 22.503906 17.996094 22.394531 18.1875 22.277344 C 18.273438 22.226562 18.359375 22.167969 18.445312 22.113281 C 18.601562 22.015625 18.753906 21.910156 18.902344 21.804688 C 18.957031 21.765625 19.015625 21.734375 19.070312 21.695312 L 19.214844 21.589844 L 19.214844 21.582031 C 22.117188 19.390625 24 15.910156 24 12 Z M 20.09375 13.023438 C 20.296875 13.460938 20.398438 13.925781 20.398438 14.398438 C 20.398438 14.527344 20.390625 14.65625 20.375 14.78125 C 20.375 14.8125 20.367188 14.839844 20.363281 14.867188 C 20.347656 14.964844 20.332031 15.0625 20.308594 15.15625 C 20.300781 15.1875 20.289062 15.21875 20.28125 15.253906 C 20.257812 15.34375 20.230469 15.429688 20.199219 15.519531 C 20.1875 15.554688 20.171875 15.585938 20.15625 15.621094 C 20.125 15.703125 20.089844 15.785156 20.050781 15.867188 C 20.03125 15.902344 20.011719 15.9375 19.992188 15.972656 C 19.953125 16.046875 19.90625 16.125 19.859375 16.195312 C 19.835938 16.234375 19.8125 16.269531 19.789062 16.304688 C 19.742188 16.375 19.6875 16.441406 19.632812 16.507812 C 19.605469 16.542969 19.578125 16.578125 19.550781 16.609375 C 19.492188 16.675781 19.429688 16.742188 19.367188 16.804688 C 19.339844 16.835938 19.308594 16.863281 19.28125 16.890625 C 19.207031 16.960938 19.128906 17.027344 19.046875 17.089844 C 19.015625 17.117188 18.988281 17.144531 18.953125 17.167969 L 18.9375 17.179688 C 18.246094 17.691406 17.363281 18 16.398438 18 C 14.195312 18 12.398438 16.386719 12.398438 14.398438 L 12.398438 12.800781 C 12.398438 12.578125 12.222656 12.398438 12 12.398438 C 11.777344 12.398438 11.601562 12.578125 11.601562 12.800781 L 11.601562 14.398438 C 11.601562 16.386719 9.804688 18 7.601562 18 C 6.636719 18 5.753906 17.691406 5.0625 17.179688 L 5.046875 17.171875 C 5.011719 17.144531 4.980469 17.113281 4.949219 17.085938 C 4.867188 17.023438 4.792969 16.960938 4.71875 16.890625 C 4.6875 16.863281 4.660156 16.832031 4.632812 16.804688 C 4.570312 16.742188 4.507812 16.675781 4.449219 16.609375 C 4.421875 16.578125 4.394531 16.542969 4.363281 16.507812 C 4.3125 16.441406 4.261719 16.375 4.210938 16.304688 C 4.1875 16.269531 4.164062 16.234375 4.140625 16.195312 C 4.09375 16.125 4.050781 16.046875 4.007812 15.972656 C 3.988281 15.9375 3.96875 15.902344 3.949219 15.867188 C 3.910156 15.785156 3.875 15.703125 3.84375 15.621094 C 3.828125 15.585938 3.8125 15.554688 3.800781 15.519531 C 3.769531 15.429688 3.742188 15.339844 3.71875 15.25 C 3.710938 15.21875 3.699219 15.1875 3.691406 15.15625 C 3.667969 15.0625 3.652344 14.964844 3.636719 14.867188 C 3.632812 14.839844 3.628906 14.808594 3.625 14.78125 C 3.609375 14.65625 3.601562 14.527344 3.601562 14.398438 C 3.601562 13.921875 3.703125 13.457031 3.90625 13.019531 C 4.382812 12.003906 4.128906 10.824219 3.289062 10.152344 C 2.75 9.714844 2.042969 9.355469 1.191406 9.074219 C 1.195312 9.0625 1.199219 9.046875 1.203125 9.035156 C 1.25 8.851562 1.304688 8.671875 1.367188 8.492188 C 1.378906 8.453125 1.394531 8.410156 1.40625 8.371094 C 1.460938 8.210938 1.519531 8.050781 1.582031 7.894531 C 1.601562 7.851562 1.617188 7.808594 1.636719 7.761719 C 1.703125 7.59375 1.777344 7.429688 1.855469 7.261719 C 1.867188 7.238281 1.875 7.210938 1.890625 7.1875 C 1.976562 7 2.074219 6.816406 2.171875 6.636719 C 2.199219 6.585938 2.226562 6.539062 2.253906 6.488281 C 2.328125 6.363281 2.398438 6.242188 2.476562 6.117188 C 2.519531 6.042969 2.570312 5.972656 2.617188 5.898438 C 2.675781 5.804688 2.738281 5.710938 2.804688 5.617188 C 2.859375 5.539062 2.917969 5.457031 2.972656 5.378906 C 3.035156 5.296875 3.097656 5.214844 3.160156 5.136719 C 3.222656 5.054688 3.285156 4.972656 3.351562 4.894531 C 3.421875 4.808594 3.496094 4.722656 3.570312 4.636719 C 3.628906 4.574219 3.683594 4.507812 3.742188 4.441406 L 5.429688 4.792969 C 6.023438 4.917969 6.644531 4.78125 7.132812 4.417969 C 7.621094 4.054688 7.929688 3.496094 7.976562 2.925781 L 8.238281 1.453125 C 8.253906 1.445312 8.273438 1.441406 8.289062 1.433594 C 8.570312 1.335938 8.851562 1.246094 9.136719 1.171875 C 9.140625 1.171875 9.144531 1.171875 9.148438 1.167969 C 9.441406 1.09375 9.742188 1.027344 10.042969 0.976562 C 10.058594 0.972656 10.078125 0.96875 10.09375 0.964844 C 10.398438 0.914062 10.703125 0.875 11.007812 0.847656 C 11.007812 0.847656 11.011719 0.847656 11.011719 0.847656 C 11.628906 0.792969 12.246094 0.789062 12.863281 0.835938 C 12.886719 0.839844 12.910156 0.839844 12.929688 0.84375 C 13.226562 0.867188 13.519531 0.902344 13.8125 0.949219 C 13.839844 0.953125 13.863281 0.957031 13.890625 0.960938 C 14.164062 1.007812 14.433594 1.066406 14.699219 1.128906 C 14.730469 1.136719 14.757812 1.144531 14.785156 1.152344 C 15.039062 1.214844 15.289062 1.292969 15.539062 1.375 C 15.582031 1.390625 15.625 1.40625 15.671875 1.421875 L 16.027344 2.921875 C 16.085938 3.515625 16.390625 4.058594 16.867188 4.417969 C 17.355469 4.78125 17.976562 4.917969 18.570312 4.792969 L 20.257812 4.441406 C 20.339844 4.527344 20.414062 4.617188 20.492188 4.707031 C 20.542969 4.769531 20.597656 4.828125 20.648438 4.890625 C 20.71875 4.972656 20.78125 5.058594 20.847656 5.140625 C 20.90625 5.21875 20.96875 5.296875 21.023438 5.375 C 21.085938 5.457031 21.140625 5.539062 21.199219 5.621094 C 21.261719 5.710938 21.324219 5.800781 21.382812 5.894531 C 21.433594 5.96875 21.480469 6.042969 21.527344 6.117188 C 21.601562 6.238281 21.675781 6.363281 21.746094 6.488281 C 21.773438 6.535156 21.804688 6.585938 21.828125 6.636719 C 21.929688 6.816406 22.023438 7 22.113281 7.1875 C 22.125 7.210938 22.136719 7.238281 22.144531 7.261719 C 22.222656 7.429688 22.296875 7.59375 22.367188 7.765625 C 22.382812 7.808594 22.402344 7.847656 22.417969 7.890625 C 22.480469 8.050781 22.539062 8.210938 22.59375 8.371094 C 22.609375 8.410156 22.621094 8.449219 22.632812 8.488281 C 22.695312 8.671875 22.75 8.859375 22.800781 9.042969 C 22.804688 9.054688 22.808594 9.066406 22.8125 9.074219 C 22.015625 9.335938 21.347656 9.667969 20.824219 10.0625 C 19.90625 10.753906 19.605469 11.972656 20.09375 13.023438 Z M 18.710938 18.695312 C 18.664062 18.714844 18.617188 18.742188 18.566406 18.761719 C 18.5625 18.761719 18.5625 18.765625 18.558594 18.765625 C 18.515625 18.785156 18.476562 18.8125 18.445312 18.847656 C 18.4375 18.851562 18.433594 18.859375 18.425781 18.863281 C 18.398438 18.894531 18.375 18.933594 18.355469 18.972656 C 18.355469 18.976562 18.351562 18.980469 18.351562 18.984375 C 18.332031 19.03125 18.320312 19.082031 18.320312 19.132812 C 18.320312 19.183594 18.332031 19.234375 18.351562 19.289062 C 18.402344 19.40625 18.503906 19.488281 18.625 19.519531 C 18.566406 20.082031 18.511719 20.628906 18.457031 21.144531 C 18.417969 21.171875 18.378906 21.199219 18.339844 21.226562 C 18.160156 21.347656 17.980469 21.46875 17.796875 21.582031 C 17.714844 21.628906 17.632812 21.675781 17.550781 21.722656 C 17.421875 21.796875 17.285156 21.871094 17.152344 21.941406 C 17.0625 21.988281 16.96875 22.035156 16.878906 22.082031 C 16.691406 22.171875 16.5 22.257812 16.308594 22.335938 C 16.210938 22.378906 16.109375 22.417969 16.007812 22.457031 C 15.871094 22.507812 15.730469 22.558594 15.59375 22.605469 C 15.492188 22.640625 15.394531 22.675781 15.292969 22.703125 C 15.09375 22.765625 14.894531 22.820312 14.691406 22.871094 C 14.601562 22.894531 14.511719 22.914062 14.421875 22.933594 C 14.226562 22.976562 14.03125 23.015625 13.835938 23.046875 C 13.785156 23.054688 13.734375 23.066406 13.6875 23.074219 C 13.449219 23.109375 13.210938 23.136719 12.972656 23.15625 C 12.902344 23.160156 12.835938 23.164062 12.765625 23.171875 C 12.511719 23.1875 12.257812 23.199219 12 23.199219 C 11.742188 23.199219 11.488281 23.1875 11.234375 23.171875 C 11.164062 23.164062 11.097656 23.160156 11.03125 23.15625 C 10.789062 23.136719 10.550781 23.109375 10.3125 23.074219 C 10.265625 23.066406 10.214844 23.054688 10.167969 23.046875 C 9.96875 23.015625 9.773438 22.976562 9.582031 22.933594 C 9.488281 22.914062 9.398438 22.894531 9.308594 22.871094 C 9.105469 22.820312 8.90625 22.765625 8.707031 22.703125 C 8.605469 22.671875 8.507812 22.640625 8.410156 22.605469 C 8.269531 22.558594 8.128906 22.507812 7.992188 22.457031 C 7.890625 22.417969 7.789062 22.378906 7.691406 22.335938 C 7.5 22.257812 7.308594 22.171875 7.121094 22.082031 C 7.03125 22.035156 6.941406 21.988281 6.851562 21.941406 C 6.714844 21.871094 6.578125 21.796875 6.445312 21.71875 C 6.367188 21.671875 6.285156 21.628906 6.207031 21.582031 C 6.019531 21.46875 5.835938 21.347656 5.65625 21.222656 C 5.621094 21.199219 5.582031 21.171875 5.542969 21.144531 C 5.488281 20.628906 5.433594 20.078125 5.375 19.515625 C 5.492188 19.488281 5.59375 19.40625 5.644531 19.285156 C 5.730469 19.082031 5.636719 18.847656 5.433594 18.761719 C 5.386719 18.742188 5.339844 18.714844 5.289062 18.695312 C 5.273438 18.539062 5.257812 18.382812 5.242188 18.226562 C 5.9375 18.589844 6.742188 18.800781 7.601562 18.800781 C 9.566406 18.800781 11.257812 17.707031 12 16.152344 C 12.742188 17.707031 14.433594 18.800781 16.398438 18.800781 C 17.257812 18.800781 18.0625 18.589844 18.757812 18.226562 C 18.742188 18.382812 18.726562 18.539062 18.710938 18.695312 Z M 19.582031 3.765625 L 18.40625 4.011719 C 18.035156 4.085938 17.648438 4.003906 17.347656 3.777344 C 17.042969 3.550781 16.851562 3.203125 16.820312 2.824219 L 16.574219 1.78125 C 17.683594 2.277344 18.699219 2.953125 19.582031 3.765625 Z M 7.359375 1.808594 L 7.179688 2.824219 C 7.148438 3.203125 6.957031 3.550781 6.652344 3.777344 C 6.351562 4.003906 5.964844 4.089844 5.59375 4.011719 L 4.417969 3.765625 C 5.285156 2.96875 6.277344 2.304688 7.359375 1.808594 Z M 0.800781 12 C 0.800781 11.269531 0.871094 10.554688 1.007812 9.863281 C 1.734375 10.109375 2.339844 10.414062 2.789062 10.773438 C 3.339844 11.214844 3.5 12 3.183594 12.683594 C 2.929688 13.226562 2.800781 13.804688 2.800781 14.398438 C 2.800781 14.554688 2.808594 14.707031 2.828125 14.859375 C 2.832031 14.894531 2.839844 14.929688 2.84375 14.96875 C 2.859375 15.082031 2.878906 15.195312 2.902344 15.304688 C 2.914062 15.351562 2.929688 15.398438 2.941406 15.449219 C 2.96875 15.542969 2.996094 15.640625 3.027344 15.734375 C 3.046875 15.792969 3.074219 15.847656 3.09375 15.902344 C 3.128906 15.984375 3.160156 16.066406 3.195312 16.144531 C 3.226562 16.207031 3.261719 16.269531 3.292969 16.332031 C 3.332031 16.398438 3.367188 16.46875 3.410156 16.539062 C 3.445312 16.601562 3.492188 16.664062 3.53125 16.726562 C 3.574219 16.789062 3.617188 16.847656 3.664062 16.910156 C 3.707031 16.96875 3.757812 17.027344 3.808594 17.085938 C 3.855469 17.144531 3.90625 17.203125 3.957031 17.257812 C 4.007812 17.3125 4.0625 17.367188 4.117188 17.417969 C 4.175781 17.476562 4.234375 17.53125 4.296875 17.585938 C 4.324219 17.609375 4.351562 17.636719 4.378906 17.660156 L 4.421875 18.058594 C 4.503906 18.871094 4.585938 19.6875 4.667969 20.457031 C 2.300781 18.398438 0.800781 15.371094 0.800781 12 Z M 19.332031 20.457031 C 19.414062 19.667969 19.5 18.832031 19.585938 18.003906 L 19.621094 17.660156 C 19.648438 17.636719 19.675781 17.609375 19.703125 17.585938 C 19.765625 17.53125 19.824219 17.476562 19.882812 17.417969 C 19.9375 17.367188 19.992188 17.3125 20.042969 17.257812 C 20.09375 17.203125 20.144531 17.144531 20.191406 17.085938 C 20.242188 17.027344 20.292969 16.96875 20.339844 16.910156 C 20.382812 16.847656 20.425781 16.789062 20.46875 16.726562 C 20.511719 16.664062 20.554688 16.601562 20.59375 16.539062 C 20.632812 16.46875 20.667969 16.402344 20.707031 16.332031 C 20.738281 16.269531 20.773438 16.207031 20.804688 16.144531 C 20.84375 16.066406 20.875 15.984375 20.90625 15.90625 C 20.929688 15.847656 20.953125 15.792969 20.972656 15.734375 C 21.007812 15.640625 21.03125 15.542969 21.058594 15.449219 C 21.070312 15.398438 21.085938 15.351562 21.097656 15.304688 C 21.125 15.195312 21.140625 15.082031 21.15625 14.96875 C 21.160156 14.929688 21.171875 14.894531 21.175781 14.855469 C 21.191406 14.707031 21.199219 14.554688 21.199219 14.398438 C 21.199219 13.808594 21.074219 13.230469 20.820312 12.6875 C 20.492188 11.980469 20.691406 11.164062 21.304688 10.703125 C 21.742188 10.371094 22.3125 10.09375 22.992188 9.863281 C 23.128906 10.554688 23.199219 11.269531 23.199219 12 C 23.199219 15.371094 21.699219 18.398438 19.332031 20.457031 Z M 19.332031 20.457031"/>
    <path d="M7.625 5.605469C8.507812 5.554688 9.210938 5.785156 9.71875 6.289062 9.796875 6.367188 9.898438 6.40625 10 6.40625 10.101562 6.40625 10.203125 6.367188 10.28125 6.289062 10.4375 6.132812 10.4375 5.882812 10.28125 5.726562 9.609375 5.050781 8.699219 4.742188 7.578125 4.808594 7.355469 4.820312 7.1875 5.011719 7.199219 5.230469 7.214844 5.453125 7.402344 5.621094 7.625 5.605469zM13.789062 6.40625C13.890625 6.40625 13.992188 6.367188 14.070312 6.289062 14.554688 5.808594 15.417969 5.550781 16.375 5.605469 16.601562 5.621094 16.785156 5.453125 16.800781 5.230469 16.8125 5.011719 16.644531 4.820312 16.421875 4.808594 15.238281 4.738281 14.148438 5.082031 13.507812 5.726562 13.351562 5.882812 13.351562 6.132812 13.507812 6.289062 13.585938 6.367188 13.6875 6.40625 13.789062 6.40625zM5.601562 11.199219C5.601562 8.875 4.171875 8.433594 4.113281 8.414062 3.902344 8.355469 3.6875 8.472656 3.621094 8.683594 3.558594 8.890625 3.675781 9.113281 3.878906 9.183594 3.917969 9.195312 4.800781 9.507812 4.800781 11.199219 4.800781 11.421875 4.980469 11.601562 5.199219 11.601562 5.421875 11.601562 5.601562 11.421875 5.601562 11.199219zM19.886719 8.414062C19.828125 8.433594 18.398438 8.875 18.398438 11.199219 18.398438 11.421875 18.578125 11.601562 18.800781 11.601562 19.019531 11.601562 19.199219 11.421875 19.199219 11.199219 19.199219 9.519531 20.070312 9.199219 20.117188 9.183594 20.328125 9.117188 20.445312 8.898438 20.382812 8.6875 20.324219 8.476562 20.101562 8.351562 19.886719 8.414062zM7.199219 13.199219C6.097656 13.199219 5.199219 14.097656 5.199219 15.199219 5.199219 16.304688 6.097656 17.199219 7.199219 17.199219 8.304688 17.199219 9.199219 16.304688 9.199219 15.199219 9.199219 14.097656 8.304688 13.199219 7.199219 13.199219zM7.199219 16.398438C6.539062 16.398438 6 15.863281 6 15.199219 6 14.539062 6.539062 14 7.199219 14 7.863281 14 8.398438 14.539062 8.398438 15.199219 8.398438 15.863281 7.863281 16.398438 7.199219 16.398438zM16.800781 13.199219C15.695312 13.199219 14.800781 14.097656 14.800781 15.199219 14.800781 16.304688 15.695312 17.199219 16.800781 17.199219 17.902344 17.199219 18.800781 16.304688 18.800781 15.199219 18.800781 14.097656 17.902344 13.199219 16.800781 13.199219zM16.800781 16.398438C16.136719 16.398438 15.601562 15.863281 15.601562 15.199219 15.601562 14.539062 16.136719 14 16.800781 14 17.460938 14 18 14.539062 18 15.199219 18 15.863281 17.460938 16.398438 16.800781 16.398438zM7.8125 19.195312C7.601562 19.203125 7.277344 19.195312 7 19.167969 6.78125 19.144531 6.585938 19.304688 6.558594 19.523438 6.546875 19.628906 6.574219 19.730469 6.644531 19.816406 6.710938 19.898438 6.808594 19.953125 6.914062 19.964844 7.140625 19.988281 7.371094 20 7.601562 20 7.671875 20 7.746094 20 7.839844 19.996094 8.058594 19.988281 8.234375 19.800781 8.226562 19.578125 8.21875 19.359375 8.03125 19.183594 7.8125 19.195312zM10.148438 18.578125C9.902344 18.707031 9.65625 18.816406 9.402344 18.898438 9.238281 18.957031 9.132812 19.109375 9.132812 19.28125 9.132812 19.324219 9.140625 19.367188 9.15625 19.40625 9.207031 19.570312 9.363281 19.679688 9.53125 19.679688 9.574219 19.679688 9.621094 19.671875 9.664062 19.660156L9.675781 19.652344C9.964844 19.550781 10.246094 19.429688 10.519531 19.289062 10.613281 19.238281 10.683594 19.15625 10.714844 19.054688 10.742188 18.953125 10.734375 18.84375 10.6875 18.75 10.589844 18.558594 10.335938 18.480469 10.148438 18.578125zM12.304688 17.347656L12 16.988281 11.695312 17.347656C11.617188 17.441406 11.53125 17.53125 11.445312 17.621094 11.445312 17.621094 11.445312 17.625 11.441406 17.625L11.4375 17.628906C11.363281 17.703125 11.328125 17.804688 11.328125 17.90625 11.328125 18.015625 11.371094 18.117188 11.449219 18.1875 11.523438 18.265625 11.621094 18.304688 11.726562 18.304688 11.765625 18.304688 11.796875 18.292969 11.832031 18.28125 11.84375 18.277344 11.859375 18.277344 11.875 18.273438 11.894531 18.265625 11.910156 18.25 11.929688 18.242188 11.953125 18.226562 11.976562 18.214844 12 18.195312 12.074219 18.265625 12.171875 18.300781 12.269531 18.300781 12.371094 18.300781 12.472656 18.261719 12.550781 18.1875 12.707031 18.03125 12.710938 17.777344 12.554688 17.621094 12.46875 17.53125 12.382812 17.441406 12.304688 17.347656zM16.210938 19.195312C16.203125 19.195312 16.195312 19.195312 16.183594 19.195312L16.164062 19.195312C15.953125 19.199219 15.78125 19.367188 15.773438 19.578125 15.773438 19.589844 15.773438 19.589844 15.773438 19.601562 15.773438 19.808594 15.933594 19.976562 16.136719 19.992188L16.15625 19.996094C16.238281 20 16.320312 20 16.398438 20 16.628906 20 16.855469 19.988281 17.085938 19.964844 17.1875 19.953125 17.285156 19.898438 17.351562 19.816406 17.414062 19.734375 17.449219 19.632812 17.4375 19.523438 17.414062 19.304688 17.21875 19.140625 16.996094 19.167969 16.792969 19.1875 16.59375 19.199219 16.398438 19.199219 16.339844 19.199219 16.28125 19.199219 16.210938 19.195312zM14.597656 18.898438C14.34375 18.8125 14.09375 18.707031 13.851562 18.578125 13.660156 18.476562 13.40625 18.558594 13.3125 18.746094 13.207031 18.945312 13.285156 19.183594 13.480469 19.289062 13.753906 19.433594 14.039062 19.554688 14.332031 19.65625 14.375 19.671875 14.421875 19.679688 14.464844 19.679688 14.632812 19.679688 14.789062 19.570312 14.84375 19.40625 14.910156 19.199219 14.804688 18.972656 14.597656 18.898438zM16.171875 10.402344C16.171875 10.414062 16.171875 10.425781 16.171875 10.4375 16.1875 10.644531 16.359375 10.808594 16.570312 10.808594 16.578125 10.808594 16.589844 10.808594 16.601562 10.808594 16.671875 10.800781 16.734375 10.800781 16.800781 10.800781 17.019531 10.800781 17.199219 10.621094 17.199219 10.398438 17.199219 10.179688 17.019531 10 16.800781 10 16.710938 10 16.625 10.003906 16.542969 10.007812 16.335938 10.023438 16.171875 10.195312 16.171875 10.402344zM13.796875 12.421875C13.589844 12.367188 13.363281 12.5 13.3125 12.707031 13.234375 13 13.199219 13.300781 13.199219 13.601562 13.199219 13.820312 13.378906 14 13.601562 14 13.820312 14 14 13.820312 14 13.601562 14 13.367188 14.027344 13.132812 14.085938 12.90625 14.140625 12.691406 14.011719 12.476562 13.796875 12.421875zM15.402344 10.691406C15.292969 10.511719 15.03125 10.457031 14.851562 10.570312 14.601562 10.734375 14.367188 10.925781 14.164062 11.148438 14.097656 11.21875 14.058594 11.316406 14.054688 11.410156 14.054688 11.527344 14.105469 11.636719 14.183594 11.710938 14.261719 11.78125 14.355469 11.820312 14.457031 11.820312 14.566406 11.820312 14.675781 11.773438 14.753906 11.691406 14.910156 11.519531 15.09375 11.367188 15.285156 11.242188 15.472656 11.125 15.523438 10.875 15.402344 10.691406zM10.226562 11.652344C10.0625 11.398438 9.871094 11.167969 9.652344 10.964844 9.5 10.820312 9.230469 10.828125 9.089844 10.984375 9.019531 11.054688 8.984375 11.152344 8.980469 11.253906 8.980469 11.363281 9.023438 11.472656 9.109375 11.546875L9.117188 11.554688C9.285156 11.710938 9.433594 11.890625 9.554688 12.085938 9.632812 12.199219 9.757812 12.269531 9.890625 12.269531 9.96875 12.269531 10.042969 12.246094 10.109375 12.203125 10.296875 12.085938 10.347656 11.835938 10.226562 11.652344zM10.792969 13.339844C10.777344 13.125 10.589844 12.957031 10.363281 12.972656 10.15625 12.988281 9.992188 13.160156 9.992188 13.367188 9.992188 13.375 9.992188 13.386719 9.992188 13.398438 9.996094 13.460938 10 13.523438 10 13.601562 10 13.820312 10.179688 14 10.398438 14 10.621094 14 10.800781 13.820312 10.800781 13.601562 10.800781 13.511719 10.796875 13.425781 10.792969 13.347656zM7.199219 10.800781L7.214844 10.800781C7.445312 10.800781 7.671875 10.828125 7.890625 10.882812 7.929688 10.890625 7.960938 10.894531 7.992188 10.894531 8.175781 10.894531 8.332031 10.777344 8.378906 10.597656 8.402344 10.492188 8.386719 10.382812 8.335938 10.292969 8.28125 10.203125 8.191406 10.136719 8.089844 10.113281 7.804688 10.035156 7.503906 10 7.199219 10 6.980469 10 6.800781 10.179688 6.800781 10.398438 6.800781 10.621094 6.980469 10.800781 7.199219 10.800781zM7.199219 10.800781"/>
</svg>
