<svg xmlns="http://www.w3.org/2000/svg" width="32" height="32" viewBox="0 0 24 24">
    <path d="M21.2 12.398h-4.458l-1.148-7.261a.394.394 0 0 0-.383-.336h-.012a.401.401 0 0 0-.39.316l-1.391 6.613-.676-1.136a.405.405 0 0 0-.347-.196.405.405 0 0 0-.344.207l-1.594 2.864L8.371 8.25A.4.4 0 0 0 8.008 8a.412.412 0 0 0-.371.234l-1.895 4.164H2.801a.401.401 0 0 0 0 .8L6 13.2c.156 0 .3-.09.363-.234l1.614-3.547 2.05 5.129a.406.406 0 0 0 .348.254h.023a.4.4 0 0 0 .352-.207l1.66-2.992.848 1.418c.082.14.246.214.406.19a.405.405 0 0 0 .328-.312l1.153-5.488.859 5.453c.031.196.2.336.394.336H21.2a.401.401 0 1 0 0-.8zm0 0M4.8 20.8c1.102 0 2-.898 2-2a1.999 1.999 0 1 0-2 2zm0-3.198c.52 0 .962.335 1.126.796H4.8a.401.401 0 0 0 0 .8l1.125.001a1.196 1.196 0 0 1-2.324-.398c0-.664.535-1.2 1.199-1.2zm0 0M14.8 20.8h5.598c.223 0 .403-.179.403-.402V17.2a.401.401 0 0 0-.403-.398h-5.597a.401.401 0 0 0-.403.398v3.2c0 .222.18.402.403.402zM20 20h-2.8v-2.398H20zm-4.8-2.398h1.198V20H15.2zm0 0M10.398 20.8c.536 0 1.04-.21 1.415-.585.378-.38.585-.88.585-1.414 0-.535-.207-1.04-.585-1.414a1.976 1.976 0 0 0-1.415-.586c-.53 0-1.035.207-1.414.586a1.999 1.999 0 0 0 1.414 3.414zm-.847-2.847a1.18 1.18 0 0 1 .449-.281V18.8a.4.4 0 0 0 .8 0v-1.13a1.19 1.19 0 0 1 .8 1.129c.002.321-.123.622-.35.848-.453.454-1.246.454-1.7 0a1.19 1.19 0 0 1-.35-.847c0-.32.124-.621.35-.848zm0 0"/>
    <path d="M0 .398V22h.8v1.602H4V22h16v1.602h3.2V22h.8V.398zm3.2 22.403H1.601V22h1.597zm19.198 0h-1.597V22h1.597zm.801-1.602H.801v-4.8h22.398zM.801 15.602V1.199h22.398v14.403zm0 0"/>
    <path d="M2.969 5.918l1.949 1.668a.444.444 0 0 0 .57-.004l1.946-1.664c.453-.39.761-.887.898-1.434.09-.363.07-.605.055-.691C8.285 2.77 7.488 2 6.527 2c-.539 0-1.004.281-1.328.652C4.875 2.282 4.414 2 3.875 2c-.965 0-1.762.77-1.863 1.793-.012.086-.035.328.054.691a2.79 2.79 0 0 0 .903 1.434zM2.8 3.922l.008-.043c.05-.535.43-1.078 1.066-1.078.434 0 .8.383.96.742l.364.824.367-.824c.157-.36.528-.742.961-.742.633 0 1.016.543 1.07 1.11 0 .003.02.136-.042.382a1.958 1.958 0 0 1-.645 1.016L5.2 6.773l-1.708-1.46a2.016 2.016 0 0 1-.648-1.02c-.059-.238-.043-.371-.043-.371zm0 0M20 3.2h1.602a.4.4 0 0 0 0-.802H20a.398.398 0 0 0-.398.403c0 .219.175.398.398.398zm0 0M22 4h-3.2a.401.401 0 1 0 0 .8H22c.223 0 .398-.179.398-.402A.398.398 0 0 0 22 4zm0 0M21.602 5.602H20a.395.395 0 0 0-.398.398c0 .223.175.398.398.398h1.602a.398.398 0 1 0 0-.796zm0 0"/>
</svg>
