<svg xmlns="http://www.w3.org/2000/svg" width="32" height="32" viewBox="0 0 24 24">
    <path d="M23.96 7.496C23.61 3.641 20.884.848 17.47.848c-2.067 0-4.032 1.03-5.25 2.761a.332.332 0 0 1-.281.157c-.07.004-.188-.02-.286-.16C10.453 1.851 8.586.847 6.527.847 3.117.848.391 3.64.04 7.496c-.027.168-.14 1.063.203 2.527.5 2.11 1.649 4.024 3.324 5.543l8.364 7.59 8.504-7.59c.43-.39.824-.804 1.183-1.246.004-.004.008-.015.016-.02a10.673 10.673 0 0 0 2.125-4.277c.344-1.464.23-2.359.203-2.527zm-12.026 14.45l-7.762-7.048c-.16-.144-.313-.296-.461-.449h1.394a.452.452 0 0 0 .41-.261l1.813-3.989 2.309 5.77c.062.16.215.27.386.281h.032c.16 0 .312-.086.39-.23l1.871-3.368.95 1.598a.454.454 0 0 0 .46.21.445.445 0 0 0 .368-.35l1.293-6.169.968 6.13a.45.45 0 0 0 .446.378h3.488c-.148.153-.3.305-.46.45zm10.945-12.13a9.703 9.703 0 0 1-1.805 3.735h-3.887l-1.289-8.168a.45.45 0 0 0-.433-.38c-.235-.015-.406.145-.453.356l-1.563 7.438-.758-1.277a.463.463 0 0 0-.394-.22.454.454 0 0 0-.387.231l-1.789 3.223-2.348-5.867a.459.459 0 0 0-.41-.285.445.445 0 0 0-.418.265l-2.129 4.684h-1.89A9.703 9.703 0 0 1 1.12 9.816C.793 8.426.926 7.645.926 7.636l.008-.042c.3-3.39 2.656-5.848 5.593-5.848 1.754 0 3.352.863 4.383 2.371.238.344.61.547 1.02.547a1.265 1.265 0 0 0 1.023-.535c1.05-1.492 2.742-2.383 4.516-2.383 2.941 0 5.297 2.461 5.601 5.89.004.009.137.794-.191 2.18zm0 0"/>
</svg>
