<svg xmlns="http://www.w3.org/2000/svg" width="32" height="32" viewBox="0 0 24 24">
    <path d="M23.605 4.25L20.34.984a1.36 1.36 0 0 0-1.918 0l-.598.598a1.35 1.35 0 0 0-.242 1.574L12.059 8.68 6.457 3.078a1.35 1.35 0 0 0-.281-1.496L5.578.984a1.353 1.353 0 0 0-1.918 0L.395 4.25a1.356 1.356 0 0 0 0 1.914l.601.598c.262.265.61.398.957.398.211 0 .422-.055.613-.156l6.418 6.418-.343.344.277.277-6.324 6.32-.504.219c-.434.184-.742.57-.832 1.031-.09.461.054.934.387 1.266l.12.121a1.41 1.41 0 0 0 2.298-.445l.218-.504 6.36-6.36a.648.648 0 0 0 .695-.14l.723-.723.691.695a.604.604 0 0 0 .426.176.632.632 0 0 0 .25-.058l6.351 6.351.22.508c.183.43.57.742 1.03.832.086.016.176.023.266.023.371 0 .73-.144 1-.414l.117-.117a1.415 1.415 0 0 0-.441-2.3l-.504-.215-6.356-6.356a.584.584 0 0 0-.007-.504l6.406-6.406a1.34 1.34 0 0 0 1.496-.281l.601-.598a1.356 1.356 0 0 0 0-1.914zM17.2 9.965L14.621 7.39l.395-.395 2.578 2.574zm-3.215-2.063l2.758 2.758-2.183 2.184-.512-.508-.617-.617.011-.028c.04-.066.07-.129.102-.191l.047-.098c.035-.093.066-.191.086-.285.082-.453-.055-.875-.403-1.222l-.64-.641zm-1.285 2.57a.893.893 0 0 1 .102.126c.02.035.039.074.05.109a.552.552 0 0 1 .02.273c-.039.192-.18.415-.394.633l-.766.762-.629.629c-.219.219-.441.355-.633.398a.533.533 0 0 1-.261-.015c-.004 0-.008-.004-.012-.004-.035-.012-.07-.031-.106-.051a.732.732 0 0 1-.129-.102l-.097-.097-2.528-2.531 2.758-2.758 1.406 1.41zM9.38 7.392L6.8 9.965l-.395-.395 2.578-2.574zM1.57 6.187L.973 5.59a.542.542 0 0 1 0-.766L4.238 1.56a.538.538 0 0 1 .766 0l.598.597c.21.211.21.555 0 .766L2.336 6.187a.542.542 0 0 1-.766 0zm4.387-2.46L8.527 6.3 5.77 9.059 3.2 6.484zm-2.64 18.507a.599.599 0 0 1-.977.191l-.117-.12a.596.596 0 0 1 .188-.977l.323-.137.723.72zm.62-.992l-.535-.535 6.09-6.09.535.535zm7.543-6.988l-.597.601-.633-.628c.012 0 .023-.004.035-.004.016.004.031.007.047.007.082 0 .168-.011.254-.027.098-.015.191-.047.289-.086.031-.012.059-.031.09-.043.066-.031.133-.062.195-.101.008-.004.02-.008.027-.016l.086.09zm.329-.824l.48-.48.61-.614 1.37 1.371-1.093 1.09zM22 21.71a.581.581 0 0 1-.164.536l-.117.121a.599.599 0 0 1-.54.164.592.592 0 0 1-.437-.351l-.14-.325.722-.722.324.137a.588.588 0 0 1 .352.44zm-1.879-.523l-6.09-6.093.535-.535 6.09 6.093zm-1.836-12.07L15.527 6.36l2.575-2.574 2.757 2.758zm4.742-3.527l-.597.598a.539.539 0 0 1-.766 0l-3.266-3.266a.542.542 0 0 1 0-.766l.598-.597a.542.542 0 0 1 .766 0l3.265 3.265c.211.211.211.555 0 .766zm0 0"/>
</svg>
