<svg xmlns="http://www.w3.org/2000/svg" width="32" height="32" viewBox="0 0 24 24">
    <path d="M18.602.8H17.8V.399A.401.401 0 0 0 17.398 0h-6.796a2.803 2.803 0 0 0-2.77 2.398H6.488A.793.793 0 0 0 5.801 2a.802.802 0 0 0 0 1.602c.293 0 .55-.164.687-.403h1.344a2.803 2.803 0 0 0 2.77 2.403h1.058A10.674 10.674 0 0 0 9 12.64v8.558c0 .223.18.403.398.403v.796c0 .223.18.403.403.403h.457c.18.687.797 1.199 1.543 1.199a1.6 1.6 0 0 0 1.597-1.602c0-.441.36-.796.801-.796.442 0 .801.355.801.796v1.204a.4.4 0 0 0 .8 0v-1.204a1.6 1.6 0 0 0-3.2 0 .802.802 0 0 1-1.49.403h.288c.223 0 .403-.18.403-.403v-.796c.219 0 .398-.18.398-.403v-7.652a9.799 9.799 0 0 1 2.89-6.973l.973-.972h1.336c.223 0 .403-.18.403-.403v-.398h.8c.22 0 .399-.18.399-.403V1.2a.4.4 0 0 0-.398-.398zm-10 2c0-1.105.894-2 2-2v4c-1.106 0-2-.898-2-2zm2.796 18H9.801v-1.769l1.597-.937zm0-3.632l-1.597.934v-1.454l1.597-.8zm0-3.621v1.406l-1.597.8v-1.507l1.601-.8c0 .034-.004.066-.004.1zM11 22h-.8v-.398h.8zm3.523-15.992a10.571 10.571 0 0 0-3.074 6.52l-1.648.824v-.711a9.87 9.87 0 0 1 2.957-7.04h2.172zM17 4.8h-2.398V4a.398.398 0 0 0-.403-.398.398.398 0 0 0-.398.398v.8h-2.403v-4h2.403v.802a.4.4 0 0 0 .8 0V.8H17zM18.2 4h-.4V1.602h.4zm0 0"/>
</svg>
