<svg xmlns="http://www.w3.org/2000/svg" width="32" height="32" viewBox="0 0 24 24">
    <path d="M13.84 15.875l7.789 7.79 1.816-1.821-7.879-7.88-1.726 1.727v-5.406h.43V9.43h-1.286V4.648c.735-.199 1.286-.902 1.286-1.742 0-.844-.602-2.906-1.715-2.906-.989 0-1.57 1.621-1.692 2.574-.008 0-.015-.004-.023-.004s-.016.004-.024.004C10.696 1.621 10.113 0 9.125 0c-.988 0-1.57 1.621-1.691 2.574-.008 0-.016-.004-.024-.004s-.015.004-.023.004C7.266 1.621 6.684 0 5.695 0c-.984 0-1.57 1.621-1.687 2.574-.008 0-.016-.004-.024-.004-.011 0-.015.004-.027.004C3.84 1.621 3.254 0 2.27 0 1.156 0 .555 2.063.555 2.91c0 .836.547 1.54 1.285 1.742V9.43H.555v.855h.43v12.86h-.43V24H14.27v-.855h-.43zm1.726-.7l6.668 6.669-.605.605-6.668-6.664zm-2.582.29h-3.43v.855h3.43v.86h-3.43v.855h3.43v.86h-3.43v.855h3.43V21h-6v-8.57h6v1.32h-3.43v.855h3.43zm-.43-14.61c.204 0 .856 1.118.856 2.055 0 .52-.383.945-.855.945-.473 0-.86-.425-.86-.945 0-.937.657-2.055.86-2.055zm-.429 3.793V9.43h-.855V4.09c.222.27.515.469.855.558zM10.41 4.09v5.34h-.855V4.648c.34-.09.633-.289.855-.558zM9.125.855c.203 0 .86 1.118.86 2.055 0 .52-.387.945-.86.945S8.27 3.43 8.27 2.91c0-.937.652-2.055.855-2.055zm-.43 3.793V9.43H7.84V4.09c.223.27.52.469.855.558zm-1.71-.558v5.34h-.86V4.648c.34-.09.633-.289.86-.558zM5.694.855c.203 0 .86 1.118.86 2.055 0 .52-.387.945-.86.945-.472 0-.855-.425-.855-.945 0-.937.652-2.055.855-2.055zM5.27 4.648V9.43h-.86V4.09c.223.27.52.469.86.558zM1.41 2.91c0-.937.656-2.055.86-2.055.203 0 .855 1.118.855 2.055 0 .52-.383.945-.855.945-.473 0-.86-.425-.86-.945zm1.285 1.738c.34-.09.637-.289.86-.558v5.34h-.86zM1.84 12.43h.855V21H1.84zm11.144 10.715H1.84v-1.29h1.715V11.57H1.84v-1.285h11.144v1.285H6.125v10.285h6.86zm0 0"/>
</svg>
