<svg xmlns="http://www.w3.org/2000/svg" width="32" height="32" viewBox="0 0 24 24">
    <path d="M23.52 19.027l-8.985-8.98a2.579 2.579 0 0 0-1.836-.758c-.336 0-.664.063-.965.184L6.188 4.34A3.203 3.203 0 0 0 3.2 0 3.206 3.206 0 0 0 0 3.2c0 1.765 1.438 3.198 3.2 3.198.35 0 .69-.058 1.007-.164l5.262 5.504a2.603 2.603 0 0 0 .578 2.801l8.98 8.98c.309.31.723.481 1.164.481.442 0 .856-.172 1.164-.48l2.165-2.165a1.65 1.65 0 0 0 0-2.328zm-9.547-8.414l7.797 7.793-3.364 3.364-.707-.711.617-.622a2.301 2.301 0 0 0 0-3.253l-4.375-4.372a2.301 2.301 0 0 0-3.254 0l-.492.493a1.786 1.786 0 0 1 .106-1.442c0-.004.004-.008.008-.011a1.907 1.907 0 0 1 .3-.426l.817-.813a1.978 1.978 0 0 1 .426-.305l.02-.011a1.773 1.773 0 0 1 2.1.316zm-1.325 5.383a1.433 1.433 0 0 1 1.653.242 1.402 1.402 0 0 1 .238 1.653zm2.215-.324a2.177 2.177 0 0 0-1.55-.64c-.454 0-.887.136-1.25.39l-1.426-1.426.617-.621a1.503 1.503 0 0 1 2.121 0l4.375 4.375c.586.586.586 1.54 0 2.125l-.617.617-2.016-2.015c.254-.364.39-.797.39-1.25a2.18 2.18 0 0 0-.644-1.555zM2.793 5.562a.396.396 0 0 0-.395-.363.405.405 0 0 0-.293.133 1.934 1.934 0 0 1-.308-.191A.393.393 0 0 0 2 4.8a.401.401 0 0 0-.398-.403.4.4 0 0 0-.344.207 2.306 2.306 0 0 1-.192-.312A.384.384 0 0 0 1.2 4a.395.395 0 0 0-.363-.39 2.356 2.356 0 0 1 0-.817.396.396 0 0 0 .363-.395.39.39 0 0 0-.133-.293c.055-.109.121-.21.192-.308.07.117.195.203.344.203A.4.4 0 0 0 2 1.602a.404.404 0 0 0-.203-.344c.098-.07.2-.137.308-.192a.39.39 0 0 0 .293.133c.211 0 .375-.16.395-.363.133-.02.27-.035.406-.035.14 0 .278.015.41.035.02.203.184.363.391.363.117 0 .223-.05.293-.133.11.055.215.121.312.192a.4.4 0 0 0-.207.344c0 .218.18.398.403.398a.393.393 0 0 0 .34-.203c.074.098.136.2.191.308a.405.405 0 0 0-.133.293c0 .211.16.375.364.395.023.133.039.27.039.406 0 .14-.016.278-.04.41a.39.39 0 1 0-.23.684 2.78 2.78 0 0 1-.191.312.393.393 0 0 0-.34-.207.402.402 0 0 0-.403.403c0 .144.086.27.204.34-.028.02-.051.039-.075.058-.004 0-.007.004-.011.004-.07.047-.149.086-.227.125A.399.399 0 0 0 4 5.2a.399.399 0 0 0-.395.364c-.128.023-.265.039-.406.039-.136 0-.273-.016-.406-.04zm2.172.305s.004 0 .004-.004c.152-.101.293-.215.426-.34.007-.007.02-.02.03-.027a2.95 2.95 0 0 0 .352-.41c.008-.004.012-.012.02-.02l5.223 4.836c-.032.028-.063.059-.094.086-.024.02-.047.04-.067.059l-.812.812c-.02.02-.035.04-.05.059-.036.035-.071.07-.102.11zm17.988 14.926l-2.16 2.16a.868.868 0 0 1-1.2 0l-.62-.617 3.359-3.363.621.62a.846.846 0 0 1 0 1.2zm0 0"/>
    <path d="M3.602 1.602a.401.401 0 1 1-.802-.005.401.401 0 0 1 .802.005zm0 0M2.8 2.398a.401.401 0 1 1 0 0zm0 0M4.398 2.398a.398.398 0 1 1-.796 0 .398.398 0 1 1 .796 0zm0 0M5.2 3.2a.401.401 0 1 1-.803.002.401.401 0 0 1 .802-.003zm0 0M3.602 4.8a.401.401 0 1 1-.802-.004.401.401 0 0 1 .802.005zm0 0M3.602 3.2a.401.401 0 1 1 0 0zm0 0M2 3.2a.401.401 0 1 1-.802.002A.401.401 0 0 1 2 3.199zm0 0M2.8 4c0 .223-.179.398-.402.398a.398.398 0 1 1 0-.796c.223 0 .403.18.403.398zm0 0M4.398 4A.395.395 0 0 1 4 4.398.395.395 0 0 1 3.602 4a.398.398 0 1 1 .796 0zm0 0"/>
</svg>
