<svg xmlns="http://www.w3.org/2000/svg" width="32" height="32" viewBox="0 0 24 24">
    <path d="M 23.601562 3.941406 L 20.132812 3.941406 L 18.476562 7.875 C 18.621094 6.71875 18.625 5.558594 18.339844 4.476562 C 18.121094 3.65625 17.492188 2.875 16.5625 2.277344 C 15.417969 1.539062 13.800781 1.457031 12.351562 2.058594 L 12.296875 2.082031 C 12.277344 2.089844 12.257812 2.097656 12.238281 2.105469 C 12.117188 2.148438 12.023438 2.183594 11.949219 2.210938 C 11.761719 2.285156 11.761719 2.285156 11.421875 2.1875 C 10.296875 1.855469 8.863281 1.527344 7.75 1.921875 C 5.652344 2.664062 5.007812 4.988281 5.304688 6.960938 C 5.351562 7.273438 5.398438 7.585938 5.445312 7.902344 C 5.5 8.28125 5.558594 8.664062 5.613281 9.046875 L 3.464844 3.941406 L 0.398438 3.941406 C 0.179688 3.941406 0 4.121094 0 4.339844 C 0 4.5625 0.179688 4.742188 0.398438 4.742188 L 2.933594 4.742188 L 5.230469 10.191406 C 4.265625 9.519531 3.105469 9.140625 1.890625 9.140625 C 1.882812 9.140625 1.875 9.140625 1.871094 9.140625 C 1.398438 9.140625 0.96875 9.363281 0.691406 9.746094 C 0.410156 10.132812 0.332031 10.628906 0.476562 11.082031 L 2.742188 18.105469 C 3.558594 20.636719 5.898438 22.339844 8.558594 22.339844 L 15.4375 22.339844 C 18.101562 22.339844 20.441406 20.636719 21.257812 18.105469 L 23.523438 11.082031 C 23.671875 10.625 23.59375 10.140625 23.3125 9.753906 C 23.027344 9.363281 22.589844 9.140625 22.109375 9.140625 L 21.210938 9.140625 C 20.195312 9.140625 19.226562 9.472656 18.433594 10.046875 L 20.664062 4.742188 L 23.601562 4.742188 C 23.820312 4.742188 24 4.5625 24 4.339844 C 24 4.121094 23.820312 3.941406 23.601562 3.941406 Z M 8.019531 2.675781 C 8.285156 2.578125 8.59375 2.539062 8.914062 2.539062 C 9.679688 2.539062 10.539062 2.761719 11.195312 2.953125 C 11.730469 3.109375 11.84375 3.109375 12.238281 2.957031 C 12.304688 2.929688 12.390625 2.898438 12.496094 2.863281 C 12.535156 2.847656 12.574219 2.832031 12.617188 2.8125 L 12.65625 2.796875 C 13.871094 2.292969 15.203125 2.355469 16.128906 2.949219 C 16.890625 3.4375 17.402344 4.054688 17.566406 4.683594 C 18.085938 6.648438 17.519531 9.007812 17.015625 11.089844 C 16.96875 11.289062 16.925781 11.472656 16.882812 11.664062 L 16.832031 11.785156 C 16.804688 11.851562 16.800781 11.914062 16.808594 11.980469 C 16.789062 12.0625 16.769531 12.144531 16.75 12.222656 L 16.683594 12.527344 L 16.683594 12.53125 C 16.597656 12.90625 16.511719 13.292969 16.40625 13.691406 C 16.265625 14.207031 16.089844 14.699219 15.828125 15.160156 C 15.660156 15.457031 15.550781 15.5 15.554688 15.5 C 15.519531 15.492188 15.230469 15.382812 14.769531 13.960938 C 14.699219 13.75 14.640625 13.527344 14.582031 13.300781 C 14.347656 12.402344 14.082031 11.382812 13.152344 10.828125 C 12.109375 10.207031 10.941406 10.582031 10.101562 11.808594 C 9.648438 12.472656 9.402344 13.199219 9.164062 13.902344 C 9.070312 14.171875 8.976562 14.441406 8.875 14.710938 C 8.726562 15.085938 8.601562 15.371094 8.359375 15.519531 C 8.265625 15.460938 8.089844 15.246094 7.789062 14.511719 L 7.757812 14.4375 C 7.742188 14.398438 7.726562 14.355469 7.710938 14.3125 L 7.707031 14.304688 C 7.65625 14.167969 7.601562 14.027344 7.550781 13.886719 C 7.542969 13.871094 7.535156 13.851562 7.53125 13.835938 C 7.476562 13.683594 7.425781 13.53125 7.371094 13.371094 C 7.363281 13.347656 7.355469 13.320312 7.347656 13.296875 C 7.246094 12.976562 7.152344 12.644531 7.058594 12.289062 L 7.054688 12.277344 C 6.679688 10.8125 6.453125 9.285156 6.234375 7.789062 C 6.191406 7.46875 6.144531 7.152344 6.097656 6.839844 C 5.847656 5.191406 6.347656 3.265625 8.019531 2.675781 Z M 15.308594 16.25 C 14.578125 17.046875 13.53125 17.539062 12.386719 17.539062 L 11.613281 17.539062 C 10.472656 17.539062 9.425781 17.046875 8.691406 16.246094 C 9.242188 15.949219 9.46875 15.386719 9.617188 15 C 9.726562 14.722656 9.824219 14.441406 9.917969 14.160156 C 10.152344 13.476562 10.371094 12.832031 10.761719 12.261719 C 11.042969 11.851562 11.796875 10.953125 12.742188 11.515625 C 13.390625 11.902344 13.59375 12.679688 13.808594 13.503906 C 13.871094 13.742188 13.933594 13.980469 14.007812 14.207031 C 14.304688 15.121094 14.691406 16.050781 15.308594 16.25 Z M 21.210938 9.941406 L 22.109375 9.941406 C 22.332031 9.941406 22.535156 10.042969 22.664062 10.222656 C 22.792969 10.402344 22.828125 10.625 22.761719 10.835938 L 20.496094 17.859375 C 19.785156 20.0625 17.753906 21.539062 15.4375 21.539062 L 8.558594 21.539062 C 6.246094 21.539062 4.214844 20.0625 3.503906 17.859375 L 1.238281 10.835938 C 1.171875 10.625 1.207031 10.398438 1.335938 10.21875 C 1.464844 10.042969 1.660156 9.941406 1.871094 9.941406 C 1.878906 9.941406 1.882812 9.941406 1.890625 9.941406 C 3.71875 9.941406 5.402344 10.929688 6.296875 12.53125 C 6.382812 12.871094 6.480469 13.210938 6.589844 13.542969 C 6.597656 13.574219 6.605469 13.601562 6.617188 13.628906 C 6.71875 13.945312 6.832031 14.261719 6.953125 14.570312 C 7.421875 16.757812 9.375 18.339844 11.613281 18.339844 L 12.386719 18.339844 C 14.671875 18.339844 16.640625 16.710938 17.070312 14.464844 L 17.171875 13.929688 C 17.171875 13.921875 17.175781 13.914062 17.175781 13.90625 C 17.230469 13.710938 17.277344 13.519531 17.324219 13.328125 C 17.328125 13.308594 17.332031 13.292969 17.335938 13.277344 C 17.375 13.09375 17.417969 12.914062 17.457031 12.730469 L 17.488281 12.585938 L 17.511719 12.480469 C 18.097656 10.960938 19.578125 9.941406 21.210938 9.941406 Z M 21.210938 9.941406"/>
</svg>
