<svg xmlns="http://www.w3.org/2000/svg" width="32" height="32" viewBox="0 0 24 24">
    <path d="M15.879 9.2H14.8v-.4h.398a.401.401 0 0 0 0-.8h-.398v-.398h.398V2.867a.467.467 0 0 0-.465-.469c-.507 0-.953-.32-1.113-.8L13.09 0h-2.18l-.531 1.598c-.16.48-.606.8-1.113.8a.467.467 0 0 0-.465.47v4.734h.398V8h-.398a.401.401 0 1 0 0 .8h.398v.4H8.121a.924.924 0 0 0-.922.921v12.957c0 .508.414.922.922.922h7.758a.924.924 0 0 0 .922-.922V10.121a.924.924 0 0 0-.922-.922zM9.602 3.171a1.965 1.965 0 0 0 1.535-1.32L11.488.8h1.024l.351 1.05c.23.7.828 1.2 1.54 1.32v3.63H14V3.6a.401.401 0 1 0-.8 0v3.2h-.798V3.6A.402.402 0 0 0 12 3.2a.398.398 0 0 0-.398.403V6.8H10.8V3.6a.401.401 0 1 0-.801 0v3.2h-.398zM10 7.602h4V8h-4zM10 8.8h4v.398h-4zm-2 4h1.2v8H8zM16 14h-2.8v.8H16v.802h-2.8v.796H16v.801h-2.8V18H16v.8h-2.8v.802H16V20.8h-4v-8h4zm-4.8-2v9.602H16v1.476a.122.122 0 0 1-.121.121H8.12A.122.122 0 0 1 8 23.08v-1.477h2V12H8v-1.879c0-.066.055-.121.121-.121h7.758c.066 0 .121.055.121.121V12zm0 0"/>
</svg>
