<svg xmlns="http://www.w3.org/2000/svg" width="32" height="32" viewBox="0 0 24 24">
    <path d="M 15.878906 9.199219 L 14.800781 9.199219 L 14.800781 8.800781 L 15.199219 8.800781 C 15.421875 8.800781 15.601562 8.621094 15.601562 8.398438 C 15.601562 8.179688 15.421875 8 15.199219 8 L 14.800781 8 L 14.800781 7.601562 L 15.199219 7.601562 L 15.199219 2.867188 C 15.199219 2.609375 14.992188 2.398438 14.734375 2.398438 C 14.226562 2.398438 13.78125 2.078125 13.621094 1.597656 L 13.089844 0 L 10.910156 0 L 10.378906 1.597656 C 10.21875 2.078125 9.773438 2.398438 9.265625 2.398438 C 9.007812 2.398438 8.800781 2.609375 8.800781 2.867188 L 8.800781 7.601562 L 9.199219 7.601562 L 9.199219 8 L 8.800781 8 C 8.578125 8 8.398438 8.179688 8.398438 8.398438 C 8.398438 8.621094 8.578125 8.800781 8.800781 8.800781 L 9.199219 8.800781 L 9.199219 9.199219 L 8.121094 9.199219 C 7.613281 9.199219 7.199219 9.613281 7.199219 10.121094 L 7.199219 23.078125 C 7.199219 23.585938 7.613281 24 8.121094 24 L 15.878906 24 C 16.386719 24 16.800781 23.585938 16.800781 23.078125 L 16.800781 10.121094 C 16.800781 9.613281 16.386719 9.199219 15.878906 9.199219 Z M 9.601562 3.171875 C 10.308594 3.050781 10.90625 2.550781 11.136719 1.851562 L 11.488281 0.800781 L 12.511719 0.800781 L 12.863281 1.851562 C 13.09375 2.550781 13.691406 3.050781 14.402344 3.171875 L 14.402344 6.800781 L 14 6.800781 L 14 3.601562 C 14 3.378906 13.820312 3.199219 13.601562 3.199219 C 13.378906 3.199219 13.199219 3.378906 13.199219 3.601562 L 13.199219 6.800781 L 12.402344 6.800781 L 12.402344 3.601562 C 12.402344 3.378906 12.222656 3.199219 12 3.199219 C 11.777344 3.199219 11.601562 3.378906 11.601562 3.601562 L 11.601562 6.800781 L 10.800781 6.800781 L 10.800781 3.601562 C 10.800781 3.378906 10.621094 3.199219 10.402344 3.199219 C 10.179688 3.199219 10 3.378906 10 3.601562 L 10 6.800781 L 9.601562 6.800781 Z M 10 7.601562 L 14 7.601562 L 14 8 L 10 8 Z M 10 8.800781 L 14 8.800781 L 14 9.199219 L 10 9.199219 Z M 8 12.800781 L 9.199219 12.800781 L 9.199219 20.800781 L 8 20.800781 Z M 16 14 L 13.199219 14 L 13.199219 14.800781 L 16 14.800781 L 16 15.601562 L 13.199219 15.601562 L 13.199219 16.398438 L 16 16.398438 L 16 17.199219 L 13.199219 17.199219 L 13.199219 18 L 16 18 L 16 18.800781 L 13.199219 18.800781 L 13.199219 19.601562 L 16 19.601562 L 16 20.800781 L 12 20.800781 L 12 12.800781 L 16 12.800781 Z M 11.199219 12 L 11.199219 21.601562 L 16 21.601562 L 16 23.078125 C 16 23.144531 15.945312 23.199219 15.878906 23.199219 L 8.121094 23.199219 C 8.054688 23.199219 8 23.144531 8 23.078125 L 8 21.601562 L 10 21.601562 L 10 12 L 8 12 L 8 10.121094 C 8 10.054688 8.054688 10 8.121094 10 L 15.878906 10 C 15.945312 10 16 10.054688 16 10.121094 L 16 12 Z M 11.199219 12"/>
</svg>
