<svg xmlns="http://www.w3.org/2000/svg" width="32" height="32" viewBox="0 0 24 24">
    <path d="M9.2 6.398a.401.401 0 1 1-.803.003.401.401 0 0 1 .802-.003zm0 0M9.602 18.8a.401.401 0 1 1-.802-.004.401.401 0 0 1 .802.005zm0 0M11.602 17.2a.401.401 0 1 1 0 0zm0 0M9.2 15.2a.401.401 0 1 1-.803.002.401.401 0 0 1 .802-.003zm0 0M12 14.8a.4.4 0 1 1-.8-.003.4.4 0 0 1 .8.004zm0 0M9.602 12c0 .223-.18.398-.403.398a.398.398 0 1 1 0-.796c.223 0 .403.175.403.398zm0 0M11.2 8.8a.4.4 0 1 1-.801-.003.4.4 0 0 1 .8.004zm0 0M8.8 8.8A.401.401 0 1 1 8 8.797.401.401 0 0 1 8.8 8.8zm0 0M11.602 4.398a.401.401 0 1 1 0 0zm0 0M6 9.602a.4.4 0 1 1-.8-.004.4.4 0 0 1 .8.004zm0 0M6 10.8a.4.4 0 1 1-.8-.003.4.4 0 0 1 .8.004zm0 0M6 12c0 .223-.18.398-.398.398a.398.398 0 1 1 0-.796c.218 0 .398.175.398.398zm0 0M6 13.2a.401.401 0 1 1-.802.002.401.401 0 0 1 .802-.003zm0 0M6 14.398a.401.401 0 1 1-.802.003.401.401 0 0 1 .802-.003zm0 0"/>
    <path d="M23.602 12.8h-1.633l-.043.352c-.598 4.817-4.867 8.45-9.926 8.45-1.605 0-2.746-.364-3.484-1.11-1.13-1.133-1.313-3.152-1.329-5.558.028-.57.024-1.235.016-1.977 0-.309-.004-.629-.004-.957 0-.344.004-.684.008-1.008.004-.746.008-1.414-.02-1.984.02-2.383.211-4.375 1.329-5.5.738-.746 1.879-1.11 3.484-1.11 5.059 0 9.328 3.633 9.926 8.45l.043.351h1.633a.4.4 0 0 0 0-.8h-.93C21.863 5.358 17.34 1.601 12 1.601c-3.918 0-7.512 1.503-9.7 4.035a.774.774 0 0 0-.234-.035C.648 5.602 0 8.918 0 12s.648 6.398 2.066 6.398c.082 0 .16-.011.235-.035 2.187 2.532 5.781 4.035 9.699 4.035 5.34 0 9.863-3.757 10.672-8.796h.93a.401.401 0 0 0 0-.801zM.8 12c0-3.61.828-5.586 1.289-5.586l.004.008c.351.375.332 2.254.316 4.074-.004.48-.012.984-.012 1.504s.008 1.023.012 1.504c.004.516.008 1.031.004 1.52-.008 1.253-.074 2.308-.348 2.578-.43 0-1.265-1.977-1.265-5.602zm2.082 5.82c.129-.261.21-.617.258-1.078 0-.004.004-.008.004-.012.046-.457.066-1.023.07-1.703v-.004c.004-.453 0-.953-.004-1.515-.004-.48-.012-.988-.012-1.508s.008-1.027.012-1.508c.004-.562.008-1.062.004-1.52a18.574 18.574 0 0 0-.07-1.706c0-.004-.004-.004-.004-.008-.047-.461-.13-.817-.258-1.082C4.125 4.73 5.87 3.645 7.879 3.016c-.895.953-1.262 2.308-1.402 3.914A.957.957 0 0 0 6 6.8c-1.367 0-2.398 2.235-2.398 5.2 0 2.965 1.03 5.2 2.398 5.2a.922.922 0 0 0 .477-.134c.14 1.61.507 2.965 1.402 3.914-2.008-.625-3.754-1.71-4.996-3.16zm3.512-7.14c0 .433.003.875.003 1.32 0 .445-.003.887-.003 1.32-.008.54-.008 1.063-.008 1.575-.032.718-.11 1.28-.297 1.468-.027.028-.05.035-.09.035-.754 0-1.602-1.878-1.602-4.398 0-2.52.848-4.398 1.602-4.398.043 0 .066.007.094.035.183.183.261.715.293 1.398-.004.535 0 1.082.008 1.645zm0 0"/>
    <path d="M23.602 11.602h-2.235l-6.566-6.567V3.602a.401.401 0 0 0-.8 0L13.999 4.8h-1.2a.401.401 0 1 0 0 .8h1.434l6 6h-2.07L15.281 8.72c-.023-.028-.054-.04-.082-.055V7.2a.4.4 0 0 0-.8 0v1.2h-1.2a.401.401 0 0 0 0 .8h1.461c.02.028.031.059.059.082l2.316 2.32h-4.07l-1.082-1.085a.4.4 0 0 0-.567.566l.918.918-.918.918a.4.4 0 0 0 .567.566l1.082-1.086h4.07l-2.402 2.403h-1.434a.4.4 0 0 0 0 .8h1.2v1.2a.401.401 0 0 0 .8 0v-1.434l2.965-2.969h2.07l-6 6h-1.433a.401.401 0 0 0 0 .8L14 19.2v1.2a.401.401 0 1 0 .8 0v-1.434l6.567-6.567h2.235a.398.398 0 1 0 0-.796zm0 0"/>
</svg>
