<svg xmlns="http://www.w3.org/2000/svg" width="32" height="32" viewBox="0 0 24 24">
    <path d="M 24 12 C 24 6.203125 19.871094 1.355469 14.398438 0.242188 L 14.398438 0.238281 L 14.070312 0.179688 C 14.0625 0.179688 14.058594 0.179688 14.050781 0.179688 C 13.722656 0.121094 13.394531 0.078125 13.058594 0.0507812 C 13.035156 0.046875 13.011719 0.046875 12.988281 0.0429688 C 12.660156 0.015625 12.332031 0 12 0 C 11.667969 0 11.339844 0.015625 11.011719 0.0429688 C 10.988281 0.046875 10.964844 0.046875 10.941406 0.0507812 C 10.605469 0.078125 10.273438 0.121094 9.949219 0.179688 C 9.941406 0.179688 9.9375 0.179688 9.929688 0.179688 L 9.601562 0.238281 L 9.601562 0.242188 C 4.128906 1.355469 0 6.203125 0 12 C 0 17.800781 4.140625 22.65625 9.621094 23.761719 L 9.621094 23.765625 L 9.953125 23.824219 C 9.957031 23.824219 9.960938 23.824219 9.96875 23.824219 C 10.289062 23.878906 10.613281 23.921875 10.945312 23.953125 C 10.976562 23.953125 11.003906 23.957031 11.035156 23.957031 C 11.355469 23.984375 11.675781 24 12 24 C 12.183594 24 12.367188 23.996094 12.550781 23.984375 C 12.660156 23.980469 12.765625 23.972656 12.871094 23.964844 C 12.941406 23.960938 13.007812 23.957031 13.078125 23.949219 C 13.214844 23.9375 13.351562 23.921875 13.488281 23.90625 C 13.523438 23.898438 13.558594 23.894531 13.59375 23.890625 C 13.742188 23.871094 13.890625 23.847656 14.035156 23.824219 C 14.046875 23.820312 14.058594 23.820312 14.070312 23.820312 L 14.398438 23.761719 L 14.398438 23.757812 C 19.871094 22.644531 24 17.796875 24 12 Z M 12.867188 0.835938 C 13.109375 0.855469 13.355469 0.882812 13.601562 0.917969 L 13.601562 2 C 13.601562 3.484375 14.230469 4.980469 15.289062 5.996094 C 15.777344 6.46875 16.035156 7.136719 15.996094 7.828125 C 15.933594 8.933594 15.082031 9.863281 14.015625 9.984375 C 13.597656 10.035156 13.175781 9.960938 12.800781 9.773438 C 12.550781 9.652344 12.273438 9.589844 12 9.589844 C 11.726562 9.589844 11.453125 9.652344 11.203125 9.773438 C 10.824219 9.960938 10.40625 10.035156 9.984375 9.984375 C 8.917969 9.863281 8.066406 8.933594 8.003906 7.828125 C 7.964844 7.136719 8.222656 6.46875 8.710938 5.996094 C 9.800781 4.949219 10.398438 3.566406 10.398438 2.109375 L 10.398438 0.917969 C 10.644531 0.882812 10.890625 0.855469 11.132812 0.835938 C 11.175781 0.832031 11.21875 0.828125 11.257812 0.828125 C 11.753906 0.792969 12.246094 0.792969 12.742188 0.828125 C 12.78125 0.828125 12.824219 0.832031 12.867188 0.835938 Z M 11.140625 23.164062 C 10.902344 23.144531 10.660156 23.121094 10.421875 23.085938 L 10.421875 21.492188 C 10.421875 20.042969 9.8125 18.664062 8.710938 17.601562 C 8.222656 17.128906 7.964844 16.464844 8.003906 15.769531 C 8.066406 14.664062 8.917969 13.738281 9.984375 13.613281 C 10.402344 13.566406 10.824219 13.640625 11.199219 13.824219 C 11.703125 14.074219 12.296875 14.074219 12.800781 13.824219 C 13.175781 13.636719 13.597656 13.566406 14.015625 13.613281 C 15.082031 13.738281 15.933594 14.664062 15.996094 15.769531 C 16.035156 16.464844 15.777344 17.128906 15.289062 17.601562 C 14.199219 18.652344 13.601562 20.03125 13.601562 21.492188 L 13.601562 23.082031 C 13.355469 23.117188 13.113281 23.144531 12.871094 23.164062 C 12.828125 23.164062 12.785156 23.171875 12.742188 23.171875 C 12.5 23.1875 12.257812 23.199219 12.019531 23.199219 C 12.015625 23.199219 12.011719 23.199219 12.007812 23.199219 C 11.761719 23.199219 11.515625 23.191406 11.273438 23.175781 C 11.226562 23.171875 11.183594 23.167969 11.140625 23.164062 Z M 14.398438 22.9375 L 14.398438 21.492188 C 14.398438 20.25 14.914062 19.074219 15.84375 18.179688 C 16.5 17.546875 16.847656 16.652344 16.792969 15.726562 C 16.707031 14.234375 15.554688 12.988281 14.109375 12.820312 C 13.535156 12.753906 12.957031 12.851562 12.445312 13.109375 C 12.167969 13.246094 11.835938 13.246094 11.554688 13.109375 C 11.042969 12.855469 10.464844 12.753906 9.890625 12.820312 C 8.445312 12.988281 7.289062 14.234375 7.207031 15.726562 C 7.152344 16.652344 7.5 17.546875 8.15625 18.179688 C 9.097656 19.085938 9.621094 20.265625 9.621094 21.492188 L 9.621094 22.941406 C 4.585938 21.847656 0.800781 17.359375 0.800781 12 C 0.800781 6.648438 4.574219 2.164062 9.601562 1.0625 L 9.601562 2.109375 C 9.601562 3.347656 9.085938 4.523438 8.15625 5.421875 C 7.5 6.054688 7.152344 6.949219 7.207031 7.875 C 7.292969 9.363281 8.445312 10.613281 9.890625 10.78125 C 10.464844 10.84375 11.042969 10.746094 11.554688 10.492188 C 11.832031 10.351562 12.164062 10.355469 12.445312 10.492188 C 12.855469 10.695312 13.304688 10.800781 13.761719 10.800781 C 13.875 10.800781 13.992188 10.792969 14.109375 10.78125 C 15.554688 10.613281 16.707031 9.363281 16.792969 7.875 C 16.847656 6.949219 16.5 6.054688 15.84375 5.421875 C 14.941406 4.550781 14.398438 3.273438 14.398438 2 L 14.398438 1.0625 C 19.425781 2.164062 23.199219 6.648438 23.199219 12 C 23.199219 17.351562 19.425781 21.835938 14.398438 22.9375 Z M 14.398438 22.9375"/>
</svg>
