<svg xmlns="http://www.w3.org/2000/svg" width="32" height="32" viewBox="0 0 24 24">
    <path d="M24 12C24 6.203 19.871 1.355 14.398.242V.238L14.07.18h-.02a10.435 10.435 0 0 0-.991-.13c-.024-.003-.047-.003-.07-.007A11.872 11.872 0 0 0 12 0c-.332 0-.66.016-.988.043-.024.004-.047.004-.07.008-.337.027-.669.07-.993.129h-.02l-.327.058v.004C4.129 1.355 0 6.203 0 12c0 5.8 4.14 10.656 9.621 11.762v.004l.332.058h.016c.32.055.644.098.976.13.032 0 .059.003.09.003.32.027.64.043.965.043.184 0 .367-.004.55-.016.11-.004.216-.011.321-.02a3.69 3.69 0 0 0 .207-.015c.137-.012.274-.027.41-.043a14.946 14.946 0 0 0 .547-.082c.012-.004.024-.004.035-.004l.328-.058v-.004C19.871 22.645 24 17.797 24 12zM12.867.836c.242.02.488.047.735.082V2c0 1.484.628 2.98 1.687 3.996a2.36 2.36 0 0 1 .707 1.832c-.062 1.106-.914 2.035-1.98 2.156-.418.051-.84-.023-1.215-.21a1.831 1.831 0 0 0-1.598 0 2.152 2.152 0 0 1-1.219.21c-1.066-.12-1.918-1.05-1.98-2.156a2.36 2.36 0 0 1 .707-1.832c1.09-1.047 1.687-2.43 1.687-3.887V.918a12.06 12.06 0 0 1 .86-.09 10.459 10.459 0 0 1 1.61.008zm-1.726 22.328a11.22 11.22 0 0 1-.72-.078v-1.594c0-1.449-.608-2.828-1.71-3.89a2.354 2.354 0 0 1-.707-1.832c.062-1.106.914-2.032 1.98-2.157.418-.047.84.028 1.215.211.504.25 1.098.25 1.602 0a2.172 2.172 0 0 1 1.215-.21c1.066.124 1.918 1.05 1.98 2.156.04.695-.219 1.359-.707 1.832-1.09 1.05-1.687 2.43-1.687 3.89v1.59c-.247.035-.489.063-.73.082-.044 0-.087.008-.13.008-.242.015-.484.027-.722.027h-.012a11.434 11.434 0 0 1-.867-.035zm3.257-.227v-1.445c0-1.242.516-2.418 1.446-3.312a3.144 3.144 0 0 0 .949-2.453c-.086-1.493-1.238-2.739-2.684-2.907a2.942 2.942 0 0 0-1.664.29c-.277.136-.61.136-.89 0a2.975 2.975 0 0 0-1.664-.29c-1.446.168-2.602 1.414-2.684 2.907-.055.925.293 1.82.95 2.453.94.906 1.464 2.086 1.464 3.312v1.45C4.586 21.847.801 17.358.801 12c0-5.352 3.773-9.836 8.8-10.938V2.11c0 1.239-.515 2.414-1.445 3.313a3.144 3.144 0 0 0-.949 2.453c.086 1.488 1.238 2.738 2.684 2.906a3.01 3.01 0 0 0 1.664-.289c.277-.14.61-.137.89 0a2.962 2.962 0 0 0 1.664.29c1.446-.169 2.598-1.419 2.684-2.907a3.144 3.144 0 0 0-.95-2.453A4.841 4.841 0 0 1 14.399 2v-.938C19.426 2.165 23.2 6.649 23.2 12s-3.773 9.836-8.8 10.938zm0 0"/>
</svg>
