<svg xmlns="http://www.w3.org/2000/svg" width="32" height="32" viewBox="0 0 24 24">
    <path d="M14 12h-4v2.8H7.2v4H10v2.802h4V18.8h2.8v-4H14zm2 3.602V18h-2.8v2.8h-2.4V18H8v-2.398h2.8V12.8h2.4v2.8zm0 0"/>
    <path d="M17.457 4.398C16.898 1.871 14.613 0 12 0S7.102 1.871 6.543 4.398H0V24h24V4.398zM12 .801c2.184 0 4.102 1.515 4.64 3.597H7.36C7.897 2.316 9.815.801 12 .801zm11.2 22.398H.8V10.4h2.4V12h4v-1.602h9.6V12h4v-1.602h2.4zM6.397 9.602H4V8.8h2.398zm0 .796v.801H4v-.8zM20 9.602h-2.398V8.8H20zm0 .796v.801h-2.398v-.8zm.8-.796V8h-4v1.602H7.2V8h-4v1.602H.8V5.199h22.4v4.403zm0 0"/>
</svg>
