<svg xmlns="http://www.w3.org/2000/svg" width="32" height="32" viewBox="0 0 24 24">
    <path d="M20.86 10.492l-.141-.031.097-.106a.986.986 0 0 0-.046-1.39l-.32-.3a.99.99 0 0 0-1.391.05l-.977 1.047c-.59-.84-1.371-1.606-2.441-2.258.386-.07.695-.152.964-.305h2.207c.883 0 1.606-.719 1.606-1.605 0-.883-.723-1.602-1.605-1.602H16.41c-.289-.137-.637-.207-1.11-.21a.2.2 0 0 1-.183-.141 6.76 6.76 0 0 0-.222-.551l.367-.367a1.608 1.608 0 0 0 0-2.27c-.606-.605-1.66-.605-2.266 0l-.434.434c-.804-.239-1.656-.11-2.414.367-.066.039-.16.016-.214-.055-.192-.258-.426-.547-.75-.71C8.71.25 8.008.472 7.66.706c-.316.219-.324.688-.234 1.324.031.23.105.469.18.7.046.144.113.355.14.496v.09c.004.027 0 .042.004.046l-.035.035c-.016.016-.024.028-.04.04-.015.015-.034.023-.054.035-.02.015-.039.027-.059.039l-.07.035a.553.553 0 0 1-.07.031.76.76 0 0 1-.086.031.62.62 0 0 1-.078.028l-.106.031c-.023.004-.047.012-.07.016-.043.011-.086.015-.129.023l-.055.012-.144.011c-.016 0-.027.004-.04.004a1.379 1.379 0 0 1-.179 0c-.09-.007-.18-.011-.265-.007L4.37 1.824a1.008 1.008 0 0 0-1.39 0l-.313.313a.98.98 0 0 0 0 1.386l1.934 1.938c0 .039-.004.082-.004.125-.028 1.254-.059 2.55-.477 3.648-.078.204-.148.407-.219.621-.058.18-.109.356-.16.532-.004.02-.012.035-.015.058l-.036.125c-.015.055-.035.114-.046.172l-.102.36.02-.004c-.715 3.261.093 6.18 2.43 8.687C8.628 22.613 12.07 24 16.48 24c.508 0 1.032-.02 1.567-.055 1.453-.101 2.34-1.035 2.367-2.5.02-1.062-.055-2.21-.21-3.414-.063-.48-.118-.965-.173-1.449-.148-1.332-.304-2.68-.652-3.965l.933.219c.075.016.153.023.227.023.18 0 .36-.05.516-.148a.968.968 0 0 0 .437-.61l.102-.43a.987.987 0 0 0-.735-1.179zm-4.852-5.699h1.426a1.604 1.604 0 0 0-.223.805c0 .293.086.562.223.8h-1.426a.802.802 0 0 1 0-1.605zm3.605.805a.802.802 0 1 1-1.603-.003.802.802 0 0 1 1.603.003zM3.234 2.957a.166.166 0 0 1-.039-.066.162.162 0 0 1 0-.121.166.166 0 0 1 .04-.067l.312-.312a.189.189 0 0 1 .129-.051.18.18 0 0 1 .125.05l2.152 2.153.184-.012a2.09 2.09 0 0 1 .347.004c.07.004.141.004.22 0 .046 0 .097-.004.144-.008l.101-.011c.047-.004.098-.012.153-.024.035-.004.07-.012.105-.015l.148-.036.122-.035a1.748 1.748 0 0 0 .261-.093c.04-.016.078-.036.117-.055.043-.02.086-.043.125-.067.036-.023.07-.043.102-.066a.861.861 0 0 0 .113-.086.781.781 0 0 0 .086-.074c.012-.012.028-.024.04-.035.671.547 1.238 1.336.894 2.336-.39 1.132-2.465 2.93-4.496 3.68.05-.141.097-.282.152-.426.465-1.227.5-2.657.527-3.915.004-.093.012-.175.02-.261l.016-.188zm16 13.715c.055.488.11.98.172 1.465.157 1.164.227 2.27.207 3.293-.02 1.035-.593 1.644-1.62 1.715-4.915.34-8.645-.938-11.415-3.907-2.266-2.433-2.973-5.18-2.144-8.363 2.293-.648 4.988-2.742 5.539-4.348.433-1.261-.078-2.476-1.446-3.441a4.354 4.354 0 0 0-.156-.598 3.538 3.538 0 0 1-.152-.566c-.051-.356-.047-.52-.035-.594.23-.125.546-.172.636-.125.172.086.332.293.473.477a.97.97 0 0 0 1.281.254c.63-.395 1.301-.47 1.95-.215l.246.097.793-.796a.805.805 0 0 1 1.132 0 .806.806 0 0 1 0 1.136l-.78.781.14.262c.117.223.218.457.304.703.086.254.27.461.5.575-.035.035-.062.078-.093.117-.032.039-.063.074-.09.113-.035.047-.059.102-.082.152a1.78 1.78 0 0 0-.067.118c-.023.062-.039.128-.058.191-.008.039-.024.07-.031.11-.024.1-.032.21-.032.32 0 .117.012.234.04.343.007.04.019.07.03.106.024.074.047.148.079.215.015.039.039.074.058.113.035.059.07.117.114.172.023.039.054.07.082.101.046.051.093.102.144.145.016.016.031.035.05.05a.687.687 0 0 0-.327.481.7.7 0 0 0 .344.742c1.078.621 1.855 1.356 2.425 2.176l.106.164c.012.016.02.031.031.051.336.523.61 1.094.832 1.742l.07.211h.004c.418 1.328.582 2.777.746 4.262zm1.578-5.18l-.101.426a.176.176 0 0 1-.078.113.191.191 0 0 1-.137.024l-1.398-.328s-.004 0-.004-.004a8.497 8.497 0 0 0-.57-1.262l1.12-1.2a.185.185 0 0 1 .126-.058c.03 0 .082.004.132.047l.32.3c.075.071.075.184.008.259l-1.043 1.117 1.489.347c.097.024.16.122.137.22zm0 0"/>
    <path d="M17.387 17.688l-1 .667a14.554 14.554 0 0 1-1.84-1.136h1.46a.401.401 0 0 0 0-.8l-2.405-.001c-.008 0-.016.004-.024.004-1.043-.969-1.715-2.035-2.012-3.192a5.454 5.454 0 0 1-.156-1.687c.008-.004.012-.004.016-.008.707-.492 1.527-.492 2.445 0 .324.176.656.41.98.692a.367.367 0 0 0-.046.183v1.602c0 .222.18.402.402.402.223 0 .398-.18.398-.402v-1.028c.235.266.457.551.672.856a.4.4 0 0 0 .559.098.397.397 0 0 0 .102-.555c-.282-.403-.579-.77-.891-1.106l1.004-.75a.403.403 0 0 0 .078-.562.399.399 0 0 0-.559-.078l-1.097.824a6.213 6.213 0 0 0-1.223-.879c-.957-.516-1.875-.598-2.7-.266.262-1.156.774-1.925.782-1.941a.401.401 0 0 0-.664-.453c-.063.098-1.531 2.289-.918 5.055a.39.39 0 0 0-.176.085c-1.773 1.59-1.836 4.434-.172 6.407l-.007 1.101c0 .223.18.403.398.407h.004c.223 0 .398-.18.402-.399l.004-.805H12c.223 0 .398-.18.398-.402a.398.398 0 0 0-.398-.398h-.96c-1.368-1.594-1.384-3.86-.056-5.188.414 1.133 1.153 2.18 2.22 3.13v2.058a.4.4 0 0 0 .8 0v-1.41c.594.44 1.258.859 2.004 1.25v.96a.401.401 0 0 0 .8 0v-.988l1.024-.683a.402.402 0 0 0 .113-.555.402.402 0 0 0-.558-.11zm0 0"/>
</svg>
