<svg xmlns="http://www.w3.org/2000/svg" width="32" height="32" viewBox="0 0 24 24">
    <path d="M 22.144531 4.363281 C 21.808594 3.097656 20.828125 1.886719 19.382812 0.957031 C 17.601562 -0.1875 15.082031 -0.316406 12.808594 0.625 L 12.730469 0.660156 C 12.691406 0.675781 12.652344 0.691406 12.617188 0.707031 C 12.425781 0.773438 12.28125 0.828125 12.160156 0.875 C 11.78125 1.019531 11.78125 1.019531 11.160156 0.839844 C 9.382812 0.316406 7.125 -0.207031 5.390625 0.40625 C 3.042969 1.238281 0.964844 3.992188 1.605469 8.265625 C 1.683594 8.773438 1.757812 9.28125 1.832031 9.792969 C 2.367188 13.488281 2.925781 17.304688 4.351562 20.753906 L 4.402344 20.871094 C 4.757812 21.734375 5.347656 23.179688 6.382812 23.179688 L 6.464844 23.179688 L 6.542969 23.148438 C 7.488281 22.746094 7.84375 21.835938 8.105469 21.171875 L 7.339844 20.875 C 7.078125 21.546875 6.832031 22.085938 6.3125 22.351562 C 5.847656 22.238281 5.351562 21.03125 5.160156 20.5625 L 5.109375 20.441406 C 3.71875 17.085938 3.171875 13.320312 2.640625 9.675781 C 2.566406 9.164062 2.492188 8.652344 2.417969 8.144531 C 2.003906 5.398438 2.847656 2.175781 5.664062 1.179688 C 7.175781 0.644531 9.355469 1.164062 10.882812 1.609375 C 13.515625 3.105469 13.511719 3.75 13.503906 6.421875 L 13.5 6.964844 C 13.5 7.191406 13.683594 7.375 13.910156 7.375 C 14.136719 7.375 14.320312 7.191406 14.320312 6.964844 L 14.320312 6.425781 C 14.332031 4.082031 14.328125 2.980469 12.457031 1.636719 C 12.570312 1.59375 12.707031 1.542969 12.886719 1.480469 C 12.941406 1.460938 13 1.433594 13.054688 1.410156 L 13.121094 1.382812 C 15.152344 0.542969 17.378906 0.644531 18.9375 1.648438 C 20.210938 2.464844 21.070312 3.503906 21.351562 4.574219 C 22.203125 7.796875 21.28125 11.632812 20.46875 15.015625 C 20.316406 15.636719 20.171875 16.246094 20.039062 16.835938 L 19.921875 17.371094 C 19.601562 18.824219 19.269531 20.328125 18.53125 21.625 C 18.28125 22.0625 18.027344 22.304688 17.855469 22.296875 C 17.667969 22.277344 17.148438 21.980469 16.394531 19.652344 L 15.613281 19.90625 C 16.109375 21.429688 16.753906 23.007812 17.773438 23.109375 C 18.308594 23.167969 18.800781 22.804688 19.242188 22.035156 C 20.042969 20.628906 20.386719 19.0625 20.722656 17.546875 L 20.839844 17.015625 C 20.96875 16.429688 21.117188 15.824219 21.265625 15.207031 C 22.101562 11.730469 23.050781 7.789062 22.144531 4.363281 Z M 22.144531 4.363281"/>
    <path d="M 15.816406 17.316406 C 15.742188 17.101562 15.511719 16.984375 15.296875 17.058594 L 15.015625 17.152344 L 15.015625 15.558594 L 15.554688 15.378906 C 15.769531 15.308594 15.886719 15.074219 15.816406 14.859375 C 15.742188 14.644531 15.511719 14.527344 15.296875 14.601562 L 15.015625 14.695312 L 15.015625 13.101562 L 15.554688 12.921875 C 15.769531 12.847656 15.886719 12.617188 15.8125 12.402344 C 15.742188 12.1875 15.511719 12.070312 15.296875 12.144531 L 15.015625 12.238281 L 15.015625 9.90625 L 13.546875 8.4375 L 10.75 8.4375 L 9.28125 9.90625 L 9.28125 14.019531 L 8.75 14.191406 C 8.53125 14.257812 8.414062 14.488281 8.480469 14.703125 C 8.539062 14.878906 8.699219 14.988281 8.871094 14.988281 C 8.914062 14.988281 8.957031 14.984375 8.996094 14.96875 L 9.28125 14.878906 L 9.28125 16.476562 L 8.75 16.648438 C 8.53125 16.714844 8.414062 16.945312 8.480469 17.160156 C 8.539062 17.335938 8.699219 17.449219 8.871094 17.449219 C 8.914062 17.449219 8.957031 17.441406 8.996094 17.429688 L 9.28125 17.335938 L 9.28125 18.9375 L 8.75 19.105469 C 8.53125 19.171875 8.414062 19.402344 8.480469 19.621094 C 8.539062 19.792969 8.699219 19.90625 8.871094 19.90625 C 8.914062 19.90625 8.957031 19.898438 8.996094 19.886719 L 9.28125 19.796875 L 9.28125 20.722656 L 10.101562 20.722656 L 10.101562 22.089844 L 11.535156 24 L 12.761719 24 L 14.195312 22.089844 L 14.195312 20.722656 L 15.015625 20.722656 L 15.015625 18.015625 L 15.554688 17.835938 C 15.769531 17.765625 15.886719 17.53125 15.816406 17.316406 Z M 10.101562 10.246094 L 11.089844 9.253906 L 13.210938 9.253906 L 14.199219 10.246094 L 14.199219 11.714844 L 10.101562 11.714844 Z M 14.199219 19.90625 L 13.378906 19.90625 L 13.378906 21.816406 L 12.355469 23.179688 L 11.945312 23.179688 L 10.921875 21.816406 L 10.921875 19.90625 L 10.101562 19.90625 L 10.101562 19.535156 L 11.863281 18.976562 C 12.078125 18.90625 12.199219 18.675781 12.128906 18.460938 C 12.0625 18.246094 11.832031 18.125 11.617188 18.195312 L 10.101562 18.675781 L 10.101562 17.078125 L 11.863281 16.519531 C 12.078125 16.449219 12.199219 16.21875 12.128906 16.003906 C 12.0625 15.789062 11.832031 15.667969 11.617188 15.738281 L 10.101562 16.21875 L 10.101562 14.621094 L 11.863281 14.0625 C 12.078125 13.992188 12.199219 13.761719 12.128906 13.546875 C 12.0625 13.332031 11.832031 13.210938 11.617188 13.28125 L 10.101562 13.761719 L 10.101562 12.535156 L 14.132812 12.535156 L 13.25 12.828125 C 13.035156 12.898438 12.917969 13.128906 12.988281 13.347656 C 13.046875 13.515625 13.207031 13.625 13.378906 13.625 C 13.421875 13.625 13.464844 13.617188 13.507812 13.605469 L 14.199219 13.375 L 14.199219 14.96875 L 13.25 15.285156 C 13.035156 15.355469 12.917969 15.589844 12.992188 15.804688 C 13.046875 15.976562 13.207031 16.082031 13.378906 16.082031 C 13.421875 16.082031 13.464844 16.078125 13.507812 16.0625 L 14.199219 15.832031 L 14.199219 17.425781 L 13.25 17.742188 C 13.035156 17.816406 12.917969 18.046875 12.992188 18.261719 C 13.046875 18.433594 13.207031 18.542969 13.378906 18.542969 C 13.421875 18.542969 13.464844 18.535156 13.507812 18.519531 L 14.199219 18.289062 Z M 14.199219 19.90625"/>
</svg>
