<svg xmlns="http://www.w3.org/2000/svg" width="32" height="32" viewBox="0 0 24 24">
    <path d="M 23.710938 14.601562 C 23.71875 14.578125 23.726562 14.550781 23.730469 14.527344 C 23.785156 14.265625 23.835938 14 23.875 13.734375 C 23.878906 13.703125 23.878906 13.671875 23.886719 13.640625 C 23.914062 13.414062 23.941406 13.191406 23.957031 12.960938 C 23.964844 12.898438 23.96875 12.835938 23.972656 12.773438 C 23.988281 12.519531 24 12.261719 24 12 C 24 11.804688 23.996094 11.613281 23.984375 11.421875 C 23.980469 11.34375 23.972656 11.265625 23.96875 11.183594 C 23.960938 11.074219 23.953125 10.964844 23.945312 10.855469 C 23.933594 10.753906 23.921875 10.65625 23.910156 10.558594 C 23.898438 10.472656 23.890625 10.386719 23.878906 10.296875 C 23.863281 10.1875 23.84375 10.078125 23.824219 9.96875 C 23.8125 9.898438 23.800781 9.824219 23.785156 9.753906 C 23.761719 9.636719 23.738281 9.519531 23.714844 9.402344 C 23.699219 9.339844 23.683594 9.277344 23.671875 9.21875 C 23.640625 9.09375 23.609375 8.972656 23.578125 8.855469 C 23.5625 8.796875 23.546875 8.742188 23.53125 8.6875 C 23.496094 8.5625 23.457031 8.441406 23.417969 8.320312 C 23.402344 8.265625 23.382812 8.214844 23.367188 8.164062 C 23.324219 8.039062 23.28125 7.917969 23.238281 7.796875 C 23.21875 7.742188 23.195312 7.691406 23.175781 7.640625 C 23.128906 7.519531 23.082031 7.402344 23.035156 7.285156 C 23.003906 7.21875 22.972656 7.148438 22.941406 7.078125 C 22.894531 6.980469 22.851562 6.882812 22.804688 6.789062 C 22.726562 6.621094 22.640625 6.453125 22.550781 6.289062 C 22.542969 6.273438 22.535156 6.261719 22.527344 6.246094 C 22.441406 6.09375 22.355469 5.941406 22.265625 5.789062 C 22.253906 5.777344 22.246094 5.761719 22.238281 5.746094 C 22.144531 5.597656 22.050781 5.449219 21.953125 5.304688 C 21.945312 5.292969 21.9375 5.28125 21.929688 5.269531 C 21.828125 5.121094 21.726562 4.976562 21.617188 4.835938 C 21.609375 4.824219 21.601562 4.8125 21.59375 4.804688 C 21.488281 4.660156 21.378906 4.519531 21.265625 4.382812 C 21.257812 4.371094 21.246094 4.363281 21.238281 4.351562 C 21.164062 4.261719 21.09375 4.171875 21.015625 4.085938 L 20.863281 3.910156 L 20.855469 3.910156 C 18.660156 1.507812 15.503906 0 12 0 C 8.816406 0 5.917969 1.25 3.769531 3.28125 L 3.757812 3.269531 L 3.496094 3.53125 C 1.542969 5.496094 0.351562 8.015625 0.0664062 10.730469 C 0.0664062 10.746094 0.0625 10.761719 0.0625 10.78125 C 0.0429688 10.949219 0.03125 11.117188 0.0234375 11.289062 C 0.0195312 11.320312 0.015625 11.355469 0.015625 11.390625 C 0.00390625 11.59375 0 11.796875 0 12 C 0 12.210938 0.00390625 12.417969 0.015625 12.625 C 0.0195312 12.71875 0.03125 12.8125 0.0390625 12.90625 C 0.046875 13.019531 0.0546875 13.132812 0.0664062 13.246094 C 0.078125 13.355469 0.09375 13.464844 0.105469 13.574219 C 0.121094 13.667969 0.128906 13.761719 0.144531 13.855469 C 0.160156 13.96875 0.183594 14.078125 0.203125 14.1875 C 0.21875 14.28125 0.234375 14.371094 0.253906 14.460938 C 0.277344 14.566406 0.304688 14.671875 0.328125 14.773438 C 0.351562 14.871094 0.375 14.96875 0.398438 15.066406 C 0.421875 15.160156 0.453125 15.253906 0.480469 15.347656 C 0.507812 15.453125 0.539062 15.558594 0.574219 15.664062 C 0.601562 15.75 0.632812 15.835938 0.660156 15.917969 C 0.699219 16.03125 0.738281 16.140625 0.78125 16.25 C 0.8125 16.332031 0.84375 16.410156 0.875 16.492188 C 0.921875 16.601562 0.964844 16.710938 1.011719 16.820312 C 1.03125 16.863281 1.046875 16.90625 1.070312 16.949219 L 1.183594 17.203125 L 1.1875 17.203125 C 3.128906 21.222656 7.246094 24 12 24 C 17.347656 24 21.890625 20.480469 23.433594 15.636719 L 23.4375 15.636719 L 23.515625 15.382812 C 23.519531 15.359375 23.527344 15.332031 23.53125 15.308594 C 23.597656 15.078125 23.660156 14.839844 23.710938 14.601562 Z M 23.179688 12.671875 C 23.175781 12.730469 23.167969 12.789062 23.164062 12.847656 C 23.152344 13.019531 23.136719 13.195312 23.113281 13.367188 C 23.105469 13.421875 23.101562 13.476562 23.09375 13.527344 C 23.0625 13.738281 23.03125 13.949219 22.988281 14.15625 C 22.988281 14.167969 22.988281 14.175781 22.984375 14.1875 C 22.9375 14.417969 22.882812 14.648438 22.824219 14.878906 C 22.820312 14.882812 22.820312 14.886719 22.820312 14.894531 C 21.492188 14.949219 20.171875 14.363281 19.527344 13.410156 C 18.625 12.070312 18.683594 9.808594 19.039062 8.136719 L 19.046875 8.097656 C 19.21875 7.277344 19.675781 5.125 20.566406 4.796875 C 20.582031 4.816406 20.597656 4.832031 20.613281 4.851562 C 20.78125 5.054688 20.941406 5.265625 21.097656 5.480469 C 21.136719 5.535156 21.179688 5.59375 21.21875 5.652344 C 21.371094 5.875 21.515625 6.097656 21.652344 6.328125 C 21.683594 6.378906 21.710938 6.433594 21.738281 6.484375 C 21.878906 6.730469 22.011719 6.980469 22.132812 7.234375 C 22.144531 7.261719 22.160156 7.292969 22.171875 7.324219 C 22.429688 7.886719 22.644531 8.46875 22.808594 9.066406 C 22.808594 9.078125 22.816406 9.09375 22.820312 9.105469 C 22.894531 9.398438 22.960938 9.695312 23.015625 9.992188 C 23.023438 10.027344 23.027344 10.0625 23.035156 10.097656 C 23.085938 10.386719 23.125 10.679688 23.152344 10.972656 C 23.152344 11.011719 23.15625 11.054688 23.160156 11.09375 C 23.183594 11.394531 23.199219 11.695312 23.199219 12 C 23.199219 12.222656 23.191406 12.449219 23.179688 12.671875 Z M 20.015625 4.1875 C 18.914062 4.867188 18.480469 6.902344 18.261719 7.929688 L 18.253906 7.972656 C 18.078125 8.808594 17.972656 9.789062 18.011719 10.75 C 17.800781 10.152344 17.542969 9.558594 17.148438 9.0625 C 16.585938 8.351562 15.554688 7.5625 14.613281 7.503906 C 14.351562 7.488281 14.078125 7.511719 13.765625 7.574219 L 13.558594 6.582031 L 14.515625 6.390625 C 14.730469 6.347656 14.871094 6.136719 14.828125 5.921875 C 14.785156 5.703125 14.578125 5.5625 14.355469 5.605469 L 13.390625 5.800781 L 13.140625 4.617188 L 14.125 4.390625 C 14.339844 4.339844 14.476562 4.125 14.425781 3.910156 C 14.375 3.695312 14.160156 3.558594 13.945312 3.609375 L 12.976562 3.832031 L 12.589844 2 L 10.339844 2 L 9.796875 4.566406 L 8.746094 4.808594 C 8.53125 4.859375 8.394531 5.074219 8.445312 5.289062 C 8.488281 5.476562 8.652344 5.601562 8.835938 5.601562 C 8.863281 5.601562 8.894531 5.597656 8.925781 5.589844 L 9.617188 5.429688 L 9.367188 6.605469 L 8.359375 6.808594 C 8.140625 6.851562 8 7.0625 8.042969 7.277344 C 8.082031 7.46875 8.25 7.601562 8.433594 7.601562 C 8.460938 7.601562 8.488281 7.597656 8.515625 7.59375 L 9.1875 7.457031 L 9.035156 8.183594 C 8.472656 8.152344 7.902344 8.164062 7.402344 8.324219 C 6.667969 8.554688 6.1875 9.34375 5.863281 10.195312 C 5.871094 10.042969 5.878906 9.886719 5.894531 9.726562 L 5.898438 9.691406 L 5.894531 9.65625 C 5.785156 8.136719 5.578125 6.890625 5.273438 5.851562 C 4.988281 4.890625 4.707031 4.269531 4.347656 3.832031 C 6.351562 1.953125 9.042969 0.800781 12 0.800781 C 15.140625 0.800781 17.976562 2.097656 20.015625 4.1875 Z M 12.09375 18.722656 C 11.769531 18.5625 9.460938 17.355469 9.460938 15.503906 C 9.460938 15.285156 9.28125 15.105469 9.058594 15.105469 C 8.839844 15.105469 8.660156 15.285156 8.660156 15.503906 C 8.660156 17.183594 10.015625 18.363281 10.945312 18.980469 C 10.921875 18.992188 10.898438 19 10.875 19.011719 C 9.367188 19.53125 7.398438 18.9375 6.570312 17.707031 C 5.667969 16.371094 5.726562 14.109375 6.078125 12.4375 L 6.089844 12.394531 C 6.261719 11.570312 6.726562 9.375 7.640625 9.085938 C 7.921875 8.996094 8.25 8.96875 8.59375 8.96875 C 8.683594 8.96875 8.777344 8.972656 8.867188 8.972656 L 8.753906 9.511719 C 8.648438 10.011719 8.769531 10.53125 9.085938 10.933594 C 9.402344 11.335938 9.878906 11.574219 10.390625 11.585938 C 11.070312 11.605469 11.859375 11.605469 12.542969 11.585938 C 13.054688 11.570312 13.527344 11.332031 13.84375 10.929688 C 14.160156 10.527344 14.28125 10.007812 14.175781 9.507812 L 13.929688 8.355469 C 14.171875 8.308594 14.375 8.292969 14.566406 8.304688 C 15.222656 8.34375 16.0625 8.980469 16.523438 9.558594 C 16.933594 10.078125 17.183594 10.769531 17.398438 11.4375 C 17.699219 12.382812 18.585938 15.621094 17.410156 17.570312 C 16.957031 18.320312 16.261719 18.769531 15.289062 18.945312 C 14.585938 19.066406 13.941406 19.082031 13.257812 18.980469 C 13.101562 18.960938 12.90625 18.910156 12.714844 18.859375 C 12.503906 18.804688 12.292969 18.753906 12.09375 18.722656 Z M 1.300781 15.316406 C 1.269531 15.214844 1.242188 15.109375 1.210938 15.003906 C 1.191406 14.933594 1.171875 14.859375 1.152344 14.789062 C 1.113281 14.636719 1.078125 14.484375 1.046875 14.332031 C 1.039062 14.304688 1.03125 14.277344 1.027344 14.25 C 0.992188 14.085938 0.964844 13.921875 0.9375 13.753906 C 0.9375 13.734375 0.929688 13.71875 0.929688 13.699219 C 0.902344 13.535156 0.882812 13.367188 0.863281 13.199219 C 0.863281 13.179688 0.859375 13.160156 0.859375 13.140625 C 0.839844 12.980469 0.828125 12.820312 0.820312 12.65625 C 0.820312 12.628906 0.816406 12.601562 0.8125 12.574219 C 0.804688 12.382812 0.800781 12.191406 0.800781 12 C 0.800781 11.8125 0.804688 11.625 0.8125 11.441406 C 0.816406 11.394531 0.820312 11.351562 0.824219 11.304688 C 0.832031 11.164062 0.84375 11.023438 0.855469 10.882812 C 0.859375 10.839844 0.867188 10.796875 0.871094 10.757812 C 0.886719 10.609375 0.902344 10.464844 0.925781 10.320312 C 0.929688 10.292969 0.9375 10.261719 0.941406 10.234375 C 0.964844 10.074219 0.992188 9.914062 1.027344 9.757812 C 1.027344 9.746094 1.03125 9.734375 1.03125 9.722656 C 1.453125 7.695312 2.425781 5.867188 3.78125 4.402344 C 4.046875 4.75 4.269531 5.269531 4.507812 6.078125 C 4.792969 7.054688 4.988281 8.234375 5.097656 9.679688 C 5 10.632812 5.035156 11.496094 5.199219 12.25 L 5.199219 12.328125 C 5.207031 13.164062 4.488281 14.976562 3.519531 15.671875 C 3.003906 16.042969 2.386719 16.273438 1.683594 16.359375 C 1.539062 16.015625 1.410156 15.667969 1.300781 15.316406 Z M 12.363281 4.796875 L 12.609375 5.957031 L 10.222656 6.433594 L 10.476562 5.230469 Z M 10.65625 4.367188 L 10.988281 2.800781 L 11.941406 2.800781 L 12.195312 4.011719 Z M 12.773438 6.742188 L 12.992188 7.773438 L 13.390625 9.671875 C 13.449219 9.941406 13.382812 10.21875 13.214844 10.433594 C 13.046875 10.648438 12.792969 10.777344 12.515625 10.785156 C 11.851562 10.804688 11.078125 10.804688 10.414062 10.785156 C 10.136719 10.777344 9.882812 10.652344 9.714844 10.4375 C 9.585938 10.273438 9.519531 10.078125 9.515625 9.875 C 9.515625 9.808594 9.523438 9.742188 9.539062 9.675781 L 9.816406 8.351562 L 9.839844 8.238281 L 10.042969 7.285156 Z M 12 23.199219 C 7.664062 23.199219 3.898438 20.722656 2.039062 17.109375 C 2.769531 16.984375 3.425781 16.722656 3.984375 16.324219 C 4.378906 16.039062 4.746094 15.601562 5.054688 15.105469 C 5.105469 16.230469 5.351562 17.332031 5.90625 18.15625 C 6.683594 19.304688 8.203125 20 9.695312 20 C 10.1875 20 10.675781 19.925781 11.136719 19.765625 C 11.269531 19.71875 11.378906 19.664062 11.488281 19.613281 C 11.679688 19.519531 11.761719 19.484375 11.917969 19.503906 C 12.085938 19.523438 12.300781 19.578125 12.511719 19.632812 C 12.726562 19.6875 12.945312 19.746094 13.144531 19.773438 C 13.914062 19.882812 14.640625 19.871094 15.429688 19.730469 C 16.625 19.519531 17.523438 18.929688 18.09375 17.984375 C 18.871094 16.699219 18.882812 14.992188 18.691406 13.574219 C 18.746094 13.671875 18.804688 13.765625 18.863281 13.855469 C 19.625 14.980469 21.0625 15.679688 22.570312 15.695312 C 21.039062 20.058594 16.882812 23.199219 12 23.199219 Z M 12 23.199219"/>
</svg>
