<svg xmlns="http://www.w3.org/2000/svg" width="32" height="32" viewBox="0 0 24 24">
    <path d="M18.344.84c-1.926 0-4.067 1.582-4.16 4.144-.032.797.324 1.618.703 2.489.133.308.27.625.39.937-1.113-.465-1.949-2.328-1.949-3.605a.427.427 0 0 0-.855 0c0 1.738 1.242 4.261 3 4.543a.44.44 0 0 0 .113.093c.008.04.02.079.027.121a4.702 4.702 0 0 0-3.566 2.692A4.709 4.709 0 0 0 8.39 9.547c.011-.067.027-.133.043-.2 1.785-.284 3.187-2.84 3.187-4.542a.427.427 0 0 0-.855 0c0 1.304-.942 3.03-2.02 3.554.113-.296.242-.593.367-.886.38-.871.735-1.692.703-2.489C9.723 2.422 7.582.84 5.656.84 2.54.84 0 5.05 0 10.23c0 5.176 2.54 9.391 5.656 9.391 1.149 0 3.29 0 4.137-2.422.336-.957-.09-2.09-.586-3.402-.395-1.05-.836-2.235-.875-3.399a3.847 3.847 0 0 1 3.29 3.801v8.535c0 .239.19.426.425.426a.424.424 0 0 0 .426-.426V14.2a3.845 3.845 0 0 1 3.195-3.785c-.047 1.16-.484 2.336-.879 3.383-.492 1.312-.918 2.445-.582 3.402.848 2.422 2.988 2.422 4.137 2.422 3.117 0 5.656-4.21 5.656-9.39C24 5.05 21.46.84 18.344.84zM8.988 16.918c-.597 1.707-1.972 1.848-3.332 1.848-2.648 0-4.8-3.828-4.8-8.536 0-4.707 2.152-8.539 4.8-8.539 1.54 0 3.235 1.336 3.309 3.325.023.601-.297 1.34-.633 2.117l-.105.242c-.602-1.477-1.997-2.57-3.532-2.57a.428.428 0 0 0 0 .855c1.535 0 2.934 1.512 2.985 3.195a5.735 5.735 0 0 0-.149.672h-2.41a.427.427 0 0 0 0 .856h2.352c-.012 1.64-1.125 3.387-2.778 3.387a.428.428 0 0 0 0 .855c1.426 0 2.54-.953 3.14-2.188.169.579.376 1.137.575 1.66.418 1.11.813 2.157.578 2.821zm9.356 1.848c-1.36 0-2.735-.141-3.332-1.848-.235-.664.16-1.711.578-2.82.2-.524.406-1.082.574-1.66.672 1.28 1.953 2.187 3.356 2.187a.427.427 0 0 0 0-.855c-1.563 0-2.989-1.567-2.989-3.29 0-.015-.008-.03-.011-.05.003-.024.003-.051.003-.075h2.57a.427.427 0 0 0 0-.855h-2.628a5.91 5.91 0 0 0-.207-.863c.21-1.461 1.422-2.977 2.953-2.977a.427.427 0 0 0 0-.855c-1.566 0-2.844 1.144-3.457 2.527-.027-.066-.055-.133-.086-.2-.336-.777-.656-1.515-.633-2.116.074-1.989 1.77-3.325 3.309-3.325 2.648 0 4.8 3.832 4.8 8.54 0 4.707-2.152 8.535-4.8 8.535zm0 0"/>
</svg>
