<svg xmlns="http://www.w3.org/2000/svg" width="32" height="32" viewBox="0 0 24 24">
    <path d="M 23.652344 19.972656 C 22.070312 16.847656 21.699219 14.003906 21.375 11.492188 C 21.226562 10.347656 21.082031 9.261719 20.839844 8.242188 C 20.253906 5.769531 18.925781 4.265625 16.894531 3.777344 C 15.953125 3.550781 14.96875 3.738281 14.183594 4.289062 C 13.964844 4.445312 13.773438 4.621094 13.601562 4.820312 L 13.601562 1 L 10.402344 1 L 10.402344 4.820312 C 10.230469 4.621094 10.035156 4.441406 9.820312 4.289062 C 9.035156 3.738281 8.046875 3.546875 7.109375 3.777344 C 5.078125 4.265625 3.75 5.769531 3.160156 8.242188 C 2.914062 9.277344 2.773438 10.421875 2.621094 11.636719 C 2.292969 14.28125 1.921875 17.277344 0.347656 20.382812 C -0.0507812 21.179688 -0.105469 21.785156 0.183594 22.242188 C 0.585938 22.875 1.53125 23 2.707031 23 C 3.089844 23 3.492188 22.988281 3.914062 22.972656 L 4.164062 22.964844 C 5.894531 22.910156 7.320312 22.652344 8.449219 22.191406 C 8.527344 22.179688 8.59375 22.152344 8.648438 22.105469 C 10.25 21.398438 11.222656 20.253906 11.589844 18.65625 C 11.871094 17.441406 11.652344 15.816406 11.441406 14.246094 C 11.316406 13.324219 11.203125 12.457031 11.203125 11.765625 C 11.203125 11.324219 11.558594 10.96875 12.003906 10.96875 C 12.445312 10.96875 12.800781 11.324219 12.800781 11.765625 C 12.800781 12.457031 12.683594 13.324219 12.5625 14.246094 C 12.351562 15.816406 12.132812 17.441406 12.410156 18.65625 C 13.042969 21.410156 15.472656 22.816406 19.839844 22.953125 C 21.453125 23.007812 23.179688 22.929688 23.785156 21.976562 C 24.109375 21.464844 24.066406 20.792969 23.652344 19.972656 Z M 12.800781 4.199219 L 11.199219 4.199219 L 11.199219 3.398438 L 12.800781 3.398438 Z M 12.800781 5 L 12.800781 5.800781 L 11.199219 5.800781 L 11.199219 5 Z M 11.847656 7.351562 C 11.820312 7.34375 11.792969 7.335938 11.765625 7.328125 C 11.746094 7.320312 11.722656 7.316406 11.703125 7.308594 C 11.667969 7.292969 11.636719 7.273438 11.605469 7.253906 C 11.59375 7.25 11.582031 7.246094 11.574219 7.238281 C 11.539062 7.21875 11.507812 7.191406 11.476562 7.164062 C 11.46875 7.160156 11.464844 7.15625 11.457031 7.148438 C 11.429688 7.125 11.40625 7.097656 11.382812 7.066406 C 11.375 7.058594 11.363281 7.046875 11.355469 7.039062 C 11.339844 7.015625 11.328125 6.992188 11.316406 6.972656 C 11.300781 6.949219 11.289062 6.925781 11.277344 6.902344 C 11.273438 6.894531 11.269531 6.886719 11.265625 6.878906 C 11.25 6.839844 11.234375 6.800781 11.222656 6.757812 C 11.222656 6.757812 11.222656 6.753906 11.222656 6.753906 C 11.214844 6.71875 11.210938 6.679688 11.207031 6.644531 C 11.207031 6.628906 11.203125 6.613281 11.203125 6.597656 L 12.796875 6.597656 C 12.796875 6.613281 12.792969 6.628906 12.792969 6.644531 C 12.789062 6.683594 12.785156 6.71875 12.777344 6.753906 C 12.777344 6.753906 12.777344 6.753906 12.777344 6.757812 C 12.765625 6.800781 12.75 6.84375 12.734375 6.882812 C 12.730469 6.886719 12.726562 6.894531 12.722656 6.902344 C 12.710938 6.925781 12.695312 6.949219 12.683594 6.972656 C 12.667969 6.996094 12.65625 7.015625 12.644531 7.035156 C 12.636719 7.046875 12.625 7.058594 12.617188 7.070312 C 12.59375 7.097656 12.570312 7.125 12.542969 7.148438 C 12.535156 7.15625 12.527344 7.160156 12.523438 7.164062 C 12.492188 7.191406 12.460938 7.21875 12.425781 7.238281 C 12.417969 7.246094 12.40625 7.25 12.394531 7.253906 C 12.363281 7.273438 12.332031 7.292969 12.296875 7.304688 C 12.277344 7.3125 12.253906 7.320312 12.234375 7.324219 C 12.207031 7.332031 12.179688 7.34375 12.152344 7.347656 C 12.105469 7.359375 12.050781 7.363281 12 7.363281 C 11.949219 7.363281 11.898438 7.359375 11.847656 7.351562 Z M 11.199219 1.800781 L 12.800781 1.800781 L 12.800781 2.601562 L 11.199219 2.601562 Z M 20.5625 22.167969 C 20.703125 22.105469 20.800781 21.964844 20.800781 21.800781 C 20.800781 21.578125 20.621094 21.398438 20.402344 21.398438 C 20.179688 21.398438 20 21.578125 20 21.800781 C 20 21.960938 20.097656 22.101562 20.238281 22.164062 C 20.09375 22.160156 19.964844 22.15625 19.863281 22.15625 C 19.3125 22.136719 18.796875 22.097656 18.3125 22.039062 C 18.367188 21.972656 18.402344 21.890625 18.402344 21.800781 C 18.402344 21.578125 18.222656 21.398438 18 21.398438 C 17.78125 21.398438 17.601562 21.578125 17.601562 21.800781 C 17.601562 21.847656 17.613281 21.894531 17.628906 21.9375 C 16.40625 21.726562 15.441406 21.359375 14.71875 20.828125 C 14.769531 20.765625 14.800781 20.6875 14.800781 20.601562 C 14.800781 20.378906 14.621094 20.199219 14.402344 20.199219 C 14.296875 20.199219 14.203125 20.242188 14.132812 20.308594 C 13.910156 20.070312 13.730469 19.804688 13.578125 19.519531 C 13.589844 19.480469 13.601562 19.441406 13.601562 19.398438 C 13.601562 19.238281 13.503906 19.097656 13.363281 19.035156 C 13.296875 18.855469 13.234375 18.671875 13.191406 18.476562 C 13.117188 18.148438 13.085938 17.777344 13.082031 17.375 C 13.121094 17.386719 13.160156 17.402344 13.203125 17.402344 C 13.421875 17.402344 13.601562 17.222656 13.601562 17 C 13.601562 16.78125 13.421875 16.601562 13.203125 16.601562 C 13.167969 16.601562 13.136719 16.613281 13.101562 16.621094 C 13.136719 16.097656 13.199219 15.542969 13.269531 14.988281 C 13.457031 14.953125 13.601562 14.796875 13.601562 14.601562 C 13.601562 14.441406 13.503906 14.304688 13.367188 14.238281 C 13.460938 13.546875 13.546875 12.886719 13.582031 12.292969 C 13.589844 12.261719 13.601562 12.234375 13.601562 12.199219 C 13.601562 12.175781 13.59375 12.15625 13.589844 12.136719 C 13.59375 12.011719 13.601562 11.882812 13.601562 11.765625 C 13.601562 10.886719 12.886719 10.167969 11.996094 10.167969 C 11.117188 10.167969 10.402344 10.886719 10.402344 11.765625 C 10.402344 11.882812 10.410156 12.011719 10.414062 12.136719 C 10.410156 12.15625 10.402344 12.175781 10.402344 12.199219 C 10.402344 12.234375 10.414062 12.261719 10.421875 12.292969 C 10.457031 12.886719 10.539062 13.546875 10.632812 14.238281 C 10.496094 14.304688 10.402344 14.441406 10.402344 14.601562 C 10.402344 14.796875 10.546875 14.953125 10.730469 14.988281 C 10.804688 15.542969 10.867188 16.097656 10.898438 16.621094 C 10.867188 16.613281 10.835938 16.601562 10.800781 16.601562 C 10.582031 16.601562 10.402344 16.78125 10.402344 17 C 10.402344 17.222656 10.582031 17.402344 10.800781 17.402344 C 10.84375 17.402344 10.882812 17.386719 10.917969 17.375 C 10.914062 17.777344 10.886719 18.148438 10.8125 18.476562 C 10.765625 18.671875 10.707031 18.855469 10.636719 19.035156 C 10.5 19.097656 10.402344 19.238281 10.402344 19.398438 C 10.402344 19.4375 10.414062 19.476562 10.421875 19.511719 C 10.269531 19.796875 10.085938 20.0625 9.863281 20.300781 C 9.792969 20.242188 9.703125 20.199219 9.601562 20.199219 C 9.378906 20.199219 9.203125 20.378906 9.203125 20.601562 C 9.203125 20.683594 9.230469 20.753906 9.277344 20.820312 C 8.550781 21.351562 7.585938 21.726562 6.371094 21.945312 C 6.390625 21.898438 6.402344 21.851562 6.402344 21.800781 C 6.402344 21.582031 6.222656 21.402344 6 21.402344 C 5.78125 21.402344 5.601562 21.582031 5.601562 21.800781 C 5.601562 21.894531 5.640625 21.980469 5.695312 22.046875 C 5.207031 22.109375 4.691406 22.148438 4.136719 22.167969 L 3.886719 22.175781 C 3.824219 22.175781 3.765625 22.179688 3.703125 22.179688 C 3.875 22.132812 4 21.984375 4 21.800781 C 4 21.582031 3.820312 21.402344 3.601562 21.402344 C 3.378906 21.402344 3.203125 21.582031 3.203125 21.800781 C 3.203125 21.996094 3.34375 22.148438 3.527344 22.1875 C 2.757812 22.210938 1.976562 22.21875 1.449219 22.109375 C 1.539062 22.035156 1.601562 21.929688 1.601562 21.800781 C 1.601562 21.582031 1.421875 21.402344 1.203125 21.402344 C 1.019531 21.402344 0.871094 21.527344 0.824219 21.695312 C 0.777344 21.488281 0.851562 21.164062 1.0625 20.746094 C 1.464844 19.953125 1.789062 19.167969 2.058594 18.394531 C 2.128906 18.515625 2.253906 18.601562 2.402344 18.601562 C 2.621094 18.601562 2.800781 18.421875 2.800781 18.199219 C 2.800781 17.980469 2.621094 17.800781 2.402344 17.800781 C 2.347656 17.800781 2.292969 17.8125 2.246094 17.832031 C 2.441406 17.214844 2.601562 16.605469 2.734375 16.007812 C 2.773438 15.949219 2.800781 15.878906 2.800781 15.800781 C 2.800781 15.78125 2.792969 15.765625 2.789062 15.75 C 3.03125 14.621094 3.1875 13.527344 3.320312 12.488281 C 3.394531 12.558594 3.492188 12.601562 3.601562 12.601562 C 3.820312 12.601562 4 12.421875 4 12.203125 C 4 11.980469 3.820312 11.800781 3.601562 11.800781 C 3.527344 11.800781 3.460938 11.828125 3.402344 11.863281 C 3.40625 11.820312 3.410156 11.777344 3.417969 11.738281 C 3.480469 11.207031 3.546875 10.695312 3.617188 10.199219 C 3.832031 10.1875 4 10.015625 4 9.800781 C 4 9.628906 3.890625 9.484375 3.742188 9.429688 C 3.800781 9.085938 3.863281 8.746094 3.941406 8.425781 C 4.113281 7.707031 4.351562 7.09375 4.652344 6.570312 C 4.699219 6.589844 4.75 6.601562 4.800781 6.601562 C 5.023438 6.601562 5.203125 6.421875 5.203125 6.199219 C 5.203125 6.09375 5.15625 5.996094 5.089844 5.925781 C 5.285156 5.6875 5.5 5.476562 5.734375 5.296875 C 5.804688 5.359375 5.898438 5.402344 6 5.402344 C 6.222656 5.402344 6.402344 5.222656 6.402344 5 C 6.402344 4.964844 6.390625 4.929688 6.378906 4.894531 C 6.664062 4.753906 6.964844 4.632812 7.292969 4.554688 C 7.5 4.503906 7.703125 4.480469 7.910156 4.480469 C 8.425781 4.480469 8.921875 4.636719 9.355469 4.945312 C 9.945312 5.359375 10.324219 6 10.398438 6.703125 C 10.40625 6.753906 10.417969 6.800781 10.429688 6.851562 C 10.433594 6.878906 10.4375 6.90625 10.445312 6.933594 C 10.460938 6.988281 10.476562 7.046875 10.496094 7.101562 C 10.515625 7.152344 10.535156 7.199219 10.554688 7.25 C 10.570312 7.28125 10.589844 7.3125 10.605469 7.34375 C 10.640625 7.402344 10.675781 7.460938 10.714844 7.515625 C 10.730469 7.535156 10.746094 7.550781 10.761719 7.570312 C 10.808594 7.628906 10.859375 7.6875 10.914062 7.738281 C 10.929688 7.75 10.941406 7.761719 10.957031 7.773438 C 11.015625 7.824219 11.078125 7.875 11.144531 7.917969 C 11.160156 7.925781 11.179688 7.933594 11.195312 7.945312 C 11.261719 7.984375 11.332031 8.019531 11.40625 8.050781 C 11.429688 8.058594 11.453125 8.0625 11.476562 8.070312 C 11.546875 8.097656 11.617188 8.121094 11.691406 8.132812 C 11.746094 8.144531 11.808594 8.148438 11.863281 8.152344 C 11.90625 8.15625 11.949219 8.164062 11.992188 8.164062 L 12.007812 8.164062 C 12.050781 8.164062 12.09375 8.15625 12.136719 8.152344 C 12.191406 8.148438 12.25 8.144531 12.308594 8.132812 C 12.382812 8.121094 12.453125 8.097656 12.523438 8.070312 C 12.546875 8.0625 12.570312 8.058594 12.59375 8.050781 C 12.667969 8.019531 12.734375 7.984375 12.804688 7.941406 C 12.820312 7.933594 12.835938 7.925781 12.855469 7.917969 C 12.921875 7.875 12.984375 7.824219 13.042969 7.773438 C 13.054688 7.761719 13.070312 7.75 13.085938 7.738281 C 13.140625 7.683594 13.191406 7.628906 13.238281 7.570312 C 13.253906 7.550781 13.269531 7.535156 13.285156 7.515625 C 13.324219 7.460938 13.359375 7.402344 13.394531 7.34375 C 13.410156 7.3125 13.429688 7.28125 13.445312 7.25 C 13.464844 7.199219 13.484375 7.148438 13.503906 7.097656 C 13.523438 7.042969 13.539062 6.988281 13.554688 6.929688 C 13.5625 6.902344 13.566406 6.878906 13.570312 6.847656 C 13.582031 6.800781 13.59375 6.753906 13.601562 6.703125 C 13.675781 6 14.054688 5.359375 14.644531 4.941406 C 15.246094 4.515625 15.980469 4.378906 16.707031 4.554688 C 17.035156 4.632812 17.335938 4.753906 17.621094 4.894531 C 17.609375 4.929688 17.597656 4.960938 17.597656 5 C 17.597656 5.21875 17.777344 5.398438 18 5.398438 C 18.101562 5.398438 18.195312 5.355469 18.265625 5.292969 C 18.5 5.476562 18.714844 5.683594 18.910156 5.921875 C 18.84375 5.996094 18.800781 6.09375 18.800781 6.199219 C 18.800781 6.421875 18.976562 6.597656 19.199219 6.597656 C 19.253906 6.597656 19.300781 6.585938 19.347656 6.570312 C 19.648438 7.09375 19.890625 7.703125 20.058594 8.425781 C 20.136719 8.75 20.203125 9.085938 20.261719 9.425781 C 20.109375 9.484375 20 9.628906 20 9.800781 C 20 10.015625 20.171875 10.191406 20.386719 10.195312 C 20.453125 10.652344 20.515625 11.117188 20.578125 11.597656 C 20.589844 11.6875 20.601562 11.78125 20.613281 11.871094 C 20.550781 11.828125 20.480469 11.800781 20.398438 11.800781 C 20.179688 11.800781 20 11.980469 20 12.199219 C 20 12.421875 20.179688 12.601562 20.398438 12.601562 C 20.515625 12.601562 20.621094 12.546875 20.691406 12.464844 C 20.828125 13.46875 20.992188 14.519531 21.246094 15.621094 C 21.21875 15.675781 21.199219 15.734375 21.199219 15.800781 C 21.199219 15.933594 21.265625 16.046875 21.367188 16.117188 C 21.523438 16.730469 21.707031 17.355469 21.933594 17.996094 C 21.863281 17.882812 21.742188 17.800781 21.597656 17.800781 C 21.378906 17.800781 21.199219 17.980469 21.199219 18.199219 C 21.199219 18.421875 21.378906 18.601562 21.597656 18.601562 C 21.820312 18.601562 22 18.421875 22 18.199219 C 22 18.175781 21.988281 18.15625 21.984375 18.132812 C 22.246094 18.847656 22.554688 19.582031 22.9375 20.335938 C 23.214844 20.882812 23.269531 21.292969 23.109375 21.546875 C 23.105469 21.550781 23.105469 21.550781 23.105469 21.550781 C 23.03125 21.460938 22.925781 21.402344 22.796875 21.402344 C 22.578125 21.402344 22.398438 21.578125 22.398438 21.800781 C 22.398438 21.859375 22.410156 21.914062 22.433594 21.960938 C 21.886719 22.128906 21.144531 22.164062 20.5625 22.167969 Z M 20.5625 22.167969"/>
    <path d="M17.984375 12.597656C17.992188 12.597656 17.996094 12.601562 18 12.601562 18.222656 12.601562 18.402344 12.421875 18.402344 12.199219 18.402344 11.980469 18.222656 11.800781 18 11.800781 17.855469 11.800781 17.734375 11.882812 17.664062 12 17.5 11.726562 17.320312 11.46875 17.125 11.21875 17.167969 11.15625 17.203125 11.082031 17.203125 11 17.203125 10.777344 17.023438 10.601562 16.800781 10.601562 16.738281 10.601562 16.679688 10.617188 16.625 10.644531 15.96875 9.960938 15.191406 9.421875 14.328125 9.070312 16.042969 8.550781 17.199219 7.476562 17.199219 6.199219 17.199219 5.980469 17.023438 5.800781 16.800781 5.800781 16.578125 5.800781 16.402344 5.980469 16.402344 6.199219 16.402344 7.5 14.386719 8.601562 12 8.601562 9.617188 8.601562 7.601562 7.5 7.601562 6.199219 7.601562 5.980469 7.421875 5.800781 7.199219 5.800781 6.980469 5.800781 6.800781 5.980469 6.800781 6.199219 6.800781 7.476562 7.957031 8.550781 9.671875 9.070312 8.8125 9.421875 8.035156 9.960938 7.375 10.644531 7.320312 10.617188 7.265625 10.601562 7.199219 10.601562 6.980469 10.601562 6.800781 10.777344 6.800781 11 6.800781 11.082031 6.832031 11.15625 6.875 11.21875 6.683594 11.46875 6.5 11.726562 6.339844 12 6.269531 11.882812 6.148438 11.800781 6 11.800781 5.78125 11.800781 5.601562 11.980469 5.601562 12.199219 5.601562 12.421875 5.78125 12.601562 6 12.601562 6.003906 12.601562 6.011719 12.597656 6.015625 12.597656 5.496094 13.671875 5.199219 14.898438 5.199219 16.199219 5.199219 16.421875 5.378906 16.601562 5.601562 16.601562 5.820312 16.601562 6 16.421875 6 16.199219 6 15.78125 6.039062 15.375 6.101562 14.980469 6.273438 14.933594 6.402344 14.785156 6.402344 14.601562 6.402344 14.472656 6.335938 14.363281 6.246094 14.292969 6.976562 11.46875 9.277344 9.398438 12 9.398438 14.722656 9.398438 17.027344 11.46875 17.757812 14.292969 17.664062 14.363281 17.601562 14.472656 17.601562 14.601562 17.601562 14.785156 17.730469 14.933594 17.898438 14.980469 17.960938 15.375 18 15.78125 18 16.199219 18 16.421875 18.179688 16.601562 18.402344 16.601562 18.621094 16.601562 18.800781 16.421875 18.800781 16.199219 18.800781 14.898438 18.503906 13.671875 17.984375 12.597656zM8.800781 5C8.800781 5.21875 8.621094 5.398438 8.402344 5.398438 8.179688 5.398438 8 5.21875 8 5 8 4.777344 8.179688 4.601562 8.402344 4.601562 8.621094 4.601562 8.800781 4.777344 8.800781 5zM6.402344 7.398438C6.402344 7.621094 6.222656 7.800781 6 7.800781 5.78125 7.800781 5.601562 7.621094 5.601562 7.398438 5.601562 7.179688 5.78125 7 6 7 6.222656 7 6.402344 7.179688 6.402344 7.398438zM6.402344 7.398438"/>
    <path d="M10 6.199219C10 6.421875 9.820312 6.601562 9.601562 6.601562 9.378906 6.601562 9.199219 6.421875 9.199219 6.199219 9.199219 5.980469 9.378906 5.800781 9.601562 5.800781 9.820312 5.800781 10 5.980469 10 6.199219zM14.800781 6.199219C14.800781 6.421875 14.621094 6.601562 14.402344 6.601562 14.179688 6.601562 14 6.421875 14 6.199219 14 5.980469 14.179688 5.800781 14.402344 5.800781 14.621094 5.800781 14.800781 5.980469 14.800781 6.199219zM16 5C16 5.21875 15.820312 5.398438 15.601562 5.398438 15.378906 5.398438 15.199219 5.21875 15.199219 5 15.199219 4.777344 15.378906 4.601562 15.601562 4.601562 15.820312 4.601562 16 4.777344 16 5zM18.402344 7.398438C18.402344 7.621094 18.222656 7.800781 18 7.800781 17.78125 7.800781 17.601562 7.621094 17.601562 7.398438 17.601562 7.179688 17.78125 7 18 7 18.222656 7 18.402344 7.179688 18.402344 7.398438zM5.199219 8.601562C5.199219 8.820312 5.019531 9 4.800781 9 4.578125 9 4.402344 8.820312 4.402344 8.601562 4.402344 8.378906 4.578125 8.199219 4.800781 8.199219 5.019531 8.199219 5.199219 8.378906 5.199219 8.601562zM7.601562 8.601562C7.601562 8.820312 7.421875 9 7.199219 9 6.980469 9 6.800781 8.820312 6.800781 8.601562 6.800781 8.378906 6.980469 8.199219 7.199219 8.199219 7.421875 8.199219 7.601562 8.378906 7.601562 8.601562zM17.199219 8.601562C17.199219 8.820312 17.023438 9 16.800781 9 16.578125 9 16.402344 8.820312 16.402344 8.601562 16.402344 8.378906 16.578125 8.199219 16.800781 8.199219 17.023438 8.199219 17.199219 8.378906 17.199219 8.601562zM19.601562 8.601562C19.601562 8.820312 19.421875 9 19.199219 9 18.980469 9 18.800781 8.820312 18.800781 8.601562 18.800781 8.378906 18.980469 8.199219 19.199219 8.199219 19.421875 8.199219 19.601562 8.378906 19.601562 8.601562zM5.199219 11C5.199219 11.222656 5.019531 11.398438 4.800781 11.398438 4.578125 11.398438 4.402344 11.222656 4.402344 11 4.402344 10.777344 4.578125 10.601562 4.800781 10.601562 5.019531 10.601562 5.199219 10.777344 5.199219 11zM6.402344 9.800781C6.402344 10.019531 6.222656 10.199219 6 10.199219 5.78125 10.199219 5.601562 10.019531 5.601562 9.800781 5.601562 9.578125 5.78125 9.398438 6 9.398438 6.222656 9.398438 6.402344 9.578125 6.402344 9.800781zM8.800781 12.199219C8.800781 12.421875 8.621094 12.601562 8.402344 12.601562 8.179688 12.601562 8 12.421875 8 12.199219 8 11.980469 8.179688 11.800781 8.402344 11.800781 8.621094 11.800781 8.800781 11.980469 8.800781 12.199219zM10 11C10 11.222656 9.820312 11.398438 9.601562 11.398438 9.378906 11.398438 9.199219 11.222656 9.199219 11 9.199219 10.777344 9.378906 10.601562 9.601562 10.601562 9.820312 10.601562 10 10.777344 10 11zM14.800781 11C14.800781 11.222656 14.621094 11.398438 14.402344 11.398438 14.179688 11.398438 14 11.222656 14 11 14 10.777344 14.179688 10.601562 14.402344 10.601562 14.621094 10.601562 14.800781 10.777344 14.800781 11zM18.402344 9.800781C18.402344 10.019531 18.222656 10.199219 18 10.199219 17.78125 10.199219 17.601562 10.019531 17.601562 9.800781 17.601562 9.578125 17.78125 9.398438 18 9.398438 18.222656 9.398438 18.402344 9.578125 18.402344 9.800781zM16 12.199219C16 12.421875 15.820312 12.601562 15.601562 12.601562 15.378906 12.601562 15.199219 12.421875 15.199219 12.199219 15.199219 11.980469 15.378906 11.800781 15.601562 11.800781 15.820312 11.800781 16 11.980469 16 12.199219zM19.601562 11C19.601562 11.222656 19.421875 11.398438 19.199219 11.398438 18.980469 11.398438 18.800781 11.222656 18.800781 11 18.800781 10.777344 18.980469 10.601562 19.199219 10.601562 19.421875 10.601562 19.601562 10.777344 19.601562 11zM5.199219 13.398438C5.199219 13.621094 5.019531 13.800781 4.800781 13.800781 4.578125 13.800781 4.402344 13.621094 4.402344 13.398438 4.402344 13.179688 4.578125 13 4.800781 13 5.019531 13 5.199219 13.179688 5.199219 13.398438zM7.601562 13.398438C7.601562 13.621094 7.421875 13.800781 7.199219 13.800781 6.980469 13.800781 6.800781 13.621094 6.800781 13.398438 6.800781 13.179688 6.980469 13 7.199219 13 7.421875 13 7.601562 13.179688 7.601562 13.398438zM10 13.398438C10 13.621094 9.820312 13.800781 9.601562 13.800781 9.378906 13.800781 9.199219 13.621094 9.199219 13.398438 9.199219 13.179688 9.378906 13 9.601562 13 9.820312 13 10 13.179688 10 13.398438zM14.800781 13.398438C14.800781 13.621094 14.621094 13.800781 14.402344 13.800781 14.179688 13.800781 14 13.621094 14 13.398438 14 13.179688 14.179688 13 14.402344 13 14.621094 13 14.800781 13.179688 14.800781 13.398438zM17.199219 13.398438C17.199219 13.621094 17.023438 13.800781 16.800781 13.800781 16.578125 13.800781 16.402344 13.621094 16.402344 13.398438 16.402344 13.179688 16.578125 13 16.800781 13 17.023438 13 17.199219 13.179688 17.199219 13.398438zM19.601562 13.398438C19.601562 13.621094 19.421875 13.800781 19.199219 13.800781 18.980469 13.800781 18.800781 13.621094 18.800781 13.398438 18.800781 13.179688 18.980469 13 19.199219 13 19.421875 13 19.601562 13.179688 19.601562 13.398438zM4 14.601562C4 14.820312 3.820312 15 3.601562 15 3.378906 15 3.199219 14.820312 3.199219 14.601562 3.199219 14.378906 3.378906 14.199219 3.601562 14.199219 3.820312 14.199219 4 14.378906 4 14.601562zM4 17C4 17.222656 3.820312 17.398438 3.601562 17.398438 3.378906 17.398438 3.199219 17.222656 3.199219 17 3.199219 16.777344 3.378906 16.601562 3.601562 16.601562 3.820312 16.601562 4 16.777344 4 17zM5.199219 15.800781C5.199219 16.019531 5.019531 16.199219 4.800781 16.199219 4.578125 16.199219 4.402344 16.019531 4.402344 15.800781 4.402344 15.578125 4.578125 15.398438 4.800781 15.398438 5.019531 15.398438 5.199219 15.578125 5.199219 15.800781zM8.800781 14.601562C8.800781 14.820312 8.621094 15 8.402344 15 8.179688 15 8 14.820312 8 14.601562 8 14.378906 8.179688 14.199219 8.402344 14.199219 8.621094 14.199219 8.800781 14.378906 8.800781 14.601562zM6.402344 17C6.402344 17.222656 6.222656 17.398438 6 17.398438 5.78125 17.398438 5.601562 17.222656 5.601562 17 5.601562 16.777344 5.78125 16.601562 6 16.601562 6.222656 16.601562 6.402344 16.777344 6.402344 17zM8.800781 17C8.800781 17.222656 8.621094 17.398438 8.402344 17.398438 8.179688 17.398438 8 17.222656 8 17 8 16.777344 8.179688 16.601562 8.402344 16.601562 8.621094 16.601562 8.800781 16.777344 8.800781 17zM7.601562 15.800781C7.601562 16.019531 7.421875 16.199219 7.199219 16.199219 6.980469 16.199219 6.800781 16.019531 6.800781 15.800781 6.800781 15.578125 6.980469 15.398438 7.199219 15.398438 7.421875 15.398438 7.601562 15.578125 7.601562 15.800781zM10 15.800781C10 16.019531 9.820312 16.199219 9.601562 16.199219 9.378906 16.199219 9.199219 16.019531 9.199219 15.800781 9.199219 15.578125 9.378906 15.398438 9.601562 15.398438 9.820312 15.398438 10 15.578125 10 15.800781zM14.800781 15.800781C14.800781 16.019531 14.621094 16.199219 14.402344 16.199219 14.179688 16.199219 14 16.019531 14 15.800781 14 15.578125 14.179688 15.398438 14.402344 15.398438 14.621094 15.398438 14.800781 15.578125 14.800781 15.800781zM16 14.601562C16 14.820312 15.820312 15 15.601562 15 15.378906 15 15.199219 14.820312 15.199219 14.601562 15.199219 14.378906 15.378906 14.199219 15.601562 14.199219 15.820312 14.199219 16 14.378906 16 14.601562zM16 17C16 17.222656 15.820312 17.398438 15.601562 17.398438 15.378906 17.398438 15.199219 17.222656 15.199219 17 15.199219 16.777344 15.378906 16.601562 15.601562 16.601562 15.820312 16.601562 16 16.777344 16 17zM18.402344 17C18.402344 17.222656 18.222656 17.398438 18 17.398438 17.78125 17.398438 17.601562 17.222656 17.601562 17 17.601562 16.777344 17.78125 16.601562 18 16.601562 18.222656 16.601562 18.402344 16.777344 18.402344 17zM17.199219 15.800781C17.199219 16.019531 17.023438 16.199219 16.800781 16.199219 16.578125 16.199219 16.402344 16.019531 16.402344 15.800781 16.402344 15.578125 16.578125 15.398438 16.800781 15.398438 17.023438 15.398438 17.199219 15.578125 17.199219 15.800781zM19.601562 15.800781C19.601562 16.019531 19.421875 16.199219 19.199219 16.199219 18.980469 16.199219 18.800781 16.019531 18.800781 15.800781 18.800781 15.578125 18.980469 15.398438 19.199219 15.398438 19.421875 15.398438 19.601562 15.578125 19.601562 15.800781zM20.800781 14.601562C20.800781 14.820312 20.621094 15 20.402344 15 20.179688 15 20 14.820312 20 14.601562 20 14.378906 20.179688 14.199219 20.402344 14.199219 20.621094 14.199219 20.800781 14.378906 20.800781 14.601562zM20.800781 17C20.800781 17.222656 20.621094 17.398438 20.402344 17.398438 20.179688 17.398438 20 17.222656 20 17 20 16.777344 20.179688 16.601562 20.402344 16.601562 20.621094 16.601562 20.800781 16.777344 20.800781 17zM5.199219 18.199219C5.199219 18.421875 5.019531 18.601562 4.800781 18.601562 4.578125 18.601562 4.402344 18.421875 4.402344 18.199219 4.402344 17.980469 4.578125 17.800781 4.800781 17.800781 5.019531 17.800781 5.199219 17.980469 5.199219 18.199219zM7.601562 18.199219C7.601562 18.421875 7.421875 18.601562 7.199219 18.601562 6.980469 18.601562 6.800781 18.421875 6.800781 18.199219 6.800781 17.980469 6.980469 17.800781 7.199219 17.800781 7.421875 17.800781 7.601562 17.980469 7.601562 18.199219zM10 18.199219C10 18.421875 9.820312 18.601562 9.601562 18.601562 9.378906 18.601562 9.199219 18.421875 9.199219 18.199219 9.199219 17.980469 9.378906 17.800781 9.601562 17.800781 9.820312 17.800781 10 17.980469 10 18.199219zM14.800781 18.199219C14.800781 18.421875 14.621094 18.601562 14.402344 18.601562 14.179688 18.601562 14 18.421875 14 18.199219 14 17.980469 14.179688 17.800781 14.402344 17.800781 14.621094 17.800781 14.800781 17.980469 14.800781 18.199219zM17.199219 18.199219C17.199219 18.421875 17.023438 18.601562 16.800781 18.601562 16.578125 18.601562 16.402344 18.421875 16.402344 18.199219 16.402344 17.980469 16.578125 17.800781 16.800781 17.800781 17.023438 17.800781 17.199219 17.980469 17.199219 18.199219zM19.601562 18.199219C19.601562 18.421875 19.421875 18.601562 19.199219 18.601562 18.980469 18.601562 18.800781 18.421875 18.800781 18.199219 18.800781 17.980469 18.980469 17.800781 19.199219 17.800781 19.421875 17.800781 19.601562 17.980469 19.601562 18.199219zM4 19.398438C4 19.621094 3.820312 19.800781 3.601562 19.800781 3.378906 19.800781 3.199219 19.621094 3.199219 19.398438 3.199219 19.179688 3.378906 19 3.601562 19 3.820312 19 4 19.179688 4 19.398438zM2.800781 20.601562C2.800781 20.820312 2.621094 21 2.402344 21 2.179688 21 2 20.820312 2 20.601562 2 20.378906 2.179688 20.199219 2.402344 20.199219 2.621094 20.199219 2.800781 20.378906 2.800781 20.601562zM5.199219 20.601562C5.199219 20.820312 5.019531 21 4.800781 21 4.578125 21 4.402344 20.820312 4.402344 20.601562 4.402344 20.378906 4.578125 20.199219 4.800781 20.199219 5.019531 20.199219 5.199219 20.378906 5.199219 20.601562zM6.402344 19.398438C6.402344 19.621094 6.222656 19.800781 6 19.800781 5.78125 19.800781 5.601562 19.621094 5.601562 19.398438 5.601562 19.179688 5.78125 19 6 19 6.222656 19 6.402344 19.179688 6.402344 19.398438zM8.800781 19.398438C8.800781 19.621094 8.621094 19.800781 8.402344 19.800781 8.179688 19.800781 8 19.621094 8 19.398438 8 19.179688 8.179688 19 8.402344 19 8.621094 19 8.800781 19.179688 8.800781 19.398438zM7.601562 20.601562C7.601562 20.820312 7.421875 21 7.199219 21 6.980469 21 6.800781 20.820312 6.800781 20.601562 6.800781 20.378906 6.980469 20.199219 7.199219 20.199219 7.421875 20.199219 7.601562 20.378906 7.601562 20.601562zM16 19.398438C16 19.621094 15.820312 19.800781 15.601562 19.800781 15.378906 19.800781 15.199219 19.621094 15.199219 19.398438 15.199219 19.179688 15.378906 19 15.601562 19 15.820312 19 16 19.179688 16 19.398438zM18.402344 19.398438C18.402344 19.621094 18.222656 19.800781 18 19.800781 17.78125 19.800781 17.601562 19.621094 17.601562 19.398438 17.601562 19.179688 17.78125 19 18 19 18.222656 19 18.402344 19.179688 18.402344 19.398438zM17.199219 20.601562C17.199219 20.820312 17.023438 21 16.800781 21 16.578125 21 16.402344 20.820312 16.402344 20.601562 16.402344 20.378906 16.578125 20.199219 16.800781 20.199219 17.023438 20.199219 17.199219 20.378906 17.199219 20.601562zM19.601562 20.601562C19.601562 20.820312 19.421875 21 19.199219 21 18.980469 21 18.800781 20.820312 18.800781 20.601562 18.800781 20.378906 18.980469 20.199219 19.199219 20.199219 19.421875 20.199219 19.601562 20.378906 19.601562 20.601562zM20.800781 19.398438C20.800781 19.621094 20.621094 19.800781 20.402344 19.800781 20.179688 19.800781 20 19.621094 20 19.398438 20 19.179688 20.179688 19 20.402344 19 20.621094 19 20.800781 19.179688 20.800781 19.398438zM22 20.601562C22 20.820312 21.820312 21 21.601562 21 21.378906 21 21.199219 20.820312 21.199219 20.601562 21.199219 20.378906 21.378906 20.199219 21.601562 20.199219 21.820312 20.199219 22 20.378906 22 20.601562zM22 20.601562"/>
</svg>
