<svg xmlns="http://www.w3.org/2000/svg" width="32" height="32" viewBox="0 0 24 24">
    <path d="M13.2 8.398h-2.403L10.805 10H9.199v2.398l1.602.008V14h2.398v-1.59h1.602V10h-1.602zm.8 2.403v.808h-1.602v1.59h-.796v-1.59L10 11.602V10.8h1.61l-.008-1.602h.796v1.602zm0 0"/>
    <path d="M18.793.465a.406.406 0 0 0-.086-.324.404.404 0 0 0-.309-.141H5.602a.412.412 0 0 0-.305.137.417.417 0 0 0-.094.32l.352 2.402 2.457 16.77v3.973A.4.4 0 0 0 8.41 24h6.79c.222 0 .402-.18.402-.398v-3.97l2.793-16.765zM6.801.8v.8h.8v-.8h.797v.8H9.2v-.8H10v.8h.8v-.8h.802v.8h.796v-.8h.801v.8H14v-.8h.8v.8h.802v-.8h.796v.8h.801v-.8h.727l-.266 1.597H6.297L6.063.801zm4 20.8h2V22h-2zm2.398-.8H8.813V20H14.8v.8zm1.66-1.602H8.758l-2.344-16h11.113zm-6.046 4v-1.597H10v.796c0 .223.18.403.398.403H13.2c.223 0 .403-.18.403-.403v-.796H14.8v1.597zm0 0"/>
</svg>
