<svg xmlns="http://www.w3.org/2000/svg" width="32" height="32" viewBox="0 0 24 24">
    <path d="M12 0C5.383 0 0 5.383 0 12c0 2.059.52 3.996 1.438 5.688l-.004.003.113.204c.05.082.101.164.148.246.024.039.043.074.067.109.09.148.183.293.277.438a11.99 11.99 0 0 0 3.738 3.57c.004.004.012.004.016.008a10.47 10.47 0 0 0 .547.312c.129.07.258.137.387.2.054.027.109.05.164.077.105.051.21.098.32.145.078.035.152.066.226.098.024.007.047.02.07.027l-.01.016.562.191v.004l.254.086.003-.004c.079.027.157.05.235.074.02.004.035.012.054.02l.094.027.004-.004c1.05.3 2.152.465 3.297.465 6.617 0 12-5.383 12-12S18.617 0 12 0zm4.8 6.8a.397.397 0 0 0 .395-.343c.16-.066.625-.062.883-.062h.14c.02 0 .036-.008.055-.012.383.742.45 1.601.172 2.39a2.992 2.992 0 0 1-1.746 1.801 4.581 4.581 0 0 0-.637.313.383.383 0 0 0-.246-.094c-.773 0-1.199-.3-1.199-.398a.401.401 0 1 0-.8 0c0 .55.566.988 1.386 1.14-.023.02-.047.035-.066.055l-5.012 5.015-1.754 1.754.113.254a3.772 3.772 0 0 1 .336 1.907l-.015.105c-.008.07-.016.145-.028.219-.007.039-.02.078-.027.117-.012.07-.027.137-.047.2-.008.042-.023.081-.035.12-.02.067-.04.13-.063.192-.011.039-.027.078-.043.117-.027.062-.05.125-.082.187-.015.04-.035.075-.05.11-.032.062-.067.125-.102.187-.02.035-.039.067-.055.098-.043.066-.085.133-.132.195-.016.024-.032.051-.051.074-.012.016-.024.028-.031.04-.016-.004-.032-.012-.047-.016a12.19 12.19 0 0 1-.848-.367 8.946 8.946 0 0 1-.691-.364c-.07-.039-.141-.078-.211-.12-.203-.122-.399-.25-.594-.384-.086-.058-.168-.117-.25-.175a16.662 16.662 0 0 1-.52-.399c-.085-.07-.168-.144-.25-.218a15.81 15.81 0 0 1-.378-.344c-.094-.094-.192-.184-.282-.282a8.08 8.08 0 0 1-.394-.425 9.958 9.958 0 0 1-.196-.223 12.052 12.052 0 0 1-.437-.562l-.148-.207a10.63 10.63 0 0 1-.418-.641l-.028-.05c.211-.321.461-.618.715-.849l7.945-7.945c.278-.273.453-.64.496-1.031a2.998 2.998 0 0 1 1.899-2.469l1.023-.394c1.137-.438 2.395-.184 3.227.582-.438.011-.828.062-1.067.304a.675.675 0 0 0-.207.496c0 .223.18.403.403.403zm-6.394 10.653c.531.586.828 1.348.828 2.14a3.203 3.203 0 0 1-2.332 3.079l.036-.059c.03-.047.058-.093.085-.14l.106-.2a4.02 4.02 0 0 0 .184-.402c.007-.023.019-.047.03-.07.044-.117.079-.235.114-.352.012-.039.02-.078.027-.113.024-.086.043-.172.059-.254.012-.047.02-.09.027-.133l.035-.258.012-.12a4.53 4.53 0 0 0-.293-2.031zM12 23.2c-.656 0-1.3-.058-1.926-.168a4.003 4.003 0 0 0 1.957-3.437 3.982 3.982 0 0 0-1.058-2.707l4.73-4.73c.367-.368.8-.65 1.285-.837A3.799 3.799 0 0 0 19.2 9.04a3.8 3.8 0 0 0-.293-3.173c-.922-1.601-2.965-2.289-4.75-1.597l-1.023.394A3.789 3.789 0 0 0 10.73 7.79a.962.962 0 0 1-.265.559l-7.918 7.914c-.211.191-.414.418-.602.664A11.099 11.099 0 0 1 .801 12C.8 5.824 5.824.8 12 .8S23.2 5.825 23.2 12c0 6.176-5.024 11.2-11.2 11.2zm0 0"/>
</svg>
