<svg xmlns="http://www.w3.org/2000/svg" width="32" height="32" viewBox="0 0 24 24">
    <path d="M12.800781 16C12.800781 16.222656 12.621094 16.398438 12.398438 16.398438 12.179688 16.398438 12 16.222656 12 16 12 15.777344 12.179688 15.601562 12.398438 15.601562 12.621094 15.601562 12.800781 15.777344 12.800781 16zM15.199219 11.601562C15.199219 11.820312 15.019531 12 14.800781 12 14.578125 12 14.398438 11.820312 14.398438 11.601562 14.398438 11.378906 14.578125 11.199219 14.800781 11.199219 15.019531 11.199219 15.199219 11.378906 15.199219 11.601562zM11.601562 12.800781C11.601562 13.019531 11.421875 13.199219 11.199219 13.199219 10.980469 13.199219 10.800781 13.019531 10.800781 12.800781 10.800781 12.578125 10.980469 12.398438 11.199219 12.398438 11.421875 12.398438 11.601562 12.578125 11.601562 12.800781zM12.398438 9.601562C12.398438 9.820312 12.222656 10 12 10 11.777344 10 11.601562 9.820312 11.601562 9.601562 11.601562 9.378906 11.777344 9.199219 12 9.199219 12.222656 9.199219 12.398438 9.378906 12.398438 9.601562zM14.800781 6.398438C14.800781 6.621094 14.621094 6.800781 14.398438 6.800781 14.179688 6.800781 14 6.621094 14 6.398438 14 6.179688 14.179688 6 14.398438 6 14.621094 6 14.800781 6.179688 14.800781 6.398438zM12 4C12 4.222656 11.820312 4.398438 11.601562 4.398438 11.378906 4.398438 11.199219 4.222656 11.199219 4 11.199219 3.777344 11.378906 3.601562 11.601562 3.601562 11.820312 3.601562 12 3.777344 12 4zM9.199219 4.398438L8.398438 4.398438C8.179688 4.398438 8 4.578125 8 4.800781 8 5.019531 8.179688 5.199219 8.398438 5.199219L9.199219 5.199219C9.421875 5.199219 9.601562 5.019531 9.601562 4.800781 9.601562 4.578125 9.421875 4.398438 9.199219 4.398438zM9.199219 6L8.398438 6C8.179688 6 8 6.179688 8 6.398438 8 6.621094 8.179688 6.800781 8.398438 6.800781L9.199219 6.800781C9.421875 6.800781 9.601562 6.621094 9.601562 6.398438 9.601562 6.179688 9.421875 6 9.199219 6zM9.199219 7.601562L8.398438 7.601562C8.179688 7.601562 8 7.777344 8 8 8 8.222656 8.179688 8.398438 8.398438 8.398438L9.199219 8.398438C9.421875 8.398438 9.601562 8.222656 9.601562 8 9.601562 7.777344 9.421875 7.601562 9.199219 7.601562zM9.199219 9.199219L8.398438 9.199219C8.179688 9.199219 8 9.378906 8 9.601562 8 9.820312 8.179688 10 8.398438 10L9.199219 10C9.421875 10 9.601562 9.820312 9.601562 9.601562 9.601562 9.378906 9.421875 9.199219 9.199219 9.199219zM9.199219 10.800781L8.398438 10.800781C8.179688 10.800781 8 10.980469 8 11.199219 8 11.421875 8.179688 11.601562 8.398438 11.601562L9.199219 11.601562C9.421875 11.601562 9.601562 11.421875 9.601562 11.199219 9.601562 10.980469 9.421875 10.800781 9.199219 10.800781zM9.199219 12.398438L8.398438 12.398438C8.179688 12.398438 8 12.578125 8 12.800781 8 13.019531 8.179688 13.199219 8.398438 13.199219L9.199219 13.199219C9.421875 13.199219 9.601562 13.019531 9.601562 12.800781 9.601562 12.578125 9.421875 12.398438 9.199219 12.398438zM9.199219 14L8.398438 14C8.179688 14 8 14.179688 8 14.398438 8 14.621094 8.179688 14.800781 8.398438 14.800781L9.199219 14.800781C9.421875 14.800781 9.601562 14.621094 9.601562 14.398438 9.601562 14.179688 9.421875 14 9.199219 14zM9.199219 15.601562L8.398438 15.601562C8.179688 15.601562 8 15.777344 8 16 8 16.222656 8.179688 16.398438 8.398438 16.398438L9.199219 16.398438C9.421875 16.398438 9.601562 16.222656 9.601562 16 9.601562 15.777344 9.421875 15.601562 9.199219 15.601562zM9.199219 15.601562"/>
    <path d="M 18.058594 1.199219 L 14.398438 1.199219 L 14.398438 0 L 9.601562 0 L 9.601562 1.199219 L 5.941406 1.199219 C 5.3125 1.199219 4.800781 1.710938 4.800781 2.339844 L 4.800781 18.058594 C 4.800781 18.6875 5.3125 19.199219 5.941406 19.199219 L 10.398438 19.199219 L 10.398438 20.398438 L 11.601562 20.398438 L 11.601562 21.917969 C 11.601562 22.269531 11.453125 22.613281 11.199219 22.859375 C 10.964844 23.089844 10.671875 23.210938 10.347656 23.199219 C 9.480469 23.171875 8.800781 22.46875 8.800781 21.601562 L 8.796875 21.601562 C 8.746094 20.496094 7.941406 19.644531 6.886719 19.601562 C 6.355469 19.578125 5.851562 19.777344 5.460938 20.152344 C 5.039062 20.554688 4.800781 21.121094 4.800781 21.707031 L 4.800781 23.601562 C 4.800781 23.820312 4.980469 24 5.199219 24 C 5.421875 24 5.601562 23.820312 5.601562 23.601562 L 5.601562 21.707031 C 5.601562 21.339844 5.75 20.984375 6.015625 20.730469 C 6.246094 20.503906 6.550781 20.390625 6.855469 20.402344 C 7.519531 20.425781 8 20.980469 8 21.714844 L 8.003906 21.714844 C 8.058594 22.964844 9.058594 23.957031 10.324219 24 C 10.855469 24.015625 11.363281 23.816406 11.757812 23.433594 C 12.164062 23.039062 12.398438 22.484375 12.398438 21.917969 L 12.398438 20.398438 L 13.601562 20.398438 L 13.601562 19.199219 L 18.058594 19.199219 C 18.6875 19.199219 19.199219 18.6875 19.199219 18.058594 L 19.199219 2.339844 C 19.199219 1.710938 18.6875 1.199219 18.058594 1.199219 Z M 12.800781 19.601562 L 11.199219 19.601562 L 11.199219 18 L 12.800781 18 Z M 10.398438 17.199219 L 6.800781 17.199219 L 6.800781 3.199219 L 17.199219 3.199219 L 17.199219 17.199219 Z M 18.398438 18.058594 C 18.398438 18.246094 18.246094 18.398438 18.058594 18.398438 L 13.601562 18.398438 L 13.601562 18 L 18 18 L 18 2.398438 L 6 2.398438 L 6 18 L 10.398438 18 L 10.398438 18.398438 L 5.941406 18.398438 C 5.753906 18.398438 5.601562 18.246094 5.601562 18.058594 L 5.601562 2.339844 C 5.601562 2.152344 5.753906 2 5.941406 2 L 10.398438 2 L 10.398438 0.800781 L 13.601562 0.800781 L 13.601562 2 L 18.058594 2 C 18.246094 2 18.398438 2.152344 18.398438 2.339844 Z M 18.398438 18.058594"/>
    <path d="M 12.398438 2 L 12.800781 2 C 13.019531 2 13.199219 1.820312 13.199219 1.601562 C 13.199219 1.378906 13.019531 1.199219 12.800781 1.199219 L 12.398438 1.199219 C 12.398438 0.980469 12.222656 0.800781 12 0.800781 C 11.777344 0.800781 11.601562 0.980469 11.601562 1.199219 L 11.199219 1.199219 C 10.980469 1.199219 10.800781 1.378906 10.800781 1.601562 C 10.800781 1.820312 10.980469 2 11.199219 2 L 11.601562 2 C 11.601562 2.222656 11.777344 2.398438 12 2.398438 C 12.222656 2.398438 12.398438 2.222656 12.398438 2 Z M 12.398438 2"/>
</svg>
