<svg xmlns="http://www.w3.org/2000/svg" width="32" height="32" viewBox="0 0 24 24">
    <path d="M12.8 16c0 .223-.179.398-.402.398a.398.398 0 1 1 0-.796c.223 0 .403.175.403.398zm0 0M15.2 11.602a.4.4 0 1 1-.801-.004.4.4 0 0 1 .8.004zm0 0M11.602 12.8a.401.401 0 1 1-.802-.004.401.401 0 0 1 .802.005zm0 0M12.398 9.602a.398.398 0 1 1-.796 0 .398.398 0 1 1 .796 0zm0 0M14.8 6.398a.401.401 0 1 1 0 0zm0 0M12 4c0 .223-.18.398-.398.398a.398.398 0 1 1 0-.796c.218 0 .398.175.398.398zm0 0M9.2 4.398h-.802a.401.401 0 0 0 0 .801H9.2a.401.401 0 1 0 0-.8zm0 0M9.2 6h-.802a.4.4 0 0 0 0 .8H9.2a.401.401 0 0 0 0-.8zm0 0M9.2 7.602h-.802a.398.398 0 1 0 0 .796H9.2a.398.398 0 1 0 0-.796zm0 0M9.2 9.2h-.802a.401.401 0 0 0 0 .8H9.2a.401.401 0 1 0 0-.8zm0 0M9.2 10.8h-.802a.4.4 0 0 0 0 .802H9.2a.401.401 0 0 0 0-.8zm0 0M9.2 12.398h-.802a.401.401 0 0 0 0 .801H9.2a.401.401 0 1 0 0-.8zm0 0M9.2 14h-.802a.4.4 0 0 0 0 .8H9.2a.401.401 0 0 0 0-.8zm0 0M9.2 15.602h-.802a.398.398 0 1 0 0 .796H9.2a.398.398 0 1 0 0-.796zm0 0"/>
    <path d="M18.059 1.2h-3.66V0H9.601v1.2h-3.66c-.63 0-1.141.51-1.141 1.14v15.719c0 .628.511 1.14 1.14 1.14h4.457v1.2h1.204v1.519c0 .352-.149.695-.403.941-.234.23-.527.352-.851.34A1.592 1.592 0 0 1 8.8 21.602h-.004c-.05-1.106-.856-1.957-1.91-2a1.923 1.923 0 0 0-1.426.55c-.422.403-.66.97-.66 1.555v1.895a.4.4 0 0 0 .8 0v-1.895c0-.367.149-.723.415-.977.23-.226.535-.34.84-.328C7.52 20.426 8 20.98 8 21.715h.004A2.388 2.388 0 0 0 10.324 24a1.96 1.96 0 0 0 1.434-.566c.406-.395.64-.95.64-1.516v-1.52h1.204V19.2h4.457c.628 0 1.14-.512 1.14-1.14V2.339c0-.628-.512-1.14-1.14-1.14zM12.8 19.601h-1.602V18h1.602zm-2.403-2.403H6.801v-14h10.398v14zm8 .86a.34.34 0 0 1-.34.34h-4.456V18H18V2.398H6V18h4.398v.398H5.941a.34.34 0 0 1-.34-.34V2.34a.34.34 0 0 1 .34-.34h4.457V.8h3.204V2h4.457a.34.34 0 0 1 .34.34zm0 0"/>
    <path d="M12.398 2h.403a.4.4 0 0 0 0-.8h-.403a.398.398 0 1 0-.796 0h-.403a.401.401 0 0 0 0 .8h.403c0 .223.175.398.398.398A.395.395 0 0 0 12.398 2zm0 0"/>
</svg>
