<svg xmlns="http://www.w3.org/2000/svg" width="32" height="32" viewBox="0 0 24 24">
    <path d="M 23.601562 0 L 22 0 C 21.777344 0 21.601562 0.179688 21.601562 0.398438 L 21.601562 3.199219 L 20.398438 3.199219 C 20.292969 3.199219 20.191406 3.242188 20.117188 3.316406 L 15.078125 8.355469 L 14.09375 8.128906 C 13.660156 8.027344 13.207031 8.15625 12.886719 8.476562 L 0.546875 20.816406 C -0.179688 21.542969 -0.179688 22.726562 0.546875 23.453125 C 0.910156 23.820312 1.386719 24 1.863281 24 C 2.34375 24 2.820312 23.820312 3.183594 23.453125 L 16.515625 10.125 C 16.75 9.890625 16.839844 9.542969 16.746094 9.222656 C 16.65625 8.90625 16.398438 8.660156 16.074219 8.585938 L 16 8.566406 L 20.566406 4 L 23.601562 4 C 23.820312 4 24 3.820312 24 3.601562 L 24 0.398438 C 24 0.179688 23.820312 0 23.601562 0 Z M 5.355469 20.148438 L 4.414062 18.078125 L 5.367188 17.128906 L 6.308594 19.199219 Z M 3.804688 21.703125 L 2.859375 19.632812 L 3.8125 18.683594 L 4.753906 20.753906 Z M 2.617188 22.890625 C 2.203125 23.304688 1.527344 23.304688 1.109375 22.890625 C 0.695312 22.472656 0.695312 21.796875 1.109375 21.382812 L 2.257812 20.234375 L 3.199219 22.308594 Z M 15.949219 9.558594 L 6.910156 18.59375 L 5.96875 16.523438 L 13.453125 9.039062 C 13.546875 8.945312 13.671875 8.894531 13.800781 8.894531 C 13.839844 8.894531 13.878906 8.898438 13.914062 8.910156 L 15.042969 9.167969 C 15.058594 9.175781 15.074219 9.175781 15.089844 9.179688 L 15.890625 9.363281 C 15.945312 9.378906 15.96875 9.414062 15.976562 9.445312 C 15.988281 9.476562 15.988281 9.519531 15.949219 9.558594 Z M 23.199219 3.199219 L 22.398438 3.199219 L 22.398438 0.800781 L 23.199219 0.800781 Z M 23.199219 3.199219"/>
</svg>
