<svg xmlns="http://www.w3.org/2000/svg" width="32" height="32" viewBox="0 0 24 24">
    <path d="M12 3.602c.223 0 .398-.18.398-.403v-.8a.398.398 0 1 0-.796 0v.8c0 .223.175.403.398.403zm0 0M12 14.398a.395.395 0 0 0 .398-.398v-.8a.398.398 0 1 0-.796 0v.8c0 .223.175.398.398.398zm0 0M12 7.2c.223 0 .398-.18.398-.4V6A.395.395 0 0 0 12 5.602a.395.395 0 0 0-.398.398v.8c0 .22.175.4.398.4zm0 0M12 18c.223 0 .398-.18.398-.398V16.8a.398.398 0 1 0-.796 0v.8c0 .22.175.399.398.399zm0 0M12 21.602c.223 0 .398-.18.398-.403v-.8a.398.398 0 1 0-.796 0v.8c0 .223.175.403.398.403zm0 0M12 10.8c.223 0 .398-.179.398-.402v-.796a.398.398 0 1 0-.796 0v.796c0 .223.175.403.398.403zm0 0"/>
    <path d="M21.2 0H2.8a.401.401 0 0 0-.402.398v23.204c0 .218.18.398.403.398h18.398c.223 0 .403-.18.403-.398V.398A.401.401 0 0 0 21.199 0zm-.4 23.2H3.2V.8h17.6zm0 0"/>
    <path d="M6 5.602h2.414A1.986 1.986 0 0 0 9.816 2.21a1.989 1.989 0 0 0-1.418-.61H5.984A1.986 1.986 0 0 0 4 3.567a2.016 2.016 0 0 0 .582 1.426c.383.387.887.602 1.418.61zM9.246 2.77c.23.238.356.539.356.855a1.192 1.192 0 0 1-1.188 1.176h-.812V2.398h.793c.316.004.62.137.851.372zm-3.258-.372H6.8v2.403h-.796a1.224 1.224 0 0 1-.852-.371 1.196 1.196 0 0 1-.351-.856 1.19 1.19 0 0 1 1.187-1.176zm0 0M6 11.2h2.414a1.986 1.986 0 0 0 1.402-3.391 2.021 2.021 0 0 0-1.418-.61H6.004C4.914 7.2 4.012 8.07 4 9.168a2.007 2.007 0 0 0 .582 1.422c.383.387.887.605 1.418.61zM9.246 8.37c.23.234.356.54.356.852a1.187 1.187 0 0 1-1.188 1.175h-.812V8h.793c.316.004.62.137.851.371zM5.988 8H6.8v2.398h-.796c-.316 0-.617-.132-.852-.367A1.187 1.187 0 0 1 5.988 8zm0 0M6 16.8h2.414a1.986 1.986 0 0 0 1.402-3.39 2.005 2.005 0 0 0-1.418-.61H5.984A1.989 1.989 0 0 0 4 14.77a2.001 2.001 0 0 0 .586 1.421c.379.387.883.602 1.414.61zm3.246-2.831c.23.238.356.539.356.855A1.19 1.19 0 0 1 8.414 16h-.812v-2.398h.793c.316 0 .62.132.851.367zm-3.258-.367H6.8V16h-.796a1.224 1.224 0 0 1-.852-.371 1.194 1.194 0 0 1-.351-.852 1.187 1.187 0 0 1 1.187-1.175zm0 0M6 22.398h2.414a1.983 1.983 0 0 0 1.984-1.964 1.983 1.983 0 0 0-.582-1.426 2.021 2.021 0 0 0-1.418-.61H6.004A2 2 0 0 0 4 20.368a2 2 0 0 0 .582 1.421c.383.39.887.606 1.418.61zm3.246-2.828c.23.235.356.54.356.856a1.192 1.192 0 0 1-1.188 1.176h-.812v-2.403h.793c.316.004.62.137.851.371zm-3.258-.37H6.8v2.402h-.796a1.224 1.224 0 0 1-.852-.372 1.203 1.203 0 0 1-.351-.855 1.19 1.19 0 0 1 1.187-1.176zm0 0M15.602 5.602h2.414A1.989 1.989 0 0 0 20 3.632a2 2 0 0 0-.582-1.421A1.996 1.996 0 0 0 18 1.6h-2.415a1.986 1.986 0 0 0-1.401 3.391c.382.387.882.602 1.418.61zm3.242-2.832c.234.238.36.539.355.855a1.189 1.189 0 0 1-1.183 1.176H17.2V2.398h.796c.317.004.617.137.848.372zm-3.254-.372h.808v2.403h-.793a1.217 1.217 0 0 1-.851-.371 1.217 1.217 0 0 1-.356-.856 1.193 1.193 0 0 1 1.192-1.176zm0 0M15.602 11.2h2.414A1.989 1.989 0 0 0 20 9.23a2.014 2.014 0 0 0-.582-1.421A2.028 2.028 0 0 0 18 7.199h-2.395a1.996 1.996 0 0 0-2.003 1.969c-.008.527.199 1.035.582 1.422.382.387.882.605 1.418.61zm3.242-2.829a1.182 1.182 0 0 1-.828 2.027H17.2V8h.796c.317.004.617.137.848.371zM15.59 8h.808v2.398h-.793c-.316 0-.62-.132-.851-.367-.23-.238-.36-.539-.356-.855A1.19 1.19 0 0 1 15.59 8zm0 0M15.602 16.8h2.414A1.989 1.989 0 0 0 20 14.833a2.007 2.007 0 0 0-.582-1.422A2.012 2.012 0 0 0 18 12.8h-2.415a1.989 1.989 0 0 0-1.983 1.97c-.008.527.199 1.03.582 1.421.382.387.882.602 1.418.61zm3.242-2.831A1.186 1.186 0 0 1 18.016 16H17.2v-2.398h.796c.317 0 .617.132.848.367zm-3.254-.367h.808V16h-.793a1.217 1.217 0 0 1-.851-.371c-.23-.234-.36-.54-.356-.852a1.19 1.19 0 0 1 1.192-1.175zm0 0M15.602 22.398h2.414A1.986 1.986 0 0 0 20 20.434a2.016 2.016 0 0 0-.582-1.426 2.028 2.028 0 0 0-1.418-.61h-2.395a1.998 1.998 0 0 0-2.003 1.97c-.008.53.199 1.034.582 1.421.382.39.882.606 1.418.61zm3.242-2.828a1.184 1.184 0 0 1-.828 2.032H17.2v-2.403h.796c.317.004.617.137.848.371zm-3.254-.37h.808v2.402h-.793a1.217 1.217 0 0 1-.851-.372c-.23-.238-.36-.539-.356-.855a1.193 1.193 0 0 1 1.192-1.176zm0 0"/>
</svg>
