<svg xmlns="http://www.w3.org/2000/svg" width="32" height="32" viewBox="0 0 24 24">
    <path d="M9.309 7.45l-.524.167a.396.396 0 0 0-.258.5.4.4 0 0 0 .5.262l.282-.09v1.563l-.524.164a.4.4 0 0 0 .121.78.412.412 0 0 0 .121-.015l.282-.09v1.563l-.524.164a.4.4 0 0 0 .242.762l.282-.09V14h.8v1.332l1.399 1.867h1.199l1.402-1.867V14h.801v-2.648l.524-.176a.395.395 0 0 0 .254-.504.398.398 0 0 0-.504-.254l-.278.09V8.953l.528-.176a.4.4 0 0 0 .254-.507.402.402 0 0 0-.508-.25l-.274.09V6.55l.528-.175a.394.394 0 0 0 .27-.379h6.589l-.043-.437c-.04-.41-.102-.594-.172-.809-.035-.105-.078-.223-.125-.398-.324-1.239-1.285-2.418-2.695-3.329C17.453-.137 14.934-.328 12.84.54l-.074.031-.118.047c-.183.063-.328.121-.445.164-.367.145-.367.145-.976-.035C9.93.363 7.473-.18 5.594.488c-2.301.813-3.567 2.52-3.77 5.078l-.035.43h7.52zM2.668 5.194c.273-1.996 1.32-3.293 3.191-3.957 1.727-.61 4.172-.011 5.141.274.797.238.922.238 1.492.015.11-.043.246-.093.418-.156.059-.02.113-.043.172-.066l.063-.028c1.859-.77 4.09-.605 5.683.422 1.242.797 2.078 1.813 2.356 2.86.05.195.097.328.136.445.024.07.043.129.059.191h-7.27v.782l-.925.308a.398.398 0 0 0 .125.777.336.336 0 0 0 .125-.019l.675-.223v1.555l-.925.309a.4.4 0 0 0 .25.761l.675-.226v1.558l-.925.309a.4.4 0 0 0 .125.781.375.375 0 0 0 .129-.023l.671-.223V13.2h-.8v1.867l-1 1.332h-.399l-1-1.332V13.2h-.8v-.363l1.722-.547a.4.4 0 0 0-.242-.762l-1.48.47v-1.56l1.722-.546a.403.403 0 0 0 .258-.504.394.394 0 0 0-.5-.258l-1.48.469V8.035l1.722-.543a.405.405 0 0 0 .258-.504.4.4 0 0 0-.5-.261l-1.48.472V5.195zm0 0"/>
    <path d="M22.129 7.598H16.91v.8h4.485c.164 2.477-.45 4.88-1.043 7.207-.184.72-.375 1.461-.54 2.196l-.117.527c-.312 1.418-.633 2.887-1.36 4.156-.241.426-.491.676-.655.653-.184-.02-.692-.309-1.43-2.582-.254-.782-.563-1.778-.926-2.961-.004-.016-.008-.035-.015-.051l-.016-.055-.004.004c-.129-.308-.336-.324-.492-.277l-.383.113.074.258c-.183.504-.476 1.094-.695 1.535l-.188.375c-.277.574-.625 1.293-1.19 1.461-1.005.3-1.93-1.363-2.481-2.36l-.235-.41-.133-.218-.25.02c-.203.015-.457.034-1.91 3.757-.254.66-.492 1.188-1.004 1.445-.453-.113-.937-1.293-1.125-1.75l-.05-.117C3.87 18.047 3.336 14.367 2.82 10.81l-.222-1.496-.024-.168c-.054-.356-.074-.485-.066-.747h4.8v-.8H1.767l-.032.367c-.05.64-.035.762.047 1.3l.028.165c.074.496.144.992.218 1.496.524 3.605 1.067 7.336 2.461 10.703l.047.113c.348.844.926 2.258 1.938 2.258h.078l.078-.031c.926-.395 1.27-1.282 1.523-1.93.383-.977.883-2.148 1.203-2.832.68 1.211 1.762 2.969 3.286 2.516.902-.266 1.355-1.2 1.683-1.875l.184-.371c.101-.207.222-.45.344-.704.238.782.453 1.461.636 2.028.485 1.488 1.114 3.027 2.11 3.129.523.054 1.004-.297 1.433-1.051.785-1.371 1.121-2.902 1.446-4.383l.113-.52c.164-.722.351-1.46.535-2.171.64-2.508 1.305-5.102 1.035-7.848zm0 0"/>
</svg>
