<svg xmlns="http://www.w3.org/2000/svg" width="32" height="32" viewBox="0 0 24 24">
    <path d="M24 2.516a1.87 1.87 0 0 0-.55-1.332 1.886 1.886 0 0 0-2.665 0L7.325 14.648a.918.918 0 0 0-.259.774L.117 22.375a.408.408 0 0 0-.11.367.406.406 0 0 0 .25.293c.067.027.888.332 1.99.332 1.097 0 2.472-.3 3.675-1.469L8.8 19.02a.401.401 0 0 0 .11-.364l-.22-1.097.93-.93.145.031a1.295 1.295 0 0 0 1.219-.348L23.448 3.848A1.87 1.87 0 0 0 24 2.516zm-3.852 3.488L19.2 3.91l.961-.957.95 2.09zm-1.566 1.57l-.953-2.094.96-.957.95 2.09zm-9.887 8.84l-.73.727a.412.412 0 0 0-.11.367l.22 1.094-2.72 2.722c-1.464 1.418-3.242 1.317-4.175 1.13l6.347-6.345h.008a.81.81 0 0 0 .235.09zm1.72-.676a.495.495 0 0 1-.47.137l-1.996-.46c-.02-.005-.031-.017-.047-.028a.17.17 0 0 1-.023-.028c-.004-.011-.012-.02-.016-.027a.113.113 0 0 1 .032-.113l9.125-9.13.949 2.095zm12.464-12.46l-1.16 1.156-.95-2.09.586-.59a1.083 1.083 0 0 1 1.524 0c.203.203.312.476.312.762 0 .289-.109.558-.312.761zm0 0"/>
    <path d="M5.152 19.332l-.804.809a.399.399 0 0 0 0 .57c.078.078.18.121.285.121a.41.41 0 0 0 .285-.121l.809-.809a.406.406 0 0 0 0-.57.41.41 0 0 0-.575 0zm0 0M3.535 20.95a.426.426 0 0 0-.117.284c0 .106.047.211.117.286a.409.409 0 0 0 .574 0 .392.392 0 0 0 .118-.286c0-.105-.04-.21-.118-.285a.418.418 0 0 0-.574 0zm0 0"/>
</svg>
