<svg xmlns="http://www.w3.org/2000/svg" width="32" height="32" viewBox="0 0 24 24">
    <path d="M7.863281 9.929688C7.863281 10.273438 7.585938 10.550781 7.242188 10.550781 6.898438 10.550781 6.621094 10.273438 6.621094 9.929688 6.621094 9.589844 6.898438 9.3125 7.242188 9.3125 7.585938 9.3125 7.863281 9.589844 7.863281 9.929688zM15.722656 22.550781C17.09375 22.550781 18.207031 21.4375 18.207031 20.070312 18.207031 18.699219 17.09375 17.585938 15.722656 17.585938 14.355469 17.585938 13.242188 18.699219 13.242188 20.070312 13.242188 21.4375 14.355469 22.550781 15.722656 22.550781zM15.722656 18.414062C16.636719 18.414062 17.378906 19.15625 17.378906 20.070312 17.378906 20.984375 16.636719 21.726562 15.722656 21.726562 14.8125 21.726562 14.070312 20.984375 14.070312 20.070312 14.070312 19.15625 14.8125 18.414062 15.722656 18.414062zM20.277344 8.070312C18.90625 8.070312 17.792969 9.183594 17.792969 10.550781 17.792969 11.921875 18.90625 13.035156 20.277344 13.035156 21.644531 13.035156 22.757812 11.921875 22.757812 10.550781 22.757812 9.183594 21.644531 8.070312 20.277344 8.070312zM20.277344 12.207031C19.363281 12.207031 18.621094 11.464844 18.621094 10.550781 18.621094 9.640625 19.363281 8.898438 20.277344 8.898438 21.1875 8.898438 21.929688 9.640625 21.929688 10.550781 21.929688 11.464844 21.1875 12.207031 20.277344 12.207031zM20.277344 12.207031"/>
    <path d="M 23.050781 8.070312 C 22.347656 7.28125 21.335938 6.828125 20.277344 6.828125 C 19.246094 6.828125 18.253906 7.261719 17.550781 8.011719 C 16.945312 8.664062 16.601562 9.480469 16.558594 10.351562 L 10.480469 8.910156 L 8.210938 8.34375 C 8.160156 8.191406 8.085938 8.050781 7.984375 7.910156 L 7.863281 7.765625 L 7.863281 1.855469 C 7.847656 0.941406 7.117188 0.207031 6.226562 0.207031 C 6.21875 0.207031 6.207031 0.207031 6.199219 0.207031 C 5.277344 0.222656 4.535156 0.96875 4.550781 1.863281 L 4.550781 3.769531 L 3 1.898438 C 2.742188 1.539062 2.359375 1.300781 1.925781 1.230469 C 1.484375 1.15625 1.046875 1.257812 0.691406 1.515625 C -0.0507812 2.046875 -0.222656 3.082031 0.3125 3.832031 L 3.355469 7.855469 L 4.25 10.238281 C 4.496094 10.898438 5.050781 11.414062 5.722656 11.617188 L 7.734375 12.21875 L 13.023438 17.503906 C 12.246094 18.320312 11.886719 19.425781 12.03125 20.558594 C 12.246094 22.230469 13.617188 23.578125 15.292969 23.769531 C 15.433594 23.785156 15.574219 23.792969 15.714844 23.792969 C 16.632812 23.792969 17.519531 23.460938 18.203125 22.847656 C 18.996094 22.140625 19.449219 21.128906 19.449219 20.070312 C 19.449219 18.070312 17.867188 16.4375 15.890625 16.347656 C 15.28125 15.78125 12.285156 12.957031 10.546875 11.316406 L 17.449219 12.976562 C 18.265625 13.925781 19.484375 14.398438 20.734375 14.25 C 22.425781 14.046875 23.789062 12.671875 23.976562 10.976562 C 24.09375 9.917969 23.757812 8.859375 23.050781 8.070312 Z M 5.378906 1.855469 C 5.371094 1.410156 5.746094 1.042969 6.214844 1.035156 C 6.21875 1.035156 6.222656 1.035156 6.226562 1.035156 C 6.664062 1.035156 7.027344 1.40625 7.035156 1.863281 L 7.035156 6.765625 L 5.378906 4.769531 Z M 23.152344 10.886719 C 23.007812 12.199219 21.949219 13.269531 20.636719 13.425781 C 19.621094 13.550781 18.640625 13.144531 18.007812 12.347656 L 17.917969 12.238281 L 9.539062 10.222656 L 9.148438 11.132812 L 9.359375 11.332031 C 15.546875 17.171875 15.546875 17.171875 15.722656 17.171875 C 17.320312 17.171875 18.621094 18.472656 18.621094 20.070312 C 18.621094 20.894531 18.269531 21.679688 17.652344 22.230469 C 17.03125 22.789062 16.226562 23.042969 15.386719 22.945312 C 14.082031 22.800781 13.019531 21.75 12.851562 20.453125 C 12.734375 19.519531 13.050781 18.617188 13.726562 17.972656 C 13.851562 17.851562 13.925781 17.683594 13.929688 17.511719 C 13.929688 17.335938 13.863281 17.175781 13.742188 17.054688 L 8.175781 11.488281 L 5.960938 10.824219 C 5.53125 10.695312 5.183594 10.367188 5.023438 9.945312 L 4.109375 7.511719 L 0.980469 3.34375 C 0.714844 2.972656 0.800781 2.453125 1.171875 2.1875 C 1.3125 2.085938 1.480469 2.035156 1.648438 2.035156 C 1.695312 2.035156 1.742188 2.039062 1.789062 2.046875 C 2.007812 2.082031 2.199219 2.199219 2.34375 2.402344 L 4.550781 5.066406 L 7.332031 8.421875 C 7.398438 8.515625 7.445312 8.628906 7.464844 8.753906 L 7.511719 9.019531 L 10.28125 9.714844 L 16.804688 11.261719 C 16.953125 11.296875 17.105469 11.261719 17.222656 11.164062 C 17.335938 11.066406 17.398438 10.921875 17.386719 10.761719 C 17.328125 9.949219 17.601562 9.171875 18.15625 8.578125 C 18.710938 7.984375 19.464844 7.65625 20.277344 7.65625 C 21.097656 7.65625 21.886719 8.007812 22.433594 8.621094 C 22.992188 9.242188 23.246094 10.046875 23.152344 10.886719 Z M 23.152344 10.886719"/>
</svg>
