<svg xmlns="http://www.w3.org/2000/svg" width="32" height="32" viewBox="0 0 24 24">
    <path d="M9.152 17.086a1.626 1.626 0 1 0 .003 3.252 1.626 1.626 0 0 0-.003-3.252zm0 2.441a.815.815 0 0 1 0-1.629.815.815 0 0 1 0 1.629zm0 0M14.441 20.34a1.627 1.627 0 1 0-.004-3.254 1.627 1.627 0 0 0 .004 3.254zm0-2.442a.815.815 0 0 1 0 1.629.815.815 0 0 1 0-1.629zm0 0"/>
    <path d="M21.355 5.695c-.074 0-.144.012-.214.024l-3.27-3.27c.145-.242.23-.52.23-.82A1.63 1.63 0 0 0 16.474 0c-.758 0-1.395.527-1.57 1.23-.02 0-.036-.011-.055-.011h-2.442A.408.408 0 0 0 12 .812a.408.408 0 0 0-.406.407H9.152c-.02 0-.035.011-.054.011A1.625 1.625 0 0 0 7.528 0a1.63 1.63 0 0 0-1.63 1.629c0 .3.086.578.23.82L2.86 5.72c-.07-.012-.14-.024-.214-.024a1.63 1.63 0 0 0-1.63 1.625c0 .899.731 1.63 1.63 1.63.066 0 .125-.012.19-.02l3.563 4.336a.4.4 0 0 0 .313.148.392.392 0 0 0 .258-.09.409.409 0 0 0 .058-.574L3.625 8.613c.39-.3.645-.765.645-1.293 0-.508-.239-.957-.606-1.258l3.04-3.039c.241.145.523.23.823.23a1.62 1.62 0 0 0 1.57-1.23c.02 0 .036.012.055.012h2.442V3.66H9.152a.406.406 0 1 0 0 .812h2.442v.817H8.34a.406.406 0 1 0 0 .813h3.254v.812H6.71a.408.408 0 0 0 0 .816h4.883v.813H6.71a.406.406 0 1 0 0 .812h4.883v.813H8.34a.407.407 0 0 0-.406.41c0 .223.18.406.406.406h3.254v.813H9.152a.406.406 0 1 0 0 .812h2.442v2.036H10.37c-.387 0-.77.113-1.101.328l-.395.379c-.34.335-.813.476-1.234.367-.7-.188-1.782.011-2.399.57-.05-.008-.101-.02-.156-.02a1.625 1.625 0 1 0-.406 3.2v4.125a.406.406 0 1 0 .812 0v-4.125l.11-.035 2.906 2.515c.691.692 1.734.836 2.539.348a2 2 0 0 0 .828-.977.239.239 0 0 1 .129-.133.245.245 0 0 1 .125.133c.164.407.45.746.832.977.32.195.68.289 1.035.289.54 0 1.074-.211 1.473-.61l3.023-2.515c.004.004.012.004.016.008v4.125a.406.406 0 1 0 .813 0v-4.125a1.63 1.63 0 0 0 1.222-1.57 1.63 1.63 0 0 0-1.629-1.63c-.047 0-.094.012-.14.016-.594-.48-1.59-.71-2.208-.61-.554.087-1.07-.09-1.375-.468l-.293-.363-.093-.04a2.025 2.025 0 0 0-.793-.16h-1.606V12.61h2.442a.406.406 0 1 0 0-.812h-2.442v-.813h3.254a.406.406 0 0 0 .406-.406c0-.226-.18-.41-.406-.41h-3.254v-.813h4.883a.406.406 0 1 0 0-.812h-4.883V7.73h4.883a.408.408 0 0 0 0-.816h-4.883v-.812h3.254a.406.406 0 1 0 0-.813h-3.254v-.816h2.442a.406.406 0 1 0 0-.813h-2.442V2.035h2.442c.02 0 .035-.012.054-.012a1.62 1.62 0 0 0 1.57 1.23c.301 0 .583-.085.825-.23l3.039 3.04c-.367.3-.606.75-.606 1.257 0 .528.254.992.645 1.293l-3.402 4.137a.409.409 0 0 0 .058.574.4.4 0 0 0 .258.09.4.4 0 0 0 .313-.148l3.562-4.336c.066.008.125.02.191.02a1.63 1.63 0 0 0 1.63-1.63 1.63 1.63 0 0 0-1.63-1.625zM1.832 7.32c0-.445.363-.812.813-.812a.814.814 0 0 1 0 1.629.815.815 0 0 1-.813-.817zm5.695-4.879a.818.818 0 0 1-.816-.812c0-.45.367-.817.816-.817.446 0 .813.368.813.817a.817.817 0 0 1-.813.812zM4.27 17.898a.815.815 0 0 1 .957-.8l.058.015c.133.035.25.102.348.188l.004.004c.023.023.047.047.066.07.012.016.024.027.035.043.016.02.028.043.043.066.012.02.024.04.032.063.011.02.019.039.03.062.009.028.016.055.024.086.008.016.012.035.016.051.008.05.015.102.015.152a.874.874 0 0 1-.027.2l-.012.035a.9.9 0 0 1-.07.168l-.008.008a.824.824 0 0 1-.304.296l-.079.043a.815.815 0 0 1-1.129-.75zm15.46 0a.815.815 0 0 1-1.113.754l-.039-.015a.897.897 0 0 1-.191-.125c-.004-.004-.008-.004-.008-.008a.834.834 0 0 1-.234-.356l-.012-.043a.738.738 0 0 1-.016-.359l.012-.043c.008-.035.02-.07.031-.105.008-.012.012-.028.02-.04a.716.716 0 0 1 .05-.093c.008-.012.016-.024.024-.04.02-.027.043-.05.066-.077l.035-.035c.02-.02.047-.04.07-.06.016-.01.032-.023.048-.034.015-.012.035-.02.05-.028a.816.816 0 0 1 .211-.082l.036-.007a.815.815 0 0 1 .96.797zm-5.332-2.378l.16.195c.493.613 1.29.894 2.137.762.297-.047.766.03 1.153.195-.02.012-.028.031-.043.043a.954.954 0 0 0-.106.113c-.039.043-.078.086-.113.137-.027.039-.05.086-.074.129-.032.05-.063.097-.086.152-.024.055-.04.113-.059.172-.012.047-.031.094-.043.14a1.618 1.618 0 0 0-.004.657c.016.082.043.156.07.234.008.02.012.043.02.063.035.086.082.168.13.246.003.008.007.02.015.027.05.078.11.149.175.219.004.008.008.016.016.02l-2.824 2.351c-.422.418-1.067.512-1.54.227a1.155 1.155 0 0 1-.491-.582 1.07 1.07 0 0 0-.817-.657l-.07-.011-.07.011a1.07 1.07 0 0 0-.817.657 1.174 1.174 0 0 1-.492.582c-.473.285-1.121.191-1.563-.247L6.31 18.97a.161.161 0 0 1 .027-.043c.047-.055.09-.113.129-.176.02-.027.031-.055.047-.086a1.41 1.41 0 0 0 .086-.172c.015-.047.027-.09.043-.137.011-.05.03-.097.043-.148.015-.102.027-.203.027-.309 0-.117-.012-.234-.04-.343-.003-.032-.019-.063-.026-.094a1.929 1.929 0 0 0-.079-.227c-.015-.035-.035-.066-.054-.097-.035-.067-.07-.133-.114-.192a.781.781 0 0 0-.074-.086 1.236 1.236 0 0 0-.156-.164c-.012-.011-.02-.023-.031-.035.41-.183.949-.25 1.297-.156.699.183 1.472-.035 2.015-.574l.297-.293c.191-.117.406-.18.625-.18h3.64c.134 0 .262.023.387.063zM15.66 1.629c0-.45.367-.817.813-.817.449 0 .816.368.816.817a.818.818 0 0 1-.816.812.817.817 0 0 1-.813-.812zm5.695 6.508a.815.815 0 0 1 0-1.63.814.814 0 0 1 0 1.63zm0 0"/>
</svg>
