<svg xmlns="http://www.w3.org/2000/svg" width="32" height="32" viewBox="0 0 24 24">
    <path d="M23.613 8.977l-.058-.207-.012-.043a11.491 11.491 0 0 0-.293-.899l-.012-.027a11.475 11.475 0 0 0-.34-.813c-.015-.039-.035-.078-.05-.113a13.65 13.65 0 0 0-.391-.75l-.094-.164a10.804 10.804 0 0 0-.515-.805c-.157-.226-.32-.445-.493-.66-.02-.02-.035-.043-.054-.066a10.6 10.6 0 0 0-.59-.668c-.02-.024-.04-.043-.059-.067A11.998 11.998 0 0 0 14.004.172c-.016-.004-.027-.004-.04-.008-.3-.05-.6-.086-.905-.113L12.91.039C12.61.016 12.31 0 12 0c-.309 0-.61.016-.91.04-.05.003-.098.003-.149.01-.304.024-.605.063-.906.114-.012 0-.023.004-.039.008a11.998 11.998 0 0 0-6.648 3.523c-.02.024-.04.043-.059.067a10.6 10.6 0 0 0-.59.668c-.02.023-.035.047-.054.066-.172.215-.336.434-.493.66l-.07.094c-.156.23-.305.469-.445.71l-.094.165c-.137.242-.27.492-.39.75-.016.035-.036.074-.051.113a9.894 9.894 0 0 0-.34.813l-.012.027c-.11.293-.207.594-.293.899a.19.19 0 0 1-.016.043l-.054.207C.133 9.94 0 10.957 0 12c0 6.617 5.383 12 12 12s12-5.383 12-12c0-1.043-.133-2.059-.387-3.023zm-2.68-2.383c-.578-2.422-2.636-2.7-4.132-2.7-2.813 0-3.738.145-4.531 3.176-.102.39-.192.805-.27 1.258a15.307 15.307 0 0 0-.27-1.258c-.793-3.03-1.718-3.175-4.53-3.175-1.497 0-3.555.277-4.134 2.699-.187.789-.363 1.644-.52 2.5h-.394c-.32 0-.629-.117-.875-.328 0-.004.004-.004.004-.008a11.296 11.296 0 0 1 .324-.918c.102-.254.208-.5.325-.738.015-.036.035-.063.05-.098a11.357 11.357 0 0 1 .833-1.399c.03-.046.066-.093.097-.136.152-.215.313-.426.48-.625.012-.012.02-.02.028-.032A11.88 11.88 0 0 1 4 4.173c.203-.207.414-.406.633-.598l.004-.004A11.228 11.228 0 0 1 10.168.953c.008 0 .016-.004.02-.004.277-.047.554-.078.835-.105.047-.004.094-.004.141-.008a9.9 9.9 0 0 1 1.672 0c.047.004.094.004.14.008a11.915 11.915 0 0 1 .856.11 11.228 11.228 0 0 1 5.531 2.616l.004.004a11.438 11.438 0 0 1 1.215 1.239 9.459 9.459 0 0 1 .508.656l.097.133c.145.21.286.425.418.644.024.04.047.078.067.117.125.211.238.422.348.64.015.032.035.063.05.095.117.242.223.488.325.742l.046.117a11.396 11.396 0 0 1 .282.809c-.246.21-.555.328-.875.328h-.395a50.172 50.172 0 0 0-.52-2.5zm-17.09.183C4.282 4.945 5.716 4.695 7.2 4.695c2.645 0 3.102.07 3.758 2.575.559 2.132.633 6.835.645 8.226.003.957-.938 1.09-2.497 1.195-.214.016-.433.032-.64.051-.91.082-1.399.07-2.313.004l-.316-.023c-1.738-.125-3.063-.293-3.035-1.22.07-2.253.55-6.648 1.043-8.726zm9.2.496c.656-2.507 1.113-2.578 3.758-2.578 1.484 0 2.918.25 3.355 2.082.492 2.078.973 6.477 1.043 8.73.028.927-1.297 1.095-3.035 1.216l-.316.023c-.914.07-1.399.078-2.313-.004-.207-.02-.426-.035-.64-.05-1.56-.106-2.5-.239-2.493-1.196.008-1.39.082-6.094.641-8.223zM12 23.2C5.824 23.2.8 18.176.8 12c0-.828.095-1.633.262-2.406.329.195.704.3 1.09.3h.356c-.266 1.989-.465 4.192-.508 5.586-.055 1.77 2.16 1.926 3.777 2.04l.317.023c.484.039.86.059 1.234.059.363 0 .73-.02 1.207-.063.203-.02.414-.035.625-.047 1.027-.07 2.23-.156 2.84-.832.61.676 1.813.762 2.84.832.21.012.422.028.625.047.476.043.844.063 1.207.063.375 0 .75-.02 1.238-.059l.313-.023c1.617-.114 3.832-.27 3.777-2.04-.043-1.394-.242-3.597-.504-5.585h.352c.386 0 .761-.106 1.09-.301.167.773.261 1.578.261 2.406 0 6.176-5.023 11.2-11.199 11.2zm0 0"/>
</svg>
