<svg xmlns="http://www.w3.org/2000/svg" width="32" height="32" viewBox="0 0 24 24">
    <path d="M 19.976562 2.398438 L 4.023438 2.398438 C 1.804688 2.398438 0 4.203125 0 6.421875 L 0 10.320312 C 0 10.855469 0.332031 11.316406 0.808594 11.503906 C 0.394531 13.289062 0.101562 15.167969 0.0078125 16.699219 C -0.125 18.851562 1.332031 20.339844 2.832031 20.859375 C 4.253906 21.351562 5.539062 21.601562 6.671875 21.601562 C 7.902344 21.601562 8.957031 21.308594 9.832031 20.730469 C 10.902344 20.019531 11.777344 18.34375 11.960938 17.167969 C 13.011719 18.980469 16.058594 20.941406 17.539062 21.175781 C 17.628906 21.191406 17.722656 21.199219 17.824219 21.199219 C 17.964844 21.199219 18.113281 21.183594 18.273438 21.15625 C 20.34375 20.804688 23.617188 17.910156 23.601562 15.972656 C 23.585938 14.183594 23.46875 12.71875 23.246094 11.480469 C 23.691406 11.28125 24 10.835938 24 10.320312 L 24 6.421875 C 24 4.203125 22.195312 2.398438 19.976562 2.398438 Z M 9.386719 20.0625 C 7.929688 21.035156 5.8125 21.046875 3.09375 20.101562 C 1.878906 19.679688 0.699219 18.480469 0.808594 16.75 C 0.90625 15.136719 1.25 13.058594 1.714844 11.171875 C 1.757812 11 1.796875 10.839844 1.839844 10.683594 C 1.898438 10.457031 1.960938 10.230469 2.023438 10.011719 C 2.429688 8.601562 3.621094 8 6.003906 8 C 9.085938 8 9.691406 8.074219 10.453125 10.484375 C 10.457031 10.492188 10.457031 10.5 10.460938 10.507812 C 10.507812 10.652344 10.546875 10.804688 10.589844 10.957031 C 10.613281 11.042969 10.632812 11.132812 10.65625 11.230469 C 11 12.648438 11.179688 14.453125 11.199219 16.726562 C 11.207031 17.5625 10.433594 19.367188 9.386719 20.0625 Z M 11.5625 11.597656 L 12.246094 11.597656 C 12.089844 12.289062 11.953125 12.96875 11.851562 13.617188 C 11.78125 12.882812 11.683594 12.210938 11.5625 11.597656 Z M 18.136719 20.371094 C 17.949219 20.402344 17.789062 20.40625 17.664062 20.386719 C 15.898438 20.109375 12.347656 17.34375 12.402344 15.992188 C 12.449219 14.734375 12.703125 13.125 13.097656 11.460938 L 13.136719 11.292969 C 13.289062 10.664062 13.453125 10.070312 13.613281 9.527344 C 14.023438 8.175781 15.214844 7.597656 17.601562 7.597656 C 20.6875 7.597656 21.292969 7.671875 22.054688 9.984375 C 22.125 10.199219 22.1875 10.425781 22.246094 10.652344 C 22.261719 10.71875 22.28125 10.785156 22.296875 10.855469 C 22.335938 11.019531 22.371094 11.183594 22.402344 11.351562 L 22.445312 11.558594 C 22.730469 13.113281 22.789062 14.757812 22.800781 15.980469 C 22.8125 17.492188 19.839844 20.078125 18.136719 20.371094 Z M 22.964844 10.238281 C 22.917969 10.0625 22.867188 9.894531 22.8125 9.734375 C 21.890625 6.933594 20.824219 6.800781 17.601562 6.800781 C 15.738281 6.800781 13.515625 7.082031 12.847656 9.296875 C 12.773438 9.542969 12.703125 9.804688 12.628906 10.070312 C 12.570312 10.28125 12.515625 10.496094 12.460938 10.710938 C 12.453125 10.738281 12.445312 10.769531 12.4375 10.800781 L 11.375 10.800781 C 11.371094 10.789062 11.371094 10.777344 11.367188 10.765625 C 11.320312 10.582031 11.269531 10.414062 11.21875 10.257812 C 11.21875 10.253906 11.21875 10.246094 11.214844 10.242188 C 10.292969 7.339844 9.230469 7.199219 6.003906 7.199219 C 5.539062 7.199219 5.050781 7.21875 4.570312 7.28125 C 3.125 7.472656 1.753906 8.066406 1.253906 9.789062 C 1.25 9.800781 1.246094 9.8125 1.246094 9.824219 C 1.191406 10.003906 1.140625 10.203125 1.085938 10.410156 C 1.058594 10.511719 1.03125 10.609375 1.003906 10.714844 C 0.878906 10.625 0.800781 10.484375 0.800781 10.320312 L 0.800781 6.421875 C 0.800781 4.644531 2.246094 3.199219 4.023438 3.199219 L 19.976562 3.199219 C 21.753906 3.199219 23.199219 4.644531 23.199219 6.421875 L 23.199219 10.320312 C 23.199219 10.445312 23.152344 10.558594 23.070312 10.644531 C 23.0625 10.617188 23.054688 10.589844 23.046875 10.558594 C 23.019531 10.449219 22.992188 10.34375 22.964844 10.238281 Z M 22.964844 10.238281"/>
</svg>
