<svg xmlns="http://www.w3.org/2000/svg" width="32" height="32" viewBox="0 0 24 24">
    <path d="M 23.453125 20.820312 L 21.144531 18.511719 C 21.085938 18.453125 21.050781 18.371094 21.050781 18.285156 C 21.050781 18.199219 21.085938 18.121094 21.144531 18.058594 C 21.589844 17.617188 21.589844 16.894531 21.144531 16.449219 L 5.3125 0.613281 C 4.492188 -0.203125 3.164062 -0.203125 2.34375 0.613281 L 0.613281 2.34375 C 0.21875 2.742188 0 3.269531 0 3.828125 C 0 4.386719 0.21875 4.914062 0.613281 5.3125 L 4.019531 8.71875 C 4.035156 8.738281 4.042969 8.757812 4.058594 8.777344 C 4.078125 8.792969 4.097656 8.800781 4.117188 8.816406 L 6.773438 11.46875 C 6.789062 11.488281 6.796875 11.511719 6.8125 11.527344 C 6.828125 11.546875 6.851562 11.554688 6.871094 11.566406 L 9.527344 14.222656 C 9.539062 14.242188 9.546875 14.261719 9.5625 14.28125 C 9.582031 14.296875 9.605469 14.304688 9.621094 14.320312 L 12.277344 16.976562 C 12.292969 16.992188 12.300781 17.015625 12.316406 17.03125 C 12.332031 17.050781 12.355469 17.058594 12.375 17.070312 L 14.6875 19.382812 C 14.699219 19.402344 14.707031 19.425781 14.726562 19.441406 C 14.742188 19.457031 14.761719 19.464844 14.78125 19.480469 L 16.449219 21.144531 C 16.878906 21.578125 17.628906 21.578125 18.058594 21.144531 C 18.183594 21.019531 18.386719 21.019531 18.511719 21.144531 L 20.820312 23.453125 C 21.183594 23.816406 21.660156 24 22.136719 24 C 22.613281 24 23.089844 23.816406 23.453125 23.453125 C 23.804688 23.101562 24 22.636719 24 22.136719 C 24 21.640625 23.804688 21.171875 23.453125 20.820312 Z M 18.285156 20.234375 C 17.996094 20.234375 17.703125 20.347656 17.480469 20.566406 C 17.359375 20.6875 17.148438 20.6875 17.027344 20.566406 L 15.601562 19.140625 L 16.335938 18.410156 C 16.496094 18.25 16.496094 17.988281 16.335938 17.832031 C 16.175781 17.671875 15.917969 17.671875 15.757812 17.832031 L 15.023438 18.5625 L 13.191406 16.734375 L 13.925781 16 C 14.085938 15.839844 14.085938 15.582031 13.925781 15.421875 C 13.765625 15.261719 13.507812 15.261719 13.347656 15.421875 L 12.613281 16.15625 L 10.441406 13.980469 L 11.175781 13.25 C 11.335938 13.089844 11.335938 12.828125 11.175781 12.667969 C 11.015625 12.511719 10.757812 12.511719 10.597656 12.667969 L 9.863281 13.402344 L 7.6875 11.230469 L 8.421875 10.496094 C 8.582031 10.335938 8.582031 10.078125 8.421875 9.917969 C 8.261719 9.757812 8.003906 9.757812 7.84375 9.917969 L 7.109375 10.652344 L 4.9375 8.476562 L 5.667969 7.742188 C 5.828125 7.582031 5.828125 7.324219 5.667969 7.164062 C 5.507812 7.003906 5.25 7.003906 5.089844 7.164062 L 4.359375 7.898438 L 1.191406 4.734375 C 0.953125 4.492188 0.816406 4.171875 0.816406 3.828125 C 0.816406 3.484375 0.953125 3.164062 1.191406 2.921875 L 2.921875 1.191406 C 3.421875 0.695312 4.234375 0.695312 4.734375 1.191406 L 7.898438 4.359375 L 7.15625 5.101562 C 6.996094 5.261719 6.996094 5.519531 7.15625 5.679688 C 7.234375 5.757812 7.339844 5.800781 7.445312 5.800781 C 7.550781 5.800781 7.65625 5.757812 7.734375 5.679688 L 8.476562 4.9375 L 10.652344 7.109375 L 9.910156 7.855469 C 9.75 8.015625 9.75 8.273438 9.910156 8.433594 C 9.988281 8.511719 10.09375 8.550781 10.199219 8.550781 C 10.300781 8.550781 10.40625 8.511719 10.488281 8.433594 L 11.230469 7.6875 L 13.402344 9.863281 L 12.660156 10.605469 C 12.5 10.765625 12.5 11.023438 12.660156 11.183594 C 12.742188 11.265625 12.84375 11.304688 12.949219 11.304688 C 13.054688 11.304688 13.160156 11.265625 13.238281 11.183594 L 13.980469 10.441406 L 16.15625 12.617188 L 15.414062 13.359375 C 15.253906 13.519531 15.253906 13.777344 15.414062 13.9375 C 15.492188 14.015625 15.597656 14.054688 15.703125 14.054688 C 15.808594 14.054688 15.910156 14.015625 15.992188 13.9375 L 16.734375 13.195312 L 18.5625 15.023438 L 17.820312 15.765625 C 17.660156 15.925781 17.660156 16.183594 17.820312 16.34375 C 17.902344 16.425781 18.007812 16.464844 18.109375 16.464844 C 18.214844 16.464844 18.320312 16.425781 18.398438 16.34375 L 19.144531 15.601562 L 20.566406 17.027344 C 20.691406 17.152344 20.691406 17.355469 20.566406 17.480469 C 20.351562 17.695312 20.234375 17.980469 20.234375 18.285156 C 20.234375 18.589844 20.351562 18.875 20.566406 19.09375 L 21.160156 19.683594 L 19.699219 21.144531 C 19.695312 21.152344 19.691406 21.15625 19.6875 21.164062 L 19.09375 20.566406 C 18.871094 20.34375 18.578125 20.234375 18.285156 20.234375 Z M 22.875 22.875 C 22.46875 23.28125 21.808594 23.28125 21.398438 22.875 L 20.261719 21.734375 C 20.265625 21.730469 20.273438 21.730469 20.277344 21.722656 L 21.738281 20.261719 L 22.875 21.398438 C 23.074219 21.597656 23.183594 21.859375 23.183594 22.136719 C 23.183594 22.417969 23.074219 22.679688 22.875 22.875 Z M 22.875 22.875"/>
    <path d="M 3.085938 2.515625 C 2.925781 2.355469 2.667969 2.355469 2.507812 2.515625 C 2.347656 2.675781 2.347656 2.933594 2.507812 3.09375 L 16.957031 17.542969 C 17.035156 17.625 17.140625 17.664062 17.246094 17.664062 C 17.347656 17.664062 17.453125 17.625 17.535156 17.542969 C 17.695312 17.382812 17.695312 17.125 17.535156 16.964844 Z M 3.085938 2.515625"/>
</svg>
