<svg xmlns="http://www.w3.org/2000/svg" width="32" height="32" viewBox="0 0 24 24">
    <path d="M8 13.2a.401.401 0 1 1-.802.002.401.401 0 0 1 .802-.003zm0 0M17.2 13.2a.401.401 0 1 1-.803.002.401.401 0 0 1 .802-.003zm0 0"/>
    <path d="M24 12c0-.813-.082-1.605-.238-2.375h.008l-.09-.371a11.916 11.916 0 0 0-.453-1.484c-.012-.036-.028-.07-.04-.106a14.615 14.615 0 0 0-.238-.57l-.074-.157c-.094-.203-.195-.41-.3-.609-.009-.012-.016-.027-.024-.039-.11-.203-.227-.398-.348-.594-.043-.074-.094-.144-.14-.218a7.6 7.6 0 0 0-.25-.368l-.165-.234c-.12-.16-.242-.316-.367-.473-.07-.086-.144-.168-.218-.254a6.28 6.28 0 0 0-.266-.296c-.035-.04-.07-.082-.11-.122l-.152-.164-.008.004a11.93 11.93 0 0 0-4.18-2.75V.81l-.202-.075a13.948 13.948 0 0 0-.57-.191c-.02-.004-.044-.012-.063-.016a10.067 10.067 0 0 0-.457-.132c-.086-.024-.168-.04-.25-.06C14.71.313 14.62.29 14.53.27a9.139 9.139 0 0 0-.347-.067 13.15 13.15 0 0 0-.586-.094l-.106-.011a8.9 8.9 0 0 0-.465-.051c-.011 0-.023-.004-.039-.004A11.872 11.872 0 0 0 12 0c-.738 0-1.457.07-2.16.2-.016.003-.031.003-.047.007-.152.027-.3.059-.45.094-.038.008-.077.02-.12.027-.13.031-.258.063-.387.098-.063.02-.125.035-.188.054-.109.032-.218.063-.324.098-.086.027-.168.059-.25.086L7.81.758a1.27 1.27 0 0 0-.067.023l-.21.082-.005.004A12.063 12.063 0 0 0 3.473 3.57l-.008-.004-.156.164c-.036.04-.07.083-.11.122-.09.097-.176.195-.261.296-.075.086-.149.168-.22.254-.124.157-.25.313-.366.473-.059.078-.11.156-.168.234-.082.121-.168.243-.247.368a11.226 11.226 0 0 0-.488.813c-.008.01-.015.026-.023.038a14.763 14.763 0 0 0-.375.766c-.082.187-.164.379-.238.57-.012.035-.028.07-.04.106A11.916 11.916 0 0 0 .32 9.254l-.09.371.008.004A11.849 11.849 0 0 0 0 12c0 3.91 1.883 7.39 4.785 9.582v.008l.145.105c.054.04.11.07.164.11.152.105.304.21.46.308.087.055.169.11.255.16.191.118.39.227.59.332.097.055.199.106.3.157a8.992 8.992 0 0 0 .914.402c.157.063.313.121.469.176l.309.105c.222.07.453.133.683.192l.278.066a15.47 15.47 0 0 0 .8.152c.262.043.524.07.793.094.07.008.14.012.211.02.281.02.563.031.844.031s.563-.012.84-.031c.074-.008.144-.012.215-.02a10.708 10.708 0 0 0 .98-.125c.207-.035.41-.078.613-.12.09-.024.184-.044.278-.067.23-.059.457-.121.683-.192l.309-.105c.156-.055.312-.113.469-.176.113-.043.23-.09.343-.137.192-.086.383-.172.57-.265l.302-.153c.199-.109.394-.218.59-.336.085-.05.167-.105.25-.16.16-.097.312-.203.464-.308.055-.04.11-.07.164-.11l.14-.105v-.008C22.118 19.391 24 15.91 24 12zm-5.543 9.145c-.039.027-.074.054-.113.078-.18.125-.364.246-.551.359-.078.047-.16.09-.238.137a10.312 10.312 0 0 1-1.965.886 10.67 10.67 0 0 1-1.754.441l-.149.028a10.928 10.928 0 0 1-.921.098c-.254.015-.508.027-.766.027a12.421 12.421 0 0 1-1.688-.125c-.046-.008-.097-.02-.144-.027-.2-.031-.395-.07-.586-.113a10.542 10.542 0 0 1-1.172-.328c-.14-.047-.281-.098-.418-.149a6.896 6.896 0 0 1-.3-.121 10.57 10.57 0 0 1-.57-.254l-.27-.14a8.198 8.198 0 0 1-.407-.223c-.078-.047-.16-.09-.238-.137a10.24 10.24 0 0 1-.664-.437c-.102-.954-.211-2.02-.316-3.082-.254-2.454-.493-4.766-.625-5.72-.215-1.5-1.364-2.6-3.41-3.269l.011-.035c.047-.184.106-.367.164-.547.012-.043.028-.082.04-.12.058-.161.116-.321.179-.477a11.687 11.687 0 0 1 .27-.637l.035-.07c.086-.188.183-.372.28-.551.028-.051.056-.094.083-.14a7.39 7.39 0 0 1 .223-.38c.046-.074.093-.144.14-.219.059-.093.125-.187.188-.28l.168-.24c.062-.081.125-.163.191-.245.063-.078.121-.16.188-.238.07-.09.148-.176.222-.262l.168-.192 1.688.352a2.123 2.123 0 0 0 2.547-1.867l.261-1.473c.016-.008.035-.012.051-.02.281-.097.563-.183.848-.261.004 0 .008 0 .011-.004.293-.074.59-.14.891-.191l.055-.012c.3-.05.61-.09.914-.117h.004a11.269 11.269 0 0 1 1.851-.012c.024.004.043.004.067.004a12.855 12.855 0 0 1 .96.12c.274.048.544.106.81.169l.085.023c.254.063.504.141.754.223l.133.047.351 1.5c.059.594.368 1.137.844 1.496.488.363 1.11.5 1.703.375l1.688-.352c.058.063.113.13.168.192.078.086.152.172.226.262.063.078.125.16.188.238l.187.246c.059.078.114.156.168.238.067.094.13.188.192.281.047.075.093.145.136.22.079.124.153.25.223.378.027.047.059.09.082.14.102.18.195.364.285.551.012.024.02.047.032.07a11.75 11.75 0 0 1 .273.634c.062.16.121.32.176.48.011.04.027.078.039.121a8.836 8.836 0 0 1 .18.582c-2.051.668-3.196 1.77-3.41 3.27-.137.953-.376 3.265-.626 5.719-.109 1.062-.218 2.128-.32 3.082zm1.125-17.38l-1.176.247a1.322 1.322 0 0 1-1.586-1.188l-.246-1.043a11.203 11.203 0 0 1 3.008 1.985zM7.359 1.81l-.18 1.015a1.322 1.322 0 0 1-1.585 1.188l-1.176-.246c.867-.797 1.86-1.461 2.941-1.957zM.801 12c0-.73.07-1.445.207-2.137 1.687.567 2.633 1.438 2.8 2.594.133.938.38 3.352.622 5.684.078.785.16 1.57.238 2.312A11.17 11.17 0 0 1 .801 12zm18.531 8.453c.078-.742.16-1.527.238-2.312.242-2.332.489-4.746.621-5.684.168-1.156 1.114-2.027 2.801-2.594a11.17 11.17 0 0 1-3.66 10.59zm0 0"/>
    <path d="M7.578 4.809a.401.401 0 0 0-.379.421.402.402 0 0 0 .426.375c.883-.05 1.586.18 2.094.684a.396.396 0 0 0 .562 0 .39.39 0 0 0 0-.562C9.61 5.05 8.7 4.742 7.578 4.809zm0 0M5.066 9.367a.405.405 0 0 0-.566.035.4.4 0 0 0 .035.563c.66.59.996 1.25.996 1.965 0 .222.18.398.399.398a.398.398 0 0 0 .402-.398c0-.953-.426-1.813-1.266-2.563zm0 0M19.492 9.879a.4.4 0 0 0-.566-.566c-.676.675-.98 1.585-.918 2.707.012.21.191.375.398.375h.024a.401.401 0 0 0 .379-.422c-.055-.883.175-1.59.683-2.094zm0 0M14.07 6.29c.485-.481 1.348-.74 2.305-.685a.4.4 0 1 0 .047-.796c-1.18-.07-2.274.273-2.914.918a.396.396 0 0 0 0 .562.396.396 0 0 0 .562 0zm0 0M12 11.2a.398.398 0 0 0-.398.402v.796a.398.398 0 1 0 .796 0v-.796a.398.398 0 0 0-.398-.403zm0 0M16.8 20c-1.277 0-2.402-1.129-2.402-2.414a.398.398 0 1 0-.796 0c0 1.71 1.492 3.215 3.199 3.215a.401.401 0 0 0 0-.801zm0 0M10 17.184a.398.398 0 0 0-.398.402C9.602 18.87 8.477 20 7.199 20a.4.4 0 0 0 0 .8c1.707 0 3.2-1.503 3.2-3.214a.398.398 0 0 0-.399-.402zm0 0M9.2 4.398A.398.398 0 0 0 9.601 4v-.8a.401.401 0 0 0-.801 0V4c0 .223.18.398.398.398zm0 0M14.8 4.398A.398.398 0 0 0 15.2 4v-.8a.4.4 0 0 0-.802 0V4c0 .223.18.398.403.398zm0 0"/>
</svg>
