<svg xmlns="http://www.w3.org/2000/svg" width="32" height="32" viewBox="0 0 24 24">
    <path d="M21.597656 20C21.597656 20.222656 21.421875 20.398438 21.199219 20.398438 20.980469 20.398438 20.800781 20.222656 20.800781 20 20.800781 19.78125 20.980469 19.601562 21.199219 19.601562 21.421875 19.601562 21.597656 19.78125 21.597656 20zM22.800781 16C22.800781 16.222656 22.621094 16.402344 22.398438 16.402344 22.179688 16.402344 22 16.222656 22 16 22 15.78125 22.179688 15.601562 22.398438 15.601562 22.621094 15.601562 22.800781 15.78125 22.800781 16zM14.398438 17.601562C14.398438 17.820312 14.222656 18 14 18 13.777344 18 13.601562 17.820312 13.601562 17.601562 13.601562 17.378906 13.777344 17.199219 14 17.199219 14.222656 17.199219 14.398438 17.378906 14.398438 17.601562zM8.800781 14.800781C8.800781 15.023438 8.621094 15.199219 8.402344 15.199219 8.179688 15.199219 8 15.023438 8 14.800781 8 14.578125 8.179688 14.402344 8.402344 14.402344 8.621094 14.402344 8.800781 14.578125 8.800781 14.800781zM10.398438 13.199219C10.398438 13.421875 10.222656 13.601562 10 13.601562 9.78125 13.601562 9.601562 13.421875 9.601562 13.199219 9.601562 12.980469 9.78125 12.800781 10 12.800781 10.222656 12.800781 10.398438 12.980469 10.398438 13.199219zM15.601562 13.199219C15.601562 13.421875 15.421875 13.601562 15.199219 13.601562 14.980469 13.601562 14.800781 13.421875 14.800781 13.199219 14.800781 12.980469 14.980469 12.800781 15.199219 12.800781 15.421875 12.800781 15.601562 12.980469 15.601562 13.199219zM15.601562 22C15.601562 22.222656 15.421875 22.398438 15.199219 22.398438 14.980469 22.398438 14.800781 22.222656 14.800781 22 14.800781 21.777344 14.980469 21.601562 15.199219 21.601562 15.421875 21.601562 15.601562 21.777344 15.601562 22zM2.800781 20.800781C2.800781 21.019531 2.621094 21.199219 2.402344 21.199219 2.179688 21.199219 2 21.019531 2 20.800781 2 20.578125 2.179688 20.398438 2.402344 20.398438 2.621094 20.398438 2.800781 20.578125 2.800781 20.800781zM2 14.402344C2 14.621094 1.820312 14.800781 1.601562 14.800781 1.378906 14.800781 1.199219 14.621094 1.199219 14.402344 1.199219 14.179688 1.378906 14 1.601562 14 1.820312 14 2 14.179688 2 14.402344zM2 14.402344"/>
    <path d="M 22.394531 7.230469 C 22.394531 6.214844 22.292969 5.21875 22.039062 4.261719 C 21.710938 3.023438 20.753906 1.84375 19.34375 0.9375 C 17.601562 -0.183594 15.144531 -0.308594 12.925781 0.609375 L 12.847656 0.644531 C 12.808594 0.660156 12.773438 0.675781 12.734375 0.691406 C 12.550781 0.753906 12.40625 0.808594 12.289062 0.855469 C 11.921875 0.996094 11.921875 0.996094 11.3125 0.816406 C 9.578125 0.308594 7.371094 -0.203125 5.679688 0.398438 C 3.550781 1.152344 1.652344 3.523438 1.894531 7.203125 C 0.847656 7.210938 0 8.0625 0 9.109375 L 0 22.09375 C 0 23.144531 0.855469 24 1.910156 24 L 22.089844 24 C 23.144531 24 24 23.144531 24 22.09375 L 24 9.109375 C 24 8.160156 23.300781 7.378906 22.394531 7.230469 Z M 5.945312 1.152344 C 6.394531 0.992188 6.902344 0.929688 7.433594 0.929688 C 8.671875 0.929688 10.042969 1.277344 11.085938 1.585938 C 11.882812 1.820312 12.007812 1.820312 12.578125 1.601562 C 12.6875 1.558594 12.824219 1.507812 12.996094 1.445312 C 13.054688 1.425781 13.109375 1.402344 13.164062 1.378906 L 13.230469 1.347656 C 15.210938 0.53125 17.386719 0.628906 18.910156 1.609375 C 20.152344 2.40625 20.988281 3.421875 21.265625 4.46875 C 22.097656 7.617188 21.199219 11.359375 20.402344 14.664062 C 20.257812 15.269531 20.113281 15.863281 19.984375 16.441406 L 19.867188 16.964844 C 19.554688 18.386719 19.234375 19.855469 18.511719 21.121094 C 18.382812 21.34375 18.253906 21.511719 18.136719 21.625 C 18.160156 21.558594 18.1875 21.496094 18.199219 21.429688 L 18.390625 20.476562 C 18.4375 20.261719 18.484375 20.042969 18.53125 19.828125 C 18.613281 19.449219 18.695312 19.066406 18.789062 18.679688 L 18.894531 18.246094 C 19.503906 15.730469 20.523438 11.523438 19.988281 9.5 C 19.652344 8.238281 19.128906 7.394531 18.378906 6.914062 C 17.671875 6.460938 16.777344 6.402344 16.074219 6.402344 C 15.339844 6.402344 14.558594 6.445312 13.800781 6.757812 L 13.761719 6.773438 C 13.679688 6.8125 13.597656 6.84375 13.511719 6.875 C 13.351562 6.929688 13.230469 6.976562 13.132812 7.015625 C 12.835938 7.128906 12.503906 7.257812 12.050781 7.257812 C 11.664062 7.257812 11.332031 7.167969 10.867188 7.03125 C 9.980469 6.773438 8.671875 6.425781 7.558594 6.425781 C 7.125 6.425781 6.757812 6.476562 6.46875 6.578125 C 4.371094 7.320312 3.761719 9.945312 4.082031 12.070312 C 4.15625 12.570312 4.230469 13.070312 4.304688 13.574219 C 4.605469 15.652344 4.9375 17.933594 5.472656 20.121094 C 5.464844 20.105469 5.457031 20.089844 5.453125 20.078125 L 5.40625 19.960938 C 4.050781 16.6875 3.515625 13.007812 2.996094 9.449219 C 2.921875 8.949219 2.851562 8.449219 2.777344 7.953125 C 2.757812 7.824219 2.742188 7.691406 2.730469 7.5625 L 2.710938 7.378906 C 2.5 4.835938 3.390625 2.058594 5.945312 1.152344 Z M 7.40625 20.8125 C 7.355469 20.929688 7.300781 21.039062 7.242188 21.140625 C 7.234375 21.15625 7.222656 21.171875 7.214844 21.1875 C 7.15625 21.289062 7.09375 21.382812 7.023438 21.464844 C 7.011719 21.476562 7.003906 21.488281 6.992188 21.5 C 6.917969 21.582031 6.839844 21.660156 6.746094 21.726562 C 6.746094 21.726562 6.746094 21.726562 6.742188 21.730469 C 5.910156 19.074219 5.476562 16.097656 5.09375 13.460938 C 5.019531 12.953125 4.949219 12.453125 4.871094 11.953125 C 4.601562 10.140625 5.066406 7.925781 6.734375 7.332031 C 6.9375 7.261719 7.214844 7.222656 7.558594 7.222656 C 8.570312 7.222656 9.800781 7.554688 10.640625 7.800781 C 11.140625 7.945312 11.558594 8.058594 12.046875 8.058594 C 12.652344 8.058594 13.09375 7.886719 13.421875 7.761719 C 13.515625 7.726562 13.625 7.679688 13.773438 7.628906 C 13.878906 7.59375 13.976562 7.554688 14.078125 7.511719 L 14.113281 7.496094 C 14.738281 7.238281 15.425781 7.203125 16.074219 7.203125 C 16.957031 7.203125 17.535156 7.320312 17.949219 7.585938 C 18.519531 7.953125 18.933594 8.648438 19.214844 9.703125 C 19.695312 11.53125 18.707031 15.617188 18.117188 18.058594 L 18.011719 18.492188 C 17.917969 18.886719 17.832031 19.277344 17.75 19.660156 C 17.703125 19.875 17.65625 20.089844 17.609375 20.308594 L 17.417969 21.273438 C 17.410156 21.304688 17.402344 21.335938 17.394531 21.367188 C 17.148438 20.992188 16.796875 20.214844 16.550781 19.546875 C 16.589844 19.371094 16.632812 19.195312 16.679688 19.019531 L 16.75 18.75 C 17.316406 16.617188 17.835938 14.429688 17.492188 13.226562 C 17.257812 12.417969 16.867188 11.847656 16.335938 11.535156 C 15.832031 11.238281 15.207031 11.199219 14.714844 11.199219 C 14.207031 11.199219 13.667969 11.226562 13.109375 11.441406 C 13.054688 11.460938 13 11.484375 12.945312 11.5 C 12.84375 11.53125 12.765625 11.558594 12.683594 11.589844 C 12.484375 11.660156 12.277344 11.734375 11.988281 11.734375 C 11.738281 11.734375 11.519531 11.679688 11.214844 11.597656 C 10.605469 11.433594 9.710938 11.214844 8.941406 11.214844 C 8.636719 11.214844 8.378906 11.25 8.167969 11.316406 C 6.667969 11.804688 6.230469 13.515625 6.457031 14.902344 C 6.507812 15.195312 6.554688 15.496094 6.609375 15.832031 C 6.839844 17.285156 7.105469 18.921875 7.558594 20.449219 C 7.515625 20.558594 7.472656 20.664062 7.429688 20.765625 C 7.421875 20.78125 7.414062 20.796875 7.40625 20.8125 Z M 8.042969 19.101562 C 8.039062 19.109375 8.035156 19.121094 8.03125 19.128906 C 7.757812 17.972656 7.566406 16.78125 7.390625 15.671875 C 7.34375 15.367188 7.296875 15.070312 7.246094 14.769531 C 7.074219 13.710938 7.363281 12.417969 8.414062 12.078125 C 8.503906 12.050781 8.667969 12.015625 8.941406 12.015625 C 9.613281 12.015625 10.441406 12.21875 11.003906 12.371094 C 11.347656 12.460938 11.640625 12.535156 11.984375 12.535156 C 12.414062 12.535156 12.722656 12.421875 12.964844 12.335938 C 13.023438 12.316406 13.097656 12.292969 13.1875 12.261719 C 13.261719 12.238281 13.332031 12.214844 13.421875 12.175781 C 13.828125 12.023438 14.285156 12 14.714844 12 C 15.292969 12 15.667969 12.070312 15.929688 12.226562 C 16.285156 12.433594 16.542969 12.835938 16.71875 13.449219 C 17 14.421875 16.484375 16.597656 16.105469 18.050781 C 15.753906 16.703125 15.335938 15.199219 13.980469 14.394531 C 12.457031 13.484375 10.734375 14.050781 9.492188 15.867188 C 8.796875 16.882812 8.414062 18.011719 8.042969 19.101562 Z M 23.199219 22.09375 C 23.199219 22.703125 22.703125 23.199219 22.089844 23.199219 L 1.910156 23.199219 C 1.296875 23.199219 0.800781 22.703125 0.800781 22.09375 L 0.800781 9.109375 C 0.800781 8.5 1.296875 8 1.910156 8 L 1.972656 8 C 1.976562 8.023438 1.980469 8.050781 1.984375 8.074219 C 2.058594 8.566406 2.132812 9.066406 2.203125 9.566406 C 2.730469 13.171875 3.269531 16.902344 4.664062 20.265625 L 4.710938 20.382812 C 5.019531 21.132812 5.515625 22.332031 6.332031 22.585938 L 6.570312 22.695312 L 6.726562 22.636719 L 6.730469 22.636719 L 6.804688 22.605469 C 6.855469 22.582031 6.902344 22.554688 6.949219 22.53125 C 7 22.503906 7.050781 22.480469 7.09375 22.453125 C 7.148438 22.417969 7.199219 22.378906 7.25 22.339844 C 7.292969 22.308594 7.335938 22.28125 7.375 22.246094 C 7.421875 22.207031 7.460938 22.164062 7.503906 22.121094 C 7.539062 22.082031 7.578125 22.046875 7.613281 22.007812 C 7.648438 21.964844 7.679688 21.921875 7.714844 21.875 C 7.746094 21.832031 7.78125 21.792969 7.808594 21.75 C 7.839844 21.703125 7.867188 21.65625 7.894531 21.609375 C 7.921875 21.566406 7.949219 21.523438 7.972656 21.476562 C 8 21.425781 8.023438 21.375 8.050781 21.324219 C 8.070312 21.285156 8.09375 21.242188 8.109375 21.203125 C 8.140625 21.140625 8.164062 21.082031 8.1875 21.023438 C 8.199219 20.992188 8.214844 20.960938 8.226562 20.929688 C 8.265625 20.84375 8.296875 20.757812 8.328125 20.675781 C 8.5 20.238281 8.652344 19.792969 8.800781 19.359375 C 9.167969 18.269531 9.519531 17.242188 10.152344 16.320312 C 10.628906 15.617188 11.921875 14.09375 13.574219 15.078125 C 14.675781 15.734375 15.019531 17.058594 15.355469 18.339844 C 15.449219 18.707031 15.550781 19.085938 15.664062 19.4375 C 15.671875 19.457031 15.679688 19.484375 15.691406 19.519531 C 16.171875 20.984375 16.796875 22.46875 17.769531 22.566406 C 18.292969 22.617188 18.777344 22.265625 19.207031 21.515625 C 19.988281 20.144531 20.324219 18.613281 20.648438 17.136719 L 20.765625 16.613281 C 20.894531 16.042969 21.035156 15.453125 21.179688 14.847656 C 21.703125 12.683594 22.265625 10.328125 22.378906 8.042969 C 22.851562 8.167969 23.199219 8.597656 23.199219 9.109375 Z M 23.199219 22.09375"/>
    <path d="M 11 19.199219 C 10.007812 19.199219 9.199219 20.007812 9.199219 21 C 9.199219 21.992188 10.007812 22.800781 11 22.800781 C 11.992188 22.800781 12.800781 21.992188 12.800781 21 C 12.800781 20.007812 11.992188 19.199219 11 19.199219 Z M 11 22 C 10.449219 22 10 21.550781 10 21 C 10 20.449219 10.449219 20 11 20 C 11.550781 20 12 20.449219 12 21 C 12 21.550781 11.550781 22 11 22 Z M 11 22"/>
</svg>
