<svg xmlns="http://www.w3.org/2000/svg" width="32" height="32" viewBox="0 0 24 24">
    <path d="M 22.957031 1.003906 C 22.925781 0.949219 22.886719 0.898438 22.851562 0.84375 C 22.839844 0.824219 22.828125 0.804688 22.816406 0.789062 C 22.804688 0.773438 22.792969 0.757812 22.78125 0.742188 C 22.765625 0.722656 22.753906 0.703125 22.738281 0.683594 C 22.238281 0.0429688 21.398438 -0.175781 20.691406 0.148438 C 6.753906 6.585938 1.625 19.640625 1.03125 21.273438 L 0.84375 21.589844 L 1.160156 21.8125 C 1.253906 21.878906 1.328125 21.914062 1.40625 21.914062 C 1.585938 21.914062 1.769531 21.691406 2.222656 21.136719 C 10.132812 11.4375 15.292969 7.015625 18.445312 5.011719 C 16.210938 9.417969 11.230469 15.527344 3.953125 22.734375 C 3.238281 23.445312 3.128906 23.554688 3.386719 23.855469 C 3.460938 23.941406 3.574219 24 3.699219 24 C 3.773438 24 3.851562 23.980469 3.929688 23.933594 C 5.351562 23.257812 17.972656 16.910156 23.066406 2.328125 C 23.214844 1.890625 23.179688 1.421875 22.957031 1.003906 Z M 19.058594 3.679688 C 16.148438 5.28125 11.050781 9.246094 2.9375 18.960938 C 5.003906 14.722656 10.023438 6.53125 19.695312 1.558594 C 19.691406 1.585938 19.6875 1.613281 19.683594 1.636719 C 19.664062 1.746094 19.640625 1.859375 19.613281 1.976562 C 19.605469 2.011719 19.597656 2.050781 19.585938 2.085938 C 19.550781 2.238281 19.507812 2.394531 19.460938 2.554688 C 19.460938 2.558594 19.460938 2.558594 19.457031 2.5625 C 19.351562 2.917969 19.21875 3.289062 19.058594 3.679688 Z M 22.277344 2.054688 C 18.441406 13.03125 10.253906 19.234375 6.050781 21.8125 C 14.515625 13.230469 19.453125 6.472656 20.429688 2.136719 C 20.4375 2.101562 20.445312 2.070312 20.453125 2.039062 C 20.492188 1.847656 20.527344 1.660156 20.554688 1.480469 C 20.582031 1.265625 20.726562 1.132812 20.839844 1.054688 C 20.910156 1.007812 20.988281 0.976562 21.070312 0.949219 C 21.09375 0.941406 21.117188 0.9375 21.140625 0.933594 C 21.207031 0.914062 21.273438 0.90625 21.339844 0.902344 C 21.363281 0.902344 21.382812 0.898438 21.40625 0.898438 C 21.484375 0.902344 21.5625 0.910156 21.640625 0.929688 C 21.71875 0.953125 21.792969 0.984375 21.863281 1.027344 C 21.878906 1.035156 21.894531 1.046875 21.910156 1.058594 C 21.976562 1.101562 22.035156 1.152344 22.089844 1.210938 C 22.101562 1.222656 22.113281 1.238281 22.125 1.25 L 22.125 1.253906 L 22.125 1.25 C 22.132812 1.257812 22.136719 1.265625 22.140625 1.273438 C 22.144531 1.28125 22.148438 1.289062 22.15625 1.292969 L 22.152344 1.296875 L 22.15625 1.292969 C 22.179688 1.328125 22.203125 1.359375 22.222656 1.394531 C 22.332031 1.605469 22.351562 1.839844 22.277344 2.054688 Z M 22.277344 2.054688"/>
</svg>
