<svg xmlns="http://www.w3.org/2000/svg" width="32" height="32" viewBox="0 0 24 24">
    <path d="M21.355 17.504v-3.73a2.99 2.99 0 0 0-2.984-2.985h-6.117A7.379 7.379 0 0 0 7.44 9.008c-.433 0-.851.047-1.261.117L4.887 1.371a.44.44 0 0 0-.328-.355L.996.125a.445.445 0 0 0-.215.863l3.278.82 1.253 7.516C2.243 10.242 0 13.086 0 16.45c0 4.102 3.336 7.442 7.441 7.442 4.102 0 7.438-3.34 7.438-7.442 0-.11-.012-.215-.016-.32h5.602v1.367a3.114 3.114 0 0 0-2.695 3.082 3.12 3.12 0 0 0 3.117 3.113A3.12 3.12 0 0 0 24 20.578a3.112 3.112 0 0 0-2.645-3.074zm-7.117-5.379c.246 0 .446-.2.446-.445h.886a.445.445 0 1 0 .89 0h.892a.445.445 0 1 0 .89 0h.13c.28 0 .546.054.792.156a.44.44 0 0 0 .41.289c.024 0 .04-.012.059-.012.422.32.715.797.8 1.344h-.413a.444.444 0 0 0-.887 0h-.89a.445.445 0 1 0-.891 0h-.891a.445.445 0 1 0-.89 0h-.887c0-.246-.2-.445-.446-.445a.47.47 0 0 0-.183.043 6.153 6.153 0 0 0-.254-.442c-.031-.054-.063-.11-.098-.164-.074-.117-.152-.226-.23-.34L13.387 12a4.967 4.967 0 0 0-.246-.32h.652c0 .246.2.445.445.445zm-1.742 4.004a5.054 5.054 0 0 0-1.254-3.027l1.04-1.043c.116.125.23.254.331.39a6.689 6.689 0 0 1 .344.484l.016.028c.101.156.195.32.28.488.009.012.013.028.02.04.086.163.165.331.235.503.004.012.004.02.008.028.004.011.007.02.011.027 0 .008 0 .012.004.02.09.222.16.449.223.675.023.09.05.18.07.274.016.066.031.136.043.203.031.16.059.32.074.484.02.14.024.281.032.426zm-11.578.89h1.484c.11.973.493 1.86 1.075 2.59L2.43 20.656A6.513 6.513 0 0 1 .918 17.02zm1.477-4.742l1.05 1.055a5.058 5.058 0 0 0-1.062 2.797H.906a6.522 6.522 0 0 1 1.489-3.852zm4.722-2.363v1.48a5.043 5.043 0 0 0-3.062 1.29l-1.043-1.047a6.51 6.51 0 0 1 4.105-1.723zm3.48 2.574a5.04 5.04 0 0 0-2.59-1.078V9.93a6.504 6.504 0 0 1 3.641 1.508zM4.095 20.25a5.01 5.01 0 0 0 3.023 1.254v1.48a6.546 6.546 0 0 1-4.07-1.687zm3.914 1.238a5.047 5.047 0 0 0 2.55-1.047l1.051 1.055a6.508 6.508 0 0 1-3.601 1.473zm-.567-.855a4.189 4.189 0 0 1-4.183-4.184 4.189 4.189 0 0 1 4.183-4.183 4.188 4.188 0 0 1 4.18 4.183 4.188 4.188 0 0 1-4.18 4.184zm4.809.246l-1.043-1.043a5.07 5.07 0 0 0 1.273-2.816h1.48a6.511 6.511 0 0 1-1.71 3.859zm2.527-5.64c-.007-.052-.02-.098-.027-.145a6.006 6.006 0 0 0-.168-.707c-.004-.012-.004-.028-.008-.04h5.89v.891zm6.11 7.562a2.227 2.227 0 0 1-2.227-2.223c0-1.082.781-1.984 1.805-2.183v2.183a.445.445 0 1 0 .89 0v-2.172a2.225 2.225 0 0 1 1.754 2.172 2.224 2.224 0 0 1-2.222 2.223zm0 0"/>
    <path d="M6.98 7.676h4.586c.246 0 .446-.2.446-.446v-.675A3.776 3.776 0 0 0 8.238 2.78H6.316a.445.445 0 0 0-.441.52l.668 4.004c.035.21.223.37.437.37zm1.258-4.004c.059 0 .114.004.172.008a.441.441 0 0 0-.402.437.444.444 0 1 0 .89 0 .444.444 0 0 0-.37-.433c.46.046.89.207 1.261.445.008.238.203.43.445.43.024 0 .047-.008.07-.012.145.148.27.308.38.484a.432.432 0 0 0 .171.32c.141.305.23.641.258.993a.44.44 0 0 0-.433.441h-.89a.445.445 0 1 0-.892 0h-.89c0-.246-.2-.445-.445-.445a.445.445 0 0 0-.262.094L6.969 4.44a.438.438 0 0 0-.121-.734l-.008-.035zm0 0"/>
    <path d="M10.68 5.895a.445.445 0 1 1-.89 0 .445.445 0 0 1 .89 0zm0 0M8.898 5.895a.445.445 0 1 1-.89 0 .445.445 0 0 1 .89 0zm0 0M8.008 5.004a.445.445 0 1 1-.89 0 .445.445 0 0 1 .89 0zm0 0M9.79 5.004a.445.445 0 1 1-.891 0 .445.445 0 0 1 .89 0zm0 0M15.57 12.57a.444.444 0 0 1-.886 0 .444.444 0 1 1 .886 0zm0 0M17.352 12.57c0 .242-.2.442-.446.442a.444.444 0 1 1 .446-.442zm0 0M19.133 12.57a.444.444 0 1 1-.445-.445c.246 0 .445.2.445.445zm0 0"/>
</svg>
