<svg xmlns="http://www.w3.org/2000/svg" width="32" height="32" viewBox="0 0 24 24">
    <path d="M4.398 6.8A.398.398 0 0 0 4 6.399H2.398a.401.401 0 0 0 0 .801H4c.223 0 .398-.18.398-.398zm0 0M5.602 4.8H2.398a.4.4 0 0 0 0 .802h3.204a.401.401 0 0 0 0-.801zm0 0M2.398 4H4c.223 0 .398-.18.398-.398A.398.398 0 0 0 4 3.199H2.398a.401.401 0 0 0 0 .801zm0 0"/>
    <path d="M0 1.2v21.6h24V1.2zM23.2 22H.8v-1.602a.398.398 0 1 0 0-.796V18a.4.4 0 0 0 0-.8v-1.598a.401.401 0 0 0 0-.801v-1.602a.4.4 0 0 0 0-.8V10.8A.401.401 0 0 0 .8 10V8.398a.398.398 0 1 0 0-.796V6a.4.4 0 0 0 0-.8V3.601a.401.401 0 0 0 0-.801V2h.802c0 .223.175.398.398.398A.395.395 0 0 0 2.398 2H4c0 .223.18.398.398.398A.398.398 0 0 0 4.801 2h1.597c0 .223.18.398.403.398A.398.398 0 0 0 7.199 2h1.602c0 .223.18.398.398.398A.398.398 0 0 0 9.602 2h1.597c0 .223.18.398.403.398A.398.398 0 0 0 12 2h1.602c0 .223.175.398.398.398A.395.395 0 0 0 14.398 2H16c0 .223.18.398.398.398A.398.398 0 0 0 16.801 2h1.597c0 .223.18.398.403.398A.398.398 0 0 0 19.199 2h1.602c0 .223.18.398.398.398A.398.398 0 0 0 21.602 2h1.597zm0 0"/>
    <path d="M16.434 14.672c.062-.274.128-.559.199-.848.402-1.664.855-3.547.414-5.215-.172-.644-.664-1.257-1.39-1.726-.47-.301-1.036-.457-1.634-.477-.007 0-.015-.008-.023-.008s-.016.008-.023.008a3.978 3.978 0 0 0-1.61.305l-.082.031c-.09.031-.164.063-.219.082-.046.02-.078.035-.101.04-.035 0-.176-.044-.238-.06-.868-.257-1.973-.511-2.848-.202-1.645.585-2.152 2.394-1.918 3.933l.105.723c.254 1.75.52 3.562 1.204 5.21l.02.06c.187.452.5 1.214 1.124 1.214h.082l.078-.031c.524-.223.719-.719.848-1.047.082-.215.156-.43.23-.644.172-.512.336-.997.625-1.418.246-.36.754-.91 1.375-.536.461.274.61.844.766 1.45.05.183.098.367.152.539.27.824.598 1.593 1.196 1.652.343.035.64-.168.89-.61.395-.69.563-1.445.723-2.175zm-.782-.172l-.054.25c-.157.703-.301 1.363-.633 1.95a1.095 1.095 0 0 1-.133.187c-.078-.075-.254-.317-.5-1.078-.05-.16-.094-.329-.137-.496-.183-.7-.39-1.493-1.133-1.934-.84-.5-1.777-.207-2.445.773-.351.512-.539 1.07-.722 1.61-.07.203-.141.41-.22.613-.09.23-.171.41-.292.523-.09-.101-.207-.328-.352-.675l-.023-.059c-.645-1.555-.903-3.32-1.153-5.023l-.105-.727c-.184-1.21.18-2.625 1.395-3.059.195-.066.418-.093.652-.093.57 0 1.21.164 1.703.308.422.125.535.125.855 0 .051-.02.114-.043.192-.07.035-.012.066-.027.125-.05.894-.372 1.871-.329 2.55.109.56.355.93.804 1.051 1.257.387 1.47-.039 3.25-.418 4.82-.07.294-.14.583-.203.864zm0 0M8.398 3.2a.398.398 0 1 1-.796 0 .398.398 0 1 1 .796 0zm0 0M10.8 3.2a.401.401 0 1 1 0 0zm0 0M13.2 3.2a.401.401 0 1 1-.803.002.401.401 0 0 1 .802-.003zm0 0M15.602 3.2a.401.401 0 1 1 0 0zm0 0M18 3.2a.401.401 0 1 1-.802.002.401.401 0 0 1 .802-.003zm0 0M20.398 3.2a.398.398 0 1 1-.796 0 .398.398 0 1 1 .796 0zm0 0M22.8 3.2a.401.401 0 1 1 0 0zm0 0M9.602 4.398a.401.401 0 1 1 0 0zm0 0M12 4.398a.401.401 0 1 1-.802.003.401.401 0 0 1 .802-.003zm0 0M14.398 4.398a.398.398 0 1 1-.796 0 .398.398 0 1 1 .796 0zm0 0M16.8 4.398a.401.401 0 1 1 0 0zm0 0M19.2 4.398a.401.401 0 1 1-.803.003.401.401 0 0 1 .802-.003zm0 0M21.602 4.398a.401.401 0 1 1 0 0zm0 0M8.398 5.602a.398.398 0 1 1-.796 0 .398.398 0 1 1 .796 0zm0 0M6 8c0 .223-.18.398-.398.398a.398.398 0 1 1 0-.796C5.82 7.602 6 7.777 6 8zm0 0M7.2 6.8a.4.4 0 1 1-.801-.003.4.4 0 0 1 .8.004zm0 0M10.8 5.602A.401.401 0 1 1 10 5.597a.401.401 0 0 1 .802.005zm0 0M13.2 5.602a.4.4 0 1 1-.801-.004.4.4 0 0 1 .8.004zm0 0M15.602 5.602a.401.401 0 1 1-.802-.005.401.401 0 0 1 .802.005zm0 0M18 5.602a.4.4 0 1 1-.8-.004.4.4 0 0 1 .8.004zm0 0M18 8c0 .223-.18.398-.398.398a.398.398 0 1 1 0-.796c.218 0 .398.175.398.398zm0 0M16.8 6.8A.401.401 0 1 1 16 6.797a.401.401 0 0 1 .802.005zm0 0M19.2 6.8a.4.4 0 1 1-.801-.003.4.4 0 0 1 .8.004zm0 0M20.398 5.602a.398.398 0 1 1-.796 0 .398.398 0 1 1 .796 0zm0 0M20.398 8a.395.395 0 0 1-.398.398.395.395 0 0 1-.398-.398c0-.223.175-.398.398-.398.223 0 .398.175.398.398zm0 0M21.602 6.8a.401.401 0 1 1-.802-.004.401.401 0 0 1 .802.005zm0 0M22.8 5.602A.401.401 0 1 1 22 5.597a.401.401 0 0 1 .802.005zm0 0M22.8 8c0 .223-.179.398-.402.398a.398.398 0 1 1 0-.796c.223 0 .403.175.403.398zm0 0M2.398 9.2a.398.398 0 1 1-.796 0 .398.398 0 1 1 .796 0zm0 0M4.8 9.2a.401.401 0 1 1 0 0zm0 0M19.2 9.2a.401.401 0 1 1-.803.002.401.401 0 0 1 .802-.003zm0 0M21.602 9.2a.401.401 0 1 1 0 0zm0 0M3.602 10.398a.401.401 0 1 1 0 0zm0 0M3.602 12.8a.401.401 0 1 1-.802-.004.401.401 0 0 1 .802.005zm0 0M2.398 11.602a.398.398 0 1 1-.796 0 .398.398 0 1 1 .796 0zm0 0M4.8 11.602A.401.401 0 1 1 4 11.597a.401.401 0 0 1 .802.005zm0 0M6 10.398a.401.401 0 1 1-.802.003.401.401 0 0 1 .802-.003zm0 0M6 12.8a.4.4 0 1 1-.8-.003.4.4 0 0 1 .8.004zm0 0M18 12.8a.4.4 0 1 1-.8-.003.4.4 0 0 1 .8.004zm0 0M19.2 11.602a.4.4 0 1 1-.801-.004.4.4 0 0 1 .8.004zm0 0M20.398 10.398a.398.398 0 1 1-.796 0 .398.398 0 1 1 .796 0zm0 0M20.398 12.8a.398.398 0 1 1-.796 0 .398.398 0 1 1 .796 0zm0 0M21.602 11.602a.401.401 0 1 1-.802-.005.401.401 0 0 1 .802.005zm0 0M22.8 10.398a.401.401 0 1 1 0 0zm0 0M22.8 12.8a.401.401 0 1 1-.801-.004.401.401 0 0 1 .802.005zm0 0M2.398 14a.395.395 0 0 1-.398.398.395.395 0 0 1-.398-.398c0-.223.175-.398.398-.398.223 0 .398.175.398.398zm0 0M4.8 14c0 .223-.179.398-.402.398a.398.398 0 1 1 0-.796c.223 0 .403.175.403.398zm0 0M7.2 14c0 .223-.18.398-.4.398a.398.398 0 1 1 0-.796c.22 0 .4.175.4.398zm0 0M19.2 14c0 .223-.18.398-.4.398a.398.398 0 1 1 0-.796c.22 0 .4.175.4.398zm0 0M21.602 14c0 .223-.18.398-.403.398a.398.398 0 1 1 0-.796c.223 0 .403.175.403.398zm0 0M3.602 15.2a.401.401 0 1 1 0 0zm0 0M3.602 17.602a.401.401 0 1 1-.802-.005.401.401 0 0 1 .802.005zm0 0M2.398 16.398a.398.398 0 1 1-.796 0 .398.398 0 1 1 .796 0zm0 0M4.8 16.398a.401.401 0 1 1 0 0zm0 0M6 15.2a.401.401 0 1 1-.802.002.401.401 0 0 1 .802-.003zm0 0M6 17.602a.4.4 0 1 1-.8-.004.4.4 0 0 1 .8.004zm0 0M8.398 17.602a.398.398 0 1 1-.796 0 .398.398 0 1 1 .796 0zm0 0M7.2 16.398a.401.401 0 1 1-.803.003.401.401 0 0 1 .802-.003zm0 0"/>
    <path d="M13.2 17.602a.4.4 0 1 1-.801-.004.4.4 0 0 1 .8.004zm0 0M12 16.398a.401.401 0 1 1-.802.003.401.401 0 0 1 .802-.003zm0 0M18 15.2a.401.401 0 1 1-.802.002.401.401 0 0 1 .802-.003zm0 0M18 17.602a.4.4 0 1 1-.8-.004.4.4 0 0 1 .8.004zm0 0M19.2 16.398a.401.401 0 1 1-.803.003.401.401 0 0 1 .802-.003zm0 0M20.398 15.2a.398.398 0 1 1-.796 0 .398.398 0 1 1 .796 0zm0 0M20.398 17.602a.398.398 0 1 1-.796 0 .398.398 0 1 1 .796 0zm0 0M21.602 16.398a.401.401 0 1 1 0 0zm0 0M22.8 15.2a.401.401 0 1 1 0 0zm0 0M22.8 17.602a.401.401 0 1 1-.801-.005.401.401 0 0 1 .802.005zm0 0M2.398 18.8a.398.398 0 1 1-.796 0 .398.398 0 1 1 .796 0zm0 0M4.8 18.8A.401.401 0 1 1 4 18.797a.401.401 0 0 1 .802.005zm0 0M7.2 18.8a.4.4 0 1 1-.801-.003.4.4 0 0 1 .8.004zm0 0M9.602 18.8a.401.401 0 1 1-.802-.004.401.401 0 0 1 .802.005zm0 0M12 18.8a.4.4 0 1 1-.8-.003.4.4 0 0 1 .8.004zm0 0M14.398 18.8a.398.398 0 1 1-.796 0 .398.398 0 1 1 .796 0zm0 0M16.8 18.8a.401.401 0 1 1-.801-.004.401.401 0 0 1 .802.005zm0 0M19.2 18.8a.4.4 0 1 1-.801-.003.4.4 0 0 1 .8.004zm0 0M21.602 18.8a.401.401 0 1 1-.802-.004.401.401 0 0 1 .802.005zm0 0M3.602 20c0 .223-.18.398-.403.398a.398.398 0 1 1 0-.796c.223 0 .403.175.403.398zm0 0M2.398 21.2a.398.398 0 1 1-.796 0 .398.398 0 1 1 .796 0zm0 0M4.8 21.2a.401.401 0 1 1 0 0zm0 0M6 20c0 .223-.18.398-.398.398a.398.398 0 1 1 0-.796c.218 0 .398.175.398.398zm0 0M8.398 20a.395.395 0 0 1-.398.398.395.395 0 0 1-.398-.398c0-.223.175-.398.398-.398.223 0 .398.175.398.398zm0 0M7.2 21.2a.401.401 0 1 1-.803.002.401.401 0 0 1 .802-.003zm0 0M9.602 21.2a.401.401 0 1 1 0 0zm0 0M10.8 20c0 .223-.179.398-.402.398a.398.398 0 1 1 0-.796c.223 0 .403.175.403.398zm0 0M13.2 20c0 .223-.18.398-.4.398a.398.398 0 1 1 0-.796c.22 0 .4.175.4.398zm0 0M12 21.2a.401.401 0 1 1-.802.002.401.401 0 0 1 .802-.003zm0 0M14.398 21.2a.398.398 0 1 1-.796 0 .398.398 0 1 1 .796 0zm0 0M15.602 20c0 .223-.18.398-.403.398a.398.398 0 1 1 0-.796c.223 0 .403.175.403.398zm0 0M18 20c0 .223-.18.398-.398.398a.398.398 0 1 1 0-.796c.218 0 .398.175.398.398zm0 0M16.8 21.2a.401.401 0 1 1 0 0zm0 0M19.2 21.2a.401.401 0 1 1-.803.002.401.401 0 0 1 .802-.003zm0 0M20.398 20a.395.395 0 0 1-.398.398.395.395 0 0 1-.398-.398c0-.223.175-.398.398-.398.223 0 .398.175.398.398zm0 0M21.602 21.2a.401.401 0 1 1 0 0zm0 0M22.8 20c0 .223-.179.398-.402.398a.398.398 0 1 1 0-.796c.223 0 .403.175.403.398zm0 0"/>
</svg>
