<svg xmlns="http://www.w3.org/2000/svg" width="32" height="32" viewBox="0 0 24 24">
    <path d="M8.8 16.184a1.6 1.6 0 0 0-1.6 1.597c0 .883.718 1.602 1.6 1.602a1.6 1.6 0 0 0 0-3.2zm0 2.398a.802.802 0 0 1 0-1.602.802.802 0 0 1 0 1.602zm0 0M15.18 19.383a1.6 1.6 0 0 0 0-3.2 1.6 1.6 0 0 0-1.602 1.598c0 .883.719 1.602 1.602 1.602zm0-2.403a.802.802 0 0 1 0 1.602.802.802 0 0 1 0-1.602zm0 0"/>
    <path d="M24 4.184a.401.401 0 0 0-.398-.403h-3.684a2.215 2.215 0 0 0-1.652-1.55 2.213 2.213 0 0 0-1.723.351L14 2.562c0-.117 0-.226-.004-.335-.016-.497 0-.664.211-.793.246-.149.484-.32.707-.512a.405.405 0 0 0 .04-.567.397.397 0 0 0-.563-.039c-.188.16-.391.305-.598.43-.629.383-.613 1.004-.598 1.5.004.102.008.2.004.305a.827.827 0 0 0 .239.59.794.794 0 0 0 .574.242h2.531a.852.852 0 0 0 .477-.153c.222-.156.593-.32 1.078-.214.433.09.789.386.972.765H4.93a1.41 1.41 0 0 1 .972-.765c.485-.106.856.058 1.078.214a.852.852 0 0 0 .477.153h2.531a.807.807 0 0 0 .575-.238.842.842 0 0 0 .238-.594c0-.102 0-.203.004-.301.015-.5.03-1.125-.598-1.5a4.7 4.7 0 0 1-.602-.434.4.4 0 0 0-.562.04.402.402 0 0 0 .043.566c.219.187.457.36.707.512.21.125.227.296.21.793-.003.109-.003.218-.015.355L7.434 2.57a2.184 2.184 0 0 0-1.7-.34c-.8.172-1.437.786-1.652 1.551H.398a.401.401 0 0 0 0 .801h4.395L3.57 6.188a.397.397 0 0 0-.37.394c0 .027.01.047.015.074l-.227.297c-.062-.008-.125-.02-.187-.02-.496 0-.934.231-1.23.587a.333.333 0 0 0 .03-.137.401.401 0 1 0-.402.398c.094 0 .18-.035.246-.09a1.592 1.592 0 0 0-.246.844c0 .016.004.031.008.047h-.008a.401.401 0 0 0 0 .8.36.36 0 0 0 .211-.07c.063.114.137.22.223.313a.413.413 0 0 0-.031.156c0 .223.175.403.398.403a.386.386 0 0 0 .297-.141c.16.055.328.09.504.09.062 0 .125-.012.187-.02l.73.895c-.038-.012-.077-.024-.116-.024a.398.398 0 1 0 0 .797.398.398 0 0 0 .398-.398c0-.016-.008-.031-.008-.047l.371.453a.399.399 0 0 0-.363.395.4.4 0 0 0 .398.398.394.394 0 0 0 .38-.289l.265.324a.389.389 0 0 0-.242.363c0 .223.18.403.398.403a.391.391 0 0 0 .324-.18l.227.274a.398.398 0 0 0 .25.707c.098 0 .18-.04.25-.098l.227.273a.385.385 0 0 0-.079.223c0 .223.18.398.403.398a.398.398 0 0 0 .398-.398.378.378 0 0 0-.078-.227.399.399 0 0 0-.012-.484l-3.343-4.07c.382-.293.632-.75.632-1.266 0-.523-.253-.98-.64-1.273l2.039-2.68h5.805v.8H8.5a.401.401 0 1 0 0 .802h3.102v.796H6.898a.401.401 0 0 0 0 .801h4.704v.801H6.898a.4.4 0 0 0 0 .8h4.704v.802H8.5a.398.398 0 1 0 0 .796h3.102v.801H9.3a.401.401 0 0 0 0 .8l2.3.001v1.602h-1.203c-.34 0-.734.02-1.07.238l-.324.191-.074.063c-.336.328-.801.465-1.215.355-.383-.101-.926-.086-1.442.063A.404.404 0 0 0 6 14.98a.398.398 0 0 0-.398.403v.008c-.172.109-.317.246-.434.398a.396.396 0 0 0-.367.395c0 .078.027.152.07.214-.094.364-.09.762.02 1.137a.396.396 0 0 0 .308.649c.004 0 .004-.004.008-.004.063.09.133.175.207.254l.188.16A.4.4 0 0 0 6 18.98c.016 0 .027-.003.04-.007l.378.328c-.008.027-.02.054-.02.082a.401.401 0 0 0 .543.37l.497.43h-1.04a.398.398 0 1 0-.796 0H4.8a.401.401 0 0 0-.8 0h-.802a.401.401 0 1 0-.8 0h-.797a.401.401 0 0 0-.8 0H.397a.398.398 0 1 0 0 .797h4.055l.399 2.801h14.296l.399-2.8h4.055a.398.398 0 1 0 0-.797h-.403a.401.401 0 1 0-.8 0h-.797a.401.401 0 0 0-.8 0h-.802a.401.401 0 1 0-.8 0h-.802a.398.398 0 1 0-.796 0h-.985l.5-.418a.304.304 0 0 0 .082.015c.223 0 .403-.18.403-.398l-.004-.016.484-.402a.389.389 0 0 0 .29-.242l.312-.258c.093-.094.18-.2.253-.309a.399.399 0 0 0 .262-.375c0-.039-.012-.074-.023-.113.05-.148.094-.297.11-.45a.394.394 0 0 0 .316.165.401.401 0 0 0 0-.801c-.137 0-.25.07-.325.176-.015-.153-.05-.301-.105-.445a.345.345 0 0 0 .027-.13.397.397 0 0 0-.324-.386 1.843 1.843 0 0 0-.48-.395c0-.007.003-.011.003-.02A.398.398 0 0 0 18 14.98a.39.39 0 0 0-.293.133c-.441-.133-.895-.175-1.219-.12-.644.1-1.086-.009-1.351-.337l-.317-.289-.062-.027a1.96 1.96 0 0 0-.778-.156h-1.582v-1.602h2.5a.401.401 0 1 0 0-.8h-2.5v-.798H15.7c.223 0 .399-.18.399-.402a.398.398 0 0 0-.399-.398h-3.3v-.801H17.3a.4.4 0 0 0 0-.801h-4.903v-.8h4.903a.398.398 0 1 0 0-.798h-4.903v-.8H15.7c.223 0 .399-.18.399-.403a.398.398 0 0 0-.399-.398h-3.3v-.801h5.421l2.399 2.7a1.584 1.584 0 0 0-.617 1.253c0 .516.25.973.632 1.266l-3.343 4.07a.399.399 0 0 0-.012.484.387.387 0 0 0-.078.227c0 .223.18.398.398.398a.398.398 0 0 0 .403-.398.385.385 0 0 0-.079-.223l.227-.273c.07.059.152.098.25.098a.398.398 0 0 0 .25-.707l.227-.274c.07.106.187.18.324.18a.4.4 0 0 0 .156-.766l.266-.324a.39.39 0 0 0 .375.289c.222 0 .402-.18.402-.398a.399.399 0 0 0-.363-.395l.37-.453c0 .016-.007.031-.007.047a.4.4 0 1 0 .398-.403c-.039 0-.078.016-.117.028l.73-.895c.063.008.126.02.188.02.176 0 .344-.035.504-.09.074.086.176.14.297.14.223 0 .398-.18.398-.402a.45.45 0 0 0-.03-.16c.085-.094.16-.195.222-.309a.39.39 0 0 0 .21.07.401.401 0 0 0 0-.8h-.007c.004-.016.008-.031.008-.047 0-.312-.094-.598-.246-.844.066.055.152.09.246.09a.4.4 0 1 0-.403-.398c0 .047.012.094.032.137a1.599 1.599 0 0 0-1.23-.586c-.071 0-.134.011-.204.02l-.219-.25c.012-.04.024-.079.024-.122a.401.401 0 0 0-.403-.398c-.023 0-.046.007-.074.015l-1.433-1.617h4.71A.4.4 0 0 0 24 4.184zM2.8 7.734a.802.802 0 0 1 0 1.602.802.802 0 0 1 0-1.602zm8.802 15.246H5.547l-.285-2h6.34zm7.136-2l-.285 2h-6.055v-2zm-4.758-6c.141 0 .278.028.41.075l.145.133c.32.374.934.773 2.078.593.5-.078 1.453.2 1.703.586.305.469.223 1.11-.171 1.508l-2.778 2.309h-2.523a1.046 1.046 0 0 0-.774-.582L12 19.59l-.07.012c-.34.058-.625.277-.77.582H8.656l-2.695-2.336c-.383-.38-.477-1.11-.2-1.532.278-.425 1.22-.648 1.747-.511.676.18 1.414-.024 1.949-.528l.297-.175c.148-.098.348-.118.644-.118h1.2v.399c0 .222.18.398.402.398a.398.398 0 0 0 .398-.398v-.399h1.582zM22 8.535a.802.802 0 0 1-1.602 0 .802.802 0 0 1 1.602 0zm0 0"/>
    <path d="M.8 4.98a.401.401 0 1 1 0 0zm0 0M2.398 4.98a.398.398 0 1 1-.796 0 .398.398 0 1 1 .796 0zm0 0M4 4.98a.401.401 0 1 1-.802.003A.401.401 0 0 1 4 4.98zm0 0M3.2 5.781a.401.401 0 1 1-.803.003.401.401 0 0 1 .802-.003zm0 0M1.602 5.781a.401.401 0 1 1 0 0zm0 0M2.398 6.582A.395.395 0 0 1 2 6.98a.395.395 0 0 1-.398-.398.398.398 0 1 1 .796 0zm0 0M.8 8.184A.401.401 0 1 1 0 8.179a.401.401 0 0 1 .802.005zm0 0M1.602 10.582c0 .223-.18.398-.403.398a.398.398 0 1 1 0-.796c.223 0 .403.18.403.398zm0 0M3.2 10.582c0 .223-.18.398-.4.398a.398.398 0 1 1 0-.796.4.4 0 0 1 .4.398zm0 0M.8 9.781a.401.401 0 1 1 0 0zm0 0M.8 11.383A.401.401 0 1 1 0 11.378a.401.401 0 0 1 .802.005zm0 0M2.398 11.383a.398.398 0 1 1-.796 0 .398.398 0 1 1 .796 0zm0 0M1.602 12.184a.401.401 0 1 1-.802-.005.401.401 0 0 1 .802.005zm0 0M3.2 12.184a.4.4 0 1 1-.801-.004.4.4 0 0 1 .8.004zm0 0M.8 12.98a.401.401 0 1 1 0 0zm0 0M2.398 12.98a.398.398 0 1 1-.796 0 .398.398 0 1 1 .796 0zm0 0M4 12.98a.401.401 0 1 1-.802.003A.401.401 0 0 1 4 12.98zm0 0M1.602 13.781a.401.401 0 1 1 0 0zm0 0M3.2 13.781a.401.401 0 1 1-.803.003.401.401 0 0 1 .802-.003zm0 0M.8 14.582c0 .223-.179.398-.402.398a.398.398 0 1 1 0-.796c.223 0 .403.18.403.398zm0 0M2.398 14.582A.395.395 0 0 1 2 14.98a.395.395 0 0 1-.398-.398.398.398 0 1 1 .796 0zm0 0M4 14.582c0 .223-.18.398-.398.398a.398.398 0 1 1 0-.796.4.4 0 0 1 .398.398zm0 0M5.602 14.582c0 .223-.18.398-.403.398a.398.398 0 1 1 0-.796c.223 0 .403.18.403.398zm0 0M4.8 13.781a.401.401 0 1 1 0 0zm0 0M1.602 15.383a.401.401 0 1 1-.802-.005.401.401 0 0 1 .802.005zm0 0M3.2 15.383a.4.4 0 1 1-.801-.004.4.4 0 0 1 .8.004zm0 0M.8 16.184A.401.401 0 1 1 0 16.179a.401.401 0 0 1 .802.005zm0 0M2.398 16.184a.398.398 0 1 1-.796 0 .398.398 0 1 1 .796 0zm0 0M4 16.184a.4.4 0 1 1-.8-.004.4.4 0 0 1 .8.004zm0 0M4.8 15.383A.401.401 0 1 1 4 15.378a.401.401 0 0 1 .802.005zm0 0M4.8 16.98a.401.401 0 1 1 0 0zm0 0M1.602 16.98a.401.401 0 1 1 0 0zm0 0M3.2 16.98a.401.401 0 1 1-.803.003.401.401 0 0 1 .802-.003zm0 0M.8 17.781a.401.401 0 1 1 0 0zm0 0M2.398 17.781a.398.398 0 1 1-.796 0 .398.398 0 1 1 .796 0zm0 0M4 17.781a.401.401 0 1 1-.802.003.401.401 0 0 1 .802-.003zm0 0M1.602 18.582c0 .223-.18.398-.403.398a.398.398 0 1 1 0-.796c.223 0 .403.18.403.398zm0 0M3.2 18.582c0 .223-.18.398-.4.398a.398.398 0 1 1 0-.796.4.4 0 0 1 .4.398zm0 0M.8 19.383A.401.401 0 1 1 0 19.378a.401.401 0 0 1 .802.005zm0 0M2.398 19.383a.398.398 0 1 1-.796 0 .398.398 0 1 1 .796 0zm0 0M4 19.383a.4.4 0 1 1-.8-.004.4.4 0 0 1 .8.004zm0 0M5.602 19.383a.401.401 0 1 1-.802-.005.401.401 0 0 1 .802.005zm0 0M4.8 18.582c0 .223-.179.398-.402.398a.398.398 0 1 1 0-.796c.223 0 .403.18.403.398zm0 0M.8 6.582c0 .223-.179.398-.402.398a.398.398 0 1 1 0-.796c.223 0 .403.18.403.398zm0 0M24 4.98a.401.401 0 1 1-.802.003A.401.401 0 0 1 24 4.98zm0 0M22.398 4.98a.398.398 0 1 1-.796 0 .398.398 0 1 1 .796 0zm0 0M20.8 4.98a.401.401 0 1 1 0 0zm0 0M21.602 5.781a.401.401 0 1 1 0 0zm0 0M23.2 5.781a.401.401 0 1 1-.803.003.401.401 0 0 1 .802-.003zm0 0M22.398 6.582A.395.395 0 0 1 22 6.98a.395.395 0 0 1-.398-.398.398.398 0 1 1 .796 0zm0 0M24 8.184a.4.4 0 1 1-.8-.004.4.4 0 0 1 .8.004zm0 0M23.2 10.582c0 .223-.18.398-.4.398a.398.398 0 1 1 0-.796.4.4 0 0 1 .4.398zm0 0M21.602 10.582c0 .223-.18.398-.403.398a.398.398 0 1 1 0-.796c.223 0 .403.18.403.398zm0 0M24 9.781a.401.401 0 1 1-.802.003.401.401 0 0 1 .802-.003zm0 0M24 11.383a.4.4 0 1 1-.8-.004.4.4 0 0 1 .8.004zm0 0M22.398 11.383a.398.398 0 1 1-.796 0 .398.398 0 1 1 .796 0zm0 0M23.2 12.184a.4.4 0 1 1-.801-.004.4.4 0 0 1 .8.004zm0 0M21.602 12.184a.401.401 0 1 1-.802-.005.401.401 0 0 1 .802.005zm0 0M24 12.98a.401.401 0 1 1-.802.003.401.401 0 0 1 .802-.003zm0 0M22.398 12.98a.398.398 0 1 1-.796 0 .398.398 0 1 1 .796 0zm0 0M20.8 12.98a.401.401 0 1 1 0 0zm0 0M23.2 13.781a.401.401 0 1 1-.803.003.401.401 0 0 1 .802-.003zm0 0M21.602 13.781a.401.401 0 1 1 0 0zm0 0M24 14.582c0 .223-.18.398-.398.398a.398.398 0 1 1 0-.796.4.4 0 0 1 .398.398zm0 0M22.398 14.582a.395.395 0 0 1-.398.398.395.395 0 0 1-.398-.398.398.398 0 1 1 .796 0zm0 0M20.8 14.582c0 .223-.179.398-.402.398a.398.398 0 1 1 0-.796c.223 0 .403.18.403.398zm0 0M19.2 14.582c0 .223-.18.398-.4.398a.398.398 0 1 1 0-.796.4.4 0 0 1 .4.398zm0 0M20 13.781a.401.401 0 1 1-.802.003.401.401 0 0 1 .802-.003zm0 0M23.2 15.383a.4.4 0 1 1-.801-.004.4.4 0 0 1 .8.004zm0 0M21.602 15.383a.401.401 0 1 1-.802-.005.401.401 0 0 1 .802.005zm0 0M24 16.184a.4.4 0 1 1-.8-.004.4.4 0 0 1 .8.004zm0 0M22.398 16.184a.398.398 0 1 1-.796 0 .398.398 0 1 1 .796 0zm0 0M20.8 16.184a.401.401 0 1 1-.801-.005.401.401 0 0 1 .802.005zm0 0M20 15.383a.4.4 0 1 1-.8-.004.4.4 0 0 1 .8.004zm0 0M23.2 16.98a.401.401 0 1 1-.803.003.401.401 0 0 1 .802-.003zm0 0M21.602 16.98a.401.401 0 1 1 0 0zm0 0M24 17.781a.401.401 0 1 1-.802.003.401.401 0 0 1 .802-.003zm0 0M22.398 17.781a.398.398 0 1 1-.796 0 .398.398 0 1 1 .796 0zm0 0M20.8 17.781a.401.401 0 1 1 0 0zm0 0M23.2 18.582c0 .223-.18.398-.4.398a.398.398 0 1 1 0-.796.4.4 0 0 1 .4.398zm0 0M21.602 18.582c0 .223-.18.398-.403.398a.398.398 0 1 1 0-.796c.223 0 .403.18.403.398zm0 0M24 19.383a.4.4 0 1 1-.8-.004.4.4 0 0 1 .8.004zm0 0M22.398 19.383a.398.398 0 1 1-.796 0 .398.398 0 1 1 .796 0zm0 0M20.8 19.383a.401.401 0 1 1-.801-.005.401.401 0 0 1 .802.005zm0 0M19.2 19.383a.4.4 0 1 1-.801-.004.4.4 0 0 1 .8.004zm0 0M20 18.582c0 .223-.18.398-.398.398a.398.398 0 1 1 0-.796.4.4 0 0 1 .398.398zm0 0M24 6.582c0 .223-.18.398-.398.398a.398.398 0 1 1 0-.796.4.4 0 0 1 .398.398zm0 0"/>
</svg>
