<svg xmlns="http://www.w3.org/2000/svg" width="32" height="32" viewBox="0 0 24 24">
    <path d="M20.2 0H3.761A3.756 3.756 0 0 0 0 3.762v16.476A3.756 3.756 0 0 0 3.762 24h16.476C22.32 24 24 22.32 24 20.2V3.761C24 1.68 22.32 0 20.2 0zm2.96 20.238c0 1.64-1.32 2.961-2.96 2.961H3.761C2.122 23.2.8 21.88.8 20.2V3.762C.8 2.122 2.12.8 3.76.8h16.477c1.64 0 2.961 1.32 2.922 2.96zm0 0"/>
    <path d="M18.48 2.398H5.52A3.127 3.127 0 0 0 2.398 5.52v12.96a3.127 3.127 0 0 0 3.122 3.122h12.96a3.127 3.127 0 0 0 3.122-3.122V5.52a3.127 3.127 0 0 0-3.122-3.122zM20.8 18.48a2.32 2.32 0 0 1-2.32 2.32H5.52a2.32 2.32 0 0 1-2.32-2.32V5.52A2.32 2.32 0 0 1 5.52 3.2h12.96a2.32 2.32 0 0 1 2.32 2.32zm0 0"/>
    <path d="M12 4c-4.398 0-8 3.602-8 8s3.602 8 8 8 8-3.602 8-8-3.602-8-8-8zm0 15.2c-3.96 0-7.2-3.24-7.2-7.2S8.04 4.8 12 4.8s7.2 3.24 7.2 7.2-3.24 7.2-7.2 7.2zm0 0"/>
    <path d="M14.016 10.543c.324.223.714.336 1.105.336.52 0 1.04-.2 1.399-.64.402-.36.601-.88.601-1.4 0-.519-.242-1-.601-1.398a1.866 1.866 0 0 0-1.399-.601 2.03 2.03 0 0 0-1.402.601c-.664.7-.746 1.766-.25 2.528L12 11.44l-1.45-1.453c.52-.793.442-1.875-.23-2.547-.8-.8-2.082-.8-2.84 0-.761.797-.761 2.079 0 2.84.36.399.88.598 1.399.598.387 0 .773-.11 1.11-.328L11.44 12l-1.46 1.457c-.79-.492-1.84-.434-2.5.262-.403.36-.602.883-.602 1.402 0 .52.242 1 .601 1.399.36.402.88.601 1.399.601.562 0 1.043-.2 1.441-.601a1.88 1.88 0 0 0 .602-1.399c0-.398-.14-.793-.367-1.117L12 12.559l1.46 1.46c-.487.79-.401 1.84.259 2.5.36.403.883.602 1.402.602.52 0 1.04-.2 1.399-.64.402-.36.601-.88.601-1.403 0-.52-.242-1.039-.601-1.398a1.88 1.88 0 0 0-1.399-.602c-.398 0-.793.14-1.117.367L12.559 12zm.265-2.504c.2-.238.52-.36.84-.36.32 0 .598.122.84.36.238.2.36.52.36.84 0 .32-.122.601-.36.84-.344.344-.906.418-1.348.226l.785-.785a.385.385 0 0 0 0-.558.385.385 0 0 0-.558 0l-.8.8a1.18 1.18 0 0 1 .241-1.363zM8.04 9.72c-.48-.438-.48-1.2 0-1.68.242-.238.52-.36.84-.36.32 0 .64.122.84.36.383.352.46.902.234 1.356l-.793-.793a.385.385 0 0 0-.558 0 .385.385 0 0 0 0 .558l.8.8A1.18 1.18 0 0 1 8.04 9.72zm2.04 5.402c0 .32-.118.598-.36.84-.438.437-1.239.437-1.68 0-.238-.2-.36-.52-.36-.84 0-.32.122-.601.36-.84.242-.242.52-.36.84-.36.184 0 .363.036.523.114l-.8.805a.385.385 0 0 0 0 .558c.078.082.16.122.277.122.121 0 .2-.04.281-.122l.805-.8c.078.16.113.34.113.523zm5.042-1.2c.32 0 .598.118.84.36.238.2.36.52.36.84 0 .32-.122.598-.36.84-.441.437-1.242.437-1.68 0-.242-.2-.36-.52-.36-.84 0-.187.04-.36.122-.52l.797.797c.082.082.16.122.281.122.078 0 .2-.04.277-.122a.385.385 0 0 0 0-.558l-.8-.805c.16-.078.34-.113.523-.113zm0 0"/>
</svg>
