<svg xmlns="http://www.w3.org/2000/svg" width="32" height="32" viewBox="0 0 24 24">
    <path d="M12 0C5.398 0 0 5.398 0 12s5.398 12 12 12 12-5.398 12-12S18.602 0 12 0zm0 23.2C5.84 23.2.8 18.16.8 12 .8 5.84 5.84.8 12 .8 18.16.8 23.2 5.84 23.2 12c0 6.16-5.04 11.2-11.2 11.2zm0 0"/>
    <path d="M12 3.2c-4.84 0-8.8 3.96-8.8 8.8 0 4.84 3.96 8.8 8.8 8.8 4.84 0 8.8-3.96 8.8-8.8 0-4.84-3.96-8.8-8.8-8.8zM12 20c-4.398 0-8-3.602-8-8s3.602-8 8-8 8 3.602 8 8-3.602 8-8 8zm0 0"/>
    <path d="M8.8 6.398a2.41 2.41 0 0 0-2.402 2.403 2.407 2.407 0 0 0 2.403 2.398 2.404 2.404 0 0 0 2.398-2.398 2.407 2.407 0 0 0-2.398-2.403zm0 4a1.605 1.605 0 0 1-1.6-1.597c0-.88.722-1.602 1.6-1.602.88 0 1.598.723 1.598 1.602 0 .879-.718 1.597-1.597 1.597zm0 0M15.2 6.398a2.407 2.407 0 0 0-2.4 2.403 2.404 2.404 0 0 0 2.4 2.398 2.407 2.407 0 0 0 2.402-2.398 2.41 2.41 0 0 0-2.403-2.403zm0 4a1.602 1.602 0 0 1-1.598-1.597c0-.88.718-1.602 1.597-1.602.88 0 1.602.723 1.602 1.602 0 .879-.723 1.597-1.602 1.597zm0 0M8.8 12.8a2.407 2.407 0 0 0-2.402 2.4 2.41 2.41 0 0 0 2.403 2.402 2.407 2.407 0 0 0 2.398-2.403 2.404 2.404 0 0 0-2.398-2.398zm0 4a1.609 1.609 0 0 1-1.6-1.6c0-.88.722-1.598 1.6-1.598.88 0 1.598.718 1.598 1.597 0 .88-.718 1.602-1.597 1.602zm0 0M15.2 12.8a2.404 2.404 0 0 0-2.4 2.4 2.407 2.407 0 0 0 2.4 2.402 2.41 2.41 0 0 0 2.402-2.403 2.407 2.407 0 0 0-2.403-2.398zm0 4a1.605 1.605 0 0 1-1.598-1.6c0-.88.718-1.598 1.597-1.598.88 0 1.602.718 1.602 1.597 0 .88-.723 1.602-1.602 1.602zm0 0"/>
</svg>
