<svg xmlns="http://www.w3.org/2000/svg" width="32" height="32" viewBox="0 0 24 24">
    <path d="M 17.039062 8.800781 L 14.800781 8.800781 L 14.800781 8 L 15.199219 8 C 15.320312 8 15.441406 7.960938 15.519531 7.839844 C 15.601562 7.71875 15.640625 7.601562 15.601562 7.480469 L 14.800781 4.679688 C 14.71875 4.519531 14.558594 4.398438 14.398438 4.398438 L 13.601562 4.398438 L 13.601562 1.601562 C 13.601562 1.480469 13.558594 1.398438 13.480469 1.320312 L 12.28125 0.121094 C 12.121094 -0.0390625 11.878906 -0.0390625 11.71875 0.121094 L 10.519531 1.320312 C 10.441406 1.398438 10.398438 1.480469 10.398438 1.601562 L 10.398438 4.398438 L 9.601562 4.398438 C 9.398438 4.398438 9.238281 4.519531 9.199219 4.679688 L 8.398438 7.480469 C 8.398438 7.601562 8.398438 7.71875 8.480469 7.839844 C 8.558594 7.960938 8.679688 8 8.800781 8 L 9.199219 8 L 9.199219 8.800781 L 6.960938 8.800781 C 6 8.800781 5.199219 9.601562 5.199219 10.558594 L 5.199219 22.238281 C 5.199219 23.199219 6 24 6.960938 24 L 17.039062 24 C 18 24 18.800781 23.199219 18.800781 22.238281 L 18.800781 10.558594 C 18.800781 9.601562 18 8.800781 17.039062 8.800781 Z M 11.199219 1.761719 L 12 0.960938 L 12.800781 1.761719 L 12.800781 4.398438 L 11.199219 4.398438 Z M 9.921875 5.199219 L 14.078125 5.199219 L 14.640625 7.199219 L 14 7.199219 L 14 6.398438 C 14 6.160156 13.839844 6 13.601562 6 C 13.359375 6 13.199219 6.160156 13.199219 6.398438 L 13.199219 7.199219 L 12.398438 7.199219 L 12.398438 6.398438 C 12.398438 6.160156 12.238281 6 12 6 C 11.761719 6 11.601562 6.160156 11.601562 6.398438 L 11.601562 7.199219 L 10.800781 7.199219 L 10.800781 6.398438 C 10.800781 6.160156 10.640625 6 10.398438 6 C 10.160156 6 10 6.160156 10 6.398438 L 10 7.199219 L 9.320312 7.199219 Z M 10 8 L 14 8 L 14 8.800781 L 10 8.800781 Z M 6 13.601562 L 8.398438 13.601562 L 8.398438 19.199219 L 6 19.199219 Z M 18 14.800781 L 15.601562 14.800781 C 15.359375 14.800781 15.199219 14.960938 15.199219 15.199219 C 15.199219 15.441406 15.359375 15.601562 15.601562 15.601562 L 18 15.601562 L 18 17.199219 L 14.398438 17.199219 C 14.160156 17.199219 14 17.359375 14 17.601562 C 14 17.839844 14.160156 18 14.398438 18 L 18 18 L 18 19.199219 L 12.558594 19.199219 C 12.480469 19.199219 12.398438 19.121094 12.398438 19.039062 L 12.398438 13.761719 C 12.398438 13.679688 12.480469 13.601562 12.558594 13.601562 L 18 13.601562 Z M 12.558594 12.800781 C 12.039062 12.800781 11.601562 13.238281 11.601562 13.761719 L 11.601562 19.039062 C 11.601562 19.558594 12.039062 20 12.558594 20 L 18 20 L 18 22.238281 C 18 22.761719 17.558594 23.199219 17.039062 23.199219 L 6.960938 23.199219 C 6.441406 23.199219 6 22.761719 6 22.238281 L 6 20 L 8.800781 20 C 9.039062 20 9.199219 19.839844 9.199219 19.601562 L 9.199219 13.199219 C 9.199219 12.960938 9.039062 12.800781 8.800781 12.800781 L 6 12.800781 L 6 10.558594 C 6 10.039062 6.441406 9.601562 6.960938 9.601562 L 17.039062 9.601562 C 17.558594 9.601562 18 10.039062 18 10.558594 L 18 12.800781 Z M 12.558594 12.800781"/>
    <path d="M 12 2 C 11.761719 2 11.601562 2.160156 11.601562 2.398438 L 11.601562 3.199219 C 11.601562 3.441406 11.761719 3.601562 12 3.601562 C 12.238281 3.601562 12.398438 3.441406 12.398438 3.199219 L 12.398438 2.398438 C 12.398438 2.160156 12.238281 2 12 2 Z M 12 2"/>
</svg>
