<svg xmlns="http://www.w3.org/2000/svg" width="32" height="32" viewBox="0 0 24 24">
    <path d="M21.887 7.465c.12-.078.16-.238.12-.36v-.039a5.657 5.657 0 0 0-2.16-3.402c-.12-.082-.242-.121-.402-.043-1.398.48-2.52.48-3.402-.039-1.402-.84-1.64-2.84-1.64-2.84 0-.16-.122-.281-.282-.32a5.642 5.642 0 0 0-4.281 0 .348.348 0 0 0-.242.32s-.239 1.961-1.641 2.84c-.883.563-2.043.563-3.441.04-.121-.079-.243-.04-.364.042a5.657 5.657 0 0 0-2.16 3.402v.04c0 .12.04.28.121.359 1.2 1.203 1.88 3.004 1.88 4.926 0 1.921-.68 3.722-1.88 4.921a.328.328 0 0 0-.12.364v.039a5.668 5.668 0 0 0 2.16 3.402c.12.082.242.121.363.082.238-.082 5.28-1.804 7.125 2.559.039.16.199.242.359.242.16 0 .32-.082.36-.281 1.882-4.324 6.925-2.64 7.124-2.563.121.082.243.043.364-.039a5.668 5.668 0 0 0 2.16-3.402v-.04c0-.12-.04-.28-.121-.359-2.48-2.484-2.48-7.367 0-9.851zm-2.36 12.851c-1.043-.28-5.406-1.28-7.527 2.364-1.281-2.164-3.363-2.684-5.043-2.684a9.228 9.228 0 0 0-2.484.36c-.801-.68-1.399-1.602-1.641-2.641 1.242-1.32 1.961-3.242 1.961-5.324s-.719-4.004-1.961-5.364c.242-1.043.84-1.965 1.64-2.644 1.563.52 2.883.48 3.926-.16 1.399-.88 1.84-2.563 1.961-3.203 1.082-.36 2.2-.36 3.282 0 .12.64.562 2.324 1.96 3.203 1.044.64 2.364.68 3.926.16a4.747 4.747 0 0 1 1.641 2.644c-2.602 2.801-2.602 7.844 0 10.649a4.75 4.75 0 0 1-1.64 2.64zm0 0"/>
    <path d="M20.168 7.066a.489.489 0 0 0 .039-.402c-.16-.398-.402-.8-.68-1.121-.12-.117-.242-.16-.402-.117-.52.117-1.04.199-1.52.199-3.125 0-4.246-2.563-4.566-3.645-.039-.16-.16-.238-.32-.277a4.23 4.23 0 0 0-1.438 0c-.16.04-.281.117-.32.277-.363 1.083-1.484 3.645-4.566 3.645-.48 0-1-.082-1.52-.2-.16-.042-.32 0-.402.118-.278.32-.52.723-.68 1.121-.078.121-.04.281.039.402 2.281 3.004 2.281 7.688 0 10.688a.489.489 0 0 0-.039.402c.16.438.402.801.723 1.16.117.122.238.16.398.122.68-.16 1.36-.243 2.043-.243 1.922 0 3.563.64 4.762 1.844.082.078.16.117.281.117.121 0 .2-.039.281-.117 1.2-1.203 2.84-1.844 4.762-1.844.684 0 1.363.082 2.043.242.16.04.32 0 .398-.12.32-.36.563-.723.723-1.16.078-.122.04-.282-.039-.403-2.281-3-2.281-7.684 0-10.688zm-.762 10.97c-.12.198-.242.398-.36.558-.679-.117-1.362-.2-2.003-.2-2 0-3.723.641-5.043 1.801-1.32-1.199-3.043-1.8-5.043-1.8-.64 0-1.324.082-1.96.199-.161-.2-.282-.36-.364-.559 2.324-3.203 2.324-8.086 0-11.289.082-.2.203-.36.32-.52.52.118 1 .16 1.48.16 3.485 0 4.848-2.765 5.247-3.964.242-.04.441-.04.68 0 .44 1.16 1.761 3.965 5.245 3.965.48 0 .961-.043 1.48-.16.122.16.24.32.321.52-2.32 3.202-2.32 8.085 0 11.288zm0 0"/>
    <path d="M14.402 9.59H9.598c-.239 0-.399.16-.399.398 0 .239.16.399.399.399h4.804c.239 0 .399-.16.399-.399 0-.238-.16-.398-.399-.398zm0 0M14.402 11.59H9.598c-.239 0-.399.16-.399.398 0 .242.16.403.399.403h4.804c.239 0 .399-.16.399-.403 0-.238-.16-.398-.399-.398zm0 0M14.402 13.59H9.598c-.239 0-.399.16-.399.402 0 .238.16.399.399.399h4.804c.239 0 .399-.16.399-.399 0-.242-.16-.402-.399-.402zm0 0M12 7.988c.238 0 .398-.16.398-.402 0-.238-.16-.399-.398-.399-.238 0-.398.16-.398.399 0 .242.16.402.398.402zm0 0M12 15.992c-.238 0-.398.16-.398.403 0 .238.16.398.398.398.238 0 .398-.16.398-.398 0-.243-.16-.403-.398-.403zm0 0"/>
</svg>
