<svg xmlns="http://www.w3.org/2000/svg" width="32" height="32" viewBox="0 0 24 24">
    <path d="M 23.390625 11.59375 L 20.746094 11.59375 C 18.753906 11.59375 17.085938 10.65625 17.085938 9.558594 L 17.085938 9.152344 C 17.085938 7.117188 13.34375 5.492188 8.542969 5.492188 C 3.742188 5.492188 0 7.117188 0 9.152344 L 0 14.847656 C 0 16.882812 3.742188 18.507812 8.542969 18.507812 C 12.375 18.507812 15.535156 17.46875 16.652344 16.015625 C 17.339844 17.011719 18.886719 17.695312 20.746094 17.695312 L 23.390625 17.695312 C 23.714844 17.695312 24 17.410156 24 17.125 L 24 12.203125 C 24 11.878906 23.714844 11.59375 23.390625 11.59375 Z M 8.542969 6.304688 C 13.097656 6.304688 16.269531 7.808594 16.269531 9.152344 C 16.269531 10.496094 13.097656 12 8.542969 12 C 3.988281 12 0.8125 10.496094 0.8125 9.152344 C 0.8125 7.808594 3.988281 6.304688 8.542969 6.304688 Z M 15.050781 16.324219 L 15.050781 15.660156 C 15.050781 15.417969 14.886719 15.253906 14.644531 15.253906 C 14.398438 15.253906 14.238281 15.417969 14.238281 15.660156 L 14.238281 16.726562 C 13.871094 16.878906 13.464844 17.015625 13.015625 17.140625 L 13.015625 16.066406 C 13.015625 15.824219 12.855469 15.660156 12.609375 15.660156 C 12.367188 15.660156 12.203125 15.824219 12.203125 16.066406 L 12.203125 17.289062 C 12.203125 17.304688 12.203125 17.320312 12.207031 17.335938 C 11.820312 17.417969 11.410156 17.488281 10.984375 17.542969 L 10.984375 16.476562 C 10.984375 16.230469 10.820312 16.066406 10.578125 16.066406 C 10.332031 16.066406 10.167969 16.230469 10.167969 16.476562 L 10.167969 17.628906 C 9.777344 17.660156 9.367188 17.683594 8.949219 17.691406 L 8.949219 16.882812 C 8.949219 16.636719 8.785156 16.476562 8.542969 16.476562 C 8.296875 16.476562 8.136719 16.636719 8.136719 16.882812 L 8.136719 17.691406 C 7.714844 17.683594 7.308594 17.660156 6.914062 17.628906 L 6.914062 16.476562 C 6.914062 16.230469 6.753906 16.066406 6.507812 16.066406 C 6.265625 16.066406 6.101562 16.230469 6.101562 16.476562 L 6.101562 17.542969 C 5.671875 17.488281 5.265625 17.417969 4.878906 17.335938 C 4.878906 17.320312 4.882812 17.304688 4.882812 17.289062 L 4.882812 16.066406 C 4.882812 15.824219 4.71875 15.660156 4.472656 15.660156 C 4.230469 15.660156 4.066406 15.824219 4.066406 16.066406 L 4.066406 17.140625 C 3.621094 17.015625 3.210938 16.878906 2.847656 16.726562 L 2.847656 15.660156 C 2.847656 15.417969 2.683594 15.253906 2.441406 15.253906 C 2.195312 15.253906 2.035156 15.417969 2.035156 15.660156 L 2.035156 16.324219 C 1.25 15.867188 0.8125 15.347656 0.8125 14.847656 L 0.8125 10.738281 C 1.132812 11.03125 1.546875 11.300781 2.035156 11.546875 C 2.035156 11.5625 2.035156 11.578125 2.035156 11.59375 L 2.035156 13.21875 C 2.035156 13.464844 2.195312 13.628906 2.441406 13.628906 C 2.683594 13.628906 2.847656 13.464844 2.847656 13.21875 L 2.847656 11.898438 C 2.875 11.910156 2.90625 11.917969 2.933594 11.929688 C 2.9375 11.933594 2.941406 11.933594 2.945312 11.933594 C 3.296875 12.0625 3.671875 12.179688 4.066406 12.285156 L 4.066406 13.21875 C 4.066406 13.464844 4.230469 13.628906 4.472656 13.628906 C 4.71875 13.628906 4.882812 13.464844 4.882812 13.21875 L 4.882812 12.46875 C 5.273438 12.546875 5.679688 12.613281 6.101562 12.667969 L 6.101562 14.035156 C 6.101562 14.277344 6.265625 14.441406 6.507812 14.441406 C 6.753906 14.441406 6.914062 14.277344 6.914062 14.035156 L 6.914062 12.75 C 7.132812 12.765625 7.355469 12.78125 7.578125 12.792969 C 7.582031 12.792969 7.585938 12.792969 7.589844 12.792969 C 7.691406 12.796875 7.796875 12.800781 7.898438 12.804688 C 7.902344 12.804688 7.902344 12.804688 7.90625 12.804688 C 7.984375 12.804688 8.058594 12.808594 8.136719 12.808594 L 8.136719 13.628906 C 8.136719 13.871094 8.296875 14.035156 8.542969 14.035156 C 8.785156 14.035156 8.949219 13.871094 8.949219 13.628906 L 8.949219 12.808594 C 9.027344 12.808594 9.101562 12.804688 9.179688 12.804688 C 9.179688 12.804688 9.183594 12.804688 9.1875 12.804688 C 9.289062 12.800781 9.394531 12.796875 9.496094 12.792969 C 9.5 12.792969 9.503906 12.792969 9.507812 12.792969 C 9.730469 12.78125 9.953125 12.765625 10.167969 12.75 L 10.167969 14.035156 C 10.167969 14.277344 10.332031 14.441406 10.578125 14.441406 C 10.820312 14.441406 10.984375 14.277344 10.984375 14.035156 L 10.984375 12.667969 C 11.40625 12.613281 11.8125 12.546875 12.203125 12.46875 L 12.203125 13.21875 C 12.203125 13.464844 12.367188 13.628906 12.609375 13.628906 C 12.855469 13.628906 13.015625 13.464844 13.015625 13.21875 L 13.015625 12.285156 C 13.414062 12.179688 13.789062 12.0625 14.136719 11.933594 C 14.144531 11.933594 14.148438 11.933594 14.152344 11.929688 C 14.179688 11.917969 14.207031 11.910156 14.238281 11.898438 L 14.238281 13.21875 C 14.238281 13.464844 14.398438 13.628906 14.644531 13.628906 C 14.886719 13.628906 15.050781 13.464844 15.050781 13.21875 L 15.050781 11.59375 C 15.050781 11.578125 15.050781 11.5625 15.046875 11.546875 C 15.535156 11.300781 15.949219 11.03125 16.269531 10.738281 L 16.269531 14.847656 C 16.269531 15.347656 15.832031 15.867188 15.050781 16.324219 Z M 20.746094 16.882812 C 20.320312 16.882812 19.910156 16.839844 19.527344 16.761719 L 19.527344 15.253906 C 19.527344 15.011719 19.363281 14.847656 19.117188 14.847656 C 18.875 14.847656 18.710938 15.011719 18.710938 15.253906 L 18.710938 16.527344 C 17.738281 16.15625 17.085938 15.535156 17.085938 14.847656 L 17.085938 11.214844 C 17.316406 11.421875 17.589844 11.609375 17.898438 11.769531 L 17.898438 13.21875 C 17.898438 13.464844 18.0625 13.628906 18.304688 13.628906 C 18.550781 13.628906 18.710938 13.464844 18.710938 13.21875 L 18.710938 12.105469 C 18.96875 12.1875 19.242188 12.253906 19.527344 12.304688 L 19.527344 13.21875 C 19.527344 13.464844 19.6875 13.628906 19.933594 13.628906 C 20.175781 13.628906 20.339844 13.464844 20.339844 13.21875 L 20.339844 12.394531 C 20.472656 12.402344 20.609375 12.40625 20.746094 12.40625 L 21.152344 12.40625 L 21.152344 16.882812 Z M 23.1875 16.882812 L 21.964844 16.882812 L 21.964844 12.40625 L 23.1875 12.40625 Z M 23.1875 16.882812"/>
    <path d="M 8.542969 10.78125 C 10.167969 10.78125 11.796875 10.210938 11.796875 9.152344 C 11.796875 8.09375 10.167969 7.527344 8.542969 7.527344 C 6.914062 7.527344 5.289062 8.09375 5.289062 9.152344 C 5.289062 10.210938 6.914062 10.78125 8.542969 10.78125 Z M 8.542969 8.339844 C 10.046875 8.339844 10.984375 8.867188 10.984375 9.152344 C 10.984375 9.4375 10.046875 9.964844 8.542969 9.964844 C 7.039062 9.964844 6.101562 9.4375 6.101562 9.152344 C 6.101562 8.867188 7.039062 8.339844 8.542969 8.339844 Z M 8.542969 8.339844"/>
</svg>
