<svg xmlns="http://www.w3.org/2000/svg" width="32" height="32" viewBox="0 0 24 24">
    <path d="M22.473 1.535a5.182 5.182 0 0 0-7.352 0c-.96 1-1.52 2.278-1.52 3.676 0 .84.2 1.633.567 2.351L.695 21.035c-.082.082-.12.121-.12.2l-.56 2.277a.32.32 0 0 0 .122.36.348.348 0 0 0 .277.12h.082l2.234-.597c.083-.043.16-.082.204-.122L16.39 9.816a5.25 5.25 0 0 0 2.406.59 5.24 5.24 0 0 0 3.676-1.52 5.19 5.19 0 0 0 0-7.35zm-6.754 7.953L2.492 22.715l-1.52.36.36-1.52 13.27-13.188zm6.195-1.16a4.414 4.414 0 0 1-5.867.328l-.692-.691a4.388 4.388 0 0 1-.957-2.754c0-1.156.442-2.277 1.282-3.117.879-.836 1.996-1.278 3.117-1.278 1.117 0 2.234.442 3.117 1.278a4.42 4.42 0 0 1 0 6.234zm0 0"/>
    <path d="M18.516 2.336c-.88 0-1.68.32-2.278.918a.385.385 0 0 0 0 .558c.16.16.399.16.559 0a2.4 2.4 0 0 1 1.719-.718c.64 0 1.238.281 1.68.719.077.082.16.12.277.12.12 0 .242-.038.32-.12a.385.385 0 0 0 0-.56c-.64-.597-1.398-.917-2.277-.917zm0 0"/>
</svg>
