<svg xmlns="http://www.w3.org/2000/svg" width="32" height="32" viewBox="0 0 24 24">
    <path d="M23.844 6.152a.42.42 0 0 0-.477-.082L16.7 9.266a7.801 7.801 0 0 0-2.199 1.558l-4.781 4.781a.422.422 0 0 0-.215.215l-3.629 3.63a1.061 1.061 0 0 1-1.477 0 1.066 1.066 0 0 1 0-1.481l8.707-8.664a8.458 8.458 0 0 0 1.555-2.196L17.977.602a.428.428 0 0 0-.082-.48.414.414 0 0 0-.477-.079l-4.113 2.035a16.91 16.91 0 0 0-5.992 5.39L.726 17.095c0 .039-1.797 3.074.398 5.59v.039C2.082 23.68 3.082 24 4 24c1.516 0 2.715-.879 2.715-.879l9.664-6.547c2.234-1.558 4.113-3.594 5.39-5.992l2.157-3.953a.42.42 0 0 0-.082-.477zM12.547 18.09l-2.098-2.098 1.156-1.156 2.352 2.348-1.379.945-.031-.04zm-5.91-8.223l2.375 2.375-1.16 1.156-2.133-2.136c-.008-.008-.016-.012-.024-.02zM7.953 7.95a15.977 15.977 0 0 1 5.711-5.113l2.992-1.477-2.793 5.47a7.605 7.605 0 0 1-1.398 1.956L9.57 11.68 7.113 9.227l-.02-.02zM6.277 22.441c-.12.082-2.476 1.84-4.593-.277-1.797-2.078-.36-4.512-.32-4.594l3.878-5.664 2.051 2.051L3.84 17.41a1.834 1.834 0 0 0 0 2.598 1.834 1.834 0 0 0 2.598 0l3.453-3.453 2.027 2.027zm14.774-12.296a16.456 16.456 0 0 1-5.153 5.71l-1.277.875-2.457-2.453 2.938-2.933a7.512 7.512 0 0 1 1.957-1.399l5.55-2.675zm0 0"/>
</svg>
