<svg xmlns="http://www.w3.org/2000/svg" width="32" height="32" viewBox="0 0 24 24">
    <path d="M22.121 0H1.88C.839 0 0 .84 0 1.879v7.32c0 .16.078.281.2.36l.198.113v12.45c0 1.038.84 1.878 1.883 1.878H21.72c1.043 0 1.883-.84 1.883-1.879V9.671l.199-.112c.12-.079.199-.2.199-.36V1.88C24 .839 23.16 0 22.121 0zM.801 1.879C.8 1.28 1.28.8 1.879.8H22.12c.598 0 1.078.48 1.078 1.078v7.043L13.08 14.52c-.68.359-1.477.359-2.157 0L1.32 9.238l-.05-.02-.47-.257zm22 20.242c0 .598-.48 1.078-1.082 1.078H2.28c-.601 0-1.082-.48-1.082-1.078V10.11l9.32 5.13c.481.28.961.402 1.481.402.215 0 .422-.028.625-.079.293-.062.582-.167.855-.324l9.32-5.129zm0 0"/>
    <path d="M21.602 14.32c.238 0 .398-.16.398-.398v-1.8c0-.243-.16-.403-.398-.403-.243 0-.403.16-.403.402v1.8c0 .24.16.4.403.4zm0 0M21.602 18.8c.238 0 .398-.16.398-.402v-2.68c0-.238-.16-.398-.398-.398-.243 0-.403.16-.403.399v2.68c0 .242.16.402.403.402zm0 0M19.8 22.398h1.802c.238 0 .398-.16.398-.398v-1.8c0-.24-.16-.4-.398-.4-.243 0-.403.16-.403.4v1.402h-1.398c-.242 0-.403.16-.403.398 0 .238.16.398.403.398zm0 0M12.879 22c0 .238.16.398.402.398H17.2c.242 0 .403-.16.403-.398 0-.238-.16-.398-.403-.398h-3.918c-.242 0-.402.16-.402.398zm0 0M10.719 21.602H6.8c-.242 0-.403.16-.403.398 0 .238.16.398.403.398h3.918A.4.4 0 0 0 11.12 22c0-.238-.16-.398-.402-.398zm0 0M4.2 21.602H2.8v-1.403c0-.238-.16-.398-.402-.398-.238 0-.398.16-.398.398V22c0 .238.16.398.398.398H4.2c.242 0 .403-.16.403-.398 0-.238-.16-.398-.403-.398zm0 0M2.398 18.8c.243 0 .403-.16.403-.402v-2.68c0-.238-.16-.398-.403-.398-.238 0-.398.16-.398.399v2.68c0 .242.16.402.398.402zm0 0M2.398 14.32c.243 0 .403-.16.403-.398v-1.8c0-.243-.16-.403-.403-.403-.238 0-.398.16-.398.402v1.8c0 .24.16.4.398.4zm0 0M12 9.2a2.404 2.404 0 0 0 2.398-2.4A2.407 2.407 0 0 0 12 4.399a2.407 2.407 0 0 0-2.398 2.403A2.404 2.404 0 0 0 12 9.199zm0-4c.879 0 1.602.722 1.602 1.6 0 .88-.723 1.598-1.602 1.598a1.605 1.605 0 0 1-1.602-1.597c0-.88.723-1.602 1.602-1.602zm0 0"/>
</svg>
