<svg xmlns="http://www.w3.org/2000/svg" width="32" height="32" viewBox="0 0 24 24">
    <path d="M20.36 18.965l-2.657-2.656a.394.394 0 0 0-.566 0 .39.39 0 0 0 0 .562l2.66 2.66c.078.078.16.121.281.121.121 0 .2-.043.281-.12a.394.394 0 0 0 0-.567zm0 0M15.848 16.71a.39.39 0 0 0-.563 0 .39.39 0 0 0 0 .563l.969.97c.078.077.16.12.281.12.078 0 .2-.043.281-.12a.39.39 0 0 0 0-.563zm0 0M17.945 18.805a.394.394 0 0 0-.566 0 .394.394 0 0 0 0 .566l1.933 1.93c.083.082.16.12.282.12.12 0 .203-.038.281-.12a.383.383 0 0 0 0-.563zm0 0M20.8 21.664a.39.39 0 0 0-.562 0 .39.39 0 0 0 0 .563l.485.484c.078.082.16.121.28.121.083 0 .204-.039.282-.121a.39.39 0 0 0 0-.563zm0 0"/>
    <path d="M23.621 21.18c-.082-.2-1.89-4.348-7.45-7.489-.038-.039-.12-.039-.202-.039-.067 0-.645.028-1.332.54L9.379 8.933c.363-.47.562-.996.59-1.606.078-1.293-.742-2.871-2.395-4.633a1.61 1.61 0 0 0 .422-1.086C7.996.727 7.273 0 6.386 0 5.5 0 4.778.727 4.778 1.61a1.615 1.615 0 0 0 1.977 1.57c.363.718.976 2.093.84 2.98-.078.445-.442.727-.887.684-.965-.078-3.46-.684-5.598-4.59-.078-.2-.28-.281-.48-.2a.366.366 0 0 0-.281.442c.039.203 1.004 5.399 4.066 7.29a3.98 3.98 0 0 0 2.012.562c.86 0 1.719-.266 2.394-.832l5.215 5.214c-.277.305-.723.918-.723 1.579 0 .082 0 .12.04.16.082.203 1.933 4.351 7.449 7.492.082.039.12.039.203.039.121 0 .926-.082 1.73-.887.121-.078.926-.886.926-1.77 0-.081 0-.12-.039-.163zM5.582 1.61c0-.442.363-.805.805-.805.441 0 .804.363.804.804a.81.81 0 0 1-.347.664.165.165 0 0 0-.055.024H6.75a.356.356 0 0 0-.102.074.838.838 0 0 1-.261.047.81.81 0 0 1-.805-.809zm-.727 7.492c-1.488-.926-2.457-2.82-3.02-4.352C3.81 7.129 5.782 7.57 6.669 7.652c.848.04 1.61-.523 1.73-1.37.082-.485 0-1.009-.16-1.571.684.969 1.008 1.812.969 2.578-.043.563-.285 1.086-.809 1.531-1.003.844-2.453.965-3.543.282zm17.399 13.41c-.484.48-.93.601-1.129.644-4.793-2.738-6.684-6.363-6.969-6.93.043-.402.406-.882.688-1.124.105-.106.207-.196.308-.27a.291.291 0 0 0 .055.066l1.047 1.047c.078.082.16.121.281.121.078 0 .2-.039.281-.12a.39.39 0 0 0 0-.563l-.91-.91c.024-.008.043-.012.063-.016 3.883 2.219 5.863 5.016 6.625 6.3l-.785-.784a.39.39 0 0 0-.563 0 .39.39 0 0 0 0 .562l.926.93c.082.078.16.117.281.117.082 0 .203-.039.281-.117.07-.07.11-.156.121-.242.036.066.063.12.082.16-.042.441-.523.965-.683 1.129zm0 0"/>
</svg>
