<svg xmlns="http://www.w3.org/2000/svg" width="32" height="32" viewBox="0 0 24 24">
    <path d="M22.546875 1.453125C20.648438-.484375 17.488281-.484375 15.550781 1.453125L13.0625 3.941406C12.894531 4.109375 12.894531 4.363281 13.0625 4.53125L15.550781 7.058594C15.71875 7.226562 15.972656 7.226562 16.140625 7.058594L17.910156 5.289062C17.996094 5.203125 18.035156 5.078125 18.035156 4.953125 18.035156 4.574219 18.078125 4.402344 18.289062 4.191406 18.710938 3.773438 19.425781 3.773438 19.847656 4.191406 20.058594 4.402344 20.1875 4.65625 20.1875 4.953125 20.1875 5.246094 20.058594 5.5 19.847656 5.710938 19.636719 5.921875 19.46875 5.964844 19.089844 5.964844 18.964844 5.964844 18.835938 6.003906 18.753906 6.089844L16.984375 7.859375C16.816406 8.027344 16.816406 8.28125 16.984375 8.449219L19.46875 10.9375C19.554688 11.019531 19.636719 11.0625 19.765625 11.0625 19.890625 11.0625 19.976562 11.019531 20.058594 10.9375L22.546875 8.449219C24.484375 6.554688 24.484375 3.390625 22.546875 1.453125zM21.957031 7.859375L19.765625 10.050781 17.867188 8.15625 19.21875 6.765625C19.554688 6.765625 20.015625 6.679688 20.398438 6.300781 20.734375 5.964844 20.945312 5.457031 20.945312 4.953125 20.945312 4.445312 20.777344 3.984375 20.398438 3.601562 19.636719 2.84375 18.417969 2.84375 17.65625 3.601562 17.277344 3.984375 17.195312 4.402344 17.195312 4.78125L15.84375 6.132812 13.949219 4.234375 16.140625 2.042969C17.742188.441406 20.355469.441406 21.957031 2.042969 23.558594 3.644531 23.558594 6.257812 21.957031 7.859375zM7.628906 16.414062C5.859375 14.6875 3.035156 14.6875 1.304688 16.414062.464844 17.257812 0 18.351562 0 19.53125 0 20.714844.464844 21.851562 1.304688 22.695312 2.148438 23.535156 3.289062 24 4.46875 24 5.648438 24 6.742188 23.535156 7.628906 22.734375 8.46875 21.894531 8.933594 20.753906 8.933594 19.574219 8.933594 18.394531 8.46875 17.257812 7.628906 16.414062zM7.039062 22.105469C6.320312 22.777344 5.4375 23.15625 4.46875 23.15625 3.496094 23.15625 2.570312 22.820312 1.894531 22.105469 1.222656 21.386719.84375 20.503906.84375 19.53125.84375 18.5625 1.222656 17.679688 1.894531 17.003906 2.613281 16.289062 3.539062 15.949219 4.46875 15.949219 5.394531 15.949219 6.277344 16.289062 7.039062 16.960938 7.710938 17.679688 8.089844 18.5625 8.089844 19.53125 8.089844 20.503906 7.710938 21.429688 7.039062 22.105469zM7.039062 22.105469"/>
    <path d="M19.722656 9.925781L17.953125 8.15625C17.785156 7.984375 17.53125 7.984375 17.363281 8.15625L7.710938 17.257812C7.585938 17.382812 7.542969 17.59375 7.628906 17.761719 8.089844 18.648438 8.175781 19.703125 7.878906 20.628906 7.796875 20.839844 7.878906 21.050781 8.050781 21.132812 8.089844 21.175781 8.175781 21.21875 8.261719 21.21875 8.386719 21.21875 8.46875 21.175781 8.597656 21.132812L19.722656 10.597656C19.808594 10.515625 19.847656 10.304688 19.847656 10.21875 19.847656 10.136719 19.808594 10.007812 19.722656 9.925781zM8.890625 19.660156C8.933594 18.984375 8.808594 18.3125 8.511719 17.722656L17.617188 9.125 18.796875 10.304688zM11.882812 6.089844C11.503906 5.710938 11.042969 5.542969 10.535156 5.582031 10.03125 5.625 9.609375 5.878906 9.3125 6.300781L2.824219 15.445312C2.695312 15.613281 2.695312 15.824219 2.824219 15.949219 2.90625 16.121094 3.117188 16.160156 3.285156 16.121094 4.257812 15.78125 5.269531 15.910156 6.152344 16.371094 6.238281 16.414062 6.277344 16.414062 6.363281 16.414062 6.53125 16.414062 6.660156 16.371094 6.742188 16.246094L12.09375 8.195312C12.515625 7.566406 12.433594 6.636719 11.882812 6.089844zM11.378906 7.773438L6.238281 15.488281C5.6875 15.234375 5.097656 15.109375 4.46875 15.109375 4.339844 15.109375 4.257812 15.109375 4.128906 15.109375L10.03125 6.804688C10.15625 6.636719 10.367188 6.46875 10.621094 6.46875 10.871094 6.46875 11.125 6.554688 11.292969 6.722656 11.546875 7.015625 11.589844 7.4375 11.378906 7.773438zM5.816406 18.183594C5.476562 17.847656 4.972656 17.636719 4.46875 17.636719 3.960938 17.636719 3.496094 17.804688 3.117188 18.183594 2.359375 18.941406 2.359375 20.164062 3.117188 20.921875 3.457031 21.304688 3.960938 21.472656 4.46875 21.472656 4.929688 21.472656 5.4375 21.304688 5.816406 20.921875 6.574219 20.164062 6.574219 18.941406 5.816406 18.183594zM5.269531 20.332031C4.847656 20.753906 4.128906 20.753906 3.707031 20.332031 3.289062 19.914062 3.289062 19.195312 3.707031 18.773438 3.917969 18.5625 4.171875 18.4375 4.46875 18.4375 4.761719 18.4375 5.015625 18.5625 5.269531 18.773438 5.6875 19.195312 5.6875 19.914062 5.269531 20.332031zM5.269531 20.332031"/>
</svg>
