<svg xmlns="http://www.w3.org/2000/svg" width="32" height="32" viewBox="0 0 24 24">
    <path d="M23.586 15.996c.238 0 .398-.16.398-.398 0-.239-.16-.399-.398-.399h-7.277l7.554-6.476a.455.455 0 0 0 .121-.442V.406c0-.238-.16-.398-.398-.398H.398C.16.008 0 .168 0 .406 0 .648.16.81.398.81H3.2v1.199H.4c-.239 0-.399.16-.399.398 0 .239.16.399.398.399H3.2v1.199H.4c-.239 0-.399.16-.399.402 0 .239.16.399.398.399H3.2v1.199H.4c-.239 0-.399.16-.399.398 0 .243.16.403.398.403H3.2v1.199H.4c-.239 0-.399.16-.399.398 0 .239.16.399.398.399h7.317L.203 15.242c-.129.063-.203.192-.203.356v7.996c0 .238.16.398.398.398h23.188c.238 0 .398-.16.398-.398 0-.242-.16-.403-.398-.403h-2.8v-1.199h2.8c.238 0 .398-.16.398-.398 0-.239-.16-.399-.398-.399h-2.8v-1.199h2.8c.238 0 .398-.16.398-.402 0-.239-.16-.399-.398-.399h-2.8v-1.199h2.8c.238 0 .398-.16.398-.398 0-.243-.16-.403-.398-.403h-2.8v-1.199zm-3.598 7.195h-7.574l7.574-3.027zM.801 15.996h7.535L.8 19.012zm9.594.043l8.914 3.555-8.914 3.558-8.915-3.558zm9.593 2.988l-7.574-3.03h7.574zM3.996.81h7.535L3.996 3.82zm9.594.039l8.918 3.558-8.918 3.555-8.914-3.555zm9.594 4.14v3.016h-7.536zm0-1.152L15.609.809h7.575zM3.996 4.988l7.535 3.016H3.996zm4.957 3.813h13.555l-7.477 6.398H1.481zM.801 20.18l7.535 3.011H.8zm0 0"/>
    <path d="M13.75 7.164l6.398-2.398a.411.411 0 0 0 .239-.36c0-.16-.121-.32-.278-.36l-6.398-2.398a.314.314 0 0 0-.277 0L7.035 4.047c-.12.039-.238.2-.238.36 0 .16.117.316.238.359l6.399 2.398c.078.04.117.04.156.04.043 0 .082 0 .16-.04zM8.316 4.406l5.274-1.96 5.277 1.96-5.277 1.957zm0 0M10.512 22.352l6.398-2.399c.121-.039.238-.2.238-.36 0-.16-.078-.316-.238-.359l-6.398-2.398a.343.343 0 0 0-.278 0l-6.398 2.398a.411.411 0 0 0-.238.36c0 .16.12.32.238.36l6.398 2.398a.284.284 0 0 0 .16.043c.04 0 .079 0 .118-.043zm-5.395-2.758l5.278-1.957 5.277 1.957-5.277 1.96zm0 0"/>
</svg>
