<svg xmlns="http://www.w3.org/2000/svg" width="32" height="32" viewBox="0 0 24 24">
    <path d="M23.879 6.195a.392.392 0 0 0-.57 0c-1.403 1.328-2.559 1.489-3.766.446l.39-.325c1.06-1.097 1.06-2.847 0-3.902-1.058-1.059-2.804-1.059-3.906.04l-.312.378-.418-.418c-1.098-1.059-2.848-1.059-3.902 0a2.725 2.725 0 0 0-.817 1.95c0 .734.285 1.425.817 1.952l.8.77-5.738 6.941L5.09 12.66c-1.098-1.058-2.848-1.058-3.906 0a2.753 2.753 0 0 0 0 3.906l1.746 1.727L.086 21.73a.381.381 0 0 0 .043.528c.082.082.16.12.285.12.078 0 .203-.038.242-.077l3.438-2.852 2.418 2.403a.37.37 0 0 0 .285.12c.082 0 .203-.038.285-.081a.387.387 0 0 0 0-.567l-2.379-2.379 5.133-4.258 1.23 1.266a2.648 2.648 0 0 0 1.871.774c.774 0 1.504-.325 2.075-.774 1.058-1.098 1.058-2.844 0-3.902l-.926-.887 4.832-4.004c.71.649 1.453.988 2.195.988.895 0 1.828-.449 2.766-1.382a.399.399 0 0 0 0-.57zM11.96 5.746a1.936 1.936 0 0 1-.566-1.383 1.95 1.95 0 0 1 3.332-1.383l.472.473-2.488 3.012zM1.754 15.996a1.937 1.937 0 0 1-.57-1.383c0-.527.203-1.015.57-1.383a1.938 1.938 0 0 1 2.766 0l1.421 1.422-2.503 3.028zm1.707 2.926l.047-.05.008.007zm.555-.668L15.773 4.027l1.008 1.008-.386.387a.392.392 0 0 0 0 .57.37.37 0 0 0 .285.121.37.37 0 0 0 .285-.12l1.34-1.345a.392.392 0 0 0 0-.57.394.394 0 0 0-.567 0l-.386.387-1.063-1.059.352-.426a1.936 1.936 0 0 1 1.382-.566c.528 0 .973.203 1.34.566.367.368.57.856.57 1.383 0 .532-.203 1.02-.527 1.344L4.13 18.371zM14.44 12.66c.735.774.735 1.992 0 2.727-.73.61-1.992.773-2.765 0l-1.215-1.219 3.004-2.488zm0 0"/>
</svg>
