<svg xmlns="http://www.w3.org/2000/svg" width="32" height="32" viewBox="0 0 24 24">
    <path d="M23.98 19.441V4.52c0-.72-.601-1.32-1.32-1.32h-1.84V1.32C20.82.602 20.22 0 19.46 0h-3.722c-.718 0-1.32.602-1.32 1.32V3.2h-1.879c-.719 0-1.32.6-1.32 1.32v14.96c0 .72.601 1.32 1.32 1.32h1.922v1.88c0 .718.598 1.32 1.316 1.32H19.5c.719 0 1.32-.602 1.36-1.32V20.8h1.84c.718 0 1.32-.6 1.28-1.359zm-11.96 0v-1.683l2.015.672-2.008 1.105c-.004-.031-.007-.062-.007-.094zM23.059 4.156c.09.094.14.223.12.364v1.277l-8.484 5.012-2.047-.547zm-.504 9.574l-2.063 1.141-8.472-2.355v-1.594zm-6.774-2.632l7.399-4.371v1.472l-5.621 3.371zm3.711 4.324l-1.789.988-5.683-1.515v-1.547zm-4.504 2.48l-2.968-.988v-1.191l4.668 1.242zm.082.871l.043.016.016-.047 8.05-4.441v1.894l-6.402 3.766h-3.859zm8.11-5.703l-1.711-.457 1.71-1.066zm0-2.468l-2.766 1.73-1.781-.473 4.547-2.73zM21.746 4L12.02 9.703V7.836L18.918 4zM15.22 1.32c0-.28.242-.52.558-.52H19.5a.53.53 0 0 1 .52.52V3.2h-4.801zM12.539 4h4.734L12.02 6.922V4.52c0-.282.238-.52.52-.52zm7.441 18.68a.53.53 0 0 1-.52.52h-3.722a.53.53 0 0 1-.52-.52V20.8h4.762zm2.68-2.72h-4.305l4.825-2.835v2.316c0 .278-.242.52-.52.52zm0 0M10.418.398c0-.238-.16-.398-.398-.398-.243 0-.403.16-.403.398 0 1.2-.883 2.196-2.031 2.375l.031-.375A2.404 2.404 0 0 0 5.22 0C3.899 0 2.82 1.078 2.82 2.441l.032.36h-.434A2.404 2.404 0 0 0 .02 5.199a2.407 2.407 0 0 0 2.398 2.403h.887l.68 7.199H2.417A2.404 2.404 0 0 0 .02 17.199a2.407 2.407 0 0 0 2.398 2.403h2.02l.382 4.039c.04.199.2.359.399.359s.36-.16.398-.36L6 19.603h2.82c.239 0 .399-.16.399-.403 0-.238-.16-.398-.399-.398H6.074l.489-5.2H8.02a2.407 2.407 0 0 0 2.398-2.402A2.404 2.404 0 0 0 8.02 8.801H7.016l.492-5.215a3.211 3.211 0 0 0 2.91-3.188zm-8 6.403A1.605 1.605 0 0 1 .82 5.199c0-.879.72-1.597 1.598-1.597h.512l.3 3.199zm0 12A1.605 1.605 0 0 1 .82 17.199c0-.879.72-1.597 1.598-1.597h1.644l.301 3.199zm2.75 0L3.73 3.6h1.09V4c0 .238.16.398.399.398.242 0 .398-.16.398-.398V2.398C5.617 2.16 5.461 2 5.22 2c-.239 0-.399.16-.399.398v.403H3.656l-.039-.403c0-.878.723-1.597 1.602-1.597.879 0 1.601.719 1.601 1.558L5.273 18.801zM8.02 9.6c.878 0 1.597.72 1.597 1.598 0 .88-.719 1.602-1.597 1.602H6.64l.301-3.2zm0 0"/>
</svg>
