<svg xmlns="http://www.w3.org/2000/svg" width="32" height="32" viewBox="0 0 24 24">
    <path d="M22.977 5.559c.77-.86-.145-2.633-1.391-3.88C20.34.396 18.566-.48 17.707.29h-.004l-.754.758C15.496.324 14.293.28 13.652.922c-.082.09-.152.187-.214.297l-11.81 11.77c-.546.59-.589 1.6-.081 2.827.055.133.113.27.18.407l-.774.773c-.926.93 1.438 3.332 1.688 3.586.21.211 1.941 1.898 3.039 1.898.21 0 .422-.043.55-.21l.766-.766c.738.363 1.43.555 2.016.555.508 0 .93-.168 1.265-.465l2.754-2.75c.278.554.852.937 1.508.937.719 0 1.266.547 1.266 1.266A2.936 2.936 0 0 0 18.758 24a2.933 2.933 0 0 0 2.953-2.953 2.933 2.933 0 0 0-2.953-2.953c-.25 0-.422.168-.422.422s.172.422.422.422c1.183 0 2.11.925 2.11 2.109 0 1.18-.927 2.11-2.11 2.11a2.09 2.09 0 0 1-2.11-2.11c0-1.184-.925-2.11-2.109-2.11a.847.847 0 0 1-.84-.765l8.606-8.602c.629-.672.597-1.824-.102-3.25l.73-.71c0-.005 0-.005.005-.005 0-.003.003-.007.003-.007l.036-.035zM18.59.797c.465 0 1.476.422 2.45 1.433 1.222 1.223 1.644 2.446 1.347 2.743-.016.015-.04.027-.063.039h-.004c-.004 0-.004.004-.008.004-.136.046-.414.039-.851-.13-.027-.007-.055-.019-.078-.027-.5-.214-1.117-.617-1.738-1.238a8.732 8.732 0 0 1-.325-.344c-.03-.035-.066-.074-.097-.113a9.21 9.21 0 0 1-.184-.223c-.055-.078-.11-.148-.164-.222l-.145-.215a4.915 4.915 0 0 1-.37-.692 1.252 1.252 0 0 1-.032-.09 1.732 1.732 0 0 1-.058-.167c-.008-.028-.016-.055-.02-.078-.074-.286-.055-.497.047-.598a.59.59 0 0 1 .293-.082zm-2.277 2.066l1.097-1.097c.035.12.082.242.133.367.262.66.75 1.363 1.316 1.965l.02.02c.043.046.086.093.133.136.742.742 1.672 1.348 2.488 1.562l-1.094 1.098c-.297.04-1.265-.465-2.449-1.648-1.105-1.106-1.621-2.063-1.645-2.387v-.016zm-4.458 15.973l-9.14-2.61a7.327 7.327 0 0 1-.367-.75c-.313-.726-.368-1.34-.215-1.699l4.23 1.258.004.008.008-.004 7.152 2.129zM13.254 2.66c.05.34.156.703.316 1.09.32.785.844 1.613 1.496 2.41l-4.289-1.129 2.453-2.465.024.094zm2.863 4.649c.848.859 1.766 1.546 2.656 2.015L9.461 7.258l-.32-.586.949-.95zm-7.226.664l-.004.02.02.003 1.628 2.973-.008.027.028.008 2.879 5.254-2.801-.832L7.145 8.68 8.52 7.297zm.62 7.12l-2.558-.761-1.828-3.625 1.39-1.398zM5.84 14l-3.082-.918 1.738-1.746zm7.46.262l2.544.586-1.434 1.433zm-.542-.992l-1.09-1.989 6.195 1.551-1.316 1.313zm-1.64-2.997L10 8.243l10.188 2.26-1.63 1.63zM5.68 21.637c-.297.043-1.266-.465-2.446-1.645-1.183-1.183-1.687-2.195-1.648-2.449l.55-.547c.466.8 1.098 1.563 1.813 2.277a12.72 12.72 0 0 0 2.278 1.817zm4.008-.633c-.676.676-2.997-.211-5.106-2.32A14.43 14.43 0 0 1 3.414 17.3l7.758 2.219zm11.898-14.05c.379.929.465 1.687.125 2.026-.293.297-1.012.297-1.898-.085-1.055-.422-2.192-1.223-3.204-2.235a14.98 14.98 0 0 1-.718-.805c-.504-.609-.93-1.23-1.243-1.82-.105-.2-.199-.39-.277-.582-.379-.887-.379-1.601-.086-1.898.13-.125.34-.211.633-.211.383 0 .844.125 1.352.336l-.59.593a.738.738 0 0 0-.215.567c-.031 1.098 1.687 2.848 1.902 3.058.211.211 1.942 1.899 3.04 1.899.21 0 .421-.082.546-.25zm0 0"/>
</svg>
