<svg xmlns="http://www.w3.org/2000/svg" width="32" height="32" viewBox="0 0 24 24">
    <path d="M21.602 18.695V5.285c1.218-.523 2-1.223 2-2.086C23.602 1.121 19.078 0 14.8 0 10.52 0 6 1.121 6 3.2c0 .862.781 1.562 2 2.085v9.73a1.583 1.583 0 0 0-.8-.214c-.68 0-1.2-.52-1.2-1.2 0-1.562-1.238-2.8-2.8-2.8a2.783 2.783 0 0 0-2.802 2.8A2.783 2.783 0 0 0 3.2 16.399c.242 0 .403-.16.403-.398 0-.238-.16-.398-.403-.398-1.12 0-2-.883-2-2 0-1.122.88-2 2-2 1.121 0 2 .878 2 2 0 1.117.88 2 2 2 .442 0 .801.359.801.796v2.305c-1.633.735-2 1.524-2 2.098C6 22.879 10.52 24 14.8 24c4.278 0 8.802-1.121 8.802-3.2 0-.573-.332-1.402-2-2.105zm-11.02 1.992l10.219-5.992v1.88l-7.606 4.562a13.828 13.828 0 0 1-2.613-.45zm4.219-14.289c.277 0 .558-.003.836-.011L8.8 10.117v-1.48l4.168-2.274-.016-.027c.602.043 1.223.062 1.848.062zm6 7.09l-1.79-.449 1.79-1.117zm0-2.511l-2.867 1.793-1.82-.454L20.8 9.504zm0-2.407l-5.785 3.473-2.07-.52L20.8 7.086zm-.653 5.578l-2.117 1.243-9.23-2.875v-1.204zm-3.05 1.79l-1.457.859-6.84-1.902v-1.543zm-4.207 2.468L8.8 16.918v-1.191l5.879 1.632zm-4.09-.008v-.628l3.195 1.164-2.387 1.398c-.527-.246-.808-.508-.808-.73zm12-.894v2.098c0 .636-2.32 1.597-6 1.597h-.156zm0-11.34l-8.985 5.078-2.336-.582 8.09-4.418c1.176-.133 2.29-.355 3.23-.66zM6.8 3.2c0-1.12 3.437-2.398 8-2.398 4.558 0 8 1.277 8 2.398 0 .93-2.36 1.965-5.758 2.293h-.004c-.047.008-.09.012-.137.016-.027 0-.054.004-.086.008a.763.763 0 0 0-.09.007c-.042 0-.085.004-.132.008-.02.004-.04.004-.059.004l-.16.012c-.016.004-.031.004-.043.004l-.18.011h-.03l-.192.012h-.024c-.066.004-.129.008-.195.008h-.027a3.008 3.008 0 0 1-.188.008h-.031c-.063.004-.121.004-.184.004-.011 0-.027.004-.039.004H15.02c-.075.004-.145.004-.22.004-.073 0-.148 0-.222-.004H14.36c-.015 0-.027-.004-.039-.004-.062 0-.125 0-.183-.004h-.032a3.01 3.01 0 0 1-.19-.008h-.028c-.063 0-.13-.004-.192-.008h-.027l-.188-.011h-.03a42.341 42.341 0 0 1-.18-.012c-.016 0-.028 0-.043-.004l-.165-.012c-.019 0-.039 0-.058-.004a1.43 1.43 0 0 0-.133-.008.641.641 0 0 0-.09-.007c-.027-.004-.054-.008-.082-.008-.047-.004-.094-.008-.14-.016C9.16 5.164 6.8 4.13 6.8 3.2zm3.355 2.742c.457.102.942.188 1.45.254L8.8 7.727V5.582c.422.137.875.254 1.355.36zM14.801 23.2c-4.563 0-8-1.277-8-2.398 0-.403.437-.84 1.199-1.2 0 1.34 2.543 2.149 5.39 2.348v.004l.005-.004c.464.035.933.051 1.406.051 3.36 0 6.8-.84 6.8-2.398.758.398 1.2.796 1.2 1.199 0 1.12-3.442 2.398-8 2.398zm0 0"/>
    <path d="M14.8 4.8c1.802 0 3.598-.562 3.598-1.6 0-1.04-1.796-1.598-3.597-1.598s-3.602.558-3.602 1.597c0 1.04 1.801 1.602 3.602 1.602zm0-2.402c1.802 0 2.802.563 2.802.801 0 .242-1 .801-2.801.801C13 4 12 3.441 12 3.2c0-.24 1-.802 2.8-.802zm0 0"/>
</svg>
