<svg xmlns="http://www.w3.org/2000/svg" width="32" height="32" viewBox="0 0 24 24">
    <path d="M 23.558594 9.191406 L 15.011719 0.640625 C 14.6875 0.320312 14.128906 0.320312 13.804688 0.640625 L 13.523438 0.921875 C 13.363281 1.082031 13.285156 1.324219 13.285156 1.566406 L 13.503906 4.835938 L 10.785156 7.554688 L 7.40625 3.46875 C 7.9375 3 8.191406 2.5 8.226562 1.964844 C 8.269531 1.363281 7.945312 0.761719 7.304688 0.121094 C 7.144531 -0.0390625 6.902344 -0.0390625 6.742188 0.121094 C 6.582031 0.28125 6.582031 0.523438 6.742188 0.683594 C 7.222656 1.164062 7.425781 1.566406 7.425781 1.925781 C 7.390625 2.226562 7.222656 2.523438 6.890625 2.84375 L 6.664062 2.570312 C 6.222656 2.085938 5.617188 1.847656 4.976562 1.847656 C 4.335938 1.847656 3.773438 2.128906 3.289062 2.570312 C 2.808594 3.011719 2.570312 3.613281 2.570312 4.253906 C 2.570312 4.894531 2.808594 5.5 3.289062 5.980469 L 3.554688 6.199219 L 3.25 6.5 C 2.769531 6.941406 2.527344 7.546875 2.527344 8.1875 C 2.527344 8.828125 2.808594 9.429688 3.25 9.871094 C 3.691406 10.355469 4.292969 10.59375 4.9375 10.59375 C 5.578125 10.59375 6.179688 10.355469 6.621094 9.914062 L 7.25 9.253906 L 8.257812 10.085938 L 4.636719 13.707031 L 1.363281 13.484375 C 1.125 13.484375 0.882812 13.566406 0.722656 13.726562 L 0.441406 14.007812 C 0.28125 14.167969 0.199219 14.367188 0.199219 14.609375 C 0.199219 14.847656 0.28125 15.050781 0.441406 15.210938 L 8.988281 23.757812 C 9.152344 23.917969 9.351562 24 9.59375 24 C 9.832031 24 10.035156 23.917969 10.195312 23.757812 L 10.476562 23.476562 C 10.636719 23.316406 10.714844 23.078125 10.714844 22.835938 L 10.496094 19.601562 L 14.691406 15.40625 L 19.746094 19.585938 C 19.785156 19.625 19.90625 19.664062 19.988281 19.664062 C 20.066406 19.664062 20.1875 19.625 20.265625 19.585938 C 20.429688 19.464844 20.429688 19.222656 20.308594 19.0625 L 16.09375 13.96875 L 19.363281 10.695312 L 22.636719 10.917969 L 22.675781 10.917969 C 22.917969 10.917969 23.117188 10.796875 23.277344 10.675781 L 23.558594 10.394531 C 23.71875 10.234375 23.800781 10.035156 23.800781 9.792969 C 23.800781 9.550781 23.71875 9.351562 23.558594 9.191406 Z M 15.871094 7.480469 L 12.582031 6.882812 L 13.925781 5.539062 Z M 11.890625 7.574219 L 16.867188 8.480469 L 18.664062 10.273438 L 18.261719 10.675781 L 18.277344 10.613281 L 12.25 9.242188 L 12.242188 9.261719 L 11.316406 8.148438 Z M 17.644531 11.292969 L 15.613281 13.324219 L 13.0625 10.25 Z M 6.058594 9.3125 C 5.777344 9.632812 5.335938 9.792969 4.9375 9.792969 C 4.535156 9.792969 4.132812 9.632812 3.8125 9.3125 C 3.492188 9.03125 3.332031 8.589844 3.332031 8.1875 C 3.332031 7.785156 3.492188 7.382812 3.8125 7.0625 L 4.167969 6.707031 L 6.628906 8.742188 Z M 14 14.847656 L 7.199219 12.265625 L 8.871094 10.59375 Z M 6.578125 12.886719 L 13.441406 15.496094 L 12.367188 16.566406 L 5.390625 14.183594 L 5.335938 14.128906 Z M 6.683594 15.472656 L 11.734375 17.199219 L 10.074219 18.863281 Z M 9.59375 23.15625 L 9.550781 23.15625 L 1.003906 14.609375 L 1.003906 14.570312 L 1.324219 14.289062 C 1.285156 14.328125 1.285156 14.289062 1.324219 14.289062 L 4.574219 14.527344 L 4.832031 14.785156 L 4.816406 14.832031 L 4.917969 14.867188 L 7.132812 17.066406 L 9.675781 19.625 L 9.871094 22.875 Z M 16.976562 16.214844 L 4.757812 6.117188 L 5.5 5.378906 L 5.777344 5.660156 C 5.859375 5.738281 5.941406 5.777344 6.058594 5.777344 C 6.179688 5.777344 6.261719 5.738281 6.339844 5.660156 C 6.5 5.5 6.5 5.257812 6.339844 5.097656 L 5.21875 3.972656 C 5.058594 3.8125 4.816406 3.8125 4.65625 3.972656 C 4.496094 4.132812 4.496094 4.375 4.65625 4.535156 L 4.9375 4.816406 L 4.140625 5.609375 L 3.8125 5.335938 C 3.492188 5.058594 3.332031 4.617188 3.332031 4.214844 C 3.332031 3.8125 3.492188 3.371094 3.8125 3.089844 C 4.09375 2.769531 4.496094 2.609375 4.9375 2.609375 C 5.378906 2.609375 5.777344 2.769531 6.058594 3.050781 L 10.246094 8.097656 L 10.234375 8.105469 L 15.53125 14.527344 L 15.558594 14.503906 Z M 22.996094 9.832031 L 22.675781 10.113281 L 19.425781 9.871094 L 14.328125 4.777344 L 14.128906 1.484375 L 14.40625 1.203125 L 14.449219 1.203125 L 22.996094 9.792969 Z M 22.996094 9.832031"/>
</svg>
