<svg xmlns="http://www.w3.org/2000/svg" width="32" height="32" viewBox="0 0 24 24">
    <path d="M21.93 2.785v-.922C21.93.785 20.277.207 18.62.207c-1.656 0-3.312.578-3.312 1.656v.922C14 3.246 13.242 3.95 13.242 4.758v14.898c0 .824.793 1.535 2.067 1.98v.915c0 1.199 2.98 1.242 3.312 1.242.332 0 3.309-.043 3.309-1.242v-.914c1.273-.446 2.07-1.157 2.07-1.98v-14.9c0-.808-.758-1.51-2.07-1.972zm-7.508 3.559c.7.398 1.668.687 2.805.82l-3.157 1.84V6.125c.11.074.227.148.352.219zm4.441.894h.063c.894-.02 1.722-.129 2.437-.316l-6.758 4.305-.535-.157V9.96l4.664-2.718h.047c.028-.004.055-.004.082-.004zm-4.793 9.68l2.348.773-2.348 1.274zm3.348.23l-3.348-1.101v-1.598l5.246 1.668zm2.906-1.578l-6.254-1.988V11.93l.64.187.009.016.015-.008 2.871.836.004.004h.004L22.5 14.39zm2.848-1.847l-1.742-.508 1.742-1.09zm0-2.575l-2.809 1.758-1.785-.523 4.594-2.754zm0-2.488l-5.676 3.41-1.836-.535 7.512-4.781zm-7.035-5.668c.636.344 1.558.524 2.484.524.922 0 1.848-.18 2.48-.524v1.313c-.163.164-1.03.453-2.48.453s-2.316-.29-2.484-.453zm2.484-1.957c1.531 0 2.48.54 2.48.828 0 .29-.949.828-2.48.828-1.531 0-2.484-.539-2.484-.828 0-.289.953-.828 2.484-.828zM15.31 3.684v.66c0 1.199 2.98 1.242 3.312 1.242.332 0 3.309-.043 3.309-1.242v-.66c.789.289 1.242.703 1.242 1.074 0 .785-1.945 1.656-4.55 1.656-2.606 0-4.552-.871-4.552-1.656 0-.371.453-.742 1.239-1.074zm-1.192 16.195l9.055-4.91v1.96l-7.238 4.02.011.016c-.03-.008-.066-.016-.097-.027l-.266-.083c-.777-.265-1.305-.62-1.465-.976zm6.985 2.012v.62c-.165.165-1.032.454-2.48.454-1.45 0-2.317-.29-2.485-.453v-.621c.593.125 1.238.203 1.898.234.078.004.156.004.235.008h.046c.102.004.204.004.305.004.102 0 .203 0 .305-.004h.047c.078-.004.156-.004.234-.008a11.96 11.96 0 0 0 1.895-.234zm.558-1.036l-.265.082c-.41.122-.848.215-1.305.278-.016 0-.031.004-.047.004a.981.981 0 0 1-.105.015l-.106.012a.435.435 0 0 0-.066.008c-.028 0-.055.004-.086.008-.016 0-.032.004-.047.004l-.156.011c-.02.004-.04.004-.059.004a1.03 1.03 0 0 1-.11.008c-.035.004-.07.004-.101.008h-.07c-.04.004-.075.004-.11.008h-.047c-.05 0-.101.004-.152.004h-.414c-.05 0-.102-.004-.152-.004h-.047c-.035-.004-.074-.004-.11-.008h-.07c-.035-.004-.07-.004-.105-.008-.035 0-.07-.004-.106-.008-.02 0-.039 0-.062-.004l-.153-.011c-.015 0-.03-.004-.047-.004-.03-.004-.058-.008-.09-.008a7.775 7.775 0 0 0-.168-.02.981.981 0 0 1-.105-.015c-.012 0-.027 0-.043-.004l6.016-3.34v1.781c0 .426-.574.875-1.512 1.2zm0 0M9.93 2.691c-.91 0-1.653.743-1.653 1.653 0 .574.293 1.082.743 1.379l-3.227 7.742-3.227-7.742a1.65 1.65 0 0 0 .743-1.38c0-.91-.743-1.652-1.653-1.652S0 3.434 0 4.344a1.662 1.662 0 0 0 1.797 1.648l3.555 8.531-2.415 5.793c-.124.207 0 .457.208.54.042.042.125.042.164.042.168 0 .332-.085.375-.25l2.109-5.066 2.11 5.066c.042.165.206.25.374.25.04 0 .082 0 .164-.043.207-.082.29-.332.207-.539l-2.414-5.793 3.555-8.53c.047.003.094.007.14.007.91 0 1.657-.746 1.657-1.656 0-.91-.746-1.653-1.656-1.653zM.828 4.344c0-.453.371-.828.828-.828.453 0 .828.375.828.828a.829.829 0 0 1-1.656 0zm9.102.828a.831.831 0 0 1-.828-.828c0-.453.375-.828.828-.828a.829.829 0 0 1 0 1.656zm0 0"/>
</svg>
