<svg xmlns="http://www.w3.org/2000/svg" width="32" height="32" viewBox="0 0 24 24">
    <path d="M18.398 2.8h-2v-.402a.8.8 0 0 0-.796-.796h-1.204v-.403C14.398.52 13.878 0 13.2 0h-2.398c-.68 0-1.2.559-1.2 1.2v.402H8.399a.8.8 0 0 0-.796.796v.403h-2c-1.122 0-2 .879-2 2V22c0 1.121.878 2 2 2h12.796c1.122 0 2-.879 2-2V4.8c0-1.12-.878-2-2-2zm-10-.402H10c.238 0 .398-.16.398-.398v-.8c0-.24.16-.4.403-.4h2.398a.4.4 0 0 1 .403.4V2c0 .238.16.398.398.398h1.602V5.2H8.398zM19.602 22c0 .68-.524 1.2-1.204 1.2H5.602A1.18 1.18 0 0 1 4.398 22V4.8c0-.679.524-1.198 1.204-1.198h2v1.597c0 .442.359.801.796.801h7.204c.437 0 .796-.36.796-.8V3.601h2c.68 0 1.204.52 1.204 1.199zm0 0"/>
    <path d="M14.559 12.281a1.335 1.335 0 0 0-1.16-.64c-.477 0-.919.238-1.16.64L10.64 14.68 10 13.398c-.16-.359-.52-.558-.922-.558-.398 0-.758.2-.918.558L6.52 16.68c-.2.36-.2.8.039 1.16.242.36.64.558 1.043.558h8.796a1.2 1.2 0 0 0 1.043-.597c.2-.36.2-.84-.043-1.2zm2.203 5.117c-.043.043-.16.204-.364.204H7.602c-.204 0-.32-.122-.32-.204 0-.078-.083-.199 0-.398l1.64-3.281c.039-.117.156-.117.2-.117.038 0 .116 0 .237.117l.961 1.922c.04.16.16.238.32.238s.282-.078.36-.2l1.96-3a.52.52 0 0 1 .481-.28c.2 0 .36.12.48.28L16.762 17c.118.16.04.32 0 .398zm0 0M8 12c.879 0 1.602-.719 1.602-1.602 0-.878-.723-1.597-1.602-1.597-.879 0-1.602.719-1.602 1.597C6.398 11.281 7.121 12 8 12zm0-2.398c.441 0 .8.359.8.796a.802.802 0 0 1-1.6 0c0-.437.359-.796.8-.796zm0 0"/>
</svg>
