<svg xmlns="http://www.w3.org/2000/svg" width="32" height="32" viewBox="0 0 24 24">
    <path d="M18.398 2.8h-2v-.402a.8.8 0 0 0-.796-.796h-1.204v-.403C14.398.52 13.878 0 13.2 0h-2.398c-.68 0-1.2.559-1.2 1.2v.402H8.399a.8.8 0 0 0-.796.796v.403h-2c-1.122 0-2 .879-2 2V22c0 1.121.878 2 2 2h12.796c1.122 0 2-.879 2-2V4.8c0-1.12-.878-2-2-2zm-10-.402H10c.238 0 .398-.16.398-.398v-.8c0-.24.16-.4.403-.4h2.398a.4.4 0 0 1 .403.4V2c0 .238.16.398.398.398h1.602V5.2H8.398zM19.602 22c0 .68-.524 1.2-1.204 1.2H5.602A1.18 1.18 0 0 1 4.398 22V4.8c0-.679.524-1.198 1.204-1.198h2v1.597c0 .442.359.801.796.801h7.204c.437 0 .796-.36.796-.8V3.601h2c.68 0 1.204.52 1.204 1.199zm0 0"/>
    <path d="M16.922 15.2a.415.415 0 0 0-.48.32c-.442 2.199-2.204 3.68-4.32 3.68A4.629 4.629 0 0 1 7.726 16h1.875v-.8H7.277a.524.524 0 0 0-.156 0h-.723v3.198H7.2v-1.484A5.393 5.393 0 0 0 12.08 20c2.562 0 4.6-1.719 5.16-4.32a.412.412 0 0 0-.317-.48zm0 0M16.8 12.16c-.894-1.8-2.687-2.96-4.722-2.96-2.437 0-4.598 1.6-5.277 3.921-.04.2.078.399.277.48a.435.435 0 0 0 .48-.28C8.122 11.397 10.04 10 12.079 10c1.824 0 3.445 1.094 4.145 2.8h-1.825v.802h3.204v-3.204H16.8zm0 0"/>
</svg>
