<svg xmlns="http://www.w3.org/2000/svg" width="32" height="32" viewBox="0 0 24 24">
    <path d="M 18.398438 2.800781 L 16.398438 2.800781 L 16.398438 2.398438 C 16.398438 1.960938 16.039062 1.601562 15.601562 1.601562 L 14.398438 1.601562 L 14.398438 1.199219 C 14.398438 0.519531 13.878906 0 13.199219 0 L 10.800781 0 C 10.121094 0 9.601562 0.558594 9.601562 1.199219 L 9.601562 1.601562 L 8.398438 1.601562 C 7.960938 1.601562 7.601562 1.960938 7.601562 2.398438 L 7.601562 2.800781 L 5.601562 2.800781 C 4.480469 2.800781 3.601562 3.679688 3.601562 4.800781 L 3.601562 22 C 3.601562 23.121094 4.480469 24 5.601562 24 L 18.398438 24 C 19.519531 24 20.398438 23.121094 20.398438 22 L 20.398438 4.800781 C 20.398438 3.679688 19.519531 2.800781 18.398438 2.800781 Z M 8.398438 2.398438 L 10 2.398438 C 10.238281 2.398438 10.398438 2.238281 10.398438 2 L 10.398438 1.199219 C 10.398438 0.960938 10.558594 0.800781 10.800781 0.800781 L 13.199219 0.800781 C 13.441406 0.800781 13.601562 1 13.601562 1.199219 L 13.601562 2 C 13.601562 2.238281 13.761719 2.398438 14 2.398438 L 15.601562 2.398438 L 15.601562 5.199219 L 8.398438 5.199219 Z M 19.601562 22 C 19.601562 22.679688 19.078125 23.199219 18.398438 23.199219 L 5.601562 23.199219 C 4.921875 23.199219 4.398438 22.679688 4.398438 22 L 4.398438 4.800781 C 4.398438 4.121094 4.921875 3.601562 5.601562 3.601562 L 7.601562 3.601562 L 7.601562 5.199219 C 7.601562 5.640625 7.960938 6 8.398438 6 L 15.601562 6 C 16.039062 6 16.398438 5.640625 16.398438 5.199219 L 16.398438 3.601562 L 18.398438 3.601562 C 19.078125 3.601562 19.601562 4.121094 19.601562 4.800781 Z M 19.601562 22"/>
    <path d="M14.558594 12.28125C14.320312 11.878906 13.878906 11.640625 13.398438 11.640625 12.921875 11.640625 12.480469 11.878906 12.238281 12.28125L10.640625 14.679688 10 13.398438C9.839844 13.039062 9.480469 12.839844 9.078125 12.839844 8.679688 12.839844 8.320312 13.039062 8.160156 13.398438L6.519531 16.679688C6.320312 17.039062 6.320312 17.480469 6.558594 17.839844 6.800781 18.199219 7.199219 18.398438 7.601562 18.398438L16.398438 18.398438C16.839844 18.398438 17.238281 18.160156 17.441406 17.800781 17.640625 17.441406 17.640625 16.960938 17.398438 16.601562zM16.761719 17.398438C16.71875 17.441406 16.601562 17.601562 16.398438 17.601562L7.601562 17.601562C7.398438 17.601562 7.28125 17.480469 7.28125 17.398438 7.28125 17.320312 7.199219 17.199219 7.28125 17L8.921875 13.71875C8.960938 13.601562 9.078125 13.601562 9.121094 13.601562 9.160156 13.601562 9.238281 13.601562 9.359375 13.71875L10.320312 15.640625C10.359375 15.800781 10.480469 15.878906 10.640625 15.878906 10.800781 15.878906 10.921875 15.800781 11 15.679688L12.960938 12.679688C13.078125 12.480469 13.238281 12.398438 13.441406 12.398438 13.640625 12.398438 13.800781 12.519531 13.921875 12.679688L16.761719 17C16.878906 17.160156 16.800781 17.320312 16.761719 17.398438zM8 12C8.878906 12 9.601562 11.28125 9.601562 10.398438 9.601562 9.519531 8.878906 8.800781 8 8.800781 7.121094 8.800781 6.398438 9.519531 6.398438 10.398438 6.398438 11.28125 7.121094 12 8 12zM8 9.601562C8.441406 9.601562 8.800781 9.960938 8.800781 10.398438 8.800781 10.839844 8.441406 11.199219 8 11.199219 7.558594 11.199219 7.199219 10.839844 7.199219 10.398438 7.199219 9.960938 7.558594 9.601562 8 9.601562zM8 9.601562"/>
</svg>
