<svg xmlns="http://www.w3.org/2000/svg" width="32" height="32" viewBox="0 0 24 24">
    <path d="M18.398 2.8h-2v-.402a.8.8 0 0 0-.796-.796h-1.204v-.403C14.398.52 13.878 0 13.2 0h-2.398c-.68 0-1.2.559-1.2 1.2v.402H8.399a.8.8 0 0 0-.796.796v.403h-2c-1.122 0-2 .879-2 2V22c0 1.121.878 2 2 2h12.796c1.122 0 2-.879 2-2V4.8c0-1.12-.878-2-2-2zm-10-.402H10c.238 0 .398-.16.398-.398v-.8c0-.24.16-.4.403-.4h2.398a.4.4 0 0 1 .403.4V2c0 .238.16.398.398.398h1.602V5.2H8.398zM19.602 22c0 .68-.524 1.2-1.204 1.2H5.602A1.18 1.18 0 0 1 4.398 22V4.8c0-.679.524-1.198 1.204-1.198h2v1.597c0 .442.359.801.796.801h7.204c.437 0 .796-.36.796-.8V3.601h2c.68 0 1.204.52 1.204 1.199zm0 0"/>
    <path d="M16.04 9.52c-.481-.442-1.24-.442-1.68 0l-6.32 6.039-.825 3.265-.293.297a.385.385 0 0 0 0 .559.348.348 0 0 0 .277.12c.121 0 .2-.038.281-.12l.352-.352 3.168-.77 6.32-6.359a.967.967 0 0 0 0-1.398zm-7.063 6.273l4.183-3.992 1.738 1.738-4.085 4.09zm-.356.777l1.41 1.41-1.87.461zm8.14-4.89l-1.296 1.297-1.727-1.73 1.184-1.126a.385.385 0 0 1 .558 0l1.282 1.277a.198.198 0 0 1 0 .282zm0 0"/>
</svg>
