<svg xmlns="http://www.w3.org/2000/svg" width="32" height="32" viewBox="0 0 24 24">
    <path d="M18.398 2.8h-2v-.402a.8.8 0 0 0-.796-.796h-1.204v-.403C14.398.52 13.878 0 13.2 0h-2.398c-.68 0-1.2.559-1.2 1.2v.402H8.399a.8.8 0 0 0-.796.796v.403h-2c-1.122 0-2 .879-2 2V22c0 1.121.878 2 2 2h12.796c1.122 0 2-.879 2-2V4.8c0-1.12-.878-2-2-2zm-10-.402H10c.238 0 .398-.16.398-.398v-.8c0-.24.16-.4.403-.4h2.398a.4.4 0 0 1 .403.4V2c0 .238.16.398.398.398h1.602V5.2H8.398zM19.602 22c0 .68-.524 1.2-1.204 1.2H5.602A1.18 1.18 0 0 1 4.398 22V4.8c0-.679.524-1.198 1.204-1.198h2v1.597c0 .442.359.801.796.801h7.204c.437 0 .796-.36.796-.8V3.601h2c.68 0 1.204.52 1.204 1.199zm0 0"/>
    <path d="M15.762 10.8l-.02-.015A5.189 5.189 0 0 0 12 9.2a5.19 5.19 0 0 0-5.2 5.2c0 1.472.606 2.8 1.583 3.746.008.003.012.011.015.015.016.016.032.027.043.04A5.2 5.2 0 0 0 12 19.601a5.19 5.19 0 0 0 5.2-5.204 5.195 5.195 0 0 0-1.407-3.562c-.012-.012-.023-.024-.031-.035zM12 10a4.4 4.4 0 0 1 2.91 1.09l-6.219 6.219a4.385 4.385 0 0 1-1.09-2.91A4.385 4.385 0 0 1 12 10zm0 8.8a4.409 4.409 0 0 1-2.734-.945l6.187-6.187c.594.746.945 1.695.945 2.73A4.386 4.386 0 0 1 12 18.801zm0 0"/>
</svg>
