<svg xmlns="http://www.w3.org/2000/svg" width="32" height="32" viewBox="0 0 24 24">
    <path d="M18.398 2.8h-2v-.402a.8.8 0 0 0-.796-.796h-1.204v-.403C14.398.52 13.878 0 13.2 0h-2.398c-.68 0-1.2.559-1.2 1.2v.402H8.399a.8.8 0 0 0-.796.796v.403h-2c-1.122 0-2 .879-2 2V22c0 1.121.878 2 2 2h12.796c1.122 0 2-.879 2-2V4.8c0-1.12-.878-2-2-2zm-10-.402H10c.238 0 .398-.16.398-.398v-.8c0-.24.16-.4.403-.4h2.398a.4.4 0 0 1 .403.4V2c0 .238.16.398.398.398h1.602V5.2H8.398zM19.602 22c0 .68-.524 1.2-1.204 1.2H5.602A1.18 1.18 0 0 1 4.398 22V4.8c0-.679.524-1.198 1.204-1.198h2v1.597c0 .442.359.801.796.801h7.204c.437 0 .796-.36.796-.8V3.601h2c.68 0 1.204.52 1.204 1.199zm0 0"/>
    <path d="M6.398 16H11.2c.242 0 .403-.16.403-.398 0-.243-.16-.403-.403-.403H6.4c-.239 0-.399.16-.399.403 0 .238.16.398.398.398zm0 0M16 15.2h-3.2c-.241 0-.402.16-.402.402 0 .238.16.398.403.398H16c.238 0 .398-.16.398-.398 0-.243-.16-.403-.398-.403zm0 0M14.8 18.398H10c-.238 0-.398.16-.398.403 0 .238.16.398.398.398h4.8c.24 0 .4-.16.4-.398 0-.242-.16-.403-.4-.403zm0 0M6.398 9.602h2.403c.238 0 .398-.16.398-.403 0-.238-.16-.398-.398-.398H6.398C6.16 8.8 6 8.96 6 9.199c0 .242.16.403.398.403zm0 0M10.398 9.602h2c.243 0 .403-.16.403-.403 0-.238-.16-.398-.403-.398h-2c-.238 0-.398.16-.398.398 0 .242.16.403.398.403zm0 0M17.602 8.8H14c-.238 0-.398.16-.398.4 0 .241.16.402.398.402h3.602c.238 0 .398-.16.398-.403 0-.238-.16-.398-.398-.398zm0 0M6.398 12.8h4c.243 0 .403-.16.403-.402 0-.238-.16-.398-.403-.398h-4c-.238 0-.398.16-.398.398 0 .243.16.403.398.403zm0 0M8.398 18.398h-2c-.238 0-.398.16-.398.403 0 .238.16.398.398.398h2c.243 0 .403-.16.403-.398 0-.242-.16-.403-.403-.403zm0 0M16.8 12H12c-.238 0-.398.16-.398.398 0 .243.16.403.398.403h4.8c.24 0 .4-.16.4-.403 0-.238-.16-.398-.4-.398zm0 0"/>
</svg>
