<svg xmlns="http://www.w3.org/2000/svg" width="32" height="32" viewBox="0 0 24 24">
    <path d="M10.602 12.8c.238 0 .398-.16.398-.402 0-1.117.879-2 2-2 .238 0 .398-.16.398-.398 0-.238-.16-.398-.398-.398a2.783 2.783 0 0 0-2.8 2.796c0 .243.16.403.402.403zm0 0"/>
    <path d="M21.68 20.52L19 17.84V4.8c0-1.12-.879-2-2-2h-2v-.402a.801.801 0 0 0-.8-.796H13v-.403C13 .52 12.48 0 11.8 0H9.399C8.718 0 8.2.559 8.2 1.2v.402H7c-.441 0-.8.359-.8.796v.403h-2c-1.122 0-2 .879-2 2V22c0 1.121.878 2 2 2H17c1.121 0 2-.879 2-2v-3.04l2.121 2.118c.078.082.16.121.277.121.122 0 .204-.039.282-.12a.385.385 0 0 0 0-.56zM7 2.398h1.602C8.84 2.398 9 2.238 9 2v-.8c0-.24.16-.4.398-.4h2.403a.4.4 0 0 1 .398.4V2c0 .238.16.398.403.398h1.597V5.2H7zM18.2 22c0 .68-.52 1.2-1.2 1.2H4.2c-.68 0-1.2-.52-1.2-1.2V4.8c0-.679.52-1.198 1.2-1.198h2v1.597c0 .442.359.801.8.801h7.2c.44 0 .8-.36.8-.8V3.601h2c.68 0 1.2.52 1.2 1.199v12.238l-1.817-1.816a4.382 4.382 0 0 0 1.015-2.825A4.385 4.385 0 0 0 13 8a4.39 4.39 0 0 0-2.54.8H9c-.238 0-.398.16-.398.4 0 .241.16.402.398.402h.598A4.39 4.39 0 0 0 8.618 12H7.8c-.242 0-.403.16-.403.398 0 .243.16.403.403.403h.816a4.39 4.39 0 0 0 4.383 4 4.375 4.375 0 0 0 2.82-1.02l2.38 2.38zM10.765 9.57a.341.341 0 0 0 .152-.113 3.612 3.612 0 0 1 5.684 2.941C16.602 14.398 15 16 13 16c-2 0-3.602-1.602-3.602-3.602 0-1.152.536-2.171 1.368-2.828zm0 0"/>
    <path d="M5 16h3.2c.241 0 .402-.16.402-.398 0-.243-.16-.403-.403-.403H5c-.238 0-.398.16-.398.403 0 .238.16.398.398.398zm0 0M13.398 18.398H8.602c-.243 0-.403.16-.403.403 0 .238.16.398.403.398h4.796c.243 0 .403-.16.403-.398 0-.242-.16-.403-.403-.403zm0 0M15 18.398c-.238 0-.398.16-.398.403 0 .238.16.398.398.398h1.2c.241 0 .402-.16.402-.398 0-.242-.16-.403-.403-.403zm0 0M5 9.602h2.398c.243 0 .403-.16.403-.403 0-.238-.16-.398-.403-.398H5c-.238 0-.398.16-.398.398 0 .242.16.403.398.403zm0 0M5 12.8h1.2c.241 0 .402-.16.402-.402 0-.238-.16-.398-.403-.398H5c-.238 0-.398.16-.398.398 0 .243.16.403.398.403zm0 0M7 18.398H5c-.238 0-.398.16-.398.403 0 .238.16.398.398.398h2c.238 0 .398-.16.398-.398 0-.242-.16-.403-.398-.403zm0 0"/>
</svg>
