<svg xmlns="http://www.w3.org/2000/svg" width="32" height="32" viewBox="0 0 24 24">
    <path d="M18.398 2.8h-2v-.402a.8.8 0 0 0-.796-.796h-1.204v-.403C14.398.52 13.878 0 13.2 0h-2.398c-.68 0-1.2.559-1.2 1.2v.402H8.399a.8.8 0 0 0-.796.796v.403h-2c-1.122 0-2 .879-2 2V22c0 1.121.878 2 2 2h12.796c1.122 0 2-.879 2-2V4.8c0-1.12-.878-2-2-2zm-10-.402H10c.238 0 .398-.16.398-.398v-.8c0-.24.16-.4.403-.4h2.398a.4.4 0 0 1 .403.4V2c0 .238.16.398.398.398h1.602V5.2H8.398zM19.602 22c0 .68-.524 1.2-1.204 1.2H5.602A1.18 1.18 0 0 1 4.398 22V4.8c0-.679.524-1.198 1.204-1.198h2v1.597c0 .442.359.801.796.801h7.204c.437 0 .796-.36.796-.8V3.601h2c.68 0 1.204.52 1.204 1.199zm0 0"/>
    <path d="M13.2 19.2H6.8c-.241 0-.402.16-.402.402 0 .238.16.398.403.398h6.398c.242 0 .403-.16.403-.398 0-.243-.16-.403-.403-.403zm0 0M13.2 15.602H6.8c-.241 0-.402.16-.402.398 0 .238.16.398.403.398h6.398c.242 0 .403-.16.403-.398 0-.238-.16-.398-.403-.398zm0 0M13.2 12H6.8c-.241 0-.402.16-.402.398 0 .243.16.403.403.403h6.398c.242 0 .403-.16.403-.403 0-.238-.16-.398-.403-.398zm0 0M13.2 8.398H6.8c-.241 0-.402.16-.402.403 0 .238.16.398.403.398h6.398c.242 0 .403-.16.403-.398 0-.242-.16-.403-.403-.403zm0 0M17.84 7.281c-.16-.12-.442-.082-.559.078l-1.316 1.645-.485-.484a.385.385 0 0 0-.558 0 .385.385 0 0 0 0 .558l.777.781c.016.024.04.043.063.063.004 0 .008.004.011.004.063.05.133.074.227.074h.043a.364.364 0 0 0 .277-.16l1.602-2c.117-.16.078-.442-.082-.559zm0 0M17.84 10.879c-.16-.117-.442-.078-.559.082l-1.316 1.644-.485-.484a.385.385 0 0 0-.558 0 .385.385 0 0 0 0 .559l.777.777c.016.023.04.047.063.063.004.003.008.003.011.007a.359.359 0 0 0 .227.075c.016 0 .031-.004.043-.004a.349.349 0 0 0 .277-.157l1.602-2c.117-.16.078-.441-.082-.562zm0 0M17.84 14.48c-.16-.12-.442-.082-.559.079l-1.316 1.644-.485-.484a.385.385 0 0 0-.558 0 .39.39 0 0 0 0 .562l.777.778c.016.023.04.043.063.062.004 0 .008.004.011.004.063.05.133.074.227.074h.043a.364.364 0 0 0 .277-.16l1.602-2a.432.432 0 0 0-.082-.559zm0 0M17.84 18.078c-.16-.117-.442-.078-.559.082l-1.316 1.645-.485-.485a.385.385 0 0 0-.558 0 .385.385 0 0 0 0 .559l.777.781c.016.024.04.043.063.059.004.004.008.004.011.008A.359.359 0 0 0 16 20.8c.016 0 .031 0 .043-.004a.349.349 0 0 0 .277-.156l1.602-2c.117-.16.078-.442-.082-.563zm0 0"/>
</svg>
