<svg xmlns="http://www.w3.org/2000/svg" width="32" height="32" viewBox="0 0 24 24">
    <path d="M 9.800781 14.71875 C 9.921875 14.800781 10.160156 14.800781 10.28125 14.679688 L 12.800781 12.519531 L 15.320312 14.71875 C 15.398438 14.761719 15.519531 14.800781 15.601562 14.800781 C 15.679688 14.800781 15.71875 14.800781 15.800781 14.761719 L 20.199219 12.359375 C 20.320312 12.28125 20.398438 12.160156 20.398438 12 L 20.398438 4.800781 C 20.398438 3.679688 19.519531 2.800781 18.398438 2.800781 L 16.398438 2.800781 L 16.398438 2.398438 C 16.398438 1.960938 16.039062 1.601562 15.601562 1.601562 L 14.398438 1.601562 L 14.398438 1.199219 C 14.398438 0.519531 13.878906 0 13.199219 0 L 10.800781 0 C 10.121094 0 9.601562 0.558594 9.601562 1.199219 L 9.601562 1.601562 L 8.398438 1.601562 C 7.960938 1.601562 7.601562 1.960938 7.601562 2.398438 L 7.601562 2.800781 L 5.601562 2.800781 C 4.480469 2.800781 3.601562 3.679688 3.601562 4.800781 L 3.601562 22 C 3.601562 23.121094 4.480469 24 5.601562 24 L 18.398438 24 C 19.519531 24 20.398438 23.121094 20.398438 22 L 20.398438 14.800781 C 20.398438 14.679688 20.28125 14.558594 20.199219 14.480469 C 20.121094 14.398438 19.960938 14.398438 19.839844 14.441406 L 15.28125 16.320312 L 13.078125 14.121094 C 12.921875 13.960938 12.679688 13.960938 12.519531 14.078125 L 10 16.238281 L 7.480469 14.078125 C 7.398438 14.039062 7.28125 14 7.199219 14 L 5.398438 14 L 7.199219 12.878906 Z M 8.398438 2.398438 L 10 2.398438 C 10.238281 2.398438 10.398438 2.238281 10.398438 2 L 10.398438 1.199219 C 10.398438 0.960938 10.558594 0.800781 10.800781 0.800781 L 13.199219 0.800781 C 13.441406 0.800781 13.601562 1 13.601562 1.199219 L 13.601562 2 C 13.601562 2.238281 13.761719 2.398438 14 2.398438 L 15.601562 2.398438 L 15.601562 5.199219 L 8.398438 5.199219 Z M 9.761719 17.121094 C 9.921875 17.238281 10.121094 17.238281 10.28125 17.121094 L 12.800781 14.960938 L 14.921875 17.078125 C 15.039062 17.199219 15.199219 17.238281 15.359375 17.160156 L 19.601562 15.398438 L 19.601562 22 C 19.601562 22.679688 19.078125 23.199219 18.398438 23.199219 L 5.601562 23.199219 C 4.921875 23.199219 4.398438 22.679688 4.398438 22 L 4.398438 14.800781 L 7.039062 14.800781 Z M 4.398438 13.679688 L 4.398438 4.800781 C 4.398438 4.121094 4.921875 3.601562 5.601562 3.601562 L 7.601562 3.601562 L 7.601562 5.199219 C 7.601562 5.640625 7.960938 6 8.398438 6 L 15.640625 6 C 16.078125 6 16.441406 5.640625 16.441406 5.199219 L 16.441406 3.601562 L 18.441406 3.601562 C 19.121094 3.601562 19.640625 4.121094 19.640625 4.800781 L 19.640625 11.761719 L 15.679688 13.921875 L 13.078125 11.679688 C 13 11.640625 12.878906 11.601562 12.800781 11.601562 C 12.71875 11.601562 12.601562 11.640625 12.558594 11.679688 L 10 13.878906 L 7.441406 12.078125 C 7.320312 12 7.121094 12 7 12.078125 Z M 4.398438 13.679688"/>
</svg>
