<svg xmlns="http://www.w3.org/2000/svg" width="32" height="32" viewBox="0 0 24 24">
    <path d="M18.398 2.8h-2v-.402a.8.8 0 0 0-.796-.796h-1.204v-.403C14.398.52 13.878 0 13.2 0h-2.398c-.68 0-1.2.559-1.2 1.2v.402H8.399a.8.8 0 0 0-.796.796v.403h-2c-1.122 0-2 .879-2 2V22c0 1.121.878 2 2 2h12.796c1.122 0 2-.879 2-2V4.8c0-1.12-.878-2-2-2zm-10-.402H10c.238 0 .398-.16.398-.398v-.8c0-.24.16-.4.403-.4h2.398a.4.4 0 0 1 .403.4V2c0 .238.16.398.398.398h1.602V5.2H8.398zM19.602 22c0 .68-.524 1.2-1.204 1.2H5.602A1.18 1.18 0 0 1 4.398 22V4.8c0-.679.524-1.198 1.204-1.198h2v1.597c0 .442.359.801.796.801h7.204c.437 0 .796-.36.796-.8V3.601h2c.68 0 1.204.52 1.204 1.199zm0 0"/>
    <path d="M15.2 10.96V10h.8c.238 0 .398-.16.398-.398 0-.243-.16-.403-.398-.403H8c-.238 0-.398.16-.398.403 0 .238.16.398.398.398h.8v.922c0 1.406.727 2.7 1.907 3.457a4.123 4.123 0 0 0-1.906 3.46v.962H8c-.238 0-.398.16-.398.398 0 .242.16.403.398.403h8c.238 0 .398-.16.398-.403 0-.238-.16-.398-.398-.398h-.8v-.961a4.127 4.127 0 0 0-1.876-3.442 4.115 4.115 0 0 0 1.875-3.437zm-.802 6.88v.96H9.602v-.921c0-1.36.796-2.52 2.078-3.078h.64c1.282.52 2.078 1.719 2.078 3.039zm-1.984-3.88h-.828c-1.227-.538-1.984-1.714-1.984-3V10h4.796v.96c0 1.286-.757 2.462-1.984 3zm0 0"/>
</svg>
