<svg xmlns="http://www.w3.org/2000/svg" width="32" height="32" viewBox="0 0 24 24">
    <path d="M9.8 14.719c.122.082.36.082.481-.04l2.52-2.16 2.52 2.2c.077.043.199.082.28.082.079 0 .118 0 .2-.04l4.398-2.402c.121-.078.2-.199.2-.359V4.8c0-1.12-.88-2-2-2h-2v-.402a.8.8 0 0 0-.797-.796h-1.204v-.403C14.398.52 13.878 0 13.2 0h-2.398c-.68 0-1.2.559-1.2 1.2v.402H8.399a.8.8 0 0 0-.796.796v.403h-2c-1.122 0-2 .879-2 2V22c0 1.121.878 2 2 2h12.796c1.122 0 2-.879 2-2v-7.2c0-.12-.117-.241-.199-.32-.078-.082-.238-.082-.36-.039l-4.558 1.88-2.203-2.2a.43.43 0 0 0-.558-.043L10 16.238l-2.52-2.16A.761.761 0 0 0 7.2 14H5.397L7.2 12.879zM8.399 2.399H10c.238 0 .398-.16.398-.399v-.8c0-.24.16-.4.403-.4h2.398a.4.4 0 0 1 .403.4V2c0 .238.16.398.398.398h1.602V5.2H8.398zM9.762 17.12c.16.117.36.117.52 0l2.519-2.16 2.12 2.117c.118.121.278.16.438.082l4.243-1.762V22c0 .68-.524 1.2-1.204 1.2H5.602A1.18 1.18 0 0 1 4.398 22v-7.2H7.04zM4.398 13.68V4.8c0-.679.524-1.198 1.204-1.198h2v1.597c0 .442.359.801.796.801h7.243c.437 0 .8-.36.8-.8V3.601h2c.68 0 1.2.52 1.2 1.199v6.96l-3.961 2.16-2.602-2.241a.743.743 0 0 0-.277-.078c-.082 0-.2.039-.242.078L10 13.879l-2.559-1.8a.445.445 0 0 0-.441 0zm0 0"/>
</svg>
