<svg xmlns="http://www.w3.org/2000/svg" width="32" height="32" viewBox="0 0 24 24">
    <path d="M18.398 2.8h-2v-.402a.8.8 0 0 0-.796-.796h-1.204v-.403C14.398.52 13.878 0 13.2 0h-2.398c-.68 0-1.2.559-1.2 1.2v.402H8.399a.8.8 0 0 0-.796.796v.403h-2c-1.122 0-2 .879-2 2V22c0 1.121.878 2 2 2h12.796c1.122 0 2-.879 2-2V4.8c0-1.12-.878-2-2-2zm-10-.402H10c.238 0 .398-.16.398-.398v-.8c0-.24.16-.4.403-.4h2.398a.4.4 0 0 1 .403.4V2c0 .238.16.398.398.398h1.602V5.2H8.398zM19.602 22c0 .68-.524 1.2-1.204 1.2H5.602A1.18 1.18 0 0 1 4.398 22V4.8c0-.679.524-1.198 1.204-1.198h2v1.597c0 .442.359.801.796.801h7.204c.437 0 .796-.36.796-.8V3.601h2c.68 0 1.204.52 1.204 1.199zm0 0"/>
    <path d="M9.48 10.922c-.16-.16-.402-.203-.558-.043l-3.203 2.8a.463.463 0 0 0-.117.321c0 .121.039.238.117.32l3.203 2.801c.078.04.2.078.277.078.121 0 .242-.039.281-.16.16-.16.122-.398-.039-.559L6.601 14l2.84-2.52c.16-.16.2-.402.04-.558zm0 0M15.04 10.96c-.161-.16-.4-.12-.56.04-.16.16-.12.398.04.559l2.84 2.48-2.84 2.48c-.16.16-.2.399-.04.56.079.081.2.12.32.12.079 0 .2-.039.24 0l3.198-2.8a.442.442 0 0 0 .121-.32.44.44 0 0 0-.12-.317zm0 0M13.36 10.84c-.2-.078-.438 0-.52.2l-2.399 5.6c-.082.2 0 .438.2.52.039.04.12.04.16.04.16 0 .32-.079.36-.24l2.398-5.6c.082-.2 0-.438-.2-.52zm0 0"/>
</svg>
