<svg xmlns="http://www.w3.org/2000/svg" width="32" height="32" viewBox="0 0 24 24">
    <path d="M16.398 5.2V3.48a.361.361 0 0 0 .122-.28.385.385 0 0 0-.122-.298v-.504a.8.8 0 0 0-.796-.796h-1.204v-.403C14.398.52 13.878 0 13.2 0h-2.398c-.68 0-1.2.559-1.2 1.2v.402H8.399a.8.8 0 0 0-.796.796v.407c-.196.035-.32.183-.32.394 0 .2.116.36.32.403v1.59a.287.287 0 0 0 0 .128c.074.371.351.637.71.676h.008C8.348 6 8.371 6 8.398 6h7.204c.16 0 .32-.04.437-.121a.364.364 0 0 0 .121-.11.793.793 0 0 0 .238-.57zm-1.359 0H8.4V2.397H10c.238 0 .398-.16.398-.398v-.8c0-.24.16-.4.403-.4h2.398a.4.4 0 0 1 .403.4V2c0 .238.16.398.398.398h1.602V5.2zm0 0M4.398 21.84v-.8c0-.24-.16-.4-.398-.4-.238 0-.398.16-.398.4v.8c0 .238.16.398.398.398a.4.4 0 0 0 .398-.398zm0 0M4 19.84a.4.4 0 0 0 .398-.399v-.8c0-.243-.16-.403-.398-.403-.238 0-.398.16-.398.403v.8c0 .239.16.399.398.399zm0 0M4 17.441a.403.403 0 0 0 .398-.402v-.8c0-.239-.16-.4-.398-.4-.238 0-.398.161-.398.4v.8c0 .242.16.402.398.402zm0 0M6.078 2.8h-.476c-.16 0-.282.04-.442.04-.2.039-.32.281-.281.48.043.2.2.32.402.32h.078c.082-.038.16-.038.243-.038h.476c.242 0 .402-.16.402-.403 0-.238-.16-.398-.402-.398zm0 0M5.398 23.2c-.199-.04-.398-.122-.52-.2-.16-.16-.437-.121-.558.04-.16.16-.12.44.04.562.242.199.562.359.878.398h.082c.2 0 .36-.16.399-.32a.411.411 0 0 0-.32-.48zm0 0M4 15.04a.4.4 0 0 0 .398-.4v-.8c0-.238-.16-.399-.398-.399-.238 0-.398.16-.398.399v.8c0 .239.16.4.398.4zm0 0M4 5.441a.403.403 0 0 0 .398-.402v-.238c0-.121.043-.281.082-.403.079-.238-.039-.437-.242-.558-.199-.078-.437.039-.52.238a2.33 2.33 0 0 0-.116.723v.238c0 .242.16.402.398.402zm0 0M19.602 4.8c0 .24.16.4.398.4.238 0 .398-.16.398-.4 0-.32-.078-.64-.238-.96-.12-.2-.36-.281-.558-.16-.204.12-.282.36-.16.558.117.16.16.364.16.563zm0 0M4 7.84a.4.4 0 0 0 .398-.399v-.8c0-.243-.16-.403-.398-.403-.238 0-.398.16-.398.403v.8c0 .239.16.399.398.399zm0 0M4 10.238a.4.4 0 0 0 .398-.398v-.8c0-.24-.16-.4-.398-.4-.238 0-.398.16-.398.4v.8c0 .238.16.398.398.398zm0 0M4 12.64a.4.4 0 0 0 .398-.402v-.797c0-.242-.16-.402-.398-.402-.238 0-.398.16-.398.402v.797c0 .242.16.403.398.403zm0 0M7.719 23.2h-.797c-.242 0-.402.16-.402.402 0 .238.16.398.402.398h.797a.4.4 0 0 0 .402-.398c0-.243-.16-.403-.402-.403zm0 0M20 18c-.238 0-.398.16-.398.398v.801c0 .242.16.403.398.403.238 0 .398-.16.398-.403v-.8c0-.239-.16-.399-.398-.399zm0 0M20 13.2c-.238 0-.398.16-.398.402v.796c0 .243.16.403.398.403.238 0 .398-.16.398-.403v-.796c0-.243-.16-.403-.398-.403zm0 0M20 10.8c-.238 0-.398.16-.398.4v.8c0 .238.16.398.398.398.238 0 .398-.16.398-.398v-.8c0-.24-.16-.4-.398-.4zm0 0M20 15.602c-.238 0-.398.16-.398.398v.8c0 .24.16.4.398.4.238 0 .398-.16.398-.4V16c0-.238-.16-.398-.398-.398zm0 0M10.121 23.2h-.8c-.243 0-.4.16-.4.402 0 .238.157.398.4.398h.8a.4.4 0 0 0 .399-.398c0-.243-.16-.403-.399-.403zm0 0M20 20.398c-.238 0-.398.16-.398.403v.8c0 .239.16.399.398.399.238 0 .398-.16.398-.398V20.8c0-.242-.16-.403-.398-.403zm0 0M20 8.398c-.238 0-.398.16-.398.403v.8c0 .239.16.399.398.399.238 0 .398-.16.398-.398V8.8c0-.242-.16-.403-.398-.403zm0 0M20 6c-.238 0-.398.16-.398.398V7.2c0 .242.16.403.398.403.238 0 .398-.16.398-.403v-.8c0-.239-.16-.399-.398-.399zm0 0M19.281 22.8c-.12.16-.281.24-.48.321-.2.078-.32.32-.242.52.043.16.203.28.363.28.039 0 .078 0 .078-.042.32-.078.602-.277.84-.52a.385.385 0 0 0 0-.558.385.385 0 0 0-.559 0zm0 0M14.922 23.2h-.8c-.243 0-.403.16-.403.402 0 .238.16.398.402.398h.8a.4.4 0 0 0 .4-.398c0-.243-.16-.403-.4-.403zm0 0M12.52 23.2h-.801c-.239 0-.399.16-.399.402 0 .238.16.398.399.398h.8c.2 0 .403-.16.403-.398 0-.243-.16-.403-.402-.403zm0 0M18.922 3.238c.039-.238-.121-.437-.363-.437H17.719c-.239 0-.399.16-.399.398 0 .242.16.403.399.403h.801c.199 0 .402-.16.402-.364zm0 0M17.32 23.2h-.8c-.239 0-.399.16-.399.402 0 .238.16.398.399.398h.8a.4.4 0 0 0 .399-.398c0-.243-.16-.403-.399-.403zm0 0"/>
</svg>
