<svg xmlns="http://www.w3.org/2000/svg" width="32" height="32" viewBox="0 0 24 24">
    <path d="M16.8 19.602c1.122 0 2-.883 2-2V4.8c0-1.121-.878-2-2-2H16v-.403a.801.801 0 0 0-.8-.796h-.802v-.403c0-.32-.117-.597-.359-.84C13.84.121 13.52 0 13.2 0h-2.398c-.68 0-1.2.52-1.2 1.2v.402h-.8c-.442 0-.801.359-.801.796v.403h-.8c-1.122 0-2 .879-2 2v12.8c0 1.118.878 2 2 2h4.402v1.2H10c-.68 0-1.2.52-1.2 1.199H5.603c-.243 0-.403.16-.403.398 0 .243.16.403.403.403H8.8C8.8 23.48 9.32 24 10 24h4c.68 0 1.2-.52 1.2-1.2h3.198c.243 0 .403-.16.403-.402 0-.238-.16-.398-.403-.398H15.2c0-.68-.52-1.2-1.199-1.2h-1.602v-1.198zM14.399 22v.8c0 .24-.16.4-.398.4h-4c-.238 0-.398-.16-.398-.4V22c0-.238.16-.398.398-.398h4c.238 0 .398.16.398.398zM8.801 2.398H10c.238 0 .398-.16.398-.398v-.8c0-.24.16-.4.403-.4h2.398c.121 0 .242.04.281.122a.36.36 0 0 1 .122.277V2c0 .238.16.398.398.398h1.2V4H8.8zM6 17.602V4.8c0-.68.52-1.2 1.2-1.2H8V4c0 .215.066.398.195.52.133.152.32.257.528.277.027 0 .05.004.078.004h6.398C15.641 4.8 16 4.44 16 4v-.398h.8c.68 0 1.2.52 1.2 1.199v12.8c0 .68-.52 1.2-1.2 1.2H7.2c-.68 0-1.2-.52-1.2-1.2zm0 0"/>
    <path d="M16.398 11.602A4.386 4.386 0 0 0 12 7.199a4.386 4.386 0 0 0-4.398 4.403A4.385 4.385 0 0 0 12 16a4.385 4.385 0 0 0 4.398-4.398zm-8 0C8.398 9.602 10 8 12 8c2 0 3.602 1.602 3.602 3.602 0 2-1.602 3.597-3.602 3.597-2 0-3.602-1.597-3.602-3.597zm0 0"/>
    <path d="M12.398 13.602v-3.043l.922.921c.078.079.16.122.282.122.117 0 .199-.043.277-.122a.385.385 0 0 0 0-.558l-1.531-1.535A.38.38 0 0 0 12 9.199a.38.38 0 0 0-.348.188l-1.53 1.535a.385.385 0 0 0 0 .558c.077.079.16.122.276.122a.369.369 0 0 0 .282-.122l.922-.921v3.043c0 .238.16.398.398.398.238 0 .398-.16.398-.398zm0 0"/>
</svg>
