<svg xmlns="http://www.w3.org/2000/svg" width="32" height="32" viewBox="0 0 24 24">
    <path d="M20.793 5.117a.378.378 0 0 0-.184-.265L15.95.192a.367.367 0 0 0-.265-.184C15.648 0 15.614 0 15.578 0H4.398C3.718 0 3.2.523 3.2 1.203v21.598c0 .68.52 1.199 1.2 1.199h15.199c.68 0 1.199-.52 1.199-1.2V5.224a.32.32 0 0 0-.004-.106zm-1.355-.316h-3.04c-.238 0-.398-.16-.398-.399V1.363zm.562 18c0 .238-.16.398-.402.398h-15.2c-.238 0-.398-.16-.398-.398V1.203a.4.4 0 0 1 .398-.402H15.2v3.601c0 .68.52 1.2 1.2 1.2H20zm0 0"/>
    <path d="M6 5.602h7.2c.238 0 .398-.16.398-.399 0-.242-.16-.402-.399-.402H6c-.242 0-.398.16-.398.402 0 .238.156.399.398.399zm0 0M5.598 7.602c0 .238.16.398.402.398h12c.238 0 .398-.16.398-.398 0-.243-.16-.403-.398-.403H6c-.242 0-.402.16-.402.403zm0 0M18 9.602H6c-.242 0-.398.16-.398.398 0 .242.156.402.398.402h12c.238 0 .398-.16.398-.402 0-.238-.16-.398-.398-.398zm0 0M18 12H6c-.242 0-.398.16-.398.402 0 .239.156.399.398.399h12c.238 0 .398-.16.398-.399 0-.242-.16-.402-.398-.402zm0 0M18 14.402H6c-.242 0-.398.16-.398.399 0 .238.156.398.398.398h12c.238 0 .398-.16.398-.398 0-.239-.16-.399-.398-.399zm0 0M18 16.8H6c-.242 0-.398.16-.398.4 0 .241.156.402.398.402h12c.238 0 .398-.16.398-.403 0-.238-.16-.398-.398-.398zm0 0M18 19.2H6c-.242 0-.398.16-.398.402 0 .238.156.398.398.398h12c.238 0 .398-.16.398-.398 0-.243-.16-.403-.398-.403zm0 0"/>
</svg>
