<svg xmlns="http://www.w3.org/2000/svg" width="32" height="32" viewBox="0 0 24 24">
    <path d="M20.793 5.117a.378.378 0 0 0-.184-.265L15.95.192a.367.367 0 0 0-.265-.184C15.648 0 15.614 0 15.578 0H4.398C3.718 0 3.2.523 3.2 1.203v21.598c0 .68.52 1.199 1.2 1.199h15.199c.68 0 1.199-.52 1.199-1.2V5.224a.32.32 0 0 0-.004-.106zm-1.355-.316h-3.04c-.238 0-.398-.16-.398-.399V1.363zm.562 18c0 .238-.16.398-.402.398h-15.2c-.238 0-.398-.16-.398-.398V1.203a.4.4 0 0 1 .398-.402H15.2v3.601c0 .68.52 1.2 1.2 1.2H20zm0 0"/>
    <path d="M18 19.2h-4c-.242 0-.402.16-.402.402 0 .238.16.398.402.398h4c.238 0 .398-.16.398-.398 0-.243-.16-.403-.398-.403zm0 0M16 20.8h-2c-.242 0-.402.16-.402.4 0 .241.16.402.402.402h2c.238 0 .398-.16.398-.403 0-.238-.16-.398-.398-.398zm0 0M18 20.8h-.402c-.239 0-.399.16-.399.4 0 .241.16.402.399.402H18c.238 0 .398-.16.398-.403 0-.238-.16-.398-.398-.398zm0 0M9.68 7.32l-4 4.801a.423.423 0 0 0-.04.441c.079.16.2.239.36.239h1.113L5.68 14.52a.423.423 0 0 0-.04.44c.079.161.2.24.36.24h1.113L5.68 16.921a.415.415 0 0 0-.04.437c.079.16.2.243.36.243h8a.377.377 0 0 0 .32-.16l4-4.801a.44.44 0 0 0 .04-.442c-.083-.16-.2-.238-.36-.238h-1.113l1.433-1.719a.44.44 0 0 0 .04-.441c-.083-.16-.2-.239-.36-.239h-1.113L18.32 7.84a.432.432 0 0 0 .04-.438c-.083-.16-.2-.242-.36-.242h-8c-.121 0-.242.082-.32.16zm7.437 5.48l-3.316 4H6.84l1.36-1.6H14c.117 0 .238-.04.32-.16l1.864-2.24zm0-2.398l-1.39 1.676a.468.468 0 0 0-.047.043L13.8 14.36H8a.325.325 0 0 0-.156.043H6.84l1.36-1.601H14c.117 0 .238-.04.32-.16l1.864-2.239zm0-2.402l-1.39 1.676-.047.047-1.88 2.238H8a.37.37 0 0 0-.156.039H6.84l3.36-4zm0 0"/>
</svg>
