<svg xmlns="http://www.w3.org/2000/svg" width="32" height="32" viewBox="0 0 24 24">
    <path d="M20.793 5.117a.378.378 0 0 0-.184-.265L15.95.192a.367.367 0 0 0-.265-.184C15.648 0 15.614 0 15.578 0H4.398C3.718 0 3.2.523 3.2 1.203v21.598c0 .68.52 1.199 1.2 1.199h15.199c.68 0 1.199-.52 1.199-1.2V5.224a.32.32 0 0 0-.004-.106zm-1.355-.316h-3.04c-.238 0-.398-.16-.398-.399V1.363zm.562 18c0 .238-.16.398-.402.398h-15.2c-.238 0-.398-.16-.398-.398V1.203a.4.4 0 0 1 .398-.402H15.2v3.601c0 .68.52 1.2 1.2 1.2H20zm0 0"/>
    <path d="M6 5.602h5.2c.238 0 .398-.16.398-.399 0-.242-.16-.402-.399-.402H6c-.242 0-.398.16-.398.402 0 .238.156.399.398.399zm0 0M6 7.2h3.2c.238 0 .398-.157.398-.4 0-.237-.16-.398-.399-.398H6c-.242 0-.398.16-.398.399 0 .242.156.398.398.398zm0 0M11.2 6.402h-.4c-.241 0-.402.16-.402.399 0 .242.16.398.403.398h.398c.239 0 .399-.156.399-.398 0-.239-.16-.399-.399-.399zm0 0M14.398 12c0 .309.09.598.243.84l-1.403 1.402v-.004a1.619 1.619 0 0 0-.84-.238 1.56 1.56 0 0 0-.812.227l-.309-.305-.304-.305c.144-.242.226-.52.226-.816 0-.88-.719-1.602-1.601-1.602a1.605 1.605 0 0 0-1.375 2.418l-1.825 1.824V9.2c0-.238-.16-.398-.398-.398-.242 0-.402.16-.402.398v10c0 .242.16.403.402.403h10c.238 0 .398-.16.398-.403 0-.238-.16-.398-.398-.398H6.398v-2.242l2.36-2.36c.523.281 1.16.281 1.64 0l.32.281.305.305a1.602 1.602 0 0 0 1.375 2.414c.88 0 1.602-.719 1.602-1.597 0-.29-.078-.559-.21-.79l1.42-1.421c.231.132.5.21.79.21.879 0 1.598-.722 1.598-1.601s-.72-1.598-1.598-1.598c-.883 0-1.602.72-1.602 1.598zm-4.8 0c.441 0 .8.36.8.8 0 .196-.07.38-.191.516-.016.016-.031.028-.047.043a.498.498 0 0 1-.105.098.799.799 0 0 1-.45.145.817.817 0 0 1-.566-.243c-.016-.011-.027-.023-.043-.035A.802.802 0 0 1 9.598 12zm2.8 4.402a.807.807 0 0 1-.8-.8c0-.2.074-.383.199-.524.012-.012.027-.023.043-.039a.76.76 0 0 1 .101-.094.789.789 0 0 1 .45-.144.84.84 0 0 1 .57.238.468.468 0 0 0 .047.043c.117.14.191.32.191.52 0 .437-.36.8-.8.8zM16.801 12a.802.802 0 0 1-1.602 0c0-.438.36-.8.801-.8.438 0 .8.363.8.8zm0 0"/>
</svg>
