<svg xmlns="http://www.w3.org/2000/svg" width="32" height="32" viewBox="0 0 24 24">
    <path d="M22.398 6.398h-.437A1.973 1.973 0 0 0 20 4.801h-6.2l-1.878-2.242a.377.377 0 0 0-.32-.16H2.8c-.88 0-1.602.722-1.602 1.601v2.45C.512 6.628 0 7.257 0 8v12c0 .879.719 1.602 1.602 1.602h20.796c.883 0 1.602-.723 1.602-1.602V8c0-.879-.719-1.602-1.602-1.602zM2 4c0-.441.36-.8.8-.8h8.598l1.883 2.241c.078.118.2.16.32.16H20c.52 0 .96.32 1.121.797H2zm21.2 16c0 .441-.36.8-.802.8H1.602C1.16 20.8.8 20.442.8 20V8c0-.441.36-.8.8-.8h20.797c.442 0 .801.359.801.8zm0 0"/>
    <path d="M7.602 8.8H2.8c-.242 0-.403.16-.403.4 0 .241.16.402.403.402h4.8c.239 0 .399-.16.399-.403 0-.238-.16-.398-.398-.398zm0 0M7.602 10.398H2.8c-.242 0-.403.16-.403.403 0 .238.16.398.403.398h4.8c.239 0 .399-.16.399-.398 0-.242-.16-.403-.398-.403zm0 0"/>
</svg>
