<svg xmlns="http://www.w3.org/2000/svg" width="32" height="32" viewBox="0 0 24 24">
    <path d="M 20.792969 5.117188 C 20.769531 5 20.707031 4.90625 20.609375 4.851562 L 15.949219 0.191406 C 15.894531 0.09375 15.800781 0.0273438 15.683594 0.0078125 C 15.648438 0 15.613281 0 15.578125 0 L 4.398438 0 C 3.71875 0 3.199219 0.523438 3.199219 1.203125 L 3.199219 22.800781 C 3.199219 23.480469 3.71875 24 4.398438 24 L 19.597656 24 C 20.277344 24 20.796875 23.480469 20.796875 22.800781 L 20.796875 5.222656 C 20.800781 5.1875 20.800781 5.152344 20.792969 5.117188 Z M 19.4375 4.800781 L 16.398438 4.800781 C 16.160156 4.800781 16 4.640625 16 4.402344 L 16 1.363281 Z M 20 22.800781 C 20 23.039062 19.839844 23.199219 19.597656 23.199219 L 4.398438 23.199219 C 4.160156 23.199219 4 23.039062 4 22.800781 L 4 1.203125 C 4 1 4.160156 0.800781 4.398438 0.800781 L 15.199219 0.800781 L 15.199219 4.402344 C 15.199219 5.082031 15.71875 5.601562 16.398438 5.601562 L 20 5.601562 Z M 20 22.800781"/>
    <path d="M13.597656 11.480469C13.558594 11.722656 13.679688 11.921875 13.878906 12 14.117188 12.039062 14.320312 11.921875 14.398438 11.722656L14.679688 10.960938C15.039062 9.839844 14.800781 8.5625 14 7.679688L12.320312 5.761719C12.199219 5.640625 12.039062 5.601562 11.878906 5.640625 11.71875 5.679688 11.597656 5.839844 11.597656 6L11.597656 13.199219 10.398438 13.199219C9.28125 13.199219 8.398438 14.082031 8.398438 15.199219 8.398438 16.320312 9.28125 17.199219 10.398438 17.199219 11.519531 17.199219 12.398438 16.320312 12.398438 15.199219L12.398438 7.082031 13.320312 8.199219C13.917969 8.882812 14.117188 9.839844 13.839844 10.722656zM11.597656 15.199219C11.597656 15.878906 11.078125 16.402344 10.398438 16.402344 9.71875 16.402344 9.199219 15.878906 9.199219 15.199219 9.199219 14.519531 9.71875 14 10.398438 14L11.597656 14zM13.597656 19.601562C13.597656 19.839844 13.757812 20 14 20L18 20C18.238281 20 18.398438 19.839844 18.398438 19.601562 18.398438 19.359375 18.238281 19.199219 18 19.199219L14 19.199219C13.757812 19.199219 13.597656 19.359375 13.597656 19.601562zM16 20.800781L14 20.800781C13.757812 20.800781 13.597656 20.960938 13.597656 21.199219 13.597656 21.441406 13.757812 21.601562 14 21.601562L16 21.601562C16.238281 21.601562 16.398438 21.441406 16.398438 21.199219 16.398438 20.960938 16.238281 20.800781 16 20.800781zM18 20.800781L17.597656 20.800781C17.359375 20.800781 17.199219 20.960938 17.199219 21.199219 17.199219 21.441406 17.359375 21.601562 17.597656 21.601562L18 21.601562C18.238281 21.601562 18.398438 21.441406 18.398438 21.199219 18.398438 20.960938 18.238281 20.800781 18 20.800781zM18 20.800781"/>
</svg>
