<svg xmlns="http://www.w3.org/2000/svg" width="32" height="32" viewBox="0 0 24 24">
    <path d="M20.793 5.117a.378.378 0 0 0-.184-.265L15.95.192a.367.367 0 0 0-.265-.184C15.648 0 15.614 0 15.578 0H4.398C3.718 0 3.2.523 3.2 1.203v21.598c0 .68.52 1.199 1.2 1.199h15.199c.68 0 1.199-.52 1.199-1.2V5.224a.32.32 0 0 0-.004-.106zm-1.355-.316h-3.04c-.238 0-.398-.16-.398-.399V1.363zm.562 18c0 .238-.16.398-.402.398h-15.2c-.238 0-.398-.16-.398-.398V1.203a.4.4 0 0 1 .398-.402H15.2v3.601c0 .68.52 1.2 1.2 1.2H20zm0 0"/>
    <path d="M16 7.2v.402h-2.8v-.403c0-.238-.16-.398-.4-.398h-1.6c-.24 0-.4.16-.4.398v.403H8v-.403c0-.238-.16-.398-.402-.398H6c-.242 0-.398.16-.398.398v1.602c0 .238.156.398.398.398h.398v4H6c-.242 0-.398.16-.398.403v1.597c0 .242.156.403.398.403h1.598c.242 0 .402-.16.402-.403v-.398h2.8v.398c0 .242.16.403.4.403h1.6c.24 0 .4-.16.4-.403v-.398H16v.398c0 .242.16.403.398.403H18c.238 0 .398-.16.398-.403v-1.597c0-.243-.16-.403-.398-.403h-.402v-4H18c.238 0 .398-.16.398-.398V7.199c0-.238-.16-.398-.398-.398h-1.602c-.238 0-.398.16-.398.398zm-4.402.402h.8v.8h-.8zm-5.2 0H7.2v.8h-.8zM7.2 14.8h-.8V14h.8zm5.2 0h-.801V14h.8zm5.199 0h-.801V14h.8zm-.797-1.602h-.403c-.238 0-.398.16-.398.403V14h-2.8v-.398c0-.243-.16-.403-.4-.403h-1.6c-.24 0-.4.16-.4.403V14H8v-.398c0-.243-.16-.403-.402-.403h-.399v-4h.399C7.84 9.2 8 9.043 8 8.801v-.399h2.8v.399c0 .242.16.398.4.398h1.6c.24 0 .4-.156.4-.398v-.399H16v.399c0 .242.16.398.398.398h.403zm0-5.597h.797v.8H16.8zm0 0M18 19.2h-4c-.242 0-.402.16-.402.402 0 .238.16.398.402.398h4c.238 0 .398-.16.398-.398 0-.243-.16-.403-.398-.403zm0 0M16 20.8h-2c-.242 0-.402.16-.402.4 0 .241.16.402.402.402h2c.238 0 .398-.16.398-.403 0-.238-.16-.398-.398-.398zm0 0M18 20.8h-.402c-.239 0-.399.16-.399.4 0 .241.16.402.399.402H18c.238 0 .398-.16.398-.403 0-.238-.16-.398-.398-.398zm0 0"/>
</svg>
