<svg xmlns="http://www.w3.org/2000/svg" width="32" height="32" viewBox="0 0 24 24">
    <path d="M20.793 5.117a.378.378 0 0 0-.184-.265L15.95.192a.367.367 0 0 0-.265-.184C15.648 0 15.614 0 15.578 0H4.398C3.718 0 3.2.523 3.2 1.203v21.598c0 .68.52 1.199 1.2 1.199h15.199c.68 0 1.199-.52 1.199-1.2V5.224a.32.32 0 0 0-.004-.106zm-1.355-.316h-3.04c-.238 0-.398-.16-.398-.399V1.363zm.562 18c0 .238-.16.398-.402.398h-15.2c-.238 0-.398-.16-.398-.398V1.203a.4.4 0 0 1 .398-.402H15.2v3.601c0 .68.52 1.2 1.2 1.2H20zm0 0"/>
    <path d="M16.145 8.422c-.145-.067-.305-.059-.426.058-.121.125-.176.293-.121.438V16h-1.2c-1.12 0-2 .879-2 2s.88 2 2 2c1.122 0 2-.879 2-2V9.863l.961 1.098c.598.68.801 1.64.52 2.52l-.238.761c-.082.238.039.438.238.52.039.039.078.039.121.039.16 0 .32-.121.398-.32l.239-.762a3.385 3.385 0 0 0-.68-3.278l-1.598-1.828a.372.372 0 0 0-.214-.191zM15.598 18c0 .68-.52 1.2-1.2 1.2-.68 0-1.199-.52-1.199-1.2 0-.68.52-1.2 1.2-1.2h1.199zm0 0M6 5.602h7.2c.238 0 .398-.16.398-.399 0-.242-.16-.402-.399-.402H6c-.242 0-.398.16-.398.402 0 .238.156.399.398.399zm0 0M6 8h7.598c.242 0 .402-.16.402-.398 0-.243-.16-.399-.402-.399H6c-.242 0-.398.156-.398.399 0 .238.156.398.398.398zm0 0M6 10.402h7.2c.238 0 .398-.16.398-.402 0-.238-.16-.398-.399-.398H6c-.242 0-.398.16-.398.398 0 .242.156.402.398.402zm0 0M6 12.8h7.2c.238 0 .398-.16.398-.398 0-.242-.16-.402-.399-.402H6c-.242 0-.398.16-.398.402 0 .239.156.399.398.399zm0 0M6 15.2h5.2c.238 0 .398-.16.398-.4 0-.238-.16-.398-.399-.398H6c-.242 0-.398.16-.398.399 0 .238.156.398.398.398zm0 0M6 17.602h5.2c.238 0 .398-.16.398-.403 0-.238-.16-.398-.399-.398H6c-.242 0-.398.16-.398.398 0 .242.156.403.398.403zm0 0M11.598 19.2H6c-.242 0-.398.16-.398.402 0 .238.156.398.398.398h5.598c.242 0 .402-.16.402-.398 0-.243-.16-.403-.402-.403zm0 0"/>
</svg>
