<svg xmlns="http://www.w3.org/2000/svg" width="32" height="32" viewBox="0 0 24 24">
    <path d="M12.398 9.8v-6c0-.562-.437-1-1-1H11.2v-.6a.99.99 0 0 0-1-1h-3L6.32.16A.363.363 0 0 0 6 0H1.8a.99.99 0 0 0-1 1v1.82c-.46.09-.8.489-.8.98v6c0 .56.441 1 1 1h10.398a.99.99 0 0 0 1-1zM1.602 1c0-.121.078-.2.199-.2h4l.879 1.04c.082.12.199.16.32.16h3.2c.12 0 .198.078.198.2v.6H1.602zm10 8.8c0 .122-.082.2-.204.2H1c-.121 0-.2-.078-.2-.2v-6c0-.12.079-.198.2-.198h10.398c.122 0 .204.078.204.199zm0 0"/>
    <path d="M4.398 4.398H2c-.238 0-.398.16-.398.403 0 .238.16.398.398.398h2.398c.243 0 .403-.16.403-.398 0-.242-.16-.403-.403-.403zm0 0M4.398 6H2c-.238 0-.398.16-.398.398 0 .243.16.403.398.403h2.398c.243 0 .403-.16.403-.403C4.8 6.16 4.64 6 4.398 6zm0 0M23 16h-.2v-.602c0-.558-.44-1-1-1h-3l-.878-1.039a.367.367 0 0 0-.32-.16h-4.204c-.558 0-1 .442-1 1v1.82a.985.985 0 0 0-.796.981v6c0 .559.437 1 1 1H23c.559 0 1-.441 1-1v-6c0-.559-.441-1-1-1zm-9.8-1.8c0-.122.081-.2.198-.2h4l.883 1.04c.078.12.2.16.32.16h3.2c.12 0 .199.081.199.198V16h-8.8zm10 8.8c0 .121-.079.2-.2.2H12.602c-.122 0-.204-.079-.204-.2v-6c0-.121.082-.2.204-.2H23c.121 0 .2.079.2.2zm0 0"/>
    <path d="M16 17.602h-2.398c-.243 0-.403.16-.403.398 0 .238.16.398.403.398H16c.238 0 .398-.16.398-.398 0-.238-.16-.398-.398-.398zm0 0M16 19.2h-2.398c-.243 0-.403.16-.403.402 0 .238.16.398.403.398H16c.238 0 .398-.16.398-.398 0-.243-.16-.403-.398-.403zm0 0M10 20.398H4.398v-8c0-.238-.16-.398-.398-.398-.238 0-.398.16-.398.398v8.403c0 .238.16.398.398.398h6c.238 0 .398-.16.398-.398 0-.242-.16-.403-.398-.403zm0 0M14 4.8h6v8c0 .24.16.4.398.4.243 0 .403-.16.403-.4V4.399c0-.238-.16-.398-.403-.398H14c-.238 0-.398.16-.398.398 0 .243.16.403.398.403zm0 0"/>
</svg>
