<svg xmlns="http://www.w3.org/2000/svg" width="32" height="32" viewBox="0 0 24 24">
    <path d="M 12.398438 9.800781 L 12.398438 3.800781 C 12.398438 3.238281 11.960938 2.800781 11.398438 2.800781 L 11.199219 2.800781 L 11.199219 2.199219 C 11.199219 1.640625 10.761719 1.199219 10.199219 1.199219 L 7.199219 1.199219 L 6.320312 0.160156 C 6.238281 0.0390625 6.121094 0 6 0 L 1.800781 0 C 1.238281 0 0.800781 0.441406 0.800781 1 L 0.800781 2.820312 C 0.339844 2.910156 0 3.308594 0 3.800781 L 0 9.800781 C 0 10.359375 0.441406 10.800781 1 10.800781 L 11.398438 10.800781 C 11.960938 10.800781 12.398438 10.359375 12.398438 9.800781 Z M 1.601562 1 C 1.601562 0.878906 1.679688 0.800781 1.800781 0.800781 L 5.800781 0.800781 L 6.679688 1.839844 C 6.761719 1.960938 6.878906 2 7 2 L 10.199219 2 C 10.320312 2 10.398438 2.078125 10.398438 2.199219 L 10.398438 2.800781 L 1.601562 2.800781 Z M 11.601562 9.800781 C 11.601562 9.921875 11.519531 10 11.398438 10 L 1 10 C 0.878906 10 0.800781 9.921875 0.800781 9.800781 L 0.800781 3.800781 C 0.800781 3.679688 0.878906 3.601562 1 3.601562 L 11.398438 3.601562 C 11.519531 3.601562 11.601562 3.679688 11.601562 3.800781 Z M 11.601562 9.800781"/>
    <path d="M4.398438 4.398438L2 4.398438C1.761719 4.398438 1.601562 4.558594 1.601562 4.800781 1.601562 5.039062 1.761719 5.199219 2 5.199219L4.398438 5.199219C4.640625 5.199219 4.800781 5.039062 4.800781 4.800781 4.800781 4.558594 4.640625 4.398438 4.398438 4.398438zM4.398438 6L2 6C1.761719 6 1.601562 6.160156 1.601562 6.398438 1.601562 6.640625 1.761719 6.800781 2 6.800781L4.398438 6.800781C4.640625 6.800781 4.800781 6.640625 4.800781 6.398438 4.800781 6.160156 4.640625 6 4.398438 6zM23 16L22.800781 16 22.800781 15.398438C22.800781 14.839844 22.359375 14.398438 21.800781 14.398438L18.800781 14.398438 17.921875 13.359375C17.839844 13.238281 17.71875 13.199219 17.601562 13.199219L13.398438 13.199219C12.839844 13.199219 12.398438 13.640625 12.398438 14.199219L12.398438 16.019531C11.9375 16.109375 11.601562 16.507812 11.601562 17L11.601562 23C11.601562 23.558594 12.039062 24 12.601562 24L23 24C23.558594 24 24 23.558594 24 23L24 17C24 16.441406 23.558594 16 23 16zM13.199219 14.199219C13.199219 14.078125 13.28125 14 13.398438 14L17.398438 14 18.28125 15.039062C18.359375 15.160156 18.480469 15.199219 18.601562 15.199219L21.800781 15.199219C21.921875 15.199219 22 15.28125 22 15.398438L22 16 13.199219 16zM23.199219 23C23.199219 23.121094 23.121094 23.199219 23 23.199219L12.601562 23.199219C12.480469 23.199219 12.398438 23.121094 12.398438 23L12.398438 17C12.398438 16.878906 12.480469 16.800781 12.601562 16.800781L23 16.800781C23.121094 16.800781 23.199219 16.878906 23.199219 17zM23.199219 23"/>
    <path d="M16 17.601562L13.601562 17.601562C13.359375 17.601562 13.199219 17.761719 13.199219 18 13.199219 18.238281 13.359375 18.398438 13.601562 18.398438L16 18.398438C16.238281 18.398438 16.398438 18.238281 16.398438 18 16.398438 17.761719 16.238281 17.601562 16 17.601562zM16 19.199219L13.601562 19.199219C13.359375 19.199219 13.199219 19.359375 13.199219 19.601562 13.199219 19.839844 13.359375 20 13.601562 20L16 20C16.238281 20 16.398438 19.839844 16.398438 19.601562 16.398438 19.359375 16.238281 19.199219 16 19.199219zM10 20.398438L4.398438 20.398438 4.398438 12.398438C4.398438 12.160156 4.238281 12 4 12 3.761719 12 3.601562 12.160156 3.601562 12.398438L3.601562 20.800781C3.601562 21.039062 3.761719 21.199219 4 21.199219L10 21.199219C10.238281 21.199219 10.398438 21.039062 10.398438 20.800781 10.398438 20.558594 10.238281 20.398438 10 20.398438zM14 4.800781L20 4.800781 20 12.800781C20 13.039062 20.160156 13.199219 20.398438 13.199219 20.640625 13.199219 20.800781 13.039062 20.800781 12.800781L20.800781 4.398438C20.800781 4.160156 20.640625 4 20.398438 4L14 4C13.761719 4 13.601562 4.160156 13.601562 4.398438 13.601562 4.640625 13.761719 4.800781 14 4.800781zM14 4.800781"/>
</svg>
