<svg xmlns="http://www.w3.org/2000/svg" width="32" height="32" viewBox="0 0 24 24">
    <path d="M 20.792969 5.117188 C 20.769531 5 20.707031 4.90625 20.609375 4.851562 L 15.949219 0.191406 C 15.894531 0.09375 15.800781 0.0273438 15.683594 0.0078125 C 15.648438 0 15.613281 0 15.578125 0 L 4.398438 0 C 3.71875 0 3.199219 0.523438 3.199219 1.203125 L 3.199219 22.800781 C 3.199219 23.480469 3.71875 24 4.398438 24 L 19.597656 24 C 20.277344 24 20.796875 23.480469 20.796875 22.800781 L 20.796875 5.222656 C 20.800781 5.1875 20.800781 5.152344 20.792969 5.117188 Z M 19.4375 4.800781 L 16.398438 4.800781 C 16.160156 4.800781 16 4.640625 16 4.402344 L 16 1.363281 Z M 20 22.800781 C 20 23.039062 19.839844 23.199219 19.597656 23.199219 L 4.398438 23.199219 C 4.160156 23.199219 4 23.039062 4 22.800781 L 4 1.203125 C 4 1 4.160156 0.800781 4.398438 0.800781 L 15.199219 0.800781 L 15.199219 4.402344 C 15.199219 5.082031 15.71875 5.601562 16.398438 5.601562 L 20 5.601562 Z M 20 22.800781"/>
    <path d="M14.800781 12.402344L14.800781 20 13.597656 20 13.597656 10.800781C13.597656 10.5625 13.4375 10.402344 13.199219 10.402344L10.800781 10.402344C10.558594 10.402344 10.398438 10.5625 10.398438 10.800781L10.398438 20 9.199219 20 9.199219 14.800781C9.199219 14.5625 9.039062 14.402344 8.800781 14.402344L6.398438 14.402344C6.160156 14.402344 6 14.5625 6 14.800781L6 20 5.601562 20C5.359375 20 5.199219 20.160156 5.199219 20.398438 5.199219 20.640625 5.359375 20.800781 5.601562 20.800781L18.398438 20.800781C18.640625 20.800781 18.796875 20.640625 18.796875 20.398438 18.796875 20.160156 18.640625 20 18.398438 20L18 20 18 12.402344C18 12.160156 17.839844 12 17.597656 12L15.199219 12C14.960938 12 14.800781 12.160156 14.800781 12.402344zM6.800781 20L6.800781 15.199219 8.398438 15.199219 8.398438 20zM11.199219 20L11.199219 11.199219 12.800781 11.199219 12.800781 20zM15.597656 12.800781L17.199219 12.800781 17.199219 20 15.597656 20zM6 5.601562L11.199219 5.601562C11.4375 5.601562 11.597656 5.441406 11.597656 5.203125 11.597656 4.960938 11.4375 4.800781 11.199219 4.800781L6 4.800781C5.757812 4.800781 5.601562 4.960938 5.601562 5.203125 5.601562 5.441406 5.757812 5.601562 6 5.601562zM6 7.199219L9.199219 7.199219C9.4375 7.199219 9.597656 7.042969 9.597656 6.800781 9.597656 6.5625 9.4375 6.402344 9.199219 6.402344L6 6.402344C5.757812 6.402344 5.601562 6.5625 5.601562 6.800781 5.601562 7.042969 5.757812 7.199219 6 7.199219zM11.199219 6.402344L10.800781 6.402344C10.558594 6.402344 10.398438 6.5625 10.398438 6.800781 10.398438 7.042969 10.558594 7.199219 10.800781 7.199219L11.199219 7.199219C11.4375 7.199219 11.597656 7.042969 11.597656 6.800781 11.597656 6.5625 11.4375 6.402344 11.199219 6.402344zM11.199219 6.402344"/>
</svg>
