<svg xmlns="http://www.w3.org/2000/svg" width="32" height="32" viewBox="0 0 24 24">
    <path d="M23.598 3.25H.402A.402.402 0 0 0 0 3.652v16.696c0 .222.18.402.402.402h23.196c.222 0 .402-.18.402-.402V3.652a.402.402 0 0 0-.402-.402zm-.399.805v1.71H.801v-1.71zM.801 19.945V6.57h22.398v13.375zm0 0"/>
    <path d="M2.102 5.313c.105 0 .21-.043.285-.118a.416.416 0 0 0 .117-.285.409.409 0 0 0-.117-.285.4.4 0 0 0-.566 0 .396.396 0 0 0 0 .57.4.4 0 0 0 .28.117zm0 0M3.473 5.313a.402.402 0 1 0-.399-.403.4.4 0 0 0 .398.402zm0 0M4.848 5.313a.4.4 0 0 0 .398-.403.4.4 0 1 0-.8 0c0 .106.042.207.117.285.074.075.18.117.285.117zm0 0M14.762 12.074h-.504V9.95A2.261 2.261 0 0 0 12 7.691 2.261 2.261 0 0 0 9.742 9.95v1.035a.401.401 0 0 0 .8 0l.001-1.035c0-.8.656-1.453 1.457-1.453.8 0 1.457.652 1.457 1.453v2.125H9.238a.401.401 0 0 0-.402.399v5.523c0 .223.18.402.402.402h5.524c.222 0 .402-.18.402-.402v-5.523a.401.401 0 0 0-.402-.399zm-.403 5.524H9.641v-4.723h4.718zm0 0"/>
</svg>
