<svg xmlns="http://www.w3.org/2000/svg" width="32" height="32" viewBox="0 0 24 24">
    <path d="M 22.265625 1.734375 C 21.144531 0.617188 19.65625 0 18.070312 0 C 16.484375 0 14.992188 0.617188 13.875 1.734375 L 8.890625 6.71875 C 8.523438 7.085938 8.207031 7.5 7.949219 7.949219 C 7.5 8.207031 7.085938 8.523438 6.71875 8.890625 L 1.734375 13.875 C -0.578125 16.1875 -0.578125 19.953125 1.734375 22.265625 C 2.890625 23.421875 4.410156 24 5.929688 24 C 7.449219 24 8.96875 23.421875 10.125 22.265625 L 15.109375 17.28125 C 15.476562 16.914062 15.792969 16.5 16.050781 16.050781 C 16.5 15.792969 16.914062 15.476562 17.28125 15.109375 L 22.265625 10.125 C 24.578125 7.8125 24.578125 4.046875 22.265625 1.734375 Z M 9.488281 21.625 C 7.527344 23.585938 4.335938 23.585938 2.375 21.625 C 0.414062 19.664062 0.414062 16.472656 2.375 14.511719 L 7.355469 9.53125 C 7.695312 9.191406 8.078125 8.902344 8.496094 8.675781 C 9.710938 8.011719 11.164062 7.875 12.488281 8.308594 C 13.238281 8.554688 13.90625 8.964844 14.46875 9.53125 C 14.96875 10.027344 15.347656 10.609375 15.597656 11.253906 L 14.511719 12.339844 C 14.3125 12.542969 14.078125 12.695312 13.820312 12.792969 C 13.753906 12.128906 13.464844 11.503906 12.980469 11.019531 C 12.347656 10.386719 11.472656 10.082031 10.582031 10.183594 C 9.929688 10.257812 9.3125 10.554688 8.847656 11.019531 L 3.863281 16.003906 C 2.726562 17.144531 2.726562 18.996094 3.863281 20.136719 C 4.414062 20.6875 5.148438 20.988281 5.929688 20.988281 C 6.710938 20.988281 7.445312 20.6875 7.996094 20.136719 L 11.503906 16.628906 C 12.019531 16.773438 12.554688 16.84375 13.085938 16.84375 C 13.535156 16.84375 13.984375 16.792969 14.421875 16.691406 Z M 16.285156 10.566406 C 15.996094 9.945312 15.601562 9.386719 15.109375 8.890625 C 14.617188 8.398438 14.054688 8.003906 13.433594 7.714844 L 16.644531 4.503906 C 17.023438 4.121094 17.53125 3.914062 18.070312 3.914062 C 18.609375 3.914062 19.117188 4.125 19.496094 4.503906 C 19.878906 4.882812 20.085938 5.390625 20.085938 5.929688 C 20.085938 6.46875 19.878906 6.976562 19.496094 7.355469 Z M 12.339844 11.660156 C 12.683594 12.003906 12.886719 12.449219 12.925781 12.925781 C 12.449219 12.886719 12.003906 12.683594 11.660156 12.339844 C 11.316406 11.996094 11.113281 11.550781 11.078125 11.074219 C 11.550781 11.113281 11.996094 11.316406 12.339844 11.660156 Z M 7.714844 13.433594 C 8.003906 14.054688 8.398438 14.617188 8.890625 15.109375 C 9.386719 15.601562 9.945312 15.996094 10.566406 16.285156 L 7.355469 19.496094 C 6.976562 19.878906 6.46875 20.085938 5.929688 20.085938 C 5.390625 20.085938 4.882812 19.878906 4.503906 19.496094 C 3.714844 18.710938 3.714844 17.429688 4.503906 16.644531 Z M 21.625 9.488281 L 16.644531 14.46875 C 16.304688 14.808594 15.921875 15.097656 15.503906 15.324219 C 14.289062 15.988281 12.835938 16.125 11.511719 15.691406 C 10.761719 15.445312 10.09375 15.035156 9.53125 14.46875 C 9.03125 13.972656 8.652344 13.394531 8.402344 12.742188 L 9.488281 11.660156 C 9.6875 11.457031 9.921875 11.304688 10.179688 11.207031 C 10.246094 11.871094 10.535156 12.496094 11.019531 12.980469 C 11.574219 13.53125 12.308594 13.835938 13.082031 13.835938 C 13.191406 13.835938 13.304688 13.828125 13.417969 13.816406 C 14.070312 13.742188 14.6875 13.445312 15.152344 12.980469 L 20.136719 7.996094 C 20.6875 7.445312 20.988281 6.710938 20.988281 5.929688 C 20.988281 5.148438 20.6875 4.414062 20.136719 3.863281 C 19.585938 3.3125 18.851562 3.011719 18.070312 3.011719 C 17.289062 3.011719 16.554688 3.3125 16.003906 3.863281 L 12.5 7.371094 C 11.542969 7.105469 10.535156 7.089844 9.578125 7.308594 L 14.511719 2.375 C 15.460938 1.425781 16.722656 0.902344 18.070312 0.902344 C 19.414062 0.902344 20.679688 1.425781 21.625 2.375 C 23.585938 4.335938 23.585938 7.527344 21.625 9.488281 Z M 21.625 9.488281"/>
</svg>
