<svg xmlns="http://www.w3.org/2000/svg" width="32" height="32" viewBox="0 0 24 24">
    <path d="M14.086 4.023a7.064 7.064 0 0 0-5.031-2.082 7.07 7.07 0 0 0-5.032 2.082 7.07 7.07 0 0 0-2.082 5.032c0 1.902.739 3.687 2.082 5.03a7.07 7.07 0 0 0 5.032 2.083 7.064 7.064 0 0 0 5.03-2.082 7.064 7.064 0 0 0 2.083-5.031 7.07 7.07 0 0 0-2.082-5.032zm-.672 9.391a6.11 6.11 0 0 1-4.36 1.809 6.11 6.11 0 0 1-4.359-1.809 6.168 6.168 0 0 1 0-8.719 6.125 6.125 0 0 1 4.36-1.808c1.648 0 3.195.644 4.36 1.808a6.168 6.168 0 0 1 0 8.72zm0 0"/>
    <path d="M11.934 4.313a.468.468 0 0 0-.649.16.47.47 0 0 0 .156.648c.313.191.606.418.868.68.093.094.214.14.336.14a.458.458 0 0 0 .332-.14.467.467 0 0 0 0-.668 5.425 5.425 0 0 0-1.043-.82zm0 0M5.469 5.941a.458.458 0 0 0 .332-.14 4.616 4.616 0 0 1 3.965-1.29c.261.04.5-.136.543-.398a.473.473 0 0 0-.395-.539 5.57 5.57 0 0 0-4.781 1.559.474.474 0 0 0 .336.808zm0 0M6.625 12.96a4.553 4.553 0 0 1-.824-.651.474.474 0 0 0-.668 0 .474.474 0 0 0 0 .668c.3.3.633.566.992.789a.474.474 0 0 0 .5-.805zm0 0M12.309 12.309a4.585 4.585 0 0 1-3.797 1.316.472.472 0 1 0-.114.938 5.513 5.513 0 0 0 4.578-1.586.467.467 0 0 0 0-.668.474.474 0 0 0-.667 0zm0 0"/>
    <path d="M23.426 20.645l-5.73-5.73a.479.479 0 0 0-.673 0l-.226.23-.563-.563c2.739-3.55 2.48-8.68-.773-11.934-3.531-3.53-9.281-3.53-12.813 0-3.53 3.532-3.53 9.282 0 12.813a9.032 9.032 0 0 0 6.407 2.648 9.041 9.041 0 0 0 5.527-1.875l.563.563-.23.226a.49.49 0 0 0-.138.336c0 .125.051.246.137.336l5.73 5.73a1.96 1.96 0 0 0 1.391.575 1.96 1.96 0 0 0 1.39-.574 1.971 1.971 0 0 0 0-2.781zM3.32 14.793A8.058 8.058 0 0 1 .941 9.055c0-2.168.844-4.203 2.38-5.735A8.042 8.042 0 0 1 9.054.941c2.168 0 4.203.844 5.738 2.38a8.054 8.054 0 0 1 2.375 5.734 8.07 8.07 0 0 1-2.375 5.738 8.07 8.07 0 0 1-5.738 2.375 8.054 8.054 0 0 1-5.735-2.375zm11.985.824a11508.9 11508.9 0 0 1 .312-.312l.508.508-.313.312zm7.449 7.137a1.014 1.014 0 0 1-1.438 0l-5.398-5.395 1.441-1.441 5.395 5.398a1.014 1.014 0 0 1 0 1.438zm0 0"/>
</svg>
