<svg xmlns="http://www.w3.org/2000/svg" width="32" height="32" viewBox="0 0 24 24">
    <path d="M20.863 14.332a3.59 3.59 0 0 0-.351-2.746 3.619 3.619 0 0 0-4.93-1.34 3.613 3.613 0 0 0-1.34 4.93 3.556 3.556 0 0 0 2.188 1.691 3.593 3.593 0 0 0 2.742-.347 3.604 3.604 0 0 0 1.691-2.188zm-1.05-2.344a2.779 2.779 0 0 1 .156 2.461 11.234 11.234 0 0 0-1.985-.875c-.238-.078-.48-.152-.726-.219.18-.89.289-1.824.32-2.77.899.067 1.75.563 2.235 1.403zm-3.829-1.039c.25-.144.512-.246.782-.304-.032.863-.133 1.71-.297 2.52a15.578 15.578 0 0 0-1.848-.282c.14-.79.617-1.508 1.363-1.934zm-1.043 3.824a2.776 2.776 0 0 1-.351-1.082c.582.055 1.148.141 1.695.258-.07.27-.148.531-.23.785-.106.313-.223.618-.344.903a2.773 2.773 0 0 1-.77-.864zm3.829 1.043a2.795 2.795 0 0 1-2.344.204 12.746 12.746 0 0 0 .648-1.88c.223.063.442.13.656.204.668.222 1.278.492 1.829.8-.215.27-.48.497-.79.672zm0 0"/>
    <path d="M23.8 22.242l-3.062-5.355a4.825 4.825 0 0 0 1.32-2.23 4.8 4.8 0 0 0-.468-3.684 4.856 4.856 0 0 0-1.477-1.602A10.042 10.042 0 0 0 10.168 0h-.156A9.991 9.991 0 0 0 2.96 2.965a9.993 9.993 0 0 0-2.914 7.078 9.98 9.98 0 0 0 2.914 7.078 9.978 9.978 0 0 0 7.05 2.969h.157a9.954 9.954 0 0 0 5.96-2.02 4.875 4.875 0 0 0 2.567-.015l3.063 5.351c.156.274.41.469.715.551a1.142 1.142 0 0 0 .89-.113c.274-.157.469-.407.551-.711.082-.301.043-.621-.113-.89zM9.685 13.72c-1.45.031-2.871.25-4.153.636a14.992 14.992 0 0 1-.601-3.906h4.754zM4.93 9.64c.035-1.368.238-2.704.601-3.907 1.282.387 2.703.606 4.153.637v3.27zM10.492.84c1.567.226 3.02 1.762 3.899 4.129a15.098 15.098 0 0 1-3.899.593zm-.808 0v4.723a14.958 14.958 0 0 1-3.899-.598C6.668 2.602 8.121 1.066 9.684.84zM4.12 9.64H.863A9.182 9.182 0 0 1 2.72 4.478c.605.386 1.289.722 2.043 1.003a15.895 15.895 0 0 0-.64 4.16zm0 .81c.035 1.452.254 2.874.64 4.16-.753.28-1.437.617-2.042 1a9.16 9.16 0 0 1-1.856-5.16zm5.563 4.077v4.723c-1.563-.227-3.016-1.762-3.899-4.129a15.098 15.098 0 0 1 3.899-.594zm.808 4.723v-4.723c.758.016 1.5.086 2.223.207.105.364.254.72.45 1.059.163.285.35.547.558.785-.871 1.547-2.024 2.496-3.23 2.672zm2.059-5.36a17.763 17.763 0 0 0-2.059-.175v-3.266h3.016a4.874 4.874 0 0 0-.957 3.442zm1.734-4.25h-3.793V6.372a15.68 15.68 0 0 0 4.156-.637c.309 1.032.504 2.137.575 3.297-.086.043-.172.09-.258.137-.242.14-.469.3-.68.473zm1.727-.917a15.203 15.203 0 0 0-.594-3.246 10.46 10.46 0 0 0 2.043-1 9.203 9.203 0 0 1 1.797 4.433 4.87 4.87 0 0 0-3.246-.187zm.93-4.875a9.546 9.546 0 0 1-1.782.863c-.484-1.309-1.144-2.418-1.926-3.227-.066-.066-.132-.132-.199-.195a9.23 9.23 0 0 1 3.906 2.559zM7.144 1.285c-.067.067-.133.13-.2.2-.78.808-1.441 1.917-1.925 3.226a9.789 9.789 0 0 1-1.782-.86c.098-.109.196-.21.297-.316a9.242 9.242 0 0 1 3.61-2.25zM3.238 16.238a9.789 9.789 0 0 1 1.782-.86c.484 1.31 1.144 2.419 1.925 3.227.067.07.133.133.2.2a9.242 9.242 0 0 1-3.61-2.25c-.101-.106-.2-.211-.297-.317zm9.797 2.567c.473-.45.902-1 1.29-1.649.277.223.577.414.894.57a9.237 9.237 0 0 1-2.184 1.079zm4.348-1.38c-1.403 0-2.77-.73-3.516-2.034a4.05 4.05 0 0 1 1.5-5.52 4.045 4.045 0 0 1 5.52 1.504c.539.938.676 2.027.394 3.07a4.032 4.032 0 0 1-3.898 2.98zm5.75 5.497a.358.358 0 0 1-.172.219.347.347 0 0 1-.277.035.37.37 0 0 1-.223-.168l-3-5.242a5.055 5.055 0 0 0 .637-.363l3 5.242a.38.38 0 0 1 .035.277zm0 0"/>
</svg>
