<svg xmlns="http://www.w3.org/2000/svg" width="32" height="32" viewBox="0 0 24 24">
    <path d="M8.003906 7.75L11.589844 7.75 11.589844 8.238281 8.996094 8.238281C8.769531 8.238281 8.585938 8.421875 8.585938 8.648438 8.585938 8.875 8.769531 9.058594 8.996094 9.058594L15.003906 9.058594C15.230469 9.058594 15.414062 8.875 15.414062 8.648438 15.414062 8.421875 15.230469 8.238281 15.003906 8.238281L12.410156 8.238281 12.410156 7.75 15.996094 7.75C16.667969 7.75 17.214844 7.203125 17.214844 6.527344L17.214844 1.375C17.214844.703125 16.667969.15625 15.996094.15625L8.003906.15625C7.332031.15625 6.785156.703125 6.785156 1.375L6.785156 6.527344C6.785156 7.203125 7.332031 7.75 8.003906 7.75zM15.996094 6.929688L8.003906 6.929688C7.785156 6.929688 7.605469 6.75 7.605469 6.527344L7.605469 6.246094 16.394531 6.246094 16.394531 6.527344C16.394531 6.75 16.214844 6.929688 15.996094 6.929688zM8.003906.976562L15.996094.976562C16.214844.976562 16.394531 1.15625 16.394531 1.375L16.394531 5.425781 7.605469 5.425781 7.605469 1.375C7.605469 1.15625 7.785156.976562 8.003906.976562zM3.085938 14.089844C3.3125 14.089844 3.496094 13.90625 3.496094 13.679688L3.496094 12.601562 11.589844 12.601562 11.589844 13.679688C11.589844 13.90625 11.773438 14.089844 12 14.089844 12.226562 14.089844 12.410156 13.90625 12.410156 13.679688L12.410156 12.601562 20.503906 12.601562 20.503906 13.679688C20.503906 13.90625 20.6875 14.089844 20.914062 14.089844 21.140625 14.089844 21.324219 13.90625 21.324219 13.679688L21.324219 12.195312C21.324219 11.96875 21.140625 11.785156 20.914062 11.785156L12.410156 11.785156 12.410156 9.898438C12.410156 9.671875 12.226562 9.492188 12 9.492188 11.773438 9.492188 11.589844 9.671875 11.589844 9.898438L11.589844 11.785156 3.085938 11.785156C2.859375 11.785156 2.675781 11.96875 2.675781 12.195312L2.675781 13.679688C2.675781 13.90625 2.859375 14.089844 3.085938 14.089844zM4.949219 14.832031L1.222656 14.832031C.546875 14.832031 0 15.378906 0 16.050781L0 22.621094C0 23.292969.546875 23.84375 1.222656 23.84375L4.949219 23.84375C5.625 23.84375 6.171875 23.292969 6.171875 22.621094L6.171875 16.050781C6.171875 15.378906 5.625 14.832031 4.949219 14.832031zM1.222656 15.652344L4.949219 15.652344C5.171875 15.652344 5.351562 15.832031 5.351562 16.050781L5.351562 21.710938.820312 21.710938.820312 16.050781C.820312 15.832031 1 15.652344 1.222656 15.652344zM4.949219 23.023438L1.222656 23.023438C1 23.023438.820312 22.84375.820312 22.621094L.820312 22.53125 5.351562 22.53125 5.351562 22.621094C5.351562 22.84375 5.171875 23.023438 4.949219 23.023438zM13.863281 14.832031L10.136719 14.832031C9.460938 14.832031 8.914062 15.378906 8.914062 16.050781L8.914062 22.621094C8.914062 23.292969 9.460938 23.84375 10.136719 23.84375L13.863281 23.84375C14.539062 23.84375 15.085938 23.292969 15.085938 22.621094L15.085938 16.050781C15.085938 15.378906 14.539062 14.832031 13.863281 14.832031zM10.136719 15.652344L13.863281 15.652344C14.085938 15.652344 14.265625 15.832031 14.265625 16.050781L14.265625 21.710938 9.734375 21.710938 9.734375 16.050781C9.734375 15.832031 9.914062 15.652344 10.136719 15.652344zM13.863281 23.023438L10.136719 23.023438C9.914062 23.023438 9.734375 22.84375 9.734375 22.621094L9.734375 22.53125 14.265625 22.53125 14.265625 22.621094C14.265625 22.84375 14.085938 23.023438 13.863281 23.023438zM22.777344 14.832031L19.050781 14.832031C18.375 14.832031 17.828125 15.378906 17.828125 16.050781L17.828125 22.621094C17.828125 23.292969 18.375 23.84375 19.050781 23.84375L22.777344 23.84375C23.453125 23.84375 24 23.292969 24 22.621094L24 16.050781C24 15.378906 23.453125 14.832031 22.777344 14.832031zM19.050781 15.652344L22.777344 15.652344C23 15.652344 23.179688 15.832031 23.179688 16.050781L23.179688 21.710938 18.648438 21.710938 18.648438 16.050781C18.648438 15.832031 18.828125 15.652344 19.050781 15.652344zM22.777344 23.023438L19.050781 23.023438C18.828125 23.023438 18.648438 22.84375 18.648438 22.621094L18.648438 22.53125 23.179688 22.53125 23.179688 22.621094C23.179688 22.84375 23 23.023438 22.777344 23.023438zM22.777344 23.023438"/>
</svg>
