<svg xmlns="http://www.w3.org/2000/svg" width="32" height="32" viewBox="0 0 24 24">
    <path d="M 23.777344 14.542969 C 23.054688 13.582031 22.335938 13.582031 20.574219 14.5 L 17.132812 16.625 C 16.652344 16.902344 15.570312 16.984375 14.570312 16.984375 C 14.769531 16.625 14.691406 16.183594 14.328125 15.664062 C 13.855469 14.980469 13.140625 14.5 12.332031 14.292969 C 12.347656 14.21875 12.359375 14.140625 12.371094 14.066406 L 14.210938 12.941406 C 14.371094 12.820312 14.449219 12.582031 14.328125 12.378906 C 14.210938 12.21875 13.96875 12.140625 13.769531 12.261719 L 12.433594 13.078125 C 12.429688 12.804688 12.410156 12.53125 12.367188 12.261719 C 12.96875 11.699219 13.890625 11.539062 14.808594 11.378906 C 14.980469 11.34375 15.148438 11.3125 15.308594 11.277344 L 16.53125 12.5 C 16.609375 12.582031 16.691406 12.621094 16.8125 12.621094 C 16.929688 12.621094 17.011719 12.582031 17.089844 12.5 C 17.25 12.339844 17.25 12.101562 17.089844 11.941406 L 16.210938 11.058594 C 16.71875 10.894531 17.183594 10.648438 17.585938 10.324219 L 18.972656 11.339844 C 19.054688 11.378906 19.132812 11.417969 19.214844 11.417969 C 19.332031 11.417969 19.453125 11.378906 19.53125 11.257812 C 19.652344 11.097656 19.613281 10.820312 19.453125 10.699219 L 18.171875 9.761719 C 18.316406 9.59375 18.453125 9.410156 18.574219 9.21875 C 18.640625 9.105469 18.691406 8.996094 18.722656 8.886719 L 20.171875 8.175781 C 20.375 8.097656 20.453125 7.855469 20.375 7.65625 C 20.292969 7.457031 20.054688 7.375 19.851562 7.457031 L 18.621094 8.058594 C 18.523438 7.878906 18.378906 7.730469 18.210938 7.617188 C 18.148438 7.578125 18.082031 7.542969 18.011719 7.515625 L 18.011719 6.214844 C 18.011719 5.976562 17.851562 5.816406 17.613281 5.816406 C 17.371094 5.816406 17.210938 5.976562 17.210938 6.214844 L 17.210938 7.460938 C 16.949219 7.53125 16.707031 7.699219 16.53125 7.976562 C 16.097656 8.679688 15.273438 8.90625 14.410156 9.078125 L 14.410156 7.816406 C 14.410156 7.578125 14.25 7.417969 14.007812 7.417969 C 13.769531 7.417969 13.609375 7.578125 13.609375 7.816406 L 13.609375 9.238281 C 13.386719 9.285156 13.167969 9.320312 12.96875 9.378906 C 12.488281 9.5 12.007812 9.699219 11.609375 9.9375 C 11.527344 9.820312 11.488281 9.738281 11.40625 9.617188 C 11.246094 9.417969 11.046875 8.859375 11.007812 8.777344 C 11.007812 7.898438 11.929688 7.296875 12.808594 6.738281 C 13.207031 6.457031 13.570312 6.214844 13.890625 5.9375 C 14.179688 5.667969 14.421875 5.355469 14.605469 5.015625 L 16.410156 5.015625 C 16.652344 5.015625 16.8125 4.855469 16.8125 4.613281 C 16.8125 4.375 16.652344 4.214844 16.410156 4.214844 L 14.921875 4.214844 C 14.96875 4.035156 15 3.847656 15.015625 3.664062 L 16.570312 2.972656 C 16.769531 2.894531 16.851562 2.652344 16.769531 2.453125 C 16.691406 2.253906 16.449219 2.171875 16.25 2.253906 L 14.972656 2.820312 C 14.945312 2.667969 14.902344 2.519531 14.851562 2.375 C 14.78125 2.171875 14.671875 2.007812 14.539062 1.886719 L 15.171875 0.8125 C 15.25 0.613281 15.210938 0.371094 15.011719 0.253906 C 14.808594 0.171875 14.570312 0.210938 14.449219 0.414062 L 13.761719 1.582031 C 13.589844 1.574219 13.414062 1.597656 13.25 1.652344 C 13.027344 1.742188 12.851562 1.878906 12.722656 2.046875 L 11.40625 1.09375 C 11.246094 0.972656 11.007812 1.011719 10.886719 1.171875 C 10.765625 1.332031 10.808594 1.574219 10.96875 1.691406 L 12.507812 2.8125 C 12.515625 2.902344 12.535156 3 12.570312 3.09375 C 12.75 3.640625 12.496094 4.066406 11.996094 4.484375 L 11.046875 3.535156 C 10.886719 3.375 10.6875 3.375 10.527344 3.535156 C 10.367188 3.695312 10.367188 3.894531 10.527344 4.054688 L 11.398438 4.925781 C 11.273438 5.007812 11.144531 5.089844 11.007812 5.175781 C 10.765625 5.335938 10.566406 5.457031 10.367188 5.617188 C 9.765625 6.054688 9.285156 6.617188 9.007812 7.214844 C 8.253906 6.578125 7.5625 5.949219 7.164062 5.21875 L 9.085938 3.292969 C 9.246094 3.132812 9.246094 2.894531 9.085938 2.734375 C 8.925781 2.574219 8.6875 2.574219 8.527344 2.734375 L 6.859375 4.402344 C 6.789062 4.070312 6.78125 3.71875 6.84375 3.335938 C 6.964844 2.453125 6.125 0.453125 5.804688 0.292969 L 5.523438 0.171875 L 5.324219 0.371094 C 5.101562 0.59375 4.851562 1.324219 4.683594 1.933594 L 3.480469 0.730469 C 3.324219 0.570312 3.082031 0.570312 2.921875 0.730469 C 2.761719 0.890625 2.761719 1.132812 2.921875 1.292969 L 4.472656 2.84375 C 4.195312 4.585938 4.769531 5.890625 5.652344 7.015625 L 4.003906 7.015625 C 3.761719 7.015625 3.601562 7.175781 3.601562 7.417969 C 3.601562 7.65625 3.761719 7.816406 4.003906 7.816406 L 6.351562 7.816406 C 6.6875 8.175781 7.046875 8.519531 7.40625 8.859375 C 7.871094 9.308594 8.328125 9.753906 8.726562 10.21875 L 7.203125 10.21875 C 6.964844 10.21875 6.804688 10.378906 6.804688 10.617188 C 6.804688 10.859375 6.964844 11.019531 7.203125 11.019531 L 9.339844 11.019531 C 9.691406 11.5625 9.945312 12.144531 10.027344 12.796875 L 8.527344 12.21875 C 8.324219 12.140625 8.085938 12.261719 8.003906 12.460938 C 7.925781 12.660156 8.046875 12.902344 8.246094 12.980469 L 10.039062 13.671875 C 10.023438 13.824219 10 13.980469 9.964844 14.140625 C 9.964844 14.15625 9.960938 14.167969 9.960938 14.179688 L 9.886719 14.179688 C 9.046875 14.179688 8.246094 13.941406 7.605469 13.460938 C 6.160156 12.378906 3.902344 13.554688 2.800781 14.257812 L 2.800781 13.421875 L 0 13.421875 L 0 23.828125 L 2.800781 23.828125 L 2.800781 22.628906 L 8.003906 22.628906 C 8.804688 22.628906 9.648438 22.546875 10.445312 22.507812 L 15.652344 21.707031 C 15.851562 21.707031 16.050781 21.667969 16.210938 21.625 C 16.691406 21.546875 17.132812 21.304688 17.53125 20.945312 L 23.574219 16.144531 C 24.054688 15.742188 24.136719 15.023438 23.777344 14.542969 Z M 10.867188 13.46875 C 10.871094 13.441406 10.875 13.410156 10.871094 13.382812 C 10.917969 12.226562 10.527344 11.28125 9.929688 10.433594 C 9.910156 10.390625 9.878906 10.351562 9.84375 10.316406 C 9.296875 9.578125 8.589844 8.914062 7.886719 8.257812 C 7.546875 7.925781 7.214844 7.601562 6.902344 7.273438 C 6.867188 7.167969 6.796875 7.089844 6.695312 7.046875 C 5.644531 5.882812 4.90625 4.632812 5.203125 2.855469 C 5.285156 2.492188 5.402344 1.933594 5.5625 1.492188 C 5.804688 2.054688 6.042969 2.773438 5.964844 3.132812 C 5.5625 5.414062 7.203125 6.777344 8.6875 8.015625 L 9.285156 8.496094 L 9.445312 7.898438 C 9.648438 7.21875 10.085938 6.617188 10.726562 6.136719 C 10.886719 6.015625 11.085938 5.894531 11.328125 5.734375 C 12.289062 5.136719 13.730469 4.214844 13.210938 2.734375 C 13.128906 2.492188 13.25 2.375 13.410156 2.332031 C 13.570312 2.253906 13.890625 2.253906 14.007812 2.574219 C 14.328125 3.453125 14.050781 4.574219 13.289062 5.253906 C 13.007812 5.496094 12.648438 5.734375 12.289062 5.976562 C 11.246094 6.65625 10.125 7.375 10.125 8.699219 C 10.125 9.019531 10.527344 9.820312 10.648438 9.980469 C 10.765625 10.179688 10.886719 10.378906 11.007812 10.617188 L 11.207031 11.058594 L 11.609375 10.777344 C 12.007812 10.460938 12.527344 10.21875 13.050781 10.097656 C 13.328125 10.058594 13.609375 9.980469 13.929688 9.9375 C 13.9375 9.9375 13.945312 9.9375 13.949219 9.933594 C 13.96875 9.9375 13.988281 9.9375 14.007812 9.9375 C 14.089844 9.9375 14.160156 9.921875 14.21875 9.886719 C 15.304688 9.691406 16.472656 9.40625 17.132812 8.378906 C 17.371094 8.015625 17.691406 8.21875 17.730469 8.257812 C 17.8125 8.296875 18.011719 8.457031 17.851562 8.738281 C 17.371094 9.539062 16.609375 10.097656 15.691406 10.339844 C 15.371094 10.417969 15.011719 10.460938 14.648438 10.539062 C 13.609375 10.738281 12.410156 10.9375 11.648438 11.820312 L 11.527344 11.980469 L 11.566406 12.179688 C 11.6875 12.808594 11.6875 13.476562 11.574219 14.183594 C 11.53125 14.183594 11.488281 14.179688 11.449219 14.179688 L 10.773438 14.179688 C 10.824219 13.933594 10.855469 13.699219 10.867188 13.46875 Z M 2 23.027344 L 0.800781 23.027344 L 0.800781 14.222656 L 2 14.222656 Z M 23.09375 15.582031 L 17.011719 20.304688 L 16.972656 20.34375 C 16.730469 20.625 16.410156 20.785156 16.050781 20.824219 C 15.890625 20.867188 15.769531 20.867188 15.609375 20.867188 L 10.328125 21.667969 C 9.566406 21.785156 8.765625 21.828125 8.003906 21.828125 L 2.800781 21.828125 L 2.800781 15.222656 C 3.761719 14.542969 6.003906 13.261719 7.125 14.140625 C 7.886719 14.703125 8.847656 15.023438 9.886719 15.023438 L 11.449219 15.023438 C 12.367188 15.023438 13.167969 15.421875 13.730469 16.183594 C 13.890625 16.421875 13.929688 16.664062 13.890625 16.742188 C 13.769531 16.941406 13.289062 17.023438 12.769531 17.0625 C 12.625 17.0625 12.484375 17.0625 12.367188 17.0625 L 8.484375 17.0625 C 7.246094 17.0625 6.484375 17.664062 6.484375 18.664062 C 6.484375 18.90625 6.644531 19.066406 6.882812 19.066406 C 7.125 19.066406 7.285156 18.90625 7.285156 18.664062 C 7.285156 18.464844 7.285156 17.863281 8.484375 17.863281 L 12.289062 17.863281 C 12.3125 17.863281 12.339844 17.863281 12.367188 17.863281 C 12.476562 17.863281 12.617188 17.863281 12.808594 17.863281 C 12.847656 17.863281 12.929688 17.863281 13.007812 17.863281 C 14.890625 17.902344 16.652344 17.863281 17.570312 17.382812 L 21.015625 15.261719 C 22.695312 14.421875 22.855469 14.621094 23.175781 15.101562 C 23.253906 15.222656 23.253906 15.460938 23.09375 15.582031 Z M 23.09375 15.582031"/>
</svg>
