<svg xmlns="http://www.w3.org/2000/svg" width="32" height="32" viewBox="0 0 24 24">
    <path d="M9.383 15.207c-1.121 0-2 .879-2 2 0 1.117.879 1.996 2 1.996a1.977 1.977 0 0 0 1.996-1.996c0-1.121-.879-2-1.996-2zm0 3.2c-.68 0-1.2-.52-1.2-1.2 0-.68.52-1.2 1.2-1.2.68 0 1.199.52 1.199 1.2 0 .68-.52 1.2-1.2 1.2zm0 0"/>
    <path d="M22.05 15.488l-5.245-5.246a16.765 16.765 0 0 0-.27-7.023C16.297 1.82 15.22.739 13.82.539 11.34-.18 8.664-.18 5.863.54 4.465.74 3.348 1.82 3.148 3.22c-.28 1.078-.12 2.355.079 3.676.082.718.16 1.437.16 2.117.011.308.011.617 0 .922-.032.914-.16 1.796-.399 2.636-.008.028-.015.051-.02.078-.09.34-.273.711-.421 1.122-.274.644-.55 1.308-.664 2-.028.16-.047.316-.055.476 0 .016 0 .031.004.043-.004.04-.004.078-.004.117 0 4.676 2.84 7.594 7.395 7.594 3.336 0 6.285-2.46 7.363-6.063l1.508 1.508c.082.078.16.117.281.117.121 0 .2-.039.32-.16a.385.385 0 0 0 0-.558L6.265 6.414c-.296-.258-.452-.617-.538-1.02l1.335 1.34c.083.079.16.121.282.121a.66.66 0 0 0 .36-.12l1.679-1.68a.366.366 0 0 0 .12-.278c0-.12-.042-.199-.12-.28L7.945 3.058a1.719 1.719 0 0 1 .832.32c.02.016.04.027.059.043.012.008.023.015.031.023l.086.07c.008.008.016.012.02.02.03.027.062.055.09.082l12.43 12.43c.16.16.398.16.558 0a.385.385 0 0 0 0-.559zM13.7 1.34c1.038.16 1.878 1 2.038 2.039v.039c.52 1.996.637 4.074.36 6.113L10.18 3.617V.82c1.191.02 2.316.18 3.48.52zM5.663 4.176a.789.789 0 0 1-.101-.125c-.004-.004-.004-.008-.008-.012l-.024-.035a.764.764 0 0 1 .176-.945.677.677 0 0 1 .375-.227c.047-.008.094-.016.145-.016.199 0 .398.082.558.243l1.68 1.675-1.121 1.121zm-1.598 11.91c-.312.273-.855.125-1.367-.066.086-.63.348-1.274.61-1.891.035-.113.078-.223.117-.328.047-.114.09-.223.129-.332.09-.219.172-.434.23-.66.117-.438.215-.883.285-1.34.399 1.875.715 4.02-.004 4.617zm5.196 7.156c-3.977 0-6.426-2.39-6.586-6.375.328.117.636.18.91.18.402 0 .762-.121 1-.32 1.285-1.09.637-4.301-.36-7.641v-.074c0-.719-.12-1.477-.199-2.2-.16-1.277-.32-2.476-.082-3.394v-.04a2.294 2.294 0 0 1 2.04-2.038h.038a14.937 14.937 0 0 1 3.36-.512v2.016a2.756 2.756 0 0 0-2.262-.559 1.587 1.587 0 0 0-1.965.164c-.015.016-.035.031-.05.047a1.587 1.587 0 0 0-.215 2.02 2.782 2.782 0 0 0 .773 2.5l8.152 8.148c-.597 1.777-.57 2.867.004 3.441.278.278.637.399 1.078.399.157 0 .32-.016.5-.047-1.21 2.586-3.535 4.285-6.136 4.285zm5.195-7.433l1.48 1.476c-.082.281-.16.559-.242.8-.636.161-1.078.161-1.277-.038-.2-.16-.398-.68.039-2.238zm0 0"/>
    <path d="M12.46 8.133a.39.39 0 0 0-.562 0L10.7 9.332a.391.391 0 0 0 0 .559c.082.082.16.12.281.12.122 0 .2-.038.282-.12l1.199-1.2a.385.385 0 0 0 0-.558zm0 0M12.18 11.21c.12 0 .199-.038.28-.12l1.2-1.2a.385.385 0 0 0 0-.558.39.39 0 0 0-.562 0l-1.2 1.2a.385.385 0 0 0 0 .558c.082.082.16.12.282.12zm0 0"/>
</svg>
