<svg xmlns="http://www.w3.org/2000/svg" width="32" height="32" viewBox="0 0 24 24">
    <path d="M23.688 1.32L22.483.121a.385.385 0 0 0-.558 0 .385.385 0 0 0 0 .559l.52.52h-4.641c-.239 0-.399.16-.399.402 0 .238.16.398.399.398h4.64l-.52.52a.385.385 0 0 0 0 .558c.079.082.16.121.282.121.117 0 .2-.039.277-.12l1.203-1.2a.391.391 0 0 0 0-.559zm0 0M17.406 8.398c-.441 0-.879.16-1.199.403v-.403c0-1.117-.883-2-2-2-.441 0-.883.16-1.203.403 0-1.121-.879-2-2-2-.438 0-.879.16-1.2.398V2c0-1.121-.878-2-2-2-1.117 0-2 .879-2 2v9.078c-.878-1.52-2.917-2.277-4.48-1.719-.199.04-.36.16-.558.282-.602.398-.559.918-.559 1.078-.043.242 0 .281.559.922.68.8 2.16 2.48 3.078 4.16.082.078 1.16 1.84 2.363 3.16V20c0 2.2 1.797 4 4 4h4c1.719 0 3.52-1.441 3.918-3.121.121-.48.242-.84.402-1 .399-.48.88-1.598.88-3.078v-6.403c0-1.117-.88-2-2-2zM14.246 23.2h-4A3.206 3.206 0 0 1 7.046 20v-.363c.079.058.157.113.24.164.241.199.44.32.679.52.082.038.16.077.242.077.117 0 .238-.039.277-.16.16-.16.121-.398-.039-.558-.238-.239-.48-.399-.718-.559-.278-.2-.555-.398-.832-.633-1.188-1.242-2.329-3.09-2.329-3.09-.96-1.718-2.48-3.437-3.199-4.277a5.525 5.525 0 0 0-.363-.441c0-.121 0-.2.281-.36.16-.082.281-.16.403-.199 1.039-.36 2.757.117 3.519 1.438l.617.93c.004.023.012.046.02.07l.402.8c.078.16.2.243.36.243.078 0 .12 0 .16-.082.16-.079.238-.32.16-.52l-.281-.563V2c0-.68.52-1.2 1.199-1.2.683 0 1.203.52 1.203 1.2v11.2c0 .241.16.402.398.402.239 0 .399-.16.399-.403V6.801c0-.68.523-1.2 1.203-1.2s1.2.52 1.2 1.2v6c0 .238.16.398.398.398.242 0 .402-.16.402-.398V8.398c0-.68.52-1.199 1.2-1.199.679 0 1.198.52 1.198 1.2v4.8c0 .242.16.403.399.403.242 0 .402-.16.402-.403v-2.8c0-.68.52-1.2 1.2-1.2.679 0 1.199.52 1.199 1.2V16.8c0 .742-.145 1.344-.313 1.781a.45.45 0 0 0-.086.137c-.16.52-.64.64-1.52.883l-.242.039c-.199.039-.32.28-.277.48.078.16.238.277.398.277h.321c.183-.046.367-.097.547-.152a3.519 3.519 0 0 0-.106.434c-.281 1.36-1.762 2.52-3.12 2.52zm0 0"/>
</svg>
