<svg xmlns="http://www.w3.org/2000/svg" width="32" height="32" viewBox="0 0 24 24">
    <path d="M3.199219 6C3.199219 6.238281 3.359375 6.398438 3.601562 6.398438 3.839844 6.398438 4 6.238281 4 6L4 1.359375 4.519531 1.878906C4.601562 1.960938 4.679688 2 4.800781 2 4.921875 2 5 1.960938 5.078125 1.878906 5.238281 1.71875 5.238281 1.480469 5.078125 1.320312L3.949219.1875C3.882812.0703125 3.757812 0 3.601562 0 3.441406 0 3.316406.0703125 3.25.1875L2.121094 1.320312C1.960938 1.480469 1.960938 1.71875 2.121094 1.878906 2.28125 2.039062 2.519531 2.039062 2.679688 1.878906L3.199219 1.359375zM20 8.398438C19.558594 8.398438 19.121094 8.558594 18.800781 8.800781L18.800781 8.398438C18.800781 7.28125 17.921875 6.398438 16.800781 6.398438 16.359375 6.398438 15.921875 6.558594 15.601562 6.800781L15.601562 2C15.601562.878906 14.71875 0 13.601562 0 12.480469 0 11.601562.878906 11.601562 2 11.28125 1.761719 10.839844 1.601562 10.398438 1.601562 9.28125 1.601562 8.398438 2.480469 8.398438 3.601562L8.398438 11.078125C7.519531 9.558594 5.480469 8.800781 3.921875 9.359375 3.71875 9.398438 3.558594 9.519531 3.359375 9.640625 2.761719 10.039062 2.800781 10.558594 2.800781 10.71875 2.761719 10.960938 2.800781 11 3.359375 11.640625 4.039062 12.441406 5.519531 14.121094 6.441406 15.800781 6.519531 15.878906 7.601562 17.640625 8.800781 18.960938L8.800781 20C8.800781 22.199219 10.601562 24 12.800781 24L16.800781 24C18.519531 24 20.320312 22.558594 20.71875 20.878906 20.839844 20.398438 20.960938 20.039062 21.121094 19.878906 21.519531 19.398438 22 18.28125 22 16.800781L22 10.398438C22 9.28125 21.121094 8.398438 20 8.398438zM16.839844 23.199219L12.839844 23.199219C11.078125 23.199219 9.640625 21.761719 9.640625 20L9.640625 19.636719C9.71875 19.695312 9.796875 19.75 9.878906 19.800781 10.121094 20 10.320312 20.121094 10.558594 20.320312 10.71875 20.480469 11.039062 20.359375 11.078125 20.238281 11.238281 20.078125 11.199219 19.839844 11.039062 19.679688 10.800781 19.441406 10.558594 19.28125 10.320312 19.121094 10.042969 18.921875 9.765625 18.722656 9.488281 18.488281 8.300781 17.246094 7.160156 15.398438 7.160156 15.398438 6.199219 13.679688 4.679688 11.960938 3.960938 11.121094 3.839844 10.960938 3.679688 10.761719 3.601562 10.679688 3.601562 10.558594 3.601562 10.480469 3.878906 10.320312 4.039062 10.238281 4.160156 10.160156 4.28125 10.121094 5.320312 9.761719 7.039062 10.238281 7.800781 11.558594L8.417969 12.488281C8.421875 12.511719 8.429688 12.535156 8.441406 12.558594L8.839844 13.359375C8.917969 13.519531 9.320312 13.601562 9.359375 13.519531 9.519531 13.441406 9.601562 13.199219 9.519531 13L9.238281 12.433594C9.238281 12.421875 9.238281 12.410156 9.238281 12.398438L9.238281 3.601562C9.238281 2.921875 9.761719 2.398438 10.441406 2.398438 11.121094 2.398438 11.640625 2.921875 11.640625 3.601562L11.640625 8.332031C11.613281 8.386719 11.601562 8.449219 11.601562 8.519531L11.601562 13.199219C11.601562 13.441406 11.761719 13.601562 12 13.601562 12.238281 13.601562 12.398438 13.441406 12.398438 13.199219L12.398438 8.589844C12.425781 8.535156 12.441406 8.472656 12.441406 8.398438L12.441406 2C12.441406 1.320312 12.960938.800781 13.640625.800781 14.320312.800781 14.839844 1.320312 14.839844 2L14.839844 12.800781C14.839844 13.039062 15 13.199219 15.238281 13.199219 15.480469 13.199219 15.640625 13.039062 15.640625 12.800781L15.640625 8.398438C15.640625 7.71875 16.160156 7.199219 16.839844 7.199219 17.519531 7.199219 18.039062 7.71875 18.039062 8.398438L18.039062 13.199219C18.039062 13.441406 18.199219 13.601562 18.441406 13.601562 18.679688 13.601562 18.839844 13.441406 18.839844 13.199219L18.839844 10.398438C18.839844 9.71875 19.359375 9.199219 20.039062 9.199219 20.71875 9.199219 21.238281 9.71875 21.238281 10.398438L21.238281 16.800781C21.238281 17.738281 21.011719 18.449219 20.789062 18.890625 20.761719 18.910156 20.738281 18.933594 20.71875 18.960938 20.519531 19.238281 20.160156 19.359375 19.359375 19.558594L19.078125 19.640625C18.878906 19.679688 18.757812 19.921875 18.800781 20.121094 18.878906 20.28125 19.039062 20.398438 19.199219 20.398438 19.238281 20.398438 19.28125 20.398438 19.320312 20.398438L19.519531 20.359375C19.722656 20.300781 19.90625 20.25 20.082031 20.195312 20.035156 20.347656 19.996094 20.507812 19.960938 20.679688 19.679688 22.039062 18.199219 23.199219 16.839844 23.199219zM16.839844 23.199219"/>
</svg>
