<svg xmlns="http://www.w3.org/2000/svg" width="32" height="32" viewBox="0 0 24 24">
    <path d="M12.277344 20.398438L13.878906 20.398438C14.117188 20.398438 14.277344 20.238281 14.277344 20 14.277344 19.761719 14.117188 19.601562 13.878906 19.601562L12.277344 19.601562C12.039062 19.601562 11.878906 19.761719 11.878906 20 11.878906 20.238281 12.039062 20.398438 12.277344 20.398438zM14.277344 21.199219L11.917969 21.199219C11.675781 21.199219 11.515625 21.359375 11.515625 21.601562 11.515625 21.839844 11.675781 22 11.917969 22L14.277344 22C14.515625 22 14.675781 21.839844 14.675781 21.601562 14.675781 21.359375 14.515625 21.199219 14.277344 21.199219zM14.277344 21.199219"/>
    <path d="M 18.277344 3.199219 C 17.835938 3.199219 17.398438 3.359375 17.078125 3.601562 L 17.078125 3.199219 C 17.078125 2.078125 16.195312 1.199219 15.078125 1.199219 C 14.597656 1.199219 14.195312 1.359375 13.835938 1.640625 C 13.675781 0.71875 12.835938 0 11.878906 0 C 11.039062 0 10.277344 0.558594 9.996094 1.320312 C 9.636719 1 9.195312 0.800781 8.675781 0.800781 C 7.558594 0.800781 6.675781 1.679688 6.675781 2.800781 L 6.675781 5.039062 C 6.15625 4.679688 5.4375 4.519531 4.835938 4.71875 C 4.515625 4.800781 3.515625 5.28125 3.957031 7.078125 C 4.316406 8.519531 4.078125 10.441406 3.917969 12 C 3.835938 12.398438 3.796875 12.800781 3.757812 13.160156 C 3.375 17.675781 6.277344 19.777344 7.078125 20.253906 L 7.078125 23.519531 C 7.078125 23.761719 7.238281 23.921875 7.476562 23.921875 C 7.71875 23.921875 7.878906 23.761719 7.878906 23.519531 L 7.878906 20 C 7.878906 19.796875 7.761719 19.652344 7.585938 19.613281 C 7.132812 19.363281 4.214844 17.589844 4.558594 13.238281 C 4.597656 12.878906 4.636719 12.480469 4.675781 12.078125 C 4.878906 10.441406 5.117188 8.441406 4.71875 6.878906 C 4.597656 6.398438 4.515625 5.640625 5.078125 5.441406 C 5.597656 5.28125 6.398438 5.640625 6.675781 6.160156 L 6.675781 9.601562 C 6.675781 9.839844 6.835938 10 7.078125 10 C 7.316406 10 7.476562 9.839844 7.476562 9.601562 L 7.476562 2.800781 C 7.476562 2.121094 7.996094 1.601562 8.675781 1.601562 C 9.355469 1.601562 9.878906 2.121094 9.878906 2.800781 L 9.878906 8 C 9.878906 8.238281 10.039062 8.398438 10.277344 8.398438 C 10.515625 8.398438 10.675781 8.238281 10.675781 8 L 10.675781 2 C 10.675781 1.320312 11.195312 0.800781 11.878906 0.800781 C 12.558594 0.800781 13.078125 1.320312 13.078125 2 L 13.078125 8 C 13.078125 8.238281 13.238281 8.398438 13.476562 8.398438 C 13.71875 8.398438 13.878906 8.238281 13.878906 8 L 13.878906 3.199219 C 13.878906 2.519531 14.398438 2 15.078125 2 C 15.757812 2 16.277344 2.519531 16.277344 3.199219 L 16.277344 9.199219 C 16.277344 9.441406 16.4375 9.601562 16.675781 9.601562 C 16.917969 9.601562 17.078125 9.441406 17.078125 9.199219 L 17.078125 5.199219 C 17.078125 4.519531 17.597656 4 18.277344 4 C 18.957031 4 19.476562 4.519531 19.476562 5.199219 L 19.476562 13.199219 C 19.476562 17.71875 19.4375 17.761719 17.996094 19.679688 L 17.957031 19.761719 C 17.878906 19.839844 17.878906 19.921875 17.878906 20.039062 L 17.878906 23.601562 C 17.878906 23.839844 18.035156 24 18.277344 24 C 18.515625 24 18.675781 23.839844 18.675781 23.601562 L 18.675781 20.121094 C 20.238281 18.039062 20.277344 17.839844 20.277344 13.199219 L 20.277344 5.199219 C 20.277344 4.078125 19.398438 3.199219 18.277344 3.199219 Z M 18.277344 3.199219"/>
</svg>
