<svg xmlns="http://www.w3.org/2000/svg" width="32" height="32" viewBox="0 0 24 24">
    <path d="M3.8 6.398a.38.38 0 0 0 .348-.187l1.133-1.133a.385.385 0 0 0 0-.558.39.39 0 0 0-.562 0l-.52.52V1.36l.52.519C4.8 1.96 4.879 2 5 2c.121 0 .2-.04.281-.121a.385.385 0 0 0 0-.559L4.148.187A.38.38 0 0 0 3.801 0c-.16 0-.285.07-.348.188L2.32 1.32a.385.385 0 0 0 0 .559c.16.16.399.16.559 0l.52-.52v3.68l-.52-.52a.385.385 0 0 0-.559 0 .385.385 0 0 0 0 .56L3.453 6.21c.063.117.188.187.348.187zm0 0M19.8 8.398c-.44 0-.878.16-1.198.403v-.403c0-1.117-.883-2-2-2-.442 0-.883.16-1.204.403V2c0-1.121-.878-2-2-2-1.117 0-2 .879-2 2a2.062 2.062 0 0 0-1.199-.398c-1.12 0-2 .878-2 2v7.476C7.32 9.558 5.281 8.801 3.72 9.36c-.2.04-.36.16-.559.282-.601.398-.558.918-.558 1.078-.043.242 0 .281.558.922.68.8 2.16 2.48 3.078 4.16.082.078 1.16 1.84 2.364 3.16V20c0 2.2 1.796 4 4 4h4c1.718 0 3.52-1.441 3.918-3.121.12-.48.242-.84.402-1 .398-.48.879-1.598.879-3.078v-6.403c0-1.117-.88-2-2-2zM16.64 23.2h-4A3.206 3.206 0 0 1 9.442 20v-.363c.079.058.157.113.239.164.242.199.441.32.68.52.16.16.48.038.519-.083.16-.16.121-.398-.04-.558-.237-.239-.48-.399-.718-.559a13.02 13.02 0 0 1-.832-.633c-1.187-1.242-2.328-3.09-2.328-3.09-.961-1.718-2.48-3.437-3.2-4.277a5.525 5.525 0 0 0-.363-.441c0-.121 0-.2.282-.36.16-.082.28-.16.398-.199 1.043-.36 2.762.117 3.524 1.438l.617.93c.004.023.011.046.02.07l.402.8c.078.16.48.243.52.16.16-.078.237-.32.16-.519l-.282-.563V3.603c0-.68.52-1.204 1.2-1.204.679 0 1.202.524 1.202 1.204v4.73a.414.414 0 0 0-.043.188v4.68c0 .241.16.402.403.402.238 0 .398-.16.398-.403V8.59a.42.42 0 0 0 .04-.19V2c0-.68.523-1.2 1.202-1.2.68 0 1.2.52 1.2 1.2v10.8c0 .24.16.4.398.4.242 0 .402-.16.402-.4V8.399c0-.68.52-1.199 1.2-1.199.68 0 1.199.52 1.199 1.2v4.8c0 .242.16.403.398.403.242 0 .403-.16.403-.403v-2.8c0-.68.52-1.2 1.199-1.2.68 0 1.2.52 1.2 1.2V16.8c0 .937-.231 1.648-.45 2.09a.3.3 0 0 0-.07.07c-.2.277-.56.398-1.36.598l-.281.082c-.2.039-.32.28-.277.48.078.16.238.277.398.277h.121l.2-.039c.199-.058.386-.109.562-.164-.047.153-.09.313-.121.485C19.48 22.04 18 23.2 16.64 23.2zm0 0"/>
</svg>
