<svg xmlns="http://www.w3.org/2000/svg" width="32" height="32" viewBox="0 0 24 24">
    <path d="M23.777 11.922c-.629-.836-1.254-.945-2.562-.356v-8.37c0-.243-.16-.403-.402-.403H4.003c-.23 0-.386.148-.398.375-.003.023-.003.05-.003.078v7.926c-.305.16-.575.324-.801.465V10.8H0v10.406h2.8v-1.203h5.204c.8 0 1.644-.078 2.441-.117l5.207-.801c.2 0 .399-.043.559-.082.48-.078.922-.32 1.32-.68l6.043-4.804c.48-.399.563-1.122.203-1.598zm-12.53-1.762c.32.277.76.438 1.163.438.399 0 .84-.118 1.16-.438l.239-.215 4.464 3.352-1.14.703c-.473.277-1.528.36-2.516.363.008-.05.012-.097.016-.144.113-.332.012-.727-.305-1.18a3.512 3.512 0 0 0-2.879-1.48H9.887c-.262 0-.52-.024-.774-.07l1.875-1.56zm7.76 2.688l-4.593-3.446 6-5.355v7.933zm.766-9.254l-6.765 5.965c-.32.32-.88.32-1.238 0L5.043 3.594zM4.403 10.8V4.078l5.984 5.317-2.172 1.808a3.691 3.691 0 0 1-.61-.363 1.91 1.91 0 0 0-.3-.188c-.032-.02-.067-.035-.102-.054 0-.04-.039-.04-.039-.04-.121-.038-.238-.078-.398-.12h-.04c-.12 0-.28-.04-.402-.04h-.16c-.043 0-.101 0-.16.008-.113.008-.227.02-.34.035a.697.697 0 0 0-.219.04h-.008l-.207.046a5.929 5.929 0 0 0-.508.152.543.543 0 0 0-.12.04c-.012.008-.024.011-.032.015l-.054.02a.784.784 0 0 0-.114.047zM2 20.406H.8v-8.804H2zm21.094-7.445l-6.082 4.723-.04.039a1.39 1.39 0 0 1-.921.48c-.16.043-.281.043-.442.043l-5.28.797c-.763.121-1.563.16-2.325.16H2.8v-6.601c.96-.684 3.203-1.961 4.324-1.082.598.44 1.344.73 2.121.835.207.032.422.043.64.043h1.563c.047 0 .094.004.14.004.02.004.04.004.056.004a2.809 2.809 0 0 1 1.324.434c.281.2.52.402.68.68.152.226.206.453.167.68-.183.144-.601.206-1.046.241H8.484c-1.238 0-2 .602-2 1.602 0 .238.16.398.399.398.242 0 .402-.16.402-.398 0-.2 0-.8 1.2-.8h4.523c1.883.038 3.644 0 4.562-.481l3.446-2.121c1.68-.84 1.84-.641 2.16-.16.078.12.078.359-.082.48zm0 0"/>
</svg>
