<svg xmlns="http://www.w3.org/2000/svg" width="32" height="32" viewBox="0 0 24 24">
    <path d="M 18.617188 2.070312 C 18.242188 2.070312 17.871094 2.191406 17.582031 2.398438 L 17.582031 1.863281 C 17.582031 0.828125 16.753906 0 15.71875 0 C 14.683594 0 13.855469 0.828125 13.855469 1.863281 L 13.855469 6.105469 C 13.578125 5.917969 13.25 5.808594 12.890625 5.792969 C 12.867188 5.792969 12.84375 5.792969 12.824219 5.792969 C 12.796875 5.792969 12.769531 5.792969 12.742188 5.796875 C 11.96875 5.828125 11.324219 6.320312 11.074219 7.011719 C 10.777344 6.78125 10.40625 6.640625 10.003906 6.621094 C 9.976562 6.621094 9.953125 6.621094 9.925781 6.621094 C 9.898438 6.621094 9.867188 6.621094 9.839844 6.621094 C 9.820312 6.625 9.800781 6.625 9.777344 6.625 C 9.773438 6.628906 9.765625 6.628906 9.761719 6.628906 C 9.003906 6.695312 8.378906 7.207031 8.15625 7.90625 C 8.136719 7.957031 8.117188 8.011719 8.105469 8.070312 C 8.0625 8.152344 8.0625 8.191406 8.0625 8.277344 L 8.0625 10.011719 C 7.691406 9.226562 7.195312 8.484375 6.699219 7.984375 C 6.035156 7.324219 4.710938 7.28125 3.96875 7.902344 C 3.761719 8.109375 3.058594 8.855469 4.007812 10.179688 C 4.878906 11.421875 5.582031 14.152344 5.582031 15.722656 C 5.582031 19.035156 7.734375 20.523438 8.476562 20.9375 L 8.476562 22.34375 C 8.476562 23.253906 9.222656 24 10.132812 24 L 17.582031 24 C 18.492188 24 19.234375 23.253906 19.234375 22.34375 L 19.234375 20.855469 C 20.476562 19.160156 20.476562 18.953125 20.476562 15.722656 L 20.476562 3.929688 C 20.476562 2.898438 19.648438 2.070312 18.617188 2.070312 Z M 9.085938 7.875 C 9.28125 7.617188 9.59375 7.449219 9.925781 7.449219 C 9.957031 7.449219 9.984375 7.449219 10.011719 7.453125 C 10.019531 7.453125 10.027344 7.453125 10.03125 7.453125 C 10.054688 7.457031 10.074219 7.457031 10.097656 7.460938 C 10.59375 7.542969 10.960938 7.960938 10.960938 8.484375 L 10.960938 12.621094 C 10.960938 13.199219 10.503906 13.65625 9.925781 13.65625 C 9.347656 13.65625 8.890625 13.199219 8.890625 12.621094 L 8.890625 8.484375 C 8.890625 8.253906 8.960938 8.042969 9.085938 7.875 Z M 11.789062 8.484375 L 11.789062 7.65625 C 11.789062 7.074219 12.242188 6.621094 12.824219 6.621094 C 12.839844 6.621094 12.851562 6.621094 12.867188 6.621094 C 12.875 6.621094 12.878906 6.621094 12.882812 6.621094 C 12.894531 6.625 12.90625 6.625 12.914062 6.625 C 12.953125 6.628906 13 6.632812 13.046875 6.644531 C 13.054688 6.644531 13.0625 6.648438 13.070312 6.648438 C 13.074219 6.652344 13.082031 6.652344 13.085938 6.652344 C 13.242188 6.691406 13.382812 6.765625 13.5 6.867188 C 13.695312 7.042969 13.855469 7.34375 13.855469 7.863281 L 13.855469 12.621094 C 13.855469 13.199219 13.402344 13.65625 12.824219 13.65625 C 12.242188 13.65625 11.789062 13.199219 11.789062 12.621094 Z M 19.648438 15.722656 C 19.648438 18.753906 19.648438 18.863281 18.613281 20.277344 L 17.996094 20.277344 C 17.746094 20.277344 17.582031 20.441406 17.582031 20.691406 C 17.582031 20.9375 17.746094 21.101562 17.996094 21.101562 L 18.410156 21.101562 L 18.410156 22.34375 C 18.410156 22.800781 18.035156 23.171875 17.582031 23.171875 L 10.132812 23.171875 C 9.675781 23.171875 9.304688 22.800781 9.304688 22.34375 L 9.304688 21.101562 L 10.132812 21.101562 C 10.382812 21.101562 10.546875 20.9375 10.546875 20.691406 C 10.546875 20.441406 10.382812 20.277344 10.132812 20.277344 L 8.976562 20.277344 C 8.527344 20.039062 6.410156 18.769531 6.410156 15.722656 C 6.410156 14.191406 5.746094 11.171875 4.710938 9.683594 C 4.421875 9.308594 4.175781 8.8125 4.546875 8.523438 C 4.710938 8.359375 5 8.277344 5.292969 8.277344 C 5.582031 8.277344 5.910156 8.359375 6.117188 8.566406 C 7.152344 9.601562 8.0625 11.792969 8.0625 12.828125 C 8.0625 12.90625 8.078125 12.972656 8.109375 13.03125 C 8.296875 13.867188 9.03125 14.484375 9.925781 14.484375 C 10.511719 14.484375 11.035156 14.214844 11.375 13.796875 C 11.714844 14.214844 12.234375 14.484375 12.824219 14.484375 C 13.855469 14.484375 14.683594 13.65625 14.683594 12.621094 L 14.683594 1.863281 C 14.683594 1.28125 15.140625 0.828125 15.71875 0.828125 C 16.296875 0.828125 16.753906 1.28125 16.753906 1.863281 L 16.753906 3.929688 C 16.753906 3.96875 16.757812 4 16.765625 4.035156 C 16.757812 4.066406 16.753906 4.101562 16.753906 4.136719 L 16.753906 12.414062 C 16.753906 12.621094 16.710938 12.785156 16.671875 12.828125 C 16.464844 12.867188 16.339844 13.035156 16.339844 13.242188 C 16.339844 13.488281 16.503906 13.65625 16.753906 13.65625 C 16.910156 13.65625 17.050781 13.601562 17.167969 13.507812 C 17.285156 13.601562 17.425781 13.65625 17.582031 13.65625 C 17.828125 13.65625 17.996094 13.488281 17.996094 13.242188 C 17.996094 13.035156 17.828125 12.867188 17.664062 12.828125 C 17.621094 12.785156 17.582031 12.621094 17.582031 12.414062 L 17.582031 4.136719 C 17.582031 4.101562 17.578125 4.066406 17.570312 4.035156 C 17.578125 4 17.582031 3.96875 17.582031 3.929688 C 17.582031 3.351562 18.035156 2.898438 18.617188 2.898438 C 19.195312 2.898438 19.648438 3.351562 19.648438 3.929688 Z M 19.648438 15.722656"/>
</svg>
