<svg xmlns="http://www.w3.org/2000/svg" width="32" height="32" viewBox="0 0 24 24">
    <path d="M20.438 8.855c0-.992-.829-1.82-1.82-1.82h-.044c-.37 0-.703.082-.992.29V1.862A1.856 1.856 0 0 0 15.719 0c-1.035 0-1.864.828-1.82 1.863v5.09a1.814 1.814 0 0 0-1.036-.332h-.039c-.68 0-1.27.356-1.597.895a2.508 2.508 0 0 0-.48-.293 1.86 1.86 0 0 0-.821-.188 1.856 1.856 0 0 0-1.864 1.863v1.118c-.37-.79-.867-1.532-1.363-2.032-.664-.66-1.988-.703-2.73-.082-.207.207-.91.953.039 2.278.87 1.242 1.574 3.972 1.574 5.543 0 3.312 2.152 4.8 2.895 5.214v1.407c0 .91.746 1.656 1.656 1.656h7.449c.91 0 1.652-.746 1.652-1.656v-1.489c1.243-1.695 1.243-1.902 1.243-5.132v-.825zm-2.856.165a.42.42 0 0 0 .04-.165c0-.53.444-.98.972-.992.57.012 1.015.461 1.015.992v4.18c0 .54-.457.992-.992.992h-.043c-.539 0-.992-.453-.992-.992zm-5.793 4.468V8.484c0-.582.453-1.035 1.035-1.035.578 0 1.031.453 1.031 1.035v5.793a1.02 1.02 0 0 1-1.03 1.032 1.021 1.021 0 0 1-1.036-1.032zm-2.898-4.59c0-.582.457-1.035 1.035-1.035.578 0 1.035.453 1.035 1.035v4.887c-.125.43-.516.738-.992.738h-.043a1.025 1.025 0 0 1-1.035-1.035zm9.722 11.38h-.617c-.25 0-.414.163-.414.413 0 .247.164.41.414.41h.414v1.243a.831.831 0 0 1-.828.828h-7.45a.829.829 0 0 1-.827-.828v-1.242h.828c.25 0 .414-.165.414-.41 0-.25-.164-.415-.414-.415H8.965c-.469-.238-2.555-1.52-2.555-4.554 0-1.532-.664-4.551-1.7-6.04-.288-.374-.534-.87-.163-1.16.164-.164.453-.246.746-.246.289 0 .617.121.824.29 1.035 1.035 1.946 3.226 1.946 4.261v.621c0 1.035.828 1.86 1.863 1.86.433 0 .832-.145 1.148-.387.258.71.942 1.215 1.75 1.215 1.031 0 1.86-.828 1.86-1.86V1.863c0-.582.457-1.035 1.035-1.035.578 0 1.035.453 1.074 1.035v6.614a2.01 2.01 0 0 0-.04.378v4.22c0 .995.829 1.823 1.903 1.823.367 0 .707-.113.992-.308v1.133c0 3.03 0 3.14-1.035 4.554zm0 0"/>
</svg>
