<svg xmlns="http://www.w3.org/2000/svg" width="32" height="32" viewBox="0 0 24 24">
    <path d="M21.246 7.04a1.864 1.864 0 0 0-.922-.24c-.64 0-1.16.36-1.601 1.04-.118.238-.559.922-1 1.68l1.601-6.84c.121-.64-.12-1.04-.32-1.282-.32-.398-.879-.636-1.48-.597-.88 0-1.52.597-1.801 1.719l-1.399 5.52V1.8c0-1-.8-1.8-1.8-1.8s-1.801.8-1.801 1.8v6.321l-1.399-4.84c-.238-.64-.558-1.64-1.8-1.68-.641 0-1.239.36-1.56.88-.198.398-.28.84-.16 1.32l1.758 7.16c-1.078-1.242-2.398-2-2.878-2.281-.801-.442-2.04-.121-2.559.64-.16.239-.602 1.16.64 2.121 1.16.918 2.56 3.278 3 4.72v.038c.68 2.922 2.36 4.36 2.958 4.801v1.398c0 .961.64 1.602 1.601 1.602h7c.88 0 1.399-.602 1.399-1.602v-1.476c1.082-1.48 1.203-1.762 1.203-4.242 0-.801.277-1.64.52-2.48l1.558-5.079c.242-.8-.078-1.68-.758-2.082zm0 1.92l-1.441 4.72-.121.36c-.282.882-.559 1.76-.559 2.722 0 2.242-.035 2.39-.973 3.636h-.629c-.238 0-.398.16-.398.403 0 .238.16.398.398.398h.403v1.242c0 .797-.403.797-.602.797h-7c-.199 0-.8-.078-.8-.797V21.2h.8c.239 0 .399-.16.399-.398 0-.242-.16-.403-.399-.403H9.227c-.422-.328-2.11-1.687-2.704-4.476 0-.043-.039-.082-.039-.121-.48-1.442-1.84-3.922-3.16-5-.36-.281-.719-.68-.48-1.04.242-.44 1.039-.64 1.48-.402.68.36 2.922 1.762 3.84 3.961.238.559.52 1.239 1.36 1.801a.31.31 0 0 0 .199.078c.12 0 .242-.078.363-.199.117-.2.078-.441-.121-.559-.64-.402-.84-.882-1.04-1.402a.766.766 0 0 0-.023-.055L6.605 3.602c-.043-.282-.043-.524.079-.723.16-.277.48-.48.84-.48.562 0 .761.363 1 1.12l2.199 7.52a.323.323 0 0 0 .03.086c.005.086-.003.148-.03.195-.16.078-.278.239-.239.442.04.199.2.316.399.316h.082a.613.613 0 0 0 .39-.23c.09.047.188.074.29.074h.16c.238-.043.36-.281.32-.48-.04-.204-.2-.32-.402-.32-.04-.083-.118-.2-.16-.403a.297.297 0 0 0-.04-.117V1.8c0-.563.442-1 1-1 .563 0 1 .437 1 1V11.2c0 .198-.039.359-.078.402-.199.039-.32.199-.32.398 0 .238.16.398.398.398.153 0 .286-.05.403-.14.113.09.246.14.398.14.239 0 .399-.16.399-.398 0-.2-.16-.36-.32-.398-.036-.036-.067-.165-.079-.329l2.16-8.593c.2-.72.559-1.078 1.04-1.078.402 0 .722.117.921.277.117.16.16.36.117.601l-2.171 9.29a.442.442 0 0 0-.067.152c-.039.238-.12.36-.16.398-.2 0-.36.121-.398.32a.413.413 0 0 0 .32.481h.117a.799.799 0 0 0 .313-.07.598.598 0 0 0 .367.23h.082c.2 0 .36-.16.398-.32.04-.2-.078-.36-.238-.441 0-.04-.04-.192-.004-.383.274-.465 1.988-3.38 2.285-3.856.36-.601.68-.68.918-.68.2 0 .36.04.52.2.36.238.52.719.402 1.16zm0 0"/>
</svg>
