<svg xmlns="http://www.w3.org/2000/svg" width="32" height="32" viewBox="0 0 24 24">
    <path d="M 21.152344 8.480469 C 20.914062 8.078125 20.554688 7.761719 20.074219 7.640625 C 19.707031 7.546875 19.335938 7.574219 19 7.691406 L 20.195312 3.039062 C 20.394531 2.398438 20.234375 1.761719 19.792969 1.320312 C 19.472656 0.960938 18.992188 0.761719 18.511719 0.800781 C 17.753906 0.839844 17.152344 1.160156 16.753906 2.480469 L 14.992188 8.441406 L 14.992188 1.800781 C 14.992188 0.800781 14.195312 0 13.195312 0 C 12.195312 0 11.394531 0.800781 11.394531 1.800781 L 11.394531 7.558594 L 10.351562 3.28125 C 10.113281 2.558594 9.714844 1.601562 8.554688 1.601562 C 7.792969 1.601562 7.152344 2.039062 6.875 2.679688 C 6.753906 2.960938 6.714844 3.320312 6.792969 3.71875 L 8.394531 11.519531 C 7.554688 10.398438 6.433594 9.160156 5.511719 8.640625 C 4.714844 8.078125 3.511719 8.199219 2.914062 8.921875 C 2.671875 9.199219 2.113281 10.160156 3.554688 11.398438 C 6.074219 13.601562 6.3125 16 6.3125 16.039062 C 6.753906 19.121094 8.433594 20.558594 8.992188 21 L 8.992188 22.398438 C 8.992188 23.398438 9.632812 24 10.714844 24 L 17.914062 24 C 18.832031 24 19.394531 23.398438 19.394531 22.398438 L 19.394531 20.960938 C 20.59375 19.320312 20.59375 19.121094 20.59375 16 L 20.59375 12.839844 L 20.671875 12.28125 L 21.3125 9.878906 C 21.375 9.710938 21.398438 9.535156 21.394531 9.355469 C 21.398438 9.050781 21.308594 8.738281 21.152344 8.480469 Z M 19.511719 13.519531 C 19.355469 14.078125 18.792969 14.398438 18.273438 14.238281 C 17.753906 14.078125 17.433594 13.558594 17.554688 13 L 17.886719 11.753906 C 17.898438 11.730469 17.910156 11.707031 17.914062 11.679688 L 18.59375 9.121094 C 18.753906 8.558594 19.3125 8.238281 19.832031 8.398438 C 20.074219 8.480469 20.3125 8.640625 20.433594 8.878906 C 20.59375 9.121094 20.632812 9.398438 20.554688 9.640625 Z M 18.765625 20.398438 L 18.195312 20.398438 C 17.953125 20.398438 17.792969 20.558594 17.792969 20.800781 C 17.792969 21.039062 17.953125 21.199219 18.195312 21.199219 L 18.59375 21.199219 L 18.59375 22.359375 C 18.59375 23.078125 18.195312 23.160156 17.914062 23.160156 L 10.714844 23.160156 C 9.914062 23.160156 9.792969 22.761719 9.792969 22.359375 L 9.792969 21.199219 L 10.753906 21.199219 C 10.953125 21.199219 11.152344 21.039062 11.152344 20.800781 C 11.152344 20.558594 10.992188 20.398438 10.753906 20.398438 L 9.59375 20.398438 C 9.554688 20.398438 7.59375 19.199219 7.113281 15.921875 C 7.113281 15.839844 6.875 13.238281 4.074219 10.800781 C 3.753906 10.558594 3.152344 9.921875 3.511719 9.441406 C 3.671875 9.238281 4.035156 9.121094 4.351562 9.121094 C 4.59375 9.121094 4.832031 9.199219 5.074219 9.359375 L 5.113281 9.398438 C 6.273438 10.039062 7.832031 12.121094 8.671875 13.238281 L 8.75 13.335938 C 8.757812 13.371094 8.773438 13.40625 8.792969 13.441406 L 8.953125 13.71875 C 9.273438 14.28125 9.472656 14.558594 10.074219 15.121094 C 10.152344 15.160156 10.273438 15.199219 10.351562 15.199219 C 10.433594 15.199219 10.554688 15.160156 10.671875 15.078125 C 10.832031 14.921875 10.792969 14.679688 10.632812 14.519531 C 10.113281 14.078125 9.992188 13.839844 9.671875 13.320312 L 9.550781 13.105469 L 7.59375 3.601562 C 7.554688 3.441406 7.554688 3.199219 7.632812 3 C 7.792969 2.640625 8.152344 2.398438 8.554688 2.398438 C 8.953125 2.398438 9.273438 2.601562 9.554688 3.480469 L 11.394531 10.921875 L 11.394531 11.199219 C 11.394531 11.398438 11.355469 11.558594 11.3125 11.601562 C 11.113281 11.640625 10.992188 11.800781 10.992188 12 C 10.992188 12.238281 11.152344 12.398438 11.394531 12.398438 C 11.554688 12.398438 11.671875 12.320312 11.792969 12.238281 C 11.914062 12.359375 12.035156 12.398438 12.195312 12.398438 C 12.433594 12.398438 12.59375 12.238281 12.59375 12 C 12.59375 11.800781 12.433594 11.640625 12.273438 11.601562 C 12.234375 11.558594 12.195312 11.398438 12.195312 11.199219 L 12.195312 1.800781 C 12.195312 1.238281 12.632812 0.800781 13.195312 0.800781 C 13.753906 0.800781 14.195312 1.238281 14.195312 1.839844 L 14.195312 11.199219 C 14.195312 11.398438 14.152344 11.558594 14.113281 11.601562 C 13.914062 11.640625 13.792969 11.800781 13.792969 12 C 13.792969 12.238281 13.953125 12.398438 14.191406 12.398438 C 14.34375 12.398438 14.480469 12.347656 14.59375 12.257812 C 14.707031 12.347656 14.84375 12.398438 14.992188 12.398438 C 15.234375 12.398438 15.394531 12.238281 15.394531 12 C 15.394531 11.800781 15.234375 11.640625 15.074219 11.601562 C 15.039062 11.566406 15.007812 11.457031 14.996094 11.308594 L 17.511719 2.679688 C 17.832031 1.640625 18.152344 1.640625 18.554688 1.601562 C 18.875 1.601562 19.113281 1.761719 19.234375 1.839844 C 19.433594 2.078125 19.511719 2.441406 19.433594 2.800781 L 17.113281 11.441406 C 17.082031 11.535156 17.101562 11.625 17.128906 11.703125 L 16.832031 12.800781 C 16.671875 13.238281 16.753906 13.761719 16.992188 14.160156 C 17.234375 14.558594 17.59375 14.878906 18.074219 15 C 18.234375 15.039062 18.394531 15.078125 18.554688 15.078125 C 19.023438 15.078125 19.46875 14.898438 19.792969 14.578125 L 19.792969 16 C 19.792969 18.957031 19.792969 19.039062 18.765625 20.398438 Z M 18.765625 20.398438"/>
</svg>
