<svg xmlns="http://www.w3.org/2000/svg" width="32" height="32" viewBox="0 0 24 24">
    <path d="M 20.59375 4.820312 C 20.503906 3.769531 19.652344 2.910156 18.605469 2.808594 C 18.59375 2.808594 18.582031 2.808594 18.574219 2.808594 C 18.550781 2.804688 18.527344 2.804688 18.503906 2.804688 C 18.46875 2.800781 18.433594 2.800781 18.398438 2.800781 C 18.367188 2.800781 18.332031 2.800781 18.296875 2.800781 C 18.269531 2.804688 18.238281 2.804688 18.210938 2.808594 C 18.207031 2.808594 18.207031 2.808594 18.207031 2.808594 C 17.753906 2.851562 17.335938 3.035156 17 3.3125 C 16.957031 2.117188 15.996094 1.199219 14.800781 1.199219 C 14.253906 1.199219 13.746094 1.410156 13.359375 1.75 C 13.152344 0.753906 12.238281 0 11.199219 0 C 11.191406 0 11.183594 0 11.175781 0 C 11.171875 0 11.164062 0 11.160156 0 C 10.230469 0 9.425781 0.597656 9.105469 1.425781 C 8.746094 1.035156 8.191406 0.800781 7.601562 0.800781 C 6.398438 0.800781 5.398438 1.800781 5.398438 3 L 5.398438 8.800781 C 5.398438 8.960938 5.078125 9.320312 4.878906 9.640625 C 4.238281 10.398438 3.398438 11.480469 3.398438 12.960938 L 3.398438 14.800781 C 3.398438 18.398438 5.160156 19.839844 5.800781 20.238281 L 5.800781 22 C 5.800781 23.121094 6.679688 24 7.800781 24 L 17 24 C 17.921875 24 18.601562 23.199219 18.601562 22.121094 L 18.601562 20.160156 C 18.761719 19.921875 18.960938 19.679688 19.121094 19.480469 C 20.28125 18.039062 20.601562 17.519531 20.601562 13.480469 L 20.601562 4.878906 C 20.601562 4.855469 20.597656 4.835938 20.59375 4.820312 Z M 17 5 C 17 4.882812 17.015625 4.765625 17.046875 4.652344 C 17.0625 4.625 17.074219 4.59375 17.078125 4.558594 C 17.242188 4.105469 17.617188 3.753906 18.070312 3.640625 C 18.074219 3.640625 18.074219 3.640625 18.074219 3.640625 C 18.105469 3.632812 18.140625 3.625 18.175781 3.621094 C 18.175781 3.617188 18.179688 3.617188 18.179688 3.617188 C 18.214844 3.613281 18.246094 3.609375 18.28125 3.605469 C 18.285156 3.605469 18.292969 3.605469 18.300781 3.605469 C 18.332031 3.601562 18.367188 3.601562 18.398438 3.601562 C 18.421875 3.601562 18.445312 3.601562 18.46875 3.601562 C 18.472656 3.601562 18.476562 3.601562 18.476562 3.601562 C 18.5 3.605469 18.519531 3.605469 18.539062 3.605469 C 18.542969 3.605469 18.542969 3.605469 18.542969 3.605469 C 19.003906 3.65625 19.410156 3.941406 19.628906 4.339844 C 19.640625 4.359375 19.648438 4.378906 19.660156 4.398438 C 19.75 4.582031 19.800781 4.785156 19.800781 5 L 19.800781 8.199219 C 19.800781 8.960938 19.160156 9.601562 18.398438 9.601562 C 17.640625 9.601562 17 8.960938 17 8.199219 Z M 16.199219 3.398438 L 16.199219 8.601562 C 16.199219 9.359375 15.558594 10 14.800781 10 C 14.039062 10 13.398438 9.359375 13.398438 8.601562 L 13.398438 3.398438 C 13.398438 2.640625 14.039062 2 14.800781 2 C 15.558594 2 16.199219 2.640625 16.199219 3.398438 Z M 10.960938 9.320312 C 11 9.238281 11.078125 9.121094 11.121094 9.039062 C 11.519531 8.359375 11.398438 7.320312 10.878906 6.558594 C 10.828125 6.484375 10.769531 6.417969 10.710938 6.351562 C 10.617188 6.25 10.511719 6.15625 10.398438 6.078125 C 10.292969 6.003906 10.082031 5.882812 9.800781 5.839844 L 9.800781 2.199219 C 9.800781 1.441406 10.441406 0.800781 11.199219 0.800781 C 11.960938 0.800781 12.601562 1.441406 12.601562 2.199219 L 12.601562 9 C 12.601562 9.761719 11.960938 10.398438 11.160156 10.398438 C 10.800781 10.398438 10.558594 10.398438 10.359375 10.320312 C 10.601562 10 10.800781 9.640625 10.960938 9.320312 Z M 7.601562 1.601562 C 8.25 1.601562 8.808594 2.066406 8.960938 2.675781 L 8.960938 5.964844 C 8.652344 6.105469 8.3125 6.359375 7.960938 6.800781 C 7.464844 7.421875 6.871094 7.96875 6.199219 8.445312 L 6.199219 3 C 6.199219 2.238281 6.839844 1.601562 7.601562 1.601562 Z M 18.519531 18.960938 C 18.355469 19.15625 18.191406 19.355469 18 19.601562 L 17 19.601562 C 16.761719 19.601562 16.601562 19.761719 16.601562 20 C 16.601562 20.238281 16.761719 20.398438 17 20.398438 L 17.800781 20.398438 L 17.800781 22.078125 C 17.800781 22.601562 17.601562 23.199219 17 23.199219 L 7.800781 23.199219 C 7.121094 23.199219 6.601562 22.679688 6.601562 22 L 6.601562 20.6875 C 7.125 20.953125 7.558594 21.160156 7.558594 21.160156 C 7.601562 21.199219 7.679688 21.199219 7.71875 21.199219 C 7.878906 21.199219 8 21.121094 8.078125 20.960938 C 8.160156 20.761719 8.078125 20.519531 7.878906 20.441406 C 7.878906 20.441406 7.191406 20.09375 6.484375 19.726562 C 6.449219 19.695312 6.410156 19.664062 6.359375 19.640625 C 6.359375 19.640625 4.199219 18.601562 4.199219 14.800781 L 4.199219 12.960938 C 4.199219 11.761719 4.921875 10.839844 5.480469 10.121094 C 5.625 9.929688 5.761719 9.757812 5.875 9.59375 C 5.917969 9.585938 5.960938 9.578125 6 9.558594 C 7 8.960938 7.878906 8.199219 8.601562 7.320312 C 8.960938 6.878906 9.480469 6.441406 9.960938 6.761719 C 9.976562 6.773438 9.996094 6.785156 10.011719 6.800781 C 10.085938 6.863281 10.148438 6.933594 10.199219 7 C 10.558594 7.480469 10.640625 8.199219 10.398438 8.640625 C 10.363281 8.753906 10.289062 8.832031 10.246094 8.941406 C 9.320312 10.46875 7.902344 11.773438 6.878906 12.039062 C 6.679688 12.078125 6.558594 12.320312 6.601562 12.519531 C 6.679688 12.679688 6.839844 12.800781 7 12.800781 C 7.039062 12.800781 7.078125 12.800781 7.078125 12.761719 C 7.972656 12.519531 8.925781 11.78125 9.734375 10.890625 C 10.148438 11.199219 10.667969 11.199219 11.160156 11.199219 C 12.023438 11.199219 12.769531 10.714844 13.128906 10.019531 C 13.535156 10.496094 14.136719 10.800781 14.800781 10.800781 C 15.628906 10.800781 16.363281 10.320312 16.738281 9.628906 C 17.144531 10.097656 17.742188 10.398438 18.398438 10.398438 C 18.929688 10.398438 19.417969 10.207031 19.800781 9.886719 L 19.800781 13.441406 C 19.800781 17.359375 19.519531 17.71875 18.519531 18.960938 Z M 18.519531 18.960938"/>
</svg>
