<svg xmlns="http://www.w3.org/2000/svg" width="32" height="32" viewBox="0 0 24 24">
    <path d="M 23.53125 10.328125 C 23.53125 10.285156 23.53125 10.285156 23.53125 10.285156 C 23.199219 9.203125 22.710938 8.46875 22.136719 8.015625 C 22.0625 7.332031 21.949219 6.605469 21.796875 5.789062 C 21.4375 3.960938 20.324219 2.804688 18.902344 2.804688 L 18.5 2.804688 C 17.875 2.804688 16.984375 3.070312 16.316406 4.230469 C 15.917969 2.9375 14.714844 1.914062 13.378906 1.914062 L 13.332031 1.914062 C 11.996094 1.914062 10.796875 2.9375 10.394531 4.273438 C 9.816406 3.339844 9.015625 2.804688 8.078125 2.804688 L 7.988281 2.804688 C 6.609375 2.804688 5.363281 3.871094 5.003906 5.253906 C 4.515625 4.496094 3.890625 4.140625 3.136719 4.140625 C 2.289062 4.140625 1.132812 4.585938 0.464844 6.855469 C -0.0703125 9.304688 -0.160156 11.753906 0.285156 14.203125 L 0.464844 15.09375 C 0.863281 16.429688 1.710938 17.054688 3.136719 17.054688 C 3.980469 17.054688 4.695312 16.742188 5.230469 16.207031 C 5.675781 17.234375 6.742188 17.945312 8.035156 17.945312 L 8.125 17.945312 C 9.101562 17.945312 9.949219 17.542969 10.484375 16.921875 C 10.660156 17.363281 10.941406 17.753906 11.296875 18.066406 L 11.285156 18.078125 C 11.195312 18.125 11.152344 18.167969 11.152344 18.257812 C 10.972656 18.835938 10.972656 19.59375 11.195312 20.171875 C 11.640625 21.328125 12.710938 22.085938 13.957031 22.085938 C 14.269531 22.085938 14.582031 22.042969 14.804688 22.042969 C 14.804688 22.042969 20.503906 20.4375 20.546875 20.4375 C 22.640625 19.816406 23.175781 18.125 23.53125 17.011719 C 24.15625 14.828125 24.15625 12.601562 23.53125 10.328125 Z M 11.152344 15.851562 L 11.152344 11.265625 C 11.152344 10.996094 10.972656 10.820312 10.707031 10.820312 C 10.4375 10.820312 10.261719 10.996094 10.261719 11.265625 L 10.261719 15.007812 C 10.261719 16.164062 9.324219 17.054688 8.078125 17.054688 L 7.988281 17.054688 C 6.742188 17.054688 5.808594 16.164062 5.808594 15.007812 L 5.808594 11.265625 C 5.808594 10.996094 5.628906 10.820312 5.363281 10.820312 C 5.09375 10.820312 4.917969 10.996094 4.917969 11.265625 L 4.917969 14.515625 C 4.917969 15.453125 4.160156 16.164062 3.136719 16.164062 C 2.066406 16.164062 1.621094 15.851562 1.355469 14.871094 L 1.175781 14.027344 C 0.773438 11.710938 0.820312 9.351562 1.355469 7.078125 C 1.753906 5.742188 2.332031 5.03125 3.136719 5.03125 C 3.667969 5.03125 4.113281 5.386719 4.515625 6.144531 C 4.605469 6.277344 4.738281 6.367188 4.960938 6.367188 L 5.40625 6.367188 C 5.628906 6.367188 5.851562 6.144531 5.851562 5.921875 C 5.898438 4.71875 6.921875 3.695312 8.035156 3.695312 L 8.125 3.695312 C 9.058594 3.695312 9.636719 4.539062 9.90625 5.207031 C 9.949219 5.386719 10.128906 5.476562 10.304688 5.476562 L 10.75 5.476562 C 10.972656 5.476562 11.195312 5.253906 11.195312 5.03125 C 11.242188 3.828125 12.265625 2.804688 13.378906 2.804688 L 13.421875 2.804688 C 14.535156 2.804688 15.5625 3.828125 15.605469 5.03125 C 15.605469 5.296875 15.828125 5.476562 16.050781 5.476562 L 16.496094 5.476562 C 16.675781 5.476562 16.851562 5.34375 16.941406 5.164062 C 17.296875 4.183594 17.832031 3.695312 18.542969 3.695312 L 18.945312 3.695312 C 20.101562 3.695312 20.769531 4.898438 20.90625 5.964844 C 21.085938 6.960938 21.210938 7.808594 21.28125 8.625 C 21.390625 10.167969 21.335938 11.566406 21.082031 13.804688 L 20.90625 15.09375 C 20.726562 15.808594 20.238281 17.054688 18.855469 17.054688 L 18.457031 17.054688 C 17.34375 17.054688 16.453125 16.253906 16.453125 15.183594 L 16.453125 10.820312 C 16.453125 10.550781 16.273438 10.375 16.007812 10.375 C 15.738281 10.375 15.558594 10.550781 15.558594 10.820312 L 15.558594 15.851562 C 15.558594 17.054688 14.625 17.945312 13.378906 17.945312 L 13.332031 17.945312 C 13.304688 17.945312 13.277344 17.945312 13.25 17.945312 C 12.910156 17.929688 12.574219 17.820312 12.265625 17.675781 C 11.601562 17.316406 11.152344 16.636719 11.152344 15.851562 Z M 22.730469 16.699219 C 22.328125 17.945312 21.839844 19.058594 20.371094 19.503906 L 14.625 21.105469 C 13.511719 21.417969 12.398438 20.882812 12.042969 19.859375 C 11.910156 19.503906 11.910156 19.015625 11.996094 18.613281 L 12.109375 18.578125 C 12.496094 18.742188 12.921875 18.835938 13.378906 18.835938 L 13.46875 18.835938 C 14.734375 18.835938 15.828125 18.109375 16.289062 17.03125 C 16.78125 17.640625 17.574219 17.988281 18.5 17.988281 L 18.902344 17.988281 C 19.6875 17.988281 20.359375 17.710938 20.867188 17.183594 C 21.332031 16.722656 21.667969 16.0625 21.839844 15.230469 L 22.019531 13.894531 C 22.242188 12.246094 22.328125 10.910156 22.285156 9.4375 C 22.417969 9.75 22.597656 10.105469 22.730469 10.507812 C 23.308594 12.644531 23.308594 14.648438 22.730469 16.699219 Z M 22.730469 16.699219"/>
</svg>
