<svg xmlns="http://www.w3.org/2000/svg" width="32" height="32" viewBox="0 0 24 24">
    <path d="M22.578 8.563c.281-.598.281-1.239 0-1.801-.281-.52-.8-.88-1.398-.957-.68-.082-1.602.48-2.16 1.36l-1.122 1.718 1.2-4.36c.242-.84-.078-1.757-.797-2.199-.32-.199-.68-.32-1.082-.32-1.04 0-1.719 1-1.957 1.84l-1.242 3.68v-5.52c0-1.04-.801-1.918-1.84-2-.598-.04-1.16.16-1.559.52-.398.363-.601.882-.601 1.48v5.918l-1.2-4.277c-.277-1-.718-2.04-2-2.04-.879 0-1.597.52-1.879 1.32-.12.321-.12.68-.039 1.079l1.48 6.48c-1-1.12-2.718-1.601-4.038-1.12-.2.038-.36.16-.563.28-.597.399-.558.918-.558 1.079-.04.238 0 .28.558.918.68.8 2.16 2.48 3.082 4.16.078.082 1.14 1.812 2.328 3.129.008.027.016.054.032.078V20c0 2.2 1.797 4 4 4h3.996c1.722 0 3.52-1.441 3.879-3.121.082-.317.16-.582.25-.77.05-.058.101-.12.152-.187a.33.33 0 0 0 .05-.106c.446-.574 1.134-2.062.747-4.214-.117-.641-.078-1.68.082-2.239zm-2.918 4.44c-.043.04-.043.04-.043.079v.04c-.199.722-.199 1.878-.078 2.562.32 1.796-.2 3.199-.602 3.636-.05.059-.097.13-.144.207-.203.243-.371.293-1.094.473l-.199.04c-.2.042-.32.28-.281.48.082.16.242.28.402.28h.277l.485-.144c0 .008 0 .016-.004.024-.281 1.36-1.758 2.52-3.117 2.52h-4a3.206 3.206 0 0 1-3.2-3.2v-.023c.348.375.774.707 1.481.824h.078c.2 0 .36-.16.32-.32.04-.2-.12-.399-.32-.442-.64-.078-.96-.477-1.32-.957-.07-.094-.153-.2-.242-.305a.369.369 0 0 0-.118-.257c-1.199-1.239-2.359-3.118-2.359-3.118-.96-1.718-2.48-3.441-3.2-4.28a5.586 5.586 0 0 0-.359-.438c0-.121 0-.2.239-.403.16-.078.281-.16.402-.199 1.04-.36 2.758.121 3.52 1.441l.62.934a.406.406 0 0 0 .06.184c.277.48.796 1.242 2.116 2.12.36.2.602.4.641.88 0 .199.2.359.399.359.242 0 .402-.2.402-.36-.04-.917-.602-1.277-.961-1.519-1.23-.82-1.66-1.5-1.844-1.816l-1.914-8.5c-.082-.243-.082-.48 0-.64.16-.442.598-.759 1.117-.759.52 0 .883.239 1.2 1.438l2 7.078c.043.2.242.32.44.281.2-.039.36-.2.36-.402V2.004c0-.36.121-.68.403-.879.238-.238.558-.36.957-.32.601.039 1.082.558 1.082 1.199v7.808a.431.431 0 0 0-.043.192v.52c0 .238.16.398.402.398.238 0 .399-.16.399-.399v-.402l2-5.996c.12-.48.558-1.32 1.199-1.32.242 0 .441.078.718.199.403.242.602.8.442 1.32L16.5 11.082c-.082.2.04.402.2.48.16.083.359 0 .48-.16l2.52-3.84c.44-.718 1.077-1.039 1.398-1 .359.043.64.243.8.563.16.32.16.719 0 1.078zm0 0"/>
</svg>
