<svg xmlns="http://www.w3.org/2000/svg" width="32" height="32" viewBox="0 0 24 24">
    <path d="M20.559 14.68L17.12 16.8c-.48.278-1.562.36-2.562.36.187-.332.132-.73-.16-1.2a.369.369 0 0 0-.239-.335 3.535 3.535 0 0 0-2.719-1.266H9.88c-.84 0-1.64-.238-2.277-.718-1.446-1.082-3.704.093-4.801.796v-.835H0V24h2.8v-1.2H8c.8 0 1.64-.081 2.441-.12l5.2-.801c.199 0 .398-.04.558-.078.48-.082.922-.32 1.32-.68l6.04-4.8c.48-.4.562-1.122.203-1.602-.723-.957-1.442-.957-3.203-.04zM2 23.2H.8v-8.802H2zm21.078-7.438L17 20.48l-.04.04a1.39 1.39 0 0 1-.92.48c-.161.04-.278.04-.438.04l-5.282.8C9.56 21.96 8.762 22 8 22H2.8v-6.602c.962-.68 3.2-1.957 4.321-1.078.758.559 1.719.88 2.758.88h1.562c.918 0 1.72.402 2.278 1.16.16.242.203.48.16.562-.117.2-.598.277-1.117.316H8.44c-1.242 0-2 .602-2 1.602 0 .238.16.398.399.398.238 0 .398-.16.398-.398 0-.2 0-.8 1.203-.8H13c1.879.038 3.64 0 4.559-.481L21 15.44c1.68-.84 1.84-.64 2.16-.16.078.117.078.36-.082.48zm0 0M24 3.2V0h-8.398c-.243 0-.403.16-.403.398 0 .243.16.403.403.403h2.796v2.398h.801V4H12v4.8h.8v1.598h.4v1.204h4v-1.204h.402V8.801H24V4h-.8v-.8zM19.2.8h4v1.598h-4zm-2.802 10H14v-.402h2.398zm.403-1.198h-3.2V8.8h3.2zM23.199 8H12.801V4.8h10.398zm-.8-4H20v-.8h2.398zm0 0"/>
    <path d="M14 13.602c.238 0 .398-.16.398-.403v-.398c0-.242-.16-.403-.398-.403-.238 0-.398.16-.398.403v.398c0 .242.16.403.398.403zm0 0M13.602 14.8c0 .24.16.4.398.4.238 0 .398-.16.398-.4v-.402c0-.238-.16-.398-.398-.398-.238 0-.398.16-.398.398zm0 0M15.2 13.602c.241 0 .402-.16.402-.403v-.398c0-.242-.16-.403-.403-.403-.238 0-.398.16-.398.403v.398c0 .242.16.403.398.403zm0 0M14.8 14.8c0 .24.16.4.4.4.241 0 .402-.16.402-.4v-.402c0-.238-.16-.398-.403-.398-.238 0-.398.16-.398.398zm0 0M14.8 16.398c0 .243.16.403.4.403.241 0 .402-.16.402-.403V16c0-.238-.16-.398-.403-.398-.238 0-.398.16-.398.398zm0 0M16 14.8c0 .24.16.4.398.4.243 0 .403-.16.403-.4v-.402c0-.238-.16-.398-.403-.398-.238 0-.398.16-.398.398zm0 0M16.398 13.602c.243 0 .403-.16.403-.403v-.398c0-.242-.16-.403-.403-.403-.238 0-.398.16-.398.403v.398c0 .242.16.403.398.403zm0 0M16 16.398c0 .243.16.403.398.403.243 0 .403-.16.403-.403V16c0-.238-.16-.398-.403-.398-.238 0-.398.16-.398.398zm0 0"/>
</svg>
