<svg xmlns="http://www.w3.org/2000/svg" width="32" height="32" viewBox="0 0 24 24">
    <path d="M 19.605469 8.398438 C 19.164062 8.398438 18.726562 8.558594 18.40625 8.800781 L 18.40625 8.398438 C 18.40625 7.28125 17.527344 6.398438 16.40625 6.398438 C 15.964844 6.398438 15.527344 6.558594 15.207031 6.800781 L 15.207031 2 C 15.207031 0.878906 14.324219 0 13.207031 0 C 12.085938 0 11.207031 0.878906 11.207031 2 L 11.207031 6 C 10.886719 5.761719 10.445312 5.601562 10.003906 5.601562 C 8.886719 5.601562 8.003906 6.480469 8.003906 7.601562 L 8.003906 11.078125 C 7.125 9.558594 5.085938 8.800781 3.527344 9.359375 C 3.324219 9.398438 3.164062 9.519531 2.964844 9.640625 C 2.367188 10.039062 2.40625 10.558594 2.40625 10.71875 C 2.367188 10.960938 2.40625 11 2.964844 11.640625 C 3.644531 12.441406 5.125 14.121094 6.046875 15.800781 C 6.125 15.878906 7.207031 17.640625 8.40625 18.960938 L 8.40625 20 C 8.40625 22.199219 10.207031 24 12.40625 24 L 16.40625 24 C 18.125 24 19.925781 22.558594 20.324219 20.878906 C 20.445312 20.398438 20.566406 20.039062 20.726562 19.878906 C 21.125 19.398438 21.605469 18.28125 21.605469 16.800781 L 21.605469 10.398438 C 21.605469 9.28125 20.726562 8.398438 19.605469 8.398438 Z M 20.84375 16.800781 C 20.84375 18.03125 20.453125 18.867188 20.199219 19.222656 C 20.15625 19.25 20.117188 19.28125 20.085938 19.320312 C 19.84375 19.679688 19.644531 19.800781 18.6875 20.039062 C 18.484375 20.078125 18.367188 20.320312 18.40625 20.519531 C 18.484375 20.679688 18.644531 20.800781 18.804688 20.800781 C 18.84375 20.800781 18.886719 20.800781 18.886719 20.800781 C 19.160156 20.722656 19.386719 20.660156 19.582031 20.59375 C 19.578125 20.621094 19.570312 20.652344 19.566406 20.679688 C 19.285156 22.039062 17.804688 23.199219 16.445312 23.199219 L 12.445312 23.199219 C 10.6875 23.199219 9.246094 21.761719 9.246094 20 L 9.246094 19.636719 C 9.324219 19.695312 9.402344 19.75 9.484375 19.800781 C 9.726562 20 9.925781 20.121094 10.164062 20.320312 C 10.324219 20.480469 10.644531 20.359375 10.6875 20.238281 C 10.84375 20.078125 10.804688 19.839844 10.644531 19.679688 C 10.40625 19.441406 10.164062 19.28125 9.925781 19.121094 C 9.648438 18.921875 9.371094 18.722656 9.09375 18.488281 C 7.90625 17.246094 6.765625 15.398438 6.765625 15.398438 C 5.804688 13.679688 4.285156 11.960938 3.566406 11.121094 C 3.445312 10.960938 3.285156 10.761719 3.207031 10.679688 C 3.207031 10.558594 3.207031 10.480469 3.484375 10.320312 C 3.644531 10.238281 3.765625 10.160156 3.886719 10.121094 C 4.925781 9.761719 6.644531 10.238281 7.40625 11.558594 L 8.023438 12.488281 C 8.027344 12.511719 8.035156 12.535156 8.046875 12.558594 L 8.445312 13.359375 C 8.527344 13.519531 8.925781 13.601562 8.964844 13.519531 C 9.125 13.441406 9.207031 13.199219 9.125 13 L 8.84375 12.433594 C 8.84375 12.421875 8.84375 12.410156 8.84375 12.398438 L 8.84375 7.601562 C 8.84375 6.917969 9.367188 6.398438 10.046875 6.398438 C 10.726562 6.398438 11.246094 6.917969 11.246094 7.601562 L 11.246094 12.761719 C 11.246094 13 11.40625 13.160156 11.644531 13.160156 C 11.886719 13.160156 12.046875 13 12.046875 12.761719 L 12.046875 2 C 12.046875 1.320312 12.566406 0.800781 13.246094 0.800781 C 13.925781 0.800781 14.445312 1.320312 14.445312 2 L 14.445312 12.398438 C 14.445312 12.640625 14.605469 12.800781 14.84375 12.800781 C 15.085938 12.800781 15.246094 12.640625 15.246094 12.398438 L 15.246094 8.398438 C 15.246094 7.71875 15.765625 7.199219 16.445312 7.199219 C 17.125 7.199219 17.644531 7.71875 17.644531 8.398438 L 17.644531 12.800781 C 17.644531 13.039062 17.804688 13.199219 18.046875 13.199219 C 18.285156 13.199219 18.445312 13.039062 18.445312 12.800781 L 18.445312 10.398438 C 18.445312 9.71875 18.964844 9.199219 19.644531 9.199219 C 20.324219 9.199219 20.84375 9.71875 20.84375 10.398438 Z M 20.84375 16.800781"/>
</svg>
