<svg xmlns="http://www.w3.org/2000/svg" width="32" height="32" viewBox="0 0 24 24">
    <path d="M20.633 13.781c-.29-.332-.703-.5-1.16-.582l.293-.289c.37-.414.578-.992.578-1.531 0-.54-.25-1.074-.621-1.45a1.758 1.758 0 0 0-1.16-.577c.414-.372.62-.91.62-1.45 0-.535-.245-1.074-.62-1.445-.29-.332-.704-.5-1.157-.582l2.317-2.36c.414-.37.62-.91.62-1.445 0-.539-.25-1.035-.62-1.449-.371-.414-.91-.621-1.45-.621-.539 0-1.074.25-1.449.621l-6.617 6.66c.453-1.777-.5-3.847-2.031-4.55a2.237 2.237 0 0 0-.617-.208c-.747-.125-1.079.25-1.204.375-.164.122-.164.204-.246 1.075-.082 1.117-.25 3.433-.785 5.336 0 .086-.5 2.195-.582 4.015l-.785.746a4.119 4.119 0 0 0 0 5.832l2.938 2.938c.746.746 1.863 1.16 2.98 1.16.785 0 1.531-.207 2.152-.578.414-.29.786-.457 1.032-.457.664-.04 1.824-.496 2.898-1.57l4.676-4.72c.414-.37.62-.91.62-1.448 0-.536-.25-1.075-.62-1.446zm-.578 2.356l-4.676 4.675a5.232 5.232 0 0 1-1.39 1.008.48.48 0 0 0-.223.028c-.582.289-1.118.043-2.07-.496-.208-.082-.458-.043-.579.164-.086.207-.043.457.164.582.239.148.477.285.715.402a4.315 4.315 0 0 0-.383.219c-1.203.742-3.144.535-4.14-.457l-2.938-2.938a3.324 3.324 0 0 1 0-4.676l.27-.27c.02.2.047.395.062.602.043.247.043.497.082.743.043.207.207.375.414.375.25-.043.414-.25.414-.375a5.41 5.41 0 0 0-.082-.786c-.043-.453-.125-.953-.125-1.406a.41.41 0 0 0-.035-.172c.063-1.793.574-3.882.574-3.882.579-1.946.743-4.305.829-5.461 0-.207.039-.457.039-.582.082-.082.168-.125.414-.082.168.043.289.082.414.125 1.035.496 1.945 2.152 1.53 3.64L9.09 8.441c-.008.024-.008.047-.012.07l-.238.716a.416.416 0 0 0 .25.539c.039.043.082.043.12.043.169 0 .333-.125.415-.293l.27-.805 7.55-7.512c.457-.453 1.285-.453 1.739 0 .25.207.375.54.375.871 0 .328-.125.621-.375.868l-4.633 4.8-3.602 3.602a.401.401 0 0 0 0 .578.381.381 0 0 0 .29.125c.124 0 .206 0 .292-.125l3.598-3.602 1.16-1.156c.207-.25.535-.375.867-.375.332 0 .621.168.871.375.246.207.371.535.371.867 0 .332-.125.621-.37.871l-1.16 1.157-3.31 3.312a.395.395 0 0 0 0 .578.375.375 0 0 0 .29.125.375.375 0 0 0 .289-.125l3.308-3.312c.457-.453 1.285-.453 1.739 0 .25.207.375.539.375.87 0 .333-.125.622-.375.868l-1.446 1.45a.434.434 0 0 0-.093.132l-2.02 2.02a.401.401 0 0 0 0 .578.381.381 0 0 0 .29.125c.124 0 .25-.043.331-.125l2.11-2.153a.295.295 0 0 0 .074-.097c.472-.352 1.203-.32 1.625.097.246.207.37.54.37.872 0 .332-.124.62-.37.867zm0 0"/>
</svg>
