<svg xmlns="http://www.w3.org/2000/svg" width="32" height="32" viewBox="0 0 24 24">
    <path d="M22.398438 3.601562L17.28125 3.601562C18.121094 2.960938 18.519531 1.71875 18.160156.800781 18.078125.640625 18 .519531 17.921875.441406 17.640625 0 17.28125 0 17.121094 0 16.960938 0 16.878906.078125 16.480469.398438 16 .839844 14.960938 1.71875 13.921875 2.28125 13.878906 2.320312 12.761719 2.878906 11.839844 3.601562L11.199219 3.601562C9.839844 3.640625 8.800781 5.28125 8.800781 6.71875L8.800781 9.199219C8.800781 10.28125 9.601562 11.199219 10.800781 11.480469 11.199219 11.558594 11.320312 11.640625 11.359375 11.679688 11.679688 11.960938 12.359375 12.398438 13.320312 12.398438 17.039062 12.398438 18.839844 12.320312 18.839844 10.761719 18.839844 10.601562 18.800781 10.441406 18.761719 10.320312 19.398438 10.199219 20 9.640625 20 8.960938 20 8.71875 19.921875 8.519531 19.800781 8.359375 20.480469 8.28125 21.199219 7.679688 21.199219 6.960938 21.199219 6.761719 21.121094 6.558594 21.039062 6.398438L22.398438 6.398438C23.121094 6.398438 24 5.800781 24 5 24 4.199219 23.160156 3.601562 22.398438 3.601562zM22.398438 5.601562L15.640625 5.601562C15.398438 5.601562 15.238281 5.761719 15.238281 6 15.238281 6.238281 15.398438 6.398438 15.640625 6.398438L19.679688 6.398438C20.039062 6.398438 20.441406 6.640625 20.441406 6.960938 20.441406 7.28125 20 7.601562 19.640625 7.601562L18.441406 7.601562C18.433594 7.601562 18.425781 7.601562 18.421875 7.601562 18.414062 7.601562 18.40625 7.601562 18.398438 7.601562L16 7.601562C15.761719 7.601562 15.601562 7.761719 15.601562 8 15.601562 8.238281 15.761719 8.398438 16 8.398438L18.398438 8.398438C18.40625 8.398438 18.414062 8.398438 18.421875 8.398438 18.425781 8.398438 18.433594 8.398438 18.441406 8.398438 18.679688 8.398438 19.238281 8.679688 19.238281 9 19.238281 9.359375 18.761719 9.601562 18.441406 9.601562L17.640625 9.601562C17.632812 9.601562 17.625 9.601562 17.621094 9.601562 17.613281 9.601562 17.605469 9.601562 17.601562 9.601562L15.601562 9.601562C15.359375 9.601562 15.199219 9.761719 15.199219 10 15.199219 10.238281 15.359375 10.398438 15.601562 10.398438L17.601562 10.398438C17.605469 10.398438 17.613281 10.398438 17.621094 10.398438 17.625 10.398438 17.632812 10.398438 17.640625 10.398438 17.960938 10.398438 18.078125 10.640625 18.078125 10.800781 18.078125 11.480469 16.679688 11.601562 13.320312 11.601562 12.992188 11.601562 12.71875 11.535156 12.492188 11.4375 12.457031 11.394531 12.414062 11.351562 12.359375 11.320312 12.078125 11.160156 11.71875 10.761719 11.601562 10.28125 11.558594 10.078125 11.320312 9.960938 11.121094 10 10.921875 10.039062 10.800781 10.28125 10.839844 10.480469 10.851562 10.539062 10.867188 10.59375 10.882812 10.648438 10.269531 10.464844 9.601562 10.027344 9.601562 9.199219L9.601562 6.71875C9.601562 5.6875 10.3125 4.414062 11.183594 4.402344 11.078125 4.5625 10.972656 4.75 10.839844 5 10.71875 5.199219 10.800781 5.441406 11 5.558594 11.082031 5.601562 11.121094 5.601562 11.199219 5.601562 11.359375 5.601562 11.480469 5.519531 11.558594 5.359375 11.878906 4.800781 11.960938 4.640625 12.28125 4.320312 12.304688 4.292969 12.328125 4.265625 12.34375 4.234375 13.210938 3.554688 14.28125 3 14.320312 3 15.441406 2.398438 16.519531 1.441406 17.039062 1 17.121094.921875 17.199219.839844 17.238281.800781 17.238281.839844 17.28125.839844 17.28125.878906 17.359375.960938 17.359375 1.039062 17.398438 1.078125 17.640625 1.679688 17.320312 2.679688 16.558594 3.121094L15.761719 3.679688C15.699219 3.710938 15.65625 3.757812 15.628906 3.8125L15.320312 4.121094C15.160156 4.28125 15.160156 4.519531 15.320312 4.679688 15.398438 4.761719 15.480469 4.800781 15.601562 4.800781 15.71875 4.800781 15.800781 4.761719 15.878906 4.679688L16.160156 4.398438 22.398438 4.398438C22.761719 4.398438 23.199219 4.679688 23.199219 5 23.199219 5.28125 22.761719 5.601562 22.398438 5.601562zM12.839844 15.199219L12.160156 15.199219C11.238281 14.480469 10.121094 13.921875 10.078125 13.921875 9.078125 13.359375 8.039062 12.441406 7.519531 12 7.160156 11.640625 7.078125 11.558594 6.878906 11.601562 6.761719 11.601562 6.359375 11.601562 6.078125 12.039062 6 12.121094 5.921875 12.238281 5.878906 12.398438 5.519531 13.320312 5.921875 14.558594 6.761719 15.199219L1.601562 15.199219C.839844 15.199219 0 15.800781 0 16.601562 0 17.398438.878906 18 1.601562 18L2.960938 18C2.839844 18.160156 2.800781 18.359375 2.800781 18.558594 2.800781 19.320312 3.519531 19.878906 4.199219 20 4.078125 20.160156 4 20.359375 4 20.601562 4 21.28125 4.601562 21.800781 5.199219 21.960938 5.160156 22.121094 5.121094 22.238281 5.121094 22.398438 5.121094 23.921875 6.921875 24 10.679688 24 11.679688 24 12.320312 23.558594 12.679688 23.28125 12.71875 23.28125 12.839844 23.160156 13.238281 23.078125 14.441406 22.800781 15.238281 21.878906 15.238281 20.800781L15.238281 18.320312C15.238281 16.839844 14.199219 15.199219 12.839844 15.199219zM14.441406 20.800781C14.441406 21.652344 13.730469 22.089844 13.105469 22.261719 13.125 22.203125 13.144531 22.144531 13.160156 22.078125 13.238281 21.878906 13.078125 21.640625 12.878906 21.601562 12.679688 21.519531 12.441406 21.679688 12.398438 21.878906 12.28125 22.359375 11.921875 22.761719 11.640625 22.921875 11.574219 22.957031 11.523438 23.011719 11.488281 23.070312 11.269531 23.148438 11.015625 23.199219 10.71875 23.199219 7.359375 23.199219 5.960938 23.078125 5.960938 22.398438 5.960938 22.238281 6.078125 22 6.398438 22L8.398438 22C8.640625 22 8.800781 21.839844 8.800781 21.601562 8.800781 21.359375 8.640625 21.199219 8.398438 21.199219L5.601562 21.199219C5.28125 21.199219 4.800781 20.960938 4.800781 20.601562 4.800781 20.28125 5.359375 20 5.601562 20L8 20C8.238281 20 8.398438 19.839844 8.398438 19.601562 8.398438 19.359375 8.238281 19.199219 8 19.199219L4.398438 19.199219C4.039062 19.199219 3.601562 18.839844 3.601562 18.558594 3.601562 18.28125 4 18 4.359375 18L8.359375 18C8.558594 18 8.761719 17.839844 8.761719 17.601562 8.761719 17.359375 8.601562 17.199219 8.359375 17.199219L1.601562 17.199219C1.238281 17.199219.800781 16.878906.800781 16.640625.800781 16.320312 1.238281 16.039062 1.601562 16.039062L7.921875 16.039062 8.121094 16.238281C8.199219 16.320312 8.28125 16.359375 8.398438 16.359375 8.519531 16.359375 8.601562 16.320312 8.679688 16.238281 8.839844 16.078125 8.839844 15.839844 8.679688 15.679688L8.421875 15.421875C8.394531 15.386719 8.363281 15.351562 8.320312 15.320312L8.28125 15.28125C8.234375 15.234375 8.183594 15.203125 8.128906 15.183594L7.480469 14.71875C6.761719 14.320312 6.441406 13.320312 6.679688 12.71875 6.71875 12.679688 6.761719 12.601562 6.800781 12.519531 6.800781 12.480469 6.839844 12.441406 6.839844 12.441406 6.878906 12.519531 6.960938 12.558594 7.039062 12.640625 7.558594 13.078125 8.640625 14.039062 9.761719 14.640625 9.761719 14.640625 10.761719 15.125 11.613281 15.773438 11.628906 15.839844 11.664062 15.90625 11.71875 15.960938 12.039062 16.28125 12.121094 16.441406 12.441406 17 12.519531 17.121094 12.640625 17.199219 12.800781 17.199219 12.878906 17.199219 12.921875 17.160156 13 17.199219 13.199219 17.078125 13.28125 16.839844 13.160156 16.640625 12.996094 16.371094 12.882812 16.171875 12.769531 16L12.839844 16C13.71875 16.039062 14.441406 17.28125 14.441406 18.320312zM14.441406 20.800781"/>
</svg>
