<svg xmlns="http://www.w3.org/2000/svg" width="32" height="32" viewBox="0 0 24 24">
    <path d="M 17.355469 3.257812 L 17.355469 1.714844 C 17.355469 0.769531 16.585938 0 15.644531 0 L 7.886719 0 C 6.941406 0 6.214844 0.769531 6.214844 1.714844 L 6.214844 3.300781 C 4.972656 4.972656 4.929688 5.570312 4.929688 8.570312 C 4.929688 10.15625 5.355469 11.957031 5.441406 12.472656 C 5.1875 13.457031 5.699219 14.484375 6.6875 14.828125 C 7.035156 14.933594 7.382812 14.953125 7.710938 14.886719 C 7.785156 14.875 7.859375 14.859375 7.929688 14.839844 C 7.933594 15.605469 8.445312 16.328125 9.214844 16.585938 L 9.300781 16.628906 C 9.699219 16.75 10.117188 16.742188 10.496094 16.617188 C 10.582031 16.59375 10.667969 16.570312 10.757812 16.542969 C 10.816406 16.511719 10.878906 16.476562 10.933594 16.441406 C 11.117188 17.328125 11.921875 18 12.855469 18 C 13.242188 18 13.628906 17.871094 13.929688 17.65625 L 13.929688 22.070312 C 13.929688 23.144531 14.785156 24 15.855469 24 C 16.929688 24 17.785156 23.144531 17.785156 22.070312 L 17.785156 10.070312 C 18.941406 9.171875 19.070312 8.230469 19.070312 6.898438 L 19.070312 6.855469 C 19.070312 5.058594 17.828125 3.6875 17.355469 3.257812 Z M 11.878906 9.359375 C 11.273438 10.140625 10.816406 10.867188 10.628906 11.355469 C 10.582031 11.46875 10.546875 11.589844 10.527344 11.710938 C 10.445312 12.128906 10.511719 12.542969 10.6875 12.890625 C 10.839844 13.246094 11.070312 13.566406 11.355469 13.800781 L 10.886719 15.171875 C 10.800781 15.429688 10.628906 15.644531 10.371094 15.769531 C 10.15625 15.898438 9.855469 15.898438 9.601562 15.8125 L 9.515625 15.769531 C 9.257812 15.6875 9.042969 15.515625 8.914062 15.257812 C 8.898438 15.230469 8.886719 15.203125 8.878906 15.171875 C 8.804688 14.960938 8.796875 14.722656 8.871094 14.484375 L 9.171875 13.628906 L 10.503906 9.667969 L 10.542969 9.558594 C 10.757812 9 11.3125 8.742188 11.871094 8.914062 L 11.957031 8.957031 C 12 8.957031 12.082031 9 12.125 9.039062 C 12.042969 9.148438 11.960938 9.253906 11.878906 9.359375 Z M 9.898438 8.871094 L 8.742188 12.214844 L 8.347656 13.347656 C 8.128906 13.890625 7.535156 14.140625 6.984375 13.972656 C 6.429688 13.800781 6.128906 13.199219 6.34375 12.601562 C 6.34375 12.558594 6.351562 12.515625 6.359375 12.472656 L 7.84375 8.1875 C 7.929688 7.929688 8.144531 7.714844 8.398438 7.585938 C 8.527344 7.5 8.699219 7.457031 8.871094 7.457031 C 9 7.457031 9.085938 7.5 9.257812 7.5 C 9.515625 7.585938 9.730469 7.800781 9.855469 8.058594 C 9.984375 8.3125 9.984375 8.613281 9.898438 8.871094 Z M 13.714844 16.84375 C 13.5 17.015625 13.242188 17.144531 12.941406 17.144531 C 12.34375 17.144531 11.828125 16.671875 11.828125 16.070312 L 11.828125 15.898438 L 11.957031 14.914062 C 11.957031 14.871094 11.953125 14.824219 11.941406 14.785156 L 12.300781 13.757812 C 12.308594 13.738281 12.3125 13.71875 12.316406 13.699219 C 12.699219 13.660156 13.140625 13.503906 13.671875 13.113281 C 13.769531 13.054688 13.886719 12.976562 14.015625 12.890625 L 14.015625 16.15625 C 14.015625 16.414062 13.886719 16.671875 13.714844 16.84375 Z M 15.855469 23.144531 C 15.257812 23.144531 14.785156 22.671875 14.785156 22.070312 L 14.785156 16.15625 C 14.785156 16.113281 14.785156 16.113281 14.871094 16.113281 L 14.871094 12.472656 C 14.871094 12.40625 14.859375 12.347656 14.839844 12.296875 C 15.476562 11.828125 16.222656 11.253906 16.929688 10.71875 L 16.929688 22.070312 C 16.929688 22.671875 16.457031 23.144531 15.855469 23.144531 Z M 18.214844 6.855469 C 18.214844 8.144531 18.128906 8.785156 17.144531 9.472656 L 17.101562 9.515625 C 15.730469 10.542969 13.929688 11.957031 13.199219 12.429688 C 12.515625 12.855469 11.957031 12.984375 11.613281 12.730469 C 11.570312 12.691406 11.53125 12.644531 11.496094 12.59375 C 11.367188 12.296875 11.335938 11.960938 11.441406 11.699219 C 11.65625 11.1875 12.257812 10.285156 13.070312 9.300781 C 13.121094 9.234375 13.152344 9.160156 13.164062 9.085938 C 14.128906 7.945312 15.207031 6.898438 15.730469 6.6875 C 15.941406 6.601562 16.027344 6.34375 15.941406 6.128906 C 15.855469 5.914062 15.601562 5.828125 15.386719 5.914062 C 14.761719 6.183594 13.671875 7.214844 12.679688 8.367188 C 12.546875 8.277344 12.402344 8.203125 12.257812 8.144531 L 12.171875 8.101562 C 11.679688 7.929688 11.164062 7.972656 10.730469 8.179688 C 10.597656 7.53125 10.128906 6.957031 9.472656 6.730469 C 9 6.558594 8.484375 6.601562 8.015625 6.8125 C 7.542969 7.070312 7.199219 7.457031 7.027344 7.929688 L 6.019531 10.847656 C 5.894531 10.160156 5.785156 9.332031 5.785156 8.570312 C 5.785156 5.570312 5.828125 5.230469 6.984375 3.6875 C 7.070312 3.601562 7.070312 3.472656 7.070312 3.386719 L 7.070312 1.714844 C 7.070312 1.242188 7.457031 0.855469 7.886719 0.855469 L 15.644531 0.855469 C 16.113281 0.855469 16.5 1.242188 16.5 1.714844 L 16.5 3.429688 C 16.5 3.558594 16.542969 3.6875 16.671875 3.769531 C 16.671875 3.769531 18.171875 5.058594 18.214844 6.8125 Z M 18.214844 6.855469"/>
</svg>
