<svg xmlns="http://www.w3.org/2000/svg" width="32" height="32" viewBox="0 0 24 24">
    <path d="M23.597656 20.863281L19.894531 17.15625C20.941406 17.277344 22.109375 16.714844 22.511719 15.789062 22.589844 15.628906 22.589844 15.507812 22.632812 15.386719 22.710938 14.863281 22.46875 14.621094 22.347656 14.5 22.269531 14.339844 22.148438 14.339844 21.625 14.296875 20.941406 14.257812 19.53125 14.136719 18.402344 13.816406 18.324219 13.816406 17.113281 13.492188 15.988281 13.453125L15.585938 13.050781C14.5 12.003906 12.6875 12.367188 11.679688 13.371094L9.90625 15.144531C9.101562 15.949219 9.023438 17.117188 9.667969 18.164062 9.867188 18.527344 9.90625 18.6875 9.90625 18.726562 9.917969 18.835938 9.9375 18.972656 9.976562 19.128906 9.984375 19.226562 10 19.324219 10.027344 19.414062 10.042969 19.441406 10.0625 19.472656 10.085938 19.5 10.210938 19.855469 10.429688 20.253906 10.792969 20.621094 12.164062 21.988281 13.089844 22.875 13.8125 23.359375 14.136719 23.558594 14.539062 23.800781 14.980469 23.800781 15.261719 23.800781 15.546875 23.679688 15.828125 23.398438 15.90625 23.316406 15.988281 23.15625 16.066406 23.035156 16.308594 23.195312 16.550781 23.277344 16.792969 23.277344 17.195312 23.316406 17.558594 23.15625 17.839844 22.875 18 22.714844 18.121094 22.550781 18.160156 22.351562 18.726562 22.835938 19.613281 22.835938 20.136719 22.3125 20.296875 22.148438 20.375 21.988281 20.457031 21.789062L21.585938 22.875C22.148438 23.4375 23.035156 23.4375 23.597656 22.875 23.839844 22.59375 24 22.230469 24 21.867188 24 21.464844 23.878906 21.144531 23.597656 20.863281zM22.992188 22.351562C22.75 22.59375 22.390625 22.59375 22.148438 22.351562L19.335938 19.539062C19.316406 19.496094 19.289062 19.449219 19.25 19.410156L17.234375 17.398438C17.074219 17.238281 16.832031 17.238281 16.671875 17.398438 16.511719 17.558594 16.511719 17.800781 16.671875 17.960938L18.636719 19.929688C18.65625 19.972656 18.6875 20.015625 18.726562 20.054688L19.570312 20.902344C19.8125 21.144531 19.851562 21.546875 19.613281 21.789062 19.492188 21.910156 19.328125 21.949219 19.167969 21.949219 19.007812 21.949219 18.847656 21.867188 18.726562 21.746094L17.878906 20.902344 16.148438 19.171875C15.988281 19.007812 15.746094 19.007812 15.585938 19.171875 15.425781 19.332031 15.425781 19.574219 15.585938 19.734375L17.1875 21.335938C17.207031 21.382812 17.238281 21.425781 17.277344 21.464844 17.398438 21.585938 17.519531 22.070312 17.277344 22.3125 17.113281 22.433594 16.953125 22.472656 16.832031 22.472656 16.671875 22.472656 16.511719 22.390625 16.390625 22.269531L14.417969 20.296875C14.257812 20.136719 14.015625 20.136719 13.855469 20.296875 13.691406 20.457031 13.691406 20.699219 13.855469 20.863281L15.261719 22.269531C15.542969 22.550781 15.304688 22.792969 15.261719 22.835938 15.140625 22.957031 14.941406 23.15625 14.214844 22.671875 13.570312 22.230469 12.644531 21.34375 11.316406 20.015625 11.050781 19.769531 10.898438 19.5 10.8125 19.265625 10.8125 19.234375 10.804688 19.203125 10.792969 19.171875 10.753906 18.886719 10.792969 18.40625 11.074219 17.921875 11.15625 17.722656 11.117188 17.480469 10.914062 17.359375 10.714844 17.277344 10.472656 17.320312 10.351562 17.519531 10.324219 17.570312 10.300781 17.621094 10.277344 17.671875 9.914062 16.988281 9.980469 16.28125 10.472656 15.789062L12.242188 14.015625C12.96875 13.292969 14.257812 12.96875 14.980469 13.695312L15.503906 14.21875C15.585938 14.296875 15.664062 14.339844 15.785156 14.339844 16.832031 14.339844 18.160156 14.660156 18.160156 14.660156 19.371094 14.984375 20.820312 15.105469 21.503906 15.144531 21.625 15.144531 21.703125 15.144531 21.785156 15.144531 21.785156 15.144531 21.785156 15.183594 21.785156 15.226562 21.746094 15.34375 21.746094 15.425781 21.703125 15.464844 21.421875 16.03125 20.539062 16.511719 19.691406 16.3125L19.652344 16.3125 18.726562 16.191406C18.671875 16.175781 18.613281 16.179688 18.5625 16.191406L18.121094 16.191406C17.878906 16.191406 17.71875 16.351562 17.71875 16.59375 17.71875 16.835938 17.878906 16.996094 18.121094 16.996094L18.523438 16.996094 22.992188 21.503906C23.074219 21.585938 23.15625 21.746094 23.15625 21.90625 23.15625 22.070312 23.113281 22.230469 22.992188 22.351562zM11.597656 10.394531C11.597656 9.667969 11.316406 8.984375 10.792969 8.460938L10.390625 8.058594C10.351562 6.972656 10.027344 5.722656 10.027344 5.640625 9.707031 4.515625 9.585938 3.144531 9.546875 2.460938 9.503906 1.976562 9.503906 1.859375 9.34375 1.738281 9.222656 1.617188 8.980469 1.335938 8.457031 1.453125 8.296875 1.496094 8.175781 1.535156 8.054688 1.574219 7.332031 1.898438 6.847656 2.785156 6.769531 3.953125 6.769531 4.070312 6.769531 4.152344 6.769531 4.273438L3.144531.648438C2.863281.367188 2.539062.207031 2.136719.207031 1.773438.167969 1.414062.289062 1.132812.570312.847656.851562.6875 1.253906.6875 1.65625.726562 2.019531.890625 2.382812 1.132812 2.621094L2.21875 3.710938C2.015625 3.789062 1.855469 3.910156 1.695312 4.070312 1.171875 4.59375 1.132812 5.441406 1.695312 6.046875 1.492188 6.085938 1.292969 6.207031 1.132812 6.367188.847656 6.648438.726562 7.011719.726562 7.375.726562 7.574219.769531 7.734375.847656 7.9375.6875 7.976562.527344 8.058594.40625 8.179688-.320312 8.902344.0859375 9.667969.40625 10.191406.847656 10.875 1.734375 11.800781 3.105469 13.171875 3.828125 13.855469 4.714844 14.097656 5.117188 14.136719 5.160156 14.152344 5.207031 14.164062 5.25 14.167969 5.347656 14.199219 5.492188 14.261719 5.679688 14.378906 6.164062 14.703125 6.769531 14.902344 7.371094 14.902344 7.894531 14.902344 8.417969 14.703125 8.863281 14.257812L10.792969 12.324219C11.316406 11.800781 11.597656 11.117188 11.597656 10.394531zM8.296875 13.734375C7.816406 14.21875 7.039062 14.140625 6.421875 13.855469 6.582031 13.726562 6.632812 13.511719 6.527344 13.332031 6.40625 13.132812 6.164062 13.050781 5.960938 13.171875 5.722656 13.300781 5.613281 13.363281 5.515625 13.382812 5.40625 13.347656 5.300781 13.332031 5.199219 13.332031 4.957031 13.332031 4.269531 13.171875 3.707031 12.609375 2.417969 11.320312 1.535156 10.394531 1.128906 9.75.6875 9.066406.847656 8.902344 1.011719 8.742188 1.050781 8.742188 1.128906 8.703125 1.292969 8.703125 1.410156 8.703125 1.523438 8.746094 1.625 8.8125 1.644531 8.84375 1.667969 8.875 1.695312 8.902344L2.863281 10.03125C2.941406 10.113281 3.023438 10.152344 3.144531 10.152344 3.222656 10.152344 3.34375 10.113281 3.386719 10.03125 3.546875 9.871094 3.546875 9.628906 3.386719 9.46875L2.386719 8.46875C2.367188 8.421875 2.335938 8.378906 2.296875 8.339844L1.734375 7.734375C1.613281 7.65625 1.535156 7.496094 1.535156 7.332031 1.535156 7.210938 1.535156 7.050781 1.695312 6.890625 1.855469 6.730469 2.058594 6.730469 2.175781 6.730469 2.378906 6.769531 2.539062 6.851562 2.582031 6.890625L3.988281 8.339844C4.070312 8.421875 4.152344 8.460938 4.269531 8.460938 4.390625 8.460938 4.472656 8.421875 4.554688 8.300781 4.714844 8.136719 4.714844 7.898438 4.554688 7.734375L3.144531 6.328125 2.257812 5.480469C2.058594 5.28125 1.976562 4.917969 2.257812 4.636719 2.539062 4.355469 2.941406 4.433594 3.144531 4.636719L3.707031 5.199219C3.746094 5.238281 3.789062 5.265625 3.835938 5.289062L5.71875 7.171875C5.800781 7.253906 5.882812 7.292969 6.003906 7.292969 6.082031 7.292969 6.203125 7.253906 6.285156 7.171875 6.445312 7.011719 6.445312 6.769531 6.285156 6.609375L4.269531 4.59375C4.234375 4.554688 4.1875 4.527344 4.144531 4.507812L1.695312 2.058594C1.574219 1.9375 1.535156 1.777344 1.492188 1.617188 1.492188 1.453125 1.574219 1.292969 1.695312 1.171875 1.816406 1.011719 1.976562 1.011719 2.097656 1.011719 2.296875 1.011719 2.460938 1.09375 2.582031 1.214844L7.070312 5.664062 7.332031 6.449219C7.371094 6.609375 7.53125 6.730469 7.695312 6.730469 7.734375 6.730469 7.773438 6.730469 7.855469 6.6875 8.054688 6.609375 8.175781 6.367188 8.097656 6.164062L7.816406 5.320312C7.796875 5.277344 7.773438 5.238281 7.742188 5.203125L7.574219 4.59375C7.53125 4.355469 7.53125 4.152344 7.53125 3.953125 7.613281 3.308594 7.855469 2.5 8.378906 2.261719 8.457031 2.21875 8.539062 2.179688 8.621094 2.179688 8.660156 2.179688 8.699219 2.179688 8.699219 2.179688 8.699219 2.261719 8.699219 2.339844 8.699219 2.460938 8.742188 3.144531 8.863281 4.59375 9.183594 5.804688 9.222656 5.84375 9.503906 7.171875 9.546875 8.21875 9.546875 8.699219 9.539062 9.398438 9.304688 9.828125 9.183594 10.03125 9.265625 10.273438 9.464844 10.394531 9.546875 10.433594 9.585938 10.433594 9.667969 10.433594 9.828125 10.433594 9.949219 10.351562 10.027344 10.191406 10.191406 9.886719 10.273438 9.515625 10.3125 9.152344 10.621094 9.503906 10.792969 9.953125 10.792969 10.433594 10.792969 10.957031 10.59375 11.441406 10.230469 11.800781zM8.296875 13.734375"/>
</svg>
