<svg xmlns="http://www.w3.org/2000/svg" width="32" height="32" viewBox="0 0 24 24">
    <path d="M12.64 11.684c.04 0 .16-.118.56-.2 1.198-.28 2-1.199 2-2.277v-2.48c0-1.48-1.04-3.118-2.4-3.118h-.679c-.922-.722-2.039-1.28-2.082-1.28C9.043 1.768 8 .847 7.48.41 7.121.05 7.043-.03 6.844.008c-.121 0-.48 0-.762.441-.078.121-.16.238-.2.36-.359.96.04 2.16.88 2.8H1.605c-.761 0-1.601.598-1.601 1.399 0 .8.879 1.398 1.601 1.398h1.36c-.121.16-.16.36-.16.559 0 .762.718 1.32 1.398 1.441-.121.16-.2.36-.2.598 0 .684.599 1.203 1.2 1.363-.039.156-.082.278-.082.438 0 1.52 1.8 1.601 5.559 1.601 1 0 1.64-.441 1.96-.722zm-6.68-.88c0-.16.122-.398.442-.398h2c.239 0 .399-.16.399-.402 0-.238-.16-.399-.399-.399h-2.8c-.32 0-.797-.238-.797-.597 0-.32.558-.602.797-.602H8c.242 0 .402-.16.402-.398 0-.242-.16-.403-.402-.403H4.402c-.359 0-.8-.359-.8-.64 0-.277.402-.559.761-.559h4a.4.4 0 0 0 .399-.398c0-.242-.16-.403-.399-.403H1.605c-.363 0-.8-.316-.8-.597 0-.32.437-.602.8-.602h6.278l.238.242c.082.079.16.122.281.122.118 0 .2-.043.278-.122a.39.39 0 0 0 0-.562l-.258-.258a.5.5 0 0 0-.102-.101l-.039-.04a.46.46 0 0 0-.152-.097l-.649-.461c-.718-.442-1.039-1.399-.796-2 .039-.04.078-.121.117-.2 0-.038.043-.081.043-.081.039.082.117.12.199.203.52.437 1.598 1.398 2.719 1.996 0 0 1.004.484 1.851 1.133.016.066.051.133.106.187.32.32.402.48.722 1.04.079.12.2.198.36.198.199 0 .48-.359.36-.558-.165-.27-.278-.469-.391-.64h.07c.879.042 1.598 1.28 1.598 2.32v2.48c0 .852-.711 1.29-1.336 1.461.023-.059.043-.121.058-.184.078-.199-.082-.437-.281-.48-.2-.078-.438.082-.48.281-.118.48-.477.88-.758 1.04a.428.428 0 0 0-.153.148 2.26 2.26 0 0 1-.77.132c-3.355 0-4.757-.12-4.757-.8zm0 0M22.395 15.203h-5.157c.84-.64 1.239-1.879.88-2.797-.04-.12-.122-.242-.2-.363-.281-.438-.64-.438-.8-.438-.161 0-.24.079-.641.399-.52.402-1.559 1.32-2.559 1.879-.04.043-1.16.601-2.078 1.32h-.64c-1.36.04-2.4 1.68-2.4 3.117v2.48c0 1.079.802 2 2 2.282.4.078.52.16.56.2.32.277 1 .718 1.96.718 3.72 0 5.516-.078 5.516-1.64 0-.16-.04-.32-.078-.438.64-.121 1.238-.68 1.238-1.36a.975.975 0 0 0-.2-.601c.68-.078 1.4-.68 1.4-1.398 0-.2-.079-.399-.16-.56h1.359c.722 0 1.601-.6 1.601-1.401 0-.797-.84-1.399-1.601-1.399zm0 2h-6.758c-.239 0-.399.16-.399.399 0 .242.16.402.399.402h4.039c.36 0 .762.238.762.558 0 .32-.442.641-.801.641H16c-.242 0-.402.16-.402.399 0 .238.16.398.402.398h2.438c.238 0 .8.281.8.602 0 .359-.48.597-.8.597h-.801c-.004 0-.012.004-.02.004s-.012-.004-.02-.004h-2c-.238 0-.398.16-.398.403 0 .238.16.398.399.398h2.039c.32 0 .441.242.441.402 0 .68-1.398.797-4.758.797a2.14 2.14 0 0 1-.828-.16.429.429 0 0 0-.133-.117c-.28-.16-.64-.563-.757-1.043-.043-.2-.282-.317-.48-.277-.2.039-.321.277-.282.48.012.055.027.113.043.168-.61-.184-1.281-.621-1.281-1.45v-2.48c0-1.03.71-2.3 1.585-2.316-.109.164-.214.348-.347.598-.121.203-.04.441.16.562.082.04.121.04.2.04.16 0 .28-.083.359-.243.32-.559.402-.719.722-1.04a.415.415 0 0 0 .063-.081c.867-.684 1.937-1.235 1.976-1.235 1.117-.601 2.2-1.562 2.72-2 .077-.082.16-.16.198-.199 0 0 .04.04.04.078.081.079.081.16.12.2.239.601-.082 1.601-.84 2.039l-.8.562a.275.275 0 0 0-.13.13l-.308.308a.385.385 0 0 0 0 .558c.078.082.16.121.278.121.12 0 .199-.039.28-.12l.282-.278h6.235c.359 0 .8.277.8.598 0 .28-.441.601-.8.601zm0 0"/>
</svg>
