<svg xmlns="http://www.w3.org/2000/svg" width="32" height="32" viewBox="0 0 24 24">
    <path d="M19.605 8.398c-.44 0-.878.16-1.199.403v-.403c0-1.117-.879-2-2-2-.441 0-.879.16-1.199.403 0-1.121-.883-2-2-2-.441 0-.883.16-1.203.398V2c0-1.121-.879-2-2-2-1.117 0-2 .879-2 2v9.078c-.879-1.52-2.918-2.277-4.477-1.719-.203.04-.363.16-.562.282-.598.398-.559.918-.559 1.078-.039.242 0 .281.559.922.68.8 2.16 2.48 3.082 4.16.078.078 1.16 1.84 2.36 3.16V20c0 2.2 1.8 4 4 4h4c1.718 0 3.519-1.441 3.917-3.121.121-.48.242-.84.403-1 .398-.48.878-1.598.878-3.078v-6.403c0-1.117-.878-2-2-2zM16.445 23.2h-4A3.208 3.208 0 0 1 9.246 20v-.316c.133.109.27.214.399.316.16.16.359.32.562.48a.57.57 0 0 0 .238.079c.121 0 .242-.04.32-.16.16-.16.122-.399-.038-.56-.2-.16-.403-.32-.602-.48-.352-.273-.703-.547-1.016-.855-1.195-1.242-2.343-3.106-2.343-3.106-.961-1.718-2.48-3.437-3.2-4.277a6.661 6.661 0 0 0-.359-.441c0-.121 0-.2.277-.36.16-.082.282-.16.403-.199 1.039-.36 2.758.117 3.52 1.438l.616.93a.248.248 0 0 0 .024.07l.398.8c.082.16.48.243.52.16.16-.078.242-.32.16-.519l-.281-.563V2c0-.68.523-1.2 1.203-1.2s1.2.52 1.2 1.2v11.32c0 .239.16.399.398.399.242 0 .402-.16.402-.399V6.8c0-.679.52-1.198 1.2-1.198.679 0 1.198.52 1.198 1.199v6.12c0 .24.16.4.399.4.242 0 .402-.16.402-.4V8.399c0-.68.52-1.199 1.2-1.199.679 0 1.199.52 1.199 1.2v4.921c0 .239.16.399.402.399.238 0 .398-.16.398-.399v-2.922c0-.68.52-1.199 1.2-1.199.68 0 1.199.52 1.199 1.2V16.8c0 .707-.13 1.285-.285 1.715a.442.442 0 0 0-.114.164c-.199.601-.761.8-1.761 1.082-.2.039-.317.277-.278.476.078.16.239.282.399.282.039 0 .082 0 .082.039.261-.07.52-.145.761-.23a4.63 4.63 0 0 0-.082.35c-.28 1.36-1.761 2.52-3.12 2.52zm0 0"/>
</svg>
