<svg xmlns="http://www.w3.org/2000/svg" width="32" height="32" viewBox="0 0 24 24">
    <path d="M 20.632812 13.78125 C 20.34375 13.449219 19.929688 13.28125 19.472656 13.199219 L 19.765625 12.910156 C 20.136719 12.496094 20.34375 11.917969 20.34375 11.378906 C 20.34375 10.839844 20.09375 10.304688 19.722656 9.929688 C 19.433594 9.601562 19.019531 9.394531 18.5625 9.351562 C 18.976562 8.980469 19.183594 8.441406 19.183594 7.902344 C 19.183594 7.367188 18.9375 6.828125 18.5625 6.457031 C 18.273438 6.125 17.859375 5.957031 17.40625 5.875 L 19.722656 3.515625 C 20.136719 3.144531 20.34375 2.605469 20.34375 2.070312 C 20.34375 1.53125 20.09375 1.035156 19.722656 0.621094 C 19.351562 0.207031 18.8125 0 18.273438 0 C 17.734375 0 17.199219 0.25 16.824219 0.621094 L 10.207031 7.28125 C 10.660156 5.503906 9.707031 3.433594 8.175781 2.730469 C 8.011719 2.648438 7.804688 2.566406 7.558594 2.523438 C 6.8125 2.398438 6.480469 2.773438 6.355469 2.898438 C 6.191406 3.019531 6.191406 3.101562 6.109375 3.972656 C 6.027344 5.089844 5.859375 7.40625 5.324219 9.308594 C 5.324219 9.394531 4.824219 11.503906 4.742188 13.324219 L 3.957031 14.070312 C 2.34375 15.683594 2.34375 18.289062 3.957031 19.902344 L 6.894531 22.839844 C 7.640625 23.585938 8.757812 24 9.875 24 C 10.660156 24 11.40625 23.792969 12.027344 23.421875 C 12.441406 23.132812 12.8125 22.964844 13.058594 22.964844 C 13.722656 22.925781 14.882812 22.46875 15.957031 21.394531 L 20.632812 16.675781 C 21.046875 16.304688 21.253906 15.765625 21.253906 15.226562 C 21.253906 14.691406 21.003906 14.152344 20.632812 13.78125 Z M 20.054688 16.136719 L 15.378906 20.8125 C 14.890625 21.300781 14.402344 21.617188 13.988281 21.820312 C 13.914062 21.8125 13.835938 21.820312 13.765625 21.847656 C 13.183594 22.136719 12.648438 21.890625 11.695312 21.351562 C 11.488281 21.269531 11.238281 21.308594 11.117188 21.515625 C 11.03125 21.722656 11.074219 21.972656 11.28125 22.097656 C 11.519531 22.246094 11.757812 22.382812 11.996094 22.5 C 11.871094 22.5625 11.742188 22.636719 11.613281 22.71875 C 10.410156 23.460938 8.46875 23.253906 7.472656 22.261719 L 4.535156 19.324219 C 3.253906 18.042969 3.253906 15.929688 4.535156 14.648438 L 4.804688 14.378906 C 4.824219 14.578125 4.851562 14.773438 4.867188 14.980469 C 4.910156 15.226562 4.910156 15.476562 4.949219 15.722656 C 4.992188 15.929688 5.15625 16.097656 5.363281 16.097656 C 5.613281 16.054688 5.777344 15.847656 5.777344 15.722656 C 5.777344 15.476562 5.734375 15.1875 5.695312 14.9375 C 5.652344 14.484375 5.570312 13.984375 5.570312 13.53125 C 5.570312 13.46875 5.558594 13.410156 5.535156 13.359375 C 5.597656 11.566406 6.109375 9.476562 6.109375 9.476562 C 6.6875 7.53125 6.851562 5.171875 6.9375 4.015625 C 6.9375 3.808594 6.976562 3.558594 6.976562 3.433594 C 7.058594 3.351562 7.144531 3.308594 7.390625 3.351562 C 7.558594 3.394531 7.679688 3.433594 7.804688 3.476562 C 8.839844 3.972656 9.75 5.628906 9.335938 7.117188 L 9.089844 8.441406 C 9.082031 8.464844 9.082031 8.488281 9.078125 8.511719 L 8.839844 9.226562 C 8.757812 9.476562 8.882812 9.683594 9.089844 9.765625 C 9.128906 9.808594 9.171875 9.808594 9.210938 9.808594 C 9.378906 9.808594 9.542969 9.683594 9.625 9.515625 L 9.894531 8.710938 L 17.445312 1.199219 C 17.902344 0.746094 18.730469 0.746094 19.183594 1.199219 C 19.433594 1.40625 19.558594 1.738281 19.558594 2.070312 C 19.558594 2.398438 19.433594 2.691406 19.183594 2.9375 L 14.550781 7.738281 L 10.949219 11.339844 C 10.785156 11.503906 10.785156 11.75 10.949219 11.917969 C 11.03125 12 11.117188 12.042969 11.238281 12.042969 C 11.363281 12.042969 11.445312 12.042969 11.53125 11.917969 L 15.128906 8.316406 L 16.289062 7.160156 C 16.496094 6.910156 16.824219 6.785156 17.15625 6.785156 C 17.488281 6.785156 17.777344 6.953125 18.027344 7.160156 C 18.273438 7.367188 18.398438 7.695312 18.398438 8.027344 C 18.398438 8.359375 18.273438 8.648438 18.027344 8.898438 L 16.867188 10.054688 L 13.558594 13.367188 C 13.390625 13.53125 13.390625 13.78125 13.558594 13.945312 C 13.640625 14.027344 13.722656 14.070312 13.847656 14.070312 C 13.972656 14.070312 14.054688 14.027344 14.136719 13.945312 L 17.445312 10.632812 C 17.902344 10.179688 18.730469 10.179688 19.183594 10.632812 C 19.433594 10.839844 19.558594 11.171875 19.558594 11.503906 C 19.558594 11.835938 19.433594 12.125 19.183594 12.371094 L 17.738281 13.820312 C 17.695312 13.859375 17.667969 13.90625 17.644531 13.953125 L 15.625 15.972656 C 15.460938 16.136719 15.460938 16.386719 15.625 16.550781 C 15.707031 16.632812 15.792969 16.675781 15.914062 16.675781 C 16.039062 16.675781 16.164062 16.632812 16.246094 16.550781 L 18.355469 14.398438 C 18.386719 14.371094 18.414062 14.335938 18.429688 14.300781 C 18.902344 13.949219 19.632812 13.980469 20.054688 14.398438 C 20.300781 14.605469 20.425781 14.9375 20.425781 15.269531 C 20.425781 15.601562 20.300781 15.890625 20.054688 16.136719 Z M 20.054688 16.136719"/>
</svg>
