<svg xmlns="http://www.w3.org/2000/svg" width="32" height="32" viewBox="0 0 24 24">
    <path d="M6.59 16.238c.082.082.2.16.32.16.082 0 .16-.039.242-.078.2-.12.239-.36.118-.558-.32-.442-.52-.762-.52-.762-.96-1.719-2.48-3.441-3.2-4.281a5.586 5.586 0 0 0-.359-.438c0-.12 0-.203.239-.36.16-.081.28-.16.402-.202 1.04-.36 2.758.12 3.52 1.441l.718 1.078.36.723c.082.16.199.238.36.238.081 0 .12 0 .16-.078.16-.082.241-.32.16-.52l-.32-.64V3.6c0-.68.523-1.203 1.202-1.203.68 0 1.2.524 1.2 1.204v6.796c0 .243.16.403.398.403.242 0 .402-.16.402-.403V2c0-.68.52-1.2 1.2-1.2.68 0 1.199.52 1.199 1.2v4.398c0 .243.16.403.398.403.242 0 .402-.16.402-.403V3.602c0-.403.559-1.204 1.2-1.204.441 0 .84.243 1.039.602.12.2.36.281.562.16a.427.427 0 0 0 .117-.558c-.359-.602-1-1-1.718-1-.442 0-.88.199-1.2.476V2c0-1.121-.879-2-2-2-1.12 0-2 .879-2 2a2.072 2.072 0 0 0-1.199-.398c-1.12 0-2 .878-2 2v7.078c-.883-1.52-2.96-2.32-4.48-1.72-.2.04-.36.161-.563.278-.597.403-.558.922-.558 1.082-.04.239 0 .282.558.961.723.797 2.203 2.48 3.121 4.16 0 0 .2.32.52.797zm0 0M21.473.922c-.16-.16-.442-.121-.563.039l-16.8 20.8c-.16.16-.118.438.042.56a.57.57 0 0 0 .239.077c.12 0 .238-.039.359-.117l16.8-20.8c.122-.16.079-.442-.077-.56zm0 0M19.59 6.398c-1.117 0-2 .883-2 2v4c0 .243.16.403.402.403.238 0 .399-.16.399-.403v-4c0-.68.52-1.199 1.199-1.199.68 0 1.2.52 1.2 1.2V16.8c0 1.36-.477 2.238-.72 2.52a1.607 1.607 0 0 0-.207.312c-.175.156-.39.219-.992.367l-.2.04c-.202.038-.32.28-.28.48.082.16.238.28.398.28h.281l.442-.132v.012c-.282 1.36-1.762 2.52-3.121 2.52h-4a3.206 3.206 0 0 1-3.2-3.2v-1.2c0-.241-.16-.402-.402-.402-.238 0-.398.16-.398.403V20c0 2.2 1.8 4 4 4h4c1.718 0 3.52-1.441 3.922-3.121.117-.48.238-.84.398-1 .398-.48.879-1.598.879-3.078V8.398c0-1.117-.88-2-2-2zm0 0"/>
</svg>
