<svg xmlns="http://www.w3.org/2000/svg" width="32" height="32" viewBox="0 0 24 24">
    <path d="M 19.550781 1.910156 C 19.195312 1.511719 18.664062 1.332031 17.996094 1.332031 C 17.375 1.332031 16.484375 1.6875 15.996094 3.421875 L 14.929688 7.378906 C 14.574219 6.976562 14.085938 6.667969 13.507812 6.667969 C 13.5 6.667969 13.492188 6.667969 13.488281 6.667969 C 13.480469 6.667969 13.46875 6.667969 13.460938 6.667969 C 12.816406 6.667969 12.28125 7.027344 11.933594 7.535156 C 11.929688 7.527344 11.921875 7.519531 11.914062 7.511719 C 11.570312 7.054688 11.066406 6.71875 10.488281 6.671875 C 10.480469 6.671875 10.476562 6.671875 10.472656 6.671875 C 10.429688 6.667969 10.390625 6.667969 10.351562 6.667969 C 10.320312 6.667969 10.289062 6.667969 10.257812 6.667969 C 10.242188 6.671875 10.230469 6.671875 10.214844 6.671875 C 10.199219 6.675781 10.183594 6.675781 10.167969 6.675781 C 10.148438 6.679688 10.128906 6.679688 10.113281 6.683594 C 10.101562 6.683594 10.09375 6.6875 10.085938 6.6875 C 9.707031 6.75 9.375 6.933594 9.105469 7.195312 L 8.441406 2.621094 C 8.394531 2.179688 8.308594 1.777344 8.171875 1.464844 C 8.039062 1.109375 7.640625 0 6.441406 0 C 5.953125 0 5.460938 0.222656 5.0625 0.667969 C 4.617188 1.109375 4.394531 1.734375 4.441406 2.3125 L 5.285156 13.511719 C 4.128906 14.089844 3.996094 14.933594 3.996094 16.84375 L 3.996094 16.890625 C 3.996094 18.753906 5.285156 20.175781 5.773438 20.621094 L 5.773438 22.222656 C 5.773438 23.199219 6.574219 24 7.550781 24 L 15.550781 24 C 16.527344 24 17.328125 23.199219 17.328125 22.222656 L 17.328125 20.621094 C 18.664062 18.800781 18.664062 18.578125 18.664062 15.109375 L 18.664062 14.265625 L 19.996094 3.601562 C 20.039062 2.890625 19.90625 2.3125 19.550781 1.910156 Z M 14.664062 8.890625 L 14.664062 13.777344 C 14.664062 14.398438 14.21875 15.109375 13.597656 15.109375 C 12.972656 15.109375 12.441406 14.398438 12.441406 13.777344 L 12.441406 8.890625 C 12.441406 8.484375 12.628906 8.039062 12.933594 7.78125 C 13.078125 7.667969 13.242188 7.601562 13.417969 7.601562 C 13.953125 7.601562 14.394531 8.132812 14.527344 8.621094 C 14.566406 8.691406 14.605469 8.757812 14.660156 8.808594 C 14.660156 8.835938 14.664062 8.863281 14.664062 8.890625 Z M 10.722656 13.359375 C 10.804688 13.226562 10.875 13.097656 10.929688 12.976562 C 11.375 12.042969 10.929688 10.710938 10.039062 10.179688 C 9.902344 10.101562 9.628906 9.96875 9.285156 9.972656 L 9.285156 8.890625 C 9.285156 8.582031 9.402344 8.253906 9.59375 8 C 9.773438 7.792969 10.007812 7.644531 10.261719 7.644531 C 10.796875 7.644531 11.242188 8.179688 11.375 8.667969 C 11.410156 8.738281 11.453125 8.800781 11.507812 8.855469 C 11.507812 8.867188 11.507812 8.878906 11.507812 8.890625 L 11.507812 13.777344 C 11.507812 14.398438 11.0625 15.109375 10.441406 15.109375 C 10.171875 15.109375 9.90625 14.976562 9.683594 14.710938 C 10.160156 14.203125 10.503906 13.746094 10.722656 13.359375 Z M 5.730469 1.246094 C 5.953125 1.023438 6.21875 0.890625 6.441406 0.890625 C 6.75 0.890625 7.0625 0.976562 7.375 1.777344 C 7.460938 2.042969 7.550781 2.355469 7.597656 2.84375 L 8.425781 8.527344 C 8.40625 8.648438 8.394531 8.769531 8.394531 8.890625 L 8.394531 10.292969 C 8.175781 10.453125 7.953125 10.6875 7.730469 11.023438 C 7.441406 11.417969 6.953125 12.128906 6.148438 12.828125 L 5.328125 2.265625 C 5.285156 1.910156 5.460938 1.554688 5.730469 1.246094 Z M 19.105469 3.511719 L 17.773438 14.179688 L 17.773438 15.109375 C 17.773438 18.488281 17.773438 18.488281 16.527344 20.179688 C 16.484375 20.265625 16.441406 20.355469 16.441406 20.445312 L 16.441406 22.222656 C 16.441406 22.710938 16.039062 23.109375 15.550781 23.109375 L 7.550781 23.109375 C 7.0625 23.109375 6.664062 22.710938 6.664062 22.222656 L 6.664062 20.445312 C 6.664062 20.3125 6.617188 20.179688 6.527344 20.089844 C 6.484375 20.089844 4.929688 18.753906 4.886719 16.933594 C 4.886719 14.800781 5.019531 14.578125 5.953125 14.179688 C 6.042969 14.132812 6.113281 14.0625 6.15625 13.980469 C 7.386719 13.113281 8.058594 12.109375 8.441406 11.554688 C 8.570312 11.359375 8.730469 11.15625 8.914062 11.027344 C 8.964844 11.023438 9.015625 11.007812 9.0625 10.976562 C 9.117188 10.949219 9.25 10.894531 9.417969 10.917969 C 9.460938 10.929688 9.507812 10.949219 9.550781 10.976562 C 10.039062 11.246094 10.308594 12.132812 10.085938 12.621094 C 9.863281 13.109375 9.195312 14 7.242188 15.644531 C 7.0625 15.777344 7.019531 16.089844 7.195312 16.265625 C 7.285156 16.398438 7.417969 16.445312 7.550781 16.445312 C 7.640625 16.445312 7.773438 16.398438 7.863281 16.3125 C 8.285156 15.945312 8.667969 15.601562 9.011719 15.277344 C 9.40625 15.730469 9.921875 16 10.441406 16 C 11.082031 16 11.628906 15.644531 11.980469 15.144531 C 12.351562 15.644531 12.910156 16 13.550781 16 C 14.707031 16 15.550781 14.84375 15.507812 13.777344 L 15.507812 8.890625 C 15.507812 8.8125 15.503906 8.738281 15.492188 8.664062 C 15.5 8.648438 15.503906 8.636719 15.507812 8.621094 L 16.839844 3.734375 C 16.972656 3.199219 17.375 2.265625 17.996094 2.265625 C 18.441406 2.265625 18.707031 2.355469 18.882812 2.535156 C 19.0625 2.710938 19.152344 3.066406 19.105469 3.511719 Z M 19.105469 3.511719"/>
</svg>
