<svg xmlns="http://www.w3.org/2000/svg" width="32" height="32" viewBox="0 0 24 24">
    <path d="M19.121 10h-.723V6.121c0-1.16-.957-2.121-2.117-2.121h-.05l-.27-.48a2.705 2.705 0 0 1-.402-1.442C15.559.922 14.519 0 13.239 0H9.16C7.88 0 6.84.922 6.84 2.078c0 .48-.16 1-.399 1.442l-.27.48h-.05C4.961 4 4 4.96 4 6.121V17.88C4 19.039 4.96 20 6.121 20h.05l.27.48c.278.442.399.961.399 1.442C6.84 23.078 7.879 24 9.16 24h1.64v-8.434a.379.379 0 0 0 0-.132V14c0-.441.16-.84.4-1.2v2c0 .24.16.4.402.4H14c.238 0 .398-.16.398-.4v-2c.243.36.403.759.403 1.2v9.602c0 .238.16.398.398.398.242 0 .403-.16.403-.36V20h.68c1.16 0 2.116-.96 2.116-2.121V14h.723c.48 0 .879-.398.879-.84V10.88a.885.885 0 0 0-.879-.879zM7.161 3.922c.32-.563.48-1.203.48-1.844 0-.719.68-1.277 1.52-1.277h4.077c.84 0 1.524.558 1.524 1.277 0 .64.16 1.281.476 1.844l.043.078H7.078zm1.96 19.277c-.84 0-1.52-.558-1.52-1.277 0-.64-.16-1.281-.48-1.844L7.078 20H10v3.2zm4.48-8.8H12V12c0-.441.36-.8.8-.8.438 0 .802.359.802.8zm4 3.48c0 .723-.601 1.32-1.32 1.32h-.68v-3.52c.13-.132.258-.265.36-.398.117-.16.078-.441-.082-.562a.4.4 0 0 0-.277-.067v-.613c0-.934-.454-1.832-1.23-2.336a1.608 1.608 0 0 0-1.571-1.305c-.77 0-1.414.547-1.567 1.274C10.488 12.203 10 13.066 10 14v.64a.414.414 0 0 0-.238.079c-.203.12-.203.402-.082.562.09.117.203.239.32.36v3.558H6.121c-.723 0-1.32-.597-1.32-1.32V6.12c0-.723.597-1.32 1.32-1.32h10.16c.719 0 1.32.597 1.32 1.32zM19.2 13.12c0 .04-.039.078-.078.078h-.723v-2.437h.723c.04 0 .078.039.078.078zm0 0"/>
    <path d="M6 8c.121 0 .2-.04.281-.121L7.88 6.28a.39.39 0 0 0 0-.562.385.385 0 0 0-.559 0L5.72 7.32a.385.385 0 0 0 0 .559C5.8 7.96 5.879 8 6 8zm0 0M6 10c.121 0 .2-.04.281-.121l.797-.8a.385.385 0 0 0 0-.56.385.385 0 0 0-.558 0l-.801.801a.385.385 0 0 0 0 .559C5.8 9.96 5.879 10 6 10zm0 0M8.121 7.48c.078.079.16.122.277.122a.369.369 0 0 0 .282-.122l1.199-1.199a.39.39 0 0 0 0-.562.385.385 0 0 0-.559 0L8.121 6.922a.385.385 0 0 0 0 .558zm0 0M9.879 7.719a.385.385 0 0 0-.559 0L5.72 11.32a.385.385 0 0 0 0 .559c.082.082.16.121.281.121.121 0 .2-.04.281-.121L9.88 8.28a.39.39 0 0 0 0-.562zm0 0M11.2 6.8c.12 0 .198-.038.28-.12l.399-.399a.39.39 0 0 0 0-.562.385.385 0 0 0-.559 0l-.398.402a.385.385 0 0 0 0 .559.348.348 0 0 0 .277.12zm0 0M13.2 21.602c.241 0 .402-.16.402-.403 0-.238-.16-.398-.403-.398h-.8c-.239 0-.399.16-.399.398 0 .242.16.403.398.403zm0 0M13.602 22.398H12c-.238 0-.398.16-.398.403 0 .238.16.398.398.398h1.602c.238 0 .398-.16.398-.398 0-.242-.16-.403-.398-.403zm0 0M16.398 12.32c-.238 0-.398.16-.398.399v.043c0 .36-.04.718-.16 1.039a.402.402 0 0 0 .238.52c.043.038.082.038.121.038.16 0 .32-.12.403-.28.117-.4.199-.84.199-1.278v-.082c0-.239-.16-.399-.403-.399zm0 0M12.121 8.84a3.812 3.812 0 0 0-1.281.48c-.2.121-.281.36-.16.559a.48.48 0 0 0 .36.2c.038 0 .12-.04.198-.079a4.51 4.51 0 0 1 1.043-.36c.2-.038.36-.28.32-.48-.042-.2-.28-.36-.48-.32zm0 0M16.16 11.922h.16c.2-.082.32-.32.239-.524-.2-.437-.399-.84-.72-1.199-.16-.16-.398-.199-.558-.039-.16.121-.203.399-.043.559.242.281.442.601.563.96.039.16.199.243.36.243zm0 0M14.8 9.36a3.93 3.93 0 0 0-1.28-.481.417.417 0 0 0-.48.32.415.415 0 0 0 .32.48c.359.04.718.16 1.038.36.082.04.122.04.204.04.117 0 .238-.079.359-.157.078-.203.039-.442-.16-.563zm0 0M9.762 10.2c-.32.32-.563.722-.723 1.16-.078.199.04.44.242.519a.278.278 0 0 0 .16.043c.16 0 .32-.121.36-.242.12-.36.32-.68.558-.961.16-.16.121-.399-.039-.559-.16-.16-.398-.12-.558.04zm0 0M9.64 12.8v-.081a.4.4 0 0 0-.8 0v.082c0 .437.039.879.2 1.277.038.16.198.281.358.281h.16c.204-.078.32-.32.243-.52a3.1 3.1 0 0 1-.16-1.038zm0 0"/>
</svg>
