<svg xmlns="http://www.w3.org/2000/svg" width="32" height="32" viewBox="0 0 24 24">
    <path d="M5.3 8.398h1.438c.282 0 .48-.199.524-.437V6.48A.487.487 0 0 0 6.782 6H5.3c-.281 0-.48.2-.48.441v1.48c0 .278.199.477.48.477zm.321-1.597h.8v.8h-.8zm0 0M8.46 8.398h1.481c.278 0 .48-.199.48-.476v-1.48a.487.487 0 0 0-.48-.481h-1.48a.485.485 0 0 0-.48.48v1.48c0 .278.238.477.48.477zm.36-1.597h.801v.8h-.8zm0 0M5.3 11.602h1.438c.282 0 .48-.204.524-.442V9.68a.487.487 0 0 0-.48-.48H5.3c-.281 0-.48.198-.48.44v1.481c0 .277.199.48.48.48zM5.622 10h.8v.8h-.8zm0 0M8.46 11.602h1.481c.278 0 .48-.204.48-.48V9.64a.487.487 0 0 0-.48-.48h-1.48a.485.485 0 0 0-.48.48v1.48c0 .277.238.48.48.48zM8.82 10h.801v.8h-.8zm0 0"/>
    <path d="M21.578 18.48v-4.878c0-.883-.719-1.602-1.598-1.602-.28 0-.558.078-.8.2V12c0-.879-.72-1.602-1.602-1.602-.262 0-.527.11-.758.254v-4.53C16.82 4.96 15.86 4 14.7 4h-.052l-.27-.48a2.735 2.735 0 0 1-.398-1.442C13.98.922 12.941 0 11.66 0H7.578C6.301 0 5.262.922 5.262 2.078c0 .48-.16 1-.403 1.442L4.59 4h-.05c-1.16 0-2.117.96-2.117 2.121V17.88c0 1.16.957 2.121 2.117 2.121h.05l.27.48c.282.442.403.961.403 1.442C5.262 23.078 6.3 24 7.578 24h4.082a2.5 2.5 0 0 0 1.406-.434A3.193 3.193 0 0 0 14.7 24h3.082c1.438 0 2.797-1.078 3.078-2.398.121-.48.243-.68.282-.723.093-.102.168-.238.23-.406.016-.032.024-.067.031-.102.125-.418.176-1.023.176-1.89zm-16-14.558c.32-.563.48-1.203.48-1.844 0-.719.68-1.277 1.52-1.277h4.082c.84 0 1.52.558 1.52 1.277 0 .64.16 1.281.48 1.844L13.7 4H5.5zm-2.36 13.957V6.12c0-.723.602-1.32 1.321-1.32h10.2c.722 0 1.32.597 1.32 1.32v3.277a1.615 1.615 0 0 0-1.063-.187 1.878 1.878 0 0 0-.535.152V8c0-.879-.723-1.602-1.602-1.602-.011 0-.027.004-.039.004-.011 0-.027-.004-.039-.004-.883 0-1.601.723-1.601 1.602v5.625a3.262 3.262 0 0 0-2.418-1.086 2.584 2.584 0 0 0-.903.14c-.199.083-.32.16-.437.243-.48.316-.48.758-.48.918-.044.16.038.242.437.719.52.64 1.64 1.921 2.36 3.203.03.054.464.707 1.034 1.437H4.54c-.719 0-1.32-.597-1.32-1.32zm8.403 5.32H7.54c-.84 0-1.52-.558-1.52-1.277 0-.64-.16-1.281-.48-1.844L5.5 20l5.922.04c.039.038.117.12.156.16v.76c0 .802.281 1.52.8 2.08-.237.081-.48.16-.757.16zm6.2 0h-3.083a2.38 2.38 0 0 1-1.047-.234l-.351-.246c-.54-.383-.856-1.028-.88-1.715.259.203.571.371 1 .437h.08c.198 0 .358-.16.358-.32.043-.2-.117-.402-.32-.441-.476-.078-.758-.399-1.078-.758l-.04-.031v-.051l-.12-.121c-.121-.117-.238-.278-.36-.399a29.376 29.376 0 0 1-1.48-2c-.586-1.074-1.46-2.144-2.07-2.851a11.987 11.987 0 0 1-.328-.43c-.082-.078-.16-.2-.243-.277 0-.043.04-.082.121-.16a.606.606 0 0 1 .282-.16c.117-.044.246-.075.383-.087.738-.043 1.671.36 2.136 1.125l.457.813c.008.023.012.047.024.066l.398.801c.078.16.48.238.52.16.16-.082.242-.32.16-.52l-.281-.562V8c0-.434.351-.79.78-.8.43.01.782.366.782.8v2.8c0 .071.012.134.04.188v4.614c0 .238.16.398.398.398.242 0 .402-.16.402-.398V10.8c0-.434.348-.79.781-.801.43.012.778.328.778.8 0 .071.015.134.039.188V15.2c0 .242.16.403.402.403.238 0 .398-.16.398-.403V12c0-.281.36-.8.801-.8.442 0 .8.359.8.8v3.2c0 .241.161.402.4.402.242 0 .402-.16.402-.403v-1.597c0-.442.36-.801.797-.801.441 0 .8.36.8.8v4.88c0 .765-.05 1.226-.109 1.507a.312.312 0 0 0-.05.051c-.2.281-.52.64-1.2.8-.2.04-.32.282-.281.481.082.16.242.282.402.282h.078a4.42 4.42 0 0 0 .438-.145c-.25.953-1.282 1.742-2.317 1.742zm0 0"/>
</svg>
