<svg xmlns="http://www.w3.org/2000/svg" width="32" height="32" viewBox="0 0 24 24">
    <path d="M14 21.602c.238 0 .398-.16.398-.403 0-.238-.16-.398-.398-.398h-1.602c-.238 0-.398.16-.398.398 0 .242.16.403.398.403zm0 0M14.398 22.398H12c-.238 0-.398.16-.398.403 0 .238.16.398.398.398h2.398c.243 0 .403-.16.403-.398 0-.242-.16-.403-.403-.403zm0 0M10 12.762v-.043a.4.4 0 0 0-.8 0v.082c0 .437.081.879.241 1.277.04.16.2.281.36.281.039 0 .078 0 .12-.039.2-.082.317-.32.24-.52A3.1 3.1 0 0 1 10 12.763zm0 0M12.52 8.84a3.844 3.844 0 0 0-1.282.48c-.199.121-.277.36-.16.559a.48.48 0 0 0 .363.2c.04 0 .118-.04.2-.079.32-.16.68-.281 1.039-.36.199-.038.36-.28.32-.48a.415.415 0 0 0-.48-.32zm0 0M10.16 10.2c-.32.32-.558.722-.719 1.16-.082.199.04.44.239.519.082.043.12.043.16.043.16 0 .32-.121.36-.242.12-.36.32-.68.562-.961.16-.16.117-.399-.043-.559-.16-.16-.399-.12-.559.04zm0 0M16.559 11.922h.16c.203-.082.32-.32.242-.524-.2-.437-.402-.84-.723-1.199-.16-.16-.398-.199-.558-.039-.16.121-.2.399-.04.559.239.281.438.601.56.96.038.16.198.243.359.243zm0 0M16.8 12.32c-.241 0-.402.16-.402.399v.043c0 .36-.039.718-.16 1.039-.078.238.043.437.242.52.04.038.079.038.122.038.16 0 .32-.12.398-.28.121-.4.2-.84.2-1.278v-.082c0-.239-.16-.399-.4-.399zm0 0M15.2 9.36a3.91 3.91 0 0 0-1.278-.481.415.415 0 0 0-.48.32.41.41 0 0 0 .32.48c.36.04.718.16 1.039.36.078.04.12.04.199.04.121 0 .238-.079.36-.157.081-.203.038-.442-.16-.563zm0 0"/>
    <path d="M17.2 0h-10c-.88 0-1.598.719-1.598 1.602v2c-.243 0-.403.16-.403.398v.398c0 .243.16.403.403.403v.398c-.243 0-.403.16-.403.403V6c0 .238.16.398.403.398v.403c-.243 0-.403.16-.403.398v.403c0 .238.16.398.403.398v14.398c0 .883.718 1.602 1.597 1.602h3.602c.238 0 .398-.16.398-.398v-8.036a.38.38 0 0 0 0-.132V14c0-.441.16-.84.403-1.2v2.4H14.8v-2.4c.238.36.398.759.398 1.2v9.602c0 .238.16.398.403.398h1.597c.88 0 1.602-.719 1.602-1.602V1.602C18.8.719 18.078 0 17.199 0zm-6.802 23.2H7.2c-.437 0-.8-.36-.8-.802v-2h4zM14 14.397h-1.602V12c0-.441.364-.8.801-.8.41 0 .754.316.797.714v.008c.004.027.004.05.004.078zm.773-2.695a1.612 1.612 0 0 0-1.574-1.305 1.61 1.61 0 0 0-1.566 1.274c-.746.531-1.235 1.394-1.235 2.328v.64a.423.423 0 0 0-.238.079c-.2.12-.2.402-.082.562.09.117.203.239.32.36v3.96h-4V3.2H18v16.403h-2V15.68c.133-.133.262-.266.36-.399a.432.432 0 0 0-.079-.562.41.41 0 0 0-.281-.067v-.613c0-.934-.453-1.832-1.227-2.336zM18 22.398c0 .442-.36.801-.8.801H16v-2.8h2zm-11.602-20v-.796c0-.442.364-.801.801-.801h10c.442 0 .801.36.801.8v.797zm0 0"/>
    <path d="M16.398 4.8h.403c.238 0 .398-.16.398-.402 0-.238-.16-.398-.398-.398h-.403c-.238 0-.398.16-.398.398 0 .243.16.403.398.403zm0 0M14.398 4.8h.403c.238 0 .398-.16.398-.402 0-.238-.16-.398-.398-.398h-.403c-.238 0-.398.16-.398.398 0 .243.16.403.398.403zm0 0M12.398 4.8c.243 0 .403-.16.403-.402 0-.238-.16-.398-.403-.398H11.2c-.238 0-.398.16-.398.398 0 .243.16.403.398.403zm0 0"/>
</svg>
