<svg xmlns="http://www.w3.org/2000/svg" width="32" height="32" viewBox="0 0 24 24">
    <path d="M14 21.601562C14.238281 21.601562 14.398438 21.441406 14.398438 21.199219 14.398438 20.960938 14.238281 20.800781 14 20.800781L12.398438 20.800781C12.160156 20.800781 12 20.960938 12 21.199219 12 21.441406 12.160156 21.601562 12.398438 21.601562zM14.398438 22.398438L12 22.398438C11.761719 22.398438 11.601562 22.558594 11.601562 22.800781 11.601562 23.039062 11.761719 23.199219 12 23.199219L14.398438 23.199219C14.640625 23.199219 14.800781 23.039062 14.800781 22.800781 14.800781 22.558594 14.640625 22.398438 14.398438 22.398438zM10 12.761719L10 12.71875C10 12.519531 9.839844 12.320312 9.601562 12.320312 9.398438 12.320312 9.199219 12.480469 9.199219 12.71875L9.199219 12.800781C9.199219 13.238281 9.28125 13.679688 9.441406 14.078125 9.480469 14.238281 9.640625 14.359375 9.800781 14.359375 9.839844 14.359375 9.878906 14.359375 9.921875 14.320312 10.121094 14.238281 10.238281 14 10.160156 13.800781 10.039062 13.441406 10 13.121094 10 12.761719zM12.519531 8.839844C12.078125 8.921875 11.640625 9.078125 11.238281 9.320312 11.039062 9.441406 10.960938 9.679688 11.078125 9.878906 11.160156 10 11.320312 10.078125 11.441406 10.078125 11.480469 10.078125 11.558594 10.039062 11.640625 10 11.960938 9.839844 12.320312 9.71875 12.679688 9.640625 12.878906 9.601562 13.039062 9.359375 13 9.160156 12.960938 8.960938 12.761719 8.800781 12.519531 8.839844zM10.160156 10.199219C9.839844 10.519531 9.601562 10.921875 9.441406 11.359375 9.359375 11.558594 9.480469 11.800781 9.679688 11.878906 9.761719 11.921875 9.800781 11.921875 9.839844 11.921875 10 11.921875 10.160156 11.800781 10.199219 11.679688 10.320312 11.320312 10.519531 11 10.761719 10.71875 10.921875 10.558594 10.878906 10.320312 10.71875 10.160156 10.558594 10 10.320312 10.039062 10.160156 10.199219zM16.558594 11.921875C16.601562 11.921875 16.679688 11.921875 16.71875 11.921875 16.921875 11.839844 17.039062 11.601562 16.960938 11.398438 16.761719 10.960938 16.558594 10.558594 16.238281 10.199219 16.078125 10.039062 15.839844 10 15.679688 10.160156 15.519531 10.28125 15.480469 10.558594 15.640625 10.71875 15.878906 11 16.078125 11.320312 16.199219 11.679688 16.238281 11.839844 16.398438 11.921875 16.558594 11.921875zM16.800781 12.320312C16.558594 12.320312 16.398438 12.480469 16.398438 12.71875L16.398438 12.761719C16.398438 13.121094 16.359375 13.480469 16.238281 13.800781 16.160156 14.039062 16.28125 14.238281 16.480469 14.320312 16.519531 14.359375 16.558594 14.359375 16.601562 14.359375 16.761719 14.359375 16.921875 14.238281 17 14.078125 17.121094 13.679688 17.199219 13.238281 17.199219 12.800781L17.199219 12.71875C17.199219 12.480469 17.039062 12.320312 16.800781 12.320312zM15.199219 9.359375C14.800781 9.121094 14.359375 8.960938 13.921875 8.878906 13.679688 8.839844 13.480469 9 13.441406 9.199219 13.398438 9.441406 13.558594 9.640625 13.761719 9.679688 14.121094 9.71875 14.480469 9.839844 14.800781 10.039062 14.878906 10.078125 14.921875 10.078125 15 10.078125 15.121094 10.078125 15.238281 10 15.359375 9.921875 15.441406 9.71875 15.398438 9.480469 15.199219 9.359375zM15.199219 9.359375"/>
    <path d="M 17.199219 0 L 7.199219 0 C 6.320312 0 5.601562 0.71875 5.601562 1.601562 L 5.601562 3.601562 C 5.359375 3.601562 5.199219 3.761719 5.199219 4 L 5.199219 4.398438 C 5.199219 4.640625 5.359375 4.800781 5.601562 4.800781 L 5.601562 5.199219 C 5.359375 5.199219 5.199219 5.359375 5.199219 5.601562 L 5.199219 6 C 5.199219 6.238281 5.359375 6.398438 5.601562 6.398438 L 5.601562 6.800781 C 5.359375 6.800781 5.199219 6.960938 5.199219 7.199219 L 5.199219 7.601562 C 5.199219 7.839844 5.359375 8 5.601562 8 L 5.601562 22.398438 C 5.601562 23.28125 6.320312 24 7.199219 24 L 10.800781 24 C 11.039062 24 11.199219 23.839844 11.199219 23.601562 L 11.199219 15.566406 C 11.207031 15.523438 11.207031 15.480469 11.199219 15.433594 L 11.199219 14 C 11.199219 13.558594 11.359375 13.160156 11.601562 12.800781 L 11.601562 15.199219 L 14.800781 15.199219 L 14.800781 12.800781 C 15.039062 13.160156 15.199219 13.558594 15.199219 14 L 15.199219 23.601562 C 15.199219 23.839844 15.359375 24 15.601562 24 L 17.199219 24 C 18.078125 24 18.800781 23.28125 18.800781 22.398438 L 18.800781 1.601562 C 18.800781 0.71875 18.078125 0 17.199219 0 Z M 10.398438 23.199219 L 7.199219 23.199219 C 6.761719 23.199219 6.398438 22.839844 6.398438 22.398438 L 6.398438 20.398438 L 10.398438 20.398438 Z M 14 14.398438 L 12.398438 14.398438 L 12.398438 12 C 12.398438 11.558594 12.761719 11.199219 13.199219 11.199219 C 13.609375 11.199219 13.953125 11.515625 13.996094 11.914062 L 13.996094 11.921875 C 14 11.949219 14 11.972656 14 12 Z M 14.773438 11.703125 C 14.632812 10.964844 13.976562 10.398438 13.199219 10.398438 C 12.433594 10.398438 11.789062 10.945312 11.632812 11.671875 C 10.886719 12.203125 10.398438 13.066406 10.398438 14 L 10.398438 14.640625 C 10.3125 14.640625 10.226562 14.671875 10.160156 14.71875 C 9.960938 14.839844 9.960938 15.121094 10.078125 15.28125 C 10.167969 15.398438 10.28125 15.519531 10.398438 15.640625 L 10.398438 19.601562 L 6.398438 19.601562 L 6.398438 3.199219 L 18 3.199219 L 18 19.601562 L 16 19.601562 L 16 15.679688 C 16.132812 15.546875 16.261719 15.414062 16.359375 15.28125 C 16.480469 15.121094 16.441406 14.839844 16.28125 14.71875 C 16.203125 14.664062 16.101562 14.640625 16 14.652344 L 16 14.039062 C 16 13.105469 15.546875 12.207031 14.773438 11.703125 Z M 18 22.398438 C 18 22.839844 17.640625 23.199219 17.199219 23.199219 L 16 23.199219 L 16 20.398438 L 18 20.398438 Z M 6.398438 2.398438 L 6.398438 1.601562 C 6.398438 1.160156 6.761719 0.800781 7.199219 0.800781 L 17.199219 0.800781 C 17.640625 0.800781 18 1.160156 18 1.601562 L 18 2.398438 Z M 6.398438 2.398438"/>
    <path d="M16.398438 4.800781L16.800781 4.800781C17.039062 4.800781 17.199219 4.640625 17.199219 4.398438 17.199219 4.160156 17.039062 4 16.800781 4L16.398438 4C16.160156 4 16 4.160156 16 4.398438 16 4.640625 16.160156 4.800781 16.398438 4.800781zM14.398438 4.800781L14.800781 4.800781C15.039062 4.800781 15.199219 4.640625 15.199219 4.398438 15.199219 4.160156 15.039062 4 14.800781 4L14.398438 4C14.160156 4 14 4.160156 14 4.398438 14 4.640625 14.160156 4.800781 14.398438 4.800781zM12.398438 4.800781C12.640625 4.800781 12.800781 4.640625 12.800781 4.398438 12.800781 4.160156 12.640625 4 12.398438 4L11.199219 4C10.960938 4 10.800781 4.160156 10.800781 4.398438 10.800781 4.640625 10.960938 4.800781 11.199219 4.800781zM12.398438 4.800781"/>
</svg>
