<svg xmlns="http://www.w3.org/2000/svg" width="32" height="32" viewBox="0 0 24 24">
    <path d="M 23.765625 14.761719 C 23.132812 13.917969 22.5 13.816406 21.164062 14.425781 L 20.804688 13.324219 L 20.726562 13.242188 C 20.484375 13.042969 19.726562 12.484375 19.40625 12.363281 C 19.007812 12.242188 16.605469 12.28125 16.046875 12.363281 C 15.925781 12.324219 15.605469 12.003906 15.40625 11.84375 C 14.925781 11.402344 14.40625 10.921875 13.925781 11.203125 C 13.792969 11.285156 13.285156 11.421875 12.40625 11.601562 L 12.40625 9.816406 C 13.773438 9.617188 14.808594 8.429688 14.808594 7.042969 L 14.808594 6.644531 L 14.40625 6.644531 C 13.621094 6.644531 12.914062 6.960938 12.40625 7.476562 L 12.40625 5.835938 C 13.515625 5.730469 14.40625 4.777344 14.40625 3.644531 L 14.40625 1.527344 C 14.40625 1.40625 14.367188 1.285156 14.246094 1.207031 C 14.128906 1.125 14.007812 1.125 13.886719 1.164062 L 12.40625 1.699219 L 12.40625 1.125 C 12.40625 0.925781 12.289062 0.804688 12.128906 0.765625 L 10.128906 0.046875 C 10.007812 0.0078125 9.847656 -0.0351562 9.769531 0.046875 C 9.6875 0.125 9.609375 0.246094 9.609375 0.367188 C 9.609375 0.40625 9.609375 0.445312 9.609375 0.445312 L 9.609375 3.644531 C 9.609375 4.777344 10.5 5.730469 11.609375 5.835938 L 11.609375 11.757812 C 11.394531 11.800781 11.167969 11.839844 10.929688 11.882812 C 10.6875 11.921875 10.488281 11.964844 10.449219 11.964844 C 10.25 12.003906 6.089844 13.121094 5.929688 13.164062 L 5.753906 13.234375 C 4.640625 13.375 3.5 14 2.8125 14.441406 L 2.8125 13.601562 L 0.0117188 13.601562 L 0.0117188 24 L 2.808594 24 L 2.808594 22.800781 L 8.007812 22.800781 C 8.808594 22.800781 9.648438 22.71875 10.449219 22.679688 L 15.648438 21.878906 C 15.847656 21.878906 16.046875 21.839844 16.207031 21.800781 C 16.6875 21.71875 17.125 21.480469 17.527344 21.121094 L 23.566406 16.363281 C 24.046875 15.960938 24.125 15.242188 23.765625 14.761719 Z M 13.96875 7.484375 C 13.769531 8.242188 13.207031 8.804688 12.488281 8.964844 C 12.648438 8.242188 13.207031 7.644531 13.96875 7.484375 Z M 13.609375 2.085938 L 13.609375 3.644531 C 13.609375 4.363281 13.085938 4.964844 12.40625 5.042969 L 12.40625 2.527344 Z M 10.410156 3.644531 L 10.410156 0.964844 L 11.609375 1.40625 L 11.609375 5.042969 C 10.929688 4.925781 10.410156 4.363281 10.410156 3.644531 Z M 10.570312 12.761719 C 10.609375 12.761719 10.769531 12.722656 11.007812 12.683594 C 12.6875 12.363281 13.808594 12.164062 14.207031 11.964844 C 14.367188 12.042969 14.648438 12.324219 14.847656 12.484375 C 15.328125 12.921875 15.726562 13.28125 16.167969 13.203125 C 16.648438 13.121094 18.886719 13.121094 19.167969 13.203125 C 19.328125 13.28125 19.765625 13.601562 20.167969 13.882812 L 20.464844 14.785156 L 17.125 16.84375 C 16.667969 17.109375 15.667969 17.195312 14.707031 17.199219 C 14.878906 16.847656 14.792969 16.421875 14.449219 15.921875 C 14.011719 15.292969 13.367188 14.835938 12.636719 14.605469 C 12.261719 14.472656 11.859375 14.402344 11.449219 14.402344 L 9.890625 14.402344 C 9.496094 14.402344 9.109375 14.339844 8.746094 14.226562 C 8.378906 14.097656 8.035156 13.914062 7.730469 13.683594 C 7.6875 13.644531 7.648438 13.601562 7.609375 13.601562 C 9.007812 13.203125 10.527344 12.804688 10.570312 12.761719 Z M 2.011719 23.199219 L 0.8125 23.199219 L 0.8125 14.402344 L 2.011719 14.402344 Z M 23.085938 15.761719 L 17.007812 20.480469 L 16.96875 20.519531 C 16.726562 20.800781 16.40625 20.960938 16.046875 21 C 15.886719 21.039062 15.765625 21.039062 15.605469 21.039062 L 10.328125 21.839844 C 9.570312 21.960938 8.769531 22 8.007812 22 L 2.808594 22 L 2.808594 15.402344 C 3.539062 14.886719 5.007812 14.023438 6.164062 14.007812 C 6.433594 14.019531 6.683594 14.070312 6.894531 14.144531 C 6.976562 14.183594 7.054688 14.226562 7.128906 14.28125 C 7.890625 14.882812 8.890625 15.203125 9.890625 15.203125 L 11.449219 15.203125 C 12.367188 15.203125 13.207031 15.640625 13.726562 16.363281 C 13.886719 16.601562 13.925781 16.84375 13.886719 16.921875 C 13.769531 17.121094 13.289062 17.203125 12.769531 17.242188 C 12.625 17.242188 12.480469 17.242188 12.367188 17.242188 C 12.355469 17.242188 12.339844 17.242188 12.328125 17.242188 L 8.488281 17.242188 C 7.25 17.242188 6.488281 17.839844 6.488281 18.839844 C 6.488281 19.082031 6.648438 19.242188 6.890625 19.242188 C 7.128906 19.242188 7.289062 19.082031 7.289062 18.839844 C 7.289062 18.640625 7.289062 18.042969 8.488281 18.042969 L 12.289062 18.042969 C 12.40625 18.042969 12.566406 18.042969 12.808594 18.042969 C 12.847656 18.042969 12.929688 18.042969 13.007812 18.042969 C 14.886719 18.082031 16.648438 18.042969 17.566406 17.5625 L 21.003906 15.441406 C 22.683594 14.601562 22.84375 14.800781 23.164062 15.28125 C 23.246094 15.402344 23.246094 15.640625 23.085938 15.761719 Z M 23.085938 15.761719"/>
</svg>
