<svg xmlns="http://www.w3.org/2000/svg" width="32" height="32" viewBox="0 0 24 24">
    <path d="M18.18 12.285c.199-.683-.04-1.445-.602-1.887a1.869 1.869 0 0 0-1.644-.32c-.043.04-.043.04-.082.04 0-.723-.48-1.407-1.204-1.645l-.082-.043a1.734 1.734 0 0 0-1.41.129l-.984-3.02.39-2.402c.16-.563.04-1.125-.28-1.528a1.847 1.847 0 0 0-1.446-.68c-.078 0-.152.005-.223.012C10.102.098 9.426-.03 8.95.004 7.867.125 7.266.809 7.344 1.973v.078l1 4.031-1.696 8.438c-1.156.863-1.27 1.77-1.27 3.02v.038c0 1.688 1.165 2.973 1.606 3.371v1.446A1.61 1.61 0 0 0 8.59 24h7.262c.882 0 1.566-.684 1.566-1.605V20.91c1.164-1.566 1.203-2.125 1.203-4.933 0-1.485-.402-3.172-.441-3.692zm-4.895 1.121c.043-.105.074-.215.094-.328a1.725 1.725 0 0 0-.152-1.11 2.204 2.204 0 0 0-.625-.847l.242-.703c.062-.148.12-.313.164-.484l.035-.098c.2-.524.723-.762 1.242-.602l.082.04a.98.98 0 0 1 .457.316c.156.238.2.543.106.848l-.282.804a.538.538 0 0 0-.023.102L13.258 15.3c-.246.375-.692.531-1.137.394l-.082-.043a.307.307 0 0 1-.16-.078c.684-.883 1.203-1.644 1.406-2.168zm.68 2.29l.012-.036c.058-.09.109-.187.148-.285l1.434-4.121c.097-.121.23-.223.375-.293a.598.598 0 0 1 .203-.09c.18-.039.355-.027.527.027.008.008.02.016.031.02.239.082.442.281.563.523.117.243.117.52.039.762l-1.445 4.172c-.079.242-.282.441-.52.563a1.004 1.004 0 0 1-.766.039c-.238-.079-.441-.278-.558-.52a1.014 1.014 0 0 1-.043-.762zm-1.442-6.583a.948.948 0 0 0-.242.442v.039a2.701 2.701 0 0 1-.73 1.324 4.366 4.366 0 0 1-.285.207l.636-3.914zM8.148 1.891c-.039-.68.2-1.004.961-1.082.2-.04.52 0 .797.39-.426.285-.726.785-.875 1.453l-.297 1.473zm1.684.921c.082-.32.281-1.082 1.004-1.082.32 0 .601.16.805.403.16.199.199.52.117.844l-.48 2.925-.977 5.871c-.567.407-1.68 1.239-2.676 1.997zm6.863 17.739c-.082.078-.082.16-.082.281v1.563c0 .44-.32.804-.761.804H8.59a.809.809 0 0 1-.805-.804v-1.606a.363.363 0 0 0-.16-.32s-1.402-1.203-1.441-2.848c0-1.246.074-1.812.921-2.469a.435.435 0 0 0 .122-.058c1.28-.965 2.968-2.29 3.648-2.73.05-.032.102-.06.148-.09.059-.028.125-.063.2-.106.484-.238.879-.281 1.136-.086.243.203.325.645.204 1.004-.172.41-.61 1.086-1.208 1.851-1.003 1.262-2.3 2.57-2.847 2.805-.2.078-.281.32-.2.52.04.16.2.242.36.242.043 0 .082 0 .164-.043.582-.25 1.598-1.215 2.527-2.285.137.097.29.176.442.242l.078.039c.16.04.363.078.562.078.243 0 .48-.055.7-.152.03.148.078.293.144.433.238.442.602.762 1.043.926.2.04.399.078.602.078.28 0 .562-.078.761-.16.442-.242.762-.601.922-1.043l.977-2.824c.12.652.226 1.45.226 2.184 0 2.808-.039 3.128-1.12 4.574zm0 0"/>
</svg>
