<svg xmlns="http://www.w3.org/2000/svg" width="32" height="32" viewBox="0 0 24 24">
    <path d="M22 10c-.238 0-.398.16-.398.398v2c0 .243.16.403.398.403.238 0 .398-.16.398-.403v-2c0-.238-.16-.398-.398-.398zm0 0M2.398 6.8h1.204C3.84 6.8 4 6.64 4 6.399 4 6.16 3.84 6 3.602 6H2.398C2.16 6 2 6.16 2 6.398c0 .243.16.403.398.403zm0 0M2.398 8.398h1.204C3.84 8.398 4 8.238 4 8c0-.238-.16-.398-.398-.398H2.398C2.16 7.602 2 7.762 2 8c0 .238.16.398.398.398zm0 0M3.602 13.602H2.398c-.238 0-.398.16-.398.398 0 .238.16.398.398.398h1.204c.238 0 .398-.16.398-.398 0-.238-.16-.398-.398-.398zm0 0M3.602 15.2H2.398c-.238 0-.398.16-.398.402 0 .238.16.398.398.398h1.204c.238 0 .398-.16.398-.398 0-.243-.16-.403-.398-.403zm0 0M3 9.2c-1 0-1.8.8-1.8 1.8S2 12.8 3 12.8 4.8 12 4.8 11 4 9.2 3 9.2zM3 12c-.559 0-1-.441-1-1 0-.559.441-1 1-1 .559 0 1 .441 1 1 0 .559-.441 1-1 1zm0 0"/>
    <path d="M3 10.398a.618.618 0 0 0-.602.602c0 .32.282.602.602.602s.602-.282.602-.602A.618.618 0 0 0 3 10.398zm0 0M14.398 20c.243 0 .403-.16.403-.398 0-.243-.16-.403-.403-.403h-.796c-.243 0-.403.16-.403.403 0 .238.16.398.403.398zm0 0M14.8 20.8h-1.6c-.24 0-.4.16-.4.4 0 .241.16.402.4.402h1.6c.24 0 .4-.16.4-.403 0-.238-.16-.398-.4-.398zm0 0M17.36 10.32h.16c.199-.082.32-.32.242-.52-.203-.44-.403-.84-.723-1.198-.117-.16-.398-.204-.559-.043-.16.12-.199.402-.039.562.239.277.438.598.559.957.04.16.2.242.36.242zm0 0M17.602 10.719c-.243 0-.403.16-.403.402v.04c0 .359-.039.718-.16 1.038a.398.398 0 0 0 .242.52c.04.043.078.043.117.043.16 0 .32-.121.403-.282.12-.402.199-.84.199-1.28v-.079a.4.4 0 0 0-.398-.402zm0 0M16 7.762a3.731 3.731 0 0 0-1.281-.48.413.413 0 0 0-.48.32.413.413 0 0 0 .32.476c.363.043.722.16 1.043.363.078.04.117.04.199.04.12 0 .238-.083.36-.16.077-.2.038-.442-.161-.56zm0 0M10.84 11.2v-.079c0-.2-.16-.402-.399-.402a.401.401 0 0 0-.402.402v.078c0 .442.04.88.2 1.281.042.16.202.282.363.282h.16c.199-.082.316-.32.238-.524a3.1 3.1 0 0 1-.16-1.039zm0 0M10.96 8.602c-.32.32-.562.718-.722 1.16-.078.199.043.437.242.52.079.038.122.038.16.038.16 0 .32-.12.36-.242.121-.36.32-.68.559-.957.16-.16.12-.402-.04-.562-.16-.16-.398-.118-.558.043zm0 0M13.32 7.238a3.93 3.93 0 0 0-1.28.48c-.2.122-.278.36-.161.563.082.117.242.2.36.2a.62.62 0 0 0 .202-.083c.32-.16.68-.277 1.04-.359.199-.039.359-.277.32-.48a.417.417 0 0 0-.48-.32zm0 0"/>
    <path d="M22.078 1.602H1.961C.879 1.602 0 2.48 0 3.559V18.44c0 1.079.879 1.957 1.96 1.957h9.24V22c0 .238.16.398.402.398.238 0 .398-.16.398-.398v-8.031a.38.38 0 0 0 0-.133v-1.438c0-.437.16-.84.398-1.199v2.403h3.204v-2.403c.238.36.398.762.398 1.2V22c0 .238.16.398.398.398.243 0 .403-.16.403-.359v-1.598h5.238c1.082 0 1.961-.882 1.961-1.96V3.558c0-1.079-.879-1.957-1.922-1.957zM.801 5.199h4.398v11.602H.801zm1.16 14.403c-.64 0-1.16-.524-1.16-1.122v-.878h10.398v2zM14.8 12.8h-1.602v-2.403l.016-.14A.797.797 0 0 1 14 9.602c.41 0 .75.312.797.71v.012c0 .024.004.051.004.074zm2 1.277c.133-.133.258-.265.36-.398.12-.16.077-.442-.083-.559a.376.376 0 0 0-.277-.066v-.614c0-.933-.453-1.832-1.23-2.34A1.605 1.605 0 0 0 14 8.802c-.766 0-1.414.547-1.566 1.27-.746.534-1.235 1.398-1.235 2.327v.641a.58.58 0 0 0-.238.082c-.2.117-.2.399-.082.559.09.12.203.238.32.36v2.76H6V5.2h14v11.6h-3.2zm6.398 4.363c0 .637-.52 1.16-1.16 1.16h-5.238v-2h4V4.399H.8v-.84c0-.636.52-1.16 1.16-1.16h20.078c.64 0 1.16.524 1.16 1.16zm0 0"/>
    <path d="M8.68 5.719a.385.385 0 0 0-.559 0L6.52 7.32a.385.385 0 0 0 0 .559c.082.082.16.121.28.121.122 0 .2-.04.278-.121L8.68 6.28a.39.39 0 0 0 0-.562zm0 0M7.32 8.52l-.8.8a.385.385 0 0 0 0 .559c.082.082.16.121.28.121.122 0 .2-.04.278-.121l.8-.8a.385.385 0 0 0 0-.56.385.385 0 0 0-.558 0zm0 0M10.68 5.719a.385.385 0 0 0-.559 0l-1.2 1.203a.385.385 0 0 0 0 .558.36.36 0 0 0 .278.122c.121 0 .2-.043.281-.122l1.2-1.199a.39.39 0 0 0 0-.562zm0 0"/>
</svg>
