<svg xmlns="http://www.w3.org/2000/svg" width="32" height="32" viewBox="0 0 24 24">
    <path d="M9.36 3.2l.16-.24-.16-.198C8.237 1 6.558 0 4.84 0 3.12 0 1.44 1 .32 2.8L.16 3l.16.2c1.121 1.76 2.801 2.76 4.52 2.76 1.719 0 3.398-1 4.52-2.76zM6.04 2c0 .68-.52 1.2-1.2 1.2-.68 0-1.2-.52-1.2-1.2 0-.68.52-1.2 1.2-1.2.68 0 1.2.52 1.2 1.2zm-4.919.96c.535-.73 1.16-1.296 1.844-1.667A2.009 2.009 0 0 0 2.84 2c0 1.121.879 2 2 2 1.12 0 2-.879 2-2 0-.25-.043-.488-.125-.707.683.371 1.308.937 1.844 1.668-1 1.36-2.32 2.16-3.72 2.16-1.398 0-2.718-.762-3.718-2.16zm0 0"/>
    <path d="M21.84 8.398c-.442 0-.88.16-1.2.403v-.403c0-1.117-.878-2-2-2-.44 0-.878.16-1.199.403 0-1.121-.882-2-2-2-.441 0-.882.16-1.203.398V2c0-1.121-.879-2-2-2-1.117 0-2 .879-2 2v9.078C9.36 9.558 7.32 8.801 5.762 9.36c-.203.04-.364.16-.563.282-.597.398-.558.918-.558 1.078-.04.242 0 .281.558.922.68.8 2.16 2.48 3.082 4.16.078.078 1.16 1.84 2.36 3.16V20c0 2.2 1.8 4 4 4h4c1.718 0 3.52-1.441 3.918-3.121.12-.48.242-.84.402-1 .398-.48.879-1.598.879-3.078v-6.403c0-1.117-.88-2-2-2zM18.68 23.2h-4A3.208 3.208 0 0 1 11.48 20v-.363c.079.058.157.113.239.164.242.199.441.32.68.52.242.238.48.038.523-.083.156-.16.117-.398-.043-.558-.238-.239-.48-.399-.719-.559a13.02 13.02 0 0 1-.832-.633C10.141 17.246 9 15.398 9 15.398c-.96-1.718-2.48-3.437-3.2-4.277a6.66 6.66 0 0 0-.359-.441c0-.121 0-.2.278-.36.16-.082.281-.16.402-.199 1.04-.36 2.758.117 3.52 1.438l.617.93a.248.248 0 0 0 .023.07l.399.8c.082.16.48.243.52.16.16-.078.241-.32.16-.519l-.282-.563V2c0-.68.524-1.2 1.203-1.2.68 0 1.2.52 1.2 1.2v11.2c0 .241.16.402.398.402.242 0 .402-.16.402-.403V6.801c0-.68.52-1.2 1.2-1.2.68 0 1.199.52 1.199 1.2v6c0 .238.16.398.398.398.242 0 .402-.16.402-.398V8.398c0-.68.52-1.199 1.2-1.199.68 0 1.199.52 1.199 1.2v4.8c0 .242.16.403.402.403.239 0 .399-.16.399-.403v-2.8c0-.68.52-1.2 1.199-1.2.68 0 1.2.52 1.2 1.2V16.8c0 .742-.142 1.344-.313 1.781a.45.45 0 0 0-.086.137c-.16.52-.64.64-1.52.883l-.242.039c-.2.039-.316.28-.277.48.078.16.238.277.398.277h.321c.183-.046.367-.097.546-.152-.039.137-.074.281-.105.434-.281 1.36-1.762 2.52-3.121 2.52zm0 0"/>
</svg>
