<svg xmlns="http://www.w3.org/2000/svg" width="32" height="32" viewBox="0 0 24 24">
    <path d="M 5.765625 7.398438 C 5.847656 7.398438 5.886719 7.398438 5.925781 7.359375 C 6.164062 7.28125 6.246094 7.039062 6.164062 6.839844 C 5.925781 6.238281 5.886719 5.640625 5.886719 5.199219 C 5.886719 2.761719 7.847656 0.800781 10.246094 0.839844 C 12.644531 0.839844 14.605469 2.800781 14.605469 5.238281 C 14.605469 5.839844 14.484375 6.398438 14.285156 6.878906 C 14.207031 7.082031 14.324219 7.320312 14.527344 7.398438 C 14.726562 7.480469 14.964844 7.359375 15.046875 7.160156 C 15.285156 6.558594 15.40625 5.878906 15.40625 5.199219 C 15.40625 2.320312 13.085938 0 10.246094 0 C 7.40625 0 5.085938 2.320312 5.085938 5.199219 C 5.085938 5.71875 5.125 6.441406 5.40625 7.160156 C 5.445312 7.320312 5.605469 7.398438 5.765625 7.398438 Z M 5.765625 7.398438"/>
    <path d="M 13.046875 6.800781 C 13.246094 6.878906 13.484375 6.761719 13.566406 6.558594 C 13.726562 6.160156 13.804688 5.679688 13.804688 5.199219 C 13.804688 3.199219 12.207031 1.601562 10.246094 1.601562 C 8.285156 1.601562 6.6875 3.199219 6.6875 5.199219 C 6.6875 5.601562 6.6875 6.078125 6.886719 6.558594 C 6.925781 6.71875 7.085938 6.800781 7.246094 6.800781 C 7.285156 6.800781 7.367188 6.800781 7.40625 6.800781 C 7.644531 6.71875 7.726562 6.480469 7.644531 6.28125 C 7.484375 5.960938 7.484375 5.558594 7.484375 5.238281 C 7.484375 3.679688 8.726562 2.441406 10.246094 2.441406 C 11.765625 2.441406 13.003906 3.679688 13.003906 5.238281 C 13.003906 5.640625 12.925781 5.960938 12.804688 6.28125 C 12.726562 6.480469 12.847656 6.71875 13.046875 6.800781 Z M 13.046875 6.800781"/>
    <path d="M 20.40625 12.601562 C 20.40625 11.601562 19.605469 10.800781 18.605469 10.800781 C 18.246094 10.800781 17.886719 10.921875 17.605469 11.121094 L 17.605469 11 C 17.605469 10 16.804688 9.199219 15.804688 9.199219 C 15.445312 9.199219 15.085938 9.320312 14.804688 9.519531 L 14.804688 9.398438 C 14.804688 8.398438 14.003906 7.601562 13.003906 7.601562 C 12.644531 7.601562 12.285156 7.71875 12.003906 7.921875 L 12.003906 5.121094 C 12.003906 4.121094 11.207031 3.28125 10.207031 3.28125 C 9.207031 3.28125 8.40625 4.121094 8.40625 5.121094 L 8.40625 12.558594 C 7.566406 11.320312 5.886719 10.679688 4.605469 11.199219 C 4.40625 11.28125 4.246094 11.398438 4.125 11.441406 C 3.566406 11.839844 3.605469 12.28125 3.605469 12.441406 C 3.566406 12.679688 3.605469 12.71875 4.125 13.320312 C 4.726562 14.039062 6.003906 15.558594 6.804688 17.078125 C 6.847656 17.121094 7.804688 18.601562 8.847656 19.761719 L 8.847656 20.800781 C 8.847656 22.679688 10.285156 24 12.40625 24 L 15.964844 24 C 17.644531 24 18.964844 23.039062 19.285156 21.558594 C 19.367188 21.183594 19.445312 20.953125 19.515625 20.816406 C 19.695312 20.664062 19.867188 20.464844 20.003906 20.199219 C 20.0625 20.105469 20.074219 20.003906 20.050781 19.910156 C 20.25 19.40625 20.40625 18.726562 20.40625 17.921875 Z M 15.925781 23.199219 L 12.367188 23.199219 C 11.003906 23.199219 9.605469 22.441406 9.605469 20.800781 L 9.605469 20.40625 C 9.695312 20.476562 9.789062 20.539062 9.886719 20.601562 C 10.125 20.800781 10.324219 20.921875 10.566406 21.121094 C 10.644531 21.160156 10.726562 21.199219 10.804688 21.199219 C 10.925781 21.199219 11.046875 21.160156 11.085938 21.039062 C 11.246094 20.878906 11.207031 20.640625 11.046875 20.480469 C 10.804688 20.238281 10.566406 20.078125 10.324219 19.921875 C 10.050781 19.722656 9.777344 19.527344 9.5 19.292969 C 8.46875 18.175781 7.484375 16.640625 7.484375 16.640625 C 6.644531 15.078125 5.324219 13.519531 4.726562 12.761719 C 4.605469 12.640625 4.484375 12.480469 4.40625 12.398438 C 4.40625 12.320312 4.40625 12.238281 4.566406 12.121094 C 4.726562 12.039062 4.804688 12 4.886719 11.960938 C 5.765625 11.601562 7.246094 12.078125 7.886719 13.199219 L 8.390625 14.042969 C 8.398438 14.097656 8.414062 14.148438 8.445312 14.199219 L 8.886719 15 C 8.964844 15.121094 9.085938 15.199219 9.246094 15.199219 C 9.324219 15.199219 9.367188 15.199219 9.445312 15.160156 C 9.644531 15.039062 9.726562 14.800781 9.605469 14.601562 L 9.207031 13.871094 L 9.207031 5.121094 C 9.207031 4.558594 9.644531 4.078125 10.207031 4.078125 C 10.765625 4.078125 11.207031 4.558594 11.207031 5.121094 L 11.207031 14.28125 C 11.207031 14.519531 11.367188 14.679688 11.605469 14.679688 C 11.847656 14.679688 12.003906 14.480469 12.003906 14.28125 L 12.003906 9.398438 C 12.003906 8.839844 12.445312 8.398438 13.003906 8.398438 C 13.566406 8.398438 14.003906 8.839844 14.003906 9.398438 L 14.003906 13.878906 C 14.003906 14.121094 14.164062 14.28125 14.40625 14.28125 C 14.644531 14.28125 14.804688 14.078125 14.804688 13.878906 L 14.804688 11 C 14.804688 10.441406 15.246094 10 15.804688 10 C 16.367188 10 16.804688 10.441406 16.804688 11 L 16.804688 14.199219 C 16.804688 14.441406 16.964844 14.601562 17.207031 14.601562 C 17.445312 14.601562 17.605469 14.398438 17.605469 14.199219 L 17.605469 12.601562 C 17.605469 12.039062 18.003906 11.601562 18.566406 11.601562 C 19.125 11.601562 19.566406 12.039062 19.566406 12.601562 L 19.566406 17.878906 C 19.566406 19.121094 19.164062 19.921875 18.964844 20.160156 C 18.953125 20.171875 18.941406 20.1875 18.933594 20.199219 C 18.730469 20.367188 18.507812 20.476562 18.285156 20.601562 C 18.125 20.679688 17.964844 20.761719 17.804688 20.878906 C 17.605469 21 17.566406 21.238281 17.6875 21.441406 C 17.765625 21.519531 17.886719 21.601562 18.003906 21.601562 C 18.085938 21.601562 18.164062 21.558594 18.285156 21.519531 C 18.335938 21.488281 18.382812 21.460938 18.4375 21.4375 C 18.140625 22.726562 16.917969 23.199219 15.925781 23.199219 Z M 15.925781 23.199219"/>
</svg>
