<svg xmlns="http://www.w3.org/2000/svg" width="32" height="32" viewBox="0 0 24 24">
    <path d="M3.480469 1.878906L4 1.359375 4 2.800781C4 3.039062 4.160156 3.199219 4.398438 3.199219 4.640625 3.199219 4.800781 3.039062 4.800781 2.800781L4.800781 1.359375 5.320312 1.878906C5.398438 1.960938 5.480469 2 5.601562 2 5.71875 2 5.800781 1.960938 5.878906 1.878906 6.039062 1.71875 6.039062 1.480469 5.878906 1.320312L4.679688.121094C4.519531-.0390625 4.28125-.0390625 4.121094.121094L2.917969 1.320312C2.761719 1.480469 2.761719 1.71875 2.917969 1.878906 3.078125 2.039062 3.320312 2.039062 3.480469 1.878906zM5.878906 6.921875C5.71875 6.761719 5.480469 6.761719 5.320312 6.921875L4.800781 7.441406 4.800781 6C4.800781 5.761719 4.640625 5.601562 4.398438 5.601562 4.160156 5.601562 4 5.761719 4 6L4 7.441406 3.480469 6.921875C3.320312 6.761719 3.078125 6.761719 2.921875 6.921875 2.761719 7.078125 2.761719 7.320312 2.921875 7.480469L4.121094 8.679688C4.199219 8.761719 4.28125 8.800781 4.398438 8.800781 4.519531 8.800781 4.601562 8.761719 4.679688 8.679688L5.878906 7.480469C6.039062 7.320312 6.039062 7.078125 5.878906 6.921875zM1.359375 4.800781L2.800781 4.800781C3.039062 4.800781 3.199219 4.640625 3.199219 4.398438 3.199219 4.160156 3.039062 4 2.800781 4L1.359375 4 1.878906 3.480469C2.039062 3.320312 2.039062 3.078125 1.878906 2.921875 1.71875 2.761719 1.480469 2.761719 1.320312 2.921875L.121094 4.121094C-.0390625 4.28125-.0390625 4.519531.121094 4.679688L1.320312 5.878906C1.398438 5.960938 1.480469 6 1.601562 6 1.71875 6 1.800781 5.960938 1.878906 5.878906 2.039062 5.71875 2.039062 5.480469 1.878906 5.320312zM7.441406 4L6 4C5.761719 4 5.601562 4.160156 5.601562 4.398438 5.601562 4.640625 5.761719 4.800781 6 4.800781L7.441406 4.800781 6.921875 5.320312C6.761719 5.480469 6.761719 5.71875 6.921875 5.878906 7 5.960938 7.078125 6 7.199219 6 7.320312 6 7.398438 5.960938 7.480469 5.878906L8.679688 4.679688C8.839844 4.519531 8.839844 4.28125 8.679688 4.121094L7.480469 2.921875C7.320312 2.761719 7.078125 2.761719 6.921875 2.921875 6.761719 3.078125 6.761719 3.320312 6.921875 3.480469zM7.441406 4"/>
    <path d="M 22 8.398438 C 21.558594 8.398438 21.121094 8.558594 20.800781 8.800781 L 20.800781 8.398438 C 20.800781 7.28125 19.921875 6.398438 18.800781 6.398438 C 18.359375 6.398438 17.921875 6.558594 17.601562 6.800781 C 17.601562 5.679688 16.71875 4.800781 15.601562 4.800781 C 15.160156 4.800781 14.71875 4.960938 14.398438 5.199219 L 14.398438 2 C 14.398438 0.878906 13.519531 0 12.398438 0 C 11.28125 0 10.398438 0.878906 10.398438 2 L 10.398438 11.078125 C 9.519531 9.558594 7.480469 8.800781 5.921875 9.359375 C 5.71875 9.398438 5.558594 9.519531 5.359375 9.640625 C 4.761719 10.039062 4.800781 10.558594 4.800781 10.71875 C 4.761719 10.960938 4.800781 11 5.359375 11.640625 C 6.039062 12.441406 7.519531 14.121094 8.441406 15.800781 C 8.519531 15.878906 9.601562 17.640625 10.800781 18.960938 L 10.800781 20 C 10.800781 22.199219 12.601562 24 14.800781 24 L 18.800781 24 C 20.519531 24 22.320312 22.558594 22.71875 20.878906 C 22.839844 20.398438 22.960938 20.039062 23.121094 19.878906 C 23.519531 19.398438 24 18.28125 24 16.800781 L 24 10.398438 C 24 9.28125 23.121094 8.398438 22 8.398438 Z M 18.839844 23.199219 L 14.839844 23.199219 C 13.078125 23.199219 11.640625 21.761719 11.640625 20 L 11.640625 19.636719 C 11.71875 19.695312 11.796875 19.75 11.878906 19.800781 C 12.121094 20 12.320312 20.121094 12.558594 20.320312 C 12.640625 20.359375 12.71875 20.398438 12.800781 20.398438 C 12.921875 20.398438 13.039062 20.359375 13.078125 20.238281 C 13.238281 20.078125 13.199219 19.839844 13.039062 19.679688 C 12.800781 19.441406 12.558594 19.28125 12.320312 19.121094 C 12.042969 18.921875 11.765625 18.722656 11.488281 18.488281 C 10.300781 17.246094 9.160156 15.398438 9.160156 15.398438 C 8.199219 13.679688 6.679688 11.960938 5.960938 11.121094 C 5.839844 10.960938 5.679688 10.761719 5.601562 10.679688 C 5.601562 10.558594 5.601562 10.480469 5.878906 10.320312 C 6.039062 10.238281 6.160156 10.160156 6.28125 10.121094 C 7.320312 9.761719 9.039062 10.238281 9.800781 11.558594 L 10.417969 12.488281 C 10.421875 12.511719 10.429688 12.535156 10.441406 12.558594 L 10.839844 13.359375 C 10.917969 13.519531 11.039062 13.601562 11.199219 13.601562 C 11.28125 13.601562 11.320312 13.601562 11.359375 13.519531 C 11.519531 13.441406 11.601562 13.199219 11.519531 13 L 11.238281 12.4375 C 11.238281 12.421875 11.238281 12.410156 11.238281 12.398438 L 11.238281 2 C 11.238281 1.320312 11.761719 0.800781 12.441406 0.800781 C 13.121094 0.800781 13.640625 1.320312 13.640625 2 L 13.640625 13.199219 C 13.640625 13.441406 13.800781 13.601562 14.039062 13.601562 C 14.28125 13.601562 14.441406 13.441406 14.441406 13.199219 L 14.441406 6.800781 C 14.441406 6.121094 14.960938 5.601562 15.640625 5.601562 C 16.320312 5.601562 16.839844 6.121094 16.839844 6.800781 L 16.839844 12.800781 C 16.839844 13.039062 17 13.199219 17.238281 13.199219 C 17.480469 13.199219 17.640625 13.039062 17.640625 12.800781 L 17.640625 8.398438 C 17.640625 7.71875 18.160156 7.199219 18.839844 7.199219 C 19.519531 7.199219 20.039062 7.71875 20.039062 8.398438 L 20.039062 13.199219 C 20.039062 13.441406 20.199219 13.601562 20.441406 13.601562 C 20.679688 13.601562 20.839844 13.441406 20.839844 13.199219 L 20.839844 10.398438 C 20.839844 9.71875 21.359375 9.199219 22.039062 9.199219 C 22.71875 9.199219 23.238281 9.71875 23.238281 10.398438 L 23.238281 16.800781 C 23.238281 17.542969 23.097656 18.144531 22.925781 18.582031 C 22.890625 18.621094 22.859375 18.667969 22.839844 18.71875 C 22.679688 19.238281 22.199219 19.359375 21.320312 19.601562 L 21.078125 19.640625 C 20.878906 19.679688 20.757812 19.921875 20.800781 20.121094 C 20.878906 20.28125 21.039062 20.398438 21.199219 20.398438 C 21.238281 20.398438 21.28125 20.398438 21.320312 20.398438 L 21.519531 20.398438 C 21.703125 20.351562 21.886719 20.300781 22.066406 20.246094 C 22.027344 20.382812 21.988281 20.527344 21.960938 20.679688 C 21.679688 22.039062 20.199219 23.199219 18.839844 23.199219 Z M 18.839844 23.199219"/>
</svg>
