<svg xmlns="http://www.w3.org/2000/svg" width="32" height="32" viewBox="0 0 24 24">
    <path d="M20.258 8.125a2.022 2.022 0 0 0-1.2.117l1.04-3.719c.242-.84-.078-1.757-.797-2.199a2.03 2.03 0 0 0-1.082-.32c-1.2 0-1.758 1.32-1.961 1.84l-1.238 3.68v-5.52c0-1.04-.801-1.918-1.84-2-.598-.04-1.16.16-1.559.52-.398.363-.601.882-.601 1.48v5.918l-1-3.52c-.079-.277-.16-.558-.2-.879l-.039-.32c-.199-.957-.96-1.598-1.96-1.598-.88 0-1.598.52-1.88 1.32-.12.321-.12.68-.039 1.079l1.48 6.48c-1-1.12-2.722-1.601-4.038-1.12-.203.038-.36.16-.563.28-.597.399-.558.918-.558 1.079-.04.238 0 .28.558.918.68.8 2.16 2.48 3.082 4.16.04.082 1.16 1.879 2.399 3.199l.718 2.2a4.088 4.088 0 0 0 3.88 2.8h3.359c1.718 0 3.52-1.441 3.922-3.121.117-.477.238-.84.398-1 .398-.477.879-1.598.879-3.078v-4.758l.32-1.48c.239-1.122-.398-2.2-1.48-2.438zm.68 2.277l-.32 1.52V16.8c0 1.36-.477 2.242-.72 2.52-.046.054-.09.116-.132.183-.153.09-.36.164-.547.219-.282.078-.559.199-.801.359-.2.117-.238.36-.117.559.078.082.199.16.316.16.082 0 .16-.04.242-.04.106-.105.305-.183.516-.253l-.035.172c-.281 1.36-1.762 2.52-3.121 2.52h-3.32a3.279 3.279 0 0 1-3.118-2.24l-.351-1.058c.183.145.355.254.55.418.082.04.16.082.243.082.117 0 .238-.043.277-.16.16-.16.121-.402-.04-.562-.237-.239-.48-.399-.718-.559-.277-.2-.555-.394-.832-.633-1.187-1.238-2.328-3.086-2.328-3.086-.96-1.718-2.48-3.441-3.2-4.28a5.586 5.586 0 0 0-.359-.438c0-.121 0-.2.239-.403.16-.078.281-.16.402-.199 1.04-.36 2.758.121 3.516 1.441l.668 1 .011.04.403.8c.078.16.199.239.36.239.077 0 .12 0 .16-.079.16-.082.238-.32.16-.52l-.313-.624a.23.23 0 0 0-.008-.055l-1.918-8.52c-.082-.241-.082-.48 0-.64.16-.441.598-.758 1.117-.758.64 0 1.04.36 1.16 1l.04.278c.043.32.12.64.203.96l1.797 6.278c.039.2.242.32.44.281.2-.039.36-.2.36-.398V2.004c0-.36.121-.68.36-.879.242-.238.558-.36.96-.32.598.039 1.079.558 1.079 1.199v8c0 .2.12.36.32.398.2 0 .36-.078.441-.28l2-5.997c.118-.32.56-1.32 1.239-1.32.242 0 .441.078.64.199.399.242.598.8.438 1.32l-1.879 6.758c0 .121.043.2.082.32.04.121.121.16.238.2.2.043.442-.079.48-.278l.4-1.48c.16-.64.8-1.082 1.44-.922.641.121 1.04.762.88 1.48zm0 0"/>
</svg>
