<svg xmlns="http://www.w3.org/2000/svg" width="32" height="32" viewBox="0 0 24 24">
    <path d="M4.879 1.879l.52-.52v1.442c0 .238.16.398.402.398.238 0 .398-.16.398-.398V1.359l.52.52C6.8 1.96 6.879 2 7 2c.121 0 .2-.04.281-.121a.385.385 0 0 0 0-.559L6.148.187A.38.38 0 0 0 5.801 0c-.16 0-.285.07-.348.188L4.32 1.32a.385.385 0 0 0 0 .559c.16.16.399.16.559 0zm0 0M6.719 6.922l-.52.52V6c0-.238-.16-.398-.398-.398-.242 0-.403.16-.403.398v1.441l-.52-.52a.385.385 0 0 0-.558 0 .385.385 0 0 0 0 .56l1.133 1.132c.063.117.188.188.348.188a.38.38 0 0 0 .347-.188L7.281 7.48a.385.385 0 0 0 0-.558.39.39 0 0 0-.562 0zm0 0M2.762 4.8h1.437c.242 0 .403-.16.403-.402 0-.238-.16-.398-.403-.398H2.762l.52-.52a.385.385 0 0 0 0-.558.39.39 0 0 0-.563 0L1.589 4.05a.386.386 0 0 0-.19.347c0 .16.074.286.19.352l1.13 1.129C2.8 5.96 2.879 6 3 6c.121 0 .2-.04.281-.121a.385.385 0 0 0 0-.559zm0 0M10.2 4.398a.383.383 0 0 0-.188-.347L8.879 2.92a.385.385 0 0 0-.559 0 .385.385 0 0 0 0 .56L8.84 4H7.398C7.16 4 7 4.16 7 4.398c0 .243.16.403.398.403H8.84l-.52.52a.385.385 0 0 0 0 .558c.078.082.16.121.282.121.117 0 .199-.04.277-.121l1.133-1.129c.117-.066.187-.191.187-.352zm0 0M16.602 3.2c-3.32 0-6 2.679-6 6V18c0 3.32 2.68 6 6 6s6-2.68 6-6V9.2c0-3.321-2.68-6-6-6zM21.8 18a5.19 5.19 0 0 1-5.2 5.2 5.19 5.19 0 0 1-5.203-5.2V9.2A5.19 5.19 0 0 1 16.602 4 5.19 5.19 0 0 1 21.8 9.2zm0 0"/>
    <path d="M16.602 4.8a4.389 4.389 0 0 0-4.403 4.4v4.402H21V9.199a4.388 4.388 0 0 0-4.398-4.398zm3.597 8H13V9.2c0-2 1.602-3.598 3.602-3.598 2 0 3.597 1.597 3.597 3.597zm0 0M20.602 16.398h-8c-.243 0-.403.16-.403.403 0 .238.16.398.403.398h8c.238 0 .398-.16.398-.398 0-.242-.16-.403-.398-.403zm0 0M20.602 18h-8c-.243 0-.403.16-.403.398 0 .243.16.403.403.403h8c.238 0 .398-.16.398-.403 0-.238-.16-.398-.398-.398zm0 0"/>
</svg>
