<svg xmlns="http://www.w3.org/2000/svg" width="32" height="32" viewBox="0 0 24 24">
    <path d="M20.54 8.281c-.602-.242-1.204-.16-1.724.117-.039-.796-.52-1.52-1.277-1.796a1.998 1.998 0 0 0-1.723.16h-.039l.801-4.723c.078-.64-.082-1.117-.402-1.48-.36-.36-.88-.559-1.598-.559-1.043 0-1.762.68-2 1.922l-.8 6-.801-5.442c-.239-1.8-1.36-2.082-2-2.082-.598 0-1.2.243-1.559.641-.36.36-.48.84-.441 1.402l1.039 8.88c-.16-.243-.36-.442-.559-.68l-.039-.04c-1-1.203-2.8-1.722-4.121-1.242-.2.04-.36.16-.559.282-.601.398-.562.918-.562 1.078-.04.242 0 .281.562.922.68.8 2.16 2.48 3.078 4.16.04.078 1.16 1.879 2.403 3.199l.719 2.2a4.084 4.084 0 0 0 3.878 2.8h3.36c1.722 0 3.52-1.441 3.922-3.121.16-.64.32-.879.398-1 .402-.48.883-1.598.883-3.078v-3.602c0-.52.039-1.039.2-1.48l.237-1.2c.122-.96-.398-1.917-1.277-2.238zm.437 2.04l-.239 1.199a7.895 7.895 0 0 0-.16 1.68v3.6c0 1.36-.48 2.24-.723 2.52a2.199 2.199 0 0 0-.144.2c-.125.097-.25.16-.414.242-.16.078-.32.199-.52.316-.199.121-.242.363-.12.563.081.078.198.16.32.16.082 0 .16-.04.242-.082.027-.012.054-.028.078-.04-.281 1.36-1.762 2.52-3.121 2.52h-3.32a3.275 3.275 0 0 1-3.118-2.238l-.355-1.059c.187.145.36.254.555.418a.57.57 0 0 0 .238.078c.12 0 .242-.039.281-.16.16-.16.121-.398-.039-.558a4.504 4.504 0 0 0-.723-.559c-.277-.2-.55-.398-.828-.633-1.191-1.242-2.332-3.09-2.332-3.09-.957-1.718-2.476-3.437-3.2-4.277a4.841 4.841 0 0 0-.358-.441c0-.121 0-.2.199-.32.16-.079.281-.16.402-.2 1-.398 2.438.078 3.238 1l.04.04c.28.32.601.679.921 1l.453.39.387.77c.078.16.2.242.36.242.082 0 .12 0 .16-.082.16-.079.242-.32.16-.52l-.32-.64-1.2-10a.882.882 0 0 1 .239-.758c.203-.243.562-.403.96-.403.442 0 1.04.16 1.2 1.403l1.199 8.277c.043.2.203.36.402.36.2 0 .36-.16.399-.36l1.199-8.8C13.617.8 14.335.8 14.578.8c.48 0 .797.12 1 .32.16.2.238.48.2.84l-1.602 9.598c-.04.203.12.402.32.441a.415.415 0 0 0 .48-.32l.602-3.48c.078-.36.277-.641.598-.84.32-.16.68-.2 1.043-.079.52.2.84.758.758 1.36l-.16 1.12v.04l-.282 1.96v.04c-.039.199.121.398.32.437.204.043.403-.117.442-.32l.32-2c.04-.36.238-.637.559-.84.32-.16.68-.2 1.043-.078.52.2.84.762.758 1.32zm0 0"/>
</svg>
