<svg xmlns="http://www.w3.org/2000/svg" width="32" height="32" viewBox="0 0 24 24">
    <path d="M18.414 9.2c-.36 0-.719.12-1 .359v-.36c0-.96-.758-2-1.8-2-.36 0-.72.121-1 .36V3.602c0-.48-.2-.961-.52-1.364a1.666 1.666 0 0 0-1.278-.636c-.761 0-1.402.597-1.722 1.277a1.609 1.609 0 0 0-1.117-.48c-1.043 0-1.801 1.042-1.801 2v6.84c-.36-.759-.84-1.477-1.32-1.958-.641-.64-1.922-.68-2.641-.082-.2.2-.88.922.039 2.2.84 1.16 1.242 3.601 1.48 5.042l.082.399c.52 3 2.118 3.96 2.797 4.238v2.524c0 .238.16.398.403.398.238 0 .398-.16.398-.398V20.8c0-.2-.117-.36-.32-.403-.078-.039-1.918-.476-2.48-3.68l-.079-.398c-.281-1.64-.68-4.082-1.601-5.36-.278-.358-.52-.839-.16-1.12.402-.32 1.203-.32 1.562.039 1 1 1.879 3.121 1.879 4.121 0 .238.16.398.398.398.242 0 .403-.16.403-.398V4.398c0-.558.437-1.199 1-1.199.558 0 1 .64 1 1.2v7.203c0 .238.16.398.398.398.242 0 .402-.16.402-.398v-8c0-.563.438-1.204 1-1.204.32 0 .559.243.68.364.2.238.32.558.32.84V12c0 .238.16.398.399.398.238 0 .398-.16.398-.398V9.2c0-.56.442-1.2 1-1.2.563 0 1 .64 1 1.2V12.8c0 .238.16.398.403.398.238 0 .398-.16.398-.398v-1.68c.04-.52.48-1.121 1-1.121.563 0 1 .64 1 1.2v5.6c0 2.36 0 2.36-.559 3.079-.16.16-.32.402-.562.68-.078.082-.078.203-.078.28v2.763c0 .238.16.398.398.398.242 0 .403-.16.403-.36v-2.68c.16-.241.32-.401.437-.562.762-.918.762-1.039.762-3.597v-5.602c0-.96-.762-2-1.8-2zm0 0"/>
    <path d="M12.934 0c-.88 0-1.68.32-2.278.922A3.35 3.35 0 0 0 9.734.8 3.208 3.208 0 0 0 6.535 4c0 .16 0 .281.04.441 0 .239.241.399.44.36.2-.04.36-.242.36-.48-.04-.083-.04-.2-.04-.321a2.404 2.404 0 0 1 2.4-2.398c.28 0 .562.039.878.16.082.039.16.039.242.039.16 0 .282-.121.32-.242A2.374 2.374 0 0 1 12.935.8a2.407 2.407 0 0 1 2.402 2.398c0 .36-.082.723-.242 1.04-.078.202 0 .44.203.523.039.039.117.039.156.039a.493.493 0 0 0 .363-.2c.2-.44.32-.921.32-1.402 0-1.758-1.44-3.199-3.202-3.199zm0 0M14.215 19.602h-1.2c-.242 0-.402.16-.402.398 0 .238.16.398.403.398h1.199c.238 0 .398-.16.398-.398 0-.238-.16-.398-.398-.398zm0 0M14.613 21.2h-2c-.238 0-.398.16-.398.402 0 .238.16.398.398.398h2c.242 0 .403-.16.403-.398 0-.243-.16-.403-.403-.403zm0 0"/>
</svg>
