<svg xmlns="http://www.w3.org/2000/svg" width="32" height="32" viewBox="0 0 24 24">
    <path d="M 18.640625 11.199219 C 18.238281 11.199219 17.878906 11.359375 17.601562 11.601562 C 17.601562 10.640625 16.878906 9.601562 15.839844 9.601562 C 15.441406 9.601562 15.078125 9.761719 14.800781 10 C 14.800781 9.039062 14.078125 8 13.039062 8 C 12.640625 8 12.28125 8.160156 12 8.398438 L 12 3.601562 C 12 2.640625 11.28125 1.601562 10.238281 1.601562 C 9.199219 1.601562 8.398438 2.640625 8.398438 3.601562 L 8.398438 13.199219 C 8.039062 12.480469 7.601562 11.800781 7.078125 11.320312 C 6.359375 10.601562 5.121094 10.519531 4.398438 11.121094 C 4.160156 11.320312 3.480469 12.078125 4.480469 13.441406 C 5.320312 14.601562 5.71875 17.039062 5.960938 18.480469 L 6.039062 18.878906 C 6.558594 21.839844 8.121094 22.800781 8.800781 23.078125 L 8.800781 23.601562 C 8.800781 23.839844 8.960938 24 9.199219 24 C 9.441406 24 9.601562 23.839844 9.601562 23.601562 L 9.601562 22.800781 C 9.601562 22.601562 9.480469 22.441406 9.28125 22.398438 C 9.199219 22.359375 7.398438 21.921875 6.839844 18.71875 L 6.761719 18.320312 C 6.480469 16.71875 6.078125 14.238281 5.160156 12.960938 C 4.917969 12.640625 4.601562 12.039062 4.960938 11.71875 C 5.320312 11.441406 6.121094 11.441406 6.558594 11.878906 C 7.519531 12.839844 8.398438 15 8.398438 16 C 8.398438 16.238281 8.558594 16.398438 8.800781 16.398438 C 9.039062 16.398438 9.199219 16.238281 9.199219 16 L 9.199219 3.601562 C 9.199219 3 9.71875 2.398438 10.238281 2.398438 C 10.800781 2.398438 11.199219 3.039062 11.199219 3.601562 L 11.199219 13.601562 C 11.199219 13.839844 11.359375 14 11.601562 14 C 11.839844 14 12 13.839844 12 13.601562 L 12 10 C 12 9.398438 12.519531 8.800781 13.039062 8.800781 C 13.601562 8.800781 14 9.441406 14 10 L 14 14 C 14 14.238281 14.160156 14.398438 14.398438 14.398438 C 14.640625 14.398438 14.800781 14.238281 14.800781 14 L 14.800781 11.601562 C 14.800781 11 15.320312 10.398438 15.839844 10.398438 C 16.398438 10.398438 16.800781 11.039062 16.800781 11.601562 L 16.800781 14.800781 C 16.800781 15.039062 16.960938 15.199219 17.199219 15.199219 C 17.441406 15.199219 17.601562 15.039062 17.601562 14.800781 L 17.601562 13.199219 C 17.601562 12.601562 18.121094 12 18.640625 12 C 19.199219 12 19.601562 12.640625 19.601562 13.199219 L 19.640625 18.761719 C 19.640625 21.160156 19.640625 21.160156 19 21.921875 C 18.839844 22.078125 18.679688 22.28125 18.480469 22.558594 C 18.441406 22.640625 18.398438 22.71875 18.398438 22.800781 L 18.398438 23.601562 C 18.398438 23.839844 18.558594 24 18.800781 24 C 19.039062 24 19.199219 23.839844 19.199219 23.601562 L 19.199219 22.921875 C 19.359375 22.71875 19.480469 22.558594 19.601562 22.398438 C 20.398438 21.398438 20.398438 21.320312 20.398438 18.761719 L 20.398438 13.199219 C 20.398438 12.238281 19.679688 11.199219 18.640625 11.199219 Z M 18.640625 11.199219"/>
    <path d="M14.398438 22C14.640625 22 14.800781 21.839844 14.800781 21.601562 14.800781 21.359375 14.640625 21.199219 14.398438 21.199219L13.199219 21.199219C12.960938 21.199219 12.800781 21.359375 12.800781 21.601562 12.800781 21.839844 12.960938 22 13.199219 22zM14.800781 22.800781L12.800781 22.800781C12.558594 22.800781 12.398438 22.960938 12.398438 23.199219 12.398438 23.441406 12.558594 23.601562 12.800781 23.601562L14.800781 23.601562C15.039062 23.601562 15.199219 23.441406 15.199219 23.199219 15.199219 22.960938 15.039062 22.800781 14.800781 22.800781zM5.199219 4.398438C5.320312 4.398438 5.398438 4.359375 5.480469 4.28125 5.640625 4.121094 5.640625 3.878906 5.480469 3.71875L4.960938 3.199219 6.703125 3.199219C6.6875 3.332031 6.679688 3.464844 6.679688 3.601562 6.679688 3.921875 6.71875 4.199219 6.761719 4.519531 6.839844 4.679688 7 4.800781 7.160156 4.800781 7.199219 4.800781 7.238281 4.800781 7.28125 4.800781 7.480469 4.761719 7.601562 4.519531 7.558594 4.320312 7.519531 4.078125 7.480469 3.839844 7.480469 3.601562 7.480469 2.039062 8.71875.800781 10.28125.800781 11.839844.800781 13.078125 2.039062 13.078125 3.601562 13.078125 3.839844 13.039062 4.039062 13 4.28125 12.917969 4.480469 13.078125 4.71875 13.28125 4.761719 13.480469 4.839844 13.71875 4.679688 13.761719 4.480469 13.839844 4.199219 13.878906 3.878906 13.878906 3.601562 13.878906 1.601562 12.28125 0 10.28125 0 8.703125 0 7.375.996094 6.882812 2.398438L4.960938 2.398438 5.480469 1.878906C5.640625 1.71875 5.640625 1.480469 5.480469 1.320312 5.320312 1.160156 5.078125 1.160156 4.917969 1.320312L3.71875 2.519531C3.558594 2.679688 3.558594 2.921875 3.71875 3.078125L4.917969 4.28125C5 4.359375 5.078125 4.398438 5.199219 4.398438zM5.199219 4.398438"/>
</svg>
