<svg xmlns="http://www.w3.org/2000/svg" width="32" height="32" viewBox="0 0 24 24">
    <path d="M8 4c0-2.2-1.8-4-4-4S0 1.8 0 4s1.8 4 4 4 4-1.8 4-4zM4 7.2A3.206 3.206 0 0 1 .8 4C.8 2.238 2.239.8 4 .8 5.762.8 7.2 2.239 7.2 4c0 1.762-1.438 3.2-3.2 3.2zm0 0"/>
    <path d="M5.84 2.48c-.2-.16-.442-.12-.559.079l-1.734 2.43-.867-.868a.385.385 0 0 0-.559 0 .385.385 0 0 0 0 .559l1.156 1.156c.024.031.051.059.082.086.004 0 .008.004.016.004.063.05.133.074.227.074h.043a.364.364 0 0 0 .277-.16l2-2.8c.156-.2.078-.438-.082-.56zm0 0M22 8.398c-.441 0-.879.16-1.2.403v-.403c0-1.117-.878-2-2-2-.44 0-.878.16-1.198.403 0-1.121-.883-2-2-2-.442 0-.883.16-1.204.398V2c0-1.121-.878-2-2-2-1.117 0-2 .879-2 2v9.078C9.52 9.558 7.48 8.801 5.922 9.36c-.203.04-.363.16-.563.282-.597.398-.558.918-.558 1.078-.04.242 0 .281.558.922.68.8 2.16 2.48 3.082 4.16.079.078 1.16 1.84 2.36 3.16V20c0 2.2 1.8 4 4 4h4c1.719 0 3.52-1.441 3.918-3.121.12-.48.242-.84.402-1 .399-.48.879-1.598.879-3.078v-6.403c0-1.117-.879-2-2-2zM18.84 23.2h-4A3.206 3.206 0 0 1 11.64 20v-.363c.079.058.157.113.239.164.242.199.441.32.68.52.16.16.48.038.52-.083.16-.16.12-.398-.04-.558-.238-.239-.48-.399-.719-.559-.277-.2-.554-.398-.832-.633-1.187-1.242-2.328-3.09-2.328-3.09-.96-1.718-2.48-3.437-3.2-4.277a6.66 6.66 0 0 0-.358-.441c0-.121 0-.2.277-.36.16-.082.281-.16.402-.199 1.04-.36 2.758.117 3.52 1.438l.617.93a.248.248 0 0 0 .023.07l.399.8c.078.16.48.243.52.16.16-.078.242-.32.16-.519l-.282-.566V2c0-.68.524-1.2 1.203-1.2.68 0 1.2.52 1.2 1.2v11.2c0 .241.16.402.398.402.242 0 .402-.16.402-.403V6.801c0-.68.52-1.2 1.2-1.2.68 0 1.199.52 1.199 1.2v6c0 .238.16.398.398.398.242 0 .403-.16.403-.398V8.398c0-.68.52-1.199 1.199-1.199.68 0 1.2.52 1.2 1.2v4.8c0 .242.16.403.401.403.239 0 .399-.16.399-.403v-2.8c0-.68.52-1.2 1.2-1.2.679 0 1.198.52 1.198 1.2V16.8c0 .742-.14 1.344-.312 1.781a.45.45 0 0 0-.086.137c-.16.52-.64.64-1.52.883l-.242.039c-.2.039-.32.28-.277.48.078.16.238.277.398.277h.321c.183-.046.367-.097.546-.152-.039.137-.078.281-.105.434-.281 1.36-1.762 2.52-3.121 2.52zm0 0"/>
</svg>
