<svg xmlns="http://www.w3.org/2000/svg" width="32" height="32" viewBox="0 0 24 24">
    <path d="M 19.726562 13.359375 C 18.886719 12.160156 18.203125 9.519531 18.203125 8 C 18.203125 4.800781 16.125 3.359375 15.40625 2.960938 L 15.40625 0.398438 C 15.40625 0.160156 15.246094 0 15.003906 0 C 14.765625 0 14.605469 0.160156 14.605469 0.398438 L 14.605469 3.199219 C 14.605469 3.359375 14.683594 3.519531 14.84375 3.558594 C 14.964844 3.601562 17.40625 4.761719 17.40625 8 C 17.40625 9.480469 18.046875 12.398438 19.085938 13.839844 C 19.363281 14.199219 19.605469 14.679688 19.246094 14.960938 C 18.84375 15.28125 18.046875 15.28125 17.683594 14.921875 C 16.683594 13.921875 15.804688 11.800781 15.804688 10.800781 C 15.804688 10.558594 15.644531 10.398438 15.40625 10.398438 C 15.164062 10.398438 15.003906 10.558594 15.003906 10.800781 L 15.003906 22 C 15.003906 22.558594 14.566406 23.199219 14.003906 23.199219 C 13.445312 23.199219 13.003906 22.558594 13.003906 22 L 13.003906 13.199219 C 13.003906 12.960938 12.84375 12.800781 12.605469 12.800781 C 12.363281 12.800781 12.207031 12.960938 12.207031 13.199219 L 12.207031 17.199219 C 12.207031 17.761719 11.765625 18.398438 11.207031 18.398438 C 10.644531 18.398438 10.207031 17.761719 10.207031 17.199219 L 10.207031 12.800781 C 10.207031 12.558594 10.046875 12.398438 9.804688 12.398438 C 9.566406 12.398438 9.40625 12.558594 9.40625 12.800781 L 9.40625 15.601562 C 9.40625 16.160156 8.964844 16.800781 8.40625 16.800781 C 7.84375 16.800781 7.40625 16.160156 7.40625 15.601562 L 7.40625 13.679688 C 7.40625 13.640625 7.40625 13.640625 7.40625 13.601562 L 7.40625 12 C 7.40625 11.761719 7.246094 11.601562 7.003906 11.601562 C 6.765625 11.601562 6.605469 11.761719 6.605469 12 L 6.605469 13.679688 C 6.566406 14.199219 6.125 14.800781 5.605469 14.800781 C 5.046875 14.800781 4.605469 14.160156 4.605469 13.601562 L 4.605469 8 C 4.605469 4.960938 4.605469 4.960938 5.726562 3.441406 C 5.765625 3.359375 5.804688 3.28125 5.804688 3.199219 L 5.804688 0.398438 C 5.804688 0.160156 5.644531 0 5.40625 0 C 5.164062 0 5.003906 0.160156 5.003906 0.398438 L 5.003906 3.039062 C 3.804688 4.679688 3.804688 4.878906 3.804688 8 L 3.804688 13.601562 C 3.804688 14.558594 4.566406 15.601562 5.605469 15.601562 C 5.964844 15.601562 6.324219 15.480469 6.605469 15.238281 L 6.605469 15.601562 C 6.605469 16.558594 7.367188 17.601562 8.40625 17.601562 C 8.765625 17.601562 9.125 17.480469 9.40625 17.238281 C 9.40625 18.160156 10.207031 19.199219 11.207031 19.199219 C 11.566406 19.199219 11.925781 19.078125 12.207031 18.839844 L 12.207031 22 C 12.207031 22.960938 12.964844 24 14.003906 24 C 15.046875 24 15.804688 22.960938 15.804688 22 L 15.804688 13.519531 C 16.164062 14.28125 16.644531 15 17.125 15.480469 C 17.765625 16.121094 19.046875 16.160156 19.765625 15.558594 C 19.964844 15.359375 20.644531 14.640625 19.726562 13.359375 Z M 19.726562 13.359375"/>
    <path d="M9.804688 3.601562C9.566406 3.601562 9.40625 3.761719 9.40625 4 9.40625 4.238281 9.566406 4.398438 9.804688 4.398438L11.003906 4.398438C11.246094 4.398438 11.40625 4.238281 11.40625 4 11.40625 3.761719 11.246094 3.601562 11.003906 3.601562zM9.40625 2.800781L11.40625 2.800781C11.644531 2.800781 11.804688 2.640625 11.804688 2.398438 11.804688 2.160156 11.644531 2 11.40625 2L9.40625 2C9.164062 2 9.003906 2.160156 9.003906 2.398438 9.003906 2.640625 9.164062 2.800781 9.40625 2.800781zM9.40625 2.800781"/>
</svg>
