<svg xmlns="http://www.w3.org/2000/svg" width="32" height="32" viewBox="0 0 24 24">
    <path d="M18.395 8.398c-.36 0-.72.122-1 .364v-.364c0-.957-.758-2-1.801-2-.36 0-.719.122-1 .364 0-.922-.797-1.961-1.797-1.961-.363 0-.723.12-1 .36V2c0-.96-.762-2-1.8-2-1.044 0-1.802 1.04-1.802 2v8.48c-.36-.761-.84-1.48-1.32-1.96-.64-.641-1.922-.68-2.64-.079-.2.2-.88.918.038 2.2.84 1.199 1.524 3.84 1.524 5.359 0 3.2 2.078 4.64 2.797 5.04v2.562c0 .238.16.398.402.398.238 0 .399-.16.399-.398V20.8c0-.16-.079-.281-.239-.36-.12-.043-2.562-1.203-2.562-4.441 0-1.48-.64-4.398-1.68-5.84-.277-.36-.52-.84-.16-1.12.402-.321 1.2-.321 1.562.038 1 1 1.88 3.121 1.88 4.121 0 .242.16.403.398.403.242 0 .402-.16.402-.403V2c0-.559.438-1.2 1-1.2.559 0 1 .641 1 1.2v8.8c0 .24.16.4.399.4.242 0 .398-.16.398-.4v-4c0-.562.441-1.198 1-1.198.562 0 1 .636 1 1.199v4.398c0 .242.16.403.402.403.239 0 .399-.16.399-.403V8.4c0-.56.441-1.2 1-1.2.562 0 1 .64 1 1.2V12c0 .238.16.398.402.398.238 0 .399-.16.399-.398v-1.68c.039-.52.48-1.12 1-1.12.558 0 1 .64 1 1.198V16c0 3.04 0 3.04-1.122 4.559-.078.082-.078.203-.078.28v2.763c0 .238.16.398.399.398.242 0 .402-.16.402-.398v-2.68c1.2-1.602 1.2-1.8 1.2-4.922v-5.602c0-.957-.762-2-1.801-2zm0 0"/>
    <path d="M14.195 20.398c.239 0 .399-.16.399-.398 0-.238-.16-.398-.399-.398h-1.199c-.242 0-.402.16-.402.398 0 .238.16.398.402.398zm0 0M14.594 21.2h-2c-.239 0-.399.16-.399.402 0 .238.16.398.399.398h2c.242 0 .402-.16.402-.398 0-.243-.16-.403-.402-.403zm0 0"/>
</svg>
