<svg xmlns="http://www.w3.org/2000/svg" width="32" height="32" viewBox="0 0 24 24">
    <path d="M10.762 12c0-.238-.16-.398-.403-.398H8.762c-.922 0-1.602-.762-1.602-1.762 0-.762.36-1.399.918-1.68l.242-.12V7.8v-.159c0-.563.442-1.04 1.04-1.04.562 0 1 .399 1 1 0 .239.16.399.402.399.238 0 .398-.16.398-.398 0-.48-.16-.899-.437-1.211.46-.493 1.164-.79 1.957-.79 1.258 0 2.293.84 2.488 2h-.367c-.242 0-.403.16-.403.399 0 .238.16.398.403.398h.8c.02 0 .044 0 .063-.003.54.152.992.52 1.176.925.082.239.32.32.52.239.242-.079.32-.32.242-.52-.282-.64-.883-1.117-1.602-1.36-.2-1.6-1.602-2.878-3.32-2.878-1.04 0-2 .398-2.602 1.12a1.814 1.814 0 0 0-.68-.12H9.36c-.996 0-1.832.793-1.84 1.824-.695.45-1.12 1.273-1.12 2.215 0 1.48 1.042 2.558 2.402 2.558h1.597c.243 0 .364-.16.364-.398zm0 0"/>
    <path d="M9.2 16.8H2.237c-.68 0-1.437-.48-1.437-1.198V2.199C.8 1.48 1.52.801 2.238.801h19.563c.719 0 1.398.68 1.398 1.398v11.403c0 .238.16.398.403.398.238 0 .398-.16.398-.398V2.199C24 1.04 22.96 0 21.8 0H2.239C1.078 0 0 1.04 0 2.2v13.402c0 1.238 1.16 2 2.238 2H9.2c.242 0 .403-.16.403-.403 0-.238-.16-.398-.403-.398zm0 0"/>
    <path d="M23.879 16.121L19.44 11.52c-1-.961-2.32-1.52-3.68-1.52-1.363 0-2.722.52-3.683 1.52-.957 1-1.52 2.28-1.52 3.68 0 1.402.52 2.679 1.52 3.679l5.242 5c.078.082.2.121.282.121.117 0 .199-.04.238-.121a.385.385 0 0 0 0-.559l-5.2-5a4.325 4.325 0 0 1-1.28-3.12c0-1.2.44-2.278 1.28-3.122.84-.84 1.919-1.277 3.122-1.277 1.199 0 2.277.437 3.117 1.277l4.441 4.602c.16.16.399.16.559 0a.385.385 0 0 0 0-.559zm0 0"/>
    <path d="M18.281 12.64a3.595 3.595 0 0 0-5.082 0 3.598 3.598 0 0 0 0 5.079l1.68 1.68c.281.242.601.402.96.402h.083c2.36-.16 4.277-2.082 4.437-4.442 0-.398-.12-.757-.398-1.039zm-4.48 4.56a2.799 2.799 0 0 1 0-4c1.078-1.079 2.879-1.079 3.96 0l1.61 1.652c-.176.085-.375.168-.57.27-.64.32-1.36.64-1.922 1.198-.559.602-.957 1.36-1.277 2.04a5.108 5.108 0 0 1-.196.445zm2.355 1.816a3.97 3.97 0 0 0 .125-.297c.32-.68.68-1.36 1.16-1.84.48-.48 1.079-.758 1.68-1.04.149-.054.3-.12.45-.194a3.957 3.957 0 0 1-3.415 3.37zm0 0"/>
</svg>
