<svg xmlns="http://www.w3.org/2000/svg" width="32" height="32" viewBox="0 0 24 24">
    <path d="M8.398 4.48a.97.97 0 0 0 .282-.68c0-.28-.078-.519-.282-.679l-.84-.84c-.359-.36-1-.36-1.359 0L1.762 6.72l-.84 3.043 3-.801zM6.762 2.84c.078-.078.16-.078.238 0l.84.84c.039.039.039.082.039.12 0 .04 0 .079-.04.122l-.734.734-1.078-1.082zm-4.723 5.8l.402-1.48 3.02-3.02L6.539 5.22l-3.02 3.02zm0 0M13.48 4.8a4.389 4.389 0 0 0-4.402 4.4v4.402h8.8V9.199a4.385 4.385 0 0 0-4.398-4.398zm3.598 8h-7.2V9.2c0-2 1.602-3.598 3.602-3.598 2 0 3.598 1.597 3.598 3.597zm0 0M17.48 16.398h-8c-.242 0-.402.16-.402.403 0 .238.16.398.402.398h8c.239 0 .399-.16.399-.398 0-.242-.16-.403-.399-.403zm0 0M17.48 18h-8c-.242 0-.402.16-.402.398 0 .243.16.403.402.403h8c.239 0 .399-.16.399-.403 0-.238-.16-.398-.399-.398zm0 0"/>
    <path d="M23.078 9.602C23.078 4.32 18.762 0 13.48 0c-1.68 0-3.32.441-4.718 1.238-.203.121-.282.364-.16.563.078.199.32.238.52.16A8.763 8.763 0 0 1 13.48.8c4.84 0 8.801 3.96 8.801 8.8 0 2.477-1.004 4.797-2.8 6.43V9.2c0-3.32-2.68-6-6-6s-6 2.68-6 6v6.86A8.81 8.81 0 0 1 4.68 10a.4.4 0 0 0-.399-.398c-.242 0-.402.16-.402.398a9.489 9.489 0 0 0 3.601 7.074V18c0 3.32 2.68 6 6 6s6-2.68 6-6v-.922c2.301-1.805 3.598-4.547 3.598-7.476zM13.48 23.199A5.19 5.19 0 0 1 8.281 18V9.2a5.19 5.19 0 0 1 5.2-5.2 5.19 5.19 0 0 1 5.199 5.2v7.624a.289.289 0 0 0 0 .082V18a5.19 5.19 0 0 1-5.2 5.2zm0 0"/>
</svg>
