<svg xmlns="http://www.w3.org/2000/svg" width="32" height="32" viewBox="0 0 24 24">
    <path d="M 9.359375 3.199219 L 9.519531 2.960938 L 9.359375 2.761719 C 8.238281 1 6.558594 0 4.839844 0 C 3.121094 0 1.441406 1 0.320312 2.800781 L 0.160156 3 L 0.320312 3.199219 C 1.441406 4.960938 3.121094 5.960938 4.839844 5.960938 C 6.558594 5.960938 8.238281 4.960938 9.359375 3.199219 Z M 6.039062 2 C 6.039062 2.679688 5.519531 3.199219 4.839844 3.199219 C 4.160156 3.199219 3.640625 2.679688 3.640625 2 C 3.640625 1.320312 4.160156 0.800781 4.839844 0.800781 C 5.519531 0.800781 6.039062 1.320312 6.039062 2 Z M 1.121094 2.960938 C 1.65625 2.230469 2.28125 1.664062 2.964844 1.292969 C 2.882812 1.511719 2.839844 1.75 2.839844 2 C 2.839844 3.121094 3.71875 4 4.839844 4 C 5.960938 4 6.839844 3.121094 6.839844 2 C 6.839844 1.75 6.796875 1.511719 6.714844 1.292969 C 7.398438 1.664062 8.023438 2.230469 8.558594 2.960938 C 7.558594 4.320312 6.238281 5.121094 4.839844 5.121094 C 3.441406 5.121094 2.121094 4.359375 1.121094 2.960938 Z M 1.121094 2.960938"/>
    <path d="M 21.839844 8.398438 C 21.398438 8.398438 20.960938 8.558594 20.640625 8.800781 L 20.640625 8.398438 C 20.640625 7.28125 19.761719 6.398438 18.640625 6.398438 C 18.199219 6.398438 17.761719 6.558594 17.441406 6.800781 C 17.441406 5.679688 16.558594 4.800781 15.441406 4.800781 C 15 4.800781 14.558594 4.960938 14.238281 5.199219 L 14.238281 2 C 14.238281 0.878906 13.359375 0 12.238281 0 C 11.121094 0 10.238281 0.878906 10.238281 2 L 10.238281 11.078125 C 9.359375 9.558594 7.320312 8.800781 5.761719 9.359375 C 5.558594 9.398438 5.398438 9.519531 5.199219 9.640625 C 4.601562 10.039062 4.640625 10.558594 4.640625 10.71875 C 4.601562 10.960938 4.640625 11 5.199219 11.640625 C 5.878906 12.441406 7.359375 14.121094 8.28125 15.800781 C 8.359375 15.878906 9.441406 17.640625 10.640625 18.960938 L 10.640625 20 C 10.640625 22.199219 12.441406 24 14.640625 24 L 18.640625 24 C 20.359375 24 22.160156 22.558594 22.558594 20.878906 C 22.679688 20.398438 22.800781 20.039062 22.960938 19.878906 C 23.359375 19.398438 23.839844 18.28125 23.839844 16.800781 L 23.839844 10.398438 C 23.839844 9.28125 22.960938 8.398438 21.839844 8.398438 Z M 18.679688 23.199219 L 14.679688 23.199219 C 12.921875 23.199219 11.480469 21.761719 11.480469 20 L 11.480469 19.636719 C 11.558594 19.695312 11.636719 19.75 11.71875 19.800781 C 11.960938 20 12.160156 20.121094 12.398438 20.320312 C 12.640625 20.558594 12.878906 20.359375 12.921875 20.238281 C 13.078125 20.078125 13.039062 19.839844 12.878906 19.679688 C 12.640625 19.441406 12.398438 19.28125 12.160156 19.121094 C 11.882812 18.921875 11.605469 18.722656 11.328125 18.488281 C 10.140625 17.246094 9 15.398438 9 15.398438 C 8.039062 13.679688 6.519531 11.960938 5.800781 11.121094 C 5.679688 10.960938 5.519531 10.761719 5.441406 10.679688 C 5.441406 10.558594 5.441406 10.480469 5.71875 10.320312 C 5.878906 10.238281 6 10.160156 6.121094 10.121094 C 7.160156 9.761719 8.878906 10.238281 9.640625 11.558594 L 10.257812 12.488281 C 10.261719 12.511719 10.269531 12.535156 10.28125 12.558594 L 10.679688 13.359375 C 10.761719 13.519531 11.160156 13.601562 11.199219 13.519531 C 11.359375 13.441406 11.441406 13.199219 11.359375 13 L 11.078125 12.4375 C 11.078125 12.421875 11.078125 12.410156 11.078125 12.398438 L 11.078125 2 C 11.078125 1.320312 11.601562 0.800781 12.28125 0.800781 C 12.960938 0.800781 13.480469 1.320312 13.480469 2 L 13.480469 13.199219 C 13.480469 13.441406 13.640625 13.601562 13.878906 13.601562 C 14.121094 13.601562 14.28125 13.441406 14.28125 13.199219 L 14.28125 6.800781 C 14.28125 6.121094 14.800781 5.601562 15.480469 5.601562 C 16.160156 5.601562 16.679688 6.121094 16.679688 6.800781 L 16.679688 12.800781 C 16.679688 13.039062 16.839844 13.199219 17.078125 13.199219 C 17.320312 13.199219 17.480469 13.039062 17.480469 12.800781 L 17.480469 8.398438 C 17.480469 7.71875 18 7.199219 18.679688 7.199219 C 19.359375 7.199219 19.878906 7.71875 19.878906 8.398438 L 19.878906 13.199219 C 19.878906 13.441406 20.039062 13.601562 20.28125 13.601562 C 20.519531 13.601562 20.679688 13.441406 20.679688 13.199219 L 20.679688 10.398438 C 20.679688 9.71875 21.199219 9.199219 21.878906 9.199219 C 22.558594 9.199219 23.078125 9.71875 23.078125 10.398438 L 23.078125 16.800781 C 23.078125 17.542969 22.9375 18.144531 22.765625 18.582031 C 22.730469 18.621094 22.699219 18.667969 22.679688 18.71875 C 22.519531 19.238281 22.039062 19.359375 21.160156 19.601562 L 20.917969 19.640625 C 20.71875 19.679688 20.601562 19.921875 20.640625 20.121094 C 20.71875 20.28125 20.878906 20.398438 21.039062 20.398438 C 21.078125 20.398438 21.121094 20.398438 21.160156 20.398438 L 21.359375 20.398438 C 21.542969 20.351562 21.726562 20.300781 21.90625 20.246094 C 21.867188 20.382812 21.832031 20.527344 21.800781 20.679688 C 21.519531 22.039062 20.039062 23.199219 18.679688 23.199219 Z M 18.679688 23.199219"/>
</svg>
