<svg xmlns="http://www.w3.org/2000/svg" width="32" height="32" viewBox="0 0 24 24">
    <path d="M2.605469 5.203125L4.605469 5.203125C4.84375 5.203125 5.003906 5.042969 5.003906 4.804688 5.003906 4.566406 4.84375 4.40625 4.605469 4.40625L3.464844 4.40625 6.203125 1.394531 6.203125 2.40625C6.203125 2.644531 6.363281 2.804688 6.605469 2.804688 6.84375 2.804688 7.003906 2.644531 7.003906 2.40625L7.003906.40625C7.003906.195312 6.878906.046875 6.6875.0117188 6.632812 0 6.574219-.00390625 6.519531.00390625L4.605469.00390625C4.363281.00390625 4.203125.164062 4.203125.40625 4.203125.644531 4.363281.804688 4.605469.804688L5.667969.804688 3.003906 3.734375 3.003906 2.804688C3.003906 2.566406 2.84375 2.40625 2.605469 2.40625 2.363281 2.40625 2.203125 2.566406 2.203125 2.804688L2.203125 4.714844C2.195312 4.769531 2.199219 4.828125 2.210938 4.882812 2.242188 5.078125 2.390625 5.203125 2.605469 5.203125zM19.800781 8.402344C19.359375 8.402344 18.921875 8.5625 18.601562 8.804688L18.601562 8.402344C18.601562 7.285156 17.722656 6.402344 16.601562 6.402344 16.160156 6.402344 15.722656 6.5625 15.402344 6.804688L15.402344 2.003906C15.402344.886719 14.523438.00390625 13.402344.00390625 12.28125.00390625 11.402344.886719 11.402344 2.003906 11.082031 1.765625 10.644531 1.605469 10.203125 1.605469 9.082031 1.605469 8.203125 2.484375 8.203125 3.605469L8.203125 11.082031C7.324219 9.5625 5.285156 8.804688 3.726562 9.363281 3.523438 9.402344 3.363281 9.523438 3.164062 9.644531 2.566406 10.042969 2.605469 10.5625 2.605469 10.722656 2.566406 10.964844 2.605469 11.003906 3.164062 11.644531 3.84375 12.441406 5.324219 14.121094 6.242188 15.800781 6.324219 15.882812 7.402344 17.640625 8.605469 18.960938L8.605469 20C8.605469 22.199219 10.402344 24 12.601562 24L16.601562 24C18.320312 24 20.121094 22.558594 20.519531 20.878906 20.640625 20.402344 20.761719 20.039062 20.921875 19.882812 21.320312 19.402344 21.800781 18.28125 21.800781 16.800781L21.800781 10.402344C21.800781 9.285156 20.921875 8.402344 19.800781 8.402344zM16.640625 23.199219L12.644531 23.199219C10.882812 23.199219 9.445312 21.761719 9.445312 20L9.445312 19.640625C9.523438 19.695312 9.601562 19.75 9.683594 19.800781 9.921875 20 10.125 20.121094 10.363281 20.320312 10.523438 20.480469 10.84375 20.359375 10.882812 20.242188 11.042969 20.082031 11.003906 19.839844 10.84375 19.679688 10.601562 19.441406 10.363281 19.28125 10.125 19.121094 9.847656 18.921875 9.570312 18.726562 9.292969 18.488281 8.101562 17.25 6.964844 15.402344 6.964844 15.402344 6.003906 13.683594 4.484375 11.960938 3.765625 11.121094 3.644531 10.964844 3.484375 10.761719 3.40625 10.683594 3.40625 10.5625 3.40625 10.484375 3.683594 10.324219 3.84375 10.242188 3.964844 10.164062 4.085938 10.121094 5.125 9.761719 6.84375 10.242188 7.605469 11.5625L8.222656 12.488281C8.226562 12.515625 8.234375 12.539062 8.242188 12.5625L8.644531 13.363281C8.722656 13.523438 9.125 13.601562 9.164062 13.523438 9.324219 13.441406 9.402344 13.203125 9.324219 13.003906L9.042969 12.4375C9.042969 12.425781 9.042969 12.414062 9.042969 12.402344L9.042969 3.605469C9.042969 2.925781 9.5625 2.40625 10.242188 2.40625 10.921875 2.40625 11.441406 2.925781 11.441406 3.605469L11.441406 8.402344C11.441406 8.425781 11.445312 8.445312 11.445312 8.464844 11.445312 8.484375 11.441406 8.503906 11.441406 8.523438L11.441406 13.203125C11.441406 13.441406 11.601562 13.601562 11.84375 13.601562 12.082031 13.601562 12.242188 13.441406 12.242188 13.203125L12.242188 8.523438C12.242188 8.503906 12.242188 8.484375 12.238281 8.464844 12.242188 8.445312 12.242188 8.425781 12.242188 8.402344L12.242188 2.003906C12.242188 1.324219 12.761719.804688 13.441406.804688 14.121094.804688 14.640625 1.324219 14.640625 2.003906L14.640625 12.800781C14.640625 13.042969 14.800781 13.203125 15.042969 13.203125 15.28125 13.203125 15.441406 13.042969 15.441406 12.800781L15.441406 8.402344C15.441406 7.722656 15.960938 7.203125 16.640625 7.203125 17.320312 7.203125 17.839844 7.722656 17.839844 8.402344L17.839844 13.203125C17.839844 13.441406 18 13.601562 18.242188 13.601562 18.480469 13.601562 18.640625 13.441406 18.640625 13.203125L18.640625 10.402344C18.640625 9.722656 19.160156 9.203125 19.839844 9.203125 20.519531 9.203125 21.039062 9.722656 21.039062 10.402344L21.039062 16.800781C21.039062 17.742188 20.8125 18.453125 20.589844 18.894531 20.5625 18.914062 20.539062 18.933594 20.519531 18.960938 20.320312 19.242188 19.960938 19.359375 19.160156 19.5625L18.882812 19.640625C18.679688 19.679688 18.5625 19.921875 18.601562 20.121094 18.679688 20.28125 18.839844 20.402344 19 20.402344 19.039062 20.402344 19.082031 20.402344 19.121094 20.402344L19.320312 20.359375C19.523438 20.304688 19.707031 20.25 19.882812 20.195312 19.835938 20.347656 19.796875 20.507812 19.761719 20.679688 19.480469 22.039062 18 23.199219 16.640625 23.199219zM16.640625 23.199219"/>
</svg>
