<svg xmlns="http://www.w3.org/2000/svg" width="32" height="32" viewBox="0 0 24 24">
    <path d="M 12 0 C 5.382812 0 0 5.382812 0 12 C 0 18.617188 5.382812 24 12 24 C 18.617188 24 24 18.617188 24 12 C 24 5.382812 18.617188 0 12 0 Z M 12 23.171875 C 5.839844 23.171875 0.828125 18.160156 0.828125 12 C 0.828125 5.839844 5.839844 0.828125 12 0.828125 C 18.160156 0.828125 23.171875 5.839844 23.171875 12 C 23.171875 18.160156 18.160156 23.171875 12 23.171875 Z M 12 23.171875"/>
    <path d="M 21.90625 11.609375 L 17.082031 9.894531 L 19.28125 5.273438 C 19.355469 5.113281 19.324219 4.925781 19.199219 4.800781 C 19.074219 4.679688 18.886719 4.644531 18.726562 4.722656 L 14.105469 6.917969 L 12.390625 2.09375 C 12.332031 1.929688 12.175781 1.820312 12 1.820312 C 11.824219 1.820312 11.667969 1.929688 11.609375 2.09375 L 9.894531 6.917969 L 5.273438 4.71875 C 5.113281 4.644531 4.925781 4.675781 4.800781 4.800781 C 4.679688 4.925781 4.644531 5.113281 4.71875 5.273438 L 6.917969 9.894531 L 2.09375 11.609375 C 1.929688 11.667969 1.820312 11.824219 1.820312 12 C 1.820312 12.175781 1.929688 12.332031 2.09375 12.390625 L 6.917969 14.105469 L 4.71875 18.726562 C 4.644531 18.886719 4.675781 19.074219 4.800781 19.199219 C 4.925781 19.320312 5.113281 19.355469 5.273438 19.277344 L 9.894531 17.082031 L 11.609375 21.902344 C 11.667969 22.070312 11.824219 22.179688 12 22.179688 C 12.175781 22.179688 12.332031 22.070312 12.390625 21.902344 L 14.105469 17.082031 L 18.726562 19.277344 C 18.886719 19.355469 19.074219 19.320312 19.199219 19.199219 C 19.320312 19.074219 19.355469 18.886719 19.277344 18.726562 L 17.082031 14.105469 L 21.902344 12.390625 C 22.070312 12.332031 22.179688 12.175781 22.179688 12 C 22.179688 11.824219 22.070312 11.667969 21.90625 11.609375 Z M 16.371094 13.476562 C 16.261719 13.519531 16.175781 13.601562 16.128906 13.710938 C 16.085938 13.820312 16.085938 13.941406 16.136719 14.046875 L 18.03125 18.03125 L 14.046875 16.136719 C 13.941406 16.085938 13.820312 16.085938 13.710938 16.128906 C 13.601562 16.171875 13.515625 16.261719 13.476562 16.371094 L 12 20.53125 L 10.523438 16.371094 C 10.480469 16.261719 10.398438 16.175781 10.289062 16.128906 C 10.238281 16.109375 10.183594 16.097656 10.132812 16.097656 C 10.070312 16.097656 10.007812 16.109375 9.953125 16.136719 L 5.96875 18.03125 L 7.863281 14.046875 C 7.914062 13.941406 7.914062 13.820312 7.871094 13.710938 C 7.824219 13.601562 7.738281 13.519531 7.628906 13.476562 L 3.46875 12 L 7.628906 10.523438 C 7.738281 10.480469 7.824219 10.398438 7.871094 10.289062 C 7.914062 10.179688 7.914062 10.058594 7.863281 9.953125 L 5.96875 5.96875 L 9.953125 7.863281 C 10.058594 7.914062 10.183594 7.914062 10.289062 7.871094 C 10.398438 7.828125 10.484375 7.738281 10.523438 7.628906 L 12 3.46875 L 13.476562 7.628906 C 13.519531 7.738281 13.601562 7.824219 13.710938 7.871094 C 13.820312 7.917969 13.941406 7.914062 14.046875 7.863281 L 18.03125 5.96875 L 16.136719 9.953125 C 16.085938 10.058594 16.085938 10.179688 16.128906 10.289062 C 16.175781 10.398438 16.261719 10.480469 16.371094 10.523438 L 20.53125 12 Z M 16.371094 13.476562"/>
</svg>
