<svg xmlns="http://www.w3.org/2000/svg" width="32" height="32" viewBox="0 0 24 24">
    <path d="M12 0C5.383 0 0 5.383 0 12s5.383 12 12 12 12-5.383 12-12S18.617 0 12 0zm0 23.172C5.84 23.172.828 18.16.828 12 .828 5.84 5.84.828 12 .828 18.16.828 23.172 5.84 23.172 12c0 6.16-5.012 11.172-11.172 11.172zm0 0"/>
    <path d="M21.906 11.61l-4.824-1.715 2.2-4.622a.417.417 0 0 0-.083-.472.416.416 0 0 0-.472-.078l-4.622 2.195-1.714-4.824A.414.414 0 0 0 12 1.82a.414.414 0 0 0-.39.274L9.894 6.918l-4.622-2.2a.417.417 0 0 0-.554.555l2.199 4.622-4.824 1.714A.414.414 0 0 0 1.82 12c0 .176.11.332.274.39l4.824 1.715-2.2 4.622a.417.417 0 0 0 .083.472.416.416 0 0 0 .472.078l4.622-2.195 1.714 4.82a.412.412 0 0 0 .391.278c.176 0 .332-.11.39-.278l1.715-4.82 4.622 2.195c.16.078.347.043.472-.078a.416.416 0 0 0 .078-.472l-2.195-4.622 4.82-1.714a.414.414 0 1 0 .004-.781zm-5.535 1.867a.419.419 0 0 0-.234.57l1.894 3.984-3.984-1.894a.419.419 0 0 0-.57.234L12 20.531l-1.477-4.16a.432.432 0 0 0-.234-.242.445.445 0 0 0-.156-.031.402.402 0 0 0-.18.039L5.97 18.03l1.894-3.984a.419.419 0 0 0-.234-.57L3.469 12l4.16-1.477a.419.419 0 0 0 .234-.57L5.97 5.97l3.984 1.894a.42.42 0 0 0 .57-.234L12 3.469l1.477 4.16c.043.11.125.195.234.242.11.047.23.043.336-.008L18.03 5.97l-1.894 3.984a.419.419 0 0 0 .234.57L20.531 12zm0 0"/>
</svg>
