<svg xmlns="http://www.w3.org/2000/svg" width="32" height="32" viewBox="0 0 24 24">
    <path d="M9.598 9.508c-2.403 0-4.563.676-6.598 2.062a.465.465 0 0 0 0 .762c2.035 1.39 4.195 2.063 6.598 2.063 2.511 0 4.898-.73 6.906-2.114l.476-.328-.476-.328c-2.008-1.387-4.395-2.117-6.906-2.117zm0 4.09c-2.07 0-3.946-.54-5.72-1.645 1.774-1.105 3.65-1.644 5.72-1.644 2.14 0 4.183.566 5.945 1.644-1.762 1.078-3.805 1.645-5.945 1.645zm0 0"/>
    <path d="M20.59 11.996l3.11-3.11c.195-.19.3-.448.3-.722a1.02 1.02 0 0 0-.3-.726l-.973-.973c-.301-.3-.829-.3-1.13 0l-3.699 3.7c-2.375-1.716-5.308-2.653-8.304-2.653-3.582 0-6.64 1.261-9.348 3.863a.8.8 0 0 0 0 1.152c2.707 2.602 5.766 3.868 9.348 3.868 2.972 0 5.886-.926 8.254-2.618l3.75 3.75a.783.783 0 0 0 .562.235.785.785 0 0 0 .567-.235l.972-.972c.196-.196.301-.45.301-.727a1.01 1.01 0 0 0-.3-.723zm1.574 4.965l-3.996-3.992a.396.396 0 0 0-.281-.117.416.416 0 0 0-.242.078c-2.274 1.718-5.133 2.664-8.051 2.664-3.364 0-6.242-1.192-8.793-3.64C3.35 9.5 6.23 8.308 9.594 8.308c2.937 0 5.812.96 8.094 2.699.164.12.386.11.53-.031l3.946-3.946 1.129 1.133-3.55 3.55a.396.396 0 0 0 0 .563l3.55 3.555zm0 0"/>
</svg>
