<svg xmlns="http://www.w3.org/2000/svg" width="32" height="32" viewBox="0 0 24 24">
    <path d="M6.008 8.2H3.602v2.402h-2v2.406l2-.008v5.996l2.406.027v-6.015L8 13v-2.398H6zm1.191 3.198v.805l-1.992.004v6.008l-.809-.012V12.2l-2 .008v-.809h2V9h.809l-.008 2.398zm0 0"/>
    <path d="M23.719 11.816L9.602 7.504V1a.401.401 0 0 0-.657-.309l-8.8 7.2A.401.401 0 0 0 0 8.199V23c0 .223.18.398.398.398h23.204A.398.398 0 0 0 24 23V12.2a.399.399 0 0 0-.281-.384zM.8 8.391l8-6.547v20.758h-8zM11.6 22.6V16.2h1.2v6.403zm4.399 0v-8.8h1.2v8.8zm4.398 0V16.2h.801v6.403zm2.801 0H22v-7.203h-2.398v7.204H18V13h-2.8v9.602h-1.598v-7.204H10.8v7.204H9.6V8.34L23.2 12.496zm0 0"/>
</svg>
