<svg xmlns="http://www.w3.org/2000/svg" width="32" height="32" viewBox="0 0 24 24">
    <path d="M 17.199219 5.601562 C 14.84375 5.601562 12.824219 7.066406 12 9.132812 C 11.175781 7.066406 9.15625 5.601562 6.800781 5.601562 C 3.710938 5.601562 1.199219 8.113281 1.199219 11.199219 L 1.199219 24 L 22.800781 24 L 22.800781 11.199219 C 22.800781 8.113281 20.289062 5.601562 17.199219 5.601562 Z M 11.601562 23.199219 L 2 23.199219 L 2 11.199219 C 2 8.554688 4.152344 6.398438 6.800781 6.398438 C 9.445312 6.398438 11.601562 8.554688 11.601562 11.199219 Z M 22 23.199219 L 12.398438 23.199219 L 12.398438 11.199219 C 12.398438 8.554688 14.554688 6.398438 17.199219 6.398438 C 19.847656 6.398438 22 8.554688 22 11.199219 Z M 22 23.199219"/>
    <path d="M10.800781 4L13.519531 4 11.296875 6.535156C11.152344 6.703125 11.171875 6.957031 11.335938 7.101562 11.414062 7.167969 11.507812 7.199219 11.601562 7.199219 11.710938 7.199219 11.820312 7.152344 11.902344 7.0625L14.703125 3.863281C14.804688 3.746094 14.828125 3.578125 14.765625 3.433594 14.699219 3.292969 14.558594 3.199219 14.398438 3.199219L11.601562 3.199219 13.519531.640625C13.652344.464844 13.617188.210938 13.441406.078125 13.265625-.0546875 13.011719-.015625 12.878906.160156L10.480469 3.359375C10.390625 3.480469 10.375 3.644531 10.441406 3.777344 10.511719 3.914062 10.648438 4 10.800781 4zM10 14L3.601562 14C3.378906 14 3.199219 14.179688 3.199219 14.398438 3.199219 14.621094 3.378906 14.800781 3.601562 14.800781L10 14.800781C10.222656 14.800781 10.398438 14.621094 10.398438 14.398438 10.398438 14.179688 10.222656 14 10 14zM10 15.601562L3.601562 15.601562C3.378906 15.601562 3.199219 15.777344 3.199219 16 3.199219 16.222656 3.378906 16.398438 3.601562 16.398438L10 16.398438C10.222656 16.398438 10.398438 16.222656 10.398438 16 10.398438 15.777344 10.222656 15.601562 10 15.601562zM3.601562 10.800781C3.378906 10.800781 3.199219 10.980469 3.199219 11.199219 3.199219 11.421875 3.378906 11.601562 3.601562 11.601562L10 11.601562C10.222656 11.601562 10.398438 11.421875 10.398438 11.199219 10.398438 10.980469 10.222656 10.800781 10 10.800781zM10 12.398438L3.601562 12.398438C3.378906 12.398438 3.199219 12.578125 3.199219 12.800781 3.199219 13.019531 3.378906 13.199219 3.601562 13.199219L10 13.199219C10.222656 13.199219 10.398438 13.019531 10.398438 12.800781 10.398438 12.578125 10.222656 12.398438 10 12.398438zM14 10.800781C13.777344 10.800781 13.601562 10.980469 13.601562 11.199219 13.601562 11.421875 13.777344 11.601562 14 11.601562L20.398438 11.601562C20.621094 11.601562 20.800781 11.421875 20.800781 11.199219 20.800781 10.980469 20.621094 10.800781 20.398438 10.800781zM20.398438 12.398438L14 12.398438C13.777344 12.398438 13.601562 12.578125 13.601562 12.800781 13.601562 13.019531 13.777344 13.199219 14 13.199219L20.398438 13.199219C20.621094 13.199219 20.800781 13.019531 20.800781 12.800781 20.800781 12.578125 20.621094 12.398438 20.398438 12.398438zM10 17.199219L3.601562 17.199219C3.378906 17.199219 3.199219 17.378906 3.199219 17.601562 3.199219 17.820312 3.378906 18 3.601562 18L10 18C10.222656 18 10.398438 17.820312 10.398438 17.601562 10.398438 17.378906 10.222656 17.199219 10 17.199219zM10 18.800781L3.601562 18.800781C3.378906 18.800781 3.199219 18.980469 3.199219 19.199219 3.199219 19.421875 3.378906 19.601562 3.601562 19.601562L10 19.601562C10.222656 19.601562 10.398438 19.421875 10.398438 19.199219 10.398438 18.980469 10.222656 18.800781 10 18.800781zM10 20.398438L3.601562 20.398438C3.378906 20.398438 3.199219 20.578125 3.199219 20.800781 3.199219 21.019531 3.378906 21.199219 3.601562 21.199219L10 21.199219C10.222656 21.199219 10.398438 21.019531 10.398438 20.800781 10.398438 20.578125 10.222656 20.398438 10 20.398438zM20.398438 14L14 14C13.777344 14 13.601562 14.179688 13.601562 14.398438 13.601562 14.621094 13.777344 14.800781 14 14.800781L20.398438 14.800781C20.621094 14.800781 20.800781 14.621094 20.800781 14.398438 20.800781 14.179688 20.621094 14 20.398438 14zM20.398438 15.601562L14 15.601562C13.777344 15.601562 13.601562 15.777344 13.601562 16 13.601562 16.222656 13.777344 16.398438 14 16.398438L20.398438 16.398438C20.621094 16.398438 20.800781 16.222656 20.800781 16 20.800781 15.777344 20.621094 15.601562 20.398438 15.601562zM20.398438 17.199219L14 17.199219C13.777344 17.199219 13.601562 17.378906 13.601562 17.601562 13.601562 17.820312 13.777344 18 14 18L20.398438 18C20.621094 18 20.800781 17.820312 20.800781 17.601562 20.800781 17.378906 20.621094 17.199219 20.398438 17.199219zM20.398438 18.800781L14 18.800781C13.777344 18.800781 13.601562 18.980469 13.601562 19.199219 13.601562 19.421875 13.777344 19.601562 14 19.601562L20.398438 19.601562C20.621094 19.601562 20.800781 19.421875 20.800781 19.199219 20.800781 18.980469 20.621094 18.800781 20.398438 18.800781zM20.398438 20.398438L14 20.398438C13.777344 20.398438 13.601562 20.578125 13.601562 20.800781 13.601562 21.019531 13.777344 21.199219 14 21.199219L20.398438 21.199219C20.621094 21.199219 20.800781 21.019531 20.800781 20.800781 20.800781 20.578125 20.621094 20.398438 20.398438 20.398438zM20.398438 20.398438"/>
</svg>
