<svg xmlns="http://www.w3.org/2000/svg" width="32" height="32" viewBox="0 0 24 24">
    <path d="M7.210938 13L7.210938 9.40625 9.203125 9.398438 9.203125 6.996094 7.207031 6.996094 7.210938 5.394531 4.800781 5.394531 4.800781 6.996094 2.800781 6.996094 2.800781 9.40625 4.800781 9.398438 4.800781 13zM3.601562 8.605469L3.601562 7.796875 5.601562 7.796875 5.601562 6.195312 6.410156 6.195312 6.402344 7.796875 8.40625 7.796875 8.40625 8.597656 6.410156 8.605469 6.410156 12.199219 5.601562 12.199219 5.601562 8.597656zM23.003906 9.441406C21.128906 7.566406 17.238281 8.414062 14.332031 11.324219 11.421875 14.234375 10.574219 18.125 12.449219 19.996094 13.113281 20.664062 14.039062 21.007812 15.121094 21.007812 15.550781 21.007812 16.007812 20.953125 16.484375 20.839844 18.089844 20.46875 19.734375 19.5 21.121094 18.113281 24.03125 15.203125 24.875 11.3125 23.003906 9.441406zM20.554688 17.546875C19.273438 18.832031 17.765625 19.722656 16.304688 20.0625 14.914062 20.382812 13.746094 20.160156 13.015625 19.429688 11.90625 18.320312 12.015625 16.292969 13.101562 14.28125 13.195312 14.265625 15.4375 13.960938 16.257812 16.796875 16.308594 16.972656 16.46875 17.085938 16.640625 17.085938 16.679688 17.085938 16.714844 17.082031 16.753906 17.070312 16.964844 17.011719 17.085938 16.789062 17.027344 16.574219 16.289062 14.023438 14.519531 13.546875 13.582031 13.480469 13.859375 13.066406 14.179688 12.664062 14.535156 12.269531 14.585938 12.285156 14.636719 12.289062 14.691406 12.28125 14.796875 12.269531 17.28125 11.988281 18.265625 14.816406 18.324219 14.984375 18.476562 15.085938 18.644531 15.085938 18.6875 15.085938 18.730469 15.078125 18.773438 15.0625 18.984375 14.992188 19.09375 14.761719 19.019531 14.554688 18.179688 12.132812 16.34375 11.601562 15.316406 11.5 15.847656 11.019531 16.402344 10.605469 16.964844 10.273438 17.007812 10.28125 17.046875 10.285156 17.089844 10.28125 17.195312 10.269531 19.664062 10.019531 20.25 13.160156 20.285156 13.351562 20.457031 13.484375 20.644531 13.484375 20.667969 13.484375 20.691406 13.484375 20.71875 13.480469 20.933594 13.4375 21.078125 13.230469 21.039062 13.011719 20.613281 10.734375 19.3125 9.914062 18.300781 9.625 19.003906 9.359375 19.6875 9.222656 20.316406 9.222656 21.164062 9.222656 21.90625 9.476562 22.4375 10.003906 23.996094 11.566406 23.152344 14.949219 20.554688 17.546875zM20.554688 17.546875"/>
    <path d="M 7.203125 17.871094 L 7.203125 14.488281 C 7.984375 14.328125 9.027344 13.941406 10.007812 13.03125 C 11.277344 11.855469 12.007812 10.121094 12.007812 8.273438 L 12.007812 3.003906 C 12.007812 2.964844 12.003906 2.925781 11.996094 2.875 C 11.996094 2.847656 12.007812 2.820312 12.007812 2.796875 C 12.007812 1.351562 8.984375 0.59375 6.003906 0.59375 C 3.019531 0.59375 0 1.351562 0 2.796875 C 0 2.824219 0.0078125 2.847656 0.0117188 2.875 C 0.00390625 2.917969 0 2.960938 0 3.003906 L 0 8.273438 C 0 10.121094 0.726562 11.855469 1.996094 13.03125 C 2.980469 13.941406 4.023438 14.328125 4.800781 14.488281 L 4.800781 17.871094 C 2.191406 18.140625 0.398438 19.238281 0.398438 20.605469 C 0.398438 22.175781 2.859375 23.40625 6.003906 23.40625 C 9.144531 23.40625 11.605469 22.175781 11.605469 20.605469 C 11.605469 19.238281 9.8125 18.140625 7.203125 17.871094 Z M 6.003906 1.394531 C 9.128906 1.394531 11.207031 2.238281 11.207031 2.796875 C 11.203125 2.804688 11.199219 2.8125 11.195312 2.820312 C 11.183594 2.929688 11.097656 3.042969 10.953125 3.160156 C 10.953125 3.164062 10.949219 3.164062 10.945312 3.167969 C 10.90625 3.199219 10.859375 3.230469 10.808594 3.265625 C 10.0625 3.730469 8.324219 4.195312 6.003906 4.195312 C 3.679688 4.195312 1.941406 3.730469 1.199219 3.265625 C 1.148438 3.230469 1.101562 3.199219 1.0625 3.167969 C 1.058594 3.164062 1.054688 3.164062 1.050781 3.160156 C 0.90625 3.042969 0.824219 2.929688 0.808594 2.820312 C 0.808594 2.8125 0.804688 2.804688 0.800781 2.796875 C 0.800781 2.238281 2.875 1.394531 6.003906 1.394531 Z M 2.542969 12.445312 C 1.433594 11.417969 0.800781 9.898438 0.800781 8.273438 L 0.804688 3.957031 C 1.601562 4.460938 2.90625 4.773438 4.300781 4.914062 C 4.328125 4.914062 4.355469 4.917969 4.386719 4.921875 C 4.714844 4.953125 5.046875 4.972656 5.378906 4.984375 C 5.421875 4.988281 5.464844 4.988281 5.507812 4.988281 C 5.671875 4.992188 5.839844 4.996094 6.003906 4.996094 C 6.167969 4.996094 6.332031 4.992188 6.496094 4.988281 C 6.539062 4.988281 6.582031 4.988281 6.625 4.984375 C 6.957031 4.972656 7.289062 4.953125 7.617188 4.921875 C 7.648438 4.917969 7.675781 4.914062 7.707031 4.914062 C 9.101562 4.773438 10.410156 4.460938 11.207031 3.957031 L 11.207031 8.273438 C 11.207031 9.902344 10.570312 11.421875 9.464844 12.445312 C 7.867188 13.925781 6.054688 13.800781 6.039062 13.796875 C 6.027344 13.796875 6.015625 13.796875 6.003906 13.796875 C 5.992188 13.796875 5.980469 13.796875 5.96875 13.796875 C 5.953125 13.796875 4.140625 13.921875 2.542969 12.445312 Z M 6.402344 14.601562 L 6.402344 20.203125 L 5.601562 20.203125 L 5.601562 14.601562 L 5.792969 14.601562 C 5.816406 14.601562 5.839844 14.601562 5.859375 14.601562 L 6.148438 14.601562 C 6.15625 14.601562 6.164062 14.601562 6.175781 14.601562 C 6.183594 14.601562 6.191406 14.601562 6.199219 14.601562 Z M 6.003906 22.605469 C 3.171875 22.605469 1.199219 21.550781 1.199219 20.605469 C 1.199219 19.824219 2.539062 18.925781 4.800781 18.671875 L 4.800781 21.003906 L 7.203125 21.003906 L 7.203125 18.671875 C 9.46875 18.925781 10.804688 19.824219 10.804688 20.605469 C 10.804688 21.550781 8.832031 22.605469 6.003906 22.605469 Z M 6.003906 22.605469"/>
</svg>
