<svg xmlns="http://www.w3.org/2000/svg" width="32" height="32" viewBox="0 0 24 24">
    <path d="M 20.898438 7.867188 C 20.742188 7.867188 20.585938 7.886719 20.433594 7.925781 C 20.273438 7.039062 19.496094 6.363281 18.5625 6.363281 C 17.605469 6.363281 16.8125 7.078125 16.679688 8 L 14 8 L 14 6.074219 C 14.832031 5.867188 15.4375 5.125 15.4375 4.234375 C 15.4375 3.359375 14.84375 2.621094 14.035156 2.402344 C 14.082031 2.238281 14.101562 2.070312 14.101562 1.902344 C 14.101562 0.851562 13.25 0 12.203125 0 C 11.152344 0 10.300781 0.851562 10.300781 1.902344 C 10.300781 2.058594 10.320312 2.214844 10.359375 2.367188 C 9.472656 2.527344 8.800781 3.304688 8.800781 4.234375 C 8.800781 5.179688 9.492188 5.96875 10.398438 6.113281 L 10.398438 8 L 7.273438 8 C 7.070312 7.167969 6.324219 6.5625 5.4375 6.5625 C 4.558594 6.5625 3.820312 7.15625 3.601562 7.964844 C 3.441406 7.917969 3.273438 7.898438 3.101562 7.898438 C 2.054688 7.898438 1.199219 8.75 1.199219 9.796875 C 1.199219 10.847656 2.054688 11.699219 3.101562 11.699219 C 3.257812 11.699219 3.414062 11.679688 3.566406 11.640625 C 3.726562 12.527344 4.503906 13.199219 5.4375 13.199219 C 6.382812 13.199219 7.167969 12.503906 7.3125 11.601562 L 10.398438 11.601562 L 10.398438 17.9375 C 9.589844 18.15625 8.996094 18.898438 8.996094 19.761719 C 8.996094 20.640625 9.59375 21.378906 10.398438 21.597656 C 10.355469 21.761719 10.332031 21.929688 10.332031 22.097656 C 10.332031 23.148438 11.183594 24 12.234375 24 C 13.28125 24 14.132812 23.148438 14.132812 22.097656 C 14.132812 21.941406 14.113281 21.785156 14.074219 21.632812 C 14.960938 21.472656 15.636719 20.695312 15.636719 19.761719 C 15.636719 18.804688 14.921875 18.011719 14 17.882812 L 14 11.601562 L 16.734375 11.601562 C 16.957031 12.410156 17.699219 13.003906 18.5625 13.003906 C 19.4375 13.003906 20.175781 12.40625 20.398438 11.601562 C 20.558594 11.644531 20.726562 11.667969 20.898438 11.667969 C 21.945312 11.667969 22.800781 10.816406 22.800781 9.765625 C 22.800781 8.71875 21.945312 7.867188 20.898438 7.867188 Z M 20.898438 10.867188 C 20.675781 10.867188 20.464844 10.800781 20.28125 10.675781 C 20.15625 10.589844 19.988281 10.585938 19.855469 10.660156 C 19.722656 10.738281 19.648438 10.878906 19.65625 11.03125 C 19.65625 11.042969 19.664062 11.089844 19.664062 11.101562 C 19.664062 11.707031 19.171875 12.203125 18.5625 12.203125 C 17.988281 12.203125 17.507812 11.75 17.472656 11.171875 C 17.457031 10.964844 17.28125 10.800781 17.074219 10.800781 L 13.601562 10.800781 C 13.378906 10.800781 13.199219 10.980469 13.199219 11.199219 L 13.199219 18.273438 C 13.199219 18.386719 13.246094 18.492188 13.332031 18.570312 C 13.414062 18.644531 13.523438 18.683594 13.636719 18.671875 C 13.640625 18.671875 13.679688 18.667969 13.683594 18.667969 C 13.699219 18.664062 13.714844 18.664062 13.734375 18.664062 C 14.339844 18.664062 14.835938 19.15625 14.835938 19.765625 C 14.835938 20.371094 14.339844 20.863281 13.734375 20.863281 C 13.664062 20.863281 13.597656 20.855469 13.53125 20.84375 C 13.371094 20.8125 13.210938 20.886719 13.121094 21.019531 C 13.035156 21.15625 13.039062 21.335938 13.132812 21.46875 C 13.265625 21.65625 13.335938 21.875 13.335938 22.097656 C 13.335938 22.707031 12.839844 23.199219 12.234375 23.199219 C 11.625 23.199219 11.132812 22.707031 11.132812 22.097656 C 11.132812 21.878906 11.199219 21.664062 11.320312 21.480469 C 11.40625 21.355469 11.414062 21.191406 11.339844 21.058594 C 11.269531 20.933594 11.132812 20.855469 10.992188 20.855469 C 10.984375 20.855469 10.976562 20.855469 10.964844 20.855469 C 10.957031 20.855469 10.910156 20.863281 10.898438 20.863281 C 10.292969 20.863281 9.796875 20.371094 9.796875 19.761719 C 9.796875 19.1875 10.25 18.710938 10.824219 18.671875 C 11.035156 18.660156 11.199219 18.484375 11.199219 18.273438 L 11.199219 11.199219 C 11.199219 10.980469 11.019531 10.800781 10.800781 10.800781 L 6.929688 10.800781 C 6.816406 10.800781 6.710938 10.847656 6.636719 10.925781 C 6.5625 11.007812 6.523438 11.117188 6.53125 11.226562 C 6.53125 11.234375 6.535156 11.292969 6.539062 11.296875 C 6.539062 11.90625 6.042969 12.398438 5.4375 12.398438 C 4.828125 12.398438 4.335938 11.90625 4.335938 11.296875 C 4.335938 11.230469 4.34375 11.160156 4.355469 11.097656 C 4.386719 10.9375 4.316406 10.773438 4.179688 10.6875 C 4.042969 10.597656 3.863281 10.605469 3.734375 10.695312 C 3.542969 10.828125 3.328125 10.898438 3.101562 10.898438 C 2.492188 10.898438 2 10.40625 2 9.796875 C 2 9.191406 2.492188 8.695312 3.101562 8.695312 C 3.324219 8.695312 3.535156 8.761719 3.71875 8.886719 C 3.84375 8.972656 4.007812 8.980469 4.144531 8.90625 C 4.277344 8.828125 4.351562 8.683594 4.34375 8.53125 C 4.34375 8.523438 4.335938 8.472656 4.335938 8.464844 C 4.335938 7.855469 4.828125 7.363281 5.4375 7.363281 C 6.027344 7.363281 6.507812 7.828125 6.53125 8.417969 C 6.539062 8.632812 6.714844 8.800781 6.929688 8.800781 L 10.800781 8.800781 C 11.019531 8.800781 11.199219 8.621094 11.199219 8.398438 L 11.199219 5.730469 C 11.199219 5.617188 11.15625 5.511719 11.074219 5.4375 C 10.992188 5.363281 10.886719 5.324219 10.773438 5.328125 C 10.769531 5.332031 10.707031 5.335938 10.703125 5.335938 C 10.09375 5.335938 9.601562 4.84375 9.601562 4.238281 C 9.601562 3.628906 10.09375 3.136719 10.703125 3.136719 C 10.769531 3.136719 10.835938 3.144531 10.902344 3.15625 C 11.0625 3.1875 11.222656 3.117188 11.3125 2.980469 C 11.402344 2.84375 11.394531 2.664062 11.304688 2.53125 C 11.171875 2.34375 11.101562 2.128906 11.101562 1.902344 C 11.101562 1.292969 11.59375 0.800781 12.203125 0.800781 C 12.808594 0.800781 13.304688 1.292969 13.304688 1.902344 C 13.304688 2.121094 13.238281 2.335938 13.113281 2.519531 C 13.027344 2.644531 13.019531 2.808594 13.09375 2.941406 C 13.171875 3.074219 13.3125 3.152344 13.46875 3.144531 C 13.492188 3.140625 13.515625 3.140625 13.535156 3.136719 C 14.144531 3.136719 14.636719 3.628906 14.636719 4.234375 C 14.636719 4.824219 14.175781 5.304688 13.582031 5.332031 C 13.367188 5.339844 13.199219 5.515625 13.199219 5.730469 L 13.199219 8.398438 C 13.199219 8.621094 13.378906 8.800781 13.601562 8.800781 L 17.074219 8.800781 C 17.1875 8.800781 17.292969 8.753906 17.371094 8.667969 C 17.445312 8.585938 17.484375 8.472656 17.472656 8.359375 C 17.472656 8.359375 17.46875 8.324219 17.46875 8.320312 C 17.464844 8.304688 17.460938 8.285156 17.460938 8.265625 C 17.460938 7.660156 17.957031 7.164062 18.5625 7.164062 C 19.171875 7.164062 19.664062 7.660156 19.664062 8.265625 C 19.664062 8.335938 19.65625 8.402344 19.644531 8.46875 C 19.613281 8.628906 19.683594 8.789062 19.820312 8.878906 C 19.960938 8.964844 20.132812 8.960938 20.269531 8.867188 C 20.457031 8.734375 20.671875 8.664062 20.898438 8.664062 C 21.503906 8.664062 22 9.160156 22 9.765625 C 22 10.375 21.507812 10.867188 20.898438 10.867188 Z M 20.898438 10.867188"/>
</svg>
