<svg xmlns="http://www.w3.org/2000/svg" width="32" height="32" viewBox="0 0 24 24">
    <path d="M23.602 11.602h-.875a3.407 3.407 0 0 0-1.168-1.899 3.414 3.414 0 0 0-.012-2.754l.7-.402A.397.397 0 0 0 22.39 6a.396.396 0 0 0-.547-.145l-.696.403a3.43 3.43 0 0 0-1.761-1.254 3.44 3.44 0 0 0-1.48-2.066c-.055-.036-.11-.06-.16-.09l.398-.696A.393.393 0 0 0 18 1.61a.397.397 0 0 0-.547.145l-.441.766a3.408 3.408 0 0 0-2.203.07 3.416 3.416 0 0 0-2.41-1.367V.398a.398.398 0 1 0-.797 0v.825a3.41 3.41 0 0 0-1.946.898 3.434 3.434 0 0 0-2.531.25c-.059.031-.11.067-.164.098l-.414-.715A.397.397 0 0 0 6 1.609a.393.393 0 0 0-.145.543l.454.79a3.424 3.424 0 0 0-1.036 1.937 3.419 3.419 0 0 0-2.386 1.398l-.735-.425A.397.397 0 0 0 1.61 6a.397.397 0 0 0 .145.547l.738.426a3.39 3.39 0 0 0-.199 2.136 3.421 3.421 0 0 0-1.05 2.317c-.005.058.003.117.003.176H.398a.398.398 0 1 0 0 .796h.93a3.425 3.425 0 0 0 1.16 1.883 3.434 3.434 0 0 0 .008 2.742l-.742.43a.397.397 0 0 0-.145.547.395.395 0 0 0 .543.145l.746-.426A3.428 3.428 0 0 0 4.66 18.98c.211.832.723 1.57 1.485 2.067.043.027.085.047.128.07l-.421.727a.4.4 0 0 0 .347.601c.137 0 .274-.07.348-.199l.457-.797c.734.235 1.512.211 2.234-.058a3.425 3.425 0 0 0 2.36 1.367v.844a.401.401 0 0 0 .8 0v-.84a3.433 3.433 0 0 0 1.993-.899c.308.09.62.137.941.137a3.49 3.49 0 0 0 1.594-.39c.043-.02.078-.047.117-.07l.41.706a.397.397 0 0 0 .547.145.397.397 0 0 0 .145-.547l-.446-.77c.57-.52.946-1.207 1.074-1.972.942-.11 1.79-.59 2.364-1.364l.707.407c.062.039.133.054.199.054a.4.4 0 0 0 .203-.746l-.707-.406c.313-.7.383-1.453.219-2.172.617-.598 1-1.41 1.047-2.32.004-.051-.004-.102 0-.153h.797a.401.401 0 0 0 0-.8zm-5.575 6.714a3.473 3.473 0 0 0-3.539 2.067c-.086.195-.199.37-.32.535-.184-.09-.363-.2-.527-.332a3.47 3.47 0 0 0-4.094-.23 3.472 3.472 0 0 0-3.559-2.036c-.21.024-.418.016-.62-.011a2.561 2.561 0 0 1 .023-.622c.242-1.5-.5-2.964-1.848-3.66a3.482 3.482 0 0 0-.016-4.097 3.029 3.029 0 0 1-.304-.547c.172-.113.351-.215.55-.29a3.48 3.48 0 0 0 2.25-3.429 3.476 3.476 0 0 0 3.54-2.066c.085-.192.195-.371.32-.535.183.093.363.199.527.332a3.476 3.476 0 0 0 4.09.234 3.482 3.482 0 0 0 3.559 2.031c.214-.02.421-.012.625.012.015.203.011.41-.024.621-.242 1.5.5 2.965 1.848 3.66a3.476 3.476 0 0 0 .015 4.102c.125.172.223.355.305.543a2.88 2.88 0 0 1-.555.293 3.48 3.48 0 0 0-2.246 3.425zm2.426-11.66l-.687.399a.4.4 0 0 0 .402.691l.687-.398c.247.62.254 1.289.032 1.902a2.681 2.681 0 0 1-1.438-2.828c.028-.176.043-.348.047-.524.367.176.695.43.957.758zm-3.86-3.414l-.34.59a.4.4 0 0 0 .345.602.4.4 0 0 0 .347-.204l.403-.69c.039.022.082.042.12.065.481.313.829.747 1.028 1.243-.172-.004-.348 0-.523.02a2.686 2.686 0 0 1-2.75-1.583c.449-.137.918-.148 1.37-.043zm-4.991-1.215v.774a.398.398 0 1 0 .796 0V2.02a2.651 2.651 0 0 1 1.684.93c-.984.64-2.258.57-3.168-.173a3.154 3.154 0 0 0-.43-.3c.329-.23.707-.387 1.118-.45zM6.727 3.664l.328.566a.399.399 0 0 0 .343.204c.07 0 .137-.02.2-.055a.398.398 0 0 0 .148-.547L7.36 3.16c.043-.023.082-.055.13-.078a2.67 2.67 0 0 1 1.585-.27c-.09.149-.172.301-.246.465a2.678 2.678 0 0 1-2.742 1.59c.101-.453.324-.863.64-1.203zm-3.54 3.711l.645.371a.414.414 0 0 0 .2.055c.14 0 .273-.074.347-.2a.402.402 0 0 0-.149-.546l-.648-.38c.41-.53.992-.878 1.64-.987a2.679 2.679 0 0 1-1.734 2.656 3.271 3.271 0 0 0-.472.222 2.6 2.6 0 0 1 .171-1.191zM2.16 12.398h.64a.398.398 0 1 0 0-.796h-.757c0-.047-.004-.09 0-.133.027-.57.23-1.09.559-1.512.082.152.175.3.28.445.692.946.696 2.22.005 3.172a2.589 2.589 0 0 1-.727-1.176zm1.43 4.918l.64-.37a.398.398 0 1 0-.398-.692l-.64.371a2.642 2.642 0 0 1-.028-1.895 2.673 2.673 0 0 1 1.434 2.829 3.419 3.419 0 0 0-.043.523 2.65 2.65 0 0 1-.965-.766zm3.828 3.418l.328-.566a.4.4 0 0 0-.691-.402l-.383.66c-.031-.02-.063-.031-.09-.051a2.689 2.689 0 0 1-1.031-1.242c.176.008.347 0 .527-.02a2.673 2.673 0 0 1 2.746 1.582c-.457.14-.941.153-1.406.04zm4.98 1.227v-.762a.398.398 0 1 0-.796 0v.754a2.625 2.625 0 0 1-1.633-.918 2.67 2.67 0 0 1 3.164.172c.14.11.285.211.433.297a2.677 2.677 0 0 1-1.168.457zm4.887-1.606l-.34-.585a.398.398 0 1 0-.691.398l.39.68c-.027.015-.05.035-.081.05a2.678 2.678 0 0 1-1.59.27c.093-.145.175-.3.246-.465a2.686 2.686 0 0 1 2.746-1.59c-.11.473-.344.899-.68 1.242zm3.563-3.707l-.68-.394a.4.4 0 0 0-.402.691l.675.39c-.41.513-.98.849-1.613.958a2.68 2.68 0 0 1 1.73-2.656c.169-.063.325-.137.477-.219.035.41-.023.832-.187 1.23zm1.16-4.132a2.682 2.682 0 0 1-.563 1.511 2.92 2.92 0 0 0-.277-.445 2.678 2.678 0 0 1-.004-3.172c.348.324.598.735.73 1.192H21.2a.398.398 0 1 0 0 .796h.805c0 .04.004.079.004.118zm0 0"/>
    <path d="M18.246 15.563A7.11 7.11 0 0 0 19.2 12a7.11 7.11 0 0 0-.953-3.563c-.004-.011-.004-.027-.012-.039-.007-.011-.02-.02-.03-.035a7.213 7.213 0 0 0-2.567-2.566c-.016-.012-.024-.024-.035-.031-.012-.008-.028-.008-.04-.012A7.11 7.11 0 0 0 12 4.8a7.11 7.11 0 0 0-3.563.953c-.011.004-.027.004-.039.012-.011.007-.02.02-.035.03a7.213 7.213 0 0 0-2.566 2.567.253.253 0 0 0-.031.035c-.008.012-.008.024-.012.036a7.136 7.136 0 0 0 0 7.129c.004.011.004.027.012.039.011.02.027.039.043.058a7.273 7.273 0 0 0 2.554 2.543c.016.012.024.024.035.031.016.012.036.016.051.02a7.149 7.149 0 0 0 7.102.004c.015-.008.035-.012.05-.024.012-.007.02-.02.036-.03a7.273 7.273 0 0 0 2.554-2.544c.016-.02.032-.039.043-.058.008-.012.008-.028.012-.04zm-2.707 1.765l-.496-.86a.397.397 0 0 0-.547-.144.397.397 0 0 0-.144.547l.492.856a6.361 6.361 0 0 1-2.442.652v-.984a.401.401 0 0 0-.8 0v.984a6.362 6.362 0 0 1-2.446-.652l.496-.856a.402.402 0 0 0-.695-.402l-.496.86a6.5 6.5 0 0 1-1.79-1.79l.86-.496a.397.397 0 0 0 .145-.547.397.397 0 0 0-.547-.144l-.852.492a6.365 6.365 0 0 1-.656-2.442h.988a.401.401 0 0 0 0-.8h-.988c.055-.875.285-1.7.656-2.446l.852.496a.42.42 0 0 0 .2.051c.14 0 .273-.07.347-.2a.397.397 0 0 0-.145-.546l-.86-.496a6.5 6.5 0 0 1 1.79-1.79l.496.86a.397.397 0 0 0 .547.145.402.402 0 0 0 .148-.547l-.496-.852a6.366 6.366 0 0 1 2.446-.656v.988a.4.4 0 0 0 .8 0v-.988a6.365 6.365 0 0 1 2.442.656l-.492.852a.397.397 0 0 0 .144.547c.063.039.133.054.2.054.14 0 .273-.07.347-.199l.496-.86a6.5 6.5 0 0 1 1.79 1.79l-.86.496a.4.4 0 0 0 .203.746.409.409 0 0 0 .2-.05l.855-.497c.37.746.597 1.57.652 2.446h-.984a.401.401 0 1 0 0 .8h.984a6.361 6.361 0 0 1-.652 2.442l-.856-.492a.4.4 0 0 0-.402.691l.86.496a6.5 6.5 0 0 1-1.79 1.79zm0 0"/>
</svg>
