<svg xmlns="http://www.w3.org/2000/svg" width="32" height="32" viewBox="0 0 24 24">
    <path d="M23.277 13.234c-.843-3.07-2.89-3.722-4.039-3.84-1.308-.136-2.566.555-3.203 1.727-1.156 2.117-3.394 3.113-4.52 3.496a6.605 6.605 0 0 0-1.097-.879c1.121-1.308 1.52-3.265 1.012-5.101-.625-2.262-2.746-3.797-5.2-3.754-1.492.031-2.69.449-3.562 1.234-.2.18-.242.48-.102.711L3.61 8.562c.09.153.25.254.426.27.18.016.36-.055.48-.191.56-.645 1.903-1.434 3.372-.317.355.266.617.633.742 1.028.422 1.328-.234 2.726-1.457 3.117-.64.207-1.07.804-1.07 1.52 0 .757.558 1.41 1.32 1.55 1.621.305 2.71 1.39 2.71 2.7 0 1.554-2.257 2.913-3.62 2.913-1.36 0-3.278-1.949-5.262-5.347l-.266-.407-.57.235-.008.27c-.047 2.534.797 4.878 2.317 6.425C3.78 23.406 5.086 24 6.395 24c3.652 0 6.625-2.582 6.625-5.758 0-.367-.04-.726-.11-1.07 1.61-.613 4.184-1.965 5.656-4.668.082-.149.207-.254.383-.238.473.046 1.145.28 1.547 1.734a6.151 6.151 0 0 1-.504 4.492c-.496.926-1.031 1.399-1.59 1.399-.007 0-.8-.016-1.257-.47-.098-.093-1.942-1.667-2.684-1.894a.505.505 0 0 0-.422.063.507.507 0 0 0-.219.37c-.039.477-.07 2.15 1.297 3.52 1.23 1.23 2.934 1.293 3.301 1.293 1.168 0 2.832-.507 4.121-2.921a9.062 9.062 0 0 0 .738-6.618zM21.82 19.47c-1.097 2.058-2.457 2.492-3.433 2.492-.274 0-1.688-.05-2.692-1.055a3.647 3.647 0 0 1-1.066-2.386c.676.425 1.781 1.324 1.945 1.484.703.691 1.781.7 1.824.7.887 0 1.665-.618 2.313-1.829a6.967 6.967 0 0 0 .57-5.09c-.394-1.433-1.152-2.219-2.25-2.328-.476-.047-.937.211-1.18.656-1.453 2.668-4.105 3.91-5.558 4.414l-.363.125.105.371c.113.387.172.797.172 1.215 0 2.73-2.61 4.95-5.812 4.95-1.09 0-2.184-.508-3.09-1.43-1.059-1.078-1.75-2.594-1.993-4.297 1.473 2.273 3.38 4.504 5.2 4.504 1.75 0 4.433-1.668 4.433-3.727 0-1.715-1.355-3.12-3.37-3.496a.783.783 0 0 1-.657-.785c0-.324.203-.617.5-.71 1.652-.528 2.543-2.388 1.988-4.142a2.962 2.962 0 0 0-1.027-1.43c-1.566-1.187-3.234-.76-4.242.184L3.37 6.59c.711-.57 1.676-.866 2.879-.894 2.059-.047 3.871 1.254 4.398 3.16.465 1.688.047 3.489-1.062 4.582a.508.508 0 0 0-.149.438c.02.16.118.3.258.379.547.309 1.016.68 1.399 1.101l.176.196.246-.078c1.113-.344 3.847-1.422 5.234-3.965.48-.883 1.43-1.403 2.41-1.305.938.094 2.617.645 3.336 3.246a8.267 8.267 0 0 1-.676 6.02zm0 0"/>
    <path d="M14.266 8.234c.242.028.488.043.73.043 1.797 0 3.57-.8 5.27-2.382a.858.858 0 0 0 .28-.625.89.89 0 0 0-.26-.649l-1.044-1.043a.884.884 0 0 0-1.226-.031c-1.184 1.086-2.313 1.582-3.352 1.457-1.664-.195-3.617-1.336-4.18-1.68a.464.464 0 0 0-.535.028.468.468 0 0 0-.164.511c.281.934 1.442 4.004 4.48 4.371zm.304-2.421c1.282.148 2.633-.415 3.996-1.668.028-.024.075-.02.102.007l1.043 1.043c.02.02.023.047.023.059 0 .02-.007.035-.02.047-1.75 1.625-3.534 2.344-5.35 2.125-1.93-.23-2.973-1.82-3.473-2.93.933.5 2.37 1.164 3.68 1.316zm0 0"/>
    <path d="M14.629 4.504a.595.595 0 0 0 .848 0l1.738-1.738a.604.604 0 0 0 0-.852L15.477.176a.604.604 0 0 0-.852 0l-1.738 1.738a.607.607 0 0 0 .004.852zM15.05.902l1.441 1.438-1.441 1.437-1.438-1.437zm0 0"/>
</svg>
