<svg xmlns="http://www.w3.org/2000/svg" width="32" height="32" viewBox="0 0 24 24">
    <path d="M 15.316406 12.457031 C 15.902344 11.15625 16.214844 9.742188 16.214844 8.28125 C 16.214844 5.457031 15.0625 2.804688 12.964844 0.8125 L 12.113281 0 L 11.261719 0.808594 C 9.164062 2.804688 8.011719 5.457031 8.011719 8.28125 C 8.011719 9.730469 8.320312 11.136719 8.898438 12.429688 C 3.957031 13.386719 0.515625 17.648438 0.640625 22.792969 L 0.671875 23.96875 L 1.847656 23.996094 C 1.933594 24 2.023438 24 2.113281 24 C 6.742188 24 10.792969 21.007812 12.101562 16.699219 C 13.363281 21.066406 17.253906 24 21.882812 24 C 21.972656 24 22.0625 24 22.152344 23.996094 L 23.328125 23.96875 L 23.359375 22.792969 C 23.484375 17.714844 20.128906 13.460938 15.316406 12.457031 Z M 13.472656 13.941406 C 13.320312 14.144531 13.15625 14.339844 12.988281 14.53125 C 12.964844 14.558594 12.941406 14.585938 12.917969 14.609375 C 12.75 14.792969 12.578125 14.972656 12.398438 15.144531 C 12.398438 15.148438 12.394531 15.148438 12.394531 15.152344 L 12.113281 15.417969 L 11.832031 15.152344 C 11.648438 14.976562 11.472656 14.792969 11.304688 14.605469 C 11.28125 14.578125 11.257812 14.554688 11.234375 14.527344 C 11.066406 14.335938 10.902344 14.136719 10.75 13.933594 C 10.746094 13.929688 10.738281 13.921875 10.734375 13.914062 C 10.535156 13.648438 10.355469 13.371094 10.1875 13.085938 C 10.519531 13.0625 10.855469 13.046875 11.1875 13.054688 L 12.125 13.074219 L 12.90625 13.054688 C 13.277344 13.046875 13.65625 13.066406 14.03125 13.101562 C 13.863281 13.382812 13.683594 13.660156 13.484375 13.925781 C 13.480469 13.933594 13.476562 13.9375 13.472656 13.941406 Z M 11.832031 1.410156 L 12.113281 1.144531 L 12.394531 1.410156 C 14.324219 3.246094 15.386719 5.6875 15.386719 8.28125 C 15.386719 9.695312 15.066406 11.066406 14.464844 12.316406 C 13.9375 12.25 13.40625 12.214844 12.886719 12.226562 L 12.121094 12.246094 L 11.207031 12.226562 C 10.722656 12.214844 10.238281 12.242188 9.753906 12.296875 C 9.15625 11.050781 8.839844 9.6875 8.839844 8.28125 C 8.839844 5.6875 9.902344 3.246094 11.832031 1.410156 Z M 1.867188 23.167969 L 1.480469 23.160156 L 1.46875 22.773438 C 1.351562 17.964844 4.617188 13.980469 9.28125 13.191406 C 9.65625 13.875 10.117188 14.519531 10.652344 15.117188 C 10.679688 15.152344 10.710938 15.183594 10.742188 15.21875 C 10.910156 15.398438 11.078125 15.578125 11.261719 15.75 L 11.453125 15.933594 C 10.414062 20.253906 6.414062 23.273438 1.867188 23.167969 Z M 22.519531 23.160156 L 22.132812 23.167969 C 22.050781 23.171875 21.964844 23.171875 21.882812 23.171875 C 17.449219 23.171875 13.746094 20.242188 12.757812 15.945312 L 12.964844 15.75 C 13.144531 15.582031 13.3125 15.402344 13.480469 15.222656 C 13.511719 15.191406 13.542969 15.15625 13.574219 15.117188 C 14.101562 14.527344 14.558594 13.890625 14.933594 13.21875 C 19.46875 14.054688 22.648438 18.023438 22.53125 22.773438 Z M 22.519531 23.160156"/>
</svg>
