<svg xmlns="http://www.w3.org/2000/svg" width="32" height="32" viewBox="0 0 24 24">
    <path d="M12 0C5.383 0 0 5.383 0 12s5.383 12 12 12 12-5.383 12-12S18.617 0 12 0zm0 23.172C5.84 23.172.828 18.16.828 12 .828 5.84 5.84.828 12 .828 18.16.828 23.172 5.84 23.172 12c0 6.16-5.012 11.172-11.172 11.172zm0 0"/>
    <path d="M14.605 19.5A7.84 7.84 0 0 1 9.102 12a7.84 7.84 0 0 1 5.503-7.5.414.414 0 0 0 .293-.395c0-.18-.117-.34-.293-.394A8.66 8.66 0 0 0 12 3.309c-4.793 0-8.691 3.898-8.691 8.691 0 4.793 3.898 8.691 8.691 8.691.887 0 1.766-.136 2.605-.402a.414.414 0 0 0 .293-.394c0-.18-.117-.34-.293-.395zM12 19.863c-4.336 0-7.863-3.527-7.863-7.863S7.664 4.137 12 4.137c.371 0 .738.027 1.102.078A8.65 8.65 0 0 0 8.277 12a8.65 8.65 0 0 0 4.825 7.785c-.364.05-.73.078-1.102.078zm0 0"/>
    <path d="M19.918 11.188a.42.42 0 0 0-.336-.286l-2.125-.308-.95-1.922c-.136-.285-.6-.285-.741 0l-.95 1.922-2.12.308a.415.415 0 0 0-.231.707L14 13.11l-.363 2.114a.412.412 0 1 0 .602.438l1.898-1 1.902 1a.416.416 0 0 0 .434-.031.412.412 0 0 0 .164-.407l-.364-2.114 1.54-1.5a.413.413 0 0 0 .105-.421zm-2.375 1.48a.412.412 0 0 0-.121.367l.258 1.5-1.348-.707a.435.435 0 0 0-.195-.047.408.408 0 0 0-.192.047l-1.351.707.258-1.5a.41.41 0 0 0-.118-.367l-1.093-1.066 1.511-.22a.412.412 0 0 0 .309-.226l.676-1.367.675 1.367a.418.418 0 0 0 .313.227l1.508.219zm0 0"/>
</svg>
