<svg xmlns="http://www.w3.org/2000/svg" width="32" height="32" viewBox="0 0 24 24">
    <path d="M 23.601562 8.398438 C 23.820312 8.398438 24 8.222656 24 8 L 24 6.398438 C 24 6.179688 23.820312 6 23.601562 6 L 18.800781 6 C 18.578125 6 18.398438 6.179688 18.398438 6.398438 L 18.398438 10.800781 L 13.199219 10.800781 L 13.199219 5.601562 L 17.601562 5.601562 C 17.820312 5.601562 18 5.421875 18 5.199219 L 18 0.398438 C 18 0.179688 17.820312 0 17.601562 0 L 16 0 C 15.777344 0 15.601562 0.179688 15.601562 0.398438 L 15.601562 3.199219 L 14.800781 3.199219 L 14.800781 0.398438 C 14.800781 0.179688 14.621094 0 14.398438 0 L 12.800781 0 C 12.578125 0 12.398438 0.179688 12.398438 0.398438 L 12.398438 3.199219 L 11.601562 3.199219 L 11.601562 0.398438 C 11.601562 0.179688 11.421875 0 11.199219 0 L 9.601562 0 C 9.378906 0 9.199219 0.179688 9.199219 0.398438 L 9.199219 3.199219 L 8.398438 3.199219 L 8.398438 0.398438 C 8.398438 0.179688 8.222656 0 8 0 L 6.398438 0 C 6.179688 0 6 0.179688 6 0.398438 L 6 5.199219 C 6 5.421875 6.179688 5.601562 6.398438 5.601562 L 10.800781 5.601562 L 10.800781 10.800781 L 5.601562 10.800781 L 5.601562 6.398438 C 5.601562 6.179688 5.421875 6 5.199219 6 L 0.398438 6 C 0.179688 6 0 6.179688 0 6.398438 L 0 8 C 0 8.222656 0.179688 8.398438 0.398438 8.398438 L 3.199219 8.398438 L 3.199219 9.199219 L 0.398438 9.199219 C 0.179688 9.199219 0 9.378906 0 9.601562 L 0 11.199219 C 0 11.421875 0.179688 11.601562 0.398438 11.601562 L 3.199219 11.601562 L 3.199219 12.398438 L 0.398438 12.398438 C 0.179688 12.398438 0 12.578125 0 12.800781 L 0 14.398438 C 0 14.621094 0.179688 14.800781 0.398438 14.800781 L 3.199219 14.800781 L 3.199219 15.601562 L 0.398438 15.601562 C 0.179688 15.601562 0 15.777344 0 16 L 0 17.601562 C 0 17.820312 0.179688 18 0.398438 18 L 5.199219 18 C 5.421875 18 5.601562 17.820312 5.601562 17.601562 L 5.601562 13.199219 L 10.800781 13.199219 L 10.800781 18 L 6.398438 18 C 6.179688 18 6 18.179688 6 18.398438 L 6 23.601562 C 6 23.820312 6.179688 24 6.398438 24 L 8 24 C 8.222656 24 8.398438 23.820312 8.398438 23.601562 L 8.398438 20.398438 L 9.199219 20.398438 L 9.199219 23.601562 C 9.199219 23.820312 9.378906 24 9.601562 24 L 11.199219 24 C 11.421875 24 11.601562 23.820312 11.601562 23.601562 L 11.601562 20.398438 L 12.398438 20.398438 L 12.398438 23.601562 C 12.398438 23.820312 12.578125 24 12.800781 24 L 14.398438 24 C 14.621094 24 14.800781 23.820312 14.800781 23.601562 L 14.800781 20.398438 L 15.601562 20.398438 L 15.601562 23.601562 C 15.601562 23.820312 15.777344 24 16 24 L 17.601562 24 C 17.820312 24 18 23.820312 18 23.601562 L 18 18.398438 C 18 18.179688 17.820312 18 17.601562 18 L 13.199219 18 L 13.199219 13.199219 L 18.398438 13.199219 L 18.398438 17.601562 C 18.398438 17.820312 18.578125 18 18.800781 18 L 23.601562 18 C 23.820312 18 24 17.820312 24 17.601562 L 24 16 C 24 15.777344 23.820312 15.601562 23.601562 15.601562 L 20.800781 15.601562 L 20.800781 14.800781 L 23.601562 14.800781 C 23.820312 14.800781 24 14.621094 24 14.398438 L 24 12.800781 C 24 12.578125 23.820312 12.398438 23.601562 12.398438 L 20.800781 12.398438 L 20.800781 11.601562 L 23.601562 11.601562 C 23.820312 11.601562 24 11.421875 24 11.199219 L 24 9.601562 C 24 9.378906 23.820312 9.199219 23.601562 9.199219 L 20.800781 9.199219 L 20.800781 8.398438 Z M 20.398438 10 L 23.199219 10 L 23.199219 10.800781 L 20.398438 10.800781 C 20.179688 10.800781 20 10.980469 20 11.199219 L 20 12.800781 C 20 13.019531 20.179688 13.199219 20.398438 13.199219 L 23.199219 13.199219 L 23.199219 14 L 20.398438 14 C 20.179688 14 20 14.179688 20 14.398438 L 20 16 C 20 16.222656 20.179688 16.398438 20.398438 16.398438 L 23.199219 16.398438 L 23.199219 17.199219 L 19.199219 17.199219 L 19.199219 12.800781 C 19.199219 12.578125 19.019531 12.398438 18.800781 12.398438 L 12.800781 12.398438 C 12.578125 12.398438 12.398438 12.578125 12.398438 12.800781 L 12.398438 18.398438 C 12.398438 18.621094 12.578125 18.800781 12.800781 18.800781 L 17.199219 18.800781 L 17.199219 23.199219 L 16.398438 23.199219 L 16.398438 20 C 16.398438 19.777344 16.222656 19.601562 16 19.601562 L 14.398438 19.601562 C 14.179688 19.601562 14 19.777344 14 20 L 14 23.199219 L 13.199219 23.199219 L 13.199219 20 C 13.199219 19.777344 13.019531 19.601562 12.800781 19.601562 L 11.199219 19.601562 C 10.980469 19.601562 10.800781 19.777344 10.800781 20 L 10.800781 23.199219 L 10 23.199219 L 10 20 C 10 19.777344 9.820312 19.601562 9.601562 19.601562 L 8 19.601562 C 7.777344 19.601562 7.601562 19.777344 7.601562 20 L 7.601562 23.199219 L 6.800781 23.199219 L 6.800781 18.800781 L 11.199219 18.800781 C 11.421875 18.800781 11.601562 18.621094 11.601562 18.398438 L 11.601562 12.800781 C 11.601562 12.578125 11.421875 12.398438 11.199219 12.398438 L 5.199219 12.398438 C 4.980469 12.398438 4.800781 12.578125 4.800781 12.800781 L 4.800781 17.199219 L 0.800781 17.199219 L 0.800781 16.398438 L 3.601562 16.398438 C 3.820312 16.398438 4 16.222656 4 16 L 4 14.398438 C 4 14.179688 3.820312 14 3.601562 14 L 0.800781 14 L 0.800781 13.199219 L 3.601562 13.199219 C 3.820312 13.199219 4 13.019531 4 12.800781 L 4 11.199219 C 4 10.980469 3.820312 10.800781 3.601562 10.800781 L 0.800781 10.800781 L 0.800781 10 L 3.601562 10 C 3.820312 10 4 9.820312 4 9.601562 L 4 8 C 4 7.777344 3.820312 7.601562 3.601562 7.601562 L 0.800781 7.601562 L 0.800781 6.800781 L 4.800781 6.800781 L 4.800781 11.199219 C 4.800781 11.421875 4.980469 11.601562 5.199219 11.601562 L 11.199219 11.601562 C 11.421875 11.601562 11.601562 11.421875 11.601562 11.199219 L 11.601562 5.199219 C 11.601562 4.980469 11.421875 4.800781 11.199219 4.800781 L 6.800781 4.800781 L 6.800781 0.800781 L 7.601562 0.800781 L 7.601562 3.601562 C 7.601562 3.820312 7.777344 4 8 4 L 9.601562 4 C 9.820312 4 10 3.820312 10 3.601562 L 10 0.800781 L 10.800781 0.800781 L 10.800781 3.601562 C 10.800781 3.820312 10.980469 4 11.199219 4 L 12.800781 4 C 13.019531 4 13.199219 3.820312 13.199219 3.601562 L 13.199219 0.800781 L 14 0.800781 L 14 3.601562 C 14 3.820312 14.179688 4 14.398438 4 L 16 4 C 16.222656 4 16.398438 3.820312 16.398438 3.601562 L 16.398438 0.800781 L 17.199219 0.800781 L 17.199219 4.800781 L 12.800781 4.800781 C 12.578125 4.800781 12.398438 4.980469 12.398438 5.199219 L 12.398438 11.199219 C 12.398438 11.421875 12.578125 11.601562 12.800781 11.601562 L 18.800781 11.601562 C 19.019531 11.601562 19.199219 11.421875 19.199219 11.199219 L 19.199219 6.800781 L 23.199219 6.800781 L 23.199219 7.601562 L 20.398438 7.601562 C 20.179688 7.601562 20 7.777344 20 8 L 20 9.601562 C 20 9.820312 20.179688 10 20.398438 10 Z M 20.398438 10"/>
</svg>
