<svg xmlns="http://www.w3.org/2000/svg" width="32" height="32" viewBox="0 0 24 24">
    <path d="M13.625 8.984h-3.25v3.246h-2.84v3.247h2.84v5.683h3.25v-5.683l2.84-.012V12.23h-2.852zm2.027 4.059v1.613l-2.84.012v5.68h-1.624v-5.684h-2.84v-1.621h2.84v-3.25h1.62l-.007 3.25zm0 0"/>
    <path d="M19.297 9.035l-6.961-8.8-.207-.231-.133.055L11.848 0 4.715 9.023A6.362 6.362 0 0 0 3.3 15.234L6.02 24h11.96l2.723-8.766a6.378 6.378 0 0 0-1.406-6.199zm.629 5.961l-2.543 8.191H6.617l-2.543-8.19A5.586 5.586 0 0 1 5.328 9.55L12 1.117l6.672 8.434.02.023a5.569 5.569 0 0 1 1.234 5.422zm0 0"/>
</svg>
