<svg xmlns="http://www.w3.org/2000/svg" width="32" height="32" viewBox="0 0 24 24">
    <path d="M12 0C5.383 0 0 5.383 0 12s5.383 12 12 12 12-5.383 12-12S18.617 0 12 0zm0 23.172C5.84 23.172.828 18.16.828 12 .828 5.84 5.84.828 12 .828 18.16.828 23.172 5.84 23.172 12c0 6.16-5.012 11.172-11.172 11.172zm0 0"/>
    <path d="M19.863 4.965a.412.412 0 0 0-.136-.305.408.408 0 0 0-.317-.105c-5.402.488-9.765.66-14.805 0a.403.403 0 0 0-.328.101.41.41 0 0 0-.14.309c0 1.078.695 1.996 1.656 2.34v.972h-.828a.414.414 0 0 0-.414.414v2.067c0 .23.187.414.414.414h.414v6.734a1.86 1.86 0 0 0-1.242 1.742c0 .348.281.63.629.63H8.89a.628.628 0 0 0 .625-.63c0-.793-.512-1.488-1.239-1.742v-6.734h7.446v6.734a1.857 1.857 0 0 0-1.239 1.742c0 .348.282.63.625.63h4.13a.628.628 0 0 0 .624-.63c0-.793-.515-1.488-1.242-1.742v-6.734h.414a.414.414 0 0 0 .414-.414V8.69a.414.414 0 0 0-.414-.414h-.828v-.972a2.493 2.493 0 0 0 1.656-2.34zm-1.242 4.137v1.242h-.414a.414.414 0 0 0-.414.414v7.469c0 .207.152.382.355.41.438.062.782.394.868.812h-3.684c.086-.418.426-.75.863-.812a.413.413 0 0 0 .356-.41v-7.47a.414.414 0 0 0-.414-.413H7.863a.414.414 0 0 0-.414.414v7.469c0 .207.153.382.356.41.437.062.777.394.863.812H4.984c.086-.418.43-.75.868-.812a.413.413 0 0 0 .355-.41v-7.47a.414.414 0 0 0-.414-.413h-.414V9.102h.828c.23 0 .414-.184.414-.41V7.448h.828v1.242c0 .227.184.41.414.41h8.274c.23 0 .414-.183.414-.41V7.45h.828v1.242c0 .227.183.41.414.41zM8.277 8.277V7.45h1.239v.828zm2.067 0V7.45h2.898v.828zm3.726 0V7.45h1.653v.828zm3.309-1.656H6.62a1.66 1.66 0 0 1-1.586-1.18c4.73.57 8.902.422 13.934-.02-.2.692-.836 1.2-1.59 1.2zm0 0"/>
</svg>
