<svg xmlns="http://www.w3.org/2000/svg" width="32" height="32" viewBox="0 0 24 24">
    <path d="M 23.960938 12.03125 C 23.890625 11.878906 23.738281 11.78125 23.566406 11.800781 C 23.542969 11.800781 21.804688 11.917969 19.710938 9.800781 L 20.867188 9.800781 C 21.691406 9.800781 22.5 9.464844 23.082031 8.882812 C 23.203125 8.765625 23.234375 8.582031 23.164062 8.429688 C 23.089844 8.277344 22.9375 8.183594 22.765625 8.203125 C 22.746094 8.203125 20.988281 8.320312 18.878906 6.167969 C 19.554688 6.078125 20.195312 5.769531 20.683594 5.28125 C 20.800781 5.164062 20.832031 4.984375 20.761719 4.832031 C 20.691406 4.679688 20.535156 4.585938 20.363281 4.601562 C 20.34375 4.605469 18.261719 4.75 15.90625 1.941406 C 15.832031 1.851562 15.71875 1.800781 15.601562 1.800781 L 8.398438 1.800781 C 8.28125 1.800781 8.167969 1.851562 8.09375 1.941406 C 5.761719 4.722656 3.652344 4.601562 3.636719 4.601562 C 3.460938 4.585938 3.308594 4.679688 3.238281 4.832031 C 3.167969 4.984375 3.199219 5.164062 3.316406 5.28125 C 3.890625 5.855469 4.679688 6.1875 5.492188 6.199219 C 3.410156 8.292969 1.652344 8.199219 1.636719 8.203125 C 1.460938 8.183594 1.308594 8.277344 1.238281 8.429688 C 1.167969 8.582031 1.199219 8.761719 1.316406 8.882812 C 1.898438 9.464844 2.707031 9.800781 3.53125 9.800781 L 4.289062 9.800781 C 2.210938 11.894531 0.453125 11.800781 0.433594 11.800781 C 0.261719 11.78125 0.109375 11.878906 0.0390625 12.03125 C -0.0351562 12.183594 0 12.363281 0.117188 12.484375 C 0.320312 12.6875 0.550781 12.855469 0.800781 12.996094 C 0.800781 12.996094 0.800781 13 0.800781 13 L 0.800781 21.800781 C 0.800781 22.019531 0.980469 22.199219 1.199219 22.199219 L 22.800781 22.199219 C 23.019531 22.199219 23.199219 22.019531 23.199219 21.800781 L 23.199219 13 C 23.199219 13 23.199219 12.996094 23.199219 12.996094 C 23.449219 12.855469 23.679688 12.6875 23.882812 12.484375 C 24 12.363281 24.035156 12.183594 23.960938 12.03125 Z M 22.480469 12.453125 C 22.222656 12.546875 21.945312 12.601562 21.667969 12.601562 L 16.398438 12.601562 L 16.398438 9.800781 L 18.613281 9.800781 C 20.113281 11.53125 21.535156 12.199219 22.480469 12.453125 Z M 8.398438 9.800781 L 15.601562 9.800781 L 15.601562 11.5 C 13.800781 10.84375 10.199219 10.84375 8.398438 11.5 Z M 8.585938 2.601562 L 15.414062 2.601562 C 16.914062 4.332031 18.335938 5 19.28125 5.253906 C 19.023438 5.347656 18.746094 5.398438 18.46875 5.398438 L 5.53125 5.398438 C 5.253906 5.398438 4.976562 5.347656 4.71875 5.253906 C 5.664062 5 7.085938 4.332031 8.585938 2.601562 Z M 2.71875 8.851562 C 3.664062 8.597656 5.085938 7.933594 6.585938 6.199219 L 17.816406 6.199219 C 19.3125 7.933594 20.734375 8.597656 21.679688 8.851562 C 21.421875 8.949219 21.148438 9 20.867188 9 L 3.53125 9 C 3.253906 9 2.976562 8.949219 2.71875 8.851562 Z M 5.386719 9.800781 L 7.601562 9.800781 L 7.601562 12.601562 L 2.332031 12.601562 C 2.054688 12.601562 1.777344 12.546875 1.519531 12.453125 C 2.464844 12.199219 3.886719 11.53125 5.386719 9.800781 Z M 1.601562 13.398438 L 7.601562 13.398438 L 7.601562 21.398438 L 6.800781 21.398438 L 6.800781 15.726562 C 6.800781 15.59375 6.734375 15.46875 6.621094 15.394531 C 5.035156 14.335938 4.164062 14.335938 2.578125 15.394531 C 2.46875 15.46875 2.398438 15.59375 2.398438 15.726562 L 2.398438 21.398438 L 1.601562 21.398438 Z M 3.199219 21.398438 L 3.199219 15.941406 C 4.328125 15.222656 4.871094 15.222656 6 15.941406 L 6 21.398438 Z M 8.398438 13 L 8.398438 12.355469 C 9.863281 11.621094 14.136719 11.621094 15.601562 12.355469 L 15.601562 21.398438 L 14.800781 21.398438 L 14.800781 13.222656 C 14.800781 13.035156 14.667969 12.875 14.484375 12.832031 C 14.003906 12.726562 13.179688 12.601562 12 12.601562 C 10.820312 12.601562 9.996094 12.726562 9.515625 12.832031 C 9.332031 12.875 9.199219 13.035156 9.199219 13.222656 L 9.199219 21.398438 L 8.398438 21.398438 Z M 10 21.398438 L 10 13.554688 C 10.425781 13.480469 11.101562 13.398438 12 13.398438 C 12.898438 13.398438 13.574219 13.480469 14 13.554688 L 14 21.398438 Z M 18 21.398438 L 18 15.941406 C 19.128906 15.222656 19.671875 15.222656 20.800781 15.941406 L 20.800781 21.398438 Z M 22.398438 13.398438 L 22.398438 21.398438 L 21.601562 21.398438 L 21.601562 15.726562 C 21.601562 15.59375 21.53125 15.46875 21.421875 15.394531 C 19.835938 14.335938 18.964844 14.335938 17.378906 15.394531 C 17.265625 15.46875 17.199219 15.59375 17.199219 15.726562 L 17.199219 21.398438 L 16.398438 21.398438 L 16.398438 13.398438 Z M 22.398438 13.398438"/>
</svg>
