<svg xmlns="http://www.w3.org/2000/svg" width="32" height="32" viewBox="0 0 24 24">
    <path d="M23.934 4.77L22.332 2.37c-.148-.223-.516-.223-.664 0L20.066 4.77a.413.413 0 0 0-.066.222v8.52L12.344.39c-.14-.246-.547-.246-.692 0L4 13.51V4.993a.413.413 0 0 0-.066-.222L2.332 2.37c-.148-.223-.516-.223-.664 0L.066 4.77A.412.412 0 0 0 0 4.992v18.403a.4.4 0 0 0 .398.398h23.204a.4.4 0 0 0 .398-.398V4.992a.413.413 0 0 0-.066-.222zM22 3.313l1.2 1.8v3.078h-2.4V5.113zM12 1.387l4.672 8.008h-2.79l-1.538-2.606a.398.398 0 0 0-.688 0l-1.562 2.606H7.328zm1.453 13.207h-2.879L9.25 12.355l1.297-2.164h2.879l1.324 2.239zm1.762-1.38l.812 1.38h-1.64zm-2.242 2.18l-.97 1.618-.956-1.617zm-3.328-.8H7.906l.875-1.457zm-.86-3.024l-.812-1.379h1.64zm2.242-2.175l.97-1.622.956 1.622zm3.328.796h1.739l-.875 1.461zM2 3.312l1.2 1.801v3.078H.8V5.113zm.8 19.68v-3.597c0-.665.54-1.204 1.2-1.204.66 0 1.2.54 1.2 1.204v3.597zm5.2 0v-3.597a1.2 1.2 0 0 1 2.398 0v3.597zm5.602 0v-3.597A1.2 1.2 0 0 1 14.8 18.19c.66 0 1.199.54 1.199 1.204v3.597zm5.199 0v-3.597c0-.665.539-1.204 1.199-1.204s1.2.54 1.2 1.204v3.597zm3.199 0v-3.597c0-1.106-.898-2-2-2-1.102 0-2 .894-2 2v3.597h-1.2v-3.597a1.999 1.999 0 1 0-4 0v3.597h-1.6v-3.597a1.999 1.999 0 1 0-4 0v3.597H6v-3.597c0-1.106-.898-2-2-2-1.102 0-2 .894-2 2v3.597H.8v-14h2.4v6c0 .184.12.34.296.387a.397.397 0 0 0 .45-.184l3.007-5.156 1.367 2.313-1.465 2.437a.4.4 0 0 0 .344.606h2.918l1.54 2.601a.41.41 0 0 0 .343.2c.14 0 .27-.075.344-.196l1.562-2.605h2.824a.4.4 0 1 0 .344-.605l-1.394-2.356 1.402-2.332 2.973 5.093c.09.157.273.23.449.184a.398.398 0 0 0 .297-.387v-6h2.398v14zm0 0"/>
    <path d="M2 7.793c.223 0 .398-.18.398-.398V4.992a.398.398 0 1 0-.796 0v2.403c0 .218.175.398.398.398zm0 0M22 7.793c.223 0 .398-.18.398-.398V4.992a.398.398 0 1 0-.796 0v2.403c0 .218.175.398.398.398zm0 0"/>
</svg>
