<svg xmlns="http://www.w3.org/2000/svg" width="32" height="32" viewBox="0 0 24 24">
    <path d="M12.281.016C12.254.012 12.227 0 12.2 0h-.398c-.024 0-.04.008-.059.012h-.023a4.704 4.704 0 0 0-.336.02h-.012-.004C5.105.46.2 5.714.2 12c0 6.422 5.133 11.727 11.52 11.984.027.004.054.016.082.016h.398c.024 0 .04-.008.059-.012h.023c.11-.004.215-.008.32-.02h.032C18.895 23.54 23.8 18.286 23.8 12 23.8 5.578 18.668.273 12.28.016zm.344 23.144c-.004 0-.008.004-.012.004a5.674 5.674 0 0 1-.445.027h-.031c-.04.004-.082.004-.121.004C5.937 23.098 1 18.085 1 12 1 7.477 3.723 3.523 7.652 1.77A6.207 6.207 0 0 0 12 12.399a5.408 5.408 0 0 1 5.371 5.94c0 .02-.004.04-.008.06-.277 2.48-2.258 4.476-4.738 4.761zm10.305-9.973c-.032.293-.075.586-.13.872a.4.4 0 0 0-.198.34c0 .09.03.164.078.23-.032.14-.07.281-.11.418a.4.4 0 1 0-.371.555.376.376 0 0 0 .223-.079 10.49 10.49 0 0 1-.348.903.393.393 0 0 0-.242.531c-.059.113-.117.227-.18.34a.386.386 0 0 0-.254-.098.401.401 0 0 0-.398.403c0 .168.11.312.258.37-.086.133-.172.266-.266.4a.396.396 0 0 0-.793.026c0 .223.18.403.403.403.035 0 .066-.012.101-.02a11.32 11.32 0 0 1-2.121 2.114c.008-.032.02-.06.02-.094a.401.401 0 0 0-.8 0c-.001.21.163.379.37.394-.574.399-1.18.75-1.824 1.035a6.182 6.182 0 0 0 1.609-2.722.38.38 0 0 0 .242.094.401.401 0 0 0 0-.8c-.031-.001-.058.01-.09.014.043-.265.07-.539.082-.82.004 0 .004.004.008.004a.401.401 0 0 0 0-.8c-.012 0-.02.003-.027.007-.008-.074-.02-.14-.031-.21a.381.381 0 0 0 .058-.196.39.39 0 0 0-.137-.297c-.011-.05-.027-.102-.039-.149a.398.398 0 1 0 .176-.754.397.397 0 0 0-.336.196c-.043-.125-.086-.254-.14-.375a.367.367 0 0 0 .078-.223.4.4 0 0 0-.375-.394l-.106-.176a.39.39 0 0 0 .078-.23A.398.398 0 0 0 17 14c-.035 0-.066.012-.098.02a5.608 5.608 0 0 0-.312-.372c.004-.015.012-.03.012-.046a.402.402 0 0 0-.403-.403c-.015 0-.031.008-.047.012a5.608 5.608 0 0 0-.37-.313c.007-.035.019-.062.019-.097a.398.398 0 0 0-.403-.399.378.378 0 0 0-.226.078 6.003 6.003 0 0 0-.61-.316.39.39 0 0 0 .04-.164.398.398 0 0 0-.778-.125A6.119 6.119 0 0 0 12 11.602c-.055 0-.105-.008-.16-.008a.398.398 0 0 0-.04-.793.401.401 0 0 0-.402.398c0 .2.149.356.336.387a5.458 5.458 0 0 1-1.191-.191.409.409 0 0 0 .059-.196.397.397 0 1 0-.79-.066 5.425 5.425 0 0 1-2.746-2.746.394.394 0 1 0-.261-.73 5.386 5.386 0 0 1-.192-1.188.394.394 0 0 0 .785-.07.395.395 0 1 0-.79-.04c-.003-.054-.006-.105-.006-.16a4.982 4.982 0 0 1 .035-.597c.02-.176.047-.348.082-.516.074.07.172.113.281.113.223 0 .398-.18.398-.398A.398.398 0 0 0 7 4.398c-.031 0-.059.012-.09.02a5.46 5.46 0 0 1 .906-1.621.4.4 0 0 0 .383-.399c0-.003-.004-.011-.004-.015.14-.14.285-.27.438-.39a.396.396 0 0 0 .34-.255A5.326 5.326 0 0 1 11.375.84c.004 0 .008-.004.012-.004.148-.016.297-.023.445-.027h.05c.032-.004.067-.004.098-.004.993.015 1.954.164 2.868.425a.4.4 0 0 0-.246.372.398.398 0 1 0 .722-.227c.305.102.606.219.899.344.054.16.199.281.379.281a.429.429 0 0 0 .156-.031c.113.054.226.117.34.18a.376.376 0 0 0-.098.25c0 .222.18.402.398.402.172 0 .317-.11.372-.258.136.086.27.172.398.262a.4.4 0 0 0 .031.797c.223 0 .403-.18.403-.403 0-.031-.012-.062-.02-.094.793.61 1.5 1.32 2.11 2.114-.032-.008-.06-.02-.09-.02a.401.401 0 0 0 0 .8.396.396 0 0 0 .39-.366c.094.129.18.262.266.394a.401.401 0 0 0 .14.773c.102 0 .188-.038.258-.097.063.11.117.227.176.34a.391.391 0 0 0 .246.531c.129.297.242.598.348.903a.416.416 0 0 0-.227-.079.401.401 0 0 0 0 .801.403.403 0 0 0 .371-.25c.04.137.078.278.114.418a.385.385 0 0 0 .121.574c.054.29.097.579.133.871a.394.394 0 0 0 .05.786c.008.132.012.265.012.402s-.012.27-.016.402a.397.397 0 0 0-.382.399c0 .195.14.351.328.386zm0 0"/>
    <path d="M14.887 6.777c.039.012.074.024.113.024.223 0 .398-.18.398-.403A.398.398 0 0 0 15 6c0-.29-.043-.563-.125-.824.04.011.082.023.125.023.223 0 .398-.18.398-.398A.398.398 0 0 0 15 4.398a.397.397 0 0 0-.36.235 2.94 2.94 0 0 0-.206-.317.397.397 0 0 0 .168-.316.398.398 0 0 0-.403-.398.387.387 0 0 0-.316.168 2.739 2.739 0 0 0-.313-.211.4.4 0 0 0 .23-.36.401.401 0 0 0-.8 0c0 .043.012.086.023.125A2.716 2.716 0 0 0 12.2 3.2a.4.4 0 0 0-.8 0c0 .04.011.078.023.114a2.81 2.81 0 0 0-1.91 1.91c-.035-.012-.07-.024-.114-.024a.401.401 0 0 0 0 .801c0 .29.047.563.125.824a.418.418 0 0 0-.125-.023.4.4 0 0 0 0 .8c.16 0 .297-.097.36-.234.062.113.133.215.21.317A.387.387 0 0 0 9.802 8c0 .223.18.398.398.398a.382.382 0 0 0 .317-.168c.101.079.207.149.316.211a.398.398 0 1 0 .543.234c.262.083.54.126.824.126a.401.401 0 0 0 .801 0 .366.366 0 0 0-.023-.114 2.802 2.802 0 0 0 1.91-1.91zM12.199 8c-1.101 0-2-.898-2-2 0-1.102.899-2 2-2 1.106 0 2 .898 2 2 0 1.102-.894 2-2 2zm0 0M12.2 15.2A2.806 2.806 0 0 0 9.397 18c0 1.543 1.258 2.8 2.801 2.8C13.742 20.8 15 19.544 15 18s-1.258-2.8-2.8-2.8zm0 4.8c-1.102 0-2-.898-2-2 0-1.102.898-2 2-2 1.105 0 2 .898 2 2 0 1.102-.895 2-2 2zm0 0M11.398 2.398a.398.398 0 1 1-.796 0 .398.398 0 1 1 .796 0zm0 0M9.8 2.398a.401.401 0 1 1 0 0zm0 0"/>
    <path d="M13 2.398a.401.401 0 1 1-.802.003.401.401 0 0 1 .802-.003zm0 0M13.8 1.602A.401.401 0 1 1 13 1.597a.401.401 0 0 1 .802.005zm0 0M12.2 1.602a.4.4 0 1 1-.801-.004.4.4 0 0 1 .8.004zm0 0M14.602 2.398a.401.401 0 1 1 0 0zm0 0M16.2 2.398a.401.401 0 1 1-.803.003.401.401 0 0 1 .802-.003zm0 0M10.602 1.602a.401.401 0 1 1-.802-.005.401.401 0 0 1 .802.005zm0 0M9.8 4c0 .223-.179.398-.402.398a.398.398 0 1 1 0-.796c.223 0 .403.175.403.398zm0 0M8.2 4c0 .223-.18.398-.4.398a.398.398 0 1 1 0-.796c.22 0 .4.175.4.398zm0 0M9 3.2a.401.401 0 1 1-.802.002A.401.401 0 0 1 9 3.199zm0 0M16.2 4c0 .223-.18.398-.4.398a.398.398 0 1 1 0-.796c.22 0 .4.175.4.398zm0 0M17.8 4c0 .223-.179.398-.402.398a.398.398 0 1 1 0-.796c.223 0 .403.175.403.398zm0 0M17 3.2a.401.401 0 1 1-.802.002.401.401 0 0 1 .802-.003zm0 0M15.398 3.2a.398.398 0 1 1-.796 0 .398.398 0 1 1 .796 0zm0 0M10.602 3.2a.401.401 0 1 1 0 0zm0 0M8.2 5.602a.4.4 0 1 1-.801-.004.4.4 0 0 1 .8.004zm0 0M9 4.8a.4.4 0 1 1-.8-.003.4.4 0 0 1 .8.004zm0 0M16.2 5.602a.4.4 0 1 1-.801-.004.4.4 0 0 1 .8.004zm0 0M17.8 5.602A.401.401 0 1 1 17 5.597a.401.401 0 0 1 .802.005zm0 0M17 4.8a.4.4 0 1 1-.8-.003.4.4 0 0 1 .8.004zm0 0M19.398 4a.395.395 0 0 1-.398.398.395.395 0 0 1-.398-.398c0-.223.175-.398.398-.398.223 0 .398.175.398.398zm0 0M19.398 5.602a.398.398 0 1 1-.796 0 .398.398 0 1 1 .796 0zm0 0M18.602 4.8a.401.401 0 1 1-.802-.004.401.401 0 0 1 .802.005zm0 0M20.2 4.8a.4.4 0 1 1-.801-.003.4.4 0 0 1 .8.004zm0 0M8.2 7.2a.401.401 0 1 1-.803.002.401.401 0 0 1 .802-.003zm0 0M9 6.398a.401.401 0 1 1-.802.003A.401.401 0 0 1 9 6.398zm0 0M16.2 7.2a.401.401 0 1 1-.803.002.401.401 0 0 1 .802-.003zm0 0M17.8 7.2a.401.401 0 1 1 0 0zm0 0M17 6.398a.401.401 0 1 1-.802.003.401.401 0 0 1 .802-.003zm0 0M9.8 8.8A.401.401 0 1 1 9 8.797.401.401 0 0 1 9.8 8.8zm0 0M8.2 8.8a.4.4 0 1 1-.801-.003.4.4 0 0 1 .8.004zm0 0M9 8c0 .223-.18.398-.398.398a.398.398 0 1 1 0-.796C8.82 7.602 9 7.777 9 8zm0 0M14.602 8.8a.401.401 0 1 1-.802-.004.401.401 0 0 1 .802.005zm0 0M16.2 8.8a.4.4 0 1 1-.801-.003.4.4 0 0 1 .8.004zm0 0M17.8 8.8A.401.401 0 1 1 17 8.797a.401.401 0 0 1 .802.005zm0 0M17 8c0 .223-.18.398-.398.398a.398.398 0 1 1 0-.796c.218 0 .398.175.398.398zm0 0M19.398 7.2a.398.398 0 1 1-.796 0 .398.398 0 1 1 .796 0zm0 0M18.602 6.398a.401.401 0 1 1 0 0zm0 0M18.602 8c0 .223-.18.398-.403.398a.398.398 0 1 1 0-.796c.223 0 .403.175.403.398zm0 0M21 7.2a.401.401 0 1 1-.802.002.401.401 0 0 1 .802-.003zm0 0M20.2 6.398a.401.401 0 1 1-.803.003.401.401 0 0 1 .802-.003zm0 0M20.2 8c0 .223-.18.398-.4.398a.398.398 0 1 1 0-.796c.22 0 .4.175.4.398zm0 0M21.8 8c0 .223-.179.398-.402.398a.398.398 0 1 1 0-.796c.223 0 .403.175.403.398zm0 0M15.398 8a.395.395 0 0 1-.398.398.395.395 0 0 1-.398-.398c0-.223.175-.398.398-.398.223 0 .398.175.398.398zm0 0M11.398 10.398a.398.398 0 1 1-.796 0 .398.398 0 1 1 .796 0zm0 0M9.8 10.398a.401.401 0 1 1 0 0zm0 0M9 9.602a.4.4 0 1 1-.8-.004.4.4 0 0 1 .8.004zm0 0M13 10.398a.401.401 0 1 1-.802.003.401.401 0 0 1 .802-.003zm0 0M13.8 9.602A.401.401 0 1 1 13 9.597a.401.401 0 0 1 .802.005zm0 0M12.2 9.602a.4.4 0 1 1-.801-.004.4.4 0 0 1 .8.004zm0 0M14.602 10.398a.401.401 0 1 1 0 0zm0 0M16.2 10.398a.401.401 0 1 1-.803.003.401.401 0 0 1 .802-.003zm0 0M17.8 10.398a.401.401 0 1 1 0 0zm0 0M17 9.602a.4.4 0 1 1-.8-.004.4.4 0 0 1 .8.004zm0 0M15.398 9.602a.398.398 0 1 1-.796 0 .398.398 0 1 1 .796 0zm0 0M10.602 9.602a.401.401 0 1 1-.802-.005.401.401 0 0 1 .802.005zm0 0M13.8 11.2a.401.401 0 1 1 0 0zm0 0M16.2 12c0 .223-.18.398-.4.398a.398.398 0 1 1 0-.796c.22 0 .4.175.4.398zm0 0M17.8 12c0 .223-.179.398-.402.398a.398.398 0 1 1 0-.796c.223 0 .403.175.403.398zm0 0M17 11.2a.401.401 0 1 1-.802.002.401.401 0 0 1 .802-.003zm0 0M19.398 8.8a.398.398 0 1 1-.796 0 .398.398 0 1 1 .796 0zm0 0M19.398 10.398a.398.398 0 1 1-.796 0 .398.398 0 1 1 .796 0zm0 0M18.602 9.602a.401.401 0 1 1-.802-.005.401.401 0 0 1 .802.005zm0 0M19.398 12a.395.395 0 0 1-.398.398.395.395 0 0 1-.398-.398c0-.223.175-.398.398-.398.223 0 .398.175.398.398zm0 0M18.602 11.2a.401.401 0 1 1 0 0zm0 0M21 8.8a.4.4 0 1 1-.8-.003.4.4 0 0 1 .8.004zm0 0M21 10.398a.401.401 0 1 1-.802.003.401.401 0 0 1 .802-.003zm0 0M20.2 9.602a.4.4 0 1 1-.801-.004.4.4 0 0 1 .8.004zm0 0M21 12c0 .223-.18.398-.398.398a.398.398 0 1 1 0-.796c.218 0 .398.175.398.398zm0 0M20.2 11.2a.401.401 0 1 1-.803.002.401.401 0 0 1 .802-.003zm0 0M22.602 10.398a.401.401 0 1 1 0 0zm0 0M21.8 9.602A.401.401 0 1 1 21 9.597a.401.401 0 0 1 .802.005zm0 0M22.602 12c0 .223-.18.398-.403.398a.398.398 0 1 1 0-.796c.223 0 .403.175.403.398zm0 0M21.8 11.2a.401.401 0 1 1 0 0zm0 0M17.8 13.602a.401.401 0 1 1-.801-.005.401.401 0 0 1 .802.005zm0 0M17 12.8a.4.4 0 1 1-.8-.003.4.4 0 0 1 .8.004zm0 0M19.398 13.602a.398.398 0 1 1-.796 0 .398.398 0 1 1 .796 0zm0 0M18.602 12.8a.401.401 0 1 1-.802-.004.401.401 0 0 1 .802.005zm0 0M21 13.602a.4.4 0 1 1-.8-.004.4.4 0 0 1 .8.004zm0 0M20.2 12.8a.4.4 0 1 1-.801-.003.4.4 0 0 1 .8.004zm0 0M22.602 13.602a.401.401 0 1 1-.802-.005.401.401 0 0 1 .802.005zm0 0M21.8 12.8a.401.401 0 1 1-.801-.004.401.401 0 0 1 .802.005zm0 0M19.398 15.2a.398.398 0 1 1-.796 0 .398.398 0 1 1 .796 0zm0 0M18.602 14.398a.401.401 0 1 1 0 0zm0 0M21 15.2a.401.401 0 1 1-.802.002.401.401 0 0 1 .802-.003zm0 0M20.2 14.398a.401.401 0 1 1-.803.003.401.401 0 0 1 .802-.003zm0 0M21.8 14.398a.401.401 0 1 1 0 0zm0 0M19.398 16.8a.398.398 0 1 1-.796 0 .398.398 0 1 1 .796 0zm0 0M21 16.8a.4.4 0 1 1-.8-.003.4.4 0 0 1 .8.004zm0 0M20.2 16c0 .223-.18.398-.4.398a.398.398 0 1 1 0-.796c.22 0 .4.175.4.398zm0 0M21.8 16c0 .223-.179.398-.402.398a.398.398 0 1 1 0-.796c.223 0 .403.175.403.398zm0 0M19.398 18.398a.398.398 0 1 1-.796 0 .398.398 0 1 1 .796 0zm0 0M20.2 17.602a.4.4 0 1 1-.801-.004.4.4 0 0 1 .8.004zm0 0M19.398 20a.395.395 0 0 1-.398.398.395.395 0 0 1-.398-.398c0-.223.175-.398.398-.398.223 0 .398.175.398.398zm0 0M20.2 19.2a.401.401 0 1 1-.803.002.401.401 0 0 1 .802-.003zm0 0M15.398 11.2a.398.398 0 1 1-.796 0 .398.398 0 1 1 .796 0zm0 0"/>
</svg>
