<svg xmlns="http://www.w3.org/2000/svg" width="32" height="32" viewBox="0 0 24 24">
    <path d="M21.785 1.629h-9.402v-.227C12.383.63 11.753 0 10.98 0H9.352c-.774 0-1.403.629-1.403 1.402v.227H5.68a.38.38 0 0 0-.378.383v3.082H2.215a.38.38 0 0 0-.38.383V19.78c0 .008 0 .012.005.016 0 .008 0 .015.004.023 0 .004 0 .012.004.016 0 .008 0 .016.004.02 0 .007.003.011.003.019.004.004.004.012.008.016.004.007.004.011.008.015l.008.02c.004.004.008.008.008.015.004.004.008.012.011.016l.012.016.012.015.023.024v.004l3.875 3.87v.005a.17.17 0 0 0 .028.023c.004.004.007.008.011.008.008.004.012.012.02.015.004 0 .008.004.016.008.003.004.007.008.015.008l.016.012a.03.03 0 0 1 .015.008c.008 0 .012.004.02.004.004.003.012.003.016.007.007 0 .011.004.02.004.003 0 .01.004.019.004.004 0 .011.004.02.004.003 0 .01 0 .015.004H17.3a.38.38 0 0 0 .38-.383v-1.656h4.105a.38.38 0 0 0 .38-.383V2.012a.38.38 0 0 0-.38-.383zm-13.07-.227c0-.351.285-.636.637-.636h1.628c.352 0 .637.285.637.636v.227H8.715zm0 4.457h1.883v1.887H8.715zm1.754 2.649a.629.629 0 0 1-.508.258h-.61a.629.629 0 0 1-.507-.258zM6.063 2.395h1.886v2.699H6.063zm-.356 19.183v1.117L3.141 20.13h2.566zm11.211 0v1.656H6.473v-3.488a.383.383 0 0 0-.383-.383H2.598V5.86h5.351v1.887H4.867a.38.38 0 1 0 0 .762h3.137c.164.59.707 1.02 1.348 1.02h.609c.64 0 1.184-.43 1.348-1.02h3.546c.211 0 .38-.168.38-.38a.38.38 0 0 0-.38-.382h-3.492V5.86h5.555zm4.484-.379H17.68V5.477a.38.38 0 0 0-.38-.383h-5.937v-1.86a.383.383 0 0 0-.765 0v1.86H8.715v-2.7h12.687zm0 0"/>
    <path d="M14.855 11.008H4.867a.38.38 0 1 0 0 .762h9.988c.211 0 .38-.168.38-.383a.377.377 0 0 0-.38-.38zm0 0M14.855 14.266H4.867a.383.383 0 0 0 0 .765h9.988a.38.38 0 0 0 .38-.383.38.38 0 0 0-.38-.382zm0 0M14.855 17.527H4.867a.383.383 0 0 0 0 .766h9.988a.38.38 0 0 0 .38-.383.38.38 0 0 0-.38-.383zm0 0"/>
</svg>
