<svg xmlns="http://www.w3.org/2000/svg" width="32" height="32" viewBox="0 0 24 24">
    <path d="M22.688 16.336l-4.211-4.215a4.495 4.495 0 0 0-5.465-.687l-.446-.446a4.495 4.495 0 0 0-.687-5.465l-4.215-4.21A4.448 4.448 0 0 0 4.488 0C3.29 0 2.16.465 1.312 1.313A4.461 4.461 0 0 0 0 4.487C0 5.691.465 6.82 1.313 7.664l4.21 4.215A4.478 4.478 0 0 0 8.7 13.19a4.47 4.47 0 0 0 2.29-.625l.445.446a4.495 4.495 0 0 0 .687 5.465l4.215 4.21A4.448 4.448 0 0 0 19.512 24c1.199 0 2.328-.465 3.175-1.313A4.461 4.461 0 0 0 24 19.512a4.448 4.448 0 0 0-1.313-3.176zm-13.989-3.89c-1 0-1.941-.387-2.648-1.094L1.84 7.14a3.753 3.753 0 0 1 0-5.301 3.753 3.753 0 0 1 5.3 0l4.212 4.21a3.747 3.747 0 0 1 .668 4.391l-.56-.558a3.026 3.026 0 0 0-.636-3.305l-4.21-4.21a3.004 3.004 0 0 0-4.247 4.245l4.211 4.211a3.01 3.01 0 0 0 2.129.875c.398 0 .797-.078 1.176-.238l.558.559a3.73 3.73 0 0 1-1.742.425zm-2.332-4.5l2.93 2.933a2.272 2.272 0 0 1-2.192-.582l-4.21-4.211a2.254 2.254 0 0 1 0-3.191 2.254 2.254 0 0 1 3.19 0l4.212 4.21c.578.579.789 1.422.582 2.192l-2.934-2.93a1.12 1.12 0 0 0-1.578 0 1.111 1.111 0 0 0 0 1.578zm4.934 3.882l-1.078-1.082h-.004v-.004l-3.324-3.32a.372.372 0 1 1 .527-.527l3.32 3.324h.004v.004l1.082 1.078 1.95 1.949v.004h.003v.004l2.625 2.62c.07.071.106.165.106.263a.369.369 0 0 1-.106.265.369.369 0 0 1-.265.106.366.366 0 0 1-.262-.106l-2.621-2.625h-.004v-.004h-.004zm5.629 3.524l-2.227-2.23a2.272 2.272 0 0 1 2.192.581l4.21 4.211a2.254 2.254 0 0 1 0 3.191 2.254 2.254 0 0 1-3.19 0l-4.212-4.21a2.272 2.272 0 0 1-.582-2.192l2.23 2.227a1.111 1.111 0 0 0 1.579 0 1.111 1.111 0 0 0 0-1.578zm5.23 6.808a3.72 3.72 0 0 1-2.648 1.094 3.722 3.722 0 0 1-2.653-1.094l-4.21-4.21a3.747 3.747 0 0 1-.669-4.391l.56.558a3.026 3.026 0 0 0 .636 3.305l4.21 4.21a2.996 2.996 0 0 0 2.126.88 3.004 3.004 0 0 0 2.121-5.125l-4.211-4.211a3.026 3.026 0 0 0-3.305-.637l-.558-.559a3.747 3.747 0 0 1 4.39.668l4.211 4.211a3.722 3.722 0 0 1 1.094 2.653c0 1-.387 1.941-1.094 2.648zm0 0M18.352 5.45a.375.375 0 0 0-.528 0l-2.082 2.085a.363.363 0 0 0 0 .524.36.36 0 0 0 .262.109.36.36 0 0 0 .262-.11l2.086-2.081a.375.375 0 0 0 0-.528zm0 0M14.414 3.82a.37.37 0 0 0-.371.371v2.95a.373.373 0 0 0 .746 0V4.19a.372.372 0 0 0-.375-.37zm0 0M19.61 9.012h-2.95a.373.373 0 0 0 0 .746h2.95a.37.37 0 0 0 .37-.371.372.372 0 0 0-.37-.375zm0 0"/>
</svg>
