<svg xmlns="http://www.w3.org/2000/svg" width="32" height="32" viewBox="0 0 24 24">
    <path d="M23.688 23.352L.848.516a.372.372 0 0 0-.41-.082.372.372 0 0 0-.235.347v22.84c0 .211.168.379.379.379h22.836a.38.38 0 0 0 .27-.648zm-4.54-.11v-1.238a.38.38 0 0 0-.758 0v1.238h-2.273v-1.238a.38.38 0 0 0-.758 0v1.238h-2.273v-1.238a.377.377 0 0 0-.379-.379.377.377 0 0 0-.379.379v1.238h-2.273v-1.238a.377.377 0 0 0-.38-.379.377.377 0 0 0-.378.379v1.238H7.023v-1.238a.38.38 0 0 0-.757 0v1.238H3.992v-1.238a.38.38 0 0 0-.758 0v1.238H.961V1.7l21.543 21.543zm0 0"/>
    <path d="M16.41 20.32L3.88 7.832a.378.378 0 0 0-.645.27V20.59a.38.38 0 0 0 .38.379h12.53a.38.38 0 0 0 .266-.648zm-12.418-.11V9.017L15.227 20.21zm0 0M8.527 10.215L2.871 4.559a.382.382 0 0 0-.539 0 .384.384 0 0 0 0 .535l5.66 5.656a.373.373 0 0 0 .535 0 .377.377 0 0 0 0-.535zm0 0M10.55 12.438L9.54 11.43a.377.377 0 0 0-.536 0 .377.377 0 0 0 0 .535l1.012 1.012a.37.37 0 0 0 .265.109.378.378 0 0 0 .27-.649zm0 0M23.688 12.918l-2.86-2.86-8.746-8.742v-.004c-.004 0-.004-.003-.004-.003-.008-.008-.015-.016-.023-.02-.004-.004-.008-.008-.012-.008-.004-.008-.012-.011-.02-.015-.003-.004-.007-.004-.011-.008l-.02-.012c-.004-.004-.012-.004-.015-.008-.008-.004-.012-.004-.016-.008-.008-.003-.016-.003-.024-.007-.003 0-.007-.004-.011-.004-.012-.004-.02-.004-.031-.008h-.008v-.004L6.89.211a.14.14 0 0 0-.043-.008h-.063-.004-.004c-.007 0-.015.004-.023.004h-.008a.553.553 0 0 0-.086.027h-.008c-.007.004-.011.008-.02.012-.003.004-.007.004-.01.008 0 0-.005.004-.009.004-.004.004-.008.004-.011.008-.004.004-.012.007-.016.011-.004.004-.008.004-.008.004L6.57.29a.008.008 0 0 0-.008.008c-.007.004-.011.012-.019.016 0 .003-.004.003-.008.007-.004.008-.012.012-.015.02-.004 0-.004.004-.004.004-.004.004-.004.008-.008.008-.004.007-.008.011-.012.02-.004.003-.004.007-.008.01 0 0-.004.005-.004.009-.004.004-.004.007-.007.011v.004a.03.03 0 0 0-.008.016c0 .004-.004.004-.004.008 0 0 0 .004-.004.004l-.012.035v.004l-.011.039v.011c0 .004-.004.012-.004.02V.617c.003.016.003.028.007.04l1 4.995v.004c0 .008.004.016.004.024.004.008.004.015.008.023.004.004.004.012.008.02 0 .004.004.007.004.011a.085.085 0 0 0 .012.02l.003.012a.085.085 0 0 0 .012.02c.004.003.004.007.008.01a.069.069 0 0 0 .016.02c0 .004.004.008.007.008a.085.085 0 0 0 .016.02c.004.004.004.004.004.008l8.75 8.746 2.855 2.859c.075.074.172.11.27.11a.378.378 0 0 0 .27-.11l4-4.004a.379.379 0 0 0 0-.535zm-11.875-10.8l8.21 8.21-.75.75-8.21-8.21zm6.925 9.495l-.894.895-8.211-8.211.449-.445v-.004l.445-.446zM7.473 1.957l-.176-.895.246.051.644.13zm.18.89l1.429-1.425 1.965.39-1.5 1.5h-.004l-.711.715-.785.785zm.695 2.735l.75-.75 8.21 8.211-.75.75zm11.07 11.07l-2.324-2.324 1.02-1.015 2.448-2.45 2.32 2.325zm0 0"/>
    <path d="M21.664 13.047l-1.008-1.012a.377.377 0 0 0-.535 0 .377.377 0 0 0 0 .535l1.008 1.012c.074.074.172.11.27.11a.377.377 0 0 0 .266-.645zm0 0M23.688 4.695L19.398.406a1.389 1.389 0 0 0-1.964 0l-1.286 1.285a1.389 1.389 0 0 0 0 1.965l4.29 4.29a.381.381 0 0 0 .535 0l2.715-2.716a.377.377 0 0 0 0-.535zm-7.004-1.574a.63.63 0 0 1 0-.89L17.969.94a.634.634 0 0 1 .894 0l1.16 1.16-2.18 2.18zm4.02 4.02l-2.321-2.32 2.18-2.18 2.32 2.32zm0 0"/>
    <path d="M21.973 4.695l-1.145-1.144a.377.377 0 0 0-.535 0 .377.377 0 0 0 0 .535l1.145 1.144a.37.37 0 0 0 .265.11.378.378 0 0 0 .27-.645zm0 0"/>
</svg>
