<svg xmlns="http://www.w3.org/2000/svg" width="32" height="32" viewBox="0 0 24 24">
    <path d="M22.796875 17.308594C22.730469 17.109375 22.519531 17.003906 22.324219 17.070312 22.125 17.132812 22.019531 17.347656 22.082031 17.542969 22.175781 17.828125 22.226562 18.125 22.226562 18.425781 22.226562 18.542969 22.21875 18.664062 22.203125 18.777344 22.175781 18.984375 22.324219 19.171875 22.527344 19.195312 22.542969 19.199219 22.558594 19.199219 22.574219 19.199219 22.761719 19.199219 22.921875 19.0625 22.949219 18.871094 22.964844 18.722656 22.976562 18.574219 22.976562 18.425781 22.976562 18.042969 22.914062 17.667969 22.796875 17.308594zM1.675781 17.070312C1.480469 17.003906 1.269531 17.109375 1.203125 17.308594 1.085938 17.667969 1.023438 18.042969 1.023438 18.425781 1.023438 18.574219 1.035156 18.722656 1.054688 18.871094 1.078125 19.0625 1.238281 19.199219 1.425781 19.199219 1.441406 19.199219 1.457031 19.199219 1.472656 19.195312 1.675781 19.171875 1.824219 18.984375 1.796875 18.777344 1.78125 18.664062 1.773438 18.542969 1.773438 18.425781 1.773438 18.125 1.824219 17.828125 1.917969 17.542969 1.980469 17.347656 1.875 17.132812 1.675781 17.070312zM1.675781 17.070312"/>
    <path d="M 21.773438 14.515625 L 21.773438 13.226562 C 21.773438 13.019531 21.605469 12.851562 21.398438 12.851562 L 20.625 12.851562 L 20.625 8.625 C 20.625 3.871094 16.753906 0 12 0 C 7.246094 0 3.375 3.871094 3.375 8.625 L 3.375 12.851562 L 2.601562 12.851562 C 2.394531 12.851562 2.226562 13.019531 2.226562 13.226562 L 2.226562 14.515625 C 0.863281 15.34375 0.0234375 16.820312 0.0234375 18.425781 C 0.0234375 20.027344 0.863281 21.507812 2.226562 22.335938 L 2.226562 23.625 C 2.226562 23.832031 2.394531 24 2.601562 24 L 6.398438 24 C 6.605469 24 6.773438 23.832031 6.773438 23.625 L 6.773438 13.226562 C 6.773438 13.019531 6.605469 12.851562 6.398438 12.851562 L 5.824219 12.851562 L 5.824219 8.625 C 5.824219 5.21875 8.59375 2.449219 12 2.449219 C 15.40625 2.449219 18.175781 5.21875 18.175781 8.625 L 18.175781 12.851562 L 17.601562 12.851562 C 17.394531 12.851562 17.226562 13.019531 17.226562 13.226562 L 17.226562 23.625 C 17.226562 23.832031 17.394531 24 17.601562 24 L 21.398438 24 C 21.605469 24 21.773438 23.832031 21.773438 23.625 L 21.773438 22.335938 C 23.136719 21.507812 23.976562 20.027344 23.976562 18.425781 C 23.976562 16.820312 23.136719 15.34375 21.773438 14.515625 Z M 2.226562 21.421875 C 1.316406 20.703125 0.773438 19.605469 0.773438 18.425781 C 0.773438 17.246094 1.316406 16.144531 2.226562 15.425781 Z M 6.023438 13.601562 L 6.023438 23.25 L 2.976562 23.25 L 2.976562 22.121094 C 2.976562 22.121094 2.976562 22.117188 2.976562 22.117188 L 2.976562 13.601562 Z M 12 1.699219 C 8.179688 1.699219 5.074219 4.804688 5.074219 8.625 L 5.074219 12.851562 L 4.125 12.851562 L 4.125 8.625 C 4.125 4.28125 7.65625 0.75 12 0.75 C 16.34375 0.75 19.875 4.28125 19.875 8.625 L 19.875 12.851562 L 18.925781 12.851562 L 18.925781 8.625 C 18.925781 4.804688 15.820312 1.699219 12 1.699219 Z M 21.023438 14.730469 L 21.023438 22.117188 C 21.023438 22.117188 21.023438 22.121094 21.023438 22.121094 L 21.023438 23.25 L 17.976562 23.25 L 17.976562 13.601562 L 21.023438 13.601562 Z M 21.773438 21.421875 L 21.773438 15.425781 C 22.683594 16.144531 23.226562 17.242188 23.226562 18.425781 C 23.226562 19.605469 22.683594 20.703125 21.773438 21.421875 Z M 21.773438 21.421875"/>
</svg>
