<svg xmlns="http://www.w3.org/2000/svg" width="32" height="32" viewBox="0 0 24 24">
    <path d="M23.418 0H.582a.377.377 0 0 0-.379.379V23.62c0 .211.168.379.379.379h22.836c.21 0 .379-.168.379-.379V.38A.377.377 0 0 0 23.418 0zm-.379 23.242H.961V20.97h22.078zm0-3.031H.961v-.918l5.887-8.355 6.16 8.558c.062.09.16.145.27.156a.38.38 0 0 0 .296-.101l4.79-4.5 4.675 4.488zm0-1.723l-4.41-4.234a.381.381 0 0 0-.524-.004l-4.738 4.453-6.215-8.64a.37.37 0 0 0-.304-.16h-.004a.387.387 0 0 0-.309.16L.961 17.98V.758h22.078zm0 0"/>
    <path d="M15.738 7.277a3.21 3.21 0 0 0-3.207 3.207 3.21 3.21 0 0 0 6.418 0 3.213 3.213 0 0 0-3.21-3.207zm0 5.657a2.45 2.45 0 0 1-2.449-2.45 2.45 2.45 0 0 1 4.902 0 2.454 2.454 0 0 1-2.453 2.45zm0 0M19.984 2.629c-.488 0-.922.215-1.214.558a1.584 1.584 0 0 0-1.211-.558c-.485 0-.922.215-1.215.558a1.592 1.592 0 0 0-2.805 1.031.38.38 0 0 0 .762 0 .83.83 0 0 1 .832-.831.83.83 0 0 1 .832.832.38.38 0 0 0 .758 0 .834.834 0 0 1 1.668 0 .38.38 0 0 0 .757 0 .834.834 0 0 1 1.668 0 .38.38 0 0 0 .758 0c0-.88-.715-1.59-1.59-1.59zm0 0M6.848 5.86a1.59 1.59 0 0 0-1.215.562 1.588 1.588 0 0 0-1.211-.563c-.879 0-1.594.715-1.594 1.594a.38.38 0 0 0 .758 0c0-.46.375-.836.836-.836.457 0 .832.375.832.836a.38.38 0 0 0 .758 0c0-.46.375-.836.836-.836.457 0 .832.375.832.836a.38.38 0 0 0 .758 0c0-.879-.715-1.594-1.59-1.594zm0 0"/>
</svg>
