<svg xmlns="http://www.w3.org/2000/svg" width="32" height="32" viewBox="0 0 24 24">
    <path d="M23.46 6.156h-7.519l-.554-3.5a.377.377 0 0 0-.371-.32H8.984a.377.377 0 0 0-.37.32l-.555 3.5H6.145V4.523a.375.375 0 0 0-.375-.375H2.953a.378.378 0 0 0-.379.375v1.633H.54a.378.378 0 0 0-.375.38V23.62c0 .211.168.379.375.379h22.922a.376.376 0 0 0 .375-.379V6.535a.378.378 0 0 0-.375-.379zM9.306 3.09h5.39l.48 3.066h-6.35zM3.328 4.902h2.063v1.254H3.328zm19.754 18.344H.918V11.133h6.375a6.214 6.214 0 0 0-.797 6.918c-.55.308-.906.894-.906 1.55 0 .985.8 1.786 1.785 1.786.621 0 1.191-.328 1.512-.836a6.187 6.187 0 0 0 3.113.836 6.215 6.215 0 0 0 6.207-6.207c0-1.496-.539-2.926-1.5-4.047h6.375zM7.359 18.043l-.004-.004a5.465 5.465 0 0 1-.808-2.86c0-1.59.691-3.097 1.902-4.136a5.445 5.445 0 0 1 7.102 0 5.444 5.444 0 0 1 1.902 4.137A5.458 5.458 0 0 1 12 20.633a5.416 5.416 0 0 1-3.063-.942h-.003a5.51 5.51 0 0 1-1.575-1.648zm.899 2.09c-.184.3-.516.5-.883.5-.566 0-1.031-.461-1.031-1.031 0-.387.215-.73.543-.907a6.303 6.303 0 0 0 1.37 1.438zm14.824-9.754h-7.145A6.227 6.227 0 0 0 12 8.973c-1.438 0-2.828.5-3.938 1.406H.918V6.91h22.164zm0 0"/>
    <path d="M12 10.984a4.199 4.199 0 0 0-4.195 4.196A4.201 4.201 0 0 0 12 19.375a4.201 4.201 0 0 0 4.195-4.195A4.199 4.199 0 0 0 12 10.984zm0 7.637a3.444 3.444 0 0 1-3.441-3.441A3.444 3.444 0 0 1 12 11.738a3.444 3.444 0 0 1 3.441 3.442A3.444 3.444 0 0 1 12 18.62zm0 0"/>
    <path d="M13.922 16.516a.376.376 0 0 0-.531.007c-.371.383-.864.59-1.391.59a.376.376 0 0 0-.375.38c0 .206.168.374.375.374.734 0 1.418-.289 1.93-.816a.38.38 0 0 0-.008-.535zm0 0M12 12.492a.378.378 0 0 0-.379.375c0 .207.172.38.379.38a1.936 1.936 0 0 1 1.867 2.437.374.374 0 0 0 .266.46.306.306 0 0 0 .101.016c.164 0 .317-.11.364-.281.058-.227.09-.461.09-.7A2.687 2.687 0 0 0 12 12.493zm0 0M21.246 12.188a.378.378 0 0 0-.375.378v9.047c0 .207.168.375.375.375.211 0 .379-.168.379-.375v-9.047a.38.38 0 0 0-.379-.379zm0 0M21.246 7.363a.376.376 0 0 0-.375.38v1.605a.377.377 0 1 0 .754 0V7.742a.377.377 0 0 0-.379-.379zm0 0M18.625 2.273h-1.566a.378.378 0 0 0-.375.38c0 .206.168.374.375.374h1.566A.375.375 0 0 0 19 2.652a.378.378 0 0 0-.375-.379zm0 0M17.887 4.66l-.996-.996a.377.377 0 0 0-.536 0 .384.384 0 0 0 0 .535l.997.992a.38.38 0 0 0 .265.114.38.38 0 0 0 .27-.645zm0 0M17.895.11a.38.38 0 0 0-.532 0l-.996.995a.373.373 0 0 0 0 .532.38.38 0 0 0 .266.113c.097 0 .195-.04.27-.113l.992-.992a.377.377 0 0 0 0-.536zm0 0"/>
</svg>
