<svg xmlns="http://www.w3.org/2000/svg" width="32" height="32" viewBox="0 0 24 24">
    <path d="M12.402 0A3.584 3.584 0 0 0 8.82 3.582a3.584 3.584 0 0 0 3.582 3.582 3.587 3.587 0 0 0 3.582-3.582A3.587 3.587 0 0 0 12.402 0zm-.379 3.61h-.449V2.354h.45zm0-2.008H11.2a.378.378 0 0 0-.375.378v2.004c0 .207.168.375.375.375h.824v.852H11.2a.375.375 0 0 0 0 .75h.824v.426A2.833 2.833 0 0 1 9.57 3.582 2.833 2.833 0 0 1 12.023.777zm.754 2.757h.45v.852h-.45zm0 2.028V5.96h.825c.21 0 .378-.168.378-.375V3.984a.376.376 0 0 0-.378-.375h-.825V2.355h.825c.21 0 .378-.167.378-.375a.38.38 0 0 0-.378-.378h-.825V.777a2.833 2.833 0 0 1 2.453 2.805 2.833 2.833 0 0 1-2.453 2.805zm0 0M19.438 17.672a.379.379 0 0 0-.5.18 3.15 3.15 0 0 1-2.829 1.789.375.375 0 0 0 0 .75 3.906 3.906 0 0 0 3.508-2.215.38.38 0 0 0-.18-.504zm0 0M19.617 12.426a.378.378 0 0 0-.379.375v2.406c0 .207.172.375.38.375a.375.375 0 0 0 .374-.375v-2.406a.375.375 0 0 0-.375-.375zm0 0"/>
    <path d="M21.219 8.016a.375.375 0 0 0-.375.375c0 .21.168.379.375.379 1.12 0 2.031.91 2.031 2.027 0 .992-.719 1.82-1.66 1.996a5.389 5.389 0 0 0-5.383-5.176H9.766L6.668 4.133a.38.38 0 0 0-.414-.102.381.381 0 0 0-.242.352v3.32a5.4 5.4 0 0 0-4.41 5.3v.415l-1.29.215a.377.377 0 0 0-.312.37v3.208c0 .184.133.34.313.371l1.43.238a5.382 5.382 0 0 0 4.831 4.157l.242 1.699a.378.378 0 0 0 .375.324h2.403a.378.378 0 0 0 .375-.324l.238-1.68h3.586l.238 1.68a.378.378 0 0 0 .375.324h2.403a.378.378 0 0 0 .375-.324l.257-1.824a5.375 5.375 0 0 0 4.153-5.243v-3.058A2.781 2.781 0 0 0 24 10.797a2.785 2.785 0 0 0-2.781-2.781zM.75 16.89v-2.567l.852-.144v2.43c0 .144.007.285.02.43zM6.766 5.37l1.992 2.246H6.766zM9.27 23.25H7.516l-.18-1.254h2.113zm7.214 0H14.73l-.18-1.254h1.657c.152 0 .309-.008.457-.02zm4.36-10.047v3.406a4.626 4.626 0 0 1-3.805 4.559c-.27.05-.55.078-.832.078H6.988c-.02 0-.043-.004-.066-.004H6.91a4.637 4.637 0 0 1-4.484-3.816 4.767 4.767 0 0 1-.07-.817v-3.605a4.639 4.639 0 0 1 4.632-4.637h9.219a4.64 4.64 0 0 1 4.637 4.637zm0 0"/>
    <path d="M5.188 11.625a1.579 1.579 0 0 0 0 3.156c.867 0 1.578-.707 1.578-1.578 0-.871-.711-1.578-1.579-1.578zm0 2.402a.825.825 0 1 1-.006-1.65.825.825 0 0 1 .005 1.65zm0 0M15.61 10.02H8.792a.376.376 0 0 0-.375.378v2.004c0 .207.168.375.375.375h6.816a.375.375 0 0 0 .375-.375v-2.004a.376.376 0 0 0-.375-.378zm-.38 2.003H9.168v-1.25h6.062zm0 0"/>
</svg>
