<svg xmlns="http://www.w3.org/2000/svg" width="32" height="32" viewBox="0 0 24 24">
    <path d="M 20.765625 1.589844 C 20.617188 1.441406 20.371094 1.441406 20.21875 1.589844 L 19.34375 2.464844 C 19.191406 2.617188 19.191406 2.863281 19.34375 3.011719 C 19.417969 3.089844 19.519531 3.125 19.617188 3.125 C 19.714844 3.125 19.816406 3.089844 19.890625 3.011719 L 20.765625 2.136719 C 20.917969 1.988281 20.917969 1.742188 20.765625 1.589844 Z M 20.765625 1.589844"/>
    <path d="M 22.808594 0.714844 C 21.851562 -0.238281 20.300781 -0.238281 19.34375 0.714844 L 17.867188 2.191406 L 16.683594 1.007812 C 16.53125 0.855469 16.285156 0.855469 16.136719 1.007812 L 14.675781 2.464844 C 14.527344 2.617188 14.527344 2.863281 14.675781 3.011719 L 15.863281 4.199219 L 13.722656 6.335938 L 10.011719 6.335938 C 9.796875 6.335938 9.625 6.507812 9.625 6.722656 L 9.625 10.4375 L 8.1875 11.871094 L 8.1875 6.722656 C 8.1875 6.507812 8.015625 6.335938 7.800781 6.335938 L 0.863281 6.335938 C 0.648438 6.335938 0.476562 6.507812 0.476562 6.722656 L 0.476562 14.125 C 0.476562 14.339844 0.648438 14.511719 0.863281 14.511719 L 6.1875 14.511719 L 5.335938 15.824219 L 0.863281 15.824219 C 0.648438 15.824219 0.476562 15.996094 0.476562 16.210938 L 0.476562 23.613281 C 0.476562 23.828125 0.648438 24 0.863281 24 L 7.800781 24 C 8.015625 24 8.1875 23.828125 8.1875 23.613281 L 8.1875 17.871094 L 9.625 16.941406 L 9.625 23.613281 C 9.625 23.828125 9.796875 24 10.011719 24 L 16.949219 24 C 17.164062 24 17.335938 23.828125 17.335938 23.613281 L 17.335938 16.210938 C 17.335938 15.996094 17.164062 15.824219 16.949219 15.824219 L 11.164062 15.824219 L 12.476562 14.511719 L 16.949219 14.511719 C 17.164062 14.511719 17.335938 14.339844 17.335938 14.125 L 17.335938 9.652344 L 19.324219 7.664062 L 20.511719 8.847656 C 20.582031 8.921875 20.683594 8.960938 20.785156 8.960938 C 20.886719 8.960938 20.984375 8.921875 21.058594 8.847656 L 22.515625 7.390625 C 22.667969 7.238281 22.667969 6.992188 22.515625 6.84375 L 21.332031 5.65625 L 22.808594 4.179688 C 23.761719 3.226562 23.761719 1.671875 22.808594 0.714844 Z M 10.398438 7.109375 L 12.949219 7.109375 L 10.398438 9.664062 Z M 1.25 13.738281 L 1.25 7.109375 L 7.414062 7.109375 L 7.414062 12.644531 L 7.382812 12.675781 C 7.363281 12.695312 7.347656 12.714844 7.332031 12.738281 L 6.6875 13.738281 Z M 7.414062 23.226562 L 1.25 23.226562 L 1.25 16.597656 L 4.835938 16.597656 L 4.125 17.699219 C 4.027344 17.851562 4.046875 18.054688 4.175781 18.183594 L 5.34375 19.347656 C 5.417969 19.421875 5.515625 19.460938 5.617188 19.460938 C 5.6875 19.460938 5.761719 19.441406 5.824219 19.398438 L 7.414062 18.371094 Z M 16.5625 16.597656 L 16.5625 23.226562 L 10.398438 23.226562 L 10.398438 16.597656 Z M 16.5625 13.738281 L 13.25 13.738281 L 16.5625 10.425781 Z M 16.675781 9.21875 L 10.332031 15.5625 L 9.832031 15.886719 C 9.828125 15.890625 9.824219 15.890625 9.824219 15.894531 C 9.820312 15.894531 9.820312 15.894531 9.816406 15.898438 C 9.816406 15.898438 9.8125 15.898438 9.8125 15.902344 C 9.808594 15.902344 9.804688 15.90625 9.800781 15.90625 L 7.589844 17.335938 L 5.667969 18.582031 L 4.945312 17.855469 L 5.871094 16.421875 L 7.222656 14.335938 L 7.960938 13.195312 L 8.074219 13.078125 L 10.285156 10.871094 L 14.15625 6.996094 L 16.410156 4.746094 L 18.777344 7.117188 Z M 21.695312 7.117188 L 20.785156 8.027344 L 19.597656 6.84375 L 16.683594 3.925781 L 15.496094 2.738281 L 16.410156 1.828125 L 20.511719 5.929688 Z M 22.261719 3.632812 L 20.785156 5.109375 L 18.414062 2.738281 L 19.890625 1.261719 C 20.542969 0.609375 21.609375 0.609375 22.261719 1.261719 C 22.914062 1.917969 22.914062 2.980469 22.261719 3.632812 Z M 22.261719 3.632812"/>
    <path d="M10.558594 11.800781C10.40625 11.648438 10.160156 11.648438 10.007812 11.800781L8.84375 12.96875C8.691406 13.117188 8.691406 13.363281 8.84375 13.515625 8.917969 13.589844 9.015625 13.628906 9.117188 13.628906 9.214844 13.628906 9.3125 13.589844 9.390625 13.515625L10.558594 12.347656C10.707031 12.195312 10.707031 11.953125 10.558594 11.800781zM15.808594 6.550781C15.65625 6.398438 15.410156 6.398438 15.261719 6.550781L11.175781 10.632812C11.027344 10.785156 11.027344 11.03125 11.175781 11.179688 11.253906 11.257812 11.351562 11.292969 11.449219 11.292969 11.550781 11.292969 11.648438 11.257812 11.722656 11.179688L15.808594 7.097656C15.957031 6.945312 15.957031 6.703125 15.808594 6.550781zM15.808594 6.550781"/>
</svg>
