<svg xmlns="http://www.w3.org/2000/svg" width="32" height="32" viewBox="0 0 24 24">
    <path d="M 22.804688 19.691406 L 17.855469 14.742188 L 19.859375 14.015625 C 20.027344 13.953125 20.128906 13.777344 20.097656 13.597656 L 19.5625 10.554688 L 21.105469 7.882812 C 21.195312 7.722656 21.160156 7.523438 21.023438 7.40625 L 18.65625 5.421875 L 18.121094 2.382812 C 18.089844 2.203125 17.933594 2.074219 17.753906 2.074219 L 14.664062 2.074219 L 12.296875 0.0859375 C 12.160156 -0.0273438 11.957031 -0.0273438 11.816406 0.0859375 L 9.453125 2.074219 L 6.363281 2.074219 C 6.183594 2.074219 6.027344 2.203125 5.996094 2.382812 L 5.457031 5.421875 L 3.09375 7.40625 C 2.953125 7.523438 2.917969 7.722656 3.007812 7.882812 L 4.554688 10.554688 L 4.015625 13.597656 C 3.984375 13.777344 4.085938 13.953125 4.257812 14.015625 L 6.175781 14.710938 L 1.195312 19.691406 C 1.09375 19.792969 1.058594 19.949219 1.109375 20.085938 C 1.160156 20.222656 1.285156 20.316406 1.429688 20.328125 L 4.5 20.585938 L 4.757812 23.65625 C 4.769531 23.800781 4.863281 23.925781 5 23.976562 C 5.042969 23.992188 5.085938 24 5.128906 24 C 5.226562 24 5.320312 23.960938 5.394531 23.890625 L 12 17.285156 L 18.605469 23.890625 C 18.679688 23.960938 18.773438 24 18.871094 24 C 18.914062 24 18.957031 23.992188 19 23.976562 C 19.136719 23.925781 19.230469 23.800781 19.242188 23.65625 L 19.5 20.585938 L 22.570312 20.328125 C 22.714844 20.316406 22.839844 20.222656 22.890625 20.085938 C 22.941406 19.949219 22.90625 19.792969 22.804688 19.691406 Z M 5.433594 22.789062 L 5.21875 20.207031 C 5.203125 20.027344 5.058594 19.882812 4.878906 19.867188 L 2.292969 19.652344 L 6.953125 14.992188 L 7.160156 15.070312 L 8.703125 17.746094 C 8.773438 17.863281 8.898438 17.929688 9.027344 17.929688 C 9.070312 17.929688 9.113281 17.925781 9.15625 17.910156 L 10.980469 17.246094 Z M 12.363281 16.167969 L 12.1875 16.101562 C 12.101562 16.074219 12.011719 16.074219 11.929688 16.101562 L 11.667969 16.199219 L 9.195312 17.097656 L 7.738281 14.578125 C 7.695312 14.5 7.625 14.445312 7.542969 14.414062 L 6.984375 14.210938 L 4.808594 13.417969 L 5.316406 10.550781 C 5.328125 10.464844 5.3125 10.375 5.269531 10.300781 L 3.816406 7.78125 L 6.042969 5.910156 C 6.113281 5.851562 6.15625 5.773438 6.171875 5.6875 L 6.675781 2.820312 L 9.589844 2.820312 C 9.675781 2.820312 9.761719 2.789062 9.828125 2.734375 L 12.058594 0.863281 L 14.289062 2.734375 C 14.355469 2.789062 14.441406 2.820312 14.527344 2.820312 L 17.4375 2.820312 L 17.945312 5.6875 C 17.957031 5.773438 18.003906 5.851562 18.070312 5.910156 L 20.300781 7.78125 L 18.84375 10.300781 C 18.800781 10.375 18.785156 10.464844 18.800781 10.550781 L 19.304688 13.417969 L 17.046875 14.238281 L 16.570312 14.414062 C 16.488281 14.445312 16.417969 14.5 16.375 14.578125 L 14.921875 17.097656 Z M 19.121094 19.867188 C 18.941406 19.882812 18.796875 20.027344 18.78125 20.207031 L 18.566406 22.789062 L 12.953125 17.179688 L 14.960938 17.910156 C 15 17.925781 15.046875 17.929688 15.085938 17.929688 C 15.21875 17.929688 15.34375 17.863281 15.410156 17.746094 L 16.957031 15.070312 L 17.078125 15.023438 L 21.707031 19.652344 Z M 19.121094 19.867188"/>
    <path d="M 12 3.210938 C 8.710938 3.210938 6.039062 5.886719 6.039062 9.175781 C 6.039062 12.460938 8.710938 15.136719 12 15.136719 C 15.289062 15.136719 17.960938 12.460938 17.960938 9.175781 C 17.960938 5.886719 15.289062 3.210938 12 3.210938 Z M 12 14.390625 C 9.125 14.390625 6.785156 12.050781 6.785156 9.175781 C 6.785156 6.300781 9.125 3.960938 12 3.960938 C 14.875 3.960938 17.214844 6.300781 17.214844 9.175781 C 17.214844 12.050781 14.875 14.390625 12 14.390625 Z M 12 14.390625"/>
    <path d="M 16.308594 7.984375 C 16.257812 7.828125 16.113281 7.722656 15.949219 7.722656 L 13.1875 7.722656 L 12.335938 5.097656 C 12.285156 4.941406 12.140625 4.839844 11.980469 4.839844 C 11.816406 4.839844 11.675781 4.941406 11.625 5.097656 L 10.769531 7.722656 L 8.007812 7.722656 C 7.847656 7.722656 7.703125 7.828125 7.652344 7.984375 C 7.601562 8.136719 7.65625 8.304688 7.789062 8.402344 L 10.023438 10.023438 L 9.167969 12.652344 C 9.121094 12.804688 9.175781 12.976562 9.304688 13.070312 C 9.371094 13.117188 9.449219 13.140625 9.523438 13.140625 C 9.601562 13.140625 9.679688 13.117188 9.746094 13.070312 L 11.980469 11.445312 L 14.214844 13.070312 C 14.34375 13.164062 14.523438 13.164062 14.652344 13.070312 C 14.785156 12.976562 14.839844 12.804688 14.789062 12.652344 L 13.9375 10.023438 L 16.171875 8.402344 C 16.300781 8.304688 16.355469 8.136719 16.308594 7.984375 Z M 13.277344 9.578125 C 13.144531 9.675781 13.089844 9.84375 13.140625 9.996094 L 13.722656 11.789062 L 12.199219 10.679688 C 12.070312 10.585938 11.890625 10.585938 11.757812 10.679688 L 10.238281 11.789062 L 10.820312 9.996094 C 10.867188 9.84375 10.8125 9.675781 10.683594 9.578125 L 9.160156 8.472656 L 11.042969 8.472656 C 11.203125 8.472656 11.347656 8.367188 11.398438 8.214844 L 11.980469 6.425781 L 12.5625 8.214844 C 12.609375 8.367188 12.753906 8.472656 12.917969 8.472656 L 14.800781 8.472656 Z M 13.277344 9.578125"/>
</svg>
