<svg xmlns="http://www.w3.org/2000/svg" width="32" height="32" viewBox="0 0 24 24">
    <path d="M11.797 7.95a2.626 2.626 0 0 0 0 5.25 2.63 2.63 0 0 0 2.625-2.626c0-1.449-1.18-2.625-2.625-2.625zm0 4.484a1.859 1.859 0 1 1-.001-3.72 1.859 1.859 0 0 1 0 3.72zm0 0M11.797 18.547c-1.11 0-2.012.902-2.012 2.012 0 .98 1.422 2.914 1.707 3.289.07.097.184.152.305.152s.23-.055.305-.152c.285-.375 1.707-2.309 1.707-3.29 0-1.109-.903-2.011-2.012-2.011zm0 4.422c-.594-.848-1.25-1.957-1.25-2.41a1.247 1.247 0 1 1 2.496 0c0 .453-.652 1.562-1.246 2.41zm0 0"/>
    <path d="M21.02 17.422l-3.747-3.352V6.906v-.011-.024l-.003-.016c0-.007 0-.015-.004-.023 0-.004 0-.008-.004-.016 0-.007 0-.011-.004-.02 0-.003-.004-.01-.004-.015l-.008-.02c-.004-.003-.004-.011-.008-.015-.004-.008-.004-.012-.008-.016a.066.066 0 0 1-.007-.02c-.004-.003-.008-.007-.012-.015l-.012-.015c-.004-.004-.004-.008-.008-.012L12.098.148a.377.377 0 0 0-.602 0l-5.098 6.52-.003.012c-.008.004-.012.011-.016.015 0 .008-.004.012-.008.016a.085.085 0 0 0-.012.02c0 .003-.004.007-.004.015a.03.03 0 0 0-.007.016c-.004.008-.008.011-.008.02-.004.003-.004.011-.008.015 0 .008 0 .012-.004.02 0 .007 0 .011-.004.015 0 .008 0 .016-.004.023v7.215l-3.746 3.352a.38.38 0 0 0-.101.422.376.376 0 0 0 .355.246h17.938a.38.38 0 0 0 .355-.246.38.38 0 0 0-.101-.422zm-14.7-.098H3.828l2.492-2.226zm5.477-16.32l4.312 5.52H7.484zm4.71 16.32H7.083v-2.699h9.426zm0-3.465H7.083V7.285h9.426zm.766 3.465v-2.226l2.493 2.226zm0 0"/>
    <path d="M12.27 9.488a.382.382 0 0 0-.54 0l-1.02 1.02a.382.382 0 0 0 .54.539l1.02-1.02a.382.382 0 0 0 0-.539zm0 0M12.883 10.508a.387.387 0 0 0-.543 0l-.61.61a.387.387 0 0 0 0 .542c.075.074.172.11.27.11a.378.378 0 0 0 .27-.11l.613-.613a.382.382 0 0 0 0-.54zm0 0M22.8 11.82a.38.38 0 0 0-.378.383v6.93a.38.38 0 1 0 .762 0v-6.93a.383.383 0 0 0-.383-.383zm0 0M20.355 10.191a.383.383 0 0 0-.382.383v2.446a.383.383 0 0 0 .765 0v-2.446a.383.383 0 0 0-.383-.383zm0 0M1.2 12.23a.383.383 0 0 0-.384.383v8.153a.38.38 0 1 0 .762 0v-8.153a.38.38 0 0 0-.379-.383zm0 0M3.645 8.559a.383.383 0 0 0-.383.382v3.672c0 .211.172.38.383.38a.38.38 0 0 0 .382-.38V8.941a.383.383 0 0 0-.382-.382zm0 0"/>
</svg>
