<svg xmlns="http://www.w3.org/2000/svg" width="32" height="32" viewBox="0 0 24 24">
    <path d="M 14.039062 1.425781 C 9.851562 1.425781 6.394531 4.609375 5.957031 8.679688 L 5.339844 8.0625 C 5.191406 7.910156 4.949219 7.910156 4.800781 8.0625 C 4.652344 8.210938 4.652344 8.453125 4.800781 8.601562 L 6.023438 9.824219 C 6.03125 9.835938 6.042969 9.84375 6.050781 9.851562 C 6.054688 9.851562 6.058594 9.855469 6.0625 9.859375 C 6.070312 9.863281 6.074219 9.867188 6.082031 9.871094 C 6.085938 9.875 6.089844 9.878906 6.097656 9.882812 C 6.101562 9.886719 6.109375 9.886719 6.113281 9.890625 C 6.117188 9.894531 6.125 9.898438 6.128906 9.898438 C 6.136719 9.902344 6.140625 9.90625 6.148438 9.90625 C 6.152344 9.910156 6.15625 9.910156 6.164062 9.914062 C 6.167969 9.914062 6.175781 9.917969 6.183594 9.921875 C 6.1875 9.921875 6.195312 9.921875 6.199219 9.925781 C 6.207031 9.925781 6.210938 9.925781 6.21875 9.929688 C 6.226562 9.929688 6.230469 9.929688 6.238281 9.933594 C 6.242188 9.933594 6.25 9.933594 6.253906 9.933594 C 6.269531 9.9375 6.28125 9.9375 6.292969 9.9375 C 6.304688 9.9375 6.316406 9.9375 6.332031 9.933594 C 6.335938 9.933594 6.34375 9.933594 6.347656 9.933594 C 6.355469 9.929688 6.359375 9.929688 6.367188 9.929688 C 6.375 9.925781 6.378906 9.925781 6.386719 9.925781 C 6.390625 9.921875 6.398438 9.921875 6.402344 9.921875 C 6.410156 9.917969 6.417969 9.914062 6.421875 9.914062 C 6.429688 9.910156 6.433594 9.910156 6.4375 9.90625 C 6.445312 9.90625 6.449219 9.902344 6.457031 9.898438 C 6.460938 9.898438 6.46875 9.894531 6.472656 9.890625 C 6.476562 9.886719 6.484375 9.886719 6.488281 9.882812 C 6.492188 9.878906 6.5 9.875 6.503906 9.871094 C 6.511719 9.867188 6.515625 9.863281 6.519531 9.859375 C 6.527344 9.855469 6.53125 9.851562 6.535156 9.851562 C 6.542969 9.84375 6.554688 9.835938 6.5625 9.824219 L 7.785156 8.601562 C 7.933594 8.453125 7.933594 8.210938 7.785156 8.0625 C 7.636719 7.910156 7.394531 7.910156 7.246094 8.0625 L 6.742188 8.566406 C 7.226562 4.972656 10.3125 2.191406 14.039062 2.191406 C 14.25 2.191406 14.421875 2.019531 14.421875 1.808594 C 14.421875 1.597656 14.25 1.425781 14.039062 1.425781 Z M 14.039062 1.425781"/>
    <path d="M14.714844 3.984375L13.492188 2.761719C13.34375 2.613281 13.101562 2.613281 12.953125 2.761719 12.804688 2.910156 12.804688 3.152344 12.953125 3.300781L13.546875 3.894531C10.640625 4.144531 8.355469 6.585938 8.355469 9.554688 8.355469 9.765625 8.527344 9.9375 8.738281 9.9375 8.949219 9.9375 9.121094 9.765625 9.121094 9.554688 9.121094 7.027344 11.039062 4.941406 13.492188 4.667969L12.953125 5.207031C12.804688 5.355469 12.804688 5.597656 12.953125 5.746094 13.027344 5.824219 13.125 5.859375 13.222656 5.859375 13.320312 5.859375 13.417969 5.824219 13.492188 5.746094L14.714844 4.523438C14.867188 4.375 14.867188 4.132812 14.714844 3.984375zM11.972656 20.96875C11.972656 20.757812 11.804688 20.585938 11.59375 20.585938L10.371094 20.585938C10.160156 20.585938 9.988281 20.757812 9.988281 20.96875 9.988281 21.003906 9.992188 21.039062 10 21.070312 9.992188 21.101562 9.988281 21.136719 9.988281 21.171875 9.988281 21.382812 10.160156 21.554688 10.371094 21.554688L11.59375 21.554688C11.804688 21.554688 11.972656 21.382812 11.972656 21.171875 11.972656 21.136719 11.96875 21.101562 11.960938 21.070312 11.96875 21.039062 11.972656 21.003906 11.972656 20.96875zM11.972656 20.96875"/>
    <path d="M 19.3125 13.351562 L 19.3125 0.382812 C 19.3125 0.171875 19.140625 0 18.929688 0 L 3.441406 0 C 3.226562 0 3.058594 0.171875 3.058594 0.382812 L 3.058594 22.394531 C 3.058594 22.605469 3.226562 22.777344 3.441406 22.777344 L 12.59375 22.777344 L 12.59375 23.617188 C 12.59375 23.828125 12.765625 24 12.976562 24 L 20.5625 24 C 20.773438 24 20.941406 23.828125 20.941406 23.617188 L 20.941406 15 C 20.941406 14.097656 20.210938 13.363281 19.3125 13.351562 Z M 12.59375 21.375 L 12.59375 22.011719 L 3.820312 22.011719 L 3.820312 20.332031 L 12.59375 20.332031 Z M 12.59375 18.929688 L 12.59375 19.566406 L 3.820312 19.566406 L 3.820312 0.765625 L 18.546875 0.765625 L 18.546875 13.351562 L 15.886719 13.351562 L 15.886719 12.210938 C 16.746094 11.609375 17.273438 10.609375 17.273438 9.554688 C 17.273438 7.769531 15.824219 6.320312 14.039062 6.320312 C 12.253906 6.320312 10.800781 7.769531 10.800781 9.554688 C 10.800781 10.792969 11.496094 11.902344 12.59375 12.449219 L 12.59375 15.039062 L 11.429688 15.039062 C 10.523438 15.039062 9.785156 15.777344 9.785156 16.683594 L 9.785156 16.964844 C 9.785156 17.875 10.523438 18.613281 11.429688 18.613281 L 12.59375 18.613281 Z M 14.238281 7.734375 C 13.332031 7.734375 12.59375 8.472656 12.59375 9.378906 L 12.59375 11.558594 C 11.957031 11.101562 11.566406 10.363281 11.566406 9.554688 C 11.566406 8.191406 12.675781 7.082031 14.039062 7.082031 C 15.402344 7.082031 16.507812 8.191406 16.507812 9.554688 C 16.507812 10.175781 16.285156 10.75 15.886719 11.195312 L 15.886719 9.378906 C 15.886719 8.472656 15.148438 7.734375 14.238281 7.734375 Z M 20.179688 23.234375 L 13.355469 23.234375 L 13.355469 18.230469 C 13.355469 18.019531 13.1875 17.847656 12.976562 17.847656 L 11.429688 17.847656 C 10.945312 17.847656 10.546875 17.453125 10.546875 16.964844 L 10.546875 16.683594 C 10.546875 16.199219 10.945312 15.804688 11.429688 15.804688 L 12.976562 15.804688 C 13.1875 15.804688 13.355469 15.632812 13.355469 15.421875 L 13.355469 9.378906 C 13.355469 8.894531 13.753906 8.5 14.238281 8.5 C 14.726562 8.5 15.121094 8.894531 15.121094 9.378906 L 15.121094 15.421875 C 15.121094 15.632812 15.292969 15.804688 15.503906 15.804688 C 15.714844 15.804688 15.886719 15.632812 15.886719 15.421875 L 15.886719 14.117188 L 17.648438 14.117188 L 17.648438 15.421875 C 17.648438 15.632812 17.820312 15.804688 18.03125 15.804688 C 18.242188 15.804688 18.414062 15.632812 18.414062 15.421875 L 18.414062 14.117188 L 19.296875 14.117188 C 19.78125 14.117188 20.179688 14.511719 20.179688 15 Z M 20.179688 23.234375"/>
</svg>
