<svg xmlns="http://www.w3.org/2000/svg" width="32" height="32" viewBox="0 0 24 24">
    <path d="M 23.625 2.605469 L 21.996094 2.605469 L 21.996094 0.578125 C 21.996094 0.367188 21.828125 0.199219 21.621094 0.199219 C 21.414062 0.199219 21.246094 0.367188 21.246094 0.578125 L 21.246094 2.605469 L 18.789062 2.605469 L 18.789062 0.578125 C 18.789062 0.367188 18.621094 0.199219 18.414062 0.199219 C 18.207031 0.199219 18.039062 0.367188 18.039062 0.578125 L 18.039062 2.605469 L 15.582031 2.605469 L 15.582031 0.578125 C 15.582031 0.367188 15.414062 0.199219 15.207031 0.199219 C 15 0.199219 14.832031 0.367188 14.832031 0.578125 L 14.832031 2.605469 L 12.375 2.605469 L 12.375 0.578125 C 12.375 0.367188 12.207031 0.199219 12 0.199219 C 11.792969 0.199219 11.625 0.367188 11.625 0.578125 L 11.625 2.605469 L 9.167969 2.605469 L 9.167969 0.578125 C 9.167969 0.367188 9 0.199219 8.792969 0.199219 C 8.585938 0.199219 8.417969 0.367188 8.417969 0.578125 L 8.417969 2.605469 L 5.960938 2.605469 L 5.960938 0.578125 C 5.960938 0.367188 5.792969 0.199219 5.585938 0.199219 C 5.378906 0.199219 5.210938 0.367188 5.210938 0.578125 L 5.210938 2.605469 L 2.753906 2.605469 L 2.753906 0.578125 C 2.753906 0.367188 2.585938 0.199219 2.378906 0.199219 C 2.171875 0.199219 2.003906 0.367188 2.003906 0.578125 L 2.003906 2.605469 L 0.375 2.605469 C 0.167969 2.605469 0 2.773438 0 2.980469 L 0 23.421875 C 0 23.632812 0.167969 23.800781 0.375 23.800781 L 23.625 23.800781 C 23.832031 23.800781 24 23.632812 24 23.421875 L 24 2.980469 C 24 2.773438 23.832031 2.605469 23.625 2.605469 Z M 23.25 23.046875 L 0.75 23.046875 L 0.75 3.355469 L 2.003906 3.355469 L 2.003906 4.183594 C 2.003906 4.390625 2.171875 4.558594 2.378906 4.558594 C 2.585938 4.558594 2.753906 4.390625 2.753906 4.183594 L 2.753906 3.355469 L 5.210938 3.355469 L 5.210938 4.183594 C 5.210938 4.390625 5.378906 4.558594 5.585938 4.558594 C 5.792969 4.558594 5.960938 4.390625 5.960938 4.183594 L 5.960938 3.355469 L 8.417969 3.355469 L 8.417969 4.183594 C 8.417969 4.390625 8.585938 4.558594 8.792969 4.558594 C 9 4.558594 9.167969 4.390625 9.167969 4.183594 L 9.167969 3.355469 L 11.625 3.355469 L 11.625 4.183594 C 11.625 4.390625 11.792969 4.558594 12 4.558594 C 12.207031 4.558594 12.375 4.390625 12.375 4.183594 L 12.375 3.355469 L 14.832031 3.355469 L 14.832031 4.183594 C 14.832031 4.390625 15 4.558594 15.207031 4.558594 C 15.414062 4.558594 15.582031 4.390625 15.582031 4.183594 L 15.582031 3.355469 L 18.039062 3.355469 L 18.039062 4.183594 C 18.039062 4.390625 18.207031 4.558594 18.414062 4.558594 C 18.621094 4.558594 18.789062 4.390625 18.789062 4.183594 L 18.789062 3.355469 L 21.246094 3.355469 L 21.246094 4.183594 C 21.246094 4.390625 21.414062 4.558594 21.621094 4.558594 C 21.828125 4.558594 21.996094 4.390625 21.996094 4.183594 L 21.996094 3.355469 L 23.25 3.355469 Z M 23.25 23.046875"/>
    <path d="M22.019531 11.824219L1.980469 11.824219C1.773438 11.824219 1.601562 11.992188 1.601562 12.199219L1.601562 15.40625C1.601562 15.613281 1.773438 15.78125 1.980469 15.78125L22.019531 15.78125C22.226562 15.78125 22.398438 15.613281 22.398438 15.40625L22.398438 12.199219C22.398438 11.992188 22.226562 11.824219 22.019531 11.824219zM21.644531 15.03125L2.355469 15.03125 2.355469 12.578125 21.644531 12.578125zM8.792969 5.8125L2.378906 5.8125C2.171875 5.8125 2.003906 5.980469 2.003906 6.1875L2.003906 9.796875C2.003906 10.003906 2.171875 10.171875 2.378906 10.171875L4.582031 10.171875 5.273438 11.207031C5.34375 11.3125 5.460938 11.375 5.585938 11.375 5.710938 11.375 5.828125 11.3125 5.898438 11.207031L6.589844 10.171875 8.792969 10.171875C9 10.171875 9.167969 10.003906 9.167969 9.796875L9.167969 6.1875C9.167969 5.980469 9 5.8125 8.792969 5.8125zM8.417969 9.417969L6.386719 9.417969C6.261719 9.417969 6.144531 9.480469 6.074219 9.585938L5.585938 10.320312 5.097656 9.585938C5.027344 9.480469 4.910156 9.417969 4.785156 9.417969L2.753906 9.417969 2.753906 6.5625 8.417969 6.5625zM8.417969 9.417969"/>
    <path d="M7.589844 7.015625C7.382812 7.015625 7.214844 7.183594 7.214844 7.390625L7.214844 8.59375C7.214844 8.800781 7.382812 8.96875 7.589844 8.96875 7.796875 8.96875 7.964844 8.800781 7.964844 8.59375L7.964844 7.390625C7.964844 7.183594 7.796875 7.015625 7.589844 7.015625zM21.621094 5.8125L15.207031 5.8125C15 5.8125 14.832031 5.980469 14.832031 6.1875L14.832031 9.796875C14.832031 10.003906 15 10.171875 15.207031 10.171875L17.410156 10.171875 18.101562 11.207031C18.171875 11.3125 18.289062 11.375 18.414062 11.375 18.539062 11.375 18.65625 11.3125 18.726562 11.207031L19.417969 10.171875 21.621094 10.171875C21.828125 10.171875 21.996094 10.003906 21.996094 9.796875L21.996094 6.1875C21.996094 5.980469 21.828125 5.8125 21.621094 5.8125zM21.246094 9.417969L19.214844 9.417969C19.089844 9.417969 18.972656 9.480469 18.902344 9.585938L18.414062 10.320312 17.925781 9.585938C17.855469 9.480469 17.738281 9.417969 17.613281 9.417969L15.582031 9.417969 15.582031 6.5625 21.246094 6.5625zM21.246094 9.417969"/>
    <path d="M20.417969 7.015625C20.210938 7.015625 20.042969 7.183594 20.042969 7.390625L20.042969 8.59375C20.042969 8.800781 20.210938 8.96875 20.417969 8.96875 20.625 8.96875 20.792969 8.800781 20.792969 8.59375L20.792969 7.390625C20.792969 7.183594 20.625 7.015625 20.417969 7.015625zM15.207031 17.035156L13.003906 17.035156 12.3125 16C12.242188 15.894531 12.125 15.832031 12 15.832031 11.875 15.832031 11.757812 15.894531 11.6875 16L10.996094 17.035156 8.792969 17.035156C8.585938 17.035156 8.417969 17.203125 8.417969 17.410156L8.417969 21.019531C8.417969 21.226562 8.585938 21.394531 8.792969 21.394531L15.207031 21.394531C15.414062 21.394531 15.582031 21.226562 15.582031 21.019531L15.582031 17.410156C15.582031 17.203125 15.414062 17.035156 15.207031 17.035156zM14.832031 20.644531L9.167969 20.644531 9.167969 17.785156 11.199219 17.785156C11.324219 17.785156 11.441406 17.722656 11.511719 17.621094L12 16.886719 12.488281 17.621094C12.558594 17.722656 12.675781 17.785156 12.800781 17.785156L14.832031 17.785156zM14.832031 20.644531"/>
    <path d="M 14.003906 18.238281 C 13.796875 18.238281 13.628906 18.40625 13.628906 18.613281 L 13.628906 19.816406 C 13.628906 20.023438 13.796875 20.191406 14.003906 20.191406 C 14.210938 20.191406 14.378906 20.023438 14.378906 19.816406 L 14.378906 18.613281 C 14.378906 18.40625 14.210938 18.238281 14.003906 18.238281 Z M 14.003906 18.238281"/>
</svg>
