<svg xmlns="http://www.w3.org/2000/svg" width="32" height="32" viewBox="0 0 24 24">
    <path d="M23.89 17.32l-3.253-3.254a.366.366 0 0 0-.297-.105l-3.113.281a.376.376 0 0 0-.23.11l-.302.3-3.476-3.476 3.558-3.563.586.582a.365.365 0 0 0 .527 0l2.407-2.402a.34.34 0 0 0 .074-.11l1.414-3.113a.37.37 0 0 0-.074-.418L20.578 1.02a.37.37 0 0 0-.418-.075L17.047 2.36a.416.416 0 0 0-.11.075L14.535 4.84a.368.368 0 0 0 0 .527l.582.586-3.558 3.559-2.11-2.11.301-.297a.372.372 0 0 0 .105-.234l.286-3.11a.39.39 0 0 0-.11-.3L6.781.21a.373.373 0 0 0-.531 0L4.836 1.625a.368.368 0 0 0 0 .527l2.422 2.422-2.582 2.582-2.422-2.422a.38.38 0 0 0-.531 0L.309 6.148a.38.38 0 0 0 0 .532l3.254 3.254c.07.07.164.109.265.109.012 0 .024 0 .035-.004l3.11-.281a.376.376 0 0 0 .23-.11l.3-.3 2.11 2.109-1.46 1.461-.442-.441a.38.38 0 0 0-.414-.082l-1.973.847h-.008c0 .004-.003.004-.007.004l-.024.012c-.004.004-.008.008-.012.008l-.02.011a64.74 64.74 0 0 1-.027.023c-.007.005-.011.013-.019.016l-.008.008-4.383 4.383c0 .004-.003.004-.007.008s-.008.012-.016.015a.054.054 0 0 1-.012.016.03.03 0 0 1-.008.016c-.003.008-.011.011-.015.02 0 .003-.004.007-.004.007l-.004.008-.703 1.265a.379.379 0 0 0 .062.45l3.114 3.11a.377.377 0 0 0 .445.062l1.273-.707c.004 0 .004-.004.008-.004.008-.004.016-.008.02-.016.008 0 .011-.004.015-.008A.054.054 0 0 1 5 21.937l.016-.015c.004-.004.007-.004.007-.008l4.383-4.383c.008-.004.012-.011.016-.015s.004-.008.008-.012c0 0 .004 0 .004-.004.007-.008.015-.023.023-.035.004 0 .004-.004.008-.008a.182.182 0 0 0 .02-.039c0-.004.003-.004.003-.004v-.008l.848-1.972a.386.386 0 0 0-.078-.414l-.445-.442 1.46-1.46 3.477 3.48-.3.297a.393.393 0 0 0-.106.234l-.285 3.11a.385.385 0 0 0 .109.3l3.254 3.25c.07.074.168.11.265.11a.36.36 0 0 0 .262-.11l1.414-1.414a.368.368 0 0 0 0-.527l-2.422-2.422 2.582-2.582 2.422 2.422a.38.38 0 0 0 .532 0l1.414-1.414a.38.38 0 0 0 0-.532zM17.423 3.012l2.812-1.278.762.766-1.277 2.813-2.09 2.09-.586-.583-1.129-1.133-.586-.582zm-1.774 3.472l.602.598-3.563 3.563-.601-.602zm-8.41 2.07l-.468.47-2.801.253-2.864-2.863.883-.883L4.41 7.953a.38.38 0 0 0 .531 0l3.11-3.113a.368.368 0 0 0 0-.527L5.629 1.89l.887-.887 2.863 2.863-.258 2.801-.469.473zm-1.773 5.563l.32.32L1.93 18.29l-.317-.316zm-2.543 5.164l-.461-.46 3.852-3.852.46.457zm4.383-3.324l.46.461L3.91 20.27l-.46-.457zM3.55 21.891L.84 19.18l.328-.59 1.488 1.484 1.485 1.488zm1.207-.774l-.317-.316 3.852-3.856.32.32zm4.258-4.508L7.57 15.164v-.004h-.004l-1.445-1.445 1.238-.531 2.188 2.187zm.27-2.562l-.602-.602 1.46-1.457.598.602zm2.253-1.723l-1.133-1.133-2.37-2.375.882-.882 3.504 3.503 3.742 3.747-.883.882zm10.672 6.145l-2.422-2.422a.38.38 0 0 0-.531 0l-3.11 3.113a.368.368 0 0 0 0 .527l2.422 2.422-.883.887-2.863-2.863.254-2.801.469-.473 1.883-1.882 2.8-.254 2.864 2.863zm0 0"/>
</svg>
