<svg xmlns="http://www.w3.org/2000/svg" width="32" height="32" viewBox="0 0 24 24">
    <path d="M10.039062 11.605469C10.199219 11.441406 10.199219 11.179688 10.039062 11.019531 8.808594 9.789062 6.804688 9.789062 5.570312 11.019531 5.410156 11.179688 5.410156 11.441406 5.570312 11.605469 5.734375 11.765625 5.996094 11.765625 6.15625 11.605469 7.066406 10.695312 8.546875 10.695312 9.453125 11.605469 9.535156 11.683594 9.640625 11.726562 9.746094 11.726562 9.851562 11.726562 9.957031 11.6875 10.039062 11.605469zM16.089844 10.09375C15.246094 10.09375 14.453125 10.421875 13.855469 11.019531 13.695312 11.179688 13.695312 11.441406 13.855469 11.605469 14.019531 11.765625 14.28125 11.765625 14.441406 11.605469 14.882812 11.164062 15.46875 10.921875 16.089844 10.921875 16.710938 10.921875 17.296875 11.164062 17.738281 11.605469 17.816406 11.683594 17.925781 11.726562 18.03125 11.726562 18.136719 11.726562 18.242188 11.683594 18.324219 11.605469 18.484375 11.441406 18.484375 11.179688 18.324219 11.019531 17.726562 10.421875 16.933594 10.09375 16.089844 10.09375zM13.5625 17.535156C12.671875 18.425781 11.222656 18.425781 10.332031 17.535156 10.167969 17.375 9.90625 17.375 9.746094 17.535156 9.582031 17.695312 9.582031 17.957031 9.746094 18.121094 10.351562 18.726562 11.148438 19.03125 11.949219 19.03125 12.746094 19.03125 13.542969 18.726562 14.148438 18.121094 14.3125 17.957031 14.3125 17.695312 14.148438 17.535156 13.988281 17.371094 13.726562 17.371094 13.5625 17.535156zM13.5625 17.535156"/>
    <path d="M 24 13.203125 C 24 11.941406 23.105469 10.902344 21.96875 10.785156 C 21.476562 8.539062 20.234375 6.515625 18.402344 5.035156 C 18.402344 5.023438 18.402344 5.015625 18.402344 5.003906 C 18.402344 4.332031 18.605469 3.269531 18.972656 2.007812 C 19.003906 1.90625 19.003906 1.796875 18.976562 1.695312 C 18.992188 1.574219 18.976562 1.453125 18.929688 1.332031 C 18.535156 0.371094 16.492188 0.90625 15.34375 1.375 C 14.332031 1.789062 13.484375 2.328125 13.050781 2.824219 C 12.808594 2.640625 12.515625 2.53125 12.195312 2.53125 L 11.953125 2.53125 C 11.578125 2.53125 11.238281 2.667969 10.96875 2.886719 C 10.480469 2.285156 9.46875 1.71875 8.625 1.375 C 7.863281 1.066406 7.105469 0.863281 6.492188 0.808594 C 5.503906 0.722656 5.15625 1.042969 5.039062 1.332031 C 4.917969 1.632812 5.011719 1.941406 5.238281 2.238281 C 5.546875 3.335938 5.71875 4.238281 5.742188 4.902344 C 3.808594 6.394531 2.507812 8.464844 2.003906 10.789062 C 0.878906 10.921875 0 11.953125 0 13.203125 C 0 14.492188 0.9375 15.546875 2.113281 15.625 C 3.28125 19.984375 7.265625 23.207031 11.988281 23.207031 C 16.707031 23.207031 20.691406 19.988281 21.859375 15.628906 C 23.050781 15.5625 24 14.503906 24 13.203125 Z M 13.683594 5.964844 L 13.683594 4.386719 C 13.734375 4.390625 13.789062 4.386719 13.84375 4.386719 C 13.863281 4.386719 13.875 4.390625 13.894531 4.390625 C 14.628906 4.390625 15.574219 4.121094 16.335938 3.808594 C 16.441406 3.765625 16.546875 3.71875 16.660156 3.667969 C 16.691406 3.652344 16.726562 3.640625 16.757812 3.625 C 16.855469 3.578125 16.953125 3.53125 17.054688 3.480469 C 17.101562 3.453125 17.148438 3.429688 17.195312 3.40625 C 17.257812 3.371094 17.320312 3.335938 17.386719 3.300781 C 17.429688 3.273438 17.476562 3.246094 17.523438 3.222656 C 17.617188 3.164062 17.710938 3.105469 17.800781 3.046875 C 17.816406 3.035156 17.835938 3.027344 17.855469 3.015625 C 17.699219 3.695312 17.578125 4.40625 17.574219 4.984375 C 17.558594 5.164062 17.503906 6.277344 18.15625 7.246094 C 17.199219 7.292969 14.898438 7.300781 13.683594 6.355469 Z M 15.65625 2.140625 C 16.964844 1.609375 17.851562 1.578125 18.121094 1.65625 C 18.109375 1.675781 18.105469 1.695312 18.085938 1.71875 C 18.085938 1.71875 18.085938 1.722656 18.085938 1.722656 C 18.0625 1.757812 18.027344 1.796875 17.988281 1.839844 C 17.976562 1.851562 17.964844 1.867188 17.949219 1.878906 C 17.921875 1.90625 17.886719 1.9375 17.855469 1.96875 C 17.828125 1.996094 17.796875 2.023438 17.761719 2.050781 C 17.734375 2.074219 17.703125 2.097656 17.671875 2.121094 C 17.628906 2.15625 17.582031 2.195312 17.53125 2.234375 C 17.480469 2.265625 17.425781 2.304688 17.371094 2.339844 C 17.328125 2.367188 17.289062 2.394531 17.242188 2.425781 C 16.921875 2.628906 16.511719 2.84375 16.023438 3.039062 C 15.160156 3.394531 14.382812 3.542969 13.886719 3.558594 C 13.84375 3.558594 13.800781 3.558594 13.765625 3.554688 C 13.753906 3.476562 13.738281 3.398438 13.710938 3.324219 C 14.023438 2.992188 14.699219 2.53125 15.65625 2.140625 Z M 11.953125 3.359375 L 12.195312 3.359375 C 12.605469 3.359375 12.855469 3.777344 12.855469 4.179688 L 12.855469 5.964844 C 12.855469 6.386719 12.601562 6.644531 12.195312 6.644531 L 11.953125 6.644531 C 11.539062 6.644531 11.199219 6.308594 11.199219 5.894531 L 11.199219 4.109375 C 11.199219 3.695312 11.539062 3.359375 11.953125 3.359375 Z M 6.570312 4.984375 C 6.570312 4.441406 6.460938 3.78125 6.320312 3.148438 C 6.574219 3.304688 6.855469 3.457031 7.15625 3.597656 C 7.164062 3.601562 7.175781 3.605469 7.183594 3.609375 C 7.238281 3.636719 7.296875 3.664062 7.351562 3.6875 C 7.449219 3.730469 7.542969 3.773438 7.628906 3.808594 C 7.734375 3.851562 7.84375 3.890625 7.953125 3.933594 C 7.988281 3.945312 8.023438 3.957031 8.054688 3.96875 C 8.132812 3.996094 8.210938 4.023438 8.289062 4.046875 C 8.328125 4.0625 8.371094 4.074219 8.414062 4.085938 C 8.484375 4.109375 8.558594 4.132812 8.628906 4.152344 C 8.675781 4.164062 8.71875 4.175781 8.761719 4.1875 C 8.832031 4.207031 8.902344 4.226562 8.972656 4.242188 C 9.019531 4.25 9.0625 4.261719 9.109375 4.269531 C 9.179688 4.285156 9.246094 4.300781 9.316406 4.3125 C 9.359375 4.320312 9.402344 4.328125 9.445312 4.332031 C 9.519531 4.34375 9.589844 4.355469 9.664062 4.363281 C 9.699219 4.367188 9.734375 4.371094 9.765625 4.375 C 9.871094 4.382812 9.972656 4.386719 10.066406 4.386719 C 10.070312 4.386719 10.070312 4.386719 10.070312 4.386719 C 10.175781 4.386719 10.277344 4.382812 10.375 4.371094 L 10.375 6.355469 C 9.210938 7.261719 7.144531 7.304688 5.984375 7.210938 C 6.640625 6.277344 6.585938 5.164062 6.570312 4.984375 Z M 8.3125 2.140625 C 9.5 2.625 10.210938 3.195312 10.394531 3.492188 C 10.390625 3.507812 10.386719 3.519531 10.386719 3.53125 C 10.382812 3.53125 10.382812 3.535156 10.382812 3.535156 C 10.378906 3.535156 10.371094 3.535156 10.367188 3.535156 C 10.328125 3.542969 10.285156 3.550781 10.230469 3.554688 C 10.214844 3.554688 10.191406 3.554688 10.167969 3.554688 C 10.125 3.558594 10.074219 3.558594 10.019531 3.558594 C 9.992188 3.554688 9.957031 3.554688 9.925781 3.550781 C 9.871094 3.546875 9.8125 3.542969 9.75 3.535156 C 9.710938 3.53125 9.671875 3.527344 9.628906 3.519531 C 9.5625 3.511719 9.496094 3.5 9.425781 3.488281 C 9.378906 3.480469 9.332031 3.46875 9.28125 3.460938 C 9.203125 3.445312 9.121094 3.425781 9.039062 3.402344 C 8.988281 3.390625 8.9375 3.378906 8.882812 3.363281 C 8.789062 3.335938 8.6875 3.304688 8.585938 3.273438 C 8.535156 3.257812 8.488281 3.242188 8.433594 3.226562 C 8.277344 3.171875 8.113281 3.113281 7.941406 3.042969 C 7.800781 2.984375 7.671875 2.925781 7.546875 2.867188 C 7.492188 2.839844 7.433594 2.8125 7.378906 2.785156 C 7.320312 2.757812 7.261719 2.726562 7.207031 2.699219 C 7.140625 2.664062 7.078125 2.632812 7.015625 2.597656 C 6.976562 2.574219 6.945312 2.554688 6.910156 2.535156 C 6.8125 2.476562 6.71875 2.417969 6.628906 2.363281 C 6.574219 2.324219 6.511719 2.285156 6.460938 2.25 C 6.4375 2.230469 6.414062 2.210938 6.390625 2.195312 C 6.332031 2.152344 6.277344 2.113281 6.230469 2.074219 C 6.203125 2.050781 6.179688 2.027344 6.152344 2.003906 C 6.121094 1.976562 6.089844 1.949219 6.0625 1.921875 C 6.015625 1.875 5.96875 1.828125 5.933594 1.785156 C 5.929688 1.78125 5.929688 1.78125 5.925781 1.777344 C 5.886719 1.730469 5.855469 1.691406 5.839844 1.65625 C 6.097656 1.574219 6.992188 1.601562 8.3125 2.140625 Z M 0.828125 13.203125 C 0.828125 12.476562 1.261719 11.871094 1.851562 11.671875 C 1.796875 12.105469 1.765625 12.542969 1.765625 12.984375 C 1.765625 13.589844 1.824219 14.183594 1.921875 14.757812 C 1.296875 14.589844 0.828125 13.957031 0.828125 13.203125 Z M 11.988281 22.378906 C 6.808594 22.378906 2.59375 18.164062 2.59375 12.984375 C 2.59375 10.324219 3.6875 7.863281 5.613281 6.085938 C 5.546875 6.300781 5.453125 6.523438 5.304688 6.734375 C 5.125 6.988281 5.097656 7.320312 5.234375 7.601562 C 5.367188 7.878906 5.632812 8.054688 5.945312 8.070312 C 6.15625 8.082031 6.394531 8.089844 6.652344 8.089844 C 7.941406 8.089844 9.695312 7.894531 10.84375 7.019531 C 11.128906 7.300781 11.519531 7.472656 11.953125 7.472656 L 12.195312 7.472656 C 12.621094 7.472656 12.988281 7.316406 13.253906 7.054688 C 14.40625 7.898438 16.15625 8.089844 17.457031 8.089844 C 17.730469 8.089844 17.980469 8.082031 18.199219 8.070312 C 18.511719 8.054688 18.777344 7.878906 18.914062 7.601562 C 19.046875 7.320312 19.019531 6.988281 18.839844 6.734375 C 18.753906 6.609375 18.6875 6.480469 18.628906 6.351562 C 20.386719 8.105469 21.378906 10.46875 21.378906 12.984375 C 21.378906 18.164062 17.167969 22.378906 11.988281 22.378906 Z M 22.046875 14.769531 C 22.152344 14.1875 22.207031 13.59375 22.207031 12.984375 C 22.207031 12.539062 22.175781 12.097656 22.121094 11.664062 C 22.722656 11.847656 23.171875 12.464844 23.171875 13.203125 C 23.171875 13.96875 22.6875 14.613281 22.046875 14.769531 Z M 22.046875 14.769531"/>
</svg>
