<svg xmlns="http://www.w3.org/2000/svg" width="32" height="32" viewBox="0 0 24 24">
    <path d="M24 13.625c0-.945-.77-1.715-1.715-1.715h-7.004c0-.008.004-.012.004-.02a5.595 5.595 0 0 0-4.601-5.503 3.787 3.787 0 0 0-3.672-2.832 3.801 3.801 0 0 0-3.797 3.797c0 .16.012.324.035.492-2.035 1.008-1.992 2.715-1.969 3.754 0 .109.004.214.004.312 0 .02.008.04.012.059A1.713 1.713 0 0 0 0 13.625c0 .797.547 1.46 1.285 1.652v.598A6.34 6.34 0 0 0 6 21.988v.422a1.5 1.5 0 0 0 2.984.215h6.461a1.5 1.5 0 0 0 2.985-.215v-.422a6.34 6.34 0 0 0 4.715-6.113v-.773A1.71 1.71 0 0 0 24 13.625zM3.895 8.492l.328-.14L4.145 8a3.116 3.116 0 0 1-.075-.648A2.946 2.946 0 0 1 7.012 4.41a2.93 2.93 0 0 1 2.89 2.43l.055.312.316.04a4.737 4.737 0 0 1 4.157 4.695c0 .008.004.015.004.023H2.144c0-.105-.003-.215-.007-.332-.024-1.039-.055-2.332 1.758-3.086zm18.39 7.383c0 2.59-1.836 4.84-4.37 5.355l-.345.07v1.11c0 .356-.289.645-.64.645a.645.645 0 0 1-.645-.645v-.64h-8.14v.64a.645.645 0 0 1-1.29 0V21.3l-.34-.07a5.477 5.477 0 0 1-4.37-5.355v-.535h20.14zm0-1.395H1.715a.859.859 0 0 1-.86-.855c0-.473.387-.855.86-.855h20.57c.473 0 .86.382.86.855a.859.859 0 0 1-.86.855zm0 0"/>
    <path d="M4.61 19.207a.426.426 0 0 0 .257.086.414.414 0 0 0 .34-.168.424.424 0 0 0-.078-.598c-.324-.25-.543-.574-.613-.91a.43.43 0 1 0-.84.184c.117.535.449 1.035.933 1.406zm0 0M6.316 20.203c1.22.371 2.493.469 3.747.469.542 0 1.078-.02 1.605-.043a.423.423 0 0 0 .41-.445.438.438 0 0 0-.445-.41c-1.68.07-3.45.097-5.07-.391a.428.428 0 0 0-.536.285.434.434 0 0 0 .29.535zm0 0M12.867 5.445a1.644 1.644 0 0 0 0-3.285c-.906 0-1.644.738-1.644 1.645 0 .906.738 1.64 1.644 1.64zm0-2.425a.785.785 0 1 1 0 1.57.785.785 0 0 1 0-1.57zm0 0M2.145 4.305a2.11 2.11 0 0 0 2.105-2.11C4.25 1.035 3.305.09 2.145.09a2.11 2.11 0 0 0-2.11 2.105 2.11 2.11 0 0 0 2.11 2.11zm0-3.36a1.25 1.25 0 0 1 0 2.5 1.251 1.251 0 0 1 0-2.5zm0 0M9.855 9.77a.427.427 0 1 1-.853-.002.427.427 0 0 1 .853.002zm0 0M17.57 8.055a.427.427 0 1 1-.853-.002.427.427 0 0 1 .853.002zm0 0M8.145 2.055a.43.43 0 0 1-.86 0c0-.239.192-.43.43-.43a.43.43 0 0 1 .43.43zm0 0"/>
</svg>
