<svg xmlns="http://www.w3.org/2000/svg" width="32" height="32" viewBox="0 0 24 24">
    <path d="M 20.800781 18.09375 L 20.800781 11.691406 L 16 11.691406 L 16 7.691406 L 18.519531 7.691406 L 12 0.707031 L 5.480469 7.691406 L 8 7.691406 L 8 11.691406 L 3.199219 11.691406 L 3.199219 18.09375 L 0 18.09375 L 0 23.292969 L 8.800781 23.292969 L 8.800781 18.144531 C 8.800781 17.257812 9.257812 15.992188 9.996094 15.5 C 11.214844 14.6875 12.785156 14.6875 14.003906 15.5 C 14.742188 15.992188 15.199219 17.257812 15.199219 18.144531 L 15.199219 23.292969 L 24 23.292969 L 24 18.09375 Z M 7.320312 6.894531 L 12 1.878906 L 16.679688 6.894531 Z M 15.199219 7.691406 L 15.199219 9.292969 L 8.800781 9.292969 L 8.800781 7.691406 Z M 8.800781 10.09375 L 15.199219 10.09375 L 15.199219 11.691406 L 8.800781 11.691406 Z M 0.800781 22.492188 L 0.800781 18.894531 L 4 18.894531 L 4 22.492188 Z M 8 22.492188 L 4.800781 22.492188 L 4.800781 18.894531 L 8 18.894531 Z M 9.554688 14.835938 C 8.558594 15.496094 8.015625 16.992188 8 18.09375 L 4 18.09375 L 4 12.492188 L 11.601562 12.492188 L 11.601562 14.109375 C 10.882812 14.175781 10.179688 14.417969 9.554688 14.835938 Z M 14.445312 14.835938 C 13.820312 14.414062 13.117188 14.175781 12.398438 14.109375 L 12.398438 12.492188 L 20 12.492188 L 20 18.09375 L 16 18.09375 C 15.984375 16.992188 15.441406 15.496094 14.445312 14.835938 Z M 16 22.492188 L 16 18.894531 L 19.199219 18.894531 L 19.199219 22.492188 Z M 23.199219 22.492188 L 20 22.492188 L 20 18.894531 L 23.199219 18.894531 Z M 23.199219 22.492188"/>
</svg>
