<svg xmlns="http://www.w3.org/2000/svg" width="32" height="32" viewBox="0 0 24 24">
    <path d="M9.934 8.625c-.352-.023-4.125-.21-5.989 2.758a.397.397 0 0 0-.011.41c.07.129.203.207.351.207h10.063c.117 0 .226-.05.304-.137a.417.417 0 0 0 .094-.32c-.004-.031-.117-.793-.793-1.531-.601-.653-1.785-1.418-4.02-1.387zm-.043.805h.039c.133 0 .261 0 .386.004v1.761H5.09c1.777-1.976 4.77-1.77 4.8-1.765zm1.23 1.765V9.5c1.734.258 2.414 1.14 2.676 1.695zm0 0M6.305 16.426c-.887 0-1.61.719-1.61 1.605a1.61 1.61 0 0 0 3.22 0c0-.886-.724-1.605-1.61-1.605zm0 2.41a.804.804 0 1 1-.003-1.607.804.804 0 0 1 .003 1.607zm0 0M17.566 16.426a1.606 1.606 0 1 0 0 3.215c.887 0 1.606-.72 1.606-1.61 0-.886-.719-1.605-1.606-1.605zm0 2.41a.804.804 0 1 1-.002-1.607.804.804 0 0 1 .002 1.607zm0 0M10.719 12.805H8.715a.404.404 0 0 0-.402.402c0 .223.183.402.402.402h1.601v.938a.402.402 0 1 0 .805 0v-1.34a.402.402 0 0 0-.402-.402zm0 0"/>
    <path d="M23.336 14.457a7.234 7.234 0 0 0-.457-.727c-.008-.007-.016-.015-.02-.027a5.867 5.867 0 0 0-.293-.355l-.03-.04a5.584 5.584 0 0 0-.696-.652h-.004c-.816-.64-1.938-1.125-3.465-1.125h-1.648c-.184-1.21-1.2-4.758-6.825-4.758-.175.012-3.87.262-6.82 1.989V5.508a1.608 1.608 0 0 0 1.207-1.551c0-.887-.723-1.61-1.61-1.61-.886 0-1.609.723-1.609 1.61 0 .746.516 1.371 1.207 1.55V9.29a5.874 5.874 0 0 0-.25.184c-1.027.804-.972 1.754-.925 2.586.03.55.058 1.07-.176 1.593-.418.922-.715 1.793-.887 2.586-.098.453.02.914.328 1.301.453.559 1.246.895 2.117.895h.227a3.622 3.622 0 0 0 3.598 3.218 3.62 3.62 0 0 0 3.593-3.218h4.07a3.622 3.622 0 0 0 3.598 3.218 3.62 3.62 0 0 0 3.594-3.218h1.203c.918 0 1.637-.567 1.637-1.293a5.62 5.62 0 0 0-.664-2.684zM1.87 3.957a.804.804 0 1 1 1.607-.002.804.804 0 0 1-1.607.002zM22.79 15.176c-.766-.137-1.348-.61-1.348-1.153 0-.199.075-.367.172-.503a4.87 4.87 0 0 1 .438.465l.023.023a5.159 5.159 0 0 1 .715 1.168zM6.305 20.848a2.817 2.817 0 0 1-2.817-2.813v-.004a2.817 2.817 0 0 1 5.633 0 2.822 2.822 0 0 1-2.816 2.817zm11.261 0a2.817 2.817 0 0 1-2.816-2.813v-.004a2.817 2.817 0 0 1 5.617-.285 3.806 3.806 0 0 1 .012.285 2.817 2.817 0 0 1-2.813 2.817zm4.797-3.22h-1.199a3.903 3.903 0 0 0-.047-.296c-.004-.008-.004-.02-.008-.031a3.255 3.255 0 0 0-.086-.336c-.007-.027-.02-.05-.027-.074a2.714 2.714 0 0 0-.09-.25c-.015-.036-.035-.07-.05-.11-.032-.066-.063-.133-.094-.195l-.07-.117a1.56 1.56 0 0 0-.106-.172c-.023-.043-.055-.078-.082-.117a1.481 1.481 0 0 0-.117-.157c-.028-.039-.063-.074-.094-.109a1.484 1.484 0 0 0-.129-.144c-.031-.036-.066-.067-.105-.102-.043-.043-.09-.086-.137-.129l-.117-.094-.149-.113c-.043-.027-.082-.055-.125-.082-.054-.035-.105-.07-.16-.102a4.116 4.116 0 0 0-.133-.07 2.35 2.35 0 0 0-.172-.086l-.136-.058c-.059-.028-.125-.047-.188-.07l-.133-.048a3.994 3.994 0 0 0-.207-.05 2.255 2.255 0 0 0-.367-.066c-.039-.009-.074-.012-.113-.02a5.291 5.291 0 0 0-.356-.016h-.007c-.118 0-.235.008-.352.016a1.12 1.12 0 0 1-.121.02c-.074.007-.148.019-.227.034-.047.008-.093.024-.14.032-.063.015-.13.03-.196.05-.046.016-.093.036-.14.051a1.41 1.41 0 0 0-.18.067c-.05.02-.098.039-.144.062-.055.024-.11.05-.164.078-.047.024-.094.051-.137.078a2.604 2.604 0 0 0-.153.094c-.046.027-.09.059-.136.09-.047.035-.094.07-.137.105-.043.036-.086.067-.129.106-.043.035-.082.074-.125.113l-.117.117a1.72 1.72 0 0 0-.113.125c-.04.043-.075.082-.11.13-.035.042-.066.085-.101.132-.032.047-.067.09-.098.137-.031.047-.059.097-.086.144-.027.051-.058.098-.086.149-.027.047-.05.097-.074.148-.023.055-.05.106-.07.156-.024.055-.04.11-.059.16-.02.055-.043.11-.059.165-.02.058-.03.117-.046.18a3.767 3.767 0 0 0-.067.316c-.008.054-.02.11-.023.164H9.902a3.714 3.714 0 0 0-.047-.301c-.003-.008-.003-.02-.007-.027a3.087 3.087 0 0 0-.086-.34l-.024-.07a3.332 3.332 0 0 0-.093-.254c-.016-.036-.032-.067-.047-.102a3.25 3.25 0 0 0-.098-.203c-.023-.04-.047-.074-.066-.113-.036-.059-.07-.121-.11-.18a1.895 1.895 0 0 0-.078-.11c-.039-.054-.078-.109-.121-.16-.027-.039-.059-.074-.09-.109-.043-.047-.086-.098-.133-.144a1.199 1.199 0 0 0-.101-.098 2.328 2.328 0 0 0-.145-.133c-.035-.031-.07-.062-.11-.09a1.481 1.481 0 0 0-.155-.117L8.273 15a3.843 3.843 0 0 0-.168-.102l-.125-.07c-.058-.031-.12-.058-.18-.086l-.128-.058c-.067-.028-.129-.047-.195-.07a1.661 1.661 0 0 0-.13-.044c-.07-.023-.14-.039-.21-.054a1.169 1.169 0 0 0-.125-.032 2.503 2.503 0 0 0-.239-.035 1.227 1.227 0 0 0-.109-.015 3.692 3.692 0 0 0-.36-.02h-.003c-.121 0-.239.008-.356.02-.039.004-.078.011-.12.015-.075.012-.15.02-.223.035-.051.008-.094.024-.141.036-.066.015-.133.027-.195.046-.051.016-.098.036-.145.051-.062.02-.121.043-.18.067l-.144.062c-.055.024-.11.05-.164.078-.047.028-.094.051-.137.078-.055.032-.101.063-.152.094a1.58 1.58 0 0 0-.133.09c-.05.035-.094.07-.14.105-.044.036-.087.067-.126.106-.043.035-.086.074-.129.113l-.117.117a1.72 1.72 0 0 0-.113.125c-.04.043-.074.082-.11.13-.035.042-.066.09-.101.132-.031.047-.066.09-.098.137l-.086.144c-.027.051-.058.098-.086.149-.027.05-.046.101-.074.152l-.07.152c-.023.055-.04.11-.059.16-.02.055-.043.11-.058.165-.02.058-.031.117-.047.18-.027.1-.047.21-.063.316-.011.054-.023.105-.027.16H2.48c-.62 0-1.19-.227-1.488-.598-.16-.199-.219-.406-.172-.62.16-.743.442-1.56.832-2.427.32-.703.282-1.379.246-1.972-.043-.79-.078-1.36.622-1.907 2.835-2.218 7.382-2.527 7.402-2.53 5.906 0 6.031 4.183 6.035 4.359 0 .222.18.402.402.402h2.008c1.008 0 1.875.238 2.61.7-.223.296-.34.636-.34.987 0 1.055 1.074 1.918 2.43 1.993.081.363.128.738.128 1.125 0 .23-.355.488-.832.488zm0 0"/>
</svg>
