<svg xmlns="http://www.w3.org/2000/svg" width="32" height="32" viewBox="0 0 24 24">
    <path d="M 12 2 C 6.59375 2 2.398438 3.828125 2.398438 5.398438 C 2.398438 6.972656 6.59375 8.800781 12 8.800781 C 17.40625 8.800781 21.601562 6.972656 21.601562 5.398438 C 21.601562 3.828125 17.40625 2 12 2 Z M 12 8 C 6.320312 8 3.199219 6.046875 3.199219 5.398438 C 3.199219 4.753906 6.320312 2.800781 12 2.800781 C 17.679688 2.800781 20.800781 4.753906 20.800781 5.398438 C 20.800781 6.046875 17.679688 8 12 8 Z M 12 8"/>
    <path d="M 22.894531 12.800781 L 22.398438 12.800781 L 22.398438 10.800781 L 22.800781 10.800781 C 23.019531 10.800781 23.199219 10.621094 23.199219 10.398438 C 23.199219 10.179688 23.019531 10 22.800781 10 L 22.398438 10 L 22.398438 7.289062 C 22.914062 6.707031 23.199219 6.070312 23.199219 5.398438 C 23.199219 2.597656 18.28125 0.398438 12 0.398438 C 5.71875 0.398438 0.800781 2.597656 0.800781 5.398438 C 0.800781 6.484375 1.535156 7.476562 2.800781 8.285156 L 2.800781 9.199219 L 2.398438 9.199219 C 2.179688 9.199219 2 9.378906 2 9.601562 C 2 9.820312 2.179688 10 2.398438 10 L 2.800781 10 L 2.800781 11.90625 L 2.101562 13.320312 L 0.335938 13.605469 C 0.183594 13.628906 0.0585938 13.742188 0.015625 13.890625 C -0.0273438 14.039062 0.0195312 14.199219 0.136719 14.300781 L 1.421875 15.417969 L 1.144531 17.046875 C 1.117188 17.199219 1.179688 17.351562 1.300781 17.441406 C 1.425781 17.53125 1.589844 17.542969 1.722656 17.46875 L 3.199219 16.695312 L 4.675781 17.46875 C 4.734375 17.5 4.796875 17.515625 4.863281 17.515625 C 4.945312 17.515625 5.027344 17.492188 5.097656 17.441406 C 5.222656 17.351562 5.28125 17.199219 5.257812 17.046875 L 4.976562 15.417969 L 6.261719 14.300781 C 6.378906 14.199219 6.425781 14.039062 6.382812 13.890625 C 6.34375 13.742188 6.214844 13.628906 6.0625 13.605469 L 4.296875 13.320312 L 3.601562 11.90625 L 3.601562 10 L 4 10 C 4.222656 10 4.398438 9.820312 4.398438 9.601562 C 4.398438 9.378906 4.222656 9.199219 4 9.199219 L 3.601562 9.199219 L 3.601562 8.738281 C 4.875 9.378906 6.519531 9.867188 8.398438 10.144531 L 8.398438 15.226562 L 8 15.226562 C 7.777344 15.226562 7.601562 15.40625 7.601562 15.628906 C 7.601562 15.847656 7.777344 16.027344 8 16.027344 L 8.398438 16.027344 L 8.398438 18.03125 C 7.046875 18.226562 6 19.390625 6 20.800781 C 6 22.34375 7.257812 23.601562 8.800781 23.601562 C 10.34375 23.601562 11.601562 22.34375 11.601562 20.800781 C 11.601562 19.390625 10.554688 18.226562 9.199219 18.03125 L 9.199219 16.027344 L 9.601562 16.027344 C 9.820312 16.027344 10 15.847656 10 15.628906 C 10 15.40625 9.820312 15.226562 9.601562 15.226562 L 9.199219 15.226562 L 9.199219 10.25 C 10.09375 10.347656 11.03125 10.398438 12 10.398438 C 13.265625 10.398438 14.472656 10.308594 15.601562 10.144531 L 15.601562 12 L 15.199219 12 C 14.980469 12 14.800781 12.179688 14.800781 12.398438 C 14.800781 12.621094 14.980469 12.800781 15.199219 12.800781 L 15.601562 12.800781 L 15.601562 14.789062 L 14.902344 16.203125 L 13.253906 16.441406 C 13.101562 16.464844 12.976562 16.570312 12.929688 16.714844 C 12.882812 16.859375 12.921875 17.019531 13.03125 17.125 L 14.226562 18.289062 L 13.941406 19.933594 C 13.917969 20.082031 13.980469 20.234375 14.101562 20.324219 C 14.226562 20.414062 14.390625 20.425781 14.523438 20.355469 L 16 19.578125 L 17.476562 20.355469 C 17.535156 20.386719 17.597656 20.398438 17.664062 20.398438 C 17.746094 20.398438 17.828125 20.375 17.898438 20.324219 C 18.019531 20.234375 18.082031 20.082031 18.058594 19.933594 L 17.773438 18.289062 L 18.96875 17.125 C 19.078125 17.019531 19.117188 16.859375 19.070312 16.714844 C 19.023438 16.570312 18.898438 16.464844 18.746094 16.441406 L 17.097656 16.203125 L 16.398438 14.789062 L 16.398438 12.800781 L 16.800781 12.800781 C 17.019531 12.800781 17.199219 12.621094 17.199219 12.398438 C 17.199219 12.179688 17.019531 12 16.800781 12 L 16.398438 12 L 16.398438 10.011719 C 18.585938 9.605469 20.398438 8.90625 21.601562 8.011719 L 21.601562 10 L 21.199219 10 C 20.980469 10 20.800781 10.179688 20.800781 10.398438 C 20.800781 10.621094 20.980469 10.800781 21.199219 10.800781 L 21.601562 10.800781 L 21.601562 12.800781 L 21.105469 12.800781 C 20.496094 12.800781 20 13.296875 20 13.90625 L 20 15.691406 C 20 16.304688 20.496094 16.800781 21.105469 16.800781 L 22.894531 16.800781 C 23.503906 16.800781 24 16.304688 24 15.691406 L 24 13.90625 C 24 13.296875 23.503906 12.800781 22.894531 12.800781 Z M 3.96875 14.078125 L 5.09375 14.257812 L 4.28125 14.964844 C 4.175781 15.054688 4.128906 15.195312 4.152344 15.332031 L 4.332031 16.386719 L 3.386719 15.890625 C 3.328125 15.859375 3.265625 15.84375 3.199219 15.84375 C 3.136719 15.84375 3.070312 15.859375 3.015625 15.886719 L 2.070312 16.386719 L 2.25 15.332031 C 2.273438 15.195312 2.222656 15.054688 2.117188 14.964844 L 1.308594 14.257812 L 2.433594 14.078125 C 2.558594 14.058594 2.671875 13.976562 2.726562 13.859375 L 3.199219 12.902344 L 3.671875 13.863281 C 3.730469 13.976562 3.839844 14.058594 3.96875 14.078125 Z M 10.800781 20.800781 C 10.800781 21.902344 9.902344 22.800781 8.800781 22.800781 C 7.695312 22.800781 6.800781 21.902344 6.800781 20.800781 C 6.800781 19.695312 7.695312 18.800781 8.800781 18.800781 C 9.902344 18.800781 10.800781 19.695312 10.800781 20.800781 Z M 16.773438 16.964844 L 17.832031 17.117188 L 17.066406 17.863281 C 16.972656 17.953125 16.929688 18.085938 16.949219 18.214844 L 17.132812 19.269531 L 16.1875 18.773438 C 16.128906 18.742188 16.0625 18.726562 16 18.726562 C 15.9375 18.726562 15.871094 18.742188 15.8125 18.773438 L 14.867188 19.269531 L 15.050781 18.214844 C 15.070312 18.085938 15.027344 17.953125 14.933594 17.863281 L 14.167969 17.117188 L 15.226562 16.960938 C 15.355469 16.945312 15.46875 16.863281 15.527344 16.742188 L 16 15.789062 L 16.472656 16.746094 C 16.53125 16.863281 16.644531 16.945312 16.773438 16.964844 Z M 12 9.601562 C 6.363281 9.601562 1.601562 7.675781 1.601562 5.398438 C 1.601562 3.125 6.363281 1.199219 12 1.199219 C 17.636719 1.199219 22.398438 3.125 22.398438 5.398438 C 22.398438 7.675781 17.636719 9.601562 12 9.601562 Z M 23.199219 15.691406 C 23.199219 15.863281 23.0625 16 22.894531 16 L 21.105469 16 C 20.9375 16 20.800781 15.863281 20.800781 15.691406 L 20.800781 13.90625 C 20.800781 13.738281 20.9375 13.601562 21.105469 13.601562 L 22.894531 13.601562 C 23.0625 13.601562 23.199219 13.738281 23.199219 13.90625 Z M 23.199219 15.691406"/>
</svg>
