<svg xmlns="http://www.w3.org/2000/svg" width="32" height="32" viewBox="0 0 24 24">
    <path d="M12 2C6.594 2 2.398 3.828 2.398 5.398c0 1.575 4.196 3.403 9.602 3.403 5.406 0 9.602-1.828 9.602-3.403C21.602 3.828 17.406 2 12 2zm0 6C6.32 8 3.2 6.047 3.2 5.398c0-.644 3.12-2.597 8.8-2.597 5.68 0 8.8 1.953 8.8 2.597C20.8 6.047 17.68 8 12 8zm0 0"/>
    <path d="M22.895 12.8h-.497v-2h.403a.401.401 0 0 0 0-.8h-.403V7.29c.516-.583.801-1.22.801-1.892 0-2.8-4.918-5-11.199-5s-11.2 2.2-11.2 5c0 1.086.735 2.079 2 2.887V9.2h-.402a.401.401 0 0 0 0 .801h.403v1.906l-.7 1.414-1.765.285a.4.4 0 0 0-.2.696l1.286 1.117-.277 1.629a.403.403 0 0 0 .156.394c.125.09.289.102.422.028l1.476-.774 1.477.774a.397.397 0 0 0 .582-.422l-.281-1.629 1.285-1.117a.397.397 0 0 0 .12-.41.395.395 0 0 0-.32-.286l-1.765-.285-.695-1.414V10H4c.223 0 .398-.18.398-.398A.398.398 0 0 0 4 9.199h-.398v-.46c1.273.64 2.918 1.128 4.796 1.406v5.082H8a.398.398 0 0 0-.398.402c0 .219.175.398.398.398h.398v2.004A2.803 2.803 0 0 0 6 20.801c0 1.543 1.258 2.8 2.8 2.8 1.544 0 2.802-1.257 2.802-2.8a2.803 2.803 0 0 0-2.403-2.77v-2.004h.403a.4.4 0 0 0 0-.8h-.403V10.25c.895.098 1.832.148 2.801.148 1.266 0 2.473-.09 3.602-.253V12h-.403a.4.4 0 0 0 0 .8h.403v1.99l-.7 1.413-1.648.238a.4.4 0 1 0-.223.684l1.196 1.164-.286 1.645a.402.402 0 0 0 .582.422L16 19.577l1.477.777a.389.389 0 0 0 .187.043.397.397 0 0 0 .234-.074.41.41 0 0 0 .16-.39l-.285-1.645 1.196-1.164a.4.4 0 0 0-.223-.684l-1.648-.238-.7-1.414v-1.988h.403a.401.401 0 0 0 0-.801h-.403v-1.988c2.188-.407 4-1.106 5.204-2V10h-.403a.4.4 0 0 0 0 .8h.403v2h-.497c-.609 0-1.105.497-1.105 1.106v1.785c0 .614.496 1.11 1.105 1.11h1.79c.609 0 1.105-.496 1.105-1.11v-1.785c0-.61-.496-1.105-1.105-1.105zM3.969 14.079l1.125.18-.813.707a.394.394 0 0 0-.129.367l.18 1.055-.945-.496a.393.393 0 0 0-.188-.047.423.423 0 0 0-.183.043l-.946.5.18-1.055a.396.396 0 0 0-.133-.367l-.808-.707 1.125-.18a.393.393 0 0 0 .293-.219l.472-.957.473.961a.404.404 0 0 0 .297.215zm6.832 6.723c0 1.101-.899 2-2 2a1.999 1.999 0 1 1 2-2zm5.972-3.836l1.059.152-.766.746a.405.405 0 0 0-.117.352l.184 1.055-.945-.497a.404.404 0 0 0-.375 0l-.946.497.184-1.055a.405.405 0 0 0-.117-.352l-.766-.746 1.059-.156a.388.388 0 0 0 .3-.219L16 15.79l.473.957c.058.117.172.2.3.219zM12 9.602c-5.637 0-10.398-1.926-10.398-4.204C1.602 3.125 6.363 1.2 12 1.2s10.398 1.926 10.398 4.2c0 2.277-4.761 4.203-10.398 4.203zm11.2 6.09a.306.306 0 0 1-.305.308h-1.79a.306.306 0 0 1-.304-.309v-1.785c0-.168.137-.304.304-.304h1.79c.168 0 .304.136.304.304zm0 0"/>
</svg>
