<svg xmlns="http://www.w3.org/2000/svg" width="32" height="32" viewBox="0 0 24 24">
    <path d="M 23.054688 5 L 22.800781 5 L 22.800781 4.097656 C 22.800781 3.492188 22.308594 3 21.703125 3 L 2.296875 3 C 1.691406 3 1.199219 3.492188 1.199219 4.097656 L 1.199219 5 L 0.945312 5 C 0.425781 5 0 5.425781 0 5.945312 L 0 8.851562 C 0 9.375 0.425781 9.800781 0.945312 9.800781 L 1.199219 9.800781 C 1.199219 10.320312 1.238281 10.832031 1.308594 11.335938 L 1.304688 11.335938 L 1.320312 11.429688 C 1.523438 12.8125 1.984375 14.121094 2.648438 15.300781 C 2.65625 15.316406 2.664062 15.332031 2.671875 15.347656 C 2.792969 15.558594 2.917969 15.769531 3.050781 15.976562 C 3.050781 15.976562 3.050781 15.976562 3.054688 15.976562 C 3.175781 16.167969 3.308594 16.351562 3.441406 16.535156 C 3.484375 16.59375 3.53125 16.65625 3.578125 16.714844 C 3.664062 16.828125 3.753906 16.9375 3.84375 17.046875 C 3.90625 17.121094 3.964844 17.195312 4.027344 17.265625 C 4.140625 17.390625 4.253906 17.515625 4.371094 17.636719 C 4.472656 17.746094 4.578125 17.851562 4.6875 17.953125 C 4.738281 18.003906 4.792969 18.058594 4.84375 18.105469 C 4.949219 18.203125 5.054688 18.300781 5.164062 18.394531 C 5.1875 18.414062 5.214844 18.4375 5.242188 18.457031 C 5.46875 18.652344 5.703125 18.832031 5.941406 19.003906 C 5.972656 19.027344 6.003906 19.050781 6.035156 19.074219 C 6.160156 19.160156 6.285156 19.242188 6.410156 19.324219 C 6.453125 19.351562 6.5 19.378906 6.542969 19.40625 C 6.765625 19.546875 6.992188 19.675781 7.226562 19.800781 C 7.28125 19.828125 7.335938 19.859375 7.390625 19.886719 C 7.5 19.941406 7.613281 19.996094 7.726562 20.046875 C 7.820312 20.089844 7.914062 20.132812 8.007812 20.171875 C 8.105469 20.214844 8.203125 20.257812 8.304688 20.296875 C 8.488281 20.367188 8.675781 20.4375 8.867188 20.496094 C 8.890625 20.503906 8.910156 20.511719 8.929688 20.519531 L 9.269531 20.628906 L 9.273438 20.621094 C 10.148438 20.867188 11.0625 21 12 21 C 12.9375 21 13.851562 20.867188 14.726562 20.621094 L 14.730469 20.628906 L 15.070312 20.519531 C 15.089844 20.511719 15.109375 20.503906 15.132812 20.496094 C 15.324219 20.4375 15.511719 20.367188 15.699219 20.296875 C 15.796875 20.257812 15.894531 20.214844 15.992188 20.171875 C 16.085938 20.132812 16.183594 20.089844 16.277344 20.046875 C 16.386719 19.996094 16.5 19.941406 16.609375 19.886719 C 16.664062 19.859375 16.71875 19.828125 16.773438 19.800781 C 17.007812 19.675781 17.234375 19.546875 17.457031 19.40625 C 17.503906 19.378906 17.546875 19.355469 17.589844 19.324219 C 17.714844 19.242188 17.839844 19.160156 17.964844 19.074219 C 17.996094 19.050781 18.027344 19.027344 18.058594 19.003906 C 18.300781 18.832031 18.53125 18.652344 18.757812 18.457031 C 18.785156 18.4375 18.8125 18.414062 18.839844 18.394531 C 18.945312 18.300781 19.050781 18.203125 19.15625 18.105469 C 19.210938 18.058594 19.261719 18.003906 19.316406 17.953125 C 19.421875 17.851562 19.527344 17.746094 19.632812 17.636719 C 19.746094 17.515625 19.863281 17.390625 19.972656 17.265625 C 20.035156 17.195312 20.09375 17.121094 20.15625 17.046875 C 20.246094 16.9375 20.335938 16.828125 20.421875 16.714844 C 20.46875 16.65625 20.515625 16.59375 20.558594 16.535156 C 20.695312 16.351562 20.824219 16.167969 20.949219 15.976562 C 21.082031 15.769531 21.207031 15.558594 21.328125 15.347656 C 21.335938 15.332031 21.347656 15.316406 21.355469 15.300781 C 22.015625 14.121094 22.476562 12.8125 22.679688 11.429688 L 22.695312 11.335938 L 22.691406 11.335938 C 22.761719 10.832031 22.800781 10.320312 22.800781 9.800781 L 23.054688 9.800781 C 23.574219 9.800781 24 9.375 24 8.851562 L 24 5.945312 C 24 5.425781 23.574219 5 23.054688 5 Z M 0.945312 9 C 0.867188 9 0.800781 8.933594 0.800781 8.851562 L 0.800781 5.945312 C 0.800781 5.867188 0.867188 5.800781 0.945312 5.800781 L 4 5.800781 L 4 9 Z M 7.109375 6.890625 C 7.121094 6.925781 7.132812 6.960938 7.140625 6.996094 C 7.15625 7.050781 7.167969 7.105469 7.175781 7.160156 C 7.183594 7.210938 7.1875 7.261719 7.191406 7.3125 C 7.195312 7.371094 7.195312 7.429688 7.191406 7.488281 C 7.1875 7.542969 7.183594 7.59375 7.175781 7.648438 C 7.167969 7.703125 7.152344 7.757812 7.140625 7.8125 C 7.125 7.859375 7.113281 7.910156 7.09375 7.957031 C 7.074219 8.011719 7.046875 8.066406 7.019531 8.121094 C 7 8.160156 6.980469 8.199219 6.957031 8.238281 C 6.917969 8.296875 6.875 8.355469 6.828125 8.414062 C 6.808594 8.4375 6.789062 8.464844 6.765625 8.488281 C 6.707031 8.550781 6.644531 8.605469 6.578125 8.65625 C 6.558594 8.671875 6.542969 8.6875 6.523438 8.703125 C 6.445312 8.757812 6.363281 8.804688 6.277344 8.84375 C 6.265625 8.851562 6.253906 8.859375 6.242188 8.863281 C 6.148438 8.90625 6.050781 8.9375 5.949219 8.960938 C 5.941406 8.960938 5.9375 8.964844 5.929688 8.964844 C 5.824219 8.988281 5.710938 9 5.601562 9 L 4.800781 9 L 4.800781 5.800781 L 5.507812 5.800781 C 6.242188 5.800781 6.882812 6.257812 7.109375 6.890625 Z M 4.167969 16.175781 C 4.15625 16.164062 4.148438 16.148438 4.136719 16.136719 C 3.21875 14.910156 2.550781 13.472656 2.226562 11.925781 C 2.621094 11.84375 3.011719 11.800781 3.398438 11.800781 C 6.597656 11.800781 9.199219 14.402344 9.199219 17.601562 C 9.199219 18.300781 9.074219 18.984375 8.828125 19.636719 C 8.796875 19.625 8.765625 19.617188 8.738281 19.605469 C 8.601562 19.554688 8.46875 19.5 8.335938 19.445312 C 8.28125 19.421875 8.226562 19.402344 8.175781 19.378906 C 8.007812 19.304688 7.84375 19.222656 7.679688 19.140625 C 7.609375 19.105469 7.539062 19.0625 7.46875 19.027344 C 7.371094 18.972656 7.273438 18.917969 7.175781 18.859375 C 7.097656 18.816406 7.019531 18.765625 6.941406 18.71875 C 6.847656 18.660156 6.761719 18.601562 6.671875 18.542969 C 6.601562 18.496094 6.527344 18.449219 6.457031 18.398438 C 6.3125 18.296875 6.175781 18.191406 6.035156 18.082031 C 5.972656 18.03125 5.910156 17.976562 5.84375 17.925781 C 5.753906 17.851562 5.664062 17.773438 5.578125 17.695312 C 5.519531 17.644531 5.460938 17.59375 5.402344 17.539062 C 5.292969 17.4375 5.183594 17.332031 5.078125 17.222656 C 5.050781 17.195312 5.019531 17.167969 4.992188 17.136719 C 4.847656 16.992188 4.710938 16.839844 4.578125 16.6875 C 4.5625 16.667969 4.546875 16.648438 4.53125 16.628906 C 4.40625 16.480469 4.285156 16.328125 4.167969 16.175781 Z M 14.800781 17.601562 C 14.800781 14.402344 17.402344 11.800781 20.601562 11.800781 C 20.988281 11.800781 21.378906 11.84375 21.773438 11.925781 C 21.449219 13.472656 20.78125 14.910156 19.863281 16.136719 C 19.851562 16.148438 19.84375 16.164062 19.832031 16.175781 C 19.714844 16.328125 19.59375 16.480469 19.46875 16.628906 C 19.453125 16.648438 19.4375 16.667969 19.421875 16.683594 C 19.289062 16.839844 19.152344 16.992188 19.007812 17.136719 C 18.980469 17.167969 18.953125 17.195312 18.921875 17.222656 C 18.816406 17.332031 18.707031 17.4375 18.597656 17.539062 C 18.539062 17.59375 18.480469 17.644531 18.421875 17.695312 C 18.335938 17.773438 18.246094 17.851562 18.15625 17.925781 C 18.089844 17.976562 18.027344 18.03125 17.964844 18.082031 C 17.824219 18.191406 17.6875 18.296875 17.542969 18.398438 C 17.472656 18.445312 17.402344 18.492188 17.328125 18.542969 C 17.238281 18.601562 17.148438 18.660156 17.058594 18.71875 C 16.980469 18.765625 16.902344 18.8125 16.824219 18.859375 C 16.726562 18.917969 16.628906 18.972656 16.53125 19.023438 C 16.460938 19.0625 16.390625 19.101562 16.320312 19.140625 C 16.15625 19.222656 15.992188 19.304688 15.824219 19.378906 C 15.773438 19.402344 15.71875 19.421875 15.664062 19.445312 C 15.53125 19.5 15.398438 19.554688 15.261719 19.605469 C 15.234375 19.617188 15.203125 19.625 15.171875 19.636719 C 14.925781 18.984375 14.800781 18.300781 14.800781 17.601562 Z M 21.910156 11.136719 C 21.472656 11.046875 21.03125 11 20.601562 11 C 16.960938 11 14 13.960938 14 17.601562 C 14 18.382812 14.144531 19.144531 14.417969 19.878906 C 13.640625 20.085938 12.828125 20.199219 12 20.199219 C 11.171875 20.199219 10.359375 20.085938 9.582031 19.878906 C 9.855469 19.144531 10 18.382812 10 17.601562 C 10 13.960938 7.039062 11 3.398438 11 C 2.96875 11 2.527344 11.046875 2.089844 11.136719 C 2.03125 10.699219 2 10.253906 2 9.800781 L 5.601562 9.800781 C 5.683594 9.800781 5.769531 9.796875 5.851562 9.785156 C 5.851562 9.785156 5.855469 9.785156 5.855469 9.785156 C 6.109375 9.757812 6.347656 9.691406 6.570312 9.59375 C 6.574219 9.59375 6.574219 9.59375 6.574219 9.589844 C 6.648438 9.558594 6.71875 9.523438 6.789062 9.480469 C 6.796875 9.476562 6.800781 9.472656 6.808594 9.46875 C 6.871094 9.433594 6.933594 9.394531 6.992188 9.351562 C 7.003906 9.34375 7.011719 9.335938 7.023438 9.328125 C 7.078125 9.285156 7.132812 9.242188 7.183594 9.199219 C 7.195312 9.1875 7.207031 9.175781 7.21875 9.167969 C 7.269531 9.121094 7.316406 9.074219 7.363281 9.023438 C 7.367188 9.019531 7.375 9.011719 7.378906 9.007812 C 7.386719 9 7.390625 8.992188 7.394531 8.988281 C 7.4375 8.9375 7.480469 8.886719 7.523438 8.832031 C 7.53125 8.820312 7.539062 8.808594 7.546875 8.796875 C 7.589844 8.738281 7.628906 8.675781 7.664062 8.613281 C 7.671875 8.605469 7.675781 8.597656 7.679688 8.589844 C 7.878906 8.242188 7.996094 7.839844 8 7.410156 C 8 7.40625 8 7.40625 8 7.40625 C 8 7.402344 8 7.402344 8 7.398438 C 8 6.074219 6.921875 5 5.597656 5 L 2 5 L 2 4.097656 C 2 3.933594 2.132812 3.800781 2.296875 3.800781 L 21.703125 3.800781 C 21.867188 3.800781 22 3.933594 22 4.097656 L 22 5 L 18.398438 5 C 17.078125 5 16 6.078125 16 7.398438 C 16 7.402344 16 7.40625 16 7.40625 C 16 7.40625 16 7.410156 16 7.410156 C 16.003906 7.839844 16.121094 8.242188 16.320312 8.59375 C 16.324219 8.601562 16.328125 8.609375 16.335938 8.617188 C 16.371094 8.675781 16.410156 8.738281 16.453125 8.796875 C 16.460938 8.808594 16.46875 8.820312 16.476562 8.832031 C 16.519531 8.886719 16.558594 8.9375 16.605469 8.988281 C 16.609375 8.996094 16.613281 9 16.621094 9.007812 C 16.625 9.011719 16.632812 9.019531 16.636719 9.023438 C 16.683594 9.074219 16.730469 9.121094 16.78125 9.167969 C 16.792969 9.175781 16.804688 9.1875 16.816406 9.199219 C 16.867188 9.246094 16.921875 9.289062 16.976562 9.328125 C 16.984375 9.335938 16.996094 9.34375 17.007812 9.351562 C 17.066406 9.394531 17.128906 9.433594 17.191406 9.472656 C 17.199219 9.476562 17.203125 9.480469 17.210938 9.480469 C 17.28125 9.523438 17.351562 9.558594 17.425781 9.59375 C 17.652344 9.691406 17.890625 9.761719 18.144531 9.785156 C 18.144531 9.785156 18.148438 9.789062 18.148438 9.789062 C 18.230469 9.796875 18.316406 9.800781 18.398438 9.800781 L 22 9.800781 C 22 10.253906 21.96875 10.699219 21.910156 11.136719 Z M 19.199219 9 L 18.398438 9 C 18.289062 9 18.175781 8.988281 18.070312 8.964844 C 18.0625 8.964844 18.058594 8.960938 18.050781 8.960938 C 17.949219 8.9375 17.851562 8.90625 17.757812 8.863281 C 17.746094 8.859375 17.734375 8.847656 17.722656 8.84375 C 17.636719 8.804688 17.554688 8.757812 17.476562 8.703125 C 17.457031 8.6875 17.441406 8.671875 17.421875 8.65625 C 17.355469 8.605469 17.292969 8.550781 17.234375 8.488281 C 17.210938 8.464844 17.191406 8.4375 17.171875 8.414062 C 17.125 8.355469 17.082031 8.296875 17.042969 8.234375 C 17.019531 8.199219 17 8.160156 16.980469 8.121094 C 16.953125 8.066406 16.925781 8.011719 16.90625 7.957031 C 16.886719 7.910156 16.875 7.859375 16.859375 7.8125 C 16.84375 7.757812 16.832031 7.703125 16.824219 7.648438 C 16.816406 7.59375 16.8125 7.542969 16.808594 7.488281 C 16.804688 7.429688 16.804688 7.375 16.808594 7.316406 C 16.8125 7.261719 16.816406 7.210938 16.824219 7.160156 C 16.832031 7.105469 16.84375 7.050781 16.855469 7 C 16.867188 6.960938 16.878906 6.925781 16.890625 6.894531 C 17.117188 6.257812 17.757812 5.800781 18.492188 5.800781 L 19.199219 5.800781 Z M 23.199219 8.851562 C 23.199219 8.933594 23.132812 9 23.054688 9 L 20 9 L 20 5.800781 L 23.054688 5.800781 C 23.132812 5.800781 23.199219 5.867188 23.199219 5.945312 Z M 23.199219 8.851562"/>
</svg>
