<svg xmlns="http://www.w3.org/2000/svg" width="32" height="32" viewBox="0 0 24 24">
    <path d="M 19.328125 9.683594 L 19.15625 9.683594 L 19.15625 8.421875 C 19.15625 8.402344 19.148438 8.386719 19.148438 8.371094 C 19.144531 8.339844 19.140625 8.308594 19.128906 8.28125 C 19.121094 8.257812 19.109375 8.238281 19.097656 8.21875 C 19.085938 8.191406 19.070312 8.167969 19.050781 8.148438 C 19.035156 8.128906 19.019531 8.113281 19 8.097656 C 18.976562 8.082031 18.953125 8.066406 18.929688 8.054688 C 18.90625 8.042969 18.882812 8.03125 18.859375 8.023438 C 18.84375 8.019531 18.832031 8.011719 18.816406 8.007812 C 18.789062 8.003906 15.867188 7.414062 14.703125 5.621094 C 14.246094 4.917969 14.125 4.136719 14.332031 3.234375 C 14.550781 2.285156 14.316406 1.34375 13.703125 0.722656 C 13.210938 0.222656 12.6875 0 12 0 C 11.34375 0 10.769531 0.242188 10.296875 0.722656 C 9.683594 1.34375 9.449219 2.285156 9.667969 3.234375 C 9.875 4.136719 9.753906 4.917969 9.296875 5.621094 C 8.132812 7.414062 5.210938 8.003906 5.183594 8.007812 C 5.167969 8.011719 5.15625 8.019531 5.140625 8.023438 C 5.113281 8.03125 5.09375 8.042969 5.070312 8.054688 C 5.042969 8.066406 5.023438 8.082031 5 8.097656 C 4.980469 8.113281 4.964844 8.128906 4.949219 8.148438 C 4.929688 8.171875 4.914062 8.191406 4.902344 8.21875 C 4.890625 8.238281 4.878906 8.257812 4.871094 8.28125 C 4.859375 8.308594 4.855469 8.339844 4.851562 8.371094 C 4.851562 8.386719 4.84375 8.402344 4.84375 8.421875 L 4.84375 9.683594 L 4.671875 9.683594 C 2.210938 9.683594 0.210938 11.683594 0.210938 14.144531 L 0.210938 17.011719 C 0.210938 19.472656 2.210938 21.472656 4.671875 21.472656 L 4.84375 21.472656 L 4.84375 21.789062 C 4.84375 23.007812 5.832031 24 7.050781 24 L 16.949219 24 C 18.167969 24 19.15625 23.007812 19.15625 21.789062 L 19.15625 21.472656 L 19.328125 21.472656 C 21.789062 21.472656 23.789062 19.472656 23.789062 17.011719 L 23.789062 14.144531 C 23.789062 11.683594 21.789062 9.683594 19.328125 9.683594 Z M 10.898438 1.3125 C 11.105469 1.101562 11.328125 0.972656 11.578125 0.902344 L 11.578125 2.105469 L 12.421875 2.105469 L 12.421875 0.898438 C 12.667969 0.960938 12.878906 1.085938 13.101562 1.3125 C 13.511719 1.730469 13.664062 2.375 13.511719 3.042969 C 13.347656 3.753906 13.355469 4.425781 13.53125 5.050781 L 10.46875 5.050781 C 10.644531 4.429688 10.652344 3.757812 10.488281 3.042969 C 10.335938 2.375 10.488281 1.730469 10.898438 1.3125 Z M 10 6.082031 C 10.039062 6.023438 10.074219 5.957031 10.109375 5.894531 L 13.890625 5.894531 C 13.925781 5.957031 13.960938 6.023438 14 6.082031 C 14.566406 6.953125 15.445312 7.574219 16.289062 8 L 7.710938 8 C 8.554688 7.574219 9.433594 6.953125 10 6.082031 Z M 4.671875 20.632812 C 2.675781 20.632812 1.050781 19.007812 1.050781 17.011719 L 1.050781 14.144531 C 1.050781 12.148438 2.675781 10.527344 4.671875 10.527344 L 4.84375 10.527344 L 4.84375 11.367188 L 4.671875 11.367188 C 3.140625 11.367188 1.894531 12.613281 1.894531 14.144531 L 1.894531 17.011719 C 1.894531 18.542969 3.140625 19.789062 4.671875 19.789062 L 4.84375 19.789062 L 4.84375 20.632812 Z M 4.84375 18.949219 L 4.671875 18.949219 C 3.605469 18.949219 2.738281 18.078125 2.738281 17.011719 L 2.738281 14.144531 C 2.738281 13.078125 3.605469 12.210938 4.671875 12.210938 L 4.84375 12.210938 Z M 18.316406 21.789062 C 18.316406 22.542969 17.703125 23.15625 16.949219 23.15625 L 7.050781 23.15625 C 6.296875 23.15625 5.683594 22.542969 5.683594 21.789062 L 5.683594 8.84375 L 18.316406 8.84375 Z M 19.15625 12.210938 L 19.328125 12.210938 C 20.394531 12.210938 21.261719 13.078125 21.261719 14.144531 L 21.261719 17.011719 C 21.261719 18.078125 20.394531 18.949219 19.328125 18.949219 L 19.15625 18.949219 Z M 22.949219 17.011719 C 22.949219 19.007812 21.324219 20.632812 19.328125 20.632812 L 19.15625 20.632812 L 19.15625 19.789062 L 19.328125 19.789062 C 20.859375 19.789062 22.105469 18.542969 22.105469 17.011719 L 22.105469 14.144531 C 22.105469 12.613281 20.859375 11.367188 19.328125 11.367188 L 19.15625 11.367188 L 19.15625 10.527344 L 19.328125 10.527344 C 21.324219 10.527344 22.949219 12.148438 22.949219 14.144531 Z M 22.949219 17.011719"/>
    <path d="M 17.28125 13.46875 L 13.964844 12.988281 L 12.476562 9.980469 C 12.386719 9.796875 12.203125 9.683594 12 9.683594 C 11.796875 9.683594 11.613281 9.796875 11.523438 9.980469 L 10.035156 12.988281 L 6.71875 13.46875 C 6.515625 13.5 6.351562 13.640625 6.289062 13.832031 C 6.226562 14.027344 6.277344 14.238281 6.421875 14.378906 L 8.824219 16.722656 L 8.257812 20.027344 C 8.222656 20.230469 8.304688 20.429688 8.46875 20.550781 C 8.5625 20.617188 8.671875 20.652344 8.78125 20.652344 C 8.867188 20.652344 8.953125 20.632812 9.03125 20.589844 L 12 19.027344 L 14.96875 20.589844 C 15.148438 20.683594 15.363281 20.667969 15.53125 20.550781 C 15.695312 20.429688 15.777344 20.230469 15.742188 20.027344 L 15.175781 16.722656 L 17.578125 14.378906 C 17.722656 14.238281 17.777344 14.027344 17.710938 13.832031 C 17.648438 13.640625 17.484375 13.5 17.28125 13.46875 Z M 14.472656 16.230469 C 14.347656 16.355469 14.289062 16.53125 14.316406 16.703125 L 14.808594 19.554688 L 12.25 18.207031 C 12.09375 18.125 11.90625 18.125 11.753906 18.207031 L 9.191406 19.554688 L 9.683594 16.703125 C 9.710938 16.53125 9.652344 16.355469 9.527344 16.230469 L 7.457031 14.214844 L 10.320312 13.796875 C 10.492188 13.773438 10.640625 13.664062 10.71875 13.507812 L 12 10.914062 L 13.28125 13.507812 C 13.359375 13.664062 13.507812 13.773438 13.679688 13.796875 L 16.542969 14.214844 Z M 14.472656 16.230469"/>
</svg>
