<svg xmlns="http://www.w3.org/2000/svg" width="32" height="32" viewBox="0 0 24 24">
    <path d="M23.645 14.473l-9.368-9.364a2.115 2.115 0 0 0-1.765-.613.68.68 0 0 0-.047-.055L10.46 2.438l-.016.015c-.968-.664-2.855.36-4.32 1.555a6.209 6.209 0 0 1-1.352-.957A2.424 2.424 0 0 0 .711.715 2.42 2.42 0 0 0 0 2.434c0 .648.254 1.261.71 1.718a2.417 2.417 0 0 0 2.349.63c.367.378.695.855.953 1.343-1.196 1.46-2.227 3.352-1.563 4.32l-.015.016.14.14c0 .004.004.004.004.004l1.86 1.86c.019.02.039.031.054.047a2.152 2.152 0 0 0 .613 1.77l9.368 9.363c.187.19.488.355.96.355.43 0 1.008-.14 1.778-.523 1.121-.563 2.387-1.52 3.566-2.7 2.278-2.277 3.996-5.175 2.868-6.304zM1.285 3.582a1.623 1.623 0 0 1-.472-1.148c0-.434.167-.84.472-1.149a1.623 1.623 0 0 1 2.293 2.297 1.623 1.623 0 0 1-2.293 0zm3.164.273c.586.5 1.364.961 2.114 1.247.527.199.988.293 1.406.296a6.861 6.861 0 0 1-2.574 2.57c.003-.593-.215-1.284-.536-1.94a7.71 7.71 0 0 0-1.008-1.574zm-.066 3.106c.238.672.293 1.258.054 1.492a.402.402 0 0 0-.05.508.41.41 0 0 0 .488.156A7.642 7.642 0 0 0 9.113 4.88a.402.402 0 1 0-.66-.438c-.219.215-.785.192-1.492-.058 1.59-1.219 2.781-1.52 3.066-1.23.02.015.032.038.047.062v.004c.031.062.051.148.055.25 0 .054-.004.11-.008.176h-.004a1.308 1.308 0 0 1-.031.199.33.33 0 0 0-.02.066c-.011.055-.027.11-.046.168-.008.024-.016.05-.028.074-.02.063-.043.13-.07.2-.008.02-.02.043-.027.066-.036.078-.07.164-.114.25-.008.016-.015.027-.02.043l-.167.32c-.004.004-.004.004-.004.008-.39.7-.961 1.457-1.645 2.188-.113.12-.23.242-.351.367-.133.129-.262.254-.39.375-.024.023-.048.043-.075.066-.102.094-.207.188-.309.277a15.448 15.448 0 0 1-.441.363c-.098.083-.2.157-.293.231l-.098.07c-.082.06-.168.122-.246.176-.05.036-.101.067-.152.102-.059.035-.117.074-.172.11a3.42 3.42 0 0 1-.223.136c-.023.016-.05.031-.078.047-.91.523-1.605.68-1.898.527a.306.306 0 0 1-.07-.043c-.286-.289.011-1.48 1.234-3.07zM4 10.883c1.07-.23 2.434-1.113 3.66-2.235a16.556 16.556 0 0 0 .504-.48c.156-.156.3-.313.445-.469.024-.023.043-.047.063-.066.14-.156.277-.313.406-.469.004-.004.008-.004.008-.008.445-.535.828-1.07 1.129-1.582a8.132 8.132 0 0 0 .285-.531l.008-.02c.031-.058.05-.117.078-.175.05-.118.101-.23.14-.336.016-.04.024-.078.04-.117.039-.125.078-.247.101-.36L10.88 4l1.012 1.012c.015.015.023.035.035.054l.015.036c.207.476-.324 1.914-1.777 3.59-.008.011-.016.019-.023.03-.04.048-.086.098-.13.145-.066.074-.132.149-.202.223a15.265 15.265 0 0 1-.73.73c-.083.078-.165.149-.243.22-.043.034-.082.073-.125.112-.117.098-.23.196-.344.286a.008.008 0 0 1-.008.007c-1.535 1.242-2.816 1.692-3.257 1.5l-.036-.015c-.02-.012-.039-.024-.054-.035zM5.29 12.8c.022 0 .042.004.062.004 1.18 0 2.918-1.094 4.402-2.508.094-.09.184-.18.273-.266.106-.105.211-.215.317-.328.058-.062.113-.125.172-.187.03-.032.058-.067.09-.098.757-.848 1.37-1.719 1.757-2.512.028-.058.047-.11.07-.164a4.76 4.76 0 0 0 .238-.625l.013-.035c.023-.09.046-.18.062-.262.004-.008.004-.02.004-.027.035-.184.055-.356.05-.5.337.008.66.14.907.387l2.95 2.953c-2.122.742-3.848 2.644-3.934 4.441-.453 1.985-2.168 3.766-3.746 3.93L5.68 13.707a1.334 1.334 0 0 1-.39-.906zm14.913 7.406c-1.117 1.117-2.308 2.02-3.351 2.543-1.051.523-1.63.5-1.805.32l-5.383-5.379c1.73-.511 3.39-2.375 3.86-4.476l.007-.074c.055-1.575 1.793-3.332 3.774-3.86l5.765 5.766c.47.465-.418 2.707-2.867 5.16zm0 0"/>
    <path d="M13.754 17.484c-.55.551-.55 1.45 0 2.004.277.278.64.414 1.004.414a1.413 1.413 0 0 0 1.418-1.418 1.42 1.42 0 0 0-2.422-1zm1.434 1.43a.606.606 0 0 1-.86 0 .606.606 0 0 1 .43-1.035.606.606 0 0 1 .43 1.035zm0 0M18.629 15.477c-.27.265-.418.625-.418 1.003a1.423 1.423 0 0 0 2.422 1.004c.27-.27.418-.625.418-1.004 0-.378-.149-.738-.418-1.003a1.415 1.415 0 0 0-2.004 0zm1.433 1.433a.618.618 0 0 1-.863 0 .616.616 0 0 1 0-.86.61.61 0 1 1 .863.86zm0 0M14.902 11.75c-.27.266-.418.625-.418 1.004s.149.734.418 1.004c.278.273.641.414 1.004.414.364 0 .727-.14 1-.414.27-.27.418-.625.418-1.004s-.148-.738-.418-1.004a1.415 1.415 0 0 0-2.004 0zm1.434 1.434a.613.613 0 0 1-.86 0 .603.603 0 0 1 0-.86.607.607 0 0 1 1.035.43c0 .16-.062.312-.175.43zm0 0"/>
</svg>
