<svg xmlns="http://www.w3.org/2000/svg" width="32" height="32" viewBox="0 0 24 24">
    <path d="M19.2 20c-.204 0-.395.04-.579.094l-3.48-7.887a2.377 2.377 0 0 0 .402-1.93 3.7 3.7 0 0 0 .434-.925c1.824-5.497 1.828-5.508 1.832-5.516a2.357 2.357 0 0 0-.375-2.086A2.348 2.348 0 0 0 15.535.8c-.172 0-.336.024-.5.063A2.383 2.383 0 0 0 13.2 0a2.401 2.401 0 0 0-2.398 2.398c0 .832.433 1.57 1.094 2H7.199V2H4.801v2.398h-1a1 1 0 1 0 0 2h3.8V8.68a7.257 7.257 0 0 0-2.742 4.3l-.55 2.622H7.46l1.418-3.196A.686.686 0 0 1 9.504 12h1.621c.043.07.086.14.137.207l-3.48 7.89A1.934 1.934 0 0 0 7.198 20c-1.101 0-2 .898-2 2 0 1.102.899 2 2 2 1.106 0 2-.898 2-2 0-.613-.281-1.152-.715-1.52l1.801-4.082h5.832l1.797 4.082A1.984 1.984 0 0 0 17.2 22c0 1.102.899 2 2 2 1.106 0 2-.898 2-2 0-1.102-.894-2-2-2zM8.397 22a1.2 1.2 0 1 1-.941-1.172l-.621 1.41.73.325.575-1.301c.16.203.257.457.257.738zm3.336-10.563c-.015-.035-.023-.07-.035-.105a.955.955 0 0 1-.054-.18c-.008-.03-.012-.062-.02-.093a1.924 1.924 0 0 1-.02-.211v-.094c0-.074.008-.14.02-.211a.782.782 0 0 0 .016-.094c.043-.187.12-.367.222-.523l.032-.043c.046-.067.101-.133.16-.192l.023-.03c.14-.134.3-.247.48-.325a.19.19 0 0 1 .044-.016 1.33 1.33 0 0 1 .25-.078l.039-.012c.07-.011.14-.015.214-.02a1.03 1.03 0 0 1 .11-.007c.098 0 .195.008.289.027.059.012.11.032.164.047.043.012.086.024.125.04.055.023.105.05.16.078.031.02.067.035.098.054.054.035.105.078.16.117.02.02.043.036.062.055.059.055.114.11.16.172.008.012.016.02.024.031.117.149.207.317.266.508l.047.156a1.6 1.6 0 0 1-3.035.95zM13.2.802c.387 0 .758.14 1.043.39-.015.008-.023.02-.039.032-.074.05-.144.105-.215.168-.027.023-.062.05-.09.078-.07.066-.132.136-.191.21-.023.028-.047.051-.07.083-.059.078-.11.164-.16.25-.016.031-.036.054-.051.082a2.695 2.695 0 0 0-.14.347.03.03 0 0 0-.009.02l-.492 1.473a1.599 1.599 0 0 1-1.183-1.536A1.6 1.6 0 0 1 13.199.801zm-7.597 2h.796v1.597h-.796zM3.8 5.6a.2.2 0 0 1 0-.402H14v.403H8.8v4h-.402v-4zm8.16.797l-.27.809a7.2 7.2 0 0 0-2.09.398V6.398zM10.836 11.2H9.504c-.586 0-1.117.348-1.356.883l-1.207 2.719H5.293l.348-1.656A6.45 6.45 0 0 1 7.6 9.71v.687h2V8.457A6.362 6.362 0 0 1 11.982 8h.289l.535-1.602H14.8v-2h-1.328l.566-1.695c.031-.105.078-.203.133-.297.012-.02.023-.043.039-.062.055-.09.117-.176.191-.25 0-.004.004-.004.004-.008.078-.082.168-.152.266-.219l.031-.02c.098-.058.2-.113.309-.152l.054-.02a1.56 1.56 0 0 1 1.977 1.922c-.027.087-1.824 5.5-1.828 5.512-.027.09-.059.172-.094.258a2.577 2.577 0 0 0-.43-.445c-.023-.02-.046-.035-.07-.05a1.581 1.581 0 0 0-.168-.114c-.027-.02-.055-.04-.086-.055a2.764 2.764 0 0 0-.242-.117c-.023-.012-.05-.02-.074-.027a2.155 2.155 0 0 0-.297-.094c-.082-.016-.164-.031-.246-.043-.016-.004-.031-.004-.047-.008a2.854 2.854 0 0 0-.262-.016c-.011 0-.027.004-.043.004-.02 0-.043.004-.066.004a2.422 2.422 0 0 0-.242.024c-.02 0-.04 0-.059.004a3.2 3.2 0 0 0-.313.078l-.093.035c-.067.023-.13.05-.192.078-.03.016-.066.031-.097.047a1.96 1.96 0 0 0-.29.18c-.07.05-.14.105-.202.164-.02.015-.04.03-.055.05a2.18 2.18 0 0 0-.207.22c-.012.01-.02.027-.031.042a2.354 2.354 0 0 0-.192.29 1.935 1.935 0 0 0-.129.253c-.011.024-.02.05-.027.074a2.478 2.478 0 0 0-.074.223c-.004.016-.012.035-.016.05l-.012.055-.023.118c-.004.039-.012.078-.016.117-.008.043-.008.086-.011.129-.004.039-.004.078-.008.117v.047c0 .027.004.054.004.082 0 .039.004.074.004.113.004.047.011.094.02.145 0 .02.003.039.007.058zm-.2 4.403l1.239-2.805a2.388 2.388 0 0 0 2.652 0l1.235 2.805zm8.563 7.597C18.54 23.2 18 22.66 18 22c0-.281.102-.535.262-.738l.574 1.3.73-.324-.62-1.41A1.2 1.2 0 1 1 19.2 23.2zm0 0"/>
</svg>
