<svg xmlns="http://www.w3.org/2000/svg" width="32" height="32" viewBox="0 0 24 24">
    <path d="M22.152344 7.808594L22.152344 4.929688C22.152344 4.121094 21.496094 3.460938 20.6875 3.460938L12.546875 3.460938C11.734375 3.460938 11.078125 4.121094 11.078125 4.929688L11.078125 7.808594C10 8.222656 9.230469 9.269531 9.230469 10.492188L9.230469 20.894531C9.230469 22.359375 10.359375 23.308594 12.105469 23.308594L21.125 23.308594C22.871094 23.308594 24 22.359375 24 20.894531L24 10.492188C24 9.269531 23.230469 8.222656 22.152344 7.808594zM21.230469 4.929688L21.230469 7.617188 19.847656 7.617188 19.847656 4.382812 20.6875 4.382812C20.984375 4.382812 21.230469 4.628906 21.230469 4.929688zM14.308594 7.617188L14.308594 4.382812 15.230469 4.382812 15.230469 7.617188zM16.152344 4.382812L17.078125 4.382812 17.078125 7.617188 16.152344 7.617188zM18 4.382812L18.921875 4.382812 18.921875 7.617188 18 7.617188zM12 7.617188L12 4.929688C12 4.628906 12.246094 4.382812 12.546875 4.382812L13.382812 4.382812 13.382812 7.617188zM23.078125 20.894531C23.078125 22.238281 21.710938 22.382812 21.125 22.382812L12.105469 22.382812C11.519531 22.382812 10.152344 22.238281 10.152344 20.894531L10.152344 10.492188C10.152344 9.414062 11.03125 8.539062 12.105469 8.539062L21.125 8.539062C22.203125 8.539062 23.078125 9.414062 23.078125 10.492188zM6.460938 5.769531C6.460938 2.921875 5.042969.691406 3.230469.691406 1.417969.691406 0 2.921875 0 5.769531 0 8.367188 1.183594 10.449219 2.769531 10.789062L2.769531 13.21875C1.976562 13.425781 1.382812 14.140625 1.382812 15L1.382812 21.460938C1.382812 22.480469 2.210938 23.308594 3.230469 23.308594 4.25 23.308594 5.078125 22.480469 5.078125 21.460938L5.078125 15C5.078125 14.140625 4.484375 13.425781 3.691406 13.21875L3.691406 10.789062C5.277344 10.449219 6.460938 8.367188 6.460938 5.769531zM.921875 5.769531C.921875 3.515625 1.980469 1.617188 3.230469 1.617188 4.480469 1.617188 5.539062 3.515625 5.539062 5.769531 5.539062 8.019531 4.480469 9.921875 3.230469 9.921875 1.980469 9.921875.921875 8.019531.921875 5.769531zM2.308594 17.769531L4.152344 17.769531 4.152344 18.691406 2.308594 18.691406zM4.152344 21.460938C4.152344 21.96875 3.738281 22.382812 3.230469 22.382812 2.722656 22.382812 2.308594 21.96875 2.308594 21.460938L2.308594 19.617188 4.152344 19.617188zM4.152344 15L4.152344 16.847656 2.308594 16.847656 2.308594 15C2.308594 14.492188 2.722656 14.078125 3.230469 14.078125 3.738281 14.078125 4.152344 14.492188 4.152344 15zM4.152344 15"/>
    <path d="M 16.617188 9.921875 C 13.5625 9.921875 11.078125 12.40625 11.078125 15.460938 C 11.078125 18.515625 13.5625 21 16.617188 21 C 19.667969 21 22.152344 18.515625 22.152344 15.460938 C 22.152344 12.40625 19.667969 9.921875 16.617188 9.921875 Z M 16.617188 20.078125 C 14.070312 20.078125 12 18.007812 12 15.460938 C 12 12.917969 14.070312 10.847656 16.617188 10.847656 C 19.160156 10.847656 21.230469 12.917969 21.230469 15.460938 C 21.230469 18.007812 19.160156 20.078125 16.617188 20.078125 Z M 16.617188 20.078125"/>
    <path d="M 17.769531 13.449219 C 17.566406 13.449219 17.367188 13.488281 17.179688 13.558594 C 17.242188 13.304688 17.34375 13.058594 17.496094 12.898438 C 17.628906 12.757812 17.789062 12.691406 18 12.691406 C 18.253906 12.691406 18.460938 12.484375 18.460938 12.230469 C 18.460938 11.976562 18.253906 11.769531 18 11.769531 C 17.539062 11.769531 17.132812 11.9375 16.828125 12.261719 C 16.464844 12.640625 16.296875 13.171875 16.214844 13.632812 C 15.976562 13.515625 15.722656 13.449219 15.460938 13.449219 C 14.316406 13.449219 13.382812 14.589844 13.382812 15.988281 C 13.382812 17.386719 14.316406 18.527344 15.460938 18.527344 C 15.875 18.527344 16.277344 18.375 16.613281 18.101562 C 16.953125 18.375 17.355469 18.527344 17.769531 18.527344 C 18.914062 18.527344 19.84375 17.386719 19.84375 15.988281 C 19.84375 14.589844 18.914062 13.449219 17.769531 13.449219 Z M 17.769531 17.605469 C 17.480469 17.605469 17.199219 17.445312 16.984375 17.160156 C 16.894531 17.046875 16.757812 16.976562 16.617188 16.976562 C 16.472656 16.976562 16.335938 17.046875 16.246094 17.160156 C 16.03125 17.445312 15.75 17.605469 15.460938 17.605469 C 14.835938 17.605469 14.308594 16.863281 14.308594 15.988281 C 14.308594 15.113281 14.835938 14.375 15.460938 14.375 C 15.75 14.375 16.03125 14.53125 16.246094 14.816406 C 16.253906 14.824219 16.265625 14.828125 16.269531 14.835938 C 16.355469 14.933594 16.476562 15 16.613281 15 C 16.621094 15 16.628906 15 16.636719 15 C 16.773438 14.992188 16.890625 14.925781 16.96875 14.828125 C 16.972656 14.824219 16.980469 14.824219 16.984375 14.816406 C 17.199219 14.53125 17.480469 14.375 17.769531 14.375 C 18.394531 14.375 18.921875 15.113281 18.921875 15.988281 C 18.921875 16.863281 18.394531 17.605469 17.769531 17.605469 Z M 17.769531 17.605469"/>
</svg>
