<svg xmlns="http://www.w3.org/2000/svg" width="32" height="32" viewBox="0 0 24 24">
    <path d="M 24 4 C 24 3.433594 23.753906 2.910156 23.335938 2.460938 C 23.335938 2.460938 23.332031 2.457031 23.332031 2.457031 C 22.546875 1.625 21.148438 1.074219 19.5 1.039062 C 19.449219 1.015625 19.394531 1.003906 19.335938 1.003906 C 15.785156 1.003906 12.859375 2.851562 12 3.453125 C 11.140625 2.851562 8.214844 1.003906 4.664062 1.003906 C 4.605469 1.003906 4.550781 1.015625 4.5 1.039062 C 1.964844 1.09375 0.00390625 2.371094 0 4 C 0 4 0 4.003906 0 4.003906 C 0.00390625 5.664062 2.050781 6.964844 4.660156 6.96875 C 4.664062 6.96875 4.664062 6.96875 4.664062 6.96875 C 4.664062 6.96875 4.664062 6.96875 4.667969 6.96875 C 7.820312 6.96875 10.476562 5.511719 11.636719 4.761719 C 11.671875 4.777344 11.707031 4.789062 11.742188 4.800781 L 11.742188 8.308594 C 6.417969 8.652344 2.199219 12.753906 2.199219 17.75 C 2.199219 19.101562 2.503906 20.410156 3.105469 21.636719 L 3.164062 21.761719 L 3.289062 21.824219 C 5.425781 22.910156 7.960938 22.992188 10.65625 22.992188 C 10.898438 22.992188 11.140625 22.992188 11.386719 22.992188 L 12.136719 22.992188 C 16.078125 22.992188 19.296875 22.867188 21.890625 21.328125 L 22.011719 21.253906 L 22.0625 21.125 C 22.511719 20.046875 22.738281 18.910156 22.738281 17.75 C 22.738281 12.566406 18.195312 8.34375 12.585938 8.285156 L 12.585938 4.902344 C 13.839844 5.679688 16.367188 6.96875 19.332031 6.96875 C 19.332031 6.96875 19.335938 6.96875 19.335938 6.96875 C 19.339844 6.96875 19.339844 6.96875 19.339844 6.96875 C 21.953125 6.964844 23.996094 5.664062 24 4.003906 C 24 4.003906 24 4 24 4 Z M 17.558594 2.816406 C 17.535156 2.828125 17.523438 2.847656 17.5 2.859375 C 17.183594 3.007812 15.296875 3.835938 13.492188 3.519531 C 14.773438 2.800781 16.921875 1.851562 19.332031 1.847656 L 19.332031 1.875 C 19.761719 1.875 20.175781 1.921875 20.566406 1.996094 C 18.957031 2.128906 17.640625 2.773438 17.558594 2.816406 Z M 12.085938 20.464844 L 11.292969 20.464844 C 10.84375 20.46875 10.398438 20.46875 9.960938 20.464844 C 8.210938 16.425781 9.289062 13.183594 10.101562 11.59375 C 10.769531 10.289062 11.527344 9.519531 11.914062 9.246094 C 11.984375 9.300781 12.070312 9.335938 12.164062 9.335938 C 12.265625 9.335938 12.351562 9.296875 12.425781 9.238281 C 12.820312 9.507812 13.582031 10.277344 14.257812 11.59375 C 15.070312 13.179688 16.144531 16.414062 14.410156 20.441406 C 13.664062 20.460938 12.890625 20.464844 12.085938 20.464844 Z M 4.667969 1.875 L 4.667969 1.847656 C 7.289062 1.851562 9.605469 2.976562 10.824219 3.703125 C 8.574219 3.394531 6.429688 4.378906 6.320312 4.429688 C 6.296875 4.441406 6.28125 4.460938 6.257812 4.476562 C 5.871094 4.644531 3.289062 5.699219 1.136719 4.800781 C 0.949219 4.554688 0.84375 4.28125 0.84375 4 C 0.84375 2.847656 2.59375 1.875 4.667969 1.875 Z M 4.664062 6.125 C 4.21875 6.125 3.789062 6.078125 3.386719 5.996094 C 5.136719 5.921875 6.582031 5.257812 6.667969 5.214844 C 6.695312 5.203125 6.710938 5.183594 6.730469 5.167969 C 7.035156 5.039062 8.683594 4.367188 10.414062 4.507812 C 9.125 5.21875 7.023438 6.125 4.664062 6.125 Z M 10.648438 9.285156 C 10.363281 9.605469 10.089844 9.972656 9.855469 10.339844 C 8.933594 11.769531 7.070312 15.546875 9.039062 20.453125 C 6.894531 20.40625 4.902344 20.207031 3.222656 19.417969 C 3.105469 18.871094 3.042969 18.316406 3.042969 17.75 C 3.042969 13.5625 6.320312 10.0625 10.648438 9.285156 Z M 12.136719 22.148438 L 11.382812 22.148438 C 8.578125 22.160156 5.925781 22.164062 3.800781 21.136719 C 3.695312 20.914062 3.605469 20.683594 3.523438 20.453125 C 5.601562 21.238281 7.996094 21.308594 10.527344 21.308594 C 10.78125 21.308594 11.039062 21.308594 11.296875 21.308594 L 12.085938 21.308594 C 15.84375 21.308594 18.972656 21.203125 21.554688 20.039062 C 21.492188 20.253906 21.421875 20.464844 21.339844 20.675781 C 18.949219 22.039062 15.882812 22.148438 12.136719 22.148438 Z M 21.894531 17.75 C 21.894531 18.167969 21.855469 18.578125 21.789062 18.984375 C 19.996094 19.953125 17.847656 20.292969 15.339844 20.40625 C 17.277344 15.523438 15.425781 11.765625 14.503906 10.339844 C 14.246094 9.9375 13.9375 9.53125 13.625 9.191406 C 18.277344 9.714844 21.894531 13.351562 21.894531 17.75 Z M 19.335938 6.125 C 16.789062 6.125 14.542969 5.070312 13.296875 4.339844 C 13.652344 4.40625 14.007812 4.4375 14.359375 4.4375 C 16.214844 4.4375 17.835938 3.636719 17.929688 3.589844 C 17.953125 3.578125 17.96875 3.558594 17.988281 3.542969 C 18.351562 3.375 20.785156 2.3125 22.785156 3.109375 C 23.023438 3.382812 23.15625 3.683594 23.160156 4 C 23.15625 5.152344 21.40625 6.125 19.335938 6.125 Z M 19.335938 6.125"/>
</svg>
