<svg xmlns="http://www.w3.org/2000/svg" width="32" height="32" viewBox="0 0 24 24">
    <path d="M22.832 2.066a4.637 4.637 0 0 0-.352-.382 6.612 6.612 0 0 0-.386-.356c-1.32-1.101-3.047-1.441-4.73-.937a5.439 5.439 0 0 0-3.657 3.644c-.207.684-.434 1.3-.676 1.86-3.226-2.696-7.3-5.106-8.863-3.543-.828.824-.606 2.46.637 4.73.129.234.273.477.422.723a8.169 8.169 0 0 0-2.793 1.82c-3.247 3.246-3.247 8.531 0 11.777a8.305 8.305 0 0 0 5.89 2.438 8.305 8.305 0 0 0 5.89-2.438 8.21 8.21 0 0 0 1.821-2.789c.242.149.485.29.723.422 1.367.75 2.508 1.125 3.375 1.125.574 0 1.027-.16 1.355-.488 1.504-1.504-.629-5.297-3.258-8.524.567-.25 1.196-.484 1.899-.695a5.431 5.431 0 0 0 3.644-3.656c.504-1.684.16-3.41-.941-4.73zM10.82 14.523c.032.032.063.063.094.09.035.035.074.067.11.102.011.008.019.02.03.027.188.176.372.348.56.516.058.05.113.101.171.152l.012.012c.02.02.043.035.062.055.223.195.442.386.664.574.04.031.079.066.118.097.246.204.488.403.734.594.055.043.11.09.164.133a5.394 5.394 0 0 1-9.027 2.45 5.394 5.394 0 0 1 0-7.622 5.327 5.327 0 0 1 2.453-1.402l.129.164c.191.242.39.488.593.73.032.04.067.078.098.117.188.223.38.446.578.665a.394.394 0 0 0 .051.062l.012.012c.05.058.105.117.156.172.168.187.336.375.512.558l.027.031c.035.04.066.075.102.11l.09.094c.242.254.488.511.742.765s.511.5.765.742zm2.7 6.188c-2.864 2.863-7.528 2.863-10.391 0a7.356 7.356 0 0 1 0-10.395 7.163 7.163 0 0 1 2.629-1.68c.062.094.133.192.199.29.102.148.207.3.316.449.024.031.043.063.063.094a6.323 6.323 0 0 0-2.516 1.543c-2.48 2.48-2.48 6.523 0 9.004a6.353 6.353 0 0 0 4.504 1.863 6.346 6.346 0 0 0 6.047-4.379c.031.023.063.043.09.066.152.11.3.211.453.317.098.066.195.137.29.199a7.224 7.224 0 0 1-1.684 2.629zm7.277-1.734c-.36.359-1.488.34-3.57-.801-.43-.238-.875-.512-1.329-.813a13.598 13.598 0 0 1-.39-.261c-.11-.075-.215-.149-.324-.227-.137-.094-.27-.191-.407-.29l-.406-.308-.059-.047a33.229 33.229 0 0 1-.722-.574c-.059-.047-.121-.094-.18-.144-.23-.188-.457-.387-.687-.582-.055-.051-.11-.094-.164-.145l-.125-.113c-.2-.176-.395-.356-.59-.535-.031-.032-.063-.055-.094-.086-.063-.059-.125-.117-.191-.176-.27-.258-.54-.52-.809-.79-.27-.265-.531-.538-.785-.808-.063-.062-.121-.129-.18-.191a38.327 38.327 0 0 1-.621-.684c-.039-.043-.078-.082-.113-.125l-.14-.164c-.2-.23-.4-.457-.587-.687a3.228 3.228 0 0 1-.144-.18c-.196-.238-.387-.48-.575-.719-.015-.023-.03-.043-.046-.062-.102-.137-.207-.274-.309-.406-.098-.137-.191-.27-.29-.407-.077-.109-.151-.214-.226-.324-.09-.129-.175-.258-.261-.387-.301-.457-.575-.902-.809-1.332C4.52 4.527 4.5 3.402 4.86 3.04c.145-.144.375-.215.68-.215 1.285 0 3.902 1.301 7.05 3.973-.05.09-.097.187-.148.273a5.77 5.77 0 0 1-.363.555l-.012.02c-.117.16-.238.308-.363.44-.004.009-.008.013-.015.02a3.783 3.783 0 0 1-.368.348c-.008.004-.015.012-.023.02a2.79 2.79 0 0 1-.379.254l-.613.328.52.468a38.281 38.281 0 0 1 3.769 3.86l.48.566.332-.66a2.66 2.66 0 0 1 .246-.387c.008-.004.012-.011.02-.02a2.77 2.77 0 0 1 .344-.374c.004-.008.011-.012.015-.02.133-.125.282-.246.442-.367.007-.004.011-.008.02-.012a6.36 6.36 0 0 1 .534-.355c.008-.008.016-.012.024-.016.086-.05.183-.101.273-.148 3.086 3.726 4.196 6.664 3.473 7.387zm2.035-12.461a4.448 4.448 0 0 1-2.984 3c-.72.214-1.512.5-2.27.851l-.008-.012-.343.172-.059.036c-.11.054-.219.117-.328.18-.547.3-1.016.624-1.395.964l-.082.07a4.654 4.654 0 0 0-.449.48 48.335 48.335 0 0 0-1.766-1.89 42.845 42.845 0 0 0-1.207-1.156 3.9 3.9 0 0 0 .473-.45c.031-.027.055-.066.082-.097a7.42 7.42 0 0 0 .918-1.332c.07-.125.14-.246.203-.375.012-.02.024-.035.031-.055l.168-.34-.007-.007c.343-.75.625-1.532.836-2.239a4.468 4.468 0 0 1 3-2.988c1.367-.41 2.757-.133 3.82.754.113.09.219.188.324.293.102.102.2.21.293.32.887 1.063 1.16 2.457.75 3.82zm0 0"/>
    <path d="M18.61 2.46c-.852 0-1.68.411-2.329 1.15a.489.489 0 1 0 .735.648c.937-1.067 2.246-1.067 3.183 0 .098.11.23.164.367.164a.489.489 0 0 0 .367-.813c-.648-.738-1.476-1.148-2.324-1.148zm0 0"/>
</svg>
