<svg xmlns="http://www.w3.org/2000/svg" width="32" height="32" viewBox="0 0 24 24">
    <path d="M 13.433594 13.433594 C 13.964844 12.90625 14.097656 12.128906 13.777344 11.453125 C 13.664062 11.214844 13.65625 10.949219 13.757812 10.707031 C 13.859375 10.464844 14.050781 10.28125 14.300781 10.191406 C 15.003906 9.941406 15.457031 9.296875 15.457031 8.550781 C 15.457031 7.804688 15.003906 7.160156 14.300781 6.910156 C 14.050781 6.820312 13.859375 6.636719 13.757812 6.394531 C 13.65625 6.152344 13.664062 5.886719 13.777344 5.648438 C 14.097656 4.972656 13.964844 4.195312 13.433594 3.667969 C 12.90625 3.140625 12.128906 3.003906 11.453125 3.324219 C 11.214844 3.4375 10.953125 3.445312 10.707031 3.34375 C 10.464844 3.242188 10.28125 3.050781 10.195312 2.804688 C 9.945312 2.097656 9.296875 1.644531 8.550781 1.644531 C 7.804688 1.644531 7.160156 2.097656 6.910156 2.804688 C 6.820312 3.050781 6.640625 3.242188 6.394531 3.34375 C 6.152344 3.445312 5.886719 3.4375 5.648438 3.324219 C 4.972656 3.003906 4.195312 3.140625 3.667969 3.667969 C 3.140625 4.195312 3.007812 4.972656 3.328125 5.648438 C 3.441406 5.886719 3.445312 6.152344 3.347656 6.394531 C 3.246094 6.636719 3.054688 6.820312 2.804688 6.910156 C 2.101562 7.160156 1.644531 7.804688 1.644531 8.550781 C 1.644531 9.296875 2.101562 9.941406 2.804688 10.191406 C 3.054688 10.28125 3.246094 10.464844 3.347656 10.707031 C 3.445312 10.949219 3.441406 11.214844 3.328125 11.453125 C 3.007812 12.128906 3.140625 12.90625 3.667969 13.433594 C 4.195312 13.960938 4.972656 14.097656 5.648438 13.777344 C 5.886719 13.664062 6.152344 13.65625 6.394531 13.757812 C 6.636719 13.859375 6.820312 14.050781 6.910156 14.296875 C 7.160156 15 7.804688 15.457031 8.550781 15.457031 C 9.296875 15.457031 9.941406 15.003906 10.191406 14.296875 C 10.28125 14.050781 10.464844 13.859375 10.707031 13.757812 C 10.953125 13.65625 11.21875 13.664062 11.453125 13.777344 C 12.128906 14.097656 12.90625 13.960938 13.433594 13.433594 Z M 3.078125 9.417969 C 2.628906 9.257812 2.46875 8.863281 2.46875 8.550781 C 2.46875 8.238281 2.628906 7.84375 3.078125 7.683594 C 3.542969 7.519531 3.917969 7.164062 4.105469 6.710938 C 4.292969 6.253906 4.28125 5.738281 4.070312 5.296875 C 3.863281 4.863281 4.027344 4.472656 4.25 4.25 C 4.472656 4.027344 4.859375 3.863281 5.296875 4.070312 C 5.738281 4.28125 6.253906 4.292969 6.710938 4.105469 C 7.164062 3.917969 7.519531 3.542969 7.683594 3.078125 C 7.84375 2.628906 8.238281 2.46875 8.550781 2.46875 C 8.863281 2.46875 9.257812 2.628906 9.417969 3.078125 C 9.582031 3.542969 9.9375 3.917969 10.394531 4.105469 C 10.847656 4.292969 11.363281 4.28125 11.808594 4.070312 C 12.019531 3.96875 12.21875 3.957031 12.398438 3.996094 L 10.503906 5.890625 C 9.214844 4.886719 7.34375 4.976562 6.160156 6.160156 C 4.976562 7.34375 4.886719 9.214844 5.890625 10.503906 L 3.996094 12.398438 C 3.957031 12.21875 3.96875 12.019531 4.070312 11.808594 C 4.28125 11.363281 4.292969 10.847656 4.105469 10.394531 C 3.917969 9.9375 3.542969 9.582031 3.078125 9.417969 Z M 6.742188 6.742188 C 7.226562 6.261719 7.855469 6.019531 8.488281 6.019531 C 9.121094 6.019531 9.753906 6.261719 10.234375 6.742188 C 11.195312 7.703125 11.195312 9.269531 10.234375 10.234375 C 9.273438 11.195312 7.707031 11.195312 6.742188 10.234375 C 5.78125 9.269531 5.78125 7.703125 6.742188 6.742188 Z M 10.394531 12.996094 C 9.9375 13.183594 9.582031 13.558594 9.417969 14.023438 C 9.257812 14.472656 8.867188 14.632812 8.550781 14.632812 C 8.238281 14.632812 7.847656 14.472656 7.6875 14.023438 C 7.519531 13.558594 7.164062 13.183594 6.710938 12.996094 C 6.496094 12.90625 6.269531 12.863281 6.042969 12.863281 C 5.789062 12.863281 5.53125 12.921875 5.296875 13.03125 C 5.003906 13.171875 4.734375 13.140625 4.519531 13.039062 L 6.472656 11.085938 C 7.066406 11.546875 7.777344 11.777344 8.488281 11.777344 C 9.332031 11.777344 10.175781 11.457031 10.816406 10.816406 C 12.003906 9.632812 12.089844 7.761719 11.089844 6.472656 L 13.039062 4.519531 C 13.140625 4.734375 13.171875 5.003906 13.035156 5.292969 C 12.824219 5.738281 12.808594 6.253906 13 6.710938 C 13.1875 7.164062 13.558594 7.519531 14.023438 7.683594 C 14.476562 7.84375 14.636719 8.238281 14.636719 8.550781 C 14.636719 8.863281 14.476562 9.257812 14.023438 9.417969 C 13.5625 9.582031 13.1875 9.9375 13 10.390625 C 12.808594 10.847656 12.824219 11.363281 13.035156 11.808594 C 13.238281 12.238281 13.074219 12.628906 12.855469 12.851562 C 12.632812 13.074219 12.242188 13.238281 11.808594 13.03125 C 11.363281 12.820312 10.847656 12.808594 10.394531 12.996094 Z M 10.394531 12.996094"/>
    <path d="M 23.035156 18.378906 C 22.414062 17.757812 21.589844 17.417969 20.710938 17.417969 C 20.261719 17.417969 19.824219 17.507812 19.425781 17.675781 L 15.308594 13.5625 C 15.605469 12.898438 15.679688 12.15625 15.503906 11.429688 C 15.730469 11.292969 15.933594 11.132812 16.121094 10.945312 C 16.929688 10.136719 17.277344 8.929688 17.019531 7.796875 C 16.820312 6.902344 16.273438 6.148438 15.503906 5.671875 C 15.777344 4.535156 15.445312 3.347656 14.597656 2.503906 C 13.753906 1.660156 12.566406 1.328125 11.429688 1.597656 C 10.957031 0.828125 10.199219 0.285156 9.308594 0.0820312 C 8.175781 -0.171875 6.96875 0.171875 6.15625 0.984375 C 5.972656 1.167969 5.808594 1.375 5.671875 1.597656 C 4.535156 1.328125 3.347656 1.660156 2.503906 2.503906 C 1.660156 3.347656 1.328125 4.535156 1.597656 5.671875 C 1.375 5.808594 1.167969 5.96875 0.984375 6.15625 C 0.171875 6.964844 -0.171875 8.175781 0.0820312 9.304688 C 0.285156 10.199219 0.828125 10.957031 1.597656 11.429688 C 1.328125 12.566406 1.660156 13.753906 2.503906 14.597656 C 3.351562 15.441406 4.535156 15.777344 5.671875 15.503906 C 6.144531 16.273438 6.902344 16.816406 7.796875 17.019531 C 8.042969 17.074219 8.292969 17.101562 8.542969 17.101562 C 9.4375 17.101562 10.3125 16.753906 10.945312 16.121094 C 11.132812 15.933594 11.292969 15.726562 11.433594 15.503906 C 12.15625 15.679688 12.898438 15.605469 13.5625 15.308594 L 17.679688 19.425781 C 17.175781 20.625 17.40625 22.0625 18.382812 23.035156 C 19.003906 23.660156 19.828125 24 20.710938 24 C 21.589844 24 22.414062 23.660156 23.035156 23.035156 C 24.320312 21.753906 24.320312 19.664062 23.035156 18.378906 Z M 11.367188 14.628906 C 11.167969 14.558594 10.949219 14.648438 10.859375 14.839844 C 10.734375 15.101562 10.566406 15.335938 10.363281 15.535156 C 9.753906 16.148438 8.835938 16.410156 7.976562 16.214844 C 7.214844 16.042969 6.585938 15.542969 6.246094 14.839844 C 6.175781 14.691406 6.027344 14.605469 5.875 14.605469 C 5.828125 14.605469 5.78125 14.613281 5.738281 14.628906 C 4.804688 14.957031 3.789062 14.722656 3.085938 14.015625 C 2.382812 13.3125 2.148438 12.296875 2.476562 11.367188 C 2.542969 11.167969 2.453125 10.949219 2.265625 10.859375 C 1.5625 10.519531 1.058594 9.886719 0.886719 9.125 C 0.691406 8.265625 0.953125 7.351562 1.566406 6.738281 C 1.769531 6.535156 2.003906 6.371094 2.265625 6.246094 C 2.453125 6.152344 2.542969 5.9375 2.472656 5.738281 C 2.148438 4.804688 2.382812 3.789062 3.085938 3.085938 C 3.789062 2.382812 4.804688 2.144531 5.738281 2.472656 C 5.933594 2.542969 6.152344 2.453125 6.246094 2.261719 C 6.367188 2.003906 6.535156 1.769531 6.738281 1.566406 C 7.351562 0.953125 8.265625 0.691406 9.125 0.886719 C 9.886719 1.058594 10.519531 1.558594 10.859375 2.265625 C 10.949219 2.453125 11.167969 2.542969 11.367188 2.472656 C 12.296875 2.144531 13.3125 2.382812 14.015625 3.085938 C 14.722656 3.789062 14.953125 4.804688 14.628906 5.738281 C 14.558594 5.933594 14.648438 6.152344 14.835938 6.242188 C 15.542969 6.585938 16.042969 7.214844 16.214844 7.976562 C 16.410156 8.835938 16.148438 9.75 15.539062 10.363281 C 15.335938 10.566406 15.101562 10.730469 14.839844 10.859375 C 14.648438 10.949219 14.558594 11.167969 14.628906 11.363281 C 14.875 12.0625 14.804688 12.804688 14.457031 13.429688 L 14.453125 13.441406 C 14.441406 13.457031 14.429688 13.472656 14.421875 13.488281 C 14.371094 13.578125 14.316406 13.664062 14.253906 13.742188 C 14.183594 13.839844 14.101562 13.929688 14.015625 14.015625 C 13.929688 14.101562 13.839844 14.179688 13.746094 14.253906 C 13.667969 14.308594 13.589844 14.359375 13.511719 14.40625 C 13.488281 14.421875 13.464844 14.4375 13.441406 14.449219 L 13.433594 14.457031 C 12.808594 14.800781 12.0625 14.871094 11.367188 14.628906 Z M 18.109375 18.691406 L 14.292969 14.871094 C 14.398438 14.785156 14.5 14.695312 14.597656 14.597656 C 14.695312 14.5 14.789062 14.398438 14.871094 14.289062 L 18.691406 18.109375 C 18.683594 18.113281 18.679688 18.121094 18.671875 18.125 C 18.574219 18.203125 18.476562 18.285156 18.386719 18.375 C 18.386719 18.375 18.382812 18.378906 18.382812 18.378906 C 18.378906 18.382812 18.375 18.386719 18.375 18.386719 C 18.285156 18.476562 18.203125 18.574219 18.125 18.671875 C 18.121094 18.675781 18.113281 18.683594 18.109375 18.691406 Z M 22.453125 22.453125 C 21.988281 22.921875 21.367188 23.175781 20.710938 23.175781 C 20.050781 23.175781 19.429688 22.921875 18.964844 22.453125 C 18.496094 21.988281 18.242188 21.367188 18.242188 20.707031 C 18.242188 20.308594 18.335938 19.925781 18.515625 19.578125 L 18.539062 19.535156 C 18.589844 19.4375 18.652344 19.347656 18.714844 19.257812 C 18.726562 19.242188 18.738281 19.226562 18.75 19.210938 C 18.816406 19.121094 18.886719 19.039062 18.964844 18.960938 C 19.042969 18.886719 19.125 18.8125 19.214844 18.746094 C 19.226562 18.738281 19.242188 18.726562 19.253906 18.714844 C 19.34375 18.652344 19.4375 18.589844 19.535156 18.535156 L 19.578125 18.511719 C 19.925781 18.335938 20.308594 18.238281 20.710938 18.238281 C 21.367188 18.238281 21.988281 18.496094 22.453125 18.960938 C 23.417969 19.925781 23.417969 21.492188 22.453125 22.453125 Z M 22.453125 22.453125"/>
</svg>
