<svg xmlns="http://www.w3.org/2000/svg" width="32" height="32" viewBox="0 0 24 24">
    <path d="M13.434 13.434a1.72 1.72 0 0 0 .343-1.98.919.919 0 0 1 .523-1.262 1.722 1.722 0 0 0 1.157-1.641c0-.746-.453-1.39-1.156-1.64a.919.919 0 0 1-.524-1.263 1.72 1.72 0 0 0-.343-1.98 1.726 1.726 0 0 0-1.98-.344.904.904 0 0 1-.747.02.905.905 0 0 1-.512-.54 1.725 1.725 0 0 0-1.644-1.16 1.72 1.72 0 0 0-1.64 1.16.911.911 0 0 1-.516.54.904.904 0 0 1-.747-.02 1.726 1.726 0 0 0-1.98.344 1.725 1.725 0 0 0-.34 1.98.92.92 0 0 1-.523 1.262c-.703.25-1.16.895-1.16 1.64 0 .747.457 1.391 1.16 1.641a.919.919 0 0 1 .523 1.262 1.725 1.725 0 0 0 .34 1.98 1.726 1.726 0 0 0 1.98.344.923.923 0 0 1 1.262.52c.25.703.895 1.16 1.64 1.16a1.72 1.72 0 0 0 1.641-1.16.923.923 0 0 1 1.262-.52c.676.32 1.453.184 1.98-.343zM3.078 9.418a.902.902 0 0 1-.61-.867c0-.313.16-.707.61-.867a1.74 1.74 0 0 0 .992-2.387.9.9 0 0 1 .18-1.047.898.898 0 0 1 1.047-.18 1.74 1.74 0 0 0 2.387-.992c.16-.45.554-.61.867-.61.312 0 .707.16.867.61a1.748 1.748 0 0 0 2.39.992.891.891 0 0 1 .59-.074l-1.894 1.895a3.294 3.294 0 0 0-4.344.27 3.294 3.294 0 0 0-.27 4.343l-1.894 1.894a.891.891 0 0 1 .074-.59 1.748 1.748 0 0 0-.992-2.39zm3.664-2.676a2.47 2.47 0 0 1 3.492 0c.961.961.961 2.528 0 3.492-.96.961-2.527.961-3.492 0a2.476 2.476 0 0 1 0-3.492zm3.653 6.254a1.736 1.736 0 0 0-.977 1.027c-.16.45-.55.61-.867.61a.898.898 0 0 1-.864-.61 1.758 1.758 0 0 0-.976-1.027 1.727 1.727 0 0 0-.668-.133c-.254 0-.512.059-.746.168a.875.875 0 0 1-.777.008l1.953-1.953c.593.46 1.304.691 2.015.691.844 0 1.688-.32 2.328-.96a3.294 3.294 0 0 0 .274-4.344l1.95-1.953a.879.879 0 0 1-.005.773 1.742 1.742 0 0 0 .988 2.39.9.9 0 0 1 .614.868.9.9 0 0 1-.614.867 1.745 1.745 0 0 0-.988 2.39c.203.43.04.82-.18 1.044a.9.9 0 0 1-1.046.18 1.748 1.748 0 0 0-1.414-.036zm0 0"/>
    <path d="M23.035 18.379a3.261 3.261 0 0 0-2.324-.961c-.45 0-.887.09-1.285.258l-4.117-4.113a3.299 3.299 0 0 0 .195-2.133c.226-.137.43-.297.617-.485a3.415 3.415 0 0 0 .899-3.148 3.345 3.345 0 0 0-1.516-2.125 3.341 3.341 0 0 0-.906-3.168 3.36 3.36 0 0 0-3.168-.906A3.35 3.35 0 0 0 9.309.082a3.428 3.428 0 0 0-3.153.902c-.183.184-.347.391-.484.614a3.36 3.36 0 0 0-3.168.906 3.36 3.36 0 0 0-.906 3.168 3.19 3.19 0 0 0-.614.484 3.42 3.42 0 0 0-.902 3.149 3.348 3.348 0 0 0 1.516 2.125 3.36 3.36 0 0 0 .906 3.168 3.353 3.353 0 0 0 3.168.906 3.348 3.348 0 0 0 2.871 1.598c.895 0 1.77-.348 2.402-.98.188-.188.348-.395.489-.618a3.29 3.29 0 0 0 2.129-.195l4.117 4.117a3.292 3.292 0 0 0 .703 3.61A3.251 3.251 0 0 0 20.71 24a3.25 3.25 0 0 0 2.324-.965 3.294 3.294 0 0 0 0-4.656zm-11.668-3.75a.409.409 0 0 0-.508.21 2.453 2.453 0 0 1-.496.696 2.585 2.585 0 0 1-2.386.68 2.528 2.528 0 0 1-1.73-1.375.41.41 0 0 0-.509-.211 2.528 2.528 0 0 1-2.652-.613 2.53 2.53 0 0 1-.61-2.649.416.416 0 0 0-.21-.508 2.54 2.54 0 0 1-1.38-1.734 2.588 2.588 0 0 1 .68-2.387c.204-.203.438-.367.7-.492a.412.412 0 0 0 .207-.508 2.544 2.544 0 0 1 .613-2.652 2.536 2.536 0 0 1 2.652-.613c.196.07.414-.02.508-.211.121-.258.29-.492.492-.696a2.588 2.588 0 0 1 2.387-.68 2.53 2.53 0 0 1 1.734 1.38.41.41 0 0 0 .508.207 2.531 2.531 0 0 1 2.649.613c.707.703.937 1.719.613 2.652-.07.196.02.414.207.504a2.537 2.537 0 0 1 1.379 1.735 2.596 2.596 0 0 1-.676 2.386 2.612 2.612 0 0 1-.7.496.405.405 0 0 0-.21.504 2.51 2.51 0 0 1-.172 2.067l-.004.011a.326.326 0 0 0-.031.047c-.05.09-.106.176-.168.254-.07.098-.152.188-.238.274a3.094 3.094 0 0 1-.27.238 3.977 3.977 0 0 1-.234.152c-.024.016-.047.031-.07.043l-.008.008a2.54 2.54 0 0 1-2.067.172zm6.742 4.062l-3.816-3.82a4.01 4.01 0 0 0 .305-.273c.097-.098.191-.2.273-.309l3.82 3.82c-.007.004-.011.012-.02.016-.097.078-.194.16-.284.25l-.004.004-.008.008c-.09.09-.172.187-.25.285-.004.004-.012.012-.016.02zm4.344 3.762a2.437 2.437 0 0 1-1.742.723 2.44 2.44 0 0 1-1.746-.723 2.44 2.44 0 0 1-.723-1.746c0-.398.094-.781.274-1.129l.023-.043c.05-.098.113-.187.176-.277l.035-.047a2.195 2.195 0 0 1 .504-.496c.09-.063.183-.125.281-.18l.043-.023c.348-.176.73-.274 1.133-.274a2.468 2.468 0 0 1 1.742 4.215zm0 0"/>
</svg>
