<svg xmlns="http://www.w3.org/2000/svg" width="32" height="32" viewBox="0 0 24 24">
    <path d="M10.984 2.035a.408.408 0 0 1-.816 0c0-.226.184-.406.41-.406.223 0 .406.18.406.406zm0 0M13.832 2.035a.408.408 0 0 1-.816 0c0-.226.183-.406.406-.406.226 0 .41.18.41.406zm0 0M9.762 9.762a2.036 2.036 0 0 0 0 4.07 2.039 2.039 0 0 0 2.035-2.035 2.039 2.039 0 0 0-2.035-2.035zm0 3.254a1.22 1.22 0 0 1-1.219-1.22 1.22 1.22 0 0 1 2.441 0c0 .673-.55 1.22-1.222 1.22zm0 0M15.863 13.016h-2.847a.408.408 0 0 0 0 .816h2.847a.407.407 0 0 0 .407-.41.406.406 0 0 0-.407-.406zm0 0M15.863 11.39h-2.441a.406.406 0 1 0 0 .813h2.441a.406.406 0 1 0 0-.812zm0 0M15.863 9.762h-2.441a.408.408 0 0 0 0 .816h2.441a.407.407 0 0 0 .407-.41.406.406 0 0 0-.407-.406zm0 0"/>
    <path d="M22.777 16.602c-.027-4.051-2.035-6.622-5.285-6.82V8.757a1.03 1.03 0 0 0-1.031-1.028h-1.816V6.508h1.218v-.926l1.223-.406v-1.11h1.277c.18.7.813 1.223 1.57 1.223a1.626 1.626 0 1 0 0-3.254c-.757 0-1.39.52-1.57 1.219h-1.277V2.148l-1.223-.406v-.27C15.863.66 15.203 0 14.391 0H9.609c-.812 0-1.472.66-1.472 1.473v.27l-1.223.405v1.106H5.637a1.622 1.622 0 0 0-3.196.406c0 .899.73 1.63 1.625 1.63.758 0 1.391-.524 1.57-1.224h1.278v1.11l1.223.406v.926h1.218V7.73H7.54c-.57 0-1.031.461-1.031 1.028V9.78c-3.25.2-5.258 2.77-5.285 6.82A2.433 2.433 0 0 0 0 18.712c0 .777.355 1.488.977 1.953a.403.403 0 0 0 .57-.082.405.405 0 0 0-.082-.566 1.619 1.619 0 0 1-.653-1.305 1.626 1.626 0 1 1 2.605 1.3.406.406 0 1 0 .49.653 2.416 2.416 0 0 0 .976-1.953c0-.898-.492-1.688-1.219-2.11.012-1.913.535-4.14 2.844-4.374v3.015c0 .492.351.906.812 1.004v.84h-.812a.406.406 0 0 0-.406.406v2.035c0 .223.183.407.406.407h.812v1.218h-.465c-.64 0-1.16.52-1.16 1.16v.528c0 .64.52 1.16 1.16 1.16h4.13v-7.73h2.03V24h4.13c.64 0 1.16-.52 1.16-1.16v-.527c0-.641-.52-1.16-1.16-1.16h-.465v-1.22h.812a.408.408 0 0 0 .406-.406v-2.035a.406.406 0 0 0-.406-.406h-.812v-.84a1.03 1.03 0 0 0 .812-1.004v-3.015c2.309.234 2.832 2.46 2.844 4.375a2.443 2.443 0 0 0-1.219 2.109c0 .777.356 1.488.977 1.953a.406.406 0 0 0 .488-.648 1.62 1.62 0 0 1-.648-1.305 1.626 1.626 0 0 1 3.253 0c0 .52-.238.992-.652 1.305a.405.405 0 0 0 .242.73.414.414 0 0 0 .246-.082A2.416 2.416 0 0 0 24 18.711c0-.902-.492-1.688-1.223-2.11zM19.934 2.848a.812.812 0 1 1 0 1.625.815.815 0 0 1-.817-.813c0-.45.367-.812.817-.812zM4.066 4.473a.812.812 0 1 1 0-1.625c.45 0 .817.363.817.812 0 .45-.367.813-.817.813zM16.27 2.734V4.59l-.407.133V2.598zM7.73 4.59V2.734l.407-.136v2.125zm1.22 1.105V1.473c0-.364.296-.66.66-.66h4.78c.364 0 .66.296.66.66v4.222zm1.218.813h3.664V7.73h-3.664zM2.855 16.27h-.812c.11-2.711 1.332-5.461 4.465-5.68v.816c-2.23.188-3.543 1.93-3.653 4.864zm4.06 2.847v-1.219h1.628v1.22zm3.253 4.07H6.855a.348.348 0 0 1-.347-.347v-.527c0-.192.156-.348.347-.348h3.313zm0-2.035H8.137v-1.218h1.218v-2.848H8.137v-.816h2.031zm6.977.813c.19 0 .347.156.347.348v.527a.348.348 0 0 1-.347.348h-3.313v-1.223zm-.06-4.067v1.22h-1.628v-1.22zm-2.034-.812h-.406v2.848h1.218v1.218h-2.031V16.27h2.031v.816zm1.629-1.844a.218.218 0 0 1-.22.215H7.54a.218.218 0 0 1-.22-.215V8.758c0-.117.098-.215.22-.215h8.92c.122 0 .22.098.22.215zm4.465 1.028c-.11-2.934-1.422-4.676-3.653-4.864v-.816c3.133.219 4.356 2.969 4.465 5.68zm0 0"/>
    <path d="M13.422 3.254a.408.408 0 0 0-.406.406c0 .602-.524.813-1.016.813s-1.016-.211-1.016-.813a.408.408 0 0 0-.816 0c0 .957.754 1.63 1.832 1.63s1.832-.673 1.832-1.63a.41.41 0 0 0-.41-.406zm0 0"/>
</svg>
