<svg xmlns="http://www.w3.org/2000/svg" width="32" height="32" viewBox="0 0 24 24">
    <path d="M22.566 15.625L9.95 3.008 8.371 1.434A4.862 4.862 0 0 0 4.902 0a4.855 4.855 0 0 0-3.468 1.434A4.855 4.855 0 0 0 0 4.902c0 1.313.508 2.547 1.434 3.47l2.035 2.034 12.156 12.16A4.908 4.908 0 0 0 19.094 24a4.91 4.91 0 0 0 3.472-1.434 4.92 4.92 0 0 0 0-6.941zM.891 4.902c0-1.078.418-2.086 1.171-2.84A3.988 3.988 0 0 1 4.902.891c1.075 0 2.082.418 2.836 1.171L9.465 3.79c-.45 2.082-2.113 2.48-2.63 2.55a.598.598 0 0 0-.5.481c-.39 2.086-1.983 2.555-2.538 2.657L2.062 7.738A3.985 3.985 0 0 1 .891 4.902zm3.64 5.305c1-.348 2.23-1.219 2.64-3.02.68-.144 2.349-.69 3.016-2.675l9.758 9.758a4.896 4.896 0 0 0-4.32 1.355 4.907 4.907 0 0 0-1.355 4.32zm17.403 11.727a4.015 4.015 0 0 1-5.676 0 4.015 4.015 0 0 1 2.836-6.852 4.015 4.015 0 0 1 2.84 6.852zm0 0"/>
    <path d="M21.305 16.887a3.105 3.105 0 0 0-2.211-.914 3.12 3.12 0 0 0-3.121 3.121c0 .836.328 1.62.914 2.21.61.606 1.41.91 2.207.91.8 0 1.601-.304 2.21-.91.587-.59.91-1.374.91-2.21 0-.832-.323-1.617-.91-2.207zm-.633 3.785a2.228 2.228 0 0 1-3.805-1.578c0-.594.23-1.157.653-1.574.418-.422.98-.653 1.574-.653.597 0 1.16.23 1.578.653.422.418.652.98.652 1.574 0 .597-.23 1.16-.652 1.578zm0 0M5.848 5.848a2.228 2.228 0 1 0-3.152 0 2.23 2.23 0 0 0 3.152 0zM3.324 3.324c.262-.261.606-.39.946-.39a1.336 1.336 0 0 1 .949 2.285 1.34 1.34 0 1 1-1.895-1.895zm0 0"/>
</svg>
