<svg xmlns="http://www.w3.org/2000/svg" width="32" height="32" viewBox="0 0 24 24">
    <path d="M22.398 2.824c-.109 0-.21.043-.28.117l-2.946 2.946c-.035-.059-.067-.121-.106-.184l-.035-.058-5.43-4.47V8.66l-2.753 2.848-1.364-1.367a.4.4 0 0 0-.566.566l1.375 1.375-3.094 3.195-3.597 1.262v.117l-1.766 1.766H.8v.8h1.363l1.438-1.433v.281a2.79 2.79 0 0 0 .043 3.953H0v.801h23.602v-.8h-1.344a3.595 3.595 0 0 0 1.344-2.801A3.604 3.604 0 0 0 20 15.625c-.848 0-1.629.297-2.246.79L16.32 14.98l.14-.074A6.543 6.543 0 0 0 20 9.078c0-.832-.16-1.656-.465-2.422l3.016-3.02a.807.807 0 0 1 .648.786.401.401 0 0 0 .8 0c.001-.879-.718-1.598-1.6-1.598zm-18 14.281l3.247-1.136 6.753-6.985V2.871l4.016 3.3c.059.102.113.204.168.306L7.434 17.625H4.398zm9.204 1.72a.401.401 0 0 0-.403.398h-.8a.398.398 0 1 0-.797 0H10.8a.401.401 0 0 0-.801 0h-.398v-.399a.401.401 0 0 0 .37-.543l1.712-.89a.38.38 0 0 0-.082.234.398.398 0 1 0 .796 0 .4.4 0 0 0-.394-.402l.437-.227a.4.4 0 0 0 .36.227.4.4 0 0 0 .398-.399.39.39 0 0 0-.054-.191l.414-.219c.015.004.027.008.043.008a.4.4 0 0 0 .343-.207l1.254-.652v.062a.398.398 0 1 0 0 .797v.8a.401.401 0 0 0 0 .801v.801a.4.4 0 0 0-.398.399H14a.4.4 0 0 0-.398-.399zm-4.098-1.2h-.938l4.633-4.637 1.785 1.785zm-5.902 2.398a2 2 0 0 1 .8-1.601h2.23l-1.316 1.32.567.563 1.387-1.383c.21.32.332.703.332 1.101 0 1.102-.899 2-2 2-1.106 0-2-.898-2-2zm3.953 2c.52-.507.843-1.214.843-2 0-.582-.18-1.136-.5-1.601h.903v1.601H16V15.79l1.191 1.191a3.555 3.555 0 0 0-.793 2.243c0 1.132.528 2.14 1.344 2.8zM20 16.422c1.543 0 2.8 1.258 2.8 2.8 0 1.544-1.257 2.801-2.8 2.801a2.806 2.806 0 0 1-2.8-2.8c0-.63.21-1.203.562-1.672l1.957 1.957.562-.567-1.953-1.957A2.762 2.762 0 0 1 20 16.422zm-.8-7.344a5.748 5.748 0 0 1-3.11 5.117l-.363.192-1.961-1.965 5.144-5.145c.192.578.29 1.188.29 1.801zm0 0"/>
    <path d="M14.8 18.422a.401.401 0 1 1 0 0zm0 0M11.602 18.422a.401.401 0 1 1 0 0zm0 0M14 17.625a.4.4 0 1 1-.8-.003.4.4 0 0 1 .8.003zm0 0M14.8 16.824A.401.401 0 1 1 14 16.82a.401.401 0 0 1 .802.005zm0 0M13.2 18.422a.401.401 0 1 1-.803.003.401.401 0 0 1 .802-.003zm0 0"/>
</svg>
