<svg xmlns="http://www.w3.org/2000/svg" width="32" height="32" viewBox="0 0 24 24">
    <path d="M 22.398438 2.824219 C 22.289062 2.824219 22.1875 2.867188 22.117188 2.941406 L 19.171875 5.886719 C 19.136719 5.828125 19.105469 5.765625 19.066406 5.703125 L 19.03125 5.644531 L 13.601562 1.175781 L 13.601562 8.660156 L 10.847656 11.507812 L 9.484375 10.140625 C 9.328125 9.984375 9.074219 9.984375 8.917969 10.140625 C 8.761719 10.296875 8.761719 10.550781 8.917969 10.707031 L 10.292969 12.082031 L 7.199219 15.277344 L 3.601562 16.539062 L 3.601562 16.65625 L 1.835938 18.421875 L 0.800781 18.421875 L 0.800781 19.222656 L 2.164062 19.222656 L 3.601562 17.789062 L 3.601562 18.070312 C 3.09375 18.589844 2.800781 19.285156 2.800781 20.023438 C 2.800781 20.808594 3.125 21.515625 3.644531 22.023438 L 0 22.023438 L 0 22.824219 L 23.601562 22.824219 L 23.601562 22.023438 L 22.257812 22.023438 C 23.074219 21.363281 23.601562 20.355469 23.601562 19.222656 C 23.601562 17.238281 21.984375 15.625 20 15.625 C 19.152344 15.625 18.371094 15.921875 17.753906 16.414062 L 16.320312 14.980469 L 16.460938 14.90625 C 18.644531 13.773438 20 11.539062 20 9.078125 C 20 8.246094 19.839844 7.421875 19.535156 6.65625 L 22.550781 3.636719 C 22.917969 3.710938 23.199219 4.035156 23.199219 4.421875 C 23.199219 4.644531 23.378906 4.824219 23.601562 4.824219 C 23.820312 4.824219 24 4.644531 24 4.421875 C 24 3.542969 23.28125 2.824219 22.398438 2.824219 Z M 4.398438 17.105469 L 7.644531 15.96875 L 14.398438 8.984375 L 14.398438 2.871094 L 18.414062 6.171875 C 18.472656 6.273438 18.527344 6.375 18.582031 6.476562 L 7.433594 17.625 L 4.398438 17.625 Z M 13.601562 18.824219 C 13.378906 18.824219 13.199219 19.003906 13.199219 19.222656 L 12.398438 19.222656 C 12.398438 19.003906 12.222656 18.824219 12 18.824219 C 11.777344 18.824219 11.601562 19.003906 11.601562 19.222656 L 10.800781 19.222656 C 10.800781 19.003906 10.621094 18.824219 10.398438 18.824219 C 10.179688 18.824219 10 19.003906 10 19.222656 L 9.601562 19.222656 L 9.601562 18.824219 C 9.820312 18.824219 10 18.644531 10 18.421875 C 10 18.375 9.988281 18.324219 9.972656 18.28125 L 11.683594 17.390625 C 11.632812 17.457031 11.601562 17.535156 11.601562 17.625 C 11.601562 17.84375 11.777344 18.023438 12 18.023438 C 12.222656 18.023438 12.398438 17.84375 12.398438 17.625 C 12.398438 17.402344 12.222656 17.226562 12.003906 17.222656 L 12.441406 16.996094 C 12.507812 17.128906 12.640625 17.222656 12.800781 17.222656 C 13.019531 17.222656 13.199219 17.042969 13.199219 16.824219 C 13.199219 16.753906 13.175781 16.6875 13.144531 16.632812 L 13.558594 16.414062 C 13.574219 16.417969 13.585938 16.421875 13.601562 16.421875 C 13.75 16.421875 13.875 16.335938 13.945312 16.214844 L 15.199219 15.5625 L 15.199219 15.625 C 14.980469 15.625 14.800781 15.800781 14.800781 16.023438 C 14.800781 16.242188 14.980469 16.421875 15.199219 16.421875 L 15.199219 17.222656 C 14.980469 17.222656 14.800781 17.402344 14.800781 17.625 C 14.800781 17.84375 14.980469 18.023438 15.199219 18.023438 L 15.199219 18.824219 C 14.980469 18.824219 14.800781 19.003906 14.800781 19.222656 L 14 19.222656 C 14 19.003906 13.820312 18.824219 13.601562 18.824219 Z M 9.503906 17.625 L 8.566406 17.625 L 13.199219 12.988281 L 14.984375 14.773438 Z M 3.601562 20.023438 C 3.601562 19.390625 3.898438 18.800781 4.402344 18.421875 L 6.632812 18.421875 L 5.316406 19.742188 L 5.882812 20.304688 L 7.269531 18.921875 C 7.480469 19.242188 7.601562 19.625 7.601562 20.023438 C 7.601562 21.125 6.703125 22.023438 5.601562 22.023438 C 4.496094 22.023438 3.601562 21.125 3.601562 20.023438 Z M 7.554688 22.023438 C 8.074219 21.515625 8.398438 20.808594 8.398438 20.023438 C 8.398438 19.441406 8.21875 18.886719 7.898438 18.421875 L 8.800781 18.421875 L 8.800781 20.023438 L 16 20.023438 L 16 15.789062 L 17.191406 16.980469 C 16.695312 17.59375 16.398438 18.375 16.398438 19.222656 C 16.398438 20.355469 16.925781 21.363281 17.742188 22.023438 Z M 20 16.421875 C 21.542969 16.421875 22.800781 17.679688 22.800781 19.222656 C 22.800781 20.765625 21.542969 22.023438 20 22.023438 C 18.457031 22.023438 17.199219 20.765625 17.199219 19.222656 C 17.199219 18.59375 17.410156 18.019531 17.761719 17.550781 L 19.71875 19.507812 L 20.28125 18.941406 L 18.328125 16.984375 C 18.792969 16.632812 19.371094 16.421875 20 16.421875 Z M 19.199219 9.078125 C 19.199219 11.238281 18.007812 13.199219 16.089844 14.195312 L 15.726562 14.386719 L 13.765625 12.421875 L 18.910156 7.277344 C 19.101562 7.855469 19.199219 8.464844 19.199219 9.078125 Z M 19.199219 9.078125"/>
    <path d="M14.800781 18.421875C14.800781 18.644531 14.621094 18.824219 14.398438 18.824219 14.179688 18.824219 14 18.644531 14 18.421875 14 18.203125 14.179688 18.023438 14.398438 18.023438 14.621094 18.023438 14.800781 18.203125 14.800781 18.421875zM11.601562 18.421875C11.601562 18.644531 11.421875 18.824219 11.199219 18.824219 10.980469 18.824219 10.800781 18.644531 10.800781 18.421875 10.800781 18.203125 10.980469 18.023438 11.199219 18.023438 11.421875 18.023438 11.601562 18.203125 11.601562 18.421875zM14 17.625C14 17.84375 13.820312 18.023438 13.601562 18.023438 13.378906 18.023438 13.199219 17.84375 13.199219 17.625 13.199219 17.402344 13.378906 17.222656 13.601562 17.222656 13.820312 17.222656 14 17.402344 14 17.625zM14.800781 16.824219C14.800781 17.042969 14.621094 17.222656 14.398438 17.222656 14.179688 17.222656 14 17.042969 14 16.824219 14 16.601562 14.179688 16.421875 14.398438 16.421875 14.621094 16.421875 14.800781 16.601562 14.800781 16.824219zM13.199219 18.421875C13.199219 18.644531 13.019531 18.824219 12.800781 18.824219 12.578125 18.824219 12.398438 18.644531 12.398438 18.421875 12.398438 18.203125 12.578125 18.023438 12.800781 18.023438 13.019531 18.023438 13.199219 18.203125 13.199219 18.421875zM13.199219 18.421875"/>
</svg>
