<svg xmlns="http://www.w3.org/2000/svg" width="32" height="32" viewBox="0 0 24 24">
    <path d="M5.871094 17.363281C5.871094 17.6875 5.609375 17.949219 5.285156 17.949219 4.964844 17.949219 4.703125 17.6875 4.703125 17.363281 4.703125 17.042969 4.964844 16.78125 5.285156 16.78125 5.609375 16.78125 5.871094 17.042969 5.871094 17.363281zM19.273438 17.363281C19.273438 17.6875 19.011719 17.949219 18.691406 17.949219 18.367188 17.949219 18.105469 17.6875 18.105469 17.363281 18.105469 17.042969 18.367188 16.78125 18.691406 16.78125 19.011719 16.78125 19.273438 17.042969 19.273438 17.363281zM19.273438 17.363281"/>
    <path d="M 23.59375 5.066406 C 21.8125 5.066406 20.363281 6.929688 20.363281 9.21875 C 20.363281 9.382812 20.464844 9.527344 20.609375 9.589844 L 12.589844 9.589844 C 12.589844 9.367188 12.410156 9.183594 12.183594 9.183594 C 11.066406 9.183594 10.15625 8.273438 10.15625 7.152344 L 10.15625 2.226562 C 10.15625 2 9.972656 1.820312 9.75 1.820312 C 8.617188 1.820312 6.273438 1.820312 4.296875 2.984375 L 3.425781 2.183594 C 3.261719 2.03125 3.003906 2.042969 2.855469 2.207031 C 2.703125 2.371094 2.714844 2.628906 2.878906 2.78125 L 3.609375 3.453125 C 3.074219 3.867188 2.589844 4.394531 2.1875 5.050781 L 1.375 4.714844 C 1.167969 4.628906 0.929688 4.726562 0.84375 4.933594 C 0.757812 5.140625 0.855469 5.378906 1.0625 5.464844 L 1.800781 5.769531 C 1.511719 6.402344 1.289062 7.140625 1.15625 7.992188 L 0.421875 7.964844 C 0.203125 7.964844 0.0078125 8.132812 0 8.359375 C -0.0078125 8.582031 0.167969 8.769531 0.390625 8.777344 L 1.0625 8.800781 C 1.035156 9.148438 1.015625 9.511719 1.015625 9.894531 C 1.015625 10.152344 1.015625 10.609375 1.09375 11.171875 L 0.453125 11.386719 C 0.242188 11.457031 0.125 11.6875 0.195312 11.898438 C 0.253906 12.070312 0.414062 12.175781 0.582031 12.175781 C 0.625 12.175781 0.667969 12.167969 0.710938 12.15625 L 1.25 11.976562 C 1.410156 12.597656 1.683594 13.277344 2.136719 13.925781 C 1.21875 14.777344 0.640625 15.992188 0.640625 17.339844 C 0.640625 19.789062 2.539062 21.804688 4.945312 21.992188 C 5.015625 22.105469 5.136719 22.183594 5.28125 22.183594 C 5.421875 22.183594 5.539062 22.105469 5.613281 21.996094 C 7.785156 21.855469 9.554688 20.230469 9.910156 18.121094 C 10.398438 18.140625 10.886719 18.152344 11.363281 18.152344 C 12.277344 18.152344 13.199219 18.117188 14.105469 18.046875 C 14.429688 20.167969 16.179688 21.820312 18.347656 21.992188 C 18.421875 22.105469 18.539062 22.183594 18.683594 22.183594 C 18.824219 22.183594 18.945312 22.105469 19.015625 21.996094 C 21.453125 21.839844 23.386719 19.8125 23.386719 17.339844 C 23.386719 15.851562 22.683594 14.527344 21.597656 13.671875 C 22.488281 12.429688 22.488281 10.902344 22.488281 10.199219 C 22.488281 10.019531 22.488281 9.589844 22.074219 9.589844 L 20.929688 9.589844 C 21.074219 9.527344 21.175781 9.386719 21.175781 9.21875 C 21.175781 7.378906 22.261719 5.882812 23.59375 5.882812 C 23.816406 5.882812 24 5.699219 24 5.476562 C 24 5.25 23.816406 5.066406 23.59375 5.066406 Z M 18.273438 10.402344 C 18.152344 10.71875 17.851562 10.941406 17.492188 10.941406 C 17.136719 10.941406 16.832031 10.71875 16.710938 10.402344 Z M 15.433594 10.402344 C 15.308594 10.71875 15.007812 10.941406 14.648438 10.941406 C 14.292969 10.941406 13.988281 10.71875 13.867188 10.402344 Z M 11.785156 9.964844 C 11.785156 9.976562 11.777344 9.984375 11.777344 9.996094 C 11.777344 10.21875 11.960938 10.402344 12.183594 10.402344 L 12.589844 10.402344 C 12.46875 10.71875 12.164062 10.941406 11.804688 10.941406 C 11.480469 10.941406 10.785156 10.9375 10.597656 9.511719 C 10.945312 9.746094 11.351562 9.902344 11.785156 9.964844 Z M 9.34375 2.632812 L 9.34375 7.558594 C 9.34375 7.582031 9.351562 7.605469 9.355469 7.628906 L 4.914062 3.550781 C 6.234375 2.859375 7.820312 2.660156 9.34375 2.632812 Z M 4.199219 3.996094 L 7.957031 7.445312 L 2.925781 5.355469 C 3.285156 4.800781 3.714844 4.351562 4.199219 3.996094 Z M 2.535156 6.074219 L 7.710938 8.222656 L 1.96875 8.019531 C 2.089844 7.277344 2.28125 6.628906 2.535156 6.074219 Z M 1.828125 9.894531 C 1.828125 9.519531 1.84375 9.167969 1.871094 8.828125 L 7.492188 9.027344 L 1.878906 10.90625 C 1.828125 10.46875 1.828125 10.105469 1.828125 9.894531 Z M 8.304688 19.769531 C 8.292969 19.757812 8.289062 19.742188 8.277344 19.726562 L 7.117188 18.566406 C 6.957031 18.410156 6.699219 18.410156 6.542969 18.566406 C 6.382812 18.726562 6.382812 18.984375 6.542969 19.140625 L 7.703125 20.300781 C 7.714844 20.316406 7.730469 20.320312 7.742188 20.332031 C 7.171875 20.796875 6.460938 21.101562 5.6875 21.179688 L 5.6875 19.746094 C 5.6875 19.519531 5.503906 19.339844 5.28125 19.339844 C 5.054688 19.339844 4.875 19.519531 4.875 19.746094 L 4.875 21.171875 C 4.109375 21.082031 3.414062 20.773438 2.851562 20.308594 C 2.851562 20.304688 2.855469 20.304688 2.859375 20.300781 L 4.019531 19.140625 C 4.179688 18.984375 4.179688 18.726562 4.019531 18.566406 C 3.863281 18.410156 3.605469 18.410156 3.445312 18.566406 L 2.285156 19.726562 C 1.921875 19.261719 1.65625 18.71875 1.535156 18.121094 L 3.25 18.121094 C 3.472656 18.121094 3.65625 17.9375 3.65625 17.714844 C 3.65625 17.488281 3.472656 17.308594 3.25 17.308594 L 1.453125 17.308594 C 1.460938 16.402344 1.78125 15.570312 2.3125 14.914062 L 3.445312 16.046875 C 3.527344 16.125 3.628906 16.167969 3.734375 16.167969 C 3.835938 16.167969 3.941406 16.125 4.019531 16.046875 C 4.179688 15.886719 4.179688 15.632812 4.019531 15.472656 L 2.992188 14.445312 C 3.015625 14.433594 3.035156 14.425781 3.054688 14.410156 C 3.140625 14.332031 3.1875 14.226562 3.191406 14.117188 C 3.691406 13.785156 4.277344 13.566406 4.90625 13.503906 C 4.886719 13.546875 4.875 13.597656 4.875 13.652344 L 4.875 15.683594 C 4.875 15.90625 5.054688 16.089844 5.28125 16.089844 C 5.503906 16.089844 5.6875 15.90625 5.6875 15.683594 L 5.6875 13.652344 C 5.6875 13.597656 5.675781 13.546875 5.65625 13.496094 C 6.421875 13.566406 7.125 13.859375 7.699219 14.3125 L 6.539062 15.472656 C 6.382812 15.632812 6.382812 15.886719 6.539062 16.046875 C 6.617188 16.125 6.722656 16.167969 6.828125 16.167969 C 6.929688 16.167969 7.035156 16.125 7.113281 16.046875 L 8.273438 14.886719 C 8.277344 14.882812 8.277344 14.878906 8.28125 14.878906 C 8.828125 15.539062 9.160156 16.386719 9.167969 17.308594 L 7.3125 17.308594 C 7.085938 17.308594 6.90625 17.488281 6.90625 17.714844 C 6.90625 17.9375 7.085938 18.121094 7.3125 18.121094 L 9.089844 18.121094 C 8.964844 18.738281 8.6875 19.300781 8.304688 19.769531 Z M 22.574219 17.308594 L 20.714844 17.308594 C 20.492188 17.308594 20.308594 17.488281 20.308594 17.714844 C 20.308594 17.9375 20.492188 18.121094 20.714844 18.121094 L 22.496094 18.121094 C 22.367188 18.738281 22.089844 19.300781 21.707031 19.769531 C 21.699219 19.757812 21.691406 19.742188 21.679688 19.726562 L 20.519531 18.566406 C 20.359375 18.410156 20.105469 18.410156 19.945312 18.566406 C 19.785156 18.726562 19.785156 18.984375 19.945312 19.140625 L 21.105469 20.300781 C 21.117188 20.316406 21.132812 20.320312 21.148438 20.332031 C 20.574219 20.796875 19.867188 21.101562 19.089844 21.179688 L 19.089844 19.746094 C 19.089844 19.519531 18.910156 19.339844 18.683594 19.339844 C 18.460938 19.339844 18.277344 19.519531 18.277344 19.746094 L 18.277344 21.171875 C 17.515625 21.082031 16.816406 20.773438 16.253906 20.308594 C 16.257812 20.304688 16.261719 20.304688 16.261719 20.300781 L 17.421875 19.140625 C 17.582031 18.984375 17.582031 18.726562 17.425781 18.566406 C 17.265625 18.410156 17.007812 18.410156 16.851562 18.566406 L 15.691406 19.726562 C 15.324219 19.261719 15.058594 18.71875 14.9375 18.121094 L 16.652344 18.121094 C 16.878906 18.121094 17.058594 17.9375 17.058594 17.714844 C 17.058594 17.488281 16.878906 17.308594 16.652344 17.308594 L 14.859375 17.308594 C 14.867188 16.402344 15.1875 15.570312 15.71875 14.914062 L 16.851562 16.046875 C 16.929688 16.125 17.035156 16.167969 17.136719 16.167969 C 17.242188 16.167969 17.34375 16.125 17.425781 16.046875 C 17.582031 15.886719 17.582031 15.632812 17.425781 15.472656 L 16.292969 14.339844 C 16.855469 13.882812 17.550781 13.582031 18.308594 13.503906 C 18.289062 13.546875 18.277344 13.597656 18.277344 13.652344 L 18.277344 15.683594 C 18.277344 15.90625 18.460938 16.089844 18.683594 16.089844 C 18.910156 16.089844 19.089844 15.90625 19.089844 15.683594 L 19.089844 13.652344 C 19.089844 13.597656 19.078125 13.546875 19.058594 13.496094 C 19.574219 13.542969 20.0625 13.691406 20.5 13.921875 C 20.507812 14.007812 20.542969 14.09375 20.609375 14.164062 C 20.6875 14.242188 20.792969 14.28125 20.898438 14.28125 C 20.941406 14.28125 20.984375 14.269531 21.027344 14.257812 C 21.054688 14.273438 21.078125 14.292969 21.101562 14.3125 L 19.945312 15.472656 C 19.785156 15.632812 19.785156 15.886719 19.945312 16.046875 C 20.023438 16.125 20.125 16.164062 20.230469 16.164062 C 20.335938 16.164062 20.4375 16.125 20.519531 16.046875 L 21.679688 14.886719 C 21.679688 14.882812 21.679688 14.878906 21.683594 14.878906 C 22.234375 15.539062 22.566406 16.382812 22.574219 17.308594 Z M 18.714844 12.667969 C 16.175781 12.667969 14.105469 14.707031 14.050781 17.238281 C 12.714844 17.339844 11.363281 17.363281 9.980469 17.3125 C 9.964844 14.746094 7.878906 12.667969 5.3125 12.667969 C 4.378906 12.667969 3.507812 12.945312 2.777344 13.421875 C 2.390625 12.859375 2.160156 12.261719 2.027344 11.714844 L 9.75 9.128906 C 9.84375 10.871094 10.535156 11.753906 11.808594 11.753906 C 12.414062 11.753906 12.941406 11.421875 13.226562 10.929688 C 13.515625 11.421875 14.042969 11.753906 14.648438 11.753906 C 15.257812 11.753906 15.785156 11.421875 16.070312 10.929688 C 16.359375 11.421875 16.882812 11.753906 17.492188 11.753906 C 18.101562 11.753906 18.628906 11.421875 18.914062 10.929688 C 19.203125 11.421875 19.726562 11.753906 20.335938 11.753906 C 20.871094 11.753906 21.339844 11.496094 21.640625 11.105469 C 21.578125 11.753906 21.40625 12.554688 20.921875 13.222656 C 20.261719 12.867188 19.511719 12.667969 18.714844 12.667969 Z M 19.554688 10.402344 L 21.117188 10.402344 C 20.996094 10.71875 20.695312 10.941406 20.335938 10.941406 C 19.980469 10.941406 19.675781 10.71875 19.554688 10.402344 Z M 19.554688 10.402344"/>
</svg>
