<svg xmlns="http://www.w3.org/2000/svg" width="32" height="32" viewBox="0 0 24 24">
    <path d="M5.871 17.363a.585.585 0 1 1-1.168 0 .583.583 0 0 1 1.168 0zm0 0M19.273 17.363a.584.584 0 1 1-1.168.004.584.584 0 0 1 1.168-.004zm0 0"/>
    <path d="M23.594 5.066c-1.782 0-3.23 1.864-3.23 4.153 0 .164.1.308.245.37h-8.02a.406.406 0 0 0-.405-.405 2.031 2.031 0 0 1-2.028-2.032V2.227a.406.406 0 0 0-.406-.407c-1.133 0-3.477 0-5.453 1.164l-.871-.8a.402.402 0 0 0-.57.023.407.407 0 0 0 .023.574l.73.672a5.902 5.902 0 0 0-1.421 1.598l-.813-.336a.407.407 0 0 0-.313.75l.739.305a8.476 8.476 0 0 0-.645 2.222l-.734-.027A.417.417 0 0 0 0 8.359a.405.405 0 0 0 .39.418l.672.024c-.027.347-.046.71-.046 1.094 0 .257 0 .714.078 1.277l-.64.215c-.212.07-.329.3-.259.511a.41.41 0 0 0 .516.258l.539-.18c.16.622.434 1.301.887 1.95A4.647 4.647 0 0 0 .64 17.34a4.674 4.674 0 0 0 4.304 4.652c.07.113.192.192.336.192.14 0 .258-.079.332-.188a4.669 4.669 0 0 0 4.297-3.875 35.588 35.588 0 0 0 4.195-.074 4.673 4.673 0 0 0 4.243 3.945.399.399 0 0 0 .336.192c.14 0 .261-.079.332-.188a4.674 4.674 0 0 0 4.37-4.656 4.663 4.663 0 0 0-1.788-3.668c.89-1.242.89-2.77.89-3.473 0-.18 0-.61-.414-.61H20.93a.403.403 0 0 0 .246-.37c0-1.84 1.086-3.336 2.418-3.336a.408.408 0 0 0 0-.817zm-5.32 5.336a.837.837 0 0 1-1.563 0zm-2.84 0a.837.837 0 1 1-1.566 0zm-3.649-.437c0 .012-.008.02-.008.031 0 .223.184.406.407.406h.406a.838.838 0 0 1-.785.54c-.325 0-1.02-.005-1.207-1.43.347.234.754.39 1.187.453zM9.344 2.633v4.926c0 .023.008.046.011.07L4.915 3.55c1.32-.692 2.905-.89 4.429-.918zM4.199 3.996l3.758 3.45-5.031-2.09c.36-.555.789-1.004 1.273-1.36zM2.535 6.074l5.176 2.149-5.742-.203c.12-.743.312-1.391.566-1.946zm-.707 3.82c0-.374.016-.726.043-1.066l5.621.2-5.613 1.878c-.05-.437-.05-.8-.05-1.011zm6.477 9.876c-.012-.012-.016-.028-.028-.043l-1.16-1.16a.41.41 0 0 0-.574 0 .403.403 0 0 0 0 .574l1.16 1.16c.012.015.027.02.04.031-.571.465-1.282.77-2.056.848v-1.434a.406.406 0 1 0-.812 0v1.426a3.878 3.878 0 0 1-2.023-.863c0-.004.003-.004.007-.008l1.16-1.16a.403.403 0 0 0 0-.575.41.41 0 0 0-.574 0l-1.16 1.16a3.849 3.849 0 0 1-.75-1.605H3.25a.406.406 0 1 0 0-.813H1.453a3.845 3.845 0 0 1 .86-2.394l1.132 1.133a.419.419 0 0 0 .29.121.41.41 0 0 0 .285-.695l-1.028-1.028c.024-.011.043-.02.063-.035a.414.414 0 0 0 .136-.293c.5-.332 1.086-.55 1.715-.613a.36.36 0 0 0-.031.148v2.032a.406.406 0 1 0 .813 0v-2.032a.429.429 0 0 0-.032-.156c.766.07 1.469.363 2.043.816l-1.16 1.16a.41.41 0 0 0 0 .575.412.412 0 0 0 .29.121.41.41 0 0 0 .284-.121l1.16-1.16c.004-.004.004-.008.008-.008.547.66.88 1.508.887 2.43H7.313a.406.406 0 1 0 0 .813H9.09a3.802 3.802 0 0 1-.785 1.648zm14.27-2.461h-1.86a.406.406 0 1 0 0 .812h1.781a3.853 3.853 0 0 1-.789 1.649c-.008-.012-.016-.028-.027-.043l-1.16-1.16a.41.41 0 0 0-.575 0 .403.403 0 0 0 0 .574l1.16 1.16c.012.015.028.02.043.031a3.88 3.88 0 0 1-2.058.848v-1.434a.406.406 0 1 0-.813 0v1.426a3.892 3.892 0 0 1-2.023-.863c.004-.004.008-.004.008-.008l1.16-1.16a.407.407 0 0 0 .004-.575.41.41 0 0 0-.574 0l-1.16 1.16a3.808 3.808 0 0 1-.755-1.605h1.715a.406.406 0 1 0 0-.812H14.86a3.845 3.845 0 0 1 .86-2.395l1.133 1.133a.41.41 0 0 0 .285.121.419.419 0 0 0 .289-.121.41.41 0 0 0 0-.574l-1.133-1.133a3.815 3.815 0 0 1 2.016-.836.36.36 0 0 0-.032.148v2.032a.406.406 0 1 0 .813 0v-2.032a.429.429 0 0 0-.031-.156 3.836 3.836 0 0 1 1.441.426.404.404 0 0 0 .11.242.408.408 0 0 0 .288.117.498.498 0 0 0 .13-.023.52.52 0 0 1 .074.055l-1.157 1.16a.403.403 0 0 0 .285.691c.106 0 .207-.039.29-.117l1.16-1.16c0-.004 0-.008.004-.008.55.66.882 1.504.89 2.43zm-3.86-4.641c-2.54 0-4.61 2.039-4.664 4.57a36.092 36.092 0 0 1-4.07.075 4.673 4.673 0 0 0-4.668-4.645c-.934 0-1.805.277-2.536.754a5.155 5.155 0 0 1-.75-1.707L9.75 9.129c.094 1.742.785 2.625 2.059 2.625.605 0 1.132-.332 1.418-.824.289.492.816.824 1.421.824a1.64 1.64 0 0 0 1.422-.824c.29.492.813.824 1.422.824a1.64 1.64 0 0 0 1.422-.824c.29.492.813.824 1.422.824.535 0 1.004-.258 1.305-.649-.063.649-.235 1.45-.72 2.118a4.636 4.636 0 0 0-2.206-.555zm.84-2.266h1.562a.837.837 0 0 1-1.563 0zm0 0"/>
</svg>
