<svg xmlns="http://www.w3.org/2000/svg" width="32" height="32" viewBox="0 0 24 24">
    <path d="M 20.484375 13.242188 C 19 13.242188 17.792969 14.449219 17.792969 15.929688 C 17.792969 16.347656 17.890625 16.738281 18.058594 17.089844 C 16.71875 18.585938 14.832031 19.449219 12.828125 19.449219 C 12.582031 19.449219 12.316406 19.425781 12.019531 19.390625 C 11.535156 18.914062 10.871094 18.621094 10.136719 18.621094 C 9.964844 18.621094 9.796875 18.636719 9.632812 18.671875 C 9.226562 18.460938 8.84375 18.210938 8.484375 17.929688 C 8.613281 17.5625 8.691406 17.167969 8.691406 16.757812 C 8.691406 15.054688 7.472656 13.632812 5.863281 13.308594 C 5.835938 13.097656 5.816406 12.886719 5.804688 12.679688 C 7.464844 12.222656 8.691406 10.699219 8.691406 8.898438 C 8.691406 8.246094 8.527344 7.636719 8.25 7.097656 C 8.453125 6.921875 8.660156 6.757812 8.878906 6.609375 C 9.378906 6.882812 9.945312 7.035156 10.550781 7.035156 C 11.789062 7.035156 12.875 6.390625 13.503906 5.425781 C 15.675781 5.632812 17.625 6.835938 18.789062 8.699219 C 18.683594 8.949219 18.621094 9.226562 18.621094 9.515625 C 18.621094 10.65625 19.546875 11.585938 20.691406 11.585938 C 21.832031 11.585938 22.757812 10.65625 22.757812 9.515625 C 22.757812 9.382812 22.742188 9.25 22.71875 9.121094 C 22.707031 9.066406 22.6875 9.011719 22.671875 8.960938 C 22.652344 8.890625 22.636719 8.816406 22.605469 8.75 C 22.582031 8.6875 22.546875 8.628906 22.515625 8.566406 C 22.488281 8.515625 22.464844 8.464844 22.433594 8.414062 C 22.394531 8.351562 22.347656 8.292969 22.300781 8.238281 C 22.269531 8.195312 22.238281 8.15625 22.203125 8.117188 C 22.152344 8.0625 22.097656 8.011719 22.039062 7.960938 C 22 7.929688 21.960938 7.894531 21.921875 7.867188 C 21.859375 7.820312 21.796875 7.78125 21.734375 7.742188 C 21.6875 7.714844 21.640625 7.691406 21.59375 7.667969 C 21.527344 7.632812 21.460938 7.605469 21.390625 7.578125 C 21.339844 7.558594 21.285156 7.542969 21.226562 7.527344 C 21.160156 7.511719 21.089844 7.492188 21.019531 7.480469 C 20.996094 7.476562 20.976562 7.46875 20.953125 7.46875 C 19.441406 4.992188 16.882812 3.339844 14.023438 2.976562 C 13.761719 1.292969 12.308594 0 10.550781 0 C 8.613281 0 7.035156 1.578125 7.035156 3.515625 C 7.035156 3.9375 7.113281 4.339844 7.25 4.714844 C 6.976562 4.914062 6.710938 5.128906 6.457031 5.355469 C 5.941406 5.109375 5.367188 4.964844 4.757812 4.964844 C 2.589844 4.964844 0.828125 6.730469 0.828125 8.898438 C 0.828125 10.554688 1.859375 11.972656 3.316406 12.550781 C 3.320312 12.9375 3.355469 13.328125 3.410156 13.71875 C 2.363281 14.328125 1.65625 15.460938 1.65625 16.757812 C 1.65625 18.699219 3.234375 20.277344 5.171875 20.277344 C 5.792969 20.277344 6.375 20.113281 6.878906 19.832031 C 7.117188 20.019531 7.363281 20.199219 7.621094 20.367188 C 7.511719 20.660156 7.449219 20.976562 7.449219 21.308594 C 7.449219 22.792969 8.65625 24 10.136719 24 C 11.410156 24 12.472656 23.113281 12.753906 21.929688 C 12.777344 21.929688 12.804688 21.929688 12.828125 21.929688 C 15.632812 21.929688 18.253906 20.714844 20.066406 18.585938 C 20.203125 18.605469 20.339844 18.621094 20.484375 18.621094 C 21.964844 18.621094 23.171875 17.414062 23.171875 15.929688 C 23.171875 14.449219 21.964844 13.242188 20.484375 13.242188 Z M 20.691406 10.757812 C 20.003906 10.757812 19.449219 10.203125 19.449219 9.515625 C 19.449219 9.414062 19.464844 9.3125 19.492188 9.214844 C 19.492188 9.203125 19.496094 9.191406 19.5 9.179688 C 19.53125 9.082031 19.570312 8.988281 19.625 8.894531 C 19.625 8.890625 19.625 8.886719 19.628906 8.886719 C 19.84375 8.523438 20.238281 8.277344 20.691406 8.277344 C 20.691406 8.277344 20.695312 8.277344 20.699219 8.277344 C 20.699219 8.277344 20.703125 8.277344 20.703125 8.277344 C 21.378906 8.285156 21.929688 8.839844 21.929688 9.515625 C 21.929688 10.203125 21.375 10.757812 20.691406 10.757812 Z M 20.03125 7.566406 C 19.761719 7.65625 19.515625 7.800781 19.308594 7.988281 C 18.050781 6.148438 16.085938 4.929688 13.886719 4.632812 C 13.890625 4.621094 13.890625 4.613281 13.894531 4.601562 C 13.976562 4.359375 14.027344 4.101562 14.050781 3.839844 C 14.054688 3.828125 14.054688 3.820312 14.054688 3.8125 C 16.480469 4.15625 18.65625 5.527344 20.03125 7.566406 Z M 10.550781 0.828125 C 11.984375 0.828125 13.15625 1.953125 13.234375 3.367188 C 13.234375 3.367188 13.234375 3.367188 13.234375 3.371094 L 13.238281 3.414062 C 13.238281 3.449219 13.242188 3.480469 13.242188 3.515625 C 13.242188 3.621094 13.234375 3.722656 13.222656 3.828125 C 13.21875 3.855469 13.214844 3.882812 13.210938 3.910156 C 13.199219 3.984375 13.183594 4.058594 13.167969 4.132812 C 13.160156 4.164062 13.152344 4.195312 13.144531 4.226562 C 13.125 4.292969 13.101562 4.363281 13.078125 4.429688 C 13.066406 4.460938 13.054688 4.492188 13.042969 4.523438 C 13.011719 4.601562 12.976562 4.679688 12.9375 4.753906 C 12.488281 5.617188 11.589844 6.207031 10.550781 6.207031 C 10.011719 6.207031 9.507812 6.042969 9.085938 5.769531 C 8.984375 5.703125 8.890625 5.632812 8.800781 5.554688 C 8.796875 5.550781 8.789062 5.542969 8.785156 5.539062 C 8.699219 5.464844 8.621094 5.386719 8.546875 5.304688 C 8.539062 5.296875 8.535156 5.289062 8.527344 5.285156 C 8.367188 5.101562 8.234375 4.898438 8.128906 4.675781 C 7.960938 4.324219 7.863281 3.933594 7.863281 3.515625 C 7.863281 2.035156 9.070312 0.828125 10.550781 0.828125 Z M 7.183594 5.808594 C 7.328125 5.6875 7.472656 5.570312 7.621094 5.457031 C 7.699219 5.574219 7.78125 5.683594 7.871094 5.789062 C 7.875 5.792969 7.882812 5.800781 7.886719 5.804688 C 7.964844 5.898438 8.050781 5.984375 8.136719 6.070312 C 8.148438 6.078125 8.15625 6.089844 8.164062 6.097656 C 8.035156 6.191406 7.910156 6.292969 7.789062 6.394531 C 7.609375 6.179688 7.410156 5.988281 7.191406 5.816406 C 7.191406 5.8125 7.1875 5.808594 7.183594 5.808594 Z M 1.65625 8.898438 C 1.65625 7.183594 3.046875 5.792969 4.757812 5.792969 C 5.328125 5.792969 5.863281 5.953125 6.324219 6.222656 C 6.425781 6.28125 6.519531 6.34375 6.613281 6.414062 C 6.621094 6.417969 6.625 6.421875 6.632812 6.429688 C 6.929688 6.65625 7.191406 6.941406 7.394531 7.265625 C 7.394531 7.269531 7.398438 7.269531 7.398438 7.273438 C 7.691406 7.746094 7.863281 8.300781 7.863281 8.898438 C 7.863281 10.421875 6.757812 11.6875 5.308594 11.949219 C 5.191406 11.96875 5.078125 11.980469 4.96875 11.988281 C 4.929688 11.992188 4.886719 11.996094 4.84375 11.996094 C 4.785156 11.996094 4.726562 11.996094 4.667969 11.996094 C 4.601562 11.992188 4.535156 11.992188 4.46875 11.984375 C 4.433594 11.980469 4.394531 11.976562 4.355469 11.972656 C 4.289062 11.960938 4.21875 11.953125 4.152344 11.941406 C 4.070312 11.925781 3.992188 11.902344 3.910156 11.878906 C 2.609375 11.507812 1.65625 10.3125 1.65625 8.898438 Z M 4.195312 13.382812 C 4.171875 13.179688 4.15625 12.980469 4.144531 12.78125 C 4.179688 12.785156 4.210938 12.785156 4.242188 12.789062 C 4.3125 12.800781 4.382812 12.808594 4.457031 12.8125 C 4.523438 12.816406 4.589844 12.820312 4.65625 12.824219 C 4.691406 12.824219 4.722656 12.828125 4.757812 12.828125 C 4.800781 12.828125 4.84375 12.824219 4.882812 12.820312 C 4.914062 12.820312 4.945312 12.824219 4.976562 12.820312 C 4.984375 12.960938 5 13.101562 5.015625 13.246094 C 4.988281 13.246094 4.960938 13.25 4.933594 13.253906 C 4.847656 13.257812 4.761719 13.269531 4.675781 13.28125 C 4.632812 13.285156 4.59375 13.292969 4.550781 13.300781 C 4.441406 13.320312 4.332031 13.34375 4.226562 13.375 C 4.214844 13.378906 4.203125 13.378906 4.195312 13.382812 Z M 2.484375 16.757812 C 2.484375 15.683594 3.121094 14.753906 4.035156 14.324219 C 4.253906 14.222656 4.484375 14.152344 4.714844 14.109375 C 4.730469 14.109375 4.746094 14.105469 4.761719 14.105469 C 4.855469 14.089844 4.949219 14.082031 5.042969 14.074219 C 5.070312 14.074219 5.09375 14.074219 5.121094 14.070312 C 5.230469 14.070312 5.34375 14.070312 5.453125 14.082031 C 6.804688 14.222656 7.863281 15.371094 7.863281 16.757812 C 7.863281 17.144531 7.78125 17.507812 7.632812 17.839844 C 7.632812 17.84375 7.628906 17.847656 7.625 17.851562 C 7.476562 18.183594 7.265625 18.476562 7.003906 18.722656 C 6.980469 18.742188 6.957031 18.765625 6.933594 18.785156 C 6.863281 18.847656 6.789062 18.90625 6.714844 18.960938 C 6.277344 19.265625 5.746094 19.449219 5.171875 19.449219 C 3.6875 19.449219 2.484375 18.242188 2.484375 16.757812 Z M 8.023438 19.648438 C 7.867188 19.546875 7.71875 19.441406 7.570312 19.328125 C 7.585938 19.316406 7.597656 19.300781 7.609375 19.289062 C 7.683594 19.214844 7.757812 19.140625 7.824219 19.0625 C 7.835938 19.046875 7.851562 19.035156 7.863281 19.019531 C 7.949219 18.914062 8.03125 18.804688 8.109375 18.691406 C 8.285156 18.824219 8.46875 18.949219 8.65625 19.070312 C 8.542969 19.140625 8.4375 19.226562 8.339844 19.316406 C 8.324219 19.328125 8.3125 19.339844 8.296875 19.355469 C 8.207031 19.441406 8.117188 19.53125 8.039062 19.632812 C 8.035156 19.636719 8.027344 19.644531 8.023438 19.648438 Z M 10.136719 23.171875 C 9.109375 23.171875 8.277344 22.335938 8.277344 21.308594 C 8.277344 20.957031 8.378906 20.628906 8.550781 20.347656 C 8.589844 20.289062 8.628906 20.234375 8.667969 20.179688 C 8.703125 20.136719 8.734375 20.09375 8.773438 20.054688 C 8.824219 19.996094 8.882812 19.945312 8.941406 19.894531 C 8.972656 19.867188 9.003906 19.839844 9.042969 19.8125 C 9.117188 19.757812 9.199219 19.710938 9.28125 19.664062 C 9.308594 19.652344 9.328125 19.636719 9.355469 19.628906 C 9.460938 19.578125 9.570312 19.539062 9.683594 19.511719 C 9.832031 19.472656 9.980469 19.449219 10.136719 19.449219 C 10.722656 19.449219 11.242188 19.726562 11.582031 20.148438 C 11.625 20.203125 11.667969 20.257812 11.703125 20.3125 C 11.734375 20.359375 11.757812 20.40625 11.78125 20.453125 C 11.808594 20.507812 11.839844 20.5625 11.863281 20.621094 C 11.886719 20.679688 11.902344 20.742188 11.921875 20.804688 C 11.933594 20.855469 11.953125 20.902344 11.964844 20.953125 C 11.988281 21.070312 12 21.1875 12 21.308594 C 12 22.335938 11.164062 23.171875 10.136719 23.171875 Z M 12.828125 21.101562 C 12.824219 21.101562 12.820312 21.101562 12.820312 21.101562 C 12.820312 21.097656 12.816406 21.089844 12.816406 21.082031 C 12.804688 20.953125 12.785156 20.828125 12.753906 20.703125 C 12.75 20.683594 12.746094 20.664062 12.742188 20.644531 C 12.707031 20.515625 12.667969 20.390625 12.617188 20.273438 C 12.6875 20.273438 12.757812 20.277344 12.828125 20.277344 C 15.003906 20.277344 17.058594 19.378906 18.546875 17.796875 C 18.550781 17.800781 18.554688 17.800781 18.554688 17.804688 C 18.644531 17.894531 18.738281 17.980469 18.839844 18.054688 C 18.855469 18.070312 18.875 18.082031 18.890625 18.09375 C 18.996094 18.171875 19.101562 18.242188 19.214844 18.304688 C 17.574219 20.089844 15.273438 21.101562 12.828125 21.101562 Z M 20.484375 17.792969 C 20.285156 17.792969 20.097656 17.753906 19.917969 17.695312 C 19.847656 17.675781 19.78125 17.652344 19.710938 17.621094 C 19.671875 17.601562 19.628906 17.578125 19.589844 17.554688 C 19.527344 17.519531 19.46875 17.488281 19.410156 17.449219 C 19.371094 17.417969 19.335938 17.386719 19.296875 17.355469 C 19.246094 17.3125 19.191406 17.269531 19.144531 17.21875 C 19.113281 17.1875 19.085938 17.148438 19.058594 17.117188 C 19.011719 17.058594 18.964844 17.003906 18.921875 16.941406 C 18.734375 16.648438 18.621094 16.304688 18.621094 15.929688 C 18.621094 14.90625 19.457031 14.070312 20.484375 14.070312 C 21.507812 14.070312 22.34375 14.90625 22.34375 15.929688 C 22.34375 16.957031 21.507812 17.792969 20.484375 17.792969 Z M 20.484375 17.792969"/>
</svg>
