<svg xmlns="http://www.w3.org/2000/svg" width="32" height="32" viewBox="0 0 24 24">
    <path d="M11.304688 12.460938C11.253906 12.441406 11.199219 12.429688 11.144531 12.429688L6 12.429688C5.761719 12.429688 5.570312 12.621094 5.570312 12.855469 5.570312 13.09375 5.761719 13.285156 6 13.285156L10.109375 13.285156.125 23.269531C-.0429688 23.4375-.0429688 23.707031.125 23.875.210938 23.957031.320312 24 .429688 24 .539062 24 .648438 23.957031.730469 23.875L10.714844 13.890625 10.714844 18C10.714844 18.238281 10.90625 18.429688 11.144531 18.429688 11.378906 18.429688 11.570312 18.238281 11.570312 18L11.570312 12.855469C11.570312 12.800781 11.558594 12.746094 11.539062 12.695312 11.496094 12.589844 11.410156 12.503906 11.304688 12.460938zM11.144531 5.570312C10.90625 5.570312 10.714844 5.761719 10.714844 6L10.714844 10.109375.730469.125C.5625-.0429688.292969-.0429688.125.125-.0429688.292969-.0429688.5625.125.730469L10.109375 10.714844 6 10.714844C5.761719 10.714844 5.570312 10.90625 5.570312 11.144531 5.570312 11.378906 5.761719 11.570312 6 11.570312L11.144531 11.570312C11.199219 11.570312 11.253906 11.558594 11.304688 11.539062 11.410156 11.496094 11.496094 11.410156 11.539062 11.304688 11.558594 11.253906 11.570312 11.199219 11.570312 11.144531L11.570312 6C11.570312 5.761719 11.378906 5.570312 11.144531 5.570312zM12.695312 11.539062C12.746094 11.558594 12.800781 11.570312 12.855469 11.570312L18 11.570312C18.238281 11.570312 18.429688 11.378906 18.429688 11.144531 18.429688 10.90625 18.238281 10.714844 18 10.714844L13.890625 10.714844 23.875.730469C24.042969.5625 24.042969.292969 23.875.125 23.707031-.0429688 23.4375-.0429688 23.269531.125L13.285156 10.109375 13.285156 6C13.285156 5.761719 13.09375 5.570312 12.855469 5.570312 12.621094 5.570312 12.429688 5.761719 12.429688 6L12.429688 11.144531C12.429688 11.199219 12.441406 11.253906 12.460938 11.304688 12.503906 11.410156 12.589844 11.496094 12.695312 11.539062zM13.890625 13.285156L18 13.285156C18.238281 13.285156 18.429688 13.09375 18.429688 12.855469 18.429688 12.621094 18.238281 12.429688 18 12.429688L12.855469 12.429688C12.800781 12.429688 12.746094 12.441406 12.695312 12.460938 12.589844 12.503906 12.503906 12.589844 12.460938 12.695312 12.441406 12.746094 12.429688 12.800781 12.429688 12.855469L12.429688 18C12.429688 18.238281 12.621094 18.429688 12.855469 18.429688 13.09375 18.429688 13.285156 18.238281 13.285156 18L13.285156 13.890625 23.269531 23.875C23.351562 23.957031 23.460938 24 23.570312 24 23.679688 24 23.789062 23.957031 23.875 23.875 24.042969 23.707031 24.042969 23.4375 23.875 23.269531zM13.890625 13.285156"/>
</svg>
