<svg xmlns="http://www.w3.org/2000/svg" width="32" height="32" viewBox="0 0 24 24">
    <path d="M6.258 18.14a.4.4 0 0 0-.543.587c.203.191.414.37.633.543.074.054.16.085.246.085a.403.403 0 0 0 .246-.718c-.2-.153-.395-.32-.582-.496zm0 0M13.309 20.309c-.246.039-.5.066-.758.082a.401.401 0 0 0 .027.8h.024c.28-.02.558-.05.832-.093a.398.398 0 0 0 .332-.457.396.396 0 0 0-.457-.332zm0 0M8.816 19.785a9.345 9.345 0 0 1-.695-.324.401.401 0 0 0-.539.172.401.401 0 0 0 .172.539c.246.129.5.246.758.351.05.024.101.032.152.032a.4.4 0 0 0 .152-.77zm0 0M4.82 16.371a.397.397 0 0 0-.55-.133.392.392 0 0 0-.133.547c.144.238.3.473.465.695a.4.4 0 0 0 .558.082.4.4 0 0 0 .086-.558 7.467 7.467 0 0 1-.426-.633zm0 0M4.148 15a7.719 7.719 0 0 1-.113-.32.402.402 0 0 0-.508-.25.399.399 0 0 0-.25.508c.04.117.078.234.125.347.059.16.211.258.371.258a.466.466 0 0 0 .145-.023.404.404 0 0 0 .23-.52zm0 0M11.027 20.355a9.478 9.478 0 0 1-.754-.125.402.402 0 0 0-.164.785c.27.055.547.102.825.133.015 0 .03.004.046.004a.4.4 0 0 0 .047-.797zm0 0M20.473 14.43a.402.402 0 0 0-.508.254 8.312 8.312 0 0 1-.274.71c-.09.204 0 .438.204.528.054.023.109.031.164.031a.393.393 0 0 0 .363-.238c.113-.254.215-.516.305-.777a.404.404 0 0 0-.254-.508zm0 0M18.95 16.727c-.141.21-.298.418-.458.613a.402.402 0 0 0 .055.562.4.4 0 0 0 .563-.055c.18-.214.347-.44.503-.671a.401.401 0 0 0-.664-.45zm0 0M17.422 18.426c-.192.164-.399.32-.606.465a.404.404 0 0 0-.097.558.404.404 0 0 0 .558.098c.227-.16.45-.332.66-.512a.398.398 0 0 0 .051-.562.402.402 0 0 0-.566-.047zm0 0M15.496 19.648c-.23.11-.469.204-.707.29-.21.07-.32.3-.246.507a.403.403 0 0 0 .379.266.406.406 0 0 0 .133-.02c.261-.093.52-.199.773-.312a.403.403 0 0 0 .2-.531.406.406 0 0 0-.532-.2zm0 0M23.883 9.328a.4.4 0 0 0-.567 0l-2.132 2.133C20.898 6.64 16.89 2.809 12 2.809c-4.89 0-8.898 3.832-9.184 8.652L.684 9.328a.4.4 0 0 0-.567 0 .396.396 0 0 0 0 .563l2.801 2.8c.078.079.18.118.281.118.102 0 .207-.04.285-.118l2.797-2.8a.396.396 0 0 0 0-.563.396.396 0 0 0-.562 0l-2.09 2.086C3.937 7.06 7.57 3.61 12 3.61c4.43 0 8.063 3.45 8.371 7.805l-2.09-2.09a.396.396 0 0 0-.562 0 .4.4 0 0 0 0 .567l2.797 2.8a.405.405 0 0 0 .285.118c.101 0 .203-.04.281-.118l2.8-2.8a.396.396 0 0 0 0-.563zm0 0"/>
</svg>
