<svg xmlns="http://www.w3.org/2000/svg" width="32" height="32" viewBox="0 0 24 24">
    <path d="M11.465 18.328a.417.417 0 0 0-.586 0 .417.417 0 0 0 0 .586l1.777 1.777h-.164a.412.412 0 1 0 0 .824h.164l-1.777 1.778a.417.417 0 0 0 0 .586.41.41 0 0 0 .293.121.41.41 0 0 0 .293-.121l2.484-2.484a.413.413 0 0 0 0-.582zm0 0M5.793 8.277a.414.414 0 0 0-.828 0v.825a.414.414 0 0 0 .828 0zm0 0M5.379 12.828a.414.414 0 0 0-.414.414v1.242a.414.414 0 0 0 .828 0v-1.242a.412.412 0 0 0-.414-.414zm0 0M5.793 10.758a.414.414 0 0 0-.828 0v.828a.414.414 0 0 0 .828 0zm0 0M4.965 6.621a.414.414 0 0 0 .828 0v-.86a2.902 2.902 0 0 0 2.484-2.863C8.277 1.301 6.977 0 5.38 0a2.9 2.9 0 0 0-2.895 2.898 2.899 2.899 0 0 0 2.48 2.864zM3.309 2.898a2.071 2.071 0 0 1 4.14 0 2.07 2.07 0 0 1-4.14 0zm0 0M5.793 16.965v-.828a.414.414 0 0 0-.828 0v.828a.414.414 0 0 0 .828 0zm0 0"/>
    <path d="M11.25 21.102a.411.411 0 0 0-.414-.41h-.828a.413.413 0 0 0-.414.41c0 .23.187.414.414.414h.828c.23 0 .414-.184.414-.414zm0 0M6.059 18.426a.414.414 0 0 0-.766.312c.113.282.258.551.426.805a.41.41 0 0 0 .574.113.412.412 0 0 0 .113-.574 3.91 3.91 0 0 1-.347-.656zm0 0M8.477 20.566a3.594 3.594 0 0 1-1.016-.453.415.415 0 0 0-.45.696c.387.25.805.437 1.247.554a.41.41 0 0 0 .508-.29.41.41 0 0 0-.29-.507zm0 0M19.035 18.238V18a.414.414 0 0 0-.828 0v.238a2.902 2.902 0 0 0-2.484 2.864c0 1.597 1.3 2.898 2.898 2.898a2.9 2.9 0 0 0 2.895-2.898 2.899 2.899 0 0 0-2.48-2.864zm-.414 4.934c-1.14 0-2.07-.926-2.07-2.07a2.07 2.07 0 0 1 4.14 0c0 1.144-.93 2.07-2.07 2.07zm0 0M9.965 3.055c.02.05.05.097.086.136l2.484 2.48a.41.41 0 0 0 .293.122.41.41 0 0 0 .293-.121.417.417 0 0 0 0-.586l-1.883-1.883a.403.403 0 0 0 0-.613L13.121.707a.417.417 0 0 0 0-.586.417.417 0 0 0-.586 0l-2.484 2.484a.39.39 0 0 0-.086.133.404.404 0 0 0 0 .317zm0 0M19.035 13.328a.414.414 0 0 0-.828 0v.781c0 .227.184.41.414.41a.413.413 0 0 0 .414-.41zm0 0M18.621 15.25a.412.412 0 0 0-.414.414v.777a.414.414 0 0 0 .828 0v-.777a.417.417 0 0 0-.414-.414zm0 0M19.035 10.605a.414.414 0 0 0-.828 0v1.168c0 .227.184.41.414.41a.413.413 0 0 0 .414-.41zm0 0M19.035 8.27a.414.414 0 0 0-.828 0v.777a.414.414 0 0 0 .828 0zm0 0M16.027 3.14a.41.41 0 0 0-.293-.503 4.382 4.382 0 0 0-.843-.145.415.415 0 0 0-.059.828c.234.016.465.055.691.114a.408.408 0 0 0 .504-.293zm0 0"/>
    <path d="M12.113 2.898c0 .227.184.41.414.41h.778a.412.412 0 1 0 0-.824h-.778a.412.412 0 0 0-.414.414zm0 0M18.094 6.043c.058.227.093.457.105.691.016.22.196.391.414.391h.024a.417.417 0 0 0 .39-.438 4.446 4.446 0 0 0-.129-.847.414.414 0 0 0-.804.203zm0 0M17.5 4.79c.082.108.207.167.336.167a.41.41 0 0 0 .332-.656 4.43 4.43 0 0 0-.898-.914.42.42 0 0 0-.582.078.417.417 0 0 0 .082.582c.277.21.523.46.73.742zm0 0"/>
</svg>
