<svg xmlns="http://www.w3.org/2000/svg" width="32" height="32" viewBox="0 0 24 24">
    <path d="M5.378906 0C3.78125 0 2.484375 1.300781 2.484375 2.898438 2.484375 4.351562 3.5625 5.558594 4.964844 5.761719L4.964844 6C4.964844 6.230469 5.152344 6.414062 5.378906 6.414062 5.609375 6.414062 5.792969 6.230469 5.792969 6L5.792969 5.761719C7.195312 5.558594 8.277344 4.351562 8.277344 2.898438 8.277344 1.300781 6.976562 0 5.378906 0zM5.378906 4.964844C4.238281 4.964844 3.308594 4.039062 3.308594 2.898438 3.308594 1.753906 4.238281.828125 5.378906.828125 6.519531.828125 7.449219 1.753906 7.449219 2.898438 7.449219 4.039062 6.519531 4.964844 5.378906 4.964844zM14.035156 20.945312C14.015625 20.894531 13.984375 20.847656 13.949219 20.808594L11.464844 18.328125C11.304688 18.164062 11.042969 18.164062 10.878906 18.328125 10.71875 18.488281 10.71875 18.75 10.878906 18.914062L12.761719 20.796875C12.675781 20.871094 12.621094 20.980469 12.621094 21.101562 12.621094 21.226562 12.675781 21.335938 12.761719 21.410156L10.878906 23.292969C10.71875 23.457031 10.71875 23.71875 10.878906 23.878906 10.960938 23.960938 11.066406 24 11.171875 24 11.277344 24 11.382812 23.960938 11.464844 23.878906L13.949219 21.394531C13.984375 21.359375 14.015625 21.3125 14.035156 21.261719 14.078125 21.160156 14.078125 21.046875 14.035156 20.945312zM4.964844 10.671875C4.964844 10.898438 5.152344 11.085938 5.378906 11.085938 5.609375 11.085938 5.792969 10.898438 5.792969 10.671875L5.792969 9.890625C5.792969 9.664062 5.609375 9.480469 5.378906 9.480469 5.152344 9.480469 4.964844 9.664062 4.964844 9.890625zM5.378906 8.75C5.609375 8.75 5.792969 8.566406 5.792969 8.335938L5.792969 7.558594C5.792969 7.328125 5.609375 7.144531 5.378906 7.144531 5.152344 7.144531 4.964844 7.328125 4.964844 7.558594L4.964844 8.335938C4.964844 8.5625 5.152344 8.75 5.378906 8.75zM4.964844 15.730469C4.964844 15.960938 5.152344 16.144531 5.378906 16.144531 5.609375 16.144531 5.792969 15.960938 5.792969 15.730469L5.792969 14.953125C5.792969 14.722656 5.609375 14.539062 5.378906 14.539062 5.152344 14.539062 4.964844 14.722656 4.964844 14.953125zM5.90625 17.957031C5.847656 17.730469 5.8125 17.5 5.800781 17.265625 5.785156 17.035156 5.585938 16.863281 5.363281 16.875 5.132812 16.890625 4.960938 17.085938 4.972656 17.3125 4.988281 17.597656 5.03125 17.882812 5.101562 18.160156 5.148438 18.347656 5.316406 18.472656 5.503906 18.472656 5.535156 18.472656 5.570312 18.46875 5.605469 18.457031 5.828125 18.402344 5.960938 18.175781 5.90625 17.957031zM4.964844 13.394531C4.964844 13.625 5.152344 13.808594 5.378906 13.808594 5.609375 13.808594 5.792969 13.625 5.792969 13.394531L5.792969 12.226562C5.792969 12 5.609375 11.816406 5.378906 11.816406 5.152344 11.816406 4.964844 12 4.964844 12.226562zM6.5 19.210938C6.363281 19.027344 6.105469 18.988281 5.921875 19.121094 5.734375 19.257812 5.695312 19.515625 5.832031 19.699219 6.085938 20.046875 6.390625 20.355469 6.734375 20.613281 6.808594 20.671875 6.894531 20.699219 6.980469 20.699219 7.109375 20.699219 7.230469 20.640625 7.3125 20.535156 7.449219 20.351562 7.414062 20.09375 7.234375 19.953125 6.953125 19.742188 6.707031 19.492188 6.5 19.210938zM6.5 19.210938"/>
    <path d="M11.886719 21.101562C11.886719 20.875 11.703125 20.691406 11.472656 20.691406L10.695312 20.691406C10.464844 20.691406 10.28125 20.875 10.28125 21.101562 10.28125 21.332031 10.464844 21.515625 10.695312 21.515625L11.472656 21.515625C11.703125 21.515625 11.886719 21.332031 11.886719 21.101562zM9.167969 20.679688C8.933594 20.664062 8.703125 20.625 8.476562 20.566406 8.261719 20.507812 8.03125 20.636719 7.972656 20.859375 7.910156 21.078125 8.042969 21.304688 8.265625 21.363281 8.539062 21.4375 8.824219 21.488281 9.109375 21.507812 9.117188 21.507812 9.128906 21.507812 9.136719 21.507812 9.351562 21.507812 9.535156 21.339844 9.550781 21.121094 9.566406 20.894531 9.394531 20.695312 9.167969 20.679688zM19.035156 18.238281L19.035156 6.941406C19.035156 4.484375 17.035156 2.484375 14.578125 2.484375L11.34375 2.484375 13.121094.707031C13.28125.542969 13.28125.28125 13.121094.121094 12.957031-.0390625 12.695312-.0390625 12.535156.121094L10.050781 2.605469C10.015625 2.640625 9.984375 2.6875 9.964844 2.738281 9.921875 2.839844 9.921875 2.953125 9.964844 3.054688 9.984375 3.105469 10.015625 3.152344 10.050781 3.191406L12.535156 5.671875C12.617188 5.753906 12.722656 5.792969 12.828125 5.792969 12.933594 5.792969 13.039062 5.753906 13.121094 5.671875 13.28125 5.511719 13.28125 5.25 13.121094 5.085938L11.34375 3.308594 14.578125 3.308594C16.578125 3.308594 18.207031 4.9375 18.207031 6.941406L18.207031 18.238281C16.804688 18.441406 15.722656 19.648438 15.722656 21.101562 15.722656 22.699219 17.023438 24 18.621094 24 20.21875 24 21.515625 22.699219 21.515625 21.101562 21.515625 19.648438 20.4375 18.441406 19.035156 18.238281zM18.621094 23.171875C17.480469 23.171875 16.550781 22.246094 16.550781 21.101562 16.550781 19.960938 17.480469 19.035156 18.621094 19.035156 19.761719 19.035156 20.691406 19.960938 20.691406 21.101562 20.691406 22.246094 19.761719 23.171875 18.621094 23.171875zM18.621094 23.171875"/>
</svg>
