<svg xmlns="http://www.w3.org/2000/svg" width="32" height="32" viewBox="0 0 24 24">
    <path d="M23.902 11.723a.447.447 0 0 0 .086-.274c-.02-.316-.047-.633-.093-.941a.453.453 0 0 0-.512-.387.457.457 0 0 0-.383.516c.04.281.066.57.082.86a.407.407 0 0 0 .098.241.439.439 0 0 0-.086.25c0 5.246-4.266 9.512-9.508 9.512-4.848 0-8.848-3.645-9.43-8.336l2.317 2.316c.09.086.203.133.32.133a.455.455 0 0 0 .32-.773l-3.031-3.031c.008-.227.012-.457.031-.684a.454.454 0 0 0-.41-.492.46.46 0 0 0-.492.414c-.02.246-.027.496-.031.746L.133 14.84a.455.455 0 0 0 .32.773c.117 0 .23-.047.32-.133l2.45-2.449c.523 5.254 4.968 9.375 10.363 9.375C19.328 22.406 24 17.734 24 11.988a.426.426 0 0 0-.098-.265zm0 0M16.734 3.016c.27.093.54.203.801.32a.41.41 0 0 0 .188.043.456.456 0 0 0 .414-.266.458.458 0 0 0-.223-.601c-.293-.13-.586-.25-.879-.352a.451.451 0 0 0-.578.277.458.458 0 0 0 .277.579zm0 0M14.203 2.5c.285.02.574.05.86.094.023.004.046.008.07.008a.453.453 0 0 0 .066-.902 10.832 10.832 0 0 0-.941-.102.456.456 0 0 0-.48.422.454.454 0 0 0 .425.48zm0 0M19.719 4.723c.086.07.187.105.293.105a.449.449 0 0 0 .343-.16.448.448 0 0 0-.05-.637 11.628 11.628 0 0 0-.75-.578.453.453 0 1 0-.52.742c.235.164.465.34.684.528zm0 0M21.45 6.64a.457.457 0 0 0 .628.122.453.453 0 0 0 .121-.63 11.574 11.574 0 0 0-.566-.757.46.46 0 0 0-.64-.063.456.456 0 0 0-.063.637c.183.227.36.457.52.692zm0 0M22.29 8.152c.112.262.218.532.312.805a.452.452 0 1 0 .855-.289 10.536 10.536 0 0 0-.34-.883.454.454 0 0 0-.828.367zm0 0M8.98 3.605c.07 0 .145-.015.211-.05.254-.133.516-.254.782-.368a.452.452 0 1 0-.344-.835c-.29.12-.578.253-.856.398a.458.458 0 0 0-.195.613.462.462 0 0 0 .402.242zm0 0M4.832 7.21c.07.044.152.063.234.063a.45.45 0 0 0 .387-.214c.149-.247.313-.489.48-.72a.45.45 0 0 0-.093-.632.454.454 0 0 0-.633.094c-.187.254-.363.515-.527.785a.457.457 0 0 0 .152.625zm0 0M11.531 2.691c.028 0 .059-.003.09-.007.281-.059.57-.106.856-.141a.455.455 0 0 0 .398-.5.456.456 0 0 0-.504-.398c-.312.035-.629.09-.934.152a.453.453 0 0 0-.351.535c.047.215.234.36.445.36zm0 0M3.867 9.742a.455.455 0 0 0 .559-.313c.074-.277.168-.554.27-.82a.453.453 0 1 0-.848-.324c-.11.293-.211.598-.293.899-.07.242.07.492.312.558zm0 0M6.773 5.172c.11 0 .223-.04.309-.121.211-.196.43-.387.656-.563a.453.453 0 0 0-.555-.715c-.25.196-.492.403-.718.618a.45.45 0 0 0 .308.78zm0 0"/>
</svg>
