<svg xmlns="http://www.w3.org/2000/svg" width="32" height="32" viewBox="0 0 24 24">
    <path d="M 4.890625 10.445312 L 19.109375 10.445312 C 21.808594 10.445312 24 8.25 24 5.554688 C 24 2.859375 21.808594 0.667969 19.109375 0.667969 L 4.890625 0.667969 C 4.644531 0.667969 4.445312 0.867188 4.445312 1.109375 C 4.445312 1.355469 4.644531 1.554688 4.890625 1.554688 L 19.109375 1.554688 C 21.316406 1.554688 23.109375 3.351562 23.109375 5.554688 C 23.109375 7.761719 21.316406 9.554688 19.109375 9.554688 L 4.890625 9.554688 C 2.191406 9.554688 0 11.75 0 14.445312 C 0 17.140625 2.191406 19.332031 4.890625 19.332031 L 18.039062 19.332031 L 14.796875 22.574219 C 14.625 22.75 14.625 23.03125 14.796875 23.203125 C 14.882812 23.289062 14.996094 23.332031 15.109375 23.332031 C 15.226562 23.332031 15.339844 23.289062 15.425781 23.203125 L 19.425781 19.203125 C 19.464844 19.164062 19.5 19.113281 19.519531 19.058594 C 19.566406 18.949219 19.566406 18.828125 19.519531 18.71875 C 19.5 18.664062 19.464844 18.613281 19.425781 18.574219 L 15.425781 14.574219 C 15.25 14.402344 14.96875 14.402344 14.796875 14.574219 C 14.625 14.75 14.625 15.03125 14.796875 15.203125 L 18.039062 18.445312 L 4.890625 18.445312 C 2.683594 18.445312 0.890625 16.648438 0.890625 14.445312 C 0.890625 12.238281 2.683594 10.445312 4.890625 10.445312 Z M 4.890625 10.445312"/>
    <path d="M 22.222656 5.554688 C 22.222656 3.839844 20.828125 2.445312 19.109375 2.445312 C 17.394531 2.445312 16 3.839844 16 5.554688 C 16 7.269531 17.394531 8.667969 19.109375 8.667969 C 20.828125 8.667969 22.222656 7.269531 22.222656 5.554688 Z M 16.890625 5.554688 C 16.890625 4.332031 17.886719 3.332031 19.109375 3.332031 C 20.335938 3.332031 21.332031 4.332031 21.332031 5.554688 C 21.332031 6.78125 20.335938 7.777344 19.109375 7.777344 C 17.886719 7.777344 16.890625 6.78125 16.890625 5.554688 Z M 16.890625 5.554688"/>
</svg>
