<svg xmlns="http://www.w3.org/2000/svg" width="32" height="32" viewBox="0 0 24 24">
    <path d="M19.109375 2.664062L4.886719 2.664062C4.640625 2.664062 4.441406 2.863281 4.441406 3.109375 4.441406 3.355469 4.640625 3.554688 4.886719 3.554688L19.109375 3.554688C21.316406 3.554688 23.109375 5.347656 23.109375 7.554688 23.109375 9.761719 21.316406 11.554688 19.109375 11.554688L5.960938 11.554688 9.203125 8.3125C9.375 8.140625 9.375 7.859375 9.203125 7.683594 9.027344 7.511719 8.746094 7.511719 8.574219 7.683594L4.574219 11.683594C4.566406 11.695312 4.5625 11.707031 4.554688 11.714844 4.460938 11.628906 4.335938 11.582031 4.199219 11.605469 3.878906 11.648438 3.558594 11.726562 3.253906 11.839844 3.023438 11.921875 2.902344 12.175781 2.984375 12.40625 3.050781 12.585938 3.21875 12.699219 3.402344 12.699219 3.453125 12.699219 3.503906 12.691406 3.550781 12.675781 3.800781 12.585938 4.0625 12.519531 4.324219 12.484375 4.433594 12.46875 4.527344 12.410156 4.59375 12.332031L8.574219 16.3125C8.660156 16.398438 8.773438 16.445312 8.886719 16.445312 9 16.445312 9.117188 16.398438 9.203125 16.3125 9.375 16.140625 9.375 15.859375 9.203125 15.683594L5.960938 12.441406 19.109375 12.441406C21.804688 12.441406 24 10.25 24 7.554688 24 4.859375 21.804688 2.664062 19.109375 2.664062zM3.332031 20.128906C3.085938 20.023438 2.851562 19.894531 2.632812 19.742188 2.429688 19.605469 2.152344 19.65625 2.015625 19.859375 1.875 20.058594 1.925781 20.335938 2.128906 20.476562 2.398438 20.660156 2.683594 20.820312 2.984375 20.945312 3.042969 20.96875 3.101562 20.980469 3.160156 20.980469 3.332031 20.980469 3.496094 20.878906 3.566406 20.710938 3.664062 20.484375 3.558594 20.222656 3.332031 20.128906zM2.21875 12.867188C2.054688 12.6875 1.773438 12.675781 1.589844 12.839844 1.351562 13.0625 1.132812 13.304688.941406 13.566406.796875 13.765625.839844 14.042969 1.035156 14.1875 1.117188 14.246094 1.207031 14.273438 1.296875 14.273438 1.4375 14.273438 1.570312 14.210938 1.65625 14.09375 1.816406 13.878906 1.996094 13.675781 2.191406 13.496094 2.371094 13.332031 2.382812 13.050781 2.21875 12.867188zM.445312 16.757812C.683594 16.757812.882812 16.566406.890625 16.324219.898438 16.058594.929688 15.792969.992188 15.535156 1.046875 15.296875.898438 15.058594.660156 15 .421875 14.945312.183594 15.09375.125 15.332031.0507812 15.648438.0117188 15.972656 0 16.300781-.0078125 16.546875.1875 16.75.433594 16.757812.4375 16.757812.441406 16.757812.445312 16.757812zM5.777344 20.445312L4.886719 20.445312C4.640625 20.445312 4.441406 20.644531 4.441406 20.890625 4.441406 21.136719 4.640625 21.332031 4.886719 21.332031L5.777344 21.332031C6.023438 21.332031 6.222656 21.136719 6.222656 20.890625 6.222656 20.644531 6.023438 20.445312 5.777344 20.445312zM1.160156 17.890625C1.070312 17.660156.8125 17.546875.585938 17.640625.355469 17.726562.242188 17.984375.332031 18.214844.449219 18.515625.601562 18.808594.777344 19.082031.863281 19.214844 1.003906 19.285156 1.152344 19.285156 1.234375 19.285156 1.316406 19.265625 1.390625 19.214844 1.597656 19.082031 1.65625 18.808594 1.523438 18.601562 1.378906 18.378906 1.257812 18.136719 1.160156 17.890625zM16.445312 20.445312L15.554688 20.445312C15.308594 20.445312 15.109375 20.644531 15.109375 20.890625 15.109375 21.136719 15.308594 21.332031 15.554688 21.332031L16.445312 21.332031C16.691406 21.332031 16.886719 21.136719 16.886719 20.890625 16.886719 20.644531 16.6875 20.445312 16.445312 20.445312zM13.777344 20.445312L12.886719 20.445312C12.640625 20.445312 12.445312 20.644531 12.445312 20.890625 12.445312 21.136719 12.640625 21.332031 12.886719 21.332031L13.777344 21.332031C14.023438 21.332031 14.222656 21.136719 14.222656 20.890625 14.222656 20.644531 14.023438 20.445312 13.777344 20.445312zM8.445312 20.445312L7.554688 20.445312C7.308594 20.445312 7.109375 20.644531 7.109375 20.890625 7.109375 21.136719 7.308594 21.332031 7.554688 21.332031L8.445312 21.332031C8.6875 21.332031 8.886719 21.136719 8.886719 20.890625 8.886719 20.644531 8.6875 20.445312 8.445312 20.445312zM19.109375 20.445312L18.222656 20.445312C17.976562 20.445312 17.777344 20.644531 17.777344 20.890625 17.777344 21.136719 17.976562 21.332031 18.222656 21.332031L19.109375 21.332031C19.355469 21.332031 19.554688 21.136719 19.554688 20.890625 19.554688 20.644531 19.355469 20.445312 19.109375 20.445312zM11.109375 20.445312L10.222656 20.445312C9.976562 20.445312 9.777344 20.644531 9.777344 20.890625 9.777344 21.136719 9.976562 21.332031 10.222656 21.332031L11.109375 21.332031C11.355469 21.332031 11.554688 21.136719 11.554688 20.890625 11.554688 20.644531 11.355469 20.445312 11.109375 20.445312zM11.109375 20.445312"/>
</svg>
