<svg xmlns="http://www.w3.org/2000/svg" width="32" height="23pt" viewBox="0 0 24 23">
    <path d="M 24 9.296875 C 24 9.027344 23.773438 8.808594 23.488281 8.808594 C 23.207031 8.808594 22.980469 9.027344 22.980469 9.296875 L 22.980469 21.328125 L 0.871094 0.144531 C 0.671875 -0.046875 0.347656 -0.046875 0.148438 0.144531 C -0.0507812 0.335938 -0.0507812 0.644531 0.148438 0.835938 L 22.257812 22.019531 L 9.703125 22.019531 C 9.417969 22.019531 9.191406 22.242188 9.191406 22.511719 C 9.191406 22.78125 9.417969 23 9.703125 23 L 23.488281 23 C 23.554688 23 23.621094 22.988281 23.683594 22.960938 C 23.808594 22.914062 23.910156 22.816406 23.960938 22.699219 C 23.988281 22.636719 24 22.574219 24 22.511719 Z M 24 9.296875"/>
</svg>
