<svg xmlns="http://www.w3.org/2000/svg" width="32" height="32" viewBox="0 0 24 24">
    <path d="M 12 0 C 5.382812 0 0 5.382812 0 12 C 0 18.617188 5.382812 24 12 24 C 18.617188 24 24 18.617188 24 12 C 24 5.382812 18.617188 0 12 0 Z M 12 23.109375 C 5.875 23.109375 0.890625 18.125 0.890625 12 C 0.890625 5.875 5.875 0.890625 12 0.890625 C 18.125 0.890625 23.109375 5.875 23.109375 12 C 23.109375 18.125 18.125 23.109375 12 23.109375 Z M 12 23.109375"/>
    <path d="M 9.074219 8.445312 L 14.285156 8.445312 L 14.285156 7.554688 L 7.554688 7.554688 L 7.554688 14.285156 L 8.445312 14.285156 L 8.445312 9.074219 L 15.855469 16.484375 C 15.945312 16.570312 16.058594 16.617188 16.171875 16.617188 C 16.285156 16.617188 16.398438 16.570312 16.484375 16.484375 C 16.660156 16.3125 16.660156 16.03125 16.484375 15.855469 Z M 9.074219 8.445312"/>
</svg>
