<svg xmlns="http://www.w3.org/2000/svg" width="32" height="23pt" viewBox="0 0 24 23">
    <path d="M 23.960938 0.300781 C 23.910156 0.183594 23.808594 0.0859375 23.683594 0.0390625 C 23.621094 0.0117188 23.554688 0 23.488281 0 L 9.703125 0 C 9.417969 0 9.191406 0.21875 9.191406 0.488281 C 9.191406 0.757812 9.417969 0.980469 9.703125 0.980469 L 22.257812 0.980469 L 0.148438 22.164062 C -0.0507812 22.355469 -0.0507812 22.664062 0.148438 22.855469 C 0.25 22.953125 0.378906 23 0.511719 23 C 0.640625 23 0.773438 22.953125 0.871094 22.855469 L 22.980469 1.671875 L 22.980469 13.703125 C 22.980469 13.972656 23.207031 14.191406 23.488281 14.191406 C 23.773438 14.191406 24 13.972656 24 13.703125 L 24 0.488281 C 24 0.425781 23.988281 0.363281 23.960938 0.300781 Z M 23.960938 0.300781"/>
</svg>
