<svg xmlns="http://www.w3.org/2000/svg" width="32" height="32" viewBox="0 0 24 24">
    <path d="M 12 0 C 5.382812 0 0 5.382812 0 12 C 0 18.617188 5.382812 24 12 24 C 18.617188 24 24 18.617188 24 12 C 24 5.382812 18.617188 0 12 0 Z M 12 23.109375 C 5.875 23.109375 0.890625 18.125 0.890625 12 C 0.890625 5.875 5.875 0.890625 12 0.890625 C 18.125 0.890625 23.109375 5.875 23.109375 12 C 23.109375 18.125 18.125 23.109375 12 23.109375 Z M 12 23.109375"/>
    <path d="M 12.445312 16.925781 L 12.445312 6 C 12.445312 5.753906 12.246094 5.554688 12 5.554688 C 11.753906 5.554688 11.554688 5.753906 11.554688 6 L 11.554688 16.925781 L 7.871094 13.242188 L 7.242188 13.871094 L 12 18.628906 L 16.757812 13.871094 L 16.128906 13.242188 Z M 12.445312 16.925781"/>
</svg>
