<svg xmlns="http://www.w3.org/2000/svg" width="32" height="32" viewBox="0 0 24 24">
    <path d="M21.875 0H2.125A2.127 2.127 0 0 0 0 2.125v19.75C0 23.047.953 24 2.125 24h19.75A2.127 2.127 0 0 0 24 21.875V2.125A2.127 2.127 0 0 0 21.875 0zm1.234 21.875c0 .68-.554 1.234-1.234 1.234H2.125c-.68 0-1.234-.554-1.234-1.234V2.125c0-.68.554-1.234 1.234-1.234h19.75c.68 0 1.234.554 1.234 1.234zm0 0"/>
    <path d="M17.41 7.11H6.59a.86.86 0 0 0-.758.44.857.857 0 0 0 0 .876l5.41 9.37a.865.865 0 0 0 .758.438.865.865 0 0 0 .758-.437l5.41-9.371a.857.857 0 0 0 0-.875.86.86 0 0 0-.758-.442zm-5.398 10.242l-.387.222.387-.222L6.59 8l10.808-.02zm0 0"/>
</svg>
