<svg xmlns="http://www.w3.org/2000/svg" width="32" height="32" viewBox="0 0 24 24">
    <path d="M 23.964844 0.28125 C 23.917969 0.167969 23.832031 0.0820312 23.71875 0.0351562 C 23.664062 0.0117188 23.605469 0 23.546875 0 L 15.148438 0 C 14.898438 0 14.695312 0.203125 14.695312 0.453125 C 14.695312 0.703125 14.898438 0.90625 15.148438 0.90625 L 22.453125 0.90625 L 10.679688 12.679688 L 0 12.679688 L 0 24 L 11.320312 24 L 11.320312 13.320312 L 23.09375 1.546875 L 23.09375 8.851562 C 23.09375 9.101562 23.296875 9.304688 23.546875 9.304688 C 23.796875 9.304688 24 9.101562 24 8.851562 L 24 0.453125 C 24 0.394531 23.988281 0.335938 23.964844 0.28125 Z M 10.414062 23.09375 L 0.90625 23.09375 L 0.90625 13.585938 L 10.414062 13.585938 Z M 10.414062 23.09375"/>
</svg>
