<svg xmlns="http://www.w3.org/2000/svg" width="32" height="32" viewBox="0 0 24 24">
    <path d="M 24 15.148438 C 24 14.898438 23.796875 14.695312 23.546875 14.695312 C 23.296875 14.695312 23.09375 14.898438 23.09375 15.148438 L 23.09375 22.453125 L 11.320312 10.679688 L 11.320312 0 L 0 0 L 0 11.320312 L 10.679688 11.320312 L 22.453125 23.09375 L 15.148438 23.09375 C 14.898438 23.09375 14.695312 23.296875 14.695312 23.546875 C 14.695312 23.796875 14.898438 24 15.148438 24 L 23.546875 24 C 23.605469 24 23.664062 23.988281 23.71875 23.964844 C 23.832031 23.917969 23.917969 23.832031 23.964844 23.71875 C 23.988281 23.664062 24 23.605469 24 23.546875 Z M 10.414062 10.414062 L 0.90625 10.414062 L 0.90625 0.90625 L 10.414062 0.90625 Z M 10.414062 10.414062"/>
</svg>
