<svg xmlns="http://www.w3.org/2000/svg" width="32" height="32" viewBox="0 0 24 24">
    <path d="M22.664 8.77a4.57 4.57 0 0 0-6.457 0 4.555 4.555 0 0 0-1.316 2.816H1.418l4.734-4.738a.41.41 0 0 0 0-.586.41.41 0 0 0-.586 0L.121 11.707a.414.414 0 0 0 0 .586l5.445 5.445a.41.41 0 0 0 .293.121.41.41 0 0 0 .293-.12.41.41 0 0 0 0-.587l-4.734-4.738h13.473a4.555 4.555 0 0 0 4.543 4.152c1.171 0 2.34-.445 3.23-1.336a4.574 4.574 0 0 0 0-6.46zm-.586 5.87a3.742 3.742 0 0 1-5.285 0 3.737 3.737 0 0 1 5.285-5.28 3.737 3.737 0 0 1 0 5.28zm0 0"/>
</svg>
