<svg xmlns="http://www.w3.org/2000/svg" width="32" height="32" viewBox="0 0 24 24">
    <path d="M23.965.281A.448.448 0 0 0 23.547 0h-5.434a.453.453 0 0 0 0 .906h4.34l-7.379 7.38a.455.455 0 0 0 0 .64.466.466 0 0 0 .64 0l7.38-7.38v4.34a.453.453 0 0 0 .906 0V.454a.437.437 0 0 0-.035-.172zm0 0M8.285 15.074l-7.379 7.38v-4.34a.453.453 0 0 0-.906 0v5.433A.448.448 0 0 0 .453 24h5.434a.453.453 0 0 0 0-.906h-4.34l7.379-7.38a.455.455 0 0 0 0-.64.455.455 0 0 0-.64 0zm0 0M.453 6.34c.25 0 .453-.203.453-.453v-4.34l7.375 7.375a.453.453 0 0 0 .64 0 .448.448 0 0 0 0-.64L1.548.905h4.34a.453.453 0 0 0 0-.906H.453A.448.448 0 0 0 0 .453v5.434c0 .25.203.453.453.453zm0 0M23.547 17.66a.453.453 0 0 0-.453.453v4.34l-7.38-7.379a.455.455 0 0 0-.64 0 .455.455 0 0 0 0 .64l7.38 7.38h-4.34a.453.453 0 0 0 0 .906h5.433a.448.448 0 0 0 .453-.453v-5.434a.453.453 0 0 0-.453-.453zm0 0"/>
</svg>
