<svg xmlns="http://www.w3.org/2000/svg" width="32" height="32" viewBox="0 0 24 24">
    <path d="M23.547 6.34c.25 0 .453-.203.453-.453V.453A.448.448 0 0 0 23.547 0h-5.434a.453.453 0 0 0 0 .906h4.34l-7.11 7.11A5.177 5.177 0 0 0 12 6.793c-1.273 0-2.438.46-3.344 1.223L1.546.906h4.34a.453.453 0 0 0 0-.906H.454A.448.448 0 0 0 0 .453v5.434a.453.453 0 0 0 .906 0v-4.34l7.11 7.11A5.177 5.177 0 0 0 6.793 12c0 1.273.46 2.438 1.223 3.344l-7.11 7.11v-4.34a.453.453 0 0 0-.906 0v5.433A.448.448 0 0 0 .453 24h5.434a.453.453 0 0 0 0-.906h-4.34l7.11-7.11A5.177 5.177 0 0 0 12 17.207c1.273 0 2.438-.46 3.344-1.223l7.11 7.11h-4.34a.453.453 0 0 0 0 .906h5.433a.448.448 0 0 0 .453-.453v-5.434a.453.453 0 0 0-.906 0v4.34l-7.11-7.11A5.177 5.177 0 0 0 17.207 12c0-1.273-.46-2.438-1.223-3.344l7.11-7.11v4.34c0 .25.203.454.453.454zM12 16.3c-2.371 0-4.3-1.929-4.3-4.3 0-2.371 1.929-4.3 4.3-4.3 2.371 0 4.3 1.929 4.3 4.3 0 2.371-1.929 4.3-4.3 4.3zm0 0"/>
</svg>
