<svg xmlns="http://www.w3.org/2000/svg" width="32" height="32" viewBox="0 0 24 24">
    <path d="M21.516 2.898A2.9 2.9 0 0 0 18.62 0a2.902 2.902 0 0 0-2.898 2.898 2.9 2.9 0 0 0 2.468 2.86c-.007.066-.003.137-.011.203-.02.226.144.43.375.453h.039c.21 0 .39-.16.41-.375.008-.09.008-.184.012-.277a2.894 2.894 0 0 0 2.5-2.864zM18.62 4.965a2.07 2.07 0 0 1-2.07-2.067 2.071 2.071 0 0 1 4.14 0 2.07 2.07 0 0 1-2.07 2.067zm0 0M5.809 18.242c.007-.066.003-.137.011-.203a.446.446 0 0 0-.027-.18v-.886a.411.411 0 0 0 .3-.27c.071-.215.153-.43.247-.633a.415.415 0 0 0-.207-.547.412.412 0 0 0-.34.004V6.38L7.57 8.156a.42.42 0 0 0 .293.121c.106 0 .211-.043.293-.12a.417.417 0 0 0 0-.587l-1.91-1.91a2.9 2.9 0 0 0 2.031-2.762C8.277 1.301 6.977 0 5.38 0a2.896 2.896 0 1 0-.867 5.66L2.605 7.57a.414.414 0 1 0 .293.707c.106 0 .211-.043.29-.12l1.777-1.778v11.86a2.899 2.899 0 0 0-2.48 2.863A2.9 2.9 0 0 0 5.378 24c1.598 0 2.898-1.3 2.898-2.898a2.9 2.9 0 0 0-2.468-2.86zm-2.5-15.344a2.071 2.071 0 0 1 4.14 0 2.07 2.07 0 0 1-4.14 0zm2.07 20.274c-1.14 0-2.07-.926-2.07-2.07a2.07 2.07 0 0 1 4.14 0c0 1.144-.93 2.07-2.07 2.07zm0 0M16.977 9.09a6.162 6.162 0 0 1-.434.523.41.41 0 0 0 .02.582c.078.078.18.114.28.114a.406.406 0 0 0 .305-.133c.172-.188.34-.383.493-.59a.412.412 0 0 0-.086-.578.412.412 0 0 0-.578.082zm0 0M18.43 7.023a.418.418 0 0 0-.524.266c-.066.215-.148.43-.242.633-.094.21 0 .453.207.547.055.027.113.039.172.039a.413.413 0 0 0 .375-.246c.105-.235.2-.473.277-.719a.415.415 0 0 0-.265-.52zm0 0"/>
    <path d="M6.86 13.816a7.078 7.078 0 0 0-.497.59.418.418 0 0 0 .332.664c.125 0 .25-.058.332-.168.133-.18.282-.355.438-.52a.414.414 0 0 0-.024-.585.41.41 0 0 0-.582.02zm0 0M13.352 11.438c-.223.05-.446.085-.668.113a.412.412 0 0 0 .043.824c.015 0 .03 0 .046-.004.25-.023.508-.066.758-.125a.415.415 0 0 0 .317-.492.421.421 0 0 0-.496-.316zm0 0M15.516 10.496a5.8 5.8 0 0 1-.88.504.419.419 0 0 0-.202.55.414.414 0 0 0 .55.2c.348-.16.684-.352 1-.574a.41.41 0 0 0 .11-.574.419.419 0 0 0-.578-.106zm0 0M11.238 11.629a6.243 6.243 0 0 0-.758.121.414.414 0 0 0 .176.809c.223-.047.446-.086.668-.11a.413.413 0 1 0-.086-.82zm0 0M9.023 12.242a7.049 7.049 0 0 0-1 .574.41.41 0 0 0 .235.754c.078 0 .16-.023.234-.07a5.79 5.79 0 0 1 .883-.504.416.416 0 1 0-.352-.754zm0 0"/>
</svg>
