<svg xmlns="http://www.w3.org/2000/svg" width="32" height="32" viewBox="0 0 24 24">
    <path d="M19.488 5.66a2.896 2.896 0 1 0-1.734 0l-1.91 1.91a.417.417 0 0 0 0 .586.428.428 0 0 0 .293.121.42.42 0 0 0 .293-.12l1.672-1.677c-.52 2.899-3.055 5.106-6.102 5.106a7.044 7.044 0 0 0-6.207 3.73V6.38L7.57 8.156a.42.42 0 0 0 .293.121c.106 0 .211-.043.293-.12a.417.417 0 0 0 0-.587l-1.91-1.91a2.9 2.9 0 0 0 2.031-2.762C8.277 1.301 6.977 0 5.38 0a2.896 2.896 0 1 0-.867 5.66L2.605 7.57a.414.414 0 1 0 .293.707c.106 0 .211-.043.29-.12l1.777-1.778v11.86a2.899 2.899 0 0 0-2.48 2.863A2.9 2.9 0 0 0 5.378 24c1.598 0 2.898-1.3 2.898-2.898a2.9 2.9 0 0 0-2.464-2.86c.195-3.246 2.89-5.828 6.187-5.828 3.563 0 6.508-2.664 6.965-6.105l1.848 1.847a.412.412 0 0 0 .582 0 .41.41 0 0 0 0-.586zM3.308 2.898a2.071 2.071 0 0 1 4.141 0 2.07 2.07 0 0 1-4.14 0zM7.45 21.102a2.071 2.071 0 0 1-4.14 0 2.07 2.07 0 0 1 4.14 0zm9.102-18.204a2.071 2.071 0 0 1 4.14 0 2.07 2.07 0 0 1-4.14 0zm0 0"/>
</svg>
