<svg xmlns="http://www.w3.org/2000/svg" width="32" height="32" viewBox="0 0 24 24">
    <path d="M17.887 5.887h-3.168a.451.451 0 0 0-.453.453c0 .25.199.453.453.453h2.074l-4.34 4.34V1.547l2.399 2.394c.085.09.203.133.316.133a.44.44 0 0 0 .32-.133.448.448 0 0 0 0-.64L12.32.133a.455.455 0 0 0-.64 0L8.512 3.3a.448.448 0 0 0 0 .64.44.44 0 0 0 .32.133c.113 0 .23-.043.316-.133l2.399-2.394v9.586l-4.34-4.34h2.074a.451.451 0 0 0 .453-.453c0-.25-.199-.453-.453-.453H6.113a.453.453 0 0 0-.453.453v3.168c0 .254.203.453.453.453s.453-.2.453-.453V7.434l4.98 4.98v5.281a3.177 3.177 0 0 0-2.714 3.137A3.172 3.172 0 0 0 12 24a3.172 3.172 0 0 0 3.168-3.168 3.177 3.177 0 0 0-2.715-3.137v-5.28l4.98-4.981v2.074c0 .254.204.453.454.453s.453-.2.453-.453V6.34a.453.453 0 0 0-.453-.453zm-3.621 14.945a2.266 2.266 0 0 1-4.532 0A2.267 2.267 0 0 1 12 18.566a2.267 2.267 0 0 1 2.266 2.266zm0 0"/>
</svg>
