<svg xmlns="http://www.w3.org/2000/svg" width="32" height="32" viewBox="0 0 24 24">
    <path d="M23.96875 12.152344C24.011719 12.054688 24.011719 11.945312 23.96875 11.847656 23.949219 11.796875 23.921875 11.753906 23.882812 11.714844L20.28125 8.117188C20.125 7.960938 19.875 7.960938 19.71875 8.117188 19.5625 8.273438 19.5625 8.527344 19.71875 8.683594L22.636719 11.601562 13.199219 11.601562 13.199219 11.199219C13.199219 10.980469 13.019531 10.800781 12.800781 10.800781 12.578125 10.800781 12.398438 10.980469 12.398438 11.199219L12.398438 12C12.398438 12.222656 12.578125 12.398438 12.800781 12.398438L22.636719 12.398438 19.71875 15.316406C19.5625 15.472656 19.5625 15.726562 19.71875 15.882812 19.796875 15.960938 19.898438 16 20 16 20.101562 16 20.207031 15.960938 20.28125 15.882812L23.882812 12.28125C23.921875 12.246094 23.949219 12.203125 23.96875 12.152344zM2.683594 14.117188C2.527344 13.960938 2.273438 13.960938 2.117188 14.117188 1.960938 14.273438 1.960938 14.527344 2.117188 14.683594L5.035156 17.601562.398438 17.601562C.179688 17.601562 0 17.777344 0 18 0 18.222656.179688 18.398438.398438 18.398438L5.035156 18.398438 2.117188 21.316406C1.960938 21.472656 1.960938 21.726562 2.117188 21.882812 2.195312 21.960938 2.296875 22 2.398438 22 2.503906 22 2.605469 21.960938 2.683594 21.882812L6.28125 18.28125C6.359375 18.203125 6.398438 18.101562 6.398438 18 6.398438 17.898438 6.359375 17.796875 6.28125 17.71875zM8.398438 6.398438L9.199219 6.398438C9.421875 6.398438 9.601562 6.222656 9.601562 6 9.601562 5.777344 9.421875 5.601562 9.199219 5.601562L8.398438 5.601562C8.179688 5.601562 8 5.777344 8 6 8 6.222656 8.179688 6.398438 8.398438 6.398438zM10.800781 6.398438L11.601562 6.398438C11.820312 6.398438 12 6.222656 12 6 12 5.777344 11.820312 5.601562 11.601562 5.601562L10.800781 5.601562C10.578125 5.601562 10.398438 5.777344 10.398438 6 10.398438 6.222656 10.578125 6.398438 10.800781 6.398438zM12.800781 10C13.019531 10 13.199219 9.820312 13.199219 9.601562L13.199219 8.800781C13.199219 8.578125 13.019531 8.398438 12.800781 8.398438 12.578125 8.398438 12.398438 8.578125 12.398438 8.800781L12.398438 9.601562C12.398438 9.820312 12.578125 10 12.800781 10zM12.800781 7.601562C13.019531 7.601562 13.199219 7.421875 13.199219 7.199219L13.199219 6.398438C13.199219 6.179688 13.019531 6 12.800781 6 12.578125 6 12.398438 6.179688 12.398438 6.398438L12.398438 7.199219C12.398438 7.421875 12.578125 7.601562 12.800781 7.601562zM10 17.601562L9.199219 17.601562C8.980469 17.601562 8.800781 17.777344 8.800781 18 8.800781 18.222656 8.980469 18.398438 9.199219 18.398438L10 18.398438C10.222656 18.398438 10.398438 18.222656 10.398438 18 10.398438 17.777344 10.222656 17.601562 10 17.601562zM12.398438 17.601562L11.601562 17.601562C11.378906 17.601562 11.199219 17.777344 11.199219 18 11.199219 18.222656 11.378906 18.398438 11.601562 18.398438L12.398438 18.398438C12.621094 18.398438 12.800781 18.222656 12.800781 18 12.800781 17.777344 12.621094 17.601562 12.398438 17.601562zM12.800781 15.601562C12.578125 15.601562 12.398438 15.777344 12.398438 16L12.398438 16.800781C12.398438 17.019531 12.578125 17.199219 12.800781 17.199219 13.019531 17.199219 13.199219 17.019531 13.199219 16.800781L13.199219 16C13.199219 15.777344 13.019531 15.601562 12.800781 15.601562zM7.601562 17.601562L6.800781 17.601562C6.578125 17.601562 6.398438 17.777344 6.398438 18 6.398438 18.222656 6.578125 18.398438 6.800781 18.398438L7.601562 18.398438C7.820312 18.398438 8 18.222656 8 18 8 17.777344 7.820312 17.601562 7.601562 17.601562zM12.800781 13.199219C12.578125 13.199219 12.398438 13.378906 12.398438 13.601562L12.398438 14.398438C12.398438 14.621094 12.578125 14.800781 12.800781 14.800781 13.019531 14.800781 13.199219 14.621094 13.199219 14.398438L13.199219 13.601562C13.199219 13.378906 13.019531 13.199219 12.800781 13.199219zM6.398438 16L11.199219 16 11.199219 8 6.398438 8zM7.199219 8.800781L10.398438 8.800781 10.398438 15.199219 7.199219 15.199219zM.398438 6.398438L5.035156 6.398438 2.117188 9.316406C1.960938 9.472656 1.960938 9.726562 2.117188 9.882812 2.195312 9.960938 2.296875 10 2.398438 10 2.503906 10 2.605469 9.960938 2.683594 9.882812L6.164062 6.398438 6.800781 6.398438C7.019531 6.398438 7.199219 6.222656 7.199219 6 7.199219 5.777344 7.019531 5.601562 6.800781 5.601562L6.164062 5.601562 2.683594 2.117188C2.527344 1.960938 2.273438 1.960938 2.117188 2.117188 1.960938 2.273438 1.960938 2.527344 2.117188 2.683594L5.035156 5.601562.398438 5.601562C.179688 5.601562 0 5.777344 0 6 0 6.222656.179688 6.398438.398438 6.398438zM.398438 6.398438"/>
</svg>
