<svg xmlns="http://www.w3.org/2000/svg" width="32" height="32" viewBox="0 0 24 24">
    <path d="M19.71875 9.882812C19.796875 9.960938 19.898438 10 20 10 20.101562 10 20.207031 9.960938 20.28125 9.882812L23.882812 6.28125C23.921875 6.246094 23.949219 6.203125 23.96875 6.152344 24.011719 6.054688 24.011719 5.945312 23.96875 5.847656 23.949219 5.796875 23.921875 5.753906 23.882812 5.714844L20.28125 2.117188C20.125 1.960938 19.875 1.960938 19.71875 2.117188 19.5625 2.273438 19.5625 2.527344 19.71875 2.683594L22.816406 5.78125C22.773438 5.84375 22.742188 5.917969 22.742188 6 22.742188 6.082031 22.773438 6.152344 22.816406 6.21875L19.71875 9.316406C19.5625 9.472656 19.5625 9.726562 19.71875 9.882812zM23.96875 17.847656C23.949219 17.796875 23.921875 17.753906 23.882812 17.714844L20.28125 14.117188C20.125 13.960938 19.875 13.960938 19.71875 14.117188 19.5625 14.273438 19.5625 14.527344 19.71875 14.683594L22.664062 17.628906C22.511719 17.683594 22.398438 17.828125 22.398438 18 22.398438 18.171875 22.511719 18.316406 22.664062 18.371094L19.71875 21.316406C19.5625 21.472656 19.5625 21.726562 19.71875 21.882812 19.796875 21.960938 19.898438 22 20 22 20.101562 22 20.207031 21.960938 20.28125 21.882812L23.882812 18.28125C23.921875 18.246094 23.949219 18.203125 23.96875 18.152344 24.011719 18.054688 24.011719 17.945312 23.96875 17.847656zM15.953125 6.53125C15.980469 6.53125 16.007812 6.527344 16.035156 6.519531 16.277344 6.46875 16.523438 6.433594 16.773438 6.414062 16.992188 6.398438 17.160156 6.207031 17.140625 5.988281 17.125 5.765625 16.9375 5.605469 16.714844 5.617188 16.429688 5.640625 16.144531 5.679688 15.871094 5.738281 15.652344 5.785156 15.515625 5.996094 15.5625 6.214844 15.601562 6.402344 15.765625 6.53125 15.953125 6.53125zM13.765625 7.480469C13.847656 7.480469 13.925781 7.457031 13.996094 7.40625 14.199219 7.265625 14.414062 7.132812 14.632812 7.019531 14.832031 6.917969 14.90625 6.679688 14.804688 6.480469 14.703125 6.285156 14.464844 6.207031 14.265625 6.308594 14.015625 6.4375 13.769531 6.585938 13.539062 6.75 13.355469 6.878906 13.3125 7.125 13.4375 7.308594 13.515625 7.417969 13.640625 7.480469 13.765625 7.480469zM11.90625 9.140625C11.972656 9.183594 12.046875 9.203125 12.121094 9.203125 12.253906 9.203125 12.382812 9.136719 12.460938 9.015625 12.59375 8.808594 12.738281 8.605469 12.898438 8.414062 13.039062 8.242188 13.019531 7.992188 12.847656 7.851562 12.679688 7.710938 12.425781 7.730469 12.285156 7.902344 12.101562 8.117188 11.933594 8.351562 11.785156 8.589844 11.664062 8.777344 11.722656 9.023438 11.90625 9.140625zM18.34375 6.398438L19.144531 6.398438C19.363281 6.398438 19.542969 6.222656 19.542969 6 19.542969 5.777344 19.363281 5.601562 19.144531 5.601562L18.34375 5.601562C18.121094 5.601562 17.941406 5.777344 17.941406 6 17.941406 6.222656 18.121094 6.398438 18.34375 6.398438zM18.34375 6.398438"/>
    <path d="M21.542969 6.398438C21.765625 6.398438 21.941406 6.222656 21.941406 6 21.941406 5.777344 21.765625 5.601562 21.542969 5.601562L20.742188 5.601562C20.523438 5.601562 20.34375 5.777344 20.34375 6 20.34375 6.222656 20.523438 6.398438 20.742188 6.398438zM18.800781 17.601562L18 17.601562C17.78125 17.601562 17.601562 17.777344 17.601562 18 17.601562 18.222656 17.78125 18.398438 18 18.398438L18.800781 18.398438C19.019531 18.398438 19.199219 18.222656 19.199219 18 19.199219 17.777344 19.019531 17.601562 18.800781 17.601562zM16.457031 17.550781C16.210938 17.519531 15.964844 17.46875 15.722656 17.402344 15.511719 17.34375 15.292969 17.472656 15.234375 17.683594 15.175781 17.898438 15.300781 18.117188 15.515625 18.175781 15.789062 18.25 16.070312 18.308594 16.351562 18.34375 16.367188 18.347656 16.386719 18.347656 16.402344 18.347656 16.601562 18.347656 16.773438 18.203125 16.800781 18 16.828125 17.78125 16.675781 17.582031 16.457031 17.550781zM11.214844 11.429688C11.234375 11.433594 11.257812 11.433594 11.277344 11.433594 11.472656 11.433594 11.640625 11.292969 11.671875 11.097656 11.710938 10.851562 11.769531 10.609375 11.839844 10.371094 11.90625 10.160156 11.785156 9.9375 11.574219 9.871094 11.363281 9.808594 11.140625 9.929688 11.074219 10.140625 10.992188 10.410156 10.929688 10.691406 10.882812 10.96875 10.847656 11.1875 10.996094 11.394531 11.214844 11.429688zM21.199219 18.398438C21.421875 18.398438 21.601562 18.222656 21.601562 18 21.601562 17.777344 21.421875 17.601562 21.199219 17.601562L20.398438 17.601562C20.179688 17.601562 20 17.777344 20 18 20 18.222656 20.179688 18.398438 20.398438 18.398438zM14.355469 16.824219C14.140625 16.699219 13.933594 16.554688 13.738281 16.402344 13.566406 16.265625 13.3125 16.292969 13.175781 16.46875 13.039062 16.640625 13.070312 16.894531 13.242188 17.03125 13.464844 17.207031 13.703125 17.367188 13.945312 17.511719 14.011719 17.550781 14.082031 17.566406 14.148438 17.566406 14.285156 17.566406 14.421875 17.496094 14.496094 17.371094 14.609375 17.179688 14.542969 16.9375 14.355469 16.824219zM11.757812 13.320312C11.699219 13.078125 11.65625 12.832031 11.628906 12.585938 11.617188 12.464844 11.550781 12.367188 11.457031 12.300781 11.542969 12.226562 11.601562 12.121094 11.601562 12 11.601562 11.777344 11.421875 11.601562 11.199219 11.601562L8.164062 11.601562 4.683594 8.117188C4.527344 7.960938 4.273438 7.960938 4.117188 8.117188 3.960938 8.273438 3.960938 8.527344 4.117188 8.683594L7.035156 11.601562.398438 11.601562C.179688 11.601562 0 11.777344 0 12 0 12.222656.179688 12.398438.398438 12.398438L7.035156 12.398438 4.117188 15.316406C3.960938 15.472656 3.960938 15.726562 4.117188 15.882812 4.195312 15.960938 4.296875 16 4.398438 16 4.503906 16 4.605469 15.960938 4.683594 15.882812L8.164062 12.398438 10.910156 12.398438C10.855469 12.476562 10.824219 12.570312 10.835938 12.667969 10.863281 12.949219 10.914062 13.234375 10.980469 13.507812 11.023438 13.691406 11.1875 13.816406 11.367188 13.816406 11.398438 13.816406 11.429688 13.8125 11.460938 13.804688 11.675781 13.75 11.808594 13.535156 11.757812 13.320312zM12.296875 14.707031C12.191406 14.511719 11.945312 14.441406 11.753906 14.550781 11.558594 14.65625 11.488281 14.898438 11.597656 15.09375 11.734375 15.339844 11.886719 15.582031 12.058594 15.8125 12.136719 15.917969 12.257812 15.972656 12.378906 15.972656 12.460938 15.972656 12.546875 15.945312 12.617188 15.894531 12.796875 15.761719 12.832031 15.511719 12.699219 15.332031 12.550781 15.132812 12.417969 14.921875 12.296875 14.707031zM16 8.398438C14.015625 8.398438 12.398438 10.015625 12.398438 12 12.398438 13.984375 14.015625 15.601562 16 15.601562 17.984375 15.601562 19.601562 13.984375 19.601562 12 19.601562 10.015625 17.984375 8.398438 16 8.398438zM16 14.800781C14.457031 14.800781 13.199219 13.542969 13.199219 12 13.199219 10.457031 14.457031 9.199219 16 9.199219 17.542969 9.199219 18.800781 10.457031 18.800781 12 18.800781 13.542969 17.542969 14.800781 16 14.800781zM16 14.800781"/>
</svg>
