<svg xmlns="http://www.w3.org/2000/svg" width="32" height="32" viewBox="0 0 24 24">
    <path d="M 24 11.003906 L 13.765625 0.714844 L 13.765625 6.867188 C 7.945312 6.808594 5.1875 9.328125 5.089844 9.417969 C -1.230469 14.679688 0.113281 22.035156 0.128906 22.109375 L 0.359375 23.285156 L 0.972656 22.253906 C 5.683594 14.335938 12.179688 14.804688 13.765625 15.054688 L 13.765625 21.292969 Z M 0.917969 20.644531 C 0.859375 18.414062 1.328125 13.738281 5.695312 10.105469 C 5.71875 10.082031 8.277344 7.78125 13.636719 7.78125 C 13.824219 7.78125 14.015625 7.78125 14.210938 7.789062 L 14.679688 7.804688 L 14.679688 2.933594 L 22.710938 11.003906 L 14.679688 19.078125 L 14.679688 14.316406 L 14.332031 14.230469 C 14.25 14.210938 6.527344 12.457031 0.917969 20.644531 Z M 0.917969 20.644531"/>
</svg>
