<svg xmlns="http://www.w3.org/2000/svg" width="32" height="32" viewBox="0 0 24 24">
    <path d="M12.832 4.035c-.145-.012-.289-.012-.434-.02V1.364l1.72 1.719a.399.399 0 0 0 .566 0 .4.4 0 0 0 0-.566L12.28.117a.326.326 0 0 0-.129-.086.376.376 0 0 0-.304 0 .432.432 0 0 0-.133.086L9.316 2.516a.4.4 0 0 0 .567.566l1.719-1.719v2.645c-5.11.21-9.204 4.433-9.204 9.594 0 5.156 4.094 9.378 9.204 9.59v.41a.398.398 0 1 0 .796 0v-.524a.395.395 0 0 0 .118-.285.408.408 0 0 0-.118-.273V4.816c.122.008.247.004.368.016.011 0 .023.004.03.004a.402.402 0 0 0 .035-.8zm-9.633 9.567c0-4.72 3.735-8.582 8.403-8.793V22.39c-4.668-.211-8.403-4.075-8.403-8.79zm0 0M14.375 22.074c-.242.07-.492.13-.746.176a.396.396 0 0 0-.316.465.397.397 0 0 0 .464.32c.274-.05.547-.113.813-.191a.397.397 0 0 0 .277-.492.402.402 0 0 0-.492-.278zm0 0M19.96 9.844a.403.403 0 0 0 .536.191.395.395 0 0 0 .188-.531c-.118-.25-.247-.5-.387-.738a.399.399 0 0 0-.547-.145.397.397 0 0 0-.145.547c.13.219.247.45.356.676zm0 0M20.492 11.277c.067.243.121.496.168.746a.4.4 0 0 0 .39.329c.024 0 .048-.004.075-.008a.4.4 0 0 0 .32-.465 8.15 8.15 0 0 0-.183-.813.404.404 0 0 0-.492-.28.402.402 0 0 0-.278.491zm0 0M16.48 21.176c-.218.129-.445.25-.675.363a.395.395 0 0 0-.188.531.398.398 0 0 0 .535.188c.25-.121.496-.254.735-.395a.396.396 0 0 0 .14-.547.401.401 0 0 0-.547-.14zm0 0"/>
    <path d="M15.273 4.57a10.4 10.4 0 0 0-.796-.25.405.405 0 0 0-.493.285.399.399 0 0 0 .286.489c.242.066.488.144.73.23a.402.402 0 0 0 .512-.238.404.404 0 0 0-.239-.516zm0 0M21.008 15.531a.396.396 0 0 0-.488.285c-.063.246-.141.493-.227.73a.402.402 0 0 0 .379.536.398.398 0 0 0 .375-.266c.094-.261.176-.53.246-.8a.4.4 0 0 0-.285-.485zm0 0M21.2 13.145a.398.398 0 0 0-.4.398v.059c0 .234-.01.476-.027.707a.4.4 0 0 0 .368.433h.03a.4.4 0 0 0 .4-.37c.019-.255.03-.513.03-.774v-.055a.398.398 0 0 0-.402-.398zm0 0M20.203 17.785a.398.398 0 0 0-.543.152 9.433 9.433 0 0 1-.406.649.402.402 0 0 0 .328.629.396.396 0 0 0 .328-.176c.16-.23.309-.465.445-.707a.4.4 0 0 0-.152-.547zm0 0M19.332 7.402a9.316 9.316 0 0 0-.566-.613.4.4 0 0 0-.563.57c.18.176.356.368.52.563.078.094.191.14.304.14a.414.414 0 0 0 .262-.093.402.402 0 0 0 .043-.567zm0 0M17.488 5.723a9.888 9.888 0 0 0-.707-.45.4.4 0 1 0-.398.695c.222.126.441.266.644.41a.404.404 0 0 0 .559-.098.4.4 0 0 0-.098-.557zm0 0M18.281 19.766c-.18.18-.367.355-.562.523a.4.4 0 0 0-.04.563c.079.093.188.14.301.14a.39.39 0 0 0 .262-.097c.211-.18.414-.372.61-.57a.393.393 0 0 0-.008-.563.393.393 0 0 0-.563.004zm0 0"/>
</svg>
