<svg xmlns="http://www.w3.org/2000/svg" width="32" height="32" viewBox="0 0 24 24">
    <path d="M 21.875 0 L 2.125 0 C 0.953125 0 0 0.953125 0 2.125 L 0 21.875 C 0 23.046875 0.953125 24 2.125 24 L 21.875 24 C 23.046875 24 24 23.046875 24 21.875 L 24 2.125 C 24 0.953125 23.046875 0 21.875 0 Z M 23.109375 21.875 C 23.109375 22.554688 22.554688 23.109375 21.875 23.109375 L 2.125 23.109375 C 1.445312 23.109375 0.890625 22.554688 0.890625 21.875 L 0.890625 2.125 C 0.890625 1.445312 1.445312 0.890625 2.125 0.890625 L 21.875 0.890625 C 22.554688 0.890625 23.109375 1.445312 23.109375 2.125 Z M 23.109375 21.875"/>
    <path d="M 17.796875 11.242188 L 8.425781 5.832031 C 8.152344 5.671875 7.824219 5.671875 7.550781 5.832031 C 7.273438 5.988281 7.109375 6.273438 7.109375 6.589844 L 7.109375 17.410156 C 7.109375 17.726562 7.273438 18.011719 7.550781 18.167969 C 7.6875 18.25 7.835938 18.289062 7.988281 18.289062 C 8.136719 18.289062 8.289062 18.25 8.425781 18.167969 L 17.796875 12.757812 C 18.070312 12.601562 18.234375 12.316406 18.234375 12 C 18.234375 11.683594 18.070312 11.398438 17.796875 11.242188 Z M 17.351562 11.988281 L 8 17.410156 L 7.980469 6.601562 L 17.351562 11.988281 L 17.574219 12.375 Z M 17.351562 11.988281"/>
</svg>
