<svg xmlns="http://www.w3.org/2000/svg" width="32" height="32" viewBox="0 0 24 24">
    <path d="M23.969 13.55a.376.376 0 0 0 0-.304.414.414 0 0 0-.086-.129l-3.2-3.199a.4.4 0 0 0-.566 0 .396.396 0 0 0 0 .562l2.52 2.52H17.98c-.207-3.344-2.988-6-6.378-6-3.395 0-6.172 2.656-6.383 6H.399a.4.4 0 0 0 0 .8h5.203c.218 0 .398-.179.398-.402a5.606 5.606 0 0 1 5.602-5.597 5.605 5.605 0 0 1 5.597 5.597c0 .223.18.403.403.403h5.035l-2.52 2.515a.4.4 0 0 0 .567.567l3.199-3.2a.37.37 0 0 0 .086-.132zm0 0"/>
    <path d="M11.602 9.8A3.604 3.604 0 0 0 8 13.399 3.605 3.605 0 0 0 11.602 17a3.602 3.602 0 0 0 3.597-3.602 3.6 3.6 0 0 0-3.597-3.597zm0 6.4a2.8 2.8 0 1 1 2.797-2.8 2.8 2.8 0 0 1-2.797 2.8zm0 0"/>
</svg>
