<svg xmlns="http://www.w3.org/2000/svg" width="32" height="32" viewBox="0 0 24 24">
    <path d="M11.281 1.617a9.66 9.66 0 0 1 5.953 2.074H14.31a.462.462 0 0 0 0 .926h4.152a.444.444 0 0 0 .176-.039.454.454 0 0 0 .285-.426V.461a.462.462 0 0 0-.922 0v2.652A10.618 10.618 0 0 0 11.285.691h-.055c-2.82 0-5.464 1.094-7.457 3.086-3.925 3.926-4.117 10.293-.43 14.496a.466.466 0 0 0 .653.043.463.463 0 0 0 .043-.652C.672 13.828.844 8.016 4.43 4.43c1.825-1.828 4.255-2.813 6.852-2.813zm0 0M20.652 5.723a.466.466 0 0 0-.652-.04.458.458 0 0 0-.04.649c3.368 3.84 3.196 9.652-.39 13.238a9.504 9.504 0 0 1-6.851 2.813 9.66 9.66 0 0 1-5.953-2.074H9.69a.462.462 0 0 0 0-.926H5.54a.444.444 0 0 0-.176.039.454.454 0 0 0-.285.426v3.691a.462.462 0 0 0 .922 0v-2.652a10.618 10.618 0 0 0 6.715 2.422h.055c2.82 0 5.464-1.094 7.457-3.086 3.925-3.93 4.117-10.297.425-14.5zm0 0"/>
</svg>
