<svg xmlns="http://www.w3.org/2000/svg" width="32" height="32" viewBox="0 0 24 24">
    <path d="M5.172 18.207a2.898 2.898 0 0 0-2.895 2.895A2.9 2.9 0 0 0 5.172 24c1.598 0 2.898-1.3 2.898-2.898 0-1.594-1.3-2.895-2.898-2.895zm0 4.965c-1.14 0-2.07-.926-2.07-2.07a2.07 2.07 0 0 1 4.14 0c0 1.144-.93 2.07-2.07 2.07zm0 0M8.07 2.898C8.07 1.301 6.77 0 5.172 0a2.9 2.9 0 0 0-2.895 2.898 2.902 2.902 0 0 0 2.48 2.864v8.55L2.98 12.536a.413.413 0 1 0-.582.586l2.48 2.48a.41.41 0 0 0 .294.122.41.41 0 0 0 .293-.121l2.484-2.48a.417.417 0 0 0 0-.587.417.417 0 0 0-.586 0l-1.777 1.777v-8.55A2.902 2.902 0 0 0 8.07 2.898zm-4.968 0a2.071 2.071 0 0 1 4.14 0 2.07 2.07 0 0 1-4.14 0zm0 0M19.242 18.238V6.941c0-2.457-2-4.457-4.46-4.457H11.55L13.328.707a.417.417 0 0 0 0-.586.417.417 0 0 0-.586 0l-2.484 2.484a.467.467 0 0 0-.09.133.442.442 0 0 0 0 .317c.023.05.055.097.09.136l2.484 2.48a.41.41 0 0 0 .293.122.41.41 0 0 0 .293-.121.417.417 0 0 0 0-.586l-1.777-1.777h3.23a3.636 3.636 0 0 1 3.633 3.632v11.297a2.902 2.902 0 0 0-2.484 2.864c0 1.597 1.3 2.898 2.898 2.898a2.9 2.9 0 0 0 2.895-2.898 2.902 2.902 0 0 0-2.48-2.864zm-.414 4.934c-1.14 0-2.07-.926-2.07-2.07a2.07 2.07 0 0 1 4.14 0c0 1.144-.93 2.07-2.07 2.07zm0 0"/>
</svg>
