<svg xmlns="http://www.w3.org/2000/svg" width="32" height="32" viewBox="0 0 24 24">
    <path d="M12 0C5.383 0 0 5.383 0 12s5.383 12 12 12 12-5.383 12-12S18.617 0 12 0zm0 23.11C5.875 23.11.89 18.124.89 12 .89 5.875 5.876.89 12 .89 18.125.89 23.11 5.876 23.11 12c0 6.125-4.985 11.11-11.11 11.11zm0 0"/>
    <path d="M12.836 7.715a.742.742 0 0 0-.652-.38.742.742 0 0 0-.653.38l-3.875 6.71a.744.744 0 0 0 0 .755.746.746 0 0 0 .653.375h7.75c.273 0 .515-.14.652-.375a.744.744 0 0 0 0-.754zm-4.293 6.953l3.64-6.309 3.641 6.309zm0 0"/>
</svg>
