<svg xmlns="http://www.w3.org/2000/svg" width="32" height="32" viewBox="0 0 24 24">
    <path d="M 21.875 0 L 2.125 0 C 0.953125 0 0 0.953125 0 2.125 L 0 21.875 C 0 23.046875 0.953125 24 2.125 24 L 21.875 24 C 23.046875 24 24 23.046875 24 21.875 L 24 2.125 C 24 0.953125 23.046875 0 21.875 0 Z M 23.109375 21.875 C 23.109375 22.554688 22.554688 23.109375 21.875 23.109375 L 2.125 23.109375 C 1.445312 23.109375 0.890625 22.554688 0.890625 21.875 L 0.890625 2.125 C 0.890625 1.445312 1.445312 0.890625 2.125 0.890625 L 21.875 0.890625 C 22.554688 0.890625 23.109375 1.445312 23.109375 2.125 Z M 23.109375 21.875"/>
    <path d="M 12.757812 6.203125 C 12.601562 5.929688 12.316406 5.765625 12 5.765625 C 11.683594 5.765625 11.398438 5.929688 11.242188 6.203125 L 5.832031 15.574219 C 5.671875 15.847656 5.671875 16.175781 5.832031 16.449219 C 5.988281 16.726562 6.273438 16.890625 6.589844 16.890625 L 17.410156 16.890625 C 17.726562 16.890625 18.011719 16.726562 18.167969 16.449219 C 18.328125 16.175781 18.328125 15.847656 18.167969 15.574219 Z M 6.601562 16.019531 L 11.988281 6.648438 L 12.375 6.425781 L 11.988281 6.648438 L 17.410156 16 Z M 6.601562 16.019531"/>
</svg>
