<svg xmlns="http://www.w3.org/2000/svg" width="32" height="32" viewBox="0 0 24 24">
    <path d="M21.875 0H2.125A2.127 2.127 0 0 0 0 2.125v19.75C0 23.047.953 24 2.125 24h19.75A2.127 2.127 0 0 0 24 21.875V2.125A2.127 2.127 0 0 0 21.875 0zm1.234 21.875c0 .68-.554 1.234-1.234 1.234H2.125c-.68 0-1.234-.554-1.234-1.234V2.125c0-.68.554-1.234 1.234-1.234h19.75c.68 0 1.234.554 1.234 1.234zm0 0"/>
    <path d="M12.758 6.203A.865.865 0 0 0 12 5.766a.865.865 0 0 0-.758.437l-5.41 9.371a.857.857 0 0 0 0 .875.86.86 0 0 0 .758.442h10.82a.86.86 0 0 0 .758-.442.857.857 0 0 0 0-.875zM6.602 16.02l5.386-9.372.387-.222-.387.222L17.41 16zm0 0"/>
</svg>
