<svg xmlns="http://www.w3.org/2000/svg" width="32" height="23pt" viewBox="0 0 24 23">
    <path d="M6.234375 6.707031L11.488281 1.671875 11.488281 16.636719C11.488281 16.910156 11.71875 17.128906 12 17.128906 12.28125 17.128906 12.511719 16.910156 12.511719 16.636719L12.511719 1.671875 17.765625 6.707031C17.867188 6.804688 17.996094 6.851562 18.128906 6.851562 18.257812 6.851562 18.390625 6.804688 18.488281 6.707031 18.6875 6.515625 18.6875 6.207031 18.488281 6.015625L12.363281.144531C12.316406.0976562 12.257812.0625 12.195312.0390625 12.070312-.0117188 11.929688-.0117188 11.804688.0390625 11.742188.0625 11.683594.0976562 11.636719.144531L5.511719 6.015625C5.3125 6.207031 5.3125 6.515625 5.511719 6.707031 5.710938 6.898438 6.035156 6.898438 6.234375 6.707031zM.765625 21.042969L23.234375 21.042969C23.515625 21.042969 23.746094 20.824219 23.746094 20.554688 23.746094 20.28125 23.515625 20.0625 23.234375 20.0625L.765625 20.0625C.484375 20.0625.253906 20.28125.253906 20.554688.253906 20.824219.484375 21.042969.765625 21.042969zM23.234375 22.019531L.765625 22.019531C.484375 22.019531.253906 22.238281.253906 22.511719.253906 22.78125.484375 23 .765625 23L23.234375 23C23.515625 23 23.746094 22.78125 23.746094 22.511719 23.746094 22.238281 23.515625 22.019531 23.234375 22.019531zM23.234375 22.019531"/>
</svg>
