<svg xmlns="http://www.w3.org/2000/svg" width="32" height="32" viewBox="0 0 24 24">
    <path d="M2.398438 3.601562L6.800781 3.601562C7.039062 3.601562 7.199219 3.441406 7.199219 3.199219 7.199219 2.960938 7.039062 2.800781 6.800781 2.800781L2.398438 2.800781C2.160156 2.800781 2 2.960938 2 3.199219 2 3.441406 2.160156 3.601562 2.398438 3.601562zM8.398438 3.601562L12 3.601562C12.238281 3.601562 12.398438 3.441406 12.398438 3.199219 12.398438 2.960938 12.238281 2.800781 12 2.800781L8.398438 2.800781C8.160156 2.800781 8 2.960938 8 3.199219 8 3.441406 8.160156 3.601562 8.398438 3.601562zM5.199219 4.800781C5.199219 4.558594 5.039062 4.398438 4.800781 4.398438L2.398438 4.398438C2.160156 4.398438 2 4.558594 2 4.800781 2 5.039062 2.160156 5.199219 2.398438 5.199219L4.800781 5.199219C5.039062 5.199219 5.199219 5.039062 5.199219 4.800781zM6.398438 4.398438C6.160156 4.398438 6 4.558594 6 4.800781 6 5.039062 6.160156 5.199219 6.398438 5.199219L10 5.199219C10.238281 5.199219 10.398438 5.039062 10.398438 4.800781 10.398438 4.558594 10.238281 4.398438 10 4.398438zM12 4.398438L11.601562 4.398438C11.359375 4.398438 11.199219 4.558594 11.199219 4.800781 11.199219 5.039062 11.359375 5.199219 11.601562 5.199219L12 5.199219C12.238281 5.199219 12.398438 5.039062 12.398438 4.800781 12.398438 4.558594 12.238281 4.398438 12 4.398438zM12 4.398438"/>
    <path d="M 22.199219 0.800781 L 1.800781 0.800781 C 0.800781 0.800781 0 1.601562 0 2.601562 L 0 16.601562 C 0 17.601562 0.800781 18.398438 1.800781 18.398438 L 9.480469 18.398438 L 8.878906 20.800781 L 8.800781 20.800781 C 7.679688 20.800781 6.800781 21.679688 6.800781 22.800781 C 6.800781 23.039062 6.960938 23.199219 7.199219 23.199219 L 16.800781 23.199219 C 17.039062 23.199219 17.199219 23.039062 17.199219 22.800781 C 17.199219 21.679688 16.320312 20.800781 15.199219 20.800781 L 15.121094 20.800781 L 14.519531 18.398438 L 22.199219 18.398438 C 23.199219 18.398438 24 17.601562 24 16.601562 L 24 2.601562 C 24 1.601562 23.199219 0.800781 22.199219 0.800781 Z M 0.800781 2.601562 C 0.800781 2.039062 1.238281 1.601562 1.800781 1.601562 L 22.199219 1.601562 C 22.761719 1.601562 23.199219 2.039062 23.199219 2.601562 L 23.199219 14.398438 L 0.800781 14.398438 Z M 16.359375 22.398438 L 7.679688 22.398438 C 7.839844 21.921875 8.28125 21.601562 8.800781 21.601562 L 15.238281 21.601562 C 15.761719 21.601562 16.199219 21.921875 16.359375 22.398438 Z M 14.28125 20.800781 L 9.71875 20.800781 L 10.320312 18.398438 L 13.679688 18.398438 Z M 23.199219 16.601562 C 23.199219 17.160156 22.761719 17.601562 22.199219 17.601562 L 1.800781 17.601562 C 1.238281 17.601562 0.800781 17.160156 0.800781 16.601562 L 0.800781 15.199219 L 23.199219 15.199219 Z M 23.199219 16.601562"/>
    <path d="M 20 9.199219 C 19.808594 9.199219 19.625 9.234375 19.457031 9.296875 L 17.503906 7.34375 C 17.566406 7.175781 17.601562 6.992188 17.601562 6.800781 C 17.601562 5.921875 16.878906 5.199219 16 5.199219 C 15.121094 5.199219 14.398438 5.921875 14.398438 6.800781 C 14.398438 6.992188 14.433594 7.175781 14.496094 7.34375 L 11.613281 10.226562 C 11.375 10.082031 11.097656 10 10.800781 10 C 10.609375 10 10.425781 10.035156 10.257812 10.097656 L 9.503906 9.34375 C 9.566406 9.175781 9.601562 8.992188 9.601562 8.800781 C 9.601562 7.921875 8.878906 7.199219 8 7.199219 C 7.121094 7.199219 6.398438 7.921875 6.398438 8.800781 C 6.398438 8.992188 6.433594 9.175781 6.496094 9.34375 L 5.746094 10.097656 C 5.574219 10.035156 5.390625 10 5.199219 10 C 4.320312 10 3.601562 10.71875 3.601562 11.601562 C 3.601562 12.480469 4.320312 13.199219 5.199219 13.199219 C 6.082031 13.199219 6.800781 12.480469 6.800781 11.601562 C 6.800781 11.199219 6.652344 10.835938 6.40625 10.554688 L 6.953125 10.007812 C 7.234375 10.25 7.601562 10.398438 8 10.398438 C 8.398438 10.398438 8.765625 10.25 9.046875 10.007812 L 9.59375 10.554688 C 9.347656 10.835938 9.199219 11.199219 9.199219 11.601562 C 9.199219 12.480469 9.921875 13.199219 10.800781 13.199219 C 11.679688 13.199219 12.398438 12.480469 12.398438 11.601562 C 12.398438 11.304688 12.316406 11.023438 12.175781 10.785156 L 14.953125 8.007812 C 15.234375 8.25 15.601562 8.398438 16 8.398438 C 16.398438 8.398438 16.765625 8.25 17.046875 8.007812 L 18.792969 9.753906 C 18.546875 10.035156 18.398438 10.402344 18.398438 10.800781 C 18.398438 11.679688 19.121094 12.398438 20 12.398438 C 20.878906 12.398438 21.601562 11.679688 21.601562 10.800781 C 21.601562 9.921875 20.878906 9.199219 20 9.199219 Z M 5.199219 12.398438 C 4.761719 12.398438 4.398438 12.039062 4.398438 11.601562 C 4.398438 11.160156 4.761719 10.800781 5.199219 10.800781 C 5.640625 10.800781 6 11.160156 6 11.601562 C 6 12.039062 5.640625 12.398438 5.199219 12.398438 Z M 8 9.601562 C 7.757812 9.601562 7.535156 9.488281 7.390625 9.316406 C 7.375 9.246094 7.335938 9.175781 7.28125 9.121094 C 7.273438 9.113281 7.265625 9.109375 7.261719 9.101562 C 7.222656 9.007812 7.199219 8.90625 7.199219 8.800781 C 7.199219 8.359375 7.558594 8 8 8 C 8.441406 8 8.800781 8.359375 8.800781 8.800781 C 8.800781 8.90625 8.777344 9.007812 8.738281 9.101562 C 8.734375 9.109375 8.726562 9.113281 8.71875 9.121094 C 8.664062 9.175781 8.625 9.246094 8.609375 9.316406 C 8.464844 9.488281 8.242188 9.601562 8 9.601562 Z M 10.800781 12.398438 C 10.359375 12.398438 10 12.039062 10 11.601562 C 10 11.160156 10.359375 10.800781 10.800781 10.800781 C 11 10.800781 11.179688 10.875 11.320312 10.996094 C 11.332031 11.011719 11.347656 11.027344 11.359375 11.039062 C 11.375 11.054688 11.390625 11.070312 11.410156 11.082031 C 11.527344 11.222656 11.601562 11.402344 11.601562 11.601562 C 11.601562 12.039062 11.238281 12.398438 10.800781 12.398438 Z M 16 7.601562 C 15.558594 7.601562 15.199219 7.238281 15.199219 6.800781 C 15.199219 6.359375 15.558594 6 16 6 C 16.441406 6 16.800781 6.359375 16.800781 6.800781 C 16.800781 6.90625 16.777344 7.007812 16.738281 7.101562 C 16.734375 7.109375 16.726562 7.113281 16.71875 7.121094 C 16.664062 7.175781 16.625 7.246094 16.609375 7.316406 C 16.464844 7.488281 16.242188 7.601562 16 7.601562 Z M 20 11.601562 C 19.558594 11.601562 19.199219 11.238281 19.199219 10.800781 C 19.199219 10.359375 19.558594 10 20 10 C 20.441406 10 20.800781 10.359375 20.800781 10.800781 C 20.800781 11.238281 20.441406 11.601562 20 11.601562 Z M 20 11.601562"/>
</svg>
