<svg xmlns="http://www.w3.org/2000/svg" width="32" height="32" viewBox="0 0 24 24">
    <path d="M10 16.602h10.8c.24 0 .4-.16.4-.403 0-.238-.16-.398-.4-.398h-1.198V7h-2.403V5.398H14V8.2h-2.398v2.403H10V7H6.8v2.398H4.399v6.403H3.2c-.238 0-.398.16-.398.398 0 .242.16.403.398.403zM18.8 7.8v8h-1.6v-8zm-4-.403v-.796c.24 0 .4-.16.4-.403h.8c0 .242.16.403.398.403v.796c-.238 0-.398.16-.398.403 0 .238.16.398.398.398V9c-.238 0-.398.16-.398.398 0 .243.16.403.398.403v.8c-.238 0-.398.16-.398.399 0 .238.16.398.398.398v.801c-.238 0-.398.16-.398.403 0 .238.16.398.398.398v.8c-.238 0-.398.16-.398.4 0 .241.16.402.398.402v.796c-.238 0-.398.16-.398.403h-.8c0-.242-.16-.403-.4-.403v-.796c.24 0 .4-.16.4-.403 0-.238-.16-.398-.4-.398V13c.24 0 .4-.16.4-.398 0-.243-.16-.403-.4-.403v-.8c.24 0 .4-.16.4-.399 0-.238-.16-.398-.4-.398V9.8c.24 0 .4-.16.4-.403 0-.238-.16-.398-.4-.398v-.8c.24 0 .4-.16.4-.4 0-.241-.16-.402-.4-.402zM12.399 9H14v6.8h-1.602zm-.796 2.398v4.403H10v-4.403zm-6.403 4.403v-5.602h1.602v5.602zm2.403 0v-8h1.597v8zm0 0"/>
    <path d="M15.602 7.398c.238 0 .398-.16.398-.398 0-.238-.16-.398-.398-.398-.243 0-.403.16-.403.398 0 .238.16.398.403.398zm0 0M15.602 9c.238 0 .398-.16.398-.398 0-.243-.16-.403-.398-.403-.243 0-.403.16-.403.403 0 .238.16.398.403.398zm0 0M15.602 9.8c-.243 0-.403.16-.403.4 0 .241.16.402.403.402.238 0 .398-.16.398-.403 0-.238-.16-.398-.398-.398zm0 0M15.602 11.398c-.243 0-.403.16-.403.403 0 .238.16.398.403.398.238 0 .398-.16.398-.398 0-.242-.16-.403-.398-.403zm0 0M15.602 13c-.243 0-.403.16-.403.398 0 .243.16.403.403.403.238 0 .398-.16.398-.403 0-.238-.16-.398-.398-.398zm0 0M15.602 14.602c-.243 0-.403.16-.403.398 0 .238.16.398.403.398.238 0 .398-.16.398-.398 0-.238-.16-.398-.398-.398zm0 0"/>
    <path d="M23.602 17.398h-1.204V5c0-.68-.52-1.2-1.199-1.2H2.801c-.68 0-1.2.52-1.2 1.2v12.398H.399c-.238 0-.398.16-.398.403V19c0 .68.52 1.2 1.2 1.2h21.6c.68 0 1.2-.52 1.2-1.2v-1.2c0-.241-.16-.402-.398-.402zM2.398 5c0-.238.16-.398.403-.398h18.398c.242 0 .403.16.403.398v12.398h-6.403c-.238 0-.398.16-.398.403v.398H9.199v-.398c0-.242-.16-.403-.398-.403H2.398zM23.2 19c0 .238-.16.398-.398.398H1.199c-.238 0-.398-.16-.398-.398v-.8h7.597v.402c0 .238.16.398.403.398h6.398c.242 0 .403-.16.403-.398v-.403h7.597zm0 0"/>
</svg>
