<svg xmlns="http://www.w3.org/2000/svg" width="32" height="32" viewBox="0 0 24 24">
    <path d="M 15.199219 20.800781 L 8.800781 20.800781 C 7.679688 20.800781 6.800781 21.679688 6.800781 22.800781 C 6.800781 23.039062 6.960938 23.199219 7.199219 23.199219 L 16.800781 23.199219 C 17.039062 23.199219 17.199219 23.039062 17.199219 22.800781 C 17.199219 21.679688 16.320312 20.800781 15.199219 20.800781 Z M 7.679688 22.398438 C 7.839844 21.921875 8.28125 21.601562 8.800781 21.601562 L 15.238281 21.601562 C 15.761719 21.601562 16.199219 21.921875 16.359375 22.398438 Z M 7.679688 22.398438"/>
    <path d="M15.199219 21.121094L14.398438 17.921875C14.359375 17.71875 14.199219 17.601562 14 17.601562L10 17.601562C9.800781 17.601562 9.640625 17.761719 9.601562 17.921875L8.800781 21.121094C8.800781 21.238281 8.800781 21.359375 8.878906 21.441406 8.960938 21.558594 9.078125 21.601562 9.199219 21.601562L14.800781 21.601562C14.921875 21.601562 15.039062 21.558594 15.121094 21.480469 15.199219 21.359375 15.238281 21.238281 15.199219 21.121094zM9.71875 20.800781L10.320312 18.398438 13.679688 18.398438 14.28125 20.800781zM22.199219.800781L1.800781.800781C.800781.800781 0 1.601562 0 2.601562L0 14.800781C0 15.039062.160156 15.199219.398438 15.199219L23.601562 15.199219C23.839844 15.199219 24 15.039062 24 14.800781L24 2.601562C24 1.601562 23.199219.800781 22.199219.800781zM23.199219 14.398438L.800781 14.398438.800781 2.601562C.800781 2.039062 1.238281 1.601562 1.800781 1.601562L22.199219 1.601562C22.761719 1.601562 23.199219 2.039062 23.199219 2.601562zM23.199219 14.398438"/>
    <path d="M23.601562 14.398438L.398438 14.398438C.160156 14.398438 0 14.558594 0 14.800781L0 16.601562C0 17.601562.800781 18.398438 1.800781 18.398438L22.199219 18.398438C23.199219 18.398438 24 17.601562 24 16.601562L24 14.800781C24 14.558594 23.839844 14.398438 23.601562 14.398438zM23.199219 16.601562C23.199219 17.160156 22.761719 17.601562 22.199219 17.601562L1.800781 17.601562C1.238281 17.601562.800781 17.160156.800781 16.601562L.800781 15.199219 23.199219 15.199219zM13.601562 11.601562C13.359375 11.601562 13.199219 11.761719 13.199219 12L13.199219 13.199219C13.199219 13.441406 13.359375 13.601562 13.601562 13.601562 13.839844 13.601562 14 13.441406 14 13.199219L14 12C14 11.761719 13.839844 11.601562 13.601562 11.601562zM15.199219 10C14.960938 10 14.800781 10.160156 14.800781 10.398438L14.800781 13.199219C14.800781 13.441406 14.960938 13.601562 15.199219 13.601562 15.441406 13.601562 15.601562 13.441406 15.601562 13.199219L15.601562 10.398438C15.601562 10.160156 15.441406 10 15.199219 10zM16.800781 10.800781C16.558594 10.800781 16.398438 10.960938 16.398438 11.199219L16.398438 13.199219C16.398438 13.441406 16.558594 13.601562 16.800781 13.601562 17.039062 13.601562 17.199219 13.441406 17.199219 13.199219L17.199219 11.199219C17.199219 10.960938 17.039062 10.800781 16.800781 10.800781zM18.398438 8C18.160156 8 18 8.160156 18 8.398438L18 13.199219C18 13.441406 18.160156 13.601562 18.398438 13.601562 18.640625 13.601562 18.800781 13.441406 18.800781 13.199219L18.800781 8.398438C18.800781 8.160156 18.640625 8 18.398438 8zM20 9.601562C19.761719 9.601562 19.601562 9.761719 19.601562 10L19.601562 13.199219C19.601562 13.441406 19.761719 13.601562 20 13.601562 20.238281 13.601562 20.398438 13.441406 20.398438 13.199219L20.398438 10C20.398438 9.761719 20.238281 9.601562 20 9.601562zM7 3.199219C4.480469 3.199219 2.398438 5.28125 2.398438 7.800781 2.398438 10.320312 4.480469 12.398438 7 12.398438 9.519531 12.398438 11.601562 10.320312 11.601562 7.800781 11.601562 5.28125 9.519531 3.199219 7 3.199219zM7 11.601562C4.921875 11.601562 3.199219 9.878906 3.199219 7.800781 3.199219 5.71875 4.921875 4 7 4 9.078125 4 10.800781 5.71875 10.800781 7.800781 10.800781 9.878906 9.078125 11.601562 7 11.601562zM7 11.601562"/>
    <path d="M 10.28125 4.558594 C 9.359375 3.640625 8.078125 3.160156 6.800781 3.199219 C 6.679688 3.199219 6.601562 3.238281 6.519531 3.320312 C 6.441406 3.398438 6.398438 3.480469 6.398438 3.601562 L 6.398438 8 C 6.398438 8.199219 6.558594 8.398438 6.800781 8.398438 L 11.199219 8.398438 C 11.28125 8.398438 11.398438 8.359375 11.519531 8.320312 C 11.601562 8.238281 11.640625 8.160156 11.640625 8.039062 C 11.679688 6.71875 11.199219 5.480469 10.28125 4.558594 Z M 7.199219 7.601562 L 7.199219 4 C 8.160156 4.039062 9 4.441406 9.679688 5.121094 C 10.359375 5.800781 10.761719 6.640625 10.800781 7.601562 Z M 7.199219 7.601562"/>
    <path d="M10.039062 10.679688L7.078125 7.71875C6.921875 7.558594 6.679688 7.558594 6.519531 7.71875 6.359375 7.878906 6.359375 8.121094 6.519531 8.28125L9.480469 11.238281C9.558594 11.320312 9.640625 11.359375 9.761719 11.359375 9.878906 11.359375 9.960938 11.320312 10.039062 11.238281 10.199219 11.078125 10.199219 10.839844 10.039062 10.679688zM18 4.800781L14.800781 4.800781C14.558594 4.800781 14.398438 4.960938 14.398438 5.199219 14.398438 5.441406 14.558594 5.601562 14.800781 5.601562L18 5.601562C18.238281 5.601562 18.398438 5.441406 18.398438 5.199219 18.398438 4.960938 18.238281 4.800781 18 4.800781zM20.320312 4.921875C20.28125 4.921875 20.28125 4.878906 20.238281 4.878906 20.199219 4.878906 20.199219 4.839844 20.160156 4.839844 20.121094 4.800781 20.121094 4.800781 20.078125 4.800781 19.960938 4.800781 19.800781 4.839844 19.71875 4.921875 19.640625 5 19.601562 5.078125 19.601562 5.199219 19.601562 5.28125 19.640625 5.320312 19.640625 5.359375 19.640625 5.398438 19.679688 5.441406 19.71875 5.480469 19.800781 5.558594 19.878906 5.601562 20 5.601562 20.039062 5.601562 20.039062 5.601562 20.078125 5.601562 20.121094 5.558594 20.121094 5.558594 20.160156 5.558594 20.199219 5.558594 20.238281 5.519531 20.238281 5.519531 20.28125 5.519531 20.320312 5.480469 20.320312 5.480469 20.359375 5.441406 20.359375 5.398438 20.398438 5.359375 20.441406 5.320312 20.441406 5.238281 20.441406 5.199219 20.441406 5.078125 20.398438 5 20.320312 4.921875zM20 2.800781L18.800781 2.800781C18.558594 2.800781 18.398438 2.960938 18.398438 3.199219 18.398438 3.441406 18.558594 3.601562 18.800781 3.601562L20 3.601562C20.238281 3.601562 20.398438 3.441406 20.398438 3.199219 20.398438 2.960938 20.238281 2.800781 20 2.800781zM15.601562 2.800781L14.800781 2.800781C14.558594 2.800781 14.398438 2.960938 14.398438 3.199219 14.398438 3.441406 14.558594 3.601562 14.800781 3.601562L15.601562 3.601562C15.839844 3.601562 16 3.441406 16 3.199219 16 2.960938 15.839844 2.800781 15.601562 2.800781zM17.519531 2.921875C17.480469 2.921875 17.480469 2.878906 17.441406 2.878906 17.398438 2.878906 17.398438 2.839844 17.359375 2.839844 17.320312 2.800781 17.320312 2.800781 17.28125 2.800781 17.199219 2.800781 17.160156 2.800781 17.121094 2.800781 17.078125 2.839844 17.078125 2.839844 17.039062 2.839844 17 2.839844 17 2.878906 16.960938 2.878906L16.921875 2.921875C16.878906 2.960938 16.839844 3 16.839844 3.039062 16.800781 3.078125 16.800781 3.160156 16.800781 3.199219 16.800781 3.320312 16.839844 3.398438 16.921875 3.480469L16.960938 3.519531C17 3.519531 17 3.558594 17.039062 3.558594 17.078125 3.601562 17.078125 3.601562 17.121094 3.601562 17.160156 3.601562 17.160156 3.601562 17.199219 3.601562 17.238281 3.601562 17.238281 3.601562 17.238281 3.601562 17.28125 3.558594 17.28125 3.558594 17.320312 3.558594 17.359375 3.558594 17.398438 3.519531 17.398438 3.519531 17.441406 3.519531 17.480469 3.480469 17.480469 3.480469 17.558594 3.398438 17.601562 3.320312 17.601562 3.199219 17.601562 3.160156 17.601562 3.078125 17.601562 3.039062 17.601562 3 17.558594 2.960938 17.519531 2.921875zM17.519531 2.921875"/>
</svg>
