<svg xmlns="http://www.w3.org/2000/svg" width="32" height="32" viewBox="0 0 24 24">
    <path d="M14 14.2c-.238 0-.398.16-.398.402V15.8c0 .238.16.398.398.398.238 0 .398-.16.398-.398v-1.2c0-.242-.16-.402-.398-.402zm0 0M15.602 12.602c-.243 0-.403.16-.403.398v2.8c0 .24.16.4.403.4.238 0 .398-.16.398-.4V13c0-.238-.16-.398-.398-.398zm0 0M17.2 13.398c-.24 0-.4.16-.4.403v2c0 .238.16.398.4.398.241 0 .402-.16.402-.398v-2c0-.242-.16-.403-.403-.403zm0 0M18.8 10.602c-.241 0-.402.16-.402.398v4.8c0 .24.16.4.403.4.238 0 .398-.16.398-.4V11c0-.238-.16-.398-.398-.398zm0 0M20.398 12.2c-.238 0-.398.16-.398.402V15.8c0 .238.16.398.398.398.243 0 .403-.16.403-.398v-3.2c0-.242-.16-.402-.403-.402zm0 0M7.8 5.8c-2.519 0-4.6 2.079-4.6 4.598C3.2 12.922 5.28 15 7.8 15c2.52 0 4.598-2.078 4.598-4.602 0-2.52-2.078-4.597-4.597-4.597zm0 8.4C5.72 14.2 4 12.48 4 10.397 4 8.32 5.719 6.602 7.8 6.602c2.079 0 3.802 1.718 3.802 3.796 0 2.082-1.723 3.801-3.801 3.801zm0 0"/>
    <path d="M11.078 7.16c-.918-.922-2.2-1.398-3.476-1.36a.356.356 0 0 0-.282.122.348.348 0 0 0-.12.277v4.403c0 .199.16.398.402.398H12c.078 0 .2-.04.32-.078a.375.375 0 0 0 .121-.281c.04-1.32-.441-2.563-1.363-3.48zM8 10.2V6.601c.96.039 1.8.437 2.48 1.117.68.68 1.079 1.52 1.122 2.48zm0 0"/>
    <path d="M10.84 13.281l-2.961-2.96a.385.385 0 0 0-.559 0 .385.385 0 0 0 0 .558l2.961 2.96c.078.083.16.122.278.122.12 0 .203-.04.28-.121a.385.385 0 0 0 0-.559zm0 0M18.398 7.398H15.2c-.238 0-.398.16-.398.403 0 .238.16.398.398.398h3.2c.242 0 .402-.16.402-.398 0-.242-.16-.403-.403-.403zm0 0M20.719 7.52c-.04 0-.04-.04-.078-.04-.04 0-.04-.039-.082-.039-.04-.043-.04-.043-.079-.043-.12 0-.28.043-.359.122A.361.361 0 0 0 20 7.8c0 .079.04.122.04.16 0 .04.038.08.081.118.078.082.16.121.277.121h.043c.04-.039.04-.039.079-.039s.082-.039.082-.039c.039 0 .078-.043.078-.043a.348.348 0 0 0 .12-.277c0-.121-.038-.2-.081-.281zm0 0M20.398 5.398H19.2c-.238 0-.398.16-.398.403 0 .238.16.398.398.398h1.2c.242 0 .402-.16.402-.398 0-.242-.16-.403-.403-.403zm0 0M16 5.398h-.8c-.24 0-.4.16-.4.403 0 .238.16.398.4.398h.8c.238 0 .398-.16.398-.398 0-.242-.16-.403-.398-.403zm0 0M17.879 5.52c-.04-.04-.078-.04-.117-.079-.16-.082-.32-.043-.442.079a.361.361 0 0 0-.12.28c0 .122.038.2.12.278.078.082.16.121.282.121.117 0 .199-.039.277-.12A.348.348 0 0 0 18 5.8c0-.121-.04-.2-.121-.281zm0 0M23.602 17.398h-8.403c-.238 0-.398.16-.398.403v.398H9.199v-.398c0-.242-.16-.403-.398-.403H.398c-.238 0-.398.16-.398.403V19c0 .68.52 1.2 1.2 1.2h21.6c.68 0 1.2-.52 1.2-1.2v-1.2c0-.241-.16-.402-.398-.402zM23.199 19c0 .238-.16.398-.398.398H1.199c-.238 0-.398-.16-.398-.398v-.8h7.597v.402c0 .238.16.398.403.398h6.398c.242 0 .403-.16.403-.398v-.403h7.597zm0 0"/>
    <path d="M21.2 3.8H2.8c-.679 0-1.198.52-1.198 1.2v12.8c0 .24.16.4.398.4h6.398v.402c0 .238.16.398.403.398h6.398c.242 0 .403-.16.403-.398v-.403H22c.238 0 .398-.16.398-.398V5c0-.68-.52-1.2-1.199-1.2zm.402 13.598h-6.403c-.238 0-.398.16-.398.403v.398H9.199v-.398c0-.242-.16-.403-.398-.403H2.398V5c0-.238.16-.398.403-.398h18.398c.242 0 .403.16.403.398zm0 0"/>
</svg>
