<svg xmlns="http://www.w3.org/2000/svg" width="32" height="32" viewBox="0 0 24 24">
    <path d="M10 14.602v-4.403H6.8v6.403H10zM7.602 11h1.597v2.8H7.602zm1.597 4.8H7.602v-1.198h1.597zm0 0M13.602 14.602V7.8h-3.204v8.8h3.204zm-2.403-6h1.602V13.8h-1.602zm1.602 7.199h-1.602v-1.2h1.602zm0 0M17.2 14.602v-4H14v6h3.2zm-2.4-3.204h1.598v2.403h-1.597zm1.598 4.403h-1.597v-1.2h1.597zm0 0M20.8 14.602V5.398h-3.198v11.204H20.8zm-2.402-8.403H20v7.602h-1.602zM20 15.801h-1.602v-1.2H20zm0 0M3.2 13.8v2.802h3.198V11.8H3.2zm2.402 2H4v-1.198h1.602zM4 12.603h1.602V13.8H4zm0 0M6.8 6.2c0-.24-.16-.4-.402-.4h-2C4.16 5.8 4 5.96 4 6.2c0 .241.16.402.398.402h1.043l-2.12 2.117a.39.39 0 0 0 0 .562c.077.078.16.117.28.117.118 0 .2-.039.278-.117L6 7.161v1.038c0 .242.16.403.398.403.243 0 .403-.16.403-.403zm0 0"/>
    <path d="M23.602 17.398h-1.204V5c0-.68-.52-1.2-1.199-1.2H2.801c-.68 0-1.2.52-1.2 1.2v12.398H.399c-.238 0-.398.16-.398.403V19c0 .68.52 1.2 1.2 1.2h21.6c.68 0 1.2-.52 1.2-1.2v-1.2c0-.241-.16-.402-.398-.402zM2.398 5c0-.238.16-.398.403-.398h18.398c.242 0 .403.16.403.398v12.398h-6.403c-.238 0-.398.16-.398.403v.398H9.199v-.398c0-.242-.16-.403-.398-.403H2.398zM23.2 19c0 .238-.16.398-.398.398H1.199c-.238 0-.398-.16-.398-.398v-.8h7.597v.402c0 .238.16.398.403.398h6.398c.242 0 .403-.16.403-.398v-.403h7.597zm0 0"/>
</svg>
