<svg xmlns="http://www.w3.org/2000/svg" width="32" height="32" viewBox="0 0 24 24">
    <path d="M 21.347656 1.652344 C 19.144531 -0.550781 15.621094 -0.550781 13.417969 1.652344 L 2.964844 12.144531 C 2.804688 12.304688 2.804688 12.546875 2.964844 12.707031 C 3.125 12.867188 3.363281 12.867188 3.523438 12.707031 L 13.976562 2.210938 C 15.859375 0.332031 18.902344 0.332031 20.785156 2.210938 C 22.667969 4.09375 22.667969 7.140625 20.785156 9.019531 L 7.609375 22.199219 C 6.289062 23.519531 4.125 23.519531 2.804688 22.199219 C 1.480469 20.875 1.480469 18.714844 2.804688 17.390625 L 13.417969 6.738281 C 14.21875 5.976562 15.460938 5.9375 16.261719 6.738281 C 17.019531 7.539062 17.019531 8.820312 16.261719 9.582031 L 8.332031 17.550781 C 8.171875 17.710938 8.171875 17.953125 8.332031 18.113281 C 8.492188 18.273438 8.730469 18.273438 8.890625 18.113281 L 16.820312 10.183594 C 17.902344 9.101562 17.902344 7.300781 16.820312 6.21875 C 15.738281 5.136719 13.9375 5.136719 12.855469 6.21875 L 2.242188 16.832031 C 0.601562 18.433594 0.601562 21.117188 2.242188 22.757812 C 3.042969 23.597656 4.125 24 5.207031 24 C 6.289062 24 7.371094 23.597656 8.171875 22.757812 L 21.347656 9.582031 C 22.386719 8.539062 22.988281 7.097656 22.988281 5.617188 C 22.988281 4.136719 22.386719 2.695312 21.347656 1.652344 Z M 21.347656 1.652344"/>
</svg>
