<svg xmlns="http://www.w3.org/2000/svg" width="32" height="32" viewBox="0 0 24 24">
    <path d="M22.797 4.805H18.78A4.386 4.386 0 0 0 14.801.82V.402c0-.117-.082-.238-.16-.32-.121-.078-.243-.117-.36-.039-1.48.48-3.082.48-4.562 0-.117-.04-.278-.04-.36.039-.078.082-.16.203-.16.32V.82a4.386 4.386 0 0 0-3.98 3.985H1.203C.523 4.805 0 5.325 0 6.004V12.8c0 .441.363.8.8.8v9.2C.8 23.48 1.32 24 2 24h20c.68 0 1.2-.52 1.2-1.2v-9.198c.437 0 .8-.36.8-.801V6.004c0-.68-.523-1.2-1.203-1.2zm0 .797c.242 0 .402.16.402.402V6.8h-.8c-.239 0-.399-.156-.399-.399v-.8zm-4.836-.797h-.8A2.72 2.72 0 0 0 14.8 2.44v-.796c1.636.16 2.957 1.48 3.16 3.16zm-8.602-.883c.082.043.16.082.243.082.039 0 .078 0 .117-.04a7.401 7.401 0 0 1 4.562 0c.117.04.239.04.36-.042.078-.078.16-.2.16-.32v-.36a1.967 1.967 0 0 1 1.558 1.563H7.641a1.967 1.967 0 0 1 1.558-1.563v.36c0 .12.082.242.16.32zm.641-3c1.32.363 2.68.363 4 0v2.121a8.445 8.445 0 0 0-4 0zm-.8.723v.796a2.76 2.76 0 0 0-2.36 2.364h-.8c.16-1.68 1.48-3 3.16-3.16zM.8 6.004c0-.242.16-.402.403-.402H2v.8c0 .243-.16.399-.398.399H.8zM2 23.199c-.238 0-.398-.16-.398-.398V22h.8c.239 0 .399.16.399.398v.801zm20.398-.398c0 .238-.16.398-.398.398h-.8v-.8c0-.239.16-.399.398-.399h.8zm0-1.602h-.8c-.68 0-1.2.52-1.2 1.2v.8H3.602v-.8c0-.68-.52-1.2-1.2-1.2h-.8v-7.597H8.8V14c0 .68.52 1.203 1.199 1.203h4c.68 0 1.2-.523 1.2-1.203v-.398h7.198zm-8-7.996V14c0 .242-.16.402-.398.402h-4c-.238 0-.398-.16-.398-.402v-1.598c0-.242.16-.402.398-.402h4c.238 0 .398.16.398.402zm8.399-.402h-7.598v-.399c0-.68-.52-1.199-1.199-1.199h-4c-.68 0-1.2.52-1.2 1.2v.398h-8V7.6h.802c.68 0 1.199-.519 1.199-1.199v-.8h18.398v.8c0 .68.52 1.2 1.2 1.2h.8V12.8zm0 0"/>
</svg>
