<svg xmlns="http://www.w3.org/2000/svg" width="32" height="32" viewBox="0 0 24 24">
    <path d="M22.2.8H1.8C.8.8 0 1.603 0 2.603v14c0 1 .8 1.796 1.8 1.796h7.68l-.601 2.403H8.8c-1.121 0-2 .879-2 2 0 .238.16.398.398.398h9.602c.238 0 .398-.16.398-.398 0-1.121-.879-2-2-2h-.078l-.601-2.403h7.68c1 0 1.8-.796 1.8-1.796v-14c0-1-.8-1.801-1.8-1.801zM.8 2.603c0-.563.438-1 1-1h20.4c.562 0 1 .437 1 1v11.796H.8zm15.56 19.796H7.68c.16-.476.601-.796 1.12-.796h6.438c.524 0 .961.32 1.121.796zm-2.079-1.597H9.72l.601-2.403h3.36zm8.918-4.2a.99.99 0 0 1-1 1H1.801a.99.99 0 0 1-1-1V15.2h22.398zm0 0"/>
    <path d="M20 12.398h-6c-.238 0-.398.16-.398.403 0 .238.16.398.398.398h6c.238 0 .398-.16.398-.398 0-.242-.16-.403-.398-.403zm0 0M8.398 10.398c0-.238-.16-.398-.398-.398H4c-.238 0-.398.16-.398.398 0 .243.16.403.398.403h4c.238 0 .398-.16.398-.403zm0 0M12 10.8h6c.238 0 .398-.16.398-.402 0-.238-.16-.398-.398-.398h-6c-.238 0-.398.16-.398.398 0 .243.16.403.398.403zm0 0M12 12.398H6c-.238 0-.398.16-.398.403 0 .238.16.398.398.398h6c.238 0 .398-.16.398-.398 0-.242-.16-.403-.398-.403zm0 0M20 5.2h-6c-.238 0-.398.16-.398.402 0 .238.16.398.398.398h6c.238 0 .398-.16.398-.398 0-.243-.16-.403-.398-.403zm0 0M20 7.602h-4c-.238 0-.398.16-.398.398 0 .238.16.398.398.398h4c.238 0 .398-.16.398-.398 0-.238-.16-.398-.398-.398zm0 0M12 8.398h.8c.24 0 .4-.16.4-.398 0-.238-.16-.398-.4-.398H12c-.238 0-.398.16-.398.398 0 .238.16.398.398.398zm0 0M12 3.602h6c.238 0 .398-.16.398-.403 0-.238-.16-.398-.398-.398h-6c-.238 0-.398.16-.398.398 0 .242.16.403.398.403zm0 0M10 2.398H3.602v6.403H10zM9.2 8H4.397V3.2H9.2zm0 0"/>
</svg>
