<svg xmlns="http://www.w3.org/2000/svg" width="32" height="32" viewBox="0 0 24 24">
    <path d="M 13.382812 10.398438 C 14.265625 10.398438 14.984375 9.679688 14.984375 8.800781 C 14.984375 7.921875 14.265625 7.199219 13.382812 7.199219 C 12.503906 7.199219 11.785156 7.921875 11.785156 8.800781 C 11.785156 9.679688 12.503906 10.398438 13.382812 10.398438 Z M 13.382812 8 C 13.824219 8 14.183594 8.359375 14.183594 8.800781 C 14.183594 9.238281 13.824219 9.601562 13.382812 9.601562 C 12.945312 9.601562 12.585938 9.238281 12.585938 8.800781 C 12.585938 8.359375 12.945312 8 13.382812 8 Z M 13.382812 8"/>
    <path d="M 19.222656 21.238281 L 18.703125 19.320312 C 18.664062 19.238281 18.585938 19.121094 18.503906 19.078125 C 18.398438 19.046875 18.324219 19.011719 18.230469 19.027344 L 18.039062 18.285156 C 18.179688 18.199219 18.257812 18.007812 18.222656 17.839844 L 16.199219 10.320312 C 16.445312 9.867188 16.585938 9.347656 16.585938 8.800781 C 16.585938 7.464844 15.753906 6.3125 14.585938 5.835938 L 14.585938 4.800781 L 14.984375 4.800781 C 15.222656 4.800781 15.382812 4.640625 15.382812 4.398438 L 15.382812 2 C 15.382812 0.878906 14.503906 0 13.382812 0 C 12.265625 0 11.382812 0.878906 11.382812 2 L 11.382812 4.398438 C 11.382812 4.640625 11.542969 4.800781 11.785156 4.800781 L 12.183594 4.800781 L 12.183594 5.835938 C 11.015625 6.3125 10.183594 7.464844 10.183594 8.800781 C 10.183594 9.316406 10.308594 9.804688 10.527344 10.234375 L 7.746094 17.921875 C 7.671875 18.117188 7.605469 18.3125 7.542969 18.511719 L 7.179688 18.378906 L 7.464844 17.640625 C 7.503906 17.519531 7.503906 17.398438 7.464844 17.320312 C 7.425781 17.238281 7.304688 17.160156 7.222656 17.121094 L 6.105469 16.71875 C 5.902344 16.640625 5.664062 16.761719 5.585938 16.960938 L 4.746094 19.199219 C 4.664062 19.398438 4.785156 19.640625 4.984375 19.71875 L 6.105469 20.121094 C 6.144531 20.160156 6.183594 20.160156 6.222656 20.160156 C 6.265625 20.160156 6.34375 20.160156 6.382812 20.160156 C 6.464844 20.121094 6.542969 20 6.585938 19.917969 L 6.886719 19.136719 L 7.316406 19.289062 C 7.121094 20.058594 6.996094 20.839844 6.945312 21.640625 L 6.863281 22.679688 C 6.863281 22.839844 6.984375 23 7.144531 23.078125 L 7.15625 23.082031 L 7.023438 23.441406 C 6.945312 23.640625 7.0625 23.878906 7.265625 23.960938 C 7.304688 24 7.34375 24 7.382812 24 C 7.542969 24 7.703125 23.878906 7.746094 23.761719 L 7.894531 23.355469 L 7.902344 23.359375 C 7.945312 23.398438 7.984375 23.398438 8.023438 23.398438 C 8.144531 23.398438 8.265625 23.320312 8.34375 23.199219 L 8.945312 22.320312 C 9.703125 21.28125 10.304688 20.160156 10.746094 18.960938 L 11.183594 17.71875 C 11.222656 17.601562 11.222656 17.480469 11.144531 17.359375 C 10.863281 16.960938 10.824219 16.441406 10.984375 15.960938 C 11.144531 15.519531 11.542969 15.160156 12.023438 15 C 12.144531 14.960938 12.222656 14.878906 12.265625 14.761719 L 13.316406 12 C 13.339844 12 13.359375 12 13.378906 12 L 14.550781 16.308594 L 14.195312 16.40625 L 13.984375 15.640625 C 13.945312 15.558594 13.863281 15.441406 13.785156 15.398438 C 13.664062 15.359375 13.585938 15.320312 13.464844 15.359375 L 12.304688 15.679688 C 12.105469 15.71875 11.984375 15.960938 12.023438 16.160156 L 12.664062 18.480469 C 12.746094 18.640625 12.90625 18.761719 13.0625 18.761719 C 13.0625 18.761719 13.105469 18.761719 13.183594 18.800781 L 14.34375 18.480469 C 14.425781 18.441406 14.542969 18.398438 14.585938 18.28125 C 14.625 18.160156 14.664062 18.078125 14.625 17.960938 L 14.40625 17.164062 L 14.757812 17.066406 L 15.183594 18.640625 C 15.265625 18.800781 15.425781 18.917969 15.585938 18.917969 C 15.625 18.917969 15.664062 18.878906 15.625 18.960938 L 15.691406 18.941406 L 15.878906 19.675781 L 15.863281 19.679688 C 15.664062 19.71875 15.542969 19.960938 15.585938 20.160156 L 16.105469 22.078125 C 16.304688 22.800781 16.945312 23.28125 17.664062 23.28125 C 17.664062 23.28125 17.667969 23.28125 17.667969 23.28125 L 17.785156 23.71875 C 17.863281 23.878906 18.023438 24 18.183594 24 C 18.222656 24 18.265625 24 18.265625 24 C 18.464844 23.960938 18.585938 23.71875 18.542969 23.519531 L 18.425781 23.066406 C 18.691406 22.917969 18.917969 22.699219 19.0625 22.441406 C 19.265625 22.078125 19.34375 21.640625 19.222656 21.238281 Z M 5.984375 19.238281 L 5.625 19.121094 L 6.144531 17.601562 L 6.542969 17.71875 Z M 13.304688 17.878906 L 12.90625 16.320312 L 13.304688 16.199219 L 13.5 16.957031 C 13.5 16.972656 13.5 16.984375 13.503906 17 C 13.507812 17.007812 13.511719 17.011719 13.515625 17.019531 L 13.703125 17.761719 Z M 15.664062 11.039062 L 17.425781 17.601562 L 15.863281 18 L 14.226562 11.886719 C 14.320312 11.859375 14.410156 11.832031 14.5 11.796875 C 14.636719 11.75 14.773438 11.6875 14.90625 11.613281 C 14.910156 11.609375 14.914062 11.609375 14.917969 11.605469 C 14.945312 11.589844 14.976562 11.574219 15.003906 11.554688 C 15.210938 11.433594 15.40625 11.285156 15.582031 11.121094 C 15.589844 11.113281 15.597656 11.105469 15.605469 11.097656 C 15.621094 11.082031 15.636719 11.066406 15.652344 11.050781 C 15.65625 11.046875 15.660156 11.042969 15.664062 11.039062 Z M 12.183594 2 C 12.183594 1.320312 12.703125 0.800781 13.382812 0.800781 C 14.0625 0.800781 14.585938 1.320312 14.585938 2 L 14.585938 4 L 12.183594 4 Z M 12.984375 4.800781 L 13.785156 4.800781 L 13.785156 5.625 C 13.742188 5.621094 13.699219 5.617188 13.65625 5.613281 C 13.5625 5.601562 13.464844 5.601562 13.382812 5.601562 C 13.304688 5.601562 13.207031 5.601562 13.113281 5.613281 C 13.070312 5.617188 13.027344 5.621094 12.984375 5.625 Z M 12.59375 6.535156 C 12.632812 6.535156 12.667969 6.53125 12.703125 6.519531 C 13.144531 6.398438 13.625 6.398438 14.0625 6.519531 C 14.085938 6.519531 14.109375 6.519531 14.128906 6.519531 C 15.085938 6.835938 15.785156 7.738281 15.785156 8.800781 C 15.785156 9.210938 15.679688 9.601562 15.496094 9.9375 C 15.46875 9.96875 15.445312 10 15.425781 10.039062 C 15.367188 10.140625 15.300781 10.238281 15.230469 10.328125 C 14.789062 10.859375 14.125 11.199219 13.382812 11.199219 C 13.335938 11.199219 13.289062 11.199219 13.242188 11.195312 C 13.199219 11.171875 13.152344 11.160156 13.105469 11.160156 C 12.414062 11.082031 11.761719 10.675781 11.355469 10.078125 C 11.121094 9.707031 10.984375 9.269531 10.984375 8.800781 C 10.984375 7.757812 11.660156 6.863281 12.59375 6.535156 Z M 11.625 14.320312 C 10.984375 14.558594 10.503906 15.078125 10.265625 15.71875 C 10.0625 16.359375 10.105469 17.078125 10.425781 17.679688 L 10.023438 18.761719 C 9.625 19.878906 9.0625 20.960938 8.34375 21.921875 L 7.90625 22.519531 L 7.703125 22.441406 L 7.746094 21.71875 C 7.824219 20.519531 8.105469 19.320312 8.503906 18.199219 L 11.105469 11.039062 C 11.109375 11.042969 11.113281 11.046875 11.117188 11.050781 C 11.132812 11.066406 11.148438 11.082031 11.164062 11.097656 C 11.171875 11.105469 11.179688 11.113281 11.1875 11.117188 C 11.5625 11.476562 12.027344 11.746094 12.542969 11.886719 Z M 17.234375 18.515625 L 17.425781 19.238281 L 16.664062 19.441406 L 16.476562 18.726562 Z M 18.34375 22.078125 C 18.222656 22.238281 18.0625 22.398438 17.863281 22.441406 C 17.425781 22.558594 16.984375 22.320312 16.863281 21.878906 L 16.46875 20.34375 C 16.480469 20.34375 16.492188 20.347656 16.503906 20.359375 L 18.035156 19.96875 L 18.425781 21.480469 C 18.464844 21.679688 18.464844 21.878906 18.34375 22.078125 Z M 18.34375 22.078125"/>
</svg>
