<svg xmlns="http://www.w3.org/2000/svg" width="32" height="32" viewBox="0 0 24 24">
    <path d="M23.969 3.5c-.117-.719-.52-1.32-1.157-1.64L20.457.581c-1.836-.996-4.113-.637-5.59.84L3.81 12.48c-.48.442-.68 1.079-.602 1.72.055.417.227.8.496 1.105L.133 18.91c-.117.117-.156.277-.117.399l1.195 4.39c.043.121.16.242.281.281h.121c.117 0 .2-.039.278-.12l5.93-5.97.3.18c.36.2.797.32 1.195.32.602 0 1.2-.238 1.68-.68L23.332 5.376c.52-.48.758-1.16.637-1.875zM1.812 22.82l-.96-3.511 3.503-3.504L7.172 17.5zM22.773 4.816L10.395 17.191c-.477.52-1.278.602-1.875.243l-.356-.215A.434.434 0 0 0 8 17.03l-3.512-2.113a.372.372 0 0 0-.105-.035 1.286 1.286 0 0 1-.375-.766c-.04-.398.078-.797.36-1.078L15.425 1.98A3.996 3.996 0 0 1 18.219.824c.64 0 1.281.16 1.879.477l2.355 1.277c.399.203.637.602.719 1.04.078.44-.082.878-.399 1.198zm0 0"/>
    <path d="M20.895 4.137l-5.989 5.988a.385.385 0 0 0 0 .559c.082.082.16.12.281.12.118 0 .2-.038.278-.12l5.988-5.989a.385.385 0 0 0 0-.558.385.385 0 0 0-.558 0zm0 0"/>
</svg>
