<svg xmlns="http://www.w3.org/2000/svg" width="32" height="32" viewBox="0 0 24 24">
    <path d="M 6.398438 12.238281 L 6.398438 11.398438 L 11.601562 11.398438 L 11.601562 12.238281 C 10.675781 12.417969 10 13.21875 10 14.199219 C 10 15.320312 10.878906 16.199219 12 16.199219 C 13.121094 16.199219 14 15.320312 14 14.199219 C 14 13.21875 13.324219 12.417969 12.398438 12.238281 L 12.398438 11.398438 L 17.601562 11.398438 L 17.601562 12.238281 C 16.675781 12.417969 16 13.21875 16 14.199219 C 16 15.320312 16.878906 16.199219 18 16.199219 C 19.121094 16.199219 20 15.320312 20 14.199219 C 20 13.21875 19.324219 12.417969 18.398438 12.238281 L 18.398438 10.601562 L 12.398438 10.601562 L 12.398438 9 L 13.601562 9 L 13.601562 5.800781 L 10.398438 5.800781 L 10.398438 9 L 11.601562 9 L 11.601562 10.601562 L 5.601562 10.601562 L 5.601562 12.238281 C 4.675781 12.417969 4 13.21875 4 14.199219 C 4 15.320312 4.878906 16.199219 6 16.199219 C 7.121094 16.199219 8 15.320312 8 14.199219 C 8 13.21875 7.324219 12.417969 6.398438 12.238281 Z M 13.199219 14.199219 C 13.199219 14.878906 12.679688 15.398438 12 15.398438 C 11.320312 15.398438 10.800781 14.878906 10.800781 14.199219 C 10.800781 13.519531 11.320312 13 12 13 C 12.679688 13 13.199219 13.519531 13.199219 14.199219 Z M 19.199219 14.199219 C 19.199219 14.878906 18.679688 15.398438 18 15.398438 C 17.320312 15.398438 16.800781 14.878906 16.800781 14.199219 C 16.800781 13.519531 17.320312 13 18 13 C 18.679688 13 19.199219 13.519531 19.199219 14.199219 Z M 11.199219 6.601562 L 12.800781 6.601562 L 12.800781 8.199219 L 11.199219 8.199219 Z M 6 15.398438 C 5.320312 15.398438 4.800781 14.878906 4.800781 14.199219 C 4.800781 13.519531 5.320312 13 6 13 C 6.679688 13 7.199219 13.519531 7.199219 14.199219 C 7.199219 14.878906 6.679688 15.398438 6 15.398438 Z M 6 15.398438"/>
    <path d="M 23.601562 17.398438 L 22.398438 17.398438 L 22.398438 5 C 22.398438 4.320312 21.878906 3.800781 21.199219 3.800781 L 2.800781 3.800781 C 2.121094 3.800781 1.601562 4.320312 1.601562 5 L 1.601562 17.398438 L 0.398438 17.398438 C 0.160156 17.398438 0 17.558594 0 17.800781 L 0 19 C 0 19.679688 0.519531 20.199219 1.199219 20.199219 L 22.800781 20.199219 C 23.480469 20.199219 24 19.679688 24 19 L 24 17.800781 C 24 17.558594 23.839844 17.398438 23.601562 17.398438 Z M 2.398438 5 C 2.398438 4.761719 2.558594 4.601562 2.800781 4.601562 L 21.199219 4.601562 C 21.441406 4.601562 21.601562 4.761719 21.601562 5 L 21.601562 17.398438 L 15.199219 17.398438 C 14.960938 17.398438 14.800781 17.558594 14.800781 17.800781 L 14.800781 18.199219 L 9.199219 18.199219 L 9.199219 17.800781 C 9.199219 17.558594 9.039062 17.398438 8.800781 17.398438 L 2.398438 17.398438 Z M 23.199219 19 C 23.199219 19.238281 23.039062 19.398438 22.800781 19.398438 L 1.199219 19.398438 C 0.960938 19.398438 0.800781 19.238281 0.800781 19 L 0.800781 18.199219 L 8.398438 18.199219 L 8.398438 18.601562 C 8.398438 18.839844 8.558594 19 8.800781 19 L 15.199219 19 C 15.441406 19 15.601562 18.839844 15.601562 18.601562 L 15.601562 18.199219 L 23.199219 18.199219 Z M 23.199219 19"/>
</svg>
