<svg xmlns="http://www.w3.org/2000/svg" width="32" height="32" viewBox="0 0 24 24">
    <path d="M 24 22.199219 L 24 4.601562 C 24 4.359375 23.839844 4.199219 23.601562 4.199219 L 14.960938 4.199219 L 12.28125 1.519531 C 12.121094 1.359375 11.878906 1.359375 11.71875 1.519531 L 9.039062 4.199219 L 0.398438 4.199219 C 0.160156 4.199219 0 4.359375 0 4.601562 L 0 22.199219 C 0 22.441406 0.160156 22.601562 0.398438 22.601562 L 23.601562 22.601562 C 23.839844 22.601562 24 22.441406 24 22.199219 Z M 22.640625 5 L 21.839844 5.800781 L 2.160156 5.800781 L 1.359375 5 Z M 2.398438 6.601562 L 21.601562 6.601562 L 21.601562 20.199219 L 2.398438 20.199219 Z M 1.601562 6.359375 L 1.601562 20.441406 L 0.800781 21.238281 L 0.800781 5.558594 Z M 2.160156 21 L 21.839844 21 L 22.640625 21.800781 L 1.359375 21.800781 Z M 22.398438 20.441406 L 22.398438 6.359375 L 23.199219 5.558594 L 23.199219 21.238281 Z M 12 2.359375 L 13.839844 4.199219 L 10.160156 4.199219 Z M 12 2.359375"/>
    <path d="M12.398438 9.398438C12.398438 9.160156 12.238281 9 12 9 11.121094 9 10.398438 9.71875 10.398438 10.601562 10.398438 10.839844 10.558594 11 10.800781 11 11.039062 11 11.199219 10.839844 11.199219 10.601562 11.199219 10.160156 11.558594 9.800781 12 9.800781 12.238281 9.800781 12.398438 9.640625 12.398438 9.398438zM13.199219 10.199219C12.960938 10.199219 12.800781 10.359375 12.800781 10.601562 12.800781 11.039062 12.441406 11.398438 12 11.398438 11.761719 11.398438 11.601562 11.558594 11.601562 11.800781 11.601562 12.039062 11.761719 12.199219 12 12.199219 12.878906 12.199219 13.601562 11.480469 13.601562 10.601562 13.601562 10.359375 13.441406 10.199219 13.199219 10.199219zM12.398438 15.800781L8.398438 15.800781C8.160156 15.800781 8 15.960938 8 16.199219 8 16.441406 8.160156 16.601562 8.398438 16.601562L12.398438 16.601562C12.640625 16.601562 12.800781 16.441406 12.800781 16.199219 12.800781 15.960938 12.640625 15.800781 12.398438 15.800781zM6 16.601562L6.800781 16.601562C7.039062 16.601562 7.199219 16.441406 7.199219 16.199219 7.199219 15.960938 7.039062 15.800781 6.800781 15.800781L6 15.800781C5.761719 15.800781 5.601562 15.960938 5.601562 16.199219 5.601562 16.441406 5.761719 16.601562 6 16.601562zM18.800781 17.398438L14.398438 17.398438C14.160156 17.398438 14 17.558594 14 17.800781 14 18.039062 14.160156 18.199219 14.398438 18.199219L18.800781 18.199219C19.039062 18.199219 19.199219 18.039062 19.199219 17.800781 19.199219 17.558594 19.039062 17.398438 18.800781 17.398438zM15.039062 16.519531L15.960938 15.878906C16.480469 16.320312 17.078125 16.320312 17.480469 16.238281L18.121094 16.878906C18.199219 16.960938 18.28125 17 18.398438 17 18.519531 17 18.601562 16.960938 18.679688 16.878906 18.839844 16.71875 18.839844 16.480469 18.679688 16.320312L17.878906 15.519531C17.761719 15.398438 17.601562 15.359375 17.441406 15.441406 17.398438 15.441406 16.839844 15.679688 16.320312 15.121094 16.199219 14.960938 15.960938 14.921875 15.800781 15.039062L14.601562 15.839844C14.398438 15.960938 14.359375 16.199219 14.480469 16.398438 14.601562 16.601562 14.839844 16.640625 15.039062 16.519531zM9.199219 17.398438L6 17.398438C5.761719 17.398438 5.601562 17.558594 5.601562 17.800781 5.601562 18.039062 5.761719 18.199219 6 18.199219L9.199219 18.199219C9.441406 18.199219 9.601562 18.039062 9.601562 17.800781 9.601562 17.558594 9.441406 17.398438 9.199219 17.398438zM12.398438 17.398438L10.800781 17.398438C10.558594 17.398438 10.398438 17.558594 10.398438 17.800781 10.398438 18.039062 10.558594 18.199219 10.800781 18.199219L12.398438 18.199219C12.640625 18.199219 12.800781 18.039062 12.800781 17.800781 12.800781 17.558594 12.640625 17.398438 12.398438 17.398438zM12.398438 17.398438"/>
    <path d="M 19.441406 9.480469 L 19.558594 9.441406 C 19.71875 9.359375 19.839844 9.199219 19.800781 9 C 19.761719 8.800781 19.601562 8.679688 19.398438 8.679688 L 14.554688 8.679688 C 13.96875 7.902344 13.042969 7.398438 12 7.398438 C 10.996094 7.398438 10.09375 7.871094 9.507812 8.601562 L 4.601562 8.601562 C 4.398438 8.601562 4.238281 8.71875 4.199219 8.921875 C 4.160156 9.121094 4.28125 9.28125 4.441406 9.359375 L 4.601562 9.441406 C 5.199219 9.679688 5.398438 10.199219 5.398438 10.601562 C 5.398438 11 5.199219 11.519531 4.601562 11.761719 L 4.441406 11.839844 C 4.28125 11.921875 4.160156 12.078125 4.199219 12.28125 C 4.238281 12.480469 4.398438 12.601562 4.601562 12.601562 L 9.507812 12.601562 C 10.09375 13.332031 10.996094 13.800781 12 13.800781 C 13.003906 13.800781 13.90625 13.332031 14.492188 12.601562 L 19.398438 12.601562 C 19.601562 12.601562 19.761719 12.480469 19.800781 12.28125 C 19.839844 12.078125 19.71875 11.921875 19.558594 11.839844 L 19.441406 11.800781 C 18.839844 11.558594 18.640625 11.039062 18.640625 10.640625 C 18.640625 10.238281 18.839844 9.71875 19.441406 9.480469 Z M 5.800781 11.800781 C 6.039062 11.480469 6.199219 11.039062 6.160156 10.601562 C 6.160156 10.160156 6.039062 9.71875 5.800781 9.398438 L 9.035156 9.398438 C 9 9.488281 8.964844 9.582031 8.9375 9.675781 C 8.933594 9.691406 8.929688 9.707031 8.925781 9.722656 C 8.914062 9.753906 8.90625 9.785156 8.898438 9.820312 C 8.890625 9.839844 8.886719 9.859375 8.882812 9.882812 C 8.875 9.914062 8.867188 9.945312 8.863281 9.976562 C 8.859375 9.992188 8.855469 10.003906 8.855469 10.015625 C 8.847656 10.054688 8.839844 10.097656 8.835938 10.136719 C 8.832031 10.140625 8.832031 10.148438 8.832031 10.152344 C 8.824219 10.199219 8.820312 10.246094 8.816406 10.292969 C 8.816406 10.296875 8.816406 10.300781 8.8125 10.304688 C 8.808594 10.351562 8.804688 10.398438 8.804688 10.445312 C 8.800781 10.496094 8.800781 10.550781 8.800781 10.601562 C 8.800781 10.652344 8.800781 10.703125 8.804688 10.753906 C 8.804688 10.800781 8.808594 10.847656 8.8125 10.894531 C 8.816406 10.898438 8.816406 10.902344 8.816406 10.90625 C 8.820312 10.953125 8.824219 11 8.832031 11.046875 C 8.832031 11.054688 8.832031 11.058594 8.835938 11.0625 C 8.839844 11.101562 8.847656 11.144531 8.855469 11.183594 C 8.855469 11.195312 8.859375 11.210938 8.863281 11.222656 C 8.867188 11.253906 8.875 11.285156 8.882812 11.320312 C 8.886719 11.339844 8.890625 11.359375 8.898438 11.378906 C 8.90625 11.414062 8.914062 11.445312 8.925781 11.480469 C 8.929688 11.492188 8.933594 11.507812 8.9375 11.523438 C 8.964844 11.617188 9 11.710938 9.035156 11.800781 Z M 12 13 C 11.226562 13 10.535156 12.628906 10.09375 12.054688 C 10.085938 12.007812 10.066406 11.960938 10.039062 11.921875 C 9.765625 11.527344 9.605469 11.054688 9.601562 10.582031 C 9.609375 9.269531 10.6875 8.199219 12 8.199219 C 12.773438 8.199219 13.464844 8.570312 13.90625 9.144531 C 13.914062 9.191406 13.933594 9.238281 13.960938 9.28125 C 14.234375 9.675781 14.394531 10.144531 14.398438 10.617188 C 14.390625 11.929688 13.3125 13 12 13 Z M 18.199219 11.800781 L 14.964844 11.800781 C 15 11.710938 15.035156 11.617188 15.0625 11.523438 C 15.066406 11.507812 15.070312 11.492188 15.074219 11.480469 C 15.085938 11.445312 15.09375 11.414062 15.101562 11.378906 C 15.109375 11.359375 15.113281 11.339844 15.117188 11.316406 C 15.125 11.285156 15.132812 11.253906 15.136719 11.222656 C 15.140625 11.210938 15.144531 11.195312 15.144531 11.183594 C 15.152344 11.144531 15.160156 11.101562 15.164062 11.0625 C 15.167969 11.058594 15.167969 11.054688 15.167969 11.046875 C 15.175781 11 15.179688 10.953125 15.183594 10.90625 C 15.183594 10.902344 15.183594 10.898438 15.1875 10.894531 C 15.191406 10.847656 15.195312 10.800781 15.195312 10.753906 C 15.199219 10.703125 15.199219 10.652344 15.199219 10.601562 C 15.199219 10.550781 15.199219 10.496094 15.195312 10.445312 C 15.195312 10.398438 15.191406 10.351562 15.1875 10.304688 C 15.183594 10.300781 15.183594 10.296875 15.183594 10.292969 C 15.179688 10.246094 15.175781 10.199219 15.167969 10.152344 C 15.167969 10.148438 15.167969 10.140625 15.164062 10.136719 C 15.160156 10.097656 15.152344 10.054688 15.144531 10.015625 C 15.144531 10.003906 15.140625 9.992188 15.136719 9.976562 C 15.132812 9.945312 15.125 9.914062 15.117188 9.882812 C 15.113281 9.859375 15.109375 9.839844 15.101562 9.820312 C 15.09375 9.785156 15.085938 9.753906 15.074219 9.722656 C 15.070312 9.707031 15.066406 9.691406 15.0625 9.675781 C 15.035156 9.582031 15 9.488281 14.964844 9.398438 L 18.199219 9.398438 C 17.960938 9.71875 17.839844 10.160156 17.839844 10.601562 C 17.839844 11.039062 17.960938 11.480469 18.199219 11.800781 Z M 18.199219 11.800781"/>
</svg>
