<svg xmlns="http://www.w3.org/2000/svg" width="32" height="32" viewBox="0 0 24 24">
    <path d="M16 11.2h-.398V8c0-.238-.16-.398-.403-.398h-.87l-1.93-7.32C12.358.121 12.198 0 12 0c-.2 0-.36.121-.398.281l-1.93 7.32H8.8c-.242 0-.403.16-.403.399v3.2H8c-.879 0-1.602.722-1.602 1.6v9.598C6.398 23.281 7.121 24 8 24h8c.879 0 1.602-.719 1.602-1.602v-9.597c0-.88-.723-1.602-1.602-1.602zm.8 5.198h-4.402c-.238 0-.398.16-.398.403 0 .238.16.398.398.398h4.403V18h-4.403c-.238 0-.398.16-.398.398 0 .243.16.403.398.403h4.403v.8h-5.602v-4h5.602zM12 1.961l1.48 5.64h-2.96zM9.2 8.398h5.6V11.2H9.2zM16 23.2H8c-.441 0-.8-.36-.8-.8V12.8c0-.442.359-.801.8-.801h8c.441 0 .8.36.8.8v2h-6c-.241 0-.402.16-.402.4V20c0 .238.16.398.403.398h6v2c0 .442-.36.801-.801.801zm0 0"/>
</svg>
