<svg xmlns="http://www.w3.org/2000/svg" width="32" height="32" viewBox="0 0 24 24">
    <path d="M9.734 14.227c.02.02.043.039.067.054.68.34 1.36.5 2.074.516.04.004.082.004.125.004s.086 0 .125-.004a4.772 4.772 0 0 0 2.074-.516.45.45 0 0 0 .067-.054A4.812 4.812 0 0 0 16.8 10c0-2.64-2.16-4.8-4.801-4.8-2.64 0-4.8 2.16-4.8 4.8a4.812 4.812 0 0 0 2.534 4.227zM11.2 8.398a.801.801 0 0 1 1.602 0 .802.802 0 0 1-1.602 0zM12 10c.879 0 1.602.719 1.602 1.602v2.062a4 4 0 0 1-3.204 0v-2.062c0-.883.723-1.602 1.602-1.602zm0-4c2.2 0 4 1.8 4 4a4 4 0 0 1-1.602 3.195v-1.593c0-.903-.5-1.692-1.238-2.102.27-.285.442-.676.442-1.102 0-.878-.723-1.597-1.602-1.597-.879 0-1.602.719-1.602 1.597 0 .426.172.817.442 1.102a2.404 2.404 0 0 0-1.238 2.102v1.593A4 4 0 0 1 8 10c0-2.2 1.8-4 4-4zm0 0M9.2 16.398c-.24 0-.4.16-.4.403 0 .238.16.398.4.398h2.402c.238 0 .398-.16.398-.398 0-.242-.16-.403-.398-.403zm0 0M6.398 17.2h1.204c.238 0 .398-.16.398-.4 0-.241-.16-.402-.398-.402H6.398c-.238 0-.398.16-.398.403 0 .238.16.398.398.398zm0 0M13.2 16.398c-.24 0-.4.16-.4.403 0 .238.16.398.4.398h2c.241 0 .402-.16.402-.398 0-.242-.16-.403-.403-.403zm0 0M17.602 16.398H16.8c-.242 0-.403.16-.403.403 0 .238.16.398.403.398h.8c.239 0 .399-.16.399-.398 0-.242-.16-.403-.398-.403zm0 0M6.398 19.602h3.204c.238 0 .398-.16.398-.403 0-.238-.16-.398-.398-.398H6.398c-.238 0-.398.16-.398.398 0 .242.16.403.398.403zm0 0M17.602 18.8H16c-.238 0-.398.16-.398.4 0 .241.16.402.398.402h1.602c.238 0 .398-.16.398-.403 0-.238-.16-.398-.398-.398zm0 0M14.8 19.2c0-.24-.16-.4-.402-.4H11.2c-.238 0-.398.16-.398.4 0 .241.16.402.398.402h3.2c.242 0 .402-.16.402-.403zm0 0M10.398 21.2h-4c-.238 0-.398.16-.398.402 0 .238.16.398.398.398h4c.243 0 .403-.16.403-.398 0-.243-.16-.403-.403-.403zm0 0M13.2 21.2H12c-.238 0-.398.16-.398.402 0 .238.16.398.398.398h1.2c.241 0 .402-.16.402-.398 0-.243-.16-.403-.403-.403zm0 0M17.602 21.2H14.8c-.242 0-.403.16-.403.402 0 .238.16.398.403.398h2.8c.239 0 .399-.16.399-.398 0-.243-.16-.403-.398-.403zm0 0"/>
    <path d="M19.2 2.398h-5.598v-.796C13.602.719 12.879 0 12 0c-.879 0-1.602.719-1.602 1.602v.796H4.801c-.68 0-1.2.524-1.2 1.204V22.8c0 .68.52 1.199 1.2 1.199h14.398c.68 0 1.2-.52 1.2-1.2V3.603c0-.68-.52-1.204-1.2-1.204zm-8 .403V2h1.6v1.602h-1.6zm.84-2c.28 0 .562.16.679.398H11.32c.121-.238.442-.398.72-.398zm7.562 22c0 .238-.16.398-.403.398H4.801c-.242 0-.403-.16-.403-.398V3.6c0-.242.16-.402.403-.402h5.597V4c0 .238.16.398.403.398h2.398c.242 0 .403-.16.403-.398v-.8h5.597c.242 0 .403.16.403.402zm0 0"/>
</svg>
