<svg xmlns="http://www.w3.org/2000/svg" width="32" height="32" viewBox="0 0 24 24">
    <path d="M22 7H2c-.238 0-.398.16-.398.398V20.2c0 .242.16.403.398.403h20c.238 0 .398-.16.398-.403V7.4c0-.239-.16-.399-.398-.399zm-.398 12.8H2.398v-12h19.204zm0 0"/>
    <path d="M13.734 18.027c.02.02.043.035.067.051.68.344 1.36.504 2.074.52.04 0 .082.004.125.004s.086-.004.125-.004a4.723 4.723 0 0 0 2.074-.52c.024-.015.047-.031.067-.05A4.816 4.816 0 0 0 20.8 13.8C20.8 11.16 18.64 9 16 9c-2.64 0-4.8 2.16-4.8 4.8a4.816 4.816 0 0 0 2.534 4.227zM15.2 12.2c0-.437.36-.8.801-.8.441 0 .8.363.8.8a.802.802 0 0 1-1.6 0zM16 13.801c.879 0 1.602.719 1.602 1.597v2.067a4 4 0 0 1-3.204 0v-2.067c0-.878.723-1.597 1.602-1.597zm0-4c2.2 0 4 1.8 4 4a4 4 0 0 1-1.602 3.195v-1.598c0-.898-.5-1.687-1.238-2.097.27-.29.442-.676.442-1.102 0-.879-.723-1.597-1.602-1.597-.879 0-1.602.718-1.602 1.597 0 .426.172.813.442 1.102a2.403 2.403 0 0 0-1.238 2.097v1.598A4 4 0 0 1 12 13.801c0-2.2 1.8-4 4-4zm0 0M3.602 12.602H4c.238 0 .398-.16.398-.403 0-.238-.16-.398-.398-.398h-.398c-.243 0-.403.16-.403.398 0 .242.16.403.403.403zm0 0M7.602 11.8h-2c-.243 0-.403.16-.403.4 0 .241.16.402.403.402h2c.238 0 .398-.16.398-.403 0-.238-.16-.398-.398-.398zm0 0M9.2 12.602h.8c.238 0 .398-.16.398-.403 0-.238-.16-.398-.398-.398h-.8c-.24 0-.4.16-.4.398 0 .242.16.403.4.403zm0 0M10 14.2H8.398c-.238 0-.398.16-.398.402 0 .238.16.398.398.398H10c.238 0 .398-.16.398-.398 0-.243-.16-.403-.398-.403zm0 0M3.602 15H6.8c.238 0 .398-.16.398-.398 0-.243-.16-.403-.398-.403H3.6c-.242 0-.402.16-.402.403 0 .238.16.398.403.398zm0 0M3.602 17.398h2c.238 0 .398-.16.398-.398 0-.238-.16-.398-.398-.398h-2c-.243 0-.403.16-.403.398 0 .238.16.398.403.398zm0 0M10 16.602H7.2c-.24 0-.4.16-.4.398 0 .238.16.398.4.398H10c.238 0 .398-.16.398-.398 0-.238-.16-.398-.398-.398zm0 0M5.2 10.2h3.198c.243 0 .403-.16.403-.4 0-.241-.16-.402-.403-.402H5.2c-.238 0-.398.16-.398.403 0 .238.16.398.398.398zm0 0"/>
    <path d="M22.8 5h-9.198V3c0-.879-.723-1.602-1.602-1.602-.879 0-1.602.723-1.602 1.602v2H1.2C.52 5 0 5.52 0 6.2v15.198c0 .68.52 1.204 1.2 1.204h21.6c.68 0 1.2-.524 1.2-1.204V6.2C24 5.52 23.48 5 22.8 5zm-11.6.398v-2h1.6v2.403h-1.6zm.84-3.199c.28 0 .562.16.679.403H11.32c.121-.243.442-.403.72-.403zM23.2 21.4c0 .242-.16.402-.4.402H1.2c-.24 0-.4-.16-.4-.403V6.2c0-.238.16-.398.4-.398h9.198v.398c0 .242.16.403.403.403h2.398c.242 0 .403-.16.403-.403v-.398H22.8c.238 0 .398.16.398.398zm0 0"/>
</svg>
