<svg xmlns="http://www.w3.org/2000/svg" width="32" height="32" viewBox="0 0 24 24">
    <path d="M23.879 4.484L19.645.29a.437.437 0 0 0-.602 0l-.84.836a.391.391 0 0 0-.558 0L2.973 15.835a.388.388 0 0 0-.118.306l-.003.015.082.723a4.684 4.684 0 0 1-1.36 3.754.361.361 0 0 0-.12.281c0 .11.034.188.1.258L.138 22.594c-.121.078-.16.238-.121.36.039.12.16.237.277.28l1.68.559c.043.039.082.039.12.039.122 0 .239-.039.282-.121l.86-.86.019.024c.078.078.16.117.277.117.082 0 .203-.039.281-.117l.16-.203a4.656 4.656 0 0 1 3.36-1.399h.543c.05.028.105.04.176.04.117 0 .199-.079.277-.118L23 6.485a.39.39 0 0 0 0-.563l.879-.879a.385.385 0 0 0 0-.559zm-5.957-2.52l4.258 4.22L8.05 20.316l-4.238-4.238zM2.692 22.314l-.676.68-.84-.278.957-.961zm.84-.278l-1.157-1.16a5.369 5.369 0 0 0 1.36-3.719l3.355 3.36c-1.32.039-2.598.597-3.559 1.52zM22.48 5.363l-3.675-3.676.558-.562 3.676 3.68zm0 0"/>
    <path d="M7.21 14.957c.08.082.161.121.282.121.078 0 .2-.039.278-.121l9.593-9.594a.385.385 0 0 0 0-.558.385.385 0 0 0-.558 0L7.21 14.398a.385.385 0 0 0 0 .559zm0 0M9.168 16.918c.082.078.16.117.281.117.121 0 .2-.039.281-.117l9.594-9.594a.39.39 0 0 0 0-.562.39.39 0 0 0-.562 0l-9.594 9.593a.39.39 0 0 0 0 .563zm0 0"/>
</svg>
