<svg xmlns="http://www.w3.org/2000/svg" width="32" height="32" viewBox="0 0 24 24">
    <path d="M14.070312 6.621094L12 6.621094C11.75 6.621094 11.585938 6.785156 11.585938 7.035156L11.585938 9.101562C11.585938 9.351562 11.75 9.515625 12 9.515625L14.070312 9.515625C14.316406 9.515625 14.484375 9.351562 14.484375 9.101562L14.484375 7.035156C14.484375 6.785156 14.316406 6.621094 14.070312 6.621094zM13.65625 8.691406L12.414062 8.691406 12.414062 7.449219 13.65625 7.449219zM17.792969 6.621094L15.722656 6.621094C15.476562 6.621094 15.308594 6.785156 15.308594 7.035156L15.308594 9.101562C15.308594 9.351562 15.476562 9.515625 15.722656 9.515625L17.792969 9.515625C18.042969 9.515625 18.207031 9.351562 18.207031 9.101562L18.207031 7.035156C18.207031 6.785156 18.042969 6.621094 17.792969 6.621094zM17.378906 8.691406L16.136719 8.691406 16.136719 7.449219 17.378906 7.449219zM21.515625 6.621094L19.449219 6.621094C19.199219 6.621094 19.035156 6.785156 19.035156 7.035156L19.035156 9.101562C19.035156 9.351562 19.199219 9.515625 19.449219 9.515625L21.515625 9.515625C21.765625 9.515625 21.929688 9.351562 21.929688 9.101562L21.929688 7.035156C21.929688 6.785156 21.765625 6.621094 21.515625 6.621094zM21.101562 8.691406L19.863281 8.691406 19.863281 7.449219 21.101562 7.449219zM14.070312 10.34375L12 10.34375C11.75 10.34375 11.585938 10.511719 11.585938 10.757812L11.585938 12.828125C11.585938 13.074219 11.75 13.242188 12 13.242188L14.070312 13.242188C14.316406 13.242188 14.484375 13.074219 14.484375 12.828125L14.484375 10.757812C14.484375 10.511719 14.316406 10.34375 14.070312 10.34375zM13.65625 12.414062L12.414062 12.414062 12.414062 11.171875 13.65625 11.171875zM17.792969 10.34375L15.722656 10.34375C15.476562 10.34375 15.308594 10.511719 15.308594 10.757812L15.308594 12.828125C15.308594 13.074219 15.476562 13.242188 15.722656 13.242188L17.792969 13.242188C18.042969 13.242188 18.207031 13.074219 18.207031 12.828125L18.207031 10.757812C18.207031 10.511719 18.042969 10.34375 17.792969 10.34375zM17.378906 12.414062L16.136719 12.414062 16.136719 11.171875 17.378906 11.171875zM21.515625 10.34375L19.449219 10.34375C19.199219 10.34375 19.035156 10.511719 19.035156 10.757812L19.035156 12.828125C19.035156 13.074219 19.199219 13.242188 19.449219 13.242188L21.515625 13.242188C21.765625 13.242188 21.929688 13.074219 21.929688 12.828125L21.929688 10.757812C21.929688 10.511719 21.765625 10.34375 21.515625 10.34375zM21.101562 12.414062L19.863281 12.414062 19.863281 11.171875 21.101562 11.171875zM14.070312 14.070312L12 14.070312C11.75 14.070312 11.585938 14.234375 11.585938 14.484375L11.585938 16.550781C11.585938 16.800781 11.75 16.964844 12 16.964844L14.070312 16.964844C14.316406 16.964844 14.484375 16.800781 14.484375 16.550781L14.484375 14.484375C14.484375 14.234375 14.316406 14.070312 14.070312 14.070312zM13.65625 16.136719L12.414062 16.136719 12.414062 14.898438 13.65625 14.898438zM17.792969 14.070312L15.722656 14.070312C15.476562 14.070312 15.308594 14.234375 15.308594 14.484375L15.308594 16.550781C15.308594 16.800781 15.476562 16.964844 15.722656 16.964844L17.792969 16.964844C18.042969 16.964844 18.207031 16.800781 18.207031 16.550781L18.207031 14.484375C18.207031 14.234375 18.042969 14.070312 17.792969 14.070312zM17.378906 16.136719L16.136719 16.136719 16.136719 14.898438 17.378906 14.898438zM21.515625 14.070312L19.449219 14.070312C19.199219 14.070312 19.035156 14.234375 19.035156 14.484375L19.035156 16.550781C19.035156 16.800781 19.199219 16.964844 19.449219 16.964844L21.515625 16.964844C21.765625 16.964844 21.929688 16.800781 21.929688 16.550781L21.929688 14.484375C21.929688 14.234375 21.765625 14.070312 21.515625 14.070312zM21.101562 16.136719L19.863281 16.136719 19.863281 14.898438 21.101562 14.898438zM14.070312 17.792969L12 17.792969C11.75 17.792969 11.585938 17.957031 11.585938 18.207031L11.585938 20.277344C11.585938 20.523438 11.75 20.691406 12 20.691406L14.070312 20.691406C14.316406 20.691406 14.484375 20.523438 14.484375 20.277344L14.484375 18.207031C14.484375 17.957031 14.316406 17.792969 14.070312 17.792969zM13.65625 19.863281L12.414062 19.863281 12.414062 18.621094 13.65625 18.621094zM17.792969 17.792969L15.722656 17.792969C15.476562 17.792969 15.308594 17.957031 15.308594 18.207031L15.308594 20.277344C15.308594 20.523438 15.476562 20.691406 15.722656 20.691406L17.792969 20.691406C18.042969 20.691406 18.207031 20.523438 18.207031 20.277344L18.207031 18.207031C18.207031 17.957031 18.042969 17.792969 17.792969 17.792969zM17.378906 19.863281L16.136719 19.863281 16.136719 18.621094 17.378906 18.621094zM21.515625 17.792969L19.449219 17.792969C19.199219 17.792969 19.035156 17.957031 19.035156 18.207031L19.035156 20.277344C19.035156 20.523438 19.199219 20.691406 19.449219 20.691406L21.515625 20.691406C21.765625 20.691406 21.929688 20.523438 21.929688 20.277344L21.929688 18.207031C21.929688 17.957031 21.765625 17.792969 21.515625 17.792969zM21.101562 19.863281L19.863281 19.863281 19.863281 18.621094 21.101562 18.621094zM13.65625 2.484375L14.898438 2.484375C15.144531 2.484375 15.308594 2.316406 15.308594 2.070312 15.308594 1.820312 15.144531 1.65625 14.898438 1.65625L13.65625 1.65625C13.40625 1.65625 13.242188 1.820312 13.242188 2.070312 13.242188 2.316406 13.40625 2.484375 13.65625 2.484375zM16.550781 2.484375L19.863281 2.484375C20.109375 2.484375 20.277344 2.316406 20.277344 2.070312 20.277344 1.820312 20.109375 1.65625 19.863281 1.65625L16.550781 1.65625C16.304688 1.65625 16.136719 1.820312 16.136719 2.070312 16.136719 2.316406 16.304688 2.484375 16.550781 2.484375zM13.65625 4.136719L16.964844 4.136719C17.214844 4.136719 17.378906 3.972656 17.378906 3.722656 17.378906 3.476562 17.214844 3.308594 16.964844 3.308594L13.65625 3.308594C13.40625 3.308594 13.242188 3.476562 13.242188 3.722656 13.242188 3.972656 13.40625 4.136719 13.65625 4.136719zM19.863281 3.308594L18.621094 3.308594C18.371094 3.308594 18.207031 3.476562 18.207031 3.722656 18.207031 3.972656 18.371094 4.136719 18.621094 4.136719L19.863281 4.136719C20.109375 4.136719 20.277344 3.972656 20.277344 3.722656 20.277344 3.476562 20.109375 3.308594 19.863281 3.308594zM19.863281 3.308594"/>
    <path d="M 22.34375 1.65625 L 21.929688 1.65625 L 21.929688 1.242188 C 21.929688 0.539062 21.394531 0 20.691406 0 L 12.828125 0 C 12.125 0 11.585938 0.539062 11.585938 1.242188 L 11.585938 1.65625 L 10.34375 1.65625 L 10.34375 1.242188 C 10.34375 0.539062 9.808594 0 9.101562 0 L 3.308594 0 C 2.605469 0 2.070312 0.539062 2.070312 1.242188 L 2.070312 1.65625 L 1.65625 1.65625 C 0.953125 1.65625 0.414062 2.191406 0.414062 2.898438 L 0.414062 22.757812 C 0.414062 23.460938 0.953125 24 1.65625 24 L 22.34375 24 C 23.046875 24 23.585938 23.460938 23.585938 22.757812 L 23.585938 2.898438 C 23.585938 2.191406 23.046875 1.65625 22.34375 1.65625 Z M 22.34375 2.484375 C 22.59375 2.484375 22.757812 2.648438 22.757812 2.898438 L 22.757812 3.722656 L 21.929688 3.722656 L 21.929688 2.484375 Z M 12.414062 1.242188 C 12.414062 0.992188 12.578125 0.828125 12.828125 0.828125 L 20.691406 0.828125 C 20.9375 0.828125 21.101562 0.992188 21.101562 1.242188 L 21.101562 4.550781 C 21.101562 4.800781 20.9375 4.964844 20.691406 4.964844 L 12.828125 4.964844 C 12.578125 4.964844 12.414062 4.800781 12.414062 4.550781 Z M 11.585938 2.484375 L 11.585938 3.722656 L 10.34375 3.722656 L 10.34375 2.484375 Z M 2.898438 1.242188 C 2.898438 0.992188 3.0625 0.828125 3.308594 0.828125 L 9.101562 0.828125 C 9.351562 0.828125 9.515625 0.992188 9.515625 1.242188 L 9.515625 20.277344 C 9.515625 20.523438 9.351562 20.691406 9.101562 20.691406 L 3.308594 20.691406 C 3.0625 20.691406 2.898438 20.523438 2.898438 20.277344 Z M 1.242188 2.898438 C 1.242188 2.648438 1.40625 2.484375 1.65625 2.484375 L 2.070312 2.484375 L 2.070312 3.722656 L 1.242188 3.722656 Z M 22.34375 23.171875 L 1.65625 23.171875 C 1.40625 23.171875 1.242188 23.007812 1.242188 22.757812 L 1.242188 4.550781 L 2.070312 4.550781 L 2.070312 20.277344 C 2.070312 20.980469 2.605469 21.515625 3.308594 21.515625 L 9.101562 21.515625 C 9.808594 21.515625 10.34375 20.980469 10.34375 20.277344 L 10.34375 4.550781 L 11.585938 4.550781 C 11.585938 5.253906 12.125 5.792969 12.828125 5.792969 L 20.691406 5.792969 C 21.394531 5.792969 21.929688 5.253906 21.929688 4.550781 L 22.757812 4.550781 L 22.757812 22.757812 C 22.757812 23.007812 22.59375 23.171875 22.34375 23.171875 Z M 22.34375 23.171875"/>
</svg>
