<svg xmlns="http://www.w3.org/2000/svg" width="32" height="32" viewBox="0 0 24 24">
    <path d="M16.453 8.152a3.631 3.631 0 0 0-3.644 3.645 3.631 3.631 0 0 0 3.644 3.644 3.629 3.629 0 0 0 3.645-3.644 3.629 3.629 0 0 0-3.645-3.645zm0 6.48a2.818 2.818 0 0 1-2.832-2.835 2.814 2.814 0 0 1 2.832-2.832 2.815 2.815 0 0 1 2.836 2.832 2.818 2.818 0 0 1-2.836 2.836zm0 0"/>
    <path d="M16.453 9.773c-1.133 0-2.023.891-2.023 2.024 0 .242.16.406.406.406.242 0 .402-.164.402-.406 0-.688.528-1.215 1.215-1.215.242 0 .406-.16.406-.402 0-.246-.164-.407-.406-.407zm0 0M3.496 10.582h4.86c.242 0 .406-.16.406-.402 0-.246-.164-.407-.407-.407H3.496c-.242 0-.406.16-.406.407 0 .242.164.402.406.402zm0 0M3.496 12.203h4.86a.385.385 0 0 0 .406-.406c0-.242-.164-.402-.407-.402H3.496c-.242 0-.406.16-.406.402 0 .242.164.406.406.406zm0 0M3.496 13.82h4.86c.242 0 .406-.16.406-.402a.385.385 0 0 0-.407-.406H3.496a.385.385 0 0 0-.406.406c0 .242.164.402.406.402zm0 0"/>
    <path d="M22.45 7.992l-2.102-.304a5.653 5.653 0 0 0-3.895-1.56 5.604 5.604 0 0 0-2.902.806 43.31 43.31 0 0 0-7.14.37l-4.86.688c-.969.121-1.66.973-1.535 1.942l.566 5.226a1.22 1.22 0 0 0 1.215 1.09h.625l.344.691c.285.567.894.93 1.539.93.648 0 1.258-.363 1.539-.93l.343-.691h6.77a5.624 5.624 0 0 0 3.496 1.215c.64 0 1.258-.106 1.836-.305.316.438.844.711 1.406.711.645 0 1.254-.363 1.54-.89l.363-.731h.605c.61 0 1.137-.445 1.215-1.05l.566-5.223a1.774 1.774 0 0 0-1.535-1.985zM1.39 15.078L.825 9.855a.905.905 0 0 1 .852-1.054l4.86-.688a40.358 40.358 0 0 1 5.425-.363h.523a5.602 5.602 0 0 0-1.699 4.047v.133c.004.023.004.05.004.074 0 .016 0 .035.004.055 0 .035.004.07.004.105v.012a5.646 5.646 0 0 0 1.324 3.265H1.797c-.203 0-.367-.16-.406-.363zm3.727 1.496c-.164.285-.445.488-.812.488-.364 0-.645-.164-.809-.488l-.16-.324h1.941zm6.602-3.683a.78.78 0 0 1-.02-.102c-.004-.008-.004-.016-.008-.023-.004-.028-.011-.059-.015-.09-.004-.012-.004-.024-.008-.035l-.012-.082c-.004-.016-.004-.032-.008-.047l-.011-.075a.23.23 0 0 0-.008-.054c0-.024-.004-.047-.008-.07 0-.02-.004-.043-.004-.063-.004-.02-.004-.043-.008-.066 0-.02-.004-.043-.004-.067 0-.02-.003-.039-.003-.058 0-.028 0-.055-.004-.082v-.047c0-.047-.004-.09-.004-.133 0-.047.004-.094.004-.14v-.044c.004-.035.004-.07.007-.105v-.04l.012-.113v-.03a7.52 7.52 0 0 1 .04-.294v-.008l.023-.136c.004-.004.004-.008.004-.016.027-.144.062-.289.105-.43 0-.004.004-.007.004-.011.012-.043.023-.082.039-.125.004-.008.004-.016.008-.024l.039-.117c.004-.008.004-.016.008-.023a4.33 4.33 0 0 0 .047-.125c.007-.02.015-.036.023-.055.012-.024.02-.043.027-.063l.036-.082c.003-.007.007-.02.011-.027.77-1.676 2.465-2.851 4.422-2.851 1.695 0 3.192.878 4.063 2.203.488.754.773 1.62.797 2.535v.25c0 .023-.004.047-.004.066v.059c-.004.035-.004.07-.008.101v.02c-.196 2.5-2.301 4.484-4.848 4.484-2.297 0-4.234-1.613-4.734-3.765zm8.785 3.683c-.164.285-.445.488-.809.488a.833.833 0 0 1-.61-.242c.044-.027.09-.05.134-.078a9.55 9.55 0 0 0 .758-.492h.687zm2.672-6.719l-.567 5.223c-.039.203-.203.363-.406.363H20.79a5.633 5.633 0 0 0 .34-6.84l1.195.16c.528.079.89.567.852 1.094zm0 0"/>
</svg>
