<svg xmlns="http://www.w3.org/2000/svg" width="32" height="32" viewBox="0 0 24 24">
    <path d="M 16.453125 8.152344 C 14.429688 8.152344 12.808594 9.773438 12.808594 11.796875 C 12.808594 13.820312 14.429688 15.441406 16.453125 15.441406 C 18.480469 15.441406 20.097656 13.820312 20.097656 11.796875 C 20.097656 9.773438 18.480469 8.152344 16.453125 8.152344 Z M 16.453125 14.632812 C 14.875 14.632812 13.621094 13.375 13.621094 11.796875 C 13.621094 10.21875 14.875 8.964844 16.453125 8.964844 C 18.035156 8.964844 19.289062 10.21875 19.289062 11.796875 C 19.289062 13.375 18.035156 14.632812 16.453125 14.632812 Z M 16.453125 14.632812"/>
    <path d="M16.453125 9.773438C15.320312 9.773438 14.429688 10.664062 14.429688 11.796875 14.429688 12.039062 14.589844 12.203125 14.835938 12.203125 15.078125 12.203125 15.238281 12.039062 15.238281 11.796875 15.238281 11.109375 15.765625 10.582031 16.453125 10.582031 16.695312 10.582031 16.859375 10.421875 16.859375 10.179688 16.859375 9.933594 16.695312 9.773438 16.453125 9.773438zM3.496094 10.582031L8.355469 10.582031C8.597656 10.582031 8.761719 10.421875 8.761719 10.179688 8.761719 9.933594 8.597656 9.773438 8.355469 9.773438L3.496094 9.773438C3.253906 9.773438 3.089844 9.933594 3.089844 10.179688 3.089844 10.421875 3.253906 10.582031 3.496094 10.582031zM3.496094 12.203125L8.355469 12.203125C8.597656 12.203125 8.761719 12.039062 8.761719 11.796875 8.761719 11.554688 8.597656 11.394531 8.355469 11.394531L3.496094 11.394531C3.253906 11.394531 3.089844 11.554688 3.089844 11.796875 3.089844 12.039062 3.253906 12.203125 3.496094 12.203125zM3.496094 13.820312L8.355469 13.820312C8.597656 13.820312 8.761719 13.660156 8.761719 13.417969 8.761719 13.175781 8.597656 13.011719 8.355469 13.011719L3.496094 13.011719C3.253906 13.011719 3.089844 13.175781 3.089844 13.417969 3.089844 13.660156 3.253906 13.820312 3.496094 13.820312zM3.496094 13.820312"/>
    <path d="M 22.449219 7.992188 L 20.347656 7.6875 C 19.328125 6.722656 17.957031 6.128906 16.453125 6.128906 C 15.394531 6.128906 14.398438 6.421875 13.550781 6.933594 C 11.15625 6.863281 8.726562 6.984375 6.410156 7.304688 L 1.550781 7.992188 C 0.582031 8.113281 -0.109375 8.964844 0.015625 9.933594 L 0.582031 15.160156 C 0.660156 15.804688 1.1875 16.25 1.796875 16.25 L 2.421875 16.25 L 2.765625 16.941406 C 3.050781 17.507812 3.660156 17.871094 4.304688 17.871094 C 4.953125 17.871094 5.5625 17.507812 5.84375 16.941406 L 6.1875 16.25 L 12.957031 16.25 C 13.921875 17.011719 15.136719 17.464844 16.453125 17.464844 C 17.09375 17.464844 17.710938 17.359375 18.289062 17.160156 C 18.605469 17.597656 19.132812 17.871094 19.695312 17.871094 C 20.339844 17.871094 20.949219 17.507812 21.234375 16.980469 L 21.597656 16.25 L 22.203125 16.25 C 22.8125 16.25 23.339844 15.804688 23.417969 15.199219 L 23.984375 9.976562 C 24.109375 9.003906 23.417969 8.113281 22.449219 7.992188 Z M 1.390625 15.078125 L 0.824219 9.855469 C 0.742188 9.328125 1.105469 8.839844 1.675781 8.800781 L 6.535156 8.113281 C 8.316406 7.871094 10.136719 7.75 11.960938 7.75 C 12.160156 7.75 12.324219 7.75 12.484375 7.75 C 11.394531 8.800781 10.785156 10.257812 10.785156 11.796875 C 10.785156 11.84375 10.785156 11.886719 10.785156 11.929688 C 10.789062 11.953125 10.789062 11.980469 10.789062 12.003906 C 10.789062 12.019531 10.789062 12.039062 10.792969 12.058594 C 10.792969 12.09375 10.796875 12.128906 10.796875 12.164062 C 10.796875 12.167969 10.796875 12.171875 10.796875 12.175781 C 10.882812 13.414062 11.363281 14.546875 12.121094 15.441406 L 1.796875 15.441406 C 1.59375 15.441406 1.429688 15.28125 1.390625 15.078125 Z M 5.117188 16.574219 C 4.953125 16.859375 4.671875 17.0625 4.304688 17.0625 C 3.941406 17.0625 3.660156 16.898438 3.496094 16.574219 L 3.335938 16.25 L 5.277344 16.25 Z M 11.71875 12.890625 C 11.710938 12.859375 11.703125 12.824219 11.699219 12.789062 C 11.695312 12.78125 11.695312 12.773438 11.691406 12.765625 C 11.6875 12.738281 11.679688 12.707031 11.675781 12.675781 C 11.671875 12.664062 11.671875 12.652344 11.667969 12.640625 C 11.664062 12.613281 11.660156 12.585938 11.65625 12.558594 C 11.652344 12.542969 11.652344 12.527344 11.648438 12.511719 C 11.644531 12.488281 11.640625 12.460938 11.636719 12.4375 C 11.636719 12.417969 11.632812 12.398438 11.628906 12.382812 C 11.628906 12.359375 11.625 12.335938 11.621094 12.3125 C 11.621094 12.292969 11.617188 12.269531 11.617188 12.25 C 11.613281 12.230469 11.613281 12.207031 11.609375 12.183594 C 11.609375 12.164062 11.605469 12.140625 11.605469 12.117188 C 11.605469 12.097656 11.601562 12.078125 11.601562 12.058594 C 11.601562 12.03125 11.601562 12.003906 11.597656 11.976562 C 11.597656 11.960938 11.597656 11.945312 11.597656 11.929688 C 11.597656 11.882812 11.59375 11.839844 11.59375 11.796875 C 11.59375 11.75 11.597656 11.703125 11.597656 11.65625 C 11.597656 11.640625 11.597656 11.628906 11.597656 11.613281 C 11.601562 11.578125 11.601562 11.542969 11.605469 11.507812 C 11.605469 11.496094 11.605469 11.480469 11.605469 11.46875 C 11.609375 11.429688 11.613281 11.390625 11.617188 11.355469 C 11.617188 11.34375 11.617188 11.335938 11.617188 11.324219 C 11.628906 11.226562 11.640625 11.128906 11.65625 11.03125 C 11.65625 11.03125 11.65625 11.027344 11.65625 11.023438 C 11.664062 10.976562 11.671875 10.933594 11.679688 10.886719 C 11.683594 10.882812 11.683594 10.878906 11.683594 10.871094 C 11.710938 10.726562 11.746094 10.582031 11.789062 10.441406 C 11.789062 10.4375 11.792969 10.433594 11.792969 10.429688 C 11.804688 10.386719 11.816406 10.347656 11.832031 10.304688 C 11.835938 10.296875 11.835938 10.289062 11.839844 10.28125 C 11.851562 10.242188 11.867188 10.203125 11.878906 10.164062 C 11.882812 10.15625 11.882812 10.148438 11.886719 10.140625 C 11.902344 10.101562 11.917969 10.058594 11.933594 10.015625 C 11.941406 9.996094 11.949219 9.980469 11.957031 9.960938 C 11.96875 9.9375 11.976562 9.917969 11.984375 9.898438 C 11.996094 9.871094 12.007812 9.84375 12.019531 9.816406 C 12.023438 9.808594 12.027344 9.796875 12.03125 9.789062 C 12.800781 8.113281 14.496094 6.9375 16.453125 6.9375 C 18.148438 6.9375 19.644531 7.816406 20.515625 9.140625 C 21.003906 9.894531 21.289062 10.761719 21.3125 11.675781 C 21.3125 11.714844 21.3125 11.757812 21.3125 11.796875 C 21.3125 11.839844 21.3125 11.882812 21.3125 11.925781 C 21.3125 11.949219 21.308594 11.972656 21.308594 11.992188 C 21.308594 12.011719 21.308594 12.03125 21.308594 12.050781 C 21.304688 12.085938 21.304688 12.121094 21.300781 12.152344 C 21.300781 12.160156 21.300781 12.164062 21.300781 12.171875 C 21.105469 14.671875 19 16.65625 16.453125 16.65625 C 14.15625 16.65625 12.21875 15.042969 11.71875 12.890625 Z M 20.503906 16.574219 C 20.339844 16.859375 20.058594 17.0625 19.695312 17.0625 C 19.449219 17.0625 19.25 16.980469 19.085938 16.820312 C 19.128906 16.792969 19.175781 16.769531 19.21875 16.742188 C 19.355469 16.664062 19.488281 16.582031 19.617188 16.496094 C 19.742188 16.414062 19.863281 16.332031 19.976562 16.25 L 20.664062 16.25 Z M 23.175781 9.855469 L 22.609375 15.078125 C 22.570312 15.28125 22.40625 15.441406 22.203125 15.441406 L 20.789062 15.441406 C 21.621094 14.453125 22.125 13.183594 22.125 11.796875 C 22.125 10.613281 21.753906 9.511719 21.128906 8.601562 L 22.324219 8.761719 C 22.851562 8.839844 23.214844 9.328125 23.175781 9.855469 Z M 23.175781 9.855469"/>
</svg>
