<svg xmlns="http://www.w3.org/2000/svg" width="32" height="32" viewBox="0 0 24 24">
    <path d="M 23.339844 6.816406 C 22.734375 5.773438 21.769531 4.5625 20.601562 3.398438 C 18.429688 1.183594 15.613281 -0.707031 14.648438 0.257812 C 13.480469 1.425781 12.917969 2.914062 13.078125 4.523438 C 13.097656 4.75 13.128906 4.972656 13.171875 5.195312 L 8.921875 9.445312 C 7.816406 9.011719 6.75 8.835938 5.753906 8.949219 C 4.75 9.070312 3.863281 9.632812 3.382812 10.480469 C 2.898438 11.363281 2.859375 12.371094 3.261719 13.296875 C 3.660156 14.230469 4.273438 15.199219 5.050781 16.15625 L 0.0820312 23.355469 C -0.0390625 23.515625 0 23.757812 0.121094 23.878906 C 0.203125 23.960938 0.28125 24 0.402344 24 C 0.484375 24 0.5625 23.960938 0.644531 23.917969 L 7.867188 18.933594 C 8.816406 19.691406 9.773438 20.308594 10.664062 20.699219 C 11.105469 20.902344 11.507812 20.980469 11.953125 20.980469 C 12.476562 20.980469 13 20.859375 13.441406 20.5 C 14.285156 19.976562 14.847656 19.132812 14.96875 18.125 C 15.078125 17.175781 14.921875 16.195312 14.535156 15.148438 L 18.839844 10.914062 C 19.230469 11 19.617188 11.042969 20 11.042969 C 21.289062 11.042969 22.574219 10.558594 23.621094 9.472656 C 23.660156 9.433594 23.6875 9.390625 23.710938 9.34375 C 24.183594 8.902344 24.058594 8.058594 23.339844 6.816406 Z M 15.371094 0.78125 C 15.9375 0.78125 17.707031 1.667969 20.039062 3.960938 C 21.167969 5.085938 22.09375 6.214844 22.65625 7.21875 C 23.269531 8.253906 23.226562 8.707031 23.183594 8.78125 C 23.167969 8.78125 23.152344 8.785156 23.136719 8.789062 C 23.09375 8.808594 23.039062 8.816406 22.972656 8.8125 C 22.820312 8.800781 22.582031 8.746094 22.234375 8.59375 C 22.207031 8.582031 22.179688 8.570312 22.148438 8.554688 C 22.027344 8.496094 21.894531 8.429688 21.757812 8.351562 C 21.710938 8.324219 21.660156 8.296875 21.609375 8.265625 C 20.648438 7.703125 19.484375 6.785156 18.363281 5.660156 C 18.359375 5.660156 18.355469 5.65625 18.351562 5.652344 C 15.695312 3.035156 14.96875 1.0625 15.210938 0.820312 C 15.25 0.78125 15.292969 0.78125 15.371094 0.78125 Z M 7.203125 18.40625 L 2.011719 21.988281 L 5.59375 16.835938 L 5.988281 17.222656 C 6.109375 17.347656 6.230469 17.476562 6.359375 17.601562 C 6.535156 17.773438 6.714844 17.945312 6.898438 18.109375 Z M 14.246094 18.207031 C 14.164062 18.929688 13.761719 19.574219 13.117188 19.9375 C 12.476562 20.296875 11.710938 20.339844 11.027344 20.015625 C 9.738281 19.453125 8.289062 18.40625 6.960938 17.078125 C 5.632812 15.75 4.589844 14.300781 4.023438 13.015625 C 3.703125 12.332031 3.742188 11.566406 4.105469 10.921875 C 4.46875 10.277344 5.070312 9.875 5.835938 9.796875 C 6.035156 9.753906 6.199219 9.753906 6.359375 9.753906 C 6.941406 9.753906 7.558594 9.867188 8.25 10.164062 C 8.230469 10.226562 8.230469 10.296875 8.25 10.359375 C 8.492188 11.445312 9.175781 12.492188 10.34375 13.660156 C 11.101562 14.417969 11.863281 14.980469 12.636719 15.359375 C 12.996094 15.542969 13.355469 15.6875 13.722656 15.792969 C 13.804688 15.792969 13.84375 15.792969 13.921875 15.792969 C 14.207031 16.636719 14.324219 17.441406 14.246094 18.207031 Z M 15.695312 12.855469 L 13.933594 14.613281 C 13.867188 14.632812 13.804688 14.664062 13.761719 14.703125 L 13.640625 14.824219 C 12.714844 14.542969 11.832031 13.941406 10.90625 13.015625 C 9.960938 12.03125 9.402344 11.203125 9.113281 10.339844 L 13.359375 6.054688 C 13.722656 7.058594 14.367188 8.023438 15.171875 8.828125 C 16.015625 9.632812 16.941406 10.277344 17.90625 10.640625 Z M 18.539062 10.035156 C 17.546875 9.699219 16.628906 9.117188 15.773438 8.265625 C 14.890625 7.339844 14.285156 6.292969 14.003906 5.207031 C 13.988281 5.167969 13.964844 5.125 13.9375 5.085938 C 13.894531 4.886719 13.863281 4.683594 13.84375 4.484375 C 13.761719 3.476562 13.964844 2.511719 14.488281 1.707031 C 14.929688 2.996094 16.257812 4.765625 17.707031 6.292969 C 19.195312 7.785156 21.003906 9.152344 22.292969 9.554688 C 21.121094 10.371094 19.792969 10.4375 18.539062 10.035156 Z M 18.539062 10.035156"/>
</svg>
