<svg xmlns="http://www.w3.org/2000/svg" width="32" height="32" viewBox="0 0 24 24">
    <path d="M 9.199219 8.800781 C 8.320312 8.800781 7.601562 9.519531 7.601562 10.398438 C 7.601562 11.28125 8.320312 12 9.199219 12 C 10.078125 12 10.800781 11.28125 10.800781 10.398438 C 10.800781 9.519531 10.078125 8.800781 9.199219 8.800781 Z M 9.199219 11.199219 C 8.761719 11.199219 8.398438 10.839844 8.398438 10.398438 C 8.398438 9.960938 8.761719 9.601562 9.199219 9.601562 C 9.640625 9.601562 10 9.960938 10 10.398438 C 10 10.839844 9.640625 11.199219 9.199219 11.199219 Z M 9.199219 11.199219"/>
    <path d="M 21.601562 3.601562 L 15.199219 3.601562 C 15.078125 3.601562 14.960938 3.640625 14.878906 3.761719 C 14.199219 4.679688 13.121094 5.199219 12 5.199219 C 10.878906 5.199219 9.800781 4.679688 9.121094 3.761719 C 9.039062 3.640625 8.921875 3.601562 8.800781 3.601562 L 2.398438 3.601562 C 1.078125 3.601562 0 4.679688 0 6 L 0 18 C 0 19.320312 1.078125 20.398438 2.398438 20.398438 L 8.800781 20.398438 C 8.921875 20.398438 9.039062 20.359375 9.121094 20.238281 C 9.800781 19.320312 10.878906 18.800781 12 18.800781 C 13.121094 18.800781 14.199219 19.320312 14.878906 20.238281 C 14.960938 20.359375 15.078125 20.398438 15.199219 20.398438 L 21.601562 20.398438 C 22.921875 20.398438 24 19.320312 24 18 L 24 6 C 24 4.679688 22.921875 3.601562 21.601562 3.601562 Z M 0.800781 13.601562 L 19.679688 13.601562 C 19.039062 15.039062 17.601562 16 16 16 L 0.800781 16 Z M 19.921875 12.800781 L 0.800781 12.800781 L 0.800781 8 L 16 8 C 18.199219 8 20 9.800781 20 12 C 20 12.28125 19.960938 12.519531 19.921875 12.800781 Z M 23.199219 18 C 23.199219 18.878906 22.480469 19.601562 21.601562 19.601562 L 15.398438 19.601562 C 14.558594 18.601562 13.320312 18 12 18 C 10.679688 18 9.441406 18.601562 8.601562 19.601562 L 2.398438 19.601562 C 1.519531 19.601562 0.800781 18.878906 0.800781 18 L 0.800781 16.800781 L 16 16.800781 C 18.121094 16.800781 20.039062 15.359375 20.640625 13.320312 C 20.640625 13.277344 20.640625 13.230469 20.636719 13.179688 C 20.734375 12.789062 20.800781 12.394531 20.800781 12 C 20.800781 9.359375 18.640625 7.199219 16 7.199219 L 0.800781 7.199219 L 0.800781 6 C 0.800781 5.121094 1.519531 4.398438 2.398438 4.398438 L 8.601562 4.398438 C 9.441406 5.398438 10.679688 6 12 6 C 13.320312 6 14.558594 5.398438 15.398438 4.398438 L 21.601562 4.398438 C 22.480469 4.398438 23.199219 5.121094 23.199219 6 Z M 23.199219 18"/>
</svg>
