<svg xmlns="http://www.w3.org/2000/svg" width="32" height="32" viewBox="0 0 24 24">
    <path d="M9.2 8.8c-.88 0-1.598.72-1.598 1.598 0 .883.718 1.602 1.597 1.602.88 0 1.602-.719 1.602-1.602 0-.878-.723-1.597-1.602-1.597zm0 2.4c-.438 0-.802-.36-.802-.802a.801.801 0 0 1 1.602 0c0 .442-.36.801-.8.801zm0 0"/>
    <path d="M21.602 3.602h-6.403a.363.363 0 0 0-.32.16A3.58 3.58 0 0 1 12 5.199a3.58 3.58 0 0 1-2.879-1.437.363.363 0 0 0-.32-.16H2.398A2.404 2.404 0 0 0 0 6v12a2.404 2.404 0 0 0 2.398 2.398h6.403c.12 0 .238-.039.32-.16A3.58 3.58 0 0 1 12 18.801c1.121 0 2.2.52 2.879 1.437.082.121.2.16.32.16h6.403A2.404 2.404 0 0 0 24 18V6a2.404 2.404 0 0 0-2.398-2.398zM.8 13.602H19.68A4.044 4.044 0 0 1 16 16H.8zm19.12-.801H.802V8H16c2.2 0 4 1.8 4 4 0 .281-.04.52-.078.8zM23.2 18c0 .879-.719 1.602-1.597 1.602h-6.204A4.449 4.449 0 0 0 12 18c-1.32 0-2.559.602-3.398 1.602H2.398A1.605 1.605 0 0 1 .801 18v-1.2H16c2.121 0 4.04-1.44 4.64-3.48 0-.043 0-.09-.003-.14A4.88 4.88 0 0 0 20.8 12c0-2.64-2.16-4.8-4.801-4.8H.8V6c0-.879.72-1.602 1.598-1.602h6.204C9.442 5.398 10.68 6 12 6c1.32 0 2.559-.602 3.398-1.602h6.204c.878 0 1.597.723 1.597 1.602zm0 0"/>
</svg>
