<svg xmlns="http://www.w3.org/2000/svg" width="32" height="32" viewBox="0 0 24 24">
    <path d="M21.273 12.121c.028-.043.059-.082.086-.129.121-.16.16-.398.121-.597-.039-.2-.16-.36-.359-.48L8.238 2.831a.782.782 0 0 0-.597-.117c-.2.039-.36.16-.48.36-.005.007-.009.01-.013.019l-1.308-.82c-.2-.122-.442-.079-.559.12L1 9.036v.04c-.121.198-.078.44.121.558.2.12.438.082.559-.117C2.2 8.715 3 8.152 3.922 7.953c.918-.2 1.918-.039 2.719.48l9.078 5.68a4.386 4.386 0 0 0-.52 2.082H4.4c-2 0-3.598-1.601-3.598-3.601 0-.239-.16-.399-.403-.399-.238 0-.398.16-.398.399v8c0 .238.16.398.398.398H2c0 .442.36.801.8.801H18c.441 0 .8-.36.762-.8 0-.169-.016-.329-.047-.49.285.06.582.09.887.09A4.388 4.388 0 0 0 24 16.196a4.387 4.387 0 0 0-2.727-4.074zM7.84 3.516l12.879 8.078c-.078.078-.16.199-.239.281-.074-.012-.148-.023-.218-.031a4.14 4.14 0 0 0-.66-.051c-.442 0-.868.066-1.27.184L8.359 5.715a1.666 1.666 0 0 1-.671-.82 1.605 1.605 0 0 1 .03-1.063.27.27 0 0 0 .032-.156c.027-.055.055-.11.09-.16zm8.281 9.957L7.04 7.753a4.344 4.344 0 0 0-2.32-.679c-.32 0-.64.04-.957.078-.242.082-.48.16-.723.243l2.68-4.243 1.12.68a1.638 1.638 0 0 0-.019.125.196.196 0 0 0-.008.047c0 .008-.003.016-.003.023-.036.258-.028.52.023.778a2.403 2.403 0 0 0 1.09 1.59l9.465 5.992c-.348.199-.664.449-.942.734-.113.11-.222.227-.324.352zM.801 20.195v-5.082c.8 1.121 2.12 1.88 3.597 1.88h10.875c.106.581.325 1.124.633 1.6H4.398c-.039 0-.074 0-.113.005h-.02c-.984.05-1.84.68-2.144 1.597zM18 20.992H2.8c0-.082.009-.168.02-.246.008-.023.016-.047.02-.074.058-.281.187-.531.363-.735 0 0 0-.003.004-.003.004-.008.012-.016.02-.024.257-.277.609-.465 1.007-.508h.004c.024-.004.047-.004.07-.004.005-.003.008-.003.012-.003h12.078c.051 0 .114 0 .184.007.36.336.773.614 1.23.817.114.234.188.504.188.773zm1.602-1.199c-.497 0-.965-.098-1.395-.273 0-.004-.004-.004-.008-.004l-.023-.012a3.609 3.609 0 0 1-1.04-.676.35.35 0 0 0-.058-.074 3.578 3.578 0 0 1-1.039-2.2.33.33 0 0 0-.027-.093 3.603 3.603 0 0 1 .52-2.156c.034-.024.073-.047.109-.07.398-.641 1.078-1.16 1.8-1.403a.404.404 0 0 0 .196-.11c.304-.081.629-.128.965-.128 2 0 3.597 1.601 3.597 3.601s-1.597 3.598-3.597 3.598zm0 0"/>
    <path d="M19.602 13.395a2.781 2.781 0 0 0-2.801 2.8 2.78 2.78 0 0 0 2.8 2.797 2.78 2.78 0 0 0 2.797-2.797 2.78 2.78 0 0 0-2.796-2.8zm0 4.8c-1.122 0-2-.883-2-2 0-1.12.878-2 2-2 1.117 0 2 .88 2 2 0 1.117-.883 2-2 2zm0 0"/>
    <path d="M20.68 15.113a.385.385 0 0 0-.559 0l-.52.52-.523-.52a.385.385 0 0 0-.558 0 .385.385 0 0 0 0 .559l.52.523-.52.52a.385.385 0 0 0 0 .558c.082.082.16.122.28.122.122 0 .2-.04.278-.122l.524-.52.52.52c.077.082.16.122.276.122.122 0 .204-.04.282-.122a.385.385 0 0 0 0-.558l-.52-.52.52-.523a.385.385 0 0 0 0-.559zm0 0"/>
</svg>
