<svg xmlns="http://www.w3.org/2000/svg" width="32" height="32" viewBox="0 0 24 24">
    <path d="M12 9.602c2.719 0 4.8-1.043 4.8-2.403S14.72 4.801 12 4.801 7.2 5.84 7.2 7.199c0 1.36 2.081 2.403 4.8 2.403zm0-4c2.281 0 4 .84 4 1.597 0 .762-1.719 1.602-4 1.602-2.281 0-4-.84-4-1.602 0-.758 1.719-1.597 4-1.597zm0 0"/>
    <path d="M12 1.2c-6.719 0-12 2.64-12 6v9.6c0 3.36 5.281 6 12 6h5.64c.36 0 .641-.198.758-.519a.768.768 0 0 0-.003-.41c3.52-1.078 5.605-2.95 5.605-5.07V7.199c0-3.36-5.281-6-12-6zm0 .8c6.078 0 11.2 2.398 11.2 5.2 0 2.8-5.122 5.198-11.2 5.198C5.922 12.398.8 10 .8 7.2.8 4.4 5.923 2 12 2zm0 20C5.922 22 .8 19.602.8 16.8V9.399c.845 1.102 2.313 2.036 4.204 2.704a.066.066 0 0 0 .02.007l.206.07a.19.19 0 0 1 .028.012c.078.024.152.051.23.075.008 0 .016.004.024.007l.191.059a.553.553 0 0 1 .086.027c.047.012.09.024.137.04.031.007.066.019.097.027l.13.035c.066.02.128.035.19.05.04.012.075.02.11.032.047.008.09.02.137.031l.09.024.14.035c.028.004.055.012.078.015.172.04.344.079.516.114l.07.011c.055.012.11.024.16.032.024.004.051.008.075.015.176.032.36.063.543.094a.43.43 0 0 0 .07.008 2.286 2.286 0 0 0 .246.039l.16.023.086.012.285.035.102.012c.05.004.098.012.144.016l.122.011c.046.008.09.012.136.016a18.808 18.808 0 0 1 .262.023c.082.008.164.016.246.02.04.004.074.008.113.008l.16.011c.04.004.079.004.118.008.058.004.117.008.175.008.032.004.063.004.098.008l.266.012h.07c.07.004.14.004.215.007h.094c.066.004.133.004.199.004a.633.633 0 0 0 .086.004H17.48l-.68.442a.903.903 0 0 0-.402.757c0 .32.16.602.403.762l1.16.762c.039 0 .039.039.039.078 0 .04 0 .078-.04.04l-1.16.76c-.241.2-.402.438-.402.759 0 .007.004.015.004.02 0 .007-.004.015-.004.023 0 .32.16.597.403.757l1.16.762c.039.04.039.04.039.078 0 .04 0 .04-.04.082l-1.198.797a.894.894 0 0 0-.403.723c0 .277.16.558.403.719l.718.48zm11.2-5.2c0 1.802-2.079 3.481-5.4 4.438l-.562-.36c-.039-.038-.039-.077-.039-.077v-.04l1.2-.8c.242-.2.402-.441.402-.762 0-.32-.16-.597-.403-.758l-1.16-.761c-.039-.04-.039-.04-.039-.078 0-.043 0-.043.04-.082l1.16-.758A.91.91 0 0 0 18.8 16a.91.91 0 0 0-.403-.762l-1.16-.758c-.039-.039-.039-.039-.039-.082v-.078l.84-.558a.89.89 0 0 0 .246-.27c.02-.035.035-.07.05-.105.009-.02.013-.04.017-.059a.646.646 0 0 0 .03-.23.68.68 0 0 0-.023-.176c-.039-.242-.238-.402-.437-.48.965-.27 1.844-.602 2.613-.989 1.152-.574 2.067-1.262 2.664-2.055zm0 0"/>
</svg>
