<svg xmlns="http://www.w3.org/2000/svg" width="32" height="32" viewBox="0 0 24 24">
    <path d="M 4.832031 9.765625 L 3.582031 9.777344 L 3.59375 10.78125 L 4.839844 10.769531 Z M 5.996094 9.757812 L 12.292969 9.703125 L 12.300781 10.703125 L 6.007812 10.757812 Z M 4.859375 12.828125 L 3.609375 12.839844 L 3.617188 13.839844 L 4.867188 13.828125 Z M 6.023438 12.816406 L 12.316406 12.761719 L 12.328125 13.765625 L 6.03125 13.820312 Z M 3.636719 15.898438 L 3.644531 16.902344 L 4.894531 16.890625 L 4.886719 15.886719 Z M 6.058594 16.882812 L 6.050781 15.878906 L 12.34375 15.824219 L 12.355469 16.824219 Z M 24 20.910156 L 21.921875 18.976562 C 23.242188 17.179688 23.089844 14.636719 21.464844 13.007812 C 21.066406 12.609375 20.613281 12.300781 20.128906 12.082031 L 20.128906 2.90625 C 20.128906 2.601562 19.882812 2.355469 19.578125 2.355469 L 0.554688 2.355469 C 0.246094 2.355469 0 2.601562 0 2.90625 L 0 19.851562 C 0 20.15625 0.246094 20.402344 0.554688 20.402344 L 16.234375 20.402344 C 17.855469 21.179688 19.835938 20.949219 21.242188 19.714844 L 23.316406 21.644531 Z M 19.023438 3.460938 L 19.023438 6.371094 L 1.105469 6.371094 L 1.105469 3.460938 Z M 1.105469 7.480469 L 19.023438 7.480469 L 19.023438 11.734375 C 17.59375 11.480469 16.070312 11.90625 14.964844 13.007812 C 13.242188 14.734375 13.175781 17.492188 14.769531 19.296875 L 1.105469 19.296875 Z M 15.667969 18.808594 C 14.257812 17.398438 14.257812 15.117188 15.667969 13.710938 C 17.074219 12.300781 19.355469 12.300781 20.765625 13.710938 C 22.171875 15.117188 22.171875 17.398438 20.765625 18.808594 C 19.355469 20.214844 17.074219 20.214844 15.667969 18.808594 Z M 15.667969 18.808594"/>
</svg>
