<svg xmlns="http://www.w3.org/2000/svg" width="32" height="32" viewBox="0 0 24 24">
    <path d="M12 0C5.383 0 0 5.383 0 12s5.383 12 12 12 12-5.383 12-12S18.617 0 12 0zm10.934 12.742A10.907 10.907 0 0 1 20 19.484l-1.328-1.328-.735.739 1.317 1.316a10.932 10.932 0 0 1-6.734 2.738v-1.812h-1.04v1.812a10.913 10.913 0 0 1-6.734-2.742l1.309-1.312-.735-.735L4 19.484a10.917 10.917 0 0 1-2.934-6.742h2.02v-1.039H1.043a10.94 10.94 0 0 1 2.746-6.957l1.54 1.54.734-.735-1.547-1.547A10.923 10.923 0 0 1 11.48 1.05v2.258h1.04V1.05a10.938 10.938 0 0 1 6.94 2.93l-1.57 1.574.739.734 1.562-1.562a10.93 10.93 0 0 1 2.766 6.976h-2.043v1.04zm0 0"/>
    <path d="M12.367 12.367l-.734-.734 4.32-4.32.735.734zm0 0"/>
</svg>
