<svg xmlns="http://www.w3.org/2000/svg" width="32" height="32" viewBox="0 0 24 24">
    <path d="M12 0C5.383 0 0 5.383 0 12s5.383 12 12 12 12-5.383 12-12S18.617 0 12 0zm0 22.98C5.945 22.98 1.02 18.055 1.02 12 1.02 5.945 5.945 1.02 12 1.02c6.055 0 10.98 4.925 10.98 10.98 0 6.055-4.925 10.98-10.98 10.98zm0 0"/>
    <path d="M12 3.168c-4.871 0-8.832 3.96-8.832 8.832 0 4.871 3.96 8.832 8.832 8.832 4.871 0 8.832-3.96 8.832-8.832 0-4.871-3.96-8.832-8.832-8.832zm7.781 9.504a7.775 7.775 0 0 1-1.988 4.562l-.863-.863-.723.719.855.855a7.771 7.771 0 0 1-4.55 1.848v-1.168h-1.024v1.168a7.74 7.74 0 0 1-4.55-1.852l.847-.847-.723-.723-.859.86a7.783 7.783 0 0 1-1.984-4.56h1.32v-1.019H4.195a7.795 7.795 0 0 1 1.86-4.714L7.07 7.952l.72-.723-1.024-1.023a7.776 7.776 0 0 1 4.722-2v1.492h1.024V4.207c1.8.117 3.437.848 4.703 1.984l-1.04 1.043.723.723 1.032-1.035a7.797 7.797 0 0 1 1.875 4.73H18.46v1.02zm0 0"/>
    <path d="M12.363 12.36l-.722-.72 3.129-3.132.722.722zm0 0"/>
</svg>
