<svg xmlns="http://www.w3.org/2000/svg" width="32" height="32" viewBox="0 0 24 24">
    <path d="M20.742 11.7a5.08 5.08 0 0 0-5.07-4.903c-.125 0-.254.004-.39.02a5.095 5.095 0 0 0-4.177-2.204 5.041 5.041 0 0 0-4.187 2.215c-4.809.715-4.555 5.223-4.55 5.317A5.086 5.086 0 0 0 0 16.469c.008 1.61 1.36 2.918 3.012 2.918h17.976c1.653 0 3.004-1.309 3.012-2.95a5.109 5.109 0 0 0-3.258-4.738zm.246 6.663h-8.476v-5.277l2.222 2.226a.519.519 0 0 0 .723 0c.2-.199.2-.523 0-.722l-3.098-3.098c-.199-.199-.52-.199-.718 0L8.543 14.59a.512.512 0 0 0 .723.723l2.222-2.227v5.277H3.012c-1.09 0-1.992-.851-1.992-1.925 0-2.715 2.433-3.735 2.433-3.735-.547-3.73 2.719-4.973 4.05-4.887 0 0 1.075-2.18 3.602-2.18 2.61 0 3.657 2.274 3.657 2.274 3.703-.582 5.16 2.453 4.937 4.531 0 0 3.278.715 3.278 4.02 0 1.05-.899 1.902-1.989 1.902zm0 0"/>
</svg>
