<svg xmlns="http://www.w3.org/2000/svg" width="32" height="32" viewBox="0 0 24 24">
    <path d="M4.426 5a.499.499 0 0 0-.703-.004.499.499 0 0 0-.004.703l7.062 7.14c.192.196.508.2.703.005a.499.499 0 0 0 .004-.703zm0 0M16.676 13.504a3.14 3.14 0 0 0 0 6.281 3.142 3.142 0 1 0 0-6.281zm0 5.016a1.875 1.875 0 1 1 0-3.751 1.875 1.875 0 0 1 0 3.75zm0 0"/>
    <path d="M16.676 9.32c-.727 0-1.43.106-2.09.301l-1.961-1.96a.524.524 0 0 0-.277-.141l-2.442-.403.727-.726a.522.522 0 0 0 .148-.36.525.525 0 0 0-.148-.363l-1.735-1.73a.503.503 0 0 0-.277-.145L6.18 3.391l.726-.727c.2-.2.2-.52 0-.719L5.141.18a.508.508 0 0 0-.532-.121L.336 1.609A.51.51 0 0 0 0 2.102l.063 2.66a.53.53 0 0 0 .148.347l9.441 9.438a7.325 7.325 0 0 0 7.023 9.422 7.324 7.324 0 0 0 0-14.649zm0 13.637a6.312 6.312 0 0 1-6.313-6.312c0-.614.114-1.243.278-1.805.027-.086.238-.496-.04-.785L1.079 4.53l-.05-2.09 3.62-1.312 1.18 1.176-1.07 1.07c-.313.285-.09.809.277.86l3.258.538 1.258 1.258-1.067 1.067c-.136.136-.328.683.278.863l3.258.535 2.07 2.07a.5.5 0 0 0 .527.121c.047-.015.938-.355 2.059-.355a6.312 6.312 0 1 1 0 12.625zm0 0"/>
</svg>
