<svg xmlns="http://www.w3.org/2000/svg" width="32" height="32" viewBox="0 0 24 24">
    <path d="M 21.246094 12.414062 L 21.246094 7.941406 L 17.042969 7.941406 L 17.042969 0 L 0.0625 0 L 0.0625 17.367188 L 8.003906 17.367188 L 8.003906 21.480469 L 12.601562 21.480469 L 12.601562 24 L 23.9375 24 L 23.9375 12.414062 Z M 7.988281 7.972656 L 7.988281 16.367188 L 1.0625 16.367188 L 1.0625 1 L 16.039062 1 L 16.039062 7.941406 L 8.003906 7.941406 L 8.003906 7.972656 Z M 9.003906 20.476562 L 9.003906 8.945312 L 20.242188 8.945312 L 20.242188 12.414062 L 12.601562 12.414062 L 12.601562 20.476562 Z M 22.9375 23 L 13.601562 23 L 13.601562 13.414062 L 22.9375 13.414062 Z M 22.9375 23"/>
</svg>
