<svg xmlns="http://www.w3.org/2000/svg" width="32" height="32" viewBox="0 0 24 24">
    <path d="M6.5 6.765625L.253906 6.765625.253906 0 6.5 0zM1.277344 5.746094L5.480469 5.746094 5.480469 1.019531 1.277344 1.019531zM6.5 15.382812L.253906 15.382812.253906 8.617188 6.5 8.617188zM1.277344 14.363281L5.480469 14.363281 5.480469 9.636719 1.277344 9.636719zM6.5 24L.253906 24 .253906 17.234375 6.5 17.234375zM1.277344 22.980469L5.480469 22.980469 5.480469 18.253906 1.277344 18.253906zM9.433594 2.871094L23.746094 2.871094 23.746094 3.894531 9.433594 3.894531zM9.433594 11.488281L23.746094 11.488281 23.746094 12.511719 9.433594 12.511719zM9.433594 20.105469L23.746094 20.105469 23.746094 21.128906 9.433594 21.128906zM9.433594 20.105469"/>
</svg>
