<svg xmlns="http://www.w3.org/2000/svg" width="32" height="32" viewBox="0 0 24 24">
    <path d="M13.645 5.91l1.101-1.101-.723-.72-1.097 1.098a5.47 5.47 0 0 0-3.512-1.269 5.485 5.485 0 0 0-3.508 1.266L4.81 4.09l-.72.719 1.095 1.097a5.485 5.485 0 0 0-1.266 3.508 5.47 5.47 0 0 0 1.27 3.512L4.09 14.023l.719.723 1.101-1.101a5.485 5.485 0 0 0 7.012 0l1.101 1.101.723-.723-1.101-1.101a5.485 5.485 0 0 0 0-7.012zm-1.782 5.23l-.722.723 1.054 1.055a4.468 4.468 0 0 1-5.558 0l1.054-1.055-.722-.722-1.055 1.058a4.459 4.459 0 0 1-.973-2.785c0-1.05.364-2.02.97-2.781L6.968 7.69l.722-.722L6.633 5.91a4.46 4.46 0 0 1 2.781-.969c1.05 0 2.02.364 2.785.973L11.141 6.97l.722.722 1.055-1.054a4.468 4.468 0 0 1 0 5.559zm0 0"/>
    <path d="M23.992 20.023a3.737 3.737 0 0 0-1.449-2.718l-4.727-3.64a9.414 9.414 0 1 0-4.152 4.152l3.64 4.726A3.71 3.71 0 0 0 20.267 24c.996 0 1.933-.387 2.64-1.094a3.745 3.745 0 0 0 1.086-2.883zM1.02 9.414a8.393 8.393 0 1 1 16.784-.003 8.393 8.393 0 0 1-16.784.003zm21.164 12.77a2.702 2.702 0 0 1-1.918.796 2.686 2.686 0 0 1-2.153-1.062l-3.578-4.605a9.513 9.513 0 0 0 2.774-2.77l4.609 3.57a2.717 2.717 0 0 1 .266 4.07zm0 0"/>
    <path d="M9.04 8.906h.757v1.02h-.758zm0 0"/>
</svg>
