<svg xmlns="http://www.w3.org/2000/svg" width="32" height="32" viewBox="0 0 24 24">
    <path d="M2.813 5.684C1.262 5.684 0 4.406 0 2.84 0 1.273 1.262 0 2.813 0c1.55 0 2.816 1.273 2.816 2.84 0 1.566-1.266 2.844-2.816 2.844zm0-4.664c-.993 0-1.801.816-1.801 1.82s.808 1.82 1.8 1.82c.997 0 1.805-.816 1.805-1.82S3.81 1.02 2.813 1.02zm0 0M8.938 5.684c-1.551 0-2.813-1.278-2.813-2.844C6.125 1.273 7.387 0 8.938 0c1.55 0 2.812 1.273 2.812 2.84 0 1.566-1.262 2.844-2.813 2.844zm0-4.664c-.993 0-1.801.816-1.801 1.82s.808 1.82 1.8 1.82c.997 0 1.805-.816 1.805-1.82s-.808-1.82-1.805-1.82zm0 0M15.063 5.684c-1.551 0-2.817-1.278-2.817-2.844C12.25 1.273 13.512 0 15.062 0c1.551 0 2.813 1.273 2.813 2.84 0 1.566-1.262 2.844-2.813 2.844zm0-4.664c-.997 0-1.805.816-1.805 1.82s.808 1.82 1.805 1.82c.992 0 1.8-.816 1.8-1.82s-.808-1.82-1.8-1.82zm0 0M21.188 5.684c-1.555 0-2.817-1.278-2.817-2.844 0-1.567 1.262-2.84 2.817-2.84C22.738 0 24 1.273 24 2.84c0 1.566-1.262 2.844-2.813 2.844zm0-4.664c-.997 0-1.805.816-1.805 1.82s.808 1.82 1.805 1.82c.992 0 1.8-.816 1.8-1.82s-.808-1.82-1.8-1.82zm0 0M12 14.84c-1.55 0-2.813-1.274-2.813-2.84 0-1.566 1.262-2.84 2.813-2.84 1.55 0 2.813 1.274 2.813 2.84 0 1.566-1.262 2.84-2.813 2.84zm0-4.66c-.992 0-1.8.816-1.8 1.82s.808 1.82 1.8 1.82 1.8-.816 1.8-1.82-.808-1.82-1.8-1.82zm0 0M21.188 11.79c-1.555 0-2.817-1.278-2.817-2.845 0-1.566 1.262-2.84 2.817-2.84 1.55 0 2.812 1.274 2.812 2.84 0 1.567-1.262 2.844-2.813 2.844zm0-4.661a1.81 1.81 0 0 0-1.805 1.816c0 1.004.808 1.82 1.805 1.82.992 0 1.8-.816 1.8-1.82a1.81 1.81 0 0 0-1.8-1.816zm0 0M21.188 17.895c-1.555 0-2.817-1.274-2.817-2.84 0-1.567 1.262-2.844 2.817-2.844 1.55 0 2.812 1.277 2.812 2.844 0 1.566-1.262 2.84-2.813 2.84zm0-4.66c-.997 0-1.805.816-1.805 1.82a1.81 1.81 0 0 0 1.805 1.816c.992 0 1.8-.812 1.8-1.816s-.808-1.82-1.8-1.82zm0 0M21.188 24c-1.555 0-2.817-1.273-2.817-2.84 0-1.566 1.262-2.844 2.817-2.844 1.55 0 2.812 1.278 2.812 2.844 0 1.567-1.262 2.84-2.813 2.84zm0-4.66c-.997 0-1.805.816-1.805 1.82s.808 1.82 1.805 1.82c.992 0 1.8-.816 1.8-1.82s-.808-1.82-1.8-1.82zm0 0"/>
</svg>
