<svg xmlns="http://www.w3.org/2000/svg" width="32" height="32" viewBox="0 0 24 24">
    <path d="M24 .273L22.98.25c-.003.145-.144 3.488-3.89 6.09a6.756 6.756 0 0 0-5.055-2.242c-1.52 0-2.957.488-4.16 1.418L.199 12.992c-.324.266-.176.613-.094.719l7.7 9.848c.254.32.62.16.715.09l9.68-7.477a6.705 6.705 0 0 0 2.57-4.496 6.653 6.653 0 0 0-1.055-4.528C23.863 4.262 23.996.438 24 .273zm-5.746 6.668l-4.488 3.47-3.22-4.122a5.73 5.73 0 0 1 3.49-1.172c1.62 0 3.132.66 4.218 1.824zM8.297 22.527l-7.07-9.039 8.507-6.574 7.07 9.043zm11.46-10.976a5.69 5.69 0 0 1-2.144 3.781l-3.218-4.117 4.488-3.473a5.657 5.657 0 0 1 .875 3.809zm0 0"/>
</svg>
