<svg xmlns="http://www.w3.org/2000/svg" width="32" height="32" viewBox="0 0 24 24">
    <path d="M 24 0.273438 L 22.980469 0.25 C 22.976562 0.394531 22.835938 3.738281 19.089844 6.339844 C 17.804688 4.910156 15.988281 4.097656 14.035156 4.097656 C 12.515625 4.097656 11.078125 4.585938 9.875 5.515625 L 0.199219 12.992188 C -0.125 13.257812 0.0234375 13.605469 0.105469 13.710938 L 7.804688 23.558594 C 8.058594 23.878906 8.425781 23.71875 8.519531 23.648438 L 18.199219 16.171875 C 19.632812 15.0625 20.542969 13.46875 20.769531 11.675781 C 20.972656 10.074219 20.597656 8.484375 19.714844 7.148438 C 23.863281 4.261719 23.996094 0.4375 24 0.273438 Z M 18.253906 6.941406 L 13.765625 10.410156 L 10.546875 6.289062 C 11.558594 5.523438 12.761719 5.117188 14.035156 5.117188 C 15.65625 5.117188 17.167969 5.777344 18.253906 6.941406 Z M 8.296875 22.527344 L 1.226562 13.488281 L 9.734375 6.914062 L 16.804688 15.957031 Z M 19.757812 11.550781 C 19.566406 13.050781 18.808594 14.394531 17.613281 15.332031 L 14.394531 11.214844 L 18.882812 7.742188 C 19.617188 8.871094 19.925781 10.203125 19.757812 11.550781 Z M 19.757812 11.550781"/>
</svg>
