<svg xmlns="http://www.w3.org/2000/svg" width="32" height="32" viewBox="0 0 24 24">
    <path d="M23.895 6.426a.507.507 0 0 0-.407-.203h-.004L6.23 6.176 5.012 2.53a.511.511 0 0 0-.485-.351H.512a.511.511 0 1 0 0 1.023H4.16L8.535 16.27c.07.21.266.347.485.347h13.21v2.621h-.984a1.916 1.916 0 0 0-1.789-1.242c-.82 0-1.52.52-1.789 1.242h-5.195a1.912 1.912 0 0 0-1.79-1.242 1.913 1.913 0 0 0 0 3.824c.934 0 1.712-.672 1.88-1.558h5.015a1.916 1.916 0 0 0 1.879 1.558c.934 0 1.711-.672 1.879-1.558h1.406c.281 0 .512-.23.512-.512v-3.64a.511.511 0 0 0-.512-.512h-1.21l2.448-8.723a.511.511 0 0 0-.085-.45zm-13.211 14.37a.89.89 0 0 1 0-1.777.89.89 0 1 1 0 1.778zm8.773 0a.89.89 0 0 1 0-1.777.895.895 0 0 1 .89.887.89.89 0 0 1-.89.89zm1.012-5.198H9.387L6.574 7.199l16.239.055zm0 0"/>
</svg>
