<svg xmlns="http://www.w3.org/2000/svg" width="32" height="32" viewBox="0 0 24 24">
    <path d="M 1.042969 0 L 0 0 L 0 23.476562 C 0 23.765625 0.234375 24 0.523438 24 L 24 24 L 24 22.957031 L 1.042969 22.957031 Z M 1.042969 0"/>
    <path d="M 23.042969 1.5 L 17.917969 9.300781 L 15.207031 6.589844 C 14.945312 6.328125 14.625 6.398438 14.441406 6.621094 L 9.710938 12.207031 L 3.109375 7.152344 C 2.703125 6.824219 2.269531 7.191406 2.269531 7.566406 L 2.269531 19.613281 C 2.269531 19.902344 2.503906 20.136719 2.792969 20.136719 L 23.476562 20.136719 C 23.765625 20.136719 24 19.902344 24 19.613281 L 24 1.789062 C 24 1.132812 23.257812 1.136719 23.042969 1.5 Z M 22.957031 19.09375 L 3.3125 19.09375 L 3.3125 8.625 L 9.472656 13.335938 C 9.691406 13.507812 10.007812 13.472656 10.1875 13.257812 L 14.871094 7.730469 L 17.632812 10.492188 C 17.914062 10.753906 18.300781 10.628906 18.4375 10.410156 L 22.957031 3.53125 Z M 22.957031 19.09375"/>
</svg>
