<svg xmlns="http://www.w3.org/2000/svg" width="32" height="32" viewBox="0 0 24 24">
    <path d="M 23.445312 0 L 0.554688 0 C 0.273438 0 0.046875 0.226562 0.046875 0.511719 L 0.046875 18.925781 C 0.046875 19.207031 0.273438 19.4375 0.554688 19.4375 L 8.78125 19.4375 L 6.574219 23.234375 C 6.484375 23.390625 6.484375 23.585938 6.574219 23.746094 C 6.664062 23.902344 6.832031 24 7.015625 24 L 16.984375 24 C 17.164062 24 17.335938 23.902344 17.425781 23.746094 C 17.515625 23.585938 17.515625 23.390625 17.425781 23.234375 L 15.21875 19.4375 L 23.445312 19.4375 C 23.726562 19.4375 23.953125 19.207031 23.953125 18.925781 L 23.953125 0.511719 C 23.953125 0.226562 23.726562 0 23.445312 0 Z M 1.066406 1.019531 L 22.933594 1.019531 L 22.933594 13.847656 L 1.066406 13.847656 Z M 16.097656 22.980469 L 7.902344 22.980469 L 9.964844 19.4375 L 14.035156 19.4375 Z M 22.933594 18.414062 L 1.066406 18.414062 L 1.066406 14.867188 L 22.933594 14.867188 Z M 22.933594 18.414062"/>
    <path d="M 18.296875 1.535156 C 17.191406 1.535156 16.292969 2.433594 16.292969 3.535156 C 16.292969 4.183594 16.605469 4.757812 17.082031 5.125 L 15.117188 9.378906 C 14.980469 9.347656 14.835938 9.332031 14.6875 9.332031 C 14.425781 9.332031 14.175781 9.382812 13.949219 9.472656 L 11.335938 6.496094 C 11.582031 6.164062 11.726562 5.753906 11.726562 5.308594 C 11.726562 4.207031 10.832031 3.308594 9.726562 3.308594 C 8.625 3.308594 7.726562 4.207031 7.726562 5.308594 C 7.726562 5.746094 7.871094 6.15625 8.109375 6.484375 L 6.238281 8.464844 C 6.066406 8.417969 5.890625 8.390625 5.703125 8.390625 C 4.601562 8.390625 3.703125 9.289062 3.703125 10.390625 C 3.703125 11.496094 4.601562 12.390625 5.703125 12.390625 C 6.808594 12.390625 7.707031 11.496094 7.707031 10.390625 C 7.707031 9.847656 7.488281 9.359375 7.136719 8.996094 L 8.902344 7.132812 C 9.15625 7.246094 9.433594 7.308594 9.726562 7.308594 C 10.015625 7.308594 10.292969 7.246094 10.539062 7.136719 L 13.125 10.085938 C 12.851562 10.425781 12.683594 10.859375 12.683594 11.332031 C 12.683594 12.4375 13.582031 13.335938 14.6875 13.335938 C 15.789062 13.335938 16.6875 12.4375 16.6875 11.332031 C 16.6875 10.746094 16.433594 10.214844 16.027344 9.847656 L 18.027344 5.515625 C 18.113281 5.53125 18.203125 5.535156 18.292969 5.535156 C 19.398438 5.535156 20.296875 4.636719 20.296875 3.535156 C 20.296875 2.433594 19.398438 1.535156 18.296875 1.535156 Z M 5.703125 11.371094 C 5.164062 11.371094 4.726562 10.933594 4.726562 10.390625 C 4.726562 9.851562 5.164062 9.410156 5.703125 9.410156 C 6.246094 9.410156 6.683594 9.851562 6.683594 10.390625 C 6.683594 10.933594 6.246094 11.371094 5.703125 11.371094 Z M 8.746094 5.308594 C 8.746094 4.769531 9.1875 4.328125 9.726562 4.328125 C 10.269531 4.328125 10.707031 4.769531 10.707031 5.308594 C 10.707031 5.847656 10.269531 6.289062 9.726562 6.289062 C 9.1875 6.289062 8.746094 5.847656 8.746094 5.308594 Z M 14.6875 12.3125 C 14.144531 12.3125 13.707031 11.875 13.707031 11.332031 C 13.707031 10.792969 14.144531 10.355469 14.6875 10.355469 C 15.226562 10.355469 15.664062 10.792969 15.664062 11.332031 C 15.664062 11.875 15.226562 12.3125 14.6875 12.3125 Z M 18.296875 4.515625 C 17.753906 4.515625 17.316406 4.074219 17.316406 3.535156 C 17.316406 2.996094 17.753906 2.554688 18.296875 2.554688 C 18.835938 2.554688 19.273438 2.996094 19.273438 3.535156 C 19.273438 4.074219 18.835938 4.515625 18.296875 4.515625 Z M 18.296875 4.515625"/>
</svg>
