<svg xmlns="http://www.w3.org/2000/svg" width="32" height="32" viewBox="0 0 24 24">
    <path d="M.957031 22.980469L23.652344 22.980469 23.652344 24 .957031 24zM19.867188 7.652344L20.886719 7.652344 20.886719 21.5625 19.867188 21.5625zM14.191406 11.101562L15.214844 11.101562 15.214844 21.644531 14.191406 21.644531zM8.996094 7.652344L10.019531 7.652344 10.019531 21.5625 8.996094 21.5625zM3.324219 11.101562L4.34375 11.101562 4.34375 21.644531 3.324219 21.644531zM3.324219 11.101562"/>
    <path d="M 5.296875 6.554688 C 5.296875 6.167969 5.210938 5.804688 5.0625 5.476562 L 7.015625 4.433594 C 7.488281 4.964844 8.171875 5.300781 8.933594 5.300781 C 9.449219 5.300781 9.925781 5.148438 10.328125 4.886719 L 12.457031 6.125 C 12.339844 6.421875 12.273438 6.742188 12.273438 7.078125 C 12.273438 8.5 13.425781 9.652344 14.839844 9.652344 C 16.253906 9.652344 17.40625 8.5 17.40625 7.078125 C 17.40625 6.785156 17.355469 6.503906 17.265625 6.242188 L 19.65625 4.578125 C 20.097656 4.933594 20.660156 5.148438 21.269531 5.148438 C 22.683594 5.148438 23.835938 3.996094 23.835938 2.574219 C 23.835938 1.15625 22.683594 0 21.269531 0 C 19.855469 0 18.703125 1.15625 18.703125 2.574219 C 18.703125 3.011719 18.8125 3.425781 19.003906 3.785156 L 16.75 5.359375 C 16.277344 4.835938 15.597656 4.503906 14.839844 4.503906 C 14.128906 4.503906 13.480469 4.796875 13.015625 5.269531 L 11.078125 4.140625 C 11.34375 3.734375 11.5 3.246094 11.5 2.726562 C 11.5 1.304688 10.351562 0.148438 8.933594 0.148438 C 7.519531 0.148438 6.367188 1.304688 6.367188 2.726562 C 6.367188 3.011719 6.417969 3.289062 6.503906 3.546875 L 4.453125 4.644531 C 3.996094 4.230469 3.390625 3.976562 2.730469 3.976562 C 1.316406 3.976562 0.164062 5.132812 0.164062 6.554688 C 0.164062 7.972656 1.316406 9.128906 2.730469 9.128906 C 4.144531 9.128906 5.296875 7.972656 5.296875 6.554688 Z M 21.269531 1.019531 C 22.121094 1.019531 22.8125 1.71875 22.8125 2.574219 C 22.8125 3.433594 22.121094 4.128906 21.269531 4.128906 C 20.417969 4.128906 19.722656 3.433594 19.722656 2.574219 C 19.722656 1.71875 20.417969 1.019531 21.269531 1.019531 Z M 14.839844 5.523438 C 15.691406 5.523438 16.386719 6.222656 16.386719 7.078125 C 16.386719 7.933594 15.691406 8.632812 14.839844 8.632812 C 13.988281 8.632812 13.296875 7.933594 13.296875 7.078125 C 13.296875 6.222656 13.988281 5.523438 14.839844 5.523438 Z M 8.933594 1.171875 C 9.789062 1.171875 10.480469 1.867188 10.480469 2.726562 C 10.480469 3.582031 9.789062 4.277344 8.933594 4.277344 C 8.082031 4.277344 7.390625 3.582031 7.390625 2.726562 C 7.390625 1.867188 8.082031 1.171875 8.933594 1.171875 Z M 1.1875 6.554688 C 1.1875 5.695312 1.878906 5 2.730469 5 C 3.582031 5 4.277344 5.695312 4.277344 6.554688 C 4.277344 7.410156 3.582031 8.105469 2.730469 8.105469 C 1.878906 8.105469 1.1875 7.410156 1.1875 6.554688 Z M 1.1875 6.554688"/>
</svg>
