<svg xmlns="http://www.w3.org/2000/svg" width="32" height="32" viewBox="0 0 24 24">
    <path d="M7.828 20.89h4.23v1.024h-4.23zm0 0"/>
    <path d="M22.563 2.754H18.96V.512A.508.508 0 0 0 18.449 0H1.437a.508.508 0 0 0-.511.512v22.976c0 .285.226.512.511.512H18.45a.508.508 0 0 0 .512-.512v-9.207h3.602a.508.508 0 0 0 .511-.511V3.266a.511.511 0 0 0-.512-.512zM17.94 22.98H1.945v-3.152h15.996zm0-4.175H1.945V1.02h15.996v1.734H7.828a.51.51 0 0 0-.508.512V13.77c0 .285.227.511.508.511H9.77l1.925 3.13c.22.323.692.3.871 0l1.926-3.13h3.45zm4.114-5.543h-7.848c-.176 0-.34.09-.434.242l-1.64 2.664-1.645-2.664a.508.508 0 0 0-.433-.242H8.34V3.777h13.715zm0 0"/>
    <path d="M15.031 4.758h1.02v4.96h-1.02zm0 0M15.031 10.352h1.02v1.277h-1.02zm0 0"/>
</svg>
