<svg xmlns="http://www.w3.org/2000/svg" width="32" height="32" viewBox="0 0 24 24">
    <path d="M 7.828125 20.890625 L 12.058594 20.890625 L 12.058594 21.914062 L 7.828125 21.914062 Z M 7.828125 20.890625"/>
    <path d="M 22.5625 2.753906 L 18.960938 2.753906 L 18.960938 0.511719 C 18.960938 0.226562 18.734375 0 18.449219 0 L 1.4375 0 C 1.152344 0 0.925781 0.226562 0.925781 0.511719 L 0.925781 23.488281 C 0.925781 23.773438 1.152344 24 1.4375 24 L 18.449219 24 C 18.734375 24 18.960938 23.773438 18.960938 23.488281 L 18.960938 14.28125 L 22.5625 14.28125 C 22.847656 14.28125 23.074219 14.054688 23.074219 13.769531 L 23.074219 3.265625 C 23.074219 2.984375 22.847656 2.753906 22.5625 2.753906 Z M 17.941406 22.980469 L 1.945312 22.980469 L 1.945312 19.828125 L 17.941406 19.828125 Z M 17.941406 18.804688 L 1.945312 18.804688 L 1.945312 1.019531 L 17.941406 1.019531 L 17.941406 2.753906 L 7.828125 2.753906 C 7.546875 2.753906 7.320312 2.984375 7.320312 3.265625 L 7.320312 13.769531 C 7.320312 14.054688 7.546875 14.28125 7.828125 14.28125 L 9.769531 14.28125 L 11.695312 17.410156 C 11.914062 17.734375 12.386719 17.710938 12.566406 17.410156 L 14.492188 14.28125 L 17.941406 14.28125 Z M 22.054688 13.261719 L 14.207031 13.261719 C 14.03125 13.261719 13.867188 13.351562 13.773438 13.503906 L 12.132812 16.167969 L 10.488281 13.503906 C 10.394531 13.351562 10.230469 13.261719 10.054688 13.261719 L 8.339844 13.261719 L 8.339844 3.777344 L 22.054688 3.777344 Z M 22.054688 13.261719"/>
    <path d="M15.03125 4.757812L16.050781 4.757812 16.050781 9.71875 15.03125 9.71875zM15.03125 10.351562L16.050781 10.351562 16.050781 11.628906 15.03125 11.628906zM15.03125 10.351562"/>
</svg>
