<svg xmlns="http://www.w3.org/2000/svg" width="32" height="32" viewBox="0 0 24 24">
    <path d="M 15.714844 6.960938 C 17.804688 6.960938 19.441406 5.972656 19.441406 4.710938 C 19.441406 3.449219 17.804688 2.464844 15.714844 2.464844 C 13.625 2.464844 11.984375 3.449219 11.984375 4.710938 C 11.984375 5.972656 13.625 6.960938 15.714844 6.960938 Z M 15.714844 3.484375 C 17.261719 3.484375 18.417969 4.132812 18.417969 4.710938 C 18.417969 5.289062 17.261719 5.9375 15.714844 5.9375 C 14.164062 5.9375 13.007812 5.289062 13.007812 4.710938 C 13.007812 4.132812 14.164062 3.484375 15.714844 3.484375 Z M 15.714844 3.484375"/>
    <path d="M 23.976562 4.335938 L 23.976562 4.328125 L 23.972656 4.328125 C 23.640625 1.871094 20.132812 0 15.714844 0 C 11.601562 0 8.277344 1.621094 7.566406 3.824219 L 0 3.824219 L 0 20.230469 L 7.585938 20.230469 C 8.335938 22.40625 11.636719 24 15.714844 24 C 20.359375 24 24 21.929688 24 19.289062 C 24 19.289062 23.992188 4.460938 23.976562 4.335938 Z M 15.714844 1.019531 C 19.457031 1.019531 22.644531 2.546875 22.953125 4.414062 L 22.953125 5.007812 C 22.644531 6.875 19.457031 8.402344 15.714844 8.402344 C 11.96875 8.402344 8.777344 6.875 8.472656 5.003906 L 8.472656 4.417969 C 8.777344 2.546875 11.96875 1.019531 15.714844 1.019531 Z M 1.019531 4.84375 L 7.429688 4.84375 L 7.425781 19.210938 L 1.019531 19.210938 Z M 15.714844 22.980469 C 11.773438 22.980469 8.449219 21.289062 8.449219 19.289062 L 8.46875 7.035156 C 9.875 8.472656 12.5625 9.421875 15.714844 9.421875 C 18.863281 9.421875 21.550781 8.472656 22.953125 7.035156 C 22.953125 7.035156 22.980469 19.242188 22.980469 19.289062 C 22.980469 21.289062 19.652344 22.980469 15.714844 22.980469 Z M 15.714844 22.980469"/>
</svg>
