<svg xmlns="http://www.w3.org/2000/svg" width="32" height="32" viewBox="0 0 24 24">
    <path d="M12 8.512A3.49 3.49 0 0 0 8.516 12 3.488 3.488 0 0 0 12 15.484 3.49 3.49 0 0 0 15.488 12 3.494 3.494 0 0 0 12 8.512zm0 5.906A2.422 2.422 0 0 1 9.582 12 2.417 2.417 0 1 1 12 14.418zm0 0"/>
    <path d="M24 11.465h-2.434c-.27-4.856-4.175-8.762-9.03-9.031V0h-1.071v2.434c-4.856.27-8.762 4.175-9.031 9.03H0v1.071h2.434c.27 4.856 4.175 8.762 9.03 9.031V24h1.071v-2.434c4.856-.27 8.762-4.175 9.031-9.03H24zm-3.504 0h-2.078a6.45 6.45 0 0 0-5.883-5.883V3.504a8.523 8.523 0 0 1 7.961 7.96zM12 17.37A5.378 5.378 0 0 1 6.629 12c0-2.96 2.41-5.371 5.371-5.371 2.96 0 5.371 2.41 5.371 5.371 0 2.96-2.41 5.371-5.371 5.371zm-.535-13.867v2.078a6.45 6.45 0 0 0-5.883 5.883H3.504a8.523 8.523 0 0 1 7.96-7.961zm-7.961 9.031h2.078a6.45 6.45 0 0 0 5.883 5.883v2.078a8.523 8.523 0 0 1-7.961-7.96zm9.031 7.961v-2.078a6.45 6.45 0 0 0 5.883-5.883h2.078a8.523 8.523 0 0 1-7.96 7.961zm0 0"/>
    <path d="M12.094 12.848l-.942-.942.754-.754.942.942zm0 0"/>
</svg>
