<svg xmlns="http://www.w3.org/2000/svg" width="32" height="32" viewBox="0 0 24 24">
    <path d="M15.46 8.5a2.692 2.692 0 1 0 0-5.383 2.692 2.692 0 0 0 0 5.383zm0-4.36a1.67 1.67 0 1 1-1.672 1.668c.001-.921.751-1.667 1.673-1.667zm0 0"/>
    <path d="M21.27 5.809A5.815 5.815 0 0 0 15.46 0a5.815 5.815 0 0 0-5.808 5.809c0 .132.008.265.028.406a8.99 8.99 0 0 0-6.95 8.773C2.73 19.957 6.773 24 11.742 24c4.973 0 9.016-4.043 9.016-9.012a8.928 8.928 0 0 0-1.492-4.96c1.332-1.665 2.004-3.083 2.004-4.22zm-4.793 8.668a18.464 18.464 0 0 0-.098-1.407 29.982 29.982 0 0 0 2.2-2.226 7.924 7.924 0 0 1 1.14 3.633zm-6.297-6.7c.277.567.644 1.145 1.054 1.703v4.997H8.031c.094-2.856.93-5.442 2.149-6.7zm2.074 2.97a29.356 29.356 0 0 0 2.879 2.847c.082.07.18.11.281.117.02.254.031.508.04.766h-3.2zM15.46 1.02c2.64 0 4.789 2.148 4.789 4.789 0 .945-.7 2.28-2.016 3.867-1.02 1.226-2.152 2.289-2.734 2.812a.352.352 0 0 0-.04.035c-.976-.87-4.788-4.425-4.788-6.714 0-2.641 2.148-4.79 4.789-4.79zM9.129 7.434c-1.23 1.539-2.031 4.148-2.117 7.043H3.77a7.967 7.967 0 0 1 5.359-7.043zM3.769 15.5h3.243c.082 2.977.894 5.527 2.11 7.035C6.151 21.5 3.976 18.762 3.77 15.5zm4.262 0h3.203v7.398c-1.707-.527-3.086-3.664-3.203-7.398zm4.223 7.398V15.5h3.2c-.114 3.738-1.493 6.871-3.2 7.398zm2.113-.363c1.215-1.508 2.028-4.058 2.11-7.035h3.242c-.207 3.262-2.383 6-5.352 7.035zm0 0"/>
</svg>
