<svg xmlns="http://www.w3.org/2000/svg" width="32" height="32" viewBox="0 0 24 24">
    <path d="M23.836 18.96a4.874 4.874 0 0 0-1.684-3.5L15.48 9.72c.122-.555.18-1.11.18-1.649C15.66 3.621 12.04 0 7.59 0A8.072 8.072 0 0 0 .203 4.828a.51.51 0 0 0 .469.715h7.062v5.055H.672a.508.508 0 0 0-.469.714 8.072 8.072 0 0 0 7.387 4.829c.726 0 1.445-.098 2.148-.293l5.563 6.464A4.86 4.86 0 0 0 18.984 24a4.822 4.822 0 0 0 3.434-1.422 4.873 4.873 0 0 0 1.418-3.617zM1.504 11.618h6.742a.51.51 0 0 0 .512-.508V5.031a.51.51 0 0 0-.512-.508H1.504A7.047 7.047 0 0 1 7.59 1.02c3.887 0 7.05 3.164 7.05 7.05 0 2.735-2.042 7.051-7.05 7.051a7.047 7.047 0 0 1-6.086-3.504zm20.191 10.238a3.837 3.837 0 0 1-5.621-.21l-5.3-6.16c.003 0 .003-.005.007-.005a8.146 8.146 0 0 0 4.395-4.675l6.308 5.43A3.78 3.78 0 0 1 22.816 19a3.81 3.81 0 0 1-1.12 2.855zm0 0"/>
    <path d="M19.758 20.96L18 19.2l.723-.723 1.757 1.761zm0 0"/>
</svg>
