<svg xmlns="http://www.w3.org/2000/svg" width="32" height="32" viewBox="0 0 24 24">
    <path d="M23.602 17.8h-.403V4.603c0-.68-.52-1.204-1.199-1.204H2c-.68 0-1.2.524-1.2 1.204V17.8H.399c-.238 0-.398.16-.398.398v1.2c0 .68.52 1.203 1.2 1.203h21.6c.68 0 1.2-.524 1.2-1.204V18.2c0-.238-.16-.398-.398-.398zm-22-13.198c0-.243.16-.403.398-.403h20c.238 0 .398.16.398.403V17.8H15.2c-.238 0-.398.16-.398.398v.403H9.199v-.403c0-.238-.16-.398-.398-.398H1.6zm21.597 14.796c0 .243-.16.403-.398.403H1.199c-.238 0-.398-.16-.398-.403v-.796h7.597V19c0 .238.16.398.403.398h6.398c.242 0 .403-.16.403-.398v-.398h7.597zm0 0"/>
    <path d="M2.8 6.602H8c.238 0 .398-.16.398-.403 0-.238-.16-.398-.398-.398H2.8c-.241 0-.402.16-.402.398 0 .242.16.403.403.403zm0 0M10.398 7.398H4.801c-.242 0-.403.16-.403.403 0 .238.16.398.403.398h5.597c.243 0 .403-.16.403-.398 0-.242-.16-.403-.403-.403zm0 0M2.8 8.2h.4c.241 0 .402-.16.402-.4 0-.241-.16-.402-.403-.402h-.398c-.242 0-.403.16-.403.403 0 .238.16.398.403.398zm0 0M9.602 6.602h.796c.243 0 .403-.16.403-.403 0-.238-.16-.398-.403-.398h-.796c-.243 0-.403.16-.403.398 0 .242.16.403.403.403zm0 0M2.8 9.8h3.598c.243 0 .403-.16.403-.402C6.8 9.16 6.64 9 6.398 9H2.801c-.242 0-.403.16-.403.398 0 .243.16.403.403.403zm0 0M10.398 9H8c-.238 0-.398.16-.398.398 0 .243.16.403.398.403h2.398c.243 0 .403-.16.403-.403 0-.238-.16-.398-.403-.398zm0 0M2.8 11.398H8c.238 0 .398-.16.398-.398 0-.238-.16-.398-.398-.398H2.8c-.241 0-.402.16-.402.398 0 .238.16.398.403.398zm0 0M10.398 12.2H4.801c-.242 0-.403.16-.403.402 0 .238.16.398.403.398h5.597c.243 0 .403-.16.403-.398 0-.243-.16-.403-.403-.403zm0 0M2.8 13h.4c.241 0 .402-.16.402-.398 0-.243-.16-.403-.403-.403h-.398c-.242 0-.403.16-.403.403 0 .238.16.398.403.398zm0 0M2.8 14.602h3.598c.243 0 .403-.16.403-.403 0-.238-.16-.398-.403-.398H2.801c-.242 0-.403.16-.403.398 0 .242.16.403.403.403zm0 0M10.398 13.8H8c-.238 0-.398.16-.398.4 0 .241.16.402.398.402h2.398c.243 0 .403-.16.403-.403 0-.238-.16-.398-.403-.398zm0 0M8 15.398H2.8c-.241 0-.402.16-.402.403 0 .238.16.398.403.398H8c.238 0 .398-.16.398-.398 0-.242-.16-.403-.398-.403zm0 0M10.398 15.398h-.796c-.243 0-.403.16-.403.403 0 .238.16.398.403.398h.796c.243 0 .403-.16.403-.398 0-.242-.16-.403-.403-.403zm0 0M18.398 15.398H13.2c-.238 0-.398.16-.398.403 0 .238.16.398.398.398h5.2c.242 0 .402-.16.402-.398 0-.242-.16-.403-.403-.403zm0 0M20.8 15.398H20c-.238 0-.398.16-.398.403 0 .238.16.398.398.398h.8c.24 0 .4-.16.4-.398 0-.242-.16-.403-.4-.403zm0 0M10.398 10.602h-.796c-.243 0-.403.16-.403.398 0 .238.16.398.403.398h.796c.243 0 .403-.16.403-.398 0-.238-.16-.398-.403-.398zm0 0M12.84 10.602h.031a4.387 4.387 0 0 0 4.328 3.597 4.389 4.389 0 0 0 4.403-4.398 4.39 4.39 0 0 0-4.043-4.387v-.016h-.399a4.386 4.386 0 0 0-4.398 4.403c0 .16.039.277.039.437zm.765-.977c0-.047.004-.09.008-.137 0-.011.004-.02.004-.031a3.596 3.596 0 0 1 3.184-3.219v3.563h-3.2c0-.059 0-.117.004-.176zm7.196.176c0 2-1.602 3.597-3.602 3.597a3.585 3.585 0 0 1-3.512-2.796h3.872V6.219A3.583 3.583 0 0 1 20.8 9.8zm0 0"/>
</svg>
