<svg xmlns="http://www.w3.org/2000/svg" width="32" height="32" viewBox="0 0 24 24">
    <path d="M 23.601562 17.800781 L 23.199219 17.800781 L 23.199219 4.601562 C 23.199219 3.921875 22.679688 3.398438 22 3.398438 L 2 3.398438 C 1.320312 3.398438 0.800781 3.921875 0.800781 4.601562 L 0.800781 17.800781 L 0.398438 17.800781 C 0.160156 17.800781 0 17.960938 0 18.199219 L 0 19.398438 C 0 20.078125 0.519531 20.601562 1.199219 20.601562 L 22.800781 20.601562 C 23.480469 20.601562 24 20.078125 24 19.398438 L 24 18.199219 C 24 17.960938 23.839844 17.800781 23.601562 17.800781 Z M 1.601562 4.601562 C 1.601562 4.359375 1.761719 4.199219 2 4.199219 L 22 4.199219 C 22.238281 4.199219 22.398438 4.359375 22.398438 4.601562 L 22.398438 17.800781 L 15.199219 17.800781 C 14.960938 17.800781 14.800781 17.960938 14.800781 18.199219 L 14.800781 18.601562 L 9.199219 18.601562 L 9.199219 18.199219 C 9.199219 17.960938 9.039062 17.800781 8.800781 17.800781 L 1.601562 17.800781 Z M 23.199219 19.398438 C 23.199219 19.640625 23.039062 19.800781 22.800781 19.800781 L 1.199219 19.800781 C 0.960938 19.800781 0.800781 19.640625 0.800781 19.398438 L 0.800781 18.601562 L 8.398438 18.601562 L 8.398438 19 C 8.398438 19.238281 8.558594 19.398438 8.800781 19.398438 L 15.199219 19.398438 C 15.441406 19.398438 15.601562 19.238281 15.601562 19 L 15.601562 18.601562 L 23.199219 18.601562 Z M 23.199219 19.398438"/>
    <path d="M6.800781 13.800781C9.238281 13.800781 11.199219 11.839844 11.199219 9.398438 11.199219 7.09375 9.449219 5.21875 7.199219 5.019531L7.199219 5 6.800781 5C4.359375 5 2.398438 6.960938 2.398438 9.398438 2.398438 9.558594 2.398438 9.679688 2.398438 9.839844L2.441406 10.199219 2.472656 10.199219C2.84375 12.253906 4.632812 13.800781 6.800781 13.800781zM3.203125 9.222656C3.207031 9.179688 3.210938 9.132812 3.214844 9.089844 3.214844 9.078125 3.214844 9.066406 3.214844 9.054688 3.378906 7.375 4.714844 6.027344 6.398438 5.839844L6.398438 9.398438 3.199219 9.398438C3.199219 9.339844 3.203125 9.28125 3.203125 9.222656zM7.199219 10.199219L7.199219 5.820312C9.007812 6.019531 10.398438 7.535156 10.398438 9.398438 10.398438 11.398438 8.800781 13 6.800781 13 5.074219 13 3.648438 11.808594 3.289062 10.199219zM17.199219 13.800781C18.9375 13.800781 20.429688 12.808594 21.148438 11.355469 21.148438 11.347656 21.152344 11.34375 21.15625 11.335938 21.171875 11.300781 21.1875 11.265625 21.207031 11.230469 21.21875 11.203125 21.230469 11.175781 21.242188 11.148438 21.246094 11.136719 21.253906 11.121094 21.257812 11.109375 21.269531 11.078125 21.285156 11.050781 21.296875 11.019531 21.296875 11.019531 21.296875 11.015625 21.296875 11.015625 21.414062 10.71875 21.496094 10.410156 21.546875 10.085938 21.546875 10.082031 21.550781 10.074219 21.550781 10.070312 21.554688 10.039062 21.558594 10.011719 21.5625 9.984375 21.5625 9.964844 21.566406 9.949219 21.570312 9.929688 21.570312 9.90625 21.574219 9.878906 21.578125 9.855469 21.582031 9.816406 21.585938 9.773438 21.585938 9.734375 21.589844 9.71875 21.589844 9.703125 21.589844 9.6875 21.59375 9.652344 21.59375 9.621094 21.597656 9.585938 21.597656 9.570312 21.597656 9.554688 21.597656 9.542969 21.597656 9.496094 21.601562 9.449219 21.601562 9.398438 21.601562 6.960938 19.640625 5 17.199219 5L16.800781 5 16.800781 5.019531C14.550781 5.21875 12.800781 7.09375 12.800781 9.398438 12.800781 11.839844 14.761719 13.800781 17.199219 13.800781zM20.796875 9.570312C20.796875 9.582031 20.792969 9.589844 20.792969 9.601562 20.742188 10.578125 20.304688 11.449219 19.628906 12.066406 19.625 12.066406 19.621094 12.070312 19.621094 12.074219 19.589844 12.097656 19.5625 12.125 19.53125 12.148438 19.367188 12.285156 19.191406 12.410156 19 12.519531L17.601562 9.71875 17.601562 5.839844C19.285156 6.027344 20.621094 7.375 20.785156 9.054688 20.785156 9.066406 20.785156 9.078125 20.785156 9.089844 20.789062 9.132812 20.792969 9.179688 20.796875 9.222656 20.796875 9.28125 20.800781 9.339844 20.800781 9.398438 20.800781 9.457031 20.796875 9.511719 20.796875 9.570312zM16.800781 5.820312L16.800781 9.878906 18.277344 12.835938C17.9375 12.941406 17.578125 13 17.199219 13 15.199219 13 13.601562 11.398438 13.601562 9.398438 13.601562 7.535156 14.992188 6.019531 16.800781 5.820312zM8.800781 15C8.800781 14.761719 8.640625 14.601562 8.398438 14.601562L6.398438 14.601562C6.160156 14.601562 6 14.761719 6 15 6 15.238281 6.160156 15.398438 6.398438 15.398438L8.398438 15.398438C8.640625 15.398438 8.800781 15.238281 8.800781 15zM4.398438 14.601562C4.160156 14.601562 4 14.761719 4 15 4 15.238281 4.160156 15.398438 4.398438 15.398438L4.800781 15.398438C5.039062 15.398438 5.199219 15.238281 5.199219 15 5.199219 14.761719 5.039062 14.601562 4.800781 14.601562zM6 16.199219L4.398438 16.199219C4.160156 16.199219 4 16.359375 4 16.601562 4 16.839844 4.160156 17 4.398438 17L6 17C6.238281 17 6.398438 16.839844 6.398438 16.601562 6.398438 16.359375 6.238281 16.199219 6 16.199219zM8.398438 16.199219L7.601562 16.199219C7.359375 16.199219 7.199219 16.359375 7.199219 16.601562 7.199219 16.839844 7.359375 17 7.601562 17L8.398438 17C8.640625 17 8.800781 16.839844 8.800781 16.601562 8.800781 16.359375 8.640625 16.199219 8.398438 16.199219zM19.601562 14.601562L17.601562 14.601562C17.359375 14.601562 17.199219 14.761719 17.199219 15 17.199219 15.238281 17.359375 15.398438 17.601562 15.398438L19.601562 15.398438C19.839844 15.398438 20 15.238281 20 15 20 14.761719 19.839844 14.601562 19.601562 14.601562zM15.601562 15.398438L16 15.398438C16.238281 15.398438 16.398438 15.238281 16.398438 15 16.398438 14.761719 16.238281 14.601562 16 14.601562L15.601562 14.601562C15.359375 14.601562 15.199219 14.761719 15.199219 15 15.199219 15.238281 15.359375 15.398438 15.601562 15.398438zM17.199219 16.199219L15.601562 16.199219C15.359375 16.199219 15.199219 16.359375 15.199219 16.601562 15.199219 16.839844 15.359375 17 15.601562 17L17.199219 17C17.441406 17 17.601562 16.839844 17.601562 16.601562 17.601562 16.359375 17.441406 16.199219 17.199219 16.199219zM19.601562 16.199219L18.800781 16.199219C18.558594 16.199219 18.398438 16.359375 18.398438 16.601562 18.398438 16.839844 18.558594 17 18.800781 17L19.601562 17C19.839844 17 20 16.839844 20 16.601562 20 16.359375 19.839844 16.199219 19.601562 16.199219zM19.601562 16.199219"/>
</svg>
