<svg xmlns="http://www.w3.org/2000/svg" width="32" height="32" viewBox="0 0 24 24">
    <path d="M20 18.398438C18.878906 18.398438 18 19.28125 18 20.398438 18 21.519531 18.878906 22.398438 20 22.398438 21.121094 22.398438 22 21.519531 22 20.398438 22 19.28125 21.121094 18.398438 20 18.398438zM20 21.601562C19.320312 21.601562 18.800781 21.078125 18.800781 20.398438 18.800781 19.71875 19.320312 19.199219 20 19.199219 20.679688 19.199219 21.199219 19.71875 21.199219 20.398438 21.199219 21.078125 20.679688 21.601562 20 21.601562zM10.238281 18.800781L8.960938 18.800781C8.640625 18.800781 8.398438 19.039062 8.398438 19.359375L8.398438 21.441406C8.398438 21.761719 8.640625 22 8.960938 22L10.238281 22C10.558594 22 10.800781 21.761719 10.800781 21.441406L10.800781 19.359375C10.800781 19.039062 10.558594 18.800781 10.238281 18.800781zM10 21.199219L9.199219 21.199219 9.199219 19.601562 10 19.601562zM7.039062 18.800781L5.761719 18.800781C5.441406 18.800781 5.199219 19.039062 5.199219 19.359375L5.199219 21.441406C5.199219 21.761719 5.441406 22 5.761719 22L7.039062 22C7.359375 22 7.601562 21.761719 7.601562 21.441406L7.601562 19.359375C7.601562 19.039062 7.359375 18.800781 7.039062 18.800781zM6.800781 21.199219L6 21.199219 6 19.601562 6.800781 19.601562zM3.839844 18.800781L2.558594 18.800781C2.238281 18.800781 2 19.039062 2 19.359375L2 21.441406C2 21.761719 2.238281 22 2.558594 22L3.839844 22C4.160156 22 4.398438 21.761719 4.398438 21.441406L4.398438 19.359375C4.398438 19.039062 4.160156 18.800781 3.839844 18.800781zM3.601562 21.199219L2.800781 21.199219 2.800781 19.601562 3.601562 19.601562zM13.441406 18.800781L12.160156 18.800781C11.839844 18.800781 11.601562 19.039062 11.601562 19.359375L11.601562 21.441406C11.601562 21.761719 11.839844 22 12.160156 22L13.441406 22C13.761719 22 14 21.761719 14 21.441406L14 19.359375C14 19.039062 13.761719 18.800781 13.441406 18.800781zM13.199219 21.199219L12.398438 21.199219 12.398438 19.601562 13.199219 19.601562zM16.640625 18.800781L15.359375 18.800781C15.039062 18.800781 14.800781 19.039062 14.800781 19.359375L14.800781 21.441406C14.800781 21.761719 15.039062 22 15.359375 22L16.640625 22C16.960938 22 17.199219 21.761719 17.199219 21.441406L17.199219 19.359375C17.199219 19.039062 16.960938 18.800781 16.640625 18.800781zM16.398438 21.199219L15.601562 21.199219 15.601562 19.601562 16.398438 19.601562zM16.398438 21.199219"/>
    <path d="M 24 14.640625 L 24 1.28125 C 24 0.601562 23.398438 0 22.71875 0 L 1.320312 0 C 0.601562 0 0 0.601562 0 1.28125 L 0 14.679688 C 0 15.359375 0.535156 15.933594 1.199219 15.996094 L 1.199219 16.800781 C 0.519531 16.800781 0 17.359375 0 18 L 0 22.960938 C 0 23.519531 0.480469 24 1.039062 24 L 22.960938 24 C 23.519531 24 24 23.519531 24 23 L 24 18 C 24 17.320312 23.441406 16.800781 22.800781 16.800781 L 22.800781 15.992188 C 23.464844 15.933594 24 15.355469 24 14.640625 Z M 0.800781 14.640625 L 0.800781 1.28125 C 0.800781 1.039062 1.039062 0.800781 1.320312 0.800781 L 22.71875 0.800781 C 22.960938 0.800781 23.199219 1.039062 23.199219 1.28125 L 23.199219 14.679688 C 23.199219 14.960938 22.960938 15.199219 22.679688 15.199219 L 1.320312 15.199219 C 1.039062 15.199219 0.800781 14.960938 0.800781 14.640625 Z M 23.199219 18 L 23.199219 22.960938 C 23.199219 23.078125 23.078125 23.199219 22.960938 23.199219 L 1.039062 23.199219 C 0.921875 23.199219 0.800781 23.078125 0.800781 23 L 0.800781 18 C 0.800781 17.761719 1 17.601562 1.199219 17.601562 L 22.800781 17.601562 C 23.039062 17.601562 23.199219 17.800781 23.199219 18 Z M 2 16.800781 L 2 16 L 22 16 L 22 16.800781 Z M 2 16.800781"/>
    <path d="M20.398438 5.601562C19.28125 5.601562 18.398438 6.480469 18.398438 7.601562 18.398438 8.71875 19.28125 9.601562 20.398438 9.601562 21.519531 9.601562 22.398438 8.71875 22.398438 7.601562 22.398438 6.480469 21.519531 5.601562 20.398438 5.601562zM20.398438 8.800781C19.71875 8.800781 19.199219 8.28125 19.199219 7.601562 19.199219 6.921875 19.71875 6.398438 20.398438 6.398438 21.078125 6.398438 21.601562 6.921875 21.601562 7.601562 21.601562 8.28125 21.078125 8.800781 20.398438 8.800781zM4 6C3.761719 6 3.601562 6.160156 3.601562 6.398438 3.601562 6.640625 3.761719 6.800781 4 6.800781 4.238281 6.800781 4.398438 6.640625 4.398438 6.398438 4.398438 6.160156 4.238281 6 4 6zM3.199219 8.398438C2.960938 8.398438 2.800781 8.558594 2.800781 8.800781 2.800781 9.039062 2.960938 9.199219 3.199219 9.199219 3.441406 9.199219 3.601562 9.039062 3.601562 8.800781 3.601562 8.558594 3.441406 8.398438 3.199219 8.398438zM3.199219 7.199219C2.960938 7.199219 2.800781 7.359375 2.800781 7.601562 2.800781 7.839844 2.960938 8 3.199219 8 3.441406 8 3.601562 7.839844 3.601562 7.601562 3.601562 7.359375 3.441406 7.199219 3.199219 7.199219zM4.800781 9.199219C5.039062 9.199219 5.199219 9.039062 5.199219 8.800781 5.199219 8.558594 5.039062 8.398438 4.800781 8.398438 4.558594 8.398438 4.398438 8.558594 4.398438 8.800781 4.398438 9.039062 4.558594 9.199219 4.800781 9.199219zM2.398438 6C2.160156 6 2 6.160156 2 6.398438 2 6.640625 2.160156 6.800781 2.398438 6.800781 2.640625 6.800781 2.800781 6.640625 2.800781 6.398438 2.800781 6.160156 2.640625 6 2.398438 6zM2 8.800781C2 8.558594 1.839844 8.398438 1.601562 8.398438 1.359375 8.398438 1.199219 8.558594 1.199219 8.800781 1.199219 9.039062 1.359375 9.199219 1.601562 9.199219 1.839844 9.199219 2 9.039062 2 8.800781zM16.800781 4.800781C17.039062 4.800781 17.199219 4.640625 17.199219 4.398438 17.199219 4.160156 17.039062 4 16.800781 4 16.558594 4 16.398438 4.160156 16.398438 4.398438 16.398438 4.640625 16.558594 4.800781 16.800781 4.800781zM18.398438 4.800781C18.640625 4.800781 18.800781 4.640625 18.800781 4.398438 18.800781 4.160156 18.640625 4 18.398438 4 18.160156 4 18 4.160156 18 4.398438 18 4.640625 18.160156 4.800781 18.398438 4.800781zM13.601562 4.800781C13.839844 4.800781 14 4.640625 14 4.398438 14 4.160156 13.839844 4 13.601562 4 13.359375 4 13.199219 4.160156 13.199219 4.398438 13.199219 4.640625 13.359375 4.800781 13.601562 4.800781zM15.199219 4.800781C15.441406 4.800781 15.601562 4.640625 15.601562 4.398438 15.601562 4.160156 15.441406 4 15.199219 4 14.960938 4 14.800781 4.160156 14.800781 4.398438 14.800781 4.640625 14.960938 4.800781 15.199219 4.800781zM10.398438 4.800781C10.640625 4.800781 10.800781 4.640625 10.800781 4.398438 10.800781 4.160156 10.640625 4 10.398438 4 10.160156 4 10 4.160156 10 4.398438 10 4.640625 10.160156 4.800781 10.398438 4.800781zM12 4C11.761719 4 11.601562 4.160156 11.601562 4.398438 11.601562 4.640625 11.761719 4.800781 12 4.800781 12.238281 4.800781 12.398438 4.640625 12.398438 4.398438 12.398438 4.160156 12.238281 4 12 4zM8.800781 4C8.558594 4 8.398438 4.160156 8.398438 4.398438 8.398438 4.640625 8.558594 4.800781 8.800781 4.800781 9.039062 4.800781 9.199219 4.640625 9.199219 4.398438 9.199219 4.160156 9.039062 4 8.800781 4zM20 4.800781C20.238281 4.800781 20.398438 4.640625 20.398438 4.398438 20.398438 4.160156 20.238281 4 20 4 19.761719 4 19.601562 4.160156 19.601562 4.398438 19.601562 4.640625 19.761719 4.800781 20 4.800781zM21.601562 4.800781C21.839844 4.800781 22 4.640625 22 4.398438 22 4.160156 21.839844 4 21.601562 4 21.359375 4 21.199219 4.160156 21.199219 4.398438 21.199219 4.640625 21.359375 4.800781 21.601562 4.800781zM17.601562 2.800781C17.359375 2.800781 17.199219 2.960938 17.199219 3.199219 17.199219 3.441406 17.359375 3.601562 17.601562 3.601562 17.839844 3.601562 18 3.441406 18 3.199219 18 2.960938 17.839844 2.800781 17.601562 2.800781zM19.199219 2.800781C18.960938 2.800781 18.800781 2.960938 18.800781 3.199219 18.800781 3.441406 18.960938 3.601562 19.199219 3.601562 19.441406 3.601562 19.601562 3.441406 19.601562 3.199219 19.601562 2.960938 19.441406 2.800781 19.199219 2.800781zM14.398438 2.800781C14.160156 2.800781 14 2.960938 14 3.199219 14 3.441406 14.160156 3.601562 14.398438 3.601562 14.640625 3.601562 14.800781 3.441406 14.800781 3.199219 14.800781 2.960938 14.640625 2.800781 14.398438 2.800781zM16 2.800781C15.761719 2.800781 15.601562 2.960938 15.601562 3.199219 15.601562 3.441406 15.761719 3.601562 16 3.601562 16.238281 3.601562 16.398438 3.441406 16.398438 3.199219 16.398438 2.960938 16.238281 2.800781 16 2.800781zM11.199219 2.800781C10.960938 2.800781 10.800781 2.960938 10.800781 3.199219 10.800781 3.441406 10.960938 3.601562 11.199219 3.601562 11.441406 3.601562 11.601562 3.441406 11.601562 3.199219 11.601562 2.960938 11.441406 2.800781 11.199219 2.800781zM12.800781 2.800781C12.558594 2.800781 12.398438 2.960938 12.398438 3.199219 12.398438 3.441406 12.558594 3.601562 12.800781 3.601562 13.039062 3.601562 13.199219 3.441406 13.199219 3.199219 13.199219 2.960938 13.039062 2.800781 12.800781 2.800781zM9.601562 2.800781C9.359375 2.800781 9.199219 2.960938 9.199219 3.199219 9.199219 3.441406 9.359375 3.601562 9.601562 3.601562 9.839844 3.601562 10 3.441406 10 3.199219 10 2.960938 9.839844 2.800781 9.601562 2.800781zM20.800781 2.800781C20.558594 2.800781 20.398438 2.960938 20.398438 3.199219 20.398438 3.441406 20.558594 3.601562 20.800781 3.601562 21.039062 3.601562 21.199219 3.441406 21.199219 3.199219 21.199219 2.960938 21.039062 2.800781 20.800781 2.800781zM8.398438 2.398438L22 2.398438C22.238281 2.398438 22.398438 2.238281 22.398438 2 22.398438 1.761719 22.238281 1.601562 22 1.601562L8.398438 1.601562C8.160156 1.601562 8 1.761719 8 2 8 2.238281 8.160156 2.398438 8.398438 2.398438zM2 4.800781L6.800781 4.800781C7.039062 4.800781 7.199219 4.640625 7.199219 4.398438L7.199219 2C7.199219 1.761719 7.039062 1.601562 6.800781 1.601562L2 1.601562C1.761719 1.601562 1.601562 1.761719 1.601562 2L1.601562 4.398438C1.601562 4.640625 1.761719 4.800781 2 4.800781zM2.398438 2.398438L6.398438 2.398438 6.398438 4 2.398438 4zM8.800781 6.558594L8.800781 8.640625C8.800781 8.960938 9.039062 9.199219 9.359375 9.199219L10.640625 9.199219C10.960938 9.199219 11.199219 8.960938 11.199219 8.640625L11.199219 6.558594C11.199219 6.238281 10.960938 6 10.640625 6L9.359375 6C9.039062 6 8.800781 6.238281 8.800781 6.558594zM9.601562 6.800781L10.398438 6.800781 10.398438 8.398438 9.601562 8.398438zM5.601562 6.558594L5.601562 8.640625C5.601562 8.960938 5.839844 9.199219 6.160156 9.199219L7.441406 9.199219C7.761719 9.199219 8 8.960938 8 8.640625L8 6.558594C8 6.238281 7.761719 6 7.441406 6L6.160156 6C5.839844 6 5.601562 6.238281 5.601562 6.558594zM6.398438 6.800781L7.199219 6.800781 7.199219 8.398438 6.398438 8.398438zM12 6.558594L12 8.640625C12 8.960938 12.238281 9.199219 12.558594 9.199219L13.839844 9.199219C14.160156 9.199219 14.398438 8.960938 14.398438 8.640625L14.398438 6.558594C14.398438 6.238281 14.160156 6 13.839844 6L12.558594 6C12.238281 6 12 6.238281 12 6.558594zM12.800781 6.800781L13.601562 6.800781 13.601562 8.398438 12.800781 8.398438zM17.039062 6L15.761719 6C15.441406 6 15.199219 6.238281 15.199219 6.558594L15.199219 8.640625C15.199219 8.960938 15.441406 9.199219 15.761719 9.199219L17.039062 9.199219C17.359375 9.199219 17.601562 8.960938 17.601562 8.640625L17.601562 6.558594C17.601562 6.238281 17.359375 6 17.039062 6zM16.800781 8.398438L16 8.398438 16 6.800781 16.800781 6.800781zM5.199219 10.398438L2.800781 10.398438C2.359375 10.398438 2 10.761719 2 11.199219L2 13.601562C2 14.039062 2.359375 14.398438 2.800781 14.398438L5.199219 14.398438C5.640625 14.398438 6 14.039062 6 13.601562L6 11.199219C6 10.761719 5.640625 10.398438 5.199219 10.398438zM5.199219 13.601562L2.800781 13.601562 2.800781 11.199219 5.199219 11.199219zM16 10.398438L8 10.398438C7.558594 10.398438 7.199219 10.761719 7.199219 11.199219L7.199219 13.601562C7.199219 14.039062 7.558594 14.398438 8 14.398438L16 14.398438C16.441406 14.398438 16.800781 14.039062 16.800781 13.601562L16.800781 11.199219C16.800781 10.761719 16.441406 10.398438 16 10.398438zM16 13.601562L8 13.601562 8 11.199219 16 11.199219zM21.199219 10.398438L18.800781 10.398438C18.359375 10.398438 18 10.761719 18 11.199219L18 13.601562C18 14.039062 18.359375 14.398438 18.800781 14.398438L21.199219 14.398438C21.640625 14.398438 22 14.039062 22 13.601562L22 11.199219C22 10.761719 21.640625 10.398438 21.199219 10.398438zM21.199219 13.601562L18.800781 13.601562 18.800781 11.199219 21.199219 11.199219zM21.199219 13.601562"/>
    <path d="M 10 12.800781 L 14 12.800781 C 14.238281 12.800781 14.398438 12.640625 14.398438 12.398438 C 14.398438 12.160156 14.238281 12 14 12 L 10 12 C 9.761719 12 9.601562 12.160156 9.601562 12.398438 C 9.601562 12.640625 9.761719 12.800781 10 12.800781 Z M 10 12.800781"/>
</svg>
