<svg xmlns="http://www.w3.org/2000/svg" width="32" height="32" viewBox="0 0 24 24">
    <path d="M23.602 22.398h-.403V22c0-.238-.16-.398-.398-.398-.242 0-.403.16-.403.398v.398H21.2V22c0-.238-.16-.398-.398-.398-.242 0-.403.16-.403.398v.398H19.2V22c0-.238-.16-.398-.398-.398-.242 0-.403.16-.403.398v.398H17.2V22c0-.238-.16-.398-.398-.398-.242 0-.403.16-.403.398v.398H15.2V22c0-.238-.16-.398-.398-.398-.242 0-.403.16-.403.398v.398H13.2V22c0-.238-.16-.398-.398-.398-.242 0-.403.16-.403.398v.398H11.2V22c0-.238-.16-.398-.398-.398-.242 0-.403.16-.403.398v.398H9.2V22c0-.238-.16-.398-.398-.398-.242 0-.403.16-.403.398v.398H7.2V22c0-.238-.16-.398-.398-.398-.242 0-.403.16-.403.398v.398H5.2V22c0-.238-.16-.398-.398-.398-.242 0-.403.16-.403.398v.398H3.2V22c0-.238-.16-.398-.398-.398-.242 0-.403.16-.403.398v.398h-.796V20H2c.238 0 .398-.16.398-.398 0-.243-.16-.403-.398-.403h-.398V18H2c.238 0 .398-.16.398-.398 0-.243-.16-.403-.398-.403h-.398V16H2c.238 0 .398-.16.398-.398 0-.243-.16-.403-.398-.403h-.398V14H2c.238 0 .398-.16.398-.398 0-.243-.16-.403-.398-.403h-.398V12H2c.238 0 .398-.16.398-.398 0-.243-.16-.403-.398-.403h-.398V10H2c.238 0 .398-.16.398-.398 0-.243-.16-.403-.398-.403h-.398V8H2c.238 0 .398-.16.398-.398 0-.243-.16-.403-.398-.403h-.398V6H2c.238 0 .398-.16.398-.398 0-.243-.16-.403-.398-.403h-.398V4H2c.238 0 .398-.16.398-.398 0-.243-.16-.403-.398-.403h-.398V2H2c.238 0 .398-.16.398-.398 0-.243-.16-.403-.398-.403h-.398V.4C1.602.16 1.442 0 1.199 0 .961 0 .801.16.801.398V1.2H.398C.16 1.2 0 1.36 0 1.602 0 1.84.16 2 .398 2h.403v1.2H.398C.16 3.2 0 3.36 0 3.601 0 3.84.16 4 .398 4h.403v1.2H.398C.16 5.2 0 5.36 0 5.601 0 5.84.16 6 .398 6h.403v1.2H.398C.16 7.2 0 7.36 0 7.601 0 7.84.16 8 .398 8h.403v1.2H.398C.16 9.2 0 9.36 0 9.601 0 9.84.16 10 .398 10h.403v1.2H.398c-.238 0-.398.16-.398.402 0 .238.16.398.398.398h.403v1.2H.398c-.238 0-.398.16-.398.402 0 .238.16.398.398.398h.403v1.2H.398c-.238 0-.398.16-.398.402 0 .238.16.398.398.398h.403v1.2H.398c-.238 0-.398.16-.398.402 0 .238.16.398.398.398h.403v1.2H.398c-.238 0-.398.16-.398.402 0 .238.16.398.398.398h.403v1.2H.398c-.238 0-.398.16-.398.402 0 .238.16.398.398.398h.403v.8c0 .24.16.4.398.4h1.2v.402c0 .238.16.398.402.398.238 0 .398-.16.398-.398v-.403h1.2v.403c0 .238.16.398.402.398.238 0 .398-.16.398-.398v-.403h1.2v.403c0 .238.16.398.402.398.238 0 .398-.16.398-.398v-.403h1.2v.403c0 .238.16.398.402.398.238 0 .398-.16.398-.398v-.403h1.2v.403c0 .238.16.398.402.398.238 0 .398-.16.398-.398v-.403h1.2v.403c0 .238.16.398.402.398.238 0 .398-.16.398-.398v-.403h1.2v.403c0 .238.16.398.402.398.238 0 .398-.16.398-.398v-.403h1.2v.403c0 .238.16.398.402.398.238 0 .398-.16.398-.398v-.403h1.2v.403c0 .238.16.398.402.398.238 0 .398-.16.398-.398v-.403h1.2v.403c0 .238.16.398.402.398.238 0 .398-.16.398-.398v-.403h1.2v.403c0 .238.16.398.402.398.238 0 .398-.16.398-.398v-.403h.399c.242 0 .402-.16.402-.398 0-.242-.16-.403-.398-.403zm0 0"/>
    <path d="M7.2 14.719A.717.717 0 0 0 6.48 14H3.922a.718.718 0 0 0-.723.719v5.68h4zm-.802 4.883H4V14.8h2.398zm0 0M8.398 7.52v12.878h4V7.52a.717.717 0 0 0-.718-.72H9.12a.718.718 0 0 0-.723.72zm.801.082h2.403v12H9.199zm0 0M17.602 10.719a.718.718 0 0 0-.723-.719H14.32a.717.717 0 0 0-.718.719v9.68h4zm-.801 8.883h-2.403V10.8h2.403zm0 0M22.8 4.719A.718.718 0 0 0 22.079 4H19.52a.717.717 0 0 0-.72.719v15.68h4zM22 19.602h-2.398V4.8H22zm0 0M6.398 2.398h2c.243 0 .403-.16.403-.398 0-.238-.16-.398-.403-.398h-2C6.16 1.602 6 1.762 6 2c0 .238.16.398.398.398zm0 0M4.398 2.398h.403c.238 0 .398-.16.398-.398 0-.238-.16-.398-.398-.398h-.403C4.16 1.602 4 1.762 4 2c0 .238.16.398.398.398zm0 0M4.398 4H6c.238 0 .398-.16.398-.398 0-.243-.16-.403-.398-.403H4.398C4.16 3.2 4 3.36 4 3.602c0 .238.16.398.398.398zm0 0M8.8 3.602c0-.243-.16-.403-.402-.403h-.796c-.243 0-.403.16-.403.403 0 .238.16.398.403.398h.796c.243 0 .403-.16.403-.398zm0 0"/>
</svg>
