<svg xmlns="http://www.w3.org/2000/svg" width="32" height="32" viewBox="0 0 24 24">
    <path d="M21.2 17.625v-.824c0-2.2-1.802-4-4-4h-4.802v-2.403H22.2c.563 0 1-.437 1-1.039V1c0-.559-.437-1-1.039-1H1.8a.99.99 0 0 0-1 1v8.398c0 .563.438 1 1 1h9.802v2.403H6.8c-2.2 0-4 1.8-4 4v.824C1.227 17.825 0 19.175 0 20.801A3.21 3.21 0 0 0 3.2 24c1.76 0 3.198-1.441 3.198-3.2a3.212 3.212 0 0 0-2.796-3.175v-.824c0-1.762 1.437-3.2 3.199-3.2h4.8v4.024c-1.574.2-2.8 1.55-2.8 3.176C8.8 22.559 10.238 24 12 24c1.762 0 3.2-1.441 3.2-3.2a3.212 3.212 0 0 0-2.802-3.175v-4.023H17.2c1.762 0 3.2 1.437 3.2 3.199v.824a3.212 3.212 0 0 0-2.797 3.176c0 1.758 1.437 3.199 3.199 3.199A3.21 3.21 0 0 0 24 20.8a3.212 3.212 0 0 0-2.8-3.175zM1.601 9.359V1c0-.121.078-.2.199-.2h20.398c.121 0 .2.079.16.2v8.398c0 .122-.078.204-.199.204H1.8c-.12 0-.198-.082-.198-.243zm4 11.442a2.407 2.407 0 0 1-2.403 2.398 2.404 2.404 0 0 1-2.398-2.398 2.407 2.407 0 0 1 2.398-2.403 2.41 2.41 0 0 1 2.403 2.403zm8.796 0A2.404 2.404 0 0 1 12 23.199a2.404 2.404 0 0 1-2.398-2.398A2.407 2.407 0 0 1 12 18.398a2.407 2.407 0 0 1 2.398 2.403zm6.403 2.398a2.407 2.407 0 0 1-2.403-2.398 2.41 2.41 0 0 1 2.403-2.403 2.407 2.407 0 0 1 2.398 2.403 2.404 2.404 0 0 1-2.398 2.398zm0 0"/>
    <path d="M3.2 3.2h5.198c.243 0 .403-.16.403-.4 0-.241-.16-.402-.403-.402H3.2c-.238 0-.398.16-.398.403 0 .238.16.398.398.398zm0 0M10 3.2h2c.238 0 .398-.16.398-.4 0-.241-.16-.402-.398-.402h-2c-.238 0-.398.16-.398.403 0 .238.16.398.398.398zm0 0M11.2 4.398c0-.238-.16-.398-.4-.398H5.2c-.24 0-.4.16-.4.398 0 .243.16.403.4.403h5.6c.24 0 .4-.16.4-.403zm0 0M3.2 4.8h.402C3.84 4.8 4 4.64 4 4.399 4 4.16 3.84 4 3.602 4h-.403c-.238 0-.398.16-.398.398 0 .243.16.403.398.403zm0 0M13.602 4h-1.204c-.238 0-.398.16-.398.398 0 .243.16.403.398.403h1.204c.238 0 .398-.16.398-.403C14 4.16 13.84 4 13.602 4zm0 0M3.2 6.398h3.6c.24 0 .4-.16.4-.398 0-.238-.16-.398-.4-.398H3.2c-.24 0-.4.16-.4.398 0 .238.16.398.4.398zm0 0M8.398 5.602C8.16 5.602 8 5.762 8 6c0 .238.16.398.398.398H9.2c.242 0 .403-.16.403-.398 0-.238-.16-.398-.403-.398zm0 0M11.602 5.602H10.8c-.242 0-.403.16-.403.398 0 .238.16.398.403.398h.8c.239 0 .399-.16.399-.398 0-.238-.16-.398-.398-.398zm0 0M13.602 3.2h4.796c.243 0 .403-.16.403-.4 0-.241-.16-.402-.403-.402h-4.796c-.243 0-.403.16-.403.403 0 .238.16.398.403.398zm0 0M20.8 2.398H20c-.238 0-.398.16-.398.403 0 .238.16.398.398.398h.8c.24 0 .4-.16.4-.398 0-.242-.16-.403-.4-.403zm0 0M20.8 4h-5.6c-.24 0-.4.16-.4.398 0 .243.16.403.4.403h5.6c.24 0 .4-.16.4-.403 0-.238-.16-.398-.4-.398zm0 0M10.8 7.2H5.2c-.24 0-.4.16-.4.402 0 .238.16.398.4.398h5.6c.24 0 .4-.16.4-.398 0-.243-.16-.403-.4-.403zm0 0M3.602 7.2h-.403c-.238 0-.398.16-.398.402 0 .238.16.398.398.398h.403C3.84 8 4 7.84 4 7.602c0-.243-.16-.403-.398-.403zm0 0M13.602 7.2h-1.204c-.238 0-.398.16-.398.402 0 .238.16.398.398.398h1.204c.238 0 .398-.16.398-.398 0-.243-.16-.403-.398-.403zm0 0M20.8 7.2h-5.6c-.24 0-.4.16-.4.402 0 .238.16.398.4.398h5.6c.24 0 .4-.16.4-.398 0-.243-.16-.403-.4-.403zm0 0M13.2 6c0 .238.16.398.402.398h2.796c.243 0 .403-.16.403-.398 0-.238-.16-.398-.403-.398h-2.796c-.243 0-.403.16-.403.398zm0 0M18.8 6.398c.24 0 .4-.16.4-.398 0-.238-.16-.398-.4-.398H18c-.238 0-.398.16-.398.398 0 .238.16.398.398.398zm0 0M20.8 5.602h-.402c-.238 0-.398.16-.398.398 0 .238.16.398.398.398h.403c.238 0 .398-.16.398-.398 0-.238-.16-.398-.398-.398zm0 0"/>
</svg>
