<svg xmlns="http://www.w3.org/2000/svg" width="32" height="32" viewBox="0 0 24 24">
    <path d="M21.2 9.2c-.762 0-1.45.3-1.954.784l-4.582-1.91a2.91 2.91 0 0 0 .137-.875c0-1.558-1.242-2.8-2.801-2.8-.965 0-1.805.476-2.309 1.203L5.461 3.68c.09-.278.14-.57.14-.88 0-1.562-1.242-2.8-2.8-2.8A2.781 2.781 0 0 0 0 2.8a2.781 2.781 0 0 0 2.398 2.77v3.657A2.782 2.782 0 0 0 0 12a2.782 2.782 0 0 0 2.398 2.773v3.657A2.781 2.781 0 0 0 0 21.2C0 22.761 1.238 24 2.8 24c1.56 0 2.802-1.238 2.802-2.8 0-.31-.051-.61-.145-.887L9.695 18A2.79 2.79 0 0 0 12 19.2c1.559 0 2.8-1.24 2.8-2.802 0-.304-.05-.597-.136-.875l4.32-1.8A2.794 2.794 0 0 0 21.2 14.8C22.762 14.8 24 13.559 24 12c0-1.559-1.238-2.8-2.8-2.8zm-9.2-4c1.121 0 2 .878 2 2 0 1.12-.879 2-2 2s-2-.88-2-2c0-1.122.879-2 2-2zm-2.309 9.605l-4.28-1.785c.12-.313.19-.657.19-1.02 0-.492-.124-.957-.343-1.355L9.69 8.797a2.787 2.787 0 0 0 1.91 1.176v3.656a2.768 2.768 0 0 0-1.91 1.176zM9.34 6.32a2.837 2.837 0 0 0-.004 1.754L4.754 9.988a2.78 2.78 0 0 0-1.555-.761V5.57a2.76 2.76 0 0 0 1.906-1.172zM.8 2.8c0-1.12.88-2 2-2 1.122 0 2 .88 2 2 0 1.122-.878 2-2 2-1.12 0-2-.878-2-2zm0 9.2c0-1.121.88-2 2-2 1.122 0 2 .879 2 2s-.878 2-2 2c-1.12 0-2-.879-2-2zm2 11.2c-1.12 0-2-.88-2-2 0-1.122.88-2 2-2 1.122 0 2 .878 2 2 0 1.12-.878 2-2 2zm2.302-3.602a2.756 2.756 0 0 0-1.903-1.168v-3.657a2.787 2.787 0 0 0 1.817-1.05l4.32 1.8a2.868 2.868 0 0 0 .004 1.762zm6.898-1.2c-1.121 0-2-.878-2-2 0-1.117.879-2 2-2s2 .883 2 2c0 1.122-.879 2-2 2zm2.309-3.593a2.76 2.76 0 0 0-1.91-1.176V9.973a2.778 2.778 0 0 0 1.91-1.18l4.437 1.852a2.817 2.817 0 0 0-.156 2.375zm6.89-.805c-1.12 0-2-.879-2-2s.88-2 2-2c1.121 0 2 .879 2 2s-.879 2-2 2zm0 0"/>
</svg>
