<svg xmlns="http://www.w3.org/2000/svg" width="32" height="32" viewBox="0 0 24 24">
    <path d="M 24 3.199219 C 24 1.441406 22.558594 0 20.800781 0 C 19.039062 0 17.601562 1.441406 17.601562 3.199219 C 17.601562 4.816406 18.816406 6.164062 20.378906 6.371094 C 20.191406 7.957031 18.835938 9.199219 17.199219 9.199219 L 6.800781 9.199219 C 4.601562 9.199219 2.800781 11 2.800781 13.199219 L 2.800781 17.625 C 1.226562 17.824219 0 19.175781 0 20.800781 C 0 22.558594 1.441406 24 3.199219 24 C 4.960938 24 6.398438 22.558594 6.398438 20.800781 C 6.398438 19.175781 5.171875 17.824219 3.601562 17.625 L 3.601562 13.199219 C 3.601562 11.441406 5.039062 10 6.800781 10 L 13.207031 10 C 12.234375 10.730469 11.601562 11.894531 11.601562 13.199219 L 11.601562 17.625 C 10.027344 17.824219 8.800781 19.175781 8.800781 20.800781 C 8.800781 22.558594 10.238281 24 12 24 C 13.761719 24 15.199219 22.558594 15.199219 20.800781 C 15.199219 19.175781 13.972656 17.824219 12.398438 17.625 L 12.398438 13.199219 C 12.398438 11.441406 13.839844 10 15.601562 10 L 17.199219 10 C 19.273438 10 20.992188 8.402344 21.183594 6.375 C 22.761719 6.1875 24 4.832031 24 3.199219 Z M 5.601562 20.800781 C 5.601562 22.121094 4.519531 23.199219 3.199219 23.199219 C 1.878906 23.199219 0.800781 22.121094 0.800781 20.800781 C 0.800781 19.480469 1.878906 18.398438 3.199219 18.398438 C 4.519531 18.398438 5.601562 19.480469 5.601562 20.800781 Z M 14.398438 20.800781 C 14.398438 22.121094 13.320312 23.199219 12 23.199219 C 10.679688 23.199219 9.601562 22.121094 9.601562 20.800781 C 9.601562 19.480469 10.679688 18.398438 12 18.398438 C 13.320312 18.398438 14.398438 19.480469 14.398438 20.800781 Z M 20.800781 5.601562 C 19.480469 5.601562 18.398438 4.519531 18.398438 3.199219 C 18.398438 1.878906 19.480469 0.800781 20.800781 0.800781 C 22.121094 0.800781 23.199219 1.878906 23.199219 3.199219 C 23.199219 4.519531 22.121094 5.601562 20.800781 5.601562 Z M 20.800781 5.601562"/>
</svg>
