<svg xmlns="http://www.w3.org/2000/svg" width="32" height="32" viewBox="0 0 24 24">
    <path d="M 22.199219 0.398438 L 1.800781 0.398438 C 0.800781 0.398438 0 1.199219 0 2.199219 L 0 17.398438 C 0 18.398438 0.800781 19.199219 1.800781 19.199219 L 8.933594 19.199219 C 8.988281 19.894531 8.675781 20.578125 8.121094 20.960938 L 7.398438 21.480469 C 7.34375 21.515625 7.292969 21.558594 7.257812 21.609375 C 6.765625 21.679688 6.398438 22.089844 6.398438 22.601562 C 6.398438 23.160156 6.839844 23.601562 7.398438 23.601562 L 16.601562 23.601562 C 17.160156 23.601562 17.601562 23.160156 17.601562 22.601562 C 17.601562 22.066406 17.199219 21.640625 16.671875 21.605469 C 16.640625 21.554688 16.605469 21.511719 16.558594 21.480469 L 15.839844 20.960938 C 15.273438 20.570312 14.992188 19.902344 15.042969 19.199219 L 22.199219 19.199219 C 23.199219 19.199219 24 18.398438 24 17.398438 L 24 2.199219 C 24 1.199219 23.199219 0.398438 22.199219 0.398438 Z M 16.601562 22.800781 L 7.398438 22.800781 C 7.28125 22.800781 7.199219 22.71875 7.199219 22.601562 C 7.199219 22.480469 7.28125 22.398438 7.398438 22.398438 L 16.601562 22.398438 C 16.71875 22.398438 16.800781 22.480469 16.800781 22.601562 C 16.800781 22.71875 16.71875 22.800781 16.601562 22.800781 Z M 15.320312 21.601562 L 8.640625 21.601562 C 9.398438 21.039062 9.800781 20.121094 9.761719 19.199219 L 14.238281 19.199219 C 14.160156 20.121094 14.601562 21.039062 15.320312 21.601562 Z M 23.199219 17.398438 C 23.199219 17.960938 22.761719 18.398438 22.199219 18.398438 L 1.800781 18.398438 C 1.238281 18.398438 0.800781 17.960938 0.800781 17.398438 L 0.800781 15.601562 L 23.199219 15.601562 Z M 0.800781 14.800781 L 0.800781 2.199219 C 0.800781 1.640625 1.238281 1.199219 1.800781 1.199219 L 22.199219 1.199219 C 22.761719 1.199219 23.199219 1.640625 23.199219 2.199219 L 23.199219 14.800781 Z M 0.800781 14.800781"/>
    <path d="M6.800781 2.019531L6.800781 2 6.398438 2C3.960938 2 2 3.960938 2 6.398438 2 6.558594 2 6.679688 2 6.839844L2.039062 7.199219 2.070312 7.199219C2.445312 9.253906 4.234375 10.800781 6.398438 10.800781 8.839844 10.800781 10.800781 8.839844 10.800781 6.398438 10.800781 4.09375 9.050781 2.21875 6.800781 2.019531zM2.804688 6.222656C2.804688 6.179688 2.808594 6.132812 2.8125 6.089844 2.816406 6.078125 2.816406 6.066406 2.816406 6.054688 2.976562 4.375 4.3125 3.027344 6 2.839844L6 6.398438 2.800781 6.398438C2.800781 6.339844 2.800781 6.28125 2.804688 6.222656zM6.398438 10C4.675781 10 3.25 8.808594 2.890625 7.199219L6.800781 7.199219 6.800781 2.820312C8.609375 3.019531 10 4.535156 10 6.398438 10 8.398438 8.398438 10 6.398438 10zM21.605469 8.230469C21.617188 8.203125 21.628906 8.175781 21.640625 8.148438 21.648438 8.136719 21.652344 8.121094 21.660156 8.109375 21.671875 8.078125 21.683594 8.050781 21.695312 8.019531 21.695312 8.019531 21.695312 8.015625 21.699219 8.015625 21.8125 7.71875 21.898438 7.410156 21.945312 7.085938 21.949219 7.082031 21.949219 7.074219 21.949219 7.070312 21.953125 7.039062 21.957031 7.011719 21.960938 6.984375 21.964844 6.964844 21.964844 6.949219 21.96875 6.929688 21.972656 6.90625 21.972656 6.878906 21.976562 6.855469 21.980469 6.816406 21.984375 6.773438 21.988281 6.734375 21.988281 6.71875 21.988281 6.703125 21.992188 6.6875 21.992188 6.652344 21.996094 6.621094 21.996094 6.585938 21.996094 6.570312 21.996094 6.554688 21.996094 6.542969 22 6.496094 22 6.449219 22 6.398438 22 3.960938 20.039062 2 17.601562 2L17.199219 2 17.199219 2.019531C14.949219 2.21875 13.199219 4.09375 13.199219 6.398438 13.199219 8.839844 15.160156 10.800781 17.601562 10.800781 19.335938 10.800781 20.828125 9.808594 21.546875 8.355469 21.550781 8.347656 21.550781 8.34375 21.554688 8.335938 21.574219 8.300781 21.589844 8.265625 21.605469 8.230469zM21.195312 6.570312C21.195312 6.582031 21.195312 6.589844 21.195312 6.601562 21.140625 7.578125 20.703125 8.449219 20.027344 9.066406 20.027344 9.066406 20.023438 9.070312 20.019531 9.074219 19.992188 9.097656 19.960938 9.125 19.933594 9.148438 19.769531 9.285156 19.589844 9.410156 19.398438 9.519531L18 6.71875 18 2.839844C19.6875 3.027344 21.023438 4.375 21.183594 6.054688 21.183594 6.066406 21.183594 6.078125 21.1875 6.089844 21.191406 6.132812 21.195312 6.179688 21.195312 6.222656 21.199219 6.28125 21.199219 6.339844 21.199219 6.398438 21.199219 6.457031 21.199219 6.511719 21.195312 6.570312zM14 6.398438C14 4.535156 15.390625 3.019531 17.199219 2.820312L17.199219 6.878906 18.679688 9.835938C18.339844 9.941406 17.976562 10 17.601562 10 15.601562 10 14 8.398438 14 6.398438zM8 11.601562L6 11.601562C5.761719 11.601562 5.601562 11.761719 5.601562 12 5.601562 12.238281 5.761719 12.398438 6 12.398438L8 12.398438C8.238281 12.398438 8.398438 12.238281 8.398438 12 8.398438 11.761719 8.238281 11.601562 8 11.601562zM4 12.398438L4.398438 12.398438C4.640625 12.398438 4.800781 12.238281 4.800781 12 4.800781 11.761719 4.640625 11.601562 4.398438 11.601562L4 11.601562C3.761719 11.601562 3.601562 11.761719 3.601562 12 3.601562 12.238281 3.761719 12.398438 4 12.398438zM5.601562 13.199219L4 13.199219C3.761719 13.199219 3.601562 13.359375 3.601562 13.601562 3.601562 13.839844 3.761719 14 4 14L5.601562 14C5.839844 14 6 13.839844 6 13.601562 6 13.359375 5.839844 13.199219 5.601562 13.199219zM8 13.199219L7.199219 13.199219C6.960938 13.199219 6.800781 13.359375 6.800781 13.601562 6.800781 13.839844 6.960938 14 7.199219 14L8 14C8.238281 14 8.398438 13.839844 8.398438 13.601562 8.398438 13.359375 8.238281 13.199219 8 13.199219zM20 11.601562L18 11.601562C17.761719 11.601562 17.601562 11.761719 17.601562 12 17.601562 12.238281 17.761719 12.398438 18 12.398438L20 12.398438C20.238281 12.398438 20.398438 12.238281 20.398438 12 20.398438 11.761719 20.238281 11.601562 20 11.601562zM16 12.398438L16.398438 12.398438C16.640625 12.398438 16.800781 12.238281 16.800781 12 16.800781 11.761719 16.640625 11.601562 16.398438 11.601562L16 11.601562C15.761719 11.601562 15.601562 11.761719 15.601562 12 15.601562 12.238281 15.761719 12.398438 16 12.398438zM17.601562 13.199219L16 13.199219C15.761719 13.199219 15.601562 13.359375 15.601562 13.601562 15.601562 13.839844 15.761719 14 16 14L17.601562 14C17.839844 14 18 13.839844 18 13.601562 18 13.359375 17.839844 13.199219 17.601562 13.199219zM20 13.199219L19.199219 13.199219C18.960938 13.199219 18.800781 13.359375 18.800781 13.601562 18.800781 13.839844 18.960938 14 19.199219 14L20 14C20.238281 14 20.398438 13.839844 20.398438 13.601562 20.398438 13.359375 20.238281 13.199219 20 13.199219zM20 13.199219"/>
</svg>
