<svg xmlns="http://www.w3.org/2000/svg" width="32" height="32" viewBox="0 0 24 24">
    <path d="M 20.800781 8.800781 C 19.175781 8.800781 17.824219 10.027344 17.625 11.601562 L 6.375 11.601562 C 6.265625 10.730469 5.804688 9.96875 5.140625 9.460938 L 9.617188 5.328125 C 10.203125 5.984375 11.054688 6.398438 12 6.398438 C 13.761719 6.398438 15.199219 4.960938 15.199219 3.199219 C 15.199219 1.441406 13.761719 0 12 0 C 10.238281 0 8.800781 1.441406 8.800781 3.199219 C 8.800781 3.726562 8.929688 4.226562 9.15625 4.664062 L 4.414062 9.042969 C 4.039062 8.886719 3.628906 8.800781 3.199219 8.800781 C 1.441406 8.800781 0 10.238281 0 12 C 0 13.761719 1.441406 15.199219 3.199219 15.199219 C 4.824219 15.199219 6.175781 13.972656 6.375 12.398438 L 17.625 12.398438 C 17.734375 13.269531 18.195312 14.03125 18.859375 14.539062 L 14.386719 18.671875 C 13.796875 18.015625 12.945312 17.601562 12 17.601562 C 10.238281 17.601562 8.800781 19.039062 8.800781 20.800781 C 8.800781 22.558594 10.238281 24 12 24 C 13.761719 24 15.199219 22.558594 15.199219 20.800781 C 15.199219 20.273438 15.070312 19.777344 14.84375 19.339844 L 19.585938 14.957031 C 19.960938 15.113281 20.371094 15.199219 20.800781 15.199219 C 22.558594 15.199219 24 13.761719 24 12 C 24 10.238281 22.558594 8.800781 20.800781 8.800781 Z M 12 0.800781 C 13.320312 0.800781 14.398438 1.878906 14.398438 3.199219 C 14.398438 4.519531 13.320312 5.601562 12 5.601562 C 10.679688 5.601562 9.601562 4.519531 9.601562 3.199219 C 9.601562 1.878906 10.679688 0.800781 12 0.800781 Z M 12 23.199219 C 10.679688 23.199219 9.601562 22.121094 9.601562 20.800781 C 9.601562 19.480469 10.679688 18.398438 12 18.398438 C 13.320312 18.398438 14.398438 19.480469 14.398438 20.800781 C 14.398438 22.121094 13.320312 23.199219 12 23.199219 Z M 3.199219 14.398438 C 1.878906 14.398438 0.800781 13.320312 0.800781 12 C 0.800781 10.679688 1.878906 9.601562 3.199219 9.601562 C 4.519531 9.601562 5.601562 10.679688 5.601562 12 C 5.601562 13.320312 4.519531 14.398438 3.199219 14.398438 Z M 20.800781 14.398438 C 19.480469 14.398438 18.398438 13.320312 18.398438 12 C 18.398438 10.679688 19.480469 9.601562 20.800781 9.601562 C 22.121094 9.601562 23.199219 10.679688 23.199219 12 C 23.199219 13.320312 22.121094 14.398438 20.800781 14.398438 Z M 20.800781 14.398438"/>
</svg>
