<svg xmlns="http://www.w3.org/2000/svg" width="32" height="32" viewBox="0 0 24 24">
    <path d="M11.602 7.922V4c0-.238-.16-.398-.403-.398A4.385 4.385 0 0 0 6.801 8a4.385 4.385 0 0 0 4.398 4.398c.68 0 1.32-.16 1.922-.437.2-.082.277-.32.2-.52zm-.403 3.68C9.2 11.602 7.602 10 7.602 8A3.59 3.59 0 0 1 10.8 4.441V8c0 .078 0 .121.039.16l1.558 3.238a4.13 4.13 0 0 1-1.199.204zm0 0"/>
    <path d="M12.8 2.8c-.241 0-.402.16-.402.4v4.402c0 .078 0 .117.043.16l1.598 3.199c.082.16.2.238.36.238h.12c.083 0 .122 0 .2-.039 1.52-.762 2.48-2.238 2.48-3.96a4.388 4.388 0 0 0-4.398-4.4zm1.802 7.52l-1.403-2.8V3.64c1.801.2 3.2 1.72 3.2 3.56 0 1.32-.68 2.48-1.797 3.12zm0 0"/>
    <path d="M22.2.398H1.8C.8.398 0 1.2 0 2.2v15.2c0 1 .8 1.8 1.8 1.8h7.134c.054.696-.258 1.38-.813 1.762l-.723.52a.495.495 0 0 0-.14.128.993.993 0 0 0-.86.993c0 .558.442 1 1 1h9.204c.558 0 1-.442 1-1a.988.988 0 0 0-.93-.997.389.389 0 0 0-.113-.125l-.72-.52c-.566-.39-.847-1.058-.796-1.76h7.156c1 0 1.801-.802 1.801-1.802V2.2c0-1-.8-1.8-1.8-1.8zm-5.598 22.403H7.398a.19.19 0 0 1-.199-.2c0-.12.082-.203.2-.203h9.203c.117 0 .199.082.199.204a.19.19 0 0 1-.2.199zm-1.282-1.2H8.64c.758-.562 1.16-1.48 1.122-2.402h4.476c-.078.922.364 1.84 1.082 2.403zm7.88-4.203c0 .563-.438 1-1 1H1.8c-.562 0-1-.437-1-1v-1.796h22.4zM.8 14.801V2.199c0-.558.438-1 1-1h20.4a.99.99 0 0 1 1 1v12.602zm0 0"/>
    <path d="M6 2.398H4c-.238 0-.398.16-.398.403 0 .238.16.398.398.398h2c.238 0 .398-.16.398-.398 0-.242-.16-.403-.398-.403zm0 0M2 3.2h.398c.243 0 .403-.16.403-.4 0-.241-.16-.402-.403-.402H2c-.238 0-.398.16-.398.403 0 .238.16.398.398.398zm0 0M4 4.398C4 4.16 3.84 4 3.602 4H2c-.238 0-.398.16-.398.398 0 .243.16.403.398.403h1.602C3.84 4.8 4 4.64 4 4.398zm0 0M6 4h-.8c-.24 0-.4.16-.4.398 0 .243.16.403.4.403H6c.238 0 .398-.16.398-.403C6.398 4.16 6.238 4 6 4zm0 0M22 11.2h-2c-.238 0-.398.16-.398.402 0 .238.16.398.398.398h2c.238 0 .398-.16.398-.398 0-.243-.16-.403-.398-.403zm0 0M18 12h.398c.243 0 .403-.16.403-.398 0-.243-.16-.403-.403-.403H18c-.238 0-.398.16-.398.403 0 .238.16.398.398.398zm0 0M19.602 12.8H18c-.238 0-.398.16-.398.4 0 .241.16.402.398.402h1.602c.238 0 .398-.16.398-.403 0-.238-.16-.398-.398-.398zm0 0M22 12.8h-.8c-.24 0-.4.16-.4.4 0 .241.16.402.4.402h.8c.238 0 .398-.16.398-.403 0-.238-.16-.398-.398-.398zm0 0M18.8 4.398h.802V5.2c0 .242.16.403.398.403.238 0 .398-.16.398-.403v-.8h.801c.242 0 .403-.16.403-.399 0-.238-.16-.398-.403-.398h-.8V2.8c0-.242-.16-.403-.399-.403-.238 0-.398.16-.398.403v.8H18.8c-.242 0-.403.16-.403.399 0 .238.16.398.403.398zm0 0M5.48 10.52a.385.385 0 0 0-.558 0L4 11.44l-.922-.921a.385.385 0 0 0-.558 0 .385.385 0 0 0 0 .558L3.44 12l-.921.922a.385.385 0 0 0 0 .558c.082.079.16.122.28.122a.36.36 0 0 0 .278-.122L4 12.56l.922.921a.36.36 0 0 0 .277.122c.121 0 .2-.043.281-.122a.385.385 0 0 0 0-.558L4.56 12l.921-.922a.385.385 0 0 0 0-.558zm0 0"/>
</svg>
