<svg xmlns="http://www.w3.org/2000/svg" width="32" height="32" viewBox="0 0 24 24">
    <path d="M2.797 1.219c-.879 0-1.598.718-1.598 1.597 0 .88.719 1.598 1.598 1.598.879 0 1.598-.719 1.598-1.598 0-.878-.72-1.597-1.598-1.597zm0 2.394c-.442 0-.8-.36-.8-.797 0-.441.358-.8.8-.8.437 0 .797.359.797.8a.8.8 0 0 1-.797.797zm0 0M6.39 1.219c-.878 0-1.597.718-1.597 1.597 0 .88.719 1.598 1.598 1.598.879 0 1.597-.719 1.597-1.598 0-.878-.718-1.597-1.597-1.597zm0 2.394c-.44 0-.8-.36-.8-.797 0-.441.36-.8.8-.8.438 0 .798.359.798.8a.8.8 0 0 1-.797.797zm0 0M9.984 1.219c-.879 0-1.597.718-1.597 1.597 0 .88.718 1.598 1.597 1.598.88 0 1.598-.719 1.598-1.598 0-.878-.719-1.597-1.598-1.597zm0 2.394c-.441 0-.8-.36-.8-.797 0-.441.359-.8.8-.8.438 0 .797.359.797.8a.8.8 0 0 1-.797.797zm0 0M7.586 7.605H2.395c-.239 0-.399.16-.399.403 0 .238.16.398.399.398h5.19c.243 0 .403-.16.403-.398 0-.242-.16-.403-.402-.403zm0 0M13.18 8.406c.238 0 .398-.16.398-.398 0-.242-.16-.403-.398-.403H9.184c-.239 0-.399.16-.399.403 0 .238.16.398.399.398zm0 0M15.574 8.406c.239 0 .399-.16.399-.398 0-.242-.16-.403-.399-.403h-.8c-.239 0-.399.16-.399.403 0 .238.16.398.398.398zm0 0M17.969 9.605c0-.242-.16-.402-.399-.402h-5.988c-.242 0-.402.16-.402.402 0 .239.16.399.402.399h5.988c.239 0 .399-.16.399-.399zm0 0M3.992 9.605c0 .239.16.399.403.399h5.59c.238 0 .398-.16.398-.399 0-.242-.16-.402-.399-.402h-5.59c-.242 0-.402.16-.402.402zm0 0M2.395 10.004h.402c.238 0 .398-.16.398-.399 0-.242-.16-.402-.398-.402h-.402c-.239 0-.399.16-.399.402 0 .239.16.399.399.399zm0 0M2.395 11.602h3.593c.242 0 .403-.16.403-.399 0-.242-.16-.402-.403-.402H2.395c-.239 0-.399.16-.399.402 0 .238.16.399.399.399zm0 0M7.586 10.8c-.238 0-.399.16-.399.403 0 .238.16.399.399.399h.8c.239 0 .4-.16.4-.399 0-.242-.161-.402-.4-.402zm0 0M15.973 11.203c0-.242-.16-.402-.399-.402h-5.59c-.242 0-.398.16-.398.402 0 .238.156.399.398.399h5.59c.239 0 .399-.16.399-.399zm0 0M2.395 13.2h5.19c.243 0 .403-.16.403-.403 0-.238-.16-.399-.402-.399H2.395c-.239 0-.399.16-.399.399 0 .242.16.402.399.402zm0 0M13.18 12.398H9.184c-.239 0-.399.16-.399.399 0 .242.16.402.399.402h3.996c.238 0 .398-.16.398-.402 0-.238-.16-.399-.398-.399zm0 0M13.18 13.996h-1.598c-.242 0-.402.16-.402.399 0 .242.16.402.402.402h1.598c.238 0 .398-.16.398-.402 0-.239-.16-.399-.398-.399zm0 0M10.383 14.395c0-.239-.16-.399-.399-.399h-5.59c-.242 0-.402.16-.402.399 0 .242.16.402.403.402h5.59c.238 0 .398-.16.398-.402zm0 0M2.395 14.797h.402c.238 0 .398-.16.398-.402 0-.239-.16-.399-.398-.399h-.402c-.239 0-.399.16-.399.399 0 .242.16.402.399.402zm0 0M2.395 16.395h3.593c.242 0 .403-.16.403-.403 0-.238-.16-.398-.403-.398H2.395c-.239 0-.399.16-.399.398 0 .242.16.403.399.403zm0 0M8.387 16.395c.238 0 .398-.16.398-.403 0-.238-.16-.398-.398-.398h-.801c-.238 0-.399.16-.399.398 0 .242.16.403.399.403zm0 0M12.777 15.594H9.984c-.242 0-.398.16-.398.398 0 .242.156.403.398.403h2.793c.243 0 .403-.16.403-.403 0-.238-.16-.398-.403-.398zm0 0M2.395 17.988h5.19c.243 0 .403-.156.403-.398 0-.238-.16-.399-.402-.399H2.395c-.239 0-.399.16-.399.399 0 .242.16.398.399.398zm0 0M11.582 17.59c0-.238-.16-.399-.402-.399H9.184c-.239 0-.399.16-.399.399 0 .242.16.398.399.398h1.996c.242 0 .402-.156.402-.398zm0 0M10.383 19.188c0-.239-.16-.399-.399-.399h-5.59c-.242 0-.402.16-.402.398 0 .239.16.399.403.399h5.59c.238 0 .398-.16.398-.398zm0 0M2.395 19.586h.402c.238 0 .398-.16.398-.398 0-.239-.16-.399-.398-.399h-.402c-.239 0-.399.16-.399.398 0 .239.16.399.399.399zm0 0M2.395 21.184h3.593c.242 0 .403-.16.403-.399 0-.238-.16-.398-.403-.398H2.395c-.239 0-.399.16-.399.398 0 .238.16.399.399.399zm0 0M7.586 20.387c-.238 0-.399.16-.399.398 0 .238.16.399.399.399h.8c.239 0 .4-.16.4-.399 0-.238-.161-.398-.4-.398zm0 0M9.984 21.184h.797c.242 0 .399-.16.399-.399 0-.238-.157-.398-.399-.398h-.797c-.242 0-.398.16-.398.398 0 .238.156.399.398.399zm0 0"/>
    <path d="M.797 22.543V5.609H23.16v7.59h.8V1.18c0-.64-.519-1.16-1.116-1.16H1.156A1.16 1.16 0 0 0 0 1.18v21.364c0 .797.64 1.437 1.438 1.437H11.98v-.8H1.437a.63.63 0 0 1-.64-.637zm0-21.363c0-.203.16-.36.36-.36H22.8c.199 0 .36.157.36.36v3.633H.796zm0 0"/>
    <path d="M18.809 13.637c-1.516 0-2.954.597-3.914 1.718-.16.16-.122.399.039.56.16.16.402.12.562-.04.797-.96 1.996-1.48 3.274-1.48a4.38 4.38 0 0 1 4.39 4.394 4.377 4.377 0 0 1-4.39 4.39c-1.989 0-3.739-1.355-4.282-3.19h1.883v-.802h-2.348a.336.336 0 0 0-.125 0h-.718v3.196h.797v-1.434a5.339 5.339 0 0 0 4.793 3.031c2.875 0 5.23-2.277 5.23-5.152a5.181 5.181 0 0 0-5.191-5.191zm0 0"/>
</svg>
