<svg xmlns="http://www.w3.org/2000/svg" width="32" height="32" viewBox="0 0 24 24">
    <path d="M2.8 1.2c-.878 0-1.6.722-1.6 1.6 0 .88.722 1.598 1.6 1.598.88 0 1.598-.718 1.598-1.597 0-.88-.718-1.602-1.597-1.602zm0 2.402A.804.804 0 0 1 2 2.8C2 2.359 2.36 2 2.8 2c.438 0 .802.36.802.8 0 .438-.364.802-.801.802zm0 0M6.398 1.2c-.878 0-1.597.722-1.597 1.6 0 .88.719 1.598 1.597 1.598C7.281 4.398 8 3.68 8 2.801c0-.88-.719-1.602-1.602-1.602zm0 2.402a.801.801 0 0 1 0-1.602c.442 0 .801.36.801.8 0 .438-.36.802-.8.802zm0 0M10 1.2c-.879 0-1.602.722-1.602 1.6 0 .88.723 1.598 1.602 1.598.879 0 1.602-.718 1.602-1.597 0-.88-.723-1.602-1.602-1.602zm0 2.402a.804.804 0 0 1-.8-.801.802.802 0 0 1 1.6 0c0 .437-.359.8-.8.8zm0 0"/>
    <path d="M22.879 0H1.16C.52 0 0 .52 0 1.16V16.72c0 .25.066.476.184.672.02.035.043.066.066.101.074.098.16.184.258.258.066.047.137.09.21.125a1.21 1.21 0 0 0 .3.098c.084.02.173.027.263.027h6.082a4.39 4.39 0 0 0 3.035 3.035v2.567c0 .238.16.398.403.398h1.597c.243 0 .403-.16.403-.398v-2.567A4.39 4.39 0 0 0 15.836 18h6.883C23.44 18 24 17.441 24 16.719V1.16C24 .52 23.48 0 22.879 0zM12 21.2v2h-.8v-2zm-.398-.802c-1.7 0-3.11-1.152-3.497-2.726l-.027-.152c-.031-.204-.066-.41-.074-.614C8 16.871 8 16.836 8 16.801a3.588 3.588 0 0 1 4.242-3.543A3.636 3.636 0 0 1 14 14.12c.762.68 1.2 1.68 1.2 2.68v.105c-.012.203-.048.41-.079.614a.263.263 0 0 0-.016.093l-.011.059a3.578 3.578 0 0 1-3.492 2.726zM16 17.2v-.398a4.385 4.385 0 0 0-2.277-3.86 4.42 4.42 0 0 0-2.602-.543c-1.96.204-3.562 1.68-3.883 3.602-.039.398-.078.8-.039 1.2H1.281c-.281 0-.48-.2-.48-.481V12.16l2.597-2.32c.32-.32.801-.32 1.16-.04l3.16 2.52c.122.078.204.078.321.078.121 0 .2-.078.281-.16l3.121-4.16c.04-.078.118-.078.16-.078.04 0 .118.04.16.078l3.118 4.16c.082.082.2.16.32.16.121 0 .2-.039.36-.16l2.96-3.277a.595.595 0 0 1 .36-.16c.121 0 .281.078.36.16l4 4v3.758c0 .281-.2.48-.477.48zm7.238-5.277l-3.52-3.524C19.48 8.121 19.122 8 18.763 8c-.364 0-.684.16-.922.441L15.2 11.36l-2.802-3.757c-.199-.243-.476-.403-.796-.403-.32 0-.602.16-.801.403l-2.84 3.84-2.84-2.243a1.698 1.698 0 0 0-2.2.04l-2.12 1.878V5.602h22.437zM.801 4.8V1.16C.8.96.96.8 1.16.8H22.84c.2 0 .36.16.36.36V4.8zm0 0"/>
    <path d="M11.602 14.398a2.41 2.41 0 0 0-2.403 2.403c0 .238.16.398.403.398.238 0 .398-.16.398-.398 0-.88.719-1.602 1.602-1.602.238 0 .398-.16.398-.398 0-.242-.16-.403-.398-.403zm0 0"/>
</svg>
