<svg xmlns="http://www.w3.org/2000/svg" width="32" height="32" viewBox="0 0 24 24">
    <path d="M2.800781 1.199219C1.921875 1.199219 1.199219 1.921875 1.199219 2.800781 1.199219 3.679688 1.921875 4.398438 2.800781 4.398438 3.679688 4.398438 4.398438 3.679688 4.398438 2.800781 4.398438 1.921875 3.679688 1.199219 2.800781 1.199219zM2.800781 3.601562C2.359375 3.601562 2 3.238281 2 2.800781 2 2.359375 2.359375 2 2.800781 2 3.238281 2 3.601562 2.359375 3.601562 2.800781 3.601562 3.238281 3.238281 3.601562 2.800781 3.601562zM6.398438 1.199219C5.519531 1.199219 4.800781 1.921875 4.800781 2.800781 4.800781 3.679688 5.519531 4.398438 6.398438 4.398438 7.28125 4.398438 8 3.679688 8 2.800781 8 1.921875 7.28125 1.199219 6.398438 1.199219zM6.398438 3.601562C5.960938 3.601562 5.601562 3.238281 5.601562 2.800781 5.601562 2.359375 5.960938 2 6.398438 2 6.839844 2 7.199219 2.359375 7.199219 2.800781 7.199219 3.238281 6.839844 3.601562 6.398438 3.601562zM10 1.199219C9.121094 1.199219 8.398438 1.921875 8.398438 2.800781 8.398438 3.679688 9.121094 4.398438 10 4.398438 10.878906 4.398438 11.601562 3.679688 11.601562 2.800781 11.601562 1.921875 10.878906 1.199219 10 1.199219zM10 3.601562C9.558594 3.601562 9.199219 3.238281 9.199219 2.800781 9.199219 2.359375 9.558594 2 10 2 10.441406 2 10.800781 2.359375 10.800781 2.800781 10.800781 3.238281 10.441406 3.601562 10 3.601562zM10 3.601562"/>
    <path d="M 22.878906 0 L 1.160156 0 C 0.519531 0 0 0.519531 0 1.160156 L 0 22.71875 C 0 23.441406 0.558594 24 1.28125 24 L 22.71875 24 C 23.441406 24 24 23.441406 24 22.71875 L 24 1.160156 C 24 0.519531 23.480469 0 22.878906 0 Z M 23.199219 22.71875 C 23.199219 23 23 23.199219 22.71875 23.199219 L 1.28125 23.199219 C 1 23.199219 0.800781 23 0.800781 22.71875 L 0.800781 5.601562 L 23.199219 5.601562 Z M 0.800781 4.800781 L 0.800781 1.160156 C 0.800781 0.960938 0.960938 0.800781 1.160156 0.800781 L 22.839844 0.800781 C 23.039062 0.800781 23.199219 0.960938 23.199219 1.160156 L 23.199219 4.800781 Z M 0.800781 4.800781"/>
    <path d="M 3.679688 17.199219 L 4.320312 17.199219 C 4.800781 17.199219 5.199219 16.800781 5.199219 16.320312 L 5.199219 16.078125 C 5.199219 16.039062 5.238281 16 5.28125 16 L 7.519531 16 C 7.558594 16 7.601562 16.039062 7.601562 16.078125 L 7.601562 16.71875 C 7.601562 17.199219 8 17.601562 8.480469 17.601562 L 9.121094 17.601562 C 9.601562 17.601562 10 17.199219 10.039062 16.71875 L 10.039062 14.878906 C 10.039062 14.839844 10.078125 14.800781 10.121094 14.800781 L 14 14.800781 C 14.121094 14.800781 14.238281 14.878906 14.320312 15.039062 C 14.878906 16.359375 16.160156 17.199219 17.601562 17.199219 C 18.679688 17.199219 19.679688 16.71875 20.359375 15.878906 C 21.039062 15.039062 21.320312 13.960938 21.121094 12.878906 C 20.839844 11.441406 19.679688 10.28125 18.238281 10.039062 C 16.558594 9.761719 14.960938 10.640625 14.28125 12.160156 C 14.238281 12.320312 14.121094 12.398438 13.960938 12.398438 L 3.761719 12.398438 C 3.238281 12.398438 2.800781 12.839844 2.800781 13.359375 L 2.800781 16.320312 C 2.800781 16.800781 3.199219 17.199219 3.679688 17.199219 Z M 13.960938 13.160156 C 14.441406 13.160156 14.839844 12.878906 15.039062 12.441406 C 15.558594 11.238281 16.839844 10.558594 18.121094 10.800781 C 19.238281 11 20.160156 11.878906 20.359375 13 C 20.519531 13.839844 20.28125 14.71875 19.761719 15.359375 C 19.238281 16.039062 18.441406 16.398438 17.601562 16.398438 C 16.480469 16.398438 15.480469 15.761719 15.039062 14.71875 C 14.839844 14.28125 14.398438 14 13.960938 14 L 10.078125 14 C 9.601562 14 9.199219 14.398438 9.199219 14.878906 L 9.199219 16.71875 C 9.199219 16.761719 9.160156 16.800781 9.121094 16.800781 L 8.480469 16.800781 C 8.441406 16.800781 8.398438 16.761719 8.398438 16.71875 L 8.398438 16.078125 C 8.398438 15.601562 8 15.199219 7.519531 15.199219 L 6.800781 15.199219 L 6.800781 13.160156 Z M 3.601562 13.359375 C 3.601562 13.28125 3.679688 13.199219 3.761719 13.160156 L 6 13.160156 L 6 15.199219 L 5.28125 15.199219 C 4.800781 15.199219 4.398438 15.601562 4.398438 16.078125 L 4.398438 16.320312 C 4.398438 16.359375 4.359375 16.398438 4.320312 16.398438 L 3.679688 16.398438 C 3.640625 16.398438 3.601562 16.359375 3.601562 16.320312 Z M 3.601562 13.359375"/>
    <path d="M 17.601562 15.601562 C 18.71875 15.601562 19.601562 14.71875 19.601562 13.601562 C 19.601562 12.480469 18.71875 11.601562 17.601562 11.601562 C 16.480469 11.601562 15.601562 12.480469 15.601562 13.601562 C 15.601562 14.71875 16.480469 15.601562 17.601562 15.601562 Z M 17.601562 12.398438 C 18.28125 12.398438 18.800781 12.921875 18.800781 13.601562 C 18.800781 14.28125 18.28125 14.800781 17.601562 14.800781 C 16.921875 14.800781 16.398438 14.28125 16.398438 13.601562 C 16.398438 12.921875 16.921875 12.398438 17.601562 12.398438 Z M 17.601562 12.398438"/>
</svg>
