<svg xmlns="http://www.w3.org/2000/svg" width="32" height="32" viewBox="0 0 24 24">
    <path d="M2.78125 1.273438C1.90625 1.273438 1.191406 1.988281 1.191406 2.859375 1.191406 3.734375 1.90625 4.449219 2.78125 4.449219 3.65625 4.449219 4.371094 3.734375 4.371094 2.859375 4.371094 1.988281 3.65625 1.273438 2.78125 1.273438zM2.78125 3.65625C2.34375 3.65625 1.988281 3.296875 1.988281 2.859375 1.988281 2.421875 2.34375 2.066406 2.78125 2.066406 3.21875 2.066406 3.574219 2.421875 3.574219 2.859375 3.574219 3.296875 3.21875 3.65625 2.78125 3.65625zM6.359375 1.273438C5.484375 1.273438 4.769531 1.988281 4.769531 2.859375 4.769531 3.734375 5.484375 4.449219 6.359375 4.449219 7.230469 4.449219 7.945312 3.734375 7.945312 2.859375 7.945312 1.988281 7.230469 1.273438 6.359375 1.273438zM6.359375 3.65625C5.921875 3.65625 5.5625 3.296875 5.5625 2.859375 5.5625 2.421875 5.921875 2.066406 6.359375 2.066406 6.792969 2.066406 7.152344 2.421875 7.152344 2.859375 7.152344 3.296875 6.792969 3.65625 6.359375 3.65625zM9.933594 1.273438C9.058594 1.273438 8.34375 1.988281 8.34375 2.859375 8.34375 3.734375 9.058594 4.449219 9.933594 4.449219 10.808594 4.449219 11.523438 3.734375 11.523438 2.859375 11.523438 1.988281 10.808594 1.273438 9.933594 1.273438zM9.933594 3.65625C9.496094 3.65625 9.140625 3.296875 9.140625 2.859375 9.140625 2.421875 9.496094 2.066406 9.933594 2.066406 10.371094 2.066406 10.726562 2.421875 10.726562 2.859375 10.726562 3.296875 10.371094 3.65625 9.933594 3.65625zM2.382812 8.425781L7.550781 8.425781C7.789062 8.425781 7.945312 8.265625 7.945312 8.027344 7.945312 7.789062 7.789062 7.628906 7.550781 7.628906L2.382812 7.628906C2.144531 7.628906 1.988281 7.789062 1.988281 8.027344 1.988281 8.265625 2.144531 8.425781 2.382812 8.425781zM9.140625 8.425781L13.113281 8.425781C13.351562 8.425781 13.511719 8.265625 13.511719 8.027344 13.511719 7.789062 13.351562 7.628906 13.113281 7.628906L9.140625 7.628906C8.902344 7.628906 8.742188 7.789062 8.742188 8.027344 8.742188 8.265625 8.902344 8.425781 9.140625 8.425781zM14.703125 8.425781L15.496094 8.425781C15.734375 8.425781 15.894531 8.265625 15.894531 8.027344 15.894531 7.789062 15.734375 7.628906 15.496094 7.628906L14.703125 7.628906C14.464844 7.628906 14.304688 7.789062 14.304688 8.027344 14.304688 8.265625 14.464844 8.425781 14.703125 8.425781zM11.125 9.617188C11.125 9.855469 11.285156 10.011719 11.523438 10.011719L17.484375 10.011719C17.722656 10.011719 17.878906 9.855469 17.878906 9.617188 17.878906 9.378906 17.722656 9.21875 17.484375 9.21875L11.523438 9.21875C11.285156 9.21875 11.125 9.378906 11.125 9.617188zM10.332031 9.617188C10.332031 9.378906 10.171875 9.21875 9.933594 9.21875L4.371094 9.21875C4.132812 9.21875 3.972656 9.378906 3.972656 9.617188 3.972656 9.855469 4.132812 10.011719 4.371094 10.011719L9.933594 10.011719C10.171875 10.011719 10.332031 9.855469 10.332031 9.617188zM2.382812 10.011719L2.78125 10.011719C3.019531 10.011719 3.179688 9.855469 3.179688 9.617188 3.179688 9.378906 3.019531 9.21875 2.78125 9.21875L2.382812 9.21875C2.144531 9.21875 1.988281 9.378906 1.988281 9.617188 1.988281 9.855469 2.144531 10.011719 2.382812 10.011719zM2.382812 11.601562L5.960938 11.601562C6.199219 11.601562 6.359375 11.445312 6.359375 11.207031 6.359375 10.96875 6.199219 10.808594 5.960938 10.808594L2.382812 10.808594C2.144531 10.808594 1.988281 10.96875 1.988281 11.207031 1.988281 11.445312 2.144531 11.601562 2.382812 11.601562zM7.550781 11.601562L8.34375 11.601562C8.582031 11.601562 8.742188 11.445312 8.742188 11.207031 8.742188 10.96875 8.582031 10.808594 8.34375 10.808594L7.550781 10.808594C7.3125 10.808594 7.152344 10.96875 7.152344 11.207031 7.152344 11.445312 7.3125 11.601562 7.550781 11.601562zM15.496094 10.808594L9.933594 10.808594C9.695312 10.808594 9.535156 10.96875 9.535156 11.207031 9.535156 11.445312 9.695312 11.601562 9.933594 11.601562L15.496094 11.601562C15.734375 11.601562 15.894531 11.445312 15.894531 11.207031 15.894531 10.96875 15.734375 10.808594 15.496094 10.808594zM2.382812 13.191406L7.550781 13.191406C7.789062 13.191406 7.945312 13.03125 7.945312 12.792969 7.945312 12.554688 7.789062 12.398438 7.550781 12.398438L2.382812 12.398438C2.144531 12.398438 1.988281 12.554688 1.988281 12.792969 1.988281 13.03125 2.144531 13.191406 2.382812 13.191406zM13.511719 12.792969C13.511719 12.554688 13.351562 12.398438 13.113281 12.398438L9.140625 12.398438C8.902344 12.398438 8.742188 12.554688 8.742188 12.792969 8.742188 13.03125 8.902344 13.191406 9.140625 13.191406L13.113281 13.191406C13.351562 13.191406 13.511719 13.03125 13.511719 12.792969zM13.113281 13.988281L11.523438 13.988281C11.285156 13.988281 11.125 14.144531 11.125 14.382812 11.125 14.621094 11.285156 14.78125 11.523438 14.78125L13.113281 14.78125C13.351562 14.78125 13.511719 14.621094 13.511719 14.382812 13.511719 14.144531 13.351562 13.988281 13.113281 13.988281zM10.332031 14.382812C10.332031 14.144531 10.171875 13.988281 9.933594 13.988281L4.371094 13.988281C4.132812 13.988281 3.972656 14.144531 3.972656 14.382812 3.972656 14.621094 4.132812 14.78125 4.371094 14.78125L9.933594 14.78125C10.171875 14.78125 10.332031 14.621094 10.332031 14.382812zM2.382812 14.78125L2.78125 14.78125C3.019531 14.78125 3.179688 14.621094 3.179688 14.382812 3.179688 14.144531 3.019531 13.988281 2.78125 13.988281L2.382812 13.988281C2.144531 13.988281 1.988281 14.144531 1.988281 14.382812 1.988281 14.621094 2.144531 14.78125 2.382812 14.78125zM2.382812 16.371094L5.960938 16.371094C6.199219 16.371094 6.359375 16.210938 6.359375 15.972656 6.359375 15.734375 6.199219 15.578125 5.960938 15.578125L2.382812 15.578125C2.144531 15.578125 1.988281 15.734375 1.988281 15.972656 1.988281 16.210938 2.144531 16.371094 2.382812 16.371094zM8.34375 15.578125L7.550781 15.578125C7.3125 15.578125 7.152344 15.734375 7.152344 15.972656 7.152344 16.210938 7.3125 16.371094 7.550781 16.371094L8.34375 16.371094C8.582031 16.371094 8.742188 16.210938 8.742188 15.972656 8.742188 15.734375 8.582031 15.578125 8.34375 15.578125zM12.714844 15.578125L9.933594 15.578125C9.695312 15.578125 9.535156 15.734375 9.535156 15.972656 9.535156 16.210938 9.695312 16.371094 9.933594 16.371094L12.714844 16.371094C12.953125 16.371094 13.113281 16.210938 13.113281 15.972656 13.113281 15.734375 12.953125 15.578125 12.714844 15.578125zM2.382812 17.960938L7.550781 17.960938C7.789062 17.960938 7.945312 17.800781 7.945312 17.5625 7.945312 17.324219 7.789062 17.164062 7.550781 17.164062L2.382812 17.164062C2.144531 17.164062 1.988281 17.324219 1.988281 17.5625 1.988281 17.800781 2.144531 17.960938 2.382812 17.960938zM11.523438 17.5625C11.523438 17.324219 11.363281 17.164062 11.125 17.164062L9.140625 17.164062C8.902344 17.164062 8.742188 17.324219 8.742188 17.5625 8.742188 17.800781 8.902344 17.960938 9.140625 17.960938L11.125 17.960938C11.363281 17.960938 11.523438 17.800781 11.523438 17.5625zM3.972656 19.152344C3.972656 19.390625 4.132812 19.550781 4.371094 19.550781L9.933594 19.550781C10.171875 19.550781 10.332031 19.390625 10.332031 19.152344 10.332031 18.914062 10.171875 18.753906 9.933594 18.753906L4.371094 18.753906C4.132812 18.753906 3.972656 18.914062 3.972656 19.152344zM2.382812 19.550781L2.78125 19.550781C3.019531 19.550781 3.179688 19.390625 3.179688 19.152344 3.179688 18.914062 3.019531 18.753906 2.78125 18.753906L2.382812 18.753906C2.144531 18.753906 1.988281 18.914062 1.988281 19.152344 1.988281 19.390625 2.144531 19.550781 2.382812 19.550781zM5.960938 20.34375L2.382812 20.34375C2.144531 20.34375 1.988281 20.503906 1.988281 20.742188 1.988281 20.980469 2.144531 21.140625 2.382812 21.140625L5.960938 21.140625C6.199219 21.140625 6.359375 20.980469 6.359375 20.742188 6.359375 20.503906 6.199219 20.34375 5.960938 20.34375zM8.34375 20.34375L7.550781 20.34375C7.3125 20.34375 7.152344 20.503906 7.152344 20.742188 7.152344 20.980469 7.3125 21.140625 7.550781 21.140625L8.34375 21.140625C8.582031 21.140625 8.742188 20.980469 8.742188 20.742188 8.742188 20.503906 8.582031 20.34375 8.34375 20.34375zM11.921875 20.34375L9.933594 20.34375C9.695312 20.34375 9.535156 20.503906 9.535156 20.742188 9.535156 20.980469 9.695312 21.140625 9.933594 21.140625L11.921875 21.140625C12.160156 21.140625 12.316406 20.980469 12.316406 20.742188 12.316406 20.503906 12.160156 20.34375 11.921875 20.34375zM11.921875 20.34375"/>
    <path d="M 23.839844 17.910156 L 23.839844 1.230469 C 23.839844 0.597656 23.324219 0.078125 22.726562 0.078125 L 1.152344 0.078125 C 0.515625 0.078125 0 0.597656 0 1.230469 L 0 22.648438 C 0 23.363281 0.554688 23.921875 1.273438 23.921875 L 19.3125 23.921875 C 19.511719 23.921875 19.667969 23.761719 19.867188 23.601562 L 19.945312 23.164062 C 19.988281 22.886719 20.183594 22.6875 20.425781 22.570312 C 20.664062 22.449219 20.941406 22.488281 21.179688 22.648438 L 21.535156 22.886719 C 21.695312 23.007812 21.894531 22.96875 22.054688 22.847656 L 22.847656 22.054688 C 22.96875 21.894531 23.007812 21.695312 22.886719 21.535156 L 22.570312 21.058594 C 22.410156 20.820312 22.371094 20.542969 22.488281 20.304688 C 22.609375 20.027344 22.808594 19.867188 23.085938 19.828125 L 23.683594 19.75 C 23.839844 19.707031 24 19.550781 24 19.351562 L 24 18.238281 C 24 18.101562 23.941406 17.980469 23.839844 17.910156 Z M 0.792969 1.230469 C 0.792969 1.03125 0.953125 0.875 1.152344 0.875 L 22.6875 0.875 C 22.886719 0.875 23.046875 1.03125 23.046875 1.230469 L 23.046875 4.847656 L 0.792969 4.847656 Z M 0.792969 22.648438 L 0.792969 5.640625 L 23.164062 5.640625 L 23.164062 17.730469 L 23.125 17.722656 C 22.847656 17.683594 22.648438 17.484375 22.53125 17.246094 C 22.410156 16.96875 22.449219 16.730469 22.609375 16.488281 L 22.96875 16.011719 C 23.003906 15.964844 23.027344 15.90625 23.035156 15.84375 L 23.085938 15.773438 L 23.035156 15.722656 C 23.023438 15.636719 22.984375 15.554688 22.925781 15.496094 L 22.132812 14.703125 C 22.050781 14.640625 21.957031 14.601562 21.867188 14.59375 L 21.816406 14.542969 L 21.71875 14.609375 C 21.683594 14.621094 21.648438 14.636719 21.617188 14.664062 L 21.140625 14.980469 C 20.902344 15.140625 20.621094 15.179688 20.382812 15.058594 C 20.105469 14.941406 19.945312 14.742188 19.90625 14.464844 L 19.828125 13.867188 C 19.808594 13.785156 19.753906 13.699219 19.675781 13.640625 L 19.667969 13.589844 L 19.597656 13.589844 C 19.546875 13.566406 19.492188 13.550781 19.429688 13.550781 L 18.316406 13.550781 C 18.25 13.550781 18.1875 13.5625 18.132812 13.589844 L 17.878906 13.589844 L 17.832031 14.296875 L 17.761719 14.621094 C 17.722656 14.859375 17.523438 15.058594 17.285156 15.179688 C 17.007812 15.296875 16.769531 15.257812 16.53125 15.097656 L 15.894531 14.664062 C 15.828125 14.613281 15.746094 14.589844 15.667969 14.589844 L 15.65625 14.582031 L 15.648438 14.589844 C 15.542969 14.597656 15.441406 14.636719 15.378906 14.703125 L 14.582031 15.496094 C 14.527344 15.554688 14.488281 15.636719 14.476562 15.726562 L 14.382812 15.816406 L 14.941406 16.570312 C 14.953125 16.589844 14.96875 16.613281 14.980469 16.636719 C 15.070312 16.835938 15.074219 17.054688 14.980469 17.246094 C 14.859375 17.484375 14.664062 17.683594 14.382812 17.722656 L 13.828125 17.839844 C 13.75 17.855469 13.683594 17.890625 13.632812 17.9375 L 13.511719 17.960938 L 13.511719 19.75 L 13.964844 19.765625 L 14.421875 19.828125 C 14.703125 19.867188 14.902344 20.066406 15.019531 20.304688 C 15.140625 20.542969 15.097656 20.820312 14.941406 21.058594 L 14.621094 21.535156 C 14.585938 21.585938 14.566406 21.640625 14.554688 21.699219 L 14.503906 21.773438 L 14.554688 21.828125 C 14.570312 21.917969 14.605469 21.996094 14.664062 22.054688 L 15.457031 22.847656 C 15.503906 22.894531 15.566406 22.929688 15.636719 22.945312 L 15.734375 23.046875 L 15.886719 22.933594 C 15.917969 22.921875 15.945312 22.90625 15.972656 22.886719 L 16.449219 22.53125 C 16.6875 22.371094 16.964844 22.332031 17.207031 22.449219 C 17.445312 22.570312 17.640625 22.769531 17.683594 23.046875 L 17.699219 23.125 L 1.273438 23.125 C 0.992188 23.125 0.792969 22.925781 0.792969 22.648438 Z M 23.007812 19.074219 L 22.726562 19.113281 C 22.210938 19.191406 21.734375 19.511719 21.535156 20.027344 C 21.335938 20.503906 21.378906 21.097656 21.695312 21.535156 L 21.894531 21.734375 L 21.578125 22.054688 L 21.496094 22.011719 C 21.019531 21.65625 20.464844 21.617188 19.945312 21.816406 C 19.429688 22.054688 19.074219 22.488281 18.992188 23.046875 L 18.992188 23.125 L 18.554688 23.125 L 18.476562 22.847656 C 18.398438 22.332031 18.039062 21.894531 17.523438 21.695312 C 17.007812 21.496094 16.449219 21.578125 16.011719 21.894531 L 15.816406 22.054688 L 15.496094 21.734375 L 15.617188 21.535156 C 15.933594 21.097656 15.972656 20.542969 15.773438 20.027344 C 15.574219 19.550781 15.140625 19.191406 14.582031 19.113281 L 14.304688 19.074219 L 14.304688 18.636719 L 14.582031 18.554688 C 15.097656 18.476562 15.535156 18.121094 15.734375 17.601562 C 15.933594 17.085938 15.855469 16.53125 15.535156 16.09375 L 15.378906 15.894531 L 15.695312 15.574219 L 16.054688 15.816406 C 16.488281 16.132812 17.046875 16.171875 17.523438 15.972656 C 18.039062 15.773438 18.359375 15.335938 18.476562 14.820312 L 18.554688 14.382812 L 18.992188 14.382812 L 19.03125 14.703125 C 19.113281 15.21875 19.429688 15.695312 19.945312 15.894531 C 20.425781 16.09375 21.019531 16.054688 21.457031 15.734375 L 21.65625 15.574219 L 21.972656 15.933594 L 21.816406 16.132812 C 21.496094 16.570312 21.417969 17.125 21.617188 17.640625 C 21.816406 18.121094 22.25 18.476562 22.769531 18.597656 L 23.007812 18.636719 Z M 23.007812 19.074219"/>
    <path d="M 18.675781 16.769531 C 17.5625 16.769531 16.6875 17.640625 16.6875 18.753906 C 16.6875 19.867188 17.5625 20.742188 18.675781 20.742188 C 19.789062 20.742188 20.664062 19.867188 20.664062 18.753906 C 20.664062 17.640625 19.789062 16.769531 18.675781 16.769531 Z M 18.675781 19.945312 C 18 19.945312 17.484375 19.429688 17.484375 18.753906 C 17.484375 18.078125 18 17.5625 18.675781 17.5625 C 19.351562 17.5625 19.867188 18.078125 19.867188 18.753906 C 19.867188 19.429688 19.351562 19.945312 18.675781 19.945312 Z M 18.675781 19.945312"/>
</svg>
