<svg xmlns="http://www.w3.org/2000/svg" width="32" height="32" viewBox="0 0 24 24">
    <path d="M2.8 1.2c-.878 0-1.6.722-1.6 1.6 0 .88.722 1.598 1.6 1.598.88 0 1.598-.718 1.598-1.597 0-.88-.718-1.602-1.597-1.602zm0 2.402A.804.804 0 0 1 2 2.8C2 2.359 2.36 2 2.8 2c.438 0 .802.36.802.8 0 .438-.364.802-.801.802zm0 0M6.398 1.2c-.878 0-1.597.722-1.597 1.6 0 .88.719 1.598 1.597 1.598C7.281 4.398 8 3.68 8 2.801c0-.88-.719-1.602-1.602-1.602zm0 2.402a.801.801 0 0 1 0-1.602c.442 0 .801.36.801.8 0 .438-.36.802-.8.802zm0 0M10 1.2c-.879 0-1.602.722-1.602 1.6 0 .88.723 1.598 1.602 1.598.879 0 1.602-.718 1.602-1.597 0-.88-.723-1.602-1.602-1.602zm0 2.402a.804.804 0 0 1-.8-.801.802.802 0 0 1 1.6 0c0 .437-.359.8-.8.8zm0 0"/>
    <path d="M22.879 0H1.16C.52 0 0 .52 0 1.16V22.72C0 23.44.559 24 1.281 24H22.72C23.44 24 24 23.441 24 22.719V1.16C24 .52 23.48 0 22.879 0zm.32 22.719c0 .281-.199.48-.48.48H1.28c-.281 0-.48-.199-.48-.48V5.602h22.398zM.801 4.8V1.16C.8.96.96.8 1.16.8H22.84c.2 0 .36.16.36.36V4.8zm0 0"/>
    <path d="M2.398 21.2h8c.243 0 .403-.16.403-.4V18h2.398v2.8c0 .24.16.4.403.4h8c.238 0 .398-.16.398-.4v-9.98a.384.384 0 0 0-.098-.277l-.023-.023-2.8-2.801c-.009-.008-.017-.016-.024-.02a.325.325 0 0 0-.145-.086c-.043-.011-.086-.015-.133-.011h-5.175c-.243 0-.403.16-.403.398v5.602h-2.398V10.82a.387.387 0 0 0-.098-.277 517.89 517.89 0 0 1-.023-.023L7.879 7.719a.104.104 0 0 0-.024-.02.325.325 0 0 0-.144-.086c-.043-.011-.086-.015-.133-.011h-5.18C2.16 7.602 2 7.762 2 8v12.8c0 .24.16.4.398.4zM19.2 8.96l1.442 1.438h-1.442zM14 8.399h4.398v2.403c0 .238.16.398.403.398h2.398v9.2H14V18h1.84l-.918.922a.385.385 0 0 0 0 .558.36.36 0 0 0 .277.122c.121 0 .2-.043.281-.122l1.532-1.53a.383.383 0 0 0 .187-.348c0-.16-.07-.286-.187-.352l-1.532-1.531a.385.385 0 0 0-.558 0 .39.39 0 0 0 0 .562l.918.918H14v-2.8h2c.238 0 .398-.16.398-.399 0-.238-.16-.398-.398-.398h-2zm-.8 6V17.2h-2.4v-2.8zm-3.759-4H8V8.961zm-6.64-2h4.398v2.403c0 .238.16.398.403.398H10v2.403H8.16l.918-.922a.385.385 0 0 0 0-.559.385.385 0 0 0-.558 0l-1.532 1.531a.38.38 0 0 0-.187.348c0 .16.07.281.187.348l1.532 1.53c.082.083.16.122.28.122.122 0 .2-.04.278-.121a.385.385 0 0 0 0-.559l-.918-.922H10V17.2H8c-.238 0-.398.16-.398.403 0 .238.16.398.398.398h2v2.398H2.8zm0 0"/>
</svg>
