<svg xmlns="http://www.w3.org/2000/svg" width="32" height="32" viewBox="0 0 24 24">
    <path d="M2.8 1.2c-.878 0-1.6.722-1.6 1.6 0 .88.722 1.598 1.6 1.598.88 0 1.598-.718 1.598-1.597 0-.88-.718-1.602-1.597-1.602zm0 2.402A.804.804 0 0 1 2 2.8C2 2.359 2.36 2 2.8 2c.438 0 .802.36.802.8 0 .438-.364.802-.801.802zm0 0M6.398 1.2c-.878 0-1.597.722-1.597 1.6 0 .88.719 1.598 1.597 1.598C7.281 4.398 8 3.68 8 2.801c0-.88-.719-1.602-1.602-1.602zm0 2.402a.801.801 0 0 1 0-1.602c.442 0 .801.36.801.8 0 .438-.36.802-.8.802zm0 0M10 1.2c-.879 0-1.602.722-1.602 1.6 0 .88.723 1.598 1.602 1.598.879 0 1.602-.718 1.602-1.597 0-.88-.723-1.602-1.602-1.602zm0 2.402a.804.804 0 0 1-.8-.801.802.802 0 0 1 1.6 0c0 .437-.359.8-.8.8zm0 0"/>
    <path d="M22.879 0H1.16C.52 0 0 .52 0 1.16V22.56C0 23.359.64 24 1.441 24h12.957v-.8H1.441a.629.629 0 0 1-.64-.641V5.602h22.398V12H24V1.16C24 .52 23.48 0 22.879 0zM.8 4.8V1.16C.8.96.96.8 1.16.8H22.84c.2 0 .36.16.36.36V4.8zm0 0"/>
    <path d="M7.602 7.602H2.398C2.16 7.602 2 7.762 2 8c0 .238.16.398.398.398h5.204C7.84 8.398 8 8.238 8 8c0-.238-.16-.398-.398-.398zm0 0M13.2 7.602h-4c-.24 0-.4.16-.4.398 0 .238.16.398.4.398h4c.241 0 .402-.16.402-.398 0-.238-.16-.398-.403-.398zm0 0M15.602 8.398c.238 0 .398-.16.398-.398 0-.238-.16-.398-.398-.398H14.8c-.242 0-.403.16-.403.398 0 .238.16.398.403.398zm0 0M11.2 9.602c0 .238.16.398.402.398h6c.238 0 .398-.16.398-.398 0-.243-.16-.403-.398-.403h-6c-.243 0-.403.16-.403.403zm0 0M4 9.602c0 .238.16.398.398.398H10c.238 0 .398-.16.398-.398 0-.243-.16-.403-.398-.403H4.398C4.16 9.2 4 9.36 4 9.602zm0 0M2.398 10h.403c.238 0 .398-.16.398-.398 0-.243-.16-.403-.398-.403h-.403C2.16 9.2 2 9.36 2 9.602c0 .238.16.398.398.398zm0 0M2.398 11.602H6c.238 0 .398-.16.398-.403 0-.238-.16-.398-.398-.398H2.398c-.238 0-.398.16-.398.398 0 .242.16.403.398.403zm0 0M8.398 10.8h-.796c-.243 0-.403.16-.403.4 0 .241.16.402.403.402h.796c.243 0 .403-.16.403-.403 0-.238-.16-.398-.403-.398zm0 0M15.602 10.8H10c-.238 0-.398.16-.398.4 0 .241.16.402.398.402h5.602c.238 0 .398-.16.398-.403 0-.238-.16-.398-.398-.398zm0 0M2.398 13.2h5.204c.238 0 .398-.16.398-.4 0-.241-.16-.402-.398-.402H2.398c-.238 0-.398.16-.398.403 0 .238.16.398.398.398zm0 0M13.2 12.398h-4c-.24 0-.4.16-.4.403 0 .238.16.398.4.398h4c.241 0 .402-.16.402-.398 0-.242-.16-.403-.403-.403zm0 0M13.602 14.398c0-.238-.16-.398-.403-.398h-1.597c-.243 0-.403.16-.403.398 0 .243.16.403.403.403h1.597c.242 0 .403-.16.403-.403zm0 0M10.398 14.398c0-.238-.16-.398-.398-.398H4.398c-.238 0-.398.16-.398.398 0 .243.16.403.398.403H10c.238 0 .398-.16.398-.403zm0 0M2.398 14.8h.403c.238 0 .398-.16.398-.402 0-.238-.16-.398-.398-.398h-.403c-.238 0-.398.16-.398.398 0 .243.16.403.398.403zm0 0M2.398 16.398H6c.238 0 .398-.16.398-.398 0-.238-.16-.398-.398-.398H2.398c-.238 0-.398.16-.398.398 0 .238.16.398.398.398zm0 0M7.602 15.602c-.243 0-.403.16-.403.398 0 .238.16.398.403.398h.796c.243 0 .403-.16.403-.398 0-.238-.16-.398-.403-.398zm0 0M13.2 16c0-.238-.16-.398-.4-.398H10c-.238 0-.398.16-.398.398 0 .238.16.398.398.398h2.8c.24 0 .4-.16.4-.398zm0 0M2.398 18h5.204c.238 0 .398-.16.398-.398 0-.243-.16-.403-.398-.403H2.398c-.238 0-.398.16-.398.403 0 .238.16.398.398.398zm0 0M11.602 17.602c0-.243-.16-.403-.403-.403h-2c-.238 0-.398.16-.398.403 0 .238.16.398.398.398h2c.242 0 .403-.16.403-.398zm0 0M10.398 19.2c0-.24-.16-.4-.398-.4H4.398c-.238 0-.398.16-.398.4 0 .241.16.402.398.402H10c.238 0 .398-.16.398-.403zm0 0M2.398 19.602h.403c.238 0 .398-.16.398-.403 0-.238-.16-.398-.398-.398h-.403c-.238 0-.398.16-.398.398 0 .242.16.403.398.403zm0 0M2.398 21.2H6c.238 0 .398-.16.398-.4 0-.241-.16-.402-.398-.402H2.398c-.238 0-.398.16-.398.403 0 .238.16.398.398.398zm0 0M7.602 20.398c-.243 0-.403.16-.403.403 0 .238.16.398.403.398h.796c.243 0 .403-.16.403-.398 0-.242-.16-.403-.403-.403zm0 0M10 21.2h.8c.24 0 .4-.16.4-.4 0-.241-.16-.402-.4-.402H10c-.238 0-.398.16-.398.403 0 .238.16.398.398.398zm0 0M23.2 15.36v-.962h.402c.238 0 .398-.16.398-.398 0-.238-.16-.398-.398-.398h-7.204c-.238 0-.398.16-.398.398 0 .238.16.398.398.398h.403v.922c0 1.407.726 2.7 1.906 3.461a4.112 4.112 0 0 0-1.906 3.457v.961h-.403c-.238 0-.398.16-.398.403 0 .238.16.398.398.398h7.204c.238 0 .398-.16.398-.398 0-.243-.16-.403-.398-.403h-.403v-.96a4.12 4.12 0 0 0-1.875-3.438 4.122 4.122 0 0 0 1.875-3.442zm-.802 6.878v.961h-4.796v-.96c0-1.317.796-2.52 2.078-3.04h.64c1.282.52 2.078 1.723 2.078 3.04zm-1.984-3.879h-.828c-1.227-.539-1.984-1.71-1.984-3v-.96h4.796v.96c0 1.29-.757 2.461-1.984 3zm0 0"/>
</svg>
