<svg xmlns="http://www.w3.org/2000/svg" width="32" height="32" viewBox="0 0 24 24">
    <path d="M2.800781 1.199219C1.921875 1.199219 1.199219 1.921875 1.199219 2.800781 1.199219 3.679688 1.921875 4.398438 2.800781 4.398438 3.679688 4.398438 4.398438 3.679688 4.398438 2.800781 4.398438 1.921875 3.679688 1.199219 2.800781 1.199219zM2.800781 3.601562C2.359375 3.601562 2 3.238281 2 2.800781 2 2.359375 2.359375 2 2.800781 2 3.238281 2 3.601562 2.359375 3.601562 2.800781 3.601562 3.238281 3.238281 3.601562 2.800781 3.601562zM6.398438 1.199219C5.519531 1.199219 4.800781 1.921875 4.800781 2.800781 4.800781 3.679688 5.519531 4.398438 6.398438 4.398438 7.28125 4.398438 8 3.679688 8 2.800781 8 1.921875 7.28125 1.199219 6.398438 1.199219zM6.398438 3.601562C5.960938 3.601562 5.601562 3.238281 5.601562 2.800781 5.601562 2.359375 5.960938 2 6.398438 2 6.839844 2 7.199219 2.359375 7.199219 2.800781 7.199219 3.238281 6.839844 3.601562 6.398438 3.601562zM10 1.199219C9.121094 1.199219 8.398438 1.921875 8.398438 2.800781 8.398438 3.679688 9.121094 4.398438 10 4.398438 10.878906 4.398438 11.601562 3.679688 11.601562 2.800781 11.601562 1.921875 10.878906 1.199219 10 1.199219zM10 3.601562C9.558594 3.601562 9.199219 3.238281 9.199219 2.800781 9.199219 2.359375 9.558594 2 10 2 10.441406 2 10.800781 2.359375 10.800781 2.800781 10.800781 3.238281 10.441406 3.601562 10 3.601562zM10 3.601562"/>
    <path d="M 22.878906 0 L 1.160156 0 C 0.519531 0 0 0.519531 0 1.160156 L 0 16.71875 C 0 16.96875 0.0664062 17.195312 0.183594 17.390625 C 0.203125 17.425781 0.226562 17.457031 0.25 17.492188 C 0.324219 17.589844 0.410156 17.675781 0.507812 17.75 C 0.574219 17.796875 0.644531 17.839844 0.71875 17.875 C 0.738281 17.886719 0.757812 17.894531 0.777344 17.902344 C 0.832031 17.925781 0.894531 17.945312 0.957031 17.960938 C 0.976562 17.964844 0.996094 17.96875 1.019531 17.972656 C 1.101562 17.992188 1.191406 18 1.28125 18 L 7.363281 18 C 7.777344 19.46875 8.929688 20.625 10.398438 21.035156 L 10.398438 23.601562 C 10.398438 23.839844 10.558594 24 10.800781 24 L 12.398438 24 C 12.640625 24 12.800781 23.839844 12.800781 23.601562 L 12.800781 21.035156 C 14.269531 20.625 15.421875 19.46875 15.835938 18 L 22.71875 18 C 23.441406 18 24 17.441406 24 16.71875 L 24 1.160156 C 24 0.519531 23.480469 0 22.878906 0 Z M 12 21.199219 L 12 23.199219 L 11.199219 23.199219 L 11.199219 21.199219 Z M 11.601562 20.398438 C 9.902344 20.398438 8.492188 19.246094 8.105469 17.671875 L 8.078125 17.519531 C 8.046875 17.316406 8.011719 17.109375 8.003906 16.90625 C 8 16.871094 8 16.835938 8 16.800781 C 8 14.800781 9.601562 13.199219 11.601562 13.199219 C 11.820312 13.199219 12.035156 13.21875 12.242188 13.257812 C 12.894531 13.382812 13.5 13.671875 14 14.121094 C 14.761719 14.800781 15.199219 15.800781 15.199219 16.800781 C 15.199219 16.835938 15.199219 16.871094 15.199219 16.90625 C 15.1875 17.109375 15.152344 17.316406 15.121094 17.519531 C 15.109375 17.550781 15.105469 17.582031 15.105469 17.613281 L 15.09375 17.671875 C 14.707031 19.246094 13.300781 20.398438 11.601562 20.398438 Z M 16 17.199219 C 16 17.078125 16 16.921875 16 16.800781 C 16 15.128906 15.082031 13.6875 13.722656 12.941406 C 12.949219 12.503906 12.054688 12.3125 11.121094 12.398438 C 9.160156 12.601562 7.558594 14.078125 7.238281 16 C 7.199219 16.398438 7.160156 16.800781 7.199219 17.199219 L 1.28125 17.199219 C 1 17.199219 0.800781 17 0.800781 16.71875 L 0.800781 12.160156 L 3.398438 9.839844 C 3.71875 9.519531 4.199219 9.519531 4.558594 9.800781 L 7.71875 12.320312 C 7.839844 12.398438 7.921875 12.398438 8.039062 12.398438 C 8.160156 12.398438 8.238281 12.320312 8.320312 12.238281 L 11.441406 8.078125 C 11.480469 8 11.558594 8 11.601562 8 C 11.640625 8 11.71875 8.039062 11.761719 8.078125 L 14.878906 12.238281 C 14.960938 12.320312 15.078125 12.398438 15.199219 12.398438 C 15.320312 12.398438 15.398438 12.359375 15.558594 12.238281 L 18.519531 8.960938 C 18.601562 8.878906 18.761719 8.800781 18.878906 8.800781 C 19 8.800781 19.160156 8.878906 19.238281 8.960938 L 23.238281 12.960938 L 23.238281 16.71875 C 23.238281 17 23.039062 17.199219 22.761719 17.199219 Z M 23.238281 11.921875 L 19.71875 8.398438 C 19.480469 8.121094 19.121094 8 18.761719 8 C 18.398438 8 18.078125 8.160156 17.839844 8.441406 L 15.199219 11.359375 L 12.398438 7.601562 C 12.199219 7.359375 11.921875 7.199219 11.601562 7.199219 C 11.28125 7.199219 11 7.359375 10.800781 7.601562 L 7.960938 11.441406 L 5.121094 9.199219 C 4.480469 8.679688 3.558594 8.679688 2.921875 9.238281 L 0.800781 11.117188 L 0.800781 5.601562 L 23.238281 5.601562 Z M 0.800781 4.800781 L 0.800781 1.160156 C 0.800781 0.960938 0.960938 0.800781 1.160156 0.800781 L 22.839844 0.800781 C 23.039062 0.800781 23.199219 0.960938 23.199219 1.160156 L 23.199219 4.800781 Z M 0.800781 4.800781"/>
    <path d="M 11.601562 14.398438 C 10.28125 14.398438 9.199219 15.480469 9.199219 16.800781 C 9.199219 17.039062 9.359375 17.199219 9.601562 17.199219 C 9.839844 17.199219 10 17.039062 10 16.800781 C 10 15.921875 10.71875 15.199219 11.601562 15.199219 C 11.839844 15.199219 12 15.039062 12 14.800781 C 12 14.558594 11.839844 14.398438 11.601562 14.398438 Z M 11.601562 14.398438"/>
</svg>
