<svg xmlns="http://www.w3.org/2000/svg" width="32" height="32" viewBox="0 0 24 24">
    <path d="M2.800781 1.199219C1.921875 1.199219 1.199219 1.921875 1.199219 2.800781 1.199219 3.679688 1.921875 4.398438 2.800781 4.398438 3.679688 4.398438 4.398438 3.679688 4.398438 2.800781 4.398438 1.921875 3.679688 1.199219 2.800781 1.199219zM2.800781 3.601562C2.359375 3.601562 2 3.238281 2 2.800781 2 2.359375 2.359375 2 2.800781 2 3.238281 2 3.601562 2.359375 3.601562 2.800781 3.601562 3.238281 3.238281 3.601562 2.800781 3.601562zM6.398438 1.199219C5.519531 1.199219 4.800781 1.921875 4.800781 2.800781 4.800781 3.679688 5.519531 4.398438 6.398438 4.398438 7.28125 4.398438 8 3.679688 8 2.800781 8 1.921875 7.28125 1.199219 6.398438 1.199219zM6.398438 3.601562C5.960938 3.601562 5.601562 3.238281 5.601562 2.800781 5.601562 2.359375 5.960938 2 6.398438 2 6.839844 2 7.199219 2.359375 7.199219 2.800781 7.199219 3.238281 6.839844 3.601562 6.398438 3.601562zM10 1.199219C9.121094 1.199219 8.398438 1.921875 8.398438 2.800781 8.398438 3.679688 9.121094 4.398438 10 4.398438 10.878906 4.398438 11.601562 3.679688 11.601562 2.800781 11.601562 1.921875 10.878906 1.199219 10 1.199219zM10 3.601562C9.558594 3.601562 9.199219 3.238281 9.199219 2.800781 9.199219 2.359375 9.558594 2 10 2 10.441406 2 10.800781 2.359375 10.800781 2.800781 10.800781 3.238281 10.441406 3.601562 10 3.601562zM10 3.601562"/>
    <path d="M 22.878906 0 L 1.160156 0 C 0.519531 0 0 0.519531 0 1.160156 L 0 22.878906 C 0 23.519531 0.480469 24 1.121094 24 L 22.878906 24 C 23.519531 24 24 23.519531 24 22.878906 L 24 1.160156 C 24 0.519531 23.480469 0 22.878906 0 Z M 1.28125 23.199219 C 1 23.199219 0.800781 23 0.800781 22.71875 L 0.800781 16.800781 L 11.601562 16.800781 L 11.601562 23.199219 Z M 12.398438 23.199219 L 12.398438 16.800781 L 23.199219 16.800781 L 23.199219 22.71875 C 23.199219 23 23 23.199219 22.71875 23.199219 Z M 23.199219 16 L 0.800781 16 L 0.800781 5.601562 L 23.199219 5.601562 Z M 0.800781 4.800781 L 0.800781 1.160156 C 0.800781 0.960938 0.960938 0.800781 1.160156 0.800781 L 22.839844 0.800781 C 23.039062 0.800781 23.199219 0.960938 23.199219 1.160156 L 23.199219 4.800781 Z M 0.800781 4.800781"/>
    <path d="M2.398438 18.800781L7.601562 18.800781C7.839844 18.800781 8 18.640625 8 18.398438 8 18.160156 7.839844 18 7.601562 18L2.398438 18C2.160156 18 2 18.160156 2 18.398438 2 18.640625 2.160156 18.800781 2.398438 18.800781zM10 18L9.199219 18C8.960938 18 8.800781 18.160156 8.800781 18.398438 8.800781 18.640625 8.960938 18.800781 9.199219 18.800781L10 18.800781C10.238281 18.800781 10.398438 18.640625 10.398438 18.398438 10.398438 18.160156 10.238281 18 10 18zM10 19.601562L8 19.601562C7.761719 19.601562 7.601562 19.761719 7.601562 20 7.601562 20.238281 7.761719 20.398438 8 20.398438L10 20.398438C10.238281 20.398438 10.398438 20.238281 10.398438 20 10.398438 19.761719 10.238281 19.601562 10 19.601562zM2.398438 20.398438L2.800781 20.398438C3.039062 20.398438 3.199219 20.238281 3.199219 20 3.199219 19.761719 3.039062 19.601562 2.800781 19.601562L2.398438 19.601562C2.160156 19.601562 2 19.761719 2 20 2 20.238281 2.160156 20.398438 2.398438 20.398438zM6.398438 19.601562L4.800781 19.601562C4.558594 19.601562 4.398438 19.761719 4.398438 20 4.398438 20.238281 4.558594 20.398438 4.800781 20.398438L6.398438 20.398438C6.640625 20.398438 6.800781 20.238281 6.800781 20 6.800781 19.761719 6.640625 19.601562 6.398438 19.601562zM3.199219 21.199219L2.398438 21.199219C2.160156 21.199219 2 21.359375 2 21.601562 2 21.839844 2.160156 22 2.398438 22L3.199219 22C3.441406 22 3.601562 21.839844 3.601562 21.601562 3.601562 21.359375 3.441406 21.199219 3.199219 21.199219zM5.601562 21.199219L4.800781 21.199219C4.558594 21.199219 4.398438 21.359375 4.398438 21.601562 4.398438 21.839844 4.558594 22 4.800781 22L5.601562 22C5.839844 22 6 21.839844 6 21.601562 6 21.359375 5.839844 21.199219 5.601562 21.199219zM10 21.199219L7.199219 21.199219C6.960938 21.199219 6.800781 21.359375 6.800781 21.601562 6.800781 21.839844 6.960938 22 7.199219 22L10 22C10.238281 22 10.398438 21.839844 10.398438 21.601562 10.398438 21.359375 10.238281 21.199219 10 21.199219zM21.601562 18L16.398438 18C16.160156 18 16 18.160156 16 18.398438 16 18.640625 16.160156 18.800781 16.398438 18.800781L21.601562 18.800781C21.839844 18.800781 22 18.640625 22 18.398438 22 18.160156 21.839844 18 21.601562 18zM14 18.800781L14.800781 18.800781C15.039062 18.800781 15.199219 18.640625 15.199219 18.398438 15.199219 18.160156 15.039062 18 14.800781 18L14 18C13.761719 18 13.601562 18.160156 13.601562 18.398438 13.601562 18.640625 13.761719 18.800781 14 18.800781zM14 20.398438L16 20.398438C16.238281 20.398438 16.398438 20.238281 16.398438 20 16.398438 19.761719 16.238281 19.601562 16 19.601562L14 19.601562C13.761719 19.601562 13.601562 19.761719 13.601562 20 13.601562 20.238281 13.761719 20.398438 14 20.398438zM21.601562 19.601562L21.199219 19.601562C20.960938 19.601562 20.800781 19.761719 20.800781 20 20.800781 20.238281 20.960938 20.398438 21.199219 20.398438L21.601562 20.398438C21.839844 20.398438 22 20.238281 22 20 22 19.761719 21.839844 19.601562 21.601562 19.601562zM19.199219 19.601562L17.601562 19.601562C17.359375 19.601562 17.199219 19.761719 17.199219 20 17.199219 20.238281 17.359375 20.398438 17.601562 20.398438L19.199219 20.398438C19.441406 20.398438 19.601562 20.238281 19.601562 20 19.601562 19.761719 19.441406 19.601562 19.199219 19.601562zM21.601562 21.199219L20.800781 21.199219C20.558594 21.199219 20.398438 21.359375 20.398438 21.601562 20.398438 21.839844 20.558594 22 20.800781 22L21.601562 22C21.839844 22 22 21.839844 22 21.601562 22 21.359375 21.839844 21.199219 21.601562 21.199219zM19.199219 21.199219L18.398438 21.199219C18.160156 21.199219 18 21.359375 18 21.601562 18 21.839844 18.160156 22 18.398438 22L19.199219 22C19.441406 22 19.601562 21.839844 19.601562 21.601562 19.601562 21.359375 19.441406 21.199219 19.199219 21.199219zM16.800781 21.199219L14 21.199219C13.761719 21.199219 13.601562 21.359375 13.601562 21.601562 13.601562 21.839844 13.761719 22 14 22L16.800781 22C17.039062 22 17.199219 21.839844 17.199219 21.601562 17.199219 21.359375 17.039062 21.199219 16.800781 21.199219zM13.199219 8.398438L18.851562 8.398438C19.03125 9.089844 19.65625 9.601562 20.398438 9.601562 21.28125 9.601562 22 8.878906 22 8 22 7.121094 21.28125 6.398438 20.398438 6.398438 19.65625 6.398438 19.03125 6.910156 18.851562 7.601562L13.199219 7.601562C12.960938 7.601562 12.800781 7.761719 12.800781 8 12.800781 8.238281 12.960938 8.398438 13.199219 8.398438zM20.398438 7.199219C20.839844 7.199219 21.199219 7.558594 21.199219 8 21.199219 8.441406 20.839844 8.800781 20.398438 8.800781 19.960938 8.800781 19.601562 8.441406 19.601562 8 19.601562 7.558594 19.960938 7.199219 20.398438 7.199219zM13.199219 14L16.050781 14C16.230469 14.6875 16.859375 15.199219 17.601562 15.199219 18.34375 15.199219 18.96875 14.6875 19.148438 14L21.601562 14C21.839844 14 22 13.839844 22 13.601562 22 13.359375 21.839844 13.199219 21.601562 13.199219L19.148438 13.199219C18.96875 12.511719 18.34375 12 17.601562 12 16.859375 12 16.230469 12.511719 16.050781 13.199219L13.199219 13.199219C12.960938 13.199219 12.800781 13.359375 12.800781 13.601562 12.800781 13.839844 12.960938 14 13.199219 14zM17.601562 12.800781C18.039062 12.800781 18.398438 13.160156 18.398438 13.601562 18.398438 14.039062 18.039062 14.398438 17.601562 14.398438 17.160156 14.398438 16.800781 14.039062 16.800781 13.601562 16.800781 13.160156 17.160156 12.800781 17.601562 12.800781zM2.71875 15.199219L8.480469 15.199219C8.878906 15.199219 9.199219 14.878906 9.238281 14.519531L9.238281 7.121094C9.238281 6.71875 8.921875 6.398438 8.519531 6.398438L2.71875 6.398438C2.320312 6.398438 2 6.71875 2 7.121094L2 14.480469C2 14.878906 2.320312 15.199219 2.71875 15.199219zM2.800781 7.199219L8.398438 7.199219 8.398438 8.398438 2.800781 8.398438zM8.398438 9.199219L8.398438 14.398438 2.800781 14.398438 2.800781 9.199219zM8.398438 9.199219"/>
    <path d="M 4.28125 13.601562 L 6.921875 13.601562 C 7.28125 13.601562 7.601562 13.28125 7.601562 12.921875 L 7.601562 11.878906 C 7.601562 11.519531 7.28125 11.199219 6.921875 11.199219 L 4.28125 11.199219 C 3.921875 11.199219 3.601562 11.519531 3.601562 11.878906 L 3.601562 12.921875 C 3.601562 13.28125 3.921875 13.601562 4.28125 13.601562 Z M 4.398438 12 L 6.800781 12 L 6.800781 12.800781 L 4.398438 12.800781 Z M 4.398438 12"/>
</svg>
