<svg xmlns="http://www.w3.org/2000/svg" width="32" height="32" viewBox="0 0 24 24">
    <path d="M2.800781 1.199219C1.921875 1.199219 1.199219 1.921875 1.199219 2.800781 1.199219 3.679688 1.921875 4.398438 2.800781 4.398438 3.679688 4.398438 4.398438 3.679688 4.398438 2.800781 4.398438 1.921875 3.679688 1.199219 2.800781 1.199219zM2.800781 3.601562C2.359375 3.601562 2 3.238281 2 2.800781 2 2.359375 2.359375 2 2.800781 2 3.238281 2 3.601562 2.359375 3.601562 2.800781 3.601562 3.238281 3.238281 3.601562 2.800781 3.601562zM6.398438 1.199219C5.519531 1.199219 4.800781 1.921875 4.800781 2.800781 4.800781 3.679688 5.519531 4.398438 6.398438 4.398438 7.28125 4.398438 8 3.679688 8 2.800781 8 1.921875 7.28125 1.199219 6.398438 1.199219zM6.398438 3.601562C5.960938 3.601562 5.601562 3.238281 5.601562 2.800781 5.601562 2.359375 5.960938 2 6.398438 2 6.839844 2 7.199219 2.359375 7.199219 2.800781 7.199219 3.238281 6.839844 3.601562 6.398438 3.601562zM10 1.199219C9.121094 1.199219 8.398438 1.921875 8.398438 2.800781 8.398438 3.679688 9.121094 4.398438 10 4.398438 10.878906 4.398438 11.601562 3.679688 11.601562 2.800781 11.601562 1.921875 10.878906 1.199219 10 1.199219zM10 3.601562C9.558594 3.601562 9.199219 3.238281 9.199219 2.800781 9.199219 2.359375 9.558594 2 10 2 10.441406 2 10.800781 2.359375 10.800781 2.800781 10.800781 3.238281 10.441406 3.601562 10 3.601562zM10 3.601562"/>
    <path d="M 22.878906 0 L 1.160156 0 C 0.519531 0 0 0.519531 0 1.160156 L 0 22.71875 C 0 23.441406 0.558594 24 1.28125 24 L 22.71875 24 C 23.441406 24 24 23.441406 24 22.71875 L 24 1.160156 C 24 0.519531 23.480469 0 22.878906 0 Z M 23.199219 22.71875 C 23.199219 23 23 23.199219 22.71875 23.199219 L 1.28125 23.199219 C 1 23.199219 0.800781 23 0.800781 22.71875 L 0.800781 5.601562 L 23.199219 5.601562 Z M 0.800781 4.800781 L 0.800781 1.160156 C 0.800781 0.960938 0.960938 0.800781 1.160156 0.800781 L 22.839844 0.800781 C 23.039062 0.800781 23.199219 0.960938 23.199219 1.160156 L 23.199219 4.800781 Z M 0.800781 4.800781"/>
    <path d="M 7.601562 22 C 8.320312 22 9.039062 21.71875 9.558594 21.199219 L 12.679688 18.078125 C 13.199219 17.519531 13.480469 16.839844 13.480469 16.078125 C 13.480469 15.863281 13.453125 15.648438 13.40625 15.4375 C 13.625 15.492188 13.851562 15.519531 14.078125 15.519531 C 14.800781 15.519531 15.519531 15.238281 16.039062 14.71875 L 19.160156 11.601562 C 19.679688 11.039062 19.960938 10.320312 19.960938 9.601562 C 19.960938 8.878906 19.679688 8.160156 19.160156 7.640625 C 18.640625 7.121094 17.960938 6.839844 17.199219 6.839844 C 16.480469 6.839844 15.761719 7.121094 15.238281 7.640625 L 12.121094 10.761719 C 11.414062 11.464844 11.171875 12.476562 11.386719 13.394531 C 11.171875 13.347656 10.949219 13.320312 10.71875 13.320312 C 10 13.320312 9.28125 13.601562 8.761719 14.121094 L 5.640625 17.238281 C 4.558594 18.320312 4.558594 20.121094 5.640625 21.199219 C 6.160156 21.71875 6.878906 22 7.601562 22 Z M 12.679688 11.320312 L 15.800781 8.199219 C 16.160156 7.800781 16.679688 7.601562 17.199219 7.601562 C 17.761719 7.601562 18.238281 7.800781 18.640625 8.238281 C 19.039062 8.601562 19.238281 9.121094 19.238281 9.640625 C 19.238281 10.160156 19 10.679688 18.640625 11.039062 L 15.519531 14.160156 C 14.8125 14.832031 13.730469 14.910156 12.964844 14.394531 L 15.199219 12.160156 C 15.359375 12 15.359375 11.761719 15.199219 11.601562 C 15.039062 11.441406 14.800781 11.441406 14.640625 11.601562 L 12.417969 13.820312 C 11.933594 13.03125 12.019531 11.980469 12.679688 11.320312 Z M 6.199219 17.800781 L 9.320312 14.679688 C 9.679688 14.28125 10.199219 14.078125 10.71875 14.078125 C 11.097656 14.078125 11.476562 14.207031 11.808594 14.429688 L 9.839844 16.398438 C 9.679688 16.558594 9.679688 16.800781 9.839844 16.960938 C 9.921875 17.039062 10 17.078125 10.121094 17.078125 C 10.238281 17.078125 10.359375 17.039062 10.398438 16.960938 L 12.386719 14.972656 C 12.636719 15.300781 12.761719 15.710938 12.761719 16.121094 C 12.761719 16.640625 12.519531 17.160156 12.160156 17.519531 L 9.039062 20.640625 C 8.238281 21.398438 6.960938 21.441406 6.199219 20.640625 C 5.441406 19.839844 5.441406 18.558594 6.199219 17.800781 Z M 6.199219 17.800781"/>
</svg>
