<svg xmlns="http://www.w3.org/2000/svg" width="32" height="32" viewBox="0 0 24 24">
    <path d="M21.441 16.52c-.203-.16-.441-.122-.562.082L18.64 19.8l-1.563-1.281c-.156-.16-.437-.122-.558.039-.16.16-.122.441.039.562l1.921 1.559c.04.039.16.082.239.082 0 0 .043 0 .043.039.117 0 .199-.082.277-.16l2.48-3.563c.16-.2.122-.437-.078-.558zm0 0M2.8 1.2c-.878 0-1.6.722-1.6 1.6 0 .88.722 1.598 1.6 1.598.88 0 1.598-.718 1.598-1.597 0-.88-.718-1.602-1.597-1.602zm0 2.402A.804.804 0 0 1 2 2.8C2 2.359 2.36 2 2.8 2c.438 0 .802.36.802.8 0 .438-.364.802-.801.802zm0 0M6.398 1.2c-.878 0-1.597.722-1.597 1.6 0 .88.719 1.598 1.597 1.598C7.281 4.398 8 3.68 8 2.801c0-.88-.719-1.602-1.602-1.602zm0 2.402a.801.801 0 0 1 0-1.602c.442 0 .801.36.801.8 0 .438-.36.802-.8.802zm0 0M10 1.2c-.879 0-1.602.722-1.602 1.6 0 .88.723 1.598 1.602 1.598.879 0 1.602-.718 1.602-1.597 0-.88-.723-1.602-1.602-1.602zm0 2.402a.804.804 0 0 1-.8-.801.802.802 0 0 1 1.6 0c0 .437-.359.8-.8.8zm0 0"/>
    <path d="M22.879 0H1.16C.52 0 0 .52 0 1.16v21.48C0 23.399.602 24 1.36 24H18.8a5.19 5.19 0 0 0 5.2-5.2V1.16C24 .52 23.48 0 22.879 0zM18.8 23.2a4.389 4.389 0 0 1-4.403-4.4 4.39 4.39 0 0 1 4.403-4.402 4.389 4.389 0 0 1 4.398 4.403 4.388 4.388 0 0 1-4.398 4.398zm4.398-7.18a5.186 5.186 0 0 0-4.043-2.407c-.011 0-.023-.004-.035-.004-.039 0-.082-.004-.121-.004-.016 0-.027-.003-.043-.003h-.156a5.183 5.183 0 0 0-1.91.359l-.118.047a4.94 4.94 0 0 0-.671.344 5.087 5.087 0 0 0-1.152.95c-.141.151-.274.315-.391.483a4.733 4.733 0 0 0-.5.871 5.16 5.16 0 0 0-.457 2.145v.187A5.186 5.186 0 0 0 16.02 23.2H1.36a.544.544 0 0 1-.56-.558V5.6h22.4zM.801 4.8V1.16C.8.96.96.8 1.16.8H22.84c.2 0 .36.16.36.36V4.8zm0 0"/>
    <path d="M2.398 8.398h5.204C7.84 8.398 8 8.238 8 8c0-.238-.16-.398-.398-.398H2.398C2.16 7.602 2 7.762 2 8c0 .238.16.398.398.398zm0 0M9.2 8.398h4c.241 0 .402-.16.402-.398 0-.238-.16-.398-.403-.398h-4c-.238 0-.398.16-.398.398 0 .238.16.398.398.398zm0 0M14.8 8.398h.802c.238 0 .398-.16.398-.398 0-.238-.16-.398-.398-.398H14.8c-.242 0-.403.16-.403.398 0 .238.16.398.403.398zm0 0M11.2 9.602c0 .238.16.398.402.398h6c.238 0 .398-.16.398-.398 0-.243-.16-.403-.398-.403h-6c-.243 0-.403.16-.403.403zm0 0M10.398 9.602c0-.243-.16-.403-.398-.403H4.398C4.16 9.2 4 9.36 4 9.602c0 .238.16.398.398.398H10c.238 0 .398-.16.398-.398zm0 0M2.398 10h.403c.238 0 .398-.16.398-.398 0-.243-.16-.403-.398-.403h-.403C2.16 9.2 2 9.36 2 9.602c0 .238.16.398.398.398zm0 0M2.398 11.602H6c.238 0 .398-.16.398-.403 0-.238-.16-.398-.398-.398H2.398c-.238 0-.398.16-.398.398 0 .242.16.403.398.403zm0 0M7.602 11.602h.796c.243 0 .403-.16.403-.403 0-.238-.16-.398-.403-.398h-.796c-.243 0-.403.16-.403.398 0 .242.16.403.403.403zm0 0M15.602 10.8H10c-.238 0-.398.16-.398.4 0 .241.16.402.398.402h5.602c.238 0 .398-.16.398-.403 0-.238-.16-.398-.398-.398zm0 0M2.398 13.2h5.204c.238 0 .398-.16.398-.4 0-.241-.16-.402-.398-.402H2.398c-.238 0-.398.16-.398.403 0 .238.16.398.398.398zm0 0M13.2 12.398h-4c-.24 0-.4.16-.4.403 0 .238.16.398.4.398h4c.241 0 .402-.16.402-.398 0-.242-.16-.403-.403-.403zm0 0M13.2 14h-1.598c-.243 0-.403.16-.403.398 0 .243.16.403.403.403h1.597c.242 0 .403-.16.403-.403 0-.238-.16-.398-.403-.398zm0 0M4 14.398c0 .243.16.403.398.403H10c.238 0 .398-.16.398-.403 0-.238-.16-.398-.398-.398H4.398c-.238 0-.398.16-.398.398zm0 0M2.398 14.8h.403c.238 0 .398-.16.398-.402 0-.238-.16-.398-.398-.398h-.403c-.238 0-.398.16-.398.398 0 .243.16.403.398.403zm0 0M2.398 16.398H6c.238 0 .398-.16.398-.398 0-.238-.16-.398-.398-.398H2.398c-.238 0-.398.16-.398.398 0 .238.16.398.398.398zm0 0M7.602 16.398h.796c.243 0 .403-.16.403-.398 0-.238-.16-.398-.403-.398h-.796c-.243 0-.403.16-.403.398 0 .238.16.398.403.398zm0 0M12.8 15.602H10c-.238 0-.398.16-.398.398 0 .238.16.398.398.398h2.8c.24 0 .4-.16.4-.398 0-.238-.16-.398-.4-.398zm0 0M2.398 18h5.204c.238 0 .398-.16.398-.398 0-.243-.16-.403-.398-.403H2.398c-.238 0-.398.16-.398.403 0 .238.16.398.398.398zm0 0M9.2 18h2c.241 0 .402-.16.402-.398 0-.243-.16-.403-.403-.403h-2c-.238 0-.398.16-.398.403 0 .238.16.398.398.398zm0 0M4 19.2c0 .241.16.402.398.402H10c.238 0 .398-.16.398-.403 0-.238-.16-.398-.398-.398H4.398c-.238 0-.398.16-.398.398zm0 0M2.398 19.602h.403c.238 0 .398-.16.398-.403 0-.238-.16-.398-.398-.398h-.403c-.238 0-.398.16-.398.398 0 .242.16.403.398.403zm0 0M2.398 21.2H6c.238 0 .398-.16.398-.4 0-.241-.16-.402-.398-.402H2.398c-.238 0-.398.16-.398.403 0 .238.16.398.398.398zm0 0M8.398 20.398h-.796c-.243 0-.403.16-.403.403 0 .238.16.398.403.398h.796c.243 0 .403-.16.403-.398 0-.242-.16-.403-.403-.403zm0 0M12 20.398h-2c-.238 0-.398.16-.398.403 0 .238.16.398.398.398h2c.238 0 .398-.16.398-.398 0-.242-.16-.403-.398-.403zm0 0"/>
</svg>
