<svg xmlns="http://www.w3.org/2000/svg" width="32" height="32" viewBox="0 0 24 24">
    <path d="M2.800781 1.199219C1.921875 1.199219 1.199219 1.921875 1.199219 2.800781 1.199219 3.679688 1.921875 4.398438 2.800781 4.398438 3.679688 4.398438 4.398438 3.679688 4.398438 2.800781 4.398438 1.921875 3.679688 1.199219 2.800781 1.199219zM2.800781 3.601562C2.359375 3.601562 2 3.238281 2 2.800781 2 2.359375 2.359375 2 2.800781 2 3.238281 2 3.601562 2.359375 3.601562 2.800781 3.601562 3.238281 3.238281 3.601562 2.800781 3.601562zM6.398438 1.199219C5.519531 1.199219 4.800781 1.921875 4.800781 2.800781 4.800781 3.679688 5.519531 4.398438 6.398438 4.398438 7.28125 4.398438 8 3.679688 8 2.800781 8 1.921875 7.28125 1.199219 6.398438 1.199219zM6.398438 3.601562C5.960938 3.601562 5.601562 3.238281 5.601562 2.800781 5.601562 2.359375 5.960938 2 6.398438 2 6.839844 2 7.199219 2.359375 7.199219 2.800781 7.199219 3.238281 6.839844 3.601562 6.398438 3.601562zM10 1.199219C9.121094 1.199219 8.398438 1.921875 8.398438 2.800781 8.398438 3.679688 9.121094 4.398438 10 4.398438 10.878906 4.398438 11.601562 3.679688 11.601562 2.800781 11.601562 1.921875 10.878906 1.199219 10 1.199219zM10 3.601562C9.558594 3.601562 9.199219 3.238281 9.199219 2.800781 9.199219 2.359375 9.558594 2 10 2 10.441406 2 10.800781 2.359375 10.800781 2.800781 10.800781 3.238281 10.441406 3.601562 10 3.601562zM10 3.601562"/>
    <path d="M 22.878906 0 L 1.160156 0 C 0.519531 0 0 0.519531 0 1.160156 L 0 16.71875 C 0 17.441406 0.558594 18 1.28125 18 L 5.613281 18 C 5.820312 21.335938 8.613281 24 12 24 C 15.386719 24 18.179688 21.335938 18.386719 18 L 22.71875 18 C 23.441406 18 24 17.441406 24 16.71875 L 24 1.160156 C 24 0.519531 23.480469 0 22.878906 0 Z M 6.414062 18 L 8.445312 18 C 8.472656 18.675781 8.59375 19.34375 8.808594 20 L 6.945312 20 C 6.648438 19.386719 6.464844 18.710938 6.414062 18 Z M 11.601562 14.398438 L 10.003906 14.398438 C 10.394531 13.617188 10.929688 12.867188 11.601562 12.164062 Z M 11.601562 15.199219 L 11.601562 17.199219 L 9.25 17.199219 C 9.285156 16.519531 9.425781 15.851562 9.660156 15.199219 Z M 12.398438 15.199219 L 14.363281 15.199219 C 14.605469 15.851562 14.746094 16.519531 14.789062 17.199219 L 12.398438 17.199219 Z M 12.398438 14.398438 L 12.398438 12.164062 C 13.078125 12.867188 13.621094 13.617188 14.015625 14.398438 Z M 13.503906 12.207031 C 14.765625 12.5625 15.851562 13.351562 16.589844 14.398438 L 14.894531 14.398438 C 14.550781 13.636719 14.085938 12.902344 13.503906 12.207031 Z M 9.128906 14.398438 L 7.410156 14.398438 C 8.148438 13.347656 9.238281 12.558594 10.503906 12.203125 C 9.925781 12.902344 9.464844 13.636719 9.128906 14.398438 Z M 6.945312 15.199219 L 8.820312 15.199219 C 8.609375 15.851562 8.484375 16.519531 8.449219 17.199219 L 6.414062 17.199219 C 6.464844 16.488281 6.648438 15.8125 6.945312 15.199219 Z M 9.253906 18 L 11.601562 18 L 11.601562 20 L 9.683594 20 C 9.441406 19.347656 9.296875 18.675781 9.253906 18 Z M 11.601562 20.800781 L 11.601562 22.996094 C 10.945312 22.308594 10.421875 21.570312 10.035156 20.800781 Z M 12.398438 20.800781 L 14.019531 20.800781 C 13.621094 21.589844 13.082031 22.351562 12.398438 23.070312 Z M 12.398438 20 L 12.398438 18 L 14.789062 18 C 14.746094 18.679688 14.605469 19.347656 14.367188 20 Z M 15.589844 18 L 17.585938 18 C 17.535156 18.710938 17.351562 19.386719 17.054688 20 L 15.214844 20 C 15.429688 19.34375 15.558594 18.671875 15.589844 18 Z M 15.585938 17.199219 C 15.546875 16.519531 15.417969 15.851562 15.207031 15.199219 L 17.054688 15.199219 C 17.351562 15.8125 17.535156 16.488281 17.585938 17.199219 Z M 7.410156 20.800781 L 9.121094 20.800781 C 9.460938 21.5625 9.925781 22.296875 10.503906 22.996094 C 9.238281 22.640625 8.148438 21.851562 7.410156 20.800781 Z M 13.546875 22.980469 C 14.117188 22.289062 14.570312 21.554688 14.90625 20.800781 L 16.589844 20.800781 C 15.859375 21.839844 14.789062 22.621094 13.546875 22.980469 Z M 23.199219 16.71875 C 23.199219 17 23 17.199219 22.71875 17.199219 L 18.398438 17.199219 C 18.203125 13.898438 15.496094 11.292969 12.179688 11.203125 C 12.175781 11.203125 12.167969 11.203125 12.164062 11.203125 C 12.109375 11.199219 12.054688 11.199219 12 11.199219 C 11.945312 11.199219 11.890625 11.199219 11.835938 11.203125 C 11.832031 11.203125 11.824219 11.203125 11.820312 11.203125 C 8.5 11.292969 5.796875 13.898438 5.601562 17.199219 L 1.28125 17.199219 C 1 17.199219 0.800781 17 0.800781 16.71875 L 0.800781 5.601562 L 23.199219 5.601562 Z M 0.800781 4.800781 L 0.800781 1.160156 C 0.800781 0.960938 0.960938 0.800781 1.160156 0.800781 L 22.839844 0.800781 C 23.039062 0.800781 23.199219 0.960938 23.199219 1.160156 L 23.199219 4.800781 Z M 0.800781 4.800781"/>
</svg>
