<svg xmlns="http://www.w3.org/2000/svg" width="32" height="32" viewBox="0 0 24 24">
    <path d="M2.8 1.2c-.878 0-1.6.722-1.6 1.6 0 .88.722 1.598 1.6 1.598.88 0 1.598-.718 1.598-1.597 0-.88-.718-1.602-1.597-1.602zm0 2.402A.804.804 0 0 1 2 2.8C2 2.359 2.36 2 2.8 2c.438 0 .802.36.802.8 0 .438-.364.802-.801.802zm0 0M6.398 1.2c-.878 0-1.597.722-1.597 1.6 0 .88.719 1.598 1.597 1.598C7.281 4.398 8 3.68 8 2.801c0-.88-.719-1.602-1.602-1.602zm0 2.402a.801.801 0 0 1 0-1.602c.442 0 .801.36.801.8 0 .438-.36.802-.8.802zm0 0M10 1.2c-.879 0-1.602.722-1.602 1.6 0 .88.723 1.598 1.602 1.598.879 0 1.602-.718 1.602-1.597 0-.88-.723-1.602-1.602-1.602zm0 2.402a.804.804 0 0 1-.8-.801.802.802 0 0 1 1.6 0c0 .437-.359.8-.8.8zm0 0"/>
    <path d="M22.879 0H1.16C.52 0 0 .52 0 1.16V22.72C0 23.44.559 24 1.281 24H22.72C23.44 24 24 23.441 24 22.719V1.16C24 .52 23.48 0 22.879 0zm.32 22.719c0 .281-.199.48-.48.48H1.28c-.281 0-.48-.199-.48-.48V5.602h22.398zM.801 4.8V1.16C.8.96.96.8 1.16.8H22.84c.2 0 .36.16.36.36V4.8zm0 0"/>
    <path d="M7.2 16.8h-2v-2.402h6.402v2.403h-2v4.8h4.796v-4.8h-2v-2.403h6.403v2.403h-2v4.8h4.8v-4.8h-2v-3.2h-7.203v-1.203h2V7.602H9.602v4.796h2v1.204H4.398V16.8h-2v4.8H7.2zm6.402 4h-3.204v-3.198h3.204zm7.199 0h-3.2v-3.198h3.2zm-10.403-9.198V8.398h3.204v3.204zm-4 9.199H3.2v-3.2h3.2zm0 0M4.8 8h2c.24 0 .4-.16.4-.398 0-.243-.16-.403-.4-.403h-2c-.241 0-.402.16-.402.403 0 .238.16.398.403.398zm0 0M2.8 8h.4c.241 0 .402-.16.402-.398 0-.243-.16-.403-.403-.403h-.398c-.242 0-.403.16-.403.403 0 .238.16.398.403.398zm0 0M2.8 9.602h1.598c.243 0 .403-.16.403-.403 0-.238-.16-.398-.403-.398H2.801c-.242 0-.403.16-.403.398 0 .242.16.403.403.403zm0 0M6.8 8.8H6c-.238 0-.398.16-.398.4 0 .241.16.402.398.402h.8c.24 0 .4-.16.4-.403 0-.238-.16-.398-.4-.398zm0 0M17.2 8h4c.241 0 .402-.16.402-.398 0-.243-.16-.403-.403-.403h-4c-.238 0-.398.16-.398.403 0 .238.16.398.398.398zm0 0M21.2 8.8h-1.598c-.243 0-.403.16-.403.4 0 .241.16.402.403.402h1.597c.242 0 .403-.16.403-.403 0-.238-.16-.398-.403-.398zm0 0M17.2 9.602h.8c.238 0 .398-.16.398-.403 0-.238-.16-.398-.398-.398h-.8c-.24 0-.4.16-.4.398 0 .242.16.403.4.403zm0 0"/>
</svg>
