<svg xmlns="http://www.w3.org/2000/svg" width="32" height="32" viewBox="0 0 24 24">
    <path d="M7.199219 20.800781L6 20.800781C5.761719 20.800781 5.601562 20.960938 5.601562 21.199219 5.601562 21.441406 5.761719 21.601562 6 21.601562L7.199219 21.601562C7.441406 21.601562 7.601562 21.441406 7.601562 21.199219 7.601562 20.960938 7.441406 20.800781 7.199219 20.800781zM1.601562 20.800781L.398438 20.800781C.160156 20.800781 0 20.960938 0 21.199219 0 21.441406.160156 21.601562.398438 21.601562L1.601562 21.601562C1.839844 21.601562 2 21.441406 2 21.199219 2 20.960938 1.839844 20.800781 1.601562 20.800781zM4.398438 20.800781L2.800781 20.800781C2.558594 20.800781 2.398438 20.960938 2.398438 21.199219 2.398438 21.441406 2.558594 21.601562 2.800781 21.601562L4.398438 21.601562C4.640625 21.601562 4.800781 21.441406 4.800781 21.199219 4.800781 20.960938 4.640625 20.800781 4.398438 20.800781zM23.601562 20.800781L22 20.800781C21.761719 20.800781 21.601562 20.960938 21.601562 21.199219 21.601562 21.441406 21.761719 21.601562 22 21.601562L23.601562 21.601562C23.839844 21.601562 24 21.441406 24 21.199219 24 20.960938 23.839844 20.800781 23.601562 20.800781zM14.800781 20.800781L13.960938 20.800781C13.804688 20.007812 13.195312 19.394531 12.398438 19.238281L12.398438 18C12.398438 17.761719 12.238281 17.601562 12 17.601562 11.761719 17.601562 11.601562 17.761719 11.601562 18L11.601562 19.238281C10.804688 19.394531 10.195312 20.007812 10.039062 20.800781L8.800781 20.800781C8.558594 20.800781 8.398438 20.960938 8.398438 21.199219 8.398438 21.441406 8.558594 21.601562 8.800781 21.601562L10.039062 21.601562C10.21875 22.523438 11.015625 23.199219 12 23.199219 12.984375 23.199219 13.78125 22.523438 13.960938 21.601562L14.800781 21.601562C15.039062 21.601562 15.199219 21.441406 15.199219 21.199219 15.199219 20.960938 15.039062 20.800781 14.800781 20.800781zM12 22.398438C11.320312 22.398438 10.800781 21.878906 10.800781 21.199219 10.800781 20.519531 11.320312 20 12 20 12.679688 20 13.199219 20.519531 13.199219 21.199219 13.199219 21.878906 12.679688 22.398438 12 22.398438zM17.601562 20.800781L16 20.800781C15.761719 20.800781 15.601562 20.960938 15.601562 21.199219 15.601562 21.441406 15.761719 21.601562 16 21.601562L17.601562 21.601562C17.839844 21.601562 18 21.441406 18 21.199219 18 20.960938 17.839844 20.800781 17.601562 20.800781zM20.398438 20.800781L19.199219 20.800781C18.960938 20.800781 18.800781 20.960938 18.800781 21.199219 18.800781 21.441406 18.960938 21.601562 19.199219 21.601562L20.398438 21.601562C20.640625 21.601562 20.800781 21.441406 20.800781 21.199219 20.800781 20.960938 20.640625 20.800781 20.398438 20.800781zM12 14.800781C11.761719 14.800781 11.601562 14.960938 11.601562 15.199219L11.601562 16.398438C11.601562 16.640625 11.761719 16.800781 12 16.800781 12.238281 16.800781 12.398438 16.640625 12.398438 16.398438L12.398438 15.199219C12.398438 14.960938 12.238281 14.800781 12 14.800781zM12.398438 12.761719C13.324219 12.582031 14 11.78125 14 10.800781 14 9.679688 13.121094 8.800781 12 8.800781 10.878906 8.800781 10 9.679688 10 10.800781 10 11.78125 10.675781 12.582031 11.601562 12.761719L11.601562 13.601562C11.601562 13.839844 11.761719 14 12 14 12.238281 14 12.398438 13.839844 12.398438 13.601562zM10.800781 10.800781C10.800781 10.121094 11.320312 9.601562 12 9.601562 12.679688 9.601562 13.199219 10.121094 13.199219 10.800781 13.199219 11.480469 12.679688 12 12 12 11.320312 12 10.800781 11.480469 10.800781 10.800781zM10.800781 10.800781"/>
    <path d="M 10.398438 16.398438 C 10.398438 16.160156 10.238281 16 10 16 L 5.121094 16 C 2.761719 16 0.800781 14.039062 0.800781 11.679688 C 0.800781 10 1.878906 8.28125 3.359375 7.601562 L 3.601562 7.480469 L 3.601562 7.238281 C 3.601562 7.199219 3.601562 7.121094 3.601562 7.078125 L 3.601562 6.921875 C 3.601562 6.878906 3.601562 6.839844 3.601562 6.800781 C 3.601562 5.238281 4.839844 4 6.398438 4 C 6.445312 4 6.488281 4 6.53125 4.003906 C 6.542969 4.003906 6.554688 4.003906 6.566406 4.003906 C 6.601562 4.007812 6.632812 4.007812 6.667969 4.011719 C 6.675781 4.015625 6.6875 4.015625 6.699219 4.015625 C 6.738281 4.019531 6.78125 4.023438 6.824219 4.03125 C 6.832031 4.03125 6.835938 4.035156 6.84375 4.035156 C 6.882812 4.039062 6.921875 4.046875 6.960938 4.054688 C 6.964844 4.054688 6.96875 4.058594 6.972656 4.058594 C 8.253906 4.320312 9.199219 5.4375 9.199219 6.800781 C 9.199219 7.039062 9.359375 7.199219 9.601562 7.199219 C 9.839844 7.199219 10 7.039062 10 6.800781 C 10 5.695312 9.511719 4.714844 8.738281 4.054688 C 9.886719 2.550781 11.761719 1.601562 13.640625 1.601562 C 16.878906 1.601562 19.558594 4.28125 19.601562 7.601562 L 19.601562 7.921875 L 19.921875 8 C 21.800781 8.359375 23.199219 10.082031 23.199219 12 C 23.199219 14.199219 21.398438 16 19.199219 16 L 14 16 C 13.761719 16 13.601562 16.160156 13.601562 16.398438 C 13.601562 16.640625 13.761719 16.800781 14 16.800781 L 19.199219 16.800781 C 21.839844 16.800781 24 14.640625 24 12 C 24 9.800781 22.480469 7.839844 20.398438 7.28125 C 20.160156 3.679688 17.199219 0.800781 13.601562 0.800781 C 11.441406 0.800781 9.367188 1.878906 8.046875 3.59375 C 7.992188 3.566406 7.9375 3.539062 7.878906 3.515625 C 7.4375 3.296875 6.933594 3.199219 6.398438 3.199219 C 5.773438 3.199219 5.1875 3.355469 4.679688 3.632812 C 4.578125 3.6875 4.476562 3.746094 4.382812 3.8125 C 4.238281 3.910156 4.101562 4.015625 3.976562 4.132812 C 3.890625 4.207031 3.808594 4.289062 3.730469 4.375 C 3.613281 4.503906 3.507812 4.636719 3.410156 4.78125 C 3.347656 4.878906 3.289062 4.976562 3.230469 5.078125 C 3.148438 5.230469 3.078125 5.390625 3.015625 5.558594 C 2.976562 5.667969 2.941406 5.78125 2.914062 5.894531 C 2.839844 6.183594 2.800781 6.488281 2.800781 6.800781 C 2.800781 6.839844 2.800781 6.921875 2.800781 6.960938 C 1.160156 7.878906 0 9.761719 0 11.679688 C 0 14.480469 2.320312 16.800781 5.121094 16.800781 L 10 16.800781 C 10.238281 16.800781 10.398438 16.640625 10.398438 16.398438 Z M 10.398438 16.398438"/>
</svg>
