<svg xmlns="http://www.w3.org/2000/svg" width="32" height="32" viewBox="0 0 24 24">
    <path d="M9.602 9.441v-3.68a.973.973 0 0 0-.961-.96H2.559a.97.97 0 0 0-.957.96v3.68c0 .52.437.957.957.957H8.64c.52 0 .96-.437.96-.957zm-7.204 0v-3.68c0-.081.082-.16.16-.16h6.083c.078 0 .16.079.16.16v3.68c0 .079-.082.16-.16.16H2.559c-.079 0-.16-.081-.16-.16zm0 0M22.398 9.441v-3.68a.97.97 0 0 0-.957-.96H15.36c-.52 0-.96.437-.96.96v3.68c0 .52.44.957.96.957h6.082c.52 0 .957-.437.957-.957zm-7.199 0v-3.68c0-.081.082-.16.16-.16h6.082c.079 0 .16.079.16.16v3.68c0 .079-.081.16-.16.16H15.36c-.078 0-.16-.081-.16-.16zm0 0"/>
    <path d="M20.281 14.398c.52 0 .918-.398.918-.918V12h1.762C23.52 12 24 11.52 24 10.96V4.239c0-.558-.48-1.039-1.04-1.039h-9.12c-.559 0-1.04.48-1.04 1.04v6.722c0 .559.481 1.039 1.04 1.039h1.762v1.48c0 .52.398.918.878.918H18v2.442a1.972 1.972 0 0 0-1.563 1.558H7.563A1.972 1.972 0 0 0 6 16.84v-2.442h1.48c.52 0 .918-.398.918-.918V12h1.762c.559 0 1.04-.48 1.04-1.04V4.239c0-.558-.481-1.039-1.04-1.039H1.04C.48 3.2 0 3.68 0 4.24v6.722C0 11.52.48 12 1.04 12H2.8v1.48c0 .52.4.918.919.918h1.48v2.442a1.962 1.962 0 0 0-1.558 1.558H.398c-.238 0-.398.16-.398.403 0 .238.16.398.398.398h3.243c.18.922.976 1.602 1.96 1.602.981 0 1.778-.68 1.962-1.602h8.875c.183.922.98 1.602 1.96 1.602.985 0 1.782-.68 1.961-1.602h3.243c.238 0 .398-.16.398-.398 0-.242-.16-.403-.398-.403h-3.243a1.962 1.962 0 0 0-1.558-1.558v-2.442zM1.04 11.2c-.117 0-.238-.12-.238-.238V4.238C.8 4.121.92 4 1.039 4h9.121c.121 0 .238.121.238.238v6.723c0 .117-.117.238-.238.238zm2.563 2.281V12H7.64v1.48c0 .079-.082.122-.121.122H3.719c-.078 0-.117-.043-.117-.122zm2 6.52a1.18 1.18 0 0 1-1.204-1.2c0-.679.524-1.198 1.204-1.198.68 0 1.199.52 1.199 1.199C6.8 19.48 6.28 20 5.6 20zm14-1.2c0 .68-.524 1.2-1.204 1.2-.68 0-1.199-.52-1.199-1.2 0-.679.52-1.198 1.2-1.198.68 0 1.203.52 1.203 1.199zm-5.762-7.6c-.121 0-.238-.122-.238-.24V4.239c0-.117.117-.238.238-.238h9.12c.118 0 .24.121.24.238v6.723c0 .117-.122.238-.24.238zm2.558 2.28V12h4.043v1.48c0 .079-.082.122-.12.122H16.52c-.079 0-.122-.082-.122-.122zm0 0"/>
</svg>
