<svg xmlns="http://www.w3.org/2000/svg" width="32" height="32" viewBox="0 0 24 24">
    <path d="M13.582031 2.003906C13.824219 2.003906 13.984375 1.84375 13.984375 1.601562 13.984375 1.363281 13.824219 1.203125 13.582031 1.203125 13.34375 1.203125 13.183594 1.363281 13.183594 1.601562 13.183594 1.84375 13.34375 2.003906 13.582031 2.003906zM13.582031 4.40625C13.824219 4.40625 13.984375 4.246094 13.984375 4.007812 13.984375 3.765625 13.824219 3.605469 13.582031 3.605469 13.34375 3.605469 13.183594 3.765625 13.183594 4.007812 13.183594 4.246094 13.34375 4.40625 13.582031 4.40625zM15.988281 3.605469C15.746094 3.605469 15.585938 3.765625 15.585938 4.007812 15.585938 4.246094 15.746094 4.40625 15.988281 4.40625 16.226562 4.40625 16.386719 4.246094 16.386719 4.007812 16.386719 3.765625 16.226562 3.605469 15.988281 3.605469zM14.785156 2.402344C14.542969 2.402344 14.382812 2.5625 14.382812 2.804688 14.382812 3.046875 14.542969 3.207031 14.785156 3.207031 15.023438 3.207031 15.183594 3.046875 15.183594 2.804688 15.183594 2.5625 15.023438 2.402344 14.785156 2.402344zM13.582031 6.8125C13.824219 6.8125 13.984375 6.652344 13.984375 6.410156 13.984375 6.171875 13.824219 6.011719 13.582031 6.011719 13.34375 6.011719 13.183594 6.171875 13.183594 6.410156 13.183594 6.652344 13.34375 6.8125 13.582031 6.8125zM15.988281 6.011719C15.746094 6.011719 15.585938 6.171875 15.585938 6.410156 15.585938 6.652344 15.746094 6.8125 15.988281 6.8125 16.226562 6.8125 16.386719 6.652344 16.386719 6.410156 16.386719 6.171875 16.226562 6.011719 15.988281 6.011719zM14.785156 4.808594C14.542969 4.808594 14.382812 4.96875 14.382812 5.207031 14.382812 5.449219 14.542969 5.609375 14.785156 5.609375 15.023438 5.609375 15.183594 5.449219 15.183594 5.207031 15.183594 4.96875 15.023438 4.808594 14.785156 4.808594zM18.390625 3.605469C18.148438 3.605469 17.988281 3.765625 17.988281 4.007812 17.988281 4.246094 18.148438 4.40625 18.390625 4.40625 18.632812 4.40625 18.792969 4.246094 18.792969 4.007812 18.792969 3.765625 18.632812 3.605469 18.390625 3.605469zM18.390625 6.011719C18.148438 6.011719 17.988281 6.171875 17.988281 6.410156 17.988281 6.652344 18.148438 6.8125 18.390625 6.8125 18.632812 6.8125 18.792969 6.652344 18.792969 6.410156 18.792969 6.171875 18.632812 6.011719 18.390625 6.011719zM17.1875 4.808594C16.949219 4.808594 16.789062 4.96875 16.789062 5.207031 16.789062 5.449219 16.949219 5.609375 17.1875 5.609375 17.429688 5.609375 17.589844 5.449219 17.589844 5.207031 17.589844 4.96875 17.429688 4.808594 17.1875 4.808594zM17.1875 7.210938C16.949219 7.210938 16.789062 7.371094 16.789062 7.613281 16.789062 7.851562 16.949219 8.011719 17.1875 8.011719 17.429688 8.011719 17.589844 7.851562 17.589844 7.613281 17.589844 7.371094 17.429688 7.210938 17.1875 7.210938zM17.1875 9.617188C16.949219 9.617188 16.789062 9.777344 16.789062 10.015625 16.789062 10.257812 16.949219 10.417969 17.1875 10.417969 17.429688 10.417969 17.589844 10.257812 17.589844 10.015625 17.589844 9.777344 17.429688 9.617188 17.1875 9.617188zM15.988281 8.414062C15.746094 8.414062 15.585938 8.574219 15.585938 8.816406 15.585938 9.054688 15.746094 9.214844 15.988281 9.214844 16.226562 9.214844 16.386719 9.054688 16.386719 8.816406 16.386719 8.574219 16.226562 8.414062 15.988281 8.414062zM14.785156 7.210938C14.542969 7.210938 14.382812 7.371094 14.382812 7.613281 14.382812 7.851562 14.542969 8.011719 14.785156 8.011719 15.023438 8.011719 15.183594 7.851562 15.183594 7.613281 15.183594 7.371094 15.023438 7.210938 14.785156 7.210938zM13.582031 9.214844C13.824219 9.214844 13.984375 9.054688 13.984375 8.816406 13.984375 8.574219 13.824219 8.414062 13.582031 8.414062 13.34375 8.414062 13.183594 8.574219 13.183594 8.816406 13.183594 9.054688 13.34375 9.214844 13.582031 9.214844zM19.59375 7.210938C19.351562 7.210938 19.191406 7.371094 19.191406 7.613281 19.191406 7.851562 19.351562 8.011719 19.59375 8.011719 19.832031 8.011719 19.992188 7.851562 19.992188 7.613281 19.992188 7.371094 19.832031 7.210938 19.59375 7.210938zM19.59375 9.617188C19.351562 9.617188 19.191406 9.777344 19.191406 10.015625 19.191406 10.257812 19.351562 10.417969 19.59375 10.417969 19.832031 10.417969 19.992188 10.257812 19.992188 10.015625 19.992188 9.777344 19.832031 9.617188 19.59375 9.617188zM18.390625 8.414062C18.148438 8.414062 17.988281 8.574219 17.988281 8.816406 17.988281 9.054688 18.148438 9.214844 18.390625 9.214844 18.632812 9.214844 18.792969 9.054688 18.792969 8.816406 18.792969 8.574219 18.632812 8.414062 18.390625 8.414062zM20.792969 9.214844C21.035156 9.214844 21.195312 9.054688 21.195312 8.816406 21.195312 8.574219 21.035156 8.414062 20.792969 8.414062 20.554688 8.414062 20.394531 8.574219 20.394531 8.816406 20.394531 9.054688 20.554688 9.214844 20.792969 9.214844zM19.59375 4.808594C19.351562 4.808594 19.191406 4.96875 19.191406 5.207031 19.191406 5.449219 19.351562 5.609375 19.59375 5.609375 19.832031 5.609375 19.992188 5.449219 19.992188 5.207031 19.992188 4.96875 19.832031 4.808594 19.59375 4.808594zM20.792969 6.8125C21.035156 6.8125 21.195312 6.652344 21.195312 6.410156 21.195312 6.171875 21.035156 6.011719 20.792969 6.011719 20.554688 6.011719 20.394531 6.171875 20.394531 6.410156 20.394531 6.652344 20.554688 6.8125 20.792969 6.8125zM18.390625 10.816406C18.148438 10.816406 17.988281 10.976562 17.988281 11.21875 17.988281 11.460938 18.148438 11.621094 18.390625 11.621094 18.632812 11.621094 18.792969 11.460938 18.792969 11.21875 18.792969 10.976562 18.632812 10.816406 18.390625 10.816406zM17.1875 12.019531C16.949219 12.019531 16.789062 12.179688 16.789062 12.421875 16.789062 12.660156 16.949219 12.820312 17.1875 12.820312 17.429688 12.820312 17.589844 12.660156 17.589844 12.421875 17.589844 12.179688 17.429688 12.019531 17.1875 12.019531zM17.1875 14.425781C16.949219 14.425781 16.789062 14.585938 16.789062 14.824219 16.789062 15.066406 16.949219 15.226562 17.1875 15.226562 17.429688 15.226562 17.589844 15.066406 17.589844 14.824219 17.589844 14.585938 17.429688 14.425781 17.1875 14.425781zM14.785156 14.425781C14.542969 14.425781 14.382812 14.585938 14.382812 14.824219 14.382812 15.066406 14.542969 15.226562 14.785156 15.226562 15.023438 15.226562 15.183594 15.066406 15.183594 14.824219 15.183594 14.585938 15.023438 14.425781 14.785156 14.425781zM19.59375 12.019531C19.351562 12.019531 19.191406 12.179688 19.191406 12.421875 19.191406 12.660156 19.351562 12.820312 19.59375 12.820312 19.832031 12.820312 19.992188 12.660156 19.992188 12.421875 19.992188 12.179688 19.832031 12.019531 19.59375 12.019531zM19.59375 14.425781C19.351562 14.425781 19.191406 14.585938 19.191406 14.824219 19.191406 15.066406 19.351562 15.226562 19.59375 15.226562 19.832031 15.226562 19.992188 15.066406 19.992188 14.824219 19.992188 14.585938 19.832031 14.425781 19.59375 14.425781zM21.996094 15.226562C22.238281 15.226562 22.398438 15.066406 22.398438 14.824219 22.398438 14.585938 22.238281 14.425781 21.996094 14.425781 21.757812 14.425781 21.597656 14.585938 21.597656 14.824219 21.597656 15.066406 21.757812 15.226562 21.996094 15.226562zM21.996094 12.820312C22.238281 12.820312 22.398438 12.660156 22.398438 12.421875 22.398438 12.179688 22.238281 12.019531 21.996094 12.019531 21.757812 12.019531 21.597656 12.179688 21.597656 12.421875 21.597656 12.660156 21.757812 12.820312 21.996094 12.820312zM21.996094 10.417969C22.238281 10.417969 22.398438 10.257812 22.398438 10.015625 22.398438 9.777344 22.238281 9.617188 21.996094 9.617188 21.757812 9.617188 21.597656 9.777344 21.597656 10.015625 21.597656 10.257812 21.757812 10.417969 21.996094 10.417969zM18.390625 13.222656C18.148438 13.222656 17.988281 13.382812 17.988281 13.621094 17.988281 13.863281 18.148438 14.023438 18.390625 14.023438 18.632812 14.023438 18.792969 13.863281 18.792969 13.621094 18.792969 13.382812 18.632812 13.222656 18.390625 13.222656zM13.582031 11.621094C13.824219 11.621094 13.984375 11.460938 13.984375 11.21875 13.984375 10.976562 13.824219 10.816406 13.582031 10.816406 13.34375 10.816406 13.183594 10.976562 13.183594 11.21875 13.183594 11.460938 13.34375 11.621094 13.582031 11.621094zM14.785156 12.019531C14.542969 12.019531 14.382812 12.179688 14.382812 12.421875 14.382812 12.660156 14.542969 12.820312 14.785156 12.820312 15.023438 12.820312 15.183594 12.660156 15.183594 12.421875 15.183594 12.179688 15.023438 12.019531 14.785156 12.019531zM14.785156 9.617188C14.542969 9.617188 14.382812 9.777344 14.382812 10.015625 14.382812 10.257812 14.542969 10.417969 14.785156 10.417969 15.023438 10.417969 15.183594 10.257812 15.183594 10.015625 15.183594 9.777344 15.023438 9.617188 14.785156 9.617188zM13.582031 14.023438C13.824219 14.023438 13.984375 13.863281 13.984375 13.621094 13.984375 13.382812 13.824219 13.222656 13.582031 13.222656 13.34375 13.222656 13.183594 13.382812 13.183594 13.621094 13.183594 13.863281 13.34375 14.023438 13.582031 14.023438zM20.792969 14.023438C21.035156 14.023438 21.195312 13.863281 21.195312 13.621094 21.195312 13.382812 21.035156 13.222656 20.792969 13.222656 20.554688 13.222656 20.394531 13.382812 20.394531 13.621094 20.394531 13.863281 20.554688 14.023438 20.792969 14.023438zM20.792969 11.621094C21.035156 11.621094 21.195312 11.460938 21.195312 11.21875 21.195312 10.976562 21.035156 10.816406 20.792969 10.816406 20.554688 10.816406 20.394531 10.976562 20.394531 11.21875 20.394531 11.460938 20.554688 11.621094 20.792969 11.621094zM18.390625 15.625C18.148438 15.625 17.988281 15.785156 17.988281 16.027344 17.988281 16.265625 18.148438 16.425781 18.390625 16.425781 18.632812 16.425781 18.792969 16.265625 18.792969 16.027344 18.792969 15.785156 18.632812 15.625 18.390625 15.625zM17.1875 16.828125C16.949219 16.828125 16.789062 16.988281 16.789062 17.230469 16.789062 17.46875 16.949219 17.628906 17.1875 17.628906 17.429688 17.628906 17.589844 17.46875 17.589844 17.230469 17.589844 16.988281 17.429688 16.828125 17.1875 16.828125zM17.1875 19.230469C16.949219 19.230469 16.789062 19.390625 16.789062 19.632812 16.789062 19.875 16.949219 20.035156 17.1875 20.035156 17.429688 20.035156 17.589844 19.875 17.589844 19.632812 17.589844 19.390625 17.429688 19.230469 17.1875 19.230469zM19.59375 16.828125C19.351562 16.828125 19.191406 16.988281 19.191406 17.230469 19.191406 17.46875 19.351562 17.628906 19.59375 17.628906 19.832031 17.628906 19.992188 17.46875 19.992188 17.230469 19.992188 16.988281 19.832031 16.828125 19.59375 16.828125zM19.59375 19.230469C19.351562 19.230469 19.191406 19.390625 19.191406 19.632812 19.191406 19.875 19.351562 20.035156 19.59375 20.035156 19.832031 20.035156 19.992188 19.875 19.992188 19.632812 19.992188 19.390625 19.832031 19.230469 19.59375 19.230469zM18.390625 18.03125C18.148438 18.03125 17.988281 18.191406 17.988281 18.429688 17.988281 18.671875 18.148438 18.832031 18.390625 18.832031 18.632812 18.832031 18.792969 18.671875 18.792969 18.429688 18.792969 18.191406 18.632812 18.03125 18.390625 18.03125zM15.988281 18.03125C15.746094 18.03125 15.585938 18.191406 15.585938 18.429688 15.585938 18.671875 15.746094 18.832031 15.988281 18.832031 16.226562 18.832031 16.386719 18.671875 16.386719 18.429688 16.386719 18.191406 16.226562 18.03125 15.988281 18.03125zM15.988281 15.625C15.746094 15.625 15.585938 15.785156 15.585938 16.027344 15.585938 16.265625 15.746094 16.425781 15.988281 16.425781 16.226562 16.425781 16.386719 16.265625 16.386719 16.027344 16.386719 15.785156 16.226562 15.625 15.988281 15.625zM15.988281 13.222656C15.746094 13.222656 15.585938 13.382812 15.585938 13.621094 15.585938 13.863281 15.746094 14.023438 15.988281 14.023438 16.226562 14.023438 16.386719 13.863281 16.386719 13.621094 16.386719 13.382812 16.226562 13.222656 15.988281 13.222656zM14.785156 21.636719C14.542969 21.636719 14.382812 21.796875 14.382812 22.035156 14.382812 22.277344 14.542969 22.4375 14.785156 22.4375 15.023438 22.4375 15.183594 22.277344 15.183594 22.035156 15.183594 21.796875 15.023438 21.636719 14.785156 21.636719zM13.582031 16.425781C13.824219 16.425781 13.984375 16.265625 13.984375 16.027344 13.984375 15.785156 13.824219 15.625 13.582031 15.625 13.34375 15.625 13.183594 15.785156 13.183594 16.027344 13.183594 16.265625 13.34375 16.425781 13.582031 16.425781zM14.785156 19.230469C14.542969 19.230469 14.382812 19.390625 14.382812 19.632812 14.382812 19.875 14.542969 20.035156 14.785156 20.035156 15.023438 20.035156 15.183594 19.875 15.183594 19.632812 15.183594 19.390625 15.023438 19.230469 14.785156 19.230469zM14.785156 16.828125C14.542969 16.828125 14.382812 16.988281 14.382812 17.230469 14.382812 17.46875 14.542969 17.628906 14.785156 17.628906 15.023438 17.628906 15.183594 17.46875 15.183594 17.230469 15.183594 16.988281 15.023438 16.828125 14.785156 16.828125zM13.582031 21.234375C13.824219 21.234375 13.984375 21.074219 13.984375 20.835938 13.984375 20.59375 13.824219 20.433594 13.582031 20.433594 13.34375 20.433594 13.183594 20.59375 13.183594 20.835938 13.183594 21.074219 13.34375 21.234375 13.582031 21.234375zM13.582031 18.832031C13.824219 18.832031 13.984375 18.671875 13.984375 18.429688 13.984375 18.191406 13.824219 18.03125 13.582031 18.03125 13.34375 18.03125 13.183594 18.191406 13.183594 18.429688 13.183594 18.671875 13.34375 18.832031 13.582031 18.832031zM15.988281 20.433594C15.746094 20.433594 15.585938 20.59375 15.585938 20.835938 15.585938 21.074219 15.746094 21.234375 15.988281 21.234375 16.226562 21.234375 16.386719 21.074219 16.386719 20.835938 16.386719 20.59375 16.226562 20.433594 15.988281 20.433594zM15.988281 10.816406C15.746094 10.816406 15.585938 10.976562 15.585938 11.21875 15.585938 11.460938 15.746094 11.621094 15.988281 11.621094 16.226562 11.621094 16.386719 11.460938 16.386719 11.21875 16.386719 10.976562 16.226562 10.816406 15.988281 10.816406zM20.792969 16.425781C21.035156 16.425781 21.195312 16.265625 21.195312 16.027344 21.195312 15.785156 21.035156 15.625 20.792969 15.625 20.554688 15.625 20.394531 15.785156 20.394531 16.027344 20.394531 16.265625 20.554688 16.425781 20.792969 16.425781zM17.1875 2.402344C16.949219 2.402344 16.789062 2.5625 16.789062 2.804688 16.789062 3.046875 16.949219 3.207031 17.1875 3.207031 17.429688 3.207031 17.589844 3.046875 17.589844 2.804688 17.589844 2.5625 17.429688 2.402344 17.1875 2.402344zM17.1875 2.402344"/>
    <path d="M12.820312.0390625C12.703125.0390625 12.582031.0820312 12.5.160156 12.421875.242188 12.378906.320312 12.378906.441406L12.378906 23.597656C12.378906 23.679688 12.421875 23.800781 12.5 23.878906 12.582031 23.960938 12.660156 24 12.78125 24 19.070312 23.597656 24 18.308594 24 12.019531 24 5.730469 19.070312.441406 12.820312.0390625zM18.78125 20.929688C18.789062 20.898438 18.792969 20.867188 18.792969 20.835938 18.792969 20.59375 18.632812 20.433594 18.390625 20.433594 18.148438 20.433594 17.988281 20.59375 17.988281 20.835938 17.988281 21.066406 18.140625 21.222656 18.367188 21.234375 16.867188 22.285156 15.097656 22.980469 13.183594 23.199219L13.183594.882812C14.027344.972656 14.84375 1.15625 15.621094 1.421875 15.597656 1.476562 15.585938 1.535156 15.585938 1.601562 15.585938 1.84375 15.746094 2.003906 15.988281 2.003906 16.1875 2.003906 16.332031 1.890625 16.375 1.714844 18.898438 2.792969 20.941406 4.769531 22.113281 7.226562 22.078125 7.21875 22.039062 7.210938 21.996094 7.210938 21.757812 7.210938 21.597656 7.371094 21.597656 7.613281 21.597656 7.851562 21.757812 8.011719 21.996094 8.011719 22.171875 8.011719 22.304688 7.925781 22.363281 7.789062 22.757812 8.742188 23.019531 9.761719 23.132812 10.824219 22.929688 10.847656 22.796875 11 22.796875 11.21875 22.796875 11.457031 22.953125 11.617188 23.191406 11.617188 23.195312 11.753906 23.199219 11.886719 23.199219 12.019531 23.199219 12.425781 23.175781 12.828125 23.132812 13.226562 22.929688 13.253906 22.796875 13.40625 22.796875 13.621094 22.796875 13.796875 22.882812 13.929688 23.023438 13.988281 22.84375 14.988281 22.53125 15.945312 22.101562 16.839844 22.070312 16.832031 22.035156 16.828125 21.996094 16.828125 21.757812 16.828125 21.597656 16.988281 21.597656 17.226562 21.597656 17.363281 21.648438 17.472656 21.734375 17.542969 21.566406 17.835938 21.386719 18.121094 21.195312 18.398438 21.179688 18.175781 21.023438 18.03125 20.792969 18.03125 20.554688 18.03125 20.394531 18.191406 20.394531 18.429688 20.394531 18.671875 20.554688 18.832031 20.792969 18.832031 20.828125 18.832031 20.855469 18.828125 20.882812 18.824219 20.28125 19.613281 19.574219 20.324219 18.78125 20.929688zM11.179688 12.378906L.402344 12.378906C.320312 12.378906.199219 12.421875.121094 12.5.0390625 12.621094 0 12.703125 0 12.820312.105469 14.382812.511719 15.867188 1.164062 17.210938 1.164062 17.21875 1.160156 17.222656 1.160156 17.230469 1.160156 17.386719 1.230469 17.507812 1.347656 17.574219 3.242188 21.175781 6.914062 23.714844 11.179688 24 11.300781 24 11.378906 23.960938 11.460938 23.839844 11.539062 23.757812 11.578125 23.679688 11.578125 23.558594L11.578125 12.78125C11.578125 12.539062 11.417969 12.378906 11.179688 12.378906zM3.101562 18.835938C2.808594 18.453125 2.535156 18.050781 2.292969 17.628906L10.777344 17.628906 10.777344 18.832031 3.164062 18.832031C3.144531 18.832031 3.121094 18.832031 3.101562 18.835938zM1.375 15.625L10.777344 15.625 10.777344 16.828125 1.867188 16.828125C1.679688 16.4375 1.515625 16.039062 1.375 15.625zM10.777344 13.222656L10.777344 14.824219 1.160156 14.824219C1.152344 14.824219 1.144531 14.824219 1.136719 14.824219 1 14.304688.898438 13.769531.839844 13.222656zM3.777344 19.632812L10.777344 19.632812 10.777344 20.835938 5.167969 20.835938C5.140625 20.835938 5.117188 20.835938 5.089844 20.839844 4.621094 20.472656 4.183594 20.070312 3.777344 19.632812zM6.246094 21.636719L10.777344 21.636719 10.777344 23.160156C9.136719 22.980469 7.601562 22.449219 6.246094 21.636719zM11.136719 0C5.207031.402344.402344 5.207031 0 11.179688 0 11.296875.0390625 11.417969.121094 11.5.199219 11.578125.28125 11.621094.402344 11.621094L11.179688 11.621094C11.417969 11.621094 11.578125 11.460938 11.578125 11.21875L11.578125.402344C11.578125.28125 11.539062.199219 11.460938.121094 11.339844.0390625 11.257812 0 11.136719 0zM10.777344 10.816406L.839844 10.816406C1.402344 5.570312 5.570312 1.402344 10.777344.839844zM10.777344 10.816406"/>
</svg>
