<svg xmlns="http://www.w3.org/2000/svg" width="32" height="32" viewBox="0 0 24 24">
    <path d="M8.887 3.25a.385.385 0 0 0 0 .559c.156.16.398.16.558 0a.385.385 0 0 0 0-.559.385.385 0 0 0-.558 0zm0 0M7.207 3.25a.385.385 0 0 0 0 .559c.16.16.398.16.559 0a.385.385 0 0 0 0-.559.385.385 0 0 0-.559 0zm0 0M10.605 4.93a.385.385 0 0 0 0 .558c.157.16.399.16.56 0a.385.385 0 0 0 0-.558.385.385 0 0 0-.56 0zm0 0M8.887 4.93a.385.385 0 0 0 0 .558c.156.16.398.16.558 0a.385.385 0 0 0 0-.558.385.385 0 0 0-.558 0zm0 0M10.605 1.531a.385.385 0 0 0 0 .559c.157.16.399.16.56 0a.385.385 0 0 0 0-.559.385.385 0 0 0-.56 0zm0 0M12.281 3.25a.385.385 0 0 0 0 .559c.16.16.403.16.563 0a.391.391 0 0 0 0-.559.39.39 0 0 0-.563 0zm0 0M10.605 3.25a.385.385 0 0 0 0 .559c.157.16.399.16.56 0a.385.385 0 0 0 0-.559.385.385 0 0 0-.56 0zm0 0M12.281 4.93a.385.385 0 0 0 0 .558c.16.16.403.16.563 0a.391.391 0 0 0 0-.558.39.39 0 0 0-.563 0zm0 0M14 6.648a.385.385 0 0 0 0 .559c.16.16.402.16.563 0a.391.391 0 0 0 0-.559c-.16-.16-.442-.16-.563 0zm0 0M12.281 6.648a.385.385 0 0 0 0 .559c.16.16.403.16.563 0a.391.391 0 0 0 0-.559.39.39 0 0 0-.563 0zm0 0M10.605 6.648a.385.385 0 0 0 0 .559c.157.16.399.16.56 0a.385.385 0 0 0 0-.559.385.385 0 0 0-.56 0zm0 0M14 3.25a.385.385 0 0 0 0 .559c.16.16.402.16.563 0a.391.391 0 0 0 0-.559c-.16-.16-.442-.16-.563 0zm0 0M15.68 4.93a.385.385 0 0 0 0 .558c.16.16.398.16.558 0a.385.385 0 0 0 0-.558.385.385 0 0 0-.558 0zm0 0M14 4.93a.385.385 0 0 0 0 .558c.16.16.402.16.563 0a.391.391 0 0 0 0-.558c-.16-.16-.442-.16-.563 0zm0 0M15.68 3.25a.385.385 0 0 0 0 .559c.16.16.398.16.558 0a.385.385 0 0 0 0-.559.385.385 0 0 0-.558 0zm0 0M12.281 1.531a.385.385 0 0 0 0 .559c.16.16.403.16.563 0a.391.391 0 0 0 0-.559.39.39 0 0 0-.563 0zm0 0M14 1.531a.385.385 0 0 0 0 .559c.16.16.402.16.563 0a.391.391 0 0 0 0-.559c-.16-.16-.442-.16-.563 0zm0 0M15.68 6.648a.385.385 0 0 0 0 .559c.16.16.398.16.558 0a.385.385 0 0 0 0-.559.385.385 0 0 0-.558 0zm0 0M15.68 8.324a.39.39 0 0 0 0 .563c.16.16.398.16.558 0a.39.39 0 0 0 0-.563.391.391 0 0 0-.558 0zm0 0M17.36 10.043a.39.39 0 0 0 0 .562c.16.16.398.16.558 0a.39.39 0 0 0 0-.562c-.121-.156-.398-.156-.559 0zm0 0M15.68 11.723a.385.385 0 0 0 0 .558c.16.16.398.16.558 0a.385.385 0 0 0 0-.558.385.385 0 0 0-.558 0zm0 0M17.36 6.648a.385.385 0 0 0 0 .559c.16.16.398.16.558 0a.385.385 0 0 0 0-.559c-.121-.16-.398-.16-.559 0zm0 0M19.078 8.324a.39.39 0 0 0 0 .563c.16.16.399.16.559 0a.39.39 0 0 0 0-.563.391.391 0 0 0-.559 0zm0 0M20.758 6.648a.385.385 0 0 0 0 .559c.156.16.398.16.558 0a.385.385 0 0 0 0-.559.385.385 0 0 0-.558 0zm0 0M19.078 4.93a.385.385 0 0 0 0 .558c.16.16.399.16.559 0a.385.385 0 0 0 0-.558.385.385 0 0 0-.559 0zm0 0M17.36 3.25a.385.385 0 0 0 0 .559c.16.16.398.16.558 0a.385.385 0 0 0 0-.559c-.121-.16-.398-.16-.559 0zm0 0M17.36 8.324a.39.39 0 0 0 0 .563c.16.16.398.16.558 0a.39.39 0 0 0 0-.563c-.121-.156-.398-.156-.559 0zm0 0M14 10.043a.39.39 0 0 0 0 .562c.16.16.402.16.563 0a.396.396 0 0 0 0-.562c-.16-.156-.442-.156-.563 0zm0 0M12.281 8.324a.39.39 0 0 0 0 .563c.16.16.403.16.563 0a.396.396 0 0 0 0-.563.396.396 0 0 0-.563 0zm0 0M19.078 6.648a.385.385 0 0 0 0 .559c.16.16.399.16.559 0a.385.385 0 0 0 0-.559.385.385 0 0 0-.559 0zm0 0M17.36 4.93a.385.385 0 0 0 0 .558c.16.16.398.16.558 0a.385.385 0 0 0 0-.558c-.121-.16-.398-.16-.559 0zm0 0M19.078 10.043a.39.39 0 0 0 0 .562c.16.16.399.16.559 0a.39.39 0 0 0 0-.562.388.388 0 0 0-.559 0zm0 0M19.078 11.723a.385.385 0 0 0 0 .558c.16.16.399.16.559 0a.385.385 0 0 0 0-.558.385.385 0 0 0-.559 0zm0 0M20.758 13.402a.385.385 0 0 0 0 .559c.156.16.398.16.558 0a.385.385 0 0 0 0-.559.385.385 0 0 0-.558 0zm0 0M20.758 10.043a.39.39 0 0 0 0 .562c.156.16.398.16.558 0a.39.39 0 0 0 0-.562.391.391 0 0 0-.558 0zm0 0M23.035 12.281a.385.385 0 0 0 0-.558.385.385 0 0 0-.558 0 .385.385 0 0 0 0 .558c.156.16.398.16.558 0zm0 0M20.758 11.723a.385.385 0 0 0 0 .558c.156.16.398.16.558 0a.385.385 0 0 0 0-.558.385.385 0 0 0-.558 0zm0 0M19.078 13.402a.385.385 0 0 0 0 .559c.16.16.399.16.559 0a.385.385 0 0 0 0-.559.385.385 0 0 0-.559 0zm0 0M17.36 11.723a.385.385 0 0 0 0 .558c.16.16.398.16.558 0a.385.385 0 0 0 0-.558c-.121-.16-.398-.16-.559 0zm0 0M15.68 10.043a.39.39 0 0 0 0 .562c.16.16.398.16.558 0a.39.39 0 0 0 0-.562.391.391 0 0 0-.558 0zm0 0M20.758 16.8a.385.385 0 0 0 0 .56c.156.16.398.16.558 0a.385.385 0 0 0 0-.56.385.385 0 0 0-.558 0zm0 0M19.078 15.121a.385.385 0 0 0 0 .559c.16.16.399.16.559 0a.385.385 0 0 0 0-.559.385.385 0 0 0-.559 0zm0 0M17.36 13.402a.385.385 0 0 0 0 .559c.16.16.398.16.558 0a.385.385 0 0 0 0-.559c-.121-.16-.398-.16-.559 0zm0 0M20.758 15.121a.385.385 0 0 0 0 .559c.156.16.398.16.558 0a.385.385 0 0 0 0-.559.385.385 0 0 0-.558 0zm0 0M14 8.324a.39.39 0 0 0 0 .563c.16.16.402.16.563 0a.396.396 0 0 0 0-.563c-.16-.156-.442-.156-.563 0zm0 0M20.758 8.324a.39.39 0 0 0 0 .563c.156.16.398.16.558 0a.39.39 0 0 0 0-.563.391.391 0 0 0-.558 0zm0 0M8.887 1.531a.385.385 0 0 0 0 .559c.156.16.398.16.558 0a.385.385 0 0 0 0-.559.385.385 0 0 0-.558 0zm0 0M13.68 13.684l-3.356-3.36L3.81 3.81a.369.369 0 0 0-.282-.122c-.117 0-.199.043-.277.122a11.949 11.949 0 0 0 .277 16.668c2.36 2.32 5.399 3.52 8.477 3.52a12.03 12.03 0 0 0 8.191-3.24.361.361 0 0 0 .121-.28c0-.079-.039-.2-.12-.282zm-3.14 9.437a11.451 11.451 0 0 1-1.88-.418l6.442-6.441 1.136 1.136-5.633 5.637a.34.34 0 0 0-.066.086zm-4.227-1.473l7.07-7.105 1.156 1.156-6.703 6.707a11.063 11.063 0 0 1-1.524-.758zm-1.938-1.457l7.328-7.328 1.117 1.117-7.21 7.215c-.43-.3-.844-.636-1.235-1.004zm-1.563-1.793l7.211-7.214 1.122 1.12-7.332 7.329c-.368-.395-.7-.809-1-1.235zm-1.214-2.226l6.707-6.707 1.16 1.16-7.094 7.094c-.3-.5-.558-1.02-.773-1.547zm-.711-2.703a.425.425 0 0 0 .086-.067l5.632-5.636 1.141 1.14-6.441 6.442a11.146 11.146 0 0 1-.418-1.88zm.078-3.422s.004 0 .008-.004L4.91 6.07l1.137 1.137L.8 12.453c-.035-.8.02-1.61.164-2.406zm2.562-5.36l.82.82L1.356 8.5a11.309 11.309 0 0 1 2.172-3.813zm8.024 18.52l5.25-5.25 1.137 1.14L14 23.036c-.809.149-1.629.203-2.45.172zm3.957-.559l2.988-2.992.82.82a11.264 11.264 0 0 1-3.808 2.172zm0 0"/>
    <path d="M20.477 3.531a11.954 11.954 0 0 0-16.028-.84c-.12.079-.16.16-.16.278 0 .12.04.242.121.32l16.305 16.309c.082.078.16.12.281.12.121-.042.238-.081.32-.16a11.962 11.962 0 0 0-.84-16.027zm.48 15.188l-1.34-1.34c.004-.008.012-.012.02-.02a.385.385 0 0 0 0-.558.385.385 0 0 0-.559 0 .047.047 0 0 0-.02.02l-1.14-1.141a.385.385 0 0 0 0-.559c-.121-.16-.398-.16-.559 0l-1.14-1.14c.008-.008.015-.012.02-.02a.385.385 0 0 0 0-.559.385.385 0 0 0-.579.02L14.54 12.3c.007-.004.015-.012.023-.02a.391.391 0 0 0 0-.558c-.16-.16-.442-.16-.563 0-.004.007-.012.015-.02.023l-1.136-1.14a.396.396 0 0 0 0-.563.39.39 0 0 0-.563 0l-1.14-1.137a.39.39 0 0 0 .023-.582.385.385 0 0 0-.578.024l-1.14-1.141a.385.385 0 0 0 0-.559.385.385 0 0 0-.56 0l-1.14-1.14c.004-.008.012-.012.02-.02a.385.385 0 0 0 0-.558.385.385 0 0 0-.559 0 .047.047 0 0 0-.02.02l-1.12-1.122c.007-.008.015-.012.019-.02a.385.385 0 0 0 0-.558c-.16-.16-.438-.16-.559 0l-.02.02-.218-.22a11.006 11.006 0 0 1 1.82-1.116c.02.058.051.109.098.156.16.16.398.16.559 0a.381.381 0 0 0 .062-.477 11.116 11.116 0 0 1 7.95-.156.43.43 0 0 0-.098.074.385.385 0 0 0 0 .559c.16.16.398.16.558 0a.386.386 0 0 0 .094-.418c.957.402 1.867.945 2.703 1.625a.385.385 0 0 0 .043.512c.156.16.395.16.555.003A11.336 11.336 0 0 1 20.71 4.98a.385.385 0 0 0 .047.508c.113.114.27.145.406.098.59.84 1.05 1.742 1.383 2.684a.39.39 0 0 0-.07.617.388.388 0 0 0 .304.117c.094.336.172.68.23 1.023a.381.381 0 0 0-.534.016.39.39 0 0 0 0 .562c.156.16.398.16.558 0a.35.35 0 0 0 .059-.074c.129.977.129 1.969 0 2.946a.35.35 0 0 0-.059-.075.385.385 0 0 0-.558 0 .385.385 0 0 0 0 .559c.152.156.378.16.539.016a11.197 11.197 0 0 1-2.059 4.742zm0 0"/>
</svg>
