<svg xmlns="http://www.w3.org/2000/svg" width="32" height="32" viewBox="0 0 24 24">
    <path d="M5.601562 7.398438C5.359375 7.398438 5.199219 7.558594 5.199219 7.800781 5.199219 8.039062 5.359375 8.199219 5.601562 8.199219 5.839844 8.199219 6 8.039062 6 7.800781 6 7.558594 5.839844 7.398438 5.601562 7.398438zM6.800781 6.199219C6.558594 6.199219 6.398438 6.359375 6.398438 6.601562 6.398438 6.839844 6.558594 7 6.800781 7 7.039062 7 7.199219 6.839844 7.199219 6.601562 7.199219 6.359375 7.039062 6.199219 6.800781 6.199219zM3.199219 7.398438C2.960938 7.398438 2.800781 7.558594 2.800781 7.800781 2.800781 8.039062 2.960938 8.199219 3.199219 8.199219 3.441406 8.199219 3.601562 8.039062 3.601562 7.800781 3.601562 7.558594 3.441406 7.398438 3.199219 7.398438zM4.398438 8.601562C4.160156 8.601562 4 8.761719 4 9 4 9.238281 4.160156 9.398438 4.398438 9.398438 4.640625 9.398438 4.800781 9.238281 4.800781 9 4.800781 8.761719 4.640625 8.601562 4.398438 8.601562zM8 7.398438C7.761719 7.398438 7.601562 7.558594 7.601562 7.800781 7.601562 8.039062 7.761719 8.199219 8 8.199219 8.238281 8.199219 8.398438 8.039062 8.398438 7.800781 8.398438 7.558594 8.238281 7.398438 8 7.398438zM2 8.601562C1.761719 8.601562 1.601562 8.761719 1.601562 9 1.601562 9.238281 1.761719 9.398438 2 9.398438 2.238281 9.398438 2.398438 9.238281 2.398438 9 2.398438 8.761719 2.238281 8.601562 2 8.601562zM6.800781 8.601562C6.558594 8.601562 6.398438 8.761719 6.398438 9 6.398438 9.238281 6.558594 9.398438 6.800781 9.398438 7.039062 9.398438 7.199219 9.238281 7.199219 9 7.199219 8.761719 7.039062 8.601562 6.800781 8.601562zM9.199219 6.199219C8.960938 6.199219 8.800781 6.359375 8.800781 6.601562 8.800781 6.839844 8.960938 7 9.199219 7 9.441406 7 9.601562 6.839844 9.601562 6.601562 9.601562 6.359375 9.441406 6.199219 9.199219 6.199219zM10.398438 7.398438C10.160156 7.398438 10 7.558594 10 7.800781 10 8.039062 10.160156 8.199219 10.398438 8.199219 10.640625 8.199219 10.800781 8.039062 10.800781 7.800781 10.800781 7.558594 10.640625 7.398438 10.398438 7.398438zM9.199219 8.601562C8.960938 8.601562 8.800781 8.761719 8.800781 9 8.800781 9.238281 8.960938 9.398438 9.199219 9.398438 9.441406 9.398438 9.601562 9.238281 9.601562 9 9.601562 8.761719 9.441406 8.601562 9.199219 8.601562zM9.199219 8.601562"/>
    <path d="M 12 4.199219 C 5.28125 4.199219 0 6.839844 0 10.199219 L 0 13.800781 C 0 17.160156 5.28125 19.800781 12 19.800781 C 18.71875 19.800781 24 17.160156 24 13.800781 L 24 10.199219 C 24 6.839844 18.71875 4.199219 12 4.199219 Z M 23.199219 10.199219 C 23.199219 13 18.078125 15.398438 12 15.398438 C 9.714844 15.398438 7.566406 15.0625 5.769531 14.488281 L 12.199219 10.558594 C 12.207031 10.554688 12.214844 10.546875 12.222656 10.542969 C 12.335938 10.472656 12.398438 10.355469 12.398438 10.199219 L 12.398438 5.003906 C 18.304688 5.105469 23.199219 7.460938 23.199219 10.199219 Z M 4 6.617188 C 4.007812 6.847656 4.164062 7 4.398438 7 C 4.640625 7 4.800781 6.839844 4.800781 6.601562 C 4.800781 6.480469 4.761719 6.382812 4.691406 6.3125 C 5.558594 5.957031 6.539062 5.664062 7.601562 5.445312 C 7.621094 5.660156 7.773438 5.800781 8 5.800781 C 8.238281 5.800781 8.398438 5.640625 8.398438 5.398438 C 8.398438 5.363281 8.394531 5.328125 8.390625 5.296875 C 8.957031 5.203125 9.546875 5.128906 10.148438 5.078125 C 10.054688 5.148438 10 5.257812 10 5.398438 C 10 5.640625 10.160156 5.800781 10.398438 5.800781 C 10.640625 5.800781 10.800781 5.640625 10.800781 5.398438 C 10.800781 5.234375 10.722656 5.105469 10.597656 5.042969 C 10.628906 5.042969 10.660156 5.039062 10.691406 5.039062 C 10.992188 5.019531 11.292969 5.007812 11.601562 5.003906 L 11.601562 6.199219 C 11.359375 6.199219 11.199219 6.359375 11.199219 6.601562 C 11.199219 6.839844 11.359375 7 11.601562 7 L 11.601562 8.601562 C 11.359375 8.601562 11.199219 8.761719 11.199219 9 C 11.199219 9.238281 11.359375 9.398438 11.601562 9.398438 L 11.601562 9.800781 L 0.839844 9.800781 C 1.050781 8.582031 2.222656 7.46875 4 6.617188 Z M 6.089844 13.34375 L 3.042969 10.601562 L 5.433594 10.601562 L 7.382812 12.550781 Z M 8.085938 12.117188 L 6.566406 10.601562 L 10.558594 10.601562 Z M 1.847656 10.601562 L 5.378906 13.78125 L 4.792969 14.140625 C 3.289062 13.542969 2.117188 12.769531 1.441406 11.898438 C 1.121094 11.476562 0.914062 11.039062 0.835938 10.601562 Z M 23.199219 13.800781 C 23.199219 16.601562 18.078125 19 12 19 C 5.921875 19 0.800781 16.601562 0.800781 13.800781 L 0.800781 12.398438 C 1.644531 13.5 3.113281 14.433594 5.003906 15.101562 C 5.011719 15.105469 5.019531 15.109375 5.023438 15.109375 C 5.09375 15.132812 5.160156 15.15625 5.230469 15.179688 C 5.242188 15.183594 5.25 15.1875 5.257812 15.191406 C 5.335938 15.214844 5.410156 15.242188 5.488281 15.265625 C 5.496094 15.265625 5.503906 15.269531 5.511719 15.273438 C 5.574219 15.292969 5.640625 15.3125 5.703125 15.332031 C 5.734375 15.339844 5.761719 15.347656 5.789062 15.359375 C 5.835938 15.371094 5.878906 15.382812 5.925781 15.398438 C 5.957031 15.40625 5.992188 15.417969 6.023438 15.425781 C 6.066406 15.4375 6.109375 15.449219 6.152344 15.460938 C 6.21875 15.480469 6.28125 15.496094 6.34375 15.511719 C 6.382812 15.523438 6.417969 15.53125 6.453125 15.542969 C 6.5 15.550781 6.542969 15.5625 6.589844 15.574219 C 6.617188 15.582031 6.648438 15.589844 6.679688 15.597656 C 6.726562 15.609375 6.773438 15.621094 6.820312 15.632812 C 6.847656 15.636719 6.875 15.644531 6.898438 15.648438 C 7.070312 15.6875 7.242188 15.726562 7.414062 15.761719 C 7.4375 15.765625 7.460938 15.769531 7.484375 15.773438 C 7.539062 15.785156 7.59375 15.796875 7.644531 15.804688 C 7.667969 15.808594 7.695312 15.8125 7.71875 15.820312 C 7.894531 15.851562 8.078125 15.882812 8.261719 15.914062 C 8.285156 15.917969 8.308594 15.921875 8.332031 15.921875 C 8.386719 15.933594 8.4375 15.941406 8.492188 15.949219 C 8.523438 15.953125 8.550781 15.957031 8.578125 15.960938 C 8.632812 15.96875 8.6875 15.976562 8.738281 15.984375 C 8.765625 15.988281 8.796875 15.992188 8.824219 15.996094 C 8.917969 16.007812 9.011719 16.019531 9.109375 16.03125 C 9.144531 16.035156 9.179688 16.039062 9.210938 16.042969 C 9.261719 16.046875 9.308594 16.054688 9.355469 16.058594 C 9.394531 16.0625 9.4375 16.066406 9.476562 16.070312 C 9.523438 16.078125 9.566406 16.082031 9.613281 16.085938 C 9.660156 16.089844 9.707031 16.09375 9.75 16.097656 C 9.792969 16.101562 9.835938 16.105469 9.875 16.109375 C 9.957031 16.117188 10.039062 16.125 10.121094 16.128906 C 10.160156 16.132812 10.195312 16.136719 10.234375 16.136719 C 10.289062 16.140625 10.339844 16.144531 10.394531 16.148438 C 10.433594 16.152344 10.472656 16.152344 10.511719 16.15625 C 10.570312 16.160156 10.628906 16.164062 10.6875 16.164062 C 10.71875 16.167969 10.75 16.167969 10.785156 16.171875 C 10.875 16.175781 10.960938 16.179688 11.050781 16.183594 C 11.074219 16.183594 11.097656 16.183594 11.121094 16.183594 C 11.191406 16.1875 11.261719 16.1875 11.335938 16.191406 C 11.367188 16.191406 11.398438 16.191406 11.429688 16.191406 C 11.496094 16.195312 11.5625 16.195312 11.628906 16.195312 C 11.65625 16.199219 11.6875 16.199219 11.714844 16.199219 C 11.8125 16.199219 11.90625 16.199219 12 16.199219 C 12.09375 16.199219 12.1875 16.199219 12.285156 16.199219 C 12.3125 16.199219 12.34375 16.199219 12.371094 16.195312 C 12.4375 16.195312 12.503906 16.195312 12.570312 16.191406 C 12.601562 16.191406 12.632812 16.191406 12.664062 16.191406 C 12.738281 16.1875 12.808594 16.1875 12.878906 16.183594 C 12.902344 16.183594 12.925781 16.183594 12.949219 16.183594 C 13.039062 16.179688 13.128906 16.175781 13.214844 16.171875 C 13.25 16.167969 13.28125 16.167969 13.3125 16.164062 C 13.371094 16.164062 13.429688 16.160156 13.488281 16.15625 C 13.527344 16.152344 13.566406 16.152344 13.605469 16.148438 C 13.660156 16.144531 13.710938 16.140625 13.765625 16.136719 C 13.804688 16.136719 13.839844 16.132812 13.878906 16.128906 C 13.960938 16.125 14.042969 16.117188 14.125 16.109375 C 14.164062 16.105469 14.207031 16.101562 14.25 16.097656 C 14.292969 16.09375 14.339844 16.089844 14.386719 16.085938 C 14.433594 16.082031 14.476562 16.078125 14.523438 16.070312 C 14.5625 16.066406 14.605469 16.0625 14.644531 16.058594 C 14.691406 16.054688 14.738281 16.046875 14.789062 16.042969 C 14.824219 16.039062 14.855469 16.035156 14.890625 16.03125 C 14.988281 16.019531 15.082031 16.007812 15.175781 15.996094 C 15.203125 15.992188 15.234375 15.988281 15.261719 15.984375 C 15.3125 15.976562 15.367188 15.96875 15.421875 15.960938 C 15.449219 15.957031 15.480469 15.953125 15.507812 15.949219 C 15.5625 15.941406 15.617188 15.933594 15.667969 15.921875 C 15.691406 15.921875 15.714844 15.917969 15.738281 15.914062 C 15.921875 15.882812 16.105469 15.851562 16.28125 15.820312 C 16.308594 15.8125 16.332031 15.808594 16.355469 15.804688 C 16.40625 15.796875 16.460938 15.785156 16.515625 15.773438 C 16.539062 15.769531 16.5625 15.765625 16.585938 15.761719 C 16.757812 15.726562 16.929688 15.6875 17.101562 15.648438 C 17.125 15.644531 17.152344 15.636719 17.179688 15.632812 C 17.226562 15.621094 17.273438 15.609375 17.320312 15.597656 C 17.351562 15.589844 17.382812 15.582031 17.410156 15.574219 C 17.457031 15.5625 17.5 15.550781 17.546875 15.542969 C 17.582031 15.53125 17.621094 15.523438 17.65625 15.511719 C 17.71875 15.496094 17.78125 15.480469 17.847656 15.460938 C 17.890625 15.449219 17.933594 15.4375 17.976562 15.425781 C 18.007812 15.417969 18.042969 15.40625 18.074219 15.398438 C 18.121094 15.382812 18.164062 15.371094 18.210938 15.359375 C 18.238281 15.347656 18.265625 15.339844 18.296875 15.332031 C 18.359375 15.3125 18.425781 15.292969 18.488281 15.273438 C 18.496094 15.269531 18.503906 15.265625 18.511719 15.265625 C 18.589844 15.242188 18.664062 15.214844 18.742188 15.191406 C 18.75 15.1875 18.761719 15.183594 18.769531 15.179688 C 18.839844 15.15625 18.90625 15.132812 18.976562 15.109375 C 18.980469 15.109375 18.988281 15.105469 18.996094 15.101562 C 20.886719 14.433594 22.355469 13.5 23.199219 12.398438 Z M 23.199219 13.800781"/>
</svg>
