<svg xmlns="http://www.w3.org/2000/svg" width="32" height="32" viewBox="0 0 24 24">
    <path d="M24 12C24 5.535 18.816.219 12.398.008V0H12C5.398 0 0 5.398 0 12c0 .094 0 .184.004.273v.07l.012.27v.004c.004.094.011.188.02.281a11.981 11.981 0 0 0 5.863 9.441l-.02.02.48.243a12.001 12.001 0 0 0 4.41 1.335h.024c.094.012.191.02.285.028h.004c.09.008.18.012.27.015.02.004.039.004.058.004l.262.012h.05c.094.004.184.004.278.004.094 0 .184 0 .273-.004h.059l.258-.012c.023 0 .043 0 .066-.004l.23-.011c.02-.004.044-.004.063-.008a4.28 4.28 0 0 0 .223-.02c.031-.003.058-.003.086-.007.078-.008.156-.016.23-.028l.09-.011c.063-.008.129-.016.192-.028l.078-.012.226-.035a29.963 29.963 0 0 0 .324-.063c.012-.003.024-.003.036-.007a12.042 12.042 0 0 0 7.488-4.988l.238-.364-.015-.007A11.934 11.934 0 0 0 24 12zm-.8 0c0 2.188-.637 4.23-1.731 5.96l-9.07-5.765V.81c5.976.21 10.8 5.164 10.8 11.191zm-9.731 11.102l-.07.011c-.063.008-.126.012-.188.02-.043.004-.086.012-.133.015l-.156.012c-.055.004-.11.012-.168.012l-.133.012c-.066.003-.137.003-.203.007-.035 0-.07.004-.105.004-.106.004-.208.004-.313.004-.098 0-.2 0-.3-.004-.028 0-.06 0-.09-.004-.07 0-.137-.003-.208-.007a9040.978 9040.978 0 0 1-.29-.02 2.553 2.553 0 0 1-.17-.016c-.012 0-.024 0-.036-.003l9.64-4.82.47.3c-1.77 2.395-4.465 4.07-7.547 4.477zM8 2c.238 0 .398-.16.398-.398a.43.43 0 0 0-.039-.192A11.137 11.137 0 0 1 11.602.81v1.59c-.243 0-.403.16-.403.402 0 .238.16.398.403.398v1.602c-.243 0-.403.16-.403.398 0 .242.16.403.403.403v1.597c-.243 0-.403.16-.403.403 0 .238.16.398.403.398v1.602c-.243 0-.403.16-.403.398 0 .238.16.398.403.398V12c-.243 0-.403.16-.403.398 0 .145.059.262.16.332l-1.597 2.954a.391.391 0 0 0-.153.277L8.375 18.25C8.325 18.098 8.184 18 8 18c-.238 0-.398.16-.398.398 0 .243.16.403.398.403a.583.583 0 0 0 .082-.008l-1.59 2.95a11.404 11.404 0 0 1-3.383-2.95c.032.004.059.008.09.008.242 0 .403-.16.403-.403 0-.238-.16-.398-.403-.398-.226 0-.383.145-.398.367a11.199 11.199 0 0 1-.54-.851.395.395 0 0 0 .137-.317c0-.238-.16-.398-.398-.398a.436.436 0 0 0-.105.012c-.43-.891-.743-1.848-.922-2.848.14-.059.226-.188.226-.363 0-.22-.129-.372-.332-.399a4.553 4.553 0 0 1-.031-.332c-.004-.008-.004-.02-.004-.031a11.44 11.44 0 0 1-.027-.524v-.058C.8 12.172.8 12.086.8 12c0-.098 0-.191.004-.285v-.035c0-.028.004-.055.004-.078.234-.004.39-.165.39-.403 0-.219-.133-.367-.336-.394.114-1.063.38-2.078.77-3.032C1.69 7.914 1.824 8 2 8c.238 0 .398-.16.398-.398 0-.243-.16-.403-.398-.403a.532.532 0 0 0-.117.016 11.298 11.298 0 0 1 5.726-5.512c.04.18.188.297.391.297zm1.676 20.957a11.31 11.31 0 0 1-1.739-.523L18.56 17.12c.02-.012.035-.023.05-.035l1.184.758-9.992 4.996a.3.3 0 0 0-.125.117zm-2.344-1.082l1.262-2.332 7.965-3.582a.395.395 0 0 0 .136-.098l1.168.746zm1.883-3.473l1.156-2.136 4.066-1.848 1.5.957zm1.777-3.285l1.145-2.113.023-.043 1.485.95zm0 0"/>
    <path d="M10.398 2c.243 0 .403-.16.403-.398 0-.243-.16-.403-.403-.403-.238 0-.398.16-.398.403 0 .238.16.398.398.398zm0 0M10.398 4.398c.243 0 .403-.16.403-.398 0-.238-.16-.398-.403-.398-.238 0-.398.16-.398.398 0 .238.16.398.398.398zm0 0M8 4.398c.238 0 .398-.16.398-.398 0-.238-.16-.398-.398-.398-.238 0-.398.16-.398.398 0 .238.16.398.398.398zm0 0M9.2 3.2c.241 0 .402-.16.402-.4 0-.241-.16-.402-.403-.402-.238 0-.398.16-.398.403 0 .238.16.398.398.398zm0 0M10.398 6.8c.243 0 .403-.16.403-.402 0-.238-.16-.398-.403-.398-.238 0-.398.16-.398.398 0 .243.16.403.398.403zm0 0M8 6.8c.238 0 .398-.16.398-.402C8.398 6.16 8.238 6 8 6c-.238 0-.398.16-.398.398 0 .243.16.403.398.403zm0 0M9.2 5.602c.241 0 .402-.16.402-.403 0-.238-.16-.398-.403-.398-.238 0-.398.16-.398.398 0 .242.16.403.398.403zm0 0M5.602 4.398C5.84 4.398 6 4.238 6 4c0-.238-.16-.398-.398-.398-.243 0-.403.16-.403.398 0 .238.16.398.403.398zm0 0M5.602 6.8C5.84 6.8 6 6.64 6 6.399 6 6.16 5.84 6 5.602 6c-.243 0-.403.16-.403.398 0 .243.16.403.403.403zm0 0M6.8 5.602c.24 0 .4-.16.4-.403 0-.238-.16-.398-.4-.398-.241 0-.402.16-.402.398 0 .242.16.403.403.403zm0 0M6.8 8c.24 0 .4-.16.4-.398 0-.243-.16-.403-.4-.403-.241 0-.402.16-.402.403 0 .238.16.398.403.398zm0 0M6.8 10.398c.24 0 .4-.16.4-.398 0-.238-.16-.398-.4-.398-.241 0-.402.16-.402.398 0 .238.16.398.403.398zm0 0M8 9.2c.238 0 .398-.16.398-.4 0-.241-.16-.402-.398-.402-.238 0-.398.16-.398.403 0 .238.16.398.398.398zm0 0M9.2 8c.241 0 .402-.16.402-.398 0-.243-.16-.403-.403-.403-.238 0-.398.16-.398.403 0 .238.16.398.398.398zm0 0M10.398 9.2c.243 0 .403-.16.403-.4 0-.241-.16-.402-.403-.402-.238 0-.398.16-.398.403 0 .238.16.398.398.398zm0 0M4.398 7.2C4.16 7.2 4 7.36 4 7.601c0 .238.16.398.398.398.243 0 .403-.16.403-.398 0-.243-.16-.403-.403-.403zm0 0M4.398 9.602C4.16 9.602 4 9.762 4 10c0 .238.16.398.398.398.243 0 .403-.16.403-.398 0-.238-.16-.398-.403-.398zm0 0M5.602 9.2C5.84 9.2 6 9.04 6 8.8c0-.241-.16-.402-.398-.402-.243 0-.403.16-.403.403 0 .238.16.398.403.398zm0 0M3.2 8.398c-.24 0-.4.16-.4.403 0 .238.16.398.4.398.241 0 .402-.16.402-.398 0-.242-.16-.403-.403-.403zm0 0M4.398 5.602c.243 0 .403-.16.403-.403 0-.238-.16-.398-.403-.398-.238 0-.398.16-.398.398 0 .242.16.403.398.403zm0 0M3.2 6c-.24 0-.4.16-.4.398 0 .243.16.403.4.403.241 0 .402-.16.402-.403 0-.238-.16-.398-.403-.398zm0 0M5.602 11.602c.238 0 .398-.16.398-.403 0-.238-.16-.398-.398-.398-.243 0-.403.16-.403.398 0 .242.16.403.403.403zm0 0M6.8 12.8c.24 0 .4-.16.4-.402 0-.238-.16-.398-.4-.398-.241 0-.402.16-.402.398 0 .243.16.403.403.403zm0 0M6.8 15.2c.24 0 .4-.16.4-.4 0-.241-.16-.402-.4-.402-.241 0-.402.16-.402.403 0 .238.16.398.403.398zm0 0M9.2 15.2c.241 0 .402-.16.402-.4 0-.241-.16-.402-.403-.402-.238 0-.398.16-.398.403 0 .238.16.398.398.398zm0 0M4.398 12c-.238 0-.398.16-.398.398 0 .243.16.403.398.403.243 0 .403-.16.403-.403 0-.238-.16-.398-.403-.398zm0 0M4.398 14.398c-.238 0-.398.16-.398.403 0 .238.16.398.398.398.243 0 .403-.16.403-.398 0-.242-.16-.403-.403-.403zm0 0M2 14.398c-.238 0-.398.16-.398.403 0 .238.16.398.398.398.238 0 .398-.16.398-.398 0-.242-.16-.403-.398-.403zm0 0M2 12c-.238 0-.398.16-.398.398 0 .243.16.403.398.403.238 0 .398-.16.398-.403 0-.238-.16-.398-.398-.398zm0 0M2 9.602c-.238 0-.398.16-.398.398 0 .238.16.398.398.398.238 0 .398-.16.398-.398 0-.238-.16-.398-.398-.398zm0 0M5.602 14c.238 0 .398-.16.398-.398 0-.243-.16-.403-.398-.403-.243 0-.403.16-.403.403 0 .238.16.398.403.398zm0 0M10.398 11.602c.243 0 .403-.16.403-.403 0-.238-.16-.398-.403-.398-.238 0-.398.16-.398.398 0 .242.16.403.398.403zm0 0M9.2 12.8c.241 0 .402-.16.402-.402 0-.238-.16-.398-.403-.398-.238 0-.398.16-.398.398 0 .243.16.403.398.403zm0 0M9.2 10.398c.241 0 .402-.16.402-.398 0-.238-.16-.398-.403-.398-.238 0-.398.16-.398.398 0 .238.16.398.398.398zm0 0M10.398 14c.243 0 .403-.16.403-.398 0-.243-.16-.403-.403-.403-.238 0-.398.16-.398.403 0 .238.16.398.398.398zm0 0M3.2 13.2c-.24 0-.4.16-.4.402 0 .238.16.398.4.398.241 0 .402-.16.402-.398 0-.243-.16-.403-.403-.403zm0 0M3.2 10.8c-.24 0-.4.16-.4.4 0 .241.16.402.4.402.241 0 .402-.16.402-.403 0-.238-.16-.398-.403-.398zm0 0M5.602 16.398c.238 0 .398-.16.398-.398 0-.238-.16-.398-.398-.398-.243 0-.403.16-.403.398 0 .238.16.398.403.398zm0 0M6.8 17.602c.24 0 .4-.16.4-.403 0-.238-.16-.398-.4-.398-.241 0-.402.16-.402.398 0 .242.16.403.403.403zm0 0M6.8 20c.24 0 .4-.16.4-.398 0-.243-.16-.403-.4-.403-.241 0-.402.16-.402.403 0 .238.16.398.403.398zm0 0M4.398 16.8c-.238 0-.398.16-.398.4 0 .241.16.402.398.402.243 0 .403-.16.403-.403 0-.238-.16-.398-.403-.398zm0 0M4.398 19.2c-.238 0-.398.16-.398.402 0 .238.16.398.398.398.243 0 .403-.16.403-.398 0-.243-.16-.403-.403-.403zm0 0M5.602 18.8c.238 0 .398-.16.398-.402C6 18.16 5.84 18 5.602 18c-.243 0-.403.16-.403.398 0 .243.16.403.403.403zm0 0M8 16.398c.238 0 .398-.16.398-.398 0-.238-.16-.398-.398-.398-.238 0-.398.16-.398.398 0 .238.16.398.398.398zm0 0M8 14c.238 0 .398-.16.398-.398 0-.243-.16-.403-.398-.403-.238 0-.398.16-.398.403 0 .238.16.398.398.398zm0 0M8 11.602c.238 0 .398-.16.398-.403 0-.238-.16-.398-.398-.398-.238 0-.398.16-.398.398 0 .242.16.403.398.403zm0 0M3.2 15.602c-.24 0-.4.16-.4.398 0 .238.16.398.4.398.241 0 .402-.16.402-.398 0-.238-.16-.398-.403-.398zm0 0M6.8 3.2c.24 0 .4-.16.4-.4 0-.241-.16-.402-.4-.402-.241 0-.402.16-.402.403 0 .238.16.398.403.398zm0 0"/>
</svg>
