<svg xmlns="http://www.w3.org/2000/svg" width="32" height="32" viewBox="0 0 24 24">
    <path d="M8.886719 3.25C8.726562 3.410156 8.726562 3.648438 8.886719 3.808594 9.042969 3.96875 9.285156 3.96875 9.445312 3.808594 9.605469 3.648438 9.605469 3.410156 9.445312 3.25 9.285156 3.089844 9.042969 3.089844 8.886719 3.25zM7.207031 3.25C7.046875 3.410156 7.046875 3.648438 7.207031 3.808594 7.367188 3.96875 7.605469 3.96875 7.765625 3.808594 7.925781 3.648438 7.925781 3.410156 7.765625 3.25 7.605469 3.089844 7.367188 3.089844 7.207031 3.25zM10.605469 4.929688C10.445312 5.089844 10.445312 5.328125 10.605469 5.488281 10.761719 5.648438 11.003906 5.648438 11.164062 5.488281 11.324219 5.328125 11.324219 5.089844 11.164062 4.929688 11.003906 4.769531 10.761719 4.769531 10.605469 4.929688zM8.886719 4.929688C8.726562 5.089844 8.726562 5.328125 8.886719 5.488281 9.042969 5.648438 9.285156 5.648438 9.445312 5.488281 9.605469 5.328125 9.605469 5.089844 9.445312 4.929688 9.285156 4.769531 9.042969 4.769531 8.886719 4.929688zM10.605469 1.53125C10.445312 1.691406 10.445312 1.929688 10.605469 2.089844 10.761719 2.25 11.003906 2.25 11.164062 2.089844 11.324219 1.929688 11.324219 1.691406 11.164062 1.53125 11.003906 1.371094 10.761719 1.371094 10.605469 1.53125zM12.28125 3.25C12.121094 3.410156 12.121094 3.648438 12.28125 3.808594 12.441406 3.96875 12.683594 3.96875 12.84375 3.808594 13 3.648438 13 3.410156 12.84375 3.25 12.683594 3.089844 12.441406 3.089844 12.28125 3.25zM10.605469 3.25C10.445312 3.410156 10.445312 3.648438 10.605469 3.808594 10.761719 3.96875 11.003906 3.96875 11.164062 3.808594 11.324219 3.648438 11.324219 3.410156 11.164062 3.25 11.003906 3.089844 10.761719 3.089844 10.605469 3.25zM12.28125 4.929688C12.121094 5.089844 12.121094 5.328125 12.28125 5.488281 12.441406 5.648438 12.683594 5.648438 12.84375 5.488281 13 5.328125 13 5.089844 12.84375 4.929688 12.683594 4.769531 12.441406 4.769531 12.28125 4.929688zM14 6.648438C13.839844 6.808594 13.839844 7.046875 14 7.207031 14.160156 7.367188 14.402344 7.367188 14.5625 7.207031 14.71875 7.046875 14.71875 6.808594 14.5625 6.648438 14.402344 6.488281 14.121094 6.488281 14 6.648438zM12.28125 6.648438C12.121094 6.808594 12.121094 7.046875 12.28125 7.207031 12.441406 7.367188 12.683594 7.367188 12.84375 7.207031 13 7.046875 13 6.808594 12.84375 6.648438 12.683594 6.488281 12.441406 6.488281 12.28125 6.648438zM10.605469 6.648438C10.445312 6.808594 10.445312 7.046875 10.605469 7.207031 10.761719 7.367188 11.003906 7.367188 11.164062 7.207031 11.324219 7.046875 11.324219 6.808594 11.164062 6.648438 11.003906 6.488281 10.761719 6.488281 10.605469 6.648438zM14 3.25C13.839844 3.410156 13.839844 3.648438 14 3.808594 14.160156 3.96875 14.402344 3.96875 14.5625 3.808594 14.71875 3.648438 14.71875 3.410156 14.5625 3.25 14.402344 3.089844 14.121094 3.089844 14 3.25zM15.679688 4.929688C15.519531 5.089844 15.519531 5.328125 15.679688 5.488281 15.839844 5.648438 16.078125 5.648438 16.238281 5.488281 16.398438 5.328125 16.398438 5.089844 16.238281 4.929688 16.078125 4.769531 15.839844 4.769531 15.679688 4.929688zM14 4.929688C13.839844 5.089844 13.839844 5.328125 14 5.488281 14.160156 5.648438 14.402344 5.648438 14.5625 5.488281 14.71875 5.328125 14.71875 5.089844 14.5625 4.929688 14.402344 4.769531 14.121094 4.769531 14 4.929688zM15.679688 3.25C15.519531 3.410156 15.519531 3.648438 15.679688 3.808594 15.839844 3.96875 16.078125 3.96875 16.238281 3.808594 16.398438 3.648438 16.398438 3.410156 16.238281 3.25 16.078125 3.089844 15.839844 3.089844 15.679688 3.25zM12.28125 1.53125C12.121094 1.691406 12.121094 1.929688 12.28125 2.089844 12.441406 2.25 12.683594 2.25 12.84375 2.089844 13 1.929688 13 1.691406 12.84375 1.53125 12.683594 1.371094 12.441406 1.371094 12.28125 1.53125zM14 1.53125C13.839844 1.691406 13.839844 1.929688 14 2.089844 14.160156 2.25 14.402344 2.25 14.5625 2.089844 14.71875 1.929688 14.71875 1.691406 14.5625 1.53125 14.402344 1.371094 14.121094 1.371094 14 1.53125zM15.679688 6.648438C15.519531 6.808594 15.519531 7.046875 15.679688 7.207031 15.839844 7.367188 16.078125 7.367188 16.238281 7.207031 16.398438 7.046875 16.398438 6.808594 16.238281 6.648438 16.078125 6.488281 15.839844 6.488281 15.679688 6.648438zM15.679688 8.324219C15.519531 8.484375 15.519531 8.726562 15.679688 8.886719 15.839844 9.046875 16.078125 9.046875 16.238281 8.886719 16.398438 8.726562 16.398438 8.484375 16.238281 8.324219 16.078125 8.167969 15.839844 8.167969 15.679688 8.324219zM17.359375 10.042969C17.199219 10.203125 17.199219 10.445312 17.359375 10.605469 17.519531 10.765625 17.757812 10.765625 17.917969 10.605469 18.078125 10.445312 18.078125 10.203125 17.917969 10.042969 17.796875 9.886719 17.519531 9.886719 17.359375 10.042969zM15.679688 11.722656C15.519531 11.882812 15.519531 12.125 15.679688 12.28125 15.839844 12.441406 16.078125 12.441406 16.238281 12.28125 16.398438 12.125 16.398438 11.882812 16.238281 11.722656 16.078125 11.5625 15.839844 11.5625 15.679688 11.722656zM17.359375 6.648438C17.199219 6.808594 17.199219 7.046875 17.359375 7.207031 17.519531 7.367188 17.757812 7.367188 17.917969 7.207031 18.078125 7.046875 18.078125 6.808594 17.917969 6.648438 17.796875 6.488281 17.519531 6.488281 17.359375 6.648438zM19.078125 8.324219C18.917969 8.484375 18.917969 8.726562 19.078125 8.886719 19.238281 9.046875 19.476562 9.046875 19.636719 8.886719 19.796875 8.726562 19.796875 8.484375 19.636719 8.324219 19.476562 8.167969 19.238281 8.167969 19.078125 8.324219zM20.757812 6.648438C20.597656 6.808594 20.597656 7.046875 20.757812 7.207031 20.914062 7.367188 21.15625 7.367188 21.316406 7.207031 21.476562 7.046875 21.476562 6.808594 21.316406 6.648438 21.15625 6.488281 20.914062 6.488281 20.757812 6.648438zM19.078125 4.929688C18.917969 5.089844 18.917969 5.328125 19.078125 5.488281 19.238281 5.648438 19.476562 5.648438 19.636719 5.488281 19.796875 5.328125 19.796875 5.089844 19.636719 4.929688 19.476562 4.769531 19.238281 4.769531 19.078125 4.929688zM17.359375 3.25C17.199219 3.410156 17.199219 3.648438 17.359375 3.808594 17.519531 3.96875 17.757812 3.96875 17.917969 3.808594 18.078125 3.648438 18.078125 3.410156 17.917969 3.25 17.796875 3.089844 17.519531 3.089844 17.359375 3.25zM17.359375 8.324219C17.199219 8.484375 17.199219 8.726562 17.359375 8.886719 17.519531 9.046875 17.757812 9.046875 17.917969 8.886719 18.078125 8.726562 18.078125 8.484375 17.917969 8.324219 17.796875 8.167969 17.519531 8.167969 17.359375 8.324219zM14 10.042969C13.839844 10.203125 13.839844 10.445312 14 10.605469 14.160156 10.765625 14.402344 10.765625 14.5625 10.605469 14.71875 10.445312 14.71875 10.203125 14.5625 10.042969 14.402344 9.886719 14.121094 9.886719 14 10.042969zM12.28125 8.324219C12.121094 8.484375 12.121094 8.726562 12.28125 8.886719 12.441406 9.046875 12.683594 9.046875 12.84375 8.886719 13 8.726562 13 8.484375 12.84375 8.324219 12.683594 8.167969 12.441406 8.167969 12.28125 8.324219zM19.078125 6.648438C18.917969 6.808594 18.917969 7.046875 19.078125 7.207031 19.238281 7.367188 19.476562 7.367188 19.636719 7.207031 19.796875 7.046875 19.796875 6.808594 19.636719 6.648438 19.476562 6.488281 19.238281 6.488281 19.078125 6.648438zM17.359375 4.929688C17.199219 5.089844 17.199219 5.328125 17.359375 5.488281 17.519531 5.648438 17.757812 5.648438 17.917969 5.488281 18.078125 5.328125 18.078125 5.089844 17.917969 4.929688 17.796875 4.769531 17.519531 4.769531 17.359375 4.929688zM19.078125 10.042969C18.917969 10.203125 18.917969 10.445312 19.078125 10.605469 19.238281 10.765625 19.476562 10.765625 19.636719 10.605469 19.796875 10.445312 19.796875 10.203125 19.636719 10.042969 19.476562 9.882812 19.238281 9.886719 19.078125 10.042969zM19.078125 11.722656C18.917969 11.882812 18.917969 12.125 19.078125 12.28125 19.238281 12.441406 19.476562 12.441406 19.636719 12.28125 19.796875 12.125 19.796875 11.882812 19.636719 11.722656 19.476562 11.5625 19.238281 11.5625 19.078125 11.722656zM20.757812 13.402344C20.597656 13.5625 20.597656 13.800781 20.757812 13.960938 20.914062 14.121094 21.15625 14.121094 21.316406 13.960938 21.476562 13.800781 21.476562 13.5625 21.316406 13.402344 21.15625 13.242188 20.914062 13.242188 20.757812 13.402344zM20.757812 10.042969C20.597656 10.203125 20.597656 10.445312 20.757812 10.605469 20.914062 10.765625 21.15625 10.765625 21.316406 10.605469 21.476562 10.445312 21.476562 10.203125 21.316406 10.042969 21.15625 9.886719 20.914062 9.886719 20.757812 10.042969zM23.035156 12.28125C23.195312 12.125 23.195312 11.882812 23.035156 11.722656 22.875 11.5625 22.632812 11.5625 22.476562 11.722656 22.316406 11.882812 22.316406 12.125 22.476562 12.28125 22.632812 12.441406 22.875 12.441406 23.035156 12.28125zM20.757812 11.722656C20.597656 11.882812 20.597656 12.125 20.757812 12.28125 20.914062 12.441406 21.15625 12.441406 21.316406 12.28125 21.476562 12.125 21.476562 11.882812 21.316406 11.722656 21.15625 11.5625 20.914062 11.5625 20.757812 11.722656zM19.078125 13.402344C18.917969 13.5625 18.917969 13.800781 19.078125 13.960938 19.238281 14.121094 19.476562 14.121094 19.636719 13.960938 19.796875 13.800781 19.796875 13.5625 19.636719 13.402344 19.476562 13.242188 19.238281 13.242188 19.078125 13.402344zM17.359375 11.722656C17.199219 11.882812 17.199219 12.125 17.359375 12.28125 17.519531 12.441406 17.757812 12.441406 17.917969 12.28125 18.078125 12.125 18.078125 11.882812 17.917969 11.722656 17.796875 11.5625 17.519531 11.5625 17.359375 11.722656zM15.679688 10.042969C15.519531 10.203125 15.519531 10.445312 15.679688 10.605469 15.839844 10.765625 16.078125 10.765625 16.238281 10.605469 16.398438 10.445312 16.398438 10.203125 16.238281 10.042969 16.078125 9.886719 15.839844 9.886719 15.679688 10.042969zM20.757812 16.800781C20.597656 16.960938 20.597656 17.199219 20.757812 17.359375 20.914062 17.519531 21.15625 17.519531 21.316406 17.359375 21.476562 17.199219 21.476562 16.960938 21.316406 16.800781 21.15625 16.640625 20.914062 16.640625 20.757812 16.800781zM19.078125 15.121094C18.917969 15.28125 18.917969 15.519531 19.078125 15.679688 19.238281 15.839844 19.476562 15.839844 19.636719 15.679688 19.796875 15.519531 19.796875 15.28125 19.636719 15.121094 19.476562 14.960938 19.238281 14.960938 19.078125 15.121094zM17.359375 13.402344C17.199219 13.5625 17.199219 13.800781 17.359375 13.960938 17.519531 14.121094 17.757812 14.121094 17.917969 13.960938 18.078125 13.800781 18.078125 13.5625 17.917969 13.402344 17.796875 13.242188 17.519531 13.242188 17.359375 13.402344zM20.757812 15.121094C20.597656 15.28125 20.597656 15.519531 20.757812 15.679688 20.914062 15.839844 21.15625 15.839844 21.316406 15.679688 21.476562 15.519531 21.476562 15.28125 21.316406 15.121094 21.15625 14.960938 20.914062 14.960938 20.757812 15.121094zM14 8.324219C13.839844 8.484375 13.839844 8.726562 14 8.886719 14.160156 9.046875 14.402344 9.046875 14.5625 8.886719 14.71875 8.726562 14.71875 8.484375 14.5625 8.324219 14.402344 8.167969 14.121094 8.167969 14 8.324219zM20.757812 8.324219C20.597656 8.484375 20.597656 8.726562 20.757812 8.886719 20.914062 9.046875 21.15625 9.046875 21.316406 8.886719 21.476562 8.726562 21.476562 8.484375 21.316406 8.324219 21.15625 8.167969 20.914062 8.167969 20.757812 8.324219zM8.886719 1.53125C8.726562 1.691406 8.726562 1.929688 8.886719 2.089844 9.042969 2.25 9.285156 2.25 9.445312 2.089844 9.605469 1.929688 9.605469 1.691406 9.445312 1.53125 9.285156 1.371094 9.042969 1.371094 8.886719 1.53125zM13.679688 13.683594L10.324219 10.324219 3.808594 3.808594C3.730469 3.730469 3.648438 3.6875 3.527344 3.6875 3.410156 3.6875 3.328125 3.730469 3.25 3.808594-1.1875 8.566406-1.066406 15.878906 3.527344 20.476562 5.886719 22.796875 8.925781 23.996094 12.003906 23.996094 14.921875 23.996094 17.878906 22.914062 20.195312 20.757812 20.277344 20.675781 20.316406 20.597656 20.316406 20.476562 20.316406 20.398438 20.277344 20.277344 20.195312 20.195312zM10.539062 23.121094C9.902344 23.035156 9.273438 22.894531 8.660156 22.703125L15.101562 16.261719 16.238281 17.398438 10.605469 23.035156C10.578125 23.0625 10.554688 23.089844 10.539062 23.121094zM6.3125 21.648438L13.382812 14.542969 14.539062 15.699219 7.835938 22.40625C7.3125 22.195312 6.804688 21.941406 6.3125 21.648438zM4.375 20.191406L11.703125 12.863281 12.820312 13.980469 5.609375 21.195312C5.179688 20.894531 4.765625 20.558594 4.375 20.191406zM2.8125 18.398438L10.023438 11.183594 11.144531 12.304688 3.8125 19.632812C3.445312 19.238281 3.113281 18.824219 2.8125 18.398438zM1.597656 16.171875L8.304688 9.464844 9.464844 10.625 2.371094 17.71875C2.070312 17.21875 1.8125 16.699219 1.597656 16.171875zM.886719 13.46875C.914062 13.453125.945312 13.429688.972656 13.402344L6.605469 7.765625 7.746094 8.90625 1.304688 15.347656C1.109375 14.730469.972656 14.105469.886719 13.46875zM.964844 10.046875C.964844 10.046875.96875 10.046875.972656 10.042969L4.910156 6.070312 6.046875 7.207031.800781 12.453125C.765625 11.652344.820312 10.84375.964844 10.046875zM3.527344 4.6875L4.347656 5.507812 1.355469 8.5C1.808594 7.136719 2.535156 5.839844 3.527344 4.6875zM11.550781 23.207031L16.800781 17.957031 17.9375 19.097656 14 23.035156C13.191406 23.183594 12.371094 23.238281 11.550781 23.207031zM15.507812 22.648438L18.496094 19.65625 19.316406 20.476562C18.164062 21.472656 16.867188 22.195312 15.507812 22.648438zM15.507812 22.648438"/>
    <path d="M 20.476562 3.53125 C 16.121094 -0.828125 9.246094 -1.1875 4.449219 2.691406 C 4.328125 2.769531 4.289062 2.851562 4.289062 2.96875 C 4.289062 3.089844 4.328125 3.210938 4.410156 3.289062 L 20.714844 19.597656 C 20.796875 19.675781 20.875 19.71875 20.996094 19.71875 C 21.117188 19.675781 21.234375 19.636719 21.316406 19.558594 C 25.191406 14.761719 24.832031 7.886719 20.476562 3.53125 Z M 20.957031 18.71875 L 19.617188 17.378906 C 19.621094 17.371094 19.628906 17.367188 19.636719 17.359375 C 19.796875 17.199219 19.796875 16.960938 19.636719 16.800781 C 19.476562 16.640625 19.238281 16.640625 19.078125 16.800781 C 19.070312 16.804688 19.0625 16.8125 19.058594 16.820312 L 17.917969 15.679688 C 18.078125 15.519531 18.078125 15.28125 17.917969 15.121094 C 17.796875 14.960938 17.519531 14.960938 17.359375 15.121094 L 16.21875 13.980469 C 16.226562 13.972656 16.234375 13.96875 16.238281 13.960938 C 16.398438 13.800781 16.398438 13.5625 16.238281 13.402344 C 16.078125 13.242188 15.839844 13.242188 15.679688 13.402344 C 15.671875 13.410156 15.667969 13.414062 15.660156 13.421875 L 14.539062 12.300781 C 14.546875 12.296875 14.554688 12.289062 14.5625 12.28125 C 14.71875 12.121094 14.71875 11.882812 14.5625 11.722656 C 14.402344 11.5625 14.121094 11.5625 14 11.722656 C 13.996094 11.730469 13.988281 11.738281 13.980469 11.746094 L 12.84375 10.605469 C 13 10.445312 13 10.203125 12.84375 10.042969 C 12.683594 9.882812 12.441406 9.882812 12.28125 10.042969 L 11.140625 8.90625 C 11.148438 8.898438 11.15625 8.890625 11.164062 8.886719 C 11.324219 8.726562 11.324219 8.484375 11.164062 8.324219 C 11.003906 8.164062 10.761719 8.164062 10.605469 8.324219 C 10.597656 8.332031 10.589844 8.339844 10.585938 8.347656 L 9.445312 7.207031 C 9.605469 7.046875 9.605469 6.808594 9.445312 6.648438 C 9.285156 6.488281 9.042969 6.488281 8.886719 6.648438 L 7.746094 5.507812 C 7.75 5.5 7.757812 5.496094 7.765625 5.488281 C 7.925781 5.328125 7.925781 5.089844 7.765625 4.929688 C 7.605469 4.769531 7.367188 4.769531 7.207031 4.929688 C 7.199219 4.933594 7.191406 4.941406 7.1875 4.949219 L 6.066406 3.828125 C 6.074219 3.820312 6.082031 3.816406 6.085938 3.808594 C 6.246094 3.648438 6.246094 3.410156 6.085938 3.25 C 5.925781 3.089844 5.648438 3.089844 5.527344 3.25 C 5.519531 3.257812 5.515625 3.261719 5.507812 3.269531 L 5.289062 3.050781 C 5.867188 2.613281 6.476562 2.242188 7.109375 1.933594 C 7.128906 1.992188 7.160156 2.042969 7.207031 2.089844 C 7.367188 2.25 7.605469 2.25 7.765625 2.089844 C 7.898438 1.957031 7.921875 1.765625 7.828125 1.613281 C 10.390625 0.574219 13.222656 0.535156 15.777344 1.457031 C 15.742188 1.476562 15.710938 1.5 15.679688 1.53125 C 15.519531 1.691406 15.519531 1.929688 15.679688 2.089844 C 15.839844 2.25 16.078125 2.25 16.238281 2.089844 C 16.355469 1.972656 16.386719 1.8125 16.332031 1.671875 C 17.289062 2.074219 18.199219 2.617188 19.035156 3.296875 C 18.917969 3.453125 18.933594 3.664062 19.078125 3.808594 C 19.234375 3.96875 19.472656 3.96875 19.632812 3.8125 C 19.726562 3.902344 19.824219 3.996094 19.917969 4.089844 C 20.199219 4.375 20.464844 4.671875 20.710938 4.980469 C 20.597656 5.136719 20.613281 5.34375 20.757812 5.488281 C 20.871094 5.601562 21.027344 5.632812 21.164062 5.585938 C 21.753906 6.425781 22.214844 7.328125 22.546875 8.269531 C 22.519531 8.285156 22.496094 8.304688 22.476562 8.324219 C 22.316406 8.484375 22.316406 8.726562 22.476562 8.886719 C 22.5625 8.972656 22.671875 9.011719 22.78125 9.003906 C 22.875 9.339844 22.953125 9.683594 23.011719 10.027344 C 22.855469 9.886719 22.628906 9.890625 22.476562 10.042969 C 22.316406 10.203125 22.316406 10.445312 22.476562 10.605469 C 22.632812 10.765625 22.875 10.765625 23.035156 10.605469 C 23.058594 10.582031 23.078125 10.558594 23.09375 10.53125 C 23.222656 11.507812 23.222656 12.5 23.09375 13.476562 C 23.078125 13.449219 23.058594 13.425781 23.035156 13.402344 C 22.875 13.242188 22.632812 13.242188 22.476562 13.402344 C 22.316406 13.5625 22.316406 13.800781 22.476562 13.960938 C 22.628906 14.117188 22.855469 14.121094 23.015625 13.976562 C 22.71875 15.652344 22.03125 17.277344 20.957031 18.71875 Z M 20.957031 18.71875"/>
</svg>
