<svg xmlns="http://www.w3.org/2000/svg" width="32" height="32" viewBox="0 0 24 24">
    <path d="M12.398 1.2h-.796c-.243 0-.403.16-.403.402 0 .238.16.398.403.398h.796c.243 0 .403-.16.403-.398 0-.243-.16-.403-.403-.403zm0 0"/>
    <path d="M19.238 0H4.762c-.883 0-1.563.719-1.563 1.602v20.796c0 .883.68 1.602 1.563 1.602h14.476c.883 0 1.563-.719 1.563-1.602V1.602C20.8.719 20.12 0 19.238 0zm-6.84 22.8a.801.801 0 0 1 0-1.6.802.802 0 0 1 0 1.6zM4 3.2h16V20H4zm0 19.198v-1.597h7.344a1.598 1.598 0 0 0 0 2.398H4.762c-.403 0-.762-.36-.762-.8zm16 0c0 .442-.36.801-.762.801h-5.785a1.588 1.588 0 0 0 0-2.398H20zm-16-20v-.796C4 1.16 4.36.8 4.762.8h14.476c.403 0 .762.36.762.8v.797zm0 0"/>
    <path d="M13.906 12.266l1.836-1.47c.281.25.653.403 1.059.403.879 0 1.597-.719 1.597-1.597 0-.883-.718-1.602-1.597-1.602-.88 0-1.602.719-1.602 1.602 0 .183.035.363.094.53l-1.836 1.47a1.589 1.589 0 0 0-1.059-.403c-.55 0-1.043.285-1.328.715l-2.277-.973c.004-.046.008-.093.008-.14 0-.88-.723-1.602-1.602-1.602-.879 0-1.597.723-1.597 1.602 0 .879.718 1.597 1.597 1.597.555 0 1.043-.285 1.332-.714l2.274.976c-.004.047-.004.094-.004.14 0 .88.719 1.598 1.597 1.598.883 0 1.602-.718 1.602-1.597 0-.188-.031-.367-.094-.535zM7.2 11.602a.807.807 0 0 1-.8-.801c0-.442.363-.801.8-.801.442 0 .801.36.801.8 0 .438-.36.802-.8.802zM16.801 8.8c.437 0 .8.36.8.8a.801.801 0 0 1-1.602 0c.001-.44.36-.8.802-.8zm-4.403 4.8a.801.801 0 0 1 0-1.602c.442.001.801.36.801.802 0 .437-.36.8-.8.8zm0 0M7.602 5.602h2c.238 0 .398-.16.398-.403 0-.238-.16-.398-.398-.398h-2c-.243 0-.403.16-.403.398 0 .242.16.403.403.403zm0 0M5.602 5.602H6c.238 0 .398-.16.398-.403 0-.238-.16-.398-.398-.398h-.398c-.243 0-.403.16-.403.398 0 .242.16.403.403.403zm0 0M7.2 7.2c.241 0 .402-.16.402-.4 0-.241-.16-.402-.403-.402H5.602c-.243 0-.403.16-.403.403 0 .238.16.398.403.398zm0 0M9.602 6.398H8.8c-.242 0-.403.16-.403.403 0 .238.16.398.403.398h.8c.239 0 .399-.16.399-.398 0-.242-.16-.403-.398-.403zm0 0M18.398 16h-2c-.238 0-.398.16-.398.398 0 .243.16.403.398.403h2c.243 0 .403-.16.403-.403 0-.238-.16-.398-.403-.398zm0 0M14.398 16c-.238 0-.398.16-.398.398 0 .243.16.403.398.403h.403c.238 0 .398-.16.398-.403 0-.238-.16-.398-.398-.398zm0 0M16 17.602h-1.602c-.238 0-.398.16-.398.398 0 .238.16.398.398.398H16c.238 0 .398-.16.398-.398 0-.238-.16-.398-.398-.398zm0 0M18.398 17.602h-.796c-.243 0-.403.16-.403.398 0 .238.16.398.403.398h.796c.243 0 .403-.16.403-.398 0-.238-.16-.398-.403-.398zm0 0"/>
</svg>
