<svg xmlns="http://www.w3.org/2000/svg" width="32" height="32" viewBox="0 0 24 24">
    <path d="M23.86 22.617l-2.372-4.078c1.407-1.984 2.125-4.309 2.125-6.742C23.613 5.43 18.551.23 12.234.007L12.223 0H11.41l-.012.008C5.082.23.02 5.43.02 11.797c0 2.973 1.105 5.695 2.925 7.77a.377.377 0 0 0 .184.203c2.066 2.253 5 3.699 8.27 3.816l.011.008h.406c.301 0 .602 0 .899-.035.164.28.45.441.77.441h9.64c.324 0 .61-.164.734-.488a.893.893 0 0 0 0-.895zM7.78 17.66a14.304 14.304 0 0 1 3.63-.57v5.45a14.257 14.257 0 0 1-3.63-4.88zm3.63-1.383a14.873 14.873 0 0 0-3.938.641 14.304 14.304 0 0 1-.938-4.715h4.875zM.843 12.203h4.879c.043 1.723.382 3.399.98 4.973-1.152.418-2.258.98-3.3 1.676a10.928 10.928 0 0 1-2.56-6.649zm2.765-7.7a15.149 15.149 0 0 0 3.227 1.579 14.981 14.981 0 0 0-1.113 5.309H.843A10.937 10.937 0 0 1 3.61 4.504zm7.801 1.59a14.132 14.132 0 0 1-3.457-.527 14.218 14.218 0 0 1 3.457-4.511zM13.281.91a10.944 10.944 0 0 1 6.149 2.977 14.021 14.021 0 0 1-2.965 1.433A15.166 15.166 0 0 0 13.28.91zm2.403 4.656c-1.125.317-2.29.497-3.461.528v-5.04a14.23 14.23 0 0 1 3.46 4.512zM7.172 5.32a13.96 13.96 0 0 1-2.969-1.433A10.956 10.956 0 0 1 10.352.91a15.153 15.153 0 0 0-3.18 4.41zm-.637 6.07A14.213 14.213 0 0 1 7.61 6.329c1.23.352 2.504.547 3.801.582v4.48zm5.688-4.48c1.3-.035 2.574-.23 3.8-.586.657 1.59 1.028 3.301 1.075 5.067h-4.875zm5.691 4.48a15.092 15.092 0 0 0-1.117-5.312 14.576 14.576 0 0 0 3.215-1.59 10.955 10.955 0 0 1 2.781 6.903zm-13.96 8.067a14.025 14.025 0 0 1 3.054-1.543 15.092 15.092 0 0 0 3.344 4.77 10.959 10.959 0 0 1-6.399-3.227zm8.269-7.254h10.57c-.074 1.969-.676 3.89-1.777 5.524l-1.957-3.368a.877.877 0 0 0-.774-.449.877.877 0 0 0-.773.45l-4.84 8.257c0 .04-.043.082-.043.121-.14.02-.274.032-.406.035zm10.984 10.902s-.039.04-.082.04h-9.64c-.032 0-.063 0-.075-.016l-.008-.067v-.039l4.801-8.257a.226.226 0 0 1 .04-.036c.01-.003.023-.003.042-.003.04 0 .04 0 .082.039l2.602 4.476.011-.015 2.227 3.796c.04.04 0 .082 0 .082zm0 0"/>
    <path d="M18.324 16.68c-.242 0-.406.16-.406.406v3.254c0 .242.164.406.406.406.246 0 .406-.164.406-.406v-3.254c0-.246-.16-.406-.406-.406zm0 0M18.73 21.965a.406.406 0 1 1-.813 0 .406.406 0 0 1 .813 0zm0 0"/>
</svg>
