<svg xmlns="http://www.w3.org/2000/svg" width="32" height="32" viewBox="0 0 24 24">
    <path d="M22.973 15.574c.402-1.199.62-2.469.62-3.777C23.594 5.43 18.532.23 12.216.007L12.203 0h-.812l-.012.008C5.063.23 0 5.43 0 11.797c0 2.973 1.105 5.695 2.926 7.77a.377.377 0 0 0 .184.203c2.066 2.253 5 3.699 8.269 3.816l.012.008h.406c1.308 0 2.578-.219 3.777-.621A5.273 5.273 0 0 0 18.711 24C21.64 24 24 21.64 24 18.71a5.273 5.273 0 0 0-1.027-3.136zm-3.762-2.129a1.03 1.03 0 0 1-.11-.008c-.015 0-.03 0-.046-.003-.024 0-.051-.004-.078-.004-.028 0-.051 0-.075-.004h-.058c-.043 0-.086-.004-.133-.004-.313 0-.621.027-.918.082.059-.434.09-.867.102-1.3h4.878c-.039.91-.191 1.812-.433 2.655a5.244 5.244 0 0 0-3.113-1.41c-.004 0-.012 0-.016-.004zm-5.785 5.399v.058c.004.024.004.047.004.075 0 .027.004.054.004.078a.19.19 0 0 1 .004.047c.003.035.007.074.007.109.004.004.004.012.004.016a5.244 5.244 0 0 0 1.41 3.113c-.875.242-1.754.394-2.656.433v-10.57h4.875a15.915 15.915 0 0 1-.105 1.512 5.282 5.282 0 0 0-3.551 4.996c0 .047.004.09.004.133zM.82 12.204H5.7c.046 1.722.382 3.398.984 4.972-1.153.418-2.258.98-3.301 1.676A10.931 10.931 0 0 1 .82 12.203zm2.766-7.7a15.27 15.27 0 0 0 3.23 1.578A15.07 15.07 0 0 0 5.7 11.391H.82a10.958 10.958 0 0 1 2.766-6.887zM22.77 11.39h-4.875a15.092 15.092 0 0 0-1.118-5.313 14.576 14.576 0 0 0 3.215-1.59 10.93 10.93 0 0 1 2.778 6.903zM11.39 6.094a14.132 14.132 0 0 1-3.456-.528 14.162 14.162 0 0 1 3.457-4.511zm0 .816v4.48H6.517A14.213 14.213 0 0 1 7.59 6.329c1.226.352 2.5.547 3.8.582zm.813 0c1.3-.035 2.574-.23 3.8-.586.657 1.59 1.028 3.301 1.075 5.067h-4.875zm0-.816v-5.04a14.218 14.218 0 0 1 3.457 4.512 14.132 14.132 0 0 1-3.457.528zm4.238-.774a15.081 15.081 0 0 0-3.18-4.41 10.956 10.956 0 0 1 6.15 2.977 13.96 13.96 0 0 1-2.97 1.433zm-9.289 0a13.96 13.96 0 0 1-2.968-1.433A10.944 10.944 0 0 1 10.332.91a15.081 15.081 0 0 0-3.18 4.41zm-.636 6.883h4.875v4.074a14.821 14.821 0 0 0-3.938.641 14.205 14.205 0 0 1-.937-4.715zm4.875 4.887v5.45a14.257 14.257 0 0 1-3.63-4.88 14.304 14.304 0 0 1 3.63-.57zM3.93 19.457a14.052 14.052 0 0 1 3.058-1.543 15.092 15.092 0 0 0 3.344 4.77 10.98 10.98 0 0 1-6.402-3.227zm14.78 3.73a4.447 4.447 0 0 1-3.565-1.769 4.503 4.503 0 0 1-.907-2.574v-.008-.125a4.46 4.46 0 0 1 4.473-4.473h.133c.93.028 1.836.348 2.574.907a4.447 4.447 0 0 1 1.77 3.566 4.466 4.466 0 0 1-4.477 4.477zm0 0"/>
    <path d="M21.152 18.305H16.27a.385.385 0 0 0-.407.406c0 .246.164.406.407.406h4.882c.246 0 .407-.16.407-.406 0-.242-.16-.406-.407-.406zm0 0"/>
</svg>
