<svg xmlns="http://www.w3.org/2000/svg" width="32" height="32" viewBox="0 0 24 24">
    <path d="M23.938 19.926a8.816 8.816 0 0 0-1.918-2.238 12.002 12.002 0 0 0 1.554-5.891C23.574 5.434 18.516.238 12.207.02l-.016-.008h-.812l-.012.008C5.06.238 0 5.434 0 11.797c0 2.973 1.105 5.687 2.922 7.765a.32.32 0 0 0 .047.079.31.31 0 0 0 .136.12 11.738 11.738 0 0 0 8.262 3.813l.012.008h.406c1.156 0 2.348-.18 3.473-.512.941.602 1.969.918 3.031.918 2.113 0 4.106-1.258 5.648-3.617.083-.16.083-.324 0-.445zm-4.024-1.219c0 .895-.73 1.625-1.625 1.625-.894 0-1.625-.73-1.625-1.625 0-.773.547-1.426 1.273-1.586.223-.02.45-.023.672-.008a1.63 1.63 0 0 1 1.305 1.594zm-12.16-1.05a14.301 14.301 0 0 1 3.625-.571v5.441a14.23 14.23 0 0 1-3.625-4.87zm3.625-1.384a14.818 14.818 0 0 0-3.934.641 14.281 14.281 0 0 1-.937-4.71h4.87zM.82 12.203h4.875a15.11 15.11 0 0 0 .98 4.969 15.492 15.492 0 0 0-3.296 1.672 10.93 10.93 0 0 1-2.559-6.64zm2.766-7.691a15.01 15.01 0 0 0 3.223 1.574 15.114 15.114 0 0 0-1.114 5.305H.82a10.928 10.928 0 0 1 2.766-6.88zm7.793 1.59a14.106 14.106 0 0 1-3.453-.532 14.176 14.176 0 0 1 3.453-4.504zM13.25.922a10.948 10.948 0 0 1 6.145 2.969 14.036 14.036 0 0 1-2.965 1.437A15.084 15.084 0 0 0 13.25.922zm2.398 4.648c-1.12.32-2.285.496-3.457.532V1.066a14.132 14.132 0 0 1 3.457 4.504zm-8.503-.242A14.036 14.036 0 0 1 4.18 3.891 10.948 10.948 0 0 1 10.324.92a15.084 15.084 0 0 0-3.18 4.407zm-.637 6.063c.05-1.766.418-3.473 1.078-5.059a15.21 15.21 0 0 0 3.793.582v4.477zm5.683-4.477c1.301-.035 2.575-.23 3.797-.586a14.301 14.301 0 0 1 1.078 5.063h-4.875zm5.688 4.477a15.07 15.07 0 0 0-1.117-5.309 14.561 14.561 0 0 0 3.215-1.586 10.951 10.951 0 0 1 2.777 6.895zm-13.95 8.062A13.91 13.91 0 0 1 6.98 17.91a15.016 15.016 0 0 0 3.344 4.762 10.939 10.939 0 0 1-6.394-3.219zm8.262 3.309V12.203h10.563A10.86 10.86 0 0 1 21.34 17.2c-.953-.605-1.992-.933-3.05-.933-2.153 0-4.227 1.343-5.61 3.66a.671.671 0 0 0-.043.113l-.078.129.12.203c.524.824 1.11 1.52 1.747 2.074-.723.172-1.477.285-2.235.317zm6.059.457a4.844 4.844 0 0 1-2.3-.664l-.423-.274c-.734-.484-1.425-1.218-2.035-2.113.742-1.137 1.617-1.992 2.594-2.504a2.445 2.445 0 0 0-.234 1.043 2.446 2.446 0 0 0 2.437 2.438 2.446 2.446 0 0 0 2.438-2.438 2.42 2.42 0 0 0-.23-1.035c.245.133.483.289.718.465l.086.058a7.488 7.488 0 0 1 1.742 1.973c-1.297 1.992-3.004 3.05-4.793 3.05zm0 0"/>
</svg>
