<svg xmlns="http://www.w3.org/2000/svg" width="32" height="32" viewBox="0 0 24 24">
    <path d="M23.992 17.48c-.082-.851-.453-1.582-1-2.097.348-1.16.555-2.356.555-3.586C23.547 5.44 18.492.254 12.19.03L12.18.023H11.367l-.012.008a11.747 11.747 0 0 0-8.043 3.582.464.464 0 0 0-.144.145c-.008.008-.012.02-.016.027A11.717 11.717 0 0 0 0 11.797c0 2.969 1.102 5.683 2.922 7.754a.207.207 0 0 0 .043.082.31.31 0 0 0 .137.12 11.74 11.74 0 0 0 8.253 3.81l.012.007h.406c1.739 0 3.438-.367 5-1.101l1.618 1.386a.458.458 0 0 0 .324.122c.12 0 .246-.04.324-.122l3.332-2.925c.77-.606 1.258-1.418 1.543-2.352.121-.61.078-.976.078-1.098zm-16.246.172a14.073 14.073 0 0 1 3.621-.57v5.434a14.14 14.14 0 0 1-3.62-4.864zm3.621-1.382c-1.344.035-2.66.25-3.93.636-.57-1.484-.89-3.07-.937-4.703h4.867zM.82 12.203h4.867c.047 1.719.383 3.395.981 4.961a15.48 15.48 0 0 0-3.293 1.676A10.948 10.948 0 0 1 .82 12.203zM3.582 4.52a14.982 14.982 0 0 0 3.219 1.574 15.09 15.09 0 0 0-1.114 5.297H.82A10.912 10.912 0 0 1 3.582 4.52zm7.785 1.59a14.342 14.342 0 0 1-3.457-.52 14.218 14.218 0 0 1 3.457-4.512zM13.234.933a10.956 10.956 0 0 1 6.125 2.949 14.154 14.154 0 0 1-2.953 1.441 15.061 15.061 0 0 0-3.172-4.39zm2.391 4.636c-1.117.317-2.277.5-3.445.535V1.078a14.15 14.15 0 0 1 3.445 4.492zm-8.492-.222a13.974 13.974 0 0 1-2.973-1.43A10.903 10.903 0 0 1 10.312.934a14.977 14.977 0 0 0-3.18 4.414zM6.5 11.39c.05-1.762.418-3.47 1.074-5.055 1.227.355 2.496.55 3.793.582v4.473zm5.68-4.473c1.297-.031 2.57-.23 3.789-.582a14.175 14.175 0 0 1 1.078 5.055H12.18zm5.68 4.473a15.068 15.068 0 0 0-1.118-5.305 14.08 14.08 0 0 0 3.2-1.598 10.84 10.84 0 0 1 2.785 6.903zM3.921 19.44a14.247 14.247 0 0 1 3.05-1.539 15.094 15.094 0 0 0 3.34 4.758 10.94 10.94 0 0 1-6.39-3.219zm8.258 3.309V12.203h10.547a9.934 9.934 0 0 1-.438 2.68 2.514 2.514 0 0 0-.238-.094 2.72 2.72 0 0 0-.91-.187c-.04-.004-.075-.004-.11-.004-.976 0-1.789.57-2.316 1.3-.527-.73-1.34-1.3-2.313-1.3-.34 0-.66.058-.965.168-.042.015-.085.03-.124.05-.211.086-.41.2-.598.332a3.097 3.097 0 0 0-1.02 1.313 3.553 3.553 0 0 0-.258 1.02 1.01 1.01 0 0 0-.03.187c-.016.187 0 .488.113.91.203.89.73 1.703 1.46 2.352l1.094.937c-1.219.551-2.539.836-3.894.883zm10.922-4.297c-.165.735-.61 1.383-1.22 1.91l-3.124 2.719-3.207-2.758c-.61-.531-1.059-1.18-1.219-1.91-.121-.488-.082-.77-.082-.77.121-1.058.895-2.152 2.152-2.152.524 0 .989.25 1.352.606.238.242.43.527.555.816l.367.852.258-.633a.49.49 0 0 0 .148-.18c.324-.73 1.055-1.46 1.95-1.46 1.257 0 2.027 1.093 2.148 2.19 0 0 .043.286-.078.77zm0 0"/>
</svg>
