<svg xmlns="http://www.w3.org/2000/svg" width="32" height="32" viewBox="0 0 24 24">
    <path d="M24 12c0-1.688-.355-3.297-.988-4.754-.024-.05-.043-.101-.067-.148a.271.271 0 0 1-.02-.051 12.065 12.065 0 0 0-5.222-5.598l-.223-.117c-.015-.004-.027-.012-.039-.02-.07-.035-.14-.07-.214-.105l-.188-.09c-.02-.008-.039-.02-.059-.027a4.246 4.246 0 0 0-.195-.086l-.027-.016a11.91 11.91 0 0 0-2.781-.824c-.082-.012-.16-.027-.243-.039a12.343 12.343 0 0 0-.652-.074l-.11-.012a1.699 1.699 0 0 0-.144-.008L12.684.02c-.043 0-.082-.004-.125-.008-.059 0-.118-.004-.176-.004-.035-.004-.067-.004-.102-.004C12.187 0 12.094 0 12 0c-1.309 0-2.566.203-3.773.613a12.099 12.099 0 0 0-6.934 5.98.39.39 0 0 0-.094.087.373.373 0 0 0-.066.25A11.872 11.872 0 0 0 0 12c0 5.066 3.184 9.426 7.648 11.18a.349.349 0 0 0 .114.058c.3.11.61.207.922.293.968.282 1.988.442 3.039.465.093.004.183.004.277.004.098 0 .191 0 .29-.004h.03c.895-.023 1.785-.14 2.68-.355a.525.525 0 0 0 .094-.047C20.207 22.219 24 17.53 24 12zm-8.36-1.559a1.132 1.132 0 0 0-.402-.082c-.238 0-.558.121-1.078.282-.12.039-.2.078-.281.12-.04-.241-.2-.562-.64-.722a.769.769 0 0 0-.52 0c-.278.121-.36.402-.438.64v.083c-.16-.121-.242-.32-.32-.524-.2-.558-.52-1.117-1.723-.84-.36.082-.597.122-.758.16.32-.519.88-1.437.442-2.48V7.04c.238.082.598.242.84.36.879.402 1.437.64 1.84.48.476-.16.796-.559.918-1.078.12-.563 0-1.121-.36-1.52-.2-.242-.398-.242-.558-.242h-.082c.16-.16.32-.277.48-.36.281-.12.559-.077.8.16.321.321.72.4 1.122.282.797-.242 1.36-1.32 1.476-2.2a2.513 2.513 0 0 0-.113-1.265 11.34 11.34 0 0 1 2.84 1.719 26.03 26.03 0 0 1-.766 2.258A1.81 1.81 0 0 0 18 5.602c-1.121 0-2 .878-2 2 0 .695.34 1.296.867 1.656-.265.601-.539 1.187-.82 1.762-.063-.227-.156-.442-.406-.579zm-3.878-3.52c.437-.042.68-.48.84-.8.039-.082.078-.121.117-.2.12.2.12.438.082.68-.04.118-.121.438-.403.52-.078 0-.359-.082-.636-.2zM10 1.72c.078-.32.04-.52 0-.719 1.559-.238 3.2-.2 4.719.2-.2.081-.48.198-.797.32-.48.199-1.082.44-1.32.44-1.043 0-1.801.599-2.48 1.118-.763.602-1.481 1.121-2.52.844.117-.242.437-.442.878-.684.641-.316 1.36-.718 1.52-1.52zm9.2 5.883c0 .68-.52 1.199-1.2 1.199-.68 0-1.2-.52-1.2-1.2 0-.68.52-1.203 1.2-1.203.68 0 1.2.524 1.2 1.204zm-1.2 2c1.121 0 2-.883 2-2 0-.707-.348-1.317-.887-1.672.313-.832.532-1.504.676-1.961a11.252 11.252 0 0 1 3.027 5.14c-.015.223-.015.504-.015.813 0 .398 0 1.039-.082 1.398-.04-.039-.04-.039-.078-.082-.36-.476-.922-1.078-1.52-.918-.68.16-.8 1.121-.922 1.961-.039.2-.078.48-.12.559-.317.48-.68.719-1.2.719-.902 0-1.91-.739-2.457-1.493.406-.808.8-1.644 1.172-2.507.129.027.265.043.406.043zm-1.996 3.27c.695.8 1.766 1.526 2.836 1.526.762 0 1.441-.398 1.922-1.117.078-.16.117-.402.199-.883.039-.359.16-1.199.32-1.32 0 0 .2 0 .68.64.117.204.48.68.96.52a.657.657 0 0 0 .278-.191 11.089 11.089 0 0 1-1.289 5.152c-2.523-.02-4.996-.793-7.289-1.933a39.17 39.17 0 0 0 1.383-2.395zm-9.2-10.786c-.077.219-.124.39-.124.516 0 .16.12.32.32.359.2.039.281-.082.52-.281 1.082-1 1.558-1.282 1.761-1.36 0 .04-.043.121-.043.2-.078.44-.597.68-1.117.96-.64.36-1.48.801-1.402 1.72 0 .16.082.32.242.359 1.64.64 2.68-.16 3.598-.88.68-.519 1.242-.96 2.043-.96.437 0 1-.239 1.636-.52.32-.16.84-.36 1.043-.398.32.281.32.719.278 1-.079.758-.559 1.437-.918 1.558-.082.04-.16.04-.282-.078-.48-.441-1.078-.601-1.68-.32-.878.398-1.48 1.48-1.44 2.598 0 .082.042.12.081.203-.082-.043-.12-.043-.199-.082-.883-.399-1.52-.68-1.883-.32-.316.359-.117.84-.039 1.038.281.68-.078 1.282-.36 1.762-.237.36-.44.68-.198 1 .238.36.757.32 1.84.04.64-.122.64-.04.8.359.078.28.2.601.559.882.082.079.398.32.762.2.359-.121.437-.442.52-.68.038-.04.038-.04.038-.082.04 0 .04.082.04.16.038.121.038.402.28.52.282.16.56.043 1.122-.2.398-.199.597-.199.636-.199.043.078.082.2.082.32.028.196.075.41.172.633a41.612 41.612 0 0 1-1.597 2.774c-2.485-1.34-4.727-3.078-6.551-4.696.164-.289.258-.629.258-.992 0-1.12-.883-2-2-2-.372 0-.715.098-1.008.266a37.203 37.203 0 0 1-1.727-1.926 11.32 11.32 0 0 1 3.938-3.453zm6.434 15.434l.64 1.199c.083.12.2.203.36.203h2.364l-.364 1.156-1.277 1.043c-.082.04-.16.16-.16.238l-.281 1.551c-.81.192-1.653.29-2.52.29-1.238 0-2.43-.204-3.543-.579.469-.39.938-.808 1.387-1.258.281.153.61.239.957.239 1.12 0 2-.883 2-2 0-.45-.14-.86-.383-1.188.246-.312.492-.637.73-.965zM12 19.602c0 .68-.52 1.199-1.2 1.199-.679 0-1.198-.52-1.198-1.2 0-.68.52-1.203 1.199-1.203.68 0 1.199.524 1.199 1.204zm-.18-1.727a1.99 1.99 0 0 0-1.02-.273c-1.12 0-2 .878-2 2 0 .472.157.906.427 1.246-.415.398-.832.773-1.258 1.132l-.649-1.3c-.082-.121-.199-.239-.32-.239l-1.441-.203-2.063-.972a9.28 9.28 0 0 1-.3-.364l-.356-1.62 1.039-1.403.773-.383c-.004.004-.007.016-.011.024l.078-.04c.043 0 .043-.039.082-.039l.078-.043.023-.011 2.38-.547 1 .719c.038 0 .077.043.116.043l1.48.476H10l1.281-.039 1.219.922c-.223.309-.45.613-.68.914zm-4.629 4.234a11.43 11.43 0 0 1-1.785-1.07h.035l1.32.16zm4.45-6.75a.435.435 0 0 0-.243-.078l-1.359.04-1.36-.442-1.12-.758a.309.309 0 0 0-.32-.082l-.52.121a.435.435 0 0 0-.239-.12L6.078 14c-.078 0-.156 0-.238.04l-1.238.6c-.012 0-.016 0-.024.005l-.137.035a.38.38 0 0 0-.16.117l-.84.402c-.082.04-.12.082-.16.121l-1.199 1.64a.258.258 0 0 0-.066.095 11.086 11.086 0 0 1-1.043-3.102c.129-.117.257-.215.386-.312.32-.243.641-.48.961-1.082.32-.52.282-.797.16-1.2-.039-.238-.12-.52-.082-1.039.043-.68.043-.879 0-1.082-.039-.16-.039-.316 0-1 .032-.726-.078-1.09-.34-1.379.11-.21.227-.418.348-.617a32.77 32.77 0 0 0 1.574 1.77 2.02 2.02 0 0 0-.378 1.187c0 1.121.878 2 2 2 .46 0 .886-.152 1.222-.406 1.84 1.633 4.114 3.395 6.64 4.766-.175.265-.35.523-.527.78zM5.6 10.4a1.18 1.18 0 0 1-1.203-1.2C4.398 8.52 4.922 8 5.602 8c.68 0 1.199.52 1.199 1.2 0 .679-.52 1.198-1.2 1.198zM1.606 7.843c.004.097.004.215-.003.355-.043.762-.043.961 0 1.16.039.16.039.32 0 .922-.043.64.039 1 .117 1.278.082.28.082.363-.078.64a2.25 2.25 0 0 1-.762.84c-.008.008-.02.016-.027.024a11.092 11.092 0 0 1 .754-5.219zm13.782 14.828l.172-1.031 1.28-1.04c.04-.081.083-.12.122-.203l.52-1.757a.394.394 0 0 0-.04-.36c-.082-.082-.203-.16-.32-.16h-2.64l-.602-1.043-.117-.117-.172-.129a39.6 39.6 0 0 0 .601-.895c2.278 1.145 4.739 1.95 7.262 2.051a11.284 11.284 0 0 1-6.066 4.684zm0 0"/>
</svg>
