<svg xmlns="http://www.w3.org/2000/svg" width="32" height="32" viewBox="0 0 24 24">
    <path d="M 22.832031 15.957031 C 23.339844 14.640625 23.59375 13.21875 23.59375 11.796875 C 23.59375 5.429688 18.53125 0.230469 12.214844 0.0078125 L 12.203125 0 L 12 0 C 11.960938 0 11.878906 0 11.835938 0 C 11.835938 0 11.832031 0 11.828125 0 C 11.816406 0 11.808594 0 11.796875 0 C 11.757812 0 11.675781 0 11.632812 0 L 11.390625 0 L 11.378906 0.0078125 C 5.0625 0.230469 0 5.429688 0 11.796875 C 0 14.769531 1.105469 17.492188 2.925781 19.566406 C 2.9375 19.597656 2.953125 19.625 2.96875 19.648438 C 3.007812 19.703125 3.054688 19.742188 3.109375 19.769531 C 5.175781 22.023438 8.109375 23.46875 11.378906 23.585938 L 11.390625 23.59375 L 11.632812 23.59375 C 11.675781 23.59375 11.757812 23.59375 11.796875 23.59375 C 13.238281 23.59375 14.675781 23.332031 15.976562 22.84375 C 16.828125 23.566406 17.925781 24 19.117188 24 C 21.804688 24 24 21.804688 24 19.117188 C 24 17.914062 23.558594 16.8125 22.832031 15.957031 Z M 19.359375 14.242188 C 19.339844 14.242188 19.316406 14.242188 19.296875 14.242188 C 19.238281 14.238281 19.179688 14.238281 19.117188 14.238281 C 18.601562 14.238281 18.101562 14.320312 17.632812 14.46875 C 17.789062 13.679688 17.871094 12.96875 17.894531 12.203125 L 22.773438 12.203125 C 22.738281 13.28125 22.570312 14.324219 22.210938 15.335938 C 21.402344 14.671875 20.457031 14.3125 19.445312 14.25 C 19.414062 14.246094 19.386719 14.246094 19.359375 14.242188 Z M 7.761719 17.660156 C 8.933594 17.316406 10.148438 17.125 11.390625 17.089844 L 11.390625 22.539062 C 9.820312 21.167969 8.59375 19.503906 7.761719 17.660156 Z M 11.390625 16.277344 C 10.042969 16.3125 8.722656 16.53125 7.453125 16.917969 C 6.882812 15.429688 6.558594 13.839844 6.515625 12.203125 L 11.390625 12.203125 Z M 0.820312 12.203125 L 5.699219 12.203125 C 5.746094 13.925781 6.082031 15.601562 6.683594 17.175781 C 5.53125 17.59375 4.425781 18.15625 3.382812 18.851562 C 1.859375 17.039062 0.914062 14.730469 0.820312 12.203125 Z M 3.585938 4.503906 C 4.605469 5.160156 5.6875 5.6875 6.816406 6.082031 C 6.132812 7.75 5.75 9.542969 5.699219 11.390625 L 0.820312 11.390625 C 0.917969 8.753906 1.945312 6.351562 3.585938 4.503906 Z M 22.769531 11.390625 L 17.894531 11.390625 C 17.84375 9.542969 17.460938 7.746094 16.777344 6.078125 C 17.90625 5.683594 18.984375 5.152344 19.992188 4.488281 C 21.640625 6.335938 22.675781 8.746094 22.769531 11.390625 Z M 16.441406 5.320312 C 15.667969 3.6875 14.59375 2.191406 13.261719 0.910156 C 15.632812 1.226562 17.765625 2.304688 19.410156 3.886719 C 18.476562 4.484375 17.480469 4.960938 16.441406 5.320312 Z M 11.390625 6.09375 C 10.21875 6.0625 9.054688 5.882812 7.933594 5.566406 C 8.757812 3.867188 9.921875 2.332031 11.390625 1.054688 Z M 12.203125 1.019531 C 13.6875 2.300781 14.867188 3.847656 15.695312 5.558594 C 14.5625 5.878906 13.386719 6.0625 12.203125 6.09375 Z M 7.152344 5.320312 C 6.113281 4.960938 5.117188 4.484375 4.183594 3.886719 C 5.824219 2.304688 7.960938 1.226562 10.332031 0.910156 C 9 2.191406 7.925781 3.6875 7.152344 5.320312 Z M 6.515625 11.390625 C 6.5625 9.625 6.933594 7.914062 7.589844 6.328125 C 8.816406 6.679688 10.089844 6.875 11.390625 6.910156 L 11.390625 11.390625 Z M 12.203125 6.910156 C 13.515625 6.875 14.804688 6.675781 16.039062 6.3125 C 16.699219 7.90625 17.070312 9.621094 17.121094 11.390625 L 12.203125 11.390625 Z M 3.929688 19.457031 C 4.894531 18.8125 5.921875 18.296875 6.988281 17.914062 C 7.773438 19.6875 8.902344 21.308594 10.332031 22.683594 C 7.835938 22.347656 5.605469 21.175781 3.929688 19.457031 Z M 12.203125 22.773438 L 12.203125 12.203125 L 17.121094 12.203125 C 17.09375 13.089844 16.976562 13.878906 16.746094 14.859375 C 15.253906 15.695312 14.238281 17.292969 14.238281 19.117188 C 14.238281 19.179688 14.238281 19.238281 14.242188 19.296875 C 14.242188 19.316406 14.242188 19.339844 14.242188 19.359375 C 14.246094 19.386719 14.246094 19.414062 14.25 19.445312 C 14.3125 20.457031 14.671875 21.402344 15.335938 22.210938 C 14.324219 22.535156 13.28125 22.730469 12.203125 22.773438 Z M 19.117188 23.1875 C 16.882812 23.1875 15.050781 21.355469 15.050781 19.117188 C 15.050781 16.890625 16.867188 15.066406 19.089844 15.050781 C 20.226562 15.054688 21.277344 15.5 22.046875 16.3125 L 22.15625 16.417969 C 22.796875 17.140625 23.1875 18.085938 23.1875 19.117188 C 23.1875 21.355469 21.355469 23.1875 19.117188 23.1875 Z M 19.117188 23.1875"/>
    <path d="M 21.558594 18.710938 L 19.527344 18.710938 L 19.527344 16.679688 C 19.527344 16.433594 19.363281 16.269531 19.117188 16.269531 C 18.875 16.269531 18.710938 16.433594 18.710938 16.679688 L 18.710938 19.117188 C 18.710938 19.363281 18.875 19.527344 19.117188 19.527344 L 21.558594 19.527344 C 21.804688 19.527344 21.964844 19.363281 21.964844 19.117188 C 21.964844 18.875 21.804688 18.710938 21.558594 18.710938 Z M 21.558594 18.710938"/>
</svg>
