<svg xmlns="http://www.w3.org/2000/svg" width="32" height="32" viewBox="0 0 24 24">
    <path d="M 20.398438 19.578125 L 8.398438 19.578125 C 8.160156 19.578125 8 19.738281 8 19.980469 C 8 20.21875 8.160156 20.378906 8.398438 20.378906 L 20.398438 20.378906 C 20.640625 20.378906 20.800781 20.21875 20.800781 19.980469 C 20.800781 19.738281 20.640625 19.578125 20.398438 19.578125 Z M 20.398438 19.578125"/>
    <path d="M8.800781 21.179688L3.601562 21.179688C2.921875 21.179688 2.398438 20.660156 2.398438 19.980469 2.398438 19.300781 2.921875 18.78125 3.601562 18.78125L12.800781 18.78125C13.039062 18.78125 13.199219 18.621094 13.199219 18.378906 13.199219 18.140625 13.039062 17.980469 12.800781 17.980469L3.601562 17.980469C2.480469 17.980469 1.601562 18.859375 1.601562 19.980469 1.601562 21.101562 2.480469 21.980469 3.601562 21.980469L8.800781 21.980469C9.039062 21.980469 9.199219 21.820312 9.199219 21.578125 9.199219 21.339844 9.039062 21.179688 8.800781 21.179688zM20.398438 17.980469L14.800781 17.980469C14.558594 17.980469 14.398438 18.140625 14.398438 18.378906 14.398438 18.621094 14.558594 18.78125 14.800781 18.78125L20.398438 18.78125C20.640625 18.78125 20.800781 18.621094 20.800781 18.378906 20.800781 18.140625 20.640625 17.980469 20.398438 17.980469zM14.800781 21.179688L10.800781 21.179688C10.558594 21.179688 10.398438 21.339844 10.398438 21.578125 10.398438 21.820312 10.558594 21.980469 10.800781 21.980469L14.800781 21.980469C15.039062 21.980469 15.199219 21.820312 15.199219 21.578125 15.199219 21.339844 15.039062 21.179688 14.800781 21.179688zM20.398438 21.179688L16.800781 21.179688C16.558594 21.179688 16.398438 21.339844 16.398438 21.578125 16.398438 21.820312 16.558594 21.980469 16.800781 21.980469L20.398438 21.980469C20.640625 21.980469 20.800781 21.820312 20.800781 21.578125 20.800781 21.339844 20.640625 21.179688 20.398438 21.179688zM20.398438 21.179688"/>
    <path d="M4 19.578125C3.761719 19.578125 3.601562 19.738281 3.601562 19.980469 3.601562 20.21875 3.761719 20.378906 4 20.378906L6.398438 20.378906C6.640625 20.378906 6.800781 20.21875 6.800781 19.980469 6.800781 19.738281 6.640625 19.578125 6.398438 19.578125zM11.960938 10.820312C11.039062 10.820312 10.039062 9.941406 9.359375 8.621094 9.28125 8.421875 9.039062 8.378906 8.839844 8.460938 8.640625 8.539062 8.601562 8.78125 8.679688 8.980469 9.320312 10.21875 10.519531 11.578125 12 11.578125 12.238281 11.578125 12.359375 11.460938 12.359375 11.21875 12.359375 10.980469 12.199219 10.820312 11.960938 10.820312zM11.960938 10.820312"/>
    <path d="M 23.601562 12.378906 L 14.460938 12.378906 C 14.964844 12.039062 15.425781 11.605469 15.828125 11.113281 C 16.019531 11.160156 16.210938 11.179688 16.398438 11.179688 C 17.71875 11.179688 18.800781 10.101562 18.839844 8.699219 C 18.839844 7.828125 18.34375 7.023438 17.59375 6.613281 C 17.597656 6.535156 17.601562 6.457031 17.601562 6.378906 C 17.601562 6.140625 17.441406 5.980469 17.199219 5.980469 L 6.800781 5.980469 C 6.558594 5.980469 6.398438 6.140625 6.398438 6.378906 C 6.398438 8.585938 7.671875 11.117188 9.539062 12.378906 L 0.398438 12.378906 C 0.160156 12.378906 0 12.539062 0 12.78125 L 0 16.78125 C 0 17.019531 0.160156 17.179688 0.398438 17.179688 L 1.328125 17.179688 C 0.515625 17.839844 0 18.84375 0 19.980469 C 0 21.980469 1.601562 23.578125 3.601562 23.578125 L 23.199219 23.578125 C 23.359375 23.578125 23.480469 23.5 23.558594 23.378906 C 23.640625 23.261719 23.640625 23.101562 23.558594 22.980469 C 23.039062 22.058594 22.761719 21.019531 22.761719 19.980469 C 22.761719 19.015625 23 18.050781 23.453125 17.179688 L 23.601562 17.179688 C 23.839844 17.179688 24 17.019531 24 16.78125 L 24 12.78125 C 24 12.539062 23.839844 12.378906 23.601562 12.378906 Z M 23.199219 16.378906 L 21.601562 16.378906 L 21.601562 13.179688 L 23.199219 13.179688 Z M 20.800781 13.179688 L 20.800781 16.378906 L 20 16.378906 L 20 13.179688 Z M 18 8.78125 C 18 9.660156 17.238281 10.421875 16.359375 10.378906 C 16.625 9.984375 16.839844 9.554688 17.019531 9.109375 C 17.226562 8.609375 17.382812 8.09375 17.480469 7.582031 C 17.800781 7.902344 18 8.339844 18 8.78125 Z M 7.199219 6.78125 L 16.800781 6.78125 C 16.777344 7.0625 16.734375 7.351562 16.667969 7.636719 C 16.664062 7.65625 16.660156 7.675781 16.65625 7.695312 C 16.648438 7.726562 16.640625 7.753906 16.632812 7.785156 C 16.460938 8.464844 16.175781 9.140625 15.804688 9.765625 C 15.800781 9.769531 15.796875 9.777344 15.796875 9.78125 C 15.777344 9.808594 15.761719 9.835938 15.746094 9.859375 C 14.855469 11.292969 13.492188 12.378906 12 12.378906 C 9.519531 12.378906 7.398438 9.378906 7.199219 6.78125 Z M 19.199219 13.179688 L 19.199219 16.378906 L 6.398438 16.378906 L 6.398438 13.179688 Z M 5.601562 13.179688 L 5.601562 16.378906 L 4 16.378906 L 4 13.179688 Z M 0.800781 13.179688 L 3.199219 13.179688 L 3.199219 16.378906 L 0.800781 16.378906 Z M 22.558594 22.78125 L 3.601562 22.78125 C 2.039062 22.78125 0.800781 21.539062 0.800781 19.980469 C 0.800781 18.421875 2.039062 17.179688 3.601562 17.179688 L 22.558594 17.179688 C 22.160156 18.058594 21.960938 19.019531 21.960938 19.980469 C 21.960938 20.941406 22.160156 21.898438 22.558594 22.78125 Z M 22.558594 22.78125"/>
    <path d="M8.800781 15.179688L16.398438 15.179688C16.640625 15.179688 16.800781 15.019531 16.800781 14.78125 16.800781 14.539062 16.640625 14.378906 16.398438 14.378906L8.800781 14.378906C8.558594 14.378906 8.398438 14.539062 8.398438 14.78125 8.398438 15.019531 8.558594 15.179688 8.800781 15.179688zM11.199219 3.101562C11.199219 3.5 11.359375 3.859375 11.71875 4.261719 11.800781 4.339844 11.878906 4.378906 12 4.378906 12.078125 4.378906 12.199219 4.339844 12.238281 4.261719 12.441406 4.101562 12.441406 3.859375 12.28125 3.699219 12.160156 3.578125 12 3.339844 12 3.140625 12 2.980469 12.121094 2.820312 12.28125 2.660156 12.640625 2.300781 12.800781 1.941406 12.800781 1.539062 12.800781 1.179688 12.601562.820312 12.28125.539062 12.121094.378906 11.878906.378906 11.71875.539062 11.558594.699219 11.558594.941406 11.71875 1.101562 11.921875 1.261719 12 1.421875 12 1.578125 12 1.78125 11.839844 1.980469 11.71875 2.101562 11.398438 2.378906 11.199219 2.738281 11.199219 3.101562zM14 3.101562C14 3.5 14.160156 3.859375 14.519531 4.261719 14.601562 4.339844 14.679688 4.378906 14.800781 4.378906 14.878906 4.378906 15 4.339844 15.039062 4.261719 15.238281 4.101562 15.238281 3.859375 15.078125 3.699219 14.960938 3.578125 14.800781 3.339844 14.800781 3.140625 14.800781 2.980469 14.921875 2.820312 15.078125 2.660156 15.441406 2.300781 15.601562 1.941406 15.601562 1.539062 15.601562 1.179688 15.398438.820312 15.078125.539062 14.921875.378906 14.679688.378906 14.519531.539062 14.359375.699219 14.359375.941406 14.519531 1.101562 14.71875 1.261719 14.800781 1.421875 14.800781 1.578125 14.800781 1.78125 14.640625 1.980469 14.519531 2.101562 14.199219 2.378906 14 2.738281 14 3.101562zM8.398438 3.101562C8.398438 3.5 8.558594 3.859375 8.921875 4.261719 9 4.339844 9.078125 4.378906 9.199219 4.378906 9.28125 4.378906 9.398438 4.339844 9.441406 4.261719 9.640625 4.101562 9.640625 3.859375 9.480469 3.699219 9.359375 3.578125 9.199219 3.339844 9.199219 3.140625 9.199219 2.980469 9.320312 2.820312 9.480469 2.660156 9.839844 2.300781 10 1.941406 10 1.539062 10 1.179688 9.800781.820312 9.480469.539062 9.320312.378906 9.078125.378906 8.921875.539062 8.761719.699219 8.761719.941406 8.921875 1.101562 9.121094 1.261719 9.199219 1.421875 9.199219 1.578125 9.199219 1.78125 9.039062 1.980469 8.921875 2.101562 8.601562 2.378906 8.398438 2.738281 8.398438 3.101562zM8.398438 3.101562"/>
</svg>
