<svg xmlns="http://www.w3.org/2000/svg" width="32" height="32" viewBox="0 0 24 24">
    <path d="M22.23 8.395a.458.458 0 0 0-.12-.325.366.366 0 0 0-.282-.117h-.422c.016-.133.024-.262.024-.402 0-1.606-1.246-2.969-2.852-3.172-.2-1.602-1.523-2.848-3.168-2.848.082-.16.2-.281.281-.441.16-.2.16-.52 0-.762a.738.738 0 0 0-.722-.32c-1.004.199-1.926.722-2.567 1.523H12.2A3.18 3.18 0 0 0 9.031 4.38 3.183 3.183 0 0 0 6.184 7.55c0 .14.007.27.023.402h-.426c-.12 0-.199.04-.281.16a.369.369 0 0 0-.121.282L5.5 10.8c0 .027.004.054.012.082l.02.39c-2.177.508-3.762 2.461-3.762 4.704a4.81 4.81 0 0 0 4.265 4.785l.106 1.996c.043.68.605 1.242 1.324 1.242h12.32c.68 0 1.281-.523 1.324-1.203l.118-1.524v-.015zm-15.527.359h14.684l-.121 1.605H6.305l-.082-1.605zm.082 10.871l-.039-1.203h-.023l-.375-7.262h14.855l-.75 9.672H6.848zm.2-12.074A2.412 2.412 0 0 1 9.39 5.145c.242 0 .402-.16.402-.403a2.412 2.412 0 0 1 2.406-2.406c.121 0 .242 0 .403.039.12 0 .28-.04.359-.16A3.401 3.401 0 0 1 14.93.852c-.203.32-.364.68-.48 1.043-.044.16 0 .28.077.398.082.121.243.16.364.121.199-.039.359-.078.52-.078a2.412 2.412 0 0 1 2.405 2.406c0 .242.16.403.403.403a2.412 2.412 0 0 1 2.406 2.406c0 .12 0 .281-.04.402H7.024c-.039-.121-.039-.281-.039-.402zM2.57 15.977c0-1.844 1.282-3.407 3.004-3.891l.047.84a3.19 3.19 0 0 0-2.246 3.05c0 1.524 1.121 2.848 2.566 3.169l.04.804c-1.926-.281-3.41-1.969-3.41-3.972zm1.606 0c0-.997.59-1.848 1.488-2.22l.242 4.532c-1.004-.309-1.73-1.234-1.73-2.312zm3.289 7.222c-.281 0-.52-.203-.52-.484l-.058-1.121h13.457l-.078 1.12c-.04.282-.243.485-.524.485zm0 0"/>
</svg>
