<svg xmlns="http://www.w3.org/2000/svg" width="32" height="32" viewBox="0 0 24 24">
    <path d="M18 22.238L16.8 9.04a1.607 1.607 0 0 0-1.6-1.437V6h.402c.68 0 1.199-.52 1.199-1.2C16.8 2.16 14.64 0 12 0 9.36 0 7.2 2.16 7.2 4.8c0 .68.519 1.2 1.202 1.2h.399v1.602c-.84 0-1.52.636-1.602 1.437L6 22.24c-.04.44.082.921.402 1.241.317.32.758.52 1.2.52h8.8c.438 0 .88-.2 1.2-.52.277-.359.437-.8.398-1.242zM8.402 5.2C8.16 5.2 8 5.04 8 4.801c0-2.2 1.8-4 4-4s4 1.8 4 4c0 .238-.16.398-.398.398zm1.2.801h4.8v1.602h-4.8zM17 22.922c-.16.2-.36.277-.598.277h-8.8c-.243 0-.442-.12-.602-.277a.666.666 0 0 1-.2-.602L8 9.121a.82.82 0 0 1 .8-.723h6.4c.402 0 .76.32.8.723l1.2 13.2c.042.199-.04.44-.2.6zm0 0"/>
    <path d="M12 1.602c-.238 0-.398.16-.398.398 0 .238.16.398.398.398.242 0 .402-.16.402-.398 0-.238-.16-.398-.402-.398zm0 0M13.602 2c-.243 0-.403.16-.403.398 0 .243.16.403.403.403.238 0 .398-.16.398-.403C14 2.16 13.84 2 13.602 2zm0 0M10.402 2c-.242 0-.402.16-.402.398 0 .243.16.403.402.403.239 0 .399-.16.399-.403 0-.238-.16-.398-.399-.398zm0 0M12.402 13.2c.637 0 1.2.198 1.758.679.16.16.402.121.563-.04.156-.16.117-.398-.043-.558-.72-.601-1.438-.883-2.278-.883-2 0-3.601 1.602-3.601 3.602 0 2 1.601 3.602 3.601 3.602.84 0 1.559-.282 2.239-.922.16-.16.199-.399.039-.559-.16-.16-.399-.2-.559-.043-.52.524-1.082.723-1.719.723A2.783 2.783 0 0 1 9.602 16c0-1.559 1.238-2.8 2.8-2.8zm0 0"/>
</svg>
