<svg xmlns="http://www.w3.org/2000/svg" width="32" height="32" viewBox="0 0 24 24">
    <path d="M 20 3.199219 L 18.953125 3.199219 L 16.761719 0.320312 C 16.601562 0.121094 16.359375 0 16.121094 0 L 7.921875 0 C 7.679688 0 7.441406 0.121094 7.28125 0.320312 L 5.058594 3.199219 L 4 3.199219 C 3.558594 3.199219 3.199219 3.558594 3.199219 4 L 3.199219 5.601562 C 3.199219 6.039062 3.558594 6.398438 4 6.398438 L 4.472656 6.398438 L 4.695312 8.894531 C 4.601562 8.945312 4.511719 9.007812 4.441406 9.078125 C 4.28125 9.28125 4.199219 9.480469 4.238281 9.71875 L 5.199219 20.039062 C 5.230469 20.394531 5.472656 20.671875 5.792969 20.765625 L 6.039062 23.28125 C 6.078125 23.679688 6.398438 24 6.839844 24 L 17.160156 24 C 17.558594 24 17.921875 23.679688 17.921875 23.28125 L 18.164062 20.773438 C 18.507812 20.695312 18.765625 20.410156 18.800781 20.039062 L 19.761719 9.71875 C 19.800781 9.480469 19.71875 9.238281 19.558594 9.078125 C 19.488281 8.992188 19.402344 8.925781 19.304688 8.878906 L 19.527344 6.398438 L 20 6.398438 C 20.441406 6.398438 20.800781 6.039062 20.800781 5.601562 L 20.800781 4 C 20.800781 3.558594 20.441406 3.199219 20 3.199219 Z M 7.921875 0.800781 L 16.078125 0.800781 L 17.921875 3.199219 L 6.039062 3.199219 Z M 5.078125 9.601562 L 6.425781 9.601562 L 7.167969 20 L 6.039062 20 C 6 20 6 19.960938 6 19.960938 Z M 13.984375 9.601562 L 13.613281 20 L 12.398438 20 L 12.398438 9.601562 Z M 16.769531 9.601562 L 16.027344 20 L 14.414062 20 L 14.785156 9.601562 Z M 11.601562 20 L 10.386719 20 L 10.015625 9.601562 L 11.601562 9.601562 Z M 9.214844 9.601562 L 9.585938 20 L 7.972656 20 L 7.230469 9.601562 Z M 17.160156 23.199219 L 6.839844 23.199219 L 6.601562 20.800781 L 17.398438 20.800781 Z M 18.921875 9.601562 L 17.960938 19.960938 C 17.960938 20 17.960938 20 17.921875 20 L 16.832031 20 L 17.574219 9.601562 Z M 18.480469 8.800781 L 17.238281 8.800781 C 17.191406 8.792969 17.144531 8.792969 17.097656 8.800781 L 5.480469 8.800781 L 5.28125 6.398438 L 18.71875 6.398438 Z M 20 5.601562 L 4 5.601562 L 4 4 L 20 4 Z M 20 5.601562"/>
</svg>
