<svg xmlns="http://www.w3.org/2000/svg" width="32" height="32" viewBox="0 0 24 24">
    <path d="M 16.398438 4.550781 L 16.398438 3.613281 C 16.398438 3.414062 16.277344 3.253906 16.117188 3.214844 L 2.527344 0.015625 C 2.367188 -0.0234375 2.246094 0.015625 2.125 0.136719 C 2.007812 0.253906 1.964844 0.414062 2.046875 0.535156 L 3.605469 4.820312 L 3.605469 7.40625 C 1.308594 9.09375 0.0078125 11.796875 0.0078125 14.804688 C 0.0078125 14.914062 0.0078125 15.023438 0.0117188 15.132812 C 0.132812 18.519531 2.0625 21.53125 5.085938 23.039062 C 6.242188 23.679688 7.523438 24 8.800781 24 L 11.199219 24 C 12.441406 24 13.757812 23.679688 14.839844 23.121094 C 17.996094 21.601562 20.074219 18.324219 20.074219 14.804688 C 20.074219 14.710938 20.046875 14.632812 19.992188 14.566406 C 19.925781 11.652344 18.632812 9.050781 16.398438 7.40625 L 16.398438 7.136719 C 19.625 8.675781 21.59375 11.726562 21.59375 15.207031 C 21.59375 15.445312 21.753906 15.605469 21.992188 15.605469 L 23.59375 15.605469 C 23.832031 15.605469 23.992188 15.445312 23.992188 15.207031 C 23.992188 10.386719 21.035156 6.21875 16.398438 4.550781 Z M 15.597656 6.53125 L 15.597656 7.210938 L 4.40625 7.210938 L 4.40625 5.210938 L 15.597656 5.210938 Z M 15.597656 3.933594 L 15.597656 4.414062 L 4.285156 4.414062 L 3.046875 0.972656 Z M 8.800781 23.199219 C 7.644531 23.199219 6.523438 22.878906 5.484375 22.320312 C 3.460938 21.308594 1.96875 19.582031 1.265625 17.535156 C 1.082031 16.992188 0.953125 16.425781 0.886719 15.84375 L 1.765625 16.84375 C 2.285156 17.363281 3.125 17.363281 3.644531 16.84375 L 4.046875 16.445312 C 4.644531 15.84375 5.605469 15.84375 6.203125 16.445312 L 6.601562 16.84375 C 7.121094 17.363281 7.960938 17.363281 8.480469 16.84375 L 8.882812 16.445312 C 9.480469 15.84375 10.441406 15.84375 11.039062 16.445312 L 11.441406 16.84375 C 11.960938 17.363281 12.800781 17.363281 13.320312 16.84375 L 13.71875 16.445312 C 14.320312 15.84375 15.277344 15.84375 15.878906 16.445312 L 16.238281 16.804688 C 16.757812 17.324219 17.636719 17.324219 18.15625 16.804688 L 19.117188 15.84375 C 18.824219 18.113281 17.609375 20.199219 15.753906 21.570312 C 15.746094 21.574219 15.734375 21.582031 15.726562 21.589844 C 15.675781 21.628906 15.625 21.664062 15.570312 21.699219 C 15.535156 21.726562 15.496094 21.753906 15.457031 21.777344 C 15.433594 21.792969 15.410156 21.808594 15.386719 21.824219 C 15.3125 21.871094 15.242188 21.917969 15.167969 21.964844 C 15.164062 21.964844 15.160156 21.96875 15.160156 21.96875 C 15.03125 22.046875 14.902344 22.121094 14.773438 22.191406 C 14.753906 22.203125 14.734375 22.210938 14.714844 22.222656 C 14.660156 22.25 14.601562 22.28125 14.546875 22.308594 C 14.484375 22.339844 14.421875 22.371094 14.359375 22.402344 C 13.480469 22.921875 12.320312 23.199219 11.199219 23.199219 Z M 19.195312 14.726562 L 17.675781 16.246094 C 17.476562 16.445312 17.117188 16.445312 16.917969 16.246094 L 16.558594 15.886719 C 15.675781 14.964844 14.199219 14.964844 13.277344 15.886719 L 12.878906 16.285156 C 12.640625 16.484375 12.320312 16.484375 12.121094 16.285156 L 11.71875 15.886719 C 10.839844 14.964844 9.363281 14.964844 8.441406 15.886719 L 8.042969 16.285156 C 7.800781 16.484375 7.484375 16.484375 7.28125 16.285156 L 6.882812 15.886719 C 6.003906 14.964844 4.523438 14.964844 3.605469 15.886719 L 3.207031 16.285156 C 2.964844 16.484375 2.644531 16.484375 2.445312 16.285156 L 0.808594 14.648438 C 0.855469 11.914062 2.046875 9.5 4.125 8.011719 L 15.878906 8.011719 C 17.976562 9.515625 19.171875 11.960938 19.195312 14.726562 Z M 22.394531 14.804688 C 22.234375 11.046875 19.996094 7.808594 16.398438 6.25 L 16.398438 5.371094 C 20.433594 6.96875 23.03125 10.609375 23.191406 14.804688 Z M 22.394531 14.804688"/>
    <path d="M6.683594 18.003906L6.125 18.003906C5.605469 18.003906 5.203125 18.402344 5.203125 18.921875L5.203125 19.484375C5.203125 20.003906 5.605469 20.402344 6.125 20.402344L6.683594 20.402344C7.203125 20.402344 7.601562 20.003906 7.601562 19.484375L7.601562 18.921875C7.601562 18.402344 7.203125 18.003906 6.683594 18.003906zM6.804688 19.484375C6.804688 19.5625 6.761719 19.601562 6.683594 19.601562L6.125 19.601562C6.042969 19.601562 6.003906 19.5625 6.003906 19.484375L6.003906 18.921875C6.003906 18.84375 6.042969 18.804688 6.125 18.804688L6.683594 18.804688C6.761719 18.804688 6.804688 18.84375 6.804688 18.921875zM12.519531 22L13.078125 22C13.597656 22 14 21.601562 14 21.082031L14 20.523438C14 20.003906 13.597656 19.601562 13.078125 19.601562L12.519531 19.601562C12 19.601562 11.601562 20.003906 11.601562 20.523438L11.601562 21.082031C11.601562 21.601562 12 22 12.519531 22zM12.398438 20.523438C12.398438 20.441406 12.441406 20.402344 12.519531 20.402344L13.078125 20.402344C13.160156 20.402344 13.199219 20.441406 13.199219 20.523438L13.199219 21.082031C13.199219 21.160156 13.160156 21.203125 13.078125 21.203125L12.519531 21.203125C12.441406 21.203125 12.398438 21.160156 12.398438 21.082031zM12.398438 20.523438"/>
</svg>
