<svg xmlns="http://www.w3.org/2000/svg" width="32" height="32" viewBox="0 0 24 24">
    <path d="M23.156 5.434a.372.372 0 0 0-.148-.153 3.191 3.191 0 0 0-2.203-.886h-.403a8.39 8.39 0 0 0-8.39 8.394c0 .828.32 1.586.843 2.156a.372.372 0 0 0 .149.153 3.191 3.191 0 0 0 2.203.886h.402A8.392 8.392 0 0 0 24 7.594c0-.832-.32-1.59-.844-2.16zm-2.754-.239h.403c.61 0 1.168.23 1.593.61-.09 2.191-1.898 3.785-4.394 3.785a5.185 5.185 0 0 0-5.059 3.988 2.427 2.427 0 0 1-.136-.789 7.59 7.59 0 0 1 7.593-7.594zm-4.793 9.992h-.402c-.61 0-1.168-.234-1.594-.613.09-2.32 2.012-4.183 4.39-4.183 2.56 0 4.536-1.457 5.06-3.598.09.25.136.52.136.8a7.589 7.589 0 0 1-7.59 7.595zm0 0M4.938 13.266c.48.203.957.32 1.437.32.305 0 .61-.04.902-.121a.342.342 0 0 0 .149-.043 3.34 3.34 0 0 0 1.949-1.594l.2-.36a7.88 7.88 0 0 0 .437-6.234C9.254 3.078 7.656 1.36 5.535.36a3.366 3.366 0 0 0-2.45-.191.416.416 0 0 0-.226.078 3.268 3.268 0 0 0-1.757 1.55l-.2.36c-1 1.961-1.16 4.156-.441 6.235.719 2.16 2.32 3.879 4.477 4.875zm4.277-7.793c.637 1.879.52 3.879-.402 5.636l-.2.36a2.454 2.454 0 0 1-1.297 1.148c-.988-.523-1.707-1.383-1.98-2.387-.32-1.078-.078-2.238.562-3.238 0 0 .04 0 .04-.039.996-2.234.277-4.71-1.653-6.144.313.023.602.101.89.23 1.919.918 3.36 2.477 4.04 4.434zM1.62 2.477l.2-.32A2.293 2.293 0 0 1 3.077.983c2.18 1.079 3.117 3.496 2.14 5.649-.761 1.16-1 2.597-.64 3.879a4.472 4.472 0 0 0 1.488 2.27 2.425 2.425 0 0 1-.808-.235c-1.918-.918-3.36-2.477-4.035-4.434-.641-1.879-.52-3.879.398-5.636zm0 0"/>
    <path d="M13.371 17.023l-.281-.277C9.574 13.47 4.137 13.63.94 17.023c-.57.61-.921 1.364-.921 2.157a.356.356 0 0 0 .011.261c.07.82.426 1.532 1.032 2.098l.277.281c1.68 1.438 3.836 2.157 5.957 2.157 2.277 0 4.516-.84 6.191-2.477.602-.64.961-1.438.922-2.277a3.125 3.125 0 0 0-1.039-2.2zm-11.91.559c2.879-3.074 7.832-3.195 11.031-.238l.317.281c.457.418.734.945.757 1.547-1.918 1.726-4.046 1.633-5.953-.309-1.976-1.976-4.297-2.175-6.574-.597.106-.246.25-.477.422-.684zm.398 3.637l-.277-.278c-.45-.41-.719-.921-.758-1.503 2.219-1.934 4.32-1.926 6.23-.016 1.16 1.16 2.438 1.758 3.72 1.758.855 0 1.714-.266 2.546-.813-.113.211-.261.403-.43.574-2.917 2.875-7.874 2.997-11.03.278zm0 0"/>
</svg>
