<svg xmlns="http://www.w3.org/2000/svg" width="32" height="32" viewBox="0 0 24 24">
    <path d="M22.8 7.602h-3.198c-.54 0-.977.324-1.137.796h-.863V7.2H20.8c.879 0 1.597-.719 1.597-1.597v-4C22.398.719 21.68 0 20.801 0H1.6C.72 0 0 .719 0 1.602v20.796C0 23.281.719 24 1.602 24H20.8c.879 0 1.597-.719 1.597-1.602 0-.878-.718-1.597-1.597-1.597h-4.422c.355-.227.683-.492.973-.793.074-.004.148-.008.207-.008h.28c.763 0 1.442-.078 2.04-.96.601-.802.52-1.4.36-1.759-.231-.468-.743-.765-1.438-.855v-.028c0-.238-.16-.398-.403-.398H8.801c-.242 0-.403.16-.403.398 0 1.86.965 3.48 2.422 4.403H8c-.441 0-.8-.36-.8-.801V8c0-.441.359-.8.8-.8h1.602v2c0 .679.52 1.198 1.199 1.198H12v.403c0 .238.16.398.398.398.243 0 .403-.16.403-.398v-.403h1.597v.403c0 .238.16.398.403.398.238 0 .398-.16.398-.398v-.403h1.2c.68 0 1.203-.52 1.203-1.199h.863c.16.473.598.801 1.137.801H22.8C23.48 10 24 9.48 24 8.8c0-.679-.52-1.198-1.2-1.198zM19.56 17.64c.16.28-.118.68-.278.918-.394.511-.75.636-1.293.64.38-.594.637-1.27.75-1.996.43.082.703.2.82.438zm-10.36-.84h8.758a4.32 4.32 0 0 1-1.078 2.52c-.016.019-.031.038-.043.062a4.368 4.368 0 0 1-3.234 1.418 4.403 4.403 0 0 1-4.403-4zM8 6.398c-.879 0-1.602.723-1.602 1.602v12c0 .879.723 1.602 1.602 1.602h12.8c.438 0 .802.359.802.796 0 .442-.364.801-.801.801H1.6c-.44 0-.8-.36-.8-.8v-.797h2c.238 0 .398-.16.398-.403 0-.238-.16-.398-.398-.398h-2V20h2c.238 0 .398-.16.398-.398 0-.243-.16-.403-.398-.403h-2v-.8h2c.238 0 .398-.16.398-.399 0-.238-.16-.398-.398-.398h-2V16.8h2c.238 0 .398-.16.398-.403 0-.238-.16-.398-.398-.398h-2V1.602C.8 1.16 1.16.8 1.6.8h19.2c.437 0 .8.36.8.8v4a.804.804 0 0 1-.8.797zM16.8 9.2c0 .242-.16.403-.402.403h-5.597c-.242 0-.403-.16-.403-.403v-2h6.403zm6 0h-3.198c-.243 0-.403-.16-.403-.398 0-.242.16-.403.403-.403H22.8c.238 0 .398.16.398.403 0 .238-.16.398-.398.398zm0 0"/>
    <path d="M12.8 12.398c0-.238-.16-.398-.402-.398-.238 0-.398.16-.398.398v.403c0 .238.16.398.398.398.243 0 .403-.16.403-.398zm0 0M12.398 14c-.238 0-.398.16-.398.398v.403c0 .238.16.398.398.398.243 0 .403-.16.403-.398v-.403c0-.238-.16-.398-.403-.398zm0 0M15.2 12.398c0-.238-.16-.398-.4-.398-.241 0-.402.16-.402.398v.403c0 .238.16.398.403.398.238 0 .398-.16.398-.398zm0 0M14.8 14c-.241 0-.402.16-.402.398v.403c0 .238.16.398.403.398.238 0 .398-.16.398-.398v-.403c0-.238-.16-.398-.398-.398zm0 0M3.602 1.602c-1.122 0-2 .878-2 2 0 1.117.878 2 2 2 1.117 0 2-.883 2-2 0-1.122-.883-2-2-2zm0 3.199a1.18 1.18 0 0 1-1.204-1.2c0-.68.524-1.203 1.204-1.203.68 0 1.199.524 1.199 1.204 0 .68-.52 1.199-1.2 1.199zm0 0M8.398 1.602c-1.117 0-2 .878-2 2 0 1.117.883 2 2 2 1.122 0 2-.883 2-2 0-1.122-.878-2-2-2zm0 3.199c-.68 0-1.199-.52-1.199-1.2 0-.68.52-1.203 1.2-1.203.68 0 1.203.524 1.203 1.204 0 .68-.524 1.199-1.204 1.199zm0 0"/>
</svg>
