<svg xmlns="http://www.w3.org/2000/svg" width="32" height="32" viewBox="0 0 24 24">
    <path d="M 21.800781 7.199219 L 19.800781 7.199219 L 19.800781 6.398438 L 20.601562 6.398438 C 20.839844 6.398438 21 6.238281 21 6 C 21 2.679688 18.320312 0 15 0 L 7 0 C 3.679688 0 1 2.679688 1 6 C 1 6.238281 1.160156 6.398438 1.398438 6.398438 L 2.199219 6.398438 L 2.199219 20 L 1.398438 20 C 1.160156 20 1 20.160156 1 20.398438 C 1 22.398438 2.601562 24 4.601562 24 L 17.398438 24 C 19.398438 24 21 22.398438 21 20.398438 C 21 20.160156 20.839844 20 20.601562 20 L 19.800781 20 L 19.800781 9.601562 L 21.800781 9.601562 C 22.480469 9.601562 23 9.078125 23 8.398438 C 23 7.71875 22.480469 7.199219 21.800781 7.199219 Z M 19 7.199219 L 16.601562 7.199219 C 16.0625 7.199219 15.625 7.527344 15.464844 8 L 15 8 L 15 6.398438 L 19 6.398438 Z M 12.199219 10.398438 L 13 10.398438 L 13 11 C 13 11.121094 12.921875 11.199219 12.800781 11.199219 L 12.398438 11.199219 C 12.28125 11.199219 12.199219 11.121094 12.199219 11 Z M 13 9.601562 L 8.960938 9.601562 C 8.320312 9.601562 7.800781 9.078125 7.800781 8.441406 L 7.800781 6.398438 L 14.160156 6.398438 L 14.160156 8.441406 C 14.160156 9.078125 13.640625 9.601562 13 9.601562 Z M 9 10.398438 L 9.800781 10.398438 L 9.800781 11 C 9.800781 11.121094 9.71875 11.199219 9.601562 11.199219 L 9.199219 11.199219 C 9.078125 11.199219 9 11.121094 9 11 Z M 7 0.800781 L 15 0.800781 C 17.71875 0.800781 19.960938 2.921875 20.199219 5.601562 L 1.800781 5.601562 C 2.039062 2.921875 4.28125 0.800781 7 0.800781 Z M 17.398438 23.199219 L 4.601562 23.199219 C 3.199219 23.199219 2.039062 22.160156 1.839844 20.800781 L 20.160156 20.800781 C 19.960938 22.160156 18.800781 23.199219 17.398438 23.199219 Z M 16.519531 14.839844 C 17.398438 15 17.398438 15.398438 17.398438 15.601562 C 17.398438 16.441406 16.359375 17.519531 15.519531 17.878906 C 16.039062 16.960938 16.359375 15.960938 16.519531 14.839844 Z M 15.785156 14.242188 C 15.769531 14.277344 15.761719 14.320312 15.761719 14.359375 C 15.640625 15.800781 15.160156 17.121094 14.398438 18.121094 C 14.390625 18.132812 14.382812 18.148438 14.375 18.160156 C 13.507812 19.300781 12.320312 20 11 20 C 8.441406 20 6.359375 17.359375 6.199219 14 L 15.800781 14 C 15.796875 14.082031 15.789062 14.160156 15.785156 14.242188 Z M 19 20 L 13.558594 20 C 14.039062 19.679688 14.476562 19.273438 14.863281 18.796875 C 14.910156 18.800781 14.953125 18.800781 15 18.800781 C 16.28125 18.800781 18.199219 17.078125 18.199219 15.601562 C 18.199219 14.976562 17.929688 14.21875 16.589844 14.035156 C 16.597656 13.890625 16.601562 13.746094 16.601562 13.601562 C 16.601562 13.359375 16.441406 13.199219 16.199219 13.199219 L 5.800781 13.199219 C 5.558594 13.199219 5.398438 13.359375 5.398438 13.601562 C 5.398438 16.378906 6.640625 18.800781 8.441406 20 L 3 20 L 3 6.398438 L 7 6.398438 L 7 8.441406 C 7 9.25 7.496094 9.949219 8.199219 10.246094 L 8.199219 11 C 8.199219 11.558594 8.640625 12 9.199219 12 L 9.601562 12 C 10.160156 12 10.601562 11.558594 10.601562 11 L 10.601562 10.398438 L 11.398438 10.398438 L 11.398438 11 C 11.398438 11.558594 11.839844 12 12.398438 12 L 12.800781 12 C 13.359375 12 13.800781 11.558594 13.800781 11 L 13.800781 10.246094 C 14.398438 9.992188 14.84375 9.453125 14.964844 8.800781 L 15.464844 8.800781 C 15.625 9.273438 16.0625 9.601562 16.601562 9.601562 L 19 9.601562 Z M 21.800781 8.800781 L 16.601562 8.800781 C 16.359375 8.800781 16.199219 8.640625 16.199219 8.398438 C 16.199219 8.160156 16.359375 8 16.601562 8 L 21.800781 8 C 22.039062 8 22.199219 8.160156 22.199219 8.398438 C 22.199219 8.640625 22.039062 8.800781 21.800781 8.800781 Z M 21.800781 8.800781"/>
    <path d="M16.601562 21.601562L5.398438 21.601562C5.160156 21.601562 5 21.761719 5 22 5 22.238281 5.160156 22.398438 5.398438 22.398438L16.601562 22.398438C16.839844 22.398438 17 22.238281 17 22 17 21.761719 16.839844 21.601562 16.601562 21.601562zM7.398438 4.800781L14.601562 4.800781C14.839844 4.800781 15 4.640625 15 4.398438L15 2C15 1.761719 14.839844 1.601562 14.601562 1.601562L7.398438 1.601562C7.160156 1.601562 7 1.761719 7 2L7 4.398438C7 4.640625 7.160156 4.800781 7.398438 4.800781zM7.800781 2.398438L14.199219 2.398438 14.199219 4 7.800781 4zM7.800781 2.398438"/>
</svg>
