<svg xmlns="http://www.w3.org/2000/svg" width="32" height="32" viewBox="0 0 24 24">
    <path d="M11.367 5.262c-3.703 0-6.734 3.031-6.734 6.738 0 3.707 3.031 6.738 6.734 6.738 3.707 0 6.738-3.031 6.738-6.738 0-3.707-3.03-6.738-6.738-6.738zm0 12.633c-3.242 0-5.894-2.653-5.894-5.895 0-3.242 2.652-5.895 5.894-5.895S17.262 8.758 17.262 12c0 3.242-2.653 5.895-5.895 5.895zm0 0"/>
    <path d="M11.367 16.21c-.25 0-.418.169-.418.423 0 .25.168.418.418.418 2.781 0 5.055-2.274 5.055-5.051 0-.254-.168-.422-.422-.422s-.422.168-.422.422a4.223 4.223 0 0 1-4.21 4.21zm0 0"/>
    <path d="M24 12.422c0-.809-.578-1.488-1.34-1.649-.625-5.73-5.512-10.14-11.293-10.14C5.094.633 0 5.727 0 12c0 6.273 5.094 11.367 11.367 11.367 5.438 0 10.188-3.945 11.18-9.277A1.691 1.691 0 0 0 24 12.422zM11.367 22.527C5.56 22.527.844 17.81.844 12c0-5.809 4.715-10.527 10.523-10.527 5.305 0 9.813 4.043 10.442 9.265h-2.114c-.617-4.039-4.125-7.16-8.328-7.16-4.629 0-8.418 3.79-8.418 8.422 0 4.633 3.79 8.422 8.418 8.422 3.906 0 7.215-2.695 8.153-6.317h2.164c-.97 4.844-5.348 8.422-10.317 8.422zM18.95 12c0 4.168-3.414 7.578-7.582 7.578-4.168 0-7.578-3.41-7.578-7.578s3.41-7.578 7.578-7.578S18.95 7.832 18.95 12zm3.367 1.262h-2.609c.008-.114.02-.227.031-.344.028-.246.043-.5.051-.754V12v-.422h2.527c.461 0 .84.379.84.844 0 .46-.379.84-.84.84zm0 0"/>
    <path d="M10.95 9.473a1.69 1.69 0 0 0-1.688-1.684c-.926 0-1.684.758-1.684 1.684 0 .925.758 1.683 1.684 1.683h1.265c.25 0 .422-.168.422-.418zm-.845.843h-.843a.844.844 0 0 1-.84-.843c0-.461.379-.84.84-.84.465 0 .843.379.843.84zm0 0"/>
</svg>
