<svg xmlns="http://www.w3.org/2000/svg" width="32" height="32" viewBox="0 0 24 24">
    <path d="M 20.769531 7.238281 C 20.441406 6.011719 19.984375 4.769531 19.398438 3.488281 L 19.398438 1.199219 C 19.398438 0.519531 18.878906 0 18.199219 0 L 5.800781 0 C 5.121094 0 4.601562 0.519531 4.601562 1.199219 L 4.601562 3.519531 C 1.921875 9.121094 1.921875 14.199219 4.601562 20.480469 L 4.601562 22.800781 C 4.601562 23.480469 5.121094 24 5.800781 24 L 18.199219 24 C 18.878906 24 19.398438 23.480469 19.398438 22.800781 L 19.398438 20.480469 C 21.496094 15.753906 21.953125 11.613281 20.769531 7.238281 Z M 4.566406 18.175781 C 4.554688 18.140625 4.542969 18.105469 4.53125 18.066406 C 4.511719 18.007812 4.492188 17.949219 4.472656 17.890625 C 4.464844 17.871094 4.457031 17.847656 4.449219 17.824219 C 4.429688 17.757812 4.40625 17.691406 4.386719 17.621094 C 4.382812 17.613281 4.378906 17.601562 4.375 17.589844 C 4.171875 16.949219 4.003906 16.316406 3.863281 15.695312 C 3.859375 15.6875 3.859375 15.675781 3.855469 15.664062 C 3.84375 15.601562 3.828125 15.535156 3.816406 15.472656 C 3.808594 15.453125 3.804688 15.433594 3.800781 15.414062 C 3.789062 15.355469 3.777344 15.296875 3.765625 15.238281 C 3.761719 15.210938 3.757812 15.183594 3.75 15.160156 C 3.742188 15.105469 3.730469 15.050781 3.71875 15 C 3.714844 14.96875 3.707031 14.933594 3.703125 14.902344 C 3.695312 14.855469 3.683594 14.808594 3.675781 14.757812 C 3.671875 14.71875 3.664062 14.679688 3.65625 14.640625 C 3.648438 14.601562 3.644531 14.558594 3.636719 14.519531 C 3.628906 14.464844 3.621094 14.40625 3.609375 14.351562 C 3.605469 14.328125 3.601562 14.300781 3.597656 14.277344 C 3.574219 14.109375 3.550781 13.945312 3.53125 13.777344 C 3.53125 13.765625 3.53125 13.753906 3.527344 13.738281 C 3.519531 13.667969 3.511719 13.597656 3.503906 13.53125 C 3.503906 13.511719 3.5 13.496094 3.5 13.476562 C 3.492188 13.414062 3.488281 13.347656 3.480469 13.28125 C 3.480469 13.261719 3.476562 13.246094 3.476562 13.226562 C 3.46875 13.160156 3.464844 13.097656 3.460938 13.03125 C 3.457031 13.015625 3.457031 12.996094 3.457031 12.976562 C 3.449219 12.914062 3.445312 12.847656 3.441406 12.785156 C 3.441406 12.765625 3.441406 12.746094 3.4375 12.726562 C 3.433594 12.664062 3.433594 12.601562 3.429688 12.535156 C 3.429688 12.519531 3.425781 12.5 3.425781 12.480469 C 3.421875 12.414062 3.421875 12.347656 3.417969 12.285156 C 3.417969 12.269531 3.417969 12.253906 3.417969 12.238281 C 3.414062 12.164062 3.414062 12.09375 3.414062 12.023438 C 3.414062 12.011719 3.410156 12 3.410156 11.992188 C 3.410156 11.910156 3.410156 11.828125 3.410156 11.746094 C 3.410156 11.730469 3.410156 11.714844 3.410156 11.699219 C 3.410156 11.636719 3.410156 11.574219 3.410156 11.515625 C 3.414062 11.46875 3.414062 11.421875 3.414062 11.375 C 3.414062 11.34375 3.414062 11.316406 3.417969 11.285156 C 3.417969 11.226562 3.421875 11.171875 3.421875 11.113281 C 3.421875 11.097656 3.425781 11.078125 3.425781 11.058594 C 3.425781 10.996094 3.429688 10.929688 3.433594 10.863281 C 3.433594 10.855469 3.433594 10.847656 3.433594 10.839844 C 3.550781 8.746094 4.074219 6.691406 5 4.558594 C 7.121094 9.640625 7.121094 14.160156 5 19.359375 C 4.894531 19.089844 4.796875 18.820312 4.699219 18.558594 C 4.695312 18.542969 4.691406 18.527344 4.683594 18.511719 C 4.660156 18.445312 4.636719 18.378906 4.613281 18.3125 C 4.597656 18.265625 4.582031 18.222656 4.566406 18.175781 Z M 5.628906 4 L 18.378906 4 C 16 9.292969 16.007812 14.140625 18.40625 20 L 5.585938 20 C 7.992188 14.351562 8.003906 9.5 5.628906 4 Z M 20.589844 12.019531 C 20.589844 12.0625 20.589844 12.105469 20.589844 12.148438 C 20.585938 12.210938 20.585938 12.273438 20.585938 12.335938 C 20.585938 12.347656 20.582031 12.363281 20.582031 12.375 C 20.582031 12.449219 20.578125 12.519531 20.574219 12.59375 C 20.484375 14.789062 19.960938 17.003906 19 19.359375 C 16.882812 13.925781 16.878906 9.445312 18.996094 4.570312 C 20.058594 7.105469 20.589844 9.503906 20.589844 11.921875 C 20.589844 11.953125 20.589844 11.984375 20.589844 12.019531 Z M 5.398438 1.199219 C 5.398438 0.960938 5.601562 0.800781 5.800781 0.800781 L 18.199219 0.800781 C 18.441406 0.800781 18.601562 0.960938 18.601562 1.199219 L 18.601562 3.199219 L 5.398438 3.199219 Z M 18.601562 22.800781 C 18.601562 23.039062 18.441406 23.199219 18.199219 23.199219 L 5.800781 23.199219 C 5.558594 23.199219 5.398438 23.039062 5.398438 22.800781 L 5.398438 20.800781 L 18.601562 20.800781 Z M 18.601562 22.800781"/>
    <path d="M 15.160156 8.800781 C 15.054688 8.765625 14.957031 8.769531 14.875 8.800781 L 14.320312 8.800781 C 11.160156 8.800781 8.601562 11.359375 8.601562 14.519531 L 8.601562 15.199219 C 8.601562 15.425781 8.742188 15.582031 8.957031 15.597656 C 8.972656 15.601562 8.984375 15.601562 9 15.601562 L 9.679688 15.601562 C 12.839844 15.601562 15.398438 13.039062 15.398438 9.878906 L 15.398438 9.320312 C 15.480469 9.078125 15.359375 8.878906 15.160156 8.800781 Z M 14.320312 9.601562 L 14.4375 9.601562 C 13.96875 10.765625 13.28125 11.546875 11.71875 12 C 10.675781 12.285156 10.042969 12.625 9.617188 13.074219 C 10.230469 11.0625 12.101562 9.601562 14.320312 9.601562 Z M 9.679688 14.800781 L 9.570312 14.800781 C 9.964844 13.671875 10.34375 13.214844 11.921875 12.761719 C 13.082031 12.4375 13.851562 11.941406 14.394531 11.292969 C 13.785156 13.324219 11.90625 14.800781 9.679688 14.800781 Z M 9.679688 14.800781"/>
</svg>
