<svg xmlns="http://www.w3.org/2000/svg" width="32" height="32" viewBox="0 0 24 24">
    <path d="M10.121 3.32c-.601.602-.922 1.2-.922 1.84 0 .64.32 1.281.922 1.918.078.082.16.121.277.121.122 0 .204-.039.282-.12a.385.385 0 0 0 0-.56c-.442-.48-.68-.917-.68-1.359 0-.441.238-.879.68-1.281.601-.559.922-1.2.922-1.84 0-.68-.282-1.32-.922-1.918a.385.385 0 0 0-.559 0 .385.385 0 0 0 0 .559c.438.48.68.922.68 1.36 0 .44-.242.882-.68 1.28zm0 0M14.922 3.32C14.32 3.922 14 4.52 14 5.16c0 .64.32 1.281.922 1.918a.348.348 0 0 0 .277.121c.121 0 .2-.039.281-.12a.385.385 0 0 0 0-.56c-.44-.48-.68-.917-.68-1.359 0-.441.24-.879.68-1.281.598-.559.918-1.2.918-1.84 0-.68-.277-1.32-.918-1.918a.385.385 0 0 0-.558 0 .385.385 0 0 0 0 .559c.437.48.68.922.68 1.36 0 .44-.243.882-.68 1.28zm0 0M5.2 5.16c0 .64.28 1.281.921 1.918.078.082.16.121.277.121.082 0 .204-.039.282-.12a.385.385 0 0 0 0-.56C6.238 6.04 6 5.603 6 5.16c0-.441.238-.84.68-1.281.601-.559.922-1.2.922-1.84 0-.68-.32-1.32-.922-1.918a.385.385 0 0 0-.559 0 .385.385 0 0 0 0 .559c.438.441.68.922.68 1.36 0 .44-.242.839-.68 1.28-.601.602-.922 1.2-.922 1.84zm0 0M17.2 9.621V8.398c0-.238-.16-.398-.4-.398H4c-.238 0-.398.16-.398.398v13.204c0 .68.437 1.476 1.117 1.597l1.601.403c1.239.277 2.602.398 3.961.398H10.398c1.364 0 2.762-.121 4.16-.398l1.563-.403c.68-.12 1.117-.918 1.117-1.597V20v-.027a3.584 3.584 0 0 0 3.16-3.575V13.2A3.586 3.586 0 0 0 17.2 9.621zm-12.802.777h12v9.204c0 .07.016.132.043.187V20c0 .32-.242.762-.48.8h-.04l-1.562.4c-2.64.519-5.359.519-7.84 0l-1.64-.4c-.238-.038-.48-.48-.48-.8zm0-1.597h12v.8h-12zm.48 13.597c-.198-.039-.48-.476-.48-.796v-.122c.082.04.204.079.364.122L6.359 22c2.563.559 5.403.559 8.16 0l1.602-.398c.117-.043.238-.082.32-.122v.122c0 .32-.28.757-.48.796h-.04l-1.562.403c-1.34.254-2.68.387-3.98.39a19.899 19.899 0 0 1-3.86-.39zm14.724-5.957c0 1.399-1.043 2.559-2.403 2.758v-8.758a2.81 2.81 0 0 1 2.403 2.797zm0 0"/>
    <path d="M10.398 19.602C12.398 19.602 14 18 14 16c0-2-1.602-3.602-3.602-3.602-2 0-3.597 1.602-3.597 3.602 0 2 1.597 3.602 3.597 3.602zm0-6.403c1.563 0 2.801 1.242 2.801 2.801 0 1.559-1.238 2.8-2.8 2.8A2.783 2.783 0 0 1 7.601 16c0-1.559 1.238-2.8 2.796-2.8zm0 0"/>
    <path d="M10.398 18c1.122 0 2-.879 2-2 0-.238-.16-.398-.398-.398-.238 0-.398.16-.398.398 0 .68-.52 1.2-1.204 1.2-.68 0-1.199-.52-1.199-1.2 0-.68.52-1.2 1.2-1.2.242 0 .402-.16.402-.402 0-.238-.16-.398-.403-.398-1.117 0-2 .879-2 2s.883 2 2 2zm0 0"/>
</svg>
