<svg xmlns="http://www.w3.org/2000/svg" width="32" height="32" viewBox="0 0 24 24">
    <path d="M18.68 3.32a.356.356 0 0 0-.282-.12h-1.234a2.408 2.408 0 0 0-2.363-2c-.242 0-.442.038-.68.12A2.36 2.36 0 0 0 12 0a2.36 2.36 0 0 0-2.121 1.32 1.966 1.966 0 0 0-.68-.12 2.408 2.408 0 0 0-2.363 2H5.602a.356.356 0 0 0-.282.12.442.442 0 0 0-.12.32l1.519 18.88C6.8 23.36 7.48 24 8.32 24h7.36c.84 0 1.558-.64 1.601-1.48l1.52-18.88a.442.442 0 0 0-.121-.32zM9.879 5.922A2.363 2.363 0 0 0 12 7.238c.922 0 1.719-.52 2.121-1.316.758.2 1.559.039 2.117-.402l-1.16 14.558c-2.039.48-4.156.48-6.156 0L7.762 5.52c.558.44 1.36.601 2.117.402zM9.199 2c.242 0 .48.04.723.16.078.04.2.04.316 0a.361.361 0 0 0 .242-.238C10.68 1.238 11.281.8 12 .8s1.32.437 1.52 1.078c.039.121.12.2.242.242.078.04.199.04.316 0 .242-.121.48-.16.723-.16.754 0 1.394.531 1.558 1.238H14.4c-.239 0-.399.16-.399.403 0 .238.16.398.398.398h1.938a.116.116 0 0 0-.008.04 1.608 1.608 0 0 1-1.527 1.12c-.242 0-.48-.039-.723-.16-.078-.04-.2-.04-.316 0a.361.361 0 0 0-.242.238c-.2.684-.801 1.121-1.52 1.121s-1.32-.437-1.52-1.12A.361.361 0 0 0 10.238 5c-.039-.04-.117-.04-.16-.04-.039 0-.117.04-.156.08-.242.12-.48.16-.723.16h-.082-.004a1.606 1.606 0 0 1-1.238-.704l-.012-.02c0-.003-.004-.007-.008-.011A1.577 1.577 0 0 1 7.665 4h3.534c.242 0 .403-.16.403-.398 0-.243-.16-.403-.403-.403H7.652C7.828 2.512 8.457 2 9.2 2zm7.32 20.48a.817.817 0 0 1-.8.72H8.32a.82.82 0 0 1-.8-.72L6.04 4h.796c.004.027.008.059.016.086l1.27 16.074a.8.8 0 0 0 .64.719c1.039.242 2.16.36 3.238.36 1.078 0 2.2-.118 3.238-.4a.8.8 0 0 0 .64-.718l1.27-16.035c.008-.027.012-.059.016-.086h.797zm0 0"/>
    <path d="M10.2 10.602c.76 0 1.402-.641 1.402-1.403 0-.758-.641-1.398-1.403-1.398-.758 0-1.398.64-1.398 1.398 0 .762.64 1.403 1.398 1.403zm0-2c.32 0 .6.277.6.597 0 .32-.28.602-.6.602a.614.614 0 0 1-.598-.602.61.61 0 0 1 .597-.597zm0 0M13 14.398c.762 0 1.398-.636 1.398-1.398 0-.762-.636-1.398-1.398-1.398-.762 0-1.398.636-1.398 1.398 0 .762.636 1.398 1.398 1.398zm0-2c.32 0 .602.282.602.602s-.282.602-.602.602a.618.618 0 0 1-.602-.602c0-.32.282-.602.602-.602zm0 0M11 16c-.762 0-1.398.64-1.398 1.398 0 .762.636 1.403 1.398 1.403.762 0 1.398-.64 1.398-1.403 0-.757-.636-1.398-1.398-1.398zm0 2a.618.618 0 0 1-.602-.602c0-.32.282-.597.602-.597s.602.277.602.597c0 .32-.282.602-.602.602zm0 0"/>
</svg>
