<svg xmlns="http://www.w3.org/2000/svg" width="32" height="32" viewBox="0 0 24 24">
    <path d="M14.996 19.18c4.848-.39 6.606-5.575 6.606-10.34 0-.238-.16-.399-.403-.399h-3.61c.009-.187.013-.375.013-.562v-2.68A4.389 4.389 0 0 0 13.199.801c-.21 0-.418.015-.625.043C11.84.28 10.938 0 10 0c-.934 0-1.836.281-2.602.84a4.4 4.4 0 0 0-4.957 3.8v.122c-.043.078-.043.16-.043.238v3.16c0 .152.02.297.055.438.067 1.488.34 2.941.828 4.324l1.04 2.957c.636 1.848.894 3.797.769 5.726-.043.504-.106 1-.168 1.473-.043.242 0 .48.156.64.16.16.363.282.602.282h8.64c.239 0 .48-.121.68-.281a.86.86 0 0 0 .16-.64c-.12-.599-.16-1.24-.2-1.88a.439.439 0 0 0-.034-.164c-.016-.62.008-1.238.07-1.855zm5.805-9.98c-.082 2.113-.637 8.546-5.7 9.152.133-.836.34-1.665.618-2.473l1.043-2.957c.414-1.192.675-2.45.781-3.723zm-7.563-7.598A3.594 3.594 0 0 1 16.801 4.8h-5.602A4.392 4.392 0 0 0 11 3.879a4.316 4.316 0 0 0-.469-1.02c-.004-.004-.008-.011-.011-.02.718-.8 1.68-1.237 2.718-1.237zm-4.758-.48a3.653 3.653 0 0 1 3.04 0 4.423 4.423 0 0 0-.56.284c-.14.086-.28.18-.413.278A5.25 5.25 0 0 0 10 2.16a4.721 4.721 0 0 0-.36-.324 4.296 4.296 0 0 0-.617-.438c-.175-.105-.359-.199-.543-.277zM3.2 4.878s.198-3.277 3.64-3.277c.398 0 .781.062 1.14.183a3.826 3.826 0 0 1 1.7 1.254c.394.527.629 1.137.699 1.762h-2.5C7.28 4.8 6.8 5.28 6.8 5.879V7.16c0 .2-.121.399-.32.442a.301.301 0 0 1-.06.007h-.054a.327.327 0 0 1-.164-.054c-.02-.012-.031-.024-.043-.035C6.04 7.44 6 7.32 6 7.2V6c0-.238-.16-.398-.398-.398-.243 0-.403.16-.403.398v2.121c0 .48-.277.918-.719 1-.12.04-.28.04-.48 0l-.078-.043h-.043c-.04 0-.078 0-.117-.039L3.719 9c-.078-.04-.078-.078-.16-.121l-.118-.117c-.12-.16-.203-.32-.203-.524a.314.314 0 0 0-.039-.16V5v-.121zm.132 4.898l-.004.004v-.008l.004.004zm1.707 5.825L4 12.64a14.117 14.117 0 0 1-.668-2.832c.035.03.074.035.148.07.079 0 .122.043.16.043h.036c.043.012.09.023.133.031.011.004.02.008.03.008a1.291 1.291 0 0 0 .453.035c.372-.016.731-.137 1.028-.394.399-.32.64-.801.68-1.282.2.078.398.078.602.078.558-.117 1-.636 1-1.238V5.88c0-.16.117-.277.277-.277H16.8V7.84c0 .293-.012.586-.028.875a.305.305 0 0 0-.011.086c-.02.3-.047.597-.082.898-.13.996-.36 1.977-.68 2.942l-1.04 2.96a15.541 15.541 0 0 0-.855 5.2h-8.21a15.541 15.541 0 0 0-.856-5.2zm.64 7.597c.09-.531.153-1.066.188-1.597h8.254c.02.289.05.57.09.843.027.254.066.504.11.754zm0 0"/>
    <path d="M7.2 20c.241 0 .402-.2.402-.441C7.48 18 7 16.399 6.52 15.079l-1.04-3.04c-.082-.32-.199-.598-.28-.918-.04-.2-.278-.32-.481-.281-.2.039-.32.281-.278.48.079.36.2.64.32 1l1.04 3.04c.437 1.28.918 2.8 1 4.28 0 .2.199.36.398.36zm0 0"/>
</svg>
