<svg xmlns="http://www.w3.org/2000/svg" width="32" height="32" viewBox="0 0 24 24">
    <path d="M19.8 3.2h-1L16.64.32A.842.842 0 0 0 16 0H8a.842.842 0 0 0-.64.32L5.2 3.2h-1c-.438 0-.802.359-.802.8v1.602c0 .437.364.796.801.796h.434l.222 2.493a.872.872 0 0 0-.214.187.731.731 0 0 0-.2.64L5.36 20.04c.032.352.27.625.586.723l.215 2.52c.04.398.399.718.8.718h10.08c.401 0 .76-.32.8-.719l.215-2.52c.316-.093.547-.363.547-.683l.918-10.36a.743.743 0 0 0-.2-.64.787.787 0 0 0-.18-.164l.227-2.516h.434c.437 0 .8-.359.8-.796V4c0-.441-.363-.8-.8-.8zM8 .8h8l1.8 2.4H6.2zm-2.36 8l-.199-2.402H15v2.403zm11.4 14.4H6.96l-.198-2.4h10.476zm1.722-13.598L17.84 19.96 17.8 20H6.2L5.237 9.64 15 9.61v.628l-1.48 1.48a.375.375 0 0 0-.122.282v3.602c0 .238.16.398.403.398H17c.238 0 .398-.16.398-.398V12c0-.121-.039-.2-.117-.281l-1.48-1.48v-.63zm-3.364 1.359l1.204 1.2v3.038h-2.403V12.16zM18.32 8.8H15.8V6.398h2.72zm1.48-3.2H4.2V4h15.6zm0 0"/>
</svg>
