<svg xmlns="http://www.w3.org/2000/svg" width="32" height="32" viewBox="0 0 24 24">
    <path d="M 16.019531 14.800781 L 8.019531 14.800781 C 7.378906 14.800781 6.820312 15.320312 6.820312 16 L 6.820312 20.800781 C 6.820312 21.441406 7.339844 22 8.019531 22 L 16.019531 22 C 16.660156 22 17.21875 21.441406 17.21875 20.800781 L 17.21875 16 C 17.21875 15.359375 16.699219 14.800781 16.019531 14.800781 Z M 16.417969 20.800781 C 16.417969 21 16.257812 21.199219 16.019531 21.199219 L 8.019531 21.199219 C 7.820312 21.199219 7.621094 21.039062 7.621094 20.800781 L 7.621094 16 C 7.621094 15.800781 7.777344 15.601562 8.019531 15.601562 L 16.019531 15.601562 C 16.21875 15.601562 16.417969 15.761719 16.417969 16 Z M 16.417969 20.800781"/>
    <path d="M8.820312 17.199219L12.820312 17.199219C13.058594 17.199219 13.21875 17.039062 13.21875 16.800781 13.21875 16.558594 13.058594 16.398438 12.820312 16.398438L8.820312 16.398438C8.578125 16.398438 8.417969 16.558594 8.417969 16.800781 8.417969 17.039062 8.578125 17.199219 8.820312 17.199219zM15.21875 16.398438L14.417969 16.398438C14.179688 16.398438 14.019531 16.558594 14.019531 16.800781 14.019531 17.039062 14.179688 17.199219 14.417969 17.199219L15.21875 17.199219C15.460938 17.199219 15.621094 17.039062 15.621094 16.800781 15.621094 16.558594 15.460938 16.398438 15.21875 16.398438zM8.820312 18.800781L9.621094 18.800781C9.859375 18.800781 10.019531 18.640625 10.019531 18.398438 10.019531 18.160156 9.859375 18 9.621094 18L8.820312 18C8.578125 18 8.417969 18.160156 8.417969 18.398438 8.417969 18.640625 8.578125 18.800781 8.820312 18.800781zM15.21875 18L11.21875 18C10.980469 18 10.820312 18.160156 10.820312 18.398438 10.820312 18.640625 10.980469 18.800781 11.21875 18.800781L15.21875 18.800781C15.460938 18.800781 15.621094 18.640625 15.621094 18.398438 15.621094 18.160156 15.460938 18 15.21875 18zM12.019531 19.601562L8.820312 19.601562C8.578125 19.601562 8.417969 19.761719 8.417969 20 8.417969 20.238281 8.578125 20.398438 8.820312 20.398438L12.019531 20.398438C12.257812 20.398438 12.417969 20.238281 12.417969 20 12.417969 19.761719 12.257812 19.601562 12.019531 19.601562zM15.21875 19.601562L13.621094 19.601562C13.378906 19.601562 13.21875 19.761719 13.21875 20 13.21875 20.238281 13.378906 20.398438 13.621094 20.398438L15.21875 20.398438C15.460938 20.398438 15.621094 20.238281 15.621094 20 15.621094 19.761719 15.460938 19.601562 15.21875 19.601562zM15.21875 19.601562"/>
    <path d="M 19.179688 22.238281 L 19.179688 16.238281 C 19.179688 13.398438 18.820312 10.558594 18.140625 7.800781 C 17.777344 6.320312 17.578125 4.761719 17.578125 3.238281 L 17.578125 2.1875 C 17.605469 2.132812 17.621094 2.070312 17.621094 2 L 17.621094 0.398438 C 17.621094 0.160156 17.460938 0 17.21875 0 L 10.859375 0 C 10.851562 0 10.847656 0 10.839844 0 C 10.832031 0 10.824219 0 10.820312 0 L 6.820312 0 C 6.578125 0 6.417969 0.160156 6.417969 0.398438 L 6.417969 3.238281 C 6.417969 4.761719 6.21875 6.320312 5.859375 7.761719 C 5.179688 10.519531 4.820312 13.359375 4.820312 16.199219 L 4.820312 22.199219 C 4.820312 23.199219 5.621094 24 6.621094 24 L 17.417969 24 C 18.417969 24 19.21875 23.199219 19.179688 22.238281 Z M 16.820312 1.601562 L 13.660156 1.601562 L 13.660156 0.800781 L 16.820312 0.800781 Z M 12.820312 1.8125 C 12.792969 1.867188 12.777344 1.929688 12.777344 2 L 12.777344 5.289062 L 12.378906 4.601562 C 12.300781 4.480469 12.179688 4.398438 12.019531 4.398438 C 11.859375 4.398438 11.738281 4.480469 11.660156 4.601562 L 11.21875 5.359375 L 11.21875 0.800781 L 12.820312 0.800781 Z M 7.21875 0.800781 L 10.417969 0.800781 L 10.417969 1.601562 L 7.21875 1.601562 Z M 18.460938 22.199219 C 18.460938 22.761719 18.019531 23.199219 17.460938 23.199219 L 6.621094 23.199219 C 6.058594 23.199219 5.621094 22.761719 5.621094 22.238281 L 5.621094 16.238281 C 5.621094 13.441406 5.980469 10.679688 6.621094 8 C 7.019531 6.441406 7.21875 4.839844 7.21875 3.238281 L 7.21875 2.398438 L 10.460938 2.398438 L 10.460938 6.761719 C 10.460938 6.960938 10.578125 7.121094 10.738281 7.160156 C 10.898438 7.238281 11.097656 7.160156 11.179688 7 L 12.019531 5.558594 L 12.859375 7 C 12.933594 7.109375 13.070312 7.183594 13.1875 7.199219 C 13.25 7.210938 13.316406 7.214844 13.378906 7.199219 C 13.539062 7.121094 13.660156 6.960938 13.660156 6.800781 L 13.660156 2.398438 L 16.859375 2.398438 L 16.859375 3.199219 C 16.859375 4.800781 17.058594 6.398438 17.460938 7.960938 C 18.097656 10.640625 18.460938 13.441406 18.460938 16.199219 Z M 18.460938 22.199219"/>
</svg>
