<svg xmlns="http://www.w3.org/2000/svg" width="32" height="32" viewBox="0 0 24 24">
    <path d="M16.02 14.8h-8c-.641 0-1.2.52-1.2 1.2v4.8c0 .641.52 1.2 1.2 1.2h8c.64 0 1.199-.559 1.199-1.2V16c0-.64-.52-1.2-1.2-1.2zm.398 6a.4.4 0 0 1-.398.4h-8a.4.4 0 0 1-.399-.4V16c0-.2.156-.398.399-.398h8a.4.4 0 0 1 .398.398zm0 0"/>
    <path d="M8.82 17.2h4c.239 0 .399-.16.399-.4 0-.241-.16-.402-.399-.402h-4c-.242 0-.402.16-.402.403 0 .238.16.398.402.398zm0 0M15.219 16.398h-.801c-.238 0-.398.16-.398.403 0 .238.16.398.398.398h.8c.243 0 .403-.16.403-.398 0-.242-.16-.403-.402-.403zm0 0M8.82 18.8h.801c.238 0 .399-.16.399-.402 0-.238-.16-.398-.399-.398h-.8c-.243 0-.403.16-.403.398 0 .243.16.403.402.403zm0 0M15.219 18h-4c-.239 0-.399.16-.399.398 0 .243.16.403.399.403h4c.242 0 .402-.16.402-.403 0-.238-.16-.398-.402-.398zm0 0M12.02 19.602h-3.2c-.242 0-.402.16-.402.398 0 .238.16.398.402.398h3.2c.238 0 .398-.16.398-.398 0-.238-.16-.398-.398-.398zm0 0M15.219 19.602H13.62c-.242 0-.402.16-.402.398 0 .238.16.398.402.398h1.598c.242 0 .402-.16.402-.398 0-.238-.16-.398-.402-.398zm0 0"/>
    <path d="M19.18 22.238v-6c0-2.84-.36-5.68-1.04-8.437a19.325 19.325 0 0 1-.562-4.563v-1.05A.414.414 0 0 0 17.621 2V.398c0-.238-.16-.398-.402-.398H6.82c-.242 0-.402.16-.402.398v2.84c0 1.524-.2 3.082-.559 4.524a35.316 35.316 0 0 0-1.039 8.437v6c0 1 .801 1.801 1.801 1.801h10.797c1 0 1.8-.8 1.762-1.762zM16.82 1.602h-3.16V.8h3.16zm-4 .21a.414.414 0 0 0-.043.188v3.29l-.398-.688a.417.417 0 0 0-.36-.204.417.417 0 0 0-.359.204l-.441.757V.801h1.601zM7.22.802h3.199v.8h-3.2zM18.46 22.199a.99.99 0 0 1-1 1H6.62c-.562 0-1-.437-1-.96v-6c0-2.798.36-5.56 1-8.239.399-1.559.598-3.16.598-4.762v-.84h3.242v4.364c0 .199.117.36.277.398.16.078.36 0 .442-.16l.84-1.441L12.86 7c.074.11.21.184.328.2a.452.452 0 0 0 .19 0c.161-.079.282-.24.282-.4V2.399h3.2V3.2c0 1.602.199 3.2.6 4.762.638 2.68 1 5.48 1 8.238zm0 0"/>
</svg>
