<svg xmlns="http://www.w3.org/2000/svg" width="32" height="32" viewBox="0 0 24 24">
    <path d="M 23.488281 6.457031 L 16.652344 6.457031 C 16.324219 4.351562 14.933594 3.21875 12.511719 3.082031 L 12.511719 1.019531 L 14.804688 1.019531 L 14.804688 0 L 9.195312 0 L 9.195312 1.019531 L 11.488281 1.019531 L 11.488281 3.082031 C 9.066406 3.21875 7.675781 4.351562 7.347656 6.457031 L 0.511719 6.457031 C 0.226562 6.457031 0 6.683594 0 6.964844 L 0 11.570312 C 0 11.851562 0.226562 12.082031 0.511719 12.082031 L 7.699219 12.082031 C 7.933594 13.753906 8.234375 15.453125 8.558594 16.964844 L 4.617188 16.964844 C 4.335938 16.964844 4.105469 17.191406 4.105469 17.472656 L 4.105469 20.433594 C 4.105469 20.714844 4.335938 20.941406 4.617188 20.941406 L 9.628906 20.941406 C 10.359375 23.027344 11.117188 24 12 24 C 12.882812 24 13.640625 23.027344 14.371094 20.941406 L 19.382812 20.941406 C 19.664062 20.941406 19.894531 20.714844 19.894531 20.433594 L 19.894531 17.472656 C 19.894531 17.191406 19.664062 16.964844 19.382812 16.964844 L 15.441406 16.964844 C 15.765625 15.453125 16.066406 13.753906 16.300781 12.082031 L 23.488281 12.082031 C 23.773438 12.082031 24 11.851562 24 11.570312 L 24 6.964844 C 24 6.683594 23.773438 6.457031 23.488281 6.457031 Z M 22.980469 11.058594 L 15.855469 11.058594 C 15.597656 11.058594 15.382812 11.25 15.347656 11.503906 C 15.078125 13.523438 14.707031 15.605469 14.308594 17.359375 C 14.273438 17.511719 14.308594 17.671875 14.40625 17.792969 C 14.503906 17.914062 14.648438 17.984375 14.804688 17.984375 L 18.871094 17.984375 L 18.871094 19.921875 L 14.003906 19.921875 C 13.785156 19.921875 13.585938 20.0625 13.519531 20.273438 C 12.636719 22.949219 12.027344 22.980469 12 22.980469 C 11.976562 22.980469 11.363281 22.949219 10.480469 20.273438 C 10.414062 20.0625 10.21875 19.921875 9.996094 19.921875 L 5.128906 19.921875 L 5.128906 17.984375 L 9.195312 17.984375 C 9.351562 17.984375 9.496094 17.914062 9.59375 17.792969 C 9.691406 17.671875 9.726562 17.511719 9.691406 17.359375 C 9.292969 15.605469 8.921875 13.523438 8.652344 11.503906 C 8.617188 11.25 8.402344 11.058594 8.144531 11.058594 L 1.019531 11.058594 L 1.019531 7.476562 L 7.800781 7.476562 C 8.066406 7.476562 8.289062 7.273438 8.308594 7.003906 C 8.46875 4.988281 9.605469 4.089844 12 4.089844 C 14.394531 4.089844 15.53125 4.988281 15.691406 7.003906 C 15.710938 7.273438 15.933594 7.476562 16.199219 7.476562 L 22.980469 7.476562 Z M 22.980469 11.058594"/>
</svg>
