<svg xmlns="http://www.w3.org/2000/svg" width="32" height="32" viewBox="0 0 24 24">
    <path d="M 24 12.332031 C 24 10.652344 23.003906 9.039062 21.1875 7.753906 C 21.46875 6.789062 20.496094 5.058594 18.21875 6.226562 C 16.101562 5.4375 13.640625 5.019531 11.078125 5.019531 C 8.8125 5.019531 6.859375 5.335938 4.832031 6.03125 C 4.476562 2.699219 2.714844 0 0.804688 0 C 0.515625 0 0 0.121094 0 0.121094 L 0 16.128906 C 0 16.128906 1.957031 17.882812 5.148438 18.839844 C 4.417969 20.582031 4.285156 22.066406 4.808594 23.007812 C 5.164062 23.648438 5.8125 24 6.636719 24 C 8.523438 24 11.230469 22.15625 13.445312 19.523438 C 19.574219 18.890625 24 15.882812 24 12.332031 Z M 19.605469 6.847656 C 20.136719 6.808594 20.910156 7.617188 18.984375 9.199219 C 18.65625 9.46875 17.65625 9.828125 17.390625 9.234375 C 17.179688 8.753906 17.667969 7.78125 18.570312 7.203125 C 18.929688 6.976562 19.296875 6.871094 19.605469 6.847656 Z M 6.636719 22.980469 C 6.179688 22.980469 5.875 22.824219 5.699219 22.511719 C 5.265625 21.734375 5.542969 19.804688 7.128906 17.246094 C 7.675781 16.371094 8.316406 15.519531 9.035156 14.707031 L 15.273438 14.707031 C 13.292969 19.441406 8.640625 22.980469 6.636719 22.980469 Z M 14.339844 18.378906 C 14.605469 18.011719 15.882812 16.175781 16.492188 14.359375 C 16.585938 14.085938 16.417969 13.6875 16.007812 13.6875 L 8.808594 13.6875 C 8.664062 13.6875 8.527344 13.75 8.433594 13.855469 C 7.609375 14.757812 6.878906 15.71875 6.261719 16.707031 C 6.011719 17.113281 5.785156 17.511719 5.585938 17.902344 C 3.722656 17.382812 2.15625 16.613281 1.019531 15.664062 L 1.019531 1.042969 C 3.839844 1.925781 3.894531 7.46875 3.894531 7.46875 C 3.894531 7.46875 6.859375 6.042969 11.078125 6.042969 C 13.277344 6.042969 15.398438 6.363281 17.261719 6.972656 C 16.519531 7.757812 16.113281 8.796875 16.425781 9.558594 C 17.066406 11.144531 18.921875 10.519531 19.535156 10.0625 C 20.050781 9.675781 20.519531 9.246094 20.8125 8.742188 C 22.214844 9.800781 22.980469 11.058594 22.980469 12.332031 C 22.980469 15.117188 19.339844 17.613281 14.339844 18.378906 Z M 14.339844 18.378906"/>
    <path d="M5.582031 9.1875L6.601562 9.1875 6.601562 11.144531 5.582031 11.144531zM7.929688 9.1875L8.953125 9.1875 8.953125 11.144531 7.929688 11.144531zM10.28125 9.1875L11.300781 9.1875 11.300781 11.144531 10.28125 11.144531zM12.628906 9.1875L13.652344 9.1875 13.652344 11.144531 12.628906 11.144531zM12.628906 9.1875"/>
</svg>
