<svg xmlns="http://www.w3.org/2000/svg" width="32" height="32" viewBox="0 0 24 24">
    <path d="M19.938 13.2c-.317 0-.625.034-.918.105l-2.122-5.711c.032-1.586-.382-2.832-1.226-3.703-1.16-1.196-2.703-1.207-2.766-1.207a.511.511 0 0 0 0 1.02c.008 0 1.172.01 2.035.898.391.406.664.937.809 1.582-1.2-.864-2.66-.711-3.43-.422a.51.51 0 0 0-.3.656.514.514 0 0 0 .656.3c.086-.034 2.14-.769 3.25 1.18l.664 1.797-1.07 1.559H9.605l-.683-2.059h1.504c.281 0 .511-.23.511-.511a.513.513 0 0 0-.511-.512H6.004a.51.51 0 0 0-.508.512.51.51 0 0 0 .508.511h1.844l.68 2.059H5.323c-4.515 0-5.277 2.812-5.308 2.93-.07.273.097.53.367.617.273.09.543-.098.62-.36.024-.086.583-1.968 3.81-2.152v.941c-2 .254-3.551 1.961-3.551 4.028a4.07 4.07 0 0 0 4.062 4.062 4.066 4.066 0 0 0 4.059-4.062 4.066 4.066 0 0 0-3.547-4.028v-.953h3.031l2.012 6.078a.54.54 0 0 0 .414.348c.187.04.395-.078.492-.219l5.238-7.617 1.036 2.793a4.065 4.065 0 0 0-2.18 3.598 4.066 4.066 0 0 0 4.059 4.062A4.067 4.067 0 0 0 24 17.258a4.064 4.064 0 0 0-4.063-4.059zM8.363 17.257a3.042 3.042 0 0 1-3.039 3.039 3.042 3.042 0 0 1-3.039-3.04 3.043 3.043 0 0 1 2.527-2.995v2.754c0 .28.231.511.512.511s.512-.23.512-.511v-2.754a3.043 3.043 0 0 1 2.527 2.996zm3.164-.2l-1.586-4.78h4.875zm8.41 3.239a3.042 3.042 0 0 1-3.039-3.04c0-1.124.614-2.105 1.52-2.628l1.043 2.805a.5.5 0 0 0 .656.3.508.508 0 0 0 .301-.656l-1.043-2.805a3.046 3.046 0 0 1 3.605 2.984 3.046 3.046 0 0 1-3.042 3.04zm0 0"/>
</svg>
