<svg xmlns="http://www.w3.org/2000/svg" width="32" height="32" viewBox="0 0 24 24">
    <path d="M6.25 14.667969L17.75 14.667969 17.75 4.804688 6.25 4.804688zM7.273438 5.824219L16.726562 5.824219 16.726562 13.648438 7.273438 13.648438zM7.578125 2.429688L16.421875 2.429688 16.421875 3.453125 7.578125 3.453125zM7.390625 16.3125L9.273438 16.3125 9.273438 17.332031 7.390625 17.332031zM14.726562 16.3125L16.609375 16.3125 16.609375 17.332031 14.726562 17.332031zM14.726562 16.3125"/>
    <path d="M 22.0625 3.84375 L 20.234375 3.84375 L 20.234375 2.417969 C 20.234375 1.085938 19.332031 0 18.226562 0 L 5.773438 0 C 4.667969 0 3.765625 1.085938 3.765625 2.417969 L 3.765625 3.84375 L 1.9375 3.84375 C 0.871094 3.84375 0 4.890625 0 6.175781 L 0 9.035156 C 0 10.070312 0.628906 10.925781 1.460938 11.027344 C 2.429688 11.144531 3.265625 10.234375 3.265625 9.097656 L 3.265625 7.113281 L 3.765625 7.113281 L 3.765625 21.648438 C 3.765625 22.945312 4.703125 24 5.71875 24 C 6.890625 24 7.800781 23.066406 7.800781 21.648438 L 7.800781 20.320312 L 16.328125 20.320312 L 16.328125 21.574219 C 16.328125 22.890625 17.15625 23.957031 18.214844 24 C 18.222656 24 18.273438 24 18.28125 24 C 19.355469 24 20.234375 22.945312 20.234375 21.648438 L 20.234375 7.113281 L 20.734375 7.113281 L 20.734375 9.035156 C 20.734375 10.070312 21.375 10.941406 22.195312 11.027344 C 22.714844 11.082031 23.257812 10.8125 23.5625 10.425781 C 23.84375 10.0625 24 9.59375 24 9.097656 L 24 6.175781 C 24 4.890625 23.128906 3.84375 22.0625 3.84375 Z M 22.980469 9.097656 C 22.980469 9.785156 22.558594 10.015625 22.328125 10.015625 C 22.324219 10.015625 22.320312 10.015625 22.320312 10.015625 C 22.046875 9.980469 21.757812 9.582031 21.757812 9.035156 L 21.757812 6.601562 C 21.757812 6.320312 21.527344 6.089844 21.246094 6.089844 L 19.722656 6.089844 C 19.441406 6.089844 19.210938 6.320312 19.210938 6.601562 L 19.210938 21.648438 C 19.210938 22.371094 18.777344 22.964844 18.328125 22.972656 C 17.703125 22.980469 17.347656 22.199219 17.347656 21.574219 L 17.347656 19.808594 C 17.347656 19.527344 17.121094 19.300781 16.839844 19.300781 L 7.289062 19.300781 C 7.007812 19.300781 6.777344 19.527344 6.777344 19.808594 L 6.777344 21.648438 C 6.777344 22.371094 6.320312 23.027344 5.71875 22.980469 C 5.214844 22.9375 4.789062 22.371094 4.789062 21.648438 L 4.789062 6.601562 C 4.789062 6.320312 4.558594 6.089844 4.277344 6.089844 L 2.753906 6.089844 C 2.472656 6.089844 2.242188 6.320312 2.242188 6.601562 L 2.242188 9.097656 C 2.242188 9.585938 1.960938 10.015625 1.585938 10.015625 C 1.585938 10.015625 1.585938 10.015625 1.582031 10.015625 C 1.3125 9.980469 1.019531 9.582031 1.019531 9.035156 L 1.019531 6.175781 C 1.019531 5.464844 1.441406 4.863281 1.9375 4.863281 L 4.277344 4.863281 C 4.558594 4.863281 4.789062 4.636719 4.789062 4.355469 L 4.789062 2.417969 C 4.789062 1.660156 5.238281 1.019531 5.773438 1.019531 L 18.226562 1.019531 C 18.761719 1.019531 19.210938 1.660156 19.210938 2.417969 L 19.210938 4.355469 C 19.210938 4.636719 19.441406 4.863281 19.722656 4.863281 L 22.0625 4.863281 C 22.558594 4.863281 22.980469 5.464844 22.980469 6.175781 Z M 22.980469 9.097656"/>
</svg>
