<svg xmlns="http://www.w3.org/2000/svg" width="32" height="32" viewBox="0 0 24 24">
    <path d="M22.414 9.727a.512.512 0 0 0-.394-.184 4.503 4.503 0 0 1-3.055-1.195L16.44 6.023a2.706 2.706 0 0 0-1.843-.718H2.383a.502.502 0 0 0-.305.101c-.125.094-3 2.371-1.773 10.125.039.25.25.434.504.434h2.015a2.936 2.936 0 0 0 2.926 2.73 2.932 2.932 0 0 0 2.922-2.73h5.71a2.936 2.936 0 0 0 2.927 2.73c1.55 0 2.82-1.207 2.925-2.73h2.852a.509.509 0 0 0 .441-.254c.067-.113 1.555-2.766-1.113-5.984zM5.75 17.676a1.91 1.91 0 1 1 0-3.82 1.91 1.91 0 0 1 0 3.82zm11.559 0a1.91 1.91 0 1 1 0-3.82 1.91 1.91 0 0 1 0 3.82zm5.449-2.735H20.12a2.936 2.936 0 0 0-2.812-2.109 2.936 2.936 0 0 0-2.813 2.11H8.562a2.936 2.936 0 0 0-2.812-2.11 2.936 2.936 0 0 0-2.813 2.11h-1.69c-.833-5.883.882-8.137 1.339-8.618h12.012c.43 0 .836.16 1.152.45l2.523 2.328a5.529 5.529 0 0 0 3.5 1.457c1.614 2.062 1.223 3.761.985 4.382zm0 0"/>
    <path d="M21.617 10.742l.7.695-.723.723-.696-.695zm0 0M5.656 6.805H2.961a.511.511 0 0 0-.512.511v3.79c0 .28.23.507.512.507h2.695a.508.508 0 0 0 .512-.508V7.316a.508.508 0 0 0-.512-.511zm-.508 3.789H3.473v-2.77h1.675zm0 0M10.113 6.805H7.414a.511.511 0 0 0-.512.511v3.79c0 .28.23.507.512.507h2.7a.507.507 0 0 0 .507-.508V7.316a.508.508 0 0 0-.508-.511zm-.511 3.789H7.926v-2.77h1.676zm0 0M17.375 9.195L14.789 6.93a.504.504 0 0 0-.336-.125h-2.7a.511.511 0 0 0-.51.511v3.79c0 .28.23.507.51.507h5.286a.508.508 0 0 0 .512-.508V9.578a.506.506 0 0 0-.176-.383zm-.844 1.399h-4.265v-2.77h1.996l2.27 1.989zm0 0"/>
</svg>
