<svg xmlns="http://www.w3.org/2000/svg" width="32" height="32" viewBox="0 0 24 24">
    <path d="M3.097656 16.269531C1.390625 16.269531 0 17.660156 0 19.367188 0 21.070312 1.390625 22.460938 3.097656 22.460938 4.800781 22.460938 6.191406 21.070312 6.191406 19.367188 6.191406 17.660156 4.800781 16.269531 3.097656 16.269531zM3.097656 21.460938C1.941406 21.460938 1 20.519531 1 19.367188 1 18.210938 1.941406 17.269531 3.097656 17.269531 4.25 17.269531 5.191406 18.210938 5.191406 19.367188 5.191406 20.519531 4.25 21.460938 3.097656 21.460938zM18.828125 16.269531C17.121094 16.269531 15.734375 17.660156 15.734375 19.367188 15.734375 21.070312 17.121094 22.460938 18.828125 22.460938 20.535156 22.460938 21.921875 21.070312 21.921875 19.367188 21.921875 17.660156 20.535156 16.269531 18.828125 16.269531zM18.828125 21.460938C17.671875 21.460938 16.734375 20.519531 16.734375 19.367188 16.734375 18.210938 17.671875 17.269531 18.828125 17.269531 19.980469 17.269531 20.921875 18.210938 20.921875 19.367188 20.921875 20.519531 19.980469 21.460938 18.828125 21.460938zM18.828125 21.460938"/>
    <path d="M 22.414062 12.171875 C 21.402344 11.277344 20.167969 11.167969 19.414062 11.207031 C 19.863281 7.640625 19.144531 5.011719 17.28125 3.386719 C 13.550781 0.125 6.652344 2.160156 6.359375 2.25 C 6.09375 2.328125 5.945312 2.609375 6.027344 2.871094 C 6.105469 3.136719 6.382812 3.285156 6.648438 3.207031 C 6.664062 3.203125 7.023438 3.097656 7.605469 2.972656 L 3.445312 13.871094 C 1.808594 13.921875 0.390625 14.53125 0.300781 14.570312 C 0.046875 14.679688 -0.0703125 14.972656 0.0429688 15.226562 C 0.152344 15.480469 0.449219 15.597656 0.699219 15.484375 C 0.730469 15.472656 3.589844 14.246094 5.542969 15.273438 C 6.4375 15.742188 7.015625 16.640625 7.269531 17.941406 C 7.3125 18.175781 7.519531 18.34375 7.757812 18.34375 L 14.007812 18.34375 C 14.226562 18.34375 14.421875 18.203125 14.488281 17.992188 C 14.492188 17.96875 15.1875 15.722656 17.246094 14.808594 C 19.21875 13.925781 20.972656 14.5 22.902344 15.320312 C 23.035156 16.164062 23.035156 17.171875 22.898438 18.339844 C 22.867188 18.617188 23.066406 18.863281 23.339844 18.894531 C 23.359375 18.898438 23.378906 18.898438 23.398438 18.898438 C 23.648438 18.898438 23.863281 18.710938 23.894531 18.457031 C 24.238281 15.460938 23.742188 13.347656 22.414062 12.171875 Z M 16.824219 13.898438 C 14.890625 14.792969 13.976562 16.582031 13.660156 17.34375 L 8.160156 17.34375 C 7.824219 16.027344 7.164062 15.066406 6.1875 14.488281 L 10.117188 10.097656 L 11.21875 11.164062 C 11.316406 11.257812 11.441406 11.304688 11.566406 11.304688 C 11.699219 11.304688 11.828125 11.253906 11.925781 11.152344 C 12.117188 10.953125 12.113281 10.636719 11.914062 10.445312 L 9.117188 7.742188 C 8.921875 7.550781 8.601562 7.554688 8.410156 7.753906 C 8.21875 7.953125 8.226562 8.269531 8.421875 8.460938 L 9.398438 9.402344 L 5.226562 14.074219 C 4.988281 14.003906 4.742188 13.953125 4.496094 13.917969 L 8.757812 2.757812 C 10.996094 2.417969 14.492188 2.273438 16.625 4.140625 C 18.324219 5.625 18.882812 8.164062 18.332031 11.703125 C 18.265625 12.132812 18.691406 12.324219 18.941406 12.269531 C 18.960938 12.265625 20.601562 11.898438 21.757812 12.925781 C 22.097656 13.230469 22.367188 13.621094 22.566406 14.097656 C 20.382812 13.214844 18.453125 13.148438 16.824219 13.898438 Z M 16.824219 13.898438"/>
    <path d="M 15.675781 7.992188 C 15.425781 8.117188 15.324219 8.414062 15.445312 8.664062 C 15.738281 9.257812 16.351562 11.007812 15.675781 11.933594 C 15.058594 12.777344 13.503906 12.742188 12.308594 12.566406 C 12.03125 12.527344 11.78125 12.710938 11.738281 12.984375 C 11.699219 13.257812 11.886719 13.511719 12.160156 13.554688 C 12.671875 13.628906 13.144531 13.667969 13.578125 13.667969 C 14.953125 13.667969 15.929688 13.285156 16.484375 12.523438 C 17.65625 10.917969 16.398438 8.328125 16.34375 8.21875 C 16.222656 7.972656 15.921875 7.871094 15.675781 7.992188 Z M 15.675781 7.992188"/>
</svg>
