<svg xmlns="http://www.w3.org/2000/svg" width="32" height="32" viewBox="0 0 24 24">
    <path d="M24 12.633c0-3.149-3.98-6.813-7.816-7.54V1.067h7.308V.051H7.422v1.015h7.742v3.907a7.93 7.93 0 0 0-.305-.008c-2.46 0-4.238 1.426-5.27 3.375L3.7 9.87 2.313 6.703 0 7.301l1.79 7.453h7.25c.6 1.289 1.745 2.375 3.206 3.09-1.64 2.215-1.973 6.105-1.973 6.105h12.075s-.649-3.55-2.61-5.855C22.262 17.09 24 15.02 24 12.633zm-1.016 0c0 .12-.007.238-.02.355-2.823-.004-4.632-.644-5.362-1.906-.86-1.477-.047-3.504.363-4.344 2.73 1.285 5.02 3.93 5.02 5.895zM2.59 13.734L1.223 8.035l.507-.133 1.387 3.168 5.961-1.547a9.565 9.565 0 0 0-.52 3.11c0 .375.044.746.126 1.101zm18.457 9.2h-9.621c.375-2.383 1.351-4.055 1.777-4.696a9.482 9.482 0 0 0 3.074.504c.836 0 1.645-.105 2.399-.3 1.3 1.304 2.058 3.44 2.37 4.492zm-4.77-5.207c-3.695 0-6.703-2.286-6.703-5.094 0-2.57 1.434-6.653 5.285-6.653.715 0 1.446.137 2.157.38-.496 1.03-1.375 3.367-.297 5.23.902 1.558 2.926 2.37 6.015 2.414-.789 2.144-3.382 3.723-6.457 3.723zm0 0"/>
</svg>
