<svg xmlns="http://www.w3.org/2000/svg" width="32" height="32" viewBox="0 0 24 24">
    <path d="M21.047 10.512c-.004-.004-.008-.004-.008-.008V5.926h-8.906v3.172h2.199v1.308h-.547a.497.497 0 0 0-.37.164.496.496 0 0 0-.138.383c.09 1.274-.093 3.188-.664 3.43H9.367c-.277-1.14-.945-4.844 1.012-8.145a.514.514 0 0 0-.035-.574C10.28 5.586 8.789 3.7 6.219 3.941a.507.507 0 0 0-.461.508v3.406c0 .286.23.512.512.512h.703l-1.618 2.914H4.008a1.049 1.049 0 0 0-1.02 1.309A3.798 3.798 0 0 0 0 16.293c0 2.09 1.7 3.789 3.79 3.789a3.796 3.796 0 0 0 3.737-3.172c.09.074.2.113.317.113h6.277a3.797 3.797 0 0 0 3.719 3.059 3.8 3.8 0 0 0 3.719-3.059h1.93c.28 0 .511-.23.511-.511 0-.153-.035-3.778-2.953-6zm-7.895-2.438V6.95h6.864v3.457h-4.664V8.074zM3.79 19.06a2.77 2.77 0 0 1-2.77-2.766 2.772 2.772 0 0 1 2.77-2.77 2.77 2.77 0 0 1 2.766 2.77 2.766 2.766 0 0 1-2.766 2.766zm14.05 0a2.77 2.77 0 0 1-2.769-2.766 2.772 2.772 0 0 1 2.77-2.77 2.768 2.768 0 0 1 0 5.535zM21.618 16a3.797 3.797 0 0 0-3.777-3.496A3.791 3.791 0 0 0 14.063 16H8.038l-.543-.488a3.795 3.795 0 0 0-3.437-2.996l-.207-.012h-.016l.172-.203h1.648a.51.51 0 0 0 .446-.262l2.187-3.934c.172-.308-.043-.757-.445-.757H6.777V4.94c1.27.04 2.149.727 2.535 1.106-2.316 4.254-.882 8.808-.82 9.004.07.21.266.355.485.355 0 0 3.804-.008 3.843-.02 1.399-.359 1.528-2.769 1.5-3.96h6.239c1.8 1.457 2.261 3.601 2.378 4.574zm0 0"/>
    <path d="M17.852 15.586l.695.691-.723.723-.695-.695zm-14.938.719L3.61 17l.723-.723-.695-.691zm0 0"/>
</svg>
