<svg xmlns="http://www.w3.org/2000/svg" width="32" height="32" viewBox="0 0 24 24">
    <path d="M20.117 11.555a3.85 3.85 0 0 0-1.91.504l-1.004-1.336a10.175 10.175 0 0 1 2.7-1.395.531.531 0 0 0 .316-.285.522.522 0 0 0-.008-.426C18.484 5 15.805 4.687 15.69 4.676a.513.513 0 0 0-.425.86c.316.339.449.706.402 1.128-.02.18-.074.367-.152.55-2.914-.952-4.774.407-5.43 1.024-1.625-.574-3.09-.863-4.371-.863-1.977 0-2.809.7-2.899.781a.508.508 0 0 0-.148.52c.05.187.207.328.398.36 1.88.343 3.196.984 4.11 1.745l-1.188 1.395a3.87 3.87 0 0 0-2.101-.621A3.89 3.89 0 0 0 0 15.44a3.889 3.889 0 0 0 3.887 3.883 3.888 3.888 0 0 0 3.883-3.883c0-1-.38-1.914-1.004-2.605l1.14-1.336c1.657 1.95 1.317 4.262 1.293 4.41a.515.515 0 0 0 .114.414.52.52 0 0 0 .39.18h4.567a.505.505 0 0 0 .386-.18.505.505 0 0 0 .117-.41c-.312-2.008.543-3.492 1.641-4.535l.977 1.293a3.887 3.887 0 0 0-1.16 2.77 3.889 3.889 0 0 0 3.886 3.882A3.888 3.888 0 0 0 24 15.441a3.889 3.889 0 0 0-3.883-3.886zM14.97 8.117c-.5.64-1.16 1.211-1.606 1.547a29.529 29.529 0 0 0-2.191-1.012c.668-.48 1.941-1.066 3.797-.535zM6.75 15.441a2.867 2.867 0 0 1-2.863 2.864A2.868 2.868 0 0 1 1.02 15.44a2.866 2.866 0 0 1 4.3-2.476l-1.824 2.144.777.66 1.825-2.144c.406.492.652 1.125.652 1.816zm6.95.043h-3.45c.031-1.504-.379-5.437-5.332-7.039.234-.03.5-.047.797-.047 1.37 0 3.773.403 7.457 2.317a.514.514 0 0 0 .523-.031c.114-.079 2.762-1.899 2.989-3.907.027-.238.02-.472-.02-.695.688.371 1.598 1.094 2.371 2.484-1.527.633-5.605 2.735-5.336 6.918zm6.417 2.82a2.868 2.868 0 0 1-2.867-2.863c0-.75.29-1.433.762-1.945l1.695 2.25.816-.613-1.695-2.25a2.865 2.865 0 0 1 4.152 2.559 2.867 2.867 0 0 1-2.863 2.863zm0 0"/>
</svg>
