<svg xmlns="http://www.w3.org/2000/svg" width="32" height="32" viewBox="0 0 24 24">
    <path d="M 17.523438 1.992188 C 17.511719 2.328125 17.65625 2.625 17.882812 2.875 L 15.964844 3.726562 C 15.8125 3.695312 15.652344 3.679688 15.492188 3.679688 L 8.507812 3.679688 C 8.394531 3.679688 8.28125 3.6875 8.167969 3.703125 L 6.324219 2.886719 C 6.5625 2.632812 6.695312 2.335938 6.695312 1.992188 C 6.695312 0.683594 4.695312 0 2.714844 0 C 1.121094 0 0 0.484375 0 0.484375 L 0 3.5 C 0 3.5 1.085938 3.988281 2.714844 3.988281 C 3.636719 3.988281 4.566406 3.839844 5.292969 3.546875 L 6.949219 4.28125 C 6.871094 4.351562 5.871094 5.152344 6.078125 6.707031 L 7.566406 17.804688 C 7.71875 18.957031 8.566406 19.855469 9.605469 20.039062 L 9.605469 21.601562 C 9.605469 22.925781 10.679688 24 12 24 C 13.320312 24 14.398438 22.925781 14.398438 21.601562 L 14.398438 20.039062 C 15.433594 19.855469 16.28125 18.957031 16.433594 17.804688 L 17.921875 6.707031 C 18.03125 5.902344 17.804688 5.050781 17.113281 4.335938 L 18.90625 3.539062 C 19.636719 3.835938 20.574219 3.988281 21.503906 3.988281 C 22.761719 3.988281 24 3.589844 24 3.589844 L 24 0.398438 C 22.503906 -0.296875 17.589844 -0.183594 17.523438 1.992188 Z M 1.019531 2.761719 L 1.019531 1.226562 C 1.523438 1.09375 2.109375 1.019531 2.714844 1.019531 C 4.550781 1.019531 5.675781 1.652344 5.675781 1.992188 C 5.675781 2.335938 4.550781 2.964844 2.714844 2.964844 C 2.113281 2.964844 1.523438 2.894531 1.019531 2.761719 Z M 15.492188 4.699219 C 16.617188 4.699219 17.027344 5.921875 16.910156 6.570312 L 16.535156 9.359375 L 14.574219 9.359375 C 14.347656 8.046875 13.28125 7.046875 12 7.046875 C 10.71875 7.046875 9.652344 8.046875 9.429688 9.359375 L 7.464844 9.359375 L 7.089844 6.570312 C 6.992188 5.800781 7.441406 4.699219 8.507812 4.699219 Z M 13.59375 9.871094 C 13.59375 10.863281 12.878906 11.671875 12 11.671875 C 11.121094 11.671875 10.40625 10.863281 10.40625 9.871094 C 10.40625 8.875 11.121094 8.066406 12 8.066406 C 12.878906 8.066406 13.59375 8.875 13.59375 9.871094 Z M 13.375 21.601562 C 13.375 22.363281 12.757812 22.980469 12 22.980469 C 11.242188 22.980469 10.625 22.363281 10.625 21.601562 L 10.625 17.519531 C 10.625 16.761719 11.242188 16.144531 12 16.144531 C 12.757812 16.144531 13.375 16.761719 13.375 17.519531 Z M 15.421875 17.667969 C 15.335938 18.304688 14.921875 18.816406 14.398438 18.988281 L 14.398438 17.519531 C 14.398438 16.199219 13.320312 15.125 12 15.125 C 10.679688 15.125 9.605469 16.199219 9.605469 17.519531 L 9.605469 18.988281 C 9.078125 18.816406 8.664062 18.304688 8.578125 17.667969 L 7.601562 10.382812 L 9.429688 10.382812 C 9.652344 11.695312 10.71875 12.695312 12 12.695312 C 13.28125 12.695312 14.347656 11.695312 14.574219 10.382812 L 16.398438 10.382812 Z M 22.980469 2.816406 C 22.527344 2.914062 22.023438 2.964844 21.503906 2.964844 C 19.667969 2.964844 18.542969 2.335938 18.542969 1.992188 C 18.542969 1.652344 19.667969 1.019531 21.503906 1.019531 C 22.023438 1.019531 22.527344 1.074219 22.980469 1.171875 Z M 22.980469 2.816406"/>
</svg>
