<svg xmlns="http://www.w3.org/2000/svg" width="32" height="32" viewBox="0 0 24 24">
    <path d="M 20.582031 12.925781 C 20.746094 12.910156 20.890625 12.816406 20.976562 12.675781 C 21.058594 12.53125 21.066406 12.359375 20.996094 12.207031 L 18.242188 6.140625 C 18.382812 5.929688 18.460938 5.679688 18.460938 5.410156 C 18.460938 4.671875 17.859375 4.074219 17.125 4.074219 C 16.386719 4.074219 15.785156 4.671875 15.785156 5.410156 C 15.785156 6.148438 16.386719 6.746094 17.125 6.746094 C 17.214844 6.746094 17.300781 6.738281 17.386719 6.722656 L 19.804688 12.046875 C 18.5 12.386719 15.785156 13.535156 15.824219 17.152344 L 12.089844 17.152344 C 10.246094 14.621094 11.972656 9.089844 11.996094 9.035156 C 12.082031 8.832031 11.941406 8.371094 11.507812 8.371094 L 11.460938 8.371094 L 11.460938 7.226562 C 11.460938 6.945312 11.230469 6.71875 10.949219 6.71875 L 2.445312 6.71875 C 2.164062 6.71875 1.933594 6.945312 1.933594 7.226562 L 1.933594 8.394531 C 1.433594 8.621094 1.570312 9.0625 1.699219 9.214844 L 9.265625 17.996094 C 9.363281 18.109375 9.503906 18.175781 9.652344 18.175781 L 16.359375 18.175781 C 16.785156 18.175781 16.882812 17.765625 16.871094 17.621094 C 16.519531 13.386719 20.417969 12.945312 20.582031 12.925781 Z M 16.808594 5.410156 C 16.808594 5.234375 16.949219 5.09375 17.125 5.09375 C 17.296875 5.09375 17.441406 5.234375 17.441406 5.410156 C 17.441406 5.585938 17.296875 5.726562 17.125 5.726562 C 16.949219 5.726562 16.808594 5.585938 16.808594 5.410156 Z M 10.4375 7.738281 L 10.4375 8.371094 L 2.953125 8.371094 L 2.953125 7.738281 Z M 9.886719 17.152344 L 3.199219 9.390625 L 10.832031 9.390625 C 10.433594 10.917969 9.65625 14.6875 10.898438 17.152344 Z M 9.886719 17.152344"/>
    <path d="M20.796875 13.519531C19.03125 13.519531 17.59375 14.957031 17.59375 16.722656 17.59375 18.492188 19.03125 19.925781 20.796875 19.925781 22.5625 19.925781 24 18.492188 24 16.722656 24 14.957031 22.5625 13.519531 20.796875 13.519531zM20.796875 18.90625C19.59375 18.90625 18.613281 17.925781 18.613281 16.722656 18.613281 15.519531 19.59375 14.542969 20.796875 14.542969 22 14.542969 22.980469 15.519531 22.980469 16.722656 22.980469 17.925781 22 18.90625 20.796875 18.90625zM3.203125 13.519531C1.4375 13.519531 0 14.957031 0 16.722656 0 18.492188 1.4375 19.925781 3.203125 19.925781 4.96875 19.925781 6.40625 18.492188 6.40625 16.722656 6.40625 14.957031 4.96875 13.519531 3.203125 13.519531zM3.203125 18.90625C2 18.90625 1.019531 17.925781 1.019531 16.722656 1.019531 15.519531 2 14.542969 3.203125 14.542969 4.40625 14.542969 5.386719 15.519531 5.386719 16.722656 5.386719 17.925781 4.40625 18.90625 3.203125 18.90625zM3.203125 18.90625"/>
    <path d="M 20.96875 16.175781 L 21.34375 16.550781 L 20.625 17.273438 L 20.25 16.898438 Z M 2.65625 16.898438 L 3.03125 17.273438 L 3.75 16.550781 L 3.375 16.175781 Z M 2.65625 16.898438"/>
</svg>
