<svg xmlns="http://www.w3.org/2000/svg" width="32" height="32" viewBox="0 0 24 24">
    <path d="M11.008 6.816h1.984v1.02h-1.984zm0 0"/>
    <path d="M18.64 12.496c-.265 0-.53.016-.792.047a11.26 11.26 0 0 0 .254-2.379c0-4.168-2.247-7.93-5.868-9.816L12 .223l-.238.125c-3.617 1.886-5.864 5.648-5.864 9.816 0 .809.086 1.606.25 2.379a6.633 6.633 0 0 0-.789-.047C2.402 12.496 0 14.47 0 16.895c0 1.445.914 2.468.914 2.468h8.059l.14-2.226h5.774l.14 2.226h8.059S24 18.34 24 16.895c0-2.426-2.402-4.399-5.36-4.399zM12 1.38a9.762 9.762 0 0 1 3.02 2.617H8.98A9.762 9.762 0 0 1 12 1.38zm-3.703 3.64h7.406a10.198 10.198 0 0 1 1.379 5.145c0 .871-.11 1.734-.328 2.566a10.053 10.053 0 0 1-1.59 3.387H8.836a10.084 10.084 0 0 1-1.914-5.953c0-1.855.488-3.625 1.375-5.144zM1.445 18.34a2.772 2.772 0 0 1-.425-1.444c0-1.864 1.949-3.38 4.34-3.38.367 0 .726.04 1.077.11a11.137 11.137 0 0 0 1.672 3.227l-.093 1.488zm21.11 0h-6.57l-.094-1.491a11 11 0 0 0 1.668-3.223c.351-.07.714-.11 1.082-.11 2.39 0 4.34 1.516 4.34 3.38 0 .5-.149.992-.426 1.445zm0 0"/>
    <path d="M12 13.34c1.105 0 2.008-.766 2.008-1.707 0-.945-.903-1.711-2.008-1.711s-2.004.765-2.004 1.71c0 .942.899 1.708 2.004 1.708zm0-2.399c.535 0 .984.317.984.692 0 .37-.449.687-.984.687-.535 0-.984-.316-.984-.687 0-.375.449-.692.984-.692zm0 0M21.102 20.14h1.023v2.512h-1.023zm0 0M16.973 20.14h1.02v2.512h-1.02zm0 0M6.008 20.14h1.02v2.512h-1.02zm0 0M1.875 20.14h1.023v2.512H1.875zm0 0M19.04 21.395h1.019v2.382h-1.02zm0 0M3.941 21.395h1.024v2.382H3.94zm0 0"/>
</svg>
