<svg xmlns="http://www.w3.org/2000/svg" width="32" height="32" viewBox="0 0 24 24">
    <path d="M 18.167969 9.503906 C 17.839844 6.574219 15.578125 1.113281 12.0625 0.269531 C 11.988281 0.25 11.902344 0.25 11.824219 0.269531 C 8.429688 1.085938 6.046875 6.511719 5.722656 9.53125 C 2.464844 10.410156 0.0820312 13.585938 0 17.230469 C -0.00390625 17.367188 0.101562 17.75 0.511719 17.75 L 8.007812 17.75 C 8.289062 17.75 8.515625 17.523438 8.515625 17.242188 L 8.515625 14.898438 L 15.484375 14.898438 L 15.484375 17.242188 C 15.484375 17.523438 15.710938 17.75 15.992188 17.75 L 23.488281 17.75 C 23.882812 17.75 24.003906 17.367188 24 17.230469 C 23.914062 13.527344 21.484375 10.339844 18.167969 9.503906 Z M 16.503906 16.730469 L 16.503906 14.507812 C 16.503906 14.296875 16.355469 13.875 15.71875 13.875 L 8.007812 13.875 C 7.722656 13.875 7.496094 14.105469 7.496094 14.386719 L 7.496094 16.730469 L 1.050781 16.730469 C 1.332031 13.640625 3.476562 11.039062 6.308594 10.441406 C 6.53125 10.390625 6.699219 10.199219 6.710938 9.964844 C 6.859375 7.054688 9.160156 2.085938 11.945312 1.292969 C 14.714844 2.082031 17.019531 7.039062 17.179688 9.945312 C 17.191406 10.179688 17.363281 10.375 17.59375 10.421875 C 20.476562 10.980469 22.664062 13.59375 22.949219 16.730469 Z M 16.503906 16.730469"/>
    <path d="M12 7.378906C10.503906 7.378906 9.289062 8.429688 9.289062 9.714844 9.289062 11.003906 10.503906 12.054688 12 12.054688 13.496094 12.054688 14.710938 11.003906 14.710938 9.714844 14.710938 8.429688 13.496094 7.378906 12 7.378906zM12 11.03125C11.070312 11.03125 10.3125 10.441406 10.3125 9.714844 10.3125 8.992188 11.070312 8.402344 12 8.402344 12.929688 8.402344 13.691406 8.992188 13.691406 9.714844 13.691406 10.441406 12.929688 11.03125 12 11.03125zM22.101562 18.382812L23.121094 18.382812 23.121094 21.386719 22.101562 21.386719zM16.808594 18.382812L17.828125 18.382812 17.828125 21.386719 16.808594 21.386719zM19.371094 18.382812L20.390625 18.382812 20.390625 23.746094 19.371094 23.746094zM6.171875 18.382812L7.191406 18.382812 7.191406 21.386719 6.171875 21.386719zM.878906 18.382812L1.898438 18.382812 1.898438 21.386719.878906 21.386719zM3.441406 18.382812L4.460938 18.382812 4.460938 23.746094 3.441406 23.746094zM3.441406 18.382812"/>
</svg>
