<svg xmlns="http://www.w3.org/2000/svg" width="32" height="32" viewBox="0 0 24 24">
    <path d="M 19.269531 20.03125 L 12.65625 20.03125 C 12.660156 19.945312 12.664062 19.863281 12.664062 19.777344 C 12.664062 18.03125 11.597656 16.527344 10.078125 15.886719 L 13.054688 3.785156 C 13.089844 3.652344 13.066406 3.511719 12.996094 3.394531 L 11.0625 0.242188 C 10.914062 0.00390625 10.601562 -0.0703125 10.359375 0.0742188 C 10.121094 0.222656 10.042969 0.535156 10.191406 0.777344 L 12.011719 3.746094 L 9.09375 15.609375 C 8.882812 15.574219 8.664062 15.558594 8.441406 15.558594 C 6.113281 15.558594 4.21875 17.449219 4.21875 19.777344 C 4.21875 22.105469 6.113281 24 8.441406 24 C 10.324219 24 11.925781 22.757812 12.46875 21.050781 L 19.269531 21.050781 C 19.550781 21.050781 19.78125 20.824219 19.78125 20.539062 C 19.78125 20.257812 19.550781 20.03125 19.269531 20.03125 Z M 8.441406 22.980469 C 6.675781 22.980469 5.242188 21.542969 5.242188 19.777344 C 5.242188 18.015625 6.675781 16.578125 8.441406 16.578125 C 10.207031 16.578125 11.644531 18.015625 11.644531 19.777344 C 11.644531 21.542969 10.207031 22.980469 8.441406 22.980469 Z M 8.441406 22.980469"/>
</svg>
