<svg xmlns="http://www.w3.org/2000/svg" width="32" height="32" viewBox="0 0 24 24">
    <path d="M2.766 16.41l.925-.375-2.21-5.496h4.91l.68 2.453h11.113l1.808-2.453h2.43L19.594 16.5l.902.426L24 9.539h-4.512l-1.808 2.453H7.832l-.68-2.453H4.578l1.48-8.297h6.247v4.086h1V.242H5.223L3.563 9.54H0zm0 0"/>
    <path d="M18.27 18.46c-.141.08-1.153.837-1.82.837-.45 0-1.282-.645-1.282-.645-1.461-1.03-3.121-2.199-4.91-1.797-.73.16-1.403.57-2.055.97-.937.573-1.75 1.07-2.523.75-.215-.087-1.184-.786-1.492-.919-1.286-.543-2.61.215-3.485.719l.496.867c.934-.535 1.832-.988 2.598-.664.207.086 1.18.79 1.5.918 1.246.512 2.402-.195 3.426-.82.582-.356 1.183-.719 1.754-.848 1.359-.305 3.035.813 4.117 1.64 1.082.829 1.71.829 1.914.829.86 0 1.543-.563 2.265-.977 1.293-.742 2.747-.918 4.114-.48l.304-.95c-1.636-.527-3.386-.328-4.921.57zm0 0M18.27 21.922c-.141.078-1.153.836-1.82.836-.45 0-1.282-.645-1.282-.645-1.461-1.031-3.121-2.195-4.91-1.797-.73.164-1.403.57-2.055.97-.937.573-1.75 1.07-2.523.75-.215-.087-1.184-.786-1.492-.919-1.286-.543-2.61.215-3.485.723l.496.863c.934-.535 1.832-.988 2.598-.664.207.086 1.18.79 1.5.918 1.246.512 2.402-.195 3.426-.82.582-.352 1.183-.719 1.754-.848 1.359-.305 3.035.813 4.117 1.64 1.082.829 1.71.829 1.914.829.86 0 1.543-.563 2.265-.977 1.293-.738 2.747-.918 4.114-.48l.304-.95c-1.636-.527-3.386-.328-4.921.57zm0 0M8.91 7.074h1.824v.996H8.91zm0 0M11.895 7.074h1.82v.996h-1.82zm0 0M14.875 7.074h1.824v.996h-1.824zm0 0M8.91 9.54h1.824v1H8.91zm0 0M11.895 9.54h1.82v1h-1.82zm0 0M14.875 9.54h1.824v1h-1.824zm0 0"/>
</svg>
