<svg xmlns="http://www.w3.org/2000/svg" width="32" height="32" viewBox="0 0 24 24">
    <path d="M 19.71875 12.480469 C 19.054688 12.183594 18.542969 11.621094 18.316406 10.933594 C 17.710938 9.113281 16.105469 7.839844 14.226562 7.644531 L 14.226562 3.4375 L 16.671875 4.953125 C 17.0625 5.167969 17.453125 4.894531 17.453125 4.519531 L 17.453125 0.515625 C 17.453125 0.152344 17.046875 -0.152344 16.671875 0.0820312 L 13.445312 2.085938 C 13.296875 2.179688 13.203125 2.34375 13.203125 2.519531 L 13.203125 7.644531 C 11.472656 7.824219 9.957031 8.921875 9.261719 10.542969 C 8.964844 11.226562 8.421875 11.738281 7.761719 11.949219 C 6.175781 12.457031 4.832031 13.179688 3.855469 14.058594 C 3.09375 13.558594 2.191406 13.285156 1.277344 13.285156 C 0.734375 13.285156 0.00390625 13.445312 0.00390625 13.445312 L 0.00390625 22.5 C 0.00390625 22.5 0.667969 22.660156 1.277344 22.660156 C 2.421875 22.660156 3.496094 22.253906 4.347656 21.515625 C 6.40625 23.078125 9.613281 24 13.039062 24 C 19.183594 24 23.996094 21.179688 23.996094 17.582031 C 23.996094 15.554688 22.4375 13.695312 19.71875 12.480469 Z M 19.050781 13.285156 L 14.796875 13.285156 C 14.277344 13.285156 13.855469 12.867188 13.855469 12.347656 L 13.855469 11.617188 C 13.855469 11.101562 14.277344 10.679688 14.796875 10.679688 L 17.101562 10.679688 C 17.199219 10.863281 17.28125 11.054688 17.347656 11.257812 C 17.632812 12.125 18.246094 12.851562 19.050781 13.285156 Z M 16.433594 1.433594 L 16.433594 3.601562 L 14.683594 2.519531 Z M 13.039062 22.980469 C 9.640625 22.980469 6.503906 22.03125 4.652344 20.449219 L 4.28125 20.132812 L 3.949219 20.484375 C 3.1875 21.289062 2.144531 21.710938 1.023438 21.628906 L 1.023438 14.316406 C 1.972656 14.25 2.855469 14.535156 3.578125 15.117188 L 3.941406 15.40625 L 4.265625 15.078125 C 5.144531 14.179688 6.460938 13.4375 8.070312 12.921875 C 9.011719 12.625 9.785156 11.902344 10.199219 10.949219 C 10.804688 9.542969 12.183594 8.636719 13.714844 8.636719 C 14.707031 8.636719 15.628906 9.015625 16.320312 9.660156 L 14.796875 9.660156 C 13.714844 9.660156 12.835938 10.539062 12.835938 11.617188 L 12.835938 12.347656 C 12.835938 13.429688 13.714844 14.308594 14.796875 14.308594 L 20.902344 14.308594 C 22.238281 15.246094 22.976562 16.390625 22.976562 17.582031 C 22.976562 20.558594 18.519531 22.980469 13.039062 22.980469 Z M 13.039062 22.980469"/>
    <path d="M17.925781 15.90625C16.804688 15.90625 15.886719 16.820312 15.886719 17.941406 15.886719 19.0625 16.804688 19.976562 17.925781 19.976562 19.050781 19.976562 19.964844 19.0625 19.964844 17.941406 19.964844 16.820312 19.050781 15.90625 17.925781 15.90625zM17.925781 18.957031C17.367188 18.957031 16.910156 18.5 16.910156 17.941406 16.910156 17.382812 17.367188 16.929688 17.925781 16.929688 18.488281 16.929688 18.945312 17.382812 18.945312 17.941406 18.945312 18.5 18.488281 18.957031 17.925781 18.957031zM12.855469 15.90625C11.730469 15.90625 10.816406 16.820312 10.816406 17.941406 10.816406 19.0625 11.730469 19.976562 12.855469 19.976562 13.980469 19.976562 14.894531 19.0625 14.894531 17.941406 14.894531 16.820312 13.980469 15.90625 12.855469 15.90625zM12.855469 18.957031C12.292969 18.957031 11.839844 18.5 11.839844 17.941406 11.839844 17.382812 12.292969 16.929688 12.855469 16.929688 13.417969 16.929688 13.871094 17.382812 13.871094 17.941406 13.871094 18.5 13.417969 18.957031 12.855469 18.957031zM7.785156 15.90625C6.660156 15.90625 5.746094 16.820312 5.746094 17.941406 5.746094 19.0625 6.660156 19.976562 7.785156 19.976562 8.90625 19.976562 9.824219 19.0625 9.824219 17.941406 9.824219 16.820312 8.90625 15.90625 7.785156 15.90625zM7.785156 18.957031C7.222656 18.957031 6.765625 18.5 6.765625 17.941406 6.765625 17.382812 7.222656 16.929688 7.785156 16.929688 8.34375 16.929688 8.800781 17.382812 8.800781 17.941406 8.800781 18.5 8.34375 18.957031 7.785156 18.957031zM7.785156 18.957031"/>
</svg>
