<svg xmlns="http://www.w3.org/2000/svg" width="32" height="32" viewBox="0 0 24 24">
    <path d="M 21.683594 14.394531 L 20.324219 14.394531 C 19.046875 14.394531 18.003906 15.433594 18.003906 16.710938 L 18.003906 18.6875 L 16.929688 18.6875 C 16.960938 18.515625 16.980469 18.34375 16.980469 18.167969 L 16.980469 13.398438 L 22.039062 13.398438 L 22.03125 12.878906 C 21.992188 10.480469 20.402344 8.351562 18.113281 7.578125 L 18.113281 3.351562 C 18.113281 1.503906 16.585938 0 14.707031 0 L 9.292969 0 C 7.414062 0 5.886719 1.503906 5.886719 3.351562 L 5.886719 7.578125 C 5.398438 7.742188 4.945312 7.96875 4.527344 8.246094 L 4.527344 0.5 L 2.238281 0.5 L 2.238281 1.519531 L 3.507812 1.519531 L 3.507812 9.113281 C 2.566406 10.121094 1.992188 11.453125 1.96875 12.878906 L 1.960938 13.398438 L 7.019531 13.398438 L 7.019531 18.167969 C 7.019531 18.34375 7.039062 18.515625 7.070312 18.6875 L 5.996094 18.6875 L 5.996094 16.710938 C 5.996094 15.433594 4.953125 14.394531 3.675781 14.394531 L 2.316406 14.394531 C 1.039062 14.394531 0 15.433594 0 16.710938 L 0 21.683594 C 0 22.960938 1.039062 24 2.316406 24 L 3.675781 24 C 4.953125 24 5.996094 22.960938 5.996094 21.683594 L 5.996094 19.707031 L 7.503906 19.707031 C 8.003906 20.425781 8.84375 20.902344 9.796875 20.902344 L 14.203125 20.902344 C 15.15625 20.902344 15.996094 20.425781 16.496094 19.707031 L 18.003906 19.707031 L 18.003906 21.683594 C 18.003906 22.960938 19.046875 24 20.324219 24 L 21.683594 24 C 22.960938 24 24 22.960938 24 21.683594 L 24 16.710938 C 24 15.433594 22.960938 14.394531 21.683594 14.394531 Z M 4.972656 21.683594 C 4.972656 22.398438 4.390625 22.980469 3.675781 22.980469 L 2.316406 22.980469 C 1.601562 22.980469 1.019531 22.398438 1.019531 21.683594 L 1.019531 16.710938 C 1.019531 15.996094 1.601562 15.414062 2.316406 15.414062 L 3.675781 15.414062 C 4.390625 15.414062 4.972656 15.996094 4.972656 16.710938 Z M 15.960938 18.167969 C 15.960938 19.113281 15.171875 19.878906 14.203125 19.878906 L 9.796875 19.878906 C 8.828125 19.878906 8.039062 19.113281 8.039062 18.167969 L 8.039062 12.378906 L 3.027344 12.378906 C 3.273438 10.519531 4.652344 8.945312 6.527344 8.453125 L 6.90625 8.351562 L 6.90625 3.351562 C 6.90625 2.066406 7.976562 1.019531 9.292969 1.019531 L 14.707031 1.019531 C 16.023438 1.019531 17.09375 2.066406 17.09375 3.351562 L 17.09375 8.351562 L 17.472656 8.453125 C 19.347656 8.945312 20.726562 10.519531 20.972656 12.378906 L 15.960938 12.378906 Z M 22.980469 21.683594 C 22.980469 22.398438 22.398438 22.980469 21.683594 22.980469 L 20.324219 22.980469 C 19.609375 22.980469 19.027344 22.398438 19.027344 21.683594 L 19.027344 16.710938 C 19.027344 15.996094 19.609375 15.414062 20.324219 15.414062 L 21.683594 15.414062 C 22.398438 15.414062 22.980469 15.996094 22.980469 16.710938 Z M 22.980469 21.683594"/>
    <path d="M13.953125 9.84375C12.992188 9.84375 12.214844 10.613281 12.214844 11.558594 12.214844 12.503906 12.992188 13.273438 13.953125 13.273438 14.910156 13.273438 15.691406 12.503906 15.691406 11.558594 15.691406 10.613281 14.910156 9.84375 13.953125 9.84375zM13.953125 12.253906C13.554688 12.253906 13.234375 11.941406 13.234375 11.558594 13.234375 11.175781 13.554688 10.863281 13.953125 10.863281 14.347656 10.863281 14.667969 11.175781 14.667969 11.558594 14.667969 11.941406 14.347656 12.253906 13.953125 12.253906zM10.046875 9.84375C9.089844 9.84375 8.308594 10.613281 8.308594 11.558594 8.308594 12.503906 9.089844 13.273438 10.046875 13.273438 11.007812 13.273438 11.785156 12.503906 11.785156 11.558594 11.785156 10.613281 11.007812 9.84375 10.046875 9.84375zM10.046875 12.253906C9.652344 12.253906 9.332031 11.941406 9.332031 11.558594 9.332031 11.175781 9.652344 10.863281 10.046875 10.863281 10.441406 10.863281 10.765625 11.175781 10.765625 11.558594 10.765625 11.941406 10.441406 12.253906 10.046875 12.253906zM8.144531 8.015625L15.855469 8.015625 15.855469 2.15625 8.144531 2.15625zM9.167969 3.175781L14.832031 3.175781 14.832031 6.992188 9.167969 6.992188zM19.863281 17.328125L22.160156 17.328125 22.160156 18.347656 19.863281 18.347656zM19.863281 20.042969L22.160156 20.042969 22.160156 21.066406 19.863281 21.066406zM1.847656 17.328125L4.144531 17.328125 4.144531 18.347656 1.847656 18.347656zM1.847656 20.042969L4.144531 20.042969 4.144531 21.066406 1.847656 21.066406zM1.847656 20.042969"/>
</svg>
