<svg xmlns="http://www.w3.org/2000/svg" width="32" height="32" viewBox="0 0 24 24">
    <path d="M23.77 20.797l-2.872-6.399a.515.515 0 0 0-.468-.304h-.88c.247-.36.391-.797.391-1.266v-2.527a2.263 2.263 0 0 0-2.261-2.262h-1.54V2.031a.514.514 0 0 0-.16-.37L14.25 0l-.71.742 1.573 1.508v5.79h-6.39V4.526h1.843V3.5H.184v1.027h1.843v9.567h-.832a.515.515 0 0 0-.515.515v6.399c0 .285.23.515.515.515h.668C2.156 22.933 3.45 24 4.996 24s2.84-1.066 3.133-2.477h.578C9 22.933 10.293 24 11.84 24c1.543 0 2.84-1.066 3.129-2.477h.582C15.84 22.933 17.137 24 18.68 24c1.547 0 2.84-1.066 3.133-2.477H23.3a.514.514 0 0 0 .469-.727zm-6.09-11.73c.683 0 1.234.554 1.234 1.234v2.527c0 .68-.55 1.235-1.234 1.235H8.723V9.066zM3.055 4.526h4.64v9.567h-4.64zm1.941 18.446c-1.195 0-2.168-.922-2.168-2.055 0-1.137.973-2.059 2.168-2.059 1.195 0 2.164.922 2.164 2.059 0 1.133-.969 2.055-2.164 2.055zm6.844 0c-1.195 0-2.168-.922-2.168-2.055 0-1.137.973-2.059 2.168-2.059 1.191 0 2.164.922 2.164 2.059 0 1.133-.973 2.055-2.164 2.055zm6.84 0c-1.192 0-2.164-.922-2.164-2.055 0-1.137.972-2.059 2.164-2.059 1.195 0 2.168.922 2.168 2.059 0 1.133-.973 2.055-2.168 2.055zm3.164-2.477c-.211-1.504-1.551-2.664-3.164-2.664-1.614 0-2.95 1.16-3.164 2.664h-.512c-.215-1.504-1.55-2.664-3.164-2.664-1.613 0-2.953 1.16-3.164 2.664H8.16c-.215-1.504-1.55-2.664-3.164-2.664-1.613 0-2.953 1.16-3.164 2.664h-.125v-5.375h18.39l2.41 5.375zm0 0"/>
    <path d="M14.52 9.363h1.648v1.028H14.52zm0 0M4.617 5.613h1.028v3.7H4.617zm0 0"/>
</svg>
