<svg xmlns="http://www.w3.org/2000/svg" width="32" height="32" viewBox="0 0 24 24">
    <path d="M 12 10.136719 C 11.105469 10.136719 10.25 10.515625 9.648438 11.179688 C 9.125 11.765625 8.835938 12.515625 8.835938 13.300781 C 8.835938 15.046875 10.253906 16.464844 12 16.464844 C 13.746094 16.464844 15.164062 15.046875 15.164062 13.300781 C 15.164062 11.554688 13.746094 10.136719 12 10.136719 Z M 12 15.445312 C 10.820312 15.445312 9.855469 14.480469 9.855469 13.300781 C 9.855469 12.769531 10.050781 12.261719 10.40625 11.863281 C 10.8125 11.414062 11.394531 11.15625 12 11.15625 C 13.183594 11.15625 14.144531 12.117188 14.144531 13.300781 C 14.144531 14.480469 13.183594 15.445312 12 15.445312 Z M 12 15.445312"/>
    <path d="M 20.28125 1.019531 C 20.5625 1.019531 20.792969 0.792969 20.792969 0.511719 C 20.792969 0.226562 20.5625 0 20.28125 0 L 3.71875 0 C 3.4375 0 3.207031 0.226562 3.207031 0.511719 C 3.207031 0.792969 3.4375 1.019531 3.71875 1.019531 L 6.113281 1.019531 L 6.113281 8.828125 C 5.136719 10.109375 4.609375 11.675781 4.609375 13.300781 C 4.609375 15.347656 5.445312 17.203125 6.792969 18.542969 L 3.65625 23.203125 C 3.550781 23.359375 3.542969 23.5625 3.628906 23.730469 C 3.71875 23.894531 3.890625 24 4.082031 24 L 19.917969 24 C 20.109375 24 20.28125 23.894531 20.371094 23.730469 C 20.460938 23.5625 20.449219 23.359375 20.34375 23.203125 L 17.207031 18.542969 C 18.558594 17.203125 19.394531 15.347656 19.394531 13.300781 C 19.394531 11.621094 18.832031 10.074219 17.886719 8.832031 L 17.886719 1.019531 Z M 7.570312 19.214844 C 8.222656 19.707031 8.960938 20.089844 9.753906 20.34375 L 8.902344 22.980469 L 5.039062 22.980469 Z M 9.976562 22.980469 L 10.75 20.585938 C 11.15625 20.65625 11.574219 20.695312 12 20.695312 C 12.425781 20.695312 12.84375 20.65625 13.253906 20.585938 L 14.023438 22.980469 Z M 18.960938 22.980469 L 15.097656 22.980469 L 14.246094 20.34375 C 15.042969 20.089844 15.777344 19.707031 16.429688 19.214844 Z M 12 19.671875 C 8.488281 19.671875 5.628906 16.8125 5.628906 13.300781 C 5.628906 11.722656 6.210938 10.207031 7.269531 9.035156 C 8.472656 7.695312 10.199219 6.929688 12 6.929688 C 15.515625 6.929688 18.371094 9.785156 18.371094 13.300781 C 18.371094 16.8125 15.515625 19.671875 12 19.671875 Z M 16.867188 7.738281 C 15.683594 6.703125 14.171875 6.039062 12.511719 5.925781 L 12.511719 3.742188 C 12.511719 3.460938 12.28125 3.234375 12 3.234375 C 11.71875 3.234375 11.488281 3.460938 11.488281 3.742188 L 11.488281 5.925781 C 9.878906 6.039062 8.347656 6.675781 7.132812 7.734375 L 7.132812 1.019531 L 16.867188 1.019531 Z M 16.867188 7.738281"/>
</svg>
