<svg xmlns="http://www.w3.org/2000/svg" width="32" height="32" viewBox="0 0 24 24">
    <path d="M18.27 0v15.758h-2.215c.539-.574.87-1.348.87-2.195V5.3a2.259 2.259 0 0 0-2.257-2.258h-2.766v-.602c0-1.32-1.113-2.39-2.476-2.39H8.55c-1.367 0-2.477 1.07-2.477 2.39v.602h-2.77a2.258 2.258 0 0 0-2.253 2.258v8.261c0 .848.332 1.622.867 2.196H.512v1.02h18.781V1.02h4.195V0zM7.094 2.441c0-.753.656-1.37 1.457-1.37h.875c.8 0 1.453.617 1.453 1.37v.602H7.094zm-3.79 1.625h11.364c.684 0 1.234.555 1.234 1.235v2.605H2.07V5.301c0-.68.555-1.235 1.235-1.235zM2.07 13.562V8.93h3.02v1.68h1.023V8.93h5.75v1.68h1.02V8.93h3.02v4.633c0 1.21-.985 2.195-2.196 2.195H4.266a2.197 2.197 0 0 1-2.196-2.195zm0 0M16.54 18.477c-1.58 0-2.864 1.238-2.864 2.761 0 1.524 1.285 2.762 2.863 2.762 1.582 0 2.863-1.238 2.863-2.762 0-1.523-1.28-2.761-2.863-2.761zm0 4.503c-1.017 0-1.845-.78-1.845-1.742 0-.96.828-1.742 1.844-1.742s1.844.781 1.844 1.742-.828 1.742-1.844 1.742zm0 0M3.914 18.477c-1.578 0-2.863 1.238-2.863 2.761C1.05 22.762 2.336 24 3.914 24c1.582 0 2.867-1.238 2.867-2.762 0-1.523-1.285-2.761-2.867-2.761zm0 4.503c-1.016 0-1.844-.78-1.844-1.742 0-.96.828-1.742 1.844-1.742 1.02 0 1.844.781 1.844 1.742s-.824 1.742-1.844 1.742zm0 0"/>
</svg>
