<svg xmlns="http://www.w3.org/2000/svg" width="32" height="32" viewBox="0 0 24 24">
    <path d="M23.656 7.55L10.293 2.93a.489.489 0 0 0-.168-.028H5.32v1.02h4.297v2.601H3.621c-.879 0-1.672.555-1.973 1.38l-1.043 2.87a2.19 2.19 0 0 0-.12.567L0 17.988a.51.51 0 0 0 .512.547h1.777a3.077 3.077 0 0 0 3.031 2.563c1.52 0 2.785-1.11 3.028-2.563h5.609a3.073 3.073 0 0 0 3.027 2.563 3.08 3.08 0 0 0 3.032-2.563h3.472a.511.511 0 0 0 .512-.512V8.035a.51.51 0 0 0-.344-.484zm-22.09 3.575L2.61 8.254a1.072 1.072 0 0 1 1.012-.707h2.832v4.695H1.445l.059-.828c.008-.101.027-.195.062-.289zm3.754 8.953a2.057 2.057 0 0 1-2.054-2.055c0-1.128.921-2.05 2.054-2.05 1.13 0 2.051.922 2.051 2.05a2.056 2.056 0 0 1-2.05 2.055zm0-5.125a3.077 3.077 0 0 0-3.03 2.563H1.058l.308-4.25h6.106v-5.72h2.144v9.97h-1.27a3.073 3.073 0 0 0-3.027-2.563zm11.664 5.125a2.056 2.056 0 0 1-2.05-2.055c0-1.128.921-2.05 2.05-2.05a2.053 2.053 0 0 1 0 4.105zm5.996-2.562h-2.964a3.08 3.08 0 0 0-3.032-2.563 3.073 3.073 0 0 0-3.027 2.563h-3.32V4.129l12.343 4.27zm0 0"/>
</svg>
