<svg xmlns="http://www.w3.org/2000/svg" width="32" height="32" viewBox="0 0 24 24">
    <path d="M17.75 4.8C16.437 3.32 14.293 2.439 12 2.439c-2.281 0-4.414.874-5.73 2.343a.515.515 0 0 0-.196.403v3.484c0 .281.227.508.512.508h10.828a.508.508 0 0 0 .512-.508V5.184c0-.153-.07-.29-.176-.383zm-.844 3.356H7.094V5.391C8.223 4.18 10.043 3.46 12 3.46c1.957 0 3.777.719 4.906 1.93zm0 0M17.414 10.594H6.586a.508.508 0 0 0-.512.511v5.543c0 .286.227.512.512.512h10.828a.508.508 0 0 0 .512-.512v-5.543a.508.508 0 0 0-.512-.511zm-.508 5.547H7.094v-4.528h9.812zm0 0M15.637 17.879h1.472v1.02h-1.472zm0 0M6.89 17.879h1.477v1.02H6.891zm0 0"/>
    <path d="M23.488 5.297h-3.816V3.465a.5.5 0 0 0-.188-.387C17.781 1.148 14.988 0 12 0 9.023 0 6.242 1.14 4.54 3.05a.507.507 0 0 0-.212.415v1.832H.512A.513.513 0 0 0 0 5.809v3.128c0 1.051.813 1.907 1.813 1.907s1.812-.856 1.812-1.906V6.32h.703v13.93c0 .281.23.512.512.512h.851v1.406c0 1.012.786 1.832 1.747 1.832h.41c.965 0 1.746-.82 1.746-1.832v-1.406h4.812v1.406c0 1.012.781 1.832 1.746 1.832h.41c.961 0 1.747-.82 1.747-1.832v-1.406h.851c.281 0 .512-.23.512-.512V6.32h.703v2.617c0 1.051.813 1.907 1.813 1.907S24 9.988 24 8.938v-3.13a.513.513 0 0 0-.512-.511zM2.602 8.937c0 .489-.352.883-.79.883-.437 0-.792-.394-.792-.883V6.32h1.582zm5.972 13.231c0 .445-.328.812-.726.812h-.41c-.399 0-.723-.367-.723-.812v-1.406h1.86zm8.711 0c0 .445-.324.812-.723.812h-.41c-.398 0-.726-.367-.726-.812v-1.406h1.86zm1.363-2.43H5.352V3.676C6.872 2.012 9.34 1.02 12 1.02c2.66 0 5.133.992 6.648 2.656zm4.332-10.8c0 .488-.355.882-.793.882-.437 0-.789-.394-.789-.883V6.32h1.582zm0 0"/>
</svg>
