<svg xmlns="http://www.w3.org/2000/svg" width="32" height="32" viewBox="0 0 24 24">
    <path d="M23.914 11.172l-3.687-5.445a.51.51 0 0 0-.422-.227H14.05V3.414a.511.511 0 0 0-.512-.512H.512A.513.513 0 0 0 0 3.414v14.438c0 .28.23.511.512.511h3.664a3.263 3.263 0 0 0 3.215 2.735 3.267 3.267 0 0 0 3.218-2.735h4.668a3.263 3.263 0 0 0 3.215 2.735 3.267 3.267 0 0 0 3.219-2.735h1.777c.282 0 .512-.23.512-.511V11.46a.534.534 0 0 0-.086-.29zM7.391 20.074a2.24 2.24 0 0 1-2.239-2.238 2.24 2.24 0 0 1 2.239-2.238 2.24 2.24 0 0 1 2.238 2.238 2.24 2.24 0 0 1-2.238 2.238zm5.64-2.734h-2.418a3.263 3.263 0 0 0-3.222-2.762c-1.63 0-2.98 1.2-3.223 2.762H1.02V3.926H13.03zm.977-10.82h5.523l2.996 4.43h-8.52zm4.484 13.554a2.24 2.24 0 0 1-2.238-2.238 2.24 2.24 0 0 1 2.238-2.238 2.24 2.24 0 0 1 2.238 2.238 2.24 2.24 0 0 1-2.238 2.238zm4.488-2.734h-1.265a3.263 3.263 0 0 0-3.223-2.762c-1.629 0-2.98 1.2-3.222 2.762h-1.262v-5.371h8.972zm0 0"/>
    <path d="M18.535 17.16l.637.633-.723.723-.633-.633zm-11.82.723l.633.633.722-.723-.636-.633zm0 0"/>
</svg>
