<svg xmlns="http://www.w3.org/2000/svg" width="32" height="32" viewBox="0 0 24 24">
    <path d="M4.941406 15.902344C3.726562 15.902344 2.742188 16.730469 2.742188 17.75 2.742188 18.773438 3.726562 19.601562 4.941406 19.601562 6.15625 19.601562 7.140625 18.773438 7.140625 17.75 7.140625 16.730469 6.15625 15.902344 4.941406 15.902344zM4.941406 18.578125C4.289062 18.578125 3.761719 18.207031 3.761719 17.75 3.761719 17.292969 4.289062 16.921875 4.941406 16.921875 5.589844 16.921875 6.121094 17.292969 6.121094 17.75 6.121094 18.207031 5.589844 18.578125 4.941406 18.578125zM19.058594 15.902344C17.84375 15.902344 16.859375 16.730469 16.859375 17.75 16.859375 18.773438 17.84375 19.601562 19.058594 19.601562 20.273438 19.601562 21.257812 18.773438 21.257812 17.75 21.257812 16.730469 20.273438 15.902344 19.058594 15.902344zM19.058594 18.578125C18.410156 18.578125 17.878906 18.207031 17.878906 17.75 17.878906 17.292969 18.410156 16.921875 19.058594 16.921875 19.710938 16.921875 20.238281 17.292969 20.238281 17.75 20.238281 18.207031 19.710938 18.578125 19.058594 18.578125zM19.058594 18.578125"/>
    <path d="M 22.492188 14.894531 C 23.476562 13.410156 24 11.730469 24 10.023438 C 24 4.496094 18.617188 0 12 0 C 5.382812 0 0 4.496094 0 10.023438 C 0 11.707031 0.539062 13.421875 1.507812 14.890625 C 1.28125 15.648438 1.164062 16.421875 1.167969 17.210938 L 1.171875 18.523438 C 1.175781 19.871094 2.359375 20.980469 3.882812 21.140625 L 3.882812 22.59375 C 3.882812 23.367188 4.597656 24 5.476562 24 L 7.460938 24 C 8.339844 24 9.054688 23.367188 9.054688 22.59375 L 9.054688 21.148438 L 14.945312 21.140625 L 14.945312 22.59375 C 14.945312 23.367188 15.660156 24 16.539062 24 L 18.523438 24 C 19.402344 24 20.117188 23.367188 20.117188 22.59375 L 20.117188 21.113281 C 20.785156 21.042969 21.410156 20.792969 21.898438 20.386719 C 22.503906 19.882812 22.835938 19.207031 22.832031 18.484375 L 22.828125 17.171875 C 22.828125 16.398438 22.714844 15.636719 22.492188 14.894531 Z M 1.019531 10.023438 C 1.019531 5.058594 5.945312 1.019531 12 1.019531 C 18.054688 1.019531 22.980469 5.058594 22.980469 10.023438 C 22.980469 11.289062 22.652344 12.542969 22.027344 13.691406 C 22.019531 13.671875 22.011719 13.65625 22.003906 13.636719 L 20.332031 10.179688 C 20.359375 9.992188 20.359375 9.804688 20.324219 9.613281 L 19.839844 6.726562 C 19.671875 5.714844 18.691406 4.984375 17.511719 4.984375 L 6.488281 4.984375 C 5.308594 4.984375 4.328125 5.714844 4.160156 6.726562 L 3.675781 9.613281 C 3.644531 9.789062 3.640625 9.964844 3.664062 10.136719 L 1.976562 13.675781 C 1.972656 13.679688 1.972656 13.679688 1.972656 13.683594 C 1.347656 12.539062 1.019531 11.285156 1.019531 10.023438 Z M 19.117188 10.453125 C 18.867188 10.746094 18.449219 10.921875 17.996094 10.921875 L 6.003906 10.921875 C 5.550781 10.921875 5.132812 10.746094 4.882812 10.453125 C 4.761719 10.308594 4.632812 10.078125 4.679688 9.78125 L 5.167969 6.894531 C 5.253906 6.386719 5.820312 6.003906 6.488281 6.003906 L 17.511719 6.003906 C 18.179688 6.003906 18.746094 6.386719 18.832031 6.894531 L 19.320312 9.78125 C 19.367188 10.078125 19.238281 10.308594 19.117188 10.453125 Z M 8.035156 22.59375 C 8.035156 22.773438 7.800781 22.980469 7.460938 22.980469 L 5.476562 22.980469 C 5.140625 22.980469 4.90625 22.773438 4.90625 22.59375 L 4.90625 21.15625 L 8.035156 21.152344 Z M 18.523438 22.980469 L 16.539062 22.980469 C 16.199219 22.980469 15.964844 22.773438 15.964844 22.59375 L 15.964844 21.136719 L 19.09375 21.132812 L 19.09375 22.59375 C 19.09375 22.773438 18.859375 22.980469 18.523438 22.980469 Z M 21.246094 19.601562 C 20.851562 19.925781 20.320312 20.109375 19.753906 20.109375 L 4.257812 20.136719 C 4.257812 20.136719 4.257812 20.136719 4.253906 20.136719 C 3.117188 20.136719 2.195312 19.414062 2.191406 18.523438 L 2.1875 17.207031 C 2.1875 16.148438 2.425781 15.105469 2.898438 14.117188 L 4.253906 11.273438 C 4.699219 11.695312 5.335938 11.945312 6.003906 11.945312 L 17.996094 11.945312 C 18.65625 11.945312 19.289062 11.703125 19.730469 11.285156 L 21.082031 14.082031 C 21.5625 15.070312 21.804688 16.113281 21.808594 17.171875 L 21.8125 18.488281 C 21.8125 18.902344 21.609375 19.296875 21.246094 19.601562 Z M 21.246094 19.601562"/>
    <path d="M13.902344 15.261719L14.921875 15.261719 14.921875 18.542969 13.902344 18.542969zM11.488281 15.261719L12.511719 15.261719 12.511719 18.542969 11.488281 18.542969zM9.078125 15.261719L10.097656 15.261719 10.097656 18.542969 9.078125 18.542969zM9.078125 15.261719"/>
</svg>
