<svg xmlns="http://www.w3.org/2000/svg" width="32" height="32" viewBox="0 0 24 24">
    <path d="M17.75 4.800781C16.4375 3.320312 14.292969 2.4375 12 2.4375 9.71875 2.4375 7.585938 3.3125 6.269531 4.78125 6.152344 4.875 6.074219 5.019531 6.074219 5.183594L6.074219 8.667969C6.074219 8.949219 6.300781 9.175781 6.585938 9.175781L17.414062 9.175781C17.699219 9.175781 17.925781 8.949219 17.925781 8.667969L17.925781 5.183594C17.925781 5.03125 17.855469 4.894531 17.75 4.800781zM16.90625 8.15625L7.09375 8.15625 7.09375 5.390625C8.222656 4.179688 10.042969 3.460938 12 3.460938 13.957031 3.460938 15.777344 4.179688 16.90625 5.390625zM17.414062 10.59375L6.585938 10.59375C6.300781 10.59375 6.074219 10.820312 6.074219 11.105469L6.074219 16.648438C6.074219 16.933594 6.300781 17.160156 6.585938 17.160156L17.414062 17.160156C17.699219 17.160156 17.925781 16.933594 17.925781 16.648438L17.925781 11.105469C17.925781 10.820312 17.699219 10.59375 17.414062 10.59375zM16.90625 16.140625L7.09375 16.140625 7.09375 11.613281 16.90625 11.613281zM15.636719 17.878906L17.109375 17.878906 17.109375 18.898438 15.636719 18.898438zM6.890625 17.878906L8.367188 17.878906 8.367188 18.898438 6.890625 18.898438zM6.890625 17.878906"/>
    <path d="M 23.488281 5.296875 L 19.671875 5.296875 L 19.671875 3.464844 C 19.671875 3.308594 19.597656 3.171875 19.484375 3.078125 C 17.78125 1.148438 14.988281 0 12 0 C 9.023438 0 6.242188 1.140625 4.539062 3.050781 C 4.410156 3.144531 4.328125 3.292969 4.328125 3.464844 L 4.328125 5.296875 L 0.511719 5.296875 C 0.230469 5.296875 0 5.527344 0 5.808594 L 0 8.9375 C 0 9.988281 0.8125 10.84375 1.8125 10.84375 C 2.8125 10.84375 3.625 9.988281 3.625 8.9375 L 3.625 6.320312 L 4.328125 6.320312 L 4.328125 20.25 C 4.328125 20.53125 4.558594 20.761719 4.839844 20.761719 L 5.691406 20.761719 L 5.691406 22.167969 C 5.691406 23.179688 6.476562 24 7.4375 24 L 7.847656 24 C 8.8125 24 9.59375 23.179688 9.59375 22.167969 L 9.59375 20.761719 L 14.40625 20.761719 L 14.40625 22.167969 C 14.40625 23.179688 15.1875 24 16.152344 24 L 16.5625 24 C 17.523438 24 18.308594 23.179688 18.308594 22.167969 L 18.308594 20.761719 L 19.160156 20.761719 C 19.441406 20.761719 19.671875 20.53125 19.671875 20.25 L 19.671875 6.320312 L 20.375 6.320312 L 20.375 8.9375 C 20.375 9.988281 21.1875 10.84375 22.1875 10.84375 C 23.1875 10.84375 24 9.988281 24 8.9375 L 24 5.808594 C 24 5.527344 23.769531 5.296875 23.488281 5.296875 Z M 2.601562 8.9375 C 2.601562 9.425781 2.25 9.820312 1.8125 9.820312 C 1.375 9.820312 1.019531 9.425781 1.019531 8.9375 L 1.019531 6.320312 L 2.601562 6.320312 Z M 8.574219 22.167969 C 8.574219 22.613281 8.246094 22.980469 7.847656 22.980469 L 7.4375 22.980469 C 7.039062 22.980469 6.714844 22.613281 6.714844 22.167969 L 6.714844 20.761719 L 8.574219 20.761719 Z M 17.285156 22.167969 C 17.285156 22.613281 16.960938 22.980469 16.5625 22.980469 L 16.152344 22.980469 C 15.753906 22.980469 15.425781 22.613281 15.425781 22.167969 L 15.425781 20.761719 L 17.285156 20.761719 Z M 18.648438 19.738281 L 5.351562 19.738281 L 5.351562 3.675781 C 6.871094 2.011719 9.339844 1.019531 12 1.019531 C 14.660156 1.019531 17.132812 2.011719 18.648438 3.675781 Z M 22.980469 8.9375 C 22.980469 9.425781 22.625 9.820312 22.1875 9.820312 C 21.75 9.820312 21.398438 9.425781 21.398438 8.9375 L 21.398438 6.320312 L 22.980469 6.320312 Z M 22.980469 8.9375"/>
</svg>
