<svg xmlns="http://www.w3.org/2000/svg" width="32" height="32" viewBox="0 0 24 24">
    <path d="M22.395 11.355a.525.525 0 0 0-.395-.183 4.58 4.58 0 0 1-3.098-1.2L16.344 7.63a2.755 2.755 0 0 0-1.86-.723h-1.093l1.945-3.633c.168-.277-.008-.753-.45-.753H.637a.513.513 0 0 0-.511.507L0 18.215c0 .156.11.515.512.515h2.05a2.959 2.959 0 0 0 2.954 2.75 2.96 2.96 0 0 0 2.957-2.75h5.797a2.965 2.965 0 0 0 5.914 0h2.894c.211 0 .399-.128.477-.32.062-.156 1.508-3.855-1.16-7.055zm-7.91-3.425c.433 0 .847.16 1.167.453l2.34 2.14h-4.941V7.93zm-8.97 12.527a1.936 1.936 0 0 1-1.94-1.926c0-1.062.87-1.926 1.94-1.926 1.07 0 1.946.864 1.946 1.926a1.939 1.939 0 0 1-1.945 1.926zm0-4.875a2.967 2.967 0 0 0-2.843 2.125H1.023l.118-14.164h12.894L12.09 7.176a.51.51 0 0 0-.059.281v10.25H8.363a2.968 2.968 0 0 0-2.847-2.125zm11.712 4.875a1.936 1.936 0 0 1-1.942-1.926c0-1.062.871-1.926 1.942-1.926 1.07 0 1.941.864 1.941 1.926a1.936 1.936 0 0 1-1.941 1.926zm5.488-2.75H20.07a2.964 2.964 0 0 0-2.843-2.125 2.964 2.964 0 0 0-2.844 2.125H13.05v-6.164h6.324c.73.387 1.54.61 2.379.645 1.707 2.21 1.215 4.656.96 5.519zm0 0"/>
    <path d="M21.586 13.477l.707.703-.719.722-.707-.699zm0 0"/>
</svg>
