<svg xmlns="http://www.w3.org/2000/svg" width="32" height="32" viewBox="0 0 24 24">
    <path d="M 23.882812 10.875 L 20.890625 7.265625 C 20.792969 7.148438 20.652344 7.082031 20.5 7.082031 L 15.523438 7.082031 L 15.523438 5.539062 C 15.523438 5.257812 15.296875 5.027344 15.015625 5.027344 L 0.511719 5.027344 C 0.230469 5.027344 0 5.257812 0 5.539062 L 0 15.746094 C 0 16.03125 0.230469 16.257812 0.511719 16.257812 L 1.308594 16.257812 C 1.355469 17.761719 2.59375 18.972656 4.109375 18.972656 C 5.625 18.972656 6.863281 17.761719 6.914062 16.257812 L 15.015625 16.257812 C 15.035156 16.257812 15.054688 16.257812 15.074219 16.253906 L 15.074219 16.257812 L 17.164062 16.257812 C 17.214844 17.761719 18.449219 18.972656 19.96875 18.972656 C 21.484375 18.972656 22.722656 17.761719 22.769531 16.257812 L 23.488281 16.257812 C 23.769531 16.257812 24 16.03125 24 15.746094 L 24 11.199219 C 24 11.082031 23.957031 10.964844 23.882812 10.875 Z M 4.109375 17.949219 C 3.128906 17.949219 2.328125 17.152344 2.328125 16.167969 C 2.328125 15.1875 3.128906 14.386719 4.109375 14.386719 C 5.09375 14.386719 5.894531 15.1875 5.894531 16.167969 C 5.894531 17.152344 5.09375 17.949219 4.109375 17.949219 Z M 14.503906 15.238281 L 6.753906 15.238281 C 6.371094 14.148438 5.332031 13.363281 4.109375 13.363281 C 2.890625 13.363281 1.851562 14.148438 1.46875 15.238281 L 1.019531 15.238281 L 1.019531 6.050781 L 14.503906 6.050781 Z M 22.980469 11.382812 L 22.980469 11.644531 L 17.890625 11.644531 L 17.890625 8.101562 L 20.257812 8.101562 Z M 19.96875 17.949219 C 18.984375 17.949219 18.183594 17.152344 18.183594 16.167969 C 18.183594 16.0625 18.332031 14.386719 19.96875 14.386719 C 21.613281 14.386719 21.75 16.0625 21.75 16.167969 C 21.75 17.152344 20.949219 17.949219 19.96875 17.949219 Z M 22.613281 15.238281 C 22.222656 14.132812 21.164062 13.363281 19.96875 13.363281 C 18.761719 13.363281 17.710938 14.128906 17.324219 15.238281 L 15.523438 15.238281 L 15.523438 8.101562 L 16.867188 8.101562 L 16.867188 12.15625 C 16.867188 12.4375 17.097656 12.667969 17.378906 12.667969 L 22.980469 12.667969 L 22.980469 15.238281 Z M 22.613281 15.238281"/>
    <path d="M2.867188 7.441406L11.945312 7.441406 11.945312 8.460938 2.867188 8.460938zM2.867188 10.738281L11.945312 10.738281 11.945312 11.757812 2.867188 11.757812zM2.867188 10.738281"/>
</svg>
