<svg xmlns="http://www.w3.org/2000/svg" width="32" height="32" viewBox="0 0 24 24">
    <path d="M20.832 3.96h-5.348V2.38L.563 7.609A.847.847 0 0 0 0 8.406v7.051h24V8.43zm-6.367 10.477H1.02V8.532l2.851-.996-.992 2.727.96.347 1.278-3.511 2.438-.856L6.55 9.008l.96.347 1.29-3.55 2.441-.856-1.02 2.805.962.348 1.304-3.59 1.977-.692zm8.515-5.683v1.172h-5.304V4.98h2.629zm-7.496 5.684V4.98h1.172v5.965h6.324v3.492zm0 0"/>
    <path d="M16.184 12.137h1.332v1.023h-1.332zm0 0M5.355 15.898a2.864 2.864 0 0 0-2.863 2.86 2.865 2.865 0 0 0 2.863 2.863 2.865 2.865 0 0 0 2.864-2.863 2.864 2.864 0 0 0-2.864-2.86zm0 4.704a1.847 1.847 0 0 1-1.843-1.844c0-1.012.828-1.84 1.843-1.84a1.843 1.843 0 0 1 0 3.684zm0 0M18.54 15.898a2.862 2.862 0 1 0-.004 5.724 2.862 2.862 0 0 0 .003-5.724zm0 4.704a1.847 1.847 0 0 1-1.845-1.844c0-1.012.828-1.84 1.844-1.84 1.012 0 1.84.828 1.84 1.84a1.846 1.846 0 0 1-1.84 1.844zm0 0"/>
</svg>
