<svg xmlns="http://www.w3.org/2000/svg" width="32" height="32" viewBox="0 0 24 24">
    <path d="M23.777 15.16a.503.503 0 0 0-.695.14l-1.242 1.864-4.106-4.559V5.332c0-.277-.222-.5-.5-.5H6.274L5.643.863a.503.503 0 0 0-.496-.422H1.953a.501.501 0 0 0 0 1h2.77l1.246 7.852C2.39 9.906-.227 13.141.016 16.84c.257 3.953 3.683 6.96 7.636 6.703 3.953-.258 6.957-3.684 6.7-7.637a7.188 7.188 0 0 0-7.387-6.71l-.531-3.364h10.3v11.684a3.048 3.048 0 0 0-2.543 3 3.043 3.043 0 0 0 6.086 0 3.045 3.045 0 0 0-2.543-3v-3.41l3.793 4.203c.282.296.672.14.79-.055l1.597-2.399a.499.499 0 0 0-.137-.695zm-10.422.813a6.194 6.194 0 0 1-5.77 6.57 6.19 6.19 0 0 1-6.573-5.766 6.19 6.19 0 0 1 5.082-6.488l.593 6.133c.102.68 1.036.535.997-.098l-.594-6.133a6.195 6.195 0 0 1 6.265 5.782zm5.922 4.543a2.044 2.044 0 0 1-4.086 0c0-.953.66-1.754 1.543-1.98v1.644c0 .273.227.5.5.5.278 0 .5-.227.5-.5v-1.645a2.048 2.048 0 0 1 1.543 1.98zm0 0"/>
</svg>
