<svg xmlns="http://www.w3.org/2000/svg" width="32" height="32" viewBox="0 0 24 24">
    <path d="M 20.976562 5.601562 L 20.996094 5.601562 L 20.824219 5.304688 C 19.339844 2.523438 16.582031 0.527344 13.332031 0.0898438 C 13.316406 0.0898438 13.300781 0.0859375 13.285156 0.0859375 C 13.105469 0.0625 12.921875 0.0429688 12.742188 0.03125 C 12.699219 0.0273438 12.65625 0.0234375 12.613281 0.0195312 C 12.410156 0.0078125 12.207031 0 12 0 C 11.792969 0 11.589844 0.0078125 11.386719 0.0195312 C 11.34375 0.0234375 11.300781 0.0273438 11.257812 0.03125 C 11.078125 0.0429688 10.894531 0.0625 10.714844 0.0859375 C 10.699219 0.0859375 10.683594 0.0898438 10.667969 0.0898438 C 7.417969 0.527344 4.660156 2.523438 3.175781 5.304688 L 3.003906 5.601562 L 3.023438 5.601562 C 2.367188 6.929688 2 8.421875 2 10 L 2 14 C 2 14.136719 2.003906 14.273438 2.011719 14.410156 L 2.007812 14.410156 L 2.011719 14.492188 C 2.140625 17.167969 3.332031 19.574219 5.171875 21.292969 L 5.246094 21.371094 L 5.25 21.371094 C 7.027344 23 9.398438 24 12 24 C 17.515625 24 22 19.515625 22 14 L 22 10 C 22 8.421875 21.632812 6.929688 20.976562 5.601562 Z M 10.847656 0.875 C 10.867188 0.871094 10.886719 0.871094 10.902344 0.867188 C 11.054688 0.847656 11.207031 0.835938 11.359375 0.824219 C 11.394531 0.824219 11.429688 0.820312 11.464844 0.816406 C 11.644531 0.804688 11.820312 0.800781 12 0.800781 C 12.179688 0.800781 12.355469 0.804688 12.535156 0.816406 C 12.570312 0.820312 12.605469 0.824219 12.640625 0.824219 C 12.792969 0.835938 12.945312 0.847656 13.097656 0.867188 C 13.113281 0.871094 13.132812 0.871094 13.152344 0.875 C 15.730469 1.207031 18.082031 2.636719 19.574219 4.800781 L 4.425781 4.800781 C 5.917969 2.636719 8.269531 1.207031 10.847656 0.875 Z M 2.851562 14.945312 L 11.886719 11.519531 L 12.398438 10.496094 L 12.398438 12.246094 L 10.074219 14.824219 L 8.703125 16.34375 L 5.222656 20.203125 C 4.023438 18.894531 3.234375 17.292969 2.933594 15.550781 C 2.914062 15.429688 2.894531 15.3125 2.878906 15.191406 C 2.878906 15.175781 2.875 15.160156 2.875 15.144531 C 2.867188 15.078125 2.859375 15.011719 2.851562 14.945312 Z M 10.898438 16.800781 C 10.898438 17.460938 10.359375 18 9.699219 18 L 8.289062 18 L 10.296875 15.769531 C 10.664062 15.980469 10.898438 16.371094 10.898438 16.800781 Z M 5.785156 20.773438 L 7.566406 18.800781 L 9.699219 18.800781 C 10.800781 18.800781 11.699219 17.902344 11.699219 16.800781 C 11.699219 16.136719 11.367188 15.539062 10.839844 15.171875 L 13.199219 12.554688 L 13.199219 9.199219 L 12.152344 9.199219 L 11.3125 10.882812 L 2.804688 14.109375 C 2.800781 14.074219 2.800781 14.035156 2.800781 14 L 2.800781 10 C 2.800781 8.40625 3.207031 6.90625 3.921875 5.601562 L 20.078125 5.601562 C 20.792969 6.90625 21.199219 8.40625 21.199219 10 L 21.199219 14 C 21.199219 14.972656 21.046875 15.914062 20.765625 16.792969 C 20.570312 15.664062 19.585938 14.800781 18.398438 14.800781 C 17.210938 14.800781 16.222656 15.667969 16.03125 16.804688 C 14.898438 16.890625 14 17.84375 14 19 C 14 20.214844 14.988281 21.199219 16.199219 21.199219 C 16.265625 21.199219 16.332031 21.191406 16.398438 21.183594 L 16.402344 21.183594 C 16.46875 21.191406 16.53125 21.199219 16.601562 21.199219 L 17.71875 21.199219 C 16.144531 22.449219 14.160156 23.199219 12 23.199219 C 9.605469 23.199219 7.421875 22.28125 5.785156 20.773438 Z M 16.800781 17.175781 C 16.8125 16.304688 17.527344 15.601562 18.398438 15.601562 C 19.28125 15.601562 20 16.316406 20 17.203125 C 19.996094 17.230469 19.992188 17.257812 19.988281 17.285156 L 19.972656 17.585938 L 20.257812 17.6875 C 20.304688 17.703125 20.351562 17.722656 20.398438 17.742188 C 19.953125 18.730469 19.347656 19.621094 18.59375 20.402344 L 16.601562 20.402344 C 16.570312 20.402344 16.539062 20.394531 16.511719 20.390625 L 16.398438 20.378906 L 16.289062 20.390625 C 16.257812 20.394531 16.230469 20.398438 16.199219 20.398438 C 15.429688 20.398438 14.800781 19.773438 14.800781 19 C 14.800781 18.226562 15.429688 17.601562 16.199219 17.601562 C 16.230469 17.601562 16.257812 17.605469 16.289062 17.609375 L 16.378906 17.621094 L 16.46875 17.621094 L 16.800781 17.507812 Z M 16.800781 17.175781"/>
    <path d="M 8.789062 7.816406 C 8.695312 7.019531 8.019531 6.398438 7.199219 6.398438 C 6.457031 6.398438 5.828125 6.910156 5.652344 7.601562 L 5.601562 7.601562 C 4.71875 7.601562 4 8.316406 4 9.199219 C 4 10.082031 4.71875 10.800781 5.601562 10.800781 L 8 10.800781 C 8.882812 10.800781 9.601562 10.082031 9.601562 9.199219 C 9.601562 8.621094 9.285156 8.097656 8.789062 7.816406 Z M 8 10 L 5.601562 10 C 5.160156 10 4.800781 9.640625 4.800781 9.199219 C 4.800781 8.757812 5.160156 8.398438 5.601562 8.398438 L 6.398438 8.398438 L 6.398438 8 C 6.398438 7.558594 6.757812 7.199219 7.199219 7.199219 C 7.640625 7.199219 8 7.558594 8 7.984375 L 7.976562 8.347656 L 8.261719 8.449219 C 8.582031 8.5625 8.800781 8.863281 8.800781 9.199219 C 8.800781 9.640625 8.441406 10 8 10 Z M 8 10"/>
</svg>
