<svg xmlns="http://www.w3.org/2000/svg" width="32" height="32" viewBox="0 0 24 24">
    <path d="M10.684 5.082l.937-.937a.54.54 0 0 1 .758 0l.937.937a.399.399 0 0 0 .567 0 .4.4 0 0 0 0-.566l-.938-.938c-.504-.504-1.386-.504-1.89 0l-.938.938a.4.4 0 0 0 .567.566zm0 0"/>
    <path d="M23.645 12.852l-.844-.52v-2.133c0-.77-.63-1.398-1.403-1.398-.77 0-1.398.629-1.398 1.398v.403l-.8-.493V7.4c0-.77-.63-1.399-1.4-1.399-.773 0-1.402.629-1.402 1.398v.98l-.796-.491c.003-.848 0-1.399 0-1.489 0-1.382-.247-2.656-.727-3.773C14.485 1.715 13.383 0 12 0S9.516 1.715 9.125 2.625c-.48 1.117-.727 2.39-.727 3.773 0 .09-.003.641 0 1.489l-.796.492v-.98c0-.77-.63-1.399-1.403-1.399-.77 0-1.398.629-1.398 1.398v2.711L4 10.602v-.403c0-.77-.629-1.398-1.398-1.398-.774 0-1.403.629-1.403 1.398v2.133l-.844.52a.673.673 0 0 0-.355.59v2.16c0 .207.094.402.262.527a.647.647 0 0 0 .582.113l.113-.05c2.027-1.317 4.93-1.731 7.582-2.063.094 2.215.254 4.476.524 6.152l-2 1.055-.083.059a.562.562 0 0 0-.18.41v1.64a.558.558 0 0 0 .805.496L12 22.445l4.395 1.496a.56.56 0 0 0 .511-.007.558.558 0 0 0 .293-.489v-1.64a.562.562 0 0 0-.18-.41l-2.081-1.106c.269-1.676.43-3.941.523-6.16 2.644.328 5.555.746 7.582 2.062l.113.051a.647.647 0 0 0 .582-.113.653.653 0 0 0 .262-.527v-2.16a.673.673 0 0 0-.355-.59zM5.602 7.398a.6.6 0 0 1 1.199 0v1.063l-1.2.816zM2 10.2a.6.6 0 0 1 1.2 0v.715L2 11.73zM.8 15.348v-1.832l7.598-4.688c.008.832.024 2.074.075 3.465.007.34.02.684.03 1.031-2.628.328-5.53.735-7.702 2.024zm8.4-8.95c0-1.273.222-2.437.66-3.46C10.304 1.901 11.206.8 12 .8c.793 0 1.695 1.101 2.14 2.136.438 1.024.66 2.188.66 3.465 0 .02.005.387 0 .993v.054c-.003 1.176-.019 3.203-.093 5.406l-.035.801-.004.29c-.09 2.124-.238 4.3-.477 5.945l-1.8-.95-.063-.03c-.031-.024-.07-.04-.105-.056a.56.56 0 0 0-.442-.003c-.039.015-.078.03-.11.058l-1.862.98c-.239-1.62-.383-3.761-.473-5.863h.012l-.02-.37-.035-.802c-.074-2.203-.09-4.23-.094-5.406v-.054c-.004-.606 0-.977 0-.997zm7.198 15.559v1.14l-4.164-1.417a.547.547 0 0 0-.468 0l-4.164 1.418v-1.141L12 19.641zm4.403-11.758a.6.6 0 0 1 1.199 0v1.531l-1.2-.816zm-3.602-2.8a.6.6 0 0 1 1.2 0v1.878l-1.2-.816zm6 7.949c-2.168-1.286-5.066-1.692-7.703-2.024.012-.347.024-.695.031-1.035.051-1.387.067-2.629.075-3.46l7.597 4.687zm0 0"/>
</svg>
