<svg xmlns="http://www.w3.org/2000/svg" width="32" height="32" viewBox="0 0 24 24">
    <path d="M21.2 16.207V4.605c0-.43-.169-.835-.473-1.136-.301-.297-.7-.461-1.118-.461h-4.808V3C14.8 1.457 13.543.2 12 .2A2.806 2.806 0 0 0 9.2 3v.008H4.41A1.589 1.589 0 0 0 2.8 4.606v11.601a2.803 2.803 0 0 0-2.8 2.8c0 1.544 1.258 2.802 2.8 2.802V23.8h2v-1.992h14.4V23.8h2v-1.992c1.542 0 2.8-1.258 2.8-2.801 0-1.547-1.258-2.801-2.8-2.801zM19.597 3.809a.768.768 0 0 1 .566.226.8.8 0 0 1 .234.57v11.602h-2V3.809h1.2zm-1.996 0v12.398H16V3.809h1.602zm-6.403 3.464L12 8.34v4.265h-1.602V8.34zM10 3c0-1.102.898-2 2-2 1.102 0 2 .898 2 2l-4 .008zm-.8.809h1.6v2.664L9.603 8.074v5.332H12.8V8.074l-1.2-1.601V3.809H15.2v12.398H8.801V3.809h.398zm-1.2 0v12.398H6.398V3.809H8zm-4.398.796a.8.8 0 0 1 .234-.57.82.82 0 0 1 .57-.226h1.196v12.398h-2zM4 23h-.398v-1.191H4zm16.398 0H20v-1.191h.398zm.801-1.992V21h-2v.008H4.801V21h-2v.008a1.999 1.999 0 1 1 0-4h18.398a1.999 1.999 0 1 1 0 4zm0 0"/>
    <path d="M21.2 17.406H2.8a1.6 1.6 0 0 0 0 3.2h18.4a1.6 1.6 0 0 0 1.6-1.598c0-.883-.718-1.602-1.6-1.602zm0 2.403H2.8a.802.802 0 0 1 0-1.602h18.4a.802.802 0 0 1 0 1.602zm0 0"/>
    <path d="M3.602 19.008a.401.401 0 1 1-.802-.005.401.401 0 0 1 .802.005zm0 0M5.2 19.008a.4.4 0 1 1-.801-.004.4.4 0 0 1 .8.004zm0 0M6.8 19.008A.401.401 0 1 1 6 19.003a.401.401 0 0 1 .802.005zm0 0M8.398 19.008a.398.398 0 1 1-.796 0 .398.398 0 1 1 .796 0zm0 0M10 19.008a.4.4 0 1 1-.8-.004.4.4 0 0 1 .8.004zm0 0M11.602 19.008a.401.401 0 1 1-.802-.005.401.401 0 0 1 .802.005zm0 0M13.2 19.008a.4.4 0 1 1-.801-.004.4.4 0 0 1 .8.004zm0 0M14.8 19.008a.401.401 0 1 1-.801-.005.401.401 0 0 1 .802.005zm0 0M16.398 19.008a.398.398 0 1 1-.796 0 .398.398 0 1 1 .796 0zm0 0M18 19.008a.4.4 0 1 1-.8-.004.4.4 0 0 1 .8.004zm0 0M19.602 19.008a.401.401 0 1 1-.802-.005.401.401 0 0 1 .802.005zm0 0M21.2 19.008a.4.4 0 1 1-.801-.004.4.4 0 0 1 .8.004zm0 0"/>
</svg>
