<svg xmlns="http://www.w3.org/2000/svg" width="32" height="32" viewBox="0 0 24 24">
    <path d="M9.879.633A3.158 3.158 0 0 0 7.07.137L3.13 1.32C1.754 1.73.633 3.238.633 4.672v3.117c0 .461.058.918.176 1.356a19.972 19.972 0 0 0 .347 1.093l.063.188c.222.68.468 1.472.593 2.215l.036.203c.027.215.047.43.047.629v6.476A4.059 4.059 0 0 0 5.94 24h.325a4.034 4.034 0 0 0 2.863-1.184 4.03 4.03 0 0 0 1.187-2.867v-6.476c0-.223.012-.461.032-.703l.011-.141c.063-.758.207-1.668.403-2.566.07-.32.14-.626.21-.891.126-.457.184-.922.184-1.379V3.18A3.144 3.144 0 0 0 9.88.633zm.02 9.437l-.012.059c-.047.234-.094.476-.137.723-.008.03-.012.062-.02.093-.043.258-.085.516-.12.778L6.901 7.8a.46.46 0 0 0-.347-.2H6.32l-3.832 4.141c-.113-.46-.254-.918-.394-1.347l3.59-3.918V5.68c0-.157.101-.313.273-.414.27-.164.523-.051.621 0 .18.101.371.32.371.629v.57zm-.426 9.88c0 .859-.332 1.663-.942 2.269a3.182 3.182 0 0 1-2.265.937h-.321a3.212 3.212 0 0 1-3.207-3.207v-6.476c0-.235-.02-.473-.054-.715.03-.028.058-.047.086-.078l3.71-4.008 2.735 3.96.035.044c.07.078.152.14.246.203-.012.203-.02.402-.02.594v6.476zm.843-12.157c0 .383-.054.773-.156 1.164-.008.027-.012.055-.02.082L7.79 6.164v-.27c0-.558-.306-1.082-.798-1.359a1.444 1.444 0 0 0-1.469.008c-.425.258-.68.684-.68 1.137v.472L1.794 9.48a6.828 6.828 0 0 1-.168-.554 4.427 4.427 0 0 1-.148-1.137V4.672c0-1.07.867-2.238 1.894-2.547L7.313.945a2.319 2.319 0 0 1 2.062.36c.598.445.941 1.129.941 1.875v4.613zm0 0M20.871 1.32L16.93.137a3.133 3.133 0 0 0-2.809.496A3.147 3.147 0 0 0 12.84 3.18v4.613c0 .453.062.918.183 1.379.07.265.145.57.215.894.196.895.34 1.805.403 2.563l.004.004c.023.293.039.574.039.84v6.476a4.03 4.03 0 0 0 1.187 2.867A4.034 4.034 0 0 0 17.734 24h.324a4.055 4.055 0 0 0 4.044-4.05v-6.477c0-.2.023-.41.05-.625l.035-.207c.125-.746.372-1.54.594-2.215l.07-.207.016-.051c.133-.395.246-.738.324-1.023.118-.438.176-.895.176-1.356V4.672c0-1.434-1.12-2.942-2.496-3.352zm-7.187 1.86c0-.746.343-1.43.941-1.871a2.289 2.289 0 0 1 2.063-.364l3.94 1.18c1.028.309 1.895 1.477 1.895 2.547v3.117c0 .387-.05.77-.148 1.137-.04.16-.102.347-.168.554l-3.05-3.328V5.68c0-.453-.255-.88-.68-1.137-.454-.27-1-.273-1.47-.008-.491.277-.8.8-.8 1.36v.27l-2.348 2.874a.624.624 0 0 1-.02-.082 4.462 4.462 0 0 1-.155-1.164zm.586 7.77c-.008-.036-.016-.071-.02-.106a28.17 28.17 0 0 0-.137-.703l-.011-.07 2.949-3.606v-.57c0-.31.191-.524.37-.625.099-.055.352-.168.622-.004.168.101.27.257.27.414v.8l3.593 3.918c-.14.43-.281.883-.394 1.344L17.816 7.75a.47.47 0 0 0-.34-.148h-.03l-.235.035-2.82 4.086a26.467 26.467 0 0 0-.121-.774zm6.992 9a3.212 3.212 0 0 1-3.207 3.206h-.321a3.198 3.198 0 0 1-3.207-3.207v-6.476c0-.192-.007-.391-.02-.594.09-.063.173-.125.243-.203l2.77-4.004 3.707 4.004c.027.031.058.054.09.082a5.61 5.61 0 0 0-.055.715zm0 0"/>
</svg>
