<svg xmlns="http://www.w3.org/2000/svg" width="32" height="32" viewBox="0 0 24 24">
    <path d="M12 14.2a.398.398 0 0 0-.398.402v.796a.398.398 0 1 0 .796 0v-.796a.398.398 0 0 0-.398-.403zm0 0M12 12.2a.398.398 0 0 0-.398.402v.796a.398.398 0 1 0 .796 0v-.796a.398.398 0 0 0-.398-.403zm0 0"/>
    <path d="M21.305 2.602H2.695A2.695 2.695 0 0 0 0 5.293v13.41a2.696 2.696 0 0 0 2.695 2.695h18.61A2.695 2.695 0 0 0 24 18.707V5.293a2.695 2.695 0 0 0-2.695-2.691zm1.894 16.105a1.896 1.896 0 0 1-1.894 1.895H2.695a1.899 1.899 0 0 1-1.894-1.895V5.293c0-1.043.851-1.895 1.894-1.895h18.61c1.047 0 1.894.852 1.894 1.895zm0 0"/>
    <path d="M20.828 4.2H3.172c-.867 0-1.57.706-1.57 1.573v10.055c0 .867.703 1.57 1.57 1.57h17.656a1.57 1.57 0 0 0 1.57-1.57V5.773c0-.867-.703-1.574-1.57-1.574zm-8.43 12.402a.398.398 0 1 0-.796 0h-6.16L8.245 11h3.356v.398a.398.398 0 1 0 .796 0V11h3.356l1.879 3.703c.015.055.039.106.074.149l.887 1.75h-6.196zm9.204-.774a.775.775 0 0 1-.774.774h-1.34l-1.078-2.13V10.2h.399a.47.47 0 0 0 .39-.21l.73-1.145a.458.458 0 0 0-.003-.492l-.73-1.141A.459.459 0 0 0 18.808 7h-1.47a.465.465 0 0 0-.39.21l-.73 1.138a.48.48 0 0 0 0 .5l.73 1.14c.086.133.235.211.39.211h.274v2.696l-1.367-2.696H7.754l-3.211 6.403H3.172a.775.775 0 0 1-.774-.774V5.773c0-.425.348-.773.774-.773h17.656c.426 0 .774.348.774.773zm-4.079-6.43l-.511-.796.511-.801h1.102l.512.8-.512.797zm0 0M4.496 17.8h-.992a.705.705 0 0 0-.703.704v.992c0 .387.316.703.703.703h.992a.705.705 0 0 0 .703-.703v-.992a.705.705 0 0 0-.703-.703zm-.098 1.598h-.796v-.796h.796zm0 0M7.695 17.8h-.992a.705.705 0 0 0-.703.704v.992c0 .387.316.703.703.703h.992c.39 0 .703-.316.703-.703v-.992a.703.703 0 0 0-.703-.703zm-.093 1.598H6.8v-.796h.8zm0 0"/>
</svg>
