<svg xmlns="http://www.w3.org/2000/svg" width="32" height="32" viewBox="0 0 24 24">
    <path d="M21.305 2.602H2.695A2.695 2.695 0 0 0 0 5.293v13.41a2.696 2.696 0 0 0 2.695 2.695h18.61A2.695 2.695 0 0 0 24 18.707V5.293a2.695 2.695 0 0 0-2.695-2.691zm1.894 16.105a1.896 1.896 0 0 1-1.894 1.895H2.695a1.899 1.899 0 0 1-1.894-1.895V5.293c0-1.043.851-1.895 1.894-1.895h18.61c1.047 0 1.894.852 1.894 1.895zm0 0"/>
    <path d="M4.496 17.8h-.992a.705.705 0 0 0-.703.704v.992c0 .387.316.703.703.703h.992a.705.705 0 0 0 .703-.703v-.992a.705.705 0 0 0-.703-.703zm-.098 1.598h-.796v-.796h.796zm0 0M7.695 17.8h-.992a.705.705 0 0 0-.703.704v.992c0 .387.316.703.703.703h.992c.39 0 .703-.316.703-.703v-.992a.703.703 0 0 0-.703-.703zm-.093 1.598H6.8v-.796h.8zm0 0M15.496 6.004l-9.262 4.25a.396.396 0 0 0-.23.414.402.402 0 0 0 .332.344l3.996.668.453 3.77a.398.398 0 0 0 .332.343c.024.004.043.008.067.008.148 0 .289-.086.359-.223l4.477-9.035a.397.397 0 0 0-.524-.54zm-4.074 8.02l-.332-2.735a.402.402 0 0 0-.332-.348l-3.008-.504L14.8 7.2zm0 0"/>
    <path d="M20.828 4.2H3.172c-.867 0-1.57.706-1.57 1.573v10.055c0 .867.703 1.57 1.57 1.57h17.656a1.57 1.57 0 0 0 1.57-1.57V5.773c0-.867-.703-1.574-1.57-1.574zm0 .8c.426 0 .774.348.774.773v1.938l-3.204-.64V5zm-18.43.773c0-.425.348-.773.774-.773h3.226v1.887l-4-1zm.774 10.829a.775.775 0 0 1-.774-.774v-1.914l4 1v1.688zm18.43-.774a.775.775 0 0 1-.774.774h-2.43v-1.16l3.204.32zm0-.871l-4-.398v2.043H7.199v-2.313l-4.8-1.203V6.71l4.8 1.203V5h10.403v2.727l4 .8zm0 0"/>
</svg>
