<svg xmlns="http://www.w3.org/2000/svg" width="32" height="32" viewBox="0 0 24 24">
    <path d="M22.93 11.059l-.012-.032C21.023 6.887 16.844 4 12 4v-.086L19.648 2 11.878.059c-.034-.008-.07-.012-.105-.016A.43.43 0 0 0 11.602 0a.401.401 0 0 0-.403.398v3.63c-.789.05-1.574.179-2.336.386C3.645 5.824 0 10.586 0 16v8h24v-8c0-1.762-.383-3.434-1.07-4.941zM12 .914L16.352 2 12 3.086zM13.602 23.2h-4v-4c0-1.101.894-2 2-2 1.101 0 2 .899 2 2zm2 0h-1.204v-4c0-1.543-1.253-2.8-2.796-2.8a2.803 2.803 0 0 0-2.801 2.8v4H7.6v-4.035c0-2.187 1.794-3.965 4-3.965a4.005 4.005 0 0 1 3.735 2.555v.004c.168.437.266.91.266 1.406zm7.597-6h-.398a.401.401 0 0 0 0 .8l.398.001v5.2h-6.8v-4.036c0-.402-.055-.789-.149-1.164h.254a.4.4 0 0 0 0-.8h-.535A4.795 4.795 0 0 0 12 14.421V14a.398.398 0 0 0-.398-.398.398.398 0 0 0-.403.398v.422c-2.457.2-4.398 2.25-4.398 4.742V23.2H5.199v-.8a.4.4 0 0 0-.8 0v.8H.8V18h.398a.401.401 0 1 0 0-.8H.801V16c0-3.203 1.37-6.16 3.613-8.23a.395.395 0 0 0 .387.335c.219 0 .398-.18.398-.402V7.11a11.136 11.136 0 0 1 6-2.281v1.57a.401.401 0 0 0 .8 0l.001-1.597c2.219 0 4.285.648 6.027 1.765a.363.363 0 0 0-.027.13v.8a.4.4 0 0 0 .8 0V7.11a11.278 11.278 0 0 1 3.114 3.692h-.152a.401.401 0 1 0 0 .8h.535c.582 1.352.902 2.836.902 4.399zm0 0"/>
    <path d="M18.8 22.8V22a.398.398 0 0 0-.402-.398A.398.398 0 0 0 18 22v.8a.4.4 0 0 0 .8 0zm0 0M18.398 19.2a.401.401 0 0 0-.398.402v.796a.401.401 0 1 0 .8 0v-.796a.402.402 0 0 0-.402-.403zm0 0M6.105 10.8H4.801a.401.401 0 1 0 0 .802h1.304a.401.401 0 0 0 0-.801zm0 0M4.8 10.504a.4.4 0 0 0 .4-.399v-.8a.4.4 0 0 0-.802 0v.8c0 .22.18.399.403.399zm0 0M8.504 10.8H7.199a.4.4 0 0 0 0 .802h1.305a.401.401 0 0 0 0-.8zm0 0M10.906 10.8H9.602a.401.401 0 1 0 0 .802h1.304a.401.401 0 0 0 0-.801zm0 0M13.305 10.8h-.907a.4.4 0 0 0 0 .802h.907c.222 0 .398-.18.398-.403a.398.398 0 0 0-.398-.398zm0 0M15.602 10.8h-1.145a.401.401 0 1 0 0 .802h1.145a.401.401 0 0 0 0-.801zm0 0M18.398 10.297c.223 0 .403-.18.403-.402v-.801a.401.401 0 0 0-.801 0v.8c0 .223.18.403.398.403zm0 0M11.602 11.602a.398.398 0 0 0-.403.398v.8a.401.401 0 0 0 .801 0V12a.398.398 0 0 0-.398-.398zm0 0M18.105 11.602a.401.401 0 0 0 0-.801h-1.144a.401.401 0 1 0 0 .8zm0 0M4.8 19.602a.398.398 0 0 0-.402.398v.8a.401.401 0 0 0 .801 0V20a.398.398 0 0 0-.398-.398zm0 0M2.398 11.602H3.2a.401.401 0 0 0 0-.8l-.8-.001a.4.4 0 0 0 0 .8zm0 0M6 17.2h-.8a.387.387 0 0 0-.2.062.387.387 0 0 0-.2-.063.402.402 0 0 0-.402.403v.796a.401.401 0 0 0 .8 0L5.2 18H6c.223 0 .398-.18.398-.398A.398.398 0 0 0 6 17.199zm0 0M3.602 17.2H2.398a.401.401 0 0 0 0 .8h1.204a.4.4 0 0 0 0-.8zm0 0M18.902 17.2H18v.023a.39.39 0 0 0 0 .757V18c0 .223.18.398.398.398a.398.398 0 0 0 .403-.398h.101a.401.401 0 1 0 0-.8zm0 0M21.305 17.2h-.907a.401.401 0 0 0 0 .8h.907a.4.4 0 0 0 0-.8zm0 0M20.559 11.2a.4.4 0 0 0-.399-.4h-.8a.4.4 0 0 0 0 .802h.8c.219 0 .399-.18.399-.403zm0 0"/>
</svg>
