<svg xmlns="http://www.w3.org/2000/svg" width="32" height="32" viewBox="0 0 24 24">
    <path d="M24 12c0-.77-.531-1.414-1.246-1.598-.063-5.574-1.703-9.047-9.156-9.156A1.654 1.654 0 0 0 12 0c-.77 0-1.414.531-1.598 1.246-7.453.11-9.093 3.578-9.156 9.156A1.654 1.654 0 0 0 0 12c0 .77.531 1.414 1.246 1.598.063 5.574 1.703 9.047 9.156 9.156A1.654 1.654 0 0 0 12 24c.77 0 1.414-.531 1.598-1.246 7.453-.11 9.093-3.582 9.156-9.156A1.654 1.654 0 0 0 24 12zm-2.07-1.594a1.56 1.56 0 0 0-.508.223 9.447 9.447 0 0 0-.563-2.09c-.004-.008 0-.02-.004-.031-.003-.008-.015-.016-.02-.028a9.55 9.55 0 0 0-1.187-2.144 9.441 9.441 0 0 0-3.832-3.047.104.104 0 0 1-.023-.02c-.012-.003-.023 0-.035-.003a9.58 9.58 0 0 0-2.352-.68c-.015 0-.027 0-.035-.004.102-.152.176-.324.223-.508 6.804.102 8.273 3.137 8.336 8.332zm-6.364 9.516l-1.062-2.7a5.769 5.769 0 0 0 2.629-2.543l2.664 1.16a8.691 8.691 0 0 1-2.625 3.145 8.875 8.875 0 0 1-1.606.938zm-4.847.672a8.867 8.867 0 0 1-1.797-.469l1.156-2.66a5.756 5.756 0 0 0 3.656.062l1.063 2.7a8.665 8.665 0 0 1-4.078.367zm-5.703-3.422a8.875 8.875 0 0 1-.938-1.606l2.7-1.062a5.769 5.769 0 0 0 2.543 2.629l-1.16 2.664a8.73 8.73 0 0 1-3.145-2.625zM8.434 4.078l1.062 2.7A5.769 5.769 0 0 0 6.867 9.32L4.203 8.16a8.691 8.691 0 0 1 2.625-3.145 8.875 8.875 0 0 1 1.606-.938zm3.546-.77h.028a8.779 8.779 0 0 1 3.07.567l-1.156 2.66a5.756 5.756 0 0 0-3.656-.058L9.203 3.77c.89-.301 1.828-.461 2.777-.461zm7.004 3.52c.375.508.684 1.047.938 1.606l-2.7 1.062a5.769 5.769 0 0 0-2.543-2.629l1.16-2.66a8.68 8.68 0 0 1 3.145 2.621zm1.137 8.25l-2.656-1.156a5.711 5.711 0 0 0 .059-3.652l2.703-1.067a8.665 8.665 0 0 1-.106 5.875zm-6.254 1.52c-.015.004-.035 0-.05.007-.024.008-.04.024-.055.036-.79.3-1.64.398-2.496.27a4.928 4.928 0 0 1-3.871-3.063c-.004-.008 0-.02-.004-.032l-.024-.03a4.964 4.964 0 0 1-.277-2.52 4.928 4.928 0 0 1 1.957-3.258c.351-.262.73-.469 1.129-.625h.004v-.004a4.927 4.927 0 0 1 2.55-.29c.422.063.825.18 1.207.345.012.007.02.02.036.023.02.008.035.008.05.012.774.343 1.45.879 1.965 1.578a4.92 4.92 0 0 1 .922 3.687c-.062.43-.187.84-.351 1.227-.004.008-.008.012-.012.016-.004.007 0 .011-.004.02a4.937 4.937 0 0 1-1.59 1.995c-.34.25-.703.45-1.086.606zm-10.46-5.88a8.867 8.867 0 0 1 .468-1.796l2.66 1.156a5.711 5.711 0 0 0-.059 3.652l-2.703 1.067a8.665 8.665 0 0 1-.367-4.078zM12 .829a.829.829 0 1 1 0 1.657.829.829 0 0 1 0-1.657zm-1.594 1.246c.047.18.117.352.223.504a9.39 9.39 0 0 0-2.09.563c-.012.004-.02 0-.027.004-.012.003-.02.015-.032.02-.75.3-1.472.69-2.144 1.187a9.441 9.441 0 0 0-3.047 3.832c-.004.007-.012.011-.02.023-.003.012 0 .023-.003.035a9.58 9.58 0 0 0-.68 2.352c0 .015 0 .027-.004.035a1.63 1.63 0 0 0-.512-.223c.063-5.195 1.532-8.23 8.336-8.332zM.828 12a.829.829 0 1 1 1.657 0 .829.829 0 0 1-1.657 0zm1.242 1.594a1.56 1.56 0 0 0 .508-.223c.106.719.297 1.414.563 2.09.004.012 0 .02.004.031a.343.343 0 0 1 .023.04 9.7 9.7 0 0 0 1.184 2.132 9.441 9.441 0 0 0 3.832 3.047.104.104 0 0 1 .023.02c.012.003.02 0 .031.003a9.66 9.66 0 0 0 2.39.684 1.648 1.648 0 0 0-.222.508c-6.804-.102-8.273-3.137-8.336-8.332zM12 23.172a.826.826 0 1 1-.008-1.652h.028a.829.829 0 0 1 .808.824.829.829 0 0 1-.828.828zm1.594-1.246a1.648 1.648 0 0 0-.223-.508 9.367 9.367 0 0 0 2.106-.563h.011c.004 0 .008-.003.012-.007a9.441 9.441 0 0 0 5.207-5.023c.008-.012.016-.02.02-.032.007-.012.003-.023.007-.031a9.66 9.66 0 0 0 .68-2.356c0-.011 0-.023.004-.035.152.102.324.176.508.227-.059 5.191-1.528 8.226-8.332 8.328zm8.75-9.098a.829.829 0 1 1 0-1.657.829.829 0 0 1 0 1.657zm0 0"/>
</svg>
