<svg xmlns="http://www.w3.org/2000/svg" width="32" height="32" viewBox="0 0 24 24">
    <path d="M 24 12 C 24 8.59375 22.574219 5.519531 20.289062 3.335938 C 20.285156 3.332031 20.285156 3.332031 20.285156 3.328125 L 20.246094 3.285156 C 20.203125 3.246094 20.15625 3.207031 20.113281 3.167969 C 20.0625 3.121094 20.007812 3.074219 19.957031 3.027344 C 19.867188 2.949219 19.78125 2.867188 19.691406 2.789062 L 19.640625 2.753906 C 17.5625 1.035156 14.902344 0 12 0 C 5.382812 0 0 5.382812 0 12 C 0 13.699219 0.355469 15.3125 0.996094 16.777344 L 0.992188 16.78125 L 1.078125 16.972656 C 1.089844 16.996094 1.101562 17.019531 1.113281 17.042969 C 1.230469 17.292969 1.355469 17.542969 1.488281 17.785156 C 1.523438 17.84375 1.558594 17.902344 1.589844 17.960938 C 1.707031 18.164062 1.828125 18.363281 1.957031 18.558594 C 2 18.625 2.042969 18.691406 2.089844 18.757812 C 2.222656 18.953125 2.363281 19.144531 2.507812 19.332031 C 2.570312 19.410156 2.628906 19.488281 2.691406 19.5625 C 2.808594 19.707031 2.929688 19.847656 3.050781 19.984375 L 3.046875 19.992188 L 3.246094 20.207031 C 3.25 20.207031 3.25 20.210938 3.253906 20.210938 L 3.617188 20.601562 L 3.625 20.589844 C 4.566406 21.507812 5.636719 22.253906 6.800781 22.8125 C 6.800781 22.816406 6.800781 22.816406 6.800781 22.816406 C 6.960938 22.890625 7.125 22.964844 7.285156 23.035156 C 7.304688 23.042969 7.320312 23.050781 7.339844 23.058594 C 7.46875 23.113281 7.601562 23.164062 7.734375 23.214844 C 8.625 23.554688 9.5625 23.789062 10.535156 23.90625 L 10.523438 23.925781 L 11.171875 23.96875 L 11.207031 23.972656 C 11.273438 23.976562 11.34375 23.980469 11.414062 23.984375 L 11.417969 23.984375 C 11.453125 23.988281 11.492188 23.988281 11.53125 23.988281 C 11.695312 23.996094 11.851562 24 12 24 C 12.289062 24 12.570312 23.988281 12.855469 23.964844 C 12.914062 23.960938 12.976562 23.957031 13.035156 23.953125 C 13.316406 23.929688 13.597656 23.894531 13.875 23.851562 C 13.890625 23.851562 13.90625 23.847656 13.917969 23.84375 C 14.191406 23.800781 14.464844 23.746094 14.730469 23.683594 C 14.769531 23.671875 14.808594 23.664062 14.847656 23.65625 C 15.125 23.589844 15.398438 23.511719 15.667969 23.425781 C 15.695312 23.414062 15.722656 23.40625 15.753906 23.394531 C 16.003906 23.3125 16.25 23.222656 16.492188 23.125 C 16.527344 23.109375 16.558594 23.097656 16.589844 23.085938 C 16.839844 22.984375 17.082031 22.871094 17.320312 22.75 C 17.382812 22.722656 17.441406 22.691406 17.5 22.660156 C 17.699219 22.558594 17.894531 22.449219 18.089844 22.335938 C 18.148438 22.296875 18.210938 22.261719 18.269531 22.226562 C 18.457031 22.109375 18.640625 21.988281 18.820312 21.863281 C 18.914062 21.800781 19.003906 21.738281 19.089844 21.671875 C 19.234375 21.570312 19.375 21.460938 19.511719 21.347656 C 19.644531 21.242188 19.773438 21.132812 19.898438 21.023438 C 19.992188 20.941406 20.082031 20.859375 20.167969 20.777344 C 20.273438 20.683594 20.375 20.585938 20.476562 20.488281 C 20.617188 20.347656 20.753906 20.203125 20.886719 20.058594 C 20.980469 19.949219 21.078125 19.839844 21.171875 19.726562 C 21.242188 19.640625 21.3125 19.554688 21.382812 19.464844 C 21.507812 19.308594 21.628906 19.152344 21.746094 18.988281 C 21.832031 18.867188 21.921875 18.742188 22.003906 18.617188 C 22.070312 18.515625 22.136719 18.414062 22.199219 18.3125 C 22.320312 18.113281 22.441406 17.914062 22.550781 17.710938 C 22.585938 17.644531 22.617188 17.582031 22.652344 17.515625 C 22.753906 17.320312 22.851562 17.117188 22.941406 16.914062 C 22.96875 16.859375 22.992188 16.808594 23.015625 16.753906 C 23.125 16.496094 23.226562 16.234375 23.320312 15.96875 C 23.328125 15.953125 23.335938 15.9375 23.339844 15.921875 L 23.40625 15.734375 L 23.402344 15.730469 C 23.789062 14.558594 24 13.304688 24 12 Z M 18.398438 6.398438 C 17.519531 6.398438 16.800781 5.683594 16.800781 4.800781 C 16.800781 3.917969 17.519531 3.199219 18.398438 3.199219 C 18.671875 3.199219 18.933594 3.273438 19.179688 3.414062 C 19.273438 3.492188 19.367188 3.574219 19.460938 3.65625 C 19.492188 3.683594 19.527344 3.714844 19.558594 3.742188 C 19.601562 3.78125 19.640625 3.824219 19.683594 3.863281 C 19.890625 4.140625 20 4.464844 20 4.800781 C 20 5.683594 19.28125 6.398438 18.398438 6.398438 Z M 0.800781 12 C 0.800781 5.824219 5.824219 0.800781 12 0.800781 C 14.148438 0.800781 16.15625 1.410156 17.863281 2.460938 C 17.550781 2.535156 17.265625 2.664062 17.011719 2.84375 L 16.421875 2.253906 C 16.261719 2.097656 16.011719 2.097656 15.855469 2.253906 C 15.699219 2.410156 15.699219 2.664062 15.855469 2.820312 L 16.445312 3.410156 C 16.238281 3.699219 16.097656 4.035156 16.035156 4.398438 L 15.199219 4.398438 C 14.980469 4.398438 14.800781 4.578125 14.800781 4.800781 C 14.800781 5.019531 14.980469 5.199219 15.199219 5.199219 L 16.035156 5.199219 C 16.097656 5.5625 16.238281 5.898438 16.445312 6.1875 L 15.855469 6.78125 C 15.699219 6.9375 15.699219 7.1875 15.855469 7.34375 C 15.933594 7.421875 16.035156 7.460938 16.136719 7.460938 C 16.238281 7.460938 16.34375 7.421875 16.421875 7.34375 L 17.011719 6.753906 C 17.300781 6.960938 17.636719 7.101562 18 7.164062 L 18 8 C 18 8.222656 18.179688 8.398438 18.398438 8.398438 C 18.621094 8.398438 18.800781 8.222656 18.800781 8 L 18.800781 7.164062 C 19.164062 7.101562 19.5 6.960938 19.789062 6.753906 L 20.378906 7.347656 C 20.457031 7.425781 20.558594 7.464844 20.664062 7.464844 C 20.765625 7.464844 20.867188 7.425781 20.945312 7.347656 C 21.101562 7.191406 21.101562 6.9375 20.945312 6.78125 L 20.355469 6.1875 C 20.585938 5.863281 20.738281 5.480469 20.785156 5.066406 C 22.292969 6.972656 23.199219 9.382812 23.199219 12 C 23.199219 12.984375 23.070312 13.941406 22.832031 14.851562 L 19.183594 9.242188 L 17.140625 12.703125 L 16.613281 13.601562 L 12.023438 4.773438 L 9.039062 9.835938 L 8.453125 10.824219 L 8.261719 10.53125 L 8.261719 10.527344 L 6.382812 7.640625 L 4.203125 11.335938 L 1.507812 15.910156 C 1.050781 14.691406 0.800781 13.375 0.800781 12 Z M 22.148438 16.730469 C 22.046875 16.945312 21.945312 17.152344 21.832031 17.359375 C 21.789062 17.433594 21.746094 17.511719 21.703125 17.585938 C 21.625 17.71875 21.546875 17.847656 21.464844 17.976562 C 21.40625 18.066406 21.351562 18.160156 21.289062 18.25 C 21.179688 18.410156 21.066406 18.570312 20.949219 18.722656 C 20.871094 18.828125 20.789062 18.929688 20.707031 19.03125 C 20.644531 19.113281 20.578125 19.191406 20.511719 19.265625 C 20.371094 19.429688 20.230469 19.585938 20.082031 19.742188 C 20.011719 19.816406 19.9375 19.890625 19.863281 19.964844 C 19.773438 20.054688 19.675781 20.148438 19.582031 20.234375 C 19.488281 20.320312 19.390625 20.40625 19.292969 20.488281 C 19.164062 20.597656 19.035156 20.703125 18.90625 20.808594 C 18.792969 20.894531 18.679688 20.980469 18.566406 21.066406 C 18.484375 21.125 18.402344 21.183594 18.320312 21.238281 C 18.140625 21.363281 17.957031 21.484375 17.765625 21.597656 C 17.710938 21.628906 17.652344 21.664062 17.59375 21.695312 C 17.421875 21.796875 17.246094 21.894531 17.066406 21.984375 C 17.019531 22.007812 16.972656 22.03125 16.925781 22.054688 C 16.703125 22.164062 16.472656 22.269531 16.242188 22.363281 C 16.207031 22.378906 16.167969 22.390625 16.128906 22.40625 C 15.898438 22.5 15.667969 22.585938 15.429688 22.660156 C 15.417969 22.664062 15.40625 22.667969 15.390625 22.675781 C 15.140625 22.753906 14.886719 22.824219 14.628906 22.886719 C 14.589844 22.894531 14.550781 22.902344 14.511719 22.914062 C 14.257812 22.972656 14 23.023438 13.742188 23.066406 C 13.738281 23.066406 13.738281 23.066406 13.734375 23.066406 C 13.476562 23.105469 13.21875 23.136719 12.957031 23.15625 C 12.898438 23.160156 12.84375 23.167969 12.785156 23.171875 C 12.527344 23.1875 12.265625 23.199219 12 23.199219 C 11.960938 23.199219 11.921875 23.199219 11.882812 23.195312 L 17.597656 13.503906 L 18.710938 15.453125 L 20 14.164062 L 21.355469 15.523438 L 21.707031 14.589844 L 22.519531 15.84375 C 22.433594 16.085938 22.332031 16.320312 22.226562 16.554688 C 22.203125 16.613281 22.175781 16.671875 22.148438 16.730469 Z M 9.984375 23.015625 C 9.675781 22.957031 9.371094 22.890625 9.070312 22.808594 C 9.050781 22.804688 9.03125 22.796875 9.015625 22.792969 C 8.714844 22.710938 8.417969 22.617188 8.125 22.507812 C 8.117188 22.503906 8.109375 22.503906 8.101562 22.5 C 7.835938 22.398438 7.570312 22.289062 7.3125 22.167969 C 7.269531 22.148438 7.226562 22.128906 7.183594 22.109375 C 6.945312 21.996094 6.710938 21.871094 6.480469 21.738281 C 6.414062 21.699219 6.34375 21.664062 6.277344 21.621094 C 6.0625 21.496094 5.855469 21.359375 5.648438 21.21875 C 5.574219 21.167969 5.503906 21.113281 5.429688 21.0625 C 5.230469 20.917969 5.035156 20.765625 4.84375 20.605469 C 4.777344 20.554688 4.714844 20.496094 4.652344 20.441406 C 4.460938 20.273438 4.273438 20.105469 4.09375 19.925781 C 4.078125 19.910156 4.0625 19.890625 4.046875 19.875 L 8.941406 11.574219 L 9.429688 10.746094 L 10.265625 12.699219 L 11.492188 11.476562 L 12.839844 14.175781 L 13.808594 11.75 L 15.078125 12.386719 L 16.132812 14.414062 L 14.199219 17.695312 L 10.980469 23.152344 C 10.65625 23.121094 10.339844 23.078125 10.023438 23.023438 C 10.011719 23.019531 9.996094 23.015625 9.984375 23.015625 Z M 3.175781 18.882812 C 3.078125 18.761719 2.984375 18.636719 2.894531 18.507812 C 2.820312 18.40625 2.746094 18.300781 2.675781 18.191406 C 2.621094 18.113281 2.570312 18.03125 2.519531 17.953125 C 2.449219 17.839844 2.382812 17.726562 2.316406 17.613281 C 2.273438 17.542969 2.234375 17.472656 2.191406 17.402344 C 2.089844 17.21875 1.992188 17.027344 1.902344 16.839844 C 1.898438 16.835938 1.898438 16.832031 1.894531 16.828125 L 4.722656 12.03125 L 5.15625 12.609375 L 6 11.765625 L 6.863281 12.628906 L 7.777344 11.253906 L 8 11.59375 L 5.855469 15.234375 L 3.480469 19.257812 C 3.453125 19.226562 3.425781 19.195312 3.398438 19.164062 C 3.320312 19.070312 3.246094 18.976562 3.175781 18.882812 Z M 7.304688 10.523438 L 6.738281 11.371094 L 6 10.632812 L 5.242188 11.390625 L 5.164062 11.285156 L 6.417969 9.160156 Z M 14.449219 11.175781 L 13.390625 10.648438 L 12.757812 12.222656 L 11.710938 10.125 L 10.535156 11.300781 L 9.933594 9.894531 L 11.976562 6.425781 Z M 21.164062 13.757812 L 21.042969 14.078125 L 20 13.035156 L 18.886719 14.148438 L 18.066406 12.710938 L 19.214844 10.757812 Z M 21.164062 13.757812"/>
</svg>
