<svg xmlns="http://www.w3.org/2000/svg" width="32" height="32" viewBox="0 0 24 24">
    <path d="M 20.199219 23.199219 L 20.199219 21.601562 C 20.199219 21.378906 20.019531 21.199219 19.800781 21.199219 C 19.578125 21.199219 19.398438 21.378906 19.398438 21.601562 L 19.398438 23.199219 L 19 23.199219 L 19 22.398438 C 19 22.179688 18.820312 22 18.601562 22 C 18.378906 22 18.199219 22.179688 18.199219 22.398438 L 18.199219 23.199219 L 17.800781 23.199219 L 17.800781 21.601562 C 17.800781 21.378906 17.621094 21.199219 17.398438 21.199219 C 17.179688 21.199219 17 21.378906 17 21.601562 L 17 23.199219 L 16.589844 23.199219 C 16.523438 21.277344 16.0625 12.964844 12.972656 7.84375 C 13.691406 7.542969 14.199219 6.828125 14.199219 6 C 14.199219 5.925781 14.1875 5.851562 14.179688 5.777344 L 15.28125 5.480469 L 15.53125 4.863281 L 16.054688 5.273438 L 20.691406 4.03125 L 20.585938 3.644531 C 20.207031 2.230469 17.46875 1.582031 14.839844 2.289062 C 13.523438 2.640625 12.308594 3.3125 11.476562 4.140625 C 11.457031 4.148438 11.4375 4.148438 11.421875 4.15625 C 10.902344 3.050781 9.847656 1.929688 8.558594 1.152344 C 7.445312 0.476562 6.203125 0.0703125 5.0625 0.0078125 C 3.894531 -0.0546875 3.023438 0.253906 2.660156 0.855469 L 2.449219 1.195312 L 6.558594 3.679688 L 7.175781 3.433594 L 7.242188 4.09375 L 7.753906 4.40625 C 7.066406 4.410156 6.34375 4.5 5.640625 4.6875 C 4.382812 5.023438 3.230469 5.640625 2.394531 6.417969 C 1.542969 7.214844 1.160156 8.058594 1.339844 8.738281 L 1.445312 9.125 L 6.082031 7.882812 L 6.328125 7.261719 L 6.855469 7.675781 L 7.90625 7.394531 C 7.84375 7.585938 7.800781 7.785156 7.800781 8 C 7.800781 9.101562 8.699219 10 9.800781 10 C 10.253906 10 10.667969 9.84375 11.003906 9.585938 C 11.082031 10.042969 11.160156 10.496094 11.226562 10.945312 C 11.238281 11.011719 11.25 11.082031 11.261719 11.152344 C 11.347656 11.726562 11.421875 12.292969 11.488281 12.847656 C 11.488281 12.851562 11.492188 12.851562 11.492188 12.855469 C 12.109375 18.050781 11.742188 21.714844 10.414062 23.199219 L 10.199219 23.199219 L 10.199219 22 C 10.199219 21.777344 10.019531 21.601562 9.800781 21.601562 C 9.578125 21.601562 9.398438 21.777344 9.398438 22 L 9.398438 23.199219 L 8.191406 23.199219 C 8.445312 22.863281 8.601562 22.453125 8.601562 22 C 8.601562 20.898438 7.703125 20 6.601562 20 C 5.496094 20 4.601562 20.898438 4.601562 22 C 4.601562 22.453125 4.757812 22.863281 5.011719 23.199219 L 0.601562 23.199219 L 0.601562 24 L 23.398438 24 L 23.398438 23.199219 Z M 5.398438 22 C 5.398438 21.339844 5.9375 20.800781 6.601562 20.800781 C 7.261719 20.800781 7.800781 21.339844 7.800781 22 C 7.800781 22.660156 7.261719 23.199219 6.601562 23.199219 C 5.9375 23.199219 5.398438 22.660156 5.398438 22 Z M 11.664062 8.714844 C 11.675781 8.6875 11.679688 8.660156 11.6875 8.632812 C 11.71875 8.546875 11.746094 8.464844 11.761719 8.375 C 11.785156 8.25 11.800781 8.125 11.800781 8 C 11.800781 7.984375 11.800781 7.972656 11.800781 7.960938 C 11.808594 7.960938 11.816406 7.960938 11.828125 7.960938 C 11.925781 7.980469 12.027344 7.996094 12.128906 8 C 12.289062 8.253906 12.445312 8.523438 12.59375 8.800781 L 11.679688 8.800781 C 11.675781 8.773438 11.667969 8.742188 11.664062 8.714844 Z M 11.820312 9.601562 L 13 9.601562 C 13.011719 9.621094 13.019531 9.648438 13.03125 9.667969 C 13.105469 9.832031 13.179688 9.996094 13.253906 10.164062 C 13.277344 10.21875 13.300781 10.273438 13.320312 10.328125 C 13.386719 10.480469 13.449219 10.632812 13.507812 10.789062 C 13.535156 10.855469 13.5625 10.921875 13.585938 10.988281 C 13.648438 11.160156 13.710938 11.332031 13.773438 11.507812 C 13.832031 11.675781 13.886719 11.839844 13.941406 12.007812 C 13.960938 12.066406 13.980469 12.125 14 12.183594 C 14.023438 12.253906 14.046875 12.328125 14.066406 12.398438 L 12.246094 12.398438 C 12.125 11.453125 11.980469 10.515625 11.824219 9.605469 C 11.824219 9.601562 11.824219 9.601562 11.820312 9.601562 Z M 12.339844 13.199219 L 14.304688 13.199219 C 14.5625 14.132812 14.777344 15.078125 14.957031 16 L 12.566406 16 C 12.527344 15.082031 12.445312 14.144531 12.339844 13.199219 Z M 12.59375 16.800781 L 15.101562 16.800781 C 15.277344 17.792969 15.40625 18.742188 15.503906 19.601562 L 12.484375 19.601562 C 12.582031 18.726562 12.613281 17.78125 12.59375 16.800781 Z M 12.316406 7.1875 C 12.3125 7.1875 12.304688 7.1875 12.300781 7.1875 L 12.199219 7.199219 C 11.855469 7.199219 11.601562 7.050781 11.449219 6.925781 C 11.328125 6.828125 11.226562 6.707031 11.152344 6.570312 C 11.152344 6.566406 11.148438 6.566406 11.148438 6.5625 C 11.097656 6.472656 11.058594 6.375 11.03125 6.269531 L 11.019531 6.1875 C 11.011719 6.125 11 6.0625 11 6 C 11 5.941406 11.007812 5.882812 11.019531 5.824219 C 11.023438 5.789062 11.03125 5.753906 11.039062 5.714844 L 11.042969 5.699219 C 11.054688 5.648438 11.070312 5.597656 11.089844 5.550781 C 11.109375 5.5 11.136719 5.453125 11.164062 5.40625 C 11.171875 5.394531 11.175781 5.378906 11.183594 5.367188 C 11.261719 5.25 11.355469 5.144531 11.46875 5.054688 L 11.550781 4.996094 C 11.601562 4.960938 11.65625 4.929688 11.714844 4.90625 L 11.816406 4.871094 C 11.882812 4.847656 11.945312 4.832031 12.007812 4.820312 C 12.070312 4.808594 12.132812 4.800781 12.199219 4.800781 C 12.273438 4.800781 12.347656 4.808594 12.417969 4.820312 C 12.441406 4.828125 12.46875 4.835938 12.496094 4.839844 C 12.535156 4.851562 12.574219 4.863281 12.613281 4.878906 C 12.648438 4.890625 12.679688 4.902344 12.710938 4.917969 C 12.738281 4.929688 12.761719 4.945312 12.789062 4.960938 C 13.035156 5.101562 13.234375 5.332031 13.332031 5.617188 L 13.347656 5.667969 C 13.378906 5.773438 13.398438 5.882812 13.398438 6 C 13.398438 6.621094 12.921875 7.128906 12.316406 7.1875 Z M 15.046875 3.058594 C 17.085938 2.511719 18.925781 2.910156 19.578125 3.503906 L 16.234375 4.398438 L 15.183594 3.574219 L 14.6875 4.8125 L 13.933594 5.015625 C 13.929688 5.007812 13.921875 5 13.917969 4.992188 C 13.867188 4.90625 13.8125 4.828125 13.75 4.75 C 13.726562 4.722656 13.707031 4.699219 13.6875 4.671875 C 13.628906 4.609375 13.566406 4.546875 13.5 4.492188 C 13.464844 4.464844 13.433594 4.433594 13.398438 4.410156 C 13.335938 4.363281 13.273438 4.320312 13.207031 4.28125 C 13.160156 4.253906 13.113281 4.230469 13.066406 4.207031 C 13.003906 4.175781 12.941406 4.148438 12.875 4.125 C 12.84375 4.113281 12.816406 4.097656 12.789062 4.089844 C 13.433594 3.640625 14.21875 3.28125 15.046875 3.058594 Z M 6.628906 2.789062 L 3.671875 1 C 3.984375 0.847656 4.464844 0.777344 5.015625 0.808594 C 6.015625 0.863281 7.15625 1.238281 8.140625 1.835938 C 9.5625 2.695312 10.410156 3.824219 10.753906 4.625 C 10.722656 4.660156 10.695312 4.695312 10.664062 4.734375 C 10.632812 4.773438 10.597656 4.808594 10.570312 4.847656 C 10.539062 4.890625 10.515625 4.933594 10.492188 4.976562 C 10.484375 4.984375 10.480469 4.992188 10.476562 5.003906 C 10.269531 4.882812 10.035156 4.78125 9.777344 4.695312 L 7.996094 3.617188 L 7.867188 2.292969 Z M 5.984375 5.976562 L 5.488281 7.210938 L 2.148438 8.109375 C 2.257812 7.777344 2.535156 7.382812 2.941406 7.003906 C 3.671875 6.320312 4.730469 5.757812 5.847656 5.460938 C 6.511719 5.28125 7.171875 5.203125 7.777344 5.203125 C 8.410156 5.203125 8.984375 5.289062 9.453125 5.433594 L 10.207031 5.890625 C 10.203125 5.910156 10.203125 5.929688 10.199219 5.949219 L 9.964844 6.011719 C 9.957031 6.011719 9.949219 6.011719 9.9375 6.011719 C 9.890625 6.007812 9.847656 6 9.800781 6 C 9.777344 6 9.753906 6.007812 9.730469 6.007812 C 9.640625 6.007812 9.550781 6.019531 9.460938 6.035156 C 9.425781 6.039062 9.394531 6.042969 9.363281 6.050781 C 9.285156 6.070312 9.210938 6.09375 9.136719 6.121094 C 9.085938 6.140625 9.03125 6.15625 8.984375 6.179688 C 8.953125 6.191406 8.925781 6.210938 8.898438 6.226562 C 8.816406 6.265625 8.734375 6.308594 8.65625 6.363281 L 7.035156 6.796875 Z M 9.800781 9.199219 C 9.136719 9.199219 8.601562 8.660156 8.601562 8 C 8.601562 7.617188 8.785156 7.28125 9.0625 7.058594 L 9.078125 7.046875 C 9.132812 7.007812 9.191406 6.972656 9.25 6.9375 C 9.261719 6.933594 9.269531 6.929688 9.28125 6.921875 C 9.320312 6.902344 9.367188 6.886719 9.410156 6.871094 C 9.445312 6.859375 9.484375 6.84375 9.523438 6.835938 C 9.546875 6.828125 9.574219 6.824219 9.601562 6.820312 C 9.648438 6.8125 9.695312 6.808594 9.738281 6.804688 C 9.789062 6.804688 9.839844 6.800781 9.890625 6.808594 L 10.023438 6.824219 L 10.027344 6.824219 C 10.191406 6.859375 10.351562 6.925781 10.496094 7.027344 C 10.496094 7.03125 10.496094 7.03125 10.496094 7.03125 C 10.542969 7.105469 10.59375 7.175781 10.648438 7.242188 C 10.664062 7.261719 10.679688 7.28125 10.695312 7.300781 C 10.746094 7.363281 10.800781 7.421875 10.863281 7.476562 C 10.894531 7.542969 10.925781 7.605469 10.945312 7.671875 C 10.949219 7.6875 10.957031 7.703125 10.960938 7.722656 C 10.988281 7.8125 11 7.90625 11 8 C 11 8.167969 10.960938 8.339844 10.886719 8.5 C 10.886719 8.503906 10.886719 8.503906 10.886719 8.503906 C 10.695312 8.914062 10.28125 9.199219 9.800781 9.199219 Z M 11.421875 23.199219 C 11.886719 22.460938 12.191406 21.503906 12.375 20.398438 L 15.589844 20.398438 C 15.714844 21.671875 15.765625 22.675781 15.789062 23.199219 Z M 11.421875 23.199219"/>
</svg>
