<svg xmlns="http://www.w3.org/2000/svg" width="32" height="32" viewBox="0 0 24 24">
    <path d="M18.477 0H4a.398.398 0 0 0-.398.398v23.204c0 .218.175.398.398.398h14.477a1.926 1.926 0 0 0 1.921-1.926V1.926A1.926 1.926 0 0 0 18.477 0zm1.125 22.074c0 .621-.508 1.125-1.125 1.125H4.398V.801h14.079c.617 0 1.125.504 1.125 1.125zm0 0"/>
    <path d="M16.969 4.57c-.012-.02-.028-.027-.04-.043a6.787 6.787 0 0 0-4.628-2.113l-.008-.008L12 2.398l-.293.008-.008.008A6.787 6.787 0 0 0 7.07 4.527c-.011.016-.03.024-.043.043 0 .004 0 .008-.004.008a6.757 6.757 0 0 0-.125 9.102l.008.02c.016.023.04.038.063.058a6.759 6.759 0 0 0 4.73 2.226l.008.008L12 16l.293-.008.008-.008a6.757 6.757 0 0 0 4.75-2.25c.015-.011.031-.02.043-.035l.008-.02a6.757 6.757 0 0 0-.125-9.1c-.004 0-.004-.005-.008-.009zM10.69 3.348a8.63 8.63 0 0 0-1.382 2 7.607 7.607 0 0 1-1.301-.618 6.006 6.006 0 0 1 2.683-1.382zM7.437 5.316a8.633 8.633 0 0 0 1.547.766 8.619 8.619 0 0 0-.574 2.719H6.02a5.98 5.98 0 0 1 1.418-3.485zm-.125 7.622A5.988 5.988 0 0 1 6.02 9.601h2.39a8.85 8.85 0 0 0 .496 2.52 8.3 8.3 0 0 0-1.594.816zm.547.593c.434-.27.883-.492 1.356-.672a8.493 8.493 0 0 0 1.48 2.192 5.993 5.993 0 0 1-2.836-1.52zm3.743 1.305a7.852 7.852 0 0 1-1.622-2.227 8.01 8.01 0 0 1 1.622-.25zm0-3.277a8.647 8.647 0 0 0-1.934.308 7.79 7.79 0 0 1-.457-2.265h2.39zm0-2.758H9.21c.043-.86.226-1.696.535-2.477a8.428 8.428 0 0 0 1.856.29zm0-2.989a7.633 7.633 0 0 1-1.52-.226 7.924 7.924 0 0 1 1.52-2.024zm4.39-1.082c-.418.25-.851.454-1.3.618a8.511 8.511 0 0 0-1.383-2 6.006 6.006 0 0 1 2.683 1.382zm-3.594-1.168a7.924 7.924 0 0 1 1.52 2.024 7.633 7.633 0 0 1-1.52.226zm0 3.051a8.428 8.428 0 0 0 1.856-.289c.309.781.492 1.617.535 2.477H12.4zm0 2.989h2.391a7.79 7.79 0 0 1-.457 2.265 8.647 8.647 0 0 0-1.934-.308zm0 2.757a8.01 8.01 0 0 1 1.622.25 7.852 7.852 0 0 1-1.622 2.227v-2.477zm.91 2.692a8.695 8.695 0 0 0 1.481-2.192c.469.18.918.403 1.352.672a5.999 5.999 0 0 1-2.832 1.52zm3.38-2.114a8.3 8.3 0 0 0-1.594-.816 8.85 8.85 0 0 0 .496-2.52h2.39a5.988 5.988 0 0 1-1.293 3.336zM15.59 8.802a8.619 8.619 0 0 0-.574-2.719 8.633 8.633 0 0 0 1.546-.766 5.98 5.98 0 0 1 1.418 3.485zm0 0M18 18H6a.398.398 0 0 0-.398.398c0 .223.175.403.398.403h12c.223 0 .398-.18.398-.403A.398.398 0 0 0 18 18zm0 0M18 20H6a.398.398 0 0 0-.398.398c0 .223.175.403.398.403h12c.223 0 .398-.18.398-.403A.398.398 0 0 0 18 20zm0 0"/>
</svg>
