<svg xmlns="http://www.w3.org/2000/svg" width="32" height="32" viewBox="0 0 24 24">
    <path d="M22.727 6.043l-1.309-4.887-18.25 4.887H0v16.8h24v-16.8h-1.273zm-1.875-3.906l1.046 3.906H6.258zm2.347 19.906H.801v-1.2h.8a.4.4 0 0 0 0-.8h-.8v-1.2h.8a.4.4 0 0 0 0-.8h-.8v-1.2h.8a.4.4 0 0 0 0-.8h-.8v-1.2h.8a.4.4 0 0 0 0-.8h-.8v-1.2h.8a.4.4 0 0 0 0-.8h-.8v-1.2h.8a.4.4 0 0 0 0-.8h-.8v-1.2h.8a.4.4 0 0 0 0-.8h-.8v-1.2h22.398zm0 0"/>
    <path d="M11.602 8.844h.796v11.199h-.796zm0 0M16.8 17.645h4.802v.8H16.8zm0 0M16 19.246h5.602v.797H16zm0 0M17.602 12.844h4v-4h-4zm.796-3.2h2.403v2.399h-2.403zm0 0"/>
</svg>
