<svg xmlns="http://www.w3.org/2000/svg" width="32" height="32" viewBox="0 0 24 24">
    <path d="M21.602 4.398C20.719 4.398 20 5.118 20 6c0 .074.012.14.023.21L18.234 8h-2.656a5.997 5.997 0 0 0-4.691-5.457c.195-.266.312-.59.312-.941C11.2.719 10.48 0 9.602 0 8.719 0 8 .719 8 1.602c0 .351.117.675.313.941A6.002 6.002 0 0 0 3.62 8H1.2a.4.4 0 0 0 0 .8h.403v1.598h1.597v12.403h.86c.175.687.796 1.199 1.543 1.199a1.6 1.6 0 0 0 1.543-1.2h4.914c.175.688.796 1.2 1.543 1.2a1.6 1.6 0 0 0 1.543-1.2H16V10.399h1.602V8.801h.796a.429.429 0 0 0 .157-.031c.047-.02.09-.051.129-.086l1.68-1.68c.292.36.734.598 1.238.598a1.603 1.603 0 0 0 0-3.203zM8.8 1.602a.799.799 0 1 1 0 0zm.8 1.597c2.731 0 4.977 2.121 5.184 4.801H4.415a5.212 5.212 0 0 1 5.187-4.8zm-4 20a.799.799 0 1 1 0 0zm8 0a.799.799 0 1 1 0 0zM15.2 22h-.05c-.012-.055-.036-.11-.055-.16a1.193 1.193 0 0 0-.164-.324c-.012-.02-.024-.036-.035-.051-.047-.059-.094-.117-.145-.172-.023-.023-.047-.047-.074-.07-.047-.04-.094-.082-.145-.118a1.797 1.797 0 0 0-.09-.058 1.29 1.29 0 0 0-.16-.09 1.552 1.552 0 0 0-.29-.102c-.03-.007-.057-.02-.089-.023a1.51 1.51 0 0 0-.602 0c-.03.004-.062.016-.093.023a1.494 1.494 0 0 0-.187.06c-.036.01-.067.026-.102.042-.055.027-.11.055-.16.086-.031.02-.063.039-.09.062-.05.036-.098.075-.145.118l-.074.07c-.05.055-.097.11-.14.172-.012.015-.028.031-.04.047a1.98 1.98 0 0 0-.136.254c-.012.023-.016.047-.024.074-.023.05-.043.105-.058.16H7.148c-.011-.055-.035-.11-.054-.16a1.33 1.33 0 0 0-.164-.328l-.035-.047c-.047-.059-.094-.117-.145-.172-.023-.023-.047-.047-.074-.07-.047-.04-.094-.082-.145-.118-.027-.02-.058-.043-.09-.062a2.083 2.083 0 0 0-.16-.086 1.552 1.552 0 0 0-.29-.102c-.03-.007-.057-.02-.089-.023a1.51 1.51 0 0 0-.602 0c-.03.004-.062.016-.093.023a1.494 1.494 0 0 0-.187.06c-.036.01-.067.026-.102.042-.055.027-.11.055-.16.086-.031.02-.063.039-.09.062-.05.036-.098.075-.145.118l-.074.07c-.05.055-.097.11-.14.172-.012.015-.028.031-.04.047a1.98 1.98 0 0 0-.136.254c-.012.023-.016.047-.024.074-.023.05-.043.105-.058.16H4v-2.215c.055.031.113.059.168.086a1.605 1.605 0 0 0 .277.086l.067.012c.093.02.191.031.289.031.476 0 .906-.21 1.199-.543a1.598 1.598 0 0 0 2.398 0 1.6 1.6 0 0 0 2.403 0 1.598 1.598 0 0 0 2.398 0 1.598 1.598 0 0 0 1.489.516c.023-.004.042-.012.066-.016.094-.02.18-.047.266-.082.003-.004.007-.004.011-.004.059-.027.114-.055.168-.086zm0-3.602a.799.799 0 0 1-1.598 0v-2a.401.401 0 0 0-.8 0v2a.802.802 0 0 1-1.602 0V14a.398.398 0 0 0-.398-.398.398.398 0 0 0-.403.398v4.398a.799.799 0 1 1-1.597 0v-2a.401.401 0 0 0-.801 0v2a.802.802 0 0 1-1.602 0V15.2a.398.398 0 1 0-.796 0v3.2a.802.802 0 0 1-1.602 0v-8h11.2zm1.602-8.796H2.398V8.8h14.403zM21.6 6.8a.802.802 0 0 1 0-1.602c.442 0 .797.36.797.801 0 .441-.355.8-.796.8zm0 0"/>
</svg>
