<svg xmlns="http://www.w3.org/2000/svg" width="32" height="32" viewBox="0 0 24 24">
    <path d="M 24 5.601562 L 21.601562 5.601562 L 21.601562 7.199219 L 20.800781 7.199219 L 20.800781 5.601562 L 20 5.601562 L 20 3.863281 L 23.34375 2.40625 L 23.601562 2.28125 L 23.589844 1.742188 L 19.761719 0.0351562 C 19.761719 0.0351562 19.761719 0.0351562 19.757812 0.0351562 C 19.734375 0.0234375 19.707031 0.0234375 19.683594 0.015625 C 19.65625 0.0117188 19.628906 0 19.601562 0 C 19.582031 0 19.570312 0.0078125 19.554688 0.0078125 C 19.519531 0.015625 19.484375 0.015625 19.449219 0.03125 C 19.425781 0.0390625 19.40625 0.0585938 19.386719 0.0703125 C 19.363281 0.0859375 19.339844 0.09375 19.324219 0.113281 C 19.296875 0.136719 19.28125 0.167969 19.261719 0.199219 C 19.253906 0.210938 19.242188 0.222656 19.234375 0.238281 C 19.222656 0.265625 19.222656 0.292969 19.214844 0.320312 C 19.210938 0.34375 19.199219 0.371094 19.199219 0.394531 C 19.199219 0.398438 19.199219 0.398438 19.199219 0.398438 L 19.199219 5.601562 L 18.398438 5.601562 L 18.398438 7.199219 L 17.601562 7.199219 L 17.601562 5.601562 L 15.199219 5.601562 L 15.199219 10 L 16 10 L 16 12.398438 L 14.800781 12.398438 L 14.800781 8.800781 L 12.398438 8.800781 L 12.398438 10.398438 L 11.601562 10.398438 L 11.601562 8.800781 L 9.199219 8.800781 L 9.199219 12.398438 L 8 12.398438 L 8 10 L 8.800781 10 L 8.800781 5.601562 L 6.398438 5.601562 L 6.398438 7.199219 L 5.601562 7.199219 L 5.601562 5.601562 L 4.800781 5.601562 L 4.800781 3.863281 L 8.15625 2.40625 L 8.414062 2.28125 L 8.398438 1.738281 L 4.5625 0.0351562 C 4.5625 0.0351562 4.558594 0.0351562 4.558594 0.0351562 C 4.535156 0.0234375 4.511719 0.0234375 4.484375 0.015625 C 4.457031 0.0117188 4.429688 0 4.402344 0 C 4.402344 0 4.402344 0 4.398438 0 C 4.382812 0 4.371094 0.0078125 4.355469 0.0078125 C 4.320312 0.0117188 4.285156 0.015625 4.25 0.03125 C 4.226562 0.0390625 4.207031 0.0585938 4.183594 0.0703125 C 4.164062 0.0859375 4.140625 0.09375 4.121094 0.113281 C 4.097656 0.136719 4.082031 0.164062 4.0625 0.195312 C 4.054688 0.210938 4.042969 0.222656 4.035156 0.238281 C 4.035156 0.238281 4.035156 0.238281 4.03125 0.242188 C 4.023438 0.265625 4.023438 0.292969 4.015625 0.316406 C 4.011719 0.34375 4 0.371094 4 0.394531 C 4 0.398438 4 0.398438 4 0.398438 L 4 3.601562 C 4 3.605469 4 3.605469 4 3.605469 L 4 5.601562 L 3.199219 5.601562 L 3.199219 7.199219 L 2.398438 7.199219 L 2.398438 5.601562 L 0 5.601562 L 0 10 L 0.800781 10 L 0.800781 24 L 23.199219 24 L 23.199219 10 L 24 10 Z M 20 2.988281 L 20 1.015625 L 22.238281 2.015625 Z M 4.800781 2.992188 L 4.800781 1.015625 L 7.046875 2.015625 Z M 0.800781 6.398438 L 1.601562 6.398438 L 1.601562 8 L 4 8 L 4 6.398438 L 4.800781 6.398438 L 4.800781 8 L 7.199219 8 L 7.199219 6.398438 L 8 6.398438 L 8 9.199219 L 0.800781 9.199219 Z M 3.199219 23.199219 L 3.199219 19.199219 C 3.199219 18.539062 3.738281 18 4.398438 18 C 5.0625 18 5.601562 18.539062 5.601562 19.199219 L 5.601562 23.199219 Z M 7.199219 23.199219 L 6.398438 23.199219 L 6.398438 19.199219 C 6.398438 18.097656 5.503906 17.199219 4.398438 17.199219 C 3.296875 17.199219 2.398438 18.097656 2.398438 19.199219 L 2.398438 23.199219 L 1.601562 23.199219 L 1.601562 10 L 7.199219 10 Z M 10 23.199219 L 10 17.199219 C 10 16.097656 10.898438 15.199219 12 15.199219 C 13.101562 15.199219 14 16.097656 14 17.199219 L 14 23.199219 Z M 16 23.199219 L 14.800781 23.199219 L 14.800781 17.199219 C 14.800781 15.65625 13.542969 14.398438 12 14.398438 C 10.457031 14.398438 9.199219 15.65625 9.199219 17.199219 L 9.199219 23.199219 L 8 23.199219 L 8 13.199219 L 10 13.199219 L 10 9.601562 L 10.800781 9.601562 L 10.800781 11.199219 L 13.199219 11.199219 L 13.199219 9.601562 L 14 9.601562 L 14 13.199219 L 16 13.199219 Z M 18.398438 23.199219 L 18.398438 19.199219 C 18.398438 18.539062 18.9375 18 19.601562 18 C 20.261719 18 20.800781 18.539062 20.800781 19.199219 L 20.800781 23.199219 Z M 22.398438 23.199219 L 21.601562 23.199219 L 21.601562 19.199219 C 21.601562 18.097656 20.703125 17.199219 19.601562 17.199219 C 18.496094 17.199219 17.601562 18.097656 17.601562 19.199219 L 17.601562 23.199219 L 16.800781 23.199219 L 16.800781 10 L 22.398438 10 Z M 23.199219 9.199219 L 16 9.199219 L 16 6.398438 L 16.800781 6.398438 L 16.800781 8 L 19.199219 8 L 19.199219 6.398438 L 20 6.398438 L 20 8 L 22.398438 8 L 22.398438 6.398438 L 23.199219 6.398438 Z M 23.199219 9.199219"/>
    <path d="M2.398438 15.199219L6.398438 15.199219 6.398438 11.601562 2.398438 11.601562zM3.199219 12.398438L5.601562 12.398438 5.601562 14.398438 3.199219 14.398438zM21.601562 11.601562L17.601562 11.601562 17.601562 15.199219 21.601562 15.199219zM20.800781 14.398438L18.398438 14.398438 18.398438 12.398438 20.800781 12.398438zM20.800781 14.398438"/>
</svg>
