<svg xmlns="http://www.w3.org/2000/svg" width="32" height="32" viewBox="0 0 24 24">
    <path d="M6.043 4.39a.424.424 0 0 0-.598 0L3.762 6.079a.42.42 0 0 0 0 .594.424.424 0 0 0 .297.125c.109 0 .218-.043.3-.125l1.684-1.684a.424.424 0 0 0 0-.597zm0 0M8.395 4.39l-2.95 2.95a.424.424 0 0 0 0 .598.422.422 0 0 0 .301.12.42.42 0 0 0 .297-.12l2.945-2.95a.417.417 0 0 0 0-.597.42.42 0 0 0-.593 0zm0 0M10.945 16.633h2.528a.423.423 0 0 0 0-.844h-2.528a.423.423 0 0 0 0 .844zm0 0"/>
    <path d="M19.633 13.293c-1.27.508-1.68.922-1.98 1.223-.301.296-.434.433-1.977.433h-.559a1.869 1.869 0 0 0-1.277-.715 1.867 1.867 0 0 0-1.63-.972c-.683 0-1.308.383-1.632.972-.426.043-.824.23-1.133.54-.05.054-.093.117-.14.175h-.559c-1.543 0-1.68-.136-1.976-.433-.301-.301-.715-.715-1.985-1.223l-.578-.23v2.59l.266.109c1.109.441 1.449.785 1.699 1.035.496.492.844.68 2.574.68h.906c.278.183.59.3.875.363v1.465c0 .406.16.777.418 1.05l-.82 2.461a.423.423 0 0 0 .402.555c.176 0 .34-.113.399-.289l.761-2.289c.122.031.247.05.376.05h.292c.133 0 .258-.019.375-.05l.766 2.289c.059.176.223.29.399.29a.423.423 0 0 0 .402-.555l-.82-2.462a1.53 1.53 0 0 0 .418-1.05v-1.457c.293-.059.62-.18.902-.375h.879c1.73 0 2.078-.184 2.57-.68.25-.25.594-.59 1.703-1.031l.262-.11v-2.59zm-8.867 1.777h.386l.098-.28c.148-.411.531-.685.96-.685.427 0 .813.274.958.684l.102.281h.382c.344 0 .645.168.832.43l.051.082a1.181 1.181 0 0 1 .106.258.827.827 0 0 1 .02.426c0 .02-.009.03-.013.046-.007.032-.015.063-.027.094-.223.59-1.055.645-1.16.649l-.41.011v.829h-1.684v-.817l-.394-.023c-.047-.004-1.078-.075-1.215-.797a1.168 1.168 0 0 1-.016-.16v-.004c0-.086.012-.168.035-.254 0-.004.004-.008.004-.016.024-.082.059-.164.106-.242l.047-.078a1.01 1.01 0 0 1 .832-.434zm-2.02 1.563c-1.543 0-1.68-.137-1.976-.434-.282-.277-.657-.652-1.72-1.11v-.76c.665.323.923.581 1.122.78.496.496.844.68 2.57.68h.184a1.607 1.607 0 0 0 .008.64c.007.036.015.071.023.102l.023.102h-.234zM12.062 20a.694.694 0 0 1-.695-.695v-.567h1.684v.567a.694.694 0 0 1-.696.695zm7.31-4.91c-1.067.457-1.442.832-1.72 1.11-.3.296-.433.433-1.976.433h-.239c.008-.02.008-.043.016-.063a1.866 1.866 0 0 0 .043-.781h.18c1.726 0 2.074-.184 2.57-.68.2-.199.457-.457 1.121-.78zm0 0M23.203 3.336a2.253 2.253 0 0 0-1.281-1.316C18.566.69 12.359.633 12.102.633c0 0-.157-.004-.438-.004-1.988 0-6.906.14-9.703 1.437A2.236 2.236 0 0 0 .8 3.324C.34 4.563-.605 7.688.555 9.938a3.476 3.476 0 0 0 1.96 1.687 11.946 11.946 0 0 0 5.028.59 5.58 5.58 0 0 0 2.469-.863c.468.351 1.172.648 2.05.648.891 0 1.516-.3 1.938-.64.77.48 1.61.777 2.457.855a11.946 11.946 0 0 0 5.027-.59c.86-.3 1.555-.898 1.961-1.688 1.157-2.242.215-5.367-.242-6.601zm-12.57 7.422c.46-.766.992-1.57 1.367-2.074.379.507.91 1.32 1.375 2.09-.297.21-.723.382-1.313.382-.605 0-1.093-.18-1.43-.398zM22.699 9.55a2.66 2.66 0 0 1-1.492 1.281 11.16 11.16 0 0 1-4.668.547c-.82-.078-1.633-.395-2.363-.91-.574-.965-1.258-1.989-1.676-2.516l-.125-.16h-.75l-.125.16c-.418.527-1.102 1.55-1.676 2.516-.73.515-1.543.832-2.36.91a11.16 11.16 0 0 1-4.672-.547 2.64 2.64 0 0 1-1.487-1.281c-1.008-1.95-.137-4.797.289-5.938.125-.343.383-.625.722-.781 2.641-1.227 7.418-1.36 9.348-1.36.266 0 .418.005.426.005.062 0 6.312.054 9.523 1.328.367.144.66.445.801.824.418 1.133 1.285 3.976.285 5.922zm0 0"/>
    <path d="M21.3 3.586c-3.034-1.203-8.984-1.266-9.23-1.27-.261-.003-6.418-.105-9.398 1.278a.568.568 0 0 0-.293.316c-.211.574-1.223 3.52-.328 5.258.21.402.57.71 1.02.867.98.344 2.995.844 5.449.332.277-.058.52-.23.664-.472 1.093-1.797 1.84-2.77 2.101-2.946h1.43c.262.176 1.008 1.149 2.101 2.946.145.242.387.414.664.472a10.273 10.273 0 0 0 5.45-.332 1.81 1.81 0 0 0 1.02-.867c.894-1.738-.114-4.676-.329-5.25a.56.56 0 0 0-.32-.332zm-.1 5.195a.975.975 0 0 1-.548.461 9.615 9.615 0 0 1-5 .301.184.184 0 0 1-.117-.086c-2.039-3.348-2.504-3.348-2.754-3.348H11.22c-.25 0-.715 0-2.754 3.348a.184.184 0 0 1-.117.086c-2.336.488-4.274-.047-4.996-.3A.97.97 0 0 1 2.8 8.78c-.696-1.347.117-3.86.332-4.469C5.98 3.06 11.993 3.16 12.059 3.16c.058 0 5.882.063 8.816 1.164.219.625 1.016 3.117.324 4.457zm0 0"/>
</svg>
