<svg xmlns="http://www.w3.org/2000/svg" width="32" height="32" viewBox="0 0 24 24">
    <path d="M23.969 9.25a.644.644 0 0 0-.524-.438l-5.36-.78a4.13 4.13 0 0 1-3.108-2.259L12.578.918a.644.644 0 0 0-1.156 0L9.023 5.773a4.124 4.124 0 0 1-3.109 2.258l-5.36.781a.644.644 0 0 0-.359 1.102l3.88 3.781a4.124 4.124 0 0 1 1.187 3.653l-.914 5.34a.635.635 0 0 0 .257.632.638.638 0 0 0 .38.125.651.651 0 0 0 .3-.078l4.793-2.52a4.129 4.129 0 0 1 3.844 0l4.793 2.52c.219.117.48.098.68-.047a.635.635 0 0 0 .257-.633l-.914-5.34a4.124 4.124 0 0 1 1.188-3.652l3.879-3.78a.652.652 0 0 0 .164-.665zm-4.64 3.832a4.978 4.978 0 0 0-1.434 4.41l.843 4.922-4.418-2.324a4.998 4.998 0 0 0-4.64 0l-4.418 2.324.843-4.922a4.978 4.978 0 0 0-1.433-4.41L1.098 9.598l4.941-.72a4.97 4.97 0 0 0 3.75-2.726L12 1.676l2.21 4.476a4.977 4.977 0 0 0 3.75 2.727l4.942.719zm0 0"/>
    <path d="M12 10.145a2.57 2.57 0 0 0-2.566 2.566A2.568 2.568 0 0 0 12 15.277a2.568 2.568 0 0 0 2.566-2.566A2.57 2.57 0 0 0 12 10.145zm0 4.277c-.941 0-1.71-.766-1.71-1.711 0-.941.769-1.711 1.71-1.711a1.71 1.71 0 1 1 0 3.422zm0 0M12.43 8.863a.428.428 0 1 1-.856-.003.428.428 0 0 1 .856.003zm0 0M12.43 7.152a.428.428 0 0 1-.856 0 .427.427 0 0 1 .856 0zm0 0M12.43 5.441a.428.428 0 1 1-.857.003.428.428 0 0 1 .857-.003zm0 0M12.43 3.73a.428.428 0 1 1-.857.003.428.428 0 0 1 .857-.003zm0 0M21.078 10.05a.427.427 0 1 1-.853-.001.427.427 0 0 1 .853.002zm0 0M19.48 10.652a.428.428 0 1 1-.855-.003.428.428 0 0 1 .855.003zm0 0M17.879 11.254a.428.428 0 1 1-.857.002.428.428 0 0 1 .857-.002zm0 0M16.277 11.855a.428.428 0 1 1-.857.003.428.428 0 0 1 .857-.003zm0 0M7.129 20.176a.428.428 0 1 1-.855.004.428.428 0 0 1 .855-.004zm0 0M8.184 18.828a.428.428 0 1 1-.857.003.428.428 0 0 1 .857-.003zm0 0M9.234 17.48c0 .239-.191.43-.425.43a.428.428 0 0 1 0-.855c.234 0 .425.191.425.425zm0 0M10.29 16.133a.427.427 0 1 1-.854-.002.427.427 0 0 1 .853.002zm0 0M17.727 20.176a.428.428 0 1 1-.856.004.428.428 0 0 1 .856-.004zm0 0M16.672 18.828a.428.428 0 1 1-.855.004.428.428 0 0 1 .855-.004zm0 0M15.621 17.48a.428.428 0 1 1-.857.003.428.428 0 0 1 .857-.003zm0 0M14.566 16.133a.428.428 0 1 1-.855-.004.428.428 0 0 1 .855.004zm0 0M3.777 10.05a.428.428 0 1 1-.855-.003.428.428 0 0 1 .855.004zm0 0M5.379 10.652a.428.428 0 1 1-.855-.003.428.428 0 0 1 .855.003zm0 0M6.977 11.254a.428.428 0 1 1-.856.004.428.428 0 0 1 .856-.004zm0 0M8.578 11.855a.428.428 0 1 1-.855.005.428.428 0 0 1 .855-.005zm0 0"/>
</svg>
