<svg xmlns="http://www.w3.org/2000/svg" width="32" height="32" viewBox="0 0 24 24">
    <path d="M8.398 15h-.835a2.38 2.38 0 0 0-.407-.988l.59-.59a.4.4 0 0 0-.566-.567l-.59.59a2.387 2.387 0 0 0-.988-.41V12.2a.401.401 0 0 0-.801 0v.836c-.364.063-.7.203-.989.41l-.593-.59a.396.396 0 0 0-.563 0 .394.394 0 0 0 0 .567l.59.59c-.207.289-.348.625-.41.988H2a.398.398 0 0 0-.398.398c0 .223.175.403.398.403h.836c.062.363.203.699.41.988l-.59.59a.394.394 0 0 0 0 .566.396.396 0 0 0 .563 0l.594-.59c.289.204.624.348.988.41v.837a.4.4 0 0 0 .8 0v-.836c.364-.063.7-.207.989-.41l.59.59a.399.399 0 0 0 .566 0 .4.4 0 0 0 0-.567l-.594-.59c.207-.289.352-.625.41-.988h.836a.401.401 0 0 0 0-.8zM5.2 17a1.6 1.6 0 0 1 0-3.2c.883 0 1.602.72 1.602 1.598C6.8 16.281 6.082 17 5.199 17zm0 0M20.8 9.8h-.835a2.387 2.387 0 0 0-.41-.988l.59-.593a.396.396 0 0 0 0-.563.39.39 0 0 0-.563 0l-.594.59a2.387 2.387 0 0 0-.988-.41V7a.398.398 0 0 0-.398-.398.398.398 0 0 0-.403.398v.836c-.363.062-.699.203-.988.41l-.59-.59a.394.394 0 0 0-.566 0 .396.396 0 0 0 0 .563l.59.594a2.38 2.38 0 0 0-.407.988h-.84a.4.4 0 0 0 0 .8h.836c.063.364.207.7.41.989l-.59.59a.4.4 0 0 0 .567.566l.59-.594c.289.207.625.352.988.41v.836a.401.401 0 0 0 .8 0l.001-.835c.363-.06.7-.204.988-.41l.59.593a.405.405 0 0 0 .285.117.4.4 0 0 0 .281-.684l-.59-.59c.208-.288.348-.624.41-.987h.837a.401.401 0 0 0 0-.801zm-3.198 2A1.604 1.604 0 0 1 16 10.2a1.6 1.6 0 0 1 3.2 0c0 .882-.72 1.6-1.598 1.6zm0 0"/>
    <path d="M8.418 8.2H7.199v-4a.4.4 0 0 0-.398-.4H3.6a.401.401 0 0 0-.402.4v4H1.98C.89 8.2 0 9.09 0 10.18v10.84C0 22.11.89 23 1.98 23h6.438c1.094 0 1.98-.89 1.98-1.98V10.18c0-1.09-.886-1.98-1.98-1.98zm-2.02-3.598v1.597H4V4.602zM4 7h2.398v1.2H4zm5.602 14.02c0 .652-.532 1.18-1.184 1.18H1.98c-.652 0-1.18-.528-1.18-1.18V10.18C.8 9.53 1.329 9 1.98 9h6.438c.652 0 1.184.531 1.184 1.18zm0 0"/>
    <path d="M5.602 5.398a.401.401 0 1 1 0 0zm0 0M24 2.602C24 1.719 23.281 1 22.398 1c-.476 0-.906.21-1.199.543a1.598 1.598 0 0 0-2.398 0 1.598 1.598 0 0 0-2.403 0 1.598 1.598 0 0 0-2.398 0 1.598 1.598 0 0 0-2.797.95.364.364 0 0 0-.008.171l.032.195c.003.032.007.067.011.079L14 18.636v3.965a.4.4 0 0 0 .398.398h6c.223 0 .403-.18.403-.398V18.64l3.11-15.528c.058-.172.089-.343.089-.511zm-12 0a.802.802 0 0 1 1.602 0 .398.398 0 1 0 .796 0 .802.802 0 0 1 1.602 0 .4.4 0 0 0 .8 0 .799.799 0 1 1 1.598 0 .401.401 0 0 0 .801 0 .802.802 0 0 1 1.602 0 .4.4 0 0 0 .8 0 .799.799 0 1 1 1.547.27c-.007.019-.011.038-.015.058l-.176.87H12.203l-.18-1.023L12 2.63v-.027zM14.8 19H20v1.2h-5.2zm5.274-.8h-5.34l-2.39-13.598h10.453zm-5.273 4V21H20v1.2zm0 0"/>
</svg>
