<svg xmlns="http://www.w3.org/2000/svg" width="32" height="32" viewBox="0 0 24 24">
    <path d="M1.613 20.398h11.203c.54 0 1.047-.148 1.47-.43l6.847-6.84c.3-.3.469-.702.469-1.128 0-.43-.168-.832-.47-1.133-.3-.3-.702-.469-1.132-.469a1.59 1.59 0 0 0-1.129.47l-5.289 5.284 5.07-9.972c.004-.008.004-.016.004-.028a.84.84 0 0 1 1.047-.148c.2.117.34.297.402.512a.779.779 0 0 1-.07.605.414.414 0 0 0-.055.2.41.41 0 0 0 .2.347c.191.11.437.043.547-.148.222-.38.73-.504 1.132-.27.414.238.567.742.348 1.125a.401.401 0 0 0 .145.547c.062.035.132.05.203.05.136 0 .27-.07.343-.199h.004a5.08 5.08 0 0 0 .485-4.02c-.399-1.327-1.309-2.456-2.563-3.183-2.62-1.511-5.816-.722-7.277 1.801v.004a.405.405 0 0 0 .144.547.4.4 0 0 0 .547-.149c.223-.382.735-.5 1.149-.261.199.113.34.297.402.511a.779.779 0 0 1-.07.606.414.414 0 0 0-.055.2.41.41 0 0 0 .2.347c.19.11.437.043.546-.149.223-.382.73-.504 1.133-.27a.88.88 0 0 1 .406.513.779.779 0 0 1-.07.605.387.387 0 0 0-.05.156L12.155 17.2H1.613a1.6 1.6 0 0 0 0 3.2zM17.945 4.066a1.667 1.667 0 0 0-1.355-.144c-.012-.04-.02-.082-.031-.121a1.668 1.668 0 0 0-.774-.98 1.667 1.667 0 0 0-.574-.208c1.398-1.172 3.457-1.363 5.215-.351 1.754 1.015 2.617 2.894 2.3 4.691a1.631 1.631 0 0 0-.464-.394 1.682 1.682 0 0 0-1.356-.145 1.668 1.668 0 0 0-.805-1.102 1.665 1.665 0 0 0-1.355-.144 1.647 1.647 0 0 0-.8-1.102zM1.613 18h11.254l6.57-6.566c.297-.301.829-.301 1.13 0A.785.785 0 0 1 20.8 12a.776.776 0 0 1-.235.563l-6.757 6.761c-.286.18-.625.278-.993.278H1.613a.799.799 0 0 1-.797-.801c0-.442.356-.801.797-.801zm0 0"/>
    <path d="M23.344 21.98l-1.18-1.18-3.398-3.402 5.117-5.117a.396.396 0 0 0 0-.562.4.4 0 0 0-.567 0L14.234 20.8H0v2h23.004c.012 0 .02-.004.027-.004l.285.285a.399.399 0 0 0 .567 0 .4.4 0 0 0 0-.566zm-5.145-4.015l2.836 2.836h-5.668zM.801 22v-.398h21.035l.398.398zm0 0M2.8 5.602h.829c.07.582.3 1.117.644 1.558l-.585.586a.4.4 0 0 0 .566.566l.586-.585c.441.343.976.574 1.558.644V9.2a.401.401 0 0 0 .8 0l.001-.828c.582-.07 1.117-.3 1.559-.644l.586.585a.405.405 0 0 0 .285.118.4.4 0 0 0 .281-.684l-.586-.586c.344-.441.574-.976.649-1.558h.828a.401.401 0 0 0 0-.801h-.828a3.193 3.193 0 0 0-.649-1.559l.586-.586a.4.4 0 0 0 0-.566.396.396 0 0 0-.562 0l-.59.586a3.193 3.193 0 0 0-1.559-.649V1.2a.398.398 0 1 0-.797 0v.828a3.206 3.206 0 0 0-1.562.649l-.586-.586a.4.4 0 0 0-.566.566l.59.586a3.121 3.121 0 0 0-.65 1.559h-.827a.401.401 0 1 0 0 .8zm4-2.801a2.399 2.399 0 0 1 2.4 2.398 2.402 2.402 0 0 1-2.4 2.403 2.406 2.406 0 0 1-2.402-2.403 2.402 2.402 0 0 1 2.403-2.398zm0 0"/>
</svg>
