<svg xmlns="http://www.w3.org/2000/svg" width="32" height="32" viewBox="0 0 24 24">
    <path d="M22.89 17.828c-.35.434-.808.672-1.288.672s-.942-.238-1.29-.672a.402.402 0 0 0-.625.504c.508.625 1.184.969 1.915.969.726 0 1.406-.344 1.91-.969a.405.405 0 0 0-.059-.562.398.398 0 0 0-.562.058zm0 0M16.71 16.29a.398.398 0 0 0-.058-.563.402.402 0 0 0-.562.058c-.352.434-.809.672-1.29.672-.48 0-.94-.238-1.288-.672a.402.402 0 0 0-.563-.058c-.172.14-.199.39-.058.562.504.625 1.183.969 1.91.969.726 0 1.406-.344 1.91-.969zm0 0M12.89 18.207c-.35.434-.808.672-1.288.672s-.942-.238-1.29-.672a.402.402 0 0 0-.625.504c.508.625 1.184.969 1.915.969.726 0 1.406-.344 1.91-.97a.406.406 0 0 0-.059-.562.398.398 0 0 0-.562.059zm0 0M7.29 20.188c-.353.433-.81.671-1.29.671s-.938-.238-1.29-.672a.398.398 0 0 0-.562-.058.398.398 0 0 0-.058.562c.504.625 1.183.97 1.91.97.727 0 1.406-.345 1.91-.97a.398.398 0 0 0-.058-.562.398.398 0 0 0-.563.058zm0 0M8.488 12.988c-.347.434-.808.672-1.289.672-.48 0-.937-.238-1.289-.672a.398.398 0 1 0-.621.5c.504.625 1.184.969 1.91.969.727 0 1.406-.344 1.91-.969a.398.398 0 1 0-.62-.5zm0 0M4.313 16.691a.402.402 0 0 0-.625-.503c-.348.433-.81.671-1.29.671s-.937-.238-1.289-.672a.398.398 0 0 0-.562-.058.402.402 0 0 0-.059.562c.504.625 1.184.97 1.91.97.73 0 1.407-.345 1.914-.97zm0 0M18.89 20.61c-.35.433-.808.671-1.288.671s-.942-.238-1.29-.672a.402.402 0 0 0-.562-.062c-.172.14-.2.39-.063.562.508.625 1.184.97 1.915.97.726 0 1.406-.345 1.91-.97a.406.406 0 0 0-.059-.562.402.402 0 0 0-.562.062zm0 0"/>
    <path d="M20 5.168c0-.402.273-.762.637-.832a.806.806 0 0 1 .965.785 1.2 1.2 0 0 0 1.363 1.188c.57-.075 1.043-.645 1.035-1.239a3.2 3.2 0 0 0-1.078-2.343 3.177 3.177 0 0 0-2.461-.79c-1.606.168-2.86 1.61-2.86 3.278v1.664H12v-1.55c0-.403.273-.763.637-.833a.796.796 0 0 1 .672.168.787.787 0 0 1 .293.617c0 .344.148.676.41.903.258.226.61.332.953.285.57-.078 1.043-.645 1.035-1.239a3.194 3.194 0 0 0-1.078-2.343 3.167 3.167 0 0 0-2.461-.79c-1.606.169-2.86 1.61-2.86 3.278v3.504H0v2.402h9.602v4.797H12v-2.797h5.602v2.797H20v-5.2h4V8.48h-4zM9.602 10.48H.8v-.8h8.8zm9.597 4.801h-.797v-2.8H11.2v2.8h-.797V5.375c0-1.266.938-2.355 2.141-2.48a2.365 2.365 0 0 1 1.848.59c.504.445.8 1.09.808 1.757.004.192-.168.41-.34.434a.417.417 0 0 1-.324-.094.41.41 0 0 1-.137-.3c0-.481-.21-.93-.582-1.239a1.602 1.602 0 0 0-1.332-.332c-.742.144-1.285.824-1.285 1.617V7.68h7.2V5.219c0-1.27.94-2.36 2.144-2.485a2.399 2.399 0 0 1 2.656 2.348c.004.191-.172.414-.344.434a.399.399 0 0 1-.457-.395c0-.48-.21-.93-.582-1.234a1.62 1.62 0 0 0-1.332-.336c-.746.144-1.285.824-1.285 1.617zm4-6v.797H20v-.797zm0 0"/>
    <path d="M11.2 11.68h7.202v-3.2H11.2zM12 9.28h5.602v1.598H12zm0 0"/>
</svg>
