<svg xmlns="http://www.w3.org/2000/svg" width="32" height="32" viewBox="0 0 24 24">
    <path d="M 23.738281 10.160156 C 23.390625 9.601562 22.769531 9.289062 22.121094 9.339844 C 22.164062 8.835938 21.980469 8.335938 21.621094 7.976562 C 21.261719 7.617188 20.761719 7.433594 20.257812 7.472656 C 20.296875 6.972656 20.113281 6.46875 19.753906 6.109375 C 19.398438 5.75 18.898438 5.570312 18.390625 5.609375 C 18.429688 5.105469 18.25 4.601562 17.890625 4.242188 C 17.53125 3.882812 17.023438 3.703125 16.523438 3.742188 C 16.566406 3.238281 16.382812 2.738281 16.023438 2.378906 C 15.664062 2.019531 15.164062 1.835938 14.660156 1.875 C 14.710938 1.234375 14.398438 0.609375 13.839844 0.257812 C 13.285156 -0.0898438 12.566406 -0.0859375 12.011719 0.265625 C 11.457031 0.621094 11.152344 1.230469 11.203125 1.875 C 10.695312 1.832031 10.207031 2.015625 9.839844 2.378906 C 9.476562 2.742188 9.296875 3.234375 9.339844 3.742188 C 8.835938 3.703125 8.332031 3.886719 7.976562 4.246094 C 7.617188 4.601562 7.433594 5.105469 7.472656 5.609375 C 6.972656 5.566406 6.46875 5.753906 6.109375 6.109375 C 5.75 6.46875 5.566406 6.972656 5.605469 7.476562 C 5.105469 7.433594 4.601562 7.617188 4.242188 7.976562 C 3.878906 8.339844 3.699219 8.832031 3.742188 9.339844 C 3.238281 9.304688 2.734375 9.484375 2.378906 9.84375 C 2.019531 10.199219 1.835938 10.703125 1.875 11.207031 C 1.226562 11.152344 0.613281 11.460938 0.257812 12.023438 C -0.0898438 12.578125 -0.0898438 13.289062 0.257812 13.84375 C 0.613281 14.40625 1.226562 14.714844 1.875 14.660156 C 1.835938 15.164062 2.019531 15.667969 2.378906 16.023438 C 2.734375 16.382812 3.238281 16.5625 3.742188 16.527344 C 3.699219 17.03125 3.882812 17.53125 4.242188 17.890625 C 4.601562 18.25 5.105469 18.429688 5.605469 18.390625 C 5.566406 18.894531 5.75 19.398438 6.109375 19.757812 C 6.46875 20.113281 6.96875 20.292969 7.472656 20.257812 C 7.433594 20.761719 7.617188 21.265625 7.976562 21.621094 C 8.332031 21.980469 8.832031 22.164062 9.339844 22.125 C 9.285156 22.769531 9.589844 23.378906 10.144531 23.734375 C 10.425781 23.910156 10.746094 24 11.066406 24 C 11.382812 24 11.699219 23.914062 11.972656 23.742188 C 12.53125 23.390625 12.84375 22.765625 12.792969 22.125 C 13.296875 22.164062 13.796875 21.980469 14.15625 21.621094 C 14.515625 21.265625 14.699219 20.761719 14.660156 20.257812 C 15.164062 20.296875 15.664062 20.117188 16.023438 19.757812 C 16.382812 19.398438 16.566406 18.894531 16.523438 18.390625 C 17.027344 18.429688 17.53125 18.25 17.890625 17.890625 C 18.25 17.53125 18.429688 17.03125 18.390625 16.527344 C 18.894531 16.5625 19.394531 16.382812 19.753906 16.023438 C 20.113281 15.664062 20.296875 15.164062 20.257812 14.660156 C 20.761719 14.699219 21.261719 14.515625 21.621094 14.160156 C 21.980469 13.800781 22.164062 13.296875 22.121094 12.792969 C 22.761719 12.84375 23.390625 12.535156 23.738281 11.976562 C 24.085938 11.421875 24.085938 10.710938 23.738281 10.160156 Z M 23.039062 11.535156 C 22.839844 11.855469 22.488281 12.019531 22.125 11.960938 C 21.890625 11.925781 21.660156 12 21.496094 12.167969 C 21.332031 12.332031 21.253906 12.558594 21.292969 12.792969 C 21.335938 13.082031 21.242188 13.367188 21.035156 13.574219 C 20.832031 13.78125 20.546875 13.871094 20.257812 13.828125 C 20.023438 13.792969 19.796875 13.867188 19.628906 14.03125 C 19.464844 14.199219 19.390625 14.425781 19.425781 14.660156 C 19.46875 14.945312 19.375 15.238281 19.171875 15.441406 C 18.964844 15.644531 18.683594 15.738281 18.390625 15.695312 C 18.15625 15.65625 17.929688 15.734375 17.761719 15.898438 C 17.597656 16.0625 17.523438 16.292969 17.558594 16.527344 C 17.601562 16.808594 17.507812 17.101562 17.304688 17.304688 C 17.101562 17.507812 16.8125 17.605469 16.523438 17.558594 C 16.292969 17.523438 16.0625 17.597656 15.898438 17.761719 C 15.730469 17.929688 15.65625 18.15625 15.691406 18.390625 C 15.738281 18.679688 15.644531 18.964844 15.4375 19.171875 C 15.230469 19.378906 14.945312 19.472656 14.660156 19.425781 C 14.425781 19.390625 14.199219 19.464844 14.03125 19.628906 C 13.867188 19.796875 13.792969 20.023438 13.828125 20.257812 C 13.871094 20.542969 13.777344 20.835938 13.574219 21.039062 C 13.367188 21.242188 13.085938 21.335938 12.792969 21.292969 C 12.558594 21.253906 12.332031 21.332031 12.164062 21.496094 C 12 21.660156 11.925781 21.890625 11.960938 22.125 C 12.015625 22.488281 11.855469 22.839844 11.535156 23.039062 C 11.25 23.21875 10.871094 23.214844 10.589844 23.035156 C 10.277344 22.835938 10.117188 22.488281 10.167969 22.132812 C 10.203125 21.894531 10.128906 21.667969 9.960938 21.5 C 9.824219 21.359375 9.636719 21.285156 9.445312 21.285156 C 9.40625 21.285156 9.371094 21.289062 9.332031 21.292969 C 9.046875 21.332031 8.765625 21.242188 8.558594 21.039062 C 8.355469 20.832031 8.261719 20.550781 8.304688 20.265625 C 8.339844 20.03125 8.261719 19.800781 8.097656 19.636719 C 7.929688 19.46875 7.703125 19.390625 7.464844 19.429688 C 7.179688 19.46875 6.898438 19.378906 6.695312 19.171875 C 6.488281 18.96875 6.394531 18.6875 6.4375 18.398438 C 6.472656 18.164062 6.398438 17.933594 6.230469 17.769531 C 6.066406 17.601562 5.835938 17.527344 5.601562 17.5625 C 5.316406 17.601562 5.03125 17.511719 4.828125 17.308594 C 4.625 17.101562 4.53125 16.820312 4.574219 16.535156 C 4.605469 16.300781 4.53125 16.070312 4.367188 15.902344 C 4.199219 15.738281 3.96875 15.660156 3.734375 15.695312 C 3.449219 15.738281 3.167969 15.644531 2.960938 15.441406 C 2.757812 15.238281 2.664062 14.953125 2.707031 14.667969 C 2.742188 14.433594 2.667969 14.203125 2.5 14.039062 C 2.335938 13.871094 2.105469 13.796875 1.871094 13.832031 C 1.511719 13.882812 1.160156 13.71875 0.960938 13.402344 C 0.785156 13.125 0.785156 12.746094 0.960938 12.464844 C 1.160156 12.152344 1.507812 11.984375 1.867188 12.039062 C 2.101562 12.074219 2.332031 11.996094 2.5 11.832031 C 2.664062 11.664062 2.738281 11.433594 2.707031 11.199219 C 2.664062 10.914062 2.757812 10.632812 2.960938 10.429688 C 3.167969 10.226562 3.449219 10.132812 3.734375 10.171875 C 3.96875 10.207031 4.199219 10.128906 4.363281 9.964844 C 4.53125 9.796875 4.605469 9.566406 4.570312 9.332031 C 4.53125 9.046875 4.625 8.765625 4.828125 8.5625 C 5.03125 8.359375 5.3125 8.265625 5.597656 8.308594 C 5.832031 8.34375 6.0625 8.265625 6.230469 8.101562 C 6.394531 7.933594 6.472656 7.703125 6.4375 7.46875 C 6.394531 7.183594 6.488281 6.902344 6.695312 6.699219 C 6.898438 6.492188 7.179688 6.398438 7.464844 6.441406 C 7.699219 6.476562 7.929688 6.398438 8.09375 6.234375 C 8.261719 6.066406 8.335938 5.835938 8.304688 5.601562 C 8.261719 5.316406 8.355469 5.035156 8.558594 4.832031 C 8.761719 4.628906 9.042969 4.535156 9.328125 4.574219 C 9.566406 4.613281 9.792969 4.535156 9.960938 4.367188 C 10.125 4.203125 10.203125 3.972656 10.167969 3.738281 C 10.128906 3.449219 10.222656 3.171875 10.425781 2.964844 C 10.628906 2.761719 10.910156 2.671875 11.195312 2.710938 C 11.429688 2.746094 11.660156 2.667969 11.824219 2.503906 C 11.992188 2.335938 12.066406 2.105469 12.035156 1.871094 C 11.984375 1.511719 12.144531 1.167969 12.457031 0.96875 C 12.738281 0.789062 13.117188 0.785156 13.398438 0.964844 C 13.71875 1.164062 13.882812 1.515625 13.824219 1.882812 C 13.789062 2.113281 13.867188 2.347656 14.03125 2.507812 C 14.195312 2.675781 14.421875 2.75 14.65625 2.710938 C 14.941406 2.667969 15.234375 2.761719 15.4375 2.964844 C 15.640625 3.171875 15.734375 3.460938 15.691406 3.75 C 15.65625 3.976562 15.734375 4.210938 15.894531 4.375 C 16.0625 4.539062 16.289062 4.613281 16.523438 4.578125 C 16.8125 4.53125 17.097656 4.625 17.304688 4.832031 C 17.511719 5.039062 17.601562 5.324219 17.558594 5.613281 C 17.523438 5.84375 17.597656 6.078125 17.761719 6.242188 C 17.925781 6.402344 18.160156 6.476562 18.386719 6.445312 C 18.675781 6.398438 18.964844 6.496094 19.167969 6.699219 C 19.375 6.902344 19.46875 7.195312 19.421875 7.480469 C 19.386719 7.710938 19.464844 7.945312 19.628906 8.105469 C 19.789062 8.269531 20.027344 8.34375 20.253906 8.308594 C 20.539062 8.265625 20.832031 8.359375 21.035156 8.5625 C 21.238281 8.769531 21.335938 9.058594 21.289062 9.347656 C 21.253906 9.578125 21.328125 9.808594 21.492188 9.972656 C 21.65625 10.136719 21.890625 10.210938 22.121094 10.175781 C 22.484375 10.117188 22.835938 10.28125 23.039062 10.601562 C 23.214844 10.878906 23.214844 11.253906 23.039062 11.535156 Z M 23.039062 11.535156"/>
    <path d="M3.222656 12.726562L3.078125 12.875C2.917969 13.035156 2.917969 13.296875 3.078125 13.457031 3.160156 13.539062 3.265625 13.578125 3.371094 13.578125 3.476562 13.578125 3.582031 13.539062 3.664062 13.457031L3.808594 13.3125C3.96875 13.152344 3.96875 12.890625 3.808594 12.726562 3.648438 12.566406 3.386719 12.566406 3.222656 12.726562zM6.878906 10.242188L7.023438 10.09375C7.1875 9.933594 7.1875 9.671875 7.023438 9.511719 6.863281 9.347656 6.601562 9.347656 6.441406 9.511719L6.292969 9.65625C6.132812 9.820312 6.132812 10.082031 6.292969 10.242188 6.375 10.324219 6.480469 10.363281 6.585938 10.363281 6.691406 10.363281 6.796875 10.324219 6.878906 10.242188zM5.269531 11.851562L5.417969 11.703125C5.578125 11.542969 5.578125 11.28125 5.417969 11.121094 5.253906 10.957031 4.992188 10.957031 4.832031 11.121094L4.6875 11.265625C4.523438 11.425781 4.523438 11.6875 4.6875 11.851562 4.765625 11.929688 4.871094 11.972656 4.976562 11.972656 5.085938 11.972656 5.191406 11.929688 5.269531 11.851562zM8.488281 8.632812L8.632812 8.488281C8.796875 8.324219 8.796875 8.066406 8.632812 7.902344 8.472656 7.742188 8.210938 7.742188 8.050781 7.902344L7.902344 8.050781C7.742188 8.210938 7.742188 8.472656 7.902344 8.632812 7.984375 8.714844 8.089844 8.753906 8.195312 8.753906 8.300781 8.753906 8.40625 8.714844 8.488281 8.632812zM11.410156 5.539062C11.519531 5.539062 11.625 5.496094 11.703125 5.417969L11.851562 5.269531C12.011719 5.109375 12.011719 4.847656 11.851562 4.6875 11.6875 4.523438 11.425781 4.523438 11.265625 4.6875L11.121094 4.832031C10.957031 4.992188 10.957031 5.253906 11.121094 5.417969 11.199219 5.496094 11.304688 5.539062 11.410156 5.539062zM9.804688 7.144531C9.910156 7.144531 10.015625 7.105469 10.09375 7.027344L10.242188 6.878906C10.402344 6.71875 10.402344 6.457031 10.242188 6.296875 10.082031 6.132812 9.820312 6.132812 9.65625 6.292969L9.511719 6.441406C9.347656 6.601562 9.347656 6.863281 9.511719 7.023438 9.589844 7.105469 9.695312 7.144531 9.804688 7.144531zM13.019531 3.929688C13.125 3.929688 13.230469 3.890625 13.3125 3.808594L13.457031 3.664062C13.621094 3.5 13.621094 3.238281 13.457031 3.078125 13.296875 2.917969 13.035156 2.917969 12.875 3.078125L12.726562 3.222656C12.566406 3.386719 12.566406 3.648438 12.726562 3.808594 12.808594 3.890625 12.914062 3.929688 13.019531 3.929688zM5.089844 14.59375L4.945312 14.738281C4.78125 14.902344 4.78125 15.164062 4.945312 15.324219 5.023438 15.40625 5.128906 15.445312 5.234375 15.445312 5.339844 15.445312 5.449219 15.40625 5.527344 15.324219L5.675781 15.179688C5.835938 15.015625 5.835938 14.753906 5.675781 14.59375 5.511719 14.433594 5.25 14.433594 5.089844 14.59375zM7.136719 13.714844L7.285156 13.570312C7.445312 13.410156 7.445312 13.148438 7.285156 12.984375 7.121094 12.824219 6.859375 12.824219 6.699219 12.984375L6.550781 13.132812C6.390625 13.292969 6.390625 13.554688 6.550781 13.714844 6.632812 13.796875 6.738281 13.835938 6.84375 13.835938 6.949219 13.835938 7.054688 13.796875 7.136719 13.714844zM8.746094 12.109375L8.890625 11.960938C9.054688 11.800781 9.054688 11.539062 8.890625 11.375 8.730469 11.214844 8.46875 11.214844 8.308594 11.375L8.160156 11.523438C8 11.683594 8 11.945312 8.160156 12.109375 8.242188 12.1875 8.347656 12.230469 8.453125 12.230469 8.558594 12.230469 8.664062 12.1875 8.746094 12.109375zM13.570312 7.285156L13.714844 7.136719C13.878906 6.976562 13.878906 6.714844 13.714844 6.550781 13.554688 6.390625 13.292969 6.390625 13.132812 6.550781L12.984375 6.699219C12.824219 6.859375 12.824219 7.121094 12.984375 7.285156 13.066406 7.363281 13.171875 7.40625 13.277344 7.40625 13.382812 7.40625 13.488281 7.363281 13.570312 7.285156zM11.523438 8.160156L11.375 8.308594C11.214844 8.46875 11.214844 8.730469 11.375 8.890625 11.457031 8.972656 11.5625 9.011719 11.667969 9.011719 11.773438 9.011719 11.878906 8.972656 11.960938 8.890625L12.109375 8.746094C12.269531 8.582031 12.269531 8.324219 12.109375 8.160156 11.945312 8 11.683594 8 11.523438 8.160156zM10.351562 10.5L10.5 10.351562C10.660156 10.191406 10.660156 9.929688 10.5 9.769531 10.339844 9.605469 10.078125 9.605469 9.914062 9.769531L9.769531 9.914062C9.605469 10.078125 9.605469 10.339844 9.769531 10.5 9.847656 10.582031 9.957031 10.621094 10.0625 10.621094 10.167969 10.621094 10.273438 10.582031 10.351562 10.5zM15.179688 5.675781L15.324219 5.527344C15.484375 5.367188 15.484375 5.105469 15.324219 4.945312 15.164062 4.78125 14.902344 4.78125 14.738281 4.945312L14.59375 5.089844C14.433594 5.253906 14.433594 5.511719 14.59375 5.675781 14.675781 5.753906 14.78125 5.796875 14.886719 5.796875 14.992188 5.796875 15.097656 5.753906 15.179688 5.675781zM6.957031 16.460938L6.808594 16.605469C6.648438 16.765625 6.648438 17.027344 6.808594 17.191406 6.890625 17.269531 6.996094 17.3125 7.101562 17.3125 7.207031 17.3125 7.3125 17.269531 7.394531 17.191406L7.539062 17.042969C7.703125 16.882812 7.703125 16.621094 7.539062 16.460938 7.378906 16.296875 7.117188 16.296875 6.957031 16.460938zM10.609375 13.972656L10.757812 13.828125C10.917969 13.664062 10.917969 13.40625 10.757812 13.242188 10.59375 13.082031 10.335938 13.082031 10.171875 13.242188L10.027344 13.390625C9.863281 13.550781 9.863281 13.8125 10.027344 13.972656 10.105469 14.054688 10.210938 14.09375 10.320312 14.09375 10.425781 14.09375 10.53125 14.054688 10.609375 13.972656zM9.003906 15.582031L9.148438 15.433594C9.308594 15.273438 9.308594 15.011719 9.148438 14.851562 8.988281 14.6875 8.726562 14.6875 8.5625 14.851562L8.417969 14.996094C8.257812 15.160156 8.257812 15.421875 8.417969 15.582031 8.5 15.664062 8.605469 15.703125 8.710938 15.703125 8.816406 15.703125 8.921875 15.664062 9.003906 15.582031zM13.828125 10.757812L13.972656 10.609375C14.136719 10.449219 14.136719 10.1875 13.972656 10.027344 13.8125 9.863281 13.550781 9.863281 13.390625 10.027344L13.242188 10.171875C13.082031 10.335938 13.082031 10.59375 13.242188 10.757812 13.324219 10.835938 13.429688 10.878906 13.535156 10.878906 13.640625 10.878906 13.746094 10.839844 13.828125 10.757812zM12.21875 12.367188L12.363281 12.21875C12.527344 12.058594 12.527344 11.796875 12.363281 11.632812 12.203125 11.472656 11.941406 11.472656 11.78125 11.632812L11.632812 11.78125C11.472656 11.941406 11.472656 12.203125 11.632812 12.367188 11.714844 12.445312 11.820312 12.488281 11.925781 12.488281 12.03125 12.488281 12.136719 12.445312 12.21875 12.367188zM15.433594 9.148438L15.582031 9.003906C15.742188 8.839844 15.742188 8.578125 15.582031 8.417969 15.421875 8.257812 15.160156 8.257812 14.996094 8.417969L14.851562 8.566406C14.6875 8.726562 14.6875 8.988281 14.851562 9.148438 14.929688 9.230469 15.039062 9.269531 15.144531 9.269531 15.25 9.269531 15.355469 9.230469 15.433594 9.148438zM17.042969 7.539062L17.191406 7.394531C17.351562 7.230469 17.351562 6.972656 17.191406 6.808594 17.027344 6.648438 16.765625 6.648438 16.605469 6.808594L16.460938 6.957031C16.296875 7.117188 16.296875 7.378906 16.460938 7.539062 16.539062 7.621094 16.644531 7.660156 16.75 7.660156 16.855469 7.660156 16.964844 7.621094 17.042969 7.539062zM8.820312 18.324219L8.675781 18.472656C8.515625 18.632812 8.515625 18.894531 8.675781 19.054688 8.757812 19.136719 8.863281 19.175781 8.96875 19.175781 9.074219 19.175781 9.179688 19.136719 9.261719 19.054688L9.40625 18.910156C9.566406 18.75 9.566406 18.488281 9.40625 18.324219 9.246094 18.164062 8.984375 18.164062 8.820312 18.324219zM12.476562 15.839844L12.621094 15.691406C12.785156 15.53125 12.785156 15.269531 12.621094 15.109375 12.460938 14.945312 12.199219 14.945312 12.039062 15.109375L11.890625 15.253906C11.730469 15.417969 11.730469 15.679688 11.890625 15.839844 11.972656 15.921875 12.078125 15.960938 12.183594 15.960938 12.289062 15.960938 12.394531 15.921875 12.476562 15.839844zM10.867188 17.449219L11.015625 17.300781C11.175781 17.140625 11.175781 16.878906 11.015625 16.71875 10.851562 16.554688 10.589844 16.554688 10.429688 16.71875L10.285156 16.863281C10.121094 17.023438 10.121094 17.285156 10.285156 17.449219 10.363281 17.527344 10.46875 17.570312 10.574219 17.570312 10.683594 17.570312 10.789062 17.527344 10.867188 17.449219zM17.300781 11.015625L17.449219 10.867188C17.609375 10.707031 17.609375 10.445312 17.449219 10.285156 17.285156 10.121094 17.023438 10.121094 16.863281 10.285156L16.714844 10.429688C16.554688 10.589844 16.554688 10.851562 16.714844 11.015625 16.796875 11.09375 16.902344 11.136719 17.007812 11.136719 17.113281 11.136719 17.21875 11.09375 17.300781 11.015625zM15.695312 12.621094L15.839844 12.476562C16 12.316406 16 12.054688 15.839844 11.890625 15.675781 11.730469 15.417969 11.730469 15.253906 11.890625L15.109375 12.039062C14.945312 12.199219 14.945312 12.460938 15.109375 12.625 15.191406 12.703125 15.296875 12.742188 15.402344 12.742188 15.507812 12.742188 15.613281 12.703125 15.695312 12.621094zM14.085938 14.230469L14.230469 14.085938C14.394531 13.921875 14.394531 13.660156 14.230469 13.5 14.070312 13.339844 13.808594 13.339844 13.648438 13.5L13.5 13.648438C13.339844 13.808594 13.339844 14.070312 13.5 14.230469 13.582031 14.3125 13.6875 14.351562 13.792969 14.351562 13.898438 14.351562 14.003906 14.3125 14.085938 14.230469zM18.910156 9.40625L19.054688 9.261719C19.21875 9.097656 19.21875 8.835938 19.054688 8.675781 18.894531 8.515625 18.632812 8.515625 18.472656 8.675781L18.324219 8.820312C18.164062 8.984375 18.164062 9.246094 18.324219 9.40625 18.40625 9.488281 18.511719 9.527344 18.617188 9.527344 18.722656 9.527344 18.828125 9.488281 18.910156 9.40625zM10.6875 20.191406L10.542969 20.335938C10.378906 20.5 10.378906 20.761719 10.542969 20.921875 10.621094 21.003906 10.726562 21.042969 10.832031 21.042969 10.9375 21.042969 11.046875 21.003906 11.125 20.921875L11.273438 20.777344C11.433594 20.613281 11.433594 20.351562 11.273438 20.191406 11.109375 20.03125 10.847656 20.03125 10.6875 20.191406zM12.296875 18.582031L12.148438 18.730469C11.988281 18.890625 11.988281 19.152344 12.148438 19.3125 12.230469 19.394531 12.335938 19.433594 12.441406 19.433594 12.546875 19.433594 12.652344 19.394531 12.734375 19.3125L12.878906 19.167969C13.042969 19.007812 13.042969 18.746094 12.878906 18.582031 12.71875 18.421875 12.457031 18.421875 12.296875 18.582031zM13.90625 16.976562L13.757812 17.121094C13.597656 17.28125 13.597656 17.542969 13.757812 17.707031 13.839844 17.785156 13.945312 17.828125 14.050781 17.828125 14.15625 17.828125 14.261719 17.785156 14.34375 17.707031L14.488281 17.558594C14.652344 17.398438 14.652344 17.136719 14.488281 16.976562 14.328125 16.8125 14.066406 16.8125 13.90625 16.976562zM15.511719 15.367188L15.367188 15.511719C15.203125 15.675781 15.203125 15.933594 15.367188 16.097656 15.445312 16.179688 15.550781 16.21875 15.65625 16.21875 15.765625 16.21875 15.871094 16.179688 15.949219 16.097656L16.097656 15.949219C16.257812 15.789062 16.257812 15.527344 16.097656 15.367188 15.933594 15.203125 15.675781 15.203125 15.511719 15.367188zM18.730469 12.148438L18.582031 12.296875C18.421875 12.457031 18.421875 12.71875 18.582031 12.878906 18.664062 12.960938 18.769531 13.003906 18.875 13.003906 18.980469 13.003906 19.085938 12.960938 19.167969 12.878906L19.3125 12.734375C19.476562 12.574219 19.476562 12.3125 19.3125 12.148438 19.152344 11.988281 18.890625 11.988281 18.730469 12.148438zM17.121094 13.757812L16.976562 13.902344C16.8125 14.066406 16.8125 14.328125 16.972656 14.488281 17.054688 14.570312 17.160156 14.609375 17.265625 14.609375 17.371094 14.609375 17.476562 14.570312 17.558594 14.488281L17.703125 14.34375C17.867188 14.183594 17.867188 13.921875 17.707031 13.757812 17.542969 13.597656 17.28125 13.597656 17.121094 13.757812zM20.335938 10.542969L20.191406 10.6875C20.03125 10.851562 20.03125 11.109375 20.191406 11.273438 20.273438 11.351562 20.378906 11.394531 20.484375 11.394531 20.589844 11.394531 20.695312 11.351562 20.777344 11.273438L20.921875 11.125C21.082031 10.964844 21.082031 10.703125 20.921875 10.542969 20.761719 10.378906 20.5 10.378906 20.335938 10.542969zM20.335938 10.542969"/>
</svg>
