<svg xmlns="http://www.w3.org/2000/svg" width="32" height="32" viewBox="0 0 24 24">
    <path d="M 23.996094 12.898438 L 23.90625 12.035156 L 23.90625 11.175781 C 23.90625 10.910156 23.828125 10.699219 23.671875 10.542969 C 23.410156 10.28125 23.042969 10.28125 22.691406 10.289062 L 12.066406 10.289062 L 2.855469 0.859375 C 2.347656 0.355469 1.613281 0.289062 1.144531 0.691406 L 1.03125 0.746094 L 0.976562 0.796875 C 0.488281 1.285156 0.488281 2.277344 0.972656 2.761719 L 8.320312 10.289062 L 1.214844 10.289062 C 0.863281 10.289062 0.496094 10.28125 0.234375 10.542969 C 0.078125 10.699219 0 10.910156 0 11.175781 L 0 12.058594 C 0 12.074219 0.00390625 12.089844 0.00390625 12.105469 L 0.0117188 12.203125 C 0.015625 12.253906 0.0195312 12.300781 0.0273438 12.355469 L 0.09375 12.976562 C 0.113281 18.71875 5.46875 23.570312 12.046875 23.570312 C 18.636719 23.570312 24 18.699219 24 12.945312 Z M 22.699219 11.175781 C 22.800781 11.175781 22.9375 11.171875 23.023438 11.183594 L 23.023438 12.058594 C 23.023438 12.421875 22.722656 12.925781 22.578125 12.945312 L 19.480469 12.945312 L 19.480469 11.175781 Z M 15.71875 12.039062 C 14.863281 12.039062 14.167969 12.730469 14.167969 13.582031 L 14.167969 14.679688 C 14.167969 15.039062 13.871094 15.332031 13.503906 15.332031 C 13.136719 15.332031 12.839844 15.039062 12.839844 14.679688 L 12.839844 11.171875 L 18.59375 11.171875 L 18.59375 17.242188 C 18.59375 17.601562 18.296875 17.894531 17.929688 17.894531 C 17.566406 17.894531 17.265625 17.601562 17.265625 17.242188 L 17.265625 13.582031 C 17.265625 12.730469 16.570312 12.039062 15.71875 12.039062 Z M 1.601562 2.140625 C 1.472656 2.007812 1.460938 1.644531 1.566406 1.46875 L 1.652344 1.429688 L 1.707031 1.375 C 1.828125 1.253906 2.074219 1.332031 2.222656 1.484375 L 10.824219 10.289062 L 9.558594 10.289062 Z M 1.207031 11.171875 L 11.953125 11.171875 L 11.953125 12.945312 L 1.328125 12.945312 C 1.207031 12.929688 0.972656 12.5625 0.90625 12.230469 L 0.886719 12.035156 L 0.886719 11.183594 C 0.96875 11.171875 1.109375 11.171875 1.207031 11.171875 Z M 12.046875 22.683594 C 6.261719 22.683594 1.503906 18.710938 1.019531 13.773438 C 1.117188 13.808594 1.21875 13.828125 1.328125 13.828125 L 11.953125 13.828125 L 11.953125 14.679688 C 11.953125 15.527344 12.648438 16.21875 13.503906 16.21875 C 14.359375 16.21875 15.054688 15.527344 15.054688 14.679688 L 15.054688 13.582031 C 15.054688 13.222656 15.351562 12.925781 15.71875 12.925781 C 16.082031 12.925781 16.382812 13.222656 16.382812 13.582031 L 16.382812 17.242188 C 16.382812 18.089844 17.074219 18.78125 17.929688 18.78125 C 18.785156 18.78125 19.480469 18.089844 19.480469 17.242188 L 19.480469 13.832031 L 22.578125 13.832031 C 22.761719 13.832031 22.929688 13.769531 23.078125 13.675781 C 22.648438 18.65625 17.867188 22.683594 12.046875 22.683594 Z M 12.046875 22.683594"/>
    <path d="M11.675781 21.015625C9.265625 20.769531 7.058594 19.816406 5.464844 18.335938 5.285156 18.171875 5.007812 18.179688 4.839844 18.359375 4.671875 18.539062 4.683594 18.816406 4.863281 18.984375 6.597656 20.59375 8.984375 21.628906 11.585938 21.894531 11.601562 21.898438 11.613281 21.898438 11.628906 21.898438 11.855469 21.898438 12.046875 21.730469 12.070312 21.5 12.09375 21.257812 11.917969 21.039062 11.675781 21.015625zM3.613281 16.476562C3.464844 16.28125 3.1875 16.238281 2.992188 16.386719 2.796875 16.53125 2.757812 16.808594 2.902344 17.003906 3.0625 17.214844 3.238281 17.410156 3.429688 17.582031 3.515625 17.65625 3.621094 17.695312 3.726562 17.695312 3.847656 17.695312 3.96875 17.644531 4.054688 17.550781 4.21875 17.367188 4.203125 17.085938 4.023438 16.925781 3.871094 16.789062 3.734375 16.636719 3.613281 16.476562zM3.613281 16.476562"/>
</svg>
