<svg xmlns="http://www.w3.org/2000/svg" width="32" height="32" viewBox="0 0 24 24">
    <path d="M7.832 18.117a.417.417 0 0 0-.586 0 .936.936 0 0 1-1.32 0 1.773 1.773 0 0 0-2.5 0 .422.422 0 0 0 0 .59c.164.16.426.16.59 0a.936.936 0 0 1 1.32 0c.344.344.797.516 1.25.516.45 0 .902-.172 1.246-.516a.415.415 0 0 0 0-.59zm0 0M6.559 16.16a.963.963 0 0 1 1.324 0c.344.344.793.516 1.246.516.453 0 .906-.172 1.25-.516a.415.415 0 1 0-.59-.586.936.936 0 0 1-1.32 0 1.743 1.743 0 0 0-1.246-.52c-.473 0-.918.184-1.25.52a.41.41 0 0 0 0 .586.41.41 0 0 0 .586 0zm0 0M9.105 13.617a.936.936 0 0 1 1.32 0c.345.344.798.516 1.25.516.454 0 .903-.172 1.247-.516a.415.415 0 1 0-.586-.59.936.936 0 0 1-1.32 0 1.768 1.768 0 0 0-2.496 0 .415.415 0 1 0 .585.59zm0 0M11.652 11.07a.936.936 0 0 1 1.32 0 1.76 1.76 0 0 0 1.247.516c.453 0 .906-.172 1.25-.516a.415.415 0 1 0-.59-.586.936.936 0 0 1-1.32 0 1.761 1.761 0 0 0-2.496 0 .41.41 0 0 0 0 .586.415.415 0 0 0 .59 0zm0 0M14.195 8.527a.929.929 0 0 1 1.32 0 1.765 1.765 0 0 0 2.497 0 .415.415 0 0 0 0-.59.41.41 0 0 0-.586 0 .954.954 0 0 1-1.32 0 1.768 1.768 0 0 0-2.497 0 .415.415 0 1 0 .586.59zm0 0M10.34 5.074a.773.773 0 0 1 1.098 0 1.6 1.6 0 0 0 1.136.469c.41 0 .82-.156 1.133-.469a.415.415 0 0 0 0-.59.41.41 0 0 0-.586 0 .78.78 0 0 1-1.098 0 1.608 1.608 0 0 0-2.27 0 .415.415 0 1 0 .587.59zm0 0M7.84 8.066c.312.313.723.47 1.133.47a1.6 1.6 0 0 0 1.136-.47.41.41 0 0 0 0-.586.41.41 0 0 0-.586 0 .78.78 0 0 1-1.097 0 1.606 1.606 0 0 0-2.274 0 .415.415 0 1 0 .59.586c.301-.3.793-.3 1.098 0zm0 0M14.016 18.723c-.301.3-.793.3-1.094 0a1.606 1.606 0 0 0-2.274 0 .41.41 0 0 0 0 .586.41.41 0 0 0 .586 0 .78.78 0 0 1 1.098 0 1.603 1.603 0 0 0 2.273 0 .415.415 0 1 0-.59-.586zm0 0M16.742 5.98a.705.705 0 0 1 1 0c.293.293.68.454 1.09.454.41 0 .797-.16 1.09-.454a.41.41 0 0 0 0-.585.415.415 0 0 0-.59 0 .727.727 0 0 1-1 0 1.542 1.542 0 0 0-2.18 0 .41.41 0 0 0 0 .585.415.415 0 0 0 .59 0zm0 0"/>
    <path d="M23.766 8.723c-.145-.657-.598-1.168-1.34-1.52-.367-.3-.946-.219-1.836.27.32-.528.625-1.059.906-1.594.422-.8.563-2.082.012-2.977-.262-.425-.797-.925-1.801-.91-1.07.02-2.266.692-3.398 1.496.043-.078.09-.156.128-.238.352-.664.465-1.734.008-2.48-.316-.508-.863-.766-1.523-.77-1.332.023-2.883 1.258-4.129 2.25-.32.258-.625.5-.879.68-2.293 1.64-4.43 3.742-6.18 6.078-.187.25-.453.562-.765.93-1.313 1.542-3.11 3.656-2.735 5.34.145.656.598 1.167 1.34 1.519a.82.82 0 0 0 .535.18c.243 0 .54-.082.895-.243-.969 1.375-1.688 2.832-1.41 4.078.176.786.718 1.395 1.62 1.825.126.097.321.195.614.195h.016c.781-.012 2.125-.8 3.64-1.914-.285.668-.351 1.621.07 2.309.31.5.833.773 1.481.773h.043c1.332-.023 2.883-1.258 4.129-2.25.32-.258.625-.5.879-.68 2.293-1.64 4.43-3.742 6.18-6.078.187-.25.453-.566.765-.93 1.313-1.542 3.11-3.656 2.735-5.34zm-19.27 6.105c-1.957 1.43-2.402 1.313-2.394 1.324l-.055-.05-.067-.032c-.539-.246-.843-.562-.933-.972-.23-1.028.832-2.532 1.844-3.774-.012.121.02.25.113.344.164.16.426.16.59 0a.787.787 0 0 1 1.094 0 1.613 1.613 0 0 0 2.273 0 .422.422 0 0 0 0-.59.415.415 0 0 0-.59 0c-.3.3-.793.305-1.094 0-.527-.527-1.39-.594-2.007-.207.113-.137.226-.27.335-.394.317-.375.594-.7.797-.973 1.7-2.266 3.77-4.309 5.996-5.899.27-.19.582-.44.915-.703 1.085-.867 2.574-2.05 3.624-2.07h.032c.36 0 .613.121.77.375.277.453.198 1.215-.036 1.656a23.74 23.74 0 0 1-1.187 2.004 4.69 4.69 0 0 0-.21.168c-.048.04-.099.074-.146.113-.039.032-.078.063-.117.09-.066.051-.125.098-.188.145-.02.015-.043.035-.062.047-.082.062-.164.12-.238.175-2.836 2.028-5.477 4.625-7.637 7.512-.164.219-.375.473-.613.758l-.34.398c-.137.165-.281.332-.426.504-.016.02-.027.036-.043.051zm-.758 7.16l-.054-.05-.067-.032c-.695-.32-1.094-.734-1.21-1.273-.329-1.469 1.359-3.64 2.734-5.278.14-.168.277-.328.41-.484a.68.68 0 0 1 .047-.055c.394-.464.734-.863.984-1.199A36.221 36.221 0 0 1 8.25 11.56a34.056 34.056 0 0 1 5.79-5.274c.077-.058.163-.12.25-.183l.093-.075c.055-.043.11-.082.164-.125.047-.039.098-.074.144-.113.047-.039.098-.078.149-.117l.105-.082c.047-.04.09-.074.137-.11l.004-.003c.027-.02.055-.043.082-.067 1.36-1.078 3.219-2.562 4.555-2.586.52-.011.859.16 1.078.516.363.59.262 1.578-.04 2.152a30.954 30.954 0 0 1-2.042 3.324h-.004c-.246.352-.504.704-.77 1.051 0 .004-.004.008-.008.012-.25.328-.511.656-.777.98-.02.028-.039.051-.058.079a39.238 39.238 0 0 1-1.762 1.988c-.031.031-.074.078-.13.133l-.015.015a104.092 104.092 0 0 1-3.973 3.688 82.054 82.054 0 0 1-2.585 2.203l-.055.043c-4.102 3.324-4.805 3-4.844 2.98zm17.7-9.73a.41.41 0 0 0-.672-.129.795.795 0 0 1-1.098 0c-.605-.61-1.664-.61-2.27 0a.41.41 0 0 0 0 .586.41.41 0 0 0 .586 0 .795.795 0 0 1 1.098 0 1.587 1.587 0 0 0 1.684.37c-.125.153-.25.302-.371.438-.317.375-.594.7-.797.973-1.7 2.266-3.774 4.309-5.996 5.899-.27.19-.582.44-.915.703-1.085.867-2.574 2.05-3.624 2.07-.391.012-.641-.117-.801-.375-.278-.453-.2-1.215.035-1.656.25-.477.539-.973.906-1.555a80.778 80.778 0 0 0 2.656-2.27 34.26 34.26 0 0 0 1.91-1.644c.012.016.016.031.028.043a.415.415 0 0 0 .59 0c.3-.3.793-.305 1.093 0 .305.305.707.473 1.137.473.43 0 .832-.168 1.137-.473a.422.422 0 0 0 0-.59.422.422 0 0 0-.59 0 .79.79 0 0 1-1.094 0 1.612 1.612 0 0 0-1.265-.457c.265-.266.53-.539.789-.812.164-.165.285-.286.347-.352.313-.328.614-.656.907-.988.047-.051.09-.106.132-.157.258-.293.512-.59.758-.886l.07-.086c.27-.328.532-.66.786-.992v-.004c.273-.356.535-.715.789-1.078l.12-.137c1.817-1.328 2.333-1.317 2.411-1.309l.106.07c.539.243.843.56.933.97.207.913-.617 2.206-1.515 3.355zm0 0"/>
</svg>
