<svg xmlns="http://www.w3.org/2000/svg" width="32" height="32" viewBox="0 0 24 24">
    <path d="M22.293 1.266L21.027 0 14.04 6.988l-.578.582L1.273 19.754c-.898.898-1.015 2.308-.27 3.281a2.461 2.461 0 0 0 3.34.535c.208-.14.387-.238.56-.308.902-.356.855-1.067.745-1.457-.054-.2-.046-.367.024-.434.07-.07.234-.078.437-.023.496.136.946.05 1.235-.235.285-.289.37-.738.234-1.234-.058-.2-.047-.367.024-.438.066-.07.234-.078.433-.023.5.137.95.055 1.235-.234.289-.286.375-.739.234-1.235-.055-.199-.047-.367.023-.437.07-.067.239-.078.438-.024.496.14.95.055 1.234-.234.285-.285.371-.734.235-1.234-.055-.2-.047-.364.023-.434s.238-.078.434-.024c.5.137.949.051 1.238-.234.285-.289.371-.738.23-1.234-.054-.2-.043-.367.024-.438.07-.07.238-.078.437-.023.5.14.95.055 1.235-.235.289-.285.37-.734.234-1.234-.055-.2-.047-.367.024-.434.07-.07.238-.082.437-.023.398.11.758.078 1.04-.086a.976.976 0 0 0 .456-.629c.098-.394-.039-.84-.355-1.156l-.786-.785c.29-.2.758-.489 1.438-.781C18.891 7.7 20.051 6.926 21 5.969a7.22 7.22 0 0 0 1.098-1.387l.027-.05c.016-.032.172-.321.777-.2l.278.055.148-.239c.07-.117.664-1.183-1.035-2.882zM16.449 10.8c-.02.074-.05.101-.078.117-.082.047-.234.047-.406 0-.496-.14-.945-.055-1.235.234-.285.286-.37.735-.234 1.235.055.199.047.363-.023.433s-.235.078-.434.024c-.5-.137-.95-.051-1.234.234-.29.29-.375.738-.235 1.235.055.199.043.367-.023.437-.07.07-.238.078-.438.023-.5-.14-.949-.05-1.234.235-.29.285-.371.738-.234 1.234.054.2.046.367-.024.434-.07.074-.238.082-.437.027-.496-.14-.946-.055-1.235.23-.285.29-.37.739-.234 1.239.059.195.047.363-.024.433-.066.07-.234.079-.433.024-.496-.137-.95-.05-1.234.234-.29.285-.375.739-.235 1.235.055.199.047.367-.023.437s-.239.078-.438.024c-.496-.141-.945-.055-1.234.234-.285.285-.371.734-.235 1.234.079.274.028.36-.253.473a3.719 3.719 0 0 0-.723.395 1.636 1.636 0 0 1-2.227-.36c-.496-.644-.41-1.59.2-2.2L14.039 8.153l2.27 2.266c.113.113.168.266.14.383zm6.18-7.317c-.73 0-1.121.418-1.25.704a6.59 6.59 0 0 1-.965 1.207c-.871.878-1.945 1.593-3.191 2.12-.832.356-1.391.715-1.707.95l-.895-.895 6.406-6.41.688.684c.797.797.941 1.351.95 1.64h-.036zm0 0"/>
    <path d="M16.96 6.844a.511.511 0 1 1-1.025.002.511.511 0 0 1 1.026-.002zm0 0M21.3 2.988a.511.511 0 1 1-1.021.002.511.511 0 0 1 1.022-.002zm0 0"/>
</svg>
