<svg xmlns="http://www.w3.org/2000/svg" width="32" height="32" viewBox="0 0 24 24">
    <path d="M9.848 6.582a.412.412 0 0 0 .531-.234.408.408 0 0 0-.234-.528 1.185 1.185 0 0 1 .863-2.207c.21.078.449-.023.531-.234a.407.407 0 0 0-.234-.527 2.003 2.003 0 0 0-1.457 3.73zm0 0M21.758 7.867a.411.411 0 0 0-.211.54c.129.288.133.613.02.905-.118.297-.34.528-.63.657-.289.125-.613.133-.906.02a1.179 1.179 0 0 1-.656-.63.41.41 0 0 0-.75.329c.215.488.61.863 1.105 1.058.239.094.485.14.73.14a2 2 0 0 0 .806-.171c.488-.211.867-.606 1.062-1.106.192-.496.18-1.039-.031-1.53a.411.411 0 0 0-.54-.212zm0 0M16.05 6.734a.413.413 0 0 0-.155.559c.156.273.195.594.113.898a1.184 1.184 0 0 1-.563.715 1.164 1.164 0 0 1-.898.11 1.164 1.164 0 0 1-.715-.559.408.408 0 0 0-.559-.152.404.404 0 0 0-.152.554 2.001 2.001 0 0 0 1.746 1.02c.332 0 .672-.086.98-.262.47-.262.801-.691.946-1.207a1.968 1.968 0 0 0-.188-1.52.406.406 0 0 0-.554-.156zm0 0M12.563 7.473a2.008 2.008 0 0 0 2.676-.93.41.41 0 0 0-.188-.547.41.41 0 0 0-.547.191 1.194 1.194 0 0 1-1.586.551 1.194 1.194 0 0 1-.55-1.586.407.407 0 1 0-.735-.355 2.008 2.008 0 0 0 .93 2.676zm0 0M9.527 9.797c.254.113.528.168.801.168a1.993 1.993 0 0 0 1.836-1.2.41.41 0 0 0-.75-.327 1.184 1.184 0 1 1-2.172-.95.41.41 0 0 0-.75-.328 2.006 2.006 0 0 0 1.035 2.637zm0 0M14.68 5.496c.062.008.129.012.191.012.465 0 .91-.16 1.274-.461.851-.7.972-1.965.27-2.817a.405.405 0 0 0-.575-.054.405.405 0 0 0-.055.574 1.188 1.188 0 0 1-1.031 1.934 1.183 1.183 0 0 1-.8-.426.408.408 0 0 0-.63.52c.34.413.82.667 1.356.718zm0 0M6.305 9.188a.404.404 0 0 0-.227-.532.408.408 0 0 0-.531.223 1.185 1.185 0 0 1-2.195-.89.41.41 0 0 0-.227-.532.406.406 0 0 0-.531.223 2.002 2.002 0 1 0 3.71 1.508zm0 0"/>
    <path d="M23.398 8.02a2.105 2.105 0 0 0-.535-2.157 2.167 2.167 0 0 0-1.547-.625 1.852 1.852 0 0 0-.445-.68 1.939 1.939 0 0 0-1.933-.46c0-.04.007-.07.007-.11 0-1.59-1.316-2.886-2.933-2.886a2.9 2.9 0 0 0-.899.14A2.485 2.485 0 0 0 13.328.48c-.754 0-1.457.34-1.918.91a2.76 2.76 0 0 0-1.238-.288c-1.527 0-2.774 1.226-2.774 2.734v.016c-.43.203-.785.507-1.054.878a2.177 2.177 0 0 0-2.258.45 2.197 2.197 0 0 0-2.191.52c-.41.405-.637.956-.637 1.519a1.879 1.879 0 0 0-.688.437c-.367.36-.57.84-.57 1.352 0 .508.203.988.57 1.351.211.207.461.36.739.45a2.24 2.24 0 0 0 .671 1.586c.426.418.993.648 1.583.656.03.394.203.77.492 1.054.332.325.765.489 1.199.489.164 0 .324-.031.484-.078 1.68.046 3.965 3.742 4.266 8.054.039.532.488.95 1.023.95h2.04c.523 0 .96-.391 1.019-.91l.031-.29c.559-5.183 1.727-7.847 3.465-7.925.344.183.719.285 1.098.285.582 0 1.168-.22 1.613-.653.152-.152.281-.32.387-.507.504-.004.996-.2 1.355-.555.399-.39.602-.93.567-1.473.28-.105.543-.27.761-.484.41-.403.637-.942.637-1.512 0-.555-.21-1.078-.602-1.476zM7.957 4.504a.407.407 0 0 0 .273-.438 2.208 2.208 0 0 1-.015-.23c0-1.059.879-1.918 1.957-1.918.406 0 .797.121 1.129.352.094.066.21.085.324.062a.416.416 0 0 0 .266-.2 1.658 1.658 0 0 1 2.77-.168.413.413 0 0 0 .491.134c.274-.121.563-.18.86-.18 1.168 0 2.117.93 2.117 2.07 0 .282-.063.555-.176.813v.004l-.031.074-.004.004c-.008.015-.008.035-.012.05-.011.032-.027.067-.027.102 0 .008.004.016.004.027 0 .04 0 .083.015.125.004.012.012.024.016.036a.48.48 0 0 0 .055.097.39.39 0 0 0 .12.102.66.66 0 0 1 .356.582c0 .246-.14.473-.367.594a.405.405 0 0 0-.207.257.415.415 0 0 0 .055.325c.133.207.203.441.203.687 0 .52-.317.988-.809 1.192a.406.406 0 0 0-.222.523c.054.148.082.3.082.453 0 .715-.594 1.297-1.325 1.297-.078 0-.152-.008-.226-.02-.016-.003-.031-.007-.043-.011a.873.873 0 0 1-.219-.063 1.322 1.322 0 0 1-.66-.55.402.402 0 0 0-.344-.2.389.389 0 0 0-.347.188c-.223.34-.536.601-.891.765-.055.028-.11.051-.16.07-.027.009-.055.016-.082.024a1.032 1.032 0 0 1-.262.067c-.047.011-.094.02-.14.027-.079.008-.16.012-.243.012-.058.004-.12-.004-.18-.008-.019 0-.042 0-.062-.004a3.513 3.513 0 0 1-.2-.031c-.01-.004-.023-.004-.038-.008a2.124 2.124 0 0 1-.211-.059l-.02-.008c-.074-.027-.152-.054-.222-.093a2.07 2.07 0 0 1-.805-.664.411.411 0 0 0-.273-.164c-.02-.004-.04-.004-.059-.004a.417.417 0 0 0-.25.082 1.45 1.45 0 0 1-.336.195c-.004.004-.008.004-.008.004-.11.047-.215.082-.324.105-.004 0-.008 0-.012.004-.11.024-.218.035-.328.035-.906 0-1.64-.722-1.64-1.605 0-.34.105-.668.312-.945.066-.09.094-.2.074-.313a.419.419 0 0 0-.172-.27 1.9 1.9 0 0 1-.847-1.574c0-.093.008-.187.023-.277l.012-.066c.012-.07.027-.137.05-.203.008-.024.012-.047.02-.07.028-.075.055-.145.09-.212.008-.011.012-.027.02-.039a1.94 1.94 0 0 1 1.105-.945zm5.828 7.508c.211-.13.402-.282.574-.465.172.168.375.297.59.394.012.016.024.032.04.047.07.067.14.125.218.18a12.022 12.022 0 0 0-1.332 1.95c.027-.786-.02-1.5-.09-2.106zm-2.648 4.3a12.308 12.308 0 0 0-2.219-3.433c.129-.059.25-.137.355-.238.227-.223.352-.524.36-.829.094-.05.187-.12.281-.187.059-.027.117-.05.172-.082.203.215.434.395.687.535.329 1.274.383 2.93.364 4.235zm-6.512-2.789a.83.83 0 0 1-.223-.82.421.421 0 0 0-.101-.39.42.42 0 0 0-.297-.126.325.325 0 0 0-.086.012c-.5.11-1.008-.035-1.367-.386a1.42 1.42 0 0 1-.406-1.25.412.412 0 0 0-.075-.317.43.43 0 0 0-.277-.16 1.104 1.104 0 0 1-.652-.313 1.07 1.07 0 0 1 0-1.535c.168-.164.382-.27.617-.308a.402.402 0 0 0 .273-.168c.063-.09.09-.2.067-.309a1.312 1.312 0 0 1 .37-1.172 1.373 1.373 0 0 1 1.555-.254.411.411 0 0 0 .497-.113 1.46 1.46 0 0 1 .105-.121 1.374 1.374 0 0 1 1.336-.336c-.004.016-.008.027-.008.04a2.356 2.356 0 0 0-.074.296c-.008.035-.02.07-.024.105a2.48 2.48 0 0 0-.035.418c0 .766.328 1.497.895 2.008a2.385 2.385 0 0 0-.238 1.418l.023.156a3208.606 3208.606 0 0 0 .059.227c.011.035.027.066.039.102.011.039.027.082.043.12l.046.098c.02.035.036.075.055.11.02.035.04.062.059.093.02.036.039.07.062.106.02.031.043.059.067.09l.074.097c.023.028.047.055.074.082.024.032.05.059.078.086a.816.816 0 0 0 .086.079.816.816 0 0 0 .086.078l.09.07c.031.023.062.047.098.07.03.024.062.043.093.063l.102.058c.035.02.07.036.105.055.036.016.07.035.106.05.035.016.074.028.11.044.038.011.073.027.113.039l.113.035c.039.008.078.02.117.027l.117.024c.043.008.082.011.125.02.04.003.078.007.117.007.028.004.051.008.079.008a.39.39 0 0 1-.11.219.418.418 0 0 1-.418.097.407.407 0 0 0-.512.3.8.8 0 0 1-.085.224.807.807 0 0 1-.149.195.906.906 0 0 1-.96.191.406.406 0 0 0-.52.208.884.884 0 0 1-.18.253.832.832 0 0 1-.313.196c-.003 0-.003.004-.003.004a.908.908 0 0 1-.938-.2zm8.68 8.711l-.032.282a.21.21 0 0 1-.207.187h-2.043a.207.207 0 0 1-.203-.187c-.273-3.918-2.164-7.645-4.164-8.59.032.004.063.004.094.008.027 0 .059.004.086.007h.117c.027-.004.055 0 .082-.004.04-.003.078-.007.117-.015a.583.583 0 0 0 .082-.008c.036-.008.075-.02.11-.027l.082-.024c.039-.011.074-.027.11-.039l.077-.031c.04-.016.078-.04.117-.059l.06-.03c.046-.028.093-.063.14-.095l.027-.02c.055-.042.106-.085.152-.136.043-.039.079-.078.114-.121.8.852 2.16 2.61 2.816 5.223a.403.403 0 0 0 .426.308.409.409 0 0 0 .375-.367c.015-.156.34-3.539-.152-6.086l.09.012c.066.008.128.02.195.023.047.004.09.008.136.008.04.004.079.008.118.008.02 0 .043-.004.066-.004.047 0 .09-.004.137-.008.062-.004.125-.008.183-.02.043-.003.086-.011.13-.019.066-.012.132-.023.194-.039.024-.008.047-.008.067-.016.113 1.188.113 2.778-.328 4.356a.407.407 0 0 0 .773.254c.012-.027.903-2.43 2.196-4.055.003.008.007.012.015.02a.928.928 0 0 0 .16.199.992.992 0 0 0 .176.14c0 .004.004.004.004.008.031.02.066.036.102.051.035.02.066.043.105.055.016.008.04.012.055.02.054.019.11.038.164.05.074.016.152.024.23.027.043.082.094.165.149.239-2.688.988-3.29 6.566-3.5 8.515zm9.484-11.808c-.195.195-.445.32-.723.367a.41.41 0 0 0-.324.52c.113.382.004.789-.281 1.07-.25.246-.617.36-.969.305a.416.416 0 0 0-.445.257 1.411 1.411 0 0 1-.328.496 1.49 1.49 0 0 1-1.836.196c0-.004 0-.004-.004-.004a1.4 1.4 0 0 1-.586-.73.408.408 0 0 0-.074-.126c-.008-.007-.02-.015-.028-.027a.371.371 0 0 0-.078-.059l-.043-.023a.31.31 0 0 0-.086-.023c-.015-.004-.03-.008-.05-.008-.008-.004-.016-.004-.024-.004a.494.494 0 0 0-.11.012c-.019.003-.034.003-.054.007a.42.42 0 0 1-.305-.07c-.015-.012-.035-.023-.05-.039a.315.315 0 0 1-.067-.094c-.008-.008-.008-.02-.012-.027-.011-.027-.023-.055-.027-.082a.382.382 0 0 1 .008-.188c.008-.015.012-.035.016-.05.125-.028.246-.067.363-.114.035-.015.066-.035.098-.05.085-.04.168-.083.246-.133.043-.024.078-.055.117-.082.066-.051.129-.098.187-.153.04-.035.075-.074.106-.11a2.182 2.182 0 0 0 .238-.304 2.843 2.843 0 0 0 .18-.347c.031-.079.058-.164.078-.25.012-.04.027-.082.035-.125a1.915 1.915 0 0 0 .004-.79c.605-.386.984-1.05.984-1.78 0-.27-.054-.536-.152-.782.219-.21.375-.48.437-.773a1.424 1.424 0 0 0 0-.594c-.007-.031-.02-.059-.027-.09a1.436 1.436 0 0 0-.058-.184 2.998 2.998 0 0 0-.137-.254c-.024-.03-.047-.062-.07-.093-.024-.028-.04-.059-.063-.082a1.13 1.13 0 0 1 1.426.129c.168.16.273.37.308.597a.414.414 0 0 0 .477.34 1.36 1.36 0 0 1 1.207.367c.402.395.508 1 .258 1.504a.41.41 0 0 0 .113.508 1.304 1.304 0 0 1 .52 1.04c0 .35-.141.679-.395.929zm0 0"/>
</svg>
