<svg xmlns="http://www.w3.org/2000/svg" width="32" height="32" viewBox="0 0 24 24">
    <path d="M9.847656 6.582031C9.898438 6.601562 9.945312 6.609375 9.996094 6.609375 10.160156 6.609375 10.3125 6.511719 10.378906 6.347656 10.460938 6.140625 10.355469 5.902344 10.144531 5.820312 9.535156 5.582031 9.234375 4.894531 9.472656 4.285156 9.710938 3.675781 10.398438 3.375 11.007812 3.613281 11.21875 3.691406 11.457031 3.589844 11.539062 3.378906 11.621094 3.167969 11.515625 2.933594 11.304688 2.851562 10.277344 2.449219 9.113281 2.957031 8.710938 3.988281 8.308594 5.015625 8.820312 6.179688 9.847656 6.582031zM21.757812 7.867188C21.550781 7.960938 21.457031 8.199219 21.546875 8.40625 21.675781 8.695312 21.679688 9.019531 21.566406 9.3125 21.449219 9.609375 21.226562 9.839844 20.9375 9.96875 20.648438 10.09375 20.324219 10.101562 20.03125 9.988281 19.734375 9.871094 19.5 9.648438 19.375 9.359375 19.285156 9.152344 19.042969 9.058594 18.835938 9.148438 18.628906 9.238281 18.535156 9.480469 18.625 9.6875 18.839844 10.175781 19.234375 10.550781 19.730469 10.746094 19.96875 10.839844 20.214844 10.886719 20.460938 10.886719 20.734375 10.886719 21.007812 10.828125 21.265625 10.714844 21.753906 10.503906 22.132812 10.109375 22.328125 9.609375 22.519531 9.113281 22.507812 8.570312 22.296875 8.078125 22.203125 7.871094 21.964844 7.777344 21.757812 7.867188zM16.050781 6.734375C15.855469 6.84375 15.785156 7.09375 15.894531 7.292969 16.050781 7.566406 16.089844 7.886719 16.007812 8.191406 15.921875 8.496094 15.722656 8.75 15.445312 8.90625 15.171875 9.0625 14.851562 9.101562 14.546875 9.015625 14.242188 8.933594 13.988281 8.734375 13.832031 8.457031 13.722656 8.261719 13.472656 8.191406 13.273438 8.304688 13.078125 8.414062 13.007812 8.664062 13.121094 8.859375 13.488281 9.511719 14.167969 9.878906 14.867188 9.878906 15.199219 9.878906 15.539062 9.792969 15.847656 9.617188 16.316406 9.355469 16.648438 8.925781 16.792969 8.410156 16.9375 7.894531 16.871094 7.355469 16.605469 6.890625 16.496094 6.691406 16.246094 6.625 16.050781 6.734375zM12.5625 7.472656C12.84375 7.609375 13.140625 7.671875 13.433594 7.671875 14.175781 7.671875 14.894531 7.253906 15.238281 6.542969 15.335938 6.339844 15.253906 6.09375 15.050781 5.996094 14.84375 5.898438 14.601562 5.984375 14.503906 6.1875 14.21875 6.773438 13.507812 7.019531 12.917969 6.738281 12.332031 6.453125 12.085938 5.742188 12.367188 5.152344 12.46875 4.949219 12.382812 4.707031 12.179688 4.605469 11.976562 4.507812 11.730469 4.59375 11.632812 4.796875 11.152344 5.789062 11.570312 6.992188 12.5625 7.472656zM9.527344 9.796875C9.78125 9.910156 10.054688 9.964844 10.328125 9.964844 10.574219 9.964844 10.820312 9.917969 11.058594 9.828125 11.558594 9.632812 11.949219 9.253906 12.164062 8.765625 12.253906 8.558594 12.160156 8.316406 11.953125 8.226562 11.742188 8.136719 11.503906 8.230469 11.414062 8.4375 11.289062 8.726562 11.054688 8.949219 10.761719 9.066406 10.464844 9.179688 10.144531 9.175781 9.851562 9.046875 9.253906 8.785156 8.980469 8.085938 9.242188 7.488281 9.332031 7.28125 9.238281 7.039062 9.03125 6.949219 8.820312 6.859375 8.582031 6.953125 8.492188 7.160156 8.050781 8.171875 8.515625 9.355469 9.527344 9.796875zM14.679688 5.496094C14.742188 5.503906 14.808594 5.507812 14.871094 5.507812 15.335938 5.507812 15.78125 5.347656 16.144531 5.046875 16.996094 4.347656 17.117188 3.082031 16.414062 2.230469 16.269531 2.054688 16.011719 2.03125 15.839844 2.175781 15.664062 2.320312 15.640625 2.574219 15.785156 2.75 16.199219 3.253906 16.128906 4.003906 15.625 4.417969 15.378906 4.621094 15.074219 4.714844 14.753906 4.683594 14.441406 4.652344 14.15625 4.503906 13.953125 4.257812 13.808594 4.085938 13.554688 4.058594 13.378906 4.203125 13.203125 4.347656 13.179688 4.605469 13.324219 4.777344 13.664062 5.191406 14.144531 5.445312 14.679688 5.496094zM6.304688 9.1875C6.390625 8.976562 6.289062 8.738281 6.078125 8.65625 5.871094 8.570312 5.632812 8.671875 5.546875 8.878906 5.300781 9.484375 4.609375 9.777344 4.003906 9.53125 3.398438 9.285156 3.105469 8.59375 3.351562 7.988281 3.433594 7.777344 3.332031 7.539062 3.125 7.457031 2.914062 7.371094 2.675781 7.472656 2.59375 7.679688 2.175781 8.703125 2.671875 9.875 3.695312 10.289062 3.941406 10.390625 4.195312 10.4375 4.445312 10.4375 5.238281 10.4375 5.988281 9.964844 6.304688 9.1875zM6.304688 9.1875"/>
    <path d="M 23.398438 8.019531 C 23.640625 7.265625 23.445312 6.429688 22.863281 5.863281 C 22.449219 5.457031 21.894531 5.230469 21.316406 5.238281 C 21.222656 4.984375 21.070312 4.753906 20.871094 4.558594 C 20.347656 4.042969 19.597656 3.894531 18.9375 4.097656 C 18.9375 4.058594 18.945312 4.027344 18.945312 3.988281 C 18.945312 2.398438 17.628906 1.101562 16.011719 1.101562 C 15.703125 1.101562 15.402344 1.148438 15.113281 1.242188 C 14.652344 0.761719 14.003906 0.480469 13.328125 0.480469 C 12.574219 0.480469 11.871094 0.820312 11.410156 1.390625 C 11.027344 1.199219 10.605469 1.101562 10.171875 1.101562 C 8.644531 1.101562 7.398438 2.328125 7.398438 3.835938 C 7.398438 3.839844 7.398438 3.847656 7.398438 3.851562 C 6.96875 4.054688 6.613281 4.359375 6.34375 4.730469 C 5.574219 4.441406 4.695312 4.605469 4.085938 5.179688 C 3.324219 4.9375 2.476562 5.132812 1.894531 5.699219 C 1.484375 6.105469 1.257812 6.65625 1.257812 7.21875 C 1 7.3125 0.765625 7.460938 0.570312 7.65625 C 0.203125 8.015625 0 8.496094 0 9.007812 C 0 9.515625 0.203125 9.996094 0.570312 10.359375 C 0.78125 10.566406 1.03125 10.71875 1.308594 10.808594 C 1.3125 11.402344 1.550781 11.972656 1.980469 12.394531 C 2.40625 12.8125 2.972656 13.042969 3.5625 13.050781 C 3.59375 13.445312 3.765625 13.820312 4.054688 14.105469 C 4.386719 14.429688 4.820312 14.59375 5.253906 14.59375 C 5.417969 14.59375 5.578125 14.5625 5.738281 14.515625 C 7.417969 14.5625 9.703125 18.257812 10.003906 22.570312 C 10.042969 23.101562 10.492188 23.519531 11.027344 23.519531 L 13.066406 23.519531 C 13.589844 23.519531 14.027344 23.128906 14.085938 22.609375 L 14.117188 22.320312 C 14.675781 17.136719 15.84375 14.472656 17.582031 14.394531 C 17.925781 14.578125 18.300781 14.679688 18.679688 14.679688 C 19.261719 14.679688 19.847656 14.460938 20.292969 14.027344 C 20.445312 13.875 20.574219 13.707031 20.679688 13.519531 C 21.183594 13.515625 21.675781 13.320312 22.035156 12.964844 C 22.433594 12.574219 22.636719 12.035156 22.601562 11.492188 C 22.882812 11.386719 23.144531 11.222656 23.363281 11.007812 C 23.773438 10.605469 24 10.066406 24 9.496094 C 24 8.941406 23.789062 8.417969 23.398438 8.019531 Z M 7.957031 4.503906 C 8.140625 4.441406 8.253906 4.261719 8.230469 4.066406 C 8.222656 3.992188 8.214844 3.914062 8.214844 3.835938 C 8.214844 2.777344 9.09375 1.917969 10.171875 1.917969 C 10.578125 1.917969 10.96875 2.039062 11.300781 2.269531 C 11.394531 2.335938 11.511719 2.355469 11.625 2.332031 C 11.738281 2.304688 11.832031 2.234375 11.890625 2.132812 C 12.179688 1.617188 12.730469 1.296875 13.328125 1.296875 C 13.855469 1.296875 14.351562 1.546875 14.660156 1.964844 C 14.773438 2.117188 14.976562 2.171875 15.152344 2.097656 C 15.425781 1.976562 15.714844 1.917969 16.011719 1.917969 C 17.179688 1.917969 18.128906 2.847656 18.128906 3.988281 C 18.128906 4.269531 18.066406 4.542969 17.953125 4.800781 C 17.953125 4.800781 17.953125 4.804688 17.953125 4.804688 L 17.921875 4.878906 C 17.921875 4.878906 17.917969 4.882812 17.917969 4.882812 C 17.910156 4.898438 17.910156 4.917969 17.90625 4.933594 C 17.894531 4.964844 17.878906 5 17.878906 5.035156 C 17.878906 5.042969 17.882812 5.050781 17.882812 5.0625 C 17.882812 5.101562 17.882812 5.144531 17.898438 5.1875 C 17.902344 5.199219 17.910156 5.210938 17.914062 5.222656 C 17.929688 5.257812 17.945312 5.289062 17.96875 5.320312 C 18 5.359375 18.039062 5.394531 18.089844 5.421875 C 18.3125 5.542969 18.445312 5.761719 18.445312 6.003906 C 18.445312 6.25 18.304688 6.476562 18.078125 6.597656 C 17.976562 6.648438 17.902344 6.742188 17.871094 6.855469 C 17.84375 6.964844 17.863281 7.082031 17.925781 7.179688 C 18.058594 7.386719 18.128906 7.621094 18.128906 7.867188 C 18.128906 8.386719 17.8125 8.855469 17.320312 9.058594 C 17.117188 9.144531 17.015625 9.375 17.097656 9.582031 C 17.152344 9.730469 17.179688 9.882812 17.179688 10.035156 C 17.179688 10.75 16.585938 11.332031 15.855469 11.332031 C 15.777344 11.332031 15.703125 11.324219 15.628906 11.3125 C 15.613281 11.308594 15.597656 11.304688 15.585938 11.300781 C 15.511719 11.289062 15.4375 11.269531 15.367188 11.238281 C 15.09375 11.132812 14.859375 10.941406 14.707031 10.6875 C 14.636719 10.566406 14.503906 10.488281 14.363281 10.488281 C 14.210938 10.488281 14.089844 10.554688 14.015625 10.675781 C 13.792969 11.015625 13.480469 11.277344 13.125 11.441406 C 13.070312 11.46875 13.015625 11.492188 12.964844 11.511719 C 12.9375 11.519531 12.910156 11.527344 12.882812 11.535156 C 12.832031 11.554688 12.78125 11.570312 12.726562 11.582031 C 12.691406 11.589844 12.65625 11.597656 12.621094 11.601562 C 12.574219 11.613281 12.527344 11.621094 12.480469 11.628906 C 12.402344 11.636719 12.320312 11.640625 12.238281 11.640625 C 12.179688 11.644531 12.117188 11.636719 12.058594 11.632812 C 12.039062 11.632812 12.015625 11.632812 11.996094 11.628906 C 11.929688 11.621094 11.863281 11.609375 11.796875 11.597656 C 11.785156 11.59375 11.773438 11.59375 11.757812 11.589844 C 11.6875 11.574219 11.617188 11.554688 11.546875 11.53125 C 11.539062 11.527344 11.535156 11.527344 11.527344 11.523438 C 11.453125 11.496094 11.375 11.46875 11.304688 11.429688 C 10.988281 11.28125 10.707031 11.054688 10.5 10.765625 C 10.433594 10.675781 10.335938 10.617188 10.226562 10.601562 C 10.207031 10.597656 10.1875 10.597656 10.167969 10.597656 C 10.078125 10.597656 9.992188 10.625 9.917969 10.679688 C 9.816406 10.761719 9.699219 10.824219 9.582031 10.875 C 9.578125 10.878906 9.574219 10.878906 9.574219 10.878906 C 9.464844 10.925781 9.359375 10.960938 9.25 10.984375 C 9.246094 10.984375 9.242188 10.984375 9.238281 10.988281 C 9.128906 11.011719 9.019531 11.023438 8.910156 11.023438 C 8.003906 11.023438 7.269531 10.300781 7.269531 9.417969 C 7.269531 9.078125 7.375 8.75 7.582031 8.472656 C 7.648438 8.382812 7.675781 8.273438 7.65625 8.160156 C 7.636719 8.050781 7.574219 7.953125 7.484375 7.890625 C 6.953125 7.53125 6.636719 6.945312 6.636719 6.316406 C 6.636719 6.222656 6.644531 6.128906 6.660156 6.039062 C 6.664062 6.015625 6.667969 5.996094 6.671875 5.972656 C 6.683594 5.902344 6.699219 5.835938 6.722656 5.769531 C 6.730469 5.746094 6.734375 5.722656 6.742188 5.699219 C 6.769531 5.625 6.796875 5.554688 6.832031 5.488281 C 6.839844 5.476562 6.84375 5.460938 6.851562 5.449219 C 7.074219 5.015625 7.464844 4.671875 7.957031 4.503906 Z M 13.785156 12.011719 C 13.996094 11.882812 14.1875 11.730469 14.359375 11.546875 C 14.53125 11.714844 14.734375 11.84375 14.949219 11.941406 C 14.960938 11.957031 14.972656 11.972656 14.988281 11.988281 C 15.058594 12.054688 15.128906 12.113281 15.207031 12.167969 C 14.703125 12.753906 14.25 13.445312 13.875 14.117188 C 13.902344 13.332031 13.855469 12.617188 13.785156 12.011719 Z M 11.136719 16.3125 C 10.457031 14.746094 9.59375 13.613281 8.917969 12.878906 C 9.046875 12.820312 9.167969 12.742188 9.273438 12.640625 C 9.5 12.417969 9.625 12.117188 9.632812 11.8125 C 9.726562 11.761719 9.820312 11.691406 9.914062 11.625 C 9.972656 11.597656 10.03125 11.574219 10.085938 11.542969 C 10.289062 11.757812 10.519531 11.9375 10.773438 12.078125 C 11.101562 13.351562 11.15625 15.007812 11.136719 16.3125 Z M 4.625 13.523438 C 4.40625 13.308594 4.320312 13 4.402344 12.703125 C 4.4375 12.5625 4.398438 12.417969 4.300781 12.3125 C 4.222656 12.234375 4.117188 12.1875 4.003906 12.1875 C 3.976562 12.1875 3.945312 12.191406 3.917969 12.199219 C 3.417969 12.308594 2.910156 12.164062 2.550781 11.8125 C 2.21875 11.484375 2.066406 11.019531 2.144531 10.5625 C 2.164062 10.449219 2.136719 10.335938 2.070312 10.246094 C 2.003906 10.160156 1.902344 10.101562 1.792969 10.085938 C 1.542969 10.054688 1.316406 9.949219 1.140625 9.773438 C 0.933594 9.570312 0.816406 9.296875 0.816406 9.007812 C 0.816406 8.714844 0.933594 8.445312 1.140625 8.238281 C 1.308594 8.074219 1.523438 7.96875 1.757812 7.929688 C 1.867188 7.914062 1.964844 7.855469 2.03125 7.761719 C 2.09375 7.671875 2.121094 7.5625 2.097656 7.453125 C 2.019531 7.027344 2.15625 6.589844 2.46875 6.28125 C 2.878906 5.878906 3.5 5.777344 4.023438 6.027344 C 4.191406 6.109375 4.398438 6.0625 4.519531 5.914062 C 4.550781 5.875 4.585938 5.832031 4.625 5.792969 C 4.980469 5.445312 5.492188 5.324219 5.960938 5.457031 C 5.957031 5.472656 5.953125 5.484375 5.953125 5.496094 C 5.921875 5.589844 5.898438 5.691406 5.878906 5.792969 C 5.871094 5.828125 5.859375 5.863281 5.855469 5.898438 C 5.832031 6.035156 5.820312 6.175781 5.820312 6.316406 C 5.820312 7.082031 6.148438 7.8125 6.714844 8.324219 C 6.542969 8.660156 6.453125 9.03125 6.453125 9.414062 C 6.453125 9.496094 6.457031 9.578125 6.464844 9.660156 C 6.46875 9.6875 6.472656 9.714844 6.476562 9.742188 C 6.484375 9.792969 6.492188 9.847656 6.5 9.898438 C 6.507812 9.929688 6.515625 9.960938 6.523438 9.992188 C 6.535156 10.039062 6.546875 10.082031 6.558594 10.125 C 6.570312 10.160156 6.585938 10.191406 6.597656 10.226562 C 6.609375 10.265625 6.625 10.308594 6.640625 10.347656 C 6.65625 10.378906 6.671875 10.410156 6.6875 10.445312 C 6.707031 10.480469 6.722656 10.519531 6.742188 10.554688 C 6.761719 10.589844 6.78125 10.617188 6.800781 10.648438 C 6.820312 10.683594 6.839844 10.71875 6.863281 10.753906 C 6.882812 10.785156 6.90625 10.8125 6.929688 10.84375 C 6.953125 10.875 6.976562 10.90625 7.003906 10.941406 C 7.027344 10.96875 7.050781 10.996094 7.078125 11.023438 C 7.101562 11.054688 7.128906 11.082031 7.15625 11.109375 C 7.183594 11.136719 7.210938 11.164062 7.242188 11.1875 C 7.269531 11.214844 7.296875 11.242188 7.328125 11.265625 C 7.359375 11.289062 7.386719 11.3125 7.417969 11.335938 C 7.449219 11.359375 7.480469 11.382812 7.515625 11.40625 C 7.546875 11.429688 7.578125 11.449219 7.609375 11.46875 C 7.644531 11.488281 7.679688 11.507812 7.710938 11.527344 C 7.746094 11.546875 7.78125 11.5625 7.816406 11.582031 C 7.851562 11.597656 7.886719 11.617188 7.921875 11.632812 C 7.957031 11.648438 7.996094 11.660156 8.03125 11.675781 C 8.070312 11.6875 8.105469 11.703125 8.144531 11.714844 C 8.183594 11.726562 8.21875 11.738281 8.257812 11.75 C 8.296875 11.757812 8.335938 11.769531 8.375 11.777344 C 8.414062 11.785156 8.453125 11.792969 8.492188 11.800781 C 8.535156 11.808594 8.574219 11.8125 8.617188 11.820312 C 8.65625 11.824219 8.695312 11.828125 8.734375 11.828125 C 8.761719 11.832031 8.785156 11.835938 8.8125 11.835938 C 8.800781 11.917969 8.761719 11.996094 8.703125 12.054688 C 8.59375 12.160156 8.4375 12.199219 8.285156 12.152344 C 8.179688 12.121094 8.0625 12.136719 7.964844 12.191406 C 7.867188 12.25 7.796875 12.34375 7.773438 12.453125 C 7.753906 12.535156 7.726562 12.609375 7.6875 12.675781 C 7.648438 12.75 7.597656 12.8125 7.539062 12.871094 C 7.289062 13.117188 6.910156 13.191406 6.578125 13.0625 C 6.378906 12.980469 6.148438 13.074219 6.058594 13.269531 C 6.015625 13.363281 5.953125 13.449219 5.878906 13.523438 C 5.792969 13.609375 5.6875 13.675781 5.566406 13.71875 C 5.5625 13.71875 5.5625 13.722656 5.5625 13.722656 C 5.246094 13.835938 4.878906 13.769531 4.625 13.523438 Z M 13.304688 22.234375 L 13.273438 22.515625 C 13.261719 22.621094 13.171875 22.703125 13.066406 22.703125 L 11.023438 22.703125 C 10.917969 22.703125 10.828125 22.617188 10.820312 22.515625 C 10.546875 18.597656 8.65625 14.871094 6.65625 13.925781 C 6.6875 13.929688 6.71875 13.929688 6.75 13.933594 C 6.777344 13.933594 6.808594 13.9375 6.835938 13.941406 C 6.875 13.941406 6.914062 13.941406 6.953125 13.941406 C 6.980469 13.9375 7.007812 13.941406 7.035156 13.9375 C 7.074219 13.933594 7.113281 13.929688 7.152344 13.921875 C 7.179688 13.921875 7.207031 13.917969 7.234375 13.914062 C 7.269531 13.90625 7.308594 13.894531 7.34375 13.886719 C 7.371094 13.878906 7.398438 13.871094 7.425781 13.863281 C 7.464844 13.851562 7.5 13.835938 7.535156 13.824219 C 7.5625 13.8125 7.585938 13.804688 7.613281 13.792969 C 7.652344 13.777344 7.691406 13.753906 7.730469 13.734375 C 7.75 13.722656 7.769531 13.714844 7.789062 13.703125 C 7.835938 13.675781 7.882812 13.640625 7.929688 13.609375 C 7.9375 13.601562 7.945312 13.597656 7.957031 13.589844 C 8.011719 13.546875 8.0625 13.503906 8.109375 13.453125 C 8.152344 13.414062 8.1875 13.375 8.222656 13.332031 C 9.023438 14.183594 10.382812 15.941406 11.039062 18.554688 C 11.085938 18.75 11.265625 18.878906 11.464844 18.863281 C 11.660156 18.847656 11.820312 18.695312 11.839844 18.496094 C 11.855469 18.339844 12.179688 14.957031 11.6875 12.410156 C 11.71875 12.414062 11.75 12.417969 11.777344 12.421875 C 11.84375 12.429688 11.90625 12.441406 11.972656 12.445312 C 12.019531 12.449219 12.0625 12.453125 12.109375 12.453125 C 12.148438 12.457031 12.1875 12.460938 12.226562 12.460938 C 12.246094 12.460938 12.269531 12.457031 12.292969 12.457031 C 12.339844 12.457031 12.382812 12.453125 12.429688 12.449219 C 12.492188 12.445312 12.554688 12.441406 12.613281 12.429688 C 12.65625 12.425781 12.699219 12.417969 12.742188 12.410156 C 12.808594 12.398438 12.875 12.386719 12.9375 12.371094 C 12.960938 12.363281 12.984375 12.363281 13.003906 12.355469 C 13.117188 13.542969 13.117188 15.132812 12.675781 16.710938 C 12.613281 16.921875 12.734375 17.144531 12.941406 17.210938 C 13.152344 17.28125 13.375 17.167969 13.449219 16.964844 C 13.460938 16.9375 14.351562 14.535156 15.644531 12.910156 C 15.648438 12.917969 15.652344 12.921875 15.660156 12.929688 C 15.703125 13 15.753906 13.066406 15.816406 13.125 C 15.816406 13.125 15.816406 13.128906 15.820312 13.128906 C 15.875 13.183594 15.933594 13.230469 15.996094 13.269531 C 15.996094 13.273438 16 13.273438 16 13.277344 C 16.03125 13.296875 16.066406 13.3125 16.101562 13.328125 C 16.136719 13.347656 16.167969 13.371094 16.207031 13.382812 C 16.222656 13.390625 16.246094 13.394531 16.261719 13.402344 C 16.316406 13.421875 16.371094 13.441406 16.425781 13.453125 C 16.5 13.46875 16.578125 13.476562 16.65625 13.480469 C 16.699219 13.5625 16.75 13.644531 16.804688 13.71875 C 14.117188 14.707031 13.515625 20.285156 13.304688 22.234375 Z M 22.789062 10.425781 C 22.59375 10.621094 22.34375 10.746094 22.066406 10.792969 C 21.949219 10.8125 21.851562 10.882812 21.789062 10.980469 C 21.726562 11.082031 21.710938 11.199219 21.742188 11.3125 C 21.855469 11.695312 21.746094 12.101562 21.460938 12.382812 C 21.210938 12.628906 20.84375 12.742188 20.492188 12.6875 C 20.304688 12.660156 20.117188 12.765625 20.046875 12.945312 C 19.972656 13.132812 19.863281 13.300781 19.71875 13.441406 C 19.222656 13.933594 18.453125 13.996094 17.882812 13.636719 C 17.882812 13.632812 17.882812 13.632812 17.878906 13.632812 C 17.789062 13.574219 17.707031 13.511719 17.636719 13.441406 C 17.480469 13.289062 17.367188 13.109375 17.292969 12.902344 C 17.277344 12.855469 17.25 12.816406 17.21875 12.777344 C 17.210938 12.769531 17.199219 12.761719 17.191406 12.75 C 17.167969 12.726562 17.140625 12.707031 17.113281 12.691406 C 17.097656 12.683594 17.085938 12.675781 17.070312 12.667969 C 17.042969 12.65625 17.015625 12.648438 16.984375 12.644531 C 16.96875 12.640625 16.953125 12.636719 16.933594 12.636719 C 16.925781 12.632812 16.917969 12.632812 16.910156 12.632812 C 16.871094 12.632812 16.835938 12.636719 16.800781 12.644531 C 16.78125 12.648438 16.765625 12.648438 16.746094 12.652344 C 16.636719 12.667969 16.53125 12.644531 16.441406 12.582031 C 16.425781 12.570312 16.40625 12.558594 16.390625 12.542969 C 16.363281 12.515625 16.339844 12.484375 16.324219 12.449219 C 16.316406 12.441406 16.316406 12.429688 16.3125 12.421875 C 16.300781 12.394531 16.289062 12.367188 16.285156 12.339844 C 16.273438 12.277344 16.273438 12.214844 16.292969 12.152344 C 16.300781 12.136719 16.304688 12.117188 16.308594 12.101562 C 16.433594 12.074219 16.554688 12.035156 16.671875 11.988281 C 16.707031 11.972656 16.738281 11.953125 16.769531 11.9375 C 16.855469 11.898438 16.9375 11.855469 17.015625 11.804688 C 17.058594 11.78125 17.09375 11.75 17.132812 11.722656 C 17.199219 11.671875 17.261719 11.625 17.320312 11.570312 C 17.359375 11.535156 17.394531 11.496094 17.425781 11.460938 C 17.480469 11.402344 17.53125 11.34375 17.578125 11.28125 C 17.609375 11.238281 17.636719 11.199219 17.664062 11.15625 C 17.707031 11.085938 17.746094 11.015625 17.78125 10.945312 C 17.804688 10.898438 17.824219 10.855469 17.84375 10.808594 C 17.875 10.730469 17.902344 10.644531 17.921875 10.558594 C 17.933594 10.519531 17.949219 10.476562 17.957031 10.433594 C 17.984375 10.304688 18 10.171875 18 10.035156 C 18 9.902344 17.984375 9.773438 17.960938 9.644531 C 18.566406 9.257812 18.945312 8.59375 18.945312 7.863281 C 18.945312 7.59375 18.890625 7.328125 18.792969 7.082031 C 19.011719 6.871094 19.167969 6.601562 19.230469 6.308594 C 19.25 6.207031 19.261719 6.105469 19.261719 6.003906 C 19.261719 5.90625 19.25 5.808594 19.230469 5.714844 C 19.222656 5.683594 19.210938 5.65625 19.203125 5.625 C 19.1875 5.5625 19.167969 5.5 19.144531 5.441406 C 19.128906 5.40625 19.113281 5.375 19.09375 5.339844 C 19.066406 5.289062 19.039062 5.238281 19.007812 5.1875 C 18.984375 5.15625 18.960938 5.125 18.9375 5.09375 C 18.914062 5.066406 18.898438 5.035156 18.875 5.011719 C 19.308594 4.714844 19.914062 4.757812 20.300781 5.140625 C 20.46875 5.300781 20.574219 5.511719 20.609375 5.738281 C 20.628906 5.847656 20.6875 5.945312 20.777344 6.007812 C 20.867188 6.070312 20.980469 6.097656 21.085938 6.078125 C 21.527344 5.996094 21.976562 6.132812 22.292969 6.445312 C 22.695312 6.839844 22.800781 7.445312 22.550781 7.949219 C 22.460938 8.125 22.511719 8.335938 22.664062 8.457031 C 22.707031 8.488281 22.75 8.523438 22.789062 8.5625 C 23.042969 8.8125 23.183594 9.144531 23.183594 9.496094 C 23.183594 9.847656 23.042969 10.175781 22.789062 10.425781 Z M 22.789062 10.425781"/>
</svg>
