<svg xmlns="http://www.w3.org/2000/svg" width="32" height="32" viewBox="0 0 24 24">
    <path d="M 22.167969 1.222656 L 20.949219 0 L 12.902344 8.042969 L 0.636719 20.308594 L 3.3125 22.644531 L 3.605469 22.902344 L 3.609375 22.902344 L 4.558594 23.730469 C 4.742188 23.910156 4.976562 24 5.265625 24 C 5.855469 24 6.671875 23.621094 7.761719 22.847656 C 8.996094 21.972656 10.492188 20.640625 11.976562 19.101562 C 13.355469 17.667969 17.746094 12.886719 16.335938 11.511719 L 15.320312 10.488281 L 15.167969 10.332031 L 14.917969 10.078125 C 15.703125 9.90625 16.941406 9.515625 18.117188 8.644531 C 18.210938 8.566406 20.371094 6.738281 21.585938 4.695312 L 21.613281 4.640625 C 21.632812 4.597656 21.832031 4.21875 22.597656 4.371094 L 22.769531 4.402344 L 22.914062 4.304688 C 22.953125 4.277344 23.304688 4.023438 23.355469 3.480469 C 23.417969 2.828125 23.015625 2.070312 22.167969 1.222656 Z M 15.753906 12.105469 C 15.839844 12.1875 15.867188 12.769531 14.871094 14.289062 C 14.066406 15.515625 12.828125 17.019531 11.378906 18.523438 C 9.929688 20.027344 8.472656 21.324219 7.28125 22.171875 C 5.800781 23.21875 5.222656 23.214844 5.117188 23.117188 L 4.722656 22.773438 C 6.820312 21.984375 10.101562 18.644531 10.835938 17.878906 C 11.554688 17.132812 14.679688 13.792969 15.367188 11.710938 L 15.75 12.097656 Z M 14.578125 10.914062 L 14.675781 11.015625 C 14.699219 11.816406 13.203125 14.210938 10.238281 17.304688 C 7.296875 20.371094 4.800781 22.113281 3.972656 22.117188 L 3.90625 22.0625 L 3.859375 22.019531 L 1.851562 20.269531 L 12.902344 9.222656 Z M 22.503906 3.515625 C 21.523438 3.414062 21.015625 3.949219 20.859375 4.296875 C 19.710938 6.207031 17.605469 7.992188 17.605469 7.992188 C 16.238281 9.003906 14.726562 9.289062 14.214844 9.359375 L 13.488281 8.632812 L 20.949219 1.175781 L 21.582031 1.808594 C 22.429688 2.65625 22.542969 3.15625 22.53125 3.378906 C 22.527344 3.433594 22.519531 3.480469 22.503906 3.515625 Z M 22.503906 3.515625"/>
    <path d="M16.222656 7.8125C16.222656 8.144531 15.953125 8.410156 15.625 8.410156 15.292969 8.410156 15.023438 8.144531 15.023438 7.8125 15.023438 7.480469 15.292969 7.210938 15.625 7.210938 15.953125 7.210938 16.222656 7.480469 16.222656 7.8125zM21.023438 3.011719C21.023438 3.34375 20.753906 3.613281 20.421875 3.613281 20.089844 3.613281 19.824219 3.34375 19.824219 3.011719 19.824219 2.679688 20.089844 2.410156 20.421875 2.410156 20.753906 2.410156 21.023438 2.679688 21.023438 3.011719zM21.023438 3.011719"/>
</svg>
