<svg xmlns="http://www.w3.org/2000/svg" width="32" height="32" viewBox="0 0 24 24">
    <path d="M23.585938 20.898438L22.757812 20.898438 22.757812 16.34375C22.757812 15.660156 22.203125 15.101562 21.515625 15.101562L21.101562 15.101562 21.101562 10.550781C21.101562 9.867188 20.546875 9.308594 19.863281 9.308594L19.449219 9.308594 19.449219 4.757812C19.449219 4.074219 18.890625 3.515625 18.207031 3.515625L5.792969 3.515625C5.109375 3.515625 4.550781 4.074219 4.550781 4.757812L4.550781 9.308594 4.136719 9.308594C3.453125 9.308594 2.898438 9.867188 2.898438 10.550781L2.898438 15.101562 2.484375 15.101562C1.796875 15.101562 1.242188 15.660156 1.242188 16.34375L1.242188 20.898438.414062 20.898438C.183594 20.898438 0 21.082031 0 21.308594 0 21.539062.183594 21.722656.414062 21.722656L23.585938 21.722656C23.816406 21.722656 24 21.539062 24 21.308594 24 21.082031 23.816406 20.898438 23.585938 20.898438zM7.65625 5.21875C8.113281 5.9375 8.914062 6.414062 9.828125 6.414062 10.738281 6.414062 11.542969 5.9375 12 5.21875 12.457031 5.9375 13.261719 6.414062 14.171875 6.414062 15.085938 6.414062 15.886719 5.9375 16.34375 5.21875 16.804688 5.9375 17.605469 6.414062 18.515625 6.414062 18.550781 6.414062 18.585938 6.410156 18.621094 6.40625L18.621094 7.246094C18.585938 7.246094 18.550781 7.242188 18.515625 7.242188 17.605469 7.242188 16.804688 7.714844 16.34375 8.4375 15.886719 7.714844 15.085938 7.242188 14.171875 7.242188 13.261719 7.242188 12.457031 7.714844 12 8.4375 11.542969 7.714844 10.738281 7.242188 9.828125 7.242188 8.914062 7.242188 8.113281 7.714844 7.65625 8.4375 7.195312 7.714844 6.394531 7.242188 5.484375 7.242188 5.449219 7.242188 5.414062 7.246094 5.378906 7.246094L5.378906 6.40625C5.414062 6.410156 5.449219 6.414062 5.484375 6.414062 6.394531 6.414062 7.195312 5.9375 7.65625 5.21875zM5.378906 8.898438L5.378906 8.074219C5.414062 8.070312 5.449219 8.070312 5.484375 8.070312 6.269531 8.070312 6.9375 8.585938 7.15625 9.308594L5.792969 9.308594C5.566406 9.308594 5.378906 9.125 5.378906 8.898438zM9.828125 8.070312C10.613281 8.070312 11.28125 8.585938 11.5 9.308594L8.152344 9.308594C8.375 8.585938 9.042969 8.070312 9.828125 8.070312zM14.171875 8.070312C14.957031 8.070312 15.625 8.585938 15.847656 9.308594L12.5 9.308594C12.71875 8.585938 13.386719 8.070312 14.171875 8.070312zM18.515625 8.070312C18.550781 8.070312 18.585938 8.070312 18.621094 8.074219L18.621094 8.898438C18.621094 9.125 18.433594 9.308594 18.207031 9.308594L16.84375 9.308594C17.0625 8.585938 17.730469 8.070312 18.515625 8.070312zM18.207031 4.34375C18.433594 4.34375 18.621094 4.53125 18.621094 4.757812L18.621094 5.582031C18.585938 5.585938 18.550781 5.585938 18.515625 5.585938 17.730469 5.585938 17.0625 5.066406 16.84375 4.34375zM15.847656 4.34375C15.625 5.066406 14.957031 5.585938 14.171875 5.585938 13.386719 5.585938 12.71875 5.066406 12.5 4.34375zM11.5 4.34375C11.28125 5.066406 10.613281 5.585938 9.828125 5.585938 9.042969 5.585938 8.375 5.066406 8.152344 4.34375zM5.378906 4.757812C5.378906 4.53125 5.566406 4.34375 5.792969 4.34375L7.15625 4.34375C6.9375 5.066406 6.269531 5.585938 5.484375 5.585938 5.449219 5.585938 5.414062 5.585938 5.378906 5.582031zM3.722656 10.550781C3.722656 10.324219 3.910156 10.136719 4.136719 10.136719L19.863281 10.136719C20.089844 10.136719 20.277344 10.324219 20.277344 10.550781L20.277344 15.101562 3.722656 15.101562zM2.070312 16.34375C2.070312 16.117188 2.253906 15.929688 2.484375 15.929688L21.515625 15.929688C21.746094 15.929688 21.929688 16.117188 21.929688 16.34375L21.929688 17.070312C21.929688 18.265625 20.957031 19.242188 19.757812 19.242188 18.5625 19.242188 17.585938 18.265625 17.585938 17.070312 17.585938 16.839844 17.402344 16.65625 17.171875 16.65625 16.945312 16.65625 16.757812 16.839844 16.757812 17.070312 16.757812 18.265625 15.785156 19.242188 14.585938 19.242188 13.386719 19.242188 12.414062 18.265625 12.414062 17.070312 12.414062 16.839844 12.230469 16.65625 12 16.65625 11.769531 16.65625 11.585938 16.839844 11.585938 17.070312 11.585938 18.265625 10.613281 19.242188 9.414062 19.242188 8.214844 19.242188 7.242188 18.265625 7.242188 17.070312 7.242188 16.839844 7.054688 16.65625 6.828125 16.65625 6.597656 16.65625 6.414062 16.839844 6.414062 17.070312 6.414062 18.265625 5.4375 19.242188 4.242188 19.242188 3.042969 19.242188 2.070312 18.265625 2.070312 17.070312zM2.070312 20.898438L2.070312 19.132812C2.617188 19.707031 3.386719 20.070312 4.242188 20.070312 5.34375 20.070312 6.304688 19.46875 6.828125 18.582031 7.347656 19.46875 8.3125 20.070312 9.414062 20.070312 10.515625 20.070312 11.480469 19.46875 12 18.582031 12.519531 19.46875 13.484375 20.070312 14.585938 20.070312 15.6875 20.070312 16.652344 19.46875 17.171875 18.582031 17.695312 19.46875 18.65625 20.070312 19.757812 20.070312 20.613281 20.070312 21.382812 19.707031 21.929688 19.132812L21.929688 20.898438zM21.929688 22.136719L2.070312 22.136719C1.839844 22.136719 1.65625 22.324219 1.65625 22.550781 1.65625 22.78125 1.839844 22.964844 2.070312 22.964844L21.929688 22.964844C22.160156 22.964844 22.34375 22.78125 22.34375 22.550781 22.34375 22.324219 22.160156 22.136719 21.929688 22.136719zM21.929688 22.136719"/>
    <path d="M4.550781 10.964844C4.324219 10.964844 4.136719 11.152344 4.136719 11.378906L4.136719 13.863281C4.136719 14.089844 4.324219 14.277344 4.550781 14.277344 4.78125 14.277344 4.964844 14.089844 4.964844 13.863281L4.964844 11.378906C4.964844 11.152344 4.78125 10.964844 4.550781 10.964844zM6.207031 10.964844C5.976562 10.964844 5.792969 11.152344 5.792969 11.378906L5.792969 13.863281C5.792969 14.089844 5.976562 14.277344 6.207031 14.277344 6.4375 14.277344 6.621094 14.089844 6.621094 13.863281L6.621094 11.378906C6.621094 11.152344 6.4375 10.964844 6.207031 10.964844zM7.863281 10.964844C7.632812 10.964844 7.449219 11.152344 7.449219 11.378906L7.449219 13.863281C7.449219 14.089844 7.632812 14.277344 7.863281 14.277344 8.089844 14.277344 8.277344 14.089844 8.277344 13.863281L8.277344 11.378906C8.277344 11.152344 8.089844 10.964844 7.863281 10.964844zM9.515625 10.964844C9.289062 10.964844 9.101562 11.152344 9.101562 11.378906L9.101562 13.863281C9.101562 14.089844 9.289062 14.277344 9.515625 14.277344 9.746094 14.277344 9.929688 14.089844 9.929688 13.863281L9.929688 11.378906C9.929688 11.152344 9.746094 10.964844 9.515625 10.964844zM11.171875 10.964844C10.945312 10.964844 10.757812 11.152344 10.757812 11.378906L10.757812 13.863281C10.757812 14.089844 10.945312 14.277344 11.171875 14.277344 11.402344 14.277344 11.585938 14.089844 11.585938 13.863281L11.585938 11.378906C11.585938 11.152344 11.402344 10.964844 11.171875 10.964844zM12.828125 10.964844C12.597656 10.964844 12.414062 11.152344 12.414062 11.378906L12.414062 13.863281C12.414062 14.089844 12.597656 14.277344 12.828125 14.277344 13.054688 14.277344 13.242188 14.089844 13.242188 13.863281L13.242188 11.378906C13.242188 11.152344 13.054688 10.964844 12.828125 10.964844zM14.484375 10.964844C14.253906 10.964844 14.070312 11.152344 14.070312 11.378906L14.070312 13.863281C14.070312 14.089844 14.253906 14.277344 14.484375 14.277344 14.710938 14.277344 14.898438 14.089844 14.898438 13.863281L14.898438 11.378906C14.898438 11.152344 14.710938 10.964844 14.484375 10.964844zM16.136719 10.964844C15.910156 10.964844 15.722656 11.152344 15.722656 11.378906L15.722656 13.863281C15.722656 14.089844 15.910156 14.277344 16.136719 14.277344 16.367188 14.277344 16.550781 14.089844 16.550781 13.863281L16.550781 11.378906C16.550781 11.152344 16.367188 10.964844 16.136719 10.964844zM17.792969 10.964844C17.5625 10.964844 17.378906 11.152344 17.378906 11.378906L17.378906 13.863281C17.378906 14.089844 17.5625 14.277344 17.792969 14.277344 18.023438 14.277344 18.207031 14.089844 18.207031 13.863281L18.207031 11.378906C18.207031 11.152344 18.023438 10.964844 17.792969 10.964844zM19.449219 10.964844C19.21875 10.964844 19.035156 11.152344 19.035156 11.378906L19.035156 13.863281C19.035156 14.089844 19.21875 14.277344 19.449219 14.277344 19.675781 14.277344 19.863281 14.089844 19.863281 13.863281L19.863281 11.378906C19.863281 11.152344 19.675781 10.964844 19.449219 10.964844zM6.742188 2.980469C6.824219 3.0625 6.929688 3.101562 7.035156 3.101562 7.140625 3.101562 7.246094 3.0625 7.328125 2.980469L7.65625 2.652344 7.984375 2.980469C8.0625 3.0625 8.171875 3.101562 8.277344 3.101562 8.382812 3.101562 8.488281 3.0625 8.570312 2.980469 8.730469 2.820312 8.730469 2.558594 8.570312 2.398438L8.242188 2.070312 8.570312 1.742188C8.730469 1.578125 8.730469 1.316406 8.570312 1.15625 8.40625.992188 8.144531.992188 7.984375 1.15625L7.65625 1.484375 7.328125 1.15625C7.164062.992188 6.902344.992188 6.742188 1.15625 6.582031 1.316406 6.582031 1.578125 6.742188 1.742188L7.070312 2.070312 6.742188 2.398438C6.582031 2.558594 6.582031 2.820312 6.742188 2.980469zM9.636719 2.980469C9.71875 3.0625 9.824219 3.101562 9.929688 3.101562 10.035156 3.101562 10.144531 3.0625 10.222656 2.980469L10.550781 2.652344 10.878906 2.980469C10.960938 3.0625 11.066406 3.101562 11.171875 3.101562 11.277344 3.101562 11.382812 3.0625 11.464844 2.980469 11.625 2.820312 11.625 2.558594 11.464844 2.398438L11.136719 2.070312 11.464844 1.742188C11.625 1.578125 11.625 1.316406 11.464844 1.15625 11.304688.992188 11.042969.992188 10.878906 1.15625L10.550781 1.484375 10.222656 1.15625C10.0625.992188 9.800781.992188 9.636719 1.15625 9.476562 1.316406 9.476562 1.578125 9.636719 1.742188L9.964844 2.070312 9.636719 2.398438C9.476562 2.558594 9.476562 2.820312 9.636719 2.980469zM12.535156 2.980469C12.617188 3.0625 12.722656 3.101562 12.828125 3.101562 12.933594 3.101562 13.039062 3.0625 13.121094 2.980469L13.449219 2.652344 13.777344 2.980469C13.855469 3.0625 13.964844 3.101562 14.070312 3.101562 14.175781 3.101562 14.28125 3.0625 14.363281 2.980469 14.523438 2.820312 14.523438 2.558594 14.363281 2.398438L14.035156 2.070312 14.363281 1.742188C14.523438 1.578125 14.523438 1.316406 14.363281 1.15625 14.199219.992188 13.9375.992188 13.777344 1.15625L13.449219 1.484375 13.121094 1.15625C12.957031.992188 12.695312.992188 12.535156 1.15625 12.375 1.316406 12.375 1.578125 12.535156 1.742188L12.863281 2.070312 12.535156 2.398438C12.375 2.558594 12.375 2.820312 12.535156 2.980469zM15.429688 2.980469C15.511719 3.0625 15.617188 3.101562 15.722656 3.101562 15.828125 3.101562 15.9375 3.0625 16.015625 2.980469L16.34375 2.652344 16.671875 2.980469C16.753906 3.0625 16.859375 3.101562 16.964844 3.101562 17.070312 3.101562 17.175781 3.0625 17.257812 2.980469 17.417969 2.820312 17.417969 2.558594 17.257812 2.398438L16.929688 2.070312 17.257812 1.742188C17.417969 1.578125 17.417969 1.316406 17.257812 1.15625 17.097656.992188 16.835938.992188 16.671875 1.15625L16.34375 1.484375 16.015625 1.15625C15.855469.992188 15.59375.992188 15.429688 1.15625 15.269531 1.316406 15.269531 1.578125 15.429688 1.742188L15.757812 2.070312 15.429688 2.398438C15.269531 2.558594 15.269531 2.820312 15.429688 2.980469zM15.429688 2.980469"/>
</svg>
