<svg xmlns="http://www.w3.org/2000/svg" width="32" height="32" viewBox="0 0 24 24">
    <path d="M18.246 1.363c-.312-.125-.598-.55-.598-.894A.471.471 0 0 0 17.176 0H6.824a.475.475 0 0 0-.472.477c0 .34-.286.761-.598.886a2.029 2.029 0 0 0-1.285 1.89v17.634l.011-.004c.055.781.536 1.46 1.27 1.754.316.125.602.55.602.894 0 .258.21.469.472.469h10.352a.475.475 0 0 0 .472-.477c0-.34.286-.761.598-.886a2.029 2.029 0 0 0 1.285-1.89V3.253c0-.836-.504-1.578-1.285-1.89zM5.41 12.105l13.18-4.394v5.598l-13.18 4.39zm13.18 8.641c0 .45-.274.852-.692 1.016-.523.21-.96.73-1.125 1.297H7.227c-.165-.563-.602-1.086-1.125-1.297a1.09 1.09 0 0 1-.692-1.016v-.172l13.176-4.39v4.562zm0-5.555L5.41 19.582v-.89L18.59 14.3zM5.41 11.113v-.89l13.18-4.395v.89zm0-1.883V3.254c0-.45.274-.852.692-1.016.523-.21.96-.73 1.125-1.297h9.546c.165.563.602 1.086 1.125 1.297.418.164.692.567.692 1.016v1.582zm0 0"/>
    <path d="M9.176 2.824H6.824a.471.471 0 1 0 0 .942h2.352a.472.472 0 1 0 0-.942zm0 0M17.176 2.824h-6.117a.468.468 0 0 0-.47.469c0 .262.208.473.47.473h6.117a.472.472 0 1 0 0-.942zm0 0M6.824 21.648h2.352a.472.472 0 1 0 0-.941H6.824a.471.471 0 1 0 0 .941zm0 0M11.059 21.648h6.117a.472.472 0 1 0 0-.941h-6.117a.468.468 0 0 0-.47.469c0 .262.208.472.47.472zm0 0"/>
</svg>
