<svg xmlns="http://www.w3.org/2000/svg" width="32" height="32" viewBox="0 0 24 24">
    <path d="M23.832 5.316a.725.725 0 0 0-.789-.246l-.375.117.18-.574a.703.703 0 0 0-.172-.71.715.715 0 0 0-.711-.176l-.578.18.18-.575a.702.702 0 0 0-.176-.71.7.7 0 0 0-.707-.177l-.579.18.18-.574a.702.702 0 0 0-.176-.711.702.702 0 0 0-.71-.176l-.575.18.133-.43a.701.701 0 0 0-1.031-.813c-1.098.649-1.746 1.227-1.938 1.723l-.785 3.852c-1.469-.453-3.18-.246-4.789.527V6.2l-.082.043c-.473.23-.937.512-1.387.84-.03.027-.066.05-.097.078a6.91 6.91 0 0 0-.422.336 1.911 1.911 0 0 0-.137.113 8.934 8.934 0 0 0-.984.992c-.035.04-.07.083-.106.122-.148.18-.293.363-.43.547v.003a9.058 9.058 0 0 0-.925 1.598l-.008.016c-.684 1.535-.863 3.144-.45 4.543l-3.366.5-.094.023c-.528.203-1.133.86-1.805 1.953a.7.7 0 0 0 .043.809.702.702 0 0 0 .77.242l.402-.125-.18.574a.704.704 0 0 0 .176.711.704.704 0 0 0 .711.176l.574-.18-.18.575a.704.704 0 0 0 .176.71.702.702 0 0 0 .711.176l.574-.18-.18.575a.702.702 0 0 0 .177.71c.187.188.46.259.71.176l.575-.18-.125.403a.702.702 0 0 0 .242.77.701.701 0 0 0 .808.047c1.094-.676 1.75-1.282 1.954-1.81l.546-3.53c1.364.367 2.926.175 4.415-.489l.003.004.125-.058c.274-.13.543-.274.809-.43a10.584 10.584 0 0 0 .668-.434c.02-.015.035-.03.055-.043.168-.125.332-.253.496-.386.047-.043.097-.082.144-.125a9.953 9.953 0 0 0 .973-.965c.047-.05.09-.106.133-.16.101-.121.199-.242.289-.364.043-.054.09-.113.129-.171a8.75 8.75 0 0 0 .355-.52c0-.004.004-.008.008-.012.117-.187.223-.375.324-.566.008-.02.02-.035.032-.055l.148-.285-.004-.004c.742-1.562.961-3.222.563-4.66l3.851-.789.07-.02c.18-.07.73-.28 1.692-1.886a.718.718 0 0 0-.051-.82zm-7.21 8.364a8.72 8.72 0 0 1-.25.406 6.908 6.908 0 0 1-.309.438c-.032.042-.06.081-.09.124-.082.106-.172.211-.262.317-.035.039-.066.082-.098.117a7.853 7.853 0 0 1-.828.824c-.039.035-.082.07-.12.102-.118.101-.24.199-.36.289-.035.027-.07.05-.106.078-.148.11-.3.219-.46.316v.004c-.177.114-.36.22-.544.317l-1.617-1.617-.16-.016a3.28 3.28 0 0 1-2.031-.945 3.24 3.24 0 0 1-.946-2.036l-.015-.156-1.524-1.527c.032-.063.07-.125.106-.184.047-.086.094-.172.144-.254.051-.082.106-.16.157-.242.054-.082.113-.164.171-.242.051-.074.106-.152.165-.227.07-.09.144-.18.218-.27.047-.058.094-.116.145-.175a7.553 7.553 0 0 1 .813-.816c.077-.067.156-.133.234-.196.062-.05.12-.105.187-.152.094-.074.192-.144.285-.21.051-.036.098-.075.149-.106.101-.07.203-.137.308-.2.047-.03.098-.062.149-.09.039-.023.082-.046.125-.07l1.562 1.563.16.015a3.26 3.26 0 0 1 2.036.946 3.28 3.28 0 0 1 .945 2.035l.016.16 1.66 1.66c-.008.004-.012.012-.016.02zm-8.216 3.894l-.508-.199-.671 4.438c-.13.273-.567.667-1.204 1.097l.082-.273a.706.706 0 0 0-.882-.887l-.578.18.18-.575a.704.704 0 0 0-.177-.71.702.702 0 0 0-.71-.176l-.575.18.18-.575a.702.702 0 0 0-.176-.71.704.704 0 0 0-.71-.177l-.575.18.18-.574a.706.706 0 1 0-.887-.887l-.273.086c.43-.64.824-1.078 1.101-1.207l4.399-.652-.223-.52c-.5-1.18-.422-2.636.133-4.05l1.074 1.074a4.14 4.14 0 0 0 3.598 3.594l1.175 1.175c-1.37.54-2.777.621-3.953.168zM21.902 7.2l-4.8.98.191.485c.488 1.238.371 2.73-.246 4.172l-1.235-1.234a4.15 4.15 0 0 0-1.18-2.418 4.162 4.162 0 0 0-2.417-1.18l-1.133-1.137c1.488-.633 3.035-.738 4.273-.207l.493.215.964-4.766c.098-.199.454-.558 1.176-1.023l-.093.297a.706.706 0 1 0 .887.887l.573-.18-.18.578a.715.715 0 0 0 .177.71c.187.184.46.25.71.173l.579-.18-.18.578a.713.713 0 0 0 .172.711c.187.184.46.25.71.172l.579-.176-.18.574a.706.706 0 0 0 .887.887l.297-.094c-.469.727-.824 1.082-1.024 1.176zm0 0"/>
    <path d="M10.004 10.422a2.4 2.4 0 1 0 3.394 3.394 2.4 2.4 0 0 0-3.394-3.394zm2.777 2.777a1.532 1.532 0 0 1-2.16 0 1.525 1.525 0 0 1 0-2.16 1.523 1.523 0 0 1 2.16 0 1.532 1.532 0 0 1 0 2.16zm0 0M18.809 6.293a5.871 5.871 0 0 1-.61.039c-.16.008-.312.012-.469.031.477-.746.711-1.687.598-2.597a.436.436 0 0 0-.488-.38.432.432 0 0 0-.38.485c.142 1.125-.413 2.344-1.292 2.832a.438.438 0 0 0-.168.594c.07.125.191.2.324.219a.41.41 0 0 0 .13.214.435.435 0 0 0 .616-.05c.38-.45.606-.457 1.16-.473.2-.008.426-.016.688-.05a.432.432 0 0 0 .379-.485.438.438 0 0 0-.488-.379zm0 0M7.137 16.8a.428.428 0 0 0-.133-.218.439.439 0 0 0-.617.05c-.38.45-.606.458-1.157.477a5.97 5.97 0 0 0-.69.047.434.434 0 0 0 .054.867h.054c.223-.03.422-.035.614-.043.156-.003.308-.011.465-.03a3.992 3.992 0 0 0-.598 2.6.435.435 0 0 0 .434.38h.054a.438.438 0 0 0 .38-.489c-.142-1.125.413-2.343 1.292-2.832a.438.438 0 0 0 .168-.593.435.435 0 0 0-.32-.215zm0 0"/>
</svg>
