<svg xmlns="http://www.w3.org/2000/svg" width="32" height="32" viewBox="0 0 24 24">
    <path d="M23.488 10.98c.828-1.062.469-2.054.188-2.402-.621-.93-1.473-1.504-2.54-1.703-.081-.016-.167-.02-.253-.031.11-.094.215-.184.316-.278.715-.675 1.055-1.398 1.016-2.148-.059-1.148-1.008-1.89-1.05-1.922l-.02-.012c-1.672-1.14-3.555.239-3.633.297l-.07.067c-.032.039-.06.078-.087.117-.187-.945-.695-1.695-1.52-2.23-.19-.153-1.425-1.063-2.862-.333-.18.09-.34.207-.493.336-.421-.12-.89-.156-1.351.008a1.64 1.64 0 0 0-1.106 1.438 1.861 1.861 0 0 0 .922 1.777c.575.328 1.258.937 1.899 2.05a2.643 2.643 0 0 0-1.094.141C9.684 6.895 1.512 18.867.062 22.754c-.124.328-.058.672.165.898a.794.794 0 0 0 .566.227c.11 0 .219-.02.332-.063 3.914-1.457 15.938-9.59 16.668-11.625.098-.277.145-.566.148-.867 1.118.547 1.707 1.078 2.012 1.5.45.614 1.172.996 1.89.996h.024a1.784 1.784 0 0 0 1.465-.758c.488-.707.316-1.464.055-1.964.035-.04.07-.078.101-.118zm-.472-1.925c.047.062.425.605-.121 1.363-.016-.023-.036-.04-.055-.059-.027-.035-.059-.07-.086-.101a7.146 7.146 0 0 0-.234-.246c-.024-.028-.047-.051-.07-.075-1.274-1.246-2.727-1.64-4.044-1.64-.465 0-.918.05-1.336.129.047-.024.094-.043.137-.063l.195-.082c.07-.031.141-.058.215-.09l.184-.07c.11-.039.226-.082.344-.121l.218-.07c.07-.024.145-.043.215-.063.082-.023.16-.043.242-.062l.239-.059c.113-.023.226-.043.34-.062l.18-.024c.48-.062.956-.07 1.41.016.85.16 1.511.601 2.027 1.379zm-4.98-5.649c.237-.16 1.55-.988 2.64-.258.074.059.691.59.726 1.313.028.5-.23 1.008-.765 1.516a8.206 8.206 0 0 1-1.13.87c-.054.005-.109.016-.163.024-.114.02-.227.035-.34.059a4.866 4.866 0 0 0-.23.05c-.09.02-.18.04-.266.063a4.38 4.38 0 0 0-.242.066c-.082.024-.16.047-.243.075-.082.027-.164.05-.246.082-.07.023-.144.05-.215.074-.082.031-.167.062-.25.098-.054.019-.105.042-.16.066a11.586 11.586 0 0 0-.992.457c.25-.465.512-1.012.735-1.602l.043-.109c.039-.105.074-.215.109-.324a7.11 7.11 0 0 0 .14-.484c.02-.063.04-.13.055-.196.024-.101.043-.207.063-.309.015-.066.027-.136.039-.203.02-.105.031-.207.043-.308.004-.035.011-.07.015-.106.211-.343.418-.644.633-.914zm-4.68-2.285c1.039-.52 1.94.223 1.976.254a.326.326 0 0 0 .047.031c.652.422 1.039.985 1.18 1.727.062.316.07.648.043.988v.035c-.055.64-.239 1.301-.47 1.914.016-.39 0-.793-.066-1.195-.003-.012-.007-.023-.007-.04a7.663 7.663 0 0 0-.051-.26c-.012-.055-.028-.106-.04-.16l-.034-.134c-.024-.07-.043-.144-.07-.218a4.836 4.836 0 0 0-1.043-1.746 5.374 5.374 0 0 0-.208-.215c-.035-.036-.074-.07-.113-.106a3.393 3.393 0 0 0-.172-.152 4.841 4.841 0 0 0-.344-.278c0-.004-.004-.004-.004-.007-.035-.028-.105-.086-.207-.16 0-.004 0-.004-.003-.004a3.892 3.892 0 0 0-.415-.274zm-2.004 2.133a1.045 1.045 0 0 1-.52-.996c.016-.168.102-.578.566-.742.133-.047.266-.067.403-.067.215 0 .43.051.633.125h.004c.003.004.007.004.015.008.07.027.137.055.203.086l.094.047c.055.027.105.055.156.082l.055.035c.219.129.387.262.469.328l.027.024c.012.007.02.015.031.023.176.133.34.27.492.414.043.04.079.082.118.125.105.106.207.215.297.324.039.051.074.102.109.149.082.113.16.226.23.347.032.047.055.094.082.141.075.14.145.285.204.434.011.023.02.046.03.07.286.762.352 1.629.188 2.594a7.918 7.918 0 0 1-.511 1.742c-.067-.246-.141-.48-.215-.707l-.035-.11c-.07-.207-.141-.406-.215-.593-.012-.032-.024-.067-.04-.098-.874-2.215-1.988-3.277-2.87-3.785zm5.675 8.664c-.218.61-1.75 1.937-3.808 3.48a.358.358 0 0 0-.11-.035c-.664-.074-1.523-.418-1.949-1.02a.407.407 0 0 0-.664.47c.45.64 1.184 1.027 1.856 1.222a102.869 102.869 0 0 1-4.168 2.856.411.411 0 0 0-.22-.106c-.417-.043-.956-.258-1.218-.629a.407.407 0 0 0-.664.469c.3.426.77.691 1.215.84-2.633 1.676-5.121 3.094-6.457 3.59-.008.004-.016.008-.024.008 0-.004.004-.016.008-.024.328-.879.938-2.066 1.707-3.394.016.015.024.035.04.046.292.215.605.399.925.551a.386.386 0 0 0 .172.043.405.405 0 0 0 .367-.234.4.4 0 0 0-.191-.54 5.106 5.106 0 0 1-.79-.476.425.425 0 0 0-.128-.058 89.204 89.204 0 0 1 3.254-5.004c.152.402.41.812.789 1.078a.402.402 0 0 0 .566-.094.412.412 0 0 0-.098-.57c-.37-.262-.582-.801-.628-1.215-.004-.024-.016-.043-.02-.067a74.854 74.854 0 0 1 2.578-3.437c.195.672.582 1.406 1.223 1.86.07.05.152.074.234.074a.407.407 0 0 0 .234-.738c-.601-.426-.945-1.286-1.019-1.95a.111.111 0 0 0-.016-.047c.918-1.09 1.645-1.82 2.004-1.949.2-.07.407-.11.621-.11.204 0 .418.036.641.098.18.407.344.844.492 1.313.008.031.02.058.028.09.062.199.12.402.175.609.012.047.028.094.04.14.062.247.124.5.183.758 0 .02.012.032.016.051.007.016.011.031.02.047l.003.012a.122.122 0 0 0 .027.035c0 .004.004.004.004.008.012.011.02.027.028.039.004 0 .004.004.008.008 0 0 .003 0 .003.004.012.007.024.02.04.027 0 .004.003.004.007.008.012.008.02.02.032.023.003.004.007.004.015.008s.02.008.027.016c.008.003.02.003.028.007.012.004.023.012.039.016.23.059.46.121.68.184.05.015.097.027.148.043.172.05.344.101.512.156a15.438 15.438 0 0 1 .633.21c.027.009.054.02.082.032.191.066.37.133.546.203l.004.004c.051.344.024.66-.082.961zm5.637.68a.948.948 0 0 1-.805.406h-.015c-.465 0-.934-.25-1.235-.66-.562-.77-1.566-1.457-2.984-2.055 0 0-.004 0-.008-.004a32.748 32.748 0 0 0-.773-.297c-.117-.043-.239-.086-.36-.129-.172-.054-.347-.113-.527-.168-.066-.02-.125-.043-.195-.062l.105-.04c.012-.003.024 0 .035-.003 1.27-.465 3.442-.91 5.325.394.097.07.191.149.285.227.047.035.093.066.14.105.29.25.57.551.836.903l.051.066.004.004c.14.192.496.774.121 1.313zm0 0"/>
    <path d="M16.422 11.77c-.832-.317-1.606-.887-2.297-1.696a.4.4 0 0 0-.57-.043.408.408 0 0 0-.047.574c.781.91 1.664 1.56 2.625 1.926a.452.452 0 0 0 .144.028.407.407 0 0 0 .38-.266.41.41 0 0 0-.235-.523zm0 0"/>
</svg>
