<svg xmlns="http://www.w3.org/2000/svg" width="32" height="32" viewBox="0 0 24 24">
    <path d="M23.848 7.398c.011-.085.023-.168.03-.257.009-.11.017-.211.02-.317.004-.066.008-.133.008-.203 0-.105 0-.207-.004-.305l-.011-.207c-.008-.086-.016-.171-.028-.257-.011-.079-.02-.153-.035-.227-.012-.07-.027-.133-.043-.2-.02-.081-.039-.167-.066-.25-.012-.034-.024-.062-.035-.097-.032-.094-.063-.191-.106-.281-.015-.035-.039-.067-.058-.102a3.154 3.154 0 0 0-.192-.32 1.916 1.916 0 0 0-.152-.2 2.259 2.259 0 0 0-.246-.26c-.059-.052-.117-.103-.176-.15a3.158 3.158 0 0 0-.39-.253c-.036-.016-.067-.032-.102-.047a3.428 3.428 0 0 0-.555-.215l-.191-.078c.476-.649.683-1.332.55-1.902-.09-.395-.378-.926-1.238-1.243a.477.477 0 0 0-.605.282c-.09.246.035.52.28.605.372.137.587.328.645.566.082.36-.16.903-.613 1.399-.836-.184-1.973-.258-3.015.25-.004 0-.004.004-.008.004h-.004l-.137.066c-.066.035-.125.082-.191.121-.035.028-.075.051-.114.075a4.64 4.64 0 0 0-.375.296 3.072 3.072 0 0 0-.25.254c-.027.028-.054.059-.082.09-.082.098-.16.195-.234.3-.02.028-.035.056-.055.083a4.82 4.82 0 0 0-.222.367l-.012.031a6.206 6.206 0 0 0-.59 1.688L15.133 7s-.125.582-.184.844C13.352 14.887 7.504 18.625.598 22.449c-.391.215-.598.715-.461 1.113a.627.627 0 0 0 .71.43c.587-.09 1.305-.144 2.137-.21 5.184-.403 14.825-1.157 19.797-12.805.043-.086.563-1.2.883-2.559l.004-.004.031-.148c.004-.008.004-.016.008-.028.04-.183.074-.37.105-.558.016-.098.024-.188.036-.282zm-1.309.707c-.09-1.468-1.105-2.363-1.156-2.406l-.903-.777.125 1.187c.07.66-.382 1.012-.804 1.188.07-1.207-.711-2.004-.75-2.047l-.399-.398-.324.464c-.148.215-.742.477-1.95.625.005-.015.013-.03.017-.046.117-.329.253-.622.414-.88l.023-.035c.055-.082.11-.164.168-.238a2.725 2.725 0 0 1 .914-.754 2.939 2.939 0 0 1 .828-.258l.082-.011c.074-.012.153-.02.23-.024.032 0 .063-.004.094-.004.075-.003.149-.003.22-.003.066 0 .124.003.187.007.097.008.191.016.285.028.05.004.098.011.148.02.055.007.114.015.168.027.055.007.106.02.16.03l.2.048c.058.015.113.027.168.043.035.011.074.023.109.03.047.017.094.032.137.044.023.012.05.02.074.027.058.02.117.04.164.059l.031.011c.04.016.074.032.098.04a.893.893 0 0 1 .05.023l.079.027c.168.047.32.106.46.18.012.004.02.012.028.016.133.07.25.148.36.246.003.004.007.011.015.015.102.094.195.2.273.317.012.02.024.043.04.062.066.106.12.219.171.34l.036.098c.039.12.074.254.097.39.008.032.016.063.02.094.027.172.043.352.043.54v.081c0 .192-.012.39-.032.602-.003.012-.003.02-.003.027a8.419 8.419 0 0 1-.122.746 2.657 2.657 0 0 1-.273.2zM2.914 22.84c-.457.035-.883.07-1.27.11 6.848-3.829 12.586-7.68 14.227-14.9.059-.253.117-.48.18-.69l.015-.07c.016-.13.043-.25.063-.372 1.375-.137 2.11-.398 2.504-.637.18.328.344.86.11 1.504l-.259.715.758-.086c.63-.07 1.637-.418 2.086-1.23.203.406.352.957.227 1.62l-.14.762.741-.222c.012-.004.125-.04.297-.117-.258.777-.52 1.335-.531 1.359C17.164 21.73 8.242 22.426 2.914 22.84zm0 0"/>
    <path d="M19.18 10.035a.47.47 0 0 0-.535.402c-.012.07-1.141 7.067-11.364 10.36a.472.472 0 1 0 .29.898c10.78-3.472 11.964-10.812 12.007-11.125a.472.472 0 0 0-.398-.535zm0 0"/>
</svg>
