<svg xmlns="http://www.w3.org/2000/svg" width="32" height="32" viewBox="0 0 24 24">
    <path d="M6.559 20.508h.836v.836h-.836zm0 0M7.816 20.508h.836v.836h-.836zm0 0M9.07 20.508h.836v.836H9.07zm0 0M10.324 20.508h.84v.836h-.84zm0 0M11.582 20.508h.836v.836h-.836zm0 0M12.836 20.508h.84v.836h-.84zm0 0M14.094 20.508h.836v.836h-.836zm0 0M15.348 20.508h.836v.836h-.836zm0 0M16.605 20.508h.836v.836h-.836zm0 0"/>
    <path d="M19.535 20.848V0h-9.21v2.93h-2.93v2.93h-2.93v14.988l-.91 2.28.207.196c.472.446 1.336.676 2.183.676.672 0 1.336-.145 1.785-.445a2.52 2.52 0 0 0 2.848 0c.848.586 1.992.59 2.844 0 .851.59 1.996.59 2.848 0 .445.297 1.097.441 1.765.445.856.004 1.727-.227 2.203-.676l.207-.195zM18.434 4.68L15.07 17l-9.683-4.262 2.3-1.422zm-2.25-.914v1.32l-1.254.773h-.836V3.766zm-2.09-.836V.836h2.09V2.93zm2.93.836h1.296l-1.297.8zm-3.77 2.093h-2.09V3.766h2.09zm0 .836v.2l-2.09 1.293V6.694zm-2.93 2.008l-.136.086H8.233V6.695h2.09zm-1.492.922l-.598.371v-.371zm-1.437.887l-2.09 1.293v-2.18h2.09zm11.3-7.582h-1.672V.836h1.672zM11.165.836h2.089V2.93h-2.09zm-2.93 2.93h2.09v2.093h-2.09zm-.84 2.93v2.093h-2.09V6.695zm5.601 16.136a1.7 1.7 0 0 1-1.992 0 .715.715 0 0 0-.852 0 1.68 1.68 0 0 1-1 .324c-.351 0-.707-.11-.996-.324a.715.715 0 0 0-.851 0c-.067.05-.149.094-.239.133l-.03.012c-.087.035-.18.066-.282.09l-.05.011a2.67 2.67 0 0 1-.317.055c-.016.004-.035.004-.055.004a4.91 4.91 0 0 1-.344.023h-.035a5.06 5.06 0 0 1-.348-.015c-.011 0-.02 0-.027-.004a3.097 3.097 0 0 1-.34-.047c-.02-.004-.035-.004-.054-.008a4.784 4.784 0 0 1-.301-.078c-.016-.008-.035-.012-.051-.02a2.027 2.027 0 0 1-.262-.11c-.004-.003-.008-.007-.011-.007l.742-1.863v-7.39l9.879 4.343a.418.418 0 0 0 .347-.004.432.432 0 0 0 .227-.27l2.941-10.796v14.117l.746 1.863c-.003 0-.007.004-.015.008-.078.039-.168.078-.262.11a3.219 3.219 0 0 1-.355.098c-.012.003-.028.003-.043.007-.114.02-.23.039-.348.047-.008.004-.012.004-.016.004a3.762 3.762 0 0 1-.363.011c-.008 0-.02.004-.027.004a5.024 5.024 0 0 1-.348-.023c-.016 0-.035-.004-.055-.004a2.475 2.475 0 0 1-.312-.055l-.055-.012a1.921 1.921 0 0 1-.277-.09 1.468 1.468 0 0 1-.27-.145.725.725 0 0 0-.855.001c-.285.215-.64.32-.996.32-.352 0-.707-.105-.996-.32a.715.715 0 0 0-.852 0zm0 0"/>
</svg>
