<svg xmlns="http://www.w3.org/2000/svg" width="32" height="32" viewBox="0 0 24 24">
    <path d="M23.883 22.918l-5.942-5.941c.461-.457.653-1.02.555-1.618-.082-.511-.371-1.027-.836-1.492L6.348 2.555c-.668-.668-1.543-.89-2.317-.672L3.547.82a.708.708 0 0 0-.688-.418.714.714 0 0 0-.644.489l-.262.78-1.582.884a.708.708 0 0 0-.36.757.713.713 0 0 0 .606.579l1.395.199c-.14.754.078 1.558.656 2.14l11.316 11.313c.45.453 1.055.7 1.696.7.644 0 1.246-.247 1.695-.7l5.941 5.941a.399.399 0 0 0 .566 0 .4.4 0 0 0 0-.566zM2.297 3.324L.973 3.133l1.398-.778a.714.714 0 0 0 .332-.398l.203-.613.403.886a2.012 2.012 0 0 0-.239.208l-.398.398c-.102.102-.188.21-.27.328a1.44 1.44 0 0 0-.066.098c-.012.023-.027.039-.04.062zM15.68 17.445c-.43 0-.828-.168-1.13-.468L3.235 5.664c-.3-.3-.464-.703-.464-1.133 0-.207.039-.406.113-.59l.012-.027c.046-.117.113-.223.183-.32.047-.067.098-.133.156-.192L3.637 3c.054-.05.11-.098.168-.14.058-.04.125-.079.199-.118l.11-.054c.156-.063.324-.098.491-.098.407 0 .825.18 1.176.527l11.313 11.317c.343.34.558.714.613 1.05.055.348-.05.649-.328.926l-.567.567c-.3.3-.703.468-1.132.468zm0 0"/>
    <path d="M10.96 11.11a.4.4 0 0 0-.565 0 .396.396 0 0 0 0 .562l2.257 2.262a.405.405 0 0 0 .286.117.4.4 0 0 0 .281-.684zm0 0M7.836 6.121a.4.4 0 0 0-.566.566l1.382 1.387a.405.405 0 0 0 .286.117.4.4 0 0 0 .281-.684zm0 0M7.047 5.336l-.488-.488a.4.4 0 0 0-.567.566l.492.488a.396.396 0 0 0 .563 0 .394.394 0 0 0 0-.566zm0 0"/>
</svg>
