<svg xmlns="http://www.w3.org/2000/svg" width="32" height="32" viewBox="0 0 24 24">
    <path d="M12.008 5.898a.432.432 0 0 0 .617 0 .434.434 0 0 0 0-.617 1.386 1.386 0 0 1 0-1.957 2.266 2.266 0 0 0 0-3.195.434.434 0 0 0-.617 0 .434.434 0 0 0 0 .617c.539.54.539 1.418 0 1.961a2.254 2.254 0 0 0 0 3.191zm0 0M8.29 4.828c0 .406.16.785.444 1.07a.432.432 0 0 0 .617 0 .434.434 0 0 0 0-.617.635.635 0 0 1-.187-.453c0-.172.066-.332.188-.453.59-.59.59-1.55 0-2.14a.434.434 0 0 0-.618 0 .44.44 0 0 0 0 .617c.25.25.25.656 0 .906a1.51 1.51 0 0 0-.445 1.07zm0 0M14.836 4.828c0 .406.156.785.445 1.07a.432.432 0 0 0 .617 0 .441.441 0 0 0 0-.617.635.635 0 0 1-.187-.453c0-.172.066-.332.187-.453.59-.59.59-1.55 0-2.14a.434.434 0 0 0-.617 0 .434.434 0 0 0 0 .617c.25.25.25.656 0 .906-.289.285-.445.668-.445 1.07zm0 0M7.855 13.09c.09 0 .18-.027.258-.082a.44.44 0 0 0 .094-.61 2.92 2.92 0 0 1-.504-2.214.438.438 0 0 0-.348-.508.441.441 0 0 0-.511.351 3.764 3.764 0 0 0 .66 2.887.433.433 0 0 0 .351.176zm0 0"/>
    <path d="M17.598 17.508c-.032-.008-.063-.008-.094-.012l.012-.023c.062.004.113.015.175.015 1.497 0 3.547-1.008 4.063-3.191.238-1.016.18-1.774-.18-2.317-.449-.668-1.222-.84-1.945-.96.035-1.422-.25-2.473-.508-2.985-.078-.152-.316-.617-.738-.617H5.688c-.426 0-.66.465-.739.617-.566 1.125-1.273 4.867 1.61 9.45a5.411 5.411 0 0 0-.09.011c-1.766.313-4.723 1.07-4.723 2.606C1.746 22.07 6.824 24 12 24c5.176 0 10.254-1.93 10.254-3.898 0-1.524-2.914-2.278-4.656-2.594zm1.972-5.613c.551.097 1.04.218 1.278.57.215.324.234.875.054 1.633-.379 1.601-1.797 2.351-2.867 2.492.95-1.746 1.387-3.348 1.535-4.695zM5.805 8.289h12.457c.465.602 1.406 4.52-1.844 9.274h-.004l-.137.195c-.062.09-.12.176-.187.262a5.049 5.049 0 0 1-4.05 2.05h-.005a5.064 5.064 0 0 1-4.058-2.05c-.067-.09-.125-.18-.188-.27l-.14-.2h-.004c-3.243-4.745-2.301-8.66-1.84-9.26zM12 23.13c-5.422 0-9.383-1.992-9.383-3.027 0-.415 1.067-1.223 4.004-1.747.102-.02.2-.027.3-.027.071 0 .141.004.212.012.047.066.094.129.14.195.13.18.27.344.418.504.047.05.098.098.149.145.101.105.21.21.324.308.059.051.121.098.184.149.105.086.218.168.332.25.066.043.133.09.203.132.117.075.234.141.355.207.07.036.14.075.211.11.13.062.258.117.39.172l.208.082c.148.05.3.097.453.136.055.016.113.036.168.051.21.047.426.09.64.117v.047h1.454v-.047c.215-.027.43-.066.636-.117.063-.015.122-.035.184-.05.148-.04.293-.083.438-.137.074-.024.144-.055.218-.086.13-.051.254-.106.38-.164.073-.035.148-.074.218-.117.121-.063.234-.13.348-.2.07-.047.14-.09.21-.14.114-.075.22-.157.325-.242.066-.051.129-.098.191-.153.11-.097.215-.199.317-.3.05-.051.101-.098.152-.153.144-.156.281-.32.406-.492.004-.004.008-.004.012-.008l.133-.187c.172-.024.343-.016.515.015 2.887.524 3.938 1.324 3.938 1.735 0 1.035-3.961 3.027-9.383 3.027zm0 0"/>
</svg>
