<svg xmlns="http://www.w3.org/2000/svg" width="32" height="32" viewBox="0 0 24 24">
    <path d="M12.172 9.238a.454.454 0 0 0 .562.325l1.973-.536a.46.46 0 0 0 .324-.562.455.455 0 0 0-.562-.32l-1.973.535a.455.455 0 0 0-.324.558zm0 0M4.996 11.71l1.371.458a.456.456 0 0 0 .29-.867l-1.372-.461a.458.458 0 0 0-.578.289c-.082.242.047.5.29.582zm0 0M9.973 10.902H10a.46.46 0 0 0 .457-.43l.035-.644a.455.455 0 1 0-.91-.055l-.039.645a.456.456 0 0 0 .43.484zm0 0M18.078 12.867a.46.46 0 0 0 .324.137.46.46 0 0 0 .325-.137.453.453 0 0 0 0-.644l-.457-.457a.457.457 0 0 0-.649.644zm0 0M13.926 11.762a.457.457 0 1 0-.648.648l.456.457c.09.09.207.133.325.133a.455.455 0 0 0 .324-.777zm0 0M12.387 4.734c.05.211.238.348.441.348a.457.457 0 0 0 .445-.566l-.457-1.832a.46.46 0 0 0-.554-.332.455.455 0 0 0-.332.554zm0 0M10.305 7.484c.09.09.207.133.324.133a.455.455 0 0 0 .324-.133.465.465 0 0 0 0-.648l-.46-.457a.457.457 0 0 0-.645.648zm0 0"/>
    <path d="M23.754 14.531a3.605 3.605 0 0 0-1.246-.808c.008-.09.012-.18.012-.262a4.545 4.545 0 0 0-3.313-4.395 3.43 3.43 0 0 0-3.18-4.293c.035-.214.055-.43.055-.648C16.082 1.863 14.477.02 12.5.02h-.523C10 .02 8.395 1.863 8.395 4.125c0 .219.02.434.054.648a3.43 3.43 0 0 0-3.222 4.192A4.574 4.574 0 0 0 1.48 13.46c0 .086.008.172.012.262-.453.18-.879.445-1.246.804L0 14.77l4.387 8.07a1.834 1.834 0 0 0 1.691 1.137h11.844c.738 0 1.414-.454 1.691-1.137L24 14.773zm-21.36-1.039v-.031a3.656 3.656 0 0 1 3.461-3.649.46.46 0 0 0 .364-.214.46.46 0 0 0 .031-.422 2.52 2.52 0 0 1 2.32-3.492c.051 0 .172.007.41.046a.458.458 0 0 0 .508-.605 2.876 2.876 0 0 1-.18-1c0-1.758 1.196-3.188 2.669-3.188h.523c1.469 0 2.668 1.43 2.668 3.188 0 .336-.059.676-.18 1a.457.457 0 0 0 .082.45c.106.124.27.187.43.155.21-.039.328-.046.387-.046a2.519 2.519 0 0 1 2.3 3.53.455.455 0 0 0 .348.638 3.642 3.642 0 0 1 3.07 3.609v.027c-.043-.004-.082-.004-.125-.008-.062-.003-.125-.011-.187-.011-.05-.004-.098-.004-.148-.004-.07 0-.141.004-.207.008-.047 0-.09.004-.133.007a3.995 3.995 0 0 0-.227.028 5.556 5.556 0 0 0-.36.074l-.09.023a5.13 5.13 0 0 0-.26.086 3.932 3.932 0 0 0-.672.324l-.036.024a3.104 3.104 0 0 0-.297.207c-.09-.066-.183-.121-.277-.18a3.683 3.683 0 0 0-4.273.18 3.7 3.7 0 0 0-4.555 0 3.747 3.747 0 0 0-4.594.004 3.38 3.38 0 0 0-.496-.324l-.035-.024a3.78 3.78 0 0 0-.52-.222l-.062-.024a3.544 3.544 0 0 0-.524-.133c-.03-.003-.062-.011-.093-.015a3.888 3.888 0 0 0-.524-.043c-.015 0-.031-.004-.047-.004-.027 0-.054.004-.082.004a3.473 3.473 0 0 0-.289.02c-.035.003-.066.003-.097.007zm16.403 8.934l-.027.054a.911.911 0 0 1-.848.582H6.078a.911.911 0 0 1-.848-.582l-4.085-7.523a2.787 2.787 0 0 1 1.359-.555c.035-.007.07-.007.105-.007.114-.012.23-.016.344-.012.05 0 .098.004.145.008.113.007.222.027.336.046.035.008.074.012.109.024a2.704 2.704 0 0 1 .82.351 2.736 2.736 0 0 1 .48.371l.321.313.32-.312c.067-.067.141-.114.211-.172 1.098-.887 2.72-.84 3.742.172l.325.316.32-.32a2.756 2.756 0 0 1 1.89-.797c.02 0 .044-.008.063-.008.024 0 .047.008.074.008a2.732 2.732 0 0 1 1.88.797l.323.32.32-.32a2.777 2.777 0 0 1 3.906 0l.321.32.325-.32a2.5 2.5 0 0 1 .355-.29c.04-.027.078-.054.117-.078a3 3 0 0 1 .41-.214c.13-.055.266-.102.407-.137l.117-.024c.105-.019.215-.035.324-.046a2.471 2.471 0 0 1 .484.004c.04.003.075.003.11.007.48.059.949.246 1.351.555zm0 0"/>
    <path d="M6.04 16.543a.46.46 0 0 0-.563-.324.46.46 0 0 0-.32.562l1.37 5.032a.455.455 0 0 0 .563.32.458.458 0 0 0 .32-.563zm0 0M18.523 16.219a.458.458 0 0 0-.562.32L16.59 21.57a.46.46 0 0 0 .441.578.455.455 0 0 0 .442-.335l1.37-5.032a.46.46 0 0 0-.32-.562zm0 0M14.328 16.207a.454.454 0 0 0-.496.414l-.457 5.027a.457.457 0 0 0 .414.5h.043c.234 0 .434-.18.453-.414l.457-5.03a.454.454 0 0 0-.414-.497zm0 0M9.672 16.207a.454.454 0 0 0-.414.496l.457 5.031a.461.461 0 0 0 .457.414h.039a.457.457 0 0 0 .414-.5l-.457-5.027a.454.454 0 0 0-.496-.414zm0 0"/>
</svg>
