<svg xmlns="http://www.w3.org/2000/svg" width="32" height="32" viewBox="0 0 24 24">
    <path d="M9.555 14.238a.406.406 0 1 1-.813 0 .406.406 0 0 1 .813 0zm0 0M9.555 15.863a.406.406 0 1 1-.812 0 .406.406 0 0 1 .812 0zm0 0M15.254 14.238a.406.406 0 1 1-.813 0 .406.406 0 0 1 .813 0zm0 0M15.254 15.863a.406.406 0 1 1-.812 0 .406.406 0 0 1 .812 0zm0 0"/>
    <path d="M10.773 0a.408.408 0 0 0-.406.406v5.29c0 .527-.34.976-.812 1.144V.406a.406.406 0 1 0-.813 0V6.84a1.221 1.221 0 0 1-.816-1.145V.406a.406.406 0 1 0-.813 0v5.29c0 .98.7 1.804 1.63 1.992v4.167c-.7.18-1.223.813-1.223 1.567v8.95a1.627 1.627 0 0 0 3.254 0v-8.95c0-.754-.52-1.387-1.22-1.567V7.687a2.04 2.04 0 0 0 1.63-1.992V.406a.41.41 0 0 0-.41-.406zm-.812 13.422v8.95c0 .448-.363.816-.813.816a.815.815 0 0 1-.812-.817v-8.95c0-.444.363-.812.812-.812.45 0 .813.368.813.813zm0 0M16.04.684C15.581.223 14.925 0 14.034 0a.406.406 0 0 0-.406.406v11.797c0 .043.012.086.023.125-.265.29-.433.672-.433 1.094v8.95a1.627 1.627 0 0 0 3.254 0v-8.95c0-.52-.25-.98-.633-1.277 1.039-1.344 1.043-3.332 1.043-6.223v-.899c.012-1.937.02-3.472-.844-4.34zm-.38 21.687c0 .45-.363.817-.812.817a.815.815 0 0 1-.813-.817v-8.95c0-.444.363-.812.813-.812.449 0 .812.368.812.813zm.41-17.351l-.004.902c.004 2.863 0 4.777-1.011 5.894-.07-.007-.137-.02-.207-.02-.141 0-.278.024-.407.06V.835c.45.05.79.187 1.024.422.62.629.613 2.012.605 3.762zm0 0"/>
</svg>
