<svg xmlns="http://www.w3.org/2000/svg" width="32" height="32" viewBox="0 0 24 24">
    <path d="M14.883 3.777a.544.544 0 0 1-1.09 0 .545.545 0 0 1 1.09 0zm0 0M11.617 3.777a.542.542 0 1 1-1.086 0 .542.542 0 1 1 1.086 0zm0 0M13.25 2.691a.542.542 0 1 1-1.086 0c0-.3.242-.546.543-.546.3 0 .543.246.543.546zm0 0M16.86 14.68h-1.196c-.504 0-.976.125-1.394.343a3.045 3.045 0 0 0-.82-2.793l-.848-.843a.476.476 0 0 0-.676 0l-.848.843a3.048 3.048 0 0 0-.82 2.79 3.024 3.024 0 0 0-1.39-.34H7.671a.48.48 0 0 0-.477.48v1.195a3.044 3.044 0 0 0 3.043 3.043h1.196a.477.477 0 0 0 .476-.48v-1.195a3.1 3.1 0 0 0-.023-.383l.039.039a.476.476 0 0 0 .676 0l.05-.047c-.02.129-.03.258-.03.39v1.196c0 .266.214.48.48.48h1.195a3.044 3.044 0 0 0 3.043-3.043V15.16a.48.48 0 0 0-.48-.48zm-5.907 3.758h-.719a2.084 2.084 0 0 1-2.082-2.083v-.714h.715c1.153 0 2.086.933 2.086 2.082zm1.309-2.079l-.504-.504a2.084 2.084 0 0 1 0-2.945l.504-.508.508.508a2.084 2.084 0 0 1 0 2.945zm4.12-.004a2.087 2.087 0 0 1-2.085 2.082h-.715v-.714c0-1.149.934-2.082 2.082-2.082h.719zm0 0"/>
    <path d="M23.652 21.457l-1.347-1.348c-.004-.043-.004-.086-.012-.132L20.996 9.28c.582-.144.996-.562.996-1.074v-.094c0-1.324-1.316-2.504-2.957-2.773-.531-.922-3.012-4.824-7.215-5.332L11.762 0l-.055.008c-4.187.504-6.664 4.379-7.21 5.32-1.68.242-3.044 1.438-3.044 2.785v.094c0 .59.55 1.055 1.277 1.125L1.691 20.004c-.004.039-.007.078-.007.117L.348 21.457c-.364.363-.45.895-.22 1.355.231.461.708.708 1.216.637l2.496-.355a.52.52 0 0 0 .074.02c2.656.59 5.336.886 8.016.886 2.543 0 5.086-.266 7.613-.797l.496-.105.055-.012 2.562.363c.512.078.985-.176 1.215-.637.23-.46.145-.992-.219-1.355zM11.762.969C14.879 1.37 17 4 17.863 5.28H5.664C6.524 4 8.641 1.371 11.762.97zM2.414 8.207v-.094c0-.867 1.18-1.87 2.707-1.87h13.203c1.528 0 2.711 1.003 2.711 1.87V8.2c-.012.035-.094.098-.226.14l-4.016.59c-1.223.18-3.219.266-5.211.262-1.992-.004-3.984-.097-5.191-.28l-3.567-.544v.008c-.246-.023-.394-.129-.41-.168zm20.602 14.176a.21.21 0 0 1-.223.117l-2.77-.395-.093.024a.729.729 0 0 0-.086.027l-.496.106a35.77 35.77 0 0 1-15.246-.09.704.704 0 0 0-.082-.031l-.102-.028-2.707.387a.203.203 0 0 1-.227-.117c-.023-.051-.054-.153.043-.246l1.618-1.617v-.274c0-.043-.004-.09.003-.14L3.684 9.468l2.562.39c.16.024.336.047.52.07h.015c.18.02.371.04.57.06h.012c1.227.109 2.782.167 4.332.167h.008c.02 0 .035 0 .055-.004.226 0 .453 0 .68-.004h.082l.656-.011c.031 0 .062 0 .094-.004.21-.004.418-.008.62-.016.044-.004.087-.004.13-.008l.562-.023.172-.012c.168-.008.332-.015.488-.027.074-.004.145-.012.219-.016.133-.011.27-.02.398-.031.098-.008.192-.02.29-.027.09-.012.187-.02.277-.028.18-.023.347-.043.508-.066l3.113-.457L21.34 20.09c.008.047.004.09.004.137v.277l1.629 1.633c.097.093.066.195.043.246zm0 0"/>
</svg>
