<svg xmlns="http://www.w3.org/2000/svg" width="32" height="32" viewBox="0 0 24 24">
    <path d="M19.563 20.3c.082-.284.164-.57.242-.855.066-.254.129-.508.191-.761.05-.22.102-.438.152-.653.067-.297.13-.597.192-.894.031-.16.058-.325.09-.485.066-.343.125-.691.18-1.039.011-.062.019-.129.03-.195.301-1.98.454-3.984.438-6.004v-.066c0-.735-.332-1.325-.84-1.621V5.332h-2.222V4h-2.223V2.223H13.57V0h-3.113v2.223H8.238V4H6.016v1.332H3.793v2.375c-.531.293-.875.89-.875 1.64v.079a39.206 39.206 0 0 0 .441 5.906l.047.305c.051.332.114.664.172.992.035.18.067.36.102.539.058.289.12.574.183.863.051.23.106.457.16.688.063.246.122.496.188.742.074.293.156.582.242.875.055.187.106.379.164.566.149.489.305.973.473 1.453l.129.375h.008c.296.72 1.097 1.27 1.87 1.27h9.805c.938 0 1.735-.629 1.977-1.52l.02-.011.023-.149c.168-.48.324-.96.473-1.445.058-.191.113-.383.168-.574zm.218-5.148c-.015.094-.027.188-.043.278-.05.328-.105.652-.164.976l-.094.492c-.058.286-.117.575-.18.86-.05.219-.1.441-.155.66-.06.238-.114.477-.176.715-.117.453-.246.906-.383 1.355-.027.094-.059.188-.09.282-.101.32-.203.636-.312.957-.153-.032-.344-.067-.536-.106-1.308-.254-3.742-.73-5.632-.73-2.207 0-5.149.574-6.207.8a25.336 25.336 0 0 1-.286-.875c-.035-.113-.074-.226-.109-.343-.137-.45-.262-.907-.379-1.36-.058-.222-.11-.449-.164-.672-.055-.238-.113-.476-.164-.71-.062-.278-.117-.551-.172-.829-.035-.18-.07-.359-.101-.539-.059-.308-.11-.617-.16-.925-.02-.126-.036-.25-.055-.372a39.403 39.403 0 0 1-.356-3.593c0-.028-.004-.051-.004-.078.059-.215.23-.594.684-.594h1.27c.59 0 1.144.281 1.476.758.996 1.406 3.219 2.273 4.707 2.273 1.492 0 3.719-.867 4.711-2.273a1.802 1.802 0 0 1 1.477-.758h1.27c.472 0 .64.422.69.617 0 .016-.003.031-.003.043a37.479 37.479 0 0 1-.36 3.691zM3.81 9.426v-.078c0-.391.171-.809.543-.918a.706.706 0 0 1 .191-.028h1.273a1.9 1.9 0 0 1 .516.078c.39.122.734.368.973.7a4.432 4.432 0 0 0 .934.93v.003l.19.133c.016.012.032.02.048.031.601.407 1.3.72 1.984.914v.012l.344.082c.011 0 .02.004.03.004.2.047.395.082.583.106a4.598 4.598 0 0 0 .582.04c.184-.001.375-.013.578-.04.008 0 .016 0 .02-.004.203-.024.414-.063.625-.114.004 0 .004 0 .007-.004l.34-.078v-.011a7.074 7.074 0 0 0 2.032-.961l.191-.133v-.008c.344-.262.648-.559.887-.887.004-.008.008-.011.011-.02.247-.34.602-.59 1-.702.168-.047.332-.07.493-.07h1.27c.062 0 .128.007.21.034.36.118.523.524.523.915v.066c.004.227-.003.45-.007.676a1.508 1.508 0 0 0-.727-.184h-1.27c-.878 0-1.699.422-2.203 1.133-.8 1.137-2.707 1.898-3.984 1.898-1.273 0-3.176-.761-3.98-1.898A2.69 2.69 0 0 0 5.812 9.91H4.543c-.262 0-.504.067-.723.18-.004-.219-.011-.442-.011-.664zm15.539-3.203v1.289h-1.164c-.055 0-.114 0-.168.004V6.223zM17.125 4.89v2.84a2.69 2.69 0 0 0-1.145.914c-.007.011-.015.02-.023.03-.05.071-.105.134-.164.196v-3.98zm-2.223-1.782v6.508c-.402.235-.863.371-1.332.488V3.11zM11.348.891h1.332v9.59a3.14 3.14 0 0 1-.356.046c-.21.02-.414.02-.625.004-.011 0-.02-.004-.027-.004a3.367 3.367 0 0 1-.324-.043zM9.125 3.109h1.336v7c-.469-.113-.93-.242-1.336-.472zM6.902 4.891h1.336v4.004a1.403 1.403 0 0 1-.203-.227.104.104 0 0 0-.02-.023 2.627 2.627 0 0 0-1.113-.899zM4.68 6.223h1.336V7.52a3.395 3.395 0 0 0-.2-.008H4.68zm12.222 16.886H7.098c-.364 0-.774-.254-.977-.574 1.121-.234 3.875-.758 5.895-.758 1.804 0 4.183.465 5.46.72.16.026.29.054.407.077-.211.324-.57.535-.98.535zm0 0"/>
    <path d="M12.238 14.668c-1.96 0-3.558 1.195-3.558 2.664 0 1.473 1.597 2.668 3.558 2.668 1.961 0 3.555-1.195 3.555-2.668 0-1.469-1.594-2.664-3.555-2.664zm0 4.441c-1.445 0-2.668-.812-2.668-1.777 0-.96 1.223-1.777 2.668-1.777 1.446 0 2.664.816 2.664 1.777 0 .965-1.218 1.777-2.664 1.777zm0 0"/>
</svg>
