<svg xmlns="http://www.w3.org/2000/svg" width="32" height="32" viewBox="0 0 24 24">
    <path d="M 19.5625 20.300781 C 19.644531 20.015625 19.726562 19.730469 19.804688 19.445312 C 19.871094 19.191406 19.933594 18.9375 19.996094 18.683594 C 20.046875 18.464844 20.097656 18.246094 20.148438 18.03125 C 20.214844 17.734375 20.277344 17.433594 20.339844 17.136719 C 20.371094 16.976562 20.398438 16.8125 20.429688 16.652344 C 20.496094 16.308594 20.554688 15.960938 20.609375 15.613281 C 20.621094 15.550781 20.628906 15.484375 20.640625 15.417969 C 20.941406 13.4375 21.09375 11.433594 21.078125 9.414062 L 21.078125 9.347656 C 21.078125 8.613281 20.746094 8.023438 20.238281 7.726562 L 20.238281 5.332031 L 18.015625 5.332031 L 18.015625 4 L 15.792969 4 L 15.792969 2.222656 L 13.570312 2.222656 L 13.570312 0 L 10.457031 0 L 10.457031 2.222656 L 8.238281 2.222656 L 8.238281 4 L 6.015625 4 L 6.015625 5.332031 L 3.792969 5.332031 L 3.792969 7.707031 C 3.261719 8 2.917969 8.597656 2.917969 9.347656 L 2.917969 9.425781 C 2.914062 11.410156 3.066406 13.382812 3.359375 15.332031 C 3.375 15.433594 3.390625 15.535156 3.40625 15.636719 C 3.457031 15.96875 3.519531 16.300781 3.578125 16.628906 C 3.613281 16.808594 3.644531 16.988281 3.679688 17.167969 C 3.738281 17.457031 3.800781 17.742188 3.863281 18.03125 C 3.914062 18.261719 3.96875 18.488281 4.023438 18.71875 C 4.085938 18.964844 4.144531 19.214844 4.210938 19.460938 C 4.285156 19.753906 4.367188 20.042969 4.453125 20.335938 C 4.507812 20.523438 4.558594 20.714844 4.617188 20.902344 C 4.765625 21.390625 4.921875 21.875 5.089844 22.355469 L 5.21875 22.730469 L 5.226562 22.730469 C 5.523438 23.449219 6.324219 24 7.097656 24 L 16.902344 24 C 17.839844 24 18.636719 23.371094 18.878906 22.480469 L 18.898438 22.46875 L 18.921875 22.320312 C 19.089844 21.839844 19.246094 21.359375 19.394531 20.875 C 19.453125 20.683594 19.507812 20.492188 19.5625 20.300781 Z M 19.78125 15.152344 C 19.765625 15.246094 19.753906 15.339844 19.738281 15.429688 C 19.6875 15.757812 19.632812 16.082031 19.574219 16.40625 C 19.542969 16.570312 19.511719 16.734375 19.480469 16.898438 C 19.421875 17.183594 19.363281 17.472656 19.300781 17.757812 C 19.25 17.976562 19.199219 18.199219 19.144531 18.417969 C 19.085938 18.65625 19.03125 18.894531 18.96875 19.132812 C 18.851562 19.585938 18.722656 20.039062 18.585938 20.488281 C 18.558594 20.582031 18.527344 20.675781 18.496094 20.769531 C 18.394531 21.089844 18.292969 21.40625 18.183594 21.726562 C 18.03125 21.695312 17.839844 21.660156 17.648438 21.621094 C 16.339844 21.367188 13.90625 20.890625 12.015625 20.890625 C 9.808594 20.890625 6.867188 21.464844 5.808594 21.691406 C 5.707031 21.398438 5.613281 21.109375 5.523438 20.816406 C 5.488281 20.703125 5.449219 20.589844 5.414062 20.472656 C 5.277344 20.023438 5.152344 19.566406 5.035156 19.113281 C 4.976562 18.890625 4.925781 18.664062 4.871094 18.441406 C 4.816406 18.203125 4.757812 17.964844 4.707031 17.730469 C 4.644531 17.453125 4.589844 17.179688 4.535156 16.902344 C 4.5 16.722656 4.464844 16.542969 4.433594 16.363281 C 4.375 16.054688 4.324219 15.746094 4.273438 15.4375 C 4.253906 15.3125 4.238281 15.1875 4.21875 15.066406 C 4.046875 13.875 3.925781 12.679688 3.863281 11.472656 C 3.863281 11.445312 3.859375 11.421875 3.859375 11.394531 C 3.917969 11.179688 4.089844 10.800781 4.542969 10.800781 L 5.8125 10.800781 C 6.402344 10.800781 6.957031 11.082031 7.289062 11.558594 C 8.285156 12.964844 10.507812 13.832031 11.996094 13.832031 C 13.488281 13.832031 15.714844 12.964844 16.707031 11.558594 C 17.042969 11.082031 17.59375 10.800781 18.183594 10.800781 L 19.453125 10.800781 C 19.925781 10.800781 20.09375 11.222656 20.144531 11.417969 C 20.144531 11.433594 20.140625 11.449219 20.140625 11.460938 C 20.082031 12.699219 19.960938 13.933594 19.78125 15.152344 Z M 3.808594 9.425781 L 3.808594 9.347656 C 3.808594 8.957031 3.980469 8.539062 4.351562 8.429688 C 4.421875 8.410156 4.484375 8.402344 4.542969 8.402344 L 5.816406 8.402344 C 5.980469 8.402344 6.152344 8.429688 6.332031 8.480469 C 6.722656 8.601562 7.066406 8.847656 7.304688 9.179688 C 7.3125 9.1875 7.320312 9.195312 7.328125 9.207031 C 7.570312 9.539062 7.882812 9.839844 8.238281 10.109375 L 8.238281 10.113281 L 8.429688 10.246094 C 8.445312 10.257812 8.460938 10.265625 8.476562 10.277344 C 9.078125 10.683594 9.777344 10.996094 10.460938 11.191406 L 10.460938 11.203125 L 10.804688 11.285156 C 10.816406 11.285156 10.824219 11.289062 10.835938 11.289062 C 11.035156 11.335938 11.230469 11.371094 11.417969 11.394531 C 11.425781 11.394531 11.4375 11.394531 11.445312 11.398438 C 11.636719 11.421875 11.824219 11.433594 12 11.433594 C 12.183594 11.433594 12.375 11.421875 12.578125 11.394531 C 12.585938 11.394531 12.59375 11.394531 12.597656 11.390625 C 12.800781 11.367188 13.011719 11.328125 13.222656 11.277344 C 13.226562 11.277344 13.226562 11.277344 13.230469 11.273438 L 13.570312 11.195312 L 13.570312 11.183594 C 14.25 10.984375 14.949219 10.667969 15.546875 10.257812 C 15.566406 10.246094 15.585938 10.234375 15.601562 10.222656 L 15.792969 10.089844 L 15.792969 10.082031 C 16.136719 9.820312 16.441406 9.523438 16.679688 9.195312 C 16.683594 9.1875 16.6875 9.183594 16.691406 9.175781 C 16.9375 8.835938 17.292969 8.585938 17.691406 8.472656 C 17.859375 8.425781 18.023438 8.402344 18.183594 8.402344 L 19.453125 8.402344 C 19.515625 8.402344 19.582031 8.410156 19.664062 8.4375 C 20.023438 8.554688 20.1875 8.960938 20.1875 9.351562 L 20.1875 9.417969 C 20.191406 9.644531 20.183594 9.867188 20.179688 10.09375 C 19.964844 9.976562 19.71875 9.910156 19.453125 9.910156 L 18.183594 9.910156 C 17.304688 9.910156 16.484375 10.332031 15.980469 11.042969 C 15.179688 12.179688 13.273438 12.941406 11.996094 12.941406 C 10.722656 12.941406 8.820312 12.179688 8.015625 11.042969 C 7.515625 10.332031 6.691406 9.910156 5.8125 9.910156 L 4.542969 9.910156 C 4.28125 9.910156 4.039062 9.976562 3.820312 10.089844 C 3.816406 9.871094 3.808594 9.648438 3.808594 9.425781 Z M 19.347656 6.222656 L 19.347656 7.511719 L 18.183594 7.511719 C 18.128906 7.511719 18.070312 7.511719 18.015625 7.515625 L 18.015625 6.222656 Z M 17.125 4.890625 L 17.125 7.730469 C 16.671875 7.921875 16.273438 8.234375 15.980469 8.644531 C 15.972656 8.65625 15.964844 8.664062 15.957031 8.675781 C 15.90625 8.746094 15.851562 8.808594 15.792969 8.871094 L 15.792969 4.890625 Z M 14.902344 3.109375 L 14.902344 9.617188 C 14.5 9.851562 14.039062 9.988281 13.570312 10.105469 L 13.570312 3.109375 Z M 11.347656 0.890625 L 12.679688 0.890625 L 12.679688 10.480469 C 12.570312 10.5 12.464844 10.515625 12.359375 10.523438 C 12.347656 10.527344 12.335938 10.527344 12.324219 10.527344 C 12.113281 10.546875 11.910156 10.546875 11.699219 10.53125 C 11.6875 10.53125 11.679688 10.527344 11.671875 10.527344 C 11.566406 10.519531 11.460938 10.503906 11.347656 10.484375 Z M 9.125 3.109375 L 10.460938 3.109375 L 10.460938 10.109375 C 9.992188 9.996094 9.53125 9.867188 9.125 9.636719 Z M 6.902344 4.890625 L 8.238281 4.890625 L 8.238281 8.894531 C 8.164062 8.828125 8.09375 8.75 8.035156 8.667969 C 8.03125 8.660156 8.023438 8.652344 8.015625 8.644531 C 7.734375 8.242188 7.34375 7.9375 6.902344 7.746094 Z M 4.679688 6.222656 L 6.015625 6.222656 L 6.015625 7.519531 C 5.949219 7.515625 5.882812 7.511719 5.816406 7.511719 L 4.679688 7.511719 Z M 16.902344 23.109375 L 7.097656 23.109375 C 6.734375 23.109375 6.324219 22.855469 6.121094 22.535156 C 7.242188 22.300781 9.996094 21.777344 12.015625 21.777344 C 13.820312 21.777344 16.199219 22.242188 17.476562 22.496094 C 17.636719 22.523438 17.765625 22.550781 17.882812 22.574219 C 17.671875 22.898438 17.3125 23.109375 16.902344 23.109375 Z M 16.902344 23.109375"/>
    <path d="M 12.238281 14.667969 C 10.277344 14.667969 8.679688 15.863281 8.679688 17.332031 C 8.679688 18.804688 10.277344 20 12.238281 20 C 14.199219 20 15.792969 18.804688 15.792969 17.332031 C 15.792969 15.863281 14.199219 14.667969 12.238281 14.667969 Z M 12.238281 19.109375 C 10.792969 19.109375 9.570312 18.296875 9.570312 17.332031 C 9.570312 16.371094 10.792969 15.554688 12.238281 15.554688 C 13.683594 15.554688 14.902344 16.371094 14.902344 17.332031 C 14.902344 18.296875 13.683594 19.109375 12.238281 19.109375 Z M 12.238281 19.109375"/>
</svg>
