<svg xmlns="http://www.w3.org/2000/svg" width="32" height="32" viewBox="0 0 24 24">
    <path d="M21.969 22.082c-.149-.742-.828-1.281-1.621-1.281l-1.082-7.203c.672-.047 1.261-.48 1.453-1.09a1.606 1.606 0 0 0-1.52-2.11h-.418c-.195-3.226-2.699-5.671-6.082-5.968.114-.02.274-.032.5-.032h5.403c1.12 0 1.687 0 1.78-.902a1.802 1.802 0 0 0 1.22-1.695C21.602.809 20.793 0 19.8 0 18.809 0 18 .809 18 1.8a1.8 1.8 0 0 0 1.484 1.766c-.195.032-.582.036-.882.036h-5.403c-1.11 0-1.46.355-1.562.812-3.551.164-6.219 2.652-6.418 5.984h-.367c-.797 0-1.477.543-1.622 1.293-.093.489.024.977.325 1.34.277.34.691.543 1.18.567L3.655 20.8h-.004c-.793 0-1.472.539-1.62 1.277A1.6 1.6 0 0 0 3.601 24h16.796a1.6 1.6 0 0 0 1.57-1.918zM18.8 1.801c0-.551.449-1 1-1 .55 0 1 .449 1 1 0 .55-.45 1-1 1-.551 0-1-.45-1-1zM12 5.199c3.277 0 5.781 2.211 5.988 5.2H6.012c.207-2.989 2.71-5.2 5.988-5.2zm9.02 17.707a.8.8 0 0 1-.622.293H3.602a.8.8 0 0 1-.786-.965c.07-.359.43-.632.836-.632h.692l1.199-7.985a.716.716 0 0 0-.164-.57.739.739 0 0 0-.578-.246.794.794 0 0 1-.63-.278.817.817 0 0 1-.155-.683c.07-.363.43-.64.836-.64h14.347a.81.81 0 0 1 .649.331c.152.211.191.473.109.735-.102.312-.434.535-.809.535a.696.696 0 0 0-.691.8l1.2 8h.69c.407 0 .766.274.837.637a.802.802 0 0 1-.164.668zm0 0"/>
    <path d="M6.445 14.398l-.898 7.204h12.906l-.898-7.204zm10.403.801l.3 2.403H6.852l.3-2.403zM6.453 20.801l.3-2.403h10.493l.3 2.403zm0 0"/>
    <path d="M10.8 16.8h2a.401.401 0 0 0 0-.8h-2a.401.401 0 1 0 0 .8zm0 0M12.8 19.2h-2a.401.401 0 0 0 0 .8h2a.4.4 0 0 0 0-.8zm0 0M8.625 6.875c-.438.32-.773.727-.988 1.207a.394.394 0 0 0 .199.527c.05.028.11.036.164.036a.396.396 0 0 0 .363-.235c.16-.351.407-.648.735-.887a.403.403 0 0 0 .09-.558.404.404 0 0 0-.563-.09zm0 0M12 6c-.445 0-.867.027-1.258.086a.401.401 0 0 0 .059.797c.02 0 .039 0 .058-.004A8.01 8.01 0 0 1 12 6.8c.223 0 .398-.18.398-.403A.398.398 0 0 0 12 6zm0 0M12.398 13.602h2.403a.401.401 0 0 0 0-.801h-2.403a.4.4 0 0 0 0 .8zm0 0M16.398 13.602h.801a.401.401 0 0 0 0-.8l-.8-.001a.4.4 0 0 0 0 .8zm0 0"/>
</svg>
