<svg xmlns="http://www.w3.org/2000/svg" width="32" height="32" viewBox="0 0 24 24">
    <path d="M19.73 4.219C15.816.309 11.36-.938 7.168.707l-.54.215.317.488c.145.223.29.434.438.633-1.094.55-2.14 1.324-3.13 2.312C2.165 6.445.692 10 .208 14.117c-.332 2.848-.113 5.395.555 7.012.125.437.32.8.593 1.066.02.016.04.024.055.04.024.023.047.05.07.074.004.007.012.015.016.02.004.007.004.01.012.015 0 .004.004.008.008.008v.003c.004.004.004.004.007.004 0 .004.004.004.008.008s.012.012.016.02c.039.043.094.078.137.113l.023.023c1.04.934 2.973 1.461 5.492 1.477h.114c3.984 0 9.292-1.324 12.273-4.309 1.016-1.015 1.809-2.101 2.363-3.238.211.14.43.277.66.418l.489.29.199-.532c1.558-4.145.289-8.55-3.567-12.41zm-.816 14.8c-2.816 2.817-7.926 4.047-11.707 4.032a14.336 14.336 0 0 1-1.805-.125c2.602-.516 5.836-2.192 7.325-4.625a.475.475 0 1 0-.809-.5c-1.43 2.336-4.883 4.023-7.395 4.304-1.09.122-1.925-.027-2.32-.41-.004-.004-.012-.011-.015-.02-.274-.581 1.308-4.034 3.578-5.718a.474.474 0 1 0-.567-.762c-1.55 1.153-3 3.278-3.636 4.899a6.161 6.161 0 0 1 .03-.914c.282-2.512 1.97-5.965 4.305-7.395a.468.468 0 0 0 .157-.652.474.474 0 0 0-.653-.156C3.27 12.28 1.72 14.922 1.02 17.309c-.036-.961.007-2.004.132-3.082.45-3.848 1.864-7.29 3.774-9.2.965-.965 1.992-1.71 3.054-2.222 1.5 1.754 2.922 2.32 3.836 2.492-.105.144-.191.285-.28.43-.052.074-.106.148-.15.226-.062.098-.109.195-.163.293-.063.117-.133.234-.192.352-.027.05-.047.105-.07.156-.074.16-.149.316-.211.469-.004.02-.012.035-.016.054-1.035 2.653-.265 4.77-.05 5.27l.074.172.176.074c.46.2 2.32.883 4.707.148h.004c.171-.054.347-.117.527-.187a.673.673 0 0 0 .082-.027c.133-.055.273-.122.41-.184.074-.035.145-.063.219-.098.105-.054.219-.12.328-.18.105-.058.207-.109.316-.171.075-.047.153-.106.23-.156.141-.086.282-.172.423-.274.183.992.843 2.59 2.988 4.23-.512 1.09-1.27 2.141-2.254 3.126zm3.68-3.273c-.14-.094-.266-.184-.395-.273l-.164-.121c-3.21-2.32-2.98-4.434-2.965-4.547l.215-1.278-.008.004-.984.836c-3.133 2.664-6.023 1.906-6.809 1.625a6.072 6.072 0 0 1-.183-.652 6.413 6.413 0 0 1-.133-1.434c.027-1.277.441-2.96 1.941-4.722l.832-.985-1.23.2-.04.007c-.003 0-.019.004-.038.004h-.024c-.011.004-.023.004-.039.004-.422.016-2.144-.078-4.082-2.492l-.136-.168c-.09-.117-.18-.234-.274-.363 3.652-1.176 7.531.05 10.98 3.5 3.407 3.406 4.649 7.238 3.536 10.855zm0 0"/>
</svg>
