<svg xmlns="http://www.w3.org/2000/svg" width="32" height="32" viewBox="0 0 24 24">
    <path d="M13.32 20.145a.427.427 0 1 1-.853-.002.427.427 0 0 1 .853.002zm0 0M12.035 21.855a.428.428 0 1 1-.857.003.428.428 0 0 1 .857-.003zm0 0M14.605 21.43a.427.427 0 1 1-.853-.002.427.427 0 0 1 .853.002zm0 0M16.32 20.57a.428.428 0 1 1-.857.003.428.428 0 0 1 .857-.003zm0 0M6.168 18.883l-.727 1.262.727 1.257h1.453l.727-1.257-.727-1.262zm.957 1.66H6.66l-.23-.398.23-.403h.465l.23.403zm0 0M8.738 17.145l-.726 1.257.726 1.258h1.453l.727-1.258-.727-1.257zm.957 1.66H9.23L9 18.402 9.23 18h.465l.23.402zm0 0"/>
    <path d="M20.41.125a.427.427 0 0 0-.605 0l-3.383 3.383-.047.043-5.313 5.316-.042.035-.364.305.336.336a.635.635 0 0 1 .188.453.637.637 0 0 1-.188.457.66.66 0 0 1-.91 0l-1.21-1.21a.646.646 0 0 1 0-.911c.25-.25.655-.25.913.004l.336.336.3-.367 4.864-4.875L17.98.734a.427.427 0 0 0 0-.605.427.427 0 0 0-.605 0l-3.3 3.3h-7.61c-.707 0-1.285.579-1.285 1.286v.86c0 .695.554 1.26 1.242 1.284-.094.227-.356.368-.867.606-.883.402-2.09.957-2.09 3.004v9.511A4.027 4.027 0 0 0 7.488 24h7.383a4.024 4.024 0 0 0 4.02-4.02V10.47c0-2.047-1.207-2.602-2.086-3.004-.516-.238-.774-.38-.867-.606a1.288 1.288 0 0 0 1.242-1.285v-.86c0-.206-.059-.41-.16-.593l3.39-3.39a.427.427 0 0 0 0-.606zM9.93 11.512c.254.25.254.66 0 .91a.641.641 0 0 1-.907 0l-1.062-1.059-.606-.61-.453-.452a.635.635 0 0 1-.187-.453.637.637 0 0 1 .64-.645c.172 0 .336.067.454.188zm-1.97 1.062a.644.644 0 0 1 0 .91.669.669 0 0 1-.91 0L5.84 12.27a.641.641 0 1 1 .91-.907zm6.911 10.57H7.488A3.172 3.172 0 0 1 4.32 19.98v-3.414c.637.368 1.223.532 1.785.532 1 0 1.93-.508 2.942-1.29 1.508-1.163 2.57-1.093 4.367.29.906.699 1.7 1.054 2.508 1.054.668 0 1.351-.246 2.113-.734v3.562a3.168 3.168 0 0 1-3.164 3.165zm1.574-14.902c.817.375 1.59.73 1.59 2.227v4.906c-1.633 1.215-2.582 1.215-4.098.047-1.789-1.379-3.316-1.91-5.414-.293-1.73 1.332-2.777 1.445-4.203.414v-5.074c0-1.496.774-1.852 1.59-2.227.66-.305 1.41-.648 1.41-1.633V6h-.855a.428.428 0 0 1-.43-.426v-.86c0-.234.192-.425.43-.425h6.754l-3.18 3.176a1.503 1.503 0 0 0-1.773.262c-.207.207-.34.46-.399.726-.531-.183-1.164-.074-1.574.332a1.495 1.495 0 0 0-.344 1.574 1.496 1.496 0 0 0-.715.395 1.5 1.5 0 0 0 0 2.121l1.211 1.215c.282.281.66.437 1.059.437.402 0 .781-.156 1.062-.437.2-.2.332-.45.395-.719.168.063.34.098.516.098.382 0 .765-.149 1.058-.442a1.486 1.486 0 0 0 .34-1.586c.27-.058.523-.183.723-.382a1.5 1.5 0 0 0 .258-1.773l3.18-3.18v.503c0 .985.75 1.329 1.41 1.633zm-.125-2.668a.428.428 0 0 1-.43.426h-.75l1.18-1.18zm0 0"/>
</svg>
