<svg xmlns="http://www.w3.org/2000/svg" width="32" height="32" viewBox="0 0 24 24">
    <path d="M8.257812 12.691406C8.257812 12.925781 8.0625 13.117188 7.828125 13.117188 7.589844 13.117188 7.398438 12.925781 7.398438 12.691406 7.398438 12.453125 7.589844 12.261719 7.828125 12.261719 8.0625 12.261719 8.257812 12.453125 8.257812 12.691406zM8.261719 14.832031C8.261719 15.070312 8.070312 15.261719 7.835938 15.261719 7.597656 15.261719 7.40625 15.070312 7.40625 14.832031 7.40625 14.597656 7.597656 14.402344 7.835938 14.402344 8.070312 14.402344 8.261719 14.597656 8.261719 14.832031zM10.058594 12.941406C10.058594 13.175781 9.863281 13.371094 9.628906 13.371094 9.390625 13.371094 9.199219 13.175781 9.199219 12.941406 9.199219 12.703125 9.390625 12.511719 9.628906 12.511719 9.863281 12.511719 10.058594 12.703125 10.058594 12.941406zM6.886719 19.285156C6.886719 19.523438 6.691406 19.714844 6.457031 19.714844 6.21875 19.714844 6.027344 19.523438 6.027344 19.285156 6.027344 19.050781 6.21875 18.855469 6.457031 18.855469 6.691406 18.855469 6.886719 19.050781 6.886719 19.285156zM9.457031 21.429688C9.457031 21.664062 9.265625 21.855469 9.027344 21.855469 8.792969 21.855469 8.597656 21.664062 8.597656 21.429688 8.597656 21.191406 8.792969 21 9.027344 21 9.265625 21 9.457031 21.191406 9.457031 21.429688zM7.3125 21.429688C7.3125 21.664062 7.121094 21.855469 6.886719 21.855469 6.648438 21.855469 6.457031 21.664062 6.457031 21.429688 6.457031 21.191406 6.648438 21 6.886719 21 7.121094 21 7.3125 21.191406 7.3125 21.429688zM6.457031 16.285156C6.457031 16.523438 6.265625 16.714844 6.027344 16.714844 5.792969 16.714844 5.597656 16.523438 5.597656 16.285156 5.597656 16.050781 5.792969 15.855469 6.027344 15.855469 6.265625 15.855469 6.457031 16.050781 6.457031 16.285156zM7.742188 17.144531C7.742188 17.378906 7.550781 17.570312 7.3125 17.570312 7.078125 17.570312 6.886719 17.378906 6.886719 17.144531 6.886719 16.90625 7.078125 16.714844 7.3125 16.714844 7.550781 16.714844 7.742188 16.90625 7.742188 17.144531zM6.457031 14.144531C6.457031 14.378906 6.265625 14.570312 6.027344 14.570312 5.792969 14.570312 5.597656 14.378906 5.597656 14.144531 5.597656 13.90625 5.792969 13.714844 6.027344 13.714844 6.265625 13.714844 6.457031 13.90625 6.457031 14.144531zM6.457031 11.570312C6.457031 11.808594 6.265625 12 6.027344 12 5.792969 12 5.597656 11.808594 5.597656 11.570312 5.597656 11.335938 5.792969 11.144531 6.027344 11.144531 6.265625 11.144531 6.457031 11.335938 6.457031 11.570312zM14.597656 11.144531C14.597656 11.378906 14.40625 11.570312 14.171875 11.570312 13.933594 11.570312 13.742188 11.378906 13.742188 11.144531 13.742188 10.90625 13.933594 10.714844 14.171875 10.714844 14.40625 10.714844 14.597656 10.90625 14.597656 11.144531zM12.457031 11.570312C12.457031 11.808594 12.265625 12 12.027344 12 11.792969 12 11.597656 11.808594 11.597656 11.570312 11.597656 11.335938 11.792969 11.144531 12.027344 11.144531 12.265625 11.144531 12.457031 11.335938 12.457031 11.570312zM8.597656 10.714844C8.597656 10.949219 8.40625 11.144531 8.171875 11.144531 7.933594 11.144531 7.742188 10.949219 7.742188 10.714844 7.742188 10.476562 7.933594 10.285156 8.171875 10.285156 8.40625 10.285156 8.597656 10.476562 8.597656 10.714844zM15.457031 9.429688C15.457031 9.664062 15.265625 9.855469 15.027344 9.855469 14.792969 9.855469 14.597656 9.664062 14.597656 9.429688 14.597656 9.191406 14.792969 9 15.027344 9 15.265625 9 15.457031 9.191406 15.457031 9.429688zM16.742188 10.714844C16.742188 10.949219 16.550781 11.144531 16.3125 11.144531 16.078125 11.144531 15.886719 10.949219 15.886719 10.714844 15.886719 10.476562 16.078125 10.285156 16.3125 10.285156 16.550781 10.285156 16.742188 10.476562 16.742188 10.714844zM18.886719 9.855469C18.886719 10.09375 18.691406 10.285156 18.457031 10.285156 18.21875 10.285156 18.027344 10.09375 18.027344 9.855469 18.027344 9.621094 18.21875 9.429688 18.457031 9.429688 18.691406 9.429688 18.886719 9.621094 18.886719 9.855469zM18.027344 12.429688C18.027344 12.664062 17.835938 12.855469 17.597656 12.855469 17.363281 12.855469 17.171875 12.664062 17.171875 12.429688 17.171875 12.191406 17.363281 12 17.597656 12 17.835938 12 18.027344 12.191406 18.027344 12.429688zM10.910156 11.222656C10.910156 11.460938 10.714844 11.652344 10.480469 11.652344 10.242188 11.652344 10.050781 11.460938 10.050781 11.222656 10.050781 10.988281 10.242188 10.796875 10.480469 10.796875 10.714844 10.796875 10.910156 10.988281 10.910156 11.222656zM16.859375 14.03125L14.777344 11.949219 11.921875 12.726562 11.273438 15.113281 8.902344 15.757812 8.125 18.613281 10.207031 20.695312 12.585938 20.050781 14.308594 21.769531 17.164062 20.992188 17.9375 18.140625 16.214844 16.414062zM12.621094 13.425781L14.523438 12.90625 15.902344 14.289062 15.386719 16.183594 13.480469 16.703125 12.105469 15.328125zM9.082031 18.359375L9.597656 16.457031 11.5 15.9375 12.871094 17.308594 12.351562 19.226562 10.460938 19.738281zM16.464844 20.296875L14.5625 20.8125 13.191406 19.441406 13.710938 17.53125 15.605469 17.015625 16.980469 18.390625zM16.464844 20.296875"/>
    <path d="M 18.550781 4.453125 C 17.738281 4.160156 17.3125 3.976562 17.207031 3.65625 C 18.007812 3.464844 18.605469 2.742188 18.605469 1.882812 L 18.605469 1.824219 C 18.605469 0.820312 17.785156 0 16.78125 0 L 7.21875 0 C 6.214844 0 5.394531 0.820312 5.394531 1.824219 L 5.394531 1.882812 C 5.394531 2.738281 5.984375 3.457031 6.792969 3.652344 C 6.6875 3.976562 6.265625 4.160156 5.449219 4.453125 C 4.222656 4.890625 2.542969 5.492188 2.542969 7.757812 L 2.542969 8.507812 C 2.542969 8.648438 2.613281 8.78125 2.730469 8.859375 C 2.847656 8.941406 3 8.957031 3.128906 8.90625 L 3.492188 8.757812 L 3.492188 19.589844 C 3.492188 22.019531 5.472656 24 7.90625 24 L 16.09375 24 C 18.527344 24 20.507812 22.019531 20.507812 19.585938 L 20.507812 9.585938 C 20.601562 9.5625 20.699219 9.53125 20.789062 9.484375 C 21.199219 9.261719 21.457031 8.832031 21.457031 8.367188 L 21.457031 7.757812 C 21.457031 5.492188 19.777344 4.890625 18.550781 4.453125 Z M 19.648438 19.585938 C 19.648438 21.546875 18.054688 23.144531 16.09375 23.144531 L 7.90625 23.144531 C 5.945312 23.144531 4.351562 21.546875 4.351562 19.585938 L 4.351562 8.417969 L 4.84375 8.21875 C 5.03125 8.144531 5.242188 8.214844 5.347656 8.390625 L 5.925781 9.355469 C 6.113281 9.664062 6.417969 9.878906 6.769531 9.945312 C 6.851562 9.960938 6.933594 9.972656 7.011719 9.972656 C 7.019531 9.972656 7.023438 9.96875 7.027344 9.96875 C 7.039062 9.96875 7.050781 9.96875 7.0625 9.96875 C 7.132812 9.964844 7.199219 9.957031 7.265625 9.941406 C 7.289062 9.9375 7.3125 9.929688 7.335938 9.925781 C 7.390625 9.910156 7.449219 9.890625 7.503906 9.867188 C 7.523438 9.859375 7.546875 9.851562 7.566406 9.839844 C 7.640625 9.804688 7.710938 9.765625 7.773438 9.71875 L 8.351562 9.285156 C 8.511719 9.164062 8.742188 9.179688 8.886719 9.324219 L 9.113281 9.550781 C 9.375 9.8125 9.730469 9.949219 10.097656 9.917969 C 10.464844 9.894531 10.800781 9.710938 11.023438 9.414062 L 11.199219 9.183594 C 11.355469 8.976562 11.675781 8.945312 11.875 9.210938 C 12.125 9.546875 12.523438 9.734375 12.941406 9.714844 C 13.359375 9.699219 13.742188 9.476562 13.960938 9.121094 L 14.789062 7.796875 C 14.875 7.660156 15.019531 7.585938 15.179688 7.605469 C 15.335938 7.621094 15.464844 7.722656 15.519531 7.871094 L 15.8125 8.648438 C 15.976562 9.089844 16.355469 9.390625 16.820312 9.457031 C 17.285156 9.523438 17.730469 9.339844 18.011719 8.964844 L 18.042969 8.921875 C 18.175781 8.75 18.417969 8.707031 18.597656 8.828125 L 19.488281 9.417969 C 19.539062 9.453125 19.59375 9.484375 19.648438 9.511719 Z M 20.597656 8.367188 C 20.597656 8.585938 20.449219 8.691406 20.382812 8.726562 C 20.347656 8.746094 20.28125 8.773438 20.199219 8.773438 L 20.136719 8.765625 C 20.105469 8.761719 20.078125 8.753906 20.054688 8.746094 C 20.023438 8.738281 19.992188 8.726562 19.960938 8.707031 L 19.074219 8.113281 C 18.933594 8.019531 18.78125 7.960938 18.628906 7.925781 C 18.160156 7.832031 17.660156 8.003906 17.359375 8.410156 L 17.328125 8.449219 C 17.195312 8.625 17.011719 8.621094 16.941406 8.609375 C 16.867188 8.601562 16.691406 8.554688 16.617188 8.347656 L 16.324219 7.570312 C 16.152344 7.113281 15.746094 6.800781 15.261719 6.753906 C 14.78125 6.710938 14.320312 6.933594 14.0625 7.34375 L 13.234375 8.667969 C 13.160156 8.785156 13.042969 8.855469 12.90625 8.859375 C 12.769531 8.859375 12.640625 8.808594 12.539062 8.667969 C 12.296875 8.347656 11.925781 8.164062 11.523438 8.164062 C 11.121094 8.164062 10.753906 8.347656 10.511719 8.667969 L 10.335938 8.902344 C 10.265625 9 10.15625 9.054688 10.039062 9.066406 C 9.917969 9.074219 9.804688 9.03125 9.71875 8.945312 L 9.492188 8.71875 C 9.046875 8.277344 8.335938 8.226562 7.835938 8.601562 L 7.261719 9.03125 C 7.164062 9.101562 7.050781 9.128906 6.9375 9.105469 C 6.820312 9.085938 6.722656 9.015625 6.664062 8.914062 L 6.082031 7.949219 C 6.03125 7.859375 5.964844 7.785156 5.898438 7.714844 C 5.878906 7.695312 5.863281 7.679688 5.84375 7.664062 C 5.777344 7.605469 5.707031 7.550781 5.632812 7.507812 C 5.625 7.503906 5.617188 7.496094 5.609375 7.492188 C 5.527344 7.445312 5.4375 7.414062 5.347656 7.386719 C 5.324219 7.378906 5.300781 7.375 5.273438 7.367188 C 5.199219 7.351562 5.117188 7.339844 5.039062 7.335938 C 5.023438 7.335938 5.011719 7.332031 5 7.332031 C 4.996094 7.332031 4.988281 7.335938 4.984375 7.335938 C 4.933594 7.335938 4.886719 7.34375 4.839844 7.347656 C 4.808594 7.351562 4.78125 7.351562 4.753906 7.355469 C 4.675781 7.371094 4.601562 7.394531 4.523438 7.425781 L 3.398438 7.875 L 3.398438 7.757812 C 3.398438 6.097656 4.535156 5.691406 5.738281 5.261719 C 6.578125 4.960938 7.511719 4.617188 7.648438 3.710938 L 8.714844 3.710938 C 8.953125 3.710938 9.144531 3.519531 9.144531 3.28125 C 9.144531 3.042969 8.953125 2.851562 8.714844 2.851562 L 7.25 2.851562 C 7.242188 2.851562 7.238281 2.855469 7.234375 2.855469 C 7.230469 2.855469 7.226562 2.851562 7.21875 2.851562 C 6.6875 2.851562 6.25 2.417969 6.25 1.882812 L 6.25 1.824219 C 6.25 1.292969 6.6875 0.855469 7.21875 0.855469 L 16.78125 0.855469 C 17.3125 0.855469 17.75 1.292969 17.75 1.824219 L 17.75 1.882812 C 17.75 2.417969 17.3125 2.851562 16.75 2.851562 L 11.511719 2.851562 C 11.277344 2.851562 11.082031 3.042969 11.082031 3.28125 C 11.082031 3.515625 11.277344 3.707031 11.511719 3.707031 L 16.351562 3.707031 C 16.488281 4.613281 17.421875 4.960938 18.261719 5.261719 C 19.464844 5.691406 20.597656 6.097656 20.597656 7.757812 Z M 20.597656 8.367188"/>
</svg>
