<svg xmlns="http://www.w3.org/2000/svg" width="32" height="32" viewBox="0 0 24 24">
    <path d="M2.715 19.617a.402.402 0 0 0-.57.012c-.348.363-.797 1.297-.024 2.254.082.097.2.148.317.148.09 0 .18-.027.253-.09.172-.14.2-.394.059-.57-.492-.605-.102-1.094-.02-1.183a.402.402 0 0 0-.015-.57zm0 0M19.656 2.121a.404.404 0 0 0-.062.57c.082.098.199.149.316.149.09 0 .18-.027.254-.09.61-.492 1.094-.102 1.188-.02a.406.406 0 0 0 .558-.59 1.677 1.677 0 0 0-2.254-.019zm0 0M8.164 17.21a.405.405 0 0 0-.402.407v.574c0 .223.18.403.402.403.227 0 .406-.18.406-.403v-.574a.406.406 0 0 0-.406-.406zm0 0M7.02 19.504a.406.406 0 0 0-.407.406v.57a.406.406 0 1 0 .813 0v-.57a.406.406 0 0 0-.406-.406zm0 0M9.313 19.504a.403.403 0 0 0-.407.406v.57a.403.403 0 1 0 .809 0v-.57a.403.403 0 0 0-.402-.406zm0 0M9.883 16.64a.402.402 0 0 0-.403.403v.574a.405.405 0 1 0 .81 0v-.574a.403.403 0 0 0-.407-.402zm0 0M11.723 15.613v-.574a.408.408 0 0 0-.407-.406.408.408 0 0 0-.406.406v.574c0 .223.184.403.406.403.223 0 .407-.18.407-.403zm0 0M11.89 17.5a.403.403 0 0 0-.406.402v.575a.405.405 0 0 0 .809 0v-.575a.402.402 0 0 0-.402-.402zm0 0M13.035 15.207a.406.406 0 0 0-.406.406v.57a.406.406 0 1 0 .812 0v-.57a.406.406 0 0 0-.406-.406zm0 0M13.61 12.914a.406.406 0 0 0-.407.406v.575c0 .222.18.402.406.402.223 0 .403-.18.403-.402v-.575a.405.405 0 0 0-.403-.406zm0 0M15.328 14.633a.406.406 0 0 0-.406.406v.574c0 .223.18.403.406.403.223 0 .402-.18.402-.403v-.574a.405.405 0 0 0-.402-.406zm0 0M20.484 8.332a.403.403 0 0 0-.406.406v.57a.403.403 0 1 0 .809 0v-.57a.405.405 0 0 0-.403-.406zm0 0M20.316 7.02v-.575a.408.408 0 0 0-.406-.406.408.408 0 0 0-.406.406v.575c0 .222.183.402.406.402.223 0 .406-.18.406-.402zm0 0"/>
    <path d="M24 3.121c0-.762-.293-1.473-.828-2.008l-.285-.285A2.815 2.815 0 0 0 20.879 0c-.758 0-1.469.293-2.004.828-.012.012-.023.024-.031.035l-.746.95c-.211.273-.434.535-.649.804a3.233 3.233 0 0 0-3.554.68 3.25 3.25 0 0 0-.848 1.488.539.539 0 0 1-.387.387 3.21 3.21 0 0 0-2.332 2.332c-.05.191-.2.34-.387.387a3.25 3.25 0 0 0-1.488.847c-.414.41-.703.926-.848 1.489a.526.526 0 0 1-.386.386 3.183 3.183 0 0 0-1.489.848c-.41.41-.703.922-.847 1.488a.539.539 0 0 1-.387.387 3.229 3.229 0 0 0-1.488.844 3.257 3.257 0 0 0-.696 3.52c-.48.382-.957.765-1.44 1.14a.415.415 0 0 0-.044.035A2.829 2.829 0 0 0 0 20.879c0 .762.297 1.473.828 2.004l.285.289a2.843 2.843 0 0 0 3.992.02c.332-.255.665-.516.993-.774A2.838 2.838 0 0 0 10 22.355a61.797 61.797 0 0 0 12.129-12.058l.226-.297a2.804 2.804 0 0 0 .81-1.984c0-.723-.267-1.399-.75-1.922l.776-.985c.52-.535.809-1.238.809-1.988zM3.582 14.754a2.413 2.413 0 0 1 1.113-.633c.48-.121.852-.496.977-.976a2.413 2.413 0 0 1 1.746-1.747c.48-.12.852-.496.973-.972a2.409 2.409 0 0 1 1.75-1.746c.476-.125.851-.496.972-.977a2.413 2.413 0 0 1 1.746-1.746c.48-.121.852-.496.973-.973a2.424 2.424 0 0 1 3.086-1.71c-.133.16-.258.32-.39.48-.243.293-.485.586-.731.875-.363.426-.73.851-1.098 1.27-.254.288-.504.578-.761.859-.403.449-.813.89-1.227 1.332-.223.242-.441.484-.668.723-.598.628-1.207 1.246-1.82 1.859l-.907.879c-.359.344-.714.691-1.082 1.031a82.321 82.321 0 0 1-2.05 1.867c-.34.305-.68.606-1.028.903-.37.316-.746.628-1.12.945-.333.277-.665.558-1 .828a.679.679 0 0 1-.06.05 2.444 2.444 0 0 1 .606-2.421zm18.184-5.309c-.016.012-.028.028-.04.043l-.242.317A60.96 60.96 0 0 1 9.445 21.762a2.02 2.02 0 0 1-2.863 0l-.86-.86a1.972 1.972 0 0 1-.417-.62c-.016-.032-.028-.067-.04-.102a1.637 1.637 0 0 1-.074-.246c-.007-.036-.02-.07-.023-.106a2.017 2.017 0 0 1 .535-1.77c.29-.214.582-.44.887-.68.473-.366.937-.741 1.398-1.124.203-.168.414-.348.63-.527a64.462 64.462 0 0 0 2.82-2.555c.039-.04.082-.078.124-.121a67.53 67.53 0 0 0 1.543-1.547c.13-.137.266-.274.387-.402.086-.09.172-.18.254-.27.012-.012.02-.02.027-.031v.34a1.42 1.42 0 0 0 1.418 1.418 1.42 1.42 0 0 0 1.418-1.418v-.309a1.822 1.822 0 0 0 2.43-1.715V5.191c.055-.011.106-.02.16-.027l.074-.012a2.055 2.055 0 0 1 1.63.57l.687.684.172.176c.383.379.593.89.593 1.434 0 .539-.21 1.05-.59 1.43zm.832-4.894c-.012.011-.02.023-.032.039l-.726.922-.363-.364a1.798 1.798 0 0 0-.176-.156c-.004 0-.008-.004-.012-.008a2.627 2.627 0 0 0-.27-.195c-.015-.012-.03-.02-.046-.031a4.613 4.613 0 0 0-.27-.149l-.082-.035a2.516 2.516 0 0 0-.258-.097c-.039-.012-.074-.024-.117-.036-.078-.02-.156-.043-.238-.058-.051-.008-.102-.016-.153-.02a2.078 2.078 0 0 0-.41-.023c-.062 0-.125-.004-.187.004-.082.004-.16.02-.238.031-.047.008-.098.012-.145.023a2.616 2.616 0 0 0-.379.11.4.4 0 0 0-.266.379v4.226c0 .559-.453 1.016-1.011 1.016a.996.996 0 0 1-.723-.309.404.404 0 0 0-.695.282v1.039a.607.607 0 0 1-1.215 0V9.76a.41.41 0 0 0-.262-.378.412.412 0 0 0-.445.105c-.32.36-.649.711-.977 1.059-.062.066-.129.133-.191.2-.2.206-.399.41-.598.612-.191.196-.386.391-.593.598l-.54.531c-.19.18-.378.36-.566.535-.113.11-.23.215-.344.325a34.2 34.2 0 0 1-.566.52L9 14.32c-.234.207-.46.403-.68.59a46.44 46.44 0 0 1-.668.567c-.093.078-.187.156-.277.234-.102.082-.203.16-.3.242A62.886 62.886 0 0 1 5.19 17.43c-.011.011-.027.023-.043.035a2.827 2.827 0 0 0-.824 2.008c0 .125.008.246.024.37.004.028.007.06.015.087.04.246.11.484.211.71.012.024.02.044.031.063a3.266 3.266 0 0 0 .184.328v.004c.047.067.094.133.149.2.007.011.011.019.023.03.059.075.121.145.187.212l.372.367c-.31.242-.618.48-.926.718-.016.012-.028.024-.043.036-.79.789-2.074.789-2.864 0l-.285-.285a2.008 2.008 0 0 1-.59-1.434 2 2 0 0 1 .57-1.414c.438-.336.868-.684 1.302-1.027l.003.007.38-.3.28-.235c.387-.308.766-.629 1.15-.945.347-.29.694-.582 1.038-.875.375-.324.75-.649 1.121-.977.34-.3.68-.605 1.016-.914.363-.328.726-.66 1.086-.996.344-.324.683-.652 1.023-.98.34-.328.68-.653 1.016-.985.437-.437.867-.883 1.3-1.324.426-.445.852-.89 1.274-1.344.418-.449.836-.898 1.25-1.36.27-.3.535-.608.805-.917.36-.414.722-.828 1.078-1.246.27-.324.539-.649.805-.973.195-.234.39-.465.582-.703l.3-.371-.007-.004c.18-.23.37-.453.55-.683l.73-.93A2.02 2.02 0 0 1 20.88.809c.543 0 1.05.21 1.433.593l.286.286c.382.378.59.89.59 1.433s-.208 1.05-.59 1.43zm0 0"/>
    <path d="M17.113 5.813l-.406.472a.406.406 0 0 0 .617.527l.403-.472a.407.407 0 0 0-.043-.57.407.407 0 0 0-.57.043zm0 0M15.879 7.25l-1.195 1.398a.4.4 0 0 0 .043.57.408.408 0 0 0 .57-.043l1.2-1.398a.407.407 0 0 0-.044-.57.411.411 0 0 0-.574.043zm0 0"/>
</svg>
