<svg xmlns="http://www.w3.org/2000/svg" width="32" height="32" viewBox="0 0 24 24">
    <path d="M8.8 4c.102 0 .204-.04.282-.117l.848-.848.851.848a.396.396 0 0 0 .563 0 .394.394 0 0 0 0-.567L9.93 1.902 8.516 3.316A.4.4 0 0 0 8.8 4zm0 0M13.055 10.45a.4.4 0 0 0 .566.566l.848-.852.847.852a.399.399 0 0 0 .567 0 .4.4 0 0 0 0-.567l-1.414-1.414zm0 0M14.918 4.516l-1.402 1.402a.4.4 0 0 0 .566.566l1.402-1.402a.4.4 0 0 0-.566-.566zm0 0M11.29 8.457l-1.93-.445a.4.4 0 1 0-.18.777l1.93.445a.4.4 0 0 0 .18-.777zm0 0"/>
    <path d="M12 0a5.606 5.606 0 0 0-5.602 5.602v8.992c0 .996.813 1.804 1.809 1.804H10v6.403c0 .66.54 1.199 1.2 1.199h1.6c.66 0 1.2-.54 1.2-1.2v-6.402h1.793c.996 0 1.809-.808 1.809-1.804V5.602A5.606 5.606 0 0 0 12 0zm1.2 19.133c-.216-.137-.4-.48-.4-.934 0-.449.184-.797.4-.933zm0-2.707c-.684.12-1.2.851-1.2 1.773 0 .922.516 1.653 1.2 1.778v2.16c-.571-.375-1.223-1.016-1.126-1.598.184-1.09-.844-2.012-1.273-2.344v-1.797h2.398zm-.4 6.773h-1.6a.4.4 0 0 1-.4-.398v-3.524c.294.325.552.739.485 1.125-.207 1.215 1.059 2.207 1.84 2.618a.397.397 0 0 1-.324.18zm4-8.605a1.01 1.01 0 0 1-1.007 1.008H8.207a1.01 1.01 0 0 1-1.008-1.008V5.602C7.2 2.953 9.352.8 12 .8s4.8 2.152 4.8 4.8zm0 0"/>
    <path d="M9.8 12c-.773 0-1.402.629-1.402 1.398 0 .774.63 1.403 1.403 1.403.77 0 1.398-.63 1.398-1.403 0-.77-.629-1.398-1.398-1.398zm0 2a.602.602 0 0 1-.6-.602c0-.328.269-.597.6-.597A.6.6 0 0 1 9.8 14zm0 0"/>
</svg>
