<svg xmlns="http://www.w3.org/2000/svg" width="32" height="32" viewBox="0 0 24 24">
    <path d="M 12.222656 0 L 11.777344 0 C 8.589844 0 6 2.625 6 5.851562 L 6 17.824219 C 6 18.945312 6.90625 19.859375 8.015625 19.859375 L 10.542969 19.859375 L 10.542969 22.757812 C 10.542969 23.445312 11.097656 24 11.78125 24 L 12.195312 24 C 12.878906 24 13.4375 23.445312 13.4375 22.757812 L 13.4375 19.859375 L 15.984375 19.859375 C 17.09375 19.859375 18 18.945312 18 17.820312 L 18 5.851562 C 18 2.625 15.410156 0 12.222656 0 Z M 12.609375 22.757812 C 12.609375 22.988281 12.425781 23.171875 12.195312 23.171875 L 11.78125 23.171875 C 11.554688 23.171875 11.371094 22.988281 11.371094 22.757812 L 11.371094 19.863281 L 12.609375 19.863281 Z M 17.171875 6.441406 L 6.828125 16.785156 L 6.828125 12.78125 L 16.414062 3.195312 C 16.890625 3.964844 17.171875 4.875 17.171875 5.851562 Z M 15.917969 2.523438 L 6.828125 11.613281 L 6.828125 7.609375 L 13.449219 0.988281 C 14.417969 1.242188 15.273438 1.785156 15.917969 2.523438 Z M 11.777344 0.828125 L 12.222656 0.828125 C 12.292969 0.828125 12.363281 0.835938 12.429688 0.839844 L 6.828125 6.441406 L 6.828125 5.851562 C 6.828125 3.082031 9.046875 0.828125 11.777344 0.828125 Z M 6.839844 17.941406 L 17.171875 7.609375 L 17.171875 11.429688 L 9.582031 19.019531 C 9.578125 19.023438 9.574219 19.027344 9.574219 19.03125 L 8.015625 19.03125 C 7.402344 19.03125 6.902344 18.550781 6.839844 17.941406 Z M 15.984375 19.03125 L 10.738281 19.03125 L 17.171875 12.597656 L 17.171875 17.820312 C 17.171875 18.488281 16.640625 19.03125 15.984375 19.03125 Z M 15.984375 19.03125"/>
</svg>
