<svg xmlns="http://www.w3.org/2000/svg" width="32" height="32" viewBox="0 0 24 24">
    <path d="M17.594 10.023a1.802 1.802 0 0 1-1.965-1.097c-.34-.84.012-1.805.816-2.239l.852-.457-.922-.3a1.348 1.348 0 0 1-.84-.77 1.358 1.358 0 0 1 .012-1.035c.14-.332.402-.59.738-.723.152-.062.32-.097.496-.097l.758-.004-.414-.637A5.846 5.846 0 0 0 12.227 0h-.454a5.858 5.858 0 0 0-5.851 5.852v11.972A2.04 2.04 0 0 0 7.96 19.86h2.5v2.899c0 .687.559 1.242 1.242 1.242h.414c.684 0 1.242-.555 1.242-1.242v-2.899h2.68a2.04 2.04 0 0 0 2.04-2.039V9.937zM12.53 22.758c0 .23-.187.414-.414.414h-.414a.414.414 0 0 1-.414-.414v-2.895h1.242zM11.773.828h.454a4.99 4.99 0 0 1 3.82 1.777c-.024.008-.047.02-.074.028-.54.219-.961.633-1.188 1.168a2.166 2.166 0 0 0 .688 2.582 2.606 2.606 0 0 0-.61 2.851 2.636 2.636 0 0 0 2.387 1.641v5.254H6.75V5.852A5.03 5.03 0 0 1 11.773.828zm4.266 18.203H7.961c-.668 0-1.211-.543-1.211-1.21v-.864h10.5v.863c0 .668-.543 1.211-1.21 1.211zm0 0"/>
</svg>
