<svg xmlns="http://www.w3.org/2000/svg" width="32" height="32" viewBox="0 0 24 24">
    <path d="M18.3 7.46l-.09-.304h-.327a2.336 2.336 0 0 0-1.336-1.558c.023-.137.039-.274.039-.414a2.319 2.319 0 0 0-2.316-2.317c-.938 0-1.762.555-2.122 1.387h-.046l.187-2.258a.413.413 0 0 0-.238-.414L8.8.039a.426.426 0 0 0-.563.203.42.42 0 0 0 .203.559l2.989 1.418-.121 1.422a2.319 2.319 0 0 0-1.793-.86 2.32 2.32 0 0 0-2.32 2.317c0 .199.03.394.077.586-.57.3-1.003.832-1.168 1.472H5.79l-.09.305c-.668 2.312 1.153 4.012 1.375 4.21.89.95 1.739 1.876 2.367 2.81a3.163 3.163 0 0 0-.515 1.73c0 1.027.504 1.984 1.332 2.574-.028.125-.047.25-.07.383a8.76 8.76 0 0 1-.141.68 1.952 1.952 0 0 0 .289 1.625H8.504c-.34 0-.656.132-.895.37a1.242 1.242 0 0 0-.273 1.376c.2.48.644.781 1.168.781h7.156c.52 0 .969-.3 1.168-.781.2-.48.094-1.008-.273-1.375a1.262 1.262 0 0 0-.895-.371h-2.047c.309-.442.426-.989.309-1.52-.043-.2-.067-.406-.09-.605-.02-.157-.039-.313-.066-.47a3.128 3.128 0 0 0 1.472-2.667c0-.668-.21-1.313-.597-1.848.625-.902 1.468-1.82 2.285-2.691.222-.2 2.043-1.899 1.375-4.211zM17 7.157h-2.25v-.015c0-.09-.004-.184-.016-.278a2.567 2.567 0 0 0-.035-.25c0-.008-.004-.011-.004-.015l.032-.024c.046-.039.097-.074.148-.105a.827.827 0 0 1 .082-.043c.04-.024.078-.04.117-.059.031-.012.063-.027.098-.035.05-.02.11-.035.164-.047.043-.008.086-.015.125-.02.047-.003.09-.011.137-.011h.101c.04.004.074.004.11.008A1.482 1.482 0 0 1 17 7.157zm-6.41 0c0-.004-.004-.011-.004-.02-.008-.03-.02-.058-.031-.085a1.88 1.88 0 0 0-.149-.375 2.44 2.44 0 0 0-.203-.332s-.004-.004-.004-.008c-.05-.063-.097-.125-.152-.184.012-.015.02-.035.031-.054a2.081 2.081 0 0 1 1.375-.973h.004a1.87 1.87 0 0 1 .39-.043c.274 0 .528.055.766.152.04.012.07.032.11.051.074.031.144.07.21.113a1.866 1.866 0 0 1 .352.273l.059.063c.062.067.117.133.172.207.02.028.043.059.062.09.059.094.113.188.156.29a.41.41 0 0 1 .032.09c.03.077.058.163.078.245a2.15 2.15 0 0 1 .063.484v.016zm3.68-3.449a1.477 1.477 0 0 1 1.457 1.703c-.016-.004-.036 0-.051 0-.012 0-.024-.004-.035-.004a1.79 1.79 0 0 0-.25.016l-.079.012a2.236 2.236 0 0 0-.222.043c-.035.007-.07.02-.106.027a5.98 5.98 0 0 0-.242.086c-.012.008-.027.012-.043.02-.09.038-.18.09-.265.14-.008.008-.02.012-.032.02a3.183 3.183 0 0 0-.254-.391 2.618 2.618 0 0 0-.328-.36c-.015-.011-.027-.027-.043-.039a2.723 2.723 0 0 0-.359-.273c-.004-.008-.012-.012-.02-.016a3.092 3.092 0 0 0-.421-.222c.257-.461.746-.762 1.293-.762zM8.074 5.422a1.477 1.477 0 0 1 1.438-1.8c.566 0 1.07.323 1.316.808a.03.03 0 0 0-.015.008c-.137.05-.27.113-.395.187a2.646 2.646 0 0 0-.379.254c-.023.02-.05.039-.074.059-.09.078-.176.164-.258.253-.023.032-.05.055-.078.086-.074.09-.14.184-.203.282-.02.03-.043.054-.063.086-.039-.02-.082-.036-.125-.055l-.062-.027a2.723 2.723 0 0 0-.36-.106 3.09 3.09 0 0 0-.074-.012 2.214 2.214 0 0 0-.668-.023zm-.136.887c.105-.032.214-.047.324-.055h.035c.113-.004.226.004.336.027.012.004.02.004.027.008.219.047.43.149.61.293.011.008.023.02.035.027.054.047.101.094.144.145.02.023.04.043.055.062a1.688 1.688 0 0 1 .16.258c.016.028.024.055.035.086H6.99c.167-.41.523-.726.949-.851zm8.019 16.129a.42.42 0 1 1-.297.719H8.504a.42.42 0 0 1-.39-.259.42.42 0 0 1 .09-.46.432.432 0 0 1 .3-.122h7.156c.11 0 .219.043.297.122zm.402-11.391l-.035.031c-.922.985-1.879 2.035-2.558 3.078l-.18.27.219.242a2.311 2.311 0 0 1-.703 3.621l-.32.156.1.344c.056.188.083.414.114.66.027.219.055.446.106.684.07.324-.012.66-.223.918-.215.27-.535.422-.879.422h-.055c-.351 0-.675-.16-.886-.438a1.113 1.113 0 0 1-.196-.973 8.82 8.82 0 0 0 .153-.75c.039-.222.074-.43.125-.605l.09-.32-.286-.16a2.326 2.326 0 0 1-1.18-2.016c0-.535.18-1.04.516-1.453l.192-.235-.164-.257c-.684-1.079-1.633-2.121-2.633-3.188l-.035-.031C7.625 11.035 6.137 9.742 6.44 8h11.121c.305 1.727-1.14 2.992-1.203 3.047zm0 0"/>
    <path d="M12.082 14.738a1.474 1.474 0 0 0 0 2.946 1.474 1.474 0 0 0 0-2.946zm0 2.106a.635.635 0 0 1-.633-.633c0-.348.285-.633.633-.633.348 0 .633.285.633.633a.635.635 0 0 1-.633.633zm0 0"/>
</svg>
