<svg xmlns="http://www.w3.org/2000/svg" width="32" height="32" viewBox="0 0 24 24">
    <path d="M14.234 13.328l-.566-.566.566-.563.567.563zm-1.695-.566l.563.566-.563.567-.566-.567zm1.133 2.265l-.567-.566.567-.566.562.566zM9.71 12.2l.562.563-.562.566-.566-.566zm1.695 1.696l-.566.566-.567-.566.567-.567zm1.133 1.132l-.566.567-.567-.567.567-.566zm.566 1.696l-.566-.567.566-.562.563.562zM8.578 14.46l.567-.566.562.566-.562.566zm1.695.566l.567.563-.567.566-.566-.566zm.567 1.696l.566-.567.567.567-.567.566zm1.7 1.699l-.567-.567.566-.566.563.566zm-1.7.566l-.567-.566.567-.567.566.567zm0 0"/>
    <path d="M17.484 1.25L16.352.117a.4.4 0 0 0-.567 0L14.36 1.543A4.359 4.359 0 0 0 11.2.195a4.403 4.403 0 0 0-4.398 4.399c0 .933.3 1.843.851 2.593a4.371 4.371 0 0 0-.793 3.293c-.011.028-.03.055-.039.082-.054.22-.144.383-.27.481a.389.389 0 0 0-.148.324c.004.133.028.262.067.36l2.02 6.023 2.41 6c.062.152.206.25.37.25a.395.395 0 0 0 .372-.25l2.418-6.023 2.007-5.985a.676.676 0 0 0 .032-.105.403.403 0 0 0-.29-.477.6.6 0 0 1-.355-.238c.094-.367.149-.746.149-1.129 0-.953-.313-1.86-.856-2.602.55-.75.856-1.66.856-2.597 0-.266-.036-.535-.086-.813l1.968-1.969a.396.396 0 0 0 0-.562zM14.035 3l.567.566-.235.235-.566-.567zm-.8.8l.566.567-.27.266-.566-.563zm1.93-.8l-.563-.566.234-.235.566.567zm-1.856 14.45l-.82 2.05-.516-.516-.567.567.567.566.445-.445-.578 1.441-.434-.43-.566.567.566.563.25-.25-.386.964-.813-2.027.383-.383-.567-.566-.14.144-.895-2.222-.043-.133.512.515.566-.566-.566-.566-.539.539-1.137-3.387.547-.547-.566-.566-.262.265-.516-1.535.051-.062.035.035c.051.062.11.12.172.176a.698.698 0 0 0 .055.05c.082.059.164.114.258.157.015.007.035.011.05.02.079.034.165.062.254.081.032.008.059.012.09.02.11.02.223.031.344.031.547 0 .973-.2 1.258-.57.281.367.703.562 1.238.57l-.2.2.567.562.567-.563-.309-.308c.262-.094.484-.243.649-.461.214.28.507.46.87.535a2.034 2.034 0 0 0 .786-.004c.043-.008.078-.027.117-.04.078-.023.16-.046.234-.077.043-.02.078-.051.117-.074.06-.036.122-.075.176-.118.04-.035.07-.074.106-.109.035-.04.078-.07.11-.113.116.152.25.261.382.343zm1.472-7.278h-.011a.4.4 0 0 0-.391.32c-.102.496-.344.707-.809.707-.465 0-.707-.21-.804-.707a.402.402 0 0 0-.395-.32h-.113a.402.402 0 0 0-.395.32c-.101.496-.34.707-.804.707-.47 0-.707-.21-.809-.707a.4.4 0 0 0-.39-.32h-.118a.402.402 0 0 0-.394.32c-.098.496-.34.707-.805.707-.457 0-.695-.203-.8-.68a.445.445 0 0 0-.06-.132c-.007-.008-.015-.02-.023-.028a.36.36 0 0 0-.02-.03 3.597 3.597 0 0 1 .805-2.855c.008-.01.016-.01.024-.017a3.563 3.563 0 0 1 1.933-1.172v1.711a1.4 1.4 0 0 0 2.797 0V6.805a3.204 3.204 0 0 1 .395.308 3.594 3.594 0 0 1 1.188 3.059zm.02-5.578c0 .71-.211 1.398-.602 1.988 0-.004-.004-.004-.004-.004-.086-.082-.175-.156-.265-.23-.008-.008-.02-.012-.028-.02a4.007 4.007 0 0 0-.261-.187c-.016-.012-.028-.024-.043-.032a3.432 3.432 0 0 0-.258-.152c-.02-.012-.04-.027-.059-.035a3.46 3.46 0 0 0-.32-.156.397.397 0 0 0-.559.363v1.867a.601.601 0 0 1-1.203 0v-2.18a.402.402 0 0 0-.129-.296.44.44 0 0 0-.136-.079c-.016-.007-.032-.007-.043-.011-.032-.004-.059-.016-.09-.016-.012 0-.028 0-.04.004a4.187 4.187 0 0 0-.386.055c-.055.011-.11.027-.16.039-.07.015-.137.031-.203.047a14.718 14.718 0 0 0-.34.113 3.13 3.13 0 0 0-.266.105 4.46 4.46 0 0 0-1.21.797A3.6 3.6 0 0 1 11.2.996c.991 0 1.921.399 2.597 1.11l-1.68 1.68a.4.4 0 0 0 0 .566L13.25 5.48a.39.39 0 0 0 .563.004l.984-.984a.753.753 0 0 1 .004.094zm1.164-2.395l-.563-.566.668-.668.567.566zm0 0"/>
</svg>
