<svg xmlns="http://www.w3.org/2000/svg" width="32" height="32" viewBox="0 0 24 24">
    <path d="M 18.910156 4.6875 C 18.113281 4.402344 17.679688 4.21875 17.546875 3.929688 C 18.382812 3.703125 19 2.9375 19 2.03125 L 19 1.96875 C 19 0.882812 18.117188 0 17.03125 0 L 6.96875 0 C 5.882812 0 5 0.882812 5 1.96875 L 5 2.03125 C 5 2.933594 5.609375 3.695312 6.457031 3.925781 C 6.324219 4.21875 5.890625 4.402344 5.089844 4.6875 C 3.785156 5.15625 2 5.792969 2 8.210938 L 2 9 C 2 9.164062 2.082031 9.320312 2.21875 9.414062 C 2.355469 9.507812 2.53125 9.527344 2.683594 9.464844 L 3 9.339844 L 3 19.308594 C 3 21.894531 5.105469 24 7.691406 24 L 16.308594 24 C 16.445312 24 16.582031 23.992188 16.71875 23.980469 L 16.722656 23.980469 C 16.757812 23.976562 16.792969 23.972656 16.824219 23.96875 L 17.085938 23.945312 L 17.085938 23.929688 C 19.304688 23.554688 21 21.628906 21 19.308594 L 21 10.171875 C 21.09375 10.144531 21.183594 10.117188 21.269531 10.070312 C 21.71875 9.828125 22 9.363281 22 8.851562 L 22 8.210938 C 22 5.792969 20.214844 5.15625 18.910156 4.6875 Z M 4 11.511719 C 4.585938 11.519531 5.125 11.886719 5.339844 12.457031 C 5.679688 13.375 5.46875 15.113281 4.847656 15.34375 C 4.648438 15.414062 4.339844 15.335938 4 15.121094 Z M 12.804688 23 C 12.636719 22.851562 12.492188 22.703125 12.386719 22.566406 C 11.753906 21.726562 11.917969 20.523438 12.757812 19.886719 C 13.164062 19.578125 13.664062 19.449219 14.171875 19.519531 C 14.675781 19.585938 15.125 19.847656 15.433594 20.257812 C 15.890625 20.859375 16.277344 22.070312 16.230469 23 Z M 17.226562 22.878906 C 17.234375 21.722656 16.78125 20.378906 16.230469 19.652344 C 15.757812 19.03125 15.078125 18.632812 14.304688 18.527344 C 13.535156 18.421875 12.769531 18.621094 12.152344 19.09375 C 10.929688 20.019531 10.648438 21.734375 11.476562 23 L 7.691406 23 C 5.65625 23 4 21.34375 4 19.308594 L 4 16.234375 C 4.234375 16.324219 4.460938 16.371094 4.679688 16.371094 C 4.859375 16.371094 5.03125 16.339844 5.195312 16.28125 C 6.605469 15.757812 6.695312 13.246094 6.277344 12.109375 C 5.914062 11.136719 4.996094 10.53125 4 10.519531 L 4 8.9375 L 4.488281 8.742188 C 4.664062 8.671875 4.859375 8.738281 4.957031 8.902344 L 5.570312 9.917969 C 5.769531 10.253906 6.105469 10.488281 6.488281 10.5625 C 6.574219 10.578125 6.664062 10.589844 6.753906 10.589844 C 6.757812 10.589844 6.761719 10.585938 6.765625 10.585938 C 6.785156 10.585938 6.804688 10.582031 6.824219 10.582031 C 6.890625 10.578125 6.957031 10.570312 7.023438 10.558594 C 7.050781 10.550781 7.082031 10.542969 7.109375 10.535156 C 7.167969 10.523438 7.226562 10.5 7.28125 10.476562 C 7.308594 10.46875 7.332031 10.457031 7.359375 10.445312 C 7.433594 10.40625 7.511719 10.363281 7.582031 10.3125 L 8.1875 9.859375 C 8.339844 9.742188 8.554688 9.761719 8.6875 9.894531 L 8.925781 10.132812 C 8.996094 10.203125 9.074219 10.265625 9.15625 10.320312 C 9.40625 10.480469 9.703125 10.558594 10 10.535156 C 10.015625 10.535156 10.03125 10.527344 10.046875 10.527344 C 10.429688 10.484375 10.777344 10.292969 11.007812 9.984375 L 11.195312 9.738281 C 11.339844 9.546875 11.636719 9.515625 11.828125 9.769531 C 12.101562 10.136719 12.539062 10.328125 12.992188 10.320312 C 13.445312 10.300781 13.863281 10.058594 14.105469 9.671875 L 14.976562 8.277344 C 14.992188 8.253906 15.011719 8.238281 15.027344 8.222656 C 15.042969 8.207031 15.054688 8.183594 15.070312 8.171875 C 15.140625 8.121094 15.210938 8.105469 15.269531 8.101562 C 15.296875 8.097656 15.320312 8.097656 15.339844 8.101562 C 15.410156 8.109375 15.582031 8.148438 15.660156 8.347656 L 15.964844 9.167969 C 16.003906 9.273438 16.058594 9.363281 16.121094 9.453125 C 16.128906 9.46875 16.132812 9.484375 16.140625 9.496094 C 16.15625 9.515625 16.179688 9.53125 16.195312 9.550781 C 16.410156 9.816406 16.714844 10 17.0625 10.050781 C 17.0625 10.050781 17.066406 10.050781 17.066406 10.050781 C 17.566406 10.125 18.0625 9.914062 18.363281 9.511719 L 18.398438 9.46875 C 18.519531 9.304688 18.746094 9.265625 18.914062 9.378906 L 19.851562 10.003906 C 19.898438 10.035156 19.949219 10.0625 20 10.085938 L 20 13.03125 C 18.886719 12.90625 17.769531 13.421875 17.175781 14.417969 C 16.414062 15.691406 16.039062 18.660156 17.507812 19.535156 C 17.777344 19.695312 18.089844 19.777344 18.4375 19.777344 C 18.910156 19.777344 19.441406 19.625 19.996094 19.339844 C 19.984375 21.042969 18.808594 22.472656 17.226562 22.878906 Z M 20 18.179688 C 19.199219 18.714844 18.421875 18.917969 18.019531 18.679688 C 17.207031 18.191406 17.441406 15.921875 18.035156 14.929688 C 18.386719 14.339844 19.019531 14.003906 19.675781 14.003906 C 19.78125 14.003906 19.890625 14.011719 20 14.03125 Z M 21 8.851562 C 21 9.058594 20.859375 9.15625 20.796875 9.1875 C 20.765625 9.207031 20.710938 9.230469 20.636719 9.234375 L 20.566406 9.222656 C 20.5 9.214844 20.449219 9.199219 20.40625 9.171875 L 19.472656 8.546875 C 18.863281 8.140625 18.039062 8.28125 17.601562 8.867188 L 17.566406 8.914062 C 17.441406 9.074219 17.273438 9.070312 17.207031 9.0625 C 17.191406 9.058594 17.167969 9.054688 17.140625 9.046875 C 17.0625 9.023438 16.957031 8.960938 16.902344 8.816406 L 16.597656 7.996094 C 16.410156 7.5 15.96875 7.160156 15.441406 7.109375 C 15.414062 7.105469 15.390625 7.113281 15.363281 7.109375 C 14.863281 7.09375 14.398438 7.324219 14.128906 7.75 L 13.257812 9.144531 C 13.191406 9.253906 13.078125 9.320312 12.949219 9.324219 C 12.820312 9.324219 12.703125 9.273438 12.605469 9.140625 C 12.34375 8.789062 11.9375 8.589844 11.5 8.589844 C 11.0625 8.589844 10.65625 8.789062 10.394531 9.140625 L 10.210938 9.386719 C 10.121094 9.507812 9.996094 9.535156 9.929688 9.539062 C 9.925781 9.539062 9.921875 9.539062 9.917969 9.539062 C 9.902344 9.539062 9.890625 9.539062 9.871094 9.539062 C 9.804688 9.535156 9.714844 9.507812 9.632812 9.429688 L 9.394531 9.1875 C 8.914062 8.703125 8.136719 8.648438 7.589844 9.058594 L 6.984375 9.515625 C 6.894531 9.578125 6.789062 9.605469 6.679688 9.582031 C 6.574219 9.5625 6.484375 9.5 6.425781 9.40625 L 5.816406 8.386719 C 5.757812 8.292969 5.6875 8.210938 5.613281 8.132812 C 5.59375 8.113281 5.574219 8.09375 5.554688 8.074219 C 5.484375 8.011719 5.410156 7.953125 5.328125 7.90625 C 5.316406 7.902344 5.308594 7.894531 5.300781 7.886719 C 5.210938 7.839844 5.113281 7.800781 5.015625 7.773438 C 4.988281 7.765625 4.960938 7.761719 4.933594 7.753906 C 4.851562 7.734375 4.765625 7.722656 4.679688 7.71875 C 4.664062 7.71875 4.648438 7.714844 4.632812 7.714844 C 4.628906 7.714844 4.621094 7.714844 4.617188 7.714844 C 4.566406 7.71875 4.515625 7.722656 4.46875 7.730469 C 4.433594 7.734375 4.398438 7.734375 4.367188 7.742188 C 4.28125 7.757812 4.199219 7.78125 4.117188 7.816406 L 3 8.261719 L 3 8.210938 C 3 6.496094 4.179688 6.074219 5.425781 5.628906 C 6.3125 5.3125 7.296875 4.949219 7.464844 4 L 8.542969 4 C 8.820312 4 9.042969 3.777344 9.042969 3.5 C 9.042969 3.222656 8.820312 3 8.542969 3 L 7 3 C 6.996094 3 6.992188 3.003906 6.984375 3.003906 C 6.980469 3.003906 6.976562 3 6.96875 3 C 6.433594 3 6 2.566406 6 2.03125 L 6 1.96875 C 6 1.433594 6.433594 1 6.96875 1 L 17.03125 1 C 17.566406 1 18 1.433594 18 1.96875 L 18 2.03125 C 18 2.566406 17.566406 3 17 3 L 11.488281 3 C 11.210938 3 10.988281 3.222656 10.988281 3.5 C 10.988281 3.777344 11.210938 4 11.488281 4 L 16.535156 4 C 16.703125 4.949219 17.6875 5.3125 18.574219 5.628906 C 19.820312 6.078125 21 6.496094 21 8.210938 Z M 21 8.851562"/>
    <path d="M8.152344 17.210938C7.074219 16.804688 5.871094 17.347656 5.464844 18.425781 5.105469 19.371094 5.183594 21.46875 6.375 21.917969 6.523438 21.972656 6.671875 22 6.824219 22 7.90625 22 9.050781 20.726562 9.367188 19.894531 9.769531 18.820312 9.226562 17.613281 8.152344 17.210938zM8.429688 19.542969C8.152344 20.277344 7.132812 21.136719 6.726562 20.984375 6.320312 20.828125 6.125 19.511719 6.398438 18.777344 6.5625 18.34375 6.976562 18.074219 7.417969 18.074219 7.542969 18.074219 7.671875 18.097656 7.796875 18.144531 8.355469 18.355469 8.640625 18.984375 8.429688 19.542969zM8.824219 12.425781C8.382812 12.761719 8.09375 13.25 8.019531 13.800781 7.945312 14.351562 8.085938 14.902344 8.425781 15.34375 8.886719 15.953125 10.035156 16.703125 11.003906 16.703125 11.320312 16.703125 11.617188 16.625 11.867188 16.433594 12.882812 15.664062 12.359375 13.632812 11.746094 12.824219 11.050781 11.910156 9.742188 11.726562 8.824219 12.425781zM11.261719 15.636719C10.914062 15.902344 9.695312 15.363281 9.222656 14.738281 9.046875 14.507812 8.972656 14.222656 9.011719 13.9375 9.050781 13.652344 9.199219 13.394531 9.429688 13.21875 9.625 13.070312 9.855469 13 10.085938 13 10.410156 13 10.738281 13.148438 10.949219 13.429688 11.421875 14.054688 11.609375 15.375 11.261719 15.636719zM17.351562 12.855469C17.777344 11.789062 17.253906 10.574219 16.183594 10.148438 15.117188 9.722656 13.902344 10.246094 13.476562 11.316406 13.105469 12.257812 13.144531 14.355469 14.324219 14.824219 14.476562 14.886719 14.636719 14.914062 14.800781 14.914062 15.234375 14.914062 15.714844 14.714844 16.195312 14.332031 16.710938 13.921875 17.152344 13.355469 17.351562 12.855469zM16.421875 12.484375C16.289062 12.824219 15.945312 13.25 15.570312 13.550781 15.21875 13.832031 14.875 13.96875 14.695312 13.894531 14.289062 13.734375 14.117188 12.410156 14.40625 11.683594 14.574219 11.257812 14.984375 11 15.417969 11 15.550781 11 15.683594 11.023438 15.816406 11.078125 16.371094 11.296875 16.644531 11.929688 16.421875 12.484375zM16.421875 12.484375"/>
</svg>
