<svg xmlns="http://www.w3.org/2000/svg" width="32" height="32" viewBox="0 0 24 24">
    <path d="M18.91 4.688c-.797-.286-1.23-.47-1.363-.758A1.97 1.97 0 0 0 19 2.03V1.97A1.97 1.97 0 0 0 17.031 0H6.97A1.97 1.97 0 0 0 5 1.969v.062c0 .903.61 1.664 1.457 1.895-.133.293-.566.476-1.367.761C3.785 5.157 2 5.793 2 8.212V9c0 .164.082.32.219.414a.494.494 0 0 0 .465.05L3 9.34v9.969A4.698 4.698 0 0 0 7.691 24h8.618c.136 0 .273-.008.41-.02h.004l.101-.011.262-.024v-.015C19.305 23.555 21 21.629 21 19.309v-9.137c.094-.027.184-.055.27-.102.449-.242.73-.707.73-1.218V8.21c0-2.418-1.785-3.055-3.09-3.524zM4 11.511a1.457 1.457 0 0 1 1.34.945c.34.918.129 2.656-.492 2.887-.2.07-.508-.008-.848-.223zM12.805 23a3.273 3.273 0 0 1-.418-.434 1.92 1.92 0 0 1 .37-2.68 1.887 1.887 0 0 1 1.415-.366c.504.066.953.328 1.262.738.457.601.843 1.812.796 2.742zm4.422-.121c.007-1.156-.446-2.5-.997-3.227a2.89 2.89 0 0 0-1.925-1.125 2.874 2.874 0 0 0-2.153.567A2.91 2.91 0 0 0 11.477 23H7.69A3.696 3.696 0 0 1 4 19.309v-3.075c.234.09.46.137.68.137.18 0 .351-.031.515-.09 1.41-.523 1.5-3.035 1.082-4.172A2.451 2.451 0 0 0 4 10.52V8.938l.488-.195a.377.377 0 0 1 .469.16l.613 1.016a1.372 1.372 0 0 0 1.184.672c.004 0 .008-.004.012-.004.02 0 .039-.004.058-.004a1.73 1.73 0 0 0 .2-.023l.085-.024a.892.892 0 0 0 .172-.058c.028-.008.051-.02.078-.032.075-.039.153-.082.223-.133l.606-.453a.381.381 0 0 1 .5.036l.238.238a1.37 1.37 0 0 0 1.074.402c.016 0 .031-.008.047-.008.383-.043.73-.234.96-.543l.188-.246c.145-.191.442-.222.633.032.274.367.711.558 1.164.55.453-.02.871-.261 1.113-.648l.872-1.395c.015-.023.035-.039.05-.054.016-.016.028-.04.043-.051.07-.05.14-.067.2-.07a.381.381 0 0 1 .39.246l.305.82c.039.105.094.195.156.285.008.016.012.031.02.043.015.02.039.035.054.055.215.265.52.449.867.5h.004c.5.074.997-.137 1.297-.54l.035-.042a.377.377 0 0 1 .516-.09l.938.625a1.1 1.1 0 0 0 .148.082v2.945a2.903 2.903 0 0 0-2.824 1.387c-.762 1.273-1.137 4.242.332 5.117.27.16.582.242.93.242.472 0 1.003-.152 1.558-.437a3.688 3.688 0 0 1-2.77 3.539zm2.773-4.7c-.8.536-1.578.739-1.98.5-.813-.488-.579-2.757.015-3.75A1.907 1.907 0 0 1 20 14.032zm1-9.327c0 .207-.14.304-.203.335a.339.339 0 0 1-.16.047l-.07-.011a.369.369 0 0 1-.16-.051l-.934-.625a1.382 1.382 0 0 0-1.871.32l-.036.047a.387.387 0 0 1-.359.149c-.016-.004-.039-.008-.066-.016a.367.367 0 0 1-.239-.23l-.304-.82a1.368 1.368 0 0 0-1.157-.888c-.027-.004-.05.004-.078 0-.5-.015-.965.215-1.234.641l-.871 1.395a.37.37 0 0 1-.309.18.407.407 0 0 1-.344-.184A1.367 1.367 0 0 0 11.5 8.59c-.438 0-.844.2-1.105.55l-.184.247a.378.378 0 0 1-.281.152H9.87a.382.382 0 0 1-.238-.11l-.238-.242A1.385 1.385 0 0 0 7.59 9.06l-.606.457a.384.384 0 0 1-.304.066.379.379 0 0 1-.254-.176l-.61-1.02a1.609 1.609 0 0 0-.203-.253l-.058-.059a1.361 1.361 0 0 0-.227-.168c-.012-.004-.02-.011-.027-.02a1.496 1.496 0 0 0-.285-.113c-.028-.007-.055-.011-.082-.02a1.37 1.37 0 0 0-.254-.034c-.016 0-.032-.004-.047-.004h-.016a1.73 1.73 0 0 0-.148.015c-.035.004-.07.004-.102.012-.086.016-.168.04-.25.074L3 8.262V8.21c0-1.715 1.18-2.137 2.426-2.582.886-.316 1.87-.68 2.039-1.629h1.078c.277 0 .5-.223.5-.5s-.223-.5-.5-.5H7c-.004 0-.008.004-.016.004C6.98 3.004 6.977 3 6.97 3A.969.969 0 0 1 6 2.031V1.97C6 1.434 6.434 1 6.969 1H17.03c.535 0 .969.434.969.969v.062c0 .535-.434.969-1 .969h-5.512c-.277 0-.5.223-.5.5s.223.5.5.5h5.047c.168.95 1.152 1.313 2.04 1.629C19.82 6.079 21 6.496 21 8.21zm0 0"/>
    <path d="M8.152 17.21a2.085 2.085 0 0 0-2.687 1.216c-.36.945-.281 3.043.91 3.492.148.055.297.082.45.082 1.081 0 2.226-1.273 2.542-2.105a2.087 2.087 0 0 0-1.215-2.684zm.278 2.333c-.278.734-1.297 1.594-1.703 1.441-.407-.156-.602-1.472-.329-2.207a1.09 1.09 0 0 1 1.399-.632c.558.21.844.84.633 1.398zm0 0M8.824 12.426c-.441.336-.73.824-.804 1.375-.075.55.066 1.101.406 1.543.46.61 1.61 1.36 2.578 1.36.316 0 .613-.079.863-.27 1.016-.77.492-2.801-.12-3.61a2.085 2.085 0 0 0-2.923-.398zm2.438 3.21c-.348.266-1.567-.273-2.04-.898a1.087 1.087 0 0 1 .207-1.52c.196-.148.426-.218.657-.218.324 0 .652.148.863.43.473.625.66 1.945.313 2.207zm0 0M17.352 12.855a2.085 2.085 0 0 0-3.875-1.539c-.372.942-.332 3.04.847 3.508.153.063.313.09.477.09.433 0 .914-.2 1.394-.582.516-.41.957-.977 1.157-1.477zm-.93-.37c-.133.34-.477.765-.852 1.066-.351.281-.695.418-.875.344-.406-.16-.578-1.485-.289-2.211a1.085 1.085 0 0 1 2.016.8zm0 0"/>
</svg>
