<svg xmlns="http://www.w3.org/2000/svg" width="32" height="32" viewBox="0 0 24 24">
    <path d="M18.914 6.914a6.881 6.881 0 0 0-1.648-4.473.362.362 0 0 0-.09-.097A6.9 6.9 0 0 0 12 0a6.922 6.922 0 0 0-6.914 6.914c0 3.399 2.46 6.223 5.695 6.8v9.067A1.22 1.22 0 0 0 12 24a1.22 1.22 0 0 0 1.219-1.219v-9.066c3.234-.578 5.695-3.402 5.695-6.8zM12.406 20.06l-.812.812v-.883l.812-.812zm0-2.036l-.812.817v-.887l.812-.812zm0-2.03l-.812.812v-.883l.812-.817zm0-2.177v.141l-.812.813v-.954c.281.02.531.02.812 0zM12 23.187a.408.408 0 0 1-.406-.406v-.758l.812-.816v1.574a.408.408 0 0 1-.406.407zm.77-10.226l-.008.004c-.102.012-.196.02-.29.027-.156.012-.312.024-.472.024-.16 0-.316-.012-.473-.024-.093-.008-.187-.015-.289-.027l-.008-.004a6.101 6.101 0 0 1-5.332-6.047A6.11 6.11 0 0 1 12 .813a6.09 6.09 0 0 1 4.61 2.117c1.507 2.691.535 6.36-2.106 7.879a4.345 4.345 0 0 1-3.313.43 4.353 4.353 0 0 1-2.648-2.036 3.391 3.391 0 0 1-.336-2.59c.238-.879.8-1.613 1.594-2.066a2.63 2.63 0 0 1 2.008-.262c.68.184 1.25.621 1.601 1.235a2.037 2.037 0 0 1-.746 2.781c-.36.203-.777.258-1.176.152a1.542 1.542 0 0 1-.937-.723 1.134 1.134 0 0 1-.114-.878c.079-.297.27-.547.54-.7a.844.844 0 0 1 1.152.309.61.61 0 0 1 .059.453.608.608 0 0 1-.278.36.405.405 0 0 1-.3.038.4.4 0 0 1-.239-.183.408.408 0 0 0-.555-.152.409.409 0 0 0-.148.558 1.204 1.204 0 0 0 1.648.442 1.406 1.406 0 0 0 .516-1.922 1.662 1.662 0 0 0-2.262-.61 1.96 1.96 0 0 0-.918 1.196c-.136.507-.07 1.039.192 1.496a2.35 2.35 0 0 0 1.433 1.101 2.34 2.34 0 0 0 1.793-.234 2.84 2.84 0 0 0 1.328-1.727 2.82 2.82 0 0 0-.28-2.16A3.436 3.436 0 0 0 12.02 3.5a3.446 3.446 0 0 0-2.625.344 4.178 4.178 0 0 0-1.973 2.558A4.202 4.202 0 0 0 7.84 9.61a5.186 5.186 0 0 0 4.496 2.594c.875 0 1.762-.223 2.57-.687 1.453-.836 2.543-2.309 2.992-4.043.09-.34.145-.68.18-1.024.012.156.024.309.024.469 0 3.102-2.329 5.664-5.332 6.043zm0 0"/>
</svg>
