<svg xmlns="http://www.w3.org/2000/svg" width="32" height="32" viewBox="0 0 24 24">
    <path d="M20.332 19.863l-.008-.441-.176-.125-2.332-.922 1.118-1.145.148-.109-.008-.445-.254-.18-2.238-.351v-.551a.653.653 0 0 0-.262-.528.598.598 0 0 0-.156-.082V7.793l.262-.219c.414-.351.715-.64.894-.855a.522.522 0 0 0-.02-.684.59.59 0 0 0-.292-.2l.027-.03a.806.806 0 0 0 .102-.825.787.787 0 0 0-.668-.464 2.79 2.79 0 0 0-.407.004c.016-.446-.167-.707-.328-.848a.575.575 0 0 0-.254-.125C14.527 2 12.633 1.086 10.332 1.086c-.43 0-.848-.012-1.25-.027h-.023A.774.774 0 0 0 8.492.66a.768.768 0 0 0-.34.02c-.007-.024-.02-.051-.027-.075a.783.783 0 0 0-.61-.488.803.803 0 0 0-.745.27c-.04.043-.075.09-.106.136a.068.068 0 0 1-.055.028.08.08 0 0 1-.066-.035 1.448 1.448 0 0 0-.566-.477.523.523 0 0 0-.54.086c-.164.137-.355.39-.347.836a2.829 2.829 0 0 0-.41-.012.784.784 0 0 0-.68.45.76.76 0 0 0 .102.824 1.217 1.217 0 0 0-.29.222.523.523 0 0 0-.035.684c.149.191.399.441.723.742v11.113a.666.666 0 0 0-.156.082.67.67 0 0 0-.262.528v5.355A3.056 3.056 0 0 0 7.137 24h6.394a3.047 3.047 0 0 0 3.008-2.57l3.523-1.383zm-2.516-2.68l-.836.856-.398-.156v-.895zM5.332 14.958V4.125c.063.016.121.035.184.05.043.016.086.028.129.044.082.027.171.058.257.09.051.015.098.03.149.05a10.836 10.836 0 0 1 .79.348l.3.164c.035.02.066.035.097.055.102.062.203.129.305.195.027.016.055.035.082.055.105.07.207.148.309.226a.394.394 0 0 1 .062.051 3.949 3.949 0 0 1 .348.3c.078.079.152.157.226.24.055.058.11.12.164.183.051.062.102.125.153.191.058.082.117.164.175.25a3.978 3.978 0 0 1 .29.504l.035.07c.066.137.129.286.183.434.024.059.047.117.067.176.011.035.02.066.031.097.043.145.082.293.113.442l.024.113c.008.031.008.063.015.09.02.121.04.246.055.371l.012.113c.02.196.031.395.031.606v.055c0 .003.004.011.004.015 0 .012.004.024.004.035 0 .004 0 .012.004.02 0 .004 0 .012.004.015 0 .012.004.02.004.032a.114.114 0 0 1 .007.035c.004.008.004.015.008.023s.004.02.008.028c.004.02.012.035.016.058.007.016.011.035.02.055.003.016.007.027.01.047.005.008.009.02.013.031l.023.063a.271.271 0 0 0 .02.05c.003.02.011.035.015.051l.024.07.003.004v.004c.008.016.016.04.02.055.008.02.016.039.023.062.024.067.051.137.082.215a6.61 6.61 0 0 0-.296 1.63 6.82 6.82 0 0 0-.02.464c0 .29-.012.57-.035.84-.008.09-.024.172-.035.258-.024.18-.047.359-.078.53-.02.095-.047.188-.067.282-.039.152-.074.3-.12.445-.028.094-.063.184-.099.274-.03.086-.066.168-.101.254-.055-.004-.11-.004-.164-.008a17.725 17.725 0 0 1-3.883-.668zm5.316-7.66c.07-.004.141-.008.211 0a1.265 1.265 0 0 1 .527.172l.036.023a1.23 1.23 0 0 1 .215.176c.039.043.078.086.11.129.019.023.034.047.05.07.031.051.058.102.082.153.008.023.02.043.031.066 0 .008.004.02.004.027-.016.012-.027.028-.043.04-.055.05-.105.1-.16.152a4.2 4.2 0 0 0-.258.27 5.62 5.62 0 0 0-.707.937c0-.207-.016-.41-.035-.614-.004-.066-.016-.132-.024-.199a7.441 7.441 0 0 0-.07-.426 3.6 3.6 0 0 0-.058-.28c-.02-.09-.047-.177-.07-.266-.04-.13-.075-.254-.118-.375.07-.024.149-.04.223-.051.02 0 .039-.004.054-.004zm.825-1.766l.023.059c.027.074.05.148.063.223a1.088 1.088 0 0 1-.012.507c-.004.028-.016.055-.027.086-.016.051-.032.102-.055.149l-.012.023a2.11 2.11 0 0 0-1.055-.09l-.097.024a1.582 1.582 0 0 0-.223.062l-.05.012a5.703 5.703 0 0 0-.602-.906 5.7 5.7 0 0 0 .242-.282c.023-.03.047-.058.07-.09.012-.015.024-.027.035-.042a.414.414 0 0 1 .04-.047l.09-.121c.019-.028.042-.055.062-.082.039-.051.074-.102.11-.149.015-.02.03-.039.042-.058a1.252 1.252 0 0 1 1.355.723zm-1.196 10.13c.012-.032.02-.067.032-.098.027-.086.054-.176.078-.262.054-.168.101-.34.14-.516.024-.098.043-.195.063-.293.035-.187.062-.379.086-.578.011-.09.023-.176.031-.27.027-.289.043-.585.043-.894 0-.203.012-.398.027-.59l.024-.176a5.88 5.88 0 0 1 .054-.39l.036-.168c.03-.133.062-.258.097-.383.016-.04.028-.082.04-.121.03-.102.07-.192.105-.285a8.504 8.504 0 0 1 .164-.371c.043-.09.09-.172.14-.258.055-.098.114-.192.176-.281a4.033 4.033 0 0 1 .441-.57c.032-.036.06-.071.09-.102.016-.016.032-.035.051-.051.149-.152.309-.3.48-.438.087-.07.177-.14.266-.203.016-.011.028-.023.043-.031.098-.07.2-.133.297-.195.02-.012.035-.024.051-.032.098-.062.2-.117.3-.175a10.508 10.508 0 0 1 .348-.176c.02-.012.04-.02.06-.027.097-.047.194-.09.292-.133l.063-.024c.093-.039.19-.078.28-.113l.071-.023a3.68 3.68 0 0 1 .344-.118c.082-.027.164-.05.242-.074v7.719c-1.254.363-2.539.582-3.836.668-.406.02-.812.031-1.219.031zm5.828-10.31c.07-.007.149-.011.235-.007a.797.797 0 0 0-.145.605.83.83 0 0 0 .262.473c-.074.074-.172.164-.289.273V6.18l-.512.117c-.117.027-.246.058-.379.094-.097.027-.195.054-.289.082-.008.004-.015.004-.02.007-.96.286-1.741.665-2.374 1.098-.004-.004-.004-.008-.008-.012-.008-.011-.016-.027-.024-.039-.027-.054-.066-.105-.101-.16-.02-.031-.04-.062-.063-.094-.007-.011-.015-.02-.027-.03-.039-.056-.09-.102-.137-.153-.023-.024-.043-.05-.066-.074.047-.086.086-.172.117-.262.004-.004.004-.008.004-.012.04-.101.066-.203.086-.308l.012-.063c.015-.11.031-.219.031-.332 0-.105-.012-.21-.027-.32a.772.772 0 0 0 .328-.492c.011-.07.035-.145.058-.223a.777.777 0 0 0 .403.273l.562.172-.02-.586a1 1 0 0 1 .06-.394l.034.05a.9.9 0 0 0 .715.387 1.12 1.12 0 0 0 .196-.027c.03-.004.058-.016.09-.027.035-.012.07-.02.105-.036.023-.011.047-.027.074-.039.035-.02.07-.039.106-.062.023-.02.043-.04.062-.055.024-.02.047-.039.066-.058a.839.839 0 0 0 .25.535c.168.16.399.238.625.215zm-1.378-1.44c-.04.038-.075.081-.11.124-.023.031-.05.035-.062.035-.012-.004-.043-.008-.055-.03a3.003 3.003 0 0 1-.102-.134.822.822 0 0 0-.742-.293.792.792 0 0 0-.62.477c-.013.023-.02.047-.032.074a.785.785 0 0 0-.27-.031c.313-.227.516-.594.516-1.008a.415.415 0 1 0-.832 0c0 .23-.188.414-.418.414a.418.418 0 0 0 0 .836c.078 0 .152-.012.223-.023a.774.774 0 0 0-.196.285c-.02.05-.027.097-.043.144a2.077 2.077 0 0 0-1.277-.785.795.795 0 0 0-.441-.98 1.948 1.948 0 0 0-.16-.063.067.067 0 0 1-.043-.043c-.004-.012-.008-.039.015-.074.121-.164.211-.344.258-.512.02.672.57 1.215 1.25 1.215.23 0 .414-.184.414-.414a.415.415 0 0 0-.414-.418.418.418 0 0 1-.418-.418.406.406 0 0 0-.191-.34c1.671.145 3.023.848 3.75 1.961zM4.918 2.39a.726.726 0 0 0-.145-.61c.09-.004.172.004.25.012a.793.793 0 0 0 .63-.2.81.81 0 0 0 .265-.527c.176.204.422.32.691.32a.889.889 0 0 0 .723-.37c.012-.016.023-.032.04-.047.03.094.058.23.046.398l-.035.582.566-.156a.706.706 0 0 0 .403-.281c.027.086.046.168.062.242.04.226.172.422.371.543a.81.81 0 0 0 .586.098.912.912 0 0 0-.105.757.884.884 0 0 0 .558.582l.067.024c-.079.074-.16.176-.274.324l-.004.008c-.043.058-.09.117-.14.187-.051.07-.106.149-.164.227a6.952 6.952 0 0 1-.21.27c-.02.023-.037.046-.056.07a5.527 5.527 0 0 1-.195.23C7.695 4.02 6.246 3.48 5.172 3.22c-.05-.016-.102-.016-.152-.016h-.016a8.42 8.42 0 0 1-.36-.348.814.814 0 0 0 .274-.464zm8.613 20.777H7.137a2.22 2.22 0 0 1-2.219-2.219v-5.125c1.297.348 2.7.563 4.133.64l.582.024.27.008.003-.004h.047c.242.004.488.004.73 0 .176 0 .348-.008.524-.015 1.57-.059 3.125-.27 4.543-.653v5.125a2.222 2.222 0 0 1-2.219 2.219zm3.051-2.648v-1.743l.605.239 1.614.632zm0 0"/>
    <path d="M14.918 16.918a.415.415 0 0 0-.418.414c0 2.035-3.434 3.75-7.5 3.75a.418.418 0 0 0 0 .836c4.672 0 8.332-2.016 8.332-4.586a.414.414 0 0 0-.414-.414zm0 0"/>
</svg>
