<svg xmlns="http://www.w3.org/2000/svg" width="32" height="32" viewBox="0 0 24 24">
    <path d="M18.398 6.8c0-1.105-.894-2-2-2H9.2v-.456A1.6 1.6 0 0 0 10.4 2.8c0-.746-.512-1.364-1.2-1.543v-.86a.4.4 0 0 0-.8 0v.86c-.688.18-1.2.797-1.2 1.543a1.6 1.6 0 0 0 1.2 1.543V4.8H2c-1.102 0-2 .894-2 2 0 .976.703 1.789 1.629 1.965-.27.34-.43.77-.43 1.234 0 .977.703 1.79 1.63 1.965-.27.34-.43.77-.43 1.234a2 2 0 0 0 1.628 1.965 2.001 2.001 0 0 0 1.575 3.234 1.981 1.981 0 0 0 .007 2.403H2v.398c0 1.106.898 2 2 2h4.398v.403a.401.401 0 0 0 .801 0v-.403h4.403c1.101 0 2-.894 2-2v-.398H12.39a1.981 1.981 0 0 0 .008-2.402 1.999 1.999 0 0 0 1.574-3.235 2 2 0 0 0 1.629-1.965c0-.465-.16-.894-.43-1.234A2.004 2.004 0 0 0 16.8 10c0-.45-.149-.867-.403-1.2 1.106 0 2-.898 2-2zM8 2.8a.802.802 0 0 1 1.602 0A.802.802 0 0 1 8 2.8zm5.602 19.598H4c-.523 0-.965-.332-1.133-.796H14.73c-.164.464-.609.796-1.128.796zM15.199 8h-2a.4.4 0 0 0 0 .8h1.602C15.46 8.8 16 9.34 16 10c0 .66-.54 1.2-1.2 1.2H7.603a.401.401 0 0 0 0 .8h6a1.2 1.2 0 1 1 0 2.398h-2a.401.401 0 0 0 0 .8l.796.001c.665 0 1.204.54 1.204 1.2 0 .663-.54 1.203-1.204 1.203H8.801a.398.398 0 1 0 0 .796h2a1.202 1.202 0 0 1 0 2.402H7.199a1.202 1.202 0 0 1 0-2.402.398.398 0 1 0 0-.796H5.602a1.203 1.203 0 0 1 0-2.402H10c.223 0 .398-.18.398-.4a.398.398 0 0 0-.398-.402H4.398a1.2 1.2 0 0 1 0-2.398H6c.223 0 .398-.18.398-.398A.398.398 0 0 0 6 11.199H3.2C2.54 11.2 2 10.66 2 10s.54-1.2 1.2-1.2h7.198a.401.401 0 0 0 0-.8H2a1.2 1.2 0 1 1 0-2.398h14.398A1.2 1.2 0 0 1 17.602 6.8c0 .66-.54 1.199-1.204 1.199zm0 0M23.602 18.398h-.403V2.801a1.999 1.999 0 1 0-4 0v15.597h-.398a.401.401 0 0 0 0 .8L20 19.2v2.82A1.001 1.001 0 0 0 20.2 24h2a1.001 1.001 0 1 0 .2-1.98l-.002-2.82h1.204a.4.4 0 0 0 0-.802zM22.199 23.2h-2A.2.2 0 0 1 20 23c0-.11.09-.2.2-.2h2a.2.2 0 0 1 0 .398zM21.602 22H20.8v-2.8h.8zM20 18.398V2.801a1.2 1.2 0 0 1 2.398 0v15.597zm0 0"/>
    <path d="M21.2 2.398a.401.401 0 0 0-.4.403v5.597a.401.401 0 1 0 .802 0V2.801a.402.402 0 0 0-.403-.403zm0 0"/>
</svg>
