<svg xmlns="http://www.w3.org/2000/svg" width="32" height="32" viewBox="0 0 24 24">
    <path d="M12.2 14.238a.406.406 0 1 1-.813 0 .406.406 0 0 1 .812 0zm0 0M12.2 15.863a.406.406 0 1 1-.406-.406c.226 0 .405.184.405.406zm0 0"/>
    <path d="M12.988.684C12.528.223 11.871 0 10.98 0a.408.408 0 0 0-.406.406v11.797c0 .043.012.086.024.125-.266.29-.43.672-.43 1.094v8.95c0 .898.73 1.628 1.625 1.628a1.63 1.63 0 0 0 1.629-1.629v-8.95c0-.519-.25-.98-.633-1.276 1.04-1.344 1.04-3.332 1.04-6.223l.003-.895c.008-1.941.016-3.476-.844-4.343zM12.61 22.37c0 .45-.367.817-.816.817a.815.815 0 0 1-.813-.817v-8.95a.814.814 0 0 1 1.63 0zm.407-17.348v.899c0 2.863-.004 4.777-1.016 5.894-.066-.007-.133-.02-.207-.02-.14 0-.273.024-.406.06V.835c.453.05.793.187 1.023.422.625.629.617 2.012.606 3.765zm0 0"/>
</svg>
