<svg xmlns="http://www.w3.org/2000/svg" width="32" height="32" viewBox="0 0 24 24">
    <path d="M21.293 1.465a.431.431 0 0 0-.61 0l-1.003 1a.431.431 0 0 0 .61.61l1.003-1.005a.427.427 0 0 0 0-.605zm0 0M19.207 4.156a.431.431 0 0 0-.61-.61l-2.843 2.845a.431.431 0 0 0 .61.609zm0 0M17.219 7.36l-1.016 1.019a.431.431 0 0 0 .3.734.428.428 0 0 0 .306-.125l1.02-1.02a.431.431 0 0 0-.61-.609zm0 0M20.512 4.07l-2.075 2.075a.427.427 0 0 0 0 .605.417.417 0 0 0 .606 0l2.074-2.07a.431.431 0 0 0 0-.61.427.427 0 0 0-.605 0zm0 0M21.988 2.59l-.511.512a.431.431 0 0 0 .609.609l.512-.512a.431.431 0 0 0-.61-.61zm0 0"/>
    <path d="M23.973 2.848c-.004-.098-.063-.965-.965-1.868C22.91.88 22.05 0 21.125 0H21.016l-.078.035c-.188.082-4.641 2.047-7.981 7.961l-.059.106.004.12c0 .079.047.657.536 1.352-.02.012-.043.02-.063.04l-2.512 2.515-.601-.602a2.903 2.903 0 0 0-2.075-.859c-.785 0-1.523.305-2.078.86l-4.765 4.765a4.484 4.484 0 0 0-1.32 3.195c0 1.211.468 2.344 1.32 3.196A4.488 4.488 0 0 0 4.535 24c1.211 0 2.344-.469 3.195-1.316l4.77-4.77c.55-.55.855-1.289.855-2.074 0-.79-.304-1.524-.855-2.078l-1.027-1.028 2.511-2.511c.004-.004.004-.008.008-.012.281.27.992.86 1.754.86h.109l.079-.036c.187-.082 4.64-2.043 7.98-7.96l.063-.106zM12.496 15.836c0 .559-.215 1.078-.605 1.469l-4.77 4.77a3.63 3.63 0 0 1-2.586 1.066 3.63 3.63 0 0 1-2.586-1.067 3.63 3.63 0 0 1-1.066-2.586c0-.98.379-1.898 1.066-2.586l4.77-4.77c.39-.39.91-.6 1.468-.6.551 0 1.07.21 1.458.597l-.676.676a.431.431 0 0 0 .304.734c.11 0 .22-.043.305-.125l.676-.68.61.61-.68.676a.431.431 0 0 0 .609.609l.68-.676.418.418c.39.39.605.91.605 1.465zm3.18-5.629c-.457-.047-1.004-.52-1.188-.71l-.101-.106a2.6 2.6 0 0 1-.2-.243c.028-.02.063-.035.086-.058l1.122-1.121a.431.431 0 0 0-.61-.61l-.992.996c-.008-.023-.012-.043-.016-.062 2.938-5.121 6.805-7.137 7.418-7.43.457.047 1.008.52 1.188.711l.101.106c.442.476.57.902.614 1.097-2.942 5.121-6.809 7.137-7.422 7.43zm0 0"/>
    <path d="M2.93 16.879c-1.473 1.422-1.598 3.379-.305 4.758a.433.433 0 0 0 .61.02.435.435 0 0 0 .019-.61c-.969-1.031-.86-2.457.273-3.55a.43.43 0 0 0-.598-.617zm0 0"/>
</svg>
