<svg xmlns="http://www.w3.org/2000/svg" width="32" height="32" viewBox="0 0 24 24">
    <path d="M 24 6.253906 L 24 2.253906 L 21.601562 2.253906 L 21.601562 1.855469 C 21.601562 0.972656 20.882812 0.253906 20 0.253906 C 19.117188 0.253906 18.398438 0.972656 18.398438 1.855469 L 18.398438 2.253906 L 13.601562 2.253906 L 13.601562 1.855469 C 13.601562 0.972656 12.882812 0.253906 12 0.253906 C 11.117188 0.253906 10.398438 0.972656 10.398438 1.855469 L 10.398438 2.253906 L 5.199219 2.253906 L 5.199219 1.855469 C 5.199219 0.972656 4.480469 0.253906 3.601562 0.253906 C 2.71875 0.253906 2 0.972656 2 1.855469 L 2 2.253906 L 0 2.253906 L 0 6.253906 L 2 6.253906 L 2 7.457031 L 1.199219 7.457031 L 1.199219 21.457031 L 6.980469 21.457031 C 7.542969 21.457031 8 21 8 20.4375 L 8 8.472656 C 8 7.914062 7.542969 7.457031 6.980469 7.457031 L 5.199219 7.457031 L 5.199219 6.253906 L 10.398438 6.253906 L 10.398438 20.394531 L 12.503906 23.027344 L 12.769531 22.414062 C 14.414062 18.566406 15.199219 15.515625 15.199219 8.5625 L 15.199219 7.855469 L 13.601562 7.855469 L 13.601562 6.253906 L 18.398438 6.253906 L 18.398438 7.457031 L 18 7.457031 L 18 16.253906 C 18 18.589844 18.71875 20.828125 20.074219 22.730469 L 20.800781 23.746094 L 20.800781 22.496094 C 20.800781 15.453125 21.507812 12.484375 21.980469 10.523438 C 22.214844 9.539062 22.398438 8.761719 22.398438 7.855469 L 22.398438 7.457031 L 21.601562 7.457031 L 21.601562 6.253906 Z M 23.199219 3.054688 L 23.199219 5.457031 L 21.601562 5.457031 L 21.601562 3.054688 Z M 0.800781 5.457031 L 0.800781 3.054688 L 2 3.054688 L 2 5.457031 Z M 7.199219 8.472656 L 7.199219 20.4375 C 7.199219 20.558594 7.101562 20.65625 6.980469 20.65625 L 6.398438 20.65625 L 6.398438 8.253906 L 6.980469 8.253906 C 7.101562 8.253906 7.199219 8.355469 7.199219 8.472656 Z M 5.601562 8.253906 L 5.601562 20.65625 L 2 20.65625 L 2 8.253906 Z M 4.398438 7.457031 L 2.800781 7.457031 L 2.800781 1.855469 C 2.800781 1.414062 3.160156 1.054688 3.601562 1.054688 C 4.042969 1.054688 4.398438 1.414062 4.398438 1.855469 Z M 5.199219 5.457031 L 5.199219 3.054688 L 10.398438 3.054688 L 10.398438 5.457031 Z M 14.398438 8.65625 C 14.394531 15.027344 13.710938 18.027344 12.292969 21.480469 L 11.199219 20.113281 L 11.199219 8.65625 Z M 12.800781 7.855469 L 11.199219 7.855469 L 11.199219 1.855469 C 11.199219 1.414062 11.558594 1.054688 12 1.054688 C 12.441406 1.054688 12.800781 1.414062 12.800781 1.855469 Z M 13.601562 5.457031 L 13.601562 3.054688 L 18.398438 3.054688 L 18.398438 5.457031 Z M 21.199219 10.335938 C 20.753906 12.203125 20.097656 14.957031 20.007812 21.109375 C 19.214844 19.621094 18.800781 17.964844 18.800781 16.253906 L 18.800781 8.253906 L 21.585938 8.253906 C 21.542969 8.910156 21.394531 9.53125 21.199219 10.335938 Z M 20.800781 7.457031 L 19.199219 7.457031 L 19.199219 1.855469 C 19.199219 1.414062 19.558594 1.054688 20 1.054688 C 20.441406 1.054688 20.800781 1.414062 20.800781 1.855469 Z M 20.800781 7.457031"/>
    <path d="M12 11.855469C12.222656 11.855469 12.398438 11.675781 12.398438 11.457031L12.398438 9.457031C12.398438 9.234375 12.222656 9.054688 12 9.054688 11.777344 9.054688 11.601562 9.234375 11.601562 9.457031L11.601562 11.457031C11.601562 11.675781 11.777344 11.855469 12 11.855469zM19.601562 11.855469C19.820312 11.855469 20 11.675781 20 11.457031L20 9.457031C20 9.234375 19.820312 9.054688 19.601562 9.054688 19.378906 9.054688 19.199219 9.234375 19.199219 9.457031L19.199219 11.457031C19.199219 11.675781 19.378906 11.855469 19.601562 11.855469zM2.800781 11.855469C3.019531 11.855469 3.199219 11.675781 3.199219 11.457031L3.199219 9.457031C3.199219 9.234375 3.019531 9.054688 2.800781 9.054688 2.578125 9.054688 2.398438 9.234375 2.398438 9.457031L2.398438 11.457031C2.398438 11.675781 2.578125 11.855469 2.800781 11.855469zM2.800781 11.855469"/>
</svg>
