<svg xmlns="http://www.w3.org/2000/svg" width="32" height="32" viewBox="0 0 24 24">
    <path d="M 23.34375 6.285156 C 22.527344 5.03125 21.078125 4.617188 19.71875 4.363281 C 19.550781 2.691406 19.257812 1.453125 19.023438 0.929688 C 18.949219 0.765625 18.726562 0.269531 18.242188 0.269531 L 1.613281 0.269531 C 1.128906 0.269531 0.90625 0.765625 0.832031 0.929688 C -0.0429688 2.871094 -1.703125 14.652344 5.144531 22.378906 C 5.90625 23.238281 6.988281 23.730469 8.113281 23.730469 L 11.742188 23.730469 C 12.867188 23.730469 13.949219 23.238281 14.710938 22.378906 C 15.449219 21.546875 16.082031 20.667969 16.632812 19.757812 C 16.808594 19.777344 16.984375 19.792969 17.160156 19.792969 C 19.957031 19.792969 22.273438 17.183594 23.441406 12.625 C 24.21875 9.601562 24.1875 7.589844 23.34375 6.285156 Z M 13.855469 21.621094 C 13.308594 22.238281 12.539062 22.589844 11.742188 22.589844 L 8.113281 22.589844 C 7.316406 22.589844 6.542969 22.238281 6 21.621094 C -0.515625 14.265625 1.1875 2.949219 1.867188 1.410156 L 17.988281 1.410156 C 18.667969 2.949219 20.371094 14.269531 13.855469 21.621094 Z M 22.335938 12.339844 C 21.546875 15.417969 19.820312 18.527344 17.265625 18.636719 C 19.597656 14.144531 20.007812 9.136719 19.808594 5.546875 C 21.027344 5.800781 21.894531 6.15625 22.382812 6.90625 C 23.03125 7.910156 23.015625 9.6875 22.335938 12.339844 Z M 22.335938 12.339844"/>
    <path d="M4.070312 9.730469C4.039062 9.417969 3.753906 9.191406 3.445312 9.226562 3.128906 9.257812 2.902344 9.539062 2.9375 9.855469 3.335938 13.589844 4.796875 17.3125 7.160156 20.621094 7.273438 20.773438 7.449219 20.859375 7.625 20.859375 7.742188 20.859375 7.855469 20.824219 7.957031 20.75 8.214844 20.570312 8.273438 20.210938 8.089844 19.953125 5.839844 16.808594 4.449219 13.273438 4.070312 9.730469zM3.457031 6.339844C3.484375 6.339844 3.511719 6.34375 3.535156 6.34375 3.820312 6.34375 4.0625 6.136719 4.101562 5.847656 4.210938 5.046875 4.367188 4.132812 4.839844 3.496094 5.027344 3.242188 4.976562 2.886719 4.722656 2.699219 4.46875 2.511719 4.109375 2.5625 3.921875 2.816406 3.316406 3.628906 3.105469 4.679688 2.96875 5.695312 2.925781 6.007812 3.148438 6.296875 3.457031 6.339844zM3.457031 6.339844"/>
</svg>
