<svg xmlns="http://www.w3.org/2000/svg" width="32" height="32" viewBox="0 0 24 24">
    <path d="M 18.15625 1.1875 C 14.128906 0.136719 9.875 0.136719 5.8125 1.199219 C 2.3125 2.40625 0.359375 4.382812 0.00390625 7.074219 L 0 7.132812 C 0 10.417969 2.671875 13.089844 5.957031 13.089844 L 6.035156 13.085938 C 7.261719 12.871094 8.492188 12.730469 9.726562 12.652344 C 9.699219 12.761719 9.679688 12.875 9.6875 12.996094 C 9.742188 14.460938 9.707031 18.046875 8.183594 19.695312 C 8.144531 19.734375 7.21875 20.695312 7.375 21.8125 C 7.460938 22.464844 7.878906 23.011719 8.613281 23.4375 C 8.796875 23.542969 9.011719 23.597656 9.238281 23.597656 L 14.941406 23.597656 C 15.164062 23.597656 15.378906 23.542969 15.5625 23.4375 C 16.296875 23.011719 16.714844 22.464844 16.804688 21.8125 C 16.953125 20.726562 16.085938 19.789062 16 19.699219 C 14.472656 18.042969 14.433594 14.457031 14.492188 12.996094 C 14.496094 12.882812 14.480469 12.769531 14.453125 12.664062 C 15.628906 12.746094 16.800781 12.882812 17.96875 13.085938 L 18.042969 13.089844 C 21.328125 13.089844 24.003906 10.417969 24 7.105469 C 23.8125 4.136719 21.902344 2.203125 18.15625 1.1875 Z M 13.5 12.683594 C 13.574219 12.757812 13.609375 12.855469 13.605469 12.960938 C 13.53125 14.917969 13.660156 18.472656 15.351562 20.304688 L 15.363281 20.3125 C 15.367188 20.320312 16.019531 21.007812 15.925781 21.695312 C 15.878906 22.0625 15.605469 22.390625 15.121094 22.671875 C 15.074219 22.699219 15.007812 22.714844 14.941406 22.714844 L 9.234375 22.714844 C 9.167969 22.714844 9.105469 22.699219 9.058594 22.671875 C 8.570312 22.390625 8.300781 22.0625 8.25 21.695312 C 8.152344 21.007812 8.808594 20.320312 8.824219 20.304688 C 10.515625 18.472656 10.644531 14.917969 10.570312 12.960938 C 10.566406 12.855469 10.601562 12.757812 10.675781 12.683594 C 10.714844 12.644531 10.757812 12.613281 10.808594 12.59375 C 11.664062 12.566406 12.523438 12.5625 13.378906 12.597656 C 13.425781 12.617188 13.464844 12.644531 13.5 12.683594 Z M 18.078125 12.207031 C 16.5625 11.945312 15.039062 11.78125 13.511719 11.714844 C 13.417969 11.695312 13.324219 11.679688 13.226562 11.679688 L 10.949219 11.679688 C 10.855469 11.679688 10.765625 11.691406 10.675781 11.710938 C 9.085938 11.773438 7.5 11.933594 5.921875 12.207031 C 3.148438 12.1875 0.898438 9.933594 0.882812 7.160156 C 1.207031 4.8125 2.914062 3.136719 6.070312 2.042969 C 9.949219 1.03125 14.050781 1.03125 17.925781 2.042969 C 21.304688 2.957031 22.953125 4.582031 23.117188 7.132812 C 23.117188 9.917969 20.859375 12.1875 18.078125 12.207031 Z M 18.078125 12.207031"/>
    <path d="M11.28125 2.789062C10.273438 2.777344 9.296875 2.839844 8.378906 2.972656 8.136719 3.007812 7.96875 3.230469 8.003906 3.472656 8.035156 3.691406 8.222656 3.851562 8.441406 3.851562 8.460938 3.851562 8.480469 3.851562 8.503906 3.847656 9.378906 3.722656 10.308594 3.660156 11.273438 3.671875 11.507812 3.667969 11.71875 3.480469 11.722656 3.234375 11.722656 2.992188 11.527344 2.792969 11.28125 2.789062zM6.722656 3.3125C3.988281 4.0625 2.410156 5.84375 2.5 8.078125 2.511719 8.316406 2.707031 8.5 2.941406 8.5 2.949219 8.5 2.957031 8.5 2.960938 8.5 3.207031 8.492188 3.394531 8.285156 3.386719 8.039062 3.277344 5.457031 5.847656 4.46875 6.957031 4.164062 7.191406 4.101562 7.332031 3.855469 7.265625 3.621094 7.203125 3.386719 6.957031 3.246094 6.722656 3.3125zM6.722656 3.3125"/>
</svg>
