<svg xmlns="http://www.w3.org/2000/svg" width="32" height="32" viewBox="0 0 24 24">
    <path d="M 18.5625 4.703125 C 17.898438 4.398438 17.597656 4.230469 17.519531 3.90625 C 17.53125 3.902344 17.542969 3.894531 17.554688 3.890625 C 17.582031 3.878906 17.605469 3.867188 17.632812 3.855469 C 17.6875 3.828125 17.742188 3.800781 17.792969 3.765625 C 17.820312 3.75 17.84375 3.734375 17.867188 3.71875 C 17.921875 3.679688 17.972656 3.636719 18.023438 3.59375 C 18.039062 3.578125 18.054688 3.566406 18.070312 3.550781 C 18.128906 3.488281 18.183594 3.421875 18.234375 3.351562 C 18.246094 3.332031 18.253906 3.3125 18.265625 3.292969 C 18.300781 3.238281 18.335938 3.179688 18.363281 3.117188 C 18.375 3.09375 18.386719 3.066406 18.394531 3.035156 C 18.417969 2.976562 18.4375 2.917969 18.453125 2.855469 C 18.460938 2.828125 18.46875 2.800781 18.472656 2.773438 C 18.488281 2.683594 18.5 2.59375 18.5 2.5 L 18.5 1.5 C 18.5 0.671875 17.828125 0 17 0 L 6.5 0 C 5.671875 0 5 0.671875 5 1.5 L 5 2.5 C 5 2.601562 5.011719 2.703125 5.03125 2.796875 C 5.035156 2.832031 5.050781 2.867188 5.0625 2.898438 C 5.078125 2.960938 5.09375 3.019531 5.117188 3.078125 C 5.132812 3.117188 5.15625 3.148438 5.175781 3.1875 C 5.199219 3.234375 5.222656 3.285156 5.253906 3.328125 C 5.277344 3.367188 5.308594 3.398438 5.335938 3.433594 C 5.367188 3.472656 5.398438 3.515625 5.433594 3.550781 C 5.464844 3.582031 5.5 3.609375 5.535156 3.636719 C 5.574219 3.671875 5.609375 3.703125 5.648438 3.734375 C 5.6875 3.757812 5.726562 3.777344 5.765625 3.800781 C 5.8125 3.824219 5.851562 3.851562 5.902344 3.871094 C 5.941406 3.890625 5.988281 3.902344 6.03125 3.917969 C 6.078125 3.933594 6.125 3.953125 6.175781 3.964844 C 6.222656 3.972656 6.269531 3.976562 6.316406 3.980469 C 6.363281 3.988281 6.40625 3.996094 6.449219 4 C 6.339844 4.265625 6.035156 4.429688 5.4375 4.703125 C 4.40625 5.175781 3 5.824219 3 8.210938 L 3 19.308594 C 3 19.359375 3.007812 19.410156 3.007812 19.460938 C 3.007812 19.476562 3 19.488281 3 19.5 C 3 19.523438 3.011719 19.542969 3.011719 19.566406 C 3.148438 22.03125 5.191406 24 7.691406 24 L 16.308594 24 C 18.808594 24 20.851562 22.03125 20.988281 19.566406 C 20.988281 19.542969 21 19.523438 21 19.5 C 21 19.488281 20.992188 19.476562 20.992188 19.460938 C 20.992188 19.410156 21 19.359375 21 19.308594 L 21 8.210938 C 21 5.824219 19.59375 5.175781 18.5625 4.703125 Z M 4 19 L 4 9.5 L 20 9.5 L 20 19 Z M 6 1.5 C 6 1.222656 6.222656 1 6.5 1 L 17 1 C 17.277344 1 17.5 1.222656 17.5 1.5 L 17.5 2.5 C 17.5 2.777344 17.277344 3 17 3 L 6.5 3 C 6.222656 3 6 2.777344 6 2.5 Z M 5.855469 5.613281 C 6.554688 5.289062 7.335938 4.921875 7.472656 4 L 16.527344 4 C 16.664062 4.921875 17.445312 5.289062 18.144531 5.613281 C 19.097656 6.050781 20 6.464844 20 8.210938 L 20 8.5 L 4 8.5 L 4 8.210938 C 4 6.464844 4.902344 6.050781 5.855469 5.613281 Z M 16.308594 23 L 7.691406 23 C 5.894531 23 4.390625 21.707031 4.066406 20 L 19.933594 20 C 19.609375 21.707031 18.105469 23 16.308594 23 Z M 16.308594 23"/>
    <path d="M9.75 11.5C10.027344 11.5 10.25 11.277344 10.25 11 10.25 10.722656 10.027344 10.5 9.75 10.5 7.683594 10.5 6 12.183594 6 14.25 6 16.316406 7.683594 18 9.75 18 10.027344 18 10.25 17.777344 10.25 17.5 10.25 17.222656 10.027344 17 9.75 17 8.234375 17 7 15.765625 7 14.25 7 12.734375 8.234375 11.5 9.75 11.5zM14.25 10.5C13.972656 10.5 13.75 10.722656 13.75 11 13.75 11.277344 13.972656 11.5 14.25 11.5 15.765625 11.5 17 12.734375 17 14.25 17 15.765625 15.765625 17 14.25 17 13.972656 17 13.75 17.222656 13.75 17.5 13.75 17.777344 13.972656 18 14.25 18 16.316406 18 18 16.316406 18 14.25 18 12.183594 16.316406 10.5 14.25 10.5zM14.25 10.5"/>
</svg>
