<svg xmlns="http://www.w3.org/2000/svg" width="32" height="32" viewBox="0 0 24 24">
    <path d="M18.563 4.703c-.665-.305-.965-.473-1.043-.797.011-.004.023-.011.035-.015l.078-.036c.055-.027.11-.054.16-.09.027-.015.05-.03.074-.046.055-.04.106-.082.156-.125.016-.016.032-.028.047-.043a2.02 2.02 0 0 0 .164-.2c.012-.019.02-.038.032-.058a1.27 1.27 0 0 0 .097-.176.4.4 0 0 0 .032-.082 1.38 1.38 0 0 0 .078-.262c.015-.09.027-.18.027-.273v-1A1.5 1.5 0 0 0 17 0H6.5A1.5 1.5 0 0 0 5 1.5v1c0 .102.012.203.031.297.004.035.02.07.032.101.015.063.03.122.054.18.016.04.04.07.059.11.023.046.047.097.078.14.023.04.055.07.082.106.031.039.062.082.098.117.03.031.066.058.101.086.04.035.074.066.113.097.04.024.079.043.118.067.046.023.086.05.136.07.04.02.086.031.13.047.046.016.093.035.144.047.047.008.094.012.14.015.047.008.09.016.133.02-.11.266-.414.43-1.011.703C4.405 5.176 3 5.824 3 8.211v11.098c0 .05.008.101.008.152 0 .016-.008.027-.008.039 0 .023.012.043.012.066C3.148 22.031 5.192 24 7.692 24h8.617c2.5 0 4.543-1.969 4.68-4.434 0-.023.011-.043.011-.066 0-.012-.008-.023-.008-.04 0-.05.008-.1.008-.151V8.21c0-2.387-1.406-3.035-2.438-3.508zM4 19V9.5h16V19zM6 1.5c0-.277.223-.5.5-.5H17c.277 0 .5.223.5.5v1c0 .277-.223.5-.5.5H6.5a.498.498 0 0 1-.5-.5zm-.145 4.113c.7-.324 1.48-.691 1.618-1.613h9.054c.137.922.918 1.29 1.618 1.613.953.438 1.855.852 1.855 2.598V8.5H4v-.29c0-1.745.902-2.16 1.855-2.597zM16.31 23H7.69a3.697 3.697 0 0 1-3.625-3h15.868a3.697 3.697 0 0 1-3.625 3zm0 0"/>
    <path d="M9.75 11.5c.277 0 .5-.223.5-.5s-.223-.5-.5-.5A3.756 3.756 0 0 0 6 14.25 3.756 3.756 0 0 0 9.75 18c.277 0 .5-.223.5-.5s-.223-.5-.5-.5A2.754 2.754 0 0 1 7 14.25a2.754 2.754 0 0 1 2.75-2.75zm0 0M14.25 10.5c-.277 0-.5.223-.5.5s.223.5.5.5A2.754 2.754 0 0 1 17 14.25 2.754 2.754 0 0 1 14.25 17c-.277 0-.5.223-.5.5s.223.5.5.5A3.756 3.756 0 0 0 18 14.25a3.756 3.756 0 0 0-3.75-3.75zm0 0"/>
</svg>
