<svg xmlns="http://www.w3.org/2000/svg" width="32" height="32" viewBox="0 0 24 24">
    <path d="M11.089844 17.46875C10.949219 17.066406 10.875 16.648438 10.875 16.21875 10.875 15.980469 10.679688 15.785156 10.441406 15.785156 10.203125 15.785156 10.007812 15.980469 10.007812 16.21875 10.007812 16.746094 10.097656 17.265625 10.269531 17.757812 10.332031 17.9375 10.5 18.046875 10.679688 18.046875 10.726562 18.046875 10.777344 18.039062 10.824219 18.023438 11.050781 17.945312 11.167969 17.695312 11.089844 17.46875zM14.617188 19.960938C13.535156 19.960938 12.503906 19.492188 11.792969 18.675781 11.636719 18.492188 11.359375 18.476562 11.179688 18.632812 11 18.789062 10.980469 19.0625 11.136719 19.242188 12.015625 20.25 13.28125 20.828125 14.617188 20.828125 14.855469 20.828125 15.050781 20.632812 15.050781 20.394531 15.050781 20.15625 14.855469 19.960938 14.617188 19.960938zM14.617188 19.960938"/>
    <path d="M 24 7.886719 C 24 4.390625 21.152344 1.542969 17.65625 1.542969 C 14.261719 1.542969 11.488281 4.222656 11.324219 7.574219 C 10.152344 6.085938 8.339844 5.140625 6.347656 5.140625 C 2.847656 5.140625 0 7.988281 0 11.484375 C 0 14.984375 2.847656 17.832031 6.34375 17.832031 C 7.042969 17.832031 7.726562 17.710938 8.378906 17.492188 C 9.011719 20.328125 11.546875 22.457031 14.570312 22.457031 C 18.070312 22.457031 20.914062 19.609375 20.914062 16.113281 C 20.914062 15.21875 20.730469 14.371094 20.394531 13.601562 C 22.570312 12.554688 24 10.324219 24 7.886719 Z M 6.34375 16.964844 C 3.324219 16.964844 0.867188 14.507812 0.867188 11.484375 C 0.867188 8.464844 3.324219 6.007812 6.34375 6.007812 C 8.949219 6.007812 11.199219 7.875 11.707031 10.402344 C 9.527344 11.464844 8.136719 13.667969 8.136719 16.113281 C 8.136719 16.285156 8.148438 16.460938 8.164062 16.652344 C 7.582031 16.859375 6.972656 16.964844 6.34375 16.964844 Z M 14.570312 21.589844 C 11.550781 21.589844 9.09375 19.132812 9.09375 16.113281 C 9.09375 13.105469 11.53125 10.65625 14.535156 10.636719 C 14.609375 10.636719 14.683594 10.640625 14.757812 10.644531 C 14.804688 10.644531 14.851562 10.648438 14.898438 10.652344 C 16.792969 10.792969 18.472656 11.902344 19.351562 13.613281 L 19.53125 13.957031 C 19.53125 13.957031 20.046875 15.335938 20.046875 16.113281 C 20.046875 19.132812 17.589844 21.589844 14.570312 21.589844 Z M 19.992188 12.832031 C 18.945312 11.105469 17.097656 9.921875 14.96875 9.785156 C 14.890625 9.78125 14.808594 9.777344 14.726562 9.773438 C 14.675781 9.773438 14.625 9.765625 14.570312 9.765625 C 14.558594 9.765625 14.546875 9.769531 14.535156 9.769531 C 14.519531 9.769531 14.5 9.765625 14.484375 9.765625 C 13.855469 9.765625 13.234375 9.863281 12.625 10.050781 C 12.328125 9.363281 12.175781 8.636719 12.175781 7.886719 C 12.175781 4.867188 14.632812 2.410156 17.65625 2.410156 C 20.675781 2.410156 23.132812 4.867188 23.132812 7.886719 C 23.132812 10 21.886719 11.933594 19.992188 12.832031 Z M 19.992188 12.832031"/>
    <path d="M8.378906 8.789062C8.378906 8.035156 7.617188 7.445312 6.644531 7.445312 5.667969 7.445312 4.90625 8.035156 4.90625 8.789062 4.90625 9.542969 5.667969 10.132812 6.644531 10.132812 6.882812 10.132812 7.078125 9.941406 7.078125 9.699219 7.078125 9.460938 6.882812 9.265625 6.644531 9.265625 6.144531 9.265625 5.773438 9.015625 5.773438 8.789062 5.773438 8.5625 6.144531 8.3125 6.644531 8.3125 7.140625 8.3125 7.511719 8.5625 7.511719 8.789062 7.511719 9.027344 7.703125 9.222656 7.945312 9.222656 8.183594 9.222656 8.378906 9.027344 8.378906 8.789062zM17.925781 3.363281C16.953125 3.363281 16.1875 3.957031 16.1875 4.710938 16.1875 5.464844 16.953125 6.054688 17.925781 6.054688 18.164062 6.054688 18.359375 5.859375 18.359375 5.621094 18.359375 5.382812 18.164062 5.1875 17.925781 5.1875 17.429688 5.1875 17.058594 4.933594 17.058594 4.710938 17.058594 4.484375 17.429688 4.234375 17.925781 4.234375 18.421875 4.234375 18.792969 4.484375 18.792969 4.710938 18.792969 4.949219 18.988281 5.144531 19.226562 5.144531 19.464844 5.144531 19.660156 4.949219 19.660156 4.710938 19.660156 3.957031 18.898438 3.363281 17.925781 3.363281zM14.886719 11.609375C13.914062 11.609375 13.152344 12.199219 13.152344 12.953125 13.152344 13.707031 13.914062 14.300781 14.886719 14.300781 15.128906 14.300781 15.320312 14.105469 15.320312 13.867188 15.320312 13.625 15.128906 13.433594 14.886719 13.433594 14.390625 13.433594 14.019531 13.179688 14.019531 12.953125 14.019531 12.730469 14.390625 12.476562 14.886719 12.476562 15.382812 12.476562 15.753906 12.730469 15.753906 12.953125 15.753906 13.195312 15.949219 13.386719 16.1875 13.386719 16.429688 13.386719 16.625 13.195312 16.625 12.953125 16.625 12.199219 15.859375 11.609375 14.886719 11.609375zM14.886719 11.609375"/>
</svg>
