<svg xmlns="http://www.w3.org/2000/svg" width="32" height="32" viewBox="0 0 24 24">
    <path d="M22.684 2.95l1.07-2.692L20.867.02a5.91 5.91 0 0 0-5.25 2.367 11.122 11.122 0 0 0-4.16-.805C5.273 1.582.247 6.609.247 12.793.246 18.973 5.272 24 11.456 24c6.18 0 11.207-5.027 11.207-11.207 0-2.531-.863-4.969-2.43-6.945a5.912 5.912 0 0 0 2.45-2.899zm-.914 9.843c0 5.684-4.63 10.309-10.313 10.309-5.687 0-10.312-4.625-10.312-10.309C1.145 7.105 5.77 2.48 11.457 2.48c1.266 0 2.504.227 3.676.676l-.004.016a7.128 7.128 0 0 0-.274.578l-.726 1.84c-.633-.305-1.211-.406-1.254-.414a.448.448 0 0 0-.148.883c.007.003.218.039.511.136a4.697 4.697 0 0 0-.5.465.446.446 0 0 0 .032.633.447.447 0 0 0 .633-.027c.218-.243.472-.457.745-.637.282.195.528.445.657.77a.448.448 0 0 0 .582.25.45.45 0 0 0 .254-.583 2.454 2.454 0 0 0-.278-.496l1.313.11c.168.011.332.02.5.02.05 0 .097-.005.148-.005.035-.004.067-.004.102-.004.699-.03 1.375-.18 2-.437a10.307 10.307 0 0 1 2.344 6.539zm-2.204-7.598l-.214.102a5.042 5.042 0 0 1-1.895.492c-.031.004-.062.004-.094.004-.207.012-.41.008-.613-.008l-1.137-.094c2.106-1.937 4.305-2.671 4.766-2.765a.449.449 0 0 0 .363-.13.467.467 0 0 0 .117-.444.46.46 0 0 0-.332-.317c-.328-.078-2.71.621-5.047 2.582l.211-.535c.121-.3.278-.602.47-.898l.132-.204A5.025 5.025 0 0 1 20.797.914l1.676.137-.621 1.566a5.02 5.02 0 0 1-2.286 2.578zm0 0"/>
    <path d="M18.527 8.742a.895.895 0 0 1-.898.895.894.894 0 0 1-.895-.895c0-.496.403-.898.895-.898.496 0 .898.402.898.898zm0 0M20.914 13.742a.899.899 0 0 1-1.797 0c0-.496.403-.894.899-.894s.898.398.898.894zm0 0M20.77 10.984a.897.897 0 1 1-.898-.898c.495 0 .898.402.898.898zm0 0M18.059 12.793a.897.897 0 1 1-1.794-.005.897.897 0 0 1 1.794.005zm0 0M18.527 15.914a.899.899 0 0 1-.898.899.898.898 0 0 1-.895-.899c0-.496.403-.894.895-.894.496 0 .898.398.898.894zm0 0M10.457 5.156a.897.897 0 1 1-.898-.898c.496 0 .898.402.898.898zm0 0M7.32 6.5a.895.895 0 0 1-.898.895.892.892 0 0 1-.895-.895c0-.496.399-.898.895-.898s.898.402.898.898zm0 0"/>
</svg>
