<svg xmlns="http://www.w3.org/2000/svg" width="32" height="32" viewBox="0 0 24 24">
    <path d="M 23.5 2.308594 C 22.832031 1.640625 21.746094 1.640625 21.078125 2.308594 L 12.484375 10.90625 L 11.105469 9.527344 C 10.78125 9.203125 10.253906 9.203125 9.929688 9.523438 L 0 19.382812 L 0.304688 19.6875 C 1.972656 21.355469 4.164062 22.191406 6.355469 22.191406 C 8.546875 22.191406 10.738281 21.359375 12.40625 19.691406 L 16.273438 15.882812 C 16.433594 15.726562 16.523438 15.515625 16.523438 15.292969 C 16.523438 15.070312 16.4375 14.859375 16.28125 14.699219 L 14.90625 13.324219 L 23.5 4.730469 C 24.167969 4.0625 24.167969 2.976562 23.5 2.308594 Z M 17.5 7.097656 L 19.316406 7.703125 L 19.085938 7.933594 L 17.269531 7.328125 Z M 15.660156 15.289062 L 11.800781 19.082031 C 8.902344 21.984375 4.242188 22.082031 1.21875 19.375 L 10.5 10.132812 L 11.878906 11.507812 L 11.324219 12.0625 C 11.148438 12.238281 11.050781 12.476562 11.050781 12.722656 C 11.050781 12.972656 11.148438 13.207031 11.324219 13.386719 L 12.421875 14.484375 C 12.601562 14.660156 12.835938 14.757812 13.085938 14.757812 C 13.332031 14.757812 13.570312 14.660156 13.746094 14.484375 L 14.300781 13.929688 Z M 12.484375 12.113281 L 13.695312 13.324219 L 13.140625 13.878906 C 13.109375 13.910156 13.058594 13.910156 13.027344 13.878906 L 11.929688 12.78125 C 11.898438 12.75 11.898438 12.699219 11.929688 12.667969 Z M 13.089844 11.511719 L 16.59375 8.003906 L 18.410156 8.609375 L 14.300781 12.71875 Z M 22.894531 4.125 L 19.992188 7.027344 L 18.179688 6.421875 L 21.683594 2.914062 C 21.84375 2.753906 22.058594 2.664062 22.289062 2.664062 C 22.519531 2.664062 22.734375 2.753906 22.894531 2.914062 C 23.054688 3.074219 23.144531 3.289062 23.144531 3.519531 C 23.144531 3.75 23.054688 3.964844 22.894531 4.125 Z M 22.894531 4.125"/>
</svg>
