<svg xmlns="http://www.w3.org/2000/svg" width="32" height="32" viewBox="0 0 24 24">
    <path d="M 6.800781 10.21875 L 8 10.21875 C 8.660156 10.21875 9.199219 9.679688 9.199219 9.019531 L 9.199219 8.945312 C 9.324219 8.992188 9.460938 9.019531 9.601562 9.019531 L 10.800781 9.019531 C 11.460938 9.019531 12 8.480469 12 7.820312 L 12 6.621094 C 12 5.957031 11.460938 5.417969 10.800781 5.417969 L 9.601562 5.417969 C 8.9375 5.417969 8.398438 5.957031 8.398438 6.621094 L 8.398438 6.691406 C 8.273438 6.648438 8.140625 6.621094 8 6.621094 L 6.800781 6.621094 C 6.136719 6.621094 5.601562 7.15625 5.601562 7.820312 L 5.601562 9.019531 C 5.601562 9.679688 6.136719 10.21875 6.800781 10.21875 Z M 9.199219 6.621094 C 9.199219 6.398438 9.378906 6.21875 9.601562 6.21875 L 10.800781 6.21875 C 11.019531 6.21875 11.199219 6.398438 11.199219 6.621094 L 11.199219 7.820312 C 11.199219 8.039062 11.019531 8.21875 10.800781 8.21875 L 9.601562 8.21875 C 9.378906 8.21875 9.199219 8.039062 9.199219 7.820312 Z M 6.398438 7.820312 C 6.398438 7.597656 6.578125 7.417969 6.800781 7.417969 L 8 7.417969 C 8.222656 7.417969 8.398438 7.597656 8.398438 7.820312 L 8.398438 9.019531 C 8.398438 9.238281 8.222656 9.417969 8 9.417969 L 6.800781 9.417969 C 6.578125 9.417969 6.398438 9.238281 6.398438 9.019531 Z M 6.398438 7.820312"/>
    <path d="M 22.511719 12.0625 C 22.5625 11.894531 22.589844 11.722656 22.589844 11.546875 C 22.589844 11.28125 22.523438 11.015625 22.398438 10.753906 C 22.523438 10.488281 22.589844 10.21875 22.589844 9.941406 C 22.589844 9.675781 22.527344 9.410156 22.402344 9.148438 C 22.527344 8.886719 22.589844 8.617188 22.589844 8.339844 C 22.589844 8.003906 22.488281 7.667969 22.289062 7.339844 C 22.285156 7.332031 22.28125 7.328125 22.277344 7.320312 C 20.941406 5.367188 16.714844 4 12 4 C 7.285156 4 3.058594 5.367188 1.707031 7.339844 C 1.511719 7.667969 1.410156 8.003906 1.410156 8.339844 C 1.410156 8.613281 1.476562 8.882812 1.601562 9.144531 C 1.476562 9.40625 1.410156 9.671875 1.410156 9.941406 C 1.410156 10.214844 1.476562 10.488281 1.601562 10.75 C 1.476562 11.011719 1.410156 11.28125 1.410156 11.550781 C 1.410156 11.71875 1.4375 11.886719 1.484375 12.050781 C 0.503906 12.703125 0 13.496094 0 14.417969 C 0 17.105469 3.753906 20 12 20 C 23.136719 20 24 15.726562 24 14.417969 C 24 13.511719 23.496094 12.722656 22.511719 12.0625 Z M 21.777344 13.308594 C 21.773438 13.335938 21.765625 13.367188 21.757812 13.394531 C 21.75 13.417969 21.746094 13.441406 21.738281 13.464844 C 21.730469 13.492188 21.71875 13.519531 21.707031 13.546875 C 21.699219 13.574219 21.691406 13.59375 21.679688 13.621094 C 21.664062 13.648438 21.648438 13.675781 21.632812 13.703125 C 21.621094 13.726562 21.609375 13.75 21.59375 13.773438 C 21.578125 13.800781 21.558594 13.828125 21.539062 13.855469 C 21.523438 13.878906 21.507812 13.90625 21.488281 13.929688 C 21.46875 13.957031 21.445312 13.980469 21.425781 14.007812 C 21.40625 14.03125 21.382812 14.058594 21.359375 14.082031 C 21.339844 14.109375 21.3125 14.132812 21.289062 14.160156 C 21.261719 14.183594 21.238281 14.210938 21.210938 14.238281 C 21.183594 14.261719 21.15625 14.285156 21.128906 14.3125 C 21.097656 14.335938 21.070312 14.363281 21.042969 14.386719 C 21.011719 14.414062 20.976562 14.4375 20.945312 14.460938 C 20.914062 14.488281 20.882812 14.511719 20.851562 14.539062 C 20.816406 14.5625 20.78125 14.585938 20.746094 14.613281 C 20.710938 14.636719 20.675781 14.660156 20.640625 14.683594 C 20.601562 14.710938 20.5625 14.734375 20.523438 14.757812 C 20.488281 14.78125 20.449219 14.804688 20.410156 14.828125 C 20.371094 14.855469 20.324219 14.878906 20.28125 14.902344 C 20.242188 14.925781 20.203125 14.949219 20.164062 14.96875 C 20.117188 14.996094 20.070312 15.019531 20.023438 15.042969 C 19.980469 15.066406 19.9375 15.085938 19.894531 15.109375 C 19.847656 15.132812 19.800781 15.15625 19.75 15.175781 C 19.703125 15.199219 19.660156 15.222656 19.609375 15.242188 C 19.558594 15.265625 19.507812 15.289062 19.457031 15.3125 C 19.40625 15.332031 19.359375 15.355469 19.308594 15.375 C 19.253906 15.398438 19.199219 15.417969 19.144531 15.441406 C 19.09375 15.460938 19.042969 15.480469 18.988281 15.5 C 18.933594 15.523438 18.875 15.542969 18.816406 15.5625 C 18.761719 15.582031 18.707031 15.605469 18.652344 15.621094 C 18.59375 15.644531 18.53125 15.664062 18.472656 15.683594 C 18.414062 15.703125 18.359375 15.722656 18.300781 15.738281 C 18.242188 15.757812 18.175781 15.777344 18.117188 15.796875 C 18.054688 15.8125 17.996094 15.832031 17.933594 15.851562 C 17.871094 15.867188 17.804688 15.886719 17.738281 15.902344 C 17.675781 15.921875 17.617188 15.9375 17.554688 15.953125 C 17.488281 15.972656 17.417969 15.988281 17.351562 16.003906 C 17.324219 16.011719 17.296875 16.019531 17.265625 16.027344 C 17.472656 15.8125 17.601562 15.519531 17.601562 15.199219 L 17.601562 15.164062 C 19.515625 14.683594 20.960938 13.996094 21.789062 13.191406 C 21.785156 13.207031 21.785156 13.222656 21.78125 13.242188 C 21.78125 13.265625 21.78125 13.285156 21.777344 13.308594 Z M 15.625 16.347656 C 15.5625 16.359375 15.503906 16.367188 15.441406 16.378906 C 15.351562 16.390625 15.257812 16.402344 15.167969 16.414062 C 15.21875 16.386719 15.273438 16.359375 15.320312 16.324219 C 15.359375 16.296875 15.390625 16.269531 15.421875 16.238281 C 15.46875 16.199219 15.519531 16.160156 15.5625 16.113281 C 15.570312 16.105469 15.582031 16.097656 15.589844 16.085938 C 15.691406 16.175781 15.804688 16.246094 15.929688 16.300781 C 15.914062 16.304688 15.902344 16.304688 15.886719 16.308594 C 15.800781 16.324219 15.714844 16.335938 15.625 16.347656 Z M 13.535156 16.574219 C 13.429688 16.578125 13.328125 16.582031 13.222656 16.589844 C 13.160156 16.589844 13.09375 16.59375 13.03125 16.597656 C 12.941406 16.601562 12.851562 16.605469 12.757812 16.605469 C 12.679688 16.609375 12.601562 16.613281 12.519531 16.613281 C 12.347656 16.617188 12.175781 16.617188 12 16.617188 C 6.429688 16.617188 2.261719 14.808594 2.210938 13.175781 C 3.804688 14.726562 7.589844 15.820312 12 15.820312 C 12.332031 15.820312 12.664062 15.8125 13.011719 15.796875 C 13.210938 16.152344 13.542969 16.421875 13.941406 16.542969 C 13.867188 16.550781 13.792969 16.554688 13.71875 16.558594 C 13.65625 16.5625 13.597656 16.570312 13.535156 16.574219 Z M 4.332031 11.273438 C 4.378906 11.292969 4.425781 11.3125 4.472656 11.332031 C 4.539062 11.359375 4.601562 11.386719 4.667969 11.410156 C 4.785156 11.457031 4.90625 11.5 5.027344 11.542969 C 5.046875 11.550781 5.066406 11.558594 5.089844 11.566406 C 6.46875 12.046875 8.164062 12.390625 10.035156 12.535156 C 10.070312 12.539062 10.105469 12.539062 10.140625 12.542969 C 10.359375 12.558594 10.578125 12.570312 10.800781 12.582031 L 10.800781 13.382812 C 5.753906 13.140625 2.261719 11.429688 2.210938 9.972656 C 2.710938 10.457031 3.441406 10.898438 4.332031 11.273438 Z M 10.921875 14.1875 C 11.136719 14.667969 11.617188 15.007812 12.175781 15.015625 C 12.117188 15.015625 12.058594 15.019531 12 15.019531 C 7.050781 15.019531 3.210938 13.589844 2.378906 12.128906 C 2.378906 12.125 2.375 12.121094 2.375 12.121094 C 2.269531 11.933594 2.210938 11.742188 2.210938 11.558594 C 3.664062 12.972656 6.964844 14.023438 10.921875 14.1875 Z M 12.800781 15.007812 C 12.605469 15.011719 12.417969 15.015625 12.230469 15.015625 C 12.433594 15.011719 12.628906 14.964844 12.800781 14.882812 Z M 17.601562 11.957031 C 17.835938 11.898438 18.058594 11.835938 18.28125 11.769531 C 18.289062 11.769531 18.292969 11.765625 18.300781 11.765625 C 19.875 11.296875 21.066406 10.679688 21.789062 9.976562 C 21.75 10.988281 20.097656 12.070312 17.601562 12.730469 Z M 21.789062 11.582031 C 21.753906 12.597656 20.101562 13.675781 17.601562 14.339844 L 17.601562 13.554688 C 19.515625 13.074219 20.960938 12.386719 21.789062 11.582031 Z M 2.382812 7.773438 C 3.390625 6.296875 7.019531 4.800781 12 4.800781 C 16.96875 4.800781 20.59375 6.289062 21.613281 7.761719 C 21.730469 7.964844 21.789062 8.152344 21.789062 8.339844 C 21.789062 8.535156 21.726562 8.734375 21.613281 8.929688 C 21.609375 8.933594 21.605469 8.9375 21.601562 8.941406 C 21.539062 9.050781 21.457031 9.160156 21.359375 9.265625 C 21.351562 9.277344 21.339844 9.285156 21.332031 9.296875 C 21.292969 9.339844 21.246094 9.382812 21.203125 9.429688 C 21.179688 9.449219 21.15625 9.472656 21.128906 9.492188 C 21.089844 9.527344 21.050781 9.5625 21.007812 9.597656 C 20.957031 9.640625 20.898438 9.683594 20.84375 9.726562 C 20.824219 9.742188 20.804688 9.757812 20.785156 9.773438 C 20.695312 9.835938 20.601562 9.898438 20.503906 9.957031 C 20.5 9.960938 20.492188 9.964844 20.488281 9.96875 C 20.394531 10.027344 20.292969 10.085938 20.1875 10.140625 C 20.179688 10.148438 20.167969 10.15625 20.15625 10.160156 C 20.054688 10.214844 19.945312 10.273438 19.835938 10.324219 C 19.828125 10.328125 19.820312 10.332031 19.8125 10.335938 C 19.449219 10.511719 19.042969 10.675781 18.605469 10.828125 C 18.578125 10.835938 18.554688 10.84375 18.527344 10.851562 C 18.414062 10.890625 18.296875 10.929688 18.175781 10.964844 C 18.136719 10.980469 18.09375 10.992188 18.050781 11.003906 C 17.941406 11.039062 17.828125 11.070312 17.714844 11.097656 C 17.671875 11.113281 17.628906 11.125 17.582031 11.136719 C 17.429688 11.175781 17.269531 11.21875 17.109375 11.253906 C 16.929688 11.296875 16.800781 11.457031 16.800781 11.644531 L 16.800781 15.199219 C 16.800781 15.421875 16.621094 15.601562 16.398438 15.601562 C 16.179688 15.601562 16 15.421875 16 15.199219 L 16 15.019531 C 16 14.796875 15.820312 14.621094 15.601562 14.621094 C 15.378906 14.621094 15.199219 14.796875 15.199219 15.019531 C 15.199219 15.460938 14.839844 15.820312 14.398438 15.820312 C 14.046875 15.820312 13.75 15.589844 13.644531 15.273438 C 13.644531 15.269531 13.644531 15.265625 13.644531 15.261719 C 13.628906 15.21875 13.621094 15.179688 13.613281 15.140625 C 13.605469 15.101562 13.601562 15.058594 13.601562 15.019531 L 13.601562 13.621094 C 13.601562 13.398438 13.421875 13.21875 13.199219 13.21875 C 12.980469 13.21875 12.800781 13.398438 12.800781 13.621094 C 12.800781 13.949219 12.53125 14.21875 12.199219 14.21875 C 11.90625 14.21875 11.664062 14.007812 11.609375 13.730469 C 11.609375 13.730469 11.613281 13.726562 11.609375 13.726562 C 11.605469 13.691406 11.601562 13.65625 11.601562 13.621094 L 11.601562 12.199219 C 11.601562 11.980469 11.429688 11.804688 11.210938 11.796875 C 10.890625 11.789062 10.574219 11.769531 10.265625 11.75 C 10.21875 11.746094 10.171875 11.742188 10.125 11.738281 C 9.851562 11.71875 9.582031 11.695312 9.320312 11.664062 C 9.300781 11.664062 9.28125 11.660156 9.261719 11.65625 C 5.023438 11.179688 2.210938 9.652344 2.210938 8.339844 C 2.210938 8.148438 2.269531 7.957031 2.382812 7.773438 Z M 12 19.199219 C 3.78125 19.199219 0.800781 16.339844 0.800781 14.417969 C 0.800781 13.949219 1.003906 13.515625 1.410156 13.121094 C 1.410156 13.128906 1.410156 13.140625 1.410156 13.148438 C 1.410156 15.503906 6.160156 17.417969 12 17.417969 C 17.839844 17.417969 22.589844 15.503906 22.589844 13.148438 C 22.589844 13.144531 22.589844 13.144531 22.589844 13.140625 C 22.996094 13.535156 23.199219 13.960938 23.199219 14.417969 C 23.199219 17.945312 17.414062 19.199219 12 19.199219 Z M 12 19.199219"/>
    <path d="M 13.429688 10.710938 C 16.957031 10.710938 20.707031 9.691406 20.707031 7.804688 C 20.707031 7.585938 20.527344 7.40625 20.304688 7.40625 C 20.085938 7.40625 19.90625 7.585938 19.90625 7.804688 C 19.90625 8.796875 17.136719 9.910156 13.429688 9.910156 C 13.210938 9.910156 13.03125 10.089844 13.03125 10.308594 C 13.03125 10.53125 13.210938 10.710938 13.429688 10.710938 Z M 13.429688 10.710938"/>
</svg>
