<svg xmlns="http://www.w3.org/2000/svg" width="32" height="32" viewBox="0 0 24 24">
    <path d="M24 14.602c0-.665-.54-1.204-1.2-1.204H1.2a1.199 1.199 0 1 0-.023 2.398c.514.692 1.44 1.4 2.42 2.145C5.286 19.231 7.2 20.691 7.2 22.2v.403h9.602v-.403c0-1.508 1.914-2.969 3.601-4.258.98-.746 1.907-1.453 2.422-2.144A1.199 1.199 0 0 0 24 14.602zm-22.8-.403h21.6a.401.401 0 0 1 0 .801H1.2a.4.4 0 0 1 0-.8zm6.769 7.602a2.861 2.861 0 0 0-.094-.403h8.25c-.04.133-.074.266-.094.403zm11.949-4.492c-1.297.988-2.715 2.07-3.438 3.293H7.52c-.723-1.223-2.141-2.305-3.438-3.293-.691-.532-1.36-1.04-1.84-1.508h19.516c-.48.469-1.149.976-1.84 1.508zm0 0M4 13c.223 0 .398-.18.398-.398A3.605 3.605 0 0 1 8 9h.8a.4.4 0 0 0 0-.8H8a4.406 4.406 0 0 0-4.398 4.402c0 .218.175.398.398.398zm0 0"/>
    <path d="M10 10.602H8c-1.102 0-2 .894-2 2a.4.4 0 0 0 .8 0c0-.665.54-1.204 1.2-1.204h2a.395.395 0 0 0 .398-.398.395.395 0 0 0-.398-.398zm0 0"/>
    <path d="M9.602 10.2a.4.4 0 0 0 0-.802H8a3.204 3.204 0 0 0-3.2 3.204.4.4 0 0 0 .802 0A2.402 2.402 0 0 1 8 10.199zm0 0M10 11.8H8a.398.398 0 0 0-.398.4c0 .222.175.402.398.402h2c.223 0 .398-.18.398-.403a.398.398 0 0 0-.398-.398zm0 0M12.8 8.2a.401.401 0 0 0 0 .8h2.802a3.602 3.602 0 0 1 3.597 3.602.401.401 0 0 0 .801 0 4.406 4.406 0 0 0-4.398-4.403zm0 0"/>
    <path d="M16.8 12.602a.4.4 0 0 0 .802 0c0-1.106-.899-2-2-2h-2a.398.398 0 1 0 0 .796h2c.66 0 1.199.54 1.199 1.204zm0 0"/>
    <path d="M18.398 13c.223 0 .403-.18.403-.398a3.207 3.207 0 0 0-3.2-3.204H13.2a.401.401 0 0 0 0 .801h2.403A2.405 2.405 0 0 1 18 12.602a.4.4 0 0 0 .398.398zm0 0M13.602 11.8a.401.401 0 1 0 0 .802h2a.401.401 0 0 0 0-.801zm0 0M11.2 13c.222 0 .402-.18.402-.398 0-4.961-2.176-6-4-6A1.2 1.2 0 0 0 6.398 7.8a.401.401 0 0 0 .801 0c0-.223.18-.403.403-.403 2.152 0 3.199 1.704 3.199 5.204a.4.4 0 0 0 .398.398zm0 0"/>
    <path d="M5.2 9c.222 0 .402-.18.402-.398v-.403c0-1.101.894-2 2-2C11.57 6.2 12 10.676 12 12.602a.4.4 0 0 0 .8 0c0-4.512-1.945-7.204-5.198-7.204A2.803 2.803 0 0 0 4.8 8.2v.403A.4.4 0 0 0 5.199 9zm0 0"/>
    <path d="M13.2 7.8c.882 0 1.6-.718 1.6-1.6a1.6 1.6 0 1 0-1.6 1.6zm0-2.402A.802.802 0 0 1 13.2 7a.802.802 0 0 1 0-1.602zm0 0M10.2 5.8c.991 0 1.8-.808 1.8-1.8s-.809-1.8-1.8-1.8c-.993 0-1.802.808-1.802 1.8s.809 1.8 1.801 1.8zm0-2.8c.55 0 1 .45 1 1s-.45 1-1 1c-.552 0-1-.45-1-1s.448-1 1-1zm0 0M15.2 6.602A1.6 1.6 0 1 0 16.801 5c-.884 0-1.603.719-1.603 1.602zm1.6-.801a.799.799 0 0 1 0 1.598.799.799 0 1 1 0-1.598zm0 0"/>
    <path d="M14.398 4.602C15.281 4.602 16 3.882 16 3c0-.883-.719-1.602-1.602-1.602a1.603 1.603 0 0 0 0 3.203zm0-2.403a.802.802 0 0 1 0 1.602.799.799 0 0 1-.796-.801c0-.441.355-.8.796-.8zm0 0"/>
</svg>
