<svg xmlns="http://www.w3.org/2000/svg" width="32" height="32" viewBox="0 0 24 24">
    <path d="M22.375 13.625c0-3.133-1.426-6.09-3.848-8.055a5.582 5.582 0 0 0 2.516-2.703l1.102-2.5L19.43.043a5.577 5.577 0 0 0-5.805 3.305l-.016.043A10.25 10.25 0 0 0 12 3.254c-5.719 0-10.375 4.652-10.375 10.371C1.625 19.348 6.281 24 12 24a10.34 10.34 0 0 0 3.387-.57 5.628 5.628 0 0 0 2.394-1.192c2.766-1.867 4.594-5.031 4.594-8.613zm-.848 0a9.488 9.488 0 0 1-1.636 5.336c.273-.84.425-1.715.453-2.566.093-2.977-1.282-6.38-4.563-7.274-.027-.008-.05-.004-.078-.004-.226-.086-1.098-.37-2.5-.418l.363-2.722 1.672.199c.211.027.422.035.633.039.016 0 .035.004.05.004.595 0 1.169-.098 1.716-.274a9.56 9.56 0 0 1 3.89 7.68zM12.66 6.352l-.195 1.453-.192-1.453zm6.668-5.47l1.582.188-.644 1.457a4.74 4.74 0 0 1-2.54 2.485l-.171.062a4.79 4.79 0 0 1-1.617.293h-.075a4.65 4.65 0 0 1-.523-.031l-.676-.082 3.703-2.356a.427.427 0 0 0 .13-.586.427.427 0 0 0-.587-.128l-3.953 2.52.445-1.013A4.732 4.732 0 0 1 19.328.883zM2.473 13.626c0-5.25 4.273-9.523 9.527-9.523.418 0 .84.027 1.258.082l-.582 1.32h-1.371l.406 3.05c-.871-.206-1.598-.722-2.063-2.054a.422.422 0 0 0-.539-.258.421.421 0 0 0-.261.54c.87 2.484 2.625 2.726 4.203 2.757 1.515.035 2.367.375 2.386.383.051.02.11.031.16.031h.005c2.804.793 3.976 3.785 3.894 6.418-.058 1.902-.781 3.945-2.234 5.192a9.338 9.338 0 0 1-2.13 1.058l-.034.012c-.008 0-.016.008-.028.012a9.513 9.513 0 0 1-3.07.507c-5.254 0-9.527-4.273-9.527-9.527zm0 0"/>
    <path d="M4.957 11.43a.424.424 0 1 0-.812-.239 8.39 8.39 0 0 0 .14 5.098.426.426 0 0 0 .399.285.36.36 0 0 0 .14-.027.423.423 0 0 0 .262-.54 7.516 7.516 0 0 1-.129-4.577zm0 0M6.02 7.934a7.924 7.924 0 0 0-1.141 1.53.422.422 0 0 0 .156.579.41.41 0 0 0 .211.059c.145 0 .29-.079.367-.215a6.959 6.959 0 0 1 1.02-1.367.42.42 0 0 0-.016-.598.42.42 0 0 0-.597.012zm0 0"/>
</svg>
