<svg xmlns="http://www.w3.org/2000/svg" width="32" height="32" viewBox="0 0 24 24">
    <path d="M21.988 18.047l.164-.45c.137-.378.18-.847.133-1.48a8.643 8.643 0 0 0-.05-.48c-.07-.563-.098-.899.14-1.246.078-.114.238-.305.406-.508.688-.817 1.172-1.434 1.172-1.93s-.484-1.113-1.172-1.93c-.168-.203-.328-.394-.406-.503-.238-.352-.21-.684-.14-1.247.019-.156.038-.316.05-.484.137-1.8-.41-2.105-1.332-2.398-.45-.145-.957-.305-1.52-.868-.562-.562-.726-1.074-.867-1.523-.293-.918-.601-1.465-2.402-1.332-.168.016-.328.035-.48.055-.563.066-.899.097-1.25-.145-.11-.074-.301-.234-.5-.402C13.114.488 12.496 0 12 0s-1.113.488-1.934 1.176c-.199.168-.39.328-.504.402-.347.238-.683.211-1.246.145-.152-.02-.312-.04-.48-.055-1.8-.137-2.11.414-2.402 1.332-.141.45-.305.96-.868 1.523-.562.563-1.07.723-1.52.868-.921.289-1.468.597-1.331 2.398.012.168.031.328.05.484.07.559.098.895-.14 1.247-.074.109-.234.3-.406.5-.688.82-1.172 1.437-1.172 1.933s.484 1.113 1.172 1.93c.168.203.328.394.406.508.238.347.21.683.14 1.246-.019.156-.038.316-.05.48-.137 1.801.41 2.11 1.332 2.403.45.144.957.304 1.52.867.562.562.726 1.07.867 1.52.293.921.601 1.468 2.402 1.331.168-.011.328-.031.48-.05.563-.07.899-.098 1.246.14.114.078.305.238.508.406.817.688 1.434 1.172 1.93 1.176.496 0 1.113-.488 1.93-1.176.203-.168.394-.328.508-.406.351-.238.687-.21 1.25-.14.132.015.273.035.417.046l.641.055-3.492-9.191zm-8.011 3.613c-.145.098-.34.262-.567.453-.348.293-1.156.973-1.41.985-.254-.012-1.063-.692-1.41-.985a7.862 7.862 0 0 0-.567-.453 1.906 1.906 0 0 0-1.125-.336c-.23 0-.457.031-.68.059-.144.015-.292.035-.445.047-1.289.097-1.355-.102-1.566-.77-.152-.484-.363-1.144-1.066-1.848-.704-.703-1.364-.914-1.848-1.066-.668-.21-.867-.277-.77-1.566.012-.153.032-.301.047-.442.075-.586.149-1.187-.277-1.808a7.862 7.862 0 0 0-.453-.567c-.293-.347-.973-1.156-.985-1.41.012-.254.696-1.066.985-1.41.191-.227.355-.422.453-.566.426-.622.352-1.223.277-1.805-.015-.145-.035-.29-.047-.445-.097-1.29.102-1.356.77-1.567.484-.152 1.144-.363 1.848-1.066.703-.7.914-1.364 1.066-1.848.211-.668.277-.867 1.566-.77.153.012.301.032.442.047.586.075 1.187.149 1.805-.277.148-.098.343-.262.566-.453.348-.29 1.16-.969 1.414-.98.254.011 1.066.69 1.41.984.227.187.422.351.567.453.62.422 1.222.348 1.804.277.145-.02.29-.039.446-.05 1.289-.098 1.355.105 1.566.77.152.483.363 1.148 1.066 1.847.7.703 1.364.914 1.848 1.066.668.215.867.277.77 1.57-.012.153-.032.301-.047.442-.075.582-.149 1.183.277 1.805.098.144.262.34.453.566.29.348.969 1.156.985 1.41-.016.254-.696 1.063-.985 1.41a9.325 9.325 0 0 0-.457.57c-.422.622-.348 1.223-.273 1.805.015.14.035.29.047.442.02.25.02.465.007.652l-1.406-.797c.027-.031.055-.058.074-.098.59-1.218.891-2.527.891-3.894 0-4.918-4-8.922-8.922-8.922C7.2 3.121 3.2 7.125 3.2 12.043c0 4.922 4 8.926 8.922 8.926 1.05 0 2.07-.192 3.047-.547l.355.93c-.5-.055-1.015-.055-1.546.308zm.906-1.996a8.083 8.083 0 0 1-2.762.492c-4.473 0-8.113-3.64-8.113-8.113 0-4.473 3.64-8.113 8.113-8.113 4.473 0 8.113 3.64 8.113 8.113a8.01 8.01 0 0 1-.812 3.539c-.012.023-.012.047-.016.07l-7.71-4.37zm0 0"/>
    <path d="M12.3 9.258c.102 0 .208-.04.286-.121a2.836 2.836 0 0 0 0-4.008.403.403 0 0 0-.574 0 2.812 2.812 0 0 0-.828 2.004c0 .758.293 1.469.828 2.004a.402.402 0 0 0 .289.12zm0-3.184a2.031 2.031 0 0 1 0 2.121 2.019 2.019 0 0 1-.308-1.062c0-.38.113-.742.309-1.059zm0 0M12.012 19.16a.414.414 0 0 0 .289.117c.101 0 .207-.039.285-.117a2.841 2.841 0 0 0 0-4.012.41.41 0 0 0-.574 0 2.82 2.82 0 0 0-.828 2.004c0 .758.293 1.47.828 2.008zm.289-3.066a2.031 2.031 0 0 1 0 2.12 2.019 2.019 0 0 1-.309-1.062c0-.379.113-.742.309-1.058zm0 0M15.305 11.855a.41.41 0 0 0 0 .575 2.832 2.832 0 0 0 4.012 0 .41.41 0 0 0 0-.575 2.848 2.848 0 0 0-4.012 0zm.945.29a2.015 2.015 0 0 1 2.121 0c-.316.195-.68.304-1.062.304-.38 0-.743-.11-1.059-.304zm0 0M9.293 12.43a.403.403 0 0 0 0-.575 2.84 2.84 0 0 0-4.008 0 .41.41 0 0 0 0 .575c.535.535 1.25.832 2.004.832.758 0 1.469-.297 2.004-.832zm-.941-.285c-.317.195-.68.304-1.063.304-.379 0-.742-.11-1.059-.304a2.015 2.015 0 0 1 2.122 0zm0 0M14.629 10.223a2.84 2.84 0 0 0 2.832-2.836.403.403 0 0 0-.402-.407 2.84 2.84 0 0 0-2.836 2.836c0 .223.183.407.406.407zm1.965-2.371a2.023 2.023 0 0 1-1.5 1.5 2.023 2.023 0 0 1 1.5-1.5zm0 0M9.973 13.938c-.758 0-1.47.359-2.004.894-.535.535-.832 1.313-.832 2.07 0 .223.183.403.406.403a2.837 2.837 0 0 0 2.836-2.832c0-.024-.012-.043-.016-.067.004-.02.016-.039.016-.062a.406.406 0 0 0-.406-.406zM7.996 16.44c.078-.39.266-.757.547-1.035a2.25 2.25 0 0 1 .988-.597 2.023 2.023 0 0 1-1.535 1.632zm0 0M9.547 7.813a2.816 2.816 0 0 0-2.004-.833.406.406 0 0 0-.406.407s.004.004.004.008c0 0-.004.003-.004.007 0 .758.297 1.489.832 2.024.535.535 1.246.863 2.004.863a.408.408 0 0 0 .406-.406c0-.012-.008-.024-.008-.035 0-.012.008-.02.008-.032 0-.757-.297-1.468-.832-2.004zm-1.543.035c.363.086.7.265.973.535.285.289.476.644.55 1.035a2.108 2.108 0 0 1-.984-.566 2.005 2.005 0 0 1-.54-1.004zm0 0M18.691 24l.34-.102c.11-.03 2.711-.843 3.914-3.91l.125-.316-8.78-5.379zm-2.574-7.637l4.262 2.614v.015c0 1.254-.875 2.281-1.984 2.39zm3.004 6.63l-.379-.845c1.25-.246 2.23-1.335 2.414-2.699l.903.555a5.995 5.995 0 0 1-2.938 2.988zm0 0"/>
</svg>
