<svg xmlns="http://www.w3.org/2000/svg" width="32" height="32" viewBox="0 0 24 24">
    <path d="M23.281 15.008c.028-.031.055-.063.078-.098.036-.039.063-.082.094-.125l.07-.105c.028-.043.055-.09.082-.137.02-.035.04-.07.06-.11.023-.046.046-.097.065-.148a1.926 1.926 0 0 0 .105-.273c.017-.035.028-.075.04-.114.016-.058.031-.117.043-.18.008-.034.02-.07.027-.109.012-.066.02-.136.028-.203.004-.035.011-.066.011-.097a2.79 2.79 0 0 0 .016-.313c0-1.539-1.195-2.816-2.742-3.012-.215-4.273-3.844-7.113-9.164-7.113-5.43 0-9.133 2.84-9.352 7.113C1.195 10.18 0 11.457 0 12.996c0 .102.004.203.016.305.004.035.011.07.015.101.008.067.02.133.032.196.007.039.019.078.03.117.016.058.028.113.044.168.015.043.031.082.047.12.02.056.035.106.058.157.016.04.04.078.059.117.023.047.043.098.07.145.02.039.047.074.07.113l.082.133.082.11.094.12.094.106c.035.035.07.074.105.11.036.034.07.062.102.097.04.031.078.066.117.098.035.03.074.058.11.086.043.03.085.062.128.09.04.027.079.05.118.078.043.023.09.05.132.078.043.02.086.043.13.062.046.024.093.047.14.067.043.02.086.035.133.05.05.02.097.04.148.055.047.016.094.027.14.04.052.015.102.026.157.038.047.012.094.024.14.031l.165.024c.05.004.097.012.148.015.024 0 .051.004.078.008l.942.903c.707.675 1.332 1.441 1.91 2.164a5.371 5.371 0 0 0 4.223 2.03h4.07a5.371 5.371 0 0 0 4.223-2.03c.578-.723 1.203-1.489 1.906-2.164l.945-.907c.027 0 .055-.007.082-.007.047-.004.094-.012.14-.016.052-.008.106-.016.157-.027.047-.008.09-.016.137-.028a2.18 2.18 0 0 0 .152-.039l.129-.039c.047-.016.098-.035.145-.055.039-.015.082-.03.12-.05.047-.02.094-.043.137-.067.04-.02.078-.039.118-.062.043-.024.085-.051.128-.078.036-.024.07-.047.106-.075.043-.027.082-.058.121-.09l.102-.082a.925.925 0 0 0 .109-.105.934.934 0 0 0 .09-.086c.039-.035.07-.074.105-.113zm-20.12-4.2a.423.423 0 0 0 .421-.425c0-4.602 4.273-6.664 8.512-6.664 5.054 0 8.324 2.617 8.324 6.664 0 .234.187.426.422.426 1.273 0 2.312.98 2.312 2.187 0 .156-.015.305-.043.453-.007.047-.027.09-.039.137-.023.094-.047.187-.082.277-.02.051-.05.094-.074.145-.039.078-.074.156-.121.226-.031.047-.07.086-.102.13-.05.066-.097.132-.156.19-.039.044-.09.075-.133.114-.062.05-.117.105-.183.152-.047.032-.106.055-.16.086-.067.04-.133.078-.204.11-.058.023-.12.039-.183.054-.074.028-.145.055-.227.07-.062.012-.133.012-.199.02-.082.008-.16.024-.246.024-1.371-.012-2.52-.782-2.52-1.7a.423.423 0 0 0-.425-.421.423.423 0 0 0-.426.421c0 .922-1.164 1.7-2.547 1.7-1.379 0-2.547-.778-2.547-1.7a.423.423 0 0 0-.426-.421.423.423 0 0 0-.425.421c0 .922-1.164 1.7-2.547 1.7-1.38 0-2.547-.778-2.547-1.7a.423.423 0 0 0-.426-.421.423.423 0 0 0-.426.421c0 .922-1.164 1.7-2.547 1.7h-.03c-1.274 0-2.313-.98-2.313-2.188 0-1.207 1.039-2.187 2.312-2.187zm14.527 7.762a4.543 4.543 0 0 1-3.56 1.711h-4.07a4.531 4.531 0 0 1-3.558-1.71c-.598-.75-1.242-1.54-1.984-2.25l-.403-.384c.88-.187 1.617-.632 2.051-1.218.578.785 1.695 1.316 2.973 1.316 1.277 0 2.39-.531 2.972-1.316.579.785 1.696 1.316 2.973 1.316s2.39-.531 2.973-1.316c.43.582 1.156 1.023 2.023 1.215l-.406.386c-.742.711-1.387 1.5-1.985 2.25zm0 0"/>
    <path d="M12.11 11.363c.937 0 1.699-.953 1.699-2.125 0-.648-.465-3.82-1.7-3.82-1.234 0-1.699 3.172-1.699 3.82 0 1.172.762 2.125 1.7 2.125zm0-5.078c.34.27.847 2.012.847 2.953 0 .692-.387 1.274-.848 1.274-.46 0-.847-.582-.847-1.274 0-.941.508-2.683.847-2.953zm0 0M16.781 11.313a1.698 1.698 0 0 0 1.563-2.363c-.239-.563-1.645-2.532-2.727-2.071-1.078.457-.64 2.84-.398 3.398a1.7 1.7 0 0 0 1.562 1.036zm-.836-3.653c.012-.004.024-.004.035-.004.332 0 1.317.996 1.582 1.625A.85.85 0 0 1 16 9.945c-.276-.648-.308-2.12-.054-2.285zm0 0M6.773 11.176A1.7 1.7 0 0 0 9 10.278c.242-.56.68-2.942-.398-3.4-1.082-.46-2.489 1.509-2.727 2.071-.367.86.035 1.86.898 2.227zM6.656 9.28c.266-.629 1.25-1.625 1.582-1.625.008 0 .02 0 .028.004.261.164.23 1.637-.047 2.285a.848.848 0 0 1-1.114.45.85.85 0 0 1-.449-1.114zm0 0M12.953 18.574c-2.863.043-3.234-.101-4.348-.52a.425.425 0 0 0-.3.794c1.133.43 1.648.586 3.797.586.261 0 .55-.004.863-.008a.423.423 0 0 0 .418-.43.424.424 0 0 0-.43-.422zm0 0M7.105 16.336a.426.426 0 0 0-.695.492c.211.297.43.578.656.84a.423.423 0 0 0 .32.145c.102 0 .2-.036.282-.102a.427.427 0 0 0 .039-.602 8.817 8.817 0 0 1-.602-.773zm0 0"/>
</svg>
