<svg xmlns="http://www.w3.org/2000/svg" width="32" height="32" viewBox="0 0 24 24">
    <path d="M18.363 6.11l.485-.118-.207-.449c-.305-.656-1.383-1.8-3.29-1.45-.136.028-.269.067-.402.11.742-1.219 2.301-2.164 3.422-2.453l.77-.2-.61-.503c-.062-.05-1.504-1.234-3.328-1.02-1.484.168-2.601.805-3.34 1.875-.539-.328-1.222-.562-2.082-.656-1.719-.183-3.082.852-3.136.895l-.672.52.824.198c1.238.297 2.933 1.317 3.445 2.567a4.299 4.299 0 0 0-.43-.114c-2.437-.449-2.886 1.04-2.906 1.106l-.113.406.41.098c1.121.27 1.649.71 1.899 1.066-1.618.344-2.715 1.063-3.375 2.192-.868 1.472-.868 3.48-.868 5.605v.086C4.86 20.355 7.95 24 11.746 24h.184c3.797 0 6.886-3.645 6.886-8.129v-.086c0-1.348 0-2.64-.218-3.785l.011-.012-.023-.031c-.125-.648-.324-1.25-.633-1.777-.601-1.024-1.562-1.711-2.945-2.086.59-.653 1.816-1.614 3.355-1.985zM15.297.831c.808-.09 1.547.168 2.047.422-1.45.625-3.176 1.96-3.555 3.656-.008.004-.012.008-.02.016l-.003-.028c-.008-.054-.024-.109-.032-.164L13.7 4.57c-.02-.07-.035-.136-.054-.207l-.036-.125c-.027-.082-.054-.164-.086-.246-.007-.023-.015-.05-.027-.074a3.03 3.03 0 0 0-.121-.29l-.012-.023a3.883 3.883 0 0 0-.855-1.207c.601-.894 1.539-1.421 2.789-1.566zM7.883 2.367c.465-.203 1.105-.387 1.808-.312.922.097 1.598.394 2.094.804.09.075.176.153.254.23.016.02.035.036.05.052.098.109.184.218.266.332.008.015.02.03.028.047a2.996 2.996 0 0 1 .21.359c.134.262.227.535.298.805v.011c.07.266.109.532.132.782.004.02.004.043.008.062l.012.184c-.02.023-.04.043-.055.066a.656.656 0 0 0-.105.149c-.02.027-.04.054-.055.082-.062.085-.117.171-.172.257-.02.032-.039.063-.058.09-.063.106-.121.203-.176.305l-.024.039c-.128.234-.242.453-.328.64a2.812 2.812 0 0 0-.867-1.398c-.133-1.594-1.785-2.945-3.32-3.586zm2.078 5.48c-.234-.495-.77-1.132-1.984-1.546.265-.192.77-.356 1.683-.188a2.13 2.13 0 0 1 1.117.563 2.129 2.129 0 0 1 .219.262c.008.015.02.03.027.046.172.27.254.547.297.766-.015 0-.03.004-.043.004-.468.012-.902.043-1.312.094H9.96zm7.289 2.743l.012.027-1.313 1.313.578.574.868-.871.43.648c.105.59.148 1.235.163 1.926l-.531-.535-1.508 1.508.578.574.93-.93.527.524.02-.02v.543c0 .477-.04.941-.113 1.39l-.512-.257-1.43 1.426.578.574 1.012-1.012.18.09c-.782 2.957-3.078 5.105-5.79 5.105h-.183c-2.684 0-4.96-2.109-5.762-5.019l.094-.094.934.93.574-.574-1.508-1.508-.297.3a8.49 8.49 0 0 1-.11-1.35v-.087-.558l.407-.407.934.934.574-.574-1.508-1.508-.387.387c.032-.88.102-1.688.297-2.395l.09-.094.934.934.574-.574-1.219-1.22c.02-.038.035-.081.059-.12.48-.817 1.261-1.371 2.398-1.695l-1.406 1.41.574.574.93-.934.933.934.575-.574-1.45-1.453c.215-.055.45-.102.692-.141l.086-.016a13.46 13.46 0 0 1 2.012-.136h.16c.09 0 .172.004.258.004h.007c.762.011 1.446.074 2.04.187l.144.031c.07.012.14.028.207.043l-1.48 1.48.574.575.933-.934.93.934.574-.574-1.46-1.461c1.241.308 2.09.886 2.593 1.746zm-4.477-2.82c.047-.102.102-.22.165-.34.007-.012.011-.028.019-.043.023-.047.05-.098.078-.149.031-.054.059-.11.094-.168a8.383 8.383 0 0 1 .215-.367c.004-.004.004-.004.004-.008.066-.101.136-.207.21-.308l.243-.317c.191-.234.398-.449.613-.629l.117-.093v-.004c.293-.223.617-.383.969-.45 1.11-.207 1.77.231 2.11.59-1.672.559-2.977 1.711-3.493 2.418-.414-.066-.863-.109-1.344-.132zm0 0"/>
    <path d="M8.922 18.55l-1.504 1.505.574.574.93-.93.933.93.575-.574zm0 0M10.262 22.086l.574.574.934-.93.93.93.573-.574-1.503-1.504zm0 0M13.105 20.055l.575.574.933-.93.93.93.574-.574-1.504-1.504zm0 0M8.922 16.45l.933.929.575-.574-1.508-1.508-1.504 1.508.574.574zm0 0M10.262 18.43l.574.574.934-.93.93.93.573-.574-1.503-1.508zm0 0M13.105 16.805l.575.574.933-.93.93.93.574-.574-1.504-1.508zm0 0M8.922 13.195l.933.934.575-.574-1.508-1.508-1.504 1.508.574.574zm0 0M11.77 13.672l-1.508 1.508.574.574.934-.934.93.934.573-.574zm0 0M13.105 13.555l.575.574.933-.934.93.934.574-.574-1.504-1.508zm0 0M11.77 11.57l.93.934.573-.574-1.503-1.508-1.508 1.508.574.574zm0 0"/>
</svg>
