<svg xmlns="http://www.w3.org/2000/svg" width="32" height="32" viewBox="0 0 24 24">
    <path d="M23.633 1.3l-.75-.75c-.477-.476-1.309-.476-1.785 0L13.69 7.958l.887.883-2.363 2.363A8.58 8.58 0 0 0 7.52 8.938l-.125.886c1.671.239 3.19 1 4.39 2.2a7.69 7.69 0 0 1 2.195 4.39l.887-.129a8.588 8.588 0 0 0-2.031-4.441l2.375-2.371 1.016 1.015 7.406-7.402a1.268 1.268 0 0 0 0-1.785zM16.98 5.939l1.899.632-.242.242-1.899-.636zm-2.02 2.019l1.071-1.07 1.899.633-1.703 1.703zM23 2.449l-3.414 3.41-1.898-.632 4.042-4.043a.38.38 0 0 1 .52 0l.746.75c.07.066.11.16.11.257 0 .098-.04.192-.106.258zm0 0"/>
    <path d="M6.719 10.371c-1.797 0-3.48.7-4.75 1.969A6.668 6.668 0 0 0 0 17.09c0 1.793.7 3.48 1.969 4.75a6.681 6.681 0 0 0 4.75 1.965c1.793 0 3.48-.7 4.75-1.965a6.688 6.688 0 0 0 1.965-4.75c0-1.797-.7-3.48-1.97-4.75A6.66 6.66 0 0 0 6.72 10.37zm4.113 10.832a5.767 5.767 0 0 1-4.113 1.707 5.776 5.776 0 0 1-4.117-1.707A5.767 5.767 0 0 1 .895 17.09c0-1.555.605-3.02 1.707-4.117a5.776 5.776 0 0 1 4.117-1.707c1.554 0 3.015.605 4.113 1.707a5.776 5.776 0 0 1 1.707 4.117 5.767 5.767 0 0 1-1.707 4.113zm0 0"/>
    <path d="M6.719 14.848c-.602 0-1.16.234-1.586.656a2.234 2.234 0 0 0-.656 1.586c0 .598.234 1.16.656 1.582.422.422.984.656 1.586.656.597 0 1.16-.234 1.582-.656.422-.422.656-.985.656-1.582 0-.602-.234-1.16-.656-1.586a2.225 2.225 0 0 0-1.582-.656zm.949 3.191c-.508.508-1.395.508-1.902 0a1.352 1.352 0 0 1 0-1.898 1.342 1.342 0 0 1 1.902 0c.254.25.394.59.394.949 0 .36-.14.695-.394.95zm0 0"/>
</svg>
