<svg xmlns="http://www.w3.org/2000/svg" width="32" height="32" viewBox="0 0 24 24">
    <path d="M4.539062 10.242188C4.308594 10.121094 4.027344 10.210938 3.910156 10.4375 2.996094 12.179688 2.75 14.117188 3.21875 15.894531 3.277344 16.101562 3.464844 16.242188 3.667969 16.242188 3.707031 16.242188 3.75 16.234375 3.789062 16.226562 4.035156 16.160156 4.183594 15.90625 4.117188 15.65625 3.710938 14.105469 3.925781 12.402344 4.734375 10.867188 4.851562 10.640625 4.765625 10.359375 4.539062 10.242188zM6.871094 7.1875C6.398438 7.5 5.953125 7.855469 5.550781 8.246094 5.367188 8.425781 5.363281 8.71875 5.539062 8.902344 5.632812 8.996094 5.753906 9.042969 5.875 9.042969 5.992188 9.042969 6.109375 9 6.199219 8.914062 6.558594 8.5625 6.957031 8.242188 7.378906 7.964844 7.59375 7.824219 7.652344 7.535156 7.511719 7.320312 7.371094 7.105469 7.082031 7.046875 6.871094 7.1875zM6.871094 7.1875"/>
    <path d="M 13.925781 3.414062 C 14.574219 2.957031 15.464844 2.886719 15.476562 2.886719 C 15.703125 2.871094 15.886719 2.691406 15.90625 2.460938 C 15.925781 2.234375 15.777344 2.023438 15.554688 1.972656 C 14.511719 1.71875 13.613281 1.695312 12.875 1.898438 C 12.625 0.707031 12.300781 0.234375 12.257812 0.179688 C 12.082031 -0.0585938 11.683594 -0.0585938 11.507812 0.179688 C 11.46875 0.234375 11.144531 0.707031 10.894531 1.898438 C 10.152344 1.695312 9.257812 1.71875 8.214844 1.972656 C 7.992188 2.023438 7.84375 2.234375 7.859375 2.460938 C 7.878906 2.691406 8.0625 2.871094 8.292969 2.886719 C 8.304688 2.886719 9.234375 2.964844 9.882812 3.445312 C 4.546875 4.355469 0.625 8.609375 0.625 13.644531 C 0.625 18.96875 4.996094 23.40625 10.832031 23.964844 L 12.722656 24 C 18.695312 23.65625 23.375 19.109375 23.375 13.644531 C 23.375 8.511719 19.375 4.25 13.925781 3.414062 Z M 12.707031 23.070312 L 10.882812 23.039062 C 5.5625 22.527344 1.550781 18.488281 1.550781 13.644531 C 1.550781 8.824219 5.539062 4.789062 10.824219 4.253906 C 10.976562 4.238281 11.113281 4.148438 11.1875 4.015625 C 11.257812 3.882812 11.261719 3.71875 11.195312 3.582031 C 11.027344 3.246094 10.789062 2.976562 10.523438 2.761719 C 10.710938 2.804688 10.886719 2.867188 11.042969 2.945312 C 11.175781 3.011719 11.332031 3.007812 11.464844 2.941406 C 11.59375 2.875 11.6875 2.746094 11.710938 2.601562 C 11.761719 2.261719 11.824219 1.976562 11.882812 1.738281 C 11.945312 1.976562 12.003906 2.261719 12.058594 2.601562 C 12.082031 2.746094 12.171875 2.875 12.304688 2.941406 C 12.433594 3.011719 12.589844 3.011719 12.722656 2.945312 C 12.882812 2.867188 13.058594 2.804688 13.25 2.761719 C 12.988281 2.96875 12.753906 3.230469 12.585938 3.558594 C 12.515625 3.695312 12.519531 3.859375 12.59375 3.996094 C 12.667969 4.132812 12.808594 4.21875 12.960938 4.234375 C 18.371094 4.679688 22.449219 8.726562 22.449219 13.644531 C 22.449219 18.617188 18.152344 22.757812 12.707031 23.070312 Z M 12.707031 23.070312"/>
</svg>
