<svg xmlns="http://www.w3.org/2000/svg" width="32" height="32" viewBox="0 0 24 24">
    <path d="M22.738 9.223h-1.254c.02-.246.094-.48.22-.692l.687-1.148a.743.743 0 0 0 .007-.738.717.717 0 0 0-.382-.32.696.696 0 0 0-.098-.325l-.055-.074c-.492-.528-1.726-1.758-2.496-1.758h-2.945v-.422a2.531 2.531 0 0 0-2.527-2.527H9.684a2.534 2.534 0 0 0-2.528 2.527v.422H4.633c-.77 0-2.004 1.23-2.496 1.758L2.082 6a.745.745 0 0 0-.098.324.732.732 0 0 0-.382.32.734.734 0 0 0 .011.739l.684 1.148c.125.211.2.446.219.692H1.262C.566 9.223 0 9.789 0 10.484c0 .696.566 1.262 1.262 1.262h1.265v8.422c0 .11.008.215.02.316-.008.036-.02.07-.02.106 0 .094.035.176.09.246a2.6 2.6 0 0 0 2.508 1.945h13.75a2.607 2.607 0 0 0 2.598-2.613v-8.422h1.265c.696 0 1.262-.566 1.262-1.262 0-.695-.566-1.261-1.262-1.261zm-3.37-4.211c.237 0 .976.57 1.66 1.261h-6.325c.02-.136.035-.277.035-.421a2.97 2.97 0 0 0-.125-.84zM13.68 6.766a3.947 3.947 0 0 1-.098.175 1.648 1.648 0 0 1-.238.316.698.698 0 0 1-.086.098 1.856 1.856 0 0 1-.27.223c-.035.024-.074.043-.11.067-.07.043-.14.082-.214.117-.043.02-.086.035-.133.054-.074.028-.152.051-.234.07-.043.012-.082.024-.125.032-.125.023-.25.039-.383.039a2.01 2.01 0 0 1-.379-.039c-.043-.008-.086-.02-.129-.027a5.41 5.41 0 0 1-.234-.075 1.905 1.905 0 0 1-.348-.171c-.035-.02-.074-.04-.105-.063a2.553 2.553 0 0 1-.27-.223c-.031-.03-.058-.066-.09-.097-.05-.059-.101-.117-.148-.18a2.717 2.717 0 0 1-.086-.14 2.93 2.93 0 0 1-.172-.336 2.12 2.12 0 0 1-.144-.754c0-.41.125-.793.332-1.122.02-.035.043-.066.066-.101a3.39 3.39 0 0 1 .188-.227c.02-.02.039-.043.062-.062.074-.07.152-.137.234-.195l.106-.07c.078-.048.16-.095.242-.134l.082-.035a2.184 2.184 0 0 1 .793-.16c.129 0 .25.016.371.04.035.003.07.01.106.019a2.184 2.184 0 0 1 .402.136 2.336 2.336 0 0 1 .582.399l.063.062c.066.07.128.149.183.227.027.035.047.066.07.101.204.329.329.711.329 1.122 0 .265-.055.515-.145.75-.02.058-.047.109-.07.164zM8 3.746c0-.93.754-1.683 1.684-1.683h4.21c.93 0 1.684.753 1.684 1.683v.422h-1.371a2.737 2.737 0 0 0-.203-.254l-.047-.055c-.066-.066-.129-.132-.2-.195l-.042-.035a2.903 2.903 0 0 0-.863-.524c-.016-.003-.036-.011-.051-.015a2.106 2.106 0 0 0-.266-.086c-.023-.004-.047-.012-.07-.016a1.937 1.937 0 0 0-.262-.05l-.078-.012a3.167 3.167 0 0 0-.336-.02c-.113 0-.226.008-.336.02l-.078.011c-.09.012-.176.028-.262.051-.023.004-.047.012-.07.016-.094.023-.18.05-.27.086-.015.004-.03.012-.046.015-.32.125-.61.301-.868.524-.011.012-.027.023-.039.035-.07.063-.136.129-.199.195l-.047.055a2.736 2.736 0 0 0-.187.234c-.004.008-.008.012-.016.02H8zM4.633 5.012h4.332a2.97 2.97 0 0 0-.09 1.261H2.973c.68-.683 1.43-1.261 1.66-1.261zm-3.371 5.894a.422.422 0 0 1 0-.844h1.265v.844zm19.37 9.262c0 .977-.788 1.77-1.757 1.77H5.125a1.751 1.751 0 0 1-1.535-.926h3.566a.423.423 0 0 0 0-.844H3.367v-.84h2.528a.423.423 0 0 0 0-.844H3.367v-.843h1.684a.42.42 0 1 0 0-.84H3.367V9.223H3.36a2.47 2.47 0 0 0-.34-1.121l-.585-.985h6.695a3.009 3.009 0 0 0 .445.672c.012.016.028.027.04.043.081.09.163.172.257.25.004.008.012.012.016.016.097.086.203.16.312.23l.04.024c.097.062.202.12.308.168.015.007.027.015.043.02.117.054.238.097.363.136.012.004.024.004.031.008.11.03.22.054.332.074l.09.012a2.49 2.49 0 0 0 .766 0l.09-.012c.113-.02.222-.043.332-.074.011-.004.023-.004.035-.008a2.893 2.893 0 0 0 .71-.324l.04-.024c.11-.07.215-.144.312-.23a2.557 2.557 0 0 0 .273-.266l.044-.043a2.992 2.992 0 0 0 .441-.672h7.117l-.586.985a2.47 2.47 0 0 0-.34 1.12h-.007zm2.106-9.262h-1.265v-.844h1.265a.423.423 0 0 1 0 .844zm0 0"/>
    <path d="M11.492 5.555l1.262-1.262.598.594-1.266 1.265zm0 0"/>
</svg>
