<svg xmlns="http://www.w3.org/2000/svg" width="32" height="32" viewBox="0 0 24 24">
    <path d="M24 5.387H0v.98h2.45v13.805A3.832 3.832 0 0 0 6.276 24h11.446a3.832 3.832 0 0 0 3.828-3.828V6.367H24zM6.277 23.02a2.92 2.92 0 0 1-.543-.051 3.302 3.302 0 0 1-.437-.125l-.067-.024a2.804 2.804 0 0 1-.457-.234 2.514 2.514 0 0 1-.351-.254c-.016-.016-.031-.031-.05-.047a3.362 3.362 0 0 1-.306-.32 3.096 3.096 0 0 1-.29-.43 2.938 2.938 0 0 1-.186-.426l-.02-.054a3.165 3.165 0 0 1-.105-.442c0-.011-.004-.027-.004-.043h17.078c0 .016-.004.032-.004.043-.023.153-.058.301-.105.442-.004.02-.012.035-.02.054a2.938 2.938 0 0 1-.195.438c-.074.133-.16.262-.254.383-.008.011-.016.023-.027.035a3.362 3.362 0 0 1-.305.32c-.02.016-.035.031-.05.047-.11.094-.227.18-.352.254-.02.016-.043.027-.063.039-.129.074-.258.14-.394.195l-.067.024a3.14 3.14 0 0 1-.437.125 2.92 2.92 0 0 1-.543.05zm14.293-3.426H3.43v-.98h4.406a.492.492 0 0 0 0-.98l-4.406-.001v-.98h2.937c.27 0 .488-.22.488-.489a.49.49 0 0 0-.488-.492H3.43v-.977h1.957c.27 0 .492-.218.492-.492a.492.492 0 0 0-.492-.488H3.43V6.367h17.14zm0 0M21.55 4.406a2.45 2.45 0 0 0-2.448-2.445h-4.457A2.454 2.454 0 0 0 12.246 0h-.492c-1.18 0-2.172.844-2.399 1.96H4.898A2.45 2.45 0 0 0 2.45 4.407v.492h19.102zM11.755.98h.492c.637 0 1.184.41 1.383.98H10.37c.2-.57.746-.98 1.383-.98zM3.512 3.918c.203-.57.746-.98 1.386-.98h14.204c.64 0 1.183.41 1.386.98zm0 0"/>
</svg>
