<svg xmlns="http://www.w3.org/2000/svg" width="32" height="32" viewBox="0 0 24 24">
    <path d="M13.762 8.2a.41.41 0 0 0-.051-.278c-.602-.969-.754-3.047-.754-3.07a.407.407 0 1 0-.813.059c.008.085.149 2.046.754 3.226h-.02c-.827.031-6.116.406-6.429 4.836-.172 2.464.383 3.718 2.38 5.359 2.429 2.004 3.51 2.984 3.75 5.305a.407.407 0 0 0 .405.363.41.41 0 0 0 .407-.367c.226-2.238 1.257-3.278 3.351-5.016h.004l.082-.07.262-.215c1.992-1.64 2.547-2.895 2.375-5.36-.262-3.702-4-4.57-5.703-4.773zm-.782 13.59c-.539-1.364-1.554-2.345-3.082-3.622.903-1.219 1.977-1.89 3.059-1.89s2.156.667 3.059 1.886c-1.508 1.266-2.508 2.238-3.036 3.625zm3.66-4.145c-1.054-1.407-2.347-2.184-3.683-2.184-1.332 0-2.625.777-3.684 2.187-1.726-1.441-2.164-2.449-2.011-4.617.117-1.672 1.093-2.863 2.902-3.543a9.107 9.107 0 0 1 2.793-.539c.215.004 1.5.051 2.797.54 1.805.679 2.781 1.87 2.898 3.542.153 2.164-.28 3.172-2.011 4.614zm0 0"/>
    <path d="M9.79 7.422l2.03-.426a.409.409 0 0 0 .274-.594l-1-1.82a5.361 5.361 0 0 0-5.828-2.684l-2.036.426a.4.4 0 0 0-.285.227.406.406 0 0 0 .012.367l1 1.82a5.356 5.356 0 0 0 5.832 2.684zM4.667 4.348l-.734-1.34 1.496-.313a4.552 4.552 0 0 1 4.953 2.278l.734 1.34-1.496.312a4.554 4.554 0 0 1-4.953-2.277zm0 0M20.973.121a.397.397 0 0 0-.348-.117L18.57.309a5.37 5.37 0 0 0-4.539 4.539l-.304 2.054a.397.397 0 0 0 .117.348c.074.078.18.121.285.121.02 0 .039-.004.059-.004l2.054-.308a5.361 5.361 0 0 0 4.54-4.54L21.09.466a.404.404 0 0 0-.117-.344zm-.996 2.281a4.55 4.55 0 0 1-3.852 3.852l-1.512.226.227-1.511a4.55 4.55 0 0 1 3.851-3.852l1.512-.226zm0 0"/>
</svg>
