<svg xmlns="http://www.w3.org/2000/svg" width="32" height="32" viewBox="0 0 24 24">
    <path d="M23.457.543A1.843 1.843 0 0 0 22.141 0a1.85 1.85 0 0 0-1.317.543l-2.246 3.355-.918-.945c-.46-.46-1.27-.457-1.726 0L2.879 15.836a1.232 1.232 0 0 0 .012 1.738l1.046.98-3.332 2.223-.062.051A1.834 1.834 0 0 0 0 22.141c0 .5.191.964.543 1.316.352.352.816.543 1.316.543a1.85 1.85 0 0 0 1.317-.543l2.351-3.418L6.551 21c.23.23.539.355.867.355.328 0 .633-.125.867-.359L20.996 8.117c.473-.48.473-1.254.004-1.726l-.887-.914 3.285-2.254.059-.051c.352-.348.543-.817.543-1.313 0-.5-.191-.964-.543-1.316zM2.57 22.903c-.394.37-1.066.363-1.449-.024a1.02 1.02 0 0 1-.305-.738c0-.266.098-.52.278-.711l3.383-2.254.39.387zM20.418 7.538L7.703 20.422a.414.414 0 0 1-.586-.012l-3.66-3.422a.403.403 0 0 1 0-.574l13.05-12.883a.405.405 0 0 1 .29-.12c.11 0 .21.042.281.116l3.34 3.434a.415.415 0 0 1 0 .578zm2.484-4.969l-3.34 2.297-.386-.39 2.254-3.383c.394-.367 1.066-.36 1.449.027.2.195.305.457.305.738 0 .27-.098.52-.282.711zm0 0"/>
    <path d="M7.535 14.133a.41.41 0 0 0-.574 0l-2.04 2.039a.41.41 0 1 0 .285.7c.106 0 .212-.044.29-.122l2.04-2.04a.408.408 0 0 0 0-.577zm0 0M9.984 14.133a.415.415 0 0 0-.578 0l-3.261 3.265a.403.403 0 0 0 0 .575.396.396 0 0 0 .289.12c.101 0 .207-.038.285-.12l3.265-3.262a.415.415 0 0 0 0-.578zm0 0M11.852 14.133L7.367 18.62a.403.403 0 0 0 0 .574.409.409 0 0 0 .578 0l4.485-4.484a.408.408 0 1 0-.578-.578zm0 0"/>
</svg>
