<svg xmlns="http://www.w3.org/2000/svg" width="32" height="32" viewBox="0 0 24 24">
    <path d="M23.058594 16.179688C22.800781 16.179688 22.589844 16.390625 22.589844 16.648438 22.589844 17.167969 22.167969 17.589844 21.648438 17.589844 21.128906 17.589844 20.707031 17.167969 20.707031 16.648438L19.765625 16.648438C19.765625 17.167969 19.34375 17.589844 18.824219 17.589844 18.304688 17.589844 17.882812 17.167969 17.882812 16.648438L16.941406 16.648438C16.941406 17.167969 16.519531 17.589844 16 17.589844 15.480469 17.589844 15.058594 17.167969 15.058594 16.648438L14.117188 16.648438C14.117188 17.167969 13.695312 17.589844 13.175781 17.589844 12.65625 17.589844 12.234375 17.167969 12.234375 16.648438L11.292969 16.648438C11.292969 17.167969 10.871094 17.589844 10.351562 17.589844 9.832031 17.589844 9.410156 17.167969 9.410156 16.648438L8.46875 16.648438C8.46875 17.167969 8.046875 17.589844 7.53125 17.589844 7.011719 17.589844 6.589844 17.167969 6.589844 16.648438L5.648438 16.648438C5.648438 17.167969 5.226562 17.589844 4.707031 17.589844 4.1875 17.589844 3.765625 17.167969 3.765625 16.648438L2.824219 16.648438C2.824219 17.167969 2.402344 17.589844 1.882812 17.589844 1.363281 17.589844.941406 17.167969.941406 16.648438.941406 16.390625.730469 16.179688.46875 16.179688.210938 16.179688 0 16.390625 0 16.648438 0 17.6875.84375 18.53125 1.882812 18.53125 2.445312 18.53125 2.949219 18.285156 3.292969 17.894531 3.640625 18.285156 4.144531 18.53125 4.707031 18.53125 5.265625 18.53125 5.773438 18.285156 6.117188 17.894531 6.460938 18.285156 6.96875 18.53125 7.53125 18.53125 8.089844 18.53125 8.597656 18.285156 8.941406 17.894531 9.285156 18.285156 9.792969 18.53125 10.351562 18.53125 10.914062 18.53125 11.417969 18.285156 11.765625 17.894531 12.109375 18.285156 12.613281 18.53125 13.175781 18.53125 13.738281 18.53125 14.242188 18.285156 14.589844 17.894531 14.933594 18.285156 15.4375 18.53125 16 18.53125 16.5625 18.53125 17.066406 18.285156 17.410156 17.894531 17.757812 18.285156 18.261719 18.53125 18.824219 18.53125 19.386719 18.53125 19.890625 18.285156 20.234375 17.894531 20.582031 18.285156 21.085938 18.53125 21.648438 18.53125 22.683594 18.53125 23.53125 17.6875 23.53125 16.648438 23.53125 16.390625 23.320312 16.179688 23.058594 16.179688zM22.117188 19.292969L2.351562 19.292969C2.09375 19.292969 1.882812 19.503906 1.882812 19.765625L1.882812 23.53125C1.882812 23.789062 2.09375 24 2.351562 24L22.117188 24C22.378906 24 22.589844 23.789062 22.589844 23.53125L22.589844 19.765625C22.589844 19.503906 22.378906 19.292969 22.117188 19.292969zM21.648438 23.058594L2.824219 23.058594 2.824219 20.234375 21.648438 20.234375zM22.589844 12.625L22.589844 10.351562C22.589844 10.34375 22.582031 10.335938 22.582031 10.324219 22.578125 10.28125 22.570312 10.238281 22.558594 10.199219 22.550781 10.183594 22.546875 10.167969 22.542969 10.15625 22.519531 10.105469 22.492188 10.0625 22.453125 10.023438 22.453125 10.019531 22.449219 10.019531 22.449219 10.019531L12.566406.136719C12.382812-.046875 12.085938-.046875 11.902344.136719L2.019531 10.019531C2.019531 10.019531 2.019531 10.019531 2.019531 10.023438 1.980469 10.0625 1.953125 10.105469 1.929688 10.15625 1.921875 10.167969 1.917969 10.183594 1.914062 10.199219 1.898438 10.238281 1.890625 10.28125 1.886719 10.324219 1.886719 10.335938 1.882812 10.34375 1.882812 10.351562L1.882812 11.871094C.730469 12.203125 0 12.960938 0 13.882812 0 15.089844 1.617188 16 3.765625 16 4.789062 16 5.691406 15.789062 6.355469 15.441406 7.042969 15.796875 7.964844 16 8.941406 16 10.09375 16 11.089844 15.734375 11.769531 15.308594 12.46875 15.746094 13.488281 16 14.589844 16 15.695312 16 16.660156 15.757812 17.335938 15.355469 18.03125 15.761719 19.078125 16 20.234375 16 22.105469 16 24 15.351562 24 14.117188 24 13.5 23.488281 12.96875 22.589844 12.625zM17.761719 12.707031L3.53125 12.707031C2.980469 12.707031 2.863281 12.609375 2.863281 12.609375 2.847656 12.582031 2.839844 12.46875 2.835938 12.394531 2.832031 12.335938 2.828125 12.28125 2.824219 12.222656L2.824219 10.824219 21.648438 10.824219 21.648438 12.707031zM12.234375 1.136719L20.980469 9.882812 3.488281 9.882812zM.941406 13.882812C.941406 13.527344 1.238281 13.113281 1.882812 12.859375L1.882812 13.175781C1.882812 13.4375 2.09375 13.648438 2.351562 13.648438L6.496094 13.648438C6.507812 13.664062 6.527344 13.683594 6.539062 13.699219 6.539062 13.703125 6.539062 13.703125 6.539062 13.703125 6.570312 13.765625 6.589844 13.824219 6.589844 13.882812 6.589844 13.9375 6.570312 13.996094 6.542969 14.054688 6.53125 14.078125 6.515625 14.105469 6.5 14.128906 6.480469 14.160156 6.457031 14.191406 6.429688 14.226562 6.398438 14.257812 6.367188 14.289062 6.332031 14.324219 6.308594 14.34375 6.28125 14.367188 6.253906 14.386719 6.207031 14.425781 6.160156 14.464844 6.101562 14.5L6.097656 14.503906C5.621094 14.808594 4.816406 15.058594 3.765625 15.058594 2.015625 15.058594.941406 14.375.941406 13.882812zM7.195312 14.78125C7.300781 14.644531 7.386719 14.503906 7.441406 14.351562 7.441406 14.351562 7.445312 14.347656 7.445312 14.347656 7.46875 14.277344 7.488281 14.207031 7.503906 14.136719 7.503906 14.128906 7.507812 14.121094 7.507812 14.117188 7.519531 14.039062 7.53125 13.960938 7.53125 13.882812 7.53125 13.804688 7.523438 13.726562 7.507812 13.648438L11.675781 13.648438C11.6875 13.660156 11.703125 13.675781 11.710938 13.691406 11.714844 13.699219 11.714844 13.703125 11.71875 13.710938 11.746094 13.769531 11.765625 13.828125 11.765625 13.882812 11.765625 13.9375 11.746094 13.996094 11.71875 14.054688 11.710938 14.070312 11.703125 14.089844 11.691406 14.105469 11.667969 14.148438 11.636719 14.191406 11.601562 14.230469 11.570312 14.265625 11.542969 14.292969 11.511719 14.324219 11.097656 14.703125 10.199219 15.058594 8.941406 15.058594 8.308594 15.058594 7.695312 14.957031 7.195312 14.78125zM12.480469 14.628906C12.484375 14.625 12.484375 14.617188 12.488281 14.609375 12.519531 14.5625 12.542969 14.519531 12.566406 14.472656 12.578125 14.449219 12.585938 14.425781 12.59375 14.40625 12.613281 14.367188 12.628906 14.324219 12.640625 14.285156 12.652344 14.25 12.660156 14.214844 12.667969 14.179688 12.675781 14.152344 12.683594 14.121094 12.6875 14.089844 12.699219 14.019531 12.707031 13.953125 12.707031 13.882812 12.707031 13.804688 12.699219 13.726562 12.683594 13.648438L17.324219 13.648438C17.339844 13.671875 17.359375 13.695312 17.371094 13.71875 17.371094 13.722656 17.375 13.726562 17.375 13.734375 17.398438 13.785156 17.410156 13.835938 17.410156 13.882812 17.410156 13.941406 17.394531 14 17.367188 14.0625 17.355469 14.082031 17.34375 14.097656 17.332031 14.117188 17.308594 14.15625 17.277344 14.195312 17.242188 14.238281 17.222656 14.257812 17.203125 14.28125 17.183594 14.300781 17.128906 14.355469 17.066406 14.40625 16.996094 14.457031L16.972656 14.472656C16.503906 14.792969 15.675781 15.058594 14.589844 15.058594 13.78125 15.058594 13.019531 14.898438 12.480469 14.628906zM20.234375 15.058594C19.417969 15.058594 18.636719 14.917969 18.09375 14.683594 18.101562 14.671875 18.105469 14.65625 18.117188 14.644531 18.148438 14.59375 18.179688 14.539062 18.207031 14.488281 18.222656 14.457031 18.230469 14.429688 18.242188 14.402344 18.257812 14.363281 18.277344 14.324219 18.289062 14.28125 18.300781 14.246094 18.308594 14.210938 18.316406 14.171875 18.324219 14.144531 18.332031 14.113281 18.335938 14.082031 18.347656 14.011719 18.351562 13.941406 18.351562 13.882812 18.351562 13.804688 18.34375 13.726562 18.332031 13.648438L22.578125 13.648438C22.921875 13.828125 23.058594 14.015625 23.058594 14.117188 23.058594 14.449219 21.988281 15.058594 20.234375 15.058594zM20.234375 15.058594"/>
    <path d="M17.410156 8.46875C17.410156 8.730469 17.199219 8.941406 16.941406 8.941406 16.679688 8.941406 16.46875 8.730469 16.46875 8.46875 16.46875 8.210938 16.679688 8 16.941406 8 17.199219 8 17.410156 8.210938 17.410156 8.46875zM12.234375 4.234375C12.234375 4.496094 12.023438 4.707031 11.765625 4.707031 11.503906 4.707031 11.292969 4.496094 11.292969 4.234375 11.292969 3.976562 11.503906 3.765625 11.765625 3.765625 12.023438 3.765625 12.234375 3.976562 12.234375 4.234375zM8 8.46875C8 8.730469 7.789062 8.941406 7.53125 8.941406 7.269531 8.941406 7.058594 8.730469 7.058594 8.46875 7.058594 8.210938 7.269531 8 7.53125 8 7.789062 8 8 8.210938 8 8.46875zM14.117188 7.058594C14.117188 7.320312 13.90625 7.53125 13.648438 7.53125 13.386719 7.53125 13.175781 7.320312 13.175781 7.058594 13.175781 6.800781 13.386719 6.589844 13.648438 6.589844 13.90625 6.589844 14.117188 6.800781 14.117188 7.058594zM11.292969 7.53125C11.292969 7.789062 11.082031 8 10.824219 8 10.5625 8 10.351562 7.789062 10.351562 7.53125 10.351562 7.269531 10.5625 7.058594 10.824219 7.058594 11.082031 7.058594 11.292969 7.269531 11.292969 7.53125zM16 21.175781C16 21.4375 15.789062 21.648438 15.53125 21.648438 15.269531 21.648438 15.058594 21.4375 15.058594 21.175781 15.058594 20.917969 15.269531 20.707031 15.53125 20.707031 15.789062 20.707031 16 20.917969 16 21.175781zM19.765625 22.117188C19.765625 22.378906 19.554688 22.589844 19.292969 22.589844 19.035156 22.589844 18.824219 22.378906 18.824219 22.117188 18.824219 21.859375 19.035156 21.648438 19.292969 21.648438 19.554688 21.648438 19.765625 21.859375 19.765625 22.117188zM4.707031 22.117188C4.707031 22.378906 4.496094 22.589844 4.234375 22.589844 3.976562 22.589844 3.765625 22.378906 3.765625 22.117188 3.765625 21.859375 3.976562 21.648438 4.234375 21.648438 4.496094 21.648438 4.707031 21.859375 4.707031 22.117188zM12.707031 22.117188C12.707031 22.378906 12.496094 22.589844 12.234375 22.589844 11.976562 22.589844 11.765625 22.378906 11.765625 22.117188 11.765625 21.859375 11.976562 21.648438 12.234375 21.648438 12.496094 21.648438 12.707031 21.859375 12.707031 22.117188zM8.46875 21.175781C8.46875 21.4375 8.261719 21.648438 8 21.648438 7.738281 21.648438 7.53125 21.4375 7.53125 21.175781 7.53125 20.917969 7.738281 20.707031 8 20.707031 8.261719 20.707031 8.46875 20.917969 8.46875 21.175781zM8.46875 21.175781"/>
</svg>
