<svg xmlns="http://www.w3.org/2000/svg" width="32" height="32" viewBox="0 0 24 24">
    <path d="M 22.078125 10.144531 L 21.902344 9.4375 L 21.242188 9.96875 C 21.003906 9.3125 20.757812 8.914062 20.644531 8.753906 L 20.515625 8.574219 L 20.300781 8.558594 C 20.152344 8.546875 19.832031 8.539062 19.371094 8.59375 L 19.664062 7.707031 L 18.847656 7.902344 C 18.625 7.960938 18.375 8.03125 18.105469 8.117188 C 18.105469 8.117188 18.105469 8.117188 18.105469 8.113281 C 18.210938 2.761719 15.957031 0.386719 15.699219 0.132812 C 15.695312 0.128906 15.6875 0.128906 15.683594 0.125 C 15.675781 0.117188 15.675781 0.113281 15.667969 0.105469 C 15.636719 0.0820312 15.601562 0.0703125 15.566406 0.0507812 C 15.550781 0.0429688 15.535156 0.03125 15.519531 0.0273438 C 15.457031 0.00390625 15.390625 -0.00390625 15.328125 0.00390625 C 15.324219 0.00390625 15.324219 0 15.324219 0 C 14.964844 0.0390625 11.71875 0.484375 8.433594 4.753906 C 8.246094 5.042969 8.074219 5.339844 7.90625 5.644531 C 6.414062 4.574219 5.269531 4.300781 4.933594 4.242188 C 4.796875 4.21875 4.65625 4.253906 4.550781 4.347656 C 4.382812 4.492188 3.378906 5.40625 2.585938 7.375 C 2.574219 7.398438 2.566406 7.417969 2.558594 7.441406 C 2.085938 8.628906 1.691406 10.183594 1.59375 12.179688 C 1.628906 13.335938 1.808594 14.511719 2.128906 15.675781 C 2.449219 16.839844 2.894531 17.945312 3.472656 18.992188 C 4.816406 21.011719 6.039062 21.515625 7.035156 21.515625 C 7.628906 21.515625 8.140625 21.335938 8.554688 21.195312 C 8.769531 21.121094 9.707031 20.855469 9.855469 20.820312 C 10.320312 21.765625 11.121094 22.15625 11.707031 22.4375 C 11.910156 22.539062 12.90625 23.101562 13.097656 23.230469 C 13.59375 23.558594 14.261719 24 15.1875 24 C 16.066406 24 17.175781 23.601562 18.589844 22.324219 C 19.382812 21.480469 20.085938 20.519531 20.683594 19.46875 C 21.28125 18.421875 21.746094 17.324219 22.078125 16.171875 C 22.632812 13.417969 22.382812 11.375 22.078125 10.144531 Z M 19.046875 9.59375 C 19.46875 9.503906 19.792969 9.484375 20 9.480469 C 20.125 9.691406 20.304688 10.058594 20.46875 10.59375 L 18.085938 12.523438 Z M 14.214844 1.246094 C 13.84375 1.800781 13.472656 2.429688 13.078125 3.1875 C 12.957031 3.414062 13.042969 3.695312 13.269531 3.816406 C 13.339844 3.851562 13.414062 3.867188 13.488281 3.867188 C 13.65625 3.867188 13.816406 3.777344 13.902344 3.621094 C 14.425781 2.621094 14.898438 1.855469 15.386719 1.199219 C 16.019531 2.035156 17.25 4.167969 17.175781 8.058594 C 17.160156 8.203125 17.144531 8.351562 17.121094 8.496094 C 17.109375 8.5 17.097656 8.507812 17.085938 8.511719 C 16.960938 8.566406 16.835938 8.628906 16.707031 8.691406 C 16.621094 8.730469 16.539062 8.773438 16.457031 8.816406 C 16.40625 8.84375 16.355469 8.867188 16.308594 8.894531 C 15.832031 9.144531 15.363281 9.433594 14.894531 9.757812 C 14.863281 9.78125 14.832031 9.800781 14.800781 9.824219 C 14.695312 9.898438 14.585938 9.976562 14.480469 10.054688 C 14.433594 10.089844 14.390625 10.121094 14.34375 10.15625 C 14.246094 10.230469 14.148438 10.308594 14.050781 10.386719 C 13.984375 10.4375 13.921875 10.488281 13.859375 10.542969 C 13.773438 10.609375 13.691406 10.675781 13.609375 10.746094 C 13.460938 10.871094 13.308594 11.003906 13.160156 11.140625 C 12.960938 11.351562 12.769531 11.570312 12.582031 11.792969 C 12.195312 12.257812 11.835938 12.753906 11.503906 13.273438 C 11.5 13.273438 11.5 13.273438 11.5 13.273438 C 11.347656 13.511719 11.203125 13.75 11.066406 13.992188 C 11.046875 14.027344 11.03125 14.0625 11.011719 14.09375 C 10.851562 14.378906 10.703125 14.664062 10.566406 14.957031 C 10.5625 14.960938 10.558594 14.96875 10.554688 14.980469 L 10.542969 15.003906 C 10.539062 15.011719 10.535156 15.023438 10.53125 15.03125 L 10.527344 15.03125 C 10.527344 15.03125 10.527344 15.035156 10.527344 15.035156 C 10.511719 15.066406 10.496094 15.101562 10.480469 15.136719 C 10.847656 12.140625 11.519531 9.328125 12.492188 6.769531 C 12.582031 6.527344 12.460938 6.257812 12.21875 6.167969 C 11.980469 6.078125 11.710938 6.199219 11.621094 6.4375 C 10.59375 9.148438 9.890625 12.132812 9.523438 15.308594 C 9.441406 15.285156 9.359375 15.257812 9.269531 15.230469 C 8.246094 14.949219 6.96875 14.59375 7.027344 11.484375 C 7.136719 10.40625 7.382812 9.316406 7.761719 8.246094 C 7.957031 7.683594 8.199219 7.113281 8.480469 6.550781 C 8.484375 6.550781 8.484375 6.546875 8.484375 6.542969 C 8.703125 6.105469 8.9375 5.6875 9.191406 5.292969 C 11.144531 2.757812 13.03125 1.695312 14.214844 1.246094 Z M 9.570312 19.929688 C 9.390625 19.976562 8.550781 20.207031 8.246094 20.3125 C 7.242188 20.664062 5.992188 21.097656 4.269531 18.511719 C 3.746094 17.558594 3.328125 16.523438 3.027344 15.429688 C 2.726562 14.335938 2.558594 13.234375 2.523438 12.1875 C 2.613281 10.453125 2.933594 9.085938 3.320312 8.03125 C 4.023438 8 4.71875 7.902344 5.398438 7.734375 C 5.648438 7.671875 5.800781 7.421875 5.738281 7.171875 C 5.679688 6.921875 5.425781 6.769531 5.175781 6.832031 C 4.703125 6.949219 4.21875 7.027344 3.730469 7.070312 C 4.21875 6.070312 4.730469 5.476562 4.996094 5.207031 C 5.417969 5.316406 6.332031 5.632812 7.480469 6.480469 C 7.464844 6.511719 7.453125 6.539062 7.441406 6.570312 C 7.347656 6.773438 7.253906 6.976562 7.167969 7.1875 C 7.066406 7.4375 6.96875 7.6875 6.882812 7.9375 C 6.480469 9.078125 6.21875 10.238281 6.097656 11.429688 C 6.023438 15.296875 7.898438 15.820312 9.019531 16.128906 C 9.242188 16.191406 9.898438 16.472656 9.914062 16.472656 C 9.917969 16.472656 9.929688 16.46875 9.933594 16.46875 C 9.925781 16.496094 9.917969 16.523438 9.90625 16.546875 C 9.820312 16.792969 9.746094 17.027344 9.679688 17.253906 C 9.675781 17.265625 9.671875 17.277344 9.671875 17.289062 C 9.621094 17.539062 9.582031 17.773438 9.550781 18 C 9.542969 18.078125 9.539062 18.148438 9.53125 18.222656 C 9.515625 18.371094 9.5 18.519531 9.496094 18.65625 C 9.492188 18.730469 9.492188 18.796875 9.492188 18.871094 C 9.488281 19.011719 9.488281 19.148438 9.496094 19.277344 C 9.5 19.328125 9.5 19.378906 9.503906 19.429688 C 9.519531 19.601562 9.539062 19.765625 9.570312 19.914062 C 9.570312 19.921875 9.570312 19.925781 9.570312 19.929688 Z M 21.171875 15.953125 C 20.871094 16.996094 20.433594 18.023438 19.875 19.007812 C 19.3125 19.996094 18.652344 20.894531 17.9375 21.660156 C 15.601562 23.769531 14.5 23.039062 13.609375 22.453125 C 13.34375 22.273438 12.398438 21.738281 12.113281 21.597656 C 11.542969 21.324219 10.894531 21.003906 10.589844 20.15625 C 10.585938 20.148438 10.589844 20.140625 10.585938 20.132812 C 10.363281 19.484375 10.359375 18.59375 10.578125 17.496094 C 10.636719 17.296875 10.703125 17.097656 10.769531 16.902344 C 10.832031 16.722656 10.902344 16.535156 10.980469 16.332031 C 11.105469 16.015625 11.242188 15.707031 11.382812 15.40625 C 11.390625 15.382812 11.40625 15.355469 11.40625 15.355469 C 11.40625 15.351562 11.40625 15.351562 11.40625 15.351562 C 11.554688 15.042969 11.710938 14.742188 11.875 14.457031 C 12.003906 14.226562 12.140625 14 12.285156 13.78125 C 12.429688 13.554688 12.578125 13.335938 12.734375 13.121094 C 12.734375 13.117188 12.738281 13.117188 12.738281 13.117188 C 12.738281 13.113281 12.738281 13.113281 12.738281 13.113281 C 13.078125 12.644531 13.4375 12.207031 13.8125 11.804688 C 14.003906 11.628906 14.195312 11.46875 14.382812 11.3125 C 14.4375 11.265625 14.496094 11.222656 14.550781 11.175781 C 14.6875 11.066406 14.824219 10.960938 14.960938 10.855469 C 15.019531 10.816406 15.074219 10.773438 15.132812 10.730469 C 15.277344 10.625 15.417969 10.527344 15.558594 10.433594 C 15.601562 10.402344 15.640625 10.375 15.683594 10.347656 C 16.054688 10.101562 16.414062 9.890625 16.753906 9.710938 C 16.824219 9.671875 16.894531 9.640625 16.964844 9.605469 C 17.0625 9.554688 17.160156 9.503906 17.253906 9.460938 C 17.371094 9.40625 17.488281 9.355469 17.605469 9.304688 C 17.828125 9.210938 18.042969 9.125 18.242188 9.054688 L 16.222656 15.230469 L 21.324219 11.101562 C 21.515625 12.25 21.585938 13.886719 21.171875 15.953125 Z M 21.171875 15.953125"/>
    <path d="M 15.175781 11.941406 C 15.03125 12.027344 11.636719 14.117188 11.425781 18.335938 C 11.414062 18.589844 11.613281 18.808594 11.867188 18.824219 C 11.875 18.824219 11.882812 18.824219 11.890625 18.824219 C 12.136719 18.824219 12.34375 18.628906 12.355469 18.382812 C 12.542969 14.671875 15.628906 12.757812 15.65625 12.738281 C 15.878906 12.605469 15.949219 12.320312 15.816406 12.101562 C 15.683594 11.878906 15.398438 11.808594 15.175781 11.941406 Z M 15.175781 11.941406"/>
</svg>
