<svg xmlns="http://www.w3.org/2000/svg" width="32" height="32" viewBox="0 0 24 24">
    <path d="M12.406 14.238a.406.406 0 1 1-.812 0 .406.406 0 0 1 .812 0zm0 0M12.406 15.863c0 .227-.18.407-.406.407a.406.406 0 1 1 .406-.406zm0 0"/>
    <path d="M16.098.383A1.102 1.102 0 0 0 15.266 0H8.734c-.32 0-.62.14-.832.383a1.085 1.085 0 0 0-.246.879l1.41 8.804c.086.532.536.918 1.075.918h1.453v.871c-.7.18-1.223.813-1.223 1.567v8.95c0 .898.73 1.628 1.629 1.628a1.63 1.63 0 0 0 1.629-1.629v-8.95c0-.753-.524-1.386-1.223-1.566v-.87h1.453c.536 0 .989-.387 1.075-.919l1.41-8.804c.05-.317-.04-.637-.246-.88zm-3.285 13.039v8.95c0 .448-.364.816-.813.816a.815.815 0 0 1-.813-.817v-8.95c0-.444.364-.812.813-.812.45 0 .813.368.813.813zm2.726-12.29l-1.406 8.806a.277.277 0 0 1-.274.23h-3.718a.277.277 0 0 1-.274-.23L8.461 1.133A.263.263 0 0 1 8.523.91a.275.275 0 0 1 .211-.098h6.532c.113 0 .18.063.21.098a.263.263 0 0 1 .063.223zm0 0"/>
    <path d="M12 2.035a.403.403 0 0 0-.406.406v6.102a.406.406 0 1 0 .812 0V2.441A.403.403 0 0 0 12 2.035zm0 0M14.07 2.063a.407.407 0 0 0-.457.351l-.781 6.05a.411.411 0 0 0 .352.458c.02 0 .039.004.054.004a.408.408 0 0 0 .403-.356l.78-6.054a.407.407 0 0 0-.35-.454zm0 0M9.95 2.063a.402.402 0 0 0-.352.453l.777 6.054a.412.412 0 0 0 .406.356c.016 0 .031-.004.051-.004a.411.411 0 0 0 .352-.457l-.782-6.05a.404.404 0 0 0-.453-.353zm0 0"/>
</svg>
