<svg xmlns="http://www.w3.org/2000/svg" width="32" height="32" viewBox="0 0 24 24">
    <path d="M12.406 11.855V8.898c1.399-.3 2.442-2.132 2.442-4.425C14.848 1.965 13.598 0 12 0c-1.598 0-2.848 1.965-2.848 4.473 0 2.293 1.043 4.125 2.442 4.425v2.957c-.7.18-1.223.813-1.223 1.567v8.95c0 .898.73 1.628 1.629 1.628a1.63 1.63 0 0 0 1.629-1.629v-8.95c0-.753-.524-1.386-1.223-1.566zM9.965 4.473c0-1.985.933-3.66 2.035-3.66s2.035 1.675 2.035 3.66c0 1.988-.933 3.664-2.035 3.664S9.965 6.46 9.965 4.473zm2.848 17.898c0 .45-.364.817-.813.817a.815.815 0 0 1-.813-.817v-8.95c0-.444.364-.812.813-.812.45 0 .813.368.813.813zm0 0"/>
    <path d="M12.406 14.238a.406.406 0 1 1-.812 0 .406.406 0 0 1 .812 0zm0 0M12.406 15.863c0 .227-.18.407-.406.407a.406.406 0 1 1 .406-.406zm0 0"/>
</svg>
