<svg xmlns="http://www.w3.org/2000/svg" width="32" height="32" viewBox="0 0 24 24">
    <path d="M21.988 11.352l.489-2.75h-1.11l-3.156-3.157A1.513 1.513 0 0 0 17.137 5h-3.535c0-.883-.72-1.602-1.602-1.602-.883 0-1.602.72-1.602 1.602H6.863c-.406 0-.789.16-1.074.445L2.633 8.602h-1.11l.493 2.757A3.083 3.083 0 0 0 0 10.602v.796c1.168 0 2.117.86 2.402 2.125l.817 4.582c-.008.032-.02.06-.02.094 0 .086.031.16.078.223l.164.933a1.509 1.509 0 0 0 1.489 1.247h14.14c.735 0 1.36-.524 1.489-1.247l1.035-5.796c.281-1.286 1.238-2.16 2.406-2.16v-.797c-.766 0-1.46.273-2.012.75zm-2.953-3.954H4.965L5.367 7h13.266zM12 4.2c.441 0 .8.36.8.801h-1.6c0-.441.359-.8.8-.8zM6.863 5.801h10.274c.191 0 .37.074.508.21l.19.188H6.166l.19-.187a.712.712 0 0 1 .508-.211zM4.164 8.199h15.672l.398.403H3.766zM19.77 19.215a.712.712 0 0 1-.7.586H4.93a.712.712 0 0 1-.7-.586l-.109-.613h3.48a.401.401 0 0 0 0-.801H3.978L3.836 17h2.562a.401.401 0 1 0 0-.8H3.691l-.144-.81c.02 0 .035.008.055.008h2a.398.398 0 1 0 0-.796h-2c-.07 0-.13.02-.188.05l-.168-.941a4.392 4.392 0 0 0-.058-.34l-.711-3.973h19.046l-.714 3.993c-.02.097-.04.195-.051.296zm0 0"/>
</svg>
