<svg xmlns="http://www.w3.org/2000/svg" width="32" height="32" viewBox="0 0 24 24">
    <path d="M23.5 15.578l-2.45.383 2.25-1.082a.431.431 0 0 0-.37-.777l-4.836 2.324-14.996 2.351a.427.427 0 0 0-.36.493c.032.21.215.363.426.363.02 0 .043 0 .066-.004l12.16-1.906-11.081 5.32a.428.428 0 0 0 .183.816.436.436 0 0 0 .188-.039l13.672-6.562 5.285-.828a.434.434 0 0 0 .36-.492.428.428 0 0 0-.497-.36zm0 0M16.52 12.313v-1.758V8.78s-.004 0 0 0V3.074 3.07 3.06c-.004-.04-.012-.07-.016-.106a1.644 1.644 0 0 0-.035-.242c-.008-.023-.024-.047-.032-.07a1.261 1.261 0 0 0-.113-.258.119.119 0 0 0-.02-.028C15.48 1.004 12.325.25 9.028.152a25.275 25.275 0 0 0-1.535 0C3.692.266.078 1.246.008 3.016c0 .015-.008.03-.008.046v9.254c.02 1.914 4.168 2.918 8.258 2.918 4.094 0 8.242-1 8.262-2.921zm-9.301-7.2C5.203 4.582 4.855 3.7 4.852 3.687c-.02-.058-.028-.136.05-.253.285-.418 1.375-.907 3.094-.997.027-.003.055-.003.082-.003-.64.09-1.133.32-1.348.636a.71.71 0 0 0-.093.64c.261.778 1.633 1.063 2.797 1.005 1.222-.063 2.168-.418 2.527-.95a.873.873 0 0 0 .117-.785c-.355-1.046-2.344-1.5-4.125-1.406-1.812.098-3.254.621-3.766 1.375-.214.32-.269.672-.156 1 .02.074.164.469.688.914C2.277 4.457.867 3.683.863 3.07v-.004-.003C.88 2.199 3.695 1 8.262 1c.285 0 .562.008.836.016 3.793.125 6.203 1.093 6.523 1.879v.003c.02.047.027.094.027.137.004.012.008.02.008.031v.008c-.008.86-2.82 2.063-7.394 2.063-.364 0-.707-.012-1.043-.024zM8.66 2.43c1.45.043 2.485.48 2.602.824-.032.144-.637.535-1.875.598-1.012.054-1.672-.196-1.871-.356.136-.082.46-.21 1-.238a.43.43 0 1 0 .145-.828zM.863 12.313V4.44c1.239.891 3.653 1.407 6.215 1.528h.008c.035.011.07.015.105.015.016 0 .032-.007.051-.011a21.9 21.9 0 0 0 1.016.023c2.976 0 5.972-.531 7.398-1.555v2.875c-.043.735-1.406 1.18-1.918 1.344a.431.431 0 1 0 .266.824c.402-.132 1.094-.359 1.652-.754v.016c-.058 1.078-2.437 1.54-3.336 1.711l-.066.016a.426.426 0 0 0-.34.504c.04.207.219.347.422.347.027 0 .055 0 .082-.008l.066-.011c.778-.149 2.239-.438 3.172-1.114v.329c-.05.925-1.617 1.57-4.656 1.921l-.105.012a.43.43 0 0 0 .046.86c.02 0 .036 0 .051-.004l.106-.012c1.132-.129 3.336-.387 4.558-1.29v.302c-.008.859-2.828 2.062-7.398 2.062S.87 13.171.863 12.312zm0 0"/>
</svg>
