<svg xmlns="http://www.w3.org/2000/svg" width="32" height="32" viewBox="0 0 24 24">
    <path d="M5.953 7.184c0 .492.192.953.543 1.3a.396.396 0 0 0 .563 0 .394.394 0 0 0 0-.566 1.034 1.034 0 0 1-.305-.734c0-.278.11-.54.305-.739.351-.347.543-.808.543-1.3a1.83 1.83 0 0 0-.543-1.305.396.396 0 0 0-.563 0 .4.4 0 0 0 0 .566 1.05 1.05 0 0 1 0 1.477 1.814 1.814 0 0 0-.543 1.3zm0 0M14.754 7.184c0 .492.191.953.539 1.3a.405.405 0 0 0 .285.118.4.4 0 0 0 .281-.684 1.034 1.034 0 0 1-.304-.734c0-.278.11-.54.304-.739a1.83 1.83 0 0 0 .543-1.3c0-.493-.195-.954-.543-1.305a.4.4 0 0 0-.566.566 1.038 1.038 0 0 1 0 1.477c-.348.347-.54.808-.54 1.3zm0 0M10.184 5.629c0 .629.242 1.215.687 1.656.078.078.18.117.281.117.102 0 .203-.039.286-.117a.408.408 0 0 0 0-.566 1.518 1.518 0 0 1-.454-1.09c0-.41.16-.797.454-1.086a2.335 2.335 0 0 0 .683-1.656c0-.625-.242-1.211-.684-1.657a.4.4 0 0 0-.566.567 1.543 1.543 0 0 1 0 2.18 2.307 2.307 0 0 0-.687 1.652zm0 0M18.777 16.71c.008 0 .016.005.024.005 2.965 0 5.199-2.063 5.199-4.8a.398.398 0 0 0-.398-.4H19.98c.012-.265.02-.53.02-.8a.401.401 0 0 0-.398-.402H8.8v-.399a.398.398 0 0 0-.403-.398.398.398 0 0 0-.398.398v.399H2.8a.402.402 0 0 0-.402.402c0 3.883 1.18 6.953 3.344 8.8H.398a.398.398 0 0 0-.398.4c0 .605 2.867 1.663 2.895 1.675 1.648.59 4.425 1.297 8.304 1.297 7.434 0 10.899-2.543 11.043-2.653a.4.4 0 0 0-.242-.718h-5.34c.871-.746 1.578-1.692 2.117-2.805zm4.403-4.398c-.188 2.012-1.817 3.458-4.047 3.59.41-1.07.676-2.273.797-3.59zM11.2 22.087c-4.727 0-7.762-1.043-9.302-1.773h18.563c-1.586.738-4.637 1.773-9.262 1.773zm-4.11-2.57c-2.43-1.512-3.797-4.48-3.887-8.403H8v.801h-.8a.4.4 0 0 0-.4.399v3c0 .222.18.402.4.402h2.402c.218 0 .398-.18.398-.402v-3a.4.4 0 0 0-.398-.399H8.8v-.8h10.394c-.086 3.921-1.457 6.89-3.883 8.402zm2.11-6.801v2.2H7.601v-2.2zm0 0"/>
</svg>
