<svg xmlns="http://www.w3.org/2000/svg" width="32" height="32" viewBox="0 0 24 24">
    <path d="M18.027 9.39l-.894 1.255c-.957-.91-2.035-1.598-3.2-2.032-.03-.011-.062-.023-.09-.035a9.635 9.635 0 0 0-.476-.148 7.85 7.85 0 0 0-.719-.18c-.02-.004-.043-.012-.062-.016.277-.336.45-.761.45-1.23a1.957 1.957 0 0 0-1.954-1.957 1.96 1.96 0 0 0-1.957 1.957c0 .469.172.894.45 1.23-.02.004-.04.012-.063.016a7.849 7.849 0 0 0-.719.18c-.16.047-.316.093-.473.148l-.093.035a9.6 9.6 0 0 0-1.004.45 4.136 4.136 0 0 0-3.094-1.407A4.132 4.132 0 0 0 0 11.781c0 1.457.75 2.762 1.977 3.512a15.975 15.975 0 0 0-.848 3.016c-.184 1.035.074 2.093.695 2.836.461.546 1.067.851 1.707.851H18.63c.64 0 1.246-.305 1.707-.851.621-.743.883-1.801.7-2.836-.34-1.899-.977-3.614-1.845-5.075l2.993-3.84h-4.157zm-5.52-.28c.141.027.278.058.415.097.121.031.242.063.36.102.14.043.277.093.413.144a8.197 8.197 0 0 1 1.566.809H6.919c.129-.086.254-.172.387-.25l.058-.035.047-.028c.297-.168.602-.312.914-.437l.14-.059c.138-.055.274-.101.415-.144.117-.04.238-.07.36-.106.136-.035.277-.066.413-.094.168-.035.332-.066.5-.086a8.48 8.48 0 0 1 .93-.066 7.068 7.068 0 0 1 1.426.152zm-1.425-3.192a1.086 1.086 0 1 1 0 2.172 1.086 1.086 0 0 1 0-2.172zM.867 11.781A3.264 3.264 0 0 1 4.13 8.523a3.26 3.26 0 0 1 2.328.989c-1.707 1.113-3.148 2.832-4.137 4.976a3.22 3.22 0 0 1-1.453-2.707zm18.805 8.805c-.293.348-.664.539-1.043.539H3.53c-.379 0-.746-.191-1.039-.54-.449-.538-.644-1.35-.508-2.128.18-1.004.45-1.95.793-2.832l.149-.352c.715-1.683 1.734-3.128 2.945-4.207.082.04.164.063.258.063h9.902a.628.628 0 0 0 .282-.074c.105.093.207.199.312.3l.246.262c.52.54.996 1.156 1.418 1.828l.273.438a14.39 14.39 0 0 1 1.614 4.574c.14.777-.055 1.59-.504 2.129zm-1.922-9.309l.723-1.015h1.93l-1.708 2.195a11.788 11.788 0 0 0-.945-1.18zm0 0"/>
    <path d="M19.555 8.523a.43.43 0 0 0 .355-.187l.25-.356a.434.434 0 0 0-.113-.605.43.43 0 0 0-.602.11l-.25.355a.437.437 0 0 0 .36.683zm0 0M20.59 7.027a.443.443 0 0 0 .36-.187l.523-.758a.437.437 0 0 0-.11-.605.437.437 0 0 0-.605.109l-.524.758a.433.433 0 0 0 .356.683zm0 0M21.902 5.129c.141 0 .274-.063.36-.188l.523-.757a.433.433 0 0 0-.11-.606.437.437 0 0 0-.605.11l-.523.761a.43.43 0 0 0 .11.602.41.41 0 0 0 .245.078zm0 0M23.219 3.23a.421.421 0 0 0 .355-.187l.25-.356a.438.438 0 0 0-.113-.605.432.432 0 0 0-.602.11l-.25.359a.437.437 0 0 0 .11.605c.078.051.164.074.25.074zm0 0M21.184 7.484l-.25.356a.434.434 0 0 0 .113.605.43.43 0 0 0 .602-.11l.25-.355a.434.434 0 0 0-.715-.496zm0 0M22.293 5.879l-.445.644a.434.434 0 0 0 .113.602.43.43 0 0 0 .602-.11l.445-.64a.433.433 0 0 0-.11-.605.433.433 0 0 0-.605.109zm0 0M23.813 4.45a.437.437 0 0 0-.606.109l-.246.355a.437.437 0 0 0 .355.684c.141 0 .274-.067.36-.188l.246-.355a.433.433 0 0 0-.11-.606zm0 0"/>
</svg>
