<svg xmlns="http://www.w3.org/2000/svg" width="32" height="32" viewBox="0 0 24 24">
    <path d="M24 10.438a4.294 4.294 0 0 0-4.29-4.29c-.858 0-1.687.262-2.398.747-1.43-1.422-3.199-2.418-5.109-2.758.27-.332.434-.746.434-1.203 0-1.063-.867-1.93-1.93-1.93-1.062 0-1.93.867-1.93 1.93 0 .464.172.882.446 1.214-1.903.356-3.696 1.36-5.192 2.926L2.816 5.988c-.558-.5-1.382-.61-2.007-.265-.454.246-.747.66-.801 1.136-.051.465.125.914.484 1.239.965.859 1.305 2.125.887 3.304-.098.274-.18.551-.258.828l-.008.036c-.125.453-.215.91-.281 1.367-.02.14-.039.281-.055.422-.011.113-.027.23-.035.347a10.273 10.273 0 0 0 1.773 6.66c.102.149.215.29.337.426.859.942 2.168 1.508 3.546 1.508h8.696c1.375 0 2.687-.566 3.543-1.508.125-.136.234-.277.34-.425a10.273 10.273 0 0 0 1.789-6.473A4.258 4.258 0 0 0 24 10.438zm-4.2 3.199a2.11 2.11 0 0 1-1.28-.606 3.005 3.005 0 0 0-4.11-.125l-.148.125c-.04.04-.082.07-.125.106v-6.13h-3V4.876c4.18.234 7.945 4.145 8.664 8.762zm-11.663-.38a2.13 2.13 0 0 1 2.488.384c.566.566 1.32.879 2.121.879.184 0 .36-.016.535-.047v4.113H8.137zm3.093-.226a3.007 3.007 0 0 0-3.093-.715V7.863h5.144v5.723c-.71.18-1.496 0-2.05-.555zm-.523-11.168a1.073 1.073 0 1 1 .003 2.146 1.073 1.073 0 0 1-.003-2.146zm-9.64 5.594a.58.58 0 0 1-.208-.5c.024-.2.153-.371.36-.484a.821.821 0 0 1 .379-.09c.226 0 .468.086.648.246L3.742 7.96a.478.478 0 0 0 .668-.035c1.649-1.844 3.715-2.91 5.867-3.047v2.129h-3v5.773c-.05.04-.105.082-.156.125l-.148.125a2.117 2.117 0 0 1-1.516.63 2.13 2.13 0 0 1-1.516-.63 2.948 2.948 0 0 0-1.902-.86c.047-.16.09-.323.148-.483.536-1.512.106-3.133-1.12-4.231zM18.27 20.574a2.933 2.933 0 0 1-.274.344c-.695.762-1.77 1.219-2.902 1.219H6.398c-.972 0-1.902-.336-2.582-.91a3.321 3.321 0 0 1-.293-.282c-.007-.008-.02-.015-.027-.027a2.933 2.933 0 0 1-.273-.344 9.395 9.395 0 0 1-1.625-6.097l.023-.27c.02-.187.047-.375.074-.562.028-.168.059-.34.094-.508.008-.04.02-.078.027-.117h.016c.566 0 1.102.218 1.504.62.566.567 1.32.88 2.121.88.668 0 1.3-.22 1.82-.618v5.54h6.86v-5.266c.215-.114.418-.246.601-.41l.145-.125a2.145 2.145 0 0 1 3.031 0 2.989 2.989 0 0 0 1.984.863v.023a9.424 9.424 0 0 1-1.629 6.047zm2.421-6.851c-.285-2.297-1.214-4.547-2.601-6.305.496-.27 1.05-.41 1.62-.41 1.895 0 3.43 1.539 3.43 3.43a3.407 3.407 0 0 1-2.449 3.285zm0 0"/>
    <path d="M11.137 17.727c0 .238-.192.43-.43.43a.43.43 0 0 1-.43-.43c0-.235.196-.43.43-.43a.43.43 0 0 1 .43.43zm0 0M12.852 15.156a.43.43 0 0 1-.86 0 .43.43 0 0 1 .43-.43c.238 0 .43.192.43.43zm0 0M9.422 15.156a.428.428 0 0 1-.43.426.428.428 0 1 1 0-.855c.238 0 .43.191.43.43zm0 0M11.137 15.156a.43.43 0 0 1-.86 0 .43.43 0 0 1 .43-.43c.238 0 .43.192.43.43zm0 0M11.992 16.441a.428.428 0 1 1-.855 0 .428.428 0 1 1 .855 0zm0 0M10.277 16.441a.428.428 0 1 1-.855 0 .428.428 0 1 1 .855 0zm0 0"/>
</svg>
