<svg xmlns="http://www.w3.org/2000/svg" width="32" height="32" viewBox="0 0 24 24">
    <path d="M7.40625 2.652344C7.242188 2.488281 6.976562 2.488281 6.8125 2.652344L2.179688 7.285156C2.015625 7.449219 2.015625 7.714844 2.179688 7.878906 2.261719 7.960938 2.371094 8.003906 2.476562 8.003906 2.585938 8.003906 2.691406 7.960938 2.773438 7.878906L7.40625 3.25C7.570312 3.085938 7.570312 2.816406 7.40625 2.652344zM10.144531 4.128906C9.980469 3.960938 9.710938 3.960938 9.546875 4.128906L3.230469 10.441406C3.066406 10.609375 3.066406 10.875 3.230469 11.039062 3.316406 11.121094 3.421875 11.160156 3.53125 11.160156 3.636719 11.160156 3.746094 11.121094 3.828125 11.039062L10.144531 4.722656C10.308594 4.558594 10.308594 4.292969 10.144531 4.128906zM17.089844 18.652344C16.925781 18.488281 16.660156 18.488281 16.496094 18.652344L13.96875 21.179688C13.804688 21.34375 13.804688 21.609375 13.96875 21.773438 14.050781 21.855469 14.160156 21.898438 14.265625 21.898438 14.375 21.898438 14.480469 21.855469 14.5625 21.773438L17.089844 19.25C17.253906 19.085938 17.253906 18.816406 17.089844 18.652344zM17.089844 14.441406C16.925781 14.277344 16.660156 14.277344 16.496094 14.441406L10.179688 20.757812C10.015625 20.921875 10.015625 21.191406 10.179688 21.355469 10.261719 21.4375 10.371094 21.476562 10.476562 21.476562 10.585938 21.476562 10.691406 21.4375 10.773438 21.355469L17.089844 15.039062C17.253906 14.875 17.253906 14.605469 17.089844 14.441406zM5.089844 13.984375L15.617188 3.460938C15.78125 3.296875 15.78125 3.027344 15.617188 2.863281 15.453125 2.699219 15.1875 2.699219 15.023438 2.863281L4.496094 13.390625C4.332031 13.554688 4.332031 13.820312 4.496094 13.984375 4.578125 14.066406 4.683594 14.109375 4.792969 14.109375 4.902344 14.109375 5.007812 14.066406 5.089844 13.984375zM18.773438 4.339844C18.609375 4.171875 18.34375 4.171875 18.179688 4.339844L4.707031 17.8125C4.542969 17.976562 4.542969 18.242188 4.707031 18.40625 4.789062 18.488281 4.894531 18.53125 5.003906 18.53125 5.113281 18.53125 5.21875 18.488281 5.300781 18.40625L18.773438 4.933594C18.941406 4.769531 18.941406 4.503906 18.773438 4.339844zM20.039062 7.285156C19.875 7.121094 19.605469 7.121094 19.441406 7.285156L5.96875 20.757812C5.804688 20.921875 5.804688 21.191406 5.96875 21.355469 6.050781 21.4375 6.160156 21.476562 6.265625 21.476562 6.375 21.476562 6.480469 21.4375 6.566406 21.355469L20.039062 7.878906C20.203125 7.714844 20.203125 7.449219 20.039062 7.285156zM20.039062 7.285156"/>
    <path d="M 23.910156 6.53125 C 23.4375 3.597656 21.136719 1.34375 18.1875 0.917969 C 17.574219 0.832031 16.949219 0.828125 16.332031 0.90625 C 15.464844 0.796875 14.609375 0.84375 13.78125 1.054688 C 12.046875 1.496094 10.21875 1.496094 8.488281 1.054688 C 7.617188 0.835938 6.71875 0.789062 5.8125 0.917969 C 2.894531 1.335938 0.597656 3.566406 0.101562 6.460938 C -0.273438 8.648438 0.386719 10.808594 1.90625 12.382812 C 2.789062 13.300781 3.273438 14.460938 3.273438 15.65625 L 3.273438 20.453125 C 3.273438 21.941406 4.488281 23.152344 5.976562 23.152344 L 17.835938 23.152344 C 19.324219 23.152344 20.535156 21.941406 20.535156 20.453125 L 20.535156 15.84375 C 20.535156 14.613281 21.054688 13.417969 22 12.480469 C 23.570312 10.914062 24.265625 8.746094 23.910156 6.53125 Z M 4.117188 20.453125 L 4.117188 15.65625 C 4.117188 14.242188 3.546875 12.871094 2.511719 11.800781 C 1.179688 10.417969 0.605469 8.523438 0.933594 6.601562 C 1.367188 4.070312 3.375 2.117188 5.933594 1.753906 C 6.230469 1.710938 6.523438 1.6875 6.816406 1.6875 C 7.3125 1.6875 7.800781 1.75 8.277344 1.871094 C 10.144531 2.347656 12.121094 2.347656 13.988281 1.871094 C 14.730469 1.683594 15.5 1.640625 16.277344 1.746094 C 16.28125 1.746094 16.28125 1.746094 16.28125 1.746094 L 16.332031 1.753906 C 18.917969 2.125 20.929688 4.097656 21.34375 6.664062 C 21.65625 8.609375 21.046875 10.511719 19.671875 11.882812 C 19.394531 12.15625 19.152344 12.449219 18.9375 12.761719 C 18.300781 13.6875 17.960938 14.75 17.960938 15.84375 L 17.960938 20.453125 C 17.960938 21.476562 17.128906 22.3125 16.101562 22.3125 L 5.976562 22.3125 C 4.949219 22.3125 4.117188 21.476562 4.117188 20.453125 Z M 21.402344 11.882812 C 20.300781 12.980469 19.695312 14.386719 19.695312 15.84375 L 19.695312 20.453125 C 19.695312 21.398438 18.988281 22.179688 18.074219 22.296875 C 18.09375 22.273438 18.113281 22.25 18.132812 22.226562 C 18.160156 22.199219 18.183594 22.167969 18.207031 22.140625 C 18.238281 22.101562 18.265625 22.066406 18.292969 22.027344 C 18.316406 21.996094 18.335938 21.964844 18.359375 21.933594 C 18.382812 21.894531 18.410156 21.851562 18.433594 21.8125 C 18.453125 21.78125 18.472656 21.75 18.488281 21.714844 C 18.511719 21.671875 18.53125 21.628906 18.550781 21.582031 C 18.566406 21.550781 18.585938 21.515625 18.597656 21.484375 C 18.617188 21.4375 18.632812 21.390625 18.648438 21.34375 C 18.664062 21.308594 18.675781 21.273438 18.6875 21.238281 C 18.699219 21.1875 18.714844 21.136719 18.726562 21.085938 C 18.734375 21.050781 18.742188 21.019531 18.75 20.984375 C 18.761719 20.925781 18.769531 20.867188 18.777344 20.808594 C 18.78125 20.777344 18.785156 20.75 18.789062 20.722656 C 18.796875 20.632812 18.804688 20.542969 18.804688 20.453125 L 18.804688 15.84375 C 18.804688 15.074219 19.007812 14.320312 19.386719 13.632812 C 19.617188 13.21875 19.910156 12.832031 20.265625 12.476562 C 21.835938 10.914062 22.53125 8.746094 22.175781 6.53125 C 22.140625 6.324219 22.097656 6.117188 22.042969 5.917969 C 22.027344 5.855469 22.007812 5.792969 21.992188 5.730469 C 21.953125 5.589844 21.90625 5.453125 21.859375 5.316406 C 21.835938 5.25 21.808594 5.183594 21.785156 5.117188 C 21.730469 4.984375 21.675781 4.855469 21.613281 4.726562 C 21.585938 4.667969 21.5625 4.609375 21.535156 4.554688 C 21.449219 4.386719 21.355469 4.21875 21.257812 4.058594 C 21.25 4.046875 21.246094 4.035156 21.238281 4.027344 C 21.132812 3.851562 21.015625 3.6875 20.894531 3.527344 C 20.859375 3.480469 20.824219 3.441406 20.792969 3.398438 C 20.699219 3.28125 20.601562 3.167969 20.503906 3.058594 C 20.460938 3.011719 20.414062 2.964844 20.371094 2.917969 C 20.269531 2.8125 20.164062 2.714844 20.058594 2.617188 C 20.015625 2.578125 19.972656 2.535156 19.929688 2.496094 C 19.789062 2.378906 19.644531 2.261719 19.496094 2.15625 C 19.484375 2.144531 19.476562 2.136719 19.464844 2.128906 C 21.355469 2.890625 22.742188 4.582031 23.078125 6.664062 C 23.390625 8.609375 22.78125 10.511719 21.402344 11.882812 Z M 21.402344 11.882812"/>
</svg>
