<svg xmlns="http://www.w3.org/2000/svg" width="32" height="32" viewBox="0 0 24 24">
    <path d="M 23.695312 3.375 C 23.496094 3.128906 23.230469 2.964844 22.933594 2.902344 C 22.8125 2.621094 22.597656 2.390625 22.324219 2.242188 C 21.796875 1.960938 21.136719 2.058594 20.710938 2.472656 C 20.386719 2.785156 20.238281 3.21875 20.304688 3.660156 C 20.324219 3.800781 20.332031 4.070312 20.160156 4.277344 L 18.816406 5.90625 C 18.796875 5.902344 18.78125 5.898438 18.761719 5.894531 L 18.703125 5.886719 L 18.644531 5.890625 C 18.503906 5.90625 18.367188 5.945312 18.238281 5.992188 C 17.949219 6.097656 17.6875 6.273438 17.488281 6.511719 C 17.484375 6.519531 17.480469 6.523438 17.472656 6.53125 C 17.398438 6.621094 17.320312 6.703125 17.238281 6.789062 C 17.183594 6.847656 17.125 6.910156 17.0625 6.96875 C 15.609375 6.570312 13.414062 6.621094 10.828125 8.835938 C 10.785156 8.875 10.730469 8.925781 10.671875 8.976562 C 10.570312 9.070312 10.445312 9.179688 10.308594 9.289062 C 10.308594 9.121094 10.300781 8.957031 10.28125 8.792969 C 10.117188 7.597656 9.347656 6.554688 8.050781 5.785156 C 7.738281 5.601562 7.355469 5.601562 7.046875 5.789062 C 6.738281 5.976562 6.558594 6.320312 6.582031 6.683594 C 6.601562 7.03125 6.519531 7.449219 6.359375 7.917969 C 6.164062 7.847656 5.960938 7.808594 5.75 7.808594 C 3.207031 7.808594 1.628906 9.476562 1.628906 12.164062 C 1.628906 12.414062 1.652344 12.664062 1.703125 12.910156 C 1.828125 13.542969 1.839844 14.101562 1.734375 14.605469 C 1.664062 14.949219 1.628906 15.300781 1.628906 15.648438 C 1.628906 16.300781 1.796875 16.886719 2.121094 17.40625 C 1.867188 17.644531 1.660156 17.933594 1.507812 18.257812 L 0.785156 18.257812 C 0.488281 18.257812 0.222656 18.417969 0.0859375 18.683594 C -0.046875 18.945312 -0.0234375 19.257812 0.148438 19.496094 L 1.066406 20.785156 C 1.574219 21.492188 2.394531 21.917969 3.269531 21.917969 L 19.917969 21.917969 C 20.789062 21.917969 21.613281 21.492188 22.121094 20.785156 L 23.039062 19.496094 C 23.210938 19.257812 23.234375 18.945312 23.101562 18.683594 C 22.964844 18.417969 22.699219 18.257812 22.402344 18.257812 L 21.273438 18.257812 C 21.222656 18.148438 21.167969 18.046875 21.101562 17.949219 C 22.21875 17.089844 22.921875 16.035156 23.179688 14.804688 C 23.542969 13.070312 21.902344 10.980469 20.25 9.117188 C 20.300781 9.054688 20.347656 8.984375 20.402344 8.921875 C 20.402344 8.921875 20.40625 8.917969 20.40625 8.917969 L 20.453125 8.84375 C 20.46875 8.8125 20.75 8.246094 20.695312 7.601562 L 22.109375 5.882812 C 22.28125 5.675781 22.546875 5.632812 22.6875 5.625 C 23.136719 5.605469 23.53125 5.375 23.777344 5 C 24.101562 4.503906 24.066406 3.835938 23.695312 3.375 Z M 19.351562 8.964844 L 19.207031 9.171875 L 19.210938 9.179688 C 18.535156 10.226562 18.125 11.382812 18.03125 12.566406 C 17.976562 13.195312 17.738281 13.789062 17.332031 14.28125 C 16.789062 14.941406 16.019531 15.339844 15.167969 15.402344 C 14.3125 15.460938 13.492188 15.179688 12.859375 14.605469 C 11.65625 13.515625 11.515625 11.609375 12.539062 10.351562 C 12.992188 9.796875 13.601562 9.425781 14.300781 9.277344 C 15.429688 9.042969 16.433594 8.5625 17.257812 7.882812 L 17.261719 7.882812 L 17.277344 7.867188 C 17.457031 7.714844 17.632812 7.554688 17.796875 7.382812 C 17.886719 7.292969 17.96875 7.195312 18.050781 7.101562 C 18.070312 7.078125 18.09375 7.054688 18.117188 7.03125 C 18.257812 6.855469 18.457031 6.742188 18.683594 6.707031 C 18.765625 6.722656 18.835938 6.742188 18.910156 6.765625 C 19.019531 6.792969 19.117188 6.828125 19.210938 6.863281 C 19.238281 6.878906 19.269531 6.890625 19.300781 6.90625 C 19.355469 6.933594 19.410156 6.960938 19.457031 6.992188 C 19.503906 7.023438 19.546875 7.054688 19.585938 7.089844 C 19.613281 7.113281 19.640625 7.136719 19.660156 7.160156 C 19.703125 7.207031 19.742188 7.257812 19.773438 7.308594 C 19.789062 7.339844 19.808594 7.375 19.820312 7.410156 C 19.824219 7.417969 19.828125 7.425781 19.832031 7.433594 C 19.847656 7.472656 19.859375 7.515625 19.867188 7.558594 L 19.867188 7.5625 C 19.941406 7.9375 19.792969 8.324219 19.746094 8.441406 C 19.605469 8.609375 19.476562 8.785156 19.351562 8.964844 Z M 7.46875 6.484375 C 7.5 6.464844 7.5625 6.441406 7.632812 6.484375 C 8.382812 6.929688 9.3125 7.710938 9.472656 8.902344 C 9.515625 9.214844 9.503906 9.542969 9.441406 9.886719 L 9.425781 9.957031 C 9.28125 10.664062 8.910156 11.429688 8.328125 12.25 C 8.324219 12.257812 8.316406 12.265625 8.3125 12.269531 C 8.089844 12.582031 7.835938 12.898438 7.550781 13.222656 C 7.523438 13.253906 7.492188 13.289062 7.464844 13.320312 C 7.324219 13.476562 7.183594 13.632812 7.027344 13.792969 C 6.769531 14.0625 6.511719 14.273438 6.269531 14.425781 C 5.875 14.667969 5.511719 14.746094 5.203125 14.652344 C 5.195312 14.652344 5.183594 14.652344 5.175781 14.648438 C 4.804688 14.519531 4.527344 14.109375 4.472656 13.597656 C 4.46875 13.582031 4.472656 13.5625 4.472656 13.546875 C 4.449219 13.25 4.511719 12.941406 4.628906 12.628906 C 4.851562 12.042969 5.265625 11.449219 5.644531 10.902344 C 5.679688 10.847656 5.714844 10.800781 5.75 10.75 C 5.847656 10.605469 5.945312 10.464844 6.035156 10.328125 C 6.054688 10.296875 6.070312 10.269531 6.089844 10.242188 C 6.15625 10.136719 6.226562 10.027344 6.292969 9.914062 C 6.351562 9.816406 6.40625 9.722656 6.457031 9.628906 C 6.484375 9.582031 6.515625 9.535156 6.542969 9.484375 C 6.703125 9.191406 6.839844 8.90625 6.957031 8.632812 L 7.09375 8.3125 L 7.082031 8.304688 C 7.289062 7.742188 7.421875 7.167969 7.394531 6.636719 C 7.386719 6.546875 7.4375 6.503906 7.46875 6.484375 Z M 2.914062 17.804688 C 2.996094 17.75 3.074219 17.699219 3.160156 17.65625 C 3.171875 17.652344 3.1875 17.648438 3.199219 17.640625 C 3.269531 17.605469 3.34375 17.578125 3.414062 17.554688 C 3.445312 17.542969 3.476562 17.535156 3.511719 17.523438 C 3.570312 17.507812 3.632812 17.492188 3.695312 17.480469 C 3.726562 17.472656 3.757812 17.46875 3.789062 17.464844 C 3.878906 17.449219 3.972656 17.441406 4.066406 17.441406 C 4.164062 17.441406 4.261719 17.453125 4.355469 17.464844 C 4.382812 17.46875 4.410156 17.476562 4.4375 17.480469 C 4.503906 17.492188 4.574219 17.507812 4.636719 17.527344 C 4.664062 17.535156 4.695312 17.542969 4.71875 17.554688 C 4.800781 17.582031 4.882812 17.613281 4.960938 17.652344 C 4.964844 17.652344 4.972656 17.65625 4.980469 17.660156 C 5.0625 17.699219 5.140625 17.75 5.214844 17.800781 C 5.238281 17.816406 5.257812 17.832031 5.28125 17.851562 C 5.335938 17.890625 5.390625 17.933594 5.4375 17.980469 C 5.460938 18 5.480469 18.019531 5.5 18.039062 C 5.558594 18.097656 5.613281 18.15625 5.664062 18.222656 C 5.671875 18.230469 5.679688 18.238281 5.6875 18.25 C 5.6875 18.25 5.691406 18.253906 5.691406 18.253906 L 2.441406 18.253906 C 2.574219 18.082031 2.734375 17.929688 2.914062 17.804688 Z M 7.351562 18.222656 C 7.402344 18.15625 7.457031 18.097656 7.515625 18.039062 C 7.535156 18.019531 7.558594 18 7.578125 17.980469 C 7.628906 17.933594 7.679688 17.890625 7.734375 17.851562 C 7.757812 17.832031 7.777344 17.816406 7.800781 17.800781 C 7.878906 17.75 7.957031 17.699219 8.039062 17.660156 C 8.046875 17.65625 8.050781 17.652344 8.058594 17.652344 C 8.136719 17.613281 8.214844 17.582031 8.296875 17.554688 C 8.324219 17.542969 8.351562 17.535156 8.378906 17.527344 C 8.445312 17.507812 8.511719 17.492188 8.578125 17.480469 C 8.609375 17.476562 8.636719 17.46875 8.664062 17.464844 C 8.757812 17.453125 8.851562 17.441406 8.949219 17.441406 C 9.046875 17.441406 9.140625 17.453125 9.234375 17.464844 C 9.265625 17.46875 9.292969 17.476562 9.320312 17.480469 C 9.386719 17.492188 9.453125 17.507812 9.519531 17.527344 C 9.546875 17.535156 9.574219 17.542969 9.601562 17.554688 C 9.683594 17.582031 9.765625 17.613281 9.839844 17.652344 C 9.847656 17.652344 9.855469 17.65625 9.859375 17.660156 C 9.945312 17.703125 10.023438 17.75 10.097656 17.800781 C 10.121094 17.816406 10.140625 17.835938 10.164062 17.851562 C 10.21875 17.890625 10.269531 17.933594 10.320312 17.980469 C 10.34375 18 10.363281 18.019531 10.382812 18.039062 C 10.441406 18.097656 10.496094 18.15625 10.546875 18.222656 C 10.554688 18.230469 10.5625 18.242188 10.570312 18.25 C 10.570312 18.25 10.570312 18.253906 10.574219 18.257812 L 7.328125 18.257812 C 7.328125 18.253906 7.328125 18.25 7.332031 18.25 C 7.335938 18.242188 7.347656 18.230469 7.351562 18.222656 Z M 12.234375 18.222656 C 12.285156 18.15625 12.339844 18.097656 12.398438 18.039062 C 12.417969 18.019531 12.4375 18 12.460938 17.980469 C 12.511719 17.933594 12.5625 17.890625 12.617188 17.851562 C 12.640625 17.832031 12.660156 17.816406 12.683594 17.800781 C 12.757812 17.75 12.835938 17.699219 12.921875 17.660156 C 12.925781 17.65625 12.933594 17.652344 12.941406 17.652344 C 13.015625 17.613281 13.097656 17.582031 13.179688 17.554688 C 13.207031 17.542969 13.234375 17.535156 13.261719 17.527344 C 13.328125 17.507812 13.394531 17.492188 13.460938 17.480469 C 13.488281 17.476562 13.515625 17.46875 13.542969 17.464844 C 13.640625 17.453125 13.734375 17.441406 13.832031 17.441406 C 13.929688 17.441406 14.023438 17.453125 14.117188 17.464844 C 14.144531 17.46875 14.171875 17.476562 14.199219 17.480469 C 14.269531 17.492188 14.335938 17.507812 14.402344 17.527344 C 14.429688 17.535156 14.457031 17.542969 14.484375 17.554688 C 14.566406 17.582031 14.644531 17.613281 14.722656 17.652344 C 14.730469 17.652344 14.734375 17.65625 14.742188 17.660156 C 14.824219 17.703125 14.902344 17.75 14.980469 17.800781 C 15 17.816406 15.023438 17.835938 15.042969 17.851562 C 15.097656 17.890625 15.152344 17.933594 15.203125 17.980469 C 15.222656 18 15.246094 18.019531 15.265625 18.039062 C 15.324219 18.097656 15.378906 18.15625 15.429688 18.222656 C 15.433594 18.230469 15.441406 18.242188 15.449219 18.25 C 15.453125 18.25 15.453125 18.253906 15.453125 18.257812 L 12.207031 18.257812 C 12.210938 18.253906 12.210938 18.25 12.210938 18.25 C 12.21875 18.242188 12.226562 18.230469 12.234375 18.222656 Z M 17.117188 18.222656 C 17.167969 18.15625 17.222656 18.097656 17.277344 18.039062 C 17.300781 18.019531 17.320312 18 17.339844 17.980469 C 17.390625 17.933594 17.445312 17.890625 17.5 17.851562 C 17.519531 17.832031 17.542969 17.816406 17.5625 17.800781 C 17.640625 17.75 17.71875 17.699219 17.800781 17.660156 C 17.808594 17.65625 17.816406 17.652344 17.820312 17.652344 C 17.898438 17.613281 17.976562 17.582031 18.058594 17.554688 C 18.085938 17.542969 18.113281 17.535156 18.140625 17.527344 C 18.207031 17.507812 18.273438 17.492188 18.34375 17.480469 C 18.371094 17.476562 18.398438 17.46875 18.425781 17.464844 C 18.519531 17.453125 18.617188 17.441406 18.710938 17.441406 C 18.789062 17.441406 18.863281 17.449219 18.9375 17.457031 C 18.976562 17.460938 19.015625 17.46875 19.058594 17.476562 C 19.089844 17.480469 19.121094 17.484375 19.152344 17.492188 C 19.207031 17.503906 19.257812 17.519531 19.3125 17.539062 C 19.324219 17.542969 19.339844 17.546875 19.351562 17.550781 C 19.414062 17.570312 19.480469 17.597656 19.539062 17.625 C 19.800781 17.742188 20.035156 17.914062 20.226562 18.132812 L 20.335938 18.257812 L 17.089844 18.257812 C 17.089844 18.253906 17.09375 18.253906 17.09375 18.25 C 17.101562 18.242188 17.109375 18.230469 17.117188 18.222656 Z M 22.34375 19.070312 L 21.457031 20.3125 C 21.105469 20.808594 20.527344 21.105469 19.917969 21.105469 L 3.269531 21.105469 C 2.660156 21.105469 2.082031 20.808594 1.726562 20.3125 L 0.839844 19.070312 Z M 22.382812 14.636719 C 22.160156 15.6875 21.554688 16.59375 20.574219 17.335938 C 20.554688 17.316406 20.53125 17.300781 20.511719 17.28125 C 20.421875 17.210938 20.332031 17.144531 20.234375 17.082031 C 20.1875 17.050781 20.136719 17.019531 20.085938 16.992188 C 20.035156 16.964844 19.984375 16.933594 19.929688 16.910156 C 19.839844 16.863281 19.742188 16.828125 19.644531 16.792969 C 19.605469 16.777344 19.566406 16.765625 19.527344 16.753906 C 19.414062 16.71875 19.300781 16.691406 19.183594 16.671875 C 19.160156 16.667969 19.132812 16.664062 19.109375 16.660156 C 18.976562 16.640625 18.84375 16.628906 18.710938 16.628906 C 18.570312 16.628906 18.433594 16.640625 18.300781 16.660156 C 18.253906 16.667969 18.210938 16.679688 18.167969 16.6875 C 18.078125 16.707031 17.988281 16.726562 17.902344 16.75 C 17.851562 16.765625 17.804688 16.785156 17.757812 16.800781 C 17.675781 16.828125 17.597656 16.863281 17.519531 16.898438 C 17.472656 16.917969 17.425781 16.941406 17.382812 16.964844 C 17.304688 17.007812 17.230469 17.050781 17.160156 17.101562 C 17.117188 17.125 17.078125 17.148438 17.039062 17.179688 C 16.953125 17.242188 16.871094 17.308594 16.792969 17.382812 C 16.773438 17.398438 16.75 17.414062 16.730469 17.433594 C 16.636719 17.527344 16.546875 17.628906 16.464844 17.734375 C 16.441406 17.765625 16.417969 17.800781 16.394531 17.835938 C 16.351562 17.894531 16.308594 17.953125 16.269531 18.015625 C 16.234375 17.953125 16.191406 17.894531 16.148438 17.835938 C 16.125 17.800781 16.101562 17.765625 16.078125 17.734375 C 15.996094 17.628906 15.90625 17.527344 15.8125 17.433594 C 15.792969 17.417969 15.769531 17.402344 15.75 17.382812 C 15.671875 17.308594 15.589844 17.242188 15.503906 17.179688 C 15.464844 17.148438 15.425781 17.125 15.382812 17.101562 C 15.3125 17.050781 15.238281 17.007812 15.160156 16.964844 C 15.117188 16.941406 15.070312 16.917969 15.023438 16.898438 C 14.945312 16.863281 14.867188 16.828125 14.785156 16.800781 C 14.738281 16.785156 14.691406 16.765625 14.640625 16.75 C 14.554688 16.726562 14.464844 16.707031 14.375 16.6875 C 14.328125 16.679688 14.289062 16.667969 14.242188 16.660156 C 14.109375 16.640625 13.96875 16.628906 13.832031 16.628906 C 13.691406 16.628906 13.554688 16.640625 13.417969 16.660156 C 13.375 16.667969 13.332031 16.679688 13.289062 16.6875 C 13.199219 16.707031 13.109375 16.726562 13.019531 16.75 C 12.972656 16.765625 12.921875 16.785156 12.875 16.800781 C 12.796875 16.828125 12.714844 16.863281 12.640625 16.898438 C 12.59375 16.917969 12.546875 16.941406 12.5 16.964844 C 12.421875 17.007812 12.351562 17.050781 12.277344 17.101562 C 12.238281 17.125 12.195312 17.148438 12.160156 17.179688 C 12.070312 17.242188 11.992188 17.308594 11.910156 17.382812 C 11.890625 17.398438 11.871094 17.414062 11.851562 17.433594 C 11.753906 17.527344 11.667969 17.628906 11.585938 17.734375 C 11.558594 17.765625 11.539062 17.800781 11.515625 17.835938 C 11.472656 17.894531 11.425781 17.953125 11.390625 18.015625 C 11.351562 17.953125 11.308594 17.894531 11.265625 17.835938 C 11.242188 17.800781 11.222656 17.765625 11.195312 17.734375 C 11.113281 17.628906 11.023438 17.527344 10.929688 17.433594 C 10.910156 17.417969 10.886719 17.402344 10.867188 17.382812 C 10.789062 17.308594 10.707031 17.242188 10.621094 17.179688 C 10.582031 17.148438 10.542969 17.125 10.503906 17.101562 C 10.429688 17.050781 10.355469 17.007812 10.28125 16.964844 C 10.234375 16.941406 10.1875 16.917969 10.140625 16.898438 C 10.0625 16.863281 9.984375 16.828125 9.90625 16.800781 C 9.855469 16.785156 9.808594 16.765625 9.761719 16.75 C 9.671875 16.726562 9.582031 16.707031 9.492188 16.6875 C 9.449219 16.679688 9.40625 16.667969 9.363281 16.660156 C 9.226562 16.640625 9.089844 16.628906 8.949219 16.628906 C 8.808594 16.628906 8.671875 16.640625 8.535156 16.660156 C 8.492188 16.667969 8.449219 16.679688 8.40625 16.6875 C 8.316406 16.707031 8.226562 16.726562 8.136719 16.75 C 8.089844 16.765625 8.042969 16.785156 7.992188 16.800781 C 7.914062 16.828125 7.835938 16.863281 7.757812 16.898438 C 7.710938 16.917969 7.664062 16.941406 7.617188 16.964844 C 7.542969 17.007812 7.46875 17.050781 7.394531 17.101562 C 7.355469 17.125 7.316406 17.148438 7.277344 17.179688 C 7.191406 17.242188 7.109375 17.308594 7.03125 17.382812 C 7.011719 17.398438 6.988281 17.414062 6.96875 17.433594 C 6.875 17.527344 6.785156 17.628906 6.703125 17.734375 C 6.675781 17.765625 6.65625 17.800781 6.632812 17.835938 C 6.589844 17.894531 6.546875 17.953125 6.507812 18.015625 C 6.472656 17.953125 6.425781 17.894531 6.386719 17.835938 C 6.363281 17.800781 6.339844 17.765625 6.3125 17.734375 C 6.230469 17.628906 6.144531 17.527344 6.046875 17.433594 C 6.027344 17.417969 6.007812 17.402344 5.988281 17.382812 C 5.90625 17.308594 5.828125 17.242188 5.738281 17.179688 C 5.703125 17.148438 5.660156 17.125 5.621094 17.101562 C 5.546875 17.050781 5.476562 17.007812 5.398438 16.964844 C 5.351562 16.941406 5.304688 16.917969 5.257812 16.898438 C 5.183594 16.863281 5.105469 16.828125 5.023438 16.800781 C 4.976562 16.785156 4.929688 16.765625 4.878906 16.75 C 4.789062 16.726562 4.703125 16.707031 4.609375 16.6875 C 4.566406 16.679688 4.523438 16.667969 4.480469 16.660156 C 4.34375 16.640625 4.207031 16.628906 4.066406 16.628906 C 3.929688 16.628906 3.796875 16.640625 3.664062 16.660156 C 3.628906 16.667969 3.59375 16.671875 3.558594 16.679688 C 3.457031 16.699219 3.355469 16.722656 3.257812 16.75 C 3.226562 16.761719 3.191406 16.769531 3.160156 16.78125 C 3.042969 16.820312 2.929688 16.867188 2.820312 16.921875 C 2.808594 16.925781 2.800781 16.929688 2.792969 16.933594 C 2.789062 16.933594 2.78125 16.9375 2.777344 16.9375 C 2.550781 16.558594 2.441406 16.132812 2.441406 15.648438 C 2.441406 15.355469 2.472656 15.0625 2.53125 14.773438 C 2.660156 14.15625 2.648438 13.492188 2.5 12.746094 C 2.460938 12.558594 2.441406 12.359375 2.441406 12.164062 C 2.441406 11.101562 2.761719 8.621094 5.75 8.621094 C 5.851562 8.621094 5.949219 8.636719 6.046875 8.664062 C 6.03125 8.699219 6.011719 8.730469 5.996094 8.765625 C 5.933594 8.894531 5.863281 9.023438 5.789062 9.15625 C 5.757812 9.210938 5.730469 9.265625 5.695312 9.324219 C 5.589844 9.507812 5.476562 9.691406 5.355469 9.882812 C 5.238281 10.058594 5.109375 10.246094 4.976562 10.4375 C 4.480469 11.148438 3.941406 11.929688 3.738281 12.757812 C 3.695312 12.921875 3.664062 13.085938 3.65625 13.25 C 3.644531 13.394531 3.648438 13.542969 3.664062 13.6875 C 3.753906 14.523438 4.234375 15.1875 4.914062 15.417969 C 4.980469 15.441406 5.058594 15.460938 5.144531 15.476562 C 5.152344 15.476562 5.15625 15.480469 5.164062 15.480469 C 5.25 15.492188 5.339844 15.503906 5.441406 15.503906 C 5.445312 15.503906 5.449219 15.503906 5.453125 15.503906 C 5.457031 15.503906 5.460938 15.503906 5.46875 15.503906 C 5.527344 15.503906 5.59375 15.5 5.660156 15.492188 C 5.664062 15.492188 5.667969 15.492188 5.675781 15.492188 C 5.734375 15.484375 5.800781 15.472656 5.863281 15.457031 C 5.882812 15.453125 5.898438 15.449219 5.914062 15.449219 C 5.984375 15.429688 6.054688 15.410156 6.128906 15.386719 C 6.132812 15.382812 6.136719 15.382812 6.140625 15.382812 C 6.21875 15.355469 6.296875 15.320312 6.378906 15.285156 C 6.398438 15.273438 6.417969 15.265625 6.4375 15.253906 C 6.503906 15.222656 6.574219 15.183594 6.644531 15.144531 C 6.664062 15.132812 6.679688 15.121094 6.699219 15.109375 C 6.785156 15.058594 6.875 15 6.964844 14.933594 C 6.980469 14.917969 7 14.90625 7.015625 14.890625 C 7.089844 14.835938 7.167969 14.773438 7.246094 14.703125 C 7.269531 14.683594 7.296875 14.660156 7.324219 14.636719 C 7.417969 14.550781 7.515625 14.460938 7.613281 14.355469 C 7.769531 14.195312 7.914062 14.035156 8.058594 13.875 C 8.097656 13.832031 8.132812 13.792969 8.167969 13.75 C 8.285156 13.617188 8.394531 13.488281 8.5 13.359375 C 8.523438 13.328125 8.550781 13.296875 8.574219 13.269531 C 8.699219 13.109375 8.820312 12.949219 8.9375 12.792969 C 8.949219 12.773438 8.964844 12.753906 8.976562 12.734375 C 9.078125 12.59375 9.171875 12.453125 9.261719 12.316406 C 9.277344 12.289062 9.296875 12.257812 9.316406 12.230469 C 9.511719 11.917969 9.679688 11.613281 9.816406 11.3125 C 9.832031 11.285156 9.839844 11.261719 9.851562 11.234375 C 9.914062 11.101562 9.964844 10.96875 10.011719 10.839844 C 10.019531 10.820312 10.027344 10.800781 10.035156 10.785156 C 10.085938 10.636719 10.132812 10.488281 10.171875 10.339844 C 10.171875 10.335938 10.171875 10.335938 10.171875 10.332031 C 10.632812 10.113281 10.980469 9.796875 11.222656 9.578125 C 11.269531 9.53125 11.316406 9.488281 11.359375 9.453125 C 12.996094 8.050781 14.660156 7.433594 16.222656 7.632812 C 15.605469 8.03125 14.90625 8.320312 14.132812 8.484375 C 13.261719 8.664062 12.472656 9.144531 11.910156 9.835938 C 10.613281 11.425781 10.792969 13.835938 12.3125 15.207031 C 13.039062 15.867188 13.960938 16.222656 14.933594 16.222656 C 15.03125 16.222656 15.128906 16.21875 15.226562 16.210938 C 16.300781 16.132812 17.273438 15.632812 17.960938 14.800781 C 18.46875 14.179688 18.773438 13.429688 18.839844 12.632812 C 18.921875 11.652344 19.238281 10.691406 19.773438 9.808594 C 20.910156 11.089844 22.675781 13.230469 22.382812 14.636719 Z M 23.097656 4.554688 C 22.996094 4.710938 22.832031 4.804688 22.648438 4.8125 C 22.171875 4.835938 21.757812 5.03125 21.480469 5.367188 L 20.363281 6.726562 C 20.1875 6.496094 19.953125 6.308594 19.65625 6.167969 L 20.789062 4.792969 C 21.0625 4.460938 21.175781 4.015625 21.109375 3.542969 C 21.082031 3.363281 21.144531 3.183594 21.277344 3.054688 C 21.449219 2.886719 21.726562 2.847656 21.941406 2.960938 C 22.054688 3.023438 22.140625 3.113281 22.191406 3.230469 C 22.292969 3.46875 22.5 3.636719 22.753906 3.691406 C 22.875 3.71875 22.980469 3.785156 23.0625 3.886719 C 23.214844 4.074219 23.230469 4.355469 23.097656 4.554688 Z M 23.097656 4.554688"/>
</svg>
