<svg xmlns="http://www.w3.org/2000/svg" width="32" height="32" viewBox="0 0 24 24">
    <path d="M20.188.344L19.867 0 8.491 11.375l.684 2.277c.031.274-.168.559-.461.657l-.727.234-.215.672c-.152.469-.476.805-.89.933-.149 0-.586-.285-.824-.441-.465-.305-.872-.57-1.254-.516l-.149.02L0 19.867l.34.32C3.063 22.735 6.5 24 9.938 24c3.59 0 7.175-1.383 9.925-4.137a13.977 13.977 0 0 0 .325-19.52zM5.563 16.469c.558.36 1.082.703 1.566.55.715-.222 1.266-.78 1.508-1.527l.074-.23.285-.094c.727-.238 1.188-.961 1.07-1.684l-.55-1.851 7.945-7.945c1.668 1.664 2.574 3.734 2.621 6.011.055 2.602-1.074 5.254-3.102 7.281-2.027 2.028-4.68 3.165-7.285 3.102-2.273-.047-4.343-.953-6.008-2.621l1.329-1.328c.156.078.39.23.546.336zm13.66 2.754a13.074 13.074 0 0 1-17.914.617l1.746-1.746c1.816 1.812 4.148 2.843 6.625 2.894.066 0 .133.004.199.004 2.785 0 5.594-1.222 7.742-3.37 2.2-2.2 3.43-5.099 3.367-7.946-.05-2.477-1.082-4.805-2.894-6.621l1.746-1.746a13.074 13.074 0 0 1-.617 17.914zm0 0M3.371 8.348a.677.677 0 0 1-.68.675.677.677 0 1 1 0-1.355c.375 0 .68.3.68.68zm0 0"/>
    <path d="M8.805 18.313a.68.68 0 1 1-1.36-.001.68.68 0 0 1 1.36 0zm0 0M13.094 12.258c0 .375-.301.676-.68.676a.674.674 0 0 1-.676-.676c0-.38.301-.68.676-.68.379 0 .68.3.68.68zm0 0M15.34 10.012c0 .379-.305.68-.68.68-.379 0-.68-.301-.68-.68a.68.68 0 0 1 1.36 0zm0 0M14.055 17.703a.68.68 0 1 1-1.358-.001.68.68 0 0 1 1.358.001zm0 0M16.3 15.46a.68.68 0 1 1-1.36 0 .68.68 0 0 1 1.36 0zm0 0M18.543 13.219a.677.677 0 0 1-.68.676.677.677 0 1 1 0-1.356c.375 0 .68.3.68.68zm0 0M17.582 7.77a.68.68 0 1 1-1.36-.001.68.68 0 0 1 1.36 0zm0 0M11.492 17.063a.678.678 0 1 1-1.355 0 .677.677 0 1 1 1.355 0zm0 0M13.79 14.688a.68.68 0 1 1-1.361-.001.68.68 0 0 1 1.36 0zm0 0M16.055 12.422a.68.68 0 1 1-1.36-.001.68.68 0 0 1 1.36 0zm0 0M4.73 12.875a.68.68 0 1 1-1.36-.001.68.68 0 0 1 1.36.001zm0 0M7.445 9.25c0 .379-.3.68-.68.68a.678.678 0 1 1 0-1.356c.38 0 .68.301.68.676zm0 0M18.223 10.332c0 .379-.305.68-.68.68a.68.68 0 1 1 .68-.68zm0 0"/>
</svg>
