<svg xmlns="http://www.w3.org/2000/svg" width="32" height="32" viewBox="0 0 24 24">
    <path d="M18.824 14.285c-.039-.078-.082-.117-.12-.16-.04-.078-.079-.16-.161-.238-.48-.645-.922-1.164-.922-2.246V7.023v-.722c0-1.766.04-3.41-1.363-4.692C15.172.605 13.449.004 11.602.004h-.641c-3.492.2-5.82 1.965-6.379 4.812-.121.524.16.965.719 1.086h.043l2.886.36h.122c.523-.078.761-.52.843-.922.2-.922.922-1.567 1.805-1.567h.2c.484 0 .964.243 1.245.645.32.48.32 1.203.32 1.844v.16c-.12 0-.28.043-.44.043-.442.039-1.005.117-1.446.16-1.164.16-2.406.36-3.41.84-2.168.883-3.41 2.808-3.41 5.219 0 .64.12 1.242.28 1.804.602 1.965 2.329 3.168 4.575 3.168.762 0 1.484-.078 2.168-.16.922-.281 1.723-.762 2.605-1.644v.039c.403.523.684.925 1.485 1.605.043.04.082.082.121.082.402.16.8.121 1.125-.121.64-.562 1.723-1.484 2.246-1.965.16-.16.52-.523.16-1.207zm-.601.402c-.563.481-1.606 1.407-2.246 1.926-.082.04-.16.04-.282 0-.722-.601-.922-.922-1.285-1.402a6.213 6.213 0 0 0-.281-.402c-.04-.082-.16-.16-.281-.16a.449.449 0 0 0-.32.12c-.923 1.004-1.684 1.524-2.567 1.805a8.604 8.604 0 0 1-2.008.242c-1.926 0-3.289-.964-3.812-2.609a5.314 5.314 0 0 1-.239-1.566c0-2.086 1.043-3.692 2.93-4.454.922-.44 2.086-.64 3.168-.8.441-.043 1.004-.121 1.445-.16.36-.043.64-.043.801-.082.203-.04.363-.2.363-.403v-.48c0-.723 0-1.645-.441-2.328-.441-.602-1.164-1-1.926-1h-.203c-1.242 0-2.285.882-2.566 2.207-.04.117-.082.238-.16.277l-2.77-.36c-.078 0-.121-.038-.121-.038v-.082C6.066 1.527 9.234.843 11.039.726h.602c1.644 0 3.171.52 4.132 1.363 1.125 1.082 1.125 2.488 1.086 4.094v5.293c0 1.367.559 2.09 1.082 2.73.082.078.16.16.2.242l.082.078c.039.082.039.121.039.121zm0 0"/>
    <path d="M13.246 8.79c-.64 0-1.562.042-2.328.202h-.04c-1.644.48-2.487 1.563-2.487 3.168 0 1.524.882 2.567 2.207 2.567.12 0 .242-.04.363-.079h.16c.844-.199 1.484-.722 1.887-1.523.64-1.086.64-2.047.64-3.172v-.762c0-.242-.16-.402-.402-.402zm-.441 1.124c0 1.121 0 1.887-.563 2.809-.277.601-.762.96-1.324 1.12-.04 0-.078.044-.16.044-.04.039-.117.039-.16.039-1.043 0-1.403-.922-1.403-1.766 0-1.285.602-2.008 1.887-2.406.48-.082 1.043-.16 1.723-.203zm0 0M23.758 16.895l-.078-.079c-.121-.203-.282-.242-.442-.324-.363-.117-.883-.199-1.523-.199-.203 0-.324 0-.606.039h-.16c-.039 0-.078.043-.117.043h-.121c-.121 0-.281 0-.363.04-.762.16-1.282.519-1.606.76-.117.083-.48.321-.48.802 0 .242.12.523.32.683.121.121.242.16.402.2l-.28.203c-2.247 1.042-4.735 1.644-7.142 1.683-2.289 0-4.496-.48-6.18-1.324-.28-.16-.562-.32-.882-.442-.8-.359-1.484-.8-2.008-1.164-.039 0-.039-.039-.078-.039-.281-.12-.48-.242-.723-.359l-.12-.082a1.624 1.624 0 0 0-.563-.121c-.238 0-.52.12-.68.281-.203.203-.32.442-.32.684-.043.32.117.601.36.8 2.808 2.45 6.179 5.016 10.792 5.016.04 0 .121 0 .082-.078h.078c2.89-.043 6.059-1.004 8.547-2.57.121-.078.48-.282.883-.563-.04.082-.04.203-.04.281 0 .243.08.563.282.723.117.121.36.281.64.281.282 0 .524-.199.684-.32C23.598 20.586 24 18.781 24 17.86v-.16c0-.325-.082-.563-.242-.805zm-.442 1.003c0 .723-.32 2.329-1.402 3.29a.657.657 0 0 0-.16.12s-.04-.038-.082-.081c-.04-.04-.04-.079-.04-.118v-.082c.122-.242.282-.64.403-1.082.04-.16-.043-.32-.16-.441a.507.507 0 0 0-.484 0 70.454 70.454 0 0 1-1.883 1.242c-2.367 1.484-5.38 2.367-8.106 2.45h-.242c-4.332 0-7.582-2.489-10.312-4.856-.04-.04-.078-.082-.078-.16l.078-.082s.082-.04.12-.04c.04 0 .122 0 .16.04l.122.082c.242.12.48.28.8.402.563.36 1.286.8 2.13 1.203.32.117.601.238.883.399 1.804.882 4.132 1.406 6.539 1.406 2.527-.04 5.136-.64 7.582-1.688 0-.039.043-.039.043-.039l1.765-1.12c.16-.122.2-.325.16-.485-.043-.16-.203-.281-.402-.281-.16 0-.281.043-.441.043l-.36.039c-.242 0-.441.039-.605.082h-.04c-.038 0-.077-.043-.077-.043v-.04c0-.038 0-.081.16-.199.16-.12.64-.441 1.281-.601.082 0 .203-.043.281-.043.082 0 .16 0 .242-.04h.122c.199-.038.359-.038.519-.038.523 0 1.004.078 1.246.16.121.039.121.039.16.078.04.121.078.203.078.363zm0 0"/>
</svg>
