<svg xmlns="http://www.w3.org/2000/svg" width="32" height="32" viewBox="0 0 24 24">
    <path d="M 22.160156 0 L 1.839844 0 C 0.839844 0 0 0.839844 0 1.839844 L 0 22.160156 C 0 23.160156 0.839844 24 1.839844 24 L 22.160156 24 C 23.160156 24 24 23.160156 24 22.160156 L 24 1.839844 C 24 0.839844 23.160156 0 22.160156 0 Z M 23.199219 22.160156 C 23.199219 22.71875 22.71875 23.199219 22.160156 23.199219 L 1.839844 23.199219 C 1.28125 23.199219 0.800781 22.71875 0.800781 22.160156 L 0.800781 1.839844 C 0.800781 1.28125 1.28125 0.800781 1.839844 0.800781 L 22.160156 0.800781 C 22.71875 0.800781 23.199219 1.28125 23.199219 1.839844 Z M 23.199219 22.160156"/>
    <path d="M 16.800781 10 L 16.800781 8.398438 C 16.800781 6 14.359375 4.398438 12.761719 4.398438 L 9.121094 4.398438 C 6.359375 4.398438 4.398438 6.398438 4.398438 9.121094 L 4.398438 14.878906 C 4.398438 17.601562 6.359375 19.601562 9.121094 19.601562 L 14.878906 19.601562 C 17.601562 19.601562 19.601562 17.601562 19.601562 14.878906 L 19.601562 13.441406 C 19.601562 11.480469 19.121094 10.121094 16.800781 10 Z M 18.839844 14.878906 C 18.800781 17.199219 17.199219 18.800781 14.921875 18.800781 L 9.121094 18.800781 C 6.800781 18.800781 5.199219 17.199219 5.199219 14.878906 L 5.199219 9.121094 C 5.199219 6.800781 6.800781 5.199219 9.121094 5.199219 L 12.761719 5.199219 C 14.078125 5.199219 16.039062 6.558594 16.039062 8.398438 L 16.039062 10.800781 L 16.441406 10.800781 C 18.320312 10.800781 18.839844 11.398438 18.839844 13.441406 Z M 18.839844 14.878906"/>
    <path d="M9.398438 10.800781L12.601562 10.800781C13.359375 10.800781 14 10.160156 14 9.398438 14 8.640625 13.359375 8 12.601562 8L9.398438 8C8.640625 8 8 8.640625 8 9.398438 8 10.160156 8.640625 10.800781 9.398438 10.800781zM9.398438 8.800781L12.601562 8.800781C12.921875 8.800781 13.199219 9.078125 13.199219 9.398438 13.199219 9.71875 12.921875 10 12.601562 10L9.398438 10C9.078125 10 8.800781 9.71875 8.800781 9.398438 8.800781 9.078125 9.078125 8.800781 9.398438 8.800781zM14.601562 13.199219L9.398438 13.199219C8.640625 13.199219 8 13.839844 8 14.601562 8 15.359375 8.640625 16 9.398438 16L14.601562 16C15.359375 16 16 15.359375 16 14.601562 16 13.839844 15.359375 13.199219 14.601562 13.199219zM14.601562 15.199219L9.398438 15.199219C9.078125 15.199219 8.800781 14.921875 8.800781 14.601562 8.800781 14.28125 9.078125 14 9.398438 14L14.601562 14C14.921875 14 15.199219 14.28125 15.199219 14.601562 15.199219 14.921875 14.921875 15.199219 14.601562 15.199219zM14.601562 15.199219"/>
</svg>
