<svg xmlns="http://www.w3.org/2000/svg" width="32" height="32" viewBox="0 0 24 24">
    <path d="M5.602 6.398C2.52 6.398 0 8.922 0 12c0 3.078 2.52 5.602 5.602 5.602 3.078 0 5.597-2.524 5.597-5.602 0-3.078-2.52-5.602-5.597-5.602zm0 10.403C2.96 16.8.8 14.64.8 12c0-2.64 2.16-4.8 4.8-4.8 2.637 0 4.797 2.16 4.797 4.8 0 2.64-2.16 4.8-4.796 4.8zm0 0M18.398 6.398c-3.078 0-5.597 2.524-5.597 5.602 0 3.078 2.52 5.602 5.597 5.602C21.48 17.602 24 15.078 24 12c0-3.078-2.52-5.602-5.602-5.602zm0 10.403c-2.636 0-4.796-2.16-4.796-4.801 0-2.64 2.16-4.8 4.796-4.8C21.04 7.2 23.2 9.36 23.2 12c0 2.64-2.16 4.8-4.8 4.8zm0 0"/>
</svg>
