<svg xmlns="http://www.w3.org/2000/svg" width="32" height="32" viewBox="0 0 24 24">
    <path d="M 22.25 11.066406 L 17.328125 8.21875 C 17.300781 8.203125 17.273438 8.195312 17.246094 8.1875 L 12.488281 5.453125 L 1.953125 0.0429688 C 1.914062 0.0273438 1.875 0.015625 1.835938 0.0078125 C 1.792969 0 1.746094 -0.00390625 1.703125 0.00390625 C 1.644531 0.0117188 1.589844 0.0273438 1.542969 0.0585938 C 1.410156 0.113281 1.34375 0.261719 1.34375 0.410156 L 1.34375 23.59375 C 1.34375 23.757812 1.425781 23.878906 1.546875 23.960938 C 1.585938 24 1.667969 24 1.75 24 C 1.832031 24 1.871094 24 1.953125 23.960938 L 12.488281 18.101562 L 17.117188 15.417969 C 17.121094 15.417969 17.121094 15.417969 17.125 15.417969 C 17.207031 15.417969 17.246094 15.375 17.328125 15.296875 C 17.363281 15.285156 17.394531 15.265625 17.421875 15.242188 L 22.25 12.449219 C 22.496094 12.324219 22.65625 12.042969 22.65625 11.757812 C 22.65625 11.472656 22.496094 11.226562 22.25 11.066406 Z M 2.15625 1.34375 L 13.335938 11.792969 L 2.15625 22.597656 Z M 16.472656 8.664062 L 15.054688 10.105469 L 13.949219 11.226562 L 9.050781 6.671875 L 4.195312 2.140625 L 12.082031 6.144531 Z M 12.082031 17.410156 L 4.265625 21.722656 L 11.675781 14.558594 L 13.949219 12.367188 L 16.453125 14.902344 Z M 17.195312 14.464844 L 14.558594 11.796875 L 17.207031 9.113281 L 21.84375 11.796875 Z M 17.195312 14.464844"/>
</svg>
