<svg xmlns="http://www.w3.org/2000/svg" width="32" height="32" viewBox="0 0 24 24">
    <path d="M14.96 10H7.2v3.602h3.921C10.56 15.078 9.321 16 7.68 16c-2.16 0-4.078-1.879-4.078-4S5.52 8 7.68 8c1.039 0 1.922.32 2.558.96l.282.278 2.68-2.68-.321-.277c-1.238-1.242-3.04-1.883-5.2-1.883C3.36 4.398 0 7.718 0 12c0 4.281 3.36 7.602 7.68 7.602 3.96 0 6.8-2.32 7.32-6.082.078-.48.121-1 .121-1.52 0-.602-.043-1.2-.121-1.68zm-.722 3.398c-.52 3.403-2.957 5.403-6.558 5.403C3.84 18.8.8 15.8.8 12c0-3.8 3.04-6.8 6.88-6.8 1.8 0 3.242.48 4.36 1.359L10.48 8.12C9.762 7.52 8.8 7.2 7.68 7.2 5.04 7.2 2.8 9.4 2.8 12c0 2.602 2.24 4.8 4.84 4.8 2.16 0 3.88-1.402 4.36-3.519l.121-.48H8v-2h6.281c.04.36.078.8.078 1.199 0 .48-.039.96-.12 1.398zm0 0M21.602 10V7.602H18.8V10h-2.403v2.8h2.403v2.4h2.8v-2.4H24V10zm1.597 2h-2.398v2.398h-1.2V12H17.2v-1.2h2.403V8.399H20.8v2.403h2.398zm0 0"/>
</svg>
