<svg xmlns="http://www.w3.org/2000/svg" width="32" height="32" viewBox="0 0 24 24">
    <path d="M20.078 3.281C17.961 1.121 15.2 0 11.961 0 8.68 0 5.92 1.121 3.84 3.32 1.762 5.48.719 8.398.719 11.922c0 3.2 1.082 6.078 3.16 8.437C6 22.801 8.719 24 11.96 24c3.238 0 6-1.2 8.117-3.64 2.121-2.4 3.203-5.239 3.203-8.481 0-3.52-1.082-6.399-3.203-8.598zM19.48 19.84c-1.96 2.238-4.48 3.36-7.52 3.36-3 0-5.519-1.122-7.48-3.36-1.96-2.238-2.96-4.918-2.96-7.918 0-3.32 1-6.043 2.921-8.082C6.36 1.84 8.921.8 11.961.8 15 .8 17.52 1.84 19.52 3.88c1.96 2 2.96 4.723 2.96 8.043 0 3-1 5.68-3 7.918zm0 0"/>
    <path d="M15.64 5.559c-.28-.957-.761-1.72-1.359-2.239-.64-.558-1.441-.84-2.36-.84-.921 0-1.722.282-2.32.801C9 3.801 8.56 4.56 8.282 5.52c-.242.921-.441 1.878-.52 2.8-.081.918-.12 2.04-.12 3.36 0 .8 0 1.52.039 2.082.039.558.082 1.238.16 2.039.039.8.2 1.52.36 2.078.198.562.44 1.121.722 1.68.316.601.719 1.043 1.238 1.363.52.316 1.121.476 1.8.476.642 0 1.278-.117 1.72-.476.52-.32.96-.762 1.28-1.363.278-.559.52-1.118.72-1.68.199-.559.36-1.238.441-2.078.078-.801.16-1.48.16-2.082.04-.559.04-1.239.04-2.04 0-1.28-.04-2.398-.122-3.32a13.736 13.736 0 0 0-.558-2.8zm-.081 8.12c0 .56-.079 1.282-.16 2.04A9.871 9.871 0 0 1 15 17.64c-.2.52-.398 1.039-.68 1.558-.242.48-.558.801-.96 1.04-.4.241-.88.363-1.4.363-.519 0-.96-.122-1.358-.364A2.394 2.394 0 0 1 9.64 19.2c-.282-.48-.48-1-.641-1.52-.16-.519-.281-1.16-.36-1.917-.081-.801-.12-1.48-.16-2.043-.039-.559-.039-1.239-.039-2.04 0-1.28.04-2.398.118-3.28.12-.88.28-1.758.52-2.637.241-.84.6-1.48 1.081-1.883.442-.399 1.04-.598 1.8-.598.72 0 1.321.2 1.88.559.48.441.879 1.082 1.12 1.879.24.883.438 1.761.52 2.68.079.921.122 2 .122 3.242 0 .8-.043 1.48-.043 2.039zm0 0"/>
</svg>
