<svg xmlns="http://www.w3.org/2000/svg" width="32" height="32" viewBox="0 0 24 24">
    <path d="M 9.289062 10.960938 L 9.367188 11 C 9.367188 11 9.6875 11.042969 10.128906 11.042969 C 10.726562 11.042969 11.609375 11 12.488281 10.800781 C 14.726562 10.320312 16.007812 9.160156 16.246094 7.480469 C 16.285156 7.441406 16.527344 6.28125 15.886719 5.28125 C 15.488281 4.640625 14.808594 4.242188 13.886719 4.082031 C 13.445312 4.003906 11.847656 3.800781 10.847656 3.960938 C 9.6875 4.164062 9.328125 5.363281 9.328125 5.441406 L 8.449219 9.203125 C 8.40625 9.320312 8.289062 9.800781 8.488281 10.28125 C 8.609375 10.480469 8.808594 10.800781 9.289062 10.960938 Z M 9.207031 9.441406 L 10.128906 5.640625 C 10.128906 5.640625 10.367188 4.882812 11.007812 4.761719 C 11.808594 4.640625 13.328125 4.800781 13.765625 4.882812 C 14.445312 5.003906 14.96875 5.28125 15.246094 5.722656 C 15.726562 6.402344 15.527344 7.28125 15.527344 7.320312 C 15.085938 10.480469 10.046875 10.242188 9.488281 10.203125 C 9.207031 10.121094 9.167969 9.960938 9.167969 9.800781 C 9.167969 9.601562 9.207031 9.441406 9.207031 9.441406 Z M 9.207031 9.441406"/>
    <path d="M 21.671875 3.269531 C 21.578125 3.113281 21.480469 2.957031 21.367188 2.804688 C 20.007812 0.964844 17.328125 0.00390625 13.488281 0.00390625 L 6.726562 0.00390625 C 6.128906 -0.0351562 4.929688 0.28125 4.570312 1.722656 L 0.128906 20.359375 C 0.128906 20.394531 0.113281 20.535156 0.128906 20.71875 C 0.128906 20.71875 0.0898438 20.878906 0.128906 21.039062 L 0.128906 22.800781 C 0.128906 23.441406 0.648438 24 1.328125 24 L 6.488281 24 C 6.527344 24 6.527344 24 6.566406 24 C 7.128906 24 8.128906 23.640625 8.367188 22.359375 L 9.367188 18.082031 C 9.40625 18 9.648438 17.160156 10.648438 17.160156 L 10.847656 17.160156 C 17.847656 17.242188 22.40625 14.921875 23.726562 10.683594 C 24.230469 9.09375 23.570312 5.285156 21.671875 3.269531 Z M 5.367188 1.882812 C 5.609375 0.84375 6.488281 0.804688 6.6875 0.804688 L 13.527344 0.84375 C 17.085938 0.84375 19.527344 1.683594 20.726562 3.324219 C 20.765625 3.375 20.804688 3.429688 20.84375 3.488281 C 20.855469 3.511719 20.867188 3.539062 20.886719 3.5625 C 21.714844 4.867188 21.667969 6.410156 21.472656 7.480469 C 21.402344 7.855469 21.316406 8.171875 21.246094 8.402344 C 20.007812 12.28125 15.726562 14.402344 9.128906 14.320312 L 8.929688 14.320312 C 7.609375 14.320312 7.007812 15.320312 6.886719 15.839844 L 5.886719 20.121094 C 5.6875 21.199219 4.726562 21.199219 4.609375 21.199219 L 1.570312 21.199219 C 1.328125 21.199219 1.167969 21.160156 1.050781 21.039062 C 0.929688 20.878906 0.929688 20.601562 0.929688 20.519531 Z M 22.964844 10.402344 C 21.726562 14.320312 17.527344 16.359375 10.847656 16.320312 L 10.648438 16.320312 C 9.328125 16.320312 8.726562 17.320312 8.609375 17.839844 L 7.609375 22.121094 C 7.40625 23.199219 6.648438 23.199219 6.527344 23.199219 L 1.328125 23.199219 C 1.128906 23.199219 0.929688 23.039062 0.929688 22.800781 L 0.929688 21.921875 C 1.128906 21.960938 1.328125 22 1.527344 22 L 4.527344 22 C 4.628906 22.007812 4.746094 22.003906 4.871094 21.988281 C 5.519531 21.910156 6.433594 21.488281 6.648438 20.242188 L 7.648438 16 C 7.6875 15.921875 7.929688 15.082031 8.929688 15.082031 L 9.128906 15.082031 C 16.085938 15.160156 20.6875 12.839844 22.007812 8.601562 C 22.171875 8.0625 22.414062 7.089844 22.390625 5.984375 C 23.050781 7.6875 23.242188 9.570312 22.964844 10.402344 Z M 22.964844 10.402344"/>
</svg>
