<svg xmlns="http://www.w3.org/2000/svg" width="32" height="32" viewBox="0 0 24 24">
    <path d="M12 0C5.398 0 0 5.398 0 12c0 4.762 2.84 9.078 7.2 11l.519.281-.04-.64c-.038-1 .04-1.84.2-2.563.2-.957 1.48-6.316 1.48-6.316l.04-.16-.079-.122S9 12.84 9 11.84c0-1.442.8-2.602 1.84-2.602 1.082 0 1.16 1.043 1.16 1.364 0 .597-.281 1.437-.559 2.359-.16.52-.363 1.078-.48 1.64-.16.68 0 1.36.398 1.88a2.43 2.43 0 0 0 1.84.84c2.32 0 4.082-2.801 4.082-6.56 0-2.921-2.082-4.84-5.242-4.84-3.48 0-6.121 2.56-6.121 5.958 0 1 .281 1.84.844 2.52.117.12.117.16.117.16 0 .043 0 .043-.04.16v.082c-.038.238-.16.64-.198.84v.039H6.6c-1.363-.559-2.12-2.04-2.12-4.078 0-4.723 4.597-6.84 7.878-6.84 4.36 0 6.961 3.16 6.961 6.238 0 4.441-2.398 7.559-5.84 7.559-1.16 0-2.16-.637-2.48-1.239l-.48-.922-.239 1s-.68 2.641-.8 3.16c-.2.68-.56 1.481-1.122 2.364l-.28.437.523.16C9.719 23.84 10.84 24 12 24c6.602 0 12-5.398 12-12S18.602 0 12 0zm0 23.2c-.922 0-1.8-.122-2.68-.321.442-.758.758-1.48.961-2.04.117-.359.438-1.6.64-2.44.638.562 1.68.96 2.638.96 3.84 0 6.64-3.52 6.64-8.359 0-3.441-2.918-7.04-7.758-7.04-3.32 0-5.363 1.36-6.48 2.52-1.402 1.399-2.2 3.282-2.2 5.122 0 2.32 1 4.117 2.637 4.796.243.122.48.122.68 0 .242-.117.363-.32.442-.558.039-.2.12-.64.199-.88v-.081c.12-.438.043-.68-.239-1-.48-.52-.68-1.16-.68-2 0-3.36 2.759-5.16 5.321-5.16 2.758 0 4.438 1.562 4.438 4.043 0 3.277-1.399 5.758-3.278 5.758-.48 0-.922-.2-1.203-.56a1.397 1.397 0 0 1-.238-1.198 23.78 23.78 0 0 1 .441-1.602c.32-.96.598-1.879.598-2.601 0-1.278-.8-2.16-1.957-2.16-1.48 0-2.64 1.48-2.64 3.402 0 .918.238 1.597.359 1.879-.2.84-1.282 5.36-1.48 6.199-.161.601-.24 1.32-.24 2.121C3.2 20.078.802 16.238.802 12 .8 5.84 5.84.8 12 .8S23.2 5.84 23.2 12c0 6.16-5.04 11.2-11.2 11.2zm0 0"/>
</svg>
