<svg xmlns="http://www.w3.org/2000/svg" width="32" height="32" viewBox="0 0 24 24">
    <path d="M11.121 8.398c0-.878-.723-1.597-1.601-1.597-.88 0-1.598.719-1.598 1.597C7.922 9.281 8.64 10 9.52 10c.878 0 1.601-.719 1.601-1.602zm-2.402 0a.801.801 0 0 1 1.601 0 .802.802 0 0 1-1.601 0zm0 0M14.32 6.8c-.879 0-1.601.72-1.601 1.598 0 .883.722 1.602 1.601 1.602.88 0 1.602-.719 1.602-1.602 0-.878-.723-1.597-1.602-1.597zm0 2.4c-.441 0-.8-.36-.8-.802a.801.801 0 0 1 1.601 0c0 .442-.36.801-.8.801zm0 0M9.238 10.922a.385.385 0 0 0 0 .558c.563.56 1.602.918 2.684.918 1.078 0 2.117-.359 2.68-.918a.385.385 0 0 0 0-.558.39.39 0 0 0-.563 0c-.32.316-1.039.68-2.117.68-1.082 0-1.8-.364-2.121-.68a.39.39 0 0 0-.563 0zm0 0"/>
    <path d="M18.48 4.719a2.4 2.4 0 0 0-1.28.402c-1.434-.855-3.169-1.406-4.731-1.512L13.28.84l2.297.677c-.039.156-.058.316-.058.484 0 1.121.878 2 2 2 1.12 0 2-.879 2-2s-.88-2-2-2a2 2 0 0 0-1.61.797L13.36.078a.72.72 0 0 0-.84.48l-.91 3.055c-1.598.098-3.344.64-4.81 1.465-.359-.277-.8-.398-1.28-.398A2.32 2.32 0 0 0 3.2 7c0 .719.359 1.398.921 1.84v.36c0 1.519.879 2.878 2.438 3.921.28.2.562.36.882.52-.882.718-1.402 1.84-1.402 3.12 0 1.72.961 3.2 2.36 3.68.042.079.042.118.081.2-1.242.199-2.16 1.078-2.16 2.16 0 .16.04.48.121.719.079.28.36.48.68.48h9.68c.32 0 .597-.2.64-.52.079-.16.04-.402.04-.558V22.8c0-1.082-.84-1.922-1.961-2.121.039-.078.039-.121.082-.2C17 20 17.96 18.52 17.96 16.8c0-1.241-.563-2.402-1.402-3.12.32-.16.601-.32.882-.52C19 12.121 19.88 10.762 19.88 9.238v-.36A2.357 2.357 0 0 0 20.8 7.04c0-1.277-1.04-2.32-2.32-2.32zM17.52.8c.68 0 1.199.52 1.199 1.199 0 .68-.52 1.2-1.2 1.2-.68 0-1.199-.52-1.199-1.2 0-.68.52-1.2 1.2-1.2zm1.718 7.597c-.16.082-.238.243-.199.403.04.16.04.32.04.48 0 1.2-.759 2.36-2.079 3.239-.441.28-.922.52-1.441.718a.417.417 0 0 0-.239.364c0 .16.078.277.239.359.96.437 1.601 1.598 1.601 2.84 0 1.398-.84 2.64-1.96 2.96a.474.474 0 0 0-.278.278c-.082.281-.203.563-.32.84a.46.46 0 0 0 .039.402c.078.117.238.16.359.16h.121c.918 0 1.598.559 1.598 1.36v.399H7.16c0-.122-.039-.321-.039-.4 0-.76.8-1.359 1.598-1.32h.16c.16 0 .281-.039.36-.16a.468.468 0 0 0 .042-.398 7.285 7.285 0 0 1-.32-.883c-.04-.16-.16-.238-.281-.277-1.121-.282-1.961-1.563-1.961-2.961 0-1.242.64-2.403 1.601-2.84.16-.04.239-.2.239-.36 0-.16-.079-.32-.239-.363-.52-.199-1-.437-1.441-.718-1.36-.88-2.078-2-2.078-3.239 0-.16 0-.32.039-.48 0-.16-.04-.32-.2-.403-.44-.238-.718-.757-.718-1.277 0-.84.68-1.52 1.52-1.52.359 0 .718.16 1 .399.117.121.32.121.48.04 1.476-.962 3.316-1.52 4.918-1.56h.398c1.563.079 3.32.641 4.723 1.56.16.081.36.081.48-.04a1.372 1.372 0 0 1 1-.398c.84 0 1.52.68 1.52 1.52 0 .519-.281 1-.723 1.276zm0 0"/>
    <path d="M14.559 14.602a.414.414 0 0 0-.32-.043c-1.438.441-3.079.441-4.477 0-.121-.04-.242-.04-.32.043-.122.078-.204.16-.204.277a11.73 11.73 0 0 0-.117 1.68c0 2.52.84 4.68 2.078 5.402.082.039.121.039.2.039h1.203c.078 0 .16 0 .199-.04 1.238-.679 2.078-2.882 2.078-5.401 0-.559-.04-1.118-.117-1.68a.732.732 0 0 0-.203-.277zm-2.04 6.597h-1c-.917-.597-1.558-2.558-1.597-4.68 0-.359.039-.757.078-1.12 1.281.32 2.719.32 4 0 .04.363.078.722.078 1.12 0 2.122-.637 4.083-1.558 4.68zm0 0"/>
</svg>
