<svg xmlns="http://www.w3.org/2000/svg" width="32" height="32" viewBox="0 0 24 24">
    <path d="M 17.199219 2.800781 C 14.585938 2.800781 12.378906 4.613281 11.765625 7.042969 L 8.03125 12.5 C 7.257812 12.621094 6.566406 12.929688 5.988281 13.429688 L 1.199219 11.398438 L 1.199219 15.921875 L 4.425781 17.21875 C 4.707031 19.421875 6.605469 21.199219 8.800781 21.199219 C 10.988281 21.199219 12.789062 19.65625 13.140625 17.574219 L 18.515625 13.84375 C 20.96875 13.246094 22.800781 11.027344 22.800781 8.398438 C 22.800781 5.320312 20.28125 2.800781 17.199219 2.800781 Z M 7.921875 18.441406 C 8.292969 18.441406 8.644531 18.347656 8.953125 18.179688 C 9.375 17.964844 9.714844 17.617188 9.878906 17.160156 C 10.140625 16.402344 9.894531 15.5625 9.324219 15.003906 C 9.269531 14.949219 9.210938 14.894531 9.152344 14.84375 C 10.09375 14.980469 10.800781 15.8125 10.800781 16.800781 C 10.800781 17.921875 9.921875 18.800781 8.800781 18.800781 C 8.375 18.800781 7.992188 18.652344 7.675781 18.425781 C 7.761719 18.433594 7.84375 18.441406 7.921875 18.441406 Z M 2 12.601562 L 5.351562 14.007812 L 5.320312 14.039062 L 8.238281 15.28125 C 8.921875 15.519531 9.320312 16.238281 9.078125 16.878906 C 9.023438 17.027344 8.945312 17.152344 8.84375 17.257812 C 8.496094 17.589844 7.945312 17.699219 7.441406 17.519531 L 2 15.359375 Z M 8.800781 20.398438 C 7.167969 20.398438 5.734375 19.171875 5.324219 17.582031 L 6.273438 17.960938 C 6.742188 18.953125 7.699219 19.601562 8.800781 19.601562 C 10.359375 19.601562 11.601562 18.320312 11.601562 16.761719 C 11.601562 15.199219 10.359375 13.960938 8.800781 13.960938 C 8.429688 13.960938 8.085938 14.046875 7.773438 14.167969 L 6.800781 13.761719 C 7.136719 13.542969 7.519531 13.382812 7.9375 13.292969 L 8.320312 13.238281 C 8.371094 13.226562 8.417969 13.21875 8.46875 13.214844 C 8.578125 13.203125 8.6875 13.199219 8.800781 13.199219 C 10.800781 13.199219 12.398438 14.800781 12.398438 16.800781 C 12.398438 16.925781 12.394531 17.046875 12.382812 17.167969 C 12.375 17.207031 12.371094 17.242188 12.359375 17.28125 L 12.328125 17.523438 C 11.996094 19.171875 10.550781 20.398438 8.800781 20.398438 Z M 13.199219 16.558594 C 13.078125 14.320312 11.28125 12.519531 9.039062 12.398438 L 11.601562 8.640625 C 11.660156 10.082031 12.277344 11.390625 13.242188 12.351562 C 13.246094 12.355469 13.246094 12.355469 13.246094 12.355469 C 13.277344 12.386719 13.304688 12.414062 13.335938 12.441406 C 13.339844 12.445312 13.34375 12.449219 13.347656 12.453125 C 13.375 12.480469 13.402344 12.507812 13.429688 12.53125 C 13.433594 12.535156 13.441406 12.542969 13.445312 12.546875 C 13.472656 12.570312 13.5 12.59375 13.527344 12.621094 C 13.535156 12.625 13.539062 12.628906 13.546875 12.632812 C 13.574219 12.660156 13.605469 12.683594 13.632812 12.710938 C 13.636719 12.714844 13.640625 12.714844 13.644531 12.71875 C 14.527344 13.445312 15.632812 13.914062 16.839844 14 Z M 17.21875 13.199219 C 14.589844 13.1875 12.441406 11.035156 12.441406 8.398438 C 12.441406 8 12.480469 7.601562 12.601562 7.199219 L 12.558594 7.179688 C 13.101562 5.125 14.980469 3.601562 17.199219 3.601562 C 19.839844 3.601562 22 5.761719 22 8.398438 C 22 11.035156 19.851562 13.1875 17.21875 13.199219 Z M 17.21875 13.199219"/>
    <path d="M 17.199219 5.199219 C 15.441406 5.199219 14 6.640625 14 8.398438 C 14 10.160156 15.441406 11.601562 17.199219 11.601562 C 18.960938 11.601562 20.398438 10.160156 20.398438 8.398438 C 20.398438 6.640625 18.960938 5.199219 17.199219 5.199219 Z M 17.199219 10.800781 C 15.878906 10.800781 14.800781 9.71875 14.800781 8.398438 C 14.800781 7.078125 15.878906 6 17.199219 6 C 18.519531 6 19.601562 7.078125 19.601562 8.398438 C 19.601562 9.71875 18.519531 10.800781 17.199219 10.800781 Z M 17.199219 10.800781"/>
    <path d="M 19.601562 0 L 4.398438 0 C 1.960938 0 0 1.960938 0 4.398438 L 0 19.601562 C 0 22.039062 1.960938 24 4.398438 24 L 19.601562 24 C 22.039062 24 24 22.039062 24 19.601562 L 24 4.398438 C 24 1.960938 22.039062 0 19.601562 0 Z M 23.199219 19.601562 C 23.199219 21.601562 21.601562 23.199219 19.601562 23.199219 L 4.398438 23.199219 C 2.398438 23.199219 0.800781 21.601562 0.800781 19.601562 L 0.800781 4.398438 C 0.800781 2.398438 2.398438 0.800781 4.398438 0.800781 L 19.601562 0.800781 C 21.601562 0.800781 23.199219 2.398438 23.199219 4.398438 Z M 23.199219 19.601562"/>
</svg>
