<svg xmlns="http://www.w3.org/2000/svg" width="32" height="32" viewBox="0 0 24 24">
    <path d="M10.988281 1.9375L10.988281 11.675781 23.917969 11.675781 23.917969 0zM23.109375 10.867188L11.796875 10.867188 11.796875 2.625 23.109375.96875zM.0820312 11.796875L10.183594 11.796875 10.183594 2.019531.0820312 3.515625zM.890625 4.203125L9.375 2.949219 9.375 10.988281.890625 10.988281zM10.988281 22.0625L23.917969 24 23.917969 12.605469 10.988281 12.605469zM11.796875 13.414062L23.109375 13.414062 23.109375 23.070312 11.796875 21.375zM.0820312 20.484375L10.183594 21.980469 10.183594 12.605469.0820312 12.605469zM.890625 13.414062L9.375 13.414062 9.375 21.050781.890625 19.796875zM.890625 13.414062"/>
</svg>
