<svg xmlns="http://www.w3.org/2000/svg" width="32" height="32" viewBox="0 0 24 24">
    <path d="M 13.628906 3.257812 L 13.828125 5.640625 L 16.648438 6.316406 C 16.332031 7.273438 15.019531 9.140625 12.753906 11.921875 C 10.925781 8.304688 9.457031 5.164062 8.382812 2.742188 L 11.601562 2.226562 L 11.800781 0.078125 L 0 0.078125 L 0 2.464844 L 3.417969 3.179688 C 3.816406 3.734375 4.726562 5.164062 6.835938 9.179688 C 9.058594 13.511719 9.457031 14.582031 9.535156 14.859375 L 9.574219 17.085938 L 9.574219 18.238281 C 9.574219 20.621094 9.457031 21.058594 9.457031 21.097656 C 9.457031 21.140625 9.296875 21.335938 8.265625 21.457031 L 6.316406 21.578125 L 6 23.921875 L 17.085938 23.921875 L 17.761719 21.417969 L 14.144531 21.335938 L 13.945312 18.359375 L 14.105469 14.859375 C 14.226562 14.34375 14.859375 13.113281 17.164062 10.210938 C 19.46875 7.191406 20.144531 6.636719 20.265625 6.554688 L 23.046875 5.640625 L 24 3.257812 Z M 22.488281 5.007812 L 19.988281 5.839844 C 19.589844 6 18.875 6.714844 16.53125 9.734375 C 14.542969 12.199219 13.511719 13.867188 13.3125 14.742188 L 13.152344 18.359375 L 13.390625 22.09375 L 16.726562 22.171875 L 16.488281 23.125 L 6.914062 23.125 L 7.03125 22.332031 L 8.34375 22.292969 C 9.296875 22.171875 9.894531 21.972656 10.132812 21.574219 C 10.25 21.457031 10.371094 21.21875 10.371094 18.277344 L 10.371094 17.125 L 10.332031 14.820312 L 10.332031 14.742188 C 10.171875 13.90625 8.503906 10.6875 7.550781 8.820312 C 5.800781 5.523438 4.570312 3.335938 3.972656 2.582031 L 3.855469 2.464844 L 0.792969 1.828125 L 0.792969 0.875 L 10.925781 0.875 L 10.886719 1.511719 L 7.273438 2.066406 L 7.46875 2.542969 C 8.621094 5.164062 10.292969 8.703125 12.359375 12.792969 L 12.636719 13.390625 L 13.03125 12.914062 C 16.96875 8.183594 17.523438 6.792969 17.5625 6.078125 L 17.5625 5.761719 L 14.621094 5.046875 L 14.542969 4.09375 L 22.886719 4.09375 Z M 22.488281 5.007812"/>
</svg>
