<svg xmlns="http://www.w3.org/2000/svg" width="32" height="32" viewBox="0 0 24 24">
    <path d="M 19.566406 9.941406 C 19.472656 9.800781 19.355469 9.695312 19.222656 9.621094 C 19.144531 6.320312 16.445312 3.660156 13.128906 3.660156 L 11.5 3.660156 L 11.5 2.847656 C 11.5 2.667969 11.386719 2.511719 11.21875 2.460938 L 3.488281 0.0195312 C 3.363281 -0.0195312 3.230469 0.00390625 3.125 0.078125 C 3.019531 0.15625 2.957031 0.277344 2.957031 0.40625 L 2.957031 2.035156 C 2.957031 2.199219 3.058594 2.347656 3.210938 2.410156 L 6.214844 3.660156 L 4.585938 3.660156 C 4.359375 3.660156 4.179688 3.84375 4.179688 4.066406 C 4.179688 4.292969 4.359375 4.472656 4.585938 4.472656 L 7.433594 4.472656 L 7.433594 6.101562 L 4.179688 6.101562 C 3.953125 6.101562 3.773438 6.285156 3.773438 6.507812 L 3.773438 23.59375 C 3.773438 23.816406 3.953125 24 4.179688 24 L 14.753906 24 C 14.980469 24 15.164062 23.816406 15.164062 23.59375 L 15.164062 6.507812 C 15.164062 6.285156 14.980469 6.101562 14.753906 6.101562 L 11.5 6.101562 L 11.5 4.472656 L 13.128906 4.472656 C 16 4.472656 18.335938 6.773438 18.410156 9.628906 C 18.285156 9.699219 18.171875 9.804688 18.082031 9.9375 C 17.042969 11.472656 16.617188 14.128906 16.820312 17.832031 C 16.847656 18.324219 17.261719 18.710938 17.765625 18.710938 L 20.027344 18.710938 C 20.519531 18.710938 20.933594 18.328125 20.96875 17.839844 C 21.363281 12.597656 20.011719 10.597656 19.566406 9.941406 Z M 3.773438 0.960938 L 10.6875 3.144531 L 10.6875 3.660156 L 8.332031 3.660156 L 3.773438 1.761719 Z M 4.585938 12.203125 L 7.433594 12.203125 L 7.433594 18.304688 L 4.585938 18.304688 Z M 14.347656 23.1875 L 4.585938 23.1875 L 4.585938 19.117188 L 7.839844 19.117188 C 8.066406 19.117188 8.246094 18.9375 8.246094 18.710938 L 8.246094 11.796875 C 8.246094 11.570312 8.066406 11.390625 7.839844 11.390625 L 4.585938 11.390625 L 4.585938 6.914062 L 14.347656 6.914062 Z M 8.246094 6.101562 L 8.246094 4.472656 L 10.6875 4.472656 L 10.6875 6.101562 Z M 20.160156 17.777344 C 20.152344 17.847656 20.09375 17.898438 20.027344 17.898438 L 17.765625 17.898438 C 17.695312 17.898438 17.636719 17.847656 17.632812 17.789062 C 17.441406 14.265625 17.820312 11.777344 18.753906 10.394531 C 18.789062 10.34375 18.816406 10.328125 18.820312 10.328125 C 18.828125 10.328125 18.855469 10.34375 18.890625 10.394531 C 19.296875 10.996094 20.53125 12.820312 20.160156 17.777344 Z M 20.160156 17.777344"/>
</svg>
