<svg xmlns="http://www.w3.org/2000/svg" width="32" height="32" viewBox="0 0 24 24">
    <path d="M9.199219 10.398438C6.773438 10.398438 4.800781 12.375 4.800781 14.800781 4.800781 17.226562 6.773438 19.199219 9.199219 19.199219 11.625 19.199219 13.601562 17.226562 13.601562 14.800781 13.601562 12.375 11.625 10.398438 9.199219 10.398438zM9.199219 18.398438C7.214844 18.398438 5.601562 16.785156 5.601562 14.800781 5.601562 12.816406 7.214844 11.199219 9.199219 11.199219 11.183594 11.199219 12.800781 12.816406 12.800781 14.800781 12.800781 16.785156 11.183594 18.398438 9.199219 18.398438zM9.199219 9.199219C9.421875 9.199219 9.601562 9.019531 9.601562 8.800781L9.601562 7.199219C9.601562 6.980469 9.421875 6.800781 9.199219 6.800781 8.980469 6.800781 8.800781 6.980469 8.800781 7.199219L8.800781 8.800781C8.800781 9.019531 8.980469 9.199219 9.199219 9.199219zM9.199219 20.398438C8.980469 20.398438 8.800781 20.578125 8.800781 20.800781L8.800781 22.398438C8.800781 22.621094 8.980469 22.800781 9.199219 22.800781 9.421875 22.800781 9.601562 22.621094 9.601562 22.398438L9.601562 20.800781C9.601562 20.578125 9.421875 20.398438 9.199219 20.398438zM15.199219 14.398438C14.980469 14.398438 14.800781 14.578125 14.800781 14.800781 14.800781 15.019531 14.980469 15.199219 15.199219 15.199219L16.800781 15.199219C17.019531 15.199219 17.199219 15.019531 17.199219 14.800781 17.199219 14.578125 17.019531 14.398438 16.800781 14.398438zM3.199219 15.199219C3.421875 15.199219 3.601562 15.019531 3.601562 14.800781 3.601562 14.578125 3.421875 14.398438 3.199219 14.398438L1.601562 14.398438C1.378906 14.398438 1.199219 14.578125 1.199219 14.800781 1.199219 15.019531 1.378906 15.199219 1.601562 15.199219zM13.160156 10.273438C13.003906 10.429688 13.003906 10.683594 13.160156 10.839844 13.238281 10.917969 13.339844 10.957031 13.441406 10.957031 13.542969 10.957031 13.648438 10.917969 13.726562 10.839844L14.855469 9.710938C15.011719 9.554688 15.011719 9.300781 14.855469 9.144531 14.699219 8.988281 14.449219 8.988281 14.292969 9.144531zM5.242188 18.757812C5.085938 18.601562 4.832031 18.601562 4.675781 18.757812L3.542969 19.890625C3.386719 20.046875 3.386719 20.300781 3.542969 20.457031 3.621094 20.535156 3.722656 20.574219 3.824219 20.574219 3.929688 20.574219 4.03125 20.535156 4.109375 20.457031L5.242188 19.324219C5.394531 19.167969 5.394531 18.914062 5.242188 18.757812zM13.726562 18.757812C13.570312 18.601562 13.316406 18.601562 13.160156 18.757812 13.003906 18.914062 13.003906 19.167969 13.160156 19.324219L14.292969 20.457031C14.371094 20.535156 14.472656 20.574219 14.574219 20.574219 14.675781 20.574219 14.777344 20.535156 14.855469 20.457031 15.011719 20.300781 15.011719 20.046875 14.855469 19.890625zM4.675781 10.839844C4.753906 10.917969 4.855469 10.957031 4.957031 10.957031 5.058594 10.957031 5.164062 10.917969 5.242188 10.839844 5.398438 10.683594 5.398438 10.429688 5.242188 10.273438L4.109375 9.144531C3.953125 8.988281 3.699219 8.988281 3.542969 9.144531 3.386719 9.300781 3.386719 9.554688 3.542969 9.710938zM12 9.949219C12.0625 9.988281 12.132812 10.003906 12.199219 10.003906 12.339844 10.003906 12.472656 9.933594 12.546875 9.804688L13.347656 8.417969C13.457031 8.226562 13.390625 7.980469 13.199219 7.871094 13.007812 7.761719 12.765625 7.828125 12.652344 8.019531L11.855469 9.402344C11.742188 9.59375 11.808594 9.839844 12 9.949219zM6.398438 19.648438C6.207031 19.539062 5.964844 19.605469 5.855469 19.796875L5.054688 21.179688C4.941406 21.375 5.007812 21.617188 5.199219 21.726562 5.261719 21.765625 5.332031 21.78125 5.398438 21.78125 5.539062 21.78125 5.671875 21.710938 5.746094 21.582031L6.546875 20.195312C6.65625 20.003906 6.589844 19.761719 6.398438 19.648438zM15.980469 18.253906L14.597656 17.453125C14.40625 17.34375 14.160156 17.410156 14.050781 17.601562 13.941406 17.792969 14.003906 18.035156 14.195312 18.144531L15.582031 18.945312C15.644531 18.984375 15.714844 19 15.78125 19 15.921875 19 16.054688 18.929688 16.128906 18.800781 16.238281 18.609375 16.171875 18.363281 15.980469 18.253906zM2.417969 11.347656L3.804688 12.144531C3.867188 12.183594 3.9375 12.199219 4.003906 12.199219 4.140625 12.199219 4.277344 12.128906 4.351562 12 4.460938 11.808594 4.394531 11.5625 4.203125 11.453125L2.816406 10.652344C2.625 10.542969 2.382812 10.609375 2.273438 10.800781 2.160156 10.992188 2.226562 11.234375 2.417969 11.347656zM10.648438 9.390625C10.683594 9.398438 10.71875 9.40625 10.753906 9.40625 10.929688 9.40625 11.089844 9.285156 11.140625 9.109375L11.554688 7.5625C11.609375 7.347656 11.484375 7.128906 11.269531 7.074219 11.054688 7.015625 10.835938 7.140625 10.78125 7.355469L10.367188 8.902344C10.308594 9.113281 10.4375 9.332031 10.648438 9.390625zM7.75 20.210938C7.535156 20.152344 7.316406 20.277344 7.261719 20.492188L6.847656 22.039062C6.789062 22.25 6.914062 22.46875 7.128906 22.527344 7.164062 22.535156 7.199219 22.539062 7.234375 22.539062 7.410156 22.539062 7.570312 22.421875 7.617188 22.246094L8.03125 20.699219C8.089844 20.484375 7.964844 20.265625 7.75 20.210938zM16.644531 16.378906L15.097656 15.964844C14.886719 15.910156 14.664062 16.035156 14.609375 16.25 14.550781 16.460938 14.679688 16.683594 14.890625 16.738281L16.4375 17.152344C16.472656 17.164062 16.507812 17.167969 16.539062 17.167969 16.71875 17.167969 16.878906 17.050781 16.925781 16.871094 16.984375 16.65625 16.859375 16.4375 16.644531 16.378906zM1.753906 13.21875L3.300781 13.632812C3.335938 13.644531 3.371094 13.648438 3.40625 13.648438 3.582031 13.648438 3.742188 13.53125 3.789062 13.351562 3.847656 13.136719 3.722656 12.917969 3.507812 12.859375L1.960938 12.445312C1.75 12.386719 1.53125 12.515625 1.472656 12.730469 1.414062 12.941406 1.542969 13.160156 1.753906 13.21875zM7.261719 9.109375C7.308594 9.285156 7.46875 9.40625 7.648438 9.40625 7.679688 9.40625 7.714844 9.398438 7.75 9.390625 7.964844 9.332031 8.089844 9.113281 8.03125 8.902344L7.621094 7.355469C7.5625 7.140625 7.34375 7.015625 7.128906 7.074219 6.914062 7.128906 6.789062 7.347656 6.847656 7.5625zM11.140625 20.492188C11.082031 20.277344 10.863281 20.152344 10.648438 20.210938 10.4375 20.265625 10.308594 20.484375 10.367188 20.699219L10.78125 22.246094C10.828125 22.421875 10.988281 22.539062 11.167969 22.539062 11.199219 22.539062 11.234375 22.535156 11.269531 22.527344 11.484375 22.46875 11.609375 22.25 11.554688 22.039062zM14.609375 13.351562C14.65625 13.53125 14.820312 13.648438 14.996094 13.648438 15.027344 13.648438 15.0625 13.644531 15.097656 13.632812L16.644531 13.21875C16.859375 13.160156 16.984375 12.941406 16.925781 12.730469 16.871094 12.515625 16.652344 12.386719 16.4375 12.445312L14.890625 12.859375C14.679688 12.917969 14.550781 13.136719 14.609375 13.351562zM3.789062 16.25C3.734375 16.035156 3.515625 15.910156 3.300781 15.964844L1.753906 16.378906C1.542969 16.4375 1.414062 16.65625 1.472656 16.871094 1.519531 17.050781 1.683594 17.167969 1.859375 17.167969 1.890625 17.167969 1.925781 17.164062 1.960938 17.152344L3.507812 16.738281C3.722656 16.683594 3.847656 16.460938 3.789062 16.25zM5.855469 9.804688C5.929688 9.933594 6.0625 10.003906 6.199219 10.003906 6.269531 10.003906 6.335938 9.988281 6.398438 9.949219 6.589844 9.839844 6.65625 9.59375 6.546875 9.402344L5.746094 8.019531C5.636719 7.828125 5.390625 7.761719 5.199219 7.871094 5.007812 7.980469 4.941406 8.226562 5.054688 8.417969zM12.546875 19.796875C12.4375 19.605469 12.191406 19.539062 12 19.648438 11.808594 19.761719 11.742188 20.003906 11.855469 20.195312L12.652344 21.582031C12.726562 21.710938 12.863281 21.78125 13 21.78125 13.066406 21.78125 13.136719 21.765625 13.199219 21.726562 13.390625 21.617188 13.457031 21.371094 13.347656 21.179688zM14.050781 12C14.125 12.128906 14.257812 12.199219 14.394531 12.199219 14.464844 12.199219 14.53125 12.183594 14.597656 12.144531L15.980469 11.347656C16.171875 11.234375 16.238281 10.992188 16.128906 10.800781 16.019531 10.609375 15.773438 10.542969 15.582031 10.652344L14.195312 11.453125C14.003906 11.5625 13.9375 11.808594 14.050781 12zM4.351562 17.601562C4.238281 17.410156 3.996094 17.34375 3.804688 17.453125L2.417969 18.253906C2.226562 18.363281 2.160156 18.609375 2.273438 18.800781 2.347656 18.929688 2.480469 19 2.617188 19 2.6875 19 2.753906 18.984375 2.816406 18.945312L4.203125 18.144531C4.394531 18.035156 4.460938 17.792969 4.351562 17.601562zM4.351562 17.601562"/>
    <path d="M 10.515625 12.917969 L 9.316406 14.117188 C 9.160156 14.273438 9.160156 14.527344 9.316406 14.683594 C 9.394531 14.761719 9.496094 14.800781 9.601562 14.800781 C 9.703125 14.800781 9.804688 14.761719 9.882812 14.683594 L 11.082031 13.484375 C 11.238281 13.328125 11.238281 13.074219 11.082031 12.917969 C 10.925781 12.761719 10.671875 12.761719 10.515625 12.917969 Z M 10.515625 12.917969"/>
    <path d="M 18 0 C 14.691406 0 12 2.511719 12 5.601562 L 12 6.039062 C 11.117188 5.753906 10.175781 5.601562 9.199219 5.601562 C 4.128906 5.601562 0 9.726562 0 14.800781 C 0 19.875 4.128906 24 9.199219 24 C 14.273438 24 18.398438 19.875 18.398438 14.800781 C 18.398438 11.65625 16.8125 8.875 14.398438 7.214844 L 14.398438 5.601562 C 14.398438 3.804688 15.980469 2.398438 18 2.398438 C 20.019531 2.398438 21.601562 3.804688 21.601562 5.601562 L 21.601562 8 C 21.601562 8.21875 21.777344 8.398438 21.996094 8.398438 L 23.597656 8.410156 C 23.597656 8.410156 23.597656 8.410156 23.601562 8.410156 C 23.707031 8.410156 23.808594 8.371094 23.882812 8.296875 C 23.957031 8.21875 24 8.117188 24 8.011719 L 24 5.601562 C 24 2.511719 21.308594 0 18 0 Z M 17.601562 14.800781 C 17.601562 19.429688 13.832031 23.199219 9.199219 23.199219 C 4.566406 23.199219 0.800781 19.429688 0.800781 14.800781 C 0.800781 10.167969 4.566406 6.398438 9.199219 6.398438 C 10.3125 6.398438 11.375 6.621094 12.347656 7.019531 C 12.496094 7.078125 12.636719 7.144531 12.78125 7.214844 C 12.894531 7.265625 13.007812 7.316406 13.121094 7.375 C 13.25 7.445312 13.371094 7.519531 13.496094 7.59375 C 15.949219 9.0625 17.601562 11.738281 17.601562 14.800781 Z M 23.199219 7.609375 L 22.398438 7.601562 L 22.398438 5.601562 C 22.398438 3.355469 20.46875 1.601562 18 1.601562 C 15.53125 1.601562 13.601562 3.355469 13.601562 5.601562 L 13.601562 6.722656 C 13.59375 6.71875 13.589844 6.714844 13.585938 6.714844 C 13.332031 6.578125 13.074219 6.453125 12.808594 6.339844 C 12.804688 6.335938 12.804688 6.335938 12.800781 6.335938 L 12.800781 5.601562 C 12.800781 2.910156 15.085938 0.800781 18 0.800781 C 20.914062 0.800781 23.199219 2.910156 23.199219 5.601562 Z M 23.199219 7.609375"/>
</svg>
