<svg xmlns="http://www.w3.org/2000/svg" width="32" height="32" viewBox="0 0 24 24">
    <path d="M20.355 10.715h-2.277l.879-1.961A6.22 6.22 0 0 0 15.832.543a6.224 6.224 0 0 0-8.215 3.129L6.48 6.21a.43.43 0 0 0 .781.352l1.137-2.54a5.369 5.369 0 0 1 7.082-2.699 5.367 5.367 0 0 1 2.696 7.082l-1.035 2.309H3.645a.428.428 0 0 0-.43.43v9.425c0 1.89 1.539 3.43 3.43 3.43h10.71c1.891 0 3.43-1.54 3.43-3.43v-9.425a.428.428 0 0 0-.43-.43zm-.43.86v8.57H4.076v-8.57zm-13.28 11.57a2.632 2.632 0 0 1-.872-.157l-.062-.023a2.195 2.195 0 0 1-.348-.168.427.427 0 0 1-.058-.031 2.619 2.619 0 0 1-.317-.23c-.011-.009-.023-.02-.035-.028a2.89 2.89 0 0 1-.285-.293s-.004 0-.004-.004a2.869 2.869 0 0 1-.234-.336l-.024-.043a2.32 2.32 0 0 1-.168-.36l-.023-.062a2.89 2.89 0 0 1-.102-.383c0-.007 0-.02-.004-.027h15.782c-.004.012-.004.02-.008.031a2.57 2.57 0 0 1-.098.38l-.023.066a2.93 2.93 0 0 1-.164.355c-.008.016-.02.031-.032.047a2.4 2.4 0 0 1-.23.332c0 .004-.004.004-.008.008-.086.101-.18.199-.281.285a2.619 2.619 0 0 1-.352.262.427.427 0 0 1-.058.03c-.11.067-.227.122-.348.169l-.062.023a2.577 2.577 0 0 1-.387.11c-.016.004-.035.004-.05.007-.142.024-.286.04-.435.04zm0 0"/>
    <path d="M7.07 18.86h2.145a.43.43 0 0 0 .43-.43v-5.145a.43.43 0 0 0-.43-.426H7.07a.427.427 0 0 0-.425.426v5.145c0 .234.19.43.425.43zm1.715-2.575H7.5v-.855h1.285zM7.5 18v-.855h1.285V18zm1.285-4.285v.86H7.5v-.86zm0 0M10.93 18.86h2.14c.239 0 .43-.192.43-.43v-5.145a.428.428 0 0 0-.43-.426h-2.14a.428.428 0 0 0-.43.426v5.145c0 .234.191.43.43.43zm1.715-2.575h-1.29v-.855h1.29zM11.355 18v-.855h1.29V18zm1.29-4.285v.86h-1.29v-.86zm0 0M14.785 18.86h2.145a.428.428 0 0 0 .425-.43v-5.145a.427.427 0 0 0-.425-.426h-2.145a.43.43 0 0 0-.43.426v5.145c0 .234.196.43.43.43zm1.715-2.575h-1.285v-.855H16.5zM15.215 18v-.855H16.5V18zm1.285-4.285v.86h-1.285v-.86zm0 0"/>
</svg>
