<svg xmlns="http://www.w3.org/2000/svg" width="32" height="32" viewBox="0 0 24 24">
    <path d="M21.61 10.527H20V0H4v10.527H2.39c-.968 0-1.757.79-1.757 1.762v3.215c0 .969.789 1.758 1.758 1.758h19.218a1.76 1.76 0 0 0 1.758-1.758v-3.219a1.76 1.76 0 0 0-1.758-1.758zM4.843.844h14.312v9.683H4.844zm17.683 14.66a.922.922 0 0 1-.918.918H2.391a.922.922 0 0 1-.918-.918v-3.219c0-.504.414-.918.918-.918h19.218c.504 0 .918.414.918.922zm0 0"/>
    <path d="M20 12.21a1.684 1.684 0 1 0 0 3.368 1.684 1.684 0 0 0 0-3.367zm0 2.528a.845.845 0 0 1-.844-.843c0-.465.38-.844.844-.844.465 0 .844.379.844.844a.845.845 0 0 1-.844.843zm0 0M15.79 12.21a1.684 1.684 0 1 0 0 3.368 1.684 1.684 0 0 0 0-3.367zm0 2.528a.842.842 0 0 1-.84-.843.842.842 0 1 1 1.683 0 .845.845 0 0 1-.844.843zm0 0M4 12.21a1.684 1.684 0 1 0 0 3.368 1.684 1.684 0 0 0 0-3.367zm0 2.528a.845.845 0 0 1-.844-.843c0-.465.38-.844.844-.844.465 0 .844.379.844.844a.845.845 0 0 1-.844.843zm0 0M13.563 6.195a.458.458 0 0 0 .12-.3.44.44 0 0 0-.12-.297.44.44 0 0 0-.598 0 .423.423 0 0 0-.121.297c0 .109.043.218.12.3a.433.433 0 0 0 .298.121c.11 0 .218-.046.3-.12zm0 0M14.105 5.895a.42.42 0 0 0 .422.421h2.524a.42.42 0 0 0 .422-.421.42.42 0 0 0-.422-.422h-2.524a.42.42 0 0 0-.422.422zm0 0M15.79 8h-2.106a.423.423 0 0 0 0 .844h2.105a.423.423 0 0 0 0-.844zm0 0M17.176 8.121a.436.436 0 0 0-.125.3.427.427 0 0 0 .422.423c.109 0 .218-.047.3-.125a.44.44 0 0 0 .122-.297.45.45 0 0 0-.122-.3.44.44 0 0 0-.597 0zm0 0M6.95 6.316h4.628A.42.42 0 0 0 12 5.895a.42.42 0 0 0-.422-.422H6.95a.42.42 0 0 0-.422.422.42.42 0 0 0 .422.421zm0 0M8.21 8H6.95a.423.423 0 0 0 0 .844h1.26a.423.423 0 0 0 0-.844zm0 0M12 8H9.895a.423.423 0 0 0 0 .844H12A.423.423 0 0 0 12 8zm0 0M8.633 3.79h2.105a.42.42 0 0 0 0-.84H8.633a.42.42 0 1 0 0 .84zm0 0M6.95 3.79a.44.44 0 0 0 .296-.122.458.458 0 0 0 .121-.3.44.44 0 0 0-.12-.298.44.44 0 0 0-.599 0 .432.432 0 0 0 0 .598.45.45 0 0 0 .301.121zm0 0M17.473 2.95H16.21a.42.42 0 1 0 0 .84h1.262a.42.42 0 1 0 0-.84zm0 0M14.95 3.367a.422.422 0 0 0-.423-.418h-2.105a.42.42 0 1 0 0 .84h2.105c.23 0 .422-.187.422-.422zm0 0M4 18.105h.844V24H4zm0 0M6.527 18.105h.84V24h-.84zm0 0M9.05 18.105h.845V24H9.05zm0 0M11.578 18.105h.844V24h-.844zm0 0M14.105 18.105h.844V24h-.844zm0 0M16.633 18.105h.84V24h-.84zm0 0M19.156 18.105H20V24h-.844zm0 0"/>
</svg>
