<svg xmlns="http://www.w3.org/2000/svg" width="32" height="32" viewBox="0 0 24 24">
    <path d="M 22.378906 1.199219 L 2.421875 1.199219 C 1.527344 1.199219 0.800781 1.925781 0.800781 2.824219 L 0.800781 5.621094 C 0.34375 5.710938 0 6.113281 0 6.59375 L 0 10.207031 C 0 10.6875 0.34375 11.089844 0.800781 11.179688 L 0.800781 12.820312 C 0.34375 12.910156 0 13.3125 0 13.792969 L 0 17.40625 C 0 17.886719 0.34375 18.289062 0.800781 18.378906 L 0.800781 21.175781 C 0.800781 22.074219 1.527344 22.800781 2.421875 22.800781 L 22.378906 22.800781 C 23.273438 22.800781 24 22.074219 24 21.175781 L 24 2.824219 C 24 1.925781 23.273438 1.199219 22.378906 1.199219 Z M 0.800781 6.59375 C 0.800781 6.488281 0.886719 6.398438 0.996094 6.398438 L 3.199219 6.398438 C 3.421875 6.398438 3.601562 6.578125 3.601562 6.800781 L 3.601562 10 C 3.601562 10.21875 3.421875 10.398438 3.199219 10.398438 L 0.996094 10.398438 C 0.886719 10.398438 0.800781 10.3125 0.800781 10.207031 Z M 1.601562 11.199219 L 2.800781 11.199219 L 2.800781 12.800781 L 1.601562 12.800781 Z M 3.601562 18.378906 C 4.054688 18.289062 4.398438 17.886719 4.398438 17.40625 L 4.398438 13.792969 C 4.398438 13.3125 4.054688 12.910156 3.601562 12.820312 L 3.601562 11.179688 C 4.054688 11.089844 4.398438 10.6875 4.398438 10.207031 L 4.398438 6.59375 C 4.398438 6.113281 4.054688 5.710938 3.601562 5.621094 L 3.601562 4 L 21.199219 4 L 21.199219 20 L 3.601562 20 Z M 0.800781 13.792969 C 0.800781 13.6875 0.886719 13.601562 0.996094 13.601562 L 3.199219 13.601562 C 3.421875 13.601562 3.601562 13.78125 3.601562 14 L 3.601562 17.199219 C 3.601562 17.421875 3.421875 17.601562 3.199219 17.601562 L 0.996094 17.601562 C 0.886719 17.601562 0.800781 17.511719 0.800781 17.40625 Z M 23.199219 21.175781 C 23.199219 21.632812 22.832031 22 22.378906 22 L 2.421875 22 C 1.96875 22 1.601562 21.632812 1.601562 21.175781 L 1.601562 18.398438 L 2.800781 18.398438 L 2.800781 20.800781 L 22 20.800781 L 22 3.199219 L 2.800781 3.199219 L 2.800781 5.601562 L 1.601562 5.601562 L 1.601562 2.824219 C 1.601562 2.367188 1.96875 2 2.421875 2 L 22.378906 2 C 22.832031 2 23.199219 2.367188 23.199219 2.824219 Z M 23.199219 21.175781"/>
    <path d="M 14.203125 8.617188 C 14.199219 8.613281 14.199219 8.609375 14.195312 8.605469 C 14.191406 8.601562 14.183594 8.601562 14.179688 8.597656 C 13.3125 7.734375 12.117188 7.199219 10.800781 7.199219 C 9.480469 7.199219 8.285156 7.734375 7.417969 8.597656 C 7.414062 8.601562 7.410156 8.601562 7.40625 8.605469 C 7.402344 8.609375 7.402344 8.613281 7.398438 8.617188 C 6.535156 9.488281 6 10.683594 6 12 C 6 13.316406 6.535156 14.511719 7.398438 15.382812 C 7.402344 15.386719 7.402344 15.390625 7.40625 15.394531 C 7.410156 15.398438 7.414062 15.398438 7.417969 15.402344 C 8.285156 16.265625 9.480469 16.800781 10.800781 16.800781 C 12.117188 16.800781 13.3125 16.265625 14.179688 15.402344 C 14.183594 15.398438 14.191406 15.398438 14.195312 15.394531 C 14.199219 15.390625 14.199219 15.386719 14.203125 15.382812 C 15.066406 14.511719 15.601562 13.316406 15.601562 12 C 15.601562 10.683594 15.066406 9.488281 14.203125 8.617188 Z M 14 12.398438 L 14.78125 12.398438 C 14.699219 13.203125 14.378906 13.9375 13.894531 14.53125 L 13.34375 13.980469 C 13.1875 13.824219 12.9375 13.824219 12.78125 13.980469 C 12.625 14.136719 12.625 14.390625 12.78125 14.546875 L 13.328125 15.09375 C 12.738281 15.582031 12.003906 15.898438 11.199219 15.980469 L 11.199219 15.199219 C 11.199219 14.980469 11.019531 14.800781 10.800781 14.800781 C 10.578125 14.800781 10.398438 14.980469 10.398438 15.199219 L 10.398438 15.980469 C 9.597656 15.898438 8.863281 15.582031 8.269531 15.09375 L 8.820312 14.546875 C 8.976562 14.390625 8.976562 14.136719 8.820312 13.980469 C 8.664062 13.824219 8.410156 13.824219 8.253906 13.980469 L 7.703125 14.53125 C 7.21875 13.9375 6.902344 13.203125 6.820312 12.398438 L 7.601562 12.398438 C 7.820312 12.398438 8 12.222656 8 12 C 8 11.777344 7.820312 11.601562 7.601562 11.601562 L 6.820312 11.601562 C 6.902344 10.796875 7.21875 10.0625 7.703125 9.46875 L 8.253906 10.019531 C 8.332031 10.097656 8.433594 10.136719 8.539062 10.136719 C 8.640625 10.136719 8.742188 10.097656 8.820312 10.019531 C 8.976562 9.863281 8.976562 9.609375 8.820312 9.453125 L 8.269531 8.90625 C 8.863281 8.417969 9.597656 8.101562 10.398438 8.019531 L 10.398438 8.800781 C 10.398438 9.019531 10.578125 9.199219 10.800781 9.199219 C 11.019531 9.199219 11.199219 9.019531 11.199219 8.800781 L 11.199219 8.019531 C 12.003906 8.101562 12.738281 8.417969 13.328125 8.90625 L 12.78125 9.453125 C 12.625 9.609375 12.625 9.863281 12.78125 10.019531 C 12.859375 10.097656 12.960938 10.136719 13.0625 10.136719 C 13.164062 10.136719 13.269531 10.097656 13.34375 10.019531 L 13.894531 9.46875 C 14.378906 10.0625 14.699219 10.796875 14.78125 11.601562 L 14 11.601562 C 13.777344 11.601562 13.601562 11.777344 13.601562 12 C 13.601562 12.222656 13.777344 12.398438 14 12.398438 Z M 14 12.398438"/>
    <path d="M10.800781 10C9.695312 10 8.800781 10.898438 8.800781 12 8.800781 13.101562 9.695312 14 10.800781 14 11.902344 14 12.800781 13.101562 12.800781 12 12.800781 10.898438 11.902344 10 10.800781 10zM10.800781 13.199219C10.136719 13.199219 9.601562 12.660156 9.601562 12 9.601562 11.339844 10.136719 10.800781 10.800781 10.800781 11.460938 10.800781 12 11.339844 12 12 12 12.660156 11.460938 13.199219 10.800781 13.199219zM20.398438 7.199219C20.398438 6.980469 20.222656 6.800781 20 6.800781L19 6.800781C18.226562 6.800781 17.601562 7.429688 17.601562 8.199219L17.601562 15.800781C17.601562 16.570312 18.226562 17.199219 19 17.199219L20 17.199219C20.222656 17.199219 20.398438 17.019531 20.398438 16.800781 20.398438 16.578125 20.222656 16.398438 20 16.398438L19 16.398438C18.667969 16.398438 18.398438 16.128906 18.398438 15.800781L18.398438 8.199219C18.398438 7.871094 18.667969 7.601562 19 7.601562L20 7.601562C20.222656 7.601562 20.398438 7.421875 20.398438 7.199219zM20.398438 7.199219"/>
    <path d="M 19.199219 8.398438 L 19.199219 15.601562 C 19.199219 15.820312 19.378906 16 19.601562 16 C 19.820312 16 20 15.820312 20 15.601562 L 20 8.398438 C 20 8.179688 19.820312 8 19.601562 8 C 19.378906 8 19.199219 8.179688 19.199219 8.398438 Z M 19.199219 8.398438"/>
</svg>
