<svg xmlns="http://www.w3.org/2000/svg" width="32" height="32" viewBox="0 0 24 24">
    <path d="M9.781 8.781c-.972 0-1.765.793-1.765 1.766s.793 1.765 1.765 1.765c.973 0 1.766-.792 1.766-1.765 0-.973-.793-1.766-1.766-1.766zm0 2.73a.964.964 0 1 1 0-1.928.964.964 0 0 1 0 1.929zm0 0M.398 7.602c.223 0 .403-.18.403-.403V.801h6.398a.401.401 0 0 0 0-.8L0-.001v7.2c0 .222.18.402.398.402zm0 0M23.602 16.8a.401.401 0 0 0-.403.4v6h-6a.401.401 0 0 0 0 .8H24v-6.8a.4.4 0 0 0-.398-.4zm0 0M17.2 0a.4.4 0 0 0 0 .8h6v6.4a.401.401 0 0 0 .8 0V0zm0 0M7.2 23.2H.8v-6a.401.401 0 0 0-.8 0V24h7.2a.401.401 0 1 0 0-.8zm0 0"/>
    <path d="M21.586 12.52c-.004-.028-.004-.051-.016-.079-.011-.023-.027-.043-.043-.066-.015-.02-.023-.043-.043-.063 0 0-.004 0-.004-.003l-1.898-1.875a2.042 2.042 0 0 0-.098-.09c-.476-.399-.98-.742-1.5-1.055v-.012l-.18-.105c-.011-.004-.023-.012-.034-.016-.079-.047-.16-.086-.239-.133-.203-.109-.406-.21-.61-.308-.093-.047-.19-.09-.284-.133-.246-.11-.496-.207-.746-.3-.036-.012-.07-.028-.106-.04a11.975 11.975 0 0 0-.945-.293c-.024-.004-.047-.008-.07-.015a11.356 11.356 0 0 0-.961-.207H13.8a11.887 11.887 0 0 0-5.016.21c-.058.012-.113.028-.168.043-.273.075-.543.16-.812.254a1.534 1.534 0 0 1-.125.04c-.282.105-.563.222-.84.347-.098.043-.192.09-.285.137-.106.047-.211.094-.313.148L6.06 9l-.004.012c-.703.383-1.38.832-2.016 1.363l-1.375 1.152c-.305.258-.48.633-.484 1.036 0 .398.175.777.48 1.03L4.06 14.77c.261.222.53.425.804.625a.404.404 0 0 0-.062.207.4.4 0 0 0 .398.398.391.391 0 0 0 .324-.18c.114.07.223.145.336.207a.398.398 0 0 0-.257.371.398.398 0 1 0 .796 0c0-.035-.011-.066-.02-.101.548.277 1.11.512 1.684.703a.387.387 0 0 0-.062.2c0 .222.18.402.398.402a.402.402 0 0 0 .399-.38 12.038 12.038 0 0 0 8.027-.703c.051.16.196.282.375.282.223 0 .403-.18.403-.403a.383.383 0 0 0-.086-.234 12.09 12.09 0 0 0 2.02-1.355l.097-.094 1.847-1.836s0-.004.004-.004c.02-.02.028-.043.043-.066.016-.02.035-.04.043-.067.012-.023.012-.05.016-.074.004-.023.012-.05.012-.074 0-.028-.008-.051-.012-.074zm-4.356-2.485c0 .766-.16 1.504-.48 2.195A5.254 5.254 0 0 1 12 15.266a5.25 5.25 0 0 1-4.75-3.036 5.182 5.182 0 0 1-.453-2.699c.055-.027.105-.054.16-.082.086-.039.172-.082.262-.12.218-.095.437-.188.656-.27.047-.016.09-.036.137-.051.281-.102.57-.192.86-.27.03-.008.058-.011.089-.02a11.227 11.227 0 0 1 6.523.266c.055.02.11.043.16.063.223.078.442.168.657.262.074.035.148.066.219.097.238.114.472.23.703.36.004.09.007.18.007.27zm1.84 4.113c-.015.016-.03.032-.047.043a11.226 11.226 0 0 1-14.449-.03l-1.398-1.177a.551.551 0 0 1 .004-.844l1.375-1.152c.449-.379.925-.707 1.414-1.004v.051c0 .883.183 1.735.554 2.531a6.055 6.055 0 0 0 5.477 3.5 6.053 6.053 0 0 0 5.473-3.5c.34-.726.515-1.507.547-2.312.324.219.644.45.953.707a.468.468 0 0 1 .047.043l1.613 1.59zm0 0M2.398 22a.395.395 0 0 1-.398.398.395.395 0 0 1-.398-.398c0-.223.175-.398.398-.398.223 0 .398.175.398.398zm0 0M4 22c0 .223-.18.398-.398.398a.398.398 0 1 1 0-.796c.218 0 .398.175.398.398zm0 0M5.602 22c0 .223-.18.398-.403.398a.398.398 0 1 1 0-.796c.223 0 .403.175.403.398zm0 0M4.8 21.2a.401.401 0 1 1 0 0zm0 0M6.398 21.2a.398.398 0 1 1-.796 0 .398.398 0 1 1 .796 0zm0 0M7.2 22c0 .223-.18.398-.4.398a.398.398 0 1 1 0-.796c.22 0 .4.175.4.398zm0 0M8.8 22c0 .223-.179.398-.402.398a.398.398 0 1 1 0-.796c.223 0 .403.175.403.398zm0 0M8 21.2a.401.401 0 1 1-.802.002.401.401 0 0 1 .802-.003zm0 0M3.2 21.2a.401.401 0 1 1-.803.002.401.401 0 0 1 .802-.003zm0 0M10.398 22a.395.395 0 0 1-.398.398.395.395 0 0 1-.398-.398c0-.223.175-.398.398-.398.223 0 .398.175.398.398zm0 0M12 22c0 .223-.18.398-.398.398a.398.398 0 1 1 0-.796c.218 0 .398.175.398.398zm0 0M13.602 22c0 .223-.18.398-.403.398a.398.398 0 1 1 0-.796c.223 0 .403.175.403.398zm0 0M12.8 21.2a.401.401 0 1 1 0 0zm0 0M14.398 21.2a.398.398 0 1 1-.796 0 .398.398 0 1 1 .796 0zm0 0M15.2 22c0 .223-.18.398-.4.398a.398.398 0 1 1 0-.796c.22 0 .4.175.4.398zm0 0M16.8 22c0 .223-.179.398-.402.398a.398.398 0 1 1 0-.796c.223 0 .403.175.403.398zm0 0M16 21.2a.401.401 0 1 1-.802.002.401.401 0 0 1 .802-.003zm0 0M11.2 21.2a.401.401 0 1 1-.803.002.401.401 0 0 1 .802-.003zm0 0M18.398 22a.395.395 0 0 1-.398.398.395.395 0 0 1-.398-.398c0-.223.175-.398.398-.398.223 0 .398.175.398.398zm0 0M20 22c0 .223-.18.398-.398.398a.398.398 0 1 1 0-.796c.218 0 .398.175.398.398zm0 0M21.602 22c0 .223-.18.398-.403.398a.398.398 0 1 1 0-.796c.223 0 .403.175.403.398zm0 0M20.8 21.2a.401.401 0 1 1 0 0zm0 0M22.398 21.2a.398.398 0 1 1-.796 0 .398.398 0 1 1 .796 0zm0 0M17.602 21.2a.401.401 0 1 1 0 0zm0 0M9.602 21.2a.401.401 0 1 1 0 0zm0 0M19.2 21.2a.401.401 0 1 1-.803.002.401.401 0 0 1 .802-.003zm0 0M2.398 20.398a.398.398 0 1 1-.796 0 .398.398 0 1 1 .796 0zm0 0M4 20.398a.401.401 0 1 1-.802.003.401.401 0 0 1 .802-.003zm0 0M5.602 20.398a.401.401 0 1 1 0 0zm0 0M4.8 19.602A.401.401 0 1 1 4 19.597a.401.401 0 0 1 .802.005zm0 0M6.398 19.602a.398.398 0 1 1-.796 0 .398.398 0 1 1 .796 0zm0 0M7.2 20.398a.401.401 0 1 1-.803.003.401.401 0 0 1 .802-.003zm0 0M8.8 20.398a.401.401 0 1 1 0 0zm0 0M8 19.602a.4.4 0 1 1-.8-.004.4.4 0 0 1 .8.004zm0 0M3.2 19.602a.4.4 0 1 1-.801-.004.4.4 0 0 1 .8.004zm0 0M10.398 20.398a.398.398 0 1 1-.796 0 .398.398 0 1 1 .796 0zm0 0M12 20.398a.401.401 0 1 1-.802.003.401.401 0 0 1 .802-.003zm0 0M13.602 20.398a.401.401 0 1 1 0 0zm0 0M12.8 19.602a.401.401 0 1 1-.801-.005.401.401 0 0 1 .802.005zm0 0M14.398 19.602a.398.398 0 1 1-.796 0 .398.398 0 1 1 .796 0zm0 0M15.2 20.398a.401.401 0 1 1-.803.003.401.401 0 0 1 .802-.003zm0 0M16.8 20.398a.401.401 0 1 1 0 0zm0 0M16 19.602a.4.4 0 1 1-.8-.004.4.4 0 0 1 .8.004zm0 0M11.2 19.602a.4.4 0 1 1-.801-.004.4.4 0 0 1 .8.004zm0 0M18.398 20.398a.398.398 0 1 1-.796 0 .398.398 0 1 1 .796 0zm0 0M20 20.398a.401.401 0 1 1-.802.003.401.401 0 0 1 .802-.003zm0 0M21.602 20.398a.401.401 0 1 1 0 0zm0 0M20.8 19.602a.401.401 0 1 1-.801-.005.401.401 0 0 1 .802.005zm0 0M22.398 19.602a.398.398 0 1 1-.796 0 .398.398 0 1 1 .796 0zm0 0M17.602 19.602a.401.401 0 1 1-.802-.005.401.401 0 0 1 .802.005zm0 0M9.602 19.602a.401.401 0 1 1-.802-.005.401.401 0 0 1 .802.005zm0 0M19.2 19.602a.4.4 0 1 1-.801-.004.4.4 0 0 1 .8.004zm0 0M2.398 18.8a.398.398 0 1 1-.796 0 .398.398 0 1 1 .796 0zm0 0M4 18.8a.4.4 0 1 1-.8-.003.4.4 0 0 1 .8.004zm0 0M5.602 18.8a.401.401 0 1 1-.802-.004.401.401 0 0 1 .802.005zm0 0M4.8 18c0 .223-.179.398-.402.398a.398.398 0 1 1 0-.796c.223 0 .403.175.403.398zm0 0M6.398 18a.395.395 0 0 1-.398.398.395.395 0 0 1-.398-.398c0-.223.175-.398.398-.398.223 0 .398.175.398.398zm0 0M7.2 18.8a.4.4 0 1 1-.801-.003.4.4 0 0 1 .8.004zm0 0M8.8 18.8A.401.401 0 1 1 8 18.797a.401.401 0 0 1 .802.005zm0 0M8 18c0 .223-.18.398-.398.398a.398.398 0 1 1 0-.796c.218 0 .398.175.398.398zm0 0M3.2 18c0 .223-.18.398-.4.398a.398.398 0 1 1 0-.796c.22 0 .4.175.4.398zm0 0M10.398 18.8a.398.398 0 1 1-.796 0 .398.398 0 1 1 .796 0zm0 0M12 18.8a.4.4 0 1 1-.8-.003.4.4 0 0 1 .8.004zm0 0M13.602 18.8a.401.401 0 1 1-.802-.004.401.401 0 0 1 .802.005zm0 0"/>
    <path d="M12.8 18c0 .223-.179.398-.402.398a.398.398 0 1 1 0-.796c.223 0 .403.175.403.398zm0 0M14.398 18a.395.395 0 0 1-.398.398.395.395 0 0 1-.398-.398c0-.223.175-.398.398-.398.223 0 .398.175.398.398zm0 0M15.2 18.8a.4.4 0 1 1-.801-.003.4.4 0 0 1 .8.004zm0 0M16.8 18.8a.401.401 0 1 1-.801-.004.401.401 0 0 1 .802.005zm0 0M16 18c0 .223-.18.398-.398.398a.398.398 0 1 1 0-.796c.218 0 .398.175.398.398zm0 0M11.2 18c0 .223-.18.398-.4.398a.398.398 0 1 1 0-.796c.22 0 .4.175.4.398zm0 0M18.398 18.8a.398.398 0 1 1-.796 0 .398.398 0 1 1 .796 0zm0 0M20 18.8a.4.4 0 1 1-.8-.003.4.4 0 0 1 .8.004zm0 0M21.602 18.8a.401.401 0 1 1-.802-.004.401.401 0 0 1 .802.005zm0 0M20.8 18c0 .223-.179.398-.402.398a.398.398 0 1 1 0-.796c.223 0 .403.175.403.398zm0 0M22.398 18a.395.395 0 0 1-.398.398.395.395 0 0 1-.398-.398c0-.223.175-.398.398-.398.223 0 .398.175.398.398zm0 0M17.602 18c0 .223-.18.398-.403.398a.398.398 0 1 1 0-.796c.223 0 .403.175.403.398zm0 0M9.602 18c0 .223-.18.398-.403.398a.398.398 0 1 1 0-.796c.223 0 .403.175.403.398zm0 0M19.2 18c0 .223-.18.398-.4.398a.398.398 0 1 1 0-.796c.22 0 .4.175.4.398zm0 0M2.398 17.2a.398.398 0 1 1-.796 0 .398.398 0 1 1 .796 0zm0 0M4 17.2a.401.401 0 1 1-.802.002.401.401 0 0 1 .802-.003zm0 0M5.602 17.2a.401.401 0 1 1 0 0zm0 0M4.8 16.398a.401.401 0 1 1 0 0zm0 0M7.2 17.2a.401.401 0 1 1-.803.002.401.401 0 0 1 .802-.003zm0 0M3.2 16.398a.401.401 0 1 1-.803.003.401.401 0 0 1 .802-.003zm0 0M16.8 17.2a.401.401 0 1 1 0 0zm0 0M18.398 17.2a.398.398 0 1 1-.796 0 .398.398 0 1 1 .796 0zm0 0M20 17.2a.401.401 0 1 1-.802.002.401.401 0 0 1 .802-.003zm0 0M21.602 17.2a.401.401 0 1 1 0 0zm0 0M20.8 16.398a.401.401 0 1 1 0 0zm0 0M22.398 16.398a.398.398 0 1 1-.796 0 .398.398 0 1 1 .796 0zm0 0M19.2 16.398a.401.401 0 1 1-.803.003.401.401 0 0 1 .802-.003zm0 0M2.398 15.602a.398.398 0 1 1-.796 0 .398.398 0 1 1 .796 0zm0 0M4 15.602a.4.4 0 1 1-.8-.004.4.4 0 0 1 .8.004zm0 0M3.2 14.8a.4.4 0 1 1-.801-.003.4.4 0 0 1 .8.004zm0 0M20 15.602a.4.4 0 1 1-.8-.004.4.4 0 0 1 .8.004zm0 0M21.602 15.602a.401.401 0 1 1-.802-.005.401.401 0 0 1 .802.005zm0 0M20.8 14.8a.401.401 0 1 1-.801-.004.401.401 0 0 1 .802.005zm0 0M22.398 14.8a.398.398 0 1 1-.796 0 .398.398 0 1 1 .796 0zm0 0M2.398 14a.395.395 0 0 1-.398.398.395.395 0 0 1-.398-.398c0-.223.175-.398.398-.398.223 0 .398.175.398.398zm0 0M21.602 14c0 .223-.18.398-.403.398a.398.398 0 1 1 0-.796c.223 0 .403.175.403.398zm0 0M22.398 13.2a.398.398 0 1 1-.796 0 .398.398 0 1 1 .796 0zm0 0"/>
</svg>
