<svg xmlns="http://www.w3.org/2000/svg" width="32" height="32" viewBox="0 0 24 24">
    <path d="M24 4.8a.401.401 0 0 0-.398-.402h-1.204V2.801H1.2v1.597H.4A.401.401 0 0 0 0 4.801v4c0 2.511.77 4.883 2.074 6.863.004.004.004.012.008.02 1.777 2.703 4.438 4.546 7.395 5.222.062.016.128.032.195.047.121.027.242.047.363.07.11.02.215.036.324.051a7.216 7.216 0 0 0 .727.082A9.763 9.763 0 0 0 12 21.2c.227 0 .45-.008.676-.02.078-.007.16-.015.238-.019.14-.012.281-.027.418-.043.105-.012.207-.027.309-.043.109-.015.214-.031.324-.05.12-.024.242-.044.363-.07.067-.013.129-.028.195-.044 2.957-.68 5.618-2.523 7.395-5.226.004-.004.004-.012.008-.02A12.468 12.468 0 0 0 24 8.801zm-.8.4v3.198H16V5.2zm-14.4 0h1.598v3.198H8.801zm2.4 0h1.6v3.198h-1.6zm2.402 0h1.597v3.198h-1.597zM2 3.601h19.602v.796H2zM.8 5.199H8v3.2H.8zm20.22 10.375c-.086.121-.172.242-.262.36-.07.09-.145.183-.219.273-.043.05-.086.105-.129.156-1.234 1.461-2.805 2.614-4.574 3.305a5.585 5.585 0 0 0 1.766-4.066 5.574 5.574 0 0 0-1.856-4.153c2.125.754 4 2.14 5.352 4.02-.024.035-.051.07-.078.105zm-4.22.028a4.804 4.804 0 0 1-4.8 4.796 4.804 4.804 0 0 1-4.8-4.796c0-2.649 2.152-4.801 4.8-4.801 2.648 0 4.8 2.152 4.8 4.8zm-10.402 0c0 1.601.684 3.043 1.766 4.066a11.453 11.453 0 0 1-4.57-3.3c-.047-.055-.094-.11-.137-.165-.074-.09-.144-.18-.215-.27-.09-.12-.183-.245-.27-.37l-.07-.094a11.202 11.202 0 0 1 5.352-4.02 5.574 5.574 0 0 0-1.856 4.153zm15.157-.852A11.989 11.989 0 0 0 12 10c-3.762 0-7.29 1.766-9.555 4.75A11.622 11.622 0 0 1 .81 9.2H23.19a11.622 11.622 0 0 1-1.636 5.55zm0 0"/>
    <path d="M12 19.602c2.207 0 4-1.797 4-4 0-2.207-1.793-4-4-4s-4 1.793-4 4c0 2.203 1.793 4 4 4zm0-7.204c1.766 0 3.2 1.438 3.2 3.204 0 1.761-1.434 3.199-3.2 3.199a3.203 3.203 0 0 1-3.2-3.2 3.204 3.204 0 0 1 3.2-3.203zm0 0"/>
    <path d="M13.316 16.516a.416.416 0 0 0-.117.285c0 .101.043.207.117.285.075.07.18.113.286.113a.42.42 0 0 0 .28-.113A.423.423 0 0 0 14 16.8a.416.416 0 0 0-.117-.285.416.416 0 0 0-.567 0zm0 0M11.602 14a.406.406 0 0 0 .28-.117.406.406 0 0 0 .118-.281.409.409 0 0 0-.117-.286.416.416 0 0 0-.567 0 .409.409 0 0 0-.117.286c0 .101.043.207.117.28.075.075.18.118.286.118zm0 0M12.8 14c.434 0 .802.55.802 1.2a.398.398 0 1 0 .796 0c0-1.102-.714-2-1.597-2a.401.401 0 0 0 0 .8zm0 0"/>
</svg>
