<svg xmlns="http://www.w3.org/2000/svg" width="32" height="32" viewBox="0 0 24 24">
    <path d="M7.602 17.2a.401.401 0 1 1 0 0zm0 0M10 17.2a.401.401 0 1 1-.802.002.401.401 0 0 1 .802-.003zm0 0M12.398 17.2a.398.398 0 1 1-.796 0 .398.398 0 1 1 .796 0zm0 0M7.602 14.8a.401.401 0 1 1-.802-.004.401.401 0 0 1 .802.005zm0 0M8.8 16c0 .223-.179.398-.402.398a.398.398 0 1 1 0-.796c.223 0 .403.175.403.398zm0 0M10 14.8a.4.4 0 1 1-.8-.003.4.4 0 0 1 .8.004zm0 0M11.2 16c0 .223-.18.398-.4.398a.398.398 0 1 1 0-.796c.22 0 .4.175.4.398zm0 0M12.398 14.8a.398.398 0 1 1-.796 0 .398.398 0 1 1 .796 0zm0 0M7.602 12.398a.401.401 0 1 1 0 0zm0 0M8.8 13.602A.401.401 0 1 1 8 13.597a.401.401 0 0 1 .802.005zm0 0M10 12.398a.401.401 0 1 1-.802.003.401.401 0 0 1 .802-.003zm0 0M11.2 13.602a.4.4 0 1 1-.801-.004.4.4 0 0 1 .8.004zm0 0M12.398 12.398a.398.398 0 1 1-.796 0 .398.398 0 1 1 .796 0zm0 0M7.602 10c0 .223-.18.398-.403.398a.398.398 0 1 1 0-.796c.223 0 .403.175.403.398zm0 0M8.8 11.2a.401.401 0 1 1 0 0zm0 0M10 10c0 .223-.18.398-.398.398a.398.398 0 1 1 0-.796c.218 0 .398.175.398.398zm0 0M11.2 11.2a.401.401 0 1 1-.803.002.401.401 0 0 1 .802-.003zm0 0M12.398 10a.395.395 0 0 1-.398.398.395.395 0 0 1-.398-.398c0-.223.175-.398.398-.398.223 0 .398.175.398.398zm0 0M7.602 7.602a.401.401 0 1 1-.802-.005.401.401 0 0 1 .802.005zm0 0M8.8 8.8A.401.401 0 1 1 8 8.797.401.401 0 0 1 8.8 8.8zm0 0M10 7.602a.4.4 0 1 1-.8-.004.4.4 0 0 1 .8.004zm0 0M11.2 8.8a.4.4 0 1 1-.801-.003.4.4 0 0 1 .8.004zm0 0M12.398 7.602a.398.398 0 1 1-.796 0 .398.398 0 1 1 .796 0zm0 0M8.8 6.398a.401.401 0 1 1 0 0zm0 0M10 5.2a.401.401 0 1 1-.802.002.401.401 0 0 1 .802-.003zm0 0M11.2 6.398a.401.401 0 1 1-.803.003.401.401 0 0 1 .802-.003zm0 0M12.398 5.2a.398.398 0 1 1-.796 0 .398.398 0 1 1 .796 0zm0 0"/>
    <path d="M19.602 10c0-3.969-3.23-7.2-7.204-7.2C8.43 2.8 5.2 6.032 5.2 10v8.398H4V24h16.8v-5.602h-1.198zm-9.184-6.082c-.008.027-.02.055-.02.082 0 .223.18.398.403.398A.398.398 0 0 0 11.199 4a.385.385 0 0 0-.105-.266 6.54 6.54 0 0 1 1.304-.132c3.532 0 6.403 2.87 6.403 6.398v8.398h-7.602a.4.4 0 0 0-.8 0H8.8a.401.401 0 0 0-.801 0H6.398A.398.398 0 0 0 6 18v-1.602A.395.395 0 0 0 6.398 16 .395.395 0 0 0 6 15.602V14c.223 0 .398-.18.398-.398A.398.398 0 0 0 6 13.199v-1.597c.223 0 .398-.18.398-.403A.398.398 0 0 0 6 10.801V10c0-.277.023-.547.059-.813a.392.392 0 0 0 .136-.73 6.413 6.413 0 0 1 4.223-4.539zM20 19.199v4H4.8v-4zm0 0"/>
    <path d="M6 22.398A.395.395 0 0 0 6.398 22v-1.2h3.204a.401.401 0 0 0 0-.8h-4v2c0 .223.175.398.398.398zm0 0M18.8 3.602c.102 0 .204-.04.282-.118l1.2-1.203a.396.396 0 0 0 0-.562.396.396 0 0 0-.563 0l-1.203 1.199a.4.4 0 0 0 .285.684zm0 0M12 2c.223 0 .398-.18.398-.398V.398a.398.398 0 1 0-.796 0v1.204c0 .218.175.398.398.398zm0 0M21.2 9.602h1.198a.401.401 0 0 0 0-.8L21.2 8.8a.4.4 0 0 0 0 .8zm0 0M22.398 15.2H21.2a.401.401 0 0 0 0 .8h1.2a.401.401 0 1 0 0-.8zm0 0M5.2 3.602a.4.4 0 0 0 .285-.684l-1.204-1.2a.396.396 0 0 0-.562 0 .396.396 0 0 0 0 .563l1.199 1.203c.078.079.18.118.281.118zm0 0M2.8 8.8H1.603a.401.401 0 1 0 0 .802H2.8a.401.401 0 0 0 0-.801zm0 0M2.8 15.2H1.603a.401.401 0 0 0 0 .8H2.8a.4.4 0 0 0 0-.8zm0 0"/>
</svg>
