<svg xmlns="http://www.w3.org/2000/svg" width="32" height="32" viewBox="0 0 24 24">
    <path d="M 22.800781 4.800781 L 19.199219 4.800781 L 19.199219 3.894531 C 19.6875 3.492188 20 2.882812 20 2.199219 C 20 0.988281 19.011719 0 17.800781 0 C 16.585938 0 15.601562 0.988281 15.601562 2.199219 C 15.601562 2.882812 15.910156 3.492188 16.398438 3.894531 L 16.398438 4.800781 L 7.601562 4.800781 L 7.601562 3.894531 C 8.089844 3.492188 8.398438 2.882812 8.398438 2.199219 C 8.398438 0.988281 7.414062 0 6.199219 0 C 4.988281 0 4 0.988281 4 2.199219 C 4 2.882812 4.3125 3.492188 4.800781 3.894531 L 4.800781 4.800781 L 1.199219 4.800781 C 0.980469 4.800781 0.800781 4.980469 0.800781 5.199219 L 0.800781 10 C 0.800781 10.222656 0.980469 10.398438 1.199219 10.398438 L 6.632812 10.398438 L 2.023438 23.46875 C 1.980469 23.589844 2 23.726562 2.074219 23.832031 C 2.148438 23.9375 2.269531 24 2.398438 24 L 5.199219 24 C 5.367188 24 5.515625 23.894531 5.574219 23.742188 L 7.878906 17.601562 L 16.121094 17.601562 L 18.425781 23.742188 C 18.484375 23.894531 18.632812 24 18.800781 24 L 21.601562 24 C 21.730469 24 21.851562 23.9375 21.925781 23.832031 C 22 23.726562 22.019531 23.589844 21.976562 23.46875 L 17.367188 10.398438 L 22.800781 10.398438 C 23.019531 10.398438 23.199219 10.222656 23.199219 10 L 23.199219 5.199219 C 23.199219 4.980469 23.019531 4.800781 22.800781 4.800781 Z M 16.800781 9.601562 L 13.046875 9.601562 L 15.046875 5.601562 L 18.953125 5.601562 L 16.953125 9.601562 Z M 5.046875 9.601562 L 7.046875 5.601562 L 11.351562 5.601562 L 9.351562 9.601562 Z M 10.292969 10.398438 L 13.707031 10.398438 L 14.992188 14.398438 L 9.007812 14.398438 Z M 17.800781 0.800781 C 18.570312 0.800781 19.199219 1.429688 19.199219 2.199219 C 19.199219 2.769531 18.859375 3.253906 18.371094 3.472656 C 18.339844 3.488281 18.304688 3.5 18.273438 3.511719 C 18.234375 3.527344 18.195312 3.539062 18.15625 3.546875 C 18.113281 3.558594 18.066406 3.570312 18.019531 3.578125 C 17.996094 3.582031 17.96875 3.582031 17.945312 3.585938 C 17.847656 3.59375 17.75 3.59375 17.65625 3.585938 C 17.628906 3.582031 17.605469 3.582031 17.582031 3.578125 C 17.535156 3.570312 17.488281 3.558594 17.441406 3.546875 C 17.402344 3.539062 17.367188 3.527344 17.328125 3.511719 C 17.292969 3.5 17.261719 3.488281 17.226562 3.472656 C 16.742188 3.253906 16.398438 2.769531 16.398438 2.199219 C 16.398438 1.429688 17.027344 0.800781 17.800781 0.800781 Z M 17.199219 4.316406 C 17.214844 4.320312 17.230469 4.320312 17.242188 4.324219 C 17.3125 4.34375 17.382812 4.359375 17.457031 4.371094 C 17.480469 4.375 17.5 4.378906 17.523438 4.378906 C 17.613281 4.390625 17.707031 4.398438 17.800781 4.398438 C 17.894531 4.398438 17.988281 4.390625 18.078125 4.378906 C 18.097656 4.378906 18.121094 4.375 18.144531 4.371094 C 18.214844 4.359375 18.285156 4.34375 18.355469 4.324219 C 18.371094 4.320312 18.386719 4.320312 18.398438 4.316406 L 18.398438 4.800781 L 17.199219 4.800781 Z M 14.152344 5.601562 L 12.152344 9.601562 L 10.246094 9.601562 L 12.246094 5.601562 Z M 6.199219 0.800781 C 6.972656 0.800781 7.601562 1.429688 7.601562 2.199219 C 7.601562 2.769531 7.257812 3.253906 6.773438 3.472656 C 6.738281 3.488281 6.707031 3.5 6.671875 3.511719 C 6.636719 3.527344 6.597656 3.539062 6.558594 3.546875 C 6.511719 3.558594 6.464844 3.570312 6.421875 3.578125 C 6.394531 3.582031 6.371094 3.582031 6.34375 3.585938 C 6.25 3.59375 6.152344 3.59375 6.054688 3.585938 C 6.03125 3.582031 6.003906 3.582031 5.980469 3.578125 C 5.933594 3.570312 5.886719 3.558594 5.84375 3.546875 C 5.804688 3.539062 5.765625 3.527344 5.726562 3.511719 C 5.695312 3.5 5.660156 3.488281 5.628906 3.472656 C 5.140625 3.253906 4.800781 2.769531 4.800781 2.199219 C 4.800781 1.429688 5.429688 0.800781 6.199219 0.800781 Z M 5.601562 4.316406 C 5.613281 4.320312 5.628906 4.320312 5.644531 4.324219 C 5.714844 4.34375 5.785156 4.359375 5.855469 4.371094 C 5.878906 4.375 5.902344 4.378906 5.921875 4.378906 C 6.011719 4.390625 6.105469 4.398438 6.199219 4.398438 C 6.292969 4.398438 6.386719 4.390625 6.476562 4.378906 C 6.5 4.378906 6.519531 4.375 6.542969 4.371094 C 6.617188 4.359375 6.6875 4.34375 6.757812 4.324219 C 6.769531 4.320312 6.785156 4.320312 6.800781 4.316406 L 6.800781 4.800781 L 5.601562 4.800781 Z M 3.351562 5.601562 L 1.601562 9.105469 L 1.601562 5.601562 Z M 2.246094 9.601562 L 4.246094 5.601562 L 6.152344 5.601562 L 4.152344 9.601562 Z M 19.078125 23.199219 L 16.773438 17.058594 C 16.714844 16.902344 16.566406 16.800781 16.398438 16.800781 L 7.601562 16.800781 C 7.433594 16.800781 7.285156 16.902344 7.226562 17.058594 L 4.921875 23.199219 L 2.964844 23.199219 L 7.484375 10.398438 L 9.453125 10.398438 L 8.074219 14.675781 C 8.035156 14.800781 8.058594 14.933594 8.132812 15.035156 C 8.207031 15.140625 8.328125 15.199219 8.457031 15.199219 L 15.542969 15.199219 C 15.671875 15.199219 15.792969 15.140625 15.867188 15.035156 C 15.941406 14.933594 15.964844 14.800781 15.925781 14.675781 L 14.546875 10.398438 L 16.515625 10.398438 L 21.035156 23.199219 Z M 17.847656 9.601562 L 19.847656 5.601562 L 21.753906 5.601562 L 19.753906 9.601562 Z M 20.648438 9.601562 L 22.398438 6.09375 L 22.398438 9.601562 Z M 20.648438 9.601562"/>
</svg>
