<svg xmlns="http://www.w3.org/2000/svg" width="32" height="32" viewBox="0 0 24 24">
    <path d="M 21.890625 5.359375 L 16.6875 0.175781 C 16.566406 0.0507812 16.398438 0 16.226562 0 L 5.300781 0 C 4.941406 0 4.652344 0.257812 4.652344 0.617188 L 4.652344 17.203125 C 3.097656 17.511719 1.917969 18.929688 1.917969 20.570312 C 1.917969 22.429688 3.433594 24 5.292969 24 C 5.296875 24 5.296875 24 5.300781 24 L 18.632812 24 L 18.632812 23.984375 C 18.644531 23.984375 18.65625 23.976562 18.667969 23.976562 C 20.550781 23.976562 22.082031 22.4375 22.082031 20.554688 L 22.082031 5.820312 C 22.082031 5.648438 22.011719 5.484375 21.890625 5.359375 Z M 16.878906 2.1875 L 19.859375 5.203125 L 16.878906 5.203125 Z M 15.96875 22.699219 L 5.304688 22.699219 C 4.15625 22.632812 3.21875 21.738281 3.21875 20.585938 C 3.21875 19.433594 4.15625 18.472656 5.304688 18.472656 L 15.992188 18.472656 C 15.527344 18.992188 15.253906 19.773438 15.253906 20.570312 C 15.253906 21.375 15.53125 22.121094 16 22.707031 Z M 20.78125 20.554688 C 20.78125 21.71875 19.832031 22.667969 18.667969 22.667969 C 17.5 22.667969 16.554688 21.71875 16.554688 20.554688 C 16.554688 19.402344 17.488281 18.453125 18.640625 18.4375 C 19 18.433594 19.285156 18.160156 19.285156 17.800781 C 19.28125 17.445312 18.992188 17.171875 18.632812 17.171875 L 5.953125 17.171875 L 5.953125 1.300781 L 15.578125 1.300781 L 15.578125 5.820312 C 15.578125 6.179688 15.867188 6.503906 16.226562 6.503906 L 20.78125 6.503906 Z M 20.78125 20.554688"/>
    <path d="M18.242188 9.039062L8.488281 9.039062C8.128906 9.039062 7.835938 9.332031 7.835938 9.691406 7.835938 10.050781 8.128906 10.339844 8.488281 10.339844L18.242188 10.339844C18.601562 10.339844 18.894531 10.050781 18.894531 9.691406 18.894531 9.332031 18.601562 9.039062 18.242188 9.039062zM13.625 6.4375L8.488281 6.4375C8.128906 6.4375 7.835938 6.730469 7.835938 7.089844 7.835938 7.449219 8.128906 7.738281 8.488281 7.738281L13.625 7.738281C13.984375 7.738281 14.277344 7.449219 14.277344 7.089844 14.277344 6.730469 13.984375 6.4375 13.625 6.4375zM13.625 3.835938L8.488281 3.835938C8.128906 3.835938 7.835938 4.128906 7.835938 4.488281 7.835938 4.847656 8.128906 5.136719 8.488281 5.136719L13.625 5.136719C13.984375 5.136719 14.277344 4.847656 14.277344 4.488281 14.277344 4.128906 13.984375 3.835938 13.625 3.835938zM18.242188 11.640625L8.488281 11.640625C8.128906 11.640625 7.835938 11.933594 7.835938 12.292969 7.835938 12.652344 8.128906 12.941406 8.488281 12.941406L18.242188 12.941406C18.601562 12.941406 18.894531 12.652344 18.894531 12.292969 18.894531 11.933594 18.601562 11.640625 18.242188 11.640625zM18.242188 14.242188L8.488281 14.242188C8.128906 14.242188 7.835938 14.535156 7.835938 14.894531 7.835938 15.253906 8.128906 15.542969 8.488281 15.542969L18.242188 15.542969C18.601562 15.542969 18.894531 15.253906 18.894531 14.894531 18.894531 14.535156 18.601562 14.242188 18.242188 14.242188zM18.242188 14.242188"/>
</svg>
