<svg xmlns="http://www.w3.org/2000/svg" width="32" height="32" viewBox="0 0 24 24">
    <path d="M 23.976562 3.6875 C 23.886719 3.441406 23.65625 3.28125 23.394531 3.28125 L 0.640625 3.28125 C 0.378906 3.28125 0.144531 3.441406 0.0546875 3.6875 C 0.0273438 3.761719 0 3.839844 0 3.917969 C 0 3.917969 0 20.117188 0 20.117188 C 0 20.460938 0.3125 20.71875 0.660156 20.71875 L 23.394531 20.71875 C 23.738281 20.71875 23.980469 20.460938 23.980469 20.117188 C 23.980469 20.117188 24 3.917969 24 3.917969 C 24 3.839844 24.003906 3.761719 23.976562 3.6875 Z M 21.675781 4.523438 L 12.027344 12.71875 L 2.378906 4.523438 Z M 1.246094 5.25 L 9.195312 12 L 1.246094 18.75 Z M 2.355469 19.476562 L 10.191406 12.816406 L 11.621094 14.03125 C 11.738281 14.128906 11.882812 14.179688 12.027344 14.179688 C 12.167969 14.179688 12.3125 14.128906 12.429688 14.03125 L 13.859375 12.816406 L 21.699219 19.476562 Z M 22.734375 18.75 L 14.785156 12 L 22.734375 5.25 Z M 22.734375 18.75"/>
</svg>
