<svg xmlns="http://www.w3.org/2000/svg" width="32" height="32" viewBox="0 0 24 24">
    <path d="M 12 0 C 5.382812 0 0 5.382812 0 12 C 0 18.617188 5.382812 24 12 24 C 18.617188 24 24 18.617188 24 12 C 24 5.382812 18.617188 0 12 0 Z M 12 22.855469 C 6.011719 22.855469 1.144531 17.988281 1.144531 12 C 1.144531 6.011719 6.011719 1.144531 12 1.144531 C 17.988281 1.144531 22.855469 6.011719 22.855469 12 C 22.855469 17.988281 17.988281 22.855469 12 22.855469 Z M 12 22.855469"/>
    <path d="M18.171875 4.746094C18.164062 4.582031 18.082031 4.429688 17.953125 4.328125 16.234375 2.992188 14.175781 2.285156 12 2.285156 6.644531 2.285156 2.285156 6.644531 2.285156 12 2.285156 14.175781 2.992188 16.234375 4.328125 17.953125 4.429688 18.082031 4.582031 18.164062 4.746094 18.171875 4.757812 18.175781 4.769531 18.175781 4.78125 18.175781 4.929688 18.175781 5.078125 18.113281 5.183594 18.007812L18.007812 5.183594C18.125 5.070312 18.183594 4.910156 18.171875 4.746094zM4.851562 16.722656C3.917969 15.320312 3.429688 13.703125 3.429688 12 3.429688 7.273438 7.273438 3.429688 12 3.429688 13.703125 3.429688 15.320312 3.917969 16.722656 4.851562zM19.671875 6.046875C19.570312 5.917969 19.417969 5.835938 19.253906 5.828125 19.089844 5.816406 18.929688 5.875 18.816406 5.992188L5.992188 18.816406C5.875 18.929688 5.816406 19.089844 5.828125 19.253906 5.835938 19.417969 5.917969 19.570312 6.046875 19.671875 7.765625 21.007812 9.824219 21.714844 12 21.714844 17.355469 21.714844 21.714844 17.355469 21.714844 12 21.714844 9.824219 21.007812 7.765625 19.671875 6.046875zM12 20.570312C10.296875 20.570312 8.679688 20.082031 7.277344 19.148438L19.148438 7.277344C20.082031 8.679688 20.570312 10.296875 20.570312 12 20.570312 16.726562 16.726562 20.570312 12 20.570312zM12 20.570312"/>
</svg>
