<svg xmlns="http://www.w3.org/2000/svg" width="32" height="32" viewBox="0 0 24 24">
    <path d="M 23.375 9.988281 L 20.972656 8.105469 L 20.972656 0.960938 C 20.972656 0.582031 20.699219 0.273438 20.320312 0.273438 L 17.570312 0.273438 C 17.191406 0.273438 16.847656 0.582031 16.847656 0.960938 L 16.847656 4.867188 L 12.453125 1.40625 C 12.203125 1.210938 11.863281 1.210938 11.613281 1.40625 L 0.636719 10 C 0.242188 10.308594 0 10.777344 0 11.285156 L 0 12.121094 C 0 13.019531 0.765625 13.753906 1.667969 13.753906 L 2.75 13.753906 L 2.75 23.039062 C 2.75 23.417969 3.09375 23.726562 3.472656 23.726562 L 20.597656 23.726562 C 20.976562 23.726562 21.25 23.417969 21.25 23.039062 L 21.25 13.753906 L 22.402344 13.753906 C 23.300781 13.753906 24 13.019531 24 12.121094 L 24 11.273438 C 24 10.769531 23.773438 10.300781 23.375 9.988281 Z M 18.222656 1.652344 L 19.597656 1.652344 L 19.597656 7.027344 L 18.222656 5.945312 Z M 14.304688 22.347656 L 9.628906 22.347656 L 9.628906 14.855469 L 14.304688 14.855469 Z M 19.875 22.347656 L 15.679688 22.347656 L 15.679688 14.167969 C 15.679688 13.785156 15.441406 13.480469 15.058594 13.480469 L 9.007812 13.480469 C 8.628906 13.480469 8.253906 13.785156 8.253906 14.167969 L 8.253906 22.347656 L 4.125 22.347656 L 4.125 12.496094 L 12.011719 6.316406 L 19.875 12.484375 Z M 22.625 12.121094 C 22.625 12.261719 22.542969 12.378906 22.402344 12.378906 L 21.25 12.378906 L 21.25 12.152344 C 21.25 11.941406 21.167969 11.742188 21.003906 11.609375 L 12.460938 4.902344 C 12.210938 4.707031 11.863281 4.707031 11.617188 4.902344 L 3.027344 11.621094 C 2.863281 11.75 2.75 11.949219 2.75 12.164062 L 2.75 12.378906 L 1.667969 12.378906 C 1.527344 12.378906 1.375 12.261719 1.375 12.121094 L 1.375 11.285156 C 1.375 11.203125 1.429688 11.128906 1.492188 11.082031 L 12.035156 2.820312 L 22.539062 11.070312 C 22.601562 11.121094 22.625 11.195312 22.625 11.273438 Z M 22.625 12.121094"/>
</svg>
