<svg xmlns="http://www.w3.org/2000/svg" width="32" height="32" viewBox="0 0 24 24">
    <path d="M20.820312 13.664062L16.164062 9.523438C15.910156 9.296875 15.519531 9.320312 15.292969 9.574219 15.066406 9.828125 15.089844 10.214844 15.34375 10.441406L19.484375 14.125 15.34375 17.804688C15.089844 18.03125 15.066406 18.417969 15.292969 18.671875 15.414062 18.808594 15.585938 18.878906 15.753906 18.878906 15.898438 18.878906 16.046875 18.828125 16.164062 18.722656L20.820312 14.582031C20.949219 14.464844 21.027344 14.296875 21.027344 14.125 21.027344 13.949219 20.949219 13.78125 20.820312 13.664062zM8.65625 17.804688L4.515625 14.125 8.65625 10.441406C8.910156 10.214844 8.933594 9.828125 8.707031 9.574219 8.480469 9.320312 8.089844 9.296875 7.835938 9.523438L3.179688 13.664062C3.050781 13.78125 2.972656 13.949219 2.972656 14.121094 2.972656 14.296875 3.050781 14.464844 3.179688 14.582031L7.835938 18.722656C7.953125 18.828125 8.101562 18.878906 8.246094 18.878906 8.414062 18.878906 8.585938 18.808594 8.707031 18.671875 8.933594 18.417969 8.910156 18.03125 8.65625 17.804688zM13.46875 9.214844C13.144531 9.117188 12.800781 9.300781 12.703125 9.625L10.117188 18.160156C10.019531 18.484375 10.203125 18.828125 10.53125 18.925781 10.589844 18.945312 10.648438 18.953125 10.707031 18.953125 10.972656 18.953125 11.214844 18.78125 11.296875 18.515625L13.882812 9.984375C13.980469 9.660156 13.796875 9.316406 13.46875 9.214844zM13.46875 9.214844"/>
    <path d="M 23.382812 0 L 0.617188 0 C 0.277344 0 0 0.277344 0 0.617188 L 0 23.382812 C 0 23.722656 0.277344 24 0.617188 24 L 23.382812 24 C 23.722656 24 24 23.722656 24 23.382812 L 24 0.617188 C 24 0.277344 23.722656 0 23.382812 0 Z M 4.921875 1.230469 L 19.078125 1.230469 L 19.078125 3.691406 L 4.921875 3.691406 Z M 1.230469 1.230469 L 3.691406 1.230469 L 3.691406 3.691406 L 1.230469 3.691406 Z M 22.769531 22.769531 L 1.230469 22.769531 L 1.230469 4.921875 L 22.769531 4.921875 Z M 22.769531 3.691406 L 20.308594 3.691406 L 20.308594 1.230469 L 22.769531 1.230469 Z M 22.769531 3.691406"/>
</svg>
