<svg xmlns="http://www.w3.org/2000/svg" width="32" height="32" viewBox="0 0 24 24">
    <path d="M 12 0 C 5.382812 0 0 5.382812 0 12 C 0 18.617188 5.382812 24 12 24 C 18.617188 24 24 18.617188 24 12 C 24 5.382812 18.617188 0 12 0 Z M 12 22.855469 C 6.011719 22.855469 1.144531 17.988281 1.144531 12 C 1.144531 6.011719 6.011719 1.144531 12 1.144531 C 17.988281 1.144531 22.855469 6.011719 22.855469 12 C 22.855469 17.988281 17.988281 22.855469 12 22.855469 Z M 12 22.855469"/>
    <path d="M 12 2.285156 C 6.644531 2.285156 2.285156 6.644531 2.285156 12 C 2.285156 17.355469 6.644531 21.714844 12 21.714844 C 17.355469 21.714844 21.714844 17.355469 21.714844 12 C 21.714844 6.644531 17.355469 2.285156 12 2.285156 Z M 12 20.570312 C 7.273438 20.570312 3.429688 16.726562 3.429688 12 C 3.429688 7.273438 7.273438 3.429688 12 3.429688 C 16.726562 3.429688 20.570312 7.273438 20.570312 12 C 20.570312 16.726562 16.726562 20.570312 12 20.570312 Z M 12 20.570312"/>
    <path d="M13.429688 10L10.570312 10C10.253906 10 10 10.253906 10 10.570312L10 18.570312C10 18.886719 10.257812 19.144531 10.570312 19.144531L13.429688 19.144531C13.746094 19.144531 14 18.886719 14 18.570312L14 10.570312C14 10.253906 13.746094 10 13.429688 10zM12.855469 18L11.144531 18 11.144531 11.144531 12.855469 11.144531zM12 4.855469C10.898438 4.855469 10 5.753906 10 6.855469 10 7.960938 10.898438 8.855469 12 8.855469 13.101562 8.855469 14 7.960938 14 6.855469 14 5.753906 13.101562 4.855469 12 4.855469zM12 7.714844C11.527344 7.714844 11.144531 7.328125 11.144531 6.855469 11.144531 6.382812 11.527344 6 12 6 12.472656 6 12.855469 6.382812 12.855469 6.855469 12.855469 7.328125 12.472656 7.714844 12 7.714844zM12 7.714844"/>
</svg>
