<svg xmlns="http://www.w3.org/2000/svg" width="32" height="32" viewBox="0 0 24 24">
    <path d="M 23.382812 0 L 0.617188 0 C 0.277344 0 0 0.277344 0 0.617188 L 0 23.382812 C 0 23.722656 0.277344 24 0.617188 24 L 23.382812 24 C 23.722656 24 24 23.722656 24 23.382812 L 24 0.617188 C 24 0.277344 23.722656 0 23.382812 0 Z M 22.769531 22.769531 L 1.230469 22.769531 L 1.230469 1.230469 L 22.769531 1.230469 Z M 22.769531 22.769531"/>
    <path d="M 20.921875 2.460938 L 3.078125 2.460938 C 2.738281 2.460938 2.460938 2.738281 2.460938 3.078125 L 2.460938 20.921875 C 2.460938 21.261719 2.738281 21.539062 3.078125 21.539062 L 20.921875 21.539062 C 21.261719 21.539062 21.539062 21.261719 21.539062 20.921875 L 21.539062 3.078125 C 21.539062 2.738281 21.261719 2.460938 20.921875 2.460938 Z M 20.308594 20.308594 L 3.691406 20.308594 L 3.691406 3.691406 L 20.308594 3.691406 Z M 20.308594 20.308594"/>
    <path d="M17.230469 11.382812L6.769531 11.382812C6.429688 11.382812 6.152344 11.660156 6.152344 12 6.152344 12.339844 6.429688 12.617188 6.769531 12.617188L17.230469 12.617188C17.570312 12.617188 17.847656 12.339844 17.847656 12 17.847656 11.660156 17.570312 11.382812 17.230469 11.382812zM17.230469 7.691406L6.769531 7.691406C6.429688 7.691406 6.152344 7.96875 6.152344 8.308594 6.152344 8.648438 6.429688 8.921875 6.769531 8.921875L17.230469 8.921875C17.570312 8.921875 17.847656 8.648438 17.847656 8.308594 17.847656 7.96875 17.570312 7.691406 17.230469 7.691406zM17.230469 15.078125L6.769531 15.078125C6.429688 15.078125 6.152344 15.351562 6.152344 15.691406 6.152344 16.03125 6.429688 16.308594 6.769531 16.308594L17.230469 16.308594C17.570312 16.308594 17.847656 16.03125 17.847656 15.691406 17.847656 15.351562 17.570312 15.078125 17.230469 15.078125zM17.230469 15.078125"/>
</svg>
