<svg xmlns="http://www.w3.org/2000/svg" width="32" height="32" viewBox="0 0 24 24">
    <path d="M 19.484375 0 L 4.515625 0 C 4.203125 0 3.953125 0.253906 3.953125 0.570312 L 3.953125 23.429688 C 3.953125 23.746094 4.203125 24 4.515625 24 L 19.484375 24 C 19.796875 24 20.046875 23.746094 20.046875 23.429688 L 20.046875 0.570312 C 20.046875 0.253906 19.796875 0 19.484375 0 Z M 18.878906 22.828125 L 5.121094 22.828125 L 5.121094 21.191406 L 18.878906 21.191406 Z M 18.878906 20.019531 L 5.121094 20.019531 L 5.121094 3.921875 L 18.878906 3.921875 Z M 18.878906 2.75 L 5.121094 2.75 L 5.121094 1.171875 L 18.878906 1.171875 Z M 18.878906 2.75"/>
    <path d="M 12.027344 6.90625 C 11.707031 6.90625 11.445312 7.167969 11.445312 7.492188 L 11.445312 12.878906 C 11.445312 13.203125 11.707031 13.464844 12.027344 13.464844 C 12.351562 13.464844 12.613281 13.203125 12.613281 12.878906 L 12.613281 7.492188 C 12.613281 7.167969 12.351562 6.90625 12.027344 6.90625 Z M 12.027344 6.90625"/>
    <path d="M 14.5625 9.402344 C 14.300781 9.210938 13.9375 9.265625 13.742188 9.523438 C 13.550781 9.785156 13.609375 10.152344 13.867188 10.34375 C 14.652344 10.921875 15.121094 11.847656 15.121094 12.820312 C 15.121094 14.515625 13.742188 15.890625 12.050781 15.890625 C 10.355469 15.890625 8.976562 14.515625 8.976562 12.820312 C 8.976562 11.847656 9.445312 10.921875 10.230469 10.34375 C 10.492188 10.152344 10.546875 9.785156 10.355469 9.523438 C 10.164062 9.265625 9.796875 9.210938 9.535156 9.402344 C 8.453125 10.199219 7.804688 11.476562 7.804688 12.820312 C 7.804688 15.160156 9.707031 17.0625 12.050781 17.0625 C 14.390625 17.0625 16.292969 15.160156 16.292969 12.820312 C 16.292969 11.476562 15.644531 10.199219 14.5625 9.402344 Z M 14.5625 9.402344"/>
</svg>
