<svg xmlns="http://www.w3.org/2000/svg" width="32" height="32" viewBox="0 0 24 24">
    <path d="M 20.453125 0.996094 C 14.921875 -0.332031 9.078125 -0.332031 3.546875 0.996094 C 3.28125 1.058594 3.097656 1.292969 3.097656 1.566406 L 3.097656 14.941406 C 3.097656 16.714844 3.9375 18.320312 5.40625 19.339844 C 7.550781 20.824219 9.730469 22.449219 11.648438 23.882812 C 11.753906 23.960938 11.875 24 12 24 C 12.125 24 12.246094 23.960938 12.351562 23.882812 C 14.273438 22.445312 16.449219 20.816406 18.597656 19.328125 C 20.0625 18.308594 20.902344 16.707031 20.902344 14.933594 L 20.902344 1.566406 C 20.902344 1.292969 20.71875 1.058594 20.453125 0.996094 Z M 19.730469 14.933594 C 19.730469 16.316406 19.074219 17.566406 17.929688 18.363281 C 15.894531 19.773438 13.839844 21.304688 12 22.683594 C 10.160156 21.308594 8.105469 19.78125 6.074219 18.378906 C 4.925781 17.578125 4.269531 16.328125 4.269531 14.941406 L 4.269531 2.03125 C 9.363281 0.886719 14.636719 0.886719 19.730469 2.03125 Z M 19.730469 14.933594"/>
    <path d="M 18.078125 2.886719 C 16.078125 2.523438 14.03125 2.339844 12 2.339844 C 9.96875 2.339844 7.921875 2.523438 5.921875 2.886719 C 5.640625 2.9375 5.441406 3.179688 5.441406 3.464844 L 5.441406 14.941406 C 5.441406 15.9375 5.914062 16.839844 6.738281 17.414062 C 8.484375 18.621094 10.199219 19.882812 11.648438 20.960938 C 11.753906 21.039062 11.875 21.078125 12 21.078125 C 12.121094 21.078125 12.246094 21.039062 12.347656 20.960938 C 13.796875 19.878906 15.515625 18.613281 17.261719 17.402344 C 18.085938 16.828125 18.558594 15.929688 18.558594 14.933594 L 18.558594 3.464844 C 18.558594 3.179688 18.359375 2.9375 18.078125 2.886719 Z M 16.59375 16.441406 C 14.972656 17.566406 13.378906 18.734375 12 19.761719 C 10.617188 18.738281 9.027344 17.570312 7.40625 16.449219 C 6.902344 16.097656 6.613281 15.550781 6.613281 14.941406 L 6.613281 3.957031 C 8.367188 3.660156 10.199219 3.507812 12 3.507812 C 13.800781 3.507812 15.632812 3.660156 17.386719 3.957031 L 17.386719 14.933594 C 17.386719 15.539062 17.097656 16.089844 16.59375 16.441406 Z M 16.59375 16.441406"/>
    <path d="M 15.945312 8.199219 C 15.707031 7.980469 15.335938 8 15.121094 8.238281 L 11.359375 12.386719 L 9.527344 10.527344 C 9.300781 10.296875 8.929688 10.292969 8.699219 10.519531 C 8.46875 10.746094 8.464844 11.117188 8.691406 11.347656 L 10.957031 13.652344 C 11.066406 13.761719 11.21875 13.828125 11.375 13.828125 C 11.378906 13.828125 11.382812 13.828125 11.386719 13.828125 C 11.546875 13.824219 11.699219 13.753906 11.808594 13.632812 L 15.988281 9.027344 C 16.203125 8.785156 16.1875 8.417969 15.945312 8.199219 Z M 15.945312 8.199219"/>
</svg>
