<svg xmlns="http://www.w3.org/2000/svg" width="32" height="32" viewBox="0 0 24 24">
    <path d="M 18.144531 8.214844 L 12.464844 0.75 C 12.355469 0.605469 12.183594 0.519531 12 0.519531 C 11.816406 0.519531 11.644531 0.605469 11.535156 0.75 L 5.855469 8.214844 C 5.710938 8.40625 5.695312 8.664062 5.816406 8.867188 C 5.9375 9.074219 6.171875 9.183594 6.40625 9.148438 L 9.71875 8.664062 L 9.71875 16.765625 C 9.71875 17.089844 9.980469 17.335938 10.300781 17.335938 L 13.816406 17.335938 C 14.136719 17.335938 14.398438 17.089844 14.398438 16.765625 L 14.398438 8.664062 L 17.589844 9.148438 C 17.824219 9.183594 18.058594 9.074219 18.183594 8.871094 C 18.304688 8.664062 18.289062 8.40625 18.144531 8.214844 Z M 13.902344 7.40625 C 13.734375 7.378906 13.5625 7.429688 13.433594 7.542969 C 13.304688 7.652344 13.230469 7.816406 13.230469 7.984375 L 13.230469 16.164062 L 10.886719 16.164062 L 10.886719 7.984375 C 10.886719 7.816406 10.8125 7.652344 10.683594 7.542969 C 10.554688 7.429688 10.386719 7.382812 10.21875 7.40625 L 7.65625 7.78125 L 12 2.070312 L 16.339844 7.777344 Z M 13.902344 7.40625"/>
    <path d="M 22.242188 5.335938 L 20.019531 5.335938 C 19.695312 5.335938 19.433594 5.613281 19.433594 5.9375 L 19.433594 8.277344 C 19.433594 8.601562 19.695312 8.847656 20.019531 8.847656 L 20.488281 8.847656 L 20.488281 19.96875 L 3.511719 19.96875 L 3.511719 8.847656 L 3.980469 8.847656 C 4.304688 8.847656 4.566406 8.601562 4.566406 8.277344 L 4.566406 5.9375 C 4.566406 5.613281 4.304688 5.335938 3.980469 5.335938 L 1.757812 5.335938 C 0.789062 5.335938 0 6.140625 0 7.105469 L 0 21.742188 C 0 22.710938 0.789062 23.480469 1.757812 23.480469 L 22.242188 23.480469 C 23.210938 23.480469 24 22.710938 24 21.742188 L 24 7.105469 C 24 6.140625 23.210938 5.335938 22.242188 5.335938 Z M 22.828125 21.742188 C 22.828125 22.0625 22.566406 22.308594 22.242188 22.308594 L 1.757812 22.308594 C 1.433594 22.308594 1.171875 22.0625 1.171875 21.742188 L 1.171875 7.105469 C 1.171875 6.785156 1.433594 6.503906 1.757812 6.503906 L 3.394531 6.503906 L 3.394531 7.675781 L 2.925781 7.675781 C 2.605469 7.675781 2.339844 7.953125 2.339844 8.277344 L 2.339844 20.570312 C 2.339844 20.894531 2.605469 21.140625 2.925781 21.140625 L 21.074219 21.140625 C 21.394531 21.140625 21.660156 20.894531 21.660156 20.570312 L 21.660156 8.277344 C 21.660156 7.953125 21.394531 7.675781 21.074219 7.675781 L 20.605469 7.675781 L 20.605469 6.503906 L 22.242188 6.503906 C 22.566406 6.503906 22.828125 6.785156 22.828125 7.105469 Z M 22.828125 21.742188"/>
</svg>
