<svg xmlns="http://www.w3.org/2000/svg" width="32" height="32" viewBox="0 0 24 24">
    <path d="M 12 0 C 5.382812 0 0 5.382812 0 12 C 0 18.617188 5.382812 24 12 24 C 18.617188 24 24 18.617188 24 12 C 24 5.382812 18.617188 0 12 0 Z M 12 22.855469 C 6.011719 22.855469 1.144531 17.988281 1.144531 12 C 1.144531 6.011719 6.011719 1.144531 12 1.144531 C 17.988281 1.144531 22.855469 6.011719 22.855469 12 C 22.855469 17.988281 17.988281 22.855469 12 22.855469 Z M 12 22.855469"/>
    <path d="M 12 2.285156 C 6.644531 2.285156 2.285156 6.644531 2.285156 12 C 2.285156 17.355469 6.644531 21.714844 12 21.714844 C 17.355469 21.714844 21.714844 17.355469 21.714844 12 C 21.714844 6.644531 17.355469 2.285156 12 2.285156 Z M 12 20.570312 C 7.273438 20.570312 3.429688 16.726562 3.429688 12 C 3.429688 7.273438 7.273438 3.429688 12 3.429688 C 16.726562 3.429688 20.570312 7.273438 20.570312 12 C 20.570312 16.726562 16.726562 20.570312 12 20.570312 Z M 12 20.570312"/>
    <path d="M16.824219 10.429688L12.421875 5.253906C12.3125 5.128906 12.15625 5.054688 11.988281 5.054688 11.820312 5.054688 11.660156 5.128906 11.550781 5.253906L7.152344 10.429688C7 10.609375 6.972656 10.863281 7.085938 11.070312 7.195312 11.277344 7.421875 11.394531 7.65625 11.367188L9.769531 11.105469 9.769531 16.113281C9.769531 16.429688 10.027344 16.6875 10.34375 16.6875L13.769531 16.6875C14.085938 16.6875 14.34375 16.429688 14.34375 16.113281L14.34375 11.109375 16.3125 11.367188C16.546875 11.398438 16.777344 11.28125 16.890625 11.074219 17.003906 10.867188 16.976562 10.609375 16.824219 10.429688zM13.84375 9.890625C13.683594 9.871094 13.519531 9.917969 13.394531 10.027344 13.269531 10.136719 13.199219 10.292969 13.199219 10.457031L13.199219 15.542969 10.914062 15.542969 10.914062 10.457031C10.914062 10.292969 10.84375 10.136719 10.722656 10.027344 10.597656 9.921875 10.433594 9.871094 10.273438 9.890625L8.972656 10.050781 11.988281 6.507812 14.992188 10.039062zM14.515625 17.828125L9.484375 17.828125C9.171875 17.828125 8.914062 18.085938 8.914062 18.398438 8.914062 18.714844 9.171875 18.972656 9.484375 18.972656L14.515625 18.972656C14.828125 18.972656 15.085938 18.714844 15.085938 18.398438 15.085938 18.085938 14.828125 17.828125 14.515625 17.828125zM14.515625 17.828125"/>
</svg>
