<svg xmlns="http://www.w3.org/2000/svg" width="32" height="32" viewBox="0 0 24 24">
    <path d="M23.762 3.176a.402.402 0 0 0-.297-.336.4.4 0 0 0-.426.14c-1.832 2.313-3.68 3.938-5.496 4.836a2.026 2.026 0 0 1-1.637.07A1.986 1.986 0 0 1 14.77 6.73c-.454-1.21-.489-3.675-.48-4.68a.471.471 0 0 0-.403-.468.476.476 0 0 0-.524.324c-.191.606-.582 1.328-1.363 1.328-.61 0-1.035-.43-1.273-1.273a.475.475 0 0 0-.93.117c-.02.996-.117 3.45-.57 4.652-.2.536-.602.946-1.133 1.157a2.026 2.026 0 0 1-1.637-.07C4.641 6.917 2.789 5.292.961 2.98a.4.4 0 0 0-.426-.14.406.406 0 0 0-.297.336c-.054.379-1.308 9.367 2.54 12.215.456.336 1.038.421 1.59.218a2.504 2.504 0 0 1 2.296.32c.668.473 1.047 1.2 1.04 1.997 0 .164-.013.336-.036.508-.07.246-.363 1.46.598 2.164a.399.399 0 0 0 .367.058.404.404 0 0 0 .262-.265c.054-.172.289-.7.644-.868.149-.066.3-.07.484 0 .184.13 1.239.934 1.418 2.54a.41.41 0 0 0 .407.363h.011a.409.409 0 0 0 .395-.39 3.15 3.15 0 0 1 1.406-2.509c.824-.304 1.465.914 1.469.926a.437.437 0 0 0 .27.215.41.41 0 0 0 .335-.07c.961-.703.668-1.918.598-2.164a3.741 3.741 0 0 1-.035-.508c-.008-.797.371-1.524 1.039-1.996a2.518 2.518 0 0 1 2.32-.309c.528.191 1.11.106 1.563-.23 3.851-2.848 2.597-11.836 2.543-12.215zM4.059 14.852a.842.842 0 0 1-.793-.118C1 13.063.746 8.72.84 5.891c.906 4.129 2.273 7.414 3.648 8.84-.144.03-.289.07-.43.12zm12.804.414a3.2 3.2 0 0 0-1.383 2.668c0 .21.016.425.047.644.004.024.008.047.016.074.004.004.164.504-.008.926-.469-.598-1.262-1.183-2.21-.797a.132.132 0 0 0-.048.024c-.05.027-.937.547-1.46 1.648-.536-1.09-1.34-1.61-1.387-1.64-.02-.012-.04-.024-.063-.032a1.577 1.577 0 0 0-.597-.125c-.2 0-.395.043-.575.13-.34.16-.59.437-.761.702-.118-.394.015-.812.023-.84.008-.023.012-.046.016-.07.03-.219.047-.437.047-.648a3.21 3.21 0 0 0-1.383-2.668 3.33 3.33 0 0 0-1.188-.524.415.415 0 0 0-.133-.062c-1.117-.262-3.168-3.801-4.363-9.852 1.54 1.707 3.094 2.961 4.645 3.727a2.85 2.85 0 0 0 2.297.094 2.817 2.817 0 0 0 1.597-1.63c.344-.91.5-2.378.57-3.613.376.422.864.649 1.438.649.586 0 1.094-.239 1.488-.68.043 1.242.172 2.723.52 3.645.277.742.86 1.336 1.597 1.629a2.836 2.836 0 0 0 2.297-.094c1.594-.79 3.192-2.094 4.774-3.875-1.192 6.14-3.266 9.738-4.39 10-.02.004-.032.02-.052.023a3.37 3.37 0 0 0-1.37.567zm3.871-.532a.876.876 0 0 1-.824.11 2.876 2.876 0 0 0-.312-.094c1.336-1.371 2.664-4.5 3.57-8.457.059 2.82-.273 6.844-2.434 8.441zm0 0"/>
</svg>
