<svg xmlns="http://www.w3.org/2000/svg" width="32" height="32" viewBox="0 0 24 24">
    <path d="M17.492 17.898h-.867l.39-.59a.405.405 0 1 0-.675-.449l-.692 1.04h-.597-.004c-.16-.34-.45-.606-.809-.731v-.68l1.04-.691a.409.409 0 0 0 .113-.567.404.404 0 0 0-.567-.109l-.586.39v-.866a.406.406 0 0 0-.406-.407c-.227 0-.41.18-.41.407v.867l-.586-.39a.4.4 0 0 0-.563.108.411.411 0 0 0 .11.567l1.039.691v.649c-.211.054-.41.156-.578.308-.14.13-.25.285-.328.453h-.5l-.696-1.039a.405.405 0 1 0-.676.45l.391.59h-.867a.406.406 0 1 0 0 .813l.867-.001-.39.59a.404.404 0 0 0 .113.562c.07.047.148.07.226.07a.408.408 0 0 0 .336-.183l.696-1.04h.39a1.4 1.4 0 0 0 1.016 1.118v.293l-1.04.692a.411.411 0 0 0-.109.566c.079.117.207.18.336.18.079 0 .157-.02.227-.067l.586-.394v.867c0 .226.183.406.41.406.223 0 .406-.18.406-.406v-.867l.586.394c.07.047.149.067.227.067a.406.406 0 0 0 .226-.747l-1.039-.69v-.325a1.39 1.39 0 0 0 .914-1.086h.489l.687 1.078a.41.41 0 0 0 .344.188.41.41 0 0 0 .219-.067.406.406 0 0 0 .125-.562l-.407-.637h.883a.406.406 0 1 0 0-.813zm-3.738 1.165a.58.58 0 0 1-.55-.61.576.576 0 0 1 .577-.555h.031c.32.016.567.29.555.61a.585.585 0 0 1-.613.555zm0 0"/>
    <path d="M21.543 9.027c.004-.023.016-.05.016-.078V7.32a.406.406 0 0 0-.407-.406h-1.218V.406a.408.408 0 0 0-.817 0v6.508h-1.219a.406.406 0 0 0-.406.406v1.63c0 .027.012.054.016.077a4.483 4.483 0 0 0-2.445 3.723 4.917 4.917 0 0 0-.418-.074V11.39a.406.406 0 0 0-.407-.407h-.406V.406a.408.408 0 0 0-.816 0v10.578h-.813a.403.403 0 0 0-.406.407v1.601c-.145.055-.281.117-.418.18A5.7 5.7 0 0 0 7.73 8.109V6.508a.41.41 0 0 0-.41-.406H6.102V.406a.406.406 0 1 0-.813 0v5.696H4.066a.408.408 0 0 0-.406.406v1.601C1.523 8.934 0 11 0 13.422a5.701 5.701 0 0 0 5.695 5.695c.852 0 1.688-.191 2.453-.558A5.697 5.697 0 0 0 13.832 24a5.701 5.701 0 0 0 5.695-5.695 5.66 5.66 0 0 0-.066-.817c.02 0 .043.004.066.004A4.48 4.48 0 0 0 24 13.016c0-1.739-1-3.246-2.457-3.989zm-3.238-.484V7.73h2.441v.813zm-5.696 4.066v-.812h1.223v.812zM4.473 7.73v-.816h2.441v.816zm-3.66 5.692a4.886 4.886 0 0 1 4.882-4.879 4.886 4.886 0 0 1 4.883 4.879c0 .074-.004.148-.008.219-.03.02-.058.046-.086.066-.117.086-.23.172-.34.266-.062.05-.12.109-.18.164-.077.07-.152.14-.222.21-.07.079-.14.153-.207.231a3.611 3.611 0 0 0-.156.188 4.856 4.856 0 0 0-.328.457 4.301 4.301 0 0 0-.176.285l-.117.222c-.047.09-.09.18-.13.27a6.731 6.731 0 0 0-.198.516 4.83 4.83 0 0 0-.117.406 4.71 4.71 0 0 0-.125.668c-.004.012-.008.02-.008.031-.754.45-1.61.684-2.485.684a4.887 4.887 0 0 1-4.883-4.883zm13.019 9.765a4.89 4.89 0 0 1-4.883-4.882 5 5 0 0 1 .234-1.496c.012-.028.024-.055.032-.082.047-.13.094-.258.152-.387.028-.063.059-.125.09-.188a2.69 2.69 0 0 1 .137-.257c.039-.075.082-.141.125-.211.047-.075.097-.149.148-.22.051-.066.098-.132.149-.198.062-.079.129-.153.195-.227.047-.047.09-.101.137-.148.246-.25.52-.477.82-.672.766-.5 1.68-.797 2.664-.797.492 0 .969.078 1.422.215l.074.023.059.024c.144.046.289.105.43.168.042.02.085.039.128.062.11.05.215.106.317.164.054.031.11.067.16.098.09.054.176.113.262.176.054.039.109.078.16.12.086.067.168.137.246.212.043.039.09.074.129.117.105.101.207.207.3.316.012.016.028.028.036.043.34.399.617.86.816 1.367.219.551.34 1.153.34 1.778a4.886 4.886 0 0 1-4.879 4.883zm5.695-6.507c-.066 0-.132-.004-.203-.008a6.318 6.318 0 0 0-.195-.442c0-.007-.004-.011-.008-.02a5.15 5.15 0 0 0-.215-.472c-.011-.023-.02-.047-.035-.07a4.914 4.914 0 0 0-.238-.414c-.024-.031-.04-.066-.063-.098-.074-.113-.156-.219-.238-.328a5.498 5.498 0 0 0-.762-.805 1.952 1.952 0 0 0-.133-.12 4.411 4.411 0 0 0-.257-.192 9.51 9.51 0 0 0-.207-.152c-.07-.047-.149-.09-.223-.133a4.14 4.14 0 0 0-.285-.164c-.063-.032-.125-.063-.188-.09a4.088 4.088 0 0 0-.355-.156c-.02-.008-.04-.02-.059-.028a3.665 3.665 0 0 1 3.664-3.633 3.668 3.668 0 0 1 3.66 3.66 3.668 3.668 0 0 1-3.66 3.665zm0 0"/>
    <path d="M19.527 10.578a.407.407 0 1 0 0 .813c1.121 0 2.032.91 2.032 2.03 0 .227.183.411.406.411a.407.407 0 0 0 .406-.41 2.85 2.85 0 0 0-2.844-2.844zm0 0M8.234 16.297l-.37-2.168 1.574-1.54a.402.402 0 1 0-.223-.691l-2.18-.316-.976-1.977c-.137-.277-.59-.277-.727 0l-.977 1.977-2.18.316a.402.402 0 0 0-.327.274.411.411 0 0 0 .101.418l1.578 1.539-.37 2.168a.408.408 0 0 0 .59.43l1.948-1.024 1.95 1.024a.404.404 0 0 0 .43-.032.404.404 0 0 0 .16-.398zm-1.093-2.602a.409.409 0 0 0-.118.36l.27 1.57-1.41-.742a.393.393 0 0 0-.188-.047.42.42 0 0 0-.191.047l-1.406.742.27-1.57a.42.42 0 0 0-.118-.36l-1.14-1.113 1.574-.227a.401.401 0 0 0 .304-.222l.707-1.43.703 1.43a.417.417 0 0 0 .309.222l1.574.227zm0 0"/>
</svg>
