<svg xmlns="http://www.w3.org/2000/svg" width="32" height="32" viewBox="0 0 24 24">
    <path d="M17.199219 3.199219C18.082031 3.199219 18.800781 2.480469 18.800781 1.601562 18.800781.71875 18.082031 0 17.199219 0 16.316406 0 15.601562.71875 15.601562 1.601562 15.601562 2.480469 16.316406 3.199219 17.199219 3.199219zM17.199219.800781C17.640625.800781 18 1.160156 18 1.601562 18 2.042969 17.640625 2.398438 17.199219 2.398438 16.757812 2.398438 16.398438 2.042969 16.398438 1.601562 16.398438 1.160156 16.757812.800781 17.199219.800781zM4.800781 3.199219C5.683594 3.199219 6.398438 2.480469 6.398438 1.601562 6.398438.71875 5.683594 0 4.800781 0 3.917969 0 3.199219.71875 3.199219 1.601562 3.199219 2.480469 3.917969 3.199219 4.800781 3.199219zM4.800781.800781C5.242188.800781 5.601562 1.160156 5.601562 1.601562 5.601562 2.042969 5.242188 2.398438 4.800781 2.398438 4.359375 2.398438 4 2.042969 4 1.601562 4 1.160156 4.359375.800781 4.800781.800781zM13.398438 4.800781C14.171875 4.800781 14.800781 4.171875 14.800781 3.398438 14.800781 2.628906 14.171875 2 13.398438 2 12.628906 2 12 2.628906 12 3.398438 12 4.171875 12.628906 4.800781 13.398438 4.800781zM13.398438 2.800781C13.730469 2.800781 14 3.070312 14 3.398438 14 3.730469 13.730469 4 13.398438 4 13.070312 4 12.800781 3.730469 12.800781 3.398438 12.800781 3.070312 13.070312 2.800781 13.398438 2.800781zM9 3.601562C9.773438 3.601562 10.398438 2.972656 10.398438 2.199219 10.398438 1.429688 9.773438.800781 9 .800781 8.226562.800781 7.601562 1.429688 7.601562 2.199219 7.601562 2.972656 8.226562 3.601562 9 3.601562zM9 1.601562C9.332031 1.601562 9.601562 1.871094 9.601562 2.199219 9.601562 2.53125 9.332031 2.800781 9 2.800781 8.667969 2.800781 8.398438 2.53125 8.398438 2.199219 8.398438 1.871094 8.667969 1.601562 9 1.601562zM9 1.601562"/>
    <path d="M 19.9375 20.640625 C 21.714844 18.789062 22.800781 16.3125 22.800781 13.601562 C 22.800781 12.023438 22.4375 10.507812 21.730469 9.09375 L 22.484375 7.835938 C 22.613281 7.625 22.613281 7.359375 22.492188 7.144531 C 22.371094 6.933594 22.144531 6.800781 21.898438 6.800781 L 21.558594 6.800781 C 21.375 5.886719 20.566406 5.199219 19.601562 5.199219 C 19.015625 5.199219 18.476562 5.453125 18.101562 5.882812 C 17.621094 5.550781 16.945312 5.515625 16.433594 5.796875 C 16.035156 5.1875 15.351562 4.800781 14.601562 4.800781 C 13.847656 4.800781 13.164062 5.1875 12.765625 5.796875 C 12.378906 5.585938 11.902344 5.542969 11.488281 5.6875 C 11.183594 4.703125 10.273438 4 9.199219 4 C 8.292969 4 7.472656 4.523438 7.070312 5.316406 C 6.855469 5.238281 6.628906 5.199219 6.398438 5.199219 C 5.8125 5.199219 5.273438 5.453125 4.902344 5.882812 C 4.636719 5.699219 4.324219 5.601562 4 5.601562 C 3.257812 5.601562 2.636719 6.113281 2.457031 6.800781 L 2.101562 6.800781 C 1.855469 6.800781 1.625 6.933594 1.507812 7.144531 C 1.386719 7.359375 1.386719 7.625 1.515625 7.835938 L 2.269531 9.09375 C 1.5625 10.507812 1.199219 12.023438 1.199219 13.601562 C 1.199219 16.410156 2.363281 18.960938 4.25 20.832031 L 3.550781 21.53125 C 3.082031 22 3.082031 22.761719 3.550781 23.230469 C 3.785156 23.460938 4.09375 23.578125 4.398438 23.578125 C 4.707031 23.578125 5.015625 23.460938 5.25 23.226562 L 6.144531 22.332031 C 7.832031 23.386719 9.84375 24 12 24 C 14.257812 24 16.351562 23.328125 18.085938 22.183594 L 19.132812 23.230469 C 19.363281 23.460938 19.671875 23.578125 19.980469 23.578125 C 20.289062 23.578125 20.59375 23.460938 20.828125 23.226562 C 21.296875 22.761719 21.296875 22 20.828125 21.53125 Z M 18.527344 6.675781 C 18.730469 6.257812 19.144531 6 19.601562 6 C 20.121094 6 20.566406 6.335938 20.730469 6.800781 L 18.464844 6.800781 Z M 16.597656 6.679688 C 16.925781 6.300781 17.554688 6.332031 17.84375 6.734375 L 17.894531 6.800781 L 16.496094 6.800781 Z M 13.28125 6.546875 C 13.476562 5.980469 14.007812 5.601562 14.601562 5.601562 C 15.191406 5.601562 15.722656 5.980469 15.917969 6.546875 L 16.003906 6.800781 L 13.195312 6.800781 Z M 11.460938 6.613281 C 11.789062 6.3125 12.3125 6.34375 12.601562 6.679688 L 12.703125 6.800781 L 11.257812 6.800781 Z M 5.328125 6.675781 C 5.53125 6.257812 5.941406 6 6.398438 6 C 6.636719 6 6.863281 6.070312 7.058594 6.199219 L 7.519531 6.503906 L 7.664062 5.972656 C 7.859375 5.28125 8.488281 4.800781 9.199219 4.800781 C 10.058594 4.800781 10.757812 5.472656 10.792969 6.335938 L 10.8125 6.800781 L 5.265625 6.800781 Z M 4 6.398438 C 4.257812 6.398438 4.492188 6.523438 4.644531 6.734375 L 4.695312 6.800781 L 3.308594 6.800781 C 3.445312 6.5625 3.703125 6.398438 4 6.398438 Z M 2.398438 7.601562 L 21.695312 7.601562 L 21.296875 8.261719 L 20.972656 8.800781 L 3.027344 8.800781 L 2.703125 8.261719 L 2.304688 7.601562 Z M 5.46875 21.878906 L 4.683594 22.664062 C 4.527344 22.820312 4.273438 22.820312 4.117188 22.664062 C 3.960938 22.507812 3.960938 22.253906 4.117188 22.097656 L 4.835938 21.378906 C 4.878906 21.417969 4.929688 21.449219 4.972656 21.488281 C 5.089844 21.585938 5.207031 21.679688 5.328125 21.769531 C 5.375 21.804688 5.417969 21.84375 5.46875 21.878906 Z M 6.1875 21.402344 C 6.054688 21.3125 5.925781 21.21875 5.796875 21.121094 C 5.746094 21.082031 5.695312 21.046875 5.644531 21.007812 C 5.484375 20.878906 5.332031 20.746094 5.179688 20.609375 C 3.226562 18.859375 2 16.363281 2 13.601562 C 2 12.203125 2.304688 10.859375 2.910156 9.601562 L 21.089844 9.601562 C 21.695312 10.859375 22 12.203125 22 13.601562 C 22 16.316406 20.816406 18.769531 18.921875 20.519531 C 18.832031 20.601562 18.742188 20.683594 18.648438 20.761719 C 18.574219 20.828125 18.496094 20.890625 18.417969 20.957031 C 18.269531 21.074219 18.121094 21.1875 17.96875 21.296875 C 16.300781 22.492188 14.234375 23.199219 12 23.199219 C 9.832031 23.199219 7.824219 22.53125 6.1875 21.402344 Z M 20.261719 22.664062 C 20.105469 22.820312 19.855469 22.820312 19.695312 22.664062 L 18.75 21.714844 C 18.785156 21.691406 18.8125 21.664062 18.84375 21.636719 C 18.988281 21.523438 19.128906 21.410156 19.261719 21.289062 C 19.296875 21.261719 19.335938 21.234375 19.367188 21.203125 L 20.261719 22.097656 C 20.417969 22.253906 20.417969 22.507812 20.261719 22.664062 Z M 20.261719 22.664062"/>
    <path d="M 11.601562 20.398438 C 8.070312 20.398438 5.199219 17.527344 5.199219 14 C 5.199219 13.777344 5.019531 13.601562 4.800781 13.601562 C 4.578125 13.601562 4.398438 13.777344 4.398438 14 C 4.398438 17.96875 7.628906 21.199219 11.601562 21.199219 C 11.820312 21.199219 12 21.019531 12 20.800781 C 12 20.578125 11.820312 20.398438 11.601562 20.398438 Z M 11.601562 20.398438"/>
</svg>
