<svg xmlns="http://www.w3.org/2000/svg" width="32" height="32" viewBox="0 0 24 24">
    <path d="M.098 3.61C.16 6.112.633 18.222 3.91 19.14V22h-.797c-.613 0-1.175.355-1.441.906a.754.754 0 0 0 .039.739c.14.222.379.355.64.355H6.27a.76.76 0 0 0 .683-1.094A1.61 1.61 0 0 0 5.512 22H4.71v-2.86c3.281-.917 3.754-13.027 3.812-15.53l.012-.41H.09zM6.223 23.2H2.418a.799.799 0 0 1 .695-.4h2.399c.3 0 .57.165.71.4zm-1.91-4.802c-1.344 0-2.352-3.503-2.918-8H7.23c-.566 4.497-1.578 8-2.918 8zM7.715 4a71.212 71.212 0 0 1-.39 5.602H1.3A69.382 69.382 0 0 1 .91 4zm0 0"/>
    <path d="M3.512 12.2a.601.601 0 0 1-1.2 0c0-.333.27-.598.598-.598.332 0 .602.265.602.597zm0 0M5.91 13.398a.598.598 0 1 1-1.2 0c0-.328.27-.597.603-.597.332 0 .597.27.597.597zm0 0M4.313 15c0 .332-.27.602-.602.602A.598.598 0 0 1 3.113 15a.598.598 0 1 1 1.2 0zm0 0M23.777 21.11a1.596 1.596 0 0 0-1.945-.434l-.73.355-1.262-2.41c2.531-2.273-2.32-13.351-3.356-15.629l-.168-.375-7.601 3.688.187.363c1.118 2.168 6.547 12.34 9.926 12.34.102 0 .2-.012.293-.031l1.262 2.402-.711.344a1.595 1.595 0 0 0-.86 1.797.61.61 0 0 0 .333.418.634.634 0 0 0 .55 0l3.86-1.875a.62.62 0 0 0 .34-.43.616.616 0 0 0-.118-.524zM15.926 3.694c1.133 2.535 2.144 5.18 2.847 7.504h-6.386a69.885 69.885 0 0 1-2.582-4.531zM12.895 12h6.113c.894 3.203 1.12 5.664.14 6.137-1.23.597-3.734-2.23-6.253-6.137zm6.675 11.105a.799.799 0 0 1 .453-.66l2.157-1.047a.8.8 0 0 1 .8.055zm0 0"/>
    <path d="M15.781 13.172a.598.598 0 0 1-.597.598.601.601 0 0 1-.602-.598c0-.332.27-.602.602-.602.332 0 .597.27.597.602zm0 0M18.465 13.203c0 .332-.27.602-.598.602a.602.602 0 0 1 0-1.203c.328 0 .598.27.598.601zm0 0M17.723 15.34a.598.598 0 1 1-1.2 0c0-.332.27-.598.602-.598.332 0 .598.266.598.598zm0 0M9.113 2.398A.398.398 0 0 0 9.512 2V.398a.4.4 0 0 0-.801 0V2c0 .223.18.398.402.398zm0 0M10.71 2.8c.102 0 .208-.038.286-.116l1.2-1.2a.4.4 0 0 0-.567-.566l-1.2 1.2a.4.4 0 0 0 .282.683zm0 0M11.113 3.602c0 .218.176.398.399.398h1.199a.401.401 0 1 0 0-.8h-1.2a.398.398 0 0 0-.398.402zm0 0M7.23 2.684a.396.396 0 0 0 .563 0 .4.4 0 0 0 0-.567L6.593.918a.4.4 0 0 0-.566.566zm0 0"/>
</svg>
