<svg xmlns="http://www.w3.org/2000/svg" width="32" height="32" viewBox="0 0 24 24">
    <path d="M 0.0976562 3.609375 C 0.160156 6.113281 0.632812 18.222656 3.910156 19.140625 L 3.910156 22 L 3.113281 22 C 2.5 22 1.9375 22.355469 1.671875 22.90625 C 1.554688 23.144531 1.570312 23.421875 1.710938 23.644531 C 1.851562 23.867188 2.089844 24 2.351562 24 L 6.269531 24 C 6.53125 24 6.773438 23.867188 6.914062 23.644531 C 7.054688 23.421875 7.066406 23.144531 6.953125 22.90625 C 6.6875 22.355469 6.121094 22 5.511719 22 L 4.710938 22 L 4.710938 19.140625 C 7.992188 18.222656 8.464844 6.113281 8.523438 3.609375 L 8.535156 3.199219 L 0.0898438 3.199219 Z M 6.222656 23.199219 L 2.417969 23.199219 C 2.5625 22.953125 2.820312 22.800781 3.113281 22.800781 L 5.511719 22.800781 C 5.8125 22.800781 6.082031 22.964844 6.222656 23.199219 Z M 4.3125 18.398438 C 2.96875 18.398438 1.960938 14.894531 1.394531 10.398438 L 7.230469 10.398438 C 6.664062 14.894531 5.652344 18.398438 4.3125 18.398438 Z M 7.714844 4 C 7.65625 5.894531 7.523438 7.8125 7.324219 9.601562 L 1.300781 9.601562 C 1.097656 7.8125 0.96875 5.894531 0.910156 4 Z M 7.714844 4"/>
    <path d="M3.511719 12.199219C3.511719 12.53125 3.242188 12.800781 2.910156 12.800781 2.582031 12.800781 2.3125 12.53125 2.3125 12.199219 2.3125 11.867188 2.582031 11.601562 2.910156 11.601562 3.242188 11.601562 3.511719 11.867188 3.511719 12.199219zM5.910156 13.398438C5.910156 13.730469 5.644531 14 5.3125 14 4.980469 14 4.710938 13.730469 4.710938 13.398438 4.710938 13.070312 4.980469 12.800781 5.3125 12.800781 5.644531 12.800781 5.910156 13.070312 5.910156 13.398438zM4.3125 15C4.3125 15.332031 4.042969 15.601562 3.710938 15.601562 3.378906 15.601562 3.113281 15.332031 3.113281 15 3.113281 14.667969 3.378906 14.398438 3.710938 14.398438 4.042969 14.398438 4.3125 14.667969 4.3125 15zM23.777344 21.109375C23.304688 20.527344 22.503906 20.347656 21.832031 20.675781L21.101562 21.03125 19.839844 18.621094C22.371094 16.347656 17.519531 5.269531 16.484375 2.992188L16.316406 2.617188 8.714844 6.304688 8.902344 6.667969C10.019531 8.835938 15.449219 19.007812 18.828125 19.007812 18.929688 19.007812 19.027344 18.996094 19.121094 18.976562L20.382812 21.378906 19.671875 21.722656C19 22.050781 18.644531 22.789062 18.8125 23.519531 18.851562 23.703125 18.976562 23.855469 19.144531 23.9375 19.234375 23.980469 19.328125 24 19.417969 24 19.511719 24 19.605469 23.976562 19.695312 23.9375L23.554688 22.0625C23.730469 21.976562 23.855469 21.820312 23.894531 21.632812 23.9375 21.449219 23.894531 21.257812 23.777344 21.109375zM15.925781 3.695312C17.058594 6.230469 18.070312 8.875 18.773438 11.199219L12.386719 11.199219C11.496094 9.769531 10.617188 8.222656 9.804688 6.667969zM12.894531 12L19.007812 12C19.902344 15.203125 20.128906 17.664062 19.148438 18.136719 17.917969 18.734375 15.414062 15.90625 12.894531 12zM19.570312 23.105469C19.589844 22.828125 19.757812 22.574219 20.023438 22.445312L22.179688 21.398438C22.292969 21.34375 22.414062 21.316406 22.53125 21.316406 22.691406 21.316406 22.847656 21.363281 22.980469 21.453125zM19.570312 23.105469"/>
    <path d="M15.78125 13.171875C15.78125 13.5 15.515625 13.769531 15.183594 13.769531 14.851562 13.769531 14.582031 13.5 14.582031 13.171875 14.582031 12.839844 14.851562 12.570312 15.183594 12.570312 15.515625 12.570312 15.78125 12.839844 15.78125 13.171875zM18.464844 13.203125C18.464844 13.535156 18.195312 13.804688 17.867188 13.804688 17.535156 13.804688 17.265625 13.535156 17.265625 13.203125 17.265625 12.871094 17.535156 12.601562 17.867188 12.601562 18.195312 12.601562 18.464844 12.871094 18.464844 13.203125zM17.722656 15.339844C17.722656 15.671875 17.457031 15.941406 17.125 15.941406 16.792969 15.941406 16.523438 15.671875 16.523438 15.339844 16.523438 15.007812 16.792969 14.742188 17.125 14.742188 17.457031 14.742188 17.722656 15.007812 17.722656 15.339844zM9.113281 2.398438C9.332031 2.398438 9.511719 2.222656 9.511719 2L9.511719.398438C9.511719.179688 9.332031 0 9.113281 0 8.890625 0 8.710938.179688 8.710938.398438L8.710938 2C8.710938 2.222656 8.890625 2.398438 9.113281 2.398438zM10.710938 2.800781C10.8125 2.800781 10.917969 2.761719 10.996094 2.683594L12.195312 1.484375C12.351562 1.328125 12.351562 1.074219 12.195312.917969 12.039062.761719 11.785156.761719 11.628906.917969L10.429688 2.117188C10.273438 2.273438 10.273438 2.527344 10.429688 2.683594 10.507812 2.761719 10.609375 2.800781 10.710938 2.800781zM11.113281 3.601562C11.113281 3.820312 11.289062 4 11.511719 4L12.710938 4C12.933594 4 13.113281 3.820312 13.113281 3.601562 13.113281 3.378906 12.933594 3.199219 12.710938 3.199219L11.511719 3.199219C11.289062 3.199219 11.113281 3.378906 11.113281 3.601562zM7.230469 2.683594C7.308594 2.761719 7.410156 2.800781 7.511719 2.800781 7.613281 2.800781 7.714844 2.761719 7.792969 2.683594 7.949219 2.527344 7.949219 2.273438 7.792969 2.117188L6.59375.917969C6.4375.761719 6.183594.761719 6.027344.917969 5.871094 1.074219 5.871094 1.328125 6.027344 1.484375zM7.230469 2.683594"/>
</svg>
