<svg xmlns="http://www.w3.org/2000/svg" width="32" height="32" viewBox="0 0 24 24">
    <path d="M 19.398438 11.46875 L 19.398438 6.644531 C 20.167969 6.203125 20.683594 5.378906 20.683594 4.4375 L 20.683594 2.828125 C 20.683594 1.445312 19.601562 0.328125 18.21875 0.277344 L 10.183594 0.00390625 C 9.460938 -0.0273438 8.769531 0.257812 8.269531 0.769531 C 7.769531 1.28125 7.503906 1.988281 7.546875 2.703125 L 7.707031 5.429688 C 7.75 6.132812 8.070312 6.769531 8.605469 7.226562 C 8.765625 7.363281 8.941406 7.464844 9.121094 7.558594 L 9.121094 14.6875 L 5.695312 17.085938 C 5.667969 17.105469 5.648438 17.125 5.621094 17.144531 L 5.484375 17.246094 C 5.476562 17.253906 5.46875 17.257812 5.460938 17.265625 C 5.328125 17.367188 5.199219 17.46875 5.078125 17.578125 C 5.058594 17.59375 5.042969 17.609375 5.023438 17.628906 C 4.914062 17.726562 4.804688 17.828125 4.703125 17.933594 C 4.660156 17.976562 4.625 18.019531 4.582031 18.066406 C 4.507812 18.148438 4.433594 18.230469 4.363281 18.3125 C 4.253906 18.449219 4.152344 18.585938 4.058594 18.726562 C 2.738281 20.71875 3.425781 22.085938 4.238281 22.882812 C 4.332031 22.976562 4.429688 23.0625 4.53125 23.140625 C 5.234375 23.703125 6.117188 24 7.035156 24 C 7.585938 24 8.144531 23.890625 8.6875 23.671875 L 8.972656 23.558594 C 11.027344 22.726562 13.601562 21.675781 15.585938 20.863281 L 15.613281 20.851562 C 17.398438 20.121094 18.707031 19.585938 18.707031 19.585938 C 19.027344 19.449219 19.355469 19.222656 19.605469 18.847656 C 19.851562 18.46875 20.023438 17.9375 20.035156 17.195312 C 20.042969 16.703125 19.980469 16.113281 19.824219 15.414062 C 19.765625 15.167969 19.722656 14.914062 19.675781 14.660156 C 19.648438 14.488281 19.617188 14.308594 19.589844 14.109375 C 19.46875 13.253906 19.398438 12.371094 19.398438 11.46875 Z M 9.980469 9.625 C 10.34375 9.335938 10.800781 9.359375 11.148438 9.707031 C 11.839844 10.398438 12.933594 10.398438 13.625 9.707031 C 14.003906 9.328125 14.515625 9.328125 14.894531 9.707031 C 15.242188 10.054688 15.679688 10.242188 16.132812 10.242188 C 16.585938 10.242188 17.027344 10.054688 17.371094 9.707031 C 17.71875 9.359375 18.175781 9.335938 18.542969 9.625 L 18.542969 10.421875 C 17.9375 10.222656 17.253906 10.359375 16.765625 10.847656 C 16.386719 11.226562 15.878906 11.226562 15.5 10.847656 C 14.78125 10.128906 13.738281 10.128906 13.023438 10.847656 C 12.644531 11.226562 12.132812 11.226562 11.753906 10.847656 C 11.269531 10.359375 10.585938 10.222656 9.980469 10.421875 Z M 8.5625 5.378906 L 8.402344 2.652344 C 8.375 2.171875 8.542969 1.714844 8.882812 1.367188 C 9.203125 1.035156 9.632812 0.855469 10.09375 0.855469 C 10.113281 0.855469 10.132812 0.855469 10.152344 0.859375 L 18.191406 1.132812 C 19.109375 1.167969 19.828125 1.910156 19.828125 2.828125 L 19.828125 4.433594 C 19.828125 5.078125 19.46875 5.636719 18.9375 5.925781 L 18.800781 5.984375 C 18.714844 6.019531 18.636719 6.050781 18.558594 6.070312 C 18.476562 6.09375 18.394531 6.113281 18.3125 6.121094 L 10.433594 6.964844 C 10.1875 6.992188 9.9375 6.960938 9.691406 6.875 L 9.679688 6.871094 C 9.496094 6.800781 9.316406 6.707031 9.160156 6.574219 C 8.800781 6.269531 8.589844 5.847656 8.5625 5.378906 Z M 10.25 7.832031 C 10.339844 7.832031 10.433594 7.828125 10.527344 7.816406 L 18.402344 6.972656 C 18.449219 6.96875 18.496094 6.960938 18.542969 6.953125 L 18.542969 8.660156 C 17.941406 8.453125 17.273438 8.59375 16.765625 9.101562 C 16.390625 9.476562 15.875 9.476562 15.5 9.101562 C 14.78125 8.382812 13.738281 8.382812 13.019531 9.101562 C 12.644531 9.476562 12.128906 9.476562 11.753906 9.101562 C 11.246094 8.59375 10.582031 8.453125 9.980469 8.660156 L 9.980469 7.816406 C 10.054688 7.824219 10.132812 7.828125 10.207031 7.828125 C 10.222656 7.828125 10.234375 7.832031 10.25 7.832031 Z M 9.613281 15.390625 C 9.839844 15.230469 9.976562 14.964844 9.976562 14.683594 L 9.976562 11.371094 C 10.34375 11.085938 10.804688 11.109375 11.148438 11.453125 C 11.507812 11.8125 11.945312 11.992188 12.386719 11.992188 C 12.828125 11.992188 13.265625 11.8125 13.625 11.453125 C 14.003906 11.074219 14.515625 11.074219 14.894531 11.453125 C 15.613281 12.171875 16.652344 12.171875 17.371094 11.453125 C 17.714844 11.109375 18.179688 11.082031 18.542969 11.371094 L 18.542969 11.46875 C 18.542969 12.265625 18.59375 13.046875 18.683594 13.808594 C 16.621094 14.28125 15.117188 16.273438 15.117188 18.625 C 15.117188 19.109375 15.183594 19.585938 15.3125 20.050781 C 13.558594 20.765625 11.335938 21.675781 9.421875 22.453125 C 9.503906 22.113281 9.550781 21.761719 9.550781 21.410156 C 9.550781 19.585938 8.394531 18.003906 6.746094 17.394531 Z M 4.769531 19.199219 C 4.847656 19.085938 4.933594 18.972656 5.023438 18.863281 C 5.066406 18.804688 5.117188 18.75 5.167969 18.695312 C 5.207031 18.648438 5.25 18.601562 5.292969 18.554688 C 5.367188 18.480469 5.4375 18.40625 5.515625 18.335938 C 5.535156 18.316406 5.554688 18.300781 5.570312 18.285156 C 5.664062 18.199219 5.757812 18.117188 5.859375 18.039062 C 7.488281 18.320312 8.695312 19.742188 8.695312 21.410156 C 8.695312 21.925781 8.582031 22.421875 8.363281 22.882812 C 8.289062 22.910156 8.214844 22.929688 8.140625 22.953125 C 8.058594 22.980469 7.972656 23.015625 7.890625 23.035156 C 7.851562 23.046875 7.816406 23.046875 7.78125 23.054688 C 7.65625 23.082031 7.53125 23.109375 7.410156 23.121094 C 7.402344 23.125 7.398438 23.121094 7.390625 23.125 C 6.441406 23.222656 5.503906 22.925781 4.839844 22.273438 C 3.980469 21.429688 3.957031 20.425781 4.769531 19.199219 Z M 18.378906 18.792969 L 16.109375 19.722656 C 16.019531 19.367188 15.972656 19 15.972656 18.625 C 15.972656 16.703125 17.164062 15.074219 18.804688 14.660156 C 18.816406 14.722656 18.832031 14.785156 18.839844 14.847656 C 18.886719 15.117188 18.9375 15.367188 18.988281 15.605469 C 19.214844 16.605469 19.4375 18.351562 18.378906 18.792969 Z M 18.378906 18.792969"/>
</svg>
