<svg xmlns="http://www.w3.org/2000/svg" width="32" height="32" viewBox="0 0 24 24">
    <path d="M10.8 14.8h2.4c.222 0 .402-.179.402-.402v-2a.401.401 0 0 0-.403-.398h-2.398a.401.401 0 0 0-.403.398v2c0 .223.18.403.403.403zm.4-2h1.6V14h-1.6zm0 0"/>
    <path d="M20.8 23.2H18v-6.4h.8a.403.403 0 0 0 .313-.652l-4.8-6A.4.4 0 0 0 14 10V7.602h.398c.141 0 .27-.075.344-.192a.408.408 0 0 0 .016-.39l-1.602-3.2a.397.397 0 0 0-.355-.218h-.403V2h.801a.401.401 0 1 0 0-.8h-.8V.397a.398.398 0 1 0-.797 0V1.2H10.8a.401.401 0 0 0 0 .8l.8.001v1.602H11.2a.397.397 0 0 0-.355.218l-1.602 3.2a.408.408 0 0 0 .016.39.408.408 0 0 0 .344.192H10V10a.409.409 0 0 0-.324.164l-4.399 6a.403.403 0 0 0-.035.418c.07.133.207.219.36.219h.796v6.398H3.2a.401.401 0 0 0 0 .801h17.602a.4.4 0 0 0 0-.8zM11.446 4.397h1.11l1.199 2.403h-3.508zm-.644 3.204h2.398V10h-2.398zm-.598 3.199h3.606L17.969 16H6.39zm3.399 12.398H10.8v-2.597c0-.774.629-1.403 1.398-1.403.774 0 1.403.63 1.403 1.403zm.796 0v-2.597a2.202 2.202 0 0 0-2.199-2.204c-1.21 0-2.199.989-2.199 2.204v2.597H7.2v-6.398h10v6.398zm0 0"/>
</svg>
