<svg xmlns="http://www.w3.org/2000/svg" width="32" height="32" viewBox="0 0 24 24">
    <path d="M20.91 11.219a5.21 5.21 0 0 0-2.367-1.992 5.185 5.185 0 0 0 2.367-1.993 1.59 1.59 0 0 0 .082-.144c.371-.762.301-1.719-.183-2.5-.473-.758-1.239-1.207-2.051-1.207h-.914v-.914c0-.809-.446-1.57-1.196-2.043-.78-.488-1.742-.563-2.507-.192a1.689 1.689 0 0 0-.149.082A5.166 5.166 0 0 0 12 2.684 5.166 5.166 0 0 0 10.008.316a1.689 1.689 0 0 0-.149-.082c-.765-.37-1.726-.296-2.504.192-.75.472-1.199 1.234-1.199 2.043v.914h-.914c-.812 0-1.578.449-2.047 1.207-.488.781-.558 1.738-.187 2.5.027.055.054.101.082.144a5.185 5.185 0 0 0 2.367 1.993 5.21 5.21 0 0 0-2.367 1.992 1.689 1.689 0 0 0-.082.148c-.371.762-.301 1.719.187 2.5.47.754 1.235 1.203 2.047 1.203h.914v.914c0 .809.446 1.575 1.196 2.043.453.282.96.426 1.46.426a2.41 2.41 0 0 0 1.047-.23c.055-.028.106-.059.149-.086a5.053 5.053 0 0 0 1.515-1.489v4.399c0 1.164-.949 2.11-2.109 2.11a2.114 2.114 0 0 1-2.113-2.11.423.423 0 0 0-.844 0 2.956 2.956 0 0 0 5.91 0v-4.563a5.09 5.09 0 0 0 1.625 1.653c.043.027.094.058.149.082.765.37 1.726.297 2.507-.192.75-.468 1.196-1.234 1.196-2.043v-.914h.914c.812 0 1.578-.449 2.047-1.203.488-.781.558-1.738.187-2.5a1.689 1.689 0 0 0-.082-.148zm-.82 2.199c-.317.508-.813.809-1.332.809h-1.336a.425.425 0 0 0-.422.421v1.336c0 .516-.3 1.012-.8 1.329-.536.335-1.184.394-1.692.148-.024-.012-.047-.023-.067-.035-1.246-.79-2.02-2.215-2.02-3.723a.423.423 0 0 0-.421-.426.423.423 0 0 0-.422.426c0 .184-.012.367-.035.547-.008.035-.02.066-.02.098v.015c-.191 1.254-.902 2.39-1.964 3.063-.02.012-.043.023-.067.035-.508.246-1.156.187-1.691-.148C7.3 17 7 16.5 7 15.983v-1.336a.423.423 0 0 0-.422-.421H5.242c-.52 0-1.015-.301-1.332-.809-.336-.535-.39-1.18-.144-1.68.015-.023.027-.047.039-.066.785-1.246 2.215-2.024 3.722-2.024a.423.423 0 0 0 0-.844c-1.507 0-2.937-.773-3.722-2.019-.016-.02-.028-.043-.04-.066-.245-.504-.19-1.149.145-1.684.317-.504.813-.808 1.332-.808h1.336A.42.42 0 0 0 7 3.805V2.469c0-.516.3-1.012.8-1.328C8.34.805 8.985.75 9.493.992c.024.012.047.028.067.04 1.246.784 2.02 2.21 2.02 3.722a.42.42 0 0 0 .421.422.42.42 0 0 0 .422-.422c0-1.512.773-2.938 2.02-3.723.019-.011.042-.027.066-.039.508-.242 1.156-.187 1.691.149.5.316.801.812.801 1.328v1.336c0 .234.191.422.422.422h1.336c.52 0 1.015.3 1.332.808.336.535.39 1.18.144 1.684-.011.023-.023.047-.039.066-.785 1.246-2.215 2.02-3.722 2.02a.42.42 0 0 0-.422.422.42.42 0 0 0 .422.421c1.507 0 2.937.774 3.722 2.024a.27.27 0 0 1 .04.066c.245.5.19 1.145-.145 1.68zm0 0"/>
</svg>
