<svg xmlns="http://www.w3.org/2000/svg" width="32" height="32" viewBox="0 0 24 24">
    <path d="M8.242188 9C8.242188 9.332031 7.972656 9.601562 7.644531 9.601562 7.3125 9.601562 7.042969 9.332031 7.042969 9 7.042969 8.667969 7.3125 8.398438 7.644531 8.398438 7.972656 8.398438 8.242188 8.667969 8.242188 9zM13.042969 9.398438C13.042969 9.730469 12.773438 10 12.441406 10 12.113281 10 11.84375 9.730469 11.84375 9.398438 11.84375 9.070312 12.113281 8.800781 12.441406 8.800781 12.773438 8.800781 13.042969 9.070312 13.042969 9.398438zM12.242188 7.800781C12.242188 8.132812 11.972656 8.398438 11.644531 8.398438 11.3125 8.398438 11.042969 8.132812 11.042969 7.800781 11.042969 7.46875 11.3125 7.199219 11.644531 7.199219 11.972656 7.199219 12.242188 7.46875 12.242188 7.800781zM11.441406 10.199219C11.441406 10.53125 11.175781 10.800781 10.84375 10.800781 10.511719 10.800781 10.242188 10.53125 10.242188 10.199219 10.242188 9.867188 10.511719 9.601562 10.84375 9.601562 11.175781 9.601562 11.441406 9.867188 11.441406 10.199219zM17.644531 10.398438C17.644531 10.730469 17.375 11 17.042969 11 16.710938 11 16.441406 10.730469 16.441406 10.398438 16.441406 10.070312 16.710938 9.800781 17.042969 9.800781 17.375 9.800781 17.644531 10.070312 17.644531 10.398438zM17.691406 8.601562C17.691406 8.929688 17.421875 9.199219 17.09375 9.199219 16.761719 9.199219 16.492188 8.929688 16.492188 8.601562 16.492188 8.269531 16.761719 8 17.09375 8 17.421875 8 17.691406 8.269531 17.691406 8.601562zM15.84375 9.800781C15.84375 10.132812 15.574219 10.398438 15.242188 10.398438 14.910156 10.398438 14.644531 10.132812 14.644531 9.800781 14.644531 9.46875 14.910156 9.199219 15.242188 9.199219 15.574219 9.199219 15.84375 9.46875 15.84375 9.800781zM15.84375 9.800781"/>
    <path d="M 18.492188 14.925781 C 20.136719 13.273438 21.042969 11.117188 21.042969 8.816406 C 21.042969 3.953125 16.988281 0 12 0 C 7.011719 0 2.957031 3.953125 2.957031 8.816406 C 2.957031 12.160156 4.941406 15.238281 8.019531 16.71875 C 8.59375 18.5 9 20.78125 8.871094 23.582031 C 8.867188 23.691406 8.90625 23.796875 8.980469 23.875 C 9.058594 23.953125 9.160156 24 9.269531 24 L 14.730469 24 C 14.839844 24 14.945312 23.957031 15.019531 23.875 C 15.09375 23.796875 15.132812 23.691406 15.128906 23.582031 C 15.039062 21.617188 15.203125 19.742188 15.617188 18 C 15.773438 17.945312 15.914062 17.859375 16.035156 17.753906 C 16.042969 17.761719 16.046875 17.769531 16.054688 17.773438 C 16.632812 18.109375 16.859375 18.972656 16.523438 19.550781 C 16.257812 20.003906 16.179688 20.566406 16.316406 21.09375 C 16.449219 21.632812 16.78125 22.078125 17.242188 22.34375 C 17.304688 22.382812 17.375 22.398438 17.441406 22.398438 C 17.582031 22.398438 17.714844 22.328125 17.789062 22.203125 C 17.898438 22.011719 17.835938 21.765625 17.644531 21.65625 C 17.371094 21.496094 17.171875 21.226562 17.089844 20.894531 C 17.007812 20.570312 17.054688 20.226562 17.214844 19.953125 C 17.660156 19.1875 17.503906 18.15625 16.933594 17.492188 L 17.957031 17.558594 C 17.980469 17.5625 18 17.5625 18.023438 17.5625 C 18.308594 17.5625 18.578125 17.4375 18.753906 17.222656 C 18.921875 17.019531 18.980469 16.769531 18.917969 16.527344 Z M 3.757812 8.816406 C 3.757812 4.394531 7.453125 0.800781 12 0.800781 C 16.546875 0.800781 20.242188 4.394531 20.242188 8.816406 C 20.242188 10.8125 19.492188 12.695312 18.121094 14.167969 C 18.117188 14.164062 18.113281 14.164062 18.105469 14.160156 C 18.050781 14.121094 17.992188 14.085938 17.921875 14.0625 C 17.855469 14.035156 17.785156 14.015625 17.710938 14.007812 C 17.691406 14.003906 17.671875 14.007812 17.652344 14.007812 C 17.601562 14.003906 17.546875 14 17.496094 14.003906 C 17.46875 14.007812 17.441406 14.015625 17.417969 14.023438 C 17.371094 14.03125 17.328125 14.039062 17.285156 14.050781 C 17.253906 14.0625 17.226562 14.078125 17.199219 14.089844 C 17.167969 14.105469 17.132812 14.117188 17.105469 14.132812 C 17.902344 12.664062 18.644531 11.890625 18.65625 11.878906 C 18.671875 11.863281 18.679688 11.84375 18.691406 11.828125 C 18.703125 11.8125 18.710938 11.800781 18.71875 11.789062 C 18.730469 11.769531 18.738281 11.746094 18.742188 11.722656 C 18.75 11.707031 18.753906 11.695312 18.757812 11.679688 C 18.761719 11.65625 18.761719 11.632812 18.761719 11.609375 C 18.761719 11.59375 18.765625 11.578125 18.765625 11.5625 C 18.761719 11.539062 18.753906 11.511719 18.746094 11.488281 C 18.742188 11.476562 18.742188 11.464844 18.738281 11.449219 C 18.738281 11.449219 18.738281 11.445312 18.734375 11.445312 C 18.726562 11.421875 18.710938 11.402344 18.695312 11.378906 C 18.6875 11.367188 18.683594 11.355469 18.675781 11.347656 C 18.660156 11.328125 18.640625 11.3125 18.621094 11.292969 C 18.609375 11.285156 18.601562 11.277344 18.589844 11.269531 C 18.945312 10.472656 19.097656 9.632812 19.015625 8.875 C 18.917969 7.957031 18.496094 7.257812 17.824219 6.910156 C 16.808594 6.378906 15.511719 6.792969 14.503906 7.855469 C 13.921875 6.75 13.011719 6.085938 12.019531 6.085938 C 12.015625 6.085938 12.015625 6.085938 12.015625 6.085938 C 11.152344 6.085938 10.351562 6.574219 9.761719 7.457031 C 9.703125 7.542969 9.652344 7.636719 9.597656 7.726562 C 8.84375 6.941406 7.894531 6.613281 7.09375 6.914062 C 6.464844 7.15625 6.019531 7.726562 5.835938 8.523438 C 5.667969 9.265625 5.746094 10.125 6.058594 10.945312 C 6.09375 11.035156 6.132812 11.117188 6.171875 11.199219 L 5.628906 11.199219 C 5.589844 11.199219 5.550781 11.207031 5.511719 11.21875 C 5.5 11.222656 5.488281 11.230469 5.476562 11.234375 C 5.453125 11.246094 5.429688 11.253906 5.410156 11.269531 C 5.394531 11.277344 5.382812 11.289062 5.371094 11.300781 C 5.355469 11.316406 5.335938 11.328125 5.324219 11.347656 C 5.3125 11.359375 5.304688 11.378906 5.292969 11.394531 C 5.28125 11.410156 5.269531 11.425781 5.261719 11.445312 C 5.261719 11.445312 5.261719 11.445312 5.261719 11.449219 C 5.261719 11.449219 5.261719 11.449219 5.257812 11.449219 C 5.253906 11.46875 5.25 11.484375 5.246094 11.5 C 5.242188 11.523438 5.234375 11.542969 5.230469 11.5625 C 5.230469 11.578125 5.234375 11.597656 5.234375 11.613281 C 5.234375 11.636719 5.234375 11.65625 5.238281 11.679688 C 5.242188 11.695312 5.25 11.710938 5.253906 11.726562 C 5.261719 11.746094 5.269531 11.769531 5.277344 11.789062 C 5.285156 11.804688 5.300781 11.820312 5.3125 11.835938 C 5.324219 11.847656 5.332031 11.867188 5.34375 11.878906 C 5.355469 11.894531 6.582031 13.171875 7.585938 15.574219 C 5.230469 14.117188 3.757812 11.5625 3.757812 8.816406 Z M 15.3125 17.265625 L 15.175781 17.300781 L 14.679688 17.429688 C 14.617188 17.449219 14.554688 17.449219 14.492188 17.441406 C 14.472656 17.4375 14.457031 17.425781 14.4375 17.421875 C 14.359375 17.402344 14.292969 17.363281 14.238281 17.308594 C 14.222656 17.292969 14.199219 17.28125 14.183594 17.261719 C 14.152344 17.21875 14.128906 17.167969 14.113281 17.117188 C 14.109375 17.109375 14.105469 17.101562 14.101562 17.09375 L 14.070312 16.96875 L 13.9375 16.460938 C 13.921875 16.40625 13.921875 16.351562 13.925781 16.296875 C 13.929688 16.230469 13.949219 16.164062 13.984375 16.101562 C 14.046875 15.996094 14.152344 15.917969 14.273438 15.882812 L 14.90625 15.71875 C 14.957031 15.703125 15.011719 15.703125 15.0625 15.707031 C 15.074219 15.707031 15.085938 15.710938 15.097656 15.710938 C 15.144531 15.71875 15.191406 15.730469 15.234375 15.753906 C 15.238281 15.753906 15.242188 15.757812 15.242188 15.757812 C 15.28125 15.777344 15.3125 15.804688 15.339844 15.835938 C 15.355469 15.847656 15.367188 15.855469 15.378906 15.867188 C 15.410156 15.90625 15.433594 15.945312 15.453125 15.992188 C 15.460938 16.011719 15.476562 16.03125 15.484375 16.054688 L 15.648438 16.6875 C 15.714844 16.9375 15.5625 17.199219 15.3125 17.265625 Z M 6.808594 10.660156 C 6.550781 9.988281 6.484375 9.289062 6.617188 8.703125 C 6.738281 8.171875 7.007812 7.804688 7.378906 7.664062 C 7.941406 7.449219 8.671875 7.792969 9.238281 8.523438 C 9.132812 8.824219 9.054688 9.148438 8.996094 9.476562 C 8.992188 9.503906 8.988281 9.527344 8.984375 9.554688 C 8.960938 9.6875 8.945312 9.824219 8.933594 9.964844 C 8.929688 9.996094 8.925781 10.03125 8.921875 10.066406 C 8.910156 10.230469 8.902344 10.394531 8.902344 10.5625 C 8.902344 10.757812 8.914062 10.957031 8.933594 11.160156 C 8.933594 11.171875 8.933594 11.1875 8.9375 11.199219 L 7.058594 11.199219 C 6.964844 11.027344 6.878906 10.847656 6.808594 10.660156 Z M 9.722656 10.089844 C 9.726562 10.0625 9.730469 10.03125 9.730469 10.003906 C 9.78125 9.515625 9.890625 9.042969 10.0625 8.613281 C 10.0625 8.609375 10.0625 8.605469 10.066406 8.605469 C 10.167969 8.351562 10.289062 8.113281 10.429688 7.902344 C 10.867188 7.246094 11.429688 6.886719 12.019531 6.882812 C 12.792969 6.882812 13.523438 7.519531 13.953125 8.554688 C 13.953125 8.558594 13.949219 8.5625 13.945312 8.566406 C 13.839844 8.730469 13.734375 8.898438 13.640625 9.078125 C 13.558594 9.234375 13.488281 9.390625 13.425781 9.550781 C 13.414062 9.578125 13.402344 9.609375 13.390625 9.636719 C 13.332031 9.789062 13.277344 9.945312 13.234375 10.101562 C 13.226562 10.128906 13.21875 10.160156 13.210938 10.1875 C 13.167969 10.34375 13.132812 10.503906 13.105469 10.660156 C 13.105469 10.664062 13.105469 10.667969 13.105469 10.671875 C 13.078125 10.832031 13.0625 10.988281 13.054688 11.148438 C 13.054688 11.164062 13.050781 11.183594 13.050781 11.199219 L 9.746094 11.199219 C 9.742188 11.179688 9.738281 11.160156 9.738281 11.136719 C 9.71875 10.945312 9.703125 10.75 9.703125 10.5625 C 9.703125 10.40625 9.710938 10.246094 9.722656 10.089844 Z M 14.519531 9.152344 C 14.527344 9.136719 14.539062 9.125 14.550781 9.109375 C 14.601562 9.027344 14.652344 8.949219 14.710938 8.871094 C 15.507812 7.769531 16.667969 7.207031 17.457031 7.617188 C 17.882812 7.839844 18.152344 8.316406 18.222656 8.960938 C 18.296875 9.660156 18.125 10.453125 17.738281 11.199219 L 13.859375 11.199219 C 13.859375 11.171875 13.859375 11.144531 13.859375 11.117188 C 13.863281 11.0625 13.871094 11.003906 13.878906 10.945312 C 13.894531 10.839844 13.910156 10.726562 13.933594 10.617188 C 13.945312 10.558594 13.960938 10.5 13.972656 10.4375 C 14.003906 10.324219 14.039062 10.210938 14.078125 10.097656 C 14.097656 10.042969 14.113281 9.992188 14.132812 9.9375 C 14.195312 9.777344 14.265625 9.621094 14.34375 9.464844 C 14.347656 9.460938 14.347656 9.453125 14.351562 9.449219 C 14.355469 9.441406 14.359375 9.4375 14.363281 9.429688 C 14.410156 9.335938 14.464844 9.242188 14.519531 9.152344 Z M 6.511719 12 L 17.492188 12 C 17.027344 12.601562 16.359375 13.605469 15.75 15.027344 C 15.726562 15.046875 15.703125 15.066406 15.683594 15.085938 C 15.644531 15.0625 15.601562 15.046875 15.5625 15.027344 C 15.527344 15.011719 15.496094 14.992188 15.464844 14.980469 C 15.421875 14.964844 15.378906 14.957031 15.335938 14.945312 C 15.296875 14.9375 15.257812 14.921875 15.21875 14.917969 C 15.171875 14.910156 15.125 14.910156 15.078125 14.910156 C 15.039062 14.90625 15 14.902344 14.960938 14.902344 C 14.875 14.90625 14.789062 14.921875 14.703125 14.945312 L 14.070312 15.109375 C 13.988281 15.132812 13.90625 15.160156 13.832031 15.195312 C 13.609375 15.304688 13.421875 15.480469 13.292969 15.699219 C 13.289062 15.707031 13.289062 15.710938 13.285156 15.71875 C 13.234375 15.707031 13.1875 15.6875 13.136719 15.6875 L 11.625 15.589844 C 11.316406 15.570312 11.019531 15.695312 10.828125 15.925781 C 10.664062 16.128906 10.605469 16.378906 10.667969 16.617188 L 10.839844 17.265625 C 10.8125 17.28125 10.785156 17.292969 10.761719 17.316406 C 10.320312 17.757812 9.402344 17.386719 8.933594 16.921875 C 8.21875 14.472656 7.167969 12.84375 6.511719 12 Z M 11.441406 16.445312 C 11.449219 16.425781 11.496094 16.386719 11.5625 16.386719 C 11.566406 16.386719 11.570312 16.386719 11.574219 16.386719 L 13.082031 16.484375 C 13.101562 16.484375 13.113281 16.488281 13.113281 16.484375 L 13.160156 16.652344 C 13.160156 16.65625 13.160156 16.660156 13.160156 16.664062 L 13.328125 17.296875 C 13.335938 17.320312 13.34375 17.339844 13.351562 17.363281 L 13.378906 17.464844 C 13.378906 17.46875 13.371094 17.480469 13.347656 17.492188 L 12.082031 18.320312 C 12.019531 18.359375 11.953125 18.347656 11.953125 18.359375 Z M 14.3125 23.199219 L 9.6875 23.199219 C 9.742188 21.246094 9.550781 19.546875 9.230469 18.085938 C 9.554688 18.234375 9.894531 18.316406 10.222656 18.316406 C 10.519531 18.316406 10.804688 18.246094 11.054688 18.09375 L 11.179688 18.566406 C 11.242188 18.804688 11.417969 18.996094 11.660156 19.089844 C 11.769531 19.128906 11.878906 19.148438 11.992188 19.148438 C 12.175781 19.148438 12.359375 19.09375 12.519531 18.992188 L 12.839844 18.78125 C 12.660156 19.386719 12.714844 20.0625 13.074219 20.585938 C 13.257812 20.859375 13.335938 21.140625 13.289062 21.398438 C 13.246094 21.65625 13.082031 21.886719 12.816406 22.070312 C 12.636719 22.195312 12.589844 22.445312 12.714844 22.625 C 12.789062 22.738281 12.914062 22.800781 13.042969 22.800781 C 13.121094 22.800781 13.199219 22.777344 13.269531 22.730469 C 13.71875 22.421875 13.996094 22.007812 14.078125 21.53125 C 14.160156 21.0625 14.039062 20.582031 13.730469 20.132812 C 13.355469 19.582031 13.519531 18.707031 14.070312 18.328125 C 14.125 18.292969 14.160156 18.242188 14.191406 18.1875 C 14.195312 18.191406 14.203125 18.191406 14.210938 18.195312 C 14.246094 18.203125 14.28125 18.214844 14.316406 18.222656 C 14.355469 18.226562 14.390625 18.230469 14.429688 18.234375 C 14.464844 18.238281 14.5 18.242188 14.535156 18.246094 C 14.542969 18.246094 14.550781 18.246094 14.558594 18.246094 C 14.574219 18.246094 14.589844 18.242188 14.605469 18.242188 C 14.648438 18.238281 14.695312 18.238281 14.742188 18.234375 C 14.40625 19.800781 14.265625 21.46875 14.3125 23.199219 Z M 18.011719 16.761719 L 16.5 16.664062 C 16.484375 16.664062 16.472656 16.660156 16.46875 16.664062 L 16.425781 16.496094 C 16.421875 16.492188 16.421875 16.488281 16.421875 16.484375 L 16.265625 15.886719 C 16.308594 15.773438 16.355469 15.65625 16.398438 15.546875 L 17.5 14.828125 C 17.515625 14.816406 17.53125 14.808594 17.546875 14.804688 C 17.59375 14.792969 17.628906 14.796875 17.628906 14.789062 L 17.664062 14.914062 C 17.664062 14.914062 17.664062 14.914062 17.664062 14.917969 L 18.144531 16.703125 C 18.136719 16.722656 18.082031 16.765625 18.011719 16.761719 Z M 18.011719 16.761719"/>
</svg>
