<svg xmlns="http://www.w3.org/2000/svg" width="32" height="32" viewBox="0 0 24 24">
    <path d="M 12 0 C 7.550781 0 3.929688 5.382812 3.929688 12 C 3.929688 18.617188 7.550781 24 12 24 C 16.449219 24 20.070312 18.617188 20.070312 12 C 20.070312 5.382812 16.449219 0 12 0 Z M 12 23.171875 C 8.007812 23.171875 4.757812 18.160156 4.757812 12 C 4.757812 5.839844 8.007812 0.828125 12 0.828125 C 15.992188 0.828125 19.242188 5.839844 19.242188 12 C 19.242188 18.160156 15.992188 23.171875 12 23.171875 Z M 12 23.171875"/>
    <path d="M12.621094 5.378906L13.207031 5.378906 12.8125 5.773438C12.652344 5.933594 12.652344 6.195312 12.8125 6.359375 12.894531 6.4375 13 6.480469 13.105469 6.480469 13.210938 6.480469 13.316406 6.4375 13.398438 6.359375L13.863281 5.894531 13.863281 6.621094C13.863281 6.847656 14.046875 7.035156 14.277344 7.035156 14.503906 7.035156 14.691406 6.847656 14.691406 6.621094L14.691406 5.964844 15.15625 6.429688C15.234375 6.507812 15.339844 6.550781 15.445312 6.550781 15.554688 6.550781 15.660156 6.507812 15.738281 6.429688 15.902344 6.265625 15.902344 6.003906 15.738281 5.84375L15.273438 5.378906 15.929688 5.378906C16.160156 5.378906 16.34375 5.195312 16.34375 4.964844 16.34375 4.738281 16.160156 4.550781 15.929688 4.550781L15.203125 4.550781 15.738281 4.015625C15.902344 3.855469 15.902344 3.59375 15.738281 3.429688 15.578125 3.269531 15.316406 3.269531 15.152344 3.429688L14.691406 3.894531 14.691406 3.308594C14.691406 3.082031 14.503906 2.898438 14.277344 2.898438 14.046875 2.898438 13.863281 3.082031 13.863281 3.308594L13.863281 3.964844 13.398438 3.503906C13.234375 3.339844 12.972656 3.339844 12.8125 3.503906 12.652344 3.664062 12.652344 3.925781 12.8125 4.085938L13.277344 4.550781 12.621094 4.550781C12.390625 4.550781 12.207031 4.738281 12.207031 4.964844 12.207031 5.195312 12.390625 5.378906 12.621094 5.378906zM6.828125 7.449219L7.414062 7.449219 7.019531 7.839844C6.859375 8.003906 6.859375 8.265625 7.019531 8.425781 7.101562 8.507812 7.207031 8.546875 7.3125 8.546875 7.417969 8.546875 7.523438 8.507812 7.605469 8.425781L8.070312 7.960938 8.070312 8.691406C8.070312 8.917969 8.253906 9.101562 8.484375 9.101562 8.710938 9.101562 8.898438 8.917969 8.898438 8.691406L8.898438 8.035156 9.359375 8.496094C9.441406 8.578125 9.546875 8.617188 9.652344 8.617188 9.757812 8.617188 9.867188 8.578125 9.945312 8.496094 10.109375 8.335938 10.109375 8.074219 9.945312 7.914062L9.480469 7.449219 10.136719 7.449219C10.367188 7.449219 10.550781 7.261719 10.550781 7.035156 10.550781 6.804688 10.367188 6.621094 10.136719 6.621094L9.410156 6.621094 9.945312 6.085938C10.109375 5.925781 10.109375 5.664062 9.945312 5.5 9.785156 5.339844 9.523438 5.339844 9.359375 5.5L8.898438 5.964844 8.898438 5.378906C8.898438 5.152344 8.710938 4.964844 8.484375 4.964844 8.253906 4.964844 8.070312 5.152344 8.070312 5.378906L8.070312 6.035156 7.605469 5.570312C7.441406 5.410156 7.179688 5.410156 7.019531 5.570312 6.859375 5.734375 6.859375 5.996094 7.019531 6.15625L7.484375 6.621094 6.828125 6.621094C6.597656 6.621094 6.414062 6.804688 6.414062 7.035156 6.414062 7.261719 6.597656 7.449219 6.828125 7.449219zM13.257812 11.636719L12.792969 11.171875 13.449219 11.171875C13.675781 11.171875 13.863281 10.988281 13.863281 10.757812 13.863281 10.53125 13.675781 10.34375 13.449219 10.34375L12.722656 10.34375 13.257812 9.808594C13.417969 9.648438 13.417969 9.386719 13.257812 9.226562 13.09375 9.0625 12.832031 9.0625 12.671875 9.226562L12.207031 9.6875 12.207031 9.101562C12.207031 8.875 12.023438 8.691406 11.792969 8.691406 11.566406 8.691406 11.378906 8.875 11.378906 9.101562L11.378906 9.757812 10.914062 9.296875C10.753906 9.132812 10.492188 9.132812 10.328125 9.296875 10.167969 9.457031 10.167969 9.71875 10.328125 9.882812L10.792969 10.34375 10.136719 10.34375C9.910156 10.34375 9.722656 10.53125 9.722656 10.757812 9.722656 10.988281 9.910156 11.171875 10.136719 11.171875L10.722656 11.171875 10.332031 11.566406C10.167969 11.726562 10.167969 11.988281 10.332031 12.152344 10.410156 12.230469 10.515625 12.273438 10.621094 12.273438 10.730469 12.273438 10.835938 12.230469 10.914062 12.152344L11.378906 11.6875 11.378906 12.414062C11.378906 12.644531 11.566406 12.828125 11.792969 12.828125 12.023438 12.828125 12.207031 12.644531 12.207031 12.414062L12.207031 11.757812 12.671875 12.222656C12.753906 12.300781 12.859375 12.34375 12.964844 12.34375 13.070312 12.34375 13.175781 12.300781 13.257812 12.222656 13.417969 12.058594 13.417969 11.796875 13.257812 11.636719zM18.414062 11.585938L17.6875 11.585938 18.222656 11.050781C18.382812 10.890625 18.382812 10.628906 18.222656 10.464844 18.058594 10.304688 17.796875 10.304688 17.636719 10.464844L17.171875 10.929688 17.171875 10.34375C17.171875 10.117188 16.988281 9.929688 16.757812 9.929688 16.53125 9.929688 16.34375 10.117188 16.34375 10.34375L16.34375 11 15.878906 10.539062C15.71875 10.375 15.457031 10.375 15.296875 10.539062 15.132812 10.699219 15.132812 10.960938 15.296875 11.121094L15.757812 11.585938 15.101562 11.585938C14.875 11.585938 14.691406 11.769531 14.691406 12 14.691406 12.230469 14.875 12.414062 15.101562 12.414062L15.6875 12.414062 15.296875 12.808594C15.132812 12.96875 15.132812 13.230469 15.296875 13.390625 15.375 13.472656 15.484375 13.511719 15.589844 13.511719 15.695312 13.511719 15.800781 13.472656 15.882812 13.390625L16.34375 12.925781 16.34375 13.65625C16.34375 13.882812 16.53125 14.070312 16.757812 14.070312 16.988281 14.070312 17.171875 13.882812 17.171875 13.65625L17.171875 13 17.636719 13.460938C17.71875 13.542969 17.824219 13.585938 17.929688 13.585938 18.035156 13.585938 18.140625 13.542969 18.222656 13.460938 18.382812 13.300781 18.382812 13.039062 18.222656 12.878906L17.757812 12.414062 18.414062 12.414062C18.640625 12.414062 18.828125 12.230469 18.828125 12 18.828125 11.769531 18.640625 11.585938 18.414062 11.585938zM8.898438 16.550781L8.898438 15.894531 9.359375 16.359375C9.441406 16.441406 9.546875 16.480469 9.652344 16.480469 9.757812 16.480469 9.867188 16.441406 9.945312 16.359375 10.109375 16.199219 10.109375 15.9375 9.945312 15.773438L9.480469 15.308594 10.136719 15.308594C10.367188 15.308594 10.550781 15.125 10.550781 14.898438 10.550781 14.667969 10.367188 14.484375 10.136719 14.484375L9.410156 14.484375 9.945312 13.949219C10.109375 13.785156 10.109375 13.523438 9.945312 13.363281 9.785156 13.199219 9.523438 13.199219 9.359375 13.363281L8.898438 13.828125 8.898438 13.242188C8.898438 13.011719 8.710938 12.828125 8.484375 12.828125 8.253906 12.828125 8.070312 13.011719 8.070312 13.242188L8.070312 13.898438 7.605469 13.433594C7.441406 13.273438 7.179688 13.273438 7.019531 13.433594 6.859375 13.59375 6.859375 13.855469 7.019531 14.019531L7.484375 14.484375 6.828125 14.484375C6.597656 14.484375 6.414062 14.667969 6.414062 14.898438 6.414062 15.125 6.597656 15.308594 6.828125 15.308594L7.414062 15.308594 7.019531 15.703125C6.859375 15.867188 6.859375 16.125 7.019531 16.289062 7.101562 16.371094 7.207031 16.410156 7.3125 16.410156 7.417969 16.410156 7.523438 16.371094 7.605469 16.289062L8.070312 15.824219 8.070312 16.550781C8.070312 16.78125 8.253906 16.964844 8.484375 16.964844 8.710938 16.964844 8.898438 16.78125 8.898438 16.550781zM16.757812 16.136719L16.03125 16.136719 16.566406 15.601562C16.726562 15.441406 16.726562 15.179688 16.566406 15.019531 16.40625 14.855469 16.144531 14.855469 15.980469 15.019531L15.515625 15.480469 15.515625 14.898438C15.515625 14.667969 15.332031 14.484375 15.101562 14.484375 14.875 14.484375 14.691406 14.667969 14.691406 14.898438L14.691406 15.554688 14.226562 15.089844C14.0625 14.925781 13.800781 14.925781 13.640625 15.089844 13.476562 15.25 13.476562 15.511719 13.640625 15.675781L14.105469 16.136719 13.449219 16.136719C13.21875 16.136719 13.035156 16.324219 13.035156 16.550781 13.035156 16.78125 13.21875 16.964844 13.449219 16.964844L14.035156 16.964844 13.640625 17.359375C13.480469 17.519531 13.480469 17.78125 13.640625 17.945312 13.722656 18.023438 13.828125 18.066406 13.933594 18.066406 14.039062 18.066406 14.144531 18.023438 14.226562 17.945312L14.691406 17.480469 14.691406 18.207031C14.691406 18.4375 14.875 18.621094 15.105469 18.621094 15.332031 18.621094 15.519531 18.4375 15.519531 18.207031L15.519531 17.550781 15.980469 18.015625C16.0625 18.09375 16.167969 18.136719 16.273438 18.136719 16.378906 18.136719 16.488281 18.09375 16.566406 18.015625 16.730469 17.851562 16.730469 17.589844 16.566406 17.429688L16.101562 16.964844 16.757812 16.964844C16.988281 16.964844 17.171875 16.78125 17.171875 16.550781 17.171875 16.324219 16.988281 16.136719 16.757812 16.136719zM12.207031 19.449219L11.480469 19.449219 12.015625 18.914062C12.175781 18.75 12.175781 18.488281 12.015625 18.328125 11.851562 18.167969 11.589844 18.167969 11.429688 18.328125L10.964844 18.792969 10.964844 18.207031C10.964844 17.976562 10.78125 17.792969 10.550781 17.792969 10.324219 17.792969 10.136719 17.976562 10.136719 18.207031L10.136719 18.863281 9.671875 18.398438C9.511719 18.238281 9.25 18.238281 9.089844 18.398438 8.925781 18.5625 8.925781 18.824219 9.089844 18.984375L9.554688 19.449219 8.898438 19.449219C8.667969 19.449219 8.484375 19.632812 8.484375 19.863281 8.484375 20.089844 8.667969 20.277344 8.898438 20.277344L9.480469 20.277344 9.089844 20.667969C8.925781 20.832031 8.925781 21.09375 9.089844 21.253906 9.167969 21.335938 9.277344 21.375 9.382812 21.375 9.488281 21.375 9.59375 21.335938 9.675781 21.253906L10.136719 20.789062 10.136719 21.515625C10.136719 21.746094 10.324219 21.929688 10.550781 21.929688 10.78125 21.929688 10.964844 21.746094 10.964844 21.515625L10.964844 20.859375 11.429688 21.324219C11.511719 21.40625 11.617188 21.445312 11.722656 21.445312 11.828125 21.445312 11.933594 21.40625 12.015625 21.324219 12.175781 21.164062 12.175781 20.902344 12.015625 20.738281L11.550781 20.277344 12.207031 20.277344C12.433594 20.277344 12.621094 20.089844 12.621094 19.863281 12.621094 19.632812 12.433594 19.449219 12.207031 19.449219zM12.207031 19.449219"/>
</svg>
