<svg xmlns="http://www.w3.org/2000/svg" width="32" height="32" viewBox="0 0 24 24">
    <path d="M12 0C7.55 0 3.93 5.383 3.93 12S7.55 24 12 24s8.07-5.383 8.07-12S16.45 0 12 0zm0 23.172c-3.992 0-7.242-5.012-7.242-11.172C4.758 5.84 8.008.828 12 .828S19.242 5.84 19.242 12c0 6.16-3.25 11.172-7.242 11.172zm0 0"/>
    <path d="M12.621 5.379h.586l-.395.394a.417.417 0 0 0 0 .586.428.428 0 0 0 .293.121c.106 0 .211-.043.293-.12l.465-.465v.726a.414.414 0 0 0 .828 0v-.656l.465.465a.412.412 0 0 0 .582 0 .41.41 0 0 0 0-.586l-.465-.465h.657a.414.414 0 0 0 0-.828h-.727l.535-.535a.41.41 0 0 0 0-.586.417.417 0 0 0-.586 0l-.46.465v-.586a.413.413 0 0 0-.415-.41.411.411 0 0 0-.414.41v.656l-.465-.461a.413.413 0 1 0-.586.582l.465.465h-.656a.414.414 0 0 0 0 .828zm0 0M6.828 7.45h.586l-.394.39a.417.417 0 0 0 0 .586.41.41 0 0 0 .293.12.41.41 0 0 0 .292-.12l.465-.465v.73c0 .227.184.41.414.41a.413.413 0 0 0 .414-.41v-.656l.461.461a.41.41 0 0 0 .293.121c.106 0 .215-.039.293-.12a.406.406 0 0 0 0-.583L9.48 7.45h.657a.414.414 0 0 0 0-.828H9.41l.535-.535a.41.41 0 0 0 0-.586.417.417 0 0 0-.586 0l-.46.465v-.586a.414.414 0 0 0-.828 0v.656l-.466-.465a.417.417 0 0 0-.585 0 .417.417 0 0 0 0 .586l.464.465h-.656a.414.414 0 0 0 0 .828zm0 0M13.258 11.637l-.465-.465h.656a.414.414 0 0 0 0-.828h-.726l.535-.535a.413.413 0 1 0-.586-.582l-.465.46v-.585a.411.411 0 0 0-.414-.41.413.413 0 0 0-.414.41v.656l-.465-.461a.41.41 0 0 0-.586 0 .417.417 0 0 0 0 .586l.465.46h-.656a.414.414 0 0 0 0 .828h.586l-.391.395a.41.41 0 0 0 0 .586.412.412 0 0 0 .582 0l.465-.464v.726a.414.414 0 0 0 .828 0v-.656l.465.465a.428.428 0 0 0 .293.12c.105 0 .21-.042.293-.12a.417.417 0 0 0 0-.586zm0 0M18.414 11.586h-.727l.536-.535a.417.417 0 0 0 0-.586.417.417 0 0 0-.586 0l-.465.465v-.586a.414.414 0 0 0-.828 0V11l-.465-.46a.406.406 0 0 0-.582 0 .406.406 0 0 0 0 .581l.46.465h-.655a.411.411 0 0 0-.41.414c0 .23.183.414.41.414h.585l-.39.395a.406.406 0 0 0 0 .582.404.404 0 0 0 .293.12.41.41 0 0 0 .293-.12l.46-.465v.73a.414.414 0 1 0 .828 0V13l.466.46a.415.415 0 0 0 .293.126c.105 0 .21-.043.293-.125a.413.413 0 0 0 0-.582l-.465-.465h.656a.414.414 0 0 0 0-.828zm0 0M8.898 16.55v-.655l.461.464a.41.41 0 0 0 .293.121c.106 0 .215-.039.293-.12a.41.41 0 0 0 0-.587l-.465-.464h.657a.412.412 0 1 0 0-.824H9.41l.535-.536a.41.41 0 0 0 0-.586.41.41 0 0 0-.586 0l-.46.465v-.586a.414.414 0 0 0-.829 0v.656l-.465-.464a.417.417 0 0 0-.585 0 .417.417 0 0 0 0 .586l.464.464h-.656a.412.412 0 1 0 0 .825h.586l-.394.394a.417.417 0 0 0 0 .586.41.41 0 0 0 .293.121.41.41 0 0 0 .292-.12l.465-.466v.727a.414.414 0 0 0 .828 0zm0 0M16.758 16.137h-.727l.535-.535a.413.413 0 1 0-.586-.582l-.464.46v-.582a.412.412 0 1 0-.825 0v.657l-.464-.465a.41.41 0 0 0-.586 0 .41.41 0 0 0 0 .586l.464.46h-.656a.414.414 0 0 0 0 .829h.586l-.394.394a.417.417 0 0 0 0 .586.428.428 0 0 0 .293.121c.105 0 .21-.043.293-.12l.464-.466v.727a.414.414 0 0 0 .828 0v-.656l.461.465a.428.428 0 0 0 .293.12.42.42 0 0 0 .293-.12.41.41 0 0 0 0-.586l-.464-.465h.656a.414.414 0 0 0 0-.828zm0 0M12.207 19.45h-.727l.536-.536a.417.417 0 0 0 0-.586.417.417 0 0 0-.586 0l-.465.465v-.586a.414.414 0 0 0-.828 0v.656l-.465-.465a.413.413 0 1 0-.582.586l.465.465h-.657a.414.414 0 0 0 0 .828h.582l-.39.391a.41.41 0 0 0 0 .586.404.404 0 0 0 .293.121.41.41 0 0 0 .293-.121l.46-.465v.727a.414.414 0 0 0 .829 0v-.657l.465.465a.41.41 0 0 0 .293.121.41.41 0 0 0 .293-.12.417.417 0 0 0 0-.587l-.465-.46h.656a.414.414 0 0 0 0-.828zm0 0"/>
</svg>
