<svg xmlns="http://www.w3.org/2000/svg" width="32" height="32" viewBox="0 0 24 24">
    <path d="M 23.925781 11.472656 C 23.929688 11.421875 23.9375 11.371094 23.941406 11.316406 C 23.960938 11.089844 23.980469 10.863281 23.988281 10.640625 C 23.988281 10.621094 23.988281 10.601562 23.992188 10.582031 C 24 10.375 24 10.167969 24 9.960938 C 24 9.90625 24 9.851562 24 9.792969 C 23.996094 9.585938 23.984375 9.378906 23.972656 9.171875 C 23.972656 9.152344 23.972656 9.128906 23.96875 9.105469 C 23.96875 9.101562 23.964844 9.097656 23.964844 9.089844 C 23.671875 5.042969 21.515625 1.808594 18.460938 1.339844 C 15.714844 0.914062 12.878906 2.855469 11.25 6.203125 C 9.261719 3.988281 6.675781 2.910156 4.34375 3.636719 C 0.761719 4.746094 -0.917969 9.683594 0.503906 14.757812 C 0.539062 14.882812 0.574219 15.007812 0.609375 15.125 C 0.691406 15.386719 0.78125 15.648438 0.878906 15.902344 C 0.90625 15.980469 0.9375 16.054688 0.96875 16.128906 C 1.019531 16.261719 1.070312 16.398438 1.128906 16.527344 C 1.132812 16.539062 1.140625 16.550781 1.148438 16.5625 C 2.761719 20.277344 5.785156 22.71875 8.695312 22.71875 C 9.199219 22.71875 9.699219 22.648438 10.1875 22.496094 C 11.480469 22.09375 12.527344 21.191406 13.269531 19.964844 C 13.9375 20.433594 14.667969 20.730469 15.445312 20.851562 C 15.699219 20.890625 15.953125 20.910156 16.207031 20.910156 C 18.101562 20.910156 19.933594 19.828125 21.347656 18.054688 C 21.363281 18.042969 21.382812 18.035156 21.394531 18.019531 C 21.859375 17.429688 22.273438 16.765625 22.628906 16.042969 C 22.640625 16.019531 22.648438 15.992188 22.65625 15.964844 C 23.167969 14.910156 23.558594 13.730469 23.78125 12.460938 C 23.785156 12.449219 23.789062 12.4375 23.792969 12.425781 L 23.804688 12.347656 C 23.816406 12.285156 23.828125 12.222656 23.835938 12.160156 C 23.835938 12.160156 23.839844 12.160156 23.839844 12.160156 C 23.875 11.929688 23.902344 11.699219 23.925781 11.472656 Z M 22.226562 14.960938 L 20.828125 12.460938 C 20.71875 12.265625 20.472656 12.195312 20.277344 12.304688 L 15.546875 14.933594 L 14.160156 11.882812 C 14.144531 11.808594 14.125 11.734375 14.105469 11.660156 C 14.09375 11.617188 14.082031 11.570312 14.070312 11.527344 C 14.027344 11.359375 13.980469 11.191406 13.925781 11.027344 C 13.925781 11.019531 13.921875 11.011719 13.921875 11.003906 C 13.917969 11 13.917969 10.992188 13.914062 10.988281 C 13.859375 10.8125 13.804688 10.644531 13.746094 10.476562 C 13.738281 10.460938 13.734375 10.441406 13.726562 10.425781 C 13.710938 10.378906 13.691406 10.335938 13.675781 10.289062 C 13.632812 10.175781 13.589844 10.0625 13.546875 9.949219 C 13.535156 9.921875 13.523438 9.890625 13.511719 9.863281 C 13.492188 9.816406 13.472656 9.773438 13.453125 9.726562 C 13.414062 9.628906 13.371094 9.527344 13.328125 9.433594 C 13.308594 9.394531 13.292969 9.355469 13.277344 9.316406 C 13.257812 9.273438 13.238281 9.234375 13.21875 9.191406 C 13.214844 9.191406 13.214844 9.1875 13.214844 9.1875 L 14.183594 8.730469 L 16.03125 12.621094 C 16.078125 12.722656 16.167969 12.800781 16.277344 12.835938 C 16.316406 12.847656 16.359375 12.851562 16.398438 12.851562 C 16.46875 12.851562 16.539062 12.835938 16.601562 12.796875 L 20.8125 10.324219 L 22.957031 12.492188 C 22.789062 13.367188 22.539062 14.195312 22.226562 14.960938 Z M 14.347656 17.03125 C 14.363281 16.933594 14.382812 16.835938 14.398438 16.738281 C 14.410156 16.640625 14.425781 16.546875 14.4375 16.449219 C 14.445312 16.390625 14.453125 16.328125 14.460938 16.265625 C 14.464844 16.214844 14.46875 16.167969 14.476562 16.117188 C 14.484375 16.011719 14.496094 15.902344 14.503906 15.792969 C 14.507812 15.703125 14.511719 15.613281 14.515625 15.519531 C 14.523438 15.398438 14.527344 15.273438 14.527344 15.152344 C 14.53125 15.015625 14.53125 14.878906 14.53125 14.742188 C 14.527344 14.714844 14.53125 14.6875 14.53125 14.660156 L 14.988281 15.671875 C 15.035156 15.773438 15.125 15.855469 15.230469 15.890625 C 15.339844 15.925781 15.457031 15.914062 15.558594 15.859375 L 20.316406 13.210938 L 21.804688 15.875 C 21.582031 16.304688 21.335938 16.710938 21.070312 17.089844 L 19.984375 15.664062 C 19.863281 15.507812 19.652344 15.460938 19.476562 15.546875 L 14.722656 17.988281 L 14.328125 17.15625 C 14.335938 17.117188 14.339844 17.074219 14.347656 17.03125 Z M 1.578125 15.449219 C 1.511719 15.261719 1.445312 15.074219 1.386719 14.886719 C 1.316406 14.660156 1.261719 14.4375 1.203125 14.214844 C 1.160156 14.039062 1.121094 13.859375 1.082031 13.667969 L 3.128906 10.742188 L 7.691406 13.023438 C 7.796875 13.074219 7.917969 13.078125 8.023438 13.035156 C 8.132812 12.992188 8.21875 12.90625 8.257812 12.796875 L 9.761719 8.664062 L 12.332031 9.234375 C 12.335938 9.242188 12.339844 9.253906 12.34375 9.265625 C 12.363281 9.296875 12.378906 9.328125 12.394531 9.359375 C 12.5 9.582031 12.601562 9.808594 12.699219 10.035156 C 12.734375 10.121094 12.769531 10.203125 12.800781 10.285156 C 12.894531 10.523438 12.980469 10.761719 13.0625 11 C 13.078125 11.050781 13.09375 11.097656 13.109375 11.148438 L 10.808594 10.636719 C 10.628906 10.597656 10.441406 10.683594 10.355469 10.851562 L 8.496094 14.578125 L 3.96875 12.691406 C 3.792969 12.617188 3.585938 12.675781 3.476562 12.832031 L 1.601562 15.515625 C 1.59375 15.492188 1.585938 15.472656 1.578125 15.449219 Z M 21.171875 9.527344 C 21.039062 9.394531 20.835938 9.367188 20.675781 9.464844 L 16.574219 11.871094 L 14.746094 8.015625 C 14.675781 7.867188 14.53125 7.78125 14.378906 7.78125 C 14.320312 7.78125 14.261719 7.792969 14.203125 7.820312 L 12.84375 8.460938 C 12.839844 8.453125 12.835938 8.445312 12.832031 8.4375 C 12.832031 8.4375 12.828125 8.433594 12.828125 8.433594 C 12.761719 8.308594 12.691406 8.1875 12.617188 8.066406 C 12.582031 8.007812 12.546875 7.945312 12.511719 7.886719 C 12.4375 7.769531 12.363281 7.65625 12.289062 7.539062 C 12.273438 7.523438 12.265625 7.503906 12.253906 7.488281 C 12.171875 7.363281 12.085938 7.242188 12 7.125 C 12 7.125 11.996094 7.121094 11.996094 7.121094 L 15 5.5 L 16.855469 9.578125 C 16.902344 9.6875 17 9.769531 17.117188 9.800781 C 17.234375 9.832031 17.359375 9.808594 17.457031 9.742188 L 21.222656 7.105469 L 23.167969 9.300781 C 23.171875 9.367188 23.171875 9.4375 23.175781 9.503906 C 23.183594 9.6875 23.1875 9.875 23.1875 10.0625 C 23.1875 10.140625 23.1875 10.222656 23.1875 10.304688 C 23.179688 10.546875 23.167969 10.792969 23.148438 11.042969 C 23.144531 11.101562 23.136719 11.164062 23.132812 11.222656 C 23.125 11.308594 23.113281 11.394531 23.101562 11.480469 Z M 18.335938 2.140625 C 20.699219 2.507812 22.4375 4.820312 22.996094 7.878906 L 21.59375 6.292969 C 21.453125 6.140625 21.222656 6.113281 21.054688 6.230469 L 17.390625 8.792969 L 15.5625 4.769531 C 15.515625 4.667969 15.429688 4.585938 15.320312 4.550781 C 15.214844 4.515625 15.097656 4.527344 15 4.578125 L 12.238281 6.066406 C 13.734375 3.34375 16.085938 1.792969 18.335938 2.140625 Z M 4.585938 4.410156 C 5 4.285156 5.425781 4.222656 5.855469 4.222656 C 7.648438 4.222656 9.507812 5.308594 10.972656 7.113281 L 11.039062 7.199219 C 11.09375 7.265625 11.144531 7.339844 11.195312 7.40625 C 11.402344 7.675781 11.59375 7.957031 11.777344 8.25 C 11.785156 8.257812 11.789062 8.269531 11.792969 8.277344 C 11.796875 8.277344 11.796875 8.28125 11.796875 8.28125 L 9.589844 7.792969 C 9.390625 7.746094 9.1875 7.859375 9.117188 8.050781 L 7.648438 12.089844 L 3.179688 9.855469 C 3 9.765625 2.78125 9.824219 2.664062 9.988281 L 0.890625 12.519531 C 0.445312 8.648438 1.886719 5.246094 4.585938 4.410156 Z M 9.945312 21.71875 C 7.066406 22.613281 3.714844 20.289062 1.964844 16.410156 L 3.957031 13.566406 L 8.53125 15.472656 C 8.730469 15.554688 8.957031 15.46875 9.050781 15.277344 L 10.941406 11.5 L 13.359375 12.035156 C 13.363281 12.058594 13.371094 12.078125 13.375 12.101562 C 13.40625 12.230469 13.429688 12.359375 13.457031 12.488281 C 13.480469 12.601562 13.503906 12.71875 13.527344 12.832031 C 13.550781 12.980469 13.574219 13.125 13.597656 13.273438 C 13.609375 13.375 13.621094 13.476562 13.632812 13.578125 C 13.652344 13.71875 13.667969 13.859375 13.679688 14.003906 C 13.683594 14.050781 13.6875 14.101562 13.6875 14.148438 C 13.699219 14.296875 13.707031 14.441406 13.710938 14.585938 C 13.714844 14.65625 13.714844 14.722656 13.71875 14.792969 C 13.71875 14.921875 13.71875 15.050781 13.714844 15.179688 C 13.714844 15.246094 13.714844 15.3125 13.710938 15.378906 C 13.707031 15.53125 13.695312 15.683594 13.683594 15.832031 C 13.683594 15.855469 13.683594 15.882812 13.679688 15.90625 C 13.679688 15.929688 13.675781 15.957031 13.671875 15.984375 C 13.65625 16.167969 13.636719 16.347656 13.609375 16.527344 C 13.609375 16.535156 13.605469 16.546875 13.605469 16.558594 C 13.578125 16.738281 13.546875 16.914062 13.507812 17.085938 C 13.484375 17.203125 13.460938 17.320312 13.433594 17.433594 C 13.433594 17.441406 13.429688 17.445312 13.429688 17.453125 C 13.273438 18.070312 13.0625 18.648438 12.785156 19.175781 L 12.695312 19.347656 C 12.050781 20.507812 11.117188 21.355469 9.945312 21.71875 Z M 15.570312 20.046875 C 14.890625 19.941406 14.246094 19.671875 13.65625 19.246094 C 13.789062 18.964844 13.902344 18.675781 14.003906 18.375 L 14.167969 18.71875 C 14.214844 18.816406 14.300781 18.894531 14.402344 18.929688 C 14.445312 18.941406 14.488281 18.949219 14.535156 18.949219 C 14.597656 18.949219 14.660156 18.933594 14.71875 18.90625 L 19.542969 16.429688 L 20.558594 17.761719 C 19.164062 19.417969 17.367188 20.324219 15.570312 20.046875 Z M 15.570312 20.046875"/>
</svg>
