<svg xmlns="http://www.w3.org/2000/svg" width="32" height="32" viewBox="0 0 24 24">
    <path d="M 13.015625 5.289062 C 12.828125 5.289062 12.640625 5.292969 12.457031 5.304688 C 12.011719 4.941406 11.445312 4.726562 10.828125 4.726562 C 10.015625 4.726562 9.355469 4.066406 9.355469 3.253906 L 9.355469 2.847656 C 9.355469 2.621094 9.171875 2.441406 8.949219 2.441406 C 8.726562 2.441406 8.542969 2.621094 8.542969 2.847656 L 8.542969 3.253906 C 8.542969 4.507812 9.558594 5.527344 10.808594 5.539062 C 9.199219 5.925781 8.136719 6.742188 8.136719 7.730469 L 8.136719 21.558594 C 8.136719 22.582031 9.273438 23.421875 10.984375 23.792969 L 11.015625 23.800781 C 11.371094 23.875 11.75 23.929688 12.152344 23.960938 C 12.15625 23.964844 12.160156 23.964844 12.164062 23.964844 C 12.441406 23.984375 12.722656 24 13.015625 24 C 13.308594 24 13.59375 23.984375 13.867188 23.964844 C 13.871094 23.964844 13.878906 23.960938 13.882812 23.960938 C 14.28125 23.929688 14.664062 23.875 15.019531 23.796875 L 15.050781 23.792969 C 16.757812 23.421875 17.898438 22.582031 17.898438 21.558594 L 17.898438 7.730469 C 17.898438 6.335938 15.800781 5.289062 13.015625 5.289062 Z M 12.152344 6.140625 C 12.433594 6.457031 12.609375 6.867188 12.609375 7.320312 C 12.609375 7.546875 12.792969 7.730469 13.015625 7.730469 C 13.242188 7.730469 13.421875 7.546875 13.421875 7.320312 C 13.421875 6.882812 13.3125 6.46875 13.117188 6.105469 C 15.394531 6.128906 17.085938 6.972656 17.085938 7.730469 C 17.085938 8.496094 15.34375 9.355469 13.015625 9.355469 C 10.6875 9.355469 8.949219 8.496094 8.949219 7.730469 C 8.949219 7.058594 10.273438 6.320312 12.152344 6.140625 Z M 8.949219 21.558594 L 8.949219 16.03125 C 9.445312 16.402344 10.148438 16.691406 10.984375 16.875 L 10.984375 22.949219 C 9.746094 22.640625 8.949219 22.078125 8.949219 21.558594 Z M 13.015625 17.085938 C 13.441406 17.085938 13.851562 17.058594 14.238281 17.011719 L 14.238281 23.105469 C 14.230469 23.105469 14.226562 23.105469 14.222656 23.105469 C 14.050781 23.128906 13.875 23.144531 13.695312 23.160156 C 13.65625 23.160156 13.617188 23.164062 13.574219 23.167969 C 13.203125 23.191406 12.828125 23.191406 12.457031 23.167969 C 12.417969 23.164062 12.378906 23.164062 12.335938 23.160156 C 12.160156 23.144531 11.984375 23.128906 11.8125 23.105469 C 11.804688 23.105469 11.800781 23.105469 11.796875 23.105469 L 11.796875 17.011719 C 12.183594 17.058594 12.59375 17.085938 13.015625 17.085938 Z M 17.085938 21.558594 C 17.085938 22.078125 16.285156 22.640625 15.050781 22.949219 L 15.050781 16.875 C 15.886719 16.691406 16.589844 16.402344 17.085938 16.03125 Z M 14.519531 16.144531 C 14.289062 16.183594 14.050781 16.214844 13.8125 16.234375 C 13.804688 16.238281 13.796875 16.238281 13.789062 16.238281 C 13.277344 16.28125 12.753906 16.28125 12.246094 16.238281 C 12.238281 16.238281 12.230469 16.238281 12.222656 16.234375 C 11.984375 16.214844 11.746094 16.183594 11.515625 16.144531 C 9.980469 15.878906 8.949219 15.234375 8.949219 14.644531 L 8.949219 9.113281 C 8.953125 9.117188 8.960938 9.121094 8.964844 9.125 C 9.058594 9.195312 9.160156 9.261719 9.269531 9.324219 C 9.304688 9.347656 9.34375 9.367188 9.382812 9.386719 C 9.464844 9.433594 9.546875 9.476562 9.636719 9.519531 C 9.683594 9.539062 9.730469 9.558594 9.777344 9.582031 C 9.867188 9.621094 9.964844 9.660156 10.0625 9.695312 C 10.109375 9.710938 10.152344 9.730469 10.199219 9.746094 C 10.34375 9.792969 10.496094 9.84375 10.652344 9.882812 C 10.65625 9.886719 10.664062 9.886719 10.667969 9.886719 C 10.824219 9.925781 10.980469 9.960938 11.144531 9.996094 C 11.199219 10.003906 11.253906 10.015625 11.308594 10.023438 C 11.429688 10.046875 11.550781 10.0625 11.675781 10.082031 C 11.738281 10.089844 11.800781 10.097656 11.867188 10.105469 C 11.992188 10.117188 12.121094 10.128906 12.253906 10.140625 C 12.3125 10.144531 12.371094 10.148438 12.433594 10.152344 C 12.625 10.164062 12.816406 10.167969 13.015625 10.167969 C 13.214844 10.167969 13.410156 10.164062 13.601562 10.152344 C 13.660156 10.148438 13.71875 10.144531 13.777344 10.140625 C 13.910156 10.128906 14.039062 10.117188 14.167969 10.105469 C 14.230469 10.097656 14.296875 10.089844 14.359375 10.082031 C 14.484375 10.066406 14.605469 10.046875 14.726562 10.023438 C 14.78125 10.015625 14.835938 10.007812 14.890625 9.996094 C 15.050781 9.964844 15.210938 9.929688 15.363281 9.886719 C 15.371094 9.886719 15.375 9.886719 15.382812 9.882812 C 15.539062 9.84375 15.6875 9.796875 15.835938 9.746094 C 15.882812 9.730469 15.925781 9.710938 15.972656 9.695312 C 16.070312 9.660156 16.164062 9.621094 16.257812 9.582031 C 16.304688 9.5625 16.351562 9.539062 16.398438 9.519531 C 16.484375 9.476562 16.570312 9.433594 16.652344 9.390625 C 16.6875 9.367188 16.730469 9.347656 16.765625 9.324219 C 16.871094 9.261719 16.972656 9.195312 17.066406 9.125 C 17.074219 9.121094 17.078125 9.121094 17.085938 9.117188 L 17.085938 14.644531 C 17.085938 15.234375 16.054688 15.878906 14.519531 16.144531 Z M 14.519531 16.144531"/>
    <path d="M11.800781 11.464844L10.957031 11.34375 10.578125 10.578125 10.203125 11.34375 9.355469 11.464844 9.96875 12.0625 9.824219 12.902344 10.578125 12.503906 11.335938 12.902344 11.191406 12.0625zM15.828125 11.34375L15.453125 10.578125 15.074219 11.34375 14.226562 11.464844 14.839844 12.0625 14.695312 12.902344 15.453125 12.503906 16.207031 12.902344 16.0625 12.0625 16.675781 11.464844zM13.398438 13.894531L13.019531 13.128906 12.640625 13.894531 11.796875 14.019531 12.410156 14.617188 12.265625 15.457031 13.019531 15.058594 13.777344 15.457031 13.632812 14.617188 14.242188 14.019531zM8.949219 1.628906C9.171875 1.628906 9.355469 1.445312 9.355469 1.21875L9.355469.40625C9.355469.183594 9.171875 0 8.949219 0 8.726562 0 8.542969.183594 8.542969.40625L8.542969 1.21875C8.542969 1.445312 8.726562 1.628906 8.949219 1.628906zM10.167969 2.035156C10.273438 2.035156 10.378906 1.992188 10.457031 1.914062L11.269531 1.101562C11.429688.941406 11.429688.683594 11.269531.527344 11.113281.367188 10.855469.367188 10.695312.527344L9.882812 1.339844C9.722656 1.5 9.722656 1.753906 9.882812 1.914062 9.960938 1.992188 10.066406 2.035156 10.167969 2.035156zM7.441406 1.914062C7.519531 1.992188 7.625 2.035156 7.730469 2.035156 7.832031 2.035156 7.9375 1.992188 8.015625 1.914062 8.175781 1.753906 8.175781 1.5 8.015625 1.339844L7.203125.527344C7.042969.367188 6.785156.367188 6.628906.527344 6.46875.683594 6.46875.941406 6.628906 1.101562zM7.320312 3.253906C7.546875 3.253906 7.730469 3.074219 7.730469 2.847656 7.730469 2.621094 7.546875 2.441406 7.320312 2.441406L6.507812 2.441406C6.285156 2.441406 6.101562 2.621094 6.101562 2.847656 6.101562 3.074219 6.285156 3.253906 6.507812 3.253906zM10.578125 2.441406C10.351562 2.441406 10.167969 2.621094 10.167969 2.847656 10.167969 3.074219 10.351562 3.253906 10.578125 3.253906L11.390625 3.253906C11.613281 3.253906 11.796875 3.074219 11.796875 2.847656 11.796875 2.621094 11.613281 2.441406 11.390625 2.441406zM8.015625 3.78125C7.855469 3.621094 7.601562 3.621094 7.441406 3.78125L6.628906 4.59375C6.46875 4.753906 6.46875 5.011719 6.628906 5.167969 6.707031 5.25 6.8125 5.289062 6.914062 5.289062 7.019531 5.289062 7.125 5.25 7.203125 5.167969L8.015625 4.355469C8.175781 4.195312 8.175781 3.9375 8.015625 3.78125zM8.015625 3.78125"/>
</svg>
