<svg xmlns="http://www.w3.org/2000/svg" width="32" height="32" viewBox="0 0 24 24">
    <path d="M23.258 4.61c-.434-.614-1.168-.954-2.086-.993.125-1.73-.453-3.074-1.54-3.492-.874-.332-1.921.004-2.862.898-.426-.378-.918-.597-1.442-.597-1.683 0-3 2.164-3 4.93 0 2.05.742 3.804 1.84 4.546-.941.961-1.16 3.121-1.203 6.016-.512-.793-1.18-1.387-2.055-1.637.594-1.015.813-2.543.52-4.176-.489-2.718-2.168-4.613-3.825-4.32-.515.094-.96.395-1.312.844-1.086-.715-2.176-.863-2.977-.379-.996.602-1.32 2.023-.894 3.703-.871.195-1.55.652-1.883 1.352-.766 1.633.676 3.87 3.285 5.097 1.031.485 2.11.743 3.094.743.168 0 .332-.008.492-.024 1.188-.11 2.05-.621 2.434-1.437.07-.145.113-.293.148-.446.106-.062.207-.133.301-.21 3.156.413 3.41 6.6 3.41 8.546a.427.427 0 0 0 .856 0c0-1.441-.118-3.847-.778-5.87a.363.363 0 0 0 .028-.13c0-2.64.004-6.164 1.007-7.105l.059.097c.465.653 1.258 1 2.262 1 .129 0 .258-.004.39-.015 1.106-.094 2.313-.57 3.399-1.344 1.09-.773 1.937-1.754 2.39-2.77.485-1.09.465-2.093-.058-2.828zm-15.5 2.019c1.148-.207 2.437 1.457 2.828 3.625.285 1.586.02 3.113-.61 3.883a.03.03 0 0 1-.007-.02 3.673 3.673 0 0 0-.39-.945c-.013-.02-.02-.035-.032-.05a5.133 5.133 0 0 0-.703-.919l-.035-.039a7.44 7.44 0 0 0-.438-.414 7.847 7.847 0 0 0-.54-.422c-.019-.016-.042-.027-.061-.043a9.241 9.241 0 0 0-.383-.25h-.004v-.004c-.031-.015-.063-.035-.094-.05l-.137-.083c-.054-.03-.109-.062-.168-.093 0-.004-.004-.004-.004-.004a10.633 10.633 0 0 0-.421-.215c-.086-.04-.172-.078-.262-.117-.004-.047-.012-.098-.016-.149a1.427 1.427 0 0 1-.008-.129c-.007-.125-.015-.25-.015-.37v-.048c0-.14.004-.28.012-.421l.003-.063a4.538 4.538 0 0 1 .047-.426c.016-.12.04-.242.063-.36 0-.003.004-.007.004-.01.086-.4.215-.755.386-1.052 0-.003 0-.011.004-.015.254-.438.59-.727.98-.797zm-4 .355c.512-.304 1.293-.16 2.097.375v.004a4.495 4.495 0 0 0-.218.598c-.004.012-.004.02-.008.031-.059.207-.11.43-.145.66a7.08 7.08 0 0 0-.074 1.43v.066c-.004-.003-.008-.003-.015-.003-.743-.223-1.465-.325-2.122-.301-.367-1.332-.183-2.457.485-2.86zm3.57 9.286c-.953.09-2.066-.141-3.14-.645-2.098-.988-3.415-2.8-2.872-3.953.258-.55.895-.867 1.72-.945a4.596 4.596 0 0 1 .667-.016c.195.012.39.031.59.062.035.004.066.012.102.016.207.035.418.082.628.14.012 0 .024.008.036.008a8.612 8.612 0 0 1 .699.235 7.88 7.88 0 0 1 .8.375c.047.023.094.05.141.078.063.04.13.074.192.113.062.035.117.075.175.114a2.82 2.82 0 0 1 .329.226l.105.074c.066.051.133.106.195.157.024.02.047.043.075.062.066.059.132.117.195.176.015.012.027.027.043.039.183.176.351.355.496.539.043.055.086.11.125.164.043.059.082.121.121.18.012.015.02.027.027.039.036.058.067.117.098.172.02.03.035.058.05.09l.071.152c.016.035.031.07.043.105.02.047.035.094.05.141.013.035.024.074.036.11.012.046.02.09.031.136.008.04.012.074.016.113.008.043.012.086.015.125v.121c0 .04 0 .075-.003.11-.016.152-.051.3-.114.437-.25.528-.867.867-1.742.95zm12-15.344c.73.281 1.11 1.36.98 2.734-.007.004-.015.004-.023.008-.492.07-.996.215-1.504.426l-.023.011a6.738 6.738 0 0 0-.453.207c-.016.008-.032.012-.043.02l-.012-.059a6.668 6.668 0 0 0-.586-2.027l-.012-.023a5.03 5.03 0 0 0-.32-.555h-.004c.703-.68 1.434-.957 2-.742zm-6.144 4.43c0-2.208.984-4.07 2.144-4.07.399 0 .777.222 1.106.609.003.003.003.011.007.015.22.262.41.59.563.961l.012.024c.043.109.082.218.12.332.009.027.02.058.028.086.035.105.063.21.09.32a4.773 4.773 0 0 1 .105.48l.012.055c.02.117.035.238.047.355.008.047.012.094.016.137.003.05.007.098.007.149-.078.05-.156.105-.234.16-.066.047-.129.097-.191.144-.063.047-.125.09-.184.14-.05.036-.094.075-.14.114l-.137.117c-.137.121-.27.243-.399.371l-.086.086a6.96 6.96 0 0 0-.36.403c-.046.054-.093.113-.14.172a5.749 5.749 0 0 0-.183.246c-.008.008-.016.02-.024.031-.008.012-.015.027-.027.039l-.106.152a4.329 4.329 0 0 0-.183.309l-.063.11c-.03.062-.062.124-.093.19-.008.016-.02.032-.024.048-.004.004-.004.004-.004.007-.011.032-.031.059-.043.09-.023.047-.039.094-.054.14a3.477 3.477 0 0 0-.215.66l-.012.056a4.2 4.2 0 0 0-.059.422c0 .02-.003.035-.003.05-.758-.648-1.293-2.101-1.293-3.71zM22.53 7.09c-.386.875-1.133 1.734-2.097 2.418-.965.687-2.024 1.11-2.98 1.187-.872.075-1.54-.148-1.88-.625a1.388 1.388 0 0 1-.187-.39c-.012-.04-.016-.082-.024-.125-.008-.032-.015-.063-.02-.094-.007-.047-.007-.09-.011-.137 0-.031-.004-.066-.004-.097 0-.047.004-.098.008-.145.004-.035.004-.07.008-.105.004-.047.015-.098.023-.149.008-.035.012-.07.02-.11.015-.05.027-.105.043-.16l.03-.101c.02-.062.044-.121.067-.184l.032-.078c.027-.066.054-.133.09-.199.027-.062.062-.125.093-.184a5.56 5.56 0 0 1 .633-.925c.066-.078.133-.157.203-.23.012-.016.027-.032.04-.044.066-.07.132-.14.202-.207l.07-.07c.063-.059.13-.117.192-.176.047-.043.098-.082.145-.12.05-.044.097-.087.152-.13.07-.055.144-.11.215-.164.039-.027.07-.055.11-.078.132-.098.269-.188.41-.273.019-.012.042-.024.066-.04a6.665 6.665 0 0 1 1.57-.695c.012-.004.02-.008.031-.008a2.682 2.682 0 0 1 .348-.086c.09-.02.18-.039.27-.05.019-.004.042-.004.066-.008.086-.012.176-.024.262-.028v-.003c.09-.004.183-.012.27-.012.718 0 1.265.226 1.562.644.34.477.332 1.18-.028 1.98zm0 0"/>
    <path d="M18.43 17.785a6.212 6.212 0 0 0 2.636-5.094.43.43 0 0 0-.52-.421c-1.566.02-3.034.66-4.144 1.8a6.232 6.232 0 0 0-1.742 4.297c0 .004-.004.004-.004.008s.004.008.004.012c0 .011-.004.023-.004.035 0 .02.008.043.012.066a.442.442 0 0 0 .07.18c.848 1.988 2.82 3.187 4.926 3.187a5.57 5.57 0 0 0 2.09-.406.433.433 0 0 0 .27-.394.433.433 0 0 0-.075-.242c-.637-1.512-1.945-2.61-3.52-3.028zm-1.41-3.117a5.007 5.007 0 0 1 3.171-1.523c-.175 2.054-1.48 3.773-3.265 4.484 0 .004-.004 0-.008.004-.422.164-.852.27-1.29.316l-.073.012h-.024a5.358 5.358 0 0 1 1.489-3.293zm-1.258 4.133c.23-.024.453-.07.675-.121l.083-.024c.199-.05.394-.11.585-.183l.047-.012c1.649.043 3.11.945 3.848 2.344-2.047.605-4.219-.239-5.238-2.004zm0 0"/>
</svg>
