<svg xmlns="http://www.w3.org/2000/svg" width="32" height="32" viewBox="0 0 24 24">
    <path d="M 23.257812 4.609375 C 22.824219 3.996094 22.089844 3.65625 21.171875 3.617188 C 21.296875 1.886719 20.71875 0.542969 19.632812 0.125 C 18.757812 -0.207031 17.710938 0.128906 16.769531 1.023438 C 16.34375 0.644531 15.851562 0.425781 15.328125 0.425781 C 13.644531 0.425781 12.328125 2.589844 12.328125 5.355469 C 12.328125 7.40625 13.070312 9.160156 14.167969 9.902344 C 13.226562 10.863281 13.007812 13.023438 12.964844 15.917969 C 12.453125 15.125 11.785156 14.53125 10.910156 14.28125 C 11.503906 13.265625 11.722656 11.738281 11.429688 10.105469 C 10.941406 7.386719 9.261719 5.492188 7.605469 5.785156 C 7.089844 5.878906 6.644531 6.179688 6.292969 6.628906 C 5.207031 5.914062 4.117188 5.765625 3.316406 6.25 C 2.320312 6.851562 1.996094 8.273438 2.421875 9.953125 C 1.550781 10.148438 0.871094 10.605469 0.539062 11.304688 C -0.226562 12.9375 1.214844 15.175781 3.824219 16.402344 C 4.855469 16.886719 5.933594 17.144531 6.917969 17.144531 C 7.085938 17.144531 7.25 17.136719 7.410156 17.121094 C 8.597656 17.011719 9.460938 16.5 9.84375 15.683594 C 9.914062 15.539062 9.957031 15.390625 9.992188 15.238281 C 10.097656 15.175781 10.199219 15.105469 10.292969 15.027344 C 13.449219 15.441406 13.703125 21.628906 13.703125 23.574219 C 13.703125 23.808594 13.894531 24 14.128906 24 C 14.367188 24 14.558594 23.808594 14.558594 23.574219 C 14.558594 22.132812 14.441406 19.726562 13.78125 17.703125 C 13.796875 17.660156 13.808594 17.621094 13.808594 17.574219 C 13.808594 14.933594 13.8125 11.410156 14.816406 10.46875 C 14.835938 10.5 14.855469 10.535156 14.875 10.566406 C 15.339844 11.21875 16.132812 11.566406 17.136719 11.566406 C 17.265625 11.566406 17.394531 11.5625 17.527344 11.550781 C 18.632812 11.457031 19.839844 10.980469 20.925781 10.207031 C 22.015625 9.433594 22.863281 8.453125 23.316406 7.4375 C 23.800781 6.347656 23.78125 5.34375 23.257812 4.609375 Z M 7.757812 6.628906 C 8.90625 6.421875 10.195312 8.085938 10.585938 10.253906 C 10.871094 11.839844 10.605469 13.367188 9.976562 14.136719 C 9.972656 14.132812 9.96875 14.125 9.96875 14.117188 C 9.890625 13.800781 9.757812 13.484375 9.578125 13.171875 C 9.566406 13.152344 9.558594 13.136719 9.546875 13.121094 C 9.363281 12.808594 9.125 12.5 8.84375 12.203125 C 8.832031 12.191406 8.820312 12.175781 8.808594 12.164062 C 8.671875 12.023438 8.527344 11.886719 8.371094 11.75 C 8.363281 11.746094 8.355469 11.738281 8.347656 11.730469 C 8.1875 11.59375 8.011719 11.457031 7.832031 11.328125 C 7.8125 11.3125 7.789062 11.300781 7.769531 11.285156 C 7.644531 11.199219 7.519531 11.117188 7.386719 11.035156 C 7.386719 11.035156 7.382812 11.035156 7.382812 11.035156 C 7.382812 11.035156 7.382812 11.035156 7.382812 11.03125 C 7.351562 11.015625 7.320312 10.996094 7.289062 10.980469 C 7.242188 10.953125 7.199219 10.925781 7.152344 10.898438 C 7.097656 10.867188 7.042969 10.835938 6.984375 10.804688 C 6.984375 10.800781 6.980469 10.800781 6.980469 10.800781 C 6.84375 10.726562 6.703125 10.65625 6.558594 10.585938 C 6.472656 10.546875 6.386719 10.507812 6.296875 10.46875 C 6.292969 10.421875 6.285156 10.371094 6.28125 10.320312 C 6.277344 10.277344 6.273438 10.234375 6.273438 10.191406 C 6.265625 10.066406 6.257812 9.941406 6.257812 9.820312 C 6.257812 9.804688 6.257812 9.789062 6.257812 9.773438 C 6.257812 9.632812 6.261719 9.492188 6.269531 9.351562 C 6.269531 9.332031 6.273438 9.308594 6.273438 9.289062 C 6.28125 9.171875 6.292969 9.058594 6.308594 8.949219 C 6.3125 8.917969 6.316406 8.890625 6.320312 8.863281 C 6.335938 8.742188 6.359375 8.621094 6.382812 8.503906 C 6.382812 8.5 6.386719 8.496094 6.386719 8.492188 C 6.472656 8.09375 6.601562 7.738281 6.773438 7.441406 C 6.773438 7.4375 6.773438 7.429688 6.777344 7.425781 C 7.03125 6.988281 7.367188 6.699219 7.757812 6.628906 Z M 3.757812 6.984375 C 4.269531 6.679688 5.050781 6.824219 5.855469 7.359375 C 5.855469 7.363281 5.855469 7.363281 5.855469 7.363281 C 5.769531 7.550781 5.699219 7.75 5.636719 7.960938 C 5.632812 7.972656 5.632812 7.980469 5.628906 7.992188 C 5.570312 8.199219 5.519531 8.421875 5.484375 8.652344 C 5.414062 9.097656 5.386719 9.578125 5.410156 10.082031 C 5.410156 10.105469 5.410156 10.125 5.410156 10.148438 C 5.40625 10.144531 5.402344 10.144531 5.394531 10.144531 C 4.652344 9.921875 3.929688 9.820312 3.273438 9.84375 C 2.90625 8.511719 3.089844 7.386719 3.757812 6.984375 Z M 7.328125 16.269531 C 6.375 16.359375 5.261719 16.128906 4.1875 15.625 C 2.089844 14.636719 0.773438 12.824219 1.316406 11.671875 C 1.574219 11.121094 2.210938 10.804688 3.035156 10.726562 C 3.21875 10.707031 3.410156 10.703125 3.609375 10.707031 C 3.640625 10.710938 3.671875 10.710938 3.703125 10.710938 C 3.898438 10.722656 4.09375 10.742188 4.292969 10.773438 C 4.328125 10.777344 4.359375 10.785156 4.394531 10.789062 C 4.601562 10.824219 4.8125 10.871094 5.023438 10.929688 C 5.035156 10.929688 5.046875 10.9375 5.058594 10.9375 C 5.277344 11 5.496094 11.074219 5.714844 11.15625 C 5.726562 11.164062 5.742188 11.167969 5.757812 11.171875 C 5.902344 11.230469 6.050781 11.292969 6.195312 11.363281 C 6.320312 11.421875 6.441406 11.484375 6.558594 11.546875 C 6.605469 11.570312 6.652344 11.597656 6.699219 11.625 C 6.761719 11.664062 6.828125 11.699219 6.890625 11.738281 C 6.953125 11.773438 7.007812 11.8125 7.066406 11.851562 C 7.113281 11.878906 7.160156 11.910156 7.207031 11.941406 C 7.269531 11.984375 7.335938 12.03125 7.394531 12.078125 C 7.429688 12.101562 7.464844 12.128906 7.5 12.152344 C 7.566406 12.203125 7.632812 12.257812 7.695312 12.308594 C 7.71875 12.328125 7.742188 12.351562 7.769531 12.371094 C 7.835938 12.429688 7.902344 12.488281 7.964844 12.546875 C 7.980469 12.558594 7.992188 12.574219 8.007812 12.585938 C 8.191406 12.761719 8.359375 12.941406 8.503906 13.125 C 8.546875 13.179688 8.589844 13.234375 8.628906 13.289062 C 8.671875 13.347656 8.710938 13.410156 8.75 13.46875 C 8.761719 13.484375 8.769531 13.496094 8.777344 13.507812 C 8.8125 13.566406 8.84375 13.625 8.875 13.679688 C 8.894531 13.710938 8.910156 13.738281 8.925781 13.769531 C 8.949219 13.820312 8.972656 13.871094 8.996094 13.921875 C 9.011719 13.957031 9.027344 13.992188 9.039062 14.027344 C 9.058594 14.074219 9.074219 14.121094 9.089844 14.167969 C 9.101562 14.203125 9.113281 14.242188 9.125 14.277344 C 9.136719 14.324219 9.144531 14.367188 9.15625 14.414062 C 9.164062 14.453125 9.167969 14.488281 9.171875 14.527344 C 9.179688 14.570312 9.183594 14.613281 9.1875 14.652344 C 9.1875 14.695312 9.1875 14.734375 9.1875 14.773438 C 9.1875 14.8125 9.1875 14.847656 9.183594 14.882812 C 9.167969 15.035156 9.132812 15.183594 9.070312 15.320312 C 8.820312 15.847656 8.203125 16.1875 7.328125 16.269531 Z M 19.328125 0.925781 C 20.058594 1.207031 20.4375 2.285156 20.308594 3.660156 C 20.300781 3.664062 20.292969 3.664062 20.285156 3.667969 C 19.792969 3.738281 19.289062 3.882812 18.78125 4.09375 C 18.773438 4.097656 18.765625 4.101562 18.757812 4.105469 C 18.605469 4.167969 18.453125 4.238281 18.304688 4.3125 C 18.289062 4.320312 18.273438 4.324219 18.261719 4.332031 C 18.257812 4.3125 18.253906 4.292969 18.25 4.273438 C 18.148438 3.511719 17.945312 2.824219 17.664062 2.246094 C 17.660156 2.238281 17.65625 2.230469 17.652344 2.222656 C 17.554688 2.023438 17.445312 1.839844 17.332031 1.667969 C 17.332031 1.667969 17.328125 1.667969 17.328125 1.667969 C 18.03125 0.988281 18.761719 0.710938 19.328125 0.925781 Z M 13.183594 5.355469 C 13.183594 3.148438 14.167969 1.285156 15.328125 1.285156 C 15.726562 1.285156 16.105469 1.507812 16.433594 1.894531 C 16.4375 1.898438 16.4375 1.90625 16.441406 1.910156 C 16.660156 2.171875 16.851562 2.5 17.003906 2.871094 C 17.007812 2.878906 17.011719 2.886719 17.015625 2.894531 C 17.058594 3.003906 17.097656 3.113281 17.136719 3.226562 C 17.144531 3.253906 17.15625 3.285156 17.164062 3.3125 C 17.199219 3.417969 17.226562 3.523438 17.253906 3.632812 C 17.261719 3.65625 17.269531 3.679688 17.273438 3.703125 C 17.308594 3.839844 17.335938 3.972656 17.359375 4.113281 C 17.363281 4.132812 17.367188 4.152344 17.371094 4.167969 C 17.390625 4.285156 17.40625 4.40625 17.417969 4.523438 C 17.425781 4.570312 17.429688 4.617188 17.433594 4.660156 C 17.4375 4.710938 17.441406 4.757812 17.441406 4.808594 C 17.363281 4.859375 17.285156 4.914062 17.207031 4.96875 C 17.140625 5.015625 17.078125 5.066406 17.015625 5.113281 C 16.953125 5.160156 16.890625 5.203125 16.832031 5.253906 C 16.78125 5.289062 16.738281 5.328125 16.691406 5.367188 C 16.644531 5.40625 16.601562 5.445312 16.554688 5.484375 C 16.417969 5.605469 16.285156 5.726562 16.15625 5.855469 C 16.128906 5.882812 16.101562 5.910156 16.070312 5.941406 C 15.945312 6.070312 15.824219 6.207031 15.710938 6.34375 C 15.664062 6.398438 15.617188 6.457031 15.570312 6.515625 C 15.507812 6.59375 15.445312 6.679688 15.386719 6.761719 C 15.378906 6.769531 15.371094 6.78125 15.363281 6.792969 C 15.355469 6.804688 15.347656 6.820312 15.335938 6.832031 C 15.300781 6.882812 15.265625 6.933594 15.230469 6.984375 C 15.167969 7.078125 15.113281 7.175781 15.058594 7.273438 C 15.054688 7.28125 15.050781 7.289062 15.046875 7.292969 C 15.027344 7.328125 15.003906 7.367188 14.984375 7.402344 C 14.953125 7.464844 14.921875 7.527344 14.890625 7.59375 C 14.882812 7.609375 14.871094 7.625 14.867188 7.640625 C 14.863281 7.644531 14.863281 7.644531 14.863281 7.648438 C 14.851562 7.679688 14.832031 7.707031 14.820312 7.738281 C 14.796875 7.785156 14.78125 7.832031 14.765625 7.878906 C 14.734375 7.949219 14.707031 8.019531 14.683594 8.085938 C 14.628906 8.238281 14.582031 8.390625 14.550781 8.539062 C 14.546875 8.558594 14.542969 8.574219 14.539062 8.59375 C 14.511719 8.738281 14.492188 8.878906 14.480469 9.015625 C 14.480469 9.035156 14.476562 9.050781 14.476562 9.066406 C 13.71875 8.417969 13.183594 6.964844 13.183594 5.355469 Z M 22.53125 7.089844 C 22.144531 7.964844 21.398438 8.824219 20.433594 9.507812 C 19.46875 10.195312 18.410156 10.617188 17.453125 10.695312 C 16.582031 10.769531 15.914062 10.546875 15.574219 10.070312 C 15.492188 9.953125 15.429688 9.820312 15.386719 9.679688 C 15.375 9.640625 15.371094 9.597656 15.363281 9.554688 C 15.355469 9.523438 15.347656 9.492188 15.34375 9.460938 C 15.335938 9.414062 15.335938 9.371094 15.332031 9.324219 C 15.332031 9.292969 15.328125 9.257812 15.328125 9.226562 C 15.328125 9.179688 15.332031 9.128906 15.335938 9.082031 C 15.339844 9.046875 15.339844 9.011719 15.34375 8.976562 C 15.347656 8.929688 15.359375 8.878906 15.367188 8.828125 C 15.375 8.792969 15.378906 8.757812 15.386719 8.71875 C 15.402344 8.667969 15.414062 8.613281 15.429688 8.558594 C 15.441406 8.523438 15.449219 8.492188 15.460938 8.457031 C 15.480469 8.394531 15.503906 8.335938 15.527344 8.273438 C 15.539062 8.246094 15.546875 8.222656 15.558594 8.195312 C 15.585938 8.128906 15.613281 8.0625 15.648438 7.996094 C 15.675781 7.933594 15.710938 7.871094 15.742188 7.8125 C 15.90625 7.507812 16.113281 7.203125 16.359375 6.90625 C 16.363281 6.898438 16.367188 6.894531 16.375 6.886719 C 16.441406 6.808594 16.507812 6.730469 16.578125 6.65625 C 16.589844 6.640625 16.605469 6.625 16.617188 6.613281 C 16.683594 6.542969 16.75 6.472656 16.820312 6.40625 C 16.84375 6.382812 16.867188 6.359375 16.890625 6.335938 C 16.953125 6.277344 17.019531 6.21875 17.082031 6.160156 C 17.128906 6.117188 17.179688 6.078125 17.226562 6.039062 C 17.277344 5.996094 17.324219 5.953125 17.378906 5.910156 C 17.449219 5.855469 17.523438 5.800781 17.59375 5.746094 C 17.632812 5.71875 17.664062 5.691406 17.703125 5.667969 C 17.835938 5.570312 17.972656 5.480469 18.113281 5.394531 C 18.132812 5.382812 18.15625 5.371094 18.179688 5.355469 C 18.695312 5.046875 19.230469 4.808594 19.75 4.660156 C 19.761719 4.65625 19.769531 4.652344 19.78125 4.652344 C 19.878906 4.621094 19.976562 4.597656 20.074219 4.578125 C 20.089844 4.574219 20.109375 4.570312 20.128906 4.566406 C 20.21875 4.546875 20.308594 4.527344 20.398438 4.515625 C 20.417969 4.511719 20.441406 4.511719 20.464844 4.507812 C 20.550781 4.496094 20.640625 4.484375 20.726562 4.480469 C 20.726562 4.480469 20.726562 4.476562 20.726562 4.476562 C 20.816406 4.472656 20.910156 4.464844 20.996094 4.464844 C 21.714844 4.464844 22.261719 4.691406 22.558594 5.109375 C 22.898438 5.585938 22.890625 6.289062 22.53125 7.089844 Z M 22.53125 7.089844"/>
    <path d="M 18.429688 17.785156 C 20.015625 16.679688 21.0625 14.808594 21.066406 12.691406 C 21.066406 12.515625 20.960938 12.359375 20.800781 12.292969 C 20.71875 12.257812 20.628906 12.253906 20.546875 12.269531 C 18.980469 12.289062 17.511719 12.929688 16.402344 14.070312 C 15.292969 15.21875 14.675781 16.742188 14.660156 18.367188 C 14.660156 18.371094 14.65625 18.371094 14.65625 18.375 C 14.65625 18.378906 14.660156 18.382812 14.660156 18.386719 C 14.660156 18.398438 14.65625 18.410156 14.65625 18.421875 C 14.65625 18.441406 14.664062 18.464844 14.667969 18.488281 C 14.667969 18.496094 14.667969 18.507812 14.671875 18.515625 C 14.683594 18.570312 14.707031 18.621094 14.738281 18.667969 C 15.585938 20.65625 17.558594 21.855469 19.664062 21.855469 C 20.359375 21.855469 21.066406 21.726562 21.753906 21.449219 C 21.914062 21.382812 22.023438 21.226562 22.023438 21.054688 C 22.023438 20.964844 21.996094 20.882812 21.949219 20.8125 C 21.3125 19.300781 20.003906 18.203125 18.429688 17.785156 Z M 17.019531 14.667969 C 17.878906 13.78125 18.992188 13.25 20.191406 13.144531 C 20.015625 15.199219 18.710938 16.917969 16.925781 17.628906 C 16.925781 17.632812 16.921875 17.628906 16.917969 17.632812 C 16.496094 17.796875 16.066406 17.902344 15.628906 17.949219 C 15.605469 17.953125 15.578125 17.957031 15.554688 17.960938 C 15.546875 17.960938 15.539062 17.960938 15.53125 17.960938 C 15.636719 16.714844 16.15625 15.558594 17.019531 14.667969 Z M 15.761719 18.800781 C 15.992188 18.777344 16.214844 18.730469 16.4375 18.679688 C 16.464844 18.671875 16.492188 18.664062 16.519531 18.65625 C 16.71875 18.605469 16.914062 18.546875 17.105469 18.472656 C 17.121094 18.46875 17.136719 18.464844 17.152344 18.460938 C 18.800781 18.503906 20.261719 19.40625 21 20.804688 C 18.953125 21.410156 16.78125 20.566406 15.761719 18.800781 Z M 15.761719 18.800781"/>
</svg>
