<svg xmlns="http://www.w3.org/2000/svg" width="32" height="32" viewBox="0 0 24 24">
    <path d="M 21.230469 16.933594 L 13.121094 0.207031 C 12.988281 -0.0703125 12.535156 -0.0703125 12.402344 0.207031 L 4.292969 16.933594 C 4.203125 17.117188 4.265625 17.339844 4.441406 17.445312 C 5.054688 17.832031 5.691406 18.167969 6.347656 18.457031 C 6.484375 18.839844 6.605469 19.351562 6.703125 19.96875 C 6.714844 20.050781 6.722656 20.132812 6.726562 20.214844 C 5.667969 20.289062 3.984375 20.613281 3.015625 21.851562 C 2.730469 22.21875 2.652344 22.699219 2.808594 23.132812 C 2.957031 23.546875 3.300781 23.851562 3.730469 23.945312 C 3.875 23.976562 4.035156 24 4.214844 24 C 4.773438 24 5.503906 23.792969 6.335938 23.0625 C 6.953125 22.515625 7.351562 21.789062 7.484375 20.996094 C 7.582031 21 7.636719 21.003906 7.640625 21.003906 C 9.164062 21.070312 10.664062 21.25 11.988281 21.40625 C 15.074219 21.777344 17.511719 22.066406 18.707031 20.867188 C 19.269531 20.308594 19.496094 19.476562 19.40625 18.34375 C 19.980469 18.078125 20.539062 17.785156 21.082031 17.445312 C 21.253906 17.339844 21.320312 17.117188 21.230469 16.933594 Z M 5.808594 22.460938 C 5.128906 23.058594 4.492188 23.296875 3.90625 23.167969 C 3.683594 23.117188 3.59375 22.953125 3.5625 22.863281 C 3.5 22.6875 3.53125 22.496094 3.648438 22.347656 C 4.390625 21.394531 5.742188 21.105469 6.664062 21.023438 C 6.539062 21.574219 6.242188 22.078125 5.808594 22.460938 Z M 13.882812 4.988281 L 14.066406 3.996094 L 15.4375 6.820312 L 15.464844 6.875 L 15.082031 6.792969 C 14.953125 6.765625 14.820312 6.804688 14.722656 6.894531 L 13.929688 7.644531 L 13.816406 6.554688 C 13.800781 6.425781 13.726562 6.308594 13.609375 6.246094 L 12.652344 5.722656 L 13.648438 5.277344 C 13.769531 5.226562 13.855469 5.117188 13.882812 4.988281 Z M 9.492188 9.839844 L 10.480469 10.308594 L 9.503906 10.808594 C 9.386719 10.867188 9.308594 10.980469 9.292969 11.113281 L 9.148438 12.195312 L 8.375 11.425781 C 8.300781 11.351562 8.199219 11.308594 8.09375 11.308594 C 8.070312 11.308594 8.042969 11.3125 8.019531 11.316406 L 7.894531 11.339844 L 9.144531 8.761719 L 9.269531 9.542969 C 9.289062 9.671875 9.371094 9.785156 9.492188 9.839844 Z M 18.144531 20.300781 C 17.21875 21.222656 14.839844 20.941406 12.085938 20.613281 C 10.746094 20.453125 9.230469 20.273438 7.691406 20.203125 C 7.675781 20.203125 7.617188 20.199219 7.53125 20.195312 C 7.523438 20.078125 7.511719 19.964844 7.492188 19.847656 C 7.4375 19.476562 7.371094 19.140625 7.296875 18.839844 C 9.054688 19.488281 10.90625 19.816406 12.761719 19.816406 C 14.757812 19.816406 16.75 19.429688 18.625 18.679688 C 18.644531 19.421875 18.488281 19.957031 18.144531 20.300781 Z M 5.171875 16.953125 L 7.457031 12.234375 L 7.960938 12.140625 L 9.160156 13.335938 C 9.234375 13.414062 9.339844 13.453125 9.441406 13.453125 C 9.484375 13.453125 9.53125 13.445312 9.570312 13.429688 C 9.714844 13.382812 9.820312 13.253906 9.839844 13.105469 L 10.058594 11.425781 L 11.566406 10.652344 C 11.699219 10.582031 11.785156 10.445312 11.78125 10.292969 C 11.78125 10.140625 11.691406 10 11.554688 9.933594 L 10.023438 9.207031 L 9.757812 7.535156 C 9.753906 7.527344 9.75 7.519531 9.75 7.511719 L 12.761719 1.300781 L 13.503906 2.832031 C 13.476562 2.875 13.457031 2.917969 13.445312 2.96875 L 13.132812 4.632812 L 11.585938 5.316406 C 11.445312 5.378906 11.351562 5.515625 11.347656 5.667969 C 11.339844 5.820312 11.421875 5.960938 11.554688 6.035156 L 13.042969 6.847656 L 13.214844 8.53125 C 13.230469 8.683594 13.332031 8.8125 13.472656 8.867188 C 13.519531 8.882812 13.566406 8.890625 13.613281 8.890625 C 13.714844 8.890625 13.8125 8.855469 13.886719 8.78125 L 15.121094 7.621094 L 15.90625 7.789062 L 20.351562 16.953125 C 15.703125 19.703125 9.820312 19.703125 5.171875 16.953125 Z M 5.171875 16.953125"/>
    <path d="M 15.03125 13.046875 L 13.917969 11.773438 C 13.816406 11.660156 13.660156 11.613281 13.511719 11.652344 C 13.363281 11.691406 13.253906 11.808594 13.222656 11.960938 L 12.890625 13.621094 L 11.335938 14.289062 C 11.195312 14.347656 11.101562 14.484375 11.09375 14.636719 C 11.085938 14.789062 11.164062 14.929688 11.296875 15.003906 L 12.773438 15.835938 L 12.929688 17.519531 C 12.941406 17.671875 13.039062 17.804688 13.183594 17.859375 C 13.230469 17.875 13.277344 17.882812 13.328125 17.882812 C 13.425781 17.882812 13.523438 17.847656 13.597656 17.777344 L 14.84375 16.628906 L 16.496094 17.003906 C 16.644531 17.039062 16.796875 16.984375 16.894531 16.867188 C 16.988281 16.746094 17.011719 16.585938 16.945312 16.445312 L 16.238281 14.90625 L 17.105469 13.453125 C 17.183594 13.320312 17.179688 13.15625 17.097656 13.03125 C 17.011719 12.902344 16.867188 12.828125 16.714844 12.851562 Z M 15.421875 15.050781 L 15.878906 16.042969 L 14.816406 15.800781 C 14.6875 15.773438 14.550781 15.808594 14.453125 15.898438 L 13.652344 16.640625 L 13.550781 15.550781 C 13.539062 15.421875 13.464844 15.304688 13.347656 15.238281 L 12.394531 14.703125 L 13.402344 14.273438 C 13.519531 14.222656 13.609375 14.113281 13.636719 13.984375 L 13.847656 12.914062 L 14.570312 13.734375 C 14.65625 13.832031 14.785156 13.882812 14.917969 13.867188 L 16.003906 13.742188 L 15.445312 14.679688 C 15.375 14.792969 15.367188 14.933594 15.421875 15.050781 Z M 15.421875 15.050781"/>
</svg>
