<svg xmlns="http://www.w3.org/2000/svg" width="32" height="32" viewBox="0 0 24 24">
    <path d="M23.922 11.945a.406.406 0 0 0-.488-.133c-3.739 1.579-5.11-1.3-5.164-1.421a.404.404 0 0 0-.422-.235.406.406 0 0 0-.352.336c-.277 1.621-.98 2.766-2.031 3.332a4.04 4.04 0 0 0-1.586-.73c1.004-.77 2.402-.871 2.418-.875a.407.407 0 0 0 .371-.317.399.399 0 0 0-.2-.441c-.788-.445-1.25-1.031-1.402-1.793-.406-2.008 1.508-4.492 1.528-4.52a.416.416 0 0 0 .043-.43.409.409 0 0 0-.364-.226c-4.222 0-4.863-3.957-4.886-4.125a.41.41 0 0 0-.403-.351h-.004a.415.415 0 0 0-.402.355c-.59 4.484-4.668 4.14-4.844 4.121a.416.416 0 0 0-.425.274.41.41 0 0 0 .171.476C8.395 7.07 8.043 9.75 7.66 11.027a3.872 3.872 0 0 0-1.05.352c-.579-.875-.028-2.461.265-3.043a.406.406 0 1 0-.633-.488c-2.515 2.187-4.644.109-4.73.02a.408.408 0 0 0-.516-.052.395.395 0 0 0-.148.493c1.238 2.964-.598 4.34-.676 4.394a.41.41 0 0 0-.156.445c.05.168.199.286.37.293 1.063.051 1.782.364 2.13.926.625 1.008-.036 2.559-.043 2.574a.409.409 0 0 0 .132.489c.07.05.157.078.243.078a.39.39 0 0 0 .261-.098c1.086-.922 2.293-.055 2.34-.02.004.005.004.005.008.005.133.148.273.293.426.418-.637.675-1 1.562-1 2.507 0 2.02 1.64 3.66 3.66 3.66a3.653 3.653 0 0 0 3.582-2.945 4.045 4.045 0 0 0 3.406-.777c.27.289.649.469 1.059.469h.8c.676 0 1.266-.48 1.407-1.149.582-2.785 4.16-2.14 4.312-2.113.16.031.325-.04.414-.172a.4.4 0 0 0 .004-.45c-1.468-2.214.297-4.304.375-4.39a.41.41 0 0 0 .02-.508zM6.855 5.25c1.305-.184 3.317-.875 4.188-3.309.582 1.301 1.844 3.043 4.477 3.325-.606.953-1.598 2.84-1.254 4.562.136.684.468 1.27.984 1.75-.75.192-1.766.594-2.453 1.43-.027 0-.05.004-.074.008-.086.004-.172.015-.254.023-1.367-2.965-1.239-6.254-.703-7.582a.407.407 0 0 0-.754-.305c-.637 1.578-.64 4.535.312 7.23-.015-.015-.031-.034-.047-.054l-.03-.039a4.232 4.232 0 0 0-.325-.324c-.02-.02-.04-.035-.059-.055a4.083 4.083 0 0 0-.355-.273l-.067-.043a3.96 3.96 0 0 0-.394-.227l-.043-.02a3.292 3.292 0 0 0-.422-.171 3.617 3.617 0 0 0-.488-.133c-.028-.004-.055-.012-.082-.016a4.348 4.348 0 0 0-.453-.054c-.016 0-.028-.004-.04-.004.356-1.395.524-3.801-1.664-5.719zm3.832 8.488c-.058.04-.117.082-.171.13-.067.05-.133.109-.2.163-.054.051-.113.102-.168.153-.093.097-.187.199-.273.304-.05.059-.094.121-.137.184-.05.066-.097.137-.144.207a3.946 3.946 0 0 0-.262.473c-.02.043-.043.085-.062.132-.06.141-.11.286-.153.434-.015.05-.027.102-.039.148a3.731 3.731 0 0 0-.07.352c-.008.05-.02.098-.024.148-.02.164-.035.332-.035.5 0 .13.008.258.02.383.008.086.023.164.035.246l.012.106a.614.614 0 0 1-.09.015c-.07.016-.14.028-.211.04l-.14.011-.177.012c-.054 0-.113 0-.168-.004-.043 0-.085-.004-.128-.008a2.644 2.644 0 0 1-.286-.035 4.036 4.036 0 0 1-.21-.043c-.024-.008-.047-.012-.07-.02-.079-.019-.153-.046-.231-.074a2.567 2.567 0 0 1-.281-.117c-.012-.004-.024-.012-.032-.015a3.117 3.117 0 0 1-1.063-.867l-.16-.227c-.003-.008-.011-.016-.015-.024a3.484 3.484 0 0 1-.2-.37 3.846 3.846 0 0 1-.14-.387l-.012-.04a3.525 3.525 0 0 1-.086-.43 2.716 2.716 0 0 1-.004-.746c.004-.038.012-.074.016-.113.012-.078.027-.156.047-.234.008-.043.02-.086.031-.129.02-.07.047-.144.07-.215.016-.039.028-.078.044-.117.043-.098.09-.2.14-.293.02-.035.04-.062.059-.098.039-.066.082-.132.129-.195a2.594 2.594 0 0 1 .234-.293c.02-.023.04-.047.063-.07.168-.176.359-.332.574-.465a3.014 3.014 0 0 1 2.078-.434c.047.008.098.02.144.032.098.02.2.039.293.07.055.016.11.039.164.059.086.03.168.066.25.105.055.023.11.055.165.086.074.043.148.086.222.133.05.035.102.074.152.113.067.05.133.106.196.164.047.043.094.086.137.133.058.059.117.125.171.191.04.047.079.098.118.149.05.07.097.148.14.222.035.055.067.106.098.165l.023.058c-.02.012-.035.024-.054.035a3.566 3.566 0 0 0-.329.207zm-5.949 2.489c-.379-.07-.8-.075-1.226.05.133-.675.164-1.578-.301-2.336-.39-.625-1.043-1.035-1.95-1.214.5-.665 1.071-1.848.708-3.563.87.453 2.215.82 3.73.04-.203.796-.297 1.835.219 2.616-.004.004-.004.004-.004.008a3.52 3.52 0 0 0-.312.277c-.028.028-.047.055-.07.079-.067.07-.134.14-.192.214-.04.047-.074.098-.11.149-.925-.485-1.097-.617-1.605-1.715a.408.408 0 0 0-.543-.2.402.402 0 0 0-.195.54c.613 1.328.949 1.562 1.93 2.074 0 .004-.005.008-.005.012a7.766 7.766 0 0 0-.144.367c-.02.066-.04.133-.059.203l-.046.184c-.016.082-.028.168-.043.254a3.625 3.625 0 0 0-.047.563c0 .124.007.25.02.374.007.063.019.125.027.188.007.054.015.113.027.168.016.086.039.171.058.254a2.912 2.912 0 0 0 .122.382c.007.012.007.02.011.032zm3.805 6.941a2.85 2.85 0 0 1-2.848-2.848c0-.78.317-1.52.88-2.054a3.777 3.777 0 0 0 1.215.383c.034.007.07.015.108.019.067.008.13.008.196.012.062.004.12.011.18.011.023 0 .042.004.066.004.05 0 .101-.008.148-.008.04-.003.078-.003.117-.003l.211-.024c.043-.008.09-.012.133-.02.067-.007.13-.023.196-.038a1.15 1.15 0 0 0 .101-.02 4.084 4.084 0 0 0 2.106 2.191 2.85 2.85 0 0 1-2.809 2.395zm3.379-3.04a3.275 3.275 0 0 1-2.07-2.358h-.004v-.004a1.91 1.91 0 0 1-.032-.145c-.011-.07-.02-.144-.027-.215a2.564 2.564 0 0 1-.016-.18v-.007c-.003-.051-.011-.102-.011-.153 0-.144.015-.289.031-.43.008-.038.012-.077.02-.113.019-.125.046-.246.082-.363a3.024 3.024 0 0 1 .156-.426l.062-.132c.043-.086.09-.168.14-.247.036-.054.067-.105.102-.156a3.65 3.65 0 0 1 .188-.242c.039-.043.078-.09.121-.133.063-.062.125-.125.191-.183.047-.04.094-.082.141-.121.086-.067.176-.133.27-.192l.12-.074a3.165 3.165 0 0 1 .637-.285l.028-.012c.078-.023.156-.039.234-.059l.078-.02c.032-.007.067-.01.098-.015.176-.031.36-.05.539-.05h.016c.832 0 1.586.312 2.16.828.074.062.144.129.21.199a2.247 2.247 0 0 1 .215.262 2.44 2.44 0 0 1 .196.28l.035.06c.047.078.086.16.125.242.012.02.02.039.027.054.04.086.075.176.106.266.004.016.012.035.015.05a2.245 2.245 0 0 1 .09.329c.024.097.035.191.047.289a2.536 2.536 0 0 1 .027.395c0 .109-.003.218-.015.328 0 .027-.008.05-.012.074-.008.086-.02.168-.035.246-.004.023-.012.043-.016.066-.02.082-.039.164-.066.246-.004.016-.008.032-.016.047a2.814 2.814 0 0 1-.093.254 2.623 2.623 0 0 1-.152.309 1.96 1.96 0 0 1-.15.246c-.003.012-.015.02-.023.031-.05.074-.105.148-.16.219-.015.015-.031.031-.047.05a3.246 3.246 0 0 1-3.562.946zm10.535-3.554c-1.64-.086-3.95.418-4.457 2.836a.622.622 0 0 1-.61.504h-.8a.627.627 0 0 1-.473-.215.215.215 0 0 0 .028-.035c.015-.016.027-.035.039-.05.066-.083.132-.169.191-.259.016-.02.027-.039.043-.062.055-.086.11-.172.16-.262.012-.023.024-.05.04-.074a4.136 4.136 0 0 0 .167-.36c.031-.085.067-.171.094-.261l.035-.11c.027-.085.047-.171.066-.257.008-.043.02-.082.028-.121.015-.09.031-.18.043-.274.004-.039.012-.074.015-.113.012-.133.02-.262.02-.395 0-.128-.008-.257-.02-.386-.003-.04-.011-.075-.015-.11l3.453-1.535a.408.408 0 0 0-.328-.746l-3.309 1.473c-.004-.012-.012-.024-.012-.032-.02-.046-.035-.093-.054-.14a1.711 1.711 0 0 0-.09-.211l-.059-.129c-.035-.07-.074-.137-.113-.207-.02-.04-.047-.078-.07-.117-.043-.067-.082-.133-.13-.196-.026-.039-.054-.074-.081-.109a3.475 3.475 0 0 0-.149-.187l-.015-.024c.746-.473 1.543-1.324 1.992-2.848.715.852 2.16 1.97 4.562 1.372-.425.87-.8 2.207-.191 3.64zm0 0"/>
    <path d="M14.129 16.305c-.309.082-.64.03-.938-.145a1.319 1.319 0 0 1-.593-.77.405.405 0 0 0-.5-.285.4.4 0 0 0-.286.497c.141.52.493.976.961 1.257.332.196.696.297 1.059.297.172 0 .344-.023.512-.066a.408.408 0 0 0 .285-.5.402.402 0 0 0-.5-.285zm0 0M8.66 13.156c-.316.324-.719.32-1.055-.004a.403.403 0 0 0-.574.004.403.403 0 0 0 .008.574c.32.32.715.477 1.106.477.39 0 .78-.16 1.093-.48a.403.403 0 0 0-.004-.575.403.403 0 0 0-.574.004zm0 0M9.246 20.465a.919.919 0 0 1-.695-.078.912.912 0 0 1-.43-.547.407.407 0 0 0-.504-.281.412.412 0 0 0-.281.503 1.723 1.723 0 0 0 2.133 1.188.413.413 0 0 0 .281-.504.413.413 0 0 0-.504-.281zm0 0"/>
</svg>
