<svg xmlns="http://www.w3.org/2000/svg" width="32" height="32" viewBox="0 0 24 24">
    <path d="M 23.921875 11.945312 C 23.8125 11.792969 23.609375 11.738281 23.433594 11.8125 C 19.695312 13.390625 18.324219 10.511719 18.269531 10.390625 C 18.195312 10.226562 18.023438 10.132812 17.847656 10.15625 C 17.667969 10.179688 17.527344 10.3125 17.496094 10.492188 C 17.21875 12.113281 16.515625 13.257812 15.464844 13.824219 C 15.003906 13.476562 14.464844 13.21875 13.878906 13.09375 C 14.882812 12.324219 16.28125 12.222656 16.296875 12.21875 C 16.476562 12.207031 16.628906 12.078125 16.667969 11.902344 C 16.707031 11.726562 16.628906 11.546875 16.46875 11.460938 C 15.679688 11.015625 15.21875 10.429688 15.066406 9.667969 C 14.660156 7.660156 16.574219 5.175781 16.59375 5.148438 C 16.6875 5.027344 16.703125 4.859375 16.636719 4.71875 C 16.570312 4.582031 16.425781 4.492188 16.273438 4.492188 C 12.050781 4.492188 11.410156 0.535156 11.386719 0.367188 C 11.355469 0.164062 11.183594 0.015625 10.984375 0.015625 C 10.980469 0.015625 10.980469 0.015625 10.980469 0.015625 C 10.777344 0.0195312 10.605469 0.171875 10.578125 0.371094 C 9.988281 4.855469 5.910156 4.511719 5.734375 4.492188 C 5.546875 4.476562 5.371094 4.589844 5.308594 4.765625 C 5.25 4.945312 5.320312 5.144531 5.480469 5.242188 C 8.394531 7.070312 8.042969 9.75 7.660156 11.027344 C 7.289062 11.09375 6.9375 11.214844 6.609375 11.378906 C 6.03125 10.503906 6.582031 8.917969 6.875 8.335938 C 6.960938 8.160156 6.910156 7.949219 6.757812 7.832031 C 6.605469 7.714844 6.386719 7.71875 6.242188 7.847656 C 3.726562 10.035156 1.597656 7.957031 1.511719 7.867188 C 1.375 7.730469 1.15625 7.707031 0.996094 7.816406 C 0.832031 7.921875 0.769531 8.128906 0.847656 8.308594 C 2.085938 11.273438 0.25 12.648438 0.171875 12.703125 C 0.03125 12.804688 -0.03125 12.980469 0.015625 13.148438 C 0.0664062 13.316406 0.214844 13.433594 0.386719 13.441406 C 1.449219 13.492188 2.167969 13.804688 2.515625 14.367188 C 3.140625 15.375 2.480469 16.925781 2.472656 16.941406 C 2.398438 17.113281 2.453125 17.316406 2.605469 17.429688 C 2.675781 17.480469 2.761719 17.507812 2.847656 17.507812 C 2.941406 17.507812 3.035156 17.476562 3.109375 17.410156 C 4.195312 16.488281 5.402344 17.355469 5.449219 17.390625 C 5.453125 17.394531 5.453125 17.394531 5.457031 17.394531 C 5.589844 17.542969 5.730469 17.6875 5.882812 17.8125 C 5.246094 18.488281 4.882812 19.375 4.882812 20.320312 C 4.882812 22.339844 6.523438 23.980469 8.542969 23.980469 C 10.308594 23.980469 11.792969 22.722656 12.125 21.035156 C 12.414062 21.097656 12.710938 21.132812 13.015625 21.132812 C 13.964844 21.132812 14.839844 20.804688 15.53125 20.257812 C 15.800781 20.546875 16.179688 20.726562 16.589844 20.726562 L 17.390625 20.726562 C 18.066406 20.726562 18.65625 20.246094 18.796875 19.578125 C 19.378906 16.792969 22.957031 17.4375 23.109375 17.464844 C 23.269531 17.496094 23.433594 17.425781 23.523438 17.292969 C 23.617188 17.15625 23.617188 16.980469 23.527344 16.84375 C 22.058594 14.628906 23.824219 12.539062 23.902344 12.453125 C 24.023438 12.308594 24.035156 12.101562 23.921875 11.945312 Z M 6.855469 5.25 C 8.160156 5.066406 10.171875 4.375 11.042969 1.941406 C 11.625 3.242188 12.886719 4.984375 15.519531 5.265625 C 14.914062 6.21875 13.921875 8.105469 14.265625 9.828125 C 14.402344 10.511719 14.734375 11.097656 15.25 11.578125 C 14.5 11.769531 13.484375 12.171875 12.796875 13.007812 C 12.769531 13.007812 12.746094 13.011719 12.722656 13.015625 C 12.636719 13.019531 12.550781 13.03125 12.46875 13.039062 C 11.101562 10.074219 11.230469 6.785156 11.765625 5.457031 C 11.851562 5.25 11.75 5.011719 11.542969 4.929688 C 11.332031 4.84375 11.097656 4.945312 11.011719 5.152344 C 10.375 6.730469 10.371094 9.6875 11.324219 12.382812 C 11.308594 12.367188 11.292969 12.347656 11.277344 12.328125 C 11.265625 12.3125 11.257812 12.300781 11.246094 12.289062 C 11.144531 12.175781 11.035156 12.066406 10.921875 11.964844 C 10.902344 11.945312 10.882812 11.929688 10.863281 11.910156 C 10.75 11.8125 10.632812 11.722656 10.507812 11.636719 C 10.488281 11.625 10.464844 11.609375 10.441406 11.59375 C 10.3125 11.511719 10.183594 11.433594 10.046875 11.367188 C 10.03125 11.359375 10.015625 11.351562 10.003906 11.347656 C 9.867188 11.28125 9.726562 11.222656 9.582031 11.175781 C 9.566406 11.167969 9.554688 11.164062 9.542969 11.160156 C 9.394531 11.109375 9.246094 11.074219 9.09375 11.042969 C 9.066406 11.039062 9.039062 11.03125 9.011719 11.027344 C 8.863281 11 8.710938 10.984375 8.558594 10.972656 C 8.542969 10.972656 8.53125 10.96875 8.519531 10.96875 C 8.875 9.574219 9.042969 7.167969 6.855469 5.25 Z M 10.6875 13.738281 C 10.628906 13.777344 10.570312 13.820312 10.515625 13.867188 C 10.449219 13.917969 10.382812 13.976562 10.316406 14.03125 C 10.261719 14.082031 10.203125 14.132812 10.148438 14.183594 C 10.054688 14.28125 9.960938 14.382812 9.875 14.488281 C 9.824219 14.546875 9.78125 14.609375 9.738281 14.671875 C 9.6875 14.738281 9.640625 14.808594 9.59375 14.878906 C 9.554688 14.9375 9.515625 15 9.480469 15.066406 C 9.425781 15.160156 9.378906 15.253906 9.332031 15.351562 C 9.3125 15.394531 9.289062 15.4375 9.269531 15.484375 C 9.210938 15.625 9.160156 15.769531 9.117188 15.917969 C 9.101562 15.96875 9.089844 16.019531 9.078125 16.066406 C 9.050781 16.183594 9.023438 16.300781 9.007812 16.417969 C 9 16.46875 8.988281 16.515625 8.984375 16.566406 C 8.964844 16.730469 8.949219 16.898438 8.949219 17.066406 C 8.949219 17.195312 8.957031 17.324219 8.96875 17.449219 C 8.976562 17.535156 8.992188 17.613281 9.003906 17.695312 C 9.007812 17.730469 9.011719 17.765625 9.015625 17.800781 C 8.988281 17.808594 8.957031 17.8125 8.925781 17.816406 C 8.855469 17.832031 8.785156 17.84375 8.714844 17.855469 C 8.667969 17.859375 8.621094 17.863281 8.574219 17.867188 C 8.515625 17.871094 8.457031 17.875 8.398438 17.878906 C 8.34375 17.878906 8.285156 17.878906 8.230469 17.875 C 8.1875 17.875 8.144531 17.871094 8.101562 17.867188 C 8.039062 17.863281 7.976562 17.855469 7.917969 17.847656 C 7.882812 17.84375 7.847656 17.839844 7.816406 17.832031 C 7.746094 17.820312 7.675781 17.804688 7.605469 17.789062 C 7.582031 17.78125 7.558594 17.777344 7.535156 17.769531 C 7.457031 17.75 7.382812 17.722656 7.304688 17.695312 C 7.289062 17.691406 7.273438 17.6875 7.261719 17.679688 C 7.179688 17.648438 7.101562 17.617188 7.023438 17.578125 C 7.011719 17.574219 7 17.566406 6.992188 17.5625 C 6.910156 17.523438 6.832031 17.480469 6.757812 17.433594 C 6.4375 17.238281 6.160156 16.988281 5.929688 16.695312 L 5.769531 16.46875 C 5.765625 16.460938 5.757812 16.453125 5.753906 16.445312 C 5.683594 16.328125 5.617188 16.210938 5.5625 16.089844 C 5.5625 16.082031 5.558594 16.078125 5.554688 16.074219 C 5.5 15.945312 5.453125 15.816406 5.414062 15.6875 C 5.410156 15.675781 5.40625 15.660156 5.402344 15.648438 C 5.371094 15.535156 5.347656 15.421875 5.328125 15.308594 C 5.324219 15.28125 5.320312 15.25 5.316406 15.21875 C 5.300781 15.089844 5.289062 14.960938 5.289062 14.828125 C 5.289062 14.710938 5.296875 14.589844 5.3125 14.472656 C 5.316406 14.433594 5.324219 14.398438 5.328125 14.359375 C 5.339844 14.28125 5.355469 14.203125 5.375 14.125 C 5.382812 14.082031 5.394531 14.039062 5.40625 13.996094 C 5.425781 13.925781 5.453125 13.851562 5.476562 13.78125 C 5.492188 13.742188 5.503906 13.703125 5.519531 13.664062 C 5.5625 13.566406 5.609375 13.464844 5.660156 13.371094 C 5.679688 13.335938 5.699219 13.308594 5.71875 13.273438 C 5.757812 13.207031 5.800781 13.140625 5.847656 13.078125 C 5.871094 13.042969 5.898438 13.007812 5.921875 12.976562 C 5.972656 12.910156 6.027344 12.84375 6.082031 12.785156 C 6.101562 12.761719 6.121094 12.738281 6.144531 12.714844 C 6.3125 12.539062 6.503906 12.382812 6.71875 12.25 C 7.101562 12.007812 7.539062 11.847656 8.011719 11.796875 C 8.121094 11.785156 8.230469 11.777344 8.339844 11.777344 C 8.492188 11.777344 8.644531 11.792969 8.796875 11.816406 C 8.84375 11.824219 8.894531 11.835938 8.941406 11.847656 C 9.039062 11.867188 9.140625 11.886719 9.234375 11.917969 C 9.289062 11.933594 9.34375 11.957031 9.398438 11.976562 C 9.484375 12.007812 9.566406 12.042969 9.648438 12.082031 C 9.703125 12.105469 9.757812 12.136719 9.8125 12.167969 C 9.886719 12.210938 9.960938 12.253906 10.035156 12.300781 C 10.085938 12.335938 10.136719 12.375 10.1875 12.414062 C 10.253906 12.464844 10.320312 12.519531 10.382812 12.578125 C 10.429688 12.621094 10.476562 12.664062 10.519531 12.710938 C 10.578125 12.769531 10.636719 12.835938 10.691406 12.902344 C 10.730469 12.949219 10.769531 13 10.808594 13.050781 C 10.859375 13.121094 10.90625 13.199219 10.949219 13.273438 C 10.984375 13.328125 11.015625 13.378906 11.046875 13.4375 C 11.054688 13.457031 11.0625 13.476562 11.070312 13.496094 C 11.050781 13.507812 11.035156 13.519531 11.015625 13.53125 C 10.902344 13.59375 10.792969 13.664062 10.6875 13.738281 Z M 4.738281 16.226562 C 4.359375 16.15625 3.9375 16.152344 3.511719 16.277344 C 3.644531 15.601562 3.675781 14.699219 3.210938 13.941406 C 2.820312 13.316406 2.167969 12.90625 1.261719 12.726562 C 1.761719 12.0625 2.332031 10.878906 1.96875 9.164062 C 2.839844 9.617188 4.183594 9.984375 5.699219 9.203125 C 5.496094 10 5.402344 11.039062 5.917969 11.820312 C 5.914062 11.824219 5.914062 11.824219 5.914062 11.828125 C 5.804688 11.914062 5.699219 12.007812 5.601562 12.105469 C 5.574219 12.132812 5.554688 12.160156 5.53125 12.183594 C 5.464844 12.253906 5.398438 12.324219 5.339844 12.398438 C 5.300781 12.445312 5.265625 12.496094 5.230469 12.546875 C 4.304688 12.0625 4.132812 11.929688 3.625 10.832031 C 3.527344 10.625 3.289062 10.539062 3.082031 10.632812 C 2.878906 10.726562 2.789062 10.96875 2.886719 11.171875 C 3.5 12.5 3.835938 12.734375 4.816406 13.246094 C 4.816406 13.25 4.8125 13.253906 4.8125 13.257812 C 4.789062 13.3125 4.765625 13.371094 4.742188 13.429688 C 4.714844 13.492188 4.691406 13.558594 4.667969 13.625 C 4.648438 13.691406 4.628906 13.757812 4.609375 13.828125 C 4.59375 13.890625 4.578125 13.949219 4.5625 14.011719 C 4.546875 14.09375 4.535156 14.179688 4.519531 14.265625 C 4.511719 14.3125 4.503906 14.363281 4.5 14.414062 C 4.484375 14.550781 4.472656 14.6875 4.472656 14.828125 C 4.472656 14.953125 4.480469 15.078125 4.492188 15.203125 C 4.5 15.265625 4.511719 15.328125 4.519531 15.390625 C 4.527344 15.445312 4.535156 15.503906 4.546875 15.558594 C 4.5625 15.644531 4.585938 15.730469 4.605469 15.8125 C 4.613281 15.84375 4.621094 15.875 4.628906 15.902344 C 4.660156 16.003906 4.691406 16.101562 4.726562 16.195312 C 4.734375 16.207031 4.734375 16.214844 4.738281 16.226562 Z M 8.542969 23.167969 C 6.972656 23.167969 5.695312 21.890625 5.695312 20.320312 C 5.695312 19.539062 6.011719 18.800781 6.574219 18.265625 C 6.585938 18.269531 6.597656 18.273438 6.609375 18.28125 C 6.972656 18.464844 7.371094 18.589844 7.789062 18.648438 C 7.824219 18.65625 7.859375 18.664062 7.898438 18.667969 C 7.964844 18.675781 8.027344 18.675781 8.09375 18.679688 C 8.15625 18.683594 8.214844 18.691406 8.273438 18.691406 C 8.296875 18.691406 8.316406 18.695312 8.339844 18.695312 C 8.390625 18.695312 8.441406 18.6875 8.488281 18.6875 C 8.527344 18.683594 8.566406 18.683594 8.605469 18.683594 C 8.675781 18.675781 8.746094 18.667969 8.816406 18.660156 C 8.859375 18.652344 8.90625 18.648438 8.949219 18.640625 C 9.015625 18.632812 9.078125 18.617188 9.144531 18.601562 C 9.175781 18.597656 9.210938 18.589844 9.246094 18.582031 C 9.636719 19.554688 10.398438 20.34375 11.351562 20.773438 C 11.132812 22.136719 9.949219 23.167969 8.542969 23.167969 Z M 11.921875 20.128906 C 10.882812 19.753906 10.089844 18.851562 9.851562 17.769531 L 9.847656 17.769531 C 9.847656 17.765625 9.847656 17.765625 9.847656 17.765625 C 9.835938 17.71875 9.824219 17.667969 9.816406 17.621094 C 9.804688 17.550781 9.796875 17.476562 9.789062 17.40625 C 9.78125 17.347656 9.777344 17.289062 9.773438 17.226562 C 9.773438 17.226562 9.773438 17.222656 9.773438 17.21875 C 9.769531 17.167969 9.761719 17.117188 9.761719 17.066406 C 9.761719 16.921875 9.777344 16.777344 9.792969 16.636719 C 9.800781 16.597656 9.804688 16.558594 9.8125 16.523438 C 9.832031 16.398438 9.859375 16.277344 9.894531 16.160156 C 9.898438 16.140625 9.902344 16.121094 9.910156 16.105469 C 9.949219 15.976562 9.996094 15.855469 10.050781 15.734375 C 10.070312 15.691406 10.09375 15.644531 10.113281 15.601562 C 10.15625 15.515625 10.203125 15.433594 10.253906 15.355469 C 10.289062 15.300781 10.320312 15.25 10.355469 15.199219 C 10.414062 15.117188 10.476562 15.035156 10.542969 14.957031 C 10.582031 14.914062 10.621094 14.867188 10.664062 14.824219 C 10.726562 14.761719 10.789062 14.699219 10.855469 14.640625 C 10.902344 14.601562 10.949219 14.558594 10.996094 14.519531 C 11.082031 14.453125 11.171875 14.386719 11.265625 14.328125 C 11.304688 14.304688 11.347656 14.277344 11.386719 14.253906 C 11.503906 14.1875 11.625 14.121094 11.75 14.070312 C 11.839844 14.03125 11.929688 14 12.023438 13.96875 C 12.03125 13.964844 12.042969 13.960938 12.050781 13.957031 C 12.128906 13.933594 12.207031 13.917969 12.285156 13.898438 C 12.3125 13.890625 12.339844 13.882812 12.363281 13.878906 C 12.394531 13.871094 12.429688 13.867188 12.460938 13.863281 C 12.636719 13.832031 12.820312 13.8125 13 13.8125 C 13.007812 13.8125 13.011719 13.8125 13.015625 13.8125 C 13.847656 13.8125 14.601562 14.125 15.175781 14.640625 C 15.25 14.703125 15.320312 14.769531 15.386719 14.839844 C 15.398438 14.859375 15.414062 14.875 15.429688 14.890625 C 15.492188 14.957031 15.546875 15.027344 15.601562 15.101562 C 15.617188 15.121094 15.632812 15.140625 15.644531 15.15625 C 15.699219 15.230469 15.75 15.304688 15.796875 15.382812 C 15.808594 15.402344 15.820312 15.421875 15.832031 15.441406 C 15.878906 15.519531 15.917969 15.601562 15.957031 15.683594 C 15.96875 15.703125 15.976562 15.722656 15.984375 15.738281 C 16.023438 15.824219 16.058594 15.914062 16.089844 16.003906 C 16.09375 16.019531 16.101562 16.039062 16.105469 16.054688 C 16.136719 16.144531 16.164062 16.238281 16.183594 16.332031 C 16.1875 16.351562 16.191406 16.367188 16.195312 16.382812 C 16.21875 16.480469 16.230469 16.574219 16.242188 16.671875 C 16.246094 16.6875 16.25 16.707031 16.25 16.722656 C 16.265625 16.835938 16.269531 16.953125 16.269531 17.066406 C 16.269531 17.175781 16.265625 17.285156 16.253906 17.394531 C 16.253906 17.421875 16.246094 17.445312 16.242188 17.46875 C 16.234375 17.554688 16.222656 17.636719 16.207031 17.714844 C 16.203125 17.738281 16.195312 17.757812 16.191406 17.78125 C 16.171875 17.863281 16.152344 17.945312 16.125 18.027344 C 16.121094 18.042969 16.117188 18.058594 16.109375 18.074219 C 16.082031 18.160156 16.050781 18.246094 16.015625 18.328125 C 16.011719 18.339844 16.007812 18.347656 16.003906 18.355469 C 15.964844 18.445312 15.925781 18.53125 15.878906 18.613281 C 15.875 18.621094 15.871094 18.628906 15.863281 18.636719 C 15.820312 18.722656 15.769531 18.804688 15.714844 18.882812 C 15.710938 18.894531 15.699219 18.902344 15.691406 18.914062 C 15.640625 18.988281 15.585938 19.0625 15.53125 19.132812 C 15.515625 19.148438 15.5 19.164062 15.484375 19.183594 C 14.886719 19.878906 14.003906 20.320312 13.015625 20.320312 C 12.632812 20.320312 12.261719 20.25 11.921875 20.128906 Z M 22.457031 16.574219 C 20.816406 16.488281 18.507812 16.992188 18 19.410156 C 17.9375 19.707031 17.6875 19.914062 17.390625 19.914062 L 16.589844 19.914062 C 16.402344 19.914062 16.234375 19.832031 16.117188 19.699219 C 16.128906 19.6875 16.136719 19.675781 16.144531 19.664062 C 16.160156 19.648438 16.171875 19.628906 16.183594 19.613281 C 16.25 19.53125 16.316406 19.445312 16.375 19.355469 C 16.390625 19.335938 16.402344 19.316406 16.417969 19.292969 C 16.472656 19.207031 16.527344 19.121094 16.578125 19.03125 C 16.589844 19.007812 16.601562 18.980469 16.617188 18.957031 C 16.664062 18.867188 16.707031 18.78125 16.746094 18.691406 C 16.757812 18.660156 16.769531 18.628906 16.785156 18.597656 C 16.816406 18.511719 16.851562 18.425781 16.878906 18.335938 C 16.890625 18.300781 16.902344 18.265625 16.914062 18.226562 C 16.941406 18.140625 16.960938 18.054688 16.980469 17.96875 C 16.988281 17.925781 17 17.886719 17.007812 17.847656 C 17.023438 17.757812 17.039062 17.667969 17.050781 17.574219 C 17.054688 17.535156 17.0625 17.5 17.066406 17.460938 C 17.078125 17.328125 17.085938 17.199219 17.085938 17.066406 C 17.085938 16.9375 17.078125 16.808594 17.066406 16.679688 C 17.0625 16.640625 17.054688 16.605469 17.050781 16.570312 L 20.503906 15.035156 C 20.710938 14.941406 20.800781 14.703125 20.710938 14.496094 C 20.621094 14.292969 20.378906 14.199219 20.175781 14.289062 L 16.867188 15.761719 C 16.863281 15.75 16.855469 15.738281 16.855469 15.730469 C 16.835938 15.683594 16.820312 15.636719 16.800781 15.589844 C 16.773438 15.515625 16.746094 15.445312 16.710938 15.378906 C 16.691406 15.335938 16.671875 15.292969 16.652344 15.25 C 16.617188 15.179688 16.578125 15.113281 16.539062 15.042969 C 16.519531 15.003906 16.492188 14.964844 16.46875 14.925781 C 16.425781 14.859375 16.386719 14.792969 16.339844 14.730469 C 16.3125 14.691406 16.285156 14.65625 16.257812 14.621094 C 16.210938 14.558594 16.160156 14.492188 16.109375 14.433594 C 16.105469 14.425781 16.097656 14.417969 16.09375 14.410156 C 16.839844 13.9375 17.636719 13.085938 18.085938 11.5625 C 18.800781 12.414062 20.246094 13.53125 22.648438 12.933594 C 22.222656 13.804688 21.847656 15.140625 22.457031 16.574219 Z M 22.457031 16.574219"/>
    <path d="M14.128906 16.304688C13.820312 16.386719 13.488281 16.335938 13.191406 16.160156 12.898438 15.984375 12.683594 15.703125 12.597656 15.390625 12.535156 15.171875 12.3125 15.042969 12.097656 15.105469 11.878906 15.164062 11.75 15.386719 11.8125 15.601562 11.953125 16.121094 12.304688 16.578125 12.773438 16.859375 13.105469 17.054688 13.46875 17.15625 13.832031 17.15625 14.003906 17.15625 14.175781 17.132812 14.34375 17.089844 14.5625 17.027344 14.6875 16.804688 14.628906 16.589844 14.570312 16.371094 14.347656 16.242188 14.128906 16.304688zM8.660156 13.15625C8.34375 13.480469 7.941406 13.476562 7.605469 13.152344 7.445312 12.992188 7.1875 12.996094 7.03125 13.15625 6.875 13.316406 6.875 13.574219 7.039062 13.730469 7.359375 14.050781 7.753906 14.207031 8.144531 14.207031 8.535156 14.207031 8.925781 14.046875 9.238281 13.726562 9.398438 13.566406 9.394531 13.308594 9.234375 13.152344 9.074219 12.992188 8.816406 12.996094 8.660156 13.15625zM9.246094 20.464844C9.011719 20.53125 8.765625 20.503906 8.550781 20.386719 8.339844 20.265625 8.1875 20.074219 8.121094 19.839844 8.058594 19.621094 7.832031 19.496094 7.617188 19.558594 7.402344 19.621094 7.277344 19.84375 7.335938 20.0625 7.464844 20.503906 7.753906 20.871094 8.15625 21.097656 8.417969 21.242188 8.703125 21.316406 8.992188 21.316406 9.152344 21.316406 9.3125 21.292969 9.46875 21.25 9.683594 21.1875 9.808594 20.960938 9.75 20.746094 9.6875 20.53125 9.460938 20.40625 9.246094 20.464844zM9.246094 20.464844"/>
</svg>
