<svg xmlns="http://www.w3.org/2000/svg" width="32" height="32" viewBox="0 0 24 24">
    <path d="M10.8 15.898c.321-.437.45-.968.368-1.5L11.102 14a2.006 2.006 0 0 0-2.247-1.688c.184-1.039 1.602-2.957 2.7-4.144.597-.633.898-1.445.867-2.352a1.677 1.677 0 0 0-1.008-1.503 1.717 1.717 0 0 0-1.828.289c-.2.175-.399.382-.649.671-.175.2-.234.305-.308.43a4.22 4.22 0 0 1-.379.563l-.293-1.88c-.21-1.34-.871-2.503-1.863-3.277-.055-.043-.11-.082-.16-.12a3.714 3.714 0 0 0-3.04-.602c-1 .242-1.8.867-2.261 1.765C-.301 3.97.07 6.246.082 6.305c.133 1.867 1.164 5.914 1.5 7.199-.352.14-.66.371-.887.687-.32.438-.449.97-.367 1.5l.063.399a2.027 2.027 0 0 0 2.312 1.683l6.781-1.066c.532-.086 1-.371 1.317-.809zM1.353 2.52a2.604 2.604 0 0 1 1.73-1.348 2.904 2.904 0 0 1 2.379.473c.043.03.09.066.137.101.828.649 1.382 1.633 1.558 2.766l.324 2.05c.047.29.258.524.543.598a.738.738 0 0 0 .762-.262c.352-.453.465-.652.547-.793.059-.105.094-.164.215-.304.226-.258.402-.442.57-.59a.905.905 0 0 1 .973-.16.87.87 0 0 1 .527.789c.02.7-.199 1.297-.652 1.777-.508.547-2.832 3.149-2.93 4.82l-5.664.891c-.324-1.234-1.355-5.3-1.488-7.117-.004-.02-.34-2.117.469-3.691zm8.796 12.902a1.182 1.182 0 0 1-.789.484l-6.785 1.07a1.213 1.213 0 0 1-1.383-1.011l-.062-.399c-.05-.316.027-.636.219-.898.164-.227.394-.379.656-.453L8.96 13.12l-.004-.008a1.207 1.207 0 0 1 1.348 1.012l.062.398c.051.317-.027.637-.219.899zm0 0"/>
    <path d="M23.883 8.965a3.382 3.382 0 0 0-1.735-2.277 3.704 3.704 0 0 0-3.09-.2c-.062.028-.128.051-.19.078-1.153.497-2.09 1.454-2.638 2.696L15.47 11a4.033 4.033 0 0 1-.223-.64c-.039-.137-.07-.255-.187-.493a6.494 6.494 0 0 0-.457-.812 1.714 1.714 0 0 0-1.692-.75 1.682 1.682 0 0 0-1.363 1.199c-.258.867-.172 1.73.238 2.492.762 1.43 1.645 3.645 1.559 4.7a2 2 0 0 0-1.489-.012 1.997 1.997 0 0 0-1.117 1.066l-.164.371a2.012 2.012 0 0 0-.031 1.543c.195.504.578.902 1.07 1.117l6.285 2.762a2.005 2.005 0 0 0 1.543.031 1.997 1.997 0 0 0 1.118-1.066l.164-.371a2.012 2.012 0 0 0-.653-2.434c.653-1.156 2.68-4.805 3.274-6.543.039-.09.976-2.2.539-4.195zm-3.899 12.848l-.164.37c-.129.294-.367.52-.672.637a1.19 1.19 0 0 1-.925-.015l-6.285-2.762a1.19 1.19 0 0 1-.641-.672 1.19 1.19 0 0 1 .02-.926l.16-.37c.128-.294.367-.52.671-.637a1.168 1.168 0 0 1 .891.003l-.004.008 6.442 2.832a1.207 1.207 0 0 1 .508 1.531zm2.61-8.95c-.582 1.696-2.614 5.356-3.242 6.465l-5.247-2.305c.329-1.64-1.257-4.75-1.605-5.41-.316-.578-.375-1.21-.176-1.883a.868.868 0 0 1 .707-.628.904.904 0 0 1 .899.402c.129.191.254.41.406.719.082.168.098.23.129.347.043.16.101.38.324.907.117.27.379.445.672.445h.004a.732.732 0 0 0 .672-.438l.836-1.898c.46-1.055 1.25-1.86 2.215-2.277.054-.024.105-.043.156-.063a2.902 2.902 0 0 1 2.422.152 2.586 2.586 0 0 1 1.328 1.743c.379 1.726-.48 3.668-.5 3.722zm0 0"/>
</svg>
