<svg xmlns="http://www.w3.org/2000/svg" width="32" height="32" viewBox="0 0 24 24">
    <path d="M23.91 12.234a2.983 2.983 0 0 0-.367-.863A11.788 11.788 0 0 0 11.813.95C5.3.95 0 6.25 0 12.766c0 2.617.887 5.171 2.488 7.238a1.96 1.96 0 0 0 .48 1.96c.66.661 1.684.75 2.442.266l.09.094c.469.469 1.09.727 1.75.727a2.459 2.459 0 0 0 2.465-2.399c.273-.12.52-.285.73-.496a2.478 2.478 0 0 0 0-3.5 2.454 2.454 0 0 0-1.816-.715 4.526 4.526 0 0 1-1.324-3.175 4.513 4.513 0 0 1 4.508-4.512 4.524 4.524 0 0 1 4.289 3.137 1.966 1.966 0 0 0 .406 2.285 2.456 2.456 0 0 0-.352 1.98 2.46 2.46 0 0 0 2.922 1.813c.184.238.406.437.66.59a2.474 2.474 0 0 0 3.395-.848 2.448 2.448 0 0 0 .125-2.293 2.56 2.56 0 0 0 .316-.426 2.97 2.97 0 0 0 .336-2.258zm-20.957 6.97A10.974 10.974 0 0 1 .86 12.765c0-6.043 4.914-10.957 10.954-10.957 5.195 0 9.593 3.605 10.69 8.562a2.547 2.547 0 0 0-.358-.176c-.06-.023-.118-.039-.176-.062-.07-.02-.137-.043-.203-.063a3.435 3.435 0 0 0-.29-.054 2.23 2.23 0 0 1-.066-.012 3.55 3.55 0 0 0-.351-.027 9.672 9.672 0 0 0-9.247-6.88c-5.328 0-9.664 4.337-9.664 9.669a9.56 9.56 0 0 0 .844 3.921c-.031.086-.05.172-.074.258-.008.028-.012.051-.02.078a2.985 2.985 0 0 0-.066.832c0 .02.004.04.004.06.012.151.039.3.074.448.008.043.02.086.031.13a3.03 3.03 0 0 0 .18.477c.008.018.016.042.027.061a1.394 1.394 0 0 0-.18.157l-.015.015zm16.11-8.5c-.012-.009-.028-.017-.043-.028a7.519 7.519 0 0 0-7.207-5.43c-4.145 0-7.516 3.375-7.516 7.52 0 .73.117 1.46.336 2.171a3.005 3.005 0 0 0-.942.633c-.054.059-.101.121-.152.18a8.661 8.661 0 0 1-.531-2.984c0-4.856 3.949-8.809 8.805-8.809 3.84 0 7.214 2.504 8.374 6.137-.406.12-.792.32-1.125.61zm-9.227 8.843c-.184.183-.414.32-.684.398a.436.436 0 0 0-.308.457c.054.493-.114.973-.453 1.317-.61.61-1.672.61-2.286-.004a1.592 1.592 0 0 1-.246-.332.44.44 0 0 0-.328-.211h-.043a.424.424 0 0 0-.351.183c-.43.43-1.13.43-1.563 0a1.105 1.105 0 0 1-.222-1.23c.003-.004.007-.008.007-.012.028-.062.063-.117.094-.172.04-.05.078-.101.121-.148a1.12 1.12 0 0 1 .336-.223.43.43 0 0 0 .176-.645 2.446 2.446 0 0 1-.172-.288c-.02-.04-.039-.078-.055-.117a3.038 3.038 0 0 1-.062-.172c-.02-.055-.04-.11-.05-.164-.005-.008-.005-.02-.009-.032a2.136 2.136 0 0 1-.05-.472c0-.016-.004-.035-.004-.051.003-.078.011-.16.02-.238a2.24 2.24 0 0 1 .148-.547c.003 0 .003-.004.003-.008.102-.238.25-.461.442-.656.281-.278.621-.453.976-.547h.004c.086-.024.176-.04.262-.051.02 0 .035 0 .055-.004.12-.012.238-.012.355-.004.063.004.13.008.196.016.046.008.093.02.136.027.094.024.184.047.274.082.02.008.039.012.058.02.114.047.219.105.324.172.024.011.047.03.07.046.106.07.208.149.302.243.14.14.261.308.363.496a.484.484 0 0 0 .086.11c.012.007.02.015.031.023a.468.468 0 0 0 .121.066c.035.016.07.02.106.023.007 0 .015.004.027.004h.008c.043 0 .09-.007.136-.02.051-.019.106-.03.165-.042.05-.012.105-.02.164-.027h.007c.48-.055.965.101 1.313.453a1.615 1.615 0 0 1 0 2.28zm1.976-12.152a5.375 5.375 0 0 0-5.367 5.37c0 .739.157 1.47.45 2.137l-.11-.035c-.05-.015-.098-.035-.148-.05h-.004a2.995 2.995 0 0 0-1.176-.094c-.2-.645-.3-1.301-.3-1.957 0-3.672 2.984-6.66 6.655-6.66a6.672 6.672 0 0 1 6.176 4.183 1.9 1.9 0 0 0-.21.004h-.032c-.36.023-.707.137-1.008.348a5.39 5.39 0 0 0-4.925-3.246zm11.024 6.656a2.153 2.153 0 0 1-.395.476.43.43 0 0 0-.074.547 1.6 1.6 0 0 1 .028 1.696 1.614 1.614 0 0 1-2.215.55 1.547 1.547 0 0 1-.551-.57.437.437 0 0 0-.371-.21.399.399 0 0 0-.149.026 1.606 1.606 0 0 1-2.12-1.117 1.617 1.617 0 0 1 .183-1.222c.062-.106.148-.207.262-.32a.44.44 0 0 0 .128-.368.434.434 0 0 0-.273-.34 1.106 1.106 0 0 1-.367-1.531s.004-.004.008-.004c.078-.125.175-.23.289-.312a.788.788 0 0 1 .125-.07c.015-.012.031-.02.047-.032.257-.117.554-.137.832-.04l.03.013c.06.023.118.05.173.082.113.066.21.16.3.273.079.102.2.164.329.164a.498.498 0 0 0 .34-.152c.359-.426.851-.676 1.367-.738.008 0 .015.003.023 0 .235-.024.465-.012.688.035.007 0 .015.004.027.004.098.023.195.05.29.09.1.039.198.085.292.14l.027.012c.13.078.246.172.356.273.02.016.035.04.05.059.087.086.169.18.243.281.46.668.523 1.566.078 2.305zm0 0"/>
</svg>
