<svg xmlns="http://www.w3.org/2000/svg" width="32" height="32" viewBox="0 0 24 24">
    <path d="M 23.910156 12.234375 C 23.832031 11.921875 23.707031 11.632812 23.542969 11.371094 C 22.84375 5.421875 17.820312 0.949219 11.8125 0.949219 C 5.300781 0.949219 0 6.25 0 12.765625 C 0 15.382812 0.886719 17.9375 2.488281 20.003906 C 2.285156 20.675781 2.4375 21.433594 2.96875 21.964844 C 3.628906 22.625 4.652344 22.714844 5.410156 22.230469 C 5.441406 22.261719 5.46875 22.292969 5.5 22.324219 C 5.96875 22.792969 6.589844 23.050781 7.25 23.050781 C 7.910156 23.050781 8.53125 22.792969 9 22.324219 C 9.445312 21.878906 9.695312 21.285156 9.714844 20.652344 C 9.988281 20.53125 10.234375 20.367188 10.445312 20.15625 C 11.410156 19.191406 11.410156 17.621094 10.445312 16.65625 C 9.957031 16.167969 9.300781 15.921875 8.628906 15.941406 C 7.789062 15.097656 7.304688 13.949219 7.304688 12.765625 C 7.304688 10.277344 9.324219 8.253906 11.8125 8.253906 C 13.769531 8.253906 15.507812 9.539062 16.101562 11.390625 C 15.722656 12.167969 15.894531 13.09375 16.507812 13.675781 C 16.480469 13.710938 16.457031 13.746094 16.4375 13.785156 C 16.097656 14.351562 15.996094 15.015625 16.15625 15.65625 C 16.316406 16.296875 16.714844 16.839844 17.28125 17.179688 C 17.824219 17.503906 18.460938 17.605469 19.078125 17.46875 C 19.261719 17.707031 19.484375 17.90625 19.738281 18.058594 C 20.136719 18.296875 20.574219 18.410156 21.007812 18.410156 C 21.847656 18.410156 22.667969 17.984375 23.132812 17.210938 C 23.554688 16.507812 23.597656 15.65625 23.257812 14.917969 C 23.378906 14.785156 23.484375 14.644531 23.574219 14.492188 C 23.984375 13.808594 24.101562 13.007812 23.910156 12.234375 Z M 2.953125 19.203125 C 1.597656 17.339844 0.859375 15.074219 0.859375 12.765625 C 0.859375 6.722656 5.773438 1.808594 11.8125 1.808594 C 17.007812 1.808594 21.40625 5.414062 22.503906 10.371094 C 22.386719 10.300781 22.269531 10.246094 22.144531 10.195312 C 22.085938 10.171875 22.027344 10.15625 21.96875 10.132812 C 21.898438 10.113281 21.832031 10.089844 21.765625 10.070312 C 21.671875 10.046875 21.574219 10.03125 21.476562 10.015625 C 21.453125 10.011719 21.429688 10.007812 21.410156 10.003906 C 21.292969 9.988281 21.175781 9.980469 21.058594 9.976562 C 19.832031 5.910156 16.078125 3.097656 11.8125 3.097656 C 6.484375 3.097656 2.148438 7.433594 2.148438 12.765625 C 2.148438 14.117188 2.433594 15.4375 2.992188 16.6875 C 2.960938 16.773438 2.941406 16.859375 2.917969 16.945312 C 2.910156 16.972656 2.90625 16.996094 2.898438 17.023438 C 2.835938 17.296875 2.816406 17.578125 2.832031 17.855469 C 2.832031 17.875 2.835938 17.894531 2.835938 17.914062 C 2.847656 18.066406 2.875 18.214844 2.910156 18.363281 C 2.917969 18.40625 2.929688 18.449219 2.941406 18.492188 C 2.960938 18.558594 2.980469 18.625 3.003906 18.6875 C 3.039062 18.785156 3.078125 18.878906 3.121094 18.96875 C 3.128906 18.988281 3.136719 19.011719 3.148438 19.03125 C 3.082031 19.078125 3.023438 19.132812 2.96875 19.1875 C 2.964844 19.191406 2.957031 19.199219 2.953125 19.203125 Z M 19.0625 10.703125 C 19.050781 10.695312 19.035156 10.6875 19.019531 10.675781 C 18.09375 7.472656 15.152344 5.246094 11.8125 5.246094 C 7.667969 5.246094 4.296875 8.621094 4.296875 12.765625 C 4.296875 13.496094 4.414062 14.226562 4.632812 14.9375 C 4.289062 15.085938 3.96875 15.292969 3.691406 15.570312 C 3.636719 15.628906 3.589844 15.691406 3.539062 15.75 C 3.1875 14.789062 3.007812 13.785156 3.007812 12.765625 C 3.007812 7.910156 6.957031 3.957031 11.8125 3.957031 C 15.652344 3.957031 19.027344 6.460938 20.1875 10.09375 C 19.78125 10.214844 19.394531 10.414062 19.0625 10.703125 Z M 9.835938 19.546875 C 9.652344 19.730469 9.421875 19.867188 9.152344 19.945312 C 8.953125 20.003906 8.824219 20.199219 8.84375 20.402344 C 8.898438 20.894531 8.730469 21.375 8.390625 21.71875 C 7.78125 22.328125 6.71875 22.328125 6.105469 21.714844 C 6.019531 21.628906 5.941406 21.523438 5.859375 21.382812 C 5.789062 21.265625 5.667969 21.1875 5.53125 21.171875 C 5.515625 21.171875 5.503906 21.171875 5.488281 21.171875 C 5.367188 21.171875 5.25 21.222656 5.167969 21.316406 C 5.152344 21.332031 5.136719 21.351562 5.136719 21.355469 C 4.707031 21.785156 4.007812 21.785156 3.574219 21.355469 C 3.242188 21.023438 3.171875 20.53125 3.351562 20.125 C 3.355469 20.121094 3.359375 20.117188 3.359375 20.113281 C 3.386719 20.050781 3.421875 19.996094 3.453125 19.941406 C 3.492188 19.890625 3.53125 19.839844 3.574219 19.792969 C 3.667969 19.703125 3.78125 19.625 3.910156 19.570312 C 4.03125 19.515625 4.117188 19.414062 4.152344 19.289062 C 4.1875 19.164062 4.160156 19.03125 4.085938 18.925781 C 4.019531 18.832031 3.964844 18.734375 3.914062 18.636719 C 3.894531 18.597656 3.875 18.558594 3.859375 18.519531 C 3.835938 18.460938 3.816406 18.40625 3.796875 18.347656 C 3.777344 18.292969 3.757812 18.238281 3.746094 18.183594 C 3.742188 18.175781 3.742188 18.164062 3.738281 18.152344 C 3.703125 17.996094 3.6875 17.839844 3.6875 17.679688 C 3.6875 17.664062 3.683594 17.644531 3.683594 17.628906 C 3.6875 17.550781 3.695312 17.46875 3.703125 17.390625 C 3.707031 17.375 3.710938 17.355469 3.710938 17.339844 C 3.738281 17.171875 3.785156 17.003906 3.851562 16.84375 C 3.855469 16.84375 3.855469 16.839844 3.855469 16.835938 C 3.957031 16.597656 4.105469 16.375 4.296875 16.179688 C 4.578125 15.902344 4.917969 15.726562 5.273438 15.632812 C 5.273438 15.632812 5.277344 15.632812 5.277344 15.632812 C 5.363281 15.609375 5.453125 15.59375 5.539062 15.582031 C 5.558594 15.582031 5.574219 15.582031 5.59375 15.578125 C 5.714844 15.566406 5.832031 15.566406 5.949219 15.574219 C 6.011719 15.578125 6.078125 15.582031 6.144531 15.589844 C 6.191406 15.597656 6.238281 15.609375 6.28125 15.617188 C 6.375 15.640625 6.464844 15.664062 6.554688 15.699219 C 6.574219 15.707031 6.59375 15.710938 6.613281 15.71875 C 6.726562 15.765625 6.832031 15.824219 6.9375 15.890625 C 6.960938 15.902344 6.984375 15.921875 7.007812 15.9375 C 7.113281 16.007812 7.214844 16.085938 7.308594 16.179688 C 7.449219 16.320312 7.570312 16.488281 7.671875 16.675781 C 7.695312 16.71875 7.726562 16.753906 7.757812 16.785156 C 7.769531 16.792969 7.777344 16.800781 7.789062 16.808594 C 7.816406 16.828125 7.84375 16.847656 7.871094 16.859375 C 7.882812 16.867188 7.894531 16.871094 7.910156 16.875 C 7.945312 16.890625 7.980469 16.894531 8.015625 16.898438 C 8.023438 16.898438 8.03125 16.902344 8.042969 16.902344 C 8.042969 16.902344 8.046875 16.902344 8.050781 16.902344 C 8.09375 16.902344 8.140625 16.894531 8.1875 16.882812 C 8.238281 16.863281 8.292969 16.851562 8.351562 16.839844 C 8.402344 16.828125 8.457031 16.820312 8.515625 16.8125 C 8.519531 16.8125 8.519531 16.8125 8.523438 16.8125 C 9.003906 16.757812 9.488281 16.914062 9.835938 17.265625 C 10.464844 17.894531 10.464844 18.917969 9.835938 19.546875 Z M 11.8125 7.394531 C 8.851562 7.394531 6.445312 9.804688 6.445312 12.765625 C 6.445312 13.503906 6.601562 14.234375 6.894531 14.902344 C 6.859375 14.890625 6.820312 14.878906 6.785156 14.867188 C 6.734375 14.851562 6.6875 14.832031 6.636719 14.816406 C 6.636719 14.816406 6.632812 14.816406 6.632812 14.816406 C 6.25 14.707031 5.847656 14.675781 5.457031 14.722656 C 5.257812 14.078125 5.15625 13.421875 5.15625 12.765625 C 5.15625 9.09375 8.140625 6.105469 11.8125 6.105469 C 14.550781 6.105469 16.984375 7.792969 17.988281 10.289062 C 17.917969 10.285156 17.847656 10.289062 17.777344 10.292969 C 17.769531 10.292969 17.757812 10.292969 17.746094 10.292969 C 17.386719 10.316406 17.039062 10.429688 16.738281 10.640625 C 15.898438 8.699219 13.964844 7.394531 11.8125 7.394531 Z M 22.835938 14.050781 C 22.734375 14.222656 22.597656 14.382812 22.441406 14.527344 C 22.289062 14.667969 22.253906 14.898438 22.367188 15.074219 C 22.699219 15.597656 22.710938 16.246094 22.394531 16.769531 C 21.9375 17.53125 20.941406 17.78125 20.179688 17.320312 C 19.957031 17.1875 19.769531 16.996094 19.628906 16.75 C 19.546875 16.617188 19.40625 16.539062 19.257812 16.539062 C 19.207031 16.539062 19.160156 16.546875 19.109375 16.566406 C 18.644531 16.734375 18.140625 16.691406 17.726562 16.441406 C 17.355469 16.21875 17.09375 15.867188 16.988281 15.449219 C 16.886719 15.03125 16.949219 14.597656 17.171875 14.226562 C 17.234375 14.121094 17.320312 14.019531 17.433594 13.90625 C 17.53125 13.8125 17.578125 13.675781 17.5625 13.539062 C 17.542969 13.40625 17.460938 13.289062 17.339844 13.222656 C 17.320312 13.210938 17.296875 13.199219 17.289062 13.199219 C 16.765625 12.886719 16.597656 12.203125 16.910156 11.683594 C 16.914062 11.679688 16.917969 11.675781 16.921875 11.667969 C 16.921875 11.667969 16.925781 11.664062 16.929688 11.664062 C 17.007812 11.539062 17.105469 11.433594 17.21875 11.351562 C 17.257812 11.324219 17.300781 11.300781 17.34375 11.28125 C 17.359375 11.269531 17.375 11.261719 17.390625 11.25 C 17.648438 11.132812 17.945312 11.113281 18.222656 11.210938 C 18.234375 11.214844 18.242188 11.21875 18.253906 11.222656 C 18.3125 11.246094 18.371094 11.273438 18.425781 11.304688 C 18.539062 11.371094 18.636719 11.464844 18.726562 11.578125 C 18.804688 11.679688 18.925781 11.742188 19.054688 11.742188 C 19.175781 11.734375 19.308594 11.6875 19.394531 11.589844 C 19.753906 11.164062 20.246094 10.914062 20.761719 10.851562 C 20.769531 10.851562 20.777344 10.855469 20.785156 10.851562 C 21.019531 10.828125 21.25 10.839844 21.472656 10.886719 C 21.480469 10.886719 21.488281 10.890625 21.5 10.890625 C 21.597656 10.914062 21.695312 10.941406 21.789062 10.980469 C 21.890625 11.019531 21.988281 11.066406 22.082031 11.121094 C 22.089844 11.125 22.097656 11.128906 22.109375 11.132812 C 22.238281 11.210938 22.355469 11.304688 22.464844 11.40625 C 22.484375 11.421875 22.5 11.445312 22.515625 11.464844 C 22.601562 11.550781 22.683594 11.644531 22.757812 11.746094 C 23.21875 12.414062 23.28125 13.3125 22.835938 14.050781 Z M 22.835938 14.050781"/>
</svg>
