<svg xmlns="http://www.w3.org/2000/svg" width="32" height="32" viewBox="0 0 24 24">
    <path d="M18.398 3.395a.799.799 0 1 1-1.597 0 .8.8 0 1 1 1.597 0zm0 0M12.398 21.395a.398.398 0 1 1-.796 0 .398.398 0 1 1 .796 0zm0 0M10.8 21.395a.401.401 0 1 1 0 0zm0 0M15.602 21.395a.401.401 0 1 1 0 0zm0 0M14 21.395a.401.401 0 1 1-.802.002.401.401 0 0 1 .802-.002zm0 0M18.8 21.395a.401.401 0 1 1 0 0zm0 0M18 20.594a.401.401 0 1 1-.802.003.401.401 0 0 1 .802-.003zm0 0M16.398 20.594a.398.398 0 1 1-.796 0 .398.398 0 1 1 .796 0zm0 0M14.8 20.594a.401.401 0 1 1 0 0zm0 0M13.2 20.594a.401.401 0 1 1-.803.003.401.401 0 0 1 .802-.003zm0 0M11.602 20.594a.401.401 0 1 1 0 0zm0 0M12.398 19.797a.398.398 0 1 1-.796 0 .398.398 0 1 1 .796 0zm0 0M14 19.797a.4.4 0 1 1-.8-.003.4.4 0 0 1 .8.003zm0 0M15.602 19.797a.401.401 0 1 1-.802-.005.401.401 0 0 1 .802.005zm0 0M17.2 19.797a.4.4 0 1 1-.801-.003.4.4 0 0 1 .8.003zm0 0M17.2 21.395a.401.401 0 1 1-.803.002.401.401 0 0 1 .802-.002zm0 0"/>
    <path d="M23.973 4.336A.384.384 0 0 0 24 4.203V4.2v-.004c0-.004-.004-.008-.004-.011a.338.338 0 0 0-.023-.125c-.004-.012-.012-.024-.016-.036a.393.393 0 0 0-.062-.093c-.008-.008-.012-.016-.016-.02a.377.377 0 0 0-.102-.074c-.304-.152-.55-.297-.789-.434-.5-.289-.933-.543-1.683-.746-.797-.215-1.301-.36-1.496-.418-.344-.324-1.633-1.425-3.032-1.203-.972.156-1.761.895-2.343 2.195-.11.254-.188.696-.258 1.122-.035.21-.082.476-.11.558a2.785 2.785 0 0 1-.496.871 2.824 2.824 0 0 1-.684.598c-.019.016-.042.027-.062.043-.125.07-.25.137-.383.191-1.16.473-2.894 1.254-4.578 2.278-.793.488-1.61.925-2.418 1.296-.277.13-.582.27-.906.415-.34.152-.687.308-1.039.472l-.047.024c-1.129.527-2.3 1.148-3.308 1.988a.403.403 0 0 0-.102.488.39.39 0 0 0 .45.207l.21-.047a53.64 53.64 0 0 1 2.414-.5c.059-.007.117-.02.176-.027.36-.062.719-.121 1.059-.168.183-.027.359-.047.53-.066-1.816.816-3.96 1.957-4.077 2.832a.404.404 0 0 0 .14.363c.106.086.25.113.383.07.035-.011 3.723-1.242 6.613-1.242h.055c.02-.008.059-.004.082-.008.113-.023 2.68-.504 4.195 1.895-.437.34-1.066.937-1.085 1.555a8.392 8.392 0 0 0-4.114 3.648.6.6 0 0 0 .004.605c.11.188.317.305.531.305H20.82a.61.61 0 0 0 .54-.32.603.603 0 0 0-.016-.617c-.989-1.57-2.297-2.766-3.746-3.485a.421.421 0 0 0-.059-.191c-.41-.656-1.105-1.36-2.008-2.04-.386-1.023-.32-1.546.258-2.038.461-.395 1.004-.88 1.465-1.293 1.086-.977 1.808-2.258 2.031-3.61.188-1.132-.015-1.87-.086-2.074.117-.55.813-1.035 1.063-1.168l3.492-1.598h.004l.008-.003a.396.396 0 0 0 .105-.075c.012-.007.016-.015.027-.027a.4.4 0 0 0 .055-.086.158.158 0 0 0 .02-.035zM14.37 6.05c.57.11 1.203.332 1.45.785.199.375.136.91-.184 1.59-.782 1.656-3.774 2.969-8.672 3.804-.008-.003-.02-.007-.027-.011-.051-.016-.106-.035-.168-.047h-.004c-.602-.137-1.676-.05-2.805.113l-.074.012c-.082.012-.16.023-.239.039-.453.07-.902.152-1.316.23.84-.476 1.719-.867 2.531-1.234l.48-.215c.153-.07.302-.137.438-.203a24.929 24.929 0 0 0 2.496-1.336c.203-.125.403-.242.602-.355.008-.004.012-.008.016-.008l.265-.149a33.275 33.275 0 0 1 3.582-1.71c.153-.063.297-.137.434-.215l.094-.059c.12-.074.234-.152.343-.238a.474.474 0 0 0 .055-.04c.258-.21.488-.456.68-.73l.023-.023zm5.23 16.144a.398.398 0 0 0-.402-.398.398.398 0 0 0-.398.398H18a.398.398 0 0 0-.398-.398.398.398 0 0 0-.403.398h-.8a.395.395 0 0 0-.399-.398.395.395 0 0 0-.398.398H14.8a.398.398 0 0 0-.403-.398.398.398 0 0 0-.398.398h-.8a.398.398 0 0 0-.4-.398.398.398 0 0 0-.402.398h-.796a.398.398 0 0 0-.403-.398.398.398 0 0 0-.398.398H10a.398.398 0 0 0-.398-.398.398.398 0 0 0-.403.398h-.8a.395.395 0 0 0-.227-.355c.082-.113.164-.227.25-.332.05.164.195.289.379.289.219 0 .398-.18.398-.402a.396.396 0 0 0-.347-.391c.113-.121.234-.242.359-.36.027.2.187.352.39.352.22 0 .399-.18.399-.402a.394.394 0 0 0-.285-.375 6.62 6.62 0 0 1 .332-.246.397.397 0 0 0 .754-.18c0-.09-.04-.172-.09-.238.117-.067.234-.13.355-.188a.384.384 0 0 0 .133.028.403.403 0 0 0 .371-.25c.223-.09.45-.168.684-.235.055-.02.113-.031.172-.047a.366.366 0 0 0-.028.133.401.401 0 0 0 .801 0c0-.11-.043-.21-.117-.281.082-.016.164-.027.246-.043l.2-.024a8.667 8.667 0 0 1 .515-.043c.09-.003.18-.007.27-.007h.066a.399.399 0 0 0 .02.797c.222 0 .402-.18.402-.399a.395.395 0 0 0-.375-.394c.426.003.851.05 1.273.14a.386.386 0 0 0-.097.254.398.398 0 1 0 .796 0c0-.023-.007-.043-.011-.062a7.04 7.04 0 0 1 1.625.796c-.004.024-.012.043-.012.067a.4.4 0 0 0 .398.398c.07 0 .133-.023.188-.05.098.074.191.152.289.234a.375.375 0 0 0-.074.215c0 .222.18.402.398.402.09 0 .168-.035.235-.086.082.086.164.172.242.262a.41.41 0 0 0-.074.223c0 .222.175.402.398.402a.39.39 0 0 0 .164-.04c.106.145.211.29.313.438zm.31-16.754c-.06.032-1.407.754-1.516 1.88a.563.563 0 0 0 .035.226c.004.008.246.629.066 1.723-.191 1.175-.824 2.293-1.777 3.148-.453.41-.992.887-1.45 1.277-1.082.922-.851 2.008-.437 3.051.04.106.105.152.18.207a9.9 9.9 0 0 1 1.25 1.098 3.365 3.365 0 0 0-.285-.067 3.435 3.435 0 0 0-.418-.086c-.082-.015-.168-.027-.25-.039l-.2-.023a8.154 8.154 0 0 0-.32-.027c-.031 0-.066-.004-.098-.004l-.71-2.137a.4.4 0 0 0-.508-.254.402.402 0 0 0-.25.508l.629 1.89c-.016 0-.032.004-.047.004a8.456 8.456 0 0 0-.442.047l-.113.012c-.117.016-.234.04-.352.059-.07.011-.14.023-.207.039-.058.011-.117.027-.171.039-.118.027-.235.054-.352.086a3.9 3.9 0 0 1 .855-.77.402.402 0 0 0 .13-.523c-1.255-2.32-3.34-2.66-4.462-2.66-.359 0-.62.035-.722.05H7.94c-1.812 0-3.867.442-5.253.809.933-.566 2.37-1.266 3.94-1.906 5.52-.887 8.798-2.344 9.735-4.332.434-.922.489-1.7.16-2.309-.296-.547-.89-.93-1.761-1.137.02-.05.043-.097.058-.144.047-.14.086-.356.145-.692.055-.324.129-.765.2-.925.46-1.032 1.038-1.614 1.718-1.73 1.199-.208 2.414 1.026 2.422 1.034.047.055.11.094.18.114 0 0 .55.164 1.609.453.394.105.683.226.953.363h-2.445a.401.401 0 0 0 0 .8h2.16zm0 0"/>
</svg>
