<svg xmlns="http://www.w3.org/2000/svg" width="32" height="32" viewBox="0 0 24 24">
    <path d="M 12 15.863281 C 9.945312 15.863281 8.339844 16.9375 8.339844 18.304688 C 8.339844 19.671875 9.945312 20.746094 12 20.746094 C 14.054688 20.746094 15.660156 19.671875 15.660156 18.304688 C 15.660156 16.9375 14.054688 15.863281 12 15.863281 Z M 12 19.933594 C 10.457031 19.933594 9.152344 19.1875 9.152344 18.304688 C 9.152344 17.421875 10.457031 16.679688 12 16.679688 C 13.542969 16.679688 14.847656 17.421875 14.847656 18.304688 C 14.847656 19.1875 13.542969 19.933594 12 19.933594 Z M 12 19.933594"/>
    <path d="M 23.425781 4.070312 C 23.203125 4.046875 23.003906 4.214844 22.984375 4.4375 C 22.980469 4.460938 22.707031 6.859375 19.460938 7.261719 C 20.128906 6.414062 20.503906 5.453125 20.535156 4.4375 C 21.015625 4.363281 21.425781 4.152344 21.75 3.800781 C 22.71875 2.753906 22.582031 0.863281 22.574219 0.78125 C 22.558594 0.558594 22.367188 0.390625 22.136719 0.40625 C 21.914062 0.425781 21.746094 0.621094 21.765625 0.84375 C 21.800781 1.292969 21.757812 2.59375 21.152344 3.246094 C 20.984375 3.429688 20.777344 3.546875 20.535156 3.609375 C 20.488281 2.832031 20.292969 1.570312 19.53125 0.761719 C 19.054688 0.257812 18.4375 0 17.695312 0 C 17.46875 0 17.289062 0.183594 17.289062 0.40625 C 17.289062 0.632812 17.46875 0.8125 17.695312 0.8125 C 18.210938 0.8125 18.617188 0.980469 18.9375 1.320312 C 19.660156 2.085938 19.734375 3.496094 19.734375 4.046875 C 19.734375 4.054688 19.730469 4.058594 19.730469 4.066406 C 19.730469 4.074219 19.734375 4.082031 19.734375 4.089844 C 19.734375 4.195312 19.730469 4.261719 19.730469 4.269531 C 19.730469 5.429688 19.21875 6.488281 18.273438 7.367188 C 18.265625 7.359375 18.257812 7.351562 18.25 7.347656 C 18.226562 7.339844 16.066406 6.464844 16.066406 3.253906 C 16.066406 3.03125 15.886719 2.847656 15.660156 2.847656 C 15.4375 2.847656 15.253906 3.03125 15.253906 3.253906 C 15.253906 6.207031 16.847656 7.484375 17.585938 7.917969 C 17.039062 8.304688 16.390625 8.640625 15.65625 8.921875 C 14.636719 8.175781 13.371094 7.730469 12 7.730469 C 10.628906 7.730469 9.363281 8.175781 8.34375 8.921875 C 7.796875 8.714844 7.300781 8.472656 6.855469 8.207031 C 7.472656 7.636719 8.746094 6.121094 8.746094 3.253906 C 8.746094 3.03125 8.5625 2.847656 8.339844 2.847656 C 8.113281 2.847656 7.933594 3.03125 7.933594 3.253906 C 7.933594 6.140625 6.527344 7.445312 6.164062 7.734375 C 4.941406 6.789062 4.269531 5.589844 4.269531 4.246094 C 4.269531 4.203125 4.265625 4.152344 4.265625 4.097656 C 4.265625 4.085938 4.269531 4.078125 4.269531 4.066406 C 4.269531 4.054688 4.265625 4.046875 4.265625 4.035156 C 4.261719 3.367188 4.394531 2.027344 5.0625 1.320312 C 5.382812 0.980469 5.789062 0.8125 6.304688 0.8125 C 6.53125 0.8125 6.710938 0.632812 6.710938 0.40625 C 6.710938 0.183594 6.53125 0 6.304688 0 C 5.5625 0 4.945312 0.257812 4.46875 0.761719 C 3.707031 1.574219 3.507812 2.839844 3.464844 3.609375 C 3.222656 3.546875 3.015625 3.433594 2.847656 3.25 C 2.121094 2.46875 2.234375 0.859375 2.234375 0.84375 C 2.253906 0.621094 2.085938 0.425781 1.863281 0.410156 C 1.632812 0.390625 1.441406 0.558594 1.425781 0.78125 C 1.417969 0.863281 1.28125 2.753906 2.25 3.800781 C 2.574219 4.152344 2.984375 4.363281 3.464844 4.4375 C 3.503906 5.457031 3.878906 6.417969 4.546875 7.261719 C 1.320312 6.871094 1.027344 4.542969 1.015625 4.433594 C 0.992188 4.210938 0.792969 4.046875 0.574219 4.070312 C 0.347656 4.089844 0.183594 4.289062 0.207031 4.511719 C 0.210938 4.550781 0.300781 5.457031 1.015625 6.355469 C 1.65625 7.15625 2.929688 8.105469 5.378906 8.132812 C 5.917969 8.597656 6.558594 9.007812 7.292969 9.355469 L 3.117188 9.355469 C 2.960938 9.355469 2.8125 9.4375 2.730469 9.574219 L 2.613281 9.808594 L 2.722656 10.011719 C 2.910156 10.363281 3.914062 12.035156 6.027344 12.492188 C 5.953125 12.859375 5.914062 13.238281 5.914062 13.628906 L 5.914062 15.660156 C 5.914062 15.710938 5.914062 15.757812 5.917969 15.804688 L 5.921875 15.851562 C 4.640625 16.710938 3.863281 17.847656 3.863281 19.117188 C 3.863281 21.855469 7.4375 24 12 24 C 16.5625 24 20.136719 21.855469 20.136719 19.117188 C 20.136719 17.847656 19.359375 16.710938 18.078125 15.847656 C 18.082031 15.785156 18.085938 15.722656 18.085938 15.660156 L 18.085938 13.628906 C 18.085938 13.238281 18.046875 12.859375 17.972656 12.492188 C 20.085938 12.035156 21.089844 10.363281 21.277344 10.011719 L 21.386719 9.773438 L 21.113281 9.355469 L 16.707031 9.355469 C 17.441406 9.007812 18.085938 8.597656 18.621094 8.132812 C 21.070312 8.101562 22.347656 7.15625 22.984375 6.355469 C 23.699219 5.457031 23.792969 4.550781 23.796875 4.511719 C 23.816406 4.289062 23.652344 4.089844 23.425781 4.070312 Z M 3.800781 10.167969 L 7.078125 10.167969 C 7.078125 10.171875 7.074219 10.175781 7.074219 10.175781 C 6.988281 10.292969 6.90625 10.410156 6.828125 10.53125 C 6.59375 10.898438 6.398438 11.292969 6.25 11.707031 C 5.011719 11.457031 4.222656 10.710938 3.800781 10.167969 Z M 19.320312 19.117188 C 19.320312 21.363281 16.039062 23.1875 12 23.1875 C 7.960938 23.1875 4.679688 21.363281 4.679688 19.117188 C 4.679688 16.894531 7.90625 15.085938 11.894531 15.054688 C 14 15.070312 16.019531 15.570312 17.445312 16.433594 L 17.824219 16.664062 C 18.757812 17.347656 19.320312 18.195312 19.320312 19.117188 Z M 15.148438 14.605469 C 15.214844 14.308594 15.253906 13.980469 15.253906 13.628906 C 15.253906 12.390625 14.800781 11.390625 14.238281 11.390625 C 13.675781 11.390625 13.21875 12.390625 13.21875 13.628906 C 13.21875 13.863281 13.242188 14.085938 13.273438 14.300781 C 12.859375 14.261719 12.433594 14.238281 12 14.238281 C 11.96875 14.238281 11.933594 14.238281 11.902344 14.238281 C 11.863281 14.238281 11.828125 14.238281 11.789062 14.238281 C 11.433594 14.238281 11.082031 14.253906 10.730469 14.28125 C 10.761719 14.070312 10.78125 13.855469 10.78125 13.628906 C 10.78125 12.390625 10.324219 11.390625 9.761719 11.390625 C 9.203125 11.390625 8.746094 12.390625 8.746094 13.628906 C 8.746094 13.957031 8.78125 14.265625 8.839844 14.550781 C 8.089844 14.710938 7.375 14.933594 6.726562 15.214844 L 6.726562 13.628906 C 6.726562 13.183594 6.792969 12.757812 6.902344 12.347656 L 6.921875 12.277344 C 7.164062 11.4375 7.625 10.667969 8.257812 10.054688 L 8.347656 9.96875 C 9.296875 9.085938 10.582031 8.542969 12 8.542969 C 13.417969 8.542969 14.703125 9.085938 15.652344 9.96875 L 15.742188 10.054688 C 16.375 10.667969 16.835938 11.4375 17.078125 12.277344 L 17.097656 12.347656 C 17.210938 12.757812 17.273438 13.183594 17.273438 13.628906 L 17.273438 15.378906 C 16.644531 15.058594 15.929688 14.796875 15.148438 14.605469 Z M 20.199219 10.167969 C 19.777344 10.710938 18.988281 11.457031 17.75 11.707031 C 17.601562 11.292969 17.40625 10.898438 17.171875 10.53125 C 17.09375 10.410156 17.011719 10.292969 16.925781 10.175781 C 16.925781 10.175781 16.921875 10.171875 16.921875 10.167969 Z M 20.199219 10.167969"/>
</svg>
