<svg xmlns="http://www.w3.org/2000/svg" width="32" height="32" viewBox="0 0 24 24">
    <path d="M23.113 5.895a.398.398 0 0 0-.539-.176l-3.512 1.804.766-3.632a.4.4 0 0 0-.781-.164l-.863 4.086v.023a.289.289 0 0 0 0 .082c0 .02-.004.039 0 .055l-1.965 1.011.543-4.925a.403.403 0 0 0-.637-.368l-3.727 2.723V4.582l3.067-2.68a.402.402 0 0 0-.527-.605l-2.54 2.223V.398a.398.398 0 1 0-.796 0V3.52l-2.54-2.223a.4.4 0 0 0-.527.605l3.067 2.68V6.41L7.879 3.68a.397.397 0 0 0-.434-.024.406.406 0 0 0-.199.39l.445 4.141L6 7.035V3.2a.4.4 0 0 0-.8 0v3.293L2.226 4.47a.405.405 0 0 0-.559.105.405.405 0 0 0 .105.559L4.63 7.074l-3.145.942a.406.406 0 0 0-.27.5c.056.171.212.285.388.285a.406.406 0 0 0 .113-.02l3.77-1.129 2.222 1.512-4.59 2.02a.396.396 0 0 0-.004.73l3.977 1.758-1.969 1.012-3.367-1.836a.4.4 0 1 0-.383.699l2.89 1.578L1.06 16.77a.4.4 0 1 0 .367.71l3.07-1.578-.676 3.215a.398.398 0 0 0 .309.473c.027.008.055.008.082.008a.397.397 0 0 0 .39-.317l.813-3.847 2.348-1.207-.532 4.835a.4.4 0 0 0 .633.368l3.739-2.73v2.718l-3.067 2.68a.402.402 0 0 0 .266.703.394.394 0 0 0 .261-.102l2.54-2.219v3.122a.398.398 0 1 0 .796 0V20.48l2.54 2.223a.41.41 0 0 0 .261.098.402.402 0 0 0 .266-.703l-3.067-2.68v-2.703l3.711 2.723a.402.402 0 0 0 .438.023.39.39 0 0 0 .195-.387l-.437-4.062L18 16.164V20c0 .223.18.398.398.398a.398.398 0 0 0 .403-.398v-3.293l2.972 2.023a.403.403 0 0 0 .559-.105.4.4 0 0 0-.105-.555l-3.266-2.222 3.555-1.067a.395.395 0 0 0 .265-.496.4.4 0 0 0-.496-.27l-4 1.2-.02.012a.445.445 0 0 0-.074.039c-.015.011-.035.015-.046.027l-1.93-1.309 4.66-2.05a.398.398 0 0 0 0-.73l-3.883-1.72 1.887-.968 3.367 1.836a.39.39 0 0 0 .192.05c.14 0 .28-.078.351-.21a.396.396 0 0 0-.16-.54l-2.89-1.578L22.94 6.43a.396.396 0 0 0 .172-.535zM15.867 4.87l-.492 4.469c-.004.027.004.05.004.074l-2.98 1.531V7.402zm-7.726-.008l3.46 2.54v3.44L8.56 8.778zm-3.875 6.688l4.117-1.809a.444.444 0 0 0 .09-.058l2.746 1.867-3.215 1.652zm3.859 6.695l.488-4.457 2.989-1.535v3.453zm7.727.012l-3.454-2.535v-3.368l3.04 2.067zm3.87-6.688l-4.117 1.809a.468.468 0 0 0-.132.098l-2.692-1.829 3.297-1.691zm0 0"/>
</svg>
