<svg xmlns="http://www.w3.org/2000/svg" width="32" height="32" viewBox="0 0 24 24">
    <path d="M 23.585938 11.585938 L 20.691406 11.585938 L 22.675781 8.9375 C 22.8125 8.753906 22.777344 8.496094 22.59375 8.359375 C 22.410156 8.222656 22.152344 8.257812 22.015625 8.441406 L 19.65625 11.585938 L 15.878906 11.585938 C 15.757812 10.84375 15.433594 10.167969 14.957031 9.625 L 17.707031 6.878906 L 21.597656 7.433594 C 21.617188 7.4375 21.636719 7.441406 21.65625 7.441406 C 21.859375 7.441406 22.035156 7.289062 22.066406 7.085938 C 22.097656 6.859375 21.941406 6.648438 21.714844 6.617188 L 18.4375 6.148438 L 20.484375 4.101562 C 20.648438 3.9375 20.648438 3.675781 20.484375 3.515625 C 20.324219 3.351562 20.0625 3.351562 19.902344 3.515625 L 17.851562 5.5625 L 17.382812 2.285156 C 17.351562 2.058594 17.140625 1.902344 16.914062 1.933594 C 16.691406 1.96875 16.53125 2.175781 16.566406 2.402344 L 17.121094 6.296875 L 14.351562 9.0625 C 13.800781 8.648438 13.136719 8.375 12.414062 8.296875 L 12.414062 4.757812 L 15.558594 2.398438 C 15.742188 2.261719 15.777344 2.003906 15.640625 1.820312 C 15.503906 1.636719 15.246094 1.601562 15.0625 1.738281 L 12.414062 3.722656 L 12.414062 0.414062 C 12.414062 0.183594 12.230469 0 12 0 C 11.769531 0 11.585938 0.183594 11.585938 0.414062 L 11.585938 3.722656 L 8.9375 1.738281 C 8.753906 1.601562 8.496094 1.636719 8.359375 1.820312 C 8.222656 2.003906 8.257812 2.261719 8.441406 2.398438 L 11.585938 4.757812 L 11.585938 8.296875 C 10.929688 8.367188 10.320312 8.597656 9.796875 8.953125 L 7.171875 6.328125 L 7.730469 2.4375 C 7.761719 2.210938 7.605469 2 7.378906 1.96875 C 7.152344 1.9375 6.941406 2.09375 6.910156 2.320312 L 6.441406 5.597656 L 4.101562 3.253906 C 3.9375 3.09375 3.675781 3.09375 3.515625 3.253906 C 3.351562 3.417969 3.351562 3.679688 3.515625 3.839844 L 5.855469 6.179688 L 2.578125 6.648438 C 2.351562 6.683594 2.195312 6.890625 2.226562 7.117188 C 2.257812 7.324219 2.433594 7.472656 2.636719 7.472656 C 2.65625 7.472656 2.675781 7.472656 2.695312 7.46875 L 6.585938 6.914062 L 9.164062 9.492188 C 8.625 10.054688 8.25 10.78125 8.121094 11.585938 L 4.757812 11.585938 L 2.398438 8.441406 C 2.261719 8.257812 2.003906 8.222656 1.820312 8.359375 C 1.636719 8.496094 1.601562 8.753906 1.738281 8.9375 L 3.722656 11.585938 L 0.414062 11.585938 C 0.183594 11.585938 0 11.773438 0 12 C 0 12.226562 0.183594 12.414062 0.414062 12.414062 L 3.722656 12.414062 L 1.738281 15.0625 C 1.601562 15.246094 1.636719 15.503906 1.820312 15.640625 C 1.894531 15.695312 1.980469 15.722656 2.070312 15.722656 C 2.195312 15.722656 2.320312 15.667969 2.398438 15.558594 L 4.757812 12.414062 L 8.078125 12.414062 C 8.121094 13.21875 8.40625 13.960938 8.863281 14.570312 C 8.847656 14.582031 8.828125 14.589844 8.8125 14.605469 L 6.585938 16.828125 L 2.695312 16.273438 C 2.46875 16.242188 2.257812 16.398438 2.226562 16.621094 C 2.195312 16.847656 2.351562 17.058594 2.578125 17.089844 L 5.855469 17.558594 L 3.515625 19.898438 C 3.351562 20.0625 3.351562 20.324219 3.515625 20.484375 C 3.59375 20.566406 3.703125 20.605469 3.808594 20.605469 C 3.914062 20.605469 4.019531 20.566406 4.101562 20.484375 L 6.441406 18.144531 L 6.910156 21.421875 C 6.9375 21.628906 7.113281 21.777344 7.316406 21.777344 C 7.335938 21.777344 7.355469 21.777344 7.378906 21.773438 C 7.601562 21.742188 7.761719 21.53125 7.726562 21.304688 L 7.171875 17.414062 L 9.394531 15.1875 C 9.40625 15.179688 9.40625 15.167969 9.414062 15.160156 C 10.007812 15.679688 10.757812 16.027344 11.585938 16.117188 L 11.585938 19.65625 L 8.441406 22.015625 C 8.257812 22.152344 8.222656 22.410156 8.359375 22.59375 C 8.441406 22.703125 8.5625 22.757812 8.691406 22.757812 C 8.777344 22.757812 8.863281 22.730469 8.9375 22.675781 L 11.585938 20.691406 L 11.585938 23.585938 C 11.585938 23.816406 11.769531 24 12 24 C 12.230469 24 12.414062 23.816406 12.414062 23.585938 L 12.414062 20.691406 L 15.0625 22.675781 C 15.136719 22.730469 15.222656 22.757812 15.308594 22.757812 C 15.4375 22.757812 15.558594 22.703125 15.640625 22.59375 C 15.777344 22.410156 15.742188 22.152344 15.558594 22.015625 L 12.414062 19.65625 L 12.414062 16.117188 C 13.339844 16.019531 14.171875 15.597656 14.792969 14.96875 L 17.128906 17.375 L 16.5625 21.335938 C 16.53125 21.5625 16.6875 21.773438 16.914062 21.804688 C 16.933594 21.808594 16.957031 21.808594 16.976562 21.808594 C 17.175781 21.808594 17.355469 21.660156 17.382812 21.453125 L 17.859375 18.125 L 19.894531 20.222656 C 19.976562 20.304688 20.085938 20.347656 20.191406 20.347656 C 20.296875 20.347656 20.402344 20.308594 20.480469 20.230469 C 20.644531 20.070312 20.648438 19.808594 20.488281 19.644531 L 18.488281 17.585938 L 21.714844 17.125 C 21.941406 17.089844 22.097656 16.882812 22.066406 16.65625 C 22.035156 16.429688 21.824219 16.269531 21.597656 16.304688 L 17.773438 16.851562 L 15.3125 14.316406 C 15.667969 13.761719 15.882812 13.109375 15.921875 12.414062 L 19.65625 12.414062 L 22.015625 15.558594 C 22.09375 15.667969 22.21875 15.722656 22.34375 15.722656 C 22.433594 15.722656 22.519531 15.695312 22.59375 15.640625 C 22.777344 15.503906 22.8125 15.242188 22.675781 15.0625 L 20.691406 12.414062 L 23.585938 12.414062 C 23.816406 12.414062 24 12.226562 24 12 C 24 11.773438 23.816406 11.585938 23.585938 11.585938 Z M 12 15.308594 C 10.289062 15.308594 8.898438 13.917969 8.898438 12.207031 C 8.898438 10.496094 10.289062 9.101562 12 9.101562 C 13.710938 9.101562 15.101562 10.496094 15.101562 12.207031 C 15.101562 13.917969 13.710938 15.308594 12 15.308594 Z M 12 15.308594"/>
</svg>
