<svg xmlns="http://www.w3.org/2000/svg" width="32" height="32" viewBox="0 0 24 24">
    <path d="M 19.378906 19.421875 C 21.503906 17.582031 22.773438 14.351562 22.773438 10.78125 C 22.773438 7.886719 21.644531 5.171875 19.589844 3.132812 C 17.554688 1.109375 14.859375 0 11.992188 0 C 11.96875 0 11.945312 0 11.921875 0 C 8.863281 0.0195312 6.050781 1.316406 4 3.652344 C 1.902344 6.042969 0.921875 9.222656 1.3125 12.378906 C 1.675781 15.308594 2.988281 17.808594 5.011719 19.421875 L 4.234375 22.789062 C 4.167969 23.082031 4.238281 23.390625 4.425781 23.625 C 4.613281 23.863281 4.898438 24 5.199219 24 L 19.191406 24 C 19.496094 24 19.777344 23.863281 19.964844 23.625 C 20.15625 23.390625 20.226562 23.082031 20.15625 22.789062 Z M 2.117188 12.28125 C 1.757812 9.355469 2.664062 6.40625 4.609375 4.1875 C 6.507812 2.03125 9.105469 0.832031 11.925781 0.8125 C 11.949219 0.8125 11.972656 0.8125 11.992188 0.8125 C 14.644531 0.8125 17.136719 1.839844 19.015625 3.710938 C 20.914062 5.59375 21.960938 8.105469 21.960938 10.78125 C 21.960938 13.84375 20.925781 16.722656 19.230469 18.449219 L 19.230469 18.445312 C 19.0625 18.109375 18.722656 17.898438 18.34375 17.898438 L 13.25 17.898438 L 13.25 15.78125 C 14.855469 15.609375 16.425781 15.085938 17.835938 14.207031 C 17.988281 14.113281 18.058594 13.925781 18.007812 13.75 C 17.960938 13.578125 17.800781 13.457031 17.617188 13.457031 C 16.546875 13.457031 15.1875 12.75 14.085938 11.652344 C 14.945312 11.441406 15.777344 11.101562 16.546875 10.621094 C 16.699219 10.523438 16.773438 10.335938 16.722656 10.164062 C 16.671875 9.988281 16.511719 9.867188 16.332031 9.867188 C 15.410156 9.867188 14.1875 9.144531 13.332031 8.148438 C 14.148438 8.003906 14.945312 7.710938 15.667969 7.261719 C 15.820312 7.164062 15.890625 6.976562 15.839844 6.804688 C 15.792969 6.628906 15.632812 6.507812 15.449219 6.507812 C 14.269531 6.507812 12.765625 5.039062 12.597656 4.003906 C 12.566406 3.804688 12.394531 3.660156 12.195312 3.660156 C 11.996094 3.660156 11.828125 3.804688 11.796875 4.003906 C 11.628906 5.039062 10.125 6.507812 8.941406 6.507812 C 8.761719 6.507812 8.601562 6.628906 8.550781 6.804688 C 8.5 6.976562 8.574219 7.164062 8.726562 7.261719 C 9.363281 7.65625 10.054688 7.933594 10.769531 8.089844 C 9.914062 9.121094 8.664062 9.867188 7.722656 9.867188 C 7.539062 9.867188 7.382812 9.988281 7.332031 10.164062 C 7.28125 10.335938 7.351562 10.523438 7.507812 10.621094 C 8.292969 11.109375 9.144531 11.457031 10.023438 11.667969 C 8.921875 12.753906 7.570312 13.457031 6.503906 13.457031 C 6.320312 13.457031 6.160156 13.578125 6.109375 13.75 C 6.0625 13.925781 6.132812 14.113281 6.285156 14.207031 C 7.792969 15.152344 9.492188 15.6875 11.214844 15.816406 L 11.214844 17.898438 L 6.050781 17.898438 C 5.671875 17.898438 5.332031 18.109375 5.160156 18.445312 L 5.148438 18.472656 C 3.503906 16.988281 2.433594 14.8125 2.117188 12.28125 Z M 11.707031 7.414062 C 11.6875 7.410156 11.667969 7.410156 11.648438 7.410156 C 11.121094 7.359375 10.605469 7.238281 10.105469 7.046875 C 10.953125 6.660156 11.734375 5.925781 12.195312 5.15625 C 12.65625 5.925781 13.441406 6.660156 14.285156 7.046875 C 13.460938 7.363281 12.578125 7.488281 11.707031 7.414062 Z M 11.6875 8.230469 C 11.773438 8.238281 11.855469 8.234375 11.9375 8.238281 C 12.023438 8.242188 12.109375 8.25 12.195312 8.25 C 12.207031 8.25 12.214844 8.246094 12.222656 8.246094 C 12.277344 8.246094 12.328125 8.253906 12.378906 8.25 C 13.03125 9.15625 14.054688 10.039062 15.136719 10.445312 C 14.40625 10.765625 13.636719 10.964844 12.855469 11.050781 C 12.839844 11.050781 12.824219 11.054688 12.804688 11.054688 C 12.285156 11.105469 11.765625 11.105469 11.246094 11.054688 C 11.234375 11.054688 11.222656 11.050781 11.210938 11.050781 C 10.425781 10.96875 9.652344 10.769531 8.917969 10.449219 C 10.007812 10.039062 11.035156 9.148438 11.6875 8.230469 Z M 10.972656 11.847656 C 11.691406 11.9375 12.417969 11.933594 13.140625 11.839844 C 14.097656 12.917969 15.277344 13.714844 16.398438 14.066406 C 13.667969 15.363281 10.449219 15.363281 7.71875 14.066406 C 8.839844 13.714844 10.015625 12.921875 10.972656 11.847656 Z M 12.027344 15.863281 L 12.4375 15.863281 L 12.4375 17.898438 L 12.027344 17.898438 Z M 19.332031 23.121094 C 19.3125 23.144531 19.265625 23.1875 19.191406 23.1875 L 5.199219 23.1875 C 5.125 23.1875 5.082031 23.144531 5.0625 23.121094 C 5.042969 23.09375 5.011719 23.042969 5.027344 22.972656 L 5.988281 18.8125 C 6.003906 18.753906 6.054688 18.710938 6.113281 18.710938 L 18.277344 18.710938 C 18.339844 18.710938 18.390625 18.753906 18.40625 18.8125 L 19.363281 22.972656 C 19.378906 23.042969 19.351562 23.09375 19.332031 23.121094 Z M 19.332031 23.121094"/>
    <path d="M19.757812 9.558594C19.757812 9.894531 19.484375 10.167969 19.148438 10.167969 18.808594 10.167969 18.539062 9.894531 18.539062 9.558594 18.539062 9.222656 18.808594 8.949219 19.148438 8.949219 19.484375 8.949219 19.757812 9.222656 19.757812 9.558594zM20.570312 7.117188C20.570312 7.457031 20.296875 7.730469 19.960938 7.730469 19.625 7.730469 19.351562 7.457031 19.351562 7.117188 19.351562 6.78125 19.625 6.507812 19.960938 6.507812 20.296875 6.507812 20.570312 6.78125 20.570312 7.117188zM18.539062 5.085938C18.539062 5.421875 18.265625 5.695312 17.925781 5.695312 17.589844 5.695312 17.316406 5.421875 17.316406 5.085938 17.316406 4.746094 17.589844 4.472656 17.925781 4.472656 18.265625 4.472656 18.539062 4.746094 18.539062 5.085938zM15.691406 2.644531C15.691406 2.980469 15.417969 3.253906 15.078125 3.253906 14.742188 3.253906 14.46875 2.980469 14.46875 2.644531 14.46875 2.308594 14.742188 2.035156 15.078125 2.035156 15.417969 2.035156 15.691406 2.308594 15.691406 2.644531zM15.691406 4.679688C15.691406 5.015625 15.417969 5.289062 15.078125 5.289062 14.742188 5.289062 14.46875 5.015625 14.46875 4.679688 14.46875 4.339844 14.742188 4.066406 15.078125 4.066406 15.417969 4.066406 15.691406 4.339844 15.691406 4.679688zM13.25 2.238281C13.25 2.574219 12.976562 2.847656 12.640625 2.847656 12.300781 2.847656 12.027344 2.574219 12.027344 2.238281 12.027344 1.898438 12.300781 1.628906 12.640625 1.628906 12.976562 1.628906 13.25 1.898438 13.25 2.238281zM9.996094 2.644531C9.996094 2.980469 9.722656 3.253906 9.386719 3.253906 9.046875 3.253906 8.773438 2.980469 8.773438 2.644531 8.773438 2.308594 9.046875 2.035156 9.386719 2.035156 9.722656 2.035156 9.996094 2.308594 9.996094 2.644531zM8.941406 5.085938C8.941406 5.421875 8.667969 5.695312 8.332031 5.695312 7.996094 5.695312 7.722656 5.421875 7.722656 5.085938 7.722656 4.746094 7.996094 4.472656 8.332031 4.472656 8.667969 4.472656 8.941406 4.746094 8.941406 5.085938zM6.09375 5.898438C6.09375 6.234375 5.820312 6.507812 5.484375 6.507812 5.148438 6.507812 4.875 6.234375 4.875 5.898438 4.875 5.5625 5.148438 5.289062 5.484375 5.289062 5.820312 5.289062 6.09375 5.5625 6.09375 5.898438zM7.960938 8.339844C7.960938 8.675781 7.6875 8.949219 7.351562 8.949219 7.015625 8.949219 6.742188 8.675781 6.742188 8.339844 6.742188 8.003906 7.015625 7.730469 7.351562 7.730469 7.6875 7.730469 7.960938 8.003906 7.960938 8.339844zM4.300781 10.78125C4.300781 11.117188 4.027344 11.390625 3.691406 11.390625 3.351562 11.390625 3.078125 11.117188 3.078125 10.78125 3.078125 10.441406 3.351562 10.167969 3.691406 10.167969 4.027344 10.167969 4.300781 10.441406 4.300781 10.78125zM5.519531 8.746094C5.519531 9.082031 5.246094 9.355469 4.910156 9.355469 4.574219 9.355469 4.300781 9.082031 4.300781 8.746094 4.300781 8.410156 4.574219 8.136719 4.910156 8.136719 5.246094 8.136719 5.519531 8.410156 5.519531 8.746094zM4.300781 13.21875C4.300781 13.558594 4.027344 13.832031 3.691406 13.832031 3.351562 13.832031 3.078125 13.558594 3.078125 13.21875 3.078125 12.882812 3.351562 12.609375 3.691406 12.609375 4.027344 12.609375 4.300781 12.882812 4.300781 13.21875zM7.554688 12C7.554688 12.335938 7.28125 12.609375 6.945312 12.609375 6.605469 12.609375 6.332031 12.335938 6.332031 12 6.332031 11.664062 6.605469 11.390625 6.945312 11.390625 7.28125 11.390625 7.554688 11.664062 7.554688 12zM20.976562 11.59375C20.976562 11.929688 20.703125 12.203125 20.367188 12.203125 20.03125 12.203125 19.757812 11.929688 19.757812 11.59375 19.757812 11.257812 20.03125 10.984375 20.367188 10.984375 20.703125 10.984375 20.976562 11.257812 20.976562 11.59375zM18.128906 12C18.128906 12.335938 17.855469 12.609375 17.519531 12.609375 17.183594 12.609375 16.910156 12.335938 16.910156 12 16.910156 11.664062 17.183594 11.390625 17.519531 11.390625 17.855469 11.390625 18.128906 11.664062 18.128906 12zM17.722656 7.117188C17.722656 7.457031 17.449219 7.730469 17.113281 7.730469 16.777344 7.730469 16.503906 7.457031 16.503906 7.117188 16.503906 6.78125 16.777344 6.507812 17.113281 6.507812 17.449219 6.507812 17.722656 6.78125 17.722656 7.117188zM20.570312 14.847656C20.570312 15.183594 20.296875 15.457031 19.960938 15.457031 19.625 15.457031 19.351562 15.183594 19.351562 14.847656 19.351562 14.511719 19.625 14.238281 19.960938 14.238281 20.296875 14.238281 20.570312 14.511719 20.570312 14.847656zM19.351562 16.472656C19.351562 16.8125 19.078125 17.085938 18.742188 17.085938 18.402344 17.085938 18.128906 16.8125 18.128906 16.472656 18.128906 16.136719 18.402344 15.863281 18.742188 15.863281 19.078125 15.863281 19.351562 16.136719 19.351562 16.472656zM16.910156 16.882812C16.910156 17.21875 16.636719 17.492188 16.300781 17.492188 15.964844 17.492188 15.691406 17.21875 15.691406 16.882812 15.691406 16.542969 15.964844 16.269531 16.300781 16.269531 16.636719 16.269531 16.910156 16.542969 16.910156 16.882812zM8.367188 16.472656C8.367188 16.8125 8.09375 17.085938 7.757812 17.085938 7.421875 17.085938 7.148438 16.8125 7.148438 16.472656 7.148438 16.136719 7.421875 15.863281 7.757812 15.863281 8.09375 15.863281 8.367188 16.136719 8.367188 16.472656zM5.519531 16.066406C5.519531 16.40625 5.246094 16.679688 4.910156 16.679688 4.574219 16.679688 4.300781 16.40625 4.300781 16.066406 4.300781 15.730469 4.574219 15.457031 4.910156 15.457031 5.246094 15.457031 5.519531 15.730469 5.519531 16.066406zM15.449219 19.933594L9.347656 19.933594C9.125 19.933594 8.941406 20.113281 8.941406 20.339844 8.941406 20.5625 9.125 20.746094 9.347656 20.746094L15.449219 20.746094C15.675781 20.746094 15.859375 20.5625 15.859375 20.339844 15.859375 20.113281 15.675781 19.933594 15.449219 19.933594zM15.042969 21.558594L9.753906 21.558594C9.53125 21.558594 9.347656 21.742188 9.347656 21.964844 9.347656 22.191406 9.53125 22.371094 9.753906 22.371094L15.042969 22.371094C15.269531 22.371094 15.449219 22.191406 15.449219 21.964844 15.449219 21.742188 15.269531 21.558594 15.042969 21.558594zM15.042969 21.558594"/>
</svg>
