<svg xmlns="http://www.w3.org/2000/svg" width="32" height="32" viewBox="0 0 24 24">
    <path d="M23.586 11.586H20.69l1.985-2.649a.412.412 0 0 0-.082-.578.412.412 0 0 0-.578.082l-2.36 3.145H15.88a3.926 3.926 0 0 0-.922-1.961l2.75-2.746 3.89.555c.02.003.04.007.06.007a.414.414 0 0 0 .059-.824l-3.279-.469 2.047-2.046a.41.41 0 0 0 0-.586.406.406 0 0 0-.582 0l-2.05 2.046-.47-3.277a.414.414 0 0 0-.468-.351.414.414 0 0 0-.348.468l.555 3.895-2.77 2.766a3.922 3.922 0 0 0-1.937-.766v-3.54l3.145-2.359a.412.412 0 0 0 .082-.578.412.412 0 0 0-.579-.082l-2.648 1.985V.414A.412.412 0 0 0 12 0a.412.412 0 0 0-.414.414v3.309L8.937 1.738a.412.412 0 0 0-.578.082.412.412 0 0 0 .082.578l3.145 2.36v3.539a3.92 3.92 0 0 0-1.79.656L7.173 6.328l.558-3.89a.414.414 0 0 0-.82-.118l-.469 3.278-2.34-2.344a.417.417 0 0 0-.585 0 .41.41 0 0 0 0 .586l2.34 2.34-3.278.468a.417.417 0 0 0-.351.47.415.415 0 0 0 .41.355c.02 0 .039 0 .058-.004l3.89-.555 2.58 2.578a3.927 3.927 0 0 0-1.044 2.094H4.758L2.398 8.44a.412.412 0 0 0-.578-.082.412.412 0 0 0-.082.579l1.985 2.648H.414a.414.414 0 0 0 0 .828h3.309l-1.985 2.649a.412.412 0 0 0 .332.66.4.4 0 0 0 .328-.164l2.36-3.145h3.32c.043.805.328 1.547.785 2.156-.015.012-.035.02-.05.035l-2.227 2.223-3.89-.555a.415.415 0 0 0-.47.348.414.414 0 0 0 .352.469l3.277.469-2.34 2.34a.41.41 0 0 0 0 .585.404.404 0 0 0 .294.121.41.41 0 0 0 .293-.12l2.34-2.34.468 3.277a.409.409 0 0 0 .406.355c.02 0 .04 0 .063-.004a.412.412 0 0 0 .348-.468l-.555-3.89 2.223-2.227c.011-.008.011-.02.02-.028a3.94 3.94 0 0 0 2.17.957v3.54l-3.144 2.359a.412.412 0 0 0 .25.742.414.414 0 0 0 .246-.082l2.649-1.985v2.895c0 .23.184.414.414.414.23 0 .414-.184.414-.414V20.69l2.649 1.985a.414.414 0 0 0 .496-.66l-3.145-2.36v-3.539a3.922 3.922 0 0 0 2.379-1.148l2.336 2.406-.567 3.96a.414.414 0 0 0 .82.118l.477-3.328 2.036 2.098a.424.424 0 0 0 .296.125.414.414 0 0 0 .297-.703l-2-2.06 3.227-.46a.417.417 0 0 0 .351-.469.412.412 0 0 0-.468-.351l-3.825.547-2.46-2.536c.355-.554.57-1.207.609-1.902h3.734l2.36 3.145a.417.417 0 0 0 .578.082.412.412 0 0 0 .082-.579l-1.985-2.648h2.895a.414.414 0 0 0 0-.828zM12 15.309a3.104 3.104 0 0 1 0-6.207 3.104 3.104 0 0 1 0 6.207zm0 0"/>
</svg>
