<svg xmlns="http://www.w3.org/2000/svg" width="32" height="32" viewBox="0 0 24 24">
    <path d="M 23.804688 5.519531 C 23.609375 5.398438 23.355469 5.460938 23.234375 5.65625 L 20.164062 10.648438 C 19.855469 11.148438 19.378906 11.515625 18.820312 11.683594 L 15.113281 12.75 C 15.039062 12.578125 14.941406 12.417969 14.828125 12.265625 L 18.25 9.757812 C 19.003906 9.226562 19.453125 8.355469 19.453125 7.433594 L 19.453125 0.425781 C 19.453125 0.195312 19.269531 0.0117188 19.039062 0.0117188 C 18.8125 0.0117188 18.625 0.195312 18.625 0.425781 L 18.625 7.433594 C 18.625 8.089844 18.308594 8.707031 17.765625 9.089844 L 14.25 11.667969 L 14.246094 11.667969 C 14.058594 11.519531 13.855469 11.386719 13.632812 11.28125 C 15.171875 10.394531 16.257812 8.304688 16.257812 5.871094 C 16.257812 2.640625 14.34375 0.0117188 11.988281 0.0117188 C 9.632812 0.0117188 7.714844 2.640625 7.714844 5.871094 C 7.714844 8.304688 8.800781 10.394531 10.34375 11.28125 C 10.125 11.386719 9.925781 11.511719 9.738281 11.65625 L 6.226562 9.085938 C 5.691406 8.707031 5.375 8.089844 5.375 7.433594 L 5.375 0.425781 C 5.375 0.195312 5.1875 0.0117188 4.960938 0.0117188 C 4.730469 0.0117188 4.546875 0.195312 4.546875 0.425781 L 4.546875 7.433594 C 4.546875 8.355469 4.996094 9.226562 5.746094 9.753906 L 9.15625 12.253906 C 9.039062 12.40625 8.941406 12.570312 8.863281 12.742188 L 5.183594 11.683594 C 4.625 11.515625 4.144531 11.148438 3.839844 10.648438 L 0.765625 5.65625 C 0.644531 5.460938 0.390625 5.398438 0.195312 5.519531 C 0.00390625 5.640625 -0.0585938 5.894531 0.0625 6.089844 L 3.132812 11.082031 C 3.546875 11.753906 4.191406 12.25 4.953125 12.476562 L 8.640625 13.539062 C 8.628906 13.628906 8.625 13.722656 8.625 13.816406 C 8.625 13.949219 8.636719 14.078125 8.65625 14.207031 L 5.152344 15.570312 C 4.507812 15.855469 4.070312 16.472656 4.011719 17.175781 L 3.632812 21.726562 C 3.613281 21.953125 3.78125 22.152344 4.011719 22.171875 C 4.023438 22.171875 4.035156 22.171875 4.046875 22.171875 C 4.257812 22.171875 4.4375 22.007812 4.457031 21.792969 L 4.835938 17.242188 C 4.871094 16.839844 5.121094 16.488281 5.46875 16.332031 L 8.914062 14.992188 C 9.039062 15.234375 9.195312 15.457031 9.386719 15.65625 L 8.128906 16.851562 L 8.09375 16.886719 C 7.261719 17.886719 7.125 19.269531 7.75 20.410156 L 9.582031 23.773438 C 9.65625 23.910156 9.800781 23.988281 9.945312 23.988281 C 10.011719 23.988281 10.082031 23.972656 10.144531 23.9375 C 10.34375 23.828125 10.417969 23.578125 10.308594 23.375 L 8.476562 20.015625 C 8.019531 19.179688 8.113281 18.171875 8.714844 17.4375 L 10.035156 16.179688 C 10.054688 16.191406 10.070312 16.203125 10.089844 16.214844 C 10.023438 16.394531 9.984375 16.578125 9.984375 16.765625 C 9.984375 17.109375 10.101562 17.425781 10.292969 17.699219 C 10.066406 18.011719 9.933594 18.402344 9.933594 18.820312 C 9.933594 19.332031 10.125 19.816406 10.457031 20.148438 C 10.535156 20.226562 10.640625 20.269531 10.746094 20.269531 C 10.851562 20.269531 10.960938 20.226562 11.039062 20.148438 C 11.203125 19.984375 11.203125 19.722656 11.039062 19.5625 C 10.863281 19.386719 10.761719 19.113281 10.761719 18.820312 C 10.761719 18.613281 10.816406 18.417969 10.90625 18.257812 C 11.21875 18.433594 11.589844 18.542969 11.988281 18.542969 C 12.386719 18.542969 12.753906 18.433594 13.066406 18.257812 C 13.160156 18.417969 13.214844 18.613281 13.214844 18.820312 C 13.214844 19.113281 13.113281 19.386719 12.9375 19.5625 C 12.773438 19.722656 12.773438 19.984375 12.9375 20.148438 C 13.015625 20.226562 13.121094 20.269531 13.226562 20.269531 C 13.332031 20.269531 13.441406 20.226562 13.519531 20.148438 C 13.851562 19.816406 14.039062 19.332031 14.039062 18.820312 C 14.039062 18.402344 13.910156 18.011719 13.683594 17.699219 C 13.875 17.425781 13.988281 17.109375 13.988281 16.765625 C 13.988281 16.578125 13.953125 16.394531 13.886719 16.214844 C 13.910156 16.203125 13.929688 16.1875 13.953125 16.171875 L 15.285156 17.433594 C 15.886719 18.171875 15.980469 19.179688 15.523438 20.015625 L 13.691406 23.375 C 13.582031 23.578125 13.65625 23.828125 13.855469 23.9375 C 13.917969 23.972656 13.988281 23.988281 14.054688 23.988281 C 14.199219 23.988281 14.34375 23.910156 14.417969 23.773438 L 16.25 20.410156 C 16.871094 19.269531 16.738281 17.886719 15.90625 16.886719 L 14.601562 15.644531 C 14.789062 15.445312 14.945312 15.222656 15.066406 14.984375 L 18.511719 16.324219 C 18.878906 16.488281 19.132812 16.839844 19.164062 17.242188 L 19.542969 21.792969 C 19.5625 22.007812 19.742188 22.171875 19.957031 22.171875 C 19.964844 22.171875 19.976562 22.171875 19.988281 22.171875 C 20.21875 22.152344 20.386719 21.953125 20.367188 21.726562 L 19.988281 17.175781 C 19.929688 16.472656 19.492188 15.855469 18.832031 15.5625 L 15.320312 14.199219 C 15.339844 14.074219 15.351562 13.945312 15.351562 13.816406 C 15.351562 13.726562 15.347656 13.636719 15.335938 13.546875 L 19.054688 12.476562 C 19.808594 12.25 20.453125 11.753906 20.867188 11.082031 L 23.941406 6.089844 C 24.058594 5.894531 23.996094 5.640625 23.804688 5.519531 Z M 8.542969 5.871094 C 8.542969 3.097656 10.089844 0.839844 11.988281 0.839844 C 13.886719 0.839844 15.433594 3.097656 15.433594 5.871094 C 15.433594 8.648438 13.886719 10.90625 11.988281 10.90625 C 10.089844 10.90625 8.542969 8.648438 8.542969 5.871094 Z M 11.988281 11.734375 C 13.386719 11.734375 14.523438 12.667969 14.523438 13.816406 C 14.523438 14.59375 14.003906 15.269531 13.234375 15.628906 L 13.164062 15.660156 C 13.070312 15.699219 12.976562 15.734375 12.882812 15.761719 C 12.878906 15.761719 12.878906 15.761719 12.875 15.765625 C 12.785156 15.792969 12.691406 15.816406 12.597656 15.835938 C 12.59375 15.835938 12.585938 15.839844 12.578125 15.839844 C 12.484375 15.859375 12.386719 15.875 12.289062 15.882812 C 12.089844 15.902344 11.886719 15.902344 11.6875 15.882812 C 11.683594 15.882812 11.683594 15.882812 11.683594 15.882812 C 11.585938 15.875 11.492188 15.859375 11.394531 15.839844 C 11.386719 15.839844 11.382812 15.835938 11.375 15.835938 C 11.28125 15.816406 11.191406 15.792969 11.097656 15.765625 C 11.097656 15.761719 11.09375 15.761719 11.089844 15.761719 C 10.996094 15.734375 10.902344 15.699219 10.8125 15.660156 L 10.742188 15.628906 C 9.972656 15.269531 9.449219 14.59375 9.449219 13.816406 C 9.449219 12.667969 10.589844 11.734375 11.988281 11.734375 Z M 13.132812 16.550781 C 13.152344 16.621094 13.164062 16.691406 13.164062 16.765625 C 13.164062 17.289062 12.636719 17.714844 11.988281 17.714844 C 11.339844 17.714844 10.8125 17.289062 10.8125 16.765625 C 10.8125 16.691406 10.824219 16.621094 10.84375 16.550781 C 10.855469 16.554688 10.867188 16.554688 10.878906 16.558594 C 11.042969 16.609375 11.210938 16.648438 11.386719 16.675781 C 11.40625 16.679688 11.425781 16.679688 11.449219 16.683594 C 11.625 16.707031 11.804688 16.726562 11.988281 16.726562 C 12.171875 16.726562 12.351562 16.707031 12.527344 16.683594 C 12.550781 16.679688 12.570312 16.679688 12.589844 16.675781 C 12.765625 16.648438 12.933594 16.609375 13.097656 16.558594 C 13.109375 16.554688 13.121094 16.554688 13.132812 16.550781 Z M 13.132812 16.550781"/>
    <path d="M10.335938 4.21875L13.640625 4.21875C13.871094 4.21875 14.054688 4.035156 14.054688 3.804688 14.054688 3.578125 13.871094 3.390625 13.640625 3.390625L10.335938 3.390625C10.105469 3.390625 9.921875 3.578125 9.921875 3.804688 9.921875 4.035156 10.105469 4.21875 10.335938 4.21875zM14.882812 5.460938C14.882812 5.230469 14.695312 5.046875 14.46875 5.046875L9.507812 5.046875C9.28125 5.046875 9.09375 5.230469 9.09375 5.460938 9.09375 5.6875 9.28125 5.871094 9.507812 5.871094L14.46875 5.871094C14.695312 5.871094 14.882812 5.6875 14.882812 5.460938zM11.574219 2.566406L12.402344 2.566406C12.628906 2.566406 12.816406 2.378906 12.816406 2.152344 12.816406 1.921875 12.628906 1.738281 12.402344 1.738281L11.574219 1.738281C11.347656 1.738281 11.160156 1.921875 11.160156 2.152344 11.160156 2.378906 11.347656 2.566406 11.574219 2.566406zM11.574219 2.566406"/>
</svg>
