<svg xmlns="http://www.w3.org/2000/svg" width="32" height="32" viewBox="0 0 24 24">
    <path d="M10.41 13.82h.012c.14 0 .27-.066.344-.183.136-.207.242-.446.324-.692.004 0 .004-.004.004-.004v-.007c.215-.637.254-1.375.113-2.141l-.035-.184a8.636 8.636 0 0 0-.074-.304 11.88 11.88 0 0 0-.168-.516 5.613 5.613 0 0 0-.566-1.125V8.66c-.837-1.285-2.087-2.11-3.27-2.11h-.012a.42.42 0 0 0-.344.184c-.73 1.102-.707 2.817.063 4.375.8 1.625 2.25 2.711 3.61 2.711zm-.543-4.36c.031.056.067.11.094.169.066.133.125.27.18.406.015.043.027.082.043.125.03.082.058.168.082.25a.396.396 0 0 0-.211-.066.413.413 0 0 0-.41.414c0 .23.183.414.41.414a.412.412 0 0 0 .347-.2c.004.012.004.024.008.036a3.835 3.835 0 0 1 .05.61c.005.034.005.07.005.105a7.357 7.357 0 0 1-.016.293c0 .004 0 .007-.004.011a2.6 2.6 0 0 1-.043.305 1.634 1.634 0 0 1-1.172-1.574c0-.512.243-.988.637-1.297zM7.312 7.39c.731.09 1.508.606 2.11 1.376a2.486 2.486 0 0 0-1.02 1.992c0 .785.36 1.476.93 1.93-.695-.376-1.355-1.067-1.789-1.946-.586-1.18-.668-2.492-.23-3.351zm0 0M17.898 16.898c.2-.367.309-.761.309-1.175a.414.414 0 0 0-.828 0c0 .191-.035.375-.106.554l-.53-.53a.406.406 0 0 0-.583 0 .406.406 0 0 0 0 .581l.656.656c-.363.391-.878.73-1.503 1l-.473-.812a.411.411 0 0 0-.563-.152.416.416 0 0 0-.152.566l.395.684a8.856 8.856 0 0 1-2.106.34v-.817a.414.414 0 0 0-.828 0v.816a8.856 8.856 0 0 1-2.106-.34l.395-.683a.416.416 0 0 0-.152-.566.414.414 0 0 0-.563.152l-.469.812c-.629-.27-1.144-.609-1.507-1l.656-.652a.41.41 0 0 0 0-.586.406.406 0 0 0-.582 0l-.531.531a1.505 1.505 0 0 1-.106-.554.414.414 0 0 0-.828 0c0 .414.11.808.309 1.175L5.5 17.5a.417.417 0 0 0 0 .586.41.41 0 0 0 .293.121.41.41 0 0 0 .293-.121l.508-.508c.422.445.992.832 1.676 1.137l-.352.61a.411.411 0 0 0 .355.616.41.41 0 0 0 .36-.207l.418-.718a9.743 9.743 0 0 0 2.535.422v.84a.414.414 0 0 0 .828 0v-.84a9.771 9.771 0 0 0 2.535-.422l.418.722a.408.408 0 0 0 .563.149.411.411 0 0 0 .152-.563l-.352-.61c.684-.304 1.254-.69 1.672-1.136l.512.508a.41.41 0 0 0 .293.121.41.41 0 0 0 .293-.121.417.417 0 0 0 0-.586zm0 0M12.488 10.305a8.64 8.64 0 0 0-.074.304l-.035.184c-.137.766-.102 1.504.113 2.14v.008l.004.004c.082.246.188.485.324.692a.411.411 0 0 0 .344.183h.012c1.36 0 2.808-1.086 3.61-2.71.769-1.555.792-3.274.062-4.376a.41.41 0 0 0-.344-.183h-.012c-1.18 0-2.433.824-3.265 2.11l-.004.003c-.121.191-.239.39-.34.598-.086.175-.16.351-.227.531-.027.074-.05.148-.078.223a11.88 11.88 0 0 0-.09.289zm.961-.27c.051-.137.11-.273.176-.406.027-.059.063-.113.094-.168.394.309.636.785.636 1.297 0 .742-.484 1.37-1.171 1.574-.02-.098-.036-.2-.043-.305 0-.004-.004-.007-.004-.011-.008-.098-.012-.196-.016-.293 0-.036.004-.07.004-.102 0-.086 0-.168.008-.25.008-.121.023-.242.043-.363a.114.114 0 0 0 .008-.035c.074.117.199.199.347.199a.414.414 0 0 0 0-.828.396.396 0 0 0-.21.066 3.11 3.11 0 0 1 .081-.25c.016-.043.028-.082.047-.125zm2.824-2.644c.438.859.356 2.171-.23 3.351-.434.88-1.094 1.57-1.79 1.945.571-.453.93-1.144.93-1.93 0-.792-.39-1.527-1.019-1.991.602-.77 1.379-1.286 2.11-1.375zm0 0"/>
    <path d="M22.129 6.23a2.906 2.906 0 0 0 1.457-2.52V1.646a.839.839 0 0 0-.84-.84h-2.07a2.887 2.887 0 0 0-2.406 1.277C16.332.722 14.176 0 12 0 9.926 0 7.86.664 5.988 1.906A2.903 2.903 0 0 0 3.711.805H1.645a.839.839 0 0 0-.84.84V3.71c0 .957.465 1.805 1.18 2.336C.706 8.074 0 10.32 0 12.414 0 18.477 5.719 24 12 24s12-5.523 12-11.586c0-2.027-.668-4.207-1.871-6.184zm-1.453-4.597l2.082.012V3.71c0 .863-.524 1.602-1.27 1.918h-.004c-.07.031-.148.05-.226.07-.067.02-.13.043-.195.055-.125.023-.254.039-.383.039h-.004a2.083 2.083 0 0 1-2.078-2.082c0-.125.015-.25.035-.371.004-.016.004-.035.008-.055.023-.105.058-.207.093-.308.016-.032.028-.067.043-.102a2.06 2.06 0 0 1 1.898-1.242zM1.633 3.71l.012-2.078H3.71c.84 0 1.559.5 1.887 1.215.011.023.027.047.035.074.043.101.078.215.101.324l.024.102c.02.117.035.238.035.363a2.084 2.084 0 0 1-2.082 2.082c-.129 0-.254-.016-.379-.04l-.062-.01a1.602 1.602 0 0 1-.336-.106 2.08 2.08 0 0 1-1.3-1.926zM12 23.17c-5.273 0-11.172-4.6-11.172-10.757 0-1.957.664-4.062 1.879-5.973.008.004.02.004.027.008.145.051.293.094.45.121.015.004.035.004.05.008.157.027.317.043.477.043a2.913 2.913 0 0 0 2.894-3.195 3.16 3.16 0 0 0-.03-.203c-.005-.024-.005-.051-.009-.075a4.382 4.382 0 0 0-.062-.242c-.004-.011-.004-.02-.008-.031-.023-.082-.055-.16-.086-.238 0-.008-.004-.016-.008-.024C8.148 1.445 10.074.828 12 .828c2.047 0 4.082.692 5.906 2-.039.133-.07.27-.093.406l-.012.07a2.878 2.878 0 0 0 .2 1.54 2.913 2.913 0 0 0 3.003 1.758c.02-.004.039-.008.058-.008.094-.016.188-.032.278-.051.008-.004.012-.004.02-.004 1.171 1.883 1.812 3.957 1.812 5.875 0 6.156-5.899 10.758-11.172 10.758zm0 0"/>
</svg>
