<svg xmlns="http://www.w3.org/2000/svg" width="32" height="32" viewBox="0 0 24 24">
    <path d="M 20.351562 10.007812 C 20.140625 9.808594 19.835938 9.761719 19.574219 9.886719 C 16.570312 11.335938 14.613281 14.148438 13.59375 15.988281 L 13.59375 12.183594 C 17.742188 11.117188 18.265625 6.832031 18.296875 5.035156 C 18.308594 4.203125 18.132812 3.429688 17.765625 2.734375 C 17.300781 1.863281 16.6875 1.335938 15.945312 1.171875 C 14.9375 0.949219 14.042969 1.484375 13.789062 1.660156 C 13.347656 0.660156 12.738281 0 11.964844 0 C 11.160156 0 10.527344 0.722656 10.085938 1.796875 C 9.742188 1.585938 8.929688 1.175781 8.027344 1.375 C 7.285156 1.539062 6.675781 2.066406 6.210938 2.9375 C 5.84375 3.632812 5.664062 4.40625 5.679688 5.238281 C 5.710938 7.027344 6.230469 11.289062 10.339844 12.375 L 10.339844 15.867188 C 9.300781 14.027344 7.367188 11.304688 4.425781 9.886719 C 4.164062 9.761719 3.859375 9.808594 3.648438 10.007812 C 3.4375 10.203125 3.367188 10.503906 3.472656 10.773438 C 4.21875 12.660156 6.839844 19.089844 9.21875 22.539062 C 9.851562 23.453125 10.890625 24 12 24 C 13.109375 24 14.148438 23.453125 14.78125 22.539062 C 17.160156 19.09375 19.78125 12.664062 20.527344 10.773438 C 20.632812 10.503906 20.566406 10.203125 20.351562 10.007812 Z M 13.777344 17.410156 C 14.351562 16.1875 15.804688 13.519531 18.21875 11.683594 C 16.675781 13.746094 15.113281 16.746094 13.59375 19.671875 L 13.59375 17.707031 C 13.667969 17.613281 13.726562 17.515625 13.777344 17.410156 Z M 11.152344 17.332031 L 11.152344 12.445312 C 11.3125 12.527344 11.460938 12.570312 11.59375 12.59375 L 11.59375 22.058594 C 11.445312 21.785156 11.300781 21.507812 11.152344 21.226562 Z M 12.40625 21.929688 L 12.40625 12.523438 C 12.535156 12.480469 12.660156 12.417969 12.78125 12.332031 L 12.78125 21.226562 C 12.652344 21.464844 12.53125 21.699219 12.40625 21.929688 Z M 14.335938 2.273438 C 14.585938 2.121094 15.171875 1.832031 15.777344 1.96875 C 16.273438 2.078125 16.699219 2.464844 17.046875 3.117188 C 17.347656 3.6875 17.492188 4.328125 17.480469 5.019531 C 17.449219 6.964844 16.898438 10.316406 13.667969 11.320312 C 14.410156 10.152344 14.855469 8.308594 14.855469 6.304688 C 14.855469 4.957031 14.65625 3.679688 14.285156 2.601562 Z M 11.964844 0.8125 C 12.730469 0.8125 13.796875 2.902344 13.796875 6.304688 C 13.796875 7.507812 13.660156 8.542969 13.453125 9.386719 L 12.816406 10.730469 C 12.527344 11.34375 12.191406 11.71875 11.882812 11.78125 C 11.128906 11.640625 10.136719 9.589844 10.136719 6.304688 C 10.136719 2.902344 11.199219 0.8125 11.964844 0.8125 Z M 6.492188 5.226562 C 6.480469 4.53125 6.625 3.890625 6.929688 3.320312 C 7.273438 2.667969 7.699219 2.28125 8.199219 2.171875 C 8.800781 2.035156 9.386719 2.328125 9.636719 2.476562 L 9.691406 2.804688 C 9.316406 3.882812 9.117188 5.160156 9.117188 6.507812 C 9.117188 8.511719 9.5625 10.355469 10.308594 11.523438 C 7.074219 10.519531 6.527344 7.167969 6.492188 5.226562 Z M 10.222656 17.410156 C 10.253906 17.480469 10.292969 17.546875 10.339844 17.613281 L 10.339844 19.671875 C 8.789062 16.691406 7.195312 13.628906 5.625 11.5625 C 8.132812 13.402344 9.636719 16.164062 10.222656 17.410156 Z M 9.890625 22.078125 C 7.953125 19.273438 5.839844 14.414062 4.753906 11.777344 C 6.367188 13.800781 8.078125 17.089844 9.617188 20.046875 C 9.863281 20.519531 10.101562 20.976562 10.339844 21.425781 L 10.339844 22.578125 C 10.171875 22.433594 10.019531 22.269531 9.890625 22.078125 Z M 14.109375 22.078125 C 13.964844 22.292969 13.789062 22.480469 13.59375 22.636719 L 13.59375 21.425781 C 13.828125 20.976562 14.070312 20.519531 14.3125 20.046875 C 15.898438 17.003906 17.664062 13.609375 19.316406 11.601562 C 18.257812 14.191406 16.089844 19.210938 14.109375 22.078125 Z M 14.109375 22.078125"/>
</svg>
