<svg xmlns="http://www.w3.org/2000/svg" width="32" height="32" viewBox="0 0 24 24">
    <path d="M 16.96875 0 L 7.03125 0 L 0 7.03125 L 0 16.96875 L 7.03125 24 L 16.96875 24 L 24 16.96875 L 24 7.03125 Z M 23.109375 16.601562 L 16.601562 23.109375 L 7.398438 23.109375 L 0.890625 16.601562 L 0.890625 7.398438 L 7.398438 0.890625 L 16.601562 0.890625 L 23.109375 7.398438 Z M 23.109375 16.601562"/>
    <path d="M10.675781 4.445312C10.429688 4.445312 10.230469 4.644531 10.230469 4.890625 10.230469 5.132812 10.429688 5.332031 10.675781 5.332031L13.34375 5.332031C13.589844 5.332031 13.789062 5.132812 13.789062 4.890625 13.789062 4.644531 13.589844 4.445312 13.34375 4.445312zM14.675781 3.554688C14.675781 3.308594 14.476562 3.109375 14.230469 3.109375L9.789062 3.109375C9.542969 3.109375 9.34375 3.308594 9.34375 3.554688 9.34375 3.800781 9.542969 4 9.789062 4L14.230469 4C14.476562 4 14.675781 3.800781 14.675781 3.554688zM8.898438 2.667969L15.121094 2.667969C15.367188 2.667969 15.566406 2.46875 15.566406 2.222656 15.566406 1.976562 15.367188 1.777344 15.121094 1.777344L8.898438 1.777344C8.652344 1.777344 8.453125 1.976562 8.453125 2.222656 8.453125 2.46875 8.652344 2.667969 8.898438 2.667969zM13.34375 19.554688C13.589844 19.554688 13.789062 19.355469 13.789062 19.109375 13.789062 18.867188 13.589844 18.667969 13.34375 18.667969L10.675781 18.667969C10.429688 18.667969 10.230469 18.867188 10.230469 19.109375 10.230469 19.355469 10.429688 19.554688 10.675781 19.554688zM9.34375 20.445312C9.34375 20.691406 9.542969 20.890625 9.789062 20.890625L14.230469 20.890625C14.476562 20.890625 14.675781 20.691406 14.675781 20.445312 14.675781 20.199219 14.476562 20 14.230469 20L9.789062 20C9.542969 20 9.34375 20.199219 9.34375 20.445312zM15.121094 21.332031L8.898438 21.332031C8.652344 21.332031 8.453125 21.53125 8.453125 21.777344 8.453125 22.023438 8.652344 22.222656 8.898438 22.222656L15.121094 22.222656C15.367188 22.222656 15.566406 22.023438 15.566406 21.777344 15.566406 21.53125 15.367188 21.332031 15.121094 21.332031zM19.121094 10.222656C18.875 10.222656 18.675781 10.421875 18.675781 10.667969L18.675781 13.332031C18.675781 13.578125 18.875 13.777344 19.121094 13.777344 19.367188 13.777344 19.566406 13.578125 19.566406 13.332031L19.566406 10.667969C19.566406 10.421875 19.367188 10.222656 19.121094 10.222656zM20.898438 14.222656L20.898438 9.777344C20.898438 9.53125 20.699219 9.332031 20.453125 9.332031 20.207031 9.332031 20.007812 9.53125 20.007812 9.777344L20.007812 14.222656C20.007812 14.46875 20.207031 14.667969 20.453125 14.667969 20.699219 14.667969 20.898438 14.46875 20.898438 14.222656zM21.34375 8.890625L21.34375 15.109375C21.34375 15.355469 21.542969 15.554688 21.789062 15.554688 22.03125 15.554688 22.230469 15.355469 22.230469 15.109375L22.230469 8.890625C22.230469 8.644531 22.03125 8.445312 21.789062 8.445312 21.542969 8.445312 21.34375 8.644531 21.34375 8.890625zM4.453125 10.667969L4.453125 13.332031C4.453125 13.578125 4.652344 13.777344 4.898438 13.777344 5.144531 13.777344 5.34375 13.578125 5.34375 13.332031L5.34375 10.667969C5.34375 10.421875 5.144531 10.222656 4.898438 10.222656 4.652344 10.222656 4.453125 10.421875 4.453125 10.667969zM3.121094 9.777344L3.121094 14.222656C3.121094 14.46875 3.320312 14.667969 3.566406 14.667969 3.8125 14.667969 4.007812 14.46875 4.007812 14.222656L4.007812 9.777344C4.007812 9.53125 3.8125 9.332031 3.566406 9.332031 3.320312 9.332031 3.121094 9.53125 3.121094 9.777344zM2.675781 15.109375L2.675781 8.890625C2.675781 8.644531 2.476562 8.445312 2.230469 8.445312 1.984375 8.445312 1.789062 8.644531 1.789062 8.890625L1.789062 15.109375C1.789062 15.355469 1.984375 15.554688 2.230469 15.554688 2.476562 15.554688 2.675781 15.355469 2.675781 15.109375zM17.664062 8.230469C17.753906 8.316406 17.867188 8.359375 17.980469 8.359375 18.09375 8.359375 18.207031 8.316406 18.292969 8.230469 18.46875 8.054688 18.46875 7.773438 18.292969 7.601562L16.410156 5.714844C16.234375 5.542969 15.953125 5.542969 15.78125 5.714844 15.605469 5.890625 15.605469 6.167969 15.78125 6.34375zM19.238281 7.914062C19.324219 8 19.4375 8.042969 19.550781 8.042969 19.664062 8.042969 19.777344 8 19.867188 7.914062 20.039062 7.742188 20.039062 7.460938 19.867188 7.285156L16.722656 4.144531C16.550781 3.96875 16.269531 3.96875 16.09375 4.144531 15.921875 4.316406 15.921875 4.597656 16.09375 4.773438zM16.410156 3.199219L20.808594 7.601562C20.894531 7.6875 21.007812 7.730469 21.121094 7.730469 21.238281 7.730469 21.351562 7.6875 21.4375 7.601562 21.609375 7.425781 21.609375 7.144531 21.4375 6.972656L17.039062 2.570312C16.863281 2.398438 16.582031 2.398438 16.410156 2.570312 16.234375 2.746094 16.234375 3.027344 16.410156 3.199219zM6.351562 15.769531C6.179688 15.597656 5.898438 15.597656 5.722656 15.769531 5.550781 15.945312 5.550781 16.226562 5.722656 16.398438L7.609375 18.285156C7.695312 18.371094 7.808594 18.414062 7.921875 18.414062 8.039062 18.414062 8.152344 18.371094 8.238281 18.285156 8.410156 18.109375 8.410156 17.832031 8.238281 17.65625zM4.78125 16.085938C4.605469 15.910156 4.328125 15.910156 4.152344 16.085938 3.980469 16.257812 3.980469 16.539062 4.152344 16.714844L7.296875 19.855469C7.382812 19.941406 7.496094 19.988281 7.609375 19.988281 7.722656 19.988281 7.835938 19.941406 7.921875 19.855469 8.097656 19.683594 8.097656 19.402344 7.921875 19.226562zM3.210938 16.398438C3.035156 16.226562 2.753906 16.226562 2.582031 16.398438 2.40625 16.574219 2.40625 16.855469 2.582031 17.027344L6.980469 21.425781C7.066406 21.515625 7.179688 21.558594 7.296875 21.558594 7.410156 21.558594 7.523438 21.515625 7.609375 21.425781 7.78125 21.253906 7.78125 20.972656 7.609375 20.800781zM16.738281 18.394531L18.625 16.511719C18.796875 16.335938 18.796875 16.054688 18.625 15.882812 18.449219 15.707031 18.167969 15.707031 17.996094 15.882812L16.109375 17.765625C15.9375 17.941406 15.9375 18.222656 16.109375 18.394531 16.195312 18.480469 16.308594 18.523438 16.425781 18.523438 16.539062 18.523438 16.652344 18.480469 16.738281 18.394531zM17.050781 19.964844L20.195312 16.824219C20.367188 16.648438 20.367188 16.371094 20.195312 16.195312 20.019531 16.023438 19.738281 16.023438 19.566406 16.195312L16.425781 19.339844C16.25 19.511719 16.25 19.792969 16.425781 19.964844 16.511719 20.054688 16.625 20.097656 16.738281 20.097656 16.851562 20.097656 16.964844 20.054688 17.050781 19.964844zM21.136719 16.507812L16.738281 20.910156C16.566406 21.082031 16.566406 21.363281 16.738281 21.539062 16.824219 21.625 16.9375 21.667969 17.054688 21.667969 17.167969 21.667969 17.28125 21.625 17.367188 21.539062L21.765625 17.136719C21.941406 16.964844 21.941406 16.683594 21.765625 16.507812 21.59375 16.335938 21.3125 16.335938 21.136719 16.507812zM7.609375 5.496094L5.722656 7.378906C5.550781 7.554688 5.550781 7.835938 5.722656 8.007812 5.8125 8.09375 5.925781 8.140625 6.039062 8.140625 6.152344 8.140625 6.265625 8.09375 6.351562 8.007812L8.238281 6.125C8.410156 5.949219 8.410156 5.667969 8.238281 5.496094 8.0625 5.320312 7.78125 5.320312 7.609375 5.496094zM7.296875 3.921875L4.152344 7.066406C3.980469 7.238281 3.980469 7.519531 4.152344 7.695312 4.238281 7.78125 4.351562 7.824219 4.464844 7.824219 4.582031 7.824219 4.695312 7.78125 4.78125 7.695312L7.921875 4.550781C8.097656 4.378906 8.097656 4.097656 7.921875 3.921875 7.75 3.75 7.46875 3.75 7.296875 3.921875zM2.894531 7.511719C3.007812 7.511719 3.125 7.46875 3.210938 7.378906L7.609375 2.980469C7.78125 2.808594 7.78125 2.527344 7.609375 2.351562 7.4375 2.179688 7.15625 2.179688 6.980469 2.351562L2.582031 6.753906C2.40625 6.925781 2.40625 7.207031 2.582031 7.378906 2.667969 7.46875 2.78125 7.511719 2.894531 7.511719zM12.898438 8.890625C12.898438 9.378906 12.5 9.777344 12.007812 9.777344 11.519531 9.777344 11.121094 9.378906 11.121094 8.890625 11.121094 8.398438 11.519531 8 12.007812 8 12.5 8 12.898438 8.398438 12.898438 8.890625zM12.898438 8.890625"/>
    <path d="M 18.117188 13.28125 C 18.179688 12.945312 18.207031 12.613281 18.21875 12.277344 C 18.222656 12.183594 18.230469 12.09375 18.230469 12 C 18.230469 11.964844 18.226562 11.933594 18.226562 11.902344 C 18.226562 11.871094 18.222656 11.84375 18.222656 11.816406 C 18.125 8.472656 15.378906 5.777344 12.007812 5.777344 C 8.578125 5.777344 5.789062 8.570312 5.789062 12 C 5.789062 15.429688 8.578125 18.222656 12.007812 18.222656 C 12.050781 18.222656 12.085938 18.21875 12.128906 18.214844 C 12.160156 18.21875 12.191406 18.222656 12.222656 18.222656 C 12.554688 18.222656 12.886719 18.195312 13.21875 18.140625 C 15.675781 17.734375 17.644531 15.78125 18.117188 13.28125 Z M 9.484375 14.101562 C 9.5625 14.175781 9.667969 14.222656 9.789062 14.222656 C 10.03125 14.222656 10.230469 14.023438 10.230469 13.777344 C 10.230469 13.582031 10.105469 13.421875 9.929688 13.363281 C 10.027344 13.257812 10.144531 13.160156 10.273438 13.070312 C 10.339844 13.222656 10.496094 13.332031 10.675781 13.332031 C 10.921875 13.332031 11.121094 13.132812 11.121094 12.890625 C 11.121094 12.816406 11.097656 12.75 11.066406 12.6875 C 11.429688 12.574219 11.828125 12.511719 12.269531 12.507812 C 12.335938 12.507812 12.398438 12.5 12.464844 12.496094 C 12.488281 12.714844 12.671875 12.890625 12.898438 12.890625 C 13.144531 12.890625 13.34375 12.691406 13.34375 12.445312 C 13.34375 12.417969 13.332031 12.394531 13.328125 12.371094 C 13.984375 12.210938 14.601562 11.90625 15.136719 11.476562 C 15.132812 11.503906 15.121094 11.527344 15.121094 11.554688 C 15.121094 11.800781 15.320312 12 15.5625 12 C 15.808594 12 16.007812 11.800781 16.007812 11.554688 C 16.007812 11.308594 15.808594 11.109375 15.5625 11.109375 C 15.554688 11.109375 15.546875 11.117188 15.535156 11.117188 C 15.546875 11.105469 15.558594 11.097656 15.570312 11.085938 C 15.746094 10.90625 15.898438 10.710938 16.039062 10.511719 C 16.023438 10.558594 16.007812 10.613281 16.007812 10.667969 C 16.007812 10.914062 16.207031 11.113281 16.453125 11.113281 C 16.699219 11.113281 16.898438 10.914062 16.898438 10.667969 C 16.898438 10.421875 16.699219 10.222656 16.453125 10.222656 C 16.339844 10.222656 16.242188 10.265625 16.164062 10.335938 C 16.28125 10.15625 16.382812 9.96875 16.472656 9.773438 C 16.585938 9.769531 16.691406 9.722656 16.765625 9.648438 C 17 10.113281 17.167969 10.613281 17.257812 11.128906 C 17.054688 11.167969 16.898438 11.339844 16.898438 11.554688 C 16.898438 11.796875 17.09375 11.996094 17.335938 12 C 17.335938 12.023438 17.335938 12.050781 17.335938 12.078125 C 17.332031 12.359375 17.304688 12.636719 17.257812 12.90625 C 17.054688 12.945312 16.898438 13.117188 16.898438 13.332031 C 16.898438 13.472656 16.964844 13.59375 17.066406 13.675781 C 17.015625 13.835938 16.953125 13.996094 16.882812 14.152344 C 16.851562 13.941406 16.675781 13.777344 16.453125 13.777344 C 16.207031 13.777344 16.007812 13.976562 16.007812 14.222656 C 16.007812 14.46875 16.207031 14.667969 16.453125 14.667969 C 16.527344 14.667969 16.59375 14.644531 16.652344 14.613281 C 16.332031 15.183594 15.90625 15.691406 15.40625 16.109375 C 15.328125 16.042969 15.230469 16 15.121094 16 C 14.875 16 14.675781 16.199219 14.675781 16.445312 C 14.675781 16.496094 14.6875 16.546875 14.707031 16.59375 C 14.152344 16.917969 13.539062 17.148438 12.882812 17.253906 C 12.84375 17.046875 12.671875 16.890625 12.453125 16.890625 C 12.210938 16.890625 12.015625 17.085938 12.011719 17.328125 C 11.792969 17.316406 11.578125 17.289062 11.363281 17.253906 C 11.480469 17.171875 11.566406 17.042969 11.566406 16.886719 C 11.566406 16.644531 11.367188 16.445312 11.121094 16.445312 C 10.875 16.445312 10.675781 16.644531 10.675781 16.886719 C 10.675781 16.960938 10.695312 17.023438 10.726562 17.082031 C 9.984375 16.785156 9.578125 16.148438 9.421875 15.539062 C 9.628906 15.5 9.789062 15.328125 9.789062 15.109375 C 9.789062 14.871094 9.59375 14.675781 9.355469 14.667969 C 9.375 14.480469 9.417969 14.289062 9.484375 14.101562 Z M 6.675781 12 C 6.675781 9.058594 9.070312 6.667969 12.007812 6.667969 C 13.582031 6.667969 14.996094 7.355469 15.972656 8.445312 C 15.824219 9.210938 15.472656 9.910156 14.933594 10.464844 C 14.21875 11.199219 13.269531 11.609375 12.261719 11.617188 C 11.449219 11.625 10.726562 11.792969 10.125 12.113281 L 10.03125 12.164062 C 8.898438 12.792969 8.304688 14.019531 8.484375 15.359375 C 8.519531 15.648438 8.597656 15.917969 8.703125 16.175781 C 7.46875 15.199219 6.675781 13.691406 6.675781 12 Z M 6.675781 12"/>
    <path d="M14.230469 13.332031C14.230469 13.578125 14.03125 13.777344 13.789062 13.777344 13.542969 13.777344 13.34375 13.578125 13.34375 13.332031 13.34375 13.085938 13.542969 12.890625 13.789062 12.890625 14.03125 12.890625 14.230469 13.085938 14.230469 13.332031zM15.121094 12.445312C15.121094 12.691406 14.921875 12.890625 14.675781 12.890625 14.429688 12.890625 14.230469 12.691406 14.230469 12.445312 14.230469 12.199219 14.429688 12 14.675781 12 14.921875 12 15.121094 12.199219 15.121094 12.445312zM16.007812 13.332031C16.007812 13.578125 15.808594 13.777344 15.566406 13.777344 15.320312 13.777344 15.121094 13.578125 15.121094 13.332031 15.121094 13.085938 15.320312 12.890625 15.566406 12.890625 15.808594 12.890625 16.007812 13.085938 16.007812 13.332031zM16.898438 12.445312C16.898438 12.691406 16.699219 12.890625 16.453125 12.890625 16.207031 12.890625 16.007812 12.691406 16.007812 12.445312 16.007812 12.199219 16.207031 12 16.453125 12 16.699219 12 16.898438 12.199219 16.898438 12.445312zM15.121094 14.222656C15.121094 14.46875 14.921875 14.667969 14.675781 14.667969 14.429688 14.667969 14.230469 14.46875 14.230469 14.222656 14.230469 13.976562 14.429688 13.777344 14.675781 13.777344 14.921875 13.777344 15.121094 13.976562 15.121094 14.222656zM14.675781 15.554688C14.675781 15.800781 14.476562 16 14.230469 16 13.984375 16 13.789062 15.800781 13.789062 15.554688 13.789062 15.308594 13.984375 15.109375 14.230469 15.109375 14.476562 15.109375 14.675781 15.308594 14.675781 15.554688zM16.007812 15.109375C16.007812 15.355469 15.808594 15.554688 15.566406 15.554688 15.320312 15.554688 15.121094 15.355469 15.121094 15.109375 15.121094 14.867188 15.320312 14.667969 15.566406 14.667969 15.808594 14.667969 16.007812 14.867188 16.007812 15.109375zM13.789062 16.445312C13.789062 16.691406 13.589844 16.890625 13.34375 16.890625 13.097656 16.890625 12.898438 16.691406 12.898438 16.445312 12.898438 16.199219 13.097656 16 13.34375 16 13.589844 16 13.789062 16.199219 13.789062 16.445312zM10.675781 16C10.675781 16.246094 10.476562 16.445312 10.230469 16.445312 9.984375 16.445312 9.789062 16.246094 9.789062 16 9.789062 15.753906 9.984375 15.554688 10.230469 15.554688 10.476562 15.554688 10.675781 15.753906 10.675781 16zM12.007812 16C12.746094 16 13.34375 15.402344 13.34375 14.667969 13.34375 13.929688 12.746094 13.332031 12.007812 13.332031 11.273438 13.332031 10.675781 13.929688 10.675781 14.667969 10.675781 15.402344 11.273438 16 12.007812 16zM12.007812 14.222656C12.253906 14.222656 12.453125 14.421875 12.453125 14.667969 12.453125 14.910156 12.253906 15.109375 12.007812 15.109375 11.765625 15.109375 11.566406 14.910156 11.566406 14.667969 11.566406 14.421875 11.765625 14.222656 12.007812 14.222656zM12.007812 14.222656"/>
</svg>
