<svg xmlns="http://www.w3.org/2000/svg" width="32" height="32" viewBox="0 0 24 24">
    <path d="M18.918 5.082a.4.4 0 0 0 .281.117H20a.4.4 0 0 0 .281-.117l.403-.398a.402.402 0 0 0 .117-.286v-.796c0-.11-.043-.211-.117-.286l-.403-.398A.4.4 0 0 0 20 2.801h-.8a.4.4 0 0 0-.282.117l-.402.398a.402.402 0 0 0-.118.286v.796c0 .11.043.211.118.286zm.281-1.316l.168-.164h.469l.164.164v.468l-.164.164h-.469l-.168-.164zm0 0M22.281 4.918A.4.4 0 0 0 22 4.801h-.8a.4.4 0 0 0-.282.117l-.402.398a.402.402 0 0 0-.118.286v.796c0 .11.043.211.118.286l.402.398a.4.4 0 0 0 .281.117H22a.4.4 0 0 0 .281-.117l.403-.398a.402.402 0 0 0 .117-.286v-.796c0-.11-.043-.211-.117-.286zM22 6.234l-.164.164h-.469l-.168-.164v-.468l.168-.164h.469l.164.164zm0 0M18.918 9.082a.4.4 0 0 0 .281.117H20a.4.4 0 0 0 .281-.117l.403-.398a.402.402 0 0 0 .117-.286v-.796c0-.11-.043-.211-.117-.286l-.403-.398A.4.4 0 0 0 20 6.801h-.8a.4.4 0 0 0-.282.117l-.402.398a.402.402 0 0 0-.118.286v.796c0 .11.043.211.118.286zm.281-1.316l.168-.164h.469l.164.164v.468l-.164.164h-.469l-.168-.164zm0 0M22.281 8.918A.4.4 0 0 0 22 8.801h-.8a.4.4 0 0 0-.282.117l-.402.398a.402.402 0 0 0-.118.286v.796c0 .11.043.211.118.286l.402.398a.4.4 0 0 0 .281.117H22a.4.4 0 0 0 .281-.117l.403-.398a.402.402 0 0 0 .117-.286v-.796c0-.11-.043-.211-.117-.286zM22 10.234l-.164.164h-.469l-.168-.164v-.468l.168-.164h.469l.164.164zm0 0M18.918 13.082a.4.4 0 0 0 .281.117H20a.4.4 0 0 0 .281-.117l.403-.398a.402.402 0 0 0 .117-.286v-.796c0-.11-.043-.211-.117-.286l-.403-.398a.4.4 0 0 0-.281-.117h-.8a.4.4 0 0 0-.282.117l-.402.398a.402.402 0 0 0-.118.286v.796c0 .11.043.211.118.286zm.281-1.316l.168-.164h.469l.164.164v.468l-.164.164h-.469l-.168-.164zm0 0M22.281 12.918a.4.4 0 0 0-.281-.117h-.8a.4.4 0 0 0-.282.117l-.402.398a.402.402 0 0 0-.118.286v.796c0 .11.043.211.118.286l.402.398a.4.4 0 0 0 .281.117H22a.4.4 0 0 0 .281-.117l.403-.398a.402.402 0 0 0 .117-.286v-.796c0-.11-.043-.211-.117-.286zM22 14.234l-.164.164h-.469l-.168-.164v-.468l.168-.164h.469l.164.164zm0 0M18.918 17.082a.4.4 0 0 0 .281.117H20a.4.4 0 0 0 .281-.117l.403-.398a.402.402 0 0 0 .117-.286v-.796c0-.11-.043-.211-.117-.286l-.403-.398a.4.4 0 0 0-.281-.117h-.8a.4.4 0 0 0-.282.117l-.402.398a.402.402 0 0 0-.118.286v.796c0 .11.043.211.118.286zm.281-1.316l.168-.164h.469l.164.164v.468l-.164.164h-.469l-.168-.164zm0 0M22.281 16.918a.4.4 0 0 0-.281-.117h-.8a.4.4 0 0 0-.282.117l-.402.398a.402.402 0 0 0-.118.286v.796c0 .11.043.211.118.286l.402.398a.4.4 0 0 0 .281.117H22a.4.4 0 0 0 .281-.117l.403-.398a.402.402 0 0 0 .117-.286v-.796c0-.11-.043-.211-.117-.286zM22 18.234l-.164.164h-.469l-.168-.164v-.468l.168-.164h.469l.164.164zm0 0M20.281 18.918a.4.4 0 0 0-.281-.117h-.8a.4.4 0 0 0-.282.117l-.402.398a.402.402 0 0 0-.118.286v.796c0 .11.043.211.118.286l.402.398a.4.4 0 0 0 .281.117H20a.4.4 0 0 0 .281-.117l.403-.398a.402.402 0 0 0 .117-.286v-.796c0-.11-.043-.211-.117-.286zM20 20.234l-.164.164h-.469l-.168-.164v-.468l.168-.164h.469l.164.164zm0 0"/>
    <path d="M22.422.8h-4.656l-.684-.683a.4.4 0 0 0-.566 0L16 .633l-.516-.516a.4.4 0 0 0-.566 0l-.52.516-.515-.516a.4.4 0 0 0-.567 0l-.515.516-.52-.516a.396.396 0 0 0-.562 0l-.684.684H1.578C.707.8 0 1.508 0 2.379V21.62c0 .871.707 1.578 1.578 1.578h9.457l.684.684a.396.396 0 0 0 .562 0l.52-.516.515.516a.399.399 0 0 0 .567 0l.515-.516.52.516c.078.078.18.117.281.117.102 0 .207-.04.285-.117l.516-.516.516.516A.405.405 0 0 0 16.8 24c.101 0 .203-.04.281-.117l.684-.684h4.656c.871 0 1.578-.707 1.578-1.578V2.38C24 1.508 23.293.8 22.422.8zM.8 2.38c0-.43.347-.777.777-.777H6V2.8H2.8v.8h-2zm0 2.02h2v.8H6V6H2.8v.8h-2zm0 3.203h2v.796H6V9.2H2.8V10h-2zm0 3.199h2v.8H6v.797H2.8v.801h-2zM.8 14h2v.8H6v.802H2.8v.796h-2zm0 3.2h2v.8H6v.8H2.8v.802h-2zM6 22.397H1.578a.777.777 0 0 1-.777-.777v-1.223h2v.801H6zm.8-2V1.602h4v20.796h-4zm5.2 2.637l-.398-.402V1.367L12 .965l.398.402v21.266zm1.602 0l-.403-.402V1.367l.403-.402.398.402v21.266zm1.597 0l-.398-.402V1.367l.398-.402.403.402v21.266zm1.602 0l-.403-.402V1.367l.403-.402.398.402v21.266zm6.398-1.414c0 .43-.347.777-.777.777H18V1.602h4.422c.43 0 .777.347.777.777zm0 0"/>
    <path d="M10.152 2.031a.397.397 0 0 0-.433.086L7.316 4.516A.416.416 0 0 0 7.2 4.8v4.398a.401.401 0 0 0 .656.309l2.403-2a.404.404 0 0 0 .14-.309V2.4a.4.4 0 0 0-.246-.368zm-.55 4.98L8 8.349V4.965l1.602-1.598zm0 0M7.855 14.895a.403.403 0 0 0-.425-.06.401.401 0 0 0-.23.364v4c0 .106.042.207.116.285l2.403 2.399A.384.384 0 0 0 10 22a.4.4 0 0 0 .398-.398v-4.403c0-.117-.05-.23-.14-.304zm1.747 5.738L8 19.035v-2.98l1.602 1.332zm0 0M10.152 9.23a.397.397 0 0 0-.433.086L7.316 11.72a.398.398 0 0 0-.02.543l2.4 2.797c.077.093.19.14.304.14a.398.398 0 0 0 .398-.398V9.6a.401.401 0 0 0-.246-.37zm-.55 4.489l-1.457-1.7 1.457-1.453zm0 0"/>
</svg>
