<svg xmlns="http://www.w3.org/2000/svg" width="32" height="32" viewBox="0 0 24 24">
    <path d="M9.613 16.055a.4.4 0 0 0-.566 0l-3.211 3.21-.281-.28 3.562-3.563a.4.4 0 0 0-.566-.567l-3.563 3.563-.281-.285 3.207-3.207a.4.4 0 0 0 0-.567.396.396 0 0 0-.562 0L4.14 17.566l-.286-.28a.4.4 0 0 0-.566.566l.285.28-.285.286a.4.4 0 0 0 .566.566l.286-.285.28.285-.28.282a.4.4 0 0 0 .566.566l.281-.281.285.281-.285.285a.399.399 0 1 0 .566.563l.282-.282.285.282a.399.399 0 0 0 .566-.563l-.285-.285 3.211-3.21a.4.4 0 0 0 0-.567zm0 0"/>
    <path d="M7.434 13.137a3.408 3.408 0 0 0-3.403 3.402h.801a2.606 2.606 0 0 1 2.602-2.602 2.606 2.606 0 0 1 2.601 2.602 2.606 2.606 0 0 1-2.601 2.602v.8a3.408 3.408 0 0 0 3.402-3.402 3.408 3.408 0 0 0-3.402-3.402zm0 0"/>
    <path d="M23.54 4.406c.679-.918.608-2.218-.224-3.05l-.64-.641A2.334 2.334 0 0 0 19.62.492l-.3-.304a.4.4 0 0 0-.567.566l.281.281-.566.567-.282-.282a.4.4 0 0 0-.566 0 .396.396 0 0 0 0 .563l.281.285-.015.02a1 1 0 0 0 0 1.414.198.198 0 0 1 0 .28l-7.399 7.4a6.364 6.364 0 0 0-2.883-.9v-.417a.401.401 0 0 0-.8 0v.418a6.402 6.402 0 0 0-3.832 1.59l-.297-.297a.4.4 0 0 0-.567 0 .396.396 0 0 0 0 .562l.301.301a6.358 6.358 0 0 0-1.59 3.828H.398a.401.401 0 0 0 0 .801H.82a6.381 6.381 0 0 0 1.59 3.828l-.3.3a.4.4 0 0 0 .566.567l.297-.3a6.402 6.402 0 0 0 3.832 1.59v.417a.401.401 0 1 0 .8 0v-.418a6.39 6.39 0 0 0 3.829-1.59l.296.301a.405.405 0 0 0 .286.117.4.4 0 0 0 .281-.684l-.297-.3a6.354 6.354 0 0 0 1.586-3.828h.422c.222 0 .398-.18.398-.398a.398.398 0 0 0-.398-.403h-.422a6.363 6.363 0 0 0-.848-2.808l7.41-7.41a.204.204 0 0 1 .285 0c.376.378 1.036.378 1.415 0l.02-.02.28.285a.399.399 0 0 0 .567 0 .4.4 0 0 0 0-.566l-.281-.285.566-.567.281.285a.399.399 0 0 0 .566 0 .4.4 0 0 0 0-.566zM7.202 22.371a5.606 5.606 0 0 1-5.601-5.601 5.61 5.61 0 0 1 5.601-5.606c1.504 0 2.867.598 3.875 1.566l.094.082c.058.06.11.126.164.188a2.235 2.235 0 0 1 .3.355c.087.114.173.223.25.34.579.883.923 1.938.923 3.075a5.61 5.61 0 0 1-5.606 5.601zm13.938-16.73A.198.198 0 0 1 21 5.582a1.004 1.004 0 0 0-1.418 0l-7.297 7.297c-.015-.024-.035-.043-.055-.066-.07-.09-.148-.18-.222-.266l8.945-8.98a.4.4 0 0 0-.57-.563L11.44 11.98c-.07-.062-.14-.128-.214-.187-.02-.02-.04-.04-.063-.055L18.45 4.45a.98.98 0 0 0 .297-.707 1 1 0 0 0-.293-.707.198.198 0 0 1 0-.281l.3-.305 1.169-1.168a1.549 1.549 0 0 1 2.191 0l.637.64a1.549 1.549 0 0 1 0 2.192l-1.469 1.469a.198.198 0 0 1-.14.059zm0 0"/>
</svg>
