<svg xmlns="http://www.w3.org/2000/svg" width="32" height="32" viewBox="0 0 24 24">
    <path d="M23.883 4.121l-.102-.101a.942.942 0 0 0-.129-1.168L21.074.277A.936.936 0 0 0 19.91.148l-.027-.03A.416.416 0 0 0 19.598 0h-.801a.4.4 0 0 0-.281.117l-.399.403A.384.384 0 0 0 18 .8v.802h-.8a.409.409 0 0 0-.286.117l-.398.398a.416.416 0 0 0-.118.285v.801a.4.4 0 0 0 .118.281l.023.028c-.273.402-.043 1.004.2 1.332a.404.404 0 0 1 .027.082l-.907.883-2.277 2.222a5.288 5.288 0 0 0-.55-.332c-1.634-.844-3.06-.89-4.016-.133-.168.106-.95.657-1.688 2.075-.539 1.039-1.816 1.16-2.191 1.171a2.783 2.783 0 0 0-.489.06c-.835.187-2.882.757-3.785 2.003l-.035.047c-1.394 1.953-.984 5.094.914 6.992.348.348.79.793 1.336 1.352.555.543 1 .984 1.348 1.332.93.93 2.11 1.402 3.332 1.402 1.047 0 2.125-.348 3.105-1.047l.043-.031c1.246-.906 1.817-2.953 2.004-3.79.035-.155.055-.312.059-.484.015-.484.164-1.671 1.172-2.195 1.418-.738 1.968-1.515 2.078-1.687.754-.957.707-2.38-.133-4.012-.082-.16-.18-.32-.281-.477l.86-.836 1.429-1.398h.004l.925-.902a.383.383 0 0 0 .09.066c.336.18.926.418 1.305.18l.098.101a.402.402 0 0 0 .285.117h.797c.109 0 .21-.043.285-.117l.398-.402a.384.384 0 0 0 .117-.281v-.801h.801a.416.416 0 0 0 .285-.117l.399-.403a.4.4 0 0 0 .117-.28v-.802a.4.4 0 0 0-.117-.28zM18.797.97L18.965.8h.469l.164.168v.469l-.164.164h-.47l-.167-.165zm-1.598 1.597l.164-.164h.469l.168.164v.47l-.168.167h-.469l-.164-.168zm-.816 6.028L15.28 7.492l.86-.84 1.101 1.106zm-2.867 2.793l-1.102-1.102.86-.84 1.101 1.106zm-2.793 2.695a3.703 3.703 0 0 0-.192-.289.415.415 0 0 0-.035-.043 3.303 3.303 0 0 0-.21-.254c-.013-.012-.024-.027-.036-.039a3.327 3.327 0 0 0-.582-.488s-.004-.004-.008-.004l.746-.727 1.106 1.102-.778.758c-.004-.004-.007-.012-.011-.016zm1.359-1.3L10.98 11.68l.86-.836 1.101 1.101zm2.867-2.79l-1.101-1.105.859-.836 1.102 1.101zm.63 4.29l-.036.05c-.004.008-.434.719-1.773 1.41-1.422.742-1.582 2.39-1.602 2.88a1.8 1.8 0 0 1-.04.335c-.128.586-.636 2.55-1.694 3.32l-.036.028c-1.82 1.297-3.941 1.191-5.406-.274-.351-.347-.797-.793-1.344-1.332-.546-.554-.988-1-1.336-1.347-1.43-1.43-2.152-4.118-.832-5.97l.028-.034c.765-1.055 2.734-1.563 3.316-1.696a1.8 1.8 0 0 1 .336-.039c.488-.015 2.14-.18 2.88-1.601.694-1.336 1.401-1.77 1.405-1.77l.055-.039c.938-.754 2.387-.195 3.164.207.11.055.219.121.332.192L8.898 12.59a3.404 3.404 0 0 0-4.504 3.215h.801a2.606 2.606 0 0 1 2.602-2.602c.387 0 .754.09 1.082.242a1.542 1.542 0 0 1 .238.125c.055.032.11.067.164.102l.047.035a1.652 1.652 0 0 1 .192.156c.058.051.109.102.16.153a2.182 2.182 0 0 1 .184.219 1.822 1.822 0 0 1 .148.21c.043.07.082.145.12.22 0 .003 0 .007.005.01.035.075.07.153.097.231.106.281.164.582.164.899a2.606 2.606 0 0 1-2.601 2.601v.801a3.408 3.408 0 0 0 3.402-3.402c0-.317-.047-.625-.129-.914l2.727-2.66 1.422-1.383c.054.09.11.18.156.27.398.78.96 2.23.203 3.163zm2.886-7.716l-.649.633-1.101-1.101.644-.63c.34-.343.2-.82.059-1.046-.008-.012-.016-.027-.027-.04a1.007 1.007 0 0 1-.172-.378H18a.4.4 0 0 0 .281-.117l.399-.403a.384.384 0 0 0 .117-.28v-.802h.8c.106 0 .212-.043.286-.117l.398-.398a.416.416 0 0 0 .117-.285V.8c.036 0 .07 0 .114.043l2.574 2.574a.146.146 0 0 1 .043.098.13.13 0 0 1-.031.086h-.7a.4.4 0 0 0-.28.117l-.403.402a.4.4 0 0 0-.117.281v.7l-.098.101h-.7c-.109 0-.21.043-.284.117l-.399.399a.392.392 0 0 0-.117.285v.684a1.86 1.86 0 0 1-.465-.165c-.351-.32-.723-.304-1.07.043zm3.133.07l-.164.169h-.47l-.163-.168v-.469l.164-.164h.469l.164.164zm1.601-1.6l-.164.167h-.469l-.168-.168v-.469l.168-.164h.47l.163.164zm0 0"/>
    <path d="M6.395 19.469l3.582-3.582a.396.396 0 0 0 0-.563.4.4 0 0 0-.567 0l-3.582 3.578-.281-.28 3.933-3.934a.4.4 0 0 0-.566-.567L4.98 18.055l-.28-.282 3.577-3.582a.4.4 0 0 0-.566-.566l-3.578 3.582-.285-.285a.396.396 0 0 0-.563 0 .394.394 0 0 0 0 .566l.281.285-.28.282a.394.394 0 0 0 0 .566.396.396 0 0 0 .563 0l.284-.285.281.285-.281.281a.4.4 0 0 0 .566.567l.281-.282.286.282-.286.285a.399.399 0 1 0 .566.563l.282-.282.285.281c.078.079.18.118.282.118.101 0 .207-.04.285-.118a.396.396 0 0 0 0-.562zm0 0"/>
</svg>
