<svg xmlns="http://www.w3.org/2000/svg" width="32" height="32" viewBox="0 0 24 24">
    <path d="M23.883 7.719l-.895-.895a.356.356 0 0 0-.066-.09l-5.703-5.703a.42.42 0 0 0-.094-.07l-.84-.84a.4.4 0 0 0-.566 0 .396.396 0 0 0 0 .563l.789.789c-.031.175-.074.441-.133.765-.398 2.145-1.285 3.844-2.785 5.344l-1.652 1.652-.637-.636a.4.4 0 0 0-.567 0L4.88 14.453a.4.4 0 0 0 0 .567l.637.636-1.848 1.848-.184-.188a.4.4 0 0 0-.566.567l.227.222-2.575 2.95-.004.004-.406.464-.02.024a.724.724 0 0 0 .067.937l1.309 1.309a.716.716 0 0 0 .5.203c.16 0 .32-.05.46-.156l.462-.406 2.953-2.579.226.227a.399.399 0 0 0 .567 0 .4.4 0 0 0 0-.566l-.188-.184.04-.039c.07.066.163.11.265.11h.8a.4.4 0 0 0 .282-.118l.402-.402a.4.4 0 0 0 .117-.281V18.8a.389.389 0 0 0-.109-.266l.242-.242c.07.066.164.11.266.11h.8a.4.4 0 0 0 .282-.118l.402-.402a.4.4 0 0 0 .117-.281V16.8a.396.396 0 0 0-.109-.266l.242-.242c.07.066.164.11.266.11h.8a.4.4 0 0 0 .282-.118l.398-.402a.384.384 0 0 0 .117-.281V14.8a.4.4 0 0 0-.105-.266l.238-.242c.074.07.168.11.27.11h.8a.4.4 0 0 0 .282-.118l.398-.402a.384.384 0 0 0 .117-.281V12.8a.4.4 0 0 0-.105-.266l.238-.242c.074.07.168.11.27.11h.8a.4.4 0 0 0 .282-.118l.398-.402a.384.384 0 0 0 .117-.281V10.8a.4.4 0 0 0-.105-.266l.125-.125c1.547-1.547 3.23-2.45 5.297-2.832.324-.058.59-.105.765-.133l.836.84a.399.399 0 0 0 .566 0 .4.4 0 0 0 0-.566zm-12.867 1.73l.355.352-1.504 1.508-.355-.356zm-2.07 2.07l.355.352-1.235 1.234-.355-.351zm-3.22 3.22l1.419-1.423.355.356-1.418 1.418zm.356 1.484l.492.496a.405.405 0 0 0 .285.117.4.4 0 0 0 .281-.684l-.492-.496 1.418-1.418.844.848a.423.423 0 0 0 .285.117.4.4 0 0 0 .281-.684l-.843-.847 1.234-1.235.844.848a.399.399 0 0 0 .566 0 .4.4 0 0 0 0-.566l-.847-.848 1.508-1.504.492.496a.4.4 0 0 0 .566-.566l-.492-.496L13.87 8.43l1.57 1.57h-.64a.4.4 0 0 0-.281.117l-.403.403a.4.4 0 0 0-.117.28v.802c0 .027.004.058.012.085l-.325.325c-.027-.008-.058-.008-.085-.008H12.8a.384.384 0 0 0-.281.117l-.403.399a.4.4 0 0 0-.117.28v.802c0 .027.004.058.012.085l-.325.325c-.027-.008-.058-.008-.085-.008H10.8a.384.384 0 0 0-.281.117l-.403.399a.4.4 0 0 0-.117.28v.802c0 .027.004.058.012.085l-.325.325c-.027-.008-.058-.008-.085-.008H8.8a.384.384 0 0 0-.281.117l-.403.399A.4.4 0 0 0 8 16.8v.802c0 .03.004.058.012.085l-.325.325c-.027-.008-.058-.008-.085-.008H6.8a.384.384 0 0 0-.281.117l-.403.399A.4.4 0 0 0 6 18.8v.802c0 .03.004.058.012.085l-.059.06-1.7-1.696zm-5.254 5.75l.34-.387a.872.872 0 0 1 .633-.3c.25-.009.48.081.656.257a.874.874 0 0 1 .258.656.859.859 0 0 1-.3.633l-.388.34zm2.664-.082a1.69 1.69 0 0 0-.469-.914 1.69 1.69 0 0 0-.914-.47l1.602-1.835 1.617 1.617zm4.11-2.457l-.165.168H6.97l-.153-.153-.015-.484.168-.164h.468l.165.164zm2-2l-.165.168H8.97l-.153-.153-.015-.484.168-.164h.465l.015.012.153.152zm2-2l-.165.168h-.468l-.153-.153-.015-.484.168-.164h.465l.015.011v.004l.153.149zm2-2l-.168.168h-.47l-.152-.153-.011-.484.164-.164h.469l.015.011v.004l.153.149zm2-1.996l-.168.164h-.47l-.152-.153-.011-.48.164-.168h.469l.015.011v.004l.153.153zm5.968-4.645c-2.105.39-3.84 1.273-5.43 2.773L14.435 7.86c1.437-1.535 2.328-3.332 2.726-5.476.016-.074.027-.145.04-.215l4.585 4.586c-.07.012-.14.023-.215.039zm0 0"/>
</svg>
