<svg xmlns="http://www.w3.org/2000/svg" width="32" height="32" viewBox="0 0 24 24">
    <path d="M19.8 11.2h-2.402v-.4c0-1.105-.894-2-2-2a5.198 5.198 0 0 0-4.777 3.15c-.152.363-.195.769-.113 1.152a4.359 4.359 0 0 1 0 1.796c-.082.383-.04.79.113 1.153a5.198 5.198 0 0 0 4.777 3.148c1.106 0 2-.894 2-2v-.398h1.73a.27.27 0 0 1 .27.27v4.257c0 .59.48 1.07 1.075 1.07H21V24h.8v-1.602h.528c.59 0 1.07-.48 1.07-1.07v-6.527a3.604 3.604 0 0 0-3.597-3.602zm-3.198 6a1.2 1.2 0 0 1-1.204 1.198 4.39 4.39 0 0 1-4.039-2.664 1.105 1.105 0 0 1-.07-.671A5.11 5.11 0 0 0 11.4 14a5.11 5.11 0 0 0-.11-1.063 1.105 1.105 0 0 1 .07-.671 4.39 4.39 0 0 1 4.04-2.664 1.2 1.2 0 0 1 1.203 1.199zm.796-5.2h.801v4h-.8zm5.204 9.328a.277.277 0 0 1-.274.274h-1.855a.274.274 0 0 1-.274-.274V17.07c0-.59-.48-1.07-1.07-1.07H19v-4h.8c1.544 0 2.802 1.258 2.802 2.8zm0 0"/>
    <path d="M13.379 7.25c.152-.363.195-.77.113-1.152a4.331 4.331 0 0 1 0-1.797c.082-.38.04-.79-.113-1.149A5.201 5.201 0 0 0 8.602 0c-1.106 0-2 .898-2 2v.398H4.199A3.604 3.604 0 0 0 .602 6v6.527c0 .594.48 1.075 1.07 1.075h.527V24H3V13.602h.527c.594 0 1.075-.48 1.075-1.075V8.273A.27.27 0 0 1 4.872 8h1.73v.398c0 1.106.894 2 2 2a5.198 5.198 0 0 0 4.777-3.148zM3.8 8.273v4.254a.272.272 0 0 1-.274.274H1.672a.274.274 0 0 1-.274-.274V6c0-1.543 1.258-2.8 2.801-2.8H5v4h-.129c-.59 0-1.07.48-1.07 1.073zm2-1.074v-4h.8v4zm2.8 2.403c-.664 0-1.203-.54-1.203-1.204V2c0-.66.54-1.2 1.204-1.2a4.396 4.396 0 0 1 4.039 2.665c.093.21.117.45.07.672a5.174 5.174 0 0 0 0 2.129c.047.218.023.457-.07.668A4.393 4.393 0 0 1 8.6 9.602zm0 0"/>
</svg>
