<svg xmlns="http://www.w3.org/2000/svg" width="32" height="32" viewBox="0 0 24 24">
    <path d="M23.887.887c-.211-.625-.75-.946-1.485-.88-.027.005-.62.06-1.468.325l-.215-.215A.4.4 0 0 0 20.437 0h-.8a.416.416 0 0 0-.285.117l-.399.399a.416.416 0 0 0-.117.285v.496c-.11.066-.219.137-.324.21l-.192-.19a.416.416 0 0 0-.285-.118h-.8a.4.4 0 0 0-.282.117l-.398.403a.384.384 0 0 0-.117.281v.8c0 .106.039.208.117.282l.144.148a1.873 1.873 0 0 0-.219.7l-5.418 6.312-.753-.71a.397.397 0 0 0-.457-.067L.25 14.445a.398.398 0 0 0-.207.426l1.035 5.602a.404.404 0 0 0 .297.316c1.531.379 2.68 1.469 3.074 2.914a.4.4 0 0 0 .387.297h5.52a.401.401 0 0 0 .374-.262l3.68-10a.395.395 0 0 0-.101-.43l-.95-.898.614-.71c.011-.009.027-.016.039-.024a.323.323 0 0 0 .058-.09l3.102-3.578c.004-.004.008-.004.012-.008.007-.008.007-.016.015-.023l1.555-1.793c.098-.016.191-.04.289-.07a2.59 2.59 0 0 0 .68-.344 1.922 1.922 0 0 0 .746-1.149c.082-.293.168-.59.492-.89.156-.149.574-.317.879-.438l.148-.063c.051-.02.145-.035.242-.054.329-.059.825-.145 1.258-.614.434-.468.586-1.109.399-1.675zM19.8.8h.469l.168.164v.469l-.168.168h-.47l-.163-.168v-.47zm-2.567 1.363L17.402 2h.47l.163.164v.469l-.164.168h-.469l-.168-.168zm-.363 4.969L15.742 6.02l.89-1.04c.055.13.122.25.2.368.246.355.574.609.941.746zM15.285 8.96l-1.113-1.113 1.047-1.22 1.129 1.11zm-1.582 1.828l-1.101-1.113 1.046-1.219 1.114 1.113zm-2.41 2.785l-.602-1.078-.199-.36.914-1.042c.02-.024.028-.047.04-.07l.632-.739 1.098 1.11zm1.55-.55l.727.687-3.496 9.488H5.133c-.516-1.504-1.727-2.644-3.313-3.12l-.937-5.06 9.086-4.714.574.543-.836.972v.004h-.004c-.015.02-.023.04-.035.059-.008.015-.023.027-.027.047-.012.02-.012.043-.02.062-.004.02-.012.035-.012.055-.004.02 0 .043.004.066 0 .016-.004.035 0 .051a.423.423 0 0 0 .043.117l1.215 2.18a.396.396 0 0 0 .305.207h.043c.004 0 .008-.004.011-.004a.374.374 0 0 0 .165-.039.363.363 0 0 0 .125-.094h.003l.016-.02zM22.904 2.02c-.25.27-.536.32-.81.37a1.72 1.72 0 0 0-.405.102l-.145.059c-.406.16-.863.344-1.129.594-.484.453-.621.937-.71 1.257-.017.055-.028.102-.044.149a1.067 1.067 0 0 1-.398.562 1.66 1.66 0 0 1-.469.239c-.07.023-.145.043-.215.05-.015 0-.035-.004-.05-.004a1.088 1.088 0 0 1-.852-.312 1.308 1.308 0 0 1-.41-.977c0-.011-.004-.02-.004-.027.011-.16.05-.324.144-.48h.797l.117-.118.399-.402.117-.117v-.711c.098-.07.191-.133.289-.2l.344.344h1.133l.632-.632v-.692c.727-.219 1.23-.265 1.239-.27.46-.042.59.145.652.333.094.285.008.633-.223.883zm0 0"/>
    <path d="M9.348 15.723l-2.95 3.035-.28-.278 2.956-3a.4.4 0 0 0-.57-.563l-2.95 2.997-.284-.285 3.355-3.445a.4.4 0 0 0-.574-.559l-3.348 3.438-.562-.563a.435.435 0 0 0-.293-.117.42.42 0 0 0-.285.129l-1.13 1.222a.401.401 0 0 0 .008.555l3.395 3.395c.078.074.18.117.285.117h.008c.11 0 .21-.047.285-.13l1.133-1.222a.401.401 0 0 0-.012-.554l-.57-.57 2.957-3.048a.397.397 0 0 0-.008-.566.401.401 0 0 0-.566.012zm-3.239 5.101l-2.828-2.828.59-.637 2.824 2.828zm0 0"/>
</svg>
