<svg xmlns="http://www.w3.org/2000/svg" width="32" height="32" viewBox="0 0 24 24">
    <path d="M3.2 8.398a.401.401 0 1 1-.803.003.401.401 0 0 1 .802-.003zm0 0M20.8 8.398a.401.401 0 1 1 0 0zm0 0M4.8 8.398a.401.401 0 1 1 0 0zm0 0M1.602 8.398a.401.401 0 1 1 0 0zm0 0M11.2 8.398a.401.401 0 1 1-.803.003.401.401 0 0 1 .802-.003zm0 0M12.8 8.398a.401.401 0 1 1 0 0zm0 0M17.602 8.398a.401.401 0 1 1 0 0zm0 0M8 8.398a.401.401 0 1 1-.802.003A.401.401 0 0 1 8 8.398zm0 0M16 8.398a.401.401 0 1 1-.802.003.401.401 0 0 1 .802-.003zm0 0M9.602 8.398a.401.401 0 1 1 0 0zm0 0M19.2 8.398a.401.401 0 1 1-.803.003.401.401 0 0 1 .802-.003zm0 0M22.398 8.398a.398.398 0 1 1-.796 0 .398.398 0 1 1 .796 0zm0 0M14.398 8.398a.398.398 0 1 1-.796 0 .398.398 0 1 1 .796 0zm0 0M6.398 8.398a.398.398 0 1 1-.796 0 .398.398 0 1 1 .796 0zm0 0"/>
    <path d="M23.602 0H.398A.4.4 0 0 0 0 .398v23.204A.4.4 0 0 0 .398 24h23.204a.4.4 0 0 0 .398-.398V.398A.4.4 0 0 0 23.602 0zM.8.8h22.398V4H.801zm22.398 22.4H.801V4.8h22.398zm0 0"/>
    <path d="M2 7.602h.8a.4.4 0 0 0 .282-.118l.402-.402a.4.4 0 0 0 .118-.281V6a.4.4 0 0 0-.118-.281l-.402-.403a.4.4 0 0 0-.281-.117H2a.4.4 0 0 0-.281.117l-.403.403A.4.4 0 0 0 1.2 6v.8a.4.4 0 0 0 .117.282l.403.402A.4.4 0 0 0 2 7.602zm0-1.438L2.164 6h.469l.168.164v.469l-.168.168h-.469L2 6.633zm0 0M6.281 7.484l.403-.402a.4.4 0 0 0 .117-.281V6a.4.4 0 0 0-.117-.281l-.403-.403A.4.4 0 0 0 6 5.2h-.8a.4.4 0 0 0-.282.117l-.402.403A.4.4 0 0 0 4.398 6v.8a.4.4 0 0 0 .118.282l.402.402a.4.4 0 0 0 .281.118H6a.4.4 0 0 0 .281-.118zm-.914-.683L5.2 6.633v-.469L5.367 6h.469L6 6.164v.469l-.164.168zm0 0M9.484 5.316A.416.416 0 0 0 9.2 5.2h-.8a.4.4 0 0 0-.282.117l-.398.403A.384.384 0 0 0 7.602 6v.8c0 .106.039.208.117.282l.398.402a.4.4 0 0 0 .281.118H9.2a.416.416 0 0 0 .285-.118l.399-.402A.4.4 0 0 0 10 6.801V6a.4.4 0 0 0-.117-.281zM9.2 6.633l-.164.168h-.469l-.168-.168v-.469L8.566 6h.47l.163.164zm0 0M11.316 7.484a.402.402 0 0 0 .286.118h.796c.11 0 .211-.043.286-.118l.398-.402a.4.4 0 0 0 .117-.281V6a.4.4 0 0 0-.117-.281l-.398-.403a.402.402 0 0 0-.286-.117h-.796c-.11 0-.211.043-.286.117l-.398.403a.4.4 0 0 0-.117.281v.8a.4.4 0 0 0 .117.282zm.286-1.32L11.766 6h.468l.164.164v.469l-.164.168h-.468l-.164-.168zm0 0M15.602 7.602a.4.4 0 0 0 .28-.118l.4-.402a.384.384 0 0 0 .116-.281V6a.384.384 0 0 0-.117-.281l-.398-.403a.4.4 0 0 0-.281-.117H14.8a.416.416 0 0 0-.285.117l-.399.403A.4.4 0 0 0 14 6v.8a.4.4 0 0 0 .117.282l.399.402c.078.075.18.118.285.118zM14.8 6.164L14.965 6h.469l.168.164v.469l-.168.168h-.47l-.163-.168zm0 0M19.082 7.484l.402-.402a.4.4 0 0 0 .118-.281V6a.4.4 0 0 0-.118-.281l-.402-.403a.4.4 0 0 0-.281-.117H18a.4.4 0 0 0-.281.117l-.403.403A.4.4 0 0 0 17.2 6v.8a.4.4 0 0 0 .117.282l.403.402a.4.4 0 0 0 .281.118h.8a.4.4 0 0 0 .282-.118zm-.918-.683L18 6.633v-.469L18.164 6h.469l.168.164v.469l-.168.168zm0 0M22.281 5.316A.4.4 0 0 0 22 5.2h-.8a.4.4 0 0 0-.282.117l-.402.403a.4.4 0 0 0-.118.281v.8a.4.4 0 0 0 .118.282l.402.402a.4.4 0 0 0 .281.118H22a.4.4 0 0 0 .281-.118l.403-.402a.4.4 0 0 0 .117-.281V6a.4.4 0 0 0-.117-.281zM22 6.633l-.164.168h-.469l-.168-.168v-.469L21.367 6h.469l.164.164zm0 0M3.2 1.2H1.601a.402.402 0 0 0-.403.402v1.597c0 .223.18.403.403.403h1.597c.223 0 .403-.18.403-.403V1.602a.402.402 0 0 0-.403-.403zm-.4 1.6H2V2h.8zm0 0M6.398 1.2H4.801a.402.402 0 0 0-.403.402v1.597c0 .223.18.403.403.403h1.597c.223 0 .403-.18.403-.403V1.602a.402.402 0 0 0-.403-.403zM6 2.8h-.8V2H6zm0 0M9.602 1.2H8a.398.398 0 0 0-.398.402v1.597c0 .223.175.403.398.403h1.602c.218 0 .398-.18.398-.403V1.602a.401.401 0 0 0-.398-.403zm-.403 1.6h-.8V2h.8zm0 0M12.8 1.2h-1.6a.401.401 0 0 0-.4.402v1.597c0 .223.18.403.4.403h1.6c.22 0 .4-.18.4-.403V1.602a.401.401 0 0 0-.4-.403zm-.402 1.6h-.796V2h.796zm0 0M22.398 1.2h-8a.401.401 0 0 0-.398.402v1.597c0 .223.18.403.398.403h8c.223 0 .403-.18.403-.403V1.602a.402.402 0 0 0-.403-.403zM22 2.8h-7.2V2H22zm0 0M3.602 10.398a.401.401 0 0 0-.801 0v8H1.6v2h1.2v1.204a.4.4 0 0 0 .8 0v-1.204h1.2v-2H3.6zM4 19.602H2.398v-.403H4zm0 0M8 10.398a.4.4 0 0 0-.8 0V16H6v2h1.2v3.602a.401.401 0 0 0 .8 0V18h1.2v-2H8zm.398 6.801H6.801v-.398h1.597zm0 0M12.398 10.398a.398.398 0 1 0-.796 0v1.204h-1.204v2h1.204v8a.398.398 0 1 0 .796 0v-8h1.204v-2h-1.204zm.403 2.403h-1.602v-.403h1.602zm0 0M16.8 10.398a.401.401 0 0 0-.8 0v6h-1.2v2H16v3.204a.4.4 0 0 0 .8 0v-3.204H18v-2h-1.2zm.4 7.204h-1.598v-.403h1.597zm0 0M21.2 10.398a.4.4 0 0 0-.802 0v3.204H19.2v2h1.2v6a.401.401 0 0 0 .8 0v-6h1.2v-2h-1.2zm.402 4.403H20v-.403h1.602zm0 0"/>
</svg>
