<svg xmlns="http://www.w3.org/2000/svg" width="32" height="32" viewBox="0 0 24 24">
    <path d="M22.281 9.316A.4.4 0 0 0 22 9.2h-.8a.4.4 0 0 0-.282.117l-.402.403a.4.4 0 0 0-.118.281v.8a.4.4 0 0 0 .118.282l.402.402a.4.4 0 0 0 .281.118H22a.4.4 0 0 0 .281-.118l.403-.402a.4.4 0 0 0 .117-.281V10a.4.4 0 0 0-.117-.281zM22 10.633l-.164.168h-.469l-.168-.168v-.469l.168-.164h.469l.164.164zm0 0M3.082 9.316a.4.4 0 0 0-.281-.117H2a.4.4 0 0 0-.281.117l-.403.403A.4.4 0 0 0 1.2 10v.8a.4.4 0 0 0 .117.282l.403.402a.4.4 0 0 0 .281.118h.8a.4.4 0 0 0 .282-.118l.402-.402a.4.4 0 0 0 .118-.281V10a.4.4 0 0 0-.118-.281zm-.281 1.317l-.168.168h-.469L2 10.633v-.469L2.164 10h.469l.168.164zm0 0M2 19.2h2c.223 0 .398-.18.398-.4v-2.402A.398.398 0 0 0 4 16H2a.398.398 0 0 0-.398.398v2.403c0 .219.175.398.398.398zm1.602-.802H2.398V18h1.204zm-1.204-1.597h1.204v.398H2.398zm0 0M5.602 19.2h2A.4.4 0 0 0 8 18.8v-2.402A.4.4 0 0 0 7.602 16h-2a.401.401 0 0 0-.403.398v2.403c0 .219.18.398.403.398zm1.597-.802H6V18h1.2zM6 16.801h1.2v.398H6zm0 0M9.2 19.2h2c.222 0 .402-.18.402-.4v-2.402a.401.401 0 0 0-.403-.398h-2a.4.4 0 0 0-.398.398v2.403a.4.4 0 0 0 .398.398zm1.6-.802H9.603V18H10.8zm-1.198-1.597H10.8v.398H9.6zm0 0M12.8 19.2h2a.4.4 0 0 0 .4-.4v-2.402a.4.4 0 0 0-.4-.398h-2a.401.401 0 0 0-.402.398v2.403c0 .219.18.398.403.398zm1.598-.802H13.2V18h1.2zM13.2 16.801h1.2v.398h-1.2zm0 0M16.398 19.2h2c.223 0 .403-.18.403-.4v-2.402a.401.401 0 0 0-.403-.398h-2a.4.4 0 0 0-.398.398v2.403a.4.4 0 0 0 .398.398zM18 18.397h-1.2V18H18zm-1.2-1.597H18v.398h-1.2zm0 0M20 19.2h2c.223 0 .398-.18.398-.4v-2.402A.398.398 0 0 0 22 16h-2a.398.398 0 0 0-.398.398v2.403c0 .219.175.398.398.398zm1.602-.802h-1.204V18h1.204zm-1.204-1.597h1.204v.398h-1.204zm0 0M6 8c.223 0 .398-.18.398-.398V6.145c0-.079.067-.145.145-.145h3.059a.4.4 0 0 0 0-.8H6.543a.945.945 0 0 0-.941.945v1.457c0 .218.175.398.398.398zm0 0"/>
    <path d="M22.148 5.2h-2.222a2.112 2.112 0 0 0-2.047-1.598H6.12c-.988 0-1.816.68-2.047 1.597H1.852C.832 5.2 0 6.031 0 7.051v12.191c0 .64.52 1.156 1.156 1.156h21.688c.636 0 1.156-.515 1.156-1.156V7.051c0-1.02-.832-1.852-1.852-1.852zM6.121 4.397H17.88c.73 0 1.32.594 1.32 1.325v5.976a1.1 1.1 0 0 1-1.097 1.102H5.898a1.1 1.1 0 0 1-1.097-1.102V5.723c0-.73.59-1.325 1.32-1.325zM.801 7.051C.8 6.473 1.273 6 1.85 6H4v5.7c0 1.046.852 1.902 1.898 1.902h12.204A1.904 1.904 0 0 0 20 11.699V6h2.148c.579 0 1.051.473 1.051 1.05v7.75H.801zm22.398 12.191c0 .2-.16.36-.355.36H1.156a.358.358 0 0 1-.355-.36v-3.64h22.398zm0 0"/>
</svg>
