<svg xmlns="http://www.w3.org/2000/svg" width="32" height="32" viewBox="0 0 24 24">
    <path d="M 20.515625 11.058594 C 17.660156 6.234375 18.722656 2.046875 18.960938 1.257812 C 19.070312 0.910156 18.972656 0.539062 18.71875 0.285156 C 18.457031 0.0273438 18.078125 -0.0625 17.730469 0.046875 C 16.992188 0.277344 16.351562 0.707031 15.878906 1.28125 C 15.507812 1.734375 15.230469 2.671875 15.097656 3.253906 L 9.125 3.253906 C 9.007812 2.714844 8.753906 1.742188 8.371094 1.277344 C 7.894531 0.703125 7.277344 0.289062 6.53125 0.0507812 C 6.179688 -0.0625 5.800781 0.0273438 5.539062 0.285156 C 5.277344 0.542969 5.183594 0.921875 5.289062 1.277344 C 5.527344 2.058594 6.5625 6.214844 3.699219 11.058594 C 2.453125 13.164062 1.808594 16.324219 3.730469 18.886719 C 3.828125 19.015625 3.941406 19.179688 4.078125 19.371094 C 4.644531 20.175781 5.496094 21.367188 6.449219 22.167969 C 6.441406 22.238281 6.429688 22.304688 6.429688 22.371094 C 6.429688 23.269531 7.160156 24 8.058594 24 L 15.820312 24 C 16.714844 24 17.445312 23.269531 17.445312 22.371094 C 17.445312 22.292969 17.433594 22.21875 17.421875 22.140625 C 18.523438 21.160156 19.691406 19.546875 20.15625 18.875 C 21.789062 16.515625 21.929688 13.449219 20.515625 11.058594 Z M 15.425781 4.066406 L 15.972656 4.066406 C 16.085938 4.066406 16.175781 4.160156 16.175781 4.269531 C 16.175781 4.382812 16.085938 4.472656 15.972656 4.472656 L 8.382812 4.472656 C 8.273438 4.472656 8.179688 4.382812 8.179688 4.269531 C 8.179688 4.160156 8.273438 4.066406 8.382812 4.066406 Z M 14.160156 15.457031 L 13.753906 15.457031 L 13.753906 5.289062 L 14.160156 5.289062 Z M 12.9375 15.457031 L 12.523438 15.457031 L 12.53125 5.289062 L 12.9375 5.289062 Z M 11.710938 15.457031 L 11.3125 15.457031 L 11.320312 5.289062 L 11.71875 5.289062 Z M 10.5 15.457031 L 10.089844 15.457031 L 10.089844 5.289062 L 10.507812 5.289062 Z M 8.992188 5.59375 C 9.046875 5.449219 9.152344 5.347656 9.277344 5.308594 L 9.277344 15.457031 L 8.847656 15.457031 C 8.519531 15.457031 8.226562 15.617188 8.042969 15.863281 L 7.59375 15.863281 C 7.394531 15.863281 7.222656 15.726562 7.183594 15.535156 C 6.742188 13.296875 7.347656 9.953125 8.992188 5.59375 Z M 8.644531 16.472656 C 8.644531 16.363281 8.738281 16.269531 8.847656 16.269531 L 15.511719 16.269531 C 15.621094 16.269531 15.714844 16.363281 15.714844 16.492188 C 15.714844 16.542969 15.691406 16.585938 15.660156 16.621094 C 15.585938 16.652344 15.488281 16.675781 15.378906 16.675781 L 8.871094 16.675781 C 8.828125 16.675781 8.789062 16.671875 8.75 16.664062 C 8.6875 16.628906 8.644531 16.558594 8.644531 16.472656 Z M 16.519531 15.863281 L 16.320312 15.863281 C 16.132812 15.617188 15.839844 15.457031 15.511719 15.457031 L 14.972656 15.457031 L 14.972656 5.320312 C 15.082031 5.367188 15.175781 5.460938 15.226562 5.589844 C 15.226562 5.59375 15.226562 5.597656 15.226562 5.597656 C 16.042969 7.765625 17.261719 12.257812 16.644531 15.378906 L 16.628906 15.453125 C 16.605469 15.582031 16.558594 15.824219 16.519531 15.863281 Z M 15.820312 23.1875 L 8.058594 23.1875 C 7.609375 23.1875 7.242188 22.820312 7.242188 22.371094 C 7.242188 22.195312 7.300781 22.03125 7.398438 21.898438 C 7.617188 21.699219 7.941406 21.558594 8.226562 21.558594 L 15.648438 21.558594 C 15.949219 21.558594 16.328125 21.757812 16.546875 22.015625 C 16.597656 22.121094 16.632812 22.242188 16.632812 22.371094 C 16.632812 22.820312 16.265625 23.1875 15.820312 23.1875 Z M 19.488281 18.410156 C 19.160156 18.886719 18.089844 20.386719 17.078125 21.355469 C 16.777344 20.988281 16.328125 20.746094 15.820312 20.746094 L 8.058594 20.746094 C 7.558594 20.746094 7.117188 20.976562 6.816406 21.332031 C 6.800781 21.347656 6.785156 21.359375 6.769531 21.375 C 5.972656 20.644531 5.242188 19.613281 4.742188 18.902344 C 4.601562 18.703125 4.480469 18.53125 4.378906 18.398438 C 2.699219 16.15625 3.285156 13.351562 4.398438 11.472656 C 7.4375 6.335938 6.320312 1.882812 6.066406 1.039062 C 6.042969 0.953125 6.082031 0.894531 6.109375 0.867188 C 6.132812 0.84375 6.171875 0.816406 6.226562 0.816406 C 6.246094 0.816406 6.265625 0.820312 6.285156 0.824219 C 6.878906 1.015625 7.371094 1.339844 7.742188 1.796875 C 7.941406 2.035156 8.148438 2.660156 8.292969 3.261719 C 7.773438 3.308594 7.367188 3.742188 7.367188 4.269531 C 7.367188 4.785156 7.753906 5.207031 8.25 5.273438 C 8.242188 5.289062 8.234375 5.300781 8.230469 5.3125 C 6.535156 9.8125 5.914062 13.304688 6.386719 15.691406 C 6.5 16.261719 7.007812 16.679688 7.59375 16.679688 L 7.625 16.679688 C 7.710938 17.082031 8.09375 17.355469 8.523438 17.449219 C 8.625 17.484375 8.734375 17.507812 8.847656 17.507812 L 15.511719 17.507812 C 15.734375 17.507812 15.9375 17.433594 16.105469 17.3125 C 16.367188 17.171875 16.570312 16.957031 16.628906 16.671875 C 17.238281 16.605469 17.359375 15.960938 17.429688 15.609375 L 17.445312 15.535156 C 18.09375 12.25 16.847656 7.59375 15.992188 5.324219 C 15.992188 5.320312 15.988281 5.3125 15.988281 5.308594 C 15.984375 5.300781 15.980469 5.292969 15.980469 5.285156 C 16.539062 5.285156 16.992188 4.832031 16.992188 4.269531 C 16.992188 3.710938 16.535156 3.253906 15.972656 3.253906 L 15.933594 3.253906 C 16.074219 2.699219 16.296875 2.054688 16.507812 1.796875 C 16.882812 1.335938 17.378906 1.007812 17.976562 0.820312 C 18.0625 0.792969 18.125 0.839844 18.144531 0.863281 C 18.171875 0.886719 18.210938 0.941406 18.183594 1.019531 C 17.925781 1.867188 16.785156 6.355469 19.8125 11.472656 C 21.066406 13.589844 20.9375 16.3125 19.488281 18.410156 Z M 19.488281 18.410156"/>
</svg>
