<svg xmlns="http://www.w3.org/2000/svg" width="32" height="32" viewBox="0 0 24 24">
    <path d="M20.516 11.059c-2.856-4.825-1.793-9.012-1.555-9.801a.963.963 0 0 0-.242-.973.984.984 0 0 0-.989-.238A3.89 3.89 0 0 0 15.88 1.28c-.371.453-.649 1.39-.781 1.973H9.125c-.117-.54-.371-1.512-.754-1.977A3.879 3.879 0 0 0 6.531.051a.979.979 0 0 0-.992.234.99.99 0 0 0-.25.992c.238.782 1.274 4.938-1.59 9.782-1.246 2.105-1.89 5.265.031 7.828.098.129.211.293.348.484.567.805 1.418 1.996 2.371 2.797-.008.07-.02.137-.02.203C6.43 23.27 7.16 24 8.06 24h7.761a1.63 1.63 0 0 0 1.625-1.629c0-.078-.011-.152-.023-.23 1.101-.98 2.27-2.594 2.734-3.266 1.633-2.36 1.774-5.426.36-7.816zm-5.09-6.993h.547c.113 0 .203.094.203.204 0 .113-.09.203-.203.203h-7.59a.204.204 0 0 1-.203-.203c0-.11.093-.204.203-.204zM14.16 15.457h-.406V5.289h.406zm-1.223 0h-.414l.008-10.168h.406zm-1.226 0h-.399l.008-10.168h.399zm-1.211 0h-.41V5.289h.418zM8.992 5.594a.459.459 0 0 1 .285-.285v10.148h-.43c-.327 0-.62.16-.804.406h-.45a.415.415 0 0 1-.41-.328c-.44-2.238.165-5.582 1.81-9.941zm-.347 10.879c0-.11.093-.203.203-.203h6.664c.11 0 .203.093.203.222 0 .051-.024.094-.055.13a.735.735 0 0 1-.281.054H8.87a.606.606 0 0 1-.121-.012.215.215 0 0 1-.105-.191zm7.875-.61h-.2a1.017 1.017 0 0 0-.808-.406h-.54V5.32a.48.48 0 0 1 .255.27v.008c.816 2.168 2.035 6.66 1.418 9.78l-.016.075c-.024.129-.07.371-.11.41zm-.7 7.325H8.06a.819.819 0 0 1-.817-.817c0-.176.059-.34.156-.473.22-.199.543-.34.829-.34h7.421c.301 0 .68.2.899.458.05.105.086.226.086.355 0 .45-.367.817-.813.817zm3.668-4.778c-.328.477-1.398 1.977-2.41 2.945-.3-.367-.75-.609-1.258-.609H8.06c-.5 0-.942.23-1.243.586-.015.016-.03.027-.046.043-.797-.73-1.528-1.762-2.028-2.473-.14-.199-.262-.37-.363-.504-1.68-2.242-1.094-5.046.02-6.925C7.436 6.336 6.32 1.883 6.065 1.039A.172.172 0 0 1 6.11.867a.165.165 0 0 1 .118-.05c.02 0 .039.003.058.007a3.033 3.033 0 0 1 1.457.973c.2.238.406.863.551 1.465-.52.047-.926.48-.926 1.008 0 .515.387.937.883 1.003-.008.016-.016.028-.02.04-1.695 4.5-2.316 7.992-1.843 10.378.113.57.62.989 1.207.989h.031c.086.402.469.675.898.77.102.034.211.058.325.058h6.664c.222 0 .425-.074.593-.195.262-.141.465-.356.524-.641.61-.067.73-.711.8-1.063l.016-.074c.649-3.285-.597-7.941-1.453-10.21 0-.005-.004-.013-.004-.016-.004-.008-.008-.016-.008-.024.56 0 1.012-.453 1.012-1.015a1.02 1.02 0 0 0-1.02-1.016h-.038c.14-.555.363-1.2.574-1.457A3.02 3.02 0 0 1 17.977.82a.158.158 0 0 1 .168.043.14.14 0 0 1 .039.157c-.258.847-1.399 5.335 1.628 10.453 1.254 2.117 1.125 4.84-.324 6.937zm0 0"/>
</svg>
