<svg xmlns="http://www.w3.org/2000/svg" width="32" height="32" viewBox="0 0 24 24">
    <path d="M21.844 6.102C19.367.766 14.894.032 12.809.004 12.8.004 12.789 0 12.78 0c-.09 0-.18 0-.261.004h-.543c-.024 0-.04-.004-.063-.004-.191 0-.383 0-.574.004h-.016c-.293.004-.578.023-.863.047-.012.004-.02.004-.031.004C6.664.406 3.813 2.48 2.145 6.102c-.739 1.605-1.079 3.472-1.07 5.875.007 1.68.85 6.828 1.64 8.101a.505.505 0 0 0 .098.106l.312 1.71a.415.415 0 0 0 .379.34l1.633.106.09.484A1.453 1.453 0 0 0 6.648 24c.09 0 .18-.008.27-.027l.555-.106c.375-.07.703-.285.922-.605.218-.32.296-.703.226-1.082l-1.574-8.297a1.45 1.45 0 0 0-1.692-1.153l-.55.106a1.43 1.43 0 0 0-.926.605 1.44 1.44 0 0 0-.227 1.082l.305 1.614-1.39.633c-.372-1.778-.66-3.84-.665-4.793-.007-2.282.309-4.04.993-5.532.667-1.449 1.542-2.625 2.601-3.527 2.012.457 4.332.695 6.719.695 2.238 0 4.433-.21 6.36-.613.937.816 1.816 1.93 2.523 3.45.68 1.46 1.007 3.269 1 5.527-.004.91-.48 3.07-1.016 4.902a.38.38 0 0 0-.121-.086l-1.441-.652.304-1.614a1.448 1.448 0 0 0-1.148-1.691l-.555-.106a1.454 1.454 0 0 0-1.082.227 1.43 1.43 0 0 0-.605.926l-1.575 8.297a1.45 1.45 0 0 0 1.148 1.691l.555.106a1.449 1.449 0 0 0 1.688-1.152l.094-.485 1.625-.106a.416.416 0 0 0 .383-.336l.308-1.714a.374.374 0 0 0 .102-.106c.781-1.265 2.156-6.41 2.164-8.098.004-2.382-.348-4.304-1.082-5.878zM4.562 13.91a.608.608 0 0 1 .395-.262l.555-.105a.587.587 0 0 1 .46.098c.141.093.231.234.262.394l1.575 8.3a.606.606 0 0 1-.098.462.604.604 0 0 1-.395.262l-.55.105a.625.625 0 0 1-.727-.492l-.148-.8-.754-3.962-.672-3.539a.606.606 0 0 1 .098-.46zm-.445 3.063l.508 2.68.352 1.85-1.098-.073-.73-4.02zm13.485-14.63c-1.668.294-3.512.442-5.387.442-2.016 0-3.98-.172-5.738-.504 1.37-.93 3.007-1.418 4.875-1.453.195-.004.394-.004.59 0 .199 0 .394.004.59 0h.019a9.269 9.269 0 0 1 1.687.133c.051.008.106.02.164.027l.04.012a8.316 8.316 0 0 1 3.16 1.344zm-.887 20.821l-.555-.105a.623.623 0 0 1-.492-.727l1.574-8.297a.623.623 0 0 1 .727-.492l.55.105a.62.62 0 0 1 .497.723l-1.578 8.297a.62.62 0 0 1-.723.496zm2.879-1.734l-1.094.07.04-.188.82-4.335.964.433zm0 0"/>
</svg>
