<svg xmlns="http://www.w3.org/2000/svg" width="32" height="32" viewBox="0 0 24 24">
    <path d="M2.117 9.484a.4.4 0 0 0 .281.118H3.2a.416.416 0 0 0 .285-.118l.399-.402A.4.4 0 0 0 4 8.801V8a.4.4 0 0 0-.117-.281l-.399-.403A.416.416 0 0 0 3.2 7.2h-.8a.4.4 0 0 0-.282.117l-.398.403A.384.384 0 0 0 1.602 8v.8c0 .106.039.208.117.282zm.281-1.32L2.566 8h.47l.163.164v.469l-.164.168h-.469l-.168-.168zm0 0M5.316 9.484a.402.402 0 0 0 .286.118h.796c.11 0 .211-.043.286-.118l.398-.402a.4.4 0 0 0 .117-.281V8a.4.4 0 0 0-.117-.281l-.398-.403a.402.402 0 0 0-.286-.117h-.796c-.11 0-.211.043-.286.117l-.398.403A.4.4 0 0 0 4.801 8v.8a.4.4 0 0 0 .117.282zm.286-1.32L5.766 8h.468l.164.164v.469l-.164.168h-.468l-.164-.168zm0 0M8.516 9.484c.078.075.18.118.285.118h.8a.4.4 0 0 0 .282-.118l.398-.402a.384.384 0 0 0 .117-.281V8a.384.384 0 0 0-.117-.281l-.398-.403a.4.4 0 0 0-.281-.117H8.8a.416.416 0 0 0-.285.117l-.399.403A.4.4 0 0 0 8 8v.8a.4.4 0 0 0 .117.282zm.285-1.32L8.965 8h.469l.168.164v.469l-.168.168h-.47l-.163-.168zm0 0M11.719 9.484a.4.4 0 0 0 .281.118h.8a.4.4 0 0 0 .282-.118l.402-.402a.4.4 0 0 0 .118-.281V8a.4.4 0 0 0-.118-.281l-.402-.403a.4.4 0 0 0-.281-.117H12a.4.4 0 0 0-.281.117l-.403.403A.4.4 0 0 0 11.2 8v.8a.4.4 0 0 0 .117.282zM12 8.164L12.164 8h.469l.168.164v.469l-.168.168h-.469L12 8.633zm0 0M18.8 14.8c2.204 0 4-1.796 4-4 0-2.206-1.796-4-4-4-2.206 0-4 1.794-4 4 0 2.204 1.794 4 4 4zm0-7.198c1.762 0 3.2 1.433 3.2 3.199C22 12.562 20.562 14 18.8 14a3.203 3.203 0 0 1-3.198-3.2A3.2 3.2 0 0 1 18.8 7.603zm0 0"/>
    <path d="M0 0v24h24V0zm23.2 23.2H.8v-4.802h22.4zm0-5.598H.8V6.398h22.4zm-22.4-12V.8h22.4v4.8zm0 0"/>
    <path d="M20.8 22.8c1.102 0 2-.898 2-2a2.001 2.001 0 0 0-3.405-1.421c-.004.004-.008.004-.008.008-.004 0-.004.004-.008.008A2 2 0 0 0 20.8 22.8zm1.2-2a1.2 1.2 0 1 1-2.281-.516l.797.798a.405.405 0 0 0 .285.117.4.4 0 0 0 .281-.684l-.797-.796A1.2 1.2 0 0 1 22 20.8zm0 0M1.602 22H2v.398a.401.401 0 1 0 .8 0V22h.4c.222 0 .402-.18.402-.398v-1.204A.401.401 0 0 0 3.199 20h-.398v-.8a.401.401 0 0 0-.801 0v.8h-.398a.401.401 0 0 0-.403.398v1.204c0 .218.18.398.403.398zM2 20.8h.8v.4H2zm0 0M4.398 21.2h.403v1.198a.401.401 0 1 0 .8 0V21.2H6c.223 0 .398-.18.398-.398v-1.2A.398.398 0 0 0 6 19.2h-.398a.401.401 0 0 0-.801 0h-.403a.401.401 0 0 0-.398.403V20.8a.4.4 0 0 0 .398.398zm.403-1.2h.8v.398h-.8zm0 0M2 15.602h.398v.796a.401.401 0 0 0 .8 0l.001-.796h.403c.218 0 .398-.18.398-.403V14a.398.398 0 0 0-.398-.398h-.403V10.8a.401.401 0 1 0-.8 0v2.8H2a.395.395 0 0 0-.398.399v1.2c0 .222.175.402.398.402zm.398-1.204H3.2v.403h-.8zm0 0M5.2 14h.402v2.398a.398.398 0 1 0 .796 0V14h.403a.4.4 0 0 0 .398-.398v-1.204A.4.4 0 0 0 6.801 12h-.403v-1.2a.398.398 0 1 0-.796 0V12h-.403a.4.4 0 0 0-.398.398v1.204a.4.4 0 0 0 .398.398zm.402-1.2h.796v.4h-.796zm0 0M8.398 16.398h.403a.401.401 0 1 0 .8 0H10a.395.395 0 0 0 .398-.398v-1.2a.398.398 0 0 0-.398-.402h-.398v-3.597a.401.401 0 0 0-.8 0L8.8 14.398h-.403a.401.401 0 0 0-.398.403V16c0 .223.18.398.398.398zm.403-1.199h.8v.403h-.8zm0 0M11.602 13.2H12v3.198a.401.401 0 1 0 .8 0V13.2h.4c.222 0 .402-.18.402-.398v-1.2a.402.402 0 0 0-.403-.402h-.398v-.398a.401.401 0 0 0-.8 0l-.001.398h-.398a.402.402 0 0 0-.403.403V12.8c0 .219.18.398.403.398zM12 12h.8v.398H12zm0 0M7.2 22.398h.402a.398.398 0 1 0 .796 0h.403A.398.398 0 0 0 9.199 22v-1.2a.401.401 0 0 0-.398-.402h-.403V19.2a.398.398 0 1 0-.796 0v1.2h-.403a.401.401 0 0 0-.398.402V22c0 .223.18.398.398.398zm.402-1.199h.796v.403h-.796zm0 0M10 21.602h.398v.796a.401.401 0 0 0 .8 0l.001-.796h.403c.218 0 .398-.18.398-.403V20a.398.398 0 0 0-.398-.398h-.403v-.403a.4.4 0 0 0-.8 0v.403H10a.395.395 0 0 0-.398.398v1.2c0 .222.175.402.398.402zm.398-1.204h.801v.403h-.8zm0 0M12.8 22.398h.4a.401.401 0 0 0 .8 0h.398a.398.398 0 0 0 .403-.398v-1.2a.402.402 0 0 0-.403-.402H14V19.2a.4.4 0 0 0-.8 0v1.2h-.4a.402.402 0 0 0-.402.402V22c0 .223.18.398.403.398zm.4-1.199h.8v.403h-.8zm0 0M15.602 21.2H16v1.198a.401.401 0 1 0 .8 0V21.2h.4c.222 0 .402-.18.402-.398v-1.2a.402.402 0 0 0-.403-.402h-.398a.401.401 0 0 0-.801 0h-.398a.402.402 0 0 0-.403.403V20.8c0 .219.18.398.403.398zM16 20h.8v.398H16zm0 0M3.602 1.2H2a.398.398 0 0 0-.398.402V4.8c0 .219.175.398.398.398h1.602A.4.4 0 0 0 4 4.801V1.6a.401.401 0 0 0-.398-.402zm-.403 3.198h-.8V2h.8zm0 0M6.398 1.2H4.801a.402.402 0 0 0-.403.402V4.8c0 .219.18.398.403.398h1.597c.223 0 .403-.18.403-.398V1.6a.402.402 0 0 0-.403-.402zM6 4.397h-.8V2H6zm0 0M10.398 1.2H8.801a.402.402 0 0 0-.403.402V4.8c0 .219.18.398.403.398h1.597c.223 0 .403-.18.403-.398V1.6a.402.402 0 0 0-.403-.402zM10 4.397h-.8V2h.8zm0 0M13.2 2a.401.401 0 1 0 0-.8h-1.598a.402.402 0 0 0-.403.402v1.597c0 .223.18.403.403.403H12.8v.796h-1.2a.401.401 0 0 0 0 .8L13.2 5.2c.223 0 .403-.18.403-.398V3.199a.401.401 0 0 0-.403-.398H12V2zm0 0M8 2.398a.401.401 0 1 1-.802.003A.401.401 0 0 1 8 2.398zm0 0M16 15.602a.4.4 0 1 1-.8-.004.4.4 0 0 1 .8.004zm0 0M16 16.8a.4.4 0 1 1-.8-.003.4.4 0 0 1 .8.004zm0 0M17.602 15.602a.401.401 0 1 1-.802-.005.401.401 0 0 1 .802.005zm0 0M17.602 16.8a.401.401 0 1 1-.802-.004.401.401 0 0 1 .802.005zm0 0M19.2 15.602a.4.4 0 1 1-.801-.004.4.4 0 0 1 .8.004zm0 0M19.2 16.8a.4.4 0 1 1-.801-.003.4.4 0 0 1 .8.004zm0 0M20.8 15.602a.401.401 0 1 1-.801-.005.401.401 0 0 1 .802.005zm0 0M20.8 16.8a.401.401 0 1 1-.801-.004.401.401 0 0 1 .802.005zm0 0M22.398 15.602a.398.398 0 1 1-.796 0 .398.398 0 1 1 .796 0zm0 0M22.398 16.8a.398.398 0 1 1-.796 0 .398.398 0 1 1 .796 0zm0 0M8 4c0 .223-.18.398-.398.398a.398.398 0 1 1 0-.796C7.82 3.602 8 3.777 8 4zm0 0M19.2 8.398a.401.401 0 1 1-.803.003.401.401 0 0 1 .802-.003zm0 0M19.2 13.2a.401.401 0 1 1-.803.002.401.401 0 0 1 .802-.003zm0 0M16.398 4h-.796a.401.401 0 1 0 0 .8h.796a.401.401 0 0 0 0-.8zm0 0M18.398 4h-.796a.401.401 0 1 0 0 .8h.796a.401.401 0 0 0 0-.8zm0 0M18.398 2.8h-.796a.401.401 0 1 0 0 .802h.796a.401.401 0 0 0 0-.8zm0 0M18.398 1.602h-.796a.398.398 0 1 0 0 .796h.796a.398.398 0 1 0 0-.796zm0 0M20.398 4h-.796a.401.401 0 1 0 0 .8h.796a.401.401 0 0 0 0-.8zm0 0M20.398 2.8h-.796a.401.401 0 1 0 0 .802h.796a.401.401 0 0 0 0-.8zm0 0M22.398 4h-.796a.401.401 0 1 0 0 .8h.796a.401.401 0 0 0 0-.8zm0 0M21.602 10.8a.401.401 0 1 1-.802-.004.401.401 0 0 1 .802.005zm0 0M16.8 10.8a.401.401 0 1 1-.801-.004.401.401 0 0 1 .802.005zm0 0M20.8 9.2a.401.401 0 1 1 0 0zm0 0M17.602 12.398a.401.401 0 1 1 0 0zm0 0M20.8 12.398a.401.401 0 1 1 0 0zm0 0M17.602 9.2a.401.401 0 1 1 0 0zm0 0"/>
</svg>
