<svg xmlns="http://www.w3.org/2000/svg" width="32" height="32" viewBox="0 0 24 24">
    <path d="M23.695 1.121L22.88.305a1.042 1.042 0 0 0-1.473 0L16.734 4.98l-.675-.68a.41.41 0 0 0-.575 0l-6.066 6.067a.41.41 0 0 0 0 .574l.676.676-2.461 2.461-.27-.273a.41.41 0 0 0-.574 0 .41.41 0 0 0 0 .574l.274.27-.641.64-.274-.27a.399.399 0 0 0-.57 0 .399.399 0 0 0 0 .57l.27.274-.977.977a.413.413 0 0 0-.57 0l-2.29 2.289a.406.406 0 0 0 0 .57L.118 21.594a.41.41 0 0 0 0 .574l1.715 1.715a.414.414 0 0 0 .29.117c.1 0 .206-.04.284-.117l1.895-1.899a.394.394 0 0 0 .57 0l2.29-2.285a.392.392 0 0 0 .116-.285c0-.11-.039-.21-.117-.285l.977-.98.273.273a.405.405 0 0 0 .57 0 .399.399 0 0 0 0-.57l-.27-.274.642-.64.27.269a.402.402 0 0 0 .573 0 .406.406 0 0 0 0-.57l-.273-.27.883-.883a.366.366 0 0 0 .113.024h.809c.109 0 .21-.043.289-.117l.402-.407a.409.409 0 0 0 .117-.285v-.808a.416.416 0 0 0-.023-.118l.312-.312c.04.012.078.023.117.023h.809c.11 0 .21-.043.285-.117l.406-.406a.402.402 0 0 0 .118-.285v-.809a.416.416 0 0 0-.024-.117l.313-.309c.039.012.074.024.117.024h.808a.403.403 0 0 0 .286-.121l.402-.403a.403.403 0 0 0 .121-.285v-.808c0-.043-.012-.078-.023-.118l.312-.312a.366.366 0 0 0 .113.023h.809c.11 0 .21-.043.285-.117l.406-.406a.402.402 0 0 0 .118-.285v-.809a.416.416 0 0 0-.024-.117l.313-.309c.039.008.078.02.117.02h.808c.106 0 .211-.04.286-.117l.406-.403a.418.418 0 0 0 .117-.289v-.808a.366.366 0 0 0-.023-.114l.71-.714.075.07c.234.238.547.355.855.355a1.214 1.214 0 0 0 .86-2.07l-.07-.07.663-.668a1.037 1.037 0 0 0 0-1.469zM2.121 23.023L.977 21.88l1.609-1.61 1.144 1.145zm2.465-1.894L2.87 19.414 4.586 17.7l1.719 1.715zm5.691-10.473l5.496-5.496.387.39-5.492 5.497zM6.59 18.555L5.445 17.41l.977-.976 1.144 1.144zm1.547-1.547l-1.145-1.145.64-.64 1.145 1.144zm3.59-2.477l-.168.168h-.473l-.168-.168v-.472l.168-.168h.473l.168.168zm2.023-2.023l-.168.168h-.473l-.168-.168v-.473l.168-.168h.473l.168.168zm2.023-2.02l-.168.168h-.476l-.168-.168v-.476l.168-.164h.476l.133.132.035.032zm2.02-2.023l-.168.168h-.473l-.168-.168v-.473l.168-.168h.473l.168.168zm2.023-2.024l-.168.168h-.472l-.168-.168V5.97l.168-.168h.472l.168.168zm2.711-2.543a.406.406 0 0 1-.57.574l-.07-.07.57-.574zm.598-1.878l-.668.664-.5-.5a.406.406 0 0 0-.57 0 .399.399 0 0 0 0 .57l.5.504-.57.57-.505-.5a.399.399 0 0 0-.57 0 .399.399 0 0 0 0 .57l.5.504-.676.676c-.02-.016-.043-.023-.066-.035-.016-.008-.027-.016-.04-.02a.37.37 0 0 0-.144-.03h-.808a.39.39 0 0 0-.285.12l-.407.403a.416.416 0 0 0-.117.285v.808c0 .051.008.102.028.145.007.016.015.027.023.039.012.023.02.047.035.066l-.242.243c-.02-.016-.043-.024-.066-.036-.012-.007-.024-.015-.04-.023a.452.452 0 0 0-.144-.027h-.809a.409.409 0 0 0-.285.117l-.406.406a.402.402 0 0 0-.117.285v.809c0 .05.012.097.027.144l.024.04c.011.023.02.046.035.066l-.242.238-.063-.035c-.016-.004-.027-.016-.043-.02a.347.347 0 0 0-.14-.027h-.813a.399.399 0 0 0-.285.117l-.403.403a.405.405 0 0 0-.12.289v.808c0 .047.011.098.03.14.005.017.016.028.02.044.012.02.02.043.035.062l-.238.243c-.02-.016-.043-.024-.066-.036-.016-.007-.028-.015-.04-.023a.452.452 0 0 0-.144-.027h-.809c-.109 0-.21.043-.285.117l-.406.406a.409.409 0 0 0-.117.285v.809c0 .05.012.097.027.144a.343.343 0 0 0 .024.04c.011.023.02.046.035.066l-.242.242c-.02-.016-.043-.023-.067-.035a.344.344 0 0 0-.039-.024.452.452 0 0 0-.144-.027h-.809a.409.409 0 0 0-.285.117l-.403.406a.39.39 0 0 0-.12.286v.808c0 .051.011.098.03.145l.02.039c.012.023.02.047.035.066l-.843.844-1.145-1.145 2.461-2.46.371.37a.405.405 0 0 0 .57 0 .406.406 0 0 0 0-.57l-.37-.37 5.495-5.497.368.371a.414.414 0 0 0 .289.117c.101 0 .207-.039.285-.117a.406.406 0 0 0 0-.57l-.371-.371L21.98.875c.09-.09.239-.09.329 0l.816.816c.09.09.09.239 0 .329zm0 0"/>
</svg>
