<svg xmlns="http://www.w3.org/2000/svg" width="32" height="32" viewBox="0 0 24 24">
    <path d="M 23.183594 0.109375 C 23.085938 0.0273438 22.957031 -0.0117188 22.832031 0.00390625 L 9.054688 1.78125 C 8.832031 1.808594 8.667969 2 8.667969 2.222656 L 8.667969 17.609375 C 7.855469 16.632812 6.566406 16 5.109375 16 C 2.660156 16 0.667969 17.792969 0.667969 20 C 0.667969 22.207031 2.660156 24 5.109375 24 C 7.5625 24 9.554688 22.207031 9.554688 20 L 9.554688 5.28125 L 22.445312 3.617188 L 22.445312 13.609375 C 21.632812 12.632812 20.34375 12 18.890625 12 C 16.4375 12 14.445312 13.792969 14.445312 16 C 14.445312 18.207031 16.4375 20 18.890625 20 C 21.339844 20 23.332031 18.207031 23.332031 16 L 23.332031 0.445312 C 23.332031 0.316406 23.277344 0.195312 23.183594 0.109375 Z M 5.109375 23.109375 C 3.152344 23.109375 1.554688 21.714844 1.554688 20 C 1.554688 18.285156 3.152344 16.890625 5.109375 16.890625 C 7.070312 16.890625 8.667969 18.285156 8.667969 20 C 8.667969 21.714844 7.070312 23.109375 5.109375 23.109375 Z M 18.890625 19.109375 C 16.929688 19.109375 15.332031 17.714844 15.332031 16 C 15.332031 14.285156 16.929688 12.890625 18.890625 12.890625 C 20.847656 12.890625 22.445312 14.285156 22.445312 16 C 22.445312 17.714844 20.847656 19.109375 18.890625 19.109375 Z M 9.554688 2.613281 L 22.445312 0.949219 L 22.445312 2.71875 L 9.554688 4.382812 Z M 9.554688 2.613281"/>
</svg>
