<svg xmlns="http://www.w3.org/2000/svg" width="32" height="32" viewBox="0 0 24 24">
    <path d="M24 12a2.99 2.99 0 0 0-2.988-2.988c-.02 0-.04.004-.059.004a9.325 9.325 0 0 0-.543-1.207c.027-.024.05-.043.074-.067a2.987 2.987 0 0 0 0-4.226 2.953 2.953 0 0 0-2.113-.875 2.95 2.95 0 0 0-2.11.875c-.07.066-.136.14-.198.218a9.013 9.013 0 0 0-1.094-.418A2.99 2.99 0 0 0 12 0a2.99 2.99 0 0 0-2.988 2.988c0 .153.015.309.039.461a8.716 8.716 0 0 0-1.035.45 3.582 3.582 0 0 0-.274-.32 2.983 2.983 0 0 0-2.113-.876c-.797 0-1.55.313-2.113.875a2.966 2.966 0 0 0-.875 2.113c0 .801.308 1.551.875 2.114.105.105.218.203.34.293-.153.308-.29.625-.407.953a3.059 3.059 0 0 0-.46-.04A2.99 2.99 0 0 0 0 12a2.99 2.99 0 0 0 3.316 2.969c.114.375.258.738.418 1.094a2.987 2.987 0 0 0-.219 4.422 2.953 2.953 0 0 0 2.114.874 2.95 2.95 0 0 0 2.11-.875l.07-.074c.386.207.789.39 1.207.543 0 .02-.004.04-.004.059A2.99 2.99 0 0 0 12 24a2.989 2.989 0 0 0 2.984-2.906c.45-.14.883-.317 1.301-.52.563.547 1.3.852 2.086.852.8 0 1.55-.313 2.113-.875a2.995 2.995 0 0 0 .047-4.18c.223-.441.41-.906.563-1.387A2.989 2.989 0 0 0 24 12zm-4.734 6.438c0 .218-.086.43-.243.585a.84.84 0 0 1-.734.227c.344-.297.664-.617.961-.96a.91.91 0 0 1 .016.148zm-2.399.851c-.164.106-.332.207-.504.305-.05.027-.101.058-.152.086a8.24 8.24 0 0 1-1.441.613l-.27.074c-.027.008-.055.012-.086.02a8.552 8.552 0 0 1-1.062.218c-.051.004-.102.016-.153.02-.12.016-.242.023-.36.031-.155.012-.308.024-.464.024-.09.004-.18.004-.27.004-.199 0-.398-.012-.597-.028-.211-.023-.434-.05-.668-.086-.067-.011-.137-.02-.203-.03a8.696 8.696 0 0 1-.719-.173c-.105-.031-.211-.055-.316-.09a8.28 8.28 0 0 1-1.418-.605l-.106-.063c-.094-.05-.18-.109-.27-.164a7.752 7.752 0 0 1-.835-.578c-.02-.015-.043-.027-.063-.043-.11-.09-.21-.183-.316-.273a10.488 10.488 0 0 1-.223-.203 9.815 9.815 0 0 1-.285-.285c-.07-.075-.14-.149-.207-.227-.086-.098-.172-.191-.254-.29-.008-.01-.02-.026-.027-.038-.094-.113-.18-.235-.266-.352-.027-.035-.055-.066-.078-.101A8.451 8.451 0 0 1 5 16.66a9.15 9.15 0 0 1-.348-.617 8.242 8.242 0 0 1-.539-1.297l-.078-.297a8.805 8.805 0 0 1-.203-.945c-.012-.094-.027-.184-.039-.274-.016-.105-.023-.207-.035-.312-.016-.234-.035-.473-.035-.711 0-.234.02-.46.035-.691.02-.18.039-.371.07-.575l.012-.066c.012-.074.02-.152.035-.227a8.641 8.641 0 0 1 .21-.887c.009-.027.017-.058.024-.09a8.542 8.542 0 0 1 1.047-2.175l.051-.074c.094-.137.2-.27.3-.402.095-.122.192-.239.29-.352.039-.047.082-.094.125-.137.195-.215.398-.422.613-.613.043-.04.086-.082.133-.121.113-.102.234-.195.355-.29.11-.085.223-.171.336-.253.051-.035.102-.074.157-.11.203-.136.414-.265.632-.382l.032-.02a8.308 8.308 0 0 1 1.496-.633.293.293 0 0 1 .062-.015c.219-.07.442-.125.668-.176l.188-.035c.113-.024.23-.04.347-.055.204-.031.391-.05.57-.07.2-.016.4-.028.598-.031.086 0 .168.003.25.003a8.436 8.436 0 0 1 1.996.281l.145.036.246.066c.45.14.883.324 1.297.54.145.074.289.152.43.234.062.035.12.074.183.113.133.082.27.164.395.254.035.023.066.05.101.074a8.42 8.42 0 0 1 .391.297c.102.078.195.168.293.254.074.066.152.137.227.207.097.094.19.187.285.285.07.07.136.149.203.223.094.105.183.207.27.316.023.027.042.059.066.086.199.254.383.524.554.805.059.097.122.191.176.289l.055.09a8.6 8.6 0 0 1 .605 1.418c.04.125.07.254.106.379.031.12.066.238.094.359.023.11.043.219.066.328l.023.164c.004.004.004.008.004.012.04.234.067.457.086.668.016.234.035.465.035.699 0 .234-.02.461-.035.691l-.011.106c-.008.074-.012.152-.024.23-.012.11-.031.215-.05.325a9.36 9.36 0 0 1-.18.847l-.024.094-.074.27a8.5 8.5 0 0 1-1.04 2.152l-.046.066c-.086.13-.187.254-.281.38-.102.128-.203.253-.309.378-.027.031-.058.063-.086.098a9.405 9.405 0 0 1-.683.683c-.035.028-.067.063-.102.09-.125.106-.25.207-.379.309-.11.082-.219.168-.332.25-.058.035-.113.074-.168.113zm-5.496 2.188a9.003 9.003 0 0 0 .5.031c.04.004.078.004.117.008H12.27c.062 0 .128-.004.195-.004.031 0 .062-.004.094-.004.054 0 .109-.004.168-.008a.83.83 0 0 1-.727.43.816.816 0 0 1-.734-.461c.035.004.07.008.105.008zM6 19.14a.851.851 0 0 1-1.023-.118.821.821 0 0 1-.243-.585c0-.176.055-.344.157-.485.164.211.336.41.515.602.016.015.028.03.043.047.168.175.344.351.524.515.011.008.015.016.027.024zm-3.082-6.313a.828.828 0 1 1-.02-1.656c.016 0 .036 0 .055.004-.012.11-.02.215-.027.324l-.012.16a9.547 9.547 0 0 0 .004 1.129v.04zm3.266-7.71a9.133 9.133 0 0 0-.864.831h-.004c-.078.09-.156.18-.23.27a.816.816 0 0 1-.121-.426c0-.457.37-.828.828-.828.152 0 .3.043.426.12a.253.253 0 0 0-.035.032zm4.988-2.22a.829.829 0 0 1 1.656 0v.02c-.015 0-.031 0-.047-.004-.074-.004-.148-.008-.222-.008h-.024c-.012-.004-.023-.004-.035-.004-.066 0-.133-.004-.195-.004H12.008c-.051 0-.102.004-.156.008l-.27.012c-.082.008-.164.012-.246.02-.055.007-.11.011-.16.019-.004-.023-.004-.043-.004-.059zM19.14 6l-.024-.023a9.508 9.508 0 0 0-.52-.532c-.011-.011-.027-.023-.038-.039a9.576 9.576 0 0 0-.606-.515.856.856 0 0 1 1.07.086A.828.828 0 0 1 19.141 6zm2.375 6.207c0-.187-.004-.371-.016-.555l-.012-.125c-.004-.09-.008-.18-.02-.27a.83.83 0 0 1 .032 1.473c.012-.175.016-.347.016-.523zM23.172 12c0 1.09-.809 1.992-1.856 2.14.036-.171.067-.343.094-.515A1.656 1.656 0 0 0 22.758 12c0-.832-.621-1.52-1.426-1.633a11.15 11.15 0 0 0-.117-.52A2.167 2.167 0 0 1 23.172 12zm-6.328-7.898a2.15 2.15 0 0 1 3.054 0c.41.406.633.949.633 1.527 0 .539-.199 1.05-.558 1.45a10.492 10.492 0 0 0-.301-.427 1.649 1.649 0 0 0-.066-2.262 1.64 1.64 0 0 0-1.169-.484c-.44 0-.859.172-1.171.485 0 .004 0 .004-.004.004a10.246 10.246 0 0 0-.442-.27l.024-.023zm-6.996-.903A2.162 2.162 0 0 1 12 .828c1.191 0 2.16.969 2.16 2.16 0 .04 0 .078-.004.117-.168-.039-.34-.07-.511-.097.003-.04.011-.074.011-.11a1.657 1.657 0 0 0-3.312 0c0 .059.015.122.023.18-.004.004-.008.004-.012.004-.168.035-.332.074-.496.113-.004.004-.007.004-.011.004zm-5.746.965a2.162 2.162 0 0 1 3.055 0c.042.047.085.094.128.145-.027.015-.05.035-.078.05-.102.067-.203.13-.3.2-.005 0-.005.003-.009.007a1.64 1.64 0 0 0-1.105-.43c-.914 0-1.656.743-1.656 1.657 0 .414.156.8.426 1.102a7.4 7.4 0 0 0-.305.468 2.16 2.16 0 0 1-.156-3.2zM.828 12c0-1.191.969-2.16 2.16-2.16.07 0 .14.004.211.008v.007a5.95 5.95 0 0 0-.117.508c-.062-.004-.125-.02-.184-.02a1.657 1.657 0 0 0 0 3.313c.036 0 .07-.008.11-.011.027.171.058.343.094.511A2.15 2.15 0 0 1 .828 12zm4.8 8.535a2.136 2.136 0 0 1-1.526-.637 2.16 2.16 0 0 1 .023-3.078c.086.149.176.297.27.446-.317.312-.489.73-.489 1.172 0 .44.172.859.489 1.171a1.64 1.64 0 0 0 2.257.067c.141.101.282.203.426.297a2.14 2.14 0 0 1-1.45.562zM12 23.172a2.167 2.167 0 0 1-2.152-1.957c.172.043.347.082.52.117.112.805.8 1.426 1.632 1.426.809 0 1.48-.582 1.625-1.348.172-.027.344-.058.516-.094A2.164 2.164 0 0 1 12 23.172zm8.102-6.031a2.166 2.166 0 0 1-.204 2.824c-.406.406-.949.633-1.527.633a2.14 2.14 0 0 1-1.312-.446c.046-.027.09-.058.136-.09.082-.05.164-.105.246-.16.036-.023.07-.047.106-.074.265.172.57.266.89.266a1.656 1.656 0 0 0 1.657-1.657c0-.316-.094-.62-.266-.886.031-.04.055-.082.082-.125l.035-.051c.055-.078.106-.152.157-.234zm0 0"/>
    <path d="M19.45 12.207c0-3.992-3.25-7.242-7.243-7.242-3.992 0-7.242 3.25-7.242 7.242s3.25 7.242 7.242 7.242 7.242-3.25 7.242-7.242zm-7.243 6.414a6.423 6.423 0 0 1-6.414-6.414 6.423 6.423 0 0 1 6.414-6.414 6.423 6.423 0 0 1 6.414 6.414 6.423 6.423 0 0 1-6.414 6.414zm0 0"/>
    <path d="M13.328 7.363a.41.41 0 0 0-.586 0L7.57 12.535a.41.41 0 0 0 0 .586.42.42 0 0 0 .293.121c.106 0 .211-.043.293-.12l5.172-5.173a.417.417 0 0 0 0-.586zm0 0M12.95 10.05l-2.9 2.9a.417.417 0 0 0 0 .585.428.428 0 0 0 .294.121.42.42 0 0 0 .293-.12l2.898-2.9a.417.417 0 0 0 0-.585.417.417 0 0 0-.586 0zm0 0"/>
</svg>
