<svg xmlns="http://www.w3.org/2000/svg" width="32" height="32" viewBox="0 0 24 24">
    <path d="M24 12a2.853 2.853 0 0 0-2.453-2.816 9.93 9.93 0 0 0-2.5-4.23 9.937 9.937 0 0 0-4.262-2.513A2.847 2.847 0 0 0 11.973.027a2.851 2.851 0 0 0-2.813 2.43 10.09 10.09 0 0 0-1.926.797 2.81 2.81 0 0 0-1.707-.574c-.761 0-1.472.297-2.011.836a2.815 2.815 0 0 0-.836 2.011c0 .625.203 1.22.574 1.707a9.732 9.732 0 0 0-.8 1.95A2.853 2.853 0 0 0 0 12a2.853 2.853 0 0 0 2.453 2.816 9.93 9.93 0 0 0 2.5 4.23 9.936 9.936 0 0 0 4.262 2.517 2.85 2.85 0 0 0 2.812 2.41 2.85 2.85 0 0 0 2.813-2.426 9.942 9.942 0 0 0 1.922-.8 2.829 2.829 0 0 0 1.71.573c.762 0 1.473-.297 2.012-.836.54-.535.836-1.25.836-2.011 0-.625-.203-1.215-.574-1.707.332-.61.602-1.262.8-1.95A2.853 2.853 0 0 0 24 12zm-.813 0c0 1.09-.867 1.977-1.949 2.023h-.015l-.07.012c-.41 0-.79-.125-1.106-.332l-.121-.094a1.997 1.997 0 0 1-.309-.293.637.637 0 0 1-.066-.078 1.355 1.355 0 0 1-.121-.172 1.718 1.718 0 0 1-.121-.218l-.047-.11c-.04-.097-.07-.199-.094-.304l-.012-.067a1.888 1.888 0 0 1-.039-.367c0-.125.016-.25.04-.367l.011-.067c.023-.105.055-.21.098-.308a.793.793 0 0 1 .043-.102 1.37 1.37 0 0 1 .128-.234 1.405 1.405 0 0 1 .188-.246c.09-.106.191-.203.305-.29l.117-.09a2.043 2.043 0 0 1 1.101-.331l.016.004A2.033 2.033 0 0 1 23.187 12zm-2.921 2.703c.035.012.07.024.105.031.05.016.102.028.152.04.04.007.075.015.114.023.023.004.043.012.066.015a8.804 8.804 0 0 1-.555 1.356c-.011-.008-.023-.012-.035-.02a2.857 2.857 0 0 0-.328-.203.394.394 0 0 0-.058-.027 2.142 2.142 0 0 0-.309-.129c.195-.39.363-.8.5-1.226l.098.046c.03.016.066.028.097.04.051.019.102.039.153.054zm-2.012.934a1.273 1.273 0 0 0-.176.02 1.136 1.136 0 0 0-.121.015c-.05.008-.098.02-.148.031l-.133.035c-.047.012-.09.028-.133.043-.047.016-.094.031-.137.051a1.207 1.207 0 0 0-.125.055c-.047.02-.09.039-.133.062-.043.024-.085.051-.125.074-.039.024-.082.047-.12.07-.048.032-.09.067-.133.102-.036.024-.067.043-.098.07-.074.06-.145.126-.215.192a2.277 2.277 0 0 0-.309.375c-.011.016-.023.027-.035.043-.004.012-.015.02-.02.031a1.874 1.874 0 0 0-.124.211c-.008.008-.012.02-.02.031-.023.043-.039.086-.058.13a.636.636 0 0 0-.024.05c-.008.016-.015.027-.02.043-.003.012-.011.02-.015.031-.027.07-.05.141-.074.215a.474.474 0 0 1-.02.055 2.912 2.912 0 0 0-.023.09c-.004.011-.004.02-.008.031-.004.023-.008.047-.016.07-.004.028-.011.055-.015.086-.012.055-.02.11-.024.164-.007.043-.011.086-.015.125 0 .012-.004.024-.004.032-.004.035 0 .066-.004.097 0 .059-.004.117 0 .176v.043c-.48.262-.984.473-1.504.625-.023-.027-.047-.055-.074-.082-.024-.024-.047-.043-.07-.067a1.61 1.61 0 0 0-.122-.109c-.027-.023-.054-.047-.082-.066-.043-.032-.082-.067-.125-.094-.03-.023-.062-.043-.093-.063-.04-.023-.079-.05-.121-.074-.004 0-.008-.004-.012-.004-.031-.02-.063-.035-.098-.054-.039-.02-.082-.043-.125-.063-.015-.004-.027-.012-.043-.02-.023-.007-.047-.019-.07-.027a1.937 1.937 0 0 0-.137-.05l-.066-.024c-.016-.008-.035-.012-.051-.016-.047-.015-.098-.027-.149-.039-.027-.007-.05-.015-.078-.02-.011-.003-.023-.003-.035-.007-.058-.012-.117-.02-.176-.027l-.078-.012h-.015c-.094-.008-.184-.016-.282-.016-.093 0-.183.008-.277.016h-.016c-.03.004-.058.012-.09.016l-.163.023c-.012.004-.024.004-.036.008l-.09.023-.14.035a.22.22 0 0 0-.047.016c-.027.008-.055.02-.082.027l-.121.047c-.024.008-.047.02-.07.028-.02.007-.04.02-.059.027-.039.02-.078.035-.113.055-.031.02-.063.035-.094.05-.008.008-.02.012-.027.02-.04.02-.075.043-.11.066l-.093.059c-.043.031-.082.062-.122.094-.03.023-.058.043-.085.066-.04.035-.079.074-.118.11-.027.023-.05.046-.074.07-.031.027-.055.058-.082.09a7.458 7.458 0 0 1-5.137-5.133c.024-.024.047-.043.07-.067.024-.023.044-.046.067-.07.035-.039.074-.078.11-.121.023-.027.042-.055.066-.086.031-.039.062-.078.09-.121.023-.031.043-.063.062-.094.028-.043.055-.086.078-.129a.839.839 0 0 0 .055-.101c.023-.043.047-.09.066-.137.016-.035.032-.066.047-.101l.051-.145c.004-.012.008-.02.012-.027 0-.008.004-.016.008-.028.003-.015.011-.035.015-.054.016-.051.028-.102.043-.157 0-.007.004-.015.004-.023l.012-.047c.004-.012.004-.023.008-.035.011-.059.02-.117.027-.18 0-.008 0-.012.004-.02 0-.015.004-.034.008-.054v-.016A2.16 2.16 0 0 0 5.695 12a2.16 2.16 0 0 0-.015-.277v-.016c0-.016-.004-.027-.008-.039 0-.012-.004-.023-.004-.035a2.475 2.475 0 0 0-.027-.18c-.004-.012-.004-.023-.008-.035 0-.012-.004-.02-.004-.027l-.012-.043a2.325 2.325 0 0 0-.043-.157c-.004-.02-.008-.039-.015-.054v-.008c-.004-.016-.012-.027-.016-.043-.02-.05-.035-.102-.055-.149-.015-.035-.031-.066-.047-.101-.02-.047-.043-.094-.066-.14-.016-.032-.031-.067-.05-.098a2.267 2.267 0 0 1-.079-.13c-.023-.03-.043-.062-.062-.093-.032-.043-.063-.082-.094-.125a1.223 1.223 0 0 0-.067-.082c-.035-.043-.074-.082-.113-.125-.02-.02-.039-.043-.062-.066l-.063-.059a7.39 7.39 0 0 1 .633-1.547h.016c.03 0 .062.004.093.004.047 0 .09-.004.137-.004.027-.004.055-.004.078-.004l.192-.023c.035-.004.07-.008.101-.016.059-.008.117-.023.172-.035.04-.012.074-.02.11-.027.054-.016.109-.036.163-.055a3.037 3.037 0 0 0 .27-.113c.031-.016.063-.028.094-.043.054-.032.11-.063.16-.094.031-.02.059-.035.09-.05.054-.04.11-.079.16-.122.023-.016.05-.031.07-.05a2.6 2.6 0 0 0 .528-.571l.035-.043c.004-.012.015-.02.02-.031.05-.074.093-.149.132-.227.004-.004.008-.008.012-.015.023-.043.039-.086.062-.13.008-.015.012-.03.02-.05l.023-.05.012-.024c.027-.07.05-.145.074-.22a.22.22 0 0 0 .016-.046.713.713 0 0 0 .027-.098c.004-.007.004-.015.008-.027.004-.023.008-.047.016-.07.004-.028.011-.055.015-.086.012-.055.02-.106.024-.16.007-.043.011-.086.015-.133.004-.012.004-.02.004-.028.004-.03 0-.066.004-.097 0-.059.004-.117 0-.176v-.039a7.42 7.42 0 0 1 1.508-.621l.07.074.07.066c.04.04.079.075.122.114.027.02.054.043.082.062.043.032.082.067.129.094a.735.735 0 0 0 .09.063c.038.027.085.05.128.078h.004c.031.02.063.039.094.054l.137.067c.011.004.023.008.035.015.023.008.047.02.07.028.047.02.094.039.145.054.02.008.039.016.058.02a.193.193 0 0 0 .051.016c.05.015.102.027.152.039.028.007.051.015.075.02.011.003.023.003.035.007.058.012.117.02.18.027l.074.012h.015c.094.008.184.016.282.016.093 0 .183-.008.277-.016h.016c.03-.004.058-.012.085-.016.06-.007.114-.011.168-.023.012-.004.024-.004.036-.008.03-.004.058-.015.09-.023.046-.012.093-.02.136-.035a.193.193 0 0 0 .05-.016c.028-.008.056-.016.083-.027.039-.016.082-.028.121-.047.024-.008.047-.016.07-.028.02-.007.04-.02.059-.027.039-.016.074-.035.113-.055.031-.015.063-.035.094-.05l.027-.016.106-.066c.031-.02.062-.043.094-.063.043-.031.085-.062.125-.094.027-.023.058-.043.085-.066a3 3 0 0 0 .118-.11c.023-.023.05-.042.074-.07.027-.027.055-.058.082-.09a7.492 7.492 0 0 1 3.238 1.903 7.52 7.52 0 0 1 1.899 3.23c-.024.024-.047.043-.07.067l-.063.066a1.72 1.72 0 0 0-.113.125c-.024.027-.043.055-.063.082a1.594 1.594 0 0 0-.098.129c-.02.027-.039.059-.058.09-.028.043-.055.086-.082.133-.016.03-.035.062-.051.097-.023.043-.047.09-.066.137-.016.035-.032.066-.043.101-.02.051-.04.098-.055.149l-.012.023c0 .008-.004.02-.008.028-.003.02-.011.035-.015.054-.016.051-.028.106-.043.16 0 .004-.004.012-.004.02l-.012.047c-.004.012-.004.023-.008.035-.011.059-.02.121-.027.18 0 .008 0 .012-.004.02a.306.306 0 0 1-.008.054v.016a2.16 2.16 0 0 0-.015.277c0 .094.004.188.015.277v.016c0 .016.004.027.008.039 0 .012.004.023.004.035.008.063.016.121.027.18.004.012.004.023.008.035 0 .012.004.02.004.027l.012.043c.012.051.027.106.043.157.004.02.008.039.015.054v.008c.004.012.012.027.016.043.02.05.035.098.055.149.015.035.031.066.047.101a2.425 2.425 0 0 0 .117.238 5636.9 5636.9 0 0 1 .14.223c.032.043.063.082.094.125.024.027.043.055.067.082.035.043.074.086.113.125.02.023.039.047.062.066.02.02.043.04.067.059a7.618 7.618 0 0 1-.637 1.547h-.016c-.03 0-.062-.004-.093-.004-.043 0-.086.004-.133.008-.027 0-.059 0-.086.004zM3.738 9.297c-.039-.012-.074-.024-.11-.031a2.18 2.18 0 0 0-.151-.04.53.53 0 0 0-.114-.023c-.023-.004-.047-.012-.07-.015.152-.473.34-.926.559-1.356.011.008.023.012.035.02.105.074.215.144.328.203.02.011.039.02.058.027.098.05.204.094.309.129-.2.39-.363.8-.5 1.226-.035-.015-.066-.03-.098-.046a.783.783 0 0 0-.101-.04 2.18 2.18 0 0 0-.145-.054zm16.965-.11c-.023.004-.047.012-.07.016a1.07 1.07 0 0 0-.11.02c-.05.015-.101.027-.152.043-.035.007-.07.02-.105.03-.051.017-.102.036-.153.056-.031.011-.066.023-.097.039-.032.011-.059.027-.09.039a8.32 8.32 0 0 0-2.028-3.328 8.315 8.315 0 0 0-3.343-2.032L14.59 4l.035-.094.059-.156c.011-.035.02-.07.027-.105.016-.051.031-.102.043-.157a1.07 1.07 0 0 0 .02-.11c.007-.03.015-.058.019-.089a9.125 9.125 0 0 1 3.68 2.238 9.107 9.107 0 0 1 2.23 3.66zM11.973.84c1.078 0 1.949.84 2.023 1.898v.035c0 .032.004.063.012.102 0 .406-.125.785-.332 1.105l-.07.094a1.878 1.878 0 0 1-.278.305 2.154 2.154 0 0 1-.254.2 1.92 1.92 0 0 1-.265.144l-.082.035c-.102.043-.211.078-.32.101l-.063.012c-.121.02-.242.035-.371.035a2.25 2.25 0 0 1-.368-.035l-.062-.012a2.124 2.124 0 0 1-.316-.097c-.032-.016-.063-.028-.094-.043a1.861 1.861 0 0 1-.246-.133c-.047-.031-.094-.066-.14-.102-.04-.027-.075-.058-.11-.09a2.384 2.384 0 0 1-.285-.308l-.079-.106c-.21-.32-.332-.699-.332-1.109.004-.027.008-.055.008-.086v-.023A2.033 2.033 0 0 1 11.973.84zM9.16 3.305c.004.027.012.05.016.078.008.039.011.078.023.113.012.05.024.102.04.152a1.664 1.664 0 0 0 .086.258.727.727 0 0 0 .038.098c.012.031.028.059.04.086a8.67 8.67 0 0 0-1.192.492 2.894 2.894 0 0 0-.106-.254.302.302 0 0 0-.027-.062 3.177 3.177 0 0 0-.226-.383c-.008-.008-.012-.02-.02-.031a9.03 9.03 0 0 1 1.328-.547zm-5.07.785a2.02 2.02 0 0 1 1.437-.594c.543 0 1.055.211 1.438.594.39.39.586.902.594 1.414 0 .023 0 .05-.004.074 0 .106-.008.207-.028.309-.004.011-.004.027-.007.043a2.06 2.06 0 0 1-.098.336l-.024.05a1.74 1.74 0 0 1-.164.317c-.007.012-.02.027-.027.039-.07.101-.148.203-.238.293a2.2 2.2 0 0 1-.282.23c-.015.012-.035.028-.054.04a2.108 2.108 0 0 1-.293.156l-.074.03c-.106.04-.211.075-.32.099-.024.003-.044.003-.067.007a2.275 2.275 0 0 1-.285.028c-.032 0-.063.004-.098.004a2.023 2.023 0 0 1-1.418-.61 2.02 2.02 0 0 1-.582-1.422c0-.543.211-1.054.594-1.437zM.813 12c0-1.09.867-1.977 1.945-2.023h.015l.075-.012c.41 0 .789.125 1.105.332l.121.094a2.164 2.164 0 0 1 .375.37c.043.055.082.106.117.165.047.074.09.148.125.23l.047.102c.04.101.07.203.094.308l.012.067c.023.117.039.242.039.367s-.016.25-.04.367l-.011.067a1.767 1.767 0 0 1-.098.308c-.011.035-.027.067-.043.102a1.933 1.933 0 0 1-.125.234c-.035.05-.074.106-.113.156-.023.032-.05.059-.074.09a2.164 2.164 0 0 1-.309.29l-.117.09a2.007 2.007 0 0 1-1.101.327h-.02A2.035 2.035 0 0 1 .812 12zm2.484 2.813c.023-.004.047-.012.07-.016l.11-.024a2.18 2.18 0 0 0 .152-.039 2.18 2.18 0 0 0 .254-.086c.035-.011.07-.027.101-.039.032-.015.059-.027.09-.043a8.294 8.294 0 0 0 2.028 3.329 8.34 8.34 0 0 0 3.343 2.035L9.41 20a2.177 2.177 0 0 1-.035.09c-.02.055-.04.105-.059.16-.011.035-.02.07-.027.102-.016.054-.031.105-.043.16-.008.035-.012.074-.02.11-.007.03-.015.062-.019.093a9.107 9.107 0 0 1-5.91-5.902zm8.73 8.347c-1.078 0-1.949-.84-2.023-1.898v-.028a.58.58 0 0 0-.012-.109c0-.406.125-.785.332-1.105l.07-.094a2.154 2.154 0 0 1 .531-.504 1.92 1.92 0 0 1 .266-.145l.082-.035c.102-.043.211-.078.32-.101l.063-.012c.121-.02.242-.035.371-.035.125 0 .25.015.371.035l.059.012c.11.023.215.058.32.101.028.012.059.024.086.04.09.038.176.085.258.136.043.027.082.062.125.094.043.031.086.066.125.101a2.2 2.2 0 0 1 .274.297c0 .004.003.004.007.008l.075.102c.207.32.332.699.332 1.109-.004.031-.008.062-.008.094v.02a2.033 2.033 0 0 1-2.024 1.917zm2.813-2.46c-.004-.028-.012-.055-.016-.087-.008-.035-.011-.07-.02-.105-.011-.055-.027-.106-.042-.16-.008-.035-.02-.067-.032-.102-.015-.055-.035-.105-.054-.156-.012-.031-.024-.063-.04-.094l-.034-.082a8.29 8.29 0 0 0 1.187-.496c.031.086.066.168.102.25.011.023.02.047.03.066.067.133.142.258.227.38.008.011.012.023.02.034a9.15 9.15 0 0 1-1.328.551zm5.07-.79a2.02 2.02 0 0 1-1.437.594 2.02 2.02 0 0 1-1.438-.594 2.035 2.035 0 0 1-.594-1.414c0-.023 0-.05.004-.074 0-.102.008-.207.028-.309.004-.011.004-.027.007-.043a2.06 2.06 0 0 1 .098-.336l.024-.05a1.74 1.74 0 0 1 .164-.317c.007-.012.02-.027.027-.039.07-.105.148-.203.242-.293.086-.09.18-.164.281-.23.016-.012.032-.028.051-.04.094-.062.195-.113.297-.16a2.327 2.327 0 0 1 .39-.125c.024-.003.044-.003.063-.007.094-.016.192-.028.29-.028.034-.004.066-.004.097-.004a2.032 2.032 0 0 1 1.406 3.47zm0 0"/>
</svg>
