<svg xmlns="http://www.w3.org/2000/svg" width="32" height="32" viewBox="0 0 24 24">
    <path d="M 23.707031 0.289062 C 23.332031 -0.0898438 22.671875 -0.0898438 22.292969 0.289062 L 18.679688 3.898438 C 16.792969 3.179688 14.5625 2.796875 12.199219 2.796875 C 9.742188 2.796875 7.355469 3.230469 5.433594 4.011719 L 1.707031 0.289062 C 1.328125 -0.0898438 0.671875 -0.0898438 0.292969 0.289062 C -0.0976562 0.675781 -0.0976562 1.3125 0.292969 1.703125 L 3.570312 4.976562 C 2.039062 5.996094 1.199219 7.265625 1.199219 8.59375 C 1.199219 13.003906 3.171875 16.984375 6.109375 19.347656 L 4.515625 20.941406 C 4.359375 21.097656 4.359375 21.351562 4.515625 21.507812 L 5.648438 22.636719 C 5.726562 22.714844 5.828125 22.753906 5.929688 22.753906 C 6.03125 22.753906 6.136719 22.714844 6.214844 22.636719 L 8.191406 20.660156 C 9.140625 21.117188 10.152344 21.417969 11.199219 21.535156 L 11.199219 23.59375 C 11.199219 23.816406 11.378906 23.996094 11.597656 23.996094 L 13.199219 23.996094 C 13.421875 23.996094 13.597656 23.816406 13.597656 23.59375 L 13.597656 21.480469 C 14.605469 21.324219 15.570312 21 16.476562 20.53125 L 18.585938 22.636719 C 18.664062 22.714844 18.765625 22.753906 18.867188 22.753906 C 18.96875 22.753906 19.074219 22.714844 19.152344 22.636719 L 20.28125 21.507812 C 20.359375 21.429688 20.398438 21.332031 20.398438 21.222656 C 20.398438 21.117188 20.359375 21.015625 20.28125 20.941406 L 18.507812 19.164062 C 21.324219 16.785156 23.199219 12.894531 23.199219 8.59375 C 23.199219 7.191406 22.273438 5.863281 20.585938 4.820312 L 23.707031 1.703125 C 24.097656 1.3125 24.097656 0.675781 23.707031 0.289062 Z M 5.929688 21.789062 L 5.367188 21.222656 L 6.746094 19.84375 C 6.972656 20 7.203125 20.144531 7.441406 20.28125 Z M 18.867188 21.789062 L 17.207031 20.128906 C 17.4375 19.988281 17.664062 19.835938 17.882812 19.675781 L 19.433594 21.222656 Z M 0.859375 0.851562 C 0.910156 0.800781 0.96875 0.792969 1 0.792969 C 1.03125 0.792969 1.089844 0.800781 1.140625 0.851562 L 8.953125 8.667969 C 9.132812 8.84375 9.300781 9.035156 9.453125 9.230469 L 9.996094 9.929688 C 10.003906 9.9375 10.007812 9.945312 10.007812 9.953125 C 10.007812 9.953125 10.011719 9.953125 10.011719 9.957031 C 10.011719 9.964844 10.007812 9.972656 9.992188 9.988281 C 9.964844 10.015625 9.953125 10.007812 9.9375 9.992188 L 9.238281 9.449219 C 9.148438 9.382812 9.070312 9.300781 8.988281 9.226562 C 8.882812 9.136719 8.769531 9.046875 8.671875 8.949219 L 4.269531 4.550781 L 0.859375 1.136719 C 0.78125 1.058594 0.78125 0.933594 0.859375 0.851562 Z M 12.800781 21.574219 L 12.800781 23.195312 L 12 23.195312 L 12 21.59375 C 12.019531 21.59375 12.042969 21.589844 12.066406 21.589844 C 12.109375 21.59375 12.15625 21.597656 12.199219 21.597656 C 12.398438 21.597656 12.597656 21.585938 12.796875 21.574219 C 12.796875 21.574219 12.796875 21.574219 12.800781 21.574219 Z M 17.5 18.957031 C 17.433594 19.003906 17.363281 19.054688 17.296875 19.101562 C 17.125 19.222656 16.949219 19.339844 16.769531 19.449219 C 16.6875 19.503906 16.601562 19.554688 16.515625 19.605469 C 15.46875 20.210938 14.324219 20.605469 13.132812 20.742188 C 12.898438 20.765625 12.667969 20.78125 12.445312 20.789062 C 12.40625 20.789062 12.367188 20.792969 12.328125 20.792969 C 12.09375 20.796875 11.859375 20.789062 11.628906 20.773438 C 8.191406 20.535156 5.148438 18.144531 3.441406 14.746094 C 5.191406 15.890625 8.261719 16.796875 12.199219 16.796875 C 16.015625 16.796875 19.179688 15.878906 20.960938 14.738281 C 20.105469 16.445312 18.914062 17.902344 17.5 18.957031 Z M 21.703125 12.941406 C 21.683594 12.964844 21.660156 12.984375 21.644531 13.011719 C 21.027344 14.214844 17.601562 15.996094 12.199219 15.996094 C 6.832031 15.996094 3.441406 14.246094 2.75 13 C 2.734375 12.976562 2.714844 12.960938 2.699219 12.941406 C 2.5 12.339844 2.339844 11.71875 2.222656 11.078125 C 3.957031 13.054688 7.726562 14.394531 12.199219 14.394531 C 16.675781 14.394531 20.441406 13.054688 22.175781 11.078125 C 22.0625 11.714844 21.902344 12.339844 21.703125 12.941406 Z M 22.402344 8.59375 C 22.402344 11.304688 17.730469 13.59375 12.199219 13.59375 C 6.671875 13.59375 2 11.304688 2 8.59375 C 2 7.507812 2.757812 6.433594 4.144531 5.554688 L 8.105469 9.515625 C 8.304688 9.714844 8.519531 9.90625 8.746094 10.078125 L 9.445312 10.621094 C 9.449219 10.625 9.453125 10.628906 9.457031 10.632812 C 9.492188 10.660156 9.53125 10.683594 9.574219 10.707031 C 9.589844 10.714844 9.605469 10.722656 9.625 10.730469 C 9.652344 10.742188 9.679688 10.753906 9.707031 10.765625 C 9.726562 10.769531 9.75 10.773438 9.769531 10.78125 C 9.792969 10.785156 9.820312 10.792969 9.847656 10.796875 C 9.871094 10.800781 9.890625 10.800781 9.910156 10.804688 C 9.929688 10.804688 9.949219 10.808594 9.964844 10.808594 C 9.972656 10.808594 9.980469 10.804688 9.988281 10.804688 C 10.019531 10.804688 10.050781 10.800781 10.078125 10.796875 C 10.101562 10.792969 10.121094 10.789062 10.140625 10.785156 C 10.171875 10.777344 10.203125 10.769531 10.234375 10.757812 C 10.253906 10.75 10.269531 10.746094 10.289062 10.738281 C 10.320312 10.722656 10.355469 10.703125 10.386719 10.6875 C 10.398438 10.675781 10.414062 10.671875 10.429688 10.660156 C 10.46875 10.632812 10.507812 10.597656 10.546875 10.5625 C 10.550781 10.558594 10.554688 10.558594 10.558594 10.554688 C 10.867188 10.242188 10.898438 9.785156 10.628906 9.4375 L 10.085938 8.738281 C 9.910156 8.515625 9.722656 8.300781 9.519531 8.101562 L 6.042969 4.625 C 7.816406 3.957031 9.976562 3.59375 12.199219 3.59375 C 14.324219 3.59375 16.335938 3.914062 18.0625 4.519531 L 14.480469 8.101562 C 14.277344 8.300781 14.089844 8.515625 13.914062 8.738281 L 13.371094 9.4375 C 13.3125 9.515625 13.269531 9.59375 13.238281 9.679688 C 13.234375 9.691406 13.230469 9.703125 13.226562 9.714844 C 13.21875 9.730469 13.21875 9.746094 13.214844 9.765625 C 13.207031 9.796875 13.199219 9.828125 13.195312 9.859375 C 13.191406 9.890625 13.191406 9.921875 13.191406 9.949219 C 13.191406 9.96875 13.1875 9.988281 13.1875 10.007812 C 13.199219 10.207031 13.285156 10.398438 13.441406 10.554688 C 13.445312 10.558594 13.453125 10.5625 13.457031 10.566406 C 13.492188 10.601562 13.53125 10.632812 13.570312 10.660156 C 13.585938 10.667969 13.601562 10.675781 13.617188 10.6875 C 13.648438 10.703125 13.679688 10.722656 13.710938 10.738281 C 13.730469 10.746094 13.75 10.75 13.769531 10.757812 C 13.800781 10.769531 13.828125 10.777344 13.859375 10.785156 C 13.878906 10.789062 13.902344 10.792969 13.925781 10.796875 C 13.953125 10.800781 13.980469 10.804688 14.011719 10.804688 C 14.019531 10.804688 14.027344 10.804688 14.035156 10.804688 C 14.054688 10.804688 14.074219 10.804688 14.09375 10.800781 C 14.113281 10.800781 14.128906 10.800781 14.148438 10.796875 C 14.179688 10.792969 14.210938 10.785156 14.238281 10.777344 C 14.257812 10.773438 14.273438 10.769531 14.289062 10.765625 C 14.324219 10.753906 14.355469 10.738281 14.386719 10.722656 C 14.398438 10.71875 14.414062 10.714844 14.425781 10.707031 C 14.472656 10.683594 14.515625 10.652344 14.554688 10.621094 L 15.253906 10.078125 C 15.480469 9.90625 15.691406 9.714844 15.894531 9.515625 L 20.007812 5.402344 C 21.550781 6.3125 22.402344 7.4375 22.402344 8.59375 Z M 23.140625 1.136719 L 15.328125 8.949219 C 15.152344 9.125 14.960938 9.292969 14.765625 9.449219 L 14.066406 9.992188 C 14.054688 10 14.046875 10.003906 14.039062 10.003906 C 14.03125 10.007812 14.019531 10.003906 14.007812 9.988281 C 13.996094 9.976562 13.992188 9.96875 13.992188 9.960938 C 13.992188 9.953125 13.996094 9.941406 14.003906 9.929688 L 14.546875 9.230469 C 14.699219 9.035156 14.867188 8.84375 15.046875 8.667969 L 22.859375 0.851562 C 22.910156 0.800781 22.96875 0.792969 23 0.792969 C 23.03125 0.792969 23.089844 0.800781 23.140625 0.851562 C 23.21875 0.933594 23.21875 1.058594 23.140625 1.136719 Z M 23.140625 1.136719"/>
</svg>
