<svg xmlns="http://www.w3.org/2000/svg" width="32" height="32" viewBox="0 0 24 24">
    <path d="M23.8 6.734C22.407 4.336 19.817 1.887 16.86.18a.744.744 0 0 0-.774-.121.73.73 0 0 0-.45.683v3.02c0 .144.005.289.005.433.02.989.035 1.84-.579 2.457l-2.57 2.606-.465-.465c.004-.012.008-.02.008-.031V7.96a.416.416 0 0 0-.117-.285l-.398-.399a.402.402 0 0 0-.286-.117h-.796c-.11 0-.211.043-.286.117l-.398.399a.416.416 0 0 0-.117.285v.8h-.801a.384.384 0 0 0-.281.118l-.403.398a.4.4 0 0 0-.117.282v.8h-.8a.4.4 0 0 0-.282.118l-.398.402a.384.384 0 0 0-.117.281v.8c0 .106.039.208.117.282l.398.403a.4.4 0 0 0 .281.117h.801c.012 0 .024-.008.035-.008l.492.488-.539.547c-.746.758-3.246 3.313-3.996 4.36a22.688 22.688 0 0 1-2.394 2.828l-.063.058a1.026 1.026 0 0 0-1.254.125 1 1 0 0 0 0 1.414l1.13 1.133c.19.188.44.293.706.293.27 0 .52-.105.707-.293a1.002 1.002 0 0 0 .129-1.258l.106-.11c.84-.839 1.754-1.616 2.719-2.316.847-.613 2.675-2.253 3.824-3.347-.02.746.25 1.5.816 2.066a2.795 2.795 0 0 0 3.773.168l.016.016 3.957-3.961-.004-.004.176-.18a2.764 2.764 0 0 0 .817-1.976c0-.75-.29-1.453-.817-1.98a2.78 2.78 0 0 0-1.98-.817c-.047 0-.098.004-.149.004l1.09-1.102c.637-.644 1.594-.95 2.887-.95h3.019c.301 0 .567-.175.68-.452a.743.743 0 0 0-.117-.774zM10.438 8.125l.165-.164h.468l.164.164v.469l-.164.168h-.468l-.165-.168zm.797 1.434c.11 0 .211-.04.286-.118l.011-.011.399.398-1.121 1.137-.422-.422a.416.416 0 0 0 .05-.184v-.8zm.172 5.402l1.133-1.133 2.828 2.828-1.133 1.133zm-.586-.59l-1.133-1.133 1.126-1.136 1.128 1.132zm5.114 1.719l-2.829-2.828 1.13-1.13 2.828 2.829zm-3.43-3.426l-1.133-1.133 1.125-1.14 1.133 1.132zM8.836 9.727L9 9.559h.469l.168.168v.468l-.168.164H9l-.164-.164zm-1.602 2.066v-.469l.168-.164h.47l.163.164v.469l-.164.168h-.469zm1.47.465l.015-.016a.4.4 0 0 0 .117-.281v-.8h.8c.067 0 .126-.02.184-.052l.426.426-1.125 1.14zM2.292 23.14a.198.198 0 0 1-.281 0L.879 22.01a.203.203 0 0 1 0-.284c.05-.051.11-.059.14-.059.032 0 .094.008.145.059l1.129 1.132a.198.198 0 0 1 0 .282zm3.05-3.766a23.558 23.558 0 0 0-2.812 2.398l-.094.094-.285-.281.047-.047a23.771 23.771 0 0 0 2.492-2.941c.704-.985 3.164-3.5 3.903-4.25l.531-.54 1.133 1.133-.477.48c-.84.852-3.426 3.224-4.437 3.954zm5.677-1.2a1.998 1.998 0 0 1-.16-2.632l2.792 2.793a1.998 1.998 0 0 1-2.632-.16zm6.789-6.784c.375.375.582.875.582 1.414 0 .535-.207 1.035-.582 1.414l-.18.176-2.828-2.829.176-.175a1.985 1.985 0 0 1 1.418-.586c.535 0 1.035.207 1.414.586zm2.41-4.23h-.04c-1.507 0-2.628.386-3.417 1.187l-2.57 2.605-1.133-1.129 2.574-2.61c.847-.855.828-1.964.808-3.03-.003-.141-.003-.282-.007-.422V.859c2.863 1.649 5.359 4 6.687 6.301zm0 0"/>
</svg>
