<svg xmlns="http://www.w3.org/2000/svg" width="32" height="32" viewBox="0 0 24 24">
    <path d="M 23.601562 20.398438 L 22 20.398438 L 22 19.601562 C 22 19.378906 21.820312 19.199219 21.601562 19.199219 L 20.398438 19.199219 C 20.179688 19.199219 20 19.378906 20 19.601562 L 20 20 L 18.964844 20 C 20.355469 18.386719 21.199219 16.292969 21.199219 14 C 21.199219 8.925781 17.074219 4.800781 12 4.800781 C 11.007812 4.800781 10.054688 4.960938 9.160156 5.25 C 9.582031 4.125 10.347656 2.507812 11.425781 2.398438 L 12.800781 2.398438 C 13.019531 2.398438 13.199219 2.222656 13.199219 2 C 13.199219 1.777344 13.019531 1.601562 12.800781 1.601562 L 11.113281 1.601562 C 10.675781 0.546875 8.527344 0 6.398438 0 C 4.269531 0 2.125 0.546875 1.6875 1.601562 L 0.398438 1.601562 C 0.179688 1.601562 0 1.777344 0 2 C 0 2.222656 0.179688 2.398438 0.398438 2.398438 L 1.558594 2.398438 C 3.683594 2.609375 4.320312 6.753906 4.5 8.683594 C 3.429688 10.1875 2.800781 12.019531 2.800781 14 C 2.800781 19.074219 6.925781 23.199219 12 23.199219 C 12.121094 23.199219 12.238281 23.195312 12.355469 23.191406 C 12.371094 23.191406 12.382812 23.199219 12.398438 23.199219 L 20 23.199219 L 20 23.601562 C 20 23.820312 20.179688 24 20.398438 24 L 21.601562 24 C 21.820312 24 22 23.820312 22 23.601562 L 22 22.800781 L 23.601562 22.800781 C 23.820312 22.800781 24 22.621094 24 22.398438 L 24 20.800781 C 24 20.578125 23.820312 20.398438 23.601562 20.398438 Z M 6.398438 0.800781 C 8.1875 0.800781 9.527344 1.199219 10.097656 1.601562 L 2.703125 1.601562 C 3.273438 1.199219 4.613281 0.800781 6.398438 0.800781 Z M 5.207031 7.796875 C 4.96875 5.929688 4.433594 3.605469 3.238281 2.398438 L 9.847656 2.398438 C 9.09375 3.195312 8.574219 4.457031 8.179688 5.628906 C 8.15625 5.640625 8.136719 5.652344 8.117188 5.664062 C 7.886719 5.769531 7.660156 5.886719 7.441406 6.011719 C 7.394531 6.039062 7.34375 6.066406 7.296875 6.097656 C 7.085938 6.222656 6.878906 6.359375 6.675781 6.503906 C 6.625 6.539062 6.578125 6.570312 6.53125 6.609375 C 6.332031 6.753906 6.140625 6.910156 5.957031 7.070312 C 5.910156 7.109375 5.867188 7.148438 5.820312 7.1875 C 5.636719 7.355469 5.457031 7.535156 5.289062 7.71875 C 5.261719 7.746094 5.230469 7.769531 5.207031 7.796875 Z M 3.601562 14 C 3.601562 11.691406 4.539062 9.597656 6.050781 8.074219 C 6.0625 8.0625 6.074219 8.054688 6.085938 8.042969 C 6.261719 7.867188 6.445312 7.699219 6.636719 7.542969 C 6.648438 7.53125 6.660156 7.519531 6.671875 7.511719 C 6.875 7.347656 7.082031 7.191406 7.296875 7.042969 C 7.308594 7.035156 7.324219 7.027344 7.335938 7.019531 C 7.53125 6.886719 7.734375 6.765625 7.941406 6.648438 C 7.976562 6.632812 8.007812 6.613281 8.039062 6.597656 C 9.21875 5.960938 10.566406 5.601562 12 5.601562 C 16.632812 5.601562 20.398438 9.367188 20.398438 14 C 20.398438 16.871094 18.953125 19.40625 16.75 20.921875 C 16.714844 20.945312 16.679688 20.96875 16.640625 20.996094 C 16.4375 21.132812 16.226562 21.261719 16.007812 21.378906 C 15.996094 21.386719 15.988281 21.390625 15.976562 21.398438 C 15.765625 21.507812 15.550781 21.613281 15.332031 21.707031 C 15.296875 21.722656 15.257812 21.742188 15.21875 21.757812 C 14.988281 21.851562 14.753906 21.9375 14.515625 22.015625 C 14.492188 22.023438 14.46875 22.027344 14.445312 22.035156 C 13.671875 22.269531 12.851562 22.398438 12 22.398438 C 7.367188 22.398438 3.601562 18.632812 3.601562 14 Z M 15.753906 22.398438 C 15.78125 22.386719 15.8125 22.371094 15.839844 22.355469 C 16.023438 22.273438 16.207031 22.183594 16.382812 22.085938 C 16.417969 22.070312 16.449219 22.046875 16.480469 22.03125 C 16.636719 21.945312 16.789062 21.851562 16.9375 21.757812 C 16.988281 21.726562 17.039062 21.691406 17.089844 21.660156 C 17.25 21.550781 17.40625 21.441406 17.558594 21.324219 C 17.617188 21.28125 17.671875 21.238281 17.726562 21.195312 C 17.859375 21.085938 17.992188 20.976562 18.117188 20.863281 C 18.144531 20.84375 18.167969 20.824219 18.191406 20.800781 L 20 20.800781 L 20 22.402344 L 15.753906 22.402344 Z M 21.199219 23.199219 L 20.800781 23.199219 L 20.800781 20 L 21.199219 20 Z M 23.199219 22 L 22 22 L 22 21.199219 L 23.199219 21.199219 Z M 23.199219 22"/>
    <path d="M 19.601562 14 C 19.601562 11.972656 18.796875 10.136719 17.503906 8.773438 C 17.496094 8.765625 17.496094 8.757812 17.488281 8.753906 C 17.476562 8.738281 17.460938 8.726562 17.449219 8.714844 C 17.324219 8.585938 17.1875 8.460938 17.050781 8.335938 C 16.996094 8.289062 16.941406 8.234375 16.886719 8.1875 C 16.769531 8.089844 16.648438 8 16.527344 7.910156 C 16.441406 7.847656 16.359375 7.777344 16.273438 7.71875 C 16.195312 7.667969 16.113281 7.621094 16.035156 7.570312 C 15.898438 7.484375 15.761719 7.394531 15.621094 7.320312 C 15.617188 7.320312 15.617188 7.316406 15.617188 7.316406 C 14.519531 6.71875 13.285156 6.398438 12 6.398438 C 10.714844 6.398438 9.480469 6.71875 8.386719 7.316406 C 8.382812 7.316406 8.382812 7.316406 8.378906 7.320312 C 8.238281 7.394531 8.105469 7.484375 7.96875 7.570312 C 7.886719 7.621094 7.804688 7.664062 7.730469 7.71875 C 7.640625 7.777344 7.558594 7.847656 7.472656 7.910156 C 7.351562 8 7.230469 8.089844 7.113281 8.1875 C 7.058594 8.234375 7.003906 8.289062 6.949219 8.335938 C 6.8125 8.460938 6.679688 8.582031 6.550781 8.714844 C 6.539062 8.726562 6.523438 8.738281 6.511719 8.75 C 6.507812 8.757812 6.503906 8.765625 6.5 8.773438 C 5.203125 10.136719 4.398438 11.972656 4.398438 14 C 4.398438 18.191406 7.808594 21.601562 12 21.601562 C 16.191406 21.601562 19.601562 18.191406 19.601562 14 Z M 11.316406 20.765625 C 11.242188 20.757812 11.171875 20.742188 11.097656 20.734375 C 10.949219 20.710938 10.800781 20.695312 10.65625 20.664062 C 10.566406 20.648438 10.484375 20.621094 10.394531 20.601562 C 10.269531 20.570312 10.140625 20.539062 10.015625 20.503906 C 9.921875 20.476562 9.835938 20.441406 9.746094 20.410156 C 9.628906 20.367188 9.511719 20.328125 9.398438 20.28125 C 9.308594 20.242188 9.222656 20.199219 9.136719 20.160156 C 9.027344 20.109375 8.917969 20.058594 8.8125 20.003906 C 8.726562 19.957031 8.640625 19.90625 8.558594 19.855469 C 8.457031 19.796875 8.355469 19.738281 8.257812 19.671875 C 8.175781 19.617188 8.097656 19.558594 8.015625 19.5 C 7.921875 19.433594 7.832031 19.367188 7.742188 19.292969 C 7.664062 19.230469 7.589844 19.164062 7.511719 19.097656 C 7.429688 19.023438 7.34375 18.949219 7.261719 18.871094 C 7.191406 18.796875 7.121094 18.722656 7.050781 18.648438 C 6.972656 18.570312 6.898438 18.488281 6.824219 18.402344 C 6.757812 18.324219 6.695312 18.242188 6.632812 18.160156 C 6.566406 18.074219 6.496094 17.984375 6.433594 17.894531 C 6.375 17.808594 6.320312 17.722656 6.261719 17.636719 C 6.203125 17.542969 6.144531 17.445312 6.089844 17.347656 C 6.039062 17.257812 5.988281 17.167969 5.941406 17.074219 C 5.890625 16.976562 5.84375 16.875 5.796875 16.773438 C 5.753906 16.675781 5.714844 16.578125 5.675781 16.484375 C 5.636719 16.378906 5.597656 16.273438 5.558594 16.164062 C 5.527344 16.066406 5.496094 15.964844 5.464844 15.863281 C 5.433594 15.753906 5.40625 15.640625 5.378906 15.53125 C 5.355469 15.425781 5.335938 15.324219 5.316406 15.21875 C 5.292969 15.105469 5.277344 14.988281 5.261719 14.875 C 5.25 14.765625 5.238281 14.660156 5.226562 14.550781 C 5.222656 14.503906 5.222656 14.453125 5.222656 14.402344 L 7.601562 14.402344 L 7.601562 17.601562 C 7.601562 17.707031 7.640625 17.808594 7.71875 17.882812 L 8.117188 18.285156 C 8.191406 18.359375 8.292969 18.398438 8.398438 18.398438 L 9.199219 18.398438 C 9.304688 18.398438 9.40625 18.359375 9.484375 18.28125 L 9.882812 17.882812 C 9.957031 17.808594 10 17.707031 10 17.601562 L 10 14.398438 L 10.800781 14.398438 L 10.800781 17.601562 C 10.800781 17.707031 10.84375 17.808594 10.917969 17.882812 L 11.316406 18.28125 C 11.390625 18.359375 11.492188 18.398438 11.601562 18.398438 L 12.398438 18.398438 C 12.507812 18.398438 12.609375 18.359375 12.683594 18.28125 L 13.082031 17.882812 C 13.15625 17.808594 13.199219 17.707031 13.199219 17.601562 L 13.199219 14.398438 L 14 14.398438 L 14 17.601562 C 14 17.707031 14.042969 17.808594 14.117188 17.882812 L 14.515625 18.28125 C 14.59375 18.359375 14.695312 18.398438 14.800781 18.398438 L 15.601562 18.398438 C 15.707031 18.398438 15.808594 18.359375 15.882812 18.28125 L 16.28125 17.882812 C 16.359375 17.808594 16.398438 17.707031 16.398438 17.601562 L 16.398438 14.398438 L 18.78125 14.398438 C 18.777344 14.449219 18.777344 14.5 18.773438 14.550781 C 18.761719 14.660156 18.75 14.765625 18.738281 14.871094 C 18.722656 14.988281 18.707031 15.105469 18.683594 15.21875 C 18.664062 15.324219 18.644531 15.425781 18.621094 15.53125 C 18.59375 15.640625 18.566406 15.753906 18.535156 15.863281 C 18.503906 15.964844 18.472656 16.0625 18.441406 16.164062 C 18.40625 16.269531 18.363281 16.378906 18.324219 16.480469 C 18.285156 16.578125 18.246094 16.675781 18.203125 16.769531 C 18.15625 16.875 18.109375 16.972656 18.058594 17.074219 C 18.011719 17.167969 17.960938 17.257812 17.910156 17.347656 C 17.855469 17.445312 17.796875 17.539062 17.738281 17.632812 C 17.683594 17.722656 17.625 17.808594 17.566406 17.890625 C 17.503906 17.984375 17.433594 18.074219 17.367188 18.160156 C 17.304688 18.242188 17.242188 18.320312 17.175781 18.398438 C 17.101562 18.484375 17.027344 18.566406 16.949219 18.648438 C 16.878906 18.722656 16.8125 18.796875 16.738281 18.867188 C 16.65625 18.945312 16.570312 19.019531 16.488281 19.097656 C 16.410156 19.164062 16.335938 19.230469 16.257812 19.292969 C 16.171875 19.363281 16.078125 19.429688 15.984375 19.5 C 15.902344 19.558594 15.824219 19.617188 15.742188 19.671875 C 15.644531 19.738281 15.542969 19.792969 15.441406 19.855469 C 15.359375 19.902344 15.273438 19.957031 15.1875 20.003906 C 15.082031 20.058594 14.972656 20.105469 14.863281 20.15625 C 14.777344 20.199219 14.691406 20.242188 14.601562 20.28125 C 14.488281 20.328125 14.371094 20.367188 14.253906 20.40625 C 14.164062 20.4375 14.078125 20.472656 13.984375 20.5 C 13.859375 20.539062 13.730469 20.570312 13.605469 20.601562 C 13.519531 20.621094 13.433594 20.644531 13.34375 20.664062 C 13.199219 20.691406 13.050781 20.710938 12.902344 20.730469 C 12.828125 20.742188 12.757812 20.757812 12.683594 20.765625 C 12.457031 20.789062 12.230469 20.800781 12 20.800781 C 11.769531 20.800781 11.542969 20.789062 11.316406 20.765625 Z M 7.808594 8.65625 C 7.945312 8.550781 8.078125 8.445312 8.21875 8.351562 C 8.355469 8.261719 8.496094 8.179688 8.636719 8.097656 C 8.683594 8.070312 8.726562 8.042969 8.769531 8.019531 C 8.949219 7.921875 9.136719 7.832031 9.324219 7.75 C 9.335938 7.746094 9.347656 7.738281 9.359375 7.734375 C 9.554688 7.652344 9.753906 7.578125 9.957031 7.511719 C 9.96875 7.511719 9.972656 7.507812 9.980469 7.503906 C 10.175781 7.445312 10.371094 7.394531 10.574219 7.351562 C 10.59375 7.347656 10.613281 7.339844 10.636719 7.335938 C 10.820312 7.296875 11.011719 7.273438 11.203125 7.25 C 11.238281 7.246094 11.273438 7.238281 11.3125 7.234375 C 11.539062 7.210938 11.769531 7.199219 12 7.199219 C 12.230469 7.199219 12.460938 7.210938 12.6875 7.234375 C 12.726562 7.238281 12.761719 7.246094 12.796875 7.25 C 12.988281 7.273438 13.179688 7.300781 13.363281 7.335938 C 13.386719 7.34375 13.40625 7.347656 13.425781 7.355469 C 13.628906 7.394531 13.824219 7.445312 14.019531 7.507812 C 14.027344 7.507812 14.035156 7.511719 14.042969 7.515625 C 14.246094 7.578125 14.445312 7.652344 14.640625 7.734375 C 14.652344 7.738281 14.664062 7.746094 14.675781 7.75 C 14.863281 7.832031 15.050781 7.921875 15.230469 8.019531 C 15.273438 8.042969 15.316406 8.070312 15.363281 8.097656 C 15.503906 8.179688 15.644531 8.261719 15.78125 8.351562 C 15.921875 8.445312 16.054688 8.550781 16.191406 8.65625 C 16.226562 8.683594 16.261719 8.707031 16.296875 8.734375 C 16.46875 8.875 16.632812 9.023438 16.792969 9.183594 C 16.714844 9.867188 16.132812 10.398438 15.429688 10.398438 L 8.570312 10.398438 C 7.867188 10.398438 7.285156 9.867188 7.207031 9.183594 C 7.367188 9.023438 7.535156 8.875 7.707031 8.734375 C 7.738281 8.707031 7.777344 8.683594 7.808594 8.65625 Z M 9.199219 14 L 9.199219 16 L 8.398438 16 L 8.398438 11.199219 L 9.199219 11.199219 Z M 8.398438 16.964844 L 8.566406 16.800781 L 9.035156 16.800781 L 9.199219 16.964844 L 9.199219 17.433594 L 9.035156 17.601562 L 8.566406 17.601562 L 8.398438 17.433594 Z M 10 11.199219 L 10.800781 11.199219 L 10.800781 13.601562 L 10 13.601562 Z M 12.398438 14 L 12.398438 16 L 11.601562 16 L 11.601562 11.199219 L 12.398438 11.199219 Z M 11.601562 16.964844 L 11.765625 16.800781 L 12.234375 16.800781 L 12.398438 16.964844 L 12.398438 17.433594 L 12.234375 17.601562 L 11.765625 17.601562 L 11.601562 17.433594 Z M 13.199219 11.199219 L 14 11.199219 L 14 13.601562 L 13.199219 13.601562 Z M 15.601562 11.199219 L 15.601562 16 L 14.800781 16 L 14.800781 11.199219 Z M 14.800781 16.964844 L 14.964844 16.800781 L 15.433594 16.800781 L 15.601562 16.964844 L 15.601562 17.433594 L 15.433594 17.601562 L 14.964844 17.601562 L 14.800781 17.433594 Z M 16.398438 10.96875 C 16.847656 10.742188 17.210938 10.363281 17.414062 9.902344 C 18.203125 10.945312 18.699219 12.214844 18.78125 13.601562 L 16.398438 13.601562 Z M 7.601562 10.96875 L 7.601562 13.601562 L 5.21875 13.601562 C 5.300781 12.214844 5.796875 10.945312 6.585938 9.902344 C 6.789062 10.363281 7.152344 10.742188 7.601562 10.96875 Z M 7.601562 10.96875"/>
</svg>
