<svg xmlns="http://www.w3.org/2000/svg" width="32" height="32" viewBox="0 0 24 24">
    <path d="M 9.582031 16.085938 C 9.425781 15.925781 9.171875 15.925781 9.015625 16.085938 L 5.804688 19.292969 L 5.523438 19.011719 L 9.082031 15.449219 C 9.238281 15.292969 9.238281 15.039062 9.082031 14.882812 C 8.925781 14.726562 8.671875 14.726562 8.515625 14.882812 L 4.957031 18.445312 L 4.671875 18.160156 L 7.882812 14.953125 C 8.039062 14.796875 8.039062 14.542969 7.882812 14.386719 C 7.726562 14.230469 7.472656 14.230469 7.316406 14.386719 L 4.105469 17.597656 L 3.824219 17.3125 C 3.667969 17.15625 3.414062 17.15625 3.257812 17.3125 C 3.101562 17.46875 3.101562 17.722656 3.257812 17.878906 L 3.542969 18.160156 L 3.257812 18.445312 C 3.101562 18.601562 3.101562 18.855469 3.257812 19.011719 C 3.335938 19.089844 3.4375 19.128906 3.542969 19.128906 C 3.644531 19.128906 3.746094 19.089844 3.824219 19.011719 L 4.105469 18.726562 L 4.390625 19.011719 L 4.105469 19.292969 C 3.949219 19.449219 3.949219 19.703125 4.105469 19.859375 C 4.183594 19.9375 4.289062 19.976562 4.390625 19.976562 C 4.492188 19.976562 4.59375 19.9375 4.671875 19.859375 L 4.957031 19.578125 L 5.238281 19.859375 L 4.957031 20.140625 C 4.800781 20.300781 4.800781 20.550781 4.957031 20.707031 C 5.035156 20.785156 5.136719 20.824219 5.238281 20.824219 C 5.339844 20.824219 5.445312 20.785156 5.523438 20.707031 L 5.804688 20.425781 L 6.089844 20.707031 C 6.164062 20.785156 6.269531 20.824219 6.371094 20.824219 C 6.472656 20.824219 6.574219 20.785156 6.652344 20.707031 C 6.808594 20.550781 6.808594 20.300781 6.652344 20.140625 L 6.371094 19.859375 L 9.582031 16.648438 C 9.738281 16.492188 9.738281 16.238281 9.582031 16.085938 Z M 9.582031 16.085938"/>
    <path d="M 7.398438 13.164062 C 5.523438 13.164062 4 14.691406 4 16.566406 L 4.796875 16.566406 C 4.796875 15.132812 5.964844 13.964844 7.398438 13.964844 C 8.832031 13.964844 10 15.132812 10 16.566406 C 10 18 8.832031 19.167969 7.398438 19.167969 L 7.398438 19.96875 C 9.273438 19.96875 10.800781 18.441406 10.800781 16.566406 C 10.800781 14.691406 9.273438 13.164062 7.398438 13.164062 Z M 7.398438 13.164062"/>
    <path d="M 23.539062 4.410156 C 24.21875 3.488281 24.148438 2.191406 23.316406 1.359375 L 22.679688 0.71875 C 22.234375 0.273438 21.644531 0.03125 21.015625 0.03125 C 20.507812 0.03125 20.023438 0.195312 19.621094 0.492188 L 19.320312 0.1875 C 19.164062 0.03125 18.910156 0.03125 18.753906 0.1875 C 18.597656 0.34375 18.597656 0.597656 18.753906 0.753906 L 19.035156 1.039062 L 18.472656 1.605469 L 18.1875 1.320312 C 18.03125 1.164062 17.777344 1.164062 17.621094 1.320312 C 17.464844 1.476562 17.464844 1.730469 17.621094 1.886719 L 17.90625 2.171875 L 17.902344 2.171875 C 17.703125 2.371094 17.589844 2.648438 17.59375 2.925781 C 17.597656 3.1875 17.699219 3.425781 17.882812 3.601562 C 17.9375 3.652344 17.945312 3.710938 17.945312 3.742188 C 17.945312 3.773438 17.9375 3.832031 17.886719 3.886719 L 12.550781 9.222656 L 12.375 9.042969 L 12.289062 8.976562 C 9.609375 7.480469 4.308594 9.753906 2.046875 12.015625 C -0.683594 14.746094 -0.683594 19.1875 2.046875 21.917969 C 3.371094 23.242188 5.128906 23.96875 7 23.96875 C 8.871094 23.96875 10.628906 23.242188 11.953125 21.917969 C 14.214844 19.65625 16.484375 14.359375 14.988281 11.679688 L 14.808594 11.492188 L 20.152344 6.148438 C 20.203125 6.097656 20.261719 6.089844 20.292969 6.089844 C 20.324219 6.089844 20.382812 6.097656 20.433594 6.148438 C 20.824219 6.539062 21.457031 6.539062 21.847656 6.148438 L 21.867188 6.132812 L 22.148438 6.414062 C 22.226562 6.492188 22.332031 6.53125 22.433594 6.53125 C 22.535156 6.53125 22.636719 6.492188 22.714844 6.414062 C 22.871094 6.257812 22.871094 6.003906 22.714844 5.847656 L 22.433594 5.566406 L 23 5 L 23.28125 5.28125 C 23.359375 5.359375 23.460938 5.398438 23.566406 5.398438 C 23.667969 5.398438 23.769531 5.359375 23.847656 5.28125 C 24.003906 5.125 24.003906 4.871094 23.847656 4.714844 Z M 14.25 12.050781 L 14.316406 12.117188 C 15.566406 14.46875 13.414062 19.324219 11.386719 21.351562 C 10.214844 22.523438 8.65625 23.167969 7 23.167969 C 5.34375 23.167969 3.785156 22.523438 2.613281 21.351562 C 0.195312 18.933594 0.195312 15 2.613281 12.582031 C 4.226562 10.96875 7.621094 9.28125 10.128906 9.28125 C 10.777344 9.28125 11.367188 9.394531 11.851562 9.652344 L 11.984375 9.785156 L 10.761719 11.011719 C 10.5625 11.210938 10.457031 11.480469 10.46875 11.757812 C 10.480469 12.039062 10.609375 12.308594 10.828125 12.492188 C 11.078125 12.707031 11.3125 12.945312 11.523438 13.203125 C 11.707031 13.425781 11.976562 13.5625 12.261719 13.574219 C 12.277344 13.574219 12.292969 13.574219 12.308594 13.574219 C 12.335938 13.574219 12.363281 13.570312 12.390625 13.566406 C 12.425781 13.566406 12.457031 13.5625 12.492188 13.558594 C 12.523438 13.550781 12.550781 13.542969 12.578125 13.535156 C 12.613281 13.523438 12.648438 13.515625 12.683594 13.503906 C 12.714844 13.488281 12.746094 13.472656 12.773438 13.457031 C 12.804688 13.441406 12.832031 13.429688 12.859375 13.410156 C 12.914062 13.375 12.96875 13.332031 13.015625 13.28125 Z M 21 5.582031 C 20.621094 5.207031 19.960938 5.207031 19.585938 5.582031 L 12.449219 12.71875 C 12.398438 12.769531 12.339844 12.78125 12.300781 12.777344 C 12.265625 12.773438 12.199219 12.761719 12.144531 12.695312 C 12.101562 12.644531 12.054688 12.597656 12.011719 12.546875 L 20.953125 3.570312 C 21.109375 3.414062 21.105469 3.160156 20.949219 3.003906 C 20.792969 2.847656 20.542969 2.847656 20.382812 3.003906 L 11.445312 11.976562 C 11.414062 11.945312 11.378906 11.914062 11.34375 11.882812 C 11.28125 11.828125 11.269531 11.761719 11.269531 11.726562 C 11.265625 11.6875 11.273438 11.628906 11.328125 11.578125 L 18.453125 4.453125 C 18.644531 4.257812 18.75 4.003906 18.746094 3.730469 C 18.742188 3.457031 18.632812 3.207031 18.433594 3.019531 C 18.410156 2.996094 18.394531 2.960938 18.394531 2.917969 C 18.394531 2.851562 18.421875 2.785156 18.46875 2.738281 L 19.921875 1.285156 C 20.214844 0.992188 20.605469 0.828125 21.015625 0.828125 C 21.429688 0.828125 21.820312 0.992188 22.113281 1.285156 L 22.753906 1.925781 C 23.042969 2.214844 23.207031 2.605469 23.207031 3.019531 C 23.207031 3.433594 23.042969 3.820312 22.753906 4.113281 L 21.28125 5.582031 C 21.203125 5.664062 21.078125 5.664062 21 5.582031 Z M 21 5.582031"/>
</svg>
