<svg xmlns="http://www.w3.org/2000/svg" width="32" height="32" viewBox="0 0 24 24">
    <path d="M 23.601562 0 L 0.398438 0 C 0.179688 0 0 0.179688 0 0.398438 L 0 23.601562 C 0 23.820312 0.179688 24 0.398438 24 L 23.601562 24 C 23.820312 24 24 23.820312 24 23.601562 L 24 0.398438 C 24 0.179688 23.820312 0 23.601562 0 Z M 23.199219 23.199219 L 0.800781 23.199219 L 0.800781 0.800781 L 23.199219 0.800781 Z M 23.199219 23.199219"/>
    <path d="M9.601562 4.398438C9.601562 4.621094 9.421875 4.800781 9.199219 4.800781 8.980469 4.800781 8.800781 4.621094 8.800781 4.398438 8.800781 4.179688 8.980469 4 9.199219 4 9.421875 4 9.601562 4.179688 9.601562 4.398438zM11.199219 4.398438C11.199219 4.621094 11.019531 4.800781 10.800781 4.800781 10.578125 4.800781 10.398438 4.621094 10.398438 4.398438 10.398438 4.179688 10.578125 4 10.800781 4 11.019531 4 11.199219 4.179688 11.199219 4.398438zM8 4.398438C8 4.621094 7.820312 4.800781 7.601562 4.800781 7.378906 4.800781 7.199219 4.621094 7.199219 4.398438 7.199219 4.179688 7.378906 4 7.601562 4 7.820312 4 8 4.179688 8 4.398438zM6.398438 4.398438C6.398438 4.621094 6.222656 4.800781 6 4.800781 5.777344 4.800781 5.601562 4.621094 5.601562 4.398438 5.601562 4.179688 5.777344 4 6 4 6.222656 4 6.398438 4.179688 6.398438 4.398438zM16 4.398438C16 4.621094 15.820312 4.800781 15.601562 4.800781 15.378906 4.800781 15.199219 4.621094 15.199219 4.398438 15.199219 4.179688 15.378906 4 15.601562 4 15.820312 4 16 4.179688 16 4.398438zM22.398438 4.398438C22.398438 4.621094 22.222656 4.800781 22 4.800781 21.777344 4.800781 21.601562 4.621094 21.601562 4.398438 21.601562 4.179688 21.777344 4 22 4 22.222656 4 22.398438 4.179688 22.398438 4.398438zM20.800781 4.398438C20.800781 4.621094 20.621094 4.800781 20.398438 4.800781 20.179688 4.800781 20 4.621094 20 4.398438 20 4.179688 20.179688 4 20.398438 4 20.621094 4 20.800781 4.179688 20.800781 4.398438zM14.398438 4.398438C14.398438 4.621094 14.222656 4.800781 14 4.800781 13.777344 4.800781 13.601562 4.621094 13.601562 4.398438 13.601562 4.179688 13.777344 4 14 4 14.222656 4 14.398438 4.179688 14.398438 4.398438zM17.601562 4.398438C17.601562 4.621094 17.421875 4.800781 17.199219 4.800781 16.980469 4.800781 16.800781 4.621094 16.800781 4.398438 16.800781 4.179688 16.980469 4 17.199219 4 17.421875 4 17.601562 4.179688 17.601562 4.398438zM12.800781 4.398438C12.800781 4.621094 12.621094 4.800781 12.398438 4.800781 12.179688 4.800781 12 4.621094 12 4.398438 12 4.179688 12.179688 4 12.398438 4 12.621094 4 12.800781 4.179688 12.800781 4.398438zM19.199219 4.398438C19.199219 4.621094 19.019531 4.800781 18.800781 4.800781 18.578125 4.800781 18.398438 4.621094 18.398438 4.398438 18.398438 4.179688 18.578125 4 18.800781 4 19.019531 4 19.199219 4.179688 19.199219 4.398438zM4.800781 9.199219C4.800781 9.421875 4.621094 9.601562 4.398438 9.601562 4.179688 9.601562 4 9.421875 4 9.199219 4 8.980469 4.179688 8.800781 4.398438 8.800781 4.621094 8.800781 4.800781 8.980469 4.800781 9.199219zM4.800781 7.601562C4.800781 7.820312 4.621094 8 4.398438 8 4.179688 8 4 7.820312 4 7.601562 4 7.378906 4.179688 7.199219 4.398438 7.199219 4.621094 7.199219 4.800781 7.378906 4.800781 7.601562zM4.800781 15.601562C4.800781 15.820312 4.621094 16 4.398438 16 4.179688 16 4 15.820312 4 15.601562 4 15.378906 4.179688 15.199219 4.398438 15.199219 4.621094 15.199219 4.800781 15.378906 4.800781 15.601562zM4.800781 10.800781C4.800781 11.019531 4.621094 11.199219 4.398438 11.199219 4.179688 11.199219 4 11.019531 4 10.800781 4 10.578125 4.179688 10.398438 4.398438 10.398438 4.621094 10.398438 4.800781 10.578125 4.800781 10.800781zM4.800781 12.398438C4.800781 12.621094 4.621094 12.800781 4.398438 12.800781 4.179688 12.800781 4 12.621094 4 12.398438 4 12.179688 4.179688 12 4.398438 12 4.621094 12 4.800781 12.179688 4.800781 12.398438zM4.800781 20.398438C4.800781 20.621094 4.621094 20.800781 4.398438 20.800781 4.179688 20.800781 4 20.621094 4 20.398438 4 20.179688 4.179688 20 4.398438 20 4.621094 20 4.800781 20.179688 4.800781 20.398438zM4.800781 22C4.800781 22.222656 4.621094 22.398438 4.398438 22.398438 4.179688 22.398438 4 22.222656 4 22 4 21.777344 4.179688 21.601562 4.398438 21.601562 4.621094 21.601562 4.800781 21.777344 4.800781 22zM4.800781 14C4.800781 14.222656 4.621094 14.398438 4.398438 14.398438 4.179688 14.398438 4 14.222656 4 14 4 13.777344 4.179688 13.601562 4.398438 13.601562 4.621094 13.601562 4.800781 13.777344 4.800781 14zM4.800781 18.800781C4.800781 19.019531 4.621094 19.199219 4.398438 19.199219 4.179688 19.199219 4 19.019531 4 18.800781 4 18.578125 4.179688 18.398438 4.398438 18.398438 4.621094 18.398438 4.800781 18.578125 4.800781 18.800781zM4.800781 17.199219C4.800781 17.421875 4.621094 17.601562 4.398438 17.601562 4.179688 17.601562 4 17.421875 4 17.199219 4 16.980469 4.179688 16.800781 4.398438 16.800781 4.621094 16.800781 4.800781 16.980469 4.800781 17.199219zM4.800781 6C4.800781 6.222656 4.621094 6.398438 4.398438 6.398438 4.179688 6.398438 4 6.222656 4 6 4 5.777344 4.179688 5.601562 4.398438 5.601562 4.621094 5.601562 4.800781 5.777344 4.800781 6zM4.800781 4.398438C4.800781 4.621094 4.621094 4.800781 4.398438 4.800781 4.179688 4.800781 4 4.621094 4 4.398438 4 4.179688 4.179688 4 4.398438 4 4.621094 4 4.800781 4.179688 4.800781 4.398438zM3.082031 1.316406C3.007812 1.242188 2.90625 1.199219 2.800781 1.199219L2 1.199219C1.894531 1.199219 1.792969 1.242188 1.71875 1.316406L1.316406 1.71875C1.242188 1.792969 1.199219 1.894531 1.199219 2L1.199219 2.800781C1.199219 2.90625 1.242188 3.007812 1.316406 3.082031L1.71875 3.484375C1.792969 3.558594 1.894531 3.601562 2 3.601562L2.800781 3.601562C2.90625 3.601562 3.007812 3.558594 3.082031 3.484375L3.484375 3.082031C3.558594 3.007812 3.601562 2.90625 3.601562 2.800781L3.601562 2C3.601562 1.894531 3.558594 1.792969 3.484375 1.71875zM2.800781 2.632812L2.632812 2.800781 2.164062 2.800781 2 2.632812 2 2.164062 2.164062 2 2.632812 2 2.800781 2.164062zM6.28125 3.484375L6.683594 3.082031C6.757812 3.007812 6.800781 2.90625 6.800781 2.800781L6.800781 2C6.800781 1.894531 6.757812 1.792969 6.683594 1.71875L6.28125 1.316406C6.207031 1.242188 6.105469 1.199219 6 1.199219L5.199219 1.199219C5.09375 1.199219 4.992188 1.242188 4.917969 1.316406L4.515625 1.71875C4.441406 1.792969 4.398438 1.894531 4.398438 2L4.398438 2.800781C4.398438 2.90625 4.441406 3.007812 4.515625 3.082031L4.917969 3.484375C4.992188 3.558594 5.09375 3.601562 5.199219 3.601562L6 3.601562C6.105469 3.601562 6.207031 3.558594 6.28125 3.484375zM5.367188 2.800781L5.199219 2.632812 5.199219 2.164062 5.367188 2 5.835938 2 6 2.164062 6 2.632812 5.835938 2.800781zM9.484375 1.316406C9.40625 1.242188 9.304688 1.199219 9.199219 1.199219L8.398438 1.199219C8.292969 1.199219 8.191406 1.242188 8.117188 1.316406L7.71875 1.71875C7.640625 1.792969 7.601562 1.894531 7.601562 2L7.601562 2.800781C7.601562 2.90625 7.640625 3.007812 7.71875 3.082031L8.117188 3.484375C8.191406 3.558594 8.292969 3.601562 8.398438 3.601562L9.199219 3.601562C9.304688 3.601562 9.40625 3.558594 9.484375 3.484375L9.882812 3.082031C9.957031 3.007812 10 2.90625 10 2.800781L10 2C10 1.894531 9.957031 1.792969 9.882812 1.71875zM9.199219 2.632812L9.035156 2.800781 8.566406 2.800781 8.398438 2.632812 8.398438 2.164062 8.566406 2 9.035156 2 9.199219 2.164062zM11.316406 3.484375C11.390625 3.558594 11.492188 3.601562 11.601562 3.601562L12.398438 3.601562C12.507812 3.601562 12.609375 3.558594 12.683594 3.484375L13.082031 3.082031C13.15625 3.007812 13.199219 2.90625 13.199219 2.800781L13.199219 2C13.199219 1.894531 13.15625 1.792969 13.082031 1.71875L12.683594 1.316406C12.609375 1.242188 12.507812 1.199219 12.398438 1.199219L11.601562 1.199219C11.492188 1.199219 11.390625 1.242188 11.316406 1.316406L10.917969 1.71875C10.84375 1.792969 10.800781 1.894531 10.800781 2L10.800781 2.800781C10.800781 2.90625 10.84375 3.007812 10.917969 3.082031zM11.601562 2.164062L11.765625 2 12.234375 2 12.398438 2.164062 12.398438 2.632812 12.234375 2.800781 11.765625 2.800781 11.601562 2.632812zM15.601562 3.601562C15.707031 3.601562 15.808594 3.558594 15.882812 3.484375L16.28125 3.082031C16.359375 3.007812 16.398438 2.90625 16.398438 2.800781L16.398438 2C16.398438 1.894531 16.359375 1.792969 16.28125 1.71875L15.882812 1.316406C15.808594 1.242188 15.707031 1.199219 15.601562 1.199219L14.800781 1.199219C14.695312 1.199219 14.59375 1.242188 14.515625 1.316406L14.117188 1.71875C14.042969 1.792969 14 1.894531 14 2L14 2.800781C14 2.90625 14.042969 3.007812 14.117188 3.082031L14.515625 3.484375C14.59375 3.558594 14.695312 3.601562 14.800781 3.601562zM14.800781 2.164062L14.964844 2 15.433594 2 15.601562 2.164062 15.601562 2.632812 15.433594 2.800781 14.964844 2.800781 14.800781 2.632812zM19.082031 3.484375L19.484375 3.082031C19.558594 3.007812 19.601562 2.90625 19.601562 2.800781L19.601562 2C19.601562 1.894531 19.558594 1.792969 19.484375 1.71875L19.082031 1.316406C19.007812 1.242188 18.90625 1.199219 18.800781 1.199219L18 1.199219C17.894531 1.199219 17.792969 1.242188 17.71875 1.316406L17.316406 1.71875C17.242188 1.792969 17.199219 1.894531 17.199219 2L17.199219 2.800781C17.199219 2.90625 17.242188 3.007812 17.316406 3.082031L17.71875 3.484375C17.792969 3.558594 17.894531 3.601562 18 3.601562L18.800781 3.601562C18.90625 3.601562 19.007812 3.558594 19.082031 3.484375zM18.164062 2.800781L18 2.632812 18 2.164062 18.164062 2 18.632812 2 18.800781 2.164062 18.800781 2.632812 18.632812 2.800781zM22.28125 1.316406C22.207031 1.242188 22.105469 1.199219 22 1.199219L21.199219 1.199219C21.09375 1.199219 20.992188 1.242188 20.917969 1.316406L20.515625 1.71875C20.441406 1.792969 20.398438 1.894531 20.398438 2L20.398438 2.800781C20.398438 2.90625 20.441406 3.007812 20.515625 3.082031L20.917969 3.484375C20.992188 3.558594 21.09375 3.601562 21.199219 3.601562L22 3.601562C22.105469 3.601562 22.207031 3.558594 22.28125 3.484375L22.683594 3.082031C22.757812 3.007812 22.800781 2.90625 22.800781 2.800781L22.800781 2C22.800781 1.894531 22.757812 1.792969 22.683594 1.71875zM22 2.632812L21.835938 2.800781 21.367188 2.800781 21.199219 2.632812 21.199219 2.164062 21.367188 2 21.835938 2 22 2.164062zM8.800781 6L6.398438 6C6.179688 6 6 6.179688 6 6.398438L6 8.800781C6 9.019531 6.179688 9.199219 6.398438 9.199219L8.800781 9.199219C9.019531 9.199219 9.199219 9.019531 9.199219 8.800781L9.199219 6.398438C9.199219 6.179688 9.019531 6 8.800781 6zM8.398438 8.398438L6.800781 8.398438 6.800781 6.800781 8.398438 6.800781zM13.199219 6L10.800781 6C10.578125 6 10.398438 6.179688 10.398438 6.398438L10.398438 8.800781C10.398438 9.019531 10.578125 9.199219 10.800781 9.199219L13.199219 9.199219C13.421875 9.199219 13.601562 9.019531 13.601562 8.800781L13.601562 6.398438C13.601562 6.179688 13.421875 6 13.199219 6zM12.800781 8.398438L11.199219 8.398438 11.199219 6.800781 12.800781 6.800781zM17.601562 6L15.199219 6C14.980469 6 14.800781 6.179688 14.800781 6.398438L14.800781 8.800781C14.800781 9.019531 14.980469 9.199219 15.199219 9.199219L17.601562 9.199219C17.820312 9.199219 18 9.019531 18 8.800781L18 6.398438C18 6.179688 17.820312 6 17.601562 6zM17.199219 8.398438L15.601562 8.398438 15.601562 6.800781 17.199219 6.800781zM22 6L19.601562 6C19.378906 6 19.199219 6.179688 19.199219 6.398438L19.199219 8.800781C19.199219 9.019531 19.378906 9.199219 19.601562 9.199219L22 9.199219C22.222656 9.199219 22.398438 9.019531 22.398438 8.800781L22.398438 6.398438C22.398438 6.179688 22.222656 6 22 6zM21.601562 8.398438L20 8.398438 20 6.800781 21.601562 6.800781zM8.800781 10.398438L6.398438 10.398438C6.179688 10.398438 6 10.578125 6 10.800781L6 13.199219C6 13.421875 6.179688 13.601562 6.398438 13.601562L8.800781 13.601562C9.019531 13.601562 9.199219 13.421875 9.199219 13.199219L9.199219 10.800781C9.199219 10.578125 9.019531 10.398438 8.800781 10.398438zM8.398438 12.800781L6.800781 12.800781 6.800781 11.199219 8.398438 11.199219zM13.199219 10.398438L10.800781 10.398438C10.578125 10.398438 10.398438 10.578125 10.398438 10.800781L10.398438 13.199219C10.398438 13.421875 10.578125 13.601562 10.800781 13.601562L13.199219 13.601562C13.421875 13.601562 13.601562 13.421875 13.601562 13.199219L13.601562 10.800781C13.601562 10.578125 13.421875 10.398438 13.199219 10.398438zM12.800781 12.800781L11.199219 12.800781 11.199219 11.199219 12.800781 11.199219zM17.601562 10.398438L15.199219 10.398438C14.980469 10.398438 14.800781 10.578125 14.800781 10.800781L14.800781 13.199219C14.800781 13.421875 14.980469 13.601562 15.199219 13.601562L17.601562 13.601562C17.820312 13.601562 18 13.421875 18 13.199219L18 10.800781C18 10.578125 17.820312 10.398438 17.601562 10.398438zM17.199219 12.800781L15.601562 12.800781 15.601562 11.199219 17.199219 11.199219zM22 10.398438L19.601562 10.398438C19.378906 10.398438 19.199219 10.578125 19.199219 10.800781L19.199219 13.199219C19.199219 13.421875 19.378906 13.601562 19.601562 13.601562L22 13.601562C22.222656 13.601562 22.398438 13.421875 22.398438 13.199219L22.398438 10.800781C22.398438 10.578125 22.222656 10.398438 22 10.398438zM21.601562 12.800781L20 12.800781 20 11.199219 21.601562 11.199219zM8.800781 14.800781L6.398438 14.800781C6.179688 14.800781 6 14.980469 6 15.199219L6 17.601562C6 17.820312 6.179688 18 6.398438 18L8.800781 18C9.019531 18 9.199219 17.820312 9.199219 17.601562L9.199219 15.199219C9.199219 14.980469 9.019531 14.800781 8.800781 14.800781zM8.398438 17.199219L6.800781 17.199219 6.800781 15.601562 8.398438 15.601562zM13.199219 14.800781L10.800781 14.800781C10.578125 14.800781 10.398438 14.980469 10.398438 15.199219L10.398438 17.601562C10.398438 17.820312 10.578125 18 10.800781 18L13.199219 18C13.421875 18 13.601562 17.820312 13.601562 17.601562L13.601562 15.199219C13.601562 14.980469 13.421875 14.800781 13.199219 14.800781zM12.800781 17.199219L11.199219 17.199219 11.199219 15.601562 12.800781 15.601562zM17.601562 14.800781L15.199219 14.800781C14.980469 14.800781 14.800781 14.980469 14.800781 15.199219L14.800781 17.601562C14.800781 17.820312 14.980469 18 15.199219 18L17.601562 18C17.820312 18 18 17.820312 18 17.601562L18 15.199219C18 14.980469 17.820312 14.800781 17.601562 14.800781zM17.199219 17.199219L15.601562 17.199219 15.601562 15.601562 17.199219 15.601562zM22 14.800781L19.601562 14.800781C19.378906 14.800781 19.199219 14.980469 19.199219 15.199219L19.199219 17.601562C19.199219 17.820312 19.378906 18 19.601562 18L22 18C22.222656 18 22.398438 17.820312 22.398438 17.601562L22.398438 15.199219C22.398438 14.980469 22.222656 14.800781 22 14.800781zM21.601562 17.199219L20 17.199219 20 15.601562 21.601562 15.601562zM8.800781 19.199219L6.398438 19.199219C6.179688 19.199219 6 19.378906 6 19.601562L6 22C6 22.222656 6.179688 22.398438 6.398438 22.398438L8.800781 22.398438C9.019531 22.398438 9.199219 22.222656 9.199219 22L9.199219 19.601562C9.199219 19.378906 9.019531 19.199219 8.800781 19.199219zM8.398438 21.601562L6.800781 21.601562 6.800781 20 8.398438 20zM13.199219 19.199219L10.800781 19.199219C10.578125 19.199219 10.398438 19.378906 10.398438 19.601562L10.398438 22C10.398438 22.222656 10.578125 22.398438 10.800781 22.398438L13.199219 22.398438C13.421875 22.398438 13.601562 22.222656 13.601562 22L13.601562 19.601562C13.601562 19.378906 13.421875 19.199219 13.199219 19.199219zM12.800781 21.601562L11.199219 21.601562 11.199219 20 12.800781 20zM17.601562 19.199219L15.199219 19.199219C14.980469 19.199219 14.800781 19.378906 14.800781 19.601562L14.800781 22C14.800781 22.222656 14.980469 22.398438 15.199219 22.398438L17.601562 22.398438C17.820312 22.398438 18 22.222656 18 22L18 19.601562C18 19.378906 17.820312 19.199219 17.601562 19.199219zM17.199219 21.601562L15.601562 21.601562 15.601562 20 17.199219 20zM22 19.199219L19.601562 19.199219C19.378906 19.199219 19.199219 19.378906 19.199219 19.601562L19.199219 22C19.199219 22.222656 19.378906 22.398438 19.601562 22.398438L22 22.398438C22.222656 22.398438 22.398438 22.222656 22.398438 22L22.398438 19.601562C22.398438 19.378906 22.222656 19.199219 22 19.199219zM21.601562 21.601562L20 21.601562 20 20 21.601562 20zM3.082031 4.515625C3.007812 4.441406 2.90625 4.398438 2.800781 4.398438L2 4.398438C1.894531 4.398438 1.792969 4.441406 1.71875 4.515625L1.316406 4.917969C1.242188 4.992188 1.199219 5.09375 1.199219 5.199219L1.199219 6C1.199219 6.105469 1.242188 6.207031 1.316406 6.28125L1.71875 6.683594C1.792969 6.757812 1.894531 6.800781 2 6.800781L2.800781 6.800781C2.90625 6.800781 3.007812 6.757812 3.082031 6.683594L3.484375 6.28125C3.558594 6.207031 3.601562 6.105469 3.601562 6L3.601562 5.199219C3.601562 5.09375 3.558594 4.992188 3.484375 4.917969zM2.800781 5.835938L2.632812 6 2.164062 6 2 5.835938 2 5.367188 2.164062 5.199219 2.632812 5.199219 2.800781 5.367188zM3.082031 7.71875C3.007812 7.640625 2.90625 7.601562 2.800781 7.601562L2 7.601562C1.894531 7.601562 1.792969 7.640625 1.71875 7.71875L1.316406 8.117188C1.242188 8.191406 1.199219 8.292969 1.199219 8.398438L1.199219 9.199219C1.199219 9.304688 1.242188 9.40625 1.316406 9.484375L1.71875 9.882812C1.792969 9.957031 1.894531 10 2 10L2.800781 10C2.90625 10 3.007812 9.957031 3.082031 9.882812L3.484375 9.484375C3.558594 9.40625 3.601562 9.304688 3.601562 9.199219L3.601562 8.398438C3.601562 8.292969 3.558594 8.191406 3.484375 8.117188zM2.800781 9.035156L2.632812 9.199219 2.164062 9.199219 2 9.035156 2 8.566406 2.164062 8.398438 2.632812 8.398438 2.800781 8.566406zM3.082031 10.917969C3.007812 10.84375 2.90625 10.800781 2.800781 10.800781L2 10.800781C1.894531 10.800781 1.792969 10.84375 1.71875 10.917969L1.316406 11.316406C1.242188 11.390625 1.199219 11.492188 1.199219 11.601562L1.199219 12.398438C1.199219 12.507812 1.242188 12.609375 1.316406 12.683594L1.71875 13.082031C1.792969 13.15625 1.894531 13.199219 2 13.199219L2.800781 13.199219C2.90625 13.199219 3.007812 13.15625 3.082031 13.082031L3.484375 12.683594C3.558594 12.609375 3.601562 12.507812 3.601562 12.398438L3.601562 11.601562C3.601562 11.492188 3.558594 11.390625 3.484375 11.316406zM2.800781 12.234375L2.632812 12.398438 2.164062 12.398438 2 12.234375 2 11.765625 2.164062 11.601562 2.632812 11.601562 2.800781 11.765625zM3.082031 14.117188C3.007812 14.042969 2.90625 14 2.800781 14L2 14C1.894531 14 1.792969 14.042969 1.71875 14.117188L1.316406 14.515625C1.242188 14.59375 1.199219 14.695312 1.199219 14.800781L1.199219 15.601562C1.199219 15.707031 1.242188 15.808594 1.316406 15.882812L1.71875 16.28125C1.792969 16.359375 1.894531 16.398438 2 16.398438L2.800781 16.398438C2.90625 16.398438 3.007812 16.359375 3.082031 16.28125L3.484375 15.882812C3.558594 15.808594 3.601562 15.707031 3.601562 15.601562L3.601562 14.800781C3.601562 14.695312 3.558594 14.59375 3.484375 14.515625zM2.800781 15.433594L2.632812 15.601562 2.164062 15.601562 2 15.433594 2 14.964844 2.164062 14.800781 2.632812 14.800781 2.800781 14.964844zM3.082031 17.316406C3.007812 17.242188 2.90625 17.199219 2.800781 17.199219L2 17.199219C1.894531 17.199219 1.792969 17.242188 1.71875 17.316406L1.316406 17.71875C1.242188 17.792969 1.199219 17.894531 1.199219 18L1.199219 18.800781C1.199219 18.90625 1.242188 19.007812 1.316406 19.082031L1.71875 19.484375C1.792969 19.558594 1.894531 19.601562 2 19.601562L2.800781 19.601562C2.90625 19.601562 3.007812 19.558594 3.082031 19.484375L3.484375 19.082031C3.558594 19.007812 3.601562 18.90625 3.601562 18.800781L3.601562 18C3.601562 17.894531 3.558594 17.792969 3.484375 17.71875zM2.800781 18.632812L2.632812 18.800781 2.164062 18.800781 2 18.632812 2 18.164062 2.164062 18 2.632812 18 2.800781 18.164062zM3.082031 20.515625C3.007812 20.441406 2.90625 20.398438 2.800781 20.398438L2 20.398438C1.894531 20.398438 1.792969 20.441406 1.71875 20.515625L1.316406 20.917969C1.242188 20.992188 1.199219 21.09375 1.199219 21.199219L1.199219 22C1.199219 22.105469 1.242188 22.207031 1.316406 22.28125L1.71875 22.683594C1.792969 22.757812 1.894531 22.800781 2 22.800781L2.800781 22.800781C2.90625 22.800781 3.007812 22.757812 3.082031 22.683594L3.484375 22.28125C3.558594 22.207031 3.601562 22.105469 3.601562 22L3.601562 21.199219C3.601562 21.09375 3.558594 20.992188 3.484375 20.917969zM2.800781 21.835938L2.632812 22 2.164062 22 2 21.835938 2 21.367188 2.164062 21.199219 2.632812 21.199219 2.800781 21.367188zM2.800781 21.835938"/>
</svg>
