<svg xmlns="http://www.w3.org/2000/svg" width="32" height="32" viewBox="0 0 24 24">
    <path d="M14.070312 7.863281C14.070312 8.089844 13.882812 8.277344 13.65625 8.277344 13.425781 8.277344 13.242188 8.089844 13.242188 7.863281 13.242188 7.632812 13.425781 7.449219 13.65625 7.449219 13.882812 7.449219 14.070312 7.632812 14.070312 7.863281zM9.101562 7.863281C9.101562 8.089844 8.917969 8.277344 8.691406 8.277344 8.460938 8.277344 8.277344 8.089844 8.277344 7.863281 8.277344 7.632812 8.460938 7.449219 8.691406 7.449219 8.917969 7.449219 9.101562 7.632812 9.101562 7.863281zM22.34375 7.863281C22.34375 8.089844 22.160156 8.277344 21.929688 8.277344 21.703125 8.277344 21.515625 8.089844 21.515625 7.863281 21.515625 7.632812 21.703125 7.449219 21.929688 7.449219 22.160156 7.449219 22.34375 7.632812 22.34375 7.863281zM15.722656 7.863281C15.722656 8.089844 15.539062 8.277344 15.308594 8.277344 15.082031 8.277344 14.898438 8.089844 14.898438 7.863281 14.898438 7.632812 15.082031 7.449219 15.308594 7.449219 15.539062 7.449219 15.722656 7.632812 15.722656 7.863281zM5.792969 7.863281C5.792969 8.089844 5.609375 8.277344 5.378906 8.277344 5.152344 8.277344 4.964844 8.089844 4.964844 7.863281 4.964844 7.632812 5.152344 7.449219 5.378906 7.449219 5.609375 7.449219 5.792969 7.632812 5.792969 7.863281zM12.414062 7.863281C12.414062 8.089844 12.230469 8.277344 12 8.277344 11.769531 8.277344 11.585938 8.089844 11.585938 7.863281 11.585938 7.632812 11.769531 7.449219 12 7.449219 12.230469 7.449219 12.414062 7.632812 12.414062 7.863281zM20.691406 7.863281C20.691406 8.089844 20.503906 8.277344 20.277344 8.277344 20.046875 8.277344 19.863281 8.089844 19.863281 7.863281 19.863281 7.632812 20.046875 7.449219 20.277344 7.449219 20.503906 7.449219 20.691406 7.632812 20.691406 7.863281zM10.757812 7.863281C10.757812 8.089844 10.574219 8.277344 10.34375 8.277344 10.117188 8.277344 9.929688 8.089844 9.929688 7.863281 9.929688 7.632812 10.117188 7.449219 10.34375 7.449219 10.574219 7.449219 10.757812 7.632812 10.757812 7.863281zM7.449219 7.863281C7.449219 8.089844 7.261719 8.277344 7.035156 8.277344 6.804688 8.277344 6.621094 8.089844 6.621094 7.863281 6.621094 7.632812 6.804688 7.449219 7.035156 7.449219 7.261719 7.449219 7.449219 7.632812 7.449219 7.863281zM19.035156 7.863281C19.035156 8.089844 18.847656 8.277344 18.621094 8.277344 18.390625 8.277344 18.207031 8.089844 18.207031 7.863281 18.207031 7.632812 18.390625 7.449219 18.621094 7.449219 18.847656 7.449219 19.035156 7.632812 19.035156 7.863281zM17.378906 7.863281C17.378906 8.089844 17.195312 8.277344 16.964844 8.277344 16.738281 8.277344 16.550781 8.089844 16.550781 7.863281 16.550781 7.632812 16.738281 7.449219 16.964844 7.449219 17.195312 7.449219 17.378906 7.632812 17.378906 7.863281zM2.484375 7.863281C2.484375 8.089844 2.296875 8.277344 2.070312 8.277344 1.839844 8.277344 1.65625 8.089844 1.65625 7.863281 1.65625 7.632812 1.839844 7.449219 2.070312 7.449219 2.296875 7.449219 2.484375 7.632812 2.484375 7.863281zM4.136719 7.863281C4.136719 8.089844 3.953125 8.277344 3.722656 8.277344 3.496094 8.277344 3.308594 8.089844 3.308594 7.863281 3.308594 7.632812 3.496094 7.449219 3.722656 7.449219 3.953125 7.449219 4.136719 7.632812 4.136719 7.863281zM4.136719 6.207031C5.277344 6.207031 6.207031 5.277344 6.207031 4.136719 6.207031 2.996094 5.277344 2.070312 4.136719 2.070312 3.570312 2.070312 3.058594 2.300781 2.683594 2.667969 2.679688 2.671875 2.675781 2.671875 2.675781 2.675781 2.671875 2.675781 2.671875 2.679688 2.671875 2.683594 2.300781 3.054688 2.070312 3.570312 2.070312 4.136719 2.070312 5.277344 2.996094 6.207031 4.136719 6.207031zM5.378906 4.136719C5.378906 4.824219 4.824219 5.378906 4.136719 5.378906 3.453125 5.378906 2.898438 4.824219 2.898438 4.136719 2.898438 3.945312 2.945312 3.769531 3.019531 3.605469L3.84375 4.429688C3.925781 4.511719 4.03125 4.550781 4.136719 4.550781 4.242188 4.550781 4.351562 4.511719 4.429688 4.429688 4.59375 4.269531 4.59375 4.007812 4.429688 3.84375L3.605469 3.019531C3.769531 2.941406 3.945312 2.898438 4.136719 2.898438 4.824219 2.898438 5.378906 3.453125 5.378906 4.136719zM5.378906 4.136719"/>
    <path d="M 0 0 L 0 24 L 24 24 L 24 0 Z M 6.621094 23.171875 L 0.828125 23.171875 L 0.828125 14.070312 L 6.621094 14.070312 Z M 9.929688 23.171875 L 7.449219 23.171875 L 7.449219 14.070312 L 9.101562 14.070312 L 9.101562 20.691406 L 9.929688 20.691406 Z M 13.242188 23.171875 L 10.757812 23.171875 L 10.757812 20.691406 L 11.585938 20.691406 L 11.585938 14.070312 L 12.414062 14.070312 L 12.414062 20.691406 L 13.242188 20.691406 Z M 16.550781 23.171875 L 14.070312 23.171875 L 14.070312 20.691406 L 14.898438 20.691406 L 14.898438 14.070312 L 15.722656 14.070312 L 15.722656 20.691406 L 16.550781 20.691406 Z M 19.863281 23.171875 L 17.378906 23.171875 L 17.378906 20.691406 L 18.207031 20.691406 L 18.207031 14.070312 L 19.035156 14.070312 L 19.035156 20.691406 L 19.863281 20.691406 Z M 23.171875 23.171875 L 20.691406 23.171875 L 20.691406 20.691406 L 21.515625 20.691406 L 21.515625 14.070312 L 23.171875 14.070312 Z M 21.515625 13.242188 L 0.828125 13.242188 L 0.828125 0.828125 L 23.171875 0.828125 L 23.171875 13.242188 Z M 21.515625 13.242188"/>
    <path d="M14.484375 5.792969L15.308594 5.792969C15.539062 5.792969 15.722656 5.609375 15.722656 5.378906 15.722656 5.152344 15.539062 4.964844 15.308594 4.964844L14.484375 4.964844C14.253906 4.964844 14.070312 5.152344 14.070312 5.378906 14.070312 5.609375 14.253906 5.792969 14.484375 5.792969zM17.378906 5.792969C17.609375 5.792969 17.792969 5.609375 17.792969 5.378906 17.792969 5.152344 17.609375 4.964844 17.378906 4.964844L16.550781 4.964844C16.324219 4.964844 16.136719 5.152344 16.136719 5.378906 16.136719 5.609375 16.324219 5.792969 16.550781 5.792969zM16.550781 4.550781L17.378906 4.550781C17.609375 4.550781 17.792969 4.367188 17.792969 4.136719 17.792969 3.910156 17.609375 3.722656 17.378906 3.722656L16.550781 3.722656C16.324219 3.722656 16.136719 3.910156 16.136719 4.136719 16.136719 4.367188 16.324219 4.550781 16.550781 4.550781zM16.550781 3.308594L17.378906 3.308594C17.609375 3.308594 17.792969 3.125 17.792969 2.898438 17.792969 2.667969 17.609375 2.484375 17.378906 2.484375L16.550781 2.484375C16.324219 2.484375 16.136719 2.667969 16.136719 2.898438 16.136719 3.125 16.324219 3.308594 16.550781 3.308594zM18.621094 5.792969L19.449219 5.792969C19.675781 5.792969 19.863281 5.609375 19.863281 5.378906 19.863281 5.152344 19.675781 4.964844 19.449219 4.964844L18.621094 4.964844C18.390625 4.964844 18.207031 5.152344 18.207031 5.378906 18.207031 5.609375 18.390625 5.792969 18.621094 5.792969zM18.621094 4.550781L19.449219 4.550781C19.675781 4.550781 19.863281 4.367188 19.863281 4.136719 19.863281 3.910156 19.675781 3.722656 19.449219 3.722656L18.621094 3.722656C18.390625 3.722656 18.207031 3.910156 18.207031 4.136719 18.207031 4.367188 18.390625 4.550781 18.621094 4.550781zM20.691406 5.792969L21.515625 5.792969C21.746094 5.792969 21.929688 5.609375 21.929688 5.378906 21.929688 5.152344 21.746094 4.964844 21.515625 4.964844L20.691406 4.964844C20.460938 4.964844 20.277344 5.152344 20.277344 5.378906 20.277344 5.609375 20.460938 5.792969 20.691406 5.792969zM8.277344 5.792969L9.101562 5.792969C9.332031 5.792969 9.515625 5.609375 9.515625 5.378906 9.515625 5.152344 9.332031 4.964844 9.101562 4.964844L8.277344 4.964844C8.046875 4.964844 7.863281 5.152344 7.863281 5.378906 7.863281 5.609375 8.046875 5.792969 8.277344 5.792969zM8.277344 4.550781L9.101562 4.550781C9.332031 4.550781 9.515625 4.367188 9.515625 4.136719 9.515625 3.910156 9.332031 3.722656 9.101562 3.722656L8.277344 3.722656C8.046875 3.722656 7.863281 3.910156 7.863281 4.136719 7.863281 4.367188 8.046875 4.550781 8.277344 4.550781zM10.34375 3.308594L11.171875 3.308594C11.402344 3.308594 11.585938 3.125 11.585938 2.898438 11.585938 2.667969 11.402344 2.484375 11.171875 2.484375L10.34375 2.484375C10.117188 2.484375 9.929688 2.667969 9.929688 2.898438 9.929688 3.125 10.117188 3.308594 10.34375 3.308594zM10.34375 5.792969L11.171875 5.792969C11.402344 5.792969 11.585938 5.609375 11.585938 5.378906 11.585938 5.152344 11.402344 4.964844 11.171875 4.964844L10.34375 4.964844C10.117188 4.964844 9.929688 5.152344 9.929688 5.378906 9.929688 5.609375 10.117188 5.792969 10.34375 5.792969zM10.34375 4.550781L11.171875 4.550781C11.402344 4.550781 11.585938 4.367188 11.585938 4.136719 11.585938 3.910156 11.402344 3.722656 11.171875 3.722656L10.34375 3.722656C10.117188 3.722656 9.929688 3.910156 9.929688 4.136719 9.929688 4.367188 10.117188 4.550781 10.34375 4.550781zM12.414062 4.550781L13.242188 4.550781C13.46875 4.550781 13.65625 4.367188 13.65625 4.136719 13.65625 3.910156 13.46875 3.722656 13.242188 3.722656L12.414062 3.722656C12.183594 3.722656 12 3.910156 12 4.136719 12 4.367188 12.183594 4.550781 12.414062 4.550781zM14.484375 4.550781L15.308594 4.550781C15.539062 4.550781 15.722656 4.367188 15.722656 4.136719 15.722656 3.910156 15.539062 3.722656 15.308594 3.722656L14.484375 3.722656C14.253906 3.722656 14.070312 3.910156 14.070312 4.136719 14.070312 4.367188 14.253906 4.550781 14.484375 4.550781zM12.414062 5.792969L13.242188 5.792969C13.46875 5.792969 13.65625 5.609375 13.65625 5.378906 13.65625 5.152344 13.46875 4.964844 13.242188 4.964844L12.414062 4.964844C12.183594 4.964844 12 5.152344 12 5.378906 12 5.609375 12.183594 5.792969 12.414062 5.792969zM2.070312 22.34375L5.378906 22.34375C5.609375 22.34375 5.792969 22.160156 5.792969 21.929688L5.792969 15.308594C5.792969 15.082031 5.609375 14.898438 5.378906 14.898438L2.070312 14.898438C1.839844 14.898438 1.65625 15.082031 1.65625 15.308594L1.65625 21.929688C1.65625 22.160156 1.839844 22.34375 2.070312 22.34375zM4.964844 19.863281L2.484375 19.863281 2.484375 19.035156 4.964844 19.035156zM4.964844 18.207031L2.484375 18.207031 2.484375 17.378906 4.964844 17.378906zM2.484375 21.515625L2.484375 20.691406 4.964844 20.691406 4.964844 21.515625zM4.964844 15.722656L4.964844 16.550781 2.484375 16.550781 2.484375 15.722656zM21.394531 9.636719C21.320312 9.5625 21.214844 9.515625 21.101562 9.515625L20.277344 9.515625C20.164062 9.515625 20.0625 9.5625 19.984375 9.636719L19.570312 10.050781C19.492188 10.128906 19.449219 10.234375 19.449219 10.34375L19.449219 11.171875C19.449219 11.28125 19.492188 11.386719 19.570312 11.464844L19.984375 11.878906C20.0625 11.957031 20.164062 12 20.277344 12L21.101562 12C21.214844 12 21.320312 11.957031 21.394531 11.878906L21.808594 11.464844C21.886719 11.386719 21.929688 11.28125 21.929688 11.171875L21.929688 10.34375C21.929688 10.234375 21.886719 10.128906 21.808594 10.050781zM21.101562 11L20.933594 11.171875 20.445312 11.171875 20.277344 11 20.277344 10.515625 20.445312 10.34375 20.933594 10.34375 21.101562 10.515625zM18.5 9.636719C18.421875 9.5625 18.316406 9.515625 18.207031 9.515625L17.378906 9.515625C17.269531 9.515625 17.164062 9.5625 17.085938 9.636719L16.671875 10.050781C16.59375 10.128906 16.550781 10.234375 16.550781 10.34375L16.550781 11.171875C16.550781 11.28125 16.59375 11.386719 16.671875 11.464844L17.085938 11.878906C17.164062 11.957031 17.269531 12 17.378906 12L18.207031 12C18.316406 12 18.421875 11.957031 18.5 11.878906L18.914062 11.464844C18.992188 11.386719 19.035156 11.28125 19.035156 11.171875L19.035156 10.34375C19.035156 10.234375 18.992188 10.128906 18.914062 10.050781zM18.207031 11L18.035156 11.171875 17.550781 11.171875 17.378906 11 17.378906 10.515625 17.550781 10.34375 18.035156 10.34375 18.207031 10.515625zM15.601562 9.636719C15.527344 9.5625 15.421875 9.515625 15.308594 9.515625L14.484375 9.515625C14.371094 9.515625 14.269531 9.5625 14.191406 9.636719L13.777344 10.050781C13.699219 10.128906 13.65625 10.234375 13.65625 10.34375L13.65625 11.171875C13.65625 11.28125 13.699219 11.386719 13.777344 11.464844L14.191406 11.878906C14.269531 11.957031 14.371094 12 14.484375 12L15.308594 12C15.421875 12 15.527344 11.957031 15.601562 11.878906L16.015625 11.464844C16.09375 11.386719 16.136719 11.28125 16.136719 11.171875L16.136719 10.34375C16.136719 10.234375 16.09375 10.128906 16.015625 10.050781zM15.308594 11L15.140625 11.171875 14.652344 11.171875 14.484375 11 14.484375 10.515625 14.652344 10.34375 15.140625 10.34375 15.308594 10.515625zM12.707031 9.636719C12.628906 9.5625 12.523438 9.515625 12.414062 9.515625L11.585938 9.515625C11.476562 9.515625 11.371094 9.5625 11.292969 9.636719L10.878906 10.050781C10.800781 10.128906 10.757812 10.234375 10.757812 10.34375L10.757812 11.171875C10.757812 11.28125 10.800781 11.386719 10.878906 11.464844L11.292969 11.878906C11.371094 11.957031 11.476562 12 11.585938 12L12.414062 12C12.523438 12 12.628906 11.957031 12.707031 11.878906L13.121094 11.464844C13.199219 11.386719 13.242188 11.28125 13.242188 11.171875L13.242188 10.34375C13.242188 10.234375 13.199219 10.128906 13.121094 10.050781zM12.414062 11L12.242188 11.171875 11.757812 11.171875 11.585938 11 11.585938 10.515625 11.757812 10.34375 12.242188 10.34375 12.414062 10.515625zM9.808594 9.636719C9.730469 9.5625 9.628906 9.515625 9.515625 9.515625L8.691406 9.515625C8.578125 9.515625 8.472656 9.5625 8.398438 9.636719L7.984375 10.050781C7.90625 10.128906 7.863281 10.234375 7.863281 10.34375L7.863281 11.171875C7.863281 11.28125 7.90625 11.386719 7.984375 11.464844L8.398438 11.878906C8.472656 11.957031 8.578125 12 8.691406 12L9.515625 12C9.628906 12 9.730469 11.957031 9.808594 11.878906L10.222656 11.464844C10.300781 11.386719 10.34375 11.28125 10.34375 11.171875L10.34375 10.34375C10.34375 10.234375 10.300781 10.128906 10.222656 10.050781zM9.515625 11L9.347656 11.171875 8.859375 11.171875 8.691406 11 8.691406 10.515625 8.859375 10.34375 9.347656 10.34375 9.515625 10.515625zM6.914062 9.636719C6.835938 9.5625 6.730469 9.515625 6.621094 9.515625L5.792969 9.515625C5.683594 9.515625 5.578125 9.5625 5.5 9.636719L5.085938 10.050781C5.007812 10.128906 4.964844 10.234375 4.964844 10.34375L4.964844 11.171875C4.964844 11.28125 5.007812 11.386719 5.085938 11.464844L5.5 11.878906C5.578125 11.957031 5.683594 12 5.792969 12L6.621094 12C6.730469 12 6.835938 11.957031 6.914062 11.878906L7.328125 11.464844C7.40625 11.386719 7.449219 11.28125 7.449219 11.171875L7.449219 10.34375C7.449219 10.234375 7.40625 10.128906 7.328125 10.050781zM6.621094 11L6.449219 11.171875 5.964844 11.171875 5.792969 11 5.792969 10.515625 5.964844 10.34375 6.449219 10.34375 6.621094 10.515625zM4.015625 9.636719C3.9375 9.5625 3.835938 9.515625 3.722656 9.515625L2.898438 9.515625C2.785156 9.515625 2.679688 9.5625 2.605469 9.636719L2.191406 10.050781C2.113281 10.128906 2.070312 10.234375 2.070312 10.34375L2.070312 11.171875C2.070312 11.28125 2.113281 11.386719 2.191406 11.464844L2.605469 11.878906C2.679688 11.957031 2.785156 12 2.898438 12L3.722656 12C3.835938 12 3.9375 11.957031 4.015625 11.878906L4.429688 11.464844C4.507812 11.386719 4.550781 11.28125 4.550781 11.171875L4.550781 10.34375C4.550781 10.234375 4.507812 10.128906 4.429688 10.050781zM3.722656 11L3.554688 11.171875 3.066406 11.171875 2.898438 11 2.898438 10.515625 3.066406 10.34375 3.554688 10.34375 3.722656 10.515625zM3.722656 11"/>
</svg>
