<svg xmlns="http://www.w3.org/2000/svg" width="32" height="32" viewBox="0 0 24 24">
    <path d="M21.277 14.285C20.211 13.22 18.98 12.437 17.754 12c1.226-.438 2.457-1.219 3.523-2.285 1.34-1.344 2.254-2.961 2.575-4.555.332-1.656-.016-3.101-.977-4.062-1.934-1.934-5.8-1.215-8.613 1.601C13.215 3.742 12.445 4.941 12 6.145c-.441-1.204-1.215-2.403-2.262-3.446C8.398 1.355 6.781.441 5.188.121c-1.66-.332-3.102.016-4.063.977-.96.96-1.309 2.406-.977 4.062.32 1.594 1.235 3.211 2.575 4.555C3.789 10.777 5.02 11.563 6.25 12c-1.23.441-2.46 1.223-3.527 2.285C1.383 15.63.469 17.246.148 18.84c-.332 1.66.016 3.101.977 4.062C1.848 23.625 2.844 24 4 24c.379 0 .777-.04 1.188-.121 1.593-.32 3.21-1.234 4.55-2.578 1.047-1.043 1.82-2.242 2.262-3.446.445 1.204 1.215 2.403 2.262 3.446 1.746 1.75 3.894 2.687 5.738 2.687 1.129 0 2.14-.351 2.875-1.086.96-.96 1.309-2.402.977-4.062-.32-1.594-1.235-3.211-2.575-4.555zm-9.168-.223l-.136.008-.09-.004a2.062 2.062 0 0 1-1.973-1.945L9.902 12l.008-.121a2.062 2.062 0 0 1 1.973-1.945l.09-.004.136.008a2.068 2.068 0 0 1 1.926 1.93l.008.132-.008.133a2.071 2.071 0 0 1-1.926 1.93zm2.77-10.746c1.219-1.222 2.68-2.05 4.105-2.336 1.364-.273 2.528-.011 3.274.735.75.75 1.012 1.91.738 3.273-.285 1.43-1.117 2.887-2.336 4.11-1.754 1.75-4.039 2.68-5.793 2.379a2.968 2.968 0 0 0-.531-1.223l3.008-3.008a1.933 1.933 0 0 0 2.402-.27c.367-.367.57-.855.57-1.374a1.947 1.947 0 0 0-3.89 0c0 .37.11.722.3 1.03L13.72 9.642a2.896 2.896 0 0 0-1.223-.532c-.3-1.754.629-4.043 2.383-5.793zm2.734 3.043a1.064 1.064 0 0 1-.312-.757 1.064 1.064 0 0 1 1.07-1.07c.277 0 .55.105.758.312a1.067 1.067 0 0 1 0 1.515c-.402.407-1.11.407-1.516 0zM1.003 4.99c-.273-1.364-.01-2.524.74-3.274.554-.555 1.339-.84 2.26-.84.321 0 .661.035 1.013.105 1.425.286 2.886 1.114 4.105 2.336 1.75 1.747 2.68 4.028 2.383 5.782-.473.074-.91.265-1.277.539L7.223 6.633a1.948 1.948 0 0 0-.274-2.406 1.947 1.947 0 0 0-2.75 0 1.947 1.947 0 0 0 1.375 3.32c.371 0 .723-.106 1.031-.3l3.004 3.007c-.265.355-.449.777-.53 1.234-1.743.27-4.009-.66-5.74-2.39-1.218-1.223-2.05-2.68-2.335-4.11zm3.813 1.37a1.073 1.073 0 0 1 1.516-1.515 1.073 1.073 0 0 1 0 1.515c-.402.407-1.11.407-1.516 0zm4.305 14.325c-1.219 1.222-2.68 2.054-4.105 2.34-1.364.269-2.528.007-3.274-.739-.75-.75-1.012-1.91-.738-3.273.285-1.43 1.117-2.887 2.336-4.11 1.531-1.53 3.48-2.437 5.12-2.437.212 0 .419.015.618.047.082.46.266.879.531 1.238l-3.004 3.004a1.933 1.933 0 0 0-2.406.27 1.947 1.947 0 0 0 1.375 3.32c.52 0 1.008-.203 1.375-.57a1.948 1.948 0 0 0 .274-2.403l3.004-3.008c.367.274.8.465 1.277.54.297 1.753-.633 4.034-2.383 5.78zM6.332 17.64a1.073 1.073 0 0 1 0 1.515c-.402.407-1.11.407-1.516 0a1.073 1.073 0 0 1 1.516-1.515zm15.926 4.644c-.746.746-1.91 1.012-3.274.738-1.425-.285-2.886-1.117-4.105-2.34-1.754-1.75-2.684-4.035-2.383-5.792a2.94 2.94 0 0 0 1.223-.528l3.008 3.008A1.933 1.933 0 0 0 17 19.773c.367.368.855.57 1.371.57.52 0 1.008-.202 1.375-.57.367-.367.57-.855.57-1.375s-.203-1.007-.57-1.375a1.933 1.933 0 0 0-1.375-.57c-.367 0-.719.11-1.027.3l-3.008-3.007c.262-.355.45-.77.531-1.223 1.754-.3 4.04.63 5.793 2.383 1.223 1.219 2.05 2.68 2.336 4.106.274 1.363.012 2.523-.738 3.273zm-3.887-4.957c.285 0 .555.11.758.313a1.067 1.067 0 0 1 0 1.515c-.402.407-1.11.407-1.516 0a1.064 1.064 0 0 1-.312-.758 1.064 1.064 0 0 1 1.07-1.07zm0 0"/>
</svg>
