<svg xmlns="http://www.w3.org/2000/svg" width="32" height="32" viewBox="0 0 24 24">
    <path d="M 17.105469 7.199219 L 15.601562 7.199219 L 15.601562 5.863281 C 15.601562 5.863281 15.601562 5.859375 15.601562 5.859375 C 16.621094 5.222656 17.199219 4.339844 17.199219 3.398438 C 17.199219 1.492188 14.914062 0 12 0 C 9.085938 0 6.800781 1.492188 6.800781 3.398438 C 6.800781 4.457031 7.542969 5.445312 8.800781 6.085938 L 8.800781 7.199219 L 6.894531 7.199219 C 3.753906 7.199219 1.199219 9.753906 1.199219 12.894531 L 1.199219 21.925781 C 1.199219 22.980469 1.988281 23.886719 2.996094 23.988281 C 3.554688 24.042969 4.121094 23.863281 4.539062 23.484375 C 4.957031 23.105469 5.199219 22.5625 5.199219 22 L 5.199219 13.921875 C 5.199219 13.371094 5.648438 12.925781 6.199219 12.925781 C 6.464844 12.925781 6.71875 13.027344 6.90625 13.21875 C 7.09375 13.40625 7.195312 13.65625 7.195312 13.921875 C 7.195312 17.5 7.199219 22 7.199219 22 C 7.199219 22.992188 8.007812 23.800781 9 23.800781 C 9.992188 23.800781 10.800781 22.992188 10.800781 22 C 10.800781 22 10.804688 17.589844 10.804688 14 C 10.804688 13.433594 11.226562 12.953125 11.746094 12.925781 C 12.023438 12.914062 12.285156 13.007812 12.488281 13.199219 C 12.6875 13.386719 12.796875 13.644531 12.796875 13.921875 C 12.792969 17.5 12.800781 22 12.800781 22 C 12.800781 22.992188 13.609375 23.800781 14.601562 23.800781 C 15.59375 23.800781 16.398438 22.992188 16.398438 22 C 16.398438 22 16.40625 17.5 16.402344 13.921875 C 16.402344 13.65625 16.507812 13.40625 16.695312 13.21875 C 16.882812 13.027344 17.132812 12.925781 17.402344 12.925781 L 17.804688 12.925781 C 18.355469 12.925781 18.800781 13.371094 18.800781 13.921875 L 18.800781 21.925781 C 18.800781 22.980469 19.589844 23.886719 20.597656 23.988281 C 20.664062 23.996094 20.730469 24 20.796875 24 C 21.289062 24 21.769531 23.816406 22.140625 23.484375 C 22.558594 23.105469 22.800781 22.5625 22.800781 22 L 22.800781 12.894531 C 22.800781 9.753906 20.246094 7.199219 17.105469 7.199219 Z M 9.679688 1.207031 C 9.726562 1.191406 9.777344 1.171875 9.824219 1.15625 C 9.914062 1.125 10.003906 1.097656 10.09375 1.070312 C 10.152344 1.054688 10.210938 1.035156 10.269531 1.019531 C 11.367188 0.738281 12.632812 0.738281 13.730469 1.019531 C 13.789062 1.035156 13.847656 1.050781 13.90625 1.070312 C 13.996094 1.09375 14.085938 1.125 14.175781 1.15625 C 14.222656 1.171875 14.273438 1.191406 14.320312 1.207031 C 14.375 1.335938 14.398438 1.46875 14.398438 1.601562 C 14.398438 2.46875 13.300781 3.199219 12 3.199219 C 10.699219 3.199219 9.601562 2.46875 9.601562 1.601562 C 9.601562 1.46875 9.625 1.335938 9.679688 1.207031 Z M 22 22 C 22 22.335938 21.855469 22.660156 21.601562 22.890625 C 21.347656 23.121094 21.015625 23.226562 20.675781 23.195312 C 20.074219 23.132812 19.601562 22.574219 19.601562 21.925781 L 19.601562 13.921875 C 19.601562 12.929688 18.792969 12.125 17.804688 12.125 L 17.398438 12.125 C 16.921875 12.125 16.46875 12.3125 16.128906 12.652344 C 15.789062 12.988281 15.601562 13.441406 15.605469 13.921875 C 15.605469 17.5 15.601562 22 15.601562 22 C 15.601562 22.550781 15.152344 23 14.601562 23 C 14.046875 23 13.601562 22.550781 13.601562 22 C 13.601562 22 13.59375 17.5 13.597656 13.921875 C 13.597656 13.425781 13.398438 12.960938 13.039062 12.617188 C 12.675781 12.277344 12.203125 12.101562 11.703125 12.128906 C 10.75 12.179688 10.003906 13 10.003906 14 C 10.007812 17.589844 10 22 10 22 C 10 22.550781 9.550781 23 9 23 C 8.449219 23 8 22.550781 8 22 C 8 22 7.992188 17.5 7.996094 13.921875 C 7.996094 13.441406 7.808594 12.992188 7.46875 12.652344 C 7.132812 12.3125 6.679688 12.125 6.195312 12.125 C 5.207031 12.125 4.398438 12.929688 4.398438 13.921875 L 4.398438 22 C 4.398438 22.335938 4.253906 22.660156 4.003906 22.890625 C 3.746094 23.121094 3.417969 23.226562 3.078125 23.195312 C 2.472656 23.132812 2 22.574219 2 21.925781 L 2 12.894531 C 2 10.195312 4.195312 8 6.894531 8 L 9.613281 8 L 9.613281 5.582031 L 9.367188 5.46875 C 8.261719 4.972656 7.601562 4.199219 7.601562 3.398438 C 7.601562 2.726562 8.0625 2.105469 8.800781 1.636719 C 8.828125 2.945312 10.253906 4 12 4 C 13.746094 4 15.167969 2.945312 15.199219 1.636719 C 15.9375 2.105469 16.398438 2.726562 16.398438 3.398438 C 16.398438 4.109375 15.878906 4.804688 14.96875 5.300781 L 14.800781 5.464844 L 14.800781 8 L 17.105469 8 C 19.804688 8 22 10.195312 22 12.894531 Z M 22 22"/>
</svg>
