<svg xmlns="http://www.w3.org/2000/svg" width="32" height="32" viewBox="0 0 24 24">
    <path d="M1.715 18.215A3.861 3.861 0 0 0 5.57 22.07c2.13 0 3.86-1.73 3.86-3.855 0-2.13-1.73-3.86-3.86-3.86a3.862 3.862 0 0 0-3.855 3.86zm3.855-3a3 3 0 0 1 0 6c-1.652 0-3-1.348-3-3 0-1.656 1.348-3 3-3zm0 0"/>
    <path d="M21.598 13.637c.168-.817.257-1.653.257-2.492 0-6.028-4.421-10.93-9.855-10.93s-9.855 4.902-9.855 10.93c0 .84.09 1.68.257 2.492A5.572 5.572 0 0 0 0 18.215c0 3.07 2.5 5.57 5.57 5.57 3.075 0 5.575-2.5 5.575-5.57 0-3.074-2.5-5.57-5.575-5.57-.246 0-.488.02-.726.05a9.44 9.44 0 0 1-.13-1.55c0-4.61 3.27-8.36 7.286-8.36s7.285 3.75 7.285 8.36a9.44 9.44 0 0 1-.129 1.55 5.58 5.58 0 0 0-.726-.05 5.576 5.576 0 0 0-5.575 5.57c0 3.07 2.5 5.57 5.575 5.57 3.07 0 5.57-2.5 5.57-5.57 0-1.895-.953-3.57-2.402-4.578zM5.57 13.5a4.718 4.718 0 0 1 4.715 4.715A4.72 4.72 0 0 1 5.57 22.93a4.723 4.723 0 0 1-4.715-4.715 4.719 4.719 0 0 1 2.696-4.254h.004c.168-.082.34-.152.511-.211h.004a4.24 4.24 0 0 1 .516-.145l.07-.015a4.71 4.71 0 0 1 .914-.09zM12 1.93c-4.488 0-8.145 4.133-8.145 9.215 0 .574.051 1.152.149 1.726-.004 0-.008 0-.008.004-.11.031-.215.07-.32.105l-.09.036a4.744 4.744 0 0 0-.352.148H3.23l-.046.012A11.355 11.355 0 0 1 3 11.145C3 5.59 7.04 1.07 12 1.07s9 4.52 9 10.075c0 .683-.063 1.363-.184 2.027l-.054-.012a5.425 5.425 0 0 0-.348-.144c-.035-.012-.07-.028-.105-.04a5.418 5.418 0 0 0-.301-.101c-.004 0-.008-.004-.012-.004.098-.574.149-1.152.149-1.726 0-5.082-3.657-9.215-8.145-9.215zm6.43 21a4.72 4.72 0 0 1-4.715-4.715A4.718 4.718 0 0 1 18.43 13.5c.316 0 .625.031.925.094l.051.011a4.824 4.824 0 0 1 .527.145c.169.059.337.129.505.207h.003a4.72 4.72 0 0 1 2.704 4.258 4.723 4.723 0 0 1-4.715 4.715zm0 0"/>
    <path d="M18.43 14.355a3.863 3.863 0 0 0-3.86 3.86 3.862 3.862 0 0 0 3.86 3.855 3.861 3.861 0 0 0 3.855-3.855c0-2.13-1.73-3.86-3.855-3.86zm0 6.86a3 3 0 1 1 3-3c0 1.652-1.348 3-3 3zm0 0"/>
</svg>
