<svg xmlns="http://www.w3.org/2000/svg" width="32" height="32" viewBox="0 0 24 24">
    <path d="M12 6c0-3.309-2.691-6-6-6S0 2.691 0 6s2.691 6 6 6 6-2.691 6-6zm-6 5.172A5.178 5.178 0 0 1 .828 6 5.178 5.178 0 0 1 6 .828 5.178 5.178 0 0 1 11.172 6 5.178 5.178 0 0 1 6 11.172zm0 0"/>
    <path d="M7.45 1.91v-.015l-.145-.04c-.032-.011-.067-.015-.102-.027l-.058-.016c-.008-.003-.012-.003-.02-.003a4.333 4.333 0 0 0-.508-.106l-.074-.012A4.939 4.939 0 0 0 6 1.656c-.184 0-.367.016-.543.035l-.074.012a4.333 4.333 0 0 0-.508.106c-.008 0-.012 0-.02.004l-.058.015c-.035.012-.07.016-.102.027l-.144.04v.015A4.346 4.346 0 0 0 1.656 6 4.35 4.35 0 0 0 6 10.344 4.35 4.35 0 0 0 10.344 6a4.346 4.346 0 0 0-2.895-4.09zm-2.071.633c.008-.004.012-.004.016-.004.097-.016.19-.031.285-.039.097-.008.195-.016.293-.016h.054c.098 0 .196.008.293.016.094.008.188.023.285.04a.03.03 0 0 1 .016.003v.422c-.02-.004-.039-.004-.059-.008-.062-.016-.128-.023-.199-.035-.027-.004-.054-.008-.082-.008A2.263 2.263 0 0 0 6 2.898c-.094 0-.188.004-.281.016-.028 0-.055.004-.082.008-.07.012-.137.02-.2.035-.019.004-.039.004-.058.008zM5.19 3.906c.008-.004.016-.004.02-.008a1.51 1.51 0 0 1 .2-.078c.027-.007.058-.02.085-.027.043-.012.086-.02.129-.027.047-.008.094-.02.145-.024.015-.004.03-.004.05-.004a1.881 1.881 0 0 1 .41.004c.051.004.098.016.145.024.043.007.086.015.129.027.027.008.059.02.086.027.07.024.137.047.2.078.003.004.01.004.019.008.382.188.64.504.64.852 0 .562-.664 1.035-1.449 1.035S4.55 5.32 4.55 4.758c0-.348.259-.664.641-.852zM6 9.516A3.52 3.52 0 0 1 2.484 6c0-1.422.848-2.648 2.067-3.203v.527c-.504.34-.828.86-.828 1.434C3.723 5.785 4.746 6.62 6 6.62c1.254 0 2.277-.836 2.277-1.863 0-.574-.324-1.094-.828-1.434v-.527A3.521 3.521 0 0 1 9.516 6 3.52 3.52 0 0 1 6 9.516zm0 0M18 12c3.309 0 6-2.691 6-6s-2.691-6-6-6-6 2.691-6 6 2.691 6 6 6zM18 .828A5.178 5.178 0 0 1 23.172 6 5.178 5.178 0 0 1 18 11.172 5.178 5.178 0 0 1 12.828 6 5.178 5.178 0 0 1 18 .828zm0 0"/>
    <path d="M18 10.344A4.35 4.35 0 0 0 22.344 6a4.346 4.346 0 0 0-2.895-4.09v-.015l-.144-.04c-.032-.011-.067-.015-.102-.027l-.058-.016c-.008-.003-.012-.003-.02-.003a4.333 4.333 0 0 0-.508-.106l-.074-.012A4.939 4.939 0 0 0 18 1.656c-.184 0-.367.016-.543.035l-.074.012a4.333 4.333 0 0 0-.508.106c-.008 0-.012 0-.02.004l-.058.015c-.035.012-.07.016-.102.027l-.144.04v.015A4.346 4.346 0 0 0 13.656 6 4.35 4.35 0 0 0 18 10.344zm-.621-7.801c.008-.004.012-.004.016-.004.097-.016.19-.031.285-.039.097-.008.195-.016.293-.016h.054c.098 0 .196.008.293.016.094.008.188.023.285.04a.03.03 0 0 1 .016.003v.422c-.02-.004-.039-.004-.058-.008-.063-.016-.13-.023-.2-.035-.027-.004-.054-.008-.082-.008A2.263 2.263 0 0 0 18 2.898c-.094 0-.188.004-.281.016-.028 0-.055.004-.082.008-.07.012-.137.02-.2.035-.019.004-.039.004-.058.008zm-.188 1.363c.008-.004.016-.004.02-.008a1.51 1.51 0 0 1 .2-.078c.026-.007.058-.02.085-.027.043-.012.086-.02.129-.027.047-.008.094-.02.145-.024.015-.004.03-.004.05-.004a1.881 1.881 0 0 1 .41.004c.051.004.098.016.145.024.043.007.086.015.129.027.027.008.058.02.086.027.07.024.137.047.2.078.003.004.01.004.019.008.382.188.64.504.64.852 0 .562-.664 1.035-1.449 1.035s-1.45-.473-1.45-1.035c0-.348.259-.664.641-.852zm-.64-1.11v.528c-.504.34-.828.856-.828 1.434 0 1.027 1.023 1.863 2.277 1.863 1.254 0 2.277-.836 2.277-1.863 0-.574-.324-1.094-.828-1.434v-.527A3.521 3.521 0 0 1 21.516 6 3.52 3.52 0 0 1 18 9.516 3.52 3.52 0 0 1 14.484 6c0-1.422.848-2.648 2.067-3.203zm0 0M6 12c-3.309 0-6 2.691-6 6s2.691 6 6 6 6-2.691 6-6-2.691-6-6-6zm0 11.172A5.178 5.178 0 0 1 .828 18 5.178 5.178 0 0 1 6 12.828 5.178 5.178 0 0 1 11.172 18 5.178 5.178 0 0 1 6 23.172zm0 0"/>
    <path d="M7.45 13.91v-.015l-.145-.04c-.032-.011-.067-.015-.102-.027l-.058-.015c-.008-.004-.012-.004-.02-.004a4.333 4.333 0 0 0-.508-.106l-.074-.012A4.939 4.939 0 0 0 6 13.656c-.184 0-.367.016-.543.035l-.074.012a4.333 4.333 0 0 0-.508.106c-.008 0-.012 0-.02.004l-.058.015c-.035.012-.07.016-.102.027l-.144.04v.015A4.346 4.346 0 0 0 1.656 18 4.35 4.35 0 0 0 6 22.344 4.35 4.35 0 0 0 10.344 18a4.346 4.346 0 0 0-2.895-4.09zm-2.071.633c.008-.004.012-.004.016-.004.097-.016.19-.031.285-.039.097-.008.195-.016.293-.016h.054c.098 0 .196.008.293.016.094.008.188.023.285.04a.03.03 0 0 1 .016.003v.422c-.02-.004-.039-.004-.059-.008-.062-.016-.128-.023-.199-.035-.027-.004-.054-.008-.082-.008A2.263 2.263 0 0 0 6 14.898c-.094 0-.188.004-.281.016-.028 0-.055.004-.082.008-.07.012-.137.02-.2.035-.019.004-.039.004-.058.008zm-.188 1.363c.008-.004.016-.004.02-.008a1.51 1.51 0 0 1 .2-.078c.027-.008.058-.02.085-.027.043-.012.086-.02.129-.027.047-.008.094-.02.145-.024.015-.004.03-.004.05-.004a1.881 1.881 0 0 1 .41.004c.051.004.098.016.145.024.043.007.086.015.129.027.027.008.059.02.086.027.07.024.137.047.2.078.003.004.01.004.019.008.382.188.64.504.64.852 0 .562-.664 1.035-1.449 1.035s-1.45-.473-1.45-1.035c0-.348.259-.664.641-.852zM6 21.516A3.52 3.52 0 0 1 2.484 18c0-1.422.848-2.648 2.067-3.203v.527c-.504.34-.828.856-.828 1.434 0 1.027 1.023 1.863 2.277 1.863 1.254 0 2.277-.836 2.277-1.863 0-.574-.324-1.094-.828-1.434v-.527A3.521 3.521 0 0 1 9.516 18 3.52 3.52 0 0 1 6 21.516zm0 0M18 12c-3.309 0-6 2.691-6 6s2.691 6 6 6 6-2.691 6-6-2.691-6-6-6zm0 11.172A5.178 5.178 0 0 1 12.828 18 5.178 5.178 0 0 1 18 12.828 5.178 5.178 0 0 1 23.172 18 5.178 5.178 0 0 1 18 23.172zm0 0"/>
    <path d="M19.45 13.91v-.015l-.145-.04c-.032-.011-.067-.015-.102-.027l-.058-.015c-.008-.004-.012-.004-.02-.004a4.333 4.333 0 0 0-.508-.106l-.074-.012a4.939 4.939 0 0 0-.543-.035c-.184 0-.367.016-.543.035l-.074.012a4.333 4.333 0 0 0-.508.106c-.008 0-.012 0-.02.004l-.058.015c-.035.012-.07.016-.102.027l-.144.04v.015A4.346 4.346 0 0 0 13.656 18 4.35 4.35 0 0 0 18 22.344 4.35 4.35 0 0 0 22.344 18a4.346 4.346 0 0 0-2.895-4.09zm-2.071.633c.008-.004.012-.004.016-.004.097-.016.19-.031.285-.039.097-.008.195-.016.293-.016h.054c.098 0 .196.008.293.016.094.008.188.023.285.04a.03.03 0 0 1 .016.003v.422c-.02-.004-.039-.004-.058-.008-.063-.016-.13-.023-.2-.035-.027-.004-.054-.008-.082-.008a2.263 2.263 0 0 0-.281-.016c-.094 0-.188.004-.281.016-.028 0-.055.004-.082.008-.07.012-.137.02-.2.035-.019.004-.039.004-.058.008zm-.188 1.363c.008-.004.016-.004.02-.008a1.51 1.51 0 0 1 .2-.078c.026-.008.058-.02.085-.027.043-.012.086-.02.129-.027.047-.008.094-.02.145-.024.015-.004.03-.004.05-.004a1.881 1.881 0 0 1 .41.004c.051.004.098.016.145.024.043.007.086.015.129.027.027.008.058.02.086.027.07.024.137.047.2.078.003.004.01.004.019.008.382.188.64.504.64.852 0 .562-.664 1.035-1.449 1.035s-1.45-.473-1.45-1.035c0-.348.259-.664.641-.852zm.809 5.61A3.52 3.52 0 0 1 14.484 18c0-1.422.848-2.648 2.067-3.203v.527c-.504.34-.828.856-.828 1.434 0 1.027 1.023 1.863 2.277 1.863 1.254 0 2.277-.836 2.277-1.863 0-.574-.324-1.094-.828-1.434v-.527A3.521 3.521 0 0 1 21.516 18 3.52 3.52 0 0 1 18 21.516zm0 0"/>
</svg>
