<svg xmlns="http://www.w3.org/2000/svg" width="32" height="32" viewBox="0 0 24 24">
    <path d="M 12 9.199219 C 10.457031 9.199219 9.199219 10.457031 9.199219 12 C 9.199219 13.542969 10.457031 14.800781 12 14.800781 C 13.542969 14.800781 14.800781 13.542969 14.800781 12 C 14.800781 10.457031 13.542969 9.199219 12 9.199219 Z M 12 14 C 10.898438 14 10 13.101562 10 12 C 10 10.898438 10.898438 10 12 10 C 13.101562 10 14 10.898438 14 12 C 14 13.101562 13.101562 14 12 14 Z M 12 14"/>
    <path d="M 23.683594 9.902344 C 23.480469 9.730469 23.21875 9.660156 22.957031 9.707031 L 17.042969 10.75 C 16.914062 10.238281 16.714844 9.757812 16.445312 9.320312 L 21.371094 5.871094 C 21.585938 5.722656 21.722656 5.484375 21.746094 5.222656 C 21.769531 4.960938 21.675781 4.703125 21.488281 4.519531 L 19.480469 2.511719 C 19.296875 2.324219 19.035156 2.234375 18.777344 2.253906 C 18.515625 2.277344 18.277344 2.414062 18.128906 2.628906 L 14.679688 7.554688 C 14.242188 7.285156 13.761719 7.085938 13.25 6.957031 L 14.292969 1.039062 C 14.339844 0.78125 14.265625 0.519531 14.097656 0.316406 C 13.929688 0.117188 13.683594 0 13.417969 0 L 10.582031 0 C 10.316406 0 10.070312 0.117188 9.902344 0.316406 C 9.730469 0.519531 9.660156 0.78125 9.707031 1.042969 L 10.75 6.957031 C 10.238281 7.085938 9.757812 7.289062 9.320312 7.554688 L 5.871094 2.628906 C 5.722656 2.414062 5.484375 2.277344 5.222656 2.253906 C 4.964844 2.234375 4.703125 2.324219 4.519531 2.511719 L 2.511719 4.519531 C 2.324219 4.707031 2.230469 4.960938 2.253906 5.222656 C 2.277344 5.484375 2.414062 5.722656 2.628906 5.875 L 7.554688 9.320312 C 7.285156 9.757812 7.085938 10.238281 6.957031 10.75 L 1.042969 9.707031 C 0.785156 9.660156 0.519531 9.734375 0.316406 9.902344 C 0.117188 10.070312 0 10.316406 0 10.582031 L 0 13.417969 C 0 13.683594 0.117188 13.929688 0.316406 14.097656 C 0.476562 14.234375 0.679688 14.308594 0.886719 14.308594 C 0.9375 14.308594 0.988281 14.300781 1.042969 14.292969 L 6.957031 13.25 C 7.085938 13.761719 7.285156 14.242188 7.554688 14.679688 L 2.628906 18.128906 C 2.414062 18.277344 2.277344 18.515625 2.253906 18.777344 C 2.230469 19.039062 2.324219 19.296875 2.511719 19.480469 L 4.519531 21.488281 C 4.6875 21.65625 4.910156 21.75 5.144531 21.75 C 5.171875 21.75 5.195312 21.746094 5.222656 21.746094 C 5.484375 21.722656 5.722656 21.585938 5.871094 21.371094 L 9.320312 16.445312 C 9.757812 16.714844 10.238281 16.914062 10.75 17.042969 L 9.707031 22.960938 C 9.660156 23.21875 9.730469 23.480469 9.902344 23.683594 C 10.070312 23.882812 10.316406 24 10.582031 24 L 13.417969 24 C 13.683594 24 13.929688 23.882812 14.097656 23.683594 C 14.269531 23.480469 14.339844 23.21875 14.292969 22.957031 L 13.25 17.042969 C 13.761719 16.914062 14.242188 16.710938 14.679688 16.445312 L 18.128906 21.371094 C 18.277344 21.585938 18.515625 21.722656 18.777344 21.746094 C 18.800781 21.746094 18.828125 21.746094 18.855469 21.746094 C 19.089844 21.746094 19.3125 21.65625 19.480469 21.488281 L 21.488281 19.480469 C 21.675781 19.292969 21.769531 19.039062 21.746094 18.777344 C 21.722656 18.515625 21.585938 18.277344 21.371094 18.125 L 16.445312 14.679688 C 16.710938 14.242188 16.914062 13.757812 17.042969 13.246094 L 22.957031 14.292969 C 23.011719 14.300781 23.0625 14.304688 23.113281 14.304688 C 23.320312 14.304688 23.523438 14.234375 23.683594 14.097656 C 23.882812 13.929688 24 13.683594 24 13.417969 L 24 10.582031 C 24 10.316406 23.882812 10.070312 23.683594 9.902344 Z M 6.800781 12.464844 L 0.902344 13.503906 C 0.871094 13.511719 0.84375 13.5 0.832031 13.488281 C 0.816406 13.472656 0.800781 13.453125 0.800781 13.417969 L 0.800781 10.582031 C 0.800781 10.546875 0.816406 10.527344 0.832031 10.511719 C 0.84375 10.503906 0.859375 10.492188 0.886719 10.492188 C 0.890625 10.492188 0.894531 10.492188 0.902344 10.496094 L 6.800781 11.535156 Z M 10.496094 0.902344 C 10.488281 0.871094 10.503906 0.84375 10.515625 0.832031 C 10.527344 0.816406 10.546875 0.800781 10.582031 0.800781 L 13.417969 0.800781 C 13.453125 0.800781 13.472656 0.816406 13.484375 0.832031 C 13.496094 0.84375 13.511719 0.871094 13.503906 0.902344 L 12.464844 6.800781 L 11.535156 6.800781 Z M 3.089844 5.21875 C 3.0625 5.199219 3.054688 5.171875 3.050781 5.152344 C 3.050781 5.132812 3.054688 5.105469 3.078125 5.082031 L 5.085938 3.074219 C 5.105469 3.054688 5.128906 3.050781 5.144531 3.050781 C 5.148438 3.050781 5.152344 3.050781 5.152344 3.050781 C 5.171875 3.054688 5.199219 3.058594 5.21875 3.089844 L 8.652344 7.996094 L 7.996094 8.652344 Z M 5.21875 20.910156 C 5.199219 20.9375 5.171875 20.945312 5.152344 20.949219 C 5.136719 20.949219 5.109375 20.949219 5.085938 20.921875 L 3.078125 18.914062 C 3.054688 18.890625 3.050781 18.863281 3.050781 18.847656 C 3.054688 18.828125 3.058594 18.800781 3.089844 18.78125 L 7.996094 15.347656 L 8.652344 16.003906 Z M 13.503906 23.097656 C 13.511719 23.128906 13.496094 23.15625 13.484375 23.167969 C 13.472656 23.183594 13.453125 23.199219 13.417969 23.199219 L 10.582031 23.199219 C 10.546875 23.199219 10.527344 23.183594 10.515625 23.167969 C 10.503906 23.15625 10.488281 23.128906 10.496094 23.097656 L 11.535156 17.199219 L 12.464844 17.199219 Z M 12 16.398438 C 9.574219 16.398438 7.601562 14.425781 7.601562 12 C 7.601562 9.574219 9.574219 7.601562 12 7.601562 C 14.425781 7.601562 16.398438 9.574219 16.398438 12 C 16.398438 14.425781 14.425781 16.398438 12 16.398438 Z M 20.910156 18.78125 C 20.9375 18.800781 20.945312 18.828125 20.949219 18.847656 C 20.949219 18.867188 20.945312 18.894531 20.921875 18.917969 L 18.914062 20.925781 C 18.890625 20.949219 18.863281 20.949219 18.847656 20.949219 C 18.828125 20.949219 18.800781 20.941406 18.78125 20.914062 L 15.347656 16.007812 L 16.003906 15.347656 Z M 16.003906 8.652344 L 15.347656 7.996094 L 18.78125 3.089844 C 18.800781 3.0625 18.828125 3.054688 18.847656 3.050781 C 18.863281 3.050781 18.890625 3.050781 18.914062 3.078125 L 20.921875 5.085938 C 20.945312 5.109375 20.949219 5.136719 20.949219 5.152344 C 20.945312 5.171875 20.941406 5.199219 20.910156 5.21875 Z M 23.199219 13.417969 C 23.199219 13.453125 23.183594 13.472656 23.167969 13.488281 C 23.15625 13.5 23.128906 13.511719 23.097656 13.503906 L 17.199219 12.464844 L 17.199219 11.535156 L 23.097656 10.496094 C 23.128906 10.488281 23.15625 10.503906 23.167969 10.511719 C 23.183594 10.527344 23.199219 10.546875 23.199219 10.582031 Z M 23.199219 13.417969"/>
</svg>
