<svg xmlns="http://www.w3.org/2000/svg" width="32" height="32" viewBox="0 0 24 24">
    <path d="M16.5 0c-1.645 0-3.297 1.043-4.598 2.875C10.582.969 9.102 0 7.5 0c-3.992 0-7 5.16-7 12s3.008 12 7 12c1.602 0 3.082-.969 4.402-2.875C13.203 22.961 14.855 24 16.5 24c3.992 0 7-5.16 7-12s-3.008-12-7-12zm0 23.2c-1.496 0-3.035-1.079-4.227-2.958a.444.444 0 0 0-.375-.207.442.442 0 0 0-.37.207C10.288 22.207 8.933 23.2 7.5 23.2 3.965 23.2 1.3 18.387 1.3 12S3.966.8 7.5.8c1.434 0 2.79.993 4.027 2.958.164.258.582.258.746 0C13.465 1.878 15.003.8 16.5.8 20.035.8 22.7 5.613 22.7 12s-2.665 11.2-6.2 11.2zm0 0"/>
    <path d="M16.5 1.602c-1.855 0-3.602 1.77-4.594 4.582C10.93 3.293 9.32 1.602 7.5 1.602 4.473 1.602 2.102 6.168 2.102 12S4.472 22.398 7.5 22.398c1.82 0 3.43-1.691 4.406-4.582.992 2.813 2.739 4.582 4.594 4.582 3.027 0 5.398-4.566 5.398-10.398S19.528 1.602 16.5 1.602zm-4.598 5.984a.428.428 0 0 0 .106.016h3.832a81.151 81.151 0 0 0-1.957 2.421 2.823 2.823 0 0 0-.875-.593c-.008-.004-.012-.008-.02-.008-.058-.027-.12-.047-.18-.067-.027-.011-.054-.023-.081-.03-.047-.016-.098-.024-.149-.04-.039-.008-.078-.02-.121-.027-.047-.012-.098-.016-.145-.024a2.284 2.284 0 0 0-.414-.035 2.263 2.263 0 0 0-.406.035c-.05.008-.101.012-.152.024-.04.008-.078.02-.117.027-.051.016-.102.024-.149.04l-.082.03c-.058.02-.12.04-.18.067-.007 0-.011.004-.019.008-.324.14-.625.34-.875.593a81.153 81.153 0 0 0-1.957-2.421h3.836c.035 0 .07-.008.105-.016zm1.38 5.851a1.71 1.71 0 0 1-.259.215c-.007.008-.02.012-.03.02a2.033 2.033 0 0 1-.274.148c-.024.008-.043.02-.07.032-.102.039-.208.074-.317.097-.023.004-.05.008-.074.016-.117.02-.235.035-.36.035a2.108 2.108 0 0 1-.75-.148 2.251 2.251 0 0 1-.34-.18c-.011-.008-.023-.012-.03-.02a1.962 1.962 0 0 1-.317-.27 1.976 1.976 0 0 1-.219-2.496c0-.003.004-.007.008-.015.063-.09.137-.176.21-.258a.468.468 0 0 1 .048-.043c.082-.082.172-.156.265-.222a1.808 1.808 0 0 1 .316-.172c.016-.008.032-.016.052-.024a1.88 1.88 0 0 1 .398-.117c.117-.02.238-.035.36-.035a2.202 2.202 0 0 1 .433.05c.113.024.223.06.328.102l.05.024c.099.043.196.094.282.152a.158.158 0 0 0 .035.02c.094.066.184.14.266.222.016.016.031.028.043.043.078.082.152.168.215.258.004.008.008.012.008.016.214.316.34.699.34 1.113a1.979 1.979 0 0 1-.618 1.438zM7.5 21.602c-2.492 0-4.602-4.399-4.602-9.602S5.008 2.398 7.5 2.398c1.527 0 2.918 1.637 3.762 4.403h-4.16c-.157 0-.301.09-.364.23a.401.401 0 0 0 .059.43c.016.02 1.578 1.848 2.625 3.238a2.81 2.81 0 0 0 .02 2.64c-1.044 1.395-2.626 3.177-2.641 3.196a.4.4 0 0 0 .3.664h4.16c-.843 2.766-2.234 4.403-3.761 4.403zm4.402-5.188a.492.492 0 0 0-.109-.016H7.98a55.373 55.373 0 0 0 1.965-2.394l.094.082c.031.027.063.059.094.086.035.027.07.05.105.078.04.027.075.055.114.082.03.02.066.04.097.059l.137.082a.575.575 0 0 0 .086.039c.05.027.105.054.16.078.027.008.05.015.074.027.063.02.121.043.184.063.023.008.05.011.078.02.059.019.121.034.184.046.035.008.074.012.109.016.055.008.105.02.16.023a2.2 2.2 0 0 0 .277.016c.094 0 .188-.004.282-.016.05-.004.105-.015.16-.023.035-.004.07-.008.11-.016.062-.012.124-.031.183-.047.027-.008.055-.011.078-.02.062-.019.121-.042.18-.066a1.191 1.191 0 0 0 .238-.102c.027-.015.059-.027.086-.038l.137-.082c.03-.02.066-.04.093-.059.043-.027.078-.055.117-.082.036-.027.07-.05.106-.078.031-.027.062-.059.094-.086l.093-.082a58.2 58.2 0 0 0 1.965 2.398h-3.812a.302.302 0 0 0-.106.012zm4.598 5.188c-1.582 0-3.105-1.711-3.957-4.403h4.156a.4.4 0 0 0 .301-.664c-.02-.02-1.598-1.8-2.645-3.195.22-.399.344-.856.344-1.34 0-.469-.117-.91-.32-1.3 1.047-1.391 2.61-3.22 2.625-3.24a.4.4 0 0 0-.305-.66h-4.156c.852-2.69 2.375-4.402 3.957-4.402 2.492 0 4.602 4.399 4.602 9.602s-2.11 9.602-4.602 9.602zm0 0"/>
</svg>
