<svg xmlns="http://www.w3.org/2000/svg" width="32" height="32" viewBox="0 0 24 24">
    <path d="M 21.230469 16.992188 L 16.328125 12.578125 L 16.308594 12.558594 C 16.140625 12.414062 16.050781 12.214844 16.050781 12 C 16.050781 11.785156 16.140625 11.585938 16.328125 11.421875 L 21.144531 7.089844 C 22.121094 6.210938 22.648438 4.953125 22.550781 3.726562 C 22.433594 2.179688 21.46875 0.859375 20.035156 0.285156 C 19.449219 0.0546875 18.828125 -0.0390625 18.195312 0.015625 C 17.320312 0.0898438 16.476562 0.472656 15.753906 1.121094 L 12 4.5 L 8.230469 1.109375 C 7.546875 0.492188 6.746094 0.117188 5.914062 0.0234375 C 4.957031 -0.0820312 4.019531 0.148438 3.203125 0.6875 C 2.582031 1.097656 2.074219 1.699219 1.78125 2.382812 C 1.074219 4.019531 1.464844 5.835938 2.769531 7.007812 L 7.691406 11.4375 C 7.855469 11.585938 7.949219 11.785156 7.949219 12 C 7.949219 12.214844 7.855469 12.410156 7.671875 12.578125 L 2.855469 16.910156 C 1.878906 17.789062 1.351562 19.046875 1.445312 20.273438 C 1.566406 21.820312 2.53125 23.140625 3.964844 23.710938 C 4.441406 23.902344 4.945312 24 5.457031 24 C 5.570312 24 5.6875 23.996094 5.804688 23.984375 C 6.679688 23.910156 7.523438 23.527344 8.246094 22.878906 L 12 19.5 L 15.769531 22.890625 C 16.453125 23.507812 17.253906 23.882812 18.085938 23.972656 C 19.042969 24.082031 19.980469 23.851562 20.792969 23.3125 C 21.417969 22.902344 21.925781 22.300781 22.21875 21.617188 C 22.925781 19.980469 22.535156 18.164062 21.230469 16.992188 Z M 21.46875 21.292969 C 21.238281 21.832031 20.835938 22.304688 20.34375 22.632812 C 19.691406 23.0625 18.941406 23.246094 18.175781 23.160156 C 17.515625 23.089844 16.871094 22.785156 16.316406 22.285156 L 12.5 18.851562 C 12.226562 18.601562 11.777344 18.601562 11.5 18.851562 L 7.699219 22.269531 C 7.117188 22.792969 6.421875 23.113281 5.734375 23.167969 C 5.230469 23.210938 4.738281 23.140625 4.269531 22.953125 C 3.125 22.496094 2.355469 21.445312 2.261719 20.210938 C 2.1875 19.234375 2.613281 18.230469 3.402344 17.519531 L 8.234375 13.171875 C 8.574219 12.871094 8.769531 12.441406 8.769531 12 C 8.769531 11.554688 8.574219 11.128906 8.222656 10.8125 L 3.316406 6.402344 C 2.273438 5.464844 1.96875 4.015625 2.53125 2.707031 C 2.761719 2.167969 3.160156 1.695312 3.65625 1.367188 C 4.207031 1.003906 4.824219 0.816406 5.460938 0.816406 C 5.582031 0.816406 5.703125 0.824219 5.824219 0.835938 C 6.484375 0.910156 7.128906 1.214844 7.683594 1.714844 L 11.5 5.148438 C 11.773438 5.394531 12.222656 5.398438 12.5 5.148438 L 16.300781 1.730469 C 16.878906 1.207031 17.578125 0.886719 18.261719 0.828125 C 18.769531 0.785156 19.261719 0.859375 19.730469 1.046875 C 20.875 1.503906 21.640625 2.554688 21.738281 3.789062 C 21.8125 4.765625 21.386719 5.769531 20.597656 6.480469 L 15.765625 10.828125 C 15.425781 11.128906 15.230469 11.554688 15.230469 12 C 15.230469 12.441406 15.425781 12.871094 15.769531 13.175781 L 15.773438 13.179688 L 20.683594 17.597656 C 21.722656 18.535156 22.03125 19.984375 21.46875 21.292969 Z M 21.46875 21.292969"/>
    <path d="M9.085938 10.445312L9.417969 10.65625 9.640625 10.332031C10.175781 9.554688 11.058594 9.089844 12 9.089844 12.941406 9.089844 13.824219 9.554688 14.359375 10.332031L14.582031 10.65625 14.914062 10.445312C15.039062 10.367188 15.140625 10.289062 15.230469 10.207031L20.136719 5.792969C20.753906 5.238281 21.035156 4.417969 20.890625 3.601562 20.746094 2.785156 20.199219 2.113281 19.429688 1.804688 18.578125 1.464844 17.628906 1.636719 16.945312 2.246094L13.046875 5.757812C12.449219 6.292969 11.550781 6.292969 10.953125 5.757812L7.054688 2.246094C6.371094 1.636719 5.421875 1.464844 4.574219 1.804688 3.800781 2.113281 3.253906 2.785156 3.109375 3.601562 2.964844 4.417969 3.246094 5.238281 3.863281 5.792969L8.765625 10.207031C8.859375 10.289062 8.960938 10.367188 9.085938 10.445312zM3.914062 3.746094C4.011719 3.210938 4.371094 2.765625 4.875 2.566406 5.433594 2.34375 6.058594 2.453125 6.503906 2.855469L10.402344 6.363281C11.3125 7.183594 12.683594 7.183594 13.59375 6.363281L17.492188 2.855469C17.941406 2.453125 18.566406 2.34375 19.125 2.566406 19.628906 2.769531 19.988281 3.210938 20.085938 3.746094 20.179688 4.28125 19.996094 4.820312 19.589844 5.1875L14.765625 9.527344C14.070312 8.734375 13.066406 8.273438 12 8.273438 10.933594 8.273438 9.929688 8.734375 9.234375 9.527344L4.410156 5.183594C4.003906 4.820312 3.820312 4.28125 3.914062 3.746094zM15.230469 13.792969C15.125 13.695312 15.003906 13.609375 14.855469 13.519531L14.535156 13.328125 14.316406 13.632812C13.777344 14.371094 12.910156 14.816406 12 14.816406 11.089844 14.816406 10.222656 14.371094 9.683594 13.632812L9.464844 13.328125 9.144531 13.519531C8.996094 13.609375 8.875 13.695312 8.769531 13.792969L3.863281 18.207031C3.246094 18.761719 2.964844 19.582031 3.109375 20.398438 3.253906 21.214844 3.800781 21.886719 4.570312 22.195312 4.863281 22.308594 5.164062 22.367188 5.460938 22.367188 6.039062 22.367188 6.605469 22.15625 7.054688 21.753906L10.953125 18.242188C11.550781 17.707031 12.449219 17.707031 13.046875 18.242188L16.945312 21.753906C17.628906 22.363281 18.578125 22.535156 19.425781 22.195312 20.199219 21.886719 20.746094 21.214844 20.890625 20.398438 21.035156 19.582031 20.753906 18.761719 20.136719 18.207031zM20.085938 20.253906C19.988281 20.789062 19.628906 21.230469 19.125 21.433594 18.566406 21.65625 17.941406 21.546875 17.492188 21.144531L13.59375 17.636719C12.683594 16.816406 11.3125 16.816406 10.402344 17.636719L6.503906 21.144531C6.058594 21.546875 5.433594 21.65625 4.875 21.433594 4.371094 21.230469 4.011719 20.789062 3.914062 20.253906 3.820312 19.714844 4.003906 19.179688 4.410156 18.8125L9.28125 14.429688C9.976562 15.1875 10.964844 15.632812 12 15.632812 13.035156 15.632812 14.023438 15.1875 14.71875 14.429688L19.589844 18.8125C19.996094 19.179688 20.179688 19.71875 20.085938 20.253906zM20.085938 20.253906"/>
</svg>
