<svg xmlns="http://www.w3.org/2000/svg" width="32" height="32" viewBox="0 0 24 24">
    <path d="M19.71 17.55L14.16 12l5.55-5.55a3.293 3.293 0 0 0 3.321-.813A3.28 3.28 0 0 0 24 3.3c0-.883-.344-1.711-.969-2.332A3.27 3.27 0 0 0 20.7 0a3.28 3.28 0 0 0-2.336.969 3.283 3.283 0 0 0-.812 3.32L12 9.84 6.45 4.29A3.284 3.284 0 0 0 5.632.97a3.3 3.3 0 0 0-4.668 0 3.308 3.308 0 0 0 0 4.668 3.292 3.292 0 0 0 3.324.812L9.84 12l-5.55 5.55a3.293 3.293 0 0 0-3.324.817 3.308 3.308 0 0 0 0 4.668A3.288 3.288 0 0 0 3.3 24a3.302 3.302 0 0 0 3.148-4.29L12 14.16l5.547 5.55a3.293 3.293 0 0 0 .816 3.325A3.304 3.304 0 0 0 24 20.7c0-.883-.344-1.71-.969-2.332a3.284 3.284 0 0 0-3.32-.816zM18.528 4.497l-.105-.258a2.463 2.463 0 0 1 .535-2.68A2.443 2.443 0 0 1 20.699.84 2.456 2.456 0 0 1 23.16 3.3a2.45 2.45 0 0 1-.719 1.743 2.463 2.463 0 0 1-2.68.535l-.261-.105-5.934 5.933-.972-.972zM5.47 19.504l.11.258a2.456 2.456 0 0 1-.54 2.68 2.461 2.461 0 1 1-1.742-4.204c.316 0 .637.059.941.184l.258.105 5.934-5.933.976.972zM22.44 22.44a2.462 2.462 0 1 1-4.02-2.68l.106-.257L4.497 5.473l-.259.105a2.462 2.462 0 0 1-2.68-4.02 2.465 2.465 0 0 1 4.02 2.68l-.11.258 14.036 14.035.258-.11a2.457 2.457 0 0 1 2.68.54 2.44 2.44 0 0 1 .718 1.738c0 .66-.254 1.278-.719 1.742zm0 0"/>
</svg>
