<svg xmlns="http://www.w3.org/2000/svg" width="32" height="32" viewBox="0 0 24 24">
    <path d="M12 0C6.242 0 1.555 5.383 1.555 12S6.242 24 12 24s10.445-5.383 10.445-12S17.758 0 12 0zm0 23.11c-5.27 0-9.555-4.985-9.555-11.11C2.445 5.875 6.73.89 12 .89S21.555 5.876 21.555 12c0 6.125-4.285 11.11-9.555 11.11zm0 0"/>
    <path d="M12 1.777C7.223 1.777 3.332 6.363 3.332 12c0 5.637 3.89 10.223 8.668 10.223 4.777 0 8.668-4.586 8.668-10.223 0-5.637-3.89-10.223-8.668-10.223zm0 19.555c-4.29 0-7.777-4.187-7.777-9.332 0-5.145 3.488-9.332 7.777-9.332 4.29 0 7.777 4.187 7.777 9.332 0 5.145-3.488 9.332-7.777 9.332zm0 0"/>
    <path d="M12 7.555c-1.363 0-2.89 1.902-2.89 4.445s1.527 4.445 2.89 4.445c1.363 0 2.89-1.902 2.89-4.445S13.364 7.555 12 7.555zm0 8c-.805 0-2-1.492-2-3.555s1.195-3.555 2-3.555c.805 0 2 1.492 2 3.555s-1.195 3.555-2 3.555zm0 0"/>
</svg>
