<svg xmlns="http://www.w3.org/2000/svg" width="32" height="32" viewBox="0 0 24 24">
    <path d="M12 0C5.84 0 .828 5.383.828 12S5.84 24 12 24c6.16 0 11.172-5.383 11.172-12S18.16 0 12 0zm0 23.172C6.297 23.172 1.656 18.16 1.656 12 1.656 5.84 6.296.828 12 .828 17.703.828 22.344 5.84 22.344 12c0 6.16-4.64 11.172-10.344 11.172zm0 0"/>
    <path d="M12 3.309c-4.336 0-7.863 3.898-7.863 8.691 0 4.793 3.527 8.691 7.863 8.691s7.863-3.898 7.863-8.691c0-4.793-3.527-8.691-7.863-8.691zm0 16.554c-3.879 0-7.035-3.527-7.035-7.863S8.12 4.137 12 4.137 19.035 7.664 19.035 12 15.88 19.863 12 19.863zm0 0"/>
    <path d="M12 6.621c-2.508 0-4.55 2.414-4.55 5.379 0 2.965 2.042 5.379 4.55 5.379s4.55-2.414 4.55-5.379c0-2.965-2.042-5.379-4.55-5.379zm0 9.93c-2.055 0-3.723-2.043-3.723-4.551S9.945 7.45 12 7.45c2.055 0 3.723 2.042 3.723 4.55S14.055 16.55 12 16.55zm0 0"/>
</svg>
