<svg xmlns="http://www.w3.org/2000/svg" width="32" height="32" viewBox="0 0 24 24">
    <path d="M 24 5.398438 L 24 3 L 0 3 L 0 5.398438 L 0.535156 5.398438 L 6.164062 18.53125 L 6.136719 18.601562 L 0 18.601562 L 0 21 L 24 21 L 24 18.601562 L 23.464844 18.601562 L 17.804688 5.398438 Z M 7.0625 18.601562 L 7.035156 18.53125 L 7.800781 16.75 L 8.566406 18.53125 L 8.535156 18.601562 Z M 10.199219 14.71875 L 9.433594 12.933594 L 12.398438 6.015625 L 13.164062 7.800781 Z M 13.601562 8.816406 L 14.363281 10.601562 L 11.398438 17.519531 L 10.636719 15.734375 Z M 13.007812 5.398438 L 14.191406 5.398438 L 13.601562 6.785156 Z M 9 11.917969 L 6.207031 5.398438 L 11.792969 5.398438 Z M 5.335938 5.398438 L 8.566406 12.933594 L 7.800781 14.71875 L 3.804688 5.398438 Z M 9 13.949219 L 9.765625 15.734375 L 9 17.519531 L 8.234375 15.734375 Z M 9.464844 18.601562 L 9.433594 18.53125 L 10.199219 16.75 L 10.964844 18.53125 L 10.9375 18.601562 Z M 11.863281 18.601562 L 11.835938 18.53125 L 14.800781 11.613281 L 17.792969 18.601562 Z M 18.664062 18.601562 L 15.234375 10.601562 L 16 8.816406 L 20.195312 18.601562 Z M 14.800781 9.585938 L 14.035156 7.800781 L 14.800781 6.015625 L 15.566406 7.800781 Z M 15.40625 5.398438 L 16.59375 5.398438 L 16 6.785156 Z M 0.800781 3.800781 L 23.199219 3.800781 L 23.199219 4.601562 L 17.199219 4.601562 C 17.199219 4.601562 17.195312 4.601562 17.195312 4.601562 L 14.804688 4.601562 C 14.804688 4.601562 14.800781 4.601562 14.800781 4.601562 L 12.398438 4.601562 C 12.398438 4.601562 12.398438 4.601562 12.394531 4.601562 L 5.597656 4.601562 C 5.597656 4.601562 5.597656 4.601562 5.59375 4.601562 L 3.199219 4.601562 C 3.199219 4.601562 3.195312 4.601562 3.195312 4.601562 L 0.800781 4.601562 Z M 1.40625 5.398438 L 2.9375 5.398438 L 7.363281 15.734375 L 6.601562 17.519531 Z M 23.199219 20.199219 L 0.800781 20.199219 L 0.800781 19.398438 L 6.398438 19.398438 C 6.402344 19.398438 6.402344 19.398438 6.402344 19.398438 L 6.796875 19.398438 C 6.796875 19.398438 6.800781 19.398438 6.800781 19.398438 L 20.796875 19.398438 C 20.800781 19.398438 20.800781 19.398438 20.800781 19.398438 L 23.199219 19.398438 Z M 21.0625 18.601562 L 16.433594 7.800781 L 17.199219 6.015625 L 22.59375 18.601562 Z M 21.0625 18.601562"/>
</svg>
