<svg xmlns="http://www.w3.org/2000/svg" width="32" height="32" viewBox="0 0 24 24">
    <path d="M21.945 17.063h-3.468V1.793A1.62 1.62 0 0 0 16.859.176c-.894 0-1.62.726-1.62 1.617v15.27h-6.45c1.875-1.942 4.176-5.008 4.477-8.614.015-.168.367-4.105-1.84-6.554C10.328.672 8.786.02 6.957 0 2.324 0 .672 3.594.449 5.492a1.843 1.843 0 0 0 1.594 2.043c1.016.149 1.937-.59 2.078-1.586.094-.676.555-2.25 2.816-2.25.79.008 1.325.215 1.735.668 1.101 1.215.91 3.723.91 3.75-.426 5.051-5.926 8.738-5.98 8.77-.41.265-.704.687-.809 1.168-.11.48-.02.976.25 1.394.34.531.95.852 1.629.852h10.566v2.078c0 .894.727 1.621 1.621 1.621.891 0 1.618-.727 1.618-1.621V20.3h3.468a1.619 1.619 0 1 0 0-3.238zm0 2.312h-4.394v3.004a.694.694 0 1 1-1.387 0v-3.004H4.672c-.356 0-.684-.164-.852-.426a.908.908 0 0 1-.125-.695.939.939 0 0 1 .407-.586c.062-.04 5.933-3.895 6.402-9.473 0-.027.246-2.914-1.145-4.453-.582-.64-1.37-.957-2.414-.969-2.449 0-3.539 1.575-3.742 3.047a.932.932 0 0 1-.914.809.702.702 0 0 1-.121-.012.921.921 0 0 1-.8-1.015C1.557 3.984 2.972.926 6.952.926c1.555.015 2.863.562 3.785 1.59 1.938 2.148 1.621 5.695 1.606 5.847-.278 3.34-2.45 6.223-4.219 8.055l-1.516 1.566h9.555V1.793a.694.694 0 0 1 1.387 0v16.191h4.394a.697.697 0 0 1 0 1.39zm0 0"/>
</svg>
