<svg xmlns="http://www.w3.org/2000/svg" width="32" height="32" viewBox="0 0 24 24">
    <path d="M23.602 0h-2a.401.401 0 0 0-.403.398v6h-1.597v-6A.401.401 0 0 0 19.199 0h-2a.4.4 0 0 0-.398.398v6h-1.2v-6A.401.401 0 0 0 15.2 0h-2a.4.4 0 0 0-.398.398v6h-1.2v-6A.401.401 0 0 0 11.2 0h-2a.4.4 0 0 0-.398.398v6H7.199v-6A.4.4 0 0 0 6.801 0h-2a.401.401 0 0 0-.403.398v6H2.801v-6A.401.401 0 0 0 2.398 0h-2A.4.4 0 0 0 0 .398V11.2c0 .223.18.403.398.403H3.2v.796H.4a.401.401 0 0 0-.399.403v10.8A.4.4 0 0 0 .398 24h2c.223 0 .403-.18.403-.398v-6h1.597v6c0 .218.18.398.403.398h2a.4.4 0 0 0 .398-.398v-6h1.2v6c0 .218.18.398.402.398h2a.4.4 0 0 0 .398-.398v-6h1.2v6c0 .218.18.398.402.398h2a.4.4 0 0 0 .398-.398v-6h1.602v6a.4.4 0 0 0 .398.398h2c.223 0 .403-.18.403-.398v-6h1.597v6c0 .218.18.398.403.398h2a.4.4 0 0 0 .398-.398V12.8a.401.401 0 0 0-.398-.403H20.8v-.796h2.8c.22 0 .399-.18.399-.403V.4A.4.4 0 0 0 23.602 0zM.8 10.8V9.603h2.398V10.8zm0 2.4h2.398v1.198H.801zm22.398 10H22v-6a.4.4 0 0 0-.398-.4h-2.403a.4.4 0 0 0-.398.4v6h-1.2v-6a.401.401 0 0 0-.402-.4h-2.398a.401.401 0 0 0-.403.4v6H13.2v-6a.4.4 0 0 0-.398-.4h-2a.401.401 0 0 0-.403.4v6H9.2v-6a.4.4 0 0 0-.398-.4h-2a.401.401 0 0 0-.403.4v6H5.2v-6a.4.4 0 0 0-.398-.4H2.398a.4.4 0 0 0-.398.4v6H.8v-8h2.4v.402c0 .023.01.043.015.066.004.031.008.062.015.09a.39.39 0 0 0 .079.113c.011.012.02.02.03.027a.248.248 0 0 0 .087.055.158.158 0 0 0 .035.02.41.41 0 0 0 .14.027h16.797a.41.41 0 0 0 .141-.027.158.158 0 0 0 .035-.02c.031-.015.063-.031.086-.055.012-.011.02-.015.031-.027a.39.39 0 0 0 .079-.113c.011-.028.011-.059.015-.09.004-.023.016-.043.016-.066v-.403h2.398zM13.016 12L20 9.008v5.984zm5.437 3.2H5.547L12 12.433zM12 11.565L5.547 8.801h12.906zM10.984 12L4 14.992V9.008zM23.2 13.2v1.198h-2.398V13.2zm0-2.4h-2.398V9.603h2.398zm0-2h-2.398v-.402c0-.023-.012-.043-.016-.066-.004-.031-.004-.062-.015-.09-.004-.008-.012-.012-.012-.015a.583.583 0 0 0-.078-.114c-.02-.015-.04-.023-.059-.039-.023-.015-.043-.031-.07-.043a.444.444 0 0 0-.13-.027c-.007 0-.01-.004-.023-.004H3.602c-.016 0-.024.008-.04.008-.039.004-.078.008-.113.023a.276.276 0 0 0-.07.047c-.02.012-.043.02-.059.035a.38.38 0 0 0-.074.114c-.004.003-.012.007-.012.015-.011.028-.015.059-.02.09-.003.023-.015.043-.015.066v.403H.801v-8H2v6a.4.4 0 0 0 .398.398h2.403a.4.4 0 0 0 .398-.398v-6h1.2v6c0 .219.18.398.402.398h2.398c.223 0 .403-.18.403-.398v-6H10.8v6a.4.4 0 0 0 .398.398h2c.223 0 .403-.18.403-.398v-6H14.8v6a.4.4 0 0 0 .398.398h2c.223 0 .403-.18.403-.398v-6H18.8v6a.4.4 0 0 0 .398.398h2.403A.4.4 0 0 0 22 6.801v-6h1.2zm0 0"/>
</svg>
