<svg xmlns="http://www.w3.org/2000/svg" width="32" height="32" viewBox="0 0 24 24">
    <path d="M18.582 12a6.048 6.048 0 0 0 5.02-5.953A6.052 6.052 0 0 0 17.555 0C15.113 0 12.934 1.508 12 3.684 11.066 1.508 8.887 0 6.445 0A6.052 6.052 0 0 0 .398 6.047 6.048 6.048 0 0 0 5.418 12c-2.844.488-5.02 2.969-5.02 5.953A6.052 6.052 0 0 0 6.445 24c2.442 0 4.621-1.508 5.555-3.684.934 2.176 3.113 3.684 5.555 3.684a6.052 6.052 0 0 0 6.047-6.047c0-2.984-2.176-5.465-5.02-5.953zm-1.027 2.398a3.558 3.558 0 0 1 3.554 3.555 3.558 3.558 0 0 1-3.554 3.555 3.557 3.557 0 0 1-3.551-3.555 3.557 3.557 0 0 1 3.55-3.555zm-4.992 1.106a3.743 3.743 0 0 1-.293.035h-.012c-.086.008-.172.016-.258.016-.09 0-.176-.008-.266-.016h-.004a3.743 3.743 0 0 1-.293-.035c-.003 0-.011 0-.015-.004a3.57 3.57 0 0 1-2.934-2.992l-.023-.164a3.317 3.317 0 0 1-.02-.344c0-.117.008-.23.02-.344l.023-.164a3.57 3.57 0 0 1 2.934-2.996h.015c.098-.016.196-.027.293-.035h.012c.086-.008.172-.016.258-.016.09 0 .176.008.266.016h.004c.097.008.195.02.293.035h.015a3.57 3.57 0 0 1 2.934 2.996l.023.164c.012.114.02.227.02.344 0 .113-.008.23-.02.344l-.023.16a3.57 3.57 0 0 1-2.95 3zm-2.567 2.45a3.557 3.557 0 0 1-3.55 3.554 3.558 3.558 0 0 1-3.555-3.555 3.558 3.558 0 0 1 3.554-3.555 3.557 3.557 0 0 1 3.551 3.555zm-3.55-8.352A3.558 3.558 0 0 1 2.89 6.047a3.558 3.558 0 0 1 3.554-3.555 3.557 3.557 0 0 1 3.551 3.555 3.557 3.557 0 0 1-3.55 3.555zm7.558-3.555a3.557 3.557 0 0 1 3.55-3.555 3.558 3.558 0 0 1 3.555 3.555 3.558 3.558 0 0 1-3.554 3.555 3.557 3.557 0 0 1-3.551-3.555zm-1.594-.809c.395-2.511 2.606-4.406 5.145-4.406a5.222 5.222 0 0 1 5.218 5.215 5.222 5.222 0 0 1-6.48 5.058 4.403 4.403 0 0 0-.336-.98 4.354 4.354 0 0 0 1.598.305 4.39 4.39 0 0 0 4.386-4.383 4.39 4.39 0 0 0-4.386-4.383 4.386 4.386 0 0 0-4.383 4.383c0 .672.156 1.305.426 1.875a4.282 4.282 0 0 0-.953-.254c-.016 0-.028-.004-.04-.008a5.313 5.313 0 0 1-.195-.808l-.129-.797zm-11.183.809A5.222 5.222 0 0 1 6.445.832c2.54 0 4.75 1.895 5.145 4.406l.129.82-.13.794c-.046.28-.109.554-.194.808a4.504 4.504 0 0 0-.992.262c.269-.57.425-1.203.425-1.875a4.389 4.389 0 0 0-4.383-4.383A4.39 4.39 0 0 0 2.06 6.047a4.39 4.39 0 0 0 4.386 4.383c.563 0 1.102-.11 1.598-.305a4.403 4.403 0 0 0-.336.98 5.222 5.222 0 0 1-6.48-5.059zM11.59 18.762c-.395 2.511-2.606 4.406-5.145 4.406a5.222 5.222 0 0 1-5.218-5.215 5.222 5.222 0 0 1 6.48-5.058c.074.343.188.671.336.98a4.354 4.354 0 0 0-1.598-.305 4.39 4.39 0 0 0-4.386 4.383 4.39 4.39 0 0 0 4.386 4.383 4.386 4.386 0 0 0 4.383-4.383c0-.672-.156-1.305-.426-1.875.301.121.621.203.953.254.016 0 .028.004.043.008.082.258.145.527.192.808l.129.793zm5.965 4.406c-2.54 0-4.75-1.895-5.145-4.406l-.129-.817.13-.797c.046-.28.109-.55.194-.808a4.282 4.282 0 0 0 .992-.262 4.371 4.371 0 0 0-.425 1.875 4.389 4.389 0 0 0 4.383 4.383 4.39 4.39 0 0 0 4.386-4.383 4.39 4.39 0 0 0-4.386-4.383c-.563 0-1.102.11-1.598.305.148-.309.262-.637.336-.98a5.221 5.221 0 0 1 6.48 5.059 5.222 5.222 0 0 1-5.218 5.214zm0 0"/>
</svg>
