<svg xmlns="http://www.w3.org/2000/svg" width="32" height="32" viewBox="0 0 24 24">
    <path d="M 4.644531 8.492188 C 1.652344 11.484375 1.652344 16.351562 4.644531 19.34375 C 6.140625 20.839844 8.105469 21.589844 10.070312 21.589844 C 12.035156 21.589844 14 20.839844 15.496094 19.34375 C 18.488281 16.351562 18.488281 11.484375 15.496094 8.492188 C 12.503906 5.5 7.636719 5.5 4.644531 8.492188 Z M 14.820312 18.664062 C 12.199219 21.285156 7.941406 21.285156 5.324219 18.664062 C 2.707031 16.046875 2.707031 11.789062 5.324219 9.171875 C 6.632812 7.859375 8.351562 7.207031 10.070312 7.207031 C 11.789062 7.207031 13.507812 7.859375 14.820312 9.171875 C 17.4375 11.789062 17.4375 16.046875 14.820312 18.664062 Z M 14.820312 18.664062"/>
    <path d="M 22.082031 0.0078125 L 16.328125 0.0078125 C 15.269531 0.0078125 14.40625 0.871094 14.40625 1.929688 C 14.40625 2.984375 15.269531 3.847656 16.328125 3.847656 L 17.429688 3.847656 L 15.699219 5.578125 C 11.75 2.910156 6.34375 3.402344 2.949219 6.796875 C 1.046875 8.699219 0 11.226562 0 13.917969 C 0 16.609375 1.046875 19.136719 2.949219 21.039062 C 4.851562 22.941406 7.382812 23.992188 10.070312 23.992188 C 12.761719 23.992188 15.289062 22.941406 17.195312 21.039062 C 20.585938 17.648438 21.078125 12.238281 18.410156 8.289062 L 20.164062 6.539062 L 20.164062 7.683594 C 20.164062 8.742188 21.023438 9.601562 22.082031 9.601562 C 23.140625 9.601562 24 8.742188 24 7.683594 L 24 1.929688 C 24 0.871094 23.140625 0.0078125 22.082031 0.0078125 Z M 23.039062 7.683594 C 23.039062 8.210938 22.609375 8.640625 22.082031 8.640625 C 21.550781 8.640625 21.121094 8.210938 21.121094 7.683594 L 21.121094 4.222656 L 17.523438 7.816406 L 17.128906 8.152344 L 17.394531 8.511719 C 20.054688 12.105469 19.675781 17.199219 16.515625 20.363281 C 12.960938 23.914062 7.179688 23.914062 3.628906 20.363281 C 0.0742188 16.808594 0.0742188 11.027344 3.628906 7.472656 C 5.378906 5.722656 7.722656 4.828125 10.074219 4.828125 C 11.972656 4.828125 13.875 5.410156 15.476562 6.59375 L 15.839844 6.863281 L 16.128906 6.519531 L 19.746094 2.886719 L 16.328125 2.886719 C 15.796875 2.886719 15.367188 2.457031 15.367188 1.929688 C 15.367188 1.398438 15.796875 0.96875 16.328125 0.96875 L 22.082031 0.96875 C 22.609375 0.96875 23.039062 1.398438 23.039062 1.929688 C 23.039062 1.929688 23.039062 7.683594 23.039062 7.683594 Z M 23.039062 7.683594"/>
</svg>
