<svg xmlns="http://www.w3.org/2000/svg" width="32" height="32" viewBox="0 0 24 24">
    <path d="M23.39 2.742L20.81.16a.55.55 0 0 0-.778 0l-2.59 2.578c-.363.364-.5.895-.355 1.387.152.508.578.887 1.14 1.008.25.054.504.043.747-.028-.266 3.457-2.461 6.157-5.575 6.817V5.145c.172.066.348.105.532.093.61-.008 1.008-.41 1.047-.449a1.408 1.408 0 0 0 0-1.98L12.395.23a.553.553 0 0 0-.778-.003L9.023 2.805a1.408 1.408 0 0 0 0 1.98c.383.383 1.032.442 1.579.281v6.856c-3.114-.66-5.309-3.36-5.575-6.813.243.067.496.079.746.024.563-.121.989-.5 1.141-1.008a1.402 1.402 0 0 0-.355-1.387L3.969.16a.553.553 0 0 0-.778 0L.61 2.742a1.39 1.39 0 0 0-.41.988c0 .375.145.727.41.993.371.37 1.047.441 1.602.3.21 5.762 3.375 9.582 8.39 10.114v3.261H9.399c-.77 0-1.398.63-1.398 1.403 0 .77.629 1.398 1.398 1.398h1.204v1.403a1.4 1.4 0 0 0 2.796 0v-1.403h1.204c.77 0 1.398-.629 1.398-1.398 0-.774-.629-1.403-1.398-1.403h-1.204v-3.312c4.934-.7 8.16-4.582 8.391-10.063.555.145 1.23.07 1.602-.3.265-.266.41-.618.41-.993a1.39 1.39 0 0 0-.41-.988zm-.566 1.414c-.207.207-.898.176-1.156-.054a.395.395 0 0 0-.43-.067.398.398 0 0 0-.238.363c0 5.508-3.156 9.407-8.043 9.938a.398.398 0 0 0-.355.398v4.067c0 .219.175.398.398.398h1.602a.6.6 0 0 1 0 1.2H13a.398.398 0 0 0-.398.402v1.8a.601.601 0 0 1-1.204 0v-1.8a.398.398 0 0 0-.398-.403H9.398a.6.6 0 0 1 0-1.199H11c.223 0 .398-.18.398-.398V14.77c0-.211-.16-.383-.37-.399C6.077 14.011 3 10.191 3 4.398c0-.156-.094-.3-.238-.363a.395.395 0 0 0-.43.067c-.254.23-.95.261-1.156.054a.6.6 0 0 1 0-.847L3.582.902l2.41 2.403a.596.596 0 0 1 .153.593c-.04.133-.16.372-.543.454-.243.054-.516-.032-.72-.235a.402.402 0 0 0-.683.281c0 4.375 2.774 7.825 6.742 8.399a.409.409 0 0 0 .32-.094.412.412 0 0 0 .137-.305v-8a.397.397 0 1 0-.68-.281c-.261.258-.913.32-1.128.102a.599.599 0 0 1 0-.848L12.004.973l2.406 2.402a.605.605 0 0 1-.004.855c-.004 0-.21.207-.496.207-.203 0-.414-.105-.629-.32a.397.397 0 0 0-.68.281v8c0 .118.051.227.137.305.086.074.203.11.32.094 3.97-.574 6.743-4.024 6.743-8.399a.407.407 0 0 0-.695-.27.776.776 0 0 1-.708.224c-.378-.082-.503-.32-.543-.454a.603.603 0 0 1 .149-.593L20.418.902l2.406 2.407a.599.599 0 0 1 0 .847zm0 0"/>
</svg>
