<svg xmlns="http://www.w3.org/2000/svg" width="32" height="32" viewBox="0 0 24 24">
    <path d="M19.75 21.223c-.559-.04-1.223-.176-1.52-.555 3.118-1.879 5.16-5.102 5.16-8.668 0-3.613-2.097-6.879-5.285-8.742.184-.586 1.086-.742 1.645-.781.387-.028.75-.22.996-.52.23-.285.336-.64.285-.996-.066-.512-.426-.856-.98-.938-.028-.003-2.863-.37-4.047 2.27a12.103 12.103 0 0 0-1.969-.496v-.563C14.035.554 13.48 0 12.801 0h-1.598c-.683 0-1.238.555-1.238 1.234v.563c-.68.11-1.336.277-1.969.496C6.812-.347 3.976.02 3.946.023c-.551.082-.91.426-.977.938-.051.355.054.71.285.996.246.3.61.492.992.52.563.039 1.465.195 1.649.78C2.707 5.122.609 8.388.609 12c0 3.566 2.043 6.79 5.16 8.668-.296.379-.964.516-1.519.555-.387.027-.75.215-.996.515-.23.29-.336.64-.285.996.066.516.426.856.98.938.133.02.281.031.45.031 1.03 0 2.613-.426 3.472-2.039.668.238 1.371.422 2.094.54v.562c0 .68.555 1.234 1.238 1.234h1.598c.68 0 1.234-.555 1.234-1.234v-.563c.723-.117 1.426-.3 2.094-.539.863 1.613 2.441 2.04 3.476 2.04.165 0 .317-.013.45-.032.55-.082.91-.422.976-.938a1.28 1.28 0 0 0-.285-.992 1.411 1.411 0 0 0-.996-.52zM16.758 2.578C17.703.547 19.844.816 19.934.828c.246.04.277.133.293.242a.504.504 0 0 1-.114.375.614.614 0 0 1-.418.22c-1.504.105-2.09.687-2.312 1.198-.07-.035-.14-.062-.211-.097-.074-.032-.149-.067-.223-.098-.062-.031-.125-.063-.191-.09zm-2.723 2.945c3.328.786 5.692 3.446 5.692 6.477s-2.364 5.688-5.692 6.477zm-4.07 12.954C6.637 17.687 4.27 15.03 4.27 12s2.367-5.691 5.695-6.477zM6.617 2.863c-.222-.511-.808-1.093-2.312-1.199a.614.614 0 0 1-.418-.219.504.504 0 0 1-.114-.375c.016-.11.047-.203.29-.238.097-.016 2.23-.297 3.18 1.746-.063.027-.126.059-.192.086l-.223.106c-.07.03-.14.058-.21.093zm.492 18.5c-.996 1.758-2.96 1.516-3.043 1.504-.246-.035-.277-.129-.293-.242a.49.49 0 0 1 .114-.371.598.598 0 0 1 .418-.219c1.265-.09 1.886-.512 2.183-.96.114.054.23.109.348.16.039.019.074.038.113.054.055.023.106.05.16.074zm.352-.738c-.05-.023-.102-.043-.152-.066-3.504-1.586-5.887-4.88-5.887-8.559 0-3.688 2.387-6.98 5.898-8.563.059-.027.117-.05.176-.074a11.02 11.02 0 0 1 2.469-.742V4.7C6.175 5.516 3.457 8.531 3.457 12c0 3.465 2.719 6.484 6.508 7.3v2.079a11.274 11.274 0 0 1-2.504-.754zm5.758 2.14c0 .231-.188.422-.422.422h-1.598a.422.422 0 0 1-.418-.421V1.234c0-.23.188-.421.418-.421h1.598c.234 0 .422.19.422.421zm.816-3.464c3.79-.817 6.508-3.836 6.508-7.301 0-3.469-2.719-6.488-6.508-7.3V2.616c.867.156 1.692.41 2.469.746.058.024.117.047.176.075C20.188 5.02 22.574 8.311 22.574 12c0 3.68-2.379 6.973-5.883 8.559-.05.023-.101.043-.152.066-.785.34-1.625.598-2.504.754zm5.902 3.566c-.019.004-2.039.266-3.046-1.504.054-.023.105-.05.16-.074.039-.016.078-.035.113-.055.117-.05.234-.105.348-.16.297.45.918.871 2.183.961.16.012.313.09.418.219a.49.49 0 0 1 .114.371c-.016.113-.047.207-.29.242zm0 0"/>
</svg>
