<svg xmlns="http://www.w3.org/2000/svg" width="32" height="32" viewBox="0 0 24 24">
    <path d="M 12 0 C 5.382812 0 0 5.382812 0 12 C 0 18.617188 5.382812 24 12 24 C 18.617188 24 24 18.617188 24 12 C 24 5.382812 18.617188 0 12 0 Z M 12 23.171875 C 5.839844 23.171875 0.828125 18.160156 0.828125 12 C 0.828125 5.839844 5.839844 0.828125 12 0.828125 C 18.160156 0.828125 23.171875 5.839844 23.171875 12 C 23.171875 18.160156 18.160156 23.171875 12 23.171875 Z M 12 23.171875"/>
    <path d="M 19.035156 6.621094 C 19.261719 6.621094 19.449219 6.4375 19.449219 6.207031 C 19.449219 5.976562 19.261719 5.792969 19.035156 5.792969 C 15.523438 5.792969 12.648438 8.542969 12.433594 12 L 11.566406 12 C 11.351562 8.542969 8.476562 5.792969 4.964844 5.792969 C 4.738281 5.792969 4.550781 5.976562 4.550781 6.207031 C 4.550781 6.4375 4.738281 6.621094 4.964844 6.621094 C 8.019531 6.621094 10.523438 9 10.738281 12 L 7.863281 12 C 7.632812 12 7.449219 12.183594 7.449219 12.414062 C 7.449219 12.644531 7.632812 12.828125 7.863281 12.828125 L 10.738281 12.828125 C 10.523438 15.828125 8.019531 18.207031 4.964844 18.207031 C 4.738281 18.207031 4.550781 18.390625 4.550781 18.621094 C 4.550781 18.847656 4.738281 19.035156 4.964844 19.035156 C 8.476562 19.035156 11.351562 16.285156 11.566406 12.828125 L 12.433594 12.828125 C 12.648438 16.285156 15.523438 19.035156 19.035156 19.035156 C 19.261719 19.035156 19.449219 18.847656 19.449219 18.621094 C 19.449219 18.390625 19.261719 18.207031 19.035156 18.207031 C 15.980469 18.207031 13.476562 15.828125 13.261719 12.828125 L 16.136719 12.828125 C 16.367188 12.828125 16.550781 12.644531 16.550781 12.414062 C 16.550781 12.183594 16.367188 12 16.136719 12 L 13.261719 12 C 13.476562 9 15.980469 6.621094 19.035156 6.621094 Z M 19.035156 6.621094"/>
</svg>
