<svg xmlns="http://www.w3.org/2000/svg" width="32" height="32" viewBox="0 0 24 24">
    <path d="M8.398 5.18c-3.746 0-6.796 3.05-6.796 6.8s3.05 6.801 6.796 6.801c3.75 0 6.801-3.05 6.801-6.8S12.15 5.18 8.4 5.18zm0 12.8c-3.308 0-6-2.69-6-6 0-3.308 2.692-6 6-6 3.309 0 6 2.692 6 6 0 3.31-2.691 6-6 6zm0 0"/>
    <path d="M23.984 11.781c-.093-.57-.62-1-1.226-1h-1.559V9.582c0-.66-.539-1.2-1.199-1.2s-1.2.54-1.2 1.2v1.2h-2.085c-.59-4.102-4.156-7.2-8.317-7.2-.07 0-.14 0-.21.004a8.279 8.279 0 0 0-4.684 1.598c-.352-.258-.883-.809-.676-1.707a1.28 1.28 0 0 0-.555-1.372l-.054-.03a1.266 1.266 0 0 0-1.082.042 1.235 1.235 0 0 0-.637.84c-.156.75-.324 2.566 1.258 3.914A8.274 8.274 0 0 0 .012 11.52a8.373 8.373 0 0 0 1.734 5.582C.141 18.477.344 20.332.523 21.098c.082.359.32.656.653.812a1.17 1.17 0 0 0 1.043-.012c.504-.25.758-.812.617-1.37-.227-.903.273-1.458.652-1.735a8.321 8.321 0 0 0 4.914 1.59 8.37 8.37 0 0 0 8.313-7.203H18.8v1.203c0 .66.539 1.199 1.199 1.199s1.2-.539 1.2-1.2V13.18h1.6a1.199 1.199 0 0 0 1.184-1.399zm-.879.461a.402.402 0 0 1-.304.14h-1.887a.515.515 0 0 0-.516.516v1.485a.398.398 0 1 1-.796 0v-1.485a.515.515 0 0 0-.516-.515h-3.09l-.035.36a7.575 7.575 0 0 1-7.563 6.839c-1.699 0-3.304-.55-4.648-1.594l-.21-.164-.235.133c-.817.469-1.575 1.438-1.246 2.766a.39.39 0 0 1-.54.465.383.383 0 0 1-.218-.27c-.188-.816-.274-2.352 1.246-3.422l.355-.254-.285-.336a7.566 7.566 0 0 1-1.804-5.343 7.503 7.503 0 0 1 1.816-4.497l.289-.336-.363-.253C1.059 5.43 1.117 3.926 1.285 3.12a.418.418 0 0 1 .223-.293.462.462 0 0 1 .215-.055c.05 0 .101.008.152.028.148.11.215.3.172.5-.3 1.312.465 2.265 1.281 2.719l.235.128.207-.16a7.497 7.497 0 0 1 4.437-1.605h.191c3.875 0 7.176 2.969 7.563 6.84l.035.359h3.09c.285 0 .516-.23.516-.516V9.582a.401.401 0 1 1 .8 0v1.484c0 .286.23.516.512.516h1.844c.215 0 .406.145.437.328a.408.408 0 0 1-.09.332zm0 0"/>
</svg>
