<svg xmlns="http://www.w3.org/2000/svg" width="32" height="32" viewBox="0 0 24 24">
    <path d="M 7.5 1.683594 L 12 7.253906 L 16.5 1.683594 Z M 9.261719 2.527344 L 14.738281 2.527344 L 12 5.914062 Z M 9.261719 2.527344"/>
    <path d="M 13.371094 8.234375 L 19.148438 1.085938 C 19.3125 0.882812 19.34375 0.613281 19.230469 0.378906 C 19.121094 0.144531 18.890625 0 18.628906 0 L 5.367188 0 C 5.109375 0 4.878906 0.144531 4.765625 0.378906 C 4.65625 0.613281 4.6875 0.882812 4.851562 1.085938 L 10.652344 8.265625 C 10.714844 8.34375 10.75 8.441406 10.75 8.539062 L 10.75 9.261719 L 8.644531 9.261719 C 7.949219 9.261719 7.378906 9.828125 7.378906 10.527344 C 7.378906 11.222656 7.949219 11.789062 8.644531 11.789062 L 10.75 11.789062 L 10.75 12.632812 L 8.644531 12.632812 C 7.949219 12.632812 7.378906 13.199219 7.378906 13.894531 C 7.378906 14.589844 7.949219 15.15625 8.644531 15.15625 L 10.75 15.15625 L 10.75 16 L 8.644531 16 C 7.949219 16 7.378906 16.566406 7.378906 17.261719 C 7.378906 17.960938 7.949219 18.527344 8.644531 18.527344 L 10.75 18.527344 L 10.75 19.367188 L 8.644531 19.367188 C 7.949219 19.367188 7.378906 19.933594 7.378906 20.632812 C 7.378906 21.328125 7.949219 21.894531 8.644531 21.894531 L 10.75 21.894531 L 10.75 22.738281 C 10.75 23.433594 11.316406 24 12.011719 24 C 12.707031 24 13.273438 23.433594 13.273438 22.738281 L 13.273438 21.894531 L 15.378906 21.894531 C 16.078125 21.894531 16.644531 21.328125 16.644531 20.632812 C 16.644531 19.933594 16.078125 19.367188 15.378906 19.367188 L 13.273438 19.367188 L 13.273438 18.527344 L 15.378906 18.527344 C 16.078125 18.527344 16.644531 17.960938 16.644531 17.261719 C 16.644531 16.566406 16.078125 16 15.378906 16 L 13.273438 16 L 13.273438 15.15625 L 15.378906 15.15625 C 16.078125 15.15625 16.644531 14.589844 16.644531 13.894531 C 16.644531 13.199219 16.078125 12.632812 15.378906 12.632812 L 13.273438 12.632812 L 13.273438 11.789062 L 15.378906 11.789062 C 16.078125 11.789062 16.644531 11.222656 16.644531 10.527344 C 16.644531 9.828125 16.078125 9.261719 15.378906 9.261719 L 13.273438 9.261719 L 13.273438 8.507812 C 13.273438 8.410156 13.308594 8.3125 13.371094 8.234375 Z M 12.855469 10.105469 L 15.378906 10.105469 C 15.613281 10.105469 15.800781 10.292969 15.800781 10.527344 C 15.800781 10.757812 15.613281 10.949219 15.378906 10.949219 L 12.855469 10.949219 C 12.621094 10.949219 12.433594 11.136719 12.433594 11.367188 L 12.433594 13.050781 C 12.433594 13.285156 12.621094 13.472656 12.855469 13.472656 L 15.378906 13.472656 C 15.613281 13.472656 15.800781 13.664062 15.800781 13.894531 C 15.800781 14.128906 15.613281 14.316406 15.378906 14.316406 L 12.855469 14.316406 C 12.621094 14.316406 12.433594 14.503906 12.433594 14.738281 L 12.433594 16.421875 C 12.433594 16.652344 12.621094 16.84375 12.855469 16.84375 L 15.378906 16.84375 C 15.613281 16.84375 15.800781 17.03125 15.800781 17.261719 C 15.800781 17.496094 15.613281 17.683594 15.378906 17.683594 L 12.855469 17.683594 C 12.621094 17.683594 12.433594 17.871094 12.433594 18.105469 L 12.433594 19.789062 C 12.433594 20.023438 12.621094 20.210938 12.855469 20.210938 L 15.378906 20.210938 C 15.613281 20.210938 15.800781 20.398438 15.800781 20.632812 C 15.800781 20.863281 15.613281 21.050781 15.378906 21.050781 L 12.855469 21.050781 C 12.621094 21.050781 12.433594 21.242188 12.433594 21.472656 L 12.433594 22.738281 C 12.433594 22.96875 12.242188 23.15625 12.011719 23.15625 C 11.78125 23.15625 11.589844 22.96875 11.589844 22.738281 L 11.589844 21.472656 C 11.589844 21.242188 11.402344 21.050781 11.167969 21.050781 L 8.644531 21.050781 C 8.410156 21.050781 8.222656 20.863281 8.222656 20.632812 C 8.222656 20.398438 8.410156 20.210938 8.644531 20.210938 L 11.167969 20.210938 C 11.402344 20.210938 11.589844 20.023438 11.589844 19.789062 L 11.589844 18.105469 C 11.589844 17.871094 11.402344 17.683594 11.167969 17.683594 L 8.644531 17.683594 C 8.410156 17.683594 8.222656 17.496094 8.222656 17.261719 C 8.222656 17.03125 8.410156 16.84375 8.644531 16.84375 L 11.167969 16.84375 C 11.402344 16.84375 11.589844 16.652344 11.589844 16.421875 L 11.589844 14.738281 C 11.589844 14.503906 11.402344 14.316406 11.167969 14.316406 L 8.644531 14.316406 C 8.410156 14.316406 8.222656 14.128906 8.222656 13.894531 C 8.222656 13.664062 8.410156 13.472656 8.644531 13.472656 L 11.167969 13.472656 C 11.402344 13.472656 11.589844 13.285156 11.589844 13.050781 L 11.589844 11.367188 C 11.589844 11.136719 11.402344 10.949219 11.167969 10.949219 L 8.644531 10.949219 C 8.410156 10.949219 8.222656 10.757812 8.222656 10.527344 C 8.222656 10.292969 8.410156 10.105469 8.644531 10.105469 L 11.167969 10.105469 C 11.402344 10.105469 11.589844 9.917969 11.589844 9.683594 L 11.589844 8.539062 C 11.589844 8.25 11.488281 7.960938 11.304688 7.734375 L 5.734375 0.84375 L 18.261719 0.84375 L 12.71875 7.703125 C 12.71875 7.703125 12.71875 7.703125 12.71875 7.707031 C 12.535156 7.933594 12.433594 8.21875 12.433594 8.507812 L 12.433594 9.683594 C 12.433594 9.917969 12.621094 10.105469 12.855469 10.105469 Z M 12.855469 10.105469"/>
</svg>
