<svg xmlns="http://www.w3.org/2000/svg" width="32" height="32" viewBox="0 0 24 24">
    <path d="M3.633 10.137c-1.113 0-2.02.906-2.02 2.015 0 1.114.907 2.02 2.02 2.02 1.11 0 2.015-.906 2.015-2.02a2.02 2.02 0 0 0-2.015-2.015zm0 3.226c-.668 0-1.211-.543-1.211-1.21 0-.665.543-1.208 1.21-1.208a1.21 1.21 0 0 1 1.208 1.207c0 .668-.543 1.211-1.207 1.211zm0 0"/>
    <path d="M23.102 13.695c-.168-.039-.34-.039-.508-.008V9.43a1.29 1.29 0 0 0 1.05-.375c.231-.227.356-.528.356-.848 0-.32-.125-.621-.355-.848L22.23 5.95a1.207 1.207 0 0 0-1.703 0L19.11 7.36a1.188 1.188 0 0 0 0 1.695c.29.29.692.415 1.063.376v1.414h-5.246V4.379a2.02 2.02 0 0 0 .808-1.606c0-1.113-.906-2.02-2.015-2.02-1.114 0-2.02.907-2.02 2.02 0 .63.305 1.227.809 1.606v6.465l-5.363-.004c-.54-1.36-1.97-2.317-3.512-2.317A3.635 3.635 0 0 0 0 12.153a3.636 3.636 0 0 0 3.633 3.632c1.617 0 3.054-1.043 3.535-2.523h5.34v6.215a1.191 1.191 0 0 0-1.063.308c-.23.227-.355.531-.355.852 0 .32.125.62.355.847l1.414 1.41a1.2 1.2 0 0 0 .852.352 1.2 1.2 0 0 0 .851-.351l1.376-1.368c.351-.347.476-.859.316-1.3a1.12 1.12 0 0 0-.82-.739 1.234 1.234 0 0 0-.508-.008v-6.218h5.246v.422a1.202 1.202 0 0 0-1.063.308 1.195 1.195 0 0 0 0 1.7l1.418 1.41c.47.468 1.23.468 1.703 0l1.372-1.364c.351-.351.476-.863.32-1.304a1.134 1.134 0 0 0-.82-.739zm-.067 1.47L21.66 16.53a.4.4 0 0 1-.566 0l-1.414-1.41a.375.375 0 0 1-.117-.277c0-.106.039-.203.117-.278.14-.14.445-.117.613.047l.687.684v-2.84h-6.859v8.633l.688-.684a.496.496 0 0 1 .445-.129c.121.024.2.098.242.22.05.148 0 .331-.129.46l-1.37 1.367a.4.4 0 0 1-.567 0l-1.418-1.41a.387.387 0 0 1-.114-.277c0-.106.04-.203.114-.278a.36.36 0 0 1 .258-.093.53.53 0 0 1 .355.14l.688.684v-8.633H6.535l-.07.313c-.281 1.257-1.5 2.207-2.832 2.207a2.826 2.826 0 0 1-2.824-2.825 2.828 2.828 0 0 1 2.824-2.824c1.277 0 2.5.875 2.84 2.031l.082.29h6.758v-7.72l-.2-.116a1.193 1.193 0 0 1-.605-1.04c0-.668.543-1.21 1.21-1.21.665 0 1.208.542 1.208 1.21 0 .43-.227.82-.606 1.04l-.199.117v7.718h6.86V7.855l-.688.684c-.14.14-.445.113-.613-.055a.375.375 0 0 1-.117-.277c0-.105.039-.203.117-.277l1.414-1.41a.4.4 0 0 1 .566 0l1.418 1.41a.387.387 0 0 1 .113.277c0 .105-.039.203-.113.277-.168.168-.465.196-.605.055l-.688-.684v7.442l.688-.684a.506.506 0 0 1 .449-.129.315.315 0 0 1 .238.22c.055.148 0 .331-.125.46zm0 0"/>
</svg>
