<svg xmlns="http://www.w3.org/2000/svg" width="32" height="32" viewBox="0 0 24 24">
    <path d="M8.398 5.18c-3.746 0-6.796 3.05-6.796 6.8s3.05 6.801 6.796 6.801c3.75 0 6.801-3.05 6.801-6.8S12.15 5.18 8.4 5.18zm0 12.8c-3.308 0-6-2.69-6-6 0-3.308 2.692-6 6-6 3.309 0 6.004 2.692 6.004 6 0 3.31-2.691 6-6.004 6zm0 0"/>
    <path d="M23.652 11.133l-1.355-1.36c-.344-.347-.852-.472-1.29-.316-.378.133-.644.43-.73.813-.039.164-.043.335-.011.503h-3.512c-.594-4.093-4.176-7.191-8.356-7.191h-.21a8.312 8.312 0 0 0-4.684 1.602c-.352-.258-.883-.809-.676-1.707a1.288 1.288 0 0 0-.555-1.375l-.054-.028a1.266 1.266 0 0 0-1.082.043 1.235 1.235 0 0 0-.637.84c-.156.75-.324 2.566 1.258 3.914A8.274 8.274 0 0 0 .012 11.52a8.373 8.373 0 0 0 1.734 5.582C.141 18.477.344 20.332.523 21.098c.082.359.32.656.653.816.164.074.336.113.512.113.18 0 .363-.043.53-.129a1.19 1.19 0 0 0 .618-1.37c-.227-.903.273-1.458.652-1.735a8.321 8.321 0 0 0 4.914 1.59c4.16 0 7.762-3.14 8.352-7.211h3.512c-.07.379.03.781.304 1.055.45.453 1.235.453 1.684 0l1.398-1.403a1.2 1.2 0 0 0 0-1.691zm-.566 1.125l-1.398 1.406a.384.384 0 0 1-.274.113.387.387 0 0 1-.277-.113c-.14-.14-.117-.441.05-.61l.676-.679H16.04l-.035.36c-.383 3.84-3.723 6.847-7.606 6.847-1.699 0-3.304-.55-4.648-1.594l-.21-.164-.235.133c-.817.465-1.575 1.438-1.246 2.766a.392.392 0 0 1-.2.46.373.373 0 0 1-.34.005.383.383 0 0 1-.218-.27c-.188-.816-.274-2.352 1.246-3.422l.355-.254-.285-.336a7.572 7.572 0 0 1-1.804-5.343 7.474 7.474 0 0 1 1.82-4.497l.285-.336-.363-.253C1.059 5.43 1.117 3.922 1.285 3.12a.427.427 0 0 1 .223-.293.42.42 0 0 1 .215-.055c.05 0 .101.008.152.028a.48.48 0 0 1 .172.5c-.3 1.312.465 2.265 1.285 2.719l.23.128.208-.16a7.497 7.497 0 0 1 4.437-1.605c3.957-.098 7.398 2.902 7.797 6.832l.035.36h5.824l-.675-.684a.494.494 0 0 1-.133-.442.315.315 0 0 1 .218-.238.452.452 0 0 1 .457.125l1.356 1.363a.398.398 0 0 1 0 .559zm0 0"/>
</svg>
