<svg xmlns="http://www.w3.org/2000/svg" width="32" height="32" viewBox="0 0 24 24">
    <path d="M 22.910156 19.164062 C 19.3125 18.800781 16.601562 15.722656 16.601562 12 C 16.601562 8.277344 19.3125 5.199219 22.910156 4.835938 C 23.53125 4.773438 24 4.257812 24 3.640625 C 24 3.300781 23.855469 2.972656 23.601562 2.746094 C 23.355469 2.519531 23.027344 2.410156 22.699219 2.445312 C 19.070312 2.796875 16.003906 5.265625 14.777344 8.714844 L 12.566406 3.796875 C 12.5 3.652344 12.355469 3.5625 12.199219 3.5625 C 12.042969 3.5625 11.898438 3.652344 11.835938 3.796875 L 9.394531 9.226562 C 8.304688 5.539062 5.125 2.816406 1.300781 2.445312 C 0.972656 2.410156 0.644531 2.519531 0.398438 2.746094 C 0.144531 2.972656 0 3.300781 0 3.640625 C 0 4.257812 0.46875 4.773438 1.089844 4.835938 C 4.6875 5.199219 7.398438 8.277344 7.398438 12 C 7.398438 15.722656 4.6875 18.800781 1.089844 19.164062 C 0.46875 19.226562 0 19.742188 0 20.359375 C 0 20.699219 0.144531 21.023438 0.398438 21.253906 C 0.644531 21.476562 0.972656 21.585938 1.300781 21.554688 C 5.183594 21.175781 8.378906 18.402344 9.429688 14.644531 L 11.839844 19.734375 C 11.90625 19.871094 12.046875 19.960938 12.199219 19.960938 C 12.355469 19.960938 12.496094 19.871094 12.5625 19.734375 L 14.730469 15.15625 C 15.921875 18.675781 19.007812 21.195312 22.699219 21.554688 C 22.734375 21.558594 22.773438 21.5625 22.808594 21.5625 C 23.101562 21.5625 23.382812 21.453125 23.601562 21.253906 C 23.855469 21.023438 24 20.699219 24 20.359375 C 24 19.742188 23.53125 19.226562 22.910156 19.164062 Z M 23.066406 20.660156 C 22.984375 20.734375 22.878906 20.769531 22.777344 20.761719 C 19.074219 20.398438 16.035156 17.652344 15.21875 13.929688 C 15.179688 13.761719 15.042969 13.636719 14.871094 13.621094 C 14.855469 13.617188 14.839844 13.617188 14.828125 13.617188 C 14.671875 13.617188 14.53125 13.703125 14.464844 13.84375 L 12.199219 18.628906 L 9.644531 13.238281 C 9.570312 13.078125 9.402344 12.988281 9.226562 13.011719 C 9.050781 13.039062 8.914062 13.171875 8.890625 13.347656 C 8.289062 17.328125 5.136719 20.375 1.222656 20.757812 C 1.113281 20.769531 1.015625 20.734375 0.933594 20.660156 C 0.847656 20.585938 0.800781 20.472656 0.800781 20.359375 C 0.800781 20.152344 0.960938 19.984375 1.171875 19.960938 C 5.175781 19.554688 8.199219 16.132812 8.199219 12 C 8.199219 7.867188 5.175781 4.445312 1.171875 4.039062 C 0.960938 4.015625 0.800781 3.847656 0.800781 3.640625 C 0.800781 3.527344 0.847656 3.414062 0.933594 3.339844 C 1.015625 3.265625 1.121094 3.230469 1.222656 3.238281 C 5.085938 3.617188 8.230469 6.621094 8.875 10.539062 C 8.902344 10.714844 9.042969 10.847656 9.21875 10.871094 C 9.394531 10.894531 9.5625 10.800781 9.632812 10.640625 L 12.199219 4.9375 L 14.492188 10.027344 C 14.5625 10.183594 14.714844 10.277344 14.894531 10.261719 C 15.066406 10.242188 15.207031 10.121094 15.246094 9.953125 C 16.101562 6.292969 19.128906 3.597656 22.777344 3.238281 C 22.882812 3.230469 22.984375 3.265625 23.066406 3.339844 C 23.152344 3.414062 23.199219 3.527344 23.199219 3.640625 C 23.199219 3.847656 23.039062 4.015625 22.828125 4.039062 C 18.824219 4.445312 15.800781 7.867188 15.800781 12 C 15.800781 16.132812 18.824219 19.554688 22.828125 19.960938 C 23.039062 19.980469 23.199219 20.152344 23.199219 20.359375 C 23.199219 20.472656 23.152344 20.585938 23.066406 20.660156 Z M 23.066406 20.660156"/>
    <path d="M 9.921875 11.949219 L 12.199219 16.757812 L 14.476562 11.949219 L 12.199219 6.886719 Z M 12.199219 14.890625 L 10.804688 11.941406 L 12.199219 8.835938 L 13.597656 11.941406 Z M 12.199219 14.890625"/>
</svg>
