<svg xmlns="http://www.w3.org/2000/svg" width="32" height="32" viewBox="0 0 24 24">
    <path d="M 12.648438 1.953125 C 12.53125 1.753906 12.316406 1.628906 12.082031 1.628906 C 11.851562 1.628906 11.632812 1.753906 11.519531 1.949219 L 4.019531 14.660156 L 4.019531 14.664062 C 3.925781 14.828125 3.925781 15.03125 4.019531 15.195312 C 4.113281 15.355469 4.289062 15.457031 4.476562 15.457031 L 19.523438 15.457031 C 19.710938 15.457031 19.886719 15.355469 19.980469 15.191406 C 20.074219 15.03125 20.074219 14.828125 19.980469 14.664062 Z M 4.972656 14.644531 L 12.082031 2.597656 L 19.03125 14.644531 Z M 4.972656 14.644531"/>
    <path d="M 21.390625 13.851562 L 14.058594 1.140625 C 13.652344 0.4375 12.894531 0 12.082031 0 C 11.269531 0 10.511719 0.4375 10.109375 1.140625 L 2.609375 13.851562 C 2.035156 14.847656 2.347656 16.121094 3.324219 16.753906 C 3.660156 16.96875 4.074219 17.085938 4.515625 17.085938 L 10.863281 17.085938 L 10.863281 18.710938 L 9.644531 18.710938 C 8.96875 18.710938 8.421875 19.257812 8.421875 19.933594 C 8.421875 20.605469 8.96875 21.152344 9.644531 21.152344 L 10.863281 21.152344 L 10.863281 22.78125 C 10.863281 23.535156 11.496094 24 12.082031 24 C 12.699219 24 13.304688 23.375 13.304688 22.734375 L 13.304688 21.152344 L 14.523438 21.152344 C 15.199219 21.152344 15.746094 20.605469 15.746094 19.933594 C 15.746094 19.257812 15.199219 18.710938 14.523438 18.710938 L 13.304688 18.710938 L 13.304688 17.085938 L 19.480469 17.085938 C 19.925781 17.085938 20.339844 16.96875 20.679688 16.75 C 21.652344 16.121094 21.964844 14.84375 21.390625 13.851562 Z M 20.234375 16.070312 C 20.03125 16.203125 19.769531 16.269531 19.480469 16.269531 L 12.492188 16.269531 L 12.492188 19 C 12.492188 19.289062 12.726562 19.527344 13.015625 19.527344 L 14.523438 19.527344 C 14.75 19.527344 14.929688 19.707031 14.929688 19.933594 C 14.929688 20.15625 14.75 20.339844 14.523438 20.339844 L 13.015625 20.339844 C 12.726562 20.339844 12.492188 20.574219 12.492188 20.863281 L 12.492188 22.734375 C 12.492188 22.925781 12.253906 23.1875 12.082031 23.1875 C 11.914062 23.1875 11.675781 23.058594 11.675781 22.777344 L 11.675781 20.863281 C 11.675781 20.574219 11.441406 20.339844 11.152344 20.339844 L 9.644531 20.339844 C 9.417969 20.339844 9.238281 20.15625 9.238281 19.933594 C 9.238281 19.707031 9.417969 19.523438 9.644531 19.523438 L 11.152344 19.523438 C 11.441406 19.523438 11.675781 19.289062 11.675781 19 L 11.675781 16.269531 L 4.515625 16.269531 C 4.230469 16.269531 3.96875 16.203125 3.765625 16.070312 C 3.082031 15.628906 3 14.800781 3.308594 14.261719 L 10.8125 1.546875 C 11.074219 1.09375 11.5625 0.8125 12.082031 0.8125 C 12.605469 0.8125 13.09375 1.09375 13.355469 1.546875 L 20.6875 14.257812 C 21 14.800781 20.917969 15.625 20.234375 16.070312 Z M 20.234375 16.070312"/>
</svg>
