<svg xmlns="http://www.w3.org/2000/svg" width="32" height="32" viewBox="0 0 24 24">
    <path d="M 19.859375 14.808594 C 20.320312 15.273438 21.128906 15.273438 21.589844 14.808594 L 23.027344 13.363281 C 23.5 12.882812 23.5 12.105469 23.027344 11.628906 L 21.632812 10.230469 C 21.277344 9.871094 20.757812 9.742188 20.304688 9.90625 C 19.917969 10.042969 19.644531 10.347656 19.554688 10.738281 C 19.515625 10.910156 19.515625 11.085938 19.546875 11.257812 L 13.359375 11.257812 L 13.359375 8.789062 L 15.433594 8.789062 C 15.363281 9.179688 15.464844 9.589844 15.746094 9.875 C 16.210938 10.339844 17.019531 10.339844 17.480469 9.875 L 18.914062 8.429688 C 19.390625 7.953125 19.390625 7.171875 18.914062 6.695312 L 17.523438 5.296875 C 17.167969 4.9375 16.648438 4.8125 16.195312 4.972656 C 15.808594 5.109375 15.535156 5.414062 15.445312 5.808594 C 15.40625 5.976562 15.40625 6.152344 15.4375 6.324219 L 13.359375 6.324219 L 13.359375 3.835938 C 13.53125 3.867188 13.707031 3.867188 13.875 3.828125 C 14.269531 3.738281 14.574219 3.464844 14.710938 3.078125 C 14.871094 2.625 14.746094 2.105469 14.386719 1.75 L 12.988281 0.359375 C 12.511719 -0.121094 11.730469 -0.117188 11.253906 0.355469 L 9.808594 1.792969 C 9.578125 2.023438 9.449219 2.332031 9.449219 2.660156 C 9.449219 2.984375 9.578125 3.292969 9.808594 3.523438 C 10.09375 3.804688 10.503906 3.910156 10.894531 3.839844 L 10.890625 6.324219 L 8.828125 6.324219 C 8.867188 5.949219 8.742188 5.542969 8.449219 5.25 C 7.988281 4.785156 7.179688 4.789062 6.71875 5.25 L 5.28125 6.695312 C 4.808594 7.171875 4.808594 7.953125 5.28125 8.429688 L 6.71875 9.875 C 7.179688 10.339844 7.988281 10.339844 8.449219 9.875 C 8.742188 9.578125 8.871094 9.171875 8.832031 8.792969 L 10.890625 8.792969 L 10.890625 11.257812 L 4.519531 11.257812 C 4.5625 10.878906 4.433594 10.476562 4.140625 10.183594 C 3.679688 9.71875 2.871094 9.71875 2.410156 10.183594 L 0.972656 11.628906 C 0.5 12.105469 0.5 12.886719 0.972656 13.363281 L 2.410156 14.808594 C 2.640625 15.039062 2.949219 15.167969 3.277344 15.167969 C 3.605469 15.167969 3.910156 15.039062 4.140625 14.808594 C 4.4375 14.511719 4.5625 14.105469 4.523438 13.722656 L 10.890625 13.722656 L 10.894531 19.003906 C 8.566406 17.191406 6.472656 16.820312 4.535156 17.871094 C 3.824219 18.242188 3.175781 18.800781 2.796875 19.367188 L 2.765625 19.417969 C 2.433594 19.929688 2.261719 20.515625 2.261719 21.113281 C 2.261719 22.996094 4.109375 23.984375 5.941406 23.988281 C 5.984375 23.992188 6.070312 24 6.203125 24 C 7.019531 24 9.4375 23.753906 12.125 21.214844 C 14.8125 23.753906 17.230469 24 18.046875 24 C 18.179688 24 18.269531 23.992188 18.3125 23.988281 C 20.144531 23.984375 21.992188 22.996094 21.992188 21.113281 C 21.992188 20.515625 21.816406 19.929688 21.484375 19.414062 L 21.449219 19.363281 C 21.070312 18.796875 20.425781 18.242188 19.722656 17.875 C 17.78125 16.816406 15.6875 17.1875 13.359375 19.003906 L 13.359375 13.722656 L 19.542969 13.722656 C 19.472656 14.113281 19.578125 14.523438 19.859375 14.808594 Z M 6.007812 23.171875 L 5.960938 23.167969 C 4.53125 23.167969 3.082031 22.460938 3.082031 21.113281 C 3.082031 20.667969 3.214844 20.230469 3.464844 19.847656 L 3.480469 19.824219 C 3.78125 19.375 4.328125 18.90625 4.917969 18.601562 L 4.921875 18.597656 C 6.835938 17.554688 9.003906 18.222656 11.535156 20.648438 C 8.601562 23.402344 6.03125 23.171875 6.007812 23.171875 Z M 19.335938 18.601562 C 19.921875 18.90625 20.472656 19.375 20.773438 19.824219 L 20.785156 19.847656 C 21.035156 20.230469 21.167969 20.667969 21.167969 21.113281 C 21.167969 22.460938 19.722656 23.167969 18.292969 23.167969 L 18.246094 23.171875 C 18.21875 23.171875 15.652344 23.402344 12.714844 20.648438 C 15.246094 18.226562 17.410156 17.554688 19.335938 18.601562 Z M 12.949219 12.902344 C 12.839844 12.902344 12.734375 12.945312 12.65625 13.023438 C 12.582031 13.097656 12.535156 13.203125 12.535156 13.3125 L 12.535156 19.058594 C 12.535156 19.285156 12.351562 19.472656 12.125 19.472656 C 12.015625 19.472656 11.914062 19.429688 11.835938 19.351562 C 11.757812 19.273438 11.714844 19.167969 11.714844 19.058594 L 11.714844 13.3125 C 11.714844 13.085938 11.53125 12.902344 11.304688 12.902344 L 3.90625 12.902344 C 3.738281 12.902344 3.589844 13 3.527344 13.15625 C 3.460938 13.308594 3.496094 13.484375 3.613281 13.601562 C 3.757812 13.746094 3.730469 14.054688 3.558594 14.226562 C 3.40625 14.378906 3.144531 14.378906 2.992188 14.226562 L 1.558594 12.785156 C 1.398438 12.625 1.398438 12.367188 1.558594 12.207031 L 2.992188 10.765625 C 3.144531 10.609375 3.40625 10.613281 3.558594 10.765625 C 3.730469 10.9375 3.757812 11.234375 3.613281 11.378906 C 3.496094 11.496094 3.460938 11.671875 3.527344 11.824219 C 3.589844 11.980469 3.738281 12.078125 3.90625 12.078125 L 11.304688 12.078125 C 11.53125 12.078125 11.714844 11.894531 11.714844 11.667969 L 11.714844 8.378906 C 11.714844 8.152344 11.53125 7.96875 11.304688 7.96875 L 8.214844 7.96875 C 8.046875 7.96875 7.898438 8.070312 7.832031 8.222656 C 7.769531 8.375 7.804688 8.550781 7.921875 8.667969 C 8.066406 8.8125 8.039062 9.121094 7.867188 9.292969 C 7.714844 9.445312 7.453125 9.449219 7.300781 9.292969 L 5.867188 7.851562 C 5.707031 7.691406 5.707031 7.433594 5.867188 7.273438 L 7.300781 5.832031 C 7.453125 5.679688 7.714844 5.679688 7.867188 5.832031 C 8.039062 6.003906 8.066406 6.300781 7.921875 6.445312 C 7.804688 6.5625 7.769531 6.738281 7.832031 6.894531 C 7.898438 7.046875 8.046875 7.148438 8.214844 7.148438 L 11.304688 7.148438 C 11.53125 7.148438 11.714844 6.964844 11.714844 6.734375 L 11.714844 3.183594 C 11.714844 3.015625 11.613281 2.867188 11.460938 2.804688 C 11.308594 2.742188 11.132812 2.773438 11.015625 2.890625 C 10.84375 3.0625 10.535156 3.085938 10.390625 2.941406 C 10.3125 2.867188 10.269531 2.765625 10.269531 2.660156 C 10.269531 2.550781 10.3125 2.453125 10.390625 2.375 L 11.832031 0.941406 C 11.992188 0.78125 12.25 0.78125 12.40625 0.941406 L 13.808594 2.332031 C 13.9375 2.460938 13.988281 2.652344 13.9375 2.800781 C 13.894531 2.925781 13.8125 3 13.691406 3.027344 C 13.535156 3.0625 13.351562 3.007812 13.238281 2.890625 C 13.121094 2.773438 12.941406 2.742188 12.789062 2.804688 C 12.636719 2.867188 12.535156 3.019531 12.535156 3.183594 L 12.535156 6.734375 C 12.535156 6.84375 12.578125 6.949219 12.65625 7.027344 C 12.734375 7.101562 12.839844 7.148438 12.949219 7.148438 L 16.089844 7.148438 C 16.253906 7.148438 16.40625 7.046875 16.46875 6.894531 C 16.53125 6.738281 16.496094 6.5625 16.378906 6.445312 C 16.265625 6.328125 16.210938 6.144531 16.246094 5.988281 C 16.273438 5.871094 16.347656 5.789062 16.472656 5.746094 C 16.621094 5.691406 16.8125 5.746094 16.941406 5.875 L 18.332031 7.273438 C 18.492188 7.433594 18.492188 7.691406 18.332031 7.851562 L 16.898438 9.292969 C 16.820312 9.371094 16.71875 9.414062 16.613281 9.414062 C 16.507812 9.414062 16.40625 9.371094 16.332031 9.292969 C 16.1875 9.148438 16.210938 8.839844 16.378906 8.667969 C 16.496094 8.550781 16.53125 8.375 16.46875 8.222656 C 16.40625 8.066406 16.253906 7.96875 16.089844 7.96875 L 12.949219 7.96875 C 12.71875 7.96875 12.535156 8.152344 12.535156 8.378906 L 12.535156 11.667969 C 12.535156 11.894531 12.71875 12.078125 12.949219 12.078125 L 20.199219 12.078125 C 20.367188 12.078125 20.515625 11.980469 20.578125 11.824219 C 20.644531 11.671875 20.609375 11.496094 20.492188 11.378906 C 20.375 11.261719 20.320312 11.078125 20.355469 10.921875 C 20.382812 10.800781 20.457031 10.722656 20.582031 10.679688 C 20.730469 10.625 20.921875 10.675781 21.050781 10.808594 L 22.441406 12.207031 C 22.601562 12.367188 22.601562 12.625 22.441406 12.785156 L 21.007812 14.226562 C 20.929688 14.304688 20.832031 14.34375 20.722656 14.34375 C 20.617188 14.34375 20.515625 14.304688 20.441406 14.226562 C 20.296875 14.082031 20.320312 13.773438 20.492188 13.601562 C 20.609375 13.484375 20.640625 13.308594 20.578125 13.15625 C 20.515625 13 20.363281 12.902344 20.199219 12.902344 Z M 12.949219 12.902344"/>
</svg>
