<svg xmlns="http://www.w3.org/2000/svg" width="32" height="32" viewBox="0 0 24 24">
    <path d="M12.64 1.93a.645.645 0 0 0-.558-.325.638.638 0 0 0-.555.32L4.121 14.478l-.004.003a.522.522 0 0 0 .453.786h14.86a.522.522 0 1 0 .453-.785zM5.063 14.46l7.02-11.894 6.863 11.895zm0 0"/>
    <path d="M21.273 13.68L14.031 1.125A2.248 2.248 0 0 0 12.082 0c-.8 0-1.55.434-1.95 1.125L2.723 13.68a2.145 2.145 0 0 0 .708 2.863c.336.215.742.328 1.18.328h6.671v.402h-1.61c-.663 0-1.202.543-1.202 1.207 0 .665.539 1.204 1.203 1.204h1.61v.57c-.387-.07-.79.035-1.06.3-.23.227-.355.528-.355.848 0 .32.125.621.356.848l1.41 1.402a1.204 1.204 0 0 0 1.695 0l1.367-1.359c.348-.348.473-.86.317-1.3a1.112 1.112 0 0 0-.735-.712 1.238 1.238 0 0 0-.586-.031v-.566h1.606c.664 0 1.207-.54 1.207-1.204a1.21 1.21 0 0 0-1.207-1.207H13.69v-.402h5.7c.441 0 .847-.113 1.18-.328a2.142 2.142 0 0 0 .702-2.863zm-1.14 2.187a1.344 1.344 0 0 1-.742.203h-6.102a.401.401 0 0 0-.402.399v1.207c0 .222.18.402.402.402h2.008a.402.402 0 1 1 0 .805h-2.008a.398.398 0 0 0-.402.398v1.489a.458.458 0 0 0 .734.363.487.487 0 0 1 .422-.082.317.317 0 0 1 .21.21c.056.15.005.333-.124.462l-1.367 1.359a.396.396 0 0 1-.563 0l-1.41-1.402a.39.39 0 0 1-.117-.278.39.39 0 0 1 .117-.277.355.355 0 0 1 .254-.09c.105 0 .219.031.309.102a.47.47 0 0 0 .484.039.454.454 0 0 0 .246-.406V19.28a.398.398 0 0 0-.398-.398H9.672a.403.403 0 0 1-.399-.403c0-.222.18-.402.399-.402h2.012c.218 0 .398-.18.398-.402v-1.207a.4.4 0 0 0-.398-.399H4.609c-.28 0-.539-.07-.742-.199a1.342 1.342 0 0 1-.449-1.785l7.41-12.559a1.453 1.453 0 0 1 1.254-.722c.516 0 .996.277 1.254.722l7.242 12.551c.309.54.23 1.356-.445 1.79zm0 0"/>
</svg>
