<svg xmlns="http://www.w3.org/2000/svg" width="32" height="32" viewBox="0 0 24 24">
    <path d="M 12 0 C 5.382812 0 0 5.382812 0 12 C 0 18.617188 5.382812 24 12 24 C 18.617188 24 24 18.617188 24 12 C 24 5.382812 18.617188 0 12 0 Z M 12 23.144531 C 5.855469 23.144531 0.855469 18.144531 0.855469 12 C 0.855469 5.855469 5.855469 0.855469 12 0.855469 C 18.144531 0.855469 23.144531 5.855469 23.144531 12 C 23.144531 18.144531 18.144531 23.144531 12 23.144531 Z M 12 23.144531"/>
    <path d="M 12 2.144531 C 6.566406 2.144531 2.144531 6.5625 2.144531 12 C 2.144531 17.4375 6.566406 21.855469 12 21.855469 C 17.433594 21.855469 21.855469 17.4375 21.855469 12 C 21.855469 6.5625 17.433594 2.144531 12 2.144531 Z M 12 21 C 7.039062 21 3 16.960938 3 12 C 3 7.039062 7.039062 3 12 3 C 16.960938 3 21 7.039062 21 12 C 21 16.960938 16.960938 21 12 21 Z M 12 21"/>
    <path d="M 12 5.570312 C 8.457031 5.570312 5.570312 8.457031 5.570312 12 C 5.570312 15.542969 8.457031 18.429688 12 18.429688 C 15.542969 18.429688 18.429688 15.542969 18.429688 12 C 18.429688 8.457031 15.542969 5.570312 12 5.570312 Z M 12 17.570312 C 8.929688 17.570312 6.429688 15.070312 6.429688 12 C 6.429688 8.929688 8.929688 6.429688 12 6.429688 C 15.070312 6.429688 17.570312 8.929688 17.570312 12 C 17.570312 15.070312 15.070312 17.570312 12 17.570312 Z M 12 17.570312"/>
</svg>
