<svg xmlns="http://www.w3.org/2000/svg" width="32" height="32" viewBox="0 0 24 24">
    <path d="M15.492 12c4.582-1.344 8.024-5.266 8.5-10.164a1.464 1.464 0 0 0-.379-1.133 1.505 1.505 0 0 0-2.621.867c-.457 4.516-4.32 7.918-8.992 7.918-4.672 0-8.535-3.402-8.992-7.918A1.505 1.505 0 0 0 .387.703a1.464 1.464 0 0 0-.38 1.133c.477 4.898 3.919 8.82 8.5 10.164-4.581 1.344-8.023 5.266-8.5 10.164-.042.41.098.824.38 1.133a1.505 1.505 0 0 0 2.621-.867c.457-4.516 4.32-7.918 8.992-7.918 4.672 0 8.535 3.402 8.992 7.918a1.505 1.505 0 0 0 2.621.867c.282-.309.418-.723.38-1.133-.477-4.898-3.919-8.82-8.5-10.164zM1.008 1.738a.465.465 0 0 1 .12-.363.526.526 0 0 1 .384-.168c.254 0 .468.2.496.465.508 5.031 4.805 8.82 9.992 8.82 5.188 0 9.484-3.793 9.992-8.82a.507.507 0 0 1 .496-.465c.145 0 .285.063.383.168.094.102.137.23.121.363-.543 5.563-5.27 9.758-10.992 9.758-5.723 0-10.45-4.195-10.992-9.758zM22.87 22.625a.526.526 0 0 1-.383.168.507.507 0 0 1-.496-.465c-.508-5.031-4.805-8.82-9.992-8.82-5.188 0-9.484 3.793-9.992 8.82a.507.507 0 0 1-.496.465.526.526 0 0 1-.383-.168.451.451 0 0 1-.121-.363c.543-5.563 5.27-9.758 10.992-9.758 5.723 0 10.45 4.195 10.992 9.758a.465.465 0 0 1-.12.363zm0 0"/>
</svg>
