<svg xmlns="http://www.w3.org/2000/svg" width="32" height="32" viewBox="0 0 24 24">
    <path d="M21.426 10.246a.794.794 0 0 0-.653.05.735.735 0 0 0-.367.481l-.27 1.16-3.359-.785a4.88 4.88 0 0 0-1.906-3.062l.781-3.36L16.81 5a.757.757 0 0 0 .598-.117.815.815 0 0 0 .331-.567A3.87 3.87 0 0 0 14.77.102a3.866 3.866 0 0 0-4.524 2.472.794.794 0 0 0 .05.653c.102.187.278.32.481.367l1.16.27-.785 3.359A4.88 4.88 0 0 0 8.09 9.129l-3.36-.781L5 7.19a.747.747 0 0 0-.117-.593.806.806 0 0 0-.567-.336A3.868 3.868 0 0 0 .102 9.23a3.87 3.87 0 0 0 2.472 4.524.799.799 0 0 0 .653-.05.735.735 0 0 0 .367-.481l.27-1.157 3.359.782a4.838 4.838 0 0 0 1.906 3.066l-.781 3.356L7.19 19a.745.745 0 0 0-.597.121.807.807 0 0 0-.332.563A3.865 3.865 0 0 0 10.113 24a3.866 3.866 0 0 0 3.64-2.574.794.794 0 0 0-.05-.653.735.735 0 0 0-.48-.367l-1.16-.27.785-3.363a4.857 4.857 0 0 0 1.714-.652 4.866 4.866 0 0 0 1.352-1.25l3.356.781L19 16.81a.745.745 0 0 0 .121.597.799.799 0 0 0 .563.332c.152.016.3.028.453.028a3.87 3.87 0 0 0 3.761-2.996 3.87 3.87 0 0 0-2.472-4.524zM2.773 12.898A2.994 2.994 0 0 1 .95 9.426a3 3 0 0 1 3.172-2.309l-.672 2.89-.433 1.86zM14.574.95a2.999 2.999 0 0 1 2.309 3.172l-5.781-1.344A2.994 2.994 0 0 1 14.574.95zm-.781 3.348l1.012.234-.696 2.977-1.007-.235h-.004L12.09 7.04l.695-2.976zm-9.73 6.918l.468-2.02 2.977.696-.469 2.02zM9.425 23.05a2.996 2.996 0 0 1-2.309-3.172l1.031.238 3.297.77 1.453.34a2.994 2.994 0 0 1-3.472 1.824zm-.23-3.582l.695-2.977 2.02.469-.696 2.977-.348-.083zm4.91-4.086a3.954 3.954 0 0 1-3.008.496 3.97 3.97 0 0 1-2.48-1.774 3.97 3.97 0 0 1-.497-3l.004-.015A3.99 3.99 0 0 1 12 8.016a3.989 3.989 0 0 1 3.879 4.887v.003a3.962 3.962 0 0 1-1.774 2.477zm2.855-3.293l2.977.695-.47 2.02-2.976-.696zm6.09 2.484a2.999 2.999 0 0 1-3.172 2.309l.672-2.89.433-1.86.239-1.031a2.996 2.996 0 0 1 1.828 3.472zm0 0"/>
</svg>
