<svg xmlns="http://www.w3.org/2000/svg" width="32" height="32" viewBox="0 0 24 24">
    <path d="M18.621 8.691A6.627 6.627 0 0 0 12 2.071a6.627 6.627 0 0 0-6.621 6.62c0 3.649 2.969 6.618 6.621 6.618 3.652 0 6.621-2.97 6.621-6.618zM12 14.484a5.8 5.8 0 0 1-5.793-5.793A5.798 5.798 0 0 1 12 2.898a5.798 5.798 0 0 1 5.793 5.793A5.8 5.8 0 0 1 12 14.484zm0 0"/>
    <path d="M20.691 8.691C20.691 3.898 16.793 0 12 0 7.207 0 3.309 3.898 3.309 8.691c0 4.137 3 7.739 7.035 8.52v.996H9.102c-.91 0-1.653.742-1.653 1.656 0 .91.742 1.653 1.653 1.653h1.242v.828a1.657 1.657 0 0 0 3.312 0v-.828h1.242a1.655 1.655 0 0 0 0-3.309h-1.242v-.996c4.035-.781 7.035-4.383 7.035-8.52zm-7.87 8.207l.007 2.137h2.07a.828.828 0 0 1 0 1.656h-2.07v1.653a.829.829 0 0 1-1.656 0V20.69h-2.07a.828.828 0 0 1 0-1.656h2.07l.004-2.078.039-.445-.383-.059c-3.816-.57-6.695-3.906-6.695-7.762C4.137 4.355 7.664.828 12 .828s7.863 3.527 7.863 7.863c0 3.856-2.879 7.192-6.695 7.762l-.383.059zm0 0"/>
</svg>
