<svg xmlns="http://www.w3.org/2000/svg" width="32" height="32" viewBox="0 0 24 24">
    <path d="M 23.886719 2.007812 C 23.738281 1.746094 23.46875 1.589844 23.167969 1.589844 L 0.832031 1.589844 C 0.53125 1.589844 0.261719 1.746094 0.109375 2.007812 C -0.0390625 2.269531 -0.0351562 2.582031 0.117188 2.84375 L 11.375 22 C 11.523438 22.257812 11.792969 22.410156 12.089844 22.410156 C 12.089844 22.410156 12.09375 22.410156 12.09375 22.410156 C 12.390625 22.410156 12.660156 22.253906 12.8125 21.996094 L 23.886719 2.839844 C 24.039062 2.578125 24.039062 2.265625 23.886719 2.007812 Z M 12.09375 21.578125 L 0.835938 2.421875 L 23.164062 2.421875 Z M 12.09375 21.578125"/>
    <path d="M 12.089844 19.917969 L 21.613281 3.257812 L 2.183594 3.257812 Z M 12.078125 18.261719 L 3.648438 4.089844 L 20.179688 4.089844 Z M 12.078125 18.261719"/>
</svg>
