<svg xmlns="http://www.w3.org/2000/svg" width="32" height="32" viewBox="0 0 24 24">
    <path d="M 12 5.199219 C 8.25 5.199219 5.199219 8.25 5.199219 12 C 5.199219 15.75 8.25 18.800781 12 18.800781 C 15.75 18.800781 18.800781 15.75 18.800781 12 C 18.800781 8.25 15.75 5.199219 12 5.199219 Z M 12 18 C 8.691406 18 6 15.308594 6 12 C 6 8.691406 8.691406 6 12 6 C 15.308594 6 18 8.691406 18 12 C 18 15.308594 15.308594 18 12 18 Z M 12 18"/>
    <path d="M 22.800781 9.199219 C 22.214844 9.199219 21.859375 9.898438 21.699219 10.800781 L 20.3125 10.800781 C 19.785156 7.128906 16.871094 4.214844 13.199219 3.6875 L 13.199219 2.300781 C 14.101562 2.140625 14.800781 1.785156 14.800781 1.199219 C 14.800781 0.371094 13.394531 0 12 0 C 10.605469 0 9.199219 0.371094 9.199219 1.199219 C 9.199219 1.785156 9.898438 2.140625 10.800781 2.300781 L 10.800781 3.6875 C 7.128906 4.214844 4.214844 7.128906 3.6875 10.800781 L 2.300781 10.800781 C 2.140625 9.898438 1.785156 9.199219 1.199219 9.199219 C 0.371094 9.199219 0 10.605469 0 12 C 0 13.394531 0.371094 14.800781 1.199219 14.800781 C 1.785156 14.800781 2.140625 14.101562 2.300781 13.199219 L 3.6875 13.199219 C 4.214844 16.871094 7.128906 19.785156 10.800781 20.3125 L 10.800781 21.699219 C 9.898438 21.859375 9.199219 22.214844 9.199219 22.800781 C 9.199219 23.628906 10.605469 24 12 24 C 13.394531 24 14.800781 23.628906 14.800781 22.800781 C 14.800781 22.214844 14.101562 21.859375 13.199219 21.699219 L 13.199219 20.3125 C 16.871094 19.785156 19.785156 16.871094 20.3125 13.199219 L 21.699219 13.199219 C 21.859375 14.101562 22.214844 14.800781 22.800781 14.800781 C 23.628906 14.800781 24 13.394531 24 12 C 24 10.605469 23.628906 9.199219 22.800781 9.199219 Z M 1.199219 13.964844 C 1.050781 13.777344 0.800781 13.105469 0.800781 12 C 0.800781 10.894531 1.050781 10.222656 1.199219 10.035156 C 1.347656 10.222656 1.601562 10.894531 1.601562 12 C 1.601562 13.105469 1.347656 13.777344 1.199219 13.964844 Z M 10.035156 1.199219 C 10.222656 1.050781 10.894531 0.800781 12 0.800781 C 13.105469 0.800781 13.777344 1.050781 13.964844 1.199219 C 13.777344 1.347656 13.105469 1.601562 12 1.601562 C 10.894531 1.601562 10.222656 1.347656 10.035156 1.199219 Z M 13.964844 22.800781 C 13.777344 22.949219 13.105469 23.199219 12 23.199219 C 10.894531 23.199219 10.222656 22.949219 10.035156 22.800781 C 10.222656 22.652344 10.894531 22.398438 12 22.398438 C 13.105469 22.398438 13.777344 22.652344 13.964844 22.800781 Z M 21.601562 12.398438 L 19.597656 12.398438 L 19.5625 12.761719 C 19.203125 16.34375 16.34375 19.203125 12.761719 19.558594 L 12.398438 19.597656 L 12.398438 21.601562 L 11.601562 21.601562 L 11.601562 19.597656 L 11.238281 19.5625 C 7.65625 19.203125 4.796875 16.34375 4.4375 12.761719 L 4.402344 12.398438 L 2.398438 12.398438 L 2.398438 11.601562 L 4.402344 11.601562 L 4.4375 11.238281 C 4.796875 7.65625 7.65625 4.796875 11.238281 4.4375 L 11.601562 4.402344 L 11.601562 2.398438 L 12.398438 2.398438 L 12.398438 4.402344 L 12.761719 4.4375 C 16.34375 4.796875 19.203125 7.65625 19.5625 11.238281 L 19.597656 11.601562 L 21.601562 11.601562 Z M 22.800781 13.964844 C 22.652344 13.777344 22.398438 13.105469 22.398438 12 C 22.398438 10.894531 22.652344 10.222656 22.800781 10.035156 C 22.949219 10.222656 23.199219 10.894531 23.199219 12 C 23.199219 13.105469 22.949219 13.777344 22.800781 13.964844 Z M 22.800781 13.964844"/>
</svg>
