<svg xmlns="http://www.w3.org/2000/svg" width="32" height="32" viewBox="0 0 24 24">
    <path d="M22.496.25H1.504C.676.25 0 .926 0 1.754v20.492c0 .828.676 1.504 1.504 1.504h20.992c.828 0 1.504-.676 1.504-1.504V1.754C24 .926 23.324.25 22.496.25zM23 22.246a.505.505 0 0 1-.504.504H1.504A.505.505 0 0 1 1 22.246V1.754c0-.277.227-.504.504-.504h20.992c.277 0 .504.227.504.504zm0 0"/>
    <path d="M11.5 2.25H2v19.5h20V2.25zM7.957 7.5L11.5 3.957v7.086zm2.836 4.25H3.707L7.25 8.207zm-.047 1L7.25 16.063 3.754 12.75zm.754.66v6.68l-3.523-3.34zm1 0l3.523 3.34-3.523 3.34zm.754-.66h6.992l-3.496 3.313zm-.047-1l3.543-3.543 3.543 3.543zm-.707-.707V3.957L16.043 7.5zm-5.25-4.25L3.707 3.25h7.086zm-.707.707L3 11.043V3.957zm-.02 9.25L3 20.09v-6.68zm.727.688l3.496 3.312H3.754zm9.5 0l3.496 3.312h-6.992zm.727-.688L21 13.41v6.68zm-.02-9.25L21 3.957v7.086zm-.707-.707L13.207 3.25h7.086zm0 0"/>
</svg>
