<svg xmlns="http://www.w3.org/2000/svg" width="32" height="32" viewBox="0 0 24 24">
    <path d="M 12.070312 11.730469 C 10.070312 11.730469 8.449219 13.355469 8.449219 15.351562 C 8.449219 17.347656 10.070312 18.972656 12.070312 18.972656 C 14.066406 18.972656 15.691406 17.347656 15.691406 15.351562 C 15.691406 13.355469 14.066406 11.730469 12.070312 11.730469 Z M 12.070312 18.167969 C 10.515625 18.167969 9.253906 16.902344 9.253906 15.351562 C 9.253906 13.796875 10.515625 12.535156 12.070312 12.535156 C 13.621094 12.535156 14.886719 13.796875 14.886719 15.351562 C 14.886719 16.902344 13.621094 18.167969 12.070312 18.167969 Z M 12.070312 18.167969"/>
    <path d="M 23.648438 11.078125 C 23.230469 10.660156 22.5625 10.605469 22.089844 10.953125 C 20.507812 12.117188 18.257812 11.949219 16.867188 10.554688 C 15.472656 9.160156 15.300781 6.914062 16.46875 5.328125 C 16.8125 4.859375 16.757812 4.1875 16.339844 3.773438 C 16.09375 3.523438 15.75 3.398438 15.394531 3.421875 C 15.039062 3.449219 14.714844 3.632812 14.503906 3.921875 C 13.101562 5.847656 12.929688 8.378906 13.902344 10.457031 C 13.328125 10.242188 12.714844 10.121094 12.070312 10.121094 C 11.359375 10.121094 10.683594 10.261719 10.066406 10.519531 C 11.074219 8.429688 10.914062 5.867188 9.496094 3.921875 C 9.285156 3.632812 8.960938 3.449219 8.605469 3.421875 C 8.253906 3.398438 7.90625 3.523438 7.660156 3.773438 C 7.242188 4.1875 7.1875 4.859375 7.53125 5.328125 C 8.699219 6.914062 8.527344 9.160156 7.132812 10.554688 C 5.742188 11.949219 3.492188 12.117188 1.910156 10.953125 C 1.4375 10.605469 0.769531 10.660156 0.351562 11.078125 C 0.101562 11.328125 -0.0234375 11.671875 0.00390625 12.023438 C 0.03125 12.378906 0.214844 12.703125 0.503906 12.914062 C 1.625 13.730469 2.953125 14.132812 4.277344 14.132812 C 5.289062 14.132812 6.292969 13.894531 7.207031 13.4375 C 6.972656 14.03125 6.839844 14.675781 6.839844 15.351562 C 6.839844 18.234375 9.183594 20.582031 12.070312 20.582031 C 14.953125 20.582031 17.296875 18.234375 17.296875 15.351562 C 17.296875 14.703125 17.175781 14.085938 16.957031 13.511719 C 17.828125 13.917969 18.773438 14.132812 19.722656 14.132812 C 21.046875 14.132812 22.375 13.730469 23.496094 12.914062 C 23.785156 12.703125 23.96875 12.378906 23.996094 12.023438 C 24.023438 11.671875 23.898438 11.328125 23.648438 11.078125 Z M 0.976562 12.265625 C 0.878906 12.191406 0.816406 12.082031 0.804688 11.960938 C 0.796875 11.84375 0.835938 11.730469 0.921875 11.644531 C 1 11.566406 1.105469 11.527344 1.207031 11.527344 C 1.285156 11.527344 1.367188 11.550781 1.429688 11.601562 C 3.335938 13 6.03125 12.796875 7.703125 11.121094 C 9.375 9.449219 9.582031 6.753906 8.179688 4.851562 C 8.070312 4.699219 8.089844 4.480469 8.226562 4.339844 C 8.3125 4.257812 8.425781 4.214844 8.542969 4.226562 C 8.664062 4.234375 8.773438 4.296875 8.84375 4.394531 C 10.460938 6.613281 10.214844 9.75 8.273438 11.691406 C 6.332031 13.632812 3.195312 13.878906 0.976562 12.265625 Z M 12.070312 19.777344 C 9.628906 19.777344 7.644531 17.789062 7.644531 15.351562 C 7.644531 12.910156 9.628906 10.925781 12.070312 10.925781 C 13.109375 10.925781 14.066406 11.289062 14.820312 11.890625 C 14.929688 12.019531 15.039062 12.140625 15.160156 12.261719 C 15.273438 12.375 15.398438 12.480469 15.519531 12.585938 C 16.128906 13.34375 16.496094 14.304688 16.496094 15.351562 C 16.496094 17.789062 14.507812 19.777344 12.070312 19.777344 Z M 23.023438 12.265625 C 20.949219 13.777344 18.070312 13.65625 16.117188 12.046875 C 15.894531 11.773438 15.644531 11.523438 15.371094 11.300781 C 13.761719 9.347656 13.644531 6.46875 15.15625 4.394531 C 15.226562 4.296875 15.339844 4.234375 15.460938 4.226562 C 15.46875 4.222656 15.480469 4.222656 15.492188 4.222656 C 15.597656 4.222656 15.695312 4.265625 15.773438 4.339844 C 15.910156 4.480469 15.929688 4.699219 15.820312 4.851562 C 14.417969 6.753906 14.625 9.449219 16.296875 11.121094 C 17.96875 12.796875 20.664062 13 22.570312 11.601562 C 22.722656 11.488281 22.941406 11.507812 23.078125 11.644531 C 23.164062 11.730469 23.203125 11.84375 23.195312 11.960938 C 23.183594 12.082031 23.121094 12.191406 23.023438 12.265625 Z M 23.023438 12.265625"/>
</svg>
