<svg xmlns="http://www.w3.org/2000/svg" width="32" height="32" viewBox="0 0 24 24">
    <path d="M11.602 16.2a.401.401 0 1 1 0 0zm0 0M10.8 17c0 .223-.179.398-.402.398a.398.398 0 1 1 0-.796c.223 0 .403.175.403.398zm0 0M11.602 17.8a.401.401 0 1 1-.802-.004.401.401 0 0 1 .802.005zm0 0M10.8 18.602a.401.401 0 1 1-.801-.005.401.401 0 0 1 .802.005zm0 0M10 19.398a.401.401 0 1 1-.802.003.401.401 0 0 1 .802-.003zm0 0M18 11c.223 0 .398-.18.398-.398V9.8a.398.398 0 1 0-.796 0v.8c0 .22.175.399.398.399zm0 0M18 13c.223 0 .398-.18.398-.398V11.8a.398.398 0 1 0-.796 0v.8c0 .22.175.399.398.399zm0 0M18 9c.223 0 .398-.18.398-.398V7.8a.398.398 0 1 0-.796 0v.8c0 .22.175.399.398.399zm0 0M12.398 12.598c.223 0 .403-.18.403-.399v-.8a.401.401 0 0 0-.8 0l-.001.8a.4.4 0 0 0 .398.399zm0 0M12.895 13.273a.4.4 0 0 0-.766.227c.086.293.215.57.379.828a.403.403 0 0 0 .55.121.4.4 0 0 0 .122-.554 2.42 2.42 0 0 1-.285-.622zm0 0M14.41 15.688a.4.4 0 0 0 .383-.29.4.4 0 0 0-.27-.496 2.295 2.295 0 0 1-.62-.285.404.404 0 0 0-.555.121.398.398 0 0 0 .12.551c.259.168.536.293.829.383.039.008.074.015.113.015zm0 0M12.398 8.598c.223 0 .403-.18.403-.399v-.8a.401.401 0 0 0-.8 0l-.001.8a.4.4 0 0 0 .398.399zm0 0M15.598 15.773l.054-.003a3.37 3.37 0 0 0 .875-.258.402.402 0 0 0-.332-.73 2.36 2.36 0 0 1-.656.195.398.398 0 0 0-.336.453.4.4 0 0 0 .395.343zm0 0M17.313 14.832a.404.404 0 0 0 .304-.137c.2-.23.367-.488.492-.765a.401.401 0 0 0-.195-.532.403.403 0 0 0-.531.2 2.367 2.367 0 0 1-.371.574.4.4 0 0 0 .039.562.404.404 0 0 0 .262.098zm0 0M12.398 10.598c.223 0 .403-.18.403-.399v-.8a.401.401 0 0 0-.8 0l-.001.8a.4.4 0 0 0 .398.399zm0 0M16.398 21h-.796a.401.401 0 1 0 0 .8h.796a.401.401 0 0 0 0-.8zm0 0"/>
    <path d="M24 21.867a.71.71 0 0 0-.39-.637.702.702 0 0 0-.176-.726.71.71 0 0 0-.727-.176.71.71 0 0 0-.637-.39.712.712 0 0 0-.64.39.66.66 0 0 0-.348-.02l-.766-.761c.012-.04.024-.082.032-.125.007-.031.02-.063.023-.094.02-.09.027-.183.027-.281V1.223c0-.36-.183-.68-.492-.864a.988.988 0 0 0-.996-.011l-2.137 1.187a1.594 1.594 0 0 0-1.078-1.25c-.05-.015-.101-.035-.152-.047-.035-.008-.07-.008-.105-.015-.051-.008-.102-.016-.153-.02h-.043C15.227.203 15.215.2 15.2.2c-.039 0-.074.008-.113.012a1.217 1.217 0 0 0-.172.02c-.047.007-.09.019-.137.03-.058.02-.117.032-.172.055-.043.02-.082.04-.12.059-.051.027-.106.055-.157.086-.043.031-.082.062-.121.094-.035.03-.074.054-.11.086l-.019.02c-.012.015-.023.03-.039.046-.05.05-.098.11-.14.168-.02.027-.036.055-.051.082-.036.05-.063.106-.09.164a1.605 1.605 0 0 0-.11.305c-.003.02-.011.043-.015.062 0 .004-.004.008-.004.008L11.934.438A.987.987 0 0 0 10.918.41a.993.993 0 0 0-.52.88v10.843c0 .676-.12 1.34-.359 1.976a26.301 26.301 0 0 1-.789 1.91c-.008.016-.016.028-.023.047C8.367 17.852 7.293 19 5.199 19H1.133C.527 19 0 19.54 0 20.156v.102c0 .617.414 1.16 1.004 1.328l4.074 1.156c.574.172 1.2.258 1.867.258 2.864 0 4.657-.941 5.38-1.824.218-.274.527-.457.874-.535V23h4.114c.578 0 1.101-.367 1.3-.91l.54-1.477c.003-.015.003-.027.011-.039l.168-.058a1.273 1.273 0 0 0 .207-.086 1.381 1.381 0 0 0 .219-.133c.023-.016.047-.04.07-.059.012-.008.02-.011.027-.02l.657.65a.68.68 0 0 0 .02.362.707.707 0 0 0-.395.637c0 .278.152.52.394.64a.7.7 0 0 0 .172.727.706.706 0 0 0 .73.172c.118.242.36.395.637.395a.707.707 0 0 0 .637-.395.7.7 0 0 0 .727-.172.702.702 0 0 0 .175-.726.712.712 0 0 0 .391-.64zm-4.422-2.652c0 .012-.008.027-.012.039-.011.043-.027.082-.043.121-.007.012-.011.02-.02.031a.825.825 0 0 1-.089.133.683.683 0 0 1-.125.113l-1.64-1.636a.4.4 0 0 1 .566-.567l1.387 1.387v.21a.602.602 0 0 1-.024.169zM16.801 5.398v-.796h2.8v.796zM16 6.2v6.403c0 .441-.36.796-.8.796a.799.799 0 0 1-.802-.796V1.8a.81.81 0 0 1 .118-.41l.023-.04c.016-.023.035-.042.05-.062.02-.02.032-.043.052-.059.02-.02.043-.035.062-.05.02-.02.04-.035.059-.047a.388.388 0 0 1 .078-.043.466.466 0 0 1 .062-.031c.028-.012.055-.016.082-.024.024-.008.047-.015.075-.02.027-.003.05-.007.078-.007.027-.004.054-.004.086-.004.023 0 .047.004.074.008.031.004.062.004.09.011a.056.056 0 0 0 .023.008c.336.102.59.442.59.836zm-4.8-.8v-.797h2.402v.796zm8.1-4.352a.191.191 0 0 1 .2.004c.031.015.102.07.102.172V3.8H16.8V2.437zm-8.1.242c0-.11.073-.16.105-.18a.203.203 0 0 1 .207.008l2.09 1.305V3.8h-2.403zm.503 19.379c-.578.707-2.172 1.531-4.758 1.531-.59 0-1.136-.074-1.64-.226l-4.082-1.157a.581.581 0 0 1-.422-.558v-.102c0-.176.168-.355.332-.355h4.066c1.016 0 1.832-.254 2.5-.66a.398.398 0 1 0 .7.258A.398.398 0 0 0 8 19c-.035 0-.066.012-.098.02.18-.122.344-.258.5-.403.012.211.184.383.399.383a.4.4 0 0 0 .398-.398.396.396 0 0 0-.39-.399c.148-.168.289-.344.418-.527a.325.325 0 0 0-.028.125.401.401 0 1 0 .403-.403.4.4 0 0 0-.258.102c.355-.543.648-1.133.902-1.73a.402.402 0 0 0 .555-.371.398.398 0 0 0-.258-.372c.086-.214.168-.425.246-.636a6.38 6.38 0 0 0 .41-2.258V6.199H12a.4.4 0 0 0 .8 0h.802v6.403a1.6 1.6 0 0 0 3.199 0V6.199h.8v.403a.398.398 0 1 0 .797 0v-.403h1.204v11.504l-.82-.82a1.202 1.202 0 0 0-1.7 0 1.198 1.198 0 0 0 0 1.695l1.223 1.223h-4.73c-.74 0-1.419.316-1.872.867zm5.61 1.531H14v-.398h.398a.401.401 0 0 0 0-.8L14 20.999v-.398h4.305l-.149.398h-.554a.401.401 0 1 0 0 .8h.265l-.008.016a.582.582 0 0 1-.547.383zm5.523-.012a.692.692 0 0 0-.04.407.737.737 0 0 0-.41.043.693.693 0 0 0-.316.261.723.723 0 0 0-.726-.304.727.727 0 0 0-.305-.727.693.693 0 0 0 .262-.316.737.737 0 0 0 .043-.41.703.703 0 0 0 .727-.3.702.702 0 0 0 .727.3.702.702 0 0 0 .3.726.723.723 0 0 0-.262.32zm0 0"/>
</svg>
