<svg xmlns="http://www.w3.org/2000/svg" width="32" height="32" viewBox="0 0 24 24">
    <path d="M10.2 7.598A.401.401 0 0 0 9.8 8v8.8a.4.4 0 0 0 .802 0V8a.402.402 0 0 0-.403-.402zm0 0M11.8 17.602a.398.398 0 0 0-.402.398v3.2a.401.401 0 0 0 .8 0L12.2 18a.398.398 0 0 0-.398-.398zm0 0M11.8 3.598a.402.402 0 0 0-.402.402v11.2a.401.401 0 0 0 .8 0L12.2 4a.401.401 0 0 0-.398-.402zm0 0M7.832 16.398a.398.398 0 0 0 0-.797C6.402 15.602 5 13.767 5 12.399a.4.4 0 0 0-.8 0c0 1.766 1.71 4 3.632 4zm0 0"/>
    <path d="M8.273 17.2c-2.55 0-4.875-2.477-4.875-5.2 0-.328.274-.785.403-.8a.4.4 0 0 0 0-.802c-.723 0-1.2.965-1.2 1.602 0 3.195 2.653 6 5.672 6a.401.401 0 1 0 0-.8zm0 0M11 1.598c-.66 0-1.2.539-1.2 1.203v3.597a.401.401 0 1 0 .802 0V2.801c0-.223.18-.403.398-.403.223 0 .398-.18.398-.398A.398.398 0 0 0 11 1.598zm0 0M10.2 18.398a.401.401 0 0 0-.4.403v3.597a.401.401 0 1 0 .802 0v-3.597a.402.402 0 0 0-.403-.403zm0 0M15.398 10c1.891 0 4-1.54 4-3.602V4.801c0-.223.18-.403.403-.403a.4.4 0 0 0 0-.8A1.2 1.2 0 0 0 18.6 4.8v1.597c0 1.579-1.722 2.801-3.203 2.801a.4.4 0 0 0 0 .801zm0 0"/>
    <path d="M13.875 11.598h1.05c3.352 0 6.075-2.692 6.075-6v-.399a.4.4 0 0 0-.8 0v.399c0 2.867-2.364 5.203-5.274 5.203h-1.051a.4.4 0 0 0-.398.398c0 .223.175.399.398.399zm0 0"/>
    <path d="M23 23.2h-8.633l.516-.516a.4.4 0 0 0-.567-.567l-.515.516v-.469l1.082-1.082a.4.4 0 0 0-.567-.566l-.515.52v-.47l1.082-1.082a.4.4 0 0 0-.567-.566l-.515.516v-.47l1.082-1.081a.4.4 0 0 0-.567-.567l-.515.52v-.469l1.082-1.086a.396.396 0 0 0 0-.562.394.394 0 0 0-.567 0l-.515.515v-.468l1.082-1.082a.4.4 0 0 0-.567-.567l-.515.516V14c0-.441.36-.8.8-.8 4.301 0 7.891-3.5 7.997-7.802.027-1.144-.45-2.207-1.278-2.843-.8-.614-1.699-.723-2.535-.313C17.75 2.754 17 3.996 17 5.2a2.399 2.399 0 0 1-2.398 2.399h-.079a.72.72 0 0 1-.722-.72v-.714l1.082-1.082a.4.4 0 0 0-.567-.566l-.515.52v-.47l1.082-1.086a.396.396 0 0 0 0-.562.4.4 0 0 0-.567 0l-.515.516v-.551c0-.102-.008-.203-.016-.301l.7-.7a.4.4 0 0 0-.567-.566l-.371.371c-.39-.886-1.2-1.539-2.18-1.664a2.816 2.816 0 0 0-2.215.672A2.81 2.81 0 0 0 8.2 2.801v2.633l-.515-.516a.4.4 0 0 0-.567 0 .396.396 0 0 0 0 .562L8.2 6.566v.47l-.515-.52a.4.4 0 0 0-.567.566L8.2 8.164v.469l-.515-.516a.4.4 0 0 0-.567.567L8.2 9.766v.468l-.515-.52a.4.4 0 0 0-.567.567L8.2 11.363v.473l-.515-.52a.4.4 0 0 0-.567.567L8.2 12.965v1.293a2.383 2.383 0 0 1-1.597-2.274c.003-.82-.235-1.539-.696-2.066-1.164-1.352-2.312-1.191-2.89-.973C1.883 9.363 1 10.707 1 12a7.962 7.962 0 0 0 6.695 7.883c.293.047.504.289.504.566v.586l-.515-.52a.4.4 0 0 0-.567.567L8.2 22.164v.469l-.515-.516a.4.4 0 0 0-.567.567l.516.515H1a.398.398 0 0 0-.398.403c0 .218.175.398.398.398h22c.223 0 .398-.18.398-.398a.398.398 0 0 0-.398-.403zM9 20.45c0-.673-.492-1.243-1.176-1.356A7.164 7.164 0 0 1 1.801 12c0-.965.668-2 1.492-2.309.676-.25 1.371.008 2.008.75.418.48.5 1.102.5 1.54a3.183 3.183 0 0 0 2.457 3.128.61.61 0 0 0 .742-.594V2.802c0-.574.25-1.121.68-1.504.437-.383 1-.555 1.586-.48C12.254.94 13 1.831 13 2.882v3.996c0 .836.684 1.52 1.523 1.52h.079c1.761 0 3.199-1.434 3.199-3.2 0-.898.574-1.863 1.336-2.238.558-.273 1.144-.195 1.695.23.629.48.988 1.297.965 2.188-.094 3.871-3.324 7.02-7.195 7.02-.883 0-1.602.718-1.602 1.601v9.2H9zm0 0"/>
</svg>
