<svg xmlns="http://www.w3.org/2000/svg" width="32" height="32" viewBox="0 0 24 24">
    <path d="M18.855 8.57a.428.428 0 1 1-.855.004.428.428 0 0 1 .855-.004zm0 0M18 7.715a.43.43 0 0 1-.43.43.43.43 0 0 1 0-.86c.239 0 .43.192.43.43zm0 0M18 9.43a.428.428 0 1 1-.855-.004.428.428 0 0 1 .855.004zm0 0M18.855 10.285a.428.428 0 1 1-.855 0 .43.43 0 0 1 .43-.43.43.43 0 0 1 .425.43zm0 0M18.855 12A.428.428 0 1 1 18 12a.428.428 0 1 1 .855 0zm0 0M18 11.145a.428.428 0 1 1-.855-.004.428.428 0 0 1 .855.004zm0 0M18 12.855a.428.428 0 1 1-.857.003.428.428 0 0 1 .857-.003zm0 0M18.855 13.715a.43.43 0 0 1-.425.43.43.43 0 0 1-.43-.43.428.428 0 1 1 .855 0zm0 0M18.855 15.43a.427.427 0 1 1-.853-.002.427.427 0 0 1 .853.002zm0 0M18 14.57a.428.428 0 1 1-.857.003.428.428 0 0 1 .857-.003zm0 0M18 16.285a.428.428 0 1 1-.855 0 .43.43 0 0 1 .425-.43.43.43 0 0 1 .43.43zm0 0M18.855 17.145a.427.427 0 1 1-.853-.002.427.427 0 0 1 .853.002zm0 0M18.855 18.855a.428.428 0 1 1-.855.005.428.428 0 0 1 .855-.005zm0 0M18 18a.428.428 0 1 1-.855 0A.428.428 0 1 1 18 18zm0 0M18 19.715a.43.43 0 0 1-.43.43.43.43 0 0 1 0-.86c.239 0 .43.192.43.43zm0 0M18.855 20.57a.428.428 0 1 1-.855.004.428.428 0 0 1 .855-.004zm0 0M18.855 22.285a.428.428 0 1 1-.855 0 .43.43 0 0 1 .43-.43.43.43 0 0 1 .425.43zm0 0M18 21.43a.428.428 0 1 1-.855-.004.428.428 0 0 1 .855.004zm0 0"/>
    <path d="M18.371 6H15.43V4.715h-1.285V2.57H15V0H9v1.965L6.555 4.41c-.04.04-.07.09-.094.14a.47.47 0 0 0-.031.165V6h-.801c-.738 0-1.344.602-1.344 1.344v15.312c0 .742.606 1.344 1.344 1.344H18.37c.738 0 1.344-.602 1.344-1.344V7.344c0-.742-.606-1.344-1.344-1.344zm-3.8-.43V6H9.43v-.43zm-1.286-.855h-2.57V2.57h2.57zM9.855.855h4.29v.86h-4.29zm-2.57 4.036l2.32-2.32h.25v2.144H8.57V6H7.285zm11.57 3.68v14.085c0 .27-.214.489-.484.489H18a.428.428 0 1 0-.855 0H5.629a.485.485 0 0 1-.484-.489V7.344c0-.27.214-.489.484-.489H18c0 .239.191.43.43.43a.42.42 0 0 0 .347-.191.462.462 0 0 1 .078.25zm0 0"/>
</svg>
