<svg xmlns="http://www.w3.org/2000/svg" width="32" height="32" viewBox="0 0 24 24">
    <path d="M23.156 10.621l-2.398-4.8a.371.371 0 0 0-.059-.079c-.008-.008-.012-.02-.02-.027a.385.385 0 0 0-.116-.078c-.012-.008-.028-.008-.04-.012a.335.335 0 0 0-.105-.02c-.008-.003-.012-.003-.02-.003H17.2V4.8a.408.408 0 0 0-.047-.192L14.75.207c-.012-.02-.031-.039-.047-.059-.008-.011-.015-.023-.027-.035a.398.398 0 0 0-.117-.082c-.008 0-.016 0-.028-.004a.285.285 0 0 0-.117-.023c-.004 0-.008-.004-.016-.004H9.602c-.008 0-.012.004-.016.004a.318.318 0 0 0-.121.023c-.008.004-.016.004-.024.004a.398.398 0 0 0-.117.082l-.031.035c-.016.02-.031.04-.043.059L6.848 4.609a.408.408 0 0 0-.047.192v.8H3.6c-.007 0-.011 0-.019.004a.339.339 0 0 0-.11.02c-.011.004-.023.004-.034.012a.385.385 0 0 0-.118.078c-.007.008-.011.015-.015.023-.024.028-.047.051-.063.082L.844 10.621a.36.36 0 0 0-.043.18V23.613c.004.035.008.07.02.102a.117.117 0 0 0 .015.039.19.19 0 0 0 .016.043.104.104 0 0 0 .02.023.14.14 0 0 0 .026.04c.016.019.036.035.055.05.012.008.02.02.031.027a.48.48 0 0 0 .102.047h.008c.035.012.07.016.105.016h9.602c.035 0 .07-.004.105-.016h.004a.51.51 0 0 0 .106-.047c.011-.007.02-.019.03-.027.02-.015.04-.031.056-.05a.14.14 0 0 0 .027-.04.104.104 0 0 0 .02-.023.14.14 0 0 0 .015-.043.117.117 0 0 0 .016-.04c.011-.03.015-.066.02-.1V18h1.6v5.613c.005.035.009.07.02.102a.117.117 0 0 0 .016.039.19.19 0 0 0 .016.043.104.104 0 0 0 .02.023.14.14 0 0 0 .026.04c.016.019.036.035.055.05.012.008.02.02.031.027a.48.48 0 0 0 .102.047h.008c.035.012.07.016.105.016h9.602c.035 0 .07-.004.105-.016h.004a.51.51 0 0 0 .106-.047c.011-.007.02-.019.03-.027.02-.015.04-.031.056-.05a.14.14 0 0 0 .027-.04.104.104 0 0 0 .02-.023c.007-.012.011-.027.015-.043a.117.117 0 0 0 .016-.04c.011-.03.015-.066.02-.1V10.8a.36.36 0 0 0-.044-.18zm-.758.578v10.957l-1.597-2.668V14h.234l.684.684a.396.396 0 0 0 .68-.286.396.396 0 0 0-.118-.28l-.68-.684v-1.27l.68-.68a.405.405 0 0 0 .117-.285.396.396 0 0 0-.117-.281.396.396 0 0 0-.562 0l-.684.684h-.234V7.695l1.597 3.2zM20 13.2v-.8h.8v.8zm0-6.8v5.203h-.234l-.684-.684a.4.4 0 0 0-.566.566l.683.68v1.27l-.683.683a.4.4 0 0 0 .566.567l.684-.684H20v5.2h-4V18h.8c.036 0 .071-.004.106-.016h.004c.012-.004.02-.007.027-.011.012-.004.024-.008.036-.016.011-.004.027-.012.043-.02.007-.007.02-.015.03-.027a.217.217 0 0 0 .032-.023c0-.004.004-.004.004-.004.008-.008.012-.016.02-.024a.215.215 0 0 0 .027-.035l.02-.027.011-.027c.004-.008.008-.016.012-.028.004-.008.004-.015.008-.027a.291.291 0 0 0 .015-.102c.004-.004.004-.008.004-.011V6.398zm-9.2 10.8H7.907L9.828 14h.973v.234l-.684.684a.4.4 0 0 0 .567.566l.683-.683h1.266l.683.683a.399.399 0 0 0 .567 0 .4.4 0 0 0 0-.566l-.684-.684V14h.973l1.922 3.2zm1.598-3.597V14h-.796v-.8h.796zm4-7.602v10.156l-1.597-2.668V1.968l1.597 2.934zM14 12v1.2h-.8v-.235l.683-.684a.396.396 0 0 0 0-.562.4.4 0 0 0-.567 0l-.683.68h-1.266l-.683-.68A.4.4 0 0 0 10 12c0 .102.04.203.117.281l.684.684v.234H10V.801h4zM7.602 4.902L9.199 1.97v11.52l-1.597 2.667zm-.801 12.7v.011c.004.035.008.07.02.102 0 .012.003.02.007.027.004.012.008.02.012.028l.012.027c.003.008.011.015.02.027a.215.215 0 0 0 .026.035c.004.008.012.016.016.024.004 0 .004 0 .008.004.008.008.02.015.031.023.012.012.02.02.031.027.016.008.028.016.043.02a.139.139 0 0 0 .035.016l.024.011h.008c.035.012.07.016.105.016H8v1.2H4V6.397h2.8zm-5.2-6.707l1.598-3.2v11.793l-1.597 2.668zm.305 12.304L3.828 20h4.344l1.922 3.2zm8.492-1.043l-1.597-2.668V18h1.597zM15.2 18v1.488l-1.597 2.668V18zm-1.293 5.2l1.922-3.2h4.344l1.922 3.2zm0 0"/>
</svg>
