<svg xmlns="http://www.w3.org/2000/svg" width="32" height="32" viewBox="0 0 24 24">
    <path d="M6.605469 5.195312C6.605469 5.417969 6.425781 5.59375 6.203125 5.59375 5.984375 5.59375 5.804688 5.417969 5.804688 5.195312 5.804688 4.976562 5.984375 4.796875 6.203125 4.796875 6.425781 4.796875 6.605469 4.976562 6.605469 5.195312zM8.203125 5.195312C8.203125 5.417969 8.023438 5.59375 7.804688 5.59375 7.582031 5.59375 7.402344 5.417969 7.402344 5.195312 7.402344 4.976562 7.582031 4.796875 7.804688 4.796875 8.023438 4.796875 8.203125 4.976562 8.203125 5.195312zM9.800781 5.195312C9.800781 5.417969 9.621094 5.59375 9.402344 5.59375 9.179688 5.59375 9.003906 5.417969 9.003906 5.195312 9.003906 4.976562 9.179688 4.796875 9.402344 4.796875 9.621094 4.796875 9.800781 4.976562 9.800781 5.195312zM11.398438 5.195312C11.398438 5.417969 11.222656 5.59375 11 5.59375 10.78125 5.59375 10.601562 5.417969 10.601562 5.195312 10.601562 4.976562 10.78125 4.796875 11 4.796875 11.222656 4.796875 11.398438 4.976562 11.398438 5.195312zM13 5.195312C13 5.417969 12.820312 5.59375 12.597656 5.59375 12.378906 5.59375 12.199219 5.417969 12.199219 5.195312 12.199219 4.976562 12.378906 4.796875 12.597656 4.796875 12.820312 4.796875 13 4.976562 13 5.195312zM14.597656 5.195312C14.597656 5.417969 14.417969 5.59375 14.199219 5.59375 13.976562 5.59375 13.796875 5.417969 13.796875 5.195312 13.796875 4.976562 13.976562 4.796875 14.199219 4.796875 14.417969 4.796875 14.597656 4.976562 14.597656 5.195312zM16.195312 5.195312C16.195312 5.417969 16.015625 5.59375 15.796875 5.59375 15.574219 5.59375 15.398438 5.417969 15.398438 5.195312 15.398438 4.976562 15.574219 4.796875 15.796875 4.796875 16.015625 4.796875 16.195312 4.976562 16.195312 5.195312zM17.792969 5.195312C17.792969 5.417969 17.617188 5.59375 17.394531 5.59375 17.175781 5.59375 16.996094 5.417969 16.996094 5.195312 16.996094 4.976562 17.175781 4.796875 17.394531 4.796875 17.617188 4.796875 17.792969 4.976562 17.792969 5.195312zM14.480469 16.902344L13.679688 16.101562C13.523438 15.945312 13.273438 15.945312 13.117188 16.101562 12.960938 16.257812 12.960938 16.511719 13.117188 16.667969L13.234375 16.785156 10.367188 16.785156 10.484375 16.667969C10.640625 16.511719 10.640625 16.257812 10.484375 16.101562 10.328125 15.945312 10.074219 15.945312 9.917969 16.101562L9.121094 16.902344C9.121094 16.902344 9.121094 16.902344 9.117188 16.902344L8.71875 17.300781C8.5625 17.457031 8.5625 17.710938 8.71875 17.867188 8.796875 17.945312 8.898438 17.984375 9.003906 17.984375 9.105469 17.984375 9.207031 17.945312 9.285156 17.867188L9.566406 17.585938 14.03125 17.585938 14.316406 17.867188C14.394531 17.945312 14.496094 17.984375 14.597656 17.984375 14.699219 17.984375 14.800781 17.945312 14.878906 17.867188 15.035156 17.710938 15.035156 17.457031 14.878906 17.300781zM14.480469 16.902344"/>
    <path d="M12.082031 18.101562C11.925781 17.945312 11.671875 17.945312 11.515625 18.101562L10.71875 18.902344C10.5625 19.058594 10.5625 19.308594 10.71875 19.464844 10.796875 19.542969 10.898438 19.582031 11 19.582031 11.101562 19.582031 11.207031 19.542969 11.28125 19.464844L11.800781 18.949219 12.316406 19.464844C12.394531 19.542969 12.496094 19.582031 12.597656 19.582031 12.703125 19.582031 12.804688 19.542969 12.882812 19.464844 13.039062 19.308594 13.039062 19.058594 12.882812 18.902344zM16.246094 11.980469C16.402344 11.980469 16.550781 11.890625 16.613281 11.734375 16.699219 11.53125 16.605469 11.296875 16.398438 11.214844L14.894531 10.585938 16.300781 10.386719C16.519531 10.355469 16.671875 10.152344 16.640625 9.933594 16.609375 9.71875 16.410156 9.5625 16.191406 9.59375L13.339844 9.996094 13.027344 10.046875 12.980469 10.648438 16.09375 11.949219C16.140625 11.972656 16.195312 11.980469 16.246094 11.980469zM11.03125 10.667969L10.964844 10.039062 7.8125 9.59375C7.59375 9.5625 7.390625 9.71875 7.359375 9.9375 7.332031 10.15625 7.484375 10.355469 7.703125 10.386719L9.105469 10.585938 7.601562 11.214844C7.398438 11.296875 7.304688 11.53125 7.386719 11.734375 7.453125 11.890625 7.601562 11.980469 7.757812 11.980469 7.808594 11.980469 7.859375 11.972656 7.910156 11.949219L10.726562 10.773438zM11.03125 10.667969"/>
    <path d="M 20.992188 15.464844 C 21.425781 14.382812 21.792969 12.792969 21.792969 10.492188 L 21.792969 10.351562 L 21.28125 9.710938 C 21.074219 8.289062 20.566406 7.117188 19.761719 6.226562 C 19.75 6.054688 19.734375 5.882812 19.710938 5.710938 C 19.703125 5.675781 19.691406 5.636719 19.6875 5.597656 C 19.65625 5.417969 19.625 5.242188 19.578125 5.066406 C 19.574219 5.042969 19.5625 5.019531 19.558594 4.992188 C 19.507812 4.804688 19.449219 4.617188 19.386719 4.433594 C 19.382812 4.429688 19.378906 4.421875 19.378906 4.417969 C 19.304688 4.214844 19.21875 4.015625 19.128906 3.824219 L 19.019531 3.597656 L 19.007812 3.597656 C 17.882812 1.453125 15.640625 0 13.070312 0 L 10.929688 0 C 8.355469 0 6.117188 1.453125 4.988281 3.597656 L 4.976562 3.597656 L 4.871094 3.824219 C 4.777344 4.015625 4.695312 4.214844 4.621094 4.417969 C 4.617188 4.421875 4.617188 4.429688 4.613281 4.4375 C 4.546875 4.617188 4.492188 4.804688 4.441406 4.992188 C 4.433594 5.019531 4.425781 5.042969 4.417969 5.066406 C 4.375 5.242188 4.34375 5.417969 4.3125 5.597656 C 4.304688 5.636719 4.296875 5.675781 4.289062 5.714844 C 4.265625 5.882812 4.25 6.058594 4.238281 6.230469 C 1.957031 8.761719 2.664062 12.789062 2.933594 14.320312 C 2.96875 14.511719 3.007812 14.730469 3.007812 14.789062 L 3.007812 20.742188 C 2.988281 21.941406 2.761719 22.953125 2.464844 23.105469 C 2.269531 23.207031 2.167969 23.425781 2.222656 23.640625 C 2.277344 23.851562 2.464844 24 2.683594 24 C 2.6875 24 2.6875 24 2.691406 24 C 3.480469 23.988281 5.972656 23.703125 6.183594 20.78125 L 6.203125 20.78125 L 6.203125 19.566406 C 7.171875 20.480469 8.398438 21.050781 9.761719 21.183594 C 10.210938 21.226562 10.898438 21.109375 11.28125 20.839844 C 11.617188 20.601562 12.058594 20.570312 12.425781 20.765625 L 12.832031 20.980469 C 13.105469 21.125 13.421875 21.203125 13.71875 21.203125 C 13.753906 21.203125 13.789062 21.203125 13.824219 21.203125 C 14.871094 21.132812 15.863281 20.800781 16.738281 20.261719 C 16.777344 20.246094 16.8125 20.222656 16.847656 20.195312 C 17.183594 19.976562 17.5 19.726562 17.792969 19.445312 L 17.792969 20.78125 L 17.816406 20.78125 C 18.027344 23.703125 20.519531 23.988281 21.304688 24 C 21.308594 24 21.3125 24 21.316406 24 C 21.53125 24 21.722656 23.851562 21.777344 23.640625 C 21.828125 23.425781 21.730469 23.207031 21.535156 23.105469 C 21.234375 22.953125 21.011719 21.96875 20.992188 20.761719 Z M 14.996094 5.59375 C 14.777344 5.59375 14.597656 5.773438 14.597656 5.996094 L 13.796875 5.996094 C 13.796875 5.773438 13.617188 5.59375 13.398438 5.59375 C 13.179688 5.59375 13 5.773438 13 5.996094 L 12.199219 5.996094 C 12.199219 5.773438 12.019531 5.59375 11.800781 5.59375 C 11.578125 5.59375 11.398438 5.773438 11.398438 5.996094 L 10.601562 5.996094 C 10.601562 5.773438 10.421875 5.59375 10.199219 5.59375 C 9.980469 5.59375 9.800781 5.773438 9.800781 5.996094 L 9.003906 5.996094 C 9.003906 5.773438 8.824219 5.59375 8.601562 5.59375 C 8.382812 5.59375 8.203125 5.773438 8.203125 5.996094 L 7.402344 5.996094 C 7.402344 5.773438 7.222656 5.59375 7.003906 5.59375 C 6.785156 5.59375 6.605469 5.773438 6.605469 5.996094 L 5.804688 5.996094 C 5.804688 5.773438 5.625 5.59375 5.40625 5.59375 C 5.28125 5.59375 5.171875 5.65625 5.101562 5.746094 C 5.113281 5.664062 5.125 5.582031 5.140625 5.503906 C 5.152344 5.457031 5.164062 5.40625 5.175781 5.355469 C 5.203125 5.246094 5.230469 5.132812 5.265625 5.023438 C 5.28125 4.96875 5.296875 4.914062 5.316406 4.859375 C 5.324219 4.832031 5.332031 4.808594 5.34375 4.78125 C 5.363281 4.785156 5.382812 4.796875 5.40625 4.796875 C 5.625 4.796875 5.804688 4.617188 5.804688 4.394531 L 6.605469 4.394531 C 6.605469 4.617188 6.785156 4.796875 7.003906 4.796875 C 7.222656 4.796875 7.402344 4.617188 7.402344 4.394531 L 8.203125 4.394531 C 8.203125 4.617188 8.382812 4.796875 8.601562 4.796875 C 8.824219 4.796875 9.003906 4.617188 9.003906 4.394531 L 9.800781 4.394531 C 9.800781 4.617188 9.980469 4.796875 10.199219 4.796875 C 10.421875 4.796875 10.601562 4.617188 10.601562 4.394531 L 11.398438 4.394531 C 11.398438 4.617188 11.578125 4.796875 11.800781 4.796875 C 12.019531 4.796875 12.199219 4.617188 12.199219 4.394531 L 13 4.394531 C 13 4.617188 13.179688 4.796875 13.398438 4.796875 C 13.617188 4.796875 13.796875 4.617188 13.796875 4.394531 L 14.597656 4.394531 C 14.597656 4.617188 14.777344 4.796875 14.996094 4.796875 C 15.21875 4.796875 15.398438 4.617188 15.398438 4.394531 L 16.195312 4.394531 C 16.195312 4.617188 16.375 4.796875 16.59375 4.796875 C 16.816406 4.796875 16.996094 4.617188 16.996094 4.394531 L 17.792969 4.394531 C 17.792969 4.617188 17.972656 4.796875 18.195312 4.796875 C 18.367188 4.796875 18.507812 4.6875 18.566406 4.535156 C 18.566406 4.542969 18.570312 4.546875 18.570312 4.550781 C 18.609375 4.652344 18.648438 4.753906 18.683594 4.859375 C 18.691406 4.878906 18.699219 4.902344 18.703125 4.921875 C 18.636719 4.996094 18.59375 5.089844 18.59375 5.195312 C 18.59375 5.371094 18.710938 5.515625 18.871094 5.570312 C 18.898438 5.710938 18.921875 5.851562 18.941406 5.996094 L 18.59375 5.996094 C 18.59375 5.773438 18.414062 5.59375 18.195312 5.59375 C 17.972656 5.59375 17.792969 5.773438 17.792969 5.996094 L 16.996094 5.996094 C 16.996094 5.773438 16.816406 5.59375 16.59375 5.59375 C 16.375 5.59375 16.195312 5.773438 16.195312 5.996094 L 15.398438 5.996094 C 15.398438 5.773438 15.21875 5.59375 14.996094 5.59375 Z M 17.796875 10.628906 L 18.992188 9.132812 L 18.992188 11.824219 L 18.3125 12.507812 C 18.15625 12.664062 18.15625 12.914062 18.3125 13.070312 C 18.390625 13.148438 18.492188 13.1875 18.59375 13.1875 C 18.695312 13.1875 18.796875 13.148438 18.875 13.070312 L 18.992188 12.953125 L 18.992188 14.386719 C 18.992188 14.609375 19.171875 14.789062 19.394531 14.789062 C 19.613281 14.789062 19.792969 14.609375 19.792969 14.386719 L 19.792969 12.953125 L 19.910156 13.070312 C 19.988281 13.148438 20.089844 13.1875 20.191406 13.1875 C 20.292969 13.1875 20.398438 13.148438 20.476562 13.070312 C 20.632812 12.914062 20.632812 12.664062 20.476562 12.507812 L 19.792969 11.824219 L 19.792969 9.132812 L 20.992188 10.628906 C 20.964844 14.453125 19.875 16.097656 19.394531 16.636719 C 18.914062 16.09375 17.820312 14.445312 17.796875 10.628906 Z M 18.992188 6.792969 L 18.992188 7.851562 L 18.105469 8.960938 C 18.042969 8.738281 17.96875 8.519531 17.894531 8.300781 C 17.875 8.242188 17.851562 8.179688 17.828125 8.121094 C 17.769531 7.953125 17.703125 7.785156 17.636719 7.621094 C 17.609375 7.558594 17.585938 7.496094 17.558594 7.433594 C 17.464844 7.21875 17.367188 7.003906 17.261719 6.792969 Z M 19.792969 7.851562 L 19.792969 7.644531 C 19.886719 7.816406 19.976562 7.992188 20.054688 8.179688 Z M 18.09375 3.597656 L 12.199219 3.597656 L 12.199219 0.800781 L 13.070312 0.800781 C 15.183594 0.800781 17.046875 1.914062 18.09375 3.597656 Z M 10.929688 0.800781 L 11.398438 0.800781 L 11.398438 3.597656 L 5.90625 3.597656 C 6.953125 1.914062 8.8125 0.800781 10.929688 0.800781 Z M 3.722656 14.183594 C 3.46875 12.761719 2.816406 9.039062 4.808594 6.792969 L 6.734375 6.792969 C 6.726562 6.816406 6.714844 6.839844 6.703125 6.859375 C 6.664062 6.949219 6.625 7.035156 6.582031 7.121094 C 6.515625 7.269531 6.445312 7.417969 6.386719 7.566406 C 6.34375 7.664062 6.308594 7.761719 6.269531 7.859375 C 6.214844 8.003906 6.160156 8.144531 6.109375 8.289062 C 6.074219 8.394531 6.039062 8.496094 6.007812 8.597656 C 5.960938 8.742188 5.917969 8.886719 5.875 9.03125 C 5.847656 9.136719 5.816406 9.242188 5.792969 9.347656 C 5.753906 9.496094 5.722656 9.640625 5.6875 9.789062 C 5.667969 9.894531 5.644531 10 5.625 10.105469 C 5.59375 10.257812 5.570312 10.414062 5.546875 10.570312 C 5.53125 10.667969 5.515625 10.769531 5.503906 10.867188 C 5.484375 11.039062 5.46875 11.210938 5.453125 11.382812 C 5.453125 11.390625 5.453125 11.398438 5.453125 11.402344 C 5.421875 11.457031 5.402344 11.515625 5.402344 11.582031 C 5.402344 11.691406 5.410156 11.800781 5.421875 11.90625 C 5.414062 12.074219 5.40625 12.242188 5.40625 12.414062 L 5.40625 18.382812 L 3.808594 18.382812 L 3.808594 14.789062 C 3.808594 14.671875 3.777344 14.511719 3.722656 14.183594 Z M 3.417969 23.121094 C 3.714844 22.457031 3.796875 21.511719 3.808594 20.78125 L 5.386719 20.78125 C 5.25 22.363281 4.289062 22.933594 3.417969 23.121094 Z M 3.808594 19.984375 L 3.808594 19.183594 L 5.40625 19.183594 L 5.40625 19.984375 Z M 6.203125 18.386719 L 6.203125 13.691406 C 6.59375 14.132812 7.101562 14.46875 7.675781 14.640625 C 6.972656 15.523438 6.980469 16.882812 6.996094 18.855469 C 6.996094 18.972656 7 19.089844 7 19.207031 C 6.710938 18.964844 6.441406 18.695312 6.203125 18.386719 Z M 13.773438 20.402344 C 13.597656 20.414062 13.378906 20.367188 13.207031 20.277344 L 12.800781 20.058594 C 12.519531 19.910156 12.214844 19.839844 11.914062 19.839844 C 11.527344 19.839844 11.144531 19.957031 10.816406 20.1875 C 10.632812 20.320312 10.152344 20.417969 9.839844 20.386719 C 9.109375 20.316406 8.417969 20.101562 7.800781 19.757812 C 7.800781 19.441406 7.796875 19.136719 7.796875 18.851562 C 7.777344 16.328125 7.808594 15.285156 8.796875 14.726562 C 8.8125 14.71875 8.820312 14.703125 8.835938 14.695312 C 8.859375 14.675781 8.878906 14.660156 8.898438 14.640625 C 8.914062 14.621094 8.925781 14.601562 8.941406 14.578125 C 8.953125 14.554688 8.964844 14.535156 8.972656 14.511719 C 8.984375 14.484375 8.988281 14.457031 8.988281 14.429688 C 8.992188 14.414062 9 14.398438 9 14.378906 C 9 14.371094 8.996094 14.363281 8.996094 14.359375 C 8.996094 14.332031 8.988281 14.304688 8.980469 14.28125 C 8.972656 14.253906 8.96875 14.226562 8.953125 14.203125 C 8.953125 14.199219 8.953125 14.191406 8.949219 14.183594 C 8.941406 14.167969 8.925781 14.160156 8.917969 14.144531 C 8.898438 14.121094 8.882812 14.101562 8.859375 14.082031 C 8.84375 14.066406 8.820312 14.054688 8.800781 14.039062 C 8.777344 14.027344 8.757812 14.015625 8.730469 14.007812 C 8.707031 13.996094 8.679688 13.992188 8.652344 13.988281 C 8.632812 13.988281 8.617188 13.980469 8.601562 13.980469 C 7.375 13.980469 6.367188 13.058594 6.222656 11.871094 C 6.25 11.289062 6.316406 10.710938 6.425781 10.144531 C 6.484375 9.859375 6.550781 9.582031 6.628906 9.304688 C 6.636719 9.335938 6.644531 9.367188 6.660156 9.398438 C 6.734375 9.523438 6.867188 9.589844 7.003906 9.589844 C 7.074219 9.589844 7.144531 9.574219 7.210938 9.535156 L 9.074219 8.414062 L 11.398438 8.878906 L 11.398438 7.195312 C 11.398438 6.972656 11.222656 6.792969 11 6.792969 C 10.78125 6.792969 10.601562 6.972656 10.601562 7.195312 L 10.601562 7.90625 L 8.929688 7.570312 L 6.796875 8.847656 C 6.78125 8.859375 6.769531 8.878906 6.75 8.890625 C 6.980469 8.167969 7.277344 7.464844 7.644531 6.792969 L 16.355469 6.792969 C 16.457031 6.980469 16.558594 7.167969 16.648438 7.359375 C 16.691406 7.453125 16.730469 7.546875 16.769531 7.636719 C 16.847656 7.8125 16.925781 7.984375 16.992188 8.160156 C 17.035156 8.269531 17.070312 8.382812 17.109375 8.492188 C 17.15625 8.625 17.199219 8.753906 17.242188 8.886719 C 17.226562 8.875 17.21875 8.859375 17.199219 8.847656 L 15.070312 7.570312 L 13.398438 7.90625 L 13.398438 7.195312 C 13.398438 6.972656 13.21875 6.792969 12.996094 6.792969 C 12.777344 6.792969 12.597656 6.972656 12.597656 7.195312 L 12.597656 8.878906 L 14.921875 8.414062 L 16.789062 9.535156 C 16.855469 9.574219 16.925781 9.589844 16.996094 9.589844 C 17.128906 9.589844 17.261719 9.523438 17.335938 9.398438 C 17.351562 9.371094 17.355469 9.34375 17.367188 9.316406 C 17.367188 9.328125 17.371094 9.335938 17.375 9.34375 C 17.410156 9.480469 17.445312 9.613281 17.476562 9.75 L 17.320312 9.945312 L 16.996094 10.351562 L 16.996094 10.492188 C 16.996094 10.714844 17 10.925781 17.007812 11.136719 C 17.007812 11.195312 17.011719 11.253906 17.011719 11.3125 C 17.019531 11.492188 17.03125 11.667969 17.042969 11.839844 C 17.042969 11.886719 17.046875 11.933594 17.050781 11.976562 C 17.0625 12.152344 17.078125 12.316406 17.097656 12.480469 C 17.105469 12.550781 17.113281 12.625 17.121094 12.695312 C 17.140625 12.851562 17.160156 13.003906 17.183594 13.148438 C 16.746094 13.703125 16.148438 13.988281 15.398438 13.988281 C 15.378906 13.988281 15.363281 13.996094 15.347656 13.996094 C 15.320312 14 15.292969 14.003906 15.265625 14.015625 C 15.242188 14.023438 15.21875 14.035156 15.199219 14.046875 C 15.175781 14.058594 15.15625 14.074219 15.136719 14.089844 C 15.113281 14.109375 15.097656 14.128906 15.082031 14.152344 C 15.070312 14.167969 15.054688 14.175781 15.046875 14.191406 C 15.042969 14.199219 15.046875 14.203125 15.042969 14.210938 C 15.03125 14.234375 15.023438 14.261719 15.015625 14.289062 C 15.011719 14.316406 15.003906 14.339844 15 14.367188 C 15 14.375 14.996094 14.378906 14.996094 14.386719 C 14.996094 14.40625 15.003906 14.421875 15.007812 14.4375 C 15.011719 14.464844 15.015625 14.492188 15.023438 14.519531 C 15.03125 14.542969 15.042969 14.5625 15.058594 14.585938 C 15.070312 14.609375 15.082031 14.628906 15.097656 14.648438 C 15.117188 14.667969 15.140625 14.6875 15.160156 14.703125 C 15.175781 14.710938 15.183594 14.726562 15.199219 14.734375 C 16.191406 15.292969 16.222656 16.335938 16.199219 18.859375 C 16.199219 19.113281 16.195312 19.378906 16.195312 19.65625 C 15.464844 20.082031 14.636719 20.347656 13.773438 20.402344 Z M 17 19.097656 C 17 19.019531 17 18.941406 17 18.867188 C 17.015625 16.894531 17.023438 15.539062 16.324219 14.65625 C 16.710938 14.542969 17.0625 14.359375 17.371094 14.101562 C 17.386719 14.167969 17.402344 14.234375 17.417969 14.300781 C 17.433594 14.367188 17.453125 14.4375 17.472656 14.503906 C 17.507812 14.636719 17.542969 14.757812 17.582031 14.878906 C 17.601562 14.933594 17.621094 14.992188 17.640625 15.046875 C 17.683594 15.175781 17.726562 15.292969 17.769531 15.410156 C 17.777344 15.429688 17.785156 15.453125 17.796875 15.476562 L 17.796875 18.273438 C 17.558594 18.578125 17.289062 18.851562 17 19.097656 Z M 18.59375 19.183594 L 20.191406 19.183594 L 20.191406 19.984375 L 18.59375 19.984375 Z M 18.613281 20.78125 L 20.191406 20.78125 C 20.203125 21.511719 20.285156 22.457031 20.582031 23.121094 C 19.710938 22.933594 18.75 22.363281 18.613281 20.78125 Z M 18.59375 18.382812 L 18.59375 16.929688 C 18.613281 16.953125 18.628906 16.96875 18.644531 16.988281 C 18.683594 17.039062 18.722656 17.085938 18.757812 17.125 C 18.792969 17.164062 18.820312 17.199219 18.851562 17.230469 C 18.886719 17.265625 18.917969 17.296875 18.949219 17.328125 C 18.972656 17.347656 18.992188 17.367188 19.011719 17.386719 C 19.042969 17.414062 19.070312 17.4375 19.089844 17.457031 C 19.101562 17.464844 19.109375 17.472656 19.117188 17.476562 C 19.144531 17.496094 19.160156 17.507812 19.167969 17.515625 L 19.394531 17.667969 L 19.617188 17.515625 C 19.617188 17.515625 19.621094 17.515625 19.621094 17.515625 C 19.628906 17.507812 19.644531 17.496094 19.671875 17.476562 C 19.679688 17.472656 19.683594 17.46875 19.691406 17.460938 C 19.71875 17.4375 19.746094 17.414062 19.78125 17.382812 C 19.800781 17.363281 19.816406 17.347656 19.835938 17.328125 C 19.867188 17.300781 19.902344 17.265625 19.9375 17.226562 C 19.96875 17.195312 19.996094 17.164062 20.027344 17.128906 C 20.066406 17.085938 20.105469 17.039062 20.144531 16.984375 C 20.160156 16.964844 20.175781 16.949219 20.195312 16.925781 L 20.195312 18.382812 Z M 18.59375 18.382812"/>
    <path d="M12.46875 14.375C12.398438 14.371094 12.328125 14.375 12.257812 14.382812 12.238281 14.382812 12.21875 14.386719 12.199219 14.386719 11.976562 14.386719 11.800781 14.566406 11.800781 14.789062 11.800781 15.007812 11.976562 15.1875 12.199219 15.1875 12.25 15.1875 12.296875 15.183594 12.34375 15.175781 12.363281 15.175781 12.382812 15.171875 12.398438 15.171875 13.257812 15.25 13.714844 14.71875 13.789062 14.164062 13.871094 13.5 13.449219 12.734375 12.597656 12.464844L12.597656 11.589844C12.597656 11.371094 12.421875 11.191406 12.199219 11.191406 11.976562 11.191406 11.800781 11.371094 11.800781 11.589844L11.800781 12.789062C11.800781 13.007812 11.976562 13.1875 12.199219 13.1875L12.222656 13.1875C12.8125 13.304688 13.03125 13.773438 12.996094 14.0625 12.957031 14.355469 12.6875 14.394531 12.46875 14.375zM10.601562 14.386719L10.601562 14.789062C10.601562 15.007812 10.78125 15.1875 11 15.1875 11.222656 15.1875 11.398438 15.007812 11.398438 14.789062L11.398438 14.386719C11.398438 14.167969 11.222656 13.988281 11 13.988281 10.78125 13.988281 10.601562 14.167969 10.601562 14.386719zM10.601562 14.386719"/>
</svg>
