<svg xmlns="http://www.w3.org/2000/svg" width="32" height="32" viewBox="0 0 24 24">
    <path d="M23.2 21.047v-1.602h-.802v-10.8h.403a.398.398 0 1 0 0-.797h-1.602V2.645h-6.27L12 .555l-2.93 2.09H2.8v5.199H1.2a.401.401 0 0 0 0 .8h.402v10.801H.8v1.602H0v2.398h24v-2.398zM3.601 8.645h16.796v10.8H16V9.848H8v9.597H3.602zM8.8 18.246h2.8V11.5L9.88 12.645H8.8v-2h6.398v2h-1.078L12.398 11.5v6.746H15.2v1.2H8.801zm0-4.8h1.32l.68-.454v4.453h-2zm6.398 4h-2v-4.454l.68.453h1.32zM8 20.245h8v.8H8zm8.8 0h5.598v.8h-5.597zm4.802-11.601v10.8h-.403v-10.8zm-18-5.2h5.726L12 1.54l2.672 1.906h5.726v4.403H3.602zm-1.204 5.2h.403v10.8h-.403zm-.796 11.601h5.597v.8H1.602zM.8 22.645v-.797h5.597v.797zm6.398 0v-.797h9.602v.797zm16 0h-5.597v-.797h5.597zm0 0"/>
    <path d="M13.938 4.008l-1.04-.149-.464-.945a.486.486 0 0 0-.434-.27.486.486 0 0 0-.434.27l-.464.945-1.04.149a.485.485 0 0 0-.27.828l.755.73-.18 1.04a.48.48 0 0 0 .477.562.473.473 0 0 0 .226-.055l.93-.488.93.488c.164.086.36.074.508-.035a.48.48 0 0 0 .195-.473l-.18-1.039.754-.734a.483.483 0 1 0-.27-.824zm-1.16 1.101a.487.487 0 0 0-.141.43l.097.566-.507-.265a.466.466 0 0 0-.454 0l-.507.265.097-.57a.483.483 0 0 0-.14-.426l-.41-.402.566-.082a.482.482 0 0 0 .367-.266L12 3.844l.254.515c.07.145.207.243.363.266l.57.082zm0 0M18 4.645h.398a.398.398 0 1 0 0-.797H18a.395.395 0 0 0-.398.398c0 .223.175.399.398.399zm0 0M18 5.445a.4.4 0 0 0-.398-.398h-.403a.4.4 0 0 0 0 .8h.403c.218 0 .398-.179.398-.402zm0 0M16.398 4.645h.403a.398.398 0 1 0 0-.797h-.403a.398.398 0 1 0 0 .797zm0 0M16.8 6.246h-.402a.4.4 0 0 0 0 .8h.403a.401.401 0 0 0 0-.8zm0 0M18.398 6.246H18a.398.398 0 0 0-.398.399c0 .222.175.402.398.402h.398a.401.401 0 0 0 0-.8zm0 0M19.2 5.047h-.4a.401.401 0 1 0 0 .8h.4a.401.401 0 0 0 0-.8zm0 0"/>
</svg>
