<svg xmlns="http://www.w3.org/2000/svg" width="32" height="32" viewBox="0 0 24 24">
    <path d="M17.2 8.234l-1.434-1.433h-1.133l-1.434 1.433V12h4zm-.802 2.965H14V8.566l.965-.964h.469l.964.964zm0 0M19.434 6.8L18 8.235V12h4V8.234l-1.434-1.433zm1.765 4.4h-2.398V8.565l.965-.964h.468l.965.964zm0 0M5.602 5.602c.218 0 .398-.18.398-.403 0-.441.36-.8.8-.8.884 0 1.598-.715 1.598-1.598 0-.442.36-.801.801-.801.883 0 1.602-.719 1.602-1.602a.401.401 0 0 0-.801 0c0 .442-.36.801-.8.801a1.6 1.6 0 0 0-1.598 1.602c0 .441-.36.8-.801.8A1.6 1.6 0 0 0 5.199 5.2c0 .223.18.403.403.403zm0 0"/>
    <path d="M24 16.398a.4.4 0 0 0-.398-.398v-.398a.401.401 0 0 0 0-.801V6.359a.51.51 0 0 0 .242-.183.541.541 0 0 0 .078-.48l-1.676-3.298H12.121l-1.5 4h.98v4.305a.904.904 0 0 1-.898.899h-.305v-2h-2v2h-.796v-1.16l.425-2.157-1.43-1.887H4.622l-1.45 1.903.43 2.136v1.165H2.88a.877.877 0 0 0-.879.875v2.097l-2 1.2v2.265c0 .64.52 1.16 1.16 1.16h.04v2.403h2.335c.203.453.485.867.828 1.214.004.004.004.008.008.012s.008.004.012.008A3.984 3.984 0 0 0 7.199 24a4 4 0 0 0 2.82-1.164c0-.004.004-.004.008-.008s.004-.008.008-.012c.348-.347.63-.761.828-1.214h1.938v-2.403h.886a3.956 3.956 0 0 0-.085.801c0 2.207 1.793 4 4 4 2.203 0 4-1.793 4-4a3.7 3.7 0 0 0-.09-.8H22v1.6a.4.4 0 0 0 .8 0h.802a.401.401 0 0 0 0-.8H22.8v-.8h.8V18a.4.4 0 0 0 0-.8v-.4c.22 0 .399-.179.399-.402zM12.676 3.2h9.078l1.226 2.403H11.777zm-3.477 7.2h.403v1.203h-.403zm-4.183-3.2h1.183l.973 1.281-.3 1.52H4.327l-.3-1.5zm-.618 3.602h2.403v.8H4.398zM1.16 18.398c-.2 0-.36-.16-.36-.359v-1.812l1.2-.72v2.891zM2 20.801v-1.602h1.281A3.867 3.867 0 0 0 3.2 20c0 .273.028.543.082.8zm3.363-3.418c.125-.086.258-.164.395-.235.012-.007.027-.011.039-.02.27-.132.562-.226.863-.28l.09-.012a2.863 2.863 0 0 1 .902 0l.086.012c.305.054.594.148.864.28.015.009.027.013.043.02.136.07.27.149.394.235l.016.015c.035.024.066.055.101.082l-1.148 1.145a1.582 1.582 0 0 0-.809-.227c-.297 0-.57.086-.808.227L5.246 17.48c.031-.027.063-.058.098-.082a.069.069 0 0 0 .02-.015zm5.024 2.91l-.024.16c-.004.04-.008.074-.015.113l-.047.211a5.726 5.726 0 0 1-.086.285 3.245 3.245 0 0 1-.492.899l-1.149-1.152c.14-.239.227-.512.227-.809 0-.297-.086-.57-.227-.809l1.149-1.148c.004 0 .004.004.007.004a3.19 3.19 0 0 1 .48.883c0 .004.005.004.005.008a5.726 5.726 0 0 1 .086.285l.047.21c.004.04.011.075.015.114l.024.16a3.673 3.673 0 0 1 0 .586zm-5.711 1.664a3.169 3.169 0 0 1-.567-1.137c-.004-.011-.004-.027-.007-.043-.02-.07-.036-.14-.047-.215-.008-.035-.012-.07-.02-.109A3.679 3.679 0 0 1 4 20c0-.098.008-.195.016-.293.004-.055.011-.105.02-.16.007-.04.01-.074.019-.113.011-.07.027-.141.047-.211.003-.016.003-.032.007-.043.024-.082.047-.16.075-.242.003-.004.003-.004.003-.008a3.19 3.19 0 0 1 .458-.852l.023-.031c.004 0 .004-.004.008-.004l1.152 1.148c-.14.239-.226.512-.226.809 0 .297.085.57.226.809zM6.398 20A.802.802 0 0 1 8 20a.802.802 0 0 1-1.602 0zm-1.156 2.523l1.149-1.148c.238.14.511.227.808.227.297 0 .57-.086.809-.227l1.152 1.148a3.186 3.186 0 0 1-1.96.676 3.167 3.167 0 0 1-1.958-.676zM12 20.801h-.879a4.154 4.154 0 0 0 0-1.602H12zM18.398 20a.799.799 0 1 1-1.597 0 .799.799 0 0 1 1.598 0zm-2.34-.398h-1.632c.02-.137.043-.27.078-.403h1.719a1.453 1.453 0 0 0-.164.403zm-1.632.796h1.633c.144.563.582 1 1.14 1.145v1.629a3.205 3.205 0 0 1-2.773-2.774zM18 23.172v-1.629a1.601 1.601 0 0 0 1.145-1.145h1.628A3.205 3.205 0 0 1 18 23.172zm2.773-3.57h-1.628a1.593 1.593 0 0 0-.168-.403h1.718c.035.133.063.266.078.403zm2.028-1.204H10.863a3.884 3.884 0 0 0-.258-.488c-.011-.015-.02-.031-.03-.047a3.29 3.29 0 0 0-.325-.441 3.582 3.582 0 0 0-.215-.238c-.004-.004-.004-.008-.008-.012s-.007-.004-.007-.008c-.047-.043-.094-.086-.141-.125-.02-.02-.04-.035-.059-.055a3.823 3.823 0 0 0-.425-.324c-.004-.004-.008-.004-.012-.008a4.649 4.649 0 0 0-.453-.254c-.024-.007-.043-.02-.07-.03a4.085 4.085 0 0 0-.505-.196h-.007a3.515 3.515 0 0 0-.496-.113c-.04-.008-.079-.012-.122-.02A3.954 3.954 0 0 0 7.2 16c-.18 0-.356.016-.532.04-.04.007-.078.01-.121.019a3.515 3.515 0 0 0-.496.113h-.008c-.176.055-.34.121-.504.195-.023.012-.047.024-.07.031-.157.079-.309.16-.45.254-.007.004-.011.004-.015.008-.149.098-.29.207-.426.324l-.058.055c-.047.043-.094.082-.137.125-.004.004-.008.004-.012.008s-.004.008-.008.012a3.583 3.583 0 0 0-.215.238 3.667 3.667 0 0 0-.355.488c-.094.156-.184.32-.258.488h-.734v-5.921c0-.043.035-.079.078-.079h7.824c.934 0 1.695-.761 1.695-1.695V6.398h10.403zm0 0"/>
    <path d="M13.2 12.8v4.802H22V12.8zm3.765 4l-1.598-1.6 1.598-1.598h1.27l1.6 1.597-1.6 1.602zM14 13.603h1.836l-1.32 1.316a.4.4 0 0 0 0 .566l1.32 1.317H14zm7.2 3.199h-1.833l1.317-1.317a.4.4 0 0 0 0-.566l-1.317-1.316H21.2zm0 0M12 12.8a.398.398 0 0 0-.398.4v4a.398.398 0 1 0 .796 0v-4a.398.398 0 0 0-.398-.4zm0 0M3.602 15.602H10.8v-2.403H3.6zM4.398 14H10v.8H4.398zm0 0"/>
</svg>
