<svg xmlns="http://www.w3.org/2000/svg" width="32" height="32" viewBox="0 0 24 24">
    <path d="M19.441 7.715H15.43V3.43h1.285c.945 0 1.715-.77 1.715-1.715C18.43.77 17.66 0 16.715 0h-9.43C6.34 0 5.57.77 5.57 1.715c0 .945.77 1.715 1.715 1.715H8.57v4.285H4.56a.702.702 0 0 0-.704.7V23.3c0 .387.317.699.704.699H19.44a.702.702 0 0 0 .704-.7V8.415c0-.387-.317-.7-.704-.7zM7.285 2.57a.859.859 0 0 1 0-1.715H8.57v.86c0 .234.192.43.43.43a.43.43 0 0 0 .43-.43v-.86h7.285a.859.859 0 0 1 0 1.715h-3.43v2.493c0 .593-.367 1.113-.879 1.292-.027.012-.054.02-.082.028-.043.012-.086.02-.129.027l-.125.012a.845.845 0 0 1-.14 0l-.13-.012c-.042-.008-.085-.02-.128-.027-.04-.012-.082-.024-.117-.04a.807.807 0 0 1-.133-.058c-.031-.015-.063-.031-.094-.05a1.24 1.24 0 0 1-.144-.106l-.059-.047a1.305 1.305 0 0 1-.137-.156.352.352 0 0 1-.035-.04 1.447 1.447 0 0 1-.113-.199c-.004-.011-.012-.019-.016-.027a1.308 1.308 0 0 1-.078-.238c0-.004-.004-.008-.004-.012a1.227 1.227 0 0 1-.027-.265V2.57zm12 20.575H4.715V8.57H9.43V3.43h.425v1.715c0 .148.02.296.047.44.004.017.012.032.016.048.031.125.07.25.121.367.012.027.031.055.043.082.05.102.105.2.168.293.027.035.059.066.086.102.062.078.125.152.2.222.01.012.019.024.03.035.028.024.059.04.09.063.07.058.145.117.223.164.047.027.094.05.14.078.083.04.165.078.25.11.051.019.106.035.157.05a2.022 2.022 0 0 0 .445.074c.043.004.086.012.129.012.04 0 .078-.008.117-.012.031 0 .067.004.102 0 .035-.003.07-.015.11-.02a3.76 3.76 0 0 0 .202-.042 2.528 2.528 0 0 0 .43-.164c.008-.004.02-.008.027-.016a2.136 2.136 0 0 0 1.157-1.886V3.43h.425v5.14h4.715zm0 0"/>
    <path d="M11.57 3.43h.86a.428.428 0 0 0 .425-.43.428.428 0 0 0-.425-.43h-.86a.428.428 0 0 0-.425.43c0 .238.19.43.425.43zm0 0M12.605 10.715l.985-.985a.427.427 0 0 0 0-.605.427.427 0 0 0-.606 0l-.984.984-.984-.984a.427.427 0 0 0-.606 0 .427.427 0 0 0 0 .605l.985.985L9.43 12.68l-1.965-1.965.98-.985a.427.427 0 0 0 0-.605.427.427 0 0 0-.605 0l-.985.984-.98-.984a.427.427 0 0 0-.605 0 .427.427 0 0 0 0 .605l.98.985-.98.98a.431.431 0 0 0 .3.735c.11 0 .22-.043.305-.125l.98-.985 1.97 1.965-1.97 1.965-.98-.98a.427.427 0 0 0-.605 0 .427.427 0 0 0 0 .605l.98.98-.98.985a.427.427 0 0 0 .3.73c.11 0 .22-.039.305-.125l.98-.98 1.97 1.965-1.97 1.965-.98-.985a.427.427 0 0 0-.605 0 .427.427 0 0 0 0 .606l.98.984-.98.984a.427.427 0 0 0 .3.73c.11 0 .22-.042.305-.124l.98-.985.985.985a.428.428 0 0 0 .605-.606L7.465 21l1.965-1.965L11.395 21l-.985.984a.427.427 0 0 0 .305.73c.11 0 .219-.042.3-.124l.985-.985.984.985a.426.426 0 0 0 .606 0 .427.427 0 0 0 0-.606L12.605 21l1.965-1.965L16.535 21l-.98.984a.427.427 0 0 0 .3.73.428.428 0 0 0 .305-.124l.985-.985.98.985a.426.426 0 0 0 .605 0 .427.427 0 0 0 0-.606L17.75 21l.98-.984a.427.427 0 0 0 0-.606.427.427 0 0 0-.605 0l-.98.985-1.97-1.965 1.97-1.965.98.98a.425.425 0 0 0 .305.125.427.427 0 0 0 .3-.73l-.98-.985.98-.98a.427.427 0 0 0 0-.605.427.427 0 0 0-.605 0l-.98.98-1.97-1.965 1.97-1.965.98.985a.426.426 0 0 0 .605 0 .431.431 0 0 0 0-.61l-.98-.98.98-.985a.427.427 0 0 0 0-.605.427.427 0 0 0-.605 0l-.98.984-.985-.984a.427.427 0 0 0-.605 0 .427.427 0 0 0 0 .605l.98.985-1.965 1.965zM12 11.32l1.965 1.965L12 15.25l-1.965-1.965zm-4.535 4.535l1.965-1.964 1.965 1.964-1.965 1.97zM12 20.395l-1.965-1.965L12 16.465l1.965 1.965zm4.535-4.54l-1.965 1.97-1.965-1.97 1.965-1.964zm0 0"/>
</svg>
