<svg xmlns="http://www.w3.org/2000/svg" width="32" height="32" viewBox="0 0 24 24">
    <path d="M20.398 18c-.238 0-.398.16-.398.398 0 .68-.52 1.204-1.2 1.204h-1.84l.52-.524a.385.385 0 0 0 0-.558.385.385 0 0 0-.558 0l-1.133 1.132a.38.38 0 0 0-.187.348c0 .16.07.281.187.348l1.133 1.132a.36.36 0 0 0 .277.122c.121 0 .2-.043.281-.122a.385.385 0 0 0 0-.558l-.52-.524h1.84c1.122 0 2-.878 2-2 0-.238-.16-.398-.402-.398zm0 0M16 17.602c0-.68.52-1.204 1.2-1.204h1.84l-.52.524a.385.385 0 0 0 0 .558c.082.079.16.122.28.122a.36.36 0 0 0 .278-.122l1.133-1.132a.38.38 0 0 0 .187-.348.38.38 0 0 0-.187-.348l-1.133-1.132a.385.385 0 0 0-.558 0 .385.385 0 0 0 0 .558l.52.524H17.2c-1.122 0-2 .878-2 2 0 .238.16.398.402.398.238 0 .398-.16.398-.398zm0 0"/>
    <path d="M22.398 13.918V.398C22.398.16 22.238 0 22 0H.398C.16 0 0 .16 0 .398V22c0 .238.16.398.398.398h13.52A5.967 5.967 0 0 0 18 24c3.32 0 6-2.68 6-6a5.967 5.967 0 0 0-1.602-4.082zM12.004 18.23c0 .008 0 .02.004.028a5.958 5.958 0 0 0 1.187 3.344H3.922l11.316-11.32 1.825 1.792a5.99 5.99 0 0 0-5.06 6.156zm9.598-7.976L18.398 7.12l3.204-3.2zM8.8.8h9.68L8.8 10.48zm-4 0v4h-4v-4zm-4 8h4v5.68l-4 4zm0 12.8v-2l4.68-4.68a.375.375 0 0 0 .12-.28V8.398C5.602 8.16 5.442 8 5.2 8H.801V5.602h4.398c.242 0 .403-.16.403-.403V.801H8v10.64c0 .16.078.32.238.36.16.078.32.039.442-.082L19.602.8h2v1.96L17.48 6.84a.361.361 0 0 0-.12.281c0 .117.038.2.12.277l4.079 3.961v1.809a5.978 5.978 0 0 0-3.301-1.164h-.028c-.043 0-.082 0-.12-.004h-.032L15.48 9.441a.385.385 0 0 0-.558 0l-12.16 12.16zM18 23.2c-1.43 0-2.723-.57-3.66-1.5a5.241 5.241 0 0 1-1.54-3.566V18a5.19 5.19 0 0 1 5.2-5.2h.133a5.241 5.241 0 0 1 3.566 1.54c.93.937 1.5 2.23 1.5 3.66A5.19 5.19 0 0 1 18 23.2zm0 0"/>
</svg>
