<svg xmlns="http://www.w3.org/2000/svg" width="32" height="32" viewBox="0 0 24 24">
    <path d="M 21.28125 16.960938 C 21.199219 16.921875 21.121094 16.839844 21.078125 16.761719 C 21.039062 16.679688 21.039062 16.558594 21.078125 16.480469 C 21.28125 16 21.199219 15.519531 20.839844 15.160156 C 20.480469 14.800781 19.960938 14.71875 19.519531 14.921875 C 19.441406 14.960938 19.320312 14.960938 19.238281 14.921875 C 19.160156 14.878906 19.078125 14.800781 19.039062 14.71875 C 18.878906 14.238281 18.441406 13.960938 17.960938 13.960938 C 17.480469 13.960938 17.039062 14.238281 16.878906 14.71875 C 16.839844 14.800781 16.761719 14.878906 16.679688 14.921875 C 16.601562 14.960938 16.480469 14.960938 16.398438 14.921875 C 15.921875 14.71875 15.441406 14.800781 15.078125 15.160156 C 14.71875 15.519531 14.640625 16.039062 14.839844 16.480469 C 14.878906 16.558594 14.878906 16.679688 14.839844 16.761719 C 14.800781 16.839844 14.761719 16.921875 14.640625 16.960938 C 14.238281 17.121094 13.960938 17.480469 13.960938 17.960938 C 13.960938 18.441406 14.199219 18.878906 14.601562 19.078125 L 14.640625 19.078125 C 14.71875 19.121094 14.800781 19.199219 14.839844 19.28125 C 14.878906 19.359375 14.878906 19.480469 14.839844 19.558594 C 14.640625 20.039062 14.71875 20.519531 15.078125 20.878906 C 15.441406 21.238281 15.960938 21.320312 16.398438 21.121094 C 16.480469 21.078125 16.601562 21.078125 16.679688 21.121094 C 16.761719 21.160156 16.839844 21.238281 16.878906 21.359375 C 17.078125 21.761719 17.480469 22 17.960938 22 C 18.441406 22 18.839844 21.761719 19.039062 21.359375 C 19.078125 21.28125 19.160156 21.199219 19.238281 21.160156 C 19.320312 21.121094 19.441406 21.121094 19.519531 21.160156 C 20 21.359375 20.480469 21.28125 20.839844 20.921875 C 21.199219 20.558594 21.28125 20.039062 21.078125 19.601562 C 21.039062 19.519531 21.039062 19.398438 21.078125 19.320312 C 21.121094 19.238281 21.199219 19.160156 21.28125 19.121094 C 21.761719 18.960938 22.039062 18.519531 22.039062 18.039062 C 22.039062 17.558594 21.761719 17.121094 21.28125 16.960938 Z M 20.960938 18.398438 C 20.640625 18.519531 20.398438 18.761719 20.28125 19.039062 C 20.160156 19.320312 20.199219 19.679688 20.320312 19.960938 C 20.398438 20.160156 20.28125 20.320312 20.238281 20.359375 C 20.199219 20.398438 20.039062 20.519531 19.839844 20.441406 C 19.558594 20.28125 19.199219 20.28125 18.921875 20.398438 C 18.601562 20.519531 18.359375 20.761719 18.28125 21.039062 C 18.238281 21.160156 18.078125 21.199219 17.960938 21.199219 C 17.839844 21.199219 17.679688 21.160156 17.640625 21.039062 C 17.519531 20.71875 17.28125 20.480469 17 20.359375 C 16.839844 20.320312 16.71875 20.28125 16.558594 20.28125 C 16.398438 20.28125 16.199219 20.320312 16.039062 20.398438 C 15.839844 20.480469 15.679688 20.359375 15.640625 20.320312 C 15.601562 20.28125 15.480469 20.121094 15.558594 19.921875 C 15.71875 19.640625 15.71875 19.28125 15.601562 19 C 15.480469 18.71875 15.238281 18.480469 14.960938 18.359375 C 14.839844 18.320312 14.800781 18.121094 14.800781 18 C 14.800781 17.878906 14.839844 17.761719 14.960938 17.71875 C 15.28125 17.601562 15.519531 17.359375 15.640625 17.078125 C 15.761719 16.800781 15.71875 16.441406 15.601562 16.160156 C 15.519531 15.960938 15.640625 15.800781 15.679688 15.761719 C 15.71875 15.71875 15.878906 15.601562 16.078125 15.679688 C 16.359375 15.839844 16.679688 15.839844 17 15.71875 C 17.28125 15.601562 17.519531 15.359375 17.640625 15.039062 C 17.71875 14.800781 17.921875 14.800781 17.960938 14.800781 C 18 14.800781 18.199219 14.800781 18.28125 15.078125 C 18.398438 15.398438 18.640625 15.640625 18.921875 15.761719 C 19.199219 15.878906 19.558594 15.839844 19.839844 15.71875 C 20.039062 15.640625 20.199219 15.761719 20.238281 15.800781 C 20.28125 15.839844 20.398438 16 20.320312 16.199219 C 20.160156 16.480469 20.160156 16.839844 20.28125 17.121094 C 20.398438 17.398438 20.640625 17.640625 20.960938 17.761719 C 21.199219 17.839844 21.199219 18.039062 21.199219 18.078125 C 21.199219 18.121094 21.160156 18.320312 20.960938 18.398438 Z M 20.960938 18.398438"/>
    <path d="M 18 16.398438 C 17.121094 16.398438 16.398438 17.121094 16.398438 18 C 16.398438 18.878906 17.121094 19.601562 18 19.601562 C 18.878906 19.601562 19.601562 18.878906 19.601562 18 C 19.601562 17.121094 18.878906 16.398438 18 16.398438 Z M 18 18.800781 C 17.558594 18.800781 17.199219 18.441406 17.199219 18 C 17.199219 17.558594 17.558594 17.199219 18 17.199219 C 18.441406 17.199219 18.800781 17.558594 18.800781 18 C 18.800781 18.441406 18.441406 18.800781 18 18.800781 Z M 18 18.800781"/>
    <path d="M 22.398438 13.917969 L 22.398438 0.398438 C 22.398438 0.160156 22.238281 0 22 0 L 0.398438 0 C 0.160156 0 0 0.160156 0 0.398438 L 0 22 C 0 22.238281 0.160156 22.398438 0.398438 22.398438 L 13.917969 22.398438 C 14.988281 23.394531 16.421875 24 18 24 C 21.320312 24 24 21.320312 24 18 C 24 16.421875 23.394531 14.988281 22.398438 13.917969 Z M 12.003906 18.230469 C 12.003906 18.238281 12.003906 18.25 12.007812 18.257812 C 12.058594 19.511719 12.492188 20.664062 13.195312 21.601562 L 3.921875 21.601562 L 15.238281 10.28125 L 17.011719 12.082031 C 14.164062 12.550781 12 15.015625 12 18 C 12 18.078125 12 18.152344 12.003906 18.230469 Z M 21.601562 10.253906 L 18.398438 7.121094 L 21.601562 3.921875 Z M 8.800781 0.800781 L 18.480469 0.800781 L 8.800781 10.480469 Z M 4.800781 0.800781 L 4.800781 4.800781 L 0.800781 4.800781 L 0.800781 0.800781 Z M 0.800781 8.800781 L 4.800781 8.800781 L 4.800781 14.480469 L 0.800781 18.480469 Z M 0.800781 21.601562 L 0.800781 19.640625 L 5.480469 14.921875 C 5.558594 14.839844 5.601562 14.761719 5.601562 14.640625 L 5.601562 8.398438 C 5.601562 8.160156 5.441406 8 5.199219 8 L 0.800781 8 L 0.800781 5.601562 L 5.199219 5.601562 C 5.441406 5.601562 5.601562 5.441406 5.601562 5.199219 L 5.601562 0.800781 L 8 0.800781 L 8 11.441406 C 8 11.601562 8.078125 11.761719 8.238281 11.800781 C 8.398438 11.878906 8.558594 11.839844 8.679688 11.71875 L 19.640625 0.800781 L 21.601562 0.800781 L 21.601562 2.761719 L 17.519531 6.839844 C 17.441406 6.921875 17.398438 7 17.398438 7.121094 C 17.398438 7.238281 17.441406 7.320312 17.519531 7.398438 L 21.601562 11.359375 L 21.601562 13.195312 C 20.855469 12.636719 19.976562 12.25 19.015625 12.085938 C 18.992188 12.082031 18.96875 12.078125 18.945312 12.074219 C 18.917969 12.070312 18.890625 12.066406 18.859375 12.0625 C 18.636719 12.027344 18.414062 12.007812 18.1875 12.003906 C 18.15625 12.003906 18.125 12 18.097656 12 C 18.078125 12 18.058594 12 18.039062 12 L 15.519531 9.441406 C 15.441406 9.359375 15.359375 9.320312 15.238281 9.320312 C 15.121094 9.320312 15.039062 9.359375 14.960938 9.441406 L 2.800781 21.601562 Z M 18 23.199219 C 16.570312 23.199219 15.277344 22.628906 14.339844 21.699219 C 13.382812 20.734375 12.835938 19.472656 12.800781 18.132812 C 12.800781 18.085938 12.800781 18.042969 12.800781 18 C 12.800781 15.121094 15.121094 12.800781 18 12.800781 C 18.042969 12.800781 18.085938 12.800781 18.132812 12.800781 C 19.472656 12.835938 20.734375 13.382812 21.699219 14.339844 C 22.628906 15.277344 23.199219 16.570312 23.199219 18 C 23.199219 20.878906 20.878906 23.199219 18 23.199219 Z M 18 23.199219"/>
</svg>
