<svg xmlns="http://www.w3.org/2000/svg" width="32" height="32" viewBox="0 0 24 24">
    <path d="M 13.160156 5.898438 C 13.429688 5.613281 13.601562 5.226562 13.601562 4.800781 C 13.601562 3.921875 12.878906 3.199219 12 3.199219 C 11.121094 3.199219 10.398438 3.921875 10.398438 4.800781 C 10.398438 5.226562 10.570312 5.613281 10.839844 5.898438 C 10.101562 6.3125 9.601562 7.097656 9.601562 8 L 9.601562 9.199219 C 9.601562 9.441406 9.761719 9.601562 10 9.601562 C 10.238281 9.601562 10.398438 9.441406 10.398438 9.199219 L 10.398438 8 C 10.398438 7.121094 11.121094 6.398438 12 6.398438 C 12.878906 6.398438 13.601562 7.121094 13.601562 8 L 13.601562 9.199219 C 13.601562 9.441406 13.761719 9.601562 14 9.601562 C 14.238281 9.601562 14.398438 9.441406 14.398438 9.199219 L 14.398438 8 C 14.398438 7.097656 13.898438 6.3125 13.160156 5.898438 Z M 11.199219 4.800781 C 11.199219 4.359375 11.558594 4 12 4 C 12.441406 4 12.800781 4.359375 12.800781 4.800781 C 12.800781 5.238281 12.441406 5.601562 12 5.601562 C 11.558594 5.601562 11.199219 5.238281 11.199219 4.800781 Z M 11.199219 4.800781"/>
    <path d="M 18.398438 6.398438 C 18.398438 2.878906 15.519531 0 12 0 C 8.480469 0 5.601562 2.878906 5.601562 6.398438 C 5.601562 9.242188 7.480469 11.667969 10.058594 12.496094 L 10.800781 22.839844 C 10.839844 23.519531 11.359375 24 12 24 C 12.640625 24 13.160156 23.519531 13.199219 22.839844 L 13.984375 12.484375 C 16.539062 11.640625 18.398438 9.226562 18.398438 6.398438 Z M 12.398438 22.800781 C 12.398438 23.039062 12.238281 23.238281 12 23.238281 C 11.761719 23.238281 11.601562 23 11.601562 22.800781 L 10.878906 12.71875 C 11.679688 12.839844 12.441406 12.839844 13.121094 12.71875 Z M 12 12 C 8.921875 12 6.398438 9.480469 6.398438 6.398438 C 6.398438 3.320312 8.921875 0.800781 12 0.800781 C 15.078125 0.800781 17.601562 3.320312 17.601562 6.398438 C 17.601562 9.480469 15.078125 12 12 12 Z M 12 12"/>
</svg>
