<svg xmlns="http://www.w3.org/2000/svg" width="32" height="32" viewBox="0 0 24 24">
    <path d="M18.398 6.398C18.398 2.878 15.52 0 12 0 8.48 0 5.602 2.879 5.602 6.398c0 2.844 1.878 5.27 4.457 6.098L10.8 22.84c.039.68.558 1.16 1.199 1.16.64 0 1.16-.48 1.2-1.16l.784-10.356c2.555-.843 4.414-3.257 4.414-6.086zm-6 16.364c0 .238-.16.437-.398.437-.238 0-.398-.238-.398-.437l-.72-10.059c.364.063.735.098 1.118.098h.023a6.239 6.239 0 0 0 1.094-.098zM12 12c-3.078 0-5.602-2.52-5.602-5.602C6.398 3.32 8.922.801 12 .801c3.078 0 5.602 2.52 5.602 5.597C17.602 9.48 15.078 12 12 12zm0 0"/>
    <path d="M14.8 6.398c-.241 0-.402.16-.402.403 0 .68-.52 1.199-1.199 1.199H10.16l.52-.52a.385.385 0 0 0 0-.558.385.385 0 0 0-.559 0L8.988 8.05a.383.383 0 0 0-.187.347c0 .16.07.286.187.352l1.133 1.129c.078.082.16.121.277.121.122 0 .204-.04.282-.121a.385.385 0 0 0 0-.559l-.52-.52h3.04c1.12 0 2-.878 2-2 0-.241-.16-.402-.4-.402zm0 0M15.2 4.398a.383.383 0 0 0-.188-.347l-1.133-1.13a.385.385 0 0 0-.559 0 .385.385 0 0 0 0 .56l.52.519H10.8c-1.12 0-2 .879-2 2 0 .238.16.398.4.398.241 0 .402-.16.402-.398 0-.68.52-1.2 1.199-1.2h3.039l-.52.52a.385.385 0 0 0 0 .559c.078.082.16.121.282.121.117 0 .199-.04.277-.121l1.133-1.129c.117-.066.187-.191.187-.352zm0 0"/>
</svg>
