<svg xmlns="http://www.w3.org/2000/svg" width="32" height="32" viewBox="0 0 24 24">
    <path d="M18.398 6.398C18.398 2.878 15.52 0 12 0 8.48 0 5.602 2.879 5.602 6.398c0 2.844 1.878 5.27 4.457 6.098L10.8 22.84c.039.68.558 1.16 1.199 1.16.64 0 1.16-.48 1.2-1.16l.784-10.356c2.555-.843 4.414-3.257 4.414-6.086zm-6 16.403c0 .238-.16.437-.398.437-.238 0-.398-.238-.398-.437l-.723-10.082c.8.12 1.562.12 2.242 0zM12 12c-3.078 0-5.602-2.52-5.602-5.602C6.398 3.32 8.922.801 12 .801c3.078 0 5.602 2.52 5.602 5.597C17.602 9.48 15.078 12 12 12zm0 0"/>
    <path d="M14.8 6h-2.402V3.602c0-.243-.16-.403-.398-.403-.238 0-.398.16-.398.403V6H9.199c-.238 0-.398.16-.398.398 0 .243.16.403.398.403h2.403v2.398c0 .242.16.403.398.403.238 0 .398-.16.398-.403V6.801h2.403c.238 0 .398-.16.398-.403 0-.238-.16-.398-.398-.398zm0 0"/>
</svg>
