<svg xmlns="http://www.w3.org/2000/svg" width="32" height="32" viewBox="0 0 24 24">
    <path d="M18.398 6.398C18.398 2.878 15.52 0 12 0 8.48 0 5.602 2.879 5.602 6.398c0 2.844 1.878 5.27 4.457 6.098L10.8 22.84c.039.68.558 1.16 1.199 1.16.64 0 1.16-.48 1.2-1.16l.78-10.356c2.56-.84 4.418-3.254 4.418-6.086zm-6 16.364c0 .238-.16.437-.398.437-.238 0-.398-.238-.398-.437l-.723-10.043c.465.078.957.105 1.445.074.27-.016.535-.047.793-.09zM12 12c-3.078 0-5.602-2.52-5.602-5.602C6.398 3.32 8.922.801 12 .801c3.078 0 5.602 2.52 5.602 5.597C17.602 9.48 15.078 12 12 12zm0 0"/>
    <path d="M10 6c.879 0 1.602-.719 1.602-1.602 0-.878-.723-1.597-1.602-1.597-.879 0-1.602.719-1.602 1.597C8.398 5.281 9.121 6 10 6zm0-2.398c.441 0 .8.359.8.796a.802.802 0 0 1-1.6 0c0-.437.359-.796.8-.796zm0 0M14 6.8c-.879 0-1.602.72-1.602 1.598 0 .883.723 1.602 1.602 1.602.879 0 1.602-.719 1.602-1.602 0-.878-.723-1.597-1.602-1.597zm0 2.4c-.441 0-.8-.36-.8-.802a.801.801 0 0 1 1.6 0c0 .442-.359.801-.8.801zm0 0M15.078 3.32a.385.385 0 0 0-.558 0L8.922 8.922a.385.385 0 0 0 0 .558.36.36 0 0 0 .277.122c.121 0 .2-.043.281-.122l5.598-5.601a.385.385 0 0 0 0-.559zm0 0"/>
</svg>
