<svg xmlns="http://www.w3.org/2000/svg" width="32" height="32" viewBox="0 0 24 24">
    <path d="M18.39 6.39C18.39 2.876 15.517 0 12 0 8.484 0 5.61 2.875 5.61 6.39c0 2.837 1.874 5.258 4.449 6.087l.742 10.367C10.844 23.52 11.359 24 12 24c.64 0 1.156-.52 1.2-1.2l.784-10.34c2.551-.839 4.407-3.25 4.407-6.07zm-5.992 16.372c0 .238-.16.441-.398.441-.238 0-.398-.242-.398-.441l-.72-10.063a5.96 5.96 0 0 0 2.235 0zM12 11.98c-3.074 0-5.59-2.515-5.59-5.59C6.41 3.317 8.926.798 12 .798s5.59 2.52 5.59 5.594c0 3.074-2.516 5.59-5.59 5.59zm0 0"/>
    <path d="M12 2.797a3.578 3.578 0 0 0-3.113 1.797c-.082.199-.043.437.156.558.16.078.441.04.52-.16A2.816 2.816 0 0 1 12 3.594a2.78 2.78 0 0 1 2.797 2.797A2.778 2.778 0 0 1 12 9.184c-1.09 0-2.066-.641-2.523-1.598h.925v-.797H8.965a.37.37 0 0 0-.16 0h-.797v2.395h.797V8.039A3.61 3.61 0 0 0 12 9.984a3.58 3.58 0 0 0 3.594-3.593A3.58 3.58 0 0 0 12 2.797zm0 0"/>
</svg>
