<svg xmlns="http://www.w3.org/2000/svg" width="32" height="32" viewBox="0 0 24 24">
    <path d="M10.027 10.004v1.598c0 .238.16.398.403.398h.02l.34 5.64c.038.641.597 1.16 1.237 1.16.68 0 1.2-.519 1.243-1.198L13.605 12h.024c.238 0 .398-.16.398-.398v-1.598a5.192 5.192 0 0 0 3.203-4.805A5.19 5.19 0 0 0 12.027 0a5.19 5.19 0 0 0-5.199 5.2 5.188 5.188 0 0 0 3.2 4.804zm2.442 7.555c0 .242-.2.441-.442.441a.443.443 0 0 1-.437-.441L11.27 12h1.52zm.758-7.278v.918h-2.399v-.918c.063.008.121.012.18.02.328.066.672.097 1.02.097.35 0 .69-.03 1.023-.097.058-.008.117-.012.176-.02zm-1.2-9.48a4.389 4.389 0 0 1 4.403 4.398c0 2.36-1.832 4.27-4.157 4.395h-.035c-.031.004-.058.004-.086.004h-.023c-.035 0-.066.004-.102.004-.03 0-.066-.004-.097-.004h-.024c-.027 0-.058 0-.086-.004h-.035A4.384 4.384 0 0 1 7.63 5.199 4.388 4.388 0 0 1 12.027.801zm0 0"/>
    <path d="M9.227 5.2c0-1.56 1.242-2.802 2.8-2.802.243 0 .403-.16.403-.398 0-.238-.16-.398-.403-.398-2 0-3.597 1.597-3.597 3.597 0 .242.16.403.398.403.242 0 .399-.16.399-.403zm0 0M23.707 23.238l-10.363-3.187 7.965-2.45a.36.36 0 0 0 .28-.48.357.357 0 0 0-.48-.281l-9.101 2.8-9.098-2.8a.435.435 0 0 0-.48.281c-.043.2.078.399.277.48l7.965 2.45L.309 23.238a.36.36 0 0 0-.282.48c.082.16.243.282.403.282h.078l11.5-3.54 11.5 3.54h.12c.161 0 .321-.121.36-.281a.435.435 0 0 0-.281-.48zm0 0"/>
</svg>
