<svg xmlns="http://www.w3.org/2000/svg" width="32" height="32" viewBox="0 0 24 24">
    <path d="M 15.921875 6.121094 C 14.796875 4.851562 13.507812 4.109375 12.171875 4.007812 C 12.117188 4.003906 12.058594 4 12 4 C 11.992188 4 11.988281 4 11.980469 4 C 11.90625 4 11.832031 3.996094 11.761719 4 C 10.359375 4.039062 9.078125 4.800781 8.078125 6.160156 C 8 6.320312 8 6.480469 8.078125 6.640625 C 9.121094 8.199219 10.519531 9.039062 12 9.039062 C 13.480469 9.039062 14.878906 8.199219 15.960938 6.601562 C 16.039062 6.441406 16.039062 6.238281 15.921875 6.121094 Z M 12.800781 5.601562 C 12.800781 6.039062 12.441406 6.398438 12 6.398438 C 11.558594 6.398438 11.199219 6.039062 11.199219 5.601562 C 11.199219 5.171875 11.542969 4.816406 11.96875 4.800781 C 12.027344 4.804688 12.085938 4.808594 12.144531 4.8125 C 12.515625 4.882812 12.800781 5.210938 12.800781 5.601562 Z M 11.960938 8.238281 C 10.839844 8.238281 9.761719 7.601562 8.878906 6.398438 C 9.367188 5.820312 9.910156 5.386719 10.472656 5.117188 C 10.425781 5.269531 10.398438 5.433594 10.398438 5.601562 C 10.398438 6.480469 11.121094 7.199219 12 7.199219 C 12.878906 7.199219 13.601562 6.480469 13.601562 5.601562 C 13.601562 5.484375 13.585938 5.371094 13.5625 5.265625 C 14.078125 5.542969 14.578125 5.941406 15.039062 6.441406 C 14.199219 7.601562 13.078125 8.238281 11.960938 8.238281 Z M 11.960938 8.238281"/>
    <path d="M 18.398438 6.398438 C 18.398438 2.878906 15.519531 0 12 0 C 8.480469 0 5.601562 2.878906 5.601562 6.398438 C 5.601562 9.242188 7.480469 11.667969 10.058594 12.496094 L 10.800781 22.839844 C 10.839844 23.519531 11.359375 24 12 24 C 12.640625 24 13.160156 23.519531 13.199219 22.839844 L 13.984375 12.484375 C 16.539062 11.640625 18.398438 9.226562 18.398438 6.398438 Z M 12.398438 22.761719 C 12.398438 23 12.238281 23.199219 12 23.199219 C 11.761719 23.199219 11.601562 22.960938 11.601562 22.761719 L 10.882812 12.703125 C 11.246094 12.765625 11.617188 12.800781 12 12.800781 C 12.007812 12.800781 12.015625 12.800781 12.023438 12.800781 C 12.167969 12.800781 12.308594 12.796875 12.449219 12.785156 C 12.675781 12.769531 12.898438 12.742188 13.117188 12.703125 Z M 12 12 C 8.921875 12 6.398438 9.480469 6.398438 6.398438 C 6.398438 3.320312 8.921875 0.800781 12 0.800781 C 15.078125 0.800781 17.601562 3.320312 17.601562 6.398438 C 17.601562 9.480469 15.078125 12 12 12 Z M 12 12"/>
</svg>
