<svg xmlns="http://www.w3.org/2000/svg" width="32" height="32" viewBox="0 0 24 24">
    <path d="M18.43.059c-3.067 0-5.575 2.507-5.575 5.574 0 .222.016.445.04.66-.243.074-.477.21-.676.414a1.583 1.583 0 0 0-.414 1.57L.12 20.078A.361.361 0 0 0 0 20.36v3.184c0 .238.16.398.398.398h3.184c.121 0 .2-.039.277-.12l11.938-11.583c.117.028.238.04.363.04.438 0 .836-.157 1.113-.516a1.34 1.34 0 0 0 .399-.61c.246.036.5.051.758.051 3.062 0 5.57-2.508 5.57-5.57C24 2.566 21.492.059 18.43.059zM3.422 23.145H.797v-2.63L12.219 8.978l2.824 2.824zm13.293-11.903c-.277.32-.793.32-1.113 0l-2.825-2.824a.765.765 0 0 1 0-1.113c.078-.082.2-.121.278-.16.457 1.648 1.652 2.988 3.183 3.609.207.086.418.164.633.226a.61.61 0 0 1-.156.262zm1.715-.836c-.278 0-.547-.023-.809-.066a.383.383 0 0 0-.187-.09 4.767 4.767 0 0 1-3.54-3.117 4.77 4.77 0 0 1-.242-1.5A4.79 4.79 0 0 1 18.43.855c2.625 0 4.773 2.149 4.773 4.778a4.788 4.788 0 0 1-4.773 4.773zm0 0"/>
    <path d="M18.43 1.652a3.99 3.99 0 0 0-3.98 3.98c0 .24.155.4.398.4.195 0 .394-.16.394-.4A3.193 3.193 0 0 1 18.43 2.45c.238 0 .394-.16.394-.398 0-.239-.156-.399-.394-.399zm0 0M1.71 20.715a.385.385 0 0 0 0 .558c.083.079.161.122.278.122.121 0 .2-.043.282-.082l10.226-10.348a.385.385 0 0 0 0-.559.387.387 0 0 0-.555 0zm0 0"/>
</svg>
