<svg xmlns="http://www.w3.org/2000/svg" width="32" height="32" viewBox="0 0 24 24">
    <path d="M15.2 3.2v1.484C14.601 3.527 13.386 2.8 12.04 2.8A3.596 3.596 0 0 0 8.558 5.52c-.079.199.082.44.28.48h.083c.156 0 .316-.121.36-.32A2.829 2.829 0 0 1 12 3.602 2.79 2.79 0 0 1 14.313 4.8h-.711v.8H16V3.2zm0 0"/>
    <path d="M18.398 6.398C18.398 2.878 15.52 0 12 0 8.48 0 5.602 2.879 5.602 6.398c0 2.844 1.878 5.27 4.457 6.098L10.8 22.84c.039.68.558 1.16 1.199 1.16.64 0 1.16-.48 1.2-1.16l.78-10.356c2.56-.84 4.418-3.254 4.418-6.086zm-6 16.364c0 .238-.16.437-.398.437-.238 0-.398-.238-.398-.437l-.723-10.043c.465.078.957.105 1.445.074.27-.016.535-.047.793-.09zM12 12c-3.078 0-5.602-2.52-5.602-5.602C6.398 3.32 8.922.801 12 .801c3.078 0 5.602 2.52 5.602 5.597C17.602 9.48 15.078 12 12 12zm0 0"/>
    <path d="M15.2 6.398c-.2 0-.4.16-.438.364-.16 1.398-1.364 2.437-2.762 2.437a2.823 2.823 0 0 1-2.531-1.597h.93V6.8H8.96a.37.37 0 0 0-.16 0H8v2.398h.8V8.055A3.612 3.612 0 0 0 12 10c1.8 0 3.36-1.36 3.559-3.16 0-.2-.16-.399-.36-.442zm0 0"/>
</svg>
