<svg xmlns="http://www.w3.org/2000/svg" width="32" height="32" viewBox="0 0 24 24">
    <path d="M13.36 5.16c-.52 0-1 .32-1.4.84-.358-.48-.92-.84-1.519-.84-1.043 0-1.84.8-1.96 1.918 0 .121 0 .363.078.762.16.601.48 1.16.96 1.558L12 11.762l2.36-2.364c.48-.437.8-.957.96-1.558.121-.399.078-.68.078-.762-.078-1.117-.957-1.918-2.039-1.918zm1.242 2.48c-.122.438-.364.84-.762 1.16L12 10.64 10.04 8.8a2.398 2.398 0 0 1-.72-1.16c-.039-.28-.039-.44-.039-.44l.04-.04c.038-.601.44-1.2 1.16-1.2.44 0 .96.481 1.16.962l.359.84.36-.84c.081-.242.44-.961 1-.961.68 0 1.199.52 1.28 1.238 0 0 .04.16-.038.442zm0 0"/>
    <path d="M12 0C7.602 0 4 3.602 4 8c0 2.16.64 3.48 1.559 5.281.12.278.28.559.441.88 2.238 4.6 5.64 9.6 5.68 9.679.082.082.199.16.32.16s.238-.078.32-.2c.04-.038 3.442-5.038 5.68-9.64.16-.32.281-.601.441-.879C19.36 11.481 20 10.161 20 8c0-4.398-3.602-8-8-8zm5.719 12.879c-.117.32-.278.601-.438.922-1.8 3.68-4.36 7.68-5.281 9.039-.922-1.36-3.48-5.32-5.281-9.04-.16-.28-.278-.6-.438-.878C5.398 11.16 4.801 9.96 4.801 8 4.8 4.04 8.039.8 12 .8c3.96 0 7.2 3.24 7.2 7.2 0 1.96-.598 3.16-1.481 4.879zm0 0"/>
</svg>
