<svg xmlns="http://www.w3.org/2000/svg" width="32" height="32" viewBox="0 0 24 24">
    <path d="M14.398438 8C14.160156 8 14 8.160156 14 8.398438 14 9.078125 13.480469 9.601562 12.800781 9.601562L10.960938 9.601562 11.480469 9.078125C11.640625 8.921875 11.640625 8.679688 11.480469 8.519531 11.320312 8.359375 11.078125 8.359375 10.921875 8.519531L9.789062 9.652344C9.671875 9.71875 9.601562 9.839844 9.601562 10 9.601562 10.160156 9.671875 10.28125 9.789062 10.347656L10.921875 11.480469C11 11.558594 11.078125 11.601562 11.199219 11.601562 11.320312 11.601562 11.398438 11.558594 11.480469 11.480469 11.640625 11.320312 11.640625 11.078125 11.480469 10.921875L10.960938 10.398438 12.800781 10.398438C13.921875 10.398438 14.800781 9.519531 14.800781 8.398438 14.800781 8.160156 14.640625 8 14.398438 8zM10 7.601562C10 6.921875 10.519531 6.398438 11.199219 6.398438L13.039062 6.398438 12.519531 6.921875C12.359375 7.078125 12.359375 7.320312 12.519531 7.480469 12.601562 7.558594 12.679688 7.601562 12.800781 7.601562 12.921875 7.601562 13 7.558594 13.078125 7.480469L14.210938 6.347656C14.328125 6.28125 14.398438 6.160156 14.398438 6 14.398438 5.839844 14.328125 5.71875 14.210938 5.652344L13.078125 4.519531C12.921875 4.359375 12.679688 4.359375 12.519531 4.519531 12.359375 4.679688 12.359375 4.917969 12.519531 5.078125L13.039062 5.601562 11.199219 5.601562C10.078125 5.601562 9.199219 6.480469 9.199219 7.601562 9.199219 7.839844 9.359375 8 9.601562 8 9.839844 8 10 7.839844 10 7.601562zM10 7.601562"/>
    <path d="M 12 0 C 7.601562 0 4 3.601562 4 8 C 4 10.160156 4.640625 11.480469 5.558594 13.28125 C 5.679688 13.558594 5.839844 13.839844 6 14.160156 C 8.238281 18.761719 11.640625 23.761719 11.679688 23.839844 C 11.761719 23.921875 11.878906 24 12 24 C 12.121094 24 12.238281 23.921875 12.320312 23.800781 C 12.359375 23.761719 15.761719 18.761719 18 14.160156 C 18.160156 13.839844 18.28125 13.558594 18.441406 13.28125 C 19.359375 11.480469 20 10.160156 20 8 C 20 3.601562 16.398438 0 12 0 Z M 17.71875 12.878906 C 17.601562 13.199219 17.441406 13.480469 17.28125 13.800781 C 15.480469 17.480469 12.921875 21.480469 12 22.839844 C 11.078125 21.480469 8.519531 17.519531 6.71875 13.800781 C 6.558594 13.519531 6.441406 13.199219 6.28125 12.921875 C 5.398438 11.160156 4.800781 9.960938 4.800781 8 C 4.800781 4.039062 8.039062 0.800781 12 0.800781 C 15.960938 0.800781 19.199219 4.039062 19.199219 8 C 19.199219 9.960938 18.601562 11.160156 17.71875 12.878906 Z M 17.71875 12.878906"/>
</svg>
