<svg xmlns="http://www.w3.org/2000/svg" width="32" height="32" viewBox="0 0 24 24">
    <path d="M14.398 5.602v-.403h.403c.238 0 .398-.16.398-.398 0-.242-.16-.403-.398-.403H9.199c-.238 0-.398.16-.398.403 0 .238.16.398.398.398h.403v.403c0 .89.53 1.808 1.335 2.39-.804.559-1.335 1.485-1.335 2.406v.403h-.403c-.238 0-.398.16-.398.398 0 .242.16.403.398.403h5.602c.238 0 .398-.16.398-.403 0-.238-.16-.398-.398-.398h-.36v-.403c0-.898-.543-1.824-1.359-2.402.793-.562 1.316-1.48 1.316-2.394zm-4.039 0v-.403h3.2v.403c0 .796-.598 1.636-1.399 2h-.36c-.8-.364-1.402-1.204-1.44-2zm3.243 4.796v.403h-3.16v-.403c0-.796.597-1.636 1.398-2h.36c.8.364 1.402 1.204 1.402 2zm0 0"/>
    <path d="M12 0C7.602 0 4 3.602 4 8c0 2.16.64 3.48 1.559 5.281.12.278.28.559.441.88 2.238 4.6 5.64 9.6 5.68 9.679.082.082.199.16.32.16s.238-.078.32-.2c.04-.038 3.442-5.038 5.68-9.64.16-.32.281-.601.441-.879C19.36 11.481 20 10.161 20 8c0-4.398-3.602-8-8-8zm5.719 12.879c-.117.32-.278.601-.438.922-1.8 3.68-4.36 7.68-5.281 9.039-.922-1.36-3.48-5.32-5.281-9.04-.16-.28-.278-.6-.438-.878C5.398 11.16 4.801 9.96 4.801 8 4.8 4.04 8.039.8 12 .8c3.96 0 7.2 3.24 7.2 7.2 0 1.96-.598 3.16-1.481 4.879zm0 0"/>
</svg>
