<svg xmlns="http://www.w3.org/2000/svg" width="32" height="32" viewBox="0 0 24 24">
    <path d="M13.547 6.988a.33.33 0 0 0-.137-.136l-1.129-1.133a.39.39 0 0 0-.562 0l-1.13 1.133a.33.33 0 0 0-.136.136L9.32 8.121a.385.385 0 0 0 0 .559c.16.16.399.16.559 0l.52-.52V10c0 .238.16.398.402.398.238 0 .398-.16.398-.398V7.36L12 6.558l.8.8V10c0 .238.16.398.4.398.241 0 .402-.16.402-.398V8.16l.52.52c.077.082.16.12.276.12.122 0 .204-.038.282-.12a.385.385 0 0 0 0-.559zm0 0"/>
    <path d="M12 3.2C9.36 3.2 7.2 5.36 7.2 8c0 2.64 2.16 4.8 4.8 4.8 2.64 0 4.8-2.16 4.8-4.8 0-2.64-2.16-4.8-4.8-4.8zm0 8.8c-2.2 0-4-1.8-4-4s1.8-4 4-4 4 1.8 4 4-1.8 4-4 4zm0 0"/>
    <path d="M12 0C7.602 0 4 3.602 4 8c0 2.16.64 3.48 1.559 5.281.12.278.28.559.441.88 2.238 4.6 5.64 9.6 5.68 9.679.082.082.199.16.32.16s.238-.078.32-.2c.04-.038 3.442-5.038 5.68-9.64.16-.32.281-.601.441-.879C19.36 11.481 20 10.161 20 8c0-4.398-3.602-8-8-8zm5.719 12.879c-.117.32-.278.601-.438.922-1.8 3.68-4.36 7.68-5.281 9.039-.922-1.36-3.48-5.32-5.281-9.04-.16-.28-.278-.6-.438-.878C5.398 11.16 4.801 9.96 4.801 8 4.8 4.04 8.039.8 12 .8c3.96 0 7.2 3.24 7.2 7.2 0 1.96-.598 3.16-1.481 4.879zm0 0"/>
</svg>
