<svg xmlns="http://www.w3.org/2000/svg" width="32" height="32" viewBox="0 0 24 24">
    <path d="M 12 4 C 9.800781 4 8 5.800781 8 8 C 8 10.199219 9.800781 12 12 12 C 14.199219 12 16 10.199219 16 8 C 16 5.800781 14.199219 4 12 4 Z M 12 11.199219 C 10.238281 11.199219 8.800781 9.761719 8.800781 8 C 8.800781 6.238281 10.238281 4.800781 12 4.800781 C 13.761719 4.800781 15.199219 6.238281 15.199219 8 C 15.199219 9.761719 13.761719 11.199219 12 11.199219 Z M 12 11.199219"/>
    <path d="M 12 5.601562 C 10.679688 5.601562 9.601562 6.679688 9.601562 8 C 9.601562 8.238281 9.761719 8.398438 10 8.398438 C 10.238281 8.398438 10.398438 8.238281 10.398438 8 C 10.398438 7.121094 11.121094 6.398438 12 6.398438 C 12.238281 6.398438 12.398438 6.238281 12.398438 6 C 12.398438 5.761719 12.238281 5.601562 12 5.601562 Z M 12 5.601562"/>
    <path d="M 12 0 C 7.601562 0 4 3.601562 4 8 C 4 10.160156 4.640625 11.480469 5.558594 13.28125 C 5.679688 13.558594 5.839844 13.839844 6 14.160156 C 8.238281 18.761719 11.640625 23.761719 11.679688 23.839844 C 11.761719 23.921875 11.878906 24 12 24 C 12.121094 24 12.238281 23.921875 12.320312 23.800781 C 12.359375 23.761719 15.761719 18.761719 18 14.160156 C 18.160156 13.839844 18.28125 13.558594 18.441406 13.28125 C 19.359375 11.480469 20 10.160156 20 8 C 20 3.601562 16.398438 0 12 0 Z M 17.71875 12.878906 C 17.601562 13.199219 17.441406 13.480469 17.28125 13.800781 C 15.480469 17.480469 12.921875 21.480469 12 22.839844 C 11.078125 21.480469 8.519531 17.519531 6.71875 13.800781 C 6.558594 13.519531 6.441406 13.199219 6.28125 12.921875 C 5.398438 11.160156 4.800781 9.960938 4.800781 8 C 4.800781 4.039062 8.039062 0.800781 12 0.800781 C 15.960938 0.800781 19.199219 4.039062 19.199219 8 C 19.199219 9.960938 18.601562 11.160156 17.71875 12.878906 Z M 17.71875 12.878906"/>
</svg>
