<svg xmlns="http://www.w3.org/2000/svg" width="32" height="32" viewBox="0 0 24 24">
    <path d="M 12 3.199219 C 9.359375 3.199219 7.199219 5.359375 7.199219 8 C 7.199219 10.640625 9.359375 12.800781 12 12.800781 C 14.640625 12.800781 16.800781 10.640625 16.800781 8 C 16.800781 5.359375 14.640625 3.199219 12 3.199219 Z M 12 12 C 9.800781 12 8 10.199219 8 8 C 8 5.800781 9.800781 4 12 4 C 14.199219 4 16 5.800781 16 8 C 16 10.199219 14.199219 12 12 12 Z M 12 12"/>
    <path d="M 13.320312 8.921875 L 12.398438 9.839844 L 12.398438 5.199219 C 12.398438 4.960938 12.238281 4.800781 12 4.800781 C 11.761719 4.800781 11.601562 4.960938 11.601562 5.199219 L 11.601562 9.839844 L 10.679688 8.921875 C 10.519531 8.761719 10.28125 8.761719 10.121094 8.921875 C 9.960938 9.078125 9.960938 9.320312 10.121094 9.480469 L 11.652344 11.011719 C 11.71875 11.128906 11.839844 11.199219 12 11.199219 C 12.160156 11.199219 12.28125 11.128906 12.347656 11.011719 L 13.878906 9.480469 C 14.039062 9.320312 14.039062 9.078125 13.878906 8.921875 C 13.71875 8.761719 13.480469 8.761719 13.320312 8.921875 Z M 13.320312 8.921875"/>
    <path d="M 12 0 C 7.601562 0 4 3.601562 4 8 C 4 10.160156 4.640625 11.480469 5.558594 13.28125 C 5.679688 13.558594 5.839844 13.839844 6 14.160156 C 8.238281 18.761719 11.640625 23.761719 11.679688 23.839844 C 11.761719 23.921875 11.878906 24 12 24 C 12.121094 24 12.238281 23.921875 12.320312 23.800781 C 12.359375 23.761719 15.761719 18.761719 18 14.160156 C 18.160156 13.839844 18.28125 13.558594 18.441406 13.28125 C 19.359375 11.480469 20 10.160156 20 8 C 20 3.601562 16.398438 0 12 0 Z M 17.71875 12.878906 C 17.601562 13.199219 17.441406 13.480469 17.28125 13.800781 C 15.480469 17.480469 12.921875 21.480469 12 22.839844 C 11.078125 21.480469 8.519531 17.519531 6.71875 13.800781 C 6.558594 13.519531 6.441406 13.199219 6.28125 12.921875 C 5.398438 11.160156 4.800781 9.960938 4.800781 8 C 4.800781 4.039062 8.039062 0.800781 12 0.800781 C 15.960938 0.800781 19.199219 4.039062 19.199219 8 C 19.199219 9.960938 18.601562 11.160156 17.71875 12.878906 Z M 17.71875 12.878906"/>
</svg>
