<svg xmlns="http://www.w3.org/2000/svg" width="32" height="32" viewBox="0 0 24 24">
    <path d="M 15.601562 6.398438 L 13.601562 6.398438 L 13.601562 4.398438 C 13.601562 4.160156 13.441406 4 13.199219 4 L 10.800781 4 C 10.558594 4 10.398438 4.160156 10.398438 4.398438 L 10.398438 6.398438 L 8.398438 6.398438 C 8.160156 6.398438 8 6.558594 8 6.800781 L 8 9.199219 C 8 9.441406 8.160156 9.601562 8.398438 9.601562 L 10.398438 9.601562 L 10.398438 11.601562 C 10.398438 11.839844 10.558594 12 10.800781 12 L 13.199219 12 C 13.441406 12 13.601562 11.839844 13.601562 11.601562 L 13.601562 9.601562 L 15.601562 9.601562 C 15.839844 9.601562 16 9.441406 16 9.199219 L 16 6.800781 C 16 6.558594 15.839844 6.398438 15.601562 6.398438 Z M 15.199219 8.800781 L 13.199219 8.800781 C 12.960938 8.800781 12.800781 8.960938 12.800781 9.199219 L 12.800781 11.199219 L 11.199219 11.199219 L 11.199219 9.199219 C 11.199219 8.960938 11.039062 8.800781 10.800781 8.800781 L 8.800781 8.800781 L 8.800781 7.199219 L 10.800781 7.199219 C 11.039062 7.199219 11.199219 7.039062 11.199219 6.800781 L 11.199219 4.800781 L 12.800781 4.800781 L 12.800781 6.800781 C 12.800781 7.039062 12.960938 7.199219 13.199219 7.199219 L 15.199219 7.199219 Z M 15.199219 8.800781"/>
    <path d="M 12 0 C 7.601562 0 4 3.601562 4 8 C 4 10.160156 4.640625 11.480469 5.558594 13.28125 C 5.679688 13.558594 5.839844 13.839844 6 14.160156 C 8.238281 18.761719 11.640625 23.761719 11.679688 23.839844 C 11.761719 23.921875 11.878906 24 12 24 C 12.121094 24 12.238281 23.921875 12.320312 23.800781 C 12.359375 23.761719 15.761719 18.761719 18 14.160156 C 18.160156 13.839844 18.28125 13.558594 18.441406 13.28125 C 19.359375 11.480469 20 10.160156 20 8 C 20 3.601562 16.398438 0 12 0 Z M 17.71875 12.878906 C 17.601562 13.199219 17.441406 13.480469 17.28125 13.800781 C 15.480469 17.480469 12.921875 21.480469 12 22.839844 C 11.078125 21.480469 8.519531 17.519531 6.71875 13.800781 C 6.558594 13.519531 6.441406 13.199219 6.28125 12.921875 C 5.398438 11.160156 4.800781 9.960938 4.800781 8 C 4.800781 4.039062 8.039062 0.800781 12 0.800781 C 15.960938 0.800781 19.199219 4.039062 19.199219 8 C 19.199219 9.960938 18.601562 11.160156 17.71875 12.878906 Z M 17.71875 12.878906"/>
</svg>
