<svg xmlns="http://www.w3.org/2000/svg" width="32" height="32" viewBox="0 0 24 24">
    <path d="M15.398 4.602a.297.297 0 0 0-.09-.07A4.777 4.777 0 0 0 12 3.198C9.36 3.2 7.2 5.36 7.2 8c0 1.281.507 2.445 1.331 3.309.016.03.04.062.07.09a.358.358 0 0 0 .098.078A4.776 4.776 0 0 0 12 12.8c2.64 0 4.8-2.16 4.8-4.801a4.777 4.777 0 0 0-1.331-3.309.297.297 0 0 0-.07-.09zM12 4c.957 0 1.84.34 2.531.91l-5.62 5.621A3.966 3.966 0 0 1 8 8c0-2.2 1.8-4 4-4zm0 8c-.957 0-1.84-.34-2.531-.91l5.62-5.621C15.66 6.16 16 7.043 16 8c0 2.2-1.8 4-4 4zm0 0"/>
    <path d="M12 0C7.602 0 4 3.602 4 8c0 2.16.64 3.48 1.559 5.281.12.278.28.559.441.88 2.238 4.6 5.64 9.6 5.68 9.679.082.082.199.16.32.16s.238-.078.32-.2c.04-.038 3.442-5.038 5.68-9.64.16-.32.281-.601.441-.879C19.36 11.481 20 10.161 20 8c0-4.398-3.602-8-8-8zm5.719 12.879c-.117.32-.278.601-.438.922-1.8 3.68-4.36 7.68-5.281 9.039-.922-1.36-3.48-5.32-5.281-9.04-.16-.28-.278-.6-.438-.878C5.398 11.16 4.801 9.96 4.801 8 4.8 4.04 8.039.8 12 .8c3.96 0 7.2 3.24 7.2 7.2 0 1.96-.598 3.16-1.481 4.879zm0 0"/>
</svg>
