<svg xmlns="http://www.w3.org/2000/svg" width="32" height="32" viewBox="0 0 24 24">
    <path d="M 16.277344 7.566406 C 16.792969 7.433594 17.199219 6.945312 17.199219 6.398438 L 17.199219 5.199219 C 17.199219 4.558594 16.679688 4 16 4 L 14.800781 4 L 14.800781 2.800781 C 14.800781 2.558594 14.640625 2.398438 14.398438 2.398438 L 13.601562 2.398438 L 13.601562 0.398438 C 13.601562 0.160156 13.441406 0 13.199219 0 L 10.800781 0 C 10.558594 0 10.398438 0.160156 10.398438 0.398438 L 10.398438 2.398438 L 9.601562 2.398438 C 9.359375 2.398438 9.199219 2.558594 9.199219 2.800781 L 9.199219 4 L 8 4 C 7.359375 4 6.800781 4.519531 6.800781 5.199219 L 6.800781 6.398438 C 6.800781 6.964844 7.207031 7.46875 7.773438 7.578125 C 8.160156 8.191406 8.398438 9.148438 8.398438 10 C 8.398438 10.839844 8.132812 11.777344 7.785156 12.421875 C 7.238281 12.523438 6.800781 12.996094 6.800781 13.601562 L 6.800781 22.800781 C 6.800781 23.441406 7.320312 24 8 24 L 16 24 C 16.640625 24 17.199219 23.441406 17.199219 22.800781 L 17.199219 13.601562 C 17.199219 13.035156 16.792969 12.53125 16.226562 12.421875 C 15.839844 11.808594 15.601562 10.851562 15.601562 10 C 15.601562 9.363281 16.035156 8.167969 16.277344 7.566406 Z M 15.320312 12.398438 L 8.679688 12.398438 C 9 11.679688 9.199219 10.800781 9.199219 10 C 9.199219 9.199219 9 8.320312 8.679688 7.601562 L 15.398438 7.601562 C 15.160156 8.238281 14.800781 9.320312 14.800781 10 C 14.800781 10.800781 15 11.679688 15.320312 12.398438 Z M 11.199219 0.800781 L 12.800781 0.800781 L 12.800781 2.398438 L 11.199219 2.398438 Z M 10 3.199219 L 14 3.199219 L 14 4 L 10 4 Z M 7.601562 5.199219 C 7.601562 5 7.761719 4.800781 8 4.800781 L 16 4.800781 C 16.199219 4.800781 16.398438 4.960938 16.398438 5.199219 L 16.398438 6.398438 C 16.398438 6.601562 16.238281 6.800781 16 6.800781 L 8 6.800781 C 7.800781 6.800781 7.601562 6.640625 7.601562 6.398438 Z M 16.398438 22.800781 C 16.398438 23 16.238281 23.199219 16 23.199219 L 8 23.199219 C 7.800781 23.199219 7.601562 23.039062 7.601562 22.800781 L 7.601562 13.601562 C 7.601562 13.398438 7.761719 13.199219 8 13.199219 L 16 13.199219 C 16.199219 13.199219 16.398438 13.359375 16.398438 13.601562 Z M 16.398438 22.800781"/>
    <path d="M 13.601562 17.601562 L 11.359375 17.601562 L 13.078125 15.878906 C 13.238281 15.71875 13.238281 15.480469 13.078125 15.320312 C 12.921875 15.160156 12.679688 15.160156 12.519531 15.320312 L 10.121094 17.71875 C 10 17.839844 10 18.039062 10.039062 18.199219 C 10.078125 18.359375 10.238281 18.441406 10.398438 18.441406 L 12.71875 18.441406 L 10.878906 20.558594 C 10.71875 20.71875 10.761719 20.960938 10.917969 21.121094 C 11 21.160156 11.121094 21.199219 11.199219 21.199219 C 11.320312 21.199219 11.441406 21.160156 11.519531 21.078125 L 13.917969 18.28125 C 14 18.160156 14.039062 18 13.960938 17.839844 C 13.878906 17.679688 13.761719 17.601562 13.601562 17.601562 Z M 13.601562 17.601562"/>
</svg>
