<svg xmlns="http://www.w3.org/2000/svg" width="32" height="32" viewBox="0 0 24 24">
    <path d="M 22.398438 8.398438 C 22.105469 8.398438 21.828125 8.480469 21.589844 8.621094 C 21.5 7.824219 20.820312 7.199219 20 7.199219 C 19.121094 7.199219 18.398438 7.921875 18.398438 8.800781 L 18.398438 9.601562 L 5.601562 9.601562 L 5.601562 8.800781 C 5.601562 7.921875 4.878906 7.199219 4 7.199219 C 3.179688 7.199219 2.5 7.824219 2.410156 8.621094 C 2.171875 8.480469 1.894531 8.398438 1.601562 8.398438 C 0.71875 8.398438 0 9.121094 0 10 L 0 14 C 0 14.878906 0.71875 15.601562 1.601562 15.601562 C 1.894531 15.601562 2.171875 15.519531 2.410156 15.378906 C 2.5 16.175781 3.179688 16.800781 4 16.800781 C 4.878906 16.800781 5.601562 16.078125 5.601562 15.199219 L 5.601562 14.398438 L 18.398438 14.398438 L 18.398438 15.199219 C 18.398438 16.078125 19.121094 16.800781 20 16.800781 C 20.820312 16.800781 21.5 16.175781 21.589844 15.378906 C 21.828125 15.519531 22.105469 15.601562 22.398438 15.601562 C 23.28125 15.601562 24 14.878906 24 14 L 24 10 C 24 9.121094 23.28125 8.398438 22.398438 8.398438 Z M 1.601562 14.800781 C 1.160156 14.800781 0.800781 14.441406 0.800781 14 L 0.800781 10 C 0.800781 9.558594 1.160156 9.199219 1.601562 9.199219 C 2.039062 9.199219 2.398438 9.558594 2.398438 10 L 2.398438 14 C 2.398438 14.441406 2.039062 14.800781 1.601562 14.800781 Z M 4.800781 15.199219 C 4.800781 15.640625 4.441406 16 4 16 C 3.558594 16 3.199219 15.640625 3.199219 15.199219 L 3.199219 8.800781 C 3.199219 8.359375 3.558594 8 4 8 C 4.441406 8 4.800781 8.359375 4.800781 8.800781 Z M 14 13.601562 C 14 13.359375 13.839844 13.199219 13.601562 13.199219 C 13.359375 13.199219 13.199219 13.359375 13.199219 13.601562 L 12.398438 13.601562 C 12.398438 13.359375 12.238281 13.199219 12 13.199219 C 11.761719 13.199219 11.601562 13.359375 11.601562 13.601562 L 10.800781 13.601562 C 10.800781 13.359375 10.640625 13.199219 10.398438 13.199219 C 10.160156 13.199219 10 13.359375 10 13.601562 L 5.601562 13.601562 L 5.601562 10.398438 L 10 10.398438 C 10 10.640625 10.160156 10.800781 10.398438 10.800781 C 10.640625 10.800781 10.800781 10.640625 10.800781 10.398438 L 11.601562 10.398438 C 11.601562 10.640625 11.761719 10.800781 12 10.800781 C 12.238281 10.800781 12.398438 10.640625 12.398438 10.398438 L 13.199219 10.398438 C 13.199219 10.640625 13.359375 10.800781 13.601562 10.800781 C 13.800781 10.800781 14 10.640625 14 10.398438 L 18.398438 10.398438 L 18.398438 13.601562 Z M 20.800781 15.199219 C 20.800781 15.640625 20.441406 16 20 16 C 19.558594 16 19.199219 15.640625 19.199219 15.199219 L 19.199219 8.800781 C 19.199219 8.359375 19.558594 8 20 8 C 20.441406 8 20.800781 8.359375 20.800781 8.800781 Z M 23.199219 14 C 23.199219 14.441406 22.839844 14.800781 22.398438 14.800781 C 21.960938 14.800781 21.601562 14.441406 21.601562 14 L 21.601562 10 C 21.601562 9.558594 21.960938 9.199219 22.398438 9.199219 C 22.839844 9.199219 23.199219 9.558594 23.199219 10 Z M 23.199219 14"/>
    <path d="M11.199219 11.601562C11.441406 11.601562 11.601562 11.441406 11.601562 11.199219 11.601562 10.960938 11.441406 10.800781 11.199219 10.800781 10.960938 10.800781 10.800781 10.960938 10.800781 11.199219 10.800781 11.441406 10.960938 11.601562 11.199219 11.601562zM12.800781 11.601562C13.039062 11.601562 13.199219 11.441406 13.199219 11.199219 13.199219 10.960938 13.039062 10.800781 12.800781 10.800781 12.558594 10.800781 12.398438 10.960938 12.398438 11.199219 12.398438 11.441406 12.558594 11.601562 12.800781 11.601562zM10.398438 11.601562C10.160156 11.601562 10 11.761719 10 12 10 12.238281 10.160156 12.398438 10.398438 12.398438 10.640625 12.398438 10.800781 12.238281 10.800781 12 10.800781 11.761719 10.640625 11.601562 10.398438 11.601562zM12 11.601562C11.761719 11.601562 11.601562 11.761719 11.601562 12 11.601562 12.238281 11.761719 12.398438 12 12.398438 12.238281 12.398438 12.398438 12.238281 12.398438 12 12.398438 11.761719 12.238281 11.601562 12 11.601562zM13.601562 11.601562C13.359375 11.601562 13.199219 11.761719 13.199219 12 13.199219 12.238281 13.359375 12.398438 13.601562 12.398438 13.800781 12.398438 14 12.238281 14 12 14 11.761719 13.839844 11.601562 13.601562 11.601562zM11.199219 12.398438C10.960938 12.398438 10.800781 12.558594 10.800781 12.800781 10.800781 13.039062 10.960938 13.199219 11.199219 13.199219 11.441406 13.199219 11.601562 13.039062 11.601562 12.800781 11.601562 12.558594 11.441406 12.398438 11.199219 12.398438zM12.800781 12.398438C12.558594 12.398438 12.398438 12.558594 12.398438 12.800781 12.398438 13.039062 12.558594 13.199219 12.800781 13.199219 13.039062 13.199219 13.199219 13.039062 13.199219 12.800781 13.199219 12.558594 13.039062 12.398438 12.800781 12.398438zM12.800781 12.398438"/>
</svg>
