<svg xmlns="http://www.w3.org/2000/svg" width="32" height="32" viewBox="0 0 24 24">
    <path d="M22.602 2.602c-.243 0-.47.062-.672.175a1.416 1.416 0 0 0-1.328-.976c-.762 0-1.403.64-1.403 1.398v.602H4.801v-.602c0-.758-.64-1.398-1.403-1.398-.609 0-1.144.414-1.328.976a1.368 1.368 0 0 0-.672-.175C.641 2.602 0 3.238 0 4v2c0 .762.64 1.398 1.398 1.398.243 0 .47-.062.672-.175.184.562.72.976 1.328.976.762 0 1.403-.64 1.403-1.398v-.602h.8v1.2c0 .242.16.402.399.402h.398v14c0 .238.16.398.403.398a.4.4 0 0 0 .398-.398v-14h.403A.4.4 0 0 0 8 7.398V6.2h8v1.2c0 .242.16.402.398.402h.403v14c0 .238.16.398.398.398.2 0 .403-.16.403-.398v-14H18a.4.4 0 0 0 .398-.403V6.2h.801v.602c0 .758.64 1.398 1.403 1.398.609 0 1.144-.414 1.328-.976.203.113.43.175.672.175C23.359 7.398 24 6.762 24 6V4c0-.762-.64-1.398-1.398-1.398zm-21.204 4A.614.614 0 0 1 .801 6V4c0-.32.277-.602.597-.602.32 0 .602.282.602.602v2c0 .32-.281.602-.602.602zM4 6.8c0 .32-.281.597-.602.597a.61.61 0 0 1-.597-.597V3.199a.61.61 0 0 1 .597-.597c.32 0 .602.277.602.597zM7.2 7h-.802v-.8H7.2zm10.402 0H16.8v-.8h.8zM18 5.398H4.8v-.796h14.4v.796zm3.2 1.403a.61.61 0 0 1-.598.597.614.614 0 0 1-.602-.597V3.199c0-.32.281-.597.602-.597a.61.61 0 0 1 .597.597zm2-.801c0 .32-.278.602-.598.602A.618.618 0 0 1 22 6V4c0-.32.281-.602.602-.602.32 0 .597.282.597.602zm0 0"/>
    <path d="M14.8 13.8H9.2c-.68 0-1.2.52-1.2 1.2 0 .54.328.977.8 1.137V21.8c0 .238.16.398.4.398.241 0 .402-.16.402-.398v-5.602h4.796v5.602c0 .238.16.398.403.398a.4.4 0 0 0 .398-.398v-5.672c.457-.16.801-.598.801-1.129 0-.68-.52-1.2-1.2-1.2zm0 1.598H9.2c-.24 0-.4-.16-.4-.398 0-.238.16-.398.4-.398h5.6c.24 0 .4.16.4.398 0 .238-.16.398-.4.398zm0 0"/>
</svg>
