<svg xmlns="http://www.w3.org/2000/svg" width="32" height="32" viewBox="0 0 24 24">
    <path d="M23.402 17.473a1.841 1.841 0 0 0-.793-.477c.559-.73.5-1.75-.172-2.422a1.835 1.835 0 0 0-2.62 0l-.645.645-3.242-3.242 3.238-3.239.648.64c.32.368.782.552 1.286.552.507 0 .921-.274 1.289-.598.367-.32.55-.828.55-1.285 0-.39-.132-.777-.394-1.11.305-.07.598-.21.808-.453l.094-.093a1.754 1.754 0 0 0 0-2.485L20.137.598a1.835 1.835 0 0 0-2.621 0 1.862 1.862 0 0 0-.48.82 1.833 1.833 0 0 0-2.462.145 1.835 1.835 0 0 0 0 2.62l.672.665-3.223 3.222-3.285-3.285.64-.648c.368-.32.552-.782.552-1.285 0-.508-.184-.965-.551-1.29-.32-.367-.781-.55-1.285-.55-.38 0-.754.12-1.078.367A1.867 1.867 0 0 0 6.527.55a1.835 1.835 0 0 0-2.62 0L.644 3.816a1.828 1.828 0 0 0 0 2.622c.234.234.503.39.789.476a1.826 1.826 0 0 0 .175 2.418c.368.367.829.555 1.29.555.456 0 .917-.188 1.285-.508l.664-.668 3.265 3.266-3.285 3.289-.644-.645c-.32-.367-.829-.55-1.286-.55-.46 0-.921.183-1.289.55-.367.32-.55.781-.55 1.285 0 .39.132.781.398 1.117-.312.079-.61.247-.86.493l-.046.047a1.811 1.811 0 0 0 0 2.53l3.402 3.403c.324.32.781.504 1.195.504.461 0 .875-.184 1.196-.504l.14-.094c.246-.25.414-.547.493-.859.335.266.726.398 1.117.398.457 0 .965-.183 1.285-.503a1.835 1.835 0 0 0 0-2.622l-.645-.644 3.29-3.285 3.242 3.238-.645.645c-.367.324-.55.78-.55 1.289 0 .457.23.918.55 1.285.32.367.781.554 1.285.554.387 0 .805-.132 1.121-.39.078.308.243.601.489.847l.183.184c.278.324.692.461 1.106.461.414 0 .828-.184 1.148-.504L23.45 20a1.754 1.754 0 0 0 0-2.484zM18.16 1.289a.895.895 0 0 1 .645-.277c.277 0 .504.09.644.32l3.309 3.313a.8.8 0 0 1 0 1.148l-.047.047c-.27.308-.73.355-1.09.148l-3.613-3.613a.868.868 0 0 1-.121-.445c0-.23.09-.457.273-.64zm-2.894 2.25a.887.887 0 0 1 0-1.285.91.91 0 0 1 .64-.277c.23 0 .461.093.645.277l5.195 5.195a.911.911 0 0 1 .277.645.91.91 0 0 1-.277.64c-.32.368-.918.368-1.285 0l-.645-.64-3.91-3.91zm.597 1.977l2.621 2.62-3.195 3.196-2.621-2.621zM1.29 4.504l3.215-3.262a.918.918 0 0 1 .644-.277.94.94 0 0 1 .692.277.89.89 0 0 1 .07 1.211l-3.515 3.48a.877.877 0 0 1-1.106-.14.885.885 0 0 1 0-1.29zM3.54 8.69a.887.887 0 0 1-1.285 0 .892.892 0 0 1 0-1.289l.789-.789c.074-.05.148-.113.223-.176l3.261-3.265c.086-.086.164-.176.227-.274l.695-.691a.911.911 0 0 1 .645-.277.91.91 0 0 1 .64.277.911.911 0 0 1 .278.645c0 .23-.094.457-.278.644zm3.242-1.933l1.313-1.285 3.27 3.254-.009.007 3.91 3.91.016-.015 3.203 3.187-2.62 2.621L5.487 8.063zM5.84 22.71l-.14.14c-.274.274-.782.274-1.055 0l-3.403-3.355c-.324-.371-.324-.922 0-1.242l.047-.047a.902.902 0 0 1 .64-.277c.231 0 .462.047.645.23l3.266 3.266a.887.887 0 0 1 0 1.285zm2.894-2.25a.887.887 0 0 1 0 1.285.887.887 0 0 1-1.285 0l-5.195-5.195a.911.911 0 0 1-.277-.645.91.91 0 0 1 .277-.64.911.911 0 0 1 .644-.278.91.91 0 0 1 .641.278l.645.64 3.91 3.91zm2.621-5.195l-3.261 3.261-2.621-2.62 3.308-3.262zm3.91 6.433a.902.902 0 0 1-.277-.64c0-.23.094-.461.278-.645l.64-.644 3.91-3.907.645-.644a.91.91 0 0 1 .64-.278c.231 0 .462.094.645.278a.887.887 0 0 1 0 1.285l-.965.969-1.633 1.629-2.597 2.597c-.32.371-.918.371-1.285 0zm7.54-2.297l-3.496 3.496a.67.67 0 0 1-.965 0l-.184-.187a.887.887 0 0 1 0-1.285l1.656-1.656 1.77-1.739a.877.877 0 0 1 .484-.144c.23 0 .457.09.688.32l.047.047c.32.32.32.828 0 1.148zm0 0"/>
</svg>
