<svg xmlns="http://www.w3.org/2000/svg" width="32" height="32" viewBox="0 0 24 24">
    <path d="M 22.199219 15.800781 C 22.199219 15.414062 22.035156 15.054688 21.769531 14.800781 C 22.035156 14.542969 22.199219 14.1875 22.199219 13.800781 C 22.199219 13.039062 21.558594 12.398438 20.800781 12.398438 L 20.601562 12.398438 L 20.601562 4 C 20.601562 2.574219 19.566406 1.417969 18.199219 1.226562 L 18.199219 0.398438 C 18.199219 0.160156 18.039062 0 17.800781 0 C 17.558594 0 17.398438 0.160156 17.398438 0.398438 L 17.398438 1.199219 L 14.628906 1.199219 L 14.601562 0.398438 C 14.601562 0.160156 14.398438 0 14.199219 0 L 11.800781 0 C 11.601562 0 11.398438 0.199219 11.398438 0.398438 L 11.371094 1.199219 L 8.199219 1.199219 C 6.199219 1.199219 4.601562 2.800781 4.601562 4.800781 L 4.601562 5.601562 C 4.601562 5.679688 4.601562 5.761719 4.640625 5.800781 L 5.800781 7.734375 L 5.800781 9.199219 L 5.601562 9.199219 C 5.039062 9.199219 4.601562 9.640625 4.601562 10.160156 L 4.601562 11.398438 C 4.601562 11.960938 5.039062 12.398438 5.601562 12.398438 L 6.800781 12.398438 C 7.359375 12.398438 7.800781 11.960938 7.839844 11.441406 L 7.839844 10.199219 C 7.839844 9.640625 7.398438 9.199219 6.839844 9.199219 L 6.601562 9.199219 L 6.601562 7.734375 L 7.761719 5.800781 C 7.800781 5.761719 7.800781 5.679688 7.800781 5.601562 L 7.800781 4.800781 C 7.800781 4.558594 7.960938 4.398438 8.199219 4.398438 L 11.257812 4.398438 L 10.816406 16.800781 L 3.039062 16.800781 C 2.359375 16.800781 1.800781 17.359375 1.800781 18.078125 L 1.800781 18.761719 C 1.800781 19.441406 2.359375 20 3.039062 20 L 3.800781 20 L 3.800781 23.601562 C 3.800781 23.839844 3.960938 24 4.199219 24 C 4.398438 24 4.601562 23.839844 4.601562 23.601562 L 4.601562 20 L 10.703125 20 L 10.601562 22.878906 C 10.601562 23.160156 10.71875 23.480469 10.921875 23.679688 C 11.121094 23.878906 11.398438 24 11.71875 24 L 14.28125 24 C 14.558594 24 14.839844 23.878906 15.039062 23.679688 C 15.28125 23.480469 15.359375 23.199219 15.359375 22.878906 L 14.734375 4.398438 L 15.039062 4.398438 C 15.199219 5.601562 16.160156 6.601562 17.398438 6.761719 L 17.398438 12.398438 L 17.199219 12.398438 C 16.441406 12.398438 15.800781 13.039062 15.800781 13.800781 C 15.800781 14.1875 15.96875 14.542969 16.230469 14.800781 C 15.96875 15.054688 15.800781 15.414062 15.800781 15.800781 C 15.800781 16.1875 15.96875 16.542969 16.230469 16.800781 C 15.96875 17.054688 15.800781 17.414062 15.800781 17.800781 C 15.800781 18.558594 16.441406 19.199219 17.199219 19.199219 L 20.800781 19.199219 C 21.558594 19.199219 22.199219 18.558594 22.199219 17.800781 C 22.199219 17.414062 22.035156 17.054688 21.769531 16.800781 C 22.035156 16.542969 22.199219 16.1875 22.199219 15.800781 Z M 7.039062 10.160156 L 7.039062 11.398438 C 7.039062 11.519531 6.960938 11.601562 6.839844 11.601562 L 5.601562 11.601562 C 5.480469 11.601562 5.398438 11.519531 5.398438 11.441406 L 5.398438 10.199219 C 5.398438 10.078125 5.480469 10 5.601562 10 L 5.601562 9.960938 L 6.011719 9.960938 C 6.066406 9.984375 6.128906 10 6.199219 10 C 6.257812 10 6.316406 9.984375 6.371094 9.960938 L 6.839844 9.960938 C 6.960938 9.960938 7.039062 10.039062 7.039062 10.160156 Z M 7 4.800781 L 7 5.480469 L 6.199219 6.800781 L 5.398438 5.480469 L 5.398438 4.800781 C 5.398438 3.238281 6.640625 2 8.199219 2 L 11.320312 2 L 11.28125 3.601562 L 8.199219 3.601562 C 7.519531 3.601562 7 4.121094 7 4.800781 Z M 2.601562 18.71875 L 2.601562 18.039062 C 2.601562 17.800781 2.800781 17.601562 3.039062 17.601562 L 10.761719 17.601562 L 10.71875 19.199219 L 3.039062 19.199219 C 2.800781 19.199219 2.601562 19 2.601562 18.71875 Z M 17.800781 4 C 18 4 18.199219 3.839844 18.199219 3.601562 L 18.199219 3.308594 C 18.4375 3.449219 18.601562 3.707031 18.601562 4 C 18.601562 4.441406 18.238281 4.800781 17.800781 4.800781 C 17.359375 4.800781 17 4.441406 17 4 C 17 3.707031 17.160156 3.449219 17.398438 3.308594 L 17.398438 3.601562 C 17.398438 3.839844 17.558594 4 17.800781 4 Z M 14.480469 23.121094 C 14.441406 23.160156 14.359375 23.199219 14.28125 23.199219 L 11.71875 23.199219 C 11.640625 23.199219 11.558594 23.199219 11.519531 23.121094 C 11.480469 23.039062 11.441406 22.960938 11.441406 22.878906 L 12.199219 0.800781 L 13.800781 0.800781 L 14.558594 22.878906 C 14.558594 23 14.519531 23.078125 14.480469 23.121094 Z M 17.800781 6 C 16.679688 6 15.800781 5.121094 15.800781 4 C 15.800781 3.761719 15.640625 3.601562 15.398438 3.601562 L 14.707031 3.601562 L 14.652344 2 L 17.398438 2 L 17.398438 2.449219 C 16.710938 2.628906 16.199219 3.257812 16.199219 4 C 16.199219 4.878906 16.921875 5.601562 17.800781 5.601562 C 18.679688 5.601562 19.398438 4.878906 19.398438 4 C 19.398438 3.257812 18.886719 2.628906 18.199219 2.449219 L 18.199219 2.039062 C 19.121094 2.21875 19.800781 3.015625 19.800781 4 L 19.800781 12.398438 L 18.199219 12.398438 L 18.199219 6.398438 C 18.199219 6.160156 18.039062 6 17.800781 6 Z M 16.601562 13.800781 C 16.601562 13.480469 16.878906 13.199219 17.199219 13.199219 L 20.800781 13.199219 C 21.121094 13.199219 21.398438 13.480469 21.398438 13.800781 C 21.398438 14.121094 21.121094 14.398438 20.800781 14.398438 L 17.199219 14.398438 C 16.878906 14.398438 16.601562 14.121094 16.601562 13.800781 Z M 21.398438 17.800781 C 21.398438 18.121094 21.121094 18.398438 20.800781 18.398438 L 17.199219 18.398438 C 16.878906 18.398438 16.601562 18.121094 16.601562 17.800781 C 16.601562 17.480469 16.878906 17.199219 17.199219 17.199219 L 20.800781 17.199219 C 21.121094 17.199219 21.398438 17.480469 21.398438 17.800781 Z M 17.199219 16.398438 C 16.878906 16.398438 16.601562 16.121094 16.601562 15.800781 C 16.601562 15.480469 16.878906 15.199219 17.199219 15.199219 L 20.800781 15.199219 C 21.121094 15.199219 21.398438 15.480469 21.398438 15.800781 C 21.398438 16.121094 21.121094 16.398438 20.800781 16.398438 Z M 17.199219 16.398438"/>
</svg>
