<svg xmlns="http://www.w3.org/2000/svg" width="32" height="32" viewBox="0 0 24 24">
    <path d="M 24 4.882812 C 24 3.578125 23.472656 2.359375 22.578125 1.421875 C 21.640625 0.488281 20.421875 0 19.117188 0 C 17.980469 0 16.902344 0.375 16.023438 1.09375 C 15.195312 0.855469 14.296875 1.078125 13.667969 1.707031 L 9.355469 6.058594 L 8.867188 5.574219 C 8.707031 5.410156 8.460938 5.289062 8.175781 5.289062 C 7.933594 5.289062 7.6875 5.371094 7.484375 5.574219 L 6.140625 6.914062 L 0.324219 12.730469 C 0.121094 12.9375 0 13.21875 0 13.503906 C 0 13.789062 0.121094 14.074219 0.285156 14.238281 L 3.089844 17.042969 C 3.375 17.328125 3.742188 17.492188 4.148438 17.492188 C 4.554688 17.492188 4.921875 17.328125 5.207031 17.042969 L 6.050781 16.195312 C 6.097656 16.175781 6.144531 16.148438 6.183594 16.109375 L 7.320312 14.96875 C 7.367188 14.925781 7.398438 14.871094 7.421875 14.816406 L 9.480469 12.746094 C 9.535156 12.726562 9.578125 12.695312 9.601562 12.652344 L 10.738281 11.511719 C 10.773438 11.476562 10.800781 11.433594 10.824219 11.394531 L 11.757812 10.453125 C 12.324219 9.925781 12.324219 9.03125 11.757812 8.460938 L 11.613281 8.320312 L 14.292969 5.636719 C 14.445312 6.652344 14.910156 7.585938 15.660156 8.339844 C 16.402344 9.082031 17.328125 9.542969 18.328125 9.699219 L 15.679688 12.347656 L 15.539062 12.203125 C 14.96875 11.675781 14.035156 11.675781 13.503906 12.203125 L 12.53125 13.183594 C 12.515625 13.195312 12.503906 13.207031 12.488281 13.21875 L 11.347656 14.359375 C 11.324219 14.386719 11.300781 14.410156 11.285156 14.4375 L 9.132812 16.601562 C 9.097656 16.621094 9.0625 16.644531 9.03125 16.679688 L 7.890625 17.816406 C 7.855469 17.851562 7.828125 17.894531 7.808594 17.9375 L 6.996094 18.753906 C 6.386719 19.363281 6.386719 20.296875 6.996094 20.910156 L 9.761719 23.675781 C 9.964844 23.878906 10.210938 24 10.496094 24 C 10.738281 24 11.023438 23.917969 11.226562 23.714844 L 18.425781 16.472656 C 18.628906 16.269531 18.710938 16.066406 18.710938 15.78125 C 18.710938 15.5 18.628906 15.292969 18.425781 15.089844 L 17.976562 14.644531 L 22.25 10.332031 C 22.871094 9.710938 23.132812 8.792969 22.914062 7.964844 C 23.628906 7.089844 24 6.015625 24 4.882812 Z M 9.335938 11.777344 L 5.898438 8.339844 L 6.46875 7.769531 L 9.90625 11.207031 Z M 8.746094 12.367188 L 7.015625 14.09375 L 3.570312 10.648438 L 5.296875 8.917969 Z M 5.878906 15.234375 L 2.441406 11.796875 L 3.011719 11.226562 L 6.449219 14.664062 Z M 4.636719 16.472656 C 4.351562 16.71875 3.90625 16.71875 3.660156 16.472656 L 0.894531 13.707031 C 0.855469 13.628906 0.8125 13.585938 0.8125 13.503906 C 0.8125 13.421875 0.855469 13.382812 0.894531 13.34375 L 1.867188 12.363281 L 5.308594 15.804688 Z M 11.226562 9.882812 L 10.453125 10.65625 L 7 7.203125 L 8.054688 6.140625 C 8.09375 6.101562 8.136719 6.101562 8.175781 6.101562 C 8.21875 6.101562 8.257812 6.101562 8.339844 6.140625 L 8.980469 6.785156 C 9.003906 6.832031 9.03125 6.875 9.070312 6.914062 L 10.78125 8.625 C 10.824219 8.667969 10.867188 8.699219 10.914062 8.71875 L 11.226562 9.03125 C 11.472656 9.273438 11.472656 9.640625 11.226562 9.882812 Z M 14.195312 2.277344 C 14.480469 1.992188 14.886719 1.789062 15.292969 1.789062 C 14.683594 2.5625 14.320312 3.539062 14.238281 4.554688 L 11.0625 7.730469 L 9.925781 6.589844 Z M 15.050781 4.882812 C 15.050781 3.78125 15.457031 2.765625 16.230469 1.992188 C 16.261719 1.964844 16.289062 1.9375 16.320312 1.90625 L 16.394531 1.871094 C 16.417969 1.847656 16.441406 1.816406 16.460938 1.78125 C 17.203125 1.144531 18.125 0.8125 19.117188 0.8125 C 20.21875 0.8125 21.234375 1.21875 22.007812 1.992188 C 22.78125 2.765625 23.1875 3.78125 23.1875 4.882812 C 23.1875 5.832031 22.882812 6.71875 22.300781 7.445312 C 22.230469 7.464844 22.171875 7.503906 22.128906 7.566406 L 22.089844 7.648438 C 22.089844 7.671875 22.074219 7.699219 22.050781 7.722656 C 22.035156 7.738281 22.023438 7.753906 22.007812 7.769531 C 21.960938 7.816406 21.914062 7.859375 21.867188 7.902344 C 21.207031 8.503906 20.367188 8.855469 19.464844 8.933594 C 19.425781 8.9375 19.386719 8.941406 19.347656 8.941406 C 19.339844 8.941406 19.328125 8.945312 19.316406 8.945312 C 19.25 8.949219 19.183594 8.949219 19.117188 8.949219 C 18.019531 8.949219 17.003906 8.542969 16.230469 7.769531 C 15.457031 6.996094 15.050781 5.980469 15.050781 4.882812 Z M 15.621094 18.0625 L 12.203125 14.644531 L 12.773438 14.074219 L 16.191406 17.492188 Z M 15.050781 18.628906 L 13.300781 20.378906 L 9.882812 16.960938 L 11.632812 15.214844 Z M 12.164062 21.519531 L 8.746094 18.101562 L 9.316406 17.53125 L 12.730469 20.949219 Z M 10.617188 23.0625 C 10.535156 23.144531 10.371094 23.144531 10.292969 23.0625 L 7.527344 20.296875 C 7.242188 20.054688 7.242188 19.605469 7.527344 19.320312 L 8.175781 18.671875 L 11.59375 22.089844 Z M 17.816406 15.863281 L 16.757812 16.921875 L 13.34375 13.503906 L 14.074219 12.773438 C 14.195312 12.691406 14.359375 12.609375 14.523438 12.609375 C 14.683594 12.609375 14.847656 12.691406 14.96875 12.8125 L 17.859375 15.703125 C 17.898438 15.742188 17.898438 15.78125 17.898438 15.824219 C 17.898438 15.824219 17.898438 15.863281 17.816406 15.863281 Z M 17.390625 14.054688 L 16.25 12.914062 L 19.410156 9.753906 C 20.441406 9.695312 21.40625 9.328125 22.210938 8.671875 C 22.167969 9.074219 22.003906 9.480469 21.722656 9.761719 Z M 17.390625 14.054688"/>
    <path d="M 21.4375 7.199219 C 22.046875 6.550781 22.371094 5.734375 22.371094 4.882812 C 22.371094 4.027344 22.046875 3.214844 21.4375 2.5625 C 20.785156 1.953125 19.972656 1.628906 19.117188 1.628906 C 18.265625 1.628906 17.410156 1.953125 16.800781 2.5625 C 16.191406 3.214844 15.863281 4.027344 15.863281 4.882812 C 15.863281 5.734375 16.191406 6.550781 16.800781 7.199219 C 17.449219 7.808594 18.265625 8.136719 19.117188 8.136719 C 19.972656 8.136719 20.828125 7.851562 21.4375 7.199219 Z M 16.679688 4.882812 C 16.679688 4.230469 16.960938 3.660156 17.410156 3.171875 C 17.859375 2.683594 18.46875 2.441406 19.117188 2.441406 C 19.769531 2.441406 20.378906 2.683594 20.828125 3.171875 C 21.316406 3.621094 21.558594 4.230469 21.558594 4.882812 C 21.558594 5.53125 21.273438 6.140625 20.828125 6.589844 C 20.378906 7.078125 19.769531 7.320312 19.117188 7.320312 C 18.46875 7.320312 17.859375 7.039062 17.410156 6.589844 C 16.921875 6.140625 16.679688 5.53125 16.679688 4.882812 Z M 16.679688 4.882812"/>
</svg>
