<svg xmlns="http://www.w3.org/2000/svg" width="32" height="32" viewBox="0 0 24 24">
    <path d="M 17.195312 9.085938 C 17.152344 8.601562 16.839844 8.210938 16.398438 8.066406 L 16.398438 0.398438 C 16.398438 0.160156 16.238281 0 16 0 L 14.398438 0 C 14.160156 0 14 0.160156 14 0.398438 L 14 8.066406 C 13.550781 8.214844 13.230469 8.621094 13.203125 9.125 C 12.203125 9.449219 11.265625 10.046875 10.53125 10.828125 C 10.394531 10.660156 10.210938 10.535156 10 10.464844 L 10 0.398438 C 10 0.160156 9.839844 0 9.601562 0 L 8 0 C 7.761719 0 7.601562 0.160156 7.601562 0.398438 L 7.601562 10.464844 C 7.148438 10.617188 6.832031 11.019531 6.800781 11.523438 C 4.191406 12.371094 2.398438 14.816406 2.398438 17.601562 C 2.398438 21.121094 5.28125 24 8.800781 24 C 10.875 24 12.726562 23 13.898438 21.457031 C 14.332031 21.542969 14.765625 21.601562 15.199219 21.601562 C 18.71875 21.601562 21.601562 18.71875 21.601562 15.199219 C 21.601562 12.417969 19.804688 9.96875 17.195312 9.085938 Z M 12.453125 12.328125 C 12.765625 12.039062 13.121094 11.789062 13.5 11.609375 C 13.71875 11.851562 14.035156 12 14.398438 12 L 16 12 C 16.355469 12 16.6875 11.839844 16.914062 11.578125 C 18.296875 12.25 19.199219 13.671875 19.199219 15.199219 C 19.199219 17.398438 17.398438 19.199219 15.199219 19.199219 C 15.136719 19.199219 15.066406 19.199219 14.996094 19.199219 C 15.128906 18.6875 15.199219 18.152344 15.199219 17.601562 C 15.199219 15.457031 14.136719 13.511719 12.453125 12.328125 Z M 14.800781 0.800781 L 15.601562 0.800781 L 15.601562 8 L 14.800781 8 Z M 14 9.199219 C 14 8.960938 14.160156 8.800781 14.398438 8.800781 L 16 8.800781 C 16.238281 8.800781 16.398438 8.960938 16.398438 9.199219 L 16.398438 10.761719 C 16.398438 10.839844 16.359375 10.878906 16.359375 10.921875 C 16.347656 10.960938 16.339844 10.996094 16.335938 11.035156 C 16.265625 11.140625 16.148438 11.199219 16 11.199219 L 14.398438 11.199219 C 14.25 11.199219 14.132812 11.136719 14.0625 11.03125 C 14.058594 11.003906 14.050781 10.980469 14.039062 10.960938 C 14.015625 10.914062 14.007812 10.878906 14.003906 10.851562 C 14 10.835938 14 10.816406 14 10.800781 Z M 13.160156 9.921875 L 13.160156 10.800781 C 12.605469 11.078125 12.128906 11.433594 11.691406 11.867188 C 11.453125 11.742188 11.199219 11.632812 10.941406 11.539062 C 11.578125 10.867188 12.328125 10.316406 13.160156 9.921875 Z M 12.722656 18.375 C 11.777344 17.621094 11.199219 16.460938 11.199219 15.238281 C 11.199219 14.992188 11.230469 14.726562 11.285156 14.464844 C 12.222656 15.222656 12.800781 16.378906 12.800781 17.601562 C 12.800781 17.867188 12.773438 18.125 12.722656 18.375 Z M 8 14.398438 L 8.855469 14.398438 C 8.816406 14.691406 8.800781 14.972656 8.800781 15.238281 C 8.800781 17.308594 9.859375 19.277344 11.566406 20.480469 C 10.847656 21.171875 9.871094 21.601562 8.800781 21.601562 C 6.601562 21.601562 4.800781 19.800781 4.800781 17.601562 C 4.800781 16.070312 5.707031 14.640625 7.097656 14.003906 C 7.3125 14.25 7.632812 14.398438 8 14.398438 Z M 10.558594 14 C 10.441406 14.398438 10.398438 14.800781 10.398438 15.199219 C 10.398438 16.761719 11.199219 18.238281 12.480469 19.121094 C 12.359375 19.398438 12.238281 19.601562 12.078125 19.839844 C 10.558594 18.839844 9.601562 17.078125 9.601562 15.199219 C 9.601562 14.921875 9.601562 14.679688 9.640625 14.398438 C 9.894531 14.398438 10.105469 14.320312 10.296875 14.175781 C 10.375 14.117188 10.449219 14.050781 10.511719 13.976562 C 10.515625 13.980469 10.523438 13.980469 10.527344 13.984375 C 10.539062 14 10.558594 14 10.558594 14 Z M 8.398438 0.800781 L 9.199219 0.800781 L 9.199219 10.398438 L 8.398438 10.398438 Z M 7.601562 11.601562 C 7.601562 11.359375 7.761719 11.199219 8 11.199219 L 9.601562 11.199219 C 9.839844 11.199219 10 11.359375 10 11.601562 L 10 13.160156 C 10 13.238281 9.960938 13.28125 9.960938 13.320312 C 9.945312 13.367188 9.929688 13.410156 9.921875 13.453125 C 9.851562 13.546875 9.738281 13.601562 9.601562 13.601562 L 8 13.601562 C 7.851562 13.601562 7.730469 13.539062 7.664062 13.433594 C 7.660156 13.40625 7.652344 13.382812 7.640625 13.359375 C 7.617188 13.3125 7.605469 13.28125 7.601562 13.25 C 7.601562 13.234375 7.601562 13.21875 7.601562 13.199219 Z M 8.800781 23.199219 C 5.71875 23.199219 3.199219 20.679688 3.199219 17.601562 C 3.199219 15.28125 4.640625 13.199219 6.800781 12.359375 L 6.800781 13.238281 C 5.121094 14 4 15.71875 4 17.601562 C 4 20.238281 6.160156 22.398438 8.800781 22.398438 C 10.261719 22.398438 11.574219 21.738281 12.457031 20.699219 C 12.464844 20.691406 12.472656 20.6875 12.480469 20.679688 C 12.53125 20.617188 12.582031 20.546875 12.632812 20.480469 C 13.238281 19.675781 13.601562 18.679688 13.601562 17.601562 C 13.601562 15.71875 12.480469 14 10.800781 13.238281 L 10.800781 12.367188 C 11.082031 12.476562 11.347656 12.609375 11.601562 12.761719 C 11.625 12.773438 11.648438 12.78125 11.667969 12.789062 C 13.335938 13.792969 14.398438 15.605469 14.398438 17.601562 C 14.398438 18.222656 14.296875 18.820312 14.105469 19.382812 C 14.097656 19.402344 14.089844 19.417969 14.078125 19.441406 C 14.023438 19.609375 13.957031 19.777344 13.882812 19.945312 C 12.988281 21.863281 11.042969 23.199219 8.800781 23.199219 Z M 15.199219 20.800781 C 14.925781 20.800781 14.652344 20.761719 14.378906 20.722656 C 14.515625 20.480469 14.640625 20.226562 14.746094 19.964844 C 14.894531 20 15.046875 20 15.199219 20 C 17.839844 20 20 17.839844 20 15.199219 C 20 13.320312 18.878906 11.601562 17.199219 10.839844 L 17.199219 9.960938 C 19.359375 10.800781 20.800781 12.878906 20.800781 15.199219 C 20.800781 18.28125 18.28125 20.800781 15.199219 20.800781 Z M 15.199219 20.800781"/>
</svg>
