<svg xmlns="http://www.w3.org/2000/svg" width="32" height="32" viewBox="0 0 24 24">
    <path d="M19.473 21.563l-.559-8.95a2.324 2.324 0 0 0-2.32-2.16h-2.996v-.84h3.597c.399 0 .758-.199.957-.558l.16-.36c.16-.32.16-.68-.039-1-.199-.277-.52-.476-.878-.476h-2.16c.171-.2.308-.43.402-.68l.078-.242a6.67 6.67 0 0 0 0-3.754c-.399-1-1.438-1.64-2.516-1.48l-.601.082.203-.602c.078-.238-.043-.438-.242-.52-.239-.078-.438.043-.52.243l-.305.914-.972-.157a2.401 2.401 0 0 0-2.52 1.52c-.36 1.078-.36 2.355 0 3.754l.082.203c.106.27.258.512.442.719H6.805c-.32 0-.598.16-.797.398-.203.238-.281.559-.203.88l.082.358c.12.442.52.758 1 .758h3.515v.84H7.406c-1.238 0-2.238.961-2.32 2.16l-.559 8.95c-.039.64.2 1.238.641 1.718.437.48 1.039.719 1.676.719h10.312c.637 0 1.239-.238 1.676-.719.441-.441.68-1.078.64-1.718zM9.12 6.219l-.078-.16c-.32-1.16-.32-2.317 0-3.239.238-.597.8-.996 1.437-.996h.16l1.282.2h.117l1.32-.2c.68-.082 1.399.32 1.637.957.32 1.04.32 2.2 0 3.239l-.078.199c-.242.597-.8 1-1.441 1h-2.915c-.64 0-1.199-.403-1.44-1zM6.684 8.656l-.079-.36c-.039-.081 0-.16.04-.198 0-.04.082-.082.16-.082v-.04h3.293c.136.028.28.04.425.04h2.915c.152 0 .3-.012.44-.04h3.477c.118 0 .2.083.2.122 0 .039.039.117 0 .238l-.16.36a.217.217 0 0 1-.2.12H6.887c-.082 0-.203-.082-.203-.16zm6.117.957v.801h-1.602v-.8zm5.472 13.11c-.32.316-.68.476-1.117.476H6.844c-.438 0-.797-.16-1.117-.476a1.38 1.38 0 0 1-.399-1.121l.559-8.95c.039-.8.718-1.437 1.52-1.437h9.187c.8 0 1.48.637 1.52 1.437l.558 8.95c.043.402-.117.8-.399 1.12zm0 0"/>
    <path d="M12 12.41c-2.637 0-4.797 2.16-4.797 4.797 0 2.637 2.16 4.797 4.797 4.797 2.637 0 4.797-2.16 4.797-4.797 0-2.637-2.16-4.797-4.797-4.797zm0 8.793a4.006 4.006 0 0 1-3.996-3.996c0-2.2 1.797-3.996 3.996-3.996 2.2 0 3.996 1.797 3.996 3.996 0 2.2-1.797 3.996-3.996 3.996zm0 0"/>
    <path d="M13.43 17.918c.11-.215.168-.457.168-.711 0-.879-.72-1.598-1.598-1.598-.879 0-1.598.72-1.598 1.598 0 .879.72 1.598 1.598 1.598.34 0 .652-.106.91-.285l.649.644c.078.082.16.121.28.121.118 0 .2-.039.278-.12a.385.385 0 0 0 0-.56zm-2.23-.711a.802.802 0 0 1 1.6 0 .78.78 0 0 1-.175.492.805.805 0 0 1-.625.309c-.441 0-.8-.36-.8-.801zm0 0"/>
</svg>
