<svg xmlns="http://www.w3.org/2000/svg" width="32" height="32" viewBox="0 0 24 24">
    <path d="M 5.992188 15.691406 C 6.871094 15.691406 7.589844 14.972656 7.589844 14.09375 C 7.589844 13.214844 6.871094 12.496094 5.992188 12.496094 C 5.113281 12.496094 4.394531 13.214844 4.394531 14.09375 C 4.394531 14.972656 5.113281 15.691406 5.992188 15.691406 Z M 5.992188 13.292969 C 6.433594 13.292969 6.792969 13.652344 6.792969 14.09375 C 6.792969 14.53125 6.433594 14.890625 5.992188 14.890625 C 5.554688 14.890625 5.195312 14.53125 5.195312 14.09375 C 5.195312 13.652344 5.554688 13.292969 5.992188 13.292969 Z M 5.992188 13.292969"/>
    <path d="M 23.96875 13.652344 C 23.96875 10.878906 21.925781 8.5625 19.269531 8.132812 L 18.597656 4.902344 L 19.1875 4.902344 C 19.242188 5.707031 19.511719 6.507812 20.574219 6.78125 C 20.773438 6.820312 21.015625 6.863281 21.214844 6.863281 C 21.53125 6.863281 21.894531 6.78125 22.253906 6.703125 L 23.730469 6.101562 C 23.96875 6.023438 24.050781 5.824219 23.96875 5.582031 C 23.890625 5.34375 23.652344 5.261719 23.449219 5.34375 L 21.972656 5.941406 C 21.574219 6.101562 21.171875 6.101562 20.8125 6.023438 C 20.273438 5.886719 20.046875 5.578125 19.988281 4.902344 L 20.375 4.902344 C 20.8125 4.902344 21.171875 4.542969 21.171875 4.105469 L 21.171875 3.304688 C 21.171875 2.867188 20.8125 2.507812 20.375 2.507812 L 15.179688 2.507812 C 14.742188 2.507812 14.382812 2.867188 14.382812 3.304688 L 14.382812 4.105469 C 14.382812 4.542969 14.742188 4.902344 15.179688 4.902344 L 15.652344 4.902344 L 16.445312 8.402344 C 15.054688 8.910156 13.90625 9.964844 13.285156 11.375 L 6.667969 10.957031 L 5.273438 5.304688 L 5.914062 5.304688 C 6.632812 5.304688 7.191406 4.742188 7.191406 3.984375 C 7.191406 3.386719 6.792969 2.90625 6.230469 2.746094 L 2.757812 1.949219 C 2.355469 1.867188 1.996094 1.949219 1.679688 2.1875 C 1.359375 2.425781 1.199219 2.785156 1.199219 3.1875 L 1.199219 4.066406 C 1.199219 4.742188 1.757812 5.304688 2.4375 5.304688 L 2.472656 5.304688 L 2.664062 6.101562 L 0.398438 6.101562 C 0.160156 6.101562 0 6.261719 0 6.5 C 0 6.742188 0.160156 6.902344 0.398438 6.902344 L 0.800781 6.902344 L 0.800781 7.300781 C 0.800781 7.539062 0.957031 7.699219 1.199219 7.699219 C 1.398438 7.699219 1.597656 7.539062 1.597656 7.300781 L 1.597656 6.902344 L 2.851562 6.902344 L 3.976562 11.617188 C 3.257812 12.203125 2.796875 13.097656 2.796875 14.09375 C 2.796875 14.851562 3.066406 15.550781 3.511719 16.101562 L 1.738281 19.683594 L 1.597656 19.683594 C 0.917969 19.683594 0.398438 20.203125 0.398438 20.882812 C 0.398438 21.5625 0.957031 22.082031 1.597656 22.082031 L 21.972656 22.082031 C 22.652344 22.082031 23.171875 21.5625 23.171875 20.882812 C 23.171875 20.203125 22.613281 19.683594 21.972656 19.683594 L 21.753906 19.683594 L 21.464844 18.335938 C 22.972656 17.320312 23.96875 15.589844 23.96875 13.652344 Z M 5.992188 17.289062 C 6.230469 17.289062 6.472656 17.25 6.671875 17.207031 L 13.445312 16.332031 C 14.417969 18.128906 16.324219 19.285156 18.378906 19.285156 C 18.511719 19.285156 18.644531 19.28125 18.773438 19.269531 L 18.867188 19.683594 L 4.644531 19.683594 L 5.890625 17.285156 C 5.921875 17.285156 5.957031 17.289062 5.992188 17.289062 Z M 15.179688 3.304688 L 20.375 3.304688 L 20.375 4.105469 L 15.179688 4.105469 Z M 16.460938 4.902344 L 17.738281 4.902344 L 18.410156 8.058594 C 18.398438 8.058594 18.386719 8.058594 18.378906 8.058594 C 17.976562 8.058594 17.585938 8.101562 17.210938 8.183594 Z M 16.988281 9.097656 C 17.011719 9.097656 17.035156 9.097656 17.058594 9.097656 C 17.5 8.980469 17.9375 8.898438 18.378906 8.898438 C 18.496094 8.898438 18.617188 8.902344 18.734375 8.914062 C 18.796875 8.917969 18.863281 8.925781 18.9375 8.9375 C 18.980469 8.953125 19.027344 8.957031 19.070312 8.949219 C 21.382812 9.289062 23.171875 11.292969 23.171875 13.691406 C 23.171875 16.328125 21.015625 18.488281 18.378906 18.488281 C 16.703125 18.488281 15.191406 17.613281 14.308594 16.222656 L 18.417969 15.691406 C 19.496094 15.691406 20.375 14.773438 20.375 13.691406 C 20.375 12.574219 19.496094 11.695312 18.417969 11.695312 L 14.140625 11.414062 C 14.757812 10.273438 15.777344 9.457031 16.988281 9.097656 Z M 1.996094 4.066406 L 1.996094 3.1875 C 1.996094 3.027344 2.039062 2.90625 2.15625 2.785156 C 2.238281 2.746094 2.316406 2.707031 2.4375 2.707031 C 2.476562 2.707031 2.515625 2.746094 2.558594 2.746094 L 6.03125 3.546875 C 6.230469 3.585938 6.390625 3.785156 6.390625 4.023438 C 6.390625 4.304688 6.191406 4.503906 5.914062 4.503906 L 2.4375 4.503906 C 2.195312 4.503906 1.996094 4.304688 1.996094 4.066406 Z M 4.433594 5.304688 L 5.871094 10.777344 C 5.472656 10.816406 5.074219 10.894531 4.714844 11.054688 L 3.316406 5.304688 Z M 5.992188 11.695312 C 6.074219 11.695312 6.152344 11.695312 6.273438 11.695312 L 18.335938 12.496094 C 18.378906 12.496094 18.378906 12.496094 18.378906 12.496094 C 19.054688 12.496094 19.574219 13.015625 19.574219 13.691406 C 19.574219 14.371094 19.054688 14.890625 18.378906 14.890625 L 18.335938 14.890625 L 13.199219 15.554688 L 13.0625 15.570312 L 6.550781 16.410156 C 6.308594 16.46875 6.074219 16.492188 5.847656 16.484375 C 5.804688 16.460938 5.757812 16.449219 5.710938 16.449219 C 5.15625 16.410156 4.675781 16.171875 4.277344 15.773438 C 3.855469 15.335938 3.59375 14.738281 3.59375 14.09375 C 3.59375 12.773438 4.675781 11.695312 5.992188 11.695312 Z M 4.15625 16.730469 C 4.433594 16.929688 4.753906 17.046875 5.074219 17.167969 L 3.753906 19.683594 L 2.636719 19.683594 Z M 22.371094 20.882812 C 22.371094 21.125 22.171875 21.285156 21.972656 21.285156 L 1.597656 21.285156 C 1.359375 21.285156 1.199219 21.125 1.199219 20.882812 C 1.199219 20.644531 1.398438 20.484375 1.597656 20.484375 L 21.972656 20.484375 C 22.210938 20.484375 22.371094 20.644531 22.371094 20.882812 Z M 20.894531 19.683594 L 19.695312 19.683594 L 19.574219 19.167969 C 19.640625 19.144531 19.703125 19.125 19.769531 19.105469 C 20.089844 19.023438 20.398438 18.910156 20.695312 18.773438 Z M 20.894531 19.683594"/>
</svg>
