<svg xmlns="http://www.w3.org/2000/svg" width="32" height="32" viewBox="0 0 24 24">
    <path d="M 18.601562 14.554688 L 18.601562 2.800781 C 18.601562 2.558594 18.441406 2.398438 18.199219 2.398438 L 13.800781 2.398438 L 13.800781 2 C 13.800781 1.761719 13.640625 1.601562 13.398438 1.601562 L 12.160156 1.601562 C 11.960938 0.679688 11.160156 0 10.199219 0 C 9.238281 0 8.441406 0.679688 8.238281 1.601562 L 7 1.601562 C 6.761719 1.601562 6.601562 1.761719 6.601562 2 L 6.601562 2.398438 L 2.199219 2.398438 C 1.960938 2.398438 1.800781 2.558594 1.800781 2.800781 L 1.800781 22.800781 C 1.800781 23.039062 1.960938 23.199219 2.199219 23.199219 L 14.753906 23.199219 C 15.515625 23.703125 16.425781 24 17.398438 24 C 20.039062 24 22.199219 21.839844 22.199219 19.199219 C 22.199219 16.972656 20.664062 15.089844 18.601562 14.554688 Z M 17.800781 3.199219 L 17.800781 14.398438 C 17.679688 14.398438 17.519531 14.398438 17.398438 14.398438 C 17.265625 14.398438 17.132812 14.40625 17 14.417969 L 17 4.398438 C 17 4.160156 16.839844 4 16.601562 4 L 13.800781 4 L 13.800781 3.199219 Z M 15.671875 14.722656 C 14.066406 15.324219 12.917969 16.761719 12.65625 18.460938 C 12.65625 18.472656 12.652344 18.488281 12.652344 18.5 C 12.644531 18.546875 12.636719 18.597656 12.632812 18.644531 C 12.628906 18.679688 12.625 18.71875 12.621094 18.753906 C 12.621094 18.773438 12.617188 18.792969 12.617188 18.8125 C 12.609375 18.867188 12.609375 18.921875 12.605469 18.976562 C 12.605469 18.992188 12.605469 19.003906 12.605469 19.019531 C 12.601562 19.078125 12.601562 19.140625 12.601562 19.199219 C 12.601562 19.695312 12.664062 20.160156 12.816406 20.621094 C 12.820312 20.632812 12.824219 20.644531 12.828125 20.65625 C 12.839844 20.691406 12.851562 20.726562 12.863281 20.761719 C 12.867188 20.773438 12.871094 20.789062 12.875 20.800781 L 4.199219 20.800781 L 4.199219 4.800781 L 6.601562 4.800781 L 6.601562 5.199219 C 6.601562 5.441406 6.761719 5.601562 7 5.601562 L 13.398438 5.601562 C 13.640625 5.601562 13.800781 5.441406 13.800781 5.199219 L 13.800781 4.800781 L 16.199219 4.800781 L 16.199219 14.554688 C 16.019531 14.601562 15.84375 14.65625 15.671875 14.722656 Z M 7.398438 2.398438 L 8.601562 2.398438 C 8.839844 2.398438 9 2.238281 9 2 C 9 1.320312 9.519531 0.800781 10.199219 0.800781 C 10.878906 0.800781 11.398438 1.320312 11.398438 2 C 11.398438 2.238281 11.558594 2.398438 11.800781 2.398438 L 13 2.398438 L 13 4.800781 L 7.398438 4.800781 Z M 2.601562 3.199219 L 6.601562 3.199219 L 6.601562 4 L 3.800781 4 C 3.558594 4 3.398438 4.160156 3.398438 4.398438 L 3.398438 21.199219 C 3.398438 21.441406 3.558594 21.601562 3.800781 21.601562 L 13.246094 21.601562 C 13.414062 21.886719 13.609375 22.15625 13.832031 22.398438 L 2.601562 22.398438 Z M 17.398438 23.199219 C 16.558594 23.199219 15.773438 22.933594 15.125 22.484375 C 15.125 22.484375 15.121094 22.480469 15.121094 22.480469 C 14.589844 22.105469 14.164062 21.617188 13.871094 21.0625 C 13.863281 21.042969 13.851562 21.019531 13.839844 21 C 13.613281 20.546875 13.464844 20.066406 13.417969 19.5625 C 13.414062 19.515625 13.410156 19.472656 13.40625 19.425781 C 13.40625 19.410156 13.40625 19.390625 13.40625 19.375 C 13.402344 19.316406 13.398438 19.257812 13.398438 19.199219 C 13.398438 19.136719 13.402344 19.070312 13.40625 19.003906 C 13.40625 18.988281 13.40625 18.96875 13.410156 18.953125 C 13.410156 18.90625 13.414062 18.855469 13.417969 18.808594 C 13.421875 18.792969 13.421875 18.777344 13.425781 18.757812 C 13.429688 18.707031 13.4375 18.660156 13.445312 18.609375 C 13.445312 18.597656 13.449219 18.585938 13.449219 18.574219 C 13.667969 17.203125 14.589844 16.054688 15.835938 15.519531 C 16.101562 15.410156 16.382812 15.328125 16.679688 15.28125 C 16.714844 15.273438 16.746094 15.261719 16.773438 15.25 C 16.976562 15.21875 17.1875 15.199219 17.398438 15.199219 C 17.4375 15.199219 17.472656 15.203125 17.507812 15.203125 C 17.710938 15.210938 17.914062 15.246094 18.121094 15.28125 C 18.164062 15.296875 18.210938 15.296875 18.253906 15.292969 C 20.046875 15.6875 21.398438 17.292969 21.398438 19.199219 C 21.398438 21.398438 19.601562 23.199219 17.398438 23.199219 Z M 17.398438 23.199219"/>
    <path d="M6.199219 8L11.800781 8C12 8 12.199219 7.839844 12.199219 7.601562 12.199219 7.359375 12.039062 7.199219 11.800781 7.199219L6.199219 7.199219C5.960938 7.199219 5.800781 7.359375 5.800781 7.601562 5.800781 7.839844 5.960938 8 6.199219 8zM13.398438 8L14.601562 8C14.800781 8 15 7.839844 15 7.601562 15 7.359375 14.839844 7.199219 14.601562 7.199219L13.398438 7.199219C13.160156 7.199219 13 7.359375 13 7.601562 13 7.839844 13.160156 8 13.398438 8zM14.601562 8.800781L10.601562 8.800781C10.359375 8.800781 10.199219 8.960938 10.199219 9.199219 10.199219 9.441406 10.359375 9.601562 10.601562 9.601562L14.601562 9.601562C14.800781 9.601562 15 9.441406 15 9.199219 15 8.960938 14.839844 8.800781 14.601562 8.800781zM14.601562 10.398438L13 10.398438C12.761719 10.398438 12.601562 10.558594 12.601562 10.800781 12.601562 11.039062 12.761719 11.199219 13 11.199219L14.601562 11.199219C14.800781 11.199219 15 11.039062 15 10.800781 15 10.558594 14.839844 10.398438 14.601562 10.398438zM6.199219 9.601562L9 9.601562C9.199219 9.601562 9.398438 9.441406 9.398438 9.199219 9.398438 8.960938 9.238281 8.800781 9 8.800781L6.199219 8.800781C5.960938 8.800781 5.800781 8.960938 5.800781 9.199219 5.800781 9.441406 5.960938 9.601562 6.199219 9.601562zM6.199219 11.199219L7.398438 11.199219C7.601562 11.199219 7.800781 11.039062 7.800781 10.800781 7.800781 10.558594 7.640625 10.398438 7.398438 10.398438L6.199219 10.398438C5.960938 10.398438 5.800781 10.558594 5.800781 10.800781 5.800781 11.039062 5.960938 11.199219 6.199219 11.199219zM6.199219 12.800781L9.398438 12.800781C9.601562 12.800781 9.800781 12.640625 9.800781 12.398438 9.800781 12.160156 9.640625 12 9.398438 12L6.199219 12C5.960938 12 5.800781 12.160156 5.800781 12.398438 5.800781 12.640625 5.960938 12.800781 6.199219 12.800781zM8.601562 10.800781C8.601562 11.039062 8.761719 11.199219 9 11.199219L11.398438 11.199219C11.601562 11.199219 11.800781 11.039062 11.800781 10.800781 11.800781 10.558594 11.640625 10.398438 11.398438 10.398438L9 10.398438C8.761719 10.398438 8.601562 10.558594 8.601562 10.800781zM14.601562 12L14.199219 12C13.960938 12 13.800781 12.160156 13.800781 12.398438 13.800781 12.640625 13.960938 12.800781 14.199219 12.800781L14.601562 12.800781C14.800781 12.800781 15 12.640625 15 12.398438 15 12.160156 14.839844 12 14.601562 12zM12.601562 12.800781C12.800781 12.800781 13 12.640625 13 12.398438 13 12.160156 12.839844 12 12.601562 12L11 12C10.761719 12 10.601562 12.160156 10.601562 12.398438 10.601562 12.640625 10.761719 12.800781 11 12.800781zM6.601562 13.601562L6.199219 13.601562C5.960938 13.601562 5.800781 13.761719 5.800781 14 5.800781 14.238281 5.960938 14.398438 6.199219 14.398438L6.601562 14.398438C6.800781 14.398438 7 14.238281 7 14 7 13.761719 6.839844 13.601562 6.601562 13.601562zM14.601562 13.601562L11.398438 13.601562C11.160156 13.601562 11 13.761719 11 14 11 14.238281 11.160156 14.398438 11.398438 14.398438L14.601562 14.398438C14.800781 14.398438 15 14.238281 15 14 15 13.761719 14.839844 13.601562 14.601562 13.601562zM9.800781 13.601562L8.199219 13.601562C7.960938 13.601562 7.800781 13.761719 7.800781 14 7.800781 14.238281 7.960938 14.398438 8.199219 14.398438L9.800781 14.398438C10 14.398438 10.199219 14.238281 10.199219 14 10.199219 13.761719 10.039062 13.601562 9.800781 13.601562zM19.601562 17.238281C19.398438 17.121094 19.160156 17.160156 19.039062 17.359375L16.960938 20.480469 16.121094 19.359375C16 19.199219 15.71875 19.160156 15.558594 19.28125 15.398438 19.398438 15.359375 19.679688 15.480469 19.839844L16.597656 21.332031C16.625 21.398438 16.667969 21.457031 16.734375 21.5 16.808594 21.574219 16.902344 21.601562 17 21.601562 17.011719 21.601562 17.023438 21.597656 17.039062 21.597656 17.042969 21.597656 17.046875 21.59375 17.054688 21.59375 17.0625 21.59375 17.070312 21.589844 17.078125 21.589844 17.082031 21.585938 17.089844 21.585938 17.09375 21.585938 17.140625 21.570312 17.191406 21.542969 17.238281 21.519531 17.300781 21.472656 17.34375 21.40625 17.367188 21.328125L19.71875 17.800781C19.839844 17.601562 19.800781 17.359375 19.601562 17.238281zM19.601562 17.238281"/>
</svg>
