<svg xmlns="http://www.w3.org/2000/svg" width="32" height="32" viewBox="0 0 24 24">
    <path d="M12 4.8c-4.84 0-8.8 3.962-8.8 8.802 0 2.378.956 4.543 2.507 6.132a.41.41 0 0 0 .055.067c.02.023.043.039.066.058A8.787 8.787 0 0 0 12 22.4c4.84 0 8.8-3.958 8.8-8.797 0-4.84-3.96-8.801-8.8-8.801zm6.8 9.2h1.188a7.963 7.963 0 0 1-2.066 4.965l-.844-.844a.385.385 0 0 0-.558 0 .385.385 0 0 0 0 .559l.843.843a7.976 7.976 0 0 1-4.965 2.067v-1.192c0-.238-.16-.398-.398-.398-.238 0-.398.16-.398.398v1.192a7.965 7.965 0 0 1-4.985-2.086l.824-.824a.385.385 0 0 0 0-.559.39.39 0 0 0-.562 0l-.82.82A7.955 7.955 0 0 1 4.012 14h1.187c.2 0 .403-.16.403-.398 0-.243-.16-.403-.403-.403H4.012a7.944 7.944 0 0 1 2.066-4.96l.844.84a.348.348 0 0 0 .277.12c.082 0 .2-.039.281-.12a.385.385 0 0 0 0-.56l-.843-.843a7.976 7.976 0 0 1 4.965-2.067v1.192c0 .238.16.398.398.398a.4.4 0 0 0 .398-.398V5.609a7.976 7.976 0 0 1 4.965 2.067l-.843.844a.385.385 0 0 0 0 .558c.082.082.16.121.28.121.122 0 .2-.039.278-.12l.844-.84a7.944 7.944 0 0 1 2.066 4.96h-1.187c-.242 0-.403.16-.403.403 0 .238.16.398.403.398zm0 0"/>
    <path d="M22 7.238c.32 0 .64-.117.879-.36.48-.48.48-1.276 0-1.757L21.28 3.52a1.257 1.257 0 0 0-1.761 0c-.391.39-.461.992-.22 1.46l-.644.645a10.355 10.355 0 0 0-5.054-2.3v-.927h.757c.48 0 .84-.359.84-.796V.84a.82.82 0 0 0-.84-.84H9.602C9.16 0 8.8.36 8.8.84v.719c0 .48.36.84.8.84h.797v.925a10.387 10.387 0 0 0-5.03 2.281l-.653-.652A1.26 1.26 0 0 0 4.48 3.52a1.257 1.257 0 0 0-1.761 0L1.12 5.12c-.48.48-.48 1.277 0 1.758.238.242.559.36.879.36.285 0 .566-.094.797-.282l.687.688a10.362 10.362 0 0 0-1.882 5.957C1.602 19.32 6.282 24 12 24c5.719 0 10.398-4.68 10.398-10.398 0-2.204-.691-4.247-1.867-5.934l.696-.695c.222.18.5.265.773.265zm-1.922-3.16a.47.47 0 0 1 .32-.117c.122 0 .243.039.32.117L22.32 5.68c.16.199.2.48 0 .64-.199.16-.48.16-.64 0l-.07-.074a.53.53 0 0 0-.09-.125L20.12 4.72a.438.438 0 0 0-.086-.063c-.113-.195-.098-.433.043-.578zm-.277 1.48l.84.84-.602.602c-.238-.32-.52-.602-.8-.879zM9.6.802l4.797.039v.719c0 .043 0 .043-.039.043l-4.757-.043zM11.2 2.398h1.602v.832a10.888 10.888 0 0 0-1.602 0zm-7 3.16l.563.563c-.282.277-.563.559-.801.879l-.602-.602zm-2.52.762c-.16-.199-.16-.48 0-.64l1.602-1.602a.456.456 0 0 1 .32-.117.47.47 0 0 1 .32.117c.157.203.157.48 0 .64l-1.6 1.602c-.16.16-.481.16-.641 0zM12 23.2c-5.281 0-9.602-4.321-9.602-9.598 0-2.141.711-4.125 1.907-5.727.02-.012.039-.023.054-.035.36-.52.801-.961 1.282-1.399.015-.02.03-.035.043-.054a9.562 9.562 0 0 1 5.101-2.309h.055c.8-.078 1.52-.078 2.32 0h.067c4.707.606 8.375 4.656 8.375 9.524 0 5.277-4.32 9.597-9.602 9.597zm0 0"/>
    <path d="M12.398 12.05V8.399c0-.238-.16-.398-.398-.398-.238 0-.398.16-.398.398v3.653a1.608 1.608 0 0 0-1.204 1.55c0 .88.723 1.598 1.602 1.598.879 0 1.602-.719 1.602-1.597 0-.743-.512-1.372-1.204-1.551zM12 14.399c-.441 0-.8-.359-.8-.796a.802.802 0 0 1 1.6 0c0 .437-.359.796-.8.796zm0 0"/>
</svg>
