<svg xmlns="http://www.w3.org/2000/svg" width="32" height="32" viewBox="0 0 24 24">
    <path d="M 12 0 C 5.359375 0 0 5.398438 0 12 C 0 18.601562 5.359375 24 12 24 C 18.601562 24 24 18.601562 24 12 C 24 5.398438 18.640625 0 12 0 Z M 12 23.199219 C 5.839844 23.199219 0.800781 18.160156 0.800781 12 C 0.800781 5.839844 5.839844 0.800781 12 0.800781 C 18.160156 0.800781 23.199219 5.839844 23.199219 12 C 23.199219 18.160156 18.160156 23.199219 12 23.199219 Z M 12 23.199219"/>
    <path d="M 12 1.601562 C 6.28125 1.601562 1.601562 6.28125 1.601562 12 C 1.601562 17.71875 6.28125 22.398438 12 22.398438 C 17.71875 22.398438 22.398438 17.71875 22.398438 12 C 22.398438 6.28125 17.71875 1.601562 12 1.601562 Z M 12 21.601562 C 6.71875 21.601562 2.398438 17.28125 2.398438 12 C 2.398438 6.71875 6.71875 2.398438 12 2.398438 C 17.28125 2.398438 21.601562 6.71875 21.601562 12 C 21.601562 17.28125 17.28125 21.601562 12 21.601562 Z M 12 21.601562"/>
    <path d="M 12 10 C 10.878906 10 10 10.878906 10 12 C 10 13.121094 10.878906 14 12 14 C 13.078125 14 14 13.121094 14 12 C 14 10.878906 13.121094 10 12 10 Z M 12 13.199219 C 11.320312 13.199219 10.800781 12.679688 10.800781 12 C 10.800781 11.320312 11.320312 10.800781 12 10.800781 C 12.640625 10.800781 13.199219 11.320312 13.199219 12 C 13.199219 12.679688 12.679688 13.199219 12 13.199219 Z M 12 13.199219"/>
    <path d="M 17.878906 6.121094 C 17.71875 5.960938 17.480469 5.960938 17.320312 6.121094 L 14.253906 9.1875 C 13.636719 8.695312 12.855469 8.398438 12 8.398438 C 11.144531 8.398438 10.363281 8.695312 9.746094 9.1875 L 6.679688 6.121094 C 6.519531 5.960938 6.28125 5.960938 6.121094 6.121094 C 5.960938 6.28125 5.960938 6.519531 6.121094 6.679688 L 9.1875 9.746094 C 8.695312 10.363281 8.398438 11.144531 8.398438 12 C 8.398438 12.855469 8.695312 13.636719 9.1875 14.253906 L 6.121094 17.320312 C 5.960938 17.480469 5.960938 17.71875 6.121094 17.878906 C 6.199219 17.960938 6.28125 18 6.398438 18 C 6.480469 18 6.601562 17.960938 6.679688 17.878906 L 9.746094 14.8125 C 10.363281 15.304688 11.144531 15.601562 12 15.601562 C 12.855469 15.601562 13.636719 15.304688 14.253906 14.8125 L 17.320312 17.878906 C 17.398438 17.960938 17.480469 18 17.601562 18 C 17.679688 18 17.800781 17.960938 17.878906 17.878906 C 18.039062 17.71875 18.039062 17.480469 17.878906 17.320312 L 14.8125 14.253906 C 15.304688 13.636719 15.601562 12.855469 15.601562 12 C 15.601562 11.144531 15.304688 10.363281 14.8125 9.746094 L 17.878906 6.679688 C 18.039062 6.519531 18.039062 6.28125 17.878906 6.121094 Z M 12 14.800781 C 10.441406 14.800781 9.199219 13.558594 9.199219 12 C 9.199219 10.441406 10.441406 9.199219 12 9.199219 C 13.519531 9.199219 14.800781 10.441406 14.800781 12 C 14.800781 13.558594 13.558594 14.800781 12 14.800781 Z M 12 14.800781"/>
</svg>
