<svg xmlns="http://www.w3.org/2000/svg" width="32" height="32" viewBox="0 0 24 24">
    <path d="M22.398 9.602H22v-2C22 6.039 20.762 4.8 19.2 4.8c-.786 0-1.493.316-2 .828v-.43c0-1.558-1.24-2.8-2.802-2.8-.785 0-1.492.316-2 .831V2.8A2.78 2.78 0 0 0 9.602 0 2.781 2.781 0 0 0 6.8 2.8v4.4H1.52C.922 7.2.398 7.718.398 8.32v7.36c0 .601.524 1.12 1.122 1.12H6.8v4.4c0 1.562 1.24 2.8 2.802 2.8a2.78 2.78 0 0 0 2.796-2.8v-.43a2.808 2.808 0 0 0 4.8-1.969l.001-.43a2.808 2.808 0 0 0 4.8-1.973L22.001 14h.398c.641 0 1.204-.52 1.204-1.2v-2c0-.679-.524-1.198-1.204-1.198zM1.52 16c-.16 0-.32-.16-.32-.32v-.48h1.6a.4.4 0 0 0 .4-.4c0-.241-.16-.402-.4-.402H1.2v-.796h1.198c.204 0 .403-.16.403-.403 0-.238-.16-.398-.403-.398H1.2V12H2a.4.4 0 0 0 .398-.398c0-.243-.16-.403-.398-.403h-.8V8.32c0-.16.16-.32.32-.32H6.8v8zm10.082 5.2c0 1.12-.883 2-2 2-1.122 0-2-.88-2-2V2.8c0-1.12.878-2 2-2 1.078 0 2 .88 2 2zm4.796-2.4c0 1.122-.878 2-2 2-1.117 0-2-.878-2-2V5.2c0-1.122.883-2 2-2 1.082 0 2 .878 2 2zm4.801-2.402c0 1.122-.879 2-2 2-1.12 0-2-.878-2-2V7.602c0-1.122.88-2 2-2 1.082 0 2 .878 2 2zm1.602-3.597c0 .238-.16.398-.403.398H22v-2.8h.398c.243 0 .403.16.403.402zm0 0"/>
</svg>
