<svg xmlns="http://www.w3.org/2000/svg" width="32" height="32" viewBox="0 0 24 24">
    <path d="M7.59 9.203A2.78 2.78 0 0 0 4.793 12a2.78 2.78 0 0 0 2.797 2.797A2.78 2.78 0 0 0 10.387 12 2.78 2.78 0 0 0 7.59 9.203zm0 4.793A1.977 1.977 0 0 1 5.594 12c0-1.117.879-1.996 1.996-1.996 1.078 0 2 .879 2 1.996a1.978 1.978 0 0 1-2 1.996zm0 0"/>
    <path d="M23.852 6.328c-.122-.2-.403-.32-.641-.32h-4.395c-.238 0-.398.16-.398.398v1.2H16.82v-1.2c0-.238-.16-.398-.402-.398h-8.79-.038a5.985 5.985 0 0 0-5.652 3.996A1.978 1.978 0 0 0 0 12c0 1.098.848 1.965 1.938 1.996a5.985 5.985 0 0 0 5.652 3.996 5.981 5.981 0 0 0 5.668-4.039l8.355-1.555a.72.72 0 0 0 .598-.52l1.719-4.831a.666.666 0 0 0-.078-.719zM.8 12c0-.555.394-1.031.91-1.156a5.952 5.952 0 0 0 0 2.312A1.201 1.201 0 0 1 .8 12zm6.789 5.195a5.181 5.181 0 0 1-5.078-4.11A5.794 5.794 0 0 1 2.398 12c0-.473.075-.98.192-1.414a5.185 5.185 0 0 1 5-3.781A5.186 5.186 0 0 1 12.785 12a5.186 5.186 0 0 1-5.195 5.195zm13.824-5.515l-7.941 1.476c.07-.375.109-.761.109-1.156v-.184c-.004-.023-.004-.043-.004-.066-.004-.04-.004-.078-.008-.117 0-.028 0-.051-.004-.078a.822.822 0 0 0-.007-.098c-.008-.066-.012-.137-.02-.203-.004-.008-.004-.016-.004-.024a5.94 5.94 0 0 0-2.45-4.101 2.23 2.23 0 0 0-.168-.117c.001 0-.003 0-.003-.004-.05-.031-.101-.067-.152-.098-.004 0-.008-.004-.012-.008-.055-.03-.11-.066-.164-.097h5.394v1.199c0 .242.16.402.399.402h2.398c.239 0 .399-.16.399-.402v-1.2h3.996zm0 0"/>
</svg>
