<svg xmlns="http://www.w3.org/2000/svg" width="32" height="32" viewBox="0 0 24 24">
    <path d="M22.648438 3.601562L1.351562 3.601562C.605469 3.601562 0 4.207031 0 4.953125L0 11.046875C0 11.792969.605469 12.398438 1.351562 12.398438L1.601562 12.398438 1.601562 21.601562 22.398438 21.601562 22.398438 12.398438 22.648438 12.398438C23.394531 12.398438 24 11.792969 24 11.046875L24 4.953125C24 4.207031 23.394531 3.601562 22.648438 3.601562zM.800781 4.953125C.800781 4.648438 1.046875 4.398438 1.351562 4.398438L22.648438 4.398438C22.953125 4.398438 23.199219 4.648438 23.199219 4.953125L23.199219 5.316406C23.195312 5.316406 23.191406 5.316406 23.1875 5.3125 23.132812 5.289062 23.070312 5.273438 23.011719 5.257812 22.984375 5.246094 22.957031 5.234375 22.925781 5.230469 22.835938 5.210938 22.742188 5.199219 22.648438 5.199219L1.351562 5.199219C1.257812 5.199219 1.164062 5.210938 1.074219 5.230469 1.042969 5.234375 1.015625 5.246094.988281 5.257812.929688 5.273438.867188 5.289062.8125 5.3125.808594 5.316406.804688 5.316406.800781 5.316406zM1.351562 11.601562C1.046875 11.601562.800781 11.351562.800781 11.046875L.800781 8.800781 1.601562 8.800781 1.601562 11.601562zM2.398438 16.839844C3.183594 17 3.800781 17.617188 3.960938 18.398438L2.398438 18.398438zM21.601562 20.800781L2.398438 20.800781 2.398438 20.398438 21.601562 20.398438zM21.601562 19.601562L2.398438 19.601562 2.398438 19.199219 21.601562 19.199219zM20.039062 18.398438C20.199219 17.617188 20.816406 17 21.601562 16.839844L21.601562 18.398438zM21.601562 16.03125C20.375 16.207031 19.410156 17.175781 19.230469 18.398438L4.769531 18.398438C4.589844 17.175781 3.625 16.207031 2.398438 16.03125L2.398438 8.800781 7.628906 8.800781C7.09375 9.632812 6.800781 10.601562 6.800781 11.601562 6.800781 14.46875 9.132812 16.800781 12 16.800781 14.867188 16.800781 17.199219 14.46875 17.199219 11.601562 17.199219 10.601562 16.90625 9.632812 16.371094 8.800781L21.601562 8.800781zM11.601562 8.800781L11.601562 9.625 11.199219 9.316406C11.035156 9.1875 10.953125 8.992188 10.953125 8.800781zM10.152344 8.800781C10.15625 9.234375 10.347656 9.667969 10.707031 9.945312L11.601562 10.640625 11.601562 12.816406C11.136719 12.648438 10.800781 12.210938 10.800781 11.6875 10.800781 11.46875 10.621094 11.289062 10.398438 11.289062 10.179688 11.289062 10 11.46875 10 11.6875 10 12.65625 10.6875 13.460938 11.601562 13.648438L11.601562 14C11.601562 14.222656 11.777344 14.398438 12 14.398438 12.222656 14.398438 12.398438 14.222656 12.398438 14L12.398438 13.648438C12.835938 13.558594 13.234375 13.328125 13.527344 12.980469 13.773438 12.691406 13.886719 12.320312 13.84375 11.9375 13.804688 11.546875 13.601562 11.183594 13.292969 10.941406L12.398438 10.25 12.398438 8.800781 15.386719 8.800781C16.042969 9.589844 16.398438 10.578125 16.398438 11.601562 16.398438 14.027344 14.425781 16 12 16 9.574219 16 7.601562 14.027344 7.601562 11.601562 7.601562 10.578125 7.957031 9.589844 8.613281 8.800781zM12.398438 11.261719L12.800781 11.574219C12.941406 11.683594 13.03125 11.847656 13.050781 12.019531 13.066406 12.183594 13.019531 12.34375 12.917969 12.464844 12.777344 12.628906 12.597656 12.742188 12.398438 12.8125zM23.199219 11.046875C23.199219 11.351562 22.953125 11.601562 22.648438 11.601562L22.398438 11.601562 22.398438 8.800781 23.199219 8.800781zM23.199219 8L.800781 8 .800781 6.550781C.800781 6.246094 1.046875 6 1.351562 6L22.648438 6C22.953125 6 23.199219 6.246094 23.199219 6.550781zM.398438 2.800781C.621094 2.800781.800781 2.621094.800781 2.398438L.800781.800781 23.199219.800781 23.199219 2.398438C23.199219 2.621094 23.378906 2.800781 23.601562 2.800781 23.820312 2.800781 24 2.621094 24 2.398438L24 0 0 0 0 2.398438C0 2.621094.179688 2.800781.398438 2.800781zM.398438 2.800781"/>
    <path d="M 23.601562 13.199219 C 23.378906 13.199219 23.199219 13.378906 23.199219 13.601562 L 23.199219 23.199219 L 0.800781 23.199219 L 0.800781 13.601562 C 0.800781 13.378906 0.621094 13.199219 0.398438 13.199219 C 0.179688 13.199219 0 13.378906 0 13.601562 L 0 24 L 24 24 L 24 13.601562 C 24 13.378906 23.820312 13.199219 23.601562 13.199219 Z M 23.601562 13.199219"/>
</svg>
