<svg xmlns="http://www.w3.org/2000/svg" width="32" height="32" viewBox="0 0 24 24">
    <path d="M2.398 19.398v-6.796a.398.398 0 1 0-.796 0v6.796a.398.398 0 1 0 .796 0zm0 0M22.398 19.398v-6.796a.398.398 0 1 0-.796 0v6.796a.398.398 0 1 0 .796 0zm0 0M3.602 12.2a.402.402 0 0 0-.403.402v3.597a.401.401 0 0 0 .8 0l.001-3.597a.401.401 0 0 0-.398-.403zm0 0M4.8 12.2a.402.402 0 0 0-.402.402v3.597a.401.401 0 0 0 .8 0l.001-3.597a.401.401 0 0 0-.398-.403zm0 0M7.2 16.2v-3.598a.401.401 0 1 0-.802 0v3.597a.401.401 0 0 0 .8 0zm0 0M8.398 16.2v-3.598a.398.398 0 1 0-.796 0v3.597a.398.398 0 1 0 .796 0zm0 0M9.602 16.2v-3.598a.401.401 0 0 0-.8 0L8.8 16.199a.401.401 0 1 0 .8 0zm0 0M12 16.2v-3.598a.401.401 0 1 0-.8 0v3.597a.401.401 0 0 0 .8 0zm0 0M14 12.602a.401.401 0 1 0-.8 0v3.597a.401.401 0 0 0 .8 0zm0 0M15.2 12.602a.401.401 0 1 0-.802 0v3.597a.401.401 0 0 0 .8 0zm0 0M16.8 12.2a.402.402 0 0 0-.402.402v3.597a.401.401 0 0 0 .8 0l.001-3.597a.401.401 0 0 0-.398-.403zm0 0M18 12.2a.398.398 0 0 0-.398.402v3.597a.398.398 0 1 0 .796 0v-3.597a.398.398 0 0 0-.398-.403zm0 0M20.398 16.602c.223 0 .403-.18.403-.403v-3.597a.401.401 0 0 0-.8 0l-.001 3.597c0 .223.18.403.398.403zm0 0M1.602 4.602v5.597a.398.398 0 1 0 .796 0V4.602a.398.398 0 1 0-.796 0zm0 0M22.398 10.2V4.601a.398.398 0 1 0-.796 0v5.597a.398.398 0 1 0 .796 0zm0 0M3.2 10.2a.401.401 0 0 0 .8 0V4.601a.401.401 0 1 0-.8 0zm0 0M4.8 10.602c.22 0 .4-.18.4-.403V4.602a.401.401 0 1 0-.802 0v5.597c0 .223.18.403.403.403zm0 0M6.8 10.602c.22 0 .4-.18.4-.403V4.602a.401.401 0 1 0-.802 0v5.597c0 .223.18.403.403.403zm0 0M8 10.602c.223 0 .398-.18.398-.403V4.602a.398.398 0 1 0-.796 0v5.597c0 .223.175.403.398.403zm0 0M9.2 10.602c.222 0 .402-.18.402-.403V4.602a.401.401 0 0 0-.8 0L8.8 10.199c0 .223.18.403.398.403zm0 0M11.602 10.602c.218 0 .398-.18.398-.403V4.602a.401.401 0 1 0-.8 0v5.597c0 .223.179.403.402.403zm0 0M13.602 10.602c.218 0 .398-.18.398-.403V4.602a.401.401 0 1 0-.8 0v5.597c0 .223.179.403.402.403zm0 0M14.8 10.602c.22 0 .4-.18.4-.403V4.602a.401.401 0 1 0-.802 0v5.597c0 .223.18.403.403.403zm0 0M16.8 10.602c.22 0 .4-.18.4-.403V4.602a.401.401 0 1 0-.802 0v5.597c0 .223.18.403.403.403zm0 0M18 10.602c.223 0 .398-.18.398-.403V4.602a.398.398 0 1 0-.796 0v5.597c0 .223.175.403.398.403zm0 0M20.398 10.602c.223 0 .403-.18.403-.403V4.602a.401.401 0 0 0-.8 0l-.001 5.597c0 .223.18.403.398.403zm0 0M3.602 17.8a.401.401 0 0 0-.403.4v.402a.401.401 0 0 0 .801 0v-.403a.4.4 0 0 0-.398-.398zm0 0M4.8 17.8a.401.401 0 0 0-.402.4v.402a.401.401 0 0 0 .801 0v-.403a.4.4 0 0 0-.398-.398zm0 0M6 17.8a.398.398 0 0 0-.398.4v.402a.398.398 0 1 0 .796 0v-.403A.398.398 0 0 0 6 17.801zm0 0M7.2 17.8a.4.4 0 0 0-.4.4v.402a.4.4 0 0 0 .802 0v-.403a.401.401 0 0 0-.403-.398zm0 0M8.398 17.8a.4.4 0 0 0-.398.4v.402a.4.4 0 0 0 .8 0v-.403a.401.401 0 0 0-.402-.398zm0 0M9.602 17.8a.401.401 0 0 0-.403.4v.402a.401.401 0 0 0 .801 0v-.403a.4.4 0 0 0-.398-.398zm0 0M10.8 17.8a.401.401 0 0 0-.402.4v.402a.401.401 0 0 0 .801 0v-.403a.4.4 0 0 0-.398-.398zm0 0M12 17.8a.398.398 0 0 0-.398.4v.402a.398.398 0 1 0 .796 0v-.403a.398.398 0 0 0-.398-.398zm0 0M13.2 17.8a.4.4 0 0 0-.4.4v.402a.4.4 0 0 0 .802 0v-.403a.401.401 0 0 0-.403-.398zm0 0M14.398 17.8a.4.4 0 0 0-.398.4v.402a.4.4 0 0 0 .8 0v-.403a.401.401 0 0 0-.402-.398zm0 0M15.602 17.8a.401.401 0 0 0-.403.4v.402a.401.401 0 0 0 .801 0v-.403a.4.4 0 0 0-.398-.398zm0 0M16.8 17.8a.401.401 0 0 0-.402.4v.402a.401.401 0 0 0 .801 0v-.403a.4.4 0 0 0-.398-.398zm0 0M18 17.8a.398.398 0 0 0-.398.4v.402a.398.398 0 1 0 .796 0v-.403a.398.398 0 0 0-.398-.398zm0 0M19.2 17.8a.4.4 0 0 0-.4.4v.402a.4.4 0 0 0 .802 0v-.403a.401.401 0 0 0-.403-.398zm0 0M20.8 18.2a.401.401 0 0 0-.8 0v.402a.4.4 0 0 0 .8 0zm0 0M3.2 21.398H.8v-2a.401.401 0 0 0-.8 0V22.2h3.2a.401.401 0 1 0 0-.8zm0 0M23.602 19a.401.401 0 0 0-.403.398v2h-2a.401.401 0 0 0 0 .801H24v-2.8a.4.4 0 0 0-.398-.399zm0 0M20.8 1.8a.401.401 0 1 0 0 .802h2.4v2a.401.401 0 0 0 .8 0V1.8zm0 0M.398 5c.223 0 .403-.18.403-.398v-2h2a.401.401 0 0 0 0-.801H0v2.8A.4.4 0 0 0 .398 5zm0 0M23.602 11H.398a.4.4 0 0 0 0 .8h23.204a.401.401 0 0 0 0-.8zm0 0"/>
</svg>
