<svg xmlns="http://www.w3.org/2000/svg" width="32" height="32" viewBox="0 0 24 24">
    <path d="M2 19.601562C2.222656 19.601562 2.398438 19.421875 2.398438 19.199219L2.398438 4.398438C2.398438 4.179688 2.222656 4 2 4 1.777344 4 1.601562 4.179688 1.601562 4.398438L1.601562 19.199219C1.601562 19.421875 1.777344 19.601562 2 19.601562zM22 19.601562C22.222656 19.601562 22.398438 19.421875 22.398438 19.199219L22.398438 4.398438C22.398438 4.179688 22.222656 4 22 4 21.777344 4 21.601562 4.179688 21.601562 4.398438L21.601562 19.199219C21.601562 19.421875 21.777344 19.601562 22 19.601562zM3.601562 16.398438C3.820312 16.398438 4 16.222656 4 16L4 4.398438C4 4.179688 3.820312 4 3.601562 4 3.378906 4 3.199219 4.179688 3.199219 4.398438L3.199219 16C3.199219 16.222656 3.378906 16.398438 3.601562 16.398438zM4.800781 16.398438C5.019531 16.398438 5.199219 16.222656 5.199219 16L5.199219 4.398438C5.199219 4.179688 5.019531 4 4.800781 4 4.578125 4 4.398438 4.179688 4.398438 4.398438L4.398438 16C4.398438 16.222656 4.578125 16.398438 4.800781 16.398438zM6.800781 16.398438C7.019531 16.398438 7.199219 16.222656 7.199219 16L7.199219 4.398438C7.199219 4.179688 7.019531 4 6.800781 4 6.578125 4 6.398438 4.179688 6.398438 4.398438L6.398438 16C6.398438 16.222656 6.578125 16.398438 6.800781 16.398438zM8 16.398438C8.222656 16.398438 8.398438 16.222656 8.398438 16L8.398438 4.398438C8.398438 4.179688 8.222656 4 8 4 7.777344 4 7.601562 4.179688 7.601562 4.398438L7.601562 16C7.601562 16.222656 7.777344 16.398438 8 16.398438zM9.199219 16.398438C9.421875 16.398438 9.601562 16.222656 9.601562 16L9.601562 4.398438C9.601562 4.179688 9.421875 4 9.199219 4 8.980469 4 8.800781 4.179688 8.800781 4.398438L8.800781 16C8.800781 16.222656 8.980469 16.398438 9.199219 16.398438zM11.601562 16.398438C11.820312 16.398438 12 16.222656 12 16L12 4.398438C12 4.179688 11.820312 4 11.601562 4 11.378906 4 11.199219 4.179688 11.199219 4.398438L11.199219 16C11.199219 16.222656 11.378906 16.398438 11.601562 16.398438zM13.601562 16.398438C13.820312 16.398438 14 16.222656 14 16L14 4.398438C14 4.179688 13.820312 4 13.601562 4 13.378906 4 13.199219 4.179688 13.199219 4.398438L13.199219 16C13.199219 16.222656 13.378906 16.398438 13.601562 16.398438zM14.800781 16.398438C15.019531 16.398438 15.199219 16.222656 15.199219 16L15.199219 4.398438C15.199219 4.179688 15.019531 4 14.800781 4 14.578125 4 14.398438 4.179688 14.398438 4.398438L14.398438 16C14.398438 16.222656 14.578125 16.398438 14.800781 16.398438zM16.800781 16.398438C17.019531 16.398438 17.199219 16.222656 17.199219 16L17.199219 4.398438C17.199219 4.179688 17.019531 4 16.800781 4 16.578125 4 16.398438 4.179688 16.398438 4.398438L16.398438 16C16.398438 16.222656 16.578125 16.398438 16.800781 16.398438zM18 16.398438C18.222656 16.398438 18.398438 16.222656 18.398438 16L18.398438 4.398438C18.398438 4.179688 18.222656 4 18 4 17.777344 4 17.601562 4.179688 17.601562 4.398438L17.601562 16C17.601562 16.222656 17.777344 16.398438 18 16.398438zM20.398438 16.398438C20.621094 16.398438 20.800781 16.222656 20.800781 16L20.800781 4.398438C20.800781 4.179688 20.621094 4 20.398438 4 20.179688 4 20 4.179688 20 4.398438L20 16C20 16.222656 20.179688 16.398438 20.398438 16.398438zM3.601562 18.800781C3.820312 18.800781 4 18.621094 4 18.398438L4 18C4 17.777344 3.820312 17.601562 3.601562 17.601562 3.378906 17.601562 3.199219 17.777344 3.199219 18L3.199219 18.398438C3.199219 18.621094 3.378906 18.800781 3.601562 18.800781zM4.800781 18.800781C5.019531 18.800781 5.199219 18.621094 5.199219 18.398438L5.199219 18C5.199219 17.777344 5.019531 17.601562 4.800781 17.601562 4.578125 17.601562 4.398438 17.777344 4.398438 18L4.398438 18.398438C4.398438 18.621094 4.578125 18.800781 4.800781 18.800781zM6 18.800781C6.222656 18.800781 6.398438 18.621094 6.398438 18.398438L6.398438 18C6.398438 17.777344 6.222656 17.601562 6 17.601562 5.777344 17.601562 5.601562 17.777344 5.601562 18L5.601562 18.398438C5.601562 18.621094 5.777344 18.800781 6 18.800781zM6.800781 18L6.800781 18.398438C6.800781 18.621094 6.980469 18.800781 7.199219 18.800781 7.421875 18.800781 7.601562 18.621094 7.601562 18.398438L7.601562 18C7.601562 17.777344 7.421875 17.601562 7.199219 17.601562 6.980469 17.601562 6.800781 17.777344 6.800781 18zM8 18L8 18.398438C8 18.621094 8.179688 18.800781 8.398438 18.800781 8.621094 18.800781 8.800781 18.621094 8.800781 18.398438L8.800781 18C8.800781 17.777344 8.621094 17.601562 8.398438 17.601562 8.179688 17.601562 8 17.777344 8 18zM9.199219 18L9.199219 18.398438C9.199219 18.621094 9.378906 18.800781 9.601562 18.800781 9.820312 18.800781 10 18.621094 10 18.398438L10 18C10 17.777344 9.820312 17.601562 9.601562 17.601562 9.378906 17.601562 9.199219 17.777344 9.199219 18zM10.800781 18.800781C11.019531 18.800781 11.199219 18.621094 11.199219 18.398438L11.199219 18C11.199219 17.777344 11.019531 17.601562 10.800781 17.601562 10.578125 17.601562 10.398438 17.777344 10.398438 18L10.398438 18.398438C10.398438 18.621094 10.578125 18.800781 10.800781 18.800781zM11.601562 18L11.601562 18.398438C11.601562 18.621094 11.777344 18.800781 12 18.800781 12.222656 18.800781 12.398438 18.621094 12.398438 18.398438L12.398438 18C12.398438 17.777344 12.222656 17.601562 12 17.601562 11.777344 17.601562 11.601562 17.777344 11.601562 18zM13.199219 18.800781C13.421875 18.800781 13.601562 18.621094 13.601562 18.398438L13.601562 18C13.601562 17.777344 13.421875 17.601562 13.199219 17.601562 12.980469 17.601562 12.800781 17.777344 12.800781 18L12.800781 18.398438C12.800781 18.621094 12.980469 18.800781 13.199219 18.800781zM14 18.398438C14 18.621094 14.179688 18.800781 14.398438 18.800781 14.621094 18.800781 14.800781 18.621094 14.800781 18.398438L14.800781 18C14.800781 17.777344 14.621094 17.601562 14.398438 17.601562 14.179688 17.601562 14 17.777344 14 18zM15.199219 18.398438C15.199219 18.621094 15.378906 18.800781 15.601562 18.800781 15.820312 18.800781 16 18.621094 16 18.398438L16 18C16 17.777344 15.820312 17.601562 15.601562 17.601562 15.378906 17.601562 15.199219 17.777344 15.199219 18zM16.800781 18.800781C17.019531 18.800781 17.199219 18.621094 17.199219 18.398438L17.199219 18C17.199219 17.777344 17.019531 17.601562 16.800781 17.601562 16.578125 17.601562 16.398438 17.777344 16.398438 18L16.398438 18.398438C16.398438 18.621094 16.578125 18.800781 16.800781 18.800781zM18 18.800781C18.222656 18.800781 18.398438 18.621094 18.398438 18.398438L18.398438 18C18.398438 17.777344 18.222656 17.601562 18 17.601562 17.777344 17.601562 17.601562 17.777344 17.601562 18L17.601562 18.398438C17.601562 18.621094 17.777344 18.800781 18 18.800781zM19.199219 18.800781C19.421875 18.800781 19.601562 18.621094 19.601562 18.398438L19.601562 18C19.601562 17.777344 19.421875 17.601562 19.199219 17.601562 18.980469 17.601562 18.800781 17.777344 18.800781 18L18.800781 18.398438C18.800781 18.621094 18.980469 18.800781 19.199219 18.800781zM20.398438 18.800781C20.621094 18.800781 20.800781 18.621094 20.800781 18.398438L20.800781 18C20.800781 17.777344 20.621094 17.601562 20.398438 17.601562 20.179688 17.601562 20 17.777344 20 18L20 18.398438C20 18.621094 20.179688 18.800781 20.398438 18.800781zM20.398438 18.800781"/>
    <path d="M 0 2 L 0 22 L 24 22 L 24 2 Z M 23.199219 21.199219 L 0.800781 21.199219 L 0.800781 2.800781 L 23.199219 2.800781 Z M 23.199219 21.199219"/>
</svg>
