<svg xmlns="http://www.w3.org/2000/svg" width="32" height="32" viewBox="0 0 24 24">
    <path d="M24 8h-9.836L18.5 3.668A2 2 0 0 0 19.602 4c1.101 0 2-.898 2-2 0-1.102-.899-2-2-2a2.001 2.001 0 0 0-1.668 3.102L13.035 8h-2.07L6.066 3.102A2.001 2.001 0 0 0 4.398 0c-1.101 0-2 .898-2 2 0 1.102.899 2 2 2A2 2 0 0 0 5.5 3.668L9.836 8H0v3.2h.8v10.972A1.83 1.83 0 0 0 2.626 24h18.75a1.83 1.83 0 0 0 1.824-1.828V11.199H24zm-5.602-6A1.202 1.202 0 0 1 20.8 2c0 .66-.538 1.2-1.198 1.2a1.14 1.14 0 0 1-.516-.122l.832-.832a.4.4 0 0 0 0-.566.396.396 0 0 0-.563 0l-.835.836A1.206 1.206 0 0 1 18.398 2zm-14 1.2C3.738 3.2 3.2 2.66 3.2 2a1.202 1.202 0 0 1 2.403 0c0 .184-.047.36-.122.516l-.835-.836a.396.396 0 0 0-.563 0 .4.4 0 0 0 0 .566l.832.832a1.14 1.14 0 0 1-.516.121zm7.836 5.6L12 9.036l-.234-.234zm10.164 13.372c0 .566-.457 1.027-1.023 1.027H2.625c-.566 0-1.023-.46-1.023-1.027V11.199h20.796zm.801-11.774H.801V8.801h9.832l1.086 1.082a.396.396 0 0 0 .562 0L13.367 8.8H23.2zm0 0"/>
    <path d="M4 13.602h1.602a.401.401 0 0 0 0-.801H4a.398.398 0 0 0-.398.398c0 .223.175.403.398.403zm0 0M4 15.2h1.602a.4.4 0 0 0 0-.802H4a.398.398 0 0 0-.398.403c0 .219.175.398.398.398zm0 0M4 16.8h1.602a.401.401 0 0 0 0-.8H4a.398.398 0 0 0-.398.398c0 .223.175.403.398.403zm0 0M4 18.398h1.602a.398.398 0 1 0 0-.796H4a.395.395 0 0 0-.398.398c0 .223.175.398.398.398zm0 0M4 20h1.602a.4.4 0 0 0 0-.8H4a.398.398 0 0 0-.398.402c0 .218.175.398.398.398zm0 0M4 21.602h1.602a.401.401 0 0 0 0-.801H4a.398.398 0 0 0-.398.398c0 .223.175.403.398.403zm0 0M8.8 13.602h1.598a.401.401 0 0 0 0-.8L8.801 12.8a.401.401 0 1 0 0 .8zm0 0M8.8 15.2h1.598a.401.401 0 1 0 0-.802H8.801a.401.401 0 0 0 0 .8zm0 0M8.8 16.8h1.598a.401.401 0 0 0 0-.8H8.801a.401.401 0 1 0 0 .8zm0 0M8.8 18.398h1.598a.398.398 0 1 0 0-.796H8.801a.398.398 0 1 0 0 .796zm0 0M8.8 20h1.598a.401.401 0 1 0 0-.8H8.801a.401.401 0 0 0 0 .8zm0 0M8.8 21.602h1.598a.401.401 0 0 0 0-.8L8.801 20.8a.401.401 0 1 0 0 .8zm0 0M13.602 13.602h1.597a.401.401 0 0 0 0-.8l-1.597-.001a.401.401 0 1 0 0 .8zm0 0M13.602 15.2h1.597a.401.401 0 1 0 0-.802h-1.597a.401.401 0 0 0 0 .8zm0 0M13.602 16.8h1.597a.401.401 0 0 0 0-.8h-1.597a.401.401 0 1 0 0 .8zm0 0M13.602 18.398h1.597a.398.398 0 1 0 0-.796h-1.597a.398.398 0 1 0 0 .796zm0 0M13.602 20h1.597a.401.401 0 1 0 0-.8h-1.597a.401.401 0 0 0 0 .8zm0 0M13.602 21.602h1.597a.401.401 0 0 0 0-.8l-1.597-.001a.401.401 0 1 0 0 .8zm0 0M18.398 13.602H20c.223 0 .398-.18.398-.403a.398.398 0 0 0-.398-.398h-1.602a.4.4 0 0 0 0 .8zm0 0M18.398 15.2H20c.223 0 .398-.18.398-.4a.398.398 0 0 0-.398-.402h-1.602a.401.401 0 0 0 0 .801zm0 0M18.398 16.8H20c.223 0 .398-.179.398-.402A.398.398 0 0 0 20 16h-1.602a.4.4 0 0 0 0 .8zm0 0M18.398 18.398H20a.395.395 0 0 0 .398-.398.395.395 0 0 0-.398-.398h-1.602a.398.398 0 1 0 0 .796zm0 0M18.398 20H20c.223 0 .398-.18.398-.398a.398.398 0 0 0-.398-.403h-1.602a.401.401 0 0 0 0 .801zm0 0M18.398 21.602H20c.223 0 .398-.18.398-.403a.398.398 0 0 0-.398-.398h-1.602a.4.4 0 0 0 0 .8zm0 0"/>
</svg>
