<svg xmlns="http://www.w3.org/2000/svg" width="32" height="32" viewBox="0 0 24 24">
    <path d="M24 16.68V6.102H4.473V2.848a.403.403 0 0 0-.407-.407h-.87A1.625 1.625 0 0 0 1.628 1.22a1.627 1.627 0 0 0 0 3.254c.754 0 1.387-.52 1.566-1.22h.465v15.458c0 .227.184.406.406.406H6.93c-.5.371-.828.961-.828 1.63 0 1.12.914 2.034 2.035 2.034a2.036 2.036 0 0 0 2.031-2.035c0-.668-.328-1.258-.824-1.629h7.347c-.5.371-.828.961-.828 1.63 0 1.12.914 2.034 2.035 2.034a2.039 2.039 0 0 0 2.036-2.035c0-.668-.329-1.258-.829-1.629h2.454a.406.406 0 1 0 0-.813H4.473V16.68zM1.629 3.66a.815.815 0 0 1-.817-.812.811.811 0 1 1 1.516-.406h-.293a.403.403 0 0 0-.406.406c0 .226.18.406.406.406h.293a.811.811 0 0 1-.7.406zm6.508 18.305a1.221 1.221 0 0 1-1.223-1.219 1.221 1.221 0 0 1 2.441 0 1.22 1.22 0 0 1-1.218 1.219zm9.761 0a1.22 1.22 0 0 1-1.218-1.219 1.22 1.22 0 0 1 1.218-1.219 1.22 1.22 0 0 1 1.22 1.22 1.22 1.22 0 0 1-1.22 1.218zm5.29-6.102H4.473V6.914h18.715zm0 0"/>
    <path d="M7.32 13.832a.406.406 0 0 0-.406.406v.813c0 .226.184.406.406.406.227 0 .41-.18.41-.406v-.813a.407.407 0 0 0-.41-.406zm0 0M7.32 8.95a.41.41 0 0 0 .41-.407V7.73a.41.41 0 0 0-.41-.41.41.41 0 0 0-.406.41v.813c0 .223.184.406.406.406zm0 0M7.32 12.203c.227 0 .41-.18.41-.406v-.813a.407.407 0 0 0-.41-.406.406.406 0 0 0-.406.406v.813c0 .226.184.406.406.406zm0 0M10.578 13.832c-.226 0-.41.18-.41.406v.813c0 .226.184.406.41.406.223 0 .406-.18.406-.406v-.813a.406.406 0 0 0-.406-.406zm0 0M10.578 8.95a.408.408 0 0 0 .406-.407V7.73a.41.41 0 0 0-.406-.41.41.41 0 0 0-.41.41v.813a.41.41 0 0 0 .41.406zm0 0M10.578 12.203c.223 0 .406-.18.406-.406v-.813a.406.406 0 0 0-.406-.406c-.226 0-.41.18-.41.406v.813c0 .226.184.406.41.406zm0 0M13.832 13.832c-.227 0-.41.18-.41.406v.813c0 .226.183.406.41.406.223 0 .406-.18.406-.406v-.813a.406.406 0 0 0-.406-.406zm0 0M13.832 8.95a.408.408 0 0 0 .406-.407V7.73a.41.41 0 0 0-.406-.41.41.41 0 0 0-.41.41v.813a.41.41 0 0 0 .41.406zm0 0M13.832 12.203c.223 0 .406-.18.406-.406v-.813a.406.406 0 0 0-.406-.406c-.227 0-.41.18-.41.406v.813c0 .226.183.406.41.406zm0 0M17.086 13.832a.403.403 0 0 0-.406.406v.813a.406.406 0 1 0 .813 0v-.813a.406.406 0 0 0-.407-.406zm0 0M17.086 8.95a.408.408 0 0 0 .406-.407V7.73a.407.407 0 0 0-.813 0v.813c0 .223.18.406.407.406zm0 0M17.086 12.203c.223 0 .406-.18.406-.406v-.813a.406.406 0 1 0-.812 0v.813c0 .226.18.406.406.406zm0 0M20.34 13.832a.403.403 0 0 0-.406.406v.813a.406.406 0 1 0 .813 0v-.813a.406.406 0 0 0-.407-.406zm0 0M20.34 8.95a.408.408 0 0 0 .406-.407V7.73a.407.407 0 0 0-.813 0v.813c0 .223.18.406.407.406zm0 0M20.34 12.203c.223 0 .406-.18.406-.406v-.813a.406.406 0 1 0-.812 0v.813c0 .226.18.406.406.406zm0 0M5.29 13.422h1.218a.406.406 0 1 0 0-.813H5.289a.406.406 0 1 0 0 .813zm0 0M5.29 10.168h1.218a.406.406 0 1 0 0-.813H5.289a.406.406 0 1 0 0 .813zm0 0M9.762 12.61H8.137a.406.406 0 1 0 0 .812h1.625a.406.406 0 1 0 0-.813zm0 0M8.137 10.168h1.625a.406.406 0 1 0 0-.813H8.137a.406.406 0 1 0 0 .813zm0 0M13.016 12.61H11.39a.406.406 0 1 0 0 .812h1.625a.406.406 0 1 0 0-.813zm0 0M11.39 10.168h1.626a.406.406 0 1 0 0-.813H11.39a.406.406 0 1 0 0 .813zm0 0M16.27 12.61h-1.625a.406.406 0 1 0 0 .812h1.625a.407.407 0 1 0 0-.813zm0 0M14.645 10.168h1.625a.407.407 0 1 0 0-.813h-1.625a.406.406 0 1 0 0 .813zm0 0M19.527 12.61h-1.629a.406.406 0 1 0 0 .812h1.63a.406.406 0 1 0 0-.813zm0 0M17.898 10.168h1.63a.406.406 0 1 0 0-.813h-1.63a.406.406 0 1 0 0 .813zm0 0M22.371 12.61h-1.219a.406.406 0 1 0 0 .813l1.22-.001a.407.407 0 1 0 0-.813zm0 0M21.152 10.168h1.22a.407.407 0 1 0 0-.813h-1.22a.406.406 0 1 0 0 .813zm0 0"/>
</svg>
