<svg xmlns="http://www.w3.org/2000/svg" width="32" height="32" viewBox="0 0 24 24">
    <path d="M 4.671875 5.203125 L 4.339844 3.203125 L 3.140625 3.203125 C 2.964844 2.515625 2.34375 2.003906 1.601562 2.003906 C 0.71875 2.003906 0 2.71875 0 3.601562 C 0 4.484375 0.71875 5.203125 1.601562 5.203125 C 2.34375 5.203125 2.964844 4.6875 3.140625 4 L 3.660156 4 L 3.859375 5.203125 L 3.84375 5.203125 L 5.914062 15.605469 C 4.925781 15.679688 4.105469 16.441406 4.007812 17.394531 C 3.953125 17.957031 4.136719 18.519531 4.515625 18.9375 C 4.894531 19.355469 5.4375 19.597656 6 19.597656 L 6.796875 19.597656 C 6.796875 20.921875 7.875 21.996094 9.199219 21.996094 C 10.519531 21.996094 11.597656 20.921875 11.597656 19.597656 L 15.996094 19.597656 C 15.996094 20.921875 17.074219 21.996094 18.394531 21.996094 C 19.71875 21.996094 20.796875 20.921875 20.796875 19.597656 L 22.394531 19.597656 C 22.617188 19.597656 22.796875 19.417969 22.796875 19.199219 C 22.796875 18.976562 22.617188 18.796875 22.394531 18.796875 L 20.65625 18.796875 C 20.324219 17.867188 19.4375 17.199219 18.394531 17.199219 C 17.351562 17.199219 16.46875 17.867188 16.136719 18.796875 L 11.457031 18.796875 C 11.128906 17.867188 10.242188 17.199219 9.199219 17.199219 C 8.15625 17.199219 7.269531 17.867188 6.9375 18.796875 L 6 18.796875 C 5.660156 18.796875 5.339844 18.652344 5.109375 18.402344 C 4.878906 18.144531 4.769531 17.816406 4.804688 17.476562 C 4.867188 16.871094 5.421875 16.398438 6.074219 16.398438 L 6.386719 16.398438 C 6.394531 16.398438 6.402344 16.398438 6.410156 16.398438 L 15.328125 16.394531 L 22.003906 16.394531 C 23.105469 16.394531 24 15.5 24 14.398438 L 24 5.195312 Z M 1.601562 4.402344 C 1.160156 4.402344 0.800781 4.042969 0.800781 3.601562 C 0.800781 3.160156 1.160156 2.800781 1.601562 2.800781 C 2.039062 2.800781 2.398438 3.160156 2.398438 3.601562 C 2.398438 4.042969 2.039062 4.402344 1.601562 4.402344 Z M 18.394531 18 C 19.277344 18 19.996094 18.714844 19.996094 19.597656 C 19.996094 20.480469 19.277344 21.199219 18.394531 21.199219 C 17.515625 21.199219 16.796875 20.480469 16.796875 19.597656 C 16.796875 18.714844 17.515625 18 18.394531 18 Z M 9.199219 18 C 10.082031 18 10.796875 18.714844 10.796875 19.597656 C 10.796875 20.480469 10.082031 21.199219 9.199219 21.199219 C 8.316406 21.199219 7.597656 20.480469 7.597656 19.597656 C 7.597656 18.714844 8.316406 18 9.199219 18 Z M 23.199219 12.082031 L 19.6875 15.59375 L 16.292969 15.597656 L 23.199219 8.691406 Z M 23.199219 7.558594 L 15.164062 15.597656 L 11.769531 15.597656 L 21.371094 5.996094 L 23.199219 5.996094 Z M 7.242188 15.597656 L 16.84375 5.996094 L 20.238281 5.996094 L 10.636719 15.597656 Z M 5.3125 8.480469 L 7.792969 6 L 11.1875 6 L 5.875 11.3125 Z M 6.660156 6 L 5.125 7.535156 L 4.820312 6 Z M 6.0625 12.253906 L 12.316406 6 L 15.710938 6 L 6.644531 15.066406 C 6.636719 15.074219 6.632812 15.085938 6.625 15.09375 Z M 22.003906 15.59375 L 20.820312 15.59375 L 23.199219 13.214844 L 23.199219 14.398438 C 23.199219 15.058594 22.664062 15.59375 22.003906 15.59375 Z M 22.003906 15.59375"/>
</svg>
