<svg xmlns="http://www.w3.org/2000/svg" width="32" height="32" viewBox="0 0 24 24">
    <path d="M24 16.68V6.102h-3.66a.406.406 0 1 0 0 .812h2.848v8.95H4.473v-8.95H7.32a.407.407 0 1 0 0-.812H4.473V2.848a.403.403 0 0 0-.407-.407h-.87A1.625 1.625 0 0 0 1.628 1.22a1.627 1.627 0 0 0 0 3.254c.754 0 1.387-.52 1.566-1.22h.465v15.864c0 .227.184.41.406.41H6.93c-.5.368-.828.957-.828 1.625 0 1.121.914 2.035 2.035 2.035a2.036 2.036 0 0 0 2.031-2.035 2.02 2.02 0 0 0-.824-1.625h7.347c-.5.368-.828.957-.828 1.625 0 1.121.914 2.035 2.035 2.035a2.039 2.039 0 0 0 2.036-2.035c0-.668-.329-1.257-.829-1.625h2.454a.407.407 0 0 0 .406-.41.406.406 0 0 0-.406-.406H4.473V16.68zM1.629 3.66a.815.815 0 0 1-.817-.812.811.811 0 1 1 1.516-.406h-.293a.403.403 0 0 0-.406.406c0 .226.18.406.406.406h.293a.811.811 0 0 1-.7.406zm6.508 18.711a1.221 1.221 0 0 1-1.223-1.219 1.221 1.221 0 0 1 2.441 0 1.22 1.22 0 0 1-1.218 1.22zm9.761 0a1.22 1.22 0 0 1-1.218-1.219 1.22 1.22 0 0 1 1.218-1.218 1.22 1.22 0 0 1 1.22 1.218 1.22 1.22 0 0 1-1.22 1.22zm0 0"/>
    <path d="M13.832 12.203a5.701 5.701 0 0 0 5.695-5.695A5.701 5.701 0 0 0 13.832.812a5.701 5.701 0 0 0-5.695 5.696 5.701 5.701 0 0 0 5.695 5.695zm0-10.574a4.883 4.883 0 0 1 4.879 4.879 4.886 4.886 0 0 1-4.879 4.883 4.89 4.89 0 0 1-4.883-4.883 4.886 4.886 0 0 1 4.883-4.88zm0 0"/>
    <path d="M10.984 6.508c.102 0 .207-.04.286-.117l2.152-2.157v5.528c0 .226.183.406.41.406.223 0 .406-.18.406-.406V4.234l2.153 2.157a.408.408 0 0 0 .574-.579L14.117 2.97a.348.348 0 0 0-.133-.09.385.385 0 0 0-.308 0 .381.381 0 0 0-.133.09l-2.848 2.844a.408.408 0 0 0 .29.695zm0 0"/>
</svg>
