<svg xmlns="http://www.w3.org/2000/svg" width="32" height="32" viewBox="0 0 24 24">
    <path d="M22.781 6.71V1.423h-4.07V.203h-7.32v3.254H5.695v3.254H4.473V3.457a.406.406 0 0 0-.407-.406h-.87a1.621 1.621 0 0 0-1.567-1.219 1.627 1.627 0 1 0 0 3.254c.754 0 1.387-.524 1.566-1.223h.465V19.73c0 .223.184.407.406.407H6.93a2.02 2.02 0 0 0-.828 1.625c0 1.12.914 2.035 2.035 2.035a2.027 2.027 0 1 0 1.207-3.66h7.347a2.02 2.02 0 0 0-.828 1.625c0 1.12.914 2.035 2.035 2.035a2.039 2.039 0 0 0 2.036-2.035 2.02 2.02 0 0 0-.829-1.625h2.454a.406.406 0 0 0 .406-.407c0-.226-.18-.41-.406-.41H4.473v-2.03H24V6.71zM1.63 4.27a.815.815 0 0 1-.817-.813.811.811 0 1 1 1.516-.406h-.293a.406.406 0 1 0 0 .812h.293a.811.811 0 0 1-.7.407zm6.508 18.714a1.221 1.221 0 1 1 0 0zm9.761 0a1.22 1.22 0 1 1 0-2.441 1.22 1.22 0 0 1 0 2.441zM4.473 10.781h2.441v2.438H4.473zm3.257 0h2.438v2.438H7.73zm2.438-3.254v2.438H7.73V7.527zm1.223 0h2.03v2.438h-2.437V7.527zm5.289 0v2.438h-2.442V7.527zm1.218 0h2.036v2.438h-2.442V7.527zm-3.66 3.254h2.442v2.438h-2.442zm-.816 2.438h-2.438V10.78h2.438zm-3.254.816v2.438H7.73v-2.438zm.816 0h2.438v2.438h-2.438zm3.254 0h2.442v2.438h-2.442zm3.254 0h2.442v2.438h-2.442zm0-.816V10.78h2.442v2.438zm3.254-2.438h2.442v2.438h-2.442zm2.442-3.254v2.438h-2.442V7.527zm-1.223-5.289v4.473H18.71V2.238zm-9.762-1.222h5.695V6.71h-5.695zM6.508 4.27h4.883v2.44H6.508zm.406 3.257v2.438H4.473V7.527zm-2.441 6.508h2.441v2.438H4.473zm16.273 2.438v-2.438h2.442v2.438zm0 0"/>
</svg>
