<svg xmlns="http://www.w3.org/2000/svg" width="32" height="32" viewBox="0 0 24 24">
    <path d="M4.672 5L4.34 3h-1.2a1.592 1.592 0 0 0-1.538-1.2C.719 1.8 0 2.52 0 3.403A1.6 1.6 0 0 0 1.602 5c.742 0 1.363-.512 1.539-1.2h.52L3.858 5h-.011l.09.465v.004l1.023 5.347L5.379 13l.535 2.805c-.984.074-1.809.832-1.906 1.789a2.01 2.01 0 0 0 .508 1.543c.379.422.921.66 1.484.66h.797a2.406 2.406 0 0 0 2.402 2.402 2.405 2.405 0 0 0 2.399-2.402h4.398a2.405 2.405 0 0 0 2.399 2.402 2.406 2.406 0 0 0 2.402-2.402h1.598a.395.395 0 0 0 .398-.399.395.395 0 0 0-.398-.398h-1.739a2.394 2.394 0 1 0-4.52 0h-4.679a2.401 2.401 0 0 0-2.258-1.602c-1.043 0-1.93.668-2.261 1.602H6c-.34 0-.66-.148-.89-.398a1.191 1.191 0 0 1-.305-.926c.062-.606.617-1.078 1.27-1.078h7.12l2.86-.004h5.949A1.996 1.996 0 0 0 24 14.602V4.996zm-3.07-.797a.802.802 0 0 1 0-1.601.801.801 0 0 1 0 1.601zM18.395 18.2a1.6 1.6 0 0 1 1.601 1.598c0 .883-.719 1.601-1.601 1.601a1.6 1.6 0 1 1 0-3.2zm-9.196 0a1.6 1.6 0 0 1 0 3.2 1.604 1.604 0 0 1-1.601-1.602 1.6 1.6 0 0 1 1.601-1.598zm14-9.597h-2.804V5.797h2.804zm-6.402 7.195V13h2.8v2.797zm0-3.598V9.4h2.8v2.8zm-7.2 3.598V13h2.801v2.797zm0-3.598V9.4h2.801v2.8zM5.505 9.4h3.293v2.8H6.039zm14.094-.797h-2.801V5.8h2.8zm-3.602 0h-2.8V5.797h2.8zM12.398 5.8v2.8h-2.8v-2.8zm.797 3.597h2.801V12.2h-2.8zm7.2 0h2.8V12.2h-2.8zM8.797 5.801v2.8H5.352l-.536-2.8zM6.195 13h2.602v2.797H6.73zm7 0h2.801v2.797h-2.8zm8.809 2.793h-1.61V13H23.2v1.598c0 .66-.535 1.195-1.195 1.195zm0 0"/>
</svg>
