<svg xmlns="http://www.w3.org/2000/svg" width="32" height="32" viewBox="0 0 24 24">
    <path d="M 22.398438 20 L 22.398438 19.191406 C 22.847656 19.152344 23.199219 18.777344 23.199219 18.320312 L 23.199219 6.878906 C 23.199219 6.394531 22.804688 6 22.320312 6 L 21.667969 6 C 21.628906 6 21.601562 5.96875 21.601562 5.933594 L 21.601562 3.265625 C 21.601562 2.789062 21.210938 2.398438 20.734375 2.398438 L 12.066406 2.398438 C 11.589844 2.398438 11.199219 2.789062 11.199219 3.265625 L 11.199219 5.933594 C 11.199219 5.96875 11.171875 6 11.132812 6 L 7.199219 6 L 7.199219 5.199219 L 9.714844 5.199219 C 10.09375 5.199219 10.398438 4.890625 10.398438 4.515625 L 10.398438 0.6875 C 10.398438 0.308594 10.09375 0 9.714844 0 L 2.285156 0 C 1.90625 0 1.601562 0.308594 1.601562 0.6875 L 1.601562 4.515625 C 1.601562 4.890625 1.90625 5.199219 2.285156 5.199219 L 4.800781 5.199219 L 4.800781 6 L 1.679688 6 C 1.195312 6 0.800781 6.394531 0.800781 6.878906 L 0.800781 18.320312 C 0.800781 18.777344 1.152344 19.152344 1.601562 19.191406 L 1.601562 20 L 0 20 L 0 24 L 24 24 L 24 20 Z M 1.601562 6.878906 C 1.601562 6.835938 1.636719 6.800781 1.679688 6.800781 L 4.800781 6.800781 L 4.800781 8 C 4.800781 8.222656 4.980469 8.398438 5.199219 8.398438 C 5.421875 8.398438 5.601562 8.222656 5.601562 8 L 5.601562 4.398438 L 2.398438 4.398438 L 2.398438 0.800781 L 9.601562 0.800781 L 9.601562 4.398438 L 6.398438 4.398438 L 6.398438 8 C 6.398438 8.222656 6.578125 8.398438 6.800781 8.398438 C 7.019531 8.398438 7.199219 8.222656 7.199219 8 L 7.199219 6.800781 L 11.132812 6.800781 C 11.609375 6.800781 12 6.410156 12 5.933594 L 12 3.265625 C 12 3.230469 12.03125 3.199219 12.066406 3.199219 L 20.734375 3.199219 C 20.769531 3.199219 20.800781 3.230469 20.800781 3.265625 L 20.800781 5.933594 C 20.800781 6.410156 21.1875 6.800781 21.667969 6.800781 L 22.320312 6.800781 C 22.363281 6.800781 22.398438 6.835938 22.398438 6.878906 L 22.398438 18.320312 C 22.398438 18.363281 22.363281 18.398438 22.320312 18.398438 L 1.679688 18.398438 C 1.636719 18.398438 1.601562 18.363281 1.601562 18.320312 Z M 2.398438 19.199219 L 21.601562 19.199219 L 21.601562 20 L 2.398438 20 Z M 23.199219 23.199219 L 0.800781 23.199219 L 0.800781 20.800781 L 23.199219 20.800781 Z M 23.199219 23.199219"/>
    <path d="M8 21.601562L2.398438 21.601562C2.179688 21.601562 2 21.777344 2 22 2 22.222656 2.179688 22.398438 2.398438 22.398438L8 22.398438C8.222656 22.398438 8.398438 22.222656 8.398438 22 8.398438 21.777344 8.222656 21.601562 8 21.601562zM22 21.601562L21.601562 21.601562C21.378906 21.601562 21.199219 21.777344 21.199219 22 21.199219 22.222656 21.378906 22.398438 21.601562 22.398438L22 22.398438C22.222656 22.398438 22.398438 22.222656 22.398438 22 22.398438 21.777344 22.222656 21.601562 22 21.601562zM20.398438 3.601562L12.398438 3.601562 12.398438 8.800781 20.398438 8.800781zM19.601562 8L13.199219 8 13.199219 4.398438 19.601562 4.398438zM14.800781 9.601562L12.398438 9.601562 12.398438 12 14.800781 12zM14 11.199219L13.199219 11.199219 13.199219 10.398438 14 10.398438zM15.199219 12L17.601562 12 17.601562 9.601562 15.199219 9.601562zM16 10.398438L16.800781 10.398438 16.800781 11.199219 16 11.199219zM18 12L20.398438 12 20.398438 9.601562 18 9.601562zM18.800781 10.398438L19.601562 10.398438 19.601562 11.199219 18.800781 11.199219zM14.800781 12.398438L12.398438 12.398438 12.398438 14.800781 14.800781 14.800781zM14 14L13.199219 14 13.199219 13.199219 14 13.199219zM15.199219 14.800781L17.601562 14.800781 17.601562 12.398438 15.199219 12.398438zM16 13.199219L16.800781 13.199219 16.800781 14 16 14zM18 14.800781L20.398438 14.800781 20.398438 12.398438 18 12.398438zM18.800781 13.199219L19.601562 13.199219 19.601562 14 18.800781 14zM14.800781 15.199219L12.398438 15.199219 12.398438 17.601562 14.800781 17.601562zM14 16.800781L13.199219 16.800781 13.199219 16 14 16zM15.199219 17.601562L17.601562 17.601562 17.601562 15.199219 15.199219 15.199219zM16 16L16.800781 16 16.800781 16.800781 16 16.800781zM18 17.601562L20.398438 17.601562 20.398438 15.199219 18 15.199219zM18.800781 16L19.601562 16 19.601562 16.800781 18.800781 16.800781zM3.753906 1.230469C3.65625 1.191406 3.542969 1.191406 3.445312 1.230469 3.398438 1.25 3.355469 1.28125 3.316406 1.316406L2.917969 1.71875C2.761719 1.875 2.761719 2.125 2.917969 2.28125 2.996094 2.359375 3.097656 2.398438 3.199219 2.398438L3.199219 3.601562C3.199219 3.820312 3.378906 4 3.601562 4 3.820312 4 4 3.820312 4 3.601562L4 1.601562C4 1.546875 3.988281 1.496094 3.96875 1.445312 3.929688 1.347656 3.851562 1.269531 3.753906 1.230469zM5.882812 2.917969C5.726562 2.761719 5.472656 2.761719 5.316406 2.917969L4.917969 3.316406C4.761719 3.472656 4.761719 3.726562 4.917969 3.882812 4.996094 3.960938 5.097656 4 5.199219 4 5.300781 4 5.40625 3.960938 5.484375 3.882812L5.882812 3.484375C6.039062 3.328125 6.039062 3.074219 5.882812 2.917969zM6.800781 2.398438L6.800781 3.601562C6.800781 3.820312 6.980469 4 7.199219 4 7.421875 4 7.601562 3.820312 7.601562 3.601562L7.601562 1.601562C7.601562 1.546875 7.589844 1.496094 7.570312 1.445312 7.527344 1.347656 7.449219 1.269531 7.351562 1.230469 7.253906 1.191406 7.144531 1.191406 7.046875 1.230469 6.996094 1.25 6.953125 1.28125 6.917969 1.316406L6.515625 1.71875C6.359375 1.875 6.359375 2.125 6.515625 2.28125 6.59375 2.359375 6.699219 2.398438 6.800781 2.398438zM8.398438 2.398438L8.398438 3.601562C8.398438 3.820312 8.578125 4 8.800781 4 9.019531 4 9.199219 3.820312 9.199219 3.601562L9.199219 1.601562C9.199219 1.546875 9.1875 1.496094 9.167969 1.445312 9.128906 1.347656 9.050781 1.269531 8.953125 1.230469 8.855469 1.191406 8.746094 1.191406 8.648438 1.230469 8.597656 1.25 8.554688 1.28125 8.515625 1.316406L8.117188 1.71875C7.960938 1.875 7.960938 2.125 8.117188 2.28125 8.195312 2.359375 8.296875 2.398438 8.398438 2.398438zM2.398438 17.199219L9.601562 17.199219C9.820312 17.199219 10 17.019531 10 16.800781 10 16.578125 9.820312 16.398438 9.601562 16.398438L9.199219 16.398438 9.199219 9.199219 2.800781 9.199219 2.800781 16.398438 2.398438 16.398438C2.179688 16.398438 2 16.578125 2 16.800781 2 17.019531 2.179688 17.199219 2.398438 17.199219zM3.601562 10L8.398438 10 8.398438 16.398438 3.601562 16.398438zM11.199219 18C11.421875 18 11.601562 17.820312 11.601562 17.601562L11.601562 7.601562C11.601562 7.378906 11.421875 7.199219 11.199219 7.199219 10.980469 7.199219 10.800781 7.378906 10.800781 7.601562L10.800781 17.601562C10.800781 17.820312 10.980469 18 11.199219 18zM11.199219 18"/>
    <path d="M6.398438 14.800781L4.398438 14.800781C4.179688 14.800781 4 14.980469 4 15.199219 4 15.421875 4.179688 15.601562 4.398438 15.601562L6.398438 15.601562C6.621094 15.601562 6.800781 15.421875 6.800781 15.199219 6.800781 14.980469 6.621094 14.800781 6.398438 14.800781zM7.316406 14.914062C7.242188 14.992188 7.199219 15.097656 7.199219 15.199219 7.199219 15.304688 7.242188 15.40625 7.316406 15.484375 7.390625 15.554688 7.496094 15.601562 7.601562 15.601562 7.703125 15.601562 7.808594 15.554688 7.882812 15.484375 7.957031 15.40625 8 15.304688 8 15.199219 8 15.097656 7.957031 14.992188 7.882812 14.914062 7.734375 14.769531 7.46875 14.769531 7.316406 14.914062zM7.601562 10.800781L5.601562 10.800781C5.378906 10.800781 5.199219 10.980469 5.199219 11.199219 5.199219 11.421875 5.378906 11.601562 5.601562 11.601562L7.601562 11.601562C7.820312 11.601562 8 11.421875 8 11.199219 8 10.980469 7.820312 10.800781 7.601562 10.800781zM7.601562 12.800781L7.199219 12.800781C6.980469 12.800781 6.800781 12.980469 6.800781 13.199219 6.800781 13.421875 6.980469 13.601562 7.199219 13.601562L7.601562 13.601562C7.820312 13.601562 8 13.421875 8 13.199219 8 12.980469 7.820312 12.800781 7.601562 12.800781zM4.398438 13.601562L4.800781 13.601562C5.019531 13.601562 5.199219 13.421875 5.199219 13.199219 5.199219 12.980469 5.019531 12.800781 4.800781 12.800781L4.398438 12.800781C4.179688 12.800781 4 12.980469 4 13.199219 4 13.421875 4.179688 13.601562 4.398438 13.601562zM4.398438 11.601562C4.503906 11.601562 4.609375 11.554688 4.683594 11.484375 4.757812 11.40625 4.800781 11.308594 4.800781 11.199219 4.800781 11.097656 4.757812 10.992188 4.683594 10.914062 4.53125 10.769531 4.265625 10.769531 4.117188 10.914062 4.042969 10.992188 4 11.097656 4 11.199219 4 11.308594 4.042969 11.40625 4.117188 11.484375 4.191406 11.554688 4.296875 11.601562 4.398438 11.601562zM6.285156 13.484375C6.355469 13.40625 6.398438 13.304688 6.398438 13.199219 6.398438 13.097656 6.355469 12.992188 6.285156 12.914062 6.132812 12.769531 5.867188 12.769531 5.714844 12.914062 5.644531 12.992188 5.601562 13.089844 5.601562 13.199219 5.601562 13.304688 5.644531 13.40625 5.714844 13.484375 5.792969 13.554688 5.894531 13.601562 6 13.601562 6.105469 13.601562 6.207031 13.554688 6.285156 13.484375zM6.285156 13.484375"/>
</svg>
