<svg xmlns="http://www.w3.org/2000/svg" width="32" height="32" viewBox="0 0 24 24">
    <path d="M 23.984375 18.84375 C 24.019531 18.691406 23.980469 18.53125 23.867188 18.421875 L 21.601562 16.152344 L 21.601562 5.582031 C 21.601562 3.828125 20.171875 2.398438 18.417969 2.398438 L 18 2.398438 L 18 1.199219 L 14.398438 1.199219 L 14.398438 2.398438 L 5.582031 2.398438 C 3.828125 2.398438 2.398438 3.828125 2.398438 5.582031 L 2.398438 16.152344 L 0.132812 18.421875 C 0.0195312 18.53125 -0.0195312 18.691406 0.015625 18.84375 C 0.0117188 18.875 0 18.898438 0 18.925781 L 0 22.273438 C 0 22.5625 0.238281 22.800781 0.527344 22.800781 L 23.472656 22.800781 C 23.761719 22.800781 24 22.5625 24 22.273438 L 24 18.925781 C 24 18.898438 23.988281 18.875 23.984375 18.84375 Z M 15.199219 2 L 17.199219 2 L 17.199219 7.199219 L 15.199219 7.199219 Z M 18 4.800781 L 18.027344 4.800781 C 18.675781 4.800781 19.199219 5.324219 19.199219 5.972656 L 19.199219 7.199219 L 18 7.199219 Z M 3.199219 5.582031 C 3.199219 4.269531 4.269531 3.199219 5.582031 3.199219 L 14.398438 3.199219 L 14.398438 4 L 5.972656 4 C 4.882812 4 4 4.882812 4 5.972656 L 4 8 L 20 8 L 20 5.972656 C 20 4.882812 19.117188 4 18.027344 4 L 18 4 L 18 3.199219 L 18.417969 3.199219 C 19.730469 3.199219 20.800781 4.269531 20.800781 5.582031 L 20.800781 16 L 3.199219 16 Z M 14.398438 4.800781 L 14.398438 7.199219 L 4.800781 7.199219 L 4.800781 5.972656 C 4.800781 5.324219 5.324219 4.800781 5.972656 4.800781 Z M 2.886719 16.800781 L 21.113281 16.800781 L 22.714844 18.398438 L 1.285156 18.398438 Z M 23.199219 22 L 0.800781 22 L 0.800781 19.199219 L 23.199219 19.199219 Z M 23.199219 22"/>
    <path d="M10.398438 21.199219L13.601562 21.199219C14.261719 21.199219 14.800781 20.660156 14.800781 20 14.800781 19.777344 14.621094 19.601562 14.398438 19.601562 14.179688 19.601562 14 19.777344 14 20 14 20.222656 13.820312 20.398438 13.601562 20.398438L10.398438 20.398438C10.179688 20.398438 10 20.222656 10 20 10 19.777344 9.820312 19.601562 9.601562 19.601562 9.378906 19.601562 9.199219 19.777344 9.199219 20 9.199219 20.660156 9.738281 21.199219 10.398438 21.199219zM4.800781 9.601562C4.800781 9.820312 4.621094 10 4.398438 10 4.179688 10 4 9.820312 4 9.601562 4 9.378906 4.179688 9.199219 4.398438 9.199219 4.621094 9.199219 4.800781 9.378906 4.800781 9.601562zM6.398438 9.601562C6.398438 9.820312 6.222656 10 6 10 5.777344 10 5.601562 9.820312 5.601562 9.601562 5.601562 9.378906 5.777344 9.199219 6 9.199219 6.222656 9.199219 6.398438 9.378906 6.398438 9.601562zM6.398438 11.199219C6.398438 11.421875 6.222656 11.601562 6 11.601562 5.777344 11.601562 5.601562 11.421875 5.601562 11.199219 5.601562 10.980469 5.777344 10.800781 6 10.800781 6.222656 10.800781 6.398438 10.980469 6.398438 11.199219zM4.800781 11.199219C4.800781 11.421875 4.621094 11.601562 4.398438 11.601562 4.179688 11.601562 4 11.421875 4 11.199219 4 10.980469 4.179688 10.800781 4.398438 10.800781 4.621094 10.800781 4.800781 10.980469 4.800781 11.199219zM4.800781 12.800781C4.800781 13.019531 4.621094 13.199219 4.398438 13.199219 4.179688 13.199219 4 13.019531 4 12.800781 4 12.578125 4.179688 12.398438 4.398438 12.398438 4.621094 12.398438 4.800781 12.578125 4.800781 12.800781zM6.398438 12.800781C6.398438 13.019531 6.222656 13.199219 6 13.199219 5.777344 13.199219 5.601562 13.019531 5.601562 12.800781 5.601562 12.578125 5.777344 12.398438 6 12.398438 6.222656 12.398438 6.398438 12.578125 6.398438 12.800781zM6.398438 14.398438C6.398438 14.621094 6.222656 14.800781 6 14.800781 5.777344 14.800781 5.601562 14.621094 5.601562 14.398438 5.601562 14.179688 5.777344 14 6 14 6.222656 14 6.398438 14.179688 6.398438 14.398438zM4.800781 14.398438C4.800781 14.621094 4.621094 14.800781 4.398438 14.800781 4.179688 14.800781 4 14.621094 4 14.398438 4 14.179688 4.179688 14 4.398438 14 4.621094 14 4.800781 14.179688 4.800781 14.398438zM8 9.601562C8 9.820312 7.820312 10 7.601562 10 7.378906 10 7.199219 9.820312 7.199219 9.601562 7.199219 9.378906 7.378906 9.199219 7.601562 9.199219 7.820312 9.199219 8 9.378906 8 9.601562zM9.601562 9.601562C9.601562 9.820312 9.421875 10 9.199219 10 8.980469 10 8.800781 9.820312 8.800781 9.601562 8.800781 9.378906 8.980469 9.199219 9.199219 9.199219 9.421875 9.199219 9.601562 9.378906 9.601562 9.601562zM9.601562 11.199219C9.601562 11.421875 9.421875 11.601562 9.199219 11.601562 8.980469 11.601562 8.800781 11.421875 8.800781 11.199219 8.800781 10.980469 8.980469 10.800781 9.199219 10.800781 9.421875 10.800781 9.601562 10.980469 9.601562 11.199219zM8 11.199219C8 11.421875 7.820312 11.601562 7.601562 11.601562 7.378906 11.601562 7.199219 11.421875 7.199219 11.199219 7.199219 10.980469 7.378906 10.800781 7.601562 10.800781 7.820312 10.800781 8 10.980469 8 11.199219zM8 12.800781C8 13.019531 7.820312 13.199219 7.601562 13.199219 7.378906 13.199219 7.199219 13.019531 7.199219 12.800781 7.199219 12.578125 7.378906 12.398438 7.601562 12.398438 7.820312 12.398438 8 12.578125 8 12.800781zM9.601562 12.800781C9.601562 13.019531 9.421875 13.199219 9.199219 13.199219 8.980469 13.199219 8.800781 13.019531 8.800781 12.800781 8.800781 12.578125 8.980469 12.398438 9.199219 12.398438 9.421875 12.398438 9.601562 12.578125 9.601562 12.800781zM9.601562 14.398438C9.601562 14.621094 9.421875 14.800781 9.199219 14.800781 8.980469 14.800781 8.800781 14.621094 8.800781 14.398438 8.800781 14.179688 8.980469 14 9.199219 14 9.421875 14 9.601562 14.179688 9.601562 14.398438zM8 14.398438C8 14.621094 7.820312 14.800781 7.601562 14.800781 7.378906 14.800781 7.199219 14.621094 7.199219 14.398438 7.199219 14.179688 7.378906 14 7.601562 14 7.820312 14 8 14.179688 8 14.398438zM15.199219 9.601562C15.199219 9.820312 15.019531 10 14.800781 10 14.578125 10 14.398438 9.820312 14.398438 9.601562 14.398438 9.378906 14.578125 9.199219 14.800781 9.199219 15.019531 9.199219 15.199219 9.378906 15.199219 9.601562zM16.800781 9.601562C16.800781 9.820312 16.621094 10 16.398438 10 16.179688 10 16 9.820312 16 9.601562 16 9.378906 16.179688 9.199219 16.398438 9.199219 16.621094 9.199219 16.800781 9.378906 16.800781 9.601562zM16.800781 11.199219C16.800781 11.421875 16.621094 11.601562 16.398438 11.601562 16.179688 11.601562 16 11.421875 16 11.199219 16 10.980469 16.179688 10.800781 16.398438 10.800781 16.621094 10.800781 16.800781 10.980469 16.800781 11.199219zM15.199219 11.199219C15.199219 11.421875 15.019531 11.601562 14.800781 11.601562 14.578125 11.601562 14.398438 11.421875 14.398438 11.199219 14.398438 10.980469 14.578125 10.800781 14.800781 10.800781 15.019531 10.800781 15.199219 10.980469 15.199219 11.199219zM15.199219 12.800781C15.199219 13.019531 15.019531 13.199219 14.800781 13.199219 14.578125 13.199219 14.398438 13.019531 14.398438 12.800781 14.398438 12.578125 14.578125 12.398438 14.800781 12.398438 15.019531 12.398438 15.199219 12.578125 15.199219 12.800781zM16.800781 12.800781C16.800781 13.019531 16.621094 13.199219 16.398438 13.199219 16.179688 13.199219 16 13.019531 16 12.800781 16 12.578125 16.179688 12.398438 16.398438 12.398438 16.621094 12.398438 16.800781 12.578125 16.800781 12.800781zM16.800781 14.398438C16.800781 14.621094 16.621094 14.800781 16.398438 14.800781 16.179688 14.800781 16 14.621094 16 14.398438 16 14.179688 16.179688 14 16.398438 14 16.621094 14 16.800781 14.179688 16.800781 14.398438zM15.199219 14.398438C15.199219 14.621094 15.019531 14.800781 14.800781 14.800781 14.578125 14.800781 14.398438 14.621094 14.398438 14.398438 14.398438 14.179688 14.578125 14 14.800781 14 15.019531 14 15.199219 14.179688 15.199219 14.398438zM18.398438 9.601562C18.398438 9.820312 18.222656 10 18 10 17.777344 10 17.601562 9.820312 17.601562 9.601562 17.601562 9.378906 17.777344 9.199219 18 9.199219 18.222656 9.199219 18.398438 9.378906 18.398438 9.601562zM20 9.601562C20 9.820312 19.820312 10 19.601562 10 19.378906 10 19.199219 9.820312 19.199219 9.601562 19.199219 9.378906 19.378906 9.199219 19.601562 9.199219 19.820312 9.199219 20 9.378906 20 9.601562zM20 11.199219C20 11.421875 19.820312 11.601562 19.601562 11.601562 19.378906 11.601562 19.199219 11.421875 19.199219 11.199219 19.199219 10.980469 19.378906 10.800781 19.601562 10.800781 19.820312 10.800781 20 10.980469 20 11.199219zM18.398438 11.199219C18.398438 11.421875 18.222656 11.601562 18 11.601562 17.777344 11.601562 17.601562 11.421875 17.601562 11.199219 17.601562 10.980469 17.777344 10.800781 18 10.800781 18.222656 10.800781 18.398438 10.980469 18.398438 11.199219zM18.398438 12.800781C18.398438 13.019531 18.222656 13.199219 18 13.199219 17.777344 13.199219 17.601562 13.019531 17.601562 12.800781 17.601562 12.578125 17.777344 12.398438 18 12.398438 18.222656 12.398438 18.398438 12.578125 18.398438 12.800781zM20 12.800781C20 13.019531 19.820312 13.199219 19.601562 13.199219 19.378906 13.199219 19.199219 13.019531 19.199219 12.800781 19.199219 12.578125 19.378906 12.398438 19.601562 12.398438 19.820312 12.398438 20 12.578125 20 12.800781zM20 14.398438C20 14.621094 19.820312 14.800781 19.601562 14.800781 19.378906 14.800781 19.199219 14.621094 19.199219 14.398438 19.199219 14.179688 19.378906 14 19.601562 14 19.820312 14 20 14.179688 20 14.398438zM18.398438 14.398438C18.398438 14.621094 18.222656 14.800781 18 14.800781 17.777344 14.800781 17.601562 14.621094 17.601562 14.398438 17.601562 14.179688 17.777344 14 18 14 18.222656 14 18.398438 14.179688 18.398438 14.398438zM13.199219 9.199219L10.800781 9.199219C10.578125 9.199219 10.398438 9.378906 10.398438 9.601562 10.398438 9.820312 10.578125 10 10.800781 10L13.199219 10C13.421875 10 13.601562 9.820312 13.601562 9.601562 13.601562 9.378906 13.421875 9.199219 13.199219 9.199219zM13.199219 10.800781L10.800781 10.800781C10.578125 10.800781 10.398438 10.980469 10.398438 11.199219 10.398438 11.421875 10.578125 11.601562 10.800781 11.601562L13.199219 11.601562C13.421875 11.601562 13.601562 11.421875 13.601562 11.199219 13.601562 10.980469 13.421875 10.800781 13.199219 10.800781zM13.199219 12.398438L10.800781 12.398438C10.578125 12.398438 10.398438 12.578125 10.398438 12.800781 10.398438 13.019531 10.578125 13.199219 10.800781 13.199219L13.199219 13.199219C13.421875 13.199219 13.601562 13.019531 13.601562 12.800781 13.601562 12.578125 13.421875 12.398438 13.199219 12.398438zM13.199219 14L10.800781 14C10.578125 14 10.398438 14.179688 10.398438 14.398438 10.398438 14.621094 10.578125 14.800781 10.800781 14.800781L13.199219 14.800781C13.421875 14.800781 13.601562 14.621094 13.601562 14.398438 13.601562 14.179688 13.421875 14 13.199219 14zM16 6.800781L16.398438 6.800781C16.621094 6.800781 16.800781 6.621094 16.800781 6.398438 16.800781 6.179688 16.621094 6 16.398438 6L16 6C15.777344 6 15.601562 6.179688 15.601562 6.398438 15.601562 6.621094 15.777344 6.800781 16 6.800781zM16 5.199219L16.398438 5.199219C16.621094 5.199219 16.800781 5.019531 16.800781 4.800781 16.800781 4.578125 16.621094 4.398438 16.398438 4.398438L16 4.398438C15.777344 4.398438 15.601562 4.578125 15.601562 4.800781 15.601562 5.019531 15.777344 5.199219 16 5.199219zM16 3.601562L16.398438 3.601562C16.621094 3.601562 16.800781 3.421875 16.800781 3.199219 16.800781 2.980469 16.621094 2.800781 16.398438 2.800781L16 2.800781C15.777344 2.800781 15.601562 2.980469 15.601562 3.199219 15.601562 3.421875 15.777344 3.601562 16 3.601562zM16 3.601562"/>
</svg>
