<svg xmlns="http://www.w3.org/2000/svg" width="32" height="32" viewBox="0 0 24 24">
    <path d="M24 6h-1.602V1.195c0-.66-.535-1.195-1.191-1.195h-1.613c-.657 0-1.196.535-1.196 1.195V6H0v13.2h18.398v.905L20 22.906v.696a.4.4 0 0 0 .8 0v-.696l1.598-2.8v-.907H24zm-2.398-1.602h-2.403v-.796h2.403zm-2.403-3.203c0-.218.176-.394.395-.394h1.613c.215 0 .395.176.395.394v1.606h-2.403zM.801 18.398V6.801h17.597v11.597zm19.597 3.594l-.91-1.594h1.825zm1.204-2.39h-2.403V5.199h2.403zm1.597-1.204h-.8V6.801h.8zm0 0"/>
    <path d="M15.602 10.398h-1.204a.401.401 0 0 0 0 .801h1.204a.4.4 0 0 0 0-.8zm0 0M8.398 9.602h1.204a.401.401 0 0 0 0-.801H8.398a.4.4 0 0 0 0 .8zm0 0M15.602 8.8H12.8a.401.401 0 1 0 0 .802h2.8a.401.401 0 0 0 0-.801zm0 0M11.2 9.602a.434.434 0 0 0 .284-.118.434.434 0 0 0 .118-.285.442.442 0 0 0-.118-.285.43.43 0 0 0-.57 0 .438.438 0 0 0-.113.285.43.43 0 0 0 .113.285c.078.07.18.118.285.118zm0 0M9.602 10.8c0 .22.175.4.398.4h2.8a.4.4 0 0 0 0-.802H10a.398.398 0 0 0-.398.403zm0 0M8.398 11.2c.106 0 .211-.044.286-.114A.423.423 0 0 0 8.8 10.8c0-.11-.043-.211-.117-.285a.416.416 0 0 0-.567 0A.402.402 0 0 0 8 10.8c0 .101.043.207.117.285.074.07.176.113.281.113zm0 0M4.398 9.242v-.441a.398.398 0 1 0-.796 0v.441c-.438.09-.836.32-1.13.668-.245.29-.359.656-.316 1.04.04.394.242.757.551.995l.895.696v2.175a1.201 1.201 0 0 1-.801-1.129.401.401 0 0 0-.801 0c0 .97.688 1.774 1.602 1.961V16c0 .223.175.398.398.398A.395.395 0 0 0 4.398 16v-.352c.438-.09.836-.32 1.13-.668.245-.289.359-.66.316-1.043a1.461 1.461 0 0 0-.551-.996l-.895-.691v-2.176c.465.164.801.606.801 1.125a.401.401 0 0 0 .8 0c.001-.965-.687-1.773-1.6-1.957zm.403 4.332c.14.11.23.274.25.446a.601.601 0 0 1-.133.445 1.2 1.2 0 0 1-.52.348v-1.551zm-1.602-2.258a.664.664 0 0 1-.25-.449.592.592 0 0 1 .133-.441c.14-.164.32-.281.52-.352v1.551zm0 0M9.656 13.36c-.875.456-1.168 1.328-1.277 2.234-.164-.14-.332-.278-.496-.418-.39-.328-.961.234-.567.566.375.313.75.63 1.125.942.262.218.668.082.68-.286.031-.863.07-1.894.941-2.347.458-.239.051-.93-.406-.692zm0 0M12.316 14.957c-.55.129-1.183.832-1.574.04-.226-.462-.918-.056-.687.405.203.418.597.711 1.066.774.238.027.453-.004.676-.094.164-.062.773-.52.906-.285.25.45.942.047.692-.402-.215-.387-.653-.54-1.079-.438zm0 0"/>
</svg>
