<svg xmlns="http://www.w3.org/2000/svg" width="32" height="32" viewBox="0 0 24 24">
    <path d="M7.84 8.52l-.102.035 1.38.289c1.124.238 2.331.355 3.585.355.645 0 1.277-.031 1.895-.094a17.185 17.185 0 0 0 2.89-.507l.11-.024-.012-.004C20.313 7.81 22 6.457 22 5.2c0-1.77-3.441-3.598-9.2-3.598-5.757 0-9.198 1.828-9.198 3.597 0 1.23 1.613 2.551 4.238 3.32zm3.543-1.762c-.649-.211-1.016-.574-1.098-1.078l-.043-.27-.27-.058a.42.42 0 0 1-.132-.047l.055-.184c.015-.027.101-.101.265-.148l.18-.051.078-.172c.078-.176.187-.336.324-.477.059-.058.11-.105.149-.14.132-.121.218-.223.261-.352.473.16 1.008.176 1.375.16.059-.003.118-.003.176-.003 1.703 0 2.121.468 2.285.82l.075.164.175.05c.168.048.254.122.266.141l.059.192a.385.385 0 0 1-.133.047l-.27.058-.043.27c-.082.504-.449.867-1.097 1.078l-.313.101.086.743c.031.261.223.488.5.59l.293.109c-.094.011-.195.015-.293.023-.477.04-.969.063-1.492.063-.696 0-1.352-.035-1.965-.098l.262-.098c.285-.101.48-.328.511-.593l.086-.739zm1.418-4.36c5.594 0 8.398 1.797 8.398 2.801 0 .824-1.726 2.242-4.949 2.871l-1.668-.625-.008-.043c.805-.347 1.145-.882 1.278-1.347a.907.907 0 0 0 .425-.36.713.713 0 0 0 .067-.57l-.074-.246c-.082-.262-.317-.484-.641-.617-.59-1.004-1.941-1.125-2.926-1.125-.07 0-.14.004-.21.004-.446.02-.852-.028-1.141-.133a.966.966 0 0 1-.247-.117.512.512 0 0 0-.52-.036l-.241.137v.246c0 .078.008.168.023.27 0 .004.004.012.004.015l-.02.02-.18.168c-.16.164-.296.352-.405.555-.32.132-.551.351-.633.613l-.074.246a.713.713 0 0 0 .066.57c.09.153.238.278.426.36.133.465.472 1 1.277 1.347l-.008.04-1.644.593C6.062 7.391 4.398 6.008 4.398 5.2c0-1.004 2.809-2.8 8.403-2.8zm0 0"/>
    <path d="M21.602 11.86v-.102c1.261-.887 2-1.98 2-3.18V5.2C23.602 2.234 18.957 0 12.8 0 6.645 0 2 2.234 2 5.2v.91C.695 6.98 0 8.046 0 9.2v3.378c0 1.32.895 2.516 2.398 3.445v2.555C2.398 21.618 7.145 24 13.2 24 19.258 24 24 21.617 24 18.578V15.2c0-1.273-.836-2.422-2.398-3.34zm1.597 3.34c0 2.558-4.672 4.8-10 4.8a19.728 19.728 0 0 1-.886-.023 14.492 14.492 0 0 1-.97-.07c-.058-.005-.113-.012-.167-.016-3.29-.356-6.09-1.54-7.313-3.04a.394.394 0 0 1-.05-.062.792.792 0 0 1-.051-.07 13.24 13.24 0 0 0 1.832.629c1.773 1.168 4.535 1.84 7.605 1.84 5.422 0 9.2-2.102 9.2-3.989 0-.554-.337-1.11-.977-1.613.008-.027.015-.055.027-.086.012-.04.028-.082.04-.125l.034-.145c.008-.043.02-.082.028-.125l.023-.148c.004-.043.012-.086.016-.129 0-.012 0-.023.004-.035.828.559 1.605 1.363 1.605 2.406zm-8.347 5.534c.011 0 .023-.004.035-.004.23-.02.457-.043.68-.066l.175-.023c.223-.028.442-.055.656-.09v2.394c-.515.086-1.05.149-1.597.192v-2.399c.015 0 .035-.004.05-.004zm2.347-.332c.024-.004.043-.011.067-.015.214-.047.43-.094.636-.145l.082-.023c.141-.035.278-.074.414-.114v2.399c-.382.11-.785.207-1.199.293zm2-.547c.024-.007.043-.015.067-.023.027-.012.058-.023.09-.035a17.758 17.758 0 0 0 .617-.238l.027-.012v2.387c-.254.109-.52.214-.8.312zm1.602-.68c.066-.034.133-.073.203-.109.035-.02.074-.043.113-.062.156-.086.305-.176.45-.266a.217.217 0 0 0 .03-.023v2.332c-.242.172-.507.34-.796.496zm-16-.46c.25.16.52.312.8.457v2.371a7.392 7.392 0 0 1-.8-.496zm-2.403-6l.036.023c.144.09.293.18.449.266.039.02.078.043.113.062.067.036.133.075.203.11v2.023h-.574c-.078-.05-.152-.101-.227-.152zm1.762.898c.16.063.32.125.488.184.028.012.059.023.09.035.02.008.04.012.063.02v2.394A10.68 10.68 0 0 1 4 15.93v-2.383l.027.012c.043.015.09.035.133.054zm1.938.63c.207.05.422.097.636.144.02.004.043.011.067.015v2.395l-.07-.012a15 15 0 0 1-.633-.148c-.168-.043-.336-.09-.496-.133v-2.399c.136.04.273.079.414.114l.082.023zm2.332.421c.226.024.453.047.683.066.012 0 .024.004.035.004.016 0 .036.004.051.004v2.395a29.102 29.102 0 0 1-.82-.078l-.387-.051c-.133-.02-.262-.043-.394-.063v-2.39c.218.035.437.062.66.09l.172.023zm2.37.137c.27 0 .536-.012.802-.02v2.403h-.028a17.03 17.03 0 0 1-.773.015c-.27 0-.535-.012-.801-.023v-2.39h.055c.246.007.492.015.746.015zm-8-7.485c.005.008.013.016.02.024a5.463 5.463 0 0 0 .64.668l.071.062.07.059v2.23c-.515-.55-.8-1.152-.8-1.78zm1.598 1.399l.036.023c.144.09.293.18.449.266.039.02.078.043.113.062.066.036.133.075.203.11v2.367a8.239 8.239 0 0 1-.8-.496zM6 9.547l.027.012a14.16 14.16 0 0 0 .621.238c.028.012.059.023.09.035.02.008.04.012.063.02v2.394A10.68 10.68 0 0 1 6 11.93zm1.602.558c.136.04.273.079.414.114l.082.023c.207.051.422.098.636.145.02.004.043.011.067.015v2.395a17.482 17.482 0 0 1-1.203-.293v-2.399zm2 .442c.214.035.433.066.656.094l.176.023c.222.024.449.047.68.066.011 0 .023.004.034.004.016 0 .036.004.051.004v2.399a20.31 20.31 0 0 1-1.597-.192zm3.199.254c.25 0 .5-.008.746-.016h.055v2.39c-.27.009-.532.024-.801.024-.27 0-.535-.008-.801-.015v-2.399h.055c.246.008.492.016.746.016zm1.687-.07c.23-.02.457-.043.68-.067l.172-.023c.223-.028.445-.055.66-.09v2.39c-.152.024-.297.051-.45.07l-.241.036a21.82 21.82 0 0 1-.91.086v-2.395c.019 0 .035 0 .054-.004.012 0 .024-.004.035-.004zm3.016-.489l.078-.023c.14-.035.281-.074.418-.114v2.399c-.05.012-.102.027-.156.043l-.27.07c-.222.059-.445.11-.672.16-.035.008-.07.016-.101.02v-2.395c.023-.004.043-.011.066-.015.215-.047.426-.094.637-.145zm1.45-.445c.163-.059.327-.121.483-.184.047-.02.094-.039.137-.054.008-.004.016-.008.028-.012v2.387c-.258.109-.524.214-.801.312v-2.39l.062-.024.09-.035zm1.765-.793c.152-.086.304-.176.445-.266l.035-.023v2.332c-.242.172-.512.34-.8.496V9.176c.07-.035.136-.074.203-.11.039-.02.078-.043.117-.062zM9.812 17.977c.012 0 .028 0 .043.003h.051c.035 0 .067.004.102.004.262.008.523.016.793.016.187 0 .37-.004.554-.008.063 0 .122-.004.18-.004.027-.004.05-.004.078-.004.035 0 .07-.004.11-.004.058-.003.12-.003.183-.007l.215-.012c.11-.008.219-.012.324-.02l.235-.023.297-.023c.078-.008.156-.02.234-.028.098-.012.195-.02.289-.031.078-.012.156-.023.234-.031.09-.016.184-.028.278-.04.078-.011.152-.027.23-.038.09-.016.18-.028.27-.043.074-.016.148-.032.226-.043.086-.02.172-.036.258-.051.078-.016.152-.035.227-.05.082-.02.168-.036.25-.056.074-.02.148-.035.218-.054.082-.02.164-.04.243-.063l.21-.058c.083-.02.16-.043.239-.067.07-.02.14-.043.207-.066l.226-.07.204-.07c.074-.024.144-.052.218-.079l.196-.07c.07-.028.14-.055.207-.086.062-.024.125-.051.187-.078.067-.028.137-.055.203-.086l.176-.082c.066-.032.133-.063.195-.094.059-.027.114-.059.172-.086a4.18 4.18 0 0 0 .184-.098c.055-.03.11-.058.16-.09l.176-.101.152-.094c.059-.035.113-.07.168-.105a1.87 1.87 0 0 1 .145-.098c.05-.039.101-.074.152-.113.047-.031.09-.067.137-.102.047-.035.097-.074.144-.113.043-.035.082-.07.125-.106.047-.039.09-.078.133-.117.04-.035.078-.07.117-.11a1.77 1.77 0 0 0 .121-.12c.04-.035.075-.074.106-.11.039-.043.078-.082.113-.125.031-.039.063-.078.094-.113.035-.043.07-.086.101-.129l.082-.117a1.44 1.44 0 0 0 .067-.098c.351.309.55.621.55.883 0 1.082-2.964 3.188-8.402 3.188-1.644 0-2.992-.188-4.07-.45.223.02.453.032.684.04zm6.989-1.73v-2.411c.023-.008.05-.016.074-.027.148-.051.297-.102.441-.157.098-.039.188-.082.282-.125v2.403c-.254.113-.52.218-.797.316zm-1.688-1.927c.168-.039.336-.074.5-.117.133-.031.258-.074.387-.11v2.41c-.387.11-.785.208-1.2.294v-2.402c.106-.024.208-.051.313-.075zm3.285 1.223v-2.305c.278-.082.543-.172.801-.265v2.074c-.242.172-.508.34-.8.496zm-5.605-.84c.133-.015.262-.035.395-.05.19-.02.386-.044.574-.071.082-.012.16-.027.238-.043v2.406a.912.912 0 0 1-.102.016c-.12.02-.238.039-.359.055-.098.011-.191.027-.285.039-.207.023-.414.043-.625.062-.07.008-.14.012-.211.02h-.02V14.73c.133-.007.266-.015.395-.027zm8.008-2.125c0 .305-.07.606-.2.895l-.035.074a3.373 3.373 0 0 1-.48.715c-.027.027-.047.054-.074.082a64.74 64.74 0 0 0-.012.011v-1.703c.281-.125.547-.257.8-.394zM6.398 19.547c.258.105.528.21.801.305v2.394a11.386 11.386 0 0 1-.8-.316zM8 20.105c.387.11.785.211 1.2.297v2.395a16.831 16.831 0 0 1-1.2-.293zm2 .442c.063.012.129.02.191.027a15.978 15.978 0 0 0 .742.098c.153.02.305.035.462.047.066.008.136.011.207.02v2.398A18.52 18.52 0 0 1 10 22.945zm12.8-13.23v1.261c0 .629-.284 1.23-.8 1.781V8.13l.07-.059c.024-.02.043-.043.07-.062.098-.09.192-.18.282-.27.023-.023.05-.047.07-.07.102-.11.2-.219.285-.328l.024-.024zM12.8.8c5.606 0 10 1.933 10 4.398C22.8 7.758 18.13 10 12.8 10c-5.327 0-10-2.242-10-4.8 0-2.466 4.391-4.4 10-4.4zM2 7.094v1.484c0 .094.004.184.012.277.004.032.011.06.015.09l.024.18c.008.035.02.07.027.105.012.055.024.11.04.165l.034.109c.02.05.035.101.055.152.012.04.031.074.047.114.02.046.043.097.062.144.02.04.04.074.063.113a2.874 2.874 0 0 0 .145.25l.09.137c.023.035.05.074.081.11.032.046.063.09.098.132.031.035.062.07.094.11a3.128 3.128 0 0 0 .21.23c.04.043.083.082.126.125.035.035.07.07.109.102.043.043.086.082.133.12l.12.102c.048.04.095.078.145.114.043.035.083.066.125.097l.16.114c.048.03.09.062.133.093.059.035.118.075.176.11.047.03.09.058.137.086.062.039.129.078.195.117.043.023.086.05.133.074.082.047.168.09.25.133l.094.047c.117.062.238.117.36.175.042.016.089.036.132.055.082.035.164.074.246.11.055.02.11.043.16.062l.235.094c.058.02.12.043.18.062l.23.082.187.063c.082.023.16.05.239.074l.195.059.242.07c.066.016.137.035.207.055.078.02.16.039.246.062.067.016.14.031.211.047l.254.059.215.043c.086.02.172.035.262.05.074.016.144.028.218.043.09.016.18.028.274.043l.222.035c.09.016.184.028.278.04a60.056 60.056 0 0 0 .516.063l.222.022c.098.008.2.016.3.028.075.004.15.011.223.015.106.008.211.016.32.02.071.004.141.012.212.012a.19.19 0 0 0 .047.004c-.32.015-.641.023-.965.023-5.328 0-10-2.242-10-4.8 0-.88.566-1.59 1.199-2.106zM.8 12.578v-1.262a5.463 5.463 0 0 0 .305.348c.024.027.047.047.07.074.09.09.188.18.286.27.023.02.047.043.07.062l.07.059v2.23c-.515-.55-.8-1.152-.8-1.78zm2.4 6v-1.262c.222.282.495.551.8.809v2.23c-.516-.546-.8-1.148-.8-1.777zm9.198 4.606v-2.399h.059c.246.008.492.016.742.016.254 0 .5-.008.746-.016H14v2.399c-.266.007-.531.015-.8.015-.27 0-.536-.008-.802-.015zM23.2 17.316v1.262c0 .629-.285 1.23-.8 1.781v-2.23l.07-.059c.023-.02.047-.043.07-.062.098-.09.195-.18.285-.27l.07-.07c.102-.11.196-.219.286-.328.008-.008.015-.016.02-.024zm0 0"/>
</svg>
