<svg xmlns="http://www.w3.org/2000/svg" width="32" height="32" viewBox="0 0 24 24">
    <path d="M23.996 8.398c-.039-.683-.855-1.218-2.48-1.625a.972.972 0 0 0 .086-.375V3.602h-.008C21.449 1.27 11.898 1.199 10.8 1.199 9.703 1.2.148 1.27.008 3.602H0v2.796c.004.762.984 1.356 2.441 1.797a.923.923 0 0 0-.035.203h-.008v2.797c-1.57.403-2.355.93-2.394 1.606H0v2.797c0 .53.477.98 1.258 1.355a.89.89 0 0 0-.051.246h-.008V20c.004 1.332 3 2.156 6.328 2.543.024.004.047.016.075.016.007 0 .011-.004.02-.008.64.074 1.292.129 1.937.172.015 0 .027.007.043.007.007 0 .011-.003.02-.003.82.046 1.624.074 2.378.074s1.559-.028 2.379-.074c.008 0 .016.003.02.003.015 0 .027-.007.042-.007a40.075 40.075 0 0 0 1.938-.172c.008 0 .012.004.02.004.027 0 .05-.008.074-.012C19.8 22.156 22.797 21.328 22.8 20v-2.8h-.008c-.027-.49-.445-.9-1.27-1.243a.875.875 0 0 0 .079-.36v-2.613c1.433-.441 2.394-1.03 2.398-1.785V8.4zm-3.238 7.329l-.137.12c-.21.184-.562.372-1.02.551v-1.906a5.85 5.85 0 0 0 1.2-.55v1.656a.242.242 0 0 1-.043.129zm-8.95 1.859c-.054.004-.117.004-.175.004-.14.004-.29.004-.434.004v-1.996c.11 0 .223-.004.332-.004.02 0 .043 0 .063-.004.402-.004.804-.02 1.207-.035v1.996l-.258.012c-.242.011-.484.019-.734.023zm-1.745.008a25.548 25.548 0 0 1-.547-.016h-.067a34.523 34.523 0 0 1-.648-.027v-1.996c.402.02.804.03 1.207.039h.062c.11 0 .22.004.328.004v2c-.074 0-.152 0-.23-.004h-.105zM2.84 16.68l-.04-.012v-1.93c.372.102.774.192 1.2.274v1.953c-.367-.078-.707-.16-1.016-.242-.046-.016-.097-.028-.144-.043zm8.43 3.312c.109.004.218.004.332.004v2c-.555-.004-1.09-.02-1.602-.043v-2c.402.02.805.031 1.207.04h.063zm1.523 0c.402-.008.805-.02 1.207-.039v1.996c-.512.028-1.047.043-1.602.047v-2c.114 0 .223 0 .332-.004h.063zm3.207-.18v1.985c-.383.043-.785.078-1.2.105v-1.996c.407-.023.805-.058 1.2-.093zm.8-.085c.41-.051.813-.11 1.2-.172v1.965a26.25 26.25 0 0 1-1.2.183zm2-.313a18.93 18.93 0 0 0 1.2-.277v1.933a17.98 17.98 0 0 1-1.2.297zm-13.6 0v1.953A17.98 17.98 0 0 1 4 21.07v-1.933c.375.101.773.191 1.2.277zm.8.14c.387.067.79.122 1.2.173v1.976A26.25 26.25 0 0 1 6 21.52zm2 .259c.395.035.793.07 1.2.097v1.992a26.388 26.388 0 0 1-1.2-.105zm-.992-2.395l-.121-.012c-.032-.004-.059-.004-.086-.008V15.41c.394.04.793.07 1.199.098v1.996a67.43 67.43 0 0 1-.992-.086zM6 15.324v1.98a33.091 33.091 0 0 1-1.2-.183v-1.965c.388.063.786.121 1.2.168zm7.867 2.16c-.09.004-.176.012-.265.02v-1.996c.402-.028.804-.059 1.199-.098v1.988c-.246.024-.5.051-.762.07-.059.005-.113.012-.172.016zm1.735-.18v-1.98c.41-.05.812-.105 1.199-.168v1.965a34.47 34.47 0 0 1-1.2.184zm2-2.292c.421-.082.824-.176 1.199-.274v1.93c-.356.105-.758.203-1.2.297zm-5.473-1.825c-.3-.007-.594-.019-.883-.035H11.2v-2c.403.02.805.032 1.207.04h.063c.11.003.222.003.332.007v1.996c-.196-.004-.39-.004-.582-.008h-.09zM2.8 7.47v-1.93c.37.098.773.191 1.199.274v1.953c-.05-.012-.102-.02-.148-.032-.211-.046-.422-.093-.618-.148a16.49 16.49 0 0 1-.433-.117zm7.27-1.074l.327.003v1.997a36 36 0 0 1-1.597-.047V6.355c.398.016.804.032 1.207.036.02 0 .039.004.062.004zm1.523-.004c.402-.008.804-.02 1.207-.036v1.993l-.203.011h-.016c-.27.016-.543.024-.82.028-.043.004-.086.004-.13.004-.144.004-.288.004-.433.004V6.398l.332-.003c.02 0 .043-.004.063-.004zm9.113.203l-.012-.004-.144.113c-.211.164-.535.332-.95.492V5.293a6.296 6.296 0 0 0 1.2-.55v1.655c0 .059-.031.125-.094.196zm-5.105 1.508V6.125c.41-.05.812-.105 1.199-.168v1.961c-.38.066-.778.129-1.2.184zm2-.34v-1.95c.421-.082.824-.175 1.199-.273v1.926c-.36.105-.762.203-1.2.297zM14.8 6.21v1.984c-.387.04-.79.078-1.2.106V6.309a39.19 39.19 0 0 0 1.2-.098zm-8 1.984V6.211c.394.039.793.07 1.199.098V8.3a37.038 37.038 0 0 1-1.2-.106zM6 6.125v1.977c-.078-.012-.16-.02-.238-.032-.055-.008-.102-.011-.153-.02-.23-.034-.457-.07-.68-.105l-.128-.023V5.957c.386.063.785.117 1.199.168zm4.3 6.969l-.16-.012c-.257-.02-.507-.039-.75-.066A2.221 2.221 0 0 1 9.23 13c-.007 0-.02 0-.03-.004v-1.984c.394.039.796.07 1.198.097v1.993c-.03-.004-.066-.004-.097-.008zm-2.644-.297c-.156-.024-.304-.05-.457-.078v-1.961c.387.062.79.117 1.2.168v1.976a28.281 28.281 0 0 1-.711-.101c-.012 0-.02-.004-.032-.004zm-1.258-2.184v1.95c-.441-.094-.84-.196-1.199-.301v-1.926c.375.101.778.195 1.2.277zm-2-.52v1.9c-.628-.243-1.03-.49-1.164-.712l-.027-.043c-.004-.015-.008-.027-.008-.039V9.543c.32.2.727.383 1.2.55zm9.594 1.098c.403-.007.809-.02 1.207-.039v1.996a42.62 42.62 0 0 1-1.597.047V11.2c.109-.004.218-.004.328-.008h.062zm5.172 1.536c-.176.03-.355.062-.535.09a7.93 7.93 0 0 1-.32.042c-.102.016-.207.028-.309.043v-1.976c.414-.051.813-.106 1.2-.168v1.96a.114.114 0 0 1-.036.009zm-2.71.343c-.15.012-.302.02-.454.028v-1.989c.406-.027.805-.058 1.2-.097v1.984c-.231.024-.466.047-.704.066-.016.004-.027.004-.043.008zm4.573-.75c-.199.055-.41.106-.625.157l-.308.07c-.032.004-.063.012-.094.02v-1.954a16.1 16.1 0 0 0 1.2-.277v1.934c-.055.015-.114.03-.173.05zm2.168-3.894c-.035.273-.652.633-1.75.972-1.418.438-3.629.836-6.437.961-.145.008-.285.012-.434.016l-.36.012a43.025 43.025 0 0 1-2.027 0l-.363-.012c-.144-.004-.289-.008-.433-.016-2.805-.125-5.02-.523-6.434-.96-1.09-.336-1.707-.696-1.75-.965 0-.008 0-.016.004-.024a26.577 26.577 0 0 0 3.18.543c.004 0 .007.004.007.004h.004c.641.07 1.301.129 1.985.168.004 0 .008.004.011.004h.008a46.45 46.45 0 0 0 2.395.07c.21 0 .426 0 .64-.004 2.907-.047 5.602-.39 7.477-.925.086-.028.168-.051.254-.079l.152-.046c.145-.043.281-.094.418-.141a.338.338 0 0 1 .067-.027c.113-.043.222-.086.328-.133.027-.012.058-.028.09-.04.109-.05.214-.1.316-.152.043-.027.082-.05.125-.074l.14-.082c.024-.02.055-.031.079-.05 1.793.39 2.261.816 2.308.98zM10.801 2c6.594 0 9.93 1.04 9.992 1.633-.047.273-.66.629-1.75.965-1.414.437-3.629.84-6.434.96-.144.008-.289.012-.433.02-.121.004-.239.008-.364.008a42.7 42.7 0 0 1-1.011.016c-.348 0-.684-.008-1.016-.016-.12 0-.242-.004-.36-.008-.148-.008-.288-.012-.433-.02-2.808-.12-5.023-.523-6.437-.96-1.086-.336-1.7-.692-1.75-.965C.867 3.039 4.203 2 10.8 2zM.8 6.398V4.742c.32.2.722.383 1.199.551v1.914C1.223 6.914.8 6.625.8 6.398zm1.937 5.536c.004.007.016.011.02.02.547.55 1.683.987 3.094 1.308.03.008.066.015.101.023.102.024.207.047.313.07 1.296.274 2.843.473 4.53.575h.005c.543.03 1.097.05 1.66.062a31.311 31.311 0 0 0 1.586-.004c.523-.008 1.039-.031 1.547-.058h.008c.003 0 .003-.004.007-.004 1.692-.098 3.278-.301 4.618-.59a7.08 7.08 0 0 1-1.184.46c-1.492.466-3.879.884-6.91.981-.09.004-.18.008-.27.008-.097.004-.199.004-.297.008-.254.004-.507.008-.765.008-.348 0-.684-.008-1.016-.012l-.36-.012c-.148-.004-.288-.011-.433-.02-2.808-.12-5.023-.523-6.437-.96-1.098-.34-1.715-.7-1.75-.973.043-.148.449-.527 1.933-.89zM.801 15.598V13.94c.32.204.722.387 1.199.551v1.906l-.227-.085-.007.003C1.14 16.055.8 15.801.8 15.598zM2 20v-1.656c.32.199.723.383 1.2.547v1.918C2.421 20.516 2 20.223 2 20zm18.8.809v-1.914a6.186 6.186 0 0 0 1.2-.551v1.652c0 .227-.422.52-1.2.813zm1.196-3.579c-.043.27-.66.63-1.75.97-1.418.437-3.633.835-6.437.96-.145.004-.286.012-.434.016l-.363.012a42.447 42.447 0 0 1-2.383-.012c-.149-.004-.293-.012-.438-.016-2.804-.125-5.02-.523-6.437-.96-1.055-.329-1.668-.677-1.746-.942.12.039.246.082.37.12l.04.013.332.093.129.036c.062.02.129.035.195.05 1.457.375 3.317.64 5.324.758h.004a42.59 42.59 0 0 0 2.399.07c.219 0 .445 0 .672-.003a40.73 40.73 0 0 0 1.722-.067h.012a42.902 42.902 0 0 0 1.988-.172h.004c.012 0 .016-.004.028-.004a28.909 28.909 0 0 0 2.39-.375c.028-.004.055-.011.082-.015 1.18-.242 2.203-.559 2.906-.946.04-.023.075-.043.11-.066.047-.023.086-.05.129-.078.039-.027.082-.05.117-.074.789.28 1.008.53 1.035.632zM22 12.008v-1.914a6.186 6.186 0 0 0 1.2-.551v1.656c0 .223-.423.516-1.2.809zm0 0"/>
</svg>
