<svg xmlns="http://www.w3.org/2000/svg" width="32" height="32" viewBox="0 0 24 24">
    <path d="M 7.839844 8.519531 L 7.738281 8.554688 L 9.117188 8.84375 C 10.242188 9.082031 11.449219 9.199219 12.703125 9.199219 C 13.347656 9.199219 13.980469 9.167969 14.597656 9.105469 C 15.652344 9.007812 16.621094 8.832031 17.488281 8.597656 L 17.597656 8.574219 L 17.585938 8.570312 C 20.3125 7.808594 22 6.457031 22 5.199219 C 22 3.429688 18.558594 1.601562 12.800781 1.601562 C 7.042969 1.601562 3.601562 3.429688 3.601562 5.199219 C 3.601562 6.429688 5.214844 7.75 7.839844 8.519531 Z M 11.382812 6.757812 C 10.734375 6.546875 10.367188 6.183594 10.285156 5.679688 L 10.242188 5.410156 L 9.972656 5.351562 C 9.910156 5.339844 9.867188 5.320312 9.839844 5.304688 L 9.894531 5.121094 C 9.910156 5.09375 9.996094 5.019531 10.160156 4.972656 L 10.339844 4.921875 L 10.417969 4.75 C 10.496094 4.574219 10.605469 4.414062 10.742188 4.273438 C 10.800781 4.214844 10.851562 4.167969 10.890625 4.132812 C 11.023438 4.011719 11.109375 3.910156 11.152344 3.78125 C 11.625 3.941406 12.160156 3.957031 12.527344 3.941406 C 12.585938 3.9375 12.644531 3.9375 12.703125 3.9375 C 14.40625 3.9375 14.824219 4.40625 14.988281 4.757812 L 15.0625 4.921875 L 15.238281 4.972656 C 15.40625 5.019531 15.492188 5.09375 15.503906 5.113281 L 15.5625 5.304688 C 15.539062 5.320312 15.492188 5.339844 15.429688 5.351562 L 15.160156 5.410156 L 15.117188 5.679688 C 15.035156 6.183594 14.667969 6.546875 14.019531 6.757812 L 13.707031 6.859375 L 13.792969 7.601562 C 13.824219 7.863281 14.015625 8.089844 14.292969 8.191406 L 14.585938 8.300781 C 14.492188 8.3125 14.390625 8.316406 14.292969 8.324219 C 13.816406 8.363281 13.324219 8.386719 12.800781 8.386719 C 12.105469 8.386719 11.449219 8.351562 10.835938 8.289062 L 11.097656 8.191406 C 11.382812 8.089844 11.578125 7.863281 11.609375 7.597656 L 11.695312 6.859375 Z M 12.800781 2.398438 C 18.394531 2.398438 21.199219 4.195312 21.199219 5.199219 C 21.199219 6.023438 19.472656 7.441406 16.25 8.070312 L 14.582031 7.445312 L 14.574219 7.402344 C 15.378906 7.054688 15.71875 6.519531 15.851562 6.054688 C 16.039062 5.972656 16.1875 5.847656 16.277344 5.695312 C 16.378906 5.519531 16.402344 5.316406 16.34375 5.125 L 16.269531 4.878906 C 16.1875 4.617188 15.953125 4.394531 15.628906 4.261719 C 15.039062 3.257812 13.6875 3.136719 12.703125 3.136719 C 12.632812 3.136719 12.5625 3.140625 12.492188 3.140625 C 12.046875 3.160156 11.640625 3.113281 11.351562 3.007812 C 11.191406 2.949219 11.125 2.90625 11.105469 2.890625 C 10.9375 2.769531 10.726562 2.785156 10.585938 2.855469 L 10.34375 2.992188 L 10.34375 3.238281 C 10.34375 3.316406 10.351562 3.40625 10.367188 3.507812 C 10.367188 3.511719 10.371094 3.519531 10.371094 3.523438 C 10.363281 3.53125 10.359375 3.535156 10.351562 3.542969 C 10.304688 3.585938 10.246094 3.640625 10.171875 3.710938 C 10.011719 3.875 9.875 4.0625 9.765625 4.265625 C 9.445312 4.398438 9.214844 4.617188 9.132812 4.878906 L 9.058594 5.125 C 9 5.316406 9.023438 5.519531 9.125 5.695312 C 9.214844 5.847656 9.363281 5.972656 9.550781 6.054688 C 9.683594 6.519531 10.023438 7.054688 10.828125 7.402344 L 10.820312 7.441406 L 9.175781 8.035156 C 6.0625 7.390625 4.398438 6.007812 4.398438 5.199219 C 4.398438 4.195312 7.207031 2.398438 12.800781 2.398438 Z M 12.800781 2.398438"/>
    <path d="M 21.601562 11.859375 L 21.601562 11.757812 C 22.863281 10.871094 23.601562 9.777344 23.601562 8.578125 L 23.601562 5.199219 C 23.601562 2.234375 18.957031 0 12.800781 0 C 6.644531 0 2 2.234375 2 5.199219 L 2 6.109375 C 0.695312 6.980469 0 8.046875 0 9.199219 L 0 12.578125 C 0 13.898438 0.894531 15.09375 2.398438 16.023438 L 2.398438 18.578125 C 2.398438 21.617188 7.144531 24 13.199219 24 C 19.257812 24 24 21.617188 24 18.578125 L 24 15.199219 C 24 13.925781 23.164062 12.777344 21.601562 11.859375 Z M 23.199219 15.199219 C 23.199219 17.757812 18.527344 20 13.199219 20 C 12.96875 20 12.742188 19.992188 12.515625 19.984375 C 12.445312 19.984375 12.378906 19.980469 12.3125 19.976562 C 12.113281 19.96875 11.917969 19.957031 11.722656 19.941406 C 11.59375 19.933594 11.46875 19.921875 11.34375 19.90625 C 11.285156 19.902344 11.230469 19.894531 11.175781 19.890625 C 7.886719 19.535156 5.085938 18.351562 3.863281 16.851562 C 3.84375 16.832031 3.828125 16.8125 3.8125 16.789062 C 3.792969 16.765625 3.777344 16.742188 3.761719 16.71875 C 4.324219 16.960938 4.933594 17.171875 5.59375 17.347656 C 7.367188 18.515625 10.128906 19.1875 13.199219 19.1875 C 18.621094 19.1875 22.398438 17.085938 22.398438 15.199219 C 22.398438 14.644531 22.0625 14.089844 21.421875 13.585938 C 21.429688 13.558594 21.4375 13.53125 21.449219 13.5 C 21.460938 13.460938 21.476562 13.417969 21.488281 13.375 C 21.5 13.328125 21.511719 13.28125 21.523438 13.230469 C 21.53125 13.1875 21.542969 13.148438 21.550781 13.105469 C 21.558594 13.054688 21.566406 13.003906 21.574219 12.957031 C 21.578125 12.914062 21.585938 12.871094 21.589844 12.828125 C 21.589844 12.816406 21.589844 12.804688 21.59375 12.792969 C 22.421875 13.351562 23.199219 14.15625 23.199219 15.199219 Z M 14.851562 20.734375 C 14.863281 20.734375 14.875 20.730469 14.886719 20.730469 C 15.117188 20.710938 15.34375 20.6875 15.566406 20.664062 C 15.625 20.65625 15.683594 20.648438 15.742188 20.640625 C 15.964844 20.613281 16.183594 20.585938 16.398438 20.550781 L 16.398438 22.945312 C 15.882812 23.03125 15.347656 23.09375 14.800781 23.136719 L 14.800781 20.738281 C 14.816406 20.738281 14.835938 20.734375 14.851562 20.734375 Z M 17.199219 20.402344 C 17.222656 20.398438 17.242188 20.390625 17.265625 20.386719 C 17.480469 20.339844 17.695312 20.292969 17.902344 20.242188 C 17.929688 20.234375 17.957031 20.226562 17.984375 20.21875 C 18.125 20.183594 18.261719 20.144531 18.398438 20.105469 L 18.398438 22.503906 C 18.015625 22.613281 17.613281 22.710938 17.199219 22.796875 Z M 19.199219 19.855469 C 19.222656 19.847656 19.242188 19.839844 19.265625 19.832031 C 19.292969 19.820312 19.324219 19.808594 19.355469 19.796875 C 19.519531 19.738281 19.679688 19.675781 19.839844 19.613281 C 19.882812 19.59375 19.929688 19.574219 19.972656 19.558594 C 19.984375 19.554688 19.992188 19.550781 20 19.546875 L 20 21.933594 C 19.746094 22.042969 19.480469 22.148438 19.199219 22.246094 Z M 20.800781 19.175781 C 20.867188 19.140625 20.933594 19.101562 21.003906 19.066406 C 21.039062 19.046875 21.078125 19.023438 21.117188 19.003906 C 21.273438 18.917969 21.421875 18.828125 21.566406 18.738281 C 21.578125 18.730469 21.589844 18.722656 21.597656 18.714844 L 21.597656 21.046875 C 21.355469 21.21875 21.089844 21.386719 20.800781 21.542969 Z M 4.800781 18.714844 C 5.050781 18.875 5.320312 19.027344 5.601562 19.171875 L 5.601562 21.542969 C 5.308594 21.386719 5.042969 21.21875 4.800781 21.046875 Z M 2.398438 12.714844 C 2.410156 12.722656 2.421875 12.730469 2.433594 12.738281 C 2.578125 12.828125 2.726562 12.917969 2.882812 13.003906 C 2.921875 13.023438 2.960938 13.046875 2.996094 13.066406 C 3.0625 13.101562 3.128906 13.140625 3.199219 13.175781 L 3.199219 15.199219 L 2.625 15.199219 C 2.546875 15.148438 2.472656 15.097656 2.398438 15.046875 Z M 4.160156 13.613281 C 4.320312 13.675781 4.480469 13.738281 4.648438 13.796875 C 4.675781 13.808594 4.707031 13.820312 4.738281 13.832031 C 4.757812 13.839844 4.777344 13.84375 4.800781 13.851562 L 4.800781 16.246094 C 4.523438 16.148438 4.253906 16.042969 4 15.929688 L 4 13.546875 C 4.007812 13.550781 4.019531 13.554688 4.027344 13.558594 C 4.070312 13.574219 4.117188 13.59375 4.160156 13.613281 Z M 6.097656 14.242188 C 6.304688 14.292969 6.519531 14.339844 6.734375 14.386719 C 6.753906 14.390625 6.777344 14.398438 6.800781 14.402344 L 6.800781 16.796875 C 6.777344 16.792969 6.753906 16.789062 6.730469 16.785156 C 6.515625 16.738281 6.304688 16.691406 6.097656 16.636719 C 5.929688 16.59375 5.761719 16.546875 5.601562 16.503906 L 5.601562 14.105469 C 5.738281 14.144531 5.875 14.183594 6.015625 14.21875 C 6.042969 14.226562 6.070312 14.234375 6.097656 14.242188 Z M 8.429688 14.664062 C 8.65625 14.6875 8.882812 14.710938 9.113281 14.730469 C 9.125 14.730469 9.136719 14.734375 9.148438 14.734375 C 9.164062 14.734375 9.183594 14.738281 9.199219 14.738281 L 9.199219 17.132812 C 8.925781 17.109375 8.652344 17.085938 8.378906 17.054688 C 8.25 17.039062 8.121094 17.019531 7.992188 17.003906 C 7.859375 16.984375 7.730469 16.960938 7.597656 16.941406 L 7.597656 14.550781 C 7.816406 14.585938 8.035156 14.613281 8.257812 14.640625 C 8.316406 14.648438 8.375 14.65625 8.429688 14.664062 Z M 10.800781 14.800781 C 11.070312 14.800781 11.335938 14.789062 11.601562 14.78125 L 11.601562 17.183594 C 11.589844 17.183594 11.582031 17.183594 11.574219 17.183594 C 11.316406 17.195312 11.058594 17.199219 10.800781 17.199219 C 10.53125 17.199219 10.265625 17.1875 10 17.175781 L 10 14.785156 C 10.019531 14.785156 10.035156 14.785156 10.054688 14.785156 C 10.300781 14.792969 10.546875 14.800781 10.800781 14.800781 Z M 2.800781 7.316406 C 2.804688 7.324219 2.8125 7.332031 2.820312 7.339844 C 2.910156 7.449219 3.003906 7.558594 3.105469 7.664062 C 3.128906 7.691406 3.152344 7.714844 3.175781 7.738281 C 3.265625 7.828125 3.363281 7.917969 3.460938 8.007812 C 3.484375 8.027344 3.507812 8.050781 3.53125 8.070312 C 3.554688 8.089844 3.578125 8.109375 3.601562 8.128906 L 3.601562 10.359375 C 3.085938 9.808594 2.800781 9.207031 2.800781 8.578125 Z M 4.398438 8.714844 C 4.410156 8.722656 4.421875 8.730469 4.433594 8.738281 C 4.578125 8.828125 4.726562 8.917969 4.882812 9.003906 C 4.921875 9.023438 4.960938 9.046875 4.996094 9.066406 C 5.0625 9.101562 5.128906 9.140625 5.199219 9.175781 L 5.199219 11.542969 C 4.910156 11.386719 4.644531 11.21875 4.398438 11.046875 Z M 6 9.546875 C 6.007812 9.550781 6.019531 9.554688 6.027344 9.558594 C 6.070312 9.574219 6.117188 9.59375 6.160156 9.613281 C 6.320312 9.675781 6.480469 9.738281 6.648438 9.796875 C 6.675781 9.808594 6.707031 9.820312 6.738281 9.832031 C 6.757812 9.839844 6.777344 9.84375 6.800781 9.851562 L 6.800781 12.246094 C 6.523438 12.148438 6.253906 12.042969 6 11.929688 Z M 7.601562 10.105469 C 7.738281 10.144531 7.875 10.183594 8.015625 10.21875 C 8.042969 10.226562 8.070312 10.234375 8.097656 10.242188 C 8.304688 10.292969 8.519531 10.339844 8.734375 10.386719 C 8.753906 10.390625 8.777344 10.398438 8.800781 10.402344 L 8.800781 12.796875 C 8.386719 12.710938 7.984375 12.613281 7.597656 12.503906 L 7.597656 10.105469 Z M 9.601562 10.546875 C 9.816406 10.582031 10.035156 10.613281 10.257812 10.640625 C 10.316406 10.648438 10.375 10.65625 10.433594 10.664062 C 10.65625 10.6875 10.882812 10.710938 11.113281 10.730469 C 11.125 10.730469 11.136719 10.734375 11.148438 10.734375 C 11.164062 10.734375 11.183594 10.738281 11.199219 10.738281 L 11.199219 13.136719 C 10.652344 13.09375 10.117188 13.027344 9.601562 12.945312 Z M 12.800781 10.800781 C 13.050781 10.800781 13.300781 10.792969 13.546875 10.785156 C 13.5625 10.785156 13.582031 10.785156 13.601562 10.785156 L 13.601562 13.175781 C 13.332031 13.183594 13.070312 13.199219 12.800781 13.199219 C 12.53125 13.199219 12.265625 13.191406 12 13.183594 L 12 10.785156 C 12.019531 10.785156 12.035156 10.785156 12.054688 10.785156 C 12.300781 10.792969 12.546875 10.800781 12.800781 10.800781 Z M 14.488281 10.730469 C 14.71875 10.710938 14.945312 10.6875 15.167969 10.664062 C 15.226562 10.65625 15.285156 10.648438 15.339844 10.640625 C 15.5625 10.613281 15.785156 10.585938 16 10.550781 L 16 12.941406 C 15.847656 12.964844 15.703125 12.992188 15.550781 13.011719 C 15.46875 13.023438 15.390625 13.035156 15.308594 13.046875 C 15.011719 13.082031 14.707031 13.109375 14.398438 13.132812 L 14.398438 10.738281 C 14.417969 10.738281 14.433594 10.738281 14.453125 10.734375 C 14.464844 10.734375 14.476562 10.730469 14.488281 10.730469 Z M 17.503906 10.242188 C 17.53125 10.234375 17.554688 10.226562 17.582031 10.21875 C 17.722656 10.183594 17.863281 10.144531 18 10.105469 L 18 12.503906 C 17.949219 12.515625 17.898438 12.53125 17.84375 12.546875 C 17.753906 12.570312 17.664062 12.59375 17.574219 12.617188 C 17.351562 12.675781 17.128906 12.726562 16.902344 12.777344 C 16.867188 12.785156 16.832031 12.792969 16.800781 12.796875 L 16.800781 10.402344 C 16.824219 10.398438 16.84375 10.390625 16.867188 10.386719 C 17.082031 10.339844 17.292969 10.292969 17.503906 10.242188 Z M 18.953125 9.796875 C 19.117188 9.738281 19.28125 9.675781 19.4375 9.613281 C 19.484375 9.59375 19.53125 9.574219 19.574219 9.558594 C 19.582031 9.554688 19.589844 9.550781 19.601562 9.546875 L 19.601562 11.933594 C 19.34375 12.042969 19.078125 12.148438 18.800781 12.246094 L 18.800781 9.855469 C 18.820312 9.847656 18.84375 9.839844 18.863281 9.832031 C 18.894531 9.820312 18.921875 9.808594 18.953125 9.796875 Z M 20.71875 9.003906 C 20.871094 8.917969 21.023438 8.828125 21.164062 8.738281 C 21.175781 8.730469 21.1875 8.722656 21.199219 8.714844 L 21.199219 11.046875 C 20.957031 11.21875 20.6875 11.386719 20.398438 11.542969 L 20.398438 9.175781 C 20.46875 9.140625 20.535156 9.101562 20.601562 9.066406 C 20.640625 9.046875 20.679688 9.023438 20.71875 9.003906 Z M 9.8125 17.976562 C 9.824219 17.976562 9.839844 17.976562 9.855469 17.980469 C 9.871094 17.980469 9.890625 17.980469 9.90625 17.980469 C 9.941406 17.980469 9.972656 17.984375 10.007812 17.984375 C 10.269531 17.992188 10.53125 18 10.800781 18 C 10.988281 18 11.171875 17.996094 11.355469 17.992188 C 11.417969 17.992188 11.476562 17.988281 11.535156 17.988281 C 11.5625 17.984375 11.585938 17.984375 11.613281 17.984375 C 11.648438 17.984375 11.683594 17.980469 11.722656 17.980469 C 11.78125 17.976562 11.84375 17.976562 11.90625 17.972656 C 11.980469 17.96875 12.050781 17.964844 12.121094 17.960938 C 12.230469 17.953125 12.339844 17.949219 12.445312 17.941406 C 12.523438 17.933594 12.601562 17.925781 12.679688 17.917969 C 12.78125 17.910156 12.878906 17.902344 12.976562 17.894531 C 13.054688 17.886719 13.132812 17.875 13.210938 17.867188 C 13.308594 17.855469 13.40625 17.847656 13.5 17.835938 C 13.578125 17.824219 13.65625 17.8125 13.734375 17.804688 C 13.824219 17.789062 13.917969 17.777344 14.011719 17.765625 C 14.089844 17.753906 14.164062 17.738281 14.242188 17.726562 C 14.332031 17.710938 14.421875 17.699219 14.511719 17.683594 C 14.585938 17.667969 14.660156 17.652344 14.738281 17.640625 C 14.824219 17.621094 14.910156 17.605469 14.996094 17.589844 C 15.074219 17.574219 15.148438 17.554688 15.222656 17.539062 C 15.304688 17.519531 15.390625 17.503906 15.472656 17.484375 C 15.546875 17.464844 15.621094 17.449219 15.691406 17.429688 C 15.773438 17.410156 15.855469 17.390625 15.933594 17.367188 C 16.007812 17.347656 16.074219 17.328125 16.144531 17.308594 C 16.226562 17.289062 16.304688 17.265625 16.382812 17.242188 C 16.453125 17.222656 16.523438 17.199219 16.589844 17.175781 C 16.667969 17.152344 16.742188 17.128906 16.816406 17.105469 C 16.886719 17.082031 16.953125 17.058594 17.019531 17.035156 C 17.09375 17.011719 17.164062 16.984375 17.238281 16.957031 C 17.304688 16.933594 17.367188 16.910156 17.433594 16.886719 C 17.503906 16.859375 17.574219 16.832031 17.640625 16.800781 C 17.703125 16.777344 17.765625 16.75 17.828125 16.722656 C 17.894531 16.695312 17.964844 16.667969 18.03125 16.636719 C 18.089844 16.609375 18.148438 16.582031 18.207031 16.554688 C 18.273438 16.523438 18.339844 16.492188 18.402344 16.460938 C 18.460938 16.433594 18.515625 16.402344 18.574219 16.375 C 18.636719 16.34375 18.695312 16.3125 18.757812 16.277344 C 18.8125 16.246094 18.867188 16.21875 18.917969 16.1875 C 18.976562 16.152344 19.035156 16.121094 19.09375 16.085938 C 19.144531 16.054688 19.195312 16.023438 19.246094 15.992188 C 19.304688 15.957031 19.359375 15.921875 19.414062 15.886719 C 19.460938 15.851562 19.507812 15.820312 19.558594 15.789062 C 19.609375 15.75 19.660156 15.714844 19.710938 15.675781 C 19.757812 15.644531 19.800781 15.609375 19.847656 15.574219 C 19.894531 15.539062 19.945312 15.5 19.992188 15.460938 C 20.035156 15.425781 20.074219 15.390625 20.117188 15.355469 C 20.164062 15.316406 20.207031 15.277344 20.25 15.238281 C 20.289062 15.203125 20.328125 15.167969 20.367188 15.128906 C 20.410156 15.089844 20.449219 15.050781 20.488281 15.007812 C 20.527344 14.972656 20.5625 14.933594 20.59375 14.898438 C 20.632812 14.855469 20.671875 14.816406 20.707031 14.773438 C 20.738281 14.734375 20.769531 14.695312 20.800781 14.660156 C 20.835938 14.617188 20.871094 14.574219 20.902344 14.53125 C 20.929688 14.492188 20.957031 14.453125 20.984375 14.414062 C 21.007812 14.382812 21.03125 14.347656 21.050781 14.316406 C 21.402344 14.625 21.601562 14.9375 21.601562 15.199219 C 21.601562 16.28125 18.636719 18.386719 13.199219 18.386719 C 11.554688 18.386719 10.207031 18.199219 9.128906 17.9375 C 9.351562 17.957031 9.582031 17.96875 9.8125 17.976562 Z M 16.800781 16.246094 L 16.800781 13.835938 C 16.824219 13.828125 16.851562 13.820312 16.875 13.808594 C 17.023438 13.757812 17.171875 13.707031 17.316406 13.652344 C 17.414062 13.613281 17.503906 13.570312 17.597656 13.527344 L 17.597656 15.929688 C 17.34375 16.042969 17.078125 16.148438 16.800781 16.246094 Z M 15.113281 14.320312 C 15.28125 14.28125 15.449219 14.246094 15.613281 14.203125 C 15.746094 14.171875 15.871094 14.128906 16 14.09375 L 16 16.503906 C 15.613281 16.613281 15.214844 16.710938 14.800781 16.796875 L 14.800781 14.394531 C 14.90625 14.371094 15.007812 14.34375 15.113281 14.320312 Z M 18.398438 15.542969 L 18.398438 13.238281 C 18.675781 13.15625 18.941406 13.066406 19.199219 12.972656 L 19.199219 15.046875 C 18.957031 15.21875 18.691406 15.386719 18.398438 15.542969 Z M 12.792969 14.703125 C 12.925781 14.6875 13.054688 14.667969 13.1875 14.652344 C 13.378906 14.632812 13.574219 14.609375 13.761719 14.582031 C 13.84375 14.570312 13.921875 14.554688 14 14.539062 L 14 16.945312 C 13.964844 16.953125 13.933594 16.957031 13.898438 16.960938 C 13.777344 16.980469 13.660156 17 13.539062 17.015625 C 13.441406 17.027344 13.347656 17.042969 13.253906 17.054688 C 13.046875 17.078125 12.839844 17.097656 12.628906 17.117188 C 12.558594 17.125 12.488281 17.128906 12.417969 17.136719 C 12.410156 17.136719 12.40625 17.136719 12.398438 17.136719 L 12.398438 14.730469 C 12.53125 14.722656 12.664062 14.714844 12.792969 14.703125 Z M 20.800781 12.578125 C 20.800781 12.882812 20.730469 13.183594 20.601562 13.472656 L 20.566406 13.546875 C 20.449219 13.792969 20.28125 14.03125 20.085938 14.261719 C 20.058594 14.289062 20.039062 14.316406 20.011719 14.34375 C 20.007812 14.347656 20.003906 14.351562 20 14.355469 L 20 12.652344 C 20.28125 12.527344 20.546875 12.394531 20.800781 12.257812 Z M 6.398438 19.546875 C 6.65625 19.652344 6.925781 19.757812 7.199219 19.851562 L 7.199219 22.246094 C 6.921875 22.148438 6.65625 22.042969 6.398438 21.929688 Z M 8 20.105469 C 8.386719 20.214844 8.785156 20.316406 9.199219 20.402344 L 9.199219 22.796875 C 8.785156 22.710938 8.382812 22.613281 8 22.503906 Z M 10 20.546875 C 10.0625 20.558594 10.128906 20.566406 10.191406 20.574219 C 10.285156 20.589844 10.382812 20.605469 10.480469 20.617188 C 10.628906 20.636719 10.78125 20.65625 10.933594 20.671875 C 11.085938 20.691406 11.238281 20.707031 11.394531 20.71875 C 11.460938 20.726562 11.53125 20.730469 11.601562 20.738281 L 11.601562 23.136719 C 11.050781 23.09375 10.515625 23.03125 10 22.945312 Z M 22.800781 7.316406 L 22.800781 8.578125 C 22.800781 9.207031 22.515625 9.808594 22 10.359375 L 22 8.128906 C 22.023438 8.109375 22.046875 8.089844 22.070312 8.070312 C 22.09375 8.050781 22.113281 8.027344 22.140625 8.007812 C 22.238281 7.917969 22.332031 7.828125 22.421875 7.738281 C 22.445312 7.714844 22.472656 7.691406 22.492188 7.667969 C 22.59375 7.558594 22.691406 7.449219 22.777344 7.339844 C 22.785156 7.332031 22.792969 7.324219 22.800781 7.316406 Z M 12.800781 0.800781 C 18.40625 0.800781 22.800781 2.734375 22.800781 5.199219 C 22.800781 7.757812 18.128906 10 12.800781 10 C 7.472656 10 2.800781 7.757812 2.800781 5.199219 C 2.800781 2.734375 7.191406 0.800781 12.800781 0.800781 Z M 2 7.09375 L 2 8.578125 C 2 8.671875 2.003906 8.761719 2.011719 8.855469 C 2.015625 8.886719 2.023438 8.914062 2.027344 8.945312 C 2.035156 9.003906 2.042969 9.066406 2.050781 9.125 C 2.058594 9.160156 2.070312 9.195312 2.078125 9.230469 C 2.089844 9.285156 2.101562 9.339844 2.117188 9.394531 C 2.128906 9.429688 2.140625 9.46875 2.152344 9.503906 C 2.171875 9.554688 2.1875 9.605469 2.207031 9.65625 C 2.21875 9.695312 2.238281 9.730469 2.253906 9.769531 C 2.273438 9.816406 2.296875 9.867188 2.316406 9.914062 C 2.335938 9.953125 2.355469 9.988281 2.378906 10.027344 C 2.402344 10.074219 2.425781 10.121094 2.453125 10.164062 C 2.476562 10.203125 2.5 10.242188 2.523438 10.277344 C 2.554688 10.324219 2.582031 10.367188 2.613281 10.414062 C 2.636719 10.449219 2.664062 10.488281 2.695312 10.523438 C 2.726562 10.570312 2.757812 10.613281 2.792969 10.65625 C 2.824219 10.691406 2.855469 10.726562 2.886719 10.765625 C 2.921875 10.808594 2.957031 10.847656 2.996094 10.890625 C 3.027344 10.925781 3.0625 10.960938 3.097656 10.996094 C 3.136719 11.039062 3.179688 11.078125 3.222656 11.121094 C 3.257812 11.15625 3.292969 11.191406 3.332031 11.222656 C 3.375 11.265625 3.417969 11.304688 3.464844 11.34375 C 3.503906 11.375 3.542969 11.410156 3.585938 11.445312 C 3.632812 11.484375 3.679688 11.523438 3.730469 11.558594 C 3.773438 11.59375 3.8125 11.625 3.855469 11.65625 C 3.910156 11.695312 3.964844 11.734375 4.015625 11.769531 C 4.0625 11.800781 4.105469 11.832031 4.148438 11.863281 C 4.207031 11.898438 4.265625 11.9375 4.324219 11.972656 C 4.371094 12.003906 4.414062 12.03125 4.460938 12.058594 C 4.523438 12.097656 4.589844 12.136719 4.65625 12.175781 C 4.699219 12.199219 4.742188 12.226562 4.789062 12.25 C 4.871094 12.296875 4.957031 12.339844 5.039062 12.382812 C 5.070312 12.398438 5.101562 12.414062 5.132812 12.429688 C 5.25 12.492188 5.371094 12.546875 5.492188 12.605469 C 5.535156 12.621094 5.582031 12.640625 5.625 12.660156 C 5.707031 12.695312 5.789062 12.734375 5.871094 12.769531 C 5.925781 12.789062 5.980469 12.8125 6.03125 12.832031 C 6.109375 12.863281 6.1875 12.894531 6.265625 12.925781 C 6.324219 12.945312 6.386719 12.96875 6.445312 12.988281 C 6.523438 13.015625 6.597656 13.042969 6.675781 13.070312 C 6.738281 13.089844 6.800781 13.113281 6.863281 13.132812 C 6.945312 13.15625 7.023438 13.183594 7.101562 13.207031 C 7.167969 13.226562 7.234375 13.246094 7.296875 13.265625 C 7.378906 13.289062 7.457031 13.3125 7.539062 13.335938 C 7.605469 13.351562 7.675781 13.371094 7.746094 13.390625 C 7.824219 13.410156 7.90625 13.429688 7.992188 13.453125 C 8.058594 13.46875 8.132812 13.484375 8.203125 13.5 C 8.285156 13.519531 8.371094 13.539062 8.457031 13.558594 C 8.527344 13.574219 8.601562 13.589844 8.671875 13.601562 C 8.757812 13.621094 8.84375 13.636719 8.933594 13.652344 C 9.007812 13.667969 9.078125 13.679688 9.152344 13.695312 C 9.242188 13.710938 9.332031 13.722656 9.425781 13.738281 C 9.496094 13.75 9.574219 13.761719 9.648438 13.773438 C 9.738281 13.789062 9.832031 13.800781 9.925781 13.8125 C 10 13.824219 10.074219 13.832031 10.152344 13.839844 C 10.246094 13.851562 10.34375 13.863281 10.441406 13.875 C 10.515625 13.882812 10.589844 13.890625 10.664062 13.898438 C 10.761719 13.90625 10.863281 13.914062 10.964844 13.925781 C 11.039062 13.929688 11.113281 13.9375 11.1875 13.941406 C 11.292969 13.949219 11.398438 13.957031 11.507812 13.960938 C 11.578125 13.964844 11.648438 13.972656 11.71875 13.972656 C 11.734375 13.976562 11.75 13.976562 11.765625 13.976562 C 11.445312 13.992188 11.125 14 10.800781 14 C 5.472656 14 0.800781 11.757812 0.800781 9.199219 C 0.800781 8.320312 1.367188 7.609375 2 7.09375 Z M 0.800781 12.578125 L 0.800781 11.316406 C 0.804688 11.324219 0.8125 11.332031 0.820312 11.339844 C 0.910156 11.449219 1.003906 11.558594 1.105469 11.664062 C 1.128906 11.691406 1.152344 11.710938 1.175781 11.738281 C 1.265625 11.828125 1.363281 11.917969 1.460938 12.007812 C 1.484375 12.027344 1.507812 12.050781 1.53125 12.070312 C 1.554688 12.089844 1.578125 12.109375 1.601562 12.128906 L 1.601562 14.359375 C 1.085938 13.808594 0.800781 13.207031 0.800781 12.578125 Z M 3.199219 18.578125 L 3.199219 17.316406 C 3.421875 17.597656 3.695312 17.867188 4 18.125 L 4 20.355469 C 3.484375 19.808594 3.199219 19.207031 3.199219 18.578125 Z M 12.398438 23.183594 L 12.398438 20.785156 C 12.417969 20.785156 12.4375 20.785156 12.457031 20.785156 C 12.703125 20.792969 12.949219 20.800781 13.199219 20.800781 C 13.453125 20.800781 13.699219 20.792969 13.945312 20.785156 C 13.964844 20.785156 13.980469 20.785156 14 20.785156 L 14 23.183594 C 13.734375 23.191406 13.46875 23.199219 13.199219 23.199219 C 12.929688 23.199219 12.664062 23.191406 12.398438 23.183594 Z M 23.199219 17.316406 L 23.199219 18.578125 C 23.199219 19.207031 22.914062 19.808594 22.398438 20.359375 L 22.398438 18.128906 C 22.421875 18.109375 22.445312 18.089844 22.46875 18.070312 C 22.492188 18.050781 22.515625 18.027344 22.539062 18.007812 C 22.636719 17.917969 22.734375 17.828125 22.824219 17.738281 C 22.847656 17.714844 22.871094 17.691406 22.894531 17.667969 C 22.996094 17.558594 23.089844 17.449219 23.179688 17.339844 C 23.1875 17.332031 23.195312 17.324219 23.199219 17.316406 Z M 23.199219 17.316406"/>
</svg>
