<svg xmlns="http://www.w3.org/2000/svg" width="32" height="32" viewBox="0 0 24 24">
    <path d="M2 20.398a.401.401 0 1 1-.802.003.401.401 0 0 1 .802-.003zm0 0M3.602 18.8a.401.401 0 1 1-.802-.004.401.401 0 0 1 .802.005zm0 0M2 3.602a.4.4 0 1 1-.8-.004.4.4 0 0 1 .8.004zm0 0M3.602 5.2a.401.401 0 1 1 0 0zm0 0M22.8 20.398a.401.401 0 1 1 0 0zm0 0M21.2 18.8a.4.4 0 1 1-.801-.003.4.4 0 0 1 .8.004zm0 0M22.8 3.602A.401.401 0 1 1 22 3.597a.401.401 0 0 1 .802.005zm0 0M21.2 5.2a.401.401 0 1 1-.803.002.401.401 0 0 1 .802-.003zm0 0"/>
    <path d="M24 .398c0-.003-.004-.011-.004-.015 0-.02-.004-.04-.008-.059-.004-.02-.008-.039-.015-.058 0-.008 0-.012-.004-.02-.004-.012-.012-.02-.02-.031-.008-.02-.02-.035-.031-.05-.012-.017-.023-.032-.04-.044a.185.185 0 0 0-.038-.039c-.02-.012-.035-.023-.055-.031-.012-.008-.02-.016-.031-.02-.008-.004-.012-.004-.02-.004C23.72.02 23.7.016 23.68.012c-.02-.004-.04-.008-.063-.008-.004 0-.012-.004-.015-.004H.398C.395 0 .387.004.383.004c-.02 0-.04.004-.059.008C.304.016.285.02.266.027c-.008 0-.012 0-.02.004-.012.004-.02.012-.031.02C.195.059.18.07.165.082.147.094.132.105.12.122.105.131.094.147.082.163.07.18.059.195.051.214.043.228.035.235.03.247.027.254.027.258.027.266.02.286.016.305.012.324a.302.302 0 0 0-.008.059C.004.387 0 .395 0 .398v23.204c0 .003.004.011.004.015 0 .02.004.04.008.059.004.02.008.043.015.058 0 .008 0 .012.004.02.004.012.012.02.02.031.008.02.02.035.031.05.012.017.023.032.04.044a.185.185 0 0 0 .038.039c.02.012.035.023.055.031.012.008.02.016.031.02.004.004.012 0 .016.004.043.015.09.027.136.027h23.204a.406.406 0 0 0 .136-.027c.004 0 .012 0 .016-.004.012-.004.02-.012.031-.02.02-.008.035-.02.05-.031.017-.012.032-.023.044-.04a.185.185 0 0 0 .039-.038c.012-.02.023-.035.031-.055.008-.012.016-.02.02-.031.004-.008.004-.012.004-.02.007-.015.011-.035.015-.054.004-.024.008-.04.008-.063 0-.004.004-.012.004-.015zm-.8 22.235l-3.2-3.2V4.567l3.2-3.199zm-6.45-3.434l2.45-2.449v2.45zM.8 1.367l3.2 3.2v14.867L.8 22.633zm6.59 3.434L4.8 7.39V4.8zm5.657 0h3.394L4.801 16.44v-3.394zM4.8 11.918V8.523l3.722-3.722h3.391zm0 5.656L17.574 4.801H19.2v1.765L6.566 19.2H4.801zM19.199 7.7v3.395l-8.105 8.105H7.699zm0 4.524v3.394L15.617 19.2h-3.394zM22.633.8L19.433 4H4.567L1.367.8zM1.367 23.199L4.567 20h14.867l3.199 3.2zm0 0"/>
    <path d="M20.8 22.398a.401.401 0 1 1 0 0zm0 0M19.2 20.8a.4.4 0 1 1-.801-.003.4.4 0 0 1 .8.004zm0 0M4 22.398a.401.401 0 1 1-.802.003.401.401 0 0 1 .802-.003zm0 0M5.602 20.8a.401.401 0 1 1-.802-.004.401.401 0 0 1 .802.005zm0 0M20.8 1.602A.401.401 0 1 1 20 1.597a.401.401 0 0 1 .802.005zm0 0M19.2 3.2a.401.401 0 1 1-.803.002.401.401 0 0 1 .802-.003zm0 0M4 1.602a.4.4 0 1 1-.8-.004.4.4 0 0 1 .8.004zm0 0M5.602 3.2a.401.401 0 1 1 0 0zm0 0"/>
</svg>
