<svg xmlns="http://www.w3.org/2000/svg" width="32" height="32" viewBox="0 0 24 24">
    <path d="M23.602 18.398h-.403V10h-4.012A4.593 4.593 0 0 0 21.2 6.2a4.603 4.603 0 0 0-4.597-4.598A4.593 4.593 0 0 0 12.8 3.613V1.602H6v16.796H4.398V2.801A.398.398 0 0 0 4 2.398h-.855A1.6 1.6 0 0 0 1.602 1.2a1.6 1.6 0 0 0 0 3.2 1.6 1.6 0 0 0 1.543-1.2h.457v15.602c0 .219.175.398.398.398h2.813A2.004 2.004 0 0 0 6 20.801c0 1.101.898 2 2 2 1.102 0 2-.899 2-2 0-.656-.324-1.235-.813-1.602h9.626A2.004 2.004 0 0 0 18 20.801c0 1.101.898 2 2 2 1.102 0 2-.899 2-2 0-.656-.324-1.235-.813-1.602h2.415a.4.4 0 0 0 0-.8zm-22-14.796a.802.802 0 0 1 0-1.602c.293 0 .546.16.687.398H2a.398.398 0 0 0-.398.403c0 .219.175.398.398.398h.29a.801.801 0 0 1-.688.403zM8 22a1.2 1.2 0 1 1 0-2.398A1.2 1.2 0 0 1 8 22zm12 0a1.2 1.2 0 1 1 0-2.398A1.2 1.2 0 0 1 20 22zm-3.2-11.2H18v1.598h-1.2zm-.198-8.402a3.802 3.802 0 0 1 0 7.602A3.803 3.803 0 0 1 12.8 6.2c0-2.095 1.703-3.802 3.8-3.802zM14.012 10H12.8V8.79c.324.472.734.886 1.21 1.21zM10 2.398V4H8.8V2.398zm-3.2 16v-16H8v2.403h2.8V2.398H12v16zm6 0v-7.597H16v2.398h2.8v-2.398h3.598v7.597zm0 0"/>
</svg>
