<svg xmlns="http://www.w3.org/2000/svg" width="32" height="32" viewBox="0 0 24 24">
    <path d="M21.2 16.426v-4.824h-8.802V7.574A3.206 3.206 0 0 0 15.2 4.398C15.2 2.637 13.766 1.2 12 1.2a3.203 3.203 0 0 0-3.2 3.2 3.206 3.206 0 0 0 2.802 3.175v4.028H2.8v4.824A3.206 3.206 0 0 0 0 19.602C0 21.363 1.438 22.8 3.2 22.8c1.765 0 3.198-1.438 3.198-3.2a3.206 3.206 0 0 0-2.796-3.175v-4.028h8v4.028A3.206 3.206 0 0 0 8.8 19.602C8.8 21.363 10.234 22.8 12 22.8c1.766 0 3.2-1.438 3.2-3.2a3.206 3.206 0 0 0-2.802-3.175v-4.028h8v4.028a3.206 3.206 0 0 0-2.796 3.176c0 1.761 1.433 3.199 3.199 3.199 1.762 0 3.199-1.438 3.199-3.2a3.206 3.206 0 0 0-2.8-3.175zM9.601 4.398A2.401 2.401 0 0 1 12 2a2.401 2.401 0 0 1 0 4.8 2.402 2.402 0 0 1-2.398-2.402zm-4 15.204A2.405 2.405 0 0 1 3.199 22a2.401 2.401 0 0 1 0-4.8 2.406 2.406 0 0 1 2.403 2.402zm8.796 0A2.401 2.401 0 0 1 12 22a2.401 2.401 0 0 1 0-4.8 2.402 2.402 0 0 1 2.398 2.402zM20.801 22a2.405 2.405 0 0 1-2.403-2.398 2.406 2.406 0 0 1 2.403-2.403 2.401 2.401 0 0 1 0 4.8zm0 0"/>
</svg>
