<svg xmlns="http://www.w3.org/2000/svg" width="32" height="32" viewBox="0 0 24 24">
    <path d="M 23.785156 14.394531 C 23.082031 13.417969 22.371094 13.402344 20.59375 14.339844 L 17.140625 16.449219 C 16.632812 16.71875 15.582031 16.800781 14.566406 16.816406 C 14.746094 16.441406 14.664062 15.992188 14.324219 15.480469 C 14.007812 15.011719 13.574219 14.636719 13.074219 14.378906 C 13.90625 13.703125 14.402344 12.703125 14.402344 11.601562 C 14.402344 9.613281 12.785156 8 10.800781 8 C 8.816406 8 7.199219 9.613281 7.199219 11.601562 C 7.199219 12.191406 7.347656 12.757812 7.609375 13.261719 C 7.605469 13.257812 7.601562 13.253906 7.59375 13.25 C 6.160156 12.167969 3.761719 12.015625 2.800781 12 L 2.800781 10.789062 L 0 10.789062 L 0 23.601562 L 2.800781 23.601562 L 2.800781 22.398438 L 8 22.398438 C 8.816406 22.398438 9.640625 22.339844 10.445312 22.214844 L 15.632812 21.425781 C 15.820312 21.425781 16.011719 21.402344 16.183594 21.363281 C 16.660156 21.296875 17.117188 21.070312 17.503906 20.703125 L 23.566406 15.980469 L 23.574219 15.972656 C 24.046875 15.582031 24.140625 14.890625 23.785156 14.394531 Z M 9.269531 13.941406 C 8.472656 13.417969 8 12.550781 8 11.601562 C 8 10.054688 9.257812 8.800781 10.800781 8.800781 C 12.34375 8.800781 13.601562 10.054688 13.601562 11.601562 C 13.601562 12.632812 13.042969 13.5625 12.140625 14.054688 C 12.089844 14.046875 12.039062 14.042969 11.988281 14.035156 C 11.941406 14.027344 11.890625 14.015625 11.839844 14.011719 C 11.710938 13.996094 11.578125 13.988281 11.449219 13.988281 L 9.886719 13.988281 C 9.6875 13.988281 9.476562 13.972656 9.269531 13.941406 Z M 2 22.800781 L 0.800781 22.800781 L 0.800781 11.589844 L 2 11.589844 Z M 23.070312 15.355469 L 16.996094 20.085938 L 16.964844 20.113281 C 16.699219 20.367188 16.386719 20.527344 16.03125 20.578125 C 15.886719 20.609375 15.742188 20.628906 15.601562 20.628906 L 10.328125 21.425781 C 9.558594 21.542969 8.777344 21.601562 8 21.601562 L 2.800781 21.601562 L 2.800781 12.800781 C 3.6875 12.820312 5.882812 12.960938 7.113281 13.890625 C 7.648438 14.292969 8.289062 14.566406 8.972656 14.699219 L 8.976562 14.703125 L 9.054688 14.714844 C 9.058594 14.714844 9.0625 14.714844 9.066406 14.71875 C 9.195312 14.738281 9.328125 14.757812 9.464844 14.769531 C 9.46875 14.769531 9.472656 14.769531 9.476562 14.769531 C 9.613281 14.78125 9.75 14.789062 9.886719 14.789062 L 11.445312 14.789062 C 11.667969 14.789062 11.886719 14.816406 12.101562 14.867188 L 12.125 14.871094 C 12.753906 15.027344 13.300781 15.398438 13.65625 15.925781 C 13.824219 16.179688 13.890625 16.386719 13.835938 16.484375 C 13.730469 16.667969 13.234375 16.785156 12.730469 16.804688 C 12.566406 16.800781 12.417969 16.800781 12.285156 16.800781 L 8.398438 16.800781 C 7.148438 16.800781 6.398438 17.398438 6.398438 18.402344 C 6.398438 18.621094 6.578125 18.800781 6.800781 18.800781 C 7.019531 18.800781 7.199219 18.621094 7.199219 18.402344 C 7.199219 18.203125 7.199219 17.601562 8.398438 17.601562 L 12.277344 17.601562 C 12.367188 17.605469 12.542969 17.613281 12.761719 17.605469 C 12.832031 17.605469 12.902344 17.609375 12.976562 17.609375 C 14.851562 17.644531 16.613281 17.632812 17.539062 17.140625 L 20.984375 15.035156 C 22.636719 14.167969 22.800781 14.398438 23.132812 14.859375 C 23.242188 15.015625 23.214844 15.230469 23.070312 15.355469 Z M 23.070312 15.355469"/>
    <path d="M12.800781 11.601562C12.800781 10.496094 11.902344 9.601562 10.800781 9.601562 9.699219 9.601562 8.800781 10.496094 8.800781 11.601562 8.800781 12.703125 9.699219 13.601562 10.800781 13.601562 11.902344 13.601562 12.800781 12.703125 12.800781 11.601562zM10.800781 12.800781C10.140625 12.800781 9.601562 12.261719 9.601562 11.601562 9.601562 10.9375 10.140625 10.398438 10.800781 10.398438 11.460938 10.398438 12 10.9375 12 11.601562 12 12.261719 11.460938 12.800781 10.800781 12.800781zM16.800781 7.601562C18.785156 7.601562 20.402344 5.984375 20.402344 4 20.402344 2.015625 18.785156.398438 16.800781.398438 14.816406.398438 13.199219 2.015625 13.199219 4 13.199219 5.984375 14.816406 7.601562 16.800781 7.601562zM16.800781 1.199219C18.34375 1.199219 19.601562 2.457031 19.601562 4 19.601562 5.542969 18.34375 6.800781 16.800781 6.800781 15.257812 6.800781 14 5.542969 14 4 14 2.457031 15.257812 1.199219 16.800781 1.199219zM16.800781 1.199219"/>
    <path d="M 16.800781 6 C 17.902344 6 18.800781 5.101562 18.800781 4 C 18.800781 2.898438 17.902344 2 16.800781 2 C 15.699219 2 14.800781 2.898438 14.800781 4 C 14.800781 5.101562 15.699219 6 16.800781 6 Z M 16.800781 2.800781 C 17.460938 2.800781 18 3.339844 18 4 C 18 4.660156 17.460938 5.199219 16.800781 5.199219 C 16.140625 5.199219 15.601562 4.660156 15.601562 4 C 15.601562 3.339844 16.140625 2.800781 16.800781 2.800781 Z M 16.800781 2.800781"/>
</svg>
