<svg xmlns="http://www.w3.org/2000/svg" width="32" height="32" viewBox="0 0 24 24">
    <path d="M22.8 9.2a.401.401 0 1 1 0 0zm0 0M22.8 11.602a.401.401 0 1 1-.801-.005.401.401 0 0 1 .802.005zm0 0M21.602 12.8a.401.401 0 1 1-.802-.004.401.401 0 0 1 .802.005zm0 0M16.8 12.8a.401.401 0 1 1-.801-.004.401.401 0 0 1 .802.005zm0 0M18 11.602a.4.4 0 1 1-.8-.004.4.4 0 0 1 .8.004zm0 0M10.8 16.398a.401.401 0 1 1 0 0zm0 0M21.602 15.2a.401.401 0 1 1 0 0zm0 0M22.8 14c0 .223-.179.398-.402.398a.398.398 0 1 1 0-.796c.223 0 .403.175.403.398zm0 0M22.8 16.398a.401.401 0 1 1 0 0zm0 0M19.2 15.2a.401.401 0 1 1-.803.002.401.401 0 0 1 .802-.003zm0 0M20.398 14a.395.395 0 0 1-.398.398.395.395 0 0 1-.398-.398c0-.223.175-.398.398-.398.223 0 .398.175.398.398zm0 0M20.398 16.398a.398.398 0 1 1-.796 0 .398.398 0 1 1 .796 0zm0 0M14.398 15.2a.398.398 0 1 1-.796 0 .398.398 0 1 1 .796 0zm0 0M16.8 15.2a.401.401 0 1 1 0 0zm0 0M9.602 17.602a.401.401 0 1 1-.802-.005.401.401 0 0 1 .802.005zm0 0M12 17.602a.4.4 0 1 1-.8-.004.4.4 0 0 1 .8.004zm0 0M4.8 17.602A.401.401 0 1 1 4 17.597a.401.401 0 0 1 .802.005zm0 0M21.602 17.602a.401.401 0 1 1-.802-.005.401.401 0 0 1 .802.005zm0 0M19.2 17.602a.4.4 0 1 1-.801-.004.4.4 0 0 1 .8.004zm0 0M14.398 17.602a.398.398 0 1 1-.796 0 .398.398 0 1 1 .796 0zm0 0M16.8 17.602a.401.401 0 1 1-.801-.005.401.401 0 0 1 .802.005zm0 0M15.602 14c0 .223-.18.398-.403.398a.398.398 0 1 1 0-.796c.223 0 .403.175.403.398zm0 0M18 14c0 .223-.18.398-.398.398a.398.398 0 1 1 0-.796c.218 0 .398.175.398.398zm0 0M15.602 16.398a.401.401 0 1 1 0 0zm0 0M18 16.398a.401.401 0 1 1-.802.003.401.401 0 0 1 .802-.003zm0 0M9.602 20c0 .223-.18.398-.403.398a.398.398 0 1 1 0-.796c.223 0 .403.175.403.398zm0 0M10.8 18.8a.401.401 0 1 1-.801-.004.401.401 0 0 1 .802.005zm0 0M10.8 21.2a.401.401 0 1 1 0 0zm0 0M12 20c0 .223-.18.398-.398.398a.398.398 0 1 1 0-.796c.218 0 .398.175.398.398zm0 0M7.2 20c0 .223-.18.398-.4.398a.398.398 0 1 1 0-.796c.22 0 .4.175.4.398zm0 0M8.398 21.2a.398.398 0 1 1-.796 0 .398.398 0 1 1 .796 0zm0 0M2.398 20a.395.395 0 0 1-.398.398.395.395 0 0 1-.398-.398c0-.223.175-.398.398-.398.223 0 .398.175.398.398zm0 0M4.8 20c0 .223-.179.398-.402.398a.398.398 0 1 1 0-.796c.223 0 .403.175.403.398zm0 0M3.602 18.8a.401.401 0 1 1-.802-.004.401.401 0 0 1 .802.005zm0 0M6 18.8a.4.4 0 1 1-.8-.003.4.4 0 0 1 .8.004zm0 0M3.602 21.2a.401.401 0 1 1 0 0zm0 0M6 21.2a.401.401 0 1 1-.802.002.401.401 0 0 1 .802-.003zm0 0M21.602 20c0 .223-.18.398-.403.398a.398.398 0 1 1 0-.796c.223 0 .403.175.403.398zm0 0M22.8 18.8a.401.401 0 1 1-.801-.004.401.401 0 0 1 .802.005zm0 0M22.8 21.2a.401.401 0 1 1 0 0zm0 0M19.2 20c0 .223-.18.398-.4.398a.398.398 0 1 1 0-.796c.22 0 .4.175.4.398zm0 0M20.398 18.8a.398.398 0 1 1-.796 0 .398.398 0 1 1 .796 0zm0 0M20.398 21.2a.398.398 0 1 1-.796 0 .398.398 0 1 1 .796 0zm0 0M13.2 18.8a.4.4 0 1 1-.801-.003.4.4 0 0 1 .8.004zm0 0M13.2 21.2a.401.401 0 1 1-.803.002.401.401 0 0 1 .802-.003zm0 0M14.398 20a.395.395 0 0 1-.398.398.395.395 0 0 1-.398-.398c0-.223.175-.398.398-.398.223 0 .398.175.398.398zm0 0M16.8 20c0 .223-.179.398-.402.398a.398.398 0 1 1 0-.796c.223 0 .403.175.403.398zm0 0M15.602 18.8a.401.401 0 1 1-.802-.004.401.401 0 0 1 .802.005zm0 0M18 18.8a.4.4 0 1 1-.8-.003.4.4 0 0 1 .8.004zm0 0M15.602 21.2a.401.401 0 1 1 0 0zm0 0M18 21.2a.401.401 0 1 1-.802.002.401.401 0 0 1 .802-.003zm0 0M2.8 11.602h.802a.401.401 0 0 0 0-.801H2.8a.401.401 0 1 0 0 .8zm0 0M2.8 10h.802a.4.4 0 0 0 0-.8H2.8a.401.401 0 0 0 0 .8zm0 0M2.8 8.398h.802a.398.398 0 1 0 0-.796H2.8a.398.398 0 1 0 0 .796zm0 0M2.8 6.8h.802a.401.401 0 0 0 0-.8H2.8a.401.401 0 1 0 0 .8zm0 0M2.8 5.2h.802a.4.4 0 0 0 0-.802H2.8a.401.401 0 0 0 0 .8zm0 0M2.8 3.602h.802a.401.401 0 0 0 0-.801H2.8a.401.401 0 1 0 0 .8zm0 0M2.8 2h.802a.4.4 0 0 0 0-.8H2.8a.401.401 0 0 0 0 .8zm0 0"/>
    <path d="M19.176 11.703L16.777 8.5l-4.402 6.8-2.457-3.273-2.797 6-2.277-3.035-3.242 3.242V.398a.401.401 0 0 0-.801 0v22H.398a.401.401 0 0 0 0 .801h.403v.403a.4.4 0 0 0 .8 0v-.403H24V4.246zm2.426 10.695a.401.401 0 0 0-.801 0h-1.602a.4.4 0 0 0-.8 0H16.8a.401.401 0 0 0-.801 0h-1.602a.398.398 0 1 0-.796 0H12a.4.4 0 0 0-.8 0H9.601a.401.401 0 0 0-.801 0H7.199a.4.4 0 0 0-.8 0H4.8a.401.401 0 0 0-.801 0H2.398a.398.398 0 1 0-.796 0v-3.03l3.156-3.161 2.523 3.367.332-.71a.395.395 0 0 0 .785-.063.398.398 0 0 0-.398-.403.387.387 0 0 0-.2.063l2.282-4.887 2.344 3.125.05-.078c.07.106.188.18.325.18a.397.397 0 1 0 .066-.79l3.957-6.113 1.89 2.52a.393.393 0 0 0-.316.383c0 .219.18.398.403.398a.4.4 0 0 0 .344-.207l.078.106 1.629-2.512a.396.396 0 0 0 .347.215c.223 0 .403-.18.403-.403a.4.4 0 0 0-.375-.394l1.972-3.05v15.444zm0 0"/>
</svg>
