<svg xmlns="http://www.w3.org/2000/svg" width="32" height="32" viewBox="0 0 24 24">
    <path d="M5.46875 12C5.46875 11.75 5.476562 11.496094 5.496094 11.246094 5.511719 11.027344 5.347656 10.835938 5.128906 10.816406 4.914062 10.800781 4.714844 10.964844 4.699219 11.183594 4.675781 11.457031 4.667969 11.730469 4.667969 12L4.667969 12.007812C4.667969 12.230469 4.84375 12.402344 5.066406 12.402344 5.289062 12.402344 5.46875 12.222656 5.46875 12zM9.726562 19.515625C9.507812 19.40625 9.289062 19.277344 9.078125 19.140625 8.894531 19.019531 8.648438 19.074219 8.527344 19.257812 8.40625 19.441406 8.457031 19.691406 8.640625 19.808594 8.875 19.964844 9.117188 20.105469 9.367188 20.230469 9.421875 20.257812 9.484375 20.273438 9.546875 20.273438 9.691406 20.273438 9.832031 20.191406 9.902344 20.054688 10.003906 19.855469 9.925781 19.617188 9.726562 19.515625zM10.117188 3.441406C9.859375 3.539062 9.597656 3.652344 9.347656 3.777344 9.152344 3.878906 9.074219 4.121094 9.175781 4.316406 9.246094 4.457031 9.386719 4.535156 9.53125 4.535156 9.59375 4.535156 9.65625 4.519531 9.710938 4.492188 9.9375 4.378906 10.164062 4.277344 10.394531 4.191406 10.601562 4.113281 10.707031 3.882812 10.628906 3.675781 10.554688 3.46875 10.324219 3.363281 10.117188 3.441406zM7.339844 5.257812C7.144531 5.449219 6.957031 5.660156 6.78125 5.875 6.640625 6.042969 6.667969 6.296875 6.839844 6.4375 6.914062 6.496094 7.003906 6.527344 7.09375 6.527344 7.207031 6.527344 7.324219 6.476562 7.402344 6.378906 7.5625 6.183594 7.730469 5.996094 7.90625 5.820312 8.0625 5.664062 8.0625 5.410156 7.902344 5.253906 7.746094 5.097656 7.492188 5.097656 7.339844 5.257812zM6.019531 7.785156C5.816406 7.695312 5.582031 7.789062 5.492188 7.992188 5.382812 8.242188 5.28125 8.5 5.195312 8.761719 5.125 8.972656 5.234375 9.199219 5.445312 9.269531 5.488281 9.285156 5.53125 9.292969 5.574219 9.292969 5.738281 9.292969 5.894531 9.1875 5.953125 9.019531 6.03125 8.78125 6.125 8.542969 6.226562 8.3125 6.3125 8.109375 6.222656 7.875 6.019531 7.785156zM5.742188 14.265625C5.6875 14.054688 5.472656 13.921875 5.257812 13.976562 5.042969 14.027344 4.914062 14.246094 4.964844 14.460938 5.03125 14.726562 5.109375 14.992188 5.199219 15.253906 5.257812 15.421875 5.410156 15.523438 5.578125 15.523438 5.621094 15.523438 5.664062 15.515625 5.707031 15.503906 5.914062 15.429688 6.027344 15.203125 5.957031 14.996094 5.875 14.757812 5.804688 14.511719 5.742188 14.265625zM6.960938 17.027344C6.835938 16.84375 6.589844 16.796875 6.40625 16.917969 6.222656 17.042969 6.175781 17.292969 6.296875 17.476562 6.453125 17.707031 6.621094 17.929688 6.792969 18.140625 6.871094 18.238281 6.988281 18.285156 7.101562 18.285156 7.191406 18.285156 7.28125 18.257812 7.355469 18.195312 7.527344 18.054688 7.550781 17.804688 7.410156 17.632812 7.257812 17.441406 7.105469 17.238281 6.960938 17.027344zM12.601562 20.210938C12.351562 20.210938 12.101562 20.195312 11.855469 20.164062 11.632812 20.144531 11.4375 20.296875 11.414062 20.515625 11.386719 20.734375 11.542969 20.933594 11.761719 20.960938 12.039062 20.992188 12.320312 21.011719 12.601562 21.011719L12.632812 21.011719C12.855469 21.011719 13.015625 20.832031 13.015625 20.609375 13.015625 20.390625 12.820312 20.210938 12.601562 20.210938zM18.230469 6.960938C18.308594 7.074219 18.433594 7.136719 18.5625 7.136719 18.640625 7.136719 18.71875 7.113281 18.785156 7.066406 18.96875 6.941406 19.015625 6.691406 18.894531 6.511719 18.738281 6.28125 18.570312 6.058594 18.394531 5.84375 18.253906 5.675781 18.003906 5.652344 17.832031 5.789062 17.664062 5.929688 17.636719 6.183594 17.777344 6.355469 17.9375 6.546875 18.089844 6.75 18.230469 6.960938zM14.960938 20.578125C15.007812 20.578125 15.054688 20.570312 15.101562 20.554688 15.359375 20.457031 15.617188 20.339844 15.867188 20.214844 16.0625 20.113281 16.140625 19.871094 16.039062 19.675781 15.9375 19.476562 15.699219 19.398438 15.5 19.5 15.277344 19.617188 15.050781 19.71875 14.820312 19.804688 14.613281 19.882812 14.507812 20.113281 14.585938 20.320312 14.644531 20.480469 14.796875 20.578125 14.960938 20.578125zM15.457031 4.476562C15.679688 4.589844 15.898438 4.714844 16.105469 4.851562 16.171875 4.894531 16.25 4.914062 16.324219 4.914062 16.453125 4.914062 16.582031 4.851562 16.660156 4.734375 16.78125 4.546875 16.726562 4.300781 16.542969 4.179688 16.308594 4.027344 16.066406 3.886719 15.820312 3.761719 15.621094 3.664062 15.378906 3.742188 15.28125 3.941406 15.179688 4.136719 15.261719 4.378906 15.457031 4.476562zM12.582031 3.390625L12.582031 2.992188C12.363281 2.992188 12.191406 3.167969 12.191406 3.390625 12.191406 3.613281 12.378906 3.789062 12.601562 3.789062 12.84375 3.789062 13.085938 3.804688 13.328125 3.832031 13.34375 3.835938 13.359375 3.835938 13.375 3.835938 13.574219 3.835938 13.746094 3.6875 13.769531 3.480469 13.796875 3.261719 13.640625 3.0625 13.421875 3.039062 13.148438 3.007812 12.871094 3 12.589844 2.992188zM17.589844 18.851562C17.691406 18.851562 17.796875 18.8125 17.875 18.730469 18.066406 18.535156 18.253906 18.328125 18.429688 18.113281 18.570312 17.941406 18.542969 17.691406 18.371094 17.550781 18.199219 17.410156 17.949219 17.4375 17.808594 17.609375 17.648438 17.804688 17.480469 17.992188 17.304688 18.171875 17.148438 18.328125 17.152344 18.582031 17.308594 18.734375 17.386719 18.8125 17.488281 18.851562 17.589844 18.851562zM19.734375 12C19.734375 12.246094 19.722656 12.496094 19.707031 12.734375 19.6875 12.957031 19.851562 13.148438 20.074219 13.164062 20.082031 13.164062 20.09375 13.167969 20.105469 13.167969 20.3125 13.167969 20.488281 13.007812 20.503906 12.796875 20.523438 12.535156 20.53125 12.265625 20.53125 12L20.53125 11.972656C20.53125 11.753906 20.355469 11.585938 20.132812 11.585938 19.910156 11.585938 19.734375 11.777344 19.734375 12zM19.453125 9.71875C19.5 9.898438 19.664062 10.019531 19.839844 10.019531 19.875 10.019531 19.90625 10.015625 19.9375 10.007812 20.152344 9.953125 20.285156 9.738281 20.230469 9.523438 20.164062 9.257812 20.085938 8.988281 19.996094 8.730469 19.921875 8.519531 19.695312 8.410156 19.488281 8.480469 19.277344 8.554688 19.167969 8.78125 19.238281 8.988281 19.320312 9.226562 19.390625 9.472656 19.453125 9.71875zM19.1875 16.199219C19.238281 16.222656 19.292969 16.230469 19.347656 16.230469 19.503906 16.230469 19.648438 16.140625 19.714844 15.992188 19.824219 15.742188 19.921875 15.480469 20.011719 15.21875 20.082031 15.011719 19.96875 14.785156 19.761719 14.714844 19.550781 14.644531 19.324219 14.753906 19.253906 14.964844 19.171875 15.203125 19.082031 15.441406 18.980469 15.671875 18.890625 15.875 18.984375 16.109375 19.1875 16.199219zM19.1875 16.199219"/>
    <path d="M 21.738281 0 L 18.261719 0 C 17.417969 0 16.671875 0.464844 16.285156 1.1875 C 15.128906 0.679688 13.882812 0.398438 12.601562 0.398438 C 12.191406 0.398438 11.789062 0.429688 11.394531 0.484375 C 10.980469 0.429688 10.589844 0.398438 10.199219 0.398438 C 8.246094 0.398438 6.421875 1.027344 4.867188 2.117188 C 4.078125 2.667969 3.363281 3.339844 2.734375 4.105469 C 2.71875 4.121094 2.703125 4.140625 2.6875 4.164062 C 2.09375 4.898438 1.585938 5.722656 1.171875 6.609375 C 1.160156 6.632812 1.152344 6.652344 1.144531 6.671875 C 0.859375 7.296875 0.621094 7.949219 0.441406 8.632812 C 0.421875 8.667969 0.414062 8.710938 0.410156 8.753906 C 0.144531 9.785156 0 10.875 0 12 C 0 13.761719 0.347656 15.429688 0.96875 16.925781 C 0.972656 16.945312 0.980469 16.960938 0.988281 16.976562 C 1.359375 17.859375 1.828125 18.683594 2.375 19.429688 C 2.390625 19.449219 2.402344 19.472656 2.417969 19.488281 C 2.976562 20.234375 3.613281 20.898438 4.316406 21.464844 C 4.335938 21.488281 4.359375 21.503906 4.386719 21.523438 C 6.035156 22.832031 8.039062 23.601562 10.199219 23.601562 C 10.589844 23.601562 10.980469 23.570312 11.394531 23.515625 C 11.789062 23.570312 12.191406 23.601562 12.601562 23.601562 C 13.882812 23.601562 15.128906 23.320312 16.285156 22.8125 C 16.671875 23.535156 17.417969 24 18.261719 24 L 21.738281 24 C 22.984375 24 24 22.984375 24 21.738281 L 24 2.261719 C 24 1.015625 22.984375 0 21.738281 0 Z M 16.898438 2.402344 C 16.988281 2.453125 17.070312 2.507812 17.15625 2.5625 C 17.289062 2.644531 17.417969 2.730469 17.542969 2.820312 C 17.613281 2.871094 17.679688 2.917969 17.746094 2.96875 C 17.914062 3.09375 18.078125 3.226562 18.238281 3.363281 C 18.261719 3.386719 18.285156 3.40625 18.3125 3.425781 C 18.429688 3.53125 18.539062 3.644531 18.652344 3.753906 C 18.796875 3.894531 18.9375 4.039062 19.074219 4.1875 C 19.152344 4.273438 19.230469 4.355469 19.304688 4.441406 C 19.425781 4.585938 19.546875 4.738281 19.660156 4.890625 C 19.734375 4.984375 19.808594 5.074219 19.875 5.171875 C 19.878906 5.175781 19.878906 5.175781 19.878906 5.179688 C 20.003906 5.351562 20.121094 5.535156 20.238281 5.71875 C 20.265625 5.761719 20.292969 5.804688 20.320312 5.84375 C 20.347656 5.890625 20.375 5.9375 20.402344 5.984375 C 20.542969 6.226562 20.675781 6.472656 20.800781 6.726562 L 20.800781 17.273438 C 20.675781 17.527344 20.542969 17.773438 20.402344 18.015625 C 20.375 18.0625 20.347656 18.105469 20.320312 18.152344 C 20.292969 18.195312 20.265625 18.238281 20.238281 18.277344 C 20.121094 18.464844 20.003906 18.644531 19.878906 18.820312 C 19.878906 18.824219 19.878906 18.824219 19.875 18.828125 C 19.808594 18.921875 19.734375 19.015625 19.660156 19.109375 C 19.546875 19.261719 19.425781 19.410156 19.304688 19.554688 C 19.230469 19.640625 19.152344 19.726562 19.074219 19.8125 C 18.941406 19.960938 18.796875 20.105469 18.652344 20.246094 C 18.539062 20.355469 18.429688 20.46875 18.3125 20.574219 C 18.285156 20.59375 18.261719 20.613281 18.238281 20.632812 C 18.078125 20.773438 17.914062 20.902344 17.746094 21.03125 C 17.679688 21.078125 17.609375 21.128906 17.542969 21.175781 C 17.417969 21.269531 17.289062 21.355469 17.15625 21.4375 C 17.070312 21.492188 16.988281 21.546875 16.898438 21.597656 C 16.777344 21.671875 16.65625 21.734375 16.53125 21.800781 C 15.316406 22.445312 13.980469 22.800781 12.601562 22.800781 C 12.28125 22.800781 11.96875 22.78125 11.660156 22.746094 L 11.5 22.722656 C 11.480469 22.722656 11.460938 22.71875 11.441406 22.714844 C 11.300781 22.695312 11.164062 22.671875 11.027344 22.644531 C 11.015625 22.644531 11.007812 22.640625 10.996094 22.640625 C 10.863281 22.613281 10.730469 22.585938 10.597656 22.550781 C 10.582031 22.546875 10.5625 22.542969 10.546875 22.539062 C 10.421875 22.507812 10.300781 22.472656 10.179688 22.433594 C 10.144531 22.425781 10.113281 22.414062 10.082031 22.402344 C 9.976562 22.371094 9.871094 22.335938 9.765625 22.296875 C 9.691406 22.269531 9.621094 22.242188 9.546875 22.210938 C 9.484375 22.1875 9.421875 22.164062 9.359375 22.136719 C 7.210938 21.226562 5.425781 19.4375 4.339844 17.152344 C 4.332031 17.132812 4.324219 17.109375 4.3125 17.089844 C 4.253906 16.964844 4.199219 16.839844 4.144531 16.710938 C 4.121094 16.660156 4.101562 16.609375 4.082031 16.558594 C 4.042969 16.460938 4 16.359375 3.964844 16.257812 C 3.941406 16.191406 3.917969 16.128906 3.894531 16.0625 C 3.859375 15.972656 3.828125 15.882812 3.800781 15.792969 C 3.777344 15.71875 3.753906 15.644531 3.730469 15.574219 C 3.703125 15.488281 3.679688 15.402344 3.65625 15.316406 C 3.632812 15.238281 3.613281 15.160156 3.59375 15.082031 C 3.570312 14.996094 3.550781 14.914062 3.527344 14.828125 C 3.511719 14.746094 3.492188 14.667969 3.472656 14.585938 C 3.457031 14.5 3.4375 14.414062 3.421875 14.328125 C 3.40625 14.246094 3.390625 14.164062 3.378906 14.082031 C 3.363281 13.992188 3.347656 13.902344 3.335938 13.8125 C 3.324219 13.734375 3.3125 13.652344 3.300781 13.570312 C 3.289062 13.476562 3.277344 13.378906 3.269531 13.28125 C 3.261719 13.207031 3.253906 13.132812 3.246094 13.054688 C 3.238281 12.945312 3.230469 12.832031 3.222656 12.71875 C 3.21875 12.65625 3.214844 12.59375 3.210938 12.53125 C 3.203125 12.355469 3.199219 12.179688 3.199219 12 C 3.199219 11.820312 3.203125 11.644531 3.210938 11.46875 C 3.214844 11.40625 3.21875 11.34375 3.222656 11.277344 C 3.230469 11.167969 3.234375 11.054688 3.246094 10.945312 C 3.253906 10.867188 3.261719 10.792969 3.269531 10.71875 C 3.277344 10.621094 3.289062 10.523438 3.300781 10.425781 C 3.3125 10.347656 3.324219 10.265625 3.335938 10.183594 C 3.347656 10.09375 3.363281 10.007812 3.375 9.917969 C 3.390625 9.835938 3.40625 9.753906 3.421875 9.671875 C 3.4375 9.585938 3.457031 9.5 3.472656 9.414062 C 3.492188 9.332031 3.511719 9.253906 3.527344 9.171875 C 3.546875 9.085938 3.570312 9 3.589844 8.917969 C 3.613281 8.839844 3.632812 8.761719 3.65625 8.683594 C 3.679688 8.597656 3.703125 8.511719 3.730469 8.425781 C 3.753906 8.351562 3.777344 8.277344 3.800781 8.207031 C 3.828125 8.113281 3.859375 8.027344 3.890625 7.9375 C 3.914062 7.871094 3.9375 7.804688 3.960938 7.742188 C 4 7.640625 4.039062 7.539062 4.082031 7.4375 C 4.101562 7.390625 4.121094 7.339844 4.140625 7.289062 C 4.195312 7.160156 4.253906 7.035156 4.3125 6.910156 C 4.320312 6.886719 4.332031 6.867188 4.339844 6.847656 C 5.425781 4.558594 7.207031 2.769531 9.359375 1.859375 C 9.421875 1.835938 9.484375 1.8125 9.546875 1.789062 C 9.617188 1.757812 9.691406 1.726562 9.765625 1.703125 C 9.871094 1.664062 9.976562 1.628906 10.082031 1.59375 C 10.113281 1.585938 10.144531 1.574219 10.175781 1.5625 C 10.300781 1.527344 10.421875 1.492188 10.546875 1.460938 C 10.5625 1.457031 10.582031 1.453125 10.597656 1.445312 C 10.730469 1.414062 10.863281 1.386719 10.996094 1.359375 C 11.007812 1.355469 11.015625 1.355469 11.023438 1.351562 C 11.164062 1.328125 11.300781 1.304688 11.441406 1.285156 C 11.460938 1.28125 11.480469 1.277344 11.5 1.273438 L 11.65625 1.253906 C 11.96875 1.21875 12.28125 1.199219 12.601562 1.199219 C 13.980469 1.199219 15.316406 1.554688 16.53125 2.195312 C 16.65625 2.261719 16.777344 2.328125 16.898438 2.402344 Z M 19.199219 3.160156 L 19.199219 2.558594 C 19.199219 2.472656 19.273438 2.398438 19.359375 2.398438 L 20.640625 2.398438 C 20.726562 2.398438 20.800781 2.472656 20.800781 2.558594 L 20.800781 5.097656 C 20.773438 5.058594 20.746094 5.023438 20.71875 4.980469 C 20.6875 4.9375 20.65625 4.894531 20.628906 4.851562 C 20.558594 4.753906 20.492188 4.652344 20.421875 4.558594 C 20.359375 4.472656 20.292969 4.390625 20.226562 4.304688 C 20.195312 4.265625 20.167969 4.226562 20.136719 4.1875 C 20.09375 4.136719 20.054688 4.085938 20.015625 4.039062 C 19.921875 3.925781 19.828125 3.820312 19.730469 3.710938 C 19.695312 3.675781 19.664062 3.632812 19.628906 3.59375 C 19.613281 3.578125 19.597656 3.566406 19.582031 3.546875 C 19.476562 3.4375 19.371094 3.328125 19.261719 3.222656 C 19.242188 3.203125 19.222656 3.179688 19.199219 3.160156 Z M 19.199219 20.839844 C 19.222656 20.820312 19.242188 20.796875 19.261719 20.777344 C 19.371094 20.671875 19.476562 20.5625 19.582031 20.453125 C 19.597656 20.433594 19.613281 20.421875 19.628906 20.40625 C 19.664062 20.367188 19.695312 20.328125 19.730469 20.289062 C 19.828125 20.179688 19.921875 20.074219 20.015625 19.960938 C 20.054688 19.914062 20.09375 19.863281 20.136719 19.8125 C 20.167969 19.773438 20.195312 19.734375 20.226562 19.695312 C 20.292969 19.609375 20.359375 19.527344 20.421875 19.441406 C 20.492188 19.347656 20.558594 19.246094 20.628906 19.148438 C 20.65625 19.105469 20.6875 19.0625 20.71875 19.019531 C 20.746094 18.976562 20.773438 18.941406 20.800781 18.902344 L 20.800781 21.441406 C 20.800781 21.527344 20.726562 21.601562 20.640625 21.601562 L 19.359375 21.601562 C 19.273438 21.601562 19.199219 21.527344 19.199219 21.441406 Z M 1.972656 17.199219 L 3.488281 17.199219 C 3.550781 17.34375 3.613281 17.480469 3.679688 17.621094 C 3.710938 17.679688 3.742188 17.738281 3.769531 17.796875 C 3.851562 17.957031 3.9375 18.117188 4.027344 18.273438 C 4.058594 18.332031 4.089844 18.390625 4.125 18.445312 C 4.195312 18.566406 4.269531 18.683594 4.34375 18.800781 L 2.910156 18.800781 C 2.554688 18.300781 2.242188 17.765625 1.972656 17.199219 Z M 1.789062 7.199219 L 3.316406 7.199219 C 3.246094 7.375 3.179688 7.550781 3.117188 7.730469 C 3.101562 7.78125 3.085938 7.828125 3.066406 7.878906 C 3.007812 8.050781 2.957031 8.222656 2.90625 8.398438 L 1.34375 8.398438 C 1.46875 7.988281 1.617188 7.585938 1.789062 7.199219 Z M 3.210938 4.800781 L 4.609375 4.800781 C 4.5625 4.871094 4.511719 4.9375 4.464844 5.011719 C 4.347656 5.1875 4.234375 5.367188 4.125 5.554688 C 4.089844 5.609375 4.058594 5.667969 4.027344 5.726562 C 3.9375 5.882812 3.851562 6.042969 3.769531 6.203125 C 3.742188 6.261719 3.710938 6.320312 3.679688 6.378906 C 3.679688 6.386719 3.675781 6.394531 3.671875 6.398438 L 2.171875 6.398438 C 2.472656 5.828125 2.824219 5.296875 3.210938 4.800781 Z M 0.800781 12 C 0.800781 11.730469 0.8125 11.464844 0.832031 11.199219 L 2.425781 11.199219 C 2.425781 11.207031 2.425781 11.210938 2.425781 11.21875 C 2.410156 11.476562 2.398438 11.738281 2.398438 12 C 2.398438 12.132812 2.40625 12.265625 2.410156 12.398438 L 0.816406 12.398438 C 0.8125 12.265625 0.800781 12.136719 0.800781 12 Z M 2.453125 13.199219 C 2.46875 13.367188 2.488281 13.535156 2.511719 13.703125 C 2.511719 13.714844 2.511719 13.726562 2.515625 13.738281 C 2.542969 13.960938 2.582031 14.179688 2.621094 14.398438 L 1.042969 14.398438 C 0.964844 14.007812 0.902344 13.609375 0.863281 13.199219 Z M 2.703125 9.199219 C 2.691406 9.246094 2.683594 9.296875 2.671875 9.34375 C 2.664062 9.394531 2.652344 9.449219 2.640625 9.5 C 2.59375 9.75 2.546875 10.003906 2.515625 10.261719 C 2.511719 10.273438 2.511719 10.285156 2.511719 10.296875 C 2.507812 10.332031 2.503906 10.367188 2.5 10.398438 L 0.910156 10.398438 C 0.964844 9.992188 1.03125 9.589844 1.121094 9.199219 Z M 2.796875 15.199219 C 2.808594 15.25 2.820312 15.296875 2.835938 15.347656 C 2.839844 15.363281 2.84375 15.382812 2.847656 15.398438 C 2.914062 15.644531 2.988281 15.882812 3.066406 16.121094 C 3.085938 16.171875 3.101562 16.21875 3.121094 16.269531 C 3.132812 16.3125 3.148438 16.355469 3.164062 16.398438 L 1.625 16.398438 C 1.472656 16.011719 1.339844 15.609375 1.230469 15.199219 Z M 8.367188 1.449219 C 8.242188 1.515625 8.113281 1.585938 7.992188 1.65625 C 7.914062 1.699219 7.839844 1.742188 7.765625 1.789062 C 7.65625 1.855469 7.546875 1.929688 7.441406 2 L 6.667969 2 C 7.253906 1.726562 7.863281 1.511719 8.5 1.375 C 8.457031 1.398438 8.414062 1.425781 8.367188 1.449219 Z M 5.292969 2.800781 L 6.398438 2.800781 C 6.296875 2.886719 6.199219 2.972656 6.105469 3.0625 C 6.023438 3.140625 5.945312 3.21875 5.863281 3.300781 C 5.785156 3.378906 5.707031 3.457031 5.632812 3.539062 C 5.558594 3.621094 5.484375 3.699219 5.410156 3.78125 C 5.347656 3.851562 5.285156 3.925781 5.222656 4 L 3.902344 4 C 4.332031 3.554688 4.796875 3.152344 5.292969 2.800781 Z M 3.53125 19.601562 L 4.902344 19.601562 C 4.949219 19.660156 4.992188 19.71875 5.039062 19.777344 C 5.160156 19.929688 5.285156 20.078125 5.410156 20.21875 C 5.484375 20.300781 5.558594 20.382812 5.632812 20.460938 C 5.710938 20.542969 5.785156 20.621094 5.863281 20.699219 C 5.898438 20.734375 5.929688 20.769531 5.960938 20.800781 L 4.757812 20.800781 C 4.320312 20.441406 3.90625 20.039062 3.53125 19.601562 Z M 8.5 22.625 C 7.585938 22.429688 6.71875 22.074219 5.914062 21.601562 L 6.878906 21.601562 C 6.929688 21.636719 6.980469 21.675781 7.03125 21.710938 C 7.117188 21.777344 7.203125 21.839844 7.289062 21.898438 C 7.445312 22.007812 7.601562 22.113281 7.761719 22.210938 C 7.839844 22.257812 7.914062 22.300781 7.988281 22.34375 C 8.113281 22.414062 8.238281 22.484375 8.367188 22.550781 C 8.414062 22.574219 8.457031 22.601562 8.5 22.625 Z M 23.199219 21.738281 C 23.199219 22.542969 22.542969 23.199219 21.738281 23.199219 L 18.261719 23.199219 C 17.730469 23.199219 17.257812 22.914062 17.003906 22.464844 C 17.039062 22.445312 17.074219 22.421875 17.109375 22.402344 C 17.257812 22.320312 17.398438 22.230469 17.539062 22.140625 C 17.609375 22.097656 17.683594 22.054688 17.75 22.011719 C 17.976562 21.859375 18.195312 21.703125 18.410156 21.535156 C 18.457031 22.019531 18.863281 22.398438 19.359375 22.398438 L 20.640625 22.398438 C 21.171875 22.398438 21.601562 21.96875 21.601562 21.441406 L 21.601562 2.558594 C 21.601562 2.03125 21.171875 1.601562 20.640625 1.601562 L 19.359375 1.601562 C 18.863281 1.601562 18.457031 1.980469 18.410156 2.464844 C 18.195312 2.296875 17.976562 2.140625 17.75 1.988281 C 17.683594 1.945312 17.609375 1.902344 17.539062 1.859375 C 17.398438 1.769531 17.257812 1.679688 17.109375 1.597656 C 17.074219 1.578125 17.039062 1.554688 17.003906 1.535156 C 17.257812 1.085938 17.730469 0.800781 18.261719 0.800781 L 21.738281 0.800781 C 22.542969 0.800781 23.199219 1.457031 23.199219 2.261719 Z M 23.199219 21.738281"/>
</svg>
