<svg xmlns="http://www.w3.org/2000/svg" width="32" height="32" viewBox="0 0 24 24">
    <path d="M 23.675781 5.605469 L 22 2.703125 L 22 1.199219 C 22 1.171875 21.988281 1.144531 21.984375 1.117188 C 21.976562 1.089844 21.976562 1.066406 21.964844 1.042969 C 21.964844 1.039062 21.964844 1.039062 21.964844 1.039062 C 21.957031 1.019531 21.941406 1.007812 21.933594 0.992188 C 21.914062 0.964844 21.902344 0.9375 21.878906 0.914062 C 21.859375 0.894531 21.835938 0.886719 21.8125 0.871094 C 21.792969 0.855469 21.773438 0.839844 21.75 0.832031 C 21.71875 0.820312 21.6875 0.816406 21.65625 0.8125 C 21.636719 0.808594 21.617188 0.800781 21.597656 0.800781 C 21.574219 0.800781 21.550781 0.8125 21.527344 0.816406 C 21.496094 0.820312 21.46875 0.824219 21.441406 0.832031 C 21.441406 0.835938 21.4375 0.835938 21.4375 0.835938 L 14.113281 4.066406 C 14.101562 4.046875 14.089844 4.027344 14.078125 4.003906 C 14.066406 3.984375 14.054688 3.96875 14.046875 3.949219 C 13.980469 3.847656 13.910156 3.746094 13.832031 3.652344 C 13.824219 3.644531 13.8125 3.632812 13.804688 3.621094 C 13.722656 3.527344 13.632812 3.4375 13.535156 3.359375 C 13.53125 3.355469 13.53125 3.351562 13.527344 3.351562 C 13.429688 3.269531 13.328125 3.199219 13.21875 3.136719 C 13.203125 3.128906 13.1875 3.117188 13.171875 3.109375 C 13.070312 3.050781 12.957031 3 12.84375 2.957031 C 12.824219 2.949219 12.800781 2.941406 12.78125 2.933594 C 12.667969 2.894531 12.546875 2.863281 12.425781 2.839844 C 12.417969 2.839844 12.410156 2.835938 12.398438 2.832031 L 12.398438 1.601562 C 12.398438 1.378906 12.222656 1.199219 12 1.199219 C 11.777344 1.199219 11.601562 1.378906 11.601562 1.601562 L 11.601562 2.835938 C 10.464844 3.027344 9.601562 4.011719 9.601562 5.199219 C 9.601562 5.425781 9.632812 5.644531 9.691406 5.851562 L 2.25 8.828125 C 2.25 8.828125 2.25 8.832031 2.25 8.832031 C 2.210938 8.847656 2.175781 8.871094 2.144531 8.898438 C 2.136719 8.90625 2.125 8.910156 2.117188 8.917969 C 2.09375 8.9375 2.082031 8.96875 2.066406 8.992188 C 2.054688 9.011719 2.039062 9.023438 2.03125 9.042969 C 2.027344 9.054688 2.027344 9.070312 2.023438 9.082031 C 2.011719 9.117188 2 9.15625 2 9.195312 C 2 9.199219 2 9.199219 2 9.199219 L 2 10.785156 L 0.324219 13.6875 C 0.128906 14.023438 0.0273438 14.394531 0.0078125 14.765625 C 0.0078125 14.777344 0 14.785156 0 14.800781 C 0 14.804688 0.00390625 14.8125 0.00390625 14.816406 C -0.0078125 15.25 0.0976562 15.6875 0.324219 16.082031 C 0.757812 16.832031 1.535156 17.28125 2.398438 17.28125 C 3.265625 17.28125 4.042969 16.832031 4.476562 16.082031 C 4.703125 15.6875 4.808594 15.25 4.796875 14.816406 C 4.796875 14.8125 4.800781 14.804688 4.800781 14.800781 C 4.800781 14.785156 4.792969 14.777344 4.792969 14.765625 C 4.773438 14.394531 4.671875 14.023438 4.476562 13.6875 L 2.800781 10.785156 L 2.800781 9.472656 L 10.035156 6.578125 C 10.148438 6.734375 10.277344 6.875 10.421875 7.003906 C 10.421875 7.003906 10.421875 7.003906 10.425781 7.007812 C 10.5625 7.128906 10.714844 7.234375 10.878906 7.320312 C 10.898438 7.332031 10.917969 7.339844 10.941406 7.351562 C 10.996094 7.378906 11.054688 7.40625 11.113281 7.429688 C 11.144531 7.441406 11.175781 7.453125 11.207031 7.460938 C 11.257812 7.480469 11.3125 7.496094 11.367188 7.511719 C 11.398438 7.519531 11.429688 7.53125 11.464844 7.539062 C 11.507812 7.546875 11.554688 7.554688 11.601562 7.5625 L 11.601562 17.199219 L 9.199219 17.199219 L 9.199219 19.199219 C 7.214844 19.199219 5.601562 20.8125 5.601562 22.800781 L 5.601562 23.199219 L 18.398438 23.199219 L 18.398438 22.800781 C 18.398438 20.8125 16.785156 19.199219 14.800781 19.199219 L 14.800781 17.199219 L 12.398438 17.199219 L 12.398438 7.566406 C 12.410156 7.566406 12.417969 7.5625 12.425781 7.558594 C 12.546875 7.539062 12.667969 7.507812 12.78125 7.46875 C 12.804688 7.460938 12.824219 7.453125 12.84375 7.445312 C 12.957031 7.402344 13.070312 7.351562 13.175781 7.292969 C 13.191406 7.28125 13.203125 7.273438 13.21875 7.265625 C 13.328125 7.199219 13.433594 7.128906 13.527344 7.050781 C 13.53125 7.046875 13.535156 7.042969 13.535156 7.042969 C 13.632812 6.960938 13.722656 6.871094 13.804688 6.777344 C 13.8125 6.765625 13.824219 6.757812 13.832031 6.746094 C 13.910156 6.652344 13.980469 6.554688 14.046875 6.449219 C 14.058594 6.433594 14.066406 6.414062 14.078125 6.398438 C 14.136719 6.292969 14.191406 6.183594 14.234375 6.070312 C 14.242188 6.050781 14.25 6.03125 14.257812 6.011719 C 14.296875 5.894531 14.332031 5.773438 14.355469 5.652344 C 14.359375 5.636719 14.359375 5.617188 14.363281 5.601562 C 14.386719 5.472656 14.398438 5.335938 14.398438 5.199219 C 14.398438 5.074219 14.386719 4.953125 14.367188 4.832031 L 21.199219 1.8125 L 21.199219 2.703125 L 19.523438 5.605469 C 19.089844 6.355469 19.089844 7.25 19.523438 8 C 19.957031 8.75 20.734375 9.199219 21.597656 9.199219 C 22.464844 9.199219 23.242188 8.75 23.675781 8 C 24.109375 7.25 24.109375 6.355469 23.675781 5.605469 Z M 2.398438 16.480469 C 1.824219 16.480469 1.304688 16.183594 1.015625 15.683594 C 0.929688 15.53125 0.871094 15.367188 0.835938 15.199219 L 3.964844 15.199219 C 3.929688 15.367188 3.871094 15.53125 3.78125 15.683594 C 3.496094 16.183594 2.976562 16.480469 2.398438 16.480469 Z M 3.917969 14.398438 L 0.878906 14.398438 C 0.914062 14.292969 0.957031 14.1875 1.015625 14.085938 L 2.398438 11.691406 L 3.78125 14.085938 C 3.839844 14.1875 3.882812 14.292969 3.917969 14.398438 Z M 17.570312 22.398438 L 6.429688 22.398438 C 6.621094 21.042969 7.792969 20 9.199219 20 L 14.800781 20 C 16.207031 20 17.375 21.042969 17.570312 22.398438 Z M 14 19.199219 L 10 19.199219 L 10 18 L 14 18 Z M 12 3.601562 C 12.65625 3.601562 13.222656 4 13.46875 4.566406 L 13.515625 4.722656 C 13.542969 4.804688 13.5625 4.878906 13.574219 4.953125 C 13.585938 5.035156 13.597656 5.117188 13.597656 5.199219 C 13.597656 6.082031 12.882812 6.800781 12 6.800781 C 11.902344 6.800781 11.808594 6.789062 11.714844 6.769531 C 11.6875 6.765625 11.660156 6.761719 11.636719 6.753906 C 11.5625 6.738281 11.492188 6.714844 11.425781 6.6875 C 11.402344 6.679688 11.382812 6.675781 11.363281 6.667969 C 11.285156 6.632812 11.210938 6.589844 11.140625 6.546875 C 11.105469 6.523438 11.070312 6.496094 11.039062 6.472656 C 11.003906 6.445312 10.972656 6.417969 10.941406 6.390625 C 10.902344 6.355469 10.863281 6.320312 10.824219 6.28125 C 10.820312 6.273438 10.8125 6.261719 10.804688 6.253906 C 10.714844 6.148438 10.632812 6.03125 10.570312 5.898438 L 10.515625 5.792969 C 10.441406 5.609375 10.398438 5.410156 10.398438 5.199219 C 10.398438 4.316406 11.117188 3.601562 12 3.601562 Z M 21.597656 3.609375 L 22.980469 6.003906 C 23.054688 6.132812 23.109375 6.265625 23.144531 6.398438 L 20.054688 6.398438 C 20.089844 6.265625 20.144531 6.132812 20.214844 6.003906 Z M 21.597656 8.398438 C 21.023438 8.398438 20.503906 8.101562 20.214844 7.601562 C 20.140625 7.472656 20.085938 7.339844 20.050781 7.199219 L 23.148438 7.199219 C 23.109375 7.339844 23.054688 7.472656 22.980469 7.601562 C 22.695312 8.101562 22.175781 8.398438 21.597656 8.398438 Z M 21.597656 8.398438"/>
</svg>
