<svg xmlns="http://www.w3.org/2000/svg" width="32" height="32" viewBox="0 0 24 24">
    <path d="M15.464844 10.769531C15.3125 10.917969 15.226562 11.121094 15.226562 11.335938 15.222656 11.550781 15.308594 11.753906 15.460938 11.90625L15.957031 12.40625C16.085938 12.535156 16.246094 12.617188 16.414062 12.648438 16.449219 12.816406 16.527344 12.976562 16.65625 13.105469L17.089844 13.539062C17.257812 13.707031 17.484375 13.800781 17.722656 13.800781 17.960938 13.800781 18.1875 13.707031 18.355469 13.539062L21.898438 9.996094C22.246094 9.644531 22.246094 9.078125 21.898438 8.730469L21.464844 8.296875C21.335938 8.167969 21.175781 8.089844 21.011719 8.054688 20.976562 7.882812 20.890625 7.726562 20.765625 7.597656L20.265625 7.097656C20.117188 6.949219 19.910156 6.855469 19.695312 6.863281 19.480469 6.863281 19.285156 6.949219 19.136719 7.097656L15.167969 3.144531C15.324219 2.996094 15.410156 2.792969 15.410156 2.578125 15.414062 2.363281 15.328125 2.160156 15.175781 2.007812L14.679688 1.507812C14.554688 1.382812 14.390625 1.304688 14.222656 1.273438 14.191406 1.101562 14.109375.941406 13.976562.808594L13.546875.378906C13.210938.0390625 12.621094.0390625 12.28125.378906L8.738281 3.921875C8.570312 4.089844 8.476562 4.3125 8.476562 4.554688 8.476562 4.792969 8.570312 5.015625 8.738281 5.1875L9.167969 5.617188C9.296875 5.742188 9.453125 5.828125 9.625 5.863281 9.660156 6.035156 9.742188 6.191406 9.871094 6.316406L10.367188 6.816406C10.519531 6.964844 10.726562 7.050781 10.9375 7.050781 10.9375 7.050781 10.941406 7.050781 10.941406 7.050781 11.15625 7.050781 11.351562 6.96875 11.5 6.816406L12.136719 7.453125C12.253906 7.570312 12.253906 7.757812 12.136719 7.875L9.238281 10.777344 8.953125 10.492188C8.484375 10.023438 7.722656 10.023438 7.257812 10.492188 6.789062 10.960938 6.789062 11.722656 7.257812 12.191406L7.539062 12.472656 3.910156 16.101562C3.703125 16.3125 3.4375 16.460938 3.144531 16.535156L1.984375 16.824219C1.554688 16.933594 1.160156 17.15625.847656 17.46875L.714844 17.597656C.253906 18.0625 0 18.675781 0 19.328125 0 19.984375.253906 20.597656.71875 21.0625L1.214844 21.558594C1.675781 22.019531 2.292969 22.273438 2.945312 22.273438 3.597656 22.273438 4.214844 22.019531 4.675781 21.558594L4.808594 21.429688C5.121094 21.113281 5.34375 20.722656 5.453125 20.289062L5.742188 19.128906C5.8125 18.839844 5.964844 18.574219 6.175781 18.363281L9.800781 14.734375 10.085938 15.019531C10.539062 15.472656 11.328125 15.472656 11.78125 15.019531 12.007812 14.792969 12.132812 14.492188 12.132812 14.171875 12.132812 13.847656 12.007812 13.546875 11.78125 13.320312L11.5 13.039062 14.402344 10.136719C14.515625 10.023438 14.703125 10.023438 14.820312 10.136719zM21.359375 9.363281C21.359375 9.378906 21.355469 9.40625 21.332031 9.429688L17.789062 12.972656C17.742188 13.019531 17.703125 13.019531 17.65625 12.972656L17.222656 12.539062C17.1875 12.503906 17.1875 12.441406 17.222656 12.40625L20.765625 8.863281C20.785156 8.84375 20.808594 8.835938 20.832031 8.835938 20.859375 8.835938 20.882812 8.84375 20.902344 8.863281L21.332031 9.292969C21.355469 9.316406 21.359375 9.34375 21.359375 9.363281zM9.277344 4.554688C9.277344 4.535156 9.28125 4.507812 9.304688 4.484375L12.847656.945312C12.871094.921875 12.894531.917969 12.914062.917969 12.929688.917969 12.957031.921875 12.980469.945312L13.410156 1.375C13.449219 1.414062 13.449219 1.472656 13.410156 1.507812L9.871094 5.050781C9.832031 5.089844 9.773438 5.089844 9.734375 5.050781L9.304688 4.621094C9.28125 4.597656 9.277344 4.570312 9.277344 4.554688zM13.835938 9.570312L10.367188 13.039062 11.21875 13.886719C11.292969 13.960938 11.335938 14.0625 11.335938 14.171875 11.335938 14.277344 11.292969 14.378906 11.21875 14.453125 11.066406 14.605469 10.800781 14.605469 10.652344 14.453125L9.800781 13.605469 5.609375 17.796875C5.296875 18.109375 5.074219 18.503906 4.964844 18.933594L4.675781 20.097656C4.601562 20.386719 4.453125 20.652344 4.242188 20.863281L4.113281 20.992188C3.800781 21.304688 3.386719 21.476562 2.945312 21.476562 2.511719 21.476562 2.085938 21.300781 1.78125 20.992188L1.28125 20.496094C.972656 20.183594.800781 19.769531.800781 19.328125.800781 18.890625.972656 18.476562 1.28125 18.164062L1.414062 18.035156C1.625 17.824219 1.890625 17.671875 2.179688 17.601562L3.339844 17.308594C3.773438 17.203125 4.164062 16.980469 4.476562 16.664062L8.671875 12.472656 7.824219 11.625C7.667969 11.46875 7.667969 11.214844 7.824219 11.058594 7.902344 10.980469 8.003906 10.941406 8.105469 10.941406 8.207031 10.941406 8.308594 10.980469 8.390625 11.058594L9.238281 11.90625 12.703125 8.441406C13.132812 8.011719 13.132812 7.316406 12.703125 6.890625L12.066406 6.25C11.914062 6.097656 11.714844 6.015625 11.5 6.015625 11.5 6.015625 11.496094 6.015625 11.496094 6.015625 11.277344 6.015625 11.078125 6.101562 10.933594 6.25L10.4375 5.753906C10.414062 5.730469 10.40625 5.703125 10.40625 5.683594 10.40625 5.667969 10.414062 5.640625 10.4375 5.617188L13.976562 2.074219C14.023438 2.027344 14.066406 2.027344 14.113281 2.074219L14.609375 2.574219C14.460938 2.722656 14.375 2.917969 14.375 3.132812 14.375 3.34375 14.460938 3.554688 14.609375 3.707031L18.570312 7.664062C18.722656 7.816406 18.921875 7.898438 19.136719 7.898438 19.136719 7.898438 19.140625 7.898438 19.140625 7.898438 19.355469 7.898438 19.558594 7.8125 19.703125 7.664062L20.199219 8.164062C20.222656 8.1875 20.226562 8.210938 20.226562 8.230469 20.226562 8.25 20.222656 8.273438 20.199219 8.296875L16.65625 11.839844C16.621094 11.878906 16.5625 11.878906 16.523438 11.839844L16.027344 11.339844C16.175781 11.195312 16.261719 10.996094 16.261719 10.785156 16.261719 10.570312 16.175781 10.359375 16.027344 10.210938L15.386719 9.570312C14.957031 9.144531 14.261719 9.144531 13.835938 9.570312zM21.199219 20.675781L17.601562 20.675781C16.054688 20.675781 14.800781 21.933594 14.800781 23.476562L14.800781 23.875 24 23.875 24 23.476562C24 21.929688 22.742188 20.675781 21.199219 20.675781zM15.640625 23.074219C15.824219 22.164062 16.632812 21.476562 17.601562 21.476562L21.199219 21.476562C22.164062 21.476562 22.972656 22.164062 23.160156 23.074219zM16.800781 19.476562C16.578125 19.476562 16.398438 19.65625 16.398438 19.875 16.398438 20.097656 16.578125 20.277344 16.800781 20.277344L22 20.277344C22.222656 20.277344 22.398438 20.097656 22.398438 19.875 22.398438 19.65625 22.222656 19.476562 22 19.476562zM16.800781 19.476562"/>
</svg>
