<svg xmlns="http://www.w3.org/2000/svg" width="32" height="32" viewBox="0 0 24 24">
    <path d="M14.094 19.977a1.41 1.41 0 0 0-1.406 1.406c0 .777.632 1.41 1.406 1.41.777 0 1.41-.633 1.41-1.41 0-.774-.633-1.406-1.41-1.406zm0 2.011a.603.603 0 0 1 0-1.207.603.603 0 1 1 0 1.207zm0 0M5.46 8.535l1.423 1.422a.399.399 0 0 0 .566 0 .399.399 0 0 0 0-.57l-.883-.883a2.01 2.01 0 0 0 0-2.219l1.766-1.762a2.055 2.055 0 0 0 2.219 0l.883.883c.156.157.41.157.57 0a.406.406 0 0 0 0-.57l-1.426-1.422-.281.281c-.457.457-1.254.457-1.707 0l-.285-.28-2.848 2.843.285.285a1.205 1.205 0 0 1 0 1.707zm0 0M17.438 11.406a2.01 2.01 0 0 0 0 2.219l-1.766 1.766a2.055 2.055 0 0 0-2.219 0l-.883-.883a.4.4 0 0 0-.566 0 .399.399 0 0 0 0 .57l1.422 1.422.285-.285c.453-.453 1.25-.453 1.707 0l.285.285 2.844-2.844-.285-.285a1.212 1.212 0 0 1 0-1.707l.285-.285-1.422-1.422a.406.406 0 0 0-.57 0 .406.406 0 0 0 0 .57zm0 0M19.516 12.516a.402.402 0 1 1-.804 0 .402.402 0 0 1 .804 0zm0 0M14.965 17.07a.402.402 0 1 1-.804.001.402.402 0 0 1 .804 0zm0 0M9.727 3.129c.156-.156.304-.414.148-.57a.406.406 0 0 0-.57 0c-.157.16-.305.414-.149.57.16.156.414.156.57 0zm0 0M5.293 7.395a.402.402 0 1 1-.804 0 .402.402 0 0 1 .804 0zm0 0"/>
    <path d="M20.734 14.945c0-.351-.058-.699-.168-1.035l1.391-1.39-1.832-1.856c.379-.34.61-.824.61-1.351 0-.997-.813-1.81-1.813-1.81-.07 0-.145.009-.215.017.008-.07.016-.145.016-.22 0-.995-.813-1.808-1.813-1.808-.07 0-.144.008-.215.016.008-.07.016-.145.016-.219 0-.996-.813-1.809-1.813-1.809-.07 0-.144.008-.214.016.007-.07.015-.144.015-.219C14.7 2.23 14 1.47 13.035 1.47c-.523 0-1.055.226-1.426.57L9.594 0 2.043 7.395l3.719 3.718c-.2.29-.317.64-.317 1.016 0 .633.325 1.187.813 1.512a.664.664 0 0 0 .09.093l4.328 4.313v.723H9.87V24h10.461v-5.23h-.805v-1.22a3.39 3.39 0 0 0 1.207-2.605zM6.25 12.13c0-.262.105-.5.27-.68l.062-.058a1.037 1.037 0 0 1 .672-.266h4.023a1.007 1.007 0 0 1 .989 1.195 1.014 1.014 0 0 1-.895.805l-.117.012h-4c-.555 0-1.004-.45-1.004-1.008zm3.477-4.45a3.223 3.223 0 0 1 5.496 2.278 3.2 3.2 0 0 1-.946 2.277 3.19 3.19 0 0 1-1.445.829c.043-.07.082-.149.113-.227.004-.004.004-.008.004-.012.04-.094.07-.191.09-.289.008-.027.012-.05.02-.078a1.812 1.812 0 0 0-1.777-2.137H8.808a3.2 3.2 0 0 1 .918-2.64zM19.93 9.313a1 1 0 0 1-.371.778l-1.403-1.422c.188-.223.465-.36.766-.36.555 0 1.008.45 1.008 1.005zm-2.012-2.011c0 .3-.137.578-.36.765l-1.402-1.421c.188-.215.461-.348.754-.348.555 0 1.008.45 1.008 1.004zm-2.012-2.012c0 .293-.133.566-.344.754l-1.406-1.422c.188-.207.453-.336.742-.336.555 0 1.008.45 1.008 1.004zm-2.87-3.016c.593 0 .859.504.859 1.004a.99.99 0 0 1-.332.739l-1.387-1.403c.219-.199.547-.34.86-.34zm-3.45-1.136l1.57 1.59-.035.078 8.277 8.277.008-.004 1.418 1.438-6.254 6.254h-.015L9.727 13.94h1.55c.043 0 .082-.007.121-.011a4.034 4.034 0 0 0 3.45-1.129 4.001 4.001 0 0 0 1.18-2.844 4.027 4.027 0 0 0-6.871-2.844A4.001 4.001 0 0 0 8 10.32h-.746c-.106 0-.211.012-.313.032-.035.007-.066.011-.097.02-.078.019-.149.042-.223.07-.062.023-.121.05-.18.081-.027.016-.058.028-.09.043L3.189 7.398zm1.754 16.418c-.02-.016-.04-.028-.074-.055l-3.57-3.559h.894l4.828 4.829H11.48v-1.094zm-.664 5.64v-3.62h3.39c.055 0 .11.003.164.007l.332.332.22-.219a2.245 2.245 0 0 1 1.527 2.121v1.38zm8.851 0h-2.414v-1.379c0-.886-.383-1.683-.992-2.242h3.406zm-3.82-4.425l4.195-4.196a2.598 2.598 0 0 1-1.02 2.46l-.16.122v1.614zm0 0"/>
</svg>
