<svg xmlns="http://www.w3.org/2000/svg" width="32" height="32" viewBox="0 0 24 24">
    <path d="M23.972656 11.171875C23.566406 5.226562 18.777344.433594 12.828125.0273438L12.402344 0 12.402344 11.597656 24 11.597656zM13.203125 10.796875L13.203125.863281C14.179688.96875 15.125 1.203125 16.011719 1.546875 16.007812 1.5625 16 1.578125 16 1.597656 16 1.820312 16.179688 1.996094 16.402344 1.996094 16.527344 1.996094 16.632812 1.9375 16.707031 1.847656 19.097656 2.964844 21.035156 4.902344 22.152344 7.292969 22.0625 7.367188 22.003906 7.472656 22.003906 7.597656 22.003906 7.820312 22.179688 8 22.402344 8 22.421875 8 22.4375 7.992188 22.453125 7.988281 22.796875 8.875 23.03125 9.820312 23.136719 10.796875zM20.539062 20.4375L20.820312 20.132812C22.667969 18.128906 23.785156 15.535156 23.972656 12.824219L24 12.398438 12.5 12.398438zM17.601562 13.199219L23.136719 13.199219C23.046875 14.035156 22.859375 14.859375 22.585938 15.648438 22.53125 15.621094 22.46875 15.597656 22.402344 15.597656 22.183594 15.597656 22.003906 15.777344 22.003906 16 22.003906 16.183594 22.132812 16.335938 22.304688 16.378906 21.855469 17.425781 21.253906 18.40625 20.507812 19.277344L20.027344 18.796875C20.234375 18.78125 20.402344 18.613281 20.402344 18.398438 20.402344 18.179688 20.222656 18 20.003906 18 19.789062 18 19.621094 18.167969 19.605469 18.375L18.824219 17.59375C19.035156 17.582031 19.203125 17.414062 19.203125 17.199219 19.203125 16.976562 19.023438 16.800781 18.800781 16.800781 18.589844 16.800781 18.417969 16.964844 18.40625 17.175781L17.625 16.394531C17.835938 16.382812 18 16.210938 18 16 18 15.777344 17.824219 15.597656 17.601562 15.597656 17.390625 15.597656 17.21875 15.765625 17.207031 15.976562L16.425781 15.195312C16.632812 15.179688 16.800781 15.011719 16.800781 14.800781 16.800781 14.578125 16.621094 14.398438 16.402344 14.398438 16.1875 14.398438 16.019531 14.566406 16.007812 14.777344L15.226562 13.996094C15.433594 13.980469 15.601562 13.8125 15.601562 13.597656 15.601562 13.378906 15.421875 13.199219 15.203125 13.199219 14.988281 13.199219 14.820312 13.367188 14.804688 13.574219L14.429688 13.199219zM17.601562 13.199219"/>
    <path d="M11.601562 0L11.175781.0273438C4.90625.457031 0 5.714844 0 12 0 18.617188 5.382812 24 12 24 14.773438 24 17.476562 23.03125 19.617188 21.269531L19.957031 20.988281 11.601562 12.632812zM18.761719 20.925781C16.824219 22.394531 14.441406 23.199219 12 23.199219 5.824219 23.199219.800781 18.175781.800781 12 .800781 6.277344 5.160156 1.46875 10.800781.863281L10.800781 12.964844zM14.402344 1.597656C14.402344 1.820312 14.222656 1.996094 14 1.996094 13.78125 1.996094 13.601562 1.820312 13.601562 1.597656 13.601562 1.375 13.78125 1.199219 14 1.199219 14.222656 1.199219 14.402344 1.375 14.402344 1.597656zM14.402344 3.996094C14.402344 4.21875 14.222656 4.398438 14 4.398438 13.78125 4.398438 13.601562 4.21875 13.601562 3.996094 13.601562 3.777344 13.78125 3.597656 14 3.597656 14.222656 3.597656 14.402344 3.777344 14.402344 3.996094zM15.601562 2.796875C15.601562 3.019531 15.421875 3.199219 15.203125 3.199219 14.980469 3.199219 14.800781 3.019531 14.800781 2.796875 14.800781 2.578125 14.980469 2.398438 15.203125 2.398438 15.421875 2.398438 15.601562 2.578125 15.601562 2.796875zM18 2.796875C18 3.019531 17.824219 3.199219 17.601562 3.199219 17.378906 3.199219 17.203125 3.019531 17.203125 2.796875 17.203125 2.578125 17.378906 2.398438 17.601562 2.398438 17.824219 2.398438 18 2.578125 18 2.796875zM16.800781 3.996094C16.800781 4.21875 16.621094 4.398438 16.402344 4.398438 16.179688 4.398438 16 4.21875 16 3.996094 16 3.777344 16.179688 3.597656 16.402344 3.597656 16.621094 3.597656 16.800781 3.777344 16.800781 3.996094zM19.203125 3.996094C19.203125 4.21875 19.023438 4.398438 18.800781 4.398438 18.582031 4.398438 18.402344 4.21875 18.402344 3.996094 18.402344 3.777344 18.582031 3.597656 18.800781 3.597656 19.023438 3.597656 19.203125 3.777344 19.203125 3.996094zM20.402344 5.199219C20.402344 5.417969 20.222656 5.597656 20.003906 5.597656 19.78125 5.597656 19.601562 5.417969 19.601562 5.199219 19.601562 4.976562 19.78125 4.796875 20.003906 4.796875 20.222656 4.796875 20.402344 4.976562 20.402344 5.199219zM15.601562 5.199219C15.601562 5.417969 15.421875 5.597656 15.203125 5.597656 14.980469 5.597656 14.800781 5.417969 14.800781 5.199219 14.800781 4.976562 14.980469 4.796875 15.203125 4.796875 15.421875 4.796875 15.601562 4.976562 15.601562 5.199219zM18 5.199219C18 5.417969 17.824219 5.597656 17.601562 5.597656 17.378906 5.597656 17.203125 5.417969 17.203125 5.199219 17.203125 4.976562 17.378906 4.796875 17.601562 4.796875 17.824219 4.796875 18 4.976562 18 5.199219zM20.402344 7.597656C20.402344 7.820312 20.222656 8 20.003906 8 19.78125 8 19.601562 7.820312 19.601562 7.597656 19.601562 7.378906 19.78125 7.199219 20.003906 7.199219 20.222656 7.199219 20.402344 7.378906 20.402344 7.597656zM21.601562 6.398438C21.601562 6.621094 21.421875 6.796875 21.203125 6.796875 20.980469 6.796875 20.800781 6.621094 20.800781 6.398438 20.800781 6.175781 20.980469 6 21.203125 6 21.421875 6 21.601562 6.175781 21.601562 6.398438zM21.601562 8.796875C21.601562 9.019531 21.421875 9.199219 21.203125 9.199219 20.980469 9.199219 20.800781 9.019531 20.800781 8.796875 20.800781 8.578125 20.980469 8.398438 21.203125 8.398438 21.421875 8.398438 21.601562 8.578125 21.601562 8.796875zM21.601562 8.796875"/>
    <path d="M14.402344 6.398438C14.402344 6.621094 14.222656 6.796875 14 6.796875 13.78125 6.796875 13.601562 6.621094 13.601562 6.398438 13.601562 6.175781 13.78125 6 14 6 14.222656 6 14.402344 6.175781 14.402344 6.398438zM14.402344 8.796875C14.402344 9.019531 14.222656 9.199219 14 9.199219 13.78125 9.199219 13.601562 9.019531 13.601562 8.796875 13.601562 8.578125 13.78125 8.398438 14 8.398438 14.222656 8.398438 14.402344 8.578125 14.402344 8.796875zM15.601562 7.597656C15.601562 7.820312 15.421875 8 15.203125 8 14.980469 8 14.800781 7.820312 14.800781 7.597656 14.800781 7.378906 14.980469 7.199219 15.203125 7.199219 15.421875 7.199219 15.601562 7.378906 15.601562 7.597656zM18 7.597656C18 7.820312 17.824219 8 17.601562 8 17.378906 8 17.203125 7.820312 17.203125 7.597656 17.203125 7.378906 17.378906 7.199219 17.601562 7.199219 17.824219 7.199219 18 7.378906 18 7.597656zM16.800781 6.398438C16.800781 6.621094 16.621094 6.796875 16.402344 6.796875 16.179688 6.796875 16 6.621094 16 6.398438 16 6.175781 16.179688 6 16.402344 6 16.621094 6 16.800781 6.175781 16.800781 6.398438zM19.203125 6.398438C19.203125 6.621094 19.023438 6.796875 18.800781 6.796875 18.582031 6.796875 18.402344 6.621094 18.402344 6.398438 18.402344 6.175781 18.582031 6 18.800781 6 19.023438 6 19.203125 6.175781 19.203125 6.398438zM16.800781 8.796875C16.800781 9.019531 16.621094 9.199219 16.402344 9.199219 16.179688 9.199219 16 9.019531 16 8.796875 16 8.578125 16.179688 8.398438 16.402344 8.398438 16.621094 8.398438 16.800781 8.578125 16.800781 8.796875zM19.203125 8.796875C19.203125 9.019531 19.023438 9.199219 18.800781 9.199219 18.582031 9.199219 18.402344 9.019531 18.402344 8.796875 18.402344 8.578125 18.582031 8.398438 18.800781 8.398438 19.023438 8.398438 19.203125 8.578125 19.203125 8.796875zM22.800781 10C22.800781 10.21875 22.625 10.398438 22.402344 10.398438 22.179688 10.398438 22.003906 10.21875 22.003906 10 22.003906 9.777344 22.179688 9.597656 22.402344 9.597656 22.625 9.597656 22.800781 9.777344 22.800781 10zM20.402344 10C20.402344 10.21875 20.222656 10.398438 20.003906 10.398438 19.78125 10.398438 19.601562 10.21875 19.601562 10 19.601562 9.777344 19.78125 9.597656 20.003906 9.597656 20.222656 9.597656 20.402344 9.777344 20.402344 10zM15.601562 10C15.601562 10.21875 15.421875 10.398438 15.203125 10.398438 14.980469 10.398438 14.800781 10.21875 14.800781 10 14.800781 9.777344 14.980469 9.597656 15.203125 9.597656 15.421875 9.597656 15.601562 9.777344 15.601562 10zM18 10C18 10.21875 17.824219 10.398438 17.601562 10.398438 17.378906 10.398438 17.203125 10.21875 17.203125 10 17.203125 9.777344 17.378906 9.597656 17.601562 9.597656 17.824219 9.597656 18 9.777344 18 10zM20.402344 16C20.402344 16.21875 20.222656 16.398438 20.003906 16.398438 19.78125 16.398438 19.601562 16.21875 19.601562 16 19.601562 15.777344 19.78125 15.597656 20.003906 15.597656 20.222656 15.597656 20.402344 15.777344 20.402344 16zM21.601562 17.199219C21.601562 17.421875 21.421875 17.597656 21.203125 17.597656 20.980469 17.597656 20.800781 17.421875 20.800781 17.199219 20.800781 16.976562 20.980469 16.800781 21.203125 16.800781 21.421875 16.800781 21.601562 16.976562 21.601562 17.199219zM21.601562 14.800781C21.601562 15.019531 21.421875 15.199219 21.203125 15.199219 20.980469 15.199219 20.800781 15.019531 20.800781 14.800781 20.800781 14.578125 20.980469 14.398438 21.203125 14.398438 21.421875 14.398438 21.601562 14.578125 21.601562 14.800781zM19.203125 14.800781C19.203125 15.019531 19.023438 15.199219 18.800781 15.199219 18.582031 15.199219 18.402344 15.019531 18.402344 14.800781 18.402344 14.578125 18.582031 14.398438 18.800781 14.398438 19.023438 14.398438 19.203125 14.578125 19.203125 14.800781zM18 13.597656C18 13.820312 17.824219 14 17.601562 14 17.378906 14 17.203125 13.820312 17.203125 13.597656 17.203125 13.378906 17.378906 13.199219 17.601562 13.199219 17.824219 13.199219 18 13.378906 18 13.597656zM22.800781 13.597656C22.800781 13.820312 22.625 14 22.402344 14 22.179688 14 22.003906 13.820312 22.003906 13.597656 22.003906 13.378906 22.179688 13.199219 22.402344 13.199219 22.625 13.199219 22.800781 13.378906 22.800781 13.597656zM20.402344 13.597656C20.402344 13.820312 20.222656 14 20.003906 14 19.78125 14 19.601562 13.820312 19.601562 13.597656 19.601562 13.378906 19.78125 13.199219 20.003906 13.199219 20.222656 13.199219 20.402344 13.378906 20.402344 13.597656zM20.402344 13.597656"/>
</svg>
