<svg xmlns="http://www.w3.org/2000/svg" width="32" height="32" viewBox="0 0 24 24">
    <path d="M23.941 11.172C23.535 5.234 18.75.449 12.813.043l-.426-.027v11.582h11.582zM13.184 10.8V.879c.988.105 1.941.344 2.836.691 0 .016-.008.028-.008.04 0 .222.18.402.398.402a.408.408 0 0 0 .3-.14 11.271 11.271 0 0 1 4.774 4.25.393.393 0 0 0-.277-.118.401.401 0 1 0 .398.402.432.432 0 0 0-.027-.144c.203.34.387.691.555 1.054a.386.386 0 0 0-.13.29c0 .218.18.398.403.398.008 0 .016-.004.024-.004.34.887.574 1.824.675 2.8zm0 0M12.512 12.398l8.031 8.032.281-.309c1.844-2 2.961-4.59 3.149-7.297l.027-.426zm8 6.872l-6.07-6.07h8.695a11.208 11.208 0 0 1-2.625 6.07zm0 0"/>
    <path d="M14.414 1.61a.401.401 0 1 1-.802.002.401.401 0 0 1 .802-.003zm0 0M14.414 4.008c0 .222-.18.398-.398.398a.398.398 0 1 1 0-.797.4.4 0 0 1 .398.399zm0 0M15.613 2.809a.401.401 0 1 1 0 0zm0 0M18.008 2.809a.398.398 0 1 1-.797 0 .398.398 0 1 1 .797 0zm0 0M16.813 4.008c0 .222-.18.398-.403.398a.398.398 0 1 1 0-.797c.223 0 .402.18.402.399zm0 0M19.207 4.008c0 .222-.18.398-.398.398a.395.395 0 0 1-.399-.398.398.398 0 1 1 .797 0zm0 0M20.406 5.207a.398.398 0 1 1-.797 0c0-.223.176-.398.399-.398.219 0 .398.175.398.398zm0 0M15.613 5.207a.401.401 0 0 1-.8 0c0-.223.18-.398.398-.398.223 0 .402.175.402.398zm0 0M18.008 5.207a.398.398 0 1 1-.797 0c0-.223.18-.398.398-.398.223 0 .399.175.399.398zm0 0M20.406 7.605a.398.398 0 1 1-.797 0 .398.398 0 1 1 .797 0zm0 0M21.605 8.8a.401.401 0 1 1-.801.004.401.401 0 0 1 .801-.003zm0 0M14.414 6.406a.4.4 0 1 1-.8-.003.4.4 0 0 1 .8.003zm0 0M14.414 8.8a.401.401 0 1 1-.802.004.401.401 0 0 1 .802-.003zm0 0M15.613 7.605a.401.401 0 1 1-.802-.005.401.401 0 0 1 .802.005zm0 0M18.008 7.605a.398.398 0 1 1-.797 0 .398.398 0 0 1 .797 0zm0 0M16.813 6.406a.401.401 0 1 1-.802-.005.401.401 0 0 1 .802.005zm0 0M19.207 6.406a.398.398 0 1 1-.797 0 .398.398 0 1 1 .797 0zm0 0M16.813 8.8a.401.401 0 1 1 0 0zm0 0M19.207 8.8a.398.398 0 0 1-.797 0 .398.398 0 1 1 .797 0zm0 0M22.805 10a.401.401 0 1 1 0 0zm0 0M20.406 10a.398.398 0 0 1-.797 0 .398.398 0 1 1 .797 0zm0 0M15.613 10a.401.401 0 1 1 0 0zm0 0M18.008 10a.398.398 0 1 1-.797 0 .398.398 0 1 1 .797 0zm0 0M11.586.016l-.426.027C4.902.473 0 5.723 0 12c0 2.89 1.047 5.684 2.95 7.867l.28.324 8.356-8.359zm-.797 11.488l-7.512 7.512A11.172 11.172 0 0 1 .801 12C.8 6.285 5.152 1.48 10.789.879zm0 0M3.793 20.754l.324.281a11.975 11.975 0 0 0 7.867 2.95c2.77 0 5.47-.97 7.61-2.727l.34-.281-8.184-8.18zm7.957-6.824l.441.437-6.714 6.715c-.172-.121-.344-.242-.508-.371zm-3.281 8.68c-.278-.09-.551-.196-.82-.31l6.238-6.238.566.567zm6.547-5.419l.566.567-5.293 5.293c-.316-.051-.633-.113-.941-.188zm-8.137 4.75a13.196 13.196 0 0 1-.723-.41l6.602-6.597.562.562zm4.434 1.215l4.835-4.832.563.563-4.277 4.281c-.149.004-.297.02-.45.02-.222 0-.449-.016-.671-.032zm5.964-3.703l.567.567-2.703 2.699c-.48.144-.97.258-1.461.332zm-.273 2.531l1.402-1.402.332.332c-.547.414-1.129.766-1.734 1.07zm0 0"/>
</svg>
