<svg xmlns="http://www.w3.org/2000/svg" width="32" height="32" viewBox="0 0 24 24">
    <path d="M10 2c0 .223-.18.398-.398.398a.398.398 0 1 1 0-.796c.218 0 .398.175.398.398zm0 0M11.2 3.2a.401.401 0 1 1-.803.002.401.401 0 0 1 .802-.003zm0 0M8.8 3.2a.401.401 0 1 1 0 0zm0 0M6.398 3.2a.398.398 0 1 1-.796 0 .398.398 0 1 1 .796 0zm0 0M10 4.398a.401.401 0 1 1-.802.003.401.401 0 0 1 .802-.003zm0 0M7.602 4.398a.401.401 0 1 1 0 0zm0 0M5.2 4.398a.401.401 0 1 1-.803.003.401.401 0 0 1 .802-.003zm0 0M10 6.8a.4.4 0 1 1-.8-.003.4.4 0 0 1 .8.004zm0 0M11.2 5.602a.4.4 0 1 1-.801-.004.4.4 0 0 1 .8.004zm0 0M11.2 8c0 .223-.18.398-.4.398a.398.398 0 1 1 0-.796c.22 0 .4.175.4.398zm0 0M7.602 6.8a.401.401 0 1 1-.802-.004.401.401 0 0 1 .802.005zm0 0M8.8 5.602A.401.401 0 1 1 8 5.597a.401.401 0 0 1 .802.005zm0 0M8.8 8c0 .223-.179.398-.402.398a.398.398 0 1 1 0-.796c.223 0 .403.175.403.398zm0 0M5.2 6.8a.4.4 0 1 1-.801-.003.4.4 0 0 1 .8.004zm0 0M4 5.602a.4.4 0 1 1-.8-.004.4.4 0 0 1 .8.004zm0 0M6.398 5.602a.398.398 0 1 1-.796 0 .398.398 0 1 1 .796 0zm0 0M4 8c0 .223-.18.398-.398.398a.398.398 0 1 1 0-.796C3.82 7.602 4 7.777 4 8zm0 0M6.398 8A.395.395 0 0 1 6 8.398.395.395 0 0 1 5.602 8c0-.223.175-.398.398-.398.223 0 .398.175.398.398zm0 0M10 9.2a.401.401 0 1 1-.802.002.401.401 0 0 1 .802-.003zm0 0M7.602 9.2a.401.401 0 1 1 0 0zm0 0M2.8 9.2a.401.401 0 1 1 0 0zm0 0M5.2 9.2a.401.401 0 1 1-.803.002.401.401 0 0 1 .802-.003zm0 0M10 11.602a.4.4 0 1 1-.8-.004.4.4 0 0 1 .8.004zm0 0M11.2 10.398a.401.401 0 1 1-.803.003.401.401 0 0 1 .802-.003zm0 0M11.2 12.8a.4.4 0 1 1-.801-.003.4.4 0 0 1 .8.004zm0 0M7.602 11.602a.401.401 0 1 1-.802-.005.401.401 0 0 1 .802.005zm0 0M8.8 10.398a.401.401 0 1 1 0 0zm0 0M8.8 12.8A.401.401 0 1 1 8 12.797a.401.401 0 0 1 .802.005zm0 0M2.8 11.602A.401.401 0 1 1 2 11.597a.401.401 0 0 1 .802.005zm0 0M5.2 11.602a.4.4 0 1 1-.801-.004.4.4 0 0 1 .8.004zm0 0M4 10.398a.401.401 0 1 1-.802.003.401.401 0 0 1 .802-.003zm0 0M6.398 10.398a.398.398 0 1 1-.796 0 .398.398 0 1 1 .796 0zm0 0M4 12.8a.4.4 0 1 1-.8-.003.4.4 0 0 1 .8.004zm0 0M6.398 12.8a.398.398 0 1 1-.796 0 .398.398 0 1 1 .796 0zm0 0M20.8 12.8a.401.401 0 1 1-.801-.004.401.401 0 0 1 .802.005zm0 0M13.602 12.8a.401.401 0 1 1-.802-.004.401.401 0 0 1 .802.005zm0 0M10 14c0 .223-.18.398-.398.398a.398.398 0 1 1 0-.796c.218 0 .398.175.398.398zm0 0M12.398 14a.395.395 0 0 1-.398.398.395.395 0 0 1-.398-.398c0-.223.175-.398.398-.398.223 0 .398.175.398.398zm0 0M7.602 14c0 .223-.18.398-.403.398a.398.398 0 1 1 0-.796c.223 0 .403.175.403.398zm0 0M2.8 14c0 .223-.179.398-.402.398a.398.398 0 1 1 0-.796c.223 0 .403.175.403.398zm0 0M5.2 14c0 .223-.18.398-.4.398a.398.398 0 1 1 0-.796c.22 0 .4.175.4.398zm0 0M22 14c0 .223-.18.398-.398.398a.398.398 0 1 1 0-.796c.218 0 .398.175.398.398zm0 0M19.602 14c0 .223-.18.398-.403.398a.398.398 0 1 1 0-.796c.223 0 .403.175.403.398zm0 0M14.8 14c0 .223-.179.398-.402.398a.398.398 0 1 1 0-.796c.223 0 .403.175.403.398zm0 0M17.2 14c0 .223-.18.398-.4.398a.398.398 0 1 1 0-.796c.22 0 .4.175.4.398zm0 0M16 12.8a.4.4 0 1 1-.8-.003.4.4 0 0 1 .8.004zm0 0M18.398 12.8a.398.398 0 1 1-.796 0 .398.398 0 1 1 .796 0zm0 0M10 16.398a.401.401 0 1 1-.802.003.401.401 0 0 1 .802-.003zm0 0M11.2 15.2a.401.401 0 1 1-.803.002.401.401 0 0 1 .802-.003zm0 0M11.2 17.602a.4.4 0 1 1-.801-.004.4.4 0 0 1 .8.004zm0 0M12.398 16.398a.398.398 0 1 1-.796 0 .398.398 0 1 1 .796 0zm0 0M7.602 16.398a.401.401 0 1 1 0 0zm0 0M8.8 15.2a.401.401 0 1 1 0 0zm0 0M8.8 17.602A.401.401 0 1 1 8 17.597a.401.401 0 0 1 .802.005zm0 0M2.8 16.398a.401.401 0 1 1 0 0zm0 0M5.2 16.398a.401.401 0 1 1-.803.003.401.401 0 0 1 .802-.003zm0 0M4 15.2a.401.401 0 1 1-.802.002.401.401 0 0 1 .802-.003zm0 0M6.398 15.2a.398.398 0 1 1-.796 0 .398.398 0 1 1 .796 0zm0 0M4 17.602a.4.4 0 1 1-.8-.004.4.4 0 0 1 .8.004zm0 0M6.398 17.602a.398.398 0 1 1-.796 0 .398.398 0 1 1 .796 0zm0 0M22 16.398a.401.401 0 1 1-.802.003.401.401 0 0 1 .802-.003zm0 0M19.602 16.398a.401.401 0 1 1 0 0zm0 0M20.8 15.2a.401.401 0 1 1 0 0zm0 0M20.8 17.602a.401.401 0 1 1-.801-.005.401.401 0 0 1 .802.005zm0 0M13.602 15.2a.401.401 0 1 1 0 0zm0 0M13.602 17.602a.401.401 0 1 1-.802-.005.401.401 0 0 1 .802.005zm0 0M14.8 16.398a.401.401 0 1 1 0 0zm0 0M17.2 16.398a.401.401 0 1 1-.803.003.401.401 0 0 1 .802-.003zm0 0M10 18.8a.4.4 0 1 1-.8-.003.4.4 0 0 1 .8.004zm0 0M12.398 18.8a.398.398 0 1 1-.796 0 .398.398 0 1 1 .796 0zm0 0M7.602 18.8a.401.401 0 1 1-.802-.004.401.401 0 0 1 .802.005zm0 0M5.2 18.8a.4.4 0 1 1-.801-.003.4.4 0 0 1 .8.004zm0 0M19.602 18.8a.401.401 0 1 1-.802-.004.401.401 0 0 1 .802.005zm0 0M14.8 18.8a.401.401 0 1 1-.801-.004.401.401 0 0 1 .802.005zm0 0M17.2 18.8a.4.4 0 1 1-.801-.003.4.4 0 0 1 .8.004zm0 0M16 15.2a.401.401 0 1 1-.802.002.401.401 0 0 1 .802-.003zm0 0M18.398 15.2a.398.398 0 1 1-.796 0 .398.398 0 1 1 .796 0zm0 0M16 17.602a.4.4 0 1 1-.8-.004.4.4 0 0 1 .8.004zm0 0M18.398 17.602a.398.398 0 1 1-.796 0 .398.398 0 1 1 .796 0zm0 0M10 21.2a.401.401 0 1 1-.802.002.401.401 0 0 1 .802-.003zm0 0M11.2 20c0 .223-.18.398-.4.398a.398.398 0 1 1 0-.796c.22 0 .4.175.4.398zm0 0M11.2 22.398a.401.401 0 1 1-.803.003.401.401 0 0 1 .802-.003zm0 0M12.398 21.2a.398.398 0 1 1-.796 0 .398.398 0 1 1 .796 0zm0 0M7.602 21.2a.401.401 0 1 1 0 0zm0 0M8.8 20c0 .223-.179.398-.402.398a.398.398 0 1 1 0-.796c.223 0 .403.175.403.398zm0 0M6.398 20a.395.395 0 0 1-.398.398.395.395 0 0 1-.398-.398c0-.223.175-.398.398-.398.223 0 .398.175.398.398zm0 0"/>
    <path d="M20.71 20.238A11.958 11.958 0 0 0 24 12c0-6.617-5.383-12-12-12S0 5.383 0 12c0 3.188 1.254 6.086 3.29 8.238a.34.34 0 0 0 .062.067A11.951 11.951 0 0 0 12 24c3.395 0 6.465-1.418 8.648-3.695a.34.34 0 0 0 .063-.067zm2.481-8.636H12.398V.809c5.86.207 10.586 4.933 10.793 10.793zm-7.203 10.863c.004-.024.012-.043.012-.067a.4.4 0 0 0-.8 0c0 .118.054.223.132.297A11.17 11.17 0 0 1 12 23.2a11.17 11.17 0 0 1-3.332-.504.413.413 0 0 0 .133-.297.401.401 0 0 0-.801 0c0 .024.008.043.012.067a11.258 11.258 0 0 1-6.633-6.914.397.397 0 0 0 .223-.352.401.401 0 0 0-.403-.398c-.015 0-.027.008-.043.008a11.36 11.36 0 0 1-.312-1.832c.066.132.199.222.355.222a.401.401 0 1 0 0-.8.394.394 0 0 0-.375.289C.81 12.457.801 12.23.801 12c0-.46.031-.914.086-1.363.07.097.183.164.312.164a.401.401 0 0 0 0-.8.403.403 0 0 0-.23.081c.105-.602.258-1.191.453-1.758A.397.397 0 0 0 1.602 8a.275.275 0 0 0-.024-.098c.133-.336.281-.664.445-.984.051.164.2.281.375.281a.401.401 0 1 0 0-.8.342.342 0 0 0-.105.023 11.259 11.259 0 0 1 4.523-4.344c.036.18.192.32.383.32A.398.398 0 0 0 7.602 2a.394.394 0 0 0-.098-.254 11.094 11.094 0 0 1 2.918-.832c.05.164.2.285.379.285.207 0 .375-.16.394-.367l.407-.023v11.59h11.59a7.16 7.16 0 0 1-.016.289.394.394 0 0 0-.375-.29.401.401 0 0 0 0 .8c.156.001.289-.089.355-.221a11.36 11.36 0 0 1-.312 1.832c-.016 0-.028-.008-.043-.008a.401.401 0 0 0-.403.398c0 .156.094.285.223.352a11.258 11.258 0 0 1-6.633 6.914zm0 0"/>
    <path d="M13.602 20c0 .223-.18.398-.403.398a.398.398 0 1 1 0-.796c.223 0 .403.175.403.398zm0 0M13.602 22.398a.401.401 0 1 1 0 0zm0 0M14.8 21.2a.401.401 0 1 1 0 0zm0 0M17.2 21.2a.401.401 0 1 1-.803.002.401.401 0 0 1 .802-.003zm0 0M16 20c0 .223-.18.398-.398.398a.398.398 0 1 1 0-.796c.218 0 .398.175.398.398zm0 0M18.398 20a.395.395 0 0 1-.398.398.395.395 0 0 1-.398-.398c0-.223.175-.398.398-.398.223 0 .398.175.398.398zm0 0"/>
</svg>
