<svg xmlns="http://www.w3.org/2000/svg" width="32" height="32" viewBox="0 0 24 24">
    <path d="M23.973 11.172C23.566 5.227 18.777.434 12.828.027L12.402 0v11.598H24zm-10.77-.375V.863c.977.106 1.922.34 2.809.684-.004.016-.012.031-.012.05a.398.398 0 0 0 .707.25 11.314 11.314 0 0 1 5.445 5.446.398.398 0 0 0 .25.707c.02 0 .035-.008.051-.012.344.887.578 1.832.684 2.809zm0 0M20.54 20.438l.28-.305a12.042 12.042 0 0 0 3.153-7.309l.027-.426H12.5zm-2.938-7.239h5.535c-.09.836-.278 1.66-.551 2.45a.416.416 0 0 0-.184-.051.401.401 0 0 0-.398.402c0 .184.129.336.3.379a11.303 11.303 0 0 1-1.796 2.898l-.48-.48a.401.401 0 0 0 .374-.399.4.4 0 0 0-.398-.398.401.401 0 0 0-.399.375l-.78-.781a.396.396 0 0 0 .378-.395.398.398 0 0 0-.797-.023l-.781-.781a.398.398 0 0 0-.023-.797.398.398 0 0 0-.395.379l-.781-.782a.4.4 0 0 0 .375-.394.401.401 0 0 0-.399-.403.396.396 0 0 0-.394.38l-.781-.782a.401.401 0 0 0 .375-.398.4.4 0 0 0-.399-.399.401.401 0 0 0-.398.375l-.375-.375zm0 0"/>
    <path d="M11.602 0l-.426.027C4.906.457 0 5.715 0 12c0 6.617 5.383 12 12 12a12.01 12.01 0 0 0 7.617-2.73l.34-.282-8.355-8.355zm7.16 20.926A11.216 11.216 0 0 1 12 23.199C5.824 23.2.8 18.176.8 12 .8 6.277 5.16 1.469 10.8.863v12.102zm0 0M14.402 1.598c0 .222-.18.398-.402.398a.398.398 0 1 1 0-.797c.223 0 .402.176.402.399zm0 0M14.402 3.996a.401.401 0 1 1 0 0zm0 0M15.602 2.797a.401.401 0 1 1-.802.003.401.401 0 0 1 .802-.003zm0 0M18 2.797a.398.398 0 1 1-.797 0 .398.398 0 1 1 .797 0zm0 0M16.8 3.996A.401.401 0 1 1 16 4a.401.401 0 0 1 .802-.003zm0 0M19.203 3.996a.401.401 0 1 1 0 0zm0 0M20.402 5.2a.4.4 0 1 1-.8-.004.4.4 0 0 1 .8.003zm0 0M15.602 5.2a.4.4 0 1 1-.8-.004.4.4 0 0 1 .8.003zm0 0M18 5.2a.398.398 0 1 1-.797 0 .398.398 0 1 1 .797 0zm0 0M20.402 7.598a.401.401 0 1 1-.802.002.401.401 0 0 1 .802-.002zm0 0M21.602 6.398c0 .223-.18.399-.399.399a.398.398 0 1 1 0-.797c.219 0 .399.176.399.398zm0 0M21.602 8.797a.401.401 0 1 1-.802.003.401.401 0 0 1 .802-.003zm0 0"/>
    <path d="M14.402 6.398c0 .223-.18.399-.402.399A.398.398 0 1 1 14 6c.223 0 .402.176.402.398zm0 0M14.402 8.797a.401.401 0 1 1 0 0zm0 0M15.602 7.598a.401.401 0 1 1-.802.002.401.401 0 0 1 .802-.002zm0 0M18 7.598a.398.398 0 1 1-.797 0 .398.398 0 1 1 .797 0zm0 0M16.8 6.398c0 .223-.179.399-.398.399a.398.398 0 1 1 0-.797c.22 0 .399.176.399.398zm0 0M19.203 6.398c0 .223-.18.399-.402.399a.398.398 0 1 1 0-.797c.222 0 .402.176.402.398zm0 0M16.8 8.797A.401.401 0 1 1 16 8.8a.401.401 0 0 1 .802-.003zm0 0M19.203 8.797a.401.401 0 1 1 0 0zm0 0M22.8 10a.398.398 0 1 1-.796 0 .398.398 0 1 1 .797 0zm0 0M20.402 10a.4.4 0 1 1-.8-.003.4.4 0 0 1 .8.003zm0 0M15.602 10a.4.4 0 1 1-.8-.003.4.4 0 0 1 .8.003zm0 0M18 10a.398.398 0 1 1-.797 0A.398.398 0 1 1 18 10zm0 0M20.402 16a.4.4 0 1 1-.8-.003.4.4 0 0 1 .8.003zm0 0M21.602 17.2c0 .222-.18.398-.399.398a.398.398 0 1 1 0-.797c.219 0 .399.176.399.398zm0 0M21.602 14.8a.4.4 0 1 1-.8-.003.4.4 0 0 1 .8.004zm0 0M19.203 14.8a.401.401 0 1 1-.802-.004.401.401 0 0 1 .802.005zm0 0M18 13.598a.398.398 0 1 1-.797 0 .398.398 0 1 1 .797 0zm0 0M22.8 13.598a.398.398 0 1 1-.796 0 .398.398 0 1 1 .797 0zm0 0M20.402 13.598a.401.401 0 1 1-.802.002.401.401 0 0 1 .802-.002zm0 0"/>
</svg>
