<svg xmlns="http://www.w3.org/2000/svg" width="32" height="32" viewBox="0 0 24 24">
    <path d="M10 1.598a.401.401 0 1 1 0 0zm0 0M8.797 2.797a.398.398 0 1 1-.797 0 .398.398 0 1 1 .797 0zm0 0M6.398 5.2a.4.4 0 1 1-.8-.004.4.4 0 0 1 .8.003zm0 0M5.2 4a.401.401 0 1 1-.803-.005A.401.401 0 0 1 5.2 4zm0 0M5.2 6.398c0 .223-.18.399-.403.399a.398.398 0 1 1 0-.797c.223 0 .402.176.402.398zm0 0M8.797 5.2A.398.398 0 1 1 8 5.2a.398.398 0 1 1 .797 0zm0 0M10 4a.401.401 0 1 1-.802-.005A.401.401 0 0 1 10 4zm0 0M7.598 4a.4.4 0 1 1-.8-.003.4.4 0 0 1 .8.003zm0 0M10 6.398c0 .223-.18.399-.402.399a.398.398 0 1 1 0-.797c.222 0 .402.176.402.398zm0 0M7.598 6.398c0 .223-.18.399-.399.399A.398.398 0 1 1 7.2 6c.219 0 .399.176.399.398zm0 0M3.996 7.598a.398.398 0 1 1-.797 0 .398.398 0 1 1 .797 0zm0 0M6.398 7.598a.401.401 0 1 1-.801.002.401.401 0 0 1 .801-.002zm0 0M8.797 7.598a.398.398 0 1 1-.797 0 .398.398 0 1 1 .797 0zm0 0M3.996 10a.398.398 0 1 1-.797 0 .398.398 0 1 1 .797 0zm0 0M2.797 8.8a.4.4 0 1 1-.8-.003.4.4 0 0 1 .8.004zm0 0M6.398 10a.4.4 0 1 1-.8-.003.4.4 0 0 1 .8.003zm0 0M5.2 8.8a.401.401 0 1 1-.803-.004.401.401 0 0 1 .802.005zm0 0M8.797 10A.398.398 0 1 1 8 10a.398.398 0 1 1 .797 0zm0 0M10 8.8a.401.401 0 1 1-.802-.004A.401.401 0 0 1 10 8.8zm0 0M7.598 8.8a.4.4 0 1 1-.8-.003.4.4 0 0 1 .8.004zm0 0"/>
    <path d="M11.598 0l-.426.027C5.227.434.434 5.227.027 11.172L0 11.598h11.598zm-.801 10.8H.863c.02-.171.051-.335.078-.5.07.06.157.098.258.098a.4.4 0 0 0 0-.8.387.387 0 0 0-.137.027 11.04 11.04 0 0 1 1.086-2.922c.07.059.153.098.25.098a.4.4 0 1 0 .145-.773c.21-.329.437-.65.68-.954-.012.04-.024.078-.024.125A.4.4 0 0 0 4 5.2a.398.398 0 0 0-.402-.398.387.387 0 0 0-.22.074A11.236 11.236 0 0 1 5.606 2.82c.012.211.18.38.395.38a.398.398 0 1 0 .18-.754c.28-.173.566-.333.863-.481A.352.352 0 0 0 7.199 2a.4.4 0 0 0 .375-.273 11.028 11.028 0 0 1 3.227-.86v1.531a.401.401 0 1 0 0 .801v1.602a.398.398 0 1 0 0 .797v1.601a.401.401 0 1 0 0 .801v1.598a.401.401 0 0 0 0 .8v.403zm0 0"/>
    <path d="M21.098 4.176A11.93 11.93 0 0 0 12.824.027L12.398 0v12.398H0l.027.43a11.923 11.923 0 0 0 2.891 7.012c.152.176.324.355.559.574l.609.574c.234.223.418.383.605.528A11.988 11.988 0 0 0 12.011 24c.313 0 .626-.012.938-.035 5.805-.45 10.54-5.16 11.012-10.965.262-3.242-.754-6.375-2.863-8.824zm2.062 8.761c-.437 5.415-4.855 9.813-10.273 10.227A11.156 11.156 0 0 1 5.18 20.88a6.666 6.666 0 0 1-.543-.469l-.61-.578c-.215-.2-.367-.36-.504-.516A11.104 11.104 0 0 1 .863 13.2H13.2V.863c2.84.301 5.414 1.653 7.293 3.836 1.969 2.285 2.914 5.211 2.668 8.239zm0 0"/>
</svg>
