<svg xmlns="http://www.w3.org/2000/svg" width="32" height="32" viewBox="0 0 24 24">
    <path d="M21.52 3.2H17.2v-.907A2.294 2.294 0 0 0 14.905 0H3.492A2.296 2.296 0 0 0 1.2 2.293v19.414A2.296 2.296 0 0 0 3.492 24h11.414a2.294 2.294 0 0 0 2.293-2.293v-4.906h4.32c.708 0 1.282-.574 1.282-1.281V4.48c0-.707-.574-1.28-1.281-1.28zm-5.122 18.507c0 .824-.668 1.492-1.492 1.492H3.492C2.672 23.2 2 22.531 2 21.707V2.293C2 1.469 2.672.801 3.492.801h11.414c.824 0 1.492.668 1.492 1.492zM17.2 16V4H18v12zm1.602 0V4h.8v12zM22 15.52a.48.48 0 0 1-.48.48h-1.122V4h1.122a.48.48 0 0 1 .48.48zm0 0"/>
    <path d="M21.602 5.602a.401.401 0 1 1-.802-.005.401.401 0 0 1 .802.005zm0 0M21.602 7.602a.401.401 0 1 1-.802-.005.401.401 0 0 1 .802.005zm0 0M3.2 8.8h12V3.603h-12zM4 4.399h10.398V8H4zm0 0M5.602 2.8a.401.401 0 0 0 0-.8H3.199a.4.4 0 0 0 0 .8zm0 0M3.602 12.398H6.8V9.602H3.6zm.796-2H6v1.204H4.398zm0 0M7.602 12.398H10.8V9.602H7.6zm.796-2H10v1.204H8.398zm0 0M11.602 12.398H14.8V9.602h-3.2zm.796-2H14v1.204h-1.602zm0 0M3.602 15.602H6.8V12.8H3.6zm.796-2H6V14.8H4.398zm0 0M7.602 15.602H10.8V12.8H7.6zm.796-2H10V14.8H8.398zm0 0M11.602 15.602H14.8V12.8h-3.2zm.796-2H14V14.8h-1.602zm0 0M3.602 18.8H6.8V16H3.6zm.796-2H6V18H4.398zm0 0M7.602 18.8H10.8V16H7.6zm.796-2H10V18H8.398zm0 0M3.602 22.398H6.8v-2.796H3.6zm.796-2H6v1.204H4.398zm0 0M7.602 22.398H10.8v-2.796H7.6zm.796-2H10v1.204H8.398zm0 0M11.602 22.398H14.8V16h-3.2zm.796-5.597H14v4.8h-1.602zm0 0"/>
    <path d="M8.152 4.832a.376.376 0 0 0-.304 0 .326.326 0 0 0-.13.086l-.402.398A.4.4 0 0 0 7.602 6v1.2a.398.398 0 1 0 .796 0v-2a.419.419 0 0 0-.027-.153.406.406 0 0 0-.219-.215zm0 0M11.754 4.832a.385.385 0 0 0-.309 0 .392.392 0 0 0-.129.086l-.398.398a.4.4 0 0 0 .281.684v1.2a.401.401 0 0 0 .8 0l.001-2a.425.425 0 0 0-.031-.153.387.387 0 0 0-.215-.215zm0 0M13.352 4.832a.376.376 0 0 0-.305 0 .326.326 0 0 0-.129.086l-.402.398A.4.4 0 0 0 12.8 6v1.2a.401.401 0 1 0 .8 0v-2a.406.406 0 0 0-.25-.367zm0 0M9.719 6.516l-.403.402a.4.4 0 0 0 .567.566l.398-.402a.4.4 0 0 0 0-.566.396.396 0 0 0-.562 0zm0 0"/>
</svg>
