<svg xmlns="http://www.w3.org/2000/svg" width="32" height="32" viewBox="0 0 24 24">
    <path d="M2.398438 6L8.398438 6C8.621094 6 8.800781 5.820312 8.800781 5.601562 8.800781 5.378906 8.621094 5.199219 8.398438 5.199219L2.398438 5.199219C2.179688 5.199219 2 5.378906 2 5.601562 2 5.820312 2.179688 6 2.398438 6zM2.398438 4.398438L6 4.398438C6.222656 4.398438 6.398438 4.222656 6.398438 4 6.398438 3.777344 6.222656 3.601562 6 3.601562L2.398438 3.601562C2.179688 3.601562 2 3.777344 2 4 2 4.222656 2.179688 4.398438 2.398438 4.398438zM8.800781 7.199219C8.800781 6.980469 8.621094 6.800781 8.398438 6.800781L2.398438 6.800781C2.179688 6.800781 2 6.980469 2 7.199219 2 7.421875 2.179688 7.601562 2.398438 7.601562L8.398438 7.601562C8.621094 7.601562 8.800781 7.421875 8.800781 7.199219zM8.800781 7.199219"/>
    <path d="M 24 1.601562 L 12.398438 1.601562 L 12.398438 0.398438 C 12.398438 0.179688 12.222656 0 12 0 C 11.777344 0 11.601562 0.179688 11.601562 0.398438 L 11.601562 1.601562 L 0 1.601562 L 0 18.398438 L 11.035156 18.398438 L 6.117188 23.316406 C 5.960938 23.472656 5.960938 23.726562 6.117188 23.882812 C 6.195312 23.960938 6.296875 24 6.398438 24 C 6.503906 24 6.605469 23.960938 6.683594 23.882812 L 11.601562 18.964844 L 11.601562 22.800781 C 11.601562 23.019531 11.777344 23.199219 12 23.199219 C 12.222656 23.199219 12.398438 23.019531 12.398438 22.800781 L 12.398438 18.964844 L 17.316406 23.882812 C 17.394531 23.960938 17.496094 24 17.601562 24 C 17.703125 24 17.804688 23.960938 17.882812 23.882812 C 18.039062 23.726562 18.039062 23.472656 17.882812 23.316406 L 12.964844 18.398438 L 24 18.398438 Z M 23.199219 17.601562 L 0.800781 17.601562 L 0.800781 2.398438 L 23.199219 2.398438 Z M 23.199219 17.601562"/>
    <path d="M 11.207031 12.625 C 10.96875 12.484375 10.695312 12.398438 10.398438 12.398438 C 10.210938 12.398438 10.03125 12.4375 9.863281 12.5 L 9.101562 11.734375 C 9.160156 11.566406 9.199219 11.390625 9.199219 11.199219 C 9.199219 10.316406 8.480469 9.601562 7.601562 9.601562 C 6.71875 9.601562 6 10.316406 6 11.199219 C 6 11.390625 6.039062 11.566406 6.097656 11.734375 L 5.335938 12.5 C 5.167969 12.4375 4.988281 12.398438 4.800781 12.398438 C 3.917969 12.398438 3.199219 13.117188 3.199219 14 C 3.199219 14.882812 3.917969 15.601562 4.800781 15.601562 C 5.683594 15.601562 6.398438 14.882812 6.398438 14 C 6.398438 13.601562 6.246094 13.242188 6.003906 12.960938 L 6.558594 12.40625 C 6.839844 12.648438 7.203125 12.800781 7.601562 12.800781 C 8 12.800781 8.359375 12.648438 8.640625 12.40625 L 9.195312 12.960938 C 8.953125 13.242188 8.800781 13.601562 8.800781 14 C 8.800781 14.882812 9.519531 15.601562 10.398438 15.601562 C 11.28125 15.601562 12 14.882812 12 14 C 12 13.703125 11.914062 13.429688 11.773438 13.191406 L 14.558594 10.40625 C 14.839844 10.648438 15.203125 10.800781 15.601562 10.800781 C 16 10.800781 16.359375 10.648438 16.640625 10.40625 L 18.394531 12.160156 C 18.152344 12.441406 18 12.800781 18 13.199219 C 18 14.082031 18.71875 14.800781 19.601562 14.800781 C 20.480469 14.800781 21.199219 14.082031 21.199219 13.199219 C 21.199219 12.316406 20.480469 11.601562 19.601562 11.601562 C 19.410156 11.601562 19.234375 11.640625 19.066406 11.699219 L 17.101562 9.734375 C 17.160156 9.566406 17.199219 9.390625 17.199219 9.199219 C 17.199219 8.316406 16.480469 7.601562 15.601562 7.601562 C 14.71875 7.601562 14 8.316406 14 9.199219 C 14 9.390625 14.039062 9.566406 14.097656 9.734375 Z M 4.800781 14.800781 C 4.359375 14.800781 4 14.441406 4 14 C 4 13.558594 4.359375 13.199219 4.800781 13.199219 C 5.242188 13.199219 5.601562 13.558594 5.601562 14 C 5.601562 14.441406 5.242188 14.800781 4.800781 14.800781 Z M 7.601562 12 C 7.160156 12 6.800781 11.640625 6.800781 11.199219 C 6.800781 10.757812 7.160156 10.398438 7.601562 10.398438 C 8.042969 10.398438 8.398438 10.757812 8.398438 11.199219 C 8.398438 11.640625 8.042969 12 7.601562 12 Z M 10.398438 14.800781 C 9.957031 14.800781 9.601562 14.441406 9.601562 14 C 9.601562 13.558594 9.957031 13.199219 10.398438 13.199219 C 10.839844 13.199219 11.199219 13.558594 11.199219 14 C 11.199219 14.441406 10.839844 14.800781 10.398438 14.800781 Z M 20.398438 13.199219 C 20.398438 13.640625 20.042969 14 19.601562 14 C 19.160156 14 18.800781 13.640625 18.800781 13.199219 C 18.800781 12.757812 19.160156 12.398438 19.601562 12.398438 C 20.042969 12.398438 20.398438 12.757812 20.398438 13.199219 Z M 15.601562 8.398438 C 16.042969 8.398438 16.398438 8.757812 16.398438 9.199219 C 16.398438 9.640625 16.042969 10 15.601562 10 C 15.160156 10 14.800781 9.640625 14.800781 9.199219 C 14.800781 8.757812 15.160156 8.398438 15.601562 8.398438 Z M 15.601562 8.398438"/>
</svg>
