<svg xmlns="http://www.w3.org/2000/svg" width="32" height="32" viewBox="0 0 24 24">
    <path d="M 22 9.191406 C 22 6.109375 19.492188 3.601562 16.410156 3.601562 L 16.011719 3.601562 L 16.011719 9.589844 L 22 9.589844 Z M 16.808594 8.789062 L 16.808594 4.417969 C 19.132812 4.609375 20.992188 6.46875 21.183594 8.789062 Z M 16.808594 8.789062"/>
    <path d="M 9.601562 10.410156 C 9.601562 10.960938 9.683594 11.496094 9.832031 12 L 7.835938 12 L 5.949219 8.605469 C 5.941406 8.589844 5.925781 8.582031 5.917969 8.566406 C 5.898438 8.542969 5.882812 8.523438 5.863281 8.503906 C 5.84375 8.488281 5.820312 8.472656 5.800781 8.460938 C 5.777344 8.449219 5.757812 8.4375 5.730469 8.425781 C 5.707031 8.417969 5.679688 8.414062 5.652344 8.410156 C 5.632812 8.40625 5.617188 8.398438 5.601562 8.398438 L 2.398438 8.398438 C 2.179688 8.398438 2 8.578125 2 8.800781 C 2 9.019531 2.179688 9.199219 2.398438 9.199219 L 5.363281 9.199219 L 7.25 12.59375 C 7.269531 12.628906 7.292969 12.65625 7.316406 12.683594 C 7.316406 12.683594 7.320312 12.683594 7.320312 12.683594 C 7.351562 12.714844 7.390625 12.738281 7.429688 12.757812 C 7.441406 12.761719 7.453125 12.769531 7.460938 12.773438 C 7.507812 12.789062 7.550781 12.800781 7.597656 12.800781 C 7.601562 12.800781 7.601562 12.800781 7.601562 12.800781 L 10.144531 12.800781 C 11.042969 14.6875 12.964844 16 15.191406 16 C 18.273438 16 20.777344 13.492188 20.777344 10.410156 L 20.777344 10.011719 L 15.589844 10.011719 L 15.589844 4.820312 L 15.191406 4.820312 C 12.109375 4.820312 9.601562 7.328125 9.601562 10.410156 Z M 14.789062 5.636719 L 14.789062 10.8125 L 19.960938 10.8125 C 19.757812 13.265625 17.695312 15.199219 15.191406 15.199219 C 13.417969 15.199219 11.875 14.230469 11.042969 12.800781 L 12.398438 12.800781 C 12.621094 12.800781 12.800781 12.621094 12.800781 12.398438 C 12.800781 12.179688 12.621094 12 12.398438 12 L 10.675781 12 C 10.5 11.5 10.398438 10.96875 10.398438 10.410156 C 10.398438 7.90625 12.335938 5.839844 14.789062 5.636719 Z M 14.789062 5.636719"/>
    <path d="M 24 1.601562 L 12.398438 1.601562 L 12.398438 0.398438 C 12.398438 0.179688 12.222656 0 12 0 C 11.777344 0 11.601562 0.179688 11.601562 0.398438 L 11.601562 1.601562 L 0 1.601562 L 0 18.398438 L 11.035156 18.398438 L 6.117188 23.316406 C 5.960938 23.472656 5.960938 23.726562 6.117188 23.882812 C 6.195312 23.960938 6.296875 24 6.398438 24 C 6.503906 24 6.605469 23.960938 6.683594 23.882812 L 11.601562 18.964844 L 11.601562 22.800781 C 11.601562 23.019531 11.777344 23.199219 12 23.199219 C 12.222656 23.199219 12.398438 23.019531 12.398438 22.800781 L 12.398438 18.964844 L 17.316406 23.882812 C 17.394531 23.960938 17.496094 24 17.601562 24 C 17.703125 24 17.804688 23.960938 17.882812 23.882812 C 18.039062 23.726562 18.039062 23.472656 17.882812 23.316406 L 12.964844 18.398438 L 24 18.398438 Z M 23.199219 17.601562 L 0.800781 17.601562 L 0.800781 2.398438 L 23.199219 2.398438 Z M 23.199219 17.601562"/>
    <path d="M3.199219 7.601562C3.421875 7.601562 3.601562 7.421875 3.601562 7.199219L3.601562 5.601562C3.601562 5.378906 3.421875 5.199219 3.199219 5.199219 2.980469 5.199219 2.800781 5.378906 2.800781 5.601562L2.800781 7.199219C2.800781 7.421875 2.980469 7.601562 3.199219 7.601562zM4.398438 7.601562C4.621094 7.601562 4.800781 7.421875 4.800781 7.199219L4.800781 5.601562C4.800781 5.378906 4.621094 5.199219 4.398438 5.199219 4.179688 5.199219 4 5.378906 4 5.601562L4 7.199219C4 7.421875 4.179688 7.601562 4.398438 7.601562zM4.398438 7.601562"/>
</svg>
