<svg xmlns="http://www.w3.org/2000/svg" width="32" height="32" viewBox="0 0 24 24">
    <path d="M24 3.2V0H0v3.2h.8v16H.399a.401.401 0 0 0 0 .8h11.204v.8c0 .02.007.036.007.055a1.596 1.596 0 0 0-1.21 1.543c0 .883.718 1.602 1.601 1.602s1.602-.719 1.602-1.602c0-.746-.52-1.37-1.211-1.543 0-.02.007-.035.007-.054V20h11.204a.4.4 0 0 0 0-.8h-.403v-16zM12.8 22.397a.802.802 0 0 1-1.6 0c0-.441.359-.796.8-.796.441 0 .8.355.8.796zM.8.801h22.4v1.597H.8zm21.598 18.398H1.602v-16h20.796zm0 0"/>
    <path d="M5.2 12.047v.351a.401.401 0 0 0 .8 0v-.351c.438-.09.836-.32 1.129-.668.242-.29.355-.656.316-1.04a1.458 1.458 0 0 0-.554-.995L4.8 7.714a.664.664 0 0 1-.25-.444.601.601 0 0 1 .133-.446c.226-.27.562-.426.918-.426.66 0 1.199.54 1.199 1.204a.4.4 0 0 0 .8 0c0-.97-.69-1.774-1.601-1.961v-.352a.398.398 0 0 0-.398-.398.398.398 0 0 0-.403.398v.352c-.437.09-.832.32-1.125.668-.246.289-.36.66-.32 1.043.043.39.242.753.555.996l2.093 1.625c.137.109.227.273.246.449a.576.576 0 0 1-.132.441c-.227.27-.563.426-.914.426-.665 0-1.204-.539-1.204-1.2a.398.398 0 1 0-.796 0c0 .966.687 1.774 1.597 1.958zm0 0M14.398 8.8H20v1.598h-4.398a.401.401 0 0 0 0 .8L20 11.2v1.602h-1.602a.4.4 0 0 0 0 .8H20v2h-2.8a.398.398 0 1 0 0 .797H20v.801a.401.401 0 1 0 .8 0V4.801a.401.401 0 0 0-.8 0v.8h-2.8a.398.398 0 1 0 0 .797H20V8h-5.602a.4.4 0 0 0 0 .8zm0 0M4 17.2h3.2a.401.401 0 1 0 0-.802H4a.398.398 0 0 0-.398.403c0 .219.175.398.398.398zm0 0M8.914 16.516a.423.423 0 0 0-.113.285.43.43 0 0 0 .113.285c.078.07.184.113.285.113a.43.43 0 0 0 .285-.113.442.442 0 0 0 .118-.285.426.426 0 0 0-.118-.285.42.42 0 0 0-.57 0zm0 0M8 15.2h1.2a.401.401 0 1 0 0-.802H8a.398.398 0 0 0-.398.403c0 .219.175.398.398.398zm0 0M4 15.2h.8a.4.4 0 0 0 0-.802H4a.398.398 0 0 0-.398.403c0 .219.175.398.398.398zm0 0M6.117 14.516A.402.402 0 0 0 6 14.8c0 .101.043.207.117.285.074.074.18.113.281.113.106 0 .211-.043.286-.113A.423.423 0 0 0 6.8 14.8a.409.409 0 0 0-.117-.285.416.416 0 0 0-.567 0zm0 0"/>
</svg>
