<svg xmlns="http://www.w3.org/2000/svg" width="32" height="32" viewBox="0 0 24 24">
    <path d="M24 3.2V0H0v3.2h.8v16H.399a.401.401 0 0 0 0 .8h11.204v.8c0 .02.007.036.007.055a1.596 1.596 0 0 0-1.21 1.543c0 .883.718 1.602 1.601 1.602s1.602-.719 1.602-1.602c0-.746-.52-1.37-1.211-1.543 0-.02.007-.035.007-.054V20h11.204a.4.4 0 0 0 0-.8h-.403v-16zM12.8 22.397a.802.802 0 0 1-1.6 0c0-.441.359-.796.8-.796.441 0 .8.355.8.796zM.8.801h22.4v1.597H.8zm21.598 18.398H1.602v-16h20.796zm0 0"/>
    <path d="M3.2 7.602h4.402a.401.401 0 0 0 0-.801H3.199a.4.4 0 0 0 0 .8zm0 0M3.2 6h2a.401.401 0 1 0 0-.8h-2a.401.401 0 0 0 0 .8zm0 0M3.2 9.2h4.402a.4.4 0 0 0 0-.802H3.199a.401.401 0 0 0 0 .801zm0 0M6 12.8c0 .188.04.368.098.536l-.762.762A1.624 1.624 0 0 0 4.8 14c-.883 0-1.602.719-1.602 1.602a1.6 1.6 0 1 0 3.2 0c0-.399-.153-.762-.395-1.043l.555-.551c.28.238.644.39 1.043.39.398 0 .757-.152 1.039-.39l.554.55a1.597 1.597 0 0 0-.394 1.044c0 .878.719 1.597 1.597 1.597.883 0 1.602-.719 1.602-1.597 0-.297-.086-.57-.227-.809l2.786-2.785c.28.238.644.39 1.043.39.398 0 .757-.152 1.039-.39l1.754 1.754c-.243.277-.395.64-.395 1.039a1.6 1.6 0 0 0 3.2 0c0-.883-.72-1.602-1.598-1.602-.192 0-.368.04-.536.098l-1.964-1.961c.058-.168.097-.348.097-.535 0-.883-.719-1.602-1.597-1.602-.883 0-1.602.719-1.602 1.602 0 .187.04.367.098.535l-2.891 2.89a1.582 1.582 0 0 0-.809-.226c-.187 0-.367.04-.535.098l-.761-.762c.058-.168.097-.348.097-.535 0-.883-.719-1.602-1.597-1.602-.883 0-1.602.719-1.602 1.602zm-1.2 3.598a.799.799 0 1 1 0-1.597.799.799 0 0 1 0 1.598zm15.598-1.597a.799.799 0 1 1-1.597 0 .799.799 0 0 1 1.598 0zM15.602 10c.441 0 .796.36.796.8a.799.799 0 1 1-1.597 0c0-.44.36-.8.8-.8zm-4.403 5.602a.799.799 0 1 1-1.597-.004.799.799 0 0 1 1.597.004zM8.4 12.8a.799.799 0 1 1-1.598 0 .799.799 0 0 1 1.598 0zm0 0"/>
</svg>
