<svg xmlns="http://www.w3.org/2000/svg" width="32" height="32" viewBox="0 0 24 24">
    <path d="M24 1.602H12.398V.398a.398.398 0 1 0-.796 0v1.204H0v16.796h11.035l-4.918 4.918a.4.4 0 0 0 .567.567l4.918-4.918V22.8a.398.398 0 1 0 .796 0v-3.836l4.918 4.918a.399.399 0 0 0 .567 0 .4.4 0 0 0 0-.567l-4.918-4.918H24zm-.8 16H.8V2.398h22.4zm0 0"/>
    <path d="M13.602 7.602V4.398h-3.204v3.204h1.204v2h-6v1.64A1.999 1.999 0 0 0 6 15.2a1.999 1.999 0 1 0 .398-3.957v-.844h5.204v.844A1.999 1.999 0 0 0 12 15.2a1.999 1.999 0 1 0 .398-3.957v-.844h5.204v.844A1.999 1.999 0 0 0 18 15.2a1.999 1.999 0 1 0 .398-3.957v-1.64h-6v-2zm-6.403 5.597a1.2 1.2 0 1 1-2.399 0 1.2 1.2 0 0 1 2.4 0zm6 0a1.2 1.2 0 1 1-2.399 0 1.2 1.2 0 0 1 2.4 0zm6 0a1.2 1.2 0 1 1-2.399 0 1.2 1.2 0 0 1 2.4 0zm-8-8h1.602v1.602h-1.602zm0 0"/>
</svg>
