<svg xmlns="http://www.w3.org/2000/svg" width="32" height="32" viewBox="0 0 24 24">
    <path d="M22 9.191a5.596 5.596 0 0 0-5.59-5.59h-.398V9.59H22zm-5.191-.402V4.418a4.796 4.796 0 0 1 4.375 4.371zm0 0"/>
    <path d="M9.602 10.41c0 .55.082 1.086.23 1.59H7.836L5.949 8.605c-.008-.015-.023-.023-.031-.039-.02-.023-.035-.043-.055-.062a.596.596 0 0 0-.062-.043c-.024-.012-.043-.024-.07-.035a.46.46 0 0 0-.079-.016c-.02-.004-.035-.012-.05-.012H2.398a.401.401 0 0 0 0 .801h2.965l1.887 3.395c.02.035.043.062.066.09h.004c.032.03.07.054.11.074.011.004.023.012.03.015.048.016.09.028.138.028h2.547A5.596 5.596 0 0 0 15.19 16a5.593 5.593 0 0 0 5.586-5.59v-.398H15.59V4.82h-.399a5.596 5.596 0 0 0-5.59 5.59zm5.187-4.773v5.176h5.172a4.793 4.793 0 0 1-4.77 4.386 4.798 4.798 0 0 1-4.148-2.398h1.355a.401.401 0 0 0 0-.8l-1.722-.001a4.772 4.772 0 0 1-.278-1.59 4.8 4.8 0 0 1 4.391-4.773zm0 0"/>
    <path d="M24 1.602H12.398V.398a.398.398 0 1 0-.796 0v1.204H0v16.796h11.035l-4.918 4.918a.4.4 0 0 0 .567.567l4.918-4.918V22.8a.398.398 0 1 0 .796 0v-3.836l4.918 4.918a.399.399 0 0 0 .567 0 .4.4 0 0 0 0-.567l-4.918-4.918H24zm-.8 16H.8V2.398h22.4zm0 0"/>
    <path d="M3.2 7.602c.222 0 .402-.18.402-.403V5.602a.401.401 0 0 0-.8 0L2.8 7.199c0 .223.18.403.398.403zm0 0M4.398 7.602c.223 0 .403-.18.403-.403V5.602a.401.401 0 0 0-.8 0l-.001 1.597c0 .223.18.403.398.403zm0 0"/>
</svg>
