<svg xmlns="http://www.w3.org/2000/svg" width="32" height="32" viewBox="0 0 24 24">
    <path d="M 24 3.199219 L 24 0 L 0 0 L 0 3.199219 L 0.800781 3.199219 L 0.800781 19.199219 L 0.398438 19.199219 C 0.179688 19.199219 0 19.378906 0 19.601562 C 0 19.820312 0.179688 20 0.398438 20 L 11.601562 20 L 11.601562 20.800781 C 11.601562 20.820312 11.609375 20.835938 11.609375 20.855469 C 10.917969 21.027344 10.398438 21.652344 10.398438 22.398438 C 10.398438 23.28125 11.117188 24 12 24 C 12.882812 24 13.601562 23.28125 13.601562 22.398438 C 13.601562 21.652344 13.082031 21.027344 12.390625 20.855469 C 12.390625 20.835938 12.398438 20.820312 12.398438 20.800781 L 12.398438 20 L 23.601562 20 C 23.820312 20 24 19.820312 24 19.601562 C 24 19.378906 23.820312 19.199219 23.601562 19.199219 L 23.199219 19.199219 L 23.199219 3.199219 Z M 12.800781 22.398438 C 12.800781 22.839844 12.441406 23.199219 12 23.199219 C 11.558594 23.199219 11.199219 22.839844 11.199219 22.398438 C 11.199219 21.957031 11.558594 21.601562 12 21.601562 C 12.441406 21.601562 12.800781 21.957031 12.800781 22.398438 Z M 0.800781 0.800781 L 23.199219 0.800781 L 23.199219 2.398438 L 0.800781 2.398438 Z M 22.398438 19.199219 L 1.601562 19.199219 L 1.601562 3.199219 L 22.398438 3.199219 Z M 22.398438 19.199219"/>
    <path d="M10 16L10 10.800781 6.800781 10.800781 6.800781 18 10 18zM7.601562 11.601562L9.199219 11.601562 9.199219 15.199219 7.601562 15.199219zM9.199219 17.199219L7.601562 17.199219 7.601562 16 9.199219 16zM13.601562 16L13.601562 8.398438 10.398438 8.398438 10.398438 18 13.601562 18zM11.199219 9.199219L12.800781 9.199219 12.800781 15.199219 11.199219 15.199219zM12.800781 17.199219L11.199219 17.199219 11.199219 16 12.800781 16zM17.199219 16L17.199219 11.199219 14 11.199219 14 18 17.199219 18zM14.800781 12L16.398438 12 16.398438 15.199219 14.800781 15.199219zM16.398438 17.199219L14.800781 17.199219 14.800781 16 16.398438 16zM20.800781 16L20.800781 6 17.601562 6 17.601562 18 20.800781 18zM18.398438 6.800781L20 6.800781 20 15.199219 18.398438 15.199219zM20 17.199219L18.398438 17.199219 18.398438 16 20 16zM3.199219 15.199219L3.199219 18 6.398438 18 6.398438 13.199219 3.199219 13.199219zM5.601562 17.199219L4 17.199219 4 16 5.601562 16zM4 14L5.601562 14 5.601562 15.199219 4 15.199219zM3.199219 10C3.300781 10 3.40625 9.960938 3.484375 9.882812L5.601562 7.765625 5.601562 8.800781C5.601562 9.019531 5.777344 9.199219 6 9.199219 6.222656 9.199219 6.398438 9.019531 6.398438 8.800781L6.398438 6.800781C6.398438 6.746094 6.390625 6.695312 6.371094 6.648438 6.328125 6.550781 6.25 6.472656 6.152344 6.429688 6.105469 6.410156 6.050781 6.398438 6 6.398438L4 6.398438C3.777344 6.398438 3.601562 6.578125 3.601562 6.800781 3.601562 7.019531 3.777344 7.199219 4 7.199219L5.035156 7.199219 2.917969 9.316406C2.761719 9.472656 2.761719 9.726562 2.917969 9.882812 2.996094 9.960938 3.097656 10 3.199219 10zM3.199219 10"/>
</svg>
