<svg xmlns="http://www.w3.org/2000/svg" width="32" height="32" viewBox="0 0 24 24">
    <path d="M 23.683594 0.117188 C 23.527344 -0.0390625 23.273438 -0.0390625 23.117188 0.117188 L 21.632812 1.601562 L 12.320312 1.601562 L 0.613281 13.40625 C 0.347656 13.671875 0.199219 14.027344 0.199219 14.402344 C 0.199219 14.78125 0.347656 15.132812 0.613281 15.402344 L 8.800781 23.589844 C 9.074219 23.863281 9.433594 24 9.796875 24 C 10.160156 24 10.523438 23.863281 10.800781 23.582031 L 22.199219 11.875 L 22.199219 2.164062 L 23.683594 0.683594 C 23.839844 0.527344 23.839844 0.273438 23.683594 0.117188 Z M 21.402344 11.550781 L 10.230469 23.023438 C 9.992188 23.261719 9.605469 23.261719 9.367188 23.023438 L 1.179688 14.835938 C 1.0625 14.71875 1 14.566406 1 14.402344 C 1 14.238281 1.0625 14.085938 1.179688 13.96875 L 12.65625 2.398438 L 20.835938 2.398438 L 18.902344 4.332031 C 18.585938 4.125 18.207031 4 17.800781 4 C 16.699219 4 15.800781 4.898438 15.800781 6 C 15.800781 7.101562 16.699219 8 17.800781 8 C 18.902344 8 19.800781 7.101562 19.800781 6 C 19.800781 5.59375 19.675781 5.214844 19.46875 4.898438 L 21.402344 2.964844 Z M 19 6 C 19 6.660156 18.460938 7.199219 17.800781 7.199219 C 17.140625 7.199219 16.601562 6.660156 16.601562 6 C 16.601562 5.339844 17.140625 4.800781 17.800781 4.800781 C 17.984375 4.800781 18.15625 4.847656 18.316406 4.921875 L 17.519531 5.71875 C 17.359375 5.875 17.359375 6.125 17.519531 6.28125 C 17.59375 6.359375 17.699219 6.398438 17.800781 6.398438 C 17.902344 6.398438 18.003906 6.359375 18.082031 6.28125 L 18.878906 5.484375 C 18.953125 5.644531 19 5.816406 19 6 Z M 19 6"/>
    <path d="M 16.164062 8.453125 C 16.320312 8.296875 16.320312 8.042969 16.164062 7.886719 C 16.007812 7.730469 15.757812 7.730469 15.601562 7.886719 L 15.300781 8.1875 C 14.585938 7.613281 13.679688 7.332031 12.753906 7.410156 C 12.109375 7.464844 11.523438 7.777344 11.109375 8.289062 C 10.683594 8.816406 10.484375 9.503906 10.570312 10.175781 L 10.875 12.613281 L 7.292969 16.191406 C 6.472656 15.097656 6.558594 13.535156 7.554688 12.539062 C 7.710938 12.382812 7.710938 12.128906 7.554688 11.972656 C 7.398438 11.816406 7.144531 11.816406 6.988281 11.972656 C 5.679688 13.28125 5.59375 15.351562 6.722656 16.765625 L 6.265625 17.222656 C 6.109375 17.378906 6.109375 17.628906 6.265625 17.785156 C 6.34375 17.863281 6.445312 17.902344 6.546875 17.902344 C 6.652344 17.902344 6.753906 17.863281 6.832031 17.785156 L 7.289062 17.328125 C 7.925781 17.839844 8.714844 18.117188 9.535156 18.117188 C 9.632812 18.117188 9.734375 18.113281 9.835938 18.105469 C 10.480469 18.050781 11.066406 17.742188 11.480469 17.230469 C 11.90625 16.703125 12.105469 16.011719 12.019531 15.339844 L 11.714844 12.902344 L 15.296875 9.324219 C 16.113281 10.417969 16.03125 11.984375 15.035156 12.980469 C 14.878906 13.136719 14.878906 13.386719 15.035156 13.542969 C 15.191406 13.699219 15.445312 13.699219 15.601562 13.542969 C 16.910156 12.234375 16.996094 10.164062 15.867188 8.753906 Z M 11.226562 15.4375 C 11.285156 15.898438 11.148438 16.367188 10.859375 16.726562 C 10.582031 17.066406 10.195312 17.273438 9.769531 17.308594 C 9.082031 17.363281 8.40625 17.164062 7.859375 16.757812 L 11 13.621094 Z M 11.363281 10.078125 C 11.304688 9.621094 11.4375 9.152344 11.730469 8.792969 C 12.007812 8.449219 12.394531 8.242188 12.820312 8.207031 C 13.507812 8.152344 14.183594 8.351562 14.726562 8.757812 L 11.589844 11.898438 Z M 11.363281 10.078125"/>
</svg>
