<svg xmlns="http://www.w3.org/2000/svg" width="32" height="32" viewBox="0 0 24 24">
    <path d="M23.883.117a.4.4 0 0 0-.567 0l-1.484 1.485H12.52L6.398 7.836v2.562h2.004l.016 2.801h2.383V16h2.398v2l3.281-.008 5.918-6.117v-9.71L23.883.683a.4.4 0 0 0 0-.567zm-2.285 11.434l-5.457 5.64L14 17.2v-2h-2.402v-2.797H9.21l-.016-2.8H7.2V8.164l5.656-5.766h8.18l-1.933 1.934A2.01 2.01 0 0 0 18 4c-1.102 0-2 .898-2 2 0 1.102.898 2 2 2 1.102 0 2-.898 2-2a2.01 2.01 0 0 0-.332-1.102l1.93-1.933zM19.199 6A1.2 1.2 0 1 1 18 4.8c.185 0 .356.048.513.122l-.797.797a.396.396 0 0 0 0 .562.412.412 0 0 0 .285.117c.102 0 .203-.039.281-.117l.797-.797c.074.16.121.332.121.516zm0 0"/>
    <path d="M11.2 17.602H8.8V14.8H6.399v-2.813H4V9.84L.414 13.469c-.55.55-.55 1.445.004 2.004l8.516 8.113a1.411 1.411 0 0 0 2 0l3.914-3.957h-3.649zm1.73 2.824l-2.563 2.597a.621.621 0 0 1-.875-.007L.977 14.898a.612.612 0 0 1 .003-.867l2.22-2.246v1.004h2.398v2.813H8v2.8h2.398v2.024zm0 0"/>
</svg>
