<svg xmlns="http://www.w3.org/2000/svg" width="32" height="32" viewBox="0 0 24 24">
    <path d="M6.265625 11C6.109375 10.84375 5.855469 10.84375 5.699219 11L2.304688 14.394531C2.148438 14.550781 2.148438 14.800781 2.304688 14.957031 2.382812 15.035156 2.484375 15.074219 2.589844 15.074219 2.691406 15.074219 2.792969 15.035156 2.871094 14.957031L6.265625 11.5625C6.421875 11.40625 6.421875 11.15625 6.265625 11zM4.851562 14.109375C4.929688 14.1875 5.03125 14.226562 5.132812 14.226562 5.234375 14.226562 5.339844 14.1875 5.417969 14.109375L7.113281 12.414062C7.269531 12.257812 7.269531 12.003906 7.113281 11.847656 6.957031 11.691406 6.703125 11.691406 6.546875 11.847656L4.851562 13.542969C4.695312 13.699219 4.695312 13.953125 4.851562 14.109375zM8.246094 12.980469C8.089844 12.820312 7.835938 12.820312 7.679688 12.980469L5.984375 14.675781C5.828125 14.832031 5.828125 15.085938 5.984375 15.242188 6.0625 15.320312 6.164062 15.359375 6.265625 15.359375 6.367188 15.359375 6.46875 15.320312 6.546875 15.242188L8.246094 13.542969C8.402344 13.386719 8.402344 13.136719 8.246094 12.980469zM6.832031 16.089844C6.910156 16.167969 7.011719 16.207031 7.113281 16.207031 7.214844 16.207031 7.320312 16.167969 7.398438 16.089844L9.09375 14.394531C9.25 14.238281 9.25 13.984375 9.09375 13.828125 8.9375 13.671875 8.683594 13.671875 8.527344 13.828125L6.832031 15.523438C6.675781 15.679688 6.675781 15.933594 6.832031 16.089844zM8.246094 17.503906C8.324219 17.582031 8.425781 17.621094 8.527344 17.621094 8.628906 17.621094 8.734375 17.582031 8.8125 17.503906L10.507812 15.808594C10.664062 15.652344 10.664062 15.398438 10.507812 15.242188 10.351562 15.085938 10.097656 15.085938 9.941406 15.242188L8.246094 16.9375C8.089844 17.09375 8.089844 17.347656 8.246094 17.503906zM9.09375 18.351562C9.171875 18.429688 9.273438 18.46875 9.375 18.46875 9.480469 18.46875 9.582031 18.429688 9.660156 18.351562L11.355469 16.65625C11.511719 16.5 11.511719 16.246094 11.355469 16.089844 11.199219 15.933594 10.949219 15.933594 10.792969 16.089844L9.09375 17.789062C8.9375 17.941406 8.9375 18.195312 9.09375 18.351562zM9.941406 19.203125C10.019531 19.28125 10.121094 19.320312 10.226562 19.320312 10.328125 19.320312 10.429688 19.28125 10.507812 19.203125L12.207031 17.503906C12.363281 17.347656 12.363281 17.09375 12.207031 16.9375 12.050781 16.78125 11.796875 16.78125 11.640625 16.9375L9.941406 18.636719C9.785156 18.792969 9.785156 19.046875 9.941406 19.203125zM12.488281 17.789062L9.09375 21.179688C8.9375 21.335938 8.9375 21.589844 9.09375 21.746094 9.171875 21.824219 9.273438 21.863281 9.378906 21.863281 9.480469 21.863281 9.582031 21.824219 9.660156 21.746094L13.054688 18.351562C13.210938 18.195312 13.210938 17.945312 13.054688 17.789062 12.898438 17.632812 12.644531 17.632812 12.488281 17.789062zM12.488281 17.789062"/>
    <path d="M 23.683594 0.117188 C 23.527344 -0.0390625 23.273438 -0.0390625 23.117188 0.117188 L 21.632812 1.601562 L 12.320312 1.601562 L 0.613281 13.40625 C 0.347656 13.671875 0.199219 14.027344 0.199219 14.402344 C 0.199219 14.78125 0.347656 15.132812 0.613281 15.402344 L 8.800781 23.589844 C 9.074219 23.863281 9.433594 24 9.796875 24 C 10.160156 24 10.523438 23.863281 10.800781 23.582031 L 22.199219 11.875 L 22.199219 2.164062 L 23.683594 0.683594 C 23.839844 0.527344 23.839844 0.273438 23.683594 0.117188 Z M 21.402344 11.550781 L 10.230469 23.023438 C 9.992188 23.261719 9.605469 23.261719 9.367188 23.023438 L 1.179688 14.835938 C 1.0625 14.71875 1 14.566406 1 14.402344 C 1 14.238281 1.0625 14.085938 1.179688 13.96875 L 12.65625 2.398438 L 20.835938 2.398438 L 18.902344 4.332031 C 18.585938 4.125 18.207031 4 17.800781 4 C 16.699219 4 15.800781 4.898438 15.800781 6 C 15.800781 7.101562 16.699219 8 17.800781 8 C 18.902344 8 19.800781 7.101562 19.800781 6 C 19.800781 5.59375 19.675781 5.214844 19.46875 4.898438 L 21.402344 2.964844 Z M 19 6 C 19 6.660156 18.460938 7.199219 17.800781 7.199219 C 17.140625 7.199219 16.601562 6.660156 16.601562 6 C 16.601562 5.339844 17.140625 4.800781 17.800781 4.800781 C 17.984375 4.800781 18.15625 4.847656 18.316406 4.921875 L 17.519531 5.71875 C 17.359375 5.875 17.359375 6.125 17.519531 6.28125 C 17.59375 6.359375 17.699219 6.398438 17.800781 6.398438 C 17.902344 6.398438 18.003906 6.359375 18.082031 6.28125 L 18.878906 5.484375 C 18.953125 5.644531 19 5.816406 19 6 Z M 19 6"/>
    <path d="M3.71875 14.675781L3.4375 14.957031C3.28125 15.113281 3.28125 15.367188 3.4375 15.523438 3.515625 15.601562 3.617188 15.640625 3.71875 15.640625 3.820312 15.640625 3.925781 15.601562 4.003906 15.523438L4.285156 15.242188C4.441406 15.085938 4.441406 14.832031 4.285156 14.675781 4.128906 14.519531 3.875 14.519531 3.71875 14.675781zM5.417969 15.808594C5.261719 15.652344 5.007812 15.652344 4.851562 15.808594L4.570312 16.089844C4.414062 16.246094 4.414062 16.5 4.570312 16.65625 4.648438 16.734375 4.75 16.773438 4.851562 16.773438 4.953125 16.773438 5.054688 16.734375 5.132812 16.65625L5.417969 16.371094C5.574219 16.214844 5.574219 15.964844 5.417969 15.808594zM5.699219 16.65625L5.417969 16.9375C5.261719 17.09375 5.261719 17.347656 5.417969 17.503906 5.496094 17.582031 5.597656 17.621094 5.699219 17.621094 5.800781 17.621094 5.90625 17.582031 5.984375 17.503906L6.265625 17.222656C6.421875 17.066406 6.421875 16.8125 6.265625 16.65625 6.109375 16.5 5.855469 16.5 5.699219 16.65625zM7.679688 18.070312C7.523438 17.914062 7.269531 17.914062 7.113281 18.070312L6.832031 18.351562C6.675781 18.507812 6.675781 18.761719 6.832031 18.917969 6.910156 18.996094 7.011719 19.035156 7.113281 19.035156 7.214844 19.035156 7.320312 18.996094 7.398438 18.917969L7.679688 18.636719C7.835938 18.480469 7.835938 18.226562 7.679688 18.070312zM8.527344 18.917969C8.371094 18.761719 8.121094 18.761719 7.960938 18.917969L7.679688 19.203125C7.523438 19.359375 7.523438 19.609375 7.679688 19.765625 7.757812 19.84375 7.859375 19.882812 7.960938 19.882812 8.066406 19.882812 8.167969 19.84375 8.246094 19.765625L8.527344 19.484375C8.683594 19.328125 8.683594 19.074219 8.527344 18.917969zM9.378906 20.332031C9.535156 20.175781 9.535156 19.921875 9.378906 19.765625 9.222656 19.609375 8.96875 19.609375 8.8125 19.765625L8.527344 20.050781C8.371094 20.207031 8.371094 20.460938 8.527344 20.617188 8.605469 20.695312 8.707031 20.734375 8.8125 20.734375 8.914062 20.734375 9.015625 20.695312 9.09375 20.617188zM9.378906 20.332031"/>
</svg>
