<svg xmlns="http://www.w3.org/2000/svg" width="32" height="32" viewBox="0 0 24 24">
    <path d="M24 6.941h-3.762v-1.62H9.996L8.781 2.081H0v19.836h20.238v-.355zm-1.043.809l-2.719 10.563V7.75zM.809 2.89h7.41L9.434 6.13h9.996v14.98H.809zm0 0"/>
    <path d="M2.43 19.488h9.715v-6.07H2.43zm.808-5.261h8.098v4.453H3.238zm0 0"/>
    <path d="M8.098 17.059H4.453a.408.408 0 0 0-.406.406c0 .223.183.406.406.406h3.645a.405.405 0 0 0 .402-.406.405.405 0 0 0-.402-.406zm0 0M4.453 15.844H6.07c.227 0 .407-.18.407-.403a.406.406 0 0 0-.407-.406H4.453a.408.408 0 0 0-.406.406c0 .223.183.403.406.403zm0 0M10.121 15.035H9.31a.405.405 0 0 0 0 .809h.812a.405.405 0 0 0 0-.809zm0 0M9.426 17.176a.436.436 0 0 0-.117.289c0 .11.046.21.117.281.078.078.18.125.289.125.105 0 .21-.047.289-.117a.444.444 0 0 0 .117-.29.444.444 0 0 0-.117-.288.43.43 0 0 0-.578 0zm0 0M7.691 15.844a.409.409 0 0 0 .407-.403c0-.109-.047-.21-.121-.289a.426.426 0 0 0-.575 0 .444.444 0 0 0-.117.29c0 .105.047.21.117.285a.425.425 0 0 0 .29.117zm0 0"/>
</svg>
