<svg xmlns="http://www.w3.org/2000/svg" width="32" height="32" viewBox="0 0 24 24">
    <path d="M11.996 20.805c4.852 0 8.8-3.95 8.8-8.801 0-4.856-3.948-8.805-8.8-8.805-4.851 0-8.8 3.95-8.8 8.805 0 4.851 3.949 8.8 8.8 8.8zm0-16.805c4.41 0 8 3.59 8 8.004 0 4.41-3.59 8-8 8s-8-3.59-8-8c0-4.414 3.59-8.004 8-8.004zm0 0"/>
    <path d="M11.996 6c.223 0 .399-.18.399-.398V4.8a.395.395 0 0 0-.399-.399.395.395 0 0 0-.398.399v.8c0 .22.175.399.398.399zm0 0M11.996 18.004a.398.398 0 0 0-.398.398v.801c0 .223.175.399.398.399a.395.395 0 0 0 .399-.399v-.8a.398.398 0 0 0-.399-.4zm0 0M18.398 12.402h.797a.401.401 0 1 0 0-.8h-.797a.401.401 0 0 0 0 .8zm0 0M5.594 11.602h-.801a.401.401 0 0 0 0 .8h.8a.401.401 0 1 0 0-.8zm0 0M7.594 16.402c.105 0 .207-.039.285-.117l3.309-3.308c.238.14.511.226.808.226.883 0 1.602-.719 1.602-1.601 0-.743-.512-1.364-1.203-1.543V8a.398.398 0 1 0-.797 0v2.059c-.692.18-1.203.8-1.203 1.543 0 .296.085.57.226.808L7.312 15.72a.4.4 0 0 0 .282.683zm4.402-5.601a.802.802 0 0 1 0 1.601.802.802 0 0 1 0-1.601zm0 0"/>
    <path d="M4.027 4h3.168c.223 0 .399-.18.399-.398a.398.398 0 0 0-.399-.403h-2.12A11.13 11.13 0 0 1 11.995.801C18.172.8 23.2 5.824 23.2 12.004a.4.4 0 0 0 .801 0C24 5.383 18.613 0 11.996 0a11.95 11.95 0 0 0-7.601 2.723V.398a.4.4 0 0 0-.801 0V4h.36c.023.004.05.004.073 0zm0 0M1.922 16.895a.399.399 0 0 0-.535-.184.398.398 0 0 0-.184.535.4.4 0 0 0 .36.227.4.4 0 0 0 .171-.043.4.4 0 0 0 .188-.535zm0 0M3.14 18.86a.394.394 0 0 0-.558-.07.395.395 0 0 0-.07.558c.078.105.199.156.316.156a.397.397 0 0 0 .313-.645zm0 0M2.48 17.906a.402.402 0 0 0-.55-.129.409.409 0 0 0-.13.555.409.409 0 0 0 .555.129.403.403 0 0 0 .125-.555zm0 0M3.336 19.723a.4.4 0 0 0-.012.566.387.387 0 0 0 .285.121.397.397 0 0 0 .29-.676.396.396 0 0 0-.563-.011zm0 0M4.18 20.574a.402.402 0 0 0 .043.567.406.406 0 0 0 .261.093c.11 0 .223-.047.301-.14a.397.397 0 0 0-.043-.563.397.397 0 0 0-.562.043zm0 0M.84 15.21a.404.404 0 0 0 .289-.487.402.402 0 0 0-.488-.29.395.395 0 0 0-.286.485.4.4 0 0 0 .485.293zm0 0M.566 14.04a.4.4 0 1 0-.054.003c.02 0 .035 0 .054-.004zm0 0M1.465 15.832a.396.396 0 0 0-.512-.242.396.396 0 0 0-.234.512c.054.164.21.265.37.265a.396.396 0 0 0 .375-.535zm0 0M.402 12.852h.016c.219-.012.39-.2.383-.418a.4.4 0 0 0-.414-.383.395.395 0 0 0-.383.414c.008.21.187.387.398.387zm0 0M5.105 21.34a.4.4 0 0 0 .329.625.4.4 0 0 0 .23-.73.405.405 0 0 0-.559.105zm0 0M19.574 20.246v-.004a.402.402 0 0 0 .27.7.401.401 0 0 0 .293-.672.393.393 0 0 0-.563-.024zm0 0M20.387 19.418a.401.401 0 0 0 .031.566.397.397 0 0 0 .262.098.383.383 0 0 0 .3-.137.397.397 0 1 0-.593-.527zm0 0M21.105 18.512c-.128.18-.09.43.094.558.07.055.149.078.23.078a.415.415 0 0 0 .329-.168.406.406 0 0 0-.094-.562.408.408 0 0 0-.559.094zm0 0M18.68 20.984a.399.399 0 0 0-.078.559c.074.11.195.16.32.16a.39.39 0 0 0 .234-.074.401.401 0 1 0-.476-.645zm0 0M17.719 21.629a.393.393 0 0 0-.137.547c.07.129.207.195.344.195a.397.397 0 0 0 .34-.602.397.397 0 0 0-.547-.14zm0 0M22.277 17.387a.403.403 0 0 0-.547.152h.004a.393.393 0 0 0 .149.543.396.396 0 0 0 .543-.148.4.4 0 0 0-.149-.547zm0 0M23.578 12.8a.4.4 0 1 0-.086.797h.047a.399.399 0 0 0 .04-.797zm0 0M23.434 13.992a.398.398 0 0 0-.473.309.396.396 0 0 0 .394.48.39.39 0 0 0 .387-.312.402.402 0 0 0-.308-.477zm0 0M23.164 15.164a.394.394 0 0 0-.5.258.405.405 0 0 0 .258.504c.039.011.082.015.125.015a.397.397 0 0 0 .117-.777zm0 0M22.781 16.297a.401.401 0 0 0-.527.207.395.395 0 0 0 .203.527.396.396 0 0 0 .527-.203.404.404 0 0 0-.203-.531zm0 0M16.695 22.172a.396.396 0 0 0 .168.758.397.397 0 0 0 .363-.566.395.395 0 0 0-.53-.192zm0 0M9.906 23.008a.399.399 0 0 0-.465.32.4.4 0 0 0 .317.469c.027.004.05.004.074.004a.4.4 0 0 0 .074-.793zm0 0M11.055 23.164a.396.396 0 0 0-.43.363.4.4 0 0 0 .363.438v-.004a.097.097 0 0 0 .032.004.4.4 0 0 0 .398-.371.395.395 0 0 0-.363-.43zm0 0M8.785 22.734a.403.403 0 0 0-.5.266.402.402 0 0 0 .266.5.4.4 0 0 0 .5-.27.395.395 0 0 0-.266-.496zm0 0M7.691 22.344a.395.395 0 0 0-.52.215.4.4 0 0 0 .212.527.44.44 0 0 0 .156.027.4.4 0 0 0 .152-.77zm0 0M13.367 23.121a.398.398 0 0 0 .051.793c.016 0 .031 0 .047-.004v.004a.4.4 0 0 0 .348-.445.393.393 0 0 0-.446-.348zm0 0M15.621 22.605a.399.399 0 0 0-.25.508.403.403 0 0 0 .379.266.546.546 0 0 0 .133-.02c.207-.07.316-.3.246-.507a.395.395 0 0 0-.508-.247zm0 0M14.508 22.918a.402.402 0 0 0-.301.48c.043.184.211.309.39.309.032 0 .06 0 .09-.008a.4.4 0 0 0-.18-.781zm0 0M12.21 23.2a.401.401 0 0 0 .009.8h.008a.401.401 0 0 0-.016-.8zm0 0M6.648 21.844a.401.401 0 0 0-.546.16.4.4 0 0 0 .164.539.383.383 0 0 0 .187.055.404.404 0 0 0 .356-.215.395.395 0 0 0-.16-.54zm0 0"/>
</svg>
