<svg xmlns="http://www.w3.org/2000/svg" width="32" height="32" viewBox="0 0 24 24">
    <path d="M6.633 4.012c.164.472.601.789 1.094.789h2.972c.492 0 .93-.317 1.094-.79.152-.449.64-1.456 1.02-1.777.332-.28.488-.718.406-1.136a1.14 1.14 0 0 0-.774-.875C11.246-.176 10.18-.04 9.367.609a.383.383 0 0 1-.488 0C8.066-.039 7-.176 5.8.223c-.403.132-.692.46-.774.875-.082.418.075.855.407 1.136.43.364 1.086 1.442 1.199 1.778zm-.82-2.762A.342.342 0 0 1 6.05.984 3.261 3.261 0 0 1 7.09.801c.496 0 .926.144 1.289.433.437.352 1.05.352 1.488 0 .602-.48 1.383-.562 2.328-.25a.342.342 0 0 1 .239.266.4.4 0 0 1-.137.375c-.613.516-1.16 1.828-1.262 2.125A.363.363 0 0 1 10.7 4H7.727a.363.363 0 0 1-.336-.25c-.164-.48-.907-1.676-1.438-2.125a.395.395 0 0 1-.14-.375zm0 0M12.613 5.598a.4.4 0 0 0-.398-.399.413.413 0 0 0-.203.063.387.387 0 0 0-.2-.063h-4.8a.4.4 0 0 0 0 .801h4.8v.398H7.415a.401.401 0 0 0 0 .8l4.77.001c.359.297.8.469 1.27.469.534 0 1.038-.207 1.417-.586a.4.4 0 0 0-.566-.566c-.453.453-1.235.453-1.692.007zm0 0M8.613 10.398c-2.566 0-5.601 3.254-5.601 6a.401.401 0 0 0 .8 0c0-2.28 2.692-5.199 4.801-5.199a.4.4 0 0 0 0-.8zm0 0"/>
    <path d="M19.813 12.8c-.41 0-.903.024-1.399.079a7.966 7.966 0 0 0-2.144-2.52L13.387 8.4c-.477-.364-1.227-.801-2.098-.801H8.18a3.47 3.47 0 0 0-2.12.73l-2.832 2.063c-2.95 2.32-3.883 6.386-2.22 9.668.606 1.195 1.618 2.636 3 2.73.11.008.22.012.329.012h7.785a3.188 3.188 0 0 0 5.227-.348c.715.223 1.593.348 2.465.348 1.925 0 4-.613 4-1.602V19h-.032a.706.706 0 0 0 .032-.2v-4.6c0-1.106-2.512-1.4-4-1.4zm3.171 1.395l-.027.028c-.016.011-.035.023-.055.039-.027.015-.058.035-.093.05-.032.016-.059.032-.094.043-.043.02-.09.04-.14.06l-.13.046a1.98 1.98 0 0 1-.195.055l-.16.046c-.078.02-.164.036-.25.051a2.465 2.465 0 0 1-.195.04c-.094.019-.204.03-.31.046a3.55 3.55 0 0 1-.214.031l-.406.036c-.07.004-.133.011-.207.015a12.912 12.912 0 0 1-1.39 0c-.075-.004-.141-.011-.212-.015l-.402-.036c-.078-.007-.145-.02-.215-.03-.11-.016-.215-.028-.312-.048a3.453 3.453 0 0 1-.196-.039c-.082-.015-.168-.031-.246-.05l-.164-.047a2.238 2.238 0 0 1-.191-.055l-.13-.047c-.05-.02-.1-.039-.14-.059a.521.521 0 0 1-.094-.043c-.035-.015-.066-.035-.093-.05-.02-.016-.04-.028-.055-.04-.012-.007-.016-.015-.023-.023l.011-.011a1.055 1.055 0 0 1 .18-.11c.023-.012.05-.027.082-.039.031-.016.066-.027.102-.043.043-.016.09-.035.14-.05.035-.012.07-.024.113-.036.09-.027.188-.055.293-.082.051-.012.11-.02.16-.031.067-.016.133-.027.204-.043l.246-.04c.453-.066.992-.112 1.637-.112 1.89 0 2.945.386 3.171.593zm-6.101 3.293c.035.016.074.028.113.043.067.028.14.055.211.078.04.012.078.028.117.04.086.027.172.05.262.074l.094.023c.12.031.242.059.37.086l.083.012c.101.02.203.039.308.054.043.004.09.012.137.016.09.016.18.023.27.035l.144.012.285.023c.043 0 .086.004.125.004a7.187 7.187 0 0 0 .82 0c.044 0 .087-.004.13-.004l.28-.023.15-.012c.09-.012.179-.02.265-.031.047-.008.094-.016.14-.02.102-.015.204-.035.305-.05.028-.008.059-.012.086-.016.125-.027.25-.055.371-.086l.098-.023c.086-.024.172-.051.254-.075.043-.011.082-.027.12-.039.071-.027.145-.05.212-.078.039-.015.074-.031.113-.043a3.25 3.25 0 0 0 .203-.097c.024-.008.047-.02.067-.028v1.407c-.094.23-1.125.738-2.758.816-.145.008-.285.016-.445.016-.88 0-1.75-.137-2.415-.375-.003-.004-.007-.008-.007-.012-.051-.082-.098-.164-.153-.238-.008-.012-.02-.024-.027-.036a2 2 0 0 0-.156-.203c-.016-.02-.035-.039-.051-.058l-.152-.164a.781.781 0 0 0-.086-.075c-.047-.043-.09-.086-.141-.125l-.012-.011v-.942c.02.012.047.02.067.032l.203.093zM11.598 22H4.336c-.094 0-.184-.004-.277-.008-.786-.055-1.618-.87-2.34-2.297-1.492-2.941-.649-6.59 1.992-8.668l2.828-2.062a2.677 2.677 0 0 1 1.64-.567h3.11c.649 0 1.234.348 1.629.649l2.883 1.96a7.03 7.03 0 0 1 1.777 2c-.508.102-.996.263-1.332.497-.008.008-.02.012-.027.02-.051.035-.098.074-.14.117-.02.015-.036.035-.052.05a.755.755 0 0 0-.136.207.588.588 0 0 0-.043.086.797.797 0 0 0-.036.215v3.637a3.489 3.489 0 0 0-.417-.137l-.055-.012a3.187 3.187 0 0 0-.43-.074h-.05a2.594 2.594 0 0 0-.247-.011l-.129.003c-.035.004-.07.004-.101.008a2.492 2.492 0 0 0-.422.055h-.008c-.012.004-.02.008-.031.008a3.044 3.044 0 0 0-.367.11c-.043.015-.086.026-.13.046a3.089 3.089 0 0 0-.347.16c-.039.024-.078.051-.121.074a2.87 2.87 0 0 0-.227.153l-.128.093c-.094.079-.184.16-.27.247-.035.035-.07.078-.105.117a4.39 4.39 0 0 0-.172.207c-.028.039-.059.078-.086.117a3.363 3.363 0 0 0-.38.754c-.007.031-.019.058-.03.09-.04.133-.07.27-.094.406-.004.016-.012.035-.012.05-.004.024-.004.048-.008.067-.011.094-.02.192-.023.285-.004.035-.008.07-.008.106v.043c0 .062.004.125.008.187.015.344.074.692.176 1.012zm3.015 1.2a2.403 2.403 0 0 1-2.398-2.372c0-.031 0-.062.004-.094 0-.043 0-.086.004-.129l.011-.109c.004-.039.012-.074.02-.113.016-.102.039-.207.07-.305l.012-.031a2.427 2.427 0 0 1 .133-.32c.219-.426.558-.782.969-1.016l.003-.004c.094-.055.196-.098.293-.137l.079-.03c.09-.032.18-.06.273-.08a.491.491 0 0 1 .039-.01c.113-.024.23-.036.348-.044.02 0 .043 0 .066-.004a2.647 2.647 0 0 1 .371.02c.121.015.242.039.36.074h.007a2.512 2.512 0 0 1 .672.313l.016.011c.015.008.027.02.039.028.066.047.133.097.191.152a2.534 2.534 0 0 1 .234.238c.13.149.239.309.329.485l.058.125c.028.066.055.14.079.21.003.005.003.012.007.016.024.07.04.145.055.219l.008.02c.015.07.023.148.035.222v.02c.012.082.016.164.016.246 0 .082-.008.168-.016.254 0 .011-.004.023-.004.035-.012.07-.02.144-.035.215-.004.008-.004.015-.008.023a1.495 1.495 0 0 1-.062.227c0 .004 0 .004-.004.008a2.404 2.404 0 0 1-2.273 1.637zm5.2-1.2a7.874 7.874 0 0 1-2.133-.281v-.004c.039-.13.066-.262.09-.399l.011-.097a2.966 2.966 0 0 0 .016-.727.921.921 0 0 0-.016-.11 2.133 2.133 0 0 0-.02-.155c.606.113 1.313.171 2.052.171.957 0 2.34-.12 3.203-.503v1.277c-.102.246-1.317.828-3.203.828zm0-4.8c-1.88 0-3.09-.575-3.196-.798v-1.304a3.423 3.423 0 0 0 .332.125c.008.004.012.004.02.007.11.036.222.067.34.094a28.062 28.062 0 0 0 .379.086l.128.024a23.762 23.762 0 0 0 .387.058c.129.02.258.035.387.047.031.004.062.004.094.008l.293.023c.043.004.085.004.125.008l.261.012c.04 0 .075.004.11.004.117.004.23.004.34.004.109 0 .222 0 .34-.004.035 0 .074-.004.109-.004l.261-.012c.043-.004.082-.004.125-.008l.293-.023c.036-.004.067-.008.098-.008.129-.016.258-.027.387-.047l.094-.012.293-.046c.042-.008.085-.02.128-.028a5.154 5.154 0 0 0 .38-.082c.116-.031.234-.062.347-.097.004 0 .008-.004.016-.004a4.299 4.299 0 0 0 .332-.13l.004 1.278c-.106.246-1.32.828-3.207.828zm0 0"/>
</svg>
