<svg xmlns="http://www.w3.org/2000/svg" width="32" height="32" viewBox="0 0 24 24">
    <path d="M23.223 2.434h-4.305L15.465.492A.443.443 0 0 0 14.8.88v.355h-3.2v1.2H.778A.777.777 0 0 0 0 3.21v17.644c0 .43.348.778.777.778h.024v1.601h4v-1.601h6.8v1.199h3.2v.29c0 .155.086.304.222.382a.427.427 0 0 0 .441.004l3.337-1.875h.398v1.601h4v-1.601h.024c.43 0 .777-.348.777-.778V3.211a.777.777 0 0 0-.777-.777zM4 22.434H1.602v-.801H4zm.8-1.586v-.016h-4v.023L.778 3.235h10.825v.796H2.539a.939.939 0 0 0-.937.942v14.12c0 .52.418.938.937.938h9.063v.801zm6.802-12.016h-1.204V5.234H3.2v3.598h-.8v-3.86a.14.14 0 0 1 .14-.14h9.063zM4 17.632h1.602v.4H4zm1.602-.8H4v-.398h1.602zm-1.602 2h1.602v.402H4zm2.398-2.398H7.2v2.8h-.8zM8 17.633h1.602v.398H8zm1.602-.801H8v-.398h1.602zm-1.602 2h1.602v.402H8zm2.398-3.2H3.2v3.602h-.66a.14.14 0 0 1-.14-.14v-4.262h9.203v4.402h-1.204zm-.796-2.8H8v-.398h1.602zm-1.602.8h1.602v.4H8zm1.602-2H8v-.398h1.602zm-2.403 2.4h-.8v-2.798h.8zM4 12.433h1.602v.398H4zm1.602-.801H4v-.399h1.602zm-1.602 2h1.602v.398H4zm7.602.398h-1.204v-3.597H3.2v3.597h-.8V9.633h9.203zm-2-6.398H8v-.399h1.602zM8 8.433h1.602v.399H8zm1.602-2H8v-.402h1.602zM7.199 8.833h-.8v-2.8h.8zM4 7.234h1.602v.399H4zm1.602-.8H4V6.03h1.602zM4 8.434h1.602v.398H4zm8.398 13.597v-20h2.403v20zm3.204-20.547l1.687.95h-.059l3.97 2.234v1.363a.401.401 0 0 0 0 .801v.402a.398.398 0 1 0 0 .797v8a.401.401 0 0 0 0 .801v.402a.398.398 0 1 0 0 .797v1.336l-5.598 3.149zm6.796 20.95H20v-.801h2.398zm.801-1.602h-2.918L22 19.867v-1.836h.398a.398.398 0 1 0 0-.797H22v-.402h.398a.398.398 0 0 0 .403-.398.402.402 0 0 0-.403-.403H22v-8h.398a.398.398 0 1 0 0-.797H22v-.402h.398a.398.398 0 0 0 .403-.398.402.402 0 0 0-.403-.403H22V4.164l-1.672-.937L23.2 3.21l.024 17.621zm0 0"/>
    <path d="M14 2.8a.4.4 0 1 1-.8-.003.4.4 0 0 1 .8.004zm0 0M14 5.2c0 .222-.18.398-.398.398a.398.398 0 1 1 0-.797.4.4 0 0 1 .398.398zm0 0M14 18.8a.4.4 0 1 1-.8-.003.4.4 0 0 1 .8.004zm0 0M14 16.398a.401.401 0 1 1-.802.003.401.401 0 0 1 .802-.003zm0 0M14 7.598a.401.401 0 1 1-.802.002.401.401 0 0 1 .802-.002zm0 0M14 21.2c0 .222-.18.398-.398.398a.398.398 0 1 1 0-.797.4.4 0 0 1 .398.398zm0 0M16.398 14a.4.4 0 0 0 0 .8c.887 0 1.606-.718 1.606-1.605v-2.39c0-.887-.719-1.606-1.606-1.606a.401.401 0 0 0 0 .801c.446 0 .805.36.805.805v2.39c0 .446-.36.805-.805.805zm0 0"/>
    <path d="M16.398 7.602a.398.398 0 1 0 0 .796 2.407 2.407 0 0 1 2.407 2.407v2.39a2.41 2.41 0 0 1-2.407 2.407.398.398 0 1 0 0 .796 3.208 3.208 0 0 0 3.207-3.203v-2.39a3.208 3.208 0 0 0-3.207-3.203zm0 0"/>
</svg>
