<svg xmlns="http://www.w3.org/2000/svg" width="32" height="32" viewBox="0 0 24 24">
    <path d="M 18.398438 12 C 18.398438 13.101562 19.296875 14 20.398438 14 C 21.503906 14 22.398438 13.101562 22.398438 12 C 22.398438 10.898438 21.503906 10 20.398438 10 C 19.296875 10 18.398438 10.898438 18.398438 12 Z M 21.601562 12 C 21.601562 12.660156 21.0625 13.199219 20.398438 13.199219 C 19.738281 13.199219 19.199219 12.660156 19.199219 12 C 19.199219 11.339844 19.738281 10.800781 20.398438 10.800781 C 21.0625 10.800781 21.601562 11.339844 21.601562 12 Z M 21.601562 12"/>
    <path d="M 22.609375 2.398438 L 1.390625 2.398438 C 0.625 2.398438 0 3.023438 0 3.789062 L 0 20.210938 C 0 20.976562 0.625 21.601562 1.390625 21.601562 L 22.609375 21.601562 C 23.375 21.601562 24 20.976562 24 20.210938 L 24 3.789062 C 24 3.023438 23.375 2.398438 22.609375 2.398438 Z M 1.390625 20.800781 C 1.066406 20.800781 0.800781 20.535156 0.800781 20.210938 L 0.800781 3.789062 C 0.800781 3.464844 1.066406 3.199219 1.390625 3.199219 L 20.210938 3.199219 C 20.535156 3.199219 20.800781 3.464844 20.800781 3.789062 L 20.800781 8.398438 L 20.398438 8.398438 C 18.414062 8.398438 16.800781 10.015625 16.800781 12 C 16.800781 13.984375 18.414062 15.601562 20.398438 15.601562 L 20.800781 15.601562 L 20.800781 20.210938 C 20.800781 20.535156 20.535156 20.800781 20.210938 20.800781 Z M 23.199219 20.210938 C 23.199219 20.535156 22.933594 20.800781 22.609375 20.800781 L 21.46875 20.800781 C 21.472656 20.792969 21.472656 20.785156 21.476562 20.777344 C 21.503906 20.71875 21.519531 20.65625 21.539062 20.59375 C 21.546875 20.5625 21.558594 20.535156 21.566406 20.503906 C 21.589844 20.410156 21.601562 20.3125 21.601562 20.210938 L 21.601562 15.601562 L 23.199219 15.601562 Z M 23.199219 14.800781 L 20.398438 14.800781 C 18.855469 14.800781 17.601562 13.542969 17.601562 12 C 17.601562 10.457031 18.855469 9.199219 20.398438 9.199219 L 23.199219 9.199219 Z M 21.601562 8.398438 L 21.601562 3.789062 C 21.601562 3.6875 21.589844 3.589844 21.566406 3.496094 C 21.558594 3.464844 21.546875 3.4375 21.539062 3.40625 C 21.519531 3.34375 21.503906 3.28125 21.476562 3.222656 C 21.472656 3.214844 21.472656 3.207031 21.46875 3.199219 L 22.609375 3.199219 C 22.933594 3.199219 23.199219 3.464844 23.199219 3.789062 L 23.199219 8.398438 Z M 21.601562 8.398438"/>
    <path d="M19.316406 16.453125C19.242188 16.523438 19.199219 16.628906 19.199219 16.730469 19.199219 16.839844 19.242188 16.941406 19.316406 17.015625 19.390625 17.089844 19.496094 17.132812 19.601562 17.132812 19.703125 17.132812 19.808594 17.089844 19.882812 17.015625 19.957031 16.941406 20 16.839844 20 16.730469 20 16.628906 19.957031 16.523438 19.882812 16.453125 19.730469 16.300781 19.464844 16.300781 19.316406 16.453125zM19.601562 17.769531C19.378906 17.769531 19.199219 17.945312 19.199219 18.167969 19.199219 18.386719 19.378906 18.566406 19.601562 18.566406 19.820312 18.566406 20 18.386719 20 18.167969 20 17.945312 19.820312 17.769531 19.601562 17.769531zM19.316406 19.316406C19.242188 19.390625 19.199219 19.496094 19.199219 19.601562 19.199219 19.703125 19.242188 19.808594 19.316406 19.878906 19.390625 19.957031 19.492188 20 19.601562 20 19.703125 20 19.808594 19.957031 19.882812 19.882812 19.957031 19.808594 20 19.703125 20 19.601562 20 19.496094 19.957031 19.390625 19.882812 19.316406 19.730469 19.167969 19.464844 19.167969 19.316406 19.316406zM10.398438 19.601562C10.398438 19.820312 10.222656 20 10 20 9.777344 20 9.601562 19.820312 9.601562 19.601562 9.601562 19.378906 9.777344 19.199219 10 19.199219 10.222656 19.199219 10.398438 19.378906 10.398438 19.601562zM8.800781 19.601562C8.800781 19.820312 8.621094 20 8.398438 20 8.179688 20 8 19.820312 8 19.601562 8 19.378906 8.179688 19.199219 8.398438 19.199219 8.621094 19.199219 8.800781 19.378906 8.800781 19.601562zM12 19.601562C12 19.820312 11.820312 20 11.601562 20 11.378906 20 11.199219 19.820312 11.199219 19.601562 11.199219 19.378906 11.378906 19.199219 11.601562 19.199219 11.820312 19.199219 12 19.378906 12 19.601562zM5.601562 19.601562C5.601562 19.820312 5.421875 20 5.199219 20 4.980469 20 4.800781 19.820312 4.800781 19.601562 4.800781 19.378906 4.980469 19.199219 5.199219 19.199219 5.421875 19.199219 5.601562 19.378906 5.601562 19.601562zM4 19.601562C4 19.820312 3.820312 20 3.601562 20 3.378906 20 3.199219 19.820312 3.199219 19.601562 3.199219 19.378906 3.378906 19.199219 3.601562 19.199219 3.820312 19.199219 4 19.378906 4 19.601562zM7.199219 19.601562C7.199219 19.820312 7.019531 20 6.800781 20 6.578125 20 6.398438 19.820312 6.398438 19.601562 6.398438 19.378906 6.578125 19.199219 6.800781 19.199219 7.019531 19.199219 7.199219 19.378906 7.199219 19.601562zM16.800781 19.601562C16.800781 19.820312 16.621094 20 16.398438 20 16.179688 20 16 19.820312 16 19.601562 16 19.378906 16.179688 19.199219 16.398438 19.199219 16.621094 19.199219 16.800781 19.378906 16.800781 19.601562zM13.601562 19.601562C13.601562 19.820312 13.421875 20 13.199219 20 12.980469 20 12.800781 19.820312 12.800781 19.601562 12.800781 19.378906 12.980469 19.199219 13.199219 19.199219 13.421875 19.199219 13.601562 19.378906 13.601562 19.601562zM18.398438 19.601562C18.398438 19.820312 18.222656 20 18 20 17.777344 20 17.601562 19.820312 17.601562 19.601562 17.601562 19.378906 17.777344 19.199219 18 19.199219 18.222656 19.199219 18.398438 19.378906 18.398438 19.601562zM15.199219 19.601562C15.199219 19.820312 15.019531 20 14.800781 20 14.578125 20 14.398438 19.820312 14.398438 19.601562 14.398438 19.378906 14.578125 19.199219 14.800781 19.199219 15.019531 19.199219 15.199219 19.378906 15.199219 19.601562zM1.714844 19.316406C1.644531 19.390625 1.601562 19.496094 1.601562 19.601562 1.601562 19.703125 1.644531 19.808594 1.714844 19.882812 1.792969 19.957031 1.894531 20 2 20 2.105469 20 2.207031 19.957031 2.285156 19.882812 2.355469 19.808594 2.398438 19.703125 2.398438 19.601562 2.398438 19.496094 2.355469 19.390625 2.285156 19.316406 2.132812 19.167969 1.867188 19.167969 1.714844 19.316406zM2.398438 5.921875C2.398438 6.140625 2.222656 6.320312 2 6.320312 1.777344 6.320312 1.601562 6.140625 1.601562 5.921875 1.601562 5.699219 1.777344 5.519531 2 5.519531 2.222656 5.519531 2.398438 5.699219 2.398438 5.921875zM2.398438 7.441406C2.398438 7.660156 2.222656 7.839844 2 7.839844 1.777344 7.839844 1.601562 7.660156 1.601562 7.441406 1.601562 7.21875 1.777344 7.039062 2 7.039062 2.222656 7.039062 2.398438 7.21875 2.398438 7.441406zM2.398438 13.519531C2.398438 13.742188 2.222656 13.921875 2 13.921875 1.777344 13.921875 1.601562 13.742188 1.601562 13.519531 1.601562 13.300781 1.777344 13.121094 2 13.121094 2.222656 13.121094 2.398438 13.300781 2.398438 13.519531zM2.398438 10.480469C2.398438 10.699219 2.222656 10.878906 2 10.878906 1.777344 10.878906 1.601562 10.699219 1.601562 10.480469 1.601562 10.257812 1.777344 10.078125 2 10.078125 2.222656 10.078125 2.398438 10.257812 2.398438 10.480469zM2.398438 8.960938C2.398438 9.179688 2.222656 9.359375 2 9.359375 1.777344 9.359375 1.601562 9.179688 1.601562 8.960938 1.601562 8.738281 1.777344 8.558594 2 8.558594 2.222656 8.558594 2.398438 8.738281 2.398438 8.960938zM2.398438 15.039062C2.398438 15.261719 2.222656 15.441406 2 15.441406 1.777344 15.441406 1.601562 15.261719 1.601562 15.039062 1.601562 14.820312 1.777344 14.640625 2 14.640625 2.222656 14.640625 2.398438 14.820312 2.398438 15.039062zM2.398438 12C2.398438 12.222656 2.222656 12.398438 2 12.398438 1.777344 12.398438 1.601562 12.222656 1.601562 12 1.601562 11.777344 1.777344 11.601562 2 11.601562 2.222656 11.601562 2.398438 11.777344 2.398438 12zM2.398438 16.558594C2.398438 16.78125 2.222656 16.960938 2 16.960938 1.777344 16.960938 1.601562 16.78125 1.601562 16.558594 1.601562 16.339844 1.777344 16.160156 2 16.160156 2.222656 16.160156 2.398438 16.339844 2.398438 16.558594zM2.398438 18.078125C2.398438 18.300781 2.222656 18.480469 2 18.480469 1.777344 18.480469 1.601562 18.300781 1.601562 18.078125 1.601562 17.859375 1.777344 17.679688 2 17.679688 2.222656 17.679688 2.398438 17.859375 2.398438 18.078125zM1.714844 4.117188C1.644531 4.191406 1.601562 4.292969 1.601562 4.398438 1.601562 4.503906 1.644531 4.609375 1.714844 4.679688 1.792969 4.757812 1.890625 4.800781 2 4.800781 2.105469 4.800781 2.207031 4.757812 2.285156 4.683594 2.355469 4.609375 2.398438 4.503906 2.398438 4.398438 2.398438 4.296875 2.355469 4.191406 2.285156 4.117188 2.132812 3.96875 1.863281 3.96875 1.714844 4.117188zM16.800781 4.398438C16.800781 4.621094 16.621094 4.800781 16.398438 4.800781 16.179688 4.800781 16 4.621094 16 4.398438 16 4.179688 16.179688 4 16.398438 4 16.621094 4 16.800781 4.179688 16.800781 4.398438zM18.398438 4.398438C18.398438 4.621094 18.222656 4.800781 18 4.800781 17.777344 4.800781 17.601562 4.621094 17.601562 4.398438 17.601562 4.179688 17.777344 4 18 4 18.222656 4 18.398438 4.179688 18.398438 4.398438zM12 4.398438C12 4.621094 11.820312 4.800781 11.601562 4.800781 11.378906 4.800781 11.199219 4.621094 11.199219 4.398438 11.199219 4.179688 11.378906 4 11.601562 4 11.820312 4 12 4.179688 12 4.398438zM13.601562 4.398438C13.601562 4.621094 13.421875 4.800781 13.199219 4.800781 12.980469 4.800781 12.800781 4.621094 12.800781 4.398438 12.800781 4.179688 12.980469 4 13.199219 4 13.421875 4 13.601562 4.179688 13.601562 4.398438zM10.398438 4.398438C10.398438 4.621094 10.222656 4.800781 10 4.800781 9.777344 4.800781 9.601562 4.621094 9.601562 4.398438 9.601562 4.179688 9.777344 4 10 4 10.222656 4 10.398438 4.179688 10.398438 4.398438zM15.199219 4.398438C15.199219 4.621094 15.019531 4.800781 14.800781 4.800781 14.578125 4.800781 14.398438 4.621094 14.398438 4.398438 14.398438 4.179688 14.578125 4 14.800781 4 15.019531 4 15.199219 4.179688 15.199219 4.398438zM7.199219 4.398438C7.199219 4.621094 7.019531 4.800781 6.800781 4.800781 6.578125 4.800781 6.398438 4.621094 6.398438 4.398438 6.398438 4.179688 6.578125 4 6.800781 4 7.019531 4 7.199219 4.179688 7.199219 4.398438zM5.601562 4.398438C5.601562 4.621094 5.421875 4.800781 5.199219 4.800781 4.980469 4.800781 4.800781 4.621094 4.800781 4.398438 4.800781 4.179688 4.980469 4 5.199219 4 5.421875 4 5.601562 4.179688 5.601562 4.398438zM4 4.398438C4 4.621094 3.820312 4.800781 3.601562 4.800781 3.378906 4.800781 3.199219 4.621094 3.199219 4.398438 3.199219 4.179688 3.378906 4 3.601562 4 3.820312 4 4 4.179688 4 4.398438zM8.800781 4.398438C8.800781 4.621094 8.621094 4.800781 8.398438 4.800781 8.179688 4.800781 8 4.621094 8 4.398438 8 4.179688 8.179688 4 8.398438 4 8.621094 4 8.800781 4.179688 8.800781 4.398438zM19.601562 4.800781C19.703125 4.800781 19.808594 4.757812 19.882812 4.683594 19.957031 4.609375 20 4.503906 20 4.398438 20 4.292969 19.957031 4.191406 19.882812 4.117188 19.730469 3.96875 19.464844 3.96875 19.316406 4.117188 19.242188 4.191406 19.199219 4.296875 19.199219 4.398438 19.199219 4.503906 19.242188 4.609375 19.316406 4.679688 19.390625 4.757812 19.492188 4.800781 19.601562 4.800781zM19.601562 6.230469C19.820312 6.230469 20 6.054688 20 5.832031 20 5.613281 19.820312 5.4375 19.601562 5.4375 19.378906 5.4375 19.199219 5.613281 19.199219 5.832031 19.199219 6.054688 19.378906 6.230469 19.601562 6.230469zM19.601562 7.667969C19.707031 7.667969 19.808594 7.625 19.882812 7.546875 19.957031 7.476562 20 7.371094 20 7.269531 20 7.160156 19.957031 7.058594 19.882812 6.984375 19.734375 6.835938 19.464844 6.835938 19.320312 6.984375 19.242188 7.054688 19.199219 7.160156 19.199219 7.269531 19.199219 7.375 19.242188 7.476562 19.316406 7.546875 19.390625 7.625 19.492188 7.667969 19.601562 7.667969zM19.601562 7.667969"/>
</svg>
