<svg xmlns="http://www.w3.org/2000/svg" width="32" height="32" viewBox="0 0 24 24">
    <path d="M18.398 12c0 1.102.899 2 2 2 1.106 0 2-.898 2-2 0-1.102-.894-2-2-2-1.101 0-2 .898-2 2zm3.204 0a1.202 1.202 0 0 1-2.402 0 1.202 1.202 0 0 1 2.402 0zm0 0"/>
    <path d="M22.61 2.398H1.39C.626 2.398 0 3.023 0 3.79v16.422c0 .766.625 1.39 1.39 1.39h21.22c.765 0 1.39-.624 1.39-1.39V3.789c0-.766-.625-1.39-1.39-1.39zM1.39 20.801a.592.592 0 0 1-.59-.59V3.789c0-.324.266-.59.59-.59h18.82c.325 0 .59.266.59.59V8.4h-.402A3.604 3.604 0 0 0 16.801 12a3.604 3.604 0 0 0 3.597 3.602h.403v4.609c0 .324-.266.59-.59.59zm21.81-.59c0 .324-.266.59-.59.59h-1.141c.004-.008.004-.016.008-.024.027-.058.043-.12.062-.183.008-.032.02-.059.027-.09.024-.094.036-.192.036-.293V15.6h1.597zm0-5.41h-2.802A2.802 2.802 0 0 1 17.602 12c0-1.543 1.253-2.8 2.796-2.8H23.2zm-1.598-6.403V3.79c0-.102-.012-.2-.036-.293-.007-.031-.02-.058-.027-.09-.02-.062-.035-.125-.062-.183-.004-.008-.004-.016-.008-.024h1.14c.325 0 .59.266.59.59V8.4zm0 0"/>
    <path d="M19.316 16.453a.39.39 0 0 0-.117.277.402.402 0 0 0 .684.286.402.402 0 0 0 .117-.286.39.39 0 0 0-.117-.277.408.408 0 0 0-.567 0zm0 0M19.602 17.77a.398.398 0 1 0 0 .796.398.398 0 1 0 0-.797zm0 0M19.316 19.316a.409.409 0 0 0-.117.286.39.39 0 0 0 .117.277.39.39 0 0 0 .286.121.406.406 0 0 0 .28-.117.406.406 0 0 0 .118-.281.409.409 0 0 0-.117-.286.416.416 0 0 0-.567 0zm0 0M10.398 19.602a.398.398 0 1 1-.796 0 .398.398 0 1 1 .796 0zm0 0M8.8 19.602A.401.401 0 1 1 8 19.597a.401.401 0 0 1 .802.005zm0 0M12 19.602a.4.4 0 1 1-.8-.004.4.4 0 0 1 .8.004zm0 0M5.602 19.602a.401.401 0 1 1-.802-.005.401.401 0 0 1 .802.005zm0 0M4 19.602a.4.4 0 1 1-.8-.004.4.4 0 0 1 .8.004zm0 0M7.2 19.602a.4.4 0 1 1-.801-.004.4.4 0 0 1 .8.004zm0 0M16.8 19.602a.401.401 0 1 1-.801-.005.401.401 0 0 1 .802.005zm0 0M13.602 19.602a.401.401 0 1 1-.802-.005.401.401 0 0 1 .802.005zm0 0M18.398 19.602a.398.398 0 1 1-.796 0 .398.398 0 1 1 .796 0zm0 0M15.2 19.602a.4.4 0 1 1-.801-.004.4.4 0 0 1 .8.004zm0 0M1.715 19.316a.423.423 0 0 0-.113.286.42.42 0 0 0 .113.28c.078.075.18.118.285.118a.416.416 0 0 0 .285-.117.42.42 0 0 0 .113-.281.423.423 0 0 0-.113-.286.42.42 0 0 0-.57 0zm0 0M2.398 5.922a.398.398 0 1 1-.796 0 .398.398 0 1 1 .796 0zm0 0M2.398 7.441a.398.398 0 1 1-.796 0 .398.398 0 1 1 .796 0zm0 0M2.398 13.52a.398.398 0 1 1-.796 0 .398.398 0 1 1 .796 0zm0 0M2.398 10.48a.398.398 0 1 1-.796 0 .398.398 0 1 1 .796 0zm0 0M2.398 8.96a.398.398 0 1 1-.796 0 .398.398 0 1 1 .796 0zm0 0M2.398 15.04a.398.398 0 1 1-.796 0 .398.398 0 1 1 .796 0zm0 0M2.398 12a.395.395 0 0 1-.398.398.395.395 0 0 1-.398-.398c0-.223.175-.398.398-.398.223 0 .398.175.398.398zm0 0M2.398 16.559a.398.398 0 1 1-.796 0 .398.398 0 1 1 .796 0zm0 0M2.398 18.078a.398.398 0 1 1-.796 0 .398.398 0 1 1 .796 0zm0 0M1.715 4.117a.406.406 0 0 0 0 .563A.396.396 0 0 0 2 4.8a.416.416 0 0 0 .285-.116.423.423 0 0 0 .113-.286.42.42 0 0 0-.113-.28.42.42 0 0 0-.57 0zm0 0M16.8 4.398a.401.401 0 1 1 0 0zm0 0M18.398 4.398a.398.398 0 1 1-.796 0 .398.398 0 1 1 .796 0zm0 0M12 4.398a.401.401 0 1 1-.802.003.401.401 0 0 1 .802-.003zm0 0M13.602 4.398a.401.401 0 1 1 0 0zm0 0M10.398 4.398a.398.398 0 1 1-.796 0 .398.398 0 1 1 .796 0zm0 0M15.2 4.398a.401.401 0 1 1-.803.003.401.401 0 0 1 .802-.003zm0 0M7.2 4.398a.401.401 0 1 1-.803.003.401.401 0 0 1 .802-.003zm0 0M5.602 4.398a.401.401 0 1 1 0 0zm0 0M4 4.398a.401.401 0 1 1-.802.003A.401.401 0 0 1 4 4.398zm0 0M8.8 4.398a.401.401 0 1 1 0 0zm0 0M19.602 4.8a.406.406 0 0 0 .28-.116.4.4 0 0 0 0-.566.416.416 0 0 0-.566 0 .406.406 0 0 0-.117.28c0 .106.043.211.117.282a.39.39 0 0 0 .286.12zm0 0M19.602 6.23a.397.397 0 0 0 0-.793.398.398 0 0 0-.403.395c0 .223.18.398.403.398zm0 0M19.602 7.668a.387.387 0 0 0 .28-.121A.39.39 0 0 0 20 7.27c0-.11-.043-.211-.117-.286a.41.41 0 0 0-.563 0 .383.383 0 0 0-.12.286c0 .105.042.207.116.277a.39.39 0 0 0 .286.121zm0 0"/>
</svg>
