<svg xmlns="http://www.w3.org/2000/svg" width="32" height="32" viewBox="0 0 24 24">
    <path d="M 23.988281 6.628906 C 23.984375 6.625 23.984375 6.621094 23.980469 6.617188 C 23.972656 6.589844 23.960938 6.558594 23.945312 6.535156 C 23.941406 6.523438 23.933594 6.515625 23.925781 6.503906 C 23.910156 6.488281 23.898438 6.46875 23.882812 6.453125 C 23.875 6.441406 23.859375 6.433594 23.847656 6.425781 C 23.835938 6.414062 23.824219 6.402344 23.8125 6.390625 C 23.808594 6.390625 23.804688 6.390625 23.800781 6.386719 C 23.796875 6.386719 23.792969 6.382812 23.792969 6.378906 L 16.589844 2.449219 C 16.472656 2.386719 16.335938 2.382812 16.214844 2.445312 L 0.214844 10.703125 C 0.210938 10.703125 0.207031 10.710938 0.203125 10.710938 C 0.195312 10.714844 0.1875 10.71875 0.179688 10.722656 C 0.167969 10.730469 0.160156 10.742188 0.148438 10.75 C 0.136719 10.757812 0.125 10.765625 0.117188 10.777344 C 0.101562 10.792969 0.0859375 10.8125 0.0742188 10.828125 C 0.0664062 10.839844 0.0585938 10.847656 0.0546875 10.859375 C 0.0390625 10.882812 0.03125 10.910156 0.0195312 10.9375 C 0.0195312 10.941406 0.015625 10.949219 0.0117188 10.957031 C 0.00390625 10.988281 0 11.023438 0 11.058594 L 0 17.742188 C 0 17.898438 0.0898438 18.042969 0.234375 18.105469 L 7.835938 21.5625 C 7.839844 21.566406 7.847656 21.566406 7.851562 21.566406 C 7.902344 21.585938 7.949219 21.601562 8 21.601562 C 8.035156 21.601562 8.070312 21.59375 8.105469 21.585938 C 8.113281 21.582031 8.125 21.578125 8.136719 21.574219 C 8.152344 21.566406 8.171875 21.5625 8.1875 21.554688 L 23.785156 13.378906 C 23.917969 13.308594 24 13.171875 24 13.023438 L 24 6.730469 C 24 6.699219 23.996094 6.664062 23.988281 6.628906 Z M 16.394531 3.253906 L 22.730469 6.714844 L 7.992188 13.957031 L 1.328125 11.027344 Z M 0.800781 11.683594 L 7.601562 14.832031 L 7.601562 20.578125 L 0.800781 17.484375 Z M 8.398438 20.539062 L 8.398438 14.863281 L 23.199219 7.382812 L 23.199219 12.78125 Z M 8.398438 20.539062"/>
</svg>
