<svg xmlns="http://www.w3.org/2000/svg" width="32" height="32" viewBox="0 0 24 24">
    <path d="M19.2 7.8v-.82A1.397 1.397 0 0 0 19 4.2h-2a1.397 1.397 0 1 0-.2 2.781v.82H7.2v-.82A1.397 1.397 0 0 0 7 4.198H5a1.397 1.397 0 1 0-.2 2.781v.82H0v12h24v-12zm-2.802-2.198c0-.332.27-.602.602-.602h2a.601.601 0 0 1 0 1.2h-2a.601.601 0 0 1-.602-.598zM17.602 7h.796v.8h-.796zM4.398 5.602C4.398 5.27 4.668 5 5 5h2a.601.601 0 0 1 0 1.2H5a.601.601 0 0 1-.602-.598zM5.602 7h.796v.8h-.796zM.8 8.602h10.8V19H.802zM23.199 19H12.4V8.602h10.8zm0 0"/>
    <path d="M9.402 17.184a4.795 4.795 0 0 0 0-6.766c-.004-.004-.004-.008-.007-.012-.004-.004-.008-.004-.012-.008a4.788 4.788 0 0 0-6.766 0c-.004.004-.008.004-.012.008-.003.004-.003.008-.007.012a4.795 4.795 0 0 0 0 6.766c.004.003.004.007.007.011.004.004.008.004.012.008a4.788 4.788 0 0 0 6.766 0c.004-.004.008-.004.012-.008.003-.004.003-.008.007-.011zm-.855-1.403a.4.4 0 0 0-.567 0 .396.396 0 0 0 0 .563l.551.55a4.014 4.014 0 0 1-2.133.887V17A.395.395 0 0 0 6 16.602a.395.395 0 0 0-.398.398v.781a4.014 4.014 0 0 1-2.133-.886l.55-.551a.396.396 0 0 0 0-.563.4.4 0 0 0-.566 0l-.547.547A3.96 3.96 0 0 1 2.02 14.2h.78a.4.4 0 0 0 0-.8h-.78c.082-.801.398-1.536.886-2.13l.547.551a.405.405 0 0 0 .285.117.4.4 0 0 0 .281-.684l-.55-.55a4.01 4.01 0 0 1 2.133-.883v.782a.398.398 0 1 0 .796 0V9.82a4.01 4.01 0 0 1 2.133.883l-.55.55a.4.4 0 0 0 .566.567l.547-.55c.488.593.804 1.328.886 2.128H9.2a.401.401 0 0 0 0 .801h.78a3.96 3.96 0 0 1-.886 2.13zm0 0M21.383 10.398a4.788 4.788 0 0 0-6.766 0c-.004.004-.008.004-.012.008-.003.004-.003.008-.007.012a4.795 4.795 0 0 0 0 6.766c.004.003.004.007.007.011.004.004.008.004.012.008a4.788 4.788 0 0 0 6.766 0c.004-.004.008-.004.012-.008.003-.004.003-.008.007-.011a4.795 4.795 0 0 0 0-6.766c-.004-.004-.004-.008-.007-.012-.004-.004-.008-.004-.012-.008zm.597 3h-.78a.401.401 0 0 0 0 .801h.78a3.96 3.96 0 0 1-.886 2.13l-.547-.548a.4.4 0 0 0-.567 0 .396.396 0 0 0 0 .563l.551.55a4.014 4.014 0 0 1-2.133.887V17a.395.395 0 0 0-.398-.398.395.395 0 0 0-.398.398v.781a4.014 4.014 0 0 1-2.133-.886l.55-.551a.396.396 0 0 0 0-.563.4.4 0 0 0-.566 0l-.547.547a3.96 3.96 0 0 1-.886-2.129h.78a.4.4 0 0 0 0-.8h-.78c.082-.801.398-1.536.886-2.13l.547.551a.405.405 0 0 0 .285.117.4.4 0 0 0 .281-.684l-.55-.55a4.01 4.01 0 0 1 2.133-.883v.782a.398.398 0 1 0 .796 0V9.82a4.01 4.01 0 0 1 2.133.883l-.55.55a.4.4 0 0 0 .566.567l.547-.55c.488.593.804 1.328.886 2.128zm0 0"/>
    <path d="M6 11.54l-1.133 1.128A1.6 1.6 0 0 0 6 15.398a1.59 1.59 0 0 0 1.133-.468 1.6 1.6 0 0 0 0-2.262zm.566 2.827c-.304.301-.828.301-1.132 0a.798.798 0 0 1 0-1.133L6 12.668l.566.566a.798.798 0 0 1 0 1.133zm0 0M18 12.2c-.883 0-1.602.718-1.602 1.6A1.6 1.6 0 0 0 18 15.399h1.602v-1.597c0-.883-.72-1.602-1.602-1.602zm.8 2.402H18A.802.802 0 0 1 18 13c.441 0 .8.36.8.8zm0 0"/>
</svg>
