<svg xmlns="http://www.w3.org/2000/svg" width="32" height="32" viewBox="0 0 24 24">
    <path d="M 12 0 C 5.382812 0 0 5.382812 0 12 C 0 18.617188 5.382812 24 12 24 C 18.617188 24 24 18.617188 24 12 C 24 5.382812 18.617188 0 12 0 Z M 12 22.957031 C 5.957031 22.957031 1.042969 18.042969 1.042969 12 C 1.042969 5.957031 5.957031 1.042969 12 1.042969 C 18.042969 1.042969 22.957031 5.957031 22.957031 12 C 22.957031 18.042969 18.042969 22.957031 12 22.957031 Z M 12 22.957031"/>
    <path d="M 12.390625 5.738281 L 11.609375 5.738281 C 10.675781 5.738281 9.914062 6.5 9.914062 7.4375 L 9.914062 16.039062 C 9.914062 16.976562 10.675781 17.738281 11.609375 17.738281 L 12.390625 17.738281 C 13.324219 17.738281 14.085938 16.976562 14.085938 16.042969 L 14.085938 7.4375 C 14.085938 6.5 13.324219 5.738281 12.390625 5.738281 Z M 13.042969 16.042969 C 13.042969 16.402344 12.75 16.695312 12.390625 16.695312 L 11.609375 16.695312 C 11.25 16.695312 10.957031 16.402344 10.957031 16.042969 L 10.957031 7.4375 C 10.957031 7.078125 11.25 6.78125 11.609375 6.78125 L 12.390625 6.78125 C 12.75 6.78125 13.042969 7.078125 13.042969 7.4375 Z M 13.042969 16.042969"/>
</svg>
