<svg xmlns="http://www.w3.org/2000/svg" width="32" height="32" viewBox="0 0 24 24">
    <path d="M23.46 5.094c-.737-1.883-2.144-3.328-3.964-4.067-3.8-1.543-6.586 1.051-7.504 2.09-.918-1.043-3.687-3.644-7.488-2.097-1.82.738-3.227 2.18-3.965 4.062a7.953 7.953 0 0 0 .211 6.25c1.305 2.785 4.277 7.121 11.004 11.961l.234.168.235-.168c6.761-4.863 9.73-9.184 11.027-11.95a7.953 7.953 0 0 0 .21-6.25zm-.933 5.91c-1.246 2.648-4.082 6.777-10.539 11.469-6.425-4.668-9.261-8.813-10.515-11.48a7.161 7.161 0 0 1-.188-5.618c.656-1.676 1.906-2.96 3.52-3.617.738-.301 1.43-.422 2.07-.422 2.887 0 4.695 2.512 4.785 2.644l.328.461.328-.46c.114-.157 2.809-3.868 6.88-2.211 1.613.656 2.863 1.94 3.519 3.617a7.161 7.161 0 0 1-.188 5.617zm0 0"/>
    <path d="M18.895 2.512a4.664 4.664 0 0 0-1.762-.364c-2.461 0-4.14 2.266-4.16 2.293l-.98 1.375-.99-1.378c-.066-.094-1.71-2.301-4.14-2.301-.574 0-1.164.125-1.758.363-1.406.574-2.5 1.7-3.074 3.168a6.335 6.335 0 0 0 .168 4.984c1.149 2.446 3.735 6.274 9.551 10.649l.238.18.242-.18c5.848-4.395 8.434-8.211 9.57-10.637a6.335 6.335 0 0 0 .169-4.984c-.574-1.473-1.668-2.594-3.074-3.168zm2.18 7.812c-1.083 2.313-3.54 5.938-9.087 10.153-5.515-4.196-7.972-7.836-9.062-10.165a5.526 5.526 0 0 1-.149-4.351c.493-1.266 1.43-2.23 2.63-2.719a3.93 3.93 0 0 1 1.456-.304c2.032 0 3.48 1.953 3.496 1.972l1.637 2.281 1.625-2.28c.016-.02 1.473-1.962 3.512-1.962.469 0 .96.102 1.46.305 1.204.488 2.137 1.453 2.63 2.715a5.536 5.536 0 0 1-.149 4.355zm0 0"/>
</svg>
