<svg xmlns="http://www.w3.org/2000/svg" width="32" height="32" viewBox="0 0 24 24">
    <path d="M4.137 21.516c0 .23.187.414.414.414h2.07a.414.414 0 0 0 0-.828h-2.07a.417.417 0 0 0-.414.414zm0 0M8.277 21.93h11.586a.414.414 0 0 0 0-.828H8.277a.414.414 0 0 0 0 .828zm0 0"/>
    <path d="M21.559 0H4.098c-.891 0-1.614.723-1.614 1.613v3.809H2.48c-.007 0-.011.004-.02.004a1.96 1.96 0 0 0-.343.11c-.043.015-.078.038-.117.054-.074.039-.148.074-.219.12-.039.028-.078.056-.117.087a3.229 3.229 0 0 0-.18.144c-.035.036-.07.075-.105.11a1.54 1.54 0 0 0-.14.176 1.45 1.45 0 0 0-.09.125c-.04.062-.075.132-.11.203a1.383 1.383 0 0 0-.137.379c-.011.039-.027.082-.035.12a1.9 1.9 0 0 0-.016.691l.012.071c.02.098.04.192.075.282 0 .007.003.015.003.02.032.089.07.171.114.253.008.024.02.043.03.066a1.659 1.659 0 0 0 .165.254l-.012.016a1.74 1.74 0 0 0-.129.2c-.023.038-.046.081-.066.12-.027.063-.055.121-.078.188a1.726 1.726 0 0 0-.059.187c-.015.051-.031.102-.039.157a1.864 1.864 0 0 0-.016.668l.012.07c.02.098.04.191.075.285 0 .008.003.012.003.02.032.085.07.171.114.253.008.02.02.043.03.063.048.086.099.168.161.246 0 .004 0 .008.004.008a2.862 2.862 0 0 0-.14.215c-.024.043-.047.082-.067.125a2.59 2.59 0 0 0-.078.183 1.552 1.552 0 0 0-.059.192 1.09 1.09 0 0 0-.039.152 1.864 1.864 0 0 0-.004.742c.02.098.04.192.075.285 0 .004.003.012.003.02.032.086.07.168.114.25.008.023.02.043.03.066a1.659 1.659 0 0 0 .165.254l-.012.016a1.74 1.74 0 0 0-.129.2c-.023.038-.046.081-.066.12-.027.063-.055.125-.078.188a1.726 1.726 0 0 0-.059.187c-.015.051-.031.102-.039.156-.023.122-.039.247-.039.375 0 .133.016.266.04.391.007.043.023.082.034.125a1.383 1.383 0 0 0 .137.375c.035.07.07.14.11.207.027.043.058.082.09.125.042.059.09.117.14.172.035.039.07.074.105.11.059.05.118.1.18.144.04.031.078.062.117.086.07.047.145.086.219.12.04.02.074.04.117.06.11.042.223.078.344.105.008 0 .012.004.02.008h.003v4.59A2.485 2.485 0 0 0 4.964 24h18.208V1.613c0-.89-.723-1.613-1.613-1.613zm.785 20.277h-1.242a.411.411 0 0 0-.41.414c0 .227.183.41.41.41h1.242v.829h-1.242a.413.413 0 0 0-.41.414c0 .23.183.414.41.414h1.242v.414H4.964a1.657 1.657 0 0 1-1.655-1.656c0-.91.742-1.653 1.656-1.653h17.379zm-17.38-1.242a2.68 2.68 0 0 0-.437.04c-.011.003-.027.003-.039.007a2.638 2.638 0 0 0-.793.305c-.02.011-.035.023-.054.035-.11.066-.211.144-.309.23-.008.004-.016.012-.023.016v-4.36a.41.41 0 0 0-.41-.41.411.411 0 0 0-.415.41v.755a1.243 1.243 0 0 1-.8-1.422l.011-.043c.02-.07.04-.141.07-.207 0-.004.005-.008.008-.016.07-.152.176-.29.313-.406.113-.102.289-.219.52-.274.007-.004.019-.008.03-.011.083-.02.169-.028.262-.028.09 0 .176.008.258.028l.031.011a1.247 1.247 0 0 1 .528.274c.258.226.422.558.422.93 0 .226.187.41.414.41.23 0 .414-.184.414-.41a2.07 2.07 0 0 0-.703-1.547c-.004 0-.004-.004-.008-.008-.012-.012-.027-.02-.04-.031a2.065 2.065 0 0 0-1.316-.485c-.257 0-.5.05-.726.137-.004.004-.008.004-.016.004a2.252 2.252 0 0 0-.219.105c-.019.012-.042.02-.062.031a1.318 1.318 0 0 1-.102-.171c-.007-.016-.011-.032-.02-.043a1.605 1.605 0 0 1-.058-.18c-.004-.024-.011-.043-.015-.063a1.192 1.192 0 0 1 .015-.53c.02-.071.04-.141.07-.208 0-.008.005-.012.008-.015a1.21 1.21 0 0 1 .313-.41 1.244 1.244 0 0 1 1.07-.286l.031.012a1.296 1.296 0 0 1 .528.277c.258.227.422.555.422.926a.414.414 0 0 0 .828 0c0-.617-.277-1.164-.703-1.543-.004-.004-.004-.008-.008-.012-.012-.007-.027-.015-.04-.027-.359-.3-.816-.488-1.316-.488-.257 0-.496.054-.722.136-.004.004-.012.004-.02.008-.074.028-.148.067-.219.102-.019.012-.042.02-.062.031a1.102 1.102 0 0 1-.102-.172c-.007-.015-.011-.027-.02-.043a1.38 1.38 0 0 1-.058-.18l-.015-.062a1.157 1.157 0 0 1 .004-.492l.011-.04c.02-.07.04-.14.07-.206 0-.004.005-.008.008-.016.07-.152.176-.289.313-.41a1.2 1.2 0 0 1 .52-.27l.03-.011c.083-.02.169-.028.262-.028.09 0 .176.008.258.028.012 0 .02.008.031.008a1.296 1.296 0 0 1 .528.277c.258.226.422.559.422.926a.414.414 0 0 0 .828 0c0-.614-.277-1.164-.703-1.543-.004-.004-.004-.008-.008-.008-.012-.012-.027-.02-.04-.031a2.065 2.065 0 0 0-1.316-.485c-.257 0-.496.051-.722.137-.004 0-.012.004-.02.004a2.252 2.252 0 0 0-.219.105c-.019.012-.042.016-.062.028a.947.947 0 0 1-.102-.172c-.007-.012-.011-.027-.02-.04a1.436 1.436 0 0 1-.058-.183c-.004-.02-.011-.039-.015-.058a1.243 1.243 0 0 1 1.219-1.477c.683 0 1.238.559 1.238 1.242a.414.414 0 0 0 .828 0c0-1-.711-1.836-1.656-2.027V1.613c0-.433.355-.785.789-.785h17.46c.434 0 .786.352.786.785v17.422zm0 0"/>
    <path d="M15.926 7.418l-.293-.293a4.56 4.56 0 0 0-6.438 0 4.56 4.56 0 0 0 0 6.438 4.52 4.52 0 0 0 3.22 1.332 4.543 4.543 0 0 0 3.218-1.332l.293-.293L13 10.344zm-1.188 5.836a3.725 3.725 0 1 1-2.324-6.633c.824 0 1.648.274 2.324.813l-2.91 2.91zm0 0"/>
    <path d="M12.828 8.277a.825.825 0 0 1-.828.825.825.825 0 1 1 0-1.653c.457 0 .828.371.828.828zm0 0M16.137 9.93h-1.239a.414.414 0 0 0 0 .828h1.239a.414.414 0 0 0 0-.828zm0 0M18.621 9.93h-.828a.414.414 0 0 0 0 .828h.828a.414.414 0 0 0 0-.828zm0 0"/>
</svg>
