<svg xmlns="http://www.w3.org/2000/svg" width="32" height="32" viewBox="0 0 24 24">
    <path d="M17.554688 11.554688C17.308594 11.554688 17.109375 11.753906 17.109375 12 17.109375 12.246094 17.308594 12.445312 17.554688 12.445312L18.890625 12.445312C19.132812 12.445312 19.332031 12.246094 19.332031 12 19.332031 11.753906 19.132812 11.554688 18.890625 11.554688zM23.335938 11.554688L22.445312 11.554688C22.199219 11.554688 22 11.753906 22 12 22 12.246094 22.199219 12.445312 22.445312 12.445312L23.335938 12.445312C23.582031 12.445312 23.78125 12.246094 23.78125 12 23.78125 11.753906 23.582031 11.554688 23.335938 11.554688zM23.335938 11.554688"/>
    <path d="M 20.707031 3.511719 C 16.027344 -1.167969 8.410156 -1.167969 3.730469 3.511719 C -0.949219 8.191406 -0.949219 15.808594 3.730469 20.488281 C 6.070312 22.832031 9.144531 24 12.21875 24 C 15.292969 24 18.367188 22.832031 20.707031 20.488281 L 21.023438 20.175781 L 12.847656 12 L 21.023438 3.824219 Z M 11.589844 12 L 19.757812 20.167969 C 15.40625 24.191406 8.589844 24.089844 4.359375 19.859375 C 2.257812 17.761719 1.105469 14.96875 1.105469 12 C 1.105469 9.03125 2.257812 6.238281 4.359375 4.140625 C 6.527344 1.972656 9.371094 0.890625 12.21875 0.890625 C 14.929688 0.890625 17.636719 1.871094 19.757812 3.832031 Z M 11.589844 12"/>
    <path d="M 10.886719 3.996094 C 9.90625 3.996094 9.105469 4.792969 9.105469 5.773438 C 9.105469 6.753906 9.90625 7.554688 10.886719 7.554688 C 11.867188 7.554688 12.664062 6.753906 12.664062 5.773438 C 12.664062 4.792969 11.867188 3.996094 10.886719 3.996094 Z M 10.886719 6.664062 C 10.394531 6.664062 9.996094 6.265625 9.996094 5.773438 C 9.996094 5.285156 10.394531 4.886719 10.886719 4.886719 C 11.375 4.886719 11.773438 5.285156 11.773438 5.773438 C 11.773438 6.265625 11.375 6.664062 10.886719 6.664062 Z M 10.886719 6.664062"/>
</svg>
