<svg xmlns="http://www.w3.org/2000/svg" width="32" height="32" viewBox="0 0 24 24">
    <path d="M17.602 21.2v-.74c0-.905-.739-1.648-1.645-1.66l-.133-1.198-.312-2.801-.266-2.403h.555a1.8 1.8 0 0 0 1.8-1.796c0-.993-.808-1.801-1.8-1.801H14V7.457A3.99 3.99 0 0 0 16 4c0-2.207-1.793-4-4-4S8 1.793 8 4a3.99 3.99 0 0 0 2 3.457v1.344H8.2c-.993 0-1.802.808-1.802 1.8A1.8 1.8 0 0 0 8.2 12.399h.555l-.711 6.403a1.668 1.668 0 0 0-1.645 1.66v.738h-.796V24h12.796v-2.8zm-2.45-2.4H8.848l.132-1.198h6.04zm-.222-2H9.07l.133-1.198h5.594zM8.8 4A3.2 3.2 0 0 1 12 .8 3.2 3.2 0 0 1 15.2 4c0 1.21-.677 2.266-1.669 2.809l-.054.027-.07.035c-.102.05-.208.094-.313.133l-.028.012c-.109.035-.218.07-.328.093-.004.004-.011.004-.02.008a3.19 3.19 0 0 1-1.437 0l-.02-.008a3.079 3.079 0 0 1-.734-.273l-.058-.027A3.202 3.202 0 0 1 8.8 4zm2 3.816l.134.036c.066.02.136.039.207.05.046.012.093.02.144.032.074.011.149.023.223.03a4.62 4.62 0 0 0 .46.035l.032.001h.031a4.62 4.62 0 0 0 .328-.02c.043-.003.09-.007.133-.015.074-.008.149-.02.223-.031.05-.012.098-.02.144-.032a4.131 4.131 0 0 0 .34-.086v.985h-2.398zm-2.6 3.786a1 1 0 1 1 0-2h7.6a1 1 0 1 1 0 2zm6.241.796l.266 2.403H9.293l.266-2.403zM7.2 20.461c0-.473.387-.86.864-.86h7.874c.477 0 .864.387.864.86v.738H7.199zm10.403 2.738H6.398V22h11.204zm0 0"/>
    <path d="M10.8 3.602c0-.442.36-.801.802-.801a.401.401 0 0 0 0-.801C10.719 2 10 2.719 10 3.602a.4.4 0 0 0 .8 0zm0 0"/>
</svg>
