<svg xmlns="http://www.w3.org/2000/svg" width="32" height="32" viewBox="0 0 24 24">
    <path d="M23.855 11.387a2.55 2.55 0 0 0-1.46-1.52 2.548 2.548 0 0 0-2.102.106l-7.723 3.976a1.354 1.354 0 0 0-.652 1.645 1.353 1.353 0 0 0 1.539.87l8.508-1.741a2.519 2.519 0 0 0 1.703-1.239c.363-.64.434-1.402.187-2.097zm-.894 1.695a1.739 1.739 0 0 1-1.156.844l-8.512 1.738a.529.529 0 0 1-.348-.988l7.72-3.977c.25-.129.519-.195.792-.195.215 0 .43.043.637.125a1.725 1.725 0 0 1 .867 2.453zm0 0M4.57 9.043a2.54 2.54 0 0 0-3.824-.262 2.538 2.538 0 0 0 .262 3.824l6.922 5.247c.242.183.527.273.812.273.348 0 .695-.133.953-.395a1.35 1.35 0 0 0 .121-1.761zm4.547 8.11a.53.53 0 0 1-.691.05L1.5 11.957a1.73 1.73 0 0 1 1.16-3.102c.5.036.957.286 1.258.68l5.246 6.926c.16.21.14.508-.047.691zm0 0M16.742 8.938a3.067 3.067 0 0 0-3.062-3.063 3.062 3.062 0 1 0 3.062 3.063zm-5.308 0A2.249 2.249 0 0 1 13.68 6.69a2.249 2.249 0 0 1 2.246 2.247 2.249 2.249 0 0 1-2.246 2.246 2.249 2.249 0 0 1-2.246-2.246zm0 0"/>
    <path d="M3.676 10.57a1.022 1.022 0 1 1-2.044.003 1.022 1.022 0 0 1 2.044-.003zm0 0M22.488 12.227a1.021 1.021 0 1 1-2.042.004 1.021 1.021 0 0 1 2.042-.004zm0 0M14.29 7.918c0-.227-.18-.41-.407-.41-.903 0-1.633.734-1.633 1.637a.408.408 0 0 0 .816 0c0-.454.368-.817.817-.817a.407.407 0 0 0 .406-.41zm0 0"/>
</svg>
