<svg xmlns="http://www.w3.org/2000/svg" width="32" height="32" viewBox="0 0 24 24">
    <path d="M12 4c1.102 0 2-.898 2-2 0-1.102-.898-2-2-2-1.102 0-2 .898-2 2 0 1.102.898 2 2 2zm0-3.2c.66 0 1.2.54 1.2 1.2 0 .66-.54 1.2-1.2 1.2-.66 0-1.2-.54-1.2-1.2 0-.66.54-1.2 1.2-1.2zm0 0M17.602 21.2v-.74c0-.905-.73-1.64-1.637-1.655l-.13-1.418-.597-6.586H16A1.4 1.4 0 0 0 16 8h-.594l1.278-2.984-2.16.539-1.403-1.399L12 6.023l-1.121-1.867-1.402 1.399-2.16-.54L8.593 8H8a1.4 1.4 0 0 0 0 2.8h.762l-.598 6.587-.129 1.418a1.66 1.66 0 0 0-1.637 1.656v.738h-.796V24h12.796v-2.8zm-2.622-4.4H9.02l.062-.667.047-.531h5.742l.047.53zM8.684 6.18l1.035.258 1-.993L12 7.578l1.281-2.133 1 .992 1.035-.257-.78 1.82H9.464zM8 10a.602.602 0 0 1-.602-.602c0-.328.27-.597.602-.597h8c.332 0 .602.27.602.597 0 .332-.27.602-.602.602zm6.434.8l.363 4H9.203l.363-4zm.62 6.802l.11 1.199H8.84l.11-1.2zM7.2 20.46c0-.473.387-.86.864-.86h7.874c.477 0 .864.387.864.86v.738H7.199zm10.403 2.738H6.398V22h11.204zm0 0"/>
</svg>
