<svg xmlns="http://www.w3.org/2000/svg" width="32" height="32" viewBox="0 0 24 24">
    <path d="M18.11 20.945v-.804c0-.989-.797-1.793-1.786-1.809l-.117-1.312-.02-.235-.656-7.183h.832a1.524 1.524 0 1 0 .512-2.96l1.332-6.642H15.57l-.437 2.184h-1.387V0h-3.492v2.184H9.242L8.367 0H5.793l1.332 6.64a1.524 1.524 0 0 0 .512 2.962h.832l-.656 7.183-.02.235-.117 1.312a1.812 1.812 0 0 0-1.785 1.809v.804H5.02V24h13.96v-3.055zm-2.86-4.8h-6.5l.066-.727.051-.582h6.266l.05.582zm.754-9.598H7.996L7.73 5.238h8.54zM7.777.87l.871 2.184h2.48V.87h1.743v2.184h2.977L16.285.87h.856l-.7 3.492H7.56l-.7-3.492zm-.14 7.856a.657.657 0 0 1-.657-.653c0-.363.297-.656.657-.656h8.726c.36 0 .657.293.657.656 0 .36-.297.653-.657.653zm7.02.875l.398 4.363h-6.11l.399-4.363zm.675 7.418l.117 1.308H8.551l.12-1.308zm-8.57 3.12c0-.519.426-.94.941-.94h8.594c.515 0 .941.421.941.94v.805H6.766v-.804zm11.347 2.989H5.891v-1.313h12.218zm0 0"/>
</svg>
