<svg xmlns="http://www.w3.org/2000/svg" width="32" height="32" viewBox="0 0 24 24">
    <path d="M 18.109375 20.945312 L 18.109375 20.140625 C 18.109375 19.152344 17.3125 18.347656 16.324219 18.332031 L 16.207031 17.019531 L 16.1875 16.785156 L 15.53125 9.601562 L 16.363281 9.601562 C 17.207031 9.601562 17.890625 8.914062 17.890625 8.074219 C 17.890625 7.410156 17.464844 6.851562 16.875 6.640625 L 18.207031 0 L 15.570312 0 L 15.132812 2.183594 L 13.746094 2.183594 L 13.746094 0 L 10.253906 0 L 10.253906 2.183594 L 9.242188 2.183594 L 8.367188 0 L 5.792969 0 L 7.125 6.640625 C 6.535156 6.851562 6.109375 7.410156 6.109375 8.074219 C 6.109375 8.914062 6.792969 9.601562 7.636719 9.601562 L 8.46875 9.601562 L 7.8125 16.785156 L 7.792969 17.019531 L 7.675781 18.332031 C 6.6875 18.347656 5.890625 19.152344 5.890625 20.140625 L 5.890625 20.945312 L 5.019531 20.945312 L 5.019531 24 L 18.980469 24 L 18.980469 20.945312 Z M 15.25 16.144531 L 8.75 16.144531 L 8.816406 15.417969 L 8.867188 14.835938 L 15.132812 14.835938 L 15.183594 15.417969 Z M 16.003906 6.546875 L 7.996094 6.546875 L 7.730469 5.238281 L 16.269531 5.238281 Z M 7.777344 0.871094 L 8.648438 3.054688 L 11.128906 3.054688 L 11.128906 0.871094 L 12.871094 0.871094 L 12.871094 3.054688 L 15.847656 3.054688 L 16.285156 0.871094 L 17.140625 0.871094 L 16.441406 4.363281 L 7.558594 4.363281 L 6.859375 0.871094 Z M 7.636719 8.726562 C 7.277344 8.726562 6.980469 8.433594 6.980469 8.074219 C 6.980469 7.710938 7.277344 7.417969 7.636719 7.417969 L 16.363281 7.417969 C 16.722656 7.417969 17.019531 7.710938 17.019531 8.074219 C 17.019531 8.433594 16.722656 8.726562 16.363281 8.726562 Z M 14.65625 9.601562 L 15.054688 13.964844 L 8.945312 13.964844 L 9.34375 9.601562 Z M 15.332031 17.019531 L 15.449219 18.328125 L 8.550781 18.328125 L 8.671875 17.019531 Z M 6.761719 20.140625 C 6.761719 19.621094 7.1875 19.199219 7.703125 19.199219 L 16.296875 19.199219 C 16.8125 19.199219 17.238281 19.621094 17.238281 20.140625 L 17.238281 20.945312 L 6.765625 20.945312 L 6.765625 20.140625 Z M 18.109375 23.128906 L 5.890625 23.128906 L 5.890625 21.816406 L 18.109375 21.816406 Z M 18.109375 23.128906"/>
</svg>
