<svg xmlns="http://www.w3.org/2000/svg" width="32" height="32" viewBox="0 0 24 24">
    <path d="M 20.957031 0.105469 L 18.96875 0.0078125 C 17.027344 -0.09375 15.308594 0.898438 14.210938 1.746094 C 13.683594 2.152344 13.207031 2.679688 12.75 3.359375 C 11.976562 4.511719 10.09375 5.777344 9.332031 6.261719 L 9.015625 5.777344 C 8.792969 5.433594 8.328125 5.339844 7.984375 5.5625 L 5.226562 7.367188 C 5.058594 7.476562 4.945312 7.640625 4.902344 7.835938 C 4.863281 8.03125 4.898438 8.230469 5.007812 8.398438 L 5.195312 8.683594 L 4.210938 9.328125 C 4.070312 9.421875 3.972656 9.5625 3.9375 9.730469 C 3.902344 9.894531 3.933594 10.066406 4.027344 10.207031 L 4.957031 11.632812 C 5.050781 11.777344 5.195312 11.875 5.359375 11.90625 C 5.402344 11.917969 5.449219 11.921875 5.492188 11.921875 C 5.613281 11.921875 5.734375 11.886719 5.839844 11.816406 L 6.675781 11.269531 C 7.003906 12.019531 7.261719 12.796875 7.445312 13.597656 L 6.199219 13.597656 L 6.199219 18 C 6.199219 21.664062 3.824219 22.964844 3.347656 23.1875 C 3.339844 23.191406 3.335938 23.195312 3.328125 23.199219 L 1.800781 23.199219 L 1.800781 24 L 18.601562 24 L 18.601562 23.199219 L 17.089844 23.199219 L 17.082031 23.195312 C 16.667969 22.976562 14.601562 21.703125 14.601562 18 L 14.601562 13.597656 L 13.15625 13.597656 C 13.707031 12.945312 14.09375 12.179688 14.261719 11.371094 L 14.320312 11.085938 L 14.007812 10.90625 C 13.003906 10.320312 12.082031 9.59375 11.269531 8.761719 C 11.402344 8.65625 11.539062 8.550781 11.675781 8.441406 C 12.402344 7.867188 13.066406 7.144531 13.710938 6.230469 C 15.164062 4.171875 17.867188 3.015625 18.664062 2.710938 C 18.824219 2.652344 18.992188 2.625 19.160156 2.632812 L 20.828125 2.714844 C 21.183594 2.730469 21.511719 2.613281 21.769531 2.378906 C 22.027344 2.144531 22.179688 1.824219 22.199219 1.476562 C 22.234375 0.753906 21.675781 0.140625 20.957031 0.105469 Z M 6.328125 10.542969 L 5.539062 11.058594 L 4.785156 9.90625 L 5.632812 9.355469 L 5.664062 9.402344 C 5.675781 9.417969 5.683594 9.433594 5.695312 9.449219 C 5.917969 9.792969 6.128906 10.160156 6.328125 10.542969 Z M 8.265625 13.59375 C 8.316406 13.597656 8.367188 13.597656 8.417969 13.601562 L 8.269531 13.601562 C 8.265625 13.597656 8.265625 13.59375 8.265625 13.59375 Z M 15.753906 23.199219 L 13.800781 23.199219 L 13.800781 22 C 13.800781 21.777344 13.621094 21.601562 13.398438 21.601562 C 13.179688 21.601562 13 21.777344 13 22 L 13 23.199219 L 11.800781 23.199219 L 11.800781 20.800781 C 11.800781 20.578125 11.621094 20.398438 11.398438 20.398438 C 11.179688 20.398438 11 20.578125 11 20.800781 L 11 23.199219 L 9.800781 23.199219 L 9.800781 22.398438 C 9.800781 22.179688 9.621094 22 9.398438 22 C 9.179688 22 9 22.179688 9 22.398438 L 9 23.199219 L 7.800781 23.199219 L 7.800781 22 C 7.800781 21.777344 7.621094 21.601562 7.398438 21.601562 C 7.179688 21.601562 7 21.777344 7 22 L 7 23.199219 L 4.773438 23.199219 C 5.757812 22.375 7 20.78125 7 18 L 7 14.398438 L 10.601562 14.398438 L 10.601562 15.199219 C 10.601562 15.421875 10.777344 15.601562 11 15.601562 C 11.21875 15.601562 11.398438 15.421875 11.398438 15.199219 L 11.398438 14.398438 L 12.199219 14.398438 L 12.199219 15.601562 C 12.199219 15.820312 12.378906 16 12.601562 16 C 12.820312 16 13 15.820312 13 15.601562 L 13 14.398438 L 13.800781 14.398438 L 13.800781 18 C 13.800781 20.792969 14.890625 22.378906 15.753906 23.199219 Z M 12.042969 13.601562 L 8.679688 13.601562 C 9.445312 13.582031 10.191406 13.359375 10.839844 12.941406 C 11.605469 12.445312 12.171875 11.71875 12.480469 10.859375 C 12.785156 11.078125 13.09375 11.289062 13.410156 11.480469 C 13.183594 12.28125 12.707031 13.023438 12.042969 13.601562 Z M 11.808594 10.339844 C 11.585938 11.140625 11.09375 11.824219 10.402344 12.269531 C 9.714844 12.714844 8.890625 12.886719 8.058594 12.765625 C 7.871094 12.101562 7.636719 11.453125 7.351562 10.828125 L 7.355469 10.828125 L 7.296875 10.703125 C 7.148438 10.378906 6.984375 10.0625 6.808594 9.753906 C 6.792969 9.726562 6.78125 9.703125 6.765625 9.675781 C 6.628906 9.4375 6.488281 9.199219 6.335938 8.964844 L 5.707031 8.003906 L 8.378906 6.261719 L 8.648438 6.675781 L 9.003906 7.21875 C 9.125 7.40625 9.253906 7.585938 9.382812 7.769531 C 9.4375 7.839844 9.488281 7.910156 9.542969 7.980469 C 9.621094 8.082031 9.699219 8.1875 9.78125 8.289062 C 9.851562 8.375 9.917969 8.457031 9.988281 8.542969 C 10.078125 8.648438 10.167969 8.75 10.261719 8.851562 C 10.332031 8.929688 10.398438 9.011719 10.46875 9.089844 L 10.613281 9.246094 L 10.621094 9.242188 C 10.996094 9.628906 11.390625 9.996094 11.808594 10.339844 Z M 21.234375 1.785156 C 21.132812 1.875 21 1.921875 20.867188 1.914062 L 19.203125 1.832031 C 18.921875 1.820312 18.640625 1.863281 18.375 1.964844 C 17.289062 2.382812 14.59375 3.585938 13.058594 5.769531 C 12.457031 6.617188 11.84375 7.289062 11.179688 7.8125 C 11.027344 7.9375 10.871094 8.058594 10.722656 8.167969 C 10.710938 8.15625 10.699219 8.140625 10.6875 8.125 C 10.5625 7.984375 10.445312 7.835938 10.328125 7.691406 C 10.28125 7.628906 10.230469 7.566406 10.183594 7.5 C 10.089844 7.378906 10 7.253906 9.914062 7.128906 C 9.867188 7.0625 9.820312 6.996094 9.773438 6.929688 C 10.605469 6.402344 12.558594 5.082031 13.414062 3.804688 C 13.824219 3.199219 14.242188 2.734375 14.699219 2.378906 C 15.691406 1.617188 17.234375 0.71875 18.925781 0.804688 L 20.917969 0.90625 C 21.199219 0.917969 21.414062 1.15625 21.398438 1.4375 C 21.390625 1.570312 21.332031 1.695312 21.234375 1.785156 Z M 21.234375 1.785156"/>
</svg>
