<svg xmlns="http://www.w3.org/2000/svg" width="32" height="32" viewBox="0 0 24 24">
    <path d="M 22.800781 18.199219 L 22.800781 16.601562 L 23.199219 16.601562 L 23.199219 14.601562 C 23.199219 14.558594 23.199219 14.515625 21.996094 6.9375 L 21.941406 6.601562 L 21.199219 6.601562 L 21.199219 5.398438 L 21.734375 5.398438 C 22.101562 5.398438 22.398438 5.101562 22.398438 4.734375 L 22.398438 1.664062 C 22.398438 1.296875 22.101562 1 21.734375 1 L 16.664062 1 C 16.296875 1 16 1.296875 16 1.664062 L 16 4.734375 C 16 5.101562 16.296875 5.398438 16.664062 5.398438 L 17.199219 5.398438 L 17.199219 6.601562 L 16.398438 6.601562 L 16.398438 8.199219 L 14.800781 8.199219 L 14.800781 9.398438 L 13.199219 9.398438 L 13.199219 9 C 13.640625 9 14 8.640625 14 8.199219 L 14 7.398438 C 14 6.296875 13.101562 5.398438 12 5.398438 C 10.898438 5.398438 10 6.296875 10 7.398438 L 10 8.199219 C 10 8.640625 10.359375 9 10.800781 9 L 10.800781 9.398438 L 9.199219 9.398438 L 9.199219 8.199219 L 7.601562 8.199219 L 7.601562 6.601562 L 6.800781 6.601562 L 6.800781 5.398438 L 7.335938 5.398438 C 7.703125 5.398438 8 5.101562 8 4.734375 L 8 1.664062 C 8 1.296875 7.703125 1 7.335938 1 L 2.265625 1 C 1.898438 1 1.601562 1.296875 1.601562 1.664062 L 1.601562 4.734375 C 1.601562 5.101562 1.898438 5.398438 2.265625 5.398438 L 2.800781 5.398438 L 2.800781 6.601562 L 2.058594 6.601562 L 2.003906 6.9375 C 0.800781 14.515625 0.800781 14.558594 0.800781 14.601562 L 0.800781 16.601562 L 1.199219 16.601562 L 1.199219 18.199219 L 0 18.199219 L 0 23 L 9.199219 23 L 9.199219 18.199219 L 8 18.199219 L 8 16.601562 L 9.199219 16.601562 L 9.199219 17 C 9.199219 17.222656 9.378906 17.398438 9.601562 17.398438 C 9.820312 17.398438 10 17.222656 10 17 L 10 16.601562 L 10.800781 16.601562 L 10.800781 17.558594 C 10.800781 17.910156 11.089844 18.199219 11.441406 18.199219 L 12.558594 18.199219 C 12.910156 18.199219 13.199219 17.910156 13.199219 17.558594 L 13.199219 16.601562 L 14 16.601562 L 14 17 C 14 17.222656 14.179688 17.398438 14.398438 17.398438 C 14.621094 17.398438 14.800781 17.222656 14.800781 17 L 14.800781 16.601562 L 16 16.601562 L 16 18.199219 L 14.800781 18.199219 L 14.800781 23 L 24 23 L 24 18.199219 Z M 17.199219 1.800781 L 17.199219 2.199219 C 17.199219 2.421875 17.378906 2.601562 17.601562 2.601562 C 17.820312 2.601562 18 2.421875 18 2.199219 L 18 1.800781 L 18.800781 1.800781 L 18.800781 2.199219 C 18.800781 2.421875 18.980469 2.601562 19.199219 2.601562 C 19.421875 2.601562 19.601562 2.421875 19.601562 2.199219 L 19.601562 1.800781 L 20.398438 1.800781 L 20.398438 2.199219 C 20.398438 2.421875 20.578125 2.601562 20.800781 2.601562 C 21.019531 2.601562 21.199219 2.421875 21.199219 2.199219 L 21.199219 1.800781 L 21.601562 1.800781 L 21.601562 3 L 16.800781 3 L 16.800781 1.800781 Z M 16.800781 4.601562 L 16.800781 3.800781 L 21.601562 3.800781 L 21.601562 4.601562 Z M 18 5.398438 L 20.398438 5.398438 L 20.398438 6.601562 L 18 6.601562 Z M 15.601562 9 L 17.199219 9 L 17.199219 7.398438 L 21.257812 7.398438 C 21.328125 7.847656 21.417969 8.402344 21.511719 9 L 18.800781 9 L 18.800781 12.601562 L 22.082031 12.601562 C 22.25 13.664062 22.378906 14.476562 22.398438 14.625 L 22.398438 15.800781 L 16.398438 15.800781 L 16.398438 15 L 17.199219 15 L 17.199219 12.199219 L 15.601562 12.199219 L 15.601562 11.800781 L 16.398438 11.800781 L 16.398438 9.398438 L 15.601562 9.398438 Z M 21.953125 11.800781 L 19.601562 11.800781 L 19.601562 9.800781 L 21.636719 9.800781 Z M 10.800781 8.199219 L 10.800781 7.398438 C 10.800781 6.738281 11.339844 6.199219 12 6.199219 C 12.660156 6.199219 13.199219 6.738281 13.199219 7.398438 L 13.199219 8.199219 C 12.757812 8.199219 12.398438 8.558594 12.398438 9 L 12.398438 9.398438 L 11.601562 9.398438 L 11.601562 9 C 11.601562 8.558594 11.242188 8.199219 10.800781 8.199219 Z M 10.800781 10.199219 L 15.601562 10.199219 L 15.601562 11 L 8.398438 11 L 8.398438 10.199219 Z M 12.398438 14.199219 L 11.601562 14.199219 L 11.601562 11.800781 L 12.398438 11.800781 Z M 2.800781 1.800781 L 2.800781 2.199219 C 2.800781 2.421875 2.980469 2.601562 3.199219 2.601562 C 3.421875 2.601562 3.601562 2.421875 3.601562 2.199219 L 3.601562 1.800781 L 4.398438 1.800781 L 4.398438 2.199219 C 4.398438 2.421875 4.578125 2.601562 4.800781 2.601562 C 5.019531 2.601562 5.199219 2.421875 5.199219 2.199219 L 5.199219 1.800781 L 6 1.800781 L 6 2.199219 C 6 2.421875 6.179688 2.601562 6.398438 2.601562 C 6.621094 2.601562 6.800781 2.421875 6.800781 2.199219 L 6.800781 1.800781 L 7.199219 1.800781 L 7.199219 3 L 2.398438 3 L 2.398438 1.800781 Z M 2.398438 4.601562 L 2.398438 3.800781 L 7.199219 3.800781 L 7.199219 4.601562 Z M 3.601562 5.398438 L 6 5.398438 L 6 6.601562 L 3.601562 6.601562 Z M 2.800781 7.398438 L 6.800781 7.398438 L 6.800781 9 L 8.398438 9 L 8.398438 9.398438 L 7.601562 9.398438 L 7.601562 11.800781 L 8.398438 11.800781 L 8.398438 12.199219 L 6.800781 12.199219 L 6.800781 15 L 7.601562 15 L 7.601562 15.800781 L 1.601562 15.800781 L 1.601562 14.625 C 1.621094 14.476562 1.75 13.664062 1.917969 12.601562 L 5.199219 12.601562 L 5.199219 9 L 2.488281 9 C 2.582031 8.402344 2.671875 7.847656 2.742188 7.398438 Z M 2.363281 9.800781 L 4.398438 9.800781 L 4.398438 11.800781 L 2.046875 11.800781 Z M 8.398438 19 L 8.398438 22.199219 L 0.800781 22.199219 L 0.800781 19 Z M 2 18.199219 L 2 16.601562 L 7.199219 16.601562 L 7.199219 18.199219 Z M 7.601562 14.199219 L 7.601562 13 L 9.199219 13 L 9.199219 11.800781 L 10.800781 11.800781 L 10.800781 14.199219 Z M 12.398438 17.398438 L 11.601562 17.398438 L 11.601562 16.601562 L 12.398438 16.601562 Z M 15.601562 15.800781 L 8.398438 15.800781 L 8.398438 15 L 15.601562 15 Z M 13.199219 14.199219 L 13.199219 11.800781 L 14.800781 11.800781 L 14.800781 13 L 16.398438 13 L 16.398438 14.199219 Z M 16.800781 16.601562 L 22 16.601562 L 22 18.199219 L 16.800781 18.199219 Z M 23.199219 22.199219 L 15.601562 22.199219 L 15.601562 19 L 23.199219 19 Z M 23.199219 22.199219"/>
    <path d="M 12 8.601562 C 12.222656 8.601562 12.398438 8.421875 12.398438 8.199219 L 12.398438 7 C 12.398438 6.777344 12.222656 6.601562 12 6.601562 C 11.777344 6.601562 11.601562 6.777344 11.601562 7 L 11.601562 8.199219 C 11.601562 8.421875 11.777344 8.601562 12 8.601562 Z M 12 8.601562"/>
</svg>
