<svg xmlns="http://www.w3.org/2000/svg" width="32" height="32" viewBox="0 0 24 24">
    <path d="M16.453125 5.273438C18.386719 3.929688 19.945312 3.328125 20.9375 3.09375 20.886719 3.289062 20.828125 3.496094 20.753906 3.714844 20.496094 4.503906 19.933594 5.808594 18.726562 7.546875 18.597656 7.726562 18.644531 7.976562 18.824219 8.101562 18.894531 8.152344 18.972656 8.175781 19.054688 8.175781 19.179688 8.175781 19.304688 8.113281 19.382812 8.003906 20.382812 6.5625 21.121094 5.167969 21.515625 3.960938 21.589844 3.730469 21.65625 3.507812 21.710938 3.296875 21.789062 3.007812 21.707031 2.710938 21.496094 2.5 21.285156 2.292969 20.988281 2.214844 20.703125 2.292969 19.675781 2.574219 18.023438 3.207031 15.996094 4.617188 15.816406 4.742188 15.769531 4.992188 15.894531 5.175781 16.023438 5.355469 16.273438 5.402344 16.453125 5.273438zM10.894531 15.582031L8.667969 15.332031 8.421875 13.105469C8.394531 12.886719 8.199219 12.726562 7.976562 12.753906 7.757812 12.777344 7.601562 12.972656 7.625 13.195312L7.851562 15.242188 5.804688 15.015625C5.589844 14.992188 5.386719 15.148438 5.363281 15.367188 5.335938 15.585938 5.496094 15.785156 5.714844 15.808594L7.941406 16.058594 8.191406 18.285156C8.214844 18.488281 8.386719 18.640625 8.589844 18.640625 8.601562 18.640625 8.617188 18.640625 8.632812 18.636719 8.851562 18.613281 9.011719 18.417969 8.984375 18.195312L8.757812 16.148438 10.808594 16.375C10.820312 16.378906 10.835938 16.378906 10.851562 16.378906 11.050781 16.378906 11.226562 16.226562 11.25 16.023438 11.273438 15.800781 11.113281 15.605469 10.894531 15.582031zM7.5 18.972656L5.273438 18.726562 5.027344 16.5C5 16.28125 4.804688 16.117188 4.585938 16.144531 4.363281 16.171875 4.207031 16.367188 4.230469 16.585938L4.457031 18.636719 2.410156 18.410156C2.195312 18.382812 1.992188 18.542969 1.96875 18.761719 1.945312 18.980469 2.101562 19.179688 2.320312 19.203125L4.550781 19.449219 4.796875 21.679688C4.820312 21.882812 4.992188 22.035156 5.195312 22.035156 5.207031 22.035156 5.222656 22.035156 5.238281 22.03125 5.457031 22.007812 5.617188 21.808594 5.59375 21.589844L5.363281 19.542969 7.414062 19.769531C7.429688 19.769531 7.441406 19.773438 7.457031 19.773438 7.660156 19.773438 7.832031 19.621094 7.855469 19.414062 7.878906 19.195312 7.722656 19 7.5 18.972656zM13.679688 7.523438C12.929688 7.523438 12.226562 7.8125 11.699219 8.339844L10.285156 9.753906C10.285156 9.753906 10.285156 9.753906 10.285156 9.757812L8.816406 11.226562C8.679688 11.363281 8.605469 11.542969 8.605469 11.734375 8.605469 11.925781 8.679688 12.109375 8.816406 12.242188L11.757812 15.183594C11.894531 15.324219 12.082031 15.394531 12.265625 15.394531 12.449219 15.394531 12.632812 15.324219 12.773438 15.183594L15.660156 12.300781C16.75 11.207031 16.75 9.433594 15.660156 8.339844 15.132812 7.8125 14.429688 7.523438 13.679688 7.523438zM12.265625 14.5625L9.4375 11.734375 10.570312 10.605469 13.398438 13.433594zM15.09375 11.734375L13.960938 12.867188 11.132812 10.039062 12.265625 8.90625C12.640625 8.53125 13.144531 8.324219 13.679688 8.324219 14.214844 8.324219 14.71875 8.53125 15.09375 8.90625 15.875 9.6875 15.875 10.957031 15.09375 11.734375zM15.09375 11.734375"/>
    <path d="M 23.375 20.535156 L 20.316406 17.476562 C 20.039062 17.195312 19.6875 17.011719 19.296875 16.933594 C 18.761719 16.832031 18.332031 16.621094 18.019531 16.308594 L 15.964844 14.257812 L 17.824219 12.394531 C 24.183594 6.039062 23.625 0.960938 23.597656 0.75 L 23.558594 0.441406 L 23.25 0.402344 C 23.039062 0.375 17.960938 -0.183594 11.605469 6.175781 L 9.730469 8.046875 L 7.675781 5.992188 C 7.367188 5.683594 7.15625 5.253906 7.050781 4.71875 C 6.976562 4.328125 6.789062 3.972656 6.511719 3.695312 L 3.398438 0.585938 C 3 0.1875 2.445312 -0.0273438 1.882812 0.00390625 C 1.320312 0.03125 0.789062 0.296875 0.433594 0.734375 C -0.207031 1.519531 -0.121094 2.71875 0.625 3.464844 L 3.683594 6.523438 C 3.960938 6.800781 4.3125 6.988281 4.703125 7.066406 C 5.238281 7.167969 5.667969 7.378906 5.980469 7.691406 L 8.035156 9.742188 L 3.78125 13.996094 C 0.527344 17.25 -0.652344 21.164062 1.09375 22.90625 C 1.640625 23.453125 2.394531 23.710938 3.277344 23.710938 C 5.21875 23.710938 7.769531 22.457031 10.003906 20.21875 L 14.269531 15.953125 L 16.324219 18.007812 C 16.636719 18.320312 16.84375 18.746094 16.949219 19.285156 C 17.023438 19.671875 17.210938 20.027344 17.492188 20.304688 L 20.601562 23.417969 C 20.976562 23.789062 21.484375 24 22.015625 24 C 22.050781 24 22.082031 24 22.117188 23.996094 C 22.679688 23.96875 23.210938 23.703125 23.566406 23.265625 C 24.207031 22.480469 24.125 21.28125 23.375 20.535156 Z M 6.542969 7.125 C 6.121094 6.699219 5.550781 6.414062 4.855469 6.28125 C 4.625 6.234375 4.414062 6.125 4.246094 5.957031 L 1.191406 2.898438 C 0.730469 2.441406 0.667969 1.710938 1.054688 1.242188 C 1.269531 0.976562 1.578125 0.820312 1.921875 0.800781 C 1.945312 0.800781 1.964844 0.800781 1.984375 0.800781 C 2.304688 0.800781 2.609375 0.925781 2.832031 1.148438 L 5.945312 4.261719 C 6.109375 4.425781 6.222656 4.636719 6.265625 4.871094 C 6.402344 5.566406 6.683594 6.132812 7.109375 6.558594 L 9.164062 8.613281 L 8.597656 9.179688 Z M 9.4375 19.65625 C 6.601562 22.492188 3.039062 23.722656 1.660156 22.339844 C 1.015625 21.699219 0.914062 20.558594 1.371094 19.132812 C 1.859375 17.613281 2.917969 15.992188 4.347656 14.5625 L 8.597656 10.308594 L 9.234375 9.675781 L 12.167969 6.742188 C 15.339844 3.570312 18.160156 2.230469 19.964844 1.667969 C 21.308594 1.25 22.304688 1.183594 22.800781 1.183594 C 22.804688 1.183594 22.8125 1.183594 22.816406 1.183594 C 22.820312 2.378906 22.433594 6.65625 17.261719 11.832031 Z M 22.945312 22.757812 C 22.730469 23.023438 22.421875 23.179688 22.078125 23.199219 C 21.738281 23.214844 21.40625 23.089844 21.167969 22.851562 L 18.054688 19.738281 C 17.890625 19.574219 17.777344 19.363281 17.734375 19.132812 C 17.597656 18.4375 17.316406 17.867188 16.890625 17.441406 L 14.835938 15.386719 L 15.402344 14.820312 L 17.457031 16.875 C 17.878906 17.300781 18.449219 17.585938 19.144531 17.71875 C 19.375 17.765625 19.585938 17.875 19.753906 18.042969 L 22.8125 21.101562 C 23.269531 21.558594 23.332031 22.289062 22.945312 22.757812 Z M 22.945312 22.757812"/>
    <path d="M18.800781 5.601562C18.800781 5.820312 18.621094 6 18.398438 6 18.179688 6 18 5.820312 18 5.601562 18 5.378906 18.179688 5.199219 18.398438 5.199219 18.621094 5.199219 18.800781 5.378906 18.800781 5.601562zM18 6.398438C18 6.621094 17.820312 6.800781 17.601562 6.800781 17.378906 6.800781 17.199219 6.621094 17.199219 6.398438 17.199219 6.179688 17.378906 6 17.601562 6 17.820312 6 18 6.179688 18 6.398438zM17.199219 7.199219C17.199219 7.421875 17.019531 7.601562 16.800781 7.601562 16.578125 7.601562 16.398438 7.421875 16.398438 7.199219 16.398438 6.980469 16.578125 6.800781 16.800781 6.800781 17.019531 6.800781 17.199219 6.980469 17.199219 7.199219zM17.199219 7.199219"/>
</svg>
