<svg xmlns="http://www.w3.org/2000/svg" width="32" height="32" viewBox="0 0 24 24">
    <path d="M 11.632812 11.226562 L 10.523438 12.335938 C 9.71875 13.140625 9.714844 14.453125 10.515625 15.261719 C 10.90625 15.65625 11.425781 15.875 11.980469 15.878906 C 11.984375 15.878906 11.988281 15.878906 11.992188 15.878906 C 12.542969 15.878906 13.058594 15.664062 13.460938 15.265625 C 13.855469 14.875 14.074219 14.355469 14.078125 13.796875 C 14.078125 13.242188 13.863281 12.71875 13.46875 12.324219 L 12.371094 11.226562 C 12.175781 11.03125 11.828125 11.03125 11.632812 11.226562 Z M 13.277344 13.796875 C 13.277344 14.136719 13.140625 14.457031 12.886719 14.707031 C 12.648438 14.945312 12.328125 15.078125 11.992188 15.078125 C 11.988281 15.078125 11.988281 15.078125 11.984375 15.078125 C 11.644531 15.074219 11.324219 14.941406 11.085938 14.699219 C 10.59375 14.203125 10.59375 13.398438 11.089844 12.902344 L 12.003906 11.988281 L 12.902344 12.890625 C 13.144531 13.132812 13.277344 13.453125 13.277344 13.796875 Z M 13.277344 13.796875"/>
    <path d="M23.574219 12.523438C23.582031 12.496094 23.59375 12.476562 23.597656 12.453125 23.597656 12.4375 23.636719 12.132812 23.664062 11.621094 23.675781 11.402344 23.503906 11.214844 23.285156 11.203125 23.070312 11.195312 22.875 11.363281 22.863281 11.582031 22.855469 11.777344 22.84375 11.941406 22.832031 12.066406 22.695312 12.027344 22.550781 12 22.398438 12L22.277344 12C21.605469 7.679688 18.265625 4.230469 14 3.394531L14 2.800781 14.578125 2.800781C14.921875 2.800781 15.199219 2.519531 15.199219 2.179688L15.199219.621094C15.199219.277344 14.921875 0 14.578125 0L9.421875 0C9.078125 0 8.800781.277344 8.800781.621094L8.800781 2.179688C8.800781 2.519531 9.078125 2.800781 9.421875 2.800781L10 2.800781 10 3.394531C5.734375 4.230469 2.394531 7.679688 1.722656 12L1.601562 12C1.449219 12 1.304688 12.027344 1.167969 12.066406 1.15625 11.941406 1.144531 11.777344 1.136719 11.582031 1.125 11.359375.9375 11.195312.714844 11.203125.496094 11.214844.324219 11.402344.335938 11.621094.363281 12.132812.402344 12.4375.402344 12.453125.40625 12.476562.417969 12.496094.425781 12.523438.164062 12.804688 0 13.183594 0 13.601562 0 14.480469.71875 15.199219 1.601562 15.199219L1.722656 15.199219C2.496094 20.175781 6.808594 24 12 24 17.191406 24 21.503906 20.175781 22.277344 15.199219L22.398438 15.199219C23.28125 15.199219 24 14.480469 24 13.601562 24 13.183594 23.835938 12.804688 23.574219 12.523438zM9.601562 2L9.601562.800781 10 .800781 10 1.199219C10 1.421875 10.179688 1.601562 10.398438 1.601562 10.621094 1.601562 10.800781 1.421875 10.800781 1.199219L10.800781.800781 11.601562.800781 11.601562 1.199219C11.601562 1.421875 11.777344 1.601562 12 1.601562 12.222656 1.601562 12.398438 1.421875 12.398438 1.199219L12.398438.800781 13.199219.800781 13.199219 1.199219C13.199219 1.421875 13.378906 1.601562 13.601562 1.601562 13.820312 1.601562 14 1.421875 14 1.199219L14 .800781 14.398438.800781 14.398438 2zM10.800781 3.199219L10.800781 2.800781 13.199219 2.800781 13.199219 3.199219zM1.601562 14.398438C1.160156 14.398438.800781 14.042969.800781 13.601562.800781 13.160156 1.160156 12.800781 1.601562 12.800781zM12 23.199219C6.707031 23.199219 2.398438 18.894531 2.398438 13.601562 2.398438 8.308594 6.707031 4 12 4 17.292969 4 21.601562 8.308594 21.601562 13.601562 21.601562 18.894531 17.292969 23.199219 12 23.199219zM22.398438 14.398438L22.398438 12.800781C22.839844 12.800781 23.199219 13.160156 23.199219 13.601562 23.199219 14.042969 22.839844 14.398438 22.398438 14.398438zM1.566406 5.695312C1.617188 5.71875 1.671875 5.730469 1.726562 5.730469 1.878906 5.730469 2.027344 5.640625 2.09375 5.492188 2.199219 5.257812 2.3125 5.03125 2.4375 4.816406 2.546875 4.621094 2.476562 4.378906 2.285156 4.269531 2.09375 4.160156 1.851562 4.226562 1.742188 4.417969 1.605469 4.65625 1.480469 4.910156 1.363281 5.167969 1.273438 5.367188 1.363281 5.605469 1.566406 5.695312zM3.023438 3.722656C3.132812 3.722656 3.238281 3.679688 3.316406 3.59375 3.488281 3.410156 3.667969 3.234375 3.855469 3.074219 4.023438 2.933594 4.046875 2.679688 3.902344 2.511719 3.761719 2.34375 3.507812 2.320312 3.339844 2.464844 3.125 2.644531 2.921875 2.84375 2.726562 3.054688 2.578125 3.214844 2.589844 3.46875 2.753906 3.617188 2.828125 3.6875 2.925781 3.722656 3.023438 3.722656zM4.9375 2.308594C4.996094 2.308594 5.054688 2.296875 5.109375 2.269531 5.332031 2.164062 5.566406 2.070312 5.804688 1.988281 6.015625 1.917969 6.128906 1.691406 6.058594 1.484375 5.988281 1.273438 5.761719 1.160156 5.550781 1.230469 5.28125 1.320312 5.015625 1.425781 4.765625 1.546875 4.566406 1.640625 4.480469 1.878906 4.574219 2.078125 4.644531 2.222656 4.789062 2.308594 4.9375 2.308594zM4.9375 2.308594"/>
    <path d="M7.234375 1.667969C7.25 1.667969 7.265625 1.664062 7.28125 1.664062 7.527344 1.636719 7.785156 1.613281 8.042969 1.605469 8.265625 1.597656 8.4375 1.414062 8.429688 1.191406 8.421875.976562 8.246094.804688 8.03125.804688 8.027344.804688 8.019531.804688 8.015625.804688 7.734375.816406 7.453125.835938 7.1875.871094 6.96875.894531 6.8125 1.09375 6.835938 1.3125 6.859375 1.515625 7.035156 1.667969 7.234375 1.667969zM.710938 10.402344C.71875 10.402344.722656 10.402344.730469 10.402344.941406 10.402344 1.121094 10.234375 1.128906 10.019531 1.140625 9.769531 1.15625 9.507812 1.179688 9.238281 1.203125 9.019531 1.039062 8.824219.820312 8.804688.601562 8.789062.40625 8.945312.386719 9.164062.359375 9.449219.34375 9.722656.332031 9.984375.320312 10.207031.492188 10.390625.710938 10.402344zM.933594 8.007812C.957031 8.015625.984375 8.019531 1.011719 8.019531 1.199219 8.019531 1.363281 7.886719 1.402344 7.695312 1.453125 7.445312 1.511719 7.195312 1.582031 6.945312 1.640625 6.730469 1.511719 6.511719 1.300781 6.453125 1.089844 6.394531.867188 6.519531.808594 6.734375.738281 6.992188.675781 7.265625.617188 7.539062.574219 7.753906.714844 7.964844.933594 8.007812zM21.90625 5.492188C21.972656 5.640625 22.121094 5.730469 22.273438 5.730469 22.328125 5.730469 22.382812 5.71875 22.433594 5.695312 22.636719 5.605469 22.726562 5.367188 22.636719 5.167969 22.519531 4.910156 22.394531 4.65625 22.257812 4.417969 22.148438 4.226562 21.90625 4.160156 21.714844 4.269531 21.523438 4.378906 21.453125 4.621094 21.5625 4.816406 21.6875 5.03125 21.800781 5.257812 21.90625 5.492188zM22.417969 6.941406C22.488281 7.195312 22.546875 7.445312 22.597656 7.695312 22.636719 7.886719 22.800781 8.015625 22.988281 8.015625 23.011719 8.015625 23.039062 8.015625 23.066406 8.007812 23.285156 7.964844 23.425781 7.753906 23.378906 7.539062 23.324219 7.261719 23.261719 6.992188 23.191406 6.734375 23.132812 6.519531 22.910156 6.394531 22.699219 6.453125 22.488281 6.511719 22.359375 6.730469 22.417969 6.941406zM20.683594 3.59375C20.761719 3.679688 20.871094 3.722656 20.976562 3.722656 21.074219 3.722656 21.171875 3.6875 21.246094 3.617188 21.410156 3.46875 21.421875 3.214844 21.273438 3.054688 21.078125 2.84375 20.875 2.644531 20.660156 2.464844 20.492188 2.320312 20.238281 2.34375 20.097656 2.511719 19.953125 2.679688 19.976562 2.933594 20.144531 3.074219 20.332031 3.234375 20.511719 3.410156 20.683594 3.59375zM22.820312 9.238281C22.84375 9.507812 22.859375 9.769531 22.871094 10.019531 22.878906 10.234375 23.058594 10.402344 23.269531 10.402344 23.277344 10.402344 23.28125 10.402344 23.289062 10.402344 23.507812 10.390625 23.679688 10.207031 23.667969 9.984375 23.660156 9.722656 23.640625 9.449219 23.613281 9.167969 23.59375 8.945312 23.402344 8.789062 23.179688 8.804688 22.960938 8.824219 22.796875 9.019531 22.820312 9.238281zM15.957031 1.605469C16.214844 1.613281 16.472656 1.636719 16.71875 1.664062 16.734375 1.664062 16.75 1.667969 16.765625 1.667969 16.964844 1.667969 17.140625 1.519531 17.164062 1.316406 17.1875 1.09375 17.03125.894531 16.8125.871094 16.546875.839844 16.265625.816406 15.984375.808594 15.746094.796875 15.578125.972656 15.570312 1.191406 15.5625 1.414062 15.734375 1.597656 15.957031 1.605469zM18.195312 1.988281C18.433594 2.070312 18.667969 2.164062 18.890625 2.269531 18.945312 2.296875 19.003906 2.308594 19.0625 2.308594 19.210938 2.308594 19.355469 2.222656 19.421875 2.078125 19.519531 1.878906 19.433594 1.640625 19.234375 1.546875 18.984375 1.425781 18.71875 1.320312 18.449219 1.230469 18.242188 1.160156 18.015625 1.273438 17.941406 1.480469 17.875 1.691406 17.984375 1.917969 18.195312 1.988281zM18.519531 16.628906L18.523438 16.628906C17.347656 19.152344 14.8125 20.800781 12 20.800781 9.1875 20.800781 6.652344 19.152344 5.476562 16.632812L5.480469 16.632812C5.378906 16.417969 5.289062 16.195312 5.207031 15.960938L4.453125 16.226562C5.574219 19.441406 8.609375 21.601562 12 21.601562 15.390625 21.601562 18.425781 19.441406 19.546875 16.226562L18.792969 15.960938C18.710938 16.195312 18.621094 16.417969 18.519531 16.628906zM5.3125 10.949219L5.308594 10.945312C6.378906 8.25 9.015625 6.398438 12 6.398438 14.984375 6.398438 17.621094 8.25 18.691406 10.945312L18.6875 10.949219C18.851562 11.359375 18.980469 11.789062 19.066406 12.222656L19.847656 12.070312C19.121094 8.320312 15.820312 5.601562 12 5.601562 8.179688 5.601562 4.878906 8.320312 4.152344 12.070312L4.933594 12.222656C5.023438 11.789062 5.148438 11.359375 5.3125 10.949219zM5.3125 10.949219"/>
</svg>
