<svg xmlns="http://www.w3.org/2000/svg" width="32" height="32" viewBox="0 0 24 24">
    <path d="M14 12.976562L14.683594 12.292969C14.839844 12.136719 14.839844 11.882812 14.683594 11.726562 14.527344 11.570312 14.273438 11.570312 14.117188 11.726562L13.425781 12.421875C13.210938 11.359375 12.742188 9.609375 12 9.609375 11.273438 9.609375 10.789062 11.335938 10.566406 12.414062L9.882812 11.726562C9.726562 11.570312 9.472656 11.570312 9.316406 11.726562 9.160156 11.882812 9.160156 12.136719 9.316406 12.292969L10.015625 12.992188C8.957031 13.203125 7.199219 13.667969 7.199219 14.410156 7.199219 15.148438 8.945312 15.613281 10.015625 15.832031L9.316406 16.527344C9.160156 16.683594 9.160156 16.9375 9.316406 17.09375 9.394531 17.171875 9.496094 17.210938 9.601562 17.210938 9.703125 17.210938 9.804688 17.171875 9.882812 17.09375L10.585938 16.390625C10.804688 17.453125 11.273438 19.210938 12 19.210938 12.738281 19.210938 13.203125 17.457031 13.417969 16.394531L14.117188 17.09375C14.195312 17.171875 14.296875 17.210938 14.398438 17.210938 14.503906 17.210938 14.605469 17.171875 14.683594 17.09375 14.839844 16.9375 14.839844 16.683594 14.683594 16.527344L13.988281 15.832031C15.054688 15.617188 16.800781 15.152344 16.800781 14.410156 16.800781 13.683594 15.070312 13.199219 14 12.976562zM13.136719 15.175781C12.933594 15.1875 12.773438 15.347656 12.761719 15.550781 12.71875 16.261719 12.292969 17.71875 12 18.261719 11.710938 17.71875 11.289062 16.257812 11.246094 15.546875 11.230469 15.34375 11.070312 15.183594 10.867188 15.171875 10.15625 15.128906 8.691406 14.707031 8.148438 14.410156 8.6875 14.121094 10.144531 13.703125 10.855469 13.65625 11.058594 13.644531 11.21875 13.480469 11.226562 13.277344 11.265625 12.585938 11.703125 11.09375 12 10.554688 12.296875 11.089844 12.722656 12.554688 12.765625 13.261719 12.777344 13.464844 12.941406 13.628906 13.144531 13.640625 13.832031 13.675781 15.316406 14.113281 15.855469 14.410156 15.320312 14.707031 13.847656 15.136719 13.136719 15.175781zM12 8.8125C12.222656 8.8125 12.398438 8.632812 12.398438 8.410156L12.398438 7.210938C12.398438 6.988281 12.222656 6.8125 12 6.8125 11.777344 6.8125 11.601562 6.988281 11.601562 7.210938L11.601562 8.410156C11.601562 8.632812 11.777344 8.8125 12 8.8125zM12 20.011719C11.777344 20.011719 11.601562 20.191406 11.601562 20.410156L11.601562 21.609375C11.601562 21.832031 11.777344 22.011719 12 22.011719 12.222656 22.011719 12.398438 21.832031 12.398438 21.609375L12.398438 20.410156C12.398438 20.191406 12.222656 20.011719 12 20.011719zM19.199219 14.011719L18 14.011719C17.777344 14.011719 17.601562 14.191406 17.601562 14.410156 17.601562 14.632812 17.777344 14.8125 18 14.8125L19.199219 14.8125C19.421875 14.8125 19.601562 14.632812 19.601562 14.410156 19.601562 14.191406 19.421875 14.011719 19.199219 14.011719zM6.398438 14.410156C6.398438 14.191406 6.222656 14.011719 6 14.011719L4.800781 14.011719C4.578125 14.011719 4.398438 14.191406 4.398438 14.410156 4.398438 14.632812 4.578125 14.8125 4.800781 14.8125L6 14.8125C6.222656 14.8125 6.398438 14.632812 6.398438 14.410156zM6.398438 14.410156"/>
    <path d="M 13.484375 4.9375 C 13.71875 4.675781 13.890625 4.355469 13.960938 4 L 16 4 C 17.101562 4 18 3.101562 18 2 C 18 0.898438 17.101562 0 16 0 L 8 0 C 6.898438 0 6 0.898438 6 2 C 6 3.101562 6.898438 4 8 4 L 10.039062 4 C 10.109375 4.355469 10.28125 4.675781 10.515625 4.9375 C 5.929688 5.652344 2.410156 9.628906 2.410156 14.410156 C 2.410156 19.699219 6.710938 24 12 24 C 17.289062 24 21.589844 19.699219 21.589844 14.410156 C 21.589844 9.628906 18.070312 5.652344 13.484375 4.9375 Z M 6.800781 2 C 6.800781 1.339844 7.339844 0.800781 8 0.800781 L 16 0.800781 C 16.660156 0.800781 17.199219 1.339844 17.199219 2 C 17.199219 2.660156 16.660156 3.199219 16 3.199219 L 13.957031 3.199219 C 13.765625 2.292969 12.960938 1.609375 12 1.609375 C 11.039062 1.609375 10.234375 2.292969 10.042969 3.199219 L 8 3.199219 C 7.339844 3.199219 6.800781 2.660156 6.800781 2 Z M 12 3.199219 L 10.878906 3.199219 C 11.046875 2.742188 11.484375 2.410156 12 2.410156 C 12.660156 2.410156 13.199219 2.949219 13.199219 3.609375 C 13.199219 4.273438 12.660156 4.8125 12 4.8125 C 11.476562 4.8125 11.03125 4.46875 10.871094 4 L 12 4 C 12.222656 4 12.398438 3.820312 12.398438 3.601562 C 12.398438 3.378906 12.222656 3.199219 12 3.199219 Z M 12 23.199219 C 7.152344 23.199219 3.210938 19.257812 3.210938 14.410156 C 3.210938 9.5625 7.152344 5.621094 12 5.621094 C 16.847656 5.621094 20.789062 9.5625 20.789062 14.410156 C 20.789062 19.257812 16.847656 23.199219 12 23.199219 Z M 12 23.199219"/>
    <path d="M5.5625 11.15625L6.605469 11.757812C6.667969 11.792969 6.734375 11.8125 6.804688 11.8125 6.941406 11.8125 7.078125 11.738281 7.152344 11.609375 7.261719 11.417969 7.195312 11.175781 7.003906 11.0625L5.964844 10.464844C5.773438 10.355469 5.527344 10.417969 5.417969 10.609375 5.308594 10.800781 5.375 11.046875 5.5625 11.15625zM18.4375 17.664062L17.394531 17.0625C17.203125 16.953125 16.960938 17.019531 16.847656 17.210938 16.738281 17.402344 16.804688 17.648438 16.996094 17.757812L18.035156 18.355469C18.097656 18.394531 18.167969 18.410156 18.234375 18.410156 18.375 18.410156 18.507812 18.339844 18.582031 18.210938 18.691406 18.019531 18.625 17.773438 18.4375 17.664062zM14.800781 9.5625C14.863281 9.597656 14.929688 9.613281 15 9.613281 15.136719 9.613281 15.273438 9.542969 15.347656 9.414062L15.945312 8.375C16.058594 8.183594 15.992188 7.941406 15.800781 7.828125 15.609375 7.71875 15.363281 7.785156 15.253906 7.976562L14.652344 9.015625C14.542969 9.207031 14.609375 9.449219 14.800781 9.5625zM9.199219 19.261719C9.007812 19.148438 8.765625 19.214844 8.652344 19.40625L8.054688 20.445312C7.941406 20.636719 8.007812 20.882812 8.199219 20.992188 8.261719 21.027344 8.332031 21.046875 8.398438 21.046875 8.539062 21.046875 8.671875 20.972656 8.746094 20.847656L8.945312 20.5 9.347656 19.808594C9.457031 19.617188 9.390625 19.371094 9.199219 19.261719zM8.652344 9.414062C8.726562 9.542969 8.863281 9.613281 9 9.613281 9.070312 9.613281 9.136719 9.597656 9.199219 9.5625 9.390625 9.449219 9.457031 9.207031 9.347656 9.015625L8.746094 7.976562C8.636719 7.785156 8.390625 7.71875 8.199219 7.828125 8.007812 7.941406 7.941406 8.183594 8.054688 8.375zM15.347656 19.40625C15.234375 19.214844 14.992188 19.148438 14.800781 19.261719 14.609375 19.371094 14.542969 19.617188 14.652344 19.808594L15.253906 20.847656C15.328125 20.972656 15.460938 21.046875 15.601562 21.046875 15.667969 21.046875 15.738281 21.027344 15.800781 20.992188 15.992188 20.882812 16.058594 20.636719 15.945312 20.445312zM17.195312 11.8125C17.265625 11.8125 17.332031 11.792969 17.394531 11.757812L18.4375 11.15625C18.628906 11.046875 18.691406 10.800781 18.582031 10.609375 18.472656 10.417969 18.226562 10.355469 18.035156 10.464844L16.996094 11.0625C16.804688 11.175781 16.738281 11.417969 16.847656 11.609375 16.925781 11.738281 17.058594 11.8125 17.195312 11.8125zM6.605469 17.0625L5.910156 17.464844 5.566406 17.664062C5.375 17.773438 5.308594 18.019531 5.417969 18.210938 5.492188 18.339844 5.625 18.410156 5.765625 18.410156 5.832031 18.410156 5.902344 18.394531 5.964844 18.355469L6.3125 18.15625 7.003906 17.757812C7.195312 17.648438 7.261719 17.402344 7.152344 17.210938 7.039062 17.019531 6.792969 16.953125 6.605469 17.0625zM6.605469 17.0625"/>
</svg>
