<svg xmlns="http://www.w3.org/2000/svg" width="32" height="32" viewBox="0 0 24 24">
    <path d="M14 12.977l.684-.684a.4.4 0 0 0-.567-.566l-.691.695c-.215-1.063-.684-2.813-1.426-2.813-.727 0-1.21 1.727-1.434 2.805l-.683-.687a.4.4 0 0 0-.567.566l.7.7c-1.059.21-2.817.675-2.817 1.417 0 .738 1.746 1.203 2.817 1.422l-.7.695a.4.4 0 0 0 .567.567l.703-.703c.219 1.062.687 2.82 1.414 2.82.738 0 1.203-1.754 1.418-2.816l.7.699a.399.399 0 0 0 .566 0 .4.4 0 0 0 0-.567l-.696-.695c1.067-.215 2.813-.68 2.813-1.422 0-.726-1.73-1.21-2.801-1.433zm-.863 2.199a.397.397 0 0 0-.375.375c-.043.71-.469 2.168-.762 2.71-.29-.542-.71-2.003-.754-2.714a.404.404 0 0 0-.379-.375c-.71-.043-2.176-.465-2.719-.762.54-.289 1.997-.707 2.707-.754a.394.394 0 0 0 .372-.379c.039-.691.476-2.183.773-2.722.297.535.723 2 .766 2.707a.404.404 0 0 0 .379.379c.687.035 2.171.472 2.71.77-.535.296-2.007.726-2.718.765zm0 0M12 8.813c.223 0 .398-.18.398-.403v-1.2A.395.395 0 0 0 12 6.814a.395.395 0 0 0-.398.398v1.2c0 .222.175.402.398.402zm0 0M12 20.012a.398.398 0 0 0-.398.398v1.2a.398.398 0 1 0 .796 0v-1.2a.398.398 0 0 0-.398-.398zm0 0M19.2 14.012H18a.398.398 0 0 0-.398.398c0 .223.175.402.398.402h1.2a.401.401 0 0 0 0-.8zm0 0M6.398 14.41A.398.398 0 0 0 6 14.012H4.8a.401.401 0 1 0 0 .8H6c.223 0 .398-.18.398-.402zm0 0"/>
    <path d="M13.484 4.938c.235-.262.407-.583.477-.938H16c1.102 0 2-.898 2-2 0-1.102-.898-2-2-2H8C6.898 0 6 .898 6 2c0 1.102.898 2 2 2h2.04c.07.355.241.676.476.938-4.586.714-8.106 4.69-8.106 9.472C2.41 19.7 6.71 24 12 24s9.59-4.3 9.59-9.59c0-4.781-3.52-8.758-8.106-9.473zM6.801 2C6.8 1.34 7.34.8 8 .8h8c.66 0 1.2.54 1.2 1.2 0 .66-.54 1.2-1.2 1.2h-2.043A2.006 2.006 0 0 0 12 1.61c-.96 0-1.766.683-1.957 1.59H8c-.66 0-1.2-.54-1.2-1.2zM12 3.2h-1.121A1.2 1.2 0 0 1 12 2.41a1.202 1.202 0 0 1 0 2.402A1.2 1.2 0 0 1 10.871 4H12c.223 0 .398-.18.398-.398A.398.398 0 0 0 12 3.199zm0 20c-4.848 0-8.79-3.942-8.79-8.79 0-4.848 3.942-8.789 8.79-8.789 4.848 0 8.79 3.941 8.79 8.79 0 4.847-3.942 8.788-8.79 8.788zm0 0"/>
    <path d="M5.563 11.156l1.042.602a.402.402 0 0 0 .2.055.403.403 0 0 0 .2-.75l-1.04-.598a.4.4 0 0 0-.547.144.404.404 0 0 0 .144.547zm0 0M18.438 17.664l-1.043-.602a.403.403 0 0 0-.547.149.402.402 0 0 0 .148.547l1.04.597a.397.397 0 0 0 .547-.145.404.404 0 0 0-.146-.546zm0 0M14.8 9.563c.063.035.13.05.2.05.137 0 .273-.07.348-.199l.597-1.039a.398.398 0 1 0-.691-.398l-.602 1.039a.403.403 0 0 0 .149.546zm0 0M9.2 19.262a.398.398 0 0 0-.548.144l-.597 1.04a.397.397 0 0 0 .144.546.414.414 0 0 0 .2.055c.14 0 .273-.074.347-.2l.2-.347.402-.691a.402.402 0 0 0-.149-.547zm0 0M8.652 9.414c.075.129.211.2.348.2.07 0 .137-.016.2-.052a.403.403 0 0 0 .148-.546l-.602-1.04a.398.398 0 1 0-.691.398zm0 0M15.348 19.406a.402.402 0 0 0-.695.402l.6 1.04c.075.125.208.199.349.199.066 0 .136-.02.199-.055a.397.397 0 0 0 .144-.547zm0 0M17.195 11.813c.07 0 .137-.02.2-.055l1.043-.602a.4.4 0 0 0-.403-.691l-1.039.598a.403.403 0 0 0 .2.75zm0 0M6.605 17.063l-.695.402-.344.2a.402.402 0 0 0-.148.546.397.397 0 0 0 .547.144l.348-.199.69-.398a.402.402 0 0 0 .15-.547.404.404 0 0 0-.548-.148zm0 0"/>
</svg>
