<svg xmlns="http://www.w3.org/2000/svg" width="32" height="32" viewBox="0 0 24 24">
    <path d="M15.008 19.902a.811.811 0 0 1 0 1.141.804.804 0 0 1-1.14 0l-.571.57c.316.317.726.473 1.14.473a1.615 1.615 0 0 0 1.14-2.754zm0 0"/>
    <path d="M23.512 11.484l-.528-.527.278-.273a.406.406 0 0 0 0-.57.399.399 0 0 0-.57 0l-.118.116V9.187a.405.405 0 0 0-.808 0v.551l-1.332-1.332-2.04-1.988a4.934 4.934 0 0 1-.87-1.16l.046.015a2.234 2.234 0 0 0 1.965-.148 2.03 2.03 0 0 0 1.008-1.523c.008-.086.016-.172.016-.258V2.94a2.222 2.222 0 0 0-2.22-2.218 2.219 2.219 0 0 0-2.214 2.218c0 .368.035.735.105 1.094l-5.628-1.68-5.59-1.75A6.395 6.395 0 0 0 3.129.32c-.711 0-1.367.242-1.895.645L.688.422a.399.399 0 0 0-.57 0 .406.406 0 0 0 0 .57l.542.543A3.11 3.11 0 0 0 0 3.45a4.54 4.54 0 0 0 1.39 3.266L3.5 8.746l-.156.156a.399.399 0 0 0 0 .57.405.405 0 0 0 .57 0l.164-.167 1.809 1.742-.203.2a.406.406 0 0 0 0 .57.412.412 0 0 0 .285.117c.105 0 .207-.04.285-.118l.21-.21 1.77 1.703-.347.347a.406.406 0 0 0 0 .57.412.412 0 0 0 .285.118c.105 0 .207-.04.285-.117l.36-.36 3.98 3.836a3.162 3.162 0 0 0-1.027.96l-1.942-.73-.535 1.606c-.07.211.043.441.254.512.21.07.437-.047.508-.254l.273-.817 1.078.407a3.223 3.223 0 0 0 .75 3.367 3.21 3.21 0 0 0 2.281.941c.825 0 1.653-.312 2.282-.941a3.215 3.215 0 0 0 .926-2.578l2.777 2.863c.316.313.726.473 1.14.473.415 0 .825-.16 1.141-.473a1.616 1.616 0 0 0-.004-2.285l-3.18-3.082.004-.004-2.89-2.809-.008.004L3.665 2.29a1.204 1.204 0 0 0-1.349-.238l-.507-.512a2.323 2.323 0 0 1 1.32-.414c.558 0 1.11.086 1.64.25l5.594 1.75 6.133 1.828c.29.766.746 1.465 1.336 2.04l2.04 1.987 1.413 1.418h-.726a.405.405 0 0 0-.407.403c0 .222.184.402.407.402h1.043l-.122.117a.406.406 0 0 0 0 .57.405.405 0 0 0 .57 0l.364-.363.527.528c.2.199.282.437.247.715-.04.28-.192.57-.438.812-.45.45-.656.457-.707.453-.137-.023-.293-.293-.414-.515a.402.402 0 0 0-.266-.703h-1.375l.688.687c.062.062.148.219.222.36.204.374.48.886 1.028.968.426.059.87-.156 1.394-.68.371-.367.606-.824.664-1.28a1.616 1.616 0 0 0-.472-1.388zM1.949 6.133A3.682 3.682 0 0 1 .914 4.336c-.07-.29-.11-.59-.11-.887 0-.5.16-.96.43-1.34l.5.5c-.222.45-.156 1 .22 1.391L5.05 7.195l-.98.98zm2.7 2.601l.964-.96 1.746 1.8-.902.903zm2.386 2.301l.887-.883 1.707 1.762-.824.824zm6.543 6.297l-4.191-4.035.804-.805 4.336 4.469-.004.008.297.308a3.23 3.23 0 0 0-1.222.086c-.008-.008-.012-.02-.02-.031zm4.793.348l-1.027 1.027-1.684-1.734.977-.977zm-2.223 4.504a2.426 2.426 0 0 1-3.421 0 2.423 2.423 0 0 1-.563-2.512l.996.375a.442.442 0 0 0 .14.023.403.403 0 0 0 .145-.78l-.879-.33c.055-.065.102-.136.16-.194a2.413 2.413 0 0 1 1.711-.707c.622 0 1.239.234 1.711.707a2.421 2.421 0 0 1 0 3.418zm5.985-.856a.806.806 0 1 1-1.137 1.145l-3.09-3.188 1.043-1.043zM2.809 2.746c.105 0 .21.043.293.121l12.957 12.567-.961.96L2.53 3.439a.407.407 0 0 1-.004-.575.396.396 0 0 1 .282-.117zm14.12.195c0-.78.634-1.414 1.41-1.414.778 0 1.411.633 1.411 1.414v.403a1.228 1.228 0 0 1-.625 1.086 1.432 1.432 0 0 1-1.266.093l-.734-.222a4.847 4.847 0 0 1-.195-1.36zm0 0"/>
</svg>
