<svg xmlns="http://www.w3.org/2000/svg" width="32" height="32" viewBox="0 0 24 24">
    <path d="M19.008 11.64a.398.398 0 0 0-.52.227.395.395 0 0 0 .227.516c2.808 1.105 4.484 2.836 4.484 4.629 0 3.199-5.023 5.8-11.199 5.8S.8 20.212.8 17.012c0-1.809 1.7-3.547 4.544-4.653a.398.398 0 0 0 .23-.515.404.404 0 0 0-.52-.23C1.892 12.84 0 14.858 0 17.011c0 3.699 5.27 6.601 12 6.601s12-2.902 12-6.601c0-2.168-1.82-4.125-4.992-5.371zm0 0"/>
    <path d="M1.602 17.012c0 2.945 5.48 5 10.398 5 4.918 0 10.398-2.055 10.398-5 0-1.48-1.367-2.836-3.851-3.813a.4.4 0 0 0-.52.227.4.4 0 0 0 .227.52c2.125.835 3.348 1.952 3.348 3.066 0 2.16-4.668 4.199-9.602 4.199s-9.602-2.04-9.602-4.2c0-1.113 1.223-2.23 3.348-3.066a.4.4 0 0 0 .227-.52.406.406 0 0 0-.52-.226c-2.484.977-3.851 2.332-3.851 3.813zm0 0"/>
    <path d="M3.2 17.012c0 1.875 5.323 3.398 8.8 3.398 4.86 0 8.8-2.055 8.8-3.398 0-.926-1.581-1.848-3.058-2.403a.4.4 0 1 0-.281.75c1.914.72 2.539 1.473 2.539 1.653 0 .629-3.32 2.601-8 2.601s-8-1.972-8-2.601c0-.16.512-.817 2.152-1.5.207-.086.301-.32.215-.524a.398.398 0 0 0-.523-.215c-.617.258-2.645 1.184-2.645 2.239zm0 0"/>
    <path d="M7.602 17.988A.4.4 0 0 0 8 17.59c0-1.117.11-2.035.285-2.8h7.43c.176.765.285 1.683.285 2.8a.4.4 0 0 0 .8 0c0-4.195-1.445-5.856-2.308-6.844l-.12-.144A1.552 1.552 0 0 1 14 9.59V7.988h-1.602V5.355l.918.915a.399.399 0 0 0 .567 0 .396.396 0 0 0 0-.563l-.918-.918h.637a.401.401 0 0 0 0-.8h-.637l.918-.919a.4.4 0 0 0-.567-.566l-.918.918V.789a.398.398 0 1 0-.796 0v2.633l-.918-.918a.4.4 0 0 0-.567.566l.918.918h-.637a.4.4 0 0 0 0 .801h.637l-.918.918a.396.396 0 0 0 0 .563.399.399 0 0 0 .566 0l.919-.915v2.633H10V9.59c0 .375-.133.734-.371 1.012l-.121.144c-.863.988-2.309 2.645-2.309 6.844 0 .219.18.398.403.398zm2.507-6.718l.13-.145c.363-.422.562-.969.562-1.535v-.8h2.398v.8c0 .566.2 1.113.563 1.535l.129.145c.476.55 1.148 1.328 1.605 2.718H8.504c.457-1.39 1.129-2.168 1.605-2.718zm0 0"/>
</svg>
