<svg xmlns="http://www.w3.org/2000/svg" width="32" height="32" viewBox="0 0 24 24">
    <path d="M21.102.621a2.902 2.902 0 0 0-2.864 2.48H5.762A2.902 2.902 0 0 0 2.898.622 2.902 2.902 0 0 0 0 3.516v16.968c0 1.594 1.3 2.895 2.898 2.895h18.204c1.597 0 2.898-1.3 2.898-2.895V3.516C24 1.922 22.7.62 21.102.62zM.828 3.516a2.068 2.068 0 0 1 4.137 0v14.941a2.888 2.888 0 0 0-4.137 0zM21.102 22.55H9.516v-.414a.414.414 0 0 0-.414-.414.413.413 0 0 0-.41.414v.414h-.829v-1.653a.414.414 0 0 0-.828 0v1.653H2.898a2.068 2.068 0 1 1 2.067-2.067h.828V3.93h8.277v1.656a.414.414 0 0 0 .828 0V3.93h.825v.828a.414.414 0 0 0 .828 0V3.93h1.656v16.554h.828c0-1.14.926-2.07 2.067-2.07a2.068 2.068 0 1 1 0 4.137zm2.07-4.094a2.888 2.888 0 0 0-4.137 0V3.516a2.068 2.068 0 1 1 4.137 0zm0 0"/>
    <path d="M9.242 11.86c-.094-.29-.14-.59-.14-.895a.413.413 0 0 0-.41-.414.414.414 0 0 0-.415.414c0 .39.059.773.176 1.144a.41.41 0 0 0 .516.27c.219-.07.34-.3.273-.52zm0 0M10.746 13.71a3.495 3.495 0 0 1-.926-.792.415.415 0 0 0-.582-.059.411.411 0 0 0-.058.582c.316.387.699.715 1.14.98a.414.414 0 0 0 .57-.14.418.418 0 0 0-.144-.57zm0 0M13.969 14.453a3.76 3.76 0 0 0-1.14-.176c-.317 0-.634-.035-.938-.105a.41.41 0 0 0-.496.308c-.051.223.09.446.312.497.363.085.742.125 1.121.125.305 0 .606.046.895.14a.416.416 0 0 0 .52-.273.413.413 0 0 0-.274-.516zm0 0M16.285 16.32a4.383 4.383 0 0 0-.98-1.14.414.414 0 1 0-.524.64c.309.254.578.567.793.926a.418.418 0 0 0 .356.203c.07 0 .144-.02.21-.062a.414.414 0 0 0 .145-.567zm0 0M16.344 17.395a.415.415 0 0 0-.313.496c.07.304.106.62.106.937a.414.414 0 0 0 .828 0 5.11 5.11 0 0 0-.125-1.121.415.415 0 0 0-.496-.312zm0 0M9.637 10.43l.586-.586-.95-.946.95-.949-.586-.586-.946.95-.949-.95-.586.586.95.95-.95.945.586.586.95-.95zm0 0"/>
</svg>
