<svg xmlns="http://www.w3.org/2000/svg" width="32" height="32" viewBox="0 0 24 24">
    <path d="M 23.878906 23.289062 L 18.324219 17.734375 L 18.324219 14.421875 C 18.324219 14.191406 18.136719 14.007812 17.90625 14.007812 C 17.675781 14.007812 17.492188 14.191406 17.492188 14.421875 L 17.492188 16.902344 L 12.394531 11.808594 L 12.886719 11.316406 C 13.378906 10.824219 13.664062 10.175781 13.683594 9.492188 C 13.707031 8.800781 13.457031 8.160156 12.984375 7.683594 L 11.511719 6.210938 C 10.539062 5.238281 8.910156 5.28125 7.882812 6.3125 L 7.335938 6.855469 L 6.832031 6.351562 L 7.378906 5.804688 C 7.871094 5.3125 8.152344 4.667969 8.175781 3.984375 C 8.199219 3.292969 7.949219 2.648438 7.476562 2.175781 L 6.003906 0.703125 C 5.027344 -0.273438 3.398438 -0.226562 2.371094 0.800781 L 1.878906 1.292969 L 0.710938 0.128906 C 0.550781 -0.0351562 0.285156 -0.0351562 0.125 0.128906 C -0.0390625 0.292969 -0.0390625 0.554688 0.125 0.71875 L 1.289062 1.882812 L 0.800781 2.371094 C -0.226562 3.398438 -0.269531 5.027344 0.703125 6.003906 L 2.175781 7.476562 C 2.628906 7.929688 3.238281 8.175781 3.898438 8.175781 C 3.925781 8.175781 3.957031 8.175781 3.984375 8.175781 C 4.667969 8.152344 5.3125 7.871094 5.808594 7.378906 L 6.246094 6.9375 L 6.75 7.445312 L 6.3125 7.882812 C 5.285156 8.910156 5.238281 10.539062 6.214844 11.511719 L 7.6875 12.984375 C 8.140625 13.4375 8.75 13.6875 9.410156 13.6875 C 9.4375 13.6875 9.464844 13.6875 9.496094 13.683594 C 10.175781 13.664062 10.824219 13.378906 11.316406 12.886719 L 11.808594 12.394531 L 13.417969 14.007812 L 12.910156 14.007812 C 12.679688 14.007812 12.496094 14.191406 12.496094 14.421875 C 12.496094 14.652344 12.679688 14.839844 12.910156 14.839844 L 14.160156 14.839844 C 14.1875 14.839844 14.210938 14.828125 14.234375 14.824219 L 20.496094 21.085938 L 18.742188 21.085938 C 18.511719 21.085938 18.324219 21.273438 18.324219 21.5 C 18.324219 21.730469 18.511719 21.917969 18.742188 21.917969 L 21.238281 21.917969 C 21.265625 21.917969 21.289062 21.90625 21.316406 21.902344 L 23.289062 23.878906 C 23.371094 23.960938 23.476562 24 23.585938 24 C 23.691406 24 23.796875 23.960938 23.878906 23.878906 C 24.039062 23.714844 24.039062 23.453125 23.878906 23.289062 Z M 4.011719 0.859375 C 3.363281 2.203125 2.246094 3.285156 0.875 3.886719 C 0.953125 3.554688 1.121094 3.226562 1.390625 2.960938 L 1.886719 2.464844 C 1.960938 2.519531 2.046875 2.554688 2.132812 2.554688 C 2.242188 2.554688 2.347656 2.515625 2.429688 2.433594 C 2.578125 2.285156 2.582031 2.054688 2.457031 1.890625 L 2.960938 1.390625 C 3.261719 1.089844 3.632812 0.914062 4.011719 0.859375 Z M 5.21875 6.789062 C 4.875 7.132812 4.425781 7.328125 3.957031 7.34375 C 3.492188 7.355469 3.074219 7.195312 2.765625 6.886719 L 1.292969 5.414062 C 1.105469 5.230469 0.984375 5.007812 0.910156 4.769531 C 0.9375 4.761719 0.964844 4.761719 0.988281 4.753906 C 2.734375 4.054688 4.144531 2.671875 4.886719 0.949219 C 5.082031 1.023438 5.261719 1.136719 5.414062 1.292969 L 6.886719 2.765625 C 7.195312 3.074219 7.359375 3.496094 7.34375 3.957031 C 7.328125 4.425781 7.128906 4.875 6.789062 5.21875 Z M 9.523438 6.367188 C 8.871094 7.714844 7.757812 8.792969 6.386719 9.398438 C 6.460938 9.0625 6.632812 8.738281 6.898438 8.46875 L 7.347656 8.019531 C 7.417969 8.066406 7.496094 8.097656 7.574219 8.097656 C 7.683594 8.097656 7.789062 8.054688 7.871094 7.976562 C 8.011719 7.832031 8.023438 7.617188 7.914062 7.453125 L 8.46875 6.898438 C 8.769531 6.597656 9.144531 6.425781 9.523438 6.367188 Z M 10.726562 12.296875 C 10.382812 12.640625 9.9375 12.835938 9.46875 12.851562 C 9.003906 12.867188 8.582031 12.707031 8.273438 12.394531 L 6.800781 10.925781 C 6.617188 10.738281 6.496094 10.515625 6.421875 10.277344 C 6.445312 10.273438 6.472656 10.273438 6.5 10.261719 C 8.246094 9.5625 9.652344 8.179688 10.398438 6.457031 C 10.589844 6.535156 10.769531 6.648438 10.925781 6.800781 L 12.394531 8.273438 C 12.707031 8.582031 12.867188 9.007812 12.851562 9.46875 C 12.835938 9.9375 12.640625 10.386719 12.296875 10.726562 L 11.519531 11.503906 C 11.515625 11.507812 11.511719 11.507812 11.511719 11.511719 C 11.507812 11.511719 11.507812 11.515625 11.503906 11.519531 Z M 10.726562 12.296875"/>
    <path d="M 9.054688 14.410156 C 8.890625 14.46875 8.78125 14.625 8.78125 14.800781 C 8.78125 16.101562 7.84375 17.347656 7.191406 18.058594 C 6.980469 16.601562 6.363281 15.371094 6.332031 15.308594 C 6.246094 15.136719 6.054688 15.046875 5.863281 15.09375 C 5.675781 15.136719 5.542969 15.304688 5.542969 15.496094 C 5.542969 16.234375 4.539062 16.417969 4.097656 16.460938 C 3.703125 15.769531 3.992188 14.203125 4.292969 13.304688 C 4.339844 13.171875 4.3125 13.023438 4.222656 12.914062 C 4.136719 12.800781 3.996094 12.746094 3.855469 12.757812 C 1.445312 13.011719 0.121094 14.394531 0.121094 16.660156 C 0.121094 17.457031 0.265625 18.15625 0.558594 18.75 C 0.558594 18.75 0.554688 18.746094 0.550781 18.746094 C 0.414062 18.703125 0.265625 18.738281 0.15625 18.832031 C 0.0507812 18.925781 -0.00390625 19.070312 0.0195312 19.210938 C 0.425781 21.746094 2.613281 23.585938 5.222656 23.585938 C 8.179688 23.585938 10.496094 21.359375 10.496094 18.519531 C 10.496094 15.710938 9.554688 14.578125 9.515625 14.53125 C 9.402344 14.398438 9.21875 14.347656 9.054688 14.410156 Z M 5.226562 22.75 C 3.28125 22.75 1.613281 21.542969 1.019531 19.789062 C 1.386719 19.933594 1.660156 20.058594 1.664062 20.058594 C 1.855469 20.148438 2.085938 20.078125 2.195312 19.898438 C 2.304688 19.71875 2.261719 19.484375 2.097656 19.355469 C 1.328125 18.746094 0.953125 17.863281 0.953125 16.660156 C 0.953125 15.003906 1.726562 14.027344 3.320312 13.683594 C 3.082031 14.628906 2.808594 16.332031 3.59375 17.175781 C 3.675781 17.261719 3.789062 17.300781 3.90625 17.308594 C 4.484375 17.300781 5.414062 17.117188 5.953125 16.5625 C 6.179688 17.195312 6.425781 18.097656 6.425781 18.984375 C 6.425781 19.144531 6.519531 19.292969 6.667969 19.359375 C 6.8125 19.429688 6.988281 19.40625 7.109375 19.300781 C 7.191406 19.234375 8.753906 17.90625 9.367188 16.160156 C 9.527344 16.710938 9.664062 17.484375 9.664062 18.519531 C 9.664062 20.929688 7.757812 22.75 5.226562 22.75 Z M 5.226562 22.75"/>
</svg>
