<svg xmlns="http://www.w3.org/2000/svg" width="32" height="32" viewBox="0 0 24 24">
    <path d="M23.879 23.29l-5.555-5.556v-3.312a.415.415 0 0 0-.418-.414.412.412 0 0 0-.414.414v2.48l-5.097-5.093.492-.493c.492-.492.777-1.14.797-1.824a2.421 2.421 0 0 0-.7-1.808L11.512 6.21c-.973-.973-2.602-.93-3.63.101l-.546.543-.504-.503.547-.547a2.695 2.695 0 0 0 .797-1.82 2.415 2.415 0 0 0-.7-1.81L6.005.704c-.977-.976-2.606-.93-3.633.098l-.492.492L.71.129a.41.41 0 0 0-.586 0 .415.415 0 0 0 0 .59l1.164 1.164-.488.488C-.227 3.398-.27 5.027.703 6.004l1.473 1.473c.453.453 1.062.699 1.722.699h.086a2.712 2.712 0 0 0 1.825-.797l.437-.441.504.507-.438.438c-1.027 1.027-1.074 2.656-.097 3.629l1.473 1.472a2.412 2.412 0 0 0 1.722.704c.027 0 .055 0 .086-.004a2.685 2.685 0 0 0 1.82-.797l.493-.492 1.609 1.613h-.508a.412.412 0 0 0-.414.414c0 .23.184.418.414.418h1.25c.027 0 .05-.012.074-.016l6.262 6.262h-1.754a.418.418 0 0 0-.418.414c0 .23.188.418.418.418h2.496c.028 0 .051-.012.078-.016l1.973 1.977a.413.413 0 0 0 .297.121.41.41 0 0 0 .293-.121.422.422 0 0 0 0-.59zM4.012.86A6.31 6.31 0 0 1 .875 3.886c.078-.332.246-.66.516-.926l.496-.496c.074.055.16.09.246.09.11 0 .215-.04.297-.121a.411.411 0 0 0 .027-.543l.504-.5c.3-.301.672-.477 1.05-.532zm1.207 5.93c-.344.343-.793.538-1.262.554a1.595 1.595 0 0 1-1.191-.457L1.293 5.414A1.518 1.518 0 0 1 .91 4.77c.027-.008.055-.008.078-.016A7.168 7.168 0 0 0 4.887.949c.195.074.375.188.527.344l1.473 1.473c.308.308.472.73.457 1.191a1.89 1.89 0 0 1-.555 1.262zm4.304-.423a6.333 6.333 0 0 1-3.136 3.031c.074-.335.246-.66.511-.93l.45-.448c.07.046.148.078.226.078a.43.43 0 0 0 .297-.121.414.414 0 0 0 .043-.524l.555-.555c.3-.3.676-.472 1.054-.53zm1.204 5.93c-.344.344-.79.539-1.258.555a1.574 1.574 0 0 1-1.196-.457l-1.472-1.47a1.588 1.588 0 0 1-.38-.648c.024-.004.052-.004.079-.015a7.18 7.18 0 0 0 3.898-3.805c.192.078.372.191.528.344l1.469 1.472c.312.309.472.735.457 1.196-.016.469-.211.918-.555 1.258l-.777.777c-.004.004-.008.004-.008.008-.004 0-.004.004-.008.008zm0 0"/>
    <path d="M9.055 14.41a.414.414 0 0 0-.274.39c0 1.302-.937 2.548-1.59 3.259-.21-1.457-.828-2.688-.859-2.75a.41.41 0 0 0-.469-.215.413.413 0 0 0-.32.402c0 .738-1.004.922-1.445.965-.395-.691-.106-2.258.195-3.156a.405.405 0 0 0-.07-.39.415.415 0 0 0-.368-.157c-2.41.254-3.734 1.637-3.734 3.902 0 .797.145 1.496.438 2.09 0 0-.004-.004-.008-.004a.416.416 0 0 0-.531.465c.406 2.535 2.593 4.375 5.203 4.375 2.957 0 5.273-2.227 5.273-5.066 0-2.81-.941-3.942-.98-3.989a.413.413 0 0 0-.461-.12zm-3.828 8.34c-1.946 0-3.614-1.207-4.207-2.96.367.144.64.269.644.269.191.09.422.02.531-.16a.417.417 0 0 0-.097-.544c-.77-.609-1.145-1.492-1.145-2.695 0-1.656.774-2.633 2.367-2.976-.238.945-.511 2.648.274 3.492a.465.465 0 0 0 .312.133c.578-.008 1.508-.192 2.047-.747.227.633.473 1.536.473 2.422 0 .16.094.309.242.375.144.07.32.047.441-.058.082-.067 1.645-1.395 2.258-3.14.16.55.297 1.323.297 2.359 0 2.41-1.906 4.23-4.437 4.23zm0 0"/>
</svg>
