<svg xmlns="http://www.w3.org/2000/svg" width="32" height="32" viewBox="0 0 24 24">
    <path d="M 16.941406 6.882812 L 16.941406 6.398438 C 16.941406 2.871094 14.546875 0 11.601562 0 C 8.65625 0 6.257812 2.871094 6.257812 6.398438 L 6.257812 6.933594 C 5.871094 7.132812 5.601562 7.535156 5.601562 8 C 5.601562 8.308594 5.71875 8.585938 5.910156 8.800781 C 5.71875 9.011719 5.601562 9.292969 5.601562 9.601562 C 5.601562 9.910156 5.71875 10.1875 5.910156 10.398438 C 5.71875 10.613281 5.601562 10.890625 5.601562 11.199219 C 5.601562 11.507812 5.71875 11.789062 5.910156 12 C 5.71875 12.210938 5.601562 12.492188 5.601562 12.800781 C 5.601562 13.109375 5.71875 13.386719 5.910156 13.601562 C 5.71875 13.8125 5.601562 14.089844 5.601562 14.398438 C 5.601562 14.707031 5.71875 14.988281 5.910156 15.199219 C 5.71875 15.414062 5.601562 15.691406 5.601562 16 C 5.601562 16.1875 5.648438 16.367188 5.726562 16.523438 C 3.59375 17.015625 2 18.921875 2 21.199219 L 2.800781 21.199219 C 2.800781 19.179688 4.308594 17.507812 6.257812 17.242188 L 6.257812 17.601562 C 6.257812 21.128906 8.65625 24 11.601562 24 C 14.546875 24 16.941406 21.128906 16.941406 17.601562 L 16.941406 17.066406 C 17.332031 16.867188 17.601562 16.464844 17.601562 16 C 17.601562 15.691406 17.480469 15.414062 17.289062 15.199219 C 17.480469 14.988281 17.601562 14.707031 17.601562 14.398438 C 17.601562 14.089844 17.480469 13.8125 17.289062 13.601562 C 17.480469 13.386719 17.601562 13.109375 17.601562 12.800781 C 17.601562 12.492188 17.480469 12.210938 17.289062 12 C 17.480469 11.789062 17.601562 11.507812 17.601562 11.199219 C 17.601562 10.890625 17.480469 10.613281 17.289062 10.398438 C 17.480469 10.1875 17.601562 9.910156 17.601562 9.601562 C 17.601562 9.292969 17.480469 9.011719 17.289062 8.800781 C 17.480469 8.585938 17.601562 8.308594 17.601562 8 C 17.601562 7.949219 17.589844 7.898438 17.585938 7.847656 C 19.679688 8.519531 21.199219 10.484375 21.199219 12.800781 L 22 12.800781 C 22 9.8125 19.804688 7.335938 16.941406 6.882812 Z M 7.058594 6.398438 C 7.058594 3.3125 9.097656 0.800781 11.601562 0.800781 C 14.105469 0.800781 16.140625 3.3125 16.140625 6.398438 L 16.140625 6.800781 L 15.292969 6.800781 L 15.292969 6.398438 C 15.292969 3.769531 13.808594 2 11.601562 2 C 9.390625 2 7.90625 3.769531 7.90625 6.398438 L 7.90625 6.800781 L 7.058594 6.800781 Z M 12.847656 6.800781 L 10.351562 6.800781 L 10.351562 6.398438 C 10.351562 5.429688 10.84375 4.800781 11.601562 4.800781 C 12.3125 4.800781 12.847656 5.769531 12.847656 6.398438 Z M 11.601562 4 C 10.394531 4 9.554688 4.988281 9.554688 6.398438 L 9.554688 6.800781 L 8.707031 6.800781 L 8.707031 6.398438 C 8.707031 4.214844 9.84375 2.800781 11.601562 2.800781 C 13.359375 2.800781 14.492188 4.214844 14.492188 6.398438 L 14.492188 6.800781 L 13.648438 6.800781 L 13.648438 6.398438 C 13.648438 5.421875 12.847656 4 11.601562 4 Z M 16.800781 9.601562 C 16.800781 9.820312 16.621094 10 16.398438 10 L 6.800781 10 C 6.578125 10 6.398438 9.820312 6.398438 9.601562 C 6.398438 9.378906 6.578125 9.199219 6.800781 9.199219 L 16.398438 9.199219 C 16.621094 9.199219 16.800781 9.378906 16.800781 9.601562 Z M 16.800781 11.199219 C 16.800781 11.421875 16.621094 11.601562 16.398438 11.601562 L 6.800781 11.601562 C 6.578125 11.601562 6.398438 11.421875 6.398438 11.199219 C 6.398438 10.980469 6.578125 10.800781 6.800781 10.800781 L 16.398438 10.800781 C 16.621094 10.800781 16.800781 10.980469 16.800781 11.199219 Z M 16.800781 12.800781 C 16.800781 13.019531 16.621094 13.199219 16.398438 13.199219 L 6.800781 13.199219 C 6.578125 13.199219 6.398438 13.019531 6.398438 12.800781 C 6.398438 12.578125 6.578125 12.398438 6.800781 12.398438 L 16.398438 12.398438 C 16.621094 12.398438 16.800781 12.578125 16.800781 12.800781 Z M 16.800781 14.398438 C 16.800781 14.621094 16.621094 14.800781 16.398438 14.800781 L 6.800781 14.800781 C 6.578125 14.800781 6.398438 14.621094 6.398438 14.398438 C 6.398438 14.179688 6.578125 14 6.800781 14 L 16.398438 14 C 16.621094 14 16.800781 14.179688 16.800781 14.398438 Z M 16.800781 16 C 16.800781 16.21875 16.621094 16.398438 16.398438 16.398438 L 6.800781 16.398438 C 6.578125 16.398438 6.398438 16.21875 6.398438 16 C 6.398438 15.78125 6.578125 15.601562 6.800781 15.601562 L 16.398438 15.601562 C 16.621094 15.601562 16.800781 15.78125 16.800781 16 Z M 8.707031 17.199219 L 9.554688 17.199219 L 9.554688 17.601562 C 9.554688 18.578125 10.351562 20 11.601562 20 C 12.804688 20 13.648438 19.011719 13.648438 17.601562 L 13.648438 17.199219 L 14.492188 17.199219 L 14.492188 17.601562 C 14.492188 19.785156 13.359375 21.199219 11.601562 21.199219 C 9.84375 21.199219 8.707031 19.785156 8.707031 17.601562 Z M 10.351562 17.199219 L 12.847656 17.199219 L 12.847656 17.601562 C 12.847656 18.570312 12.355469 19.199219 11.601562 19.199219 C 10.890625 19.199219 10.351562 18.230469 10.351562 17.601562 Z M 16.140625 17.601562 C 16.140625 20.6875 14.105469 23.199219 11.601562 23.199219 C 9.097656 23.199219 7.058594 20.6875 7.058594 17.601562 L 7.058594 17.199219 L 7.90625 17.199219 L 7.90625 17.601562 C 7.90625 20.230469 9.390625 22 11.597656 22 C 13.808594 22 15.292969 20.230469 15.292969 17.601562 L 15.292969 17.199219 L 16.140625 17.199219 Z M 16.800781 8 C 16.800781 8.21875 16.621094 8.398438 16.398438 8.398438 L 6.800781 8.398438 C 6.578125 8.398438 6.398438 8.21875 6.398438 8 C 6.398438 7.78125 6.578125 7.601562 6.800781 7.601562 L 16 7.601562 C 16.183594 7.601562 16.363281 7.609375 16.539062 7.628906 C 16.691406 7.683594 16.800781 7.828125 16.800781 8 Z M 16.800781 8"/>
</svg>
