<svg xmlns="http://www.w3.org/2000/svg" width="32" height="32" viewBox="0 0 24 24">
    <path d="M18.496 9.094c0-.59-.336-1.086-.851-1.305.421-.367.59-.941.406-1.504a1.4 1.4 0 0 0-1.215-.98 1.39 1.39 0 0 0-.078-1.555 1.394 1.394 0 0 0-1.457-.559 1.382 1.382 0 0 0-.555-1.453 1.397 1.397 0 0 0-1.555-.082 1.4 1.4 0 0 0-.98-1.21 1.39 1.39 0 0 0-1.504.406A1.395 1.395 0 0 0 9.398 0c-.59 0-1.085.336-1.304.852A1.392 1.392 0 0 0 6.59.445a1.4 1.4 0 0 0-.98 1.211 1.397 1.397 0 0 0-1.555.082 1.39 1.39 0 0 0-.559 1.453 1.39 1.39 0 0 0-1.453.559 1.403 1.403 0 0 0-.082 1.559 1.39 1.39 0 0 0-1.211.976 1.392 1.392 0 0 0 .406 1.504 1.395 1.395 0 0 0-.851 1.309c0 .59.336 1.086.851 1.304-.426.368-.59.942-.406 1.504.18.563.656.934 1.21.98a1.39 1.39 0 0 0 .08 1.555c.347.48.913.684 1.456.559-.125.543.078 1.11.559 1.457a1.389 1.389 0 0 0 1.554.078c.051.555.418 1.031.98 1.211.388.129.778.086 1.106-.09V24h3.2v-6.48c.359.285.843.382 1.316.226a1.4 1.4 0 0 0 .98-1.21 1.397 1.397 0 0 0 1.555-.083c.48-.348.684-.91.555-1.453a1.394 1.394 0 0 0 1.457-.559 1.39 1.39 0 0 0 .078-1.554 1.4 1.4 0 0 0 1.215-.98 1.392 1.392 0 0 0-.406-1.505c.515-.218.851-.714.851-1.308zm-8.398 14.105H8.496v-5.32c.016.012.031.02.043.027.04.032.078.055.117.082l.074.04a.94.94 0 0 0 .13.058c.027.012.054.023.081.031.047.016.098.028.149.04.027.003.05.011.074.015.078.012.156.02.238.02.067 0 .137-.005.203-.016.02 0 .04-.008.063-.012.043-.008.086-.016.129-.027l.07-.024a.972.972 0 0 0 .113-.043.553.553 0 0 0 .07-.03l.048-.024zm7.07-13.488a.638.638 0 0 0-.191 1.2c.351.179.394.503.312.75-.078.245-.305.484-.691.421a.64.64 0 0 0-.672.34.635.635 0 0 0 .12.742c.278.277.216.598.067.809-.152.207-.441.367-.789.187a.629.629 0 0 0-.742.117.629.629 0 0 0-.117.743c.18.351.02.636-.188.789-.207.152-.53.214-.808-.067a.629.629 0 0 0-.742-.117.626.626 0 0 0-.34.668c.062.39-.176.613-.422.691-.246.082-.57.043-.75-.308a.634.634 0 0 0-.668-.344.57.57 0 0 0-.145.047h-.004c-.015.008-.035.012-.05.02a.512.512 0 0 0-.27.273v.004a.797.797 0 0 0-.062.187c-.059.39-.356.528-.614.528-.261 0-.558-.137-.617-.528a.656.656 0 0 0-.047-.148.635.635 0 0 0-.484-.383c-.012-.004-.027-.004-.04-.004a.487.487 0 0 0-.128-.008l-.39.043v.157a.625.625 0 0 0-.11.156c-.18.351-.504.39-.75.308-.246-.078-.484-.3-.422-.691a.626.626 0 0 0-.34-.668.629.629 0 0 0-.742.117.595.595 0 0 1-.809.067c-.207-.153-.367-.438-.187-.79a.629.629 0 0 0-.117-.742.629.629 0 0 0-.742-.117c-.352.18-.637.02-.79-.187-.152-.211-.214-.532.067-.809a.628.628 0 0 0 .117-.742.626.626 0 0 0-.668-.34c-.39.063-.613-.176-.691-.422-.082-.246-.043-.57.308-.75a.638.638 0 0 0-.188-1.2c-.39-.058-.527-.355-.527-.616 0-.258.137-.555.528-.614a.638.638 0 0 0 .187-1.199c-.351-.18-.39-.504-.308-.75.078-.242.3-.484.691-.422a.632.632 0 0 0 .668-.34.628.628 0 0 0-.117-.742c-.281-.277-.219-.597-.067-.808.153-.207.442-.367.79-.188a.629.629 0 0 0 .742-.117.628.628 0 0 0 .117-.742c-.18-.348-.02-.637.187-.79a.595.595 0 0 1 .809.067c.195.2.492.246.742.117a.637.637 0 0 0 .34-.668c-.062-.39.176-.613.422-.691.246-.082.57-.043.75.309a.638.638 0 0 0 1.2-.188c.058-.39.355-.527.612-.527.258 0 .555.136.618.527a.634.634 0 0 0 .53.531.629.629 0 0 0 .669-.343c.18-.348.504-.387.75-.309.242.078.484.3.422.691a.636.636 0 1 0 1.082.55c.277-.276.597-.218.808-.065.207.152.368.441.188.789a.628.628 0 0 0 .117.742c.195.2.492.246.742.117.348-.18.637-.02.79.188.148.21.21.531-.067.808a.636.636 0 0 0 .55 1.082c.387-.062.614.18.692.422.082.246.04.574-.309.75a.634.634 0 0 0-.343.668.634.634 0 0 0 .531.531c.39.063.527.36.527.618 0 .257-.136.554-.527.613zm0 0"/>
    <path d="M14.098 10.398a.401.401 0 0 0-.403-.398 3.602 3.602 0 0 0-3.597 3.602.398.398 0 1 0 .797 0c0-1.547 1.257-2.801 2.8-2.801.223 0 .403-.18.403-.403zm0 0M4.895 11.2a.401.401 0 0 0 0 .8c1.546 0 2.8 1.258 2.8 2.8a.401.401 0 0 0 .801 0 3.608 3.608 0 0 0-3.601-3.6zm0 0M5.695 6.8a.4.4 0 0 0 0 .802c1.543 0 2.801 1.253 2.801 2.796a.401.401 0 1 0 .8 0 3.604 3.604 0 0 0-3.6-3.597zm0 0M12.496 4.398A.395.395 0 0 0 12.895 4a.395.395 0 0 0-.399-.398 3.604 3.604 0 0 0-3.601 3.597.401.401 0 0 0 .8 0c0-1.543 1.258-2.8 2.801-2.8zm0 0M15.297 6.8c-.442 0-.8-.359-.8-.8a.398.398 0 0 0-.4-.398.398.398 0 0 0-.402.398c0 .883.72 1.602 1.602 1.602a.401.401 0 0 0 0-.801zm0 0M11.297 8.8a.4.4 0 0 0 .8 0c0-.44.356-.8.798-.8a.401.401 0 1 0 0-.8 1.6 1.6 0 0 0-1.598 1.6zm0 0M8.098 4.8a.401.401 0 0 0 0-.8c-.442 0-.801-.36-.801-.8a.401.401 0 0 0-.8 0c0 .882.718 1.6 1.6 1.6zm0 0M5.297 8.398a.401.401 0 0 0-.8 0c0 .442-.36.801-.802.801a.401.401 0 0 0 0 .801c.883 0 1.602-.719 1.602-1.602zm0 0M14.496 12c-.883 0-1.601.719-1.601 1.602a.401.401 0 0 0 .8 0c0-.442.36-.801.801-.801.223 0 .399-.18.399-.403a.398.398 0 0 0-.399-.398zm0 0M6.895 22.8a.4.4 0 0 0-.399.4v.402a.4.4 0 0 0 .8 0v-.403a.401.401 0 0 0-.401-.398zm0 0M5.695 22.8a.4.4 0 0 0-.398.4v.402a.4.4 0 0 0 .8 0v-.403a.401.401 0 0 0-.402-.398zm0 0M4.496 22.8a.398.398 0 0 0-.398.4v.402a.398.398 0 1 0 .797 0v-.403a.398.398 0 0 0-.399-.398zm0 0M3.297 22.8a.401.401 0 0 0-.402.4v.402a.401.401 0 0 0 .8 0v-.403a.4.4 0 0 0-.398-.398zm0 0M2.098 22.8a.401.401 0 0 0-.403.4v.402a.401.401 0 0 0 .801 0v-.403a.4.4 0 0 0-.398-.398zm0 0M14.098 22.8a.401.401 0 0 0-.403.4v.402a.401.401 0 0 0 .801 0v-.403a.4.4 0 0 0-.398-.398zm0 0M12.895 22.8a.4.4 0 0 0-.399.4v.402a.4.4 0 0 0 .8 0v-.403a.401.401 0 0 0-.401-.398zm0 0M11.695 22.8a.4.4 0 0 0-.398.4v.402a.4.4 0 0 0 .8 0v-.403a.401.401 0 0 0-.402-.398zm0 0M17.695 22.8a.4.4 0 0 0-.398.4v.402a.4.4 0 0 0 .8 0v-.403a.401.401 0 0 0-.402-.398zm0 0M16.496 22.8a.398.398 0 0 0-.398.4v.402a.398.398 0 1 0 .797 0v-.403a.398.398 0 0 0-.399-.398zm0 0M15.297 22.8a.401.401 0 0 0-.402.4v.402a.401.401 0 0 0 .8 0v-.403a.4.4 0 0 0-.398-.398zm0 0M21.297 22.8a.401.401 0 0 0-.402.4v.402a.401.401 0 0 0 .8 0v-.403a.4.4 0 0 0-.398-.398zm0 0M20.098 22.8a.401.401 0 0 0-.403.4v.402a.401.401 0 0 0 .801 0v-.403a.4.4 0 0 0-.398-.398zm0 0M18.895 22.8a.4.4 0 0 0-.399.4v.402a.4.4 0 0 0 .8 0v-.403a.401.401 0 0 0-.401-.398zm0 0M23.297 2.398a2.807 2.807 0 0 0-2.438 1.426 2.4 2.4 0 0 0-1.964-1.023.4.4 0 0 0 0 .8A1.6 1.6 0 0 1 20.496 5.2a.401.401 0 1 0 .8 0c0-1.101.895-2 2-2a.4.4 0 0 0 0-.8zm0 0"/>
</svg>
