<svg xmlns="http://www.w3.org/2000/svg" width="32" height="32" viewBox="0 0 24 24">
    <path d="M15.984 4.332a1.264 1.264 0 0 1-1.261-1.262V0H9.277v3.07c0 .696-.566 1.262-1.261 1.262A2.287 2.287 0 0 0 5.73 6.613V21.72A2.287 2.287 0 0 0 8.016 24h7.968a2.285 2.285 0 0 0 2.286-2.281V6.613a2.285 2.285 0 0 0-2.286-2.281zm-9.23 5.32h6.832v10.215H6.754zM17.246 21.72c0 .695-.566 1.261-1.262 1.261H8.016a1.264 1.264 0 0 1-1.262-1.261v-.828h7.851V8.629H6.754V6.613c0-.695.566-1.261 1.262-1.261a2.284 2.284 0 0 0 2.28-2.282V1.02h3.407v2.05a2.284 2.284 0 0 0 2.281 2.282c.696 0 1.262.566 1.262 1.261zm0 0"/>
</svg>
