<svg xmlns="http://www.w3.org/2000/svg" width="32" height="32" viewBox="0 0 24 24">
    <path d="M3.246 10.773h13.692v1.02H3.245zm0 0"/>
    <path d="M20.602 12.582V0H0v20.691h13.527C14.43 22.648 16.31 24 18.48 24c3.043 0 5.52-2.664 5.52-5.938 0-2.464-1.406-4.582-3.398-5.48zM19.578 1.02V6.2H1.02V1.02zM1.02 19.668V7.218h18.558v5.028a5.108 5.108 0 0 0-1.098-.117c-2.101 0-3.93 1.262-4.863 3.121H3.247v1.02h9.968a6.296 6.296 0 0 0-.258 1.793c0 .558.07 1.093.207 1.605zm17.46 3.312c-2.484 0-4.503-2.207-4.503-4.918 0-2.71 2.02-4.914 4.503-4.914 2.48 0 4.5 2.204 4.5 4.915 0 2.71-2.02 4.917-4.5 4.917zm0 0"/>
    <path d="M18.988 15.508h-1.02v2.043h-1.85v1.023h1.85v2.047h1.02v-2.047h1.852v-1.023h-1.852zm0 0"/>
</svg>
