<svg xmlns="http://www.w3.org/2000/svg" width="32" height="32" viewBox="0 0 24 24">
    <path d="M18.277 10.566a2.475 2.475 0 0 0-3.457-.558l-1.742 1.258a2.47 2.47 0 0 0-.86 2.906l-.995.672a2.478 2.478 0 0 0-3.207-.262L6.273 15.84a2.48 2.48 0 0 0-.558 3.46 2.475 2.475 0 0 0 3.457.56l1.742-1.258a2.479 2.479 0 0 0 .863-2.899l1-.676c.844.844 2.2.977 3.2.254l1.742-1.258c1.11-.8 1.36-2.347.558-3.457zm-7.949 7.196l-1.765 1.277a1.457 1.457 0 0 1-1.703-2.363l1.765-1.274a1.459 1.459 0 0 1 1.738.024l-.843.566a.51.51 0 0 0-.137.711.511.511 0 0 0 .422.227c.097 0 .199-.032.285-.09l.812-.547a1.45 1.45 0 0 1-.574 1.469zm6.805-4.575l-1.766 1.274c-.531.383-1.23.36-1.726-.016l.722-.488a.506.506 0 0 0 .137-.707.51.51 0 0 0-.707-.14l-.703.476a1.453 1.453 0 0 1 .574-1.484l1.766-1.278a1.457 1.457 0 0 1 1.703 2.363zm0 0"/>
    <path d="M0 0v24h24V0zm22.98 1.02v4.46H1.02V1.02zM1.02 22.98V6.5h21.96v16.48zm0 0"/>
    <path d="M16.129 2.883h1.023v.816H16.13zm0 0M18.285 2.883h1.024v.816h-1.024zm0 0M20.441 2.883h1.02v.816h-1.02zm0 0M2.398 2.781h8.684v1.02H2.398zm0 0"/>
</svg>
