<svg xmlns="http://www.w3.org/2000/svg" width="32" height="32" viewBox="0 0 24 24">
    <path d="M 19.945312 2.214844 L 19.945312 0.738281 L 18.925781 0.738281 L 18.925781 2.214844 L 16.226562 2.214844 L 16.226562 0.738281 L 15.207031 0.738281 L 15.207031 2.214844 L 12.511719 2.214844 L 12.511719 0.738281 L 11.488281 0.738281 L 11.488281 2.214844 L 8.792969 2.214844 L 8.792969 0.738281 L 7.773438 0.738281 L 7.773438 2.214844 L 5.074219 2.214844 L 5.074219 0.738281 L 4.054688 0.738281 L 4.054688 2.214844 L 0 2.214844 L 0 23.261719 L 24 23.261719 L 24 2.214844 Z M 4.054688 3.234375 L 4.054688 4.667969 L 5.074219 4.667969 L 5.074219 3.234375 L 7.773438 3.234375 L 7.773438 4.667969 L 8.792969 4.667969 L 8.792969 3.234375 L 11.488281 3.234375 L 11.488281 4.667969 L 12.511719 4.667969 L 12.511719 3.234375 L 15.207031 3.234375 L 15.207031 4.667969 L 16.226562 4.667969 L 16.226562 3.234375 L 18.925781 3.234375 L 18.925781 4.667969 L 19.945312 4.667969 L 19.945312 3.234375 L 22.980469 3.234375 L 22.980469 7.921875 L 1.019531 7.921875 L 1.019531 3.234375 Z M 1.019531 22.242188 L 1.019531 8.945312 L 22.980469 8.945312 L 22.980469 22.242188 Z M 1.019531 22.242188"/>
    <path d="M2.40625 14.628906L3.429688 14.628906 3.429688 16.625 2.40625 16.625zM2.40625 18.625L3.429688 18.625 3.429688 20.625 2.40625 20.625zM6.949219 14.628906L7.96875 14.628906 7.96875 16.625 6.949219 16.625zM6.949219 18.625L7.96875 18.625 7.96875 20.625 6.949219 20.625zM11.488281 10.632812L12.511719 10.632812 12.511719 12.628906 11.488281 12.628906zM11.488281 14.628906L12.511719 14.628906 12.511719 16.625 11.488281 16.625zM11.488281 18.625L12.511719 18.625 12.511719 20.625 11.488281 20.625zM16.03125 10.632812L17.050781 10.632812 17.050781 12.628906 16.03125 12.628906zM16.03125 14.628906L17.050781 14.628906 17.050781 16.625 16.03125 16.625zM20.570312 10.632812L21.59375 10.632812 21.59375 12.628906 20.570312 12.628906zM20.570312 14.628906L21.59375 14.628906 21.59375 16.625 20.570312 16.625zM20.570312 14.628906"/>
</svg>
