<svg xmlns="http://www.w3.org/2000/svg" width="32" height="32" viewBox="0 0 24 24">
    <path d="M 20.484375 6.25 C 20.082031 3.730469 17.882812 1.820312 15.292969 1.820312 C 15.007812 1.820312 14.722656 1.84375 14.4375 1.890625 C 13.441406 0.789062 12.039062 0.167969 10.546875 0.167969 C 8.351562 0.167969 6.4375 1.488281 5.652344 3.5 C 5.519531 3.488281 5.390625 3.484375 5.257812 3.484375 C 2.359375 3.484375 0 5.84375 0 8.742188 C 0 11.984375 2.695312 13.335938 2.695312 13.335938 L 8.449219 13.335938 L 5.152344 17.90625 L 8.382812 17.90625 L 8.382812 23.832031 L 15.617188 23.832031 L 15.617188 17.90625 L 18.847656 17.90625 L 15.550781 13.335938 L 22.433594 13.335938 C 22.433594 13.335938 24 12.3125 24 10.179688 C 24 8.152344 22.464844 6.476562 20.484375 6.25 Z M 14.609375 16.898438 L 14.609375 22.828125 L 9.390625 22.828125 L 9.390625 16.898438 L 7.121094 16.898438 L 12 10.136719 L 16.878906 16.898438 Z M 22.050781 12.328125 L 14.824219 12.328125 L 12 8.417969 L 9.175781 12.328125 L 2.984375 12.328125 C 1.769531 11.550781 1.019531 10.191406 1.019531 8.742188 C 1.019531 6.398438 2.921875 4.492188 5.257812 4.492188 C 5.480469 4.492188 6.363281 4.613281 6.363281 4.613281 C 6.363281 4.613281 7.078125 1.171875 10.546875 1.171875 C 12.898438 1.171875 14.042969 3.003906 14.042969 3.003906 C 14.042969 3.003906 14.867188 2.8125 15.292969 2.828125 C 19.40625 2.964844 19.566406 7.230469 19.566406 7.230469 C 19.566406 7.230469 22.84375 7.027344 22.980469 10.179688 C 23.015625 10.996094 22.644531 11.773438 22.050781 12.328125 Z M 22.050781 12.328125"/>
</svg>
