<svg xmlns="http://www.w3.org/2000/svg" width="32" height="32" viewBox="0 0 24 24">
    <path d="M 18.59375 5.929688 C 18.21875 2.714844 15.402344 0.253906 12 0.253906 C 9.777344 0.253906 7.746094 1.300781 6.507812 3.0625 C 6.5 3.0625 6.496094 3.0625 6.488281 3.0625 C 4.320312 3.0625 2.554688 4.769531 2.554688 6.863281 C 2.554688 6.960938 2.558594 7.0625 2.566406 7.164062 C 0.953125 8.375 0 10.238281 0 12.238281 C 0.0078125 13.839844 1.398438 15.144531 3.101562 15.144531 L 5.589844 15.144531 C 5.566406 15.285156 5.550781 15.429688 5.539062 15.574219 L 4.371094 15.574219 L 4.371094 16.597656 L 5.539062 16.597656 C 5.648438 18.007812 6.210938 19.289062 7.074219 20.304688 L 6.242188 21.140625 L 6.964844 21.863281 L 7.796875 21.027344 C 8.808594 21.894531 10.085938 22.457031 11.488281 22.566406 L 11.488281 23.746094 L 12.511719 23.746094 L 12.511719 22.566406 C 13.914062 22.457031 15.191406 21.894531 16.203125 21.027344 L 17.035156 21.863281 L 17.757812 21.140625 L 16.925781 20.304688 C 17.789062 19.289062 18.351562 18.007812 18.460938 16.597656 L 19.628906 16.597656 L 19.628906 15.574219 L 18.460938 15.574219 C 18.449219 15.429688 18.429688 15.285156 18.410156 15.144531 L 20.898438 15.144531 C 22.601562 15.144531 23.992188 13.839844 24 12.210938 C 24 9.125 21.703125 6.496094 18.59375 5.929688 Z M 12 21.566406 C 8.992188 21.566406 6.542969 19.109375 6.542969 16.085938 C 6.542969 13.066406 8.992188 10.605469 12 10.605469 C 15.007812 10.605469 17.457031 13.066406 17.457031 16.085938 C 17.457031 19.109375 15.007812 21.566406 12 21.566406 Z M 20.898438 14.121094 L 18.175781 14.121094 C 17.910156 13.285156 17.480469 12.519531 16.925781 11.867188 L 17.757812 11.03125 L 17.035156 10.3125 L 16.203125 11.144531 C 15.191406 10.277344 13.914062 9.714844 12.511719 9.605469 L 12.511719 8.429688 L 11.488281 8.429688 L 11.488281 9.605469 C 10.085938 9.714844 8.808594 10.277344 7.796875 11.144531 L 6.964844 10.308594 L 6.242188 11.03125 L 7.074219 11.867188 C 6.519531 12.519531 6.089844 13.285156 5.824219 14.121094 L 3.101562 14.121094 C 1.957031 14.121094 1.027344 13.273438 1.019531 12.210938 C 1.019531 10.472656 1.910156 8.832031 3.402344 7.824219 C 3.566406 7.710938 3.652344 7.511719 3.617188 7.316406 C 3.589844 7.148438 3.574219 7 3.574219 6.863281 C 3.574219 5.332031 4.882812 4.085938 6.488281 4.085938 C 6.570312 4.085938 6.652344 4.089844 6.730469 4.097656 C 6.921875 4.113281 7.097656 4.023438 7.199219 3.863281 C 8.234375 2.242188 10.027344 1.277344 12 1.277344 C 15.003906 1.277344 17.46875 3.527344 17.609375 6.398438 C 17.621094 6.648438 17.8125 6.851562 18.058594 6.882812 C 20.863281 7.214844 22.980469 9.507812 22.976562 12.234375 C 22.972656 13.273438 22.042969 14.121094 20.898438 14.121094 Z M 20.898438 14.121094"/>
    <path d="M 12 13.128906 C 10.375 13.128906 9.050781 14.453125 9.050781 16.085938 C 9.050781 17.71875 10.375 19.042969 12 19.042969 C 13.625 19.042969 14.949219 17.71875 14.949219 16.085938 C 14.949219 14.453125 13.625 13.128906 12 13.128906 Z M 12 18.023438 C 10.9375 18.023438 10.070312 17.152344 10.070312 16.085938 C 10.070312 15.019531 10.9375 14.148438 12 14.148438 C 13.0625 14.148438 13.929688 15.019531 13.929688 16.085938 C 13.929688 17.152344 13.0625 18.023438 12 18.023438 Z M 12 18.023438"/>
</svg>
