<svg xmlns="http://www.w3.org/2000/svg" width="32" height="32" viewBox="0 0 24 24">
    <path d="M20.484 6.25c-.402-2.52-2.601-4.43-5.191-4.43-.285 0-.57.024-.855.07A5.222 5.222 0 0 0 10.546.169 5.218 5.218 0 0 0 5.652 3.5 5.265 5.265 0 0 0 0 8.742c0 3.242 2.695 4.594 2.695 4.594H8.45l-3.297 4.57h3.23v5.926h7.235v-5.926h3.23l-3.296-4.57h6.883S24 12.312 24 10.18a3.964 3.964 0 0 0-3.516-3.93zM14.61 16.898v5.93H9.391v-5.93H7.12L12 10.137l4.879 6.761zm7.442-4.57h-7.227L12 8.418l-2.824 3.91H2.984A4.275 4.275 0 0 1 1.02 8.742a4.25 4.25 0 0 1 4.238-4.25c.222 0 1.105.121 1.105.121s.715-3.441 4.184-3.441c2.351 0 3.496 1.832 3.496 1.832s.824-.192 1.25-.176c4.113.137 4.273 4.402 4.273 4.402s3.278-.203 3.414 2.95c.036.816-.335 1.593-.93 2.148zm0 0"/>
</svg>
