<svg xmlns="http://www.w3.org/2000/svg" width="32" height="32" viewBox="0 0 24 24">
    <path d="M16.727 3.258c-.239-1.067-1.344-1.875-2.668-1.875-.934 0-1.938.578-2.274.73-2.223 1.024-4.523 2.082-6.723 2.082-1.464 0-2.785-.465-4.042-1.414V.254H0v23.492h1.02v-8.871c1.257.797 2.59 1.188 4.043 1.188.75 0 1.5-.106 2.246-.286.148.524.503.985 1.02 1.317.51.332 1.112.5 1.722.5.984 0 2.164-.66 2.164-.66 3.398-1.668 5.226-2.051 7.066-2.051 2.344 0 4.719 2.195 4.719 2.195V4.918s-2.973-2.887-7.273-1.66zM1.02 13.628v-9.6c1.257.796 2.59 1.187 4.043 1.187 2.421 0 4.828-1.106 7.152-2.176.328-.152 1.148-.633 1.844-.633.82 0 1.695.516 1.695 1.281v7.641c-1.336.422-2.672 1.035-3.969 1.633-2.223 1.023-4.523 2.082-6.723 2.082-1.464 0-2.785-.461-4.042-1.414zm21.96 1.392c-3.796-2.422-7.55-.692-11.195.984 0 0-1.734 1.062-2.902.234-.188-.133-.485-.363-.594-.734a26.205 26.205 0 0 0 3.926-1.617c1.844-.934 4.562-1.793 4.562-1.793V4.297c2.442-.621 4.371-.274 6.203 1.117zm0 0"/>
</svg>
