<svg xmlns="http://www.w3.org/2000/svg" width="32" height="32" viewBox="0 0 24 24">
    <path d="M5.964844 24C5.617188 24 4.304688 23.753906 4.304688 22.355469L4.304688 18.921875C4.304688 18.578125 4.414062 18.25 4.621094 17.972656L6.632812 15.285156 5.886719 12.785156C4 13.941406 2.195312 14.445312 2.113281 14.46875 1.25 14.703125.347656 14.179688.0664062 13.363281-.09375 12.898438-.0429688 11.734375 1.207031 11.359375 1.230469 11.351562 3.84375 10.597656 5.589844 8.929688 5.917969 8.539062 6.429688 8.378906 6.496094 8.359375L8.804688 7.726562C9.167969 7.625 9.570312 7.601562 9.910156 7.761719 10.9375 8.242188 13.492188 8.5625 13.492188 8.5625 13.957031 8.636719 14.367188 8.898438 14.621094 9.28125L17.296875 13.328125C17.785156 14.070312 17.617188 15.042969 16.910156 15.546875 16.621094 15.75 15.480469 16.304688 14.53125 15.117188L12.226562 11.636719 11.851562 11.574219 12.761719 14.617188C12.808594 14.742188 13.601562 16.558594 14.128906 17.757812L16.285156 19.195312C17.023438 19.613281 17.410156 20.402344 17.152344 21.15625 16.925781 21.820312 16.070312 22.617188 14.855469 22.109375L11.855469 20.71875C11.550781 20.574219 11.300781 20.351562 11.128906 20.066406L9.714844 17.667969C9.519531 17.359375 9.1875 17.371094 9.09375 17.492188L7.625 19.449219 7.625 22.382812C7.625 23.273438 6.878906 24 5.964844 24zM6.671875 11.839844L7.6875 15.242188C7.734375 15.394531 7.703125 15.5625 7.605469 15.691406L5.4375 18.582031C5.363281 18.683594 5.324219 18.800781 5.324219 18.921875L5.324219 22.355469C5.324219 22.652344 5.535156 22.910156 5.820312 22.964844 6.234375 23.042969 6.605469 22.753906 6.605469 22.382812L6.605469 19.277344C6.605469 19.167969 6.640625 19.0625 6.707031 18.972656L8.402344 16.710938C9.0625 16.089844 10.226562 16.488281 10.59375 17.148438L12.007812 19.546875C12.074219 19.652344 12.167969 19.738281 12.285156 19.792969L15.289062 21.183594C15.679688 21.398438 16.085938 21.117188 16.183594 20.828125 16.277344 20.558594 16.128906 20.265625 15.746094 20.0625L13.4375 18.523438C13.355469 18.46875 13.292969 18.394531 13.253906 18.304688 11.820312 15.039062 11.792969 14.949219 11.78125 14.910156L10.644531 11.089844C10.527344 10.558594 10.992188 10.398438 11.210938 10.4375L12.609375 10.660156C12.75 10.683594 12.875 10.765625 12.953125 10.882812L15.382812 14.554688C15.574219 14.84375 16.023438 14.925781 16.316406 14.714844 16.574219 14.53125 16.628906 14.171875 16.445312 13.890625L13.769531 9.847656C13.671875 9.699219 13.511719 9.601562 13.332031 9.570312 13.332031 9.570312 10.863281 9.28125 9.574219 8.726562 9.421875 8.660156 9.242188 8.664062 9.074219 8.710938L6.765625 9.34375C6.5 9.417969 6.332031 9.636719 6.316406 9.652344 4.386719 11.507812 1.597656 12.304688 1.484375 12.34375 1.019531 12.484375 1 12.925781 1.042969 13.070312 1.136719 13.382812 1.5 13.574219 1.839844 13.484375 1.925781 13.460938 3.941406 12.878906 5.894531 11.5625 6.269531 11.3125 6.632812 11.640625 6.671875 11.839844zM6.585938 7.425781C5.089844 7.425781 3.871094 6.246094 3.871094 4.800781 3.871094 3.351562 5.089844 2.171875 6.585938 2.171875 8.082031 2.171875 9.296875 3.351562 9.296875 4.800781 9.296875 6.246094 8.082031 7.425781 6.585938 7.425781zM6.585938 3.195312C5.652344 3.195312 4.894531 3.914062 4.894531 4.800781 4.894531 5.683594 5.652344 6.402344 6.585938 6.402344 7.515625 6.402344 8.277344 5.683594 8.277344 4.800781 8.277344 3.914062 7.515625 3.195312 6.585938 3.195312zM19.210938 9.242188C16.570312 9.242188 14.421875 7.167969 14.421875 4.621094 14.421875 2.074219 16.570312 0 19.210938 0 21.851562 0 24 2.074219 24 4.621094 24 7.167969 21.851562 9.242188 19.210938 9.242188zM19.210938 1.019531C17.132812 1.019531 15.441406 2.636719 15.441406 4.621094 15.441406 6.605469 17.132812 8.222656 19.210938 8.222656 21.289062 8.222656 22.976562 6.605469 22.976562 4.621094 22.976562 2.636719 21.289062 1.019531 19.210938 1.019531zM19.210938 1.019531"/>
    <path d="M 21.070312 5.132812 L 18.699219 5.132812 L 18.699219 2.03125 L 19.722656 2.03125 L 19.722656 4.109375 L 21.070312 4.109375 Z M 21.070312 5.132812"/>
</svg>
