<svg xmlns="http://www.w3.org/2000/svg" width="32" height="32" viewBox="0 0 24 24">
    <path d="M12 24C5.383 24 0 18.617 0 12S5.383 0 12 0s12 5.383 12 12-5.383 12-12 12zm0-22.98C5.945 1.02 1.02 5.945 1.02 12c0 6.055 4.925 10.98 10.98 10.98 6.055 0 10.98-4.925 10.98-10.98 0-6.055-4.925-10.98-10.98-10.98zm0 0"/>
    <path d="M12 21.242c-1.2 0-2.629-.824-2.629-4.75 0-2.691.77-7.715 2.629-7.715 1.86 0 2.629 5.024 2.629 7.715 0 3.926-1.43 4.75-2.629 4.75zm0-11.445c-.531.027-1.61 3.144-1.61 6.695 0 1.395.212 3.73 1.61 3.73 1.398 0 1.61-2.335 1.61-3.73 0-3.547-1.079-6.664-1.61-6.695zm0 0M12 7.36c-1.27 0-2.3-1.032-2.3-2.301 0-1.27 1.03-2.301 2.3-2.301 1.27 0 2.3 1.031 2.3 2.3 0 1.27-1.03 2.301-2.3 2.301zm0-3.583a1.282 1.282 0 1 0 .001 2.564A1.282 1.282 0 0 0 12 3.777zm0 0"/>
</svg>
