<svg xmlns="http://www.w3.org/2000/svg" width="32" height="32" viewBox="0 0 24 24">
    <path d="M 12 24 C 5.382812 24 0 18.617188 0 12 C 0 5.382812 5.382812 0 12 0 C 18.617188 0 24 5.382812 24 12 C 24 18.617188 18.617188 24 12 24 Z M 12 1.019531 C 5.945312 1.019531 1.019531 5.945312 1.019531 12 C 1.019531 18.054688 5.945312 22.980469 12 22.980469 C 18.054688 22.980469 22.980469 18.054688 22.980469 12 C 22.980469 5.945312 18.054688 1.019531 12 1.019531 Z M 12 1.019531"/>
    <path d="M12 21.242188C10.800781 21.242188 9.371094 20.417969 9.371094 16.492188 9.371094 13.800781 10.140625 8.777344 12 8.777344 13.859375 8.777344 14.628906 13.800781 14.628906 16.492188 14.628906 20.417969 13.199219 21.242188 12 21.242188zM12 9.796875C11.46875 9.824219 10.390625 12.941406 10.390625 16.492188 10.390625 17.886719 10.601562 20.222656 12 20.222656 13.398438 20.222656 13.609375 17.886719 13.609375 16.492188 13.609375 12.945312 12.53125 9.828125 12 9.796875zM12 7.359375C10.730469 7.359375 9.699219 6.328125 9.699219 5.058594 9.699219 3.789062 10.730469 2.757812 12 2.757812 13.269531 2.757812 14.300781 3.789062 14.300781 5.058594 14.300781 6.328125 13.269531 7.359375 12 7.359375zM12 3.777344C11.292969 3.777344 10.71875 4.351562 10.71875 5.058594 10.71875 5.765625 11.292969 6.339844 12 6.339844 12.707031 6.339844 13.28125 5.765625 13.28125 5.058594 13.28125 4.351562 12.707031 3.777344 12 3.777344zM12 3.777344"/>
</svg>
