<svg xmlns="http://www.w3.org/2000/svg" width="32" height="32" viewBox="0 0 24 24">
    <path d="M5.691 6.828A1.344 1.344 0 1 1 6.79 4.711l.637-.637a2.234 2.234 0 0 0-1.735-.828 2.238 2.238 0 1 0 1.754 3.629l-.636-.64c-.243.359-.653.593-1.118.593zm0 0"/>
    <path d="M0 10.926h10.922V.004H0zm1.02-9.903h8.878v8.88H1.02zm0 0M13.078.004v10.922H24V.004zm9.902 9.898h-8.878V1.023h8.878zm0 0M0 23.996h10.922V13.074H0zm1.02-9.898h8.878v8.879H1.02zm0 0M13.078 23.996H24V13.074H13.078zm1.024-9.898h8.878v8.879h-8.878zm0 0"/>
    <path d="M17.098 4.91l1.152 2.34h.57l1.16-2.34v2.695h.954V3.32h-1.286L18.54 5.676 17.437 3.32h-1.292v4.285h.953zm0 0M5.46 17.988l-.925-1.593H3.5l1.484 2.593v1.692h.954v-1.692l1.484-2.593H6.387zm0 0M19.234 16.395l-1.617 1.757v-1.757h-.957v4.285h.957v-1.215l.43-.477L19.3 20.68h1.117l-.89-1.25-.813-1.14 1.703-1.895zm0 0"/>
</svg>
