<svg xmlns="http://www.w3.org/2000/svg" width="32" height="32" viewBox="0 0 24 24">
    <path d="M 15.3125 4.730469 L 14.71875 4.730469 L 14.71875 0 L 9.308594 0 L 9.308594 4.730469 L 8.6875 4.730469 C 7.742188 4.730469 6.96875 5.5 6.96875 6.449219 L 6.96875 20.871094 C 6.96875 22.597656 8.375 24 10.097656 24 L 13.902344 24 C 15.625 24 17.03125 22.597656 17.03125 20.871094 L 17.03125 6.449219 C 17.03125 5.5 16.257812 4.730469 15.3125 4.730469 Z M 10.328125 1.019531 L 13.695312 1.019531 L 13.695312 4.730469 L 10.328125 4.730469 Z M 16.007812 20.871094 C 16.007812 22.03125 15.0625 22.980469 13.902344 22.980469 L 10.097656 22.980469 C 8.9375 22.980469 7.992188 22.03125 7.992188 20.871094 L 7.992188 6.449219 C 7.992188 6.0625 8.304688 5.75 8.6875 5.75 L 15.3125 5.75 C 15.695312 5.75 16.007812 6.0625 16.007812 6.449219 Z M 16.007812 20.871094"/>
    <path d="M12 15.097656C13.339844 15.097656 14.390625 13.433594 14.390625 11.3125 14.390625 9.1875 13.339844 7.527344 12 7.527344 10.660156 7.527344 9.609375 9.1875 9.609375 11.3125 9.609375 13.433594 10.660156 15.097656 12 15.097656zM12 8.546875C12.648438 8.546875 13.371094 9.683594 13.371094 11.3125 13.371094 12.941406 12.648438 14.078125 12 14.078125 11.351562 14.078125 10.628906 12.941406 10.628906 11.3125 10.628906 9.683594 11.351562 8.546875 12 8.546875zM9.402344 17.085938L14.621094 17.085938 14.621094 18.105469 9.402344 18.105469zM9.402344 19.398438L14.621094 19.398438 14.621094 20.417969 9.402344 20.417969zM9.402344 19.398438"/>
</svg>
