<svg xmlns="http://www.w3.org/2000/svg" width="32" height="32" viewBox="0 0 24 24">
    <path d="M 15.234375 6.851562 L 14.769531 6.851562 L 14.769531 3.332031 L 12.511719 3.332031 L 12.511719 1.625 C 12.515625 1.625 12.519531 1.625 12.519531 1.625 C 13.304688 1.589844 14.066406 1.289062 14.664062 0.785156 L 14.003906 0 C 13.574219 0.359375 13.03125 0.554688 12.472656 0.597656 C 11.914062 0.644531 10.789062 0.375 10.03125 0.4375 C 9.5625 0.476562 9.101562 0.640625 8.699219 0.890625 L 9.238281 1.765625 C 9.507812 1.597656 9.820312 1.492188 10.136719 1.457031 C 10.582031 1.410156 11.425781 1.546875 11.488281 1.558594 L 11.488281 3.332031 L 9.230469 3.332031 L 9.230469 6.851562 L 8.765625 6.851562 C 7.191406 6.851562 5.910156 8.132812 5.910156 9.707031 L 5.910156 23.488281 C 5.910156 23.769531 6.140625 24 6.421875 24 L 17.578125 24 C 17.859375 24 18.089844 23.769531 18.089844 23.488281 L 18.089844 9.707031 C 18.089844 8.132812 16.808594 6.851562 15.234375 6.851562 Z M 10.257812 4.359375 L 13.742188 4.359375 L 13.742188 6.851562 L 10.257812 6.851562 Z M 17.0625 22.972656 L 6.9375 22.972656 L 6.9375 9.707031 C 6.9375 8.699219 7.757812 7.878906 8.765625 7.878906 L 15.234375 7.878906 C 16.242188 7.878906 17.0625 8.699219 17.0625 9.707031 Z M 17.0625 22.972656"/>
    <path d="M 15.144531 13.605469 L 8.855469 13.605469 C 8.570312 13.605469 8.339844 13.835938 8.339844 14.117188 L 8.339844 20.5625 C 8.339844 20.847656 8.570312 21.078125 8.855469 21.078125 L 15.144531 21.078125 C 15.429688 21.078125 15.660156 20.847656 15.660156 20.5625 L 15.660156 14.117188 C 15.660156 13.835938 15.429688 13.605469 15.144531 13.605469 Z M 14.632812 20.050781 L 9.367188 20.050781 L 9.367188 14.632812 L 14.632812 14.632812 Z M 14.632812 20.050781"/>
</svg>
