<svg xmlns="http://www.w3.org/2000/svg" width="32" height="32" viewBox="0 0 24 24">
    <path d="M15.313 4.73h-.594V0h-5.41v4.73h-.621c-.946 0-1.72.77-1.72 1.72V20.87A3.133 3.133 0 0 0 10.099 24h3.804a3.133 3.133 0 0 0 3.13-3.129V6.45c0-.949-.774-1.719-1.72-1.719zm-4.985-3.71h3.367v3.71h-3.367zm5.68 19.851c0 1.16-.945 2.11-2.106 2.11h-3.804c-1.16 0-2.106-.95-2.106-2.11V6.45c0-.386.313-.699.696-.699h6.624c.383 0 .696.313.696.7zm0 0"/>
    <path d="M12 15.098c1.34 0 2.39-1.664 2.39-3.786 0-2.124-1.05-3.785-2.39-3.785s-2.39 1.66-2.39 3.785c0 2.122 1.05 3.786 2.39 3.786zm0-6.551c.648 0 1.371 1.137 1.371 2.765 0 1.63-.723 2.766-1.371 2.766s-1.371-1.137-1.371-2.765c0-1.63.723-2.766 1.371-2.766zm0 0M9.402 17.086h5.22v1.02h-5.22zm0 0M9.402 19.398h5.22v1.02h-5.22zm0 0"/>
</svg>
