<svg xmlns="http://www.w3.org/2000/svg" width="32" height="32" viewBox="0 0 24 24">
    <path d="M 4.515625 9.84375 C 4.910156 9.375 5.152344 8.765625 5.152344 8.097656 C 5.152344 8.066406 5.148438 8.035156 5.148438 8.003906 L 19.125 3.84375 C 19.546875 4.710938 20.417969 5.308594 21.425781 5.308594 C 22.84375 5.308594 24 4.117188 24 2.652344 C 24 2.371094 23.773438 2.144531 23.488281 2.144531 C 23.207031 2.144531 22.980469 2.371094 22.980469 2.652344 C 22.980469 3.554688 22.28125 4.285156 21.425781 4.285156 C 20.566406 4.285156 19.871094 3.554688 19.871094 2.652344 C 19.871094 1.753906 20.566406 1.019531 21.425781 1.019531 C 21.707031 1.019531 21.933594 0.792969 21.933594 0.511719 C 21.933594 0.230469 21.707031 0 21.425781 0 C 20.003906 0 18.847656 1.191406 18.847656 2.652344 C 18.847656 2.722656 18.851562 2.789062 18.855469 2.859375 L 4.921875 7.003906 C 4.515625 6.085938 3.617188 5.445312 2.574219 5.445312 C 1.15625 5.445312 0 6.636719 0 8.097656 C 0 9.5625 1.15625 10.753906 2.574219 10.753906 C 2.984375 10.753906 3.367188 10.65625 3.710938 10.480469 L 10.523438 17.609375 L 0 17.609375 L 0 24 L 23.429688 24 L 23.429688 17.609375 L 11.933594 17.609375 Z M 1.019531 8.097656 C 1.019531 7.199219 1.71875 6.464844 2.574219 6.464844 C 3.433594 6.464844 4.128906 7.199219 4.128906 8.097656 C 4.128906 9 3.433594 9.730469 2.574219 9.730469 C 1.71875 9.730469 1.019531 9 1.019531 8.097656 Z M 22.410156 22.980469 L 1.019531 22.980469 L 1.019531 18.628906 L 22.410156 18.628906 Z M 22.410156 22.980469"/>
</svg>
