<svg xmlns="http://www.w3.org/2000/svg" width="32" height="32" viewBox="0 0 24 24">
    <path d="M11.055 5.21C9.48 5.677 8.449 6.868 8.746 7.88c.297 1.012 1.816 1.453 3.387.992 1.574-.465 2.61-1.66 2.308-2.672-.296-1.008-1.812-1.453-3.386-.988zm.804 2.724c-1.011.296-1.949.14-2.093-.356-.145-.492.554-1.133 1.566-1.433 1.008-.297 1.945-.137 2.094.355.144.496-.559 1.137-1.567 1.434zm0 0"/>
    <path d="M24 6.816L6.977 2.16 0 6.867l17.117 5.645zM2.223 6.56l4.93-3.325 14.75 4.032-4.997 4.132zm0 0"/>
    <path d="M.027 8.906v1.04l17.09 5.656 6.856-5.63V8.696l-7.067 5.797zm0 0"/>
    <path d="M.027 12.023v1.043l17.09 5.653 6.856-5.625v-1.281l-7.067 5.796zm0 0"/>
    <path d="M.027 15.145v1.043l17.09 5.652 6.856-5.63v-1.276l-7.067 5.796zm0 0"/>
</svg>
