<svg xmlns="http://www.w3.org/2000/svg" width="32" height="32" viewBox="0 0 24 24">
    <path d="M24 0H0v20.734h9.16L7.06 24h9.882l-2.101-3.266H24zM8.93 22.98l1.445-2.246h3.25l1.445 2.246zm14.05-3.27H1.02V1.02h21.96zm0 0"/>
    <path d="M21.371 2.941H2.63v14.657H21.37zm-1.02 13.637H3.649V3.961h16.704zm0 0"/>
    <path d="M15.543 10.328l-1.996-1.922.71-.738 2.755 2.66-2.633 2.54-.711-.735zm-5.211 1.805l-1.871-1.805 1.992-1.922-.71-.738-2.755 2.66 2.633 2.54zm3.164-5.399l-.984-.27-2.008 7.34.984.27zm0 0"/>
</svg>
