<svg xmlns="http://www.w3.org/2000/svg" width="32" height="32" viewBox="0 0 24 24">
    <path d="M23.934 3.543L24 2.535l-2.406-.152L21.437 0l-1.015.066.172 2.63-.739.73-.113-1.746-1.02.062.173 2.633-.63.625a11.01 11.01 0 0 0-7.28-2.738C4.93 2.262 0 7.137 0 13.132 0 19.126 4.93 24 10.984 24c6.059 0 10.985-4.875 10.985-10.867 0-2.871-1.13-5.485-2.973-7.43l.652-.648 2.59.164.067-1.004-1.696-.11.735-.73zm-2.985 9.59c0 5.437-4.469 9.86-9.965 9.86-5.496 0-9.964-4.423-9.964-9.86 0-5.438 4.468-9.863 9.964-9.863 2.508 0 4.805.925 6.559 2.445L16.102 7.14a7.935 7.935 0 0 0-5.118-1.86c-4.375 0-7.933 3.524-7.933 7.852s3.558 7.847 7.933 7.847 7.934-3.52 7.934-7.847a7.76 7.76 0 0 0-2.082-5.293l1.437-1.426a9.767 9.767 0 0 1 2.676 6.719zm-9.972.504l3.054-3.024c.578.684.926 1.559.926 2.52 0 2.164-1.781 3.93-3.973 3.93-2.191 0-3.972-1.766-3.972-3.93 0-2.168 1.781-3.934 3.972-3.934.856 0 1.649.274 2.297.73l-3.023 2.993zm3.035-4.43a4.998 4.998 0 0 0-3.028-1.016c-2.754 0-4.992 2.215-4.992 4.942 0 2.722 2.238 4.937 4.992 4.937s4.993-2.215 4.993-4.937a4.88 4.88 0 0 0-1.223-3.235l1.36-1.347a6.77 6.77 0 0 1 1.784 4.582c0 3.77-3.101 6.84-6.914 6.84-3.812 0-6.914-3.07-6.914-6.84 0-3.774 3.102-6.84 6.914-6.84 1.668 0 3.2.586 4.395 1.562zm0 0"/>
</svg>
