<svg xmlns="http://www.w3.org/2000/svg" width="32" height="32" viewBox="0 0 24 24">
    <path d="M 0 0 L 0 24 L 24 24 L 24 0 Z M 22.980469 22.980469 L 1.019531 22.980469 L 1.019531 1.019531 L 22.980469 1.019531 Z M 22.980469 22.980469"/>
    <path d="M21.296875 21.539062L21.296875 9.617188 12.09375 21.539062zM20.273438 20.515625L14.171875 20.515625 20.273438 12.613281zM2.703125 2.460938L2.703125 14.382812 11.90625 2.460938zM3.726562 3.484375L9.828125 3.484375 3.726562 11.386719zM9.390625 9.863281L14.609375 9.863281 14.609375 10.886719 9.390625 10.886719zM9.390625 13.113281L14.609375 13.113281 14.609375 14.136719 9.390625 14.136719zM9.390625 13.113281"/>
</svg>
