<svg xmlns="http://www.w3.org/2000/svg" width="32" height="32" viewBox="0 0 24 24">
    <path d="M12 5.84A6.165 6.165 0 0 0 5.84 12 6.165 6.165 0 0 0 12 18.16 6.165 6.165 0 0 0 18.16 12 6.165 6.165 0 0 0 12 5.84zm0 11.3A5.145 5.145 0 0 1 6.86 12 5.145 5.145 0 0 1 12 6.86 5.145 5.145 0 0 1 17.14 12 5.145 5.145 0 0 1 12 17.14zm0 0"/>
    <path d="M13.176 8.363l-.645.797c.203.164.32.406.32.664a.85.85 0 0 1-.851.848.85.85 0 0 1-.852-.848c0-.258.118-.5.32-.664l-.644-.797a1.875 1.875 0 0 0 .664 3.262v4.008h1.024v-4.008a1.875 1.875 0 1 0 .664-3.262zm0 0"/>
    <path d="M24 14.422V9.578h-2.64a9.634 9.634 0 0 0-1.032-2.48L22.2 5.227 18.773 1.8l-1.87 1.87a9.691 9.691 0 0 0-2.481-1.03V0H9.578v2.64c-.867.227-1.7.57-2.48 1.032L5.227 1.8 1.8 5.227l1.87 1.87a9.691 9.691 0 0 0-1.03 2.481H0v4.844h2.64c.227.867.57 1.7 1.032 2.48l-1.867 1.871L5.227 22.2l1.87-1.87c.782.46 1.614.804 2.481 1.03V24h4.844v-2.64c.867-.227 1.7-.57 2.48-1.032l1.871 1.871 3.426-3.426-1.87-1.87c.46-.782.804-1.61 1.03-2.481zm-3.547-.617a8.548 8.548 0 0 1-1.203 2.894l-.223.348 1.727 1.726-1.98 1.98-1.727-1.726-.348.223a8.548 8.548 0 0 1-2.894 1.203l-.403.086v2.441h-2.8v-2.44l-.407-.087a8.548 8.548 0 0 1-2.894-1.203l-.348-.223-1.726 1.727-1.98-1.98 1.73-1.727-.227-.348a8.548 8.548 0 0 1-1.203-2.894l-.086-.407H1.02v-2.8h2.44l.087-.403c.219-1.027.621-2 1.203-2.894l.227-.348-1.73-1.726 1.98-1.98 1.726 1.726.348-.223a8.548 8.548 0 0 1 2.894-1.203l.407-.086V1.02h2.8v2.44l.403.087c1.027.219 2 .621 2.894 1.203l.348.223 1.726-1.727 1.98 1.98-1.726 1.727.223.348c.582.89.984 1.867 1.203 2.894l.086.403h2.441v2.8h-2.44zm0 0"/>
</svg>
