<svg xmlns="http://www.w3.org/2000/svg" width="32" height="32" viewBox="0 0 24 24">
    <path d="M5.805 20.094a2.904 2.904 0 0 0 3.656-3.777l4.445-1.247c.457.301 1 .473 1.586.473 1.602 0 2.906-1.3 2.906-2.902 0-.586-.175-1.133-.476-1.59l1.629-2.813c.445.285.976.45 1.547.45A2.907 2.907 0 0 0 24 5.784c0-1.601-1.3-2.906-2.902-2.906a2.91 2.91 0 0 0-2.907 2.906c0 .645.215 1.242.575 1.727l-1.598 2.758a2.904 2.904 0 0 0-4.11 3.953l-4.167 1.172a2.891 2.891 0 0 0-2.141-.95 2.91 2.91 0 0 0-2.906 2.907 2.9 2.9 0 0 0 1.008 2.195l-3.809 3.387V0H0v23.477c0 .289.234.523.523.523H24v-1.043H2.586zM21.098 3.922c1.023 0 1.859.836 1.859 1.863 0 1.024-.836 1.86-1.86 1.86a1.865 1.865 0 0 1-1.863-1.86c0-1.027.836-1.863 1.864-1.863zm-5.606 6.86c1.028 0 1.863.831 1.863 1.859a1.862 1.862 0 0 1-3.722 0c0-1.028.836-1.86 1.86-1.86zM6.75 15.487c1.023 0 1.86.836 1.86 1.864 0 1.023-.837 1.859-1.86 1.859a1.861 1.861 0 0 1 0-3.723zm0 0"/>
</svg>
