<svg xmlns="http://www.w3.org/2000/svg" width="32" height="32" viewBox="0 0 24 24">
    <path d="M 23.996094 20.476562 C 23.960938 19.535156 23.53125 18.644531 22.816406 18.03125 L 17.875 13.777344 C 18.542969 12.484375 18.917969 11.015625 18.917969 9.457031 C 18.917969 4.234375 14.683594 0 9.457031 0 C 4.234375 0 0 4.234375 0 9.457031 C 0 14.683594 4.234375 18.917969 9.457031 18.917969 C 11.015625 18.917969 12.484375 18.542969 13.78125 17.875 L 18.03125 22.816406 C 18.644531 23.53125 19.535156 23.960938 20.476562 23.996094 C 20.519531 24 20.5625 24 20.601562 24 C 21.5 24 22.371094 23.640625 23.003906 23.003906 C 23.671875 22.339844 24.03125 21.417969 23.996094 20.476562 Z M 9.457031 17.894531 C 4.796875 17.894531 1.019531 14.117188 1.019531 9.457031 C 1.019531 4.800781 4.796875 1.019531 9.457031 1.019531 C 14.117188 1.019531 17.894531 4.800781 17.894531 9.457031 C 17.894531 14.117188 14.117188 17.894531 9.457031 17.894531 Z M 22.285156 22.285156 C 21.8125 22.753906 21.191406 23.007812 20.515625 22.976562 C 19.847656 22.953125 19.242188 22.660156 18.804688 22.152344 L 14.675781 17.351562 C 15.734375 16.648438 16.648438 15.734375 17.351562 14.675781 L 22.152344 18.804688 C 22.660156 19.242188 22.953125 19.847656 22.976562 20.515625 C 23.003906 21.183594 22.753906 21.8125 22.285156 22.285156 Z M 22.285156 22.285156"/>
    <path d="M 13.519531 8.765625 L 12.496094 8.761719 L 12.46875 13.691406 L 10.980469 13.683594 L 11.019531 6.605469 L 9.996094 6.601562 L 9.957031 13.679688 L 8.675781 13.671875 L 8.726562 4.605469 L 7.707031 4.597656 L 7.65625 13.667969 L 6.324219 13.660156 L 6.359375 7.105469 L 5.335938 7.097656 L 5.300781 13.652344 L 4.363281 13.648438 L 4.355469 14.667969 L 14.457031 14.726562 L 14.460938 13.703125 L 13.492188 13.699219 Z M 13.519531 8.765625"/>
</svg>
