<svg xmlns="http://www.w3.org/2000/svg" width="32" height="32" viewBox="0 0 24 24">
    <path d="M1.02.512H0V24h23.488v-1.02H1.02zm0 0"/>
    <path d="M5.352 21.758a2.828 2.828 0 0 0 2.824-2.824c0-.993-.516-1.868-1.293-2.372l.547-4.976a2.8 2.8 0 0 0 2.105-.473l5.988 1.559a2.829 2.829 0 0 0 2.797 2.426 2.832 2.832 0 0 0 2.825-2.828 2.832 2.832 0 0 0-1.375-2.422l1.445-4.2A2.825 2.825 0 0 0 21.175 0a2.826 2.826 0 0 0-2.823 2.824c0 1.215.765 2.25 1.843 2.649l-1.383 4.02a2.564 2.564 0 0 0-.492-.048c-1.34 0-2.46.934-2.75 2.184l-5.242-1.363c.262-.426.41-.926.41-1.461A2.826 2.826 0 0 0 7.914 5.98a2.826 2.826 0 0 0-1.473 5.235l-.539 4.95a2.83 2.83 0 0 0-3.379 2.77 2.83 2.83 0 0 0 2.829 2.823zm14.02-18.934c0-.992.808-1.804 1.804-1.804a1.81 1.81 0 0 1 1.804 1.804c0 .996-.812 1.805-1.804 1.805a1.805 1.805 0 0 1-1.805-1.805zM18.32 10.47a1.804 1.804 0 0 1 0 3.605 1.805 1.805 0 0 1-1.804-1.804c0-.993.808-1.801 1.804-1.801zM7.914 7a1.805 1.805 0 0 1 0 3.61 1.805 1.805 0 0 1 0-3.61zM5.352 17.129a1.805 1.805 0 0 1 0 3.61 1.805 1.805 0 0 1 0-3.61zm0 0"/>
</svg>
