<svg xmlns="http://www.w3.org/2000/svg" width="32" height="32" viewBox="0 0 24 24">
    <path d="M 22.195312 22.980469 L 22.195312 5.648438 L 21.128906 5.648438 L 21.128906 22.980469 L 15.753906 22.980469 L 15.753906 9.222656 L 14.6875 9.222656 L 14.6875 22.980469 L 9.3125 22.980469 L 9.3125 7.339844 L 8.246094 7.339844 L 8.246094 22.980469 L 2.871094 22.980469 L 2.871094 11.570312 L 1.804688 11.570312 L 1.804688 22.980469 L 0 22.980469 L 0 24 L 24 24 L 24 22.980469 Z M 22.195312 22.980469"/>
    <path d="M 8.882812 4.253906 L 15.039062 7.214844 C 15.246094 7.3125 15.496094 7.273438 15.65625 7.113281 L 21.128906 1.761719 L 21.128906 4.046875 L 22.195312 4.046875 L 22.195312 0.511719 C 22.195312 0.226562 21.957031 0 21.660156 0 L 18.046875 0 L 18.046875 1.019531 L 20.394531 1.019531 L 15.167969 6.132812 L 9.019531 3.179688 C 8.8125 3.078125 8.566406 3.117188 8.402344 3.273438 L 1.964844 9.382812 L 2.714844 10.105469 Z M 8.882812 4.253906"/>
</svg>
