<svg xmlns="http://www.w3.org/2000/svg" width="32" height="32" viewBox="0 0 24 24">
    <path d="M 23.746094 12.960938 L 23.746094 11.941406 L 22.191406 11.941406 C 22.09375 11.21875 21.796875 10.554688 21.351562 10.007812 L 22.421875 8.988281 L 21.71875 8.25 L 20.613281 9.296875 C 20.027344 8.859375 19.316406 8.566406 18.542969 8.476562 L 18.542969 7.03125 L 17.519531 7.03125 L 17.519531 8.476562 C 16.746094 8.566406 16.035156 8.859375 15.449219 9.296875 L 14.339844 8.25 L 13.636719 8.988281 L 14.710938 10.007812 C 14.265625 10.554688 13.96875 11.21875 13.871094 11.941406 L 12.316406 11.941406 L 12.316406 12.960938 L 13.871094 12.960938 C 13.96875 13.683594 14.265625 14.34375 14.710938 14.894531 L 13.636719 15.910156 L 14.339844 16.652344 L 15.449219 15.601562 C 16.035156 16.042969 16.746094 16.335938 17.519531 16.425781 L 17.519531 17.871094 L 18.542969 17.871094 L 18.542969 16.425781 C 19.316406 16.335938 20.027344 16.042969 20.613281 15.601562 L 21.71875 16.652344 L 22.421875 15.910156 L 21.351562 14.894531 C 21.796875 14.34375 22.09375 13.683594 22.191406 12.960938 Z M 21.203125 12.449219 C 21.203125 14.097656 19.78125 15.433594 18.03125 15.433594 C 16.28125 15.433594 14.855469 14.097656 14.855469 12.449219 C 14.855469 10.804688 16.28125 9.46875 18.03125 9.46875 C 19.78125 9.46875 21.203125 10.804688 21.203125 12.449219 Z M 21.203125 12.449219"/>
    <path d="M 17.519531 19.375 L 1.277344 19.375 L 1.277344 4.757812 L 17.519531 4.757812 L 17.519531 6.167969 L 18.542969 6.167969 L 18.542969 0 L 0.253906 0 L 0.253906 24 L 18.542969 24 L 18.542969 18.910156 L 17.519531 18.910156 Z M 17.519531 1.019531 L 17.519531 3.738281 L 1.277344 3.738281 L 1.277344 1.019531 Z M 1.277344 22.980469 L 1.277344 20.398438 L 17.519531 20.398438 L 17.519531 22.980469 Z M 1.277344 22.980469"/>
    <path d="M8.640625 21.003906L10.15625 21.003906 10.15625 22.027344 8.640625 22.027344zM6.90625 1.800781L11.890625 1.800781 11.890625 2.820312 6.90625 2.820312zM6.90625 1.800781"/>
</svg>
