<svg xmlns="http://www.w3.org/2000/svg" width="32" height="32" viewBox="0 0 24 24">
    <path d="M17.46 11.621l-5.073-5.074.718-.723 5.075 5.074zm-2.722 2.719L9.664 9.266l.723-.723 5.074 5.074zm-2.718 2.719l-5.075-5.075.723-.722 5.074 5.074zM9.3 19.78l-5.073-5.078.722-.719 5.074 5.075zm0 0"/>
    <path d="M23.387.621a2.085 2.085 0 0 0-1.492-.617l-6.872.023c-.558 0-1.082.22-1.476.614L.617 13.57c-1.164 1.265-.394 2.57 0 2.968l6.852 6.848c1.273 1.144 2.57.394 2.968 0l12.926-12.93c.395-.395.614-.918.617-1.477L24 2.11c0-.563-.215-1.09-.613-1.489zm-.43 8.356c0 .289-.113.558-.316.761L9.715 22.664c-.406.406-1.117.406-1.527 0L1.34 15.816c-.203-.203-.598-.921 0-1.527L14.27 1.363c.203-.203.472-.316.757-.316l6.875-.02A1.079 1.079 0 0 1 22.98 2.11zm0 0"/>
    <path d="M19.332 2.68a1.99 1.99 0 0 0-1.992 1.992 1.994 1.994 0 1 0 3.988 0 1.994 1.994 0 0 0-1.996-1.992zm0 2.984a.994.994 0 0 1-.992-.992.991.991 0 1 1 .992.992zm0 0"/>
</svg>
