<svg xmlns="http://www.w3.org/2000/svg" width="32" height="32" viewBox="0 0 24 24">
    <path d="M23.258 24l.742-.742-6.355-6.363a8.417 8.417 0 0 0 2.18-5h2.886v-1.051h-2.867c-.184-4.336-3.645-7.836-7.965-8.074V0h-1.047v2.773c-4.27.293-7.672 3.77-7.855 8.07H0v1.052h2.996c.336 4.148 3.676 7.457 7.836 7.742v3.101h1.047v-3.093a8.376 8.376 0 0 0 5.012-2.02zm-4.465-13.156H16.27a4.882 4.882 0 0 0-4.391-4.496V3.82c3.738.235 6.73 3.266 6.914 7.024zm-7.961 0H7.605a3.83 3.83 0 0 1 3.227-3.422zm0 1.05v3.094a3.84 3.84 0 0 1-3.184-3.093zm1.047 0h3.293a3.831 3.831 0 0 1-3.293 3.11zm0-1.05V7.406a3.834 3.834 0 0 1 3.336 3.438zm-1.047-7.016v2.535a4.881 4.881 0 0 0-4.281 4.48H4.027a7.41 7.41 0 0 1 6.805-7.015zm-6.781 8.067h2.535a4.886 4.886 0 0 0 4.246 4.156v2.531c-3.578-.277-6.45-3.121-6.781-6.687zm7.828 6.695v-2.527a4.888 4.888 0 0 0 4.355-4.168h2.536c-.336 3.605-3.262 6.464-6.891 6.695zm0 0"/>
</svg>
