<svg xmlns="http://www.w3.org/2000/svg" width="32" height="32" viewBox="0 0 24 24">
    <path d="M 23.675781 2.484375 C 23.675781 2.484375 23.671875 2.484375 23.671875 2.484375 L 17.367188 0.0351562 C 16.925781 -0.121094 16.671875 0.265625 16.671875 0.511719 L 16.671875 2.449219 L 10.054688 2.449219 L 0.640625 0.0195312 C 0.21875 -0.078125 0 0.277344 0 0.511719 L 0 21.042969 C 0 21.273438 0.160156 21.476562 0.382812 21.535156 L 9.859375 23.984375 C 9.863281 23.984375 9.925781 24 9.988281 24 L 23.488281 24 C 23.769531 24 24 23.769531 24 23.488281 L 24 2.960938 C 24 2.832031 23.945312 2.601562 23.675781 2.484375 Z M 17.691406 1.257812 L 20.761719 2.449219 L 17.691406 2.449219 Z M 1.023438 1.171875 L 9.476562 3.355469 L 9.476562 22.832031 L 1.023438 20.644531 Z M 22.976562 22.980469 L 10.5 22.980469 L 10.5 3.472656 L 22.976562 3.472656 Z M 22.976562 22.980469"/>
    <path d="M2.621094 16.445312L8.234375 18.539062 7.878906 19.496094 2.265625 17.402344zM2.265625 11.429688L7.878906 13.527344 8.234375 12.570312 2.621094 10.476562zM2.265625 5.460938L7.878906 7.558594 8.234375 6.601562 2.621094 4.503906zM12.851562 13.015625L20.621094 13.015625C20.90625 13.015625 21.132812 12.789062 21.132812 12.507812L21.132812 6.222656C21.132812 5.941406 20.90625 5.714844 20.621094 5.714844L12.851562 5.714844C12.570312 5.714844 12.34375 5.941406 12.34375 6.222656L12.34375 12.507812C12.34375 12.789062 12.570312 13.015625 12.851562 13.015625zM13.363281 6.734375L20.113281 6.734375 20.113281 11.996094 13.363281 11.996094zM12.796875 15.488281L20.679688 15.488281 20.679688 16.507812 12.796875 16.507812zM12.796875 19.714844L20.679688 19.714844 20.679688 20.738281 12.796875 20.738281zM12.796875 19.714844"/>
</svg>
