<svg xmlns="http://www.w3.org/2000/svg" width="32" height="32" viewBox="0 0 24 24">
    <path d="M 9.667969 0 L 9.667969 3.042969 L 2.863281 3.042969 L 2.863281 13.9375 C 2.863281 16.832031 5.199219 19.191406 8.085938 19.226562 L 8.085938 22.980469 L 6.339844 22.980469 L 6.339844 24 L 10.851562 24 L 10.851562 22.980469 L 9.105469 22.980469 L 9.105469 19.226562 C 11.238281 19.203125 13.066406 17.910156 13.882812 16.074219 C 14.214844 16.140625 14.550781 16.179688 14.894531 16.183594 L 14.894531 19.933594 L 13.148438 19.933594 L 13.148438 20.957031 L 17.660156 20.957031 L 17.660156 19.933594 L 15.914062 19.933594 L 15.914062 16.183594 C 18.800781 16.148438 21.136719 13.789062 21.136719 10.894531 L 21.136719 0 Z M 13.308594 13.9375 C 13.308594 16.292969 11.394531 18.207031 9.042969 18.207031 L 8.152344 18.207031 C 5.796875 18.207031 3.882812 16.292969 3.882812 13.9375 L 3.882812 4.066406 L 13.308594 4.066406 Z M 20.117188 10.894531 C 20.117188 13.246094 18.203125 15.160156 15.851562 15.160156 L 14.957031 15.160156 C 14.703125 15.160156 14.453125 15.140625 14.203125 15.09375 C 14.285156 14.722656 14.332031 14.335938 14.332031 13.9375 L 14.332031 3.042969 L 10.691406 3.042969 L 10.691406 1.019531 L 20.117188 1.019531 Z M 20.117188 10.894531"/>
</svg>
