<svg xmlns="http://www.w3.org/2000/svg" width="32" height="32" viewBox="0 0 24 24">
    <path d="M 21.800781 7.558594 C 20.085938 3.789062 16.320312 1.3125 12.179688 1.246094 C 7.878906 1.175781 3.972656 3.648438 2.199219 7.558594 C 0.960938 7.726562 0 8.789062 0 10.074219 L 0 13.925781 C 0 15.210938 0.960938 16.273438 2.199219 16.441406 C 3.945312 20.285156 7.761719 22.757812 12 22.757812 C 16.238281 22.757812 20.054688 20.285156 21.800781 16.441406 C 23.039062 16.273438 24 15.210938 24 13.925781 L 24 10.074219 C 24 8.789062 23.039062 7.726562 21.800781 7.558594 Z M 12.164062 2.160156 C 15.804688 2.222656 19.128906 4.3125 20.773438 7.539062 L 3.226562 7.539062 C 4.925781 4.191406 8.378906 2.097656 12.164062 2.160156 Z M 12 21.839844 C 8.269531 21.839844 4.898438 19.75 3.226562 16.460938 L 20.773438 16.460938 C 19.101562 19.75 15.730469 21.839844 12 21.839844 Z M 23.085938 13.925781 C 23.085938 14.820312 22.355469 15.546875 21.464844 15.546875 L 2.535156 15.546875 C 1.644531 15.546875 0.914062 14.820312 0.914062 13.925781 L 0.914062 10.074219 C 0.914062 9.179688 1.644531 8.453125 2.535156 8.453125 L 21.464844 8.453125 C 22.355469 8.453125 23.085938 9.179688 23.085938 10.074219 Z M 23.085938 13.925781"/>
    <path d="M6.65625 12.640625L5.882812 10.246094 4.816406 10.246094 4.042969 12.640625 3.269531 10.246094 2.125 10.246094 3.472656 14.207031 4.617188 14.207031 5.355469 12.050781 6.082031 14.207031 7.234375 14.207031 8.582031 10.246094 7.429688 10.246094zM13.304688 12.640625L12.53125 10.246094 11.460938 10.246094 10.6875 12.640625 9.914062 10.246094 8.773438 10.246094 10.121094 14.207031 11.261719 14.207031 12 12.050781 12.730469 14.207031 13.878906 14.207031 15.226562 10.246094 14.078125 10.246094zM19.953125 12.640625L19.175781 10.246094 18.109375 10.246094 17.335938 12.640625 16.5625 10.246094 15.417969 10.246094 16.769531 14.207031 17.910156 14.207031 18.648438 12.050781 19.375 14.207031 20.527344 14.207031 21.875 10.246094 20.726562 10.246094zM19.953125 12.640625"/>
</svg>
