<svg xmlns="http://www.w3.org/2000/svg" width="32" height="32" viewBox="0 0 24 24">
    <path d="M21.8 7.559c-1.714-3.77-5.48-6.247-9.62-6.313A10.743 10.743 0 0 0 2.2 7.56 2.544 2.544 0 0 0 0 10.074v3.852c0 1.285.96 2.347 2.2 2.515a10.751 10.751 0 0 0 9.8 6.317c4.238 0 8.055-2.473 9.8-6.317a2.544 2.544 0 0 0 2.2-2.515v-3.852c0-1.285-.96-2.347-2.2-2.515zM12.165 2.16a9.884 9.884 0 0 1 8.61 5.38H3.226a9.823 9.823 0 0 1 8.937-5.38zM12 21.84a9.826 9.826 0 0 1-8.773-5.38h17.546A9.826 9.826 0 0 1 12 21.84zm11.086-7.914c0 .894-.73 1.62-1.621 1.62H2.535c-.89 0-1.62-.726-1.62-1.62v-3.852c0-.894.73-1.62 1.62-1.62h18.93c.89 0 1.62.726 1.62 1.62zm0 0"/>
    <path d="M6.656 12.64l-.773-2.394H4.816l-.773 2.395-.773-2.395H2.125l1.348 3.961h1.144l.738-2.156.727 2.156h1.152l1.348-3.96H7.43zm0 0M13.305 12.64l-.774-2.394h-1.07l-.774 2.395-.773-2.395h-1.14l1.347 3.961h1.14L12 12.051l.73 2.156h1.149l1.348-3.96h-1.149zm0 0M19.953 12.64l-.777-2.394h-1.067l-.773 2.395-.773-2.395h-1.145l1.352 3.961h1.14l.738-2.156.727 2.156h1.152l1.348-3.96h-1.148zm0 0"/>
</svg>
