<svg xmlns="http://www.w3.org/2000/svg" width="32" height="32" viewBox="0 0 24 24">
    <path d="M20.84 19.75L20 9.645a4.639 4.639 0 0 0-2.063-3.407v-.172c0-2.652.547-3.367.926-3.496l1.684-.418a.484.484 0 0 0 .293-.34.395.395 0 0 0-.168-.417L18.988.129c-.086-.04-.168-.082-.254-.082-.797-.043-1.515.21-2.062.8-1.195 1.262-1.317 3.63-1.313 4.63h-.832A2.534 2.534 0 0 0 12 2.949a2.534 2.534 0 0 0-2.527 2.528H8.64c.004-1.012-.11-3.403-1.313-4.672C6.781.258 6.105-.04 5.266.004a.578.578 0 0 0-.254.086L3.328 1.352a.395.395 0 0 0-.168.421c.04.168.168.293.336.336l1.64.422c.423.125.926.84.97 3.492v.192A4.592 4.592 0 0 0 4 9.688l-.8 9.933c-.126 1.137.253 2.23 1.01 3.074A3.935 3.935 0 0 0 7.16 24h9.89a3.81 3.81 0 0 0 2.778-1.18c.719-.8 1.098-1.894 1.012-3.07zM17.305 1.395c.336-.34.758-.547 1.304-.547l.84.629-.84.21c-1.261.422-1.515 2.36-1.558 4.083l-.125-.04-.059-.011a5.209 5.209 0 0 0-.656-.168c0-.848.043-3.11 1.094-4.156zM12 3.793c.926 0 1.684.758 1.684 1.684h-3.368c0-.926.758-1.684 1.684-1.684zM6.95 5.77c-.044-1.723-.298-3.66-1.56-4.082l-.843-.211.844-.63c.546 0 .968.208 1.347.548 1.047 1.085 1.094 3.3 1.094 4.152a3.878 3.878 0 0 0-.512.117c-.054.012-.11.031-.16.05a.344.344 0 0 0-.058.02zM19.2 22.273a3.022 3.022 0 0 1-2.15.883h-2.023a5.9 5.9 0 0 0 2.868-5.05v-6.313a3.773 3.773 0 0 0-3.79-3.79h-4.21a3.773 3.773 0 0 0-3.79 3.79v6.312a5.9 5.9 0 0 0 2.868 5.051H7.16a3.074 3.074 0 0 1-2.316-1.05A2.987 2.987 0 0 1 4 19.706l.844-9.977c.14-1.574 1.324-2.886 2.832-3.285.129-.03.261-.062.41-.086l.023-.004c.172-.023.344-.035.524-.035h6.734c.13 0 .258.004.387.016l.16.066h.043c.254.043.465.086.715.168h.043l.078.02a3.8 3.8 0 0 1 2.363 3.14L20 19.832c.082.969-.21 1.809-.8 2.441zm-7.2.883c-2.777 0-5.05-2.273-5.05-5.05v-6.313a2.928 2.928 0 0 1 2.945-2.95h4.21a2.928 2.928 0 0 1 2.946 2.95v6.312c0 2.778-2.274 5.051-5.051 5.051zm0 0"/>
    <path d="M14.105 11.371h-4.21a1.24 1.24 0 0 0-1.262 1.262v1.683c0 .715.547 1.266 1.262 1.266h4.21c.715 0 1.262-.55 1.262-1.266v-1.683a1.24 1.24 0 0 0-1.262-1.262zm.422 2.945c0 .254-.172.422-.422.422h-4.21c-.254 0-.422-.168-.422-.422v-1.683c0-.254.168-.422.422-.422h4.21c.25 0 .422.168.422.422zm0 0"/>
</svg>
