<svg xmlns="http://www.w3.org/2000/svg" width="32" height="32" viewBox="0 0 24 24">
    <path d="M 23.863281 12.425781 L 22.617188 11.175781 C 22.570312 11.132812 22.527344 11.089844 22.4375 11.089844 C 18.691406 9.882812 16.996094 9.347656 15.703125 8.457031 C 14.277344 7.519531 12.761719 7.074219 11.289062 7.164062 C 10.863281 7.191406 10.464844 7.261719 10.101562 7.367188 L 4.601562 0.875 C 4.199219 0.339844 3.574219 0.0742188 2.90625 0.0273438 C 2.101562 -0.015625 1.34375 0.296875 0.808594 0.832031 C 0.273438 1.367188 -0.0390625 2.125 0.0078125 2.925781 C 0.0507812 3.597656 0.320312 4.21875 0.808594 4.621094 L 7.355469 10.179688 C 6.878906 11.78125 7.28125 13.863281 8.300781 15.414062 C 9.191406 16.796875 9.726562 18.179688 11.109375 22.414062 C 11.109375 22.503906 11.15625 22.546875 11.199219 22.59375 L 12.449219 23.839844 C 12.539062 23.929688 12.625 23.976562 12.761719 23.976562 C 12.851562 23.976562 12.9375 23.929688 13.074219 23.839844 C 14.164062 23.183594 15.167969 22.480469 16.089844 21.761719 C 16.816406 22.394531 17.761719 22.769531 18.734375 22.769531 C 20.964844 22.769531 22.75 20.988281 22.75 18.757812 C 22.75 17.792969 22.382812 16.863281 21.765625 16.140625 C 23.171875 14.363281 23.894531 13.078125 23.953125 12.960938 C 24.042969 12.78125 24 12.558594 23.863281 12.425781 Z M 0.898438 2.882812 C 0.855469 2.347656 1.078125 1.8125 1.433594 1.457031 C 1.789062 1.097656 2.28125 0.921875 2.773438 0.921875 C 2.773438 0.921875 2.816406 0.921875 2.859375 0.921875 C 3.308594 0.964844 3.664062 1.144531 3.929688 1.410156 L 9.257812 7.714844 C 8.589844 8.078125 8.074219 8.613281 7.710938 9.296875 L 1.390625 3.953125 C 1.078125 3.730469 0.898438 3.328125 0.898438 2.882812 Z M 21.859375 18.757812 C 21.859375 20.496094 20.476562 21.878906 18.734375 21.878906 C 18.023438 21.878906 17.355469 21.65625 16.820312 21.210938 C 17.21875 20.871094 17.609375 20.519531 17.996094 20.160156 C 19.265625 19.007812 20.328125 17.867188 21.191406 16.839844 C 21.636719 17.375 21.859375 18.046875 21.859375 18.757812 Z M 20.941406 15.683594 L 20.789062 15.859375 C 19.316406 17.6875 17.664062 19.335938 15.835938 20.808594 L 15.578125 21.035156 C 14.742188 21.695312 13.832031 22.34375 12.851562 22.949219 L 11.914062 22.011719 C 10.53125 17.777344 9.953125 16.351562 9.015625 14.96875 C 8.121094 13.628906 7.765625 11.757812 8.167969 10.464844 C 8.179688 10.421875 8.195312 10.378906 8.207031 10.335938 C 8.25 10.296875 8.28125 10.25 8.300781 10.195312 C 8.5625 9.507812 8.949219 8.988281 9.488281 8.636719 C 9.972656 8.335938 10.570312 8.160156 11.289062 8.101562 C 12.582031 7.964844 13.921875 8.367188 15.125 9.214844 C 16.507812 10.152344 18.246094 10.730469 21.992188 11.933594 L 22.929688 12.871094 C 22.640625 13.347656 21.980469 14.378906 20.941406 15.683594 Z M 20.941406 15.683594"/>
    <path d="M10.710938 4.308594C10.796875 4.488281 10.976562 4.621094 11.15625 4.621094 11.199219 4.621094 11.246094 4.621094 11.246094 4.578125 11.511719 4.53125 11.644531 4.265625 11.554688 4.042969L10.621094 1.011719C10.574219.742188 10.308594.609375 10.085938.699219 9.816406.742188 9.683594 1.011719 9.773438 1.234375zM16.285156 6.183594C16.371094 6.183594 16.460938 6.136719 16.550781 6.050781L19.046875 3.996094C19.226562 3.863281 19.269531 3.550781 19.09375 3.375 18.960938 3.195312 18.648438 3.148438 18.46875 3.328125L15.972656 5.378906C15.792969 5.515625 15.75 5.824219 15.925781 6.003906 16.015625 6.136719 16.148438 6.183594 16.285156 6.183594zM13.5625 5.378906C13.609375 5.378906 13.652344 5.378906 13.695312 5.378906 13.921875 5.378906 14.054688 5.246094 14.144531 5.066406L14.765625 2.925781C14.855469 2.703125 14.722656 2.4375 14.410156 2.390625 14.1875 2.347656 13.964844 2.480469 13.875 2.703125L13.25 4.84375C13.207031 5.066406 13.339844 5.289062 13.5625 5.378906zM6.117188 16.128906C5.894531 15.992188 5.625 16.039062 5.492188 16.261719L3.796875 18.980469C3.664062 19.203125 3.707031 19.472656 3.929688 19.605469 3.976562 19.648438 4.066406 19.648438 4.152344 19.648438 4.332031 19.648438 4.464844 19.5625 4.554688 19.472656L6.25 16.75C6.382812 16.527344 6.339844 16.261719 6.117188 16.128906zM3.617188 12.070312C3.84375 12.070312 4.019531 11.890625 4.066406 11.667969 4.109375 11.445312 3.929688 11.222656 3.707031 11.175781L.496094 10.730469C.273438 10.6875.0507812 10.863281.0078125 11.089844-.0390625 11.3125.140625 11.535156.363281 11.578125L3.53125 12.070312C3.574219 12.070312 3.574219 12.070312 3.617188 12.070312zM5.136719 13.851562C5.046875 13.628906 4.777344 13.539062 4.554688 13.628906L2.546875 14.566406C2.324219 14.65625 2.238281 14.921875 2.324219 15.144531 2.414062 15.324219 2.546875 15.414062 2.726562 15.414062 2.773438 15.414062 2.859375 15.414062 2.90625 15.367188L4.914062 14.433594C5.136719 14.34375 5.222656 14.074219 5.136719 13.851562zM10.933594 14.210938C10.753906 14.03125 10.574219 13.851562 10.21875 13.226562 9.90625 12.46875 9.59375 11.089844 9.996094 10.554688 10.128906 10.375 10.085938 10.0625 9.90625 9.929688 9.726562 9.792969 9.417969 9.839844 9.28125 10.019531 8.480469 11.175781 9.328125 13.316406 9.417969 13.585938L9.417969 13.628906C9.816406 14.34375 10.085938 14.609375 10.308594 14.832031 10.53125 15.011719 10.664062 15.191406 10.976562 15.816406 11.066406 15.992188 11.199219 16.082031 11.378906 16.082031 11.421875 16.082031 11.511719 16.082031 11.554688 16.039062 11.78125 15.949219 11.867188 15.679688 11.78125 15.457031 11.421875 14.699219 11.15625 14.433594 10.933594 14.210938zM10.933594 14.210938"/>
</svg>
