<svg xmlns="http://www.w3.org/2000/svg" width="32" height="32" viewBox="0 0 24 24">
    <path d="M23.664 12.121c-.613-.777-1.883-.531-2.578-.082l-3.559 2.375h-5.441c-.082-.082-.121-.246-.121-.367a.74.74 0 0 1 .203-.492l2.414-.82c.734-.325 1.348-1.348 1.023-2.169a1.231 1.231 0 0 0-.695-.652c-.453-.164-1.023-.164-1.473.04l-3.644 1.23-4.418.406c-.324 0-.855.328-1.063.45l-2.82 1.187c-1.27.574-1.844 2.046-1.27 3.312l1.883 4.582c.04.125.122.207.243.246a.302.302 0 0 0 .164.043c.082 0 .125 0 .164-.043l4.828-2.414h7.281c.043 0 .082 0 .125-.082l4.906-1.637c.043 0 .082 0 .125-.039l3.27-2.453c.41-.289.7-.82.777-1.351.043-.493-.039-.942-.324-1.27zm-.492 1.188c-.04.328-.203.656-.45.82l-3.234 2.41-4.785 1.598H7.22l-4.5 2.25L1 16.215c-.367-.86 0-1.844.86-2.25l2.863-1.227c.039 0 .039 0 .082-.043.164-.12.492-.328.613-.328l4.5-.406H10l3.723-1.23c.164-.04.328-.083.492-.083.12 0 .242 0 .367.043.121.04.203.121.246.204.121.328-.207.94-.574 1.105l-2.453.816c-.043.043-.082.043-.125.082-.367.29-.57.739-.57 1.23.039.45.242.817.613 1.063.039.04.12.082.203.082h5.726c.082 0 .165-.043.165-.082l3.683-2.453c.45-.289 1.266-.41 1.512-.082.164.16.203.406.164.653zm0 0M2.922 8.316h18.816c.246 0 .41-.16.41-.406V3c0-.246-.164-.41-.41-.41H2.922c-.246 0-.41.164-.41.41v4.91c0 .246.164.406.41.406zm4.5-.816V3.41h9.816V7.5zm13.91 0h-1.637V3.41h1.637zm-2.457-4.09V7.5h-.816V3.41zm-12.27 0V7.5h-.82V3.41zm-3.273 0h1.637V7.5H3.332zm0 0"/>
    <path d="M15.195 5.047H9.47c-.246 0-.41.164-.41.406 0 .246.164.41.41.41h5.726c.246 0 .41-.164.41-.41 0-.242-.164-.406-.41-.406zm0 0"/>
</svg>
