<svg xmlns="http://www.w3.org/2000/svg" width="32" height="32" viewBox="0 0 24 24">
    <path d="M6.398 16h11.204c.238 0 .398-.16.398-.398V9.199c0-.238-.16-.398-.398-.398H6.398C6.16 8.8 6 8.96 6 9.199v6.403c0 .238.16.398.398.398zm.403-6.398h10.398v5.597H6.801zm0 0"/>
    <path d="M10 12h4c.238 0 .398-.16.398-.398 0-.243-.16-.403-.398-.403h-4c-.238 0-.398.16-.398.403 0 .238.16.398.398.398zm0 0M15.2 12.8H8.8c-.241 0-.402.16-.402.4 0 .241.16.402.403.402h6.398c.242 0 .403-.16.403-.403 0-.238-.16-.398-.403-.398zm0 0"/>
    <path d="M20.8 0h-16c-1.12 0-2 .879-2 2v20c0 1.121.88 2 2 2h16c.24 0 .4-.16.4-.398V.398C21.2.16 21.04 0 20.8 0zM9.603.8v4l-.961-.722C8.559 4.04 8.48 4 8.398 4a.57.57 0 0 0-.238.078l-.96.723v-4zM4.8.8h1.597v4.802c0 .16.082.277.243.359.12.078.28.039.398-.04l1.36-1 1.363 1A.57.57 0 0 0 10 6c.078 0 .121 0 .16-.04.16-.081.238-.198.238-.358V.8h10V20H4.801c-.031 0-.059 0-.086.004a1.972 1.972 0 0 0-1.113.387V2c0-.68.52-1.2 1.199-1.2zm15.597 22.4H4.801c-.68 0-1.2-.52-1.2-1.2 0-.68.52-1.2 1.2-1.2h15.597zm0 0"/>
    <path d="M5.2 22.398h13.6c.24 0 .4-.16.4-.398 0-.238-.16-.398-.4-.398H5.2c-.24 0-.4.16-.4.398 0 .238.16.398.4.398zm0 0"/>
</svg>
