<svg xmlns="http://www.w3.org/2000/svg" width="32" height="32" viewBox="0 0 24 24">
    <path d="M 14.441406 8.542969 C 14.683594 8.542969 14.847656 8.378906 14.847656 8.136719 L 14.847656 4.882812 C 14.847656 4.636719 14.683594 4.472656 14.441406 4.472656 L 9.558594 4.472656 C 9.316406 4.472656 9.152344 4.636719 9.152344 4.882812 L 9.152344 8.136719 C 9.152344 8.378906 9.316406 8.542969 9.558594 8.542969 Z M 9.964844 5.289062 L 14.035156 5.289062 L 14.035156 7.730469 L 9.964844 7.730469 Z M 9.964844 5.289062"/>
    <path d="M 12.8125 6.101562 L 11.1875 6.101562 C 10.941406 6.101562 10.78125 6.265625 10.78125 6.507812 C 10.78125 6.753906 10.941406 6.914062 11.1875 6.914062 L 12.8125 6.914062 C 13.058594 6.914062 13.21875 6.753906 13.21875 6.507812 C 13.21875 6.265625 13.058594 6.101562 12.8125 6.101562 Z M 12.8125 6.101562"/>
    <path d="M 21.761719 23.1875 L 20.136719 23.1875 L 20.136719 21.964844 C 20.136719 21.722656 19.972656 21.558594 19.730469 21.558594 L 17.25 21.558594 C 17.066406 20.621094 16.253906 19.933594 15.253906 19.933594 L 14.394531 19.933594 L 13.664062 17.492188 C 14.335938 17.472656 14.847656 16.949219 14.847656 16.269531 C 14.847656 15.578125 14.320312 15.050781 13.628906 15.050781 L 13.585938 15.050781 L 14.390625 12.449219 C 16.113281 11.582031 17.289062 9.796875 17.289062 7.730469 L 17.289062 4.230469 C 17.289062 3.660156 17.449219 3.132812 17.777344 2.683594 L 18.304688 1.910156 C 18.550781 1.546875 18.589844 1.058594 18.386719 0.652344 C 18.183594 0.242188 17.734375 0 17.289062 0 L 6.671875 0 C 6.222656 0 5.816406 0.242188 5.574219 0.652344 C 5.371094 1.097656 5.410156 1.585938 5.695312 1.953125 L 6.222656 2.726562 C 6.550781 3.171875 6.710938 3.703125 6.710938 4.230469 L 6.710938 7.730469 C 6.710938 9.796875 7.886719 11.582031 9.609375 12.449219 L 10.414062 15.050781 L 10.371094 15.050781 C 9.679688 15.050781 9.152344 15.578125 9.152344 16.269531 C 9.152344 16.960938 9.679688 17.492188 10.371094 17.492188 L 10.375 17.492188 L 9.644531 19.933594 L 8.746094 19.933594 C 7.746094 19.933594 6.933594 20.621094 6.75 21.558594 L 4.269531 21.558594 C 4.027344 21.558594 3.863281 21.722656 3.863281 21.964844 L 3.863281 23.1875 L 2.238281 23.1875 C 1.992188 23.1875 1.832031 23.347656 1.832031 23.59375 C 1.832031 23.835938 1.992188 24 2.238281 24 L 21.761719 24 C 22.007812 24 22.167969 23.835938 22.167969 23.59375 C 22.167969 23.347656 22.007812 23.1875 21.761719 23.1875 Z M 7.527344 7.730469 L 7.527344 4.269531 C 7.527344 3.539062 7.28125 2.847656 6.875 2.277344 L 6.347656 1.503906 C 6.222656 1.34375 6.222656 1.179688 6.304688 1.058594 C 6.386719 0.894531 6.507812 0.8125 6.671875 0.8125 L 17.328125 0.8125 C 17.492188 0.8125 17.613281 0.894531 17.695312 1.015625 C 17.777344 1.179688 17.734375 1.34375 17.652344 1.464844 L 17.125 2.238281 C 16.679688 2.808594 16.472656 3.5 16.472656 4.230469 L 16.472656 7.730469 C 16.472656 9.527344 15.429688 11.066406 13.910156 11.78125 C 13.898438 11.785156 13.882812 11.789062 13.871094 11.796875 C 12.652344 12.324219 11.308594 12.324219 10.128906 11.796875 C 10.128906 11.796875 10.125 11.796875 10.125 11.796875 C 8.585938 11.089844 7.527344 9.539062 7.527344 7.730469 Z M 10.578125 12.824219 C 11.03125 12.949219 11.507812 13.015625 12 13.015625 C 12.476562 13.015625 12.9375 12.953125 13.375 12.835938 L 12.691406 15.050781 L 11.269531 15.050781 Z M 9.964844 16.269531 C 9.964844 16.027344 10.128906 15.863281 10.371094 15.863281 L 13.628906 15.863281 C 13.871094 15.863281 14.035156 16.027344 14.035156 16.269531 C 14.035156 16.515625 13.871094 16.679688 13.628906 16.679688 L 10.371094 16.679688 C 10.128906 16.679688 9.964844 16.515625 9.964844 16.269531 Z M 11.1875 17.492188 L 12.730469 17.492188 L 13.464844 19.933594 L 10.496094 19.933594 Z M 8.746094 20.746094 L 15.296875 20.746094 C 15.824219 20.746094 16.269531 21.070312 16.433594 21.558594 L 7.605469 21.558594 C 7.769531 21.070312 8.21875 20.746094 8.746094 20.746094 Z M 4.679688 23.1875 L 4.679688 22.371094 L 19.320312 22.371094 L 19.320312 23.1875 Z M 4.679688 23.1875"/>
</svg>
