<svg xmlns="http://www.w3.org/2000/svg" width="32" height="32" viewBox="0 0 24 24">
    <path d="M24 3.43C24 2.04 22.906.96 21.43.863V.855H7.285a2.58 2.58 0 0 0-2.57 2.575v13.715H0v3.425c0 1.414 1.027 2.446 2.57 2.575h13.715c1.672 0 3-1.332 3-3V7.715H24zM.855 20.57V18h12.86v2.57c0 .68.238 1.27.656 1.715H2.613C1.586 22.2.855 21.515.855 20.57zm12-5.14c0-1.2.946-2.145 2.145-2.145 1.2 0 2.145.945 2.145 2.145 0 .59-.23 1.117-.606 1.504a.346.346 0 0 0-.125.082 2.125 2.125 0 0 1-1.844.504v-.375h-.855c-.559-.387-.86-1.032-.86-1.715zm1.715 2.972a3.134 3.134 0 0 0 1.715-.257v1.57l-1.027-.774c-.086-.043-.172-.086-.258-.086-.086 0-.172.043-.258.086l-.172.13zm3.86 1.743c0 1.199-.946 2.14-2.102 2.14-1.027-.086-1.758-.77-1.758-1.715v-.422l.43-.304 1.457 1.07c.086.043.172.086.258.086.086 0 .129 0 .172-.043.172-.086.258-.215.258-.387v-3.03c.53-.54.855-1.286.855-2.11 0-1.672-1.328-3-3-3s-3 1.328-3 3c0 .613.184 1.215.531 1.715h-6.96V3.43a1.72 1.72 0 0 1 1.714-1.715H19.11a2.393 2.393 0 0 0-.676 1.566v.012c-.003.047-.003.09-.003.137zm4.715-13.29h-3.86V3.43c0-.035 0-.07.004-.102v-.02c.004-.027.004-.054.008-.081 0-.004 0-.012.004-.016a.48.48 0 0 1 .008-.078c.003-.008.003-.012.003-.016.004-.027.012-.054.016-.078.004-.008.004-.012.004-.016.008-.023.012-.05.02-.074l.007-.02c.008-.019.012-.042.02-.066l.012-.023c.007-.02.011-.04.023-.059l.012-.031c.008-.016.015-.027.02-.043.007-.016.015-.031.023-.043.004-.012.011-.02.015-.027l.036-.059c0-.004 0-.004.003-.008.262-.418.707-.68 1.18-.797.168-.039.34-.058.512-.058.941 0 1.93.597 1.93 1.715zm0 0"/>
    <path d="M7.715 6H12c.258 0 .43-.172.43-.43s-.172-.425-.43-.425H7.715c-.258 0-.43.168-.43.425 0 .258.172.43.43.43zm0 0M16.285 7.285h-8.57c-.258 0-.43.172-.43.43s.172.43.43.43h8.57c.258 0 .43-.172.43-.43s-.172-.43-.43-.43zm0 0M15 9.43H7.715c-.258 0-.43.172-.43.425 0 .258.172.43.43.43H15c.258 0 .43-.172.43-.43 0-.253-.172-.425-.43-.425zm0 0M12.43 11.57H7.715c-.258 0-.43.172-.43.43s.172.43.43.43h4.715c.258 0 .425-.172.425-.43s-.168-.43-.425-.43zm0 0M10.715 13.715h-3c-.258 0-.43.172-.43.43 0 .253.172.425.43.425h3c.258 0 .43-.172.43-.425 0-.258-.172-.43-.43-.43zm0 0"/>
</svg>
