<svg xmlns="http://www.w3.org/2000/svg" width="32" height="32" viewBox="0 0 24 24">
    <path d="M 21.601562 6.320312 L 15.25 6.320312 C 14.523438 5.582031 13.511719 5.121094 12.398438 5.121094 C 11.289062 5.121094 10.277344 5.582031 9.550781 6.320312 L 2 6.320312 C 0.71875 6.320312 0 7.640625 0 9.921875 C 0 12.320312 1.480469 14.320312 3.199219 14.320312 L 9.601562 14.320312 L 9.601562 18.878906 L 12.398438 16.078125 L 15.199219 18.878906 L 15.199219 14.320312 L 21.601562 14.320312 C 21.839844 14.320312 21.960938 14.160156 21.960938 13.921875 C 21.960938 13.679688 21.800781 13.519531 21.558594 13.519531 C 20.792969 13.519531 20.023438 12.878906 19.574219 11.921875 L 22.71875 11.921875 C 23.398438 11.921875 23.960938 11.398438 24 10.761719 C 24 10.601562 24 10.480469 24 10.320312 C 24 8.078125 22.960938 6.320312 21.601562 6.320312 Z M 12.398438 5.921875 C 14.105469 5.921875 15.507812 7.269531 15.59375 8.953125 C 15.59375 8.953125 15.597656 8.957031 15.597656 8.957031 C 15.597656 9.011719 15.601562 9.066406 15.601562 9.121094 C 15.601562 9.171875 15.597656 9.222656 15.597656 9.269531 C 15.59375 9.300781 15.59375 9.328125 15.589844 9.355469 C 15.589844 9.375 15.585938 9.394531 15.585938 9.414062 C 15.582031 9.453125 15.578125 9.492188 15.574219 9.53125 C 15.570312 9.539062 15.570312 9.546875 15.570312 9.550781 C 15.519531 9.914062 15.40625 10.265625 15.238281 10.59375 C 15.226562 10.609375 15.222656 10.625 15.210938 10.640625 C 15.210938 10.640625 15.210938 10.644531 15.210938 10.644531 C 15.105469 10.835938 14.984375 11.011719 14.847656 11.175781 C 14.816406 11.191406 14.785156 11.214844 14.761719 11.238281 C 14.679688 11.320312 14.558594 11.441406 14.519531 11.480469 C 13.960938 12 13.160156 12.28125 12.398438 12.28125 C 11.640625 12.28125 10.878906 12 10.28125 11.480469 L 10.011719 11.242188 C 9.542969 10.714844 9.242188 10.035156 9.203125 9.289062 C 9.203125 9.285156 9.203125 9.285156 9.203125 9.28125 C 9.203125 9.230469 9.199219 9.175781 9.199219 9.121094 C 9.199219 9.066406 9.203125 9.011719 9.203125 8.957031 C 9.203125 8.957031 9.203125 8.953125 9.203125 8.953125 C 9.292969 7.269531 10.695312 5.921875 12.398438 5.921875 Z M 8.582031 7.929688 C 8.582031 7.929688 8.582031 7.933594 8.578125 7.9375 C 8.566406 7.988281 8.550781 8.035156 8.539062 8.085938 C 8.527344 8.117188 8.519531 8.152344 8.511719 8.1875 C 8.507812 8.199219 8.507812 8.210938 8.503906 8.21875 C 8.488281 8.296875 8.472656 8.371094 8.457031 8.449219 C 8.457031 8.453125 8.457031 8.457031 8.457031 8.460938 C 8.449219 8.496094 8.445312 8.535156 8.4375 8.570312 C 8.4375 8.59375 8.433594 8.617188 8.429688 8.636719 C 8.425781 8.679688 8.421875 8.71875 8.417969 8.757812 C 8.414062 8.800781 8.410156 8.84375 8.40625 8.886719 C 8.40625 8.90625 8.40625 8.925781 8.40625 8.941406 C 8.402344 9 8.398438 9.0625 8.398438 9.121094 C 8.398438 9.839844 8.558594 10.519531 8.921875 11.121094 L 3.855469 11.121094 C 4.011719 10.730469 4.066406 10.246094 4.054688 9.773438 C 4.054688 9.765625 4.054688 9.753906 4.054688 9.746094 C 4.050781 9.515625 4.03125 9.289062 4 9.078125 C 3.945312 8.6875 3.867188 8.175781 3.6875 7.699219 C 3.617188 7.496094 3.527344 7.296875 3.417969 7.121094 L 8.921875 7.121094 C 8.785156 7.375 8.667969 7.644531 8.582031 7.929688 Z M 3.199219 13.519531 C 2.078125 13.519531 0.800781 12 0.800781 9.921875 C 0.800781 9.28125 0.878906 7.121094 2 7.121094 C 2.761719 7.121094 3 7.878906 3.199219 9.199219 C 3.199219 9.320312 3.238281 9.480469 3.238281 9.601562 C 3.238281 9.878906 3.238281 10.121094 3.199219 10.359375 C 3.160156 10.679688 3.078125 10.921875 2.960938 11.039062 C 2.9375 11.0625 2.929688 11.082031 2.917969 11.097656 C 2.871094 11.121094 2.824219 11.121094 2.800781 11.121094 C 2.519531 11.121094 2.398438 10.519531 2.398438 9.921875 C 2.398438 9.679688 2.238281 9.519531 2 9.519531 C 1.761719 9.519531 1.601562 9.679688 1.601562 9.921875 C 1.601562 11.679688 2.359375 11.921875 2.800781 11.921875 L 9.550781 11.921875 C 9.566406 11.9375 9.582031 11.953125 9.601562 11.96875 L 9.601562 13.519531 Z M 14.398438 16.960938 L 12.398438 14.960938 L 10.398438 16.960938 L 10.398438 12.601562 C 11.601562 13.320312 13.199219 13.320312 14.398438 12.601562 Z M 19.800781 13.519531 L 15.199219 13.519531 L 15.199219 11.96875 C 15.214844 11.953125 15.234375 11.9375 15.25 11.921875 L 18.761719 11.921875 C 19 12.558594 19.359375 13.121094 19.800781 13.519531 Z M 23.199219 10.71875 C 23.199219 10.921875 23 11.121094 22.761719 11.121094 L 15.878906 11.121094 C 16.015625 10.863281 16.128906 10.59375 16.21875 10.3125 C 16.21875 10.308594 16.21875 10.304688 16.21875 10.300781 C 16.234375 10.253906 16.25 10.203125 16.261719 10.15625 C 16.273438 10.121094 16.28125 10.085938 16.289062 10.050781 C 16.292969 10.039062 16.292969 10.03125 16.296875 10.019531 C 16.3125 9.945312 16.328125 9.867188 16.34375 9.789062 C 16.34375 9.785156 16.34375 9.785156 16.34375 9.78125 C 16.351562 9.742188 16.355469 9.707031 16.359375 9.667969 C 16.363281 9.648438 16.367188 9.625 16.371094 9.601562 C 16.375 9.5625 16.378906 9.523438 16.382812 9.480469 C 16.386719 9.441406 16.390625 9.398438 16.390625 9.355469 C 16.394531 9.335938 16.394531 9.316406 16.394531 9.296875 C 16.398438 9.238281 16.398438 9.179688 16.398438 9.121094 C 16.398438 9.0625 16.398438 9 16.394531 8.941406 C 16.394531 8.925781 16.394531 8.90625 16.390625 8.886719 C 16.390625 8.84375 16.386719 8.800781 16.382812 8.757812 C 16.378906 8.71875 16.375 8.679688 16.371094 8.636719 C 16.367188 8.617188 16.363281 8.59375 16.359375 8.570312 C 16.355469 8.535156 16.351562 8.496094 16.34375 8.460938 C 16.34375 8.457031 16.34375 8.453125 16.34375 8.449219 C 16.328125 8.371094 16.3125 8.296875 16.296875 8.21875 C 16.292969 8.210938 16.292969 8.199219 16.289062 8.1875 C 16.28125 8.152344 16.273438 8.121094 16.261719 8.085938 C 16.25 8.035156 16.234375 7.988281 16.21875 7.9375 C 16.21875 7.933594 16.21875 7.929688 16.21875 7.929688 C 16.128906 7.644531 16.015625 7.375 15.878906 7.121094 L 21.601562 7.121094 C 22.359375 7.121094 23.199219 8.441406 23.199219 10.320312 C 23.199219 10.480469 23.199219 10.601562 23.199219 10.71875 Z M 23.199219 10.71875"/>
    <path d="M 12.398438 11.519531 C 13.71875 11.519531 14.800781 10.441406 14.800781 9.121094 C 14.800781 7.800781 13.71875 6.71875 12.398438 6.71875 C 11.078125 6.71875 10 7.800781 10 9.121094 C 10 10.441406 11.078125 11.519531 12.398438 11.519531 Z M 12.398438 7.519531 C 13.28125 7.519531 14 8.238281 14 9.121094 C 14 10 13.28125 10.71875 12.398438 10.71875 C 11.519531 10.71875 10.800781 10 10.800781 9.121094 C 10.800781 8.238281 11.519531 7.519531 12.398438 7.519531 Z M 12.398438 7.519531"/>
</svg>
