<svg xmlns="http://www.w3.org/2000/svg" width="32" height="32" viewBox="0 0 24 24">
    <path d="M21.867 12.64l-5.402-5.402a4.197 4.197 0 0 0-.04-.625V4.398A4.385 4.385 0 0 0 12.028 0 4.385 4.385 0 0 0 7.63 4.398V6.18c-.086.36-.125.73-.121 1.097L2.105 12.68c-.078.082-.117.242-.078.398.04.16.16.242.32.281l3.04.442.441 3.039c.04.16.117.281.277.32.043.04.082.04.122.04.082 0 .199-.04.28-.122l1.079-1.062v3.586A4.389 4.389 0 0 0 11.988 24c.075 0 .153 0 .227-.004 2.332-.117 4.176-2.031 4.254-4.394v-3.48l.957.956c.082.082.16.121.281.121.04 0 .078 0 .16-.078.16-.043.238-.16.281-.32l.438-3.04 3.043-.44c.156-.04.277-.122.316-.282.082-.117.043-.277-.078-.398zM15.63 7.72A3.749 3.749 0 0 1 14.586 9.8a2.78 2.78 0 0 1-.25.226 3.6 3.6 0 0 1-1.64.793c-.11.02-.223.04-.337.047a1.27 1.27 0 0 1-.171.012h-.403c-.918-.078-1.758-.438-2.398-1.078-.52-.48-.84-1.121-1-1.84h.039V6.312c.16-.613.48-1.19.96-1.671a3.705 3.705 0 0 1 2.602-1.082 3.703 3.703 0 0 1 3.64 3.14zm-7.203-3.32c0-2 1.601-3.598 3.601-3.598s3.602 1.597 3.602 3.597v.207a5.05 5.05 0 0 0-.48-.566 4.447 4.447 0 0 0-6.32 0c-.15.149-.282.3-.403.461zM6.508 15.96l-.36-2.563a.427.427 0 0 0-.363-.359l-2.558-.36 4.43-4.347c.034.129.073.262.12.387.137.41.348.808.61 1.164.004.008.008.012.011.02.024.03.047.058.07.09.012.019.028.034.044.054l.047.058.054.067c.02.02.035.039.055.058.016.02.031.04.05.055a4.42 4.42 0 0 0 2.188 1.273l-3.32 3.32zm5.48 7.238c-2 0-3.601-1.597-3.601-3.597S9.988 16 11.988 16c1.153 0 2.168.531 2.825 1.363.003.012.007.024.015.035.36.762.438 1.641.16 2.442-.281.8-.84 1.48-1.601 1.84a2.498 2.498 0 0 1-3.32-1.121 1.807 1.807 0 0 1-.122-1.438c.16-.48.524-.84.961-1.082a1.416 1.416 0 0 1 1.922.64c.238.52.04 1.16-.48 1.442-.403.16-.84.04-1.04-.36-.081-.16-.32-.241-.523-.16-.156.079-.238.32-.156.52.398.8 1.36 1.117 2.117.719a1.91 1.91 0 0 0 .84-2.52 2.214 2.214 0 0 0-3-1c-.64.32-1.117.88-1.36 1.559-.199.68-.16 1.402.16 2.043a3.284 3.284 0 0 0 2.923 1.797c.476 0 1-.117 1.398-.32a3.965 3.965 0 0 0 1.668-1.567 3.584 3.584 0 0 1-3.387 2.367zm3.598-6.137a4.38 4.38 0 0 0-3.598-1.863 4.387 4.387 0 0 0-3.601 1.864v-1.836l3.597-3.547h.044l3.558 3.558zm2.52-3.984c-.16 0-.278.16-.32.32l-.36 2.563-.957-.961v-.078l-3.364-3.363c.762-.16 1.524-.598 2.082-1.16a4.334 4.334 0 0 0 1.145-2.012l4.336 4.332zm0 0"/>
</svg>
