<svg xmlns="http://www.w3.org/2000/svg" width="32" height="32" viewBox="0 0 24 24">
    <path d="M8.8 16a5.19 5.19 0 0 0-5.198 5.2c0 .238.16.398.398.398h9.602c.238 0 .398-.16.398-.399A5.19 5.19 0 0 0 8.8 16zm-4.398 4.8c.239-2.241 2.078-4 4.399-4 2.32 0 4.199 1.759 4.398 4zm0 0"/>
    <path d="M17.2 20.8h-.798a7.57 7.57 0 0 0-2.613-5.327c-.008-.012-.02-.024-.027-.032-.028-.03-.059-.05-.09-.07a7.586 7.586 0 0 0-4.871-1.77c-4.078 0-7.399 3.2-7.598 7.2h-.8c-.243 0-.403.16-.403.398v2.399c0 .242.16.402.402.402H17.2c.242 0 .403-.16.403-.402v-2.399c0-.238-.16-.398-.403-.398zm-.4 2.4h-1.198v-.4c0-.241-.16-.402-.403-.402-.238 0-.398.16-.398.403v.398h-2.399v-.398c0-.242-.16-.403-.402-.403-.238 0-.398.16-.398.403v.398H9.199v-.398c0-.242-.156-.403-.398-.403-.239 0-.399.16-.399.403v.398H6v-.398c0-.242-.16-.403-.398-.403-.239 0-.399.16-.399.403v.398H2.801v-.398c0-.242-.16-.403-.399-.403-.242 0-.402.16-.402.403v.398H.8v-1.601h.802c.238 0 .398-.16.398-.399 0-1.941.813-3.691 2.113-4.93l.41.41a.36.36 0 0 0 .278.122c.12 0 .199-.043.281-.121a.385.385 0 0 0 0-.559l-.363-.363a6.805 6.805 0 0 1 3.683-1.348v.39c0 .24.16.4.399.4.242 0 .398-.16.398-.4v-.39a6.794 6.794 0 0 1 3.684 1.348l-.363.363a.385.385 0 0 0 0 .559c.082.078.16.12.28.12.122 0 .2-.042.282-.12l.406-.41a6.786 6.786 0 0 1 2.114 4.93c0 .238.16.398.398.398h.8zm0 0M23.602 0H18.8c-.242 0-.403.16-.403.402v23.196c0 .242.16.402.403.402h4.8c.239 0 .399-.16.399-.402V.402C24 .16 23.84 0 23.602 0zm-.403 23.2h-4v-.802h2c.242 0 .403-.16.403-.398 0-.242-.16-.402-.403-.402h-2v-1.2h1.2c.242 0 .402-.16.402-.398 0-.242-.16-.402-.403-.402H19.2v-1.2h2c.242 0 .403-.16.403-.398 0-.242-.16-.398-.403-.398h-2v-1.204h1.2c.242 0 .402-.16.402-.398 0-.238-.16-.398-.403-.398H19.2v-1.204h2c.242 0 .403-.16.403-.398 0-.238-.16-.398-.403-.398h-2v-1.204h1.2c.242 0 .402-.16.402-.398 0-.238-.16-.398-.403-.398H19.2v-1.204h2c.242 0 .403-.156.403-.398 0-.238-.16-.398-.403-.398h-2v-1.2h1.2c.242 0 .402-.16.402-.402 0-.238-.16-.398-.403-.398H19.2v-1.2h2c.242 0 .403-.16.403-.402 0-.238-.16-.398-.403-.398h-2v-1.2h1.2c.242 0 .402-.16.402-.402 0-.238-.16-.398-.403-.398H19.2V.8h4zm0 0M.402 16c.078 0 .16 0 .2-.04L7.52 11.88a.391.391 0 0 0 .156-.152l6.261-6.34a.46.46 0 0 0 .184-.106l1.36-1.402c.68-.68.68-1.879 0-2.559l-.801-.8C14-.16 12.8-.16 12.12.52l-1.398 1.359-6.414 6.453a.353.353 0 0 0-.141.133.35.35 0 0 0-.09.156L.043 15.398a.42.42 0 0 0 .078.48c.082.083.16.122.281.122zm4.262-6.809a3.905 3.905 0 0 1 1.434 1.047c.004.004.004.008.007.008.036.04.067.082.102.125.008.012.02.027.031.04.024.03.047.062.07.093a.868.868 0 0 0 .047.062c.016.028.036.055.051.082.02.024.035.051.051.075.016.023.031.05.047.074.016.027.035.055.05.086.028.05.06.105.087.156l.152.324-2.625 1.551-1.055-1.113zm-3.101 5.25l1.16-1.96.797.8zM7.44 10.84l-.082-.16a4.65 4.65 0 0 0-2.148-2.13l5.672-5.71c.558 1 1.316 1.762 2.277 2.281zm5.239-9.758c.402-.36 1.082-.36 1.441 0l.8.797c.36.402.36 1.082 0 1.441L13.743 4.5a4.829 4.829 0 0 1-2.254-2.227zm0 0"/>
    <path d="M21.602 3.2a.8.8 0 0 0 .796-.798c0-.441-.359-.8-.796-.8-.442 0-.801.359-.801.8 0 .438.36.797.8.797zm0 0"/>
</svg>
