<svg xmlns="http://www.w3.org/2000/svg" width="32" height="32" viewBox="0 0 24 24">
    <path d="M24 9.64c0-.12-.04-.199-.121-.28l-2.84-2.84a.358.358 0 0 0-.238-.118v-3.18a.376.376 0 0 0-.121-.3l-2.801-2.8-.024-.024A.376.376 0 0 0 17.578 0H5.2c-.238 0-.398.16-.398.402v23.2c0 .238.16.398.398.398h15.2c.242 0 .402-.16.402-.398v-10.61l3.078-3.07A.361.361 0 0 0 24 9.64zM9.2 14.8V9.2h6.402v2.202L14.14 12.88l-.54.539v-.617c0-.239-.16-.399-.402-.399h-2c-.238 0-.398.16-.398.399v2zm0-8.398V4.801h.8v.879zm6.8 2H8.559l3.84-3.84 3.84 3.84zM11.602 13.2H12.8v1l-.313.336-.265.266h-.621zm7.84-10.398H18V1.363zM5.601.8h11.597v2.402c0 .238.16.399.403.399H20V7l-3.602 3.613V9.2h.801c.16 0 .32-.078.36-.238.082-.16.043-.32-.079-.441l-4.8-4.797a.385.385 0 0 0-.559 0l-1.32 1.32v-.64c0-.243-.16-.403-.403-.403H8.801c-.242 0-.403.16-.403.402V7.2c0 .074.016.14.047.2L7.32 8.518c-.12.122-.16.282-.078.442.04.16.2.238.36.238h.796v6c0 .242.16.403.403.403h2.625l-2.153 2.16a.368.368 0 0 0-.113.078.439.439 0 0 0-.082.113l-1.2 1.203a.35.35 0 0 0-.116.086.328.328 0 0 0-.086.121L6.52 20.52a.39.39 0 0 0 0 .562l2.12 2.117H5.603zM20 13.8v9.398h-9.438l1.407-1.402zM9.602 23.039l-2.243-2.238.7-.703.82.824c.082.078.16.117.281.117.121 0 .2 0 .281-.117a.39.39 0 0 0 0-.563l-.824-.82.844-.844 1.418 1.387c.082.078.16.117.281.117.078 0 .2-.039.238-.117a.39.39 0 0 0 0-.562l-1.382-1.383.859-.864.844.848c.082.078.16.121.281.121.121 0 .2-.043.281-.12a.39.39 0 0 0 0-.563l-.847-.844.859-.863 1.426 1.43c.082.077.16.116.281.116.078 0 .2-.039.238-.156a.39.39 0 0 0 0-.562L12.86 15.3l.86-.859.84.84c.082.078.16.121.28.121.079 0 .2-.043.282-.12a.39.39 0 0 0 0-.563l-.84-.84.84-.84 1.399 1.402c.078.079.16.118.28.118.118 0 .2-.04.278-.118a.39.39 0 0 0 0-.562L15.68 12.48l.601-.601a.41.41 0 0 0 .078-.106l.188-.187.851.855c.082.079.16.121.282.121.078 0 .199-.042.28-.12a.39.39 0 0 0 0-.563l-.855-.852.84-.843 1.414 1.418c.078.078.16.12.282.12.117 0 .199-.042.277-.12a.39.39 0 0 0 0-.563l-1.414-1.414.836-.844.86.86c.077.082.16.12.28.12.118 0 .2-.038.278-.12a.385.385 0 0 0 0-.559l-.856-.86.856-.863 2.281 2.282zm0 0M1.602 0C.722 0 0 .723 0 1.602v18.796a.3.3 0 0 0 .04.16l1.202 3.204c.04.117.2.238.36.238.16 0 .32-.121.359-.238l1.2-3.203c.038-.079.038-.118.038-.16V1.601C3.2.722 2.48 0 1.602 0zM.8 4.402h1.601v14.399H.801zm0-1.601h1.601v.8H.801zm.8-2c.438 0 .801.36.801.8V2H.801v-.398C.8 1.16 1.16.8 1.6.8zm.801 19.52l-.8 2.12-.801-2.12v-.72h1.601zm0 0"/>
</svg>
