<svg xmlns="http://www.w3.org/2000/svg" width="32" height="32" viewBox="0 0 24 24">
    <path d="M18.96 13.418c-.245 0-.41.164-.41.406 0 .246.165.406.41.406.243 0 .407-.16.407-.406a.408.408 0 0 0-.406-.406zm0 0"/>
    <path d="M18.715 11.871L12.867 5.79c.297-.535.43-1.133.406-1.726l.559-.493c.855-.773.895-2.035.164-2.89-.773-.856-2.035-.895-2.89-.164l-.524.46a4.048 4.048 0 0 0-.371-.054 3.298 3.298 0 0 0-2.363.816l-1.383 1.18a.432.432 0 0 0-.04.57l.833 1.02-.387.363a1.75 1.75 0 0 0-.527 1.14c-.043.446.12.856.406 1.18.324.325.773.528 1.223.528.406 0 .77-.121 1.097-.407l.282-.246.734.899c.082.082.203.164.328.164a.373.373 0 0 0 .285-.125l.52-.477 5.707 6.055v.242c0 .082.039.203.039.285l-6.633 6.633h-1.14a2.832 2.832 0 0 0-2.848 2.852c0 .242.16.406.406.406h11.395c.246 0 .406-.164.406-.406a2.832 2.832 0 0 0-2.848-2.852h-1.906l4.836-4.8h.246c1.14 0 2.035-.895 2.035-2.036 0-1.18-.977-2.156-2.2-2.035zM11.633 1.125a1.222 1.222 0 0 1 1.71.082 1.222 1.222 0 0 1-.081 1.711l-.164.164a4.131 4.131 0 0 0-.246-.492 3.32 3.32 0 0 0-.403-.567 3.044 3.044 0 0 0-.59-.52 3.697 3.697 0 0 0-.379-.222zM8.5 6.703c-.324.285-.855.242-1.14-.082-.16-.164-.204-.367-.204-.57 0-.203.121-.406.285-.57l.325-.325.91 1.082.148.18zm1.953.406l-.726-.89c-.004 0-.004-.004-.004-.004l-.07-.082L7.32 3.285l1.098-.937a2.304 2.304 0 0 1 1.75-.61c.102.004.203.02.3.035.032.02.067.036.106.047.207.032.406.106.594.203a2.456 2.456 0 0 1 .938 3.426.426.426 0 0 0-.106.114c-.04.082-.121.12-.203.246a.856.856 0 0 1-.168.203zM17.7 23.187H7.2a2.044 2.044 0 0 1 1.992-1.628h6.512c.977 0 1.793.691 1.996 1.628zm1.262-8.14c-.082 0-.164 0-.285-.043-.125 0-.285.043-.367.125l-5.657 5.613h-1.18l6.184-6.183c.125-.121.164-.286.125-.407-.043-.125-.043-.246-.043-.328 0-.082 0-.16.043-.285a.386.386 0 0 0-.082-.363l-5.855-6.223.36-.332c.077-.07.148-.144.218-.219.008-.007.015-.015.027-.023l5.899 6.144c.082.122.246.16.367.122.082-.04.164-.04.246-.04.691 0 1.219.528 1.219 1.22a1.2 1.2 0 0 1-1.22 1.222zm0 0M5.527 6.5c0-.246-.16-.406-.406-.406H3.492c-.242 0-.406.16-.406.406 0 .242.164.406.406.406h1.63c.245 0 .405-.164.405-.406zm0 0M5.242 7.844l-.812.812a.392.392 0 0 0 0 .57.37.37 0 0 0 .285.122A.37.37 0 0 0 5 9.227l.813-.817a.387.387 0 0 0 0-.566.392.392 0 0 0-.57 0zm0 0"/>
    <path d="M7.563 10.977c.246 0 .41-.165.41-.407V8.941c0-.246-.164-.406-.41-.406-.243 0-.407.16-.407.406v1.63c0 .242.164.406.407.406zm0 0"/>
</svg>
