<svg xmlns="http://www.w3.org/2000/svg" width="32" height="32" viewBox="0 0 24 24">
    <path d="M 19.863281 9.515625 C 19.824219 9.515625 19.824219 9.515625 19.78125 9.515625 L 16.886719 5.542969 C 16.925781 5.378906 16.96875 5.171875 16.96875 4.964844 C 16.96875 3.808594 16.058594 2.898438 14.898438 2.898438 C 14.238281 2.898438 13.617188 3.226562 13.242188 3.722656 L 11.140625 3.722656 C 10.964844 2.6875 10.140625 1.867188 9.105469 1.691406 L 9.105469 0.414062 C 9.105469 0.164062 8.941406 0 8.691406 0 C 8.445312 0 8.277344 0.164062 8.277344 0.414062 L 8.277344 1.691406 C 7.242188 1.867188 6.421875 2.6875 6.246094 3.722656 L 2.898438 3.722656 C 2.691406 3.722656 2.484375 3.929688 2.484375 4.136719 L 2.484375 5.792969 C 2.484375 5.917969 2.527344 6.042969 2.609375 6.125 C 2.691406 6.207031 2.773438 6.25 2.898438 6.25 L 3.3125 6.25 L 3.3125 9.441406 L 2.195312 11.917969 C 1.988281 12.371094 2.03125 12.910156 2.320312 13.367188 C 2.609375 13.820312 3.066406 14.070312 3.601562 14.070312 L 3.890625 14.070312 C 4.390625 14.070312 4.886719 13.820312 5.132812 13.40625 C 5.421875 12.953125 5.464844 12.414062 5.257812 11.957031 L 4.140625 9.445312 L 4.140625 6.25 L 5.382812 6.25 L 5.382812 6.621094 C 5.382812 7.324219 5.917969 7.863281 6.625 7.863281 L 10.761719 7.863281 C 11.464844 7.863281 12.003906 7.324219 12.003906 6.621094 L 12.003906 6.25 L 13.285156 6.25 C 13.699219 6.828125 14.445312 7.160156 15.1875 7.035156 L 17.917969 10.925781 C 17.835938 11.132812 17.796875 11.339844 17.796875 11.585938 C 17.796875 11.792969 17.835938 12 17.917969 12.207031 L 10.773438 21.515625 L 9.105469 21.515625 C 8.652344 21.515625 8.277344 21.890625 8.277344 22.34375 L 8.277344 23.171875 C 8.277344 23.628906 8.652344 24 9.105469 24 L 14.898438 24 C 15.355469 24 15.726562 23.628906 15.726562 23.171875 L 15.726562 22.34375 C 15.726562 21.890625 15.355469 21.515625 14.898438 21.515625 L 13.597656 21.515625 L 19.742188 13.65625 C 19.78125 13.65625 19.824219 13.65625 19.863281 13.65625 C 21.023438 13.65625 21.933594 12.746094 21.933594 11.585938 C 21.933594 10.425781 21.023438 9.515625 19.863281 9.515625 Z M 4.472656 12.910156 C 4.347656 13.117188 4.140625 13.242188 3.890625 13.242188 L 3.601562 13.242188 C 3.355469 13.242188 3.148438 13.160156 2.980469 12.953125 C 2.859375 12.746094 2.859375 12.496094 2.941406 12.289062 L 3.726562 10.550781 L 4.511719 12.25 C 4.636719 12.457031 4.59375 12.703125 4.472656 12.910156 Z M 8.652344 2.484375 C 9.4375 2.484375 10.097656 3.019531 10.265625 3.722656 L 7.078125 3.722656 C 7.285156 3.019531 7.863281 2.484375 8.652344 2.484375 Z M 11.175781 6.621094 C 11.175781 6.867188 11.007812 7.035156 10.761719 7.035156 L 6.625 7.035156 C 6.375 7.035156 6.210938 6.867188 6.210938 6.621094 L 6.210938 6.25 L 11.175781 6.25 Z M 14.898438 23.171875 L 9.105469 23.171875 L 9.105469 22.34375 L 14.898438 22.34375 Z M 19.863281 12.828125 C 19.78125 12.828125 19.742188 12.785156 19.65625 12.785156 C 19.492188 12.785156 19.328125 12.828125 19.242188 12.953125 L 12.539062 21.515625 L 11.835938 21.515625 L 18.707031 12.539062 C 18.789062 12.414062 18.832031 12.25 18.746094 12.125 C 18.664062 11.957031 18.625 11.75 18.625 11.585938 C 18.625 11.421875 18.664062 11.214844 18.746094 11.046875 C 18.789062 10.925781 18.789062 10.757812 18.707031 10.632812 L 15.683594 6.332031 C 15.5625 6.164062 15.394531 6.125 15.230469 6.164062 C 15.105469 6.207031 14.980469 6.207031 14.898438 6.207031 C 14.445312 6.207031 14.070312 5.957031 13.863281 5.585938 C 13.78125 5.460938 13.65625 5.378906 13.492188 5.378906 L 3.3125 5.378906 L 3.3125 4.550781 L 13.449219 4.550781 C 13.617188 4.550781 13.742188 4.46875 13.824219 4.34375 C 14.070312 3.972656 14.445312 3.722656 14.898438 3.722656 C 15.601562 3.722656 16.140625 4.261719 16.140625 4.964844 C 16.140625 5.132812 16.097656 5.296875 16.015625 5.460938 C 15.933594 5.585938 15.976562 5.75 16.058594 5.875 L 19.242188 10.222656 C 19.367188 10.34375 19.492188 10.425781 19.65625 10.386719 C 19.742188 10.34375 19.78125 10.34375 19.863281 10.34375 C 20.566406 10.34375 21.105469 10.882812 21.105469 11.585938 C 21.105469 12.289062 20.566406 12.828125 19.863281 12.828125 Z M 19.863281 12.828125"/>
    <path d="M6.664062 8.8125L5.507812 9.972656C5.339844 10.136719 5.339844 10.386719 5.507812 10.550781 5.589844 10.632812 5.671875 10.675781 5.796875 10.675781 5.917969 10.675781 6.003906 10.632812 6.085938 10.550781L7.242188 9.394531C7.410156 9.226562 7.410156 8.980469 7.242188 8.8125 7.078125 8.648438 6.832031 8.648438 6.664062 8.8125zM9.105469 11.171875L9.105469 9.101562C9.105469 8.855469 8.941406 8.691406 8.691406 8.691406 8.445312 8.691406 8.277344 8.855469 8.277344 9.101562L8.277344 11.171875C8.277344 11.421875 8.445312 11.585938 8.691406 11.585938 8.941406 11.585938 9.105469 11.378906 9.105469 11.171875zM11.628906 10.675781C11.753906 10.675781 11.878906 10.632812 11.917969 10.550781 12.085938 10.386719 12.085938 10.136719 11.917969 9.972656L10.761719 8.8125C10.59375 8.648438 10.347656 8.648438 10.183594 8.8125 10.015625 8.980469 10.015625 9.226562 10.183594 9.394531L11.339844 10.550781C11.421875 10.632812 11.507812 10.675781 11.628906 10.675781zM11.628906 10.675781"/>
</svg>
