<svg xmlns="http://www.w3.org/2000/svg" width="32" height="32" viewBox="0 0 24 24">
    <path d="M19.863 9.516h-.082l-2.894-3.973c.039-.164.082-.371.082-.578 0-1.156-.91-2.067-2.07-2.067-.66 0-1.282.329-1.657.825h-2.101A2.496 2.496 0 0 0 9.105 1.69V.414c0-.25-.164-.414-.414-.414-.246 0-.414.164-.414.414v1.277a2.491 2.491 0 0 0-2.03 2.032H2.897a.445.445 0 0 0-.414.414v1.656c0 .125.043.25.125.332a.375.375 0 0 0 .29.125h.413v3.191l-1.117 2.477c-.207.453-.164.992.125 1.45.29.452.746.702 1.282.702h.289c.5 0 .996-.25 1.242-.664.289-.453.332-.992.125-1.449L4.14 9.445V6.25h1.242v.371c0 .703.535 1.242 1.242 1.242h4.137c.703 0 1.242-.539 1.242-1.242V6.25h1.281c.414.578 1.16.91 1.902.785l2.731 3.89a1.727 1.727 0 0 0-.121.66c0 .208.039.415.121.622l-7.145 9.309H9.105a.834.834 0 0 0-.828.828v.828c0 .457.375.828.828.828h5.793a.829.829 0 0 0 .829-.828v-.828a.831.831 0 0 0-.829-.828h-1.3l6.144-7.86h.121c1.16 0 2.07-.91 2.07-2.07 0-1.16-.91-2.07-2.07-2.07zM4.473 12.91a.664.664 0 0 1-.582.332H3.6a.75.75 0 0 1-.62-.289.765.765 0 0 1-.04-.664l.786-1.738.785 1.699c.125.207.082.453-.04.66zm4.18-10.426c.784 0 1.445.536 1.613 1.239H7.078c.207-.703.785-1.239 1.574-1.239zm2.523 4.137a.394.394 0 0 1-.414.414H6.625c-.25 0-.414-.168-.414-.414V6.25h4.965zm3.722 16.55H9.105v-.827h5.793zm4.965-10.343c-.082 0-.12-.043-.207-.043-.164 0-.328.043-.414.168l-6.703 8.563h-.703l6.871-8.977c.082-.125.125-.289.04-.414a1.299 1.299 0 0 1-.122-.54c0-.163.04-.37.121-.538a.488.488 0 0 0-.039-.414l-3.023-4.301a.41.41 0 0 0-.454-.168c-.125.043-.25.043-.332.043-.453 0-.828-.25-1.035-.621a.431.431 0 0 0-.37-.207H3.312V4.55h10.136a.433.433 0 0 0 .375-.207c.246-.371.621-.621 1.074-.621.704 0 1.243.539 1.243 1.242 0 .168-.043.332-.125.496-.082.125-.04.289.043.414l3.183 4.348c.125.12.25.203.414.164.086-.043.125-.043.207-.043.703 0 1.242.539 1.242 1.242s-.539 1.242-1.242 1.242zm0 0"/>
    <path d="M6.664 8.813l-1.156 1.16a.395.395 0 0 0 0 .578.375.375 0 0 0 .289.125.381.381 0 0 0 .289-.125l1.156-1.156a.4.4 0 0 0 0-.582.401.401 0 0 0-.578 0zm0 0M9.105 11.172v-2.07c0-.247-.164-.41-.414-.41-.246 0-.414.163-.414.41v2.07c0 .25.168.414.414.414.25 0 .414-.207.414-.414zm0 0M11.629 10.676c.125 0 .25-.043.289-.125a.395.395 0 0 0 0-.578l-1.156-1.16a.401.401 0 0 0-.578 0 .4.4 0 0 0 0 .582l1.156 1.156a.381.381 0 0 0 .289.125zm0 0"/>
</svg>
