<svg xmlns="http://www.w3.org/2000/svg" width="32" height="32" viewBox="0 0 24 24">
    <path d="M 22.398438 20 L 17.742188 20 C 20.78125 16.347656 20.753906 11.078125 17.597656 7.136719 C 17.585938 6.804688 17.46875 6.496094 17.28125 6.246094 L 19.839844 3.761719 C 20 3.601562 20 3.363281 19.84375 3.203125 L 21.28125 1.800781 C 21.359375 1.71875 21.398438 1.640625 21.398438 1.519531 C 21.398438 1.398438 21.359375 1.320312 21.28125 1.238281 L 20.160156 0.121094 C 20 -0.0390625 19.761719 -0.0390625 19.601562 0.121094 L 18.167969 1.488281 L 18.160156 1.480469 C 18.078125 1.398438 18 1.359375 17.878906 1.359375 C 17.800781 1.359375 17.679688 1.398438 17.601562 1.480469 L 8.160156 10.640625 C 8 10.796875 8 11.035156 8.15625 11.195312 L 7.28125 12.039062 C 7.121094 12.199219 7.121094 12.441406 7.28125 12.601562 L 8.398438 13.761719 C 8.480469 13.839844 8.558594 13.878906 8.679688 13.878906 C 8.800781 13.878906 8.878906 13.839844 8.960938 13.761719 L 9.835938 12.914062 L 9.839844 12.921875 C 9.921875 13 10 13.039062 10.121094 13.039062 C 10.199219 13.039062 10.320312 13 10.398438 12.921875 L 15.011719 8.457031 C 15.195312 8.601562 15.414062 8.707031 15.648438 8.761719 C 17.917969 11.890625 17.457031 17.054688 14.636719 20 L 11.199219 20 L 11.199219 18 C 11.199219 17.761719 11.039062 17.601562 10.800781 17.601562 L 8.179688 17.601562 L 8.238281 17.558594 C 8.359375 17.441406 8.441406 17.28125 8.398438 17.121094 L 8 15.519531 C 8 15.398438 7.917969 15.320312 7.839844 15.28125 L 6.640625 14.480469 C 6.519531 14.398438 6.359375 14.359375 6.238281 14.441406 L 4.640625 15.238281 C 4.480469 15.320312 4.398438 15.441406 4.398438 15.601562 L 4.398438 17.199219 C 4.398438 17.359375 4.480469 17.519531 4.640625 17.558594 L 4.738281 17.601562 L 2.800781 17.601562 C 2.558594 17.601562 2.398438 17.761719 2.398438 18 L 2.398438 20 L 1.601562 20 C 0.71875 20 0 20.71875 0 21.601562 L 0 23.601562 C 0 23.839844 0.160156 24 0.398438 24 L 23.601562 24 C 23.839844 24 24 23.839844 24 23.601562 L 24 21.601562 C 24 20.71875 23.28125 20 22.398438 20 Z M 5.199219 15.839844 L 6.398438 15.28125 L 7.28125 15.878906 L 7.558594 17.039062 L 6.761719 17.558594 L 5.199219 16.921875 Z M 19.839844 0.960938 L 20.398438 1.519531 L 19.28125 2.601562 L 18.71875 2.039062 Z M 8.679688 12.878906 L 8.121094 12.320312 L 8.679688 11.761719 L 9.238281 12.320312 Z M 10.121094 12.078125 L 9 10.921875 L 17.839844 2.28125 L 18.960938 3.441406 L 16.640625 5.71875 C 16.441406 5.640625 16.238281 5.601562 16 5.601562 C 15.121094 5.601562 14.398438 6.320312 14.398438 7.199219 C 14.398438 7.226562 14.402344 7.25 14.402344 7.277344 C 14.410156 7.460938 14.453125 7.636719 14.519531 7.800781 Z M 15.414062 7.742188 C 15.402344 7.707031 15.382812 7.671875 15.359375 7.640625 C 15.304688 7.582031 15.265625 7.519531 15.238281 7.449219 C 15.222656 7.394531 15.210938 7.339844 15.203125 7.28125 C 15.203125 7.253906 15.199219 7.226562 15.199219 7.199219 C 15.199219 6.761719 15.558594 6.398438 16 6.398438 C 16.027344 6.398438 16.054688 6.402344 16.082031 6.402344 C 16.484375 6.445312 16.800781 6.789062 16.800781 7.199219 C 16.800781 7.335938 16.765625 7.46875 16.703125 7.578125 C 16.703125 7.582031 16.703125 7.582031 16.703125 7.582031 C 16.691406 7.601562 16.683594 7.617188 16.671875 7.632812 C 16.539062 7.832031 16.316406 7.972656 16.074219 7.996094 C 16.050781 8 16.027344 8 16 8 C 15.769531 8 15.558594 7.898438 15.414062 7.742188 Z M 16.570312 8.695312 C 16.859375 8.582031 17.113281 8.386719 17.292969 8.140625 C 19.960938 11.894531 19.714844 16.765625 16.601562 20 L 15.679688 20 C 18.234375 16.84375 18.640625 12.015625 16.570312 8.695312 Z M 3.199219 18.398438 L 10.398438 18.398438 L 10.398438 20 L 3.199219 20 Z M 23.199219 23.199219 L 0.800781 23.199219 L 0.800781 21.601562 C 0.800781 21.160156 1.160156 20.800781 1.601562 20.800781 L 22.398438 20.800781 C 22.839844 20.800781 23.199219 21.160156 23.199219 21.601562 Z M 23.199219 23.199219"/>
</svg>
