<svg xmlns="http://www.w3.org/2000/svg" width="32" height="32" viewBox="0 0 24 24">
    <path d="M22.398 20h-4.656c3.04-3.652 3.012-8.922-.144-12.863a1.578 1.578 0 0 0-.317-.89l2.559-2.485c.16-.16.16-.399.004-.559l1.437-1.402a.371.371 0 0 0 .117-.281c0-.122-.039-.2-.117-.282L20.161.121a.385.385 0 0 0-.56 0l-1.433 1.367-.008-.008a.361.361 0 0 0-.281-.12c-.078 0-.2.038-.277.12L8.16 10.64a.383.383 0 0 0-.004.555l-.875.844a.39.39 0 0 0 0 .563l1.117 1.16c.082.078.16.117.282.117.12 0 .199-.04.28-.117l.876-.848.004.008c.082.078.16.117.281.117.078 0 .2-.039.277-.117l4.614-4.465c.183.145.402.25.636.305 2.27 3.129 1.809 8.293-1.011 11.238h-3.438v-2c0-.238-.16-.398-.398-.398H8.18l.058-.043c.121-.118.203-.278.16-.438L8 15.52c0-.122-.082-.2-.16-.239l-1.2-.8c-.12-.083-.28-.122-.402-.04l-1.597.797c-.16.082-.243.203-.243.364v1.597c0 .16.082.32.243.36l.097.043H2.801c-.242 0-.403.16-.403.398v2h-.796C.719 20 0 20.719 0 21.602v2c0 .238.16.398.398.398h23.204c.238 0 .398-.16.398-.398v-2c0-.883-.719-1.602-1.602-1.602zM5.2 15.84l1.2-.559.882.598.278 1.16-.797.52-1.563-.637zM19.84.96l.56.56-1.118 1.082-.562-.563zM8.68 12.88l-.558-.559.559-.558.558.558zm1.442-.8L9 10.921l8.84-8.64 1.12 1.16-2.32 2.277a1.7 1.7 0 0 0-.64-.117c-.879 0-1.602.718-1.602 1.597 0 .028.004.051.004.078.008.184.051.36.118.524zm5.293-4.337a.367.367 0 0 0-.055-.101.588.588 0 0 1-.12-.192 1.164 1.164 0 0 1-.036-.168c0-.027-.004-.054-.004-.082 0-.437.36-.8.801-.8l.082.003a.807.807 0 0 1 .719.797.77.77 0 0 1-.098.38v.003c-.012.02-.02.035-.031.05a.826.826 0 0 1-.598.364C16.051 8 16.027 8 16 8a.802.802 0 0 1-.586-.258zm1.156.953c.29-.113.543-.308.723-.554 2.668 3.754 2.422 8.625-.691 11.859h-.922c2.554-3.156 2.96-7.984.89-11.305zM3.2 18.398h7.198V20H3.2zm20 4.801H.8v-1.597c0-.442.36-.801.802-.801h20.796c.442 0 .801.36.801.8zm0 0"/>
</svg>
