<svg xmlns="http://www.w3.org/2000/svg" width="32" height="32" viewBox="0 0 24 24">
    <path d="M3.84 6.559l2.8 1.12c.079.04.122.04.16.04a.38.38 0 0 0 .36-.278.415.415 0 0 0-.238-.52l-2.8-1.12c-.2-.082-.442.039-.52.238-.082.2.039.441.238.52zm0 0M3.64 8.238c-.081.203.04.442.239.524l6 2.199C9.922 11 9.96 11 10 11a.41.41 0 0 0 .398-.281c.082-.2-.039-.438-.238-.52L4.16 8c-.2-.078-.441.04-.52.238zm0 0M10.16 12.602l-6-2.204c-.2-.078-.441.043-.52.243-.081.199.04.437.239.52l6 2.198c.043.04.082.04.121.04.16 0 .32-.079.398-.278.082-.2-.039-.441-.238-.52zm0 0M10.16 15l-6-2.2c-.2-.081-.441.04-.52.24-.081.198.04.44.239.519l6 2.203c.043.039.082.039.121.039.16 0 .32-.082.398-.281.082-.2-.039-.442-.238-.52zm0 0M10.16 17.398l-6-2.199c-.2-.078-.441.04-.52.242-.081.2.04.438.239.52l6 2.2c.043.038.082.038.121.038.16 0 .32-.078.398-.277.082-.203-.039-.442-.238-.524zm0 0"/>
    <path d="M22.879 4h-6.32l-.399-.398.281-.243c.118-.12.118-.32.04-.48a.462.462 0 0 0-.481-.16l-4.016 1.238L2.121.801C2 .8 1.88.8 1.761.879c-.081.082-.16.2-.16.32V4h-.48C.52 4 0 4.52 0 5.16v16.918C0 22.68.52 23.2 1.121 23.2H22.88c.601 0 1.121-.52 1.121-1.12V5.16C24 4.52 23.48 4 22.879 4zm-7.559-.121l1.32 1.32-1.32 1.32a.385.385 0 0 0 0 .56l1.32 1.32-1.32 1.32a.39.39 0 0 0 0 .562l1.32 1.32-1.32 1.32a.385.385 0 0 0 0 .56l1.32 1.32-1.32 1.32a.385.385 0 0 0 0 .559L16.64 18l-1.32 1.32a.385.385 0 0 0 0 .559l1.078 1.082-4 1.277V4.68l2.84-.918c.043.039.043.078.082.117zM2.398 1.762l9.16 2.906v17.59l-9.16-2.938zM1.121 22.398c-.16 0-.32-.16-.32-.32V5.16c0-.2.16-.36.32-.36h.48v14.802c0 .16.118.32.278.398l7.52 2.398zM23.161 5.16v16.918c0 .16-.122.32-.321.32h-8.281l2.722-.878c.16-.04.278-.16.278-.282 0-.117-.04-.277-.118-.36l-1.28-1.276 1.32-1.32a.39.39 0 0 0 0-.563l-1.32-1.32 1.32-1.32a.385.385 0 0 0 0-.56l-1.32-1.32 1.32-1.32a.385.385 0 0 0 0-.559L16.16 10l1.32-1.32a.385.385 0 0 0 0-.559l-1.32-1.32 1.32-1.32a.385.385 0 0 0 0-.56l-.122-.12h5.52a.3.3 0 0 1 .281.36zm0 0"/>
</svg>
