<svg xmlns="http://www.w3.org/2000/svg" width="32" height="32" viewBox="0 0 24 24">
    <path d="M5.793 7.04h3.723c.25 0 .414-.169.414-.415 0-.25-.164-.414-.414-.414H5.793c-.25 0-.414.164-.414.414 0 .246.164.414.414.414zm0 0M4.137 9.105h5.379c.25 0 .414-.164.414-.414 0-.246-.164-.414-.414-.414h-5.38a.394.394 0 0 0-.413.414c0 .25.168.414.414.414zm0 0M4.137 11.176h3.726a.394.394 0 0 0 .414-.414c0-.25-.168-.414-.414-.414H4.137c-.246 0-.414.164-.414.414 0 .246.168.414.414.414zm0 0M9.516 12.418H5.793c-.25 0-.414.164-.414.414 0 .246.164.41.414.41h3.723c.25 0 .414-.164.414-.41 0-.25-.164-.414-.414-.414zm0 0M4.137 15.313h5.379c.25 0 .414-.165.414-.415 0-.246-.164-.414-.414-.414h-5.38a.394.394 0 0 0-.413.414c0 .25.168.415.414.415zm0 0M14.484 9.105h2.48c.25 0 .415-.164.415-.414 0-.246-.164-.414-.414-.414h-2.48c-.25 0-.415.168-.415.414 0 .25.164.414.414.414zm0 0M14.484 7.04h2.895c.25 0 .414-.169.414-.415 0-.25-.164-.414-.414-.414h-2.895c-.25 0-.414.164-.414.414 0 .246.164.414.414.414zm0 0M16.965 14.484h-.828a.394.394 0 0 0-.414.414c0 .25.168.415.414.415h.828c.25 0 .414-.165.414-.415 0-.246-.164-.414-.414-.414zm0 0M14.484 13.242h2.48c.25 0 .415-.164.415-.41 0-.25-.164-.414-.414-.414h-2.48c-.25 0-.415.164-.415.414 0 .246.164.41.414.41zm0 0M14.484 11.176h3.309c.25 0 .414-.168.414-.414 0-.25-.164-.414-.414-.414h-3.309c-.25 0-.414.164-.414.414 0 .246.164.414.414.414zm0 0"/>
    <path d="M23.586 3.313h-3.973l-.578-.579c-.082-.082-.168-.125-.25-.125A15.036 15.036 0 0 0 12 3.313c-3.16-1.118-6.867-1.102-10.016 0H.414c-.25 0-.414.164-.414.414v17.378c0 .25.164.415.414.415h23.172c.25 0 .414-.165.414-.415V3.727c0-.25-.164-.414-.414-.414zm-.414.828v15.308H13.32c2.051-.64 3.922-.883 5.59-.742.125 0 .25-.043.332-.125l.91-.91a.401.401 0 0 0 0-.578l-1.367-1.367 1.367-1.368a.401.401 0 0 0 0-.578l-1.367-1.363 1.367-1.367a.401.401 0 0 0 0-.578l-1.367-1.368 1.367-1.363a.406.406 0 0 0 0-.582l-1.367-1.363 1.367-1.367a.375.375 0 0 0 .125-.29zM2.484 19.305l.055-.024.188-.07c.039-.016.078-.027.117-.043.039-.012.078-.027.117-.04.062-.023.121-.042.184-.062.015-.003.027-.007.039-.011 2.23-.696 4.796-.543 7.617.394H2.07c.038 0 .12 0 .163-.039.082-.035.164-.07.25-.105zM18.578 3.438l.703.703-1.363 1.324a.395.395 0 0 0 0 .578l1.363 1.367-1.363 1.363a.4.4 0 0 0 0 .582l1.363 1.364-1.363 1.367a.395.395 0 0 0 0 .578l1.363 1.367-1.363 1.364a.4.4 0 0 0 0 .582l1.363 1.363-.453.457c-1.945-.125-4.098.207-6.414 1.035V4.016a14.707 14.707 0 0 1 6.164-.579zm-6.992.578v14.816c-.145-.05-.29-.098-.434-.145-3.28-1.12-6.257-1.21-8.84-.203a4.473 4.473 0 0 0-.242.098V4.141c.04 0 .082 0 .121-.043 2.942-1.032 6.414-1.075 9.395-.082zM.828 4.14h.414v14.894c0 .25.164.414.414.414H.828zm22.344 16.55H.828v-.414h22.344zm0 0"/>
</svg>
