<svg xmlns="http://www.w3.org/2000/svg" width="32" height="32" viewBox="0 0 24 24">
    <path d="M6 14C5.6875 14 5.410156 14.109375 5.199219 14.292969 4.988281 14.109375 4.710938 14 4.398438 14 3.71875 14 3.199219 14.519531 3.199219 15.199219L3.199219 18.398438C3.199219 18.640625 3.359375 18.800781 3.601562 18.800781L6.800781 18.800781C7.039062 18.800781 7.199219 18.640625 7.199219 18.398438L7.199219 15.199219C7.199219 14.519531 6.679688 14 6 14zM4 15.199219C4 14.960938 4.160156 14.800781 4.398438 14.800781 4.640625 14.800781 4.800781 14.960938 4.800781 15.199219L4.800781 18 4 18zM6.398438 18L5.601562 18 5.601562 15.199219C5.601562 14.960938 5.761719 14.800781 6 14.800781 6.238281 14.800781 6.398438 14.960938 6.398438 15.199219zM12.800781 12.398438C12.488281 12.398438 12.210938 12.507812 12 12.695312 11.789062 12.507812 11.511719 12.398438 11.199219 12.398438 10.519531 12.398438 10 12.921875 10 13.601562L10 16.800781C10 17.039062 10.160156 17.199219 10.398438 17.199219L13.601562 17.199219C13.839844 17.199219 14 17.039062 14 16.800781L14 13.601562C14 12.921875 13.480469 12.398438 12.800781 12.398438zM10.800781 13.601562C10.800781 13.359375 10.960938 13.199219 11.199219 13.199219 11.441406 13.199219 11.601562 13.359375 11.601562 13.601562L11.601562 16.398438 10.800781 16.398438zM13.199219 16.398438L12.398438 16.398438 12.398438 13.601562C12.398438 13.359375 12.558594 13.199219 12.800781 13.199219 13.039062 13.199219 13.199219 13.359375 13.199219 13.601562zM19.601562 14C19.289062 14 19.011719 14.109375 18.800781 14.292969 18.589844 14.109375 18.3125 14 18 14 17.320312 14 16.800781 14.519531 16.800781 15.199219L16.800781 18.398438C16.800781 18.640625 16.960938 18.800781 17.199219 18.800781L20.398438 18.800781C20.640625 18.800781 20.800781 18.640625 20.800781 18.398438L20.800781 15.199219C20.800781 14.519531 20.28125 14 19.601562 14zM17.601562 15.199219C17.601562 14.960938 17.761719 14.800781 18 14.800781 18.238281 14.800781 18.398438 14.960938 18.398438 15.199219L18.398438 18 17.601562 18zM20 18L19.199219 18 19.199219 15.199219C19.199219 14.960938 19.359375 14.800781 19.601562 14.800781 19.839844 14.800781 20 14.960938 20 15.199219zM20 18"/>
    <path d="M 23.601562 23.199219 L 23.199219 23.199219 L 23.199219 10.800781 C 23.199219 10.558594 23.039062 10.398438 22.800781 10.398438 L 20.800781 10.398438 L 20.800781 2.398438 L 23.199219 2.398438 C 23.441406 2.398438 23.601562 2.238281 23.601562 2 L 23.601562 0.398438 C 23.601562 0.160156 23.441406 0 23.199219 0 L 20.398438 0 C 20.160156 0 20 0.160156 20 0.398438 L 20 4 L 4 4 L 4 0.398438 C 4 0.160156 3.839844 0 3.601562 0 L 0.800781 0 C 0.558594 0 0.398438 0.160156 0.398438 0.398438 L 0.398438 2 C 0.398438 2.238281 0.558594 2.398438 0.800781 2.398438 L 3.199219 2.398438 L 3.199219 10.398438 L 1.199219 10.398438 C 0.960938 10.398438 0.800781 10.558594 0.800781 10.800781 L 0.800781 23.199219 L 0.398438 23.199219 C 0.160156 23.199219 0 23.359375 0 23.601562 C 0 23.839844 0.160156 24 0.398438 24 L 23.601562 24 C 23.839844 24 24 23.839844 24 23.601562 C 24 23.359375 23.839844 23.199219 23.601562 23.199219 Z M 22.800781 1.601562 L 20.800781 1.601562 L 20.800781 0.800781 L 22.800781 0.800781 Z M 20 4.800781 L 20 10.398438 L 14.273438 10.398438 C 15.082031 9.742188 15.601562 8.734375 15.601562 7.601562 C 15.601562 6.464844 15.082031 5.457031 14.273438 4.800781 Z M 9.199219 7.601562 C 9.199219 6.039062 10.441406 4.800781 12 4.800781 C 13.558594 4.800781 14.800781 6.039062 14.800781 7.601562 C 14.800781 9.160156 13.558594 10.398438 12 10.398438 C 10.441406 10.398438 9.199219 9.160156 9.199219 7.601562 Z M 1.199219 1.601562 L 1.199219 0.800781 L 3.199219 0.800781 L 3.199219 1.601562 Z M 4 4.800781 L 9.726562 4.800781 C 8.917969 5.457031 8.398438 6.464844 8.398438 7.601562 C 8.398438 8.734375 8.917969 9.742188 9.726562 10.398438 L 4 10.398438 Z M 9.960938 23.199219 L 9.960938 19.519531 C 9.960938 19.121094 10.28125 18.800781 10.679688 18.800781 L 11.601562 18.800781 L 11.601562 23.199219 Z M 12.398438 23.199219 L 12.398438 18.800781 L 13.28125 18.800781 C 13.679688 18.800781 14 19.121094 14 19.519531 L 14 23.199219 Z M 14.839844 23.199219 L 14.839844 19.519531 C 14.839844 18.679688 14.160156 18 13.320312 18 L 10.71875 18 C 9.878906 18 9.199219 18.679688 9.199219 19.519531 L 9.199219 23.199219 L 1.601562 23.199219 L 1.601562 11.199219 L 22.398438 11.199219 L 22.398438 23.199219 Z M 14.839844 23.199219"/>
    <path d="M 12 5.601562 C 11.761719 5.601562 11.601562 5.761719 11.601562 6 L 11.601562 7.199219 L 10.800781 7.199219 C 10.558594 7.199219 10.398438 7.359375 10.398438 7.601562 C 10.398438 7.839844 10.558594 8 10.800781 8 L 12 8 C 12.238281 8 12.398438 7.839844 12.398438 7.601562 L 12.398438 6 C 12.398438 5.761719 12.238281 5.601562 12 5.601562 Z M 12 5.601562"/>
</svg>
