<svg xmlns="http://www.w3.org/2000/svg" width="32" height="32" viewBox="0 0 24 24">
    <path d="M 12 10.398438 C 9.359375 10.398438 7.199219 12.558594 7.199219 15.199219 C 7.199219 17.839844 9.359375 20 12 20 C 14.640625 20 16.800781 17.839844 16.800781 15.199219 C 16.800781 12.558594 14.640625 10.398438 12 10.398438 Z M 12.398438 19.179688 L 12.398438 18.800781 C 12.398438 18.558594 12.238281 18.398438 12 18.398438 C 11.761719 18.398438 11.601562 18.558594 11.601562 18.800781 L 11.601562 19.179688 C 9.71875 18.992188 8.210938 17.480469 8.019531 15.601562 L 8.398438 15.601562 C 8.640625 15.601562 8.800781 15.441406 8.800781 15.199219 C 8.800781 14.960938 8.640625 14.800781 8.398438 14.800781 L 8.019531 14.800781 C 8.210938 12.917969 9.71875 11.410156 11.601562 11.21875 L 11.601562 11.601562 C 11.601562 11.839844 11.761719 12 12 12 C 12.238281 12 12.398438 11.839844 12.398438 11.601562 L 12.398438 11.21875 C 14.28125 11.410156 15.789062 12.917969 15.980469 14.800781 L 15.601562 14.800781 C 15.359375 14.800781 15.199219 14.960938 15.199219 15.199219 C 15.199219 15.441406 15.359375 15.601562 15.601562 15.601562 L 15.980469 15.601562 C 15.789062 17.480469 14.28125 18.992188 12.398438 19.179688 Z M 12.398438 19.179688"/>
    <path d="M 12.398438 15.839844 L 12.398438 13.199219 C 12.398438 12.960938 12.238281 12.800781 12 12.800781 C 11.761719 12.800781 11.601562 12.960938 11.601562 13.199219 L 11.601562 16 C 11.601562 16.121094 11.640625 16.199219 11.71875 16.28125 L 13.320312 17.878906 C 13.398438 17.960938 13.480469 18 13.601562 18 C 13.71875 18 13.800781 17.960938 13.878906 17.878906 C 14.039062 17.71875 14.039062 17.480469 13.878906 17.320312 Z M 12.398438 15.839844"/>
    <path d="M 24 12 C 24 5.398438 18.601562 0 12 0 C 9.167969 0 6.558594 0.996094 4.5 2.648438 L 4.480469 2.640625 L 4.28125 2.800781 C 2.679688 4.160156 1.441406 5.921875 0.71875 7.839844 L 0.558594 8.28125 L 0.589844 8.289062 C 0.207031 9.457031 0 10.707031 0 12 C 0 17.199219 3.351562 21.652344 8 23.308594 L 8 23.320312 L 8.152344 23.363281 C 8.558594 23.5 8.972656 23.617188 9.394531 23.710938 C 9.453125 23.742188 9.523438 23.761719 9.601562 23.761719 C 9.605469 23.761719 9.609375 23.757812 9.613281 23.757812 C 9.75 23.789062 9.886719 23.8125 10.027344 23.835938 C 10.0625 23.839844 10.097656 23.847656 10.136719 23.855469 C 10.171875 23.859375 10.210938 23.867188 10.25 23.871094 C 10.308594 23.878906 10.371094 23.886719 10.429688 23.898438 C 10.457031 23.898438 10.484375 23.902344 10.511719 23.90625 C 10.59375 23.917969 10.675781 23.925781 10.761719 23.9375 C 10.769531 23.9375 10.773438 23.9375 10.78125 23.9375 C 10.878906 23.949219 10.976562 23.957031 11.078125 23.964844 C 11.082031 23.964844 11.089844 23.964844 11.09375 23.964844 C 11.179688 23.972656 11.269531 23.976562 11.355469 23.980469 C 11.378906 23.984375 11.402344 23.984375 11.425781 23.984375 C 11.496094 23.988281 11.570312 23.992188 11.640625 23.992188 C 11.667969 23.996094 11.691406 23.996094 11.71875 23.996094 C 11.8125 24 11.90625 24 12 24 C 12.09375 24 12.1875 24 12.28125 23.996094 C 12.308594 23.996094 12.332031 23.996094 12.359375 23.996094 C 12.429688 23.992188 12.503906 23.988281 12.574219 23.984375 C 12.597656 23.984375 12.621094 23.984375 12.644531 23.984375 C 12.730469 23.976562 12.820312 23.972656 12.90625 23.964844 C 12.910156 23.964844 12.917969 23.964844 12.921875 23.964844 C 13.023438 23.957031 13.121094 23.949219 13.21875 23.9375 C 13.226562 23.9375 13.230469 23.9375 13.238281 23.9375 C 13.324219 23.925781 13.40625 23.917969 13.488281 23.90625 C 13.515625 23.902344 13.542969 23.898438 13.570312 23.898438 C 13.628906 23.886719 13.691406 23.878906 13.75 23.871094 C 13.789062 23.867188 13.828125 23.859375 13.863281 23.855469 C 13.902344 23.847656 13.9375 23.839844 13.972656 23.835938 C 14.113281 23.8125 14.25 23.789062 14.386719 23.757812 C 14.390625 23.757812 14.394531 23.761719 14.398438 23.761719 C 14.464844 23.761719 14.527344 23.746094 14.578125 23.71875 C 15.007812 23.621094 15.433594 23.503906 15.847656 23.363281 L 16 23.320312 L 16 23.308594 C 20.648438 21.652344 24 17.199219 24 12 Z M 14.800781 22.828125 L 14.800781 22.398438 C 14.800781 22.160156 14.640625 22 14.398438 22 C 14.160156 22 14 22.160156 14 22.398438 L 14 22.996094 C 13.867188 23.019531 13.734375 23.039062 13.601562 23.058594 L 13.601562 22.398438 C 13.601562 22.160156 13.441406 22 13.199219 22 C 12.960938 22 12.800781 22.160156 12.800781 22.398438 L 12.800781 23.140625 C 12.667969 23.152344 12.535156 23.160156 12.398438 23.164062 L 12.398438 22.398438 C 12.398438 22.160156 12.238281 22 12 22 C 11.761719 22 11.601562 22.160156 11.601562 22.398438 L 11.601562 23.164062 C 11.464844 23.160156 11.332031 23.152344 11.199219 23.140625 L 11.199219 22.398438 C 11.199219 22.160156 11.039062 22 10.800781 22 C 10.558594 22 10.398438 22.160156 10.398438 22.398438 L 10.398438 23.058594 C 10.265625 23.039062 10.132812 23.019531 10 22.996094 L 10 22.398438 C 10 22.160156 9.839844 22 9.601562 22 C 9.359375 22 9.199219 22.160156 9.199219 22.398438 L 9.199219 22.828125 C 9.066406 22.792969 8.933594 22.757812 8.800781 22.71875 L 8.800781 21.199219 L 15.199219 21.199219 L 15.199219 22.71875 C 15.066406 22.757812 14.933594 22.792969 14.800781 22.828125 Z M 8 20.398438 L 6.800781 20.398438 L 6.800781 10 L 17.199219 10 L 17.199219 20.398438 Z M 13.199219 9.199219 L 13.199219 8.800781 C 13.199219 8.558594 13.039062 8.398438 12.800781 8.398438 C 12.558594 8.398438 12.398438 8.558594 12.398438 8.800781 L 12.398438 9.199219 L 11.601562 9.199219 L 11.601562 8.800781 C 11.601562 8.558594 11.441406 8.398438 11.199219 8.398438 C 10.960938 8.398438 10.800781 8.558594 10.800781 8.800781 L 10.800781 9.199219 L 9.199219 9.199219 L 9.199219 8 L 14.800781 8 L 14.800781 9.199219 Z M 14 7.199219 L 14 6.398438 C 14 6.160156 13.839844 6 13.601562 6 C 13.359375 6 13.199219 6.160156 13.199219 6.398438 L 13.199219 7.199219 L 12.398438 7.199219 L 12.398438 6.398438 C 12.398438 6.160156 12.238281 6 12 6 C 11.761719 6 11.601562 6.160156 11.601562 6.398438 L 11.601562 7.199219 L 10.800781 7.199219 L 10.800781 6.398438 C 10.800781 6.160156 10.640625 6 10.398438 6 C 10.160156 6 10 6.160156 10 6.398438 L 10 7.199219 L 9.320312 7.199219 L 9.921875 5.199219 L 14.039062 5.199219 L 14.640625 7.199219 Z M 10.761719 4.398438 C 11.359375 3.71875 11.761719 2.839844 12 2.078125 C 12.238281 2.839844 12.640625 3.71875 13.238281 4.398438 Z M 5.121094 4.078125 C 5.28125 4.441406 5.320312 4.761719 5.238281 5.121094 L 5.121094 5.558594 L 5.558594 5.640625 C 5.839844 5.679688 6.078125 5.839844 6.238281 6.078125 C 6.359375 6.320312 6.441406 6.601562 6.359375 6.878906 C 6.28125 7.320312 5.839844 7.640625 5.320312 7.640625 L 1.6875 7.640625 C 2.359375 6.066406 3.378906 4.675781 4.648438 3.566406 C 4.84375 3.6875 5.003906 3.882812 5.121094 4.078125 Z M 0.800781 12 C 0.800781 10.757812 1.003906 9.558594 1.382812 8.441406 C 1.390625 8.441406 1.394531 8.441406 1.398438 8.441406 L 5.320312 8.441406 C 6.199219 8.441406 6.960938 7.878906 7.160156 7.078125 C 7.28125 6.558594 7.199219 6.078125 6.921875 5.640625 C 6.71875 5.320312 6.398438 5.078125 6.078125 4.960938 C 6.121094 4.558594 6 4.160156 5.800781 3.761719 C 5.660156 3.503906 5.464844 3.273438 5.238281 3.085938 C 7.003906 1.746094 9.171875 0.910156 11.519531 0.8125 C 11.285156 1.925781 10.617188 3.886719 9.441406 4.441406 C 9.265625 4.511719 9.183594 4.640625 9.191406 4.804688 C 9.175781 4.84375 9.164062 4.882812 9.160156 4.921875 L 8.398438 7.480469 C 8.398438 7.511719 8.398438 7.539062 8.402344 7.570312 C 8.402344 7.582031 8.398438 7.589844 8.398438 7.601562 L 8.398438 9.199219 L 6.398438 9.199219 C 6.160156 9.199219 6 9.359375 6 9.601562 L 6 20.800781 C 6 21.039062 6.160156 21.199219 6.398438 21.199219 L 8 21.199219 L 8 22.457031 C 3.800781 20.835938 0.800781 16.753906 0.800781 12 Z M 16 22.457031 L 16 21.199219 L 17.601562 21.199219 C 17.839844 21.199219 18 21.039062 18 20.800781 L 18 9.601562 C 18 9.359375 17.839844 9.199219 17.601562 9.199219 L 15.601562 9.199219 L 15.601562 7.675781 C 15.621094 7.609375 15.621094 7.546875 15.601562 7.480469 L 14.839844 4.960938 C 14.832031 4.921875 14.820312 4.886719 14.804688 4.855469 C 14.828125 4.699219 14.710938 4.515625 14.558594 4.441406 C 13.289062 3.851562 12.691406 1.746094 12.484375 0.8125 C 18.421875 1.066406 23.199219 6.003906 23.199219 12 C 23.199219 16.753906 20.199219 20.835938 16 22.457031 Z M 16 22.457031"/>
</svg>
