<svg xmlns="http://www.w3.org/2000/svg" width="32" height="32" viewBox="0 0 24 24">
    <path d="M 23.996094 11.6875 C 23.992188 11.589844 23.988281 11.496094 23.984375 11.398438 C 23.984375 11.394531 23.984375 11.390625 23.984375 11.382812 C 23.910156 9.878906 23.558594 8.414062 22.960938 7.039062 L 22.839844 6.800781 L 22.808594 6.800781 C 20.859375 2.785156 16.738281 0 12 0 C 8.0625 0 4.550781 1.921875 2.359375 4.878906 C 2.269531 4.925781 2.207031 5.015625 2.175781 5.132812 C 1.804688 5.660156 1.476562 6.214844 1.191406 6.800781 L 1.160156 6.800781 L 1.082031 7.039062 C 1.050781 7.101562 1.023438 7.164062 0.996094 7.226562 C 0.417969 8.542969 0.0898438 9.945312 0.015625 11.382812 C 0.015625 11.40625 0.015625 11.433594 0.0117188 11.460938 C 0.0078125 11.535156 0.0078125 11.613281 0.00390625 11.6875 C 0 11.792969 0 11.894531 0 12 C 0 12.09375 0 12.1875 0.00390625 12.277344 C 0.00390625 12.300781 0.00390625 12.324219 0.00390625 12.34375 C 0.0078125 12.429688 0.0117188 12.515625 0.015625 12.597656 C 0.015625 12.605469 0.015625 12.613281 0.015625 12.621094 C 0.0546875 13.359375 0.15625 14.085938 0.328125 14.800781 L 0.320312 14.800781 L 0.363281 14.945312 C 0.46875 15.351562 0.59375 15.757812 0.738281 16.152344 C 1.054688 17.039062 1.480469 17.875 2 18.640625 L 2.027344 18.675781 L 2.078125 18.761719 C 3.039062 20.160156 4.320312 21.398438 5.800781 22.28125 L 6.398438 22.640625 L 6.398438 22.601562 C 8.074219 23.492188 9.980469 24 12 24 C 14.183594 24 16.230469 23.410156 18 22.382812 L 18 22.398438 L 18.296875 22.203125 C 19.042969 21.738281 19.734375 21.195312 20.363281 20.585938 C 20.394531 20.550781 20.429688 20.519531 20.464844 20.484375 C 20.472656 20.476562 20.484375 20.464844 20.496094 20.453125 C 20.820312 20.132812 21.125 19.789062 21.40625 19.425781 C 21.570312 19.222656 21.722656 19.015625 21.871094 18.800781 L 21.878906 18.800781 L 22 18.640625 L 22.640625 18 L 22.449219 18 C 22.585938 17.808594 22.6875 17.585938 22.746094 17.347656 C 23.128906 16.574219 23.425781 15.769531 23.636719 14.945312 L 23.679688 14.800781 L 23.671875 14.800781 C 23.84375 14.085938 23.945312 13.359375 23.984375 12.621094 C 23.984375 12.613281 23.984375 12.605469 23.984375 12.597656 C 23.988281 12.515625 23.992188 12.429688 23.996094 12.34375 C 23.996094 12.324219 23.996094 12.300781 23.996094 12.277344 C 24 12.1875 24 12.09375 24 12 C 24 11.894531 24 11.792969 23.996094 11.6875 Z M 1.601562 16.089844 C 1.539062 15.929688 1.488281 15.765625 1.441406 15.601562 L 1.601562 15.601562 Z M 1.601562 14.800781 L 1.15625 14.800781 C 1.152344 14.789062 1.152344 14.777344 1.148438 14.765625 C 1.128906 14.691406 1.109375 14.613281 1.09375 14.539062 C 1.085938 14.515625 1.082031 14.492188 1.078125 14.46875 C 1.0625 14.414062 1.050781 14.355469 1.039062 14.296875 C 1.03125 14.265625 1.027344 14.238281 1.019531 14.207031 C 1.007812 14.148438 0.996094 14.085938 0.984375 14.023438 C 0.980469 14 0.976562 13.972656 0.972656 13.949219 C 0.957031 13.878906 0.945312 13.808594 0.9375 13.738281 C 0.929688 13.707031 0.925781 13.675781 0.921875 13.644531 C 0.914062 13.589844 0.90625 13.535156 0.898438 13.480469 C 0.894531 13.453125 0.890625 13.425781 0.886719 13.398438 C 0.878906 13.320312 0.867188 13.242188 0.859375 13.164062 C 0.859375 13.140625 0.855469 13.113281 0.851562 13.085938 C 0.847656 13.027344 0.84375 12.96875 0.835938 12.90625 C 0.835938 12.882812 0.832031 12.855469 0.832031 12.828125 C 0.824219 12.746094 0.820312 12.667969 0.816406 12.585938 C 0.8125 12.570312 0.8125 12.554688 0.8125 12.539062 C 0.808594 12.46875 0.808594 12.398438 0.804688 12.324219 C 0.804688 12.300781 0.804688 12.277344 0.804688 12.253906 C 0.800781 12.171875 0.800781 12.085938 0.800781 12 C 0.800781 10.585938 1.078125 9.203125 1.601562 7.890625 Z M 21.929688 6.832031 C 21.832031 6.84375 21.738281 6.851562 21.644531 6.863281 C 21.027344 6.9375 20.425781 7.066406 19.847656 7.25 L 19.601562 7.320312 L 19.601562 7.332031 C 19.027344 7.527344 18.480469 7.773438 17.960938 8.070312 L 17.960938 8.039062 L 17.554688 8.3125 C 17.09375 8.601562 16.660156 8.925781 16.25 9.28125 C 15.820312 9.660156 15.421875 10.070312 15.066406 10.519531 C 14.199219 11.589844 13.546875 12.835938 13.179688 14.191406 C 13.035156 13.648438 12.855469 13.117188 12.644531 12.601562 C 14.238281 9.042969 17.492188 6.300781 21.253906 5.710938 C 21.5 6.070312 21.726562 6.445312 21.929688 6.832031 Z M 17.960938 14.800781 L 17.960938 9 C 18.476562 8.675781 19.023438 8.402344 19.601562 8.183594 L 19.601562 14.800781 Z M 19.601562 15.601562 L 19.601562 18 L 17.960938 18 L 17.960938 15.601562 Z M 15.601562 14.800781 L 15.601562 11.160156 C 16.078125 10.558594 16.601562 10.039062 17.199219 9.558594 L 17.199219 14.800781 Z M 17.199219 15.601562 L 17.199219 18 L 15.601562 18 L 15.601562 15.601562 Z M 13.59375 17.476562 C 13.597656 17.453125 13.601562 17.425781 13.601562 17.398438 C 13.601562 17.332031 13.597656 17.265625 13.597656 17.199219 L 13.601562 17.199219 L 13.601562 16.800781 C 13.601562 16.394531 13.628906 15.992188 13.679688 15.601562 L 14.800781 15.601562 L 14.800781 18 L 13.535156 18 C 13.578125 17.875 13.601562 17.742188 13.601562 17.601562 C 13.601562 17.558594 13.597656 17.515625 13.59375 17.476562 Z M 13.824219 14.800781 C 14.027344 13.914062 14.359375 13.074219 14.800781 12.300781 L 14.800781 14.800781 Z M 12.652344 15.601562 C 12.695312 15.863281 12.730469 16.132812 12.753906 16.398438 L 11.644531 16.398438 C 11.667969 16.132812 11.703125 15.863281 11.746094 15.601562 Z M 11.902344 14.800781 C 11.984375 14.449219 12.082031 14.105469 12.191406 13.765625 C 12.308594 14.105469 12.40625 14.449219 12.488281 14.800781 Z M 12 17.199219 L 12.398438 17.199219 C 12.640625 17.199219 12.800781 17.359375 12.800781 17.601562 C 12.800781 17.839844 12.640625 18 12.398438 18 L 12 18 C 11.761719 18 11.601562 17.839844 11.601562 17.601562 C 11.601562 17.359375 11.761719 17.199219 12 17.199219 Z M 12 0.800781 C 15.511719 0.800781 18.664062 2.441406 20.71875 4.992188 C 17.085938 5.710938 13.945312 8.304688 12.214844 11.667969 C 10.449219 8.175781 7.15625 5.550781 3.328125 4.933594 C 5.386719 2.414062 8.511719 0.800781 12 0.800781 Z M 2.777344 5.667969 C 6.664062 6.136719 10.105469 8.980469 11.757812 12.660156 C 11.550781 13.164062 11.375 13.679688 11.230469 14.210938 C 10.371094 10.988281 7.929688 8.398438 4.800781 7.332031 L 4.800781 7.320312 L 4.554688 7.25 C 3.980469 7.070312 3.382812 6.941406 2.769531 6.871094 C 2.542969 6.839844 2.316406 6.816406 2.085938 6.804688 C 2.292969 6.410156 2.523438 6.03125 2.777344 5.667969 Z M 10.71875 15.601562 C 10.773438 15.992188 10.800781 16.394531 10.800781 16.800781 L 10.800781 17.199219 C 10.800781 17.265625 10.800781 17.332031 10.800781 17.398438 C 10.800781 17.425781 10.800781 17.453125 10.804688 17.476562 C 10.800781 17.515625 10.800781 17.558594 10.800781 17.601562 C 10.800781 17.742188 10.824219 17.875 10.863281 18 L 9.558594 18 L 9.558594 15.601562 Z M 9.558594 14.800781 L 9.558594 12.253906 C 10.019531 13.042969 10.363281 13.898438 10.570312 14.800781 Z M 7.199219 14.800781 L 7.199219 9.550781 C 7.792969 10.015625 8.332031 10.550781 8.800781 11.140625 L 8.800781 14.800781 Z M 8.800781 15.601562 L 8.800781 18 L 7.199219 18 L 7.199219 15.601562 Z M 4.800781 14.800781 L 4.800781 8.1875 C 5.359375 8.402344 5.894531 8.667969 6.398438 8.988281 L 6.398438 14.800781 Z M 6.398438 15.601562 L 6.398438 18 L 4.800781 18 L 4.800781 15.601562 Z M 4 7.921875 L 4 14.800781 L 2.398438 14.800781 L 2.398438 7.640625 C 2.941406 7.679688 3.445312 7.792969 3.949219 7.910156 C 3.96875 7.914062 3.984375 7.917969 4 7.921875 Z M 2.484375 17.878906 C 2.460938 17.839844 2.4375 17.800781 2.414062 17.765625 C 2.40625 17.738281 2.398438 17.707031 2.398438 17.679688 L 2.398438 15.601562 L 4 15.601562 L 4 18 L 2.761719 18 C 2.648438 18 2.550781 17.949219 2.484375 17.878906 Z M 5.601562 19.601562 L 5.601562 21.175781 C 5.355469 21.007812 5.121094 20.828125 4.894531 20.640625 C 4.246094 20.089844 3.652344 19.480469 3.121094 18.800781 L 6.800781 18.800781 L 6.800781 19.601562 Z M 18 21.445312 C 16.261719 22.554688 14.203125 23.199219 12 23.199219 C 9.964844 23.199219 8.050781 22.648438 6.398438 21.6875 L 6.398438 20.398438 L 7.601562 20.398438 L 7.601562 18.800781 L 16.800781 18.800781 L 16.800781 20.398438 L 18 20.398438 Z M 19.460938 20.335938 C 19.417969 20.371094 19.378906 20.40625 19.339844 20.441406 C 19.324219 20.453125 19.308594 20.46875 19.296875 20.480469 C 19.25 20.519531 19.203125 20.558594 19.15625 20.597656 C 19.042969 20.695312 18.921875 20.789062 18.800781 20.878906 L 18.800781 19.601562 L 17.601562 19.601562 L 17.601562 18.800781 L 20.878906 18.800781 C 20.453125 19.34375 19.984375 19.863281 19.460938 20.335938 Z M 22 16.878906 C 22 16.9375 21.996094 16.992188 21.988281 17.050781 C 21.867188 17.28125 21.742188 17.507812 21.605469 17.734375 C 21.40625 17.902344 21.152344 18 20.878906 18 L 20.398438 18 L 20.398438 15.601562 L 22 15.601562 Z M 22 14.800781 L 20.398438 14.800781 L 20.398438 7.921875 C 20.921875 7.800781 21.441406 7.679688 22 7.640625 Z M 23.195312 12.253906 C 23.195312 12.277344 23.195312 12.300781 23.195312 12.324219 C 23.191406 12.398438 23.191406 12.46875 23.1875 12.539062 C 23.1875 12.554688 23.183594 12.570312 23.183594 12.585938 C 23.179688 12.667969 23.175781 12.746094 23.167969 12.828125 C 23.167969 12.855469 23.164062 12.882812 23.164062 12.90625 C 23.15625 12.96875 23.152344 13.027344 23.148438 13.085938 C 23.144531 13.113281 23.140625 13.140625 23.140625 13.164062 C 23.132812 13.242188 23.121094 13.320312 23.113281 13.398438 C 23.109375 13.425781 23.105469 13.453125 23.101562 13.480469 C 23.09375 13.535156 23.085938 13.589844 23.078125 13.644531 C 23.074219 13.675781 23.070312 13.707031 23.0625 13.738281 C 23.054688 13.808594 23.042969 13.878906 23.027344 13.949219 C 23.023438 13.976562 23.019531 14 23.015625 14.023438 C 23.003906 14.085938 22.992188 14.148438 22.980469 14.207031 C 22.972656 14.238281 22.96875 14.265625 22.960938 14.296875 C 22.949219 14.355469 22.9375 14.414062 22.921875 14.46875 C 22.917969 14.492188 22.914062 14.515625 22.90625 14.539062 C 22.890625 14.613281 22.871094 14.691406 22.851562 14.765625 C 22.847656 14.777344 22.847656 14.789062 22.84375 14.800781 L 22.800781 14.800781 L 22.800781 9.042969 C 22.808594 9.070312 22.816406 9.097656 22.824219 9.128906 C 23.066406 10.0625 23.199219 11.023438 23.199219 12 C 23.199219 12.085938 23.199219 12.171875 23.195312 12.253906 Z M 23.195312 12.253906"/>
</svg>
