<svg xmlns="http://www.w3.org/2000/svg" width="32" height="32" viewBox="0 0 24 24">
    <path d="M23.996 11.688l-.012-.29v-.015a12.416 12.416 0 0 0-1.023-4.344l-.121-.238h-.031C20.859 2.785 16.739 0 12 0 8.062 0 4.55 1.922 2.36 4.879a.385.385 0 0 0-.184.254c-.371.527-.7 1.082-.985 1.668h-.03l-.079.238a11.826 11.826 0 0 0-1.066 4.344c0 .023 0 .05-.004.078-.004.074-.004.152-.008.226C0 11.793 0 11.896 0 12c0 .094 0 .188.004.277v.067l.012.254v.023c.039.738.14 1.465.312 2.18H.32l.043.144c.106.407.23.813.375 1.207.317.887.742 1.723 1.262 2.489l.027.035.051.086c.961 1.398 2.242 2.636 3.723 3.52l.597.359v-.04A11.903 11.903 0 0 0 12 24c2.184 0 4.23-.59 6-1.617v.015l.297-.195a12.371 12.371 0 0 0 2.066-1.617c.032-.035.067-.066.102-.102l.031-.03c.324-.321.629-.665.91-1.028.164-.203.317-.41.465-.625h.008l.121-.16.64-.641h-.19c.136-.191.238-.414.296-.652.383-.774.68-1.578.89-2.403l.044-.144h-.008c.172-.715.273-1.442.312-2.18v-.023l.012-.254v-.067C24 12.187 24 12.094 24 12c0-.105 0-.207-.004-.313zM1.602 16.09a5.482 5.482 0 0 1-.16-.488h.16zm0-1.29h-.446c-.004-.01-.004-.023-.008-.034a4.768 4.768 0 0 1-.07-.297 2.216 2.216 0 0 1-.039-.172c-.008-.031-.012-.059-.02-.09l-.035-.184-.011-.074a1.98 1.98 0 0 1-.035-.21.782.782 0 0 1-.016-.094l-.024-.165-.011-.082c-.008-.078-.02-.156-.028-.234a.587.587 0 0 0-.007-.078 3.052 3.052 0 0 0-.016-.18c0-.023-.004-.05-.004-.078a5.038 5.038 0 0 1-.016-.242c-.003-.016-.003-.031-.003-.047-.004-.07-.004-.14-.008-.215v-.07C.8 12.172.8 12.086.8 12c0-1.414.277-2.797.8-4.11zM21.93 6.833c-.098.012-.192.02-.285.031a9.801 9.801 0 0 0-1.797.387l-.246.07v.012a9.399 9.399 0 0 0-1.641.738v-.03l-.406.273c-.461.289-.895.613-1.305.968-.43.38-.828.79-1.184 1.239a9.986 9.986 0 0 0-1.886 3.671 13.103 13.103 0 0 0-.535-1.59c1.593-3.558 4.847-6.3 8.609-6.89.246.36.473.734.676 1.121zm-3.97 7.969V9a9.178 9.178 0 0 1 1.642-.816V14.8zm1.642.8V18H17.96v-2.398zm-4-.8v-3.64c.476-.602 1-1.122 1.597-1.602V14.8zm1.597.8V18h-1.597v-2.398zm-3.605 1.876a.48.48 0 0 0 .008-.079c0-.066-.004-.132-.004-.199h.004v-.398c0-.406.027-.809.078-1.2h1.12V18h-1.265a1.218 1.218 0 0 0 .059-.523zm.23-2.676a9.173 9.173 0 0 1 .977-2.5v2.5zm-1.172.8c.043.262.078.532.102.797h-1.11c.024-.265.06-.535.102-.796zm-.75-.8c.082-.352.18-.696.29-1.035.117.34.214.683.296 1.035zM12 17.199h.398c.243 0 .403.16.403.403 0 .238-.16.398-.403.398H12c-.238 0-.398-.16-.398-.398 0-.243.16-.403.398-.403zM12 .801c3.512 0 6.664 1.64 8.719 4.191-3.633.719-6.774 3.313-8.504 6.676-1.766-3.492-5.059-6.117-8.887-6.734C5.387 2.414 8.512.8 12 .8zM2.777 5.668c3.887.469 7.328 3.312 8.98 6.992a13.17 13.17 0 0 0-.527 1.55A10.028 10.028 0 0 0 4.8 7.333V7.32l-.245-.07a9.666 9.666 0 0 0-1.785-.379 7.938 7.938 0 0 0-.684-.066c.207-.395.437-.774.691-1.137zm7.942 9.934c.054.39.082.793.082 1.199V17.399c0 .027 0 .054.004.078-.004.039-.004.082-.004.125 0 .14.023.273.062.398H9.56v-2.398zm-1.16-.801v-2.547c.46.789.804 1.644 1.011 2.547zm-2.36 0V9.55c.594.465 1.133 1 1.602 1.59v3.66zm1.602.8V18H7.199v-2.398zm-4-.8V8.187c.558.215 1.094.481 1.597.801v5.813zm1.597.8V18H4.801v-2.398zM4 7.922v6.88H2.398V7.64c.543.039 1.047.152 1.551.27L4 7.92zM2.484 17.88a2.875 2.875 0 0 0-.07-.113.332.332 0 0 1-.016-.086v-2.078H4V18H2.762a.382.382 0 0 1-.278-.121zm3.118 1.723v1.574a9.585 9.585 0 0 1-.707-.535A12.554 12.554 0 0 1 3.12 18.8h3.68v.8zM18 21.445a11.12 11.12 0 0 1-6 1.754c-2.035 0-3.95-.55-5.602-1.512v-1.289h1.204v-1.597H16.8v1.597H18zm1.46-1.11a3.35 3.35 0 0 0-.12.106c-.016.012-.031.028-.043.04l-.14.117a6.243 6.243 0 0 1-.356.28v-1.276h-1.2V18.8h3.278a12.21 12.21 0 0 1-1.418 1.535zM22 16.88c0 .058-.004.113-.012.172-.12.23-.246.457-.383.683-.199.168-.453.266-.726.266h-.48v-2.398H22zm0-2.078h-1.602V7.92c.524-.12 1.043-.241 1.602-.28zm1.195-2.547v.07c-.004.074-.004.145-.008.215 0 .016-.003.031-.003.047-.004.082-.008.16-.016.242 0 .027-.004.055-.004.078a3.052 3.052 0 0 0-.016.18.587.587 0 0 0-.007.078c-.008.078-.02.156-.028.234l-.011.082-.024.165a.782.782 0 0 1-.015.093c-.008.07-.02.14-.036.211l-.011.074-.036.184c-.007.031-.011.059-.02.09a2.216 2.216 0 0 1-.038.172 4.768 4.768 0 0 1-.07.297c-.004.011-.004.023-.008.035H22.8V9.043l.023.086c.242.934.375 1.894.375 2.871 0 .086 0 .172-.004.254zm0 0"/>
</svg>
