<svg xmlns="http://www.w3.org/2000/svg" width="32" height="32" viewBox="0 0 24 24">
    <path d="M12 16.398438C11.761719 16.398438 11.601562 16.558594 11.601562 16.800781 11.601562 17.039062 11.761719 17.199219 12 17.199219 12.238281 17.199219 12.398438 17.039062 12.398438 16.800781 12.398438 16.558594 12.238281 16.398438 12 16.398438zM12 14C12.238281 14 12.398438 13.839844 12.398438 13.601562 12.398438 13.359375 12.238281 13.199219 12 13.199219 11.761719 13.199219 11.601562 13.359375 11.601562 13.601562 11.601562 13.839844 11.761719 14 12 14zM14.398438 17.199219C14.160156 17.199219 14 17.359375 14 17.601562 14 17.839844 14.160156 18 14.398438 18 14.640625 18 14.800781 17.839844 14.800781 17.601562 14.800781 17.359375 14.640625 17.199219 14.398438 17.199219zM14 14.398438C14.238281 14.398438 14.398438 14.238281 14.398438 14 14.398438 13.761719 14.238281 13.601562 14 13.601562 13.761719 13.601562 13.601562 13.761719 13.601562 14 13.601562 14.238281 13.761719 14.398438 14 14.398438zM13.199219 11.199219C13.441406 11.199219 13.601562 11.039062 13.601562 10.800781 13.601562 10.558594 13.441406 10.398438 13.199219 10.398438 12.960938 10.398438 12.800781 10.558594 12.800781 10.800781 12.800781 11.039062 12.960938 11.199219 13.199219 11.199219zM12 10.398438C12.238281 10.398438 12.398438 10.238281 12.398438 10 12.398438 9.761719 12.238281 9.601562 12 9.601562 11.761719 9.601562 11.601562 9.761719 11.601562 10 11.601562 10.238281 11.761719 10.398438 12 10.398438zM12 8C12.238281 8 12.398438 7.839844 12.398438 7.601562 12.398438 7.359375 12.238281 7.199219 12 7.199219 11.761719 7.199219 11.601562 7.359375 11.601562 7.601562 11.601562 7.839844 11.761719 8 12 8zM10.398438 10.800781C10.398438 11.039062 10.558594 11.199219 10.800781 11.199219 11.039062 11.199219 11.199219 11.039062 11.199219 10.800781 11.199219 10.558594 11.039062 10.398438 10.800781 10.398438 10.558594 10.398438 10.398438 10.558594 10.398438 10.800781zM15.601562 19.199219C15.359375 19.199219 15.199219 19.359375 15.199219 19.601562 15.199219 19.839844 15.359375 20 15.601562 20 15.839844 20 16 19.839844 16 19.601562 16 19.359375 15.839844 19.199219 15.601562 19.199219zM9.601562 17.199219C9.359375 17.199219 9.199219 17.359375 9.199219 17.601562 9.199219 17.839844 9.359375 18 9.601562 18 9.839844 18 10 17.839844 10 17.601562 10 17.359375 9.839844 17.199219 9.601562 17.199219zM10 14.398438C10.238281 14.398438 10.398438 14.238281 10.398438 14 10.398438 13.761719 10.238281 13.601562 10 13.601562 9.761719 13.601562 9.601562 13.761719 9.601562 14 9.601562 14.238281 9.761719 14.398438 10 14.398438zM8.398438 19.199219C8.160156 19.199219 8 19.359375 8 19.601562 8 19.839844 8.160156 20 8.398438 20 8.640625 20 8.800781 19.839844 8.800781 19.601562 8.800781 19.359375 8.640625 19.199219 8.398438 19.199219zM8.398438 19.199219"/>
    <path d="M 23.796875 9.800781 L 23.800781 9.800781 L 23.765625 9.652344 C 23.71875 9.417969 23.667969 9.183594 23.605469 8.953125 C 23.164062 7.25 22.332031 5.632812 21.199219 4.28125 L 21.039062 4.121094 L 21.03125 4.121094 C 18.828125 1.601562 15.59375 0 12 0 C 5.398438 0 0 5.398438 0 12 C 0 17.636719 3.9375 22.398438 9.199219 23.667969 L 9.199219 23.679688 L 9.519531 23.761719 C 9.9375 23.84375 10.367188 23.90625 10.800781 23.945312 L 10.800781 23.960938 L 10.984375 23.960938 C 11.148438 23.972656 11.316406 23.984375 11.484375 23.988281 C 11.671875 24 11.84375 24 12 24 C 12.238281 24 12.519531 24 12.839844 24 L 13.199219 23.960938 L 13.199219 23.945312 C 13.632812 23.90625 14.0625 23.84375 14.480469 23.761719 L 14.800781 23.679688 L 14.800781 23.667969 C 20.0625 22.398438 24 17.636719 24 12 C 24 11.25 23.929688 10.515625 23.796875 9.800781 Z M 20.734375 5.011719 C 21.175781 5.5625 21.570312 6.15625 21.902344 6.785156 C 22.300781 7.550781 22.621094 8.363281 22.839844 9.199219 L 19 9.199219 C 18.640625 9.199219 18.359375 9.039062 18.160156 8.761719 C 18 8.519531 17.921875 8.160156 18.039062 7.839844 C 18.160156 7.441406 18.601562 7.160156 19.039062 7.160156 L 19.039062 7.121094 L 19.199219 7.121094 C 19.679688 7.121094 20.160156 6.839844 20.160156 6.359375 C 20.160156 5.46875 20.460938 5.140625 20.734375 5.011719 Z M 9.199219 22.84375 C 8.503906 22.664062 7.835938 22.417969 7.199219 22.113281 L 7.199219 21.601562 L 9.199219 21.601562 Z M 12.398438 23.191406 C 12.363281 23.191406 12.332031 23.195312 12.296875 23.195312 C 12.199219 23.199219 12.097656 23.199219 12 23.199219 C 11.902344 23.199219 11.800781 23.199219 11.703125 23.195312 C 11.667969 23.195312 11.636719 23.191406 11.601562 23.191406 L 11.601562 21.199219 C 11.601562 20.960938 11.761719 20.800781 12 20.800781 C 12.238281 20.800781 12.398438 20.960938 12.398438 21.199219 Z M 14 23.019531 C 13.738281 23.066406 13.46875 23.105469 13.199219 23.136719 L 13.199219 21.199219 C 13.199219 20.519531 12.679688 20 12 20 C 11.320312 20 10.800781 20.519531 10.800781 21.199219 L 10.800781 23.136719 C 10.53125 23.105469 10.261719 23.066406 10 23.019531 L 10 20.800781 C 10 19.679688 10.878906 18.800781 12 18.800781 C 13.121094 18.800781 14 19.679688 14 20.800781 Z M 16.800781 22.113281 C 16.164062 22.417969 15.496094 22.664062 14.800781 22.84375 L 14.800781 21.601562 L 16.800781 21.601562 Z M 16.800781 20.800781 L 14.800781 20.800781 C 14.800781 19.238281 13.558594 18 12 18 C 10.441406 18 9.199219 19.238281 9.199219 20.800781 L 7.199219 20.800781 L 7.199219 20.398438 C 7.199219 18.132812 8.796875 16.21875 10.917969 15.722656 C 10.953125 15.714844 10.984375 15.707031 11.019531 15.703125 C 11.027344 15.699219 11.035156 15.699219 11.042969 15.695312 C 11.074219 15.691406 11.101562 15.683594 11.132812 15.679688 C 11.144531 15.675781 11.15625 15.675781 11.167969 15.671875 C 11.195312 15.667969 11.222656 15.664062 11.25 15.660156 C 11.265625 15.65625 11.277344 15.65625 11.292969 15.652344 C 11.320312 15.648438 11.34375 15.644531 11.371094 15.640625 C 11.386719 15.640625 11.40625 15.636719 11.421875 15.636719 C 11.445312 15.632812 11.46875 15.628906 11.492188 15.628906 C 11.511719 15.625 11.53125 15.621094 11.550781 15.621094 C 11.574219 15.621094 11.59375 15.617188 11.617188 15.617188 C 11.640625 15.613281 11.664062 15.613281 11.683594 15.609375 C 11.703125 15.609375 11.722656 15.609375 11.742188 15.605469 C 11.769531 15.605469 11.796875 15.605469 11.824219 15.605469 C 11.839844 15.601562 11.855469 15.601562 11.871094 15.601562 C 11.914062 15.601562 11.957031 15.601562 12 15.601562 C 12.042969 15.601562 12.085938 15.601562 12.128906 15.601562 C 12.144531 15.601562 12.160156 15.601562 12.175781 15.601562 C 12.203125 15.605469 12.230469 15.605469 12.257812 15.605469 C 12.277344 15.609375 12.292969 15.609375 12.3125 15.609375 C 12.335938 15.613281 12.359375 15.613281 12.382812 15.617188 C 12.402344 15.617188 12.421875 15.617188 12.441406 15.621094 C 12.464844 15.621094 12.488281 15.625 12.511719 15.628906 C 12.53125 15.628906 12.550781 15.632812 12.570312 15.632812 C 12.59375 15.636719 12.617188 15.640625 12.640625 15.644531 C 12.65625 15.644531 12.675781 15.648438 12.691406 15.648438 C 12.71875 15.652344 12.742188 15.65625 12.769531 15.664062 C 12.785156 15.664062 12.800781 15.667969 12.8125 15.667969 C 12.84375 15.675781 12.875 15.679688 12.90625 15.6875 C 12.914062 15.6875 12.925781 15.691406 12.933594 15.691406 C 14.003906 15.90625 14.964844 16.488281 15.679688 17.359375 L 15.925781 17.644531 C 16.476562 18.425781 16.800781 19.378906 16.800781 20.398438 Z M 11.867188 6.011719 C 11.871094 6.011719 11.875 6.011719 11.878906 6.011719 C 11.898438 6.007812 11.914062 6.003906 11.933594 6.003906 C 11.957031 6 11.976562 6 12 6 C 12.023438 6 12.046875 6 12.066406 6.003906 C 12.085938 6.003906 12.101562 6.007812 12.121094 6.011719 C 12.125 6.011719 12.128906 6.011719 12.132812 6.011719 C 12.3125 6.042969 12.457031 6.136719 12.519531 6.199219 L 12.585938 6.257812 C 12.71875 6.402344 12.800781 6.589844 12.800781 6.800781 L 12.800781 8.503906 C 12.585938 8.445312 12.359375 8.414062 12.128906 8.402344 C 12.085938 8.402344 12.042969 8.398438 12 8.398438 C 11.957031 8.398438 11.914062 8.402344 11.871094 8.402344 C 11.640625 8.414062 11.417969 8.445312 11.199219 8.503906 L 11.199219 6.800781 C 11.199219 6.589844 11.28125 6.402344 11.414062 6.257812 L 11.480469 6.199219 C 11.542969 6.136719 11.6875 6.042969 11.867188 6.011719 Z M 11.601562 5.238281 L 11.601562 4.800781 C 11.601562 4.558594 11.761719 4.398438 12 4.398438 C 12.238281 4.398438 12.398438 4.558594 12.398438 4.800781 L 12.398438 5.238281 C 12.28125 5.199219 12.121094 5.199219 12 5.199219 C 11.878906 5.199219 11.71875 5.199219 11.601562 5.238281 Z M 12.011719 9.199219 C 12.332031 9.203125 12.644531 9.269531 12.925781 9.386719 C 12.964844 9.402344 13 9.421875 13.039062 9.441406 L 13.140625 9.492188 C 13.890625 9.898438 14.398438 10.691406 14.398438 11.601562 L 14.398438 11.960938 C 13.972656 11.746094 13.484375 11.628906 12.988281 11.605469 C 12.984375 11.605469 12.984375 11.605469 12.984375 11.605469 C 12.921875 11.601562 12.863281 11.601562 12.800781 11.601562 L 11.199219 11.601562 C 11.136719 11.601562 11.078125 11.601562 11.015625 11.605469 C 11.015625 11.605469 11.015625 11.605469 11.011719 11.605469 C 10.515625 11.628906 10.027344 11.746094 9.601562 11.960938 L 9.601562 11.601562 C 9.601562 10.742188 10.054688 9.988281 10.734375 9.5625 L 11 9.441406 C 11.316406 9.28125 11.664062 9.203125 12.011719 9.199219 Z M 10.90625 12.414062 C 10.910156 12.414062 10.914062 12.414062 10.914062 12.414062 C 10.957031 12.410156 10.996094 12.40625 11.039062 12.40625 C 11.046875 12.40625 11.054688 12.402344 11.0625 12.402344 C 11.109375 12.402344 11.152344 12.398438 11.199219 12.398438 L 12.800781 12.398438 C 12.847656 12.398438 12.890625 12.402344 12.9375 12.402344 C 12.945312 12.402344 12.953125 12.40625 12.960938 12.40625 C 13.003906 12.40625 13.042969 12.410156 13.085938 12.414062 C 13.085938 12.414062 13.089844 12.414062 13.09375 12.414062 C 14.511719 12.558594 15.601562 13.738281 15.601562 15.199219 L 15.601562 16.121094 C 14.714844 15.371094 13.597656 14.894531 12.375 14.8125 C 12.371094 14.8125 12.367188 14.8125 12.359375 14.8125 C 12.328125 14.808594 12.292969 14.808594 12.257812 14.804688 C 12.238281 14.804688 12.222656 14.804688 12.203125 14.804688 C 12.179688 14.804688 12.15625 14.800781 12.132812 14.800781 C 12.089844 14.800781 12.042969 14.800781 12 14.800781 C 11.957031 14.800781 11.910156 14.800781 11.867188 14.800781 C 11.84375 14.800781 11.820312 14.804688 11.796875 14.804688 C 11.777344 14.804688 11.761719 14.804688 11.742188 14.804688 C 11.707031 14.808594 11.671875 14.808594 11.640625 14.8125 C 11.632812 14.8125 11.628906 14.8125 11.625 14.8125 C 10.402344 14.894531 9.285156 15.371094 8.398438 16.121094 L 8.398438 15.199219 C 8.398438 13.738281 9.488281 12.558594 10.90625 12.414062 Z M 17.601562 21.6875 L 17.601562 20.398438 C 17.601562 19.101562 17.152344 17.898438 16.398438 16.945312 L 16.398438 15.199219 C 16.398438 14.125 15.9375 13.167969 15.199219 12.507812 L 15.199219 11.601562 C 15.199219 10.421875 14.554688 9.386719 13.601562 8.832031 L 13.601562 6.800781 C 13.601562 6.398438 13.449219 6.027344 13.199219 5.746094 L 13.199219 4.800781 C 13.199219 4.261719 12.875 3.824219 12.398438 3.664062 L 12.398438 2 C 12.398438 1.761719 12.238281 1.601562 12 1.601562 C 11.761719 1.601562 11.601562 1.761719 11.601562 2 L 11.601562 3.664062 C 11.125 3.824219 10.800781 4.261719 10.800781 4.800781 L 10.800781 5.746094 C 10.550781 6.027344 10.398438 6.398438 10.398438 6.800781 L 10.398438 8.832031 C 9.445312 9.386719 8.800781 10.421875 8.800781 11.601562 L 8.800781 12.507812 C 8.0625 13.167969 7.601562 14.125 7.601562 15.199219 L 7.601562 16.945312 C 6.847656 17.898438 6.398438 19.101562 6.398438 20.398438 L 6.398438 21.6875 C 3.058594 19.746094 0.800781 16.125 0.800781 12 C 0.800781 5.839844 5.839844 0.800781 12 0.800781 C 15.238281 0.800781 18.167969 2.195312 20.214844 4.410156 C 19.792969 4.691406 19.386719 5.242188 19.359375 6.320312 C 19.320312 6.359375 19.28125 6.359375 19.199219 6.359375 L 19.078125 6.359375 C 18.28125 6.359375 17.558594 6.878906 17.320312 7.601562 C 17.121094 8.160156 17.199219 8.761719 17.558594 9.238281 C 17.921875 9.71875 18.480469 10 19.039062 10 L 22.921875 10 C 22.953125 10 22.984375 9.996094 23.019531 9.996094 C 23.136719 10.644531 23.199219 11.316406 23.199219 12 C 23.199219 16.125 20.941406 19.746094 17.601562 21.6875 Z M 17.601562 21.6875"/>
</svg>
