<svg xmlns="http://www.w3.org/2000/svg" width="32" height="32" viewBox="0 0 24 24">
    <path d="M24 15.602c0-.54-.328-.977-.8-1.137v-4.93c.472-.16.8-.598.8-1.137 0-.68-.52-1.199-1.2-1.199h-6.488L14.48 2.121a.822.822 0 0 0-.761-.52H1.602c-.442 0-.801.36-.801.797v4.868C.328 7.422 0 7.863 0 8.398c0 .54.328.977.8 1.137v4.93c-.472.16-.8.598-.8 1.137 0 .535.328.976.8 1.132v4.868H.399c-.238 0-.398.16-.398.398 0 .238.16.398.398.398h23.204c.238 0 .398-.16.398-.398 0-.238-.16-.398-.398-.398h-.403v-4.868c.473-.156.801-.597.801-1.132zM1.602 2.398h12.117L15.44 7.2h-1.84V4.801c0-.88-.722-1.602-1.601-1.602s-1.602.723-1.602 1.602v2.398h-.796V4.801c0-.88-.723-1.602-1.602-1.602-.879 0-1.602.723-1.602 1.602v2.398h-.796V4.801c0-.88-.723-1.602-1.602-1.602-.879 0-1.602.723-1.602 1.602v2.398h-.796zM12.8 4.801v2.398h-1.602V4.801a.802.802 0 0 1 1.602 0zm-4 0v2.398H7.199V4.801a.802.802 0 0 1 1.602 0zm-4 0v2.398H3.199V4.801a.802.802 0 0 1 1.602 0zm0 16.8H3.199V19.2c0-.437.36-.8.801-.8.441 0 .8.363.8.8zm4 0H7.199V19.2c0-.437.36-.8.801-.8.441 0 .8.363.8.8zm4 0h-1.602V19.2c0-.437.36-.8.801-.8.441 0 .8.363.8.8zm4 0h-1.602V19.2c0-.437.36-.8.801-.8.441 0 .8.363.8.8zm4 0h-1.602V19.2c0-.437.36-.8.801-.8.441 0 .8.363.8.8zm1.597 0h-.796V19.2c0-.879-.723-1.597-1.602-1.597-.879 0-1.602.718-1.602 1.597v2.403h-.796v-2.403c0-.879-.723-1.597-1.602-1.597-.879 0-1.602.718-1.602 1.597v2.403h-.796v-2.403c0-.879-.723-1.597-1.602-1.597-.879 0-1.602.718-1.602 1.597v2.403h-.796v-2.403c0-.879-.723-1.597-1.602-1.597-.879 0-1.602.718-1.602 1.597v2.403h-.796v-2.403c0-.879-.723-1.597-1.602-1.597-.879 0-1.602.718-1.602 1.597v2.403h-.796V16.8h20.796zM22.801 16H1.199c-.238 0-.398-.16-.398-.398 0-.243.16-.403.398-.403h21.602c.238 0 .398.16.398.403 0 .238-.16.398-.398.398zM20 10.398c-.879 0-1.602.723-1.602 1.602v2.398h-.796V12c0-.879-.723-1.602-1.602-1.602-.879 0-1.602.723-1.602 1.602v2.398h-.796V12c0-.879-.723-1.602-1.602-1.602-.879 0-1.602.723-1.602 1.602v2.398h-.796V12c0-.879-.723-1.602-1.602-1.602-.879 0-1.602.723-1.602 1.602v2.398h-.796V12c0-.879-.723-1.602-1.602-1.602-.879 0-1.602.723-1.602 1.602v2.398h-.796V9.602h20.796v4.796h-.796V12c0-.879-.723-1.602-1.602-1.602zM20.8 12v2.398h-1.6V12a.802.802 0 0 1 1.6 0zm-4 0v2.398h-1.6V12a.802.802 0 0 1 1.6 0zm-4 0v2.398h-1.6V12a.802.802 0 0 1 1.6 0zm-4 0v2.398H7.2V12a.802.802 0 0 1 1.6 0zm-4 0v2.398H3.2V12a.802.802 0 0 1 1.6 0zm18-3.2H1.2c-.24 0-.4-.16-.4-.402C.8 8.16.96 8 1.2 8h21.6c.24 0 .4.16.4.398 0 .243-.16.403-.4.403zm0 0"/>
</svg>
