<svg xmlns="http://www.w3.org/2000/svg" width="32" height="32" viewBox="0 0 24 24">
    <path d="M24 12c0-.75-.07-1.484-.203-2.2h.004l-.035-.148A12.014 12.014 0 0 0 21.2 4.281l-.16-.16h-.009A12.027 12.027 0 0 0 14 .168V.16L13.742.13a9.223 9.223 0 0 0-.66-.078c-.02-.004-.043-.004-.062-.008a24.023 24.023 0 0 0-.149-.012l-.25-.015h-.02l-.277-.012h-.027C12.199 0 12.105 0 12.007 0h-.057c-.055 0-.114 0-.173.004-.547.008-1.09.055-1.62.137L10 .16v.007C4.344 1.128 0 6.082 0 12c0 4.031 2.012 7.613 5.086 9.793l-.008.008.281.199c.891.598 1.852 1.066 2.86 1.398.035.02.074.032.117.036.984.312 2.008.5 3.047.55h.012l.261.012h.063c.094.004.187.004.281.004.094 0 .188 0 .281-.004h.063l.261-.012h.012c.996-.05 1.977-.222 2.922-.511A11.562 11.562 0 0 0 18.641 22l.28-.2-.007-.007C21.988 19.613 24 16.031 24 12zm-3.266-6.988c.442.55.836 1.144 1.168 1.773.399.766.72 1.578.938 2.414H19c-.36 0-.64-.16-.84-.437a1.063 1.063 0 0 1-.12-.922c.12-.399.562-.68 1-.68v-.039h.16c.48 0 .96-.281.96-.762 0-.89.3-1.218.574-1.347zM10.801.879c.8-.078 1.597-.078 2.398 0v.723h-2.398zM14 2.399h.8v.8H9.2v-.8zm.074 15.687l1.485 1.394L14 21.04l-1.441-1.438zm-1.676.555V16.52l1.098 1.023zm2.235-1.114l1.055-1.054c.25.683.527 1.37.82 2.058l-.387.39zm.969-2.328H14.8v-.8h.8zm-.563.801l-.984.984L13.004 16zm-1.84-.8v-.802H14v.801zm.961-1.598l.473-.477c.043.16.082.316.129.477zm-1.12 0h-.642v-3.043l1.84 1.84zM10 18.16l1.434 1.434L9.96 21l-1.402-1.398zm-2 .88l-.504-.505a41.06 41.06 0 0 0 .816-2.062l1.13 1.129zM8.96 16h2.08L10 17.04zm-.562-.8v-.802H9.2v.801zm.84-1.598c.047-.16.086-.317.13-.477l.472.477zM10 15.199v-.8h.8v.8zm.96-1.597l-1.198-1.204 1.84-1.84v3.044zm-1.155-2.368c.195-.953.34-1.898.441-2.828l1.195 1.196zm.707-3.683l1.09-1.004V8.64zm-.133-.957c.016-.332.02-.664.02-.992V4.559l1.05 1.05zM10.96 4h2.078L12 5.04zm2.664 2.664l-1.066-1.062 1.043-1.043v1.043c0 .351.007.707.023 1.062zm.129 1.742c.101.93.246 1.875.441 2.828L12.56 9.602zm-1.356.235V6.559l1.043 1.043zM.801 12C.8 6.523 4.785 1.93 10 .98v.622H8.398V4h1.204v1.602c0 .605-.028 1.214-.07 1.835a.293.293 0 0 0-.009.118c-.156 1.949-.535 3.965-1.125 6.047H6V16h1.66a39.263 39.263 0 0 1-1.008 2.547 41.21 41.21 0 0 1-1.199 2.523C2.641 19.031.801 15.723.801 12zm6.8 2.398v.801h-.8v-.8zm-.16 5.204l-.793.789c.176-.36.344-.72.504-1.078zm.875 2.972c-.086-.031-.171-.062-.254-.094-.039-.015-.082-.03-.12-.046-.02-.008-.036-.016-.055-.02-.5-.2-.98-.434-1.442-.7L8 20.16l1.387 1.387zm2.621.574l-.113-.011c-.05-.004-.097-.012-.148-.016-.07-.008-.14-.02-.215-.027-.016-.004-.031-.004-.047-.008a10.896 10.896 0 0 1-1.23-.25l.765-.727 1.043 1.043c-.015 0-.035 0-.055-.004zm.665-.507l-1.082-1.078 1.082-1.032zm0-4l-1.043-1.04 1.043-1.042zm0-3.442v-.8h.796v.8zm.796 7.442v-2.082l1.043 1.043zm1.188.445c-.016.004-.031.004-.047.008-.074.008-.144.02-.215.027-.05.004-.097.012-.148.016l-.114.011c-.019.004-.039.004-.054.004L14 22.16l.707.707c-.367.09-.742.164-1.121.219zm2.527-.672c-.02.004-.035.012-.054.02l-.122.046c-.12.047-.242.09-.367.13l-1.011-1.008 1.578-1.579 1.656 1.551c-.531.324-1.094.606-1.68.84zm.582-2.953l.157-.152c.082.175.16.351.246.527zm1.852 1.61a40.145 40.145 0 0 1-1.2-2.524.409.409 0 0 0-.046-.113A39.263 39.263 0 0 1 16.34 16H18v-2.398h-2.398c-.79-2.782-1.204-5.45-1.204-8V4h1.204V1.602H14V.98a11.193 11.193 0 0 1 6.215 3.43c-.422.281-.828.832-.856 1.91-.039.04-.078.04-.16.04h-.12c-.798 0-1.52.519-1.759 1.242-.199.558-.12 1.16.239 1.636.363.48.921.762 1.48.762h3.883c.031 0 .062-.004.098-.004.117.649.18 1.32.18 2.004 0 3.723-1.84 7.031-4.653 9.07zm-2.149-5.872v-.8h.801v.8zm0 0"/>
</svg>
