<svg xmlns="http://www.w3.org/2000/svg" width="32" height="32" viewBox="0 0 24 24">
    <path d="M 24 12 C 24 11.25 23.929688 10.515625 23.796875 9.800781 L 23.800781 9.800781 L 23.765625 9.652344 C 23.71875 9.417969 23.667969 9.183594 23.605469 8.953125 C 23.164062 7.25 22.332031 5.632812 21.199219 4.28125 L 21.039062 4.121094 L 21.03125 4.121094 C 19.246094 2.078125 16.78125 0.640625 14 0.167969 L 14 0.160156 L 13.742188 0.128906 C 13.523438 0.09375 13.304688 0.0703125 13.082031 0.0507812 C 13.0625 0.046875 13.039062 0.046875 13.019531 0.0429688 C 12.972656 0.0390625 12.921875 0.0351562 12.871094 0.03125 C 12.789062 0.0273438 12.703125 0.0195312 12.621094 0.015625 C 12.613281 0.015625 12.609375 0.015625 12.601562 0.015625 C 12.511719 0.0117188 12.417969 0.0078125 12.324219 0.00390625 C 12.316406 0.00390625 12.304688 0.00390625 12.296875 0.00390625 C 12.199219 0 12.105469 0 12.007812 0 C 12.003906 0 12.003906 0 12 0 C 11.984375 0 11.96875 0 11.949219 0 C 11.894531 0 11.835938 0 11.777344 0.00390625 C 11.230469 0.0117188 10.6875 0.0585938 10.15625 0.140625 L 10 0.160156 L 10 0.167969 C 4.34375 1.128906 0 6.082031 0 12 C 0 16.03125 2.011719 19.613281 5.085938 21.792969 L 5.078125 21.800781 L 5.359375 22 C 6.25 22.597656 7.210938 23.066406 8.21875 23.398438 C 8.253906 23.417969 8.292969 23.429688 8.335938 23.433594 C 9.320312 23.746094 10.34375 23.933594 11.382812 23.984375 C 11.386719 23.984375 11.390625 23.984375 11.394531 23.984375 C 11.480469 23.988281 11.566406 23.992188 11.65625 23.996094 C 11.675781 23.996094 11.699219 23.996094 11.71875 23.996094 C 11.8125 24 11.90625 24 12 24 C 12.09375 24 12.1875 24 12.28125 23.996094 C 12.300781 23.996094 12.324219 23.996094 12.34375 23.996094 C 12.433594 23.992188 12.519531 23.988281 12.605469 23.984375 C 12.609375 23.984375 12.613281 23.984375 12.617188 23.984375 C 13.613281 23.933594 14.59375 23.761719 15.539062 23.472656 C 15.566406 23.46875 15.597656 23.457031 15.628906 23.445312 C 16.691406 23.113281 17.707031 22.628906 18.640625 22 L 18.921875 21.800781 L 18.914062 21.792969 C 21.988281 19.613281 24 16.03125 24 12 Z M 20.734375 5.011719 C 21.175781 5.5625 21.570312 6.15625 21.902344 6.785156 C 22.300781 7.550781 22.621094 8.363281 22.839844 9.199219 L 19 9.199219 C 18.640625 9.199219 18.359375 9.039062 18.160156 8.761719 C 18 8.519531 17.921875 8.160156 18.039062 7.839844 C 18.160156 7.441406 18.601562 7.160156 19.039062 7.160156 L 19.039062 7.121094 L 19.199219 7.121094 C 19.679688 7.121094 20.160156 6.839844 20.160156 6.359375 C 20.160156 5.46875 20.460938 5.140625 20.734375 5.011719 Z M 10.800781 0.878906 C 11.601562 0.800781 12.398438 0.800781 13.199219 0.878906 L 13.199219 1.601562 L 10.800781 1.601562 Z M 14 2.398438 L 14.800781 2.398438 L 14.800781 3.199219 L 9.199219 3.199219 L 9.199219 2.398438 Z M 14.074219 18.085938 L 15.558594 19.480469 L 14 21.039062 L 12.558594 19.601562 Z M 12.398438 18.640625 L 12.398438 16.519531 L 13.496094 17.542969 Z M 14.632812 17.527344 L 15.6875 16.472656 C 15.9375 17.15625 16.214844 17.84375 16.507812 18.53125 L 16.121094 18.921875 Z M 15.601562 15.199219 L 14.800781 15.199219 L 14.800781 14.398438 L 15.601562 14.398438 Z M 15.039062 16 L 14.054688 16.984375 L 13.003906 16 Z M 13.199219 15.199219 L 13.199219 14.398438 L 14 14.398438 L 14 15.199219 Z M 14.160156 13.601562 L 14.632812 13.125 C 14.675781 13.285156 14.714844 13.441406 14.761719 13.601562 Z M 13.039062 13.601562 L 12.398438 13.601562 L 12.398438 10.558594 L 14.238281 12.398438 Z M 10 18.160156 L 11.433594 19.59375 L 9.960938 21 L 8.558594 19.601562 Z M 8 19.039062 L 7.496094 18.535156 C 7.789062 17.847656 8.0625 17.160156 8.3125 16.472656 L 9.441406 17.601562 Z M 8.960938 16 L 11.039062 16 L 10 17.039062 Z M 8.398438 15.199219 L 8.398438 14.398438 L 9.199219 14.398438 L 9.199219 15.199219 Z M 9.238281 13.601562 C 9.285156 13.441406 9.324219 13.285156 9.367188 13.125 L 9.839844 13.601562 Z M 10 15.199219 L 10 14.398438 L 10.800781 14.398438 L 10.800781 15.199219 Z M 10.960938 13.601562 L 9.761719 12.398438 L 11.601562 10.558594 L 11.601562 13.601562 Z M 9.804688 11.234375 C 10 10.28125 10.144531 9.335938 10.246094 8.40625 L 11.441406 9.601562 Z M 10.511719 7.550781 L 11.601562 6.546875 L 11.601562 8.640625 Z M 10.378906 6.59375 C 10.394531 6.261719 10.398438 5.929688 10.398438 5.601562 L 10.398438 4.558594 L 11.449219 5.609375 Z M 10.960938 4 L 13.039062 4 L 12 5.039062 Z M 13.625 6.664062 L 12.558594 5.601562 L 13.601562 4.558594 L 13.601562 5.601562 C 13.601562 5.953125 13.609375 6.308594 13.625 6.664062 Z M 13.753906 8.40625 C 13.855469 9.335938 14 10.28125 14.195312 11.234375 L 12.558594 9.601562 Z M 12.398438 8.640625 L 12.398438 6.558594 L 13.441406 7.601562 Z M 0.800781 12 C 0.800781 6.523438 4.785156 1.929688 10 0.980469 L 10 1.601562 L 8.398438 1.601562 L 8.398438 4 L 9.601562 4 L 9.601562 5.601562 C 9.601562 6.207031 9.574219 6.816406 9.53125 7.4375 C 9.519531 7.472656 9.519531 7.515625 9.523438 7.554688 C 9.367188 9.503906 8.988281 11.519531 8.398438 13.601562 L 6 13.601562 L 6 16 L 7.660156 16 C 7.371094 16.808594 7.050781 17.625 6.699219 18.433594 C 6.679688 18.46875 6.664062 18.507812 6.652344 18.546875 C 6.285156 19.394531 5.882812 20.238281 5.453125 21.070312 C 2.640625 19.03125 0.800781 15.722656 0.800781 12 Z M 7.601562 14.398438 L 7.601562 15.199219 L 6.800781 15.199219 L 6.800781 14.398438 Z M 7.441406 19.601562 L 6.648438 20.390625 C 6.824219 20.03125 6.992188 19.671875 7.152344 19.3125 Z M 8.316406 22.574219 C 8.230469 22.542969 8.144531 22.511719 8.0625 22.480469 C 8.023438 22.464844 7.980469 22.449219 7.941406 22.433594 C 7.921875 22.425781 7.90625 22.417969 7.886719 22.414062 C 7.386719 22.214844 6.90625 21.980469 6.445312 21.714844 L 8 20.160156 L 9.386719 21.546875 Z M 10.9375 23.148438 C 10.898438 23.144531 10.859375 23.140625 10.824219 23.136719 C 10.773438 23.132812 10.726562 23.125 10.675781 23.121094 C 10.605469 23.113281 10.535156 23.101562 10.460938 23.09375 C 10.445312 23.089844 10.429688 23.089844 10.414062 23.085938 C 9.996094 23.027344 9.589844 22.941406 9.183594 22.835938 L 9.949219 22.109375 L 10.992188 23.152344 C 10.976562 23.152344 10.957031 23.152344 10.9375 23.148438 Z M 11.601562 22.640625 L 10.519531 21.5625 L 11.601562 20.53125 Z M 11.601562 18.640625 L 10.558594 17.601562 L 11.601562 16.558594 Z M 11.601562 15.199219 L 11.601562 14.398438 L 12.398438 14.398438 L 12.398438 15.199219 Z M 12.398438 22.640625 L 12.398438 20.558594 L 13.441406 21.601562 Z M 13.585938 23.085938 C 13.570312 23.089844 13.554688 23.089844 13.539062 23.09375 C 13.464844 23.101562 13.394531 23.113281 13.324219 23.121094 C 13.273438 23.125 13.226562 23.132812 13.175781 23.136719 C 13.140625 23.140625 13.101562 23.144531 13.0625 23.148438 C 13.042969 23.152344 13.023438 23.152344 13.007812 23.152344 L 14 22.160156 L 14.707031 22.867188 C 14.339844 22.957031 13.964844 23.03125 13.585938 23.085938 Z M 16.113281 22.414062 C 16.09375 22.417969 16.078125 22.425781 16.058594 22.433594 C 16.019531 22.449219 15.976562 22.464844 15.9375 22.480469 C 15.816406 22.527344 15.695312 22.570312 15.570312 22.609375 L 14.558594 21.601562 L 16.136719 20.023438 L 17.792969 21.574219 C 17.261719 21.898438 16.699219 22.179688 16.113281 22.414062 Z M 16.695312 19.460938 L 16.851562 19.308594 C 16.933594 19.484375 17.011719 19.660156 17.097656 19.835938 Z M 18.546875 21.070312 C 18.117188 20.242188 17.714844 19.394531 17.347656 18.546875 C 17.339844 18.507812 17.320312 18.46875 17.300781 18.433594 C 16.949219 17.625 16.628906 16.808594 16.339844 16 L 18 16 L 18 13.601562 L 15.601562 13.601562 C 14.8125 10.820312 14.398438 8.152344 14.398438 5.601562 L 14.398438 4 L 15.601562 4 L 15.601562 1.601562 L 14 1.601562 L 14 0.980469 C 16.433594 1.421875 18.597656 2.660156 20.214844 4.410156 C 19.792969 4.691406 19.386719 5.242188 19.359375 6.320312 C 19.320312 6.359375 19.28125 6.359375 19.199219 6.359375 L 19.078125 6.359375 C 18.28125 6.359375 17.558594 6.878906 17.320312 7.601562 C 17.121094 8.160156 17.199219 8.761719 17.558594 9.238281 C 17.921875 9.71875 18.480469 10 19.039062 10 L 22.921875 10 C 22.953125 10 22.984375 9.996094 23.019531 9.996094 C 23.136719 10.644531 23.199219 11.316406 23.199219 12 C 23.199219 15.722656 21.359375 19.03125 18.546875 21.070312 Z M 16.398438 15.199219 L 16.398438 14.398438 L 17.199219 14.398438 L 17.199219 15.199219 Z M 16.398438 15.199219"/>
</svg>
