<svg xmlns="http://www.w3.org/2000/svg" width="32" height="32" viewBox="0 0 24 24">
    <path d="M6.8 18h2v-2h-2zm.802-1.2H8v.4h-.398zm0 0M9.602 16v2h2v-2zm1.199 1.2h-.403v-.4h.403zm0 0M12.398 18h2v-2h-2zm.801-1.2h.403v.4h-.403zm0 0M15.2 18h2v-2h-2zm.8-1.2h.398v.4H16zm0 0"/>
    <path d="M24 12c0-6.602-5.398-12-12-12-3.535 0-6.723 1.547-8.926 4H3.04l-.117.16c-.219.258-.43.527-.625.8A12.01 12.01 0 0 0 .53 8.48c-.097.301-.18.61-.25.918L.2 9.801h.004a11.947 11.947 0 0 0 2.527 9.8h-.05l.64.68c.84.88 1.801 1.64 2.88 2.239.062.035.124.066.183.097l.418.223v-.016c.98.469 2.027.805 3.105.992l.094.024v-.008c.246.043.496.074.746.102.02.003.035.003.055.007V24h2.398v-.059c.02-.003.035-.003.055-.007.25-.028.5-.059.746-.102v.008l.094-.024a11.96 11.96 0 0 0 3.105-.992v.016l.418-.223c.059-.031.121-.062.184-.097 1.039-.598 2.039-1.36 2.879-2.239l.64-.68h-.05A11.947 11.947 0 0 0 24 12zM1.64 7.754c.329-.793.747-1.543 1.239-2.23.164-.223.34-.438.52-.645h.203c.437.043.84.36 1.078.762.16.238.199.437.199.68-.04.359.2.718.562.917.399.16.598.563.559 1-.04.48-.52.883-1.078.883H1.199c.117-.469.266-.926.442-1.367zM6 21.44l-.105-.066c-.45-.293-.88-.621-1.282-.977H6zm3.2 1.399c-.278-.078-.52-.16-.802-.238v-3H9.2zm3.198.351h-.003c-.024 0-.051.004-.075.004-.11.004-.215.004-.32.004-.105 0-.21 0-.32-.004-.024 0-.051-.004-.075-.004h-.003v-3.59h.796zm3.204-.59c-.282.079-.524.16-.801.239v-3.238h.8zm1.597-3v2.31c-.262.136-.527.265-.8.382v-3.492H14v4.219c-.266.046-.531.085-.8.113V18.8h-2.4v4.332c-.269-.028-.534-.067-.8-.113V18.8H7.602v3.493c-.274-.117-.54-.246-.801-.383v-2.308H5.6v-4h12.797v4zm-6.398-7.203h4.8v.801H8.399v-.8zm-1.2-.796v-1.204h.797V8.801h.403v2.8zm2-1.204V10h.797v.398zm.797.801v.403h-.796v-.403zm0-4.398h-.796v-.403h.796zm0 .8V8h-.796v-.398zm0 1.2v.398h-.796v-.398zm2 1.597v1.204H13.2V8.8h.403v1.597zm2 3.602v.8H7.602V14zm2.801 6.563c-.383.304-.793.605-1.199.878v-1.043h1.387l-.188.165zm1.008-.961h-1.008V14.8h-2v-1.602h-.8v-1.597h-1.2v-2h-.8V8h-1.2V5.602h-.8V2c0-.238-.16-.398-.399-.398-.238 0-.398.16-.398.398v3.602H10.8V8H9.6v1.602h-.8v2H7.6v1.597h-.8v1.602h-2v4.8H3.793a11.161 11.161 0 0 1-2.797-9.68h3.926c.957 0 1.758-.722 1.84-1.64.117-.722-.282-1.441-.961-1.8-.121-.083-.16-.16-.16-.243a2.08 2.08 0 0 0-.282-1.078 2.317 2.317 0 0 0-1.273-1.066A11.171 11.171 0 0 1 12 .8C18.16.8 23.2 5.84 23.2 12c0 2.926-1.137 5.598-2.993 7.602zm0 0"/>
</svg>
