<svg xmlns="http://www.w3.org/2000/svg" width="32" height="32" viewBox="0 0 24 24">
    <path d="M16.395 23.203H13.96a60.867 60.867 0 0 1-.363-6.789h.398c.68 0 1.2-.52 1.2-1.2 0-.679-.52-1.198-1.2-1.198h-.437v-1.118a4.004 4.004 0 0 0 2.433-3.671c0-1.633-.988-3.04-2.394-3.66V4.034c0-.242-.16-.402-.399-.402h-.8V.398C12.398.16 12.238 0 12 0c-.238 0-.398.16-.398.398v3.235H10.8c-.239 0-.399.16-.399.402v1.531a4.009 4.009 0 0 0-2.394 3.66c0 1.63.988 3.036 2.394 3.657v1.133h-.398c-.68 0-1.2.52-1.2 1.199 0 .68.52 1.2 1.2 1.2h.398c0 2.237-.109 4.51-.359 6.788H7.605c-.238 0-.398.156-.398.399 0 .238.16.398.398.398h8.79c.238 0 .398-.16.398-.398 0-.243-.16-.399-.398-.399zm-5.192-18.77h1.594v.88c-.008-.004-.016-.004-.027-.004a3.784 3.784 0 0 0-.633-.075c-.047 0-.09-.004-.137-.004-.047 0-.09.004-.137.004a3.784 3.784 0 0 0-.633.075c-.011 0-.02 0-.027.003zM8.805 9.228A3.204 3.204 0 0 1 12 6.03a3.204 3.204 0 0 1 3.195 3.196A3.203 3.203 0 0 1 12 12.418a3.203 3.203 0 0 1-3.195-3.191zm3.992 3.91v.879h-1.594v-.88a3.541 3.541 0 0 0 1.594 0zm-1.953 10.066c.238-2.238.36-4.515.36-6.789h1.593c0 2.234.121 4.512.36 6.79zm-.043-7.59h-.797c-.238 0-.399-.16-.399-.398 0-.238.16-.399.399-.399h3.992c.238 0 .399.16.399.399 0 .238-.16.398-.399.398zm0 0"/>
</svg>
