<svg xmlns="http://www.w3.org/2000/svg" width="32" height="32" viewBox="0 0 24 24">
    <path d="M10.8 14.398c0-.238-.16-.398-.402-.398h-.796c-.243 0-.403.16-.403.398 0 .243.16.403.403.403h.796c.243 0 .403-.16.403-.403zm0 0M8.398 14.398c0-.238-.16-.398-.398-.398h-.8c-.24 0-.4.16-.4.398 0 .243.16.403.4.403H8c.238 0 .398-.16.398-.403zm0 0M17.2 14.398c0-.238-.16-.398-.4-.398H16c-.238 0-.398.16-.398.398 0 .243.16.403.398.403h.8c.24 0 .4-.16.4-.403zm0 0M14.8 14.398c0-.238-.16-.398-.402-.398h-.796c-.243 0-.403.16-.403.398 0 .243.16.403.403.403h.796c.243 0 .403-.16.403-.403zm0 0M8.879 16.96l-.559.56a.385.385 0 0 0 0 .558c.078.082.16.121.282.121.117 0 .199-.039.277-.12l.562-.56a.385.385 0 0 0 0-.558.39.39 0 0 0-.562 0zm0 0M10.602 15.238l-.563.563a.385.385 0 0 0 0 .558c.082.082.16.121.281.121.078 0 .2-.039.282-.12l.558-.56a.39.39 0 0 0 0-.562.385.385 0 0 0-.558 0zm0 0M14.84 11.96c.082 0 .2-.038.281-.12l.559-.559a.39.39 0 0 0 0-.562.385.385 0 0 0-.559 0l-.562.562a.385.385 0 0 0 0 .559c.082.082.16.12.28.12zm0 0M13.121 13.68c.117 0 .2-.04.277-.121l.563-.559a.385.385 0 0 0 0-.559.39.39 0 0 0-.563 0L12.84 13a.385.385 0 0 0 0 .559c.082.082.16.12.281.12zm0 0M8.879 11.84c.082.082.16.12.281.12.121 0 .2-.038.281-.12a.385.385 0 0 0 0-.559l-.562-.562a.385.385 0 0 0-.559 0 .39.39 0 0 0 0 .562zm0 0M10.602 13.559c.078.082.16.12.277.12.082 0 .2-.038.281-.12a.385.385 0 0 0 0-.559l-.558-.559a.39.39 0 0 0-.563 0 .385.385 0 0 0 0 .559zm0 0M13.398 15.238a.385.385 0 0 0-.558 0 .39.39 0 0 0 0 .563l.558.558c.082.082.16.121.282.121.12 0 .242-.039.28-.12a.385.385 0 0 0 0-.56zm0 0M15.121 16.96a.39.39 0 0 0-.562 0 .385.385 0 0 0 0 .56l.562.558c.078.082.16.121.277.121.082 0 .204-.039.282-.12a.385.385 0 0 0 0-.56zm0 0M12 9.2c-.238 0-.398.16-.398.402v.796c0 .243.16.403.398.403.238 0 .398-.16.398-.403v-.796c0-.243-.16-.403-.398-.403zm0 0M12 11.602c-.238 0-.398.16-.398.398v.8c0 .24.16.4.398.4.238 0 .398-.16.398-.4V12c0-.238-.16-.398-.398-.398zm0 0"/>
    <path d="M24 12c0-2.168-.582-4.207-1.602-5.969V6h-.015C20.297 2.422 16.418 0 12 0 7.582 0 3.703 2.422 1.617 6h-.015v.031a11.881 11.881 0 0 0-1.493 7.57H.08l.066.262c.753 4.778 4.347 8.637 8.984 9.785l-.008.032.399.082c.8.16 1.64.238 2.48.238.84 0 1.68-.078 2.559-.238l.402-.082-.016-.047a12.083 12.083 0 0 0 8.504-8.047l.07-.106c.122-.44.243-.921.32-1.402l.083-.476h-.031c.07-.524.109-1.059.109-1.602zM1.137 14.723l-.059-.325h1.32c0 .442-.359.801-.796.801-.122 0-.239-.039-.356-.078a9.75 9.75 0 0 1-.11-.398zM1.543 16h.059c.332 0 .64-.102.894-.277a9.528 9.528 0 0 0 1.906 4.484A11.245 11.245 0 0 1 1.543 16zM12 23.16a8.882 8.882 0 0 1-1.895-.207l.528-1.93a6.848 6.848 0 0 0 2.703.004l.523 1.934a8.86 8.86 0 0 1-1.859.2zm-1.156-2.91l.758-2.77c.078-.242.32-.28.398-.28.078 0 .281 0 .36.241l.765 2.813c-.363.07-.742.105-1.125.105-.395 0-.781-.039-1.156-.109zm2.355-3.012c-.199-.476-.64-.797-1.16-.797-.52 0-.96.32-1.16.84l-.762 2.778A5.995 5.995 0 0 1 6 14.359c0-1.593.617-3.039 1.629-4.113a.408.408 0 0 0 .133-.086c.039-.043.07-.09.09-.14a5.988 5.988 0 0 1 3.964-1.657.466.466 0 0 0 .184.035.466.466 0 0 0 .184-.035 6.004 6.004 0 0 1 3.964 1.657c.02.05.051.097.09.14.047.043.09.074.145.098A5.97 5.97 0 0 1 18 14.359a5.988 5.988 0 0 1-4.035 5.672zm4.762 3.121a.38.38 0 0 0-.047.504 8.852 8.852 0 0 1-3.215 1.871l-.523-1.93a6.775 6.775 0 0 0 2.324-1.343l.3.3c.079.079.16.118.278.118.121 0 .203-.04.281-.117a.39.39 0 0 0 0-.563l-.297-.297a6.78 6.78 0 0 0 1.723-4.101h.414c.242 0 .403-.16.403-.403 0-.238-.16-.398-.403-.398h-.41a6.76 6.76 0 0 0-1.687-4.14l.257-.258a.39.39 0 0 0 0-.563.385.385 0 0 0-.558 0l-.258.258a6.792 6.792 0 0 0-4.145-1.727V7.2c0-.24-.16-.4-.398-.4-.238 0-.398.16-.398.4v.37a6.792 6.792 0 0 0-4.145 1.727l-.258-.258a.385.385 0 0 0-.558 0 .39.39 0 0 0 0 .563l.257.257A6.76 6.76 0 0 0 5.211 14H4.8c-.242 0-.403.16-.403.398 0 .243.16.403.403.403h.414a6.78 6.78 0 0 0 1.723 4.101l-.297.297a.39.39 0 0 0 0 .563c.078.078.16.117.28.117.079 0 .2-.04.278-.117l.301-.301a6.768 6.768 0 0 0 2.402 1.371l-.527 1.926a8.872 8.872 0 0 1-3.29-1.895.38.38 0 0 0-.046-.504.388.388 0 0 0-.504-.047 8.758 8.758 0 0 1-2.324-5.511c.234-.008.39-.164.39-.403 0-.234-.156-.394-.394-.398a8.75 8.75 0 0 1 2.285-5.547c.078.07.153.106.27.106.117 0 .238-.04.277-.118a.39.39 0 0 0 .012-.55 8.777 8.777 0 0 1 5.55-2.32v.03c0 .239.16.399.399.399.238 0 .398-.16.398-.398V5.57a8.777 8.777 0 0 1 5.551 2.32.39.39 0 0 0 .012.551c.078.079.16.118.277.118a.446.446 0 0 0 .27-.106A8.75 8.75 0 0 1 20.793 14c-.238.004-.395.164-.395.398 0 .239.157.395.391.403a8.758 8.758 0 0 1-2.324 5.511.388.388 0 0 0-.504.047zM11.199 3.602h1.602a.801.801 0 0 1-1.602 0zm8.399 16.605a9.528 9.528 0 0 0 1.906-4.484c.254.175.562.277.894.277h.059a11.245 11.245 0 0 1-2.86 4.207zm3.265-5.484a9.75 9.75 0 0 1-.11.398c-.116.04-.233.078-.355.078a.801.801 0 0 1-.796-.8h1.32l-.059.324zm.223-1.121H21.57a9.573 9.573 0 0 0-2.765-5.997l-.004-.003-.004-.004a9.58 9.58 0 0 0-5.762-2.782 1.6 1.6 0 0 0 .567-1.214V2.8h-3.204v.8c0 .485.223.922.567 1.215a9.58 9.58 0 0 0-5.762 2.782l-.004.004-.004.003a9.573 9.573 0 0 0-2.765 5.997H.914A11.408 11.408 0 0 1 .801 12c0-1.602.34-3.129.957-4.512A1.6 1.6 0 0 0 4.8 6.801V6H2.555C4.547 2.879 8.043.8 12 .8S19.453 2.88 21.445 6H19.2v.8a1.6 1.6 0 1 0 3.043.688c.617 1.383.957 2.91.957 4.512 0 .543-.039 1.078-.113 1.602zM2.398 6.8H4c0 .437-.36.8-.8.8a.807.807 0 0 1-.802-.8zm19.204 0c0 .437-.364.8-.801.8a.804.804 0 0 1-.801-.8zm0 0"/>
</svg>
