<svg xmlns="http://www.w3.org/2000/svg" width="32" height="32" viewBox="0 0 24 24">
    <path d="M12 0C5.398 0 0 5.398 0 12c0 3.574 1.586 6.797 4.086 9 .086.074.168.148.254.219a.374.374 0 0 0 .14.14c.024.012.043.02.063.028.605.488 1.258.914 1.945 1.27a.217.217 0 0 0 .086.046 11.88 11.88 0 0 0 4.578 1.266c.067.004.133.011.203.011.036.004.075.004.114.008.043.012.078.012.133.012.015 0 .03 0 .05-.004h.02c.11.004.219.004.328.004.11 0 .219 0 .328-.004h.02c.02 0 .035.004.05.004.055 0 .09 0 .133-.012.043-.004.086-.004.13-.008.038 0 .077-.003.12-.007.07-.004.137-.008.207-.016.043 0 .082-.004.125-.008l.2-.023.128-.012c.067-.008.133-.02.2-.027.043-.008.086-.012.129-.02.062-.008.128-.02.195-.031a3.584 3.584 0 0 0 .324-.059c.047-.007.098-.015.145-.027.046-.012.093-.02.144-.031a.547.547 0 0 0 .11-.024c.007-.004.011-.004.015-.004l.195-.046a.895.895 0 0 1 .11-.028c.066-.02.137-.039.203-.058l.09-.024c.074-.02.148-.043.219-.066.023-.008.046-.012.07-.02.078-.027.156-.05.234-.078l.035-.012a11.51 11.51 0 0 0 1.536-.648.393.393 0 0 0 .085-.031.323.323 0 0 0 .06-.043c.292-.153.577-.32.858-.496a.275.275 0 0 0 .145-.098c.105-.066.21-.14.316-.211.04-.027.075-.055.114-.082.035-.023.07-.05.105-.078l.188-.14c.015-.012.03-.02.043-.032.046-.04.097-.074.144-.113a.3.3 0 0 0 .067-.028.472.472 0 0 0 .16-.156C22.316 18.996 24 15.688 24 12c0-6.602-5.398-12-12-12zM3.29 19.02l.202-.38.895 1.555a11.57 11.57 0 0 1-1.098-1.175zm.67-1.22c-.003-.003-.003-.007-.007-.01l.797-1.477 1.082 1.804-.836 1.485zm4.27-2.253l.918-1.625.93 1.61-.918 1.628zm.457 2.445l-.96 1.707-.95-1.578.985-1.738zM12 12.125l-.918-1.629L12 8.871l.918 1.625zm1.39-.79l.989 1.75-.926 1.614-.98-1.738zm-1.863 1.626l-.98 1.738-.926-1.613.988-1.75zm-.972 3.402l.968 1.688-.921 1.61-.965-1.673zm.468-.832l.977-1.73.977 1.73L12 17.227zm2.422.832l.918 1.625-.965 1.672-.921-1.61zm.477-.832l.93-1.61.918 1.626-.93 1.613zm2.316.852l.844 1.488-.906 1.652-.863-1.53zm.48-.828l1.098-1.907.844 1.563a.426.426 0 0 0-.219.187l-.894 1.625zm.52-2.555l-.992 1.719-.918-1.63 1.129-1.964.934 1.73a.384.384 0 0 0-.153.145zm-2.383-.742l-.992-1.762L15.02 8.45l.98 1.82zM14.441 7.8l-1.05 1.86-.918-1.626L13.66 5.93l.926 1.718a.453.453 0 0 0-.145.153zM12 7.195L10.8 5.07 12 2.84l1.2 2.23zm-.473.84L10.61 9.66 9.56 7.8a.418.418 0 0 0-.145-.152l.926-1.718zm-1.39 2.461l-.992 1.762L8 10.27l.98-1.82zM8.672 13.09l-.918 1.629L6.762 13a.462.462 0 0 0-.149-.152l.93-1.723zm-1.39 2.465l-.989 1.754-1.098-1.825.989-1.836zm-.727 6.222a9.295 9.295 0 0 1-.47-.28l-.612-1.063.847-1.504.95 1.578zm.734.375l.469-.832.8 1.336a11.92 11.92 0 0 1-1.269-.504zm1.895-.03l-.97-1.614.954-1.688.957 1.664zm2.183 1.058c-.043 0-.09-.004-.133-.008a1.26 1.26 0 0 1-.12-.008c-.067-.004-.137-.012-.204-.016a.48.48 0 0 0-.078-.007c-.078-.012-.16-.02-.238-.028-.008-.004-.02-.004-.028-.004-.296-.039-.59-.09-.879-.152l-.015-.027.93-1.621.921 1.597zM12 22.082l-.922-1.598L12 18.88l.922 1.605zm2.285.883c-.281.058-.562.105-.851.144-.008 0-.02 0-.028.004-.078.008-.16.016-.238.028a.48.48 0 0 0-.078.007c-.067.004-.137.012-.203.016a1.26 1.26 0 0 1-.121.008c-.043.004-.09.008-.133.008l-.156-.274.921-1.597.918 1.597zm.496-.902l-.906-1.579.957-1.664.875 1.555zm.606.609l.797-1.453.527.933c-.426.2-.871.375-1.324.52zm2.527-1.176a9.295 9.295 0 0 1-.469.281l-.793-1.41.907-1.652.968 1.719zm1.09-1.894l-.98-1.735 1.042-1.898.98 1.82c-.003.004-.003.008-.007.012zm.61.593l.894-1.554.203.379c-.34.418-.703.808-1.098 1.175zM12 1.16L2.781 18.336A11.091 11.091 0 0 1 .801 12C.8 5.84 5.84.8 12 .8S23.2 5.84 23.2 12c0 2.348-.731 4.531-1.981 6.336zm0 0"/>
</svg>
