<svg xmlns="http://www.w3.org/2000/svg" width="32" height="32" viewBox="0 0 24 24">
    <path d="M 22.179688 20.050781 L 17.511719 10.714844 C 17.480469 10.652344 17.441406 10.601562 17.398438 10.5625 C 16.859375 8.84375 16.988281 7.535156 17.792969 6.445312 C 17.820312 6.417969 17.847656 6.386719 17.867188 6.355469 C 17.949219 6.273438 17.949219 6.117188 17.910156 5.996094 L 15.527344 0.445312 C 15.488281 0.289062 15.332031 0.207031 15.171875 0.207031 L 13.984375 0.207031 C 13.960938 0.207031 13.941406 0.210938 13.921875 0.214844 L 13.902344 0.207031 C 12.675781 -0.0703125 11.367188 -0.0703125 10.136719 0.207031 L 10.105469 0.214844 C 10.078125 0.210938 10.046875 0.207031 10.015625 0.207031 L 8.828125 0.207031 C 8.667969 0.207031 8.511719 0.289062 8.472656 0.484375 L 6.167969 5.863281 C 6.121094 5.902344 6.082031 5.949219 6.050781 5.996094 C 5.972656 6.117188 6.011719 6.273438 6.089844 6.394531 C 6.964844 7.542969 7.082031 8.933594 6.449219 10.796875 L 1.820312 20.050781 C 0.839844 20.179688 0.105469 20.996094 0.105469 22.015625 L 0.105469 23.207031 C 0.105469 23.644531 0.460938 24 0.898438 24 L 7.242188 24 C 7.679688 24 8.035156 23.644531 8.035156 23.207031 L 8.035156 22.015625 C 8.035156 21.566406 7.890625 21.15625 7.648438 20.828125 L 8.035156 20.828125 C 8.273438 20.828125 8.429688 20.667969 8.429688 20.429688 C 8.429688 20.191406 8.273438 20.035156 8.035156 20.035156 L 2.722656 20.035156 L 3.128906 19.21875 C 3.175781 19.234375 3.222656 19.242188 3.277344 19.242188 L 6.050781 19.242188 C 6.289062 19.242188 6.449219 19.082031 6.449219 18.84375 C 6.449219 18.605469 6.289062 18.449219 6.050781 18.449219 L 3.515625 18.449219 L 3.921875 17.632812 C 3.96875 17.648438 4.015625 17.65625 4.070312 17.65625 L 8.035156 17.65625 C 8.273438 17.65625 8.429688 17.496094 8.429688 17.257812 C 8.429688 17.019531 8.273438 16.863281 8.035156 16.863281 L 4.308594 16.863281 L 4.714844 16.046875 C 4.761719 16.0625 4.808594 16.070312 4.863281 16.070312 L 5.65625 16.070312 C 5.894531 16.070312 6.050781 15.910156 6.050781 15.671875 C 6.050781 15.433594 5.894531 15.277344 5.65625 15.277344 L 5.101562 15.277344 L 5.507812 14.460938 C 5.554688 14.476562 5.601562 14.484375 5.65625 14.484375 L 7.636719 14.484375 C 7.875 14.484375 8.035156 14.324219 8.035156 14.085938 C 8.035156 13.847656 7.875 13.691406 7.636719 13.691406 L 5.894531 13.691406 L 6.300781 12.875 C 6.347656 12.890625 6.394531 12.898438 6.449219 12.898438 L 9.222656 12.898438 C 9.460938 12.898438 9.621094 12.738281 9.621094 12.5 C 9.621094 12.261719 9.460938 12.105469 9.222656 12.105469 L 6.6875 12.105469 L 7.082031 11.3125 L 16.917969 11.3125 L 17.3125 12.105469 L 16.363281 12.105469 C 16.125 12.105469 15.964844 12.261719 15.964844 12.5 C 15.964844 12.738281 16.125 12.898438 16.363281 12.898438 L 17.511719 12.898438 C 17.578125 12.898438 17.640625 12.882812 17.691406 12.859375 L 18.105469 13.691406 L 13.585938 13.691406 C 13.347656 13.691406 13.191406 13.847656 13.191406 14.085938 C 13.191406 14.324219 13.347656 14.484375 13.585938 14.484375 L 18.34375 14.484375 C 18.398438 14.484375 18.445312 14.476562 18.492188 14.460938 L 18.898438 15.277344 L 14.378906 15.277344 C 14.140625 15.277344 13.984375 15.433594 13.984375 15.671875 C 13.984375 15.910156 14.140625 16.070312 14.378906 16.070312 L 19.136719 16.070312 C 19.191406 16.070312 19.238281 16.0625 19.285156 16.046875 L 19.691406 16.863281 L 14.777344 16.863281 C 14.539062 16.863281 14.378906 17.019531 14.378906 17.257812 C 14.378906 17.496094 14.539062 17.65625 14.777344 17.65625 L 19.929688 17.65625 C 19.984375 17.65625 20.03125 17.648438 20.078125 17.632812 L 20.484375 18.449219 L 15.964844 18.449219 C 15.726562 18.449219 15.570312 18.605469 15.570312 18.84375 C 15.570312 19.082031 15.726562 19.242188 15.964844 19.242188 L 20.722656 19.242188 C 20.777344 19.242188 20.824219 19.234375 20.871094 19.21875 L 21.277344 20.035156 L 13.984375 20.035156 C 13.746094 20.035156 13.585938 20.191406 13.585938 20.429688 C 13.585938 20.667969 13.746094 20.828125 13.984375 20.828125 L 16.351562 20.828125 C 16.109375 21.15625 15.964844 21.566406 15.964844 22.015625 L 15.964844 23.207031 C 15.964844 23.644531 16.320312 24 16.757812 24 L 23.101562 24 C 23.539062 24 23.894531 23.644531 23.894531 23.207031 L 23.894531 22.015625 C 23.894531 20.996094 23.160156 20.179688 22.179688 20.050781 Z M 6.050781 20.828125 C 6.726562 20.828125 7.242188 21.34375 7.242188 22.015625 L 7.242188 23.207031 L 6.050781 23.207031 L 6.050781 22.015625 C 6.050781 21.78125 5.894531 21.621094 5.65625 21.621094 C 5.417969 21.621094 5.257812 21.78125 5.257812 22.015625 L 5.257812 23.207031 L 4.464844 23.207031 L 4.464844 22.015625 C 4.464844 21.78125 4.308594 21.621094 4.070312 21.621094 C 3.832031 21.621094 3.671875 21.78125 3.671875 22.015625 L 3.671875 23.207031 L 2.878906 23.207031 L 2.878906 22.015625 C 2.878906 21.78125 2.722656 21.621094 2.484375 21.621094 C 2.246094 21.621094 2.085938 21.78125 2.085938 22.015625 L 2.085938 23.207031 L 0.898438 23.207031 L 0.898438 22.015625 C 0.898438 21.34375 1.414062 20.828125 2.085938 20.828125 Z M 9.5 2.667969 C 9.820312 2.347656 10.015625 1.953125 10.015625 1.554688 L 10.015625 1.199219 C 10.015625 1.191406 10.019531 1.183594 10.019531 1.179688 C 10.023438 1.167969 10.027344 1.152344 10.03125 1.136719 C 10.042969 1.113281 10.058594 1.089844 10.074219 1.066406 C 10.09375 1.050781 10.113281 1.039062 10.136719 1.039062 L 10.292969 1 C 10.851562 0.882812 11.445312 0.804688 12 0.804688 C 12.554688 0.804688 13.148438 0.882812 13.707031 1 L 13.863281 1.039062 C 13.902344 1.039062 13.984375 1.121094 13.984375 1.199219 L 13.984375 1.554688 C 13.984375 1.953125 14.179688 2.347656 14.5 2.667969 C 14.617188 2.746094 14.777344 3.023438 14.777344 3.378906 C 14.777344 3.855469 14.539062 4.132812 14.378906 4.171875 C 14.179688 4.171875 13.984375 4.371094 13.984375 4.609375 C 13.957031 5.285156 13.625 5.859375 13.128906 6.203125 C 12.757812 6.386719 12.3125 6.511719 11.960938 6.511719 C 11.691406 6.511719 11.367188 6.4375 11.0625 6.320312 C 10.8125 6.1875 10.59375 6 10.421875 5.777344 C 10.40625 5.746094 10.390625 5.714844 10.375 5.679688 C 10.175781 5.363281 10.058594 5.007812 10.058594 4.648438 C 10.015625 4.410156 9.859375 4.214844 9.621094 4.171875 C 9.460938 4.132812 9.222656 3.855469 9.222656 3.378906 C 9.222656 3.023438 9.382812 2.746094 9.5 2.667969 Z M 7.042969 5.757812 L 9.066406 1 L 9.222656 1 C 9.222656 1.082031 9.222656 1.121094 9.222656 1.199219 L 9.222656 1.554688 C 9.222656 1.792969 9.066406 1.953125 8.945312 2.070312 C 8.628906 2.347656 8.429688 2.824219 8.429688 3.378906 C 8.429688 4.09375 8.75 4.6875 9.222656 4.886719 C 9.257812 5.195312 9.347656 5.488281 9.476562 5.757812 C 8.902344 5.757812 7.914062 5.757812 7.042969 5.757812 Z M 7.164062 6.550781 L 8.191406 6.550781 C 8.613281 6.550781 8.957031 6.550781 9.230469 6.550781 C 9.019531 6.882812 8.820312 7.214844 8.628906 7.542969 C 8.300781 8.113281 7.984375 8.660156 7.640625 9.179688 C 7.714844 8.199219 7.554688 7.335938 7.164062 6.550781 Z M 7.710938 10.476562 C 8.328125 9.695312 8.835938 8.839844 9.304688 8.019531 C 9.523438 7.703125 9.71875 7.363281 9.929688 7.019531 C 9.988281 6.929688 10.046875 6.84375 10.105469 6.753906 C 10.429688 6.964844 10.824219 7.132812 11.214844 7.234375 C 11.464844 7.304688 11.726562 7.34375 12 7.34375 C 12.273438 7.34375 12.535156 7.304688 12.785156 7.234375 C 13.171875 7.132812 13.5625 6.964844 13.890625 6.757812 C 14.097656 7.078125 14.304688 7.390625 14.5 7.710938 C 14.550781 7.800781 14.605469 7.890625 14.65625 7.980469 C 15.125 8.800781 15.671875 9.65625 16.292969 10.476562 Z M 16.320312 9.210938 C 16.003906 8.652344 15.648438 8.140625 15.332031 7.582031 C 15.132812 7.265625 14.933594 6.910156 14.695312 6.550781 C 15.292969 6.550781 16.085938 6.550781 16.796875 6.550781 C 16.402344 7.34375 16.242188 8.21875 16.320312 9.210938 Z M 14.523438 5.757812 C 14.652344 5.488281 14.742188 5.195312 14.777344 4.886719 C 15.25 4.6875 15.570312 4.09375 15.570312 3.378906 C 15.570312 2.824219 15.371094 2.347656 15.054688 2.070312 C 14.933594 1.953125 14.777344 1.792969 14.777344 1.554688 L 14.777344 1.199219 C 14.777344 1.121094 14.777344 1.082031 14.777344 1 L 14.894531 1 L 16.957031 5.757812 C 16.289062 5.757812 15.199219 5.757812 14.523438 5.757812 Z M 23.101562 23.207031 L 21.914062 23.207031 L 21.914062 22.015625 C 21.914062 21.78125 21.753906 21.621094 21.515625 21.621094 C 21.277344 21.621094 21.121094 21.78125 21.121094 22.015625 L 21.121094 23.207031 L 20.328125 23.207031 L 20.328125 22.015625 C 20.328125 21.78125 20.167969 21.621094 19.929688 21.621094 C 19.691406 21.621094 19.535156 21.78125 19.535156 22.015625 L 19.535156 23.207031 L 18.742188 23.207031 L 18.742188 22.015625 C 18.742188 21.78125 18.582031 21.621094 18.34375 21.621094 C 18.105469 21.621094 17.949219 21.78125 17.949219 22.015625 L 17.949219 23.207031 L 16.757812 23.207031 L 16.757812 22.015625 C 16.757812 21.34375 17.273438 20.828125 17.949219 20.828125 L 21.914062 20.828125 C 22.585938 20.828125 23.101562 21.34375 23.101562 22.015625 Z M 23.101562 23.207031"/>
    <path d="M12.398438 20.035156L10.015625 20.035156C9.78125 20.035156 9.621094 20.191406 9.621094 20.429688 9.621094 20.667969 9.78125 20.828125 10.015625 20.828125L12.398438 20.828125C12.632812 20.828125 12.792969 20.667969 12.792969 20.429688 12.792969 20.191406 12.632812 20.035156 12.398438 20.035156zM10.414062 3.777344L10.808594 3.777344C11.046875 3.777344 11.207031 3.617188 11.207031 3.378906 11.207031 3.140625 11.046875 2.984375 10.808594 2.984375L10.414062 2.984375C10.175781 2.984375 10.015625 3.140625 10.015625 3.378906 10.015625 3.617188 10.175781 3.777344 10.414062 3.777344zM13.191406 3.777344L13.585938 3.777344C13.824219 3.777344 13.984375 3.617188 13.984375 3.378906 13.984375 3.140625 13.824219 2.984375 13.585938 2.984375L13.191406 2.984375C12.953125 2.984375 12.792969 3.140625 12.792969 3.378906 12.792969 3.617188 12.953125 3.777344 13.191406 3.777344zM11.601562 5.757812L12.398438 5.757812C12.632812 5.757812 12.792969 5.601562 12.792969 5.363281 12.792969 5.125 12.632812 4.964844 12.398438 4.964844L11.601562 4.964844C11.367188 4.964844 11.207031 5.125 11.207031 5.363281 11.207031 5.601562 11.367188 5.757812 11.601562 5.757812zM12.398438 18.84375C12.398438 18.605469 12.238281 18.449219 12 18.449219L8.828125 18.449219C8.589844 18.449219 8.429688 18.605469 8.429688 18.84375 8.429688 19.082031 8.589844 19.242188 8.828125 19.242188L12 19.242188C12.238281 19.242188 12.398438 19.082031 12.398438 18.84375zM13.191406 16.863281L11.601562 16.863281C11.367188 16.863281 11.207031 17.019531 11.207031 17.257812 11.207031 17.496094 11.367188 17.65625 11.601562 17.65625L13.191406 17.65625C13.425781 17.65625 13.585938 17.496094 13.585938 17.257812 13.585938 17.019531 13.425781 16.863281 13.191406 16.863281zM7.242188 15.671875C7.242188 15.910156 7.398438 16.070312 7.636719 16.070312L11.601562 16.070312C11.839844 16.070312 12 15.910156 12 15.671875 12 15.433594 11.839844 15.277344 11.601562 15.277344L7.636719 15.277344C7.398438 15.277344 7.242188 15.433594 7.242188 15.671875zM8.828125 14.085938C8.828125 14.324219 8.988281 14.484375 9.222656 14.484375L12 14.484375C12.238281 14.484375 12.398438 14.324219 12.398438 14.085938 12.398438 13.847656 12.238281 13.691406 12 13.691406L9.222656 13.691406C8.988281 13.691406 8.828125 13.847656 8.828125 14.085938zM14.777344 12.898438C15.015625 12.898438 15.171875 12.738281 15.171875 12.5 15.171875 12.261719 15.015625 12.105469 14.777344 12.105469L12 12.105469C11.761719 12.105469 11.605469 12.261719 11.605469 12.5 11.605469 12.738281 11.761719 12.898438 12 12.898438zM14.777344 12.898438"/>
</svg>
