<svg xmlns="http://www.w3.org/2000/svg" width="32" height="32" viewBox="0 0 24 24">
    <path d="M22.18 20.05l-4.668-9.335a.517.517 0 0 0-.114-.152c-.539-1.72-.41-3.028.395-4.118a.533.533 0 0 0 .074-.09c.082-.082.082-.238.043-.359L15.527.446c-.039-.157-.195-.239-.355-.239h-1.188c-.023 0-.043.004-.062.008l-.02-.008a8.625 8.625 0 0 0-3.765 0l-.032.008a.641.641 0 0 0-.09-.008H8.829c-.16 0-.316.082-.355.277l-2.305 5.38a.622.622 0 0 0-.117.132c-.078.121-.04.277.039.399.875 1.148.992 2.539.36 4.402L1.82 20.05a1.96 1.96 0 0 0-1.715 1.965v1.191c0 .438.356.793.793.793h6.344a.794.794 0 0 0 .793-.793v-1.191c0-.45-.144-.86-.387-1.188h.387c.238 0 .395-.16.395-.398 0-.239-.157-.395-.395-.395H2.723l.406-.816a.455.455 0 0 0 .148.023h2.774c.238 0 .398-.16.398-.398 0-.239-.16-.395-.398-.395H3.516l.406-.816a.455.455 0 0 0 .148.023h3.965c.238 0 .395-.16.395-.398 0-.238-.157-.395-.395-.395H4.31l.406-.816a.455.455 0 0 0 .148.023h.793c.239 0 .395-.16.395-.398 0-.238-.156-.395-.395-.395h-.554l.406-.816a.455.455 0 0 0 .148.023h1.98c.239 0 .4-.16.4-.398 0-.238-.161-.395-.4-.395H5.896l.406-.816a.455.455 0 0 0 .148.023h2.774c.238 0 .398-.16.398-.398 0-.238-.16-.395-.398-.395H6.687l.395-.793h9.836l.395.793h-.95c-.238 0-.398.157-.398.395 0 .238.16.398.398.398h1.149a.434.434 0 0 0 .18-.039l.413.832h-4.52c-.237 0-.394.157-.394.395 0 .238.157.398.395.398h4.758a.455.455 0 0 0 .148-.023l.406.816h-4.52c-.237 0-.394.157-.394.395 0 .238.157.398.395.398h4.758a.455.455 0 0 0 .148-.023l.406.816h-4.914c-.238 0-.398.157-.398.395 0 .238.16.398.398.398h5.153a.455.455 0 0 0 .148-.023l.406.816h-4.52c-.237 0-.394.156-.394.395 0 .238.157.398.395.398h4.758a.455.455 0 0 0 .148-.023l.406.816h-7.293c-.238 0-.398.156-.398.395 0 .238.16.398.398.398h2.368a1.99 1.99 0 0 0-.387 1.188v1.191c0 .438.355.793.793.793h6.344a.794.794 0 0 0 .793-.793v-1.191a1.96 1.96 0 0 0-1.715-1.965zm-16.13.778c.677 0 1.192.516 1.192 1.188v1.191H6.051v-1.191c0-.235-.156-.395-.395-.395-.238 0-.398.16-.398.395v1.191h-.793v-1.191c0-.235-.156-.395-.395-.395-.238 0-.398.16-.398.395v1.191h-.793v-1.191c0-.235-.156-.395-.395-.395-.238 0-.398.16-.398.395v1.191H.898v-1.191c0-.672.516-1.188 1.188-1.188zM9.5 2.668c.32-.32.516-.715.516-1.113v-.356c0-.008.004-.015.004-.02l.011-.042c.012-.024.028-.047.043-.07.02-.016.04-.028.063-.028L10.293 1A8.505 8.505 0 0 1 12 .805c.555 0 1.148.078 1.707.195l.156.04c.04 0 .121.081.121.16v.355c0 .398.196.793.516 1.113.117.078.277.355.277.71 0 .477-.238.755-.398.794-.2 0-.395.2-.395.437a2.019 2.019 0 0 1-.855 1.594c-.371.184-.816.309-1.168.309-.27 0-.594-.074-.899-.192a1.997 1.997 0 0 1-.64-.543c-.016-.03-.031-.062-.047-.097a1.948 1.948 0 0 1-.316-1.032c-.043-.238-.2-.433-.438-.476-.16-.04-.398-.317-.398-.793 0-.356.16-.633.277-.711zm-2.457 3.09L9.066 1h.157V1.555c0 .238-.157.398-.278.515-.316.278-.515.754-.515 1.309 0 .715.32 1.308.793 1.508.035.308.125.601.254.87H7.043zm.121.793h2.067c-.211.332-.41.664-.602.992-.328.57-.645 1.117-.988 1.637.074-.98-.086-1.844-.477-2.63zm.547 3.926c.617-.782 1.125-1.637 1.594-2.457.218-.317.414-.657.625-1 .058-.09.117-.176.175-.266.325.21.72.379 1.11.48a2.888 2.888 0 0 0 1.57 0c.387-.101.777-.27 1.106-.476.207.32.414.633.609.953.05.09.105.18.156.27.469.82 1.016 1.675 1.637 2.496zm8.61-1.266c-.317-.559-.673-1.07-.989-1.629-.2-.316-.398-.672-.637-1.031h2.102c-.395.793-.555 1.668-.477 2.66zm-1.798-3.453c.13-.27.22-.563.254-.871.473-.2.793-.793.793-1.508 0-.555-.199-1.031-.515-1.309-.121-.117-.278-.277-.278-.515v-.356V1h.118l2.062 4.758h-2.434zm8.579 17.449h-1.188v-1.191c0-.235-.16-.395-.398-.395-.239 0-.395.16-.395.395v1.191h-.793v-1.191c0-.235-.16-.395-.398-.395-.239 0-.395.16-.395.395v1.191h-.793v-1.191c0-.235-.16-.395-.398-.395-.239 0-.395.16-.395.395v1.191h-1.191v-1.191c0-.672.515-1.188 1.191-1.188h3.965c.672 0 1.188.516 1.188 1.188zm0 0"/>
    <path d="M12.398 20.035h-2.382c-.235 0-.395.156-.395.395 0 .238.16.398.395.398h2.382c.235 0 .395-.16.395-.398 0-.239-.16-.395-.395-.395zm0 0M10.414 3.777h.395c.238 0 .398-.16.398-.398 0-.238-.16-.395-.398-.395h-.395c-.238 0-.398.157-.398.395 0 .238.16.398.398.398zm0 0M13.191 3.777h.395c.238 0 .398-.16.398-.398 0-.238-.16-.395-.398-.395h-.395c-.238 0-.398.157-.398.395 0 .238.16.398.398.398zm0 0M11.602 5.758h.796c.235 0 .395-.156.395-.395 0-.238-.16-.398-.395-.398h-.796c-.235 0-.395.16-.395.398 0 .239.16.395.395.395zm0 0M12.398 18.844c0-.239-.16-.395-.398-.395H8.828c-.238 0-.398.156-.398.395 0 .238.16.398.398.398H12c.238 0 .398-.16.398-.398zm0 0M13.191 16.863h-1.59c-.234 0-.394.157-.394.395 0 .238.16.398.395.398h1.59c.234 0 .394-.16.394-.398 0-.238-.16-.395-.395-.395zm0 0M7.242 15.672c0 .238.156.398.395.398h3.965c.238 0 .398-.16.398-.398 0-.238-.16-.395-.398-.395H7.637c-.239 0-.395.157-.395.395zm0 0M8.828 14.086c0 .238.16.398.395.398H12c.238 0 .398-.16.398-.398 0-.238-.16-.395-.398-.395H9.223c-.235 0-.395.157-.395.395zm0 0M14.777 12.898c.239 0 .395-.16.395-.398 0-.238-.156-.395-.395-.395H12c-.238 0-.395.157-.395.395 0 .238.157.398.395.398zm0 0"/>
</svg>
