<svg xmlns="http://www.w3.org/2000/svg" width="32" height="32" viewBox="0 0 24 24">
    <path d="M7.601562 18.800781L9.601562 18.800781 9.601562 16.398438 7.601562 16.398438zM8.398438 17.199219L8.800781 17.199219 8.800781 18 8.398438 18zM16.398438 16.398438L14.398438 16.398438 14.398438 18.800781 16.398438 18.800781zM15.601562 18L15.199219 18 15.199219 17.199219 15.601562 17.199219zM7.601562 16L9.601562 16 9.601562 13.601562 7.601562 13.601562zM8.398438 14.398438L8.800781 14.398438 8.800781 15.199219 8.398438 15.199219zM16.398438 13.601562L14.398438 13.601562 14.398438 16 16.398438 16zM15.601562 15.199219L15.199219 15.199219 15.199219 14.398438 15.601562 14.398438zM7.601562 13.199219L9.601562 13.199219 9.601562 10.800781 7.601562 10.800781zM8.398438 11.601562L8.800781 11.601562 8.800781 12.398438 8.398438 12.398438zM16.398438 10.800781L14.398438 10.800781 14.398438 13.199219 16.398438 13.199219zM15.601562 12.398438L15.199219 12.398438 15.199219 11.601562 15.601562 11.601562zM10.398438 14L13.601562 14 13.601562 13.199219 14 13.199219 14 10.800781 10 10.800781 10 13.199219 10.398438 13.199219zM10.800781 11.601562L13.199219 11.601562 13.199219 12.398438 12.800781 12.398438 12.800781 13.199219 11.199219 13.199219 11.199219 12.398438 10.800781 12.398438zM10.800781 11.601562"/>
    <path d="M 22.800781 0.71875 L 21.601562 3.121094 L 21.601562 4.789062 C 19.34375 1.816406 15.78125 0 12 0 C 8.21875 0 4.65625 1.816406 2.398438 4.789062 L 2.398438 3.121094 L 1.199219 0.71875 L 0 3.121094 L 0 12 C 0 14.078125 0.519531 16.121094 1.558594 17.921875 C 1.570312 17.941406 1.585938 17.964844 1.601562 17.984375 L 1.601562 18 L 1.640625 18.078125 C 2.464844 19.46875 3.550781 20.660156 4.816406 21.601562 C 6.558594 22.910156 8.628906 23.722656 10.804688 23.9375 C 10.839844 23.941406 10.875 23.945312 10.910156 23.949219 C 10.980469 23.957031 11.050781 23.960938 11.121094 23.96875 C 11.179688 23.972656 11.234375 23.976562 11.292969 23.980469 C 11.324219 23.980469 11.355469 23.980469 11.386719 23.984375 C 11.472656 23.988281 11.5625 23.992188 11.648438 23.996094 C 11.671875 23.996094 11.695312 23.996094 11.714844 23.996094 C 11.8125 24 11.90625 24 12 24 C 12.09375 24 12.1875 24 12.285156 23.996094 C 12.304688 23.996094 12.328125 23.996094 12.351562 23.996094 C 12.4375 23.992188 12.527344 23.988281 12.613281 23.984375 C 12.644531 23.980469 12.675781 23.980469 12.707031 23.980469 C 12.765625 23.976562 12.820312 23.972656 12.878906 23.96875 C 12.949219 23.960938 13.023438 23.957031 13.09375 23.949219 C 13.125 23.945312 13.160156 23.941406 13.195312 23.9375 C 16.191406 23.640625 18.992188 22.214844 21.039062 19.921875 L 21.113281 19.808594 C 21.578125 19.273438 21.992188 18.695312 22.359375 18.082031 L 22.398438 18 C 23.441406 16.160156 24 14.121094 24 12 L 24 3.121094 Z M 0.800781 3.28125 L 1.199219 2.480469 L 1.601562 3.28125 L 1.601562 4 L 0.800781 4 Z M 1.601562 16.160156 C 1.078125 14.839844 0.800781 13.441406 0.800781 12 C 0.800781 11.878906 0.800781 11.800781 0.800781 11.679688 L 0.800781 6.398438 L 1.601562 6.398438 Z M 1.601562 5.601562 L 0.800781 5.601562 L 0.800781 4.800781 L 1.601562 4.800781 Z M 4.800781 9.199219 L 4 9.199219 L 4 8.480469 L 4.398438 7.679688 L 4.800781 8.480469 Z M 4.800781 10 L 4.800781 17.601562 L 4 17.601562 L 4 10 Z M 4.800781 18.398438 L 4.800781 19.199219 L 4 19.199219 L 4 18.398438 Z M 5.695312 21.25 C 5.148438 20.878906 4.636719 20.460938 4.164062 20 L 6.195312 20 Z M 15.605469 22.597656 C 15.585938 22.605469 15.5625 22.613281 15.539062 22.621094 C 15.5 22.636719 15.457031 22.648438 15.417969 22.664062 C 15.371094 22.675781 15.324219 22.691406 15.28125 22.703125 C 15.242188 22.71875 15.203125 22.730469 15.164062 22.742188 C 15.105469 22.757812 15.050781 22.773438 14.992188 22.789062 C 14.96875 22.796875 14.945312 22.800781 14.921875 22.808594 C 14.878906 22.820312 14.839844 22.832031 14.796875 22.839844 C 14.800781 22.828125 14.800781 22.8125 14.800781 22.800781 L 14.800781 22 C 14.800781 21.761719 14.640625 21.601562 14.398438 21.601562 C 14.160156 21.601562 14 21.761719 14 22 L 14 22.800781 C 14 22.878906 14.019531 22.949219 14.050781 23.007812 C 14.003906 23.015625 13.957031 23.027344 13.910156 23.035156 C 13.902344 23.035156 13.894531 23.035156 13.886719 23.039062 C 13.714844 23.066406 13.546875 23.09375 13.375 23.113281 C 13.367188 23.113281 13.355469 23.117188 13.34375 23.117188 C 13.179688 23.136719 13.011719 23.15625 12.839844 23.167969 C 12.828125 23.167969 12.8125 23.171875 12.796875 23.171875 C 12.632812 23.183594 12.46875 23.191406 12.304688 23.195312 C 12.285156 23.195312 12.265625 23.195312 12.246094 23.195312 C 12.164062 23.199219 12.082031 23.199219 12 23.199219 C 11.917969 23.199219 11.839844 23.199219 11.757812 23.195312 C 11.734375 23.195312 11.710938 23.195312 11.683594 23.195312 C 11.625 23.195312 11.5625 23.191406 11.5 23.1875 C 11.453125 23.1875 11.40625 23.183594 11.355469 23.179688 C 11.320312 23.179688 11.28125 23.175781 11.246094 23.175781 C 11.191406 23.171875 11.140625 23.167969 11.085938 23.164062 C 11.085938 23.164062 11.085938 23.164062 11.082031 23.160156 C 10.703125 23.128906 10.324219 23.078125 9.949219 23.007812 C 9.980469 22.949219 10 22.878906 10 22.800781 L 10 22 C 10 21.761719 9.839844 21.601562 9.601562 21.601562 C 9.359375 21.601562 9.199219 21.761719 9.199219 22 L 9.199219 22.800781 C 9.199219 22.8125 9.199219 22.828125 9.203125 22.839844 C 8.210938 22.585938 7.261719 22.195312 6.382812 21.683594 L 7.054688 20 L 9.199219 20 L 9.199219 20.398438 C 9.199219 20.640625 9.359375 20.800781 9.601562 20.800781 C 9.839844 20.800781 10 20.640625 10 20.398438 L 10 20 L 14 20 L 14 20.398438 C 14 20.640625 14.160156 20.800781 14.398438 20.800781 C 14.640625 20.800781 14.800781 20.640625 14.800781 20.398438 L 14.800781 20 L 16.914062 20 L 17.59375 21.695312 C 16.964844 22.058594 16.296875 22.363281 15.605469 22.597656 Z M 11.199219 10.398438 L 11.199219 8 L 12.800781 8 L 12.800781 10.398438 L 16.800781 10.398438 L 16.800781 19.199219 L 14 19.199219 L 14 16.398438 C 14 15.28125 13.121094 14.398438 12 14.398438 C 10.878906 14.398438 10 15.28125 10 16.398438 L 10 19.199219 L 7.199219 19.199219 L 7.199219 10.398438 Z M 10.398438 7.199219 L 10.359375 7.199219 C 10.199219 7.199219 9.921875 7.160156 9.800781 6.960938 C 9.558594 6.441406 9.761719 5.761719 10.359375 5.398438 C 11.160156 4.878906 11.640625 4.199219 11.921875 3.640625 C 12.199219 4.199219 12.679688 4.878906 13.441406 5.398438 C 14.039062 5.761719 14.28125 6.398438 14 6.960938 C 13.921875 7.160156 13.878906 7.199219 13.640625 7.199219 Z M 15.121094 8.960938 C 15.480469 8.761719 15.71875 8.480469 15.878906 8.238281 C 16.039062 8.480469 16.28125 8.761719 16.558594 8.960938 C 16.800781 9.078125 16.921875 9.359375 16.800781 9.558594 C 16.800781 9.601562 16.800781 9.601562 16.800781 9.601562 L 15 9.601562 C 14.921875 9.601562 14.878906 9.558594 14.878906 9.558594 C 14.800781 9.359375 14.878906 9.121094 15.121094 8.960938 Z M 13.199219 16.398438 L 13.199219 19.199219 L 10.800781 19.199219 L 10.800781 16.398438 C 10.800781 15.71875 11.320312 15.199219 12 15.199219 C 12.679688 15.199219 13.199219 15.71875 13.199219 16.398438 Z M 8.921875 9.558594 C 8.921875 9.601562 8.921875 9.601562 8.921875 9.601562 L 7.160156 9.601562 C 7.078125 9.601562 7.039062 9.558594 7.039062 9.558594 C 6.960938 9.359375 7.039062 9.121094 7.28125 8.960938 C 7.640625 8.761719 7.878906 8.480469 8.039062 8.238281 C 8.199219 8.480469 8.441406 8.761719 8.679688 8.960938 C 8.921875 9.078125 9.039062 9.359375 8.921875 9.558594 Z M 18.285156 21.265625 L 17.777344 20 L 19.835938 20 C 19.355469 20.46875 18.835938 20.890625 18.285156 21.265625 Z M 20 19.199219 L 19.199219 19.199219 L 19.199219 18.398438 L 20 18.398438 Z M 20 17.601562 L 19.199219 17.601562 L 19.199219 10 L 20 10 Z M 20 9.199219 L 19.199219 9.199219 L 19.199219 8.480469 L 19.601562 7.679688 L 20 8.480469 Z M 21.601562 17.761719 C 21.355469 18.167969 21.089844 18.554688 20.800781 18.925781 L 20.800781 8.320312 L 19.601562 5.921875 L 18.398438 8.320312 L 18.398438 19.199219 L 17.601562 19.199219 L 17.601562 9.828125 C 17.816406 9.285156 17.609375 8.621094 17.039062 8.28125 C 16.398438 7.878906 16.28125 7.199219 16.28125 7.121094 C 16.28125 6.921875 16.121094 6.761719 15.921875 6.761719 C 15.878906 6.761719 15.878906 6.761719 15.878906 6.761719 C 15.839844 6.761719 15.839844 6.761719 15.839844 6.761719 C 15.679688 6.800781 15.519531 6.921875 15.480469 7.121094 C 15.480469 7.199219 15.359375 7.878906 14.71875 8.28125 C 14.226562 8.578125 14.003906 9.09375 14.097656 9.601562 L 13.601562 9.601562 L 13.601562 8 L 13.640625 8 C 14.28125 8 14.558594 7.679688 14.761719 7.320312 C 15.199219 6.398438 14.878906 5.320312 13.921875 4.71875 C 12.640625 3.921875 12.359375 2.601562 12.320312 2.359375 C 12.28125 2.160156 12.121094 2 11.921875 2 C 11.71875 2 11.558594 2.160156 11.519531 2.359375 C 11.480469 2.601562 11.199219 3.921875 9.921875 4.71875 C 8.960938 5.320312 8.601562 6.398438 9.078125 7.320312 C 9.320312 7.761719 9.761719 8 10.359375 8 L 10.398438 8 L 10.398438 9.601562 L 9.777344 9.601562 C 9.886719 9.097656 9.664062 8.542969 9.160156 8.238281 C 8.558594 7.839844 8.441406 7.199219 8.398438 7.078125 C 8.398438 6.921875 8.238281 6.761719 8.039062 6.761719 C 7.878906 6.761719 7.679688 6.921875 7.640625 7.121094 C 7.640625 7.199219 7.519531 7.878906 6.878906 8.28125 C 6.28125 8.640625 6.078125 9.320312 6.359375 9.921875 C 6.371094 9.945312 6.386719 9.96875 6.398438 9.992188 L 6.398438 19.199219 L 5.601562 19.199219 L 5.601562 8.320312 L 4.398438 5.921875 L 3.199219 8.320312 L 3.199219 18.925781 C 2.910156 18.554688 2.644531 18.167969 2.398438 17.761719 L 2.398438 6.238281 C 4.398438 2.878906 8.078125 0.800781 12 0.800781 C 15.921875 0.800781 19.601562 2.878906 21.601562 6.238281 Z M 22.398438 3.28125 L 22.800781 2.480469 L 23.199219 3.28125 L 23.199219 4 L 22.398438 4 Z M 23.199219 11.199219 L 23.199219 11.679688 C 23.199219 11.761719 23.199219 11.878906 23.199219 12 C 23.199219 13.441406 22.921875 14.839844 22.398438 16.160156 L 22.398438 6.398438 L 23.199219 6.398438 Z M 23.199219 5.601562 L 22.398438 5.601562 L 22.398438 4.800781 L 23.199219 4.800781 Z M 23.199219 5.601562"/>
</svg>
