<svg xmlns="http://www.w3.org/2000/svg" width="32" height="32" viewBox="0 0 24 24">
    <path d="M24 12c0-.793-.078-1.57-.227-2.32l.028-.04-.04-.16c-.042-.12-.042-.242-.081-.359l-.078-.32h-.024l-.02-.082-.019-.008C22.098 3.695 17.461 0 12 0 6.54 0 1.902 3.695.46 8.71l-.019.009-.043.16c0 .059-.02.117-.03.172l-.009.027c-.039.16-.078.281-.12.442l-.04.16.02.035A12.25 12.25 0 0 0 0 12c0 2.695.902 5.191 2.418 7.2h-.059l.563.679a12.3 12.3 0 0 0 2.824 2.355c.059.09.152.145.27.16a11.935 11.935 0 0 0 4.367 1.496h.004c.101.012.203.028.3.036a6.847 6.847 0 0 0 .305.031c.016 0 .031.004.043.004.09.008.176.012.266.02.02 0 .039 0 .058.003.086.004.168.008.254.008.024 0 .043.004.067.004.105.004.215.004.32.004.105 0 .215 0 .32-.004.024 0 .043-.004.067-.004.086 0 .168-.004.254-.008.02-.004.039-.004.058-.004.09-.007.176-.011.266-.02.012 0 .027-.003.043-.003.094-.008.187-.016.281-.027.008 0 .016 0 .024-.004.097-.008.199-.024.3-.035h.004c.988-.137 1.938-.391 2.836-.754a11.664 11.664 0 0 0 1.57-.766.459.459 0 0 0 .106-.058 12.45 12.45 0 0 0 2.95-2.434l.562-.68h-.059A11.92 11.92 0 0 0 24 12zM12 .8c4.824 0 8.957 3.09 10.527 7.388a17.006 17.006 0 0 0-7.605-1.79H9.078c-2.629 0-5.23.602-7.601 1.778C3.05 3.883 7.184.8 12 .8zm9.96 8H2c2.2-1.038 4.64-1.6 7.078-1.6h5.8c2.442 0 4.884.562 7.083 1.6zm.84.802l-.855 1.199H1.746l-.668-1.2zm-8.921 6.117c-.598 1.203-.68 2.32-.16 3.48h-3.48c.523-1.16.48-2.277-.118-3.48l-.281-.52H5.398c-.718 0-1.359-.36-1.718-.918L3.523 14h16.141l-.344.48c-.398.442-.96.72-1.558.72H14.16zM14 20v1.602h-1.602V20zm-2.398 0v1.602H10V20zm-5.149-6.8H3.398L2.32 11.601h3.067zm-.105-1.598h10.504l-1.067 1.597h-8.37zm10.398 1.597l1.067-1.597h3.308l-1.32 1.597zM4.398 20.207c-.07-.066-.144-.137-.214-.207h.214zm2.403 1.395H6.25a12.16 12.16 0 0 1-1.05-.72V20h1.6zm-3.364-2.403A11.137 11.137 0 0 1 .86 10.855L3 14.68c.52.84 1.441 1.32 2.398 1.32H9.36l.04.078c.527 1.133.523 2.05-.047 3.121zM7.603 20h1.597v1.602H7.602zm8.503 2.414l-.023.012a3.339 3.339 0 0 1-.18.066c-.043.02-.09.035-.132.051-.028.008-.051.02-.079.027a11.286 11.286 0 0 1-3.14.617h-.055c-.074.004-.144.008-.219.008-.093.004-.183.004-.277.004-.094 0-.188 0-.281-.004h-.078c-.07-.004-.137-.008-.207-.008-.024-.003-.047-.003-.07-.007l-.216-.012c-.015 0-.035-.004-.05-.004l-.235-.023h-.023a11.073 11.073 0 0 1-2.985-.743h8.29a.117.117 0 0 1-.04.016zm.293-.812h-1.597V20h1.597zm2.403-.72a12.16 12.16 0 0 1-1.051.72h-.55V20h1.6zm.8-.675V20h.215c-.07.07-.144.14-.214.207zm.962-1.008h-5.88c-.605-1.074-.609-2.027-.042-3.12L14.68 16h3.082c.84 0 1.636-.398 2.199-1.04l3.152-4.366c.055.46.086.93.086 1.406 0 2.734-.992 5.25-2.637 7.2zm0 0"/>
</svg>
