<svg xmlns="http://www.w3.org/2000/svg" width="32" height="32" viewBox="0 0 24 24">
    <path d="M 22.207031 0.128906 L 21.085938 1.296875 L 19.792969 0 L 18.496094 1.296875 L 17.203125 0 L 15.90625 1.296875 L 14.613281 0 L 13.316406 1.296875 L 12.023438 0 L 10.726562 1.296875 L 9.433594 0 L 8.136719 1.296875 L 6.839844 0 L 5.546875 1.296875 L 4.25 0 L 2.957031 1.296875 L 1.792969 0.128906 L 1.015625 0.128906 L 1.015625 23.871094 L 1.792969 23.871094 L 2.914062 22.703125 L 4.207031 24 L 5.503906 22.703125 L 6.796875 24 L 8.09375 22.703125 L 9.386719 24 L 10.683594 22.703125 L 11.976562 24 L 13.230469 22.703125 L 14.523438 24 L 15.820312 22.703125 L 17.113281 24 L 18.410156 22.703125 L 19.703125 24 L 21 22.703125 L 22.164062 23.871094 L 22.984375 23.871094 L 22.984375 0.128906 Z M 22.121094 22.574219 L 21.042969 21.496094 L 19.75 22.792969 L 18.453125 21.496094 L 17.160156 22.75 L 15.863281 21.453125 L 14.570312 22.75 L 13.273438 21.453125 L 11.976562 22.75 L 10.683594 21.453125 L 9.386719 22.75 L 8.09375 21.453125 L 6.796875 22.75 L 5.503906 21.453125 L 4.207031 22.75 L 2.914062 21.453125 L 1.835938 22.53125 L 1.835938 1.382812 L 2.914062 2.503906 L 4.207031 1.207031 L 5.503906 2.503906 L 6.796875 1.207031 L 8.09375 2.503906 L 9.386719 1.207031 L 10.683594 2.503906 L 11.976562 1.207031 L 13.273438 2.503906 L 14.570312 1.207031 L 15.863281 2.503906 L 17.160156 1.207031 L 18.453125 2.503906 L 19.75 1.207031 L 21.042969 2.503906 L 22.121094 1.425781 Z M 22.121094 22.574219"/>
    <path d="M 11.976562 3.152344 C 7.101562 3.152344 3.128906 7.121094 3.128906 12 C 3.128906 16.878906 7.101562 20.847656 11.976562 20.847656 C 16.898438 20.847656 20.828125 16.878906 20.828125 12 C 20.828125 7.121094 16.855469 3.152344 11.976562 3.152344 Z M 11.976562 19.984375 C 7.574219 19.984375 3.992188 16.402344 3.992188 12 C 3.992188 7.597656 7.574219 4.015625 11.976562 4.015625 C 16.425781 4.015625 19.964844 7.597656 19.964844 12 C 19.964844 16.402344 16.382812 19.984375 11.976562 19.984375 Z M 11.976562 19.984375"/>
    <path d="M 11.976562 5.308594 C 8.308594 5.308594 5.289062 8.332031 5.289062 12 C 5.289062 15.667969 8.308594 18.691406 11.976562 18.691406 C 15.691406 18.691406 18.667969 15.667969 18.667969 12 C 18.667969 8.332031 15.648438 5.308594 11.976562 5.308594 Z M 11.976562 17.828125 C 8.785156 17.828125 6.152344 15.195312 6.152344 12 C 6.152344 8.804688 8.785156 6.171875 11.976562 6.171875 C 15.214844 6.171875 17.804688 8.804688 17.804688 12 C 17.804688 15.195312 15.171875 17.828125 11.976562 17.828125 Z M 11.976562 17.828125"/>
</svg>
