<svg xmlns="http://www.w3.org/2000/svg" width="32" height="32" viewBox="0 0 24 24">
    <path d="M 16.472656 19.691406 C 16.472656 19.648438 16.472656 19.566406 16.472656 19.527344 L 16.472656 13.996094 C 16.960938 13.46875 17.042969 12.65625 16.714844 12.003906 C 16.636719 11.882812 16.636719 11.71875 16.714844 11.597656 C 16.960938 11.109375 16.960938 10.5 16.714844 9.972656 C 16.636719 9.851562 16.636719 9.6875 16.714844 9.566406 C 16.960938 9.078125 16.960938 8.46875 16.714844 7.9375 C 16.636719 7.816406 16.636719 7.652344 16.714844 7.53125 C 17.042969 6.839844 16.960938 6.070312 16.472656 5.5 C 16.351562 3.589844 15.050781 1.960938 13.21875 1.433594 L 13.21875 1.3125 C 13.21875 0.660156 12.773438 0.0898438 12.164062 0.0117188 C 11.796875 -0.03125 11.472656 0.0507812 11.1875 0.292969 C 10.941406 0.539062 10.78125 0.863281 10.78125 1.230469 L 10.78125 1.390625 C 8.949219 1.921875 7.609375 3.546875 7.527344 5.457031 C 7.078125 6.070312 7 6.921875 7.363281 7.613281 C 7.40625 7.65625 7.40625 7.734375 7.363281 7.816406 C 7.039062 8.386719 7.039062 9.078125 7.363281 9.648438 C 7.40625 9.6875 7.40625 9.769531 7.363281 9.851562 C 7.039062 10.417969 7.039062 11.109375 7.363281 11.679688 C 7.40625 11.71875 7.40625 11.800781 7.363281 11.882812 C 6.957031 12.574219 7.039062 13.429688 7.527344 13.996094 L 7.527344 19.527344 C 7.527344 19.566406 7.527344 19.648438 7.527344 19.691406 C 6.511719 20.257812 6.308594 20.910156 6.308594 21.355469 C 6.308594 22.863281 8.746094 24 12 24 C 15.253906 24 17.691406 22.863281 17.691406 21.355469 C 17.691406 20.910156 17.488281 20.257812 16.472656 19.691406 Z M 12 23.1875 C 9.195312 23.1875 7.121094 22.210938 7.121094 21.355469 C 7.121094 21.082031 7.324219 20.808594 7.699219 20.554688 C 7.917969 20.941406 8.339844 21.269531 8.949219 21.519531 C 9.195312 21.640625 9.4375 21.519531 9.558594 21.316406 C 9.640625 21.113281 9.601562 20.867188 9.4375 20.746094 L 8.339844 19.769531 C 8.339844 19.691406 8.339844 19.609375 8.339844 19.527344 L 8.339844 13.671875 L 8.21875 13.550781 C 7.894531 13.226562 7.8125 12.695312 8.054688 12.289062 C 8.070312 12.261719 8.082031 12.234375 8.09375 12.207031 L 8.339844 12.207031 C 8.585938 12.207031 8.746094 12.046875 8.746094 11.800781 C 8.746094 11.558594 8.585938 11.394531 8.339844 11.394531 L 8.109375 11.394531 C 8.09375 11.355469 8.074219 11.3125 8.054688 11.273438 C 7.894531 10.988281 7.894531 10.582031 8.054688 10.257812 C 8.070312 10.230469 8.082031 10.203125 8.09375 10.175781 L 8.746094 10.175781 C 8.992188 10.175781 9.152344 10.011719 9.152344 9.769531 C 9.152344 9.523438 8.992188 9.363281 8.746094 9.363281 L 8.109375 9.363281 C 8.09375 9.320312 8.074219 9.28125 8.054688 9.238281 C 7.894531 8.957031 7.894531 8.546875 8.054688 8.222656 C 8.070312 8.195312 8.082031 8.167969 8.09375 8.140625 L 8.339844 8.140625 C 8.585938 8.140625 8.746094 7.980469 8.746094 7.734375 C 8.746094 7.492188 8.585938 7.328125 8.339844 7.328125 L 8.109375 7.328125 C 8.09375 7.289062 8.074219 7.246094 8.054688 7.207031 C 7.8125 6.800781 7.894531 6.273438 8.21875 5.945312 L 8.339844 5.824219 L 8.339844 5.660156 C 8.382812 3.953125 9.601562 2.449219 11.269531 2.125 L 11.59375 2.042969 L 11.59375 1.230469 C 11.59375 1.109375 11.632812 0.984375 11.757812 0.90625 C 11.796875 0.863281 11.878906 0.824219 12 0.824219 C 12 0.824219 12.039062 0.824219 12.082031 0.824219 C 12.285156 0.824219 12.40625 1.066406 12.40625 1.269531 L 12.40625 2.042969 L 12.730469 2.125 C 14.398438 2.449219 15.617188 3.953125 15.660156 5.621094 L 15.660156 5.785156 L 15.78125 5.863281 C 16.105469 6.191406 16.1875 6.679688 15.984375 7.085938 C 15.949219 7.164062 15.921875 7.246094 15.902344 7.328125 L 15.660156 7.328125 C 15.414062 7.328125 15.253906 7.492188 15.253906 7.734375 C 15.253906 7.980469 15.414062 8.140625 15.660156 8.140625 L 15.953125 8.140625 C 15.960938 8.167969 15.972656 8.195312 15.984375 8.222656 C 16.148438 8.507812 16.148438 8.875 15.984375 9.160156 C 15.953125 9.222656 15.925781 9.292969 15.90625 9.363281 L 15.253906 9.363281 C 15.007812 9.363281 14.847656 9.523438 14.847656 9.769531 C 14.847656 10.011719 15.007812 10.175781 15.253906 10.175781 L 15.953125 10.175781 C 15.960938 10.203125 15.972656 10.230469 15.984375 10.257812 C 16.148438 10.542969 16.148438 10.90625 15.984375 11.191406 C 15.957031 11.257812 15.929688 11.328125 15.914062 11.394531 L 15.660156 11.394531 C 15.414062 11.394531 15.253906 11.558594 15.253906 11.800781 C 15.253906 12.046875 15.414062 12.207031 15.660156 12.207031 L 15.9375 12.207031 C 15.953125 12.25 15.96875 12.289062 15.984375 12.332031 C 16.1875 12.738281 16.105469 13.226562 15.78125 13.550781 L 15.660156 13.671875 L 15.660156 19.527344 C 15.660156 19.648438 15.660156 19.769531 15.660156 19.894531 L 15.617188 20.179688 L 15.636719 20.1875 C 15.578125 20.304688 15.492188 20.410156 15.375 20.503906 C 14.5625 21.195312 12.488281 21.277344 11.308594 21.195312 C 11.066406 21.152344 10.863281 21.355469 10.863281 21.558594 C 10.820312 21.804688 10.984375 22.007812 11.226562 22.007812 C 11.308594 22.007812 11.632812 22.046875 12.082031 22.046875 C 13.179688 22.046875 14.925781 21.925781 15.902344 21.152344 C 16.09375 20.984375 16.242188 20.792969 16.34375 20.585938 C 16.691406 20.832031 16.878906 21.09375 16.878906 21.355469 C 16.878906 22.210938 14.804688 23.1875 12 23.1875 Z M 12 23.1875"/>
    <path d="M 11.59375 4.074219 C 11.835938 4.074219 12 3.914062 12 3.667969 C 12 3.425781 11.835938 3.261719 11.59375 3.261719 C 10.453125 3.261719 9.558594 4.359375 9.558594 5.703125 C 9.558594 5.945312 9.722656 6.109375 9.96875 6.109375 C 10.210938 6.109375 10.375 5.945312 10.375 5.703125 C 10.375 4.808594 10.902344 4.074219 11.59375 4.074219 Z M 11.59375 4.074219"/>
</svg>
