<svg xmlns="http://www.w3.org/2000/svg" width="32" height="32" viewBox="0 0 24 24">
    <path d="M 16.472656 17.886719 C 16.265625 17.804688 16.019531 17.96875 15.980469 18.175781 C 15.734375 19.324219 15.117188 20.390625 14.257812 21.25 C 11.710938 23.792969 7.527344 23.792969 4.984375 21.25 C 2.441406 18.707031 2.441406 14.523438 4.984375 11.980469 C 7.527344 9.4375 11.710938 9.4375 14.257812 11.9375 C 14.707031 12.347656 15.078125 12.839844 15.363281 13.375 C 15.488281 13.578125 15.734375 13.660156 15.9375 13.539062 C 16.144531 13.414062 16.226562 13.167969 16.101562 12.964844 C 15.773438 12.390625 15.363281 11.855469 14.871094 11.363281 C 12.042969 8.574219 7.550781 8.496094 4.664062 11.125 L 2.972656 9.4375 L 4.125 8.289062 C 4.289062 8.125 4.289062 7.878906 4.125 7.710938 C 3.957031 7.546875 3.710938 7.546875 3.546875 7.710938 L 2.398438 8.863281 L 1.660156 8.125 C 1.496094 7.960938 1.25 7.960938 1.085938 8.125 C 0.921875 8.289062 0.921875 8.535156 1.085938 8.699219 L 1.824219 9.4375 L 0.675781 10.585938 C 0.511719 10.75 0.511719 10.996094 0.675781 11.160156 C 0.757812 11.242188 0.839844 11.28125 0.964844 11.28125 C 1.046875 11.28125 1.167969 11.242188 1.25 11.160156 L 2.398438 10.011719 L 4.09375 11.707031 C 1.542969 14.632812 1.648438 19.0625 4.410156 21.824219 C 5.847656 23.261719 7.734375 24 9.621094 24 C 11.507812 24 13.394531 23.300781 14.789062 21.867188 C 15.773438 20.882812 16.429688 19.691406 16.757812 18.378906 C 16.839844 18.175781 16.675781 17.929688 16.472656 17.886719 Z M 16.472656 17.886719"/>
    <path d="M 23.035156 0 L 20.164062 0 C 19.917969 0 19.753906 0.164062 19.753906 0.410156 C 19.753906 0.65625 19.917969 0.820312 20.164062 0.820312 L 22.011719 0.820312 L 19.558594 3.273438 C 16.632812 0.703125 12.183594 0.800781 9.414062 3.570312 C 8.347656 4.636719 7.609375 5.988281 7.363281 7.507812 C 7.324219 7.753906 7.488281 7.957031 7.691406 8 C 7.9375 8.042969 8.144531 7.875 8.183594 7.671875 C 8.390625 6.359375 9.046875 5.128906 9.988281 4.183594 C 12.535156 1.640625 16.71875 1.640625 19.300781 4.144531 C 21.847656 6.6875 21.847656 10.871094 19.300781 13.414062 C 16.757812 15.957031 12.574219 15.957031 10.03125 13.414062 C 9.578125 12.964844 9.167969 12.472656 8.882812 11.898438 C 8.757812 11.691406 8.511719 11.609375 8.308594 11.734375 C 8.101562 11.855469 8.019531 12.101562 8.144531 12.308594 C 8.472656 12.921875 8.921875 13.539062 9.414062 14.03125 C 10.851562 15.464844 12.738281 16.207031 14.625 16.207031 C 16.511719 16.207031 18.398438 15.464844 19.878906 14.03125 C 22.660156 11.207031 22.746094 6.730469 20.136719 3.84375 L 22.625 1.355469 L 22.625 3.28125 C 22.625 3.527344 22.789062 3.691406 23.035156 3.691406 C 23.28125 3.691406 23.445312 3.527344 23.445312 3.28125 L 23.445312 0.410156 C 23.445312 0.164062 23.28125 0 23.035156 0 Z M 23.035156 0"/>
</svg>
