<svg xmlns="http://www.w3.org/2000/svg" width="32" height="32" viewBox="0 0 24 24">
    <path d="M20.719 14.422c2.922-2.844 2.082-6.64.601-8.281C20.04 4.738 18.56 3.98 17 3.98c-1.719 0-3.281 1-4.2 2.68-.921-1.68-2.48-2.68-4.16-2.68-1.562 0-3.038.718-4.32 2.12-1.52 1.68-2.36 5.477.602 8.32 1.36 1.278 7.52 7.759 7.598 7.84.082.079.16.118.28.118.122 0 .24-.078.321-.117.078-.082 6.238-6.524 7.598-7.84zm-.598-.602c-1.2 1.16-6.082 6.239-7.32 7.559-1.242-1.32-6.082-6.399-7.32-7.559-2.602-2.441-1.88-5.718-.56-7.16 1.118-1.238 2.4-1.879 3.72-1.879 1.597 0 3.078 1.16 3.8 3 .04.117.2.239.36.239.16 0 .32-.122.36-.239.718-1.84 2.16-3 3.8-3 1.36 0 2.598.64 3.719 1.88 1.28 1.398 2 4.679-.559 7.16zm0 0"/>
    <path d="M17 5.578c-.238 0-.398.16-.398.402 0 .239.16.399.398.399.879 0 1.719.48 2.52 1.36.082.081.16.12.28.12.122 0 .2-.039.278-.12.16-.16.203-.4.043-.56-.96-1.038-2-1.6-3.121-1.6zm0 0M4.8 2.422c.24 0 .4-.16.4-.402 0-.239-.16-.399-.4-.399-2.6 0-4.8 2.2-4.8 4.8 0 .24.16.4.398.4.243 0 .403-.16.403-.4 0-2.12 1.879-4 4-4zm0 0"/>
    <path d="M4.8 4.02c.24 0 .4-.16.4-.399 0-.242-.16-.402-.4-.402-1.6 0-3.081 1.52-3.081 3.203 0 .238.16.398.402.398a.4.4 0 0 0 .399-.398C2.52 5.18 3.64 4.02 4.8 4.02zm0 0M23.602 16.422c-.243 0-.403.156-.403.398 0 2.121-1.879 4-4 4-.238 0-.398.16-.398.399 0 .242.16.402.398.402 2.602 0 4.801-2.2 4.801-4.8 0-.243-.16-.4-.398-.4zm0 0"/>
    <path d="M21.602 16.82c0 1.2-1.204 2.399-2.403 2.399-.238 0-.398.16-.398.402 0 .238.16.399.398.399 1.64 0 3.2-1.56 3.2-3.2 0-.242-.16-.398-.399-.398-.238 0-.398.156-.398.398zm0 0"/>
</svg>
