<svg xmlns="http://www.w3.org/2000/svg" width="32" height="32" viewBox="0 0 24 24">
    <path d="M 21.601562 8.375 L 21.601562 5.195312 C 21.601562 4.316406 20.878906 3.59375 20 3.59375 L 16.464844 3.59375 L 13.039062 0.394531 C 12.480469 -0.125 11.558594 -0.125 11 0.394531 L 7.542969 3.59375 L 4 3.59375 C 3.121094 3.59375 2.398438 4.316406 2.398438 5.195312 L 2.398438 8.414062 L 0.175781 10.472656 C 0.132812 10.5 0.101562 10.53125 0.0742188 10.566406 L 0 10.636719 L 0 23.996094 L 24 23.996094 L 24 10.59375 Z M 8.15625 17.199219 L 0.800781 22.796875 L 0.800781 11.59375 L 2.398438 12.8125 L 2.398438 12.835938 Z M 8.933594 17.59375 L 15.066406 17.59375 L 22.414062 23.195312 L 1.585938 23.195312 Z M 15.878906 17.195312 L 19.339844 14.546875 L 21.601562 12.835938 L 21.601562 12.820312 L 23.199219 11.59375 L 23.199219 22.796875 Z M 22.988281 10.757812 L 21.601562 11.816406 L 21.601562 9.476562 Z M 11.519531 0.996094 C 11.800781 0.753906 12.199219 0.753906 12.480469 0.996094 L 15.28125 3.59375 L 8.71875 3.59375 Z M 3.199219 5.195312 C 3.199219 4.753906 3.558594 4.394531 4 4.394531 L 20 4.394531 C 20.441406 4.394531 20.800781 4.753906 20.800781 5.195312 L 20.800781 12.425781 L 18.878906 13.886719 L 15.039062 16.796875 L 8.933594 16.796875 L 3.199219 12.425781 Z M 2.398438 11.816406 L 1.011719 10.757812 L 2.398438 9.476562 Z M 2.398438 11.816406"/>
    <path d="M 7.878906 11.476562 C 8.558594 12.113281 11.679688 15.394531 11.71875 15.433594 L 12 15.753906 L 12.238281 15.433594 C 12.28125 15.394531 15.398438 12.113281 16.078125 11.476562 C 17.679688 9.914062 17.199219 7.875 16.398438 6.996094 C 15.71875 6.234375 14.921875 5.835938 14.078125 5.835938 C 13.238281 5.835938 12.480469 6.273438 11.960938 7.035156 C 11.480469 6.273438 10.71875 5.835938 9.878906 5.835938 C 9.039062 5.835938 8.238281 6.234375 7.558594 6.996094 C 6.601562 8.074219 6.441406 10.113281 7.878906 11.476562 Z M 8.199219 7.554688 C 8.71875 6.953125 9.320312 6.675781 9.921875 6.675781 C 10.761719 6.675781 11.359375 7.394531 11.640625 8.074219 L 12 9.035156 L 12.398438 8.074219 C 12.679688 7.394531 13.28125 6.675781 14.160156 6.675781 C 14.761719 6.675781 15.359375 6.953125 15.878906 7.554688 C 16.480469 8.234375 16.800781 9.753906 15.601562 10.914062 C 15.039062 11.476562 12.839844 13.753906 12.039062 14.59375 C 11.238281 13.753906 9.078125 11.476562 8.480469 10.914062 C 7.238281 9.753906 7.601562 8.234375 8.199219 7.554688 Z M 8.199219 7.554688"/>
</svg>
