<svg xmlns="http://www.w3.org/2000/svg" width="32" height="32" viewBox="0 0 24 24">
    <path d="M21.602 8.375v-3.18c0-.879-.723-1.601-1.602-1.601h-3.535l-3.426-3.2a1.529 1.529 0 0 0-2.039 0l-3.457 3.2H4c-.879 0-1.602.722-1.602 1.601v3.22L.176 10.472a.392.392 0 0 0-.102.093l-.074.07v13.36h24V10.594zM8.156 17.199L.801 22.797V11.594l1.597 1.219v.023zm.778.395h6.132l7.348 5.601H1.586zm6.945-.399l3.46-2.648 2.263-1.711v-.016l1.597-1.226v11.203zm7.11-6.437l-1.387 1.058v-2.34zM11.518.996a.726.726 0 0 1 .961 0l2.801 2.598H8.72zm-8.32 4.2c0-.442.36-.801.801-.801h16c.441 0 .8.359.8.8v7.23l-1.921 1.462-3.84 2.91H8.934l-5.735-4.371zm-.8 6.62l-1.387-1.058 1.386-1.281zm0 0"/>
    <path d="M7.879 11.477c.68.636 3.8 3.918 3.84 3.957l.281.32.238-.32c.043-.04 3.16-3.32 3.84-3.957 1.602-1.563 1.121-3.602.32-4.48-.68-.763-1.476-1.161-2.32-1.161-.84 0-1.598.437-2.117 1.2-.48-.763-1.242-1.2-2.082-1.2-.84 0-1.64.398-2.32 1.16-.957 1.078-1.118 3.117.32 4.48zm.32-3.922c.52-.602 1.121-.88 1.723-.88.84 0 1.437.72 1.719 1.4l.359.96.398-.96c.282-.68.883-1.4 1.762-1.4.602 0 1.2.278 1.719.88.601.68.922 2.199-.277 3.36-.563.562-2.762 2.839-3.563 3.679-.8-.84-2.96-3.117-3.559-3.68-1.242-1.16-.878-2.68-.28-3.36zm0 0"/>
</svg>
