<svg xmlns="http://www.w3.org/2000/svg" width="32" height="32" viewBox="0 0 24 24">
    <path d="M 23.863281 20.058594 C 23.683594 19.878906 23.410156 19.878906 23.230469 20.058594 L 21.960938 21.328125 L 19.449219 18.8125 C 21.148438 16.960938 22.1875 14.488281 22.1875 11.773438 C 22.1875 9.175781 21.234375 6.796875 19.660156 4.972656 L 23.09375 1.539062 L 23.09375 3.621094 C 23.09375 3.894531 23.277344 4.074219 23.546875 4.074219 C 23.820312 4.074219 24 3.894531 24 3.621094 L 24 0.453125 C 24 0.179688 23.820312 0 23.546875 0 L 20.378906 0 C 20.105469 0 19.925781 0.179688 19.925781 0.453125 C 19.925781 0.722656 20.105469 0.90625 20.378906 0.90625 L 22.460938 0.90625 L 19.046875 4.320312 C 17.167969 2.488281 14.601562 1.359375 11.773438 1.359375 C 9.058594 1.359375 6.585938 2.398438 4.734375 4.097656 L 1.539062 0.90625 L 3.621094 0.90625 C 3.894531 0.90625 4.074219 0.722656 4.074219 0.453125 C 4.074219 0.179688 3.894531 0 3.621094 0 L 0.453125 0 C 0.179688 0 0 0.179688 0 0.453125 L 0 3.621094 C 0 3.894531 0.179688 4.074219 0.453125 4.074219 C 0.722656 4.074219 0.90625 3.894531 0.90625 3.621094 L 0.90625 1.539062 L 4.097656 4.734375 C 2.398438 6.585938 1.359375 9.058594 1.359375 11.773438 C 1.359375 14.601562 2.488281 17.167969 4.320312 19.046875 L 2.039062 21.328125 L 0.769531 20.058594 C 0.589844 19.878906 0.316406 19.878906 0.136719 20.058594 C -0.046875 20.242188 -0.046875 20.511719 0.136719 20.695312 L 1.402344 21.960938 L 0.136719 23.230469 C -0.046875 23.410156 -0.046875 23.683594 0.136719 23.863281 C 0.226562 23.953125 0.316406 24 0.453125 24 C 0.589844 24 0.679688 23.953125 0.769531 23.863281 L 2.039062 22.597656 L 3.304688 23.863281 C 3.394531 23.953125 3.488281 24 3.621094 24 C 3.757812 24 3.847656 23.953125 3.941406 23.863281 C 4.121094 23.683594 4.121094 23.410156 3.941406 23.230469 L 2.671875 21.960938 L 4.972656 19.660156 C 6.796875 21.234375 9.175781 22.1875 11.773438 22.1875 C 14.488281 22.1875 16.960938 21.148438 18.8125 19.449219 L 21.328125 21.960938 L 20.058594 23.230469 C 19.878906 23.410156 19.878906 23.683594 20.058594 23.863281 C 20.152344 23.953125 20.242188 24 20.378906 24 C 20.511719 24 20.605469 23.953125 20.695312 23.863281 L 21.960938 22.597656 L 23.230469 23.863281 C 23.320312 23.953125 23.410156 24 23.546875 24 C 23.683594 24 23.773438 23.953125 23.863281 23.863281 C 24.046875 23.683594 24.046875 23.410156 23.863281 23.230469 L 22.597656 21.960938 L 23.863281 20.695312 C 24.046875 20.511719 24.046875 20.242188 23.863281 20.058594 Z M 11.773438 21.28125 C 9.3125 21.28125 7.070312 20.347656 5.382812 18.816406 C 5.359375 18.777344 5.332031 18.738281 5.296875 18.703125 C 5.253906 18.660156 5.207031 18.628906 5.160156 18.605469 C 3.375 16.875 2.265625 14.453125 2.265625 11.773438 C 2.265625 6.519531 6.519531 2.265625 11.773438 2.265625 C 14.453125 2.265625 16.875 3.375 18.605469 5.160156 C 18.628906 5.207031 18.660156 5.253906 18.703125 5.296875 C 18.742188 5.335938 18.777344 5.367188 18.820312 5.386719 C 20.351562 7.078125 21.28125 9.316406 21.28125 11.773438 C 21.28125 17.027344 17.027344 21.28125 11.773438 21.28125 Z M 11.773438 21.28125"/>
</svg>
