<svg xmlns="http://www.w3.org/2000/svg" width="32" height="32" viewBox="0 0 24 24">
    <path d="M23.5 15.117l-1.938-5.004V5.691a4.276 4.276 0 0 0-4.269-4.273H6.668a4.28 4.28 0 0 0-4.273 4.273v4.422L.449 15.148a.971.971 0 0 0-.449.805v3.274c0 .52.438.96.957.96h.242v2.395h1.996v-2.395h17.97v2.395h1.995v-2.41c.45-.078.805-.48.84-.945v-3.274a.97.97 0 0 0-.5-.836zm-22.102-.12l1.676-4.395h.703l-.343.64c-.239.477-.32.996-.16 1.516s.48.96.96 1.199c.317.16.637.238.957.238.684 0 1.293-.324 1.625-.836a.9.9 0 0 0 .055-.074 1.992 1.992 0 0 0 1.152 1.262c.165.082.34.137.524.168.558.039 1.156-.16 1.555-.52.441-.36.68-.918.68-1.476v-.121a4.05 4.05 0 0 0 2.398 0c0 1.039.797 1.957 1.797 2.078.148.011.304.004.457-.02.007 0 .015-.004.023-.004.402-.066.79-.238 1.074-.496.239-.238.438-.554.559-.87.207.312.496.558.828.718h.004l.11.047c.003.004.007.004.011.008l.102.035c.007.004.015.004.023.008.031.011.062.02.098.027.011.004.023.008.035.008.027.008.054.015.086.02l.05.011.075.012c.023.004.047.004.07.008.02 0 .04.003.059.003.043.004.086.004.129.004.32 0 .636-.078.996-.199.48-.277.8-.68.96-1.195.075-.242.094-.48.075-.719a1.982 1.982 0 0 0-.235-.84l-.359-.64h.719l1.676 4.394zm11.782-3.25c-.762.3-1.64.296-2.399-.017V9.363c0-.078 0-.117.04-.117.042-.043.081-.043.12-.043.36.082.758.203 1.04.203.277 0 .68-.12 1.039-.242.039 0 .117.04.117.04 0 .042.043.081.043.12zm.437-3.18a.946.946 0 0 0-.558-.2c-.121 0-.2.04-.282.04-.16.038-.597.16-.797.16-.199 0-.64-.122-.8-.16-.278-.083-.598 0-.836.16a.97.97 0 0 0-.36.757v3.356c0 .32-.16.636-.398.879-.242.238-.563.359-.922.316-.598-.078-1.078-.637-1.078-1.277v-.63l.043-.046V7.008c.039-.16.277-.68.516-.957l.132-.164a3.47 3.47 0 0 1 3.543-.676l.16.039h.122c.398-.16.835-.238 1.234-.238.922 0 1.797.36 2.437 1 .024.015.043.039.067.062l.012.016c.242.281.52.797.52.918v5.672c0 .32-.161.636-.4.879-.202.203-.468.32-.765.324-.035 0-.074 0-.113-.008-.598-.078-1.078-.637-1.078-1.277l-.04-.211V9.324c0-.32-.12-.597-.359-.758zm-8.945 4.71c-.32-.16-.52-.398-.598-.718a1.05 1.05 0 0 1 .078-.918l1.375-2.59L6.59 7.129c.062-.125.14-.242.234-.348-.035.078-.035.153-.035.227v4.894l-.559.856c-.199.398-.601.64-1.039.64-.199 0-.398-.039-.52-.12zM17.41 7.13l1.445 2.676h-.007l.285.508.156.289h.004l.555 1c.117.277.16.597.078.918-.117.32-.32.558-.598.718a.762.762 0 0 1-.144.082c-.532.18-1.168-.066-1.454-.601l-.558-.864V7.008c0-.07 0-.14-.027-.238.101.109.19.23.265.359zM3.195 5.69a3.478 3.478 0 0 1 3.473-3.476h10.625a3.478 3.478 0 0 1 3.473 3.476v4.114h-.996L18.129 6.77a2.793 2.793 0 0 0-.645-.758c-.007-.008-.015-.012-.023-.02l-.004-.004a2.609 2.609 0 0 0-1.086-.539l-.039-.039a4.234 4.234 0 0 0-2.996-1.238c-.438 0-.918.082-1.356.242a3.893 3.893 0 0 0-1.359-.242A4.231 4.231 0 0 0 7.63 5.41c-.027 0-.035.02-.04.031a2.567 2.567 0 0 0-1.718 1.29l-1.66 3.074H3.195zm-.8 16.094h-.399v-1.598h.399zm19.968 0h-.398v-1.598h.398zm.84-2.558c0 .082-.082.16-.16.16H.957c-.078 0-.16-.078-.16-.16v-3.274c0-.078.082-.16.16-.16h22.086c.078 0 .16.082.16.16zm0 0"/>
</svg>
