<svg xmlns="http://www.w3.org/2000/svg" width="32" height="32" viewBox="0 0 24 24">
    <path d="M 23.5 15.117188 L 21.5625 10.113281 L 21.5625 5.691406 C 21.5625 3.335938 19.648438 1.417969 17.292969 1.417969 L 6.667969 1.417969 C 4.3125 1.417969 2.394531 3.335938 2.394531 5.691406 L 2.394531 10.113281 L 0.449219 15.148438 C 0.183594 15.320312 0 15.621094 0 15.953125 L 0 19.226562 C 0 19.746094 0.4375 20.1875 0.957031 20.1875 L 1.199219 20.1875 L 1.199219 22.582031 L 3.195312 22.582031 L 3.195312 20.1875 L 21.164062 20.1875 L 21.164062 22.582031 L 23.160156 22.582031 L 23.160156 20.171875 C 23.609375 20.09375 23.964844 19.691406 24 19.226562 L 24 15.953125 C 24 15.597656 23.792969 15.28125 23.5 15.117188 Z M 1.398438 14.996094 L 3.074219 10.601562 L 3.777344 10.601562 L 3.433594 11.242188 C 3.195312 11.71875 3.113281 12.238281 3.273438 12.757812 C 3.433594 13.277344 3.753906 13.71875 4.234375 13.957031 C 4.550781 14.117188 4.871094 14.195312 5.191406 14.195312 C 5.875 14.195312 6.484375 13.871094 6.816406 13.359375 C 6.835938 13.335938 6.855469 13.308594 6.871094 13.285156 C 7.054688 13.867188 7.476562 14.328125 8.023438 14.546875 C 8.1875 14.628906 8.363281 14.683594 8.546875 14.714844 C 9.105469 14.753906 9.703125 14.554688 10.101562 14.195312 C 10.542969 13.835938 10.78125 13.277344 10.78125 12.71875 L 10.78125 12.597656 C 11.539062 12.839844 12.417969 12.839844 13.179688 12.597656 C 13.179688 13.636719 13.976562 14.554688 14.976562 14.675781 C 15.125 14.6875 15.28125 14.679688 15.433594 14.65625 C 15.441406 14.65625 15.449219 14.652344 15.457031 14.652344 C 15.859375 14.585938 16.246094 14.414062 16.53125 14.15625 C 16.769531 13.917969 16.96875 13.601562 17.089844 13.285156 C 17.296875 13.597656 17.585938 13.84375 17.917969 14.003906 C 17.921875 14.003906 17.921875 14.003906 17.921875 14.003906 C 17.957031 14.019531 17.996094 14.035156 18.03125 14.050781 C 18.035156 14.054688 18.039062 14.054688 18.042969 14.058594 C 18.078125 14.070312 18.109375 14.082031 18.144531 14.09375 C 18.152344 14.097656 18.160156 14.097656 18.167969 14.101562 C 18.199219 14.113281 18.230469 14.121094 18.265625 14.128906 C 18.277344 14.132812 18.289062 14.136719 18.300781 14.136719 C 18.328125 14.144531 18.355469 14.152344 18.386719 14.15625 C 18.402344 14.160156 18.417969 14.164062 18.4375 14.167969 C 18.460938 14.171875 18.484375 14.175781 18.511719 14.179688 C 18.535156 14.183594 18.558594 14.183594 18.582031 14.1875 C 18.601562 14.1875 18.621094 14.191406 18.640625 14.191406 C 18.683594 14.195312 18.726562 14.195312 18.769531 14.195312 C 19.089844 14.195312 19.40625 14.117188 19.765625 13.996094 C 20.246094 13.71875 20.566406 13.316406 20.726562 12.800781 C 20.800781 12.558594 20.820312 12.320312 20.800781 12.082031 C 20.785156 11.796875 20.710938 11.507812 20.566406 11.242188 L 20.207031 10.601562 L 20.925781 10.601562 L 22.601562 14.996094 Z M 13.179688 11.746094 C 12.417969 12.046875 11.539062 12.042969 10.78125 11.730469 L 10.78125 9.363281 C 10.78125 9.285156 10.78125 9.246094 10.820312 9.246094 C 10.863281 9.203125 10.902344 9.203125 10.941406 9.203125 C 11.300781 9.285156 11.699219 9.40625 11.980469 9.40625 C 12.257812 9.40625 12.660156 9.285156 13.019531 9.164062 C 13.058594 9.164062 13.136719 9.203125 13.136719 9.203125 C 13.136719 9.246094 13.179688 9.285156 13.179688 9.324219 Z M 13.617188 8.566406 C 13.457031 8.445312 13.257812 8.367188 13.058594 8.367188 C 12.9375 8.367188 12.859375 8.40625 12.777344 8.40625 C 12.617188 8.445312 12.179688 8.566406 11.980469 8.566406 C 11.78125 8.566406 11.339844 8.445312 11.179688 8.40625 C 10.902344 8.324219 10.582031 8.40625 10.34375 8.566406 C 10.101562 8.765625 9.984375 9.042969 9.984375 9.324219 L 9.984375 12.679688 C 9.984375 13 9.824219 13.316406 9.585938 13.558594 C 9.34375 13.796875 9.023438 13.917969 8.664062 13.875 C 8.066406 13.796875 7.585938 13.238281 7.585938 12.597656 L 7.585938 11.96875 L 7.628906 11.921875 C 7.628906 11.878906 7.628906 11.800781 7.628906 11.71875 L 7.628906 7.007812 C 7.667969 6.847656 7.90625 6.328125 8.144531 6.050781 L 8.277344 5.886719 C 9.230469 5.023438 10.597656 4.753906 11.820312 5.210938 L 11.980469 5.25 L 12.101562 5.25 C 12.5 5.089844 12.9375 5.011719 13.335938 5.011719 C 14.257812 5.011719 15.132812 5.371094 15.773438 6.011719 C 15.796875 6.027344 15.816406 6.050781 15.839844 6.074219 L 15.851562 6.089844 C 16.09375 6.371094 16.371094 6.886719 16.371094 7.007812 L 16.371094 12.679688 C 16.371094 13 16.210938 13.316406 15.972656 13.558594 C 15.769531 13.761719 15.503906 13.878906 15.207031 13.882812 C 15.171875 13.882812 15.132812 13.882812 15.09375 13.875 C 14.496094 13.796875 14.015625 13.238281 14.015625 12.597656 L 13.976562 12.386719 L 13.976562 9.324219 C 13.976562 9.003906 13.855469 8.726562 13.617188 8.566406 Z M 4.671875 13.277344 C 4.351562 13.117188 4.152344 12.878906 4.074219 12.558594 C 3.953125 12.238281 3.992188 11.921875 4.152344 11.640625 L 5.527344 9.050781 L 6.589844 7.128906 C 6.652344 7.003906 6.730469 6.886719 6.824219 6.78125 C 6.789062 6.859375 6.789062 6.933594 6.789062 7.007812 L 6.789062 11.902344 L 6.230469 12.757812 C 6.03125 13.15625 5.628906 13.398438 5.191406 13.398438 C 4.992188 13.398438 4.792969 13.359375 4.671875 13.277344 Z M 17.410156 7.128906 L 18.855469 9.804688 L 18.847656 9.804688 L 19.132812 10.3125 L 19.289062 10.601562 L 19.292969 10.601562 L 19.847656 11.601562 C 19.964844 11.878906 20.007812 12.199219 19.925781 12.519531 C 19.808594 12.839844 19.605469 13.078125 19.328125 13.238281 C 19.28125 13.273438 19.234375 13.296875 19.183594 13.320312 C 18.652344 13.5 18.015625 13.253906 17.730469 12.71875 L 17.171875 11.855469 C 17.171875 11.835938 17.171875 11.820312 17.171875 11.800781 L 17.171875 7.007812 C 17.171875 6.9375 17.171875 6.867188 17.144531 6.769531 C 17.246094 6.878906 17.335938 7 17.410156 7.128906 Z M 3.195312 5.691406 C 3.195312 3.773438 4.753906 2.214844 6.667969 2.214844 L 17.292969 2.214844 C 19.207031 2.214844 20.765625 3.773438 20.765625 5.691406 L 20.765625 9.804688 L 19.769531 9.804688 L 18.128906 6.769531 C 17.960938 6.480469 17.742188 6.222656 17.484375 6.011719 C 17.476562 6.003906 17.46875 6 17.460938 5.992188 C 17.460938 5.992188 17.457031 5.988281 17.457031 5.988281 C 17.140625 5.726562 16.769531 5.539062 16.371094 5.449219 C 16.332031 5.410156 16.332031 5.410156 16.332031 5.410156 C 15.535156 4.613281 14.457031 4.171875 13.335938 4.171875 C 12.898438 4.171875 12.417969 4.253906 11.980469 4.414062 C 11.539062 4.253906 11.101562 4.171875 10.621094 4.171875 C 9.503906 4.171875 8.425781 4.613281 7.628906 5.410156 C 7.601562 5.410156 7.59375 5.429688 7.589844 5.441406 C 6.859375 5.597656 6.242188 6.058594 5.871094 6.730469 L 4.210938 9.804688 L 3.195312 9.804688 Z M 2.394531 21.785156 L 1.996094 21.785156 L 1.996094 20.1875 L 2.394531 20.1875 Z M 22.363281 21.785156 L 21.964844 21.785156 L 21.964844 20.1875 L 22.363281 20.1875 Z M 23.203125 19.226562 C 23.203125 19.308594 23.121094 19.386719 23.042969 19.386719 L 0.957031 19.386719 C 0.878906 19.386719 0.796875 19.308594 0.796875 19.226562 L 0.796875 15.953125 C 0.796875 15.875 0.878906 15.792969 0.957031 15.792969 L 23.042969 15.792969 C 23.121094 15.792969 23.203125 15.875 23.203125 15.953125 Z M 23.203125 19.226562"/>
</svg>
