<svg xmlns="http://www.w3.org/2000/svg" width="32" height="32" viewBox="0 0 24 24">
    <path d="M18.05 18.23a2.24 2.24 0 0 0 .864-1.757c0-.68-.316-1.301-.812-1.715-.024-.914-.34-1.801-.856-2.352-.012-.015-.027-.027-.043-.043 1.242-1.351 1.914-3.105 1.914-5 0-.492-.047-.968-.137-1.433.961-.477 1.563-1.45 1.563-2.555 0-1.586-1.262-2.887-2.809-2.887-.66 0-1.32.27-1.828.727A6.924 6.924 0 0 0 12 0a6.872 6.872 0 0 0-3.902 1.215A2.706 2.706 0 0 0 6.266.488c-1.547 0-2.809 1.301-2.809 2.887 0 1.121.617 2.102 1.563 2.57-.09.47-.137.957-.137 1.457 0 1.875.683 3.645 1.918 5-.004 0-.004.004-.008.004-.547.547-.863 1.422-.867 2.328a2.252 2.252 0 0 0-.84 1.739c0 .707.336 1.34.86 1.754a3.041 3.041 0 0 0-1.676 2.722A3.047 3.047 0 0 0 7.32 24c.809 0 1.551-.324 2.098-.848a7.4 7.4 0 0 0 2.582.442 7.4 7.4 0 0 0 2.582-.442c.547.524 1.29.848 2.098.848 1.668 0 3.05-1.383 3.05-3.05 0-1.177-.69-2.212-1.68-2.72zm-1.37-.332c-.516 0-.977-.289-1.227-.707a1.518 1.518 0 0 1-.117-.96c.121-.489.488-.856.976-1.016.528-.125.934 0 1.18.16.035.012.078.027.121.035.297.262.489.645.489 1.063 0 .773-.653 1.425-1.422 1.425zm1.054-16.636c1.098 0 1.996.933 1.996 2.074 0 .73-.367 1.383-.937 1.75a7.252 7.252 0 0 0-2.238-3.379c.367-.242.773-.406 1.18-.445zM5.207 5.125a2.07 2.07 0 0 1-.937-1.75c0-1.137.898-2.074 1.996-2.074.398 0 .796.16 1.16.433a7.46 7.46 0 0 0-1.184 1.317 7.268 7.268 0 0 0-1.035 2.074zM12 .812c1.227 0 2.375.372 3.348 1.008l-.012.012.367.242c.063.047.129.098.192.149a6.545 6.545 0 0 1 2.37 5.14c0 1.668-.57 3.254-1.667 4.434-.653-.527-1.383-.813-2.118-.813-.976 0-1.87.567-2.48 1.504-.61-.937-1.547-1.504-2.523-1.504-.73 0-1.422.286-2.114.774-1.097-1.18-1.668-2.727-1.668-4.395 0-3.62 2.848-6.55 6.305-6.55zM7.363 12.938c.602-.637 1.2-.997 1.828-1.083h.02c.035-.007.07-.007.105-.011.012 0 .02 0 .032-.004.043 0 .086-.004.129-.004 1.101 0 1.832.937 2.156 1.75a.418.418 0 0 0 .367.246.418.418 0 0 0 .367-.246c.363-.856 1.055-1.75 2.113-1.75.735 0 1.426.328 2.118 1.059.32.324.523.843.605 1.406a2.313 2.313 0 0 0-.523-.063 2.255 2.255 0 0 0-2.239 2.235c0 .632.27 1.207.704 1.617-.93.93-2.145 2.187-2.86 2.941a.44.44 0 0 1-.61 0c-.347-.367-.816-.843-1.312-1.347-.511-.536-1.05-1.094-1.527-1.575.137-.125.258-.273.363-.43.012-.015.02-.03.031-.046a1.807 1.807 0 0 0 .148-.29c.005-.003.005-.011.009-.015.011-.027.02-.055.031-.078a2.193 2.193 0 0 0-.121-1.816 2.163 2.163 0 0 0-1.434-1.13 2.247 2.247 0 0 0-1.105.008c.05-.55.289-1.062.605-1.374zm-1.465 3.535c0-.422.196-.809.5-1.075a.384.384 0 0 0 .192-.062c.367-.203.773-.285 1.18-.164.214.055.406.164.562.312.254.258.414.61.414.989 0 .773-.652 1.425-1.426 1.425-.77 0-1.422-.652-1.422-1.425zm-.812 4.476c0-1.219 1.016-2.238 2.234-2.238.496 0 .961.168 1.332.45.059.042.114.089.168.136a2.37 2.37 0 0 1 .563.79 2.213 2.213 0 0 1 .176.863 2.258 2.258 0 0 1-2.239 2.238c-1.218 0-2.234-1.02-2.234-2.239zm4.879 1.547c.055-.113.105-.223.152-.336.164-.375.254-.781.254-1.21.27.265.5.495.691.69.25.25.586.372.918.368H12c.324 0 .652-.164.895-.328.21-.22.46-.48.734-.762v.07c0 .532.121 1.059.406 1.508a6.95 6.95 0 0 1-4.07 0zm6.715.692a2.261 2.261 0 0 1-2.23-2.036v-.027c-.005-.023-.005-.047-.005-.07-.004-.035-.004-.07-.004-.106a2.145 2.145 0 0 1 .07-.554 2.05 2.05 0 0 1 .106-.31c.078-.183.184-.355.305-.51.11-.11.215-.223.32-.333l.106-.082c.37-.281.836-.45 1.332-.45 1.218 0 2.234 1.02 2.234 2.24 0 1.218-1.016 2.238-2.234 2.238zm0 0"/>
    <path d="M9.273 13.504c.082-.04.125-.082.204-.082.203 0 .367.207.53.57.04.164.204.246.364.246.043 0 .082 0 .125-.043.203-.082.324-.324.242-.527-.324-.855-.855-1.059-1.261-1.059-.16 0-.407.121-.61.246-.203.082-.242.364-.12.528.12.164.366.246.526.12zm0 0M10.656 8.219c.121.39.504.71.938.73v.406c0 .247-.164.407-.406.407-.247 0-.407-.16-.407-.407 0-.242-.164-.406-.41-.406a.385.385 0 0 0-.406.406c0 .692.531 1.223 1.223 1.223.316 0 .597-.113.812-.3.215.187.496.3.813.3.69 0 1.222-.531 1.222-1.223a.385.385 0 0 0-.406-.406c-.246 0-.41.164-.41.406 0 .247-.16.407-.406.407-.243 0-.407-.16-.407-.407V8.95c.43-.02.817-.34.856-.773l.12-.446a.932.932 0 0 0-.163-.855c-.16-.246-.446-.367-.77-.367h-.937c-.285 0-.61.12-.774.367-.16.242-.242.57-.16.855zm.735-.817c0-.039.039-.082.12-.082h.977c.04 0 .121.043.121.082.043.043.043.082.043.164l-.125.446c0 .082-.078.125-.16.125h-.734c-.082 0-.16-.043-.16-.125l-.125-.446c0-.082.043-.12.043-.164zm0 0M14.035 6.102a.385.385 0 0 0 .406-.407.812.812 0 1 1 1.625 0c0 .242.164.407.407.407.246 0 .41-.165.41-.407 0-.894-.735-1.629-1.63-1.629-.894 0-1.624.735-1.624 1.63 0 .242.16.406.406.406zm0 0M7.934 5.695a.812.812 0 1 1 1.625 0c0 .242.164.407.406.407.246 0 .406-.165.406-.407 0-.894-.73-1.629-1.625-1.629-.894 0-1.629.735-1.629 1.63 0 .242.164.406.41.406a.385.385 0 0 0 .407-.407zm0 0M16.68 19.527a1.44 1.44 0 0 0-1.426 1.422c0 .242.164.406.406.406.246 0 .406-.164.406-.406 0-.324.286-.61.614-.61a.385.385 0 0 0 .406-.405c0-.247-.164-.407-.406-.407zm0 0M7.32 19.32c-.77 0-1.422.653-1.422 1.426 0 .242.165.406.407.406.246 0 .406-.164.406-.406 0-.324.285-.61.61-.61.245 0 .41-.163.41-.406 0-.246-.165-.41-.41-.41zm0 0"/>
</svg>
