<svg xmlns="http://www.w3.org/2000/svg" width="32" height="32" viewBox="0 0 24 24">
    <path d="M22.926 1.023a3.553 3.553 0 0 0-4.438-.445.487.487 0 0 1-.351.133 4.034 4.034 0 0 0-2.84 1.2 4.17 4.17 0 0 0-1.11 2.038.75.75 0 0 1-.62.621c-.755.18-1.465.535-2.04 1.11-.488.445-.843 1.066-1.023 1.687-.043.223-.266.399-.484.488-.622.176-1.2.532-1.688 1.02a4.202 4.202 0 0 0-1.11 2.04.746.746 0 0 1-.62.62c-.754.18-1.465.531-2.04 1.11-.71.71-1.152 1.64-1.199 2.66 0 .222-.09.402-.222.535L.348 18.633l.644.644-.953.953L3.81 24l.953-.953.597.598 2.176-2.172-.023-.024.597-.644a.818.818 0 0 1 .536-.22c1.02-.046 1.949-.487 2.66-1.198.574-.532.93-1.242 1.11-2.04a.746.746 0 0 1 .62-.62c.754-.18 1.461-.536 2.04-1.11.488-.445.843-1.066 1.019-1.687.047-.22.265-.399.488-.489a3.916 3.916 0 0 0 1.688-1.02 4.202 4.202 0 0 0 1.109-2.038.746.746 0 0 1 .617-.621c.758-.18 1.465-.532 2.043-1.11.754-.754 1.152-1.773 1.195-2.84 0-.132.047-.218.133-.355.934-1.375.754-3.234-.441-4.434zM3.809 22.758L1.28 20.23l.309-.312 2.527 2.531zm1.55-.356l-3.77-3.77.93-.929 3.774 3.77zm17.434-17.52a1.55 1.55 0 0 0-.266.845c0 .84-.355 1.64-.933 2.214a3.285 3.285 0 0 1-1.64.887 1.667 1.667 0 0 0-1.286 1.29 3.332 3.332 0 0 1-.887 1.64c-.355.355-.843.62-1.332.797-.531.18-.93.578-1.11 1.11-.132.487-.44.976-.796 1.331a3.332 3.332 0 0 1-1.64.887 1.667 1.667 0 0 0-1.29 1.285 3.285 3.285 0 0 1-.886 1.64 3.215 3.215 0 0 1-2.082.934c-.446 0-.801.176-1.11.488l-.62.622-1.888-1.887-1.886-1.883.62-.578c.27-.313.446-.711.489-1.11a3.14 3.14 0 0 1 .934-2.085 3.315 3.315 0 0 1 1.64-.887 1.662 1.662 0 0 0 1.285-1.285c.133-.621.446-1.2.887-1.64a4.167 4.167 0 0 1 1.332-.802 1.73 1.73 0 0 0 1.11-1.105c.132-.535.44-.977.796-1.332.489-.446 1.02-.754 1.641-.887a1.666 1.666 0 0 0 1.29-1.289 3.318 3.318 0 0 1 .886-1.64c.574-.575 1.375-.887 2.219-.93.308 0 .574-.09.84-.266a2.68 2.68 0 0 1 3.328.356 2.625 2.625 0 0 1 .355 3.28zm0 0M5.406 9.496c.086.09.176.133.309.133s.265-.043.312-.133l3.547-3.55a.432.432 0 0 0 0-.622.432.432 0 0 0-.62 0L5.405 8.875a.425.425 0 0 0 0 .621zm0 0M5.273 7.41c.133 0 .266-.043.309-.133l1.773-1.773a.425.425 0 0 0 0-.621.425.425 0 0 0-.62 0L4.96 6.656a.432.432 0 0 0 0 .621.4.4 0 0 0 .312.133zm0 0M21.55 11.094a.425.425 0 0 0-.62 0l-3.551 3.547a.432.432 0 0 0 0 .62c.09.09.18.134.312.134.133 0 .266-.043.309-.133l3.55-3.547a.432.432 0 0 0 0-.621zm0 0M21.371 13.309l-1.773 1.777a.432.432 0 0 0 0 .621c.09.086.18.133.312.133.133 0 .266-.047.309-.133l1.773-1.777a.425.425 0 0 0 0-.621.432.432 0 0 0-.62 0zm0 0"/>
    <path d="M18.27 2.887a.43.43 0 0 0-.27.578c.09.265.355.351.578.265a1.59 1.59 0 0 1 1.688.352c.086.09.175.137.308.137.09 0 .223-.047.356-.18a.432.432 0 0 0 0-.621 2.548 2.548 0 0 0-2.66-.531zm0 0M16.582 4.262L14.41 6.48a.425.425 0 0 0 0 .622.404.404 0 0 0 .309.132c.133 0 .222-.046.312-.18l2.172-2.171a.432.432 0 0 0 0-.621.425.425 0 0 0-.621 0zm0 0"/>
</svg>
