<svg xmlns="http://www.w3.org/2000/svg" width="32" height="32" viewBox="0 0 24 24">
    <path d="M23.055.926C21.82-.31 19.78-.31 18.55.926L4.227 15.289l-.297-.297-3.91 3.91L5.12 24l3.91-3.91-.3-.297L23.054 5.43c1.23-1.235 1.23-3.274 0-4.504zM5.12 22.809l-.297-.297.89-.89a.41.41 0 0 0 0-.599.413.413 0 0 0-.593 0l-.894.895-.618-.617c.008-.008.016-.012.024-.02l.894-.894a.413.413 0 0 0 0-.594.41.41 0 0 0-.597 0l-.89.89a.104.104 0 0 0-.02.024l-.618-.617.891-.89a.41.41 0 0 0 0-.598.413.413 0 0 0-.594 0l-.894.894-.594-.598L3.93 16.18l3.91 3.91zm17.34-17.973L8.137 19.199l-3.313-3.316L19.144 1.52c.934-.895 2.422-.895 3.317 0 .89.933.89 2.421 0 3.316zm0 0M10.773 6.957a.382.382 0 0 0 .297.129c.086 0 .211-.043.297-.129l3.613-3.61a.417.417 0 0 0 0-.597.413.413 0 0 0-.593 0l-3.614 3.613a.406.406 0 0 0 0 .594zm0 0M10.773 4.96a.47.47 0 0 0 .297-.124l1.489-1.488a.417.417 0 0 0 0-.598.417.417 0 0 0-.598 0l-1.484 1.488a.41.41 0 0 0 0 .598.386.386 0 0 0 .296.125zm0 0M18.379 12.527a.406.406 0 0 0-.594 0l-3.613 3.61a.417.417 0 0 0 0 .597.398.398 0 0 0 .297.125.386.386 0 0 0 .297-.125l3.613-3.613a.406.406 0 0 0 0-.594zm0 0M18.082 14.652l-1.488 1.485a.417.417 0 0 0 0 .597.398.398 0 0 0 .297.125.479.479 0 0 0 .3-.125l1.485-1.488a.406.406 0 0 0 0-.594.406.406 0 0 0-.594 0zm0 0"/>
    <path d="M20.676 1.902c-.426 0-.852.168-1.192.508l-2.422 2.422a.41.41 0 0 0 0 .598.379.379 0 0 0 .297.125c.086 0 .215-.04.297-.125l2.422-2.422c.3-.34.895-.34 1.192 0a.413.413 0 0 0 .593 0 .41.41 0 0 0 0-.598c-.297-.34-.722-.508-1.187-.508zm0 0M6.71 15.465l7-7 .602.598-7 7.003zm0 0M8.586 17.34l-.602-.602 7.004-7 .598.602zm0 0"/>
</svg>
