<svg xmlns="http://www.w3.org/2000/svg" width="32" height="32" viewBox="0 0 24 24">
    <path d="M18.117 7.746l2.914-3.637a.433.433 0 0 0 .04-.488L19.444 1.18c-.082-.082-.203-.164-.328-.164h-5.695c-.121 0-.242.082-.363.164l-1.63 2.441c-.07.14-.077.317.005.442a.32.32 0 0 0 .101.125l2.856 3.57a7.273 7.273 0 0 0-2.368 1.078A7.55 7.55 0 0 0 7.73 7.527 7.724 7.724 0 0 0 0 15.254a7.725 7.725 0 0 0 7.73 7.73c1.52 0 2.965-.425 4.247-1.312a7.553 7.553 0 0 0 4.293 1.312 7.725 7.725 0 0 0 7.73-7.73 7.731 7.731 0 0 0-5.883-7.508zM12.645 4.27h1.023l1.625 1.628h-1.344zm2.164-.813l1.46-1.465 1.465 1.465zm2.925.813L16.27 5.734 14.809 4.27zm1.141 0h.988l-1.289 1.628h-1.328zm1.102-.813h-1.102l-1.629-1.625h1.668zm-6.348-1.625h1.668l-1.629 1.625h-1.137zm1.625 5.695l-.652-.816h3.332l-.645.816zM.813 15.254A6.91 6.91 0 0 1 7.73 8.34a6.58 6.58 0 0 1 4.028 1.34c.129.093.262.191.387.293.125.101.25.207.367.32a4.865 4.865 0 0 1 .511.535c.055.067.106.129.157.195.976 1.22 1.465 2.684 1.465 4.23 0 1.423-.446 2.763-1.258 3.938a4.854 4.854 0 0 1-.496-.402 3.287 3.287 0 0 1-.403-.441c.61-.938.934-1.996.934-3.094 0-1.219-.363-2.36-1.098-3.336-.027-.04-.054-.074-.082-.113a5.65 5.65 0 0 0-1.191-1.153 5.543 5.543 0 0 0-.403-.27A5.505 5.505 0 0 0 7.73 9.56c-3.132 0-5.695 2.562-5.695 5.695 0 3.133 2.563 5.695 5.695 5.695.922 0 1.848-.238 2.657-.676.273.317.578.61.91.887-1.098.645-2.313 1.008-3.567 1.008a6.91 6.91 0 0 1-6.918-6.914zm13.296-4.375a4.848 4.848 0 0 1 2.16-.508c2.688 0 4.883 2.2 4.883 4.883a4.897 4.897 0 0 1-4.882 4.883 4.848 4.848 0 0 1-2.16-.508 7.716 7.716 0 0 0 1.347-4.375c0-1.59-.469-3.078-1.348-4.375zm-2.718 4.375c0-.82.21-1.64.613-2.356.398.73.605 1.543.605 2.356 0 .82-.21 1.644-.613 2.355a4.917 4.917 0 0 1-.605-2.355zm-1.5-4.375a7.716 7.716 0 0 0-1.348 4.375c0 1.59.469 3.078 1.348 4.375a4.848 4.848 0 0 1-2.16.508 4.897 4.897 0 0 1-4.883-4.883A4.897 4.897 0 0 1 7.73 10.37c.743 0 1.489.172 2.16.508zm6.379 11.289a6.58 6.58 0 0 1-4.028-1.34c-.46-.32-.89-.703-1.265-1.148-.055-.063-.106-.13-.157-.196-.976-1.218-1.465-2.683-1.465-4.23 0-1.422.446-2.758 1.258-3.938.078.059.16.118.239.18.23.2.445.422.66.668a5.624 5.624 0 0 0-.934 3.09c0 1.223.363 2.36 1.098 3.336a5.747 5.747 0 0 0 1.676 1.535 5.47 5.47 0 0 0 2.918.824c3.132 0 5.695-2.562 5.695-5.695 0-3.133-2.563-5.695-5.695-5.695-.922 0-1.848.238-2.657.675a7.828 7.828 0 0 0-.91-.886c1.098-.645 2.313-1.008 3.567-1.008a6.91 6.91 0 0 1 6.918 6.914 6.91 6.91 0 0 1-6.918 6.914zm0 0"/>
</svg>
