<svg xmlns="http://www.w3.org/2000/svg" width="32" height="32" viewBox="0 0 24 24">
    <path d="M23.117 14.54l-.828-.477a10.49 10.49 0 0 0 .004-4.125l.824-.477c.254-.149.438-.387.512-.672.078-.285.039-.582-.11-.836l-2.253-3.906a1.095 1.095 0 0 0-.672-.512 1.079 1.079 0 0 0-.836.11l-.824.476a10.565 10.565 0 0 0-3.575-2.07v-.946C15.36.496 14.863 0 14.254 0H9.746c-.61 0-1.105.496-1.105 1.105v.946a10.606 10.606 0 0 0-3.567 2.07l-.832-.476a1.079 1.079 0 0 0-.836-.11 1.095 1.095 0 0 0-.672.512L.48 7.953c-.148.254-.187.55-.109.836.074.285.258.524.512.672l.828.476a10.49 10.49 0 0 0-.004 4.125l-.824.477c-.528.305-.707.98-.403 1.508l2.254 3.906c.305.527.98.707 1.508.402l.824-.476a10.565 10.565 0 0 0 3.575 2.07v.946c0 .609.496 1.105 1.105 1.105h4.508c.61 0 1.105-.496 1.105-1.105v-.946a10.606 10.606 0 0 0 3.567-2.07l.832.476a1.104 1.104 0 0 0 1.508-.402l2.254-3.906a1.104 1.104 0 0 0-.403-1.508zm-.207 1.155l-2.254 3.907a.404.404 0 0 1-.547.144l-1.05-.605a.353.353 0 0 0-.414.043 9.865 9.865 0 0 1-3.743 2.171.355.355 0 0 0-.25.336v1.204c0 .222-.18.402-.398.402H9.746a.401.401 0 0 1-.398-.402V21.69a.355.355 0 0 0-.25-.336 9.856 9.856 0 0 1-3.746-2.168.347.347 0 0 0-.415-.046l-1.046.605a.404.404 0 0 1-.547-.144L1.09 15.695a.403.403 0 0 1 .148-.547l1.043-.601a.349.349 0 0 0 .168-.383A9.907 9.907 0 0 1 2.207 12c0-.71.082-1.438.246-2.16a.35.35 0 0 0-.168-.383l-1.047-.605a.4.4 0 0 1-.148-.547l2.254-3.907a.409.409 0 0 1 .242-.183.395.395 0 0 1 .305.039l1.05.605c.133.079.301.059.414-.043a9.865 9.865 0 0 1 3.743-2.171.355.355 0 0 0 .25-.336V1.105c0-.222.18-.402.398-.402h4.508c.219 0 .398.18.398.402V2.31c0 .152.102.289.25.336a9.856 9.856 0 0 1 3.746 2.167.354.354 0 0 0 .415.047l1.046-.605a.395.395 0 0 1 .305-.04.409.409 0 0 1 .242.184l2.254 3.907c.05.093.067.199.04.304a.4.4 0 0 1-.188.243l-1.043.601a.349.349 0 0 0-.168.383c.16.715.242 1.441.242 2.164 0 .71-.082 1.438-.246 2.16a.35.35 0 0 0 .168.383l1.047.605a.403.403 0 0 1 .148.547zm0 0"/>
    <path d="M12 4.883c-3.922 0-7.117 3.195-7.117 7.117S8.078 19.117 12 19.117s7.117-3.195 7.117-7.117S15.922 4.883 12 4.883zm0 13.527A6.417 6.417 0 0 1 5.59 12 6.417 6.417 0 0 1 12 5.59 6.417 6.417 0 0 1 18.41 12 6.417 6.417 0 0 1 12 18.41zm0 0"/>
    <path d="M13.316 10.145H12a.35.35 0 0 0-.352.351v3.008a.35.35 0 0 0 .352.351.35.35 0 0 0 .352-.351v-.777h.964a1.29 1.29 0 0 0 0-2.582zm0 1.878h-.964v-1.175h.964a.588.588 0 0 1 0 1.175zm0 0M10.074 10.375a.349.349 0 0 0-.328-.23h-.375a.35.35 0 0 0-.332.23l-1.125 3.004a.35.35 0 0 0 .203.453.354.354 0 0 0 .457-.207l.196-.52h1.578l.195.52a.35.35 0 0 0 .453.207.351.351 0 0 0 .207-.453zm-1.043 2.023L9.56 11l.523 1.398zm0 0M15.383 10.145a.35.35 0 0 0-.352.351v3.008a.35.35 0 0 0 .352.351.353.353 0 0 0 .351-.351v-3.008a.353.353 0 0 0-.351-.351zm0 0M14.52 4.102c.246.078.488.168.722.265.047.02.094.031.14.031a.352.352 0 0 0 .137-.676c-.253-.109-.519-.21-.785-.292a.35.35 0 0 0-.441.226.352.352 0 0 0 .227.446zm0 0M4.719 15.965a.354.354 0 0 0-.48-.14.356.356 0 0 0-.141.476c.148.27.308.531.484.785a.349.349 0 0 0 .488.09c.16-.11.2-.328.09-.488a8.123 8.123 0 0 1-.441-.723zm0 0M11.277 20.258a8.285 8.285 0 0 1-5.043-2.301.353.353 0 0 0-.492.504 8.995 8.995 0 0 0 5.477 2.5h.031c.18 0 .332-.137.348-.32a.351.351 0 0 0-.32-.383zm0 0M17.07 4.57a.356.356 0 0 0-.492.09.357.357 0 0 0 .094.492 8.285 8.285 0 0 1 3.332 4.684.35.35 0 0 0 .433.25.353.353 0 0 0 .247-.434A8.997 8.997 0 0 0 17.07 4.57zm0 0"/>
</svg>
