<svg xmlns="http://www.w3.org/2000/svg" width="32" height="32" viewBox="0 0 24 24">
    <path d="M 23.117188 14.539062 L 22.289062 14.0625 C 22.425781 13.371094 22.496094 12.679688 22.496094 12 C 22.496094 11.3125 22.429688 10.617188 22.292969 9.9375 L 23.117188 9.460938 C 23.371094 9.3125 23.554688 9.074219 23.628906 8.789062 C 23.707031 8.503906 23.667969 8.207031 23.519531 7.953125 L 21.265625 4.046875 C 21.117188 3.792969 20.878906 3.609375 20.59375 3.535156 C 20.308594 3.457031 20.011719 3.496094 19.757812 3.644531 L 18.933594 4.121094 C 17.890625 3.203125 16.664062 2.492188 15.359375 2.050781 L 15.359375 1.105469 C 15.359375 0.496094 14.863281 0 14.253906 0 L 9.746094 0 C 9.136719 0 8.640625 0.496094 8.640625 1.105469 L 8.640625 2.050781 C 7.34375 2.492188 6.117188 3.203125 5.074219 4.121094 L 4.242188 3.644531 C 3.988281 3.496094 3.691406 3.457031 3.40625 3.535156 C 3.121094 3.609375 2.882812 3.792969 2.734375 4.046875 L 0.480469 7.953125 C 0.332031 8.207031 0.292969 8.503906 0.371094 8.789062 C 0.445312 9.074219 0.628906 9.3125 0.882812 9.460938 L 1.710938 9.9375 C 1.574219 10.628906 1.503906 11.320312 1.503906 12 C 1.503906 12.6875 1.570312 13.382812 1.707031 14.0625 L 0.882812 14.539062 C 0.355469 14.84375 0.175781 15.519531 0.480469 16.046875 L 2.734375 19.953125 C 3.039062 20.480469 3.714844 20.660156 4.242188 20.355469 L 5.066406 19.878906 C 6.109375 20.796875 7.335938 21.507812 8.640625 21.949219 L 8.640625 22.894531 C 8.640625 23.503906 9.136719 24 9.746094 24 L 14.253906 24 C 14.863281 24 15.359375 23.503906 15.359375 22.894531 L 15.359375 21.949219 C 16.65625 21.507812 17.882812 20.796875 18.925781 19.878906 L 19.757812 20.355469 C 20.285156 20.660156 20.960938 20.480469 21.265625 19.953125 L 23.519531 16.046875 C 23.824219 15.519531 23.644531 14.84375 23.117188 14.539062 Z M 22.910156 15.695312 L 20.65625 19.601562 C 20.546875 19.789062 20.300781 19.855469 20.109375 19.746094 L 19.058594 19.140625 C 18.925781 19.0625 18.757812 19.082031 18.644531 19.183594 C 17.566406 20.179688 16.273438 20.929688 14.902344 21.355469 C 14.753906 21.402344 14.652344 21.539062 14.652344 21.691406 L 14.652344 22.894531 C 14.652344 23.117188 14.472656 23.296875 14.253906 23.296875 L 9.746094 23.296875 C 9.527344 23.296875 9.347656 23.117188 9.347656 22.894531 L 9.347656 21.691406 C 9.347656 21.539062 9.246094 21.402344 9.097656 21.355469 C 7.71875 20.925781 6.421875 20.179688 5.351562 19.1875 C 5.285156 19.125 5.199219 19.09375 5.113281 19.09375 C 5.054688 19.09375 4.992188 19.109375 4.9375 19.140625 L 3.890625 19.746094 C 3.699219 19.855469 3.453125 19.789062 3.34375 19.601562 L 1.089844 15.695312 C 0.980469 15.503906 1.046875 15.261719 1.238281 15.148438 L 2.28125 14.546875 C 2.417969 14.46875 2.484375 14.3125 2.449219 14.164062 C 2.289062 13.449219 2.207031 12.722656 2.207031 12 C 2.207031 11.289062 2.289062 10.5625 2.453125 9.839844 C 2.488281 9.6875 2.417969 9.53125 2.285156 9.457031 L 1.238281 8.851562 C 1.144531 8.796875 1.078125 8.710938 1.050781 8.609375 C 1.023438 8.503906 1.039062 8.398438 1.089844 8.304688 L 3.34375 4.398438 C 3.398438 4.308594 3.484375 4.242188 3.585938 4.214844 C 3.691406 4.1875 3.796875 4.199219 3.890625 4.253906 L 4.941406 4.859375 C 5.074219 4.9375 5.242188 4.917969 5.355469 4.816406 C 6.433594 3.820312 7.726562 3.070312 9.097656 2.644531 C 9.246094 2.597656 9.347656 2.460938 9.347656 2.308594 L 9.347656 1.105469 C 9.347656 0.882812 9.527344 0.703125 9.746094 0.703125 L 14.253906 0.703125 C 14.472656 0.703125 14.652344 0.882812 14.652344 1.105469 L 14.652344 2.308594 C 14.652344 2.460938 14.753906 2.597656 14.902344 2.644531 C 16.28125 3.074219 17.578125 3.820312 18.648438 4.8125 C 18.761719 4.917969 18.929688 4.933594 19.0625 4.859375 L 20.109375 4.253906 C 20.203125 4.199219 20.308594 4.1875 20.414062 4.214844 C 20.515625 4.242188 20.601562 4.308594 20.65625 4.398438 L 22.910156 8.304688 C 22.960938 8.398438 22.976562 8.503906 22.949219 8.609375 C 22.921875 8.710938 22.855469 8.796875 22.761719 8.851562 L 21.71875 9.453125 C 21.582031 9.53125 21.515625 9.6875 21.550781 9.835938 C 21.710938 10.550781 21.792969 11.277344 21.792969 12 C 21.792969 12.710938 21.710938 13.4375 21.546875 14.160156 C 21.511719 14.3125 21.582031 14.46875 21.714844 14.542969 L 22.761719 15.148438 C 22.953125 15.261719 23.019531 15.503906 22.910156 15.695312 Z M 22.910156 15.695312"/>
    <path d="M 12 4.882812 C 8.078125 4.882812 4.882812 8.078125 4.882812 12 C 4.882812 15.921875 8.078125 19.117188 12 19.117188 C 15.921875 19.117188 19.117188 15.921875 19.117188 12 C 19.117188 8.078125 15.921875 4.882812 12 4.882812 Z M 12 18.410156 C 8.464844 18.410156 5.589844 15.535156 5.589844 12 C 5.589844 8.464844 8.464844 5.589844 12 5.589844 C 15.535156 5.589844 18.410156 8.464844 18.410156 12 C 18.410156 15.535156 15.535156 18.410156 12 18.410156 Z M 12 18.410156"/>
    <path d="M13.316406 10.144531L12 10.144531C11.804688 10.144531 11.648438 10.300781 11.648438 10.496094L11.648438 13.503906C11.648438 13.699219 11.804688 13.855469 12 13.855469 12.195312 13.855469 12.351562 13.699219 12.351562 13.503906L12.351562 12.726562 13.316406 12.726562C14.027344 12.726562 14.605469 12.148438 14.605469 11.4375 14.605469 10.722656 14.027344 10.144531 13.316406 10.144531zM13.316406 12.023438L12.351562 12.023438 12.351562 10.847656 13.316406 10.847656C13.640625 10.847656 13.902344 11.113281 13.902344 11.4375 13.902344 11.761719 13.640625 12.023438 13.316406 12.023438zM10.074219 10.375C10.023438 10.234375 9.890625 10.144531 9.746094 10.144531L9.371094 10.144531C9.222656 10.144531 9.089844 10.234375 9.039062 10.375L7.914062 13.378906C7.84375 13.5625 7.9375 13.765625 8.117188 13.832031 8.300781 13.902344 8.503906 13.808594 8.574219 13.625L8.769531 13.105469 10.347656 13.105469 10.542969 13.625C10.597656 13.769531 10.730469 13.855469 10.871094 13.855469 10.914062 13.855469 10.957031 13.847656 10.996094 13.832031 11.179688 13.765625 11.269531 13.5625 11.203125 13.378906zM9.03125 12.398438L9.558594 11 10.082031 12.398438zM15.382812 10.144531C15.1875 10.144531 15.03125 10.300781 15.03125 10.496094L15.03125 13.503906C15.03125 13.699219 15.1875 13.855469 15.382812 13.855469 15.574219 13.855469 15.734375 13.699219 15.734375 13.503906L15.734375 10.496094C15.734375 10.300781 15.574219 10.144531 15.382812 10.144531zM14.519531 4.101562C14.765625 4.179688 15.007812 4.269531 15.242188 4.367188 15.289062 4.386719 15.335938 4.398438 15.382812 4.398438 15.519531 4.398438 15.648438 4.316406 15.707031 4.183594 15.78125 4.003906 15.699219 3.796875 15.519531 3.722656 15.265625 3.613281 15 3.511719 14.734375 3.429688 14.546875 3.371094 14.351562 3.472656 14.292969 3.65625 14.230469 3.84375 14.335938 4.042969 14.519531 4.101562zM4.71875 15.964844C4.625 15.792969 4.410156 15.730469 4.238281 15.824219 4.070312 15.917969 4.007812 16.128906 4.097656 16.300781 4.246094 16.570312 4.40625 16.832031 4.582031 17.085938 4.648438 17.183594 4.757812 17.238281 4.871094 17.238281 4.941406 17.238281 5.007812 17.21875 5.070312 17.175781 5.230469 17.066406 5.269531 16.847656 5.160156 16.6875 5 16.453125 4.851562 16.210938 4.71875 15.964844zM11.277344 20.257812C9.390625 20.097656 7.597656 19.277344 6.234375 17.957031 6.09375 17.820312 5.871094 17.824219 5.734375 17.964844 5.601562 18.101562 5.605469 18.324219 5.742188 18.460938 7.226562 19.898438 9.167969 20.785156 11.21875 20.960938 11.226562 20.960938 11.238281 20.960938 11.25 20.960938 11.429688 20.960938 11.582031 20.824219 11.597656 20.640625 11.617188 20.445312 11.472656 20.277344 11.277344 20.257812zM17.070312 4.570312C16.910156 4.460938 16.6875 4.5 16.578125 4.660156 16.46875 4.820312 16.511719 5.042969 16.671875 5.152344 18.308594 6.269531 19.492188 7.933594 20.003906 9.835938 20.046875 9.996094 20.1875 10.097656 20.34375 10.097656 20.375 10.097656 20.40625 10.09375 20.4375 10.085938 20.625 10.035156 20.734375 9.839844 20.683594 9.652344 20.128906 7.589844 18.84375 5.78125 17.070312 4.570312zM17.070312 4.570312"/>
</svg>
