<svg xmlns="http://www.w3.org/2000/svg" width="32" height="32" viewBox="0 0 24 24">
    <path d="M22.121 4.824c-.004-.008-.004-.015-.004-.023 0-.004-.004-.008-.004-.008 0-.012-.004-.02-.008-.031v-.004a.072.072 0 0 1-.007-.028c-.004 0-.004-.003-.004-.003l-.012-.028s0-.004-.004-.004l-.012-.023c0-.004-.003-.004-.003-.008-.004-.008-.012-.012-.016-.02-.004-.003-.004-.003-.004-.007l-.023-.024L17.508.102c-.008-.008-.016-.016-.024-.02l-.007-.008c-.008-.004-.012-.011-.02-.015-.004 0-.004 0-.008-.004l-.023-.012c0-.004-.004-.004-.004-.004l-.027-.012h-.004l-.028-.011h-.004c-.011-.004-.02-.008-.03-.008 0 0-.005 0-.009-.004-.008 0-.015 0-.023-.004H6.738a1.857 1.857 0 0 0-1.855 1.855v1.903H3.359c-.816 0-1.48.664-1.48 1.48v3.754c0 .817.664 1.48 1.48 1.48h1.524v11.673c0 1.023.832 1.855 1.855 1.855h13.528a1.857 1.857 0 0 0 1.855-1.855V4.859v-.035zm-4.508-3.62l3.305 3.304h-2.156a1.15 1.15 0 0 1-1.149-1.149zM2.582 8.991V5.238c0-.43.348-.777.777-.777h10.895c.43 0 .777.348.777.777v3.754c0 .43-.347.778-.777.778H5.238 3.36a.777.777 0 0 1-.777-.778zm17.684 14.305H6.738c-.633 0-1.148-.52-1.148-1.152V10.473h8.664c.816 0 1.48-.664 1.48-1.48V5.237c0-.816-.664-1.48-1.48-1.48H5.59V1.855c0-.632.515-1.152 1.148-1.152h10.168V3.36a1.86 1.86 0 0 0 1.856 1.856h2.656v16.93c0 .632-.516 1.152-1.152 1.152zm0 0"/>
    <path d="M10.473 15.008c0-.223.18-.403.398-.403h.379a.353.353 0 0 0 .352-.351.353.353 0 0 0-.352-.352h-.379c-.605 0-1.101.496-1.101 1.106v1.125a.4.4 0 0 1-.399.398.353.353 0 1 0 0 .707c.219 0 .399.176.399.399v1.125c0 .61.496 1.105 1.101 1.105h.379a.353.353 0 0 0 .352-.351.353.353 0 0 0-.352-.352h-.379a.401.401 0 0 1-.398-.402v-1.125c0-.29-.114-.555-.297-.754.183-.195.297-.461.297-.75zm0 0M17.637 16.531a.398.398 0 0 1-.399-.398v-1.125c0-.61-.496-1.106-1.105-1.106h-.375a.35.35 0 0 0-.352.352.35.35 0 0 0 .352.351h.375c.219 0 .398.18.398.403v1.125c0 .289.114.555.297.75-.183.199-.297.465-.297.754v1.125c0 .222-.18.402-.398.402h-.375a.35.35 0 0 0-.352.352.35.35 0 0 0 .352.351h.375c.61 0 1.105-.496 1.105-1.105v-1.125c0-.223.176-.399.399-.399a.353.353 0 0 0 0-.707zm0 0M12 18.035a.369.369 0 0 0-.25.102.358.358 0 0 0 0 .5.351.351 0 0 0 .25.101.351.351 0 0 0 .25-.101.358.358 0 0 0 0-.5.369.369 0 0 0-.25-.102zm0 0M13.504 18.035a.369.369 0 0 0-.25.102.358.358 0 0 0 0 .5.358.358 0 0 0 .5 0 .369.369 0 0 0 .101-.25.369.369 0 0 0-.101-.25.376.376 0 0 0-.25-.102zm0 0M15.008 18.035a.369.369 0 0 0-.25.102.362.362 0 0 0-.106.25.355.355 0 0 0 .356.351.355.355 0 0 0 .352-.352c0-.09-.04-.183-.106-.25a.367.367 0 0 0-.246-.1zm0 0M9.371 8.266H7.492a.353.353 0 0 0-.351.351.35.35 0 0 0 .351.352h1.88a1.103 1.103 0 0 0 0-2.207h-1.13a.398.398 0 1 1 0-.797h1.504a.35.35 0 0 0 .352-.352.35.35 0 0 0-.352-.351H8.242a1.104 1.104 0 0 0 0 2.207h1.13a.4.4 0 0 1 .398.398.4.4 0 0 1-.399.399zm0 0M13.129 8.266H11.25a.356.356 0 0 0-.355.351c0 .195.16.352.355.352h1.879a1.103 1.103 0 0 0 0-2.207H12a.398.398 0 1 1 0-.797h1.504a.35.35 0 0 0 .351-.352.35.35 0 0 0-.351-.351H12a1.104 1.104 0 1 0 0 2.207h1.129a.4.4 0 0 1 .398.398.4.4 0 0 1-.398.399zm0 0M5.238 8.969c.414 0 .813-.176 1.094-.492a.348.348 0 0 0-.023-.497.357.357 0 0 0-.5.028.751.751 0 0 1-.57.258h-.38a.775.775 0 0 1-.773-.774v-.754c0-.426.348-.773.773-.773h.38c.218 0 .421.094.57.258a.357.357 0 0 0 .5.027.348.348 0 0 0 .023-.496 1.476 1.476 0 0 0-1.094-.492H4.86a1.48 1.48 0 0 0-1.476 1.476v.754c0 .817.664 1.477 1.476 1.477zm0 0"/>
</svg>
