<svg xmlns="http://www.w3.org/2000/svg" width="32" height="32" viewBox="0 0 24 24">
    <path d="M23.434 4.824c0-.008 0-.015-.004-.023v-.008c-.004-.012-.004-.02-.008-.031v-.004l-.012-.028v-.003l-.012-.028c-.003 0-.003-.004-.003-.004l-.012-.023-.008-.008-.012-.02-.008-.007-.023-.024L18.824.102c-.008-.008-.015-.016-.023-.02-.004-.004-.008-.004-.008-.008-.008-.004-.016-.011-.023-.015 0 0-.004 0-.004-.004l-.024-.012c-.004-.004-.004-.004-.008-.004l-.023-.012h-.004c-.012-.004-.02-.007-.027-.011h-.008c-.008-.004-.016-.008-.027-.008-.004 0-.008 0-.008-.004-.008 0-.02 0-.028-.004H8.054A1.857 1.857 0 0 0 6.2 1.855v1.903H2.043c-.816 0-1.48.664-1.48 1.48v3.754c0 .817.664 1.48 1.48 1.48h4.156v11.673C6.2 23.168 7.031 24 8.055 24h13.527a1.857 1.857 0 0 0 1.855-1.855V4.859c0-.011 0-.023-.003-.035zm-4.508-3.62l3.308 3.304h-2.156a1.154 1.154 0 0 1-1.152-1.149zM1.27 8.991V5.238c0-.43.347-.777.773-.777H16.32c.43 0 .778.348.778.777v3.754c0 .43-.348.778-.778.778H2.043a.776.776 0 0 1-.773-.778zm20.312 14.305H8.055c-.633 0-1.153-.52-1.153-1.152V10.473h9.418c.817 0 1.48-.664 1.48-1.48V5.237c0-.816-.663-1.48-1.48-1.48H6.902V1.855c0-.632.52-1.152 1.153-1.152h10.168V3.36c0 1.024.832 1.856 1.855 1.856h2.652v16.93c0 .632-.515 1.152-1.148 1.152zm0 0"/>
    <path d="M5.426 5.262a.35.35 0 0 0-.352.351v1.528H3.148V5.613a.353.353 0 0 0-.707 0v3.004a.353.353 0 1 0 .707 0v-.773h1.926v.773a.35.35 0 0 0 .352.352.35.35 0 0 0 .351-.352V5.613a.35.35 0 0 0-.351-.351zm0 0M9.934 8.969a.35.35 0 0 0 .351-.352V6.883l.473.789c.062.105.18.172.305.172h.374a.354.354 0 0 0 .301-.172l.473-.79v1.735a.35.35 0 0 0 .351.352.35.35 0 0 0 .352-.352V5.613a.352.352 0 0 0-.652-.183L11.25 7.12 10.234 5.43a.353.353 0 0 0-.652.183v3.004a.35.35 0 0 0 .352.352zm0 0M6.55 5.965h.778v2.652a.35.35 0 0 0 .352.352.35.35 0 0 0 .351-.352V5.965h.774a.353.353 0 0 0 .355-.352.353.353 0 0 0-.355-.351H6.55a.35.35 0 0 0-.352.351.35.35 0 0 0 .352.352zm0 0M14.066 8.969h1.88a.35.35 0 0 0 .35-.352.353.353 0 0 0-.35-.351h-1.528V5.613a.35.35 0 0 0-.352-.351.35.35 0 0 0-.351.351v3.004a.35.35 0 0 0 .351.352zm0 0M16.055 13.168a.353.353 0 0 0-.446.223l-2.254 6.765a.356.356 0 0 0 .223.446c.04.011.074.015.113.015a.348.348 0 0 0 .332-.238l2.258-6.766a.355.355 0 0 0-.226-.445zm0 0M12.813 14.004a.351.351 0 0 0-.497 0l-2.632 2.633a.351.351 0 0 0 0 .496l2.632 2.633a.35.35 0 0 0 .246.101c.09 0 .18-.035.25-.101a.356.356 0 0 0 0-.5l-2.382-2.383 2.383-2.38a.356.356 0 0 0 0-.5zm0 0M17.32 14.004a.351.351 0 0 0-.496 0 .356.356 0 0 0 0 .5l2.38 2.379-2.38 2.383a.356.356 0 0 0 0 .5.351.351 0 0 0 .496 0l2.633-2.633a.351.351 0 0 0 0-.496zm0 0"/>
</svg>
