<svg xmlns="http://www.w3.org/2000/svg" width="32" height="32" viewBox="0 0 24 24">
    <path d="M22.52 6.2H1.48C.664 6.2 0 6.862 0 7.68v4.508c0 .816.664 1.48 1.48 1.48H14.63a.353.353 0 1 0 0-.707H1.48a.776.776 0 0 1-.777-.774V7.68c0-.43.348-.778.777-.778h21.04c.43 0 .777.348.777.778v3.383c0 .19.156.351.351.351.196 0 .352-.16.352-.351V7.68c0-.817-.664-1.48-1.48-1.48zm0 0"/>
    <path d="M22.496 11.895v-.457a2.986 2.986 0 0 0-2.98-2.985 2.99 2.99 0 0 0-2.985 2.985v.457c-.433.144-.75.558-.75 1.043v3.757c0 .61.496 1.106 1.102 1.106h5.262c.609 0 1.105-.496 1.105-1.106v-3.758a1.1 1.1 0 0 0-.754-1.042zm-2.98-2.735a2.28 2.28 0 0 1 2.277 2.277v.399h-4.555v-.399a2.277 2.277 0 0 1 2.278-2.277zm3.027 7.535c0 .223-.18.403-.398.403h-5.262a.401.401 0 0 1-.399-.403v-3.758a.4.4 0 0 1 .399-.398h5.262a.4.4 0 0 1 .398.399zm0 0M5.715 9.008a.353.353 0 0 0-.48-.133l-.774.45V8.43a.35.35 0 0 0-.352-.352.35.35 0 0 0-.351.352v.894l-.774-.449a.353.353 0 0 0-.351.613l.773.446-.773.445a.352.352 0 0 0-.13.48c.063.114.184.18.306.18a.326.326 0 0 0 .175-.05l.774-.446v.895a.35.35 0 0 0 .351.351.35.35 0 0 0 .352-.351v-.895l.773.445c.055.035.118.051.176.051a.351.351 0 0 0 .305-.18.352.352 0 0 0-.13-.48l-.772-.445.773-.446a.352.352 0 0 0 .129-.48zm0 0M10.227 9.008a.357.357 0 0 0-.485-.133l-.773.45V8.43a.35.35 0 0 0-.352-.352.353.353 0 0 0-.351.352v.894l-.774-.449a.353.353 0 0 0-.351.613l.773.446-.773.445a.352.352 0 0 0-.13.48c.067.114.184.18.305.18a.326.326 0 0 0 .176-.05l.774-.446v.895c0 .195.16.351.351.351a.35.35 0 0 0 .352-.351v-.895l.773.445c.059.035.117.051.176.051a.358.358 0 0 0 .309-.18.352.352 0 0 0-.13-.48l-.773-.445.774-.446a.352.352 0 0 0 .129-.48zm0 0M14.734 9.008a.353.353 0 0 0-.48-.133l-.774.45V8.43a.353.353 0 1 0-.707 0v.894L12 8.875a.353.353 0 0 0-.352.613l.774.446-.774.445a.352.352 0 0 0-.128.48c.066.114.183.18.304.18a.317.317 0 0 0 .176-.05l.773-.446v.895a.353.353 0 0 0 .707 0v-.895l.774.445c.055.035.113.051.176.051a.356.356 0 0 0 .304-.18.352.352 0 0 0-.129-.48l-.773-.445.773-.446a.352.352 0 0 0 .13-.48zm0 0"/>
    <path d="M19.516 13.34c-.61 0-1.106.492-1.106 1.101 0 .485.317.899.754 1.047v.457a.35.35 0 0 0 .352.352.35.35 0 0 0 .351-.352v-.457c.438-.148.75-.562.75-1.047a1.1 1.1 0 0 0-1.101-1.101zm0 1.5a.395.395 0 0 1-.399-.399.398.398 0 1 1 .797 0c0 .223-.18.399-.398.399zm0 0"/>
</svg>
