<svg xmlns="http://www.w3.org/2000/svg" width="32" height="32" viewBox="0 0 24 24">
    <path d="M1.855469 4.835938C1.949219 4.835938 2.039062 4.800781 2.105469 4.734375 2.167969 4.667969 2.207031 4.578125 2.207031 4.484375 2.207031 4.394531 2.167969 4.300781 2.105469 4.238281 2.039062 4.171875 1.949219 4.132812 1.855469 4.132812 1.761719 4.132812 1.671875 4.171875 1.605469 4.238281 1.539062 4.300781 1.503906 4.394531 1.503906 4.484375 1.503906 4.578125 1.539062 4.667969 1.605469 4.734375 1.671875 4.800781 1.761719 4.835938 1.855469 4.835938zM2.980469 4.835938C3.074219 4.835938 3.167969 4.800781 3.230469 4.734375 3.296875 4.667969 3.335938 4.578125 3.335938 4.484375 3.335938 4.394531 3.296875 4.300781 3.230469 4.238281 3.167969 4.171875 3.074219 4.132812 2.980469 4.132812 2.890625 4.132812 2.796875 4.171875 2.734375 4.238281 2.667969 4.300781 2.628906 4.394531 2.628906 4.484375 2.628906 4.578125 2.667969 4.667969 2.734375 4.734375 2.796875 4.800781 2.890625 4.835938 2.980469 4.835938zM4.109375 4.835938C4.203125 4.835938 4.292969 4.800781 4.359375 4.734375 4.425781 4.667969 4.460938 4.578125 4.460938 4.484375 4.460938 4.394531 4.425781 4.300781 4.359375 4.238281 4.292969 4.171875 4.203125 4.132812 4.109375 4.132812 4.015625 4.132812 3.925781 4.171875 3.859375 4.238281 3.792969 4.300781 3.757812 4.394531 3.757812 4.484375 3.757812 4.578125 3.792969 4.667969 3.859375 4.734375 3.925781 4.800781 4.015625 4.835938 4.109375 4.835938zM13.128906 12.023438C13.035156 12.023438 12.945312 12.0625 12.878906 12.125 12.8125 12.191406 12.773438 12.285156 12.773438 12.375 12.773438 12.46875 12.8125 12.558594 12.878906 12.625 12.945312 12.691406 13.035156 12.726562 13.128906 12.726562 13.21875 12.726562 13.3125 12.691406 13.375 12.625 13.441406 12.558594 13.480469 12.46875 13.480469 12.375 13.480469 12.285156 13.441406 12.191406 13.375 12.125 13.3125 12.0625 13.21875 12.023438 13.128906 12.023438zM13.128906 14.652344C13.035156 14.652344 12.945312 14.691406 12.878906 14.757812 12.8125 14.820312 12.773438 14.914062 12.773438 15.007812 12.773438 15.097656 12.8125 15.191406 12.878906 15.253906 12.945312 15.320312 13.035156 15.359375 13.128906 15.359375 13.21875 15.359375 13.3125 15.320312 13.375 15.253906 13.441406 15.191406 13.480469 15.097656 13.480469 15.007812 13.480469 14.914062 13.441406 14.820312 13.375 14.757812 13.3125 14.691406 13.21875 14.652344 13.128906 14.652344zM10.121094 11.226562L10.496094 11.226562C10.832031 11.226562 11.148438 11.332031 11.414062 11.53125 11.570312 11.648438 11.789062 11.617188 11.90625 11.460938 12.023438 11.304688 11.992188 11.085938 11.835938 10.96875 11.449219 10.675781 10.984375 10.519531 10.496094 10.519531L10.121094 10.519531C8.683594 10.519531 7.515625 11.691406 7.515625 13.128906L7.515625 14.253906C7.515625 15.691406 8.683594 16.859375 10.121094 16.859375L10.496094 16.859375C10.984375 16.859375 11.445312 16.707031 11.835938 16.414062 11.992188 16.296875 12.023438 16.078125 11.90625 15.921875 11.789062 15.765625 11.566406 15.734375 11.414062 15.851562 11.148438 16.050781 10.832031 16.15625 10.496094 16.15625L10.121094 16.15625C9.074219 16.15625 8.21875 15.304688 8.21875 14.253906L8.21875 13.128906C8.21875 12.078125 9.074219 11.226562 10.121094 11.226562zM14.210938 10.011719C14.152344 9.824219 13.953125 9.726562 13.765625 9.789062 13.582031 9.847656 13.484375 10.046875 13.542969 10.234375L15.800781 16.996094C15.847656 17.144531 15.984375 17.238281 16.132812 17.238281 16.167969 17.238281 16.207031 17.230469 16.246094 17.21875 16.429688 17.15625 16.527344 16.957031 16.46875 16.773438zM5.613281 4.835938L19.890625 4.835938C20.085938 4.835938 20.242188 4.679688 20.242188 4.484375 20.242188 4.289062 20.085938 4.132812 19.890625 4.132812L5.613281 4.132812C5.417969 4.132812 5.261719 4.289062 5.261719 4.484375 5.261719 4.679688 5.417969 4.835938 5.613281 4.835938zM21.394531 4.835938L22.144531 4.835938C22.339844 4.835938 22.496094 4.679688 22.496094 4.484375 22.496094 4.289062 22.339844 4.132812 22.144531 4.132812L21.394531 4.132812C21.199219 4.132812 21.042969 4.289062 21.042969 4.484375 21.042969 4.679688 21.199219 4.835938 21.394531 4.835938zM21.394531 4.835938"/>
    <path d="M 22.144531 2.628906 L 1.855469 2.628906 C 0.832031 2.628906 0 3.460938 0 4.484375 L 0 19.515625 C 0 20.539062 0.832031 21.371094 1.855469 21.371094 L 22.144531 21.371094 C 23.167969 21.371094 24 20.539062 24 19.515625 L 24 4.484375 C 24 3.460938 23.167969 2.628906 22.144531 2.628906 Z M 1.855469 3.335938 L 22.144531 3.335938 C 22.777344 3.335938 23.296875 3.851562 23.296875 4.484375 L 23.296875 5.636719 L 0.703125 5.636719 L 0.703125 4.484375 C 0.703125 3.851562 1.222656 3.335938 1.855469 3.335938 Z M 22.144531 20.664062 L 1.855469 20.664062 C 1.222656 20.664062 0.703125 20.148438 0.703125 19.515625 L 0.703125 6.339844 L 23.296875 6.339844 L 23.296875 19.515625 C 23.296875 20.148438 22.777344 20.664062 22.144531 20.664062 Z M 22.144531 20.664062"/>
</svg>
