<svg xmlns="http://www.w3.org/2000/svg" width="32" height="32" viewBox="0 0 24 24">
    <path d="M7.719 8.484c.078.079.18.118.281.118.102 0 .207-.04.285-.118l.367-.367c.172.082.36.133.547.133.192 0 .38-.05.551-.133l.367.367a.399.399 0 0 0 .566 0 .4.4 0 0 0 0-.566l-.367-.367a1.258 1.258 0 0 0 0-1.098l.368-.367a.4.4 0 0 0-.567-.566l-.367.367a1.233 1.233 0 0 0-1.098 0l-.37-.367a.396.396 0 0 0-.563 0 .4.4 0 0 0 0 .566l.367.367c-.172.344-.172.75 0 1.098l-.367.367a.4.4 0 0 0 0 .566zm1.797-1.8a.446.446 0 0 1 0 .632.446.446 0 0 1-.633 0 .446.446 0 0 1 0-.632.46.46 0 0 1 .316-.133c.117 0 .23.047.317.133zm0 0M14.117 8.484a.399.399 0 0 0 .566 0l.368-.367c.172.082.36.133.547.133.191 0 .379-.05.55-.133l.368.367a.399.399 0 0 0 .566 0 .4.4 0 0 0 0-.566l-.367-.367a1.233 1.233 0 0 0 0-1.098l.367-.367a.4.4 0 0 0-.566-.566l-.368.367a1.233 1.233 0 0 0-1.097 0l-.367-.367a.4.4 0 0 0-.567.566l.367.367c-.171.344-.171.75 0 1.098l-.367.367a.4.4 0 0 0 0 .566zm1.801-1.8a.453.453 0 0 1 0 .632.45.45 0 0 1-.637 0 .453.453 0 0 1 0-.632.46.46 0 0 1 .317-.133c.117 0 .23.047.32.133zm0 0"/>
    <path d="M23.977 12.91c-.176-1.574-1.438-2.867-3.004-3.078a3.67 3.67 0 0 0-.926.004l.36-3.672A4.792 4.792 0 0 0 19.32 2.29 4.776 4.776 0 0 0 15.668.602h-7.27a4.801 4.801 0 0 0-3.652 1.687A4.77 4.77 0 0 0 3.66 6.133l.309 3.703a3.615 3.615 0 0 0-.942-.004C1.461 10.043.2 11.336.023 12.91c-.12 1.082.227 2.133.954 2.88C2.152 17.003 2.8 18.503 2.8 20.007v.422c0 .933.73 1.691 1.648 1.758.176.726.844 1.21 1.75 1.21.903 0 1.567-.476 1.75-1.199h8.102c.183.723.847 1.2 1.75 1.2.91 0 1.582-.489 1.754-1.223a1.87 1.87 0 0 0 1.644-1.848v-.32c0-1.504.649-3 1.824-4.219.727-.75 1.075-1.797.954-2.879zM4.785 10.043l-.332-4.008a3.98 3.98 0 0 1 .902-3.226 3.99 3.99 0 0 1 3.043-1.407h7.27c1.176 0 2.285.512 3.047 1.407.758.89 1.09 2.07.898 3.253l-.39 3.981c-.012 0-.02.008-.028.008-.066.027-.133.058-.199.09-.035.015-.066.03-.098.046a3.81 3.81 0 0 0-.214.122l-.059.035c-.078.05-.156.101-.23.156l-.004.004c-.07.055-.141.105-.207.164-.348.3-.625.668-.829 1.07-.25.383-.421.809-.5 1.262h-9.71a3.316 3.316 0 0 0-.5-1.262 3.492 3.492 0 0 0-.829-1.07 2.39 2.39 0 0 0-.195-.152l-.012-.012a2.87 2.87 0 0 0-.226-.152c-.02-.016-.043-.028-.063-.04-.07-.042-.14-.082-.21-.12-.036-.016-.07-.032-.106-.051-.066-.028-.129-.059-.191-.086a.19.19 0 0 0-.028-.012zm1.988 3.758h10.454c.644 0 1.171.523 1.171 1.172v1.187a.44.44 0 0 1-.441.442H6.043a.44.44 0 0 1-.441-.442v-1.187c0-.649.527-1.172 1.171-1.172zM6.2 22.598c-.351 0-.719-.11-.894-.399h1.793c-.176.29-.547.399-.899.399zm11.602 0c-.352 0-.723-.11-.899-.399h1.793c-.175.29-.543.399-.894.399zm4.648-7.364c-1.32 1.364-2.05 3.059-2.05 4.774v.32c0 .59-.481 1.07-1.07 1.07H4.57a.969.969 0 0 1-.968-.968v-.422c0-1.715-.73-3.41-2.051-4.774C.992 14.656.727 13.84.816 13c.137-1.215 1.11-2.215 2.317-2.375.129-.016.254-.023.379-.023a2.679 2.679 0 0 1 1.02.203c.097.039.195.086.288.14.055.028.102.059.153.094.093.059.187.125.277.2a2.739 2.739 0 0 1 .953 1.855 1.97 1.97 0 0 0-1.402 1.879v1.187c0 .684.558 1.238 1.242 1.238h11.918c.684 0 1.238-.554 1.238-1.238v-1.187a1.97 1.97 0 0 0-1.402-1.88c.027-.355.125-.698.285-1.011a2.725 2.725 0 0 1 1.629-1.363l.086-.028c.344-.09.703-.113 1.07-.066 1.207.16 2.18 1.16 2.317 2.375.09.84-.176 1.656-.735 2.234zm0 0"/>
</svg>
