<svg xmlns="http://www.w3.org/2000/svg" width="32" height="32" viewBox="0 0 24 24">
    <path d="M23.602 23.2h-4v-.887a2.88 2.88 0 0 0 1.628-1.114h1.57a.4.4 0 0 0 .4-.398V2a.398.398 0 0 0-.4-.398v-.403h.802a.4.4 0 0 0 0-.8H22.8a.401.401 0 0 0-.801 0h-.398a.401.401 0 0 0-.801 0h-.403a.398.398 0 1 0-.796 0h-.403a.4.4 0 0 0-.8 0H18a.4.4 0 0 0-.8 0h-.4a.401.401 0 0 0-.8 0h-.8a.401.401 0 0 0 0 .8h.8v.403a.395.395 0 0 0-.398.398v10.8H3.199v-1.835l1.766-1.766h.234a.401.401 0 1 0 0-.8h-.398a.416.416 0 0 0-.285.117l-1.883 1.882H1.602V9.2h.796a.401.401 0 1 0 0-.8H1.2a.401.401 0 0 0-.398.402v4.074C.336 13.039 0 13.48 0 14c0 .55.375 1.012.883 1.152l1.422 5.114A2.91 2.91 0 0 0 4.398 22.3v.898h-4a.401.401 0 0 0 0 .801h23.204a.4.4 0 0 0 0-.8zM22 1.2v.402h-.398v-.403zm-1.2 0v.402h-.402v-.403zm-1.198 0v.402h-.403v-.403zm-1.204 0v.402H18v-.403zm-1.597 0h.398v.402h-.398zm-.403 9.198v-8h6v18h-6zm-14 2.403h-.796v-1.602h.796zm-1.199.8h14.403v.797H1.199a.398.398 0 1 1 0-.796zm1.875 6.454l-1.347-4.856h13.875v6h4.52a2.071 2.071 0 0 1-1.231.403H5.109a2.12 2.12 0 0 1-2.035-1.547zm13.88 2.343l.398.801H6.648l.399-.8zM5.198 23.2v-.8h.953l-.398.8zm13.047 0l-.398-.8h.953v.8zm0 0"/>
    <path d="M17.2 3.2a.401.401 0 1 1-.803.002.401.401 0 0 1 .802-.003zm0 0M17.2 5.602a.4.4 0 1 1-.801-.004.4.4 0 0 1 .8.004zm0 0M18.398 4.398a.398.398 0 1 1-.796 0 .398.398 0 1 1 .796 0zm0 0M18.398 6.8a.398.398 0 1 1-.796 0 .398.398 0 1 1 .796 0zm0 0M19.602 3.2a.401.401 0 1 1 0 0zm0 0M22 3.2a.401.401 0 1 1-.802.002.401.401 0 0 1 .802-.003zm0 0M19.602 5.602a.401.401 0 1 1-.802-.005.401.401 0 0 1 .802.005zm0 0M22 5.602a.4.4 0 1 1-.8-.004.4.4 0 0 1 .8.004zm0 0M20.8 4.398a.401.401 0 1 1 0 0zm0 0M20.8 6.8A.401.401 0 1 1 20 6.797a.401.401 0 0 1 .802.005zm0 0M17.2 8c0 .223-.18.398-.4.398a.398.398 0 1 1 0-.796c.22 0 .4.175.4.398zm0 0M17.2 10.398a.401.401 0 1 1-.803.003.401.401 0 0 1 .802-.003zm0 0M18.398 9.2a.398.398 0 1 1-.796 0 .398.398 0 1 1 .796 0zm0 0M18.398 11.602a.398.398 0 1 1-.796 0 .398.398 0 1 1 .796 0zm0 0M19.602 8c0 .223-.18.398-.403.398a.398.398 0 1 1 0-.796c.223 0 .403.175.403.398zm0 0M22 8c0 .223-.18.398-.398.398a.398.398 0 1 1 0-.796c.218 0 .398.175.398.398zm0 0M19.602 10.398a.401.401 0 1 1 0 0zm0 0M22 10.398a.401.401 0 1 1-.802.003.401.401 0 0 1 .802-.003zm0 0M20.8 9.2a.401.401 0 1 1 0 0zm0 0M20.8 11.602a.401.401 0 1 1-.801-.005.401.401 0 0 1 .802.005zm0 0M17.2 12.8a.4.4 0 1 1-.801-.003.4.4 0 0 1 .8.004zm0 0M17.2 15.2a.401.401 0 1 1-.803.002.401.401 0 0 1 .802-.003zm0 0M18.398 14a.395.395 0 0 1-.398.398.395.395 0 0 1-.398-.398c0-.223.175-.398.398-.398.223 0 .398.175.398.398zm0 0M18.398 16.398a.398.398 0 1 1-.796 0 .398.398 0 1 1 .796 0zm0 0M19.602 12.8a.401.401 0 1 1-.802-.004.401.401 0 0 1 .802.005zm0 0M22 12.8a.4.4 0 1 1-.8-.003.4.4 0 0 1 .8.004zm0 0M19.602 15.2a.401.401 0 1 1 0 0zm0 0M22 15.2a.401.401 0 1 1-.802.002.401.401 0 0 1 .802-.003zm0 0M20.8 14c0 .223-.179.398-.402.398a.398.398 0 1 1 0-.796c.223 0 .403.175.403.398zm0 0M20.8 16.398a.401.401 0 1 1 0 0zm0 0M17.2 17.602a.4.4 0 1 1-.801-.004.4.4 0 0 1 .8.004zm0 0M17.2 20c0 .223-.18.398-.4.398a.398.398 0 1 1 0-.796c.22 0 .4.175.4.398zm0 0M18.398 18.8a.398.398 0 1 1-.796 0 .398.398 0 1 1 .796 0zm0 0M19.602 17.602a.401.401 0 1 1-.802-.005.401.401 0 0 1 .802.005zm0 0M22 17.602a.4.4 0 1 1-.8-.004.4.4 0 0 1 .8.004zm0 0M19.602 20c0 .223-.18.398-.403.398a.398.398 0 1 1 0-.796c.223 0 .403.175.403.398zm0 0M22 20c0 .223-.18.398-.398.398a.398.398 0 1 1 0-.796c.218 0 .398.175.398.398zm0 0M20.8 18.8a.401.401 0 1 1-.801-.004.401.401 0 0 1 .802.005zm0 0"/>
</svg>
