<svg xmlns="http://www.w3.org/2000/svg" width="32" height="32" viewBox="0 0 24 24">
    <path d="M2.8 5.398a.401.401 0 1 1 0 0zm0 0M4 4.2a.401.401 0 1 1-.802.002A.401.401 0 0 1 4 4.199zm0 0M1.602 6.602A.401.401 0 1 1 .8 6.597a.401.401 0 0 1 .802.005zm0 0M4 6.602a.4.4 0 1 1-.8-.004.4.4 0 0 1 .8.004zm0 0M5.2 5.398a.401.401 0 1 1-.803.003.401.401 0 0 1 .802-.003zm0 0M7.602 5.398a.401.401 0 1 1 0 0zm0 0M6.398 4.2a.398.398 0 1 1-.796 0 .398.398 0 1 1 .796 0zm0 0M8.8 4.2a.401.401 0 1 1 0 0zm0 0M10 5.398a.401.401 0 1 1-.802.003.401.401 0 0 1 .802-.003zm0 0M12.398 5.398a.398.398 0 1 1-.796 0 .398.398 0 1 1 .796 0zm0 0M11.2 4.2a.401.401 0 1 1-.803.002.401.401 0 0 1 .802-.003zm0 0M13.602 4.2a.401.401 0 1 1 0 0zm0 0M11.2 6.602a.4.4 0 1 1-.801-.004.4.4 0 0 1 .8.004zm0 0M13.602 6.602a.401.401 0 1 1-.802-.005.401.401 0 0 1 .802.005zm0 0M14.8 5.398a.401.401 0 1 1 0 0zm0 0M17.2 5.398a.401.401 0 1 1-.803.003.401.401 0 0 1 .802-.003zm0 0M16 4.2a.401.401 0 1 1-.802.002.401.401 0 0 1 .802-.003zm0 0M18.398 4.2a.398.398 0 1 1-.796 0 .398.398 0 1 1 .796 0zm0 0M19.602 5.398a.401.401 0 1 1 0 0zm0 0M22 5.398a.401.401 0 1 1-.802.003.401.401 0 0 1 .802-.003zm0 0M2.8 7.8A.401.401 0 1 1 2 7.797.401.401 0 0 1 2.8 7.8zm0 0M12.398 7.8a.398.398 0 1 1-.796 0 .398.398 0 1 1 .796 0zm0 0M22 7.8a.4.4 0 1 1-.8-.003.4.4 0 0 1 .8.004zm0 0M20.8 4.2a.401.401 0 1 1 0 0zm0 0M20.8 6.602A.401.401 0 1 1 20 6.597a.401.401 0 0 1 .802.005zm0 0M23.2 6.602a.4.4 0 1 1-.801-.004.4.4 0 0 1 .8.004zm0 0M1.602 9c0 .223-.18.398-.403.398a.398.398 0 1 1 0-.796c.223 0 .403.175.403.398zm0 0M11.2 9c0 .223-.18.398-.4.398a.398.398 0 1 1 0-.796c.22 0 .4.175.4.398zm0 0M13.602 9c0 .223-.18.398-.403.398a.398.398 0 1 1 0-.796c.223 0 .403.175.403.398zm0 0M23.2 9c0 .223-.18.398-.4.398a.398.398 0 1 1 0-.796c.22 0 .4.175.4.398zm0 0"/>
    <path d="M21.16 3H2.84A2.842 2.842 0 0 0 0 5.84v9.887c0 .34.137.644.352.875a1.262 1.262 0 0 0-.352.87v1.055c0 .535.332.993.8 1.18V21h3.598v-1.2h15.204V21h3.597v-1.293c.469-.187.801-.645.801-1.18v-1.054c0-.34-.137-.645-.352-.871.215-.23.352-.536.352-.875V5.84A2.842 2.842 0 0 0 21.16 3zM.8 11.398V5.84A2.04 2.04 0 0 1 2.84 3.8h18.32a2.04 2.04 0 0 1 2.04 2.04v6.453c-.005-.004-.012-.004-.02-.008-.02-.2-.067-.394-.13-.582.09-.07.15-.18.15-.305a.4.4 0 0 0-.4-.398c-.03 0-.062.012-.093.02a2.797 2.797 0 0 0-2.05-1.207c.163-.551.03-1.16-.403-1.594l-1.942-1.946a1.626 1.626 0 0 0-2.292 0l-.098.098a.398.398 0 0 0-.32-.172.402.402 0 0 0-.403.403c0 .132.07.246.172.32l-.652.652a.39.39 0 0 0-.32-.176.401.401 0 0 0-.399.403c0 .133.07.246.172.32l-.098.098a1.602 1.602 0 0 0-.406 1.582H9.934a1.595 1.595 0 0 0-.41-1.582l-.04-.043a.368.368 0 0 0 .118.023.4.4 0 1 0-.403-.398c0 .039.012.078.024.113l-.938-.937A.366.366 0 0 0 8.398 7 .401.401 0 1 0 8 6.602c0 .039.012.078.023.113l-.441-.442a1.63 1.63 0 0 0-2.293 0L3.348 8.22a1.598 1.598 0 0 0-.387 1.656 2.812 2.812 0 0 0-1.668 1.145c-.031-.008-.063-.02-.094-.02a.4.4 0 0 0-.398.398c0 .125.058.235.148.305-.062.188-.11.383-.129.582-.007.004-.015.004-.02.008zm3.11-2.617L5.855 6.84a.82.82 0 0 1 1.16 0L8.962 8.78c.277.278.312.7.11 1.02H3.8a.822.822 0 0 1 .11-1.02zm-.308 1.82h16.796A2 2 0 0 1 22.36 12.2H1.641a2 2 0 0 1 1.96-1.597zm11.039-1.82l1.941-1.941a.825.825 0 0 1 1.164 0l1.942 1.941c.277.278.316.7.113 1.02h-5.274a.818.818 0 0 1 .114-1.02zM3.6 20.2h-2v-.398h2zm18.797 0h-2v-.398h2zm.801-1.672c0 .262-.21.473-.472.473H1.273a.472.472 0 0 1-.472-.473v-1.054c0-.262.21-.473.472-.473h21.454c.261 0 .472.21.472.473zm0-2.8c0 .261-.21.472-.472.472H1.273a.472.472 0 0 1-.472-.472v-2.254c0-.262.21-.473.472-.473h21.454c.261 0 .472.21.472.473zm0 0"/>
</svg>
