<svg xmlns="http://www.w3.org/2000/svg" width="32" height="32" viewBox="0 0 24 24">
    <path d="M24 9.09c0-.64-.309-1.238-.816-1.617a2.352 2.352 0 0 0-.629-1.902 2.395 2.395 0 0 0-1.52-4.363A2.001 2.001 0 0 0 17.2 2c-.367-.493-.949-.802-1.597-.802-.415 0-.801.13-1.122.344a1.865 1.865 0 0 0-1.648-.961c-.336 0-.66.086-.945.25a1.892 1.892 0 0 0-1.766-.82 1.913 1.913 0 0 0-1.41.851 1.916 1.916 0 0 0-.008 2.078c.156.235.348.43.578.575 0 .004-.004.004-.004.007A1.929 1.929 0 0 0 8.2 3.2c-.363 0-.71.098-1.004.278a2.048 2.048 0 0 0-1.988-.274 2.215 2.215 0 0 0-2.187-.75 2.173 2.173 0 0 0-1.602 1.465c-.11.332-.137.676-.086 1.012A2.371 2.371 0 0 0 0 7.055C0 8.3.969 9.325 2.191 9.41c.149.274.36.5.61.668V14a1.6 1.6 0 0 0 1.597 1.602h.028c-.27.41-.426.898-.426 1.425v.575H1.602V20h.796v.824c0 1.09.887 1.977 1.977 1.977h.426V24H8v-1.2h8V24h3.2v-1.2h.425c1.09 0 1.977-.886 1.977-1.976V20h.796v-2.398H20v-.575c0-1.449-1.18-2.629-2.625-2.629h-3.602a1.374 1.374 0 0 1-1.375-1.37c0-.79.641-1.426 1.426-1.426h2.246a2.36 2.36 0 0 0 2.121 1.808c.325.602.954.988 1.645.988.848 0 1.57-.562 1.793-1.355a2.537 2.537 0 0 0 2.02-2.82A2 2 0 0 0 24 9.09zM15.602 2c.554 0 1.046.395 1.168.941l.097.43.547-.172.078-.117c.11-.148.238-.277.387-.387l.219-.156-.063-.262A1.225 1.225 0 0 1 18 2c0-.66.54-1.2 1.2-1.2.558 0 1.046.395 1.167.938l.09.395.39-.09c.126-.027.243-.043.352-.043.883 0 1.602.719 1.602 1.602 0 .683-.442 1.293-1.102 1.507l-.828.274.746.449a1.583 1.583 0 0 1 .754 1.66l-.02.074a1.52 1.52 0 0 1-.199.477l-.011.023c-.028.043-.059.079-.09.118-.031.039-.059.082-.094.117-.027.027-.059.054-.086.082-.047.039-.09.078-.137.11a1.246 1.246 0 0 1-.257.152l-.094.043a1.612 1.612 0 0 1-.195.058l-.086.024c-.098.02-.2.03-.301.03-.254 0-.508-.066-.75-.198l-.274-.145-.207.227c-.07.074-.148.14-.226.199-.032.023-.067.043-.098.062-.05.032-.101.063-.152.09l-.125.055a6.863 6.863 0 0 1-.149.047c-.047.011-.09.023-.136.035-.055.008-.11.012-.164.015a1.694 1.694 0 0 1-.372-.011c-.003 0-.007 0-.011-.004a1.635 1.635 0 0 1-.516-.184 1.587 1.587 0 0 1-.793-1.11v-.007-.008a1.45 1.45 0 0 1-.027-.261c0-.29.078-.575.234-.825l.188-.37-.645-.348-.21.226a1.58 1.58 0 0 1-1.169.516 1.6 1.6 0 0 1-.922-2.906l.223-.157-.063-.261a1.052 1.052 0 0 1-.039-.278c0-.07.012-.144.024-.21.004-.032.015-.063.023-.094.008-.036.02-.067.032-.098.011-.043.03-.082.05-.125l.024-.04a.845.845 0 0 1 .086-.14l.008-.012c.218-.289.562-.48.957-.48zm-6.223-.691c.191-.29.484-.47.82-.504a1.112 1.112 0 0 1 1.164.765l.223.602.46-.465c.423-.418 1.153-.418 1.571 0 .13.129.219.29.274.465-.036.055-.063.113-.09.172-.024.05-.047.097-.067.152-.03.078-.054.164-.078.25a.78.78 0 0 0-.02.102 1.789 1.789 0 0 0-.023.558 2.387 2.387 0 0 0-.812 1.793 2.402 2.402 0 0 0 2.398 2.403c.281 0 .551-.047.805-.141C16 7.508 16 7.555 16 7.6c0 .079.004.157.012.235-.004.004-.004.008-.008.012a1.4 1.4 0 0 1-.223.207c-.011.011-.023.023-.039.03a1.305 1.305 0 0 1-.254.157c-.015.008-.031.012-.047.02-.09.039-.187.074-.285.097-.011.004-.023.004-.035.008-.105.02-.21.035-.32.035a1.323 1.323 0 0 1-.336-.043 1.083 1.083 0 0 1-.254-.078c-.04-.015-.082-.031-.121-.054a.839.839 0 0 1-.102-.055c-.035-.024-.07-.043-.105-.07-.031-.024-.067-.047-.098-.075a1.556 1.556 0 0 1-.086-.078c-.031-.031-.062-.058-.09-.09-.023-.027-.043-.058-.066-.086-.027-.039-.059-.074-.082-.113a1.707 1.707 0 0 1-.047-.086c-.023-.043-.05-.086-.07-.133a1.322 1.322 0 0 1-.082-.238l-.09-.332-.344.04a.995.995 0 0 0-.312.081c-.387.176-.84.11-1.153-.14 0-.004.004-.008.004-.008a.168.168 0 0 1 .051-.067v-.004c.371-.3.582-.726.582-1.171C12 4.719 11.191 4 10.2 4c-.079 0-.153.008-.231.016h-.016c.035-.141.102-.278.2-.399l.132-.183-.137-.41-.195-.067a1.084 1.084 0 0 1-.578-.453c-.234-.36-.234-.84.004-1.195zM2.363 8.617a1.562 1.562 0 0 1-.445-3.058l.398-.122-.132-.39a1.393 1.393 0 0 1-.004-.883 1.385 1.385 0 0 1 1.007-.93 1.42 1.42 0 0 1 1.543.68l.207.371.356-.23c.5-.325 1.18-.235 1.582.207l.273.3.297-.277C7.637 4.105 7.91 4 8.2 4c.461 0 .864.258.969.617l.125.477.43-.192c.156-.066.316-.101.476-.101.551 0 1 .36 1 .8a.71.71 0 0 1-.285.551c-.059.047-.11.106-.156.16a1.1 1.1 0 0 0-.121.203c-.008.02-.02.036-.024.055a.637.637 0 0 0-.05.188c-.008.023-.008.047-.012.074a1.044 1.044 0 0 0 0 .191v.024c.015.117.047.23.101.336.047.09.082.187.11.289v.016c.023.101.039.207.039.312 0 .66-.45 1.2-1 1.2a.767.767 0 0 1-.348-.079 1.108 1.108 0 0 0-1.172.152c-.047.04-.094.082-.136.13l-.004.007c-.332.363-.918.59-1.54.59a2.52 2.52 0 0 1-.855-.148l-.004-.004a1.723 1.723 0 0 1-.691-.446l-.254-.285-.297.242c-.074.063-.156.11-.242.149l-.028.012a1.068 1.068 0 0 1-.265.07h-.02a1.003 1.003 0 0 1-.57-.098l-.027-.012a1.099 1.099 0 0 1-.52-.601l-.098-.277zm4.438 3.781A.799.799 0 0 1 6 11.602v-.86a3.171 3.171 0 0 0 2-.258v1.914zM3.6 14v-3.613h.063c.059.008.113.015.172.015.008 0 .02-.004.027-.004.028 0 .055-.003.086-.003.059-.004.121-.012.18-.02.031-.004.059-.012.086-.016.062-.015.125-.03.183-.05l.075-.024a3.17 3.17 0 0 0 .238-.105c.004.004.012.008.016.011.101.079.21.149.324.211.035.02.07.043.105.059l.043.023v1.118a1.6 1.6 0 0 0 1.602 1.597h1.18c0 .02 0 .04-.004.055l-.024.113a1.93 1.93 0 0 1-.043.14l-.047.106c-.02.043-.043.082-.066.125-.02.032-.04.063-.063.094-.027.04-.058.074-.09.11-.027.027-.05.054-.078.081a1.27 1.27 0 0 1-.113.09.719.719 0 0 1-.086.067c-.043.027-.09.05-.133.074-.03.012-.062.031-.093.043a.798.798 0 0 1-.164.05c-.028.008-.055.02-.082.024-.09.02-.176.027-.27.027-.11 0-.219.012-.328.024-.031.004-.063.012-.09.015a1.834 1.834 0 0 0-.254.055c-.023.004-.05.012-.074.016-.102.031-.203.07-.305.113-.015.008-.035.016-.054.027-.086.04-.168.082-.247.13l-.039.023h-.836A.801.801 0 0 1 3.602 14zM7.2 23.2H5.602v-.4h1.597zm11.2 0H16.8v-.4h1.597zm2.402-2.376c0 .649-.528 1.176-1.176 1.176H4.375a1.177 1.177 0 0 1-1.176-1.176V20h17.602zm.8-2.426v.801H2.399v-.8zm-10-5.37c0 1.195.973 2.171 2.172 2.171h3.602c1.008 0 1.824.82 1.824 1.828v.575H4.801v-.575c0-.625.312-1.175.793-1.504.023-.015.047-.027.07-.043.066-.043.14-.082.215-.117.031-.011.066-.027.098-.039.07-.027.144-.05.222-.066.031-.008.063-.02.098-.024.105-.02.215-.035.328-.035 1.2 0 2.176-.976 2.176-2.176V9.887c.004-.008.011-.012.015-.016.012-.008.024-.012.032-.02.02-.007.035-.015.054-.019a.074.074 0 0 1 .032-.008c.02-.004.039-.004.058-.004h.031a.849.849 0 0 1 .094.028c.215.101.445.152.684.152.992 0 1.8-.898 1.8-2h1.13l.023.035c.035.059.07.11.11.164l.081.11c.04.046.078.09.117.132.036.04.07.075.11.11.039.035.082.074.125.11a2.8 2.8 0 0 0 .129.097c.043.031.086.058.133.086.046.031.097.058.148.086.043.02.09.047.137.066.054.024.113.043.168.063.047.015.09.035.136.046.067.02.133.032.204.047l.117.024a2.148 2.148 0 0 0 .688-.008.73.73 0 0 0 .097-.016c.094-.02.184-.043.27-.07l.081-.023c.11-.04.22-.086.32-.145.02-.008.036-.02.055-.031.086-.047.168-.102.247-.16.015-.012.027-.016.043-.028.12.242.285.457.48.64l-.012.013c-.09.086-.172.18-.25.277-.02.027-.035.055-.05.078-.06.078-.106.16-.153.246-.02.031-.035.067-.055.102a2.78 2.78 0 0 0-.109.281c-.008.023-.02.047-.027.07a2.36 2.36 0 0 0-.074.375c0 .008-.004.016-.004.024h-2.188c-1.23 0-2.226.996-2.226 2.226zm11.313-3.16l-.121.148.043.187a1.73 1.73 0 0 1-1.57 2.082l-.336.024-.035.332c-.06.546-.512.96-1.06.96-.448 0-.855-.289-1.007-.722l-.098-.277-.367.015c-.789 0-1.437-.586-1.543-1.347l-.008-.102c0-.027-.003-.055-.011-.113 0-.067.004-.133.012-.2.003-.023.007-.043.011-.062.008-.043.016-.09.028-.129.007-.027.015-.05.023-.074a.965.965 0 0 1 .04-.113.6.6 0 0 0 .03-.075c.02-.035.035-.07.055-.101.012-.024.027-.047.04-.07.023-.036.042-.067.065-.098.016-.02.032-.043.051-.063.028-.03.055-.062.082-.09a.97.97 0 0 1 .168-.152c.012-.008.024-.02.035-.027.293.129.618.199.957.199.032 0 .055-.008.086-.008.094-.004.192-.012.286-.023.062-.012.125-.028.187-.043.059-.012.117-.028.176-.047.062-.02.117-.043.176-.066.066-.028.128-.06.191-.09a2.35 2.35 0 0 0 .441-.29c.278.11.567.169.86.169.101 0 .199-.012.297-.024l.09-.012c.07-.011.14-.027.21-.046.028-.008.059-.012.086-.02.09-.027.176-.059.258-.094.031-.011.059-.027.086-.043.059-.027.113-.054.164-.086.035-.02.07-.039.106-.062.05-.031.101-.07.152-.11a.901.901 0 0 0 .074-.054c.07-.055.133-.117.2-.184.019-.02.035-.039.054-.062.055-.059.106-.121.152-.184.008-.012.02-.023.028-.039a2.54 2.54 0 0 0 .164-.266 1.21 1.21 0 0 1-.008 1.55zm0 0"/>
</svg>
