<svg xmlns="http://www.w3.org/2000/svg" width="32" height="32" viewBox="0 0 24 24">
    <path d="M 21.199219 9.601562 L 21.199219 9.234375 C 21.332031 9.0625 22.046875 8.800781 22.398438 8.800781 L 22.800781 8.800781 C 23.019531 8.800781 23.199219 8.621094 23.199219 8.398438 C 23.199219 8.179688 23.019531 8 22.800781 8 L 16.398438 8 C 16.179688 8 16 8.179688 16 8.398438 C 16 8.621094 16.179688 8.800781 16.398438 8.800781 L 16.800781 8.800781 C 17.152344 8.800781 17.867188 9.0625 18 9.234375 L 18 9.601562 L 12.800781 9.601562 L 12.800781 8.800781 L 13.601562 8.800781 L 13.601562 6.398438 L 12.800781 6.398438 L 12.800781 4.800781 L 7.199219 4.800781 L 7.199219 7.199219 L 8 7.199219 L 8 8 L 7.199219 8 L 7.199219 9.601562 L 5.226562 9.601562 C 5.703125 8.882812 6 7.738281 6 6.398438 C 6 5.464844 5.84375 4.5625 5.5625 3.851562 L 5.460938 3.601562 L 4.441406 3.601562 C 4.625 2.6875 5.433594 2 6.398438 2 C 6.621094 2 6.800781 1.820312 6.800781 1.601562 C 6.800781 1.378906 6.621094 1.199219 6.398438 1.199219 C 5.617188 1.199219 4.910156 1.523438 4.398438 2.042969 L 4.398438 0.800781 C 4.398438 0.578125 4.222656 0.398438 4 0.398438 C 3.777344 0.398438 3.601562 0.578125 3.601562 0.800781 L 3.601562 2.042969 C 3.089844 1.523438 2.382812 1.199219 1.601562 1.199219 C 1.378906 1.199219 1.199219 1.378906 1.199219 1.601562 C 1.199219 1.820312 1.378906 2 1.601562 2 C 2.566406 2 3.375 2.6875 3.558594 3.601562 L 2.539062 3.601562 L 2.4375 3.851562 C 2.15625 4.5625 2 5.464844 2 6.398438 C 2 7.738281 2.296875 8.882812 2.773438 9.601562 L 0 9.601562 L 0 21.601562 L 0.800781 21.601562 L 0.800781 23.199219 C 0.800781 23.421875 0.980469 23.601562 1.199219 23.601562 L 2.398438 23.601562 C 2.5625 23.601562 2.710938 23.5 2.773438 23.347656 L 3.472656 21.601562 L 20.527344 21.601562 L 21.226562 23.347656 C 21.289062 23.5 21.4375 23.601562 21.601562 23.601562 L 22.800781 23.601562 C 23.019531 23.601562 23.199219 23.421875 23.199219 23.199219 L 23.199219 21.601562 L 24 21.601562 L 24 9.601562 Z M 18.667969 8.800781 L 20.53125 8.800781 C 20.449219 8.917969 20.398438 9.050781 20.398438 9.199219 L 20.398438 9.601562 L 18.800781 9.601562 L 18.800781 9.199219 C 18.800781 9.050781 18.75 8.917969 18.667969 8.800781 Z M 8 5.601562 L 12 5.601562 L 12 6.398438 L 8 6.398438 Z M 8.800781 7.199219 L 12.800781 7.199219 L 12.800781 8 L 8.800781 8 Z M 8 8.800781 L 12 8.800781 L 12 9.601562 L 8 9.601562 Z M 2.800781 6.398438 C 2.800781 5.675781 2.902344 4.976562 3.089844 4.398438 L 4.910156 4.398438 C 5.097656 4.976562 5.199219 5.675781 5.199219 6.398438 C 5.199219 8.355469 4.488281 9.601562 4 9.601562 C 3.511719 9.601562 2.800781 8.355469 2.800781 6.398438 Z M 2.128906 22.800781 L 1.601562 22.800781 L 1.601562 21.601562 L 2.609375 21.601562 Z M 3.199219 20.800781 L 0.800781 20.800781 L 0.800781 10.398438 L 4 10.398438 L 4 20.800781 Z M 4.800781 20.800781 L 4.800781 10.398438 L 8 10.398438 L 8 20.800781 Z M 8.800781 20.800781 L 8.800781 10.398438 L 12 10.398438 L 12 20.800781 Z M 22.398438 22.800781 L 21.871094 22.800781 L 21.390625 21.601562 L 22.398438 21.601562 Z M 23.199219 20.800781 L 12.800781 20.800781 L 12.800781 16 L 23.199219 16 Z M 12.800781 15.199219 L 12.800781 10.398438 L 23.199219 10.398438 L 23.199219 15.199219 Z M 12.800781 15.199219"/>
    <path d="M18.800781 12.398438L17.199219 12.398438C16.980469 12.398438 16.800781 12.578125 16.800781 12.800781 16.800781 13.019531 16.980469 13.199219 17.199219 13.199219L18.800781 13.199219C19.019531 13.199219 19.199219 13.019531 19.199219 12.800781 19.199219 12.578125 19.019531 12.398438 18.800781 12.398438zM10.800781 11.199219C10.578125 11.199219 10.398438 11.378906 10.398438 11.601562L10.398438 13.199219C10.398438 13.421875 10.578125 13.601562 10.800781 13.601562 11.019531 13.601562 11.199219 13.421875 11.199219 13.199219L11.199219 11.601562C11.199219 11.378906 11.019531 11.199219 10.800781 11.199219zM6.800781 11.199219C6.578125 11.199219 6.398438 11.378906 6.398438 11.601562L6.398438 13.199219C6.398438 13.421875 6.578125 13.601562 6.800781 13.601562 7.019531 13.601562 7.199219 13.421875 7.199219 13.199219L7.199219 11.601562C7.199219 11.378906 7.019531 11.199219 6.800781 11.199219zM2.800781 11.199219C2.578125 11.199219 2.398438 11.378906 2.398438 11.601562L2.398438 13.199219C2.398438 13.421875 2.578125 13.601562 2.800781 13.601562 3.019531 13.601562 3.199219 13.421875 3.199219 13.199219L3.199219 11.601562C3.199219 11.378906 3.019531 11.199219 2.800781 11.199219zM17.199219 18.800781L18.800781 18.800781C19.019531 18.800781 19.199219 18.621094 19.199219 18.398438 19.199219 18.179688 19.019531 18 18.800781 18L17.199219 18C16.980469 18 16.800781 18.179688 16.800781 18.398438 16.800781 18.621094 16.980469 18.800781 17.199219 18.800781zM17.199219 18.800781"/>
</svg>
