<svg xmlns="http://www.w3.org/2000/svg" width="32" height="32" viewBox="0 0 24 24">
    <path d="M 24 10.578125 L 21.558594 10.578125 L 21.558594 10.207031 C 21.695312 10.027344 22.417969 9.761719 22.78125 9.761719 L 23.1875 9.761719 C 23.410156 9.761719 23.59375 9.582031 23.59375 9.355469 C 23.59375 9.132812 23.410156 8.949219 23.1875 8.949219 L 16.679688 8.949219 C 16.453125 8.949219 16.269531 9.132812 16.269531 9.355469 C 16.269531 9.582031 16.453125 9.761719 16.679688 9.761719 L 17.085938 9.761719 C 17.445312 9.761719 18.171875 10.027344 18.304688 10.207031 L 18.304688 10.578125 L 13.015625 10.578125 L 13.015625 9.761719 L 13.832031 9.761719 L 13.832031 7.320312 L 13.015625 7.320312 L 13.015625 5.695312 L 7.320312 5.695312 L 7.320312 8.136719 L 8.136719 8.136719 L 8.136719 8.949219 L 7.320312 8.949219 L 7.320312 10.578125 L 5.3125 10.578125 C 5.796875 9.847656 6.101562 8.683594 6.101562 7.320312 C 6.101562 6.371094 5.945312 5.453125 5.65625 4.730469 L 5.554688 4.472656 L 4.515625 4.472656 C 4.703125 3.546875 5.527344 2.847656 6.507812 2.847656 C 6.734375 2.847656 6.914062 2.664062 6.914062 2.441406 C 6.914062 2.214844 6.734375 2.035156 6.507812 2.035156 C 5.710938 2.035156 4.992188 2.363281 4.472656 2.894531 L 4.472656 1.628906 C 4.472656 1.402344 4.292969 1.21875 4.066406 1.21875 C 3.84375 1.21875 3.660156 1.402344 3.660156 1.628906 L 3.660156 2.894531 C 3.144531 2.363281 2.421875 2.035156 1.628906 2.035156 C 1.402344 2.035156 1.21875 2.214844 1.21875 2.441406 C 1.21875 2.664062 1.402344 2.847656 1.628906 2.847656 C 2.609375 2.847656 3.429688 3.546875 3.621094 4.472656 L 2.582031 4.472656 L 2.480469 4.730469 C 2.191406 5.453125 2.035156 6.371094 2.035156 7.320312 C 2.035156 8.683594 2.335938 9.847656 2.820312 10.578125 L 0 10.578125 L 0 19.527344 L 0.960938 19.527344 C 0.875 19.820312 0.855469 20.117188 0.914062 20.410156 C 1.027344 20.992188 0.855469 21.488281 0.332031 22.066406 L 0.300781 22.101562 C 0.195312 22.222656 0.167969 22.390625 0.234375 22.539062 C 0.296875 22.683594 0.445312 22.78125 0.605469 22.78125 L 0.871094 22.78125 C 1.511719 22.78125 2.097656 22.515625 2.574219 22.015625 C 3.050781 21.515625 3.367188 20.804688 3.339844 20.28125 C 3.328125 20.007812 3.378906 19.757812 3.492188 19.527344 L 20.507812 19.527344 C 20.621094 19.757812 20.671875 20.007812 20.660156 20.28125 C 20.632812 20.804688 20.949219 21.515625 21.425781 22.015625 C 21.902344 22.515625 22.488281 22.78125 23.128906 22.78125 L 23.394531 22.78125 C 23.554688 22.78125 23.703125 22.683594 23.765625 22.539062 C 23.832031 22.390625 23.804688 22.222656 23.699219 22.101562 L 23.667969 22.066406 C 23.144531 21.488281 22.972656 20.992188 23.082031 20.425781 C 23.082031 20.421875 23.089844 20.386719 23.089844 20.382812 C 23.148438 20.105469 23.125 19.816406 23.039062 19.527344 L 24 19.527344 Z M 18.984375 9.761719 L 20.878906 9.761719 C 20.796875 9.882812 20.746094 10.019531 20.746094 10.167969 L 20.746094 10.578125 L 19.117188 10.578125 L 19.117188 10.167969 C 19.117188 10.019531 19.070312 9.882812 18.984375 9.761719 Z M 16.269531 11.390625 L 23.1875 11.390625 L 23.1875 14.644531 L 16.269531 14.644531 Z M 8.136719 6.507812 L 12.203125 6.507812 L 12.203125 7.320312 L 8.136719 7.320312 Z M 8.949219 8.136719 L 13.015625 8.136719 L 13.015625 8.949219 L 8.949219 8.949219 Z M 8.136719 9.761719 L 12.203125 9.761719 L 12.203125 10.578125 L 8.136719 10.578125 Z M 2.847656 7.320312 C 2.847656 6.585938 2.953125 5.875 3.144531 5.289062 L 4.992188 5.289062 C 5.183594 5.875 5.289062 6.585938 5.289062 7.320312 C 5.289062 9.308594 4.566406 10.578125 4.066406 10.578125 C 3.570312 10.578125 2.847656 9.308594 2.847656 7.320312 Z M 0.8125 18.710938 L 0.8125 11.390625 L 7.730469 11.390625 L 7.730469 15.050781 L 4.066406 15.050781 L 4.066406 15.457031 L 2.160156 15.457031 L 0.9375 18.710938 Z M 3.074219 16.269531 L 2.160156 18.710938 L 1.808594 18.710938 L 2.722656 16.269531 Z M 2.527344 20.320312 C 2.539062 20.539062 2.371094 21.046875 1.984375 21.457031 C 1.863281 21.582031 1.699219 21.71875 1.492188 21.820312 C 1.75 21.3125 1.816406 20.796875 1.707031 20.222656 C 1.664062 20.007812 1.699219 19.777344 1.820312 19.527344 L 2.621094 19.527344 C 2.546875 19.777344 2.515625 20.042969 2.527344 20.320312 Z M 3.253906 18.710938 L 3.027344 18.710938 L 4.066406 15.9375 L 4.066406 18.710938 Z M 4.882812 18.710938 L 4.882812 15.863281 L 5.289062 15.863281 L 5.289062 18.710938 Z M 6.101562 18.710938 L 6.101562 15.863281 L 6.507812 15.863281 L 6.507812 18.710938 Z M 7.730469 18.710938 L 7.320312 18.710938 L 7.320312 15.863281 L 7.730469 15.863281 Z M 8.542969 18.710938 L 8.542969 11.390625 L 15.457031 11.390625 L 15.457031 12.203125 L 10.578125 12.203125 L 10.578125 18.710938 Z M 11.390625 18.710938 L 11.390625 13.015625 L 11.796875 13.015625 L 11.796875 18.710938 Z M 12.609375 18.710938 L 12.609375 13.015625 L 13.015625 13.015625 L 13.015625 18.710938 Z M 13.832031 18.710938 L 13.832031 13.015625 L 14.238281 13.015625 L 14.238281 18.710938 Z M 15.457031 18.710938 L 15.050781 18.710938 L 15.050781 13.015625 L 15.457031 13.015625 Z M 22.289062 20.253906 C 22.179688 20.804688 22.25 21.316406 22.503906 21.820312 C 22.296875 21.71875 22.136719 21.582031 22.015625 21.457031 C 21.628906 21.046875 21.460938 20.539062 21.472656 20.324219 C 21.484375 20.046875 21.453125 19.777344 21.378906 19.527344 L 22.179688 19.527344 C 22.300781 19.777344 22.335938 20.015625 22.289062 20.253906 Z M 22.421875 18.710938 L 16.269531 18.710938 L 16.269531 15.457031 L 23.1875 15.457031 L 23.1875 18.710938 Z M 22.421875 18.710938"/>
    <path d="M17.492188 12.609375L21.964844 12.609375 21.964844 13.421875 17.492188 13.421875zM17.492188 16.679688L21.964844 16.679688 21.964844 17.492188 17.492188 17.492188zM17.492188 16.679688"/>
</svg>
