<svg xmlns="http://www.w3.org/2000/svg" width="32" height="32" viewBox="0 0 24 24">
    <path d="M 23.171875 17.378906 L 23.171875 13.242188 L 21.515625 13.242188 L 21.515625 12.414062 L 19.035156 12.414062 L 19.035156 13.242188 L 18.207031 13.242188 L 18.207031 11.585938 L 16.996094 11.585938 C 17.003906 11.550781 17.019531 11.519531 17.027344 11.484375 C 17.105469 11.085938 16.972656 10.679688 16.675781 10.40625 C 16.34375 10.097656 16.128906 9.765625 16.042969 9.417969 L 15.964844 9.101562 L 15.308594 9.101562 L 15.308594 8.859375 L 16.429688 7.742188 C 16.59375 7.578125 16.59375 7.316406 16.429688 7.15625 C 16.269531 6.992188 16.007812 6.992188 15.84375 7.15625 L 15.308594 7.691406 L 15.308594 6.5625 C 16.023438 6.378906 16.550781 5.734375 16.550781 4.964844 L 16.550781 4.136719 L 15.308594 4.136719 L 15.308594 2.898438 L 13.242188 2.898438 L 13.242188 4.964844 C 13.242188 5.734375 13.769531 6.378906 14.484375 6.5625 L 14.484375 9.101562 L 13.828125 9.101562 L 13.75 9.417969 C 13.664062 9.765625 13.449219 10.097656 13.117188 10.40625 C 12.820312 10.679688 12.6875 11.085938 12.769531 11.484375 C 12.773438 11.519531 12.789062 11.550781 12.796875 11.585938 L 12.414062 11.585938 L 12.414062 5.792969 L 10.34375 5.792969 C 11.027344 5.792969 11.585938 5.234375 11.585938 4.550781 C 11.585938 3.867188 11.027344 3.308594 10.34375 3.308594 L 9.929688 3.308594 L 9.929688 2.898438 L 7.035156 2.898438 L 7.035156 5.792969 L 6.621094 5.792969 L 6.621094 0 L 0 0 L 0 24 L 24 24 L 24 17.378906 Z M 22.34375 14.070312 L 22.34375 17.378906 L 21.515625 17.378906 L 21.515625 14.070312 Z M 20.691406 13.242188 L 20.691406 17.378906 L 19.863281 17.378906 L 19.863281 13.242188 Z M 19.035156 14.070312 L 19.035156 17.378906 L 18.207031 17.378906 L 18.207031 14.070312 Z M 15.722656 4.964844 C 15.722656 5.269531 15.558594 5.539062 15.308594 5.683594 L 15.308594 4.964844 Z M 14.070312 4.964844 L 14.070312 3.722656 L 14.484375 3.722656 L 14.484375 5.683594 C 14.234375 5.539062 14.070312 5.269531 14.070312 4.964844 Z M 13.578125 11.324219 C 13.546875 11.15625 13.636719 11.050781 13.679688 11.011719 C 14.039062 10.679688 14.296875 10.316406 14.453125 9.929688 L 15.339844 9.929688 C 15.496094 10.320312 15.753906 10.679688 16.113281 11.011719 C 16.15625 11.050781 16.246094 11.15625 16.214844 11.324219 C 16.183594 11.472656 16.03125 11.585938 15.855469 11.585938 L 13.9375 11.585938 C 13.761719 11.585938 13.609375 11.472656 13.578125 11.324219 Z M 13.9375 12.414062 L 17.378906 12.414062 L 17.378906 17.378906 L 12.414062 17.378906 L 12.414062 12.414062 Z M 6.621094 12.414062 L 11.585938 12.414062 L 11.585938 17.378906 L 6.621094 17.378906 Z M 10.34375 4.136719 C 10.574219 4.136719 10.757812 4.324219 10.757812 4.550781 C 10.757812 4.78125 10.574219 4.964844 10.34375 4.964844 L 9.929688 4.964844 L 9.929688 4.136719 Z M 7.863281 3.722656 L 9.101562 3.722656 L 9.101562 5.792969 L 7.863281 5.792969 Z M 7.035156 6.621094 L 11.585938 6.621094 L 11.585938 11.585938 L 6.621094 11.585938 L 6.621094 6.621094 Z M 0.828125 0.828125 L 5.792969 0.828125 L 5.792969 5.792969 L 0.828125 5.792969 Z M 0.828125 6.621094 L 5.792969 6.621094 L 5.792969 11.585938 L 4.550781 11.585938 L 4.550781 7.863281 L 0.828125 7.863281 Z M 2.484375 11.585938 L 2.070312 11.585938 L 2.070312 8.691406 L 2.484375 8.691406 Z M 3.722656 11.585938 L 3.308594 11.585938 L 3.308594 8.691406 L 3.722656 8.691406 Z M 0.828125 8.691406 L 1.242188 8.691406 L 1.242188 11.585938 L 0.828125 11.585938 Z M 0.828125 12.414062 L 5.792969 12.414062 L 5.792969 17.378906 L 0.828125 17.378906 Z M 5.792969 23.171875 L 0.828125 23.171875 L 0.828125 18.207031 L 5.792969 18.207031 Z M 7.863281 23.171875 L 7.863281 22.757812 L 10.34375 22.757812 L 10.34375 23.171875 Z M 7.863281 21.515625 L 10.34375 21.515625 L 10.34375 21.929688 L 7.863281 21.929688 Z M 10.34375 20.691406 L 7.863281 20.691406 L 7.863281 20.277344 L 10.34375 20.277344 Z M 11.585938 23.171875 L 11.171875 23.171875 L 11.171875 19.449219 L 7.035156 19.449219 L 7.035156 23.171875 L 6.621094 23.171875 L 6.621094 18.207031 L 11.585938 18.207031 Z M 17.378906 23.171875 L 12.414062 23.171875 L 12.414062 18.207031 L 17.378906 18.207031 Z M 23.171875 23.171875 L 18.207031 23.171875 L 18.207031 18.207031 L 23.171875 18.207031 Z M 23.171875 23.171875"/>
    <path d="M 8.46875 2.515625 C 8.519531 2.535156 8.574219 2.546875 8.625 2.546875 C 8.789062 2.546875 8.941406 2.449219 9.007812 2.292969 C 9.09375 2.085938 9 1.851562 8.800781 1.757812 C 9.332031 1.53125 9.414062 1.191406 9.414062 1.007812 C 9.414062 0.824219 9.332031 0.480469 8.785156 0.253906 C 8.570312 0.164062 8.332031 0.265625 8.242188 0.476562 C 8.160156 0.683594 8.25 0.917969 8.449219 1.007812 C 7.917969 1.238281 7.835938 1.574219 7.835938 1.757812 C 7.835938 1.945312 7.917969 2.289062 8.46875 2.515625 Z M 8.46875 2.515625"/>
</svg>
