<svg xmlns="http://www.w3.org/2000/svg" width="32" height="32" viewBox="0 0 24 24">
    <path d="M18.133 15.004h-.817V7.547L16.09 5.094l-.41.816V3.066L14.453 0l-1.226 3.066v2.028l-.41-.817L11.59 6.73v1.227l-.406-.82-.41.82V4.781L9.546.43 8.336 4.668v1.27l-.426-.844-1.226 2.453v7.457h-.817v3.27h1.067L8.414 24h7.176l1.476-5.727h1.067zM16.09 6.922l.41.82v7.262h-.82V7.742zm-2.047-3.7l.41-1.019.41 1.02v11.78h-.82zm-1.633 3.7l.406-.817.41.817v8.082h-.816zm-1.226 2.047l.406.816v5.219h-.817V9.785zm-2.047-4.13l.41-1.433.41 1.434v10.164h-.82zM7.5 7.743l.41-.82.41.82v7.262H7.5zm7.453 15.442H9.047l-1.27-4.91h8.446zm2.363-5.727H6.684V15.82h10.632zm0 0"/>
    <path d="M9.957 19.5h2.453c.223 0 .406-.18.406-.406a.41.41 0 0 0-.406-.41H9.957a.41.41 0 0 0-.41.41c0 .226.183.406.41.406zm0 0M13.637 19.5c.105 0 .21-.043.289-.117a.408.408 0 0 0 .117-.29.435.435 0 0 0-.117-.292.44.44 0 0 0-.582 0 .454.454 0 0 0-.117.293c0 .105.046.21.117.289a.435.435 0 0 0 .293.117zm0 0M12 19.91h-.816a.41.41 0 1 0 0 .82H12a.41.41 0 1 0 0-.82zm0 0M9.957 20.73a.412.412 0 0 0 .29-.699.428.428 0 0 0-.583 0 .418.418 0 0 0 0 .578.431.431 0 0 0 .293.121zm0 0"/>
</svg>
