<svg xmlns="http://www.w3.org/2000/svg" width="32" height="32" viewBox="0 0 24 24">
    <path d="M 17.132812 8.855469 L 16.839844 8.792969 C 13.628906 8.105469 10.371094 8.105469 7.160156 8.792969 L 6.867188 8.855469 C 6.363281 8.964844 6 9.414062 6 9.929688 L 6 10.503906 C 6 10.835938 6.148438 11.144531 6.40625 11.355469 C 6.667969 11.566406 7 11.644531 7.328125 11.574219 C 10.429688 10.910156 13.570312 10.910156 16.671875 11.574219 C 16.75 11.59375 16.828125 11.601562 16.902344 11.601562 C 17.152344 11.601562 17.394531 11.515625 17.59375 11.355469 C 17.851562 11.144531 18 10.835938 18 10.503906 L 18 9.929688 C 18 9.414062 17.636719 8.964844 17.132812 8.855469 Z M 17.199219 10.503906 C 17.199219 10.625 17.128906 10.699219 17.089844 10.734375 C 17.046875 10.765625 16.960938 10.820312 16.839844 10.792969 C 15.234375 10.449219 13.617188 10.277344 12 10.277344 C 10.382812 10.277344 8.765625 10.449219 7.160156 10.792969 C 7.039062 10.820312 6.953125 10.765625 6.910156 10.734375 C 6.871094 10.699219 6.800781 10.625 6.800781 10.503906 L 6.800781 9.929688 C 6.800781 9.789062 6.898438 9.667969 7.035156 9.636719 L 7.328125 9.574219 C 10.429688 8.910156 13.570312 8.910156 16.671875 9.574219 L 16.964844 9.636719 C 17.101562 9.667969 17.199219 9.789062 17.199219 9.929688 Z M 17.199219 10.503906"/>
    <path d="M 21.738281 4.800781 C 20.164062 4.800781 18.683594 4.0625 17.675781 2.773438 C 16.300781 1.011719 14.234375 0 12 0 C 9.765625 0 7.699219 1.011719 6.324219 2.773438 C 5.316406 4.0625 3.835938 4.800781 2.261719 4.800781 C 1.675781 4.800781 1.199219 5.277344 1.199219 5.863281 L 1.199219 6 C 1.199219 6.214844 1.289062 6.421875 1.441406 6.574219 C 1.589844 6.722656 1.78125 6.800781 2 6.800781 C 2 10.992188 5.410156 14.398438 9.601562 14.398438 L 10.398438 14.398438 L 10.398438 18.800781 L 10.800781 18.800781 L 10.800781 19.601562 L 10 19.601562 L 10 20 C 10 21.765625 8.5625 23.199219 6.800781 23.199219 L 5.199219 23.199219 C 4.980469 23.199219 4.800781 23.378906 4.800781 23.601562 C 4.800781 23.820312 4.980469 24 5.199219 24 L 18.800781 24 C 19.019531 24 19.199219 23.820312 19.199219 23.601562 C 19.199219 23.378906 19.019531 23.199219 18.800781 23.199219 L 17.199219 23.199219 C 15.4375 23.199219 14 21.765625 14 20 L 14 19.601562 L 13.199219 19.601562 L 13.199219 18.800781 L 13.601562 18.800781 L 13.601562 14.398438 L 14.398438 14.398438 C 18.589844 14.398438 22 10.992188 21.988281 6.800781 C 22.21875 6.800781 22.410156 6.71875 22.5625 6.570312 C 22.714844 6.417969 22.800781 6.214844 22.800781 6 L 22.800781 5.863281 C 22.800781 5.277344 22.324219 4.800781 21.738281 4.800781 Z M 13.21875 20.398438 C 13.335938 21.542969 13.929688 22.542969 14.800781 23.199219 L 9.199219 23.199219 C 10.070312 22.542969 10.664062 21.542969 10.78125 20.398438 Z M 12.398438 19.601562 L 11.601562 19.601562 L 11.601562 18.800781 L 12.398438 18.800781 Z M 12.800781 18 L 11.199219 18 L 11.199219 14.398438 L 12.800781 14.398438 Z M 22 6 C 21.796875 6.011719 21.589844 6.078125 21.4375 6.226562 C 21.289062 6.378906 21.199219 6.585938 21.199219 6.800781 C 21.199219 10.550781 18.148438 13.601562 14.398438 13.601562 L 9.601562 13.601562 C 5.851562 13.601562 2.800781 10.550781 2.800781 6.800781 C 2.800781 6.582031 2.714844 6.378906 2.5625 6.230469 C 2.410156 6.082031 2.210938 6 2.011719 6 C 2.007812 6 2.003906 6 2 6 L 2 5.863281 C 2 5.71875 2.117188 5.601562 2.261719 5.601562 C 4.085938 5.601562 5.796875 4.75 6.953125 3.265625 C 8.175781 1.699219 10.015625 0.800781 12 0.800781 C 13.984375 0.800781 15.824219 1.699219 17.046875 3.265625 C 18.203125 4.75 19.914062 5.601562 21.738281 5.601562 C 21.882812 5.601562 22 5.71875 22 5.863281 Z M 22 6"/>
</svg>
