<svg xmlns="http://www.w3.org/2000/svg" width="32" height="32" viewBox="0 0 24 24">
    <path d="M17.133 8.855l-.293-.062a22.972 22.972 0 0 0-9.68 0l-.293.062C6.363 8.965 6 9.415 6 9.93v.574a1.095 1.095 0 0 0 1.328 1.07 22.161 22.161 0 0 1 9.344 0c.078.02.156.028.23.028A1.1 1.1 0 0 0 18 10.504V9.93c0-.516-.363-.965-.867-1.075zm.066 1.649c0 .121-.07.195-.11.23a.299.299 0 0 1-.25.059A23.082 23.082 0 0 0 12 10.277c-1.617 0-3.234.172-4.84.516a.299.299 0 0 1-.25-.059.305.305 0 0 1-.11-.23V9.93a.3.3 0 0 1 .235-.293l.293-.063a22.161 22.161 0 0 1 9.344 0l.293.063a.3.3 0 0 1 .234.293zm0 0"/>
    <path d="M21.738 4.8c-1.574 0-3.054-.737-4.062-2.027A7.154 7.154 0 0 0 12 0a7.154 7.154 0 0 0-5.676 2.773c-1.008 1.29-2.488 2.028-4.062 2.028-.586 0-1.063.476-1.063 1.062V6c0 .215.09.422.242.574A.77.77 0 0 0 2 6.801c0 4.191 3.41 7.597 7.602 7.597h.796v4.403h.403v.8H10V20c0 1.766-1.438 3.2-3.2 3.2H5.2a.401.401 0 0 0 0 .8h13.6a.4.4 0 0 0 0-.8h-1.6A3.203 3.203 0 0 1 14 20v-.398h-.8V18.8h.402v-4.403h.796c4.192 0 7.602-3.406 7.59-7.597.23 0 .422-.082.575-.23A.804.804 0 0 0 22.8 6v-.137c0-.586-.477-1.062-1.063-1.062zm-8.52 15.598a4.015 4.015 0 0 0 1.583 2.801H9.199a4.015 4.015 0 0 0 1.582-2.8zm-.82-.796h-.796V18.8h.796zM12.801 18h-1.602v-3.602h1.602zM22 6a.868.868 0 0 0-.563.227.83.83 0 0 0-.238.574c0 3.75-3.05 6.8-6.8 6.8H9.601c-3.75 0-6.801-3.05-6.801-6.8a.79.79 0 0 0-.239-.57.795.795 0 0 0-.55-.231H2v-.137c0-.144.117-.261.262-.261 1.824 0 3.535-.852 4.691-2.336A6.364 6.364 0 0 1 12 .8c1.984 0 3.824.898 5.047 2.465 1.156 1.484 2.867 2.336 4.691 2.336.145 0 .262.117.262.261zm0 0"/>
</svg>
