<svg xmlns="http://www.w3.org/2000/svg" width="32" height="32" viewBox="0 0 24 24">
    <path d="M0 0v24h2v-.8h20v.8h2V0zm23.2 23.2h-.4v-.802H1.2v.801H.8V.801h22.4zm0 0"/>
    <path d="M12.398 3.2h-.796a.401.401 0 0 0 0 .8h.796a.401.401 0 1 0 0-.8zm0 0M4.398 3.2h-.796a.401.401 0 0 0 0 .8h.796a.401.401 0 1 0 0-.8zm0 0M20.398 3.2h-.796a.401.401 0 0 0 0 .8h.796a.401.401 0 1 0 0-.8zm0 0M12.398 7.2h-.796a.401.401 0 0 0 0 .8h.796a.401.401 0 1 0 0-.8zm0 0M4.398 7.2h-.796a.401.401 0 0 0 0 .8h.796a.401.401 0 1 0 0-.8zm0 0M19.602 8h.796a.401.401 0 1 0 0-.8h-.796a.401.401 0 0 0 0 .8zm0 0M12.398 11.2h-.796a.401.401 0 0 0 0 .8h.796a.401.401 0 1 0 0-.8zm0 0M4.398 11.2h-.796a.401.401 0 0 0 0 .8h.796a.401.401 0 1 0 0-.8zm0 0M19.602 12h.796a.401.401 0 1 0 0-.8h-.796a.401.401 0 0 0 0 .8zm0 0M12.398 15.2h-.796a.401.401 0 0 0 0 .8h.796a.401.401 0 1 0 0-.8zm0 0M4.398 15.2h-.796a.401.401 0 0 0 0 .8h.796a.401.401 0 1 0 0-.8zm0 0M19.602 16h.796a.401.401 0 1 0 0-.8h-.796a.401.401 0 0 0 0 .8zm0 0"/>
    <path d="M6.8 22h16V1.2H1.2V22zm10.4-.8H6.8V18h10.4zM6.8 14h10.4v3.2H6.8zm0-4h10.4v3.2H6.8zm0-4h10.4v3.2H6.8zM22 21.2h-4V18h4zm0-4h-4V14h4zm0-4h-4V10h4zm0-4h-4V6h4zM18 2h4v3.2h-4zM6.8 2h10.4v3.2H6.8zM2 2h4v3.2H2zm0 4h4v3.2H2zm0 4h4v3.2H2zm0 4h4v3.2H2zm0 7.2V18h4v3.2zm0 0"/>
    <path d="M11.602 20h.796a.401.401 0 1 0 0-.8h-.796a.401.401 0 0 0 0 .8zm0 0M4.398 19.2h-.796a.401.401 0 0 0 0 .8h.796a.401.401 0 1 0 0-.8zm0 0M19.602 20h.796a.401.401 0 1 0 0-.8h-.796a.401.401 0 0 0 0 .8zm0 0"/>
</svg>
