<svg xmlns="http://www.w3.org/2000/svg" width="32" height="32" viewBox="0 0 24 24">
    <path d="M 0 0 L 0 24 L 2 24 L 2 23.199219 L 22 23.199219 L 22 24 L 24 24 L 24 0 Z M 23.199219 23.199219 L 22.800781 23.199219 L 22.800781 22.398438 L 1.199219 22.398438 L 1.199219 23.199219 L 0.800781 23.199219 L 0.800781 0.800781 L 23.199219 0.800781 Z M 23.199219 23.199219"/>
    <path d="M 7.199219 11.199219 L 5.601562 11.199219 C 5.378906 11.199219 5.199219 11.378906 5.199219 11.601562 C 5.199219 11.820312 5.378906 12 5.601562 12 L 7.199219 12 C 7.421875 12 7.601562 11.820312 7.601562 11.601562 C 7.601562 11.378906 7.421875 11.199219 7.199219 11.199219 Z M 7.199219 11.199219"/>
    <path d="M11.601562 18L11.601562 1.199219 1.199219 1.199219 1.199219 22 11.601562 22zM2 2L10.800781 2 10.800781 5.199219 2 5.199219zM2 6L10.800781 6 10.800781 9.199219 2 9.199219zM2 10L10.800781 10 10.800781 13.199219 2 13.199219zM2 14L10.800781 14 10.800781 17.199219 2 17.199219zM10.800781 21.199219L2 21.199219 2 18 10.800781 18zM22.800781 18L22.800781 1.199219 12.398438 1.199219 12.398438 22 22.800781 22zM13.199219 2L22 2 22 5.199219 13.199219 5.199219zM13.199219 6L22 6 22 9.199219 13.199219 9.199219zM13.199219 10L22 10 22 13.199219 13.199219 13.199219zM13.199219 14L22 14 22 17.199219 13.199219 17.199219zM22 21.199219L13.199219 21.199219 13.199219 18 22 18zM22 21.199219"/>
    <path d="M7.199219 7.199219L5.601562 7.199219C5.378906 7.199219 5.199219 7.378906 5.199219 7.601562 5.199219 7.820312 5.378906 8 5.601562 8L7.199219 8C7.421875 8 7.601562 7.820312 7.601562 7.601562 7.601562 7.378906 7.421875 7.199219 7.199219 7.199219zM7.199219 3.199219L5.601562 3.199219C5.378906 3.199219 5.199219 3.378906 5.199219 3.601562 5.199219 3.820312 5.378906 4 5.601562 4L7.199219 4C7.421875 4 7.601562 3.820312 7.601562 3.601562 7.601562 3.378906 7.421875 3.199219 7.199219 3.199219zM7.199219 15.199219L5.601562 15.199219C5.378906 15.199219 5.199219 15.378906 5.199219 15.601562 5.199219 15.820312 5.378906 16 5.601562 16L7.199219 16C7.421875 16 7.601562 15.820312 7.601562 15.601562 7.601562 15.378906 7.421875 15.199219 7.199219 15.199219zM5.601562 20L7.199219 20C7.421875 20 7.601562 19.820312 7.601562 19.601562 7.601562 19.378906 7.421875 19.199219 7.199219 19.199219L5.601562 19.199219C5.378906 19.199219 5.199219 19.378906 5.199219 19.601562 5.199219 19.820312 5.378906 20 5.601562 20zM18.398438 11.199219L16.800781 11.199219C16.578125 11.199219 16.398438 11.378906 16.398438 11.601562 16.398438 11.820312 16.578125 12 16.800781 12L18.398438 12C18.621094 12 18.800781 11.820312 18.800781 11.601562 18.800781 11.378906 18.621094 11.199219 18.398438 11.199219zM18.398438 7.199219L16.800781 7.199219C16.578125 7.199219 16.398438 7.378906 16.398438 7.601562 16.398438 7.820312 16.578125 8 16.800781 8L18.398438 8C18.621094 8 18.800781 7.820312 18.800781 7.601562 18.800781 7.378906 18.621094 7.199219 18.398438 7.199219zM18.398438 3.199219L16.800781 3.199219C16.578125 3.199219 16.398438 3.378906 16.398438 3.601562 16.398438 3.820312 16.578125 4 16.800781 4L18.398438 4C18.621094 4 18.800781 3.820312 18.800781 3.601562 18.800781 3.378906 18.621094 3.199219 18.398438 3.199219zM18.398438 15.199219L16.800781 15.199219C16.578125 15.199219 16.398438 15.378906 16.398438 15.601562 16.398438 15.820312 16.578125 16 16.800781 16L18.398438 16C18.621094 16 18.800781 15.820312 18.800781 15.601562 18.800781 15.378906 18.621094 15.199219 18.398438 15.199219zM16.800781 20L18.398438 20C18.621094 20 18.800781 19.820312 18.800781 19.601562 18.800781 19.378906 18.621094 19.199219 18.398438 19.199219L16.800781 19.199219C16.578125 19.199219 16.398438 19.378906 16.398438 19.601562 16.398438 19.820312 16.578125 20 16.800781 20zM16.800781 20"/>
</svg>
