<svg xmlns="http://www.w3.org/2000/svg" width="32" height="32" viewBox="0 0 24 24">
    <path d="M20.895.398L20.18.043c-.004-.004-.012-.004-.016-.008-.008-.004-.02-.004-.027-.008a.318.318 0 0 0-.121-.023L20 0h-1.2a.401.401 0 0 0-.402.398H5.602A.401.401 0 0 0 5.199 0H4l-.016.004a.318.318 0 0 0-.12.023c-.009.004-.02.004-.028.012-.004 0-.012 0-.016.004l-.715.355H0V24h2v-.953l1.82.91c.004.004.008 0 .012.004.05.023.11.039.168.039h1.2c.222 0 .402-.18.402-.398V22.8h12.796v.8c0 .22.18.399.403.399H20a.408.408 0 0 0 .168-.04c.004-.003.008 0 .012-.003l1.82-.91V24h2V.398zm-2.497.801v.403H5.602v-.403zm0 4.403h-6V2.398h6zm0 4h-6V6.398h6zm0 4h-.472c.047-.13.074-.262.074-.403a1.2 1.2 0 0 0-.313-.8c.192-.211.313-.489.313-.797 0-.665-.54-1.204-1.2-1.204h1.598zm-4.796-.403a.4.4 0 0 1 .398-.398h2.8a.4.4 0 0 1 0 .8H14a.401.401 0 0 1-.398-.402zM16.8 12H14a.4.4 0 0 1 0-.8h2.8a.401.401 0 0 1 0 .8zm-4-.398c0 .308.12.585.312.796a1.2 1.2 0 0 0-.312.801c0 .14.027.274.074.403h-.477v-3.204H14c-.66 0-1.2.54-1.2 1.204zm-1.2-1.204v7.204h-.476c.047-.13.074-.262.074-.403C11.2 16.54 10.66 16 10 16H7.2c-.66 0-1.2.54-1.2 1.2 0 .14.027.273.074.402h-.472V8.398h.796V9.2a.401.401 0 0 0 .8 0l.001-.8h.403v.8a.398.398 0 1 0 .796 0v-.8h.403v.8a.401.401 0 1 0 .8 0v-.8H10v.8a.401.401 0 1 0 .8 0v-.8h.802zm-4.8 6.801a.4.4 0 0 1 .398-.398H10a.4.4 0 0 1 0 .8H7.2a.401.401 0 0 1-.4-.402zm4.8-9.597h-.8v-.403a.401.401 0 0 0-.801 0v.403h-.398v-.403a.401.401 0 0 0-.801 0v.403h-.403v-.403a.398.398 0 1 0-.796 0v.403h-.403v-.403a.4.4 0 0 0-.8 0v.403h-.797V6.398h6zm0-2h-6V2.398h6zm-6 12.796h6v2.403h-6zm6.797 0h6v2.403h-6zm6-.796h-6v-3.204h6zM1.2 23.199H.801v-22h.703l-.082.043-.223.11zM2 1.848l1.602-.801v21.906L2 22.153zm2.8 21.351h-.402V.801h.403zM5.603 22v-.398h12.796V22zm13.597.8V.8h.403v22.4h-.403zm1.2.153V1.047l1.601.8v20.305zm2.8.246h-.398V1.352l-.223-.11-.082-.043h.703zm0 0"/>
    <path d="M13.2 5.2h4.402a.4.4 0 0 0 0-.802h-4.403a.401.401 0 0 0 0 .801zm0 0"/>
</svg>
