<svg xmlns="http://www.w3.org/2000/svg" width="32" height="32" viewBox="0 0 24 24">
    <path d="M 24 14.226562 C 24 14.058594 23.953125 13.898438 23.878906 13.757812 C 23.707031 13.15625 23.34375 12.625 22.851562 12.242188 C 23.109375 11.910156 23.238281 11.441406 23.191406 10.953125 C 23.132812 10.394531 22.847656 9.941406 22.433594 9.730469 C 22.34375 9.6875 22.246094 9.660156 22.148438 9.636719 C 21.203125 8.144531 19.566406 7.21875 17.8125 7.199219 C 16.976562 5.304688 14.699219 4 12.15625 4 C 9.617188 4 7.339844 5.304688 6.503906 7.199219 C 4.765625 7.21875 3.140625 8.128906 2.191406 9.597656 C 2.121094 9.597656 2.054688 9.597656 1.988281 9.605469 C 1.84375 9.621094 1.703125 9.664062 1.566406 9.734375 C 1.148438 9.941406 0.867188 10.394531 0.808594 10.953125 C 0.757812 11.441406 0.886719 11.910156 1.148438 12.242188 C 0.652344 12.628906 0.289062 13.15625 0.117188 13.757812 C 0.046875 13.898438 0 14.058594 0 14.226562 C 0 15.671875 1.035156 16.875 2.398438 17.144531 L 2.398438 18.398438 C 2.398438 18.621094 2.578125 18.800781 2.800781 18.800781 L 3.199219 18.800781 L 3.199219 20 L 5.015625 20 L 5.8125 18.800781 L 18.585938 18.800781 L 19.386719 20 L 21.199219 20 L 21.199219 18.800781 C 21.421875 18.800781 21.601562 18.621094 21.601562 18.398438 L 21.601562 17.144531 C 22.964844 16.875 24 15.671875 24 14.226562 Z M 21.027344 14 L 2.972656 14 C 2.375 14 1.816406 13.761719 1.402344 13.324219 C 1.363281 13.285156 1.320312 13.253906 1.273438 13.234375 C 1.425781 13.042969 1.613281 12.875 1.824219 12.746094 C 2.234375 12.941406 2.855469 13.171875 3.511719 13.34375 C 3.515625 13.34375 3.519531 13.34375 3.523438 13.347656 C 3.601562 13.367188 3.679688 13.386719 3.761719 13.40625 C 3.785156 13.410156 3.808594 13.414062 3.832031 13.421875 C 3.898438 13.4375 3.96875 13.453125 4.035156 13.464844 C 4.066406 13.472656 4.097656 13.476562 4.128906 13.484375 C 4.191406 13.496094 4.257812 13.507812 4.324219 13.519531 C 4.351562 13.523438 4.382812 13.527344 4.410156 13.53125 C 4.480469 13.542969 4.546875 13.550781 4.617188 13.558594 C 4.636719 13.5625 4.65625 13.5625 4.679688 13.566406 C 4.753906 13.574219 4.828125 13.582031 4.898438 13.585938 C 4.910156 13.585938 4.921875 13.585938 4.9375 13.589844 C 5.015625 13.59375 5.089844 13.59375 5.167969 13.59375 C 5.167969 13.59375 5.171875 13.59375 5.171875 13.59375 C 5.175781 13.59375 5.175781 13.59375 5.179688 13.59375 C 5.28125 13.59375 5.378906 13.589844 5.472656 13.582031 C 5.476562 13.582031 5.480469 13.578125 5.488281 13.578125 C 5.582031 13.570312 5.671875 13.554688 5.757812 13.535156 C 5.839844 13.515625 5.917969 13.492188 5.988281 13.460938 C 5.988281 13.460938 5.988281 13.457031 5.992188 13.457031 C 6.066406 13.425781 6.136719 13.382812 6.195312 13.335938 C 6.234375 13.304688 6.285156 13.261719 6.332031 13.199219 L 17.667969 13.199219 C 17.71875 13.261719 17.765625 13.304688 17.804688 13.335938 C 17.863281 13.386719 17.933594 13.425781 18.011719 13.457031 C 18.011719 13.457031 18.011719 13.460938 18.015625 13.460938 C 18.15625 13.523438 18.328125 13.5625 18.519531 13.582031 C 18.519531 13.582031 18.519531 13.582031 18.523438 13.582031 C 18.695312 13.597656 18.882812 13.601562 19.082031 13.585938 C 19.082031 13.585938 19.085938 13.585938 19.085938 13.585938 C 19.171875 13.582031 19.253906 13.574219 19.339844 13.566406 C 19.347656 13.5625 19.355469 13.5625 19.363281 13.5625 C 19.445312 13.550781 19.527344 13.542969 19.609375 13.527344 C 19.625 13.527344 19.636719 13.523438 19.652344 13.523438 C 19.730469 13.507812 19.8125 13.496094 19.894531 13.480469 C 19.910156 13.476562 19.921875 13.472656 19.933594 13.472656 C 20.019531 13.453125 20.105469 13.4375 20.191406 13.417969 C 20.195312 13.414062 20.199219 13.414062 20.203125 13.414062 C 20.960938 13.238281 21.710938 12.972656 22.175781 12.746094 C 22.386719 12.875 22.574219 13.042969 22.726562 13.234375 C 22.679688 13.253906 22.636719 13.285156 22.597656 13.324219 C 22.183594 13.761719 21.625 14 21.027344 14 Z M 22.128906 11.847656 C 22.09375 11.875 22.046875 11.90625 21.996094 11.9375 C 21.992188 11.9375 21.988281 11.941406 21.984375 11.941406 C 21.46875 12.238281 20.640625 12.503906 19.898438 12.664062 C 19.875 12.667969 19.855469 12.671875 19.835938 12.675781 C 19.777344 12.6875 19.71875 12.699219 19.660156 12.710938 C 19.613281 12.71875 19.5625 12.726562 19.515625 12.734375 C 19.480469 12.742188 19.441406 12.75 19.402344 12.753906 C 19.347656 12.761719 19.292969 12.769531 19.238281 12.777344 C 19.207031 12.78125 19.171875 12.785156 19.144531 12.789062 C 19.09375 12.792969 19.042969 12.796875 18.996094 12.800781 C 18.964844 12.804688 18.929688 12.808594 18.898438 12.808594 C 18.859375 12.8125 18.828125 12.8125 18.792969 12.8125 C 18.757812 12.8125 18.71875 12.816406 18.683594 12.8125 C 18.664062 12.8125 18.644531 12.8125 18.628906 12.808594 C 18.585938 12.808594 18.542969 12.804688 18.511719 12.800781 C 18.507812 12.800781 18.503906 12.796875 18.5 12.796875 C 18.410156 12.78125 18.34375 12.757812 18.308594 12.722656 C 18.308594 12.71875 18.308594 12.71875 18.308594 12.714844 C 18.304688 12.699219 18.308594 12.644531 18.363281 12.53125 C 18.707031 11.796875 19.71875 11.019531 20.671875 10.636719 C 20.746094 10.605469 20.824219 10.582031 20.898438 10.554688 C 20.925781 10.546875 20.953125 10.539062 20.976562 10.527344 C 21.027344 10.515625 21.074219 10.5 21.121094 10.488281 C 21.167969 10.476562 21.210938 10.464844 21.257812 10.453125 C 21.289062 10.449219 21.316406 10.441406 21.347656 10.4375 C 21.398438 10.425781 21.449219 10.417969 21.5 10.414062 C 21.527344 10.410156 21.554688 10.40625 21.578125 10.402344 C 21.625 10.398438 21.667969 10.398438 21.710938 10.394531 C 21.761719 10.394531 21.808594 10.394531 21.855469 10.398438 C 21.878906 10.398438 21.902344 10.398438 21.925781 10.402344 C 21.972656 10.40625 22.023438 10.421875 22.078125 10.449219 C 22.246094 10.53125 22.367188 10.757812 22.394531 11.03125 C 22.429688 11.371094 22.324219 11.695312 22.128906 11.847656 Z M 6.558594 8 C 7.21875 8 7.757812 8.539062 7.757812 9.199219 C 7.757812 9.421875 7.9375 9.601562 8.160156 9.601562 C 8.378906 9.601562 8.558594 9.421875 8.558594 9.199219 C 8.558594 8.367188 8.046875 7.652344 7.320312 7.351562 C 8.089844 5.832031 10.007812 4.800781 12.160156 4.800781 C 14.308594 4.800781 16.226562 5.832031 16.996094 7.351562 C 16.269531 7.652344 15.757812 8.367188 15.757812 9.199219 C 15.757812 9.421875 15.9375 9.601562 16.160156 9.601562 C 16.378906 9.601562 16.558594 9.421875 16.558594 9.199219 C 16.558594 8.539062 17.097656 8 17.757812 8 C 19.089844 8 20.347656 8.621094 21.179688 9.652344 C 20.082031 9.859375 18.820312 10.621094 18.078125 11.515625 C 18.058594 11.539062 18.039062 11.5625 18.019531 11.589844 C 17.984375 11.632812 17.949219 11.679688 17.917969 11.722656 C 17.886719 11.765625 17.859375 11.808594 17.832031 11.855469 C 17.808594 11.886719 17.789062 11.917969 17.769531 11.949219 C 17.71875 12.03125 17.675781 12.109375 17.636719 12.191406 C 17.605469 12.261719 17.578125 12.332031 17.558594 12.398438 L 6.441406 12.398438 C 6.421875 12.335938 6.398438 12.265625 6.363281 12.199219 C 6.363281 12.195312 6.363281 12.191406 6.363281 12.191406 C 6.328125 12.113281 6.285156 12.039062 6.238281 11.960938 C 6.21875 11.925781 6.191406 11.890625 6.167969 11.851562 C 6.148438 11.820312 6.125 11.789062 6.105469 11.753906 C 5.582031 11.011719 4.675781 10.335938 3.746094 9.945312 C 3.679688 9.914062 3.613281 9.886719 3.546875 9.863281 C 3.527344 9.855469 3.511719 9.847656 3.492188 9.84375 C 3.359375 9.792969 3.222656 9.746094 3.085938 9.710938 C 3.917969 8.644531 5.199219 8 6.558594 8 Z M 1.605469 11.03125 C 1.632812 10.753906 1.757812 10.53125 1.921875 10.449219 C 1.976562 10.421875 2.027344 10.40625 2.101562 10.398438 C 2.152344 10.394531 2.203125 10.390625 2.257812 10.390625 C 2.296875 10.390625 2.339844 10.394531 2.382812 10.398438 C 2.382812 10.398438 2.382812 10.398438 2.386719 10.398438 C 2.527344 10.40625 2.679688 10.433594 2.835938 10.472656 C 2.910156 10.492188 2.988281 10.511719 3.0625 10.535156 C 3.070312 10.539062 3.078125 10.542969 3.085938 10.542969 C 3.15625 10.566406 3.222656 10.589844 3.292969 10.617188 C 3.308594 10.625 3.324219 10.628906 3.339844 10.636719 C 3.402344 10.660156 3.46875 10.691406 3.53125 10.71875 C 3.550781 10.726562 3.570312 10.734375 3.589844 10.746094 C 3.652344 10.773438 3.710938 10.804688 3.773438 10.835938 C 3.792969 10.847656 3.8125 10.855469 3.832031 10.867188 C 3.894531 10.898438 3.957031 10.933594 4.019531 10.96875 C 4.035156 10.980469 4.050781 10.988281 4.066406 11 C 4.132812 11.039062 4.195312 11.078125 4.257812 11.117188 C 4.269531 11.125 4.28125 11.132812 4.292969 11.140625 C 4.359375 11.183594 4.425781 11.230469 4.488281 11.277344 C 4.496094 11.28125 4.503906 11.285156 4.511719 11.292969 C 4.578125 11.339844 4.644531 11.390625 4.707031 11.441406 C 4.710938 11.445312 4.714844 11.449219 4.71875 11.453125 C 4.785156 11.503906 4.847656 11.558594 4.910156 11.617188 C 4.910156 11.617188 4.914062 11.621094 4.914062 11.621094 C 4.976562 11.675781 5.039062 11.734375 5.097656 11.792969 C 5.097656 11.796875 5.101562 11.800781 5.105469 11.800781 C 5.160156 11.859375 5.214844 11.914062 5.261719 11.972656 C 5.269531 11.980469 5.277344 11.988281 5.28125 11.996094 C 5.328125 12.050781 5.371094 12.101562 5.410156 12.15625 C 5.425781 12.179688 5.441406 12.199219 5.457031 12.222656 C 5.484375 12.261719 5.511719 12.300781 5.535156 12.339844 C 5.574219 12.402344 5.609375 12.46875 5.636719 12.53125 C 5.6875 12.636719 5.691406 12.6875 5.691406 12.710938 C 5.65625 12.746094 5.597656 12.769531 5.515625 12.785156 C 5.507812 12.785156 5.5 12.789062 5.492188 12.789062 C 5.457031 12.796875 5.421875 12.796875 5.382812 12.800781 C 5.359375 12.804688 5.339844 12.804688 5.3125 12.804688 C 5.28125 12.808594 5.246094 12.808594 5.214844 12.804688 C 5.175781 12.804688 5.136719 12.804688 5.097656 12.804688 C 5.070312 12.800781 5.039062 12.800781 5.007812 12.796875 C 4.957031 12.792969 4.90625 12.789062 4.847656 12.78125 C 4.820312 12.78125 4.796875 12.777344 4.769531 12.773438 C 4.707031 12.765625 4.648438 12.757812 4.585938 12.75 C 4.554688 12.742188 4.519531 12.738281 4.488281 12.734375 C 4.4375 12.726562 4.382812 12.714844 4.328125 12.707031 C 4.277344 12.695312 4.222656 12.6875 4.167969 12.675781 C 4.144531 12.667969 4.121094 12.664062 4.097656 12.660156 C 3.355469 12.503906 2.53125 12.234375 2.015625 11.941406 C 2.011719 11.9375 2.007812 11.9375 2 11.9375 C 1.953125 11.90625 1.90625 11.875 1.871094 11.847656 C 1.675781 11.695312 1.570312 11.371094 1.605469 11.03125 Z M 4.585938 19.199219 L 4 19.199219 L 4 18.800781 L 4.851562 18.800781 Z M 6.347656 18 L 3.199219 18 L 3.199219 17.199219 L 20.800781 17.199219 L 20.800781 18 Z M 20.398438 19.199219 L 19.8125 19.199219 L 19.546875 18.800781 L 20.398438 18.800781 Z M 21.027344 16.398438 L 2.972656 16.398438 C 1.773438 16.398438 0.800781 15.425781 0.800781 14.226562 C 0.800781 14.183594 0.8125 14.144531 0.835938 14.113281 C 0.863281 14.0625 0.90625 14.027344 0.957031 14.011719 C 1 14.046875 1.042969 14.082031 1.085938 14.117188 C 1.113281 14.144531 1.140625 14.167969 1.171875 14.191406 C 1.179688 14.199219 1.191406 14.203125 1.203125 14.210938 C 1.710938 14.59375 2.324219 14.800781 2.972656 14.800781 L 21.027344 14.800781 C 21.671875 14.800781 22.285156 14.59375 22.792969 14.214844 C 22.804688 14.207031 22.816406 14.199219 22.828125 14.191406 C 22.859375 14.167969 22.886719 14.144531 22.914062 14.117188 C 22.957031 14.082031 23 14.050781 23.042969 14.011719 C 23.09375 14.027344 23.136719 14.0625 23.164062 14.113281 C 23.1875 14.144531 23.199219 14.183594 23.199219 14.226562 C 23.199219 15.425781 22.226562 16.398438 21.027344 16.398438 Z M 21.027344 16.398438"/>
</svg>
