<svg xmlns="http://www.w3.org/2000/svg" width="32" height="32" viewBox="0 0 24 24">
    <path d="M12 7.602c.223 0 .398-.18.398-.403v-.398a.398.398 0 1 0-.796 0v.398c0 .223.175.403.398.403zm0 0M12 10.8c.223 0 .398-.179.398-.402V10A.395.395 0 0 0 12 9.602a.395.395 0 0 0-.398.398v.398c0 .223.175.403.398.403zm0 0M12 9.2c.223 0 .398-.18.398-.4v-.402a.398.398 0 1 0-.796 0v.403c0 .219.175.398.398.398zm0 0M4 14.8a.4.4 0 1 1-.8-.003.4.4 0 0 1 .8.004zm0 0M4 17.2a.401.401 0 1 1-.802.002.401.401 0 0 1 .802-.003zm0 0M5.2 16c0 .223-.18.398-.4.398a.398.398 0 1 1 0-.796c.22 0 .4.175.4.398zm0 0M7.602 16c0 .223-.18.398-.403.398a.398.398 0 1 1 0-.796c.223 0 .403.175.403.398zm0 0M6.398 14.8a.398.398 0 1 1-.796 0 .398.398 0 1 1 .796 0zm0 0M8.8 14.8A.401.401 0 1 1 8 14.797a.401.401 0 0 1 .802.005zm0 0M6.398 17.2a.398.398 0 1 1-.796 0 .398.398 0 1 1 .796 0zm0 0M8.8 17.2a.401.401 0 1 1 0 0zm0 0M10 16c0 .223-.18.398-.398.398a.398.398 0 1 1 0-.796c.218 0 .398.175.398.398zm0 0M12.398 16a.395.395 0 0 1-.398.398.395.395 0 0 1-.398-.398c0-.223.175-.398.398-.398.223 0 .398.175.398.398zm0 0M11.2 14.8a.4.4 0 1 1-.801-.003.4.4 0 0 1 .8.004zm0 0M13.602 14.8a.401.401 0 1 1-.802-.004.401.401 0 0 1 .802.005zm0 0M11.2 17.2a.401.401 0 1 1-.803.002.401.401 0 0 1 .802-.003zm0 0M13.602 17.2a.401.401 0 1 1 0 0zm0 0M14.8 16c0 .223-.179.398-.402.398a.398.398 0 1 1 0-.796c.223 0 .403.175.403.398zm0 0M17.2 16c0 .223-.18.398-.4.398a.398.398 0 1 1 0-.796c.22 0 .4.175.4.398zm0 0M16 14.8a.4.4 0 1 1-.8-.003.4.4 0 0 1 .8.004zm0 0M18.398 14.8a.398.398 0 1 1-.796 0 .398.398 0 1 1 .796 0zm0 0M16 17.2a.401.401 0 1 1-.802.002.401.401 0 0 1 .802-.003zm0 0M18.398 17.2a.398.398 0 1 1-.796 0 .398.398 0 1 1 .796 0zm0 0M19.602 16c0 .223-.18.398-.403.398a.398.398 0 1 1 0-.796c.223 0 .403.175.403.398zm0 0M20.8 14.8a.401.401 0 1 1-.801-.004.401.401 0 0 1 .802.005zm0 0M20.8 17.2a.401.401 0 1 1 0 0zm0 0"/>
    <path d="M24 10.398a1.59 1.59 0 0 0-.8-1.375V7.97a3.573 3.573 0 0 0-3.567-3.57H13.93c-.707 0-1.383.234-1.93.667a3.094 3.094 0 0 0-1.93-.668H4.367a3.573 3.573 0 0 0-3.566 3.57v1.055A1.59 1.59 0 0 0 0 10.398v8h.398v1.204h2.403v-1.204h18.398v1.204h2.403v-1.204H24zM3.2 12h6.87c.621 0 1.207.242 1.649.684l.281.28.281-.28A2.317 2.317 0 0 1 13.93 12h6.87v1.2H3.2zm18.402 2v-3.48c0-.368.191-.696.488-.844a.846.846 0 0 1 .242-.07c.016 0 .035-.004.05-.004.032 0 .06.003.087.007a.63.63 0 0 1 .195.043l.066.02a.799.799 0 0 1 .47.726v7.204h-1.598zm-20-6.031a2.772 2.772 0 0 1 2.765-2.77h5.703c.621 0 1.207.242 1.649.684l.281.281.281-.281a2.317 2.317 0 0 1 1.649-.684h5.703a2.772 2.772 0 0 1 2.765 2.77V8.8c-.878 0-1.597.719-1.597 1.597v.801H13.93c-.707 0-1.383.235-1.93.668a3.094 3.094 0 0 0-1.93-.668H3.2v-.8c0-.88-.72-1.598-1.598-1.598zM.8 10.399c0-.32.191-.602.469-.727l.066-.02a.63.63 0 0 1 .14-.039c.016-.004.036-.004.055-.008.028 0 .055-.003.082-.003.02 0 .035.003.055.003.078.012.16.032.238.07.301.15.492.477.492.845v7.082H.801zM2 18.8h-.8v-.403H2zm18.8-4v2.8H3.2V14h17.6zm2 4H22v-.403h.8zm0 0"/>
</svg>
