<svg xmlns="http://www.w3.org/2000/svg" width="32" height="32" viewBox="0 0 24 24">
    <path d="M 24 13.582031 L 24 10.398438 C 24 7.925781 21.585938 6.707031 20.308594 6.40625 C 19.007812 6.105469 17.535156 5.757812 16.199219 5.058594 C 13.496094 3.648438 10.503906 3.648438 7.800781 5.058594 C 6.464844 5.757812 4.992188 6.101562 3.691406 6.40625 C 2.414062 6.707031 0 7.925781 0 10.398438 L 0 13.574219 C 0 13.582031 0 13.589844 0 13.597656 L 0 15.222656 C 0.0898438 16.558594 1.066406 17.640625 2.328125 17.925781 L 2.007812 19.519531 C 1.984375 19.636719 2.015625 19.757812 2.089844 19.851562 C 2.167969 19.945312 2.28125 19.996094 2.398438 19.996094 L 3.199219 19.996094 C 3.304688 19.996094 3.40625 19.957031 3.484375 19.878906 L 5.367188 17.996094 L 18.632812 17.996094 L 20.515625 19.878906 C 20.59375 19.957031 20.695312 19.996094 20.800781 19.996094 L 21.601562 19.996094 C 21.71875 19.996094 21.832031 19.945312 21.910156 19.851562 C 21.984375 19.757812 22.015625 19.636719 21.992188 19.519531 L 21.671875 17.925781 C 22.933594 17.640625 23.910156 16.554688 24 15.199219 L 24 13.589844 C 24 13.589844 24 13.585938 24 13.582031 Z M 18.601562 14.304688 C 18.539062 14.402344 18.484375 14.5 18.4375 14.597656 C 18.433594 14.605469 18.433594 14.613281 18.429688 14.621094 C 18.402344 14.679688 18.378906 14.738281 18.359375 14.796875 L 5.640625 14.796875 C 5.621094 14.730469 5.59375 14.664062 5.5625 14.597656 C 5.515625 14.5 5.460938 14.402344 5.402344 14.304688 C 5.394531 14.296875 5.386719 14.285156 5.378906 14.277344 C 5.320312 14.183594 5.253906 14.089844 5.179688 13.996094 L 18.820312 13.996094 C 18.746094 14.089844 18.679688 14.183594 18.617188 14.277344 C 18.613281 14.289062 18.605469 14.296875 18.601562 14.304688 Z M 1.457031 12.796875 C 2.152344 12.796875 3.09375 13.21875 3.824219 13.785156 L 3.96875 13.90625 C 4.269531 14.15625 4.515625 14.421875 4.683594 14.671875 C 4.691406 14.679688 4.695312 14.6875 4.699219 14.695312 C 4.753906 14.773438 4.796875 14.851562 4.832031 14.925781 C 4.835938 14.929688 4.835938 14.933594 4.839844 14.9375 C 4.84375 14.949219 4.847656 14.957031 4.851562 14.96875 C 4.890625 15.0625 4.890625 15.109375 4.890625 15.121094 C 4.539062 15.453125 1.816406 14.839844 1.070312 14.253906 C 0.878906 14.105469 0.773438 13.777344 0.804688 13.441406 C 0.835938 13.164062 0.957031 12.9375 1.121094 12.855469 C 1.175781 12.828125 1.226562 12.8125 1.300781 12.804688 C 1.351562 12.800781 1.402344 12.796875 1.457031 12.796875 Z M 19.109375 15.132812 L 19.109375 15.128906 C 19.109375 15.125 19.105469 15.089844 19.128906 15.023438 C 19.136719 14.996094 19.148438 14.96875 19.160156 14.9375 C 19.199219 14.859375 19.246094 14.777344 19.300781 14.695312 C 19.304688 14.6875 19.308594 14.679688 19.3125 14.675781 C 19.484375 14.421875 19.730469 14.15625 20.03125 13.90625 L 20.164062 13.796875 C 20.898438 13.222656 21.851562 12.800781 22.5625 12.800781 C 22.617188 12.800781 22.671875 12.804688 22.726562 12.808594 C 22.773438 12.8125 22.824219 12.828125 22.878906 12.855469 C 23.042969 12.9375 23.164062 13.164062 23.195312 13.441406 C 23.226562 13.777344 23.121094 14.105469 22.929688 14.253906 C 22.179688 14.839844 19.433594 15.460938 19.109375 15.132812 Z M 0.800781 10.398438 C 0.800781 9.570312 1.398438 7.890625 3.613281 7.257812 C 3.644531 7.449219 3.800781 7.597656 4 7.597656 C 4.222656 7.597656 4.398438 7.417969 4.398438 7.199219 C 4.398438 7.152344 4.386719 7.109375 4.375 7.070312 C 5.296875 6.847656 6.285156 6.585938 7.257812 6.191406 C 7.324219 6.3125 7.449219 6.398438 7.601562 6.398438 C 7.820312 6.398438 8 6.21875 8 5.996094 C 8 5.949219 7.988281 5.90625 7.972656 5.867188 C 8.039062 5.832031 8.105469 5.804688 8.171875 5.769531 C 9.03125 5.320312 9.917969 5.027344 10.820312 4.890625 C 10.863281 5.066406 11.011719 5.199219 11.199219 5.199219 C 11.417969 5.199219 11.589844 5.023438 11.597656 4.808594 C 11.730469 4.804688 11.867188 4.796875 12 4.796875 C 12.410156 4.796875 12.816406 4.832031 13.21875 4.898438 C 13.265625 5.070312 13.414062 5.199219 13.601562 5.199219 C 13.730469 5.199219 13.839844 5.132812 13.914062 5.035156 C 14.5625 5.199219 15.203125 5.441406 15.828125 5.769531 C 16.179688 5.953125 16.539062 6.113281 16.902344 6.257812 C 16.972656 6.339844 17.078125 6.398438 17.199219 6.398438 C 17.21875 6.398438 17.234375 6.390625 17.253906 6.386719 C 18.238281 6.742188 19.222656 6.976562 20.128906 7.1875 C 20.226562 7.210938 20.320312 7.238281 20.414062 7.265625 C 20.445312 7.453125 20.601562 7.597656 20.800781 7.597656 C 20.898438 7.597656 20.984375 7.558594 21.054688 7.5 C 21.386719 7.648438 21.675781 7.820312 21.921875 8.011719 C 21.738281 8.050781 21.601562 8.203125 21.601562 8.398438 C 21.601562 8.617188 21.777344 8.796875 22 8.796875 C 22.199219 8.796875 22.359375 8.648438 22.390625 8.453125 C 22.632812 8.730469 22.8125 9.019531 22.9375 9.300781 C 22.855469 9.375 22.800781 9.476562 22.800781 9.597656 C 22.800781 9.804688 22.957031 9.96875 23.15625 9.988281 C 23.1875 10.140625 23.199219 10.277344 23.199219 10.398438 L 23.199219 11.597656 C 22.980469 11.597656 22.800781 11.777344 22.800781 11.996094 C 22.800781 12.003906 22.804688 12.007812 22.804688 12.015625 C 22.792969 12.011719 22.789062 12.011719 22.777344 12.007812 C 21.933594 11.921875 20.832031 12.335938 19.921875 12.972656 C 19.851562 12.871094 19.734375 12.796875 19.601562 12.796875 C 19.378906 12.796875 19.199219 12.976562 19.199219 13.199219 L 17.601562 13.199219 C 17.601562 12.976562 17.421875 12.796875 17.199219 12.796875 C 16.980469 12.796875 16.800781 12.976562 16.800781 13.199219 L 15.199219 13.199219 C 15.199219 12.976562 15.019531 12.796875 14.800781 12.796875 C 14.578125 12.796875 14.398438 12.976562 14.398438 13.199219 L 12.800781 13.199219 C 12.800781 12.976562 12.621094 12.796875 12.398438 12.796875 C 12.179688 12.796875 12 12.976562 12 13.199219 L 10.398438 13.199219 C 10.398438 12.976562 10.222656 12.796875 10 12.796875 C 9.777344 12.796875 9.601562 12.976562 9.601562 13.199219 L 8 13.199219 C 8 12.976562 7.820312 12.796875 7.601562 12.796875 C 7.378906 12.796875 7.199219 12.976562 7.199219 13.199219 L 5.601562 13.199219 C 5.601562 12.976562 5.421875 12.796875 5.199219 12.796875 C 4.980469 12.796875 4.800781 12.976562 4.800781 13.199219 L 4.371094 13.199219 C 3.664062 12.636719 2.785156 12.203125 1.988281 12.058594 C 1.992188 12.039062 2 12.019531 2 11.996094 C 2 11.777344 1.820312 11.597656 1.601562 11.597656 C 1.378906 11.597656 1.199219 11.777344 1.199219 11.996094 C 1.199219 12.003906 1.203125 12.007812 1.203125 12.011719 C 1.199219 12.011719 1.191406 12.011719 1.1875 12.011719 C 1.058594 12.027344 0.929688 12.066406 0.800781 12.125 Z M 3.035156 19.199219 L 2.886719 19.199219 L 3.128906 17.996094 L 4.234375 17.996094 Z M 20.964844 19.199219 L 19.765625 17.996094 L 20.871094 17.996094 L 21.113281 19.199219 Z M 21.027344 17.199219 L 2.972656 17.199219 C 1.828125 17.199219 0.875 16.308594 0.800781 15.199219 L 0.800781 15.027344 C 1.515625 15.433594 3.1875 16.003906 4.375 16.003906 C 4.800781 16.003906 5.164062 15.929688 5.394531 15.746094 C 5.4375 15.710938 5.488281 15.664062 5.539062 15.597656 L 18.464844 15.597656 C 18.511719 15.664062 18.5625 15.710938 18.605469 15.746094 C 18.835938 15.929688 19.199219 16.003906 19.628906 16.003906 C 20.8125 16.003906 22.488281 15.429688 23.203125 15.027344 L 23.203125 15.171875 C 23.125 16.308594 22.171875 17.199219 21.027344 17.199219 Z M 21.027344 17.199219"/>
    <path d="M6.800781 7.199219C6.800781 7.417969 6.621094 7.597656 6.398438 7.597656 6.179688 7.597656 6 7.417969 6 7.199219 6 6.976562 6.179688 6.796875 6.398438 6.796875 6.621094 6.796875 6.800781 6.976562 6.800781 7.199219zM9.199219 7.199219C9.199219 7.417969 9.019531 7.597656 8.800781 7.597656 8.578125 7.597656 8.398438 7.417969 8.398438 7.199219 8.398438 6.976562 8.578125 6.796875 8.800781 6.796875 9.019531 6.796875 9.199219 6.976562 9.199219 7.199219zM10.398438 5.996094C10.398438 6.21875 10.222656 6.398438 10 6.398438 9.777344 6.398438 9.601562 6.21875 9.601562 5.996094 9.601562 5.777344 9.777344 5.597656 10 5.597656 10.222656 5.597656 10.398438 5.777344 10.398438 5.996094zM12.800781 5.996094C12.800781 6.21875 12.621094 6.398438 12.398438 6.398438 12.179688 6.398438 12 6.21875 12 5.996094 12 5.777344 12.179688 5.597656 12.398438 5.597656 12.621094 5.597656 12.800781 5.777344 12.800781 5.996094zM11.601562 7.199219C11.601562 7.417969 11.421875 7.597656 11.199219 7.597656 10.980469 7.597656 10.800781 7.417969 10.800781 7.199219 10.800781 6.976562 10.980469 6.796875 11.199219 6.796875 11.421875 6.796875 11.601562 6.976562 11.601562 7.199219zM14 7.199219C14 7.417969 13.820312 7.597656 13.601562 7.597656 13.378906 7.597656 13.199219 7.417969 13.199219 7.199219 13.199219 6.976562 13.378906 6.796875 13.601562 6.796875 13.820312 6.796875 14 6.976562 14 7.199219zM15.199219 5.996094C15.199219 6.21875 15.019531 6.398438 14.800781 6.398438 14.578125 6.398438 14.398438 6.21875 14.398438 5.996094 14.398438 5.777344 14.578125 5.597656 14.800781 5.597656 15.019531 5.597656 15.199219 5.777344 15.199219 5.996094zM16.398438 7.199219C16.398438 7.417969 16.222656 7.597656 16 7.597656 15.777344 7.597656 15.601562 7.417969 15.601562 7.199219 15.601562 6.976562 15.777344 6.796875 16 6.796875 16.222656 6.796875 16.398438 6.976562 16.398438 7.199219zM18.800781 7.199219C18.800781 7.417969 18.621094 7.597656 18.398438 7.597656 18.179688 7.597656 18 7.417969 18 7.199219 18 6.976562 18.179688 6.796875 18.398438 6.796875 18.621094 6.796875 18.800781 6.976562 18.800781 7.199219zM3.199219 8.398438C3.199219 8.617188 3.019531 8.796875 2.800781 8.796875 2.578125 8.796875 2.398438 8.617188 2.398438 8.398438 2.398438 8.175781 2.578125 7.996094 2.800781 7.996094 3.019531 7.996094 3.199219 8.175781 3.199219 8.398438zM3.199219 10.796875C3.199219 11.019531 3.019531 11.199219 2.800781 11.199219 2.578125 11.199219 2.398438 11.019531 2.398438 10.796875 2.398438 10.578125 2.578125 10.398438 2.800781 10.398438 3.019531 10.398438 3.199219 10.578125 3.199219 10.796875zM2 9.597656C2 9.820312 1.820312 9.996094 1.601562 9.996094 1.378906 9.996094 1.199219 9.820312 1.199219 9.597656 1.199219 9.375 1.378906 9.199219 1.601562 9.199219 1.820312 9.199219 2 9.375 2 9.597656zM4.398438 9.597656C4.398438 9.820312 4.222656 9.996094 4 9.996094 3.777344 9.996094 3.601562 9.820312 3.601562 9.597656 3.601562 9.375 3.777344 9.199219 4 9.199219 4.222656 9.199219 4.398438 9.375 4.398438 9.597656zM4.398438 11.996094C4.398438 12.21875 4.222656 12.398438 4 12.398438 3.777344 12.398438 3.601562 12.21875 3.601562 11.996094 3.601562 11.777344 3.777344 11.597656 4 11.597656 4.222656 11.597656 4.398438 11.777344 4.398438 11.996094zM5.601562 8.398438C5.601562 8.617188 5.421875 8.796875 5.199219 8.796875 4.980469 8.796875 4.800781 8.617188 4.800781 8.398438 4.800781 8.175781 4.980469 7.996094 5.199219 7.996094 5.421875 7.996094 5.601562 8.175781 5.601562 8.398438zM8 8.398438C8 8.617188 7.820312 8.796875 7.601562 8.796875 7.378906 8.796875 7.199219 8.617188 7.199219 8.398438 7.199219 8.175781 7.378906 7.996094 7.601562 7.996094 7.820312 7.996094 8 8.175781 8 8.398438zM5.601562 10.796875C5.601562 11.019531 5.421875 11.199219 5.199219 11.199219 4.980469 11.199219 4.800781 11.019531 4.800781 10.796875 4.800781 10.578125 4.980469 10.398438 5.199219 10.398438 5.421875 10.398438 5.601562 10.578125 5.601562 10.796875zM8 10.796875C8 11.019531 7.820312 11.199219 7.601562 11.199219 7.378906 11.199219 7.199219 11.019531 7.199219 10.796875 7.199219 10.578125 7.378906 10.398438 7.601562 10.398438 7.820312 10.398438 8 10.578125 8 10.796875zM6.800781 9.597656C6.800781 9.820312 6.621094 9.996094 6.398438 9.996094 6.179688 9.996094 6 9.820312 6 9.597656 6 9.375 6.179688 9.199219 6.398438 9.199219 6.621094 9.199219 6.800781 9.375 6.800781 9.597656zM9.199219 9.597656C9.199219 9.820312 9.019531 9.996094 8.800781 9.996094 8.578125 9.996094 8.398438 9.820312 8.398438 9.597656 8.398438 9.375 8.578125 9.199219 8.800781 9.199219 9.019531 9.199219 9.199219 9.375 9.199219 9.597656zM6.800781 11.996094C6.800781 12.21875 6.621094 12.398438 6.398438 12.398438 6.179688 12.398438 6 12.21875 6 11.996094 6 11.777344 6.179688 11.597656 6.398438 11.597656 6.621094 11.597656 6.800781 11.777344 6.800781 11.996094zM9.199219 11.996094C9.199219 12.21875 9.019531 12.398438 8.800781 12.398438 8.578125 12.398438 8.398438 12.21875 8.398438 11.996094 8.398438 11.777344 8.578125 11.597656 8.800781 11.597656 9.019531 11.597656 9.199219 11.777344 9.199219 11.996094zM10.398438 8.398438C10.398438 8.617188 10.222656 8.796875 10 8.796875 9.777344 8.796875 9.601562 8.617188 9.601562 8.398438 9.601562 8.175781 9.777344 7.996094 10 7.996094 10.222656 7.996094 10.398438 8.175781 10.398438 8.398438zM12.800781 8.398438C12.800781 8.617188 12.621094 8.796875 12.398438 8.796875 12.179688 8.796875 12 8.617188 12 8.398438 12 8.175781 12.179688 7.996094 12.398438 7.996094 12.621094 7.996094 12.800781 8.175781 12.800781 8.398438zM10.398438 10.796875C10.398438 11.019531 10.222656 11.199219 10 11.199219 9.777344 11.199219 9.601562 11.019531 9.601562 10.796875 9.601562 10.578125 9.777344 10.398438 10 10.398438 10.222656 10.398438 10.398438 10.578125 10.398438 10.796875zM12.800781 10.796875C12.800781 11.019531 12.621094 11.199219 12.398438 11.199219 12.179688 11.199219 12 11.019531 12 10.796875 12 10.578125 12.179688 10.398438 12.398438 10.398438 12.621094 10.398438 12.800781 10.578125 12.800781 10.796875zM11.601562 9.597656C11.601562 9.820312 11.421875 9.996094 11.199219 9.996094 10.980469 9.996094 10.800781 9.820312 10.800781 9.597656 10.800781 9.375 10.980469 9.199219 11.199219 9.199219 11.421875 9.199219 11.601562 9.375 11.601562 9.597656zM14 9.597656C14 9.820312 13.820312 9.996094 13.601562 9.996094 13.378906 9.996094 13.199219 9.820312 13.199219 9.597656 13.199219 9.375 13.378906 9.199219 13.601562 9.199219 13.820312 9.199219 14 9.375 14 9.597656zM11.601562 11.996094C11.601562 12.21875 11.421875 12.398438 11.199219 12.398438 10.980469 12.398438 10.800781 12.21875 10.800781 11.996094 10.800781 11.777344 10.980469 11.597656 11.199219 11.597656 11.421875 11.597656 11.601562 11.777344 11.601562 11.996094zM14 11.996094C14 12.21875 13.820312 12.398438 13.601562 12.398438 13.378906 12.398438 13.199219 12.21875 13.199219 11.996094 13.199219 11.777344 13.378906 11.597656 13.601562 11.597656 13.820312 11.597656 14 11.777344 14 11.996094zM15.199219 8.398438C15.199219 8.617188 15.019531 8.796875 14.800781 8.796875 14.578125 8.796875 14.398438 8.617188 14.398438 8.398438 14.398438 8.175781 14.578125 7.996094 14.800781 7.996094 15.019531 7.996094 15.199219 8.175781 15.199219 8.398438zM17.601562 8.398438C17.601562 8.617188 17.421875 8.796875 17.199219 8.796875 16.980469 8.796875 16.800781 8.617188 16.800781 8.398438 16.800781 8.175781 16.980469 7.996094 17.199219 7.996094 17.421875 7.996094 17.601562 8.175781 17.601562 8.398438zM15.199219 10.796875C15.199219 11.019531 15.019531 11.199219 14.800781 11.199219 14.578125 11.199219 14.398438 11.019531 14.398438 10.796875 14.398438 10.578125 14.578125 10.398438 14.800781 10.398438 15.019531 10.398438 15.199219 10.578125 15.199219 10.796875zM17.601562 10.796875C17.601562 11.019531 17.421875 11.199219 17.199219 11.199219 16.980469 11.199219 16.800781 11.019531 16.800781 10.796875 16.800781 10.578125 16.980469 10.398438 17.199219 10.398438 17.421875 10.398438 17.601562 10.578125 17.601562 10.796875zM16.398438 9.597656C16.398438 9.820312 16.222656 9.996094 16 9.996094 15.777344 9.996094 15.601562 9.820312 15.601562 9.597656 15.601562 9.375 15.777344 9.199219 16 9.199219 16.222656 9.199219 16.398438 9.375 16.398438 9.597656zM18.800781 9.597656C18.800781 9.820312 18.621094 9.996094 18.398438 9.996094 18.179688 9.996094 18 9.820312 18 9.597656 18 9.375 18.179688 9.199219 18.398438 9.199219 18.621094 9.199219 18.800781 9.375 18.800781 9.597656zM16.398438 11.996094C16.398438 12.21875 16.222656 12.398438 16 12.398438 15.777344 12.398438 15.601562 12.21875 15.601562 11.996094 15.601562 11.777344 15.777344 11.597656 16 11.597656 16.222656 11.597656 16.398438 11.777344 16.398438 11.996094zM18.800781 11.996094C18.800781 12.21875 18.621094 12.398438 18.398438 12.398438 18.179688 12.398438 18 12.21875 18 11.996094 18 11.777344 18.179688 11.597656 18.398438 11.597656 18.621094 11.597656 18.800781 11.777344 18.800781 11.996094zM20 8.398438C20 8.617188 19.820312 8.796875 19.601562 8.796875 19.378906 8.796875 19.199219 8.617188 19.199219 8.398438 19.199219 8.175781 19.378906 7.996094 19.601562 7.996094 19.820312 7.996094 20 8.175781 20 8.398438zM20 10.796875C20 11.019531 19.820312 11.199219 19.601562 11.199219 19.378906 11.199219 19.199219 11.019531 19.199219 10.796875 19.199219 10.578125 19.378906 10.398438 19.601562 10.398438 19.820312 10.398438 20 10.578125 20 10.796875zM22.398438 10.796875C22.398438 11.019531 22.222656 11.199219 22 11.199219 21.777344 11.199219 21.601562 11.019531 21.601562 10.796875 21.601562 10.578125 21.777344 10.398438 22 10.398438 22.222656 10.398438 22.398438 10.578125 22.398438 10.796875zM21.199219 9.597656C21.199219 9.820312 21.019531 9.996094 20.800781 9.996094 20.578125 9.996094 20.398438 9.820312 20.398438 9.597656 20.398438 9.375 20.578125 9.199219 20.800781 9.199219 21.019531 9.199219 21.199219 9.375 21.199219 9.597656zM21.199219 11.996094C21.199219 12.21875 21.019531 12.398438 20.800781 12.398438 20.578125 12.398438 20.398438 12.21875 20.398438 11.996094 20.398438 11.777344 20.578125 11.597656 20.800781 11.597656 21.019531 11.597656 21.199219 11.777344 21.199219 11.996094zM21.199219 11.996094"/>
</svg>
