<svg xmlns="http://www.w3.org/2000/svg" width="32" height="32" viewBox="0 0 24 24">
    <path d="M10.398 7.8a.398.398 0 1 1-.796 0 .398.398 0 1 1 .796 0zm0 0M11.2 9c0 .223-.18.398-.4.398a.398.398 0 1 1 0-.796c.22 0 .4.175.4.398zm0 0M12.8 9c0 .223-.179.398-.402.398a.398.398 0 1 1 0-.796c.223 0 .403.175.403.398zm0 0M12 7.8a.4.4 0 1 1-.8-.003.4.4 0 0 1 .8.004zm0 0M13.602 7.8a.401.401 0 1 1-.802-.004.401.401 0 0 1 .802.005zm0 0"/>
    <path d="M23.023 8.273a.337.337 0 0 0-.062-.039l-2.563-1.14V4.973c0-.645-.523-1.172-1.171-1.172H4.773c-.648 0-1.171.527-1.171 1.172v2.12L1.039 8.235c-.02.008-.039.024-.055.036C.414 8.45 0 8.973 0 9.602v4.308a4.295 4.295 0 0 0 3.914 4.27l-.305 1.543a.394.394 0 0 0 .391.476h.8a.4.4 0 0 0 .282-.117l1.883-1.883h10.87l1.884 1.883a.4.4 0 0 0 .281.117h.8c.122 0 .231-.054.31-.144a.407.407 0 0 0 .081-.332l-.336-1.684A4.295 4.295 0 0 0 24 13.91V9.602c0-.625-.414-1.149-.977-1.329zm-18.73 7.125a1.491 1.491 0 0 1-1.492-1.488v-.055c.062-.062.12-.128.191-.187.004-.004.004-.008.008-.008.098-.082.2-.156.309-.223l.058-.035c.227-.136.469-.238.727-.308.004 0 .011 0 .015-.004a3.16 3.16 0 0 1 .325-.063c.007 0 .02-.004.03-.004A2.47 2.47 0 0 1 4.802 13h5.898c.496 0 .903.402.903.898v1.5zm8.105-1.5c0-.496.407-.898.903-.898h5.898c.11 0 .223.008.336.023.012 0 .024.004.031.004a3.16 3.16 0 0 1 .34.067c.258.07.5.172.727.308.02.012.039.024.062.036.106.066.207.14.301.218a4.069 4.069 0 0 1 .203.2v.054c0 .82-.668 1.488-1.492 1.488h-7.309zm8-5.925l1.286.57c-.012.008-.02.023-.032.031-.039.04-.078.082-.113.121-.023.032-.05.059-.074.09a1.872 1.872 0 0 0-.09.149c-.016.035-.035.062-.05.097a.96.96 0 0 0-.063.188.316.316 0 0 0-.028.086 1.236 1.236 0 0 0-.035.297v3.207a.632.632 0 0 1-.07-.04 5.397 5.397 0 0 0-.254-.148c-.035-.016-.066-.035-.105-.055a3.287 3.287 0 0 0-.372-.156zm-16-3c0-.203.168-.371.375-.371h14.454c.207 0 .375.168.375.37v7.25a3.424 3.424 0 0 0-.403-.023h-5.898c-.125 0-.246.016-.364.043-.039.008-.074.024-.109.035-.078.02-.152.043-.223.075a1.2 1.2 0 0 0-.12.066c-.063.035-.126.07-.18.11-.04.03-.075.062-.11.093-.05.043-.101.09-.148.14-.016.016-.035.028-.047.044-.016-.016-.035-.028-.047-.043a1.669 1.669 0 0 0-.148-.14c-.035-.032-.07-.063-.11-.095a2.748 2.748 0 0 0-.18-.109c-.042-.023-.078-.047-.12-.066a1.489 1.489 0 0 0-.223-.075c-.04-.011-.074-.027-.113-.035a1.56 1.56 0 0 0-.36-.043H4.801c-.137 0-.27.008-.403.024zm-.796 3v4.437a3.512 3.512 0 0 0-.375.156l-.102.055c-.086.047-.172.098-.258.149-.023.015-.047.027-.066.039V9.602c0-.102-.012-.2-.035-.297-.004-.032-.02-.063-.028-.094-.02-.059-.035-.121-.062-.18-.016-.035-.035-.066-.055-.097a1.838 1.838 0 0 0-.086-.149c-.023-.031-.05-.058-.074-.09a1.076 1.076 0 0 0-.113-.117c-.012-.012-.02-.027-.032-.035zm1.03 11.425h-.144l.239-1.199h1.109zM20.07 18.2l.242 1.2h-.148l-1.2-1.2zm3.13-4.289a3.493 3.493 0 0 1-3.493 3.488H4.293A3.495 3.495 0 0 1 .801 13.91V9.602C.8 9.27 1.07 9 1.398 9 1.73 9 2 9.27 2 9.602v4.308a2.293 2.293 0 0 0 2.293 2.29h15.414A2.293 2.293 0 0 0 22 13.91V9.602a.601.601 0 0 1 1.2 0zm0 0"/>
</svg>
