<svg xmlns="http://www.w3.org/2000/svg" width="32" height="32" viewBox="0 0 24 24">
    <path d="M22 8.438V6.43a1.63 1.63 0 0 0-1.629-1.63H3.63A1.63 1.63 0 0 0 2 6.43v2.008A2.401 2.401 0 0 0 0 10.8c0 1.187.867 2.176 2 2.367v6.031h2.8v-.8h14.4v.8H22v-6.031c1.133-.191 2-1.18 2-2.367a2.401 2.401 0 0 0-2-2.364zM2.8 6.43c0-.457.372-.828.829-.828H20.37c.457 0 .828.37.828.828v2.004c-.008 0-.015.004-.023.007a1.87 1.87 0 0 0-.36.094c-.02.004-.039.012-.058.02a2.141 2.141 0 0 0-.332.156l-.043.023c-.11.067-.215.137-.313.22l-.004.003a2.926 2.926 0 0 0-.3.297 2.268 2.268 0 0 0-.211.297c-.012.02-.024.035-.032.054-.062.102-.113.211-.156.325l-.023.058a2.89 2.89 0 0 0-.102.36c0 .015-.004.035-.004.05-.023.13-.039.266-.039.403V12H4.801v-1.2c0-.136-.016-.273-.04-.402l-.003-.05a2.345 2.345 0 0 0-.125-.418 2.101 2.101 0 0 0-.156-.328c-.008-.016-.02-.032-.032-.051a2.268 2.268 0 0 0-.511-.594c0-.004-.004-.004-.004-.004a2.488 2.488 0 0 0-.313-.219l-.043-.023a1.985 1.985 0 0 0-.332-.156c-.02-.008-.039-.016-.058-.02a1.87 1.87 0 0 0-.36-.094c-.008-.004-.015-.007-.023-.007zM19.2 14H4.8v-1.2h14.4zM2.8 18.398v-7.597a.401.401 0 0 0-.8 0v1.543A1.6 1.6 0 0 1 .8 10.8c0-.883.72-1.602 1.598-1.602C3.281 9.2 4 9.918 4 10.801v7.597zm2-.796V14.8h14.4v2.8zM22 12.344V10.8a.401.401 0 1 0-.8 0v7.597H20v-7.597c0-.883.719-1.602 1.602-1.602.878 0 1.597.719 1.597 1.602A1.6 1.6 0 0 1 22 12.344zm0 0"/>
    <path d="M14.516 10.281a.405.405 0 0 0 .285.117c.101 0 .203-.039.281-.117l.367-.367c.176.086.364.133.551.133.188 0 .375-.047.55-.133l.368.367c.078.078.18.117.281.117.102 0 .207-.039.285-.117a.396.396 0 0 0 0-.562l-.37-.371c.171-.344.171-.75 0-1.098l.37-.367a.4.4 0 0 0-.566-.567l-.367.372a1.241 1.241 0 0 0-1.102 0l-.367-.372a.4.4 0 0 0-.566.567l.37.367a1.241 1.241 0 0 0 0 1.102l-.37.367a.396.396 0 0 0 0 .562zm1.8-1.797a.446.446 0 0 1 0 .633.446.446 0 0 1-.632 0 .446.446 0 0 1 0-.633.437.437 0 0 1 .316-.132c.113 0 .23.043.316.132zm0 0M6.516 10.281a.405.405 0 0 0 .285.117c.101 0 .203-.039.281-.117l.367-.367c.176.086.364.133.551.133.188 0 .375-.047.55-.133l.368.367c.078.078.18.117.281.117.102 0 .207-.039.285-.117a.396.396 0 0 0 0-.562l-.37-.371c.171-.344.171-.75 0-1.098l.37-.367a.4.4 0 0 0-.566-.567l-.367.372a1.241 1.241 0 0 0-1.102 0l-.367-.372a.4.4 0 0 0-.566.567l.37.367a1.241 1.241 0 0 0 0 1.102l-.37.367a.396.396 0 0 0 0 .562zm1.8-1.797a.446.446 0 0 1 0 .633.446.446 0 0 1-.632 0 .446.446 0 0 1 0-.633A.437.437 0 0 1 8 8.352c.113 0 .23.043.316.132zm0 0"/>
</svg>
