<svg xmlns="http://www.w3.org/2000/svg" width="32" height="32" viewBox="0 0 24 24">
    <path d="M 24 10.398438 C 24 9.808594 23.675781 9.300781 23.199219 9.023438 L 23.199219 6.683594 C 23.199219 5.425781 22.175781 4.398438 20.914062 4.398438 L 3.085938 4.398438 C 1.824219 4.398438 0.800781 5.425781 0.800781 6.683594 L 0.800781 9.023438 C 0.324219 9.300781 0 9.808594 0 10.398438 L 0 18.398438 L 0.398438 18.398438 L 0.398438 19.601562 L 2.800781 19.601562 L 2.800781 18.398438 L 21.199219 18.398438 L 21.199219 19.601562 L 23.601562 19.601562 L 23.601562 18.398438 L 24 18.398438 Z M 3.199219 13.199219 L 3.199219 12 L 20.800781 12 L 20.800781 13.199219 Z M 21.601562 14 L 21.601562 10.398438 C 21.601562 9.957031 21.957031 9.601562 22.398438 9.601562 C 22.445312 9.601562 22.488281 9.605469 22.53125 9.613281 C 22.574219 9.621094 22.621094 9.632812 22.667969 9.652344 L 22.730469 9.671875 C 23.007812 9.796875 23.199219 10.078125 23.199219 10.398438 L 23.199219 17.601562 L 21.601562 17.601562 Z M 1.601562 6.683594 C 1.601562 5.867188 2.265625 5.199219 3.085938 5.199219 L 20.914062 5.199219 C 21.734375 5.199219 22.398438 5.867188 22.398438 6.683594 L 22.398438 8.800781 C 21.519531 8.800781 20.800781 9.519531 20.800781 10.398438 L 20.800781 11.199219 L 3.199219 11.199219 L 3.199219 10.398438 C 3.199219 9.519531 2.480469 8.800781 1.601562 8.800781 Z M 0.800781 10.398438 C 0.800781 10.078125 0.992188 9.796875 1.269531 9.671875 L 1.332031 9.652344 C 1.378906 9.632812 1.425781 9.621094 1.46875 9.613281 C 1.511719 9.605469 1.554688 9.601562 1.601562 9.601562 C 2.042969 9.601562 2.398438 9.957031 2.398438 10.398438 L 2.398438 17.601562 L 0.800781 17.601562 Z M 2 18.800781 L 1.199219 18.800781 L 1.199219 18.398438 L 2 18.398438 Z M 18.800781 17.601562 C 18.800781 17.378906 18.621094 17.199219 18.398438 17.199219 C 18.179688 17.199219 18 17.378906 18 17.601562 L 16.398438 17.601562 C 16.398438 17.378906 16.222656 17.199219 16 17.199219 C 15.777344 17.199219 15.601562 17.378906 15.601562 17.601562 L 14 17.601562 C 14 17.378906 13.820312 17.199219 13.601562 17.199219 C 13.378906 17.199219 13.199219 17.378906 13.199219 17.601562 L 11.601562 17.601562 C 11.601562 17.378906 11.421875 17.199219 11.199219 17.199219 C 10.980469 17.199219 10.800781 17.378906 10.800781 17.601562 L 9.199219 17.601562 C 9.199219 17.378906 9.019531 17.199219 8.800781 17.199219 C 8.578125 17.199219 8.398438 17.378906 8.398438 17.601562 L 6.800781 17.601562 C 6.800781 17.378906 6.621094 17.199219 6.398438 17.199219 C 6.179688 17.199219 6 17.378906 6 17.601562 L 4.398438 17.601562 C 4.398438 17.378906 4.222656 17.199219 4 17.199219 C 3.777344 17.199219 3.601562 17.378906 3.601562 17.601562 L 3.199219 17.601562 L 3.199219 14 L 4.800781 14 C 4.800781 14.222656 4.980469 14.398438 5.199219 14.398438 C 5.421875 14.398438 5.601562 14.222656 5.601562 14 L 7.199219 14 C 7.199219 14.222656 7.378906 14.398438 7.601562 14.398438 C 7.820312 14.398438 8 14.222656 8 14 L 9.601562 14 C 9.601562 14.222656 9.777344 14.398438 10 14.398438 C 10.222656 14.398438 10.398438 14.222656 10.398438 14 L 12 14 C 12 14.222656 12.179688 14.398438 12.398438 14.398438 C 12.621094 14.398438 12.800781 14.222656 12.800781 14 L 14.398438 14 C 14.398438 14.222656 14.578125 14.398438 14.800781 14.398438 C 15.019531 14.398438 15.199219 14.222656 15.199219 14 L 16.800781 14 C 16.800781 14.222656 16.980469 14.398438 17.199219 14.398438 C 17.421875 14.398438 17.601562 14.222656 17.601562 14 L 19.199219 14 C 19.199219 14.222656 19.378906 14.398438 19.601562 14.398438 C 19.820312 14.398438 20 14.222656 20 14 L 20.800781 14 L 20.800781 14.800781 C 20.578125 14.800781 20.398438 14.980469 20.398438 15.199219 C 20.398438 15.421875 20.578125 15.601562 20.800781 15.601562 L 20.800781 17.199219 C 20.578125 17.199219 20.398438 17.378906 20.398438 17.601562 Z M 22.800781 18.800781 L 22 18.800781 L 22 18.398438 L 22.800781 18.398438 Z M 22.800781 18.800781"/>
    <path d="M4.398438 15.199219C4.398438 15.421875 4.222656 15.601562 4 15.601562 3.777344 15.601562 3.601562 15.421875 3.601562 15.199219 3.601562 14.980469 3.777344 14.800781 4 14.800781 4.222656 14.800781 4.398438 14.980469 4.398438 15.199219zM5.601562 16.398438C5.601562 16.621094 5.421875 16.800781 5.199219 16.800781 4.980469 16.800781 4.800781 16.621094 4.800781 16.398438 4.800781 16.179688 4.980469 16 5.199219 16 5.421875 16 5.601562 16.179688 5.601562 16.398438zM8 16.398438C8 16.621094 7.820312 16.800781 7.601562 16.800781 7.378906 16.800781 7.199219 16.621094 7.199219 16.398438 7.199219 16.179688 7.378906 16 7.601562 16 7.820312 16 8 16.179688 8 16.398438zM6.800781 15.199219C6.800781 15.421875 6.621094 15.601562 6.398438 15.601562 6.179688 15.601562 6 15.421875 6 15.199219 6 14.980469 6.179688 14.800781 6.398438 14.800781 6.621094 14.800781 6.800781 14.980469 6.800781 15.199219zM9.199219 15.199219C9.199219 15.421875 9.019531 15.601562 8.800781 15.601562 8.578125 15.601562 8.398438 15.421875 8.398438 15.199219 8.398438 14.980469 8.578125 14.800781 8.800781 14.800781 9.019531 14.800781 9.199219 14.980469 9.199219 15.199219zM10.398438 16.398438C10.398438 16.621094 10.222656 16.800781 10 16.800781 9.777344 16.800781 9.601562 16.621094 9.601562 16.398438 9.601562 16.179688 9.777344 16 10 16 10.222656 16 10.398438 16.179688 10.398438 16.398438zM12.800781 16.398438C12.800781 16.621094 12.621094 16.800781 12.398438 16.800781 12.179688 16.800781 12 16.621094 12 16.398438 12 16.179688 12.179688 16 12.398438 16 12.621094 16 12.800781 16.179688 12.800781 16.398438zM11.601562 15.199219C11.601562 15.421875 11.421875 15.601562 11.199219 15.601562 10.980469 15.601562 10.800781 15.421875 10.800781 15.199219 10.800781 14.980469 10.980469 14.800781 11.199219 14.800781 11.421875 14.800781 11.601562 14.980469 11.601562 15.199219zM14 15.199219C14 15.421875 13.820312 15.601562 13.601562 15.601562 13.378906 15.601562 13.199219 15.421875 13.199219 15.199219 13.199219 14.980469 13.378906 14.800781 13.601562 14.800781 13.820312 14.800781 14 14.980469 14 15.199219zM15.199219 16.398438C15.199219 16.621094 15.019531 16.800781 14.800781 16.800781 14.578125 16.800781 14.398438 16.621094 14.398438 16.398438 14.398438 16.179688 14.578125 16 14.800781 16 15.019531 16 15.199219 16.179688 15.199219 16.398438zM17.601562 16.398438C17.601562 16.621094 17.421875 16.800781 17.199219 16.800781 16.980469 16.800781 16.800781 16.621094 16.800781 16.398438 16.800781 16.179688 16.980469 16 17.199219 16 17.421875 16 17.601562 16.179688 17.601562 16.398438zM16.398438 15.199219C16.398438 15.421875 16.222656 15.601562 16 15.601562 15.777344 15.601562 15.601562 15.421875 15.601562 15.199219 15.601562 14.980469 15.777344 14.800781 16 14.800781 16.222656 14.800781 16.398438 14.980469 16.398438 15.199219zM18.800781 15.199219C18.800781 15.421875 18.621094 15.601562 18.398438 15.601562 18.179688 15.601562 18 15.421875 18 15.199219 18 14.980469 18.179688 14.800781 18.398438 14.800781 18.621094 14.800781 18.800781 14.980469 18.800781 15.199219zM20 16.398438C20 16.621094 19.820312 16.800781 19.601562 16.800781 19.378906 16.800781 19.199219 16.621094 19.199219 16.398438 19.199219 16.179688 19.378906 16 19.601562 16 19.820312 16 20 16.179688 20 16.398438zM5.199219 7.601562C5.199219 7.820312 5.019531 8 4.800781 8 4.578125 8 4.398438 7.820312 4.398438 7.601562 4.398438 7.378906 4.578125 7.199219 4.800781 7.199219 5.019531 7.199219 5.199219 7.378906 5.199219 7.601562zM7.601562 7.601562C7.601562 7.820312 7.421875 8 7.199219 8 6.980469 8 6.800781 7.820312 6.800781 7.601562 6.800781 7.378906 6.980469 7.199219 7.199219 7.199219 7.421875 7.199219 7.601562 7.378906 7.601562 7.601562zM10 7.601562C10 7.820312 9.820312 8 9.601562 8 9.378906 8 9.199219 7.820312 9.199219 7.601562 9.199219 7.378906 9.378906 7.199219 9.601562 7.199219 9.820312 7.199219 10 7.378906 10 7.601562zM12.398438 7.601562C12.398438 7.820312 12.222656 8 12 8 11.777344 8 11.601562 7.820312 11.601562 7.601562 11.601562 7.378906 11.777344 7.199219 12 7.199219 12.222656 7.199219 12.398438 7.378906 12.398438 7.601562zM14.800781 7.601562C14.800781 7.820312 14.621094 8 14.398438 8 14.179688 8 14 7.820312 14 7.601562 14 7.378906 14.179688 7.199219 14.398438 7.199219 14.621094 7.199219 14.800781 7.378906 14.800781 7.601562zM17.199219 7.601562C17.199219 7.820312 17.019531 8 16.800781 8 16.578125 8 16.398438 7.820312 16.398438 7.601562 16.398438 7.378906 16.578125 7.199219 16.800781 7.199219 17.019531 7.199219 17.199219 7.378906 17.199219 7.601562zM19.601562 7.601562C19.601562 7.820312 19.421875 8 19.199219 8 18.980469 8 18.800781 7.820312 18.800781 7.601562 18.800781 7.378906 18.980469 7.199219 19.199219 7.199219 19.421875 7.199219 19.601562 7.378906 19.601562 7.601562zM6.398438 9.199219C6.398438 9.421875 6.222656 9.601562 6 9.601562 5.777344 9.601562 5.601562 9.421875 5.601562 9.199219 5.601562 8.980469 5.777344 8.800781 6 8.800781 6.222656 8.800781 6.398438 8.980469 6.398438 9.199219zM8.800781 9.199219C8.800781 9.421875 8.621094 9.601562 8.398438 9.601562 8.179688 9.601562 8 9.421875 8 9.199219 8 8.980469 8.179688 8.800781 8.398438 8.800781 8.621094 8.800781 8.800781 8.980469 8.800781 9.199219zM11.199219 9.199219C11.199219 9.421875 11.019531 9.601562 10.800781 9.601562 10.578125 9.601562 10.398438 9.421875 10.398438 9.199219 10.398438 8.980469 10.578125 8.800781 10.800781 8.800781 11.019531 8.800781 11.199219 8.980469 11.199219 9.199219zM13.601562 9.199219C13.601562 9.421875 13.421875 9.601562 13.199219 9.601562 12.980469 9.601562 12.800781 9.421875 12.800781 9.199219 12.800781 8.980469 12.980469 8.800781 13.199219 8.800781 13.421875 8.800781 13.601562 8.980469 13.601562 9.199219zM16 9.199219C16 9.421875 15.820312 9.601562 15.601562 9.601562 15.378906 9.601562 15.199219 9.421875 15.199219 9.199219 15.199219 8.980469 15.378906 8.800781 15.601562 8.800781 15.820312 8.800781 16 8.980469 16 9.199219zM18.398438 9.199219C18.398438 9.421875 18.222656 9.601562 18 9.601562 17.777344 9.601562 17.601562 9.421875 17.601562 9.199219 17.601562 8.980469 17.777344 8.800781 18 8.800781 18.222656 8.800781 18.398438 8.980469 18.398438 9.199219zM18.398438 9.199219"/>
</svg>
