<svg xmlns="http://www.w3.org/2000/svg" width="32" height="32" viewBox="0 0 24 24">
    <path d="M 23.597656 14.769531 L 23.597656 8.367188 C 23.820312 8.367188 24 8.191406 24 7.96875 C 24 7.746094 23.820312 7.570312 23.597656 7.570312 L 23.199219 7.570312 L 23.199219 3.96875 L 20 3.96875 L 20 4.367188 L 18.121094 4.367188 L 16.921875 7.570312 L 5.558594 7.570312 C 5.402344 6.792969 4.792969 6.183594 4.019531 6.015625 C 4.160156 4.742188 5.035156 3.679688 6.265625 3.308594 L 6.851562 4.667969 L 9.101562 2.421875 L 6.328125 1.230469 L 5.664062 1.898438 L 5.949219 2.566406 C 4.425781 3.0625 3.355469 4.40625 3.214844 6.007812 C 2.425781 6.160156 1.800781 6.78125 1.640625 7.570312 L 0.398438 7.570312 C 0.179688 7.570312 0 7.746094 0 7.96875 C 0 8.191406 0.179688 8.367188 0.398438 8.367188 L 0.398438 14.769531 L 1.328125 14.769531 L 0.0078125 22.300781 C -0.015625 22.414062 0.0195312 22.535156 0.09375 22.625 C 0.167969 22.714844 0.28125 22.769531 0.402344 22.769531 L 1.40625 22.769531 C 1.589844 22.769531 1.75 22.644531 1.792969 22.464844 L 3.71875 14.769531 L 7.601562 14.769531 L 7.601562 12.769531 L 16.398438 12.769531 L 16.398438 14.769531 L 20.28125 14.769531 L 22.207031 22.464844 C 22.25 22.644531 22.410156 22.769531 22.59375 22.769531 L 23.597656 22.769531 C 23.71875 22.769531 23.828125 22.714844 23.90625 22.625 C 23.980469 22.535156 24.015625 22.414062 23.992188 22.300781 L 22.671875 14.769531 Z M 7.699219 2.6875 L 7.121094 3.269531 L 6.6875 2.253906 Z M 17.199219 9.167969 L 17.199219 8.367188 L 22.800781 8.367188 L 22.800781 10.769531 L 17.199219 10.769531 Z M 22 4.769531 L 22.398438 4.769531 L 22.398438 7.570312 L 22 7.570312 Z M 20.800781 4.769531 L 21.199219 4.769531 L 21.199219 7.570312 L 20.800781 7.570312 Z M 20 7.570312 L 18.976562 7.570312 L 20 4.839844 Z M 18.675781 5.167969 L 19.023438 5.167969 L 18.121094 7.570312 L 17.777344 7.570312 Z M 16.398438 8.367188 L 16.398438 9.167969 L 7.601562 9.167969 L 7.601562 8.367188 Z M 3.601562 6.769531 C 4.121094 6.769531 4.566406 7.101562 4.730469 7.570312 L 2.46875 7.570312 C 2.632812 7.101562 3.078125 6.769531 3.601562 6.769531 Z M 1.199219 8.367188 L 6.800781 8.367188 L 6.800781 10.769531 L 1.199219 10.769531 Z M 1.09375 21.96875 L 0.875 21.96875 L 2.140625 14.769531 L 2.894531 14.769531 Z M 6.800781 13.96875 L 1.199219 13.96875 L 1.199219 11.570312 L 6.800781 11.570312 Z M 7.601562 11.96875 L 7.601562 9.96875 L 16.398438 9.96875 L 16.398438 11.96875 Z M 17.199219 12.769531 L 17.199219 11.570312 L 22.800781 11.570312 L 22.800781 13.96875 L 17.199219 13.96875 Z M 23.125 21.96875 L 22.90625 21.96875 L 21.105469 14.769531 L 21.859375 14.769531 Z M 23.125 21.96875"/>
    <path d="M4.800781 9.167969L3.199219 9.167969C2.980469 9.167969 2.800781 9.347656 2.800781 9.570312 2.800781 9.789062 2.980469 9.96875 3.199219 9.96875L4.800781 9.96875C5.019531 9.96875 5.199219 9.789062 5.199219 9.570312 5.199219 9.347656 5.019531 9.167969 4.800781 9.167969zM4.800781 12.367188L3.199219 12.367188C2.980469 12.367188 2.800781 12.546875 2.800781 12.769531 2.800781 12.988281 2.980469 13.167969 3.199219 13.167969L4.800781 13.167969C5.019531 13.167969 5.199219 12.988281 5.199219 12.769531 5.199219 12.546875 5.019531 12.367188 4.800781 12.367188zM20.800781 9.167969L19.199219 9.167969C18.976562 9.167969 18.800781 9.347656 18.800781 9.570312 18.800781 9.789062 18.976562 9.96875 19.199219 9.96875L20.800781 9.96875C21.019531 9.96875 21.199219 9.789062 21.199219 9.570312 21.199219 9.347656 21.019531 9.167969 20.800781 9.167969zM21.199219 12.769531C21.199219 12.546875 21.019531 12.367188 20.800781 12.367188L19.199219 12.367188C18.976562 12.367188 18.800781 12.546875 18.800781 12.769531 18.800781 12.988281 18.976562 13.167969 19.199219 13.167969L20.800781 13.167969C21.019531 13.167969 21.199219 12.988281 21.199219 12.769531zM21.199219 12.769531"/>
</svg>
