<svg xmlns="http://www.w3.org/2000/svg" width="32" height="32" viewBox="0 0 24 24">
    <path d="M20 21.8V.603c0-.008-.004-.016-.004-.02 0-.02-.004-.039-.008-.059a.325.325 0 0 0-.015-.058c0-.008 0-.012-.004-.02-.004-.011-.012-.02-.02-.03a.221.221 0 0 0-.031-.052c-.012-.015-.023-.031-.04-.043-.01-.015-.026-.027-.042-.039-.016-.011-.031-.023-.05-.031-.013-.008-.02-.016-.032-.02-.008-.003-.012-.003-.02-.003A.288.288 0 0 0 19.68.21c-.024-.004-.043-.008-.063-.008-.004 0-.012-.004-.015-.004H4.398c-.003 0-.011.004-.015.004a.342.342 0 0 0-.117.024c-.008 0-.012 0-.02.003-.012.004-.02.012-.031.02-.02.008-.035.02-.05.031-.017.012-.032.024-.044.04-.016.011-.027.027-.039.042a.221.221 0 0 0-.031.051c-.008.012-.016.02-.02.031-.004.008-.004.016-.004.02a.325.325 0 0 0-.015.058.301.301 0 0 0-.008.059c0 .004-.004.012-.004.02V21.8H0v2h24v-2zM18.633 1l-.399.398H5.766L5.367 1zM.8 22.602H4V23H.8zM5.199 23h-.398V1.566l.398.399zM6 2.2h12V23H6zM19.2 23h-.4V1.965l.4-.399zm4 0H20v-.398h3.2zm0 0"/>
    <path d="M16.8 3.398H7.2v4h9.6zM16 6.602H8V4.199h8zm0 0M7.2 21.8h9.6v-4H7.2zm.8-3.198h8V21H8zm0 0M14.8 13H7.2v4h9.6v-3.602h-2zm1.2 1.2v2H8v-2.4h6v.4zm0 0M14.8 11.8h2V8.2H7.2v4h7.6zm-.8-.402H8V9h8v2h-2zm0 0M17.2 12.2h-1.598a.401.401 0 0 0 0 .8h1.597a.401.401 0 1 0 0-.8zm0 0"/>
</svg>
