<svg xmlns="http://www.w3.org/2000/svg" width="32" height="32" viewBox="0 0 24 24">
    <path d="M 22 18.398438 L 22 7.601562 L 24 7.601562 L 24 4.800781 L 21.601562 4.800781 L 21.601562 0.800781 L 20 0.800781 L 20 0 L 17.601562 0 L 17.601562 1.199219 L 16.464844 1.199219 C 16.289062 1.199219 16.128906 1.285156 16.03125 1.429688 L 13.792969 4.792969 C 13.789062 4.792969 13.789062 4.796875 13.789062 4.800781 L 12 4.800781 L 12 4.433594 C 12.132812 4.261719 12.847656 4 13.199219 4 L 13.199219 3.199219 L 7.601562 3.199219 L 7.601562 4 C 7.953125 4 8.667969 4.261719 8.800781 4.4375 L 8.800781 4.800781 L 5.199219 4.800781 L 5.199219 4.4375 C 5.332031 4.261719 6.046875 4 6.398438 4 L 6.398438 3.199219 L 0.800781 3.199219 L 0.800781 4 C 1.152344 4 1.867188 4.261719 2 4.4375 L 2 4.800781 L 0 4.800781 L 0 7.601562 L 2 7.601562 L 2 21.601562 L 0 21.601562 L 0 24 L 23.601562 24 L 23.601562 21.601562 L 22 21.601562 Z M 21.199219 18.398438 L 19.601562 18.398438 L 19.601562 17.601562 L 21.199219 17.601562 Z M 19.601562 19.199219 L 21.199219 19.199219 L 21.199219 20 L 19.601562 20 Z M 19.601562 16 L 21.199219 16 L 21.199219 16.800781 L 19.601562 16.800781 Z M 21.199219 15.199219 L 19.601562 15.199219 L 19.601562 14.398438 L 21.199219 14.398438 Z M 19.601562 12.800781 L 21.199219 12.800781 L 21.199219 13.601562 L 19.601562 13.601562 Z M 20.800781 1.601562 L 20.800781 4.800781 L 20 4.800781 L 20 1.601562 Z M 18.398438 0.800781 L 19.199219 0.800781 L 19.199219 4.800781 L 18.398438 4.800781 Z M 17.601562 4.800781 L 16.347656 4.800781 L 17.601562 2.921875 Z M 16.613281 2 L 17.253906 2 L 15.386719 4.800781 L 14.746094 4.800781 Z M 9.46875 4 L 11.332031 4 C 11.25 4.121094 11.199219 4.253906 11.199219 4.398438 L 11.199219 4.800781 L 9.601562 4.800781 L 9.601562 4.398438 C 9.601562 4.253906 9.550781 4.121094 9.46875 4 Z M 2.667969 4 L 4.53125 4 C 4.449219 4.121094 4.398438 4.253906 4.398438 4.398438 L 4.398438 4.800781 L 2.800781 4.800781 L 2.800781 4.398438 C 2.800781 4.253906 2.75 4.121094 2.667969 4 Z M 2.800781 7.601562 L 4.800781 7.601562 C 5.019531 7.601562 5.199219 7.421875 5.199219 7.199219 C 5.199219 6.980469 5.019531 6.800781 4.800781 6.800781 L 0.800781 6.800781 L 0.800781 5.601562 L 23.199219 5.601562 L 23.199219 6.800781 L 19.199219 6.800781 C 18.980469 6.800781 18.800781 6.980469 18.800781 7.199219 C 18.800781 7.421875 18.980469 7.601562 19.199219 7.601562 L 21.199219 7.601562 L 21.199219 12 L 19.601562 12 L 19.601562 10.800781 L 4.398438 10.800781 L 4.398438 12 L 2.800781 12 Z M 4.398438 13.601562 L 2.800781 13.601562 L 2.800781 12.800781 L 4.398438 12.800781 Z M 2.800781 14.398438 L 4.398438 14.398438 L 4.398438 15.199219 L 2.800781 15.199219 Z M 4.398438 16.800781 L 2.800781 16.800781 L 2.800781 16 L 4.398438 16 Z M 2.800781 17.601562 L 4.398438 17.601562 L 4.398438 18.398438 L 2.800781 18.398438 Z M 4.398438 20 L 2.800781 20 L 2.800781 19.199219 L 4.398438 19.199219 Z M 2.800781 20.800781 L 4.398438 20.800781 L 4.398438 21.601562 L 2.800781 21.601562 Z M 5.601562 23.199219 L 0.800781 23.199219 L 0.800781 22.398438 L 5.601562 22.398438 Z M 9.597656 22.03125 C 8.820312 21.140625 8.566406 19.914062 8.882812 18.8125 C 9.226562 19.621094 9.621094 20.1875 9.644531 20.21875 C 9.753906 20.375 9.953125 20.40625 10.128906 20.328125 C 10.300781 20.253906 10.390625 20.039062 10.351562 19.855469 C 9.992188 18.246094 10.445312 16.527344 11.5625 15.253906 L 12.144531 14.589844 C 12.839844 15.777344 13.1875 16.984375 13.1875 18.179688 C 13.1875 18.375 13.328125 18.539062 13.519531 18.574219 C 13.710938 18.609375 13.898438 18.5 13.964844 18.320312 C 13.976562 18.289062 14.171875 17.761719 14.324219 16.984375 L 14.703125 17.414062 C 15.890625 18.769531 15.90625 20.765625 14.738281 22.0625 C 14.082031 22.789062 13.132812 23.199219 12.164062 23.199219 C 11.179688 23.195312 10.246094 22.765625 9.597656 22.03125 Z M 17.199219 21.601562 L 17.199219 23.199219 L 14.660156 23.199219 C 14.902344 23.023438 15.128906 22.824219 15.332031 22.597656 C 16.773438 21 16.757812 18.546875 15.304688 16.886719 L 14.359375 15.8125 C 14.253906 15.691406 14.089844 15.648438 13.9375 15.695312 C 13.789062 15.742188 13.679688 15.875 13.660156 16.03125 C 13.660156 16.035156 13.660156 16.039062 13.660156 16.042969 C 13.433594 15.308594 13.09375 14.578125 12.636719 13.855469 C 12.625 13.839844 12.613281 13.824219 12.601562 13.808594 L 12.484375 13.675781 C 12.332031 13.503906 12.035156 13.503906 11.882812 13.675781 L 10.960938 14.726562 C 10.117188 15.6875 9.601562 16.878906 9.464844 18.105469 C 9.410156 17.953125 9.359375 17.789062 9.316406 17.625 C 9.277344 17.46875 9.148438 17.355469 8.992188 17.332031 C 8.832031 17.304688 8.675781 17.378906 8.589844 17.515625 C 7.605469 19.089844 7.773438 21.160156 8.996094 22.558594 C 9.210938 22.800781 9.453125 23.015625 9.710938 23.199219 L 6.398438 23.199219 L 6.398438 21.597656 L 5.199219 21.597656 L 5.199219 11.597656 L 18.800781 11.597656 L 18.800781 21.597656 L 17.199219 21.597656 Z M 22.800781 22.398438 L 22.800781 23.199219 L 18 23.199219 L 18 22.398438 Z M 21.199219 21.601562 L 19.601562 21.601562 L 19.601562 20.800781 L 21.199219 20.800781 Z M 21.199219 21.601562"/>
    <path d="M 10.398438 8.964844 L 12 10.566406 L 13.601562 8.964844 L 15.199219 10.566406 L 17.367188 8.398438 L 15.199219 6.234375 L 13.601562 7.835938 L 12 6.234375 L 10.398438 7.835938 L 8.800781 6.234375 L 6.632812 8.398438 L 8.800781 10.566406 Z M 15.199219 7.367188 L 16.234375 8.398438 L 15.199219 9.433594 L 14.164062 8.398438 Z M 12 7.367188 L 13.035156 8.398438 L 12 9.433594 L 10.964844 8.398438 Z M 8.800781 7.367188 L 9.835938 8.398438 L 8.800781 9.433594 L 7.765625 8.398438 Z M 8.800781 7.367188"/>
</svg>
