<svg xmlns="http://www.w3.org/2000/svg" width="32" height="32" viewBox="0 0 24 24">
    <path d="M 23.601562 23.199219 L 21.199219 23.199219 L 21.199219 22 L 20.800781 22 L 20.800781 14.398438 L 22 14.398438 L 22 13.199219 L 22.800781 13.199219 L 22.800781 12.398438 L 20 12.398438 L 20 12 L 20.398438 12 C 20.5625 12 20.707031 11.902344 20.769531 11.753906 C 20.832031 11.605469 20.796875 11.429688 20.683594 11.316406 L 19.082031 9.71875 C 19.007812 9.640625 18.90625 9.601562 18.800781 9.601562 L 17.773438 9.601562 L 15.183594 6.800781 L 15.199219 6.800781 L 15.199219 4.398438 L 14 4.398438 L 14 0 L 10 0 L 10 4.398438 L 8.800781 4.398438 L 8.800781 6.800781 L 8.816406 6.800781 L 6.226562 9.601562 L 5.199219 9.601562 C 5.09375 9.601562 4.992188 9.640625 4.917969 9.71875 L 3.316406 11.316406 C 3.203125 11.429688 3.167969 11.605469 3.230469 11.753906 C 3.292969 11.902344 3.4375 12 3.601562 12 L 4 12 L 4 12.398438 L 1.199219 12.398438 L 1.199219 13.199219 L 2 13.199219 L 2 14.398438 L 3.199219 14.398438 L 3.199219 22 L 2.800781 22 L 2.800781 23.199219 L 0.398438 23.199219 C 0.179688 23.199219 0 23.378906 0 23.601562 C 0 23.820312 0.179688 24 0.398438 24 L 23.601562 24 C 23.820312 24 24 23.820312 24 23.601562 C 24 23.378906 23.820312 23.199219 23.601562 23.199219 Z M 10.800781 0.800781 L 13.199219 0.800781 L 13.199219 4.398438 L 10.800781 4.398438 Z M 9.601562 5.199219 L 14.398438 5.199219 L 14.398438 6 L 9.601562 6 Z M 9.910156 6.800781 L 14.09375 6.800781 L 16.683594 9.601562 L 7.316406 9.601562 Z M 5.367188 10.398438 L 18.632812 10.398438 L 19.433594 11.199219 L 4.566406 11.199219 Z M 4.800781 12 L 19.199219 12 L 19.199219 12.398438 L 4.800781 12.398438 Z M 2.800781 13.601562 L 2.800781 13.199219 L 21.199219 13.199219 L 21.199219 13.601562 Z M 4 14.398438 L 20 14.398438 L 20 22 L 19.199219 22 C 19.199219 18.203125 16.246094 15.09375 12.515625 14.824219 L 12.453125 14.820312 C 12.425781 14.820312 12.398438 14.820312 12.371094 14.820312 C 12.246094 14.8125 12.125 14.800781 12 14.800781 C 11.964844 14.800781 11.929688 14.804688 11.894531 14.804688 C 11.734375 14.808594 11.578125 14.816406 11.417969 14.828125 C 11.363281 14.835938 11.308594 14.832031 11.253906 14.839844 C 11.253906 14.839844 11.253906 14.839844 11.25 14.839844 C 7.628906 15.21875 4.800781 18.285156 4.800781 22 L 4 22 Z M 11.941406 15.601562 C 11.996094 15.601562 12.050781 15.605469 12.105469 15.605469 C 12.144531 15.605469 12.183594 15.609375 12.222656 15.609375 C 12.496094 16.261719 12.636719 16.917969 12.636719 17.5625 C 12.636719 17.753906 12.777344 17.921875 12.964844 17.953125 C 13.15625 17.988281 13.34375 17.878906 13.410156 17.695312 C 13.417969 17.679688 13.53125 17.371094 13.632812 16.898438 L 13.769531 17.054688 C 14.605469 18.027344 14.617188 19.460938 13.796875 20.390625 C 13.765625 20.421875 13.734375 20.449219 13.707031 20.480469 L 13.671875 20.515625 C 13.554688 20.625 13.433594 20.722656 13.304688 20.808594 C 13.300781 20.8125 13.296875 20.816406 13.289062 20.816406 C 13.167969 20.898438 13.039062 20.964844 12.910156 21.019531 C 12.894531 21.023438 12.875 21.03125 12.859375 21.035156 C 12.734375 21.085938 12.605469 21.125 12.472656 21.152344 C 12.453125 21.15625 12.433594 21.15625 12.417969 21.160156 C 12.285156 21.183594 12.152344 21.199219 12.015625 21.199219 C 12.011719 21.199219 12.011719 21.199219 12.007812 21.199219 C 12.007812 21.199219 12.003906 21.199219 12.003906 21.199219 C 11.871094 21.199219 11.738281 21.183594 11.605469 21.160156 C 11.582031 21.15625 11.558594 21.152344 11.53125 21.148438 C 11.40625 21.121094 11.28125 21.085938 11.160156 21.039062 C 11.140625 21.03125 11.117188 21.019531 11.09375 21.011719 C 10.96875 20.960938 10.847656 20.894531 10.730469 20.820312 C 10.71875 20.8125 10.710938 20.808594 10.703125 20.800781 C 10.574219 20.71875 10.457031 20.621094 10.34375 20.511719 L 10.328125 20.496094 C 10.28125 20.453125 10.238281 20.410156 10.199219 20.363281 C 9.722656 19.8125 9.527344 19.074219 9.628906 18.371094 C 9.84375 18.820312 10.046875 19.113281 10.058594 19.132812 C 10.167969 19.289062 10.367188 19.332031 10.542969 19.253906 C 10.71875 19.179688 10.8125 18.972656 10.769531 18.785156 C 10.535156 17.699219 10.804688 16.527344 11.492188 15.625 C 11.640625 15.613281 11.792969 15.605469 11.941406 15.601562 Z M 9.988281 17.042969 C 9.929688 16.929688 9.820312 16.847656 9.6875 16.828125 C 9.53125 16.804688 9.371094 16.875 9.285156 17.011719 C 8.636719 18.066406 8.640625 19.363281 9.25 20.398438 L 7.199219 20.398438 L 7.199219 22 L 5.601562 22 C 5.601562 19.007812 7.667969 16.496094 10.445312 15.796875 C 10.234375 16.195312 10.078125 16.613281 9.988281 17.042969 Z M 8 21.199219 L 9.90625 21.199219 C 9.910156 21.203125 9.917969 21.207031 9.921875 21.210938 C 10.054688 21.324219 10.191406 21.429688 10.335938 21.519531 C 10.34375 21.523438 10.351562 21.53125 10.359375 21.535156 C 10.492188 21.617188 10.628906 21.683594 10.773438 21.742188 C 10.816406 21.761719 10.863281 21.78125 10.90625 21.796875 C 11.039062 21.847656 11.175781 21.890625 11.3125 21.921875 C 11.359375 21.933594 11.40625 21.9375 11.457031 21.945312 C 11.558594 21.964844 11.660156 21.976562 11.765625 21.988281 C 11.800781 21.988281 11.835938 22 11.871094 22 L 8 22 Z M 12.242188 21.988281 C 12.355469 21.980469 12.46875 21.964844 12.578125 21.945312 C 12.625 21.9375 12.671875 21.929688 12.71875 21.917969 C 12.851562 21.886719 12.980469 21.84375 13.109375 21.796875 C 13.148438 21.78125 13.1875 21.769531 13.226562 21.753906 C 13.375 21.691406 13.515625 21.621094 13.652344 21.539062 C 13.660156 21.53125 13.667969 21.527344 13.679688 21.519531 C 13.832031 21.425781 13.976562 21.320312 14.109375 21.199219 L 15.601562 21.199219 L 15.601562 22 L 12.144531 22 C 12.175781 22 12.207031 21.988281 12.242188 21.988281 Z M 14.765625 20.398438 C 15.457031 19.203125 15.324219 17.636719 14.375 16.53125 L 13.792969 15.859375 C 16.453125 16.640625 18.398438 19.09375 18.398438 22 L 16.398438 22 L 16.398438 20.398438 Z M 3.601562 23.199219 L 3.601562 22.800781 L 20.398438 22.800781 L 20.398438 23.199219 Z M 3.601562 23.199219"/>
</svg>
