<svg xmlns="http://www.w3.org/2000/svg" width="32" height="32" viewBox="0 0 24 24">
    <path d="M17.2 2.8h-.802a.4.4 0 0 0 0 .802h.801a.401.401 0 0 0 0-.8zm0 0M5.602 8.8H4.398v5.598H9.2V8.801zm1.597.802V10.8h-.8V9.6zm1.2 0v4h-3.2v-4h.403v2H8v-2zm0 0M10.398 8a.4.4 0 0 0-.398.398v6.403a.4.4 0 0 0 .8 0V8.398A.401.401 0 0 0 10.399 8zm0 0M13.602 8a.401.401 0 0 0-.403.398v6.403a.401.401 0 0 0 .801 0V8.398A.4.4 0 0 0 13.602 8zm0 0M8.398 18c0 .223.18.398.403.398h6.398a.398.398 0 1 0 0-.796H8.801a.398.398 0 0 0-.403.398zm0 0"/>
    <path d="M20.73 0H3.27c-.48 0-.872.39-.872.867v21.961c0 .645.528 1.172 1.172 1.172h16.86c.644 0 1.172-.527 1.172-1.172V.868A.871.871 0 0 0 20.73 0zM3.2.867c0-.035.03-.066.07-.066h8.332V16H3.199zm17.6 21.961a.373.373 0 0 1-.37.371H3.57a.373.373 0 0 1-.37-.37V16.8h17.6zM12.399 16V.8h8.332c.04 0 .07.032.07.067V16zm0 0"/>
</svg>
