<svg xmlns="http://www.w3.org/2000/svg" width="32" height="32" viewBox="0 0 24 24">
    <path d="M17.023 0H6.977C6.328 0 5.8.527 5.8 1.176v21.648c0 .649.527 1.176 1.176 1.176h10.046c.649 0 1.176-.527 1.176-1.176V1.176C18.2.527 17.672 0 17.023 0zm.375 22.824a.375.375 0 0 1-.375.375H6.977a.375.375 0 0 1-.375-.375v-8.023h10.796zM6.602 14V1.176c0-.207.168-.375.375-.375h10.046c.207 0 .375.168.375.375V14zm0 0"/>
    <path d="M7.398 8.398a.401.401 0 0 0 0 .801c.223 0 .403.18.403.403V12c0 .223-.18.398-.403.398a.401.401 0 0 0 0 .801c.665 0 1.204-.539 1.204-1.199V9.602c0-.665-.54-1.204-1.204-1.204zm0 0M7.398 19.602a.398.398 0 1 0 0 .796A1.2 1.2 0 0 0 8.602 19.2v-2.398a1.2 1.2 0 0 0-1.204-1.2.398.398 0 1 0 0 .797c.223 0 .403.18.403.403v2.398c0 .223-.18.403-.403.403zm0 0M12.2 2.398h-.802a.401.401 0 0 0 0 .801h.801a.401.401 0 1 0 0-.8zm0 0"/>
</svg>
