<svg xmlns="http://www.w3.org/2000/svg" width="32" height="32" viewBox="0 0 24 24">
    <path d="M23.199219 5.835938L23.199219 1.601562 12.800781 1.601562 12.800781 8 23.199219 8zM13.601562 2.398438L22.398438 2.398438 22.398438 5.035156 21.410156 4.046875C20.855469 3.492188 19.953125 3.457031 19.355469 3.96875L17.851562 5.257812C17.648438 5.433594 17.371094 5.476562 17.121094 5.378906L16.292969 5.046875C15.828125 4.859375 15.304688 4.914062 14.890625 5.191406L13.601562 6.054688zM22.398438 7.199219L13.601562 7.199219 13.601562 7.015625 15.335938 5.859375C15.53125 5.726562 15.777344 5.699219 15.996094 5.789062L16.824219 6.121094C17.351562 6.332031 17.941406 6.234375 18.371094 5.863281L19.878906 4.574219C20.160156 4.332031 20.585938 4.347656 20.847656 4.609375L22.398438 6.164062zM23.601562 23.199219L9.125 23.199219C9.171875 23.074219 9.199219 22.941406 9.199219 22.800781 9.199219 22.136719 8.660156 21.601562 8 21.601562L6 21.601562 6 14.164062 9.59375 10.574219C9.832031 10.714844 10.105469 10.800781 10.398438 10.800781 11.28125 10.800781 12 10.082031 12 9.199219 12 8.316406 11.28125 7.601562 10.398438 7.601562 9.519531 7.601562 8.800781 8.316406 8.800781 9.199219 8.800781 9.496094 8.886719 9.769531 9.027344 10.007812L6 13.035156 6 8.164062 7.59375 6.574219C7.832031 6.714844 8.105469 6.800781 8.398438 6.800781 9.28125 6.800781 10 6.082031 10 5.199219 10 4.316406 9.28125 3.601562 8.398438 3.601562 7.519531 3.601562 6.800781 4.316406 6.800781 5.199219 6.800781 5.496094 6.886719 5.769531 7.027344 6.007812L6 7.035156 6 3.144531C6.6875 2.964844 7.199219 2.34375 7.199219 1.601562 7.199219.71875 6.480469 0 5.601562 0 4.71875 0 4 .71875 4 1.601562 4 2.34375 4.511719 2.964844 5.199219 3.144531L5.199219 11.035156 3.773438 9.609375C3.914062 9.371094 4 9.097656 4 8.800781 4 7.917969 3.28125 7.199219 2.398438 7.199219 1.519531 7.199219.800781 7.917969.800781 8.800781.800781 9.683594 1.519531 10.398438 2.398438 10.398438 2.695312 10.398438 2.96875 10.3125 3.207031 10.171875L5.199219 12.164062 5.199219 21.601562 3.199219 21.601562C2.539062 21.601562 2 22.136719 2 22.800781 2 22.941406 2.027344 23.074219 2.074219 23.199219L.398438 23.199219C.179688 23.199219 0 23.378906 0 23.601562 0 23.820312.179688 24 .398438 24L23.601562 24C23.820312 24 24 23.820312 24 23.601562 24 23.378906 23.820312 23.199219 23.601562 23.199219zM10.398438 8.398438C10.839844 8.398438 11.199219 8.757812 11.199219 9.199219 11.199219 9.640625 10.839844 10 10.398438 10 9.957031 10 9.601562 9.640625 9.601562 9.199219 9.601562 8.757812 9.957031 8.398438 10.398438 8.398438zM8.398438 4.398438C8.839844 4.398438 9.199219 4.757812 9.199219 5.199219 9.199219 5.640625 8.839844 6 8.398438 6 7.957031 6 7.601562 5.640625 7.601562 5.199219 7.601562 4.757812 7.957031 4.398438 8.398438 4.398438zM1.601562 8.800781C1.601562 8.359375 1.957031 8 2.398438 8 2.839844 8 3.199219 8.359375 3.199219 8.800781 3.199219 9.242188 2.839844 9.601562 2.398438 9.601562 1.957031 9.601562 1.601562 9.242188 1.601562 8.800781zM4.800781 1.601562C4.800781 1.160156 5.160156.800781 5.601562.800781 6.042969.800781 6.398438 1.160156 6.398438 1.601562 6.398438 2.042969 6.042969 2.398438 5.601562 2.398438 5.160156 2.398438 4.800781 2.042969 4.800781 1.601562zM3.199219 23.199219C2.980469 23.199219 2.800781 23.019531 2.800781 22.800781 2.800781 22.578125 2.980469 22.398438 3.199219 22.398438L8 22.398438C8.222656 22.398438 8.398438 22.578125 8.398438 22.800781 8.398438 23.019531 8.222656 23.199219 8 23.199219zM3.199219 23.199219"/>
</svg>
