<svg xmlns="http://www.w3.org/2000/svg" width="32" height="32" viewBox="0 0 24 24">
    <path d="M 14.472656 23.199219 L 15.671875 16 L 13.601562 16 L 13.601562 13.332031 C 13.601562 12.820312 14.019531 12.398438 14.53125 12.398438 C 15.046875 12.398438 15.46875 12.820312 15.46875 13.332031 L 16.265625 13.332031 C 16.265625 12.378906 15.488281 11.601562 14.53125 11.601562 C 13.578125 11.601562 12.800781 12.378906 12.800781 13.332031 L 12.800781 16 L 9.925781 16 L 11.128906 23.199219 L 8.328125 23.199219 C 8.371094 23.074219 8.398438 22.941406 8.398438 22.800781 C 8.398438 22.136719 7.863281 21.601562 7.199219 21.601562 L 5.199219 21.601562 L 5.199219 18.164062 L 9.082031 14.28125 L 8.515625 13.71875 L 5.199219 17.035156 L 5.199219 10.164062 L 7.082031 8.28125 L 6.515625 7.71875 L 5.199219 9.035156 L 5.199219 3.144531 C 5.886719 2.964844 6.398438 2.34375 6.398438 1.601562 C 6.398438 0.71875 5.683594 0 4.800781 0 C 3.917969 0 3.199219 0.71875 3.199219 1.601562 C 3.199219 2.34375 3.710938 2.964844 4.398438 3.144531 L 4.398438 5.835938 L 2.683594 4.117188 L 2.117188 4.683594 L 4.398438 6.964844 L 4.398438 13.835938 L 2.683594 12.117188 L 2.117188 12.683594 L 4.398438 14.964844 L 4.398438 21.601562 L 2.398438 21.601562 C 1.738281 21.601562 1.199219 22.136719 1.199219 22.800781 C 1.199219 22.941406 1.230469 23.074219 1.273438 23.199219 L 0 23.199219 L 0 24 L 24 24 L 24 23.199219 Z M 4 1.601562 C 4 1.160156 4.359375 0.800781 4.800781 0.800781 C 5.242188 0.800781 5.601562 1.160156 5.601562 1.601562 C 5.601562 2.042969 5.242188 2.398438 4.800781 2.398438 C 4.359375 2.398438 4 2.042969 4 1.601562 Z M 2.398438 23.199219 C 2.179688 23.199219 2 23.019531 2 22.800781 C 2 22.578125 2.179688 22.398438 2.398438 22.398438 L 7.199219 22.398438 C 7.421875 22.398438 7.601562 22.578125 7.601562 22.800781 C 7.601562 23.019531 7.421875 23.199219 7.199219 23.199219 Z M 11.9375 23.199219 L 10.871094 16.800781 L 14.726562 16.800781 L 13.660156 23.199219 Z M 11.9375 23.199219"/>
</svg>
