<svg xmlns="http://www.w3.org/2000/svg" width="32" height="32" viewBox="0 0 24 24">
    <path d="M23.996 16.773a.428.428 0 0 0-.023-.101c-.004-.016-.008-.031-.016-.043a.303.303 0 0 0-.062-.094c-.004-.008-.008-.015-.016-.02 0-.003 0-.003-.004-.003l-8.273-7.883v-6.23H8.398v6.23L.125 16.512s-.004 0-.004.004c-.008.004-.012.011-.016.02a.303.303 0 0 0-.062.093c-.008.012-.012.027-.016.039a.512.512 0 0 0-.023.105c0 .008-.004.016-.004.028v4.398c0 .223.18.403.398.403h23.204c.218 0 .398-.18.398-.403v-4.398c0-.012-.004-.02-.004-.028zM9.2 3.2h5.602v5.2H9.199zm-.238 6h6.078l7.563 7.2h-3.61l-3.078-3.848a.399.399 0 0 0-.562-.063.395.395 0 0 0-.063.563l2.68 3.347H6.03l2.68-3.347a.398.398 0 0 0-.063-.563.399.399 0 0 0-.562.063l-3.078 3.847h-3.61zm14.238 11.602h-6.8V20a.395.395 0 0 0-.399-.398.395.395 0 0 0-.398.398v.8H14.8V20a.398.398 0 0 0-.403-.398A.398.398 0 0 0 14 20v.8h-.8V20a.398.398 0 0 0-.4-.398.398.398 0 0 0-.402.398v.8h-.796V20a.398.398 0 0 0-.403-.398.398.398 0 0 0-.398.398v.8H10V20a.398.398 0 0 0-.398-.398.398.398 0 0 0-.403.398v.8h-.8V20A.395.395 0 0 0 8 19.602a.395.395 0 0 0-.398.398v.8H.8v-3.6h22.398zm0 0"/>
    <path d="M18 18.398v1.204a.4.4 0 0 0 .398.398h1.204a.4.4 0 0 0 .398-.398v-1.204a.4.4 0 0 0-.398-.398h-1.204a.4.4 0 0 0-.398.398zm.8.403h.4v.398h-.4zm0 0M20.8 20H22c.223 0 .398-.18.398-.398v-1.204A.398.398 0 0 0 22 18h-1.2a.401.401 0 0 0-.402.398v1.204c0 .218.18.398.403.398zm.4-1.2h.402v.4h-.403zm0 0M4 19.2H2a.398.398 0 0 0-.398.402c0 .218.175.398.398.398h2c.223 0 .398-.18.398-.398A.398.398 0 0 0 4 19.199zm0 0"/>
</svg>
