<svg xmlns="http://www.w3.org/2000/svg" width="32" height="32" viewBox="0 0 24 24">
    <path d="M20.129.344A.4.4 0 0 0 19.73 0H4.27a.4.4 0 0 0-.399.344L2.242 10.922a.406.406 0 0 0 .403.469H5.21a8.148 8.148 0 0 0-1.348 4.472C3.863 20.352 7.516 24 12 24s8.137-3.648 8.137-8.137c0-1.59-.477-3.152-1.348-4.472h2.566c.122 0 .23-.051.31-.145a.393.393 0 0 0 .093-.324zm-.809 15.52c0 4.038-3.28 7.323-7.32 7.323A7.32 7.32 0 1 1 6.207 11.39h8.234v1.22c0 .226.18.406.407.406h.812v3.664a.406.406 0 1 0 .813 0v-3.664h.816c.223 0 .406-.18.406-.407v-1.218h.098a7.32 7.32 0 0 1 1.527 4.472zm-4.066-3.66v-.813h1.629v.812zm2.738-1.626H3.117L4.621.813H19.38l1.504 9.765zm0 0"/>
    <path d="M12 21.559a5.701 5.701 0 0 1-5.695-5.696c0-1.082.304-2.133.875-3.035a.406.406 0 1 0-.684-.437 6.47 6.47 0 0 0-1.004 3.472A6.513 6.513 0 0 0 12 22.371a.406.406 0 1 0 0-.813zm0 0"/>
</svg>
