<svg xmlns="http://www.w3.org/2000/svg" width="32" height="32" viewBox="0 0 24 24">
    <path d="M21.887 10.184c1.164 0 2.113-.95 2.113-2.114 0-1.168-.95-2.117-2.113-2.117-.45 0-.867.145-1.211.387L11.539.523a.423.423 0 0 0-.453.715l9.004 5.73a2.077 2.077 0 0 0 .043 2.282l-8.168 9.395H6.238v1.69H4.547a2.964 2.964 0 0 0-2.961 2.962v.422h20.723v-.422a2.964 2.964 0 0 0-2.961-2.961h-1.692v-1.691h-4.57l7.652-8.805c.332.215.723.344 1.149.344zm-2.54 10.996c1.024 0 1.876.726 2.071 1.691H2.473a2.116 2.116 0 0 1 2.07-1.691zm-2.538-.844H7.082v-.848h9.727zM23.152 8.07c0 .7-.566 1.27-1.265 1.27-.7 0-1.27-.57-1.27-1.27 0-.699.57-1.27 1.27-1.27.699 0 1.265.571 1.265 1.27zm0 0"/>
    <path d="M8.707 7.848l.547-.551a3.017 3.017 0 0 0 .754-3.145l1.48-1.476L9.094.28 7.617 1.758a3.216 3.216 0 0 0-.812-.156 3.05 3.05 0 0 0-2.336.91l-.547.547L0 4.945l6.824 6.825zM8.43 2.14l.664-.664 1.199 1.199-.664.664c-.008-.016-.02-.024-.027-.035a2.375 2.375 0 0 0-.184-.258 3.538 3.538 0 0 0-.316-.363c0-.004-.004-.008-.008-.012A3.692 3.692 0 0 0 8.8 2.41c-.028-.02-.055-.039-.078-.062a10.495 10.495 0 0 0-.258-.184c-.012-.004-.024-.016-.035-.023zM1.44 5.19l2.98-1.43.645-.652c.47-.468 1.055-.699 1.692-.664.23.016.465.063.687.145l.117.05c.086.036.168.075.25.118a2.51 2.51 0 0 1 .223.137c.008.007.02.011.027.02a5.688 5.688 0 0 1 .227.167c.07.063.14.125.207.191.066.067.129.133.188.204l.035.046c.047.059.094.122.136.18a4.069 4.069 0 0 1 .152.25v.004c.044.082.087.164.122.25l.047.117c.082.223.133.453.144.684.035.637-.195 1.222-.664 1.691l-.652.653-1.426 2.976zm0 0"/>
</svg>
