<svg xmlns="http://www.w3.org/2000/svg" width="32" height="32" viewBox="0 0 24 24">
    <path d="M23.586 9.516V2.07h-5.793v7.446h-.828V4.55a.414.414 0 0 0-.414-.414h-1.653a.414.414 0 0 0-.414.414v.414a.412.412 0 1 0 .825 0h.828v2.07H7.035v2.48h-.828V2.07H.414v7.446H0V21.93h24V9.516zM18.62 2.898h4.137v6.618H18.62zm-1.242 7.446v1.242h-3.723v3.723h-1.242v-4.965zm0 4.965h-.414v-2.895h.414zm-2.48 0h-.415v-2.895h.414zm1.238 0h-.414v-2.895h.414zM7.863 7.863h8.274v1.653H7.863zm-1.242 2.48h4.965v4.966H6.62zM3.31 15.31h-.41v-3.723h.41zm1.242 0h-.414v-3.723h.414zm1.242 0h-.414v-3.723h.414zm-4.55-12.41h4.136v6.617H1.242zm-.415 7.445h4.965v.414H2.07v4.55H.828zm4.965 10.758H.828v-4.965h4.965zm5.793 0H6.62v-4.965h4.965zm5.793 0h-4.965v-4.965h4.965zm5.793 0h-4.965v-4.965h4.965zm-1.242-5.793h-.414v-2.895h.414zm-1.239 0h-.414v-2.895h.414zm2.067 0v-2.895h.414v2.895zm0-3.723h-3.309v3.723h-1.242v-4.965h4.965v1.242zm0 0"/>
    <path d="M8.691 6.621h6.618c.23 0 .414-.184.414-.414a.412.412 0 0 0-.414-.414H8.69a.412.412 0 0 0-.414.414c0 .23.184.414.414.414zm0 0M4.965 4.965c0-.914-.742-1.656-1.656-1.656-.91 0-1.653.742-1.653 1.656 0 .496.223.937.57 1.242-.347.305-.57.746-.57 1.242a1.655 1.655 0 0 0 3.309 0c0-.496-.223-.937-.57-1.242.347-.305.57-.746.57-1.242zm-.828 2.484a.829.829 0 0 1-.828.828.828.828 0 0 1 0-1.656c.457 0 .828.371.828.828zM2.484 4.965c0-.457.371-.828.825-.828a.829.829 0 0 1 0 1.656.828.828 0 0 1-.825-.828zm0 0M22.344 4.965c0-.914-.742-1.656-1.653-1.656-.914 0-1.656.742-1.656 1.656 0 .496.223.937.57 1.242-.347.305-.57.746-.57 1.242 0 .91.742 1.653 1.656 1.653.91 0 1.653-.743 1.653-1.653 0-.496-.223-.937-.57-1.242.347-.305.57-.746.57-1.242zm-.828 2.484a.828.828 0 0 1-.825.828.829.829 0 0 1 0-1.656c.454 0 .825.371.825.828zm-1.653-2.484c0-.457.371-.828.828-.828a.828.828 0 0 1 0 1.656.829.829 0 0 1-.828-.828zm0 0M4.137 16.965H2.484a.414.414 0 0 0 0 .828h1.653a.414.414 0 0 0 0-.828zm0 0M8.277 17.793H9.93a.414.414 0 0 0 0-.828H8.277a.414.414 0 0 0 0 .828zm0 0M15.723 16.965H14.07a.414.414 0 0 0 0 .828h1.653a.414.414 0 0 0 0-.828zm0 0M21.516 16.965h-1.653a.414.414 0 0 0 0 .828h1.653a.414.414 0 0 0 0-.828zm0 0"/>
</svg>
