<svg xmlns="http://www.w3.org/2000/svg" width="32" height="32" viewBox="0 0 24 24">
    <path d="M10 7.601562C10 7.820312 9.820312 8 9.601562 8 9.378906 8 9.199219 7.820312 9.199219 7.601562 9.199219 7.378906 9.378906 7.199219 9.601562 7.199219 9.820312 7.199219 10 7.378906 10 7.601562zM12.398438 7.601562C12.398438 7.820312 12.222656 8 12 8 11.777344 8 11.601562 7.820312 11.601562 7.601562 11.601562 7.378906 11.777344 7.199219 12 7.199219 12.222656 7.199219 12.398438 7.378906 12.398438 7.601562zM14.800781 7.601562C14.800781 7.820312 14.621094 8 14.398438 8 14.179688 8 14 7.820312 14 7.601562 14 7.378906 14.179688 7.199219 14.398438 7.199219 14.621094 7.199219 14.800781 7.378906 14.800781 7.601562zM10 8.800781C10 9.019531 9.820312 9.199219 9.601562 9.199219 9.378906 9.199219 9.199219 9.019531 9.199219 8.800781 9.199219 8.578125 9.378906 8.398438 9.601562 8.398438 9.820312 8.398438 10 8.578125 10 8.800781zM12.398438 8.800781C12.398438 9.019531 12.222656 9.199219 12 9.199219 11.777344 9.199219 11.601562 9.019531 11.601562 8.800781 11.601562 8.578125 11.777344 8.398438 12 8.398438 12.222656 8.398438 12.398438 8.578125 12.398438 8.800781zM14.800781 8.800781C14.800781 9.019531 14.621094 9.199219 14.398438 9.199219 14.179688 9.199219 14 9.019531 14 8.800781 14 8.578125 14.179688 8.398438 14.398438 8.398438 14.621094 8.398438 14.800781 8.578125 14.800781 8.800781zM10 10C10 10.222656 9.820312 10.398438 9.601562 10.398438 9.378906 10.398438 9.199219 10.222656 9.199219 10 9.199219 9.777344 9.378906 9.601562 9.601562 9.601562 9.820312 9.601562 10 9.777344 10 10zM12.398438 10C12.398438 10.222656 12.222656 10.398438 12 10.398438 11.777344 10.398438 11.601562 10.222656 11.601562 10 11.601562 9.777344 11.777344 9.601562 12 9.601562 12.222656 9.601562 12.398438 9.777344 12.398438 10zM14.800781 10C14.800781 10.222656 14.621094 10.398438 14.398438 10.398438 14.179688 10.398438 14 10.222656 14 10 14 9.777344 14.179688 9.601562 14.398438 9.601562 14.621094 9.601562 14.800781 9.777344 14.800781 10zM10 11.199219C10 11.421875 9.820312 11.601562 9.601562 11.601562 9.378906 11.601562 9.199219 11.421875 9.199219 11.199219 9.199219 10.980469 9.378906 10.800781 9.601562 10.800781 9.820312 10.800781 10 10.980469 10 11.199219zM12.398438 11.199219C12.398438 11.421875 12.222656 11.601562 12 11.601562 11.777344 11.601562 11.601562 11.421875 11.601562 11.199219 11.601562 10.980469 11.777344 10.800781 12 10.800781 12.222656 10.800781 12.398438 10.980469 12.398438 11.199219zM14.800781 11.199219C14.800781 11.421875 14.621094 11.601562 14.398438 11.601562 14.179688 11.601562 14 11.421875 14 11.199219 14 10.980469 14.179688 10.800781 14.398438 10.800781 14.621094 10.800781 14.800781 10.980469 14.800781 11.199219zM10 12.398438C10 12.621094 9.820312 12.800781 9.601562 12.800781 9.378906 12.800781 9.199219 12.621094 9.199219 12.398438 9.199219 12.179688 9.378906 12 9.601562 12 9.820312 12 10 12.179688 10 12.398438zM12.398438 12.398438C12.398438 12.621094 12.222656 12.800781 12 12.800781 11.777344 12.800781 11.601562 12.621094 11.601562 12.398438 11.601562 12.179688 11.777344 12 12 12 12.222656 12 12.398438 12.179688 12.398438 12.398438zM14.800781 12.398438C14.800781 12.621094 14.621094 12.800781 14.398438 12.800781 14.179688 12.800781 14 12.621094 14 12.398438 14 12.179688 14.179688 12 14.398438 12 14.621094 12 14.800781 12.179688 14.800781 12.398438zM10 13.601562C10 13.820312 9.820312 14 9.601562 14 9.378906 14 9.199219 13.820312 9.199219 13.601562 9.199219 13.378906 9.378906 13.199219 9.601562 13.199219 9.820312 13.199219 10 13.378906 10 13.601562zM12.398438 13.601562C12.398438 13.820312 12.222656 14 12 14 11.777344 14 11.601562 13.820312 11.601562 13.601562 11.601562 13.378906 11.777344 13.199219 12 13.199219 12.222656 13.199219 12.398438 13.378906 12.398438 13.601562zM14.800781 13.601562C14.800781 13.820312 14.621094 14 14.398438 14 14.179688 14 14 13.820312 14 13.601562 14 13.378906 14.179688 13.199219 14.398438 13.199219 14.621094 13.199219 14.800781 13.378906 14.800781 13.601562zM10 14.800781C10 15.019531 9.820312 15.199219 9.601562 15.199219 9.378906 15.199219 9.199219 15.019531 9.199219 14.800781 9.199219 14.578125 9.378906 14.398438 9.601562 14.398438 9.820312 14.398438 10 14.578125 10 14.800781zM12.398438 14.800781C12.398438 15.019531 12.222656 15.199219 12 15.199219 11.777344 15.199219 11.601562 15.019531 11.601562 14.800781 11.601562 14.578125 11.777344 14.398438 12 14.398438 12.222656 14.398438 12.398438 14.578125 12.398438 14.800781zM14.800781 14.800781C14.800781 15.019531 14.621094 15.199219 14.398438 15.199219 14.179688 15.199219 14 15.019531 14 14.800781 14 14.578125 14.179688 14.398438 14.398438 14.398438 14.621094 14.398438 14.800781 14.578125 14.800781 14.800781zM14.800781 14.800781"/>
    <path d="M 19.601562 4 C 19.601562 1.609375 15.671875 0 12 0 C 8.328125 0 4.398438 1.609375 4.398438 4 L 4.398438 9.398438 C 4.398438 11.628906 5.042969 13.78125 6.207031 15.480469 C 6.234375 15.59375 6.273438 15.703125 6.347656 15.800781 C 6.914062 16.585938 7.199219 17.46875 7.199219 18.425781 L 7.199219 20.171875 C 7.199219 20.492188 7.269531 20.796875 7.390625 21.074219 L 7.4375 21.199219 L 7.453125 21.199219 C 7.820312 21.902344 8.554688 22.386719 9.398438 22.398438 L 10.601562 24 L 13.398438 24 L 14.601562 22.398438 C 15.445312 22.386719 16.179688 21.902344 16.546875 21.199219 L 16.5625 21.199219 L 16.609375 21.074219 C 16.730469 20.796875 16.800781 20.492188 16.800781 20.171875 L 16.800781 18.800781 C 16.800781 18.675781 16.804688 18.550781 16.816406 18.425781 L 16.820312 18.390625 C 16.902344 17.46875 17.25 16.542969 17.804688 15.792969 C 17.933594 15.621094 17.980469 15.417969 17.96875 15.214844 C 19.019531 13.566406 19.601562 11.507812 19.601562 9.398438 Z M 10.398438 6.800781 L 10.398438 15.574219 C 9.859375 15.480469 9.324219 15.339844 8.800781 15.15625 L 8.800781 6.800781 Z M 12.800781 6.800781 L 12.800781 15.691406 C 12.265625 15.734375 11.730469 15.730469 11.199219 15.679688 L 11.199219 6.800781 Z M 15.199219 6.800781 L 15.199219 15.207031 C 14.675781 15.382812 14.140625 15.515625 13.601562 15.597656 L 13.601562 6.800781 Z M 13 23.199219 L 11 23.199219 L 10.398438 22.398438 L 13.601562 22.398438 Z M 14.570312 21.601562 L 9.429688 21.601562 C 9.046875 21.601562 8.699219 21.445312 8.441406 21.199219 L 15.558594 21.199219 C 15.300781 21.445312 14.953125 21.601562 14.570312 21.601562 Z M 16 20.171875 C 16 20.25 15.988281 20.324219 15.976562 20.398438 L 8.023438 20.398438 C 8.011719 20.324219 8 20.25 8 20.171875 L 8 20 L 16 20 Z M 8 19.199219 L 8 18.800781 L 16 18.800781 L 16 19.199219 Z M 17.164062 15.316406 C 16.585938 16.09375 16.203125 17.042969 16.0625 18 L 7.984375 18 C 7.90625 17.035156 7.578125 16.140625 6.996094 15.332031 C 6.980469 15.3125 6.976562 15.296875 6.976562 15.28125 C 6.976562 15.261719 6.980469 15.242188 6.992188 15.226562 C 7.320312 15.40625 7.660156 15.5625 8 15.707031 L 8.058594 15.730469 C 8.226562 15.800781 8.402344 15.863281 8.574219 15.925781 C 9.171875 16.136719 9.78125 16.292969 10.398438 16.394531 L 10.417969 16.394531 C 10.648438 16.433594 10.878906 16.460938 11.109375 16.480469 L 11.199219 16.492188 C 11.488281 16.515625 11.78125 16.53125 12.070312 16.53125 C 12.238281 16.53125 12.40625 16.523438 12.570312 16.515625 C 12.621094 16.515625 12.671875 16.515625 12.722656 16.511719 C 13.796875 16.445312 14.863281 16.210938 15.890625 15.8125 C 15.902344 15.804688 15.917969 15.800781 15.929688 15.796875 C 16.0625 15.746094 16.191406 15.6875 16.320312 15.628906 C 16.394531 15.597656 16.472656 15.566406 16.546875 15.53125 C 16.605469 15.503906 16.664062 15.472656 16.722656 15.445312 C 16.867188 15.375 17.011719 15.304688 17.152344 15.226562 C 17.164062 15.238281 17.167969 15.25 17.171875 15.257812 L 17.171875 15.261719 C 17.179688 15.289062 17.171875 15.308594 17.164062 15.316406 Z M 18.800781 9.398438 C 18.800781 11.230469 18.335938 13.019531 17.480469 14.488281 C 17.453125 14.476562 17.425781 14.46875 17.398438 14.460938 C 17.371094 14.449219 17.347656 14.4375 17.316406 14.429688 C 17.246094 14.410156 17.171875 14.398438 17.097656 14.398438 L 16.996094 14.398438 L 16.792969 14.511719 C 16.53125 14.652344 16.265625 14.777344 16 14.898438 L 16 6 L 14.800781 6 L 14.800781 5.601562 C 14.800781 5.378906 14.621094 5.199219 14.398438 5.199219 C 14.179688 5.199219 14 5.378906 14 5.601562 L 14 6 L 13.601562 6 L 13.601562 5.601562 C 13.601562 5.378906 13.421875 5.199219 13.199219 5.199219 C 12.980469 5.199219 12.800781 5.378906 12.800781 5.601562 L 12.800781 6 L 12.398438 6 L 12.398438 5.601562 C 12.398438 5.378906 12.222656 5.199219 12 5.199219 C 11.777344 5.199219 11.601562 5.378906 11.601562 5.601562 L 11.601562 6 L 11.199219 6 L 11.199219 5.601562 C 11.199219 5.378906 11.019531 5.199219 10.800781 5.199219 C 10.578125 5.199219 10.398438 5.378906 10.398438 5.601562 L 10.398438 6 L 10 6 L 10 5.601562 C 10 5.378906 9.820312 5.199219 9.601562 5.199219 C 9.378906 5.199219 9.199219 5.378906 9.199219 5.601562 L 9.199219 6 L 8 6 L 8 14.832031 C 7.746094 14.714844 7.492188 14.589844 7.246094 14.453125 L 7.15625 14.398438 L 7.050781 14.398438 C 7.046875 14.398438 7.046875 14.402344 7.042969 14.402344 C 6.960938 14.402344 6.878906 14.414062 6.800781 14.4375 C 6.765625 14.445312 6.738281 14.464844 6.703125 14.480469 C 6.660156 14.496094 6.617188 14.515625 6.578125 14.539062 C 6.574219 14.542969 6.5625 14.542969 6.558594 14.546875 C 5.679688 13.066406 5.199219 11.261719 5.199219 9.398438 L 5.199219 4 C 5.199219 2.324219 8.441406 0.800781 12 0.800781 C 15.558594 0.800781 18.800781 2.324219 18.800781 4 Z M 18.800781 9.398438"/>
</svg>
