<svg xmlns="http://www.w3.org/2000/svg" width="32" height="32" viewBox="0 0 24 24">
    <path d="M 19.199219 0 L 5.601562 0 L 5.601562 8.800781 L 19.199219 8.800781 Z M 18.398438 8 L 6.398438 8 L 6.398438 0.800781 L 18.398438 0.800781 Z M 18.398438 8"/>
    <path d="M18 7.601562L18 1.199219 6.800781 1.199219 6.800781 7.601562zM13.761719 6.800781C13.140625 6.214844 12.359375 5.707031 11.546875 5.277344 12.894531 4.945312 15.296875 4.429688 17.199219 4.398438L17.199219 6.800781zM17.199219 2L17.199219 3.601562C14.578125 3.65625 11.183594 4.535156 10.4375 4.738281 9.226562 4.199219 8.113281 3.847656 7.601562 3.699219L7.601562 2zM7.601562 4.535156C8.601562 4.84375 10.886719 5.632812 12.503906 6.800781L7.601562 6.800781zM24 16.03125C24 14.707031 22.921875 13.628906 21.601562 13.628906L12.800781 13.628906C10.773438 13.628906 10.371094 13.152344 9.644531 12.285156 9.558594 12.183594 9.46875 12.074219 9.375 11.964844 7.398438 9.6875 4.03125 9.347656 1.867188 11.207031 1.773438 11.285156 1.6875 11.367188 1.605469 11.453125.828125 12.242188.398438 13.339844.398438 14.546875L.398438 16.277344C.148438 16.65625 0 17.109375 0 17.601562 0 18.015625.113281 18.417969.320312 18.777344.121094 19.070312 0 19.421875 0 19.800781 0 20.722656.703125 21.480469 1.601562 21.578125L1.601562 23.601562C1.601562 23.820312 1.777344 24 2 24L2.800781 24C2.972656 24 3.125 23.890625 3.179688 23.726562L3.890625 21.601562 20.511719 21.601562 21.222656 23.726562C21.273438 23.890625 21.425781 24 21.601562 24L22.398438 24C22.621094 24 22.800781 23.820312 22.800781 23.601562L22.800781 21.488281C23.488281 21.246094 23.984375 20.597656 23.996094 19.828125L24 19.828125zM1.199219 14.546875C1.199219 13.566406 1.554688 12.640625 2.175781 12.011719 2.242188 11.945312 2.3125 11.878906 2.390625 11.8125 4.21875 10.238281 7.082031 10.542969 8.769531 12.488281 8.863281 12.59375 8.949219 12.699219 9.03125 12.796875 9.796875 13.710938 10.398438 14.429688 12.800781 14.429688L21.597656 14.429688C22.480469 14.429688 23.199219 15.148438 23.199219 16.027344L23.199219 18.304688C22.914062 18.113281 22.570312 18 22.199219 18L4.761719 18C4.761719 17.996094 4.761719 17.992188 4.765625 17.988281 4.785156 17.859375 4.800781 17.730469 4.800781 17.601562 4.800781 16.277344 3.722656 15.199219 2.398438 15.199219 2.300781 15.199219 2.207031 15.207031 2.113281 15.21875 2.082031 15.222656 2.054688 15.226562 2.027344 15.230469 1.957031 15.242188 1.890625 15.257812 1.824219 15.273438 1.796875 15.28125 1.769531 15.285156 1.738281 15.292969 1.65625 15.320312 1.574219 15.347656 1.492188 15.378906 1.488281 15.382812 1.480469 15.382812 1.476562 15.386719 1.386719 15.421875 1.296875 15.46875 1.210938 15.515625 1.207031 15.519531 1.203125 15.519531 1.199219 15.523438zM1.121094 16.648438C1.191406 16.554688 1.273438 16.46875 1.363281 16.390625 1.375 16.378906 1.390625 16.367188 1.40625 16.355469 1.476562 16.296875 1.558594 16.246094 1.640625 16.199219 1.667969 16.1875 1.691406 16.171875 1.71875 16.15625 1.796875 16.121094 1.878906 16.09375 1.960938 16.070312 1.992188 16.058594 2.019531 16.046875 2.050781 16.039062 2.164062 16.015625 2.28125 16 2.398438 16 3.28125 16 4 16.71875 4 17.601562 4 17.734375 3.980469 17.867188 3.945312 18L1.800781 18C1.484375 18 1.195312 18.089844.9375 18.230469.847656 18.03125.800781 17.820312.800781 17.601562.800781 17.28125.894531 16.984375 1.058594 16.734375zM2.511719 23.199219L2.398438 23.199219 2.398438 21.628906 3.039062 21.628906zM22 23.199219L21.886719 23.199219 21.355469 21.601562 22 21.601562zM22.199219 20.800781L1.800781 20.800781C1.25 20.800781.800781 20.351562.800781 19.800781.800781 19.601562.859375 19.414062.960938 19.257812L1.015625 19.203125 1.117188 19.105469C1.121094 19.105469 1.121094 19.101562 1.125 19.097656L1.167969 19.066406 1.164062 19.066406C1.191406 19.042969 1.21875 19.019531 1.25 19 1.261719 18.992188 1.273438 18.984375 1.289062 18.976562L1.328125 18.957031C1.359375 18.9375 1.386719 18.921875 1.417969 18.90625 1.441406 18.898438 1.460938 18.894531 1.484375 18.886719L1.523438 18.875C1.550781 18.867188 1.574219 18.855469 1.601562 18.851562 1.667969 18.835938 1.734375 18.828125 1.800781 18.828125L22.199219 18.828125C22.746094 18.828125 23.191406 19.269531 23.199219 19.816406 23.191406 20.359375 22.746094 20.800781 22.199219 20.800781zM22.199219 20.800781"/>
</svg>
