<svg xmlns="http://www.w3.org/2000/svg" width="32" height="32" viewBox="0 0 24 24">
    <path d="M 16.378906 4.800781 L 15.375 4.800781 C 14.382812 4.800781 13.519531 5.472656 13.277344 6.4375 L 12.6875 8.800781 L 20.910156 8.800781 L 20.320312 6.4375 C 20.082031 5.472656 19.21875 4.800781 18.226562 4.800781 L 17.179688 4.800781 C 16.972656 2.121094 14.730469 0 12 0 L 9.199219 0 C 5.230469 0 2 3.230469 2 7.199219 L 2 21.601562 L 0 21.601562 L 0 24 L 4.800781 24 L 4.800781 21.601562 L 2.800781 21.601562 L 2.800781 7.199219 C 2.800781 3.671875 5.671875 0.800781 9.199219 0.800781 L 12 0.800781 C 14.292969 0.800781 16.175781 2.5625 16.378906 4.800781 Z M 19.546875 6.628906 L 19.886719 8 L 13.710938 8 L 14.054688 6.628906 C 14.207031 6.023438 14.75 5.601562 15.375 5.601562 L 18.226562 5.601562 C 18.851562 5.601562 19.394531 6.023438 19.546875 6.628906 Z M 4 22.398438 L 4 23.199219 L 0.800781 23.199219 L 0.800781 22.398438 Z M 4 22.398438"/>
    <path d="M 22.996094 10.800781 L 21.804688 10.800781 C 21.25 10.800781 20.800781 11.25 20.800781 11.804688 L 20.800781 12.011719 C 19.457031 12.125 18.398438 13.253906 18.398438 14.621094 L 18.398438 15.601562 L 13.640625 15.601562 C 12.957031 15.601562 12.398438 16.15625 12.398438 16.839844 L 12.398438 22.800781 L 13.199219 22.800781 L 13.199219 24 L 15.601562 24 L 15.601562 22.800781 L 20.800781 22.800781 L 20.800781 24 L 23.199219 24 L 23.199219 22.800781 L 24 22.800781 L 24 11.804688 C 24 11.25 23.546875 10.800781 22.996094 10.800781 Z M 19.199219 14.621094 C 19.199219 13.691406 19.898438 12.925781 20.800781 12.8125 L 20.800781 15.601562 L 19.199219 15.601562 Z M 14.800781 23.199219 L 14 23.199219 L 14 22.800781 L 14.800781 22.800781 Z M 22.398438 23.199219 L 21.601562 23.199219 L 21.601562 22.800781 L 22.398438 22.800781 Z M 23.199219 22 L 13.199219 22 L 13.199219 16.839844 C 13.199219 16.597656 13.398438 16.398438 13.640625 16.398438 L 23.199219 16.398438 Z M 21.601562 15.601562 L 21.601562 11.804688 C 21.601562 11.691406 21.691406 11.601562 21.804688 11.601562 L 22.996094 11.601562 C 23.109375 11.601562 23.199219 11.691406 23.199219 11.804688 L 23.199219 15.601562 Z M 21.601562 15.601562"/>
</svg>
