<svg xmlns="http://www.w3.org/2000/svg" width="32" height="32" viewBox="0 0 24 24">
    <path d="M19.602 0H4.398v8h15.204zM18.8 7.2H5.199V.8h13.602zm0 0"/>
    <path d="M18.398 1.2H5.602v5.6h12.796zM17.602 6H6.398V2h11.204zm0 0M24 16.602a2.205 2.205 0 0 0-2.2-2.204c-.21 0-.41.032-.6.086v-1a3.885 3.885 0 0 0-3.884-3.882H6.684A3.885 3.885 0 0 0 2.8 13.484v1a2.173 2.173 0 0 0-.602-.086C.99 14.398 0 15.387 0 16.602c0 .718.36 1.386.941 1.793A2.402 2.402 0 0 0 3.2 21.602V22.8H4v.398a.398.398 0 0 0-.398.403c0 .218.175.398.398.398h.8a.4.4 0 0 0 0-.8v-.4h.802v-1.198h12.796V22.8h.801v.398a.401.401 0 0 0 0 .801H20c.223 0 .398-.18.398-.398a.398.398 0 0 0-.398-.403v-.398h.8v-1.2a2.402 2.402 0 0 0 2.259-3.206A2.193 2.193 0 0 0 24 16.602zm-20.398-1.7v-1.418a3.087 3.087 0 0 1 3.082-3.086h10.632c1.7 0 3.082 1.383 3.082 3.086v1.418c-.023.02-.043.043-.066.063a1.872 1.872 0 0 1-.094.086 1.873 1.873 0 0 1-.082.09 1.223 1.223 0 0 0-.066.082c-.027.03-.05.062-.074.093-.02.032-.04.059-.059.09-.023.031-.043.067-.062.098l-.055.101c-.016.032-.031.067-.047.098l-.047.117-.035.094c-.016.043-.027.09-.04.137a.624.624 0 0 0-.019.082c-.011.055-.02.11-.027.16l-.012.07a2.374 2.374 0 0 0-.011.239c0 .066.003.132.007.199H4.391a2.374 2.374 0 0 0-.004-.438l-.012-.07c-.008-.05-.016-.105-.027-.16a.624.624 0 0 0-.02-.082c-.012-.047-.023-.094-.039-.137l-.035-.094-.047-.117-.047-.098-.055-.101-.058-.098c-.02-.031-.043-.058-.063-.09a1.556 1.556 0 0 0-.074-.093 1.223 1.223 0 0 0-.066-.082 1.873 1.873 0 0 1-.082-.09c-.032-.028-.063-.059-.094-.086-.023-.02-.043-.043-.066-.063zM.8 16.602c0-.774.629-1.403 1.398-1.403.29 0 .559.09.781.239.086.058.165.128.235.203.023.023.043.05.062.078.047.054.086.113.125.176l.051.093c.031.067.059.133.078.203.012.032.024.063.028.094.027.102.043.207.043.317 0 .062-.008.128-.02.199h-.383c-.09 0-.176.004-.261.015-.012 0-.024.004-.036.004-.078.012-.156.024-.234.04 0 .003-.004.003-.008.003a2.4 2.4 0 0 0-1.328.832 1.406 1.406 0 0 1-.531-1.093zM4.8 22H4v-.398h.8zM20 22h-.8v-.398h.8zm.8-1.2H3.2a1.6 1.6 0 0 1-1.598-1.6c0-.22.043-.427.12-.618l.087-.148c.144-.258.347-.465.586-.606.007-.004.011-.008.02-.012.081-.05.17-.086.26-.12.048-.016.098-.036.153-.048a1.582 1.582 0 0 1 .371-.047h17.602a1.582 1.582 0 0 1 .37.047c.056.012.102.032.153.047.09.032.18.07.262.121l.02.008c.238.145.44.352.585.606l.086.152c.078.191.121.398.121.617a1.6 1.6 0 0 1-1.597 1.602zm1.864-3.105a2.377 2.377 0 0 0-1.324-.832c-.004 0-.008 0-.012-.004a2.181 2.181 0 0 0-.23-.039c-.012 0-.024-.004-.035-.004a1.923 1.923 0 0 0-.262-.015h-.383a1.226 1.226 0 0 1-.02-.2c0-.109.016-.214.04-.316a.607.607 0 0 1 .03-.09c.02-.07.048-.14.079-.207a1.426 1.426 0 0 1 .176-.27c.02-.027.039-.054.062-.077a1.386 1.386 0 0 1 1.016-.441c.77 0 1.398.628 1.398 1.402 0 .43-.203.832-.535 1.093zm0 0"/>
    <path d="M7.719 14.684a.396.396 0 0 0 .562 0 .4.4 0 0 0 0-.567l-.515-.515.515-.52a.4.4 0 0 0 0-.566.396.396 0 0 0-.562 0l-.801.8a.399.399 0 0 0 0 .567zm0 0"/>
    <path d="M5.316 14.684a.399.399 0 0 0 .567 0l.8-.801a.399.399 0 0 0 0-.566l-.8-.801a.4.4 0 0 0-.567.566l.52.52-.52.515a.4.4 0 0 0 0 .567zm0 0M12.918 15.484c.078.079.18.118.281.118a.4.4 0 0 0 .285-.684l-.52-.52.52-.515a.4.4 0 0 0-.566-.567l-.8.801a.399.399 0 0 0 0 .566zm0 0"/>
    <path d="M10.516 15.484a.405.405 0 0 0 .285.118c.101 0 .203-.04.281-.118l.8-.8a.399.399 0 0 0 0-.567l-.8-.8a.4.4 0 0 0-.566.566l.52.515-.52.52a.4.4 0 0 0 0 .566zm0 0M18.117 14.684a.399.399 0 0 0 .566 0 .4.4 0 0 0 0-.567l-.519-.515.52-.52a.4.4 0 0 0-.567-.566l-.8.8a.399.399 0 0 0 0 .567zm0 0"/>
    <path d="M15.719 14.684a.396.396 0 0 0 .562 0l.801-.801a.399.399 0 0 0 0-.566l-.8-.801a.396.396 0 0 0-.563 0 .4.4 0 0 0 0 .566l.515.52-.515.515a.4.4 0 0 0 0 .567zm0 0M7.2 5.2c.1 0 .206-.04.284-.118l.914-.918.918.918a.399.399 0 0 0 .567 0l.918-.918.918.918a.396.396 0 0 0 .562 0l.918-.918.918.918a.399.399 0 0 0 .566 0l.919-.918.914.918a.405.405 0 0 0 .285.117.4.4 0 0 0 .281-.684l-1.2-1.199a.4.4 0 0 0-.566 0l-.918.918-.914-.918a.4.4 0 0 0-.566 0L12 4.234l-.918-.918a.4.4 0 0 0-.566 0l-.914.918-.918-.918a.4.4 0 0 0-.567 0l-1.199 1.2a.4.4 0 0 0 .281.683zm0 0"/>
</svg>
