<svg xmlns="http://www.w3.org/2000/svg" width="32" height="32" viewBox="0 0 24 24">
    <path d="M 10 17.398438 L 0.398438 17.398438 C 0.179688 17.398438 0 17.578125 0 17.800781 L 0 19.601562 C 0 21.695312 1.703125 23.398438 3.800781 23.398438 L 6.601562 23.398438 C 8.695312 23.398438 10.398438 21.695312 10.398438 19.601562 L 10.398438 17.800781 C 10.398438 17.578125 10.222656 17.398438 10 17.398438 Z M 9.601562 19.601562 C 9.601562 21.253906 8.253906 22.601562 6.601562 22.601562 L 3.800781 22.601562 C 2.144531 22.601562 0.800781 21.253906 0.800781 19.601562 L 0.800781 18.199219 L 9.601562 18.199219 Z M 9.601562 19.601562"/>
    <path d="M 20.953125 6.601562 L 14.648438 6.601562 C 13.050781 6.601562 11.738281 7.835938 11.613281 9.398438 L 10 9.398438 L 10 4.503906 L 16.414062 2.722656 C 16.882812 2.59375 17.207031 2.164062 17.207031 1.683594 C 17.207031 1.085938 16.722656 0.601562 16.125 0.601562 L 3.191406 0.601562 C 2.972656 0.601562 2.792969 0.777344 2.792969 1 L 2.792969 2.59375 C 2.792969 3.699219 3.691406 4.601562 4.800781 4.601562 L 6 4.601562 L 6 9.398438 L 4.800781 9.398438 L 4.800781 8.199219 C 4.800781 7.980469 4.621094 7.800781 4.398438 7.800781 C 4.179688 7.800781 4 7.980469 4 8.199219 L 4 8.601562 L 3.199219 8.601562 C 2.980469 8.601562 2.800781 8.777344 2.800781 9 L 2.800781 13.398438 C 2.800781 13.621094 2.980469 13.800781 3.199219 13.800781 L 4 13.800781 L 4 14.199219 C 4 14.421875 4.179688 14.601562 4.398438 14.601562 C 4.621094 14.601562 4.800781 14.421875 4.800781 14.199219 L 4.800781 13 L 11.601562 13 L 11.601562 23 C 11.601562 23.222656 11.777344 23.398438 12 23.398438 L 23.601562 23.398438 C 23.820312 23.398438 24 23.222656 24 23 L 24 9.648438 C 24 7.96875 22.632812 6.601562 20.953125 6.601562 Z M 3.59375 2.59375 L 3.59375 1.398438 L 16.125 1.398438 C 16.28125 1.398438 16.40625 1.527344 16.40625 1.679688 C 16.40625 1.808594 16.320312 1.917969 16.199219 1.953125 L 9.546875 3.800781 L 4.800781 3.800781 C 4.132812 3.800781 3.59375 3.257812 3.59375 2.59375 Z M 3.601562 9.398438 L 4 9.398438 L 4 13 L 3.601562 13 Z M 4.800781 12.199219 L 4.800781 10.199219 L 6.398438 10.199219 C 6.621094 10.199219 6.800781 10.019531 6.800781 9.800781 L 6.800781 4.601562 L 9.199219 4.601562 L 9.199219 9.800781 C 9.199219 10.019531 9.378906 10.199219 9.601562 10.199219 L 11.601562 10.199219 L 11.601562 12.199219 Z M 12.398438 22.601562 L 12.398438 9.648438 C 12.398438 8.410156 13.410156 7.398438 14.648438 7.398438 L 20.953125 7.398438 C 22.191406 7.398438 23.199219 8.410156 23.199219 9.648438 L 23.199219 11 L 21.199219 11 C 20.980469 11 20.800781 11.179688 20.800781 11.398438 L 20.800781 19.398438 C 20.800781 19.621094 20.980469 19.800781 21.199219 19.800781 L 23.199219 19.800781 L 23.199219 22.601562 Z M 23.199219 19 L 21.601562 19 L 21.601562 11.800781 L 23.199219 11.800781 Z M 23.199219 19"/>
    <path d="M14.800781 14.601562C13.917969 14.601562 13.199219 15.316406 13.199219 16.199219 13.199219 17.082031 13.917969 17.800781 14.800781 17.800781 15.683594 17.800781 16.398438 17.082031 16.398438 16.199219 16.398438 15.316406 15.683594 14.601562 14.800781 14.601562zM14.800781 17C14.359375 17 14 16.640625 14 16.199219 14 15.757812 14.359375 15.398438 14.800781 15.398438 15.242188 15.398438 15.601562 15.757812 15.601562 16.199219 15.601562 16.640625 15.242188 17 14.800781 17zM14.800781 18.199219C13.917969 18.199219 13.199219 18.917969 13.199219 19.800781 13.199219 20.683594 13.917969 21.398438 14.800781 21.398438 15.683594 21.398438 16.398438 20.683594 16.398438 19.800781 16.398438 18.917969 15.683594 18.199219 14.800781 18.199219zM14.800781 20.601562C14.359375 20.601562 14 20.242188 14 19.800781 14 19.359375 14.359375 19 14.800781 19 15.242188 19 15.601562 19.359375 15.601562 19.800781 15.601562 20.242188 15.242188 20.601562 14.800781 20.601562zM14.800781 20.601562"/>
</svg>
