<svg xmlns="http://www.w3.org/2000/svg" width="32" height="32" viewBox="0 0 24 24">
    <path d="M0 3.2v16.402h.8V20.8H4v-1.2h16v1.2h3.2v-1.2h.8V3.2zm.8.8h16v.398H.8zm16 4.398h-.19c-.778 0-1.41.633-1.41 1.41v3.583c0 .777.632 1.41 1.41 1.41h.19v2.8H.8V5.2h16zm0 5.602h-.19a.61.61 0 0 1-.61-.61V9.81a.61.61 0 0 1 .61-.61h.19zM3.2 20H1.601v-.398h1.597zm.8-1.2H.8v-.402h16v.403zM22.398 20h-1.597v-.398h1.597zm.801-1.2h-5.597v-1.6h5.597zm-5.597-2.402V4h5.597v12.398zm0 0"/>
    <path d="M3.89 16h9.016a1.893 1.893 0 0 0 1.895-1.89V8.69c0-1.043-.848-1.89-1.895-1.89H3.891C2.848 6.8 2 7.648 2 8.69v5.418C2 15.152 2.848 16 3.89 16zM2.8 8.691c0-.601.49-1.09 1.09-1.09h9.016c.606 0 1.094.489 1.094 1.09v5.418c0 .602-.488 1.09-1.094 1.09H3.891a1.09 1.09 0 0 1-1.09-1.09zm0 0M18 4.398v4h4.8v-4zm4 3.204h-3.2V5.199H22zm0 0M18 11.2h2v-2h-2zm.8-1.2h.4v.398h-.4zm0 0M20.8 11.2h2v-2h-2zm.802-1.2H22v.398h-.398zm0 0M18 13.602h2v-2h-2zm.8-1.204h.4v.403h-.4zm0 0M20.8 13.602h2v-2h-2zm.802-1.204H22v.403h-.398zm0 0M18 16h2v-2h-2zm.8-1.2h.4v.4h-.4zm0 0M20.8 16h2v-2h-2zm.802-1.2H22v.4h-.398zm0 0"/>
    <path d="M4 8.398a.401.401 0 1 1-.802.003A.401.401 0 0 1 4 8.398zm0 0M6.398 8.398a.398.398 0 1 1-.796 0 .398.398 0 1 1 .796 0zm0 0M4 10.8a.4.4 0 1 1-.8-.003.4.4 0 0 1 .8.004zm0 0M6.398 10.8a.398.398 0 1 1-.796 0 .398.398 0 1 1 .796 0zm0 0M5.2 9.602a.4.4 0 1 1-.801-.004.4.4 0 0 1 .8.004zm0 0M7.602 9.602a.401.401 0 1 1-.802-.005.401.401 0 0 1 .802.005zm0 0M5.2 12c0 .223-.18.398-.4.398a.398.398 0 1 1 0-.796c.22 0 .4.175.4.398zm0 0M7.602 12c0 .223-.18.398-.403.398a.398.398 0 1 1 0-.796c.223 0 .403.175.403.398zm0 0M8.8 8.398a.401.401 0 1 1 0 0zm0 0M8.8 10.8A.401.401 0 1 1 8 10.797a.401.401 0 0 1 .802.005zm0 0M4 13.2a.401.401 0 1 1-.802.002.401.401 0 0 1 .802-.003zm0 0M6.398 13.2a.398.398 0 1 1-.796 0 .398.398 0 1 1 .796 0zm0 0M5.2 14.398a.401.401 0 1 1-.803.003.401.401 0 0 1 .802-.003zm0 0M7.602 14.398a.401.401 0 1 1 0 0zm0 0M8.8 13.2a.401.401 0 1 1 0 0zm0 0M11.2 8.398a.401.401 0 1 1-.803.003.401.401 0 0 1 .802-.003zm0 0M11.2 10.8a.4.4 0 1 1-.801-.003.4.4 0 0 1 .8.004zm0 0M10 9.602a.4.4 0 1 1-.8-.004.4.4 0 0 1 .8.004zm0 0M12.398 9.602a.398.398 0 1 1-.796 0 .398.398 0 1 1 .796 0zm0 0M10 12c0 .223-.18.398-.398.398a.398.398 0 1 1 0-.796c.218 0 .398.175.398.398zm0 0M12.398 12a.395.395 0 0 1-.398.398.395.395 0 0 1-.398-.398c0-.223.175-.398.398-.398.223 0 .398.175.398.398zm0 0M13.602 8.398a.401.401 0 1 1 0 0zm0 0M13.602 10.8a.401.401 0 1 1-.802-.004.401.401 0 0 1 .802.005zm0 0M11.2 13.2a.401.401 0 1 1-.803.002.401.401 0 0 1 .802-.003zm0 0M10 14.398a.401.401 0 1 1-.802.003.401.401 0 0 1 .802-.003zm0 0M12.398 14.398a.398.398 0 1 1-.796 0 .398.398 0 1 1 .796 0zm0 0M13.602 13.2a.401.401 0 1 1 0 0zm0 0"/>
</svg>
