<svg xmlns="http://www.w3.org/2000/svg" width="32" height="32" viewBox="0 0 24 24">
    <path d="M5.602 8.8C4.719 8.8 4 9.52 4 10.399 4 11.281 4.719 12 5.602 12c.878 0 1.597-.719 1.597-1.602 0-.878-.719-1.597-1.597-1.597zm0 2.4a.799.799 0 1 1 0 0zm0 0"/>
    <path d="M9.2 8c0-.309-.005-.613-.02-.914C9.09 4.75 8.656 3.03 8.04 1.87l-.227-.45-.024.02C7.156.47 6.375 0 5.602 0 4.824 0 4.043.465 3.41 1.445l-.023-.023-.239.469C2.54 3.055 2.11 4.773 2.02 7.098c-.012.3-.02.609-.02.922 0 .117.008.238.016.367.007.148.023.3.046.449l.051.445.024-.011c.183.847.539 1.66 1.07 2.402l.133.183a5.585 5.585 0 0 1 1.058 3.286v4.011c-1.109.688-1.972 2.332-2.277 4.391L2.055 24h1.144v-.398a.802.802 0 0 1 1.574-.215c.098.367.41.613.774.613h.105a.81.81 0 0 0 .778-.613.8.8 0 0 1 1.57.215V24h1.145l-.067-.457c-.305-2.059-1.164-3.707-2.277-4.39V15.14c0-1.184.363-2.32 1.058-3.286l.133-.183a6.407 6.407 0 0 0 1.07-2.402l.024.011.066-.57c.004-.012.004-.024.004-.04.012-.089.02-.183.028-.276A4.44 4.44 0 0 0 9.199 8zm-.813-.75c.004.086.004.18.004.27.004.152.007.304.007.46-1-.714-1.597-1.812-1.597-2.98 0-.793.27-1.555.773-2.195.45 1.132.746 2.672.813 4.445zm-5.578.23c.003-.082.003-.164.003-.242.067-1.765.364-3.3.813-4.433.504.64.773 1.402.773 2.195 0 1.168-.597 2.266-1.597 2.98 0-.168.004-.335.008-.5zm3.418 12.27c.703.34 1.32 1.238 1.714 2.434A1.582 1.582 0 0 0 7.2 22c-.719 0-1.351.484-1.547 1.2l-.109-.024A1.606 1.606 0 0 0 4 22c-.266 0-.52.066-.742.184.394-1.196 1.012-2.094 1.715-2.434l.226-.11v-4.038H6v4.039zm1.113-8.547l-.133.188a6.404 6.404 0 0 0-1.2 3.41h-.816a6.404 6.404 0 0 0-1.199-3.41l-.133-.188a5.56 5.56 0 0 1-.984-2.32C4.316 8.043 5.199 6.578 5.199 5 5.2 3.898 4.773 2.855 4 2.02 4.45 1.246 4.996.8 5.602.8c.601 0 1.152.446 1.597 1.22C6.426 2.855 6 3.898 6 5c0 1.578.883 3.043 2.324 3.883a5.48 5.48 0 0 1-.984 2.32zm0 0M21.602 4.8H12a.398.398 0 0 0-.398.4c0 .222.175.402.398.402h.8V22.25c0 .965.786 1.75 1.75 1.75h4.5c.966 0 1.75-.785 1.75-1.75V5.602h.802a.401.401 0 0 0 0-.801zM20 14h-.8a.4.4 0 0 0 0 .8h.8v.802h-.8a.398.398 0 1 0 0 .796h.8v.801h-.8a.401.401 0 0 0 0 .801h.8v.8h-.8a.4.4 0 0 0 0 .802h.8v.796h-.8a.401.401 0 0 0 0 .801h.8v1.051a.95.95 0 0 1-.95.95h-4.5a.95.95 0 0 1-.948-.95V21.2h.796a.401.401 0 1 0 0-.802h-.796v-.796h.796a.401.401 0 0 0 0-.8l-.796-.001V18h.796a.401.401 0 1 0 0-.8h-.796v-.802h.796a.398.398 0 1 0 0-.796h-.796V14.8h.796a.401.401 0 0 0 0-.8l-.796-.001V5.602H20zm0 0"/>
</svg>
