<svg xmlns="http://www.w3.org/2000/svg" width="32" height="32" viewBox="0 0 24 24">
    <path d="M6.2 20.207V15.91c.952-.82 1.6-2.598 1.6-4.71 0-.548-.05-1.087-.136-1.598h.016l-.078-.34a1.27 1.27 0 0 0-.028-.117l-.008-.036c-.039-.164-.078-.332-.125-.488a1.466 1.466 0 0 1 0-.844c.047-.156.086-.32.125-.488l.012-.035.024-.113.078-.34h-.016a9.77 9.77 0 0 0 .137-1.602C7.8 2.285 6.57 0 5 0 3.43 0 2.2 2.285 2.2 5.2c0 .546.05 1.085.136 1.6H2.32l.078.34c.008.04.016.075.028.114l.008.035c.039.168.078.332.125.488a1.449 1.449 0 0 1 0 .844 5.94 5.94 0 0 0-.125.488l-.008.036a1.27 1.27 0 0 0-.028.117l-.078.34h.016a9.686 9.686 0 0 0-.137 1.597c0 2.114.649 3.89 1.602 4.711v4.297a3.6 3.6 0 0 0-2.403 3.395V24h7.204v-.398a3.6 3.6 0 0 0-2.403-3.395zM3 5.199C3 2.605 4.055.801 5 .801c.945 0 2 1.804 2 4.398 0 .551-.055 1.09-.148 1.602H3.148A8.91 8.91 0 0 1 3 5.199zm3.66 3.602H3.34c.015-.063.027-.125.039-.188a.864.864 0 0 1 .02-.097c.027-.211.027-.422 0-.633-.004-.031-.016-.063-.02-.094-.012-.062-.024-.129-.04-.187H6.66c-.015.058-.023.12-.035.183l-.023.098c-.028.21-.028.422 0 .633a.72.72 0 0 1 .02.097c.01.063.023.125.038.188zM3 11.199c0-.55.055-1.09.148-1.597h3.704c.093.507.148 1.046.148 1.597 0 2.102-.691 3.688-1.457 4.211l-.023.016c-.047.031-.094.054-.137.078-.02.008-.035.016-.055.023-.035.016-.074.028-.11.04-.019.003-.038.011-.058.015a1.365 1.365 0 0 1-.125.016h-.074c-.04-.004-.082-.008-.121-.016-.02-.004-.04-.012-.059-.016-.035-.011-.074-.023-.11-.039-.019-.007-.034-.015-.054-.023a1.22 1.22 0 0 1-.16-.094C3.691 14.887 3 13.3 3 11.2zm3.602 12v-.8a.401.401 0 0 0-.801 0v.8h-.403v-.8a.398.398 0 1 0-.796 0v.8h-.403v-.8a.4.4 0 0 0-.8 0v.8H2.226A2.805 2.805 0 0 1 4.3 20.891l.3-.078v-4.465c.02.007.044.007.063.011a.606.606 0 0 0 .082.016c.082.016.164.023.246.023h.016c.082 0 .164-.007.246-.023.027-.004.055-.008.082-.016.02-.004.043-.004.062-.011v4.465l.301.078a2.805 2.805 0 0 1 2.074 2.308zm0 0"/>
    <path d="M5 2.8c-.883 0-1.602.72-1.602 1.598C3.398 5.281 4.118 6 5 6c.883 0 1.602-.719 1.602-1.602 0-.878-.72-1.597-1.602-1.597zm0 2.4a.799.799 0 1 1 0-1.598.799.799 0 1 1 0 1.597zm0 0M22.602 12.398a.401.401 0 0 0-.403-.398h-2.8v-2A.395.395 0 0 0 19 9.602h-.398V8.8a.402.402 0 0 0-.403-.403h-4a.401.401 0 0 0-.398.403v.8h-.403A.398.398 0 0 0 13 10v2h-2.8a.4.4 0 0 0-.4.398v2.403c0 .008.005.02.005.027 0 .008-.004.016 0 .027l1.199 8.797a.4.4 0 0 0 .394.348H21c.2 0 .371-.148.395-.348l1.203-8.797c0-.011-.004-.02-.004-.027 0-.008.008-.02.008-.027zm-8-3.199H17.8v.403h-3.2zm-.801 1.2h4.8V12h-4.8zM10.6 12.8h11.2v1.597H10.6zM15 15.199h2.398v3.2H15zm-3.25 8l-1.094-8H14.2v4H15v2.742a1.593 1.593 0 0 1-1.2-1.543.401.401 0 0 0-.8 0c0 1.188.867 2.176 2 2.368v.433zm4.05 0v-4h.802v4zm4.852 0h-3.254v-2.344c.692.18 1.204.801 1.204 1.543a.398.398 0 1 0 .796 0 2.404 2.404 0 0 0-2-2.363V19.2h.801v-4h3.543zm0 0"/>
</svg>
