<svg xmlns="http://www.w3.org/2000/svg" width="32" height="32" viewBox="0 0 24 24">
    <path d="M5.355 12.855h13.29v-5.14H5.355zm.86-4.285h11.57V12H6.215zm0 0M5.355 20.145h13.29V15H5.355zm.86-4.29h11.57v3.43H6.215zm0 0"/>
    <path d="M21.645 5.145h-5.618c1.098-.508 1.758-1.207 1.758-2a1.4 1.4 0 0 0-.078-.454l-.125-.382-.39.101c-.094.024-.192.043-.286.063A1.858 1.858 0 0 0 15.07.855c-.32 0-.629.09-.902.247a2.114 2.114 0 0 0-2.867-.445A2.43 2.43 0 0 0 9.645 0c-.989 0-1.86.602-2.235 1.484-.82-.207-1.707.075-2.187.766a1.548 1.548 0 0 0-.293.895c0 .792.66 1.492 1.758 2H2.354a.427.427 0 0 0 0 .855h.86v14.586c0 1.172.953 2.129 2.129 2.129h.011v.855c0 .239.196.43.43.43.238 0 .43-.191.43-.43v-.855h11.57v.855c0 .239.192.43.43.43a.43.43 0 0 0 .43-.43v-.855h.011a2.134 2.134 0 0 0 2.13-2.13V6h.859a.428.428 0 0 0 0-.855zm-7.082-3.293a1.005 1.005 0 0 1 1.508.793c-.169.027-.333.054-.505.078l-.18.023c-.257.031-.519.055-.78.07.003-.011 0-.02.003-.03.02-.118.032-.24.032-.356a2.49 2.49 0 0 0-.036-.383l-.023-.106c-.008-.027-.012-.058-.02-.09zM12.5 1.145a1.292 1.292 0 0 1 1.246.976c0 .012.008.024.012.04a1.213 1.213 0 0 1-.012.566c-.004.015-.008.035-.016.05-.003.028-.02.051-.027.075-.035 0-.07.003-.101.003-.137 0-.27-.003-.403-.007-.144 0-.289-.004-.433-.008-.13-.008-.258-.016-.387-.027l-.336-.024a2.261 2.261 0 0 0 .012-.629c0-.027-.008-.055-.012-.082-.008-.058-.016-.121-.031-.18l-.024-.09c-.015-.054-.031-.113-.05-.167-.008-.028-.02-.055-.028-.082-.023-.059-.05-.118-.078-.176-.008-.012-.012-.028-.02-.04.204-.132.442-.198.688-.198zM9.645.855a1.565 1.565 0 0 1 1.418.915c.019.035.03.07.046.105.02.055.04.117.055.176a.8.8 0 0 1 .02.094c.02.09.03.187.03.285 0 .086-.01.172-.027.257-.011-.003-.027-.003-.039-.003-.261-.043-.52-.086-.765-.141l-.254-.059c-.168-.043-.34-.082-.5-.129-.09-.023-.172-.05-.258-.078a11.487 11.487 0 0 1-.437-.144c-.082-.031-.16-.063-.243-.094a8.499 8.499 0 0 1-.379-.168c-.042-.016-.078-.035-.117-.055a1.58 1.58 0 0 1 1.45-.96zm-3.86 2.29c0-.137.047-.27.145-.41.21-.305.57-.47.945-.47.207 0 .422.055.617.16l.04.016c.16.09.331.172.507.254a7.562 7.562 0 0 0 .617.25c.035.016.07.028.11.043.191.067.39.13.597.188.067.02.137.035.203.054a15.1 15.1 0 0 0 1.317.282h.012l-.004.008.55.07h.008l.328.043v-.004c.176.02.352.027.532.039.07.008.14.012.21.016.239.015.481.02.723.023l-.012.023.762-.023H14l.242-.008v-.004l.254-.011c.215-.012.426-.028.637-.051.043-.004.09-.004.133-.012.257-.023.507-.058.754-.098.066-.007.128-.02.195-.03.11-.02.223-.036.336-.06l.277-.054v-.004l.059-.012c-.336.883-2.59 1.782-5.532 1.782-3.187 0-5.57-1.06-5.57-2zm14.145 17.44c0 .7-.57 1.27-1.274 1.27H5.344c-.703 0-1.274-.57-1.274-1.27V6h15.86zm0 0"/>
    <path d="M13.5 9.855h-3a.428.428 0 0 0-.43.43c0 .238.192.43.43.43h3c.238 0 .43-.192.43-.43a.428.428 0 0 0-.43-.43zm0 0M13.5 17.145h-3a.428.428 0 1 0 0 .855h3a.428.428 0 1 0 0-.855zm0 0"/>
</svg>
