<svg xmlns="http://www.w3.org/2000/svg" width="32" height="32" viewBox="0 0 24 24">
    <path d="M 19.730469 9.152344 L 4.269531 9.152344 C 2.8125 9.152344 1.628906 10.339844 1.628906 11.796875 C 1.628906 13.253906 2.8125 14.441406 4.269531 14.441406 L 19.730469 14.441406 C 21.1875 14.441406 22.371094 13.253906 22.371094 11.796875 C 22.371094 10.339844 21.1875 9.152344 19.730469 9.152344 Z M 19.730469 13.628906 L 4.269531 13.628906 C 3.261719 13.628906 2.441406 12.804688 2.441406 11.796875 C 2.441406 10.789062 3.261719 9.964844 4.269531 9.964844 L 19.730469 9.964844 C 20.738281 9.964844 21.558594 10.789062 21.558594 11.796875 C 21.558594 12.804688 20.738281 13.628906 19.730469 13.628906 Z M 19.730469 13.628906"/>
    <path d="M 24 11.796875 C 24 9.441406 22.085938 7.527344 19.730469 7.527344 L 14.644531 7.527344 C 14.644531 7.421875 14.605469 7.316406 14.523438 7.238281 L 13.867188 6.578125 C 14.582031 6.0625 15.050781 5.21875 15.050781 4.269531 C 15.050781 3.957031 14.996094 3.65625 14.902344 3.375 C 15.460938 3.179688 15.863281 2.65625 15.863281 2.035156 C 15.863281 1.25 15.226562 0.609375 14.441406 0.609375 C 13.820312 0.609375 13.292969 1.015625 13.101562 1.570312 C 12.820312 1.476562 12.515625 1.421875 12.203125 1.421875 C 11.890625 1.421875 11.589844 1.476562 11.304688 1.570312 C 11.113281 1.015625 10.589844 0.609375 9.964844 0.609375 C 9.179688 0.609375 8.542969 1.25 8.542969 2.035156 C 8.542969 2.65625 8.945312 3.179688 9.503906 3.375 C 9.410156 3.65625 9.355469 3.957031 9.355469 4.269531 C 9.355469 5.21875 9.824219 6.0625 10.542969 6.578125 L 9.882812 7.238281 C 9.800781 7.316406 9.761719 7.421875 9.761719 7.527344 L 4.269531 7.527344 C 1.914062 7.527344 0 9.441406 0 11.796875 C 0 14.078125 1.800781 15.945312 4.058594 16.058594 L 2.855469 22.914062 C 2.832031 23.03125 2.867188 23.152344 2.941406 23.246094 C 3.019531 23.335938 3.132812 23.390625 3.253906 23.390625 L 4.277344 23.390625 C 4.464844 23.390625 4.625 23.261719 4.671875 23.082031 L 6.425781 16.066406 L 17.574219 16.066406 L 19.328125 23.082031 C 19.375 23.261719 19.535156 23.390625 19.722656 23.390625 L 20.746094 23.390625 C 20.867188 23.390625 20.980469 23.335938 21.058594 23.246094 C 21.132812 23.152344 21.167969 23.03125 21.144531 22.914062 L 19.941406 16.058594 C 22.199219 15.945312 24 14.078125 24 11.796875 Z M 14.441406 1.421875 C 14.777344 1.421875 15.050781 1.699219 15.050781 2.035156 C 15.050781 2.339844 14.824219 2.589844 14.53125 2.636719 C 14.339844 2.367188 14.109375 2.132812 13.839844 1.945312 C 13.882812 1.652344 14.136719 1.421875 14.441406 1.421875 Z M 9.355469 2.035156 C 9.355469 1.699219 9.628906 1.421875 9.964844 1.421875 C 10.273438 1.421875 10.523438 1.652344 10.566406 1.945312 C 10.300781 2.132812 10.066406 2.367188 9.878906 2.636719 C 9.582031 2.589844 9.355469 2.339844 9.355469 2.035156 Z M 10.167969 4.269531 C 10.167969 3.148438 11.082031 2.238281 12.203125 2.238281 C 13.324219 2.238281 14.238281 3.148438 14.238281 4.269531 C 14.238281 5.394531 13.324219 6.304688 12.203125 6.304688 C 11.082031 6.304688 10.167969 5.394531 10.167969 4.269531 Z M 11.269531 7 C 11.28125 6.988281 11.285156 6.976562 11.292969 6.964844 C 11.578125 7.0625 11.882812 7.117188 12.203125 7.117188 C 12.523438 7.117188 12.828125 7.0625 13.113281 6.964844 C 13.121094 6.976562 13.125 6.988281 13.136719 7 L 13.660156 7.527344 L 10.746094 7.527344 Z M 3.957031 22.578125 L 3.738281 22.578125 L 4.882812 16.066406 L 5.585938 16.066406 Z M 20.042969 22.578125 L 18.414062 16.066406 L 19.117188 16.066406 L 20.261719 22.578125 Z M 19.730469 15.253906 L 4.269531 15.253906 C 2.363281 15.253906 0.8125 13.703125 0.8125 11.796875 C 0.8125 9.890625 2.363281 8.339844 4.269531 8.339844 L 19.730469 8.339844 C 21.636719 8.339844 23.1875 9.890625 23.1875 11.796875 C 23.1875 13.703125 21.636719 15.253906 19.730469 15.253906 Z M 19.730469 15.253906"/>
    <path d="M11.917969 4.558594L12.730469 5.371094C12.808594 5.453125 12.914062 5.492188 13.015625 5.492188 13.121094 5.492188 13.226562 5.453125 13.304688 5.371094 13.464844 5.214844 13.464844 4.957031 13.304688 4.796875L12.609375 4.101562 12.609375 3.050781C12.609375 2.824219 12.429688 2.644531 12.203125 2.644531 11.980469 2.644531 11.796875 2.824219 11.796875 3.050781L11.796875 4.269531C11.796875 4.324219 11.808594 4.375 11.828125 4.425781 11.847656 4.476562 11.878906 4.519531 11.917969 4.558594zM9.355469 11.796875C9.355469 12.132812 9.082031 12.40625 8.746094 12.40625 8.410156 12.40625 8.136719 12.132812 8.136719 11.796875 8.136719 11.460938 8.410156 11.1875 8.746094 11.1875 9.082031 11.1875 9.355469 11.460938 9.355469 11.796875zM16.269531 11.796875C16.269531 12.132812 15.996094 12.40625 15.660156 12.40625 15.324219 12.40625 15.050781 12.132812 15.050781 11.796875 15.050781 11.460938 15.324219 11.1875 15.660156 11.1875 15.996094 11.1875 16.269531 11.460938 16.269531 11.796875zM16.269531 11.796875"/>
</svg>
