<svg xmlns="http://www.w3.org/2000/svg" width="32" height="32" viewBox="0 0 24 24">
    <path d="M5.355469 12.855469L18.644531 12.855469 18.644531 7.714844 5.355469 7.714844zM6.214844 8.570312L17.785156 8.570312 17.785156 12 6.214844 12zM5.355469 20.144531L18.644531 20.144531 18.644531 15 5.355469 15zM6.214844 15.855469L17.785156 15.855469 17.785156 19.285156 6.214844 19.285156zM6.214844 15.855469"/>
    <path d="M 21.644531 5.144531 L 16.027344 5.144531 C 17.125 4.636719 17.785156 3.9375 17.785156 3.144531 C 17.785156 3 17.761719 2.855469 17.707031 2.691406 L 17.582031 2.308594 L 17.191406 2.410156 C 17.097656 2.433594 17 2.453125 16.90625 2.472656 C 16.785156 1.5625 16.011719 0.855469 15.070312 0.855469 C 14.75 0.855469 14.441406 0.945312 14.167969 1.101562 C 13.777344 0.609375 13.179688 0.285156 12.5 0.285156 C 12.0625 0.285156 11.648438 0.417969 11.300781 0.65625 C 10.863281 0.25 10.28125 0 9.644531 0 C 8.65625 0 7.785156 0.601562 7.410156 1.484375 C 6.589844 1.277344 5.703125 1.558594 5.222656 2.25 C 5.027344 2.53125 4.929688 2.832031 4.929688 3.144531 C 4.929688 3.9375 5.589844 4.636719 6.6875 5.144531 L 2.355469 5.144531 C 2.121094 5.144531 1.929688 5.335938 1.929688 5.570312 C 1.929688 5.808594 2.121094 6 2.355469 6 L 3.214844 6 L 3.214844 20.585938 C 3.214844 21.757812 4.167969 22.714844 5.34375 22.714844 L 5.355469 22.714844 L 5.355469 23.570312 C 5.355469 23.808594 5.550781 24 5.785156 24 C 6.023438 24 6.214844 23.808594 6.214844 23.570312 L 6.214844 22.714844 L 17.785156 22.714844 L 17.785156 23.570312 C 17.785156 23.808594 17.976562 24 18.214844 24 C 18.449219 24 18.644531 23.808594 18.644531 23.570312 L 18.644531 22.714844 L 18.65625 22.714844 C 19.828125 22.714844 20.785156 21.757812 20.785156 20.585938 L 20.785156 6 L 21.644531 6 C 21.878906 6 22.070312 5.808594 22.070312 5.570312 C 22.070312 5.335938 21.878906 5.144531 21.644531 5.144531 Z M 14.5625 1.851562 C 14.714844 1.761719 14.890625 1.714844 15.070312 1.714844 C 15.597656 1.714844 16.03125 2.125 16.070312 2.644531 C 15.902344 2.671875 15.738281 2.699219 15.566406 2.722656 C 15.507812 2.730469 15.445312 2.738281 15.386719 2.746094 C 15.128906 2.777344 14.867188 2.800781 14.605469 2.816406 C 14.609375 2.804688 14.605469 2.796875 14.609375 2.785156 C 14.628906 2.667969 14.640625 2.546875 14.640625 2.429688 C 14.640625 2.300781 14.625 2.171875 14.605469 2.046875 C 14.597656 2.011719 14.589844 1.976562 14.582031 1.941406 C 14.574219 1.914062 14.570312 1.882812 14.5625 1.851562 Z M 12.5 1.144531 C 13.019531 1.144531 13.46875 1.457031 13.671875 1.902344 C 13.703125 1.972656 13.726562 2.046875 13.746094 2.121094 C 13.746094 2.132812 13.753906 2.144531 13.757812 2.160156 C 13.777344 2.246094 13.785156 2.335938 13.785156 2.429688 C 13.785156 2.53125 13.769531 2.628906 13.746094 2.726562 C 13.742188 2.742188 13.738281 2.761719 13.730469 2.777344 C 13.726562 2.804688 13.710938 2.828125 13.703125 2.851562 C 13.667969 2.851562 13.632812 2.855469 13.601562 2.855469 C 13.464844 2.855469 13.332031 2.851562 13.199219 2.847656 C 13.054688 2.847656 12.910156 2.84375 12.765625 2.839844 C 12.636719 2.832031 12.507812 2.824219 12.378906 2.8125 C 12.265625 2.804688 12.15625 2.796875 12.042969 2.789062 C 12.0625 2.667969 12.070312 2.546875 12.070312 2.429688 C 12.070312 2.339844 12.066406 2.25 12.054688 2.160156 C 12.054688 2.132812 12.046875 2.105469 12.042969 2.078125 C 12.035156 2.019531 12.027344 1.957031 12.011719 1.898438 C 12.003906 1.867188 11.996094 1.839844 11.988281 1.808594 C 11.972656 1.753906 11.957031 1.695312 11.9375 1.640625 C 11.929688 1.613281 11.917969 1.585938 11.910156 1.558594 C 11.886719 1.5 11.859375 1.441406 11.832031 1.382812 C 11.824219 1.371094 11.820312 1.355469 11.8125 1.34375 C 12.015625 1.210938 12.253906 1.144531 12.5 1.144531 Z M 9.644531 0.855469 C 10.171875 0.855469 10.636719 1.121094 10.921875 1.523438 C 10.945312 1.554688 10.964844 1.589844 10.984375 1.625 C 11.015625 1.671875 11.042969 1.71875 11.0625 1.769531 C 11.082031 1.804688 11.09375 1.839844 11.109375 1.875 C 11.128906 1.929688 11.148438 1.992188 11.164062 2.050781 C 11.171875 2.082031 11.179688 2.113281 11.183594 2.144531 C 11.203125 2.234375 11.214844 2.332031 11.214844 2.429688 C 11.214844 2.515625 11.203125 2.601562 11.1875 2.6875 C 11.175781 2.683594 11.160156 2.683594 11.148438 2.683594 C 10.886719 2.640625 10.628906 2.597656 10.382812 2.542969 C 10.292969 2.523438 10.214844 2.503906 10.128906 2.484375 C 9.960938 2.441406 9.789062 2.402344 9.628906 2.355469 C 9.539062 2.332031 9.457031 2.304688 9.371094 2.277344 C 9.222656 2.230469 9.074219 2.183594 8.933594 2.132812 C 8.851562 2.101562 8.773438 2.070312 8.691406 2.039062 C 8.5625 1.984375 8.433594 1.929688 8.3125 1.871094 C 8.269531 1.855469 8.234375 1.835938 8.195312 1.816406 C 8.4375 1.246094 9.003906 0.855469 9.644531 0.855469 Z M 5.785156 3.144531 C 5.785156 3.007812 5.832031 2.875 5.929688 2.734375 C 6.140625 2.429688 6.5 2.265625 6.875 2.265625 C 7.082031 2.265625 7.296875 2.320312 7.492188 2.425781 L 7.53125 2.441406 C 7.691406 2.53125 7.863281 2.613281 8.039062 2.695312 C 8.085938 2.714844 8.132812 2.734375 8.179688 2.757812 C 8.332031 2.824219 8.492188 2.886719 8.65625 2.945312 C 8.691406 2.960938 8.726562 2.972656 8.765625 2.988281 C 8.957031 3.054688 9.15625 3.117188 9.363281 3.175781 C 9.429688 3.195312 9.5 3.210938 9.566406 3.230469 C 9.714844 3.269531 9.863281 3.304688 10.015625 3.339844 C 10.097656 3.359375 10.183594 3.378906 10.269531 3.394531 C 10.46875 3.4375 10.675781 3.476562 10.882812 3.511719 C 10.886719 3.511719 10.890625 3.511719 10.894531 3.511719 L 10.890625 3.519531 L 11.441406 3.589844 C 11.445312 3.589844 11.445312 3.589844 11.449219 3.589844 L 11.777344 3.632812 L 11.777344 3.628906 C 11.953125 3.648438 12.128906 3.65625 12.308594 3.667969 C 12.378906 3.675781 12.449219 3.679688 12.519531 3.683594 C 12.757812 3.699219 13 3.703125 13.242188 3.707031 L 13.230469 3.730469 L 13.992188 3.707031 C 13.996094 3.707031 13.996094 3.707031 14 3.707031 L 14.242188 3.699219 L 14.242188 3.695312 C 14.328125 3.691406 14.410156 3.6875 14.496094 3.683594 C 14.710938 3.671875 14.921875 3.65625 15.132812 3.632812 C 15.175781 3.628906 15.222656 3.628906 15.265625 3.621094 C 15.523438 3.597656 15.773438 3.5625 16.019531 3.523438 C 16.085938 3.515625 16.148438 3.503906 16.214844 3.492188 C 16.324219 3.472656 16.4375 3.457031 16.550781 3.433594 L 16.828125 3.378906 L 16.828125 3.375 C 16.847656 3.371094 16.867188 3.367188 16.886719 3.363281 C 16.550781 4.246094 14.296875 5.144531 11.355469 5.144531 C 8.167969 5.144531 5.785156 4.085938 5.785156 3.144531 Z M 19.929688 20.585938 C 19.929688 21.285156 19.359375 21.855469 18.65625 21.855469 L 5.34375 21.855469 C 4.640625 21.855469 4.070312 21.285156 4.070312 20.585938 L 4.070312 6 L 19.929688 6 Z M 19.929688 20.585938"/>
    <path d="M13.5 9.855469L10.5 9.855469C10.261719 9.855469 10.070312 10.046875 10.070312 10.285156 10.070312 10.523438 10.261719 10.714844 10.5 10.714844L13.5 10.714844C13.738281 10.714844 13.929688 10.523438 13.929688 10.285156 13.929688 10.046875 13.738281 9.855469 13.5 9.855469zM13.5 17.144531L10.5 17.144531C10.261719 17.144531 10.070312 17.335938 10.070312 17.570312 10.070312 17.808594 10.261719 18 10.5 18L13.5 18C13.738281 18 13.929688 17.808594 13.929688 17.570312 13.929688 17.335938 13.738281 17.144531 13.5 17.144531zM13.5 17.144531"/>
</svg>
