<svg xmlns="http://www.w3.org/2000/svg" width="32" height="32" viewBox="0 0 24 24">
    <path d="M20.398 8.8h-.796c-.665 0-1.204.54-1.204 1.2 0 .66.54 1.2 1.204 1.2v.8c0 .555-.38 1.016-.891 1.152a1.194 1.194 0 0 0-1.11-.754H13.2V12h3.258c.633 0 1.145-.512 1.145-1.14V1.14c0-.628-.512-1.14-1.145-1.14H7.543C6.91 0 6.398.512 6.398 1.14v9.72c0 .628.512 1.14 1.145 1.14h3.258v.398H6.398c-.503 0-.933.313-1.109.754A1.194 1.194 0 0 1 4.4 12v-.8c.663 0 1.203-.54 1.203-1.2 0-.66-.54-1.2-1.204-1.2h-.796c-.664 0-1.204.54-1.204 1.2 0 .66.54 1.2 1.204 1.2v.8c0 .988.718 1.805 1.66 1.965.156.484.605.836 1.136.836h4V16h.403v1.2h.8v.8h-.8v.48l-4.89 1.13c-.013.003-.02.011-.032.015-.027.008-.05.02-.074.031-.024.016-.043.028-.063.043-.02.016-.035.035-.05.055-.016.02-.032.039-.044.062a.522.522 0 0 0-.043.149c0 .012-.003.023-.003.035v.422A1.794 1.794 0 0 0 4 22.199C4 23.191 4.809 24 5.8 24c.993 0 1.802-.809 1.802-1.8 0-.782-.504-1.442-1.204-1.688v-.196l4.403-1.011v.129l-.969.968c-.012 0-.02-.004-.031-.004-.992 0-1.801.809-1.801 1.801C8 23.191 8.809 24 9.8 24c.993 0 1.802-.809 1.802-1.8 0-.66-.364-1.231-.891-1.544l.656-.656h1.266l.656.656c-.527.313-.89.883-.89 1.543 0 .992.808 1.801 1.8 1.801S16 23.191 16 22.2c0-.993-.809-1.802-1.8-1.802-.012 0-.02.004-.032.004l-.969-.968v-.13l4.403 1.012v.196c-.7.246-1.204.906-1.204 1.687 0 .992.809 1.801 1.801 1.801.992 0 1.801-.809 1.801-1.8 0-.923-.703-1.68-1.602-1.778V20c0-.012-.003-.023-.003-.035a.553.553 0 0 0-.043-.149c-.012-.023-.028-.043-.043-.062-.016-.02-.032-.04-.051-.055-.02-.015-.04-.027-.063-.043a.423.423 0 0 0-.074-.031c-.012-.004-.02-.012-.031-.016L13.2 18.48V18h-.802v-.8h.801V16h.403v-1.035l1.316 1.316c.035.04.078.067.129.09.05.02.101.027.152.027h1.2a.398.398 0 1 0 0-.796h-1.032l-.8-.801h3.035c.53 0 .98-.352 1.136-.836A1.994 1.994 0 0 0 20.398 12v-.8c.665 0 1.204-.54 1.204-1.2 0-.66-.54-1.2-1.204-1.2zM3.2 10c0-.219.18-.398.403-.398h.796c.223 0 .403.18.403.398 0 .219-.18.398-.403.398h-.796A.401.401 0 0 1 3.199 10zm3.602 12.2c0 .55-.45 1-1 1-.551 0-1-.45-1-1 0-.552.449-1 1-1 .55 0 1 .448 1 1zm3 1c-.551 0-1-.45-1-1 0-.552.449-1 1-1 .55 0 1 .448 1 1 0 .55-.45 1-1 1zm5.398-1c0 .55-.449 1-1 1-.55 0-1-.45-1-1 0-.552.45-1 1-1 .551 0 1 .448 1 1zm4 0c0 .55-.449 1-1 1-.55 0-1-.45-1-1 0-.552.45-1 1-1 .551 0 1 .448 1 1zm-7.597-3.4h.796v.4h-.796zm-2-7.6H7.543a.334.334 0 0 1-.164-.048.397.397 0 0 0-.18-.754V8.801a.401.401 0 0 0 0-.8V6.397a.398.398 0 1 0 0-.796V4a.401.401 0 1 0 0-.8V1.601a.397.397 0 1 0 .18-.754A.334.334 0 0 1 7.543.8h8.914c.063 0 .113.02.164.047a.397.397 0 0 0 .18.754v1.597a.401.401 0 0 0 0 .8v1.603a.398.398 0 1 0 0 .796V8a.401.401 0 1 0 0 .8v1.598a.397.397 0 1 0-.18.754.334.334 0 0 1-.164.047zm2 .8h.796v.398h-.796zm1.199 3.2h-1.602v-.4h1.602zm-.403 1.198h-.796V16h.796zM17.602 14H6.398a.4.4 0 0 1 0-.8h11.204a.401.401 0 0 1 0 .8zm2.796-3.602h-.796a.401.401 0 0 1-.403-.398c0-.219.18-.398.403-.398h.796c.223 0 .403.18.403.398 0 .219-.18.398-.403.398zm0 0"/>
    <path d="M10 1.2a.401.401 0 1 1-.802.002.401.401 0 0 1 .802-.003zm0 0M10 3.602a.4.4 0 1 1-.8-.004.4.4 0 0 1 .8.004zm0 0M8.8 2.398a.401.401 0 1 1 0 0zm0 0M11.2 2.398a.401.401 0 1 1-.803.003.401.401 0 0 1 .802-.003zm0 0M8.8 4.8A.401.401 0 1 1 8 4.797.401.401 0 0 1 8.8 4.8zm0 0M11.2 4.8a.4.4 0 1 1-.801-.003.4.4 0 0 1 .8.004zm0 0M12.398 1.2a.398.398 0 1 1-.796 0 .398.398 0 1 1 .796 0zm0 0M14.8 1.2a.401.401 0 1 1 0 0zm0 0M12.398 3.602a.398.398 0 1 1-.796 0 .398.398 0 1 1 .796 0zm0 0M14.8 3.602A.401.401 0 1 1 14 3.597a.401.401 0 0 1 .802.005zm0 0M13.602 2.398a.401.401 0 1 1 0 0zm0 0M16 2.398a.401.401 0 1 1-.802.003.401.401 0 0 1 .802-.003zm0 0M13.602 4.8a.401.401 0 1 1-.802-.004.401.401 0 0 1 .802.005zm0 0M16 4.8a.4.4 0 1 1-.8-.003.4.4 0 0 1 .8.004zm0 0M10 6c0 .223-.18.398-.398.398a.398.398 0 1 1 0-.796c.218 0 .398.175.398.398zm0 0M10 8.398a.401.401 0 1 1-.802.003.401.401 0 0 1 .802-.003zm0 0M8.8 7.2a.401.401 0 1 1 0 0zm0 0M11.2 7.2a.401.401 0 1 1-.803.002.401.401 0 0 1 .802-.003zm0 0M8.8 9.602A.401.401 0 1 1 8 9.597a.401.401 0 0 1 .802.005zm0 0M11.2 9.602a.4.4 0 1 1-.801-.004.4.4 0 0 1 .8.004zm0 0M12.398 6a.395.395 0 0 1-.398.398.395.395 0 0 1-.398-.398c0-.223.175-.398.398-.398.223 0 .398.175.398.398zm0 0M14.8 6c0 .223-.179.398-.402.398a.398.398 0 1 1 0-.796c.223 0 .403.175.403.398zm0 0M12.398 8.398a.398.398 0 1 1-.796 0 .398.398 0 1 1 .796 0zm0 0M14.8 8.398a.401.401 0 1 1 0 0zm0 0M13.602 7.2a.401.401 0 1 1 0 0zm0 0M16 7.2a.401.401 0 1 1-.802.002.401.401 0 0 1 .802-.003zm0 0M13.602 9.602a.401.401 0 1 1-.802-.005.401.401 0 0 1 .802.005zm0 0M16 9.602a.4.4 0 1 1-.8-.004.4.4 0 0 1 .8.004zm0 0M10 10.8a.4.4 0 1 1-.8-.003.4.4 0 0 1 .8.004zm0 0M12.398 10.8a.398.398 0 1 1-.796 0 .398.398 0 1 1 .796 0zm0 0M14.8 10.8a.401.401 0 1 1-.801-.004.401.401 0 0 1 .802.005zm0 0"/>
</svg>
