<svg xmlns="http://www.w3.org/2000/svg" width="32" height="32" viewBox="0 0 24 24">
    <path d="M20.145 8.145a.43.43 0 0 1-.86 0c0-.239.192-.43.43-.43a.43.43 0 0 1 .43.43zm0 0M20.145 11.57a.43.43 0 0 1-.43.43.428.428 0 1 1 0-.855.43.43 0 0 1 .43.425zm0 0M20.145 15a.43.43 0 0 1-.43.43.428.428 0 0 1-.43-.43c0-.238.192-.43.43-.43a.43.43 0 0 1 .43.43zm0 0M16.285 8.145a.428.428 0 1 1-.855-.004.428.428 0 0 1 .855.004zm0 0M16.285 11.57a.428.428 0 1 1-.857.003.428.428 0 0 1 .857-.003zm0 0M16.285 15a.428.428 0 1 1-.855 0 .428.428 0 1 1 .855 0zm0 0M12.43 8.145a.428.428 0 0 1-.43.425.428.428 0 1 1 0-.855c.238 0 .43.191.43.43zm0 0M12.43 11.57c0 .239-.192.43-.43.43a.428.428 0 1 1 0-.855c.238 0 .43.19.43.425zm0 0M12.43 15c0 .238-.192.43-.43.43a.428.428 0 0 1-.43-.43c0-.238.192-.43.43-.43s.43.192.43.43zm0 0M8.57 8.145a.427.427 0 1 1-.853-.002.427.427 0 0 1 .853.002zm0 0M8.57 11.57a.428.428 0 1 1-.855.004.428.428 0 0 1 .855-.004zm0 0M8.57 15a.428.428 0 1 1-.855 0 .428.428 0 1 1 .855 0zm0 0M4.715 8.145a.43.43 0 0 1-.86 0 .43.43 0 0 1 .43-.43c.238 0 .43.191.43.43zm0 0M4.715 11.57c0 .239-.192.43-.43.43a.43.43 0 0 1-.43-.43.43.43 0 0 1 .86 0zm0 0M4.715 15c0 .238-.192.43-.43.43a.43.43 0 0 1-.43-.43.43.43 0 0 1 .43-.43c.238 0 .43.192.43.43zm0 0M20.145 18.43a.43.43 0 0 1-.86 0c0-.239.192-.43.43-.43a.43.43 0 0 1 .43.43zm0 0M16.285 18.43a.428.428 0 1 1-.855-.004.428.428 0 0 1 .855.004zm0 0M12.43 18.43a.428.428 0 0 1-.43.425.428.428 0 1 1 0-.855c.238 0 .43.191.43.43zm0 0M8.57 18.43a.427.427 0 1 1-.853-.002.427.427 0 0 1 .853.002zm0 0M4.715 18.43a.43.43 0 0 1-.86 0 .43.43 0 0 1 .43-.43c.238 0 .43.191.43.43zm0 0"/>
    <path d="M23.102 2.203c0-.012-.004-.027-.004-.039a3.07 3.07 0 0 0-.106-.383c-.012-.043-.027-.082-.043-.12a2.931 2.931 0 0 0-.246-.474c-.039-.058-.078-.117-.117-.171a3.568 3.568 0 0 0-.191-.223l-.118-.117a2.02 2.02 0 0 0-.199-.164 1.892 1.892 0 0 0-.18-.13c-.05-.03-.101-.062-.152-.089a1.96 1.96 0 0 0-.293-.129.972.972 0 0 0-.113-.043 2.433 2.433 0 0 0-.371-.086l-.035-.012c-.016 0-.032 0-.047-.003a.342.342 0 0 1-.063-.008c-.039-.004-.078-.004-.117-.004C20.66.004 20.617 0 20.57 0c-.07 0-.136.008-.203.012-.035.004-.066.004-.097.008a1.813 1.813 0 0 0-.254.042c-.012.004-.028.004-.04.008a2.506 2.506 0 0 0-1.093.563c-.004.004-.008.004-.008.008-.078.07-.156.144-.227.222a.315.315 0 0 1-.238.114c-.078-.004-.125-.024-.168-.075A2.565 2.565 0 0 0 16.285 0c-.754 0-1.469.328-1.957.906-.09.102-.281.102-.371-.004A2.565 2.565 0 0 0 12 0c-.754 0-1.469.328-1.957.906-.09.102-.281.102-.371-.004A2.565 2.565 0 0 0 7.715 0C6.96 0 6.246.328 5.758.902c-.043.051-.098.086-.168.075a.315.315 0 0 1-.238-.114 3.047 3.047 0 0 0-.227-.222c0-.004-.004-.004-.004-.004A2.533 2.533 0 0 0 3.715.016h-.043a2.615 2.615 0 0 0-.25-.012c-.04 0-.082 0-.121.004-.043 0-.082 0-.125.004a.302.302 0 0 1-.059.008c-.015.003-.031.003-.05.003l-.04.012c-.125.02-.246.047-.363.086a2.719 2.719 0 0 0-.41.172c-.05.027-.102.059-.152.094-.059.035-.118.078-.176.117-.07.055-.137.113-.203.172-.04.039-.078.074-.114.113-.066.074-.132.148-.195.227-.039.054-.078.109-.113.168a2.857 2.857 0 0 0-.25.473c-.016.042-.031.081-.043.124a3.07 3.07 0 0 0-.106.383c0 .012-.004.027-.004.04a2.56 2.56 0 0 0-.043.46v19.191h.86v1.715c0 .239.191.43.43.43H3.43a.428.428 0 0 0 .398-.27l.746-1.875h14.852l.746 1.875c.066.165.223.27.398.27h1.285c.239 0 .43-.191.43-.43v-1.715h.86V2.665a2.56 2.56 0 0 0-.043-.462zm-17.5-.367c.316-.004.601-.137.808-.375a1.71 1.71 0 0 1 2.61 0c.414.488 1.261.488 1.675 0a1.71 1.71 0 0 1 2.61 0c.418.488 1.261.488 1.675 0a1.71 1.71 0 0 1 2.61 0c.207.238.492.371.808.375.352-.004.66-.145.891-.402a1.72 1.72 0 0 1 1.098-.567h.011c.063-.004.122-.008.184-.008.023 0 .043 0 .066.004.04 0 .079.004.118.008.07.008.136.024.203.04a1.28 1.28 0 0 1 .367.137c.004-.001.008.003.016.003.554.3.933.918.933 1.613v2.05H1.715v-2.05c0-.695.379-1.312.937-1.613 0 0 .004 0 .008-.004.082-.043.172-.082.266-.11.031-.011.066-.015.097-.027.07-.015.137-.031.211-.039L3.352.86h.066c.062 0 .121 0 .184.008h.015c.418.047.809.246 1.094.567.23.257.562.398.89.402zM3.137 23.145H2.57v-1.29h1.082zm18.293 0h-.567l-.515-1.29h1.082zM22.285 21H1.715V5.57h20.57zm0 0"/>
</svg>
