<svg xmlns="http://www.w3.org/2000/svg" width="32" height="32" viewBox="0 0 24 24">
    <path d="M6.23 18.574a.404.404 0 0 0-.332-.172.399.399 0 0 0-.332.172l-1.191 1.684c-.773 1.074-.758 2.332.043 3.129.406.41.945.613 1.48.613.536 0 1.075-.203 1.48-.613.563-.559 1.028-1.555.048-3.125zm.575 4.238c-.5.5-1.313.5-1.813 0-.515-.515-.5-1.332.043-2.082l.863-1.218.848 1.199c.828 1.332.25 1.91.059 2.102zm0 0M22.984 10.578h-1.222v-.816a.406.406 0 0 0-.407-.407h-2.44a.408.408 0 0 0-.407.407v.816H12.19a1.007 1.007 0 0 1-1.004-1.008V4.477H12a.41.41 0 0 0 .406-.41V1.628a.41.41 0 0 0-.406-.41h-.813V0H3.864v1.219h-.812a.407.407 0 0 0-.406.41v2.437c0 .227.18.41.406.41h.812v7.497c0 1.816.825 3.445 2.117 4.535.047.062.11.113.184.144a5.907 5.907 0 0 0 3.625 1.246h8.719v.813c0 .227.183.41.406.41h2.441a.407.407 0 0 0 .407-.41v-.813h1.222zM4.676.813h5.695v.406H4.676zM3.457 3.66V2.035h8.137V3.66zm6.332 13.426a5.07 5.07 0 0 1-3.078-1.043v-.992h1.223c.222 0 .406-.18.406-.406v-1.22h1.219a.407.407 0 0 0 .406-.41.406.406 0 0 0-.406-.406H7.934a.41.41 0 0 0-.41.407v1.222h-1.22a.406.406 0 0 0-.406.407v.636a5.083 5.083 0 0 1-1.222-3.308V4.477h5.695V9.57c0 1.004.816 1.82 1.82 1.82h6.317v5.696zm11.16 1.219h-1.625v-8.137h1.625zm1.219-1.22h-.406v-5.694h.406zm0 0M2.762 16.797l-.813.812a.408.408 0 0 0 .574.578l.817-.816a.408.408 0 0 0-.578-.574zm0 0M3.05 15.863a.408.408 0 0 0-.405-.406H1.422a.408.408 0 0 0 0 .816h1.223a.41.41 0 0 0 .406-.41zm0 0M2.523 13.543a.403.403 0 0 0-.574 0 .403.403 0 0 0 0 .574l.813.817a.414.414 0 0 0 .578 0 .415.415 0 0 0 0-.579zm0 0"/>
</svg>
