<svg xmlns="http://www.w3.org/2000/svg" width="32" height="32" viewBox="0 0 24 24">
    <path d="M9.965 19.527h2.441a.407.407 0 0 0 .406-.41.406.406 0 0 0-.406-.406H9.965a.408.408 0 0 0 0 .816zm0 0M13.629 19.527a.412.412 0 0 0 .406-.41.43.43 0 0 0-.12-.289.425.425 0 0 0-.571 0 .402.402 0 0 0-.004.578c.074.074.18.121.289.121zm0 0M12 19.934h-.813a.406.406 0 1 0 0 .813H12a.406.406 0 1 0 0-.813zm0 0M9.965 20.746c.105 0 .21-.043.289-.117a.425.425 0 0 0 .117-.29.425.425 0 0 0-.117-.288.423.423 0 0 0-.578 0 .425.425 0 0 0-.117.289c0 .11.046.21.117.289.078.07.183.117.289.117zm0 0"/>
    <path d="M20.95 3.254c-3.805 0-7.083 2.976-8.544 7.234V.406a.406.406 0 1 0-.812 0v10.082C10.133 6.23 6.855 3.254 3.05 3.254a.406.406 0 1 0 0 .812c3.613 0 6.707 3.012 7.953 7.247C9.414 9.16 6.625 7.73 3.457 7.73a.406.406 0 1 0 0 .813c3.555 0 6.578 1.95 7.68 4.656-1.367-1.097-3.727-1.808-6.457-1.808a.407.407 0 1 0 0 .812c3.453 0 6.41 1.266 6.851 2.848H5.898v3.254h1.063L8.43 24h7.14l1.47-5.695h1.062V15.05h-5.633c.441-1.582 3.398-2.848 6.851-2.848a.407.407 0 1 0 0-.812c-2.73 0-5.09.71-6.457 1.808 1.102-2.707 4.125-4.656 7.68-4.656a.406.406 0 1 0 0-.812c-3.168 0-5.957 1.43-7.547 3.581 1.246-4.234 4.34-7.246 7.953-7.246a.406.406 0 1 0 0-.812zm-6.012 19.933H9.061l-1.261-4.882h8.398zm2.351-5.695H6.711v-1.629h10.578zm0 0"/>
</svg>
