<svg xmlns="http://www.w3.org/2000/svg" width="32" height="32" viewBox="0 0 24 24">
    <path d="M23.602 5.2h-2V1.601a.402.402 0 0 0-.403-.403h-2.398V.4A.401.401 0 0 0 18.398 0h-2A.4.4 0 0 0 16 .398V1.2h-.8V.4A.4.4 0 0 0 14.8 0h-2a.401.401 0 0 0-.402.398V1.2H1.602a.402.402 0 0 0-.403.403V10c0 .223.18.398.403.398h2.796v3.204H4.2a1 1 0 1 0 0 2h1v.796a.401.401 0 0 0 .8 0l.001-.796h1a1 1 0 1 0 0-2h-.2v-3.204h2.4A.398.398 0 0 0 9.601 10V8.398H12.8v9.204H2.27A2.271 2.271 0 0 0 0 19.872v1.858C0 22.98 1.02 24 2.27 24H21.2c.222 0 .402-.18.402-.398V10.8h2c.218 0 .398-.18.398-.403V5.602a.401.401 0 0 0-.398-.403zM16.8.8H18v.4h-1.2zm-3.602 0h1.2v.4h-1.2zM2 2h1.602v5.2H2zm5.2 12.602a.2.2 0 0 1-.2.199H4.2a.2.2 0 1 1 0-.402H7c.11 0 .2.09.2.203zm-1.2-1h-.8v-3.204H6zm3.2-6A.398.398 0 0 0 8.8 8v1.602H2V8h2c.223 0 .398-.18.398-.398V2h16.403v5.602zM8 18.398v.801H3.2v-.8zM20.8 23.2H2.27A1.467 1.467 0 0 1 .8 21.73v-1.859a1.47 1.47 0 0 1 1.47-1.473h.128v1.204c0 .218.18.398.403.398h5.597c.223 0 .403-.18.403-.398v-1.204h4.398a.398.398 0 0 0 .403-.398V8.398H20.8zM21.603 10V6h1.597v.398h-.8a.401.401 0 0 0 0 .801h.8v.403h-.8a.398.398 0 1 0 0 .796h.8v.403h-.8a.4.4 0 0 0 0 .8h.8V10zm0 0"/>
    <path d="M19.18 10.02c-.004 0-.004 0-.008-.004a2.791 2.791 0 0 0-3.945 0c-.004.004-.004.004-.008.004 0 .003 0 .003-.004.007A2.784 2.784 0 0 0 14.398 12c0 .77.313 1.469.817 1.973.004.004.004.004.004.007.004 0 .008 0 .008.004a2.791 2.791 0 0 0 3.945 0c.004-.004.008-.004.008-.004 0-.003.004-.003.004-.007A2.784 2.784 0 0 0 20 12c0-.77-.313-1.469-.816-1.973 0-.004-.004-.004-.004-.007zm-.38 2.378h.36c-.05.258-.152.493-.293.704l-.254-.254a.4.4 0 0 0-.566.566l.254.254c-.211.137-.446.238-.7.293v-.36a.401.401 0 0 0-.8 0v.36a2.114 2.114 0 0 1-.703-.293l.254-.254a.4.4 0 0 0-.567-.566l-.254.254a1.998 1.998 0 0 1-.289-.704h.36a.398.398 0 1 0 0-.796h-.36c.051-.258.153-.493.29-.704l.253.254a.399.399 0 0 0 .567 0 .4.4 0 0 0 0-.566l-.254-.254c.21-.137.449-.238.703-.293v.36a.401.401 0 1 0 .8 0v-.36c.254.055.489.156.7.293l-.254.254a.4.4 0 0 0 .566.566l.254-.254c.14.211.242.446.293.704h-.36a.398.398 0 1 0 0 .796zm0 0M15.602 16H14.8a.401.401 0 1 0 0 .8h.8a.401.401 0 0 0 0-.8zm0 0M15.602 17.2H14.8a.401.401 0 0 0 0 .8h.8a.4.4 0 0 0 0-.8zm0 0M19.602 16H18.8a.401.401 0 1 0 0 .8h.8a.401.401 0 0 0 0-.8zm0 0M19.602 17.2H18.8a.401.401 0 0 0 0 .8h.8a.4.4 0 0 0 0-.8zm0 0M17.602 16H16.8a.401.401 0 1 0 0 .8h.8a.401.401 0 0 0 0-.8zm0 0M17.602 17.2H16.8a.401.401 0 0 0 0 .8h.8a.4.4 0 0 0 0-.8zm0 0"/>
</svg>
