<svg xmlns="http://www.w3.org/2000/svg" width="32" height="32" viewBox="0 0 24 24">
    <path d="M 21.6875 0 C 21.464844 0 21.289062 0.179688 21.289062 0.398438 L 21.289062 2.800781 L 19.6875 2.800781 L 19.6875 5.933594 L 15.210938 10.410156 L 14.925781 10.128906 L 14.363281 10.695312 L 11.816406 8.148438 L 12.097656 7.867188 L 10.402344 6.167969 L 4.476562 0.246094 L 2.78125 1.941406 L 2.496094 2.222656 C 1.71875 3.003906 1.71875 4.273438 2.496094 5.054688 L 6.160156 8.714844 C 6.550781 9.105469 7.0625 9.300781 7.574219 9.300781 C 7.957031 9.300781 8.34375 9.1875 8.675781 8.96875 L 9.835938 10.128906 L 10.121094 9.847656 L 12.664062 12.390625 L 12.097656 12.957031 L 14.363281 15.21875 L 14.925781 14.65625 L 18.039062 17.765625 L 18.59375 17.210938 C 19.203125 17.265625 19.6875 17.773438 19.6875 18.398438 L 19.6875 23.199219 C 19.6875 23.421875 19.867188 23.601562 20.085938 23.601562 C 20.308594 23.601562 20.488281 23.421875 20.488281 23.199219 L 20.488281 18.398438 C 20.488281 17.566406 19.976562 16.855469 19.25 16.554688 L 19.734375 16.070312 L 16.625 12.957031 L 17.191406 12.390625 L 16.90625 12.109375 L 19.6875 9.328125 L 19.6875 11.601562 L 21.289062 11.601562 L 21.289062 23.601562 C 21.289062 23.820312 21.464844 24 21.6875 24 C 21.910156 24 22.085938 23.820312 22.085938 23.601562 L 22.085938 0.398438 C 22.085938 0.179688 21.910156 0 21.6875 0 Z M 4.476562 1.375 L 9.835938 6.734375 L 8.703125 7.867188 L 3.347656 2.507812 Z M 3.0625 4.488281 C 3.011719 4.433594 2.964844 4.375 2.921875 4.316406 C 2.910156 4.296875 2.898438 4.277344 2.886719 4.257812 C 2.863281 4.214844 2.839844 4.171875 2.816406 4.125 C 2.808594 4.101562 2.796875 4.078125 2.789062 4.058594 C 2.773438 4.007812 2.757812 3.960938 2.746094 3.910156 C 2.742188 3.890625 2.734375 3.871094 2.730469 3.851562 C 2.71875 3.785156 2.710938 3.714844 2.710938 3.644531 C 2.710938 3.632812 2.714844 3.621094 2.714844 3.605469 C 2.71875 3.550781 2.722656 3.492188 2.730469 3.4375 C 2.734375 3.414062 2.742188 3.390625 2.746094 3.367188 C 2.757812 3.320312 2.769531 3.273438 2.789062 3.226562 C 2.796875 3.203125 2.804688 3.183594 2.8125 3.160156 C 2.820312 3.148438 2.828125 3.136719 2.832031 3.125 L 8.085938 8.378906 C 8.074219 8.386719 8.0625 8.394531 8.050781 8.398438 C 8.027344 8.410156 8.007812 8.417969 7.984375 8.425781 C 7.9375 8.441406 7.890625 8.453125 7.84375 8.464844 C 7.820312 8.472656 7.800781 8.476562 7.777344 8.480469 C 7.71875 8.488281 7.664062 8.496094 7.605469 8.496094 C 7.59375 8.496094 7.578125 8.5 7.566406 8.5 C 7.496094 8.5 7.429688 8.492188 7.359375 8.480469 C 7.339844 8.476562 7.320312 8.46875 7.300781 8.464844 C 7.253906 8.453125 7.203125 8.441406 7.15625 8.421875 C 7.132812 8.414062 7.109375 8.402344 7.085938 8.394531 C 7.042969 8.375 6.996094 8.351562 6.953125 8.324219 C 6.933594 8.3125 6.914062 8.300781 6.894531 8.289062 C 6.835938 8.246094 6.777344 8.203125 6.726562 8.148438 Z M 10.402344 7.300781 L 10.96875 7.867188 L 9.835938 8.996094 L 9.269531 8.433594 Z M 10.683594 9.28125 L 11.25 8.714844 L 13.796875 11.261719 L 13.230469 11.824219 Z M 13.230469 12.957031 L 14.925781 11.261719 L 15.492188 11.828125 L 16.058594 12.390625 L 14.363281 14.089844 Z M 18.605469 16.070312 L 18.039062 16.632812 L 15.492188 14.089844 L 16.058594 13.523438 Z M 16.339844 11.542969 L 16.058594 11.261719 L 15.777344 10.976562 L 19.6875 7.066406 L 19.6875 8.199219 Z M 20.488281 10.800781 L 20.488281 3.601562 L 21.289062 3.601562 L 21.289062 10.800781 Z M 20.488281 10.800781"/>
</svg>
