<svg xmlns="http://www.w3.org/2000/svg" width="32" height="32" viewBox="0 0 24 24">
    <path d="M23.602 23.2h-2.403v-1.602a.4.4 0 0 0-.398-.399H20V10.801h.742c.473 0 .856.383.86.855-.692.18-1.2.801-1.2 1.543A1.6 1.6 0 0 0 22 14.801c.883 0 1.602-.719 1.602-1.602 0-.742-.512-1.363-1.204-1.543 0-.914-.742-1.656-1.656-1.656H20V.965a.964.964 0 1 0-1.648-.68L17.316 1.32a2.3 2.3 0 0 0-3.023.196.396.396 0 0 0 0 .562l2.828 2.832a.4.4 0 0 0 .567 0 2.3 2.3 0 0 0 .19-3.023l1.04-1.04a.159.159 0 0 1 .18-.034c.039.015.101.058.101.152V10h-.738a1.66 1.66 0 0 0-1.66 1.656 1.6 1.6 0 0 0-1.2 1.543 1.6 1.6 0 0 0 1.598 1.602c.883 0 1.602-.719 1.602-1.602a1.6 1.6 0 0 0-1.2-1.543c0-.472.387-.855.86-.855h.738v10.398h-.8a.4.4 0 0 0-.399.399v1.601H.398a.4.4 0 0 0 0 .801h23.204a.401.401 0 0 0 0-.8zM22 12.397A.802.802 0 0 1 22 14a.802.802 0 0 1 0-1.602zm-4.633-8.375L15.18 1.836a1.506 1.506 0 0 1 1.808.242l.133.133c.488.492.57 1.234.246 1.812zM18 13.2a.802.802 0 0 1-1.602 0 .802.802 0 0 1 1.602 0zm2.398 10h-1.597V22h1.597zm0 0M4 9.2h2.398c.223 0 .403-.18.403-.4V6.399A.401.401 0 0 0 6.398 6H4a.398.398 0 0 0-.398.398v2.403c0 .219.175.398.398.398zm.398-2.4H6v1.598H4.398zm0 0"/>
    <path d="M8.8 13.598h2.4a.398.398 0 0 0 .402-.399v-2.398a.402.402 0 0 0-.403-.403H8.801a.402.402 0 0 0-.403.403v2.398c0 .223.18.399.403.399zm.4-2.399h1.6v1.602H9.2zm0 0M2.8 18h2.4c.222 0 .402-.18.402-.402v-2.399a.398.398 0 0 0-.403-.398H2.801a.398.398 0 0 0-.403.398v2.399c0 .222.18.402.403.402zm.4-2.402h1.6v1.601H3.2zm0 0"/>
</svg>
