<svg xmlns="http://www.w3.org/2000/svg" width="32" height="32" viewBox="0 0 24 24">
    <path d="M23.98 8.508c-.136-.961-1-1.688-2.007-1.703a5.222 5.222 0 0 0-4.371-2.407H6.398a5.222 5.222 0 0 0-4.37 2.407C1.02 6.82.155 7.547.02 8.508c-.13.918.375 1.812 1.18 2.176V14.8c0 1.265.847 2.336 2 2.68v1.718c0 .223.179.403.402.403H4.8a.402.402 0 0 0 .37-.254l.7-1.746H18.13l.7 1.746c.062.152.21.254.37.254h1.203c.22 0 .399-.18.399-.403V17.48a2.798 2.798 0 0 0 2-2.68v-4.116c.804-.364 1.308-1.258 1.18-2.176zM6.398 5.199h11.204c1.375 0 2.675.66 3.503 1.754a2.24 2.24 0 0 0-.324.152.394.394 0 0 0-.383-.304.4.4 0 0 0-.398.398c0 .156.094.29.223.356-.004 0-.008.008-.012.011a2.556 2.556 0 0 0-.348.493c-.015.03-.027.062-.043.093-.035.07-.062.149-.09.223-.007.023-.015.04-.023.063-.031.093-.05.19-.07.292l-.012.082a2.17 2.17 0 0 0-.023.32v2.477a1.985 1.985 0 0 0-1.2-.41c-1.105 0-2 .899-2 2 0 .453.157.864.41 1.2H16a.4.4 0 0 0-.8 0h-1.598a.401.401 0 0 0-.801 0h-1.602a.398.398 0 1 0-.797 0H8.801a.4.4 0 0 0-.801 0h-.809c.254-.336.41-.747.41-1.2 0-1.101-.898-2-2-2-.453 0-.867.156-1.199.41V9.133c0-.11-.011-.215-.027-.32l-.012-.083c-.02-.101-.039-.199-.07-.293-.004-.023-.016-.042-.02-.062a2.234 2.234 0 0 0-.093-.223c-.012-.03-.028-.062-.043-.093a1.843 1.843 0 0 0-.192-.301 1.853 1.853 0 0 0-.156-.192c-.004-.003-.008-.011-.012-.011a.396.396 0 0 0-.175-.754.398.398 0 0 0-.383.304 2.746 2.746 0 0 0-.324-.152A4.414 4.414 0 0 1 6.398 5.2zm10.801 8a1.202 1.202 0 0 1 2.403 0 1.2 1.2 0 0 1-2.403 0zm-12.8 0a1.202 1.202 0 0 1 2.402 0 1.2 1.2 0 1 1-2.402 0zm.128 5.602H4v-1.2h1.008zM20 18.8h-.527l-.48-1.2H20zM22.336 10h-.734a.401.401 0 1 0 0 .8H22v4c0 1.102-.898 2-2 2H4c-1.102 0-2-.898-2-2v-4h.398a.401.401 0 0 0 0-.8h-.734c-.566-.168-.937-.762-.851-1.379.082-.582.62-1.02 1.25-1.02.042 0 .085.008.124.012.008 0 .012.004.016.004.2.016.383.07.55.153.005.003.009.003.013.007.074.04.144.082.214.133.02.016.036.031.055.043.05.043.102.086.145.137.03.027.054.062.082.094.031.039.062.078.09.12.03.048.054.098.082.145.015.035.035.07.05.106.024.062.043.129.059.191.008.031.02.059.027.09.02.098.032.195.032.3v5.665c0 .219.175.398.398.398h16c.223 0 .398-.18.398-.398V9.137c0-.106.012-.203.032-.301.008-.031.02-.059.027-.09.016-.062.031-.129.059-.191.015-.035.035-.07.05-.106.028-.05.051-.097.082-.144.028-.043.059-.082.09-.121.028-.032.051-.067.082-.098.043-.047.094-.09.145-.133.02-.016.035-.031.055-.043.066-.05.14-.094.214-.133.004-.004.008-.004.012-.007.168-.082.352-.137.55-.153.005 0 .009-.004.017-.004.039-.004.082-.011.125-.011.628 0 1.167.437 1.25 1.02.085.616-.286 1.21-.852 1.378zm0 0"/>
    <path d="M5.2 6a.4.4 0 0 1-.802 0c0-.223.18-.398.403-.398.219 0 .398.175.398.398zm0 0M7.602 6A.401.401 0 0 1 6.8 6c0-.223.18-.398.398-.398.223 0 .403.175.403.398zm0 0M5.2 8.398a.401.401 0 1 1-.803.003.401.401 0 0 1 .802-.003zm0 0M7.602 8.398a.401.401 0 1 1 0 0zm0 0M6.398 7.2a.398.398 0 0 1-.797 0 .398.398 0 1 1 .797 0zm0 0M8.8 7.2a.401.401 0 1 1 0 0zm0 0M6.398 9.602a.398.398 0 1 1-.797 0 .398.398 0 1 1 .797 0zm0 0M8.8 9.602A.401.401 0 1 1 8 9.597a.401.401 0 0 1 .802.005zm0 0M10 6a.4.4 0 0 1-.8 0c0-.223.179-.398.402-.398.218 0 .398.175.398.398zm0 0M12.398 6a.398.398 0 1 1-.796 0c0-.223.175-.398.398-.398.223 0 .398.175.398.398zm0 0M10 8.398a.401.401 0 1 1-.802.003.401.401 0 0 1 .802-.003zm0 0M12.398 8.398a.398.398 0 1 1-.796 0 .398.398 0 1 1 .796 0zm0 0M11.2 7.2a.401.401 0 1 1-.803.002.401.401 0 0 1 .802-.003zm0 0M13.602 7.2a.401.401 0 1 1 0 0zm0 0M11.2 9.602a.4.4 0 1 1-.801-.004.4.4 0 0 1 .8.004zm0 0M13.602 9.602a.401.401 0 1 1-.802-.005.401.401 0 0 1 .802.005zm0 0M14.8 6a.401.401 0 0 1-.8 0c0-.223.18-.398.398-.398.223 0 .403.175.403.398zm0 0M17.2 6a.4.4 0 0 1-.802 0c0-.223.18-.398.403-.398.219 0 .398.175.398.398zm0 0M14.8 8.398a.401.401 0 1 1 0 0zm0 0M17.2 8.398a.401.401 0 1 1-.803.003.401.401 0 0 1 .802-.003zm0 0M16 7.2a.401.401 0 1 1-.802.002.401.401 0 0 1 .802-.003zm0 0M18.398 7.2a.398.398 0 1 1-.796 0 .398.398 0 1 1 .796 0zm0 0M16 9.602a.4.4 0 1 1-.8-.004.4.4 0 0 1 .8.004zm0 0M18.398 9.602a.398.398 0 1 1-.796 0 .398.398 0 1 1 .796 0zm0 0M19.602 6a.401.401 0 0 1-.801 0c0-.223.18-.398.398-.398.223 0 .403.175.403.398zm0 0M19.602 8.398a.401.401 0 1 1 0 0zm0 0M5.2 10.8a.4.4 0 1 1-.801-.003.4.4 0 0 1 .8.004zm0 0M7.602 10.8a.401.401 0 1 1-.802-.004.401.401 0 0 1 .802.005zm0 0M8.8 12c0 .223-.179.398-.402.398a.398.398 0 1 1 0-.796c.223 0 .403.175.403.398zm0 0M10 10.8a.4.4 0 1 1-.8-.003.4.4 0 0 1 .8.004zm0 0M12.398 10.8a.398.398 0 1 1-.796 0 .398.398 0 1 1 .796 0zm0 0M10 13.2a.401.401 0 1 1-.802.002.401.401 0 0 1 .802-.003zm0 0M12.398 13.2a.398.398 0 1 1-.796 0 .398.398 0 1 1 .796 0zm0 0M11.2 12c0 .223-.18.398-.4.398a.398.398 0 1 1 0-.796c.22 0 .4.175.4.398zm0 0M13.602 12c0 .223-.18.398-.403.398a.398.398 0 1 1 0-.796c.223 0 .403.175.403.398zm0 0M14.8 10.8a.401.401 0 1 1-.801-.004.401.401 0 0 1 .802.005zm0 0M17.2 10.8a.4.4 0 1 1-.801-.003.4.4 0 0 1 .8.004zm0 0M14.8 13.2a.401.401 0 1 1 0 0zm0 0M16 12c0 .223-.18.398-.398.398a.398.398 0 1 1 0-.796c.218 0 .398.175.398.398zm0 0M19.602 10.8a.401.401 0 1 1-.802-.004.401.401 0 0 1 .802.005zm0 0"/>
</svg>
