<svg xmlns="http://www.w3.org/2000/svg" width="32" height="32" viewBox="0 0 24 24">
    <path d="M 24 10.398438 C 24 9.808594 23.675781 9.300781 23.199219 9.023438 L 23.199219 7.796875 C 23.199219 5.925781 21.675781 4.398438 19.800781 4.398438 L 17.53125 4.398438 C 16.820312 4.398438 16.148438 4.632812 15.601562 5.066406 C 15.050781 4.632812 14.378906 4.398438 13.667969 4.398438 L 10.332031 4.398438 C 9.621094 4.398438 8.949219 4.632812 8.398438 5.066406 C 7.851562 4.632812 7.179688 4.398438 6.46875 4.398438 L 4.199219 4.398438 C 2.324219 4.398438 0.800781 5.925781 0.800781 7.796875 L 0.800781 9.023438 C 0.324219 9.300781 0 9.808594 0 10.398438 L 0 18.398438 L 0.398438 18.398438 L 0.398438 19.601562 L 2.800781 19.601562 L 2.800781 18.398438 L 21.199219 18.398438 L 21.199219 19.601562 L 23.601562 19.601562 L 23.601562 18.398438 L 24 18.398438 Z M 3.199219 12.800781 L 7.269531 12.800781 C 7.375 12.800781 7.476562 12.84375 7.550781 12.917969 C 8.019531 13.382812 8.78125 13.386719 9.25 12.917969 C 9.324219 12.84375 9.425781 12.800781 9.53125 12.800781 L 14.46875 12.800781 C 14.574219 12.800781 14.675781 12.84375 14.75 12.917969 C 15.21875 13.382812 15.980469 13.382812 16.449219 12.917969 C 16.523438 12.84375 16.625 12.800781 16.730469 12.800781 L 20.800781 12.800781 L 20.800781 14 L 3.199219 14 Z M 21.601562 14.800781 L 21.601562 10.519531 C 21.601562 10.152344 21.792969 9.824219 22.089844 9.675781 C 22.171875 9.636719 22.253906 9.617188 22.332031 9.605469 C 22.351562 9.605469 22.367188 9.601562 22.382812 9.601562 C 22.414062 9.601562 22.441406 9.605469 22.472656 9.605469 C 22.488281 9.609375 22.507812 9.609375 22.523438 9.613281 C 22.570312 9.621094 22.617188 9.632812 22.664062 9.652344 L 22.730469 9.671875 C 23.007812 9.796875 23.199219 10.078125 23.199219 10.398438 L 23.199219 17.601562 L 21.601562 17.601562 Z M 19.800781 5.199219 C 21.234375 5.199219 22.398438 6.367188 22.398438 7.796875 L 22.398438 8.800781 C 21.519531 8.800781 20.800781 9.519531 20.800781 10.398438 L 20.800781 12 L 16.730469 12 C 16.460938 12 16.210938 12.09375 16 12.253906 L 16 5.777344 C 16.425781 5.40625 16.960938 5.199219 17.53125 5.199219 Z M 13.667969 5.199219 C 14.238281 5.199219 14.777344 5.40625 15.199219 5.777344 L 15.199219 12.253906 C 14.992188 12.09375 14.738281 12 14.46875 12 L 9.53125 12 C 9.261719 12 9.007812 12.09375 8.800781 12.253906 L 8.800781 5.777344 C 9.226562 5.40625 9.761719 5.199219 10.332031 5.199219 Z M 1.601562 7.796875 C 1.601562 6.367188 2.765625 5.199219 4.199219 5.199219 L 6.46875 5.199219 C 7.039062 5.199219 7.574219 5.40625 8 5.777344 L 8 12.253906 C 7.789062 12.09375 7.539062 12 7.269531 12 L 3.199219 12 L 3.199219 10.398438 C 3.199219 9.519531 2.480469 8.800781 1.601562 8.800781 Z M 0.800781 10.398438 C 0.800781 10.078125 0.992188 9.796875 1.269531 9.671875 L 1.335938 9.652344 C 1.382812 9.632812 1.429688 9.621094 1.476562 9.613281 C 1.492188 9.609375 1.511719 9.609375 1.53125 9.605469 C 1.558594 9.605469 1.585938 9.601562 1.617188 9.601562 C 1.632812 9.601562 1.652344 9.605469 1.667969 9.605469 C 1.75 9.617188 1.828125 9.636719 1.910156 9.675781 C 2.207031 9.824219 2.398438 10.152344 2.398438 10.519531 L 2.398438 17.601562 L 0.800781 17.601562 Z M 2 18.800781 L 1.199219 18.800781 L 1.199219 18.398438 L 2 18.398438 Z M 20.800781 17.601562 L 3.199219 17.601562 L 3.199219 14.800781 L 20.800781 14.800781 Z M 22.800781 18.800781 L 22 18.800781 L 22 18.398438 L 22.800781 18.398438 Z M 22.800781 18.800781"/>
    <path d="M10.917969 9.082031C10.996094 9.160156 11.097656 9.199219 11.199219 9.199219 11.300781 9.199219 11.40625 9.160156 11.484375 9.082031L12 8.566406 12.515625 9.082031C12.59375 9.160156 12.699219 9.199219 12.800781 9.199219 12.902344 9.199219 13.003906 9.160156 13.082031 9.082031 13.238281 8.925781 13.238281 8.671875 13.082031 8.515625L12.566406 8 13.082031 7.484375C13.238281 7.328125 13.238281 7.074219 13.082031 6.917969 12.925781 6.761719 12.671875 6.761719 12.515625 6.917969L12 7.433594 11.484375 6.917969C11.328125 6.761719 11.074219 6.761719 10.917969 6.917969 10.761719 7.074219 10.761719 7.328125 10.917969 7.484375L11.433594 8 10.917969 8.515625C10.761719 8.671875 10.761719 8.925781 10.917969 9.082031zM18.117188 9.082031C18.195312 9.160156 18.296875 9.199219 18.398438 9.199219 18.503906 9.199219 18.605469 9.160156 18.683594 9.082031L19.199219 8.566406 19.71875 9.082031C19.796875 9.160156 19.898438 9.199219 20 9.199219 20.101562 9.199219 20.203125 9.160156 20.28125 9.082031 20.4375 8.925781 20.4375 8.671875 20.28125 8.515625L19.765625 8 20.28125 7.484375C20.4375 7.328125 20.4375 7.074219 20.28125 6.917969 20.125 6.761719 19.875 6.761719 19.71875 6.917969L19.199219 7.433594 18.683594 6.917969C18.527344 6.761719 18.273438 6.761719 18.117188 6.917969 17.960938 7.074219 17.960938 7.328125 18.117188 7.484375L18.632812 8 18.117188 8.515625C17.960938 8.671875 17.960938 8.925781 18.117188 9.082031zM3.71875 9.082031C3.796875 9.160156 3.898438 9.199219 4 9.199219 4.101562 9.199219 4.203125 9.160156 4.28125 9.082031L4.800781 8.566406 5.316406 9.082031C5.394531 9.160156 5.496094 9.199219 5.601562 9.199219 5.703125 9.199219 5.804688 9.160156 5.882812 9.082031 6.039062 8.925781 6.039062 8.671875 5.882812 8.515625L5.367188 8 5.882812 7.484375C6.039062 7.328125 6.039062 7.074219 5.882812 6.917969 5.726562 6.761719 5.472656 6.761719 5.316406 6.917969L4.800781 7.433594 4.28125 6.917969C4.125 6.761719 3.875 6.761719 3.71875 6.917969 3.5625 7.074219 3.5625 7.328125 3.71875 7.484375L4.234375 8 3.71875 8.515625C3.5625 8.671875 3.5625 8.925781 3.71875 9.082031zM3.71875 9.082031"/>
</svg>
