<svg xmlns="http://www.w3.org/2000/svg" width="32" height="32" viewBox="0 0 24 24">
    <path d="M10.516 10.281a.405.405 0 0 0 .285.117c.101 0 .203-.039.281-.117l.367-.367c.176.086.364.133.551.133.188 0 .375-.047.55-.133l.368.367c.078.078.18.117.281.117.102 0 .207-.039.285-.117a.396.396 0 0 0 0-.562l-.367-.371c.168-.344.168-.75 0-1.098l.367-.367a.4.4 0 0 0-.566-.567l-.367.368a1.267 1.267 0 0 0-1.102 0l-.367-.368a.4.4 0 0 0-.566.567l.367.367a1.267 1.267 0 0 0 0 1.102l-.367.367a.396.396 0 0 0 0 .562zm1.8-1.797a.446.446 0 0 1 0 .633.446.446 0 0 1-.632 0 .446.446 0 0 1 0-.633.437.437 0 0 1 .316-.132c.113 0 .23.043.316.132zm0 0"/>
    <path d="M23.938 10.695c-.211-.855-1.036-1.476-1.965-1.492a5.224 5.224 0 0 0-4.317-2.402C16.816 4.902 14.54 3.6 12 3.6c-2.54 0-4.816 1.301-5.656 3.2a5.224 5.224 0 0 0-4.317 2.402C1.02 9.22.157 9.945.02 10.91a2.003 2.003 0 0 0 1.18 2.117v3.805c0 .738.51 1.355 1.198 1.52V20c0 .219.18.398.403.398H4a.399.399 0 0 0 .371-.25l.7-1.75H18.93l.699 1.75c.062.153.207.25.371.25h1.2c.222 0 .402-.18.402-.398v-1.648a1.562 1.562 0 0 0 1.199-1.516v-3.809c.89-.382 1.379-1.351 1.137-2.332zM6.398 7.602A1.2 1.2 0 0 1 7.602 8.8a.398.398 0 1 0 .796 0c0-.836-.511-1.547-1.238-1.848.774-1.52 2.692-2.555 4.84-2.555 2.148 0 4.066 1.036 4.84 2.555a1.998 1.998 0 0 0-1.238 1.848.398.398 0 1 0 .797 0c0-.664.538-1.2 1.203-1.2 1.375 0 2.675.66 3.503 1.754a2.337 2.337 0 0 0-.851.563c-.012.016-.027.031-.043.047-.055.062-.11.125-.156.191a1.888 1.888 0 0 0-.191.305l-.044.09a1.608 1.608 0 0 0-.09.226l-.023.059c-.031.094-.05.195-.07.293l-.012.082a2.223 2.223 0 0 0-.023.324v1.89a11.105 11.105 0 0 0-7.602.15 11.105 11.105 0 0 0-7.602-.15v-1.89a2.223 2.223 0 0 0-.035-.406c-.02-.098-.039-.2-.07-.293a2.302 2.302 0 0 0-.113-.285c-.016-.031-.028-.063-.043-.09a2.2 2.2 0 0 0-.145-.242c-.015-.024-.031-.04-.043-.059a2.02 2.02 0 0 0-.164-.2c-.012-.015-.027-.026-.039-.042a2.367 2.367 0 0 0-.851-.563 4.414 4.414 0 0 1 3.503-1.753zm-1.785 7.597a.213.213 0 0 1-.215-.21v-.716a10.34 10.34 0 0 1 7.204 0v.926zm7.785-.926a10.34 10.34 0 0 1 7.204 0v.715c0 .117-.098.211-.215.211h-6.989zM3.73 19.602H3.2v-1.204h1.007zm17.07 0h-.53l-.477-1.204h1.008zm1.5-7.247a.37.37 0 0 0-.097.043h-.601a.401.401 0 0 0 0 .8L22 13.2v3.633c0 .426-.344.77-.766.77H2.766a.768.768 0 0 1-.766-.77v-3.633h.398a.401.401 0 1 0 0-.8h-.601c-.031-.016-.063-.036-.098-.044a1.198 1.198 0 0 1-.887-1.332C.895 10.438 1.434 10 2.067 10c.04 0 .082.008.122.012.007 0 .011.004.015.004.2.02.383.074.55.156.005 0 .009.004.013.004.074.039.144.086.214.133.02.015.036.03.055.046.05.04.102.086.145.133.027.032.054.063.078.094.035.043.066.078.094.121.03.047.054.098.078.149.02.035.039.066.054.101.024.063.043.129.059.195.008.028.02.055.027.086.016.098.028.2.028.301v4.067c0 .218.18.398.402.398h16a.4.4 0 0 0 .398-.398v-4.067c0-.101.012-.203.032-.3.008-.032.02-.06.027-.087.016-.066.031-.132.059-.195.015-.035.035-.07.05-.101.028-.051.051-.102.082-.149.028-.043.059-.082.09-.121.028-.031.051-.066.078-.094a1.57 1.57 0 0 1 .149-.133c.02-.015.035-.03.055-.046a1.98 1.98 0 0 1 .214-.133c.004 0 .008-.004.012-.004a1.58 1.58 0 0 1 .55-.156c.005 0 .009-.004.013-.004.043-.004.082-.012.125-.012.586 0 1.101.371 1.226.887a1.196 1.196 0 0 1-.86 1.468zm0 0"/>
</svg>
