<svg xmlns="http://www.w3.org/2000/svg" width="32" height="32" viewBox="0 0 24 24">
    <path d="M 18.15625 2.601562 C 17.382812 1.917969 15.121094 0.199219 12 0.199219 C 8.878906 0.199219 6.617188 1.917969 5.84375 2.601562 C 1.238281 2.65625 0 5.128906 0 6.601562 C 0 7.527344 0.753906 8.28125 1.679688 8.28125 C 2.464844 8.28125 3.105469 7.640625 3.105469 6.855469 C 3.105469 6.636719 2.925781 6.457031 2.703125 6.457031 C 2.484375 6.457031 2.304688 6.636719 2.304688 6.855469 C 2.304688 7.199219 2.023438 7.480469 1.679688 7.480469 C 1.195312 7.480469 0.800781 7.085938 0.800781 6.601562 C 0.800781 5.9375 1.339844 5.398438 2 5.398438 C 2.882812 5.398438 3.601562 6.117188 3.601562 7 L 3.601562 13.398438 C 3.601562 13.457031 3.613281 13.515625 3.636719 13.5625 C 3.695312 13.847656 3.828125 14.101562 4.003906 14.320312 L 4.144531 23.144531 C 4.144531 23.507812 4.441406 23.800781 4.800781 23.800781 L 5.140625 23.800781 C 5.453125 23.800781 5.714844 23.589844 5.78125 23.289062 L 6.121094 15 L 7.207031 15 L 7.347656 21.144531 C 7.347656 21.507812 7.640625 21.800781 8 21.800781 L 8.34375 21.800781 C 8.652344 21.800781 8.914062 21.589844 8.980469 21.289062 L 9.09375 15 L 14.917969 15 L 15.300781 21.25 L 15.3125 21.3125 C 15.378906 21.613281 15.640625 21.824219 15.949219 21.824219 L 16.292969 21.824219 C 16.652344 21.824219 16.945312 21.53125 16.945312 21.160156 L 16.808594 15 L 17.894531 15 L 18.503906 23.230469 L 18.511719 23.289062 C 18.578125 23.589844 18.84375 23.800781 19.152344 23.800781 L 19.492188 23.800781 C 19.851562 23.800781 20.148438 23.507812 20.148438 23.140625 L 20.003906 14.316406 C 20.175781 14.097656 20.304688 13.847656 20.363281 13.566406 C 20.386719 13.515625 20.398438 13.457031 20.398438 13.398438 L 20.398438 7 C 20.398438 6.117188 21.117188 5.398438 22 5.398438 C 22.660156 5.398438 23.199219 5.9375 23.199219 6.601562 C 23.199219 7.085938 22.804688 7.480469 22.320312 7.480469 C 21.976562 7.480469 21.695312 7.199219 21.695312 6.855469 C 21.695312 6.636719 21.515625 6.457031 21.296875 6.457031 C 21.074219 6.457031 20.894531 6.636719 20.894531 6.855469 C 20.894531 7.640625 21.535156 8.28125 22.320312 8.28125 C 23.246094 8.28125 24 7.527344 24 6.601562 C 24 5.128906 22.761719 2.65625 18.15625 2.601562 Z M 12 10.199219 C 15.109375 10.199219 17.417969 10.757812 18.632812 11.402344 C 18.621094 11.402344 18.613281 11.398438 18.601562 11.398438 L 5.398438 11.398438 C 5.386719 11.398438 5.378906 11.402344 5.367188 11.402344 C 6.582031 10.757812 8.890625 10.199219 12 10.199219 Z M 5 23 L 4.945312 23 L 4.8125 14.902344 C 4.871094 14.921875 4.9375 14.9375 5 14.953125 C 5.015625 14.953125 5.03125 14.960938 5.046875 14.964844 C 5.136719 14.980469 5.226562 14.992188 5.320312 15 Z M 8.195312 21 L 8.144531 21 L 8.007812 15 L 8.292969 15 Z M 16.144531 21.023438 L 16.089844 21.023438 L 15.722656 15 L 16.007812 15 Z M 16.792969 14.199219 L 5.398438 14.199219 C 5.332031 14.199219 5.265625 14.191406 5.203125 14.179688 C 5.007812 14.140625 4.828125 14.042969 4.6875 13.894531 L 4.671875 13.882812 C 4.503906 13.703125 4.398438 13.464844 4.398438 13.199219 C 4.398438 12.648438 4.847656 12.199219 5.398438 12.199219 L 18.601562 12.199219 C 19.152344 12.199219 19.601562 12.648438 19.601562 13.199219 C 19.601562 13.464844 19.496094 13.703125 19.328125 13.882812 L 19.3125 13.894531 C 19.171875 14.042969 18.992188 14.140625 18.796875 14.179688 C 18.734375 14.191406 18.667969 14.199219 18.601562 14.199219 Z M 19.289062 23 L 18.695312 14.996094 C 18.785156 14.992188 18.875 14.980469 18.960938 14.964844 C 18.964844 14.960938 18.96875 14.960938 18.972656 14.960938 C 19.054688 14.945312 19.132812 14.921875 19.210938 14.894531 L 19.34375 23 Z M 19.601562 7 L 19.601562 11.066406 C 19.375 10.894531 19.105469 10.734375 18.800781 10.585938 L 18.800781 7.398438 C 18.800781 7.179688 18.621094 7 18.398438 7 C 18.179688 7 18 7.179688 18 7.398438 L 18 10.261719 C 17.730469 10.164062 17.441406 10.078125 17.140625 10 C 17.175781 9.941406 17.199219 9.875 17.199219 9.800781 L 17.199219 8.042969 C 17.199219 7.824219 17.019531 7.644531 16.800781 7.644531 C 16.578125 7.644531 16.398438 7.824219 16.398438 8.042969 L 16.398438 9.800781 C 16.398438 9.808594 16.40625 9.816406 16.40625 9.828125 C 15.058594 9.546875 13.511719 9.398438 12 9.398438 C 10.488281 9.398438 8.941406 9.546875 7.59375 9.828125 C 7.59375 9.816406 7.601562 9.808594 7.601562 9.800781 L 7.601562 7.9375 C 7.601562 7.71875 7.421875 7.539062 7.199219 7.539062 C 6.980469 7.539062 6.800781 7.71875 6.800781 7.9375 L 6.800781 9.800781 C 6.800781 9.875 6.824219 9.941406 6.859375 10 C 6.558594 10.078125 6.269531 10.164062 6 10.261719 L 6 7.398438 C 6 7.179688 5.820312 7 5.601562 7 C 5.378906 7 5.199219 7.179688 5.199219 7.398438 L 5.199219 10.585938 C 4.894531 10.734375 4.625 10.894531 4.398438 11.066406 L 4.398438 7 C 4.398438 5.675781 3.324219 4.601562 2 4.601562 C 1.929688 4.601562 1.863281 4.605469 1.792969 4.609375 C 2.574219 3.933594 3.890625 3.398438 6 3.398438 C 6.660156 3.398438 7.199219 3.9375 7.199219 4.601562 C 7.199219 4.820312 7.378906 5 7.601562 5 C 7.820312 5 8 4.820312 8 4.601562 C 8 3.808594 7.53125 3.128906 6.863281 2.804688 C 7.820312 2.078125 9.640625 1 12 1 C 14.359375 1 16.179688 2.078125 17.136719 2.804688 C 16.46875 3.128906 16 3.808594 16 4.601562 C 16 4.820312 16.179688 5 16.398438 5 C 16.621094 5 16.800781 4.820312 16.800781 4.601562 C 16.800781 3.9375 17.339844 3.398438 18 3.398438 C 20.109375 3.398438 21.425781 3.933594 22.207031 4.609375 C 22.136719 4.605469 22.070312 4.601562 22 4.601562 C 20.675781 4.601562 19.601562 5.675781 19.601562 7 Z M 19.601562 7"/>
    <path d="M12.398438 3.800781C12.398438 4.019531 12.222656 4.199219 12 4.199219 11.777344 4.199219 11.601562 4.019531 11.601562 3.800781 11.601562 3.578125 11.777344 3.398438 12 3.398438 12.222656 3.398438 12.398438 3.578125 12.398438 3.800781zM11.199219 5C11.199219 5.222656 11.019531 5.398438 10.800781 5.398438 10.578125 5.398438 10.398438 5.222656 10.398438 5 10.398438 4.777344 10.578125 4.601562 10.800781 4.601562 11.019531 4.601562 11.199219 4.777344 11.199219 5zM13.601562 5C13.601562 5.222656 13.421875 5.398438 13.199219 5.398438 12.980469 5.398438 12.800781 5.222656 12.800781 5 12.800781 4.777344 12.980469 4.601562 13.199219 4.601562 13.421875 4.601562 13.601562 4.777344 13.601562 5zM11.199219 7.398438C11.199219 7.621094 11.019531 7.800781 10.800781 7.800781 10.578125 7.800781 10.398438 7.621094 10.398438 7.398438 10.398438 7.179688 10.578125 7 10.800781 7 11.019531 7 11.199219 7.179688 11.199219 7.398438zM13.601562 7.398438C13.601562 7.621094 13.421875 7.800781 13.199219 7.800781 12.980469 7.800781 12.800781 7.621094 12.800781 7.398438 12.800781 7.179688 12.980469 7 13.199219 7 13.421875 7 13.601562 7.179688 13.601562 7.398438zM12.398438 6.199219C12.398438 6.421875 12.222656 6.601562 12 6.601562 11.777344 6.601562 11.601562 6.421875 11.601562 6.199219 11.601562 5.980469 11.777344 5.800781 12 5.800781 12.222656 5.800781 12.398438 5.980469 12.398438 6.199219zM12.398438 6.199219"/>
</svg>
