<svg xmlns="http://www.w3.org/2000/svg" width="32" height="32" viewBox="0 0 24 24">
    <path d="M 20 3.398438 L 19.199219 3.398438 C 18.980469 3.398438 18.800781 3.578125 18.800781 3.800781 C 18.800781 4.019531 18.980469 4.199219 19.199219 4.199219 L 19.601562 4.199219 L 19.601562 6.601562 L 15.601562 6.601562 C 15.378906 6.601562 15.199219 6.777344 15.199219 7 C 15.199219 7.222656 15.378906 7.398438 15.601562 7.398438 L 16 7.398438 L 16 9.800781 L 12 9.800781 C 11.777344 9.800781 11.601562 9.980469 11.601562 10.199219 C 11.601562 10.421875 11.777344 10.601562 12 10.601562 L 12.398438 10.601562 L 12.398438 13 L 8.398438 13 C 8.179688 13 8 13.179688 8 13.398438 C 8 13.621094 8.179688 13.800781 8.398438 13.800781 L 8.800781 13.800781 L 8.800781 16.199219 L 4.800781 16.199219 C 4.578125 16.199219 4.398438 16.378906 4.398438 16.601562 C 4.398438 16.820312 4.578125 17 4.800781 17 L 5.199219 17 L 5.199219 19.398438 L 1.199219 19.398438 C 0.980469 19.398438 0.800781 19.578125 0.800781 19.800781 C 0.800781 20.019531 0.980469 20.199219 1.199219 20.199219 L 1.601562 20.199219 L 1.601562 22.601562 L 0.398438 22.601562 C 0.179688 22.601562 0 22.777344 0 23 C 0 23.222656 0.179688 23.398438 0.398438 23.398438 L 24 23.398438 L 24 3.398438 Z M 21.199219 22.601562 C 21.199219 22.378906 21.019531 22.199219 20.800781 22.199219 C 20.578125 22.199219 20.398438 22.378906 20.398438 22.601562 L 18.800781 22.601562 C 18.800781 22.378906 18.621094 22.199219 18.398438 22.199219 C 18.179688 22.199219 18 22.378906 18 22.601562 L 16.398438 22.601562 C 16.398438 22.378906 16.222656 22.199219 16 22.199219 C 15.777344 22.199219 15.601562 22.378906 15.601562 22.601562 L 14 22.601562 C 14 22.378906 13.820312 22.199219 13.601562 22.199219 C 13.378906 22.199219 13.199219 22.378906 13.199219 22.601562 L 11.601562 22.601562 C 11.601562 22.378906 11.421875 22.199219 11.199219 22.199219 C 10.980469 22.199219 10.800781 22.378906 10.800781 22.601562 L 9.199219 22.601562 C 9.199219 22.378906 9.019531 22.199219 8.800781 22.199219 C 8.578125 22.199219 8.398438 22.378906 8.398438 22.601562 L 2.398438 22.601562 L 2.398438 20.199219 L 6 20.199219 L 6 17 L 9.601562 17 L 9.601562 13.800781 L 13.199219 13.800781 L 13.199219 10.601562 L 16.800781 10.601562 L 16.800781 7.398438 L 20.398438 7.398438 L 20.398438 4.199219 L 23.199219 4.199219 L 23.199219 7.800781 C 22.980469 7.800781 22.800781 7.980469 22.800781 8.199219 C 22.800781 8.421875 22.980469 8.601562 23.199219 8.601562 L 23.199219 10.199219 C 22.980469 10.199219 22.800781 10.378906 22.800781 10.601562 C 22.800781 10.820312 22.980469 11 23.199219 11 L 23.199219 12.601562 C 22.980469 12.601562 22.800781 12.777344 22.800781 13 C 22.800781 13.222656 22.980469 13.398438 23.199219 13.398438 L 23.199219 15 C 22.980469 15 22.800781 15.179688 22.800781 15.398438 C 22.800781 15.621094 22.980469 15.800781 23.199219 15.800781 L 23.199219 17.398438 C 22.980469 17.398438 22.800781 17.578125 22.800781 17.800781 C 22.800781 18.019531 22.980469 18.199219 23.199219 18.199219 L 23.199219 19.800781 C 22.980469 19.800781 22.800781 19.980469 22.800781 20.199219 C 22.800781 20.421875 22.980469 20.601562 23.199219 20.601562 L 23.199219 22.199219 C 22.980469 22.199219 22.800781 22.378906 22.800781 22.601562 Z M 21.199219 22.601562"/>
    <path d="M14 17.800781C14 18.019531 13.820312 18.199219 13.601562 18.199219 13.378906 18.199219 13.199219 18.019531 13.199219 17.800781 13.199219 17.578125 13.378906 17.398438 13.601562 17.398438 13.820312 17.398438 14 17.578125 14 17.800781zM15.199219 16.601562C15.199219 16.820312 15.019531 17 14.800781 17 14.578125 17 14.398438 16.820312 14.398438 16.601562 14.398438 16.378906 14.578125 16.199219 14.800781 16.199219 15.019531 16.199219 15.199219 16.378906 15.199219 16.601562zM12.800781 19C12.800781 19.222656 12.621094 19.398438 12.398438 19.398438 12.179688 19.398438 12 19.222656 12 19 12 18.777344 12.179688 18.601562 12.398438 18.601562 12.621094 18.601562 12.800781 18.777344 12.800781 19zM15.199219 19C15.199219 19.222656 15.019531 19.398438 14.800781 19.398438 14.578125 19.398438 14.398438 19.222656 14.398438 19 14.398438 18.777344 14.578125 18.601562 14.800781 18.601562 15.019531 18.601562 15.199219 18.777344 15.199219 19zM16.398438 15.398438C16.398438 15.621094 16.222656 15.800781 16 15.800781 15.777344 15.800781 15.601562 15.621094 15.601562 15.398438 15.601562 15.179688 15.777344 15 16 15 16.222656 15 16.398438 15.179688 16.398438 15.398438zM18.800781 15.398438C18.800781 15.621094 18.621094 15.800781 18.398438 15.800781 18.179688 15.800781 18 15.621094 18 15.398438 18 15.179688 18.179688 15 18.398438 15 18.621094 15 18.800781 15.179688 18.800781 15.398438zM16.398438 17.800781C16.398438 18.019531 16.222656 18.199219 16 18.199219 15.777344 18.199219 15.601562 18.019531 15.601562 17.800781 15.601562 17.578125 15.777344 17.398438 16 17.398438 16.222656 17.398438 16.398438 17.578125 16.398438 17.800781zM18.800781 17.800781C18.800781 18.019531 18.621094 18.199219 18.398438 18.199219 18.179688 18.199219 18 18.019531 18 17.800781 18 17.578125 18.179688 17.398438 18.398438 17.398438 18.621094 17.398438 18.800781 17.578125 18.800781 17.800781zM17.601562 16.601562C17.601562 16.820312 17.421875 17 17.199219 17 16.980469 17 16.800781 16.820312 16.800781 16.601562 16.800781 16.378906 16.980469 16.199219 17.199219 16.199219 17.421875 16.199219 17.601562 16.378906 17.601562 16.601562zM20 16.601562C20 16.820312 19.820312 17 19.601562 17 19.378906 17 19.199219 16.820312 19.199219 16.601562 19.199219 16.378906 19.378906 16.199219 19.601562 16.199219 19.820312 16.199219 20 16.378906 20 16.601562zM17.601562 19C17.601562 19.222656 17.421875 19.398438 17.199219 19.398438 16.980469 19.398438 16.800781 19.222656 16.800781 19 16.800781 18.777344 16.980469 18.601562 17.199219 18.601562 17.421875 18.601562 17.601562 18.777344 17.601562 19zM20 19C20 19.222656 19.820312 19.398438 19.601562 19.398438 19.378906 19.398438 19.199219 19.222656 19.199219 19 19.199219 18.777344 19.378906 18.601562 19.601562 18.601562 19.820312 18.601562 20 18.777344 20 19zM21.199219 15.398438C21.199219 15.621094 21.019531 15.800781 20.800781 15.800781 20.578125 15.800781 20.398438 15.621094 20.398438 15.398438 20.398438 15.179688 20.578125 15 20.800781 15 21.019531 15 21.199219 15.179688 21.199219 15.398438zM21.199219 17.800781C21.199219 18.019531 21.019531 18.199219 20.800781 18.199219 20.578125 18.199219 20.398438 18.019531 20.398438 17.800781 20.398438 17.578125 20.578125 17.398438 20.800781 17.398438 21.019531 17.398438 21.199219 17.578125 21.199219 17.800781zM22.398438 16.601562C22.398438 16.820312 22.222656 17 22 17 21.777344 17 21.601562 16.820312 21.601562 16.601562 21.601562 16.378906 21.777344 16.199219 22 16.199219 22.222656 16.199219 22.398438 16.378906 22.398438 16.601562zM22.398438 19C22.398438 19.222656 22.222656 19.398438 22 19.398438 21.777344 19.398438 21.601562 19.222656 21.601562 19 21.601562 18.777344 21.777344 18.601562 22 18.601562 22.222656 18.601562 22.398438 18.777344 22.398438 19zM10.398438 21.398438C10.398438 21.621094 10.222656 21.800781 10 21.800781 9.777344 21.800781 9.601562 21.621094 9.601562 21.398438 9.601562 21.179688 9.777344 21 10 21 10.222656 21 10.398438 21.179688 10.398438 21.398438zM11.601562 20.199219C11.601562 20.421875 11.421875 20.601562 11.199219 20.601562 10.980469 20.601562 10.800781 20.421875 10.800781 20.199219 10.800781 19.980469 10.980469 19.800781 11.199219 19.800781 11.421875 19.800781 11.601562 19.980469 11.601562 20.199219zM14 20.199219C14 20.421875 13.820312 20.601562 13.601562 20.601562 13.378906 20.601562 13.199219 20.421875 13.199219 20.199219 13.199219 19.980469 13.378906 19.800781 13.601562 19.800781 13.820312 19.800781 14 19.980469 14 20.199219zM12.800781 21.398438C12.800781 21.621094 12.621094 21.800781 12.398438 21.800781 12.179688 21.800781 12 21.621094 12 21.398438 12 21.179688 12.179688 21 12.398438 21 12.621094 21 12.800781 21.179688 12.800781 21.398438zM15.199219 21.398438C15.199219 21.621094 15.019531 21.800781 14.800781 21.800781 14.578125 21.800781 14.398438 21.621094 14.398438 21.398438 14.398438 21.179688 14.578125 21 14.800781 21 15.019531 21 15.199219 21.179688 15.199219 21.398438zM16.398438 20.199219C16.398438 20.421875 16.222656 20.601562 16 20.601562 15.777344 20.601562 15.601562 20.421875 15.601562 20.199219 15.601562 19.980469 15.777344 19.800781 16 19.800781 16.222656 19.800781 16.398438 19.980469 16.398438 20.199219zM18.800781 20.199219C18.800781 20.421875 18.621094 20.601562 18.398438 20.601562 18.179688 20.601562 18 20.421875 18 20.199219 18 19.980469 18.179688 19.800781 18.398438 19.800781 18.621094 19.800781 18.800781 19.980469 18.800781 20.199219zM17.601562 21.398438C17.601562 21.621094 17.421875 21.800781 17.199219 21.800781 16.980469 21.800781 16.800781 21.621094 16.800781 21.398438 16.800781 21.179688 16.980469 21 17.199219 21 17.421875 21 17.601562 21.179688 17.601562 21.398438zM20 21.398438C20 21.621094 19.820312 21.800781 19.601562 21.800781 19.378906 21.800781 19.199219 21.621094 19.199219 21.398438 19.199219 21.179688 19.378906 21 19.601562 21 19.820312 21 20 21.179688 20 21.398438zM21.199219 20.199219C21.199219 20.421875 21.019531 20.601562 20.800781 20.601562 20.578125 20.601562 20.398438 20.421875 20.398438 20.199219 20.398438 19.980469 20.578125 19.800781 20.800781 19.800781 21.019531 19.800781 21.199219 19.980469 21.199219 20.199219zM22.398438 21.398438C22.398438 21.621094 22.222656 21.800781 22 21.800781 21.777344 21.800781 21.601562 21.621094 21.601562 21.398438 21.601562 21.179688 21.777344 21 22 21 22.222656 21 22.398438 21.179688 22.398438 21.398438zM20 11.800781C20 12.019531 19.820312 12.199219 19.601562 12.199219 19.378906 12.199219 19.199219 12.019531 19.199219 11.800781 19.199219 11.578125 19.378906 11.398438 19.601562 11.398438 19.820312 11.398438 20 11.578125 20 11.800781zM21.199219 10.601562C21.199219 10.820312 21.019531 11 20.800781 11 20.578125 11 20.398438 10.820312 20.398438 10.601562 20.398438 10.378906 20.578125 10.199219 20.800781 10.199219 21.019531 10.199219 21.199219 10.378906 21.199219 10.601562zM22.398438 9.398438C22.398438 9.621094 22.222656 9.800781 22 9.800781 21.777344 9.800781 21.601562 9.621094 21.601562 9.398438 21.601562 9.179688 21.777344 9 22 9 22.222656 9 22.398438 9.179688 22.398438 9.398438zM22.398438 11.800781C22.398438 12.019531 22.222656 12.199219 22 12.199219 21.777344 12.199219 21.601562 12.019531 21.601562 11.800781 21.601562 11.578125 21.777344 11.398438 22 11.398438 22.222656 11.398438 22.398438 11.578125 22.398438 11.800781zM18.800781 13C18.800781 13.222656 18.621094 13.398438 18.398438 13.398438 18.179688 13.398438 18 13.222656 18 13 18 12.777344 18.179688 12.601562 18.398438 12.601562 18.621094 12.601562 18.800781 12.777344 18.800781 13zM17.601562 14.199219C17.601562 14.421875 17.421875 14.601562 17.199219 14.601562 16.980469 14.601562 16.800781 14.421875 16.800781 14.199219 16.800781 13.980469 16.980469 13.800781 17.199219 13.800781 17.421875 13.800781 17.601562 13.980469 17.601562 14.199219zM20 14.199219C20 14.421875 19.820312 14.601562 19.601562 14.601562 19.378906 14.601562 19.199219 14.421875 19.199219 14.199219 19.199219 13.980469 19.378906 13.800781 19.601562 13.800781 19.820312 13.800781 20 13.980469 20 14.199219zM21.199219 13C21.199219 13.222656 21.019531 13.398438 20.800781 13.398438 20.578125 13.398438 20.398438 13.222656 20.398438 13 20.398438 12.777344 20.578125 12.601562 20.800781 12.601562 21.019531 12.601562 21.199219 12.777344 21.199219 13zM22.398438 14.199219C22.398438 14.421875 22.222656 14.601562 22 14.601562 21.777344 14.601562 21.601562 14.421875 21.601562 14.199219 21.601562 13.980469 21.777344 13.800781 22 13.800781 22.222656 13.800781 22.398438 13.980469 22.398438 14.199219zM8 .601562L1.601562.601562 1.601562 7.800781 8 7.800781zM7.199219 7L2.398438 7 2.398438 1.398438 7.199219 1.398438zM7.199219 7"/>
    <path d="M 6.800781 1.800781 L 2.800781 1.800781 L 2.800781 6.601562 L 6.800781 6.601562 Z M 6 5.800781 L 3.601562 5.800781 L 3.601562 2.601562 L 6 2.601562 Z M 6 5.800781"/>
</svg>
