<svg xmlns="http://www.w3.org/2000/svg" width="32" height="32" viewBox="0 0 24 24">
    <path d="M21.582 3.75a.44.44 0 0 0 .11-.29C21.691 1.216 16.698 0 12 0 7.3 0 2.309 1.215 2.309 3.46c0 .114.043.212.109.29-.066.203-.11.41-.11.633 0 .492.176.937.462 1.293v17.316A1.01 1.01 0 0 0 3.777 24h.305c.55 0 .996-.434 1.008-.984l.316-11.938h1.055v9.606c0 .554.453 1.007 1.012 1.007h.289a1.01 1.01 0 0 0 1.008-1.007v-9.606h6.46v9.606a1.01 1.01 0 0 0 1.008 1.007h.29c.558 0 1.011-.453 1.011-1.007v-9.606h1.055l.316 11.938c.012.55.457.984 1.008.984h.305a1.01 1.01 0 0 0 1.007-1.008V5.672c.286-.356.461-.797.461-1.29 0-.222-.043-.429-.109-.632zm-1.145 1.438a1.167 1.167 0 0 1-.82.351H4.383c-.078 0-.153-.008-.227-.023a1.167 1.167 0 0 1-.593-.329l-.02-.019a1.152 1.152 0 0 1-.313-.785c0-.633.52-1.153 1.153-1.153h15.234c.633 0 1.153.52 1.153 1.153 0 .304-.122.578-.313.785zm-1.914 3.12h-.984V6.462h.934zM5.527 6.462h.934v1.848h-.984zm1.856 0h.465v1.848h-.465zm1.387 0h6.46v1.848H8.77zm7.382 0h.465v1.848h-.465zm3.504-4.149c-.015 0-.027-.003-.039-.003H4.383c-.012 0-.024.003-.04.003C5.747 1.567 8.41.923 12 .923s6.254.644 7.656 1.39zM7.848 20.684c0 .046-.04.086-.086.086h-.29c-.05 0-.09-.04-.09-.086v-9.606h.466zm8.77 0c0 .046-.04.086-.09.086h-.29a.087.087 0 0 1-.086-.086v-9.606h.465zm3.69 2.308c0 .047-.038.086-.085.086h-.305a.087.087 0 0 1-.086-.086l-.34-12.84H4.508l-.34 12.84c0 .047-.04.086-.086.086h-.305a.087.087 0 0 1-.086-.086V6.344c.059.02.118.031.176.047.043.007.086.023.13.03.124.024.257.04.386.04h.219l-.07 2.77h14.937l-.07-2.77h.218c.13 0 .262-.016.387-.04.043-.007.086-.023.129-.03.058-.016.117-.028.176-.047zm0 0"/>
</svg>
