<svg xmlns="http://www.w3.org/2000/svg" width="32" height="32" viewBox="0 0 24 24">
    <path d="M 20.667969 0.0117188 C 19.957031 -0.0585938 19.246094 0.179688 18.722656 0.65625 C 18.566406 0.796875 18.429688 0.957031 18.316406 1.128906 C 17.863281 0.449219 17.089844 0 16.210938 0 C 15.332031 0 14.558594 0.449219 14.105469 1.132812 C 13.652344 0.449219 12.878906 0 12 0 C 11.121094 0 10.347656 0.449219 9.894531 1.132812 C 9.441406 0.449219 8.667969 0 7.789062 0 C 6.910156 0 6.136719 0.449219 5.683594 1.132812 C 5.570312 0.957031 5.433594 0.796875 5.277344 0.65625 C 4.753906 0.179688 4.042969 -0.0585938 3.332031 0.0117188 C 2.054688 0.132812 1.050781 1.277344 1.050781 2.617188 L 1.050781 7.425781 C 1.050781 7.972656 1.5 8.421875 2.050781 8.421875 L 2.738281 8.421875 L 2.738281 22.738281 L 3.578125 22.738281 L 3.578125 23.15625 C 3.347656 23.15625 3.15625 23.347656 3.15625 23.578125 C 3.15625 23.8125 3.347656 24 3.578125 24 L 4.421875 24 C 4.652344 24 4.84375 23.8125 4.84375 23.578125 C 4.84375 23.347656 4.652344 23.15625 4.421875 23.15625 L 4.421875 22.738281 L 5.261719 22.738281 L 5.261719 13.050781 L 18.738281 13.050781 L 18.738281 22.738281 L 19.578125 22.738281 L 19.578125 23.15625 C 19.347656 23.15625 19.15625 23.347656 19.15625 23.578125 C 19.15625 23.8125 19.347656 24 19.578125 24 L 20.421875 24 C 20.652344 24 20.84375 23.8125 20.84375 23.578125 C 20.84375 23.347656 20.652344 23.15625 20.421875 23.15625 L 20.421875 22.738281 L 21.261719 22.738281 L 21.261719 8.421875 L 21.949219 8.421875 C 22.5 8.421875 22.949219 7.972656 22.949219 7.425781 L 22.949219 2.617188 C 22.949219 1.277344 21.945312 0.132812 20.667969 0.0117188 Z M 20.421875 21.894531 L 19.578125 21.894531 L 19.578125 12.210938 L 4.421875 12.210938 L 4.421875 21.894531 L 3.578125 21.894531 L 3.578125 8.421875 L 4.421875 8.421875 L 4.421875 11.367188 L 19.578125 11.367188 L 19.578125 8.421875 L 20.421875 8.421875 Z M 5.261719 8.421875 L 18.738281 8.421875 L 18.738281 10.527344 L 5.261719 10.527344 Z M 21.261719 7.578125 L 2.050781 7.578125 C 1.964844 7.578125 1.894531 7.507812 1.894531 7.425781 L 1.894531 6.738281 L 22.105469 6.738281 L 22.105469 7.425781 C 22.105469 7.507812 22.035156 7.578125 21.949219 7.578125 Z M 1.894531 5.894531 L 1.894531 2.617188 C 1.894531 1.707031 2.5625 0.929688 3.414062 0.851562 C 3.46875 0.84375 3.523438 0.84375 3.582031 0.84375 C 4 0.84375 4.398438 0.992188 4.710938 1.28125 C 5.0625 1.597656 5.261719 2.050781 5.261719 2.527344 L 6.105469 2.527344 C 6.105469 1.597656 6.859375 0.84375 7.789062 0.84375 C 8.71875 0.84375 9.472656 1.597656 9.472656 2.527344 L 10.316406 2.527344 C 10.316406 1.597656 11.070312 0.84375 12 0.84375 C 12.929688 0.84375 13.683594 1.597656 13.683594 2.527344 L 14.527344 2.527344 C 14.527344 1.597656 15.28125 0.84375 16.210938 0.84375 C 17.140625 0.84375 17.894531 1.597656 17.894531 2.527344 L 18.738281 2.527344 C 18.738281 2.050781 18.9375 1.597656 19.289062 1.28125 C 19.644531 0.957031 20.105469 0.800781 20.589844 0.851562 C 21.4375 0.929688 22.105469 1.707031 22.105469 2.617188 L 22.105469 5.894531 Z M 1.894531 5.894531"/>
</svg>
