<svg xmlns="http://www.w3.org/2000/svg" width="32" height="32" viewBox="0 0 24 24">
    <path d="M 23.601562 12 L 21.199219 12 L 21.199219 11.636719 C 21.332031 11.460938 22.046875 11.199219 22.398438 11.199219 L 22.800781 11.199219 C 23.019531 11.199219 23.199219 11.019531 23.199219 10.800781 C 23.199219 10.578125 23.019531 10.398438 22.800781 10.398438 L 16.398438 10.398438 C 16.179688 10.398438 16 10.578125 16 10.800781 C 16 11.019531 16.179688 11.199219 16.398438 11.199219 L 16.800781 11.199219 C 17.152344 11.199219 17.867188 11.460938 18 11.636719 L 18 12 L 12.800781 12 L 12.800781 11.199219 L 13.601562 11.199219 L 13.601562 8.800781 L 12.800781 8.800781 L 12.800781 7.199219 L 7.199219 7.199219 L 7.199219 9.601562 L 8 9.601562 L 8 10.398438 L 7.199219 10.398438 L 7.199219 12 L 5.710938 12 C 5.71875 11.96875 5.730469 11.9375 5.738281 11.902344 C 5.816406 11.515625 5.6875 11.125 5.398438 10.859375 C 5.078125 10.5625 4.871094 10.238281 4.789062 9.902344 L 4.710938 9.601562 L 4.164062 9.601562 L 5.082031 8.683594 C 5.238281 8.527344 5.238281 8.273438 5.082031 8.117188 C 4.925781 7.960938 4.671875 7.960938 4.515625 8.117188 L 4 8.632812 L 4 6.742188 C 4.6875 6.5625 5.199219 5.945312 5.199219 5.199219 L 5.199219 4.398438 L 4 4.398438 L 4 3.601562 L 2 3.601562 L 2 5.601562 C 2 6.34375 2.511719 6.964844 3.199219 7.144531 L 3.199219 9.601562 L 2.648438 9.601562 L 2.574219 9.902344 C 2.488281 10.238281 2.28125 10.5625 1.960938 10.859375 C 1.671875 11.125 1.546875 11.515625 1.621094 11.902344 C 1.628906 11.9375 1.640625 11.96875 1.652344 12 L 0.398438 12 C 0.179688 12 0 12.179688 0 12.398438 L 0 14.800781 C 0 15.019531 0.179688 15.199219 0.398438 15.199219 L 1.199219 15.199219 L 1.199219 20 C 1.199219 20.222656 1.378906 20.398438 1.601562 20.398438 L 2.800781 20.398438 C 2.996094 20.398438 3.164062 20.257812 3.195312 20.0625 L 3.941406 15.199219 L 20.058594 15.199219 L 20.804688 20.0625 C 20.835938 20.257812 21.003906 20.398438 21.199219 20.398438 L 22.398438 20.398438 C 22.621094 20.398438 22.800781 20.222656 22.800781 20 L 22.800781 15.199219 L 23.601562 15.199219 C 23.820312 15.199219 24 15.019531 24 14.800781 L 24 12.398438 C 24 12.179688 23.820312 12 23.601562 12 Z M 18.667969 11.199219 L 20.53125 11.199219 C 20.449219 11.320312 20.398438 11.453125 20.398438 11.601562 L 20.398438 12 L 18.800781 12 L 18.800781 11.601562 C 18.800781 11.453125 18.75 11.320312 18.667969 11.199219 Z M 8 8 L 12 8 L 12 8.800781 L 8 8.800781 Z M 8.800781 9.601562 L 12.800781 9.601562 L 12.800781 10.398438 L 8.800781 10.398438 Z M 8 11.199219 L 12 11.199219 L 12 12 L 8 12 Z M 4.398438 5.199219 C 4.398438 5.496094 4.238281 5.753906 4 5.890625 L 4 5.199219 Z M 2.800781 5.601562 L 2.800781 4.398438 L 3.199219 4.398438 L 3.199219 6.292969 C 2.960938 6.15625 2.800781 5.894531 2.800781 5.601562 Z M 2.40625 11.746094 C 2.375 11.585938 2.464844 11.480469 2.503906 11.445312 C 2.847656 11.125 3.097656 10.773438 3.25 10.398438 L 4.109375 10.398438 C 4.261719 10.773438 4.511719 11.125 4.855469 11.445312 C 4.894531 11.480469 4.984375 11.585938 4.953125 11.746094 C 4.925781 11.890625 4.777344 12 4.609375 12 L 2.75 12 C 2.582031 12 2.433594 11.890625 2.40625 11.746094 Z M 2.457031 19.601562 L 2 19.601562 L 2 15.199219 L 3.132812 15.199219 Z M 22 19.601562 L 21.542969 19.601562 L 20.867188 15.199219 L 22 15.199219 Z M 23.199219 14.398438 L 0.800781 14.398438 L 0.800781 12.800781 L 23.199219 12.800781 Z M 23.199219 14.398438"/>
</svg>
