<svg xmlns="http://www.w3.org/2000/svg" width="32" height="32" viewBox="0 0 24 24">
    <path d="M23.602 12h-2.403v-.363c.133-.176.848-.438 1.2-.438h.402a.4.4 0 0 0 0-.8h-6.403a.401.401 0 0 0 0 .8h.403c.351 0 1.066.262 1.199.438V12h-5.2v-.8h.802V8.8H12.8V7.2H7.199v2.402H8v.796h-.8V12H5.71c.009-.031.02-.063.028-.098a1.11 1.11 0 0 0-.34-1.043c-.32-.296-.527-.62-.609-.957l-.078-.3h-.547l.918-.918a.4.4 0 0 0-.566-.567L4 8.633v-1.89c.688-.18 1.2-.798 1.2-1.544v-.8H4v-.797H2v2a1.6 1.6 0 0 0 1.2 1.543v2.457h-.552l-.074.3c-.086.336-.293.66-.613.957a1.12 1.12 0 0 0-.34 1.043c.008.036.02.067.031.098H.398a.4.4 0 0 0-.398.398v2.403a.4.4 0 0 0 .398.398H1.2V20c0 .223.18.398.403.398H2.8c.195 0 .363-.14.394-.335l.746-4.864H20.06l.746 4.864c.03.195.199.335.394.335h1.2A.398.398 0 0 0 22.8 20v-4.8h.8a.4.4 0 0 0 .399-.4v-2.402a.4.4 0 0 0-.398-.398zm-4.934-.8h1.863a.708.708 0 0 0-.133.402V12h-1.597v-.398a.708.708 0 0 0-.133-.403zM8 8h4v.8H8zm.8 1.602h4v.796h-4zM8 11.199h4V12H8zm-3.602-6c0 .297-.16.555-.398.692v-.692zm-1.597.403V4.398h.398v1.895a.8.8 0 0 1-.398-.691zm-.395 6.144a.321.321 0 0 1 .098-.3c.344-.321.594-.673.746-1.048h.86c.152.375.402.727.745 1.047.04.035.13.14.098.301-.027.145-.176.254-.344.254H2.75c-.168 0-.316-.11-.344-.254zm.051 7.856H2v-4.403h1.133zm19.543 0h-.457l-.676-4.403H22zm1.2-5.204H.8v-1.597h22.4zm0 0"/>
</svg>
