<svg xmlns="http://www.w3.org/2000/svg" width="32" height="32" viewBox="0 0 24 24">
    <path d="M22.398438 5.199219L22.398438 3.601562 23.601562 3.601562 23.601562.398438 6.800781.398438C6.578125.398438 6.398438.578125 6.398438.800781 6.398438 1.019531 6.578125 1.199219 6.800781 1.199219L14.800781 1.199219 14.800781 3.601562 16 3.601562 16 5.199219 0 5.199219 0 10 .800781 10 .800781 11.601562 1.199219 11.601562 1.199219 12.800781 5.199219 12.800781 5.199219 11.601562 5.601562 11.601562 5.601562 10 14.800781 10 14.800781 23.601562 24 23.601562 24 5.199219zM15.601562 2.800781L15.601562 1.199219 22.800781 1.199219 22.800781 2.800781zM16.800781 3.601562L21.601562 3.601562 21.601562 5.199219 16.800781 5.199219zM4.398438 12L2 12 2 11.601562 4.398438 11.601562zM4.800781 10.800781L1.601562 10.800781 1.601562 10 4.800781 10zM5.601562 9.199219L.800781 9.199219.800781 6 14.800781 6 14.800781 9.199219zM23.199219 22.800781L15.601562 22.800781 15.601562 20.800781 23.199219 20.800781zM15.601562 20L15.601562 6 23.199219 6 23.199219 20zM2 16.800781C1.777344 16.800781 1.601562 16.980469 1.601562 17.199219L1.601562 17.601562C1.601562 17.820312 1.777344 18 2 18 2.222656 18 2.398438 17.820312 2.398438 17.601562L2.398438 17.199219C2.398438 16.980469 2.222656 16.800781 2 16.800781zM2 15.199219C1.777344 15.199219 1.601562 15.378906 1.601562 15.601562L1.601562 16C1.601562 16.222656 1.777344 16.398438 2 16.398438 2.222656 16.398438 2.398438 16.222656 2.398438 16L2.398438 15.601562C2.398438 15.378906 2.222656 15.199219 2 15.199219zM2 13.601562C1.777344 13.601562 1.601562 13.777344 1.601562 14L1.601562 14.398438C1.601562 14.621094 1.777344 14.800781 2 14.800781 2.222656 14.800781 2.398438 14.621094 2.398438 14.398438L2.398438 14C2.398438 13.777344 2.222656 13.601562 2 13.601562zM2 18.398438C1.777344 18.398438 1.601562 18.578125 1.601562 18.800781L1.601562 19.199219C1.601562 19.421875 1.777344 19.601562 2 19.601562 2.222656 19.601562 2.398438 19.421875 2.398438 19.199219L2.398438 18.800781C2.398438 18.578125 2.222656 18.398438 2 18.398438zM2 21.601562C1.777344 21.601562 1.601562 21.777344 1.601562 22L1.601562 22.398438C1.601562 22.621094 1.777344 22.800781 2 22.800781 2.222656 22.800781 2.398438 22.621094 2.398438 22.398438L2.398438 22C2.398438 21.777344 2.222656 21.601562 2 21.601562zM2 20C1.777344 20 1.601562 20.179688 1.601562 20.398438L1.601562 20.800781C1.601562 21.019531 1.777344 21.199219 2 21.199219 2.222656 21.199219 2.398438 21.019531 2.398438 20.800781L2.398438 20.398438C2.398438 20.179688 2.222656 20 2 20zM3.199219 20C2.980469 20 2.800781 20.179688 2.800781 20.398438L2.800781 20.800781C2.800781 21.019531 2.980469 21.199219 3.199219 21.199219 3.421875 21.199219 3.601562 21.019531 3.601562 20.800781L3.601562 20.398438C3.601562 20.179688 3.421875 20 3.199219 20zM3.199219 18.398438C2.980469 18.398438 2.800781 18.578125 2.800781 18.800781L2.800781 19.199219C2.800781 19.421875 2.980469 19.601562 3.199219 19.601562 3.421875 19.601562 3.601562 19.421875 3.601562 19.199219L3.601562 18.800781C3.601562 18.578125 3.421875 18.398438 3.199219 18.398438zM3.199219 21.601562C2.980469 21.601562 2.800781 21.777344 2.800781 22L2.800781 22.398438C2.800781 22.621094 2.980469 22.800781 3.199219 22.800781 3.421875 22.800781 3.601562 22.621094 3.601562 22.398438L3.601562 22C3.601562 21.777344 3.421875 21.601562 3.199219 21.601562zM3.199219 21.601562"/>
    <path d="M3.199219 13.601562C2.980469 13.601562 2.800781 13.777344 2.800781 14L2.800781 14.398438C2.800781 14.621094 2.980469 14.800781 3.199219 14.800781 3.421875 14.800781 3.601562 14.621094 3.601562 14.398438L3.601562 14C3.601562 13.777344 3.421875 13.601562 3.199219 13.601562zM3.199219 15.199219C2.980469 15.199219 2.800781 15.378906 2.800781 15.601562L2.800781 16C2.800781 16.222656 2.980469 16.398438 3.199219 16.398438 3.421875 16.398438 3.601562 16.222656 3.601562 16L3.601562 15.601562C3.601562 15.378906 3.421875 15.199219 3.199219 15.199219zM3.199219 16.800781C2.980469 16.800781 2.800781 16.980469 2.800781 17.199219L2.800781 17.601562C2.800781 17.820312 2.980469 18 3.199219 18 3.421875 18 3.601562 17.820312 3.601562 17.601562L3.601562 17.199219C3.601562 16.980469 3.421875 16.800781 3.199219 16.800781zM4.398438 18.398438C4.179688 18.398438 4 18.578125 4 18.800781L4 19.199219C4 19.421875 4.179688 19.601562 4.398438 19.601562 4.621094 19.601562 4.800781 19.421875 4.800781 19.199219L4.800781 18.800781C4.800781 18.578125 4.621094 18.398438 4.398438 18.398438zM4.398438 15.199219C4.179688 15.199219 4 15.378906 4 15.601562L4 16C4 16.222656 4.179688 16.398438 4.398438 16.398438 4.621094 16.398438 4.800781 16.222656 4.800781 16L4.800781 15.601562C4.800781 15.378906 4.621094 15.199219 4.398438 15.199219zM4.398438 21.601562C4.179688 21.601562 4 21.777344 4 22L4 22.398438C4 22.621094 4.179688 22.800781 4.398438 22.800781 4.621094 22.800781 4.800781 22.621094 4.800781 22.398438L4.800781 22C4.800781 21.777344 4.621094 21.601562 4.398438 21.601562zM4.398438 13.601562C4.179688 13.601562 4 13.777344 4 14L4 14.398438C4 14.621094 4.179688 14.800781 4.398438 14.800781 4.621094 14.800781 4.800781 14.621094 4.800781 14.398438L4.800781 14C4.800781 13.777344 4.621094 13.601562 4.398438 13.601562zM4.398438 20C4.179688 20 4 20.179688 4 20.398438L4 20.800781C4 21.019531 4.179688 21.199219 4.398438 21.199219 4.621094 21.199219 4.800781 21.019531 4.800781 20.800781L4.800781 20.398438C4.800781 20.179688 4.621094 20 4.398438 20zM4.398438 16.800781C4.179688 16.800781 4 16.980469 4 17.199219L4 17.601562C4 17.820312 4.179688 18 4.398438 18 4.621094 18 4.800781 17.820312 4.800781 17.601562L4.800781 17.199219C4.800781 16.980469 4.621094 16.800781 4.398438 16.800781zM4.398438 16.800781"/>
</svg>
