<svg xmlns="http://www.w3.org/2000/svg" width="32" height="32" viewBox="0 0 24 24">
    <path d="M22.926 17.8a2.408 2.408 0 0 0 1.074-2 2.405 2.405 0 0 0-2.398-2.402h-6V12.2h-3.204v-.398H23.2V.199H.801v11.602h10.8v.398H8.399v1.2h-6A2.405 2.405 0 0 0 0 15.8c0 .832.43 1.57 1.074 2A2.402 2.402 0 0 0 0 19.8a2.401 2.401 0 0 0 2.398 2.398h.403v1.602h2.398v-1.602h13.602v1.602h2.398v-1.602H22v-.035a2.401 2.401 0 0 0 2-2.363c0-.836-.43-1.57-1.074-2zM22.398 1v8.8H1.602V1zM1.602 10.602h20.796V11H1.602zm20 3.597a1.6 1.6 0 1 1 0 3.2h-4V15h-7.204v2.398H9.2V14.2zM16.8 17.4h-5.602V15.8h5.602zM9.199 13h5.602v.398H9.199zm-.8 1.2v3.198h-.797V14.2zm-1.598 0v3.198H6V14.2zm-1.602 0v3.198h-.8V14.2zM.801 15.8c0-.882.719-1.6 1.597-1.6h1.204v3.198H2.398a1.6 1.6 0 0 1-1.597-1.597zM4.398 23h-.796v-.8h.796zm.801-1.602H3.602v-1.597H8.8v1.597zm5.602 0v-2H14v2zM20.398 23h-.796v-.8h.796zm-1.597-1.602H16v-1.597h5.2v1.597zM22 21.344V19h-6.8v2.398h-.4v-2.796H10v2.796h-.398V19H2.8v2.398h-.403a1.6 1.6 0 0 1 0-3.199h19.204c.878 0 1.597.719 1.597 1.602A1.6 1.6 0 0 1 22 21.344zm0 0"/>
    <path d="M16 16.602a.4.4 0 1 1-.8-.004.4.4 0 0 1 .8.004zm0 0M4.8 20.602A.401.401 0 1 1 4 20.597a.401.401 0 0 1 .802.005zm0 0M17.2 20.602a.4.4 0 1 1-.801-.004.4.4 0 0 1 .8.004zm0 0M13.602 20.2a.401.401 0 1 1 0 0zm0 0"/>
</svg>
