<svg xmlns="http://www.w3.org/2000/svg" width="32" height="32" viewBox="0 0 24 24">
    <path d="M16 13.2h-1.672a1.197 1.197 0 0 0-1.129-1.598h-.8V10.8h9.203V0H2.398v10.8h9.204v.802H10.8a1.197 1.197 0 0 0-1.13 1.597H.802V22h.8v2H4v-2h16v2h2.398v-2h.801v-8.8zM3.2 2h17.6v6.8H3.2zM20.8.8v.4H3.2V.8zM3.2 9.603h17.6V10H3.2zm7.198 3.199c0-.223.18-.403.403-.403h2.398a.401.401 0 0 1 0 .8l-2.398.001a.401.401 0 0 1-.403-.398zM8.801 14h6.398v3.2H8.801zm-7.2 0H8v3.2H1.602zM3.2 23.2h-.8V22h.8zM8 21.2H1.602V18H8zm7.2 0H8.8V18h6.4zm6.402 2H20.8V22h.8zm.796-2H16V18h6.398zM16 17.2V14h6.398v3.2zm0 0"/>
    <path d="M5.602 15.2H4a.398.398 0 0 0-.398.402c0 .218.175.398.398.398h1.602a.4.4 0 0 0 0-.8zm0 0M4 20h1.602a.4.4 0 0 0 0-.8H4a.398.398 0 0 0-.398.402c0 .218.175.398.398.398zm0 0M12.8 15.2h-1.6a.401.401 0 0 0 0 .8h1.6a.4.4 0 0 0 0-.8zm0 0M11.2 20h1.6a.4.4 0 0 0 0-.8h-1.6a.401.401 0 0 0 0 .8zm0 0M20 15.2h-1.602a.401.401 0 0 0 0 .8H20c.223 0 .398-.18.398-.398a.398.398 0 0 0-.398-.403zm0 0M18.398 20H20c.223 0 .398-.18.398-.398a.398.398 0 0 0-.398-.403h-1.602a.401.401 0 0 0 0 .801zm0 0"/>
</svg>
