<svg xmlns="http://www.w3.org/2000/svg" width="32" height="32" viewBox="0 0 24 24">
    <path d="M24 14.18h-1.2v-.801a.401.401 0 0 0-.402-.399H20a.398.398 0 0 0-.398.399v.8h-5.063l2.262-2.261a1.403 1.403 0 0 0 1.832-.133l.465-.465a.8.8 0 0 1 .757-.203c.606.153 1.051.09 1.325-.18l1.113-1.117c.55-.55.55-1.445 0-1.996l-4.79-4.793a1.412 1.412 0 0 0-1.995 0L14.39 4.148c-.27.27-.332.715-.184 1.32a.786.786 0 0 1-.203.762l-.461.461a1.409 1.409 0 0 0-.14 1.825L7.44 14.18H4.398v-.801A.398.398 0 0 0 4 12.98H1.602a.401.401 0 0 0-.403.399v.8H0v6h1.2v.801c0 .223.179.399.402.399H4a.395.395 0 0 0 .398-.399v-.8h15.204v.8c0 .223.175.399.398.399h2.398a.398.398 0 0 0 .403-.399v-.8H24zm-9.89-6.922l.46-.461c.399-.399.551-.965.414-1.52-.109-.441-.027-.562-.027-.566l1.113-1.113a.61.61 0 0 1 .867 0l4.79 4.793a.604.604 0 0 1 0 .863l-1.114 1.117c-.023.016-.18.066-.566-.027a1.576 1.576 0 0 0-1.516.41l-.465.465a.61.61 0 0 1-.863 0l-2.96-2.961-.134-.137a.61.61 0 0 1 0-.863zM.8 19.378V14.98h.4v4.399zm2.802 1.204H2v-6.8h1.602zm.796-1.203V14.98h2.235l-.516.516a.4.4 0 0 0 .567.566l1.199-1.199 6.07-5.765 2.27 2.27-2.93 2.929a.43.43 0 0 0-.074.098l-1.102 1.101a.4.4 0 0 0 .567.566l1.082-1.082h5.836v4.399zM22 20.582h-1.602v-6.8H22zm1.2-1.203h-.4V14.98h.4zm0 0"/>
</svg>
