<svg xmlns="http://www.w3.org/2000/svg" width="32" height="32" viewBox="0 0 24 24">
    <path d="M 23.601562 12.800781 L 21.199219 12.800781 C 20.980469 12.800781 20.800781 12.980469 20.800781 13.199219 L 20.800781 13.601562 L 17.601562 13.601562 L 17.601562 10.800781 C 17.601562 10.578125 17.421875 10.398438 17.199219 10.398438 L 15.601562 10.398438 L 15.601562 9.199219 L 18 9.199219 C 18.222656 9.199219 18.398438 9.019531 18.398438 8.800781 L 18.398438 2.398438 C 18.398438 2.179688 18.222656 2 18 2 L 17.601562 2 L 17.601562 1.199219 C 17.601562 0.980469 17.421875 0.800781 17.199219 0.800781 L 7.601562 0.800781 C 7.378906 0.800781 7.199219 0.980469 7.199219 1.199219 L 7.199219 2 L 6.800781 2 C 6.578125 2 6.398438 2.179688 6.398438 2.398438 L 6.398438 8.800781 C 6.398438 9.019531 6.578125 9.199219 6.800781 9.199219 L 9.199219 9.199219 L 9.199219 10.398438 L 7.601562 10.398438 C 7.378906 10.398438 7.199219 10.578125 7.199219 10.800781 L 7.199219 13.601562 L 3.199219 13.601562 L 3.199219 13.199219 C 3.199219 12.980469 3.019531 12.800781 2.800781 12.800781 L 0.398438 12.800781 C 0.179688 12.800781 0 12.980469 0 13.199219 L 0 22.800781 C 0 23.019531 0.179688 23.199219 0.398438 23.199219 L 2.800781 23.199219 C 3.019531 23.199219 3.199219 23.019531 3.199219 22.800781 L 3.199219 22.398438 L 20.800781 22.398438 L 20.800781 22.800781 C 20.800781 23.019531 20.980469 23.199219 21.199219 23.199219 L 23.601562 23.199219 C 23.820312 23.199219 24 23.019531 24 22.800781 L 24 13.199219 C 24 12.980469 23.820312 12.800781 23.601562 12.800781 Z M 23.199219 17.601562 L 21.601562 17.601562 L 21.601562 16 L 23.199219 16 Z M 21.601562 18.398438 L 23.199219 18.398438 L 23.199219 20 L 21.601562 20 Z M 21.601562 13.601562 L 23.199219 13.601562 L 23.199219 15.199219 L 21.601562 15.199219 Z M 13.601562 8.398438 L 13.601562 2.800781 L 14.398438 2.800781 L 14.398438 8.398438 Z M 12 8.398438 L 12 2.800781 L 12.800781 2.800781 L 12.800781 8.398438 Z M 10.398438 8.398438 L 10.398438 2.800781 L 11.199219 2.800781 L 11.199219 8.398438 Z M 8.800781 8.398438 L 8.800781 2.800781 L 9.601562 2.800781 L 9.601562 8.398438 Z M 15.199219 2.800781 L 16 2.800781 L 16 8.398438 L 15.199219 8.398438 Z M 17.601562 8.398438 L 16.800781 8.398438 L 16.800781 2.800781 L 17.601562 2.800781 Z M 8 1.601562 L 16.800781 1.601562 L 16.800781 2 L 8 2 Z M 7.199219 2.800781 L 8 2.800781 L 8 8.398438 L 7.199219 8.398438 Z M 10 9.199219 L 14.800781 9.199219 L 14.800781 10.398438 L 10 10.398438 Z M 2.398438 17.601562 L 0.800781 17.601562 L 0.800781 16 L 2.398438 16 Z M 0.800781 18.398438 L 2.398438 18.398438 L 2.398438 20 L 0.800781 20 Z M 0.800781 13.601562 L 2.398438 13.601562 L 2.398438 15.199219 L 0.800781 15.199219 Z M 2.398438 22.398438 L 0.800781 22.398438 L 0.800781 20.800781 L 2.398438 20.800781 Z M 3.199219 21.601562 L 3.199219 14.398438 L 7.601562 14.398438 C 7.820312 14.398438 8 14.222656 8 14 L 8 11.199219 L 16.800781 11.199219 L 16.800781 14 C 16.800781 14.222656 16.980469 14.398438 17.199219 14.398438 L 20.800781 14.398438 L 20.800781 21.601562 Z M 23.199219 22.398438 L 21.601562 22.398438 L 21.601562 20.800781 L 23.199219 20.800781 Z M 23.199219 22.398438"/>
</svg>
