<svg xmlns="http://www.w3.org/2000/svg" width="32" height="32" viewBox="0 0 24 24">
    <path d="M4.800781 18.398438C4.800781 18.179688 4.621094 18 4.398438 18L4 18 4 16 5.199219 16 5.199219 12 2 12 2 16 3.199219 16 3.199219 18 2.800781 18C2.578125 18 2.398438 18.179688 2.398438 18.398438 2.398438 18.621094 2.578125 18.800781 2.800781 18.800781L.398438 18.800781.398438 23.199219.800781 23.199219.800781 23.601562C.800781 23.820312.980469 24 1.199219 24 1.421875 24 1.601562 23.820312 1.601562 23.601562L1.601562 23.199219 5.601562 23.199219 5.601562 23.601562C5.601562 23.820312 5.777344 24 6 24 6.222656 24 6.398438 23.820312 6.398438 23.601562L6.398438 23.199219 6.800781 23.199219 6.800781 18.800781 4.398438 18.800781C4.621094 18.800781 4.800781 18.621094 4.800781 18.398438zM2.800781 12.800781L4.398438 12.800781 4.398438 15.199219 2.800781 15.199219zM6 19.601562L6 22.398438 1.199219 22.398438 1.199219 19.601562zM8.398438 0L8.398438 23.199219 9.199219 23.199219 9.199219 23.601562C9.199219 23.820312 9.378906 24 9.601562 24 9.820312 24 10 23.820312 10 23.601562L10 23.199219 22.398438 23.199219 22.398438 23.601562C22.398438 23.820312 22.578125 24 22.800781 24 23.019531 24 23.199219 23.820312 23.199219 23.601562L23.199219 23.199219 23.601562 23.199219 23.601562 0zM12.398438 8.164062L13.035156 8.800781 11.765625 8.800781zM9.199219 6L9.199219 5.199219 18 5.199219 18 6zM18.800781 5.199219L22.800781 5.199219 22.800781 8.800781 18.800781 8.800781zM18 .800781L18 4.398438 9.199219 4.398438 9.199219.800781zM14 22.398438C13.558594 22.398438 13.199219 22.042969 13.199219 21.601562 13.199219 21.160156 13.558594 20.800781 14 20.800781L15.601562 20.800781C15.820312 20.800781 16 20.621094 16 20.398438 16 20.179688 15.820312 20 15.601562 20L14 20C13.117188 20 12.398438 20.71875 12.398438 21.601562 12.398438 21.894531 12.484375 22.164062 12.621094 22.398438L9.199219 22.398438 9.199219 6.800781 12 6.800781 12 7.433594 10.519531 8.917969C10.480469 8.953125 10.453125 8.996094 10.429688 9.046875 10.390625 9.144531 10.390625 9.253906 10.429688 9.351562 10.472656 9.449219 10.550781 9.527344 10.648438 9.570312 10.695312 9.589844 10.746094 9.601562 10.800781 9.601562L14 9.601562C14.050781 9.601562 14.105469 9.589844 14.152344 9.570312 14.25 9.527344 14.328125 9.449219 14.371094 9.351562 14.410156 9.253906 14.410156 9.144531 14.371094 9.046875 14.347656 8.996094 14.320312 8.953125 14.28125 8.917969L12.800781 7.433594 12.800781 6.800781 18 6.800781 18 22.398438zM18.800781 14L22.800781 14 22.800781 17.601562 18.800781 17.601562zM22.800781 22.398438L18.800781 22.398438 18.800781 18.398438 22.800781 18.398438zM22.800781 13.199219L18.800781 13.199219 18.800781 9.601562 22.800781 9.601562zM18.800781 4.398438L18.800781.800781 22.800781.800781 22.800781 4.398438zM18.800781 4.398438"/>
    <path d="M 15.601562 18.800781 L 12.800781 18.800781 C 12.578125 18.800781 12.398438 18.980469 12.398438 19.199219 C 12.398438 19.421875 12.578125 19.601562 12.800781 19.601562 L 15.601562 19.601562 C 16.042969 19.601562 16.398438 19.957031 16.398438 20.398438 C 16.398438 20.839844 16.042969 21.199219 15.601562 21.199219 L 14 21.199219 C 13.777344 21.199219 13.601562 21.378906 13.601562 21.601562 C 13.601562 21.820312 13.777344 22 14 22 L 15.601562 22 C 16.480469 22 17.199219 21.28125 17.199219 20.398438 C 17.199219 19.519531 16.480469 18.800781 15.601562 18.800781 Z M 15.601562 18.800781"/>
</svg>
