<svg xmlns="http://www.w3.org/2000/svg" width="32" height="32" viewBox="0 0 24 24">
    <path d="M3.8 0v23.426c0 .316.259.574.575.574h15.254c.312 0 .57-.258.57-.574V0zm15.598 23.2H4.602v-4h14.796zM4.602 18.397V.801h14.796v17.597zm0 0"/>
    <path d="M11 21.602h2c.223 0 .398-.18.398-.403a.398.398 0 0 0-.398-.398h-2a.398.398 0 0 0-.398.398c0 .223.175.403.398.403zm0 0M5.8 17.602H13v-4.403H5.8zM6.603 14h5.597v2.8H6.602zm0 0"/>
    <path d="M7 16.398h2v-2H7zm.8-1.199h.4v.403h-.4zm0 0M9.8 16.398h2v-2h-2zm.802-1.199H11v.403h-.398zm0 0M16.2 13.602c-1.102 0-2 .894-2 2 0 1.101.898 2 2 2a1.999 1.999 0 1 0 0-4zm0 3.199a1.202 1.202 0 0 1 0-2.403c.187 0 .359.047.515.122l-.797.796.566.567.797-.797A1.2 1.2 0 0 1 16.2 16.8zm0 0"/>
</svg>
