<svg xmlns="http://www.w3.org/2000/svg" width="32" height="32" viewBox="0 0 24 24">
    <path d="M 24 0 L 0 0 L 0 3.601562 L 0.398438 3.601562 L 0.398438 24 L 7.601562 24 L 7.601562 19.199219 L 22.800781 19.199219 L 22.800781 3.601562 L 24 3.601562 Z M 1.199219 3.601562 L 1.601562 3.601562 L 1.601562 23.199219 L 1.199219 23.199219 Z M 3.199219 3.601562 L 3.199219 23.199219 L 2.398438 23.199219 L 2.398438 3.601562 Z M 4.398438 3.601562 L 4.398438 23.199219 L 4 23.199219 L 4 3.601562 Z M 5.601562 3.601562 L 5.601562 23.199219 L 5.199219 23.199219 L 5.199219 3.601562 Z M 6.800781 23.199219 L 6.398438 23.199219 L 6.398438 3.601562 L 6.800781 3.601562 Z M 7.601562 5.199219 L 10.800781 5.199219 L 10.800781 16.800781 L 7.601562 16.800781 Z M 22 18.398438 L 7.601562 18.398438 L 7.601562 17.601562 L 11.601562 17.601562 L 11.601562 4.398438 L 7.601562 4.398438 L 7.601562 3.601562 L 22 3.601562 Z M 23.199219 2.800781 L 0.800781 2.800781 L 0.800781 0.800781 L 23.199219 0.800781 Z M 23.199219 2.800781"/>
    <path d="M 12.398438 17.601562 L 21.199219 17.601562 L 21.199219 4.398438 L 12.398438 4.398438 L 12.398438 10 L 12 10 L 12 12 L 12.398438 12 Z M 13.199219 10.800781 L 15.199219 10.800781 L 15.199219 11.199219 L 12.800781 11.199219 L 12.800781 10.800781 Z M 16 12 L 16 10 L 13.199219 10 L 13.199219 5.199219 L 20.398438 5.199219 L 20.398438 16.800781 L 13.199219 16.800781 L 13.199219 12 Z M 16 12"/>
</svg>
