<svg xmlns="http://www.w3.org/2000/svg" width="32" height="32" viewBox="0 0 24 24">
    <path d="M 24 2.398438 L 24 0 L 0 0 L 0 2.398438 L 0.800781 2.398438 L 0.800781 21.601562 L 0 21.601562 L 0 24 L 24 24 L 24 21.601562 L 23.199219 21.601562 L 23.199219 2.398438 Z M 0.800781 0.800781 L 23.199219 0.800781 L 23.199219 1.601562 L 0.800781 1.601562 Z M 23.199219 23.199219 L 0.800781 23.199219 L 0.800781 22.398438 L 23.199219 22.398438 Z M 22.398438 21.601562 L 1.601562 21.601562 L 1.601562 2.398438 L 22.398438 2.398438 Z M 22.398438 21.601562"/>
    <path d="M11.601562 12.398438L2.398438 12.398438 2.398438 20.800781 11.601562 20.800781zM10.800781 20L3.199219 20 3.199219 13.199219 10.800781 13.199219zM21.601562 12.398438L12.398438 12.398438 12.398438 20.800781 21.601562 20.800781zM20.800781 20L13.199219 20 13.199219 13.199219 20.800781 13.199219zM21.601562 3.199219L12.398438 3.199219 12.398438 11.601562 21.601562 11.601562zM20.800781 10.800781L13.199219 10.800781 13.199219 4 20.800781 4zM11.601562 3.199219L2.398438 3.199219 2.398438 11.601562 11.601562 11.601562zM10.800781 10.800781L3.199219 10.800781 3.199219 4 10.800781 4zM10.800781 10.800781"/>
    <path d="M4 6.800781C4.101562 6.800781 4.203125 6.761719 4.28125 6.683594L5.882812 5.082031C6.039062 4.925781 6.039062 4.671875 5.882812 4.515625 5.726562 4.359375 5.472656 4.359375 5.316406 4.515625L3.71875 6.117188C3.5625 6.273438 3.5625 6.527344 3.71875 6.683594 3.796875 6.761719 3.898438 6.800781 4 6.800781zM4 8.800781C4.101562 8.800781 4.203125 8.761719 4.28125 8.683594L5.082031 7.882812C5.238281 7.726562 5.238281 7.472656 5.082031 7.316406 4.925781 7.160156 4.671875 7.160156 4.515625 7.316406L3.71875 8.117188C3.5625 8.273438 3.5625 8.527344 3.71875 8.683594 3.796875 8.761719 3.898438 8.800781 4 8.800781zM5.316406 6.515625C5.242188 6.589844 5.199219 6.695312 5.199219 6.800781 5.199219 6.902344 5.242188 7.007812 5.316406 7.085938 5.390625 7.15625 5.496094 7.199219 5.601562 7.199219 5.703125 7.199219 5.808594 7.15625 5.882812 7.085938 5.957031 7.007812 6 6.902344 6 6.800781 6 6.695312 5.957031 6.589844 5.882812 6.515625 5.730469 6.367188 5.46875 6.367188 5.316406 6.515625zM6.117188 6.28125C6.195312 6.359375 6.296875 6.398438 6.398438 6.398438 6.503906 6.398438 6.605469 6.359375 6.683594 6.28125L7.882812 5.082031C8.039062 4.925781 8.039062 4.671875 7.882812 4.515625 7.726562 4.359375 7.472656 4.359375 7.316406 4.515625L6.117188 5.71875C5.960938 5.875 5.960938 6.125 6.117188 6.28125zM14 6.800781C14.101562 6.800781 14.203125 6.761719 14.28125 6.683594L15.882812 5.082031C16.039062 4.925781 16.039062 4.671875 15.882812 4.515625 15.726562 4.359375 15.472656 4.359375 15.316406 4.515625L13.71875 6.117188C13.5625 6.273438 13.5625 6.527344 13.71875 6.683594 13.796875 6.761719 13.898438 6.800781 14 6.800781zM14 8.800781C14.101562 8.800781 14.203125 8.761719 14.28125 8.683594L15.082031 7.882812C15.238281 7.726562 15.238281 7.472656 15.082031 7.316406 14.925781 7.160156 14.671875 7.160156 14.515625 7.316406L13.71875 8.117188C13.5625 8.273438 13.5625 8.527344 13.71875 8.683594 13.796875 8.761719 13.898438 8.800781 14 8.800781zM15.316406 6.515625C15.242188 6.589844 15.199219 6.695312 15.199219 6.800781 15.199219 6.902344 15.242188 7.007812 15.316406 7.085938 15.390625 7.15625 15.496094 7.199219 15.601562 7.199219 15.703125 7.199219 15.808594 7.15625 15.882812 7.085938 15.957031 7.007812 16 6.902344 16 6.800781 16 6.695312 15.957031 6.589844 15.882812 6.515625 15.730469 6.367188 15.46875 6.367188 15.316406 6.515625zM16.117188 6.28125C16.195312 6.359375 16.296875 6.398438 16.398438 6.398438 16.503906 6.398438 16.605469 6.359375 16.683594 6.28125L17.882812 5.082031C18.039062 4.925781 18.039062 4.671875 17.882812 4.515625 17.726562 4.359375 17.472656 4.359375 17.316406 4.515625L16.117188 5.71875C15.960938 5.875 15.960938 6.125 16.117188 6.28125zM14 16C14.101562 16 14.203125 15.960938 14.28125 15.882812L15.882812 14.28125C16.039062 14.125 16.039062 13.875 15.882812 13.71875 15.726562 13.5625 15.472656 13.5625 15.316406 13.71875L13.71875 15.316406C13.5625 15.472656 13.5625 15.726562 13.71875 15.882812 13.796875 15.960938 13.898438 16 14 16zM14 18C14.101562 18 14.203125 17.960938 14.28125 17.882812L15.082031 17.082031C15.238281 16.925781 15.238281 16.671875 15.082031 16.515625 14.925781 16.359375 14.671875 16.359375 14.515625 16.515625L13.71875 17.316406C13.5625 17.472656 13.5625 17.726562 13.71875 17.882812 13.796875 17.960938 13.898438 18 14 18zM15.316406 15.714844C15.242188 15.792969 15.199219 15.894531 15.199219 16 15.199219 16.109375 15.242188 16.207031 15.316406 16.285156 15.390625 16.355469 15.496094 16.398438 15.601562 16.398438 15.703125 16.398438 15.808594 16.355469 15.882812 16.285156 15.957031 16.207031 16 16.109375 16 16 16 15.894531 15.957031 15.792969 15.882812 15.714844 15.730469 15.566406 15.464844 15.566406 15.316406 15.714844zM16.117188 15.484375C16.195312 15.5625 16.296875 15.601562 16.398438 15.601562 16.503906 15.601562 16.605469 15.5625 16.683594 15.484375L17.882812 14.28125C18.039062 14.125 18.039062 13.875 17.882812 13.71875 17.726562 13.5625 17.472656 13.5625 17.316406 13.71875L16.117188 14.917969C15.960938 15.074219 15.960938 15.328125 16.117188 15.484375zM4 16C4.101562 16 4.203125 15.960938 4.28125 15.882812L5.882812 14.28125C6.039062 14.125 6.039062 13.875 5.882812 13.71875 5.726562 13.5625 5.472656 13.5625 5.316406 13.71875L3.71875 15.316406C3.5625 15.472656 3.5625 15.726562 3.71875 15.882812 3.796875 15.960938 3.898438 16 4 16zM4 18C4.101562 18 4.203125 17.960938 4.28125 17.882812L5.082031 17.082031C5.238281 16.925781 5.238281 16.671875 5.082031 16.515625 4.925781 16.359375 4.671875 16.359375 4.515625 16.515625L3.71875 17.316406C3.5625 17.472656 3.5625 17.726562 3.71875 17.882812 3.796875 17.960938 3.898438 18 4 18zM5.316406 15.714844C5.242188 15.792969 5.199219 15.894531 5.199219 16 5.199219 16.109375 5.242188 16.207031 5.316406 16.285156 5.390625 16.355469 5.496094 16.398438 5.601562 16.398438 5.703125 16.398438 5.808594 16.355469 5.882812 16.285156 5.957031 16.207031 6 16.105469 6 16 6 15.894531 5.960938 15.792969 5.882812 15.714844 5.734375 15.566406 5.46875 15.566406 5.316406 15.714844zM6.117188 15.484375C6.195312 15.5625 6.296875 15.601562 6.398438 15.601562 6.503906 15.601562 6.605469 15.5625 6.683594 15.484375L7.882812 14.28125C8.039062 14.125 8.039062 13.875 7.882812 13.71875 7.726562 13.5625 7.472656 13.5625 7.316406 13.71875L6.117188 14.917969C5.960938 15.074219 5.960938 15.328125 6.117188 15.484375zM6.117188 15.484375"/>
</svg>
