<svg xmlns="http://www.w3.org/2000/svg" width="32" height="32" viewBox="0 0 24 24">
    <path d="M23.602.2H.398a.401.401 0 0 0 0 .8v22.8h4.403v-6h14.398v6h4.403V1a.4.4 0 0 0 0-.8zm-4.403.8v.8H4.801V1zm0 14.8H4.801V15h14.398zm-6.8-1.6h-.797V2.601h.796zm-1.598 0h-6V2.601h6zm2.398 0V2.601h6v11.597zM2.4 23h-1.2V1h1.2zM4 23h-.8V1H4zm.8-6v-.398h14.4V17zm16 6H20V1h.8zm2 0h-1.198V1H22.8zm0 0"/>
    <path d="M6 5.398c.102 0 .203-.039.281-.117l1.602-1.597a.4.4 0 0 0-.567-.567L5.72 4.72a.396.396 0 0 0 0 .562c.078.078.18.117.281.117zm0 0M6 7.398c.102 0 .203-.039.281-.117l.801-.797a.4.4 0 0 0-.566-.566l-.797.8a.396.396 0 0 0 0 .563c.078.078.18.117.281.117zm0 0M7.883 5.684A.409.409 0 0 0 8 5.398a.406.406 0 0 0-.117-.28.416.416 0 0 0-.567 0 .4.4 0 0 0 .286.683.406.406 0 0 0 .28-.117zm0 0M8.117 4.883a.399.399 0 0 0 .566 0l1.2-1.2a.4.4 0 0 0-.567-.566l-1.199 1.2a.4.4 0 0 0 0 .566zm0 0M9.316 5.117L5.72 8.72a.396.396 0 0 0 0 .562.396.396 0 0 0 .562 0l3.602-3.597a.4.4 0 0 0-.567-.567zm0 0M18.117 11.516l-1.601 1.601a.4.4 0 0 0 .566.567l1.602-1.602a.4.4 0 0 0-.567-.566zm0 0M18.117 9.516l-.8.8a.4.4 0 0 0 .566.567l.8-.801a.4.4 0 0 0-.566-.566zm0 0M16.516 11.117a.424.424 0 0 0-.118.281c0 .106.047.211.118.286.078.074.18.117.285.117a.416.416 0 0 0 .285-.117.423.423 0 0 0 .113-.286.42.42 0 0 0-.113-.28.42.42 0 0 0-.57 0zm0 0M16.281 11.918a.396.396 0 0 0-.562 0l-1.203 1.2a.4.4 0 0 0 .566.566l1.2-1.2a.4.4 0 0 0 0-.566zm0 0M14.8 11.8c.102 0 .204-.038.282-.116l3.602-3.602a.4.4 0 0 0-.567-.566l-3.601 3.601a.4.4 0 0 0 .285.684zm0 0"/>
</svg>
