<svg xmlns="http://www.w3.org/2000/svg" width="32" height="32" viewBox="0 0 24 24">
    <path d="M.710938 17.046875C1.40625 16.328125 2.328125 15.929688 3.308594 15.929688 4.289062 15.929688 5.214844 16.328125 5.910156 17.046875 5.910156 17.046875 5.914062 17.046875 5.914062 17.050781 5.917969 17.050781 5.917969 17.054688 5.917969 17.054688 5.941406 17.078125 5.96875 17.089844 5.996094 17.105469 6.015625 17.117188 6.03125 17.132812 6.054688 17.140625 6.082031 17.152344 6.113281 17.15625 6.144531 17.160156 6.164062 17.164062 6.183594 17.171875 6.207031 17.171875 6.207031 17.171875 6.210938 17.171875 6.210938 17.171875 6.226562 17.171875 6.242188 17.164062 6.261719 17.160156 6.296875 17.15625 6.332031 17.152344 6.363281 17.140625 6.382812 17.132812 6.398438 17.117188 6.417969 17.105469 6.445312 17.089844 6.472656 17.078125 6.496094 17.054688 6.496094 17.054688 6.496094 17.050781 6.5 17.050781 6.5 17.046875 6.503906 17.046875 6.503906 17.046875 7.199219 16.328125 8.125 15.929688 9.101562 15.929688 10.082031 15.929688 11.007812 16.328125 11.703125 17.046875 11.703125 17.046875 11.707031 17.046875 11.707031 17.050781 11.710938 17.050781 11.710938 17.054688 11.710938 17.054688 11.734375 17.078125 11.761719 17.089844 11.789062 17.105469 11.808594 17.117188 11.824219 17.132812 11.847656 17.140625 11.875 17.152344 11.90625 17.15625 11.9375 17.160156 11.957031 17.164062 11.976562 17.171875 12 17.171875 12 17.171875 12.003906 17.171875 12.003906 17.171875 12.019531 17.171875 12.039062 17.164062 12.054688 17.160156 12.089844 17.15625 12.125 17.152344 12.15625 17.140625 12.175781 17.132812 12.191406 17.117188 12.210938 17.105469 12.238281 17.089844 12.265625 17.078125 12.289062 17.054688 12.289062 17.054688 12.289062 17.050781 12.292969 17.050781 12.292969 17.046875 12.296875 17.046875 12.296875 17.046875 12.992188 16.328125 13.917969 15.929688 14.898438 15.929688 15.875 15.929688 16.800781 16.328125 17.496094 17.046875 17.496094 17.046875 17.5 17.046875 17.5 17.050781 17.503906 17.050781 17.503906 17.054688 17.503906 17.054688 17.527344 17.078125 17.554688 17.089844 17.582031 17.105469 17.601562 17.117188 17.617188 17.132812 17.640625 17.140625 17.667969 17.152344 17.699219 17.15625 17.730469 17.160156 17.75 17.164062 17.769531 17.171875 17.792969 17.171875 17.792969 17.171875 17.796875 17.171875 17.796875 17.171875 17.8125 17.171875 17.832031 17.164062 17.847656 17.160156 17.882812 17.15625 17.917969 17.152344 17.949219 17.140625 17.96875 17.132812 17.984375 17.117188 18.003906 17.105469 18.03125 17.089844 18.058594 17.078125 18.082031 17.054688 18.082031 17.054688 18.082031 17.050781 18.085938 17.050781 18.085938 17.046875 18.089844 17.046875 18.089844 17.046875 18.785156 16.328125 19.710938 15.929688 20.691406 15.929688 21.671875 15.929688 22.59375 16.328125 23.289062 17.046875 23.371094 17.128906 23.476562 17.171875 23.585938 17.171875 23.691406 17.171875 23.792969 17.132812 23.875 17.054688 24.039062 16.898438 24.042969 16.636719 23.882812 16.472656 23.03125 15.589844 21.894531 15.101562 20.691406 15.101562 19.617188 15.101562 18.605469 15.488281 17.792969 16.191406 16.980469 15.488281 15.96875 15.101562 14.898438 15.101562 13.824219 15.101562 12.8125 15.488281 12 16.191406 11.1875 15.488281 10.175781 15.101562 9.101562 15.101562 8.03125 15.101562 7.019531 15.488281 6.207031 16.191406 5.394531 15.488281 4.382812 15.101562 3.308594 15.101562 2.105469 15.101562.96875 15.589844.117188 16.472656-.0429688 16.636719-.0390625 16.898438.125 17.054688.289062 17.214844.550781 17.210938.710938 17.046875zM20.691406 18C19.617188 18 18.605469 18.386719 17.792969 19.089844 16.980469 18.386719 15.96875 18 14.898438 18 13.824219 18 12.8125 18.386719 12 19.089844 11.1875 18.386719 10.175781 18 9.101562 18 8.03125 18 7.019531 18.386719 6.207031 19.089844 5.394531 18.386719 4.382812 18 3.308594 18 2.105469 18 .96875 18.484375.117188 19.367188-.0429688 19.53125-.0390625 19.792969.125 19.953125.289062 20.109375.550781 20.105469.710938 19.941406 1.40625 19.222656 2.328125 18.828125 3.308594 18.828125 4.289062 18.828125 5.214844 19.222656 5.910156 19.941406 5.910156 19.945312 5.914062 19.945312 5.914062 19.945312 5.917969 19.949219 5.917969 19.949219 5.917969 19.953125 5.941406 19.972656 5.96875 19.984375 5.992188 20 6.011719 20.011719 6.03125 20.03125 6.054688 20.039062 6.082031 20.050781 6.113281 20.050781 6.140625 20.054688 6.164062 20.058594 6.183594 20.070312 6.207031 20.070312 6.207031 20.070312 6.210938 20.066406 6.210938 20.066406 6.226562 20.066406 6.246094 20.0625 6.261719 20.058594 6.296875 20.054688 6.332031 20.050781 6.363281 20.035156 6.382812 20.027344 6.398438 20.011719 6.417969 20 6.445312 19.984375 6.472656 19.972656 6.496094 19.953125 6.496094 19.949219 6.496094 19.949219 6.5 19.945312 6.5 19.945312 6.503906 19.945312 6.503906 19.941406 7.199219 19.222656 8.125 18.828125 9.101562 18.828125 10.082031 18.828125 11.007812 19.222656 11.703125 19.941406 11.703125 19.945312 11.707031 19.945312 11.707031 19.945312 11.710938 19.949219 11.710938 19.949219 11.710938 19.953125 11.734375 19.972656 11.761719 19.984375 11.785156 20 11.808594 20.011719 11.824219 20.03125 11.847656 20.039062 11.875 20.050781 11.90625 20.050781 11.933594 20.054688 11.957031 20.058594 11.976562 20.070312 12 20.070312 12 20.070312 12.003906 20.066406 12.003906 20.066406 12.023438 20.066406 12.039062 20.0625 12.054688 20.058594 12.089844 20.054688 12.125 20.050781 12.15625 20.035156 12.175781 20.027344 12.191406 20.011719 12.210938 20 12.238281 19.984375 12.265625 19.972656 12.289062 19.953125 12.289062 19.949219 12.289062 19.949219 12.292969 19.945312 12.292969 19.945312 12.296875 19.945312 12.296875 19.941406 12.992188 19.222656 13.917969 18.828125 14.898438 18.828125 15.875 18.828125 16.800781 19.222656 17.496094 19.941406 17.496094 19.945312 17.5 19.945312 17.5 19.945312 17.503906 19.949219 17.503906 19.949219 17.503906 19.953125 17.527344 19.972656 17.554688 19.984375 17.578125 20 17.601562 20.011719 17.617188 20.03125 17.640625 20.039062 17.667969 20.050781 17.699219 20.050781 17.726562 20.054688 17.75 20.058594 17.769531 20.070312 17.792969 20.070312 17.792969 20.070312 17.796875 20.066406 17.796875 20.066406 17.816406 20.066406 17.832031 20.0625 17.847656 20.058594 17.882812 20.054688 17.917969 20.050781 17.949219 20.035156 17.96875 20.027344 17.988281 20.011719 18.003906 20 18.03125 19.984375 18.058594 19.972656 18.082031 19.953125 18.082031 19.949219 18.082031 19.949219 18.085938 19.945312 18.085938 19.945312 18.089844 19.945312 18.089844 19.941406 18.785156 19.222656 19.710938 18.828125 20.691406 18.828125 21.671875 18.828125 22.59375 19.222656 23.289062 19.941406 23.371094 20.027344 23.476562 20.070312 23.585938 20.070312 23.691406 20.070312 23.792969 20.03125 23.875 19.953125 24.039062 19.792969 24.042969 19.53125 23.882812 19.367188 23.03125 18.484375 21.894531 18 20.691406 18zM20.691406 20.898438C19.617188 20.898438 18.605469 21.28125 17.792969 21.984375 16.980469 21.28125 15.96875 20.898438 14.898438 20.898438 13.824219 20.898438 12.8125 21.28125 12 21.984375 11.1875 21.28125 10.175781 20.898438 9.101562 20.898438 8.03125 20.898438 7.019531 21.28125 6.207031 21.984375 5.394531 21.28125 4.382812 20.898438 3.308594 20.898438 2.105469 20.898438.96875 21.382812.117188 22.265625-.0429688 22.429688-.0390625 22.691406.125 22.847656.289062 23.007812.550781 23.003906.710938 22.839844 1.40625 22.121094 2.328125 21.722656 3.308594 21.722656 4.289062 21.722656 5.214844 22.121094 5.910156 22.839844 5.910156 22.839844 5.914062 22.839844 5.914062 22.84375 5.917969 22.84375 5.917969 22.847656 5.917969 22.847656 5.941406 22.871094 5.96875 22.882812 5.996094 22.898438 6.015625 22.910156 6.03125 22.925781 6.054688 22.933594 6.085938 22.945312 6.117188 22.949219 6.148438 22.953125 6.167969 22.957031 6.1875 22.964844 6.207031 22.964844 6.207031 22.964844 6.207031 22.964844 6.210938 22.964844 6.230469 22.964844 6.25 22.957031 6.269531 22.953125 6.300781 22.949219 6.332031 22.945312 6.363281 22.933594 6.382812 22.925781 6.402344 22.910156 6.421875 22.898438 6.445312 22.882812 6.472656 22.871094 6.492188 22.847656 6.496094 22.847656 6.496094 22.84375 6.5 22.84375 6.5 22.839844 6.503906 22.839844 6.503906 22.839844 7.199219 22.121094 8.125 21.722656 9.101562 21.722656 10.082031 21.722656 11.007812 22.121094 11.703125 22.839844 11.703125 22.839844 11.707031 22.839844 11.707031 22.84375 11.710938 22.84375 11.710938 22.847656 11.710938 22.847656 11.734375 22.871094 11.761719 22.882812 11.789062 22.898438 11.808594 22.910156 11.824219 22.925781 11.847656 22.933594 11.878906 22.945312 11.910156 22.949219 11.941406 22.953125 11.960938 22.957031 11.980469 22.964844 12 22.964844 12 22.964844 12.003906 22.964844 12.003906 22.964844 12.023438 22.964844 12.042969 22.957031 12.0625 22.953125 12.09375 22.949219 12.125 22.945312 12.15625 22.933594 12.175781 22.925781 12.195312 22.910156 12.214844 22.898438 12.238281 22.882812 12.265625 22.871094 12.289062 22.847656 12.289062 22.847656 12.289062 22.84375 12.292969 22.84375 12.292969 22.839844 12.296875 22.839844 12.296875 22.839844 12.992188 22.121094 13.917969 21.722656 14.898438 21.722656 15.875 21.722656 16.800781 22.121094 17.496094 22.839844 17.496094 22.839844 17.5 22.839844 17.5 22.84375 17.503906 22.84375 17.503906 22.847656 17.503906 22.847656 17.527344 22.871094 17.554688 22.882812 17.582031 22.898438 17.601562 22.910156 17.617188 22.925781 17.640625 22.933594 17.671875 22.945312 17.703125 22.949219 17.734375 22.953125 17.753906 22.957031 17.773438 22.964844 17.792969 22.964844 17.792969 22.964844 17.796875 22.964844 17.796875 22.964844 17.816406 22.964844 17.835938 22.957031 17.855469 22.953125 17.886719 22.949219 17.917969 22.945312 17.949219 22.933594 17.96875 22.925781 17.988281 22.910156 18.007812 22.898438 18.03125 22.882812 18.058594 22.871094 18.082031 22.847656 18.082031 22.847656 18.082031 22.84375 18.085938 22.84375 18.085938 22.839844 18.089844 22.839844 18.089844 22.839844 18.785156 22.121094 19.710938 21.722656 20.691406 21.722656 21.671875 21.722656 22.59375 22.121094 23.289062 22.839844 23.371094 22.921875 23.476562 22.964844 23.585938 22.964844 23.691406 22.964844 23.792969 22.925781 23.875 22.847656 24.039062 22.691406 24.042969 22.429688 23.882812 22.265625 23.03125 21.382812 21.894531 20.898438 20.691406 20.898438zM14.898438 11.792969C16.949219 11.792969 18.621094 10.121094 18.621094 8.070312 18.621094 6.015625 16.949219 4.34375 14.898438 4.34375L6.621094 4.34375C6.390625 4.34375 6.207031 4.53125 6.207031 4.757812 6.207031 4.988281 6.390625 5.171875 6.621094 5.171875L14.898438 5.171875C16.492188 5.171875 17.792969 6.472656 17.792969 8.070312 17.792969 9.667969 16.492188 10.964844 14.898438 10.964844 14.667969 10.964844 14.484375 11.152344 14.484375 11.378906 14.484375 11.609375 14.667969 11.792969 14.898438 11.792969zM14.898438 11.792969"/>
    <path d="M14.898438 10.136719C16.039062 10.136719 16.964844 9.210938 16.964844 8.070312 16.964844 6.929688 16.039062 6 14.898438 6 14.667969 6 14.484375 6.183594 14.484375 6.414062 14.484375 6.640625 14.667969 6.828125 14.898438 6.828125 15.582031 6.828125 16.136719 7.382812 16.136719 8.070312 16.136719 8.753906 15.582031 9.308594 14.898438 9.308594 14.210938 9.308594 13.65625 8.753906 13.65625 8.070312 13.65625 7.839844 13.46875 7.65625 13.242188 7.65625 13.011719 7.65625 12.828125 7.839844 12.828125 8.070312 12.828125 9.210938 13.753906 10.136719 14.898438 10.136719zM12.414062 6L9.929688 6C9.703125 6 9.515625 6.183594 9.515625 6.414062 9.515625 6.640625 9.703125 6.828125 9.929688 6.828125L12.414062 6.828125C12.640625 6.828125 12.828125 6.640625 12.828125 6.414062 12.828125 6.183594 12.640625 6 12.414062 6zM2.898438 1.863281L15.722656 1.863281C15.953125 1.863281 16.136719 1.675781 16.136719 1.449219 16.136719 1.21875 15.953125 1.035156 15.722656 1.035156L2.898438 1.035156C2.667969 1.035156 2.484375 1.21875 2.484375 1.449219 2.484375 1.675781 2.667969 1.863281 2.898438 1.863281zM4.136719 3.101562C4.136719 3.332031 4.324219 3.515625 4.550781 3.515625L19.449219 3.515625C19.675781 3.515625 19.863281 3.332031 19.863281 3.101562 19.863281 2.875 19.675781 2.691406 19.449219 2.691406L4.550781 2.691406C4.324219 2.691406 4.136719 2.875 4.136719 3.101562zM4.136719 3.101562"/>
</svg>
