<svg xmlns="http://www.w3.org/2000/svg" width="32" height="32" viewBox="0 0 24 24">
    <path d="M 12 0 C 5.382812 0 0 5.382812 0 12 C 0 18.617188 5.382812 24 12 24 C 18.617188 24 24 18.617188 24 12 C 24 5.382812 18.617188 0 12 0 Z M 12 23.199219 C 5.824219 23.199219 0.800781 18.175781 0.800781 12 C 0.800781 5.824219 5.824219 0.800781 12 0.800781 C 18.175781 0.800781 23.199219 5.824219 23.199219 12 C 23.199219 18.175781 18.175781 23.199219 12 23.199219 Z M 12 23.199219"/>
    <path d="M6.800781 5.601562C5.917969 5.601562 5.199219 6.316406 5.199219 7.199219 5.199219 8.082031 5.917969 8.800781 6.800781 8.800781 7.683594 8.800781 8.398438 8.082031 8.398438 7.199219 8.398438 6.316406 7.683594 5.601562 6.800781 5.601562zM6.800781 8C6.359375 8 6 7.640625 6 7.199219 6 6.757812 6.359375 6.398438 6.800781 6.398438 7.242188 6.398438 7.601562 6.757812 7.601562 7.199219 7.601562 7.640625 7.242188 8 6.800781 8zM13.914062 6.839844L16.398438 6.839844C16.621094 6.839844 16.800781 6.660156 16.800781 6.441406 16.800781 6.21875 16.621094 6.039062 16.398438 6.039062L13.914062 6.039062C10.597656 6.039062 8 8.753906 8 12.21875 8 15.6875 10.597656 18.398438 13.914062 18.398438L16.398438 18.398438C16.621094 18.398438 16.800781 18.222656 16.800781 18 16.800781 17.777344 16.621094 17.601562 16.398438 17.601562L13.914062 17.601562C11 17.601562 8.800781 15.289062 8.800781 12.21875 8.800781 9.152344 11 6.839844 13.914062 6.839844zM13.914062 6.839844"/>
</svg>
