<svg xmlns="http://www.w3.org/2000/svg" width="32" height="32" viewBox="0 0 24 24">
    <path d="M6.621 4.137a.414.414 0 1 1-.828 0 .414.414 0 0 1 .828 0zm0 0M4.965 5.793a.414.414 0 1 1-.828 0 .414.414 0 0 1 .828 0zm0 0M3.309 7.45a.413.413 0 0 1-.41.413.414.414 0 0 1 0-.828c.226 0 .41.184.41.414zm0 0M6.621 7.45a.414.414 0 1 1-.828 0 .414.414 0 0 1 .828 0zm0 0M4.965 9.102a.414.414 0 0 1-.828 0c0-.227.187-.41.414-.41.23 0 .414.183.414.41zm0 0M3.309 10.758a.412.412 0 1 1-.824 0c0-.227.183-.414.413-.414.227 0 .41.187.41.414zm0 0M6.621 10.758a.414.414 0 1 1-.828 0 .414.414 0 0 1 .828 0zm0 0M4.965 12.414a.414.414 0 1 1-.829 0 .414.414 0 0 1 .829 0zm0 0M3.309 14.07a.413.413 0 0 1-.41.414.414.414 0 0 1 0-.828c.226 0 .41.184.41.414zm0 0M6.621 14.07a.414.414 0 1 1-.828 0 .414.414 0 0 1 .828 0zm0 0M4.965 15.723a.414.414 0 1 1-.828 0 .414.414 0 0 1 .828 0zm0 0M3.309 17.379a.412.412 0 1 1-.824 0c0-.227.183-.414.413-.414.227 0 .41.187.41.414zm0 0M6.621 17.379a.414.414 0 1 1-.828 0 .414.414 0 0 1 .828 0zm0 0M4.965 19.035a.414.414 0 1 1-.829 0 .414.414 0 0 1 .829 0zm0 0M6.621 20.691c0 .227-.187.41-.414.41a.412.412 0 1 1 0-.824c.227 0 .414.184.414.414zm0 0M9.93 4.137a.414.414 0 1 1-.828 0 .414.414 0 0 1 .828 0zm0 0M13.242 4.137a.414.414 0 1 1-.828 0 .414.414 0 0 1 .828 0zm0 0M8.277 5.793a.414.414 0 1 1-.828 0 .414.414 0 0 1 .828 0zm0 0M11.586 5.793a.414.414 0 1 1-.828 0 .414.414 0 0 1 .828 0zm0 0M8.277 2.484a.414.414 0 1 1-.828 0 .414.414 0 0 1 .828 0zm0 0M11.586 2.484a.414.414 0 1 1-.829 0 .414.414 0 0 1 .829 0zm0 0M9.93 7.45a.414.414 0 1 1-.829-.001.414.414 0 0 1 .829 0zm0 0M13.242 7.45a.414.414 0 1 1-.828 0 .414.414 0 0 1 .828 0zm0 0M8.277 9.102a.414.414 0 0 1-.828 0c0-.227.184-.41.414-.41.227 0 .414.183.414.41zm0 0M11.586 9.102a.414.414 0 0 1-.828 0c0-.227.187-.41.414-.41.23 0 .414.183.414.41zm0 0M9.93 10.758a.414.414 0 1 1-.828 0 .414.414 0 0 1 .828 0zm0 0M13.242 10.758a.414.414 0 1 1-.828 0 .414.414 0 0 1 .828 0zm0 0M8.277 12.414a.414.414 0 1 1-.828 0 .414.414 0 0 1 .828 0zm0 0M11.586 12.414a.414.414 0 1 1-.829 0 .414.414 0 0 1 .829 0zm0 0M9.93 14.07a.414.414 0 1 1-.829 0 .414.414 0 0 1 .829 0zm0 0M13.242 14.07a.414.414 0 1 1-.828 0 .414.414 0 0 1 .828 0zm0 0M8.277 15.723a.414.414 0 1 1-.828 0 .414.414 0 0 1 .828 0zm0 0M11.586 15.723a.414.414 0 1 1-.828 0 .414.414 0 0 1 .828 0zm0 0M9.93 17.379a.414.414 0 1 1-.828 0 .414.414 0 0 1 .828 0zm0 0M13.242 17.379a.414.414 0 1 1-.828 0 .414.414 0 0 1 .828 0zm0 0M8.277 19.035a.414.414 0 1 1-.828 0 .414.414 0 0 1 .828 0zm0 0M11.586 19.035a.414.414 0 1 1-.829 0 .414.414 0 0 1 .829 0zm0 0M9.93 20.691c0 .227-.184.41-.414.41a.413.413 0 0 1-.414-.41.414.414 0 0 1 .828 0zm0 0M13.242 20.691c0 .227-.187.41-.414.41a.412.412 0 1 1 0-.824c.227 0 .414.184.414.414zm0 0M11.586 22.344a.414.414 0 1 1-.828 0 .414.414 0 0 1 .828 0zm0 0M16.55 4.137a.414.414 0 1 1 0 0zm0 0M14.898 5.793a.414.414 0 1 1-.828 0 .414.414 0 0 1 .828 0zm0 0M14.898 2.484a.414.414 0 1 1-.828 0 .414.414 0 0 1 .828 0zm0 0M16.55 7.45a.414.414 0 1 1-.828-.001.414.414 0 0 1 .829 0zm0 0M14.898 9.102a.414.414 0 0 1-.828 0c0-.227.184-.41.414-.41.227 0 .414.183.414.41zm0 0M16.55 10.758a.414.414 0 1 1 0 0zm0 0M14.898 12.414a.414.414 0 1 1-.828 0 .414.414 0 0 1 .828 0zm0 0M16.55 14.07a.414.414 0 1 1-.828 0 .414.414 0 0 1 .829 0zm0 0M14.898 15.723a.414.414 0 1 1-.828 0 .414.414 0 0 1 .828 0zm0 0M16.55 17.379a.414.414 0 1 1 0 0zm0 0M14.898 19.035a.414.414 0 1 1-.828 0 .414.414 0 0 1 .828 0zm0 0M16.55 20.691a.413.413 0 1 1-.828 0 .414.414 0 0 1 .829 0zm0 0M14.898 22.344a.414.414 0 1 1-.828 0 .414.414 0 0 1 .828 0zm0 0M18.207 5.793a.414.414 0 1 1-.828 0 .414.414 0 0 1 .828 0zm0 0M19.863 7.45a.414.414 0 1 1-.828 0 .414.414 0 0 1 .828 0zm0 0M18.207 9.102a.414.414 0 0 1-.828 0c0-.227.187-.41.414-.41.23 0 .414.183.414.41zm0 0M19.863 10.758a.414.414 0 1 1-.828 0 .414.414 0 0 1 .828 0zm0 0M18.207 12.414a.414.414 0 1 1-.829 0 .414.414 0 0 1 .829 0zm0 0M19.863 14.07a.414.414 0 1 1-.828 0 .414.414 0 0 1 .828 0zm0 0M18.207 15.723a.414.414 0 1 1-.828 0 .414.414 0 0 1 .828 0zm0 0M19.863 17.379a.414.414 0 1 1-.828 0 .414.414 0 0 1 .828 0zm0 0M18.207 19.035a.414.414 0 1 1-.829 0 .414.414 0 0 1 .829 0zm0 0M21.516 9.102a.412.412 0 1 1-.824.004.412.412 0 0 1 .824-.004zm0 0M21.516 12.414a.414.414 0 0 1-.414.414.413.413 0 0 1-.41-.414.412.412 0 1 1 .824 0zm0 0M21.516 15.723a.412.412 0 1 1-.825 0c0-.227.184-.414.41-.414.231 0 .415.187.415.414zm0 0"/>
    <path d="M12 0C5.383 0 0 5.383 0 12s5.383 12 12 12 12-5.383 12-12S18.617 0 12 0zm11.031 13.762a.425.425 0 0 0-.273-.106.414.414 0 0 0 0 .828c.05 0 .094-.015.14-.03a11.13 11.13 0 0 1-1.925 4.194.405.405 0 0 0-.278.356c-.367.457-.773.887-1.207 1.281-.015-.004-.027-.008-.039-.008a.409.409 0 0 0-.41.391A11.123 11.123 0 0 1 12 23.172c-1.32 0-2.586-.23-3.766-.652a.448.448 0 0 0 .043-.176.417.417 0 0 0-.414-.414.41.41 0 0 0-.386.28 11.214 11.214 0 0 1-5.915-6.233.413.413 0 0 0 .094-.254.41.41 0 0 0-.32-.395 11.099 11.099 0 0 1-.496-2.855c.031.199.195.355.402.355a.414.414 0 0 0 0-.828.407.407 0 0 0-.406.367 11.267 11.267 0 0 1 .277-2.875c.043.012.082.024.13.024a.414.414 0 0 0 .413-.414c0-.2-.144-.356-.332-.395A11.207 11.207 0 0 1 9.29 1.164c.066.043.14.078.227.078a.407.407 0 0 0 .351-.207A10.97 10.97 0 0 1 12 .828c.14 0 .277.004.414.012a.414.414 0 0 0 .414.402.407.407 0 0 0 .399-.347c1.523.167 2.953.644 4.23 1.359a.4.4 0 0 0-.078.23c0 .227.187.414.414.414.156 0 .285-.09.36-.218.48.316.933.672 1.359 1.058-.024-.004-.043-.015-.063-.015a.414.414 0 1 0 .414.414c0-.028-.011-.055-.02-.082.423.418.813.867 1.165 1.343a.41.41 0 0 0 .094.809c.14 0 .257-.074.332-.18a11.046 11.046 0 0 1 1.632 4.461.408.408 0 0 0-.308-.144.414.414 0 0 0 0 .828c.16 0 .293-.094.363-.223a10.905 10.905 0 0 1-.09 2.813zm0 0"/>
</svg>
