<svg xmlns="http://www.w3.org/2000/svg" width="32" height="32" viewBox="0 0 24 24">
    <path d="M15.602 3.602c-1.29 0-2.508.3-3.602.82a8.763 8.763 0 0 0-.621-.27.403.403 0 0 0-.031-.32l-.602-1.039a.397.397 0 0 0-.547-.145.394.394 0 0 0-.144.543l.379.66a8.417 8.417 0 0 0-2.036-.25c-3.492 0-6.488 2.141-7.753 5.18H.64l-.11.305c-.008.016-.011.035-.02.055-.074.199-.14.406-.199.617l-.035.144a6.72 6.72 0 0 0-.18.88c-.019.144-.042.284-.058.433C.016 11.477 0 11.738 0 12c0 .281.016.566.043.848.02.183.05.363.082.543.016.093.023.191.043.285v.008a8.41 8.41 0 0 0 4.305 5.734l.172.09a12.059 12.059 0 0 0 .727.32c.1.04.202.074.304.11a8.515 8.515 0 0 0 .855.246c.102.023.203.046.305.066.187.035.375.063.566.086.102.012.203.02.305.027.191.016.387.028.578.032h.008l.105.003h.176v-.003a8.015 8.015 0 0 0 1.86-.25l-.38.66a.397.397 0 0 0 .145.547c.063.039.133.054.2.054.14 0 .273-.07.347-.199l.602-1.039a.403.403 0 0 0 .03-.32 9.62 9.62 0 0 0 .622-.27c1.094.52 2.313.82 3.602.82C20.23 20.398 24 16.633 24 12c0-4.633-3.77-8.398-8.398-8.398zM1 10.297c.008-.04.02-.078.031-.121.04-.16.082-.32.133-.48a1.801 1.801 0 0 1 1.234 1.702c0 .895-.652 1.637-1.496 1.778-.015-.086-.03-.168-.043-.254l-.023-.227a6.849 6.849 0 0 1 .035-1.668c.012-.109.031-.222.05-.332.024-.133.048-.265.079-.398zm.063 3.66a2.604 2.604 0 0 0 2.136-2.559 2.61 2.61 0 0 0-1.754-2.453c1.18-2.672 3.852-4.547 6.953-4.547.938 0 1.848.172 2.715.508-.027.016-.05.035-.078.051-.082.055-.164.11-.246.168-.172.121-.34.246-.504.375a7.971 7.971 0 0 0-.64.586c-.028.027-.055.05-.082.078A.39.39 0 0 0 9.601 6a.398.398 0 0 0-.403-.398.398.398 0 1 0 0 .796.37.37 0 0 0 .196-.058 8.43 8.43 0 0 0-1.223 1.742.39.39 0 0 0-.172.316c0 .004.004.008.004.012-.074.149-.137.3-.2.453a.413.413 0 0 0-.202-.062.401.401 0 0 0-.403.398c0 .207.156.367.356.39-.067.223-.125.45-.172.68-.004.02-.012.04-.016.06-.012.058-.02.116-.031.175a.396.396 0 0 0-.137.297c0 .074.028.14.063.199-.004.023-.004.05-.008.074-.004.051-.012.102-.016.156-.023.254-.039.512-.039.77 0 .117.008.23.012.344-.004.02-.012.035-.012.054 0 .028.012.051.016.079l.023.293c.004.054.012.105.016.156.027.25.066.5.113.746 0 .004.004.008.004.012A.385.385 0 0 0 7.2 14c0 .203.153.363.348.39.008.028.016.051.023.079l.012.039c.086.273.188.547.3.808a.402.402 0 0 0-.684.285.401.401 0 0 0 .802 0c0-.011-.004-.019-.004-.027.074.156.152.313.234.465a.4.4 0 0 0 .168.762c.094 0 .18-.04.247-.094.07.102.136.203.21.3a.403.403 0 0 0-.054.192c0 .223.18.403.398.403a.36.36 0 0 0 .125-.028c.094.11.196.215.297.32-.008.036-.02.067-.02.106a.395.395 0 0 0 .536.371l.117.106a.217.217 0 0 1 .031.023c.055.043.11.082.16.121a.396.396 0 0 0-.047.18c0 .219.18.398.403.398a7.39 7.39 0 0 1-2.02.383c.008-.059.02-.121.02-.184 0-.37-.094-.718-.258-1.027A.4.4 0 0 0 8.801 18a.398.398 0 0 0-.403-.398.398.398 0 0 0-.32.171 2.066 2.066 0 0 0-.293-.222c.125-.07.215-.2.215-.352a.4.4 0 0 0-.8 0c0 .031.01.063.019.09a2.144 2.144 0 0 0-.617-.09 2.2 2.2 0 0 0-2.02 1.363 7.631 7.631 0 0 1-3.52-4.605zm9.957 5.168c.023-.016.046-.027.066-.047.012.004.02.012.027.016l-.093.031zm-3.137.45a7.113 7.113 0 0 1-.715-.083 6.957 6.957 0 0 1-.496-.097l-.18-.047a8.028 8.028 0 0 1-.523-.153c-.032-.011-.067-.027-.102-.039a6.042 6.042 0 0 1-.574-.226c-.004 0-.004-.004-.004-.004A1.403 1.403 0 0 1 6.602 18C7.372 18 8 18.629 8 19.398a.931.931 0 0 1-.016.18c-.03 0-.066-.004-.101-.004zm7.719.027a7.541 7.541 0 0 1-3.813-1.036c-.074-.043-.144-.09-.215-.132-.101-.063-.199-.122-.293-.188a8.38 8.38 0 0 1-.476-.355 2.715 2.715 0 0 1-.117-.102 9.428 9.428 0 0 1-.415-.375c-.023-.027-.05-.05-.074-.074a7.615 7.615 0 0 1-1.601-2.383 7.65 7.65 0 0 1-.239-.652c-.007-.028-.015-.051-.023-.078a8.068 8.068 0 0 1-.188-.73 8.41 8.41 0 0 1-.093-.63c-.008-.058-.016-.113-.02-.172-.02-.23-.035-.46-.035-.695 0-.234.016-.465.035-.695.004-.059.012-.114.02-.172a8.41 8.41 0 0 1 .101-.672c.051-.234.11-.461.18-.688.008-.027.016-.05.023-.078a7.65 7.65 0 0 1 .239-.652c.379-.895.925-1.7 1.601-2.379.024-.027.051-.05.074-.078.133-.129.274-.254.415-.375.039-.035.078-.07.117-.102a8.38 8.38 0 0 1 .476-.355c.094-.066.192-.125.293-.188.07-.043.14-.09.215-.132a7.541 7.541 0 0 1 3.813-1.035c4.187 0 7.597 3.41 7.597 7.601s-3.41 7.602-7.597 7.602zm0 0M15.602 20.8a.401.401 0 0 0-.403.4v1.198a.401.401 0 0 0 .8 0l.001-1.199a.4.4 0 0 0-.398-.398zm0 0M15.602 3.2A.4.4 0 0 0 16 2.8V1.603a.401.401 0 1 0-.8 0V2.8c0 .219.179.398.402.398zm0 0"/>
    <path d="M22.105 5.895c.102 0 .204-.04.282-.118l.851-.847a.4.4 0 0 0-.566-.567l-.848.848a.4.4 0 0 0 .281.684zm0 0M13.324 20.5a.402.402 0 0 0-.492.281l-.309 1.16a.4.4 0 1 0 .77.207l.312-1.16a.4.4 0 0 0-.28-.488zm0 0M17.879 3.5a.4.4 0 0 0 .488-.281l.313-1.16a.4.4 0 0 0-.773-.207l-.313 1.16c-.055.21.07.43.285.488zm0 0M12.832 3.219a.4.4 0 0 0 .387.293c.035 0 .07-.004.105-.012a.4.4 0 0 0 .281-.488l-.312-1.16a.399.399 0 1 0-.77.207zm0 0M18.367 20.781a.4.4 0 0 0-.773.207l.312 1.16c.047.18.207.297.387.297a.4.4 0 0 0 .383-.504zm0 0M20.547 19.77a.398.398 0 1 0-.692.398l.598 1.039a.397.397 0 0 0 .547.145.394.394 0 0 0 .145-.543zm0 0M20 4.379a.4.4 0 0 0 .547-.148l.598-1.04A.393.393 0 0 0 21 2.648a.397.397 0 0 0-.547.145l-.598 1.039a.397.397 0 0 0 .145.547zm0 0M7.2 8.398a.401.401 0 1 1-.803.003.401.401 0 0 1 .802-.003zm0 0M8 7.602a.4.4 0 1 1-.8-.004.4.4 0 0 1 .8.004zm0 0M8.8 6.8A.401.401 0 1 1 8 6.797.401.401 0 0 1 8.8 6.8zm0 0M5.602 7.2a.401.401 0 1 1 0 0zm0 0M5.2 14c0 .223-.18.398-.4.398a.398.398 0 1 1 0-.796c.22 0 .4.175.4.398zm0 0M10.398 5.2a.398.398 0 1 1-.796 0 .398.398 0 1 1 .796 0zm0 0M8.8 5.2a.401.401 0 1 1 0 0zm0 0M8 6c0 .223-.18.398-.398.398a.398.398 0 1 1 0-.796C7.82 5.602 8 5.777 8 6zm0 0M6.398 10.8a.398.398 0 1 1-.796 0 .398.398 0 1 1 .796 0zm0 0M7.2 10c0 .223-.18.398-.4.398a.398.398 0 1 1 0-.796c.22 0 .4.175.4.398zm0 0M7.2 11.602a.4.4 0 1 1-.801-.004.4.4 0 0 1 .8.004zm0 0M6.398 12.398a.398.398 0 1 1-.796 0 .398.398 0 1 1 .796 0zm0 0M7.2 13.2a.401.401 0 1 1-.803.002.401.401 0 0 1 .802-.003zm0 0M7.2 14.8a.4.4 0 1 1-.801-.003.4.4 0 0 1 .8.004zm0 0M7.2 16.398a.401.401 0 1 1-.803.003.401.401 0 0 1 .802-.003zm0 0M9.602 18.8a.401.401 0 1 1-.802-.004.401.401 0 0 1 .802.005zm0 0"/>
</svg>
