<svg xmlns="http://www.w3.org/2000/svg" width="32" height="32" viewBox="0 0 24 24">
    <path d="M12.098 23.59c-4.43 0-8.696-2.442-10.809-6.66A12.023 12.023 0 0 1 6.273.953L7.27.41l-.297 1.094a11.066 11.066 0 0 0 .789 7.867 11.002 11.002 0 0 0 6.418 5.563c2.812.937 5.82.718 8.472-.606.121-.062.239-.125.356-.191l.992-.543-.281 1.086a12.064 12.064 0 0 1-6.242 7.633 11.957 11.957 0 0 1-5.38 1.277zM5.793 2.383a11.052 11.052 0 0 0-3.64 14.113c2.742 5.473 9.421 7.695 14.894 4.957a11.139 11.139 0 0 0 5.394-5.965 11.977 11.977 0 0 1-8.566.364 11.997 11.997 0 0 1-6.98-6.047 12.027 12.027 0 0 1-1.102-7.422zm0 0"/>
</svg>
