<svg xmlns="http://www.w3.org/2000/svg" width="32" height="32" viewBox="0 0 24 24">
    <path d="M22.71 11.563c-.093.054-.19.105-.288.156-4.606 2.304-10.23.433-12.54-4.172a9.332 9.332 0 0 1-.66-6.625L9.473 0l-.84.457c-4.648 2.55-6.558 8.32-4.343 13.137a.407.407 0 0 0 .738-.34c-1.906-4.145-.492-9.055 3.2-11.594-.36 2.121-.04 4.309.93 6.25 2.417 4.828 8.187 6.89 13.09 4.785a9.369 9.369 0 0 1-4.544 5.02 9.3 9.3 0 0 1-4.871.965.406.406 0 0 0-.063.809c.25.019.508.03.758.03h.09a10.095 10.095 0 0 0 4.45-1.078 10.174 10.174 0 0 0 5.253-6.43l.23-.906zm0 0"/>
    <path d="M12.703 17.637a.407.407 0 0 0 .406-.703l-1.148-.664 1.148-.665a.405.405 0 0 0 .149-.554.404.404 0 0 0-.555-.149l-1.148.664v-1.328a.406.406 0 1 0-.813 0v1.328l-1.148-.664a.409.409 0 0 0-.559.149.409.409 0 0 0 .152.554l1.149.665-1.149.664a.408.408 0 0 0-.152.554.418.418 0 0 0 .356.203.44.44 0 0 0 .203-.054l1.148-.664V18.3a.406.406 0 1 0 .813 0v-1.328zm0 0M4.727 15.05a.404.404 0 0 0-.555-.148l-1.149.664v-1.328a.406.406 0 1 0-.812 0v1.328l-1.148-.664a.409.409 0 0 0-.56.149.409.409 0 0 0 .153.554l1.149.665-1.149.664a.408.408 0 0 0-.152.554.418.418 0 0 0 .355.203.44.44 0 0 0 .204-.054l1.148-.664V18.3a.406.406 0 1 0 .812 0v-1.328l1.149.664a.407.407 0 0 0 .406-.703L3.43 16.27l1.148-.665a.405.405 0 0 0 .149-.554zm0 0M9.195 20.344a.404.404 0 0 0-.554-.149l-1.149.664v-1.328a.406.406 0 1 0-.813 0v1.328l-1.148-.664a.409.409 0 0 0-.558.149.409.409 0 0 0 .152.554l1.148.665-1.148.664a.409.409 0 0 0-.152.554.418.418 0 0 0 .355.203.398.398 0 0 0 .203-.054l1.149-.664v1.328a.406.406 0 1 0 .812 0v-1.328l1.149.664a.407.407 0 0 0 .406-.703l-1.149-.665 1.149-.664a.404.404 0 0 0 .148-.554zm0 0"/>
</svg>
