<svg xmlns="http://www.w3.org/2000/svg" width="32" height="32" viewBox="0 0 24 24">
    <path d="M 22.710938 11.5625 C 22.617188 11.617188 22.519531 11.667969 22.421875 11.71875 C 17.816406 14.023438 12.191406 12.152344 9.882812 7.546875 C 8.855469 5.492188 8.621094 3.140625 9.222656 0.921875 L 9.472656 0 L 8.632812 0.457031 C 3.984375 3.007812 2.074219 8.777344 4.289062 13.59375 C 4.382812 13.796875 4.625 13.886719 4.828125 13.792969 C 5.03125 13.699219 5.121094 13.460938 5.027344 13.253906 C 3.121094 9.109375 4.535156 4.199219 8.226562 1.660156 C 7.867188 3.78125 8.1875 5.96875 9.15625 7.910156 C 11.574219 12.738281 17.34375 14.800781 22.246094 12.695312 C 21.414062 14.867188 19.796875 16.664062 17.703125 17.714844 C 16.414062 18.359375 15.039062 18.691406 13.609375 18.707031 C 13.351562 18.707031 13.085938 18.699219 12.832031 18.679688 C 12.605469 18.660156 12.414062 18.832031 12.394531 19.054688 C 12.378906 19.277344 12.546875 19.472656 12.769531 19.488281 C 13.019531 19.507812 13.277344 19.519531 13.527344 19.519531 C 13.558594 19.519531 13.585938 19.519531 13.617188 19.519531 C 15.171875 19.503906 16.667969 19.140625 18.066406 18.441406 C 20.648438 17.148438 22.5625 14.804688 23.320312 12.011719 L 23.550781 11.105469 Z M 22.710938 11.5625"/>
    <path d="M12.703125 17.636719C12.769531 17.671875 12.835938 17.691406 12.90625 17.691406 13.046875 17.691406 13.183594 17.617188 13.257812 17.488281 13.371094 17.292969 13.304688 17.042969 13.109375 16.933594L11.960938 16.269531 13.109375 15.605469C13.304688 15.492188 13.371094 15.242188 13.257812 15.050781 13.144531 14.855469 12.898438 14.789062 12.703125 14.902344L11.554688 15.566406 11.554688 14.238281C11.554688 14.011719 11.371094 13.832031 11.148438 13.832031 10.921875 13.832031 10.742188 14.011719 10.742188 14.238281L10.742188 15.566406 9.59375 14.902344C9.398438 14.789062 9.148438 14.855469 9.035156 15.050781 8.925781 15.246094 8.992188 15.492188 9.1875 15.605469L10.335938 16.269531 9.1875 16.933594C8.992188 17.042969 8.925781 17.292969 9.035156 17.488281 9.113281 17.617188 9.25 17.691406 9.390625 17.691406 9.457031 17.691406 9.527344 17.671875 9.59375 17.636719L10.742188 16.972656 10.742188 18.300781C10.742188 18.523438 10.921875 18.707031 11.148438 18.707031 11.371094 18.707031 11.554688 18.523438 11.554688 18.300781L11.554688 16.972656zM4.726562 15.050781C4.613281 14.855469 4.367188 14.789062 4.171875 14.902344L3.023438 15.566406 3.023438 14.238281C3.023438 14.011719 2.839844 13.832031 2.617188 13.832031 2.390625 13.832031 2.210938 14.011719 2.210938 14.238281L2.210938 15.566406 1.0625 14.902344C.867188 14.789062.617188 14.855469.503906 15.050781.394531 15.246094.460938 15.492188.65625 15.605469L1.804688 16.269531.65625 16.933594C.460938 17.042969.394531 17.292969.503906 17.488281.582031 17.617188.71875 17.691406.859375 17.691406.925781 17.691406.996094 17.671875 1.0625 17.636719L2.210938 16.972656 2.210938 18.300781C2.210938 18.523438 2.390625 18.707031 2.617188 18.707031 2.839844 18.707031 3.023438 18.523438 3.023438 18.300781L3.023438 16.972656 4.171875 17.636719C4.238281 17.671875 4.304688 17.691406 4.375 17.691406 4.515625 17.691406 4.652344 17.617188 4.726562 17.488281 4.839844 17.292969 4.773438 17.042969 4.578125 16.933594L3.429688 16.269531 4.578125 15.605469C4.773438 15.492188 4.839844 15.242188 4.726562 15.050781zM9.195312 20.34375C9.082031 20.148438 8.835938 20.082031 8.640625 20.195312L7.492188 20.859375 7.492188 19.53125C7.492188 19.308594 7.308594 19.125 7.085938 19.125 6.859375 19.125 6.679688 19.308594 6.679688 19.53125L6.679688 20.859375 5.53125 20.195312C5.335938 20.082031 5.085938 20.148438 4.972656 20.34375 4.863281 20.539062 4.929688 20.785156 5.125 20.898438L6.273438 21.5625 5.125 22.226562C4.929688 22.339844 4.863281 22.585938 4.972656 22.78125 5.050781 22.910156 5.1875 22.984375 5.328125 22.984375 5.394531 22.984375 5.464844 22.96875 5.53125 22.929688L6.679688 22.265625 6.679688 23.59375C6.679688 23.816406 6.859375 24 7.085938 24 7.308594 24 7.492188 23.816406 7.492188 23.59375L7.492188 22.265625 8.640625 22.929688C8.707031 22.96875 8.773438 22.984375 8.84375 22.984375 8.984375 22.984375 9.121094 22.910156 9.195312 22.78125 9.308594 22.585938 9.242188 22.339844 9.046875 22.226562L7.898438 21.5625 9.046875 20.898438C9.242188 20.785156 9.308594 20.539062 9.195312 20.34375zM9.195312 20.34375"/>
</svg>
