<svg xmlns="http://www.w3.org/2000/svg" width="32" height="32" viewBox="0 0 24 24">
    <path d="M13.191 11.914c-5.96 0-10.808 4.848-10.808 10.809a.4.4 0 0 0 .8 0c0-5.52 4.489-10.008 10.008-10.008 5.52 0 10.008 4.488 10.008 10.008a.401.401 0 0 0 .801 0c0-5.961-4.848-10.809-10.809-10.809zm0 0"/>
    <path d="M13.191 14.105c-4.754 0-8.617 3.864-8.617 8.618a.4.4 0 0 0 .801 0 7.822 7.822 0 0 1 7.816-7.817c4.309 0 7.817 3.504 7.817 7.817a.401.401 0 0 0 .8 0c0-4.754-3.867-8.618-8.617-8.618zm0 0"/>
    <path d="M13.191 16.293a6.434 6.434 0 0 0-6.425 6.43.4.4 0 0 0 .8 0 5.635 5.635 0 0 1 5.625-5.63 5.635 5.635 0 0 1 5.625 5.63.401.401 0 0 0 .801 0c0-3.543-2.883-6.43-6.426-6.43zm0 0"/>
    <path d="M13.191 18.484a4.241 4.241 0 0 0-4.234 4.239.4.4 0 0 0 .8 0 3.44 3.44 0 0 1 3.434-3.438 3.44 3.44 0 0 1 3.434 3.438.401.401 0 0 0 .8 0 4.241 4.241 0 0 0-4.234-4.239zm0 0"/>
    <path d="M13.191 20.676a2.046 2.046 0 0 0-2.043 2.047.4.4 0 0 0 .801 0c0-.688.555-1.246 1.242-1.246.684 0 1.243.558 1.243 1.246a.401.401 0 0 0 .8 0 2.048 2.048 0 0 0-2.043-2.047zm0 0M2.762 18.527a.403.403 0 0 0-.133-.55 3.812 3.812 0 0 1-1.277-5.227 3.793 3.793 0 0 1 4.199-1.707c.183.59.535 1.113 1.02 1.516.074.062.163.09.253.09a.398.398 0 0 0 .254-.707 2.39 2.39 0 0 1-.793-1.25c0-.016-.008-.032-.012-.047a2.308 2.308 0 0 1-.058-.329 2.394 2.394 0 0 1 .539-1.757 2.383 2.383 0 0 1 2.195-.848c-.11.469-.12.969-.004 1.469a.396.396 0 0 0 .39.308c.032 0 .063-.004.095-.008a.401.401 0 0 0 .297-.484 2.404 2.404 0 0 1 1.789-2.887 2.367 2.367 0 0 1 1.812.297c.547.336.926.867 1.074 1.492a.4.4 0 0 0 .48.297.405.405 0 0 0 .302-.48 3.196 3.196 0 0 0-2.387-2.383 3.806 3.806 0 0 1 3.797-3.652 3.802 3.802 0 0 1 3.793 3.633 3.208 3.208 0 0 0-2.793 3.171.401.401 0 0 0 .8 0 2.406 2.406 0 0 1 2.403-2.402 2.406 2.406 0 0 1 2.402 2.402.401.401 0 1 0 .801 0c0-1.632-1.23-2.98-2.813-3.175a4.603 4.603 0 0 0-4.593-4.43 4.602 4.602 0 0 0-4.59 4.367c-.227.004-.45.031-.672.082a3.2 3.2 0 0 0-2.094 1.625 3.187 3.187 0 0 0-3.828 3.242 4.578 4.578 0 0 0-4.742 2.14 4.611 4.611 0 0 0 1.543 6.325.404.404 0 0 0 .55-.133zm0 0"/>
</svg>
