<svg xmlns="http://www.w3.org/2000/svg" width="32" height="32" viewBox="0 0 24 24">
    <path d="M11.422 14.422a.47.47 0 0 0-.637.183l-.965 1.743a.47.47 0 0 0 .82.453l.965-1.742a.469.469 0 0 0-.183-.637zm0 0M12.715 11.125l-.965 1.742a.469.469 0 0 0 .82.453l.965-1.738a.469.469 0 0 0-.183-.637.464.464 0 0 0-.637.18zm0 0M13.04 18.352a.47.47 0 0 0-.642.18l-.964 1.741a.469.469 0 0 0 .82.454l.965-1.739a.464.464 0 0 0-.18-.636zm0 0M14.965 14.871a.469.469 0 0 0-.637.184l-.965 1.738a.469.469 0 0 0 .82.453l.965-1.738a.469.469 0 0 0-.183-.637zm0 0M7.883 13.977a.474.474 0 0 0-.64.183l-.962 1.738a.462.462 0 0 0 .184.637.468.468 0 0 0 .637-.184l.96-1.738a.464.464 0 0 0-.18-.636zm0 0M5.953 17.453a.469.469 0 0 0-.637.184l-.964 1.742a.469.469 0 0 0 .82.453l.965-1.738a.474.474 0 0 0-.184-.64zm0 0M9.496 17.902a.469.469 0 0 0-.637.184l-.964 1.738a.47.47 0 0 0 .18.637.467.467 0 0 0 .64-.184l.965-1.738a.469.469 0 0 0-.184-.637zm0 0M7.566 21.383a.464.464 0 0 0-.636.18l-.965 1.742a.469.469 0 0 0 .82.453l.965-1.738a.469.469 0 0 0-.184-.637zm0 0M9.809 10.496a.47.47 0 0 0-.637.184l-.965 1.738a.469.469 0 0 0 .82.453l.965-1.738a.469.469 0 0 0-.183-.637zm0 0M18.508 15.316a.469.469 0 0 0-.637.184l-.965 1.742a.47.47 0 0 0 .41.695c.164 0 .325-.09.41-.242l.965-1.742a.47.47 0 0 0-.183-.637zm0 0M20.438 11.84a.469.469 0 0 0-.637.183l-.965 1.739a.47.47 0 0 0 .18.636.467.467 0 0 0 .64-.184l.965-1.737a.469.469 0 0 0-.183-.637zm0 0M15.79 6.547a.47.47 0 0 0 .637-.184l.964-1.742a.464.464 0 0 0-.18-.637.473.473 0 0 0-.64.184l-.966 1.738a.474.474 0 0 0 .184.64zm0 0M17.719 3.066a.467.467 0 0 0 .637-.184l.964-1.737a.469.469 0 0 0-.183-.637.464.464 0 0 0-.637.18l-.965 1.742a.469.469 0 0 0 .184.636zm0 0M16.895 11.39a.469.469 0 0 0-.637.184l-.965 1.739a.469.469 0 0 0 .82.457l.965-1.743a.469.469 0 0 0-.183-.636zm0 0M18.184 8.094l-.961 1.742a.462.462 0 0 0 .183.637c.07.039.149.058.223.058.168 0 .328-.09.414-.242l.96-1.738a.47.47 0 1 0-.82-.457zm0 0M12.25 6.098a.466.466 0 0 0 .637-.184l.965-1.738a.469.469 0 0 0-.82-.453l-.966 1.738a.469.469 0 0 0 .184.637zm0 0M10.32 9.578a.466.466 0 0 0 .637-.183l.965-1.739a.469.469 0 1 0-.82-.457l-.965 1.742a.469.469 0 0 0 .183.637zm0 0M4.98 12.367a.47.47 0 0 0-.636.184l-.965 1.742a.47.47 0 0 0 .82.453l.965-1.742a.469.469 0 0 0-.184-.637zm0 0M5.492 11.45a.466.466 0 0 0 .637-.184l.965-1.739a.469.469 0 0 0-.184-.636.462.462 0 0 0-.637.183l-.964 1.739a.469.469 0 0 0 .183.636zm0 0M9.348 4.492a.47.47 0 0 0 .637-.184l.964-1.742a.464.464 0 0 0-.18-.636.472.472 0 0 0-.64.183l-.961 1.742a.465.465 0 0 0 .18.637zm0 0M7.422 7.969a.47.47 0 0 0 .637-.18l.964-1.742a.469.469 0 0 0-.82-.453l-.965 1.738a.469.469 0 0 0 .184.637zm0 0M14.645 7.648l-.965 1.739a.469.469 0 0 0 .82.453l.965-1.738a.469.469 0 0 0-.82-.454zm0 0M14.176 2.617a.466.466 0 0 0 .637-.18l.964-1.742a.469.469 0 0 0-.82-.453l-.965 1.738a.469.469 0 0 0 .184.637zm0 0"/>
</svg>
