<svg xmlns="http://www.w3.org/2000/svg" width="32" height="32" viewBox="0 0 24 24">
    <path d="M 13.191406 11.914062 C 7.230469 11.914062 2.382812 16.761719 2.382812 22.722656 C 2.382812 22.941406 2.5625 23.121094 2.78125 23.121094 C 3.003906 23.121094 3.183594 22.941406 3.183594 22.722656 C 3.183594 17.203125 7.671875 12.714844 13.191406 12.714844 C 18.710938 12.714844 23.199219 17.203125 23.199219 22.722656 C 23.199219 22.941406 23.378906 23.121094 23.601562 23.121094 C 23.820312 23.121094 24 22.941406 24 22.722656 C 24 16.761719 19.152344 11.914062 13.191406 11.914062 Z M 13.191406 11.914062"/>
    <path d="M 13.191406 14.105469 C 8.4375 14.105469 4.574219 17.96875 4.574219 22.722656 C 4.574219 22.941406 4.753906 23.121094 4.972656 23.121094 C 5.195312 23.121094 5.375 22.941406 5.375 22.722656 C 5.375 18.410156 8.878906 14.90625 13.191406 14.90625 C 17.5 14.90625 21.007812 18.410156 21.007812 22.722656 C 21.007812 22.941406 21.1875 23.121094 21.410156 23.121094 C 21.628906 23.121094 21.808594 22.941406 21.808594 22.722656 C 21.808594 17.96875 17.941406 14.105469 13.191406 14.105469 Z M 13.191406 14.105469"/>
    <path d="M 13.191406 16.292969 C 9.648438 16.292969 6.765625 19.175781 6.765625 22.722656 C 6.765625 22.941406 6.945312 23.121094 7.164062 23.121094 C 7.386719 23.121094 7.566406 22.941406 7.566406 22.722656 C 7.566406 19.621094 10.089844 17.09375 13.191406 17.09375 C 16.292969 17.09375 18.816406 19.621094 18.816406 22.722656 C 18.816406 22.941406 18.996094 23.121094 19.21875 23.121094 C 19.4375 23.121094 19.617188 22.941406 19.617188 22.722656 C 19.617188 19.179688 16.734375 16.292969 13.191406 16.292969 Z M 13.191406 16.292969"/>
    <path d="M 13.191406 18.484375 C 10.855469 18.484375 8.957031 20.386719 8.957031 22.722656 C 8.957031 22.941406 9.136719 23.121094 9.355469 23.121094 C 9.578125 23.121094 9.757812 22.941406 9.757812 22.722656 C 9.757812 20.828125 11.296875 19.285156 13.191406 19.285156 C 15.085938 19.285156 16.625 20.828125 16.625 22.722656 C 16.625 22.941406 16.804688 23.121094 17.027344 23.121094 C 17.246094 23.121094 17.425781 22.941406 17.425781 22.722656 C 17.425781 20.386719 15.527344 18.484375 13.191406 18.484375 Z M 13.191406 18.484375"/>
    <path d="M13.191406 20.675781C12.0625 20.675781 11.148438 21.59375 11.148438 22.722656 11.148438 22.941406 11.328125 23.121094 11.546875 23.121094 11.769531 23.121094 11.949219 22.941406 11.949219 22.722656 11.949219 22.035156 12.503906 21.476562 13.191406 21.476562 13.875 21.476562 14.433594 22.035156 14.433594 22.722656 14.433594 22.941406 14.613281 23.121094 14.835938 23.121094 15.054688 23.121094 15.234375 22.941406 15.234375 22.722656 15.234375 21.59375 14.316406 20.675781 13.191406 20.675781zM2.761719 18.527344C2.875 18.335938 2.816406 18.089844 2.628906 17.976562.835938 16.886719.265625 14.542969 1.351562 12.75 2.230469 11.304688 3.933594 10.625 5.550781 11.042969 5.734375 11.632812 6.085938 12.15625 6.570312 12.558594 6.644531 12.621094 6.734375 12.648438 6.824219 12.648438 6.941406 12.648438 7.054688 12.601562 7.132812 12.503906 7.273438 12.332031 7.25 12.082031 7.078125 11.941406 6.683594 11.613281 6.410156 11.179688 6.285156 10.691406 6.285156 10.675781 6.277344 10.660156 6.273438 10.644531 6.246094 10.535156 6.226562 10.429688 6.214844 10.316406 6.15625 9.679688 6.34375 9.054688 6.753906 8.558594 7.296875 7.898438 8.128906 7.589844 8.949219 7.710938 8.839844 8.179688 8.828125 8.679688 8.945312 9.179688 8.988281 9.367188 9.152344 9.488281 9.335938 9.488281 9.367188 9.488281 9.398438 9.484375 9.429688 9.480469 9.644531 9.429688 9.777344 9.214844 9.726562 8.996094 9.421875 7.707031 10.226562 6.414062 11.515625 6.109375 12.140625 5.960938 12.78125 6.066406 13.328125 6.40625 13.875 6.742188 14.253906 7.273438 14.402344 7.898438 14.453125 8.113281 14.667969 8.246094 14.882812 8.195312 15.097656 8.144531 15.230469 7.929688 15.183594 7.714844 14.984375 6.882812 14.476562 6.175781 13.75 5.726562 13.453125 5.539062 13.128906 5.410156 12.796875 5.332031 12.878906 3.304688 14.546875 1.679688 16.59375 1.679688 18.632812 1.679688 20.296875 3.292969 20.386719 5.3125 18.816406 5.515625 17.59375 6.859375 17.59375 8.484375 17.59375 8.707031 17.773438 8.886719 17.996094 8.886719 18.214844 8.886719 18.394531 8.707031 18.394531 8.484375 18.394531 7.160156 19.472656 6.082031 20.796875 6.082031 22.121094 6.082031 23.199219 7.160156 23.199219 8.484375 23.199219 8.707031 23.378906 8.886719 23.597656 8.886719 23.820312 8.886719 24 8.707031 24 8.484375 24 6.851562 22.769531 5.503906 21.1875 5.308594 21.097656 2.851562 19.074219.878906 16.59375.878906 14.136719.878906 12.125 2.816406 12.003906 5.246094 11.777344 5.25 11.554688 5.277344 11.332031 5.328125 10.394531 5.550781 9.65625 6.164062 9.238281 6.953125 8.085938 6.71875 6.898438 7.125 6.132812 8.050781 5.632812 8.660156 5.382812 9.414062 5.410156 10.195312 3.554688 9.859375 1.671875 10.683594.667969 12.335938-.648438 14.503906.0429688 17.339844 2.210938 18.660156 2.277344 18.699219 2.347656 18.71875 2.417969 18.71875 2.554688 18.71875 2.6875 18.648438 2.761719 18.527344zM2.761719 18.527344"/>
</svg>
