<svg xmlns="http://www.w3.org/2000/svg" width="32" height="32" viewBox="0 0 24 24">
    <path d="M12 5.8c-6.617 0-12 5.384-12 12a.4.4 0 0 0 .8 0C.8 11.626 5.825 6.603 12 6.603c6.176 0 11.2 5.023 11.2 11.199a.401.401 0 0 0 .8 0c0-6.617-5.383-12-12-12zm0 0"/>
    <path d="M12 8.242c-5.27 0-9.559 4.29-9.559 9.559a.401.401 0 0 0 .801 0c0-4.828 3.93-8.758 8.758-8.758 4.828 0 8.758 3.93 8.758 8.758a.4.4 0 0 0 .8 0c0-5.27-4.288-9.559-9.558-9.559zm0 0"/>
    <path d="M12 10.684c-3.922 0-7.117 3.191-7.117 7.117a.401.401 0 0 0 .8 0A6.324 6.324 0 0 1 12 11.484a6.324 6.324 0 0 1 6.316 6.317.4.4 0 0 0 .801 0c0-3.926-3.195-7.117-7.117-7.117zm0 0"/>
    <path d="M12 13.125a4.681 4.681 0 0 0-4.676 4.676.401.401 0 0 0 .801 0A3.88 3.88 0 0 1 12 13.926a3.88 3.88 0 0 1 3.875 3.875.4.4 0 0 0 .8 0A4.681 4.681 0 0 0 12 13.125zm0 0"/>
    <path d="M12 15.57c-1.23 0-2.23 1-2.23 2.23a.401.401 0 0 0 .8 0c0-.788.64-1.433 1.43-1.433.79 0 1.43.645 1.43 1.434a.401.401 0 0 0 .8 0c0-1.23-1-2.23-2.23-2.23zm0 0"/>
</svg>
