<svg xmlns="http://www.w3.org/2000/svg" width="32" height="32" viewBox="0 0 24 24">
    <path d="M12 3.793c-4.633 0-8.398 3.77-8.398 8.402 0 1.328.3 2.598.894 3.778a.4.4 0 1 0 .715-.36 7.515 7.515 0 0 1-.813-3.418c0-4.191 3.41-7.601 7.602-7.601 4.191 0 7.602 3.41 7.602 7.601a7.552 7.552 0 0 1-1.52 4.559.399.399 0 0 0 .32.64.403.403 0 0 0 .32-.16 8.338 8.338 0 0 0 1.676-5.039c0-4.633-3.765-8.402-8.398-8.402zm0 0"/>
    <path d="M18.398 12.195c0-3.53-2.87-6.402-6.398-6.402-3.527 0-6.398 2.871-6.398 6.402 0 .887.175 1.75.53 2.559a.4.4 0 0 0 .528.203.397.397 0 0 0 .203-.523A5.606 5.606 0 0 1 12 6.594a5.606 5.606 0 0 1 5.602 5.601c0 .64-.11 1.266-.32 1.864a.4.4 0 1 0 .753.27 6.373 6.373 0 0 0 .363-2.134zm0 0M2.8 11.793H.399a.401.401 0 0 0 0 .8h2.403a.4.4 0 0 0 0-.8zm0 0M23.602 11.793h-2.403a.401.401 0 0 0 0 .8h2.403a.4.4 0 0 0 0-.8zm0 0M12 3.395c.223 0 .398-.18.398-.403V.594A.395.395 0 0 0 12 .195a.395.395 0 0 0-.398.399v2.398c0 .223.175.403.398.403zm0 0M18.504 6.09c.105 0 .207-.04.285-.117l2.293-2.297a.4.4 0 0 0-.566-.567l-2.293 2.297a.4.4 0 0 0 .28.684zm0 0M5.21 5.973a.399.399 0 0 0 .567 0 .4.4 0 0 0 0-.567L3.484 3.11a.4.4 0 0 0-.566.567zm0 0M15.438 4.094c.05.02.105.031.156.031.156 0 .304-.09.367-.242l.469-1.106a.396.396 0 0 0-.211-.523.396.396 0 0 0-.524.21l-.468 1.106a.399.399 0 0 0 .21.524zm0 0M8.184 3.813c.062.156.21.25.37.25a.399.399 0 0 0 .371-.547l-.448-1.114a.4.4 0 0 0-.742.297zm0 0M3.898 8.754a.399.399 0 0 0-.21-.524l-1.106-.468a.399.399 0 0 0-.523.21.405.405 0 0 0 .21.528l1.106.469a.398.398 0 0 0 .523-.215zm0 0M22.012 8.148a.397.397 0 0 0-.52-.222l-1.113.449a.404.404 0 0 0-.219.523.397.397 0 0 0 .52.22l1.113-.45a.397.397 0 0 0 .219-.52zm0 0"/>
    <path d="M17.68 15.793a.398.398 0 0 0-.547-.145L16 16.301v-1.309a.4.4 0 0 0-.8 0v1.309l-1.134-.653a.393.393 0 0 0-.543.145.397.397 0 0 0 .145.547l1.133.652-1.133.656a.397.397 0 0 0-.145.547c.075.125.207.2.344.2.07 0 .137-.02.2-.055l1.132-.652v1.304a.401.401 0 0 0 .8 0l.001-1.305 1.133.653a.401.401 0 0 0 .547-.145.402.402 0 0 0-.149-.547l-1.133-.656 1.133-.652a.402.402 0 0 0 .149-.547zm0 0M10.078 18.195a.4.4 0 0 0-.144-.547L8.8 16.992l1.133-.652a.4.4 0 0 0-.403-.692l-1.133.653v-1.309a.398.398 0 1 0-.796 0v1.309l-1.133-.653a.4.4 0 0 0-.402.691l1.132.653-1.133.656a.4.4 0 0 0 .403.692l1.133-.652v1.304a.398.398 0 1 0 .796 0v-1.305l1.133.653a.414.414 0 0 0 .2.055c.14 0 .273-.075.347-.2zm0 0M14.078 20.207a.402.402 0 0 0-.547-.148l-1.133.656v-1.309a.395.395 0 0 0-.398-.398.395.395 0 0 0-.398.398v1.309l-1.133-.656a.402.402 0 0 0-.403.695l1.133.652-1.133.653a.401.401 0 0 0 .403.695l1.133-.656v1.308c0 .223.175.399.398.399a.395.395 0 0 0 .398-.399v-1.308l1.133.656a.409.409 0 0 0 .547-.149.401.401 0 0 0-.144-.546l-1.133-.653 1.133-.652a.401.401 0 0 0 .144-.547zm0 0"/>
</svg>
