<svg xmlns="http://www.w3.org/2000/svg" width="32" height="32" viewBox="0 0 24 24">
    <path d="M21.254 8.14a4.606 4.606 0 0 0-4.586-4.257 4.587 4.587 0 0 0-3.535 1.66 5.867 5.867 0 0 0-4.735-2.379 5.923 5.923 0 0 0-5.914 5.918c0 1.543.59 2.977 1.641 4.066a4.584 4.584 0 0 0-3.367 2.18 4.608 4.608 0 0 0 1.539 6.32.403.403 0 0 0 .55-.133.4.4 0 0 0-.132-.55 3.806 3.806 0 0 1-1.274-5.223 3.78 3.78 0 0 1 4.196-1.703c.183.59.531 1.113 1.02 1.512.073.062.163.09.253.09a.398.398 0 0 0 .254-.707 2.364 2.364 0 0 1-.793-1.247c-.004-.019-.012-.039-.016-.058v-.004l-.007-.027c-.059-.27-.07-.54-.04-.805 0-.012.005-.027.005-.043.011-.066.023-.137.039-.207.003-.02.011-.043.015-.066.016-.059.035-.118.055-.176.008-.024.016-.051.027-.078.02-.051.043-.106.067-.157.011-.027.023-.054.039-.078.027-.054.054-.105.086-.156.015-.023.027-.047.043-.07a2.383 2.383 0 0 1 2.348-1.055c-.11.469-.122.969-.005 1.469a.404.404 0 0 0 .48.297.402.402 0 0 0 .302-.48c-.114-.481-.075-.962.09-1.395l.003-.016.024-.047c.031-.074.062-.144.097-.21l.036-.063a1.92 1.92 0 0 1 .148-.23c.105-.145.227-.282.363-.4.008-.007.016-.01.024-.019.058-.05.125-.101.191-.144.016-.012.031-.024.05-.035.06-.04.118-.075.18-.106a.894.894 0 0 1 .063-.035l.188-.082.066-.024a2.91 2.91 0 0 1 .262-.082c.129-.027.265-.046.398-.054.008 0 .016 0 .024-.004.136-.004.273 0 .414.015l.117.016a2.396 2.396 0 0 1 1.933 1.817.4.4 0 1 0 .778-.184 3.201 3.201 0 0 0-2.38-2.379c.005-.113.013-.227.024-.336.008-.039.012-.074.02-.113a4.06 4.06 0 0 1 .101-.469c.051-.164.11-.324.18-.48.004-.008.008-.016.012-.028.066-.144.144-.289.23-.426.02-.035.04-.066.059-.101l.02-.027a3.8 3.8 0 0 1 3.144-1.672 3.81 3.81 0 0 1 3.785 3.445 3.206 3.206 0 0 0-2.851 3.18.398.398 0 1 0 .796 0 2.405 2.405 0 0 1 2.403-2.399 2.401 2.401 0 0 1 2.398 2.399.401.401 0 0 0 .8 0c.001-1.61-1.198-2.942-2.745-3.164zm-8.996-.953a.895.895 0 0 0-.028.11 3.764 3.764 0 0 0-.082.363 4.247 4.247 0 0 0-.063.484c0 .032-.007.067-.01.102a3.25 3.25 0 0 0-.665.082c-.11.027-.219.059-.324.098-.02.004-.04.015-.059.023a2.865 2.865 0 0 0-.254.102l-.058.035c-.078.039-.156.078-.235.125-.02.016-.043.027-.062.043-.07.047-.14.094-.207.144-.024.016-.047.04-.07.055-.063.05-.121.102-.176.152-.027.024-.05.051-.078.079-.051.05-.102.101-.149.156l-.078.09c-.039.054-.082.11-.12.164l-.071.105a1.56 1.56 0 0 0-.106.172.68.68 0 0 0-.043.07c-.027-.004-.05-.004-.074-.007a1.537 1.537 0 0 0-.187-.024c-.09-.012-.18-.02-.27-.023-.066-.004-.129 0-.191 0-.086.004-.176.008-.262.015a3.096 3.096 0 0 0-.188.028c-.085.015-.171.035-.257.054-.059.016-.121.032-.18.051-.086.027-.168.063-.246.094-.059.023-.117.047-.172.074-.082.04-.16.086-.242.137-.047.027-.102.055-.149.09a3.719 3.719 0 0 0-.246.187c-.039.031-.078.059-.113.094a2.837 2.837 0 0 0-.504.582c-.02.027-.039.059-.059.09-.03.055-.066.11-.097.164-.024.039-.04.082-.059.121-.027.047-.05.098-.07.145-.024.046-.04.093-.055.14-.02.043-.035.09-.05.137-.016.05-.032.098-.044.148-.011.047-.023.09-.035.133-.011.055-.023.11-.03.16a1.468 1.468 0 0 0-.02.13c-.008.058-.012.112-.02.167 0 .043-.004.082-.004.125-.004.059-.004.117-.004.18v.027c-.07-.015-.14-.023-.215-.035a5.056 5.056 0 0 1-1.992-4.043 5.116 5.116 0 0 1 5.113-5.117c1.727 0 3.301.848 4.254 2.281-.164.297-.297.61-.394.941zm0 0"/>
    <path d="M.398 9.48h1.657a.401.401 0 1 0 0-.8H.398a.401.401 0 0 0 0 .8zm0 0M8.398 3.137c.223 0 .403-.18.403-.399V1.082a.401.401 0 0 0-.8 0l-.001 1.656a.4.4 0 0 0 .398.399zm0 0M3.629 4.879a.405.405 0 0 0 .285.117.4.4 0 0 0 .281-.684L2.613 2.73a.4.4 0 0 0-.566.567zm0 0M12.887 4.996c.101 0 .203-.039.281-.117l1.586-1.582a.4.4 0 0 0-.566-.567l-1.583 1.583a.394.394 0 0 0 0 .566.39.39 0 0 0 .282.117zm0 0M5.55 3.398a.404.404 0 0 0 .528.211.399.399 0 0 0 .211-.523l-.324-.762a.397.397 0 1 0-.735.309zm0 0M10.629 3.57a.4.4 0 0 0 .52-.223l.308-.765a.403.403 0 0 0-.223-.523.402.402 0 0 0-.52.222l-.308.766a.402.402 0 0 0 .223.523zm0 0M1.43 12.04a.398.398 0 0 0 .523.214l.762-.324a.4.4 0 0 0-.313-.739l-.761.325a.399.399 0 0 0-.211.523zm0 0M1.602 6.766l.765.308a.397.397 0 0 0 .52-.219.401.401 0 0 0-.219-.523l-.77-.309a.399.399 0 0 0-.52.223.399.399 0 0 0 .224.52zm0 0M23.277 14.508a.402.402 0 0 0-.547-.149l-1.128.653v-1.305a.401.401 0 0 0-.8 0l-.001 1.305-1.133-.653a.398.398 0 1 0-.398.691l1.128.657-1.128.652a.402.402 0 0 0-.149.547.409.409 0 0 0 .547.148l1.133-.656v1.309a.4.4 0 0 0 .8 0v-1.309l1.13.657a.409.409 0 0 0 .546-.149.397.397 0 0 0-.144-.547L22 15.707l1.133-.652a.398.398 0 0 0 .144-.547zm0 0M14.879 14.508a.402.402 0 0 0-.547-.149l-1.133.653v-1.305a.401.401 0 1 0-.8 0v1.305l-1.13-.653a.402.402 0 0 0-.546.149.394.394 0 0 0 .144.543l1.133.656-1.133.652a.397.397 0 0 0-.144.547c.074.13.207.2.347.2a.409.409 0 0 0 .2-.051l1.128-.657v1.309a.401.401 0 0 0 .801 0v-1.309l1.133.657a.409.409 0 0 0 .547-.149.402.402 0 0 0-.149-.547l-1.128-.652 1.128-.652a.403.403 0 0 0 .149-.547zm0 0M19.277 19.719a.397.397 0 0 0-.547-.145l-1.128.653v-1.309a.401.401 0 0 0-.801 0v1.309l-1.133-.653a.397.397 0 0 0-.547.145.402.402 0 0 0 .149.547l1.128.652-1.128.656a.4.4 0 1 0 .398.691l1.133-.652v1.305a.401.401 0 1 0 .8 0v-1.305l1.13.653a.4.4 0 0 0 .547-.148.393.393 0 0 0-.145-.544L18 20.918l1.133-.652a.397.397 0 0 0 .144-.547zm0 0"/>
</svg>
