<svg xmlns="http://www.w3.org/2000/svg" width="32" height="32" viewBox="0 0 24 24">
    <path d="M15.582 19.453a.406.406 0 0 0-.371-.246h-1.434l3.317-3.32a.394.394 0 0 0 0-.567.396.396 0 0 0-.563 0l-4.004 4.004a.326.326 0 0 0-.086.13.406.406 0 0 0 .367.555l1.438-.001-2.121 2.117a.4.4 0 0 0 .566.566l2.801-2.8a.443.443 0 0 0 .09-.133.41.41 0 0 0 0-.305zm0 0M21.332 13.719l-4 4.004a.425.425 0 0 0-.09.129.4.4 0 0 0 .371.555h1.434l-2.117 2.116a.4.4 0 0 0 .566.567l2.8-2.8a.37.37 0 0 0 .087-.134.376.376 0 0 0 0-.304.387.387 0 0 0-.215-.215.408.408 0 0 0-.152-.032h-1.438l3.32-3.32a.4.4 0 0 0-.566-.566zm0 0M21.188 8.023a4.603 4.603 0 0 0-4.594-4.43 4.602 4.602 0 0 0-4.59 4.368 3.29 3.29 0 0 0-.672.082 3.2 3.2 0 0 0-2.094 1.625A3.184 3.184 0 0 0 5.41 12.91a4.58 4.58 0 0 0-4.742 2.14 4.611 4.611 0 0 0 1.543 6.325.404.404 0 0 0 .55-.133.403.403 0 0 0-.132-.55 3.797 3.797 0 0 1-1.277-5.227 3.791 3.791 0 0 1 4.203-1.703c.18.57.52 1.101 1.015 1.511.075.063.164.09.254.09.117 0 .23-.047.313-.144a.401.401 0 0 0-.055-.563 2.372 2.372 0 0 1-.797-1.25c0-.015-.008-.031-.012-.05a2.161 2.161 0 0 1-.058-.325 2.394 2.394 0 0 1 .539-1.758 2.386 2.386 0 0 1 2.2-.847 3.16 3.16 0 0 0-.009 1.469c.047.187.211.308.39.308a.758.758 0 0 0 .095-.008.4.4 0 0 0 .297-.48 2.406 2.406 0 0 1 1.789-2.89c1.289-.305 2.582.5 2.886 1.788a.402.402 0 0 0 .781-.184 3.205 3.205 0 0 0-2.386-2.378 3.804 3.804 0 0 1 3.797-3.656 3.802 3.802 0 0 1 3.793 3.632 3.205 3.205 0 0 0-2.793 3.172.401.401 0 0 0 .8 0 2.406 2.406 0 0 1 2.403-2.402 2.406 2.406 0 0 1 2.402 2.402.401.401 0 0 0 .8 0c.001-1.633-1.23-2.98-2.811-3.176zm0 0"/>
    <path d="M7.164 6.035c.356.106.707.23.992.485.215.19.41.43.528.699.101.226.05.547.28.699.118.078.348.129.485.09.25-.074.196-.469.246-.664.094-.336.317-.653.578-.88a1.89 1.89 0 0 1 .579-.343c.203-.078.449-.059.617-.219.105-.105.148-.261.156-.41.012-.281-.16-.285-.383-.32a1.937 1.937 0 0 1-1.094-.563 1.786 1.786 0 0 1-.359-.523c-.082-.191-.09-.414-.195-.598-.168-.297-.66-.492-.801-.086-.152.442-.277.832-.617 1.172-.317.266-.739.403-1.11.57-.078.036-.16.07-.214.137-.082.098-.094.239-.086.371a.508.508 0 0 0 .043.2c.066.144.222.144.355.183zm2.043-1.344c.223.368.535.68.902.903-.367.226-.68.535-.902.906a2.717 2.717 0 0 0-.906-.906c.37-.223.68-.535.906-.903zm0 0M3.219 8.754a.705.705 0 0 0-.07-.145c-.126-.191-.512-.375-.684-.136-.07.093-.074.28-.11.398-.125.383-.343.711-.707.902-.218.118-.457.18-.691.258-.043.016-.094.031-.121.07-.027.032-.031.079-.035.126-.012.113-.016.226-.012.343.004.22.137.203.309.25.207.055.41.13.597.239.367.214.617.562.688.984.035.203.191.324.387.352.117.015.3.03.382-.051.114-.114.106-.328.149-.477a1.71 1.71 0 0 1 .23-.472c.215-.317.54-.516.914-.579.293-.05.364-.308.364-.562 0-.05 0-.102-.02-.149-.062-.171-.324-.125-.465-.152a1.32 1.32 0 0 1-.511-.23 1.443 1.443 0 0 1-.442-.504c-.074-.145-.094-.313-.152-.465zM2.8 10.977a2.26 2.26 0 0 0-.578-.579c.226-.156.422-.351.578-.574.156.223.351.418.574.574a2.308 2.308 0 0 0-.574.579zm0 0M.766 4.422H.77c1.039.16 1.843.965 2.003 2.004a.435.435 0 0 0 .426.37.436.436 0 0 0 .43-.37 2.387 2.387 0 0 1 2.004-2.004.436.436 0 0 0 .37-.43.43.43 0 0 0-.37-.426A2.395 2.395 0 0 1 3.629 1.56a.432.432 0 1 0-.855.004A2.4 2.4 0 0 1 .765 3.566a.43.43 0 0 0-.368.426c0 .215.157.395.368.43zm2.433-1.676c.293.527.723.957 1.246 1.246-.523.29-.957.723-1.246 1.246a3.175 3.175 0 0 0-1.242-1.246 3.15 3.15 0 0 0 1.242-1.246zm0 0"/>
</svg>
