<svg xmlns="http://www.w3.org/2000/svg" width="32" height="32" viewBox="0 0 24 24">
    <path d="M21.191 7.95a4.592 4.592 0 0 0-4.57-4.24 4.58 4.58 0 0 0-3.527 1.657 5.841 5.841 0 0 0-4.719-2.37 5.906 5.906 0 0 0-5.898 5.898c0 1.543.59 2.968 1.636 4.058a4.575 4.575 0 0 0-3.36 2.172 4.558 4.558 0 0 0-.534 3.469 4.55 4.55 0 0 0 2.074 2.832.396.396 0 0 0 .547-.133.395.395 0 0 0-.133-.547 3.782 3.782 0 0 1-1.27-5.207 3.77 3.77 0 0 1 4.184-1.7c.18.571.52 1.102 1.016 1.509.074.062.164.09.254.09a.401.401 0 0 0 .254-.707 2.36 2.36 0 0 1-.793-1.247c0-.004-.004-.007-.004-.015a2.384 2.384 0 0 1-.074-.602l.003-.062c0-.063.004-.121.012-.184.004-.035.008-.07.016-.105a.769.769 0 0 1 .023-.137c.008-.04.02-.078.027-.117.012-.043.024-.086.04-.13.011-.034.023-.073.039-.109.015-.043.035-.085.054-.132.016-.032.032-.063.047-.098l.082-.14c.016-.028.031-.055.047-.079a2.39 2.39 0 0 1 2.34-1.059 3.163 3.163 0 0 0 0 1.47.396.396 0 0 0 .387.304c.03 0 .062 0 .093-.008a.405.405 0 0 0 .297-.48 2.355 2.355 0 0 1 .074-1.356l.032-.074c.031-.086.074-.168.117-.25.004-.012.008-.02.012-.027.03-.055.066-.102.097-.153.07-.109.145-.21.23-.304.024-.024.052-.047.075-.07.074-.075.152-.141.234-.204.032-.027.063-.05.094-.074.106-.074.215-.137.328-.191a.954.954 0 0 1 .094-.04c.125-.054.258-.101.395-.136a2.23 2.23 0 0 1 .394-.055c.008 0 .016 0 .023-.004.137-.004.274 0 .41.016.97.117 1.813.82 2.047 1.824a.4.4 0 0 0 .778-.18 3.188 3.188 0 0 0-2.371-2.37c.004-.114.008-.227.023-.337.004-.039.012-.074.016-.113.023-.14.05-.281.09-.422.007-.015.007-.031.015-.047.047-.164.106-.324.176-.48a.085.085 0 0 0 .012-.02 3.14 3.14 0 0 1 .234-.437c.016-.024.027-.05.043-.074l.035-.051a3.78 3.78 0 0 1 3.133-1.664 3.798 3.798 0 0 1 3.774 3.445 3.196 3.196 0 0 0-2.778 3.164.4.4 0 0 0 .801 0c0-1.32 1.07-2.394 2.39-2.394a2.397 2.397 0 0 1 2.395 2.394.398.398 0 1 0 .797 0c0-1.633-1.23-2.98-2.809-3.168zM8.375 3.792c1.723 0 3.29.848 4.242 2.277-.168.293-.297.61-.394.942-.012.031-.02.066-.028.097a3.921 3.921 0 0 0-.11.543 3.92 3.92 0 0 0-.034.309c0 .035-.008.066-.012.101a3.213 3.213 0 0 0-.66.083c-.11.027-.219.058-.324.097-.016.004-.032.012-.047.02-.09.031-.18.066-.266.11-.012.003-.023.01-.035.015-.09.043-.18.093-.262.144a3.678 3.678 0 0 0-.277.191 2.81 2.81 0 0 0-.25.215 2.543 2.543 0 0 0-.262.277c-.058.071-.11.141-.164.216-.012.02-.027.039-.039.058-.02.032-.039.055-.058.086a5.076 5.076 0 0 0-.082.149c-.004.011-.012.02-.02.03-.023-.003-.05-.003-.074-.007a1.537 1.537 0 0 0-.188-.023c-.09-.012-.18-.02-.27-.024-.062-.004-.124 0-.187 0-.09.004-.176.008-.265.016a2.973 2.973 0 0 0-.442.086 1.463 1.463 0 0 0-.176.047 2.84 2.84 0 0 0-.253.097c-.055.024-.11.043-.165.07-.085.04-.164.087-.246.137-.047.028-.097.055-.144.086-.086.059-.164.125-.242.188-.04.035-.082.062-.118.094a3.692 3.692 0 0 0-.32.335l-.031.043a2.56 2.56 0 0 0-.152.207c-.02.028-.04.06-.06.09-.034.055-.07.114-.1.172l-.048.094c-.03.062-.062.121-.085.184l-.036.093c-.027.063-.05.13-.07.196-.008.03-.02.058-.027.086-.02.07-.035.14-.051.21-.004.028-.012.055-.016.082-.011.07-.023.141-.03.211 0 .032-.009.059-.009.09-.008.067-.008.133-.008.2-.003.035-.003.07-.003.105v.043a3.548 3.548 0 0 0-.215-.031 5.047 5.047 0 0 1-1.989-4.032 5.109 5.109 0 0 1 5.102-5.105zm0 0M12.95 19.21l-1.196 1.196a.396.396 0 0 0 0 .563.396.396 0 0 0 .562 0l1.196-1.196a.396.396 0 0 0 0-.562.396.396 0 0 0-.563 0zm0 0M10.555 21.602l-1.196 1.195a.4.4 0 0 0 .282.683c.101 0 .203-.039.28-.117l1.2-1.195a.4.4 0 0 0-.566-.566zm0 0M18.531 16.816l-1.195 1.196a.4.4 0 0 0 0 .566.41.41 0 0 0 .562 0l1.2-1.2a.396.396 0 0 0 0-.562.4.4 0 0 0-.567 0zm0 0M16.14 19.21l-1.199 1.196a.403.403 0 0 0 0 .563.405.405 0 0 0 .286.117c.101 0 .203-.04.28-.117l1.196-1.196a.396.396 0 0 0 0-.562.396.396 0 0 0-.562 0zm0 0"/>
    <path d="M12.715 16.816a.396.396 0 0 0-.563 0l-1.199 1.196a.408.408 0 0 0 0 .566.412.412 0 0 0 .567 0l1.195-1.2a.396.396 0 0 0 0-.562zm0 0M15.906 16.816a.396.396 0 0 0-.562 0l-1.2 1.196a.4.4 0 0 0 0 .566.41.41 0 0 0 .567 0l1.195-1.2a.396.396 0 0 0 0-.562zm0 0M10.32 19.21a.396.396 0 0 0-.562 0l-1.195 1.196a.396.396 0 0 0 0 .563.396.396 0 0 0 .562 0l1.195-1.196a.396.396 0 0 0 0-.562zm0 0M.398 9.297h1.653a.401.401 0 0 0 0-.8H.398a.4.4 0 0 0 0 .8zm0 0M8.375 2.969c.223 0 .398-.18.398-.399V.918a.398.398 0 1 0-.796 0V2.57a.4.4 0 0 0 .398.399zm0 0M3.621 4.703a.396.396 0 0 0 .563 0 .396.396 0 0 0 0-.562L2.605 2.562a.396.396 0 0 0-.562 0 .4.4 0 0 0 0 .567zm0 0M12.852 4.82c.101 0 .203-.039.28-.117l1.579-1.574a.4.4 0 0 0-.566-.567l-1.579 1.579a.399.399 0 1 0 .285.68zm0 0M5.535 3.23a.409.409 0 0 0 .367.243.4.4 0 0 0 .371-.555l-.324-.762a.399.399 0 1 0-.734.313zm0 0M10.598 3.398c.047.02.097.032.148.032a.4.4 0 0 0 .371-.25l.309-.766a.4.4 0 0 0-.742-.297l-.309.766a.394.394 0 0 0 .223.515zm0 0M1.426 11.848c.062.152.21.242.367.242.05 0 .105-.012.156-.031l.758-.325A.399.399 0 1 0 2.395 11l-.758.324a.399.399 0 0 0-.211.524zm0 0M1.594 6.586l.765.309a.396.396 0 0 0 .52-.219.4.4 0 0 0-.219-.52l-.765-.308a.399.399 0 0 0-.3.738zm0 0"/>
</svg>
