<svg xmlns="http://www.w3.org/2000/svg" width="32" height="32" viewBox="0 0 24 24">
    <path d="M 12 3.601562 C 7.367188 3.601562 3.601562 7.367188 3.601562 12 C 3.601562 16.632812 7.367188 20.398438 12 20.398438 C 16.632812 20.398438 20.398438 16.632812 20.398438 12 C 20.398438 7.367188 16.632812 3.601562 12 3.601562 Z M 12 19.601562 C 7.808594 19.601562 4.398438 16.191406 4.398438 12 C 4.398438 7.808594 7.808594 4.398438 12 4.398438 C 16.191406 4.398438 19.601562 7.808594 19.601562 12 C 19.601562 16.191406 16.191406 19.601562 12 19.601562 Z M 12 19.601562"/>
    <path d="M12 5.601562C8.472656 5.601562 5.601562 8.472656 5.601562 12 5.601562 15.527344 8.472656 18.398438 12 18.398438 15.527344 18.398438 18.398438 15.527344 18.398438 12 18.398438 8.472656 15.527344 5.601562 12 5.601562zM12 17.601562C8.910156 17.601562 6.398438 15.089844 6.398438 12 6.398438 8.910156 8.910156 6.398438 12 6.398438 15.089844 6.398438 17.601562 8.910156 17.601562 12 17.601562 15.089844 15.089844 17.601562 12 17.601562zM12 3.199219C12.222656 3.199219 12.398438 3.019531 12.398438 2.800781L12.398438.398438C12.398438.179688 12.222656 0 12 0 11.777344 0 11.601562.179688 11.601562.398438L11.601562 2.800781C11.601562 3.019531 11.777344 3.199219 12 3.199219zM12 20.800781C11.777344 20.800781 11.601562 20.980469 11.601562 21.199219L11.601562 23.601562C11.601562 23.820312 11.777344 24 12 24 12.222656 24 12.398438 23.820312 12.398438 23.601562L12.398438 21.199219C12.398438 20.980469 12.222656 20.800781 12 20.800781zM23.601562 11.601562L21.199219 11.601562C20.980469 11.601562 20.800781 11.777344 20.800781 12 20.800781 12.222656 20.980469 12.398438 21.199219 12.398438L23.601562 12.398438C23.820312 12.398438 24 12.222656 24 12 24 11.777344 23.820312 11.601562 23.601562 11.601562zM3.199219 12C3.199219 11.777344 3.019531 11.601562 2.800781 11.601562L.398438 11.601562C.179688 11.601562 0 11.777344 0 12 0 12.222656.179688 12.398438.398438 12.398438L2.800781 12.398438C3.019531 12.398438 3.199219 12.222656 3.199219 12zM18.503906 5.894531C18.609375 5.894531 18.710938 5.855469 18.789062 5.777344L21.082031 3.484375C21.238281 3.328125 21.238281 3.074219 21.082031 2.917969 20.925781 2.761719 20.671875 2.761719 20.515625 2.917969L18.222656 5.210938C18.066406 5.367188 18.066406 5.621094 18.222656 5.777344 18.300781 5.855469 18.402344 5.894531 18.503906 5.894531zM5.210938 18.222656L2.917969 20.515625C2.761719 20.671875 2.761719 20.925781 2.917969 21.082031 2.996094 21.160156 3.097656 21.199219 3.199219 21.199219 3.300781 21.199219 3.40625 21.160156 3.484375 21.082031L5.777344 18.789062C5.933594 18.632812 5.933594 18.378906 5.777344 18.222656 5.621094 18.066406 5.367188 18.066406 5.210938 18.222656zM18.789062 18.222656C18.632812 18.066406 18.378906 18.066406 18.222656 18.222656 18.066406 18.378906 18.066406 18.632812 18.222656 18.789062L20.515625 21.082031C20.59375 21.160156 20.699219 21.199219 20.800781 21.199219 20.902344 21.199219 21.003906 21.160156 21.082031 21.082031 21.238281 20.925781 21.238281 20.671875 21.082031 20.515625zM5.210938 5.777344C5.289062 5.855469 5.390625 5.894531 5.496094 5.894531 5.597656 5.894531 5.699219 5.855469 5.777344 5.777344 5.933594 5.621094 5.933594 5.367188 5.777344 5.210938L3.484375 2.917969C3.328125 2.761719 3.074219 2.761719 2.917969 2.917969 2.761719 3.074219 2.761719 3.328125 2.917969 3.484375zM20.101562 8.5625C20.164062 8.714844 20.3125 8.804688 20.46875 8.804688 20.519531 8.804688 20.574219 8.796875 20.625 8.773438L21.730469 8.304688C21.933594 8.21875 22.027344 7.984375 21.941406 7.78125 21.855469 7.578125 21.621094 7.480469 21.417969 7.570312L20.3125 8.039062C20.109375 8.125 20.015625 8.359375 20.101562 8.5625zM3.898438 15.4375C3.8125 15.234375 3.578125 15.140625 3.375 15.226562L2.269531 15.695312C2.066406 15.78125 1.972656 16.015625 2.058594 16.21875 2.125 16.371094 2.269531 16.464844 2.425781 16.464844 2.480469 16.464844 2.53125 16.453125 2.582031 16.429688L3.6875 15.960938C3.890625 15.875 3.984375 15.640625 3.898438 15.4375zM21.792969 15.523438L20.679688 15.074219C20.476562 14.992188 20.242188 15.089844 20.160156 15.296875 20.078125 15.5 20.175781 15.734375 20.378906 15.816406L21.492188 16.265625C21.542969 16.285156 21.59375 16.296875 21.644531 16.296875 21.800781 16.296875 21.953125 16.203125 22.015625 16.046875 22.097656 15.839844 21.996094 15.609375 21.792969 15.523438zM2.207031 8.476562L3.320312 8.925781C3.371094 8.945312 3.421875 8.953125 3.46875 8.953125 3.628906 8.953125 3.777344 8.859375 3.839844 8.703125 3.921875 8.5 3.824219 8.265625 3.621094 8.183594L2.507812 7.734375C2.300781 7.652344 2.070312 7.75 1.984375 7.953125 1.902344 8.160156 2.003906 8.390625 2.207031 8.476562zM15.960938 20.3125C15.875 20.109375 15.640625 20.015625 15.4375 20.101562 15.234375 20.1875 15.140625 20.421875 15.226562 20.625L15.695312 21.730469C15.761719 21.882812 15.90625 21.972656 16.0625 21.972656 16.117188 21.972656 16.167969 21.964844 16.21875 21.941406 16.421875 21.855469 16.519531 21.621094 16.429688 21.417969zM8.039062 3.6875C8.101562 3.839844 8.25 3.929688 8.40625 3.929688 8.457031 3.929688 8.511719 3.921875 8.5625 3.898438 8.765625 3.8125 8.859375 3.578125 8.773438 3.375L8.304688 2.269531C8.21875 2.066406 7.984375 1.972656 7.78125 2.058594 7.578125 2.144531 7.480469 2.378906 7.570312 2.582031zM8.703125 20.160156C8.5 20.078125 8.265625 20.175781 8.183594 20.378906L7.734375 21.492188C7.652344 21.699219 7.75 21.929688 7.953125 22.015625 8.003906 22.035156 8.054688 22.042969 8.105469 22.042969 8.261719 22.042969 8.414062 21.949219 8.476562 21.792969L8.925781 20.679688C9.007812 20.476562 8.910156 20.242188 8.703125 20.160156zM15.296875 3.839844C15.34375 3.859375 15.394531 3.871094 15.445312 3.871094 15.605469 3.871094 15.753906 3.777344 15.816406 3.621094L16.265625 2.507812C16.347656 2.300781 16.25 2.070312 16.046875 1.984375 15.839844 1.902344 15.609375 2.003906 15.523438 2.207031L15.074219 3.320312C14.992188 3.523438 15.089844 3.757812 15.296875 3.839844zM15.296875 3.839844"/>
</svg>
