<svg xmlns="http://www.w3.org/2000/svg" width="32" height="32" viewBox="0 0 24 24">
    <path d="M12 4.313c.223 0 .398-.18.398-.399V1.512a.398.398 0 1 0-.796 0v2.402c0 .219.175.398.398.398zm0 0M23.602 12.71h-2.403a.401.401 0 0 0 0 .802h2.403a.4.4 0 0 0 0-.801zm0 0M.398 13.512h2.403a.4.4 0 0 0 0-.801H.398a.401.401 0 0 0 0 .8zm0 0M18.504 7.008c.105 0 .207-.04.285-.117l2.293-2.297a.396.396 0 0 0 0-.563.4.4 0 0 0-.566 0l-2.293 2.293a.4.4 0 0 0 .28.684zm0 0M5.21 6.89a.399.399 0 0 0 .567 0 .4.4 0 0 0 0-.566L3.484 4.031a.4.4 0 0 0-.566 0 .396.396 0 0 0 0 .563zm0 0M20.102 9.676c.062.152.21.242.367.242.05 0 .105-.012.156-.031l1.105-.469a.399.399 0 0 0 .211-.523.399.399 0 0 0-.523-.215l-1.105.468a.402.402 0 0 0-.211.528zm0 0M2.207 9.586l1.113.45a.397.397 0 0 0 .52-.219.404.404 0 0 0-.219-.524l-1.113-.45a.403.403 0 0 0-.524.223.402.402 0 0 0 .223.52zm0 0M8.04 4.8c.062.153.21.243.366.243a.399.399 0 0 0 .367-.555l-.468-1.105a.399.399 0 1 0-.735.312zm0 0M15.297 4.953c.047.02.098.027.148.027.16 0 .309-.093.371-.25l.45-1.109a.403.403 0 0 0-.22-.523.403.403 0 0 0-.523.222l-.449 1.114a.399.399 0 0 0 .223.52zm0 0"/>
    <path d="M20.152 15.121c.16-.66.246-1.332.246-2.008 0-4.633-3.765-8.402-8.398-8.402-4.633 0-8.398 3.77-8.398 8.402 0 .688.086 1.375.261 2.055a4.154 4.154 0 0 0-.664-.055 4.269 4.269 0 0 0-3.086 1.32.397.397 0 0 0 .008.567c.16.152.41.148.567-.008a3.45 3.45 0 0 1 3.496-.934l.132.044c.133.046.258.097.383.156.004.004.008.004.012.008a5.1 5.1 0 0 1 .32.175c.02.016.04.028.059.04.09.058.172.12.258.183.023.02.05.04.074.059.101.082.2.172.289.27l.289.296.29-.297a3.37 3.37 0 0 1 .608-.504l.106-.066a3.454 3.454 0 0 1 1.957-.5H9c.672.039 1.332.277 1.902.707l.106.082c.105.09.207.18.305.281l.289.297.285-.297c.097-.101.199-.191.304-.281l.11-.082c.46-.352.98-.57 1.511-.664l.086-.012c.165-.023.329-.039.497-.039 0 0 .003-.004.007-.004l.004.004c.168 0 .332.016.496.04l.086.01c.532.095 1.051.313 1.512.665l.11.082c.105.09.206.18.304.281l.285.297.29-.297c.077-.082.16-.156.241-.23a1.53 1.53 0 0 1 .125-.098c.043-.035.086-.07.13-.102.054-.039.113-.074.167-.109l.098-.062c.063-.036.129-.07.191-.102.032-.016.059-.031.09-.043.067-.031.133-.062.203-.09l.094-.035.203-.07c.04-.012.082-.02.121-.031.063-.016.125-.032.188-.043.066-.012.133-.02.2-.032.038-.004.077-.011.116-.015a3.475 3.475 0 0 1 2.855 1.062c.153.156.407.16.567.008a.404.404 0 0 0 .008-.566 4.271 4.271 0 0 0-2.934-1.313zM4.398 13.113c0-4.191 3.41-7.601 7.602-7.601 4.191 0 7.602 3.41 7.602 7.601a7.48 7.48 0 0 1-.29 2.055c-.003 0-.011.004-.019.004-.18.031-.36.074-.535.129l-.043.011c-.3.098-.59.223-.867.383.363-.812.55-1.691.55-2.582 0-3.531-2.87-6.402-6.398-6.402-3.527 0-6.398 2.871-6.398 6.402 0 .977.23 1.95.668 2.832-.09.07-.184.14-.27.215-.371-.32-.79-.57-1.234-.746a7.534 7.534 0 0 1-.368-2.3zm9.61 2.016a4.737 4.737 0 0 0-.465.074c-.059.012-.121.024-.184.04l-.203.058a.607.607 0 0 0-.09.031c-.41.133-.796.328-1.148.582h-.637c-.469-.34-1-.574-1.558-.695-.004-.004-.008-.004-.012-.004a4.167 4.167 0 0 0-.91-.102c-.055 0-.11.004-.164.008-.024 0-.047 0-.067.004a4.15 4.15 0 0 0-1.613.406 5.608 5.608 0 0 1-.559-2.418A5.606 5.606 0 0 1 12 7.512a5.606 5.606 0 0 1 5.602 5.601c0 .977-.258 1.93-.747 2.782a4.252 4.252 0 0 0-1.136-.57c-.031-.009-.063-.02-.094-.028a2.848 2.848 0 0 0-.195-.055 2.525 2.525 0 0 0-.184-.043c-.047-.008-.09-.02-.133-.023-.097-.02-.199-.031-.297-.043-.015 0-.027-.004-.039-.004a4.135 4.135 0 0 0-.761 0h-.008zm0 0M20 17.914a4.25 4.25 0 0 0-2.8 1.047 4.243 4.243 0 0 0-2.802-1.047 4.233 4.233 0 0 0-2.796 1.047A4.25 4.25 0 0 0 8.8 17.914 4.25 4.25 0 0 0 6 18.961a4.269 4.269 0 0 0-5.887.273.397.397 0 0 0 .008.567.4.4 0 0 0 .567-.012 3.475 3.475 0 0 1 2.511-1.078c.95 0 1.84.383 2.512 1.078l.289.297.29-.297a3.468 3.468 0 0 1 2.51-1.078c.946 0 1.84.383 2.512 1.078l.29.297.285-.297a3.475 3.475 0 0 1 2.511-1.078c.95 0 1.84.383 2.516 1.078l.285.297.29-.297A3.468 3.468 0 0 1 20 18.711c.95 0 1.84.383 2.512 1.078a.4.4 0 0 0 .566.012.397.397 0 0 0 .008-.567A4.262 4.262 0 0 0 20 17.914zm0 0M20 20.71a4.255 4.255 0 0 0-2.8 1.052 4.247 4.247 0 0 0-2.802-1.051 4.237 4.237 0 0 0-2.796 1.05 4.255 4.255 0 0 0-5.602 0 4.255 4.255 0 0 0-5.887.274.397.397 0 0 0 .008.567.4.4 0 0 0 .567-.012 3.475 3.475 0 0 1 2.511-1.078c.95 0 1.84.383 2.512 1.078l.289.297.29-.297a3.468 3.468 0 0 1 2.51-1.078c.946 0 1.84.383 2.512 1.078l.29.297.285-.297a3.475 3.475 0 0 1 2.511-1.078c.95 0 1.84.383 2.516 1.078l.285.297.29-.297A3.468 3.468 0 0 1 20 21.512c.95 0 1.84.383 2.512 1.078.152.16.406.164.566.008a.393.393 0 0 0 .008-.563A4.266 4.266 0 0 0 20 20.711zm0 0"/>
</svg>
