<svg xmlns="http://www.w3.org/2000/svg" width="32" height="32" viewBox="0 0 24 24">
    <path d="M21.602 18.602H2.398a.398.398 0 1 0 0 .796h19.204a.398.398 0 1 0 0-.796zm0 0M19.602 20.602H4.398a.398.398 0 1 0 0 .796h15.204a.398.398 0 1 0 0-.796zm0 0M18 22.602H6a.395.395 0 0 0-.398.398c0 .223.175.398.398.398h12a.395.395 0 0 0 .398-.398.395.395 0 0 0-.398-.398zm0 0M21.977 14.633A3.2 3.2 0 0 0 18.8 11.8 3.2 3.2 0 0 0 15.6 15c0 .223.176.398.399.398a.395.395 0 0 0 .398-.398 2.402 2.402 0 0 1 2.403-2.398c1.199 0 2.195.886 2.37 2.039-.991.18-1.769.964-1.937 1.96H1.508a3.823 3.823 0 0 1-.137-4.14 3.786 3.786 0 0 1 4.2-1.703c.179.574.519 1.101 1.015 1.512.074.062.164.09.254.09a.398.398 0 0 0 .254-.707 2.384 2.384 0 0 1-.793-1.25c0-.008-.004-.012-.004-.016a2.392 2.392 0 0 1 2.664-2.96 3.163 3.163 0 0 0 0 1.468.4.4 0 1 0 .777-.184 2.37 2.37 0 0 1 .297-1.813 2.378 2.378 0 0 1 1.488-1.07 2.38 2.38 0 0 1 1.813.293c.547.34.926.867 1.074 1.492a.4.4 0 0 0 .48.297.405.405 0 0 0 .301-.48 3.196 3.196 0 0 0-2.382-2.38 3.8 3.8 0 0 1 3.793-3.652 3.8 3.8 0 0 1 3.789 3.63 3.204 3.204 0 0 0-2.79 3.171.398.398 0 1 0 .797 0 2.402 2.402 0 0 1 2.403-2.398 2.399 2.399 0 0 1 2.398 2.398.401.401 0 0 0 .8 0 3.2 3.2 0 0 0-2.808-3.172 4.601 4.601 0 0 0-4.59-4.425 4.604 4.604 0 0 0-4.59 4.363A3.171 3.171 0 0 0 9.25 6.668a3.19 3.19 0 0 0-3.1 1.098 3.215 3.215 0 0 0-.723 2.144 4.579 4.579 0 0 0-4.739 2.137 4.631 4.631 0 0 0-.125 4.555H.398a.4.4 0 0 0 0 .8h23.204c.218 0 .398-.18.398-.402a2.4 2.4 0 0 0-2.023-2.367zm-.375.765c.742 0 1.363.512 1.543 1.204h-3.086a1.592 1.592 0 0 1 1.543-1.204zm0 0"/>
</svg>
