<svg xmlns="http://www.w3.org/2000/svg" width="32" height="32" viewBox="0 0 24 24">
    <path d="M 22.429688 4.800781 L 7.828125 2.828125 C 7.753906 2.808594 7.675781 2.800781 7.601562 2.800781 C 7.210938 2.800781 6.882812 3.03125 6.605469 3.421875 L 2.398438 6.421875 L 2.398438 3.960938 C 3.3125 3.773438 4 2.964844 4 2 C 4 0.898438 3.101562 0 2 0 C 0.898438 0 0 0.898438 0 2 C 0 2.964844 0.6875 3.773438 1.601562 3.960938 L 1.601562 19.199219 L 0.800781 19.199219 L 0.800781 21.601562 L 0 21.601562 L 0 24 L 4 24 L 4 21.601562 L 3.199219 21.601562 L 3.199219 19.199219 L 2.398438 19.199219 L 2.398438 8.164062 L 6.320312 12.085938 C 6.640625 12.765625 7.070312 13.199219 7.601562 13.199219 C 7.675781 13.199219 7.753906 13.191406 7.828125 13.171875 L 22.429688 11.199219 C 23.03125 11.1875 24 10.738281 24 8 C 24 5.261719 23.03125 4.8125 22.429688 4.800781 Z M 3.199219 23.199219 L 0.800781 23.199219 L 0.800781 22.398438 L 3.199219 22.398438 Z M 1.601562 21.601562 L 1.601562 20 L 2.398438 20 L 2.398438 21.601562 Z M 20 8 C 20 9.003906 19.886719 9.96875 19.6875 10.765625 L 18.0625 10.984375 C 18.28125 10.125 18.398438 9.089844 18.398438 8 C 18.398438 6.910156 18.28125 5.878906 18.0625 5.019531 L 19.6875 5.238281 C 19.886719 6.03125 20 6.996094 20 8 Z M 17.601562 8 C 17.601562 9.148438 17.453125 10.257812 17.199219 11.101562 L 15.570312 11.320312 C 15.84375 10.40625 16 9.242188 16 8 C 16 6.761719 15.84375 5.59375 15.570312 4.679688 L 17.203125 4.902344 C 17.453125 5.742188 17.601562 6.851562 17.601562 8 Z M 8.792969 8.507812 C 8.789062 8.5625 8.785156 8.613281 8.78125 8.664062 C 8.777344 8.773438 8.773438 8.878906 8.765625 8.984375 C 8.761719 9.042969 8.757812 9.101562 8.75 9.160156 C 8.742188 9.253906 8.738281 9.34375 8.726562 9.429688 C 8.722656 9.492188 8.710938 9.550781 8.707031 9.609375 C 8.695312 9.691406 8.6875 9.769531 8.675781 9.847656 C 8.667969 9.90625 8.65625 9.964844 8.648438 10.019531 C 8.636719 10.09375 8.625 10.164062 8.613281 10.234375 C 8.601562 10.289062 8.589844 10.34375 8.578125 10.398438 C 8.566406 10.460938 8.554688 10.527344 8.539062 10.589844 C 8.527344 10.644531 8.515625 10.691406 8.503906 10.742188 C 8.488281 10.800781 8.472656 10.859375 8.457031 10.917969 C 8.445312 10.964844 8.429688 11.007812 8.417969 11.054688 C 8.402344 11.109375 8.386719 11.160156 8.371094 11.210938 C 8.355469 11.253906 8.34375 11.296875 8.328125 11.335938 C 8.3125 11.382812 8.296875 11.429688 8.277344 11.472656 C 8.265625 11.511719 8.25 11.546875 8.234375 11.582031 C 8.21875 11.625 8.199219 11.664062 8.183594 11.703125 C 8.167969 11.738281 8.152344 11.769531 8.140625 11.800781 C 8.121094 11.835938 8.105469 11.871094 8.085938 11.902344 C 8.070312 11.929688 8.054688 11.957031 8.042969 11.984375 C 8.023438 12.011719 8.007812 12.042969 7.988281 12.070312 C 7.972656 12.089844 7.960938 12.113281 7.945312 12.132812 C 7.925781 12.15625 7.910156 12.179688 7.890625 12.203125 C 7.878906 12.21875 7.863281 12.234375 7.851562 12.25 C 7.832031 12.269531 7.816406 12.285156 7.796875 12.300781 C 7.785156 12.3125 7.773438 12.324219 7.761719 12.335938 C 7.746094 12.34375 7.734375 12.347656 7.722656 12.355469 L 6.980469 11.613281 C 6.671875 10.886719 6.398438 9.664062 6.398438 8 C 6.398438 5.988281 6.796875 4.625 7.171875 3.996094 L 7.691406 3.625 C 7.695312 3.628906 7.703125 3.632812 7.707031 3.636719 C 7.726562 3.644531 7.742188 3.652344 7.757812 3.667969 C 7.773438 3.675781 7.785156 3.6875 7.796875 3.699219 C 7.816406 3.714844 7.832031 3.730469 7.851562 3.75 C 7.863281 3.765625 7.878906 3.78125 7.890625 3.800781 C 7.910156 3.820312 7.925781 3.84375 7.945312 3.867188 C 7.957031 3.886719 7.972656 3.910156 7.988281 3.933594 C 8.003906 3.960938 8.023438 3.988281 8.039062 4.019531 C 8.054688 4.042969 8.070312 4.070312 8.085938 4.097656 C 8.101562 4.132812 8.121094 4.164062 8.136719 4.203125 C 8.152344 4.230469 8.167969 4.265625 8.183594 4.296875 C 8.199219 4.335938 8.21875 4.375 8.234375 4.417969 C 8.25 4.453125 8.261719 4.488281 8.277344 4.527344 C 8.292969 4.570312 8.3125 4.617188 8.328125 4.664062 C 8.34375 4.707031 8.355469 4.746094 8.371094 4.789062 C 8.386719 4.839844 8.402344 4.890625 8.417969 4.945312 C 8.429688 4.992188 8.445312 5.035156 8.457031 5.085938 C 8.472656 5.140625 8.488281 5.199219 8.5 5.257812 C 8.515625 5.308594 8.527344 5.359375 8.539062 5.410156 C 8.550781 5.472656 8.566406 5.539062 8.578125 5.605469 C 8.589844 5.65625 8.601562 5.710938 8.609375 5.765625 C 8.625 5.835938 8.636719 5.90625 8.648438 5.980469 C 8.65625 6.039062 8.664062 6.09375 8.675781 6.152344 C 8.683594 6.230469 8.695312 6.308594 8.703125 6.390625 C 8.710938 6.449219 8.71875 6.507812 8.726562 6.570312 C 8.734375 6.65625 8.742188 6.75 8.75 6.839844 C 8.753906 6.898438 8.761719 6.957031 8.765625 7.019531 C 8.773438 7.121094 8.777344 7.226562 8.78125 7.335938 C 8.785156 7.390625 8.789062 7.441406 8.789062 7.496094 C 8.796875 7.65625 8.800781 7.828125 8.800781 8 C 8.800781 8.171875 8.796875 8.34375 8.792969 8.507812 Z M 0.800781 2 C 0.800781 1.339844 1.339844 0.800781 2 0.800781 C 2.660156 0.800781 3.199219 1.339844 3.199219 2 C 3.199219 2.660156 2.660156 3.199219 2 3.199219 C 1.339844 3.199219 0.800781 2.660156 0.800781 2 Z M 2.617188 7.25 L 5.980469 4.847656 C 5.730469 5.761719 5.601562 6.882812 5.601562 8 C 5.601562 8.847656 5.675781 9.695312 5.820312 10.453125 Z M 8.828125 12.199219 C 8.878906 12.097656 8.929688 11.984375 8.976562 11.867188 C 8.996094 11.824219 9.011719 11.78125 9.027344 11.738281 C 9.0625 11.644531 9.097656 11.550781 9.128906 11.453125 C 9.144531 11.402344 9.160156 11.351562 9.175781 11.300781 C 9.207031 11.195312 9.234375 11.089844 9.261719 10.980469 C 9.273438 10.933594 9.289062 10.886719 9.300781 10.835938 C 9.335938 10.679688 9.371094 10.515625 9.402344 10.347656 C 9.402344 10.347656 9.402344 10.347656 9.402344 10.34375 C 9.429688 10.179688 9.457031 10.007812 9.480469 9.835938 C 9.488281 9.78125 9.492188 9.726562 9.5 9.671875 C 9.515625 9.546875 9.527344 9.421875 9.539062 9.296875 C 9.546875 9.234375 9.550781 9.171875 9.554688 9.109375 C 9.566406 8.980469 9.574219 8.851562 9.578125 8.722656 C 9.582031 8.667969 9.585938 8.609375 9.589844 8.554688 C 9.59375 8.367188 9.601562 8.183594 9.601562 8 C 9.601562 7.816406 9.59375 7.632812 9.589844 7.445312 C 9.585938 7.390625 9.582031 7.332031 9.578125 7.277344 C 9.574219 7.148438 9.566406 7.019531 9.554688 6.894531 C 9.550781 6.828125 9.546875 6.769531 9.539062 6.707031 C 9.527344 6.578125 9.515625 6.453125 9.5 6.328125 C 9.492188 6.273438 9.488281 6.21875 9.480469 6.167969 C 9.457031 5.992188 9.429688 5.820312 9.402344 5.65625 C 9.402344 5.65625 9.402344 5.652344 9.402344 5.652344 C 9.371094 5.484375 9.335938 5.320312 9.300781 5.164062 C 9.289062 5.113281 9.273438 5.070312 9.261719 5.019531 C 9.234375 4.910156 9.207031 4.804688 9.175781 4.703125 C 9.160156 4.648438 9.144531 4.597656 9.128906 4.546875 C 9.097656 4.449219 9.0625 4.355469 9.027344 4.265625 C 9.011719 4.21875 8.996094 4.175781 8.976562 4.132812 C 8.929688 4.015625 8.878906 3.90625 8.828125 3.800781 C 8.820312 3.789062 8.816406 3.777344 8.8125 3.769531 L 14.6875 4.5625 C 15.007812 5.421875 15.199219 6.679688 15.199219 8 C 15.199219 9.320312 15.007812 10.578125 14.683594 11.441406 L 8.8125 12.234375 C 8.816406 12.222656 8.820312 12.210938 8.828125 12.199219 Z M 22.398438 10.398438 L 20.539062 10.652344 C 20.707031 9.855469 20.800781 8.941406 20.800781 8 C 20.800781 7.058594 20.707031 6.144531 20.539062 5.351562 L 22.347656 5.597656 L 22.398438 5.601562 C 22.769531 5.601562 23.199219 6.226562 23.199219 8 C 23.199219 9.773438 22.769531 10.398438 22.398438 10.398438 Z M 22.398438 10.398438"/>
</svg>
