<svg xmlns="http://www.w3.org/2000/svg" width="32" height="32" viewBox="0 0 24 24">
    <path d="M22.43 4.8L7.828 2.829a.899.899 0 0 0-.226-.027c-.391 0-.72.23-.997.62l-4.207 3v-2.46A2.006 2.006 0 0 0 4 2c0-1.102-.898-2-2-2C.898 0 0 .898 0 2c0 .965.688 1.773 1.602 1.96V19.2H.8v2.402H0V24h4v-2.398h-.8v-2.403h-.802V8.164l3.922 3.922c.32.68.75 1.113 1.282 1.113a.899.899 0 0 0 .226-.027l14.602-1.973C23.03 11.188 24 10.74 24 8c0-2.738-.969-3.188-1.57-3.2zM3.2 23.2H.8v-.802h2.4zm-1.598-1.598V20h.796v1.602zM20 8c0 1.004-.113 1.969-.313 2.766l-1.625.218c.22-.859.336-1.894.336-2.984s-.117-2.121-.335-2.98l1.625.218C19.887 6.031 20 6.996 20 8zm-2.398 0c0 1.148-.149 2.258-.403 3.102l-1.629.218c.274-.914.43-2.078.43-3.32 0-1.238-.156-2.406-.43-3.32l1.633.222c.25.84.399 1.95.399 3.098zm-8.809.508l-.012.156a8.376 8.376 0 0 1-.031.496c-.008.094-.012.184-.023.27-.004.062-.016.12-.02.18-.012.081-.02.16-.031.238-.008.058-.02.117-.028.172-.011.074-.023.144-.035.214l-.035.164c-.012.063-.023.13-.039.192l-.035.152-.047.176c-.012.047-.027.09-.039.137l-.047.156c-.016.043-.027.086-.043.125-.015.047-.031.094-.05.137-.012.039-.028.074-.044.109-.015.043-.035.082-.05.121-.016.035-.032.067-.043.098-.02.035-.036.07-.055.101a.826.826 0 0 0-.043.082c-.02.028-.035.059-.055.086-.015.02-.027.043-.043.063-.02.023-.035.047-.054.07-.012.016-.028.031-.04.047a.649.649 0 0 1-.054.05l-.035.036c-.016.008-.028.012-.04.02l-.742-.743c-.308-.726-.582-1.949-.582-3.613 0-2.012.399-3.375.774-4.004l.52-.371c.003.004.011.008.015.012.02.008.035.015.05.031.016.008.028.02.04.031.02.016.035.031.055.051.011.016.027.031.039.05.02.02.035.044.054.067l.043.067c.016.027.035.054.051.086.016.023.031.05.047.078.016.035.035.066.05.105.016.027.032.063.048.094.015.039.035.078.05.121.016.035.028.07.043.11.016.042.036.09.051.136.016.043.027.082.043.125l.047.156c.012.047.027.09.039.14.016.056.031.114.043.173.016.05.027.101.04.152.01.063.026.13.038.195.012.051.024.106.031.16.016.07.028.141.04.215.007.06.015.114.027.172.008.078.02.157.027.239l.024.18.023.269c.004.058.012.117.016.18a7.8 7.8 0 0 1 .015.316c.004.055.008.105.008.16.008.16.012.332.012.504s-.004.344-.008.508zM.801 2C.8 1.34 1.34.8 2 .8s1.2.54 1.2 1.2c0 .66-.54 1.2-1.2 1.2C1.34 3.2.8 2.66.8 2zm1.816 5.25L5.98 4.848c-.25.914-.378 2.035-.378 3.152 0 .848.074 1.695.218 2.453zm6.211 4.95c.05-.102.102-.216.149-.333.02-.043.035-.086.05-.129.036-.093.07-.187.102-.285l.047-.152c.031-.106.058-.211.086-.32.011-.047.027-.094.039-.145.035-.156.07-.32.101-.488v-.004c.028-.164.055-.336.078-.508.008-.055.012-.11.02-.164.016-.125.027-.25.04-.375.007-.063.01-.125.015-.188.011-.129.02-.257.023-.386l.012-.168c.004-.188.012-.371.012-.555 0-.184-.008-.367-.012-.555l-.012-.168a6.103 6.103 0 0 0-.023-.382 11.282 11.282 0 0 0-.055-.566c-.008-.056-.012-.11-.02-.161-.023-.176-.05-.348-.078-.512v-.004a13.346 13.346 0 0 0-.101-.488c-.012-.05-.028-.094-.04-.144a6.16 6.16 0 0 0-.234-.754 5.28 5.28 0 0 0-.2-.465c-.007-.012-.01-.024-.014-.031l5.874.792c.32.86.512 2.118.512 3.438 0 1.32-.191 2.578-.515 3.441l-5.871.793a.139.139 0 0 1 .015-.035zm13.57-1.802l-1.859.254c.168-.797.262-1.71.262-2.652 0-.941-.094-1.855-.262-2.648l1.809.246.05.004c.372 0 .801.625.801 2.398 0 1.773-.43 2.398-.8 2.398zm0 0"/>
</svg>
