<svg xmlns="http://www.w3.org/2000/svg" width="32" height="32" viewBox="0 0 24 24">
    <path d="M 12 24 C 10.195312 24 8.726562 22.546875 8.726562 20.757812 L 8.726562 15.273438 L 3.242188 15.273438 C 1.453125 15.273438 0 13.804688 0 12 C 0 10.195312 1.453125 8.726562 3.242188 8.726562 L 8.726562 8.726562 L 8.726562 3.242188 C 8.726562 1.453125 10.195312 0 12 0 C 13.804688 0 15.273438 1.453125 15.273438 3.242188 L 15.273438 8.726562 L 20.757812 8.726562 C 22.546875 8.726562 24 10.195312 24 12 C 24 13.804688 22.546875 15.273438 20.757812 15.273438 L 15.273438 15.273438 L 15.273438 20.757812 C 15.273438 22.546875 13.804688 24 12 24 Z M 3.242188 9.816406 C 2.074219 9.816406 1.089844 10.816406 1.089844 12 C 1.089844 13.183594 2.074219 14.183594 3.242188 14.183594 L 9.816406 14.183594 L 9.816406 20.757812 C 9.816406 21.925781 10.816406 22.910156 12 22.910156 C 13.183594 22.910156 14.183594 21.925781 14.183594 20.757812 L 14.183594 14.183594 L 20.757812 14.183594 C 21.925781 14.183594 22.910156 13.183594 22.910156 12 C 22.910156 10.816406 21.925781 9.816406 20.757812 9.816406 L 14.183594 9.816406 L 14.183594 3.242188 C 14.183594 2.074219 13.183594 1.089844 12 1.089844 C 10.816406 1.089844 9.816406 2.074219 9.816406 3.242188 L 9.816406 9.816406 Z M 3.242188 9.816406"/>
</svg>
