<svg xmlns="http://www.w3.org/2000/svg" width="32" height="32" viewBox="0 0 24 24">
    <path d="M 18.808594 12.601562 L 18.808594 9.003906 C 18.828125 6.257812 16.980469 4.441406 15.398438 3.714844 C 14.945312 3.507812 14.476562 3.347656 14 3.230469 L 14 3 C 14 1.898438 13.101562 1 12 1 C 10.898438 1 10 1.898438 10 3 L 10 3.265625 C 9.570312 3.378906 9.152344 3.53125 8.742188 3.71875 C 6.992188 4.527344 5.214844 6.472656 5.199219 9 L 5.199219 12.601562 C 5.199219 15.15625 4.296875 17.347656 2.519531 19.117188 C 2.410156 19.222656 2.375 19.378906 2.417969 19.519531 C 2.464844 19.664062 2.585938 19.769531 2.730469 19.792969 L 6.527344 20.449219 C 7.234375 20.570312 7.886719 20.671875 8.507812 20.753906 C 9.203125 22.121094 10.574219 23 12.074219 23 C 13.570312 23 14.941406 22.121094 15.640625 20.753906 C 16.257812 20.671875 16.90625 20.570312 17.609375 20.449219 L 21.402344 19.792969 C 21.550781 19.769531 21.671875 19.664062 21.71875 19.519531 C 21.761719 19.378906 21.722656 19.222656 21.617188 19.117188 C 19.753906 17.265625 18.808594 15.070312 18.808594 12.601562 Z M 10.800781 3 C 10.800781 2.339844 11.339844 1.800781 12 1.800781 C 12.660156 1.800781 13.199219 2.339844 13.199219 3 L 13.199219 3.074219 C 12.402344 2.957031 11.59375 2.964844 10.800781 3.089844 Z M 12.074219 22.199219 C 11.058594 22.199219 10.113281 21.695312 9.507812 20.875 C 10.402344 20.964844 11.234375 21.011719 12.070312 21.011719 C 12.90625 21.011719 13.742188 20.964844 14.640625 20.871094 C 14.03125 21.695312 13.085938 22.199219 12.074219 22.199219 Z M 17.472656 19.660156 C 16.703125 19.792969 16 19.902344 15.335938 19.984375 C 15.335938 19.984375 15.335938 19.984375 15.332031 19.984375 C 15.039062 20.023438 14.753906 20.054688 14.476562 20.082031 C 14.472656 20.082031 14.472656 20.085938 14.46875 20.085938 C 14.214844 20.109375 13.964844 20.128906 13.71875 20.148438 C 13.671875 20.152344 13.625 20.15625 13.578125 20.15625 C 13.363281 20.171875 13.152344 20.183594 12.941406 20.191406 C 12.898438 20.191406 12.855469 20.195312 12.8125 20.195312 C 12.316406 20.210938 11.824219 20.210938 11.328125 20.195312 C 11.285156 20.195312 11.238281 20.191406 11.195312 20.191406 C 10.988281 20.183594 10.78125 20.171875 10.570312 20.15625 C 10.519531 20.15625 10.46875 20.152344 10.417969 20.148438 C 10.179688 20.128906 9.9375 20.109375 9.6875 20.085938 C 9.679688 20.085938 9.671875 20.085938 9.660156 20.082031 C 9.386719 20.054688 9.101562 20.023438 8.8125 19.988281 C 8.8125 19.988281 8.808594 19.988281 8.808594 19.988281 C 8.140625 19.902344 7.433594 19.792969 6.664062 19.660156 L 3.601562 19.132812 C 5.191406 17.308594 6 15.117188 6 12.601562 L 6 9.003906 C 6.011719 6.828125 7.554688 5.148438 9.078125 4.445312 C 9.527344 4.238281 9.996094 4.082031 10.476562 3.972656 C 10.480469 3.972656 10.484375 3.972656 10.488281 3.972656 C 11.472656 3.75 12.523438 3.738281 13.519531 3.945312 C 13.523438 3.945312 13.53125 3.941406 13.535156 3.945312 C 14.058594 4.054688 14.570312 4.21875 15.066406 4.445312 C 16.539062 5.117188 18.023438 6.789062 18.007812 9 L 18.007812 12.601562 C 18.007812 15.011719 18.878906 17.257812 20.535156 19.132812 Z M 17.472656 19.660156"/>
    <path d="M14.566406 5.535156C13.015625 4.828125 11.117188 4.824219 9.578125 5.535156 8.703125 5.941406 7.210938 7.125 7.199219 8.996094 7.199219 9.21875 7.375 9.398438 7.597656 9.398438 7.597656 9.398438 7.597656 9.398438 7.601562 9.398438 7.820312 9.398438 8 9.222656 8 9.003906 8.007812 7.53125 9.207031 6.589844 9.914062 6.261719 11.246094 5.648438 12.890625 5.648438 14.234375 6.261719 14.433594 6.355469 14.671875 6.265625 14.765625 6.066406 14.855469 5.863281 14.765625 5.625 14.566406 5.535156zM1.921875 9.117188C1.765625 8.960938 1.511719 8.960938 1.355469 9.117188.480469 9.992188 0 11.15625 0 12.394531 0 13.632812.480469 14.796875 1.355469 15.667969 1.433594 15.746094 1.535156 15.785156 1.636719 15.785156 1.742188 15.785156 1.84375 15.746094 1.921875 15.667969 2.078125 15.511719 2.078125 15.261719 1.921875 15.105469 1.199219 14.378906.800781 13.417969.800781 12.394531.800781 11.367188 1.199219 10.40625 1.921875 9.683594 2.078125 9.527344 2.078125 9.273438 1.921875 9.117188zM1.921875 9.117188"/>
    <path d="M3.320312 14.875C3.425781 14.875 3.527344 14.835938 3.605469 14.757812 3.761719 14.601562 3.761719 14.347656 3.605469 14.191406 2.582031 13.171875 2.582031 11.503906 3.605469 10.484375 3.761719 10.328125 3.761719 10.074219 3.605469 9.917969 3.449219 9.761719 3.195312 9.761719 3.039062 9.917969 1.703125 11.253906 1.703125 13.425781 3.039062 14.757812 3.117188 14.835938 3.21875 14.875 3.320312 14.875zM22.644531 9.117188C22.488281 8.960938 22.234375 8.960938 22.078125 9.117188 21.921875 9.273438 21.921875 9.527344 22.078125 9.683594 22.800781 10.40625 23.199219 11.367188 23.199219 12.394531 23.199219 13.417969 22.800781 14.378906 22.078125 15.105469 21.921875 15.261719 21.921875 15.511719 22.078125 15.667969 22.15625 15.746094 22.257812 15.785156 22.363281 15.785156 22.464844 15.785156 22.566406 15.746094 22.644531 15.667969 23.519531 14.796875 24 13.632812 24 12.394531 24 11.15625 23.519531 9.992188 22.644531 9.117188zM22.644531 9.117188"/>
    <path d="M 20.394531 9.917969 C 20.238281 10.074219 20.238281 10.328125 20.394531 10.484375 C 21.417969 11.507812 21.417969 13.171875 20.394531 14.191406 C 20.238281 14.347656 20.238281 14.601562 20.394531 14.757812 C 20.472656 14.835938 20.574219 14.875 20.679688 14.875 C 20.78125 14.875 20.882812 14.835938 20.960938 14.757812 C 22.296875 13.425781 22.296875 11.25 20.960938 9.917969 C 20.804688 9.761719 20.550781 9.761719 20.394531 9.917969 Z M 20.394531 9.917969"/>
</svg>
