<svg xmlns="http://www.w3.org/2000/svg" width="32" height="32" viewBox="0 0 24 24">
    <path d="M16.54 12.031h-2.946a1.66 1.66 0 0 0-1.18-1.18V6.669a.414.414 0 0 0-.828 0v4.184a1.651 1.651 0 0 0-1.238 1.593c0 .91.742 1.649 1.652 1.649.766 0 1.406-.528 1.594-1.239h2.945a.412.412 0 1 0 0-.824zM12 13.27a.825.825 0 1 1 0-1.652c.453 0 .824.37.824.827a.827.827 0 0 1-.824.825zm0 0"/>
    <path d="M20.71 4.031l1.692 1.688a.414.414 0 0 0 .586 0 3.357 3.357 0 0 0 0-4.739 3.355 3.355 0 0 0-4.742 0 .414.414 0 0 0-.121.293c0 .11.043.215.121.29l1.883 1.882-.7.703A11.095 11.095 0 0 0 12 1.301a11.085 11.085 0 0 0-7.426 2.847l-.703-.703 1.883-1.882a.405.405 0 0 0 .121-.29.414.414 0 0 0-.121-.293 3.355 3.355 0 0 0-4.742 0 3.357 3.357 0 0 0 0 4.739.414.414 0 0 0 .586 0L3.289 4.03l.691.692a11.09 11.09 0 0 0-3.125 7.722c0 4.082 2.211 7.66 5.5 9.602l-1.25 1.25a.413.413 0 0 0 .582.582l1.426-1.422A11.08 11.08 0 0 0 12 23.586c1.754 0 3.41-.406 4.887-1.129l1.425 1.422a.41.41 0 0 0 .582-.582l-1.25-1.25c3.29-1.942 5.5-5.52 5.5-9.602a11.09 11.09 0 0 0-3.124-7.722zm1.692-2.468a2.53 2.53 0 0 1 .27 3.257l-3.527-3.523a2.53 2.53 0 0 1 3.257.266zM1.328 4.82a2.53 2.53 0 0 1 .27-3.258 2.534 2.534 0 0 1 3.257-.265zM12 22.762c-5.688 0-10.316-4.63-10.316-10.317 0-5.691 4.628-10.32 10.316-10.32 5.688 0 10.316 4.629 10.316 10.32 0 5.688-4.628 10.317-10.316 10.317zm0 0"/>
    <path d="M12 4.14a.414.414 0 0 0 .414-.413v-.41a.414.414 0 0 0-.828 0v.41c0 .23.187.414.414.414zm0 0M12 20.648a.414.414 0 0 0-.414.415v.41a.414.414 0 0 0 .828 0v-.41a.414.414 0 0 0-.414-.415zm0 0M20.668 12.809h.41a.414.414 0 0 0 0-.829h-.41a.414.414 0 0 0 0 .829zm0 0M3.332 11.98h-.41a.414.414 0 0 0 0 .829h.41a.414.414 0 0 0 0-.829zm0 0M18.129 5.684l-.293.289a.417.417 0 0 0 0 .586.428.428 0 0 0 .293.12c.105 0 .21-.042.293-.12l.289-.293a.406.406 0 0 0 0-.582.406.406 0 0 0-.582 0zm0 0M5.578 18.23l-.289.293a.406.406 0 0 0 0 .582.396.396 0 0 0 .29.122c.105 0 .214-.04.292-.122l.293-.293a.413.413 0 1 0-.586-.582zm0 0M18.422 18.23a.413.413 0 1 0-.586.582l.293.293a.404.404 0 0 0 .293.122c.105 0 .21-.04.289-.122a.406.406 0 0 0 0-.582zm0 0M5.871 5.684a.406.406 0 0 0-.582 0 .406.406 0 0 0 0 .582l.29.293a.428.428 0 0 0 .292.12c.106 0 .211-.042.293-.12a.417.417 0 0 0 0-.586zm0 0"/>
</svg>
