<svg xmlns="http://www.w3.org/2000/svg" width="32" height="32" viewBox="0 0 24 24">
    <path d="M18.809 12.602V9.004c.02-2.746-1.829-4.563-3.41-5.29A7.904 7.904 0 0 0 14 3.23V3c0-1.102-.898-2-2-2-1.102 0-2 .898-2 2v.266c-.43.113-.848.265-1.258.453C6.992 4.527 5.215 6.473 5.2 9v3.602c0 2.554-.902 4.746-2.68 6.515a.396.396 0 0 0 .211.676l3.797.656c.707.121 1.36.223 1.98.305C9.204 22.12 10.575 23 12.075 23c1.496 0 2.867-.879 3.567-2.246a51.907 51.907 0 0 0 1.968-.305l3.793-.656a.399.399 0 0 0 .317-.273.405.405 0 0 0-.102-.403c-1.863-1.851-2.808-4.047-2.808-6.515zM10.8 3c0-.66.539-1.2 1.199-1.2s1.2.54 1.2 1.2v.074a7.962 7.962 0 0 0-2.4.016zm1.273 19.2c-1.015 0-1.96-.505-2.566-1.325.894.09 1.726.137 2.562.137.836 0 1.672-.047 2.57-.14-.609.823-1.554 1.327-2.566 1.327zm5.399-2.54c-.77.133-1.473.242-2.137.324h-.004c-.293.04-.578.07-.855.098-.004 0-.004.004-.008.004-.254.023-.504.043-.75.062-.047.004-.094.008-.14.008a17.87 17.87 0 0 1-.638.035c-.043 0-.086.004-.129.004-.496.016-.988.016-1.484 0-.043 0-.09-.004-.133-.004a17.23 17.23 0 0 1-.625-.035c-.05 0-.101-.004-.152-.008-.238-.02-.48-.039-.73-.062-.008 0-.016 0-.028-.004a40.072 40.072 0 0 1-.848-.094H8.81a50.585 50.585 0 0 1-2.145-.328l-3.062-.527C5.192 17.309 6 15.117 6 12.602V9.004c.012-2.176 1.555-3.856 3.078-4.559.45-.207.918-.363 1.399-.472h.011a7.208 7.208 0 0 1 3.032-.028c.003 0 .011-.004.015 0 .524.11 1.035.274 1.531.5C16.54 5.117 18.023 6.79 18.008 9v3.602c0 2.41.87 4.656 2.527 6.53zm0 0"/>
    <path d="M14.566 5.535c-1.55-.707-3.449-.71-4.988 0-.875.406-2.367 1.59-2.379 3.461 0 .223.176.402.399.402h.004A.397.397 0 0 0 8 9.004C8.008 7.53 9.207 6.59 9.914 6.262c1.332-.614 2.977-.614 4.32 0 .2.093.438.004.532-.196a.404.404 0 0 0-.2-.53zm0 0M1.922 9.117a.4.4 0 0 0-.567 0A4.603 4.603 0 0 0 0 12.395c0 1.238.48 2.402 1.355 3.273a.399.399 0 1 0 .566-.563 3.818 3.818 0 0 1-1.12-2.71c0-1.028.398-1.989 1.12-2.711a.4.4 0 0 0 0-.567zm0 0"/>
    <path d="M3.32 14.875a.4.4 0 0 0 .285-.684 2.622 2.622 0 0 1 0-3.707.4.4 0 0 0-.566-.566 3.423 3.423 0 0 0 0 4.84c.078.078.18.117.281.117zm0 0M22.645 9.117a.4.4 0 0 0-.567.567 3.805 3.805 0 0 1 1.121 2.71 3.818 3.818 0 0 1-1.12 2.711.399.399 0 1 0 .566.563A4.587 4.587 0 0 0 24 12.395c0-1.239-.48-2.403-1.355-3.278zm0 0"/>
    <path d="M20.395 9.918a.4.4 0 0 0 0 .566 2.622 2.622 0 0 1 0 3.707.4.4 0 0 0 .566.567 3.423 3.423 0 0 0 0-4.84.4.4 0 0 0-.566 0zm0 0"/>
</svg>
