<svg xmlns="http://www.w3.org/2000/svg" width="32" height="32" viewBox="0 0 24 24">
    <path d="M 21.667969 0 L 2.332031 0 C 1.707031 0 1.199219 0.507812 1.199219 1.132812 L 1.199219 22.867188 C 1.199219 23.492188 1.707031 24 2.332031 24 L 21.667969 24 C 22.292969 24 22.800781 23.492188 22.800781 22.867188 L 22.800781 1.132812 C 22.800781 0.507812 22.292969 0 21.667969 0 Z M 2.332031 0.800781 L 21.667969 0.800781 C 21.851562 0.800781 22 0.949219 22 1.132812 L 22 11.601562 L 2 11.601562 L 2 1.132812 C 2 0.949219 2.148438 0.800781 2.332031 0.800781 Z M 21.667969 23.199219 L 2.332031 23.199219 C 2.148438 23.199219 2 23.050781 2 22.867188 L 2 12.398438 L 22 12.398438 L 22 22.867188 C 22 23.050781 21.851562 23.199219 21.667969 23.199219 Z M 21.667969 23.199219"/>
    <path d="M9.800781 7.199219L14.199219 7.199219C14.972656 7.199219 15.601562 6.570312 15.601562 5.796875L15.601562 5.199219C15.601562 4.980469 15.421875 4.800781 15.199219 4.800781 14.980469 4.800781 14.800781 4.980469 14.800781 5.199219L14.800781 5.796875C14.800781 6.128906 14.53125 6.398438 14.199219 6.398438L9.800781 6.398438C9.46875 6.398438 9.199219 6.128906 9.199219 5.796875L9.199219 5.199219C9.199219 4.980469 9.019531 4.800781 8.800781 4.800781 8.578125 4.800781 8.398438 4.980469 8.398438 5.199219L8.398438 5.796875C8.398438 6.570312 9.027344 7.199219 9.800781 7.199219zM15.199219 16.398438C14.980469 16.398438 14.800781 16.578125 14.800781 16.800781L14.800781 17.398438C14.800781 17.730469 14.53125 18 14.199219 18L9.800781 18C9.46875 18 9.199219 17.730469 9.199219 17.398438L9.199219 16.800781C9.199219 16.578125 9.019531 16.398438 8.800781 16.398438 8.578125 16.398438 8.398438 16.578125 8.398438 16.800781L8.398438 17.398438C8.398438 18.171875 9.027344 18.800781 9.800781 18.800781L14.199219 18.800781C14.972656 18.800781 15.601562 18.171875 15.601562 17.398438L15.601562 16.800781C15.601562 16.578125 15.421875 16.398438 15.199219 16.398438zM15.199219 16.398438"/>
</svg>
