<svg xmlns="http://www.w3.org/2000/svg" width="32" height="32" viewBox="0 0 24 24">
    <path d="M 20.550781 0.0664062 C 20.363281 -0.03125 20.136719 -0.0195312 19.960938 0.101562 L 4.285156 10.910156 L 4.285156 0.570312 C 4.285156 0.253906 4.03125 0 3.714844 0 C 3.398438 0 3.144531 0.253906 3.144531 0.570312 L 3.144531 23.429688 C 3.144531 23.746094 3.398438 24 3.714844 24 C 4.03125 24 4.285156 23.746094 4.285156 23.429688 L 4.285156 13.089844 L 19.960938 23.898438 C 20.058594 23.964844 20.171875 24 20.285156 24 C 20.375 24 20.46875 23.976562 20.550781 23.933594 C 20.738281 23.835938 20.855469 23.640625 20.855469 23.429688 L 20.855469 0.570312 C 20.855469 0.359375 20.738281 0.164062 20.550781 0.0664062 Z M 19.714844 22.339844 L 4.71875 12 L 19.714844 1.660156 Z M 19.714844 22.339844"/>
</svg>
