<svg xmlns="http://www.w3.org/2000/svg" width="32" height="32" viewBox="0 0 24 24">
    <path d="M17.016 1.602h-2.618V0H9.602v1.602H6.984c-.761 0-1.382.62-1.382 1.382v19.63c0 .765.62 1.386 1.382 1.386h10.032c.761 0 1.382-.621 1.382-1.387V2.984c0-.761-.62-1.382-1.382-1.382zM6.398 13.199h11.204V18H6.398zm4-12.398h3.204v.8h-3.204zM6.984 2.398h10.032a.59.59 0 0 1 .586.586v9.414H6.398V2.984a.59.59 0 0 1 .586-.586zM17.016 23.2H6.984a.588.588 0 0 1-.586-.586v-3.812h11.204v3.812a.588.588 0 0 1-.586.586zm0 0"/>
</svg>
