<svg xmlns="http://www.w3.org/2000/svg" width="32" height="32" viewBox="0 0 24 24">
    <path d="M17.016 1.602h-2.618V0H9.602v1.602H6.984c-.761 0-1.382.62-1.382 1.382v19.63c0 .765.62 1.386 1.382 1.386h10.032c.761 0 1.382-.621 1.382-1.387V2.984c0-.761-.62-1.382-1.382-1.382zM10.398.8h3.204v.8h-3.204zm7.204 4v17.812a.588.588 0 0 1-.586.586H6.984a.563.563 0 0 1-.328-.101.384.384 0 0 0 .145-.297.402.402 0 0 0-.403-.403v-1.597a.401.401 0 0 0 0-.8v-1.603a.398.398 0 1 0 0-.796V16a.401.401 0 1 0 0-.8v-1.598a.401.401 0 0 0 0-.8v-1.603a.401.401 0 1 0 0-.8V8.8a.401.401 0 0 0 0-.8V6.397a.398.398 0 1 0 0-.796V4a.401.401 0 1 0 0-.8v-.216a.59.59 0 0 1 .586-.586H7.2a.401.401 0 0 0 .8 0h1.603a.398.398 0 1 0 .796 0H12a.401.401 0 1 0 .8 0h1.598a.401.401 0 0 0 .8 0h1.603c0 .223.18.403.398.403a.398.398 0 0 0 .301-.145.593.593 0 0 1 .102.328zm0 0"/>
    <path d="M8 4.8a.4.4 0 1 1-.8-.003.4.4 0 0 1 .8.004zm0 0M9.2 3.602a.4.4 0 1 1-.801-.004.4.4 0 0 1 .8.004zm0 0M9.2 6c0 .223-.18.398-.4.398a.398.398 0 1 1 0-.796c.22 0 .4.175.4.398zm0 0M10.398 4.8a.398.398 0 1 1-.796 0 .398.398 0 1 1 .796 0zm0 0M12.8 4.8A.401.401 0 1 1 12 4.797a.401.401 0 0 1 .802.005zm0 0M11.602 3.602a.401.401 0 1 1-.802-.005.401.401 0 0 1 .802.005zm0 0M14 3.602a.4.4 0 1 1-.8-.004.4.4 0 0 1 .8.004zm0 0M11.602 6c0 .223-.18.398-.403.398a.398.398 0 1 1 0-.796c.223 0 .403.175.403.398zm0 0M14 6c0 .223-.18.398-.398.398a.398.398 0 1 1 0-.796c.218 0 .398.175.398.398zm0 0M15.2 4.8a.4.4 0 1 1-.801-.003.4.4 0 0 1 .8.004zm0 0M17.602 4.8a.401.401 0 1 1-.802-.004.401.401 0 0 1 .802.005zm0 0M16.398 3.602a.398.398 0 1 1-.796 0 .398.398 0 1 1 .796 0zm0 0M16.398 6a.395.395 0 0 1-.398.398.395.395 0 0 1-.398-.398c0-.223.175-.398.398-.398.223 0 .398.175.398.398zm0 0M8 7.2a.401.401 0 1 1-.802.002A.401.401 0 0 1 8 7.199zm0 0M8 9.602a.4.4 0 1 1-.8-.004.4.4 0 0 1 .8.004zm0 0M9.2 8.398a.401.401 0 1 1-.803.003.401.401 0 0 1 .802-.003zm0 0M9.2 10.8a.4.4 0 1 1-.801-.003.4.4 0 0 1 .8.004zm0 0M10.398 7.2a.398.398 0 1 1-.796 0 .398.398 0 1 1 .796 0zm0 0M12.8 7.2a.401.401 0 1 1 0 0zm0 0M10.398 9.602a.398.398 0 1 1-.796 0 .398.398 0 1 1 .796 0zm0 0M12.8 9.602A.401.401 0 1 1 12 9.597a.401.401 0 0 1 .802.005zm0 0M11.602 8.398a.401.401 0 1 1 0 0zm0 0M14 8.398a.401.401 0 1 1-.802.003.401.401 0 0 1 .802-.003zm0 0M11.602 10.8a.401.401 0 1 1-.802-.004.401.401 0 0 1 .802.005zm0 0M14 10.8a.4.4 0 1 1-.8-.003.4.4 0 0 1 .8.004zm0 0M15.2 7.2a.401.401 0 1 1-.803.002.401.401 0 0 1 .802-.003zm0 0M17.602 7.2a.401.401 0 1 1 0 0zm0 0M15.2 9.602a.4.4 0 1 1-.801-.004.4.4 0 0 1 .8.004zm0 0M17.602 9.602a.401.401 0 1 1-.802-.005.401.401 0 0 1 .802.005zm0 0M16.398 8.398a.398.398 0 1 1-.796 0 .398.398 0 1 1 .796 0zm0 0M16.398 10.8a.398.398 0 1 1-.796 0 .398.398 0 1 1 .796 0zm0 0M8 12c0 .223-.18.398-.398.398a.398.398 0 1 1 0-.796c.218 0 .398.175.398.398zm0 0M8 14.398a.401.401 0 1 1-.802.003.401.401 0 0 1 .802-.003zm0 0M9.2 13.2a.401.401 0 1 1-.803.002.401.401 0 0 1 .802-.003zm0 0M9.2 15.602a.4.4 0 1 1-.801-.004.4.4 0 0 1 .8.004zm0 0M10.398 12a.395.395 0 0 1-.398.398.395.395 0 0 1-.398-.398c0-.223.175-.398.398-.398.223 0 .398.175.398.398zm0 0M12.8 12c0 .223-.179.398-.402.398a.398.398 0 1 1 0-.796c.223 0 .403.175.403.398zm0 0M10.398 14.398a.398.398 0 1 1-.796 0 .398.398 0 1 1 .796 0zm0 0M12.8 14.398a.401.401 0 1 1 0 0zm0 0M11.602 13.2a.401.401 0 1 1 0 0zm0 0M14 13.2a.401.401 0 1 1-.802.002.401.401 0 0 1 .802-.003zm0 0M11.602 15.602a.401.401 0 1 1-.802-.005.401.401 0 0 1 .802.005zm0 0M14 15.602a.4.4 0 1 1-.8-.004.4.4 0 0 1 .8.004zm0 0M15.2 12c0 .223-.18.398-.4.398a.398.398 0 1 1 0-.796c.22 0 .4.175.4.398zm0 0M17.602 12c0 .223-.18.398-.403.398a.398.398 0 1 1 0-.796c.223 0 .403.175.403.398zm0 0M15.2 14.398a.401.401 0 1 1-.803.003.401.401 0 0 1 .802-.003zm0 0M17.602 14.398a.401.401 0 1 1 0 0zm0 0M16.398 13.2a.398.398 0 1 1-.796 0 .398.398 0 1 1 .796 0zm0 0M16.398 15.602a.398.398 0 1 1-.796 0 .398.398 0 1 1 .796 0zm0 0M8 16.8a.4.4 0 1 1-.8-.003.4.4 0 0 1 .8.004zm0 0M8 19.2a.401.401 0 1 1-.802.002.401.401 0 0 1 .802-.003zm0 0M9.2 18c0 .223-.18.398-.4.398a.398.398 0 1 1 0-.796c.22 0 .4.175.4.398zm0 0M9.2 20.398a.401.401 0 1 1-.803.003.401.401 0 0 1 .802-.003zm0 0M10.398 16.8a.398.398 0 1 1-.796 0 .398.398 0 1 1 .796 0zm0 0M12.8 16.8a.401.401 0 1 1-.801-.004.401.401 0 0 1 .802.005zm0 0M10.398 19.2a.398.398 0 1 1-.796 0 .398.398 0 1 1 .796 0zm0 0M12.8 19.2a.401.401 0 1 1 0 0zm0 0M11.602 18c0 .223-.18.398-.403.398a.398.398 0 1 1 0-.796c.223 0 .403.175.403.398zm0 0M14 18c0 .223-.18.398-.398.398a.398.398 0 1 1 0-.796c.218 0 .398.175.398.398zm0 0M11.602 20.398a.401.401 0 1 1 0 0zm0 0M14 20.398a.401.401 0 1 1-.802.003.401.401 0 0 1 .802-.003zm0 0M15.2 16.8a.4.4 0 1 1-.801-.003.4.4 0 0 1 .8.004zm0 0M17.602 16.8a.401.401 0 1 1-.802-.004.401.401 0 0 1 .802.005zm0 0M15.2 19.2a.401.401 0 1 1-.803.002.401.401 0 0 1 .802-.003zm0 0M17.602 19.2a.401.401 0 1 1 0 0zm0 0M16.398 18a.395.395 0 0 1-.398.398.395.395 0 0 1-.398-.398c0-.223.175-.398.398-.398.223 0 .398.175.398.398zm0 0M16.398 20.398a.398.398 0 1 1-.796 0 .398.398 0 1 1 .796 0zm0 0M8 21.602a.4.4 0 1 1-.8-.004.4.4 0 0 1 .8.004zm0 0M9.2 22.8a.4.4 0 1 1-.801-.003.4.4 0 0 1 .8.004zm0 0M10.398 21.602a.398.398 0 1 1-.796 0 .398.398 0 1 1 .796 0zm0 0M12.8 21.602a.401.401 0 1 1-.801-.005.401.401 0 0 1 .802.005zm0 0M11.602 22.8a.401.401 0 1 1-.802-.004.401.401 0 0 1 .802.005zm0 0M14 22.8a.4.4 0 1 1-.8-.003.4.4 0 0 1 .8.004zm0 0M15.2 21.602a.4.4 0 1 1-.801-.004.4.4 0 0 1 .8.004zm0 0M17.602 21.602a.401.401 0 1 1-.802-.005.401.401 0 0 1 .802.005zm0 0M16.398 22.8a.398.398 0 1 1-.796 0 .398.398 0 1 1 .796 0zm0 0"/>
</svg>
