<svg xmlns="http://www.w3.org/2000/svg" width="32" height="32" viewBox="0 0 24 24">
    <path d="M 17.015625 1.601562 L 14.398438 1.601562 L 14.398438 0 L 9.601562 0 L 9.601562 1.601562 L 6.984375 1.601562 C 6.222656 1.601562 5.601562 2.222656 5.601562 2.984375 L 5.601562 22.613281 C 5.601562 23.378906 6.222656 24 6.984375 24 L 17.015625 24 C 17.777344 24 18.398438 23.378906 18.398438 22.613281 L 18.398438 2.984375 C 18.398438 2.222656 17.777344 1.601562 17.015625 1.601562 Z M 10.398438 0.800781 L 13.601562 0.800781 L 13.601562 1.601562 L 10.398438 1.601562 Z M 17.601562 22.613281 C 17.601562 22.9375 17.335938 23.199219 17.015625 23.199219 L 6.984375 23.199219 C 6.664062 23.199219 6.398438 22.9375 6.398438 22.613281 L 6.398438 2.984375 C 6.398438 2.664062 6.664062 2.398438 6.984375 2.398438 L 17.015625 2.398438 C 17.335938 2.398438 17.601562 2.664062 17.601562 2.984375 Z M 17.601562 22.613281"/>
    <path d="M 13.601562 6.84375 C 13.609375 6.675781 13.515625 6.515625 13.359375 6.441406 L 13.046875 6.3125 L 12.847656 6.558594 L 8.480469 13.601562 L 10.800781 13.601562 L 10.800781 18.753906 C 10.792969 18.917969 10.882812 19.078125 11.03125 19.15625 L 11.351562 19.296875 L 11.554688 19.039062 L 15.460938 11.601562 L 13.601562 11.601562 Z M 14.140625 12.398438 L 11.601562 17.242188 L 11.601562 12.800781 L 9.917969 12.800781 L 12.800781 8.148438 L 12.800781 12.398438 Z M 14.140625 12.398438"/>
</svg>
