<svg xmlns="http://www.w3.org/2000/svg" width="32" height="32" viewBox="0 0 24 24">
    <path d="M 11.578125 3.613281 L 11.59375 10.847656 L 8.101562 7.691406 L 7.539062 8.316406 L 11.390625 11.800781 L 7.507812 15.269531 L 8.070312 15.898438 L 11.59375 12.75 L 11.578125 20.476562 L 15.941406 15.570312 L 12.46875 11.910156 L 15.945312 7.980469 Z M 14.789062 8.019531 L 12.429688 10.683594 L 12.421875 5.648438 Z M 12.421875 18.261719 L 12.429688 13.09375 L 14.796875 15.589844 Z M 12.421875 18.261719"/>
    <path d="M 12 0 C 7.820312 0 4.421875 3.398438 4.421875 7.578125 L 4.421875 16.421875 C 4.421875 20.601562 7.820312 24 12 24 C 16.179688 24 19.578125 20.601562 19.578125 16.421875 L 19.578125 7.578125 C 19.578125 3.398438 16.179688 0 12 0 Z M 18.738281 16.421875 C 18.738281 20.136719 15.714844 23.15625 12 23.15625 C 8.285156 23.15625 5.261719 20.136719 5.261719 16.421875 L 5.261719 7.578125 C 5.261719 3.863281 8.285156 0.84375 12 0.84375 C 15.714844 0.84375 18.738281 3.863281 18.738281 7.578125 Z M 18.738281 16.421875"/>
</svg>
