<svg xmlns="http://www.w3.org/2000/svg" width="32" height="32" viewBox="0 0 24 24">
    <path d="M 22.796875 5.398438 L 22 5.398438 L 22 4.199219 L 18 4.199219 L 18 5.398438 L 16.398438 5.398438 L 16.398438 3.082031 C 16.398438 2.375 15.824219 1.800781 15.117188 1.800781 L 8.882812 1.800781 C 8.175781 1.800781 7.601562 2.375 7.601562 3.082031 L 7.601562 5.398438 L 6 5.398438 L 6 4.199219 L 2 4.199219 L 2 5.398438 L 1.203125 5.398438 C 0.539062 5.398438 0 5.941406 0 6.605469 L 0 20.996094 C 0 21.660156 0.539062 22.199219 1.203125 22.199219 L 22.796875 22.199219 C 23.460938 22.199219 24 21.660156 24 20.996094 L 24 6.605469 C 24 5.941406 23.460938 5.398438 22.796875 5.398438 Z M 18.800781 5 L 21.199219 5 L 21.199219 5.398438 L 18.800781 5.398438 Z M 8.398438 3.082031 C 8.398438 2.816406 8.617188 2.601562 8.882812 2.601562 L 15.117188 2.601562 C 15.382812 2.601562 15.601562 2.816406 15.601562 3.082031 L 15.601562 5.398438 L 8.398438 5.398438 Z M 7.601562 6.199219 L 20 6.199219 L 20 21.398438 L 4 21.398438 L 4 6.199219 Z M 2.800781 5 L 5.199219 5 L 5.199219 5.398438 L 2.800781 5.398438 Z M 0.800781 20.996094 L 0.800781 6.605469 C 0.800781 6.382812 0.980469 6.199219 1.203125 6.199219 L 3.199219 6.199219 L 3.199219 21.398438 L 1.203125 21.398438 C 0.980469 21.398438 0.800781 21.21875 0.800781 20.996094 Z M 23.199219 20.996094 C 23.199219 21.21875 23.019531 21.398438 22.796875 21.398438 L 20.800781 21.398438 L 20.800781 6.199219 L 22.796875 6.199219 C 23.019531 6.199219 23.199219 6.382812 23.199219 6.605469 Z M 23.199219 20.996094"/>
</svg>
