<svg xmlns="http://www.w3.org/2000/svg" width="32" height="32" viewBox="0 0 24 24">
    <path d="M 17.75 1.863281 C 17.558594 0.917969 16.722656 0.207031 15.722656 0.207031 C 15.496094 0.207031 15.308594 0.390625 15.308594 0.621094 C 15.308594 0.847656 15.496094 1.035156 15.722656 1.035156 C 16.410156 1.035156 16.964844 1.589844 16.964844 2.277344 C 16.964844 2.960938 16.410156 3.515625 15.722656 3.515625 C 15.496094 3.515625 15.308594 3.703125 15.308594 3.929688 C 15.308594 4.160156 15.496094 4.34375 15.722656 4.34375 C 16.722656 4.34375 17.558594 3.632812 17.75 2.691406 L 23.171875 2.691406 L 23.171875 6.414062 L 0.828125 6.414062 L 0.828125 2.691406 L 7.863281 2.691406 C 8.089844 2.691406 8.277344 2.503906 8.277344 2.277344 C 8.277344 2.046875 8.089844 1.863281 7.863281 1.863281 L 7.109375 1.863281 C 7.28125 1.382812 7.738281 1.035156 8.277344 1.035156 C 8.960938 1.035156 9.515625 1.589844 9.515625 2.277344 C 9.515625 2.960938 8.960938 3.515625 8.277344 3.515625 C 8.046875 3.515625 7.863281 3.703125 7.863281 3.929688 C 7.863281 4.160156 8.046875 4.34375 8.277344 4.34375 C 9.417969 4.34375 10.34375 3.417969 10.34375 2.277344 C 10.34375 1.136719 9.417969 0.207031 8.277344 0.207031 C 7.277344 0.207031 6.441406 0.917969 6.25 1.863281 L 0 1.863281 L 0 23.792969 L 24 23.792969 L 24 1.863281 Z M 23.171875 22.964844 L 0.828125 22.964844 L 0.828125 7.242188 L 23.171875 7.242188 Z M 23.171875 22.964844"/>
    <path d="M10.757812 1.035156C11.441406 1.035156 12 1.589844 12 2.277344 12 2.960938 11.441406 3.515625 10.757812 3.515625 10.53125 3.515625 10.34375 3.703125 10.34375 3.929688 10.34375 4.160156 10.53125 4.34375 10.757812 4.34375 11.898438 4.34375 12.828125 3.417969 12.828125 2.277344 12.828125 1.136719 11.898438.207031 10.757812.207031 10.53125.207031 10.34375.390625 10.34375.621094 10.34375.847656 10.53125 1.035156 10.757812 1.035156zM13.242188 1.035156C13.925781 1.035156 14.484375 1.589844 14.484375 2.277344 14.484375 2.960938 13.925781 3.515625 13.242188 3.515625 13.011719 3.515625 12.828125 3.703125 12.828125 3.929688 12.828125 4.160156 13.011719 4.34375 13.242188 4.34375 14.382812 4.34375 15.308594 3.417969 15.308594 2.277344 15.308594 1.136719 14.382812.207031 13.242188.207031 13.011719.207031 12.828125.390625 12.828125.621094 12.828125.847656 13.011719 1.035156 13.242188 1.035156zM9.515625 10.136719C9.515625 10.367188 9.332031 10.550781 9.101562 10.550781 8.875 10.550781 8.691406 10.367188 8.691406 10.136719 8.691406 9.910156 8.875 9.722656 9.101562 9.722656 9.332031 9.722656 9.515625 9.910156 9.515625 10.136719zM12.414062 10.136719C12.414062 10.367188 12.230469 10.550781 12 10.550781 11.769531 10.550781 11.585938 10.367188 11.585938 10.136719 11.585938 9.910156 11.769531 9.722656 12 9.722656 12.230469 9.722656 12.414062 9.910156 12.414062 10.136719zM15.308594 10.136719C15.308594 10.367188 15.125 10.550781 14.898438 10.550781 14.667969 10.550781 14.484375 10.367188 14.484375 10.136719 14.484375 9.910156 14.667969 9.722656 14.898438 9.722656 15.125 9.722656 15.308594 9.910156 15.308594 10.136719zM18.207031 10.136719C18.207031 10.367188 18.023438 10.550781 17.792969 10.550781 17.566406 10.550781 17.378906 10.367188 17.378906 10.136719 17.378906 9.910156 17.566406 9.722656 17.792969 9.722656 18.023438 9.722656 18.207031 9.910156 18.207031 10.136719zM21.101562 10.136719C21.101562 10.367188 20.917969 10.550781 20.691406 10.550781 20.460938 10.550781 20.277344 10.367188 20.277344 10.136719 20.277344 9.910156 20.460938 9.722656 20.691406 9.722656 20.917969 9.722656 21.101562 9.910156 21.101562 10.136719zM3.722656 13.449219C3.722656 13.675781 3.539062 13.863281 3.308594 13.863281 3.082031 13.863281 2.898438 13.675781 2.898438 13.449219 2.898438 13.21875 3.082031 13.035156 3.308594 13.035156 3.539062 13.035156 3.722656 13.21875 3.722656 13.449219zM6.621094 13.449219C6.621094 13.675781 6.433594 13.863281 6.207031 13.863281 5.976562 13.863281 5.792969 13.675781 5.792969 13.449219 5.792969 13.21875 5.976562 13.035156 6.207031 13.035156 6.433594 13.035156 6.621094 13.21875 6.621094 13.449219zM9.515625 13.449219C9.515625 13.675781 9.332031 13.863281 9.101562 13.863281 8.875 13.863281 8.691406 13.675781 8.691406 13.449219 8.691406 13.21875 8.875 13.035156 9.101562 13.035156 9.332031 13.035156 9.515625 13.21875 9.515625 13.449219zM12.414062 13.449219C12.414062 13.675781 12.230469 13.863281 12 13.863281 11.769531 13.863281 11.585938 13.675781 11.585938 13.449219 11.585938 13.21875 11.769531 13.035156 12 13.035156 12.230469 13.035156 12.414062 13.21875 12.414062 13.449219zM15.308594 13.449219C15.308594 13.675781 15.125 13.863281 14.898438 13.863281 14.667969 13.863281 14.484375 13.675781 14.484375 13.449219 14.484375 13.21875 14.667969 13.035156 14.898438 13.035156 15.125 13.035156 15.308594 13.21875 15.308594 13.449219zM18.207031 13.449219C18.207031 13.675781 18.023438 13.863281 17.792969 13.863281 17.566406 13.863281 17.378906 13.675781 17.378906 13.449219 17.378906 13.21875 17.566406 13.035156 17.792969 13.035156 18.023438 13.035156 18.207031 13.21875 18.207031 13.449219zM21.101562 13.449219C21.101562 13.675781 20.917969 13.863281 20.691406 13.863281 20.460938 13.863281 20.277344 13.675781 20.277344 13.449219 20.277344 13.21875 20.460938 13.035156 20.691406 13.035156 20.917969 13.035156 21.101562 13.21875 21.101562 13.449219zM3.722656 16.34375C3.722656 16.574219 3.539062 16.757812 3.308594 16.757812 3.082031 16.757812 2.898438 16.574219 2.898438 16.34375 2.898438 16.117188 3.082031 15.929688 3.308594 15.929688 3.539062 15.929688 3.722656 16.117188 3.722656 16.34375zM6.621094 16.34375C6.621094 16.574219 6.433594 16.757812 6.207031 16.757812 5.976562 16.757812 5.792969 16.574219 5.792969 16.34375 5.792969 16.117188 5.976562 15.929688 6.207031 15.929688 6.433594 15.929688 6.621094 16.117188 6.621094 16.34375zM9.515625 16.34375C9.515625 16.574219 9.332031 16.757812 9.101562 16.757812 8.875 16.757812 8.691406 16.574219 8.691406 16.34375 8.691406 16.117188 8.875 15.929688 9.101562 15.929688 9.332031 15.929688 9.515625 16.117188 9.515625 16.34375zM12.414062 16.34375C12.414062 16.574219 12.230469 16.757812 12 16.757812 11.769531 16.757812 11.585938 16.574219 11.585938 16.34375 11.585938 16.117188 11.769531 15.929688 12 15.929688 12.230469 15.929688 12.414062 16.117188 12.414062 16.34375zM15.308594 16.34375C15.308594 16.574219 15.125 16.757812 14.898438 16.757812 14.667969 16.757812 14.484375 16.574219 14.484375 16.34375 14.484375 16.117188 14.667969 15.929688 14.898438 15.929688 15.125 15.929688 15.308594 16.117188 15.308594 16.34375zM18.207031 16.34375C18.207031 16.574219 18.023438 16.757812 17.792969 16.757812 17.566406 16.757812 17.378906 16.574219 17.378906 16.34375 17.378906 16.117188 17.566406 15.929688 17.792969 15.929688 18.023438 15.929688 18.207031 16.117188 18.207031 16.34375zM21.101562 16.34375C21.101562 16.574219 20.917969 16.757812 20.691406 16.757812 20.460938 16.757812 20.277344 16.574219 20.277344 16.34375 20.277344 16.117188 20.460938 15.929688 20.691406 15.929688 20.917969 15.929688 21.101562 16.117188 21.101562 16.34375zM3.722656 19.65625C3.722656 19.882812 3.539062 20.070312 3.308594 20.070312 3.082031 20.070312 2.898438 19.882812 2.898438 19.65625 2.898438 19.425781 3.082031 19.242188 3.308594 19.242188 3.539062 19.242188 3.722656 19.425781 3.722656 19.65625zM6.621094 19.65625C6.621094 19.882812 6.433594 20.070312 6.207031 20.070312 5.976562 20.070312 5.792969 19.882812 5.792969 19.65625 5.792969 19.425781 5.976562 19.242188 6.207031 19.242188 6.433594 19.242188 6.621094 19.425781 6.621094 19.65625zM9.515625 19.65625C9.515625 19.882812 9.332031 20.070312 9.101562 20.070312 8.875 20.070312 8.691406 19.882812 8.691406 19.65625 8.691406 19.425781 8.875 19.242188 9.101562 19.242188 9.332031 19.242188 9.515625 19.425781 9.515625 19.65625zM12.414062 19.65625C12.414062 19.882812 12.230469 20.070312 12 20.070312 11.769531 20.070312 11.585938 19.882812 11.585938 19.65625 11.585938 19.425781 11.769531 19.242188 12 19.242188 12.230469 19.242188 12.414062 19.425781 12.414062 19.65625zM15.308594 19.65625C15.308594 19.882812 15.125 20.070312 14.898438 20.070312 14.667969 20.070312 14.484375 19.882812 14.484375 19.65625 14.484375 19.425781 14.667969 19.242188 14.898438 19.242188 15.125 19.242188 15.308594 19.425781 15.308594 19.65625zM15.308594 19.65625"/>
</svg>
