<svg xmlns="http://www.w3.org/2000/svg" width="32" height="32" viewBox="0 0 24 24">
    <path d="M12 0C5.383 0 0 5.383 0 12s5.383 12 12 12 12-5.383 12-12S18.617 0 12 0zm0 23.2C5.824 23.2.8 18.175.8 12 .8 5.824 5.825.8 12 .8 18.176.8 23.2 5.825 23.2 12c0 6.176-5.024 11.2-11.2 11.2zm0 0"/>
    <path d="M12.398 10.41V6.352A.395.395 0 0 0 12 5.953a.395.395 0 0 0-.398.399v4.058a1.59 1.59 0 0 0-1.145 1.14H7.602a.401.401 0 0 0 0 .8l2.855.002c.18.687.8 1.199 1.543 1.199a1.6 1.6 0 0 0 1.602-1.598c0-.746-.512-1.367-1.204-1.543zM12 12.75a.799.799 0 1 1 0-1.598.799.799 0 1 1 0 1.598zm0 0M12 3.953c.223 0 .398-.18.398-.402v-.399a.398.398 0 1 0-.796 0v.399c0 .222.175.402.398.402zm0 0M12 19.953a.395.395 0 0 0-.398.399v.398a.398.398 0 1 0 .796 0v-.398a.395.395 0 0 0-.398-.399zm0 0M20.8 11.55h-.402a.401.401 0 0 0 0 .802h.403a.4.4 0 0 0 0-.801zm0 0M3.602 11.55h-.403a.401.401 0 0 0 0 .802h.403a.4.4 0 0 0 0-.801zm0 0M17.941 5.445l-.285.285a.399.399 0 1 0 .566.563l.282-.281a.4.4 0 0 0 0-.567.396.396 0 0 0-.563 0zm0 0M5.777 17.61l-.28.28a.4.4 0 0 0 .28.684c.102 0 .203-.039.282-.117l.285-.281a.4.4 0 0 0-.567-.567zm0 0M18.223 17.61a.4.4 0 0 0-.567.566l.285.281a.396.396 0 0 0 .563 0 .4.4 0 0 0 0-.566zm0 0M6.059 5.445a.396.396 0 0 0-.563 0 .4.4 0 0 0 0 .567l.281.281a.399.399 0 1 0 .566-.563zm0 0"/>
</svg>
