<svg xmlns="http://www.w3.org/2000/svg" width="32" height="32" viewBox="0 0 24 24">
    <path d="M21.383 3.71V.22H0v20.508h3.055v3.054H24V3.711zM.87 19.856V1.09h19.637v2.62H3.055v16.145zM23.13 22.91H3.926V4.582h19.203zm0 0"/>
    <path d="M17.23 10.043a.434.434 0 0 0-.617 0l-3.086 3.086-3.086-3.086a.434.434 0 0 0-.617 0 .434.434 0 0 0 0 .617l3.086 3.086-3.086 3.086a.434.434 0 0 0 .309.742.444.444 0 0 0 .308-.125l3.086-3.086 3.086 3.086a.444.444 0 0 0 .617 0 .434.434 0 0 0 0-.617l-3.085-3.086 3.085-3.086a.434.434 0 0 0 0-.617zm0 0"/>
</svg>
