<svg xmlns="http://www.w3.org/2000/svg" width="32" height="32" viewBox="0 0 24 24">
    <path d="M 20.390625 7.878906 C 20.179688 4.277344 17.210938 1.398438 13.632812 1.398438 C 11.460938 1.398438 9.359375 2.464844 8.054688 4.203125 C 8.023438 4.1875 7.992188 4.175781 7.960938 4.160156 C 7.882812 4.125 7.804688 4.089844 7.722656 4.054688 C 7.675781 4.035156 7.628906 4.019531 7.582031 4.003906 C 7.503906 3.976562 7.421875 3.953125 7.339844 3.929688 C 7.292969 3.917969 7.246094 3.902344 7.195312 3.890625 C 7.109375 3.871094 7.019531 3.855469 6.929688 3.84375 C 6.886719 3.835938 6.84375 3.828125 6.804688 3.824219 C 6.671875 3.808594 6.535156 3.800781 6.398438 3.800781 C 4.414062 3.800781 2.800781 5.414062 2.800781 7.398438 C 2.800781 7.453125 2.804688 7.503906 2.804688 7.550781 C 1.144531 8.460938 0 10.359375 0 12.261719 C 0 15.09375 2.304688 17.398438 5.136719 17.398438 L 7.199219 17.398438 C 7.421875 17.398438 7.601562 17.222656 7.601562 17 C 7.601562 16.777344 7.421875 16.601562 7.199219 16.601562 L 5.136719 16.601562 C 2.746094 16.601562 0.800781 14.652344 0.800781 12.261719 C 0.800781 10.601562 1.882812 8.875 3.371094 8.160156 L 3.601562 8.050781 L 3.601562 7.800781 C 3.601562 7.75 3.601562 7.699219 3.605469 7.648438 L 3.609375 7.582031 L 3.605469 7.5 C 3.601562 7.46875 3.601562 7.433594 3.601562 7.398438 C 3.601562 5.855469 4.855469 4.601562 6.398438 4.601562 C 6.523438 4.601562 6.644531 4.609375 6.765625 4.625 C 6.796875 4.628906 6.828125 4.636719 6.859375 4.640625 C 6.96875 4.660156 7.074219 4.683594 7.175781 4.710938 C 7.191406 4.714844 7.203125 4.71875 7.21875 4.722656 C 7.332031 4.757812 7.445312 4.800781 7.550781 4.851562 C 7.582031 4.863281 7.609375 4.878906 7.636719 4.890625 C 7.730469 4.9375 7.828125 4.992188 7.917969 5.050781 C 8.6875 5.550781 9.199219 6.414062 9.199219 7.398438 C 9.199219 7.621094 9.378906 7.800781 9.601562 7.800781 C 9.820312 7.800781 10 7.621094 10 7.398438 C 10 6.296875 9.5 5.3125 8.71875 4.652344 C 9.867188 3.152344 11.753906 2.199219 13.632812 2.199219 C 16.730469 2.199219 19.304688 4.652344 19.574219 7.753906 C 19.164062 7.726562 18.550781 7.710938 17.941406 7.804688 C 17.722656 7.839844 17.570312 8.042969 17.605469 8.261719 C 17.632812 8.457031 17.804688 8.601562 18 8.601562 C 18.019531 8.601562 18.039062 8.597656 18.058594 8.59375 C 18.949219 8.460938 19.878906 8.585938 19.933594 8.59375 C 21.796875 8.949219 23.199219 10.664062 23.199219 12.589844 C 23.199219 14.800781 21.402344 16.601562 19.1875 16.601562 L 17.601562 16.601562 C 17.378906 16.601562 17.199219 16.777344 17.199219 17 C 17.199219 17.222656 17.378906 17.398438 17.601562 17.398438 L 19.1875 17.398438 C 21.839844 17.398438 24 15.242188 24 12.589844 C 24 10.394531 22.46875 8.425781 20.390625 7.878906 Z M 20.390625 7.878906"/>
    <path d="M 15.316406 13.683594 C 15.394531 13.761719 15.496094 13.800781 15.601562 13.800781 C 15.703125 13.800781 15.804688 13.761719 15.882812 13.683594 C 16.039062 13.527344 16.039062 13.273438 15.882812 13.117188 L 12.683594 9.917969 C 12.644531 9.878906 12.601562 9.851562 12.554688 9.832031 C 12.457031 9.789062 12.34375 9.789062 12.246094 9.832031 C 12.199219 9.851562 12.152344 9.878906 12.117188 9.917969 L 8.917969 13.117188 C 8.761719 13.273438 8.761719 13.527344 8.917969 13.683594 C 8.996094 13.761719 9.097656 13.800781 9.199219 13.800781 C 9.300781 13.800781 9.40625 13.761719 9.484375 13.683594 L 12 11.164062 L 12 21.234375 L 9.484375 18.71875 C 9.328125 18.5625 9.074219 18.5625 8.917969 18.71875 C 8.761719 18.875 8.761719 19.125 8.917969 19.28125 L 12.117188 22.480469 C 12.152344 22.519531 12.199219 22.546875 12.246094 22.570312 C 12.296875 22.589844 12.347656 22.601562 12.398438 22.601562 C 12.453125 22.601562 12.503906 22.589844 12.554688 22.570312 C 12.601562 22.546875 12.644531 22.519531 12.683594 22.480469 L 15.882812 19.28125 C 16.039062 19.125 16.039062 18.875 15.882812 18.71875 C 15.726562 18.5625 15.472656 18.5625 15.316406 18.71875 L 12.800781 21.234375 L 12.800781 11.164062 Z M 15.316406 13.683594"/>
</svg>
