<svg xmlns="http://www.w3.org/2000/svg" width="32" height="32" viewBox="0 0 24 24">
    <path d="M 20.390625 7.078125 C 20.179688 3.476562 17.210938 0.601562 13.632812 0.601562 C 11.460938 0.601562 9.359375 1.664062 8.054688 3.402344 C 8.023438 3.386719 7.992188 3.375 7.960938 3.363281 C 7.882812 3.324219 7.804688 3.289062 7.722656 3.253906 C 7.675781 3.238281 7.628906 3.21875 7.582031 3.203125 C 7.503906 3.175781 7.421875 3.152344 7.339844 3.128906 C 7.292969 3.117188 7.246094 3.101562 7.195312 3.09375 C 7.109375 3.070312 7.019531 3.058594 6.929688 3.042969 C 6.886719 3.039062 6.84375 3.027344 6.804688 3.023438 C 6.671875 3.007812 6.535156 3 6.398438 3 C 4.414062 3 2.800781 4.613281 2.800781 6.601562 C 2.800781 6.652344 2.804688 6.703125 2.804688 6.753906 C 1.144531 7.660156 0 9.558594 0 11.460938 C 0 14.292969 2.304688 16.601562 5.136719 16.601562 L 7.199219 16.601562 C 7.421875 16.601562 7.601562 16.421875 7.601562 16.199219 C 7.601562 15.980469 7.421875 15.800781 7.199219 15.800781 L 5.136719 15.800781 C 2.746094 15.800781 0.800781 13.855469 0.800781 11.460938 C 0.800781 9.800781 1.882812 8.074219 3.371094 7.359375 L 3.601562 7.253906 L 3.601562 7 C 3.601562 6.949219 3.601562 6.902344 3.605469 6.851562 L 3.609375 6.78125 L 3.605469 6.699219 C 3.601562 6.667969 3.601562 6.632812 3.601562 6.601562 C 3.601562 5.054688 4.855469 3.800781 6.398438 3.800781 C 6.523438 3.800781 6.644531 3.8125 6.765625 3.828125 C 6.796875 3.832031 6.828125 3.835938 6.859375 3.839844 C 6.96875 3.859375 7.074219 3.882812 7.175781 3.910156 C 7.191406 3.914062 7.203125 3.917969 7.21875 3.921875 C 7.332031 3.957031 7.445312 4 7.550781 4.050781 C 7.582031 4.0625 7.609375 4.078125 7.636719 4.089844 C 7.730469 4.136719 7.828125 4.191406 7.917969 4.25 C 8.6875 4.75 9.199219 5.617188 9.199219 6.601562 C 9.199219 6.820312 9.378906 7 9.601562 7 C 9.820312 7 10 6.820312 10 6.601562 C 10 5.5 9.5 4.511719 8.71875 3.851562 C 9.867188 2.351562 11.753906 1.398438 13.632812 1.398438 C 16.730469 1.398438 19.304688 3.855469 19.574219 6.953125 C 19.164062 6.925781 18.550781 6.910156 17.941406 7.003906 C 17.722656 7.039062 17.570312 7.242188 17.605469 7.460938 C 17.632812 7.660156 17.804688 7.800781 18 7.800781 C 18.019531 7.800781 18.039062 7.796875 18.058594 7.796875 C 18.949219 7.660156 19.878906 7.789062 19.933594 7.792969 C 21.796875 8.148438 23.199219 9.863281 23.199219 11.789062 C 23.199219 14 21.402344 15.800781 19.1875 15.800781 L 17.601562 15.800781 C 17.378906 15.800781 17.199219 15.980469 17.199219 16.199219 C 17.199219 16.421875 17.378906 16.601562 17.601562 16.601562 L 19.1875 16.601562 C 21.839844 16.601562 24 14.441406 24 11.789062 C 24 9.59375 22.46875 7.625 20.390625 7.078125 Z M 20.390625 7.078125"/>
    <path d="M 15.777344 19.011719 C 16.414062 18.25 16.800781 17.269531 16.800781 16.199219 C 16.800781 13.773438 14.824219 11.800781 12.398438 11.800781 C 9.972656 11.800781 8 13.773438 8 16.199219 C 8 18.625 9.972656 20.601562 12.398438 20.601562 C 13.46875 20.601562 14.449219 20.214844 15.214844 19.578125 L 18.917969 23.28125 C 18.996094 23.359375 19.097656 23.398438 19.199219 23.398438 C 19.300781 23.398438 19.40625 23.359375 19.484375 23.28125 C 19.640625 23.125 19.640625 22.875 19.484375 22.71875 Z M 12.398438 19.800781 C 10.414062 19.800781 8.800781 18.183594 8.800781 16.199219 C 8.800781 14.214844 10.414062 12.601562 12.398438 12.601562 C 14.386719 12.601562 16 14.214844 16 16.199219 C 16 18.183594 14.386719 19.800781 12.398438 19.800781 Z M 12.398438 19.800781"/>
</svg>
