<svg xmlns="http://www.w3.org/2000/svg" width="32" height="32" viewBox="0 0 24 24">
    <path d="M12 0C5.383 0 0 5.383 0 12s5.383 12 12 12 12-5.383 12-12S18.617 0 12 0zm0 23.2C5.824 23.2.8 18.175.8 12 .8 5.824 5.825.8 12 .8 18.176.8 23.2 5.825 23.2 12c0 6.176-5.024 11.2-11.2 11.2zm0 0"/>
    <path d="M12 8.8A3.2 3.2 0 0 0 8.8 12a3.2 3.2 0 0 0 3.2 3.2 3.2 3.2 0 0 0 3.2-3.2A3.2 3.2 0 0 0 12 8.8zm0 5.598a2.399 2.399 0 1 1 .001-4.797A2.399 2.399 0 0 1 12 14.398zm0 0"/>
    <path d="M12 6.398A5.606 5.606 0 0 0 6.398 12 5.606 5.606 0 0 0 12 17.602 5.606 5.606 0 0 0 17.602 12 5.606 5.606 0 0 0 12 6.398zm0 10.403A4.805 4.805 0 0 1 7.2 12c0-2.648 2.152-4.8 4.8-4.8 2.648 0 4.8 2.152 4.8 4.8 0 2.648-2.152 4.8-4.8 4.8zm0 0"/>
</svg>
