<svg xmlns="http://www.w3.org/2000/svg" width="32" height="32" viewBox="0 0 24 24">
    <path d="M3.43 17.605V.855A.428.428 0 0 0 3 .43a.428.428 0 0 0-.43.425v16.75A3.004 3.004 0 0 0 0 20.57c0 1.657 1.348 3 3 3s3-1.343 3-3a3.004 3.004 0 0 0-2.57-2.965zM3 22.715c-1.18 0-2.145-.961-2.145-2.145 0-1.18.965-2.14 2.145-2.14 1.18 0 2.145.96 2.145 2.14A2.148 2.148 0 0 1 3 22.715zm0 0M12.43 8.871V.855A.428.428 0 0 0 12 .43a.428.428 0 0 0-.43.425v7.989a3.088 3.088 0 0 0 0 6.136v8.165c0 .234.192.425.43.425s.43-.191.43-.425v-8.192A3.09 3.09 0 0 0 15 11.91a3.086 3.086 0 0 0-2.57-3.039zm-.52 5.274a2.232 2.232 0 1 1 2.234-2.234 2.239 2.239 0 0 1-2.234 2.234zm0 0M24 3.43c0-1.657-1.348-3-3-3s-3 1.343-3 3a3.004 3.004 0 0 0 2.57 2.965v16.75c0 .234.192.425.43.425s.43-.191.43-.425V6.395A3.004 3.004 0 0 0 24 3.43zm-3 2.14c-1.18 0-2.145-.96-2.145-2.14 0-1.184.965-2.145 2.145-2.145 1.18 0 2.145.961 2.145 2.145 0 1.18-.965 2.14-2.145 2.14zm0 0"/>
</svg>
