<svg xmlns="http://www.w3.org/2000/svg" width="32" height="32" viewBox="0 0 24 24">
    <path d="M.445312 4L1.777344 4 1.777344 5.777344C1.777344 6.023438 1.976562 6.222656 2.222656 6.222656L7.554688 6.222656C7.800781 6.222656 8 6.023438 8 5.777344L8 4 23.554688 4C23.800781 4 24 3.800781 24 3.554688 24 3.308594 23.800781 3.109375 23.554688 3.109375L8 3.109375 8 1.332031C8 1.085938 7.800781.890625 7.554688.890625L2.222656.890625C1.976562.890625 1.777344 1.085938 1.777344 1.332031L1.777344 3.109375.445312 3.109375C.199219 3.109375 0 3.308594 0 3.554688 0 3.800781.199219 4 .445312 4zM2.667969 1.777344L7.109375 1.777344 7.109375 5.332031 2.667969 5.332031zM23.554688 11.554688L15.109375 11.554688 15.109375 9.777344C15.109375 9.53125 14.914062 9.332031 14.667969 9.332031L9.332031 9.332031C9.085938 9.332031 8.890625 9.53125 8.890625 9.777344L8.890625 11.554688.445312 11.554688C.199219 11.554688 0 11.753906 0 12 0 12.246094.199219 12.445312.445312 12.445312L8.890625 12.445312 8.890625 14.222656C8.890625 14.46875 9.085938 14.667969 9.332031 14.667969L14.667969 14.667969C14.914062 14.667969 15.109375 14.46875 15.109375 14.222656L15.109375 12.445312 23.554688 12.445312C23.800781 12.445312 24 12.246094 24 12 24 11.753906 23.800781 11.554688 23.554688 11.554688zM14.222656 13.777344L9.777344 13.777344 9.777344 10.222656 14.222656 10.222656zM23.554688 20L22.222656 20 22.222656 18.222656C22.222656 17.976562 22.023438 17.777344 21.777344 17.777344L16.445312 17.777344C16.199219 17.777344 16 17.976562 16 18.222656L16 20 .445312 20C.199219 20 0 20.199219 0 20.445312 0 20.691406.199219 20.890625.445312 20.890625L16 20.890625 16 22.667969C16 22.914062 16.199219 23.109375 16.445312 23.109375L21.777344 23.109375C22.023438 23.109375 22.222656 22.914062 22.222656 22.667969L22.222656 20.890625 23.554688 20.890625C23.800781 20.890625 24 20.691406 24 20.445312 24 20.199219 23.800781 20 23.554688 20zM21.332031 22.222656L16.890625 22.222656 16.890625 18.667969 21.332031 18.667969zM21.332031 22.222656"/>
</svg>
