<svg xmlns="http://www.w3.org/2000/svg" width="32" height="32" viewBox="0 0 24 24">
    <path d="M 23.652344 1.492188 L 22.511719 0.351562 C 22.046875 -0.113281 21.289062 -0.113281 20.824219 0.351562 L 19.574219 1.601562 L 0 1.601562 L 0 23.996094 L 22.394531 23.996094 L 22.394531 4.4375 L 23.652344 3.179688 C 24.117188 2.714844 24.117188 1.957031 23.652344 1.492188 Z M 8.015625 14.699219 L 9.304688 15.988281 L 7.535156 16.46875 Z M 20.820312 4.882812 L 19.121094 3.183594 L 19.6875 2.621094 L 21.382812 4.316406 Z M 20.253906 5.445312 L 10.074219 15.625 L 8.378906 13.929688 L 18.558594 3.75 Z M 21.59375 5.238281 L 21.59375 23.195312 L 0.800781 23.195312 L 0.800781 2.402344 L 18.773438 2.402344 L 7.53125 13.648438 L 7.453125 13.722656 L 6.605469 16.832031 L 6.117188 17.324219 C 5.960938 17.480469 5.960938 17.730469 6.117188 17.886719 C 6.195312 17.964844 6.296875 18.003906 6.398438 18.003906 C 6.5 18.003906 6.601562 17.964844 6.679688 17.886719 L 7.171875 17.398438 L 10.28125 16.550781 Z M 23.085938 2.613281 L 21.949219 3.75 L 20.253906 2.054688 L 21.390625 0.917969 C 21.542969 0.765625 21.792969 0.765625 21.945312 0.917969 L 23.085938 2.058594 C 23.238281 2.210938 23.238281 2.460938 23.085938 2.613281 Z M 23.085938 2.613281"/>
</svg>
