<svg xmlns="http://www.w3.org/2000/svg" width="32" height="32" viewBox="0 0 24 24">
    <path d="M 12 0 C 5.382812 0 0 5.382812 0 12 C 0 18.617188 5.382812 24 12 24 C 18.617188 24 24 18.617188 24 12 C 24 5.382812 18.617188 0 12 0 Z M 12 23.078125 C 5.890625 23.078125 0.921875 18.109375 0.921875 12 C 0.921875 5.890625 5.890625 0.921875 12 0.921875 C 18.109375 0.921875 23.078125 5.890625 23.078125 12 C 23.078125 18.109375 18.109375 23.078125 12 23.078125 Z M 12 23.078125"/>
    <path d="M 16.480469 7.519531 C 16.300781 7.339844 16.007812 7.339844 15.828125 7.519531 L 12 11.347656 L 8.171875 7.519531 C 7.992188 7.339844 7.699219 7.339844 7.519531 7.519531 C 7.339844 7.699219 7.339844 7.992188 7.519531 8.171875 L 11.347656 12 L 7.519531 15.828125 C 7.339844 16.007812 7.339844 16.300781 7.519531 16.480469 C 7.609375 16.570312 7.726562 16.617188 7.847656 16.617188 C 7.964844 16.617188 8.082031 16.570312 8.171875 16.480469 L 12 12.652344 L 15.828125 16.480469 C 15.917969 16.570312 16.035156 16.617188 16.152344 16.617188 C 16.273438 16.617188 16.390625 16.570312 16.480469 16.480469 C 16.660156 16.300781 16.660156 16.007812 16.480469 15.828125 L 12.652344 12 L 16.480469 8.171875 C 16.660156 7.992188 16.660156 7.699219 16.480469 7.519531 Z M 16.480469 7.519531"/>
</svg>
