<svg xmlns="http://www.w3.org/2000/svg" width="32" height="32" viewBox="0 0 24 24">
    <path d="M17 8.800781L7 8.800781C6.777344 8.800781 6.601562 8.980469 6.601562 9.199219 6.601562 9.421875 6.777344 9.601562 7 9.601562L17 9.601562C17.222656 9.601562 17.398438 9.421875 17.398438 9.199219 17.398438 8.980469 17.222656 8.800781 17 8.800781zM7 6.398438L11 6.398438C11.222656 6.398438 11.398438 6.222656 11.398438 6 11.398438 5.777344 11.222656 5.601562 11 5.601562L7 5.601562C6.777344 5.601562 6.601562 5.777344 6.601562 6 6.601562 6.222656 6.777344 6.398438 7 6.398438zM17 12L7 12C6.777344 12 6.601562 12.179688 6.601562 12.398438 6.601562 12.621094 6.777344 12.800781 7 12.800781L17 12.800781C17.222656 12.800781 17.398438 12.621094 17.398438 12.398438 17.398438 12.179688 17.222656 12 17 12zM17 15.199219L7 15.199219C6.777344 15.199219 6.601562 15.378906 6.601562 15.601562 6.601562 15.820312 6.777344 16 7 16L17 16C17.222656 16 17.398438 15.820312 17.398438 15.601562 17.398438 15.378906 17.222656 15.199219 17 15.199219zM17 18.398438L7 18.398438C6.777344 18.398438 6.601562 18.578125 6.601562 18.800781 6.601562 19.019531 6.777344 19.199219 7 19.199219L17 19.199219C17.222656 19.199219 17.398438 19.019531 17.398438 18.800781 17.398438 18.578125 17.222656 18.398438 17 18.398438zM17 18.398438"/>
    <path d="M 15.566406 0 L 2.601562 0 L 2.601562 24 L 21.398438 24 L 21.398438 5.835938 Z M 15.800781 1.367188 L 20.035156 5.601562 L 15.800781 5.601562 Z M 3.398438 23.199219 L 3.398438 0.800781 L 15 0.800781 L 15 6.398438 L 20.601562 6.398438 L 20.601562 23.199219 Z M 3.398438 23.199219"/>
</svg>
