<svg xmlns="http://www.w3.org/2000/svg" width="32" height="32" viewBox="0 0 24 24">
    <path d="M18.688 10l4.242-6.172a.404.404 0 0 0 .023-.414.392.392 0 0 0-.351-.215h-12V1.602a.402.402 0 0 0-.403-.403H1.801V.4a.401.401 0 0 0-.801 0v23.203a.4.4 0 0 0 .8 0v-10h4.41c-.253.332-.41.746-.41 1.199 0 1.101.895 2 2 2h14.802a.392.392 0 0 0 .351-.215.404.404 0 0 0-.023-.414zM1.8 2h8v10.8h-8zm6 14a1.2 1.2 0 0 1 0-2.398h2.398c.223 0 .403-.18.403-.403V4H21.84L17.87 9.773a.4.4 0 0 0 0 .454L21.84 16zm0 0"/>
</svg>
