<svg xmlns="http://www.w3.org/2000/svg" width="32" height="32" viewBox="0 0 24 24">
    <path d="M 17.671875 8 L 21.539062 1.8125 C 21.617188 1.6875 21.621094 1.53125 21.550781 1.40625 C 21.480469 1.277344 21.34375 1.199219 21.199219 1.199219 L 3.199219 1.199219 L 3.199219 0.398438 C 3.199219 0.179688 3.019531 0 2.800781 0 C 2.578125 0 2.398438 0.179688 2.398438 0.398438 L 2.398438 23.601562 C 2.398438 23.820312 2.578125 24 2.800781 24 C 3.019531 24 3.199219 23.820312 3.199219 23.601562 L 3.199219 14.800781 L 21.199219 14.800781 C 21.34375 14.800781 21.480469 14.722656 21.550781 14.59375 C 21.621094 14.46875 21.617188 14.3125 21.539062 14.1875 Z M 3.199219 14 L 3.199219 2 L 20.476562 2 L 16.859375 7.789062 C 16.78125 7.917969 16.78125 8.082031 16.859375 8.210938 L 20.476562 14 Z M 3.199219 14"/>
</svg>
