<svg xmlns="http://www.w3.org/2000/svg" width="32" height="32" viewBox="0 0 24 24">
    <path d="M 22.792969 4.601562 L 11.207031 4.601562 L 11.207031 2.609375 C 11.207031 1.941406 10.667969 1.398438 10 1.398438 L 1.207031 1.398438 C 0.542969 1.398438 0 1.941406 0 2.609375 L 0 21.390625 C 0 22.058594 0.542969 22.601562 1.207031 22.601562 L 22.792969 22.601562 C 23.457031 22.601562 24 22.058594 24 21.390625 L 24 5.808594 C 24 5.140625 23.457031 4.601562 22.792969 4.601562 Z M 23.199219 21.390625 C 23.199219 21.617188 23.015625 21.800781 22.792969 21.800781 L 1.207031 21.800781 C 0.984375 21.800781 0.800781 21.617188 0.800781 21.390625 L 0.800781 9 L 23.199219 9 Z M 0.800781 8.199219 L 0.800781 2.609375 C 0.800781 2.382812 0.984375 2.199219 1.207031 2.199219 L 10 2.199219 C 10.226562 2.199219 10.40625 2.382812 10.40625 2.609375 L 10.40625 5.398438 L 22.792969 5.398438 C 23.015625 5.398438 23.199219 5.582031 23.199219 5.808594 L 23.199219 8.199219 Z M 0.800781 8.199219"/>
</svg>
