<svg xmlns="http://www.w3.org/2000/svg" width="32" height="32" viewBox="0 0 24 24">
    <path d="M22.793 4.602H11.207V2.609c0-.668-.543-1.21-1.207-1.21H1.207C.543 1.398 0 1.94 0 2.608v18.782c0 .668.543 1.21 1.207 1.21h21.586c.664 0 1.207-.542 1.207-1.21V5.809c0-.668-.543-1.207-1.207-1.207zm.406 16.789a.41.41 0 0 1-.406.41H1.207a.41.41 0 0 1-.406-.41V9h22.398zM.801 8.199V2.61a.41.41 0 0 1 .406-.41H10c.227 0 .406.184.406.41V5.4h12.387a.41.41 0 0 1 .406.41v2.39zm0 0"/>
    <path d="M7.602 13.398h5.597a.398.398 0 1 0 0-.796H7.602a.398.398 0 1 0 0 .796zm0 0M7.602 15.8h8.796a.401.401 0 0 0 0-.8H7.602a.401.401 0 1 0 0 .8zm0 0M7.602 18.2h8.796a.401.401 0 1 0 0-.802H7.602a.401.401 0 0 0 0 .8zm0 0"/>
</svg>
