<svg xmlns="http://www.w3.org/2000/svg" width="32" height="32" viewBox="0 0 24 24">
    <path d="M 22.996094 8.601562 L 22 8.601562 L 22 5 L 10.605469 5 L 8.605469 2.199219 L 1.09375 2.199219 C 0.492188 2.199219 0 2.691406 0 3.292969 L 0 20.769531 L 0.00390625 20.769531 C 0 20.992188 0.0703125 21.214844 0.210938 21.398438 C 0.40625 21.652344 0.703125 21.800781 1.027344 21.800781 L 18.929688 21.800781 C 19.390625 21.800781 19.800781 21.488281 19.910156 21.074219 L 24 9.859375 L 24 9.789062 C 24 9.101562 23.578125 8.601562 22.996094 8.601562 Z M 21.199219 5.800781 L 21.199219 8.601562 L 18 8.601562 L 18 7.398438 C 18 7.179688 17.820312 7 17.601562 7 C 17.378906 7 17.199219 7.179688 17.199219 7.398438 L 17.199219 8.601562 L 15.199219 8.601562 L 15.199219 7.398438 C 15.199219 7.179688 15.019531 7 14.800781 7 C 14.578125 7 14.398438 7.179688 14.398438 7.398438 L 14.398438 8.601562 L 12.398438 8.601562 L 12.398438 7.398438 C 12.398438 7.179688 12.222656 7 12 7 C 11.777344 7 11.601562 7.179688 11.601562 7.398438 L 11.601562 8.601562 L 9.601562 8.601562 L 9.601562 7.398438 C 9.601562 7.179688 9.421875 7 9.199219 7 C 8.980469 7 8.800781 7.179688 8.800781 7.398438 L 8.800781 8.601562 L 6.800781 8.601562 L 6.800781 7.398438 C 6.800781 7.179688 6.621094 7 6.398438 7 C 6.179688 7 6 7.179688 6 7.398438 L 6 8.601562 L 5.09375 8.601562 C 5.035156 8.601562 4.980469 8.605469 4.921875 8.613281 C 4.535156 8.679688 4.210938 8.960938 4.113281 9.324219 L 3.984375 9.671875 L 2 15.117188 L 2 8.199219 L 4.398438 8.199219 L 4.398438 5.800781 Z M 2.566406 7.398438 L 3.601562 6.367188 L 3.601562 7.398438 Z M 0.800781 3.292969 C 0.800781 3.132812 0.929688 3 1.09375 3 L 8.195312 3 L 9.621094 5 L 3.835938 5 L 1.199219 7.632812 L 1.199219 17.269531 L 0.800781 18.359375 Z M 19.148438 20.832031 C 19.121094 20.929688 19.03125 21 18.929688 21 L 1.027344 21 C 0.929688 21 0.871094 20.945312 0.847656 20.910156 C 0.820312 20.878906 0.78125 20.808594 0.796875 20.746094 L 1.199219 19.644531 L 4.863281 9.597656 L 4.875 9.566406 C 4.902344 9.46875 4.992188 9.398438 5.09375 9.398438 L 22.996094 9.398438 C 23.148438 9.398438 23.1875 9.617188 23.195312 9.726562 Z M 19.148438 20.832031"/>
</svg>
