<svg xmlns="http://www.w3.org/2000/svg" width="32" height="32" viewBox="0 0 24 24">
    <path d="M 22.996094 10.800781 L 21.601562 10.800781 L 21.601562 8.292969 C 21.601562 7.691406 21.109375 7.199219 20.507812 7.199219 L 20 7.199219 L 20 0 L 4 0 L 4 0.800781 L 2.800781 0.800781 L 2.800781 1.601562 L 1.601562 1.601562 L 1.601562 4.398438 L 1.09375 4.398438 C 0.492188 4.398438 0 4.890625 0 5.492188 L 0 22.96875 L 0.00390625 22.96875 C 0 23.191406 0.0703125 23.414062 0.210938 23.597656 C 0.40625 23.855469 0.703125 24 1.027344 24 L 18.929688 24 C 19.390625 24 19.800781 23.6875 19.910156 23.273438 L 24 12.058594 L 24 11.988281 C 24 11.300781 23.578125 10.800781 22.996094 10.800781 Z M 20.507812 8 C 20.667969 8 20.800781 8.132812 20.800781 8.292969 L 20.800781 10.800781 L 20 10.800781 L 20 8 Z M 19.199219 0.800781 L 19.199219 10.800781 L 5.09375 10.800781 C 5 10.800781 4.910156 10.816406 4.824219 10.839844 C 4.816406 10.839844 4.808594 10.839844 4.800781 10.84375 L 4.800781 0.800781 Z M 4 1.601562 L 4 11.835938 L 3.976562 11.902344 L 3.601562 12.929688 L 3.601562 1.601562 Z M 2.398438 2.398438 L 2.800781 2.398438 L 2.800781 15.125 L 2.398438 16.21875 Z M 0.800781 5.492188 C 0.800781 5.332031 0.929688 5.199219 1.09375 5.199219 L 1.601562 5.199219 L 1.601562 18.378906 L 0.800781 20.558594 Z M 19.148438 23.035156 C 19.121094 23.132812 19.03125 23.199219 18.929688 23.199219 L 1.027344 23.199219 C 0.929688 23.199219 0.871094 23.144531 0.847656 23.109375 C 0.820312 23.078125 0.78125 23.007812 0.796875 22.949219 L 1.601562 20.746094 L 1.601562 20.75 L 2.800781 17.457031 L 4 14.167969 L 4.773438 12.050781 L 4.800781 11.976562 L 4.863281 11.800781 L 4.875 11.765625 C 4.902344 11.667969 4.992188 11.601562 5.09375 11.601562 L 22.996094 11.601562 C 23.148438 11.601562 23.1875 11.820312 23.195312 11.925781 Z M 19.148438 23.035156"/>
    <path d="M7.199219 6.800781L16.800781 6.800781C17.019531 6.800781 17.199219 6.621094 17.199219 6.398438 17.199219 6.179688 17.019531 6 16.800781 6L7.199219 6C6.980469 6 6.800781 6.179688 6.800781 6.398438 6.800781 6.621094 6.980469 6.800781 7.199219 6.800781zM7.199219 4L11.199219 4C11.421875 4 11.601562 3.820312 11.601562 3.601562 11.601562 3.378906 11.421875 3.199219 11.199219 3.199219L7.199219 3.199219C6.980469 3.199219 6.800781 3.378906 6.800781 3.601562 6.800781 3.820312 6.980469 4 7.199219 4zM7.199219 9.601562L16.800781 9.601562C17.019531 9.601562 17.199219 9.421875 17.199219 9.199219 17.199219 8.980469 17.019531 8.800781 16.800781 8.800781L7.199219 8.800781C6.980469 8.800781 6.800781 8.980469 6.800781 9.199219 6.800781 9.421875 6.980469 9.601562 7.199219 9.601562zM7.199219 9.601562"/>
</svg>
