<svg xmlns="http://www.w3.org/2000/svg" width="32" height="32" viewBox="0 0 24 24">
    <path d="M 23.875 9.371094 C 23.78125 9.261719 23.636719 9.195312 23.492188 9.195312 L 22.433594 9.195312 L 22.433594 3.496094 C 22.433594 3.105469 22.117188 2.785156 21.726562 2.785156 L 9.441406 2.785156 L 8.445312 1.128906 C 8.316406 0.914062 8.085938 0.785156 7.835938 0.785156 L 2.308594 0.785156 C 1.921875 0.785156 1.601562 1.101562 1.601562 1.492188 L 1.601562 9.195312 L 0.507812 9.195312 C 0.359375 9.195312 0.21875 9.261719 0.125 9.371094 C 0.0273438 9.484375 -0.015625 9.632812 0.00390625 9.78125 L 0.886719 15.605469 L 1.738281 21.214844 L 1.976562 22.785156 C 2.015625 23.035156 2.226562 23.214844 2.480469 23.214844 L 21.519531 23.214844 C 21.773438 23.214844 21.984375 23.035156 22.023438 22.785156 L 22.261719 21.214844 L 23.113281 15.605469 L 23.996094 9.78125 C 24.015625 9.632812 23.972656 9.484375 23.875 9.371094 Z M 2.402344 1.585938 L 7.785156 1.585938 L 8.78125 3.242188 C 8.90625 3.457031 9.140625 3.585938 9.386719 3.585938 L 21.632812 3.585938 L 21.632812 9.195312 L 21.230469 9.195312 L 21.230469 7.59375 L 20.832031 7.59375 L 20.832031 6.390625 L 20.429688 6.390625 L 20.429688 5.191406 L 3.605469 5.191406 L 3.605469 6.390625 L 3.203125 6.390625 L 3.203125 7.59375 L 2.804688 7.59375 L 2.804688 9.195312 L 2.402344 9.195312 Z M 3.605469 8.394531 L 20.429688 8.394531 L 20.429688 9.195312 L 3.605469 9.195312 Z M 4.007812 7.191406 L 20.03125 7.191406 L 20.03125 7.59375 L 4.007812 7.59375 Z M 19.628906 6.390625 L 4.40625 6.390625 L 4.40625 5.992188 L 19.628906 5.992188 Z M 21.574219 20.414062 L 19.359375 20.414062 L 21.96875 17.800781 Z M 22.171875 16.46875 L 18.226562 20.414062 L 16.152344 20.414062 L 20.160156 16.40625 L 22.179688 16.40625 Z M 15.019531 20.414062 L 12.949219 20.414062 L 16.957031 16.40625 L 19.027344 16.40625 Z M 11.816406 20.414062 L 9.746094 20.414062 L 13.75 16.40625 L 15.824219 16.40625 Z M 8.613281 20.414062 L 6.539062 20.414062 L 10.546875 16.40625 L 12.617188 16.40625 Z M 5.40625 20.414062 L 3.335938 20.414062 L 7.339844 16.40625 L 9.414062 16.40625 Z M 2.398438 20.21875 L 2.175781 18.765625 L 4.535156 16.40625 L 6.207031 16.40625 Z M 2.027344 17.78125 L 1.875 16.769531 L 1.820312 16.40625 L 3.402344 16.40625 Z M 21.269531 22.414062 L 2.730469 22.414062 L 2.546875 21.214844 L 21.453125 21.214844 Z M 22.300781 15.605469 L 1.699219 15.605469 L 0.847656 9.996094 L 23.152344 9.996094 Z M 22.300781 15.605469"/>
</svg>
