<svg xmlns="http://www.w3.org/2000/svg" width="32" height="32" viewBox="0 0 24 24">
    <path d="M23.879 9.375a.512.512 0 0 0-.387-.18h-1.058V3.496a.71.71 0 0 0-.707-.71H9.44l-.996-1.657a.712.712 0 0 0-.61-.348H2.31a.715.715 0 0 0-.707.711v7.703H.508a.507.507 0 0 0-.383.176.521.521 0 0 0-.121.41l1.973 13c.035.25.25.434.503.434h19.04a.506.506 0 0 0 .503-.43l1.97-13.004a.512.512 0 0 0-.114-.406zM2.402 1.585h5.383l.996 1.657c.125.215.36.344.606.344h12.246v5.61h-.403V7.593h-.398V6.39h-.402v-1.2H3.605v1.2h-.402v1.203h-.398v1.601h-.403zm1.203 6.81H20.43v.8H3.605zm.403-1.204H20.03v.403H4.008zm15.62-.8H4.407v-.399H19.63zm1.642 16.023H2.73L.848 9.996h22.304zm0 0"/>
</svg>
