<svg xmlns="http://www.w3.org/2000/svg" width="32" height="32" viewBox="0 0 24 24">
    <path d="M22.996 8.602H22V5.8h-.8V4.199H10.034l-1.43-2H1.094C.492 2.2 0 2.691 0 3.293V20.77h.004c-.004.222.066.445.207.628.195.254.492.403.816.403H18.93c.46 0 .87-.313.98-.727L24 9.86v-.07c0-.687-.422-1.187-1.004-1.187zm-1.797 0H18v-.403a.4.4 0 0 0-.8 0v.403h-2v-.403a.4.4 0 0 0-.802 0v.403h-2v-.403a.398.398 0 1 0-.796 0v.403h-2v-.403a.401.401 0 0 0-.801 0v.403h-2v-.403A.401.401 0 0 0 6 8.2v.403h-.906a1.27 1.27 0 0 0-.172.011c-.2.035-.379.125-.524.258v-2.27H21.2zM2 15.117V9h2.277a.942.942 0 0 0-.164.324l-.129.348zM3.602 8.2H2.566l1.036-1.035zM20.398 5v.8H3.836L2.8 6.837V5zM.801 3.293C.8 3.133.93 3 1.094 3h7.101l.856 1.2H2v3.433l-.8.8v8.837l-.4 1.09zm18.347 17.539a.23.23 0 0 1-.218.168H1.027a.214.214 0 0 1-.18-.09c-.027-.031-.066-.101-.05-.164l.402-1.101L4.863 9.598l.012-.032a.23.23 0 0 1 .219-.168h17.902c.152 0 .192.22.2.329zm0 0"/>
</svg>
