<svg xmlns="http://www.w3.org/2000/svg" width="32" height="32" viewBox="0 0 24 24">
    <path d="M12 20.746a.408.408 0 0 0 .406-.406V6.914A.408.408 0 0 0 12 6.508a.408.408 0 0 0-.406.406V20.34c0 .223.183.406.406.406zm0 0M7.934 20.746a.408.408 0 0 0 .406-.406V6.914a.406.406 0 1 0-.812 0V20.34c0 .223.179.406.406.406zm0 0M16.066 20.746a.406.406 0 0 0 .407-.406V6.914a.406.406 0 1 0-.813 0V20.34c0 .223.184.406.406.406zm0 0"/>
    <path d="M21.355 2.441h-5.71c-.047-.507-.204-1.367-.739-1.918-.34-.347-.77-.523-1.281-.523H9.559A1.72 1.72 0 0 0 8.28.523c-.535.551-.695 1.41-.738 1.918H2.645a.403.403 0 0 0-.407.407c0 .226.18.406.407.406h.828l.78 18.723C4.27 22.676 4.704 24 6.25 24h11.5c1.547 0 1.98-1.324 1.996-2.016l.781-18.73h.828c.227 0 .407-.18.407-.406a.403.403 0 0 0-.407-.407zM8.863 1.09A.921.921 0 0 1 9.56.812h4.066c.285 0 .516.09.695.278.328.336.461.926.504 1.351H8.36c.047-.425.18-1.015.504-1.351zm10.07 20.867c-.003.125-.058 1.23-1.183 1.23H6.25c-1.113 0-1.18-1.105-1.184-1.238L4.29 3.254h15.422zm0 0"/>
</svg>
