<svg xmlns="http://www.w3.org/2000/svg" width="32" height="32" viewBox="0 0 24 24">
    <path d="M23.793 10.953l-3.57-3.316v-5.43h-4.11V3.82L12 0 .207 10.953a.408.408 0 0 0-.023.578.413.413 0 0 0 .582.024l1.367-1.27V24h19.734V10.285l1.367 1.27c.078.074.18.11.282.11.109 0 .218-.044.3-.134a.408.408 0 0 0-.023-.578zm-6.86-7.926h2.47v3.844l-2.47-2.289zM9.532 23.176v-8.66c0-.211.176-.383.387-.383h4.164c.211 0 .387.172.387.383v8.66zm11.516 0h-5.758v-8.66a1.21 1.21 0 0 0-1.207-1.207H9.918c-.668 0-1.207.543-1.207 1.207v8.66H2.953V9.523L12 1.121l5.871 5.453 2.352 2.184.824.765zm0 0"/>
</svg>
