<svg xmlns="http://www.w3.org/2000/svg" width="32" height="32" viewBox="0 0 24 24">
    <path d="M12.398438 10.398438C12.398438 10.621094 12.222656 10.800781 12 10.800781 11.777344 10.800781 11.601562 10.621094 11.601562 10.398438 11.601562 10.179688 11.777344 10 12 10 12.222656 10 12.398438 10.179688 12.398438 10.398438zM13.601562 9.601562C13.601562 9.820312 13.421875 10 13.199219 10 12.980469 10 12.800781 9.820312 12.800781 9.601562 12.800781 9.378906 12.980469 9.199219 13.199219 9.199219 13.421875 9.199219 13.601562 9.378906 13.601562 9.601562zM11.199219 9.601562C11.199219 9.820312 11.019531 10 10.800781 10 10.578125 10 10.398438 9.820312 10.398438 9.601562 10.398438 9.378906 10.578125 9.199219 10.800781 9.199219 11.019531 9.199219 11.199219 9.378906 11.199219 9.601562zM10 8.800781C10 9.019531 9.820312 9.199219 9.601562 9.199219 9.378906 9.199219 9.199219 9.019531 9.199219 8.800781 9.199219 8.578125 9.378906 8.398438 9.601562 8.398438 9.820312 8.398438 10 8.578125 10 8.800781zM14.800781 8.800781C14.800781 9.019531 14.621094 9.199219 14.398438 9.199219 14.179688 9.199219 14 9.019531 14 8.800781 14 8.578125 14.179688 8.398438 14.398438 8.398438 14.621094 8.398438 14.800781 8.578125 14.800781 8.800781zM16 8C16 8.222656 15.820312 8.398438 15.601562 8.398438 15.378906 8.398438 15.199219 8.222656 15.199219 8 15.199219 7.777344 15.378906 7.601562 15.601562 7.601562 15.820312 7.601562 16 7.777344 16 8zM8.800781 8C8.800781 8.222656 8.621094 8.398438 8.398438 8.398438 8.179688 8.398438 8 8.222656 8 8 8 7.777344 8.179688 7.601562 8.398438 7.601562 8.621094 7.601562 8.800781 7.777344 8.800781 8zM12.398438 8.800781C12.398438 9.019531 12.222656 9.199219 12 9.199219 11.777344 9.199219 11.601562 9.019531 11.601562 8.800781 11.601562 8.578125 11.777344 8.398438 12 8.398438 12.222656 8.398438 12.398438 8.578125 12.398438 8.800781zM12.398438 13.601562C12.398438 13.820312 12.222656 14 12 14 11.777344 14 11.601562 13.820312 11.601562 13.601562 11.601562 13.378906 11.777344 13.199219 12 13.199219 12.222656 13.199219 12.398438 13.378906 12.398438 13.601562zM12.398438 14.800781C12.398438 15.019531 12.222656 15.199219 12 15.199219 11.777344 15.199219 11.601562 15.019531 11.601562 14.800781 11.601562 14.578125 11.777344 14.398438 12 14.398438 12.222656 14.398438 12.398438 14.578125 12.398438 14.800781zM12.398438 16C12.398438 16.222656 12.222656 16.398438 12 16.398438 11.777344 16.398438 11.601562 16.222656 11.601562 16 11.601562 15.777344 11.777344 15.601562 12 15.601562 12.222656 15.601562 12.398438 15.777344 12.398438 16zM12.398438 17.199219C12.398438 17.421875 12.222656 17.601562 12 17.601562 11.777344 17.601562 11.601562 17.421875 11.601562 17.199219 11.601562 16.980469 11.777344 16.800781 12 16.800781 12.222656 16.800781 12.398438 16.980469 12.398438 17.199219zM12.398438 18.398438C12.398438 18.621094 12.222656 18.800781 12 18.800781 11.777344 18.800781 11.601562 18.621094 11.601562 18.398438 11.601562 18.179688 11.777344 18 12 18 12.222656 18 12.398438 18.179688 12.398438 18.398438zM12.398438 19.601562C12.398438 19.820312 12.222656 20 12 20 11.777344 20 11.601562 19.820312 11.601562 19.601562 11.601562 19.378906 11.777344 19.199219 12 19.199219 12.222656 19.199219 12.398438 19.378906 12.398438 19.601562zM12.398438 19.601562"/>
    <path d="M 21.601562 23.199219 L 20.398438 23.199219 L 20.398438 21.601562 L 18.398438 21.601562 L 18.398438 17.511719 C 18.398438 16.429688 17.863281 15.429688 16.964844 14.828125 L 12.722656 12 L 16.964844 9.171875 C 17.863281 8.570312 18.398438 7.570312 18.398438 6.488281 L 18.398438 2.398438 L 20.398438 2.398438 L 20.398438 0.800781 L 21.601562 0.800781 C 21.820312 0.800781 22 0.621094 22 0.398438 C 22 0.179688 21.820312 0 21.601562 0 L 2.398438 0 C 2.179688 0 2 0.179688 2 0.398438 C 2 0.621094 2.179688 0.800781 2.398438 0.800781 L 3.601562 0.800781 L 3.601562 2.398438 L 5.601562 2.398438 L 5.601562 6.488281 C 5.601562 7.570312 6.136719 8.570312 7.035156 9.171875 L 11.277344 12 L 7.035156 14.828125 C 6.136719 15.429688 5.601562 16.429688 5.601562 17.511719 L 5.601562 21.601562 L 3.601562 21.601562 L 3.601562 23.199219 L 2.398438 23.199219 C 2.179688 23.199219 2 23.378906 2 23.601562 C 2 23.820312 2.179688 24 2.398438 24 L 21.601562 24 C 21.820312 24 22 23.820312 22 23.601562 C 22 23.378906 21.820312 23.199219 21.601562 23.199219 Z M 4.398438 1.601562 L 4.398438 0.800781 L 19.601562 0.800781 L 19.601562 1.601562 Z M 7.480469 8.503906 C 6.804688 8.054688 6.398438 7.300781 6.398438 6.488281 L 6.398438 2.398438 L 17.601562 2.398438 L 17.601562 6.488281 C 17.601562 7.300781 17.195312 8.054688 16.519531 8.503906 L 12 11.519531 Z M 6.398438 17.511719 C 6.398438 16.699219 6.804688 15.945312 7.480469 15.496094 L 12 12.480469 L 16.519531 15.496094 C 17.195312 15.945312 17.601562 16.699219 17.601562 17.511719 L 17.601562 21.601562 L 6.398438 21.601562 Z M 4.398438 22.398438 L 19.601562 22.398438 L 19.601562 23.199219 L 4.398438 23.199219 Z M 4.398438 22.398438"/>
</svg>
