<svg xmlns="http://www.w3.org/2000/svg" width="32" height="32" viewBox="0 0 24 24">
    <path d="M 19.78125 9.585938 L 24 7.175781 L 12 0.359375 L 0 7.175781 L 4.21875 9.585938 L 0 11.980469 L 4.21875 14.390625 L 0 16.785156 L 12 23.640625 L 24 16.785156 L 19.78125 14.390625 L 24 11.980469 Z M 12 1.363281 L 22.234375 7.175781 L 12 13.023438 L 1.765625 7.175781 Z M 5.097656 10.089844 L 12 14.03125 L 18.902344 10.089844 L 22.234375 11.980469 L 12 17.828125 L 1.765625 11.980469 Z M 22.234375 16.785156 L 12 22.632812 L 1.765625 16.785156 L 5.097656 14.890625 L 12 18.835938 L 18.902344 14.890625 Z M 22.234375 16.785156"/>
</svg>
