<svg xmlns="http://www.w3.org/2000/svg" width="32" height="32" viewBox="0 0 24 24">
    <path d="M 17.050781 9.683594 L 17.050781 4.882812 C 17.050781 2.191406 14.691406 0 11.789062 0 C 8.886719 0 6.527344 2.191406 6.527344 4.882812 L 6.527344 6.242188 C 6.527344 6.472656 6.714844 6.660156 6.949219 6.660156 C 7.179688 6.660156 7.367188 6.472656 7.367188 6.242188 L 7.367188 4.882812 C 7.367188 2.65625 9.351562 0.84375 11.789062 0.84375 C 14.226562 0.84375 16.210938 2.65625 16.210938 4.882812 L 16.210938 9.683594 L 2.738281 9.683594 L 2.738281 24 L 21.261719 24 L 21.261719 9.683594 Z M 20.421875 23.15625 L 3.578125 23.15625 L 3.578125 21.472656 L 20.421875 21.472656 Z M 3.578125 20.632812 L 3.578125 10.527344 L 20.421875 10.527344 L 20.421875 20.632812 Z M 3.578125 20.632812"/>
    <path d="M 12 13.050781 C 11.070312 13.050781 10.316406 13.808594 10.316406 14.738281 L 10.316406 17.261719 C 10.316406 18.191406 11.070312 18.949219 12 18.949219 C 12.929688 18.949219 13.683594 18.191406 13.683594 17.261719 L 13.683594 14.738281 C 13.683594 13.808594 12.929688 13.050781 12 13.050781 Z M 12.84375 17.261719 C 12.84375 17.726562 12.464844 18.105469 12 18.105469 C 11.535156 18.105469 11.15625 17.726562 11.15625 17.261719 L 11.15625 14.738281 C 11.15625 14.273438 11.535156 13.894531 12 13.894531 C 12.464844 13.894531 12.84375 14.273438 12.84375 14.738281 Z M 12.84375 17.261719"/>
</svg>
