<svg xmlns="http://www.w3.org/2000/svg" width="32" height="32" viewBox="0 0 24 24">
    <path d="M13.152344 9.085938L.0390625 22.199219 1.839844 24 18.945312 6.894531 17.144531 5.09375zM1.835938 22.800781L1.238281 22.199219 13.453125 9.984375 14.050781 10.585938zM14.652344 9.984375L14.054688 9.386719 17.144531 6.292969 17.746094 6.894531zM17.175781 3.816406C17.410156 3.816406 17.601562 3.625 17.601562 3.390625L17.601562.425781C17.601562.191406 17.410156 0 17.175781 0 16.941406 0 16.753906.191406 16.753906.425781L16.753906 3.390625C16.753906 3.625 16.941406 3.816406 17.175781 3.816406zM17.175781 9.753906C16.941406 9.753906 16.753906 9.941406 16.753906 10.175781L16.753906 13.144531C16.753906 13.378906 16.941406 13.570312 17.175781 13.570312 17.410156 13.570312 17.601562 13.378906 17.601562 13.144531L17.601562 10.175781C17.601562 9.941406 17.410156 9.753906 17.175781 9.753906zM23.535156 6.359375L20.570312 6.359375C20.335938 6.359375 20.144531 6.550781 20.144531 6.785156 20.144531 7.019531 20.335938 7.207031 20.570312 7.207031L23.535156 7.207031C23.769531 7.207031 23.960938 7.019531 23.960938 6.785156 23.960938 6.550781 23.769531 6.359375 23.535156 6.359375zM10.816406 7.207031L13.785156 7.207031C14.019531 7.207031 14.207031 7.019531 14.207031 6.785156 14.207031 6.550781 14.019531 6.359375 13.785156 6.359375L10.816406 6.359375C10.582031 6.359375 10.390625 6.550781 10.390625 6.785156 10.390625 7.019531 10.582031 7.207031 10.816406 7.207031zM19.71875 4.664062C19.828125 4.664062 19.9375 4.621094 20.019531 4.539062L22.121094 2.441406C22.285156 2.277344 22.285156 2.007812 22.121094 1.839844 21.953125 1.675781 21.6875 1.675781 21.519531 1.839844L19.421875 3.941406C19.253906 4.105469 19.253906 4.375 19.421875 4.539062 19.503906 4.621094 19.613281 4.664062 19.71875 4.664062zM20.019531 9.027344C19.855469 8.863281 19.585938 8.863281 19.421875 9.027344 19.253906 9.195312 19.253906 9.464844 19.421875 9.628906L21.519531 11.726562C21.601562 11.808594 21.710938 11.851562 21.820312 11.851562 21.929688 11.851562 22.035156 11.808594 22.121094 11.726562 22.285156 11.5625 22.285156 11.292969 22.121094 11.128906zM14.332031 4.539062C14.414062 4.621094 14.523438 4.664062 14.632812 4.664062 14.742188 4.664062 14.847656 4.621094 14.933594 4.539062 15.097656 4.375 15.097656 4.105469 14.933594 3.941406L12.832031 1.839844C12.667969 1.675781 12.398438 1.675781 12.234375 1.839844 12.066406 2.007812 12.066406 2.277344 12.234375 2.441406zM14.332031 4.539062"/>
</svg>
