<svg xmlns="http://www.w3.org/2000/svg" width="32" height="32" viewBox="0 0 24 24">
    <path d="M10.8 1.2C4.845 1.2 0 6.042 0 12c0 5.957 4.844 10.8 10.8 10.8h8.4v-6.402h-8.4A4.406 4.406 0 0 1 6.399 12a4.406 4.406 0 0 1 4.403-4.398h8.398V1.199zM18.399 22h-2.796v-4.8h2.796zM5.602 12c0 2.867 2.332 5.2 5.199 5.2h4V22h-4c-5.516 0-10-4.484-10-10s4.484-10 10-10h4v4.8h-4A5.205 5.205 0 0 0 5.6 12zm12.796-5.2h-2.796V2h2.796zm0 0M21.602 3.2H22c.223 0 .398-.18.398-.4A.398.398 0 0 0 22 2.399h-.398a.401.401 0 0 0 0 .8zm0 0M20 3.2h.398a.401.401 0 1 0 0-.802H20a.398.398 0 0 0-.398.403c0 .219.175.398.398.398zm0 0M23.2 3.2h.402a.4.4 0 0 0 0-.802h-.403a.401.401 0 0 0 0 .801zm0 0M22 5.602h-.398a.398.398 0 1 0 0 .796H22A.395.395 0 0 0 22.398 6 .395.395 0 0 0 22 5.602zm0 0M20 6.398h.398a.398.398 0 1 0 0-.796H20a.395.395 0 0 0-.398.398c0 .223.175.398.398.398zm0 0M23.602 5.602h-.403a.398.398 0 1 0 0 .796h.403a.398.398 0 1 0 0-.796zm0 0M20.398 4.398c0 .223.18.403.403.403h.398a.401.401 0 0 0 0-.8l-.398-.001a.401.401 0 0 0-.403.398zm0 0M22 4.398c0 .223.18.403.398.403h.403a.401.401 0 0 0 0-.801h-.403a.4.4 0 0 0-.398.398zm0 0M22 18h-.398a.401.401 0 1 0 0 .8H22c.223 0 .398-.179.398-.402A.398.398 0 0 0 22 18zm0 0M20 18.8h.398a.401.401 0 0 0 0-.8H20a.398.398 0 0 0-.398.398c0 .223.175.403.398.403zm0 0M23.602 18h-.403a.4.4 0 0 0 0 .8h.403a.401.401 0 0 0 0-.8zm0 0M22 21.2h-.398a.401.401 0 0 0 0 .8H22c.223 0 .398-.18.398-.398a.398.398 0 0 0-.398-.403zm0 0M20.398 21.2H20a.398.398 0 0 0-.398.402c0 .218.175.398.398.398h.398a.401.401 0 1 0 0-.8zm0 0M23.602 21.2h-.403a.401.401 0 0 0 0 .8h.403a.4.4 0 0 0 0-.8zm0 0M21.602 20a.398.398 0 0 0-.403-.398h-.398a.398.398 0 1 0 0 .796h.398a.398.398 0 0 0 .403-.398zm0 0M23.2 20a.398.398 0 0 0-.4-.398h-.402a.398.398 0 1 0 0 .796h.403a.398.398 0 0 0 .398-.398zm0 0"/>
</svg>
