<svg xmlns="http://www.w3.org/2000/svg" width="32" height="32" viewBox="0 0 24 24">
    <path d="M 23.785156 0.507812 C 23.652344 0.425781 23.484375 0.421875 23.347656 0.496094 L 16 4.386719 L 8.652344 0.496094 C 8.648438 0.492188 8.640625 0.492188 8.632812 0.488281 C 8.613281 0.480469 8.589844 0.472656 8.570312 0.464844 C 8.554688 0.460938 8.542969 0.457031 8.53125 0.453125 C 8.507812 0.449219 8.484375 0.449219 8.457031 0.445312 C 8.445312 0.445312 8.433594 0.445312 8.421875 0.445312 C 8.398438 0.445312 8.375 0.453125 8.351562 0.457031 C 8.339844 0.460938 8.324219 0.460938 8.3125 0.464844 C 8.308594 0.464844 8.308594 0.464844 8.304688 0.46875 L 0.304688 3.132812 C 0.121094 3.195312 0 3.363281 0 3.554688 L 0 22.667969 C 0 22.808594 0.0703125 22.945312 0.183594 23.027344 C 0.261719 23.082031 0.351562 23.109375 0.445312 23.109375 C 0.492188 23.109375 0.539062 23.105469 0.585938 23.089844 L 8.425781 20.472656 L 15.832031 23.523438 C 15.835938 23.523438 15.84375 23.523438 15.851562 23.527344 C 15.898438 23.542969 15.949219 23.554688 16 23.554688 C 16.039062 23.554688 16.078125 23.550781 16.117188 23.539062 C 16.128906 23.535156 16.140625 23.527344 16.15625 23.523438 C 16.171875 23.519531 16.191406 23.511719 16.207031 23.503906 L 23.761719 19.503906 C 23.910156 19.425781 24 19.277344 24 19.109375 L 24 0.890625 C 24 0.734375 23.917969 0.589844 23.785156 0.507812 Z M 0.890625 3.875 L 8 1.503906 L 8 13.503906 C 7.808594 13.535156 7.621094 13.574219 7.4375 13.625 C 7.199219 13.6875 7.058594 13.929688 7.121094 14.167969 C 7.175781 14.367188 7.355469 14.5 7.550781 14.5 C 7.589844 14.5 7.628906 14.492188 7.667969 14.484375 C 7.773438 14.457031 7.890625 14.441406 8 14.417969 L 8 19.679688 L 0.890625 22.050781 Z M 8.890625 14.292969 C 9.03125 14.28125 9.167969 14.265625 9.316406 14.261719 C 9.5625 14.253906 9.757812 14.050781 9.75 13.808594 C 9.746094 13.566406 9.546875 13.371094 9.308594 13.371094 C 9.304688 13.371094 9.300781 13.371094 9.296875 13.371094 C 9.160156 13.375 9.023438 13.382812 8.890625 13.390625 L 8.890625 1.628906 L 15.554688 5.15625 L 15.554688 14.574219 C 15.238281 14.5625 14.914062 14.523438 14.578125 14.460938 C 14.335938 14.410156 14.101562 14.570312 14.054688 14.8125 C 14.011719 15.050781 14.167969 15.285156 14.410156 15.332031 C 14.800781 15.410156 15.183594 15.445312 15.554688 15.460938 L 15.554688 22.449219 L 8.890625 19.703125 Z M 23.109375 18.84375 L 16.445312 22.371094 L 16.445312 15.414062 C 16.609375 15.335938 16.71875 15.167969 16.707031 14.976562 C 16.691406 14.8125 16.585938 14.675781 16.445312 14.613281 L 16.445312 5.15625 L 23.109375 1.628906 Z M 23.109375 18.84375"/>
    <path d="M4.890625 4C3.664062 4 2.667969 4.996094 2.667969 6.222656 2.667969 7.296875 3.429688 8.191406 4.445312 8.398438L4.445312 9.332031C4.445312 9.578125 4.644531 9.777344 4.890625 9.777344 5.132812 9.777344 5.332031 9.578125 5.332031 9.332031L5.332031 8.398438C6.347656 8.191406 7.109375 7.296875 7.109375 6.222656 7.109375 4.996094 6.113281 4 4.890625 4zM4.890625 7.554688C4.152344 7.554688 3.554688 6.957031 3.554688 6.222656 3.554688 5.488281 4.152344 4.890625 4.890625 4.890625 5.625 4.890625 6.222656 5.488281 6.222656 6.222656 6.222656 6.957031 5.625 7.554688 4.890625 7.554688zM20.03125 12.300781C20.085938 12.320312 20.140625 12.328125 20.191406 12.328125 20.371094 12.328125 20.539062 12.222656 20.605469 12.046875 20.816406 11.515625 20.984375 10.910156 21.105469 10.257812 21.152344 10.015625 20.992188 9.785156 20.75 9.738281 20.507812 9.699219 20.277344 9.855469 20.234375 10.09375 20.121094 10.695312 19.96875 11.242188 19.78125 11.722656 19.691406 11.949219 19.800781 12.210938 20.03125 12.300781zM5.691406 14.375C5.15625 14.710938 4.671875 15.132812 4.253906 15.628906 4.09375 15.816406 4.117188 16.09375 4.308594 16.253906 4.390625 16.324219 4.492188 16.359375 4.59375 16.359375 4.71875 16.359375 4.84375 16.304688 4.933594 16.199219 5.292969 15.777344 5.703125 15.414062 6.164062 15.128906 6.371094 14.996094 6.433594 14.722656 6.304688 14.515625 6.171875 14.308594 5.898438 14.242188 5.691406 14.375zM3.835938 17.011719C3.609375 16.910156 3.347656 17.003906 3.246094 17.230469 2.789062 18.21875 2.675781 19.015625 2.671875 19.050781 2.636719 19.292969 2.808594 19.515625 3.050781 19.550781 3.070312 19.554688 3.089844 19.554688 3.113281 19.554688 3.328125 19.554688 3.519531 19.394531 3.550781 19.171875 3.550781 19.164062 3.652344 18.460938 4.050781 17.601562 4.152344 17.378906 4.058594 17.113281 3.835938 17.011719zM17.964844 14.992188C18.035156 14.992188 18.101562 14.976562 18.167969 14.941406 18.742188 14.648438 19.246094 14.230469 19.671875 13.703125 19.824219 13.511719 19.792969 13.234375 19.601562 13.078125 19.410156 12.925781 19.132812 12.957031 18.976562 13.148438 18.632812 13.578125 18.222656 13.914062 17.761719 14.152344 17.542969 14.261719 17.457031 14.53125 17.570312 14.75 17.648438 14.902344 17.804688 14.992188 17.964844 14.992188zM12.964844 13.96875C12.769531 13.886719 12.652344 13.832031 12.644531 13.828125 12.617188 13.8125 12.585938 13.800781 12.554688 13.792969 12.074219 13.667969 11.597656 13.570312 11.144531 13.5 10.902344 13.464844 10.675781 13.628906 10.636719 13.875 10.601562 14.117188 10.769531 14.34375 11.011719 14.378906 11.421875 14.441406 11.851562 14.53125 12.289062 14.640625 12.347656 14.671875 12.460938 14.722656 12.621094 14.789062 12.679688 14.8125 12.734375 14.824219 12.792969 14.824219 12.964844 14.824219 13.132812 14.722656 13.203125 14.550781 13.296875 14.324219 13.191406 14.0625 12.964844 13.96875zM20.855469 8.859375C20.863281 8.859375 20.875 8.859375 20.882812 8.859375 21.117188 8.859375 21.3125 8.679688 21.328125 8.441406 21.355469 8.015625 21.367188 7.5625 21.367188 7.101562 21.367188 6.945312 21.367188 6.789062 21.363281 6.628906 21.359375 6.382812 21.144531 6.199219 20.910156 6.195312 20.664062 6.199219 20.46875 6.402344 20.476562 6.644531 20.476562 6.800781 20.480469 6.953125 20.480469 7.101562 20.480469 7.542969 20.464844 7.976562 20.441406 8.386719 20.425781 8.632812 20.609375 8.84375 20.855469 8.859375zM3.6875 12.757812C3.773438 12.84375 3.886719 12.890625 4 12.890625 4.113281 12.890625 4.226562 12.84375 4.3125 12.757812L4.890625 12.183594 5.464844 12.757812C5.550781 12.84375 5.664062 12.890625 5.777344 12.890625 5.890625 12.890625 6.003906 12.84375 6.09375 12.757812 6.265625 12.585938 6.265625 12.304688 6.09375 12.128906L5.515625 11.554688 6.09375 10.980469C6.265625 10.808594 6.265625 10.527344 6.09375 10.351562 5.917969 10.179688 5.636719 10.179688 5.464844 10.351562L4.890625 10.925781 4.3125 10.351562C4.140625 10.179688 3.859375 10.179688 3.6875 10.351562 3.511719 10.527344 3.511719 10.808594 3.6875 10.980469L4.261719 11.554688 3.6875 12.128906C3.511719 12.304688 3.511719 12.585938 3.6875 12.757812zM3.6875 12.757812"/>
</svg>
