<svg xmlns="http://www.w3.org/2000/svg" width="32" height="32" viewBox="0 0 24 24">
    <path d="M16.800781 4C15.917969 4 15.199219 4.71875 15.199219 5.601562L15.199219 6.105469 2.78125 10.019531C2.691406 9.335938 2.109375 8.800781 1.398438 8.800781.628906 8.800781 0 9.429688 0 10.199219L0 13.800781C0 14.570312.628906 15.199219 1.398438 15.199219 2.109375 15.199219 2.691406 14.664062 2.78125 13.980469L3.636719 14.25C3.507812 14.386719 3.40625 14.550781 3.347656 14.742188 3.113281 15.453125 3.507812 16.222656 4.222656 16.453125L8.789062 17.933594C8.925781 17.976562 9.066406 18 9.207031 18 9.777344 18 10.3125 17.632812 10.5 17.058594 10.570312 16.847656 10.578125 16.632812 10.542969 16.425781L15.199219 17.894531 15.199219 18.398438C15.199219 19.28125 15.917969 20 16.800781 20 17.683594 20 18.398438 19.28125 18.398438 18.398438L18.398438 5.601562C18.398438 4.71875 17.683594 4 16.800781 4zM9.738281 16.8125C9.644531 17.105469 9.328125 17.269531 9.035156 17.171875L4.46875 15.695312C4.171875 15.597656 4.011719 15.28125 4.105469 14.988281 4.203125 14.695312 4.519531 14.53125 4.8125 14.628906L9.378906 16.105469C9.671875 16.203125 9.835938 16.519531 9.738281 16.8125zM2 13.800781C2 14.128906 1.730469 14.398438 1.398438 14.398438 1.070312 14.398438.800781 14.128906.800781 13.800781L.800781 10.199219C.800781 9.871094 1.070312 9.601562 1.398438 9.601562 1.730469 9.601562 2 9.871094 2 10.199219zM2.800781 13.144531L2.800781 10.855469 15.199219 6.945312 15.199219 17.054688zM17.601562 18.398438C17.601562 18.839844 17.242188 19.199219 16.800781 19.199219 16.359375 19.199219 16 18.839844 16 18.398438L16 5.601562C16 5.160156 16.359375 4.800781 16.800781 4.800781 17.242188 4.800781 17.601562 5.160156 17.601562 5.601562zM22 11.601562L21.601562 11.601562C21.378906 11.601562 21.199219 11.777344 21.199219 12 21.199219 12.222656 21.378906 12.398438 21.601562 12.398438L22 12.398438C22.222656 12.398438 22.398438 12.222656 22.398438 12 22.398438 11.777344 22.222656 11.601562 22 11.601562zM20 12.398438L20.398438 12.398438C20.621094 12.398438 20.800781 12.222656 20.800781 12 20.800781 11.777344 20.621094 11.601562 20.398438 11.601562L20 11.601562C19.777344 11.601562 19.601562 11.777344 19.601562 12 19.601562 12.222656 19.777344 12.398438 20 12.398438zM23.601562 11.601562L23.199219 11.601562C22.980469 11.601562 22.800781 11.777344 22.800781 12 22.800781 12.222656 22.980469 12.398438 23.199219 12.398438L23.601562 12.398438C23.820312 12.398438 24 12.222656 24 12 24 11.777344 23.820312 11.601562 23.601562 11.601562zM21.132812 6.613281C21.234375 6.613281 21.335938 6.574219 21.414062 6.496094L21.695312 6.214844C21.851562 6.058594 21.851562 5.804688 21.695312 5.648438 21.539062 5.492188 21.289062 5.492188 21.132812 5.648438L20.847656 5.929688C20.691406 6.089844 20.691406 6.339844 20.847656 6.496094 20.925781 6.574219 21.027344 6.613281 21.132812 6.613281zM22.261719 5.484375C22.363281 5.484375 22.46875 5.445312 22.546875 5.367188L22.828125 5.082031C22.984375 4.925781 22.984375 4.671875 22.828125 4.515625 22.671875 4.359375 22.417969 4.359375 22.261719 4.515625L21.980469 4.800781C21.824219 4.957031 21.824219 5.210938 21.980469 5.367188 22.058594 5.445312 22.160156 5.484375 22.261719 5.484375zM20 7.746094C20.101562 7.746094 20.203125 7.707031 20.28125 7.628906L20.566406 7.34375C20.722656 7.1875 20.722656 6.9375 20.566406 6.78125 20.410156 6.625 20.15625 6.625 20 6.78125L19.71875 7.0625C19.5625 7.21875 19.5625 7.472656 19.71875 7.628906 19.796875 7.707031 19.898438 7.746094 20 7.746094zM20.253906 9.238281L19.875 9.367188C19.664062 9.4375 19.550781 9.664062 19.621094 9.871094 19.675781 10.039062 19.832031 10.144531 20 10.144531 20.042969 10.144531 20.085938 10.140625 20.125 10.125L20.503906 10C20.714844 9.929688 20.828125 9.703125 20.757812 9.492188 20.6875 9.28125 20.460938 9.167969 20.253906 9.238281zM21.519531 9.640625C21.558594 9.640625 21.601562 9.632812 21.644531 9.621094L22.023438 9.492188C22.234375 9.421875 22.347656 9.195312 22.277344 8.988281 22.207031 8.777344 21.980469 8.664062 21.769531 8.734375L21.390625 8.859375C21.179688 8.929688 21.070312 9.15625 21.136719 9.367188 21.195312 9.535156 21.351562 9.640625 21.519531 9.640625zM22.65625 8.859375C22.710938 9.027344 22.867188 9.132812 23.035156 9.132812 23.078125 9.132812 23.121094 9.125 23.160156 9.113281L23.542969 8.988281C23.75 8.917969 23.863281 8.691406 23.792969 8.480469 23.726562 8.273438 23.496094 8.160156 23.289062 8.226562L22.910156 8.355469C22.699219 8.425781 22.585938 8.652344 22.65625 8.859375zM22.546875 18.632812C22.390625 18.476562 22.136719 18.476562 21.980469 18.632812 21.824219 18.789062 21.824219 19.042969 21.980469 19.199219L22.261719 19.484375C22.339844 19.5625 22.441406 19.601562 22.546875 19.601562 22.648438 19.601562 22.75 19.5625 22.828125 19.484375 22.984375 19.328125 22.984375 19.074219 22.828125 18.917969zM21.414062 17.503906C21.257812 17.347656 21.003906 17.347656 20.847656 17.503906 20.691406 17.660156 20.691406 17.910156 20.847656 18.070312L21.132812 18.351562C21.210938 18.429688 21.3125 18.46875 21.414062 18.46875 21.515625 18.46875 21.617188 18.429688 21.695312 18.351562 21.851562 18.195312 21.851562 17.941406 21.695312 17.785156zM20.28125 16.371094C20.125 16.214844 19.875 16.214844 19.71875 16.371094 19.5625 16.527344 19.5625 16.78125 19.71875 16.9375L20 17.21875C20.078125 17.296875 20.179688 17.335938 20.28125 17.335938 20.386719 17.335938 20.488281 17.296875 20.566406 17.21875 20.722656 17.0625 20.722656 16.8125 20.566406 16.65625zM21.390625 15.140625L21.769531 15.265625C21.8125 15.28125 21.855469 15.285156 21.898438 15.285156 22.066406 15.285156 22.222656 15.179688 22.277344 15.011719 22.347656 14.804688 22.234375 14.578125 22.023438 14.507812L21.644531 14.378906C21.4375 14.308594 21.207031 14.425781 21.136719 14.632812 21.070312 14.84375 21.179688 15.070312 21.390625 15.140625zM20.507812 14L20.125 13.875C19.917969 13.804688 19.691406 13.917969 19.621094 14.128906 19.550781 14.335938 19.664062 14.5625 19.875 14.632812L20.253906 14.761719C20.292969 14.773438 20.335938 14.78125 20.378906 14.78125 20.546875 14.78125 20.703125 14.675781 20.757812 14.507812 20.828125 14.296875 20.714844 14.070312 20.507812 14zM23.542969 15.011719L23.164062 14.886719C22.953125 14.816406 22.726562 14.929688 22.65625 15.140625 22.585938 15.347656 22.699219 15.578125 22.910156 15.644531L23.289062 15.773438C23.332031 15.785156 23.375 15.792969 23.414062 15.792969 23.582031 15.792969 23.738281 15.6875 23.792969 15.519531 23.863281 15.308594 23.75 15.082031 23.542969 15.011719zM23.542969 15.011719"/>
</svg>
