<svg xmlns="http://www.w3.org/2000/svg" width="32" height="32" viewBox="0 0 24 24">
    <path d="M3.2 8.8A3.203 3.203 0 0 0 0 12c0 1.766 1.438 3.2 3.2 3.2A3.2 3.2 0 0 0 6.397 12 3.2 3.2 0 0 0 3.2 8.8zm0 5.598a2.399 2.399 0 0 1 0-4.796A2.402 2.402 0 0 1 5.601 12a2.402 2.402 0 0 1-2.403 2.398zm0 0M20.8 8.8a3.2 3.2 0 0 0-3.198 3.2 3.2 3.2 0 0 0 3.199 3.2C22.563 15.2 24 13.765 24 12c0-1.766-1.438-3.2-3.2-3.2zm0 5.598A2.402 2.402 0 0 1 18.399 12a2.402 2.402 0 0 1 2.403-2.398 2.399 2.399 0 0 1 0 4.796zm0 0M12 8.8A3.2 3.2 0 0 0 8.8 12a3.2 3.2 0 0 0 3.2 3.2 3.2 3.2 0 0 0 3.2-3.2A3.2 3.2 0 0 0 12 8.8zm0 5.598a2.399 2.399 0 1 1 .001-4.797A2.399 2.399 0 0 1 12 14.398zm0 0"/>
</svg>
