<svg xmlns="http://www.w3.org/2000/svg" width="32" height="32" viewBox="0 0 24 24">
    <path d="M7.199219 10.398438C6.316406 10.398438 5.601562 11.117188 5.601562 12 5.601562 12.882812 6.316406 13.601562 7.199219 13.601562 8.082031 13.601562 8.800781 12.882812 8.800781 12 8.800781 11.117188 8.082031 10.398438 7.199219 10.398438zM7.199219 12.800781C6.757812 12.800781 6.398438 12.441406 6.398438 12 6.398438 11.558594 6.757812 11.199219 7.199219 11.199219 7.640625 11.199219 8 11.558594 8 12 8 12.441406 7.640625 12.800781 7.199219 12.800781zM12 10.398438C11.117188 10.398438 10.398438 11.117188 10.398438 12 10.398438 12.882812 11.117188 13.601562 12 13.601562 12.882812 13.601562 13.601562 12.882812 13.601562 12 13.601562 11.117188 12.882812 10.398438 12 10.398438zM12 12.800781C11.558594 12.800781 11.199219 12.441406 11.199219 12 11.199219 11.558594 11.558594 11.199219 12 11.199219 12.441406 11.199219 12.800781 11.558594 12.800781 12 12.800781 12.441406 12.441406 12.800781 12 12.800781zM18.398438 12C18.398438 11.117188 17.683594 10.398438 16.800781 10.398438 15.917969 10.398438 15.199219 11.117188 15.199219 12 15.199219 12.882812 15.917969 13.601562 16.800781 13.601562 17.683594 13.601562 18.398438 12.882812 18.398438 12zM16.800781 12.800781C16.359375 12.800781 16 12.441406 16 12 16 11.558594 16.359375 11.199219 16.800781 11.199219 17.242188 11.199219 17.601562 11.558594 17.601562 12 17.601562 12.441406 17.242188 12.800781 16.800781 12.800781zM16.800781 12.800781"/>
    <path d="M.964844 12L6.28125 6.683594C6.4375 6.527344 6.4375 6.273438 6.28125 6.117188 6.125 5.960938 5.875 5.960938 5.71875 6.117188L.117188 11.71875C-.0390625 11.875-.0390625 12.125.117188 12.28125L5.71875 17.882812C5.796875 17.960938 5.898438 18 6 18 6.101562 18 6.203125 17.960938 6.28125 17.882812 6.4375 17.726562 6.4375 17.472656 6.28125 17.316406zM23.882812 11.71875L18.28125 6.117188C18.125 5.960938 17.875 5.960938 17.71875 6.117188 17.5625 6.273438 17.5625 6.527344 17.71875 6.683594L23.035156 12 17.71875 17.316406C17.5625 17.472656 17.5625 17.726562 17.71875 17.882812 17.796875 17.960938 17.898438 18 18 18 18.101562 18 18.203125 17.960938 18.28125 17.882812L23.882812 12.28125C24.039062 12.125 24.039062 11.875 23.882812 11.71875zM23.882812 11.71875"/>
</svg>
