<svg xmlns="http://www.w3.org/2000/svg" width="32" height="32" viewBox="0 0 24 24">
    <path d="M12.398 6.398H6.801V12h5.597zm-.796 4.801h-4v-4h4zm0 0M20.8 6.398h-6.402a.401.401 0 0 0 0 .801h6.403a.4.4 0 0 0 0-.8zm0 0M20.8 8.8h-6.402a.4.4 0 0 0 0 .802h6.403a.401.401 0 0 0 0-.801zm0 0M20.8 11.2h-6.402a.401.401 0 0 0 0 .8h6.403a.4.4 0 0 0 0-.8zm0 0M20.8 13.602H7.603a.398.398 0 1 0 0 .796H20.8a.398.398 0 1 0 0-.796zm0 0M13.602 16h-6a.401.401 0 1 0 0 .8h6a.401.401 0 0 0 0-.8zm0 0M13.602 18.398h-6a.401.401 0 0 0 0 .8l6 .001a.4.4 0 0 0 0-.8zm0 0M13.602 20.8h-6a.401.401 0 1 0 0 .802h6a.401.401 0 0 0 0-.801zm0 0M15.602 21.602h5.597V16h-5.597zm.796-4.801h4v4h-4zm0 0"/>
    <path d="M23.602 5.2c0-.009-.004-.013-.004-.02V0h-19.2v12h-4v9.602A2.405 2.405 0 0 0 2.801 24h18.398a2.4 2.4 0 0 0 2.399-2.395V5.22c0-.008.004-.012.004-.02zM22.797.8v4H5.199v-4zM1.199 21.603V12.8h3.2v8.8a1.6 1.6 0 0 1-3.2 0zm20 1.597H4.586l.02-.023a2.102 2.102 0 0 0 .253-.348c.063-.11.121-.223.168-.34.008-.015.012-.031.02-.047a3.08 3.08 0 0 0 .11-.382c0-.012 0-.024.003-.036.024-.136.04-.277.04-.421v-16h17.597v16.003c0 .88-.719 1.594-1.598 1.594zm0 0"/>
    <path d="M18.8 1.602H9.2V4h9.6zM18 3.199h-8v-.8h8zm0 0"/>
</svg>
