<svg xmlns="http://www.w3.org/2000/svg" width="32" height="32" viewBox="0 0 24 24">
    <path d="M19.016 0H3.379v21.648h1.605V24l1.602-1.07L8.19 24v-2.352h10.825c.886 0 1.605-.718 1.605-1.601V1.602C20.621.719 19.902 0 19.016 0zM4.184.8h11.222v6.016H4.184zm11.222 13.235H4.184V7.621h11.222zm-8.015 8.469l-.805-.535-.8.535v-.856H7.39zm.8-1.66H4.184v-6.008h11.222v6.008zm8.02 0V.8h1.203v20.043zM18.215 7.62h1.601v6.414h-1.601zm1.601 12.426c0 .441-.359.797-.8.797h-.801v-6.008h1.601zm-1.601-13.23V.8h.8c.442 0 .801.36.801.8v5.215zm0 0"/>
</svg>
