<svg xmlns="http://www.w3.org/2000/svg" width="32" height="32" viewBox="0 0 24 24">
    <path d="M22.605 4.137H1.395C.625 4.137 0 4.762 0 5.53v14.59c0 .77.625 1.395 1.395 1.395h21.21c.77 0 1.395-.625 1.395-1.395V5.531c0-.77-.625-1.394-1.395-1.394zm.567 15.984c0 .317-.254.57-.567.57H1.395a.568.568 0 0 1-.567-.57V5.531c0-.312.254-.566.567-.566h21.21c.313 0 .567.254.567.566zm0 0"/>
    <path d="M12.414 5.793a7.043 7.043 0 0 0-7.035 7.035 7.043 7.043 0 0 0 7.035 7.035 7.043 7.043 0 0 0 7.035-7.035 7.043 7.043 0 0 0-7.035-7.035zm0 13.242a6.215 6.215 0 0 1-6.207-6.207 6.215 6.215 0 0 1 6.207-6.207 6.215 6.215 0 0 1 6.207 6.207 6.215 6.215 0 0 1-6.207 6.207zm0 0M8.277 3.309h7.86a.412.412 0 1 0 0-.824h-7.86a.412.412 0 1 0 0 .824zm0 0"/>
</svg>
