<svg xmlns="http://www.w3.org/2000/svg" width="32" height="32" viewBox="0 0 24 24">
    <path d="M2.105 22.316h19.79V8H2.105zm18.946-.843H3.64l6.03-5.309 4.34 4.336a.42.42 0 1 0 .594-.594l-2.023-2.023 3.867-4.235 4.602 4.223zM2.949 8.843h18.102v7.884l-4.344-3.985a.423.423 0 0 0-.598.027l-4.12 4.516-2-1.996a.422.422 0 0 0-.575-.02L2.95 20.966zm0 0"/>
    <path d="M6.316 10.105a2.346 2.346 0 0 0-2.343 2.344 2.346 2.346 0 0 0 2.343 2.344 2.346 2.346 0 0 0 2.344-2.344 2.346 2.346 0 0 0-2.344-2.344zm0 3.848a1.507 1.507 0 0 1-1.503-1.504 1.504 1.504 0 0 1 3.007 0c0 .828-.675 1.504-1.504 1.504zm0 0"/>
    <path d="M20.793 6.316c-.754-.668-4.766-4.195-7.055-5.648a2.085 2.085 0 0 0-3.058 0c-2.285 1.453-6.297 4.98-7.051 5.648H.422V24h23.156V6.316zM10.977 1.84c.003-.02.011-.035.015-.055a1.31 1.31 0 0 1 .278-.512c.003-.003.003-.007.003-.007a1.25 1.25 0 0 1 1.875.008c.106.113.22.288.282.515.004.016.011.031.015.05a1.264 1.264 0 0 1-1.234 1.527 1.264 1.264 0 0 1-1.234-1.526zm-.872.246v.02c0 1.16.946 2.105 2.106 2.105s2.105-.945 2.105-2.106v-.02c1.754 1.274 4 3.192 5.2 4.231H4.906c1.2-1.039 3.446-2.957 5.2-4.23zm12.633 21.07H1.262v-16h21.476zm0 0"/>
</svg>
