<svg xmlns="http://www.w3.org/2000/svg" width="32" height="32" viewBox="0 0 24 24">
    <path d="M 18.226562 11.667969 L 9.425781 5.667969 C 9.300781 5.585938 9.144531 5.578125 9.011719 5.644531 C 8.882812 5.714844 8.800781 5.851562 8.800781 6 L 8.800781 18 C 8.800781 18.148438 8.882812 18.285156 9.011719 18.355469 C 9.070312 18.386719 9.136719 18.398438 9.199219 18.398438 C 9.277344 18.398438 9.359375 18.375 9.425781 18.332031 L 18.226562 12.332031 C 18.335938 12.257812 18.398438 12.132812 18.398438 12 C 18.398438 11.867188 18.335938 11.742188 18.226562 11.667969 Z M 9.601562 17.242188 L 9.601562 6.757812 L 17.289062 12 Z M 9.601562 17.242188"/>
    <path d="M 12 0 C 5.382812 0 0 5.382812 0 12 C 0 18.617188 5.382812 24 12 24 C 18.617188 24 24 18.617188 24 12 C 24 5.382812 18.617188 0 12 0 Z M 12 23.199219 C 5.824219 23.199219 0.800781 18.175781 0.800781 12 C 0.800781 5.824219 5.824219 0.800781 12 0.800781 C 18.175781 0.800781 23.199219 5.824219 23.199219 12 C 23.199219 18.175781 18.175781 23.199219 12 23.199219 Z M 12 23.199219"/>
</svg>
