<svg xmlns="http://www.w3.org/2000/svg" width="32" height="32" viewBox="0 0 24 24">
    <path d="M 22.398438 1.800781 L 13.199219 1.800781 C 12.71875 1.800781 12.292969 2.015625 12 2.351562 C 11.707031 2.015625 11.28125 1.800781 10.800781 1.800781 L 1.601562 1.800781 C 0.71875 1.800781 0 2.519531 0 3.398438 L 0 19 C 0 19.882812 0.71875 20.601562 1.601562 20.601562 L 10.398438 20.601562 C 10.863281 20.601562 11.601562 21.148438 11.601562 21.800781 C 11.601562 22.019531 11.777344 22.199219 12 22.199219 C 12.222656 22.199219 12.398438 22.019531 12.398438 21.800781 C 12.398438 21.148438 13.136719 20.601562 13.601562 20.601562 L 22.398438 20.601562 C 23.28125 20.601562 24 19.882812 24 19 L 24 3.398438 C 24 2.519531 23.28125 1.800781 22.398438 1.800781 Z M 11.601562 20.261719 C 11.238281 19.972656 10.800781 19.800781 10.398438 19.800781 L 1.601562 19.800781 C 1.160156 19.800781 0.800781 19.441406 0.800781 19 L 0.800781 3.398438 C 0.800781 2.957031 1.160156 2.601562 1.601562 2.601562 L 10.800781 2.601562 C 11.242188 2.601562 11.601562 2.957031 11.601562 3.398438 Z M 23.199219 19 C 23.199219 19.441406 22.839844 19.800781 22.398438 19.800781 L 13.601562 19.800781 C 13.199219 19.800781 12.761719 19.972656 12.398438 20.261719 L 12.398438 3.398438 C 12.398438 2.957031 12.757812 2.601562 13.199219 2.601562 L 22.398438 2.601562 C 22.839844 2.601562 23.199219 2.957031 23.199219 3.398438 Z M 23.199219 19"/>
</svg>
