<svg xmlns="http://www.w3.org/2000/svg" width="32" height="32" viewBox="0 0 24 24">
    <path d="M15.566 0H2.602v24h18.796V5.836zm.235 1.367l4.234 4.235h-4.234zM3.398 23.2V.801H15v5.597h5.602V23.2zm0 0"/>
    <path d="M13.8 14.8a.401.401 0 0 0 0-.8H7a.398.398 0 0 0-.398.398c0 .223.175.403.398.403zm0 0M17.8 12H15a.398.398 0 0 0-.398.398c0 .223.175.403.398.403h2.8a.401.401 0 0 0 0-.801zm0 0M8.602 12.398c0 .223.175.403.398.403h4c.223 0 .398-.18.398-.403A.398.398 0 0 0 13 12H9a.398.398 0 0 0-.398.398zm0 0M6.715 12.117a.406.406 0 0 0 0 .563.405.405 0 0 0 .285.12c.11 0 .207-.042.285-.116a.423.423 0 0 0 .113-.286.42.42 0 0 0-.113-.28.425.425 0 0 0-.57 0zm0 0M15.516 14.117a.402.402 0 0 0 .57.566.398.398 0 0 0 .113-.285.42.42 0 0 0-.113-.28.42.42 0 0 0-.57 0zm0 0M17.516 14.117a.402.402 0 0 0 .285.684.41.41 0 0 0 .285-.121.396.396 0 0 0 .113-.282.42.42 0 0 0-.113-.28.42.42 0 0 0-.57 0zm0 0M9.21 16.066c-.874.457-1.17 1.329-1.28 2.235-.164-.14-.328-.278-.496-.418-.391-.328-.961.234-.563.566.371.313.746.625 1.121.942.262.218.668.082.684-.286.027-.863.07-1.894.937-2.347.457-.238.055-.93-.402-.692zm0 0M14.582 17.645c-.582-.04-1.437.859-1.887.058a.404.404 0 0 0-.547-.14c-.566.347-1.308.847-1.902.199-.348-.38-.914.187-.566.566.75.813 1.71.563 2.558.102.192.215.43.37.739.433.316.067 1.609-.457 1.68-.36.3.411.991.013.687-.401-.203-.286-.395-.434-.762-.457zm0 0M11.465 9.586l.27-.191-.137-.301a1.263 1.263 0 0 0-.578-.614l-.848-.433c.387-.25.668-.625.836-1.121a.92.92 0 0 0 .445-.793v-.266a.927.927 0 0 0-.316-.699c-.145-.758-.657-1.578-2.215-1.578-.063 0-.121 0-.18.004-.21.02-.515 0-.777-.172a.927.927 0 0 1-.211-.184.45.45 0 0 0-.531-.14.444.444 0 0 0-.278.468c.012.106.028.223.055.356.035.168.035.215.035.23a1.462 1.462 0 0 1-.047.102c-.027.059-.062.133-.101.234-.086.211-.149.442-.188.688a.933.933 0 0 0-.312.691v.266a.92.92 0 0 0 .445.793c.168.496.445.87.836 1.117l-.883.437a1.252 1.252 0 0 0-.555.614l-.125.297.262.187c.75.54 1.633.82 2.555.82.914 0 1.797-.28 2.543-.812zm-4.258-.422l.977-.484a.597.597 0 0 0 .336-.54v-.57l-.239-.105c-.367-.156-.605-.461-.73-.926l-.055-.215-.21-.066a.132.132 0 0 1-.098-.125v-.266c0-.058.039-.097.074-.117l.187-.098.024-.21a2.25 2.25 0 0 1 .156-.653c.031-.082.062-.144.086-.195.062-.133.101-.235.113-.344.293.121.625.172.977.145.039-.004.078-.008.117-.008 1.168 0 1.387.535 1.45 1.058l.023.207.187.098c.035.02.074.059.074.117v.266c0 .066-.05.113-.097.125l-.211.066-.059.215c-.125.465-.363.77-.726.926l-.243.105v.57c0 .231.13.434.332.54l.965.492a3.623 3.623 0 0 1-3.41-.008zm0 0"/>
</svg>
