<svg xmlns="http://www.w3.org/2000/svg" width="32" height="32" viewBox="0 0 24 24">
    <path d="M19.55 0H.247v24h23.508V4.207zm-2.163.98v6.856H5.633V.98zM4.652 23.02v-9.305h14.203v9.305zm18.125 0h-2.941V12.734H3.672V23.02h-2.45V.98h3.43v7.836h13.715V.98h.778l3.632 3.63zm0 0"/>
    <path d="M6.613 16.164h3.426a.49.49 0 1 0 0-.98H6.613a.49.49 0 1 0 0 .98zm0 0M11.512 17.145H6.613a.49.49 0 1 0 0 .976h4.899a.488.488 0 0 0 0-.976zm0 0M12.633 17.285a.508.508 0 0 0-.145.348.49.49 0 0 0 .492.488c.125 0 .254-.05.348-.14a.522.522 0 0 0 .14-.348.522.522 0 0 0-.14-.348.516.516 0 0 0-.695 0zm0 0M16.406 1.96H13.47v4.895h2.937zM15.43 5.88h-.98V2.938h.98zm0 0"/>
</svg>
