<svg xmlns="http://www.w3.org/2000/svg" width="32" height="32" viewBox="0 0 24 24">
    <path d="M 23.601562 6.398438 L 22.78125 6.398438 C 22.691406 5.15625 22.199219 4.027344 21.425781 3.136719 L 21.882812 2.683594 C 22.039062 2.527344 22.039062 2.273438 21.882812 2.117188 C 21.726562 1.960938 21.472656 1.960938 21.316406 2.117188 L 20.863281 2.574219 C 19.972656 1.800781 18.84375 1.308594 17.601562 1.21875 L 17.601562 0.398438 C 17.601562 0.179688 17.421875 0 17.199219 0 C 16.980469 0 16.800781 0.179688 16.800781 0.398438 L 16.800781 1.21875 C 15.558594 1.308594 14.425781 1.800781 13.539062 2.574219 L 13.082031 2.117188 C 12.925781 1.960938 12.675781 1.960938 12.519531 2.117188 C 12.359375 2.273438 12.359375 2.527344 12.519531 2.683594 L 12.972656 3.136719 C 12.203125 4.027344 11.710938 5.15625 11.621094 6.398438 L 10.800781 6.398438 C 10.578125 6.398438 10.398438 6.578125 10.398438 6.800781 C 10.398438 7.019531 10.578125 7.199219 10.800781 7.199219 L 11.621094 7.199219 C 11.707031 8.441406 12.203125 9.574219 12.972656 10.460938 L 12.515625 10.917969 C 12.472656 10.960938 12.445312 11.015625 12.425781 11.070312 C 11.960938 10.652344 11.445312 10.289062 10.882812 10 L 11.164062 9.363281 C 11.253906 9.160156 11.164062 8.925781 10.960938 8.835938 C 10.761719 8.746094 10.523438 8.835938 10.433594 9.039062 L 10.152344 9.675781 C 9.355469 9.375 8.5 9.199219 7.601562 9.199219 C 6.820312 9.199219 6.070312 9.328125 5.367188 9.558594 L 5.171875 9.054688 C 5.09375 8.847656 4.859375 8.746094 4.65625 8.828125 C 4.449219 8.90625 4.347656 9.140625 4.425781 9.34375 L 4.625 9.851562 C 3.148438 10.527344 1.941406 11.679688 1.199219 13.117188 L 0.5625 12.835938 C 0.359375 12.746094 0.125 12.835938 0.0351562 13.039062 C -0.0546875 13.238281 0.0351562 13.476562 0.238281 13.566406 L 0.875 13.847656 C 0.574219 14.644531 0.398438 15.5 0.398438 16.398438 C 0.398438 17.179688 0.527344 17.929688 0.757812 18.632812 L 0.253906 18.828125 C 0.0507812 18.90625 -0.0546875 19.140625 0.0273438 19.34375 C 0.0898438 19.503906 0.238281 19.601562 0.402344 19.601562 C 0.449219 19.601562 0.496094 19.589844 0.546875 19.574219 L 1.050781 19.375 C 1.726562 20.851562 2.878906 22.058594 4.316406 22.800781 L 4.035156 23.4375 C 3.945312 23.640625 4.035156 23.875 4.238281 23.964844 C 4.289062 23.988281 4.34375 24 4.398438 24 C 4.554688 24 4.699219 23.910156 4.765625 23.761719 L 5.050781 23.125 C 5.84375 23.425781 6.703125 23.601562 7.601562 23.601562 C 8.378906 23.601562 9.128906 23.472656 9.832031 23.242188 L 10.027344 23.746094 C 10.089844 23.902344 10.238281 24 10.398438 24 C 10.449219 24 10.496094 23.992188 10.542969 23.972656 C 10.75 23.894531 10.851562 23.660156 10.773438 23.457031 L 10.574219 22.949219 C 12.050781 22.273438 13.261719 21.121094 14 19.683594 L 14.636719 19.964844 C 14.691406 19.988281 14.746094 20 14.800781 20 C 14.953125 20 15.097656 19.910156 15.164062 19.761719 C 15.253906 19.558594 15.164062 19.324219 14.960938 19.234375 L 14.324219 18.953125 C 14.628906 18.15625 14.800781 17.300781 14.800781 16.398438 C 14.800781 15.621094 14.671875 14.871094 14.441406 14.167969 L 14.945312 13.972656 C 15.152344 13.894531 15.253906 13.660156 15.171875 13.457031 C 15.09375 13.25 14.863281 13.144531 14.65625 13.226562 L 14.148438 13.425781 C 13.839844 12.742188 13.425781 12.121094 12.929688 11.574219 C 12.984375 11.554688 13.039062 11.527344 13.082031 11.484375 L 13.539062 11.027344 C 14.425781 11.796875 15.558594 12.292969 16.800781 12.378906 L 16.800781 13.199219 C 16.800781 13.421875 16.980469 13.601562 17.199219 13.601562 C 17.421875 13.601562 17.601562 13.421875 17.601562 13.199219 L 17.601562 12.378906 C 18.84375 12.292969 19.972656 11.796875 20.863281 11.027344 L 21.339844 11.507812 C 21.417969 11.585938 21.519531 11.625 21.625 11.625 C 21.726562 11.625 21.828125 11.585938 21.90625 11.507812 C 22.0625 11.351562 22.0625 11.097656 21.90625 10.941406 L 21.425781 10.460938 C 22.199219 9.574219 22.691406 8.441406 22.78125 7.199219 L 23.601562 7.199219 C 23.820312 7.199219 24 7.019531 24 6.800781 C 24 6.578125 23.820312 6.398438 23.601562 6.398438 Z M 7.601562 10 C 8.382812 10 9.132812 10.148438 9.824219 10.40625 L 7.863281 14.828125 C 7.777344 14.8125 7.691406 14.800781 7.601562 14.800781 C 6.71875 14.800781 6 15.519531 6 16.398438 C 6 16.464844 6.011719 16.523438 6.019531 16.585938 L 1.503906 18.34375 C 1.308594 17.730469 1.199219 17.078125 1.199219 16.398438 C 1.199219 12.871094 4.070312 10 7.601562 10 Z M 6.859375 16.691406 C 6.855469 16.691406 6.859375 16.691406 6.855469 16.6875 C 6.820312 16.597656 6.800781 16.5 6.800781 16.398438 C 6.800781 15.957031 7.160156 15.601562 7.601562 15.601562 C 7.710938 15.601562 7.816406 15.625 7.914062 15.664062 C 7.917969 15.667969 7.921875 15.671875 7.925781 15.671875 C 7.925781 15.671875 7.925781 15.671875 7.929688 15.671875 C 8.207031 15.796875 8.398438 16.078125 8.398438 16.398438 C 8.398438 16.839844 8.042969 17.199219 7.601562 17.199219 C 7.261719 17.199219 6.976562 16.988281 6.859375 16.691406 Z M 1.796875 19.085938 L 6.304688 17.332031 C 6.597656 17.734375 7.066406 18 7.601562 18 C 7.664062 18 7.722656 17.988281 7.785156 17.980469 L 9.542969 22.496094 C 8.929688 22.691406 8.277344 22.800781 7.601562 22.800781 C 5.03125 22.800781 2.816406 21.273438 1.796875 19.085938 Z M 10.285156 22.203125 L 8.53125 17.695312 C 8.933594 17.402344 9.199219 16.933594 9.199219 16.398438 C 9.199219 15.894531 8.960938 15.449219 8.589844 15.152344 L 10.558594 10.730469 C 12.601562 11.800781 14 13.9375 14 16.398438 C 14 18.96875 12.476562 21.183594 10.285156 22.203125 Z M 17.199219 11.601562 C 14.554688 11.601562 12.398438 9.445312 12.398438 6.800781 C 12.398438 4.152344 14.554688 2 17.199219 2 C 19.847656 2 22 4.152344 22 6.800781 C 22 9.445312 19.847656 11.601562 17.199219 11.601562 Z M 17.199219 11.601562"/>
    <path d="M 17.199219 5.199219 C 16.316406 5.199219 15.601562 5.917969 15.601562 6.800781 C 15.601562 7.683594 16.316406 8.398438 17.199219 8.398438 C 18.082031 8.398438 18.800781 7.683594 18.800781 6.800781 C 18.800781 5.917969 18.082031 5.199219 17.199219 5.199219 Z M 17.199219 7.601562 C 16.757812 7.601562 16.398438 7.242188 16.398438 6.800781 C 16.398438 6.359375 16.757812 6 17.199219 6 C 17.640625 6 18 6.359375 18 6.800781 C 18 7.242188 17.640625 7.601562 17.199219 7.601562 Z M 17.199219 7.601562"/>
</svg>
