<svg xmlns="http://www.w3.org/2000/svg" width="32" height="32" viewBox="0 0 24 24">
    <path d="M15.023 11.668l-8.796-6a.414.414 0 0 0-.415-.023.406.406 0 0 0-.21.355v12c0 .148.082.285.21.355a.4.4 0 0 0 .188.043.436.436 0 0 0 .227-.066l8.796-6a.402.402 0 0 0 0-.664zm-8.625 5.574V6.758L14.09 12zm0 0"/>
    <path d="M12 0C5.383 0 0 5.383 0 12s5.383 12 12 12 12-5.383 12-12S18.617 0 12 0zm0 23.2C5.824 23.2.8 18.175.8 12 .8 5.824 5.825.8 12 .8 18.176.8 23.2 5.825 23.2 12c0 6.176-5.024 11.2-11.2 11.2zm0 0"/>
    <path d="M16 18.398h2.8V5.602H16zm.8-12H18v11.204h-1.2zm0 0"/>
</svg>
