<svg xmlns="http://www.w3.org/2000/svg" width="32" height="32" viewBox="0 0 24 24">
    <path d="M18.992.21a1.573 1.573 0 0 0-1.613.024.257.257 0 0 0-.067.047l-7.07 5.98H4.695a.52.52 0 0 0-.52.52v9.914a.524.524 0 0 0 .52.523l5.535-.003 7.067 6.488c.027.024.055.047.082.063a1.58 1.58 0 0 0 1.613.023c.524-.293.832-.832.832-1.437V1.648c0-.605-.308-1.144-.832-1.437zm-.21 22.142a.604.604 0 0 1-.302.53.554.554 0 0 1-.523.013l-7-6.43v-2.38a.52.52 0 0 0-.523-.519c-.29 0-.52.23-.52.52v2.086H5.22V7.305h4.695V9.39c0 .289.23.523.52.523.289 0 .523-.234.523-.523V7.023l6.992-5.914a.539.539 0 0 1 .531.008c.188.11.301.305.301.531zm0 0"/>
</svg>
