<svg xmlns="http://www.w3.org/2000/svg" width="32" height="32" viewBox="0 0 24 24">
    <path d="M15.594.21a1.566 1.566 0 0 0-1.68.071l-7.07 5.98H1.297a.522.522 0 0 0-.52.52v9.914a.524.524 0 0 0 .52.523l5.535-.003 7.066 6.488c.028.024.055.047.086.063a1.57 1.57 0 0 0 1.61.023c.523-.293.832-.832.832-1.437V1.648c0-.605-.309-1.144-.832-1.437zm-.211 22.142a.604.604 0 0 1-.301.53.554.554 0 0 1-.523.013l-7-6.43v-2.38a.52.52 0 0 0-.52-.519.52.52 0 0 0-.523.52v2.086H1.82V7.305h4.696V9.39c0 .289.234.523.523.523.285 0 .52-.234.52-.523V7.023L14.55 1.11a.539.539 0 0 1 .531.008c.188.11.3.305.3.531zm0 0M18.137 4.977a.522.522 0 1 0-.29 1.004 6.025 6.025 0 0 1 4.333 5.757 6.026 6.026 0 0 1-4.332 5.762.517.517 0 0 0-.356.645.525.525 0 0 0 .5.378.466.466 0 0 0 .145-.023 7.068 7.068 0 0 0 5.086-6.762 7.075 7.075 0 0 0-5.086-6.761zm0 0"/>
</svg>
