<svg xmlns="http://www.w3.org/2000/svg" width="32" height="32" viewBox="0 0 24 24">
    <path d="M15.926 10.516l7.539-6.614a.403.403 0 0 0 .113-.175l.05-.149c.24-.3.372-.629.372-.976 0-.043-.008-.082-.012-.122a.406.406 0 0 0-.05-.27C23.57.927 21.401 0 18.602 0c-2.782 0-4.938.91-5.332 2.18 0 .004-.008.004-.008.007L12 4.212l-1.262-2.024c0-.003-.008-.003-.008-.007C10.336.91 8.18 0 5.398 0 2.32 0 0 1.117 0 2.602c0 .347.133.675.371.976l.05.149c.02.066.063.128.114.175l7.54 6.614L.058 23.39a.402.402 0 0 0 .082.515.403.403 0 0 0 .523-.004L12 13.957l11.336 9.945a.403.403 0 0 0 .523.004.402.402 0 0 0 .082-.515zM18.602.8c2.59 0 4.425.863 4.582 1.683.003.012.003.028.003.032.004.027.012.058.012.086 0 .16-.07.324-.199.488-.008.008-.02.015-.027.023-.274.32-.805.64-1.543.883h-.004c-.086.027-.176.055-.27.082a.895.895 0 0 1-.11.027c-.066.02-.136.04-.206.055a8.5 8.5 0 0 1-.363.074l-.075.012c-.109.02-.218.04-.332.055l-.105.011c-.106.016-.211.028-.32.04-.043.003-.082.007-.122.007-.113.012-.222.02-.34.024-.038.004-.078.004-.117.008-.152.004-.308.007-.464.007C15.89 4.398 14 3.453 14 2.602 14 1.75 15.89.8 18.602.8zM5.398.8C8.11.8 10 1.75 10 2.6c0 .852-1.89 1.797-4.602 1.797-.156 0-.312-.003-.464-.007-.04-.004-.079-.004-.122-.008a4.852 4.852 0 0 1-.335-.024 1.26 1.26 0 0 1-.122-.007 7.977 7.977 0 0 1-.32-.04l-.105-.011c-.114-.016-.223-.035-.332-.055l-.075-.012a8.5 8.5 0 0 1-.363-.074 4.187 4.187 0 0 1-.21-.055c-.036-.007-.071-.015-.106-.027-.094-.027-.184-.05-.27-.082H2.57c-.738-.242-1.27-.562-1.543-.883-.007-.008-.02-.015-.027-.023-.129-.164-.2-.328-.2-.488C.8 1.75 2.688.8 5.399.8zm-2.48 4.125c.539.129 1.133.215 1.766.25.027.004.05.004.078.008.207.007.422.015.636.015.18 0 .352-.004.524-.011.055 0 .105-.004.16-.008l.348-.024c.058-.008.117-.011.175-.02.114-.007.223-.023.329-.038.054-.004.105-.012.16-.02.129-.02.261-.043.386-.066L7.55 5c.15-.031.294-.063.434-.098.043-.011.082-.023.125-.035.098-.023.196-.05.29-.082a1.93 1.93 0 0 1 .14-.043c.086-.031.172-.062.254-.094l.129-.046c.09-.04.18-.079.265-.118l.083-.035c.109-.054.21-.11.312-.168.027-.015.05-.031.074-.047.074-.043.14-.09.207-.136a1.38 1.38 0 0 0 .094-.067c.055-.043.11-.086.16-.129.028-.027.055-.05.082-.074.051-.05.098-.098.145-.148.02-.024.039-.043.054-.063.059-.07.11-.14.157-.21l.972 1.562-1.355 2.18-1.668 2.675zm6.016 5.722L12.34 5.18l1.105-1.774a2.44 2.44 0 0 0 .211.274c.047.05.094.101.145.148.027.027.054.05.086.074.05.043.101.086.156.13l.094.07c.066.043.133.09.203.132.027.016.05.032.078.047.102.059.203.114.312.168l.086.035c.086.043.172.079.262.118.043.015.086.03.133.05.082.028.164.059.25.086l.14.047c.094.031.192.059.29.082.043.012.082.024.125.035.14.035.285.067.433.098l.074.012c.125.023.254.047.383.066.055.008.106.016.16.02.106.015.215.027.329.039.058.008.117.011.175.02l.348.023c.055 0 .105.008.16.008a11.444 11.444 0 0 0 1.16-.004c.028-.004.051-.004.078-.008a10.011 10.011 0 0 0 1.766-.25l-5.941 5.21-3.407 2.989-9.566 8.39zm3.671 2.778l2.707-2.375 6.52 10.465zm0 0"/>
</svg>
