<svg xmlns="http://www.w3.org/2000/svg" width="32" height="32" viewBox="0 0 24 24">
    <path d="M 23.480469 10.925781 C 23.953125 10.464844 24.117188 9.789062 23.914062 9.160156 C 23.710938 8.53125 23.179688 8.082031 22.523438 7.988281 L 16.714844 7.144531 C 16.464844 7.109375 16.253906 6.953125 16.140625 6.726562 L 13.542969 1.460938 C 13.25 0.871094 12.660156 0.503906 12 0.503906 C 11.339844 0.503906 10.75 0.871094 10.457031 1.460938 L 7.859375 6.726562 C 7.746094 6.953125 7.535156 7.109375 7.285156 7.144531 L 1.476562 7.988281 C 0.820312 8.082031 0.289062 8.53125 0.0859375 9.160156 C -0.117188 9.789062 0.046875 10.464844 0.519531 10.925781 L 4.726562 15.023438 C 4.90625 15.199219 4.988281 15.449219 4.945312 15.695312 L 3.953125 21.484375 C 3.839844 22.132812 4.101562 22.777344 4.636719 23.164062 C 5.171875 23.554688 5.863281 23.605469 6.449219 23.296875 L 11.644531 20.5625 C 11.867188 20.449219 12.132812 20.449219 12.355469 20.5625 L 17.550781 23.296875 C 17.804688 23.429688 18.078125 23.496094 18.351562 23.496094 C 18.707031 23.496094 19.0625 23.386719 19.363281 23.164062 C 19.898438 22.777344 20.160156 22.132812 20.046875 21.484375 L 19.054688 15.695312 C 19.011719 15.449219 19.09375 15.199219 19.273438 15.023438 Z M 18.109375 15.859375 L 19.101562 21.644531 C 19.152344 21.9375 19.039062 22.214844 18.796875 22.386719 C 18.558594 22.5625 18.261719 22.582031 18 22.445312 L 12.800781 19.714844 C 12.550781 19.582031 12.273438 19.515625 12 19.515625 C 11.726562 19.515625 11.449219 19.582031 11.199219 19.714844 L 6.003906 22.445312 C 5.738281 22.582031 5.441406 22.5625 5.203125 22.386719 C 4.960938 22.214844 4.851562 21.9375 4.898438 21.644531 L 5.890625 15.859375 C 5.988281 15.300781 5.800781 14.730469 5.398438 14.335938 L 1.191406 10.234375 C 0.980469 10.027344 0.90625 9.738281 1 9.457031 C 1.089844 9.175781 1.320312 8.980469 1.613281 8.9375 L 7.421875 8.09375 C 7.984375 8.011719 8.46875 7.660156 8.71875 7.152344 L 11.316406 1.886719 C 11.449219 1.621094 11.703125 1.464844 12 1.464844 C 12.296875 1.464844 12.550781 1.621094 12.679688 1.886719 L 15.28125 7.152344 C 15.53125 7.660156 16.015625 8.011719 16.574219 8.09375 L 22.386719 8.9375 C 22.679688 8.980469 22.910156 9.175781 23 9.457031 C 23.089844 9.738281 23.019531 10.027344 22.808594 10.234375 L 18.601562 14.335938 C 18.199219 14.730469 18.011719 15.300781 18.109375 15.859375 Z M 18.109375 15.859375"/>
</svg>
