<svg xmlns="http://www.w3.org/2000/svg" width="32" height="32" viewBox="0 0 24 24">
    <path d="M12 0a.398.398 0 0 0-.398.398v5.32a.398.398 0 1 0 .796 0V.809C18.391 1.02 23.2 5.958 23.2 12c0 6.176-5.023 11.2-11.199 11.2S.8 18.175.8 12c0-2.984 1.16-5.793 3.266-7.906a.4.4 0 0 0 0-.567.404.404 0 0 0-.566.004A11.914 11.914 0 0 0 0 12c0 6.617 5.383 12 12 12s12-5.383 12-12S18.617 0 12 0zm0 0"/>
    <path d="M11.422 13.414c.246.336.625.55 1.043.582.035.004.074.004.11.004.378 0 .738-.148 1.007-.418a1.418 1.418 0 0 0-.172-2.16L8.234 7.676a.398.398 0 0 0-.515.043.398.398 0 0 0-.043.515zm1.52-1.344a.625.625 0 0 1 .257.457.635.635 0 0 1-.672.672.633.633 0 0 1-.457-.254l-2.285-3.16zm0 0"/>
</svg>
