<svg xmlns="http://www.w3.org/2000/svg" width="32" height="32" viewBox="0 0 24 24">
    <path d="M23.59 15.105v-.003a11.931 11.931 0 0 0 0-6.204v-.003-.004a12.001 12.001 0 0 0-1.188-2.864c-.004-.007-.004-.02-.011-.027-.004-.008-.012-.012-.016-.023-.52-.891-1.148-1.711-1.871-2.438-.008-.008-.012-.016-.02-.023-.007-.008-.015-.012-.023-.02a12.217 12.217 0 0 0-2.438-1.871c-.011-.004-.015-.012-.023-.016-.008-.007-.02-.007-.027-.011A12.001 12.001 0 0 0 15.109.41h-.004-.003a11.931 11.931 0 0 0-6.204 0h-.007a12.001 12.001 0 0 0-2.864 1.188c-.007.004-.02.004-.027.011-.008.004-.012.012-.023.016-.891.52-1.707 1.148-2.438 1.871-.008.008-.016.012-.023.02-.008.007-.012.015-.02.023a12.217 12.217 0 0 0-1.871 2.438c-.004.011-.012.015-.016.023-.007.008-.007.02-.011.027A12.001 12.001 0 0 0 .41 8.895v.003a11.931 11.931 0 0 0 0 6.204v.007a12.001 12.001 0 0 0 1.188 2.864c.004.007.004.02.011.027.004.012.016.023.024.031a12.14 12.14 0 0 0 1.863 2.426c.008.012.012.02.02.027.007.008.015.012.027.02a12.064 12.064 0 0 0 2.434 1.867c.007.008.015.016.023.02.016.007.027.011.043.02.887.507 1.84.905 2.848 1.179h.011a11.924 11.924 0 0 0 6.2 0h.007a12.096 12.096 0 0 0 2.848-1.18c.016-.008.031-.008.043-.02.008-.003.016-.011.023-.019.891-.52 1.711-1.144 2.438-1.867.008-.008.016-.012.023-.02.008-.007.012-.015.02-.023a12.252 12.252 0 0 0 1.863-2.426c.008-.012.02-.023.024-.035.007-.008.007-.02.011-.027.512-.887.914-1.848 1.188-2.864v-.004zm-1.649-.027l.766.203c-.21.688-.484 1.344-.816 1.965l-.684-.394a.402.402 0 0 0-.547.148.402.402 0 0 0 .149.547l.68.394a11.292 11.292 0 0 1-1.298 1.684l-.554-.555a.4.4 0 0 0-.567.567l.555.554c-.516.485-1.082.918-1.684 1.297l-.394-.683A.397.397 0 0 0 17 20.66a.397.397 0 0 0-.145.547l.395.684a11.26 11.26 0 0 1-1.965.816l-.207-.766a.395.395 0 0 0-.488-.28.399.399 0 0 0-.285.487l.207.762c-.684.16-1.387.254-2.11.277v-1.585a.402.402 0 0 0-.402-.403.398.398 0 0 0-.398.403v1.59a11.334 11.334 0 0 1-2.11-.278l.203-.766a.4.4 0 0 0-.773-.207l-.203.766a11.016 11.016 0 0 1-1.965-.816l.394-.684A.402.402 0 0 0 7 20.66a.403.403 0 0 0-.547.149l-.39.68a11.128 11.128 0 0 1-1.688-1.298l.555-.554a.4.4 0 0 0-.567-.567l-.554.555a11.095 11.095 0 0 1-1.297-1.684l.68-.394a.398.398 0 1 0-.399-.692l-.684.395a11.26 11.26 0 0 1-.816-1.965l.766-.207a.397.397 0 0 0 .28-.488.396.396 0 0 0-.487-.285l-.766.207a11.42 11.42 0 0 1-.277-2.114h1.59a.398.398 0 1 0 0-.796H.808c.027-.723.12-1.43.277-2.114l.766.207a.4.4 0 0 0 .207-.773l-.766-.203c.21-.688.484-1.344.816-1.965l.684.394A.409.409 0 0 0 3.34 7a.402.402 0 0 0-.149-.547l-.68-.394c.38-.602.813-1.168 1.298-1.684l.554.555a.399.399 0 0 0 .566 0 .4.4 0 0 0 0-.567l-.554-.554a11.095 11.095 0 0 1 1.684-1.297l.394.68A.4.4 0 0 0 7 3.34a.397.397 0 0 0 .145-.547l-.395-.684a11.26 11.26 0 0 1 1.965-.816l.207.766a.397.397 0 0 0 .488.28.4.4 0 0 0 .285-.487l-.207-.766a11.42 11.42 0 0 1 2.114-.277v1.59a.398.398 0 1 0 .796 0V.808c.723.027 1.43.12 2.114.277l-.207.766a.4.4 0 0 0 .285.488.425.425 0 0 0 .101.015.4.4 0 0 0 .387-.296l.203-.766c.688.21 1.344.484 1.965.816l-.394.684a.402.402 0 0 0 .347.602.405.405 0 0 0 .348-.204l.394-.68c.602.38 1.164.813 1.684 1.298l-.555.554a.4.4 0 0 0 .567.567l.554-.555c.485.516.918 1.082 1.297 1.684l-.683.394a.4.4 0 0 0 .402.692l.684-.395c.332.625.605 1.281.816 1.965l-.766.207a.395.395 0 0 0-.28.488c.046.18.206.297.382.297.035 0 .07-.004.105-.012l.766-.207c.156.684.25 1.387.273 2.11h-1.585a.402.402 0 0 0-.403.402c0 .223.18.398.403.398h1.59c-.028.723-.122 1.43-.278 2.11l-.766-.203a.4.4 0 1 0-.207.773zm0 0"/>
    <path d="M16.398 11.602h-2.855c-.145-.563-.582-1-1.145-1.145V5.199a.398.398 0 1 0-.796 0v5.258c-.692.18-1.204.8-1.204 1.543 0 .883.72 1.602 1.602 1.602.742 0 1.363-.512 1.543-1.204h2.855a.398.398 0 1 0 0-.796zM12 12.8a.802.802 0 0 1 0-1.602.802.802 0 0 1 0 1.602zm0 0M12 14a3.203 3.203 0 0 0-3.2 3.2 3.2 3.2 0 0 0 3.2 3.198 3.2 3.2 0 0 0 3.2-3.199C15.2 15.437 13.765 14 12 14zm0 5.602a2.402 2.402 0 0 1-2.398-2.403 2.399 2.399 0 0 1 4.796 0A2.402 2.402 0 0 1 12 19.602zm0 0"/>
    <path d="M11.082 15.719a.4.4 0 0 0-.566 0 .396.396 0 0 0 0 .562l1.203 1.203a.396.396 0 0 0 .562 0 .4.4 0 0 0 0-.566zm0 0"/>
</svg>
