<svg xmlns="http://www.w3.org/2000/svg" width="32" height="32" viewBox="0 0 24 24">
    <path d="M20.766 6.8l-2.399-2.402H12.2v-.437A2.006 2.006 0 0 0 13.801 2c0-1.102-.899-2-2-2a2.001 2.001 0 0 0-.403 3.96v.438h-3.14A1.26 1.26 0 0 0 7 5.656v1.145H5.633L3.234 9.199l2.399 2.403h5.765V20h-2v1.602H8.2V24h7.2v-2.398h-1.2V20h-2v-8.398h3.543A1.26 1.26 0 0 0 17 10.344V9.199h1.367zM10.602 2A1.2 1.2 0 1 1 13 2a1.2 1.2 0 0 1-2.4 0zm4 20.398v.801H9v-.8zm-1.204-.796H10.2V20.8h3.2zM16.2 10.344c0 .25-.203.457-.457.457H5.965L4.367 9.199l1.598-1.597h9.777c.254 0 .457.203.457.457zM17 8.398v-.34c0-.695-.563-1.257-1.258-1.257H7.801V5.656c0-.25.203-.457.457-.457h9.777l1.598 1.602-1.598 1.597zm0 0"/>
</svg>
