<svg xmlns="http://www.w3.org/2000/svg" width="32" height="32" viewBox="0 0 24 24">
    <path d="M 12 0 C 5.382812 0 0 5.382812 0 12 C 0 18.617188 5.382812 24 12 24 C 18.617188 24 24 18.617188 24 12 C 24 5.382812 18.617188 0 12 0 Z M 12 23.078125 C 5.890625 23.078125 0.921875 18.109375 0.921875 12 C 0.921875 5.890625 5.890625 0.921875 12 0.921875 C 18.109375 0.921875 23.078125 5.890625 23.078125 12 C 23.078125 18.109375 18.109375 23.078125 12 23.078125 Z M 12 23.078125"/>
    <path d="M 17.65625 7.078125 L 10.5625 15.058594 L 6.289062 11.640625 C 6.089844 11.480469 5.796875 11.511719 5.640625 11.710938 C 5.480469 11.910156 5.511719 12.203125 5.710938 12.359375 L 10.328125 16.054688 C 10.410156 16.121094 10.515625 16.152344 10.617188 16.152344 C 10.742188 16.152344 10.871094 16.101562 10.960938 16 L 18.34375 7.691406 C 18.515625 7.5 18.496094 7.207031 18.308594 7.039062 C 18.117188 6.871094 17.824219 6.886719 17.65625 7.078125 Z M 17.65625 7.078125"/>
</svg>
