<svg xmlns="http://www.w3.org/2000/svg" width="32" height="32" viewBox="0 0 24 24">
    <path d="M16.8 4.8H7.2C3.23 4.8 0 8.032 0 12c0 3.969 3.23 7.2 7.2 7.2h9.6c3.97 0 7.2-3.231 7.2-7.2 0-3.969-3.23-7.2-7.2-7.2zm0 13.598H7.2A6.407 6.407 0 0 1 .8 12a6.407 6.407 0 0 1 6.4-6.398h9.6A6.407 6.407 0 0 1 23.2 12a6.407 6.407 0 0 1-6.4 6.398zm0 0"/>
    <path d="M16.8 6.8a5.205 5.205 0 0 0-5.198 5.2c0 2.867 2.332 5.2 5.199 5.2S22 14.866 22 12s-2.332-5.2-5.2-5.2zm0 9.598A4.406 4.406 0 0 1 12.399 12a4.406 4.406 0 0 1 4.403-4.398A4.403 4.403 0 0 1 21.199 12a4.403 4.403 0 0 1-4.398 4.398zm0 0M6.8 8.398a.402.402 0 0 0-.402.403v6.398a.401.401 0 0 0 .8 0L7.2 8.801a.401.401 0 0 0-.398-.403zm0 0"/>
</svg>
