<svg xmlns="http://www.w3.org/2000/svg" width="32" height="32" viewBox="0 0 24 24">
    <path d="M5.601562 11.199219L18.398438 11.199219C21.488281 11.199219 24 8.6875 24 5.601562 24 2.511719 21.488281 0 18.398438 0L5.601562 0C2.511719 0 0 2.511719 0 5.601562 0 8.6875 2.511719 11.199219 5.601562 11.199219zM5.601562.800781L18.398438.800781C21.046875.800781 23.199219 2.953125 23.199219 5.601562 23.199219 8.246094 21.046875 10.398438 18.398438 10.398438L5.601562 10.398438C2.953125 10.398438.800781 8.246094.800781 5.601562.800781 2.953125 2.953125.800781 5.601562.800781zM20.558594 13.234375C20.554688 13.234375 20.550781 13.230469 20.546875 13.230469 19.886719 12.953125 19.160156 12.800781 18.398438 12.800781L5.601562 12.800781C4.839844 12.800781 4.113281 12.953125 3.453125 13.230469 3.449219 13.230469 3.445312 13.234375 3.441406 13.234375 1.421875 14.082031 0 16.078125 0 18.398438 0 21.488281 2.511719 24 5.601562 24L18.398438 24C19.160156 24 19.886719 23.847656 20.546875 23.570312 20.550781 23.570312 20.554688 23.566406 20.558594 23.566406 22.578125 22.71875 24 20.722656 24 18.398438 24 16.078125 22.578125 14.082031 20.558594 13.234375zM22.753906 16.390625C23.039062 17.003906 23.199219 17.683594 23.199219 18.398438 23.199219 19.117188 23.039062 19.796875 22.753906 20.410156 22.554688 20.433594 22.398438 20.59375 22.398438 20.800781 22.398438 20.863281 22.417969 20.921875 22.445312 20.976562 22.277344 21.238281 22.085938 21.484375 21.871094 21.707031 21.796875 21.640625 21.703125 21.601562 21.601562 21.601562 21.378906 21.601562 21.199219 21.777344 21.199219 22 21.199219 22.085938 21.234375 22.164062 21.28125 22.230469 20.476562 22.835938 19.480469 23.199219 18.398438 23.199219 18.398438 22.980469 18.222656 22.800781 18 22.800781 17.777344 22.800781 17.601562 22.980469 17.601562 23.199219L16 23.199219C16 22.980469 15.820312 22.800781 15.601562 22.800781 15.378906 22.800781 15.199219 22.980469 15.199219 23.199219L13.601562 23.199219C13.601562 22.980469 13.421875 22.800781 13.199219 22.800781 12.980469 22.800781 12.800781 22.980469 12.800781 23.199219L11.199219 23.199219C11.199219 22.980469 11.019531 22.800781 10.800781 22.800781 10.578125 22.800781 10.398438 22.980469 10.398438 23.199219L8.800781 23.199219C8.800781 22.980469 8.621094 22.800781 8.398438 22.800781 8.179688 22.800781 8 22.980469 8 23.199219L6.398438 23.199219C6.398438 22.980469 6.222656 22.800781 6 22.800781 5.777344 22.800781 5.601562 22.980469 5.601562 23.199219 4.519531 23.199219 3.523438 22.835938 2.71875 22.230469 2.765625 22.164062 2.800781 22.085938 2.800781 22 2.800781 21.777344 2.621094 21.601562 2.398438 21.601562 2.296875 21.601562 2.203125 21.640625 2.128906 21.707031 1.308594 20.847656.800781 19.683594.800781 18.398438.800781 17.683594.960938 17.003906 1.246094 16.390625 1.445312 16.367188 1.601562 16.203125 1.601562 16 1.601562 15.9375 1.582031 15.878906 1.554688 15.824219 1.722656 15.5625 1.914062 15.316406 2.128906 15.09375 2.203125 15.15625 2.296875 15.199219 2.398438 15.199219 2.621094 15.199219 2.800781 15.019531 2.800781 14.800781 2.800781 14.710938 2.765625 14.636719 2.71875 14.570312 3.523438 13.964844 4.519531 13.601562 5.601562 13.601562 5.601562 13.820312 5.777344 14 6 14 6.222656 14 6.398438 13.820312 6.398438 13.601562L8 13.601562C8 13.820312 8.179688 14 8.398438 14 8.621094 14 8.800781 13.820312 8.800781 13.601562L10.398438 13.601562C10.398438 13.820312 10.578125 14 10.800781 14 11.019531 14 11.199219 13.820312 11.199219 13.601562L12.800781 13.601562C12.800781 13.820312 12.980469 14 13.199219 14 13.421875 14 13.601562 13.820312 13.601562 13.601562L15.199219 13.601562C15.199219 13.820312 15.378906 14 15.601562 14 15.820312 14 16 13.820312 16 13.601562L17.601562 13.601562C17.601562 13.820312 17.777344 14 18 14 18.222656 14 18.398438 13.820312 18.398438 13.601562 19.480469 13.601562 20.476562 13.964844 21.28125 14.570312 21.234375 14.636719 21.199219 14.710938 21.199219 14.800781 21.199219 15.019531 21.378906 15.199219 21.601562 15.199219 21.703125 15.199219 21.796875 15.15625 21.871094 15.09375 22.082031 15.316406 22.277344 15.5625 22.445312 15.824219 22.417969 15.878906 22.398438 15.9375 22.398438 16 22.398438 16.203125 22.554688 16.367188 22.753906 16.390625zM22.753906 16.390625"/>
    <path d="M18.398438 9.601562C20.605469 9.601562 22.398438 7.804688 22.398438 5.601562 22.398438 3.394531 20.605469 1.601562 18.398438 1.601562 16.195312 1.601562 14.398438 3.394531 14.398438 5.601562 14.398438 7.804688 16.195312 9.601562 18.398438 9.601562zM18.398438 2.398438C20.164062 2.398438 21.601562 3.835938 21.601562 5.601562 21.601562 7.363281 20.164062 8.800781 18.398438 8.800781 16.636719 8.800781 15.199219 7.363281 15.199219 5.601562 15.199219 3.835938 16.636719 2.398438 18.398438 2.398438zM4.488281 22.238281C4.5625 22.335938 4.671875 22.398438 4.800781 22.398438 4.867188 22.398438 4.929688 22.378906 4.988281 22.347656 5.1875 22.378906 5.390625 22.398438 5.601562 22.398438 6.039062 22.398438 6.460938 22.324219 6.859375 22.195312 6.925781 22.316406 7.050781 22.398438 7.199219 22.398438 7.421875 22.398438 7.601562 22.222656 7.601562 22 7.601562 21.957031 7.589844 21.914062 7.574219 21.875 8.359375 21.425781 8.976562 20.722656 9.3125 19.878906 9.386719 19.953125 9.488281 20 9.601562 20 9.820312 20 10 19.820312 10 19.601562 10 19.378906 9.820312 19.199219 9.601562 19.199219 9.570312 19.199219 9.542969 19.210938 9.515625 19.21875 9.570312 18.953125 9.601562 18.679688 9.601562 18.398438 9.601562 18.121094 9.570312 17.847656 9.515625 17.582031 9.542969 17.589844 9.570312 17.601562 9.601562 17.601562 9.820312 17.601562 10 17.421875 10 17.199219 10 16.980469 9.820312 16.800781 9.601562 16.800781 9.488281 16.800781 9.386719 16.847656 9.3125 16.921875 9.183594 16.59375 9.007812 16.289062 8.796875 16.007812 8.796875 16.003906 8.800781 16.003906 8.800781 16 8.800781 15.800781 8.652344 15.644531 8.464844 15.613281 8.203125 15.34375 7.902344 15.113281 7.574219 14.925781 7.589844 14.886719 7.601562 14.84375 7.601562 14.800781 7.601562 14.578125 7.421875 14.398438 7.199219 14.398438 7.050781 14.398438 6.925781 14.484375 6.859375 14.605469 6.460938 14.472656 6.039062 14.398438 5.601562 14.398438 5.390625 14.398438 5.1875 14.421875 4.988281 14.453125 4.929688 14.421875 4.867188 14.398438 4.800781 14.398438 4.671875 14.398438 4.5625 14.464844 4.488281 14.558594 2.824219 15.042969 1.601562 16.582031 1.601562 18.398438 1.601562 20.21875 2.824219 21.757812 4.488281 22.238281zM5.601562 15.199219C7.363281 15.199219 8.800781 16.636719 8.800781 18.398438 8.800781 20.164062 7.363281 21.601562 5.601562 21.601562 3.835938 21.601562 2.398438 20.164062 2.398438 18.398438 2.398438 16.636719 3.835938 15.199219 5.601562 15.199219zM10 14.800781C10 15.019531 9.820312 15.199219 9.601562 15.199219 9.378906 15.199219 9.199219 15.019531 9.199219 14.800781 9.199219 14.578125 9.378906 14.398438 9.601562 14.398438 9.820312 14.398438 10 14.578125 10 14.800781zM12.398438 14.800781C12.398438 15.019531 12.222656 15.199219 12 15.199219 11.777344 15.199219 11.601562 15.019531 11.601562 14.800781 11.601562 14.578125 11.777344 14.398438 12 14.398438 12.222656 14.398438 12.398438 14.578125 12.398438 14.800781zM14.800781 14.800781C14.800781 15.019531 14.621094 15.199219 14.398438 15.199219 14.179688 15.199219 14 15.019531 14 14.800781 14 14.578125 14.179688 14.398438 14.398438 14.398438 14.621094 14.398438 14.800781 14.578125 14.800781 14.800781zM17.199219 14.800781C17.199219 15.019531 17.019531 15.199219 16.800781 15.199219 16.578125 15.199219 16.398438 15.019531 16.398438 14.800781 16.398438 14.578125 16.578125 14.398438 16.800781 14.398438 17.019531 14.398438 17.199219 14.578125 17.199219 14.800781zM19.601562 14.800781C19.601562 15.019531 19.421875 15.199219 19.199219 15.199219 18.980469 15.199219 18.800781 15.019531 18.800781 14.800781 18.800781 14.578125 18.980469 14.398438 19.199219 14.398438 19.421875 14.398438 19.601562 14.578125 19.601562 14.800781zM1.601562 18.398438C1.601562 18.621094 1.421875 18.800781 1.199219 18.800781.980469 18.800781.800781 18.621094.800781 18.398438.800781 18.179688.980469 18 1.199219 18 1.421875 18 1.601562 18.179688 1.601562 18.398438zM11.199219 16C11.199219 16.222656 11.019531 16.398438 10.800781 16.398438 10.578125 16.398438 10.398438 16.222656 10.398438 16 10.398438 15.777344 10.578125 15.601562 10.800781 15.601562 11.019531 15.601562 11.199219 15.777344 11.199219 16zM13.601562 16C13.601562 16.222656 13.421875 16.398438 13.199219 16.398438 12.980469 16.398438 12.800781 16.222656 12.800781 16 12.800781 15.777344 12.980469 15.601562 13.199219 15.601562 13.421875 15.601562 13.601562 15.777344 13.601562 16zM11.199219 18.398438C11.199219 18.621094 11.019531 18.800781 10.800781 18.800781 10.578125 18.800781 10.398438 18.621094 10.398438 18.398438 10.398438 18.179688 10.578125 18 10.800781 18 11.019531 18 11.199219 18.179688 11.199219 18.398438zM13.601562 18.398438C13.601562 18.621094 13.421875 18.800781 13.199219 18.800781 12.980469 18.800781 12.800781 18.621094 12.800781 18.398438 12.800781 18.179688 12.980469 18 13.199219 18 13.421875 18 13.601562 18.179688 13.601562 18.398438zM12.398438 17.199219C12.398438 17.421875 12.222656 17.601562 12 17.601562 11.777344 17.601562 11.601562 17.421875 11.601562 17.199219 11.601562 16.980469 11.777344 16.800781 12 16.800781 12.222656 16.800781 12.398438 16.980469 12.398438 17.199219zM14.800781 17.199219C14.800781 17.421875 14.621094 17.601562 14.398438 17.601562 14.179688 17.601562 14 17.421875 14 17.199219 14 16.980469 14.179688 16.800781 14.398438 16.800781 14.621094 16.800781 14.800781 16.980469 14.800781 17.199219zM12.398438 19.601562C12.398438 19.820312 12.222656 20 12 20 11.777344 20 11.601562 19.820312 11.601562 19.601562 11.601562 19.378906 11.777344 19.199219 12 19.199219 12.222656 19.199219 12.398438 19.378906 12.398438 19.601562zM14.800781 19.601562C14.800781 19.820312 14.621094 20 14.398438 20 14.179688 20 14 19.820312 14 19.601562 14 19.378906 14.179688 19.199219 14.398438 19.199219 14.621094 19.199219 14.800781 19.378906 14.800781 19.601562zM16 16C16 16.222656 15.820312 16.398438 15.601562 16.398438 15.378906 16.398438 15.199219 16.222656 15.199219 16 15.199219 15.777344 15.378906 15.601562 15.601562 15.601562 15.820312 15.601562 16 15.777344 16 16zM18.398438 16C18.398438 16.222656 18.222656 16.398438 18 16.398438 17.777344 16.398438 17.601562 16.222656 17.601562 16 17.601562 15.777344 17.777344 15.601562 18 15.601562 18.222656 15.601562 18.398438 15.777344 18.398438 16zM16 18.398438C16 18.621094 15.820312 18.800781 15.601562 18.800781 15.378906 18.800781 15.199219 18.621094 15.199219 18.398438 15.199219 18.179688 15.378906 18 15.601562 18 15.820312 18 16 18.179688 16 18.398438zM18.398438 18.398438C18.398438 18.621094 18.222656 18.800781 18 18.800781 17.777344 18.800781 17.601562 18.621094 17.601562 18.398438 17.601562 18.179688 17.777344 18 18 18 18.222656 18 18.398438 18.179688 18.398438 18.398438zM17.199219 17.199219C17.199219 17.421875 17.019531 17.601562 16.800781 17.601562 16.578125 17.601562 16.398438 17.421875 16.398438 17.199219 16.398438 16.980469 16.578125 16.800781 16.800781 16.800781 17.019531 16.800781 17.199219 16.980469 17.199219 17.199219zM19.601562 17.199219C19.601562 17.421875 19.421875 17.601562 19.199219 17.601562 18.980469 17.601562 18.800781 17.421875 18.800781 17.199219 18.800781 16.980469 18.980469 16.800781 19.199219 16.800781 19.421875 16.800781 19.601562 16.980469 19.601562 17.199219zM17.199219 19.601562C17.199219 19.820312 17.019531 20 16.800781 20 16.578125 20 16.398438 19.820312 16.398438 19.601562 16.398438 19.378906 16.578125 19.199219 16.800781 19.199219 17.019531 19.199219 17.199219 19.378906 17.199219 19.601562zM19.601562 19.601562C19.601562 19.820312 19.421875 20 19.199219 20 18.980469 20 18.800781 19.820312 18.800781 19.601562 18.800781 19.378906 18.980469 19.199219 19.199219 19.199219 19.421875 19.199219 19.601562 19.378906 19.601562 19.601562zM20.800781 16C20.800781 16.222656 20.621094 16.398438 20.398438 16.398438 20.179688 16.398438 20 16.222656 20 16 20 15.777344 20.179688 15.601562 20.398438 15.601562 20.621094 15.601562 20.800781 15.777344 20.800781 16zM20.800781 18.398438C20.800781 18.621094 20.621094 18.800781 20.398438 18.800781 20.179688 18.800781 20 18.621094 20 18.398438 20 18.179688 20.179688 18 20.398438 18 20.621094 18 20.800781 18.179688 20.800781 18.398438zM23.199219 18.398438C23.199219 18.621094 23.019531 18.800781 22.800781 18.800781 22.578125 18.800781 22.398438 18.621094 22.398438 18.398438 22.398438 18.179688 22.578125 18 22.800781 18 23.019531 18 23.199219 18.179688 23.199219 18.398438zM11.199219 20.800781C11.199219 21.019531 11.019531 21.199219 10.800781 21.199219 10.578125 21.199219 10.398438 21.019531 10.398438 20.800781 10.398438 20.578125 10.578125 20.398438 10.800781 20.398438 11.019531 20.398438 11.199219 20.578125 11.199219 20.800781zM13.601562 20.800781C13.601562 21.019531 13.421875 21.199219 13.199219 21.199219 12.980469 21.199219 12.800781 21.019531 12.800781 20.800781 12.800781 20.578125 12.980469 20.398438 13.199219 20.398438 13.421875 20.398438 13.601562 20.578125 13.601562 20.800781zM16 20.800781C16 21.019531 15.820312 21.199219 15.601562 21.199219 15.378906 21.199219 15.199219 21.019531 15.199219 20.800781 15.199219 20.578125 15.378906 20.398438 15.601562 20.398438 15.820312 20.398438 16 20.578125 16 20.800781zM18.398438 20.800781C18.398438 21.019531 18.222656 21.199219 18 21.199219 17.777344 21.199219 17.601562 21.019531 17.601562 20.800781 17.601562 20.578125 17.777344 20.398438 18 20.398438 18.222656 20.398438 18.398438 20.578125 18.398438 20.800781zM20.800781 20.800781C20.800781 21.019531 20.621094 21.199219 20.398438 21.199219 20.179688 21.199219 20 21.019531 20 20.800781 20 20.578125 20.179688 20.398438 20.398438 20.398438 20.621094 20.398438 20.800781 20.578125 20.800781 20.800781zM22 17.199219C22 17.421875 21.820312 17.601562 21.601562 17.601562 21.378906 17.601562 21.199219 17.421875 21.199219 17.199219 21.199219 16.980469 21.378906 16.800781 21.601562 16.800781 21.820312 16.800781 22 16.980469 22 17.199219zM22 19.601562C22 19.820312 21.820312 20 21.601562 20 21.378906 20 21.199219 19.820312 21.199219 19.601562 21.199219 19.378906 21.378906 19.199219 21.601562 19.199219 21.820312 19.199219 22 19.378906 22 19.601562zM10 22C10 22.222656 9.820312 22.398438 9.601562 22.398438 9.378906 22.398438 9.199219 22.222656 9.199219 22 9.199219 21.777344 9.378906 21.601562 9.601562 21.601562 9.820312 21.601562 10 21.777344 10 22zM12.398438 22C12.398438 22.222656 12.222656 22.398438 12 22.398438 11.777344 22.398438 11.601562 22.222656 11.601562 22 11.601562 21.777344 11.777344 21.601562 12 21.601562 12.222656 21.601562 12.398438 21.777344 12.398438 22zM14.800781 22C14.800781 22.222656 14.621094 22.398438 14.398438 22.398438 14.179688 22.398438 14 22.222656 14 22 14 21.777344 14.179688 21.601562 14.398438 21.601562 14.621094 21.601562 14.800781 21.777344 14.800781 22zM17.199219 22C17.199219 22.222656 17.019531 22.398438 16.800781 22.398438 16.578125 22.398438 16.398438 22.222656 16.398438 22 16.398438 21.777344 16.578125 21.601562 16.800781 21.601562 17.019531 21.601562 17.199219 21.777344 17.199219 22zM19.601562 22C19.601562 22.222656 19.421875 22.398438 19.199219 22.398438 18.980469 22.398438 18.800781 22.222656 18.800781 22 18.800781 21.777344 18.980469 21.601562 19.199219 21.601562 19.421875 21.601562 19.601562 21.777344 19.601562 22zM19.601562 22"/>
</svg>
