<svg xmlns="http://www.w3.org/2000/svg" width="32" height="32" viewBox="0 0 24 24">
    <path d="M 23.601562 11.601562 L 22.789062 11.601562 C 22.582031 5.960938 18.039062 1.417969 12.398438 1.210938 L 12.398438 0.398438 C 12.398438 0.179688 12.222656 0 12 0 C 11.777344 0 11.601562 0.179688 11.601562 0.398438 L 11.601562 1.210938 C 5.960938 1.417969 1.417969 5.960938 1.210938 11.601562 L 0.398438 11.601562 C 0.179688 11.601562 0 11.777344 0 12 C 0 12.222656 0.179688 12.398438 0.398438 12.398438 L 1.210938 12.398438 C 1.417969 18.039062 5.960938 22.582031 11.601562 22.789062 L 11.601562 23.601562 C 11.601562 23.820312 11.777344 24 12 24 C 12.222656 24 12.398438 23.820312 12.398438 23.601562 L 12.398438 22.789062 C 18.039062 22.582031 22.582031 18.039062 22.789062 12.398438 L 23.601562 12.398438 C 23.820312 12.398438 24 12.222656 24 12 C 24 11.777344 23.820312 11.601562 23.601562 11.601562 Z M 12.398438 21.988281 L 12.398438 21.199219 C 12.398438 20.980469 12.222656 20.800781 12 20.800781 C 11.777344 20.800781 11.601562 20.980469 11.601562 21.199219 L 11.601562 21.988281 C 6.402344 21.785156 2.214844 17.597656 2.011719 12.398438 L 2.800781 12.398438 C 3.019531 12.398438 3.199219 12.222656 3.199219 12 C 3.199219 11.777344 3.019531 11.601562 2.800781 11.601562 L 2.011719 11.601562 C 2.214844 6.402344 6.402344 2.214844 11.601562 2.011719 L 11.601562 2.800781 C 11.601562 3.019531 11.777344 3.199219 12 3.199219 C 12.222656 3.199219 12.398438 3.019531 12.398438 2.800781 L 12.398438 2.011719 C 17.597656 2.214844 21.785156 6.402344 21.988281 11.601562 L 21.199219 11.601562 C 20.980469 11.601562 20.800781 11.777344 20.800781 12 C 20.800781 12.222656 20.980469 12.398438 21.199219 12.398438 L 21.988281 12.398438 C 21.785156 17.597656 17.597656 21.785156 12.398438 21.988281 Z M 12.398438 21.988281"/>
    <path d="M 16.800781 11.601562 L 14.769531 11.601562 C 14.589844 10.375 13.625 9.410156 12.398438 9.230469 L 12.398438 7.199219 C 12.398438 6.980469 12.222656 6.800781 12 6.800781 C 11.777344 6.800781 11.601562 6.980469 11.601562 7.199219 L 11.601562 9.230469 C 10.375 9.410156 9.410156 10.375 9.230469 11.601562 L 7.199219 11.601562 C 6.980469 11.601562 6.800781 11.777344 6.800781 12 C 6.800781 12.222656 6.980469 12.398438 7.199219 12.398438 L 9.230469 12.398438 C 9.410156 13.625 10.375 14.589844 11.601562 14.769531 L 11.601562 16.800781 C 11.601562 17.019531 11.777344 17.199219 12 17.199219 C 12.222656 17.199219 12.398438 17.019531 12.398438 16.800781 L 12.398438 14.769531 C 13.625 14.589844 14.589844 13.625 14.769531 12.398438 L 16.800781 12.398438 C 17.019531 12.398438 17.199219 12.222656 17.199219 12 C 17.199219 11.777344 17.019531 11.601562 16.800781 11.601562 Z M 12 14 C 10.898438 14 10 13.101562 10 12 C 10 10.898438 10.898438 10 12 10 C 13.101562 10 14 10.898438 14 12 C 14 13.101562 13.101562 14 12 14 Z M 12 14"/>
</svg>
