<svg xmlns="http://www.w3.org/2000/svg" width="32" height="32" viewBox="0 0 24 24">
    <path d="M21.98 11.3c.008-.027.016-.054.016-.081 0-.008.004-.012.004-.02 0-5.379-4.27-9.777-9.602-9.988V.398a.398.398 0 1 0-.796 0v.813C6.27 1.42 2 5.82 2 11.199c0 .008.004.012.004.02 0 .027.008.054.016.082.007.023.011.047.02.07.01.02.026.04.038.055.02.027.035.05.055.07l.012.012c.015.012.03.015.046.027.024.012.047.027.075.04a.56.56 0 0 0 .086.015c.015.004.03.012.046.012.008 0 .012-.004.02-.004a.68.68 0 0 0 .086-.02.167.167 0 0 0 .062-.02c.024-.007.043-.027.063-.038a.273.273 0 0 0 .062-.051c.008-.008.012-.008.016-.012.566-.684 1.309-1.059 2.094-1.059.785 0 1.527.375 2.09 1.059.007.008.02.012.027.02.012.011.016.023.027.03.016.013.035.02.051.028.02.012.04.027.063.035.03.012.066.016.097.02.016.004.032.012.043.012.008 0 .012-.004.02-.004.02 0 .039-.008.058-.012a.324.324 0 0 0 .082-.024c.02-.007.036-.019.055-.03.012-.009.027-.012.04-.024.01-.008.015-.02.023-.028.011-.011.023-.015.03-.023.563-.684 1.31-1.059 2.095-1.059.742 0 1.445.34 2 .957V22A1.202 1.202 0 0 1 9.2 22a.398.398 0 0 0-.4-.398.398.398 0 0 0-.402.398c0 1.102.899 2 2 2 1.106 0 2-.898 2-2V11.355c.555-.617 1.258-.957 2-.957.786 0 1.532.375 2.094 1.059.008.008.02.012.028.02.007.011.015.023.023.03.02.013.035.02.055.028.02.012.039.027.058.035a.466.466 0 0 0 .102.02c.015.004.027.012.043.012.004 0 .012-.004.02-.004.019 0 .038-.008.058-.012a.427.427 0 0 0 .137-.055c.011-.008.027-.011.039-.023.008-.008.015-.02.023-.028l.031-.023c.563-.684 1.305-1.059 2.09-1.059.785 0 1.528.375 2.094 1.059.004.004.008.004.012.008a.612.612 0 0 0 .097.078c.016.004.024.016.035.023.051.02.106.036.165.036a.385.385 0 0 0 .144-.032c.016-.008.031-.02.047-.027.02-.012.043-.02.062-.035l.012-.016c.02-.02.035-.043.055-.066.012-.02.027-.035.039-.059.008-.02.012-.043.02-.066zM19.2 9.603c-.887 0-1.723.355-2.4 1.011-.675-.656-1.51-1.011-2.402-1.011-.886 0-1.722.355-2.398 1.011-.676-.656-1.512-1.011-2.398-1.011-.891 0-1.727.355-2.403 1.011-.676-.656-1.511-1.011-2.398-1.011-.7 0-1.367.226-1.95.64C3.333 5.617 7.25 2 12 2c4.75 0 8.668 3.617 9.148 8.242a3.344 3.344 0 0 0-1.949-.64zm0 0"/>
</svg>
