<svg xmlns="http://www.w3.org/2000/svg" width="32" height="32" viewBox="0 0 24 24">
    <path d="M 12 12.414062 C 11.085938 12.414062 10.34375 13.15625 10.34375 14.070312 L 10.34375 16.550781 C 10.34375 17.464844 11.085938 18.207031 12 18.207031 C 12.914062 18.207031 13.65625 17.464844 13.65625 16.550781 L 13.65625 14.070312 C 13.65625 13.15625 12.914062 12.414062 12 12.414062 Z M 12.828125 16.550781 C 12.828125 17.007812 12.457031 17.378906 12 17.378906 C 11.542969 17.378906 11.171875 17.007812 11.171875 16.550781 L 11.171875 14.070312 C 11.171875 13.613281 11.542969 13.242188 12 13.242188 C 12.457031 13.242188 12.828125 13.613281 12.828125 14.070312 Z M 12.828125 16.550781"/>
    <path d="M 16.550781 8.820312 L 16.550781 4.230469 C 16.550781 1.898438 14.507812 0 12 0 C 9.492188 0 7.449219 1.898438 7.449219 4.230469 C 7.449219 4.457031 7.632812 4.644531 7.863281 4.644531 C 8.089844 4.644531 8.277344 4.457031 8.277344 4.230469 C 8.277344 2.355469 9.945312 0.828125 12 0.828125 C 14.054688 0.828125 15.722656 2.355469 15.722656 4.230469 L 15.722656 8.339844 C 15.644531 8.300781 15.566406 8.265625 15.488281 8.230469 C 15.324219 8.152344 15.160156 8.082031 14.992188 8.015625 C 14.882812 7.976562 14.777344 7.933594 14.667969 7.898438 C 14.558594 7.859375 14.453125 7.824219 14.34375 7.792969 C 14.164062 7.738281 13.980469 7.691406 13.796875 7.652344 C 13.714844 7.632812 13.636719 7.617188 13.554688 7.601562 C 13.339844 7.558594 13.121094 7.523438 12.902344 7.5 C 12.851562 7.496094 12.800781 7.492188 12.753906 7.488281 C 12.5 7.464844 12.25 7.449219 12 7.449219 C 7.4375 7.449219 3.722656 11.160156 3.722656 15.722656 C 3.722656 20.289062 7.4375 24 12 24 C 16.5625 24 20.277344 20.289062 20.277344 15.722656 C 20.277344 12.839844 18.792969 10.300781 16.550781 8.820312 Z M 12 23.171875 C 7.894531 23.171875 4.550781 19.832031 4.550781 15.722656 C 4.550781 11.617188 7.894531 8.277344 12 8.277344 C 12.222656 8.277344 12.445312 8.289062 12.664062 8.308594 C 12.734375 8.316406 12.804688 8.324219 12.875 8.332031 C 13.03125 8.351562 13.183594 8.375 13.335938 8.402344 C 13.441406 8.421875 13.546875 8.441406 13.652344 8.46875 C 13.796875 8.5 13.941406 8.535156 14.082031 8.578125 C 14.195312 8.609375 14.308594 8.648438 14.421875 8.6875 C 14.496094 8.714844 14.570312 8.742188 14.640625 8.769531 C 15.050781 8.925781 15.449219 9.121094 15.832031 9.347656 C 17.992188 10.652344 19.449219 13.019531 19.449219 15.722656 C 19.449219 19.832031 16.105469 23.171875 12 23.171875 Z M 12 23.171875"/>
</svg>
