<svg xmlns="http://www.w3.org/2000/svg" width="32" height="32" viewBox="0 0 24 24">
    <path d="M 7.921875 4.890625 C 8.027344 4.890625 8.132812 4.847656 8.210938 4.769531 L 11.59375 1.386719 L 11.59375 15.863281 C 11.59375 16.089844 11.773438 16.269531 12 16.269531 C 12.226562 16.269531 12.40625 16.089844 12.40625 15.863281 L 12.40625 1.386719 L 15.773438 4.753906 C 15.929688 4.914062 16.1875 4.914062 16.347656 4.753906 C 16.503906 4.59375 16.503906 4.335938 16.347656 4.179688 L 12.289062 0.121094 C 12.25 0.0820312 12.207031 0.0507812 12.15625 0.03125 C 12.054688 -0.0117188 11.945312 -0.0117188 11.84375 0.03125 C 11.792969 0.0507812 11.75 0.0820312 11.710938 0.121094 L 7.636719 4.195312 C 7.476562 4.355469 7.476562 4.609375 7.636719 4.769531 C 7.714844 4.851562 7.820312 4.890625 7.921875 4.890625 Z M 7.921875 4.890625"/>
    <path d="M 14.847656 6.507812 C 14.621094 6.507812 14.441406 6.691406 14.441406 6.914062 C 14.441406 7.140625 14.621094 7.320312 14.847656 7.320312 L 20.136719 7.320312 L 20.136719 23.1875 L 3.863281 23.1875 L 3.863281 7.320312 L 9.152344 7.320312 C 9.378906 7.320312 9.558594 7.140625 9.558594 6.914062 C 9.558594 6.691406 9.378906 6.507812 9.152344 6.507812 L 3.050781 6.507812 L 3.050781 24 L 20.949219 24 L 20.949219 6.507812 Z M 14.847656 6.507812"/>
</svg>
