<svg xmlns="http://www.w3.org/2000/svg" width="32" height="32" viewBox="0 0 24 24">
    <path d="M 24 12 C 24 5.382812 18.617188 0 12 0 C 5.382812 0 0 5.382812 0 12 C 0 14.457031 0.742188 16.742188 2.015625 18.648438 L 2.015625 18.65625 L 2.097656 18.777344 C 2.167969 18.882812 2.246094 18.980469 2.320312 19.085938 C 2.351562 19.125 2.382812 19.167969 2.414062 19.210938 C 2.507812 19.335938 2.605469 19.460938 2.707031 19.582031 C 2.734375 19.617188 2.765625 19.652344 2.792969 19.6875 C 3.257812 20.242188 3.765625 20.746094 4.3125 21.203125 C 4.34375 21.230469 4.375 21.257812 4.410156 21.289062 C 4.53125 21.382812 4.648438 21.480469 4.773438 21.570312 C 4.824219 21.609375 4.871094 21.644531 4.921875 21.683594 C 5.039062 21.769531 5.15625 21.851562 5.277344 21.933594 C 5.339844 21.976562 5.40625 22.019531 5.472656 22.0625 C 5.636719 22.167969 5.804688 22.273438 5.976562 22.371094 C 6.097656 22.441406 6.214844 22.511719 6.339844 22.578125 C 6.410156 22.617188 6.488281 22.652344 6.5625 22.691406 C 6.691406 22.757812 6.820312 22.824219 6.953125 22.882812 C 7.019531 22.914062 7.085938 22.945312 7.15625 22.976562 C 7.308594 23.042969 7.464844 23.105469 7.621094 23.167969 C 7.667969 23.1875 7.714844 23.207031 7.765625 23.226562 C 8.195312 23.390625 8.636719 23.527344 9.085938 23.640625 C 9.105469 23.644531 9.121094 23.648438 9.140625 23.652344 C 9.339844 23.703125 9.542969 23.746094 9.746094 23.785156 C 9.796875 23.796875 9.851562 23.804688 9.90625 23.8125 C 10.078125 23.84375 10.246094 23.871094 10.417969 23.894531 C 10.484375 23.902344 10.550781 23.910156 10.613281 23.917969 C 10.78125 23.9375 10.953125 23.953125 11.121094 23.964844 C 11.183594 23.96875 11.246094 23.976562 11.308594 23.980469 C 11.539062 23.992188 11.769531 24 12 24 C 12.230469 24 12.460938 23.992188 12.691406 23.980469 C 12.753906 23.976562 12.816406 23.96875 12.878906 23.964844 C 13.046875 23.953125 13.21875 23.9375 13.386719 23.917969 C 13.449219 23.910156 13.515625 23.902344 13.582031 23.890625 C 13.753906 23.871094 13.921875 23.84375 14.09375 23.8125 C 14.148438 23.804688 14.203125 23.792969 14.253906 23.785156 C 14.457031 23.746094 14.660156 23.703125 14.859375 23.652344 C 14.878906 23.648438 14.894531 23.644531 14.914062 23.640625 C 15.363281 23.527344 15.804688 23.386719 16.234375 23.226562 C 16.285156 23.207031 16.332031 23.1875 16.382812 23.167969 C 16.539062 23.105469 16.691406 23.042969 16.84375 22.972656 C 16.914062 22.945312 16.980469 22.914062 17.046875 22.882812 C 17.179688 22.820312 17.308594 22.757812 17.4375 22.691406 C 17.515625 22.652344 17.589844 22.617188 17.664062 22.578125 C 17.785156 22.511719 17.902344 22.441406 18.023438 22.371094 C 18.195312 22.273438 18.363281 22.167969 18.527344 22.0625 C 18.59375 22.019531 18.660156 21.976562 18.722656 21.933594 C 18.84375 21.851562 18.960938 21.769531 19.078125 21.683594 C 19.128906 21.644531 19.179688 21.609375 19.226562 21.570312 C 19.351562 21.480469 19.472656 21.382812 19.589844 21.285156 C 19.625 21.257812 19.65625 21.230469 19.691406 21.203125 C 20.234375 20.746094 20.742188 20.238281 21.207031 19.6875 C 21.238281 19.652344 21.265625 19.617188 21.292969 19.582031 C 21.394531 19.460938 21.492188 19.335938 21.585938 19.207031 C 21.617188 19.167969 21.648438 19.125 21.679688 19.082031 C 21.753906 18.980469 21.832031 18.882812 21.902344 18.777344 L 21.984375 18.65625 L 21.984375 18.648438 C 23.257812 16.742188 24 14.457031 24 12 Z M 23.199219 12 C 23.199219 13.988281 22.675781 15.855469 21.761719 17.476562 C 21.105469 15.292969 19.136719 13.726562 16.800781 13.613281 L 16.800781 13.601562 L 14.144531 13.601562 C 14.066406 13.601562 14 13.535156 14 13.453125 L 14 13.195312 C 14 13.121094 14.058594 13.074219 14.109375 13.054688 C 16.6875 12.085938 18.292969 8.070312 17.957031 5.261719 C 17.78125 3.796875 17.054688 2.488281 16.003906 1.542969 C 20.207031 3.15625 23.199219 7.234375 23.199219 12 Z M 21.015625 18.636719 C 20.984375 18.679688 20.949219 18.722656 20.917969 18.765625 C 20.828125 18.882812 20.738281 19 20.644531 19.113281 C 20.636719 19.125 20.625 19.136719 20.617188 19.148438 C 20.292969 19.535156 19.941406 19.902344 19.570312 20.246094 C 19.550781 20.265625 19.527344 20.285156 19.503906 20.304688 C 19.394531 20.40625 19.28125 20.503906 19.164062 20.601562 C 19.128906 20.628906 19.09375 20.660156 19.058594 20.6875 C 18.945312 20.78125 18.832031 20.871094 18.71875 20.957031 C 18.679688 20.984375 18.640625 21.011719 18.601562 21.042969 C 18.535156 21.089844 18.46875 21.136719 18.398438 21.183594 L 18.398438 16.800781 L 16.800781 16.800781 L 16.800781 14.414062 C 19.03125 14.542969 20.855469 16.214844 21.15625 18.4375 C 21.109375 18.503906 21.0625 18.570312 21.015625 18.636719 Z M 17.246094 21.890625 C 17.175781 21.929688 17.101562 21.964844 17.03125 22.003906 C 16.910156 22.0625 16.789062 22.121094 16.664062 22.179688 C 16.605469 22.207031 16.546875 22.234375 16.484375 22.257812 C 16.332031 22.328125 16.175781 22.390625 16.019531 22.453125 C 15.988281 22.464844 15.957031 22.476562 15.921875 22.488281 C 15.523438 22.640625 15.113281 22.765625 14.699219 22.871094 C 14.667969 22.875 14.636719 22.882812 14.605469 22.890625 C 14.433594 22.929688 14.261719 22.96875 14.085938 23 C 14.035156 23.011719 13.980469 23.019531 13.929688 23.03125 C 13.773438 23.058594 13.617188 23.082031 13.460938 23.101562 C 13.402344 23.109375 13.339844 23.117188 13.28125 23.125 C 13.125 23.140625 12.96875 23.15625 12.8125 23.167969 C 12.753906 23.171875 12.695312 23.175781 12.636719 23.179688 C 12.425781 23.191406 12.214844 23.199219 12 23.199219 C 11.785156 23.199219 11.574219 23.191406 11.363281 23.179688 C 11.304688 23.175781 11.246094 23.171875 11.1875 23.167969 C 11.03125 23.15625 10.875 23.144531 10.71875 23.125 C 10.660156 23.117188 10.597656 23.109375 10.539062 23.101562 C 10.382812 23.082031 10.226562 23.058594 10.070312 23.03125 C 10.019531 23.019531 9.964844 23.011719 9.914062 23.003906 C 9.738281 22.96875 9.566406 22.933594 9.394531 22.890625 C 9.363281 22.882812 9.332031 22.875 9.304688 22.871094 C 8.886719 22.765625 8.476562 22.640625 8.078125 22.488281 C 8.042969 22.476562 8.011719 22.464844 7.980469 22.453125 C 7.824219 22.390625 7.667969 22.328125 7.515625 22.261719 C 7.453125 22.234375 7.394531 22.207031 7.335938 22.179688 C 7.210938 22.121094 7.089844 22.0625 6.96875 22.003906 C 6.898438 21.964844 6.824219 21.929688 6.753906 21.890625 C 6.652344 21.835938 6.546875 21.777344 6.445312 21.722656 C 6.429688 21.710938 6.414062 21.703125 6.398438 21.695312 L 6.398438 17.601562 L 17.597656 17.601562 L 17.597656 21.691406 C 17.585938 21.703125 17.570312 21.710938 17.550781 21.71875 C 17.453125 21.777344 17.347656 21.835938 17.246094 21.890625 Z M 5.28125 20.957031 C 5.167969 20.871094 5.054688 20.78125 4.945312 20.691406 C 4.90625 20.660156 4.871094 20.628906 4.835938 20.601562 C 4.71875 20.503906 4.605469 20.40625 4.496094 20.304688 C 4.472656 20.285156 4.453125 20.265625 4.429688 20.246094 C 4.058594 19.902344 3.707031 19.535156 3.386719 19.148438 C 3.375 19.136719 3.363281 19.125 3.355469 19.113281 C 3.261719 19 3.171875 18.882812 3.082031 18.765625 C 3.050781 18.722656 3.015625 18.679688 2.984375 18.636719 C 2.9375 18.570312 2.890625 18.503906 2.84375 18.4375 C 3.144531 16.214844 4.96875 14.542969 7.199219 14.414062 L 7.199219 16.800781 L 5.601562 16.800781 L 5.601562 21.183594 C 5.53125 21.136719 5.464844 21.089844 5.398438 21.042969 C 5.359375 21.011719 5.320312 20.984375 5.28125 20.957031 Z M 10.195312 12.316406 C 8.285156 11.609375 6.800781 8.339844 6.800781 6 C 6.800781 5.949219 6.804688 5.898438 6.808594 5.847656 L 7.101562 5.488281 C 7.761719 4.703125 8.886719 4.476562 9.90625 4.925781 C 10.3125 5.109375 10.75 5.199219 11.199219 5.199219 C 12.386719 5.199219 13.457031 4.554688 14.011719 3.527344 C 15.285156 3.945312 16.421875 4.730469 17.1875 5.726562 C 17.304688 8.164062 15.871094 11.539062 13.828125 12.304688 C 13.445312 12.449219 13.199219 12.800781 13.199219 13.195312 L 13.199219 13.453125 C 13.199219 13.976562 13.625 14.398438 14.144531 14.398438 L 14.398438 14.398438 L 14.398438 16.800781 L 9.601562 16.800781 L 9.601562 14.398438 L 9.855469 14.398438 C 10.375 14.398438 10.800781 13.976562 10.800781 13.453125 L 10.800781 13.199219 C 10.800781 12.804688 10.558594 12.449219 10.195312 12.316406 Z M 12.015625 0.800781 C 12.019531 0.800781 12.023438 0.800781 12.027344 0.800781 C 12.226562 0.800781 12.417969 0.8125 12.601562 0.835938 C 14.585938 1.054688 16.25 2.4375 16.902344 4.269531 C 16.054688 3.53125 15.019531 2.964844 13.902344 2.660156 L 13.558594 2.5625 L 13.425781 2.894531 C 13.058594 3.808594 12.183594 4.398438 11.199219 4.398438 C 10.863281 4.398438 10.535156 4.332031 10.230469 4.195312 C 9.121094 3.707031 7.914062 3.839844 7.023438 4.488281 C 7.269531 3.675781 7.710938 2.933594 8.328125 2.320312 C 9.308594 1.339844 10.613281 0.800781 12.015625 0.800781 Z M 16 16.800781 L 15.199219 16.800781 L 15.199219 14.398438 L 16 14.398438 Z M 8.800781 16.800781 L 8 16.800781 L 8 14.398438 L 8.800781 14.398438 Z M 7.992188 1.542969 C 7.914062 1.613281 7.835938 1.679688 7.761719 1.753906 C 6.625 2.886719 6 4.394531 6 6 C 6 8.652344 7.675781 12.238281 9.917969 13.066406 C 9.964844 13.085938 10 13.140625 10 13.199219 L 10 13.453125 C 10 13.535156 9.933594 13.601562 9.855469 13.601562 L 7.199219 13.601562 L 7.199219 13.613281 C 4.863281 13.726562 2.894531 15.292969 2.238281 17.476562 C 1.324219 15.855469 0.800781 13.988281 0.800781 12 C 0.800781 7.234375 3.792969 3.160156 7.992188 1.542969 Z M 7.992188 1.542969"/>
</svg>
