<svg xmlns="http://www.w3.org/2000/svg" width="32" height="32" viewBox="0 0 24 24">
    <path d="M22.207 18.621l-3.91-1.695c-.09-.047-.192-.156-.281-.309h2.609c.047.004 1.121.102 1.984-.27.328-.14.57-.417.668-.761a1.196 1.196 0 0 0-.168-1.008c-.746-1.062-2.488-3.836-2.543-6.652 0-.047-.16-4.832-4.882-4.871a5.757 5.757 0 0 0-1.926.34 3.36 3.36 0 0 0-.594-.98C12.34 1.476 11.008 1 9.2 1c-1.808 0-3.14.477-3.96 1.41-.95 1.082-.86 2.39-.84 2.613v2.125A1.606 1.606 0 0 0 4 8.2v1.602c0 .484.223.941.598 1.242A8.399 8.399 0 0 0 6 13.938v1.324c0 .386-.21.742-.55.93l-3.571 1.945A3.606 3.606 0 0 0 0 21.305V23h24v-1.48a3.223 3.223 0 0 0-1.793-2.899zM17.602 22.2H.8v-.894c0-1.028.558-1.973 1.46-2.465l3.571-1.945c.598-.329.969-.954.969-1.633v-1.606l-.094-.113a7.556 7.556 0 0 1-1.363-2.824l-.04-.16-.132-.086A.8.8 0 0 1 4.8 9.8V8.199c0-.222.094-.433.265-.59l.133-.117V5l-.004-.05c0-.013-.136-1.122.645-2.013.66-.753 1.793-1.136 3.36-1.136 1.562 0 2.69.379 3.355 1.129.328.375.496.789.578 1.148.008.027.012.055.02.082.003.031.011.059.015.086l.012.09.011.062.012.141v.012c.004.043.008.086.008.12v.126c0 .094-.008.148-.008.152L13.2 7.492l.133.117c.172.157.27.368.27.59v1.602c0 .347-.23.652-.57.758l-.2.062-.062.2a8.337 8.337 0 0 1-1.137 2.284 5.437 5.437 0 0 1-.332.43l-.102.113v1.653a1.864 1.864 0 0 0 .04.36c.015.077.034.155.062.234a1.918 1.918 0 0 0 .344.613l.093.11h.016c.137.136.293.253.473.343l3.82 1.91a2.794 2.794 0 0 1 1.555 2.512zm5.597 0h-4.8v-.816a3.583 3.583 0 0 0-1.993-3.227l-2.742-1.37a.699.699 0 0 0-.637-.97h-.886c-.02-.03-.032-.066-.047-.101-.02-.047-.043-.09-.055-.14A1.05 1.05 0 0 1 12 15.3v-1.356c.09-.11.188-.238.29-.379.491-.699.89-1.48 1.179-2.32a1.58 1.58 0 0 0 .93-1.445V8.199c0-.383-.141-.758-.399-1.05V5.022c.012-.101.031-.43-.035-.855a4.755 4.755 0 0 1 1.719-.313c3.933.032 4.078 3.922 4.082 4.086.058 3.036 1.898 5.973 2.687 7.094.067.098.09.219.055.332a.364.364 0 0 1-.215.246c-.672.29-1.582.207-1.629.203H17.91a.728.728 0 0 0-.625.352.722.722 0 0 0-.035.71c.125.255.348.59.71.774l3.9 1.688a2.428 2.428 0 0 1 1.34 2.18zm0 0"/>
</svg>
