<svg xmlns="http://www.w3.org/2000/svg" width="32" height="32" viewBox="0 0 24 24">
    <path d="M20.7 8.742c-4.817-4.82-12.66-4.82-17.481 0L0 11.961l3.3 3.297a12.315 12.315 0 0 0 8.74 3.617c3.167 0 6.331-1.207 8.741-3.617L24 12.039zm-.493 5.945c-4.504 4.5-11.832 4.5-16.336 0l-2.723-2.726 2.645-2.649c4.504-4.503 11.832-4.503 16.336 0l2.723 2.727zm0 0"/>
    <path d="M11.582 8.746a2.838 2.838 0 0 0-2.836 2.836.405.405 0 0 0 .809 0 2.03 2.03 0 0 1 2.027-2.027.403.403 0 1 0 0-.809zm0 0"/>
    <path d="M11.988 6.719a5.275 5.275 0 0 0-5.27 5.27 5.275 5.275 0 0 0 5.27 5.269 5.275 5.275 0 0 0 5.27-5.27 5.275 5.275 0 0 0-5.27-5.27zm0 9.73a4.47 4.47 0 0 1-4.46-4.46c0-2.462 2.003-4.462 4.46-4.462 2.461 0 4.461 2 4.461 4.461 0 2.457-2 4.461-4.46 4.461zm0 0"/>
</svg>
