<svg xmlns="http://www.w3.org/2000/svg" width="32" height="32" viewBox="0 0 24 24">
    <path d="M 20.699219 8.742188 C 15.882812 3.921875 8.039062 3.921875 3.21875 8.742188 L 0 11.960938 L 3.300781 15.257812 C 5.707031 17.667969 8.875 18.875 12.039062 18.875 C 15.207031 18.875 18.371094 17.667969 20.78125 15.257812 L 24 12.039062 Z M 20.207031 14.6875 C 15.703125 19.1875 8.375 19.1875 3.871094 14.6875 L 1.148438 11.960938 L 3.792969 9.3125 C 8.296875 4.808594 15.625 4.808594 20.128906 9.3125 L 22.851562 12.039062 Z M 20.207031 14.6875"/>
    <path d="M 11.582031 8.746094 C 10.019531 8.746094 8.746094 10.015625 8.746094 11.582031 C 8.746094 11.804688 8.925781 11.988281 9.152344 11.988281 C 9.375 11.988281 9.554688 11.804688 9.554688 11.582031 C 9.554688 10.464844 10.464844 9.554688 11.582031 9.554688 C 11.808594 9.554688 11.988281 9.375 11.988281 9.148438 C 11.988281 8.925781 11.808594 8.746094 11.582031 8.746094 Z M 11.582031 8.746094"/>
    <path d="M 11.988281 6.71875 C 9.082031 6.71875 6.71875 9.082031 6.71875 11.988281 C 6.71875 14.894531 9.082031 17.257812 11.988281 17.257812 C 14.894531 17.257812 17.257812 14.894531 17.257812 11.988281 C 17.257812 9.082031 14.894531 6.71875 11.988281 6.71875 Z M 11.988281 16.449219 C 9.53125 16.449219 7.527344 14.445312 7.527344 11.988281 C 7.527344 9.527344 9.53125 7.527344 11.988281 7.527344 C 14.449219 7.527344 16.449219 9.527344 16.449219 11.988281 C 16.449219 14.445312 14.449219 16.449219 11.988281 16.449219 Z M 11.988281 16.449219"/>
</svg>
