<svg xmlns="http://www.w3.org/2000/svg" width="32" height="32" viewBox="0 0 24 24">
    <path d="M12 8.039062C9.882812 8.039062 7.894531 8.863281 6.398438 10.359375 4.902344 11.855469 4.078125 13.84375 4.078125 15.960938 4.078125 18.078125 4.902344 20.066406 6.398438 21.5625 7.894531 23.058594 9.882812 23.882812 12 23.882812 14.117188 23.882812 16.105469 23.058594 17.601562 21.5625 19.097656 20.066406 19.921875 18.078125 19.921875 15.960938 19.921875 13.84375 19.097656 11.855469 17.601562 10.359375 16.105469 8.863281 14.117188 8.039062 12 8.039062zM16.941406 20.902344C15.621094 22.222656 13.867188 22.953125 12 22.953125 10.132812 22.953125 8.378906 22.222656 7.058594 20.902344 5.738281 19.582031 5.007812 17.828125 5.007812 15.960938 5.007812 14.09375 5.738281 12.339844 7.058594 11.019531 8.378906 9.699219 10.132812 8.972656 12 8.972656 13.710938 8.972656 15.324219 9.585938 16.597656 10.703125L11.671875 15.632812C11.488281 15.8125 11.488281 16.109375 11.671875 16.289062 11.761719 16.382812 11.878906 16.425781 12 16.425781 12.121094 16.425781 12.238281 16.382812 12.328125 16.289062L17.257812 11.363281C18.375 12.636719 18.992188 14.25 18.992188 15.960938 18.992188 17.828125 18.261719 19.582031 16.941406 20.902344zM12 3.84375C12.257812 3.84375 12.464844 3.636719 12.464844 3.378906L12.464844.582031C12.464844.324219 12.257812.117188 12 .117188 11.742188.117188 11.535156.324219 11.535156.582031L11.535156 3.378906C11.535156 3.636719 11.742188 3.84375 12 3.84375zM23.863281 5.03125C23.679688 4.847656 23.386719 4.847656 23.203125 5.03125L21.226562 7.007812C21.042969 7.191406 21.042969 7.484375 21.226562 7.667969 21.316406 7.757812 21.4375 7.804688 21.554688 7.804688 21.675781 7.804688 21.796875 7.757812 21.886719 7.667969L23.863281 5.6875C24.046875 5.507812 24.046875 5.210938 23.863281 5.03125zM.796875 5.03125C.613281 4.847656.320312 4.847656.136719 5.03125-.046875 5.210938-.046875 5.507812.136719 5.6875L2.113281 7.667969C2.203125 7.757812 2.324219 7.804688 2.445312 7.804688 2.5625 7.804688 2.683594 7.757812 2.773438 7.667969 2.957031 7.484375 2.957031 7.191406 2.773438 7.007812zM15.378906 4.289062C15.417969 4.300781 15.457031 4.304688 15.5 4.304688 15.703125 4.304688 15.894531 4.167969 15.949219 3.960938L16.671875 1.257812C16.738281 1.011719 16.589844.753906 16.34375.6875 16.09375.621094 15.835938.769531 15.769531 1.015625L15.046875 3.71875C14.980469 3.96875 15.128906 4.222656 15.378906 4.289062zM8.050781 3.960938C8.105469 4.167969 8.296875 4.304688 8.5 4.304688 8.542969 4.304688 8.582031 4.300781 8.621094 4.289062 8.871094 4.222656 9.019531 3.96875 8.953125 3.71875L8.226562 1.015625C8.160156.769531 7.90625.621094 7.65625.6875 7.410156.753906 7.261719 1.007812 7.328125 1.257812zM20.390625 2.363281C20.164062 2.234375 19.878906 2.3125 19.753906 2.535156L18.355469 4.957031C18.226562 5.179688 18.300781 5.464844 18.523438 5.59375 18.597656 5.636719 18.679688 5.65625 18.757812 5.65625 18.917969 5.65625 19.074219 5.570312 19.160156 5.421875L20.558594 3C20.6875 2.777344 20.613281 2.492188 20.390625 2.363281zM5.242188 5.65625C5.320312 5.65625 5.402344 5.636719 5.476562 5.59375 5.699219 5.464844 5.773438 5.179688 5.644531 4.957031L4.246094 2.535156C4.117188 2.3125 3.832031 2.234375 3.609375 2.363281 3.386719 2.492188 3.3125 2.777344 3.441406 3L4.839844 5.421875C4.925781 5.570312 5.082031 5.65625 5.242188 5.65625zM5.242188 5.65625"/>
</svg>
