<svg xmlns="http://www.w3.org/2000/svg" width="32" height="32" viewBox="0 0 24 24">
    <path d="M 12 0 C 5.382812 0 0 5.382812 0 12 C 0 18.617188 5.382812 24 12 24 C 18.617188 24 24 18.617188 24 12 C 24 5.382812 18.617188 0 12 0 Z M 12 23.078125 C 5.890625 23.078125 0.921875 18.109375 0.921875 12 C 0.921875 5.890625 5.890625 0.921875 12 0.921875 C 18.109375 0.921875 23.078125 5.890625 23.078125 12 C 23.078125 18.109375 18.109375 23.078125 12 23.078125 Z M 12 23.078125"/>
    <path d="M12 4.617188C11.746094 4.617188 11.539062 4.820312 11.539062 5.078125L11.539062 15.230469C11.539062 15.484375 11.746094 15.691406 12 15.691406 12.253906 15.691406 12.460938 15.484375 12.460938 15.230469L12.460938 5.078125C12.460938 4.820312 12.253906 4.617188 12 4.617188zM12 17.078125C11.746094 17.078125 11.539062 17.285156 11.539062 17.539062L11.539062 18.460938C11.539062 18.714844 11.746094 18.921875 12 18.921875 12.253906 18.921875 12.460938 18.714844 12.460938 18.460938L12.460938 17.539062C12.460938 17.285156 12.253906 17.078125 12 17.078125zM12 17.078125"/>
</svg>
