<svg xmlns="http://www.w3.org/2000/svg" width="32" height="32" viewBox="0 0 24 24">
    <path d="M23.871 8.36C20.707 5.19 16.488 3.45 12 3.45S3.293 5.19.129 8.36a.434.434 0 0 0 0 .617.434.434 0 0 0 .617 0c3-3 6.996-4.653 11.254-4.653 4.258 0 8.254 1.653 11.254 4.653a.432.432 0 0 0 .617 0 .434.434 0 0 0 0-.618zm0 0"/>
    <path d="M2.7 10.926a.439.439 0 0 0 0 .62.437.437 0 0 0 .308.126c.11 0 .222-.043.308-.125 4.79-4.79 12.579-4.79 17.368 0a.44.44 0 0 0 .617 0 .439.439 0 0 0 0-.621c-5.13-5.13-13.473-5.13-18.602 0zm0 0"/>
    <path d="M12 10.71a9.473 9.473 0 0 0-6.734 2.786.44.44 0 0 0 0 .617c.171.172.449.172.62 0A8.588 8.588 0 0 1 12 11.586c2.313 0 4.484.898 6.113 2.527a.44.44 0 0 0 .621 0 .44.44 0 0 0 0-.617A9.473 9.473 0 0 0 12 10.711zm0 0M12 14.824a2.867 2.867 0 0 0-2.863 2.864A2.867 2.867 0 0 0 12 20.55a2.867 2.867 0 0 0 2.863-2.863A2.867 2.867 0 0 0 12 14.823zm0 4.852a1.989 1.989 0 1 1 .001-3.978A1.989 1.989 0 0 1 12 19.676zm0 0"/>
</svg>
