<svg xmlns="http://www.w3.org/2000/svg" width="32" height="32" viewBox="0 0 24 24">
    <path d="M 23.847656 6.550781 L 23.988281 6.410156 L 23.980469 6.019531 L 16.695312 0 L 16.695312 3.695312 C 16.539062 3.695312 16.382812 3.699219 16.214844 3.707031 C 13.011719 3.820312 10.214844 5.554688 8.785156 8.167969 L 4.300781 8.167969 L 0.230469 14.269531 L 0.0546875 14.277344 L 0.0546875 14.597656 L 0.0117188 14.699219 L 0.0546875 14.765625 L 0.0546875 22.625 C 0.0546875 23.382812 0.671875 24 1.429688 24 L 22.222656 24 C 22.980469 24 23.597656 23.382812 23.597656 22.625 L 23.597656 14.757812 L 23.644531 14.6875 L 23.589844 14.566406 L 23.578125 14.257812 L 23.40625 14.257812 L 20.304688 9.601562 Z M 16.246094 4.515625 C 16.402344 4.511719 16.546875 4.507812 16.695312 4.507812 C 16.824219 4.507812 16.953125 4.511719 17.089844 4.515625 L 17.507812 4.527344 L 17.507812 1.722656 L 22.96875 6.234375 L 19.851562 8.921875 L 17.507812 10.9375 L 17.507812 8.359375 L 17.179688 8.296875 C 17.125 8.285156 11.992188 7.367188 8.613281 11.386719 C 8.652344 11.007812 8.730469 10.558594 8.871094 10.066406 C 8.871094 10.0625 8.871094 10.0625 8.871094 10.058594 C 8.933594 9.84375 9.007812 9.628906 9.09375 9.414062 C 9.09375 9.410156 9.09375 9.410156 9.097656 9.40625 C 9.183594 9.191406 9.28125 8.972656 9.390625 8.757812 C 10.648438 6.28125 13.25 4.625 16.246094 4.515625 Z M 22.785156 22.625 C 22.785156 22.9375 22.535156 23.1875 22.222656 23.1875 L 1.429688 23.1875 C 1.117188 23.1875 0.867188 22.9375 0.867188 22.625 L 0.867188 15.070312 L 6.953125 15.070312 L 6.953125 17.910156 L 16.695312 17.910156 L 16.695312 15.070312 L 22.785156 15.070312 Z M 22.4375 14.257812 L 15.886719 14.257812 L 15.886719 17.097656 L 7.765625 17.097656 L 7.765625 14.257812 L 1.214844 14.257812 L 4.738281 8.980469 L 8.390625 8.980469 C 8.382812 9.007812 8.371094 9.035156 8.363281 9.0625 C 8.328125 9.140625 8.296875 9.222656 8.269531 9.300781 C 8.203125 9.484375 8.140625 9.664062 8.089844 9.84375 C 7.628906 11.457031 7.792969 12.644531 7.800781 12.695312 L 7.960938 13.773438 L 8.546875 12.851562 C 11.152344 8.75 15.464844 8.90625 16.695312 9.046875 L 16.695312 12.707031 L 18.675781 11.003906 L 19.6875 10.136719 Z M 22.4375 14.257812"/>
</svg>
