<svg xmlns="http://www.w3.org/2000/svg" width="32" height="32" viewBox="0 0 24 24">
    <path d="M 18.367188 2.070312 L 5.632812 2.070312 L 0.238281 7.046875 L 0 7.058594 L 0 21.929688 L 24 21.921875 L 24 7.265625 Z M 5.953125 2.898438 L 18.046875 2.898438 L 22.527344 7.035156 L 15.714844 7.039062 L 15.648438 7.371094 C 15.296875 9.09375 13.761719 10.34375 12 10.34375 C 10.242188 10.34375 8.710938 9.089844 8.351562 7.359375 L 8.285156 7.03125 L 1.472656 7.035156 Z M 23.171875 21.09375 L 0.828125 21.101562 L 0.828125 14.914062 L 7.628906 14.910156 C 8.1875 16.832031 9.96875 18.1875 12 18.1875 C 14.035156 18.1875 15.820312 16.828125 16.375 14.910156 L 23.171875 14.90625 Z M 8.5 14.910156 L 15.5 14.910156 C 14.980469 16.355469 13.582031 17.359375 12 17.359375 C 10.421875 17.359375 9.027344 16.355469 8.5 14.910156 Z M 15.714844 14.070312 L 15.714844 14.082031 L 8.289062 14.085938 L 8.285156 14.070312 L 0.828125 14.070312 L 0.828125 7.863281 L 7.625 7.859375 C 8.179688 9.796875 9.96875 11.171875 12 11.171875 C 14.039062 11.171875 15.828125 9.800781 16.378906 7.867188 L 23.171875 7.863281 L 23.171875 14.070312 Z M 15.714844 14.070312"/>
</svg>
