<svg xmlns="http://www.w3.org/2000/svg" width="32" height="32" viewBox="0 0 24 24">
    <path d="M 16.796875 0 L 7.199219 0 C 3.230469 0 0.00390625 3.230469 0.00390625 7.199219 L 0.00390625 12.796875 C 0.00390625 16.632812 3.015625 19.777344 6.800781 19.984375 L 6.800781 23.320312 C 6.800781 23.597656 6.964844 23.84375 7.21875 23.949219 C 7.304688 23.984375 7.394531 24 7.480469 24 C 7.65625 24 7.828125 23.929688 7.960938 23.800781 L 8.710938 23.050781 C 10.679688 21.078125 13.300781 19.996094 16.085938 19.996094 L 16.796875 19.996094 C 20.769531 19.996094 23.996094 16.765625 23.996094 12.796875 L 23.996094 7.199219 C 23.996094 3.230469 20.769531 0 16.796875 0 Z M 23.195312 12.796875 C 23.195312 16.324219 20.328125 19.195312 16.796875 19.195312 L 16.085938 19.195312 C 13.085938 19.195312 10.265625 20.363281 8.144531 22.484375 L 7.601562 23.027344 L 7.601562 17.59375 C 7.601562 17.375 7.421875 17.195312 7.203125 17.195312 C 6.980469 17.195312 6.800781 17.375 6.800781 17.59375 L 6.800781 19.175781 C 3.460938 18.96875 0.804688 16.191406 0.804688 12.796875 L 0.804688 7.199219 C 0.804688 3.671875 3.671875 0.800781 7.203125 0.800781 L 16.800781 0.800781 C 20.328125 0.800781 23.199219 3.671875 23.199219 7.199219 L 23.199219 12.796875 Z M 23.195312 12.796875"/>
</svg>
