<svg xmlns="http://www.w3.org/2000/svg" width="32" height="32" viewBox="0 0 24 24">
    <path d="M 23.980469 23.472656 L 22.042969 17.660156 C 23.0625 15.878906 23.601562 13.859375 23.601562 11.800781 C 23.601562 5.292969 18.308594 0 11.800781 0 C 5.292969 0 0 5.292969 0 11.800781 C 0 18.308594 5.292969 23.601562 11.800781 23.601562 C 13.65625 23.601562 15.503906 23.15625 17.152344 22.316406 L 23.496094 23.988281 C 23.53125 23.996094 23.566406 24 23.601562 24 C 23.707031 24 23.816406 23.957031 23.890625 23.875 C 23.992188 23.765625 24.027344 23.613281 23.980469 23.472656 Z M 17.207031 21.503906 C 17.203125 21.503906 17.199219 21.503906 17.195312 21.503906 C 17.195312 21.503906 17.191406 21.5 17.191406 21.5 L 14.085938 20.808594 C 13.871094 20.761719 13.65625 20.898438 13.609375 21.113281 C 13.5625 21.328125 13.699219 21.542969 13.914062 21.589844 L 15.851562 22.023438 C 14.566406 22.53125 13.1875 22.800781 11.800781 22.800781 C 5.734375 22.800781 0.800781 17.867188 0.800781 11.800781 C 0.800781 5.734375 5.734375 0.800781 11.800781 0.800781 C 17.867188 0.800781 22.800781 5.734375 22.800781 11.800781 C 22.800781 13.777344 22.269531 15.71875 21.261719 17.410156 C 21.203125 17.511719 21.1875 17.628906 21.226562 17.742188 L 22.988281 23.023438 Z M 17.207031 21.503906"/>
    <path d="M6.398438 9.207031L12 9.207031C12.222656 9.207031 12.398438 9.027344 12.398438 8.804688 12.398438 8.585938 12.222656 8.40625 12 8.40625L6.398438 8.40625C6.179688 8.40625 6 8.585938 6 8.804688 6 9.027344 6.179688 9.207031 6.398438 9.207031zM17.199219 11.605469L6.398438 11.605469C6.179688 11.605469 6 11.785156 6 12.007812 6 12.226562 6.179688 12.40625 6.398438 12.40625L17.199219 12.40625C17.421875 12.40625 17.601562 12.226562 17.601562 12.007812 17.601562 11.785156 17.421875 11.605469 17.199219 11.605469zM17.199219 14.804688L6.398438 14.804688C6.179688 14.804688 6 14.984375 6 15.207031 6 15.425781 6.179688 15.605469 6.398438 15.605469L17.199219 15.605469C17.421875 15.605469 17.601562 15.425781 17.601562 15.207031 17.601562 14.984375 17.421875 14.804688 17.199219 14.804688zM17.199219 14.804688"/>
</svg>
