<svg xmlns="http://www.w3.org/2000/svg" width="32" height="32" viewBox="0 0 24 24">
    <path d="M8 11.602h4.398a.401.401 0 0 0 0-.8L8 10.8a.398.398 0 0 0-.398.398c0 .223.175.403.398.403zm0 0M14.398 13.602H6a.395.395 0 0 0-.398.398c0 .223.175.398.398.398h8.398a.398.398 0 1 0 0-.796zm0 0M14.398 16.398H6a.398.398 0 0 0-.398.403c0 .219.175.398.398.398h8.398a.401.401 0 1 0 0-.8zm0 0"/>
    <path d="M23.98 19.074l-1.558-4.68a9.643 9.643 0 0 0 1.254-4.757C23.676 4.324 19.352 0 14.039 0a9.639 9.639 0 0 0-8.754 5.617 9.627 9.627 0 0 0-3.703 13.18L.02 23.473a.402.402 0 0 0 .48.515l5.117-1.347a9.637 9.637 0 0 0 4.344 1.035c3.785 0 7.066-2.196 8.644-5.375l4.891 1.285c.035.008.07.016.106.016a.397.397 0 0 0 .289-.13.395.395 0 0 0 .09-.398zM9.96 22.875a8.83 8.83 0 0 1-3.019-.535l1.325-.293a.403.403 0 0 0 .304-.477.398.398 0 0 0-.476-.304l-2.516.558c-.004 0-.008.004-.008.004h-.008l-4.55 1.195 1.383-4.148a.388.388 0 0 0-.036-.328A8.84 8.84 0 0 1 6.02 6.129l.153-.074c.078-.035.16-.075.242-.11a5.808 5.808 0 0 1 .434-.175c.117-.047.234-.086.351-.125l.102-.036c.164-.05.332-.097.5-.14.004-.004.011-.004.02-.004.156-.04.316-.074.476-.106.035-.007.07-.011.101-.02.133-.023.27-.042.403-.062.043-.004.086-.011.133-.015.129-.016.257-.028.386-.035l.133-.012c.168-.012.34-.016.508-.016 4.875 0 8.84 3.965 8.84 8.84 0 .152-.004.305-.012.461-.004.07-.012.137-.016.207-.007.082-.011.164-.02.246-.007.082-.023.164-.03.242-.012.07-.016.137-.028.207-.011.082-.03.16-.043.243-.015.066-.023.136-.039.203-.015.074-.035.148-.05.226-.02.07-.036.145-.055.215l-.059.207c-.023.078-.043.156-.07.23-.02.063-.043.126-.063.188-.027.082-.058.164-.086.242a3.61 3.61 0 0 1-.074.184 5.807 5.807 0 0 1-.097.23c-1.364 3.121-4.48 5.305-8.098 5.305zm8.974-5.316c.007-.016.011-.036.02-.051.093-.246.175-.492.253-.746l.035-.125c.067-.246.13-.496.18-.754l.023-.13c.043-.257.082-.515.11-.78.004-.032.004-.063.008-.094a9.99 9.99 0 0 0 .039-.84c0-5.316-4.325-9.64-9.641-9.64-.285 0-.566.015-.844.038-.023.004-.043.004-.066.008-.278.024-.551.063-.82.114l-.067.011a9 9 0 0 0-.793.188l-.086.023c-.254.074-.5.157-.742.246-.02.008-.04.012-.055.02A8.846 8.846 0 0 1 14.04.8c4.871 0 8.836 3.965 8.836 8.836 0 1.59-.426 3.148-1.234 4.508a.398.398 0 0 0-.036.332l1.383 4.148zm0 0"/>
</svg>
