<svg xmlns="http://www.w3.org/2000/svg" width="32" height="32" viewBox="0 0 24 24">
    <path d="M4.8 6.8h6a.401.401 0 0 0 0-.8h-6a.401.401 0 1 0 0 .8zm0 0M18.398 9.2H4.801a.401.401 0 0 0 0 .8h13.597a.401.401 0 1 0 0-.8zm0 0M18.398 12.398H4.801a.401.401 0 0 0 0 .8l13.597.001a.401.401 0 1 0 0-.8zm0 0"/>
    <path d="M21.602.8H2.398C1.098.8 0 1.899 0 3.2v13.198c0 1.301 1.098 2.403 2.398 2.403h3.204v4a.398.398 0 0 0 .398.398c.11 0 .219-.047.297-.129l3.879-4.27h11.426c1.3 0 2.398-1.1 2.398-2.402V3.2C24 1.9 22.902.801 21.602.801zm1.597 15.598A1.62 1.62 0 0 1 21.602 18h-10.73l1.433-1.664a.4.4 0 0 0-.043-.563.405.405 0 0 0-.567.04l-1.992 2.316-3.305 3.637v-3.368A.398.398 0 0 0 6 18H2.398a1.62 1.62 0 0 1-1.597-1.602V3.2c0-.867.73-1.597 1.597-1.597h19.204c.867 0 1.597.73 1.597 1.597zm0 0"/>
</svg>
