<svg xmlns="http://www.w3.org/2000/svg" width="32" height="32" viewBox="0 0 24 24">
    <path d="M22.938.316H5.063C4.476.316 4 .793 4 1.38v3.738H1.062C.478 5.117 0 5.594 0 6.18v17.504l3.766-3.766h13.972c.586 0 1.063-.477 1.063-1.063v-2.539h1.433L24 20.082V1.379c0-.586-.477-1.063-1.063-1.063zM18 18.856a.262.262 0 0 1-.262.261H3.434L.8 21.75V6.18c0-.145.117-.262.261-.262h16.676c.145 0 .262.117.262.262zm5.2-.704l-2.634-2.636h-1.765V6.18c0-.586-.477-1.063-1.063-1.063H4.801V1.38c0-.145.117-.262.261-.262h17.875c.145 0 .262.117.262.262zm0 0"/>
</svg>
