<svg xmlns="http://www.w3.org/2000/svg" width="32" height="32" viewBox="0 0 24 24">
    <path d="M22.36 14.816c1.074-1.507 1.64-3.25 1.64-5.05C24 4.602 19.336.398 13.602.398 9.652.398 6 2.457 4.262 5.645 1.68 7.352 0 10.102 0 13.199 0 15 .566 16.742 1.64 18.25c-.202 2.23-.742 3.887-1.523 4.668a.397.397 0 0 0-.074.46.398.398 0 0 0 .355.224c.02 0 .04-.004.059-.004.137-.02 3.371-.489 5.727-1.836 1.332.535 2.75.804 4.218.804 3.407 0 6.442-1.488 8.336-3.777 2.207.996 4.696 1.356 4.805 1.371.02.004.039.004.059.004a.397.397 0 0 0 .281-.68c-.781-.78-1.32-2.437-1.524-4.668zm-11.962 6.95c-1.156 0-2.277-.184-3.343-.54 1.332-.835 1.336-.902 1.332-1.128a.398.398 0 0 0-.196-.344.4.4 0 0 0-.53.11c-.196.152-1 .667-1.716 1.109-1.48.894-3.46 1.41-4.625 1.652.72-1.27 1.016-3.05 1.133-4.453a.402.402 0 0 0-.078-.274C1.344 16.504.801 14.875.801 13.2c0-2.886 1.61-5.441 4.07-6.996.156-.098.313-.191.477-.281.035-.02.066-.04.101-.059.172-.09.344-.176.516-.258l.191-.085c.176-.079.352-.153.535-.22.063-.023.13-.046.192-.07a17.927 17.927 0 0 1 .633-.199c.183-.054.375-.101.566-.14.066-.016.137-.032.207-.043.168-.035.336-.067.508-.09l.133-.024c.207-.027.418-.046.629-.066l.18-.012c.214-.011.429-.02.644-.02.008 0 .012-.003.02-.003 4.96 0 9.054 3.379 9.55 7.691.031.29.047.582.047.875 0 .196-.012.387-.023.578-.004.051-.008.098-.016.149-.016.18-.035.355-.066.531 0 .012-.004.027-.004.043-.032.184-.075.363-.118.543a9.425 9.425 0 0 1-.184.637c-.015.043-.03.082-.042.12a9.102 9.102 0 0 1-.18.454c-.027.062-.05.121-.078.18-.074.156-.148.312-.23.464-.024.043-.051.086-.075.13-.074.128-.148.257-.226.382l-.106.164c-.101.145-.203.293-.312.434-1.727 2.265-4.64 3.758-7.942 3.758zm8.84-3.63c.016-.023.032-.05.047-.073a9.29 9.29 0 0 0 .266-.415c.05-.082.094-.168.14-.25.051-.085.094-.171.141-.257.043-.086.086-.168.125-.254a6.18 6.18 0 0 0 .164-.367c.043-.098.082-.2.121-.297.043-.114.082-.227.121-.34.024-.074.051-.153.07-.227.04-.125.075-.254.106-.379a6.651 6.651 0 0 0 .148-.715c.012-.058.02-.117.028-.171a8.02 8.02 0 0 0 .047-.43c.008-.059.011-.117.015-.176.012-.191.024-.387.024-.586 0-5.164-4.664-9.363-10.403-9.363h-.066c-.168 0-.332.004-.5.012-.074.004-.152.011-.23.015-.11.008-.22.016-.329.028-.09.007-.183.02-.273.03-.09.013-.184.024-.273.036l-.301.047c-.078.016-.156.031-.235.043-.105.023-.21.043-.32.07a3.366 3.366 0 0 0-.191.043l-.348.09a11.519 11.519 0 0 0-1.453.516l-.11.046C7.556 2.583 10.474 1.2 13.603 1.2c5.293 0 9.597 3.844 9.597 8.567 0 1.675-.543 3.3-1.574 4.699a.402.402 0 0 0-.078.273c.117 1.403.414 3.184 1.133 4.453-.875-.183-2.207-.52-3.442-1.054zm0 0"/>
</svg>
