<svg xmlns="http://www.w3.org/2000/svg" width="32" height="32" viewBox="0 0 24 24">
    <path d="M 22.09375 17.242188 C 23.339844 15.5 24 13.480469 24 11.398438 C 24 5.445312 18.617188 0.601562 12 0.601562 C 5.382812 0.601562 0 5.445312 0 11.398438 C 0 17.355469 5.382812 22.199219 12 22.199219 C 13.703125 22.199219 15.351562 21.882812 16.898438 21.261719 C 19.621094 22.832031 23.382812 23.375 23.542969 23.394531 C 23.5625 23.398438 23.582031 23.398438 23.601562 23.398438 C 23.75 23.398438 23.890625 23.316406 23.957031 23.179688 C 24.035156 23.023438 24.003906 22.839844 23.882812 22.71875 C 22.960938 21.796875 22.328125 19.855469 22.09375 17.242188 Z M 17.136719 20.472656 C 16.292969 19.953125 15.347656 19.347656 15.128906 19.171875 C 15.011719 19 14.777344 18.949219 14.59375 19.058594 C 14.472656 19.128906 14.398438 19.261719 14.398438 19.402344 C 14.398438 19.636719 14.402344 19.710938 16.03125 20.726562 C 14.746094 21.171875 13.394531 21.398438 12 21.398438 C 5.824219 21.398438 0.800781 16.914062 0.800781 11.398438 C 0.800781 5.886719 5.824219 1.398438 12 1.398438 C 18.175781 1.398438 23.199219 5.886719 23.199219 11.398438 C 23.199219 13.359375 22.5625 15.257812 21.359375 16.890625 C 21.300781 16.96875 21.273438 17.0625 21.28125 17.160156 C 21.421875 18.832031 21.777344 20.957031 22.660156 22.425781 C 21.328125 22.152344 18.925781 21.554688 17.136719 20.472656 Z M 17.136719 20.472656"/>
    <path d="M6.398438 9.800781C5.519531 9.800781 4.800781 10.519531 4.800781 11.398438 4.800781 12.28125 5.519531 13 6.398438 13 7.28125 13 8 12.28125 8 11.398438 8 10.519531 7.28125 9.800781 6.398438 9.800781zM6.398438 12.199219C5.957031 12.199219 5.601562 11.839844 5.601562 11.398438 5.601562 10.957031 5.957031 10.601562 6.398438 10.601562 6.839844 10.601562 7.199219 10.957031 7.199219 11.398438 7.199219 11.839844 6.839844 12.199219 6.398438 12.199219zM12 9.800781C11.117188 9.800781 10.398438 10.519531 10.398438 11.398438 10.398438 12.28125 11.117188 13 12 13 12.882812 13 13.601562 12.28125 13.601562 11.398438 13.601562 10.519531 12.882812 9.800781 12 9.800781zM12 12.199219C11.558594 12.199219 11.199219 11.839844 11.199219 11.398438 11.199219 10.957031 11.558594 10.601562 12 10.601562 12.441406 10.601562 12.800781 10.957031 12.800781 11.398438 12.800781 11.839844 12.441406 12.199219 12 12.199219zM17.601562 9.800781C16.71875 9.800781 16 10.519531 16 11.398438 16 12.28125 16.71875 13 17.601562 13 18.480469 13 19.199219 12.28125 19.199219 11.398438 19.199219 10.519531 18.480469 9.800781 17.601562 9.800781zM17.601562 12.199219C17.160156 12.199219 16.800781 11.839844 16.800781 11.398438 16.800781 10.957031 17.160156 10.601562 17.601562 10.601562 18.042969 10.601562 18.398438 10.957031 18.398438 11.398438 18.398438 11.839844 18.042969 12.199219 17.601562 12.199219zM17.601562 12.199219"/>
</svg>
