<svg xmlns="http://www.w3.org/2000/svg" width="32" height="32" viewBox="0 0 24 24">
    <path d="M 23.980469 19.074219 L 22.421875 14.394531 C 23.242188 12.949219 23.675781 11.308594 23.675781 9.636719 C 23.675781 4.324219 19.351562 0 14.039062 0 C 10.273438 0 6.855469 2.199219 5.285156 5.613281 C 2.328125 7.261719 0.324219 10.421875 0.324219 14.039062 C 0.324219 15.707031 0.757812 17.347656 1.582031 18.796875 L 0.0195312 23.472656 C -0.0273438 23.613281 0.0078125 23.765625 0.109375 23.875 C 0.183594 23.957031 0.292969 24 0.398438 24 C 0.433594 24 0.46875 23.996094 0.503906 23.988281 L 5.617188 22.640625 C 6.957031 23.320312 8.457031 23.675781 9.960938 23.675781 C 13.746094 23.675781 17.027344 21.480469 18.605469 18.300781 L 23.496094 19.585938 C 23.53125 19.59375 23.566406 19.601562 23.601562 19.601562 C 23.707031 19.601562 23.816406 19.554688 23.890625 19.472656 C 23.992188 19.367188 24.027344 19.210938 23.980469 19.074219 Z M 9.960938 22.875 C 8.929688 22.875 7.90625 22.691406 6.941406 22.339844 L 8.265625 22.046875 C 8.480469 21.996094 8.617188 21.785156 8.570312 21.570312 C 8.523438 21.351562 8.304688 21.21875 8.09375 21.265625 L 5.578125 21.824219 C 5.574219 21.824219 5.574219 21.828125 5.570312 21.828125 C 5.566406 21.828125 5.566406 21.828125 5.5625 21.828125 L 1.011719 23.023438 L 2.394531 18.875 C 2.433594 18.765625 2.421875 18.644531 2.359375 18.546875 C 1.550781 17.183594 1.125 15.625 1.125 14.039062 C 1.125 10.582031 3.121094 7.582031 6.019531 6.132812 C 6.070312 6.105469 6.117188 6.082031 6.171875 6.054688 C 6.25 6.019531 6.332031 5.980469 6.414062 5.945312 C 6.492188 5.910156 6.566406 5.878906 6.644531 5.847656 C 6.710938 5.820312 6.777344 5.792969 6.847656 5.769531 C 6.960938 5.726562 7.078125 5.683594 7.191406 5.644531 C 7.230469 5.632812 7.265625 5.621094 7.300781 5.609375 C 7.464844 5.558594 7.628906 5.511719 7.796875 5.46875 C 7.804688 5.464844 7.816406 5.464844 7.824219 5.460938 C 7.980469 5.421875 8.136719 5.390625 8.296875 5.359375 C 8.332031 5.351562 8.367188 5.347656 8.402344 5.339844 C 8.53125 5.316406 8.667969 5.296875 8.800781 5.277344 C 8.84375 5.273438 8.886719 5.265625 8.933594 5.261719 C 9.0625 5.246094 9.191406 5.234375 9.320312 5.226562 C 9.363281 5.222656 9.40625 5.21875 9.449219 5.214844 C 9.621094 5.207031 9.792969 5.199219 9.960938 5.199219 C 14.835938 5.199219 18.800781 9.164062 18.800781 14.039062 C 18.800781 14.191406 18.796875 14.34375 18.789062 14.5 C 18.785156 14.570312 18.777344 14.644531 18.769531 14.71875 C 18.765625 14.796875 18.761719 14.875 18.753906 14.953125 C 18.742188 15.039062 18.730469 15.121094 18.71875 15.207031 C 18.710938 15.273438 18.703125 15.335938 18.695312 15.402344 C 18.679688 15.484375 18.664062 15.570312 18.648438 15.652344 C 18.636719 15.71875 18.625 15.78125 18.613281 15.847656 C 18.597656 15.925781 18.578125 16 18.558594 16.078125 C 18.542969 16.148438 18.527344 16.21875 18.507812 16.289062 C 18.488281 16.359375 18.46875 16.429688 18.449219 16.5 C 18.425781 16.574219 18.402344 16.652344 18.378906 16.726562 C 18.359375 16.789062 18.335938 16.855469 18.316406 16.914062 C 18.289062 16.996094 18.257812 17.078125 18.226562 17.160156 C 18.207031 17.21875 18.183594 17.277344 18.160156 17.335938 C 18.125 17.417969 18.09375 17.496094 18.058594 17.578125 C 16.691406 20.691406 13.578125 22.875 9.960938 22.875 Z M 18.933594 17.558594 C 18.941406 17.542969 18.945312 17.523438 18.953125 17.507812 C 19.046875 17.261719 19.132812 17.011719 19.207031 16.761719 C 19.21875 16.71875 19.230469 16.679688 19.242188 16.636719 C 19.308594 16.390625 19.371094 16.140625 19.421875 15.882812 C 19.429688 15.839844 19.4375 15.796875 19.445312 15.753906 C 19.492188 15.496094 19.527344 15.238281 19.554688 14.972656 C 19.558594 14.941406 19.558594 14.910156 19.5625 14.878906 C 19.585938 14.601562 19.601562 14.320312 19.601562 14.039062 C 19.601562 8.722656 15.277344 4.398438 9.960938 4.398438 C 9.675781 4.398438 9.394531 4.414062 9.117188 4.4375 C 9.09375 4.441406 9.074219 4.441406 9.050781 4.445312 C 8.773438 4.46875 8.5 4.507812 8.230469 4.558594 C 8.210938 4.5625 8.1875 4.566406 8.164062 4.570312 C 7.894531 4.621094 7.632812 4.683594 7.371094 4.757812 C 7.34375 4.765625 7.3125 4.773438 7.285156 4.78125 C 7.03125 4.855469 6.785156 4.9375 6.542969 5.027344 C 6.523438 5.035156 6.503906 5.039062 6.488281 5.046875 C 8.074219 2.4375 10.929688 0.800781 14.039062 0.800781 C 18.910156 0.800781 22.875 4.765625 22.875 9.636719 C 22.875 11.226562 22.449219 12.785156 21.640625 14.144531 C 21.582031 14.246094 21.566406 14.367188 21.605469 14.476562 L 22.988281 18.625 Z M 18.933594 17.558594"/>
    <path d="M5.601562 12.398438C4.71875 12.398438 4 13.117188 4 14 4 14.882812 4.71875 15.601562 5.601562 15.601562 6.480469 15.601562 7.199219 14.882812 7.199219 14 7.199219 13.117188 6.480469 12.398438 5.601562 12.398438zM5.601562 14.800781C5.160156 14.800781 4.800781 14.441406 4.800781 14 4.800781 13.558594 5.160156 13.199219 5.601562 13.199219 6.042969 13.199219 6.398438 13.558594 6.398438 14 6.398438 14.441406 6.042969 14.800781 5.601562 14.800781zM10 12.398438C9.117188 12.398438 8.398438 13.117188 8.398438 14 8.398438 14.882812 9.117188 15.601562 10 15.601562 10.882812 15.601562 11.601562 14.882812 11.601562 14 11.601562 13.117188 10.882812 12.398438 10 12.398438zM10 14.800781C9.558594 14.800781 9.199219 14.441406 9.199219 14 9.199219 13.558594 9.558594 13.199219 10 13.199219 10.441406 13.199219 10.800781 13.558594 10.800781 14 10.800781 14.441406 10.441406 14.800781 10 14.800781zM14.398438 12.398438C13.519531 12.398438 12.800781 13.117188 12.800781 14 12.800781 14.882812 13.519531 15.601562 14.398438 15.601562 15.28125 15.601562 16 14.882812 16 14 16 13.117188 15.28125 12.398438 14.398438 12.398438zM14.398438 14.800781C13.957031 14.800781 13.601562 14.441406 13.601562 14 13.601562 13.558594 13.957031 13.199219 14.398438 13.199219 14.839844 13.199219 15.199219 13.558594 15.199219 14 15.199219 14.441406 14.839844 14.800781 14.398438 14.800781zM14.398438 14.800781"/>
</svg>
