<svg xmlns="http://www.w3.org/2000/svg" width="32" height="32" viewBox="0 0 24 24">
    <path d="M11.152 2.004c-3.129.363-6.015 2.305-7.53 5.07a.398.398 0 0 0 .347.594.393.393 0 0 0 .351-.207c1.395-2.543 4.051-4.328 6.926-4.664a.4.4 0 1 0-.094-.793zm0 0"/>
    <path d="M23.98 23.473l-1.937-5.813a11.785 11.785 0 0 0 1.559-5.86C23.602 5.294 18.309 0 11.8 0S0 5.293 0 11.8c0 6.509 5.293 11.802 11.8 11.802 1.856 0 3.704-.446 5.352-1.286l6.344 1.672c.035.008.07.012.106.012a.402.402 0 0 0 .379-.527zm-6.773-1.97h-.012l-.004-.003-3.105-.691a.403.403 0 0 0-.477.304c-.046.215.09.43.305.477l1.938.433a11.048 11.048 0 0 1-4.051.778c-6.067 0-11-4.934-11-11 0-6.067 4.933-11 11-11 6.062 0 11 4.933 11 11 0 1.976-.531 3.918-1.54 5.61a.396.396 0 0 0-.034.331l1.761 5.281zm0 0"/>
</svg>
