<svg xmlns="http://www.w3.org/2000/svg" width="32" height="32" viewBox="0 0 24 24">
    <path d="M21.602.8H2.398C1.098.8 0 1.899 0 3.2v13.198c0 1.301 1.098 2.403 2.398 2.403h11.426l3.88 4.27a.415.415 0 0 0 .296.128.398.398 0 0 0 .398-.398v-4h3.204c1.3 0 2.398-1.102 2.398-2.403V3.2C24 1.9 22.902.801 21.602.801zm1.597 15.598A1.62 1.62 0 0 1 21.602 18H18a.398.398 0 0 0-.398.398v3.368l-3.297-3.63-2-2.323a.405.405 0 0 0-.567-.04.4.4 0 0 0-.043.563L13.13 18H2.399A1.62 1.62 0 0 1 .8 16.398V3.2c0-.867.73-1.597 1.597-1.597h19.204c.867 0 1.597.73 1.597 1.597zm0 0"/>
</svg>
