<svg xmlns="http://www.w3.org/2000/svg" width="32" height="32" viewBox="0 0 24 24">
    <path d="M6.398438 8C5.519531 8 4.800781 8.71875 4.800781 9.601562 4.800781 10.480469 5.519531 11.199219 6.398438 11.199219 7.28125 11.199219 8 10.480469 8 9.601562 8 8.71875 7.28125 8 6.398438 8zM6.398438 10.398438C5.957031 10.398438 5.601562 10.042969 5.601562 9.601562 5.601562 9.160156 5.957031 8.800781 6.398438 8.800781 6.839844 8.800781 7.199219 9.160156 7.199219 9.601562 7.199219 10.042969 6.839844 10.398438 6.398438 10.398438zM12 8C11.117188 8 10.398438 8.71875 10.398438 9.601562 10.398438 10.480469 11.117188 11.199219 12 11.199219 12.882812 11.199219 13.601562 10.480469 13.601562 9.601562 13.601562 8.71875 12.882812 8 12 8zM12 10.398438C11.558594 10.398438 11.199219 10.042969 11.199219 9.601562 11.199219 9.160156 11.558594 8.800781 12 8.800781 12.441406 8.800781 12.800781 9.160156 12.800781 9.601562 12.800781 10.042969 12.441406 10.398438 12 10.398438zM17.601562 8C16.71875 8 16 8.71875 16 9.601562 16 10.480469 16.71875 11.199219 17.601562 11.199219 18.480469 11.199219 19.199219 10.480469 19.199219 9.601562 19.199219 8.71875 18.480469 8 17.601562 8zM17.601562 10.398438C17.160156 10.398438 16.800781 10.042969 16.800781 9.601562 16.800781 9.160156 17.160156 8.800781 17.601562 8.800781 18.042969 8.800781 18.398438 9.160156 18.398438 9.601562 18.398438 10.042969 18.042969 10.398438 17.601562 10.398438zM17.601562 10.398438"/>
    <path d="M 21.601562 0.800781 L 2.398438 0.800781 C 1.097656 0.800781 0 1.898438 0 3.199219 L 0 16.398438 C 0 17.699219 1.097656 18.800781 2.398438 18.800781 L 5.601562 18.800781 L 5.601562 22.800781 C 5.601562 22.964844 5.703125 23.113281 5.855469 23.171875 C 5.902344 23.191406 5.953125 23.199219 6 23.199219 C 6.109375 23.199219 6.21875 23.15625 6.296875 23.070312 L 10.175781 18.800781 L 21.601562 18.800781 C 22.902344 18.800781 24 17.699219 24 16.398438 L 24 3.199219 C 24 1.898438 22.902344 0.800781 21.601562 0.800781 Z M 23.199219 16.398438 C 23.199219 17.265625 22.46875 18 21.601562 18 L 10.871094 18 L 12.304688 16.335938 C 12.445312 16.167969 12.429688 15.914062 12.261719 15.773438 C 12.09375 15.628906 11.839844 15.644531 11.695312 15.8125 L 9.703125 18.128906 L 6.398438 21.765625 L 6.398438 18.398438 C 6.398438 18.179688 6.222656 18 6 18 L 2.398438 18 C 1.53125 18 0.800781 17.265625 0.800781 16.398438 L 0.800781 3.199219 C 0.800781 2.332031 1.53125 1.601562 2.398438 1.601562 L 21.601562 1.601562 C 22.46875 1.601562 23.199219 2.332031 23.199219 3.199219 Z M 23.199219 16.398438"/>
</svg>
