<svg xmlns="http://www.w3.org/2000/svg" width="32" height="32" viewBox="0 0 24 24">
    <path d="M 15.601562 0 C 11.078125 0 7.398438 3.316406 7.398438 7.394531 C 7.398438 7.800781 7.4375 8.203125 7.511719 8.601562 C 7.003906 8.46875 6.4375 8.394531 5.804688 8.394531 C 4.191406 8.394531 2.988281 8.820312 2.226562 9.660156 C 1.285156 10.703125 1.402344 11.980469 1.40625 11.996094 L 1.40625 13.089844 C 1.171875 13.382812 1.007812 13.816406 1.007812 14.179688 L 1.007812 15.601562 C 1.007812 16.042969 1.207031 16.453125 1.542969 16.730469 C 1.871094 17.960938 2.652344 18.707031 3.003906 18.996094 L 3.003906 20.09375 C 3.003906 20.414062 2.605469 21.066406 2.292969 21.238281 L 0.621094 22.308594 C 0.273438 22.53125 0.117188 22.945312 0.234375 23.339844 C 0.351562 23.734375 0.703125 24 1.117188 24 L 10.496094 24 C 10.910156 24 11.261719 23.734375 11.378906 23.339844 C 11.496094 22.945312 11.339844 22.53125 10.992188 22.308594 L 9.296875 21.226562 C 9.007812 21.066406 8.605469 20.414062 8.605469 20.09375 L 8.605469 18.996094 C 8.960938 18.707031 9.742188 17.960938 10.066406 16.730469 C 10.40625 16.453125 10.605469 16.039062 10.605469 15.601562 L 10.605469 14.921875 C 11.179688 14.722656 11.777344 14.476562 12.316406 14.171875 C 13.355469 14.582031 14.460938 14.789062 15.601562 14.789062 C 20.125 14.789062 23.804688 11.472656 23.804688 7.394531 C 23.804688 3.316406 20.125 0 15.601562 0 Z M 9.804688 15.601562 C 9.804688 15.824219 9.691406 16.03125 9.496094 16.15625 L 9.359375 16.246094 L 9.324219 16.402344 C 9.011719 17.761719 7.996094 18.460938 7.984375 18.464844 L 7.808594 18.582031 L 7.808594 20.09375 C 7.808594 20.703125 8.367188 21.628906 8.890625 21.914062 L 10.5625 22.984375 C 10.609375 23.015625 10.628906 23.058594 10.609375 23.117188 C 10.59375 23.171875 10.554688 23.199219 10.496094 23.199219 L 1.117188 23.199219 C 1.058594 23.199219 1.019531 23.171875 1.003906 23.117188 C 0.984375 23.058594 1.003906 23.015625 1.050781 22.984375 L 2.699219 21.929688 C 3.246094 21.628906 3.804688 20.703125 3.804688 20.09375 L 3.804688 18.582031 L 3.625 18.464844 C 3.617188 18.457031 2.601562 17.773438 2.289062 16.402344 L 2.25 16.246094 L 2.117188 16.15625 C 1.921875 16.03125 1.808594 15.824219 1.808594 15.601562 L 1.808594 14.179688 C 1.808594 13.984375 1.941406 13.664062 2.074219 13.542969 L 2.203125 13.425781 L 2.203125 11.957031 C 2.203125 11.949219 2.121094 10.960938 2.828125 10.191406 C 3.429688 9.53125 4.433594 9.195312 5.804688 9.195312 C 6.558594 9.195312 7.207031 9.300781 7.738281 9.503906 C 7.953125 10.15625 8.265625 10.78125 8.675781 11.359375 C 8.671875 11.429688 8.660156 11.496094 8.652344 11.566406 C 8.480469 13.164062 8.082031 14.347656 7.515625 14.914062 L 6.667969 15.761719 L 7.855469 15.59375 C 7.859375 15.59375 7.875 15.589844 7.890625 15.585938 C 7.898438 15.585938 7.898438 15.585938 7.90625 15.585938 C 7.90625 15.585938 7.90625 15.585938 7.910156 15.585938 C 8.117188 15.554688 8.878906 15.429688 9.804688 15.167969 Z M 15.601562 13.988281 C 14.773438 13.988281 13.964844 13.871094 13.195312 13.632812 C 14.117188 13.050781 14.121094 12.988281 14.121094 12.777344 C 14.117188 12.636719 14.042969 12.503906 13.921875 12.433594 C 13.75 12.328125 13.523438 12.371094 13.402344 12.53125 C 13.238281 12.65625 12.613281 13.054688 12.078125 13.386719 C 11.445312 13.765625 10.695312 14.058594 10 14.273438 C 9.921875 14.296875 9.847656 14.320312 9.769531 14.34375 C 9.707031 14.363281 9.648438 14.378906 9.585938 14.394531 C 9.515625 14.414062 9.445312 14.433594 9.378906 14.453125 C 9.320312 14.46875 9.261719 14.484375 9.203125 14.5 C 9.136719 14.515625 9.070312 14.53125 9.007812 14.546875 C 8.964844 14.558594 8.925781 14.566406 8.882812 14.578125 C 8.816406 14.59375 8.746094 14.609375 8.683594 14.621094 C 9.1875 13.632812 9.402344 12.324219 9.488281 11.28125 L 9.5 11.128906 L 9.410156 11.007812 C 9.304688 10.867188 9.207031 10.71875 9.117188 10.570312 C 9.105469 10.550781 9.09375 10.53125 9.082031 10.511719 C 9 10.375 8.921875 10.238281 8.851562 10.097656 C 8.847656 10.089844 8.84375 10.082031 8.839844 10.070312 C 8.683594 9.757812 8.554688 9.429688 8.453125 9.09375 L 8.441406 9.050781 C 8.285156 8.511719 8.199219 7.957031 8.199219 7.394531 C 8.199219 3.757812 11.519531 0.800781 15.601562 0.800781 C 19.683594 0.800781 23.003906 3.757812 23.003906 7.394531 C 23.003906 11.03125 19.683594 13.988281 15.601562 13.988281 Z M 15.601562 13.988281"/>
</svg>
