<svg xmlns="http://www.w3.org/2000/svg" width="32" height="32" viewBox="0 0 24 24">
    <path d="M 22.9375 0.71875 L 6.261719 0.71875 C 5.675781 0.71875 5.199219 1.191406 5.199219 1.777344 L 5.199219 4.71875 L 1.0625 4.71875 C 0.476562 4.71875 0 5.191406 0 5.777344 L 0 23.28125 L 3.765625 19.515625 L 17.738281 19.515625 C 18.324219 19.515625 18.800781 19.042969 18.800781 18.457031 L 18.800781 15.515625 L 22.9375 15.515625 C 23.523438 15.515625 24 15.042969 24 14.457031 L 24 1.777344 C 24 1.191406 23.523438 0.71875 22.9375 0.71875 Z M 18 18.457031 C 18 18.601562 17.882812 18.71875 17.738281 18.71875 L 3.433594 18.71875 L 0.800781 21.351562 L 0.800781 5.777344 C 0.800781 5.632812 0.917969 5.515625 1.0625 5.515625 L 17.738281 5.515625 C 17.882812 5.515625 18 5.632812 18 5.777344 Z M 23.199219 14.457031 C 23.199219 14.601562 23.082031 14.71875 22.9375 14.71875 L 18.800781 14.71875 L 18.800781 5.777344 C 18.800781 5.191406 18.324219 4.71875 17.738281 4.71875 L 6 4.71875 L 6 1.777344 C 6 1.632812 6.117188 1.515625 6.261719 1.515625 L 22.9375 1.515625 C 23.082031 1.515625 23.199219 1.632812 23.199219 1.777344 Z M 23.199219 14.457031"/>
</svg>
