<svg xmlns="http://www.w3.org/2000/svg" width="32" height="32" viewBox="0 0 24 24">
    <path d="M 12 0.601562 C 5.382812 0.601562 0 5.445312 0 11.398438 C 0 13.480469 0.660156 15.5 1.90625 17.242188 C 1.671875 19.855469 1.039062 21.796875 0.117188 22.71875 C -0.00390625 22.839844 -0.0351562 23.023438 0.0429688 23.179688 C 0.109375 23.316406 0.25 23.398438 0.398438 23.398438 C 0.417969 23.398438 0.4375 23.398438 0.457031 23.394531 C 0.617188 23.375 4.382812 22.832031 7.101562 21.261719 C 8.648438 21.882812 10.296875 22.199219 12 22.199219 C 18.617188 22.199219 24 17.355469 24 11.398438 C 24 5.445312 18.617188 0.601562 12 0.601562 Z M 12 21.398438 C 10.605469 21.398438 9.253906 21.171875 7.96875 20.726562 C 9.601562 19.710938 9.605469 19.636719 9.601562 19.402344 C 9.601562 19.261719 9.527344 19.128906 9.40625 19.058594 C 9.222656 18.949219 8.988281 19 8.871094 19.171875 C 8.652344 19.347656 7.707031 19.953125 6.863281 20.472656 C 5.078125 21.550781 2.675781 22.152344 1.339844 22.425781 C 2.222656 20.957031 2.578125 18.832031 2.71875 17.160156 C 2.726562 17.0625 2.699219 16.96875 2.640625 16.890625 C 1.4375 15.257812 0.800781 13.359375 0.800781 11.398438 C 0.800781 5.886719 5.824219 1.398438 12 1.398438 C 18.175781 1.398438 23.199219 5.886719 23.199219 11.398438 C 23.199219 16.914062 18.175781 21.398438 12 21.398438 Z M 12 21.398438"/>
</svg>
