<svg xmlns="http://www.w3.org/2000/svg" width="32" height="32" viewBox="0 0 24 24">
    <path d="M21.629 1.016L7.973.984A2.376 2.376 0 0 0 5.602 3.36v2.047l-3.23.008A2.372 2.372 0 0 0 0 7.785v8.457a2.372 2.372 0 0 0 2.371 2.371h2.43v4a.4.4 0 0 0 .695.27l3.883-4.27 6.648-.027a2.372 2.372 0 0 0 2.371-2.371v-.047l2.106 2.316a.394.394 0 0 0 .297.13.398.398 0 0 0 .398-.398v-4.001h.43A2.375 2.375 0 0 0 24 11.844V3.387a2.372 2.372 0 0 0-2.371-2.371zm-4.027 15.199c0 .867-.707 1.57-1.575 1.57l-6.828.027a.412.412 0 0 0-.297.133l-3.3 3.633v-3.363a.402.402 0 0 0-.403-.402H2.371a1.57 1.57 0 0 1-1.57-1.57V7.784c0-.867.703-1.57 1.57-1.57L6 6.207l9.95-.02h.077a1.575 1.575 0 0 1 1.575 1.57zm5.597-4.371a1.57 1.57 0 0 1-1.57 1.57H20.8a.401.401 0 0 0-.403.399v3.367l-2-2.2V7.758a2.376 2.376 0 0 0-.105-.703 2.378 2.378 0 0 0-2.266-1.668h-.043l-9.586.02V3.358c0-.867.707-1.574 1.575-1.574l13.656.028c.867 0 1.57.707 1.57 1.574zm0 0"/>
</svg>
