<svg xmlns="http://www.w3.org/2000/svg" width="32" height="32" viewBox="0 0 24 24">
    <path d="M23.191 23.648c.004-.015.012-.03.012-.046V9.82a.39.39 0 0 0-.121-.285L14.266.918a3.257 3.257 0 0 0-4.532 0L.918 9.535a.39.39 0 0 0-.121.285v13.782c0 .015.008.035.012.05a.606.606 0 0 0 .015.082.46.46 0 0 0 .043.075c.008.015.012.035.024.05.004.004.011.004.015.008.02.024.043.04.067.055.02.012.035.027.058.039.02.012.043.016.07.02.028.007.051.015.079.015.008 0 .011.004.02.004h21.6a.362.362 0 0 0 .165-.035c.015-.008.027-.02.039-.027a.374.374 0 0 0 .098-.079c.003-.004.011-.007.015-.011.012-.016.016-.032.024-.047.011-.024.027-.047.035-.07.008-.028.012-.055.015-.083zM1.598 10.762l8.101 5.636c-2.488 1.715-6.527 5.04-8.101 6.348zm8.734 6.172a2.866 2.866 0 0 1 3.203-.004l8.098 6.27H2.3c1.726-1.43 5.687-4.673 8.031-6.266zm3.89-.48l8.18-5.692v12.023zM10.294 1.487a2.453 2.453 0 0 1 3.414 0l8.574 8.383-8.793 6.117a3.692 3.692 0 0 0-3.023-.031L1.719 9.871zm0 0"/>
    <path d="M8.918 9.078a.396.396 0 0 0 .562 0l2.122-2.117v6.637c0 .222.175.398.398.398a.395.395 0 0 0 .398-.398V6.96l2.122 2.117a.396.396 0 0 0 .562 0 .396.396 0 0 0 0-.562l-2.797-2.801a.37.37 0 0 0-.133-.086.376.376 0 0 0-.304 0 .37.37 0 0 0-.133.086l-2.797 2.8a.396.396 0 0 0 0 .563zm0 0"/>
</svg>
