<svg xmlns="http://www.w3.org/2000/svg" width="32" height="32" viewBox="0 0 24 24">
    <path d="M23.988 10.613v-.023l-.058-.031L13.016.399a1.494 1.494 0 0 0-2.032 0L.043 10.581 0 10.613V24h24V10.625zM11.528.984a.697.697 0 0 1 .945 0l10.449 9.73L12 16.739 1.078 10.715zM.8 22.914V11.477l10.37 5.718zm22.398.285H1.941l10.887-6.004L23.2 11.477zm0 0"/>
    <path d="M10.8 11.2h.4a.401.401 0 0 0 0-.8l-.4-.002a.401.401 0 1 0 0 .801zm0 0M12.8 11.2h.4a.401.401 0 0 0 0-.8l-.4-.002a.401.401 0 1 0 0 .801zm0 0M8.8 11.2h.4a.401.401 0 0 0 0-.8l-.4-.002a.401.401 0 1 0 0 .801zm0 0M14.8 11.2h.4a.401.401 0 0 0 0-.8l-.4-.002a.401.401 0 1 0 0 .801zm0 0M4.8 11.2h.4a.401.401 0 0 0 0-.8l-.4-.002a.401.401 0 1 0 0 .801zm0 0M18.8 11.2h.4a.401.401 0 0 0 0-.8l-.4-.002a.401.401 0 1 0 0 .801zm0 0M16.8 11.2h.4a.401.401 0 0 0 0-.8l-.4-.002a.401.401 0 1 0 0 .801zm0 0M6.8 11.2h.4a.401.401 0 0 0 0-.8l-.4-.002a.401.401 0 1 0 0 .801zm0 0M11.602 20.398a2.399 2.399 0 1 0 4.797 0 2.399 2.399 0 0 0-4.797 0zM14 18.797c.883 0 1.602.719 1.602 1.601 0 .883-.72 1.602-1.602 1.602a1.604 1.604 0 0 1-1.602-1.602c0-.882.72-1.601 1.602-1.601zm0 0M17.508 19.453c.273-.328.71-.328.984 0 .293.352.684.547 1.11.547.421 0 .816-.195 1.105-.547.273-.328.711-.328.984 0a.407.407 0 0 0 .566.055.401.401 0 0 0 .052-.563c-.293-.351-.684-.547-1.11-.547-.422 0-.816.196-1.105.547-.274.328-.711.328-.985 0-.293-.351-.687-.547-1.109-.547-.422 0-.816.196-1.11.547a.398.398 0 0 0 .055.563c.168.14.422.117.563-.055zm0 0M17.508 21.855c.273-.332.71-.332.984 0 .293.352.684.543 1.11.543.421 0 .816-.191 1.105-.543.273-.332.711-.332.984 0A.413.413 0 0 0 22 22a.401.401 0 0 0 .309-.656c-.293-.352-.684-.543-1.11-.543-.422 0-.816.191-1.105.543-.274.328-.711.328-.985 0-.293-.352-.687-.543-1.109-.543-.422 0-.816.191-1.11.543a.401.401 0 0 0 .617.512zm0 0"/>
</svg>
