<svg xmlns="http://www.w3.org/2000/svg" width="32" height="32" viewBox="0 0 24 24">
    <path d="M 23.191406 23.648438 C 23.195312 23.632812 23.203125 23.617188 23.203125 23.601562 L 23.203125 9.820312 C 23.203125 9.710938 23.160156 9.609375 23.082031 9.535156 L 14.265625 0.917969 C 13.015625 -0.304688 10.984375 -0.304688 9.734375 0.917969 L 0.917969 9.535156 C 0.839844 9.609375 0.796875 9.710938 0.796875 9.820312 L 0.796875 23.601562 C 0.796875 23.617188 0.804688 23.636719 0.808594 23.652344 C 0.8125 23.679688 0.816406 23.707031 0.824219 23.734375 C 0.835938 23.761719 0.851562 23.785156 0.867188 23.808594 C 0.875 23.824219 0.878906 23.84375 0.890625 23.859375 C 0.894531 23.863281 0.902344 23.863281 0.90625 23.867188 C 0.925781 23.890625 0.949219 23.90625 0.972656 23.921875 C 0.992188 23.933594 1.007812 23.949219 1.03125 23.960938 C 1.050781 23.972656 1.074219 23.976562 1.101562 23.980469 C 1.128906 23.988281 1.152344 23.996094 1.179688 23.996094 C 1.1875 23.996094 1.191406 24 1.199219 24 L 22.800781 24 C 22.863281 24 22.917969 23.988281 22.964844 23.964844 C 22.980469 23.957031 22.992188 23.945312 23.003906 23.9375 C 23.039062 23.917969 23.074219 23.890625 23.101562 23.859375 C 23.105469 23.855469 23.113281 23.851562 23.117188 23.847656 C 23.128906 23.832031 23.132812 23.816406 23.140625 23.800781 C 23.152344 23.777344 23.167969 23.753906 23.175781 23.730469 C 23.183594 23.703125 23.1875 23.675781 23.191406 23.648438 Z M 1.597656 10.761719 L 9.699219 16.398438 C 7.210938 18.113281 3.171875 21.4375 1.597656 22.746094 Z M 10.332031 16.933594 C 11.296875 16.277344 12.589844 16.28125 13.535156 16.929688 L 21.632812 23.199219 L 2.300781 23.199219 C 4.027344 21.769531 7.988281 18.527344 10.332031 16.933594 Z M 14.222656 16.453125 L 22.402344 10.761719 L 22.402344 22.785156 Z M 10.292969 1.488281 C 11.234375 0.566406 12.765625 0.566406 13.707031 1.488281 L 22.28125 9.871094 L 13.488281 15.988281 C 12.535156 15.546875 11.425781 15.535156 10.464844 15.957031 L 1.71875 9.871094 Z M 10.292969 1.488281"/>
    <path d="M 8.917969 9.078125 C 8.996094 9.15625 9.097656 9.195312 9.199219 9.195312 C 9.300781 9.195312 9.402344 9.15625 9.480469 9.078125 L 11.601562 6.960938 L 11.601562 13.597656 C 11.601562 13.820312 11.777344 13.996094 12 13.996094 C 12.222656 13.996094 12.398438 13.820312 12.398438 13.597656 L 12.398438 6.960938 L 14.519531 9.078125 C 14.597656 9.15625 14.699219 9.195312 14.800781 9.195312 C 14.902344 9.195312 15.003906 9.15625 15.082031 9.078125 C 15.238281 8.921875 15.238281 8.671875 15.082031 8.515625 L 12.285156 5.714844 C 12.246094 5.675781 12.203125 5.648438 12.152344 5.628906 C 12.054688 5.585938 11.945312 5.585938 11.847656 5.628906 C 11.796875 5.648438 11.753906 5.675781 11.714844 5.714844 L 8.917969 8.515625 C 8.761719 8.671875 8.761719 8.921875 8.917969 9.078125 Z M 8.917969 9.078125"/>
</svg>
