<svg xmlns="http://www.w3.org/2000/svg" width="32" height="32" viewBox="0 0 24 24">
    <path d="M22.602 0H1.398C.628 0 0 .629 0 1.398v21.2C0 23.37.629 24 1.398 24h21.2C23.37 24 24 23.371 24 22.602V1.398C24 .628 23.371 0 22.602 0zm.57 22.602c0 .312-.258.57-.57.57H1.398a.574.574 0 0 1-.57-.57V1.398c0-.312.258-.57.57-.57h21.2c.316 0 .574.258.574.57zm0 0"/>
    <path d="M2.07 16.137h4.965v2.898h9.93v-2.898h4.965V1.657H2.07zm.828-13.653h18.204V15.31h-4.965v2.898H7.863v-2.898H2.898zm0 0"/>
    <path d="M5.379 6.621h7.45a.414.414 0 0 0 0-.828h-7.45a.414.414 0 0 0 0 .828zm0 0M18.621 11.586h-4.55a.414.414 0 0 0 0 .828h4.55a.417.417 0 0 0 .414-.414.417.417 0 0 0-.414-.414zm0 0M5.379 9.516h2.484a.414.414 0 0 0 .414-.414.413.413 0 0 0-.414-.41H5.38a.413.413 0 0 0-.414.41c0 .23.187.414.414.414zm0 0M11.586 9.102c0 .23.187.414.414.414h4.55a.412.412 0 1 0 0-.825H12a.413.413 0 0 0-.414.41zm0 0M9.637 8.809a.439.439 0 0 0-.121.293c0 .109.046.218.12.296a.435.435 0 0 0 .294.118.437.437 0 0 0 .297-.118.437.437 0 0 0 .117-.296.435.435 0 0 0-.117-.293.438.438 0 0 0-.59 0zm0 0M12.414 12a.417.417 0 0 0-.414-.414H7.45a.414.414 0 0 0 0 .828H12a.417.417 0 0 0 .414-.414zm0 0M5.086 11.707a.431.431 0 0 0-.121.293c0 .11.047.215.12.293a.439.439 0 0 0 .294.121c.11 0 .215-.047.293-.121A.431.431 0 0 0 5.793 12a.431.431 0 0 0-.121-.293.433.433 0 0 0-.586 0zm0 0M18.621 9.516a.435.435 0 0 0 .293-.118.44.44 0 0 0 .121-.296.439.439 0 0 0-.12-.293.433.433 0 0 0-.587 0 .439.439 0 0 0-.121.293c0 .109.047.218.121.296a.42.42 0 0 0 .293.118zm0 0"/>
</svg>
