<svg xmlns="http://www.w3.org/2000/svg" width="32" height="32" viewBox="0 0 24 24">
    <path d="M24 13.77l-.05-.13-.016-.316h-.176L19.64 7.137h-4.754v.824h4.312l3.578 5.363h-6.656v2.883H7.875v-2.883H1.219l3.578-5.363h4.316v-.824H4.355L.22 13.336l-.176.008v.332L0 13.78l.043.059v7.984c0 .77.625 1.395 1.395 1.395h21.125c.769 0 1.394-.625 1.394-1.395v-7.992zm-.867 8.054c0 .313-.258.57-.57.57H1.438a.571.571 0 0 1-.57-.57v-7.676H7.05v2.887h9.894v-2.887h6.188zm0 0"/>
    <path d="M8.992 4.957l2.594-2.598v11.375c0 .227.184.414.414.414.227 0 .41-.187.41-.414V2.36l2.598 2.598a.424.424 0 0 0 .582 0 .417.417 0 0 0 0-.586l-3.297-3.297h-.004L12 .781l-3.59 3.59a.413.413 0 1 0 .582.586zm0 0"/>
</svg>
