<svg xmlns="http://www.w3.org/2000/svg" width="32" height="32" viewBox="0 0 24 24">
    <path d="M 0 3.398438 L 0 20.601562 L 24 20.601562 L 24 3.398438 Z M 23.199219 19.800781 L 0.800781 19.800781 L 0.800781 4.199219 L 23.199219 4.199219 Z M 23.199219 19.800781"/>
    <path d="M21.199219 6.199219L17.199219 6.199219 17.199219 10.199219 21.199219 10.199219zM20.398438 9.398438L18 9.398438 18 7 20.398438 7zM3.199219 8.601562L11.199219 8.601562C11.421875 8.601562 11.601562 8.421875 11.601562 8.199219 11.601562 7.980469 11.421875 7.800781 11.199219 7.800781L3.199219 7.800781C2.980469 7.800781 2.800781 7.980469 2.800781 8.199219 2.800781 8.421875 2.980469 8.601562 3.199219 8.601562zM3.199219 10.601562L11.199219 10.601562C11.421875 10.601562 11.601562 10.421875 11.601562 10.199219 11.601562 9.980469 11.421875 9.800781 11.199219 9.800781L3.199219 9.800781C2.980469 9.800781 2.800781 9.980469 2.800781 10.199219 2.800781 10.421875 2.980469 10.601562 3.199219 10.601562zM3.199219 6.601562L6.398438 6.601562C6.621094 6.601562 6.800781 6.421875 6.800781 6.199219 6.800781 5.980469 6.621094 5.800781 6.398438 5.800781L3.199219 5.800781C2.980469 5.800781 2.800781 5.980469 2.800781 6.199219 2.800781 6.421875 2.980469 6.601562 3.199219 6.601562zM9.199219 15.800781C9.199219 17.125 10.277344 18.199219 11.601562 18.199219 12.921875 18.199219 14 17.125 14 15.800781 14 14.476562 12.921875 13.398438 11.601562 13.398438 10.277344 13.398438 9.199219 14.476562 9.199219 15.800781zM13.199219 15.800781C13.199219 16.683594 12.480469 17.398438 11.601562 17.398438 10.71875 17.398438 10 16.683594 10 15.800781 10 14.917969 10.71875 14.199219 11.601562 14.199219 12.480469 14.199219 13.199219 14.917969 13.199219 15.800781zM15.109375 14.855469C15.382812 14.527344 15.820312 14.527344 16.09375 14.855469 16.382812 15.207031 16.777344 15.398438 17.199219 15.398438 17.625 15.398438 18.015625 15.207031 18.308594 14.855469 18.582031 14.527344 19.019531 14.527344 19.292969 14.855469 19.582031 15.207031 19.976562 15.398438 20.398438 15.398438 20.824219 15.398438 21.21875 15.207031 21.507812 14.855469 21.648438 14.683594 21.625 14.433594 21.457031 14.292969 21.285156 14.152344 21.035156 14.175781 20.890625 14.34375 20.621094 14.675781 20.179688 14.675781 19.90625 14.34375 19.617188 13.992188 19.222656 13.800781 18.800781 13.800781 18.375 13.800781 17.984375 13.992188 17.691406 14.34375 17.417969 14.675781 16.980469 14.675781 16.707031 14.34375 16.417969 13.992188 16.023438 13.800781 15.601562 13.800781 15.175781 13.800781 14.78125 13.992188 14.492188 14.34375 14.351562 14.515625 14.375 14.765625 14.542969 14.90625 14.714844 15.050781 14.96875 15.027344 15.109375 14.855469zM15.109375 17.253906C15.382812 16.925781 15.820312 16.925781 16.09375 17.253906 16.382812 17.605469 16.777344 17.800781 17.199219 17.800781 17.625 17.800781 18.015625 17.605469 18.308594 17.253906 18.582031 16.925781 19.019531 16.925781 19.292969 17.253906 19.582031 17.605469 19.976562 17.800781 20.398438 17.800781 20.824219 17.800781 21.21875 17.605469 21.507812 17.253906 21.648438 17.085938 21.625 16.832031 21.457031 16.691406 21.285156 16.550781 21.035156 16.574219 20.890625 16.746094 20.621094 17.074219 20.179688 17.074219 19.90625 16.746094 19.617188 16.394531 19.222656 16.199219 18.800781 16.199219 18.375 16.199219 17.984375 16.394531 17.691406 16.746094 17.417969 17.074219 16.980469 17.074219 16.707031 16.746094 16.417969 16.394531 16.023438 16.199219 15.601562 16.199219 15.175781 16.199219 14.78125 16.394531 14.492188 16.746094 14.351562 16.914062 14.375 17.167969 14.542969 17.308594 14.714844 17.449219 14.96875 17.425781 15.109375 17.253906zM15.109375 17.253906"/>
</svg>
