<svg xmlns="http://www.w3.org/2000/svg" width="32" height="32" viewBox="0 0 24 24">
    <path d="M23.379 9.16a3.373 3.373 0 0 0-3.367-3.367h-6.563V4.137h5.38L17.276 2.07 18.828 0h-6.207v5.793H4.758l-.137.004c-.023 0-.047-.004-.07-.004a3.935 3.935 0 0 0-3.93 3.93v9.312h9.516V24h4.14v-4.965h9.102zM13.449.828h3.723l-.93 1.242.93 1.239h-3.723zM7.656 18.207H1.45V9.723c0-1.711 1.39-3.102 3.102-3.102.043 0 .082.004.125.004l.058.004c.204.012.403.043.594.094h.004c.094.023.184.054.273.086l.016.003c.086.032.168.067.246.106.012.004.024.008.031.016.079.035.149.074.223.117.012.008.027.015.043.027.066.04.133.082.195.125.016.016.036.027.055.043.059.043.113.09.168.137.02.015.04.035.063.054.046.047.097.094.144.141.024.024.043.047.063.07.043.047.085.098.128.149.02.023.04.055.063.082.035.047.07.098.105.148l.059.098c.031.05.063.102.09.156.02.035.035.07.055.11.023.05.05.101.07.152.02.043.031.086.047.125.02.05.039.102.054.156l.036.145c.011.047.027.094.035.144.015.059.02.121.031.184.004.039.012.078.016.117.011.102.015.203.015.309zm5.793 1.242h-.828a.414.414 0 0 0 0 .828h.828v.414h-.828a.412.412 0 1 0 0 .824h.828v.415h-.828a.414.414 0 0 0 0 .828h.828v.414h-2.484v-4.137h2.484zm9.102-1.242H8.484V9.723c0-.145-.011-.293-.027-.434-.004-.047-.012-.09-.02-.133a3.25 3.25 0 0 0-.054-.293c-.008-.05-.024-.097-.035-.148a3.452 3.452 0 0 0-.082-.266c-.016-.047-.032-.094-.051-.14a7.271 7.271 0 0 0-.11-.258c-.023-.04-.039-.082-.062-.125a3.193 3.193 0 0 0-.156-.27c-.016-.027-.032-.058-.051-.086a3.77 3.77 0 0 0-.54-.652c-.01-.012-.023-.023-.03-.031a5.587 5.587 0 0 0-.286-.246c-.007-.008-.011-.016-.02-.02h5.661v2.524a2.07 2.07 0 0 0 .414 4.097 2.07 2.07 0 0 0 .414-4.097V6.62h6.563c1.402 0 2.539 1.14 2.539 2.54zm-9.516-6.621a.414.414 0 0 0 .414-.414v-1.164c.48.172.828.625.828 1.164 0 .683-.558 1.242-1.242 1.242a1.245 1.245 0 0 1-1.242-1.242c0-.54.348-.992.828-1.164v1.164c0 .23.184.414.414.414zm0 0"/>
</svg>
