<svg xmlns="http://www.w3.org/2000/svg" width="32" height="32" viewBox="0 0 24 24">
    <path d="M 23.378906 9.160156 C 23.378906 7.304688 21.867188 5.792969 20.011719 5.792969 L 13.449219 5.792969 L 13.449219 4.136719 L 18.828125 4.136719 L 17.277344 2.070312 L 18.828125 0 L 12.621094 0 L 12.621094 5.792969 L 4.757812 5.792969 L 4.621094 5.796875 C 4.597656 5.796875 4.574219 5.792969 4.550781 5.792969 C 2.382812 5.792969 0.621094 7.558594 0.621094 9.722656 L 0.621094 19.035156 L 10.136719 19.035156 L 10.136719 24 L 14.277344 24 L 14.277344 19.035156 L 23.378906 19.035156 Z M 13.449219 0.828125 L 17.171875 0.828125 L 16.242188 2.070312 L 17.171875 3.308594 L 13.449219 3.308594 Z M 7.65625 18.207031 L 1.449219 18.207031 L 1.449219 9.722656 C 1.449219 8.011719 2.839844 6.621094 4.550781 6.621094 C 4.59375 6.621094 4.632812 6.625 4.675781 6.625 L 4.734375 6.628906 C 4.9375 6.640625 5.136719 6.671875 5.328125 6.722656 C 5.328125 6.722656 5.332031 6.722656 5.332031 6.722656 C 5.425781 6.746094 5.515625 6.777344 5.605469 6.808594 C 5.609375 6.808594 5.617188 6.8125 5.621094 6.8125 C 5.707031 6.84375 5.789062 6.878906 5.867188 6.917969 C 5.878906 6.921875 5.890625 6.925781 5.898438 6.933594 C 5.976562 6.96875 6.046875 7.007812 6.121094 7.050781 C 6.132812 7.058594 6.148438 7.066406 6.164062 7.078125 C 6.230469 7.117188 6.296875 7.160156 6.359375 7.203125 C 6.375 7.21875 6.394531 7.230469 6.414062 7.246094 C 6.472656 7.289062 6.527344 7.335938 6.582031 7.382812 C 6.601562 7.398438 6.621094 7.417969 6.644531 7.4375 C 6.691406 7.484375 6.742188 7.53125 6.789062 7.578125 C 6.8125 7.601562 6.832031 7.625 6.851562 7.648438 C 6.894531 7.695312 6.9375 7.746094 6.980469 7.796875 C 7 7.820312 7.019531 7.851562 7.042969 7.878906 C 7.078125 7.925781 7.113281 7.976562 7.148438 8.027344 C 7.167969 8.058594 7.1875 8.09375 7.207031 8.125 C 7.238281 8.175781 7.269531 8.226562 7.296875 8.28125 C 7.316406 8.316406 7.332031 8.351562 7.351562 8.390625 C 7.375 8.441406 7.402344 8.492188 7.421875 8.542969 C 7.441406 8.585938 7.453125 8.628906 7.46875 8.667969 C 7.488281 8.71875 7.507812 8.769531 7.523438 8.824219 C 7.535156 8.871094 7.546875 8.917969 7.558594 8.96875 C 7.570312 9.015625 7.585938 9.0625 7.59375 9.113281 C 7.609375 9.171875 7.613281 9.234375 7.625 9.296875 C 7.628906 9.335938 7.636719 9.375 7.640625 9.414062 C 7.652344 9.515625 7.65625 9.617188 7.65625 9.722656 Z M 13.449219 19.449219 L 12.621094 19.449219 C 12.390625 19.449219 12.207031 19.632812 12.207031 19.863281 C 12.207031 20.089844 12.390625 20.277344 12.621094 20.277344 L 13.449219 20.277344 L 13.449219 20.691406 L 12.621094 20.691406 C 12.390625 20.691406 12.207031 20.875 12.207031 21.101562 C 12.207031 21.332031 12.390625 21.515625 12.621094 21.515625 L 13.449219 21.515625 L 13.449219 21.929688 L 12.621094 21.929688 C 12.390625 21.929688 12.207031 22.117188 12.207031 22.34375 C 12.207031 22.574219 12.390625 22.757812 12.621094 22.757812 L 13.449219 22.757812 L 13.449219 23.171875 L 10.964844 23.171875 L 10.964844 19.035156 L 13.449219 19.035156 Z M 22.550781 18.207031 L 8.484375 18.207031 L 8.484375 9.722656 C 8.484375 9.578125 8.472656 9.429688 8.457031 9.289062 C 8.453125 9.242188 8.445312 9.199219 8.4375 9.15625 C 8.421875 9.054688 8.40625 8.957031 8.382812 8.863281 C 8.375 8.8125 8.359375 8.765625 8.347656 8.714844 C 8.324219 8.625 8.296875 8.539062 8.265625 8.449219 C 8.25 8.402344 8.234375 8.355469 8.214844 8.308594 C 8.179688 8.222656 8.144531 8.136719 8.105469 8.050781 C 8.082031 8.011719 8.066406 7.96875 8.042969 7.925781 C 7.996094 7.835938 7.945312 7.746094 7.886719 7.65625 C 7.871094 7.628906 7.855469 7.597656 7.835938 7.570312 C 7.679688 7.332031 7.5 7.113281 7.296875 6.917969 C 7.285156 6.90625 7.273438 6.894531 7.265625 6.886719 C 7.171875 6.800781 7.078125 6.71875 6.980469 6.640625 C 6.972656 6.632812 6.96875 6.625 6.960938 6.621094 L 12.621094 6.621094 L 12.621094 9.144531 C 11.675781 9.335938 10.964844 10.171875 10.964844 11.171875 C 10.964844 12.3125 11.894531 13.242188 13.035156 13.242188 C 14.175781 13.242188 15.101562 12.3125 15.101562 11.171875 C 15.101562 10.171875 14.390625 9.335938 13.449219 9.144531 L 13.449219 6.621094 L 20.011719 6.621094 C 21.414062 6.621094 22.550781 7.761719 22.550781 9.160156 Z M 13.035156 11.585938 C 13.261719 11.585938 13.449219 11.402344 13.449219 11.171875 L 13.449219 10.007812 C 13.929688 10.179688 14.277344 10.632812 14.277344 11.171875 C 14.277344 11.855469 13.71875 12.414062 13.035156 12.414062 C 12.351562 12.414062 11.792969 11.855469 11.792969 11.171875 C 11.792969 10.632812 12.140625 10.179688 12.621094 10.007812 L 12.621094 11.171875 C 12.621094 11.402344 12.804688 11.585938 13.035156 11.585938 Z M 13.035156 11.585938"/>
</svg>
