<svg xmlns="http://www.w3.org/2000/svg" width="32" height="32" viewBox="0 0 24 24">
    <path d="M 23.199219 5 L 23.199219 3.398438 L 22.398438 3.398438 L 22.398438 1.800781 L 1.601562 1.800781 L 1.601562 3.398438 L 0.800781 3.398438 L 0.800781 5 L 0 5 L 0 22.199219 L 24 22.199219 L 24 5 Z M 2.398438 2.601562 L 21.601562 2.601562 L 21.601562 3.398438 L 2.398438 3.398438 Z M 1.601562 4.199219 L 22.398438 4.199219 L 22.398438 5 L 1.601562 5 Z M 22.636719 5.800781 L 12.472656 16.015625 C 12.207031 16.261719 11.792969 16.261719 11.539062 16.023438 L 1.363281 5.800781 Z M 0.800781 21.398438 L 0.800781 6.371094 L 10.984375 16.597656 C 11.265625 16.863281 11.628906 16.996094 11.996094 16.996094 C 12.363281 16.996094 12.734375 16.859375 13.027344 16.589844 L 23.199219 6.367188 L 23.199219 21.398438 Z M 0.800781 21.398438"/>
    <path d="M21.601562 17.800781L18.398438 17.800781C18.179688 17.800781 18 17.980469 18 18.199219 18 18.421875 18.179688 18.601562 18.398438 18.601562L21.601562 18.601562C21.820312 18.601562 22 18.421875 22 18.199219 22 17.980469 21.820312 17.800781 21.601562 17.800781zM21.601562 16.199219L18.398438 16.199219C18.179688 16.199219 18 16.378906 18 16.601562 18 16.820312 18.179688 17 18.398438 17L21.601562 17C21.820312 17 22 16.820312 22 16.601562 22 16.378906 21.820312 16.199219 21.601562 16.199219zM21.601562 19.398438L16.398438 19.398438C16.179688 19.398438 16 19.578125 16 19.800781 16 20.019531 16.179688 20.199219 16.398438 20.199219L21.601562 20.199219C21.820312 20.199219 22 20.019531 22 19.800781 22 19.578125 21.820312 19.398438 21.601562 19.398438zM21.601562 19.398438"/>
</svg>
