<svg xmlns="http://www.w3.org/2000/svg" width="32" height="32" viewBox="0 0 24 24">
    <path d="M17.628906 15.355469C17.121094 15.0625 16.589844 14.972656 16.140625 15.097656 15.804688 15.191406 15.527344 15.402344 15.34375 15.714844 14.933594 16.203125 14.429688 16.773438 14.304688 16.863281 13.359375 17.503906 12.605469 17.425781 11.789062 16.609375L7.191406 12.015625C6.375 11.199219 6.300781 10.445312 6.941406 9.5 7.03125 9.375 7.601562 8.867188 8.089844 8.460938 8.398438 8.273438 8.613281 8 8.707031 7.660156 8.832031 7.210938 8.738281 6.683594 8.445312 6.167969 8.375 6.050781 6.730469 3.261719 5.210938 2.457031 4.441406 2.050781 3.507812 2.191406 2.894531 2.808594L1.878906 3.820312C-1.082031 6.78125-.535156 10.460938 3.464844 14.457031L9.34375 20.339844C11.160156 22.15625 12.921875 23.269531 14.574219 23.652344 15.011719 23.753906 15.441406 23.804688 15.863281 23.804688 17.347656 23.804688 18.730469 23.175781 19.980469 21.925781L20.996094 20.910156C21.613281 20.292969 21.753906 19.363281 21.34375 18.589844 20.542969 17.074219 17.753906 15.425781 17.628906 15.355469zM20.429688 20.34375L19.414062 21.359375C16.789062 23.988281 13.589844 23.453125 9.910156 19.773438L4.027344 13.890625C.351562 10.214844-.183594 7.015625 2.445312 4.386719L3.457031 3.371094C3.683594 3.144531 3.984375 3.027344 4.285156 3.027344 4.472656 3.027344 4.664062 3.074219 4.835938 3.164062 6.15625 3.863281 7.738281 6.546875 7.753906 6.570312 7.933594 6.882812 8 7.214844 7.9375 7.449219 7.894531 7.59375 7.804688 7.703125 7.660156 7.78125L7.601562 7.824219C7.261719 8.109375 6.449219 8.796875 6.277344 9.050781 6.035156 9.410156 5.871094 9.765625 5.785156 10.113281 5.5 9.546875 5.273438 8.890625 5.195312 8.164062 5.171875 7.941406 4.976562 7.785156 4.757812 7.804688 4.539062 7.828125 4.378906 8.023438 4.398438 8.246094 4.6875 11.027344 6.851562 12.835938 6.945312 12.914062 6.953125 12.921875 6.964844 12.925781 6.976562 12.929688L11.222656 17.175781C11.238281 17.195312 11.257812 17.210938 11.277344 17.226562 11.289062 17.246094 11.300781 17.269531 11.316406 17.289062 11.394531 17.363281 13.199219 19.117188 15.957031 19.402344 15.972656 19.402344 15.984375 19.402344 16 19.402344 16.203125 19.402344 16.375 19.25 16.394531 19.046875 16.417969 18.824219 16.257812 18.628906 16.039062 18.605469 15.195312 18.519531 14.445312 18.269531 13.820312 17.984375 14.125 17.890625 14.4375 17.738281 14.753906 17.523438 15.003906 17.355469 15.691406 16.542969 15.976562 16.203125L16.019531 16.140625C16.101562 15.996094 16.210938 15.90625 16.355469 15.867188 16.585938 15.804688 16.917969 15.871094 17.226562 16.046875 17.980469 16.488281 20.058594 17.871094 20.636719 18.964844 20.878906 19.425781 20.796875 19.976562 20.429688 20.34375zM10.945312.195312C10.722656.195312 10.546875.375 10.546875.59375 10.546875.816406 10.722656.996094 10.945312.996094 17.703125.996094 23.199219 6.492188 23.199219 13.25 23.199219 13.46875 23.378906 13.648438 23.601562 13.648438 23.820312 13.648438 24 13.46875 24 13.25 24 6.050781 18.144531.195312 10.945312.195312zM10.945312.195312"/>
    <path d="M 10.945312 3.808594 C 16.152344 3.808594 20.386719 8.042969 20.386719 13.25 C 20.386719 13.46875 20.566406 13.648438 20.789062 13.648438 C 21.007812 13.648438 21.1875 13.46875 21.1875 13.25 C 21.1875 7.601562 16.59375 3.007812 10.945312 3.007812 C 10.722656 3.007812 10.546875 3.1875 10.546875 3.40625 C 10.546875 3.628906 10.722656 3.808594 10.945312 3.808594 Z M 10.945312 3.808594"/>
    <path d="M 10.945312 6.617188 C 14.601562 6.617188 17.574219 9.59375 17.574219 13.25 C 17.574219 13.46875 17.753906 13.648438 17.976562 13.648438 C 18.195312 13.648438 18.375 13.46875 18.375 13.25 C 18.375 9.152344 15.042969 5.820312 10.945312 5.820312 C 10.722656 5.820312 10.546875 5.996094 10.546875 6.21875 C 10.546875 6.441406 10.722656 6.617188 10.945312 6.617188 Z M 10.945312 6.617188"/>
</svg>
