<svg xmlns="http://www.w3.org/2000/svg" width="32" height="32" viewBox="0 0 24 24">
    <path d="M19.418 5a.44.44 0 0 0-.629 0L.547 23.238A.448.448 0 0 0 .863 24a.429.429 0 0 0 .313-.133L19.418 5.63a.448.448 0 0 0 0-.629zm0 0M23.742 18.2c-.894-1.688-3.996-3.52-4.133-3.598-.566-.325-1.156-.426-1.656-.29-.375.106-.68.344-.887.688-.453.543-1.015 1.18-1.152 1.277-1.055.715-1.89.63-2.8-.28l-1.063-1.06a.44.44 0 0 0-.63 0 .448.448 0 0 0 0 .63l1.063 1.058.059.059c.016.023.027.046.047.066.086.086 2.094 2.035 5.16 2.352a7.835 7.835 0 0 1-2.375-1.578c.34-.102.687-.274 1.035-.512.281-.188 1.047-1.09 1.363-1.469l.047-.066c.09-.16.211-.262.371-.305.262-.074.63.004.973.2.836.487 3.148 2.026 3.793 3.245.27.508.176 1.125-.23 1.531l-1.13 1.13c-1.577 1.577-3.273 2.128-5.187 1.687-1.672-.387-3.484-1.547-5.383-3.45L9.25 17.743a.44.44 0 0 0-.629 0 .44.44 0 0 0 0 .63l1.774 1.773c2.02 2.02 3.976 3.261 5.816 3.687.488.11.965.168 1.434.168 1.652 0 3.19-.7 4.582-2.094l1.128-1.129c.684-.683.84-1.718.387-2.578zm0 0M6.102 15.852a.444.444 0 0 0 .632 0 .448.448 0 0 0 0-.63l-2.25-2.25c-1.902-1.898-3.062-3.71-3.449-5.382-.441-1.914.11-3.61 1.684-5.188l1.129-1.129c.41-.406 1.027-.5 1.535-.23 1.465.777 3.226 3.762 3.242 3.785.2.352.277.719.203.98a.593.593 0 0 1-.305.372l-.066.047c-.379.316-1.281 1.082-1.473 1.359-.273.402-.453.8-.546 1.187a6.365 6.365 0 0 1-.657-2.171.447.447 0 0 0-.488-.399.453.453 0 0 0-.398.492c.324 3.094 2.73 5.106 2.832 5.192.011.008.023.011.035.02l1.144 1.144a.448.448 0 0 0 .63 0 .448.448 0 0 0 0-.63L8 10.888c-.906-.91-.992-1.746-.281-2.797.101-.14.734-.703 1.277-1.156.348-.207.586-.512.688-.887.136-.492.035-1.098-.29-1.66-.078-.133-1.906-3.235-3.597-4.13a2.187 2.187 0 0 0-2.578.388l-1.13 1.128C.306 3.56-.34 5.582.169 7.79c.426 1.84 1.664 3.793 3.687 5.813zm0 0"/>
</svg>
