<svg xmlns="http://www.w3.org/2000/svg" width="32" height="32" viewBox="0 0 24 24">
    <path d="M18.445 6.707a.435.435 0 0 0 .325-.14l.304-.329a.445.445 0 1 0-.652-.605l-.3.324a.445.445 0 0 0 .323.75zm0 0M17.23 8.008a.425.425 0 0 0 .325-.145l.304-.324a.445.445 0 1 0-.652-.605l-.3.324a.445.445 0 0 0 .323.75zm0 0M15.996 8.234l-.305.325a.445.445 0 0 0 .024.629.429.429 0 0 0 .3.12.45.45 0 0 0 .329-.14l.3-.328a.445.445 0 1 0-.648-.606zm0 0M19.66 5.406a.441.441 0 0 0 .324-.14l.305-.329a.445.445 0 1 0-.652-.605l-.305.324a.448.448 0 0 0 .328.75zm0 0M22.09 2.8a.448.448 0 0 0 .324-.14l.156-.168a.448.448 0 0 0-.02-.629.445.445 0 0 0-.628.024l-.16.168a.445.445 0 0 0 .328.746zm0 0M20.875 4.102a.448.448 0 0 0 .324-.141l.305-.324a.445.445 0 1 0-.652-.606l-.305.324a.445.445 0 0 0 .328.747zm0 0M11.566 4.86c.246 0 .446-.2.446-.446V3.97a.445.445 0 1 0-.89 0v.445c0 .246.198.445.444.445zm0 0M11.566 6.637c.246 0 .446-.2.446-.446V5.75a.445.445 0 1 0-.89 0v.441c0 .247.198.446.444.446zm0 0M11.566 3.078c.246 0 .446-.2.446-.445v-.446a.445.445 0 1 0-.89 0v.446c0 .246.198.445.444.445zm0 0M11.566 8.418c.246 0 .446-.2.446-.445v-.446a.445.445 0 1 0-.89 0v.446c0 .246.198.445.444.445zm0 0M18.582 13.313h.445a.445.445 0 1 0 0-.891h-.445a.445.445 0 1 0 0 .89zm0 0M17.246 12.422h-.445a.445.445 0 1 0 0 .89h.445a.445.445 0 1 0 0-.89zm0 0M22.14 12.422a.445.445 0 1 0 0 .89h.446a.445.445 0 1 0 0-.89zm0 0M20.36 13.313h.445a.445.445 0 1 0 0-.891h-.446c-.246 0-.441.2-.441.445 0 .246.195.445.441.445zm0 0"/>
    <path d="M23.742 18.2c-.894-1.688-3.996-3.52-4.133-3.598-.566-.325-1.156-.426-1.656-.29-.375.106-.68.344-.887.688-.453.543-1.015 1.18-1.152 1.277-1.055.715-1.894.63-2.8-.28L8 10.886c-.906-.91-.992-1.746-.277-2.801.097-.137.73-.7 1.273-1.152.348-.207.586-.512.688-.887.14-.5.039-1.09-.29-1.66-.078-.133-1.906-3.235-3.597-4.13a2.186 2.186 0 0 0-2.578.388l-1.13 1.128C-1.202 5.066-.593 9.156 3.853 13.605l6.543 6.543c2.02 2.02 3.976 3.258 5.816 3.684.484.113.965.168 1.434.168 1.652 0 3.187-.7 4.582-2.09l1.128-1.129c.684-.687.84-1.722.387-2.582zm-1.02 1.952l-1.128 1.13c-2.922 2.921-6.477 2.327-10.57-1.766L4.48 12.973C.39 8.883-.203 5.324 2.72 2.403l1.129-1.13c.254-.25.586-.382.922-.382.207 0 .418.05.613.152 1.465.777 3.226 3.762 3.242 3.789.2.348.273.715.203.977a.606.606 0 0 1-.305.37l-.066.048c-.379.316-1.285 1.082-1.473 1.359-.273.402-.453.8-.546 1.187a6.365 6.365 0 0 1-.657-2.171.45.45 0 0 0-.488-.399.45.45 0 0 0-.398.492c.32 3.094 2.726 5.106 2.828 5.192.011.008.027.011.039.02l4.722 4.718.059.059c.016.023.027.046.047.066.082.086 2.094 2.035 5.16 2.352a7.805 7.805 0 0 1-2.375-1.578c.34-.102.684-.274 1.035-.508.281-.192 1.047-1.094 1.363-1.473l.047-.066c.09-.16.211-.262.371-.305.258-.07.625 0 .973.2.836.487 3.145 2.026 3.79 3.245.269.512.179 1.125-.231 1.535zm0 0"/>
    <path d="M17.703 10.246a.444.444 0 0 0-.598-.2l-.398.2a.443.443 0 0 0 .2.84.404.404 0 0 0 .198-.047l.399-.195a.448.448 0 0 0 .2-.598zm0 0M20.29 9.45l.398-.2a.447.447 0 0 0 .199-.598.447.447 0 0 0-.598-.199l-.398.2a.447.447 0 0 0-.2.597.444.444 0 0 0 .598.2zm0 0M21.684 8.7a.464.464 0 0 0 .199-.048l.394-.199a.443.443 0 1 0-.394-.793l-.399.195a.445.445 0 0 0 .2.844zm0 0M18.7 10.246l.394-.2a.446.446 0 0 0-.398-.797l-.395.2a.444.444 0 0 0 .199.844.464.464 0 0 0 .2-.047zm0 0M13.621 8.383a.444.444 0 0 0 .582-.238l.172-.41a.445.445 0 0 0-.82-.344l-.172.41a.442.442 0 0 0 .238.582zm0 0M15.676 3.457a.449.449 0 0 0 .582-.242l.168-.41a.445.445 0 0 0-.82-.344l-.172.414a.448.448 0 0 0 .242.582zm0 0M14.988 5.098a.44.44 0 0 0 .582-.238l.172-.41a.445.445 0 0 0-.82-.344l-.172.41a.445.445 0 0 0 .238.582zm0 0M14.305 6.742a.445.445 0 0 0 .172.031.44.44 0 0 0 .41-.273l.172-.41a.444.444 0 1 0-.82-.34l-.173.41a.445.445 0 0 0 .239.582zm0 0"/>
</svg>
