<svg xmlns="http://www.w3.org/2000/svg" width="32" height="32" viewBox="0 0 24 24">
    <path d="M13.336 11.09c.117 0 .23-.047.316-.133l6.805-6.805v4.266a.445.445 0 1 0 .89 0v-5.34a.459.459 0 0 0-.277-.41.491.491 0 0 0-.183-.031H15.53a.444.444 0 0 0 0 .887h4.297l-6.805 6.804a.44.44 0 0 0 0 .629c.086.09.2.133.313.133zm0 0"/>
    <path d="M23.742 18.203c-.894-1.687-3.996-3.52-4.133-3.601-.566-.325-1.156-.426-1.656-.286-.375.102-.68.34-.887.688-.453.543-1.015 1.176-1.152 1.273-1.055.715-1.89.63-2.8-.277l-5.11-5.113c-.91-.91-.996-1.746-.281-2.797.097-.137.734-.703 1.277-1.156.344-.207.582-.512.688-.887.136-.5.035-1.09-.29-1.66-.078-.133-1.91-3.235-3.597-4.13a2.185 2.185 0 0 0-2.578.388L2.09 1.773C.305 3.563-.34 5.586.168 7.79c.426 1.84 1.664 3.797 3.684 5.816l6.543 6.543C12.96 22.711 15.406 24 17.648 24c1.645 0 3.184-.695 4.579-2.09l1.128-1.129c.684-.683.84-1.722.387-2.578zm-1.015 1.95l-1.13 1.128c-2.921 2.922-6.48 2.328-10.57-1.761l-6.543-6.543C2.582 11.074 1.422 9.262 1.035 7.59c-.441-1.914.11-3.61 1.684-5.184l1.129-1.129a1.29 1.29 0 0 1 1.535-.23c1.465.773 3.226 3.758 3.242 3.785.2.352.277.715.203.977a.593.593 0 0 1-.305.37l-.066.048c-.379.316-1.281 1.082-1.473 1.363a3.81 3.81 0 0 0-.546 1.183 6.312 6.312 0 0 1-.657-2.171.447.447 0 0 0-.488-.395.441.441 0 0 0-.395.488c.32 3.094 2.727 5.106 2.829 5.192.011.008.023.011.035.02l4.722 4.722.059.058c.016.02.027.047.047.067.086.082 2.094 2.031 5.16 2.351h.047a.446.446 0 0 0 .047-.887 7.835 7.835 0 0 1-2.469-.69 3.82 3.82 0 0 0 1.04-.512c.276-.188 1.042-1.09 1.358-1.473l.047-.066c.09-.16.211-.258.371-.305.262-.07.63.004.973.203.031.016 3.016 1.781 3.793 3.246.27.508.176 1.125-.23 1.531zm0 0"/>
</svg>
