<svg xmlns="http://www.w3.org/2000/svg" width="32" height="32" viewBox="0 0 24 24">
    <path d="M 23.125 18.507812 C 22.277344 16.90625 19.339844 15.171875 19.207031 15.09375 C 18.671875 14.789062 18.113281 14.691406 17.640625 14.824219 C 17.285156 14.921875 16.996094 15.148438 16.800781 15.472656 C 16.367188 15.988281 15.835938 16.589844 15.707031 16.683594 C 14.707031 17.359375 13.914062 17.28125 13.054688 16.417969 L 8.210938 11.578125 C 7.351562 10.714844 7.269531 9.921875 7.945312 8.925781 C 8.039062 8.792969 8.640625 8.261719 9.15625 7.832031 C 9.484375 7.636719 9.707031 7.34375 9.804688 6.988281 C 9.9375 6.515625 9.839844 5.960938 9.53125 5.417969 C 9.457031 5.292969 7.722656 2.351562 6.125 1.507812 C 5.3125 1.078125 4.328125 1.222656 3.679688 1.875 L 2.609375 2.941406 C -0.507812 6.0625 0.0703125 9.9375 4.28125 14.148438 L 10.480469 20.347656 C 12.394531 22.261719 14.246094 23.4375 15.988281 23.839844 C 16.449219 23.945312 16.902344 24 17.347656 24 C 18.914062 24 20.367188 23.335938 21.6875 22.019531 L 22.757812 20.949219 C 23.40625 20.300781 23.554688 19.316406 23.125 18.507812 Z M 22.160156 20.351562 L 21.089844 21.421875 C 19.597656 22.914062 17.992188 23.4375 16.179688 23.019531 C 14.59375 22.652344 12.875 21.550781 11.074219 19.753906 L 4.878906 13.554688 C 1 9.675781 0.4375 6.308594 3.207031 3.539062 L 4.277344 2.46875 C 4.515625 2.230469 4.832031 2.105469 5.148438 2.105469 C 5.347656 2.105469 5.546875 2.152344 5.730469 2.25 C 7.117188 2.984375 8.789062 5.8125 8.800781 5.839844 C 8.992188 6.171875 9.0625 6.515625 8.996094 6.765625 C 8.953125 6.917969 8.859375 7.03125 8.707031 7.117188 L 8.644531 7.160156 C 8.28125 7.460938 7.425781 8.1875 7.25 8.449219 C 6.992188 8.832031 6.820312 9.207031 6.730469 9.574219 C 6.429688 8.976562 6.1875 8.285156 6.109375 7.515625 C 6.085938 7.285156 5.878906 7.121094 5.644531 7.140625 C 5.414062 7.164062 5.246094 7.371094 5.269531 7.605469 C 5.574219 10.535156 7.851562 12.441406 7.949219 12.523438 C 7.960938 12.53125 7.972656 12.535156 7.984375 12.542969 L 12.457031 17.015625 C 12.476562 17.035156 12.492188 17.050781 12.511719 17.066406 C 12.527344 17.089844 12.539062 17.113281 12.558594 17.132812 C 12.636719 17.210938 14.539062 19.058594 17.445312 19.359375 C 17.460938 19.363281 17.476562 19.363281 17.492188 19.363281 C 17.703125 19.363281 17.886719 19.203125 17.910156 18.984375 C 17.933594 18.753906 17.765625 18.546875 17.535156 18.523438 C 16.640625 18.429688 15.851562 18.167969 15.195312 17.863281 C 15.515625 17.769531 15.84375 17.605469 16.179688 17.382812 C 16.441406 17.203125 17.167969 16.347656 17.46875 15.988281 L 17.511719 15.925781 C 17.597656 15.773438 17.710938 15.679688 17.863281 15.636719 C 18.109375 15.566406 18.457031 15.640625 18.785156 15.824219 C 19.578125 16.289062 21.765625 17.746094 22.378906 18.902344 C 22.632812 19.382812 22.546875 19.964844 22.160156 20.351562 Z M 22.160156 20.351562"/>
    <path d="M 16.199219 11.378906 C 17.363281 11.378906 18.308594 10.433594 18.308594 9.273438 L 18.308594 1.945312 C 18.441406 2.089844 18.589844 2.234375 18.773438 2.378906 C 18.945312 2.515625 19.066406 2.640625 19.15625 2.765625 C 19.441406 3.164062 19.722656 3.820312 19.457031 4.691406 C 19.390625 4.914062 19.515625 5.148438 19.738281 5.214844 C 19.78125 5.226562 19.820312 5.234375 19.863281 5.234375 C 20.042969 5.234375 20.210938 5.117188 20.265625 4.933594 C 20.648438 3.671875 20.164062 2.726562 19.84375 2.277344 C 19.707031 2.085938 19.535156 1.910156 19.300781 1.71875 C 18.445312 1.039062 18.308594 0.382812 18.300781 0.347656 C 18.296875 0.332031 18.289062 0.320312 18.285156 0.304688 C 18.277344 0.277344 18.265625 0.25 18.253906 0.226562 C 18.238281 0.199219 18.226562 0.179688 18.207031 0.160156 C 18.191406 0.140625 18.175781 0.121094 18.15625 0.105469 C 18.132812 0.0859375 18.109375 0.0703125 18.082031 0.0546875 C 18.0625 0.0429688 18.042969 0.0351562 18.019531 0.0273438 C 17.992188 0.015625 17.960938 0.0117188 17.929688 0.0078125 C 17.914062 0.0078125 17.902344 0 17.886719 0 C 17.875 0 17.863281 0.0078125 17.851562 0.0078125 C 17.839844 0.0078125 17.828125 0.00390625 17.816406 0.0078125 C 17.800781 0.0078125 17.785156 0.0195312 17.769531 0.0234375 C 17.742188 0.03125 17.714844 0.0390625 17.691406 0.0546875 C 17.667969 0.0664062 17.648438 0.0820312 17.625 0.0976562 C 17.605469 0.113281 17.585938 0.132812 17.566406 0.152344 C 17.550781 0.171875 17.535156 0.195312 17.523438 0.21875 C 17.511719 0.242188 17.5 0.265625 17.488281 0.289062 C 17.480469 0.316406 17.476562 0.34375 17.472656 0.371094 C 17.472656 0.390625 17.464844 0.402344 17.464844 0.421875 L 17.464844 7.164062 L 16.199219 7.164062 C 15.039062 7.164062 14.09375 8.109375 14.09375 9.273438 C 14.09375 10.433594 15.039062 11.378906 16.199219 11.378906 Z M 16.199219 8.007812 L 17.464844 8.007812 L 17.464844 9.273438 C 17.464844 9.96875 16.898438 10.539062 16.199219 10.539062 C 15.503906 10.539062 14.933594 9.96875 14.933594 9.273438 C 14.933594 8.574219 15.503906 8.007812 16.199219 8.007812 Z M 16.199219 8.007812"/>
</svg>
