<svg xmlns="http://www.w3.org/2000/svg" width="32" height="32" viewBox="0 0 24 24">
    <path d="M18.445312 6.707031C18.566406 6.707031 18.683594 6.660156 18.769531 6.566406L19.074219 6.238281C19.242188 6.058594 19.230469 5.777344 19.050781 5.609375 18.871094 5.445312 18.589844 5.453125 18.421875 5.632812L18.121094 5.957031C17.953125 6.136719 17.960938 6.417969 18.140625 6.585938 18.226562 6.667969 18.335938 6.707031 18.445312 6.707031zM17.230469 8.007812C17.351562 8.007812 17.46875 7.960938 17.554688 7.863281L17.859375 7.539062C18.027344 7.359375 18.015625 7.078125 17.835938 6.910156 17.660156 6.742188 17.378906 6.753906 17.207031 6.933594L16.90625 7.257812C16.738281 7.4375 16.746094 7.71875 16.925781 7.886719 17.011719 7.96875 17.121094 8.007812 17.230469 8.007812zM15.996094 8.234375L15.691406 8.558594C15.523438 8.738281 15.535156 9.019531 15.714844 9.1875 15.800781 9.269531 15.90625 9.308594 16.015625 9.308594 16.136719 9.308594 16.253906 9.261719 16.34375 9.167969L16.644531 8.839844C16.8125 8.660156 16.804688 8.378906 16.625 8.210938 16.445312 8.042969 16.164062 8.054688 15.996094 8.234375zM19.660156 5.40625C19.777344 5.40625 19.898438 5.359375 19.984375 5.265625L20.289062 4.9375C20.457031 4.757812 20.445312 4.476562 20.265625 4.308594 20.085938 4.140625 19.804688 4.152344 19.636719 4.332031L19.332031 4.65625C19.167969 4.835938 19.175781 5.117188 19.355469 5.285156 19.441406 5.363281 19.550781 5.40625 19.660156 5.40625zM22.089844 2.800781C22.207031 2.800781 22.324219 2.753906 22.414062 2.660156L22.570312 2.492188C22.738281 2.3125 22.726562 2.03125 22.550781 1.863281 22.367188 1.695312 22.089844 1.707031 21.921875 1.886719L21.761719 2.054688C21.59375 2.234375 21.605469 2.515625 21.785156 2.683594 21.871094 2.761719 21.980469 2.800781 22.089844 2.800781zM20.875 4.101562C20.992188 4.101562 21.109375 4.054688 21.199219 3.960938L21.503906 3.636719C21.671875 3.457031 21.660156 3.175781 21.480469 3.007812 21.300781 2.839844 21.019531 2.851562 20.851562 3.03125L20.546875 3.355469C20.378906 3.535156 20.390625 3.816406 20.570312 3.984375 20.65625 4.0625 20.765625 4.101562 20.875 4.101562zM11.566406 4.859375C11.8125 4.859375 12.011719 4.660156 12.011719 4.414062L12.011719 3.96875C12.011719 3.722656 11.8125 3.523438 11.566406 3.523438 11.320312 3.523438 11.121094 3.722656 11.121094 3.96875L11.121094 4.414062C11.121094 4.660156 11.320312 4.859375 11.566406 4.859375zM11.566406 6.636719C11.8125 6.636719 12.011719 6.4375 12.011719 6.191406L12.011719 5.75C12.011719 5.503906 11.8125 5.304688 11.566406 5.304688 11.320312 5.304688 11.121094 5.503906 11.121094 5.75L11.121094 6.191406C11.121094 6.4375 11.320312 6.636719 11.566406 6.636719zM11.566406 3.078125C11.8125 3.078125 12.011719 2.878906 12.011719 2.632812L12.011719 2.1875C12.011719 1.941406 11.8125 1.742188 11.566406 1.742188 11.320312 1.742188 11.121094 1.941406 11.121094 2.1875L11.121094 2.632812C11.121094 2.878906 11.320312 3.078125 11.566406 3.078125zM11.566406 8.417969C11.8125 8.417969 12.011719 8.21875 12.011719 7.972656L12.011719 7.527344C12.011719 7.28125 11.8125 7.082031 11.566406 7.082031 11.320312 7.082031 11.121094 7.28125 11.121094 7.527344L11.121094 7.972656C11.121094 8.21875 11.320312 8.417969 11.566406 8.417969zM18.582031 13.3125L19.027344 13.3125C19.273438 13.3125 19.472656 13.113281 19.472656 12.867188 19.472656 12.621094 19.273438 12.421875 19.027344 12.421875L18.582031 12.421875C18.335938 12.421875 18.136719 12.621094 18.136719 12.867188 18.136719 13.113281 18.335938 13.3125 18.582031 13.3125zM17.246094 12.421875L16.800781 12.421875C16.554688 12.421875 16.355469 12.621094 16.355469 12.867188 16.355469 13.113281 16.554688 13.3125 16.800781 13.3125L17.246094 13.3125C17.492188 13.3125 17.691406 13.113281 17.691406 12.867188 17.691406 12.621094 17.492188 12.421875 17.246094 12.421875zM22.140625 12.421875C21.894531 12.421875 21.695312 12.621094 21.695312 12.867188 21.695312 13.113281 21.894531 13.3125 22.140625 13.3125L22.585938 13.3125C22.832031 13.3125 23.03125 13.113281 23.03125 12.867188 23.03125 12.621094 22.832031 12.421875 22.585938 12.421875zM20.359375 13.3125L20.804688 13.3125C21.050781 13.3125 21.25 13.113281 21.25 12.867188 21.25 12.621094 21.050781 12.421875 20.804688 12.421875L20.359375 12.421875C20.113281 12.421875 19.917969 12.621094 19.917969 12.867188 19.917969 13.113281 20.113281 13.3125 20.359375 13.3125zM20.359375 13.3125"/>
    <path d="M 23.742188 18.199219 C 22.847656 16.511719 19.746094 14.679688 19.609375 14.601562 C 19.042969 14.277344 18.453125 14.175781 17.953125 14.3125 C 17.578125 14.417969 17.273438 14.65625 17.066406 15 C 16.613281 15.542969 16.050781 16.179688 15.914062 16.277344 C 14.859375 16.992188 14.019531 16.90625 13.113281 15.996094 L 8 10.886719 C 7.09375 9.976562 7.007812 9.140625 7.722656 8.085938 C 7.820312 7.949219 8.453125 7.386719 8.996094 6.933594 C 9.34375 6.726562 9.582031 6.421875 9.683594 6.046875 C 9.824219 5.546875 9.722656 4.957031 9.394531 4.386719 C 9.316406 4.253906 7.488281 1.152344 5.796875 0.257812 C 4.941406 -0.195312 3.902344 -0.0390625 3.21875 0.644531 L 2.089844 1.773438 C -1.203125 5.066406 -0.59375 9.15625 3.851562 13.605469 L 10.394531 20.148438 C 12.414062 22.167969 14.371094 23.40625 16.210938 23.832031 C 16.695312 23.945312 17.175781 24 17.644531 24 C 19.296875 24 20.832031 23.300781 22.226562 21.910156 L 23.355469 20.78125 C 24.039062 20.09375 24.195312 19.058594 23.742188 18.199219 Z M 22.722656 20.152344 L 21.59375 21.28125 C 18.671875 24.203125 15.117188 23.609375 11.023438 19.515625 L 4.480469 12.972656 C 0.390625 8.882812 -0.203125 5.324219 2.71875 2.402344 L 3.847656 1.273438 C 4.101562 1.023438 4.433594 0.890625 4.769531 0.890625 C 4.976562 0.890625 5.1875 0.941406 5.382812 1.042969 C 6.847656 1.820312 8.609375 4.804688 8.625 4.832031 C 8.824219 5.179688 8.898438 5.546875 8.828125 5.808594 C 8.78125 5.96875 8.683594 6.089844 8.523438 6.179688 L 8.457031 6.226562 C 8.078125 6.542969 7.171875 7.308594 6.984375 7.585938 C 6.710938 7.988281 6.53125 8.386719 6.4375 8.773438 C 6.121094 8.140625 5.867188 7.410156 5.78125 6.601562 C 5.753906 6.355469 5.539062 6.183594 5.292969 6.203125 C 5.046875 6.230469 4.871094 6.449219 4.894531 6.695312 C 5.214844 9.789062 7.621094 11.800781 7.722656 11.886719 C 7.734375 11.894531 7.75 11.898438 7.761719 11.90625 L 12.484375 16.625 C 12.503906 16.644531 12.523438 16.664062 12.542969 16.683594 C 12.558594 16.707031 12.570312 16.730469 12.589844 16.75 C 12.671875 16.835938 14.683594 18.785156 17.75 19.101562 C 17.765625 19.105469 17.78125 19.105469 17.796875 19.105469 C 18.023438 19.105469 18.214844 18.933594 18.238281 18.707031 C 18.265625 18.460938 18.085938 18.242188 17.84375 18.21875 C 16.902344 18.121094 16.066406 17.84375 15.375 17.523438 C 15.714844 17.421875 16.058594 17.25 16.410156 17.015625 C 16.691406 16.824219 17.457031 15.921875 17.773438 15.542969 L 17.820312 15.476562 C 17.910156 15.316406 18.03125 15.214844 18.191406 15.171875 C 18.449219 15.101562 18.816406 15.171875 19.164062 15.371094 C 20 15.859375 22.308594 17.398438 22.953125 18.617188 C 23.222656 19.128906 23.132812 19.742188 22.722656 20.152344 Z M 22.722656 20.152344"/>
    <path d="M17.703125 10.246094C17.59375 10.023438 17.324219 9.9375 17.105469 10.046875L16.707031 10.246094C16.488281 10.355469 16.398438 10.621094 16.507812 10.839844 16.585938 10.996094 16.742188 11.085938 16.90625 11.085938 16.972656 11.085938 17.042969 11.074219 17.105469 11.039062L17.503906 10.84375C17.722656 10.730469 17.8125 10.464844 17.703125 10.246094zM20.289062 9.449219L20.6875 9.25C20.90625 9.140625 20.996094 8.871094 20.886719 8.652344 20.777344 8.433594 20.507812 8.34375 20.289062 8.453125L19.890625 8.652344C19.671875 8.761719 19.582031 9.03125 19.691406 9.25 19.769531 9.40625 19.925781 9.496094 20.089844 9.496094 20.15625 9.496094 20.226562 9.480469 20.289062 9.449219zM21.683594 8.699219C21.75 8.699219 21.816406 8.683594 21.882812 8.652344L22.277344 8.453125C22.5 8.34375 22.585938 8.078125 22.476562 7.855469 22.367188 7.636719 22.101562 7.550781 21.882812 7.660156L21.484375 7.855469C21.261719 7.96875 21.175781 8.234375 21.285156 8.453125 21.363281 8.609375 21.519531 8.699219 21.683594 8.699219zM18.699219 10.246094L19.09375 10.046875C19.316406 9.9375 19.402344 9.667969 19.292969 9.449219 19.183594 9.230469 18.917969 9.140625 18.695312 9.25L18.300781 9.449219C18.078125 9.558594 17.992188 9.828125 18.101562 10.046875 18.179688 10.203125 18.335938 10.292969 18.5 10.292969 18.566406 10.292969 18.632812 10.277344 18.699219 10.246094zM13.621094 8.382812C13.675781 8.40625 13.734375 8.417969 13.792969 8.417969 13.964844 8.417969 14.132812 8.316406 14.203125 8.144531L14.375 7.734375C14.46875 7.507812 14.363281 7.246094 14.136719 7.152344 13.910156 7.058594 13.648438 7.164062 13.554688 7.390625L13.382812 7.800781C13.285156 8.027344 13.394531 8.289062 13.621094 8.382812zM15.675781 3.457031C15.730469 3.480469 15.789062 3.488281 15.84375 3.488281 16.019531 3.488281 16.183594 3.386719 16.257812 3.214844L16.425781 2.804688C16.523438 2.578125 16.414062 2.316406 16.1875 2.222656 15.960938 2.128906 15.699219 2.234375 15.605469 2.460938L15.433594 2.875C15.339844 3.101562 15.449219 3.359375 15.675781 3.457031zM14.988281 5.097656C15.046875 5.121094 15.105469 5.132812 15.160156 5.132812 15.335938 5.132812 15.5 5.03125 15.570312 4.859375L15.742188 4.449219C15.839844 4.222656 15.730469 3.960938 15.503906 3.867188 15.277344 3.773438 15.015625 3.878906 14.921875 4.105469L14.75 4.515625C14.65625 4.742188 14.761719 5.003906 14.988281 5.097656zM14.304688 6.742188C14.363281 6.765625 14.417969 6.773438 14.476562 6.773438 14.652344 6.773438 14.816406 6.671875 14.886719 6.5L15.058594 6.089844C15.152344 5.863281 15.046875 5.601562 14.820312 5.507812 14.59375 5.414062 14.332031 5.519531 14.238281 5.75L14.066406 6.160156C13.972656 6.386719 14.078125 6.648438 14.304688 6.742188zM14.304688 6.742188"/>
</svg>
