<svg xmlns="http://www.w3.org/2000/svg" width="32" height="32" viewBox="0 0 24 24">
    <path d="M20.8 11.2h-1.6c-.88 0-1.598.722-1.598 1.6 0 .88.718 1.598 1.597 1.598h.363a1.975 1.975 0 0 1-1.609 1.57A1.975 1.975 0 0 0 16 14.399h-3.602V14H17.2v-4c0-1.762-1.437-3.2-3.199-3.2h-1.602V6H15.2V4A3.212 3.212 0 0 0 12.4.824V.398C12.398.16 12.238 0 12 0c-.238 0-.398.16-.398.398v.426C10.027 1.024 8.8 2.375 8.8 4v2h2.8v.8H10A3.206 3.206 0 0 0 6.8 10v4h4.802v.398H8c-.973 0-1.762.665-1.953 1.57a1.975 1.975 0 0 1-1.61-1.57h.364c.879 0 1.597-.718 1.597-1.597 0-.883-.718-1.602-1.597-1.602H3.199c-.879 0-1.597.719-1.597 1.602 0 .879.718 1.597 1.597 1.597h.43a2.773 2.773 0 0 0 2.406 2.38A1.974 1.974 0 0 0 8 18.397h2.8v.801h-.402v2.324A2.407 2.407 0 0 0 9.234 23.2H6.801c-.242 0-.403.16-.403.403 0 .238.16.398.403.398h10.398c.242 0 .403-.16.403-.398 0-.243-.16-.403-.403-.403h-2.433a2.407 2.407 0 0 0-1.164-1.676V19.2h-.403v-.8H16c.992 0 1.793-.688 1.965-1.622a2.773 2.773 0 0 0 2.406-2.379h.43c.879 0 1.597-.718 1.597-1.597 0-.88-.718-1.602-1.597-1.602zM9.603 4A2.404 2.404 0 0 1 12 1.602 2.404 2.404 0 0 1 14.398 4v1.2H9.602zm-2 6A2.404 2.404 0 0 1 10 7.602h4A2.404 2.404 0 0 1 16.398 10v3.2H7.602zm-5.204 2.8c0-.44.364-.8.801-.8h1.602c.437 0 .8.36.8.8 0 .438-.363.802-.8.802H3.199a.807.807 0 0 1-.8-.801zm7.641 10.4c.2-.68.8-1.2 1.52-1.2h.8c.762 0 1.403.52 1.563 1.2zm1.563-2h-.403V20h1.602v1.2zm.796-2h-.796v-.802h.796zM16 17.601H8c-.68 0-1.2-.524-1.2-1.204 0-.68.52-1.199 1.2-1.199h8c.68 0 1.2.52 1.2 1.2 0 .68-.52 1.203-1.2 1.203zm4.8-4h-1.6a.807.807 0 0 1-.802-.801c0-.442.364-.801.801-.801h1.602c.437 0 .8.36.8.8 0 .438-.363.802-.8.802zm0 0"/>
</svg>
