<svg xmlns="http://www.w3.org/2000/svg" width="32" height="32" viewBox="0 0 24 24">
    <path d="M 17.570312 3.324219 C 17.570312 1.484375 16.085938 0 14.242188 0 L 9.714844 0 C 7.875 0 6.390625 1.484375 6.390625 3.324219 L 6.390625 9.574219 L 6.402344 9.574219 C 6.394531 9.65625 6.390625 9.734375 6.390625 9.816406 L 6.390625 20.996094 C 6.390625 22.636719 7.710938 24 9.394531 24 L 14.605469 24 C 16.246094 24 17.609375 22.636719 17.570312 20.996094 L 17.570312 9.816406 C 17.570312 9.734375 17.566406 9.65625 17.558594 9.574219 L 17.570312 9.574219 Z M 9.394531 7.574219 L 9.394531 7.613281 L 14.5625 7.613281 C 15.398438 7.613281 16.136719 8.074219 16.507812 8.773438 L 7.433594 8.773438 C 7.792969 8.066406 8.523438 7.574219 9.394531 7.574219 Z M 12.800781 5.167969 L 10.398438 5.167969 L 10.398438 2.363281 L 14.804688 2.363281 L 14.804688 3.164062 L 12.800781 3.164062 Z M 13.601562 5.96875 L 14.804688 5.96875 L 14.804688 6.769531 L 9.195312 6.769531 L 9.195312 5.96875 Z M 7.191406 18.390625 L 11.199219 18.390625 C 11.4375 18.390625 11.597656 18.230469 11.597656 17.988281 C 11.597656 17.75 11.4375 17.589844 11.199219 17.589844 L 7.191406 17.589844 L 7.191406 16.386719 L 11.199219 16.386719 C 11.4375 16.386719 11.597656 16.226562 11.597656 15.988281 C 11.597656 15.746094 11.4375 15.585938 11.199219 15.585938 L 7.191406 15.585938 L 7.191406 14.382812 L 9.195312 14.382812 C 9.4375 14.382812 9.597656 14.222656 9.597656 13.984375 C 9.597656 13.742188 9.4375 13.582031 9.195312 13.582031 L 7.191406 13.582031 L 7.191406 11.980469 L 13.601562 11.980469 L 13.601562 19.992188 L 7.191406 19.992188 Z M 16.769531 9.816406 L 16.769531 20.953125 C 16.769531 22.15625 15.804688 23.160156 14.5625 23.160156 L 9.394531 23.160156 C 8.195312 23.160156 7.191406 22.195312 7.191406 20.953125 L 7.191406 20.792969 L 14.402344 20.792969 L 14.402344 11.179688 L 7.191406 11.179688 L 7.191406 9.777344 C 7.191406 9.707031 7.195312 9.640625 7.203125 9.574219 L 16.753906 9.574219 C 16.761719 9.65625 16.769531 9.734375 16.769531 9.816406 Z M 15.605469 6.996094 L 15.605469 5.167969 L 13.601562 5.167969 L 13.601562 3.964844 L 15.605469 3.964844 L 15.605469 1.5625 L 9.597656 1.5625 L 9.597656 5.167969 L 8.394531 5.167969 L 8.394531 6.984375 C 7.933594 7.144531 7.519531 7.417969 7.191406 7.769531 L 7.191406 3.324219 C 7.191406 1.921875 8.3125 0.761719 9.714844 0.800781 L 14.285156 0.800781 C 15.6875 0.800781 16.808594 1.921875 16.808594 3.324219 L 16.808594 7.816406 C 16.484375 7.453125 16.074219 7.167969 15.605469 6.996094 Z M 15.605469 6.996094"/>
</svg>
