<svg xmlns="http://www.w3.org/2000/svg" width="32" height="32" viewBox="0 0 24 24">
    <path d="M 23.515625 4.601562 C 23.097656 4.183594 22.515625 4.058594 21.804688 4.183594 C 21.175781 4.308594 20.550781 4.644531 20.003906 5.1875 C 19.285156 5.90625 18.914062 6.769531 18.929688 7.519531 L 13.546875 12.898438 L 11.160156 10.527344 L 16.65625 5.101562 C 17.375 5.0625 18.160156 4.6875 18.792969 3.976562 C 19.292969 3.472656 19.671875 2.804688 19.796875 2.179688 C 19.964844 1.507812 19.796875 0.882812 19.378906 0.464844 C 18.960938 0.046875 18.375 -0.078125 17.664062 0.046875 C 17.039062 0.171875 16.410156 0.507812 15.867188 1.050781 C 15.160156 1.757812 14.789062 2.601562 14.789062 3.34375 L 9.394531 8.773438 L 7.367188 6.757812 C 7.324219 6.050781 6.957031 5.265625 6.292969 4.601562 C 5.792969 4.101562 5.125 3.726562 4.496094 3.601562 C 3.828125 3.433594 3.199219 3.601562 2.78125 4.019531 C 2.363281 4.4375 2.238281 5.019531 2.363281 5.730469 C 2.488281 6.359375 2.824219 6.984375 3.367188 7.53125 C 4.050781 8.214844 4.851562 8.585938 5.582031 8.613281 L 7.527344 10.558594 L 3.285156 14.800781 C 3.152344 14.804688 3.011719 14.820312 2.867188 14.84375 C 2.238281 14.96875 1.570312 15.347656 1.066406 15.847656 C 0.566406 16.351562 0.191406 17.019531 0.0664062 17.644531 C -0.101562 18.316406 0.0664062 18.941406 0.484375 19.359375 C 0.816406 19.695312 1.234375 19.863281 1.738281 19.863281 C 1.90625 19.863281 2.070312 19.863281 2.195312 19.777344 C 2.824219 19.652344 3.449219 19.316406 3.996094 18.773438 C 4.496094 18.273438 4.871094 17.605469 4.996094 16.976562 C 5.027344 16.855469 5.046875 16.734375 5.054688 16.613281 L 9.289062 12.320312 L 11.6875 14.71875 L 7.46875 18.9375 C 7.320312 18.941406 7.164062 18.953125 7.003906 18.984375 C 6.378906 19.109375 5.707031 19.484375 5.207031 19.988281 C 4.707031 20.488281 4.328125 21.15625 4.203125 21.785156 C 4.035156 22.453125 4.203125 23.082031 4.621094 23.5 C 4.957031 23.832031 5.375 24 5.875 24 C 6.042969 24 6.210938 24 6.335938 23.917969 C 6.960938 23.789062 7.589844 23.457031 8.132812 22.914062 C 8.636719 22.410156 9.011719 21.742188 9.136719 21.117188 C 9.171875 20.980469 9.1875 20.851562 9.195312 20.722656 L 14.027344 15.890625 L 12.273438 14.132812 L 9.878906 11.722656 L 9.890625 11.710938 L 8.132812 9.953125 L 8.128906 9.960938 L 6.585938 8.40625 C 6.710938 8.324219 6.835938 8.238281 6.921875 8.15625 C 7.003906 8.074219 7.089844 7.945312 7.171875 7.820312 L 8.761719 9.410156 L 10.515625 11.167969 L 17.914062 18.566406 C 17.789062 18.648438 17.664062 18.734375 17.582031 18.816406 C 17.496094 18.898438 17.414062 19.023438 17.332031 19.152344 L 14.027344 15.890625 L 13.484375 16.433594 L 17.117188 20.03125 C 17.113281 20.203125 17.128906 20.382812 17.164062 20.570312 C 17.289062 21.199219 17.621094 21.824219 18.167969 22.371094 C 18.667969 22.871094 19.335938 23.246094 19.964844 23.371094 C 20.132812 23.414062 20.296875 23.414062 20.464844 23.414062 C 20.96875 23.414062 21.386719 23.246094 21.675781 22.953125 C 22.097656 22.535156 22.222656 21.953125 22.097656 21.242188 C 21.96875 20.613281 21.636719 19.988281 21.09375 19.441406 C 20.589844 18.941406 19.921875 18.566406 19.292969 18.441406 C 19.222656 18.421875 19.152344 18.410156 19.082031 18.398438 L 15.316406 14.65625 L 20.835938 9.238281 C 21.542969 9.1875 22.308594 8.8125 22.933594 8.113281 C 23.433594 7.613281 23.808594 6.945312 23.933594 6.316406 C 24.101562 5.648438 23.933594 5.019531 23.515625 4.601562 Z M 3.449219 18.1875 C 3.03125 18.605469 2.53125 18.898438 2.070312 18.984375 C 1.863281 19.023438 1.402344 19.066406 1.109375 18.773438 C 0.816406 18.480469 0.859375 18.0625 0.902344 17.8125 C 0.984375 17.351562 1.277344 16.851562 1.695312 16.433594 C 2.113281 16.015625 2.613281 15.722656 3.074219 15.640625 C 3.097656 15.628906 3.128906 15.617188 3.15625 15.613281 L 3.449219 15.640625 C 3.660156 15.640625 3.871094 15.722656 3.996094 15.847656 C 4.160156 16.015625 4.246094 16.183594 4.246094 16.433594 L 4.265625 16.660156 C 4.261719 16.714844 4.253906 16.765625 4.246094 16.808594 C 4.160156 17.269531 3.871094 17.769531 3.449219 18.1875 Z M 4.871094 15.640625 C 4.789062 15.515625 4.707031 15.386719 4.621094 15.304688 C 4.613281 15.296875 4.605469 15.289062 4.597656 15.28125 C 4.59375 15.277344 4.585938 15.269531 4.578125 15.261719 C 4.492188 15.175781 4.398438 15.105469 4.300781 15.042969 L 8.132812 11.207031 L 8.71875 11.792969 Z M 7.589844 22.328125 C 7.171875 22.746094 6.671875 23.039062 6.210938 23.121094 C 6 23.164062 5.542969 23.207031 5.25 22.914062 C 4.957031 22.621094 4.996094 22.203125 5.039062 21.953125 C 5.125 21.492188 5.414062 20.988281 5.832031 20.570312 C 6.253906 20.152344 6.753906 19.863281 7.214844 19.777344 C 7.296875 19.734375 7.421875 19.734375 7.546875 19.734375 C 7.5625 19.734375 7.578125 19.734375 7.59375 19.738281 C 7.800781 19.777344 7.964844 19.863281 8.132812 19.988281 C 8.300781 20.113281 8.382812 20.28125 8.382812 20.53125 L 8.40625 20.777344 C 8.402344 20.839844 8.390625 20.898438 8.382812 20.949219 C 8.300781 21.40625 8.007812 21.910156 7.589844 22.328125 Z M 12.855469 15.890625 L 9.011719 19.734375 C 8.925781 19.609375 8.84375 19.484375 8.761719 19.402344 C 8.675781 19.316406 8.550781 19.234375 8.425781 19.152344 L 12.273438 15.304688 Z M 3.160156 5.566406 C 3.117188 5.355469 3.074219 4.894531 3.367188 4.601562 C 3.578125 4.394531 3.828125 4.351562 4.035156 4.351562 C 4.160156 4.351562 4.246094 4.394531 4.371094 4.351562 C 4.832031 4.4375 5.332031 4.726562 5.75 5.144531 C 6.238281 5.660156 6.523438 6.273438 6.558594 6.773438 L 6.542969 6.945312 C 6.503906 7.195312 6.417969 7.402344 6.292969 7.527344 C 6.257812 7.578125 6.214844 7.621094 6.167969 7.65625 C 5.621094 7.96875 4.667969 7.660156 3.953125 6.945312 C 3.535156 6.527344 3.242188 6.023438 3.160156 5.566406 Z M 16.453125 1.675781 C 16.871094 1.257812 17.371094 0.964844 17.832031 0.882812 C 17.914062 0.839844 18.039062 0.839844 18.167969 0.839844 C 18.375 0.839844 18.625 0.882812 18.835938 1.050781 C 19.128906 1.34375 19.085938 1.800781 19.042969 2.09375 C 18.960938 2.554688 18.667969 3.054688 18.25 3.472656 C 17.597656 4.09375 16.816406 4.382812 16.265625 4.261719 C 16.125 4.214844 15.996094 4.148438 15.910156 4.058594 C 15.742188 3.890625 15.65625 3.726562 15.65625 3.472656 L 15.632812 3.195312 C 15.695312 2.703125 15.988281 2.140625 16.453125 1.675781 Z M 15.027344 4.273438 C 15.089844 4.378906 15.160156 4.476562 15.246094 4.566406 C 15.257812 4.578125 15.269531 4.589844 15.28125 4.601562 C 15.382812 4.703125 15.492188 4.789062 15.609375 4.859375 L 10.550781 9.921875 L 9.960938 9.335938 Z M 21.257812 21.367188 C 21.300781 21.574219 21.34375 22.035156 21.050781 22.328125 C 20.757812 22.621094 20.339844 22.578125 20.089844 22.535156 C 19.628906 22.453125 19.128906 22.160156 18.710938 21.742188 C 18.316406 21.347656 18.035156 20.882812 17.933594 20.445312 L 17.957031 19.902344 C 17.996094 19.675781 18.066406 19.484375 18.175781 19.355469 C 18.371094 19.1875 18.601562 19.152344 18.792969 19.152344 C 18.917969 19.152344 19.042969 19.152344 19.085938 19.191406 C 19.546875 19.277344 20.046875 19.570312 20.464844 19.988281 C 20.882812 20.40625 21.175781 20.90625 21.257812 21.367188 Z M 14.113281 13.460938 L 19.164062 8.410156 C 19.226562 8.515625 19.300781 8.613281 19.386719 8.703125 C 19.398438 8.71875 19.410156 8.730469 19.421875 8.742188 C 19.523438 8.84375 19.632812 8.929688 19.746094 9 L 14.703125 14.046875 Z M 23.183594 6.234375 C 23.097656 6.691406 22.804688 7.195312 22.386719 7.613281 C 21.769531 8.199219 21.039062 8.488281 20.5 8.414062 C 20.335938 8.367188 20.1875 8.296875 20.089844 8.199219 C 19.921875 8.03125 19.839844 7.863281 19.839844 7.613281 L 19.796875 7.175781 C 19.898438 6.726562 20.175781 6.230469 20.589844 5.816406 C 21.007812 5.398438 21.511719 5.105469 21.96875 5.019531 C 22.054688 4.980469 22.179688 4.980469 22.304688 4.980469 C 22.511719 4.980469 22.765625 5.019531 22.972656 5.273438 C 23.265625 5.566406 23.222656 5.984375 23.183594 6.234375 Z M 23.183594 6.234375"/>
</svg>
