<svg xmlns="http://www.w3.org/2000/svg" width="32" height="32" viewBox="0 0 24 24">
    <path d="M23.633.375c-.672-.668-1.965-.418-3.848.668-1.715 1.004-3.68 2.55-5.52 4.43l-7.417 7.422-.356-.356L.47 18.56a1.594 1.594 0 0 0 0 2.257l2.719 2.72c.292.292.71.46 1.128.46.418 0 .793-.168 1.13-.504l6.019-5.976-.395-.395 7.461-7.383c1.88-1.879 3.426-3.843 4.43-5.52 1.09-1.921 1.34-3.175.672-3.843zM4.859 22.906a.78.78 0 0 1-1.086 0l-2.718-2.715c-.293-.293-.293-.753 0-1.09l5.437-5.433 3.801 3.805zM18.137 3.172l-.016.11 4 .667c-.387.645-.86 1.328-1.402 2.028L16.14 4.832a30.529 30.529 0 0 1 1.996-1.66zm-3.285 2.887c.183-.184.37-.368.558-.547l4.735 1.183a33.51 33.51 0 0 1-1.7 1.903L13.54 7.37zm-3.864 3.863l1.86-1.86 4.918 1.231-1.871 1.855zm4.215 1.918l-1.902 1.89-4.899-1.222 1.899-1.895zM7.715 13.2l4.89 1.222-2.101 2.09-3.05-3.051zM22.55 3.171l-3.586-.598c.426-.293.84-.554 1.238-.777C21.75.875 22.753.75 23.003 1c.25.219.165.957-.452 2.172zm0 0"/>
    <path d="M4.023 17.89l-1.46 1.465v.586l1.46 1.461h.586l1.465-1.46v-.587L4.61 17.891zm.293 2.633l-.878-.875.878-.878.88.878zm0 0"/>
</svg>
