<svg xmlns="http://www.w3.org/2000/svg" width="32" height="32" viewBox="0 0 24 24">
    <path d="M 15.605469 4.421875 C 15.84375 4.421875 16.003906 4.261719 16.003906 4.019531 C 16.003906 3.78125 15.84375 3.621094 15.605469 3.621094 L 14.003906 3.621094 L 14.003906 2.820312 L 15.605469 2.820312 C 15.84375 2.820312 16.003906 2.660156 16.003906 2.417969 C 16.003906 2.179688 15.84375 2.019531 15.605469 2.019531 L 13.960938 2.019531 C 13.925781 1.84375 13.867188 1.679688 13.789062 1.523438 L 15.363281 0.738281 C 15.523438 0.65625 15.605469 0.417969 15.523438 0.214844 C 15.441406 0.0546875 15.203125 -0.0234375 15.003906 0.0546875 L 13.402344 0.855469 C 13.371094 0.871094 13.34375 0.894531 13.320312 0.917969 C 12.964844 0.605469 12.5 0.417969 12 0.417969 C 11.496094 0.417969 11.027344 0.609375 10.667969 0.929688 C 10.636719 0.898438 10.601562 0.875 10.558594 0.855469 L 8.957031 0.0546875 C 8.796875 -0.0625 8.558594 0.015625 8.4375 0.214844 C 8.355469 0.417969 8.4375 0.65625 8.636719 0.777344 L 10.195312 1.554688 C 10.125 1.699219 10.070312 1.855469 10.039062 2.019531 L 8.394531 2.019531 C 8.15625 2.019531 7.996094 2.179688 7.996094 2.417969 C 7.996094 2.660156 8.15625 2.820312 8.394531 2.820312 L 9.996094 2.820312 L 9.996094 3.621094 L 8.394531 3.621094 C 8.15625 3.621094 7.996094 3.78125 7.996094 4.019531 C 7.996094 4.261719 8.15625 4.421875 8.394531 4.421875 L 9.996094 4.421875 L 9.996094 5.222656 L 8.394531 5.222656 C 8.15625 5.222656 7.996094 5.382812 7.996094 5.621094 C 7.996094 5.863281 8.15625 6.023438 8.394531 6.023438 L 9.996094 6.023438 L 9.996094 6.824219 L 8.394531 6.824219 C 8.15625 6.824219 7.996094 6.984375 7.996094 7.222656 C 7.996094 7.464844 8.15625 7.625 8.394531 7.625 L 9.996094 7.625 L 9.996094 8.425781 L 8.394531 8.425781 C 8.15625 8.425781 7.996094 8.585938 7.996094 8.824219 C 7.996094 9.066406 8.15625 9.226562 8.394531 9.226562 L 10 9.226562 C 10.003906 9.398438 10.027344 9.570312 10.070312 9.730469 L 8.597656 10.464844 C 8.4375 10.546875 8.355469 10.785156 8.4375 10.988281 C 8.515625 11.148438 8.636719 11.226562 8.796875 11.226562 C 8.875 11.226562 8.917969 11.1875 8.957031 11.148438 L 10.414062 10.417969 C 10.523438 10.5625 10.652344 10.6875 10.796875 10.796875 L 10.796875 12.347656 L 10.398438 12.347656 L 9.675781 21.558594 C 9.636719 22.199219 9.878906 22.796875 10.316406 23.277344 C 10.757812 23.757812 11.359375 24 12 24 C 12.640625 24 13.242188 23.757812 13.601562 23.238281 C 14.042969 22.757812 14.28125 22.15625 14.242188 21.515625 L 13.519531 12.347656 L 13.199219 12.347656 L 13.199219 10.800781 C 13.339844 10.699219 13.460938 10.582031 13.566406 10.449219 L 15.042969 11.1875 C 15.082031 11.226562 15.121094 11.226562 15.203125 11.226562 C 15.363281 11.226562 15.484375 11.105469 15.5625 11.027344 C 15.683594 10.828125 15.601562 10.585938 15.402344 10.507812 L 13.925781 9.765625 C 13.976562 9.59375 14 9.414062 14 9.226562 L 15.601562 9.226562 C 15.84375 9.226562 16.003906 9.066406 16.003906 8.824219 C 16.003906 8.585938 15.84375 8.425781 15.601562 8.425781 L 14 8.425781 L 14 7.625 L 15.601562 7.625 C 15.84375 7.625 16.003906 7.464844 16.003906 7.222656 C 16.003906 6.984375 15.84375 6.824219 15.601562 6.824219 L 14 6.824219 L 14 6.023438 L 15.601562 6.023438 C 15.84375 6.023438 16.003906 5.863281 16.003906 5.621094 C 16.003906 5.382812 15.84375 5.222656 15.601562 5.222656 L 14 5.222656 L 14 4.421875 Z M 12 1.21875 C 12.539062 1.21875 12.976562 1.542969 13.136719 2.019531 L 10.867188 2.019531 C 11.035156 1.542969 11.492188 1.21875 12 1.21875 Z M 10.796875 2.820312 L 13.203125 2.820312 L 13.203125 3.621094 L 10.796875 3.621094 Z M 13.082031 22.71875 C 12.800781 23.039062 12.398438 23.199219 12 23.199219 C 11.601562 23.199219 11.199219 23.039062 10.878906 22.71875 C 10.597656 22.4375 10.480469 22.039062 10.480469 21.636719 L 11.160156 13.1875 L 12.804688 13.1875 L 13.480469 21.597656 C 13.523438 22.039062 13.359375 22.398438 13.082031 22.71875 Z M 12.398438 11.1875 L 12.398438 12.347656 L 11.597656 12.347656 L 11.597656 11.1875 Z M 12.304688 10.386719 L 11.703125 10.386719 C 11.195312 10.246094 10.796875 9.765625 10.796875 9.226562 L 13.203125 9.226562 C 13.203125 9.796875 12.808594 10.253906 12.304688 10.386719 Z M 13.203125 8.425781 L 10.796875 8.425781 L 10.796875 7.625 L 13.203125 7.625 Z M 13.203125 6.824219 L 10.796875 6.824219 L 10.796875 6.023438 L 13.203125 6.023438 Z M 13.203125 5.222656 L 10.796875 5.222656 L 10.796875 4.421875 L 13.203125 4.421875 Z M 13.203125 5.222656"/>
</svg>
