<svg xmlns="http://www.w3.org/2000/svg" width="32" height="32" viewBox="0 0 24 24">
    <path d="M16.598 5.594c.238 0 .398-.16.398-.403 0-.238-.16-.398-.398-.398h-1.602v-.8h1.602c.238 0 .398-.161.398-.403 0-.238-.16-.399-.398-.399h-1.93l-3.445-1.53L9.234.07a.432.432 0 0 0-.562.077c-.117.16-.078.442.082.563l1.785 1.426-.23.633-1.875-1.5c-.16-.122-.442-.079-.559.082a.427.427 0 0 0 .078.558l2 1.602.07.035-.257.71-1.73-1.386a.432.432 0 0 0-.563.078c-.121.16-.078.442.082.563L9.477 5.05l-.25.695-1.594-1.273c-.16-.121-.442-.082-.559.078a.432.432 0 0 0 .078.562L9.06 6.637l2.734 4.68v5.081l-.797 5.563V22c0 1.121.879 2 2 2s2-.879 2-2v-.04l-.8-5.562v-5.125l.718-2.48h1.684c.238 0 .398-.16.398-.398 0-.243-.16-.403-.398-.403h-1.602v-.8h1.602c.238 0 .398-.16.398-.399 0-.242-.16-.402-.398-.402h-1.602v-.797zm-3.203 5.52v5.363l.8 5.562c0 .64-.558 1.16-1.199 1.16-.64 0-1.203-.52-1.203-1.16l.8-5.562v-5.243c0-.078 0-.12-.038-.199l-2.72-4.644 1.4-3.84 2.96 1.32v4.48zm0 0"/>
</svg>
