<svg xmlns="http://www.w3.org/2000/svg" width="32" height="32" viewBox="0 0 24 24">
    <path d="M19.195 8.414v-.402h.399c.238 0 .398-.16.398-.399 0-.238-.16-.398-.398-.398h-.399v-.8h.399c.238 0 .398-.161.398-.4 0-.242-.16-.398-.398-.398h-.399v-.8c0-.962-.199-1.32-.761-1.797-.797-.68-1.797-.602-1.997-.602H9.642c-1.157 0-1.996-.238-2.438-.758-.48-.52-.398-1.12-.398-1.16 0-.16-.04-.32-.16-.441-.16-.079-.32-.079-.442 0-.078.082-2.316 1.398-2.555 3.199-.113.75.16 1.465.758 2.113v.246h-.398c-.242 0-.403.156-.403.399 0 .238.16.398.403.398h.398v.8h-.398c-.242 0-.403.161-.403.4 0 .241.16.398.403.398h.398v.441A2.007 2.007 0 0 0 2.81 10.41V24H21.19V10.41a2.002 2.002 0 0 0-1.996-1.996zM5.207 5.617h13.188v2.797H5.207zM4.445 3.38c.121-.961 1-1.762 1.602-2.238.078.316.238.68.52.996.597.722 1.636 1.082 3.035 1.082h6.793c0-.043.84-.082 1.402.398.316.281.52.68.558 1.2H4.965c-.399-.481-.598-.962-.52-1.438zM15.2 17.605A3.208 3.208 0 0 1 12 20.801a3.208 3.208 0 0 1-3.2-3.196 3.21 3.21 0 0 1 3.2-3.199 3.21 3.21 0 0 1 3.2 3.2zM3.605 12.012h16.79v1.597H3.605zm0 2.394H9.61a4.006 4.006 0 0 0-1.605 3.2c0 1.304.633 2.464 1.605 3.199H3.605zm16.79 8.793H3.605v-1.597h16.79zm0-2.398H14.39a3.993 3.993 0 0 0 1.605-3.196 4.006 4.006 0 0 0-1.605-3.199h6.004zm-16.79-9.59v-.8c0-.68.563-1.2 1.2-1.2h14.39c.68 0 1.2.562 1.2 1.2v.8zm0 0"/>
</svg>
