<svg xmlns="http://www.w3.org/2000/svg" width="32" height="32" viewBox="0 0 24 24">
    <path d="M19.2 4V2c0-1.121-.919-2-2-2H6.397c-1.117 0-2 .922-2 2v2.04A2.008 2.008 0 0 0 2.801 6v18h18.398V6c0-1.121-.918-2-2-2zm-14-2c0-.68.562-1.2 1.198-1.2H17.2c.68 0 1.2.56 1.2 1.2v2h-13.2zM3.601 7.602h16.796V12H3.602zm0 5.199h5.753a4.803 4.803 0 0 0-2.156 4c0 1.664.86 3.137 2.156 4H3.602zm8.398 0c2.2 0 4 1.8 4 4 0 2.199-1.8 4-4 4S8 19 8 16.8c0-2.2 1.8-4 4-4zm8.398 10.398H3.602v-1.597h16.796zm0-2.398h-5.753a4.808 4.808 0 0 0 2.156-4c0-1.664-.86-3.14-2.156-4h5.753zM3.602 6.8V6c0-.68.558-1.2 1.199-1.2h14.398c.68 0 1.2.56 1.2 1.2v.8zm0 0"/>
</svg>
