<svg xmlns="http://www.w3.org/2000/svg" width="32" height="32" viewBox="0 0 24 24">
    <path d="M 19.195312 8.414062 L 19.195312 8.011719 L 19.59375 8.011719 C 19.832031 8.011719 19.992188 7.851562 19.992188 7.613281 C 19.992188 7.375 19.832031 7.214844 19.59375 7.214844 L 19.195312 7.214844 L 19.195312 6.414062 L 19.59375 6.414062 C 19.832031 6.414062 19.992188 6.253906 19.992188 6.015625 C 19.992188 5.773438 19.832031 5.617188 19.59375 5.617188 L 19.195312 5.617188 L 19.195312 4.816406 C 19.195312 3.855469 18.996094 3.496094 18.433594 3.019531 C 17.636719 2.339844 16.636719 2.417969 16.4375 2.417969 L 9.640625 2.417969 C 8.484375 2.417969 7.644531 2.179688 7.203125 1.660156 C 6.722656 1.140625 6.804688 0.539062 6.804688 0.5 C 6.804688 0.339844 6.765625 0.179688 6.644531 0.0585938 C 6.484375 -0.0195312 6.324219 -0.0195312 6.203125 0.0585938 C 6.125 0.140625 3.886719 1.457031 3.648438 3.257812 C 3.535156 4.007812 3.808594 4.722656 4.40625 5.371094 L 4.40625 5.617188 L 4.007812 5.617188 C 3.765625 5.617188 3.605469 5.773438 3.605469 6.015625 C 3.605469 6.253906 3.765625 6.414062 4.007812 6.414062 L 4.40625 6.414062 L 4.40625 7.214844 L 4.007812 7.214844 C 3.765625 7.214844 3.605469 7.375 3.605469 7.613281 C 3.605469 7.855469 3.765625 8.011719 4.007812 8.011719 L 4.40625 8.011719 L 4.40625 8.453125 C 3.484375 8.640625 2.808594 9.464844 2.808594 10.410156 L 2.808594 24 L 21.191406 24 L 21.191406 10.410156 C 21.191406 9.292969 20.273438 8.414062 19.195312 8.414062 Z M 5.207031 5.617188 L 18.394531 5.617188 L 18.394531 8.414062 L 5.207031 8.414062 Z M 4.445312 3.378906 C 4.566406 2.417969 5.445312 1.617188 6.046875 1.140625 C 6.125 1.457031 6.285156 1.820312 6.566406 2.136719 C 7.164062 2.859375 8.203125 3.21875 9.601562 3.21875 L 16.394531 3.21875 C 16.394531 3.175781 17.234375 3.136719 17.796875 3.617188 C 18.113281 3.898438 18.316406 4.296875 18.355469 4.816406 L 4.964844 4.816406 C 4.566406 4.335938 4.367188 3.855469 4.445312 3.378906 Z M 15.199219 17.605469 C 15.199219 19.363281 13.757812 20.800781 12 20.800781 C 10.242188 20.800781 8.800781 19.363281 8.800781 17.605469 C 8.800781 15.847656 10.242188 14.40625 12 14.40625 C 13.757812 14.40625 15.199219 15.847656 15.199219 17.605469 Z M 3.605469 12.011719 L 20.394531 12.011719 L 20.394531 13.609375 L 3.605469 13.609375 Z M 3.605469 14.40625 L 9.609375 14.40625 C 8.636719 15.140625 8.003906 16.300781 8.003906 17.605469 C 8.003906 18.910156 8.636719 20.070312 9.609375 20.804688 L 3.605469 20.804688 Z M 20.394531 23.199219 L 3.605469 23.199219 L 3.605469 21.601562 L 20.394531 21.601562 Z M 20.394531 20.800781 L 14.390625 20.800781 C 15.363281 20.070312 15.996094 18.910156 15.996094 17.605469 C 15.996094 16.300781 15.363281 15.140625 14.390625 14.40625 L 20.394531 14.40625 Z M 3.605469 11.210938 L 3.605469 10.410156 C 3.605469 9.730469 4.167969 9.210938 4.804688 9.210938 L 19.195312 9.210938 C 19.875 9.210938 20.394531 9.773438 20.394531 10.410156 L 20.394531 11.210938 Z M 3.605469 11.210938"/>
</svg>
