<svg xmlns="http://www.w3.org/2000/svg" width="32" height="32" viewBox="0 0 24 24">
    <path d="M19.621 7.242c-1.89-1.285-4.125-2.027-6.512-2.164l2.09-1.793a.393.393 0 0 0 .125-.172c.258.16.563.254.887.254.926 0 1.684-.758 1.684-1.683C17.895.758 17.137 0 16.21 0c-.926 0-1.684.758-1.684 1.684 0 .324.094.629.254.886a.38.38 0 0 0-.129.082L11.98 4.945 9.305 2.652a.315.315 0 0 0-.094-.066c.164-.262.262-.57.262-.902C9.473.758 8.715 0 7.789 0c-.926 0-1.684.758-1.684 1.684 0 .925.758 1.683 1.684 1.683.313 0 .61-.086.86-.238.027.055.062.11.109.156l2.097 1.797c-2.343.156-4.53.895-6.39 2.16C1.684 9.137.21 11.707.21 14.738v6.02A3.242 3.242 0 0 0 3.453 24h17.094a3.215 3.215 0 0 0 3.242-3.242v-6.02c0-3.031-1.473-5.601-4.168-7.496zM16.211.844c.46 0 .84.379.84.84a.844.844 0 0 1-.84.843.845.845 0 0 1-.844-.843c0-.461.38-.84.844-.84zM7.789 2.527a.844.844 0 0 1-.84-.843c0-.461.38-.84.84-.84.465 0 .844.379.844.84a.845.845 0 0 1-.844.843zm15.2 18.23a2.396 2.396 0 0 1-2.4 2.4H3.454a2.4 2.4 0 0 1-2.402-2.4v-6.019c0-2.781 1.308-5.054 3.875-6.824 1.937-1.305 4.297-2.02 6.82-2.02h.547c2.484 0 4.844.676 6.824 2.02 2.567 1.77 3.871 4.043 3.871 6.824zm0 0"/>
    <path d="M18.148 8.926c-1.726-1.18-3.789-1.809-5.98-1.809h-.379c-2.187 0-4.254.63-5.98 1.809-2.274 1.558-3.493 3.707-3.493 6.191 0 .25.168.418.422.418.25 0 .418-.168.418-.418 0-2.234 1.055-4.043 3.16-5.476C7.875 8.59 9.81 8 11.832 8h.379c2.02 0 3.914.547 5.516 1.64 2.062 1.391 3.117 3.243 3.117 5.477 0 .25.168.418.418.418.21 0 .422-.168.379-.418 0-2.527-1.22-4.633-3.493-6.191zm0 0M5.684 21.05a2.533 2.533 0 0 1-2.528-2.523c0-.254-.168-.422-.418-.422-.254 0-.422.168-.422.422a3.378 3.378 0 0 0 3.368 3.368c.253 0 .421-.168.421-.422 0-.25-.168-.422-.421-.422zm0 0M21.262 18.105c-.25 0-.418.168-.418.422a2.533 2.533 0 0 1-2.528 2.524c-.253 0-.421.172-.421.422 0 .254.168.422.421.422a3.378 3.378 0 0 0 3.368-3.368c0-.254-.168-.422-.422-.422zm0 0"/>
</svg>
