<svg xmlns="http://www.w3.org/2000/svg" width="32" height="32" viewBox="0 0 24 24">
    <path d="M22.879 4H1.12C.481 4 0 4.52 0 5.121V18.88C0 19.519.52 20 1.121 20H22.88c.64 0 1.121-.48 1.121-1.121V5.12C24 4.481 23.48 4 22.879 4zm.32 14.879c0 .16-.16.32-.32.32H1.12c-.16 0-.32-.16-.32-.32V5.12c0-.16.16-.32.32-.32H22.88c.16 0 .32.16.32.32zm0 0"/>
    <path d="M6.602 13.2c2.32 0 4.199-1.88 4.199-4.24 0-1.28-.602-2.48-1.602-3.28-.16-.121-.437-.078-.558.082a.427.427 0 0 0 .078.558c.078.067.152.133.222.203-.09.07-.14.18-.14.317 0 .238.16.398.398.398a.43.43 0 0 0 .258-.078c.11.172.203.352.281.54a.403.403 0 0 0-.136.3c0 .223.132.375.343.398a3.332 3.332 0 0 1-.105 1.633.41.41 0 0 0-.238.367c0 .059.007.11.023.157-.121.23-.266.449-.434.644a.403.403 0 0 0-.39.395 3.38 3.38 0 0 1-2.2.804 3.37 3.37 0 0 1-1.87-.558.42.42 0 0 0 .07-.238c0-.243-.16-.403-.403-.403a.4.4 0 0 0-.285.121 3.356 3.356 0 0 1-.406-.53c.18-.044.293-.188.293-.392C4 10.16 3.84 10 3.602 10a.403.403 0 0 0-.23.07A3.451 3.451 0 0 1 3.198 9c0-.254.031-.5.082-.742.07.09.184.14.32.14C3.84 8.398 4 8.238 4 8c0-.238-.16-.398-.398-.398a.426.426 0 0 0-.102.011 3.41 3.41 0 0 1 .5-.789v.016c0 .242.16.398.398.398.243 0 .403-.156.403-.398 0-.238-.16-.399-.403-.399h-.015c.031-.027.062-.054.097-.082.2-.12.2-.398.079-.558-.118-.2-.399-.2-.559-.082-1.04.8-1.602 2-1.602 3.281 0 2.32 1.883 4.2 4.204 4.2zm0 0"/>
    <path d="M5.2 10.8c.241 0 .402-.16.402-.402 0-.238-.16-.398-.403-.398a.4.4 0 0 0-.398.398c0 .243.16.403.398.403zm0 0M8.398 10.8c.243 0 .403-.16.403-.402 0-.238-.16-.398-.403-.398a.4.4 0 0 0-.398.398c0 .243.16.403.398.403zm0 0M5.2 8.398c.241 0 .402-.16.402-.398 0-.238-.16-.398-.403-.398A.4.4 0 0 0 4.801 8c0 .238.16.398.398.398zm0 0M8.398 8.398c.243 0 .403-.16.403-.398 0-.238-.16-.398-.403-.398A.4.4 0 0 0 8 8c0 .238.16.398.398.398zm0 0M6.8 10.8c.24 0 .4-.16.4-.402 0-.238-.16-.398-.4-.398a.4.4 0 0 0-.402.398c0 .243.16.403.403.403zm0 0M6 12c.238 0 .398-.16.398-.398 0-.243-.16-.403-.398-.403a.4.4 0 0 0-.398.403c0 .238.16.398.398.398zm0 0M7.602 12c.238 0 .398-.16.398-.398 0-.243-.16-.403-.398-.403-.243 0-.403.2-.403.403 0 .238.16.398.403.398zm0 0M6.8 8.398c.24 0 .4-.16.4-.398 0-.238-.16-.398-.4-.398A.4.4 0 0 0 6.399 8c0 .238.16.398.403.398zm0 0M6 8.8a.4.4 0 0 0-.398.4c0 .241.16.402.398.402.238 0 .398-.16.398-.403 0-.238-.16-.398-.398-.398zm0 0M4.398 8.8A.4.4 0 0 0 4 9.2c0 .241.16.402.398.402.243 0 .403-.16.403-.403 0-.238-.16-.398-.403-.398zm0 0M7.602 8.8a.4.4 0 0 0-.403.4c0 .241.16.402.403.402.238 0 .398-.16.398-.403 0-.238-.16-.398-.398-.398zm0 0M6 7.238c.238 0 .398-.16.398-.398 0-.238-.16-.399-.398-.399-.238 0-.398.16-.398.399 0 .238.16.398.398.398zm0 0M7.602 7.238c.238 0 .398-.16.398-.398 0-.238-.16-.399-.398-.399-.243 0-.403.16-.403.399 0 .238.16.398.403.398zm0 0M9.2 9.602c.241 0 .402-.16.402-.403 0-.238-.16-.398-.403-.398a.4.4 0 0 0-.398.398c0 .242.16.403.398.403zm0 0M17.398 13.2A4.201 4.201 0 0 0 21.602 9c0-1.281-.602-2.48-1.602-3.281-.16-.117-.441-.078-.559.082a.427.427 0 0 0 .079.558c.03.028.062.055.093.082h-.011a.4.4 0 0 0-.403.399c0 .238.16.398.403.398.234 0 .394-.156.398-.39.508.617.8 1.382.8 2.191 0 .887-.335 1.691-.89 2.293a.394.394 0 0 0-.308-.133.43.43 0 0 0-.403.403c0 .105.035.199.09.265a3.365 3.365 0 0 1-1.89.574c-.84 0-1.606-.304-2.2-.808v-.031c0-.243-.16-.403-.398-.403-.008 0-.02 0-.028.004a3.532 3.532 0 0 1-.406-.629c.02-.05.031-.11.031-.176 0-.187-.097-.324-.253-.375a3.409 3.409 0 0 1-.082-1.628c.203-.024.335-.176.335-.395a.386.386 0 0 0-.125-.305c.079-.183.172-.36.282-.527.066.047.148.07.246.07.238 0 .398-.156.398-.398a.388.388 0 0 0-.12-.3c.062-.063.132-.122.202-.18.2-.122.2-.4.078-.56-.12-.198-.398-.198-.558-.081-1.04.8-1.602 2-1.602 3.281 0 2.32 1.88 4.2 4.2 4.2zm0 0"/>
    <path d="M15.602 10.8c.238 0 .398-.16.398-.402 0-.238-.16-.398-.398-.398-.204 0-.403.2-.403.398 0 .243.16.403.403.403zm0 0M18.8 10.8c.24 0 .4-.16.4-.402 0-.238-.16-.398-.4-.398-.198 0-.402.2-.402.398 0 .243.16.403.403.403zm0 0M20 10a.4.4 0 0 0-.398.398c0 .243.16.403.398.403.238 0 .398-.16.398-.403 0-.238-.16-.398-.398-.398zm0 0M15.2 8c0 .238.16.398.402.398.238 0 .398-.16.398-.398 0-.238-.16-.398-.398-.398-.204 0-.403.199-.403.398zm0 0M18.8 8.398c.24 0 .4-.16.4-.398 0-.238-.16-.398-.4-.398-.198 0-.402.199-.402.398 0 .238.16.398.403.398zm0 0M20 7.602a.4.4 0 0 0-.398.398c0 .238.16.398.398.398.238 0 .398-.16.398-.398 0-.238-.16-.398-.398-.398zm0 0M17.2 10.8c.241 0 .402-.16.402-.402 0-.238-.16-.398-.403-.398-.199 0-.398.2-.398.398 0 .243.16.403.398.403zm0 0M16.398 12c.243 0 .403-.16.403-.398 0-.243-.16-.403-.403-.403-.199 0-.398.2-.398.403 0 .238.16.398.398.398zm0 0M18 12c.238 0 .398-.16.398-.398 0-.243-.16-.403-.398-.403-.2 0-.398.2-.398.403 0 .238.16.398.398.398zm0 0M17.2 8.398c.241 0 .402-.16.402-.398 0-.238-.16-.398-.403-.398-.199 0-.398.199-.398.398 0 .238.16.398.398.398zm0 0M16.398 8.8C16.2 8.8 16 9 16 9.2c0 .241.16.402.398.402.243 0 .403-.16.403-.403 0-.238-.16-.398-.403-.398zm0 0M14.8 8.8c-.198 0-.402.2-.402.4 0 .241.16.402.403.402.238 0 .398-.16.398-.403 0-.238-.16-.398-.398-.398zm0 0M18 8.8c-.2 0-.398.2-.398.4 0 .241.16.402.398.402.238 0 .398-.16.398-.403 0-.238-.16-.398-.398-.398zm0 0M16.398 7.238c.243 0 .403-.16.403-.398 0-.238-.16-.399-.403-.399A.4.4 0 0 0 16 6.84c0 .238.16.398.398.398zm0 0M18 7.238c.238 0 .398-.16.398-.398 0-.238-.16-.399-.398-.399a.4.4 0 0 0-.398.399c0 .238.16.398.398.398zm0 0M19.2 9.2c0 .241.16.402.402.402.238 0 .398-.16.398-.403 0-.238-.16-.398-.398-.398-.204 0-.403.199-.403.398zm0 0M19.602 14.398c-.93 0-1.747.313-2.254.801H6.652c-.507-.488-1.324-.8-2.254-.8-1.558 0-2.796.882-2.796 2 0 1.12 1.238 2 2.796 2 .93 0 1.747-.31 2.254-.797h10.696c.507.488 1.324.796 2.254.796 1.558 0 2.796-.878 2.796-2 0-1.117-1.238-2-2.796-2zm-17.204 2c0-.636.922-1.199 2-1.199.66 0 1.262.211 1.63.52l.132.16c.16.16.238.36.238.52 0 .16-.078.363-.238.523l-.133.16c-.367.309-.968.52-1.629.52-1.078 0-2-.563-2-1.204zm4.762.403c.04-.121.04-.281.04-.403 0-.117 0-.277-.04-.398h9.695a1.509 1.509 0 0 0 0 .8zm12.442.8c-.66 0-1.262-.21-1.63-.519l-.132-.16a.778.778 0 0 1-.238-.524c0-.16.078-.359.238-.52l.133-.16c.367-.308.968-.519 1.629-.519 1.078 0 2 .563 2 1.2 0 .64-.922 1.203-2 1.203zm0 0"/>
</svg>
