<svg xmlns="http://www.w3.org/2000/svg" width="32" height="32" viewBox="0 0 24 24">
    <path d="M22.879 3.8H1.12C.481 3.8 0 4.32 0 4.923v14.156c0 .64.52 1.121 1.121 1.121H22.88c.64 0 1.121-.48 1.121-1.12V4.921c0-.64-.52-1.121-1.121-1.121zm.32 15.278c0 .16-.16.32-.32.32H1.12c-.16 0-.32-.16-.32-.32V4.922c0-.16.16-.32.32-.32H22.88c.16 0 .32.16.32.32zm0 0"/>
    <path d="M2.84 11.8h4.32c.48 0 .84-.359.84-.84V6.64c0-.44-.36-.84-.84-.84H2.84a.82.82 0 0 0-.84.84v4.32c0 .481.36.84.84.84zm-.035-1.148c.02.211.172.348.394.348.242 0 .403-.16.403-.398 0-.243-.16-.403-.403-.403a.398.398 0 0 0-.394.352l.02-2.203c.05.156.19.254.374.254.242 0 .403-.16.403-.403 0-.238-.16-.398-.403-.398a.39.39 0 0 0-.37.258l.01-1.457c-.038.039-.038 0 0 0h4.345A.399.399 0 0 0 6.8 7c0 .238.16.398.398.398V9a.4.4 0 0 0-.398.398c0 .243.16.403.398.403v1.16C7.2 11 7.2 11 7.16 11H2.84c-.04 0-.04 0-.04-.04zm0 0M10.04 11.8h3.92c.481 0 .84-.359.84-.84V6.64c0-.44-.359-.84-.84-.84h-3.92a.82.82 0 0 0-.84.84v4.32c0 .481.359.84.84.84zm-.036-1.148c.02.211.172.348.394.348.243 0 .403-.16.403-.398 0-.243-.16-.403-.403-.403a.398.398 0 0 0-.394.352l.02-2.203a.377.377 0 0 0 .374.254c.243 0 .403-.16.403-.403 0-.238-.16-.398-.403-.398a.393.393 0 0 0-.37.258l.011-1.457c-.039.039-.039 0 0 0h3.922c.039 0 .039 0 .039.039v4.32C14 11 14 11 13.96 11h-3.92c-.04 0-.04 0-.04-.04zm0 0M16.84 11.8h4.32c.48 0 .84-.359.84-.84V6.64c0-.44-.36-.84-.84-.84h-4.32a.82.82 0 0 0-.84.84v4.32c0 .481.36.84.84.84zm-.035-1.148c.02.211.172.348.394.348.242 0 .403-.16.403-.398 0-.243-.16-.403-.403-.403a.398.398 0 0 0-.394.352l.02-2.203c.05.156.19.254.374.254.242 0 .403-.16.403-.403 0-.238-.16-.398-.403-.398a.39.39 0 0 0-.37.258l.01-1.457c-.038.039-.038 0 0 0h4.345A.399.399 0 0 0 20.8 7c0 .238.16.398.398.398V9a.4.4 0 0 0-.398.398c0 .243.16.403.398.403v1.16c0 .039 0 .039-.039.039h-4.32c-.04 0-.04 0-.04-.04zm0 0"/>
    <path d="M4 9a.4.4 0 0 0-.398.398c0 .243.16.403.398.403.238 0 .398-.16.398-.403C4.398 9.16 4.238 9 4 9zm0 0M3.602 7c0 .238.16.398.398.398.238 0 .398-.16.398-.398 0-.238-.16-.398-.398-.398A.4.4 0 0 0 3.602 7zm0 0M5.602 9.8C5.84 9.8 6 9.64 6 9.399 6 9.16 5.84 9 5.602 9a.4.4 0 0 0-.403.398c0 .243.16.403.403.403zm0 0M5.2 10.602c0-.243-.16-.403-.4-.403-.241 0-.402.2-.402.403 0 .238.16.398.403.398.238 0 .398-.16.398-.398zm0 0M6.8 10.602c0-.243-.16-.403-.402-.403a.4.4 0 0 0-.398.403c0 .238.16.398.398.398.243 0 .403-.16.403-.398zm0 0M5.2 7c0 .238.16.398.402.398C5.84 7.398 6 7.238 6 7c0-.238-.16-.398-.398-.398A.4.4 0 0 0 5.199 7zm0 0M4.8 8.602c.24 0 .4-.16.4-.403 0-.238-.16-.398-.4-.398a.4.4 0 0 0-.402.398c0 .242.16.403.403.403zm0 0M6.398 8.602c.243 0 .403-.16.403-.403 0-.238-.16-.398-.403-.398A.4.4 0 0 0 6 8.199c0 .242.16.403.398.403zm0 0M18 9a.4.4 0 0 0-.398.398c0 .243.16.403.398.403.238 0 .398-.16.398-.403 0-.238-.16-.398-.398-.398zm0 0M17.602 7c0 .238.16.398.398.398.238 0 .398-.16.398-.398 0-.238-.16-.398-.398-.398a.4.4 0 0 0-.398.398zm0 0M19.602 9.8c.238 0 .398-.16.398-.402C20 9.16 19.84 9 19.602 9a.4.4 0 0 0-.403.398c0 .243.16.403.403.403zm0 0M19.2 10.602c0-.243-.16-.403-.4-.403-.241 0-.402.2-.402.403 0 .238.16.398.403.398.238 0 .398-.16.398-.398zm0 0M20.8 10.602c0-.243-.16-.403-.402-.403a.4.4 0 0 0-.398.403c0 .238.16.398.398.398.243 0 .403-.16.403-.398zm0 0M19.2 7c0 .238.16.398.402.398.238 0 .398-.16.398-.398 0-.238-.16-.398-.398-.398a.4.4 0 0 0-.403.398zm0 0M18.8 8.602c.24 0 .4-.16.4-.403 0-.238-.16-.398-.4-.398a.4.4 0 0 0-.402.398c0 .242.16.403.403.403zm0 0M20.398 8.602c.243 0 .403-.16.403-.403 0-.238-.16-.398-.403-.398a.4.4 0 0 0-.398.398c0 .242.16.403.398.403zm0 0M11.2 9a.4.4 0 0 0-.4.398c0 .243.16.403.4.403.241 0 .402-.16.402-.403 0-.238-.16-.398-.403-.398zm0 0M10.8 7c0 .238.16.398.4.398.241 0 .402-.16.402-.398 0-.238-.16-.398-.403-.398a.4.4 0 0 0-.398.398zm0 0M12.8 9.8c.24 0 .4-.16.4-.402 0-.238-.16-.398-.4-.398a.4.4 0 0 0-.402.398c0 .243.16.403.403.403zm0 0M12.398 10.602c0-.243-.16-.403-.398-.403a.4.4 0 0 0-.398.403c0 .238.16.398.398.398.238 0 .398-.16.398-.398zm0 0M13.602 10.2c-.243 0-.403.198-.403.402 0 .238.16.398.403.398.238 0 .398-.16.398-.398 0-.243-.16-.403-.398-.403zm0 0M12.398 7c0 .238.16.398.403.398.238 0 .398-.16.398-.398 0-.238-.16-.398-.398-.398a.4.4 0 0 0-.403.398zm0 0M12 8.602c.238 0 .398-.16.398-.403 0-.238-.16-.398-.398-.398a.4.4 0 0 0-.398.398c0 .242.16.403.398.403zm0 0M13.602 7.8a.4.4 0 0 0-.403.4c0 .241.16.402.403.402.238 0 .398-.16.398-.403 0-.238-.16-.398-.398-.398zm0 0M19.602 14.2c-.93 0-1.747.312-2.254.8H6.652c-.507-.488-1.324-.8-2.254-.8-1.558 0-2.796.878-2.796 2 0 1.12 1.238 2 2.796 2 .93 0 1.747-.313 2.254-.802h10.696c.507.489 1.324.801 2.254.801 1.558 0 2.796-.879 2.796-2 0-1.12-1.238-2-2.796-2zm-17.204 2c0-.641.922-1.2 2-1.2.66 0 1.262.21 1.63.516l.132.164c.16.16.238.36.238.52a.77.77 0 0 1-.238.519l-.133.164c-.367.308-.968.515-1.629.515-1.078 0-2-.558-2-1.199zm4.762.402c.04-.122.04-.282.04-.403 0-.12 0-.277-.04-.398h9.695a1.509 1.509 0 0 0 0 .8zm12.442.796c-.66 0-1.262-.207-1.63-.515l-.132-.164a.77.77 0 0 1-.238-.52c0-.16.078-.36.238-.52l.133-.163c.367-.305.968-.516 1.629-.516 1.078 0 2 .559 2 1.2 0 .64-.922 1.198-2 1.198zm0 0"/>
</svg>
