<svg xmlns="http://www.w3.org/2000/svg" width="32" height="32" viewBox="0 0 24 24">
    <path d="M 22.878906 4 L 1.121094 4 C 0.480469 4 0 4.519531 0 5.121094 L 0 18.878906 C 0 19.519531 0.519531 20 1.121094 20 L 22.878906 20 C 23.519531 20 24 19.519531 24 18.878906 L 24 5.121094 C 24 4.480469 23.480469 4 22.878906 4 Z M 23.199219 18.878906 C 23.199219 19.039062 23.039062 19.199219 22.878906 19.199219 L 1.121094 19.199219 C 0.960938 19.199219 0.800781 19.039062 0.800781 18.878906 L 0.800781 5.121094 C 0.800781 4.960938 0.960938 4.800781 1.121094 4.800781 L 22.878906 4.800781 C 23.039062 4.800781 23.199219 4.960938 23.199219 5.121094 Z M 23.199219 18.878906"/>
    <path d="M 6.601562 13.199219 C 8.921875 13.199219 10.800781 11.320312 10.800781 8.960938 C 10.800781 7.679688 10.199219 6.480469 9.199219 5.679688 C 9.039062 5.558594 8.761719 5.601562 8.640625 5.761719 C 8.519531 5.921875 8.558594 6.199219 8.71875 6.320312 C 8.796875 6.386719 8.871094 6.453125 8.941406 6.523438 C 8.851562 6.59375 8.800781 6.703125 8.800781 6.839844 C 8.800781 7.078125 8.960938 7.238281 9.199219 7.238281 C 9.300781 7.238281 9.386719 7.210938 9.457031 7.160156 C 9.566406 7.332031 9.660156 7.511719 9.738281 7.699219 C 9.652344 7.773438 9.601562 7.886719 9.601562 8 C 9.601562 8.222656 9.734375 8.375 9.945312 8.398438 C 9.980469 8.59375 10 8.796875 10 9 C 10 9.359375 9.945312 9.707031 9.839844 10.03125 C 9.691406 10.097656 9.601562 10.25 9.601562 10.398438 C 9.601562 10.457031 9.609375 10.507812 9.625 10.554688 C 9.503906 10.785156 9.359375 11.003906 9.191406 11.199219 C 8.960938 11.203125 8.804688 11.398438 8.800781 11.59375 C 8.207031 12.097656 7.441406 12.398438 6.601562 12.398438 C 5.910156 12.398438 5.265625 12.195312 4.730469 11.839844 C 4.773438 11.777344 4.800781 11.695312 4.800781 11.601562 C 4.800781 11.359375 4.640625 11.199219 4.398438 11.199219 C 4.28125 11.199219 4.183594 11.25 4.113281 11.320312 C 3.960938 11.15625 3.824219 10.980469 3.707031 10.789062 C 3.886719 10.746094 4 10.601562 4 10.398438 C 4 10.160156 3.839844 10 3.601562 10 C 3.511719 10 3.433594 10.027344 3.371094 10.070312 C 3.261719 9.734375 3.199219 9.375 3.199219 9 C 3.199219 8.746094 3.230469 8.5 3.28125 8.257812 C 3.351562 8.347656 3.464844 8.398438 3.601562 8.398438 C 3.839844 8.398438 4 8.238281 4 8 C 4 7.761719 3.839844 7.601562 3.601562 7.601562 C 3.566406 7.601562 3.53125 7.605469 3.5 7.613281 C 3.628906 7.328125 3.796875 7.066406 4 6.824219 C 4 6.832031 4 6.835938 4 6.839844 C 4 7.082031 4.160156 7.238281 4.398438 7.238281 C 4.640625 7.238281 4.800781 7.082031 4.800781 6.839844 C 4.800781 6.601562 4.640625 6.441406 4.398438 6.441406 C 4.394531 6.441406 4.390625 6.441406 4.382812 6.441406 C 4.414062 6.414062 4.445312 6.386719 4.480469 6.359375 C 4.679688 6.238281 4.679688 5.960938 4.558594 5.800781 C 4.441406 5.601562 4.160156 5.601562 4 5.71875 C 2.960938 6.519531 2.398438 7.71875 2.398438 9 C 2.398438 11.320312 4.28125 13.199219 6.601562 13.199219 Z M 6.601562 13.199219"/>
    <path d="M5.199219 10.800781C5.441406 10.800781 5.601562 10.640625 5.601562 10.398438 5.601562 10.160156 5.441406 10 5.199219 10 4.960938 10 4.800781 10.199219 4.800781 10.398438 4.800781 10.640625 4.960938 10.800781 5.199219 10.800781zM8.398438 10.800781C8.640625 10.800781 8.800781 10.640625 8.800781 10.398438 8.800781 10.160156 8.640625 10 8.398438 10 8.160156 10 8 10.199219 8 10.398438 8 10.640625 8.160156 10.800781 8.398438 10.800781zM5.199219 8.398438C5.441406 8.398438 5.601562 8.238281 5.601562 8 5.601562 7.761719 5.441406 7.601562 5.199219 7.601562 4.960938 7.601562 4.800781 7.800781 4.800781 8 4.800781 8.238281 4.960938 8.398438 5.199219 8.398438zM8.398438 8.398438C8.640625 8.398438 8.800781 8.238281 8.800781 8 8.800781 7.761719 8.640625 7.601562 8.398438 7.601562 8.160156 7.601562 8 7.800781 8 8 8 8.238281 8.160156 8.398438 8.398438 8.398438zM6.800781 10.800781C7.039062 10.800781 7.199219 10.640625 7.199219 10.398438 7.199219 10.160156 7.039062 10 6.800781 10 6.558594 10 6.398438 10.199219 6.398438 10.398438 6.398438 10.640625 6.558594 10.800781 6.800781 10.800781zM6 12C6.238281 12 6.398438 11.839844 6.398438 11.601562 6.398438 11.359375 6.238281 11.199219 6 11.199219 5.761719 11.199219 5.601562 11.398438 5.601562 11.601562 5.601562 11.839844 5.761719 12 6 12zM7.601562 12C7.839844 12 8 11.839844 8 11.601562 8 11.359375 7.839844 11.199219 7.601562 11.199219 7.359375 11.199219 7.199219 11.398438 7.199219 11.601562 7.199219 11.839844 7.359375 12 7.601562 12zM6.800781 8.398438C7.039062 8.398438 7.199219 8.238281 7.199219 8 7.199219 7.761719 7.039062 7.601562 6.800781 7.601562 6.558594 7.601562 6.398438 7.800781 6.398438 8 6.398438 8.238281 6.558594 8.398438 6.800781 8.398438zM6 8.800781C5.761719 8.800781 5.601562 9 5.601562 9.199219 5.601562 9.441406 5.761719 9.601562 6 9.601562 6.238281 9.601562 6.398438 9.441406 6.398438 9.199219 6.398438 8.960938 6.238281 8.800781 6 8.800781zM4.398438 8.800781C4.160156 8.800781 4 9 4 9.199219 4 9.441406 4.160156 9.601562 4.398438 9.601562 4.640625 9.601562 4.800781 9.441406 4.800781 9.199219 4.800781 8.960938 4.640625 8.800781 4.398438 8.800781zM7.601562 8.800781C7.359375 8.800781 7.199219 9 7.199219 9.199219 7.199219 9.441406 7.359375 9.601562 7.601562 9.601562 7.839844 9.601562 8 9.441406 8 9.199219 8 8.960938 7.839844 8.800781 7.601562 8.800781zM6 7.238281C6.238281 7.238281 6.398438 7.078125 6.398438 6.839844 6.398438 6.601562 6.238281 6.441406 6 6.441406 5.761719 6.441406 5.601562 6.601562 5.601562 6.839844 5.601562 7.078125 5.761719 7.238281 6 7.238281zM7.601562 7.238281C7.839844 7.238281 8 7.078125 8 6.839844 8 6.601562 7.839844 6.441406 7.601562 6.441406 7.359375 6.441406 7.199219 6.601562 7.199219 6.839844 7.199219 7.078125 7.359375 7.238281 7.601562 7.238281zM9.199219 9.601562C9.441406 9.601562 9.601562 9.441406 9.601562 9.199219 9.601562 8.960938 9.441406 8.800781 9.199219 8.800781 8.960938 8.800781 8.800781 9 8.800781 9.199219 8.800781 9.441406 8.960938 9.601562 9.199219 9.601562zM17.398438 13.199219C19.71875 13.199219 21.601562 11.320312 21.601562 9 21.601562 7.71875 21 6.519531 20 5.71875 19.839844 5.601562 19.558594 5.640625 19.441406 5.800781 19.320312 5.960938 19.359375 6.238281 19.519531 6.359375 19.550781 6.386719 19.582031 6.414062 19.613281 6.441406 19.609375 6.441406 19.605469 6.441406 19.601562 6.441406 19.398438 6.441406 19.199219 6.601562 19.199219 6.839844 19.199219 7.078125 19.359375 7.238281 19.601562 7.238281 19.835938 7.238281 19.996094 7.082031 20 6.847656 20.507812 7.464844 20.800781 8.230469 20.800781 9.039062 20.800781 9.925781 20.464844 10.730469 19.910156 11.332031 19.839844 11.25 19.734375 11.199219 19.601562 11.199219 19.398438 11.199219 19.199219 11.398438 19.199219 11.601562 19.199219 11.707031 19.234375 11.800781 19.289062 11.867188 18.75 12.230469 18.101562 12.441406 17.398438 12.441406 16.558594 12.441406 15.792969 12.136719 15.199219 11.632812 15.199219 11.621094 15.199219 11.609375 15.199219 11.601562 15.199219 11.359375 15.039062 11.199219 14.800781 11.199219 14.792969 11.199219 14.78125 11.199219 14.773438 11.203125 14.617188 11.007812 14.480469 10.800781 14.367188 10.574219 14.386719 10.523438 14.398438 10.464844 14.398438 10.398438 14.398438 10.210938 14.300781 10.074219 14.144531 10.023438 14.050781 9.710938 14 9.382812 14 9.039062 14 8.824219 14.019531 8.605469 14.0625 8.394531 14.265625 8.371094 14.398438 8.21875 14.398438 8 14.398438 7.871094 14.355469 7.765625 14.273438 7.695312 14.351562 7.511719 14.445312 7.335938 14.554688 7.167969 14.621094 7.214844 14.703125 7.238281 14.800781 7.238281 15.039062 7.238281 15.199219 7.082031 15.199219 6.839844 15.199219 6.710938 15.15625 6.609375 15.078125 6.539062 15.140625 6.476562 15.210938 6.417969 15.28125 6.359375 15.480469 6.238281 15.480469 5.960938 15.359375 5.800781 15.238281 5.601562 14.960938 5.601562 14.800781 5.71875 13.761719 6.519531 13.199219 7.71875 13.199219 9 13.199219 11.320312 15.078125 13.199219 17.398438 13.199219zM17.398438 13.199219"/>
    <path d="M15.601562 10.800781C15.839844 10.800781 16 10.640625 16 10.398438 16 10.160156 15.839844 10 15.601562 10 15.398438 10 15.199219 10.199219 15.199219 10.398438 15.199219 10.640625 15.359375 10.800781 15.601562 10.800781zM18.800781 10.800781C19.039062 10.800781 19.199219 10.640625 19.199219 10.398438 19.199219 10.160156 19.039062 10 18.800781 10 18.601562 10 18.398438 10.199219 18.398438 10.398438 18.398438 10.640625 18.558594 10.800781 18.800781 10.800781zM20 10C19.761719 10 19.601562 10.199219 19.601562 10.398438 19.601562 10.640625 19.761719 10.800781 20 10.800781 20.238281 10.800781 20.398438 10.640625 20.398438 10.398438 20.398438 10.160156 20.238281 10 20 10zM15.199219 8C15.199219 8.238281 15.359375 8.398438 15.601562 8.398438 15.839844 8.398438 16 8.238281 16 8 16 7.761719 15.839844 7.601562 15.601562 7.601562 15.398438 7.601562 15.199219 7.800781 15.199219 8zM18.800781 8.398438C19.039062 8.398438 19.199219 8.238281 19.199219 8 19.199219 7.761719 19.039062 7.601562 18.800781 7.601562 18.601562 7.601562 18.398438 7.800781 18.398438 8 18.398438 8.238281 18.558594 8.398438 18.800781 8.398438zM20 7.601562C19.761719 7.601562 19.601562 7.800781 19.601562 8 19.601562 8.238281 19.761719 8.398438 20 8.398438 20.238281 8.398438 20.398438 8.238281 20.398438 8 20.398438 7.761719 20.238281 7.601562 20 7.601562zM17.199219 10.800781C17.441406 10.800781 17.601562 10.640625 17.601562 10.398438 17.601562 10.160156 17.441406 10 17.199219 10 17 10 16.800781 10.199219 16.800781 10.398438 16.800781 10.640625 16.960938 10.800781 17.199219 10.800781zM16.398438 12C16.640625 12 16.800781 11.839844 16.800781 11.601562 16.800781 11.359375 16.640625 11.199219 16.398438 11.199219 16.199219 11.199219 16 11.398438 16 11.601562 16 11.839844 16.160156 12 16.398438 12zM18 12C18.238281 12 18.398438 11.839844 18.398438 11.601562 18.398438 11.359375 18.238281 11.199219 18 11.199219 17.800781 11.199219 17.601562 11.398438 17.601562 11.601562 17.601562 11.839844 17.761719 12 18 12zM17.199219 8.398438C17.441406 8.398438 17.601562 8.238281 17.601562 8 17.601562 7.761719 17.441406 7.601562 17.199219 7.601562 17 7.601562 16.800781 7.800781 16.800781 8 16.800781 8.238281 16.960938 8.398438 17.199219 8.398438zM16.398438 8.800781C16.199219 8.800781 16 9 16 9.199219 16 9.441406 16.160156 9.601562 16.398438 9.601562 16.640625 9.601562 16.800781 9.441406 16.800781 9.199219 16.800781 8.960938 16.640625 8.800781 16.398438 8.800781zM14.800781 8.800781C14.601562 8.800781 14.398438 9 14.398438 9.199219 14.398438 9.441406 14.558594 9.601562 14.800781 9.601562 15.039062 9.601562 15.199219 9.441406 15.199219 9.199219 15.199219 8.960938 15.039062 8.800781 14.800781 8.800781zM18 8.800781C17.800781 8.800781 17.601562 9 17.601562 9.199219 17.601562 9.441406 17.761719 9.601562 18 9.601562 18.238281 9.601562 18.398438 9.441406 18.398438 9.199219 18.398438 8.960938 18.238281 8.800781 18 8.800781zM16.398438 7.238281C16.640625 7.238281 16.800781 7.078125 16.800781 6.839844 16.800781 6.601562 16.640625 6.441406 16.398438 6.441406 16.199219 6.441406 16 6.601562 16 6.839844 16 7.078125 16.160156 7.238281 16.398438 7.238281zM18 7.238281C18.238281 7.238281 18.398438 7.078125 18.398438 6.839844 18.398438 6.601562 18.238281 6.441406 18 6.441406 17.800781 6.441406 17.601562 6.601562 17.601562 6.839844 17.601562 7.078125 17.761719 7.238281 18 7.238281zM19.199219 9.199219C19.199219 9.441406 19.359375 9.601562 19.601562 9.601562 19.839844 9.601562 20 9.441406 20 9.199219 20 8.960938 19.839844 8.800781 19.601562 8.800781 19.398438 8.800781 19.199219 9 19.199219 9.199219zM19.601562 14.398438C18.671875 14.398438 17.855469 14.710938 17.347656 15.199219L6.652344 15.199219C6.144531 14.710938 5.328125 14.398438 4.398438 14.398438 2.839844 14.398438 1.601562 15.28125 1.601562 16.398438 1.601562 17.519531 2.839844 18.398438 4.398438 18.398438 5.328125 18.398438 6.144531 18.089844 6.652344 17.601562L17.347656 17.601562C17.855469 18.089844 18.671875 18.398438 19.601562 18.398438 21.160156 18.398438 22.398438 17.519531 22.398438 16.398438 22.398438 15.28125 21.160156 14.398438 19.601562 14.398438zM2.398438 16.398438C2.398438 15.761719 3.320312 15.199219 4.398438 15.199219 5.058594 15.199219 5.660156 15.410156 6.027344 15.71875L6.160156 15.878906C6.320312 16.039062 6.398438 16.238281 6.398438 16.398438 6.398438 16.558594 6.320312 16.761719 6.160156 16.921875L6.027344 17.082031C5.660156 17.390625 5.058594 17.601562 4.398438 17.601562 3.320312 17.601562 2.398438 17.039062 2.398438 16.398438zM7.160156 16.800781C7.199219 16.679688 7.199219 16.519531 7.199219 16.398438 7.199219 16.28125 7.199219 16.121094 7.160156 16L16.855469 16C16.820312 16.128906 16.800781 16.261719 16.800781 16.398438 16.800781 16.539062 16.820312 16.671875 16.855469 16.800781zM19.601562 17.601562C18.941406 17.601562 18.339844 17.390625 17.972656 17.082031L17.839844 16.921875C17.679688 16.761719 17.601562 16.558594 17.601562 16.398438 17.601562 16.238281 17.679688 16.039062 17.839844 15.878906L17.972656 15.71875C18.339844 15.410156 18.941406 15.199219 19.601562 15.199219 20.679688 15.199219 21.601562 15.761719 21.601562 16.398438 21.601562 17.039062 20.679688 17.601562 19.601562 17.601562zM19.601562 17.601562"/>
</svg>
