<svg xmlns="http://www.w3.org/2000/svg" width="32" height="32" viewBox="0 0 24 24">
    <path d="M 20.214844 12.820312 L 20.132812 12.78125 L 18.011719 12.78125 L 18.011719 11.179688 L 20.214844 11.179688 C 20.332031 11.097656 22.816406 9.574219 22.816406 5.609375 C 22.816406 1.644531 20.332031 0.121094 20.214844 0.0390625 L 20.132812 0 L 3.867188 0 L 3.785156 0.0390625 C 3.667969 0.0820312 1.183594 1.644531 1.183594 5.570312 C 1.183594 9.496094 3.667969 11.058594 3.785156 11.136719 L 3.867188 11.179688 L 5.988281 11.179688 L 5.988281 12.78125 L 3.867188 12.78125 L 3.785156 12.820312 C 3.667969 12.902344 1.183594 14.464844 1.183594 18.390625 C 1.183594 22.316406 3.667969 23.878906 3.785156 23.960938 L 3.867188 24 L 20.132812 24 L 20.214844 23.960938 C 20.332031 23.878906 22.816406 22.355469 22.816406 18.390625 C 22.816406 14.425781 20.332031 12.902344 20.214844 12.820312 Z M 17.207031 12.78125 L 16.40625 12.78125 L 16.40625 11.179688 L 17.207031 11.179688 Z M 15.605469 12.78125 L 8.394531 12.78125 L 8.394531 11.179688 L 15.605469 11.179688 Z M 4.105469 10.378906 C 3.707031 10.097656 1.984375 8.65625 1.984375 5.570312 C 1.984375 2.484375 3.707031 1.082031 4.105469 0.761719 L 19.894531 0.761719 C 20.292969 1.042969 22.015625 2.484375 22.015625 5.570312 C 22.015625 8.695312 20.292969 10.097656 19.894531 10.378906 Z M 6.792969 11.179688 L 7.59375 11.179688 L 7.59375 12.78125 L 6.792969 12.78125 Z M 19.894531 23.199219 L 4.105469 23.199219 C 3.707031 22.917969 1.984375 21.476562 1.984375 18.390625 C 1.984375 15.265625 3.707031 13.863281 4.105469 13.582031 L 19.894531 13.582031 C 20.292969 13.863281 22.015625 15.304688 22.015625 18.390625 C 22.015625 21.515625 20.292969 22.917969 19.894531 23.199219 Z M 19.894531 23.199219"/>
    <path d="M19.933594 8.65625C20.375 8.09375 20.855469 7.09375 20.855469 5.570312 20.855469 4.046875 20.332031 3.046875 19.933594 2.484375 19.691406 2.164062 19.332031 1.964844 18.929688 1.964844L5.109375 1.964844C4.707031 1.964844 4.347656 2.164062 4.105469 2.484375 3.667969 3.046875 3.183594 4.046875 3.183594 5.570312 3.183594 7.09375 3.707031 8.09375 4.105469 8.65625 4.347656 8.976562 4.707031 9.175781 5.109375 9.175781L18.890625 9.175781C19.292969 9.175781 19.652344 8.976562 19.933594 8.65625zM4.746094 8.214844C4.386719 7.734375 3.988281 6.890625 3.988281 5.570312 3.988281 4.289062 4.386719 3.445312 4.746094 2.925781 4.828125 2.84375 4.988281 2.765625 5.109375 2.765625L18.929688 2.765625C19.09375 2.765625 19.210938 2.804688 19.292969 2.925781 19.652344 3.40625 20.054688 4.246094 20.054688 5.570312 20.054688 6.890625 19.652344 7.734375 19.292969 8.214844 19.210938 8.292969 19.050781 8.375 18.929688 8.375L5.109375 8.375C4.949219 8.375 4.828125 8.332031 4.746094 8.214844zM7.113281 14.34375L4.90625 14.34375C4.628906 14.34375 4.386719 14.585938 4.386719 14.863281L4.386719 17.070312C4.386719 17.347656 4.628906 17.589844 4.90625 17.589844L7.070312 17.589844C7.351562 17.589844 7.59375 17.390625 7.632812 17.070312L7.632812 14.863281C7.632812 14.585938 7.390625 14.34375 7.113281 14.34375zM6.792969 16.789062L5.1875 16.789062 5.1875 15.183594 6.792969 15.183594zM11.480469 14.34375L9.277344 14.34375C8.996094 14.34375 8.753906 14.585938 8.753906 14.863281L8.753906 17.070312C8.753906 17.347656 8.996094 17.589844 9.277344 17.589844L11.480469 17.589844C11.757812 17.589844 12 17.390625 12 17.070312L12 14.863281C12 14.585938 11.757812 14.34375 11.480469 14.34375zM11.199219 16.789062L9.597656 16.789062 9.597656 15.183594 11.199219 15.183594zM7.113281 18.75L4.90625 18.75C4.628906 18.75 4.386719 18.992188 4.386719 19.273438L4.386719 21.476562C4.386719 21.757812 4.628906 21.996094 4.90625 21.996094L7.070312 21.996094C7.351562 21.996094 7.59375 21.796875 7.632812 21.476562L7.632812 19.273438C7.632812 18.992188 7.390625 18.75 7.113281 18.75zM6.792969 21.195312L5.1875 21.195312 5.1875 19.59375 6.792969 19.59375zM11.480469 18.75L9.277344 18.75C8.996094 18.75 8.753906 18.992188 8.753906 19.273438L8.753906 21.476562C8.753906 21.757812 8.996094 21.996094 9.277344 21.996094L11.480469 21.996094C11.757812 21.996094 12 21.796875 12 21.476562L12 19.273438C12 18.992188 11.757812 18.75 11.480469 18.75zM11.199219 21.195312L9.597656 21.195312 9.597656 19.59375 11.199219 19.59375zM14.804688 14.382812C13.804688 14.382812 13.203125 15.90625 13.203125 16.585938 13.203125 17.230469 13.714844 17.785156 14.40625 17.945312 14.40625 17.960938 14.402344 17.976562 14.402344 17.988281L14.402344 21.996094C14.402344 22.238281 14.5625 22.398438 14.804688 22.398438 15.046875 22.398438 15.207031 22.238281 15.207031 21.996094L15.207031 17.988281C15.207031 17.976562 15.203125 17.960938 15.203125 17.945312 15.894531 17.785156 16.40625 17.230469 16.40625 16.585938 16.40625 15.90625 15.804688 14.382812 14.804688 14.382812zM14.804688 17.1875C14.363281 17.1875 14.003906 16.910156 14.003906 16.585938 14.003906 16.105469 14.484375 15.183594 14.804688 15.183594 15.125 15.183594 15.605469 16.105469 15.605469 16.585938 15.605469 16.90625 15.246094 17.1875 14.804688 17.1875zM18.808594 18.835938C18.8125 18.820312 18.8125 18.804688 18.8125 18.792969L18.8125 14.785156C18.8125 14.542969 18.652344 14.382812 18.410156 14.382812 18.171875 14.382812 18.011719 14.542969 18.011719 14.785156L18.011719 18.792969C18.011719 18.804688 18.011719 18.820312 18.011719 18.835938 17.320312 18.996094 16.808594 19.550781 16.808594 20.195312 16.808594 20.875 17.410156 22.398438 18.410156 22.398438 19.414062 22.398438 20.011719 20.875 20.011719 20.195312 20.011719 19.550781 19.5 18.996094 18.808594 18.835938zM18.410156 21.597656C18.089844 21.597656 17.609375 20.675781 17.609375 20.195312 17.609375 19.875 17.96875 19.59375 18.410156 19.59375 18.851562 19.59375 19.210938 19.875 19.210938 20.195312 19.210938 20.675781 18.730469 21.597656 18.410156 21.597656zM18.410156 21.597656"/>
</svg>
