<svg xmlns="http://www.w3.org/2000/svg" width="32" height="32" viewBox="0 0 24 24">
    <path d="M14.848 20.746H9.152a.385.385 0 0 0-.406.406c0 .246.164.407.406.407h5.696c.242 0 .406-.16.406-.407a.385.385 0 0 0-.406-.406zm0 0M14.848 19.117H9.152c-.242 0-.406.164-.406.41 0 .243.164.407.406.407h5.696a.385.385 0 0 0 .406-.407c0-.246-.164-.41-.406-.41zm0 0"/>
    <path d="M16.516 8.258V1.586A1.59 1.59 0 0 0 14.93 0H9.113C8.22 0 7.527.73 7.527 1.586V8.23a4.782 4.782 0 0 0-2.035 3.934v6.547c0 2.93 2.36 5.289 5.29 5.289h2.437c2.93 0 5.289-2.36 5.289-5.29v-6.546c0-1.57-.719-2.996-1.992-3.906zM8.34 10.902V4.027c0-.406.324-.773.773-.773h5.735c.445 0 .773.367.773.773v7.035c0 .274-.039.536-.113.786a2.921 2.921 0 0 1-2.778 1.984h-1.46a2.918 2.918 0 0 1-2.93-2.93zM9.113.812h5.735c.449 0 .773.368.773.774v1.016a1.538 1.538 0 0 0-.691-.16H9.113c-.285 0-.547.074-.773.199V1.586c0-.406.324-.774.773-.774zm8.582 17.899a4.464 4.464 0 0 1-4.476 4.477H10.78a4.464 4.464 0 0 1-4.476-4.477v-6.547a4.01 4.01 0 0 1 1.218-2.89v1.789c0 1.996 1.63 3.582 3.622 3.582h1.75c1.953 0 3.578-1.586 3.62-3.582V9.316c.747.77 1.18 1.77 1.18 2.848zm0 0"/>
</svg>
