<svg xmlns="http://www.w3.org/2000/svg" width="32" height="32" viewBox="0 0 24 24">
    <path d="M15.168 20.379H8.832c-.273 0-.453.18-.453.453 0 .27.18.45.453.45h6.336c.273 0 .453-.18.453-.45 0-.273-.18-.453-.453-.453zm0 0M15.168 18.566H8.832c-.273 0-.453.18-.453.454 0 .27.18.453.453.453h6.336c.273 0 .453-.184.453-.453 0-.274-.18-.454-.453-.454zm0 0"/>
    <path d="M16.875 6.371c-.203-1.937-.715-3.965-1.977-6.144A.472.472 0 0 0 14.492 0H9.555c-.18 0-.317.09-.407.227-1.234 2.082-1.77 4.148-1.992 6.125a5.34 5.34 0 0 0-2.402 4.472v7.29A5.876 5.876 0 0 0 10.64 24h2.718a5.876 5.876 0 0 0 5.887-5.887v-7.289c0-1.812-.863-3.449-2.371-4.453zM9.781.906V.95h.864c.02.246.195.41.449.41.258 0 .433-.164.453-.41h.906c.02.246.195.41.453.41.254 0 .43-.164.45-.41h.816a13.63 13.63 0 0 1 1.453 3.578h-.004a.456.456 0 0 0-.453.453c0 .274.184.454.453.454.07 0 .133-.012.191-.036.13.727.2 1.438.239 2.141-.059-.18-.215-.293-.43-.293a.456.456 0 0 0-.453.453c0 .27.184.453.453.453.234 0 .399-.132.441-.343.008.105.012.21.012.316v4.012c0 .246-.027.488-.078.722a.439.439 0 0 0-.375-.18.456.456 0 0 0-.453.454c0 .27.184.453.453.453.047 0 .086-.008.125-.016-.148.309-.348.59-.582.836-.035-.226-.207-.367-.445-.367a.453.453 0 0 0-.453.453c0 .203.101.356.27.418-.5.309-1.087.485-1.72.485h-1.632a3.253 3.253 0 0 1-1.72-.485c.169-.062.27-.215.27-.418 0-.273-.18-.453-.453-.453a.448.448 0 0 0-.441.367 3.194 3.194 0 0 1-.586-.836c.039.008.078.016.125.016a.43.43 0 0 0 .453-.453c0-.274-.184-.453-.453-.453a.45.45 0 0 0-.371.191 3.23 3.23 0 0 1-.082-.734v-3.63c.004-.218.011-.433.023-.652.055.184.215.297.43.297a.43.43 0 0 0 .453-.453c0-.273-.184-.453-.453-.453a.442.442 0 0 0-.41.262c.043-.688.117-1.39.238-2.102.05.02.11.028.172.028.27 0 .453-.18.453-.454 0-.27-.18-.449-.445-.453A13.678 13.678 0 0 1 9.78.907zm8.559 17.207a4.966 4.966 0 0 1-4.98 4.98h-2.72a4.966 4.966 0 0 1-4.98-4.98v-7.289c0-1.222.5-2.402 1.36-3.215v.899c-.02.746-.012 1.472 0 2.18V12.136c0 .18.011.355.03.531.013.07.02.14.032.207a4.156 4.156 0 0 0 4.102 3.426h1.632a4.152 4.152 0 0 0 2.653-.95c.027-.019.05-.039.078-.062l.144-.133a1.63 1.63 0 0 0 .141-.144 2.7 2.7 0 0 0 .262-.301c.043-.05.082-.106.12-.16.04-.055.075-.11.114-.164l.102-.172a2.568 2.568 0 0 0 .14-.27c.266-.547.41-1.16.41-1.808V10.46c.012-.785.024-1.574 0-2.383V7.61c.86.86 1.36 1.993 1.36 3.215zm0 0"/>
    <path d="M13.813 12.68a.453.453 0 0 0-.454.453c0 .27.18.453.454.453a.43.43 0 0 0 .453-.453c0-.274-.184-.453-.454-.453zm0 0M9.281 11.32c-.27 0-.449.227-.449.453 0 .274.18.454.45.454.273 0 .452-.18.452-.454 0-.273-.18-.453-.453-.453zm0 0M8.379 10.867c.27 0 .453-.18.453-.453a.43.43 0 0 0-.453-.453.453.453 0 0 0-.453.453c0 .274.18.453.453.453zm0 0M10.188 9.96a.456.456 0 0 0-.454.454c0 .274.184.453.454.453.273 0 .453-.18.453-.453 0-.27-.18-.453-.454-.453zm0 0M12 12.68a.453.453 0 0 0-.453.453c0 .27.18.453.453.453s.453-.184.453-.453c0-.274-.18-.453-.453-.453zm0 0M13.813 10.867c.269 0 .453-.18.453-.453a.43.43 0 0 0-.454-.453.453.453 0 0 0-.453.453c0 .274.18.453.454.453zm0 0M15.621 9.96a.456.456 0 0 0-.453.454c0 .274.184.453.453.453.274 0 .453-.18.453-.453 0-.27-.18-.453-.453-.453zm0 0M12 10.867c.273 0 .453-.18.453-.453 0-.27-.18-.453-.453-.453a.453.453 0 0 0-.453.453c0 .274.18.453.453.453zm0 0M12.906 14.04a.453.453 0 0 0-.453.452c0 .27.18.453.453.453a.43.43 0 0 0 .453-.453c0-.273-.183-.453-.453-.453zm0 0M11.094 14.04a.456.456 0 0 0-.453.452c0 .27.183.453.453.453.273 0 .453-.183.453-.453 0-.273-.18-.453-.453-.453zm0 0M10.188 12.68a.456.456 0 0 0-.454.453c0 .27.184.453.454.453.273 0 .453-.184.453-.453 0-.274-.18-.453-.454-.453zm0 0M11.094 12.227c.273 0 .453-.18.453-.454 0-.273-.18-.453-.453-.453a.456.456 0 0 0-.453.453c0 .274.183.454.453.454zm0 0M12.906 12.227c.27 0 .453-.18.453-.454 0-.273-.183-.453-.453-.453a.453.453 0 0 0-.453.453c0 .274.18.454.453.454zm0 0M14.719 11.32a.453.453 0 0 0-.453.453c0 .274.18.454.453.454.27 0 .449-.18.449-.454 0-.273-.18-.453-.45-.453zm0 0M9.281 9.508c.274 0 .453-.18.453-.453 0-.27-.18-.45-.453-.45-.27 0-.449.227-.449.45 0 .273.18.453.45.453zm0 0M10.188 8.152c.273 0 .453-.183.453-.453 0-.273-.18-.453-.454-.453a.456.456 0 0 0-.453.453c0 .27.184.453.454.453zm0 0M13.813 8.152a.43.43 0 0 0 .453-.453c0-.273-.184-.453-.454-.453a.453.453 0 0 0-.453.453c0 .27.18.453.454.453zm0 0M12 8.152c.273 0 .453-.183.453-.453 0-.273-.18-.453-.453-.453a.453.453 0 0 0-.453.453c0 .27.18.453.453.453zm0 0M11.094 8.605a.455.455 0 0 0-.453.45c0 .273.183.453.453.453.273 0 .453-.18.453-.453 0-.27-.18-.45-.453-.45zm0 0M12.906 8.605a.452.452 0 0 0-.453.45c0 .273.18.453.453.453.27 0 .453-.18.453-.453 0-.27-.183-.45-.453-.45zm0 0M14.719 8.605a.452.452 0 0 0-.453.45c0 .273.18.453.453.453.27 0 .449-.18.449-.453 0-.27-.18-.45-.45-.45zm0 0M9.281 6.793c.274 0 .453-.184.453-.453 0-.274-.18-.453-.453-.453-.27 0-.449.226-.449.453 0 .273.18.453.45.453zm0 0M10.188 4.527a.456.456 0 0 0-.454.453c0 .274.184.454.454.454.273 0 .453-.18.453-.454 0-.27-.18-.453-.454-.453zm0 0M13.813 5.434c.269 0 .453-.18.453-.454a.43.43 0 0 0-.454-.453.453.453 0 0 0-.453.453c0 .274.18.454.454.454zm0 0M12 4.527a.453.453 0 0 0-.453.453c0 .274.18.454.453.454s.453-.18.453-.454c0-.27-.18-.453-.453-.453zm0 0M11.094 5.887a.456.456 0 0 0-.453.453c0 .27.183.453.453.453.273 0 .453-.184.453-.453 0-.274-.18-.453-.453-.453zm0 0M12.906 5.887a.453.453 0 0 0-.453.453c0 .27.18.453.453.453a.43.43 0 0 0 .453-.453c0-.274-.183-.453-.453-.453zm0 0M14.719 5.887a.453.453 0 0 0-.453.453c0 .27.18.453.453.453.27 0 .449-.184.449-.453 0-.274-.18-.453-.45-.453zm0 0M9.281 4.074c.274 0 .453-.18.453-.453 0-.27-.18-.453-.453-.453-.27 0-.449.227-.449.453 0 .274.18.453.45.453zm0 0M10.188 2.719c.273 0 .453-.184.453-.453 0-.274-.18-.454-.454-.454a.456.456 0 0 0-.453.454c0 .27.184.453.454.453zm0 0M13.813 2.719a.43.43 0 0 0 .453-.453c0-.274-.184-.454-.454-.454a.453.453 0 0 0-.453.454c0 .27.18.453.454.453zm0 0M12 2.719c.273 0 .453-.184.453-.453 0-.274-.18-.454-.453-.454a.453.453 0 0 0-.453.454c0 .27.18.453.453.453zm0 0M11.094 4.074c.273 0 .453-.18.453-.453 0-.27-.18-.453-.453-.453a.456.456 0 0 0-.453.453c0 .274.183.453.453.453zm0 0M12.906 4.074c.27 0 .453-.18.453-.453a.43.43 0 0 0-.453-.453.453.453 0 0 0-.453.453c0 .274.18.453.453.453zm0 0M14.719 4.074c.27 0 .449-.18.449-.453 0-.27-.18-.453-.45-.453a.453.453 0 0 0-.452.453c0 .274.18.453.453.453zm0 0"/>
</svg>
