<svg xmlns="http://www.w3.org/2000/svg" width="32" height="32" viewBox="0 0 24 24">
    <path d="M9.762 14.645H8.137V8.184l.992-.496.023-.012a.409.409 0 0 0 .164-.551.409.409 0 0 0-.55-.164l-.63.312V6.56l.993-.497.023-.011a.41.41 0 0 0 .164-.551.406.406 0 0 0-.55-.168l-.63.316V4.93l.993-.496.023-.012a.409.409 0 0 0 .164-.55.405.405 0 0 0-.55-.165l-.63.313v-.715l.993-.496.023-.012a.41.41 0 0 0 .164-.55.406.406 0 0 0-.55-.169l-.63.317v-.72l.993-.495.023-.012a.409.409 0 0 0 .164-.55.402.402 0 0 0-.55-.165l-.63.313v-.36a.408.408 0 0 0-.816 0v.766l-.996.5a.407.407 0 0 0 .364.726l.632-.316v.719l-.996.5a.403.403 0 0 0-.219.36.403.403 0 0 0 .403.405.402.402 0 0 0 .18-.039l.632-.316v.719l-.996.496a.407.407 0 0 0-.219.36.404.404 0 0 0 .582.366l.633-.316v.719l-.996.5a.403.403 0 0 0-.219.36.403.403 0 0 0 .403.405.402.402 0 0 0 .18-.039l.632-.316v.719l-.996.496a.407.407 0 0 0-.219.36c-.003.226.18.41.403.41a.463.463 0 0 0 .18-.04l.632-.32v6.055H5.695v2.035h-.812V24h5.695v-7.32h-.816zm-3.254.812h2.441v1.223H6.508zm3.254 7.73H5.695v-5.695h4.067zm0 0M18.305 9.762V7.73h-4.067v2.032h-.816V24h5.695V9.762zM15.05 8.543h2.441v1.219h-2.441zm3.254 9.762H16.68v-5.696h1.625zm-2.442-6.508v7.32h2.442v4.07h-4.067V10.579h4.067v1.219zm0 0"/>
</svg>
