<svg xmlns="http://www.w3.org/2000/svg" width="32" height="32" viewBox="0 0 24 24">
    <path d="M20.137 8.137V7.73H18.5c-.094-2.39-1.027-4.52-2.434-5.933v-.008l-.027-.02A6.475 6.475 0 0 0 14.684.728 5.536 5.536 0 0 0 13.3.164L12.812.04v.024A5.562 5.562 0 0 0 12 0C8.531 0 5.672 3.441 5.5 7.73H3.863v.407c0 5.203 3.442 9.492 7.73 9.75v3.27c-1.863.023-6.1.218-6.1 1.421 0 1.3 4.96 1.422 6.507 1.422 1.547 0 6.508-.121 6.508-1.422 0-1.203-4.238-1.398-6.102-1.422v-3.27c4.29-.253 7.73-4.503 7.73-9.75zm-2.442 0c0 1.98-.62 3.789-1.629 5.11V3.022c1.008 1.325 1.63 3.13 1.63 5.114zm-2.441-5.98v11.98c-.492.441-1.04.789-1.625 1.015V1.141c.566.203 1.137.566 1.625 1.015zM12 .811c.277 0 .547.028.813.079v14.492a4.656 4.656 0 0 1-.813.074c-3.133 0-5.695-3.293-5.695-7.32C6.305 4.109 8.867.812 12 .812zM4.68 8.543h.82c.172 4.285 3.031 7.727 6.5 7.727.273 0 .547-.02.813-.063v.023l.53-.12c.934-.247 1.829-.774 2.602-1.508l.121-.122v-.007c1.407-1.414 2.34-3.54 2.434-5.93h.82c-.16 4.758-3.375 8.543-7.32 8.543-3.945 0-7.16-3.785-7.32-8.543zM17.53 22.578c-.648.242-2.48.61-5.531.61-3.05 0-4.922-.368-5.531-.61.62-.234 2.351-.578 5.125-.61v.403c0 .246.164.41.406.41.242 0 .406-.164.406-.41v-.402c2.778.031 4.543.375 5.125.61zm0 0"/>
</svg>
