<svg xmlns="http://www.w3.org/2000/svg" width="32" height="32" viewBox="0 0 24 24">
    <path d="M20.07 8.18V6.207c0-.25-.168-.414-.414-.414h-4.965c-.25 0-.414.164-.414.414V8.18c-1.648.386-2.898 1.12-2.898 2.164v11.172c0 1.617 2.98 2.484 5.793 2.484 2.812 0 5.793-.867 5.793-2.484V10.344c0-1.043-1.25-1.778-2.895-2.164zM15.102 6.62h4.14V8.02c-.133-.02-.27-.04-.406-.055-.48-.067-.977-.098-1.477-.102h-.375c-.5.004-.996.035-1.476.102-.137.015-.27.035-.406.055zm-2.895 12h4.137c.25 0 .414-.164.414-.414 0-.25-.164-.414-.414-.414h-4.137v-1.242h3.309c.25 0 .414-.164.414-.414 0-.246-.164-.414-.414-.414h-3.309v-1.239h2.07a.394.394 0 0 0 .414-.414c0-.25-.168-.414-.414-.414h-2.07V12h6.54c.038 0 .081.043.081.082v8.11c0 .042-.043.085-.082.085h-6.539zm9.93 2.895c0 .703-1.903 1.656-4.965 1.656-3.063 0-4.965-.953-4.965-1.656v-.414h6.54c.495 0 .91-.41.91-.91v-8.11a.919.919 0 0 0-.91-.91h-6.54v-.828c0-.477.875-1.067 2.395-1.399a.324.324 0 0 0 .171-.008c1.489-.289 3.309-.289 4.801 0h.082c.012 0 .024 0 .04-.003 1.546.332 2.44.93 2.44 1.41zm0 0M7.2 14.484h-.786v-1.656c0-.25-.164-.414-.414-.414H4.758V3.31h.207c.332 0 .578-.207.664-.536L5.957.785A.815.815 0 0 0 5.793.25.585.585 0 0 0 5.297 0H3.395a.632.632 0 0 0-.497.25.818.818 0 0 0-.168.535l.333 1.988c.039.29.332.536.66.536h.207v9.105H2.69c-.25 0-.414.164-.414.414v1.656h-.87c-.083 0-.247.04-.29.121a.77.77 0 0 0-.082.332l.95 7.782C2.108 23.46 2.69 24 3.433 24H5.34c.742 0 1.363-.54 1.363-1.281l.871-7.782a.324.324 0 0 0-.086-.332c-.039-.082-.164-.12-.289-.12zM3.601.828H5.09L4.8 2.484h-.952zm-.5 12.414h2.484v1.242H3.102zm2.855 9.39a.622.622 0 0 1-.617.54H3.434a.626.626 0 0 1-.622-.54l-.91-7.323h4.883zm0 0"/>
</svg>
