<svg xmlns="http://www.w3.org/2000/svg" width="32" height="32" viewBox="0 0 24 24">
    <path d="M9.508 14.582c0-.543-.453-.996-.996-.996h-.813V3.62h.227c.36 0 .633-.226.722-.586L9.012.86a.916.916 0 0 0-.18-.586A.648.648 0 0 0 8.285 0H6.203c-.18 0-.406.09-.543.273-.137.18-.18.36-.18.586l.36 2.176c.047.317.363.586.726.586h.227v9.965h-.816c-.543 0-.997.453-.997.996v1.266h-.906V24h6.34v-8.152h-.906zM6.43.906h1.629L7.742 2.72H6.703zm-.543 13.676c0-.047.047-.09.09-.09h2.535c.047 0 .093.043.093.09v1.266H5.887zm3.62 8.512H4.98v-6.34h4.528zm0 0M18.973 8.152V7.02c0-.633-.496-1.133-1.133-1.133H15.62c-.633 0-1.129.5-1.129 1.133v1.132h-.906V24h6.34V8.152zM15.44 7.02c0-.137.09-.227.227-.227h2.219c.136 0 .226.09.226.227v1.132h-2.672zm3.579 12h-1.813v-6.34h1.813zm-2.72-7.247v8.153h2.72v3.168h-4.528V9.054h4.528v2.72zm0 0"/>
</svg>
