<svg xmlns="http://www.w3.org/2000/svg" width="32" height="32" viewBox="0 0 24 24">
    <path d="M18.269531 8.53125L15.257812 8.53125 15.257812 6.496094C15.257812 6.253906 15.09375 6.089844 14.847656 6.089844L13.222656 6.089844 13.222656 4.871094 14.035156 4.871094C14.28125 4.871094 14.441406 4.707031 14.441406 4.460938L14.441406 2.019531C14.441406 1.777344 14.28125 1.613281 14.035156 1.613281L11.59375 1.613281C11.347656 1.613281 11.1875 1.777344 11.1875 2.019531L11.1875 4.460938C11.1875 4.707031 11.347656 4.871094 11.59375 4.871094L12.40625 4.871094 12.40625 6.089844 10.777344 6.089844C10.535156 6.089844 10.371094 6.253906 10.371094 6.496094L10.371094 8.53125 7.359375 8.53125C5.648438 8.53125 4.265625 9.917969 4.265625 11.625L4.265625 20.90625C4.265625 22.617188 5.648438 24 7.359375 24L18.269531 24C19.976562 24 21.363281 22.617188 21.363281 20.90625L21.363281 11.625C21.363281 9.917969 19.976562 8.53125 18.269531 8.53125zM12 3.648438L12.40625 3.648438C12.652344 3.648438 12.8125 3.484375 12.8125 3.242188 12.8125 2.996094 12.652344 2.835938 12.40625 2.835938L12 2.835938 12 2.425781 13.628906 2.425781 13.628906 4.054688 12 4.054688zM20.546875 13.824219L16.476562 13.824219C16.234375 13.824219 16.070312 13.988281 16.070312 14.230469 16.070312 14.476562 16.234375 14.636719 16.476562 14.636719L20.546875 14.636719 20.546875 15.859375 17.292969 15.859375C17.046875 15.859375 16.882812 16.023438 16.882812 16.265625 16.882812 16.511719 17.046875 16.671875 17.292969 16.671875L20.546875 16.671875 20.546875 17.894531 18.511719 17.894531C18.269531 17.894531 18.105469 18.058594 18.105469 18.300781 18.105469 18.546875 18.269531 18.707031 18.511719 18.707031L20.546875 18.707031 20.546875 19.929688 14.035156 19.929688 14.035156 12.601562 20.546875 12.601562zM11.1875 6.90625L14.441406 6.90625 14.441406 8.53125 11.1875 8.53125zM5.082031 12.601562L7.929688 12.601562 7.929688 19.929688 5.082031 19.929688zM18.269531 23.1875L7.359375 23.1875C6.097656 23.1875 5.082031 22.167969 5.082031 20.90625L5.082031 20.742188 8.335938 20.742188C8.582031 20.742188 8.742188 20.582031 8.742188 20.335938L8.742188 12.195312C8.742188 11.953125 8.582031 11.789062 8.335938 11.789062L5.082031 11.789062 5.082031 11.625C5.082031 10.363281 6.097656 9.347656 7.359375 9.347656L18.269531 9.347656C19.53125 9.347656 20.546875 10.363281 20.546875 11.625L20.546875 11.789062 13.628906 11.789062C13.382812 11.789062 13.222656 11.953125 13.222656 12.195312L13.222656 20.335938C13.222656 20.582031 13.382812 20.742188 13.628906 20.742188L20.546875 20.742188 20.546875 20.90625C20.546875 22.167969 19.53125 23.1875 18.269531 23.1875zM7.929688 3.648438L8.335938 3.648438C8.582031 3.648438 8.742188 3.484375 8.742188 3.242188 8.742188 2.996094 8.582031 2.835938 8.335938 2.835938L7.929688 2.835938C7.683594 2.835938 7.523438 2.996094 7.523438 3.242188 7.523438 3.484375 7.683594 3.648438 7.929688 3.648438zM6.300781 3.648438L6.707031 3.648438C6.953125 3.648438 7.117188 3.484375 7.117188 3.242188 7.117188 2.996094 6.953125 2.835938 6.707031 2.835938L6.300781 2.835938C6.058594 2.835938 5.894531 2.996094 5.894531 3.242188 5.894531 3.484375 6.058594 3.648438 6.300781 3.648438zM4.671875 3.648438L5.082031 3.648438C5.324219 3.648438 5.488281 3.484375 5.488281 3.242188 5.488281 2.996094 5.324219 2.835938 5.082031 2.835938L4.671875 2.835938C4.429688 2.835938 4.265625 2.996094 4.265625 3.242188 4.265625 3.484375 4.429688 3.648438 4.671875 3.648438zM3.453125 2.835938L3.046875 2.835938C2.800781 2.835938 2.636719 2.996094 2.636719 3.242188 2.636719 3.484375 2.800781 3.648438 3.046875 3.648438L3.453125 3.648438C3.695312 3.648438 3.859375 3.484375 3.859375 3.242188 3.859375 2.996094 3.695312 2.835938 3.453125 2.835938zM3.453125 2.835938"/>
    <path d="M9.558594 3.648438L9.964844 3.648438C10.210938 3.648438 10.371094 3.484375 10.371094 3.242188 10.371094 2.996094 10.210938 2.835938 9.964844 2.835938L9.558594 2.835938C9.3125 2.835938 9.152344 2.996094 9.152344 3.242188 9.152344 3.484375 9.3125 3.648438 9.558594 3.648438zM7.929688 1.777344L8.296875 1.898438C8.335938 1.9375 8.378906 1.9375 8.417969 1.9375 8.582031 1.9375 8.742188 1.816406 8.824219 1.652344 8.867188 1.410156 8.742188 1.207031 8.582031 1.125L8.214844 1.003906C7.96875.921875 7.765625 1.042969 7.683594 1.246094 7.605469 1.492188 7.726562 1.695312 7.929688 1.777344zM6.34375 1.246094L6.75 1.367188C6.789062 1.410156 6.832031 1.410156 6.871094 1.410156 7.035156 1.410156 7.195312 1.289062 7.238281 1.164062 7.320312.921875 7.195312.71875 6.992188.636719L6.628906.515625C6.382812.433594 6.179688.554688 6.097656.757812 6.015625.960938 6.136719 1.164062 6.34375 1.246094zM4.957031.800781L5.203125.839844C5.242188.878906 5.285156.878906 5.324219.878906 5.488281.878906 5.648438.796875 5.691406.636719 5.773438.390625 5.648438.1875 5.445312.105469L5.203125.0273438C5-.0546875 4.796875.0664062 4.714844.269531 4.632812.472656 4.753906.71875 4.957031.800781zM9.476562 2.265625L9.84375 2.386719C9.882812 2.425781 9.925781 2.425781 9.964844 2.425781 10.128906 2.425781 10.289062 2.34375 10.332031 2.183594 10.414062 1.9375 10.289062 1.734375 10.085938 1.652344L9.761719 1.492188C9.515625 1.410156 9.3125 1.53125 9.230469 1.734375 9.152344 1.980469 9.273438 2.183594 9.476562 2.265625zM9.84375 4.054688L9.476562 4.175781C9.273438 4.257812 9.152344 4.503906 9.230469 4.707031 9.273438 4.871094 9.4375 4.992188 9.597656 4.992188 9.640625 4.992188 9.679688 4.992188 9.761719 4.949219L10.128906 4.828125C10.332031 4.746094 10.453125 4.503906 10.371094 4.300781 10.289062 4.097656 10.046875 3.972656 9.84375 4.054688zM8.296875 4.585938L7.929688 4.707031C7.726562 4.789062 7.605469 5.03125 7.683594 5.234375 7.726562 5.398438 7.890625 5.519531 8.050781 5.519531 8.09375 5.519531 8.132812 5.519531 8.214844 5.480469L8.582031 5.359375C8.785156 5.277344 8.90625 5.03125 8.824219 4.828125 8.742188 4.625 8.5 4.503906 8.296875 4.585938zM5.203125 5.601562L4.957031 5.683594C4.753906 5.765625 4.632812 6.007812 4.714844 6.210938 4.753906 6.375 4.917969 6.496094 5.082031 6.496094 5.121094 6.496094 5.160156 6.496094 5.242188 6.457031L5.488281 6.375C5.691406 6.292969 5.8125 6.050781 5.730469 5.847656 5.648438 5.644531 5.40625 5.519531 5.203125 5.601562zM6.75 5.113281L6.382812 5.234375C6.179688 5.316406 6.058594 5.5625 6.136719 5.765625 6.179688 5.925781 6.34375 6.050781 6.503906 6.050781 6.546875 6.050781 6.585938 6.007812 6.667969 6.007812L7.035156 5.886719C7.238281 5.804688 7.359375 5.5625 7.277344 5.359375 7.195312 5.152344 6.953125 5.03125 6.75 5.113281zM6.75 5.113281"/>
</svg>
