<svg xmlns="http://www.w3.org/2000/svg" width="32" height="32" viewBox="0 0 24 24">
    <path d="M 22.921875 6.570312 C 22.363281 5.929688 21.601562 5.570312 20.757812 5.570312 L 19.277344 5.570312 L 19.277344 4.488281 C 19.277344 3.792969 18.71875 3.210938 18.035156 3.167969 L 18.035156 2.402344 L 20.039062 2.402344 C 20.71875 2.402344 21.238281 1.882812 21.238281 1.203125 C 21.238281 0.519531 20.71875 0 20.039062 0 L 14.46875 0 C 13.816406 0 13.273438 0.515625 13.230469 1.160156 L 7.21875 1.160156 C 4.574219 1.160156 2.410156 3.324219 2.410156 5.96875 L 2.410156 8.433594 C 1.25 8.777344 0.40625 10.601562 0.40625 12.980469 C 0.40625 15.625 1.445312 17.589844 2.808594 17.589844 C 4.171875 17.589844 5.214844 15.625 5.214844 12.980469 C 5.214844 10.601562 4.371094 8.777344 3.210938 8.433594 L 3.210938 5.96875 C 3.210938 3.765625 5.011719 1.964844 7.21875 1.964844 L 13.226562 1.964844 L 13.226562 3.171875 C 12.558594 3.234375 12.023438 3.808594 12.023438 4.488281 L 12.023438 5.570312 L 10.460938 5.570312 C 9.621094 5.570312 8.820312 5.929688 8.296875 6.570312 C 7.777344 7.210938 7.539062 8.011719 7.65625 8.855469 L 9.78125 22.238281 C 9.941406 23.277344 10.78125 24 11.824219 24 L 19.398438 24 C 20.398438 24 21.28125 23.277344 21.441406 22.238281 L 23.5625 8.855469 C 23.683594 8.054688 23.445312 7.210938 22.921875 6.570312 Z M 4.414062 12.980469 C 4.414062 15.226562 3.570312 16.789062 2.808594 16.789062 C 2.046875 16.789062 1.207031 15.226562 1.207031 12.980469 C 1.207031 10.738281 2.046875 9.175781 2.808594 9.175781 C 3.570312 9.175781 4.414062 10.738281 4.414062 12.980469 Z M 14.027344 1.203125 C 14.027344 0.960938 14.230469 0.761719 14.46875 0.761719 L 20.039062 0.761719 C 20.277344 0.761719 20.4375 0.921875 20.4375 1.160156 C 20.4375 1.402344 20.277344 1.5625 20.039062 1.5625 L 17.234375 1.5625 L 17.234375 3.164062 L 14.027344 3.164062 Z M 12.785156 4.488281 C 12.785156 4.207031 13.027344 3.964844 13.308594 3.964844 L 17.914062 3.964844 C 18.195312 3.964844 18.433594 4.207031 18.433594 4.488281 L 18.433594 5.570312 L 12.785156 5.570312 Z M 9.804688 17.1875 L 14.027344 17.1875 C 14.230469 17.1875 14.429688 17.027344 14.429688 16.789062 C 14.429688 16.546875 14.269531 16.386719 14.027344 16.386719 L 9.675781 16.386719 L 9.484375 15.183594 L 14.027344 15.183594 C 14.230469 15.183594 14.429688 15.023438 14.429688 14.785156 C 14.429688 14.542969 14.269531 14.382812 14.027344 14.382812 L 9.355469 14.382812 L 9.164062 13.183594 L 12.023438 13.183594 C 12.226562 13.183594 12.425781 13.023438 12.425781 12.78125 C 12.425781 12.542969 12.265625 12.378906 12.023438 12.378906 L 9.035156 12.378906 L 8.78125 10.777344 L 17.234375 10.777344 L 17.234375 18.792969 L 10.0625 18.792969 Z M 22.761719 8.734375 L 20.640625 22.117188 C 20.519531 22.757812 20 23.199219 19.355469 23.199219 L 11.824219 23.199219 C 11.183594 23.199219 10.621094 22.757812 10.542969 22.117188 L 10.140625 19.59375 L 18.035156 19.59375 L 18.035156 9.976562 L 8.617188 9.976562 L 8.417969 8.734375 C 8.339844 8.132812 8.5 7.53125 8.898438 7.09375 C 9.300781 6.652344 9.859375 6.371094 10.460938 6.371094 C 10.460938 6.371094 11.621094 6.371094 12.023438 6.371094 C 13.886719 6.371094 17.453125 6.371094 19.238281 6.371094 C 19.246094 6.371094 19.265625 6.371094 19.277344 6.371094 C 19.625 6.371094 20.71875 6.371094 20.71875 6.371094 C 21.320312 6.371094 21.882812 6.652344 22.28125 7.09375 C 22.683594 7.53125 22.84375 8.132812 22.761719 8.734375 Z M 22.761719 8.734375"/>
</svg>
