<svg xmlns="http://www.w3.org/2000/svg" width="32" height="32" viewBox="0 0 24 24">
    <path d="M18.27 8.531h-3.012V6.496c0-.242-.164-.406-.41-.406h-1.625V4.87h.812c.246 0 .406-.164.406-.41V2.02c0-.243-.16-.407-.406-.407h-2.441c-.246 0-.406.164-.406.407v2.44c0 .247.16.411.406.411h.812V6.09h-1.629a.385.385 0 0 0-.406.406v2.035H7.36a3.093 3.093 0 0 0-3.093 3.094v9.281A3.09 3.09 0 0 0 7.359 24h10.91a3.093 3.093 0 0 0 3.094-3.094v-9.281a3.096 3.096 0 0 0-3.093-3.094zM12 3.648h.406c.246 0 .406-.164.406-.406 0-.246-.16-.406-.406-.406H12v-.41h1.629v1.629H12zm8.547 10.176h-4.07a.385.385 0 0 0-.407.406c0 .247.164.407.407.407h4.07v1.222h-3.254c-.246 0-.41.164-.41.407 0 .246.164.406.41.406h3.254v1.223h-2.035a.385.385 0 0 0-.407.406c0 .246.165.406.407.406h2.035v1.223h-6.512v-7.328h6.512zm-9.36-6.918h3.254v1.625h-3.254zm-6.105 5.696H7.93v7.328H5.082zM18.27 23.187H7.36a2.276 2.276 0 0 1-2.278-2.28v-.165h3.254c.246 0 .406-.16.406-.406v-8.14c0-.243-.16-.407-.406-.407H5.082v-.164a2.272 2.272 0 0 1 2.277-2.277h10.91a2.272 2.272 0 0 1 2.278 2.277v.164h-6.918c-.246 0-.406.164-.406.406v8.14c0 .247.16.407.406.407h6.918v.164a2.276 2.276 0 0 1-2.277 2.282zm0 0M7.93 3.648h.406c.246 0 .406-.164.406-.406 0-.246-.16-.406-.406-.406H7.93c-.246 0-.407.16-.407.406 0 .242.16.406.407.406zm0 0M6.3 3.648h.407c.246 0 .41-.164.41-.406 0-.246-.164-.406-.41-.406h-.406c-.242 0-.406.16-.406.406 0 .242.164.406.406.406zm0 0M4.672 3.648h.41a.385.385 0 0 0 .406-.406c0-.246-.164-.406-.406-.406h-.41c-.242 0-.406.16-.406.406 0 .242.164.406.406.406zm0 0M3.453 2.836h-.406c-.246 0-.41.16-.41.406 0 .242.164.406.41.406h.406a.385.385 0 0 0 .406-.406c0-.246-.164-.406-.406-.406zm0 0"/>
    <path d="M9.559 3.648h.406c.246 0 .406-.164.406-.406 0-.246-.16-.406-.406-.406h-.406c-.246 0-.407.16-.407.406 0 .242.16.406.407.406zm0 0M7.93 1.777l.367.121c.039.04.082.04.121.04.164 0 .324-.122.406-.286a.491.491 0 0 0-.242-.527l-.367-.121a.413.413 0 0 0-.285.773zm0 0M6.344 1.246l.406.121c.04.043.082.043.121.043a.412.412 0 0 0 .367-.246C7.32.922 7.195.72 6.992.637L6.63.516a.408.408 0 0 0-.531.242c-.082.203.039.406.246.488zm0 0M4.957.8l.246.04c.04.039.082.039.121.039.164 0 .324-.082.367-.242a.41.41 0 0 0-.246-.532L5.203.027C5-.055 4.797.067 4.715.27c-.082.203.039.449.242.53zm0 0M9.477 2.266l.367.12c.039.04.082.04.12.04.165 0 .325-.082.368-.242a.41.41 0 0 0-.246-.532l-.324-.16a.413.413 0 0 0-.285.773zm0 0M9.844 4.055l-.367.12c-.204.083-.325.329-.247.532a.395.395 0 0 0 .368.285c.043 0 .082 0 .164-.043l.367-.12c.203-.083.324-.325.242-.528-.082-.203-.324-.328-.527-.246zm0 0M8.297 4.586l-.367.121c-.203.082-.325.324-.246.527a.395.395 0 0 0 .367.286c.043 0 .082 0 .164-.04l.367-.12c.203-.083.324-.329.242-.532-.082-.203-.324-.324-.527-.242zm0 0M5.203 5.602l-.246.082c-.203.082-.324.324-.242.527.039.164.203.285.367.285.04 0 .078 0 .16-.039l.246-.082c.203-.082.324-.324.242-.527-.082-.203-.324-.328-.527-.246zm0 0M6.75 5.113l-.367.121c-.203.082-.324.329-.246.532a.4.4 0 0 0 .367.285c.043 0 .082-.043.164-.043l.367-.121c.203-.082.324-.324.242-.528-.082-.207-.324-.328-.527-.246zm0 0"/>
</svg>
