<svg xmlns="http://www.w3.org/2000/svg" width="32" height="32" viewBox="0 0 24 24">
    <path d="M22.285156 13.5C22.285156 10.929688 19.148438 9.574219 16.757812 8.914062L16.757812 6.601562C16.757812 6.128906 16.371094 5.785156 15.941406 5.785156L15.855469 5.785156 15.855469 2.785156C15.855469 2.527344 15.6875 2.355469 15.429688 2.355469L12.855469 2.355469C12.601562 2.355469 12.429688 2.527344 12.429688 2.785156L12.429688 4.070312 7.285156 4.070312C4.457031 4.070312 2.144531 6.386719 2.144531 9.214844L2.144531 11.847656C.902344 12.214844 0 14.171875 0 16.714844 0 19.542969 1.113281 21.644531 2.570312 21.644531 4.027344 21.644531 5.144531 19.542969 5.144531 16.714844 5.144531 14.171875 4.242188 12.214844 3 11.847656L3 9.214844C3 6.855469 4.929688 4.929688 7.285156 4.929688L12.429688 4.929688 12.429688 5.785156 12.386719 5.785156C11.914062 5.785156 11.570312 6.171875 11.570312 6.601562L11.570312 8.902344C9.175781 9.558594 6 10.914062 6 13.5 6 13.828125 5.921875 16.675781 6.855469 17.929688L6.855469 19.414062 6.429688 21.128906C6.429688 21.257812 6.429688 21.386719 6.515625 21.472656 6.601562 21.601562 6.730469 21.644531 6.855469 21.644531L21.429688 21.644531C21.558594 21.644531 21.6875 21.601562 21.769531 21.515625 21.855469 21.386719 21.898438 21.257812 21.855469 21.128906L21.429688 19.414062 21.429688 17.929688C22.363281 16.679688 22.285156 13.871094 22.285156 13.5zM4.285156 16.714844C4.285156 19.113281 3.386719 20.785156 2.570312 20.785156 1.757812 20.785156.855469 19.113281.855469 16.714844.855469 14.3125 1.757812 12.644531 2.570312 12.644531 3.386719 12.644531 4.285156 14.3125 4.285156 16.714844zM7.714844 18.214844L20.570312 18.214844 20.570312 19.070312 7.714844 19.070312zM13.285156 3.214844L15 3.214844 15 4.070312 14.570312 4.070312C14.3125 4.070312 14.144531 4.242188 14.144531 4.5 14.144531 4.757812 14.3125 4.929688 14.570312 4.929688L15 4.929688 15 5.785156 13.285156 5.785156zM12.429688 6.644531L15.855469 6.644531 15.855469 8.65625C15.8125 8.65625 15.769531 8.613281 15.730469 8.613281 14.699219 8.269531 13.585938 8.269531 12.558594 8.613281 12.515625 8.65625 12.472656 8.65625 12.429688 8.65625zM6.855469 13.5C6.855469 11.496094 9.597656 10.339844 11.683594 9.746094L12.171875 9.644531C12.386719 9.558594 12.601562 9.515625 12.8125 9.472656L12.855469 9.472656C12.9375 9.445312 13.015625 9.417969 13.097656 9.398438 13.339844 9.34375 13.542969 9.304688 13.699219 9.277344 13.960938 9.246094 14.230469 9.238281 14.492188 9.257812 14.703125 9.296875 15.050781 9.363281 15.488281 9.464844 15.496094 9.464844 15.507812 9.46875 15.515625 9.472656L15.523438 9.472656C15.636719 9.496094 15.753906 9.523438 15.878906 9.554688 15.96875 9.582031 16.0625 9.605469 16.164062 9.628906 18.28125 10.179688 21.429688 11.351562 21.429688 13.5 21.429688 14.3125 21.386719 16.5 20.785156 17.355469L7.5 17.355469C6.898438 16.5 6.8125 14.3125 6.855469 13.5zM7.414062 20.785156L7.628906 19.929688 20.65625 19.929688 20.871094 20.785156zM21.855469 4.5L21.429688 4.5C21.171875 4.5 21 4.671875 21 4.929688 21 5.1875 21.171875 5.355469 21.429688 5.355469L21.855469 5.355469C22.113281 5.355469 22.285156 5.1875 22.285156 4.929688 22.285156 4.671875 22.113281 4.5 21.855469 4.5zM23.570312 4.5L23.144531 4.5C22.886719 4.5 22.714844 4.671875 22.714844 4.929688 22.714844 5.1875 22.886719 5.355469 23.144531 5.355469L23.570312 5.355469C23.828125 5.355469 24 5.1875 24 4.929688 24 4.671875 23.828125 4.5 23.570312 4.5zM23.570312 4.5"/>
    <path d="M18.429688 5.355469C18.6875 5.355469 18.855469 5.1875 18.855469 4.929688 18.855469 4.671875 18.6875 4.5 18.429688 4.5L18 4.5C17.742188 4.5 17.570312 4.671875 17.570312 4.929688 17.570312 5.1875 17.742188 5.355469 18 5.355469zM20.144531 4.5L19.714844 4.5C19.457031 4.5 19.285156 4.671875 19.285156 4.929688 19.285156 5.1875 19.457031 5.355469 19.714844 5.355469L20.144531 5.355469C20.398438 5.355469 20.570312 5.1875 20.570312 4.929688 20.570312 4.671875 20.398438 4.5 20.144531 4.5zM21.34375 3.34375C21.386719 3.34375 21.429688 3.34375 21.429688 3.34375L21.855469 3.257812C22.113281 3.214844 22.242188 2.957031 22.199219 2.742188 22.15625 2.484375 21.898438 2.355469 21.6875 2.398438L21.257812 2.484375C21 2.527344 20.871094 2.785156 20.914062 3 20.957031 3.214844 21.128906 3.34375 21.34375 3.34375zM19.671875 3.730469C19.714844 3.730469 19.714844 3.6875 19.757812 3.730469L20.1875 3.644531C20.441406 3.601562 20.570312 3.34375 20.527344 3.128906 20.484375 2.871094 20.230469 2.742188 20.015625 2.785156L19.585938 2.871094C19.328125 2.914062 19.199219 3.171875 19.242188 3.386719 19.285156 3.601562 19.457031 3.730469 19.671875 3.730469zM18 4.070312C18.042969 4.070312 18.042969 4.070312 18.085938 4.070312L18.515625 3.984375C18.769531 3.941406 18.898438 3.6875 18.855469 3.472656 18.8125 3.214844 18.558594 3.085938 18.34375 3.128906L17.914062 3.214844C17.65625 3.257812 17.527344 3.515625 17.570312 3.730469 17.613281 3.941406 17.785156 4.070312 18 4.070312zM20.1875 6.257812L19.757812 6.171875C19.542969 6.128906 19.285156 6.257812 19.242188 6.515625 19.199219 6.730469 19.371094 6.984375 19.585938 7.027344L20.015625 7.113281C20.058594 7.113281 20.058594 7.113281 20.101562 7.113281 20.269531 7.113281 20.484375 6.984375 20.527344 6.769531 20.570312 6.558594 20.398438 6.300781 20.1875 6.257812zM17.914062 6.644531L18.34375 6.730469C18.386719 6.730469 18.386719 6.730469 18.429688 6.730469 18.601562 6.730469 18.769531 6.601562 18.855469 6.386719 18.898438 6.171875 18.730469 5.914062 18.515625 5.871094L18.085938 5.785156C17.871094 5.742188 17.613281 5.914062 17.570312 6.128906 17.527344 6.34375 17.699219 6.601562 17.914062 6.644531zM21.855469 6.644531L21.429688 6.558594C21.214844 6.515625 21 6.644531 20.914062 6.898438 20.871094 7.113281 21.042969 7.371094 21.257812 7.414062L21.6875 7.5C21.730469 7.5 21.730469 7.5 21.769531 7.5 21.941406 7.5 22.15625 7.371094 22.199219 7.15625 22.242188 6.941406 22.070312 6.6875 21.855469 6.644531zM21.855469 6.644531"/>
</svg>
