<svg xmlns="http://www.w3.org/2000/svg" width="32" height="32" viewBox="0 0 24 24">
    <path d="M13.894531 19.367188C13.640625 19.367188 13.472656 19.578125 13.472656 19.789062 13.472656 20.042969 13.640625 20.210938 13.894531 20.210938 14.148438 20.210938 14.316406 20.042969 14.316406 19.789062 14.316406 19.535156 14.148438 19.367188 13.894531 19.367188zM17.261719 19.367188C17.011719 19.367188 16.84375 19.578125 16.84375 19.789062 16.84375 20.042969 17.011719 20.210938 17.261719 20.210938 17.515625 20.210938 17.683594 20.042969 17.683594 19.789062 17.683594 19.535156 17.515625 19.367188 17.261719 19.367188zM15.578125 19.367188C15.328125 19.367188 15.15625 19.578125 15.15625 19.789062 15.15625 20.042969 15.328125 20.210938 15.578125 20.210938 15.832031 20.210938 16 20.042969 16 19.789062 16 19.535156 15.832031 19.367188 15.578125 19.367188zM13.050781 18.105469C12.800781 18.105469 12.632812 18.316406 12.632812 18.527344 12.632812 18.777344 12.800781 18.949219 13.050781 18.949219 13.304688 18.949219 13.472656 18.777344 13.472656 18.527344 13.472656 18.273438 13.304688 18.105469 13.050781 18.105469zM13.894531 16.84375C13.640625 16.84375 13.472656 17.050781 13.472656 17.261719 13.472656 17.515625 13.640625 17.683594 13.894531 17.683594 14.148438 17.683594 14.316406 17.515625 14.316406 17.261719 14.316406 17.011719 14.148438 16.84375 13.894531 16.84375zM17.261719 17.683594C17.515625 17.683594 17.683594 17.515625 17.683594 17.261719 17.683594 17.011719 17.515625 16.84375 17.261719 16.84375 17.011719 16.84375 16.84375 17.050781 16.84375 17.261719 16.84375 17.515625 17.011719 17.683594 17.261719 17.683594zM13.894531 15.15625C14.148438 15.15625 14.316406 14.988281 14.316406 14.738281 14.316406 14.484375 14.148438 14.316406 13.894531 14.316406 13.640625 14.316406 13.472656 14.527344 13.472656 14.738281 13.472656 14.988281 13.640625 15.15625 13.894531 15.15625zM17.261719 14.316406C17.011719 14.316406 16.84375 14.527344 16.84375 14.738281 16.84375 14.988281 17.011719 15.15625 17.261719 15.15625 17.515625 15.15625 17.683594 14.988281 17.683594 14.738281 17.683594 14.484375 17.515625 14.316406 17.261719 14.316406zM15.578125 16.84375C15.328125 16.84375 15.15625 17.050781 15.15625 17.261719 15.15625 17.515625 15.328125 17.683594 15.578125 17.683594 15.832031 17.683594 16 17.515625 16 17.261719 16 17.011719 15.832031 16.84375 15.578125 16.84375zM14.738281 18.105469C14.484375 18.105469 14.316406 18.316406 14.316406 18.527344 14.316406 18.777344 14.484375 18.949219 14.738281 18.949219 14.988281 18.949219 15.15625 18.777344 15.15625 18.527344 15.15625 18.273438 14.988281 18.105469 14.738281 18.105469zM16.421875 18.105469C16.167969 18.105469 16 18.316406 16 18.527344 16 18.777344 16.167969 18.949219 16.421875 18.949219 16.671875 18.949219 16.84375 18.777344 16.84375 18.527344 16.84375 18.273438 16.671875 18.105469 16.421875 18.105469zM18.105469 18.105469C17.851562 18.105469 17.683594 18.316406 17.683594 18.527344 17.683594 18.777344 17.851562 18.949219 18.105469 18.949219 18.359375 18.949219 18.527344 18.777344 18.527344 18.527344 18.527344 18.273438 18.359375 18.105469 18.105469 18.105469zM15.578125 15.15625C15.832031 15.15625 16 14.988281 16 14.738281 16 14.484375 15.832031 14.316406 15.578125 14.316406 15.328125 14.316406 15.15625 14.527344 15.15625 14.738281 15.15625 14.988281 15.328125 15.15625 15.578125 15.15625zM17.261719 12.632812C17.515625 12.632812 17.683594 12.464844 17.683594 12.210938 17.683594 11.957031 17.515625 11.789062 17.261719 11.789062 17.011719 11.789062 16.84375 12 16.84375 12.210938 16.84375 12.464844 17.011719 12.632812 17.261719 12.632812zM14.738281 16.421875C14.988281 16.421875 15.15625 16.253906 15.15625 16 15.15625 15.746094 14.988281 15.578125 14.738281 15.578125 14.484375 15.578125 14.316406 15.789062 14.316406 16 14.316406 16.253906 14.484375 16.421875 14.738281 16.421875zM13.050781 16.421875C13.304688 16.421875 13.472656 16.253906 13.472656 16 13.472656 15.746094 13.304688 15.578125 13.050781 15.578125 12.800781 15.578125 12.632812 15.789062 12.632812 16 12.632812 16.253906 12.800781 16.421875 13.050781 16.421875zM12.210938 16.84375C11.957031 16.84375 11.789062 17.050781 11.789062 17.261719 11.789062 17.515625 11.957031 17.683594 12.210938 17.683594 12.464844 17.683594 12.632812 17.515625 12.632812 17.261719 12.632812 17.011719 12.464844 16.84375 12.210938 16.84375zM11.367188 15.578125C11.117188 15.578125 10.949219 15.789062 10.949219 16 10.949219 16.253906 11.117188 16.421875 11.367188 16.421875 11.621094 16.421875 11.789062 16.253906 11.789062 16 11.789062 15.746094 11.621094 15.578125 11.367188 15.578125zM16.421875 15.578125C16.167969 15.578125 16 15.789062 16 16 16 16.253906 16.167969 16.421875 16.421875 16.421875 16.671875 16.421875 16.84375 16.253906 16.84375 16 16.84375 15.746094 16.671875 15.578125 16.421875 15.578125zM18.105469 16.421875C18.359375 16.421875 18.527344 16.253906 18.527344 16 18.527344 15.746094 18.359375 15.578125 18.105469 15.578125 17.851562 15.578125 17.683594 15.789062 17.683594 16 17.683594 16.253906 17.851562 16.421875 18.105469 16.421875zM17.683594 13.472656C17.683594 13.726562 17.851562 13.894531 18.105469 13.894531 18.359375 13.894531 18.527344 13.726562 18.527344 13.472656 18.527344 13.222656 18.359375 13.050781 18.105469 13.050781 17.851562 13.050781 17.683594 13.261719 17.683594 13.472656zM18.949219 16.84375C18.695312 16.84375 18.527344 17.050781 18.527344 17.261719 18.527344 17.515625 18.695312 17.683594 18.949219 17.683594 19.199219 17.683594 19.367188 17.515625 19.367188 17.261719 19.367188 17.011719 19.199219 16.84375 18.949219 16.84375zM18.949219 15.15625C19.199219 15.15625 19.367188 14.988281 19.367188 14.738281 19.367188 14.484375 19.199219 14.316406 18.949219 14.316406 18.695312 14.316406 18.527344 14.527344 18.527344 14.738281 18.527344 14.988281 18.695312 15.15625 18.949219 15.15625zM19.789062 16.421875C20.042969 16.421875 20.210938 16.253906 20.210938 16 20.210938 15.746094 20.042969 15.578125 19.789062 15.578125 19.535156 15.578125 19.367188 15.789062 19.367188 16 19.367188 16.253906 19.535156 16.421875 19.789062 16.421875zM16.421875 13.894531C16.671875 13.894531 16.84375 13.726562 16.84375 13.472656 16.84375 13.222656 16.671875 13.050781 16.421875 13.050781 16.167969 13.050781 16 13.261719 16 13.472656 16 13.726562 16.167969 13.894531 16.421875 13.894531zM16.421875 13.894531"/>
    <path d="M 16.421875 8.074219 C 16.421875 8.050781 16.421875 8.023438 16.421875 8 C 16.421875 3.578125 12.84375 0 8.421875 0 C 4 0 0.421875 3.578125 0.421875 8 C 0.421875 12.136719 3.554688 15.535156 7.578125 15.957031 C 7.578125 15.96875 7.578125 15.984375 7.578125 16 C 7.578125 20.421875 11.15625 24 15.578125 24 C 20 24 23.578125 20.421875 23.578125 16.042969 C 23.578125 11.929688 20.46875 8.488281 16.421875 8.074219 Z M 1.261719 8 C 1.261719 4.042969 4.464844 0.84375 8.421875 0.84375 C 12.378906 0.84375 15.578125 4.042969 15.578125 8 L 15.535156 8.421875 C 15.347656 11.796875 12.859375 14.503906 9.640625 15.054688 C 9.636719 15.054688 9.632812 15.054688 9.632812 15.054688 C 9.578125 15.066406 9.527344 15.074219 9.472656 15.082031 C 9.464844 15.082031 9.457031 15.082031 9.449219 15.085938 C 9.398438 15.089844 9.351562 15.097656 9.304688 15.105469 C 9.289062 15.105469 9.277344 15.105469 9.261719 15.109375 C 9.21875 15.113281 9.175781 15.117188 9.132812 15.121094 C 9.113281 15.125 9.09375 15.125 9.074219 15.128906 C 9.035156 15.132812 8.996094 15.136719 8.957031 15.136719 C 8.929688 15.140625 8.90625 15.140625 8.878906 15.144531 C 8.847656 15.144531 8.8125 15.148438 8.78125 15.148438 C 8.746094 15.152344 8.710938 15.152344 8.675781 15.152344 C 8.652344 15.152344 8.625 15.15625 8.601562 15.15625 C 8.542969 15.15625 8.480469 15.15625 8.421875 15.15625 C 8.289062 15.15625 8.15625 15.152344 8.023438 15.148438 L 7.6875 15.121094 C 4.074219 14.753906 1.261719 11.710938 1.261719 8 Z M 15.578125 23.15625 C 11.621094 23.15625 8.421875 19.957031 8.421875 16 C 8.488281 16 8.554688 16 8.621094 15.996094 C 8.644531 15.996094 8.671875 15.996094 8.695312 15.996094 C 8.738281 15.992188 8.777344 15.992188 8.816406 15.992188 C 8.847656 15.988281 8.882812 15.988281 8.914062 15.984375 C 8.945312 15.984375 8.976562 15.980469 9.007812 15.976562 C 9.046875 15.976562 9.085938 15.972656 9.121094 15.96875 C 9.148438 15.96875 9.171875 15.964844 9.199219 15.960938 C 9.242188 15.957031 9.285156 15.953125 9.328125 15.949219 C 9.347656 15.945312 9.367188 15.945312 9.386719 15.941406 C 9.433594 15.9375 9.480469 15.929688 9.527344 15.921875 C 9.539062 15.921875 9.554688 15.921875 9.566406 15.917969 C 9.605469 15.914062 9.644531 15.90625 9.683594 15.902344 C 9.683594 15.933594 9.683594 15.964844 9.683594 16 C 9.683594 19.242188 12.335938 21.894531 15.578125 21.894531 C 18.820312 21.894531 21.472656 19.242188 21.515625 15.957031 C 21.515625 13.9375 20.464844 12.085938 18.777344 10.988281 C 18.570312 10.863281 18.316406 10.90625 18.191406 11.117188 C 18.0625 11.328125 18.105469 11.578125 18.316406 11.707031 C 18.425781 11.777344 18.53125 11.851562 18.632812 11.929688 C 18.566406 12.007812 18.527344 12.109375 18.527344 12.210938 C 18.527344 12.464844 18.695312 12.632812 18.949219 12.632812 C 19.082031 12.632812 19.191406 12.582031 19.265625 12.5 C 19.429688 12.675781 19.578125 12.863281 19.714844 13.058594 C 19.503906 13.097656 19.367188 13.285156 19.367188 13.472656 C 19.367188 13.726562 19.535156 13.894531 19.789062 13.894531 C 19.929688 13.894531 20.046875 13.84375 20.121094 13.75 C 20.222656 13.960938 20.308594 14.175781 20.378906 14.398438 C 20.273438 14.480469 20.210938 14.609375 20.210938 14.738281 C 20.210938 14.964844 20.347656 15.125 20.5625 15.152344 C 20.609375 15.429688 20.632812 15.710938 20.632812 16 C 20.632812 16.289062 20.605469 16.574219 20.558594 16.847656 C 20.347656 16.882812 20.210938 17.074219 20.210938 17.261719 C 20.210938 17.410156 20.269531 17.53125 20.367188 17.605469 C 20.296875 17.820312 20.207031 18.03125 20.105469 18.234375 C 20.03125 18.152344 19.921875 18.105469 19.789062 18.105469 C 19.535156 18.105469 19.367188 18.316406 19.367188 18.527344 C 19.367188 18.742188 19.492188 18.894531 19.683594 18.9375 C 19.546875 19.125 19.398438 19.304688 19.238281 19.472656 C 19.167969 19.40625 19.066406 19.367188 18.949219 19.367188 C 18.695312 19.367188 18.527344 19.578125 18.527344 19.789062 C 18.527344 19.890625 18.554688 19.976562 18.601562 20.042969 C 18.074219 20.4375 17.472656 20.730469 16.816406 20.898438 C 16.761719 20.734375 16.617188 20.632812 16.421875 20.632812 C 16.175781 20.632812 16.011719 20.832031 16 21.035156 C 15.863281 21.046875 15.722656 21.050781 15.578125 21.050781 C 15.4375 21.050781 15.296875 21.046875 15.15625 21.035156 C 15.148438 20.792969 14.984375 20.632812 14.738281 20.632812 C 14.546875 20.632812 14.40625 20.75 14.34375 20.898438 C 13.691406 20.734375 13.085938 20.4375 12.558594 20.042969 C 12.605469 19.976562 12.632812 19.890625 12.632812 19.789062 C 12.632812 19.535156 12.464844 19.367188 12.210938 19.367188 C 12.09375 19.367188 11.996094 19.414062 11.925781 19.480469 C 11.761719 19.308594 11.613281 19.128906 11.472656 18.9375 C 11.667969 18.894531 11.789062 18.742188 11.789062 18.527344 C 11.789062 18.273438 11.621094 18.105469 11.367188 18.105469 C 11.238281 18.105469 11.128906 18.160156 11.054688 18.246094 C 10.953125 18.039062 10.863281 17.824219 10.789062 17.605469 C 10.890625 17.53125 10.949219 17.410156 10.949219 17.261719 C 10.949219 17.035156 10.808594 16.875 10.597656 16.847656 C 10.550781 16.570312 10.527344 16.289062 10.527344 16 C 10.527344 15.90625 10.527344 15.8125 10.527344 15.71875 C 12.007812 15.316406 13.316406 14.5 14.324219 13.402344 C 14.316406 13.425781 14.316406 13.449219 14.316406 13.472656 C 14.316406 13.726562 14.484375 13.894531 14.738281 13.894531 C 14.988281 13.894531 15.15625 13.726562 15.15625 13.472656 C 15.15625 13.222656 14.988281 13.050781 14.738281 13.050781 C 14.691406 13.050781 14.648438 13.058594 14.609375 13.070312 C 14.808594 12.828125 14.996094 12.570312 15.167969 12.304688 C 15.203125 12.503906 15.359375 12.632812 15.578125 12.632812 C 15.832031 12.632812 16 12.464844 16 12.210938 C 16 11.957031 15.832031 11.789062 15.578125 11.789062 C 15.535156 11.789062 15.496094 11.796875 15.460938 11.804688 C 15.621094 11.507812 15.765625 11.199219 15.886719 10.882812 C 15.890625 10.867188 15.894531 10.855469 15.902344 10.84375 C 15.917969 10.804688 15.929688 10.761719 15.945312 10.722656 C 15.960938 10.679688 15.976562 10.636719 15.992188 10.59375 C 15.996094 10.582031 16 10.574219 16.003906 10.5625 C 16.183594 10.027344 16.3125 9.464844 16.378906 8.882812 C 19.957031 9.304688 22.738281 12.335938 22.738281 16 C 22.738281 19.957031 19.535156 23.15625 15.578125 23.15625 Z M 15.578125 23.15625"/>
    <path d="M5.894531 7.578125C6.019531 7.578125 6.105469 7.535156 6.191406 7.453125L7.875 5.769531C8.042969 5.601562 8.042969 5.347656 7.875 5.179688 7.707031 5.011719 7.453125 5.011719 7.285156 5.179688L5.601562 6.863281C5.429688 7.03125 5.429688 7.285156 5.601562 7.453125 5.683594 7.535156 5.769531 7.578125 5.894531 7.578125zM5.894531 9.683594C6.019531 9.683594 6.105469 9.640625 6.191406 9.558594L7.03125 8.714844C7.199219 8.546875 7.199219 8.292969 7.03125 8.125 6.863281 7.957031 6.609375 7.957031 6.441406 8.125L5.601562 8.96875C5.429688 9.136719 5.429688 9.390625 5.601562 9.558594 5.683594 9.640625 5.769531 9.683594 5.894531 9.683594zM8.125 7.03125C8.210938 7.117188 8.292969 7.15625 8.421875 7.15625 8.546875 7.15625 8.632812 7.117188 8.714844 7.03125L9.980469 5.769531C10.148438 5.601562 10.148438 5.347656 9.980469 5.179688 9.808594 5.011719 9.558594 5.011719 9.390625 5.179688L8.125 6.441406C7.957031 6.609375 7.957031 6.863281 8.125 7.03125zM9.980469 7.875C10.148438 7.707031 10.148438 7.453125 9.980469 7.285156 9.808594 7.117188 9.558594 7.117188 9.390625 7.285156L5.601562 11.074219C5.429688 11.242188 5.429688 11.496094 5.601562 11.664062 5.683594 11.746094 5.769531 11.789062 5.894531 11.789062 6.019531 11.789062 6.105469 11.746094 6.191406 11.664062zM11.367188 6.316406C11.496094 6.316406 11.578125 6.273438 11.664062 6.191406L12.085938 5.769531C12.253906 5.601562 12.253906 5.347656 12.085938 5.179688 11.914062 5.011719 11.664062 5.011719 11.496094 5.179688L11.074219 5.601562C10.90625 5.769531 10.90625 6.019531 11.074219 6.191406 11.15625 6.273438 11.242188 6.316406 11.367188 6.316406zM7.15625 7.578125C7.15625 7.832031 7.328125 8 7.578125 8 7.832031 8 8 7.832031 8 7.578125 8 7.367188 7.832031 7.15625 7.578125 7.15625 7.328125 7.15625 7.15625 7.328125 7.15625 7.578125zM10.527344 7.15625C10.777344 7.15625 10.949219 6.988281 10.949219 6.738281 10.949219 6.527344 10.777344 6.316406 10.527344 6.316406 10.273438 6.316406 10.105469 6.484375 10.105469 6.738281 10.105469 6.988281 10.273438 7.15625 10.527344 7.15625zM10.527344 7.15625"/>
</svg>
