<svg xmlns="http://www.w3.org/2000/svg" width="32" height="32" viewBox="0 0 24 24">
    <path d="M 16.257812 13.308594 C 16.707031 12.933594 16.964844 12.484375 16.964844 12 C 16.964844 11.515625 16.710938 11.070312 16.261719 10.695312 C 17.496094 9.542969 18.207031 7.925781 18.207031 6.207031 C 18.207031 2.773438 15.433594 0 12 0 C 8.566406 0 5.792969 2.773438 5.792969 6.207031 C 5.792969 7.917969 6.496094 9.53125 7.722656 10.710938 C 7.28125 11.082031 7.035156 11.523438 7.035156 12 C 7.035156 12.484375 7.289062 12.929688 7.738281 13.304688 C 6.503906 14.457031 5.792969 16.074219 5.792969 17.792969 C 5.792969 21.226562 8.566406 24 12 24 C 15.433594 24 18.207031 21.226562 18.207031 17.792969 C 18.207031 16.070312 17.496094 14.484375 16.257812 13.308594 Z M 14.15625 13.390625 C 14.128906 13.398438 14.101562 13.40625 14.074219 13.414062 C 13.558594 13.539062 12.980469 13.621094 12.386719 13.648438 C 12.335938 13.648438 12.289062 13.652344 12.238281 13.652344 C 12.222656 13.652344 12.207031 13.652344 12.1875 13.652344 C 12.125 13.652344 12.0625 13.65625 12 13.65625 C 11.9375 13.65625 11.875 13.652344 11.8125 13.652344 C 11.792969 13.652344 11.777344 13.652344 11.761719 13.652344 C 11.710938 13.652344 11.664062 13.648438 11.613281 13.648438 C 11.019531 13.621094 10.445312 13.539062 9.925781 13.414062 C 9.898438 13.40625 9.871094 13.398438 9.84375 13.390625 C 9.832031 13.386719 9.824219 13.386719 9.8125 13.382812 C 8.625 13.066406 7.863281 12.515625 7.863281 12 C 7.863281 11.484375 8.625 10.933594 9.8125 10.617188 C 9.824219 10.613281 9.832031 10.609375 9.84375 10.609375 C 9.871094 10.601562 9.898438 10.59375 9.925781 10.585938 C 10.441406 10.460938 11.019531 10.378906 11.613281 10.351562 C 11.664062 10.351562 11.710938 10.347656 11.761719 10.347656 C 11.777344 10.347656 11.792969 10.347656 11.8125 10.347656 C 11.875 10.347656 11.9375 10.34375 12 10.34375 C 12.0625 10.34375 12.125 10.347656 12.1875 10.347656 C 12.207031 10.347656 12.222656 10.347656 12.238281 10.347656 C 12.289062 10.347656 12.335938 10.351562 12.386719 10.351562 C 12.980469 10.378906 13.558594 10.460938 14.074219 10.585938 C 14.101562 10.59375 14.128906 10.601562 14.15625 10.609375 C 14.167969 10.609375 14.175781 10.613281 14.1875 10.617188 C 15.375 10.933594 16.136719 11.484375 16.136719 12 C 16.136719 12.515625 15.375 13.0625 14.1875 13.382812 C 14.175781 13.386719 14.167969 13.390625 14.15625 13.390625 Z M 8.441406 10.21875 C 7.28125 9.226562 6.621094 7.78125 6.621094 6.207031 C 6.621094 3.226562 9.019531 0.828125 12 0.828125 C 14.980469 0.828125 17.378906 3.226562 17.378906 6.207031 C 17.378906 7.738281 16.71875 9.1875 15.558594 10.21875 C 14.796875 9.839844 13.777344 9.605469 12.667969 9.539062 C 12.640625 9.535156 12.609375 9.535156 12.582031 9.53125 C 12.542969 9.53125 12.5 9.527344 12.460938 9.527344 C 12.394531 9.523438 12.328125 9.523438 12.261719 9.519531 C 12.253906 9.519531 12.246094 9.519531 12.238281 9.519531 C 12.160156 9.519531 12.082031 9.515625 12 9.515625 C 10.863281 9.515625 9.832031 9.691406 9.011719 9.996094 C 8.808594 10.066406 8.617188 10.140625 8.441406 10.21875 Z M 12 23.171875 C 9.019531 23.171875 6.621094 20.773438 6.621094 17.792969 C 6.621094 16.261719 7.28125 14.8125 8.441406 13.78125 C 9.203125 14.160156 10.222656 14.394531 11.332031 14.460938 C 11.359375 14.464844 11.390625 14.464844 11.417969 14.46875 C 11.457031 14.46875 11.5 14.472656 11.539062 14.472656 C 11.605469 14.476562 11.671875 14.476562 11.738281 14.480469 C 11.746094 14.480469 11.753906 14.480469 11.761719 14.480469 C 11.839844 14.480469 11.917969 14.484375 12 14.484375 C 12.082031 14.484375 12.160156 14.480469 12.238281 14.480469 C 12.246094 14.480469 12.253906 14.480469 12.261719 14.480469 C 12.328125 14.476562 12.394531 14.476562 12.460938 14.472656 C 12.5 14.472656 12.542969 14.46875 12.582031 14.46875 C 12.609375 14.464844 12.640625 14.464844 12.667969 14.460938 C 13.777344 14.394531 14.796875 14.160156 15.558594 13.78125 C 16.71875 14.773438 17.378906 16.21875 17.378906 17.792969 C 17.378906 20.773438 14.980469 23.171875 12 23.171875 Z M 12 23.171875"/>
    <path d="M14.691406 14.605469C14.523438 14.484375 14.234375 14.523438 14.109375 14.691406 13.984375 14.855469 14.027344 15.144531 14.191406 15.269531 14.234375 15.304688 14.277344 15.34375 14.316406 15.378906 14.164062 15.4375 14.070312 15.578125 14.070312 15.765625 14.070312 16.015625 14.234375 16.179688 14.484375 16.179688 14.648438 16.179688 14.78125 16.105469 14.847656 15.980469 14.980469 16.164062 15.09375 16.363281 15.191406 16.570312 15.011719 16.625 14.898438 16.792969 14.898438 16.964844 14.898438 17.214844 15.0625 17.378906 15.308594 17.378906 15.359375 17.378906 15.40625 17.371094 15.449219 17.359375 15.492188 17.582031 15.515625 17.808594 15.515625 18.042969 15.515625 18.386719 15.464844 18.722656 15.375 19.039062 15.351562 19.035156 15.332031 19.035156 15.308594 19.035156 15.0625 19.035156 14.898438 19.242188 14.898438 19.449219 14.898438 19.597656 14.957031 19.714844 15.054688 19.785156 14.945312 19.976562 14.820312 20.152344 14.679688 20.320312 14.625 20.289062 14.558594 20.277344 14.484375 20.277344 14.234375 20.277344 14.070312 20.484375 14.070312 20.691406 14.070312 20.753906 14.082031 20.8125 14.101562 20.863281 13.515625 21.300781 12.789062 21.558594 12 21.558594 11.210938 21.558594 10.484375 21.300781 9.898438 20.863281 9.921875 20.8125 9.929688 20.753906 9.929688 20.691406 9.929688 20.441406 9.765625 20.277344 9.515625 20.277344 9.445312 20.277344 9.378906 20.292969 9.324219 20.324219 9.179688 20.15625 9.054688 19.976562 8.945312 19.785156 9.042969 19.714844 9.105469 19.597656 9.105469 19.449219 9.105469 19.199219 8.9375 19.035156 8.691406 19.035156 8.667969 19.035156 8.648438 19.035156 8.628906 19.039062 8.535156 18.722656 8.484375 18.386719 8.484375 18.042969 8.484375 17.8125 8.503906 17.582031 8.550781 17.359375 8.59375 17.371094 8.640625 17.378906 8.691406 17.378906 8.9375 17.378906 9.105469 17.214844 9.105469 16.964844 9.105469 16.757812 8.988281 16.609375 8.804688 16.566406 8.898438 16.355469 9.015625 16.15625 9.148438 15.96875 9.214844 16.101562 9.34375 16.179688 9.515625 16.179688 9.765625 16.179688 9.929688 16.015625 9.929688 15.765625 9.929688 15.574219 9.835938 15.433594 9.675781 15.378906 9.71875 15.339844 9.761719 15.304688 9.808594 15.269531 10.015625 15.144531 10.015625 14.898438 9.890625 14.691406 9.765625 14.484375 9.476562 14.484375 9.308594 14.605469 8.234375 15.433594 7.65625 16.675781 7.65625 18 7.65625 20.398438 9.601562 22.34375 12 22.34375 14.398438 22.34375 16.34375 20.398438 16.34375 18 16.34375 16.675781 15.722656 15.433594 14.691406 14.605469zM9.808594 8.773438C8.980469 8.070312 8.484375 7.074219 8.484375 6 8.484375 4.054688 10.054688 2.484375 12 2.484375 13.945312 2.484375 15.515625 4.054688 15.515625 6 15.515625 7.074219 15.019531 8.109375 14.191406 8.773438 13.984375 8.898438 13.984375 9.1875 14.109375 9.351562 14.191406 9.476562 14.316406 9.515625 14.441406 9.515625 14.523438 9.515625 14.648438 9.476562 14.691406 9.394531 15.765625 8.566406 16.34375 7.324219 16.34375 6 16.34375 3.601562 14.398438 1.65625 12 1.65625 9.601562 1.65625 7.65625 3.601562 7.65625 6.042969 7.65625 7.367188 8.277344 8.605469 9.308594 9.433594 9.476562 9.558594 9.765625 9.515625 9.890625 9.351562 10.015625 9.1875 9.972656 8.898438 9.808594 8.773438zM9.808594 8.773438"/>
    <path d="M10.34375 19.863281C10.59375 19.863281 10.757812 19.695312 10.757812 19.449219 10.757812 19.199219 10.59375 19.035156 10.34375 19.035156 10.097656 19.035156 9.929688 19.242188 9.929688 19.449219 9.929688 19.695312 10.097656 19.863281 10.34375 19.863281zM13.65625 19.863281C13.902344 19.863281 14.070312 19.695312 14.070312 19.449219 14.070312 19.199219 13.902344 19.035156 13.65625 19.035156 13.40625 19.035156 13.242188 19.242188 13.242188 19.449219 13.242188 19.695312 13.40625 19.863281 13.65625 19.863281zM10.34375 17.378906C10.59375 17.378906 10.757812 17.214844 10.757812 16.964844 10.757812 16.71875 10.59375 16.550781 10.34375 16.550781 10.097656 16.550781 9.929688 16.757812 9.929688 16.964844 9.929688 17.214844 10.097656 17.378906 10.34375 17.378906zM13.65625 17.378906C13.902344 17.378906 14.070312 17.214844 14.070312 16.964844 14.070312 16.71875 13.902344 16.550781 13.65625 16.550781 13.40625 16.550781 13.242188 16.757812 13.242188 16.964844 13.242188 17.214844 13.40625 17.378906 13.65625 17.378906zM12 19.863281C12.25 19.863281 12.414062 19.695312 12.414062 19.449219 12.414062 19.199219 12.25 19.035156 12 19.035156 11.75 19.035156 11.585938 19.242188 11.585938 19.449219 11.585938 19.695312 11.75 19.863281 12 19.863281zM11.171875 21.101562C11.421875 21.101562 11.585938 20.9375 11.585938 20.691406 11.585938 20.441406 11.421875 20.277344 11.171875 20.277344 10.925781 20.277344 10.757812 20.484375 10.757812 20.691406 10.757812 20.9375 10.925781 21.101562 11.171875 21.101562zM12.828125 21.101562C13.074219 21.101562 13.242188 20.9375 13.242188 20.691406 13.242188 20.441406 13.074219 20.277344 12.828125 20.277344 12.578125 20.277344 12.414062 20.484375 12.414062 20.691406 12.414062 20.9375 12.578125 21.101562 12.828125 21.101562zM12 17.378906C12.25 17.378906 12.414062 17.214844 12.414062 16.964844 12.414062 16.71875 12.25 16.550781 12 16.550781 11.75 16.550781 11.585938 16.757812 11.585938 16.964844 11.585938 17.214844 11.75 17.378906 12 17.378906zM11.171875 17.792969C10.925781 17.792969 10.757812 18 10.757812 18.207031 10.757812 18.457031 10.925781 18.621094 11.171875 18.621094 11.421875 18.621094 11.585938 18.457031 11.585938 18.207031 11.585938 17.957031 11.421875 17.792969 11.171875 17.792969zM9.515625 17.792969C9.269531 17.792969 9.101562 18 9.101562 18.207031 9.101562 18.457031 9.269531 18.621094 9.515625 18.621094 9.765625 18.621094 9.929688 18.457031 9.929688 18.207031 9.929688 17.957031 9.765625 17.792969 9.515625 17.792969zM12.828125 17.792969C12.578125 17.792969 12.414062 18 12.414062 18.207031 12.414062 18.457031 12.578125 18.621094 12.828125 18.621094 13.074219 18.621094 13.242188 18.457031 13.242188 18.207031 13.242188 17.957031 13.074219 17.792969 12.828125 17.792969zM11.171875 16.179688C11.421875 16.179688 11.585938 16.015625 11.585938 15.765625 11.585938 15.515625 11.421875 15.351562 11.171875 15.351562 10.925781 15.351562 10.757812 15.515625 10.757812 15.765625 10.757812 16.015625 10.925781 16.179688 11.171875 16.179688zM12.828125 16.179688C13.074219 16.179688 13.242188 16.015625 13.242188 15.765625 13.242188 15.515625 13.074219 15.351562 12.828125 15.351562 12.578125 15.351562 12.414062 15.515625 12.414062 15.765625 12.414062 16.015625 12.578125 16.179688 12.828125 16.179688zM14.484375 18.621094C14.730469 18.621094 14.898438 18.457031 14.898438 18.207031 14.898438 17.957031 14.730469 17.792969 14.484375 17.792969 14.234375 17.792969 14.070312 18 14.070312 18.207031 14.070312 18.457031 14.234375 18.621094 14.484375 18.621094zM14.484375 18.621094"/>
</svg>
