<svg xmlns="http://www.w3.org/2000/svg" width="32" height="32" viewBox="0 0 24 24">
    <path d="M16.258 13.309c.449-.375.707-.825.707-1.309s-.254-.93-.703-1.305a6.129 6.129 0 0 0 1.945-4.488A6.2 6.2 0 0 0 12 0a6.2 6.2 0 0 0-6.207 6.207c0 1.711.703 3.324 1.93 4.504-.442.371-.688.812-.688 1.289 0 .484.254.93.703 1.305a6.129 6.129 0 0 0-1.945 4.488A6.2 6.2 0 0 0 12 24a6.2 6.2 0 0 0 6.207-6.207c0-1.723-.71-3.309-1.95-4.484zm-2.102.082l-.082.023a9.015 9.015 0 0 1-1.687.234c-.051 0-.098.004-.149.004h-.05c-.063 0-.126.004-.188.004-.063 0-.125-.004-.188-.004h-.05c-.051 0-.098-.004-.149-.004a9.061 9.061 0 0 1-1.687-.234l-.082-.023c-.012-.004-.02-.004-.031-.008-1.188-.317-1.95-.867-1.95-1.383s.762-1.066 1.95-1.383c.011-.004.019-.008.03-.008l.083-.023a9.015 9.015 0 0 1 1.687-.234c.051 0 .098-.004.149-.004h.05c.063 0 .126-.004.188-.004.063 0 .125.004.188.004h.05c.051 0 .098.004.149.004.593.027 1.172.109 1.687.234l.082.023c.012 0 .02.004.031.008 1.188.317 1.95.867 1.95 1.383s-.762 1.063-1.95 1.383c-.011.004-.019.008-.03.008zm-5.715-3.172c-1.16-.992-1.82-2.438-1.82-4.012A5.366 5.366 0 0 1 12 .828a5.366 5.366 0 0 1 5.379 5.379c0 1.531-.66 2.98-1.82 4.012-.762-.38-1.782-.614-2.891-.68-.027-.004-.059-.004-.086-.008-.039 0-.082-.004-.121-.004-.066-.004-.133-.004-.2-.007h-.023c-.078 0-.156-.004-.238-.004-1.137 0-2.168.175-2.988.48-.203.07-.395.145-.57.223zM12 23.172a5.366 5.366 0 0 1-5.379-5.379c0-1.531.66-2.98 1.82-4.012.762.38 1.782.614 2.891.68.027.004.059.004.086.008.039 0 .082.004.121.004.066.004.133.004.2.007h.023c.078 0 .156.004.238.004.082 0 .16-.004.238-.004h.024c.066-.003.133-.003.199-.007.039 0 .082-.004.121-.004.027-.004.059-.004.086-.008 1.11-.066 2.129-.3 2.89-.68 1.16.992 1.82 2.438 1.82 4.012A5.366 5.366 0 0 1 12 23.172zm0 0"/>
    <path d="M14.691 14.605c-.168-.12-.457-.082-.582.086-.125.164-.082.454.082.579.043.035.086.074.125.109-.152.059-.246.2-.246.387 0 .25.164.414.414.414.164 0 .297-.075.364-.2.132.184.246.383.343.59a.416.416 0 0 0-.293.395c0 .25.165.414.41.414.051 0 .098-.008.141-.02a3.59 3.59 0 0 1-.074 1.68c-.023-.004-.043-.004-.066-.004a.413.413 0 0 0-.41.414c0 .149.058.266.156.336-.11.192-.235.367-.375.535a.39.39 0 0 0-.196-.043.414.414 0 0 0-.414.414.48.48 0 0 0 .032.172A3.497 3.497 0 0 1 12 21.56c-.79 0-1.516-.258-2.102-.696a.409.409 0 0 0 .032-.172c0-.25-.164-.414-.414-.414a.386.386 0 0 0-.192.047 3.434 3.434 0 0 1-.379-.539.4.4 0 0 0 .16-.336c0-.25-.168-.414-.414-.414-.023 0-.043 0-.062.004a3.51 3.51 0 0 1-.078-1.68c.043.012.09.02.14.02.246 0 .414-.164.414-.414 0-.207-.117-.356-.3-.399.093-.21.21-.41.343-.597.067.133.196.21.368.21.25 0 .414-.163.414-.413 0-.192-.094-.332-.254-.387.043-.04.086-.074.133-.11.207-.124.207-.37.082-.578-.125-.207-.414-.207-.582-.086-1.075.829-1.653 2.07-1.653 3.395a4.344 4.344 0 0 0 8.688 0 4.366 4.366 0 0 0-1.653-3.395zm0 0M9.809 8.773C8.98 8.07 8.484 7.074 8.484 6A3.51 3.51 0 0 1 12 2.484 3.51 3.51 0 0 1 15.516 6a3.58 3.58 0 0 1-1.325 2.773c-.207.125-.207.415-.082.579.082.125.207.164.332.164.082 0 .207-.04.25-.121 1.075-.829 1.653-2.07 1.653-3.395A4.344 4.344 0 0 0 12 1.656c-2.398 0-4.344 1.946-4.344 4.387 0 1.324.621 2.562 1.653 3.39a.449.449 0 0 0 .582-.081c.125-.165.082-.454-.082-.579zm0 0"/>
    <path d="M10.344 19.863c.25 0 .414-.168.414-.414 0-.25-.164-.414-.414-.414a.416.416 0 0 0-.414.414c0 .246.168.414.414.414zm0 0M13.656 19.863a.394.394 0 0 0 .414-.414c0-.25-.168-.414-.414-.414a.414.414 0 0 0-.414.414c0 .246.164.414.414.414zm0 0M10.344 17.379c.25 0 .414-.164.414-.414 0-.246-.164-.414-.414-.414a.416.416 0 0 0-.414.414c0 .25.168.414.414.414zm0 0M13.656 17.379c.246 0 .414-.164.414-.414a.394.394 0 0 0-.414-.414.414.414 0 0 0-.414.414c0 .25.164.414.414.414zm0 0M12 19.863c.25 0 .414-.168.414-.414 0-.25-.164-.414-.414-.414a.414.414 0 0 0-.414.414c0 .246.164.414.414.414zm0 0M11.172 21.102c.25 0 .414-.165.414-.41 0-.25-.164-.415-.414-.415a.416.416 0 0 0-.414.414c0 .247.168.41.414.41zm0 0M12.828 21.102c.246 0 .414-.165.414-.41 0-.25-.168-.415-.414-.415a.414.414 0 0 0-.414.414c0 .247.164.41.414.41zm0 0M12 17.379c.25 0 .414-.164.414-.414 0-.246-.164-.414-.414-.414a.414.414 0 0 0-.414.414c0 .25.164.414.414.414zm0 0M11.172 17.793a.416.416 0 0 0-.414.414c0 .25.168.414.414.414.25 0 .414-.164.414-.414 0-.25-.164-.414-.414-.414zm0 0M9.516 17.793a.416.416 0 0 0-.414.414c0 .25.168.414.414.414.25 0 .414-.164.414-.414 0-.25-.164-.414-.414-.414zm0 0M12.828 17.793a.414.414 0 0 0-.414.414c0 .25.164.414.414.414.246 0 .414-.164.414-.414 0-.25-.168-.414-.414-.414zm0 0M11.172 16.18c.25 0 .414-.164.414-.414 0-.25-.164-.414-.414-.414-.246 0-.414.164-.414.414 0 .25.168.414.414.414zm0 0M12.828 16.18c.246 0 .414-.164.414-.414 0-.25-.168-.414-.414-.414-.25 0-.414.164-.414.414 0 .25.164.414.414.414zm0 0M14.484 18.621c.246 0 .414-.164.414-.414 0-.25-.168-.414-.414-.414a.414.414 0 0 0-.414.414c0 .25.164.414.414.414zm0 0"/>
</svg>
