<svg xmlns="http://www.w3.org/2000/svg" width="32" height="32" viewBox="0 0 24 24">
    <path d="M3.207 19.133c-.883 0-1.602.722-1.602 1.601 0 .88.72 1.598 1.602 1.598.879 0 1.598-.719 1.598-1.598 0-.879-.72-1.601-1.598-1.601zm0 2.398c-.441 0-.8-.36-.8-.797 0-.441.359-.8.8-.8.438 0 .797.359.797.8a.8.8 0 0 1-.797.797zm0 0"/>
    <path d="M23.191 17.375L11.734 5.922c.168-.14.29-.297.383-.457l.32-.559c.282-.48.36-1.039.16-1.52-.32-.761-1.16-1.199-2.277-1.238a5.067 5.067 0 0 0-1.953.32c-.004-.027-.004-.05-.004-.081 0-.121.04-.2.117-.239.243-.242.36-.562.36-.878 0-.364-.16-.641-.399-.883-.238-.239-.52-.317-.84-.317-.359.04-.68.16-.917.438-.825.898-.942 2.18-.38 3.215C2.579 6.574-.98 12.62.247 21.375a2.95 2.95 0 0 0 1.16 1.957c.52.398 1.121.598 1.758.598.121 0 .242 0 .441-.04.801-.12 1.477-.519 1.958-1.16.48-.636.68-1.398.562-2.195-.586-4.023.723-9.555 3.82-13.008l2.774 2.774-.754.754a.422.422 0 0 0-.215.215l-1.309 1.308 10.75 10.715 2-1.961c1.079-1.078 1.079-2.875 0-3.957zM6.961 3.227a1.953 1.953 0 0 1 .32-2.2c.082-.078.2-.16.36-.16.082 0 .16.04.242.121.078.078.117.16.117.282 0 .078-.04.199-.078.238-.238.238-.36.52-.36.84 0 .16.04.277.079.437-.04.043-.118.082-.16.121l-.36.242c-.078-.003-.117.04-.16.079zM5.285 20.652c.078.563-.043 1.16-.402 1.602-.36.476-.88.758-1.438.84-.558.078-1.16-.043-1.597-.403a2.146 2.146 0 0 1-.84-1.437C-.148 12.87 3.21 7.059 6.746 4.367l.016.02.32-.242c.16-.118.32-.2.48-.32l.36-.24c.121-.077.281-.16.48-.237l.336-.157c.469-.156.98-.246 1.461-.246h.04c.402.043 1.32.121 1.562.762.078.238.039.52-.121.797l-.32.562c-.04.118-.16.239-.282.32-4.476 3.278-6.473 10.352-5.793 15.266zm15.867 1.52l-9.593-9.594.57-.59 9.601 9.606zm1.399-1.399l-.258.262-.3-.3v-1.641c0-.239-.161-.399-.403-.399-.238 0-.399.16-.399.399v.84l-.796-.801v-1.676c0-.242-.16-.402-.403-.402-.238 0-.398.16-.398.402v.879l-.801-.8v-1.68c0-.239-.16-.399-.398-.399-.243 0-.399.16-.399.398v.883l-.8-.8v-1.68c0-.238-.16-.399-.4-.399-.241 0-.401.16-.401.399v.879l-3.715-3.715 1.117-1.16-3.3-3.305c.187-.184.386-.36.585-.527l11.469 11.504c.758.8.758 2.082 0 2.84zm0 0"/>
    <path d="M10.398 4.945c0-.758-.636-1.398-1.398-1.398-.758 0-1.398.64-1.398 1.398 0 .758.64 1.399 1.398 1.399.762 0 1.398-.64 1.398-1.399zM9 5.543a.61.61 0 0 1-.598-.598c0-.32.278-.601.598-.601.32 0 .602.281.602.601 0 .32-.282.598-.602.598zm0 0"/>
</svg>
