<svg xmlns="http://www.w3.org/2000/svg" width="32" height="32" viewBox="0 0 24 24">
    <path d="M 24 7.199219 L 21.199219 7.199219 L 21.199219 4.398438 L 2.800781 4.398438 L 2.800781 7.199219 L 0 7.199219 L 0 16.800781 L 2.800781 16.800781 L 2.800781 19.601562 L 21.199219 19.601562 L 21.199219 16.800781 L 24 16.800781 Z M 3.601562 5.199219 L 20.398438 5.199219 L 20.398438 7.199219 L 3.601562 7.199219 Z M 20.398438 18.800781 L 3.601562 18.800781 L 3.601562 16.800781 L 20.398438 16.800781 Z M 23.199219 16 L 0.800781 16 L 0.800781 8 L 23.199219 8 Z M 23.199219 16"/>
    <path d="M 21.199219 11.601562 L 19.5625 11.601562 C 19.378906 10.675781 18.582031 10 17.601562 10 C 16.617188 10 15.820312 10.675781 15.640625 11.601562 L 13.550781 11.601562 C 13.371094 10.910156 12.742188 10.398438 12 10.398438 C 11.257812 10.398438 10.628906 10.910156 10.449219 11.601562 L 8.359375 11.601562 C 8.179688 10.675781 7.382812 10 6.398438 10 C 5.417969 10 4.621094 10.675781 4.4375 11.601562 L 2.800781 11.601562 L 2.800781 9.601562 C 2.800781 9.359375 2.640625 9.199219 2.398438 9.199219 C 2.160156 9.199219 2 9.359375 2 9.601562 L 2 14.398438 C 2 14.640625 2.160156 14.800781 2.398438 14.800781 C 2.640625 14.800781 2.800781 14.640625 2.800781 14.398438 L 2.800781 12.398438 L 4.4375 12.398438 C 4.621094 13.324219 5.417969 14 6.398438 14 C 7.382812 14 8.179688 13.324219 8.359375 12.398438 L 10.449219 12.398438 C 10.628906 13.089844 11.257812 13.601562 12 13.601562 C 12.742188 13.601562 13.371094 13.089844 13.550781 12.398438 L 15.640625 12.398438 C 15.820312 13.324219 16.617188 14 17.601562 14 C 18.582031 14 19.378906 13.324219 19.5625 12.398438 L 21.199219 12.398438 L 21.199219 14.398438 C 21.199219 14.640625 21.359375 14.800781 21.601562 14.800781 C 21.839844 14.800781 22 14.640625 22 14.398438 L 22 9.601562 C 22 9.359375 21.839844 9.199219 21.601562 9.199219 C 21.359375 9.199219 21.199219 9.359375 21.199219 9.601562 Z M 6.398438 13.199219 C 5.71875 13.199219 5.199219 12.679688 5.199219 12 C 5.199219 11.320312 5.71875 10.800781 6.398438 10.800781 C 7.078125 10.800781 7.601562 11.320312 7.601562 12 C 7.601562 12.679688 7.078125 13.199219 6.398438 13.199219 Z M 12 12.800781 C 11.558594 12.800781 11.199219 12.441406 11.199219 12 C 11.199219 11.558594 11.558594 11.199219 12 11.199219 C 12.441406 11.199219 12.800781 11.558594 12.800781 12 C 12.800781 12.441406 12.441406 12.800781 12 12.800781 Z M 17.601562 13.199219 C 16.921875 13.199219 16.398438 12.679688 16.398438 12 C 16.398438 11.320312 16.921875 10.800781 17.601562 10.800781 C 18.28125 10.800781 18.800781 11.320312 18.800781 12 C 18.800781 12.679688 18.28125 13.199219 17.601562 13.199219 Z M 17.601562 13.199219"/>
</svg>
