<svg xmlns="http://www.w3.org/2000/svg" width="32" height="32" viewBox="0 0 24 24">
    <path d="M22 21.559a.345.345 0 0 1-.16-.032A2.778 2.778 0 0 0 24 18.801a2.782 2.782 0 0 0-2.398-2.774V2.801C21.602 1.238 20.359 0 18.8 0H16v13.602h3.2V16H2.8A2.781 2.781 0 0 0 0 18.8c0 1.56 1.238 2.802 2.8 2.802h16.4c.198 1.32 1.32 2.32 2.64 2.398h.082c.316 0 .637-.121.879-.398.238-.204.398-.48.398-.801.04-.32-.078-.64-.32-.88A1.23 1.23 0 0 0 22 21.56zM16.8.8h.802v12H16.8zm1.598 12V9.199l.602.602c.078.078.16.12.281.12.117 0 .239-.042.278-.12a.39.39 0 0 0 0-.563l-1.16-1.16V6.961l.601.598c.078.082.16.12.281.12.117 0 .239-.038.278-.12a.385.385 0 0 0 0-.559l-1.16-1.16V4.68L19 5.28c.078.078.16.117.281.117.117 0 .239-.039.278-.117a.39.39 0 0 0 0-.562l-1.16-1.16v-1.16L19 3c.078.078.16.121.281.121.117 0 .2-.043.278-.121a.385.385 0 0 0 0-.559l-1.16-1.16v-.48h.402c1.117 0 2 .879 2 2V16H20v-3.2zm2.801 4c1.121 0 2 .879 2 2 0 .98-.676 1.781-1.597 1.96H21l-.078.04h-1.723v-4zm-18.398 4c-1.121 0-2-.88-2-2 0-1.121.879-2 2-2h2v4zm2.8 0v-4H7.2v4zM8 20.8v-4h8v4zm8.8 0v-4h1.598v4zm5.481 2.32c-.082.078-.242.117-.36.117-.843-.039-1.523-.597-1.8-1.36.04-.038.117-.038.2 0l.398-.077c.082 0 .12-.04.203-.04.039.118.117.239.238.36.238.238.52.36.84.36.121 0 .2.039.281.12.078.079.117.16.117.278 0 .121-.078.2-.117.242zm0 0"/>
    <path d="M2.8 18c-.44 0-.8.36-.8.8 0 .438.36.802.8.802.438 0 .802-.364.802-.801 0-.442-.364-.801-.801-.801zm0 0M21.2 19.602c.44 0 .8-.364.8-.801 0-.442-.36-.801-.8-.801-.438 0-.802.36-.802.8 0 .438.364.802.801.802zm0 0"/>
</svg>
