<svg xmlns="http://www.w3.org/2000/svg" width="32" height="32" viewBox="0 0 24 24">
    <path d="M 19.332031 8.695312 C 19.691406 8.332031 19.8125 7.8125 19.691406 7.332031 C 19.574219 6.890625 19.253906 6.53125 18.769531 6.410156 L 18.730469 6.410156 C 18.53125 6.332031 18.371094 6.210938 18.332031 6.011719 C 18.289062 5.808594 18.332031 5.609375 18.492188 5.488281 L 18.53125 5.449219 C 19.011719 5.007812 19.089844 4.367188 18.769531 3.804688 C 18.449219 3.285156 17.851562 3.046875 17.25 3.207031 L 17.207031 3.207031 C 17.007812 3.285156 16.808594 3.207031 16.6875 3.085938 C 16.566406 2.964844 16.527344 2.765625 16.566406 2.5625 L 16.566406 2.523438 C 16.769531 1.921875 16.527344 1.320312 15.964844 1 C 15.40625 0.679688 14.765625 0.800781 14.324219 1.242188 L 14.285156 1.28125 C 14.164062 1.441406 13.964844 1.484375 13.761719 1.441406 C 13.5625 1.402344 13.402344 1.242188 13.363281 1.042969 L 13.363281 1 C 13.203125 0.402344 12.679688 0 12.039062 0 C 11.4375 0 10.878906 0.402344 10.757812 1.042969 L 10.757812 1.082031 C 10.679688 1.28125 10.558594 1.441406 10.355469 1.484375 C 10.15625 1.523438 9.957031 1.484375 9.835938 1.320312 L 9.796875 1.28125 C 9.355469 0.800781 8.714844 0.722656 8.152344 1.042969 C 7.632812 1.363281 7.390625 1.964844 7.550781 2.5625 L 7.550781 2.605469 C 7.59375 2.804688 7.511719 3.046875 7.390625 3.164062 C 7.273438 3.285156 7.070312 3.324219 6.871094 3.285156 L 6.832031 3.285156 C 6.230469 3.085938 5.628906 3.324219 5.308594 3.886719 C 4.988281 4.449219 5.070312 5.089844 5.46875 5.527344 L 5.507812 5.570312 C 5.667969 5.691406 5.710938 5.890625 5.667969 6.089844 C 5.628906 6.289062 5.46875 6.449219 5.269531 6.492188 L 5.230469 6.492188 C 4.789062 6.609375 4.425781 6.929688 4.308594 7.414062 C 4.1875 7.894531 4.308594 8.414062 4.667969 8.773438 L 9.234375 13.34375 L 9.234375 13.984375 L 8.835938 13.984375 C 8.152344 13.984375 7.632812 14.503906 7.632812 15.183594 C 7.632812 15.867188 8.152344 16.386719 8.835938 16.386719 L 9.222656 16.386719 C 9.167969 16.820312 8.941406 17.191406 8.59375 17.46875 C 7.992188 17.910156 7.632812 18.632812 7.632812 19.390625 L 7.632812 20.554688 C 7.632812 22.4375 9.195312 24 11.078125 24 L 13 24 C 14.925781 24 16.449219 22.476562 16.449219 20.554688 L 16.449219 19.390625 C 16.449219 18.632812 16.085938 17.910156 15.484375 17.46875 C 15.136719 17.191406 14.910156 16.820312 14.855469 16.386719 L 15.246094 16.386719 C 15.925781 16.386719 16.449219 15.867188 16.449219 15.183594 C 16.449219 14.503906 15.925781 13.984375 15.246094 13.984375 L 14.84375 13.984375 L 14.84375 13.335938 Z M 5.109375 7.652344 C 5.109375 7.574219 5.1875 7.371094 5.46875 7.292969 L 5.507812 7.292969 C 5.988281 7.171875 6.351562 6.8125 6.472656 6.332031 C 6.589844 5.851562 6.472656 5.367188 6.109375 5.007812 L 6.070312 4.96875 C 5.871094 4.726562 5.871094 4.488281 5.988281 4.328125 C 6.070312 4.167969 6.269531 4.007812 6.589844 4.085938 L 6.632812 4.085938 C 7.113281 4.207031 7.59375 4.085938 7.953125 3.726562 C 8.3125 3.367188 8.433594 2.886719 8.3125 2.402344 L 8.3125 2.363281 C 8.195312 2.042969 8.355469 1.84375 8.554688 1.722656 C 8.714844 1.644531 8.996094 1.601562 9.195312 1.84375 L 9.234375 1.882812 C 9.597656 2.242188 10.078125 2.363281 10.558594 2.242188 C 11.039062 2.125 11.398438 1.761719 11.519531 1.28125 L 11.519531 1.242188 C 11.597656 0.960938 11.839844 0.839844 12.039062 0.839844 C 12.242188 0.839844 12.480469 0.921875 12.5625 1.242188 L 12.5625 1.28125 C 12.679688 1.761719 13.042969 2.125 13.523438 2.242188 C 14.003906 2.363281 14.484375 2.242188 14.84375 1.882812 L 14.882812 1.84375 C 15.085938 1.601562 15.367188 1.644531 15.566406 1.722656 C 15.726562 1.804688 15.886719 2.042969 15.804688 2.324219 L 15.804688 2.363281 C 15.6875 2.84375 15.804688 3.324219 16.167969 3.6875 C 16.527344 4.046875 17.007812 4.167969 17.488281 4.046875 L 17.527344 4.046875 C 17.808594 3.964844 18.011719 4.128906 18.128906 4.289062 C 18.25 4.488281 18.289062 4.769531 18.050781 4.96875 L 18.011719 5.007812 C 17.648438 5.367188 17.527344 5.851562 17.648438 6.332031 C 17.769531 6.8125 18.128906 7.171875 18.609375 7.292969 L 18.652344 7.292969 C 18.890625 7.332031 18.972656 7.574219 19.011719 7.652344 C 19.050781 7.8125 19.011719 8.054688 18.851562 8.214844 L 14.285156 12.78125 L 9.796875 12.78125 L 5.269531 8.214844 C 5.070312 8.054688 5.070312 7.8125 5.109375 7.652344 Z M 15.003906 18.109375 C 15.40625 18.429688 15.644531 18.871094 15.644531 19.390625 L 15.644531 20.554688 C 15.644531 21.996094 14.445312 23.199219 13 23.199219 L 11.078125 23.199219 C 9.636719 23.199219 8.433594 21.996094 8.433594 20.554688 L 8.433594 19.390625 C 8.433594 18.871094 8.675781 18.429688 9.074219 18.109375 C 9.636719 17.710938 9.996094 17.070312 10.035156 16.386719 L 14.042969 16.386719 C 14.125 17.070312 14.445312 17.710938 15.003906 18.109375 Z M 15.246094 14.785156 C 15.484375 14.785156 15.644531 14.945312 15.644531 15.183594 C 15.644531 15.425781 15.484375 15.585938 15.246094 15.585938 L 8.835938 15.585938 C 8.59375 15.585938 8.433594 15.425781 8.433594 15.183594 C 8.433594 14.945312 8.59375 14.785156 8.835938 14.785156 Z M 10.035156 13.984375 L 10.035156 13.582031 L 14.042969 13.582031 L 14.042969 13.984375 Z M 10.035156 13.984375"/>
    <path d="M13.402344 9.09375C13.484375 9.136719 13.5625 9.175781 13.644531 9.175781 13.761719 9.175781 13.921875 9.136719 13.964844 8.976562L15.566406 6.570312C15.6875 6.371094 15.644531 6.128906 15.445312 6.011719 15.246094 5.890625 15.003906 5.929688 14.886719 6.128906L13.28125 8.535156C13.160156 8.734375 13.203125 8.976562 13.402344 9.09375zM12.039062 7.171875C12.28125 7.171875 12.441406 7.011719 12.441406 6.769531L12.441406 2.765625C12.441406 2.523438 12.28125 2.363281 12.039062 2.363281 11.800781 2.363281 11.640625 2.523438 11.640625 2.765625L11.640625 6.769531C11.640625 7.011719 11.800781 7.171875 12.039062 7.171875zM12.960938 11.859375C13.042969 11.941406 13.121094 11.980469 13.242188 11.980469 13.363281 11.980469 13.441406 11.941406 13.523438 11.859375L16.726562 8.65625C16.886719 8.496094 16.886719 8.253906 16.726562 8.09375 16.566406 7.933594 16.328125 7.933594 16.167969 8.09375L12.960938 11.296875C12.800781 11.460938 12.800781 11.699219 12.960938 11.859375zM10.117188 9.015625C10.195312 9.09375 10.316406 9.175781 10.4375 9.175781 10.515625 9.175781 10.597656 9.175781 10.679688 9.136719 10.878906 9.015625 10.917969 8.773438 10.796875 8.574219L9.195312 6.171875C9.074219 5.96875 8.835938 5.929688 8.632812 6.050781 8.433594 6.171875 8.394531 6.410156 8.515625 6.609375zM10.117188 9.015625"/>
    <path d="M11.679688 10.097656C11.714844 10.234375 11.839844 10.34375 11.972656 10.371094 11.996094 10.378906 12.019531 10.378906 12.039062 10.378906 12.058594 10.378906 12.074219 10.378906 12.09375 10.375 12.234375 10.355469 12.371094 10.273438 12.441406 10.097656L14.445312 4.488281C14.523438 4.289062 14.402344 4.046875 14.203125 3.964844 14.003906 3.886719 13.761719 4.007812 13.683594 4.207031L12.058594 8.75 10.4375 4.207031C10.355469 4.007812 10.117188 3.886719 9.917969 3.964844 9.714844 4.046875 9.597656 4.289062 9.675781 4.488281zM10.839844 11.980469C10.957031 11.980469 11.039062 11.941406 11.117188 11.859375 11.277344 11.699219 11.277344 11.460938 11.117188 11.296875L7.914062 8.09375C7.753906 7.933594 7.511719 7.933594 7.351562 8.09375 7.191406 8.253906 7.191406 8.492188 7.351562 8.65625L10.558594 11.859375C10.636719 11.941406 10.71875 11.980469 10.839844 11.980469zM10.839844 11.980469"/>
</svg>
