<svg xmlns="http://www.w3.org/2000/svg" width="32" height="32" viewBox="0 0 24 24">
    <path d="M 18 0 L 6 0 C 5.320312 0 4.800781 0.519531 4.800781 1.199219 L 4.800781 18.398438 C 4.800781 18.453125 4.800781 18.503906 4.804688 18.554688 C 4.804688 18.5625 4.804688 18.566406 4.804688 18.574219 C 4.808594 18.617188 4.8125 18.664062 4.816406 18.707031 C 4.816406 18.71875 4.816406 18.726562 4.816406 18.738281 C 4.820312 18.75 4.820312 18.761719 4.824219 18.773438 C 5.007812 20.359375 6.367188 21.601562 8 21.601562 L 9.601562 21.601562 L 9.601562 22.839844 C 9.601562 23.480469 10.121094 24 10.761719 24 L 13.238281 24 C 13.878906 24 14.398438 23.480469 14.398438 22.839844 L 14.398438 21.601562 L 16 21.601562 C 17.378906 21.601562 18.5625 20.714844 19.007812 19.484375 L 19.078125 19.320312 C 19.160156 19.039062 19.199219 18.71875 19.199219 18.398438 L 19.199219 1.199219 C 19.199219 0.519531 18.679688 0 18 0 Z M 5.601562 5.601562 L 18.398438 5.601562 L 18.398438 6.398438 L 5.601562 6.398438 Z M 14 2.800781 L 14 0.800781 L 14.800781 0.800781 L 14.800781 2.800781 Z M 12.398438 2.800781 L 12.398438 0.800781 L 13.199219 0.800781 L 13.199219 2.800781 Z M 10.800781 2.800781 L 10.800781 0.800781 L 11.601562 0.800781 L 11.601562 2.800781 Z M 9.199219 2.800781 L 9.199219 0.800781 L 10 0.800781 L 10 2.800781 Z M 15.601562 0.800781 L 16.398438 0.800781 L 16.398438 2.761719 C 16.398438 2.761719 16.398438 2.800781 16.359375 2.800781 L 15.601562 2.800781 Z M 8.398438 0.800781 L 8.398438 2.800781 L 7.640625 2.800781 C 7.640625 2.800781 7.601562 2.800781 7.601562 2.761719 L 7.601562 0.800781 Z M 6 0.800781 L 6.800781 0.800781 L 6.800781 2.761719 C 6.800781 3.238281 7.199219 3.601562 7.640625 3.601562 L 16.359375 3.601562 C 16.800781 3.601562 17.199219 3.238281 17.199219 2.761719 L 17.199219 0.800781 L 18 0.800781 C 18.238281 0.800781 18.398438 0.960938 18.398438 1.199219 L 18.398438 4.800781 L 5.601562 4.800781 L 5.601562 1.199219 C 5.601562 0.960938 5.761719 0.800781 6 0.800781 Z M 18.398438 18.398438 C 18.398438 18.519531 18.390625 18.632812 18.375 18.746094 C 18.371094 18.765625 18.367188 18.785156 18.359375 18.800781 L 5.640625 18.800781 C 5.632812 18.785156 5.628906 18.765625 5.625 18.746094 C 5.609375 18.632812 5.601562 18.519531 5.601562 18.398438 L 5.601562 18 L 18.398438 18 Z M 13.601562 22.839844 C 13.601562 23.039062 13.441406 23.199219 13.238281 23.199219 L 10.761719 23.199219 C 10.558594 23.199219 10.398438 23.039062 10.398438 22.839844 L 10.398438 21.601562 L 13.601562 21.601562 Z M 16 20.800781 L 8 20.800781 C 7.117188 20.800781 6.339844 20.316406 5.925781 19.601562 L 18.074219 19.601562 C 17.660156 20.316406 16.882812 20.800781 16 20.800781 Z M 5.601562 17.199219 L 5.601562 7.199219 L 18.398438 7.199219 L 18.398438 17.199219 Z M 5.601562 17.199219"/>
    <path d="M 14 10.398438 L 10 10.398438 C 8.878906 10.398438 8 11.28125 8 12.398438 C 8 13.519531 8.878906 14.398438 10 14.398438 L 14 14.398438 C 15.121094 14.398438 16 13.519531 16 12.398438 C 16 11.28125 15.121094 10.398438 14 10.398438 Z M 8.800781 12.398438 C 8.800781 11.71875 9.320312 11.199219 10 11.199219 L 11.601562 11.199219 L 11.601562 13.601562 L 10 13.601562 C 9.320312 13.601562 8.800781 13.078125 8.800781 12.398438 Z M 14 13.601562 L 12.398438 13.601562 L 12.398438 11.199219 L 14 11.199219 C 14.679688 11.199219 15.199219 11.71875 15.199219 12.398438 C 15.199219 13.078125 14.679688 13.601562 14 13.601562 Z M 14 13.601562"/>
</svg>
