<svg xmlns="http://www.w3.org/2000/svg" width="32" height="32" viewBox="0 0 24 24">
    <path d="M12 0C6.133 0 .184 1.102.184 3.262V17.93c0 2.16 5.949 3.258 11.816 3.258.41 0 .844 0 1.262-.02v2.262c0 .164.082.324.207.449a.452.452 0 0 0 .324.121c.039 0 .082 0 .164-.04l1.262-.366a18.928 18.928 0 0 0 7.62-4.2l.653-.609a.872.872 0 0 0 .324-.695V3.422v-.16C23.816 1.102 17.867 0 12 0zm0 .816c6.52 0 10.594 1.301 10.96 2.282-.448.449-.894.855-1.386 1.261-1.996.817-5.664 1.344-9.574 1.344-6.805 0-11-1.426-11-2.441C1 2.242 5.195.816 12 .816zm1.223 19.559H12c-6.805 0-11-1.426-11-2.445V4.543c.652.469 1.664.855 2.902 1.16.493.121 1.02.23 1.578.324v.493c0 .246.165.406.407.406.246 0 .41-.16.41-.406v-.368c1.59.223 3.355.344 5.137.364h.039c.07 0 .14.004.21.004h.743c.242-.004.48-.008.719-.016h.003c2.38-.055 4.598-.29 6.391-.676a19.51 19.51 0 0 1-5.746 2.281l-.57.121zm9.699-2.203l-.652.613a18.668 18.668 0 0 1-7.297 4.035l-.934.285V8.883c1.703-.36 3.348-.961 4.887-1.774v.227c0 .242.164.406.41.406a.385.385 0 0 0 .406-.406v-.684c.766-.457 1.5-.965 2.2-1.527.027-.012.054-.02.081-.031l.082-.043c.286-.254.57-.512.856-.77V18.09c0 .043 0 .043-.04.082zm0 0"/>
    <path d="M6.5 3.871c.813.246 2.605.61 5.46.61.65 0 1.302 0 1.954-.079 1.14-.082 2.61-.41 3.383-.57a.651.651 0 0 0 .488-.613.643.643 0 0 0-.488-.61c-.817-.207-2.61-.57-5.336-.57-2.813 0-4.649.363-5.461.61-.285.081-.488.324-.488.609 0 .289.203.531.488.613zm5.46-1.02c1.954 0 3.423.204 4.36.368-.734.12-1.71.328-2.488.367-.61.039-1.223.082-1.871.082-2.078 0-3.586-.203-4.524-.406.938-.207 2.446-.41 4.524-.41zm0 0M19.336 18.336c-.246 0-.41.164-.41.406v.817c0 .246.164.406.41.406.242 0 .406-.16.406-.406v-.817a.385.385 0 0 0-.406-.406zm0 0M19.336 13.445c-.246 0-.41.164-.41.41v.813c0 .246.164.41.41.41.242 0 .406-.164.406-.41v-.813c0-.246-.164-.41-.406-.41zm0 0M19.336 8.559c-.246 0-.41.16-.41.406v.812c0 .246.164.41.41.41.242 0 .406-.164.406-.41v-.812c0-.246-.164-.406-.406-.406zm0 0M19.336 11c-.246 0-.41.164-.41.41v.813c0 .246.164.41.41.41.242 0 .406-.164.406-.41v-.813c0-.246-.164-.41-.406-.41zm0 0M19.336 15.89c-.246 0-.41.165-.41.407v.816c0 .246.164.407.41.407.242 0 .406-.16.406-.407v-.816a.385.385 0 0 0-.406-.406zm0 0M5.887 7.742a.385.385 0 0 0-.407.406v.817c0 .242.165.406.407.406.246 0 .41-.164.41-.406v-.817c0-.242-.164-.406-.41-.406zm0 0M5.887 12.633c-.242 0-.407.16-.407.406v.816c0 .243.165.407.407.407.246 0 .41-.164.41-.407v-.816c0-.246-.164-.406-.41-.406zm0 0M5.887 10.188a.385.385 0 0 0-.407.406v.816c0 .242.165.406.407.406.246 0 .41-.164.41-.406v-.816c0-.242-.164-.406-.41-.406zm0 0M5.887 15.078c-.242 0-.407.16-.407.406v.813c0 .246.165.41.407.41.246 0 .41-.164.41-.41v-.813c0-.246-.164-.406-.41-.406zm0 0M5.887 17.52c-.242 0-.407.164-.407.41v.812c0 .246.165.41.407.41.246 0 .41-.164.41-.41v-.812c0-.246-.164-.41-.41-.41zm0 0"/>
</svg>
