<svg xmlns="http://www.w3.org/2000/svg" width="32" height="32" viewBox="0 0 24 24">
    <path d="M23.426 20.82l-7.149-7.187 5.215-6.305a.38.38 0 0 0-.039-.523l-.152-.153 2.207-3.55c.12-.16.078-.364 0-.485l-1.45-1.449c-.12-.121-.324-.121-.484-.04l-3.578 2.22-.129-.125c-.117-.164-.36-.164-.523-.043L11 8.434l-.016-.016c-.324-.324-.765-.484-1.21-.363L7.8 8.496a1 1 0 0 0-.508.313L5.43 6.965l2.05-2.05a.394.394 0 0 0 0-.567.39.39 0 0 0-.562 0L4.863 6.402l-.285-.28 2.055-2.056a.383.383 0 0 0 0-.562.39.39 0 0 0-.563 0L4.012 5.562l-.285-.285 1.98-2.015a.39.39 0 0 0 0-.563.383.383 0 0 0-.562 0l-2 2-.286-.281 2.004-2a.394.394 0 0 0 0-.566.394.394 0 0 0-.566 0L2.293 3.859l-.285-.28 2.05-2.048a.394.394 0 0 0 0-.566.394.394 0 0 0-.566 0l-2.05 2.05-.301-.3L3.17.684a.39.39 0 0 0 0-.563.394.394 0 0 0-.566 0L.54 2.191a.386.386 0 0 0-.387.106.383.383 0 0 0 0 .562l7.035 6.934c.043.082.098.16.172.234l.774.774-7.336 6.07c-.121.082-.164.164-.164.285 0 .117.043.2.12.282l3.224 3.218 3.222 3.223c.078.082.16.121.281.121.122 0 .243-.04.32-.121l6.071-7.34 6.899 6.898c.359.36.843.563 1.328.563.484 0 .965-.16 1.328-.523a1.891 1.891 0 0 0 0-2.657zm-1.73-18.847l.964.968-1.066 1.711-1.61-1.613zm-2.407 1.5l1.887 1.851-.45.715-2.132-2.133zm-.098 17.257l.946-2.097.972.965-.949 2.101zm-1.57-1.57l.942-2.094.972.97-.945 2.093zm-.074-15.133l3.058 3.059L9.191 20.879 4.34 16.027l-.586-.582 3.2-2.648 3.062 3.027a.367.367 0 0 0 .28.121c.083 0 .204-.039.286-.12l4.227-4.266a.394.394 0 0 0 0-.567l-2.57-2.57zM5.91 21.465l1.367-1.371.485.484-1.367 1.367zm-1.09-1.09l1.371-1.367.524.523-1.371 1.367zm-1.066-1.066l1.371-1.368.504.5-1.371 1.372zm-1.067-1.067l1.372-1.37.5.503-1.368 1.371zm8.942-9.3l2.336 2.331-3.707 3.707-2.656-2.66zm-3.625.32l1.973-.442h.12c.122 0 .2 0 .321.078L8.77 10.27l-.805-.805c-.043-.043-.043-.082-.043-.121 0-.043.043-.082.082-.082zM3.14 15.953l.351.356-1.367 1.37-.484-.484zm4.3 7.04l-.468-.466 1.355-1.382.352.351zm8.309-8.723l2.21 2.199-.94 2.09-2.637-2.637zm7.152 8.644c-.441.402-1.129.402-1.53 0l-.61-.613.945-2.106 1.195 1.188c.403.441.403 1.129 0 1.531zm0 0"/>
</svg>
