<svg xmlns="http://www.w3.org/2000/svg" width="32" height="32" viewBox="0 0 24 24">
    <path d="M 23.601562 23.199219 L 21.601562 23.199219 L 21.601562 2.398438 L 22.398438 2.398438 C 22.640625 2.398438 22.800781 2.238281 22.800781 2 L 22.800781 0.398438 C 22.800781 0.160156 22.640625 0 22.398438 0 L 1.601562 0 C 1.359375 0 1.199219 0.160156 1.199219 0.398438 L 1.199219 2 C 1.199219 2.238281 1.359375 2.398438 1.601562 2.398438 L 2.398438 2.398438 L 2.398438 23.199219 L 0.398438 23.199219 C 0.160156 23.199219 0 23.359375 0 23.601562 C 0 23.839844 0.160156 24 0.398438 24 L 23.601562 24 C 23.839844 24 24 23.839844 24 23.601562 C 24 23.359375 23.839844 23.199219 23.601562 23.199219 Z M 2 0.800781 L 22 0.800781 L 22 1.601562 L 2 1.601562 Z M 10 23.199219 L 10 16.800781 L 11.601562 16.800781 L 11.601562 23.199219 Z M 12.398438 23.199219 L 12.398438 16.800781 L 14 16.800781 L 14 23.199219 Z M 14.800781 23.199219 L 14.800781 16.398438 C 14.800781 16.160156 14.640625 16 14.398438 16 L 9.601562 16 C 9.359375 16 9.199219 16.160156 9.199219 16.398438 L 9.199219 23.199219 L 3.199219 23.199219 L 3.199219 2.398438 L 20.800781 2.398438 L 20.800781 23.199219 Z M 14.800781 23.199219"/>
    <path d="M10.800781 4L4.398438 4C4.160156 4 4 4.160156 4 4.398438L4 7.601562C4 7.839844 4.160156 8 4.398438 8L10.800781 8C11.039062 8 11.199219 7.839844 11.199219 7.601562L11.199219 4.398438C11.199219 4.160156 11.039062 4 10.800781 4zM4.800781 4.800781L7.199219 4.800781 7.199219 7.199219 4.800781 7.199219zM10.398438 7.199219L8 7.199219 8 4.800781 10.398438 4.800781zM8 16L4.398438 16C4.160156 16 4 16.160156 4 16.398438L4 19.601562C4 19.839844 4.160156 20 4.398438 20L8 20C8.238281 20 8.398438 19.839844 8.398438 19.601562L8.398438 16.398438C8.398438 16.160156 8.238281 16 8 16zM7.601562 19.199219L4.800781 19.199219 4.800781 16.800781 7.601562 16.800781zM19.601562 16L16 16C15.761719 16 15.601562 16.160156 15.601562 16.398438L15.601562 19.601562C15.601562 19.839844 15.761719 20 16 20L19.601562 20C19.839844 20 20 19.839844 20 19.601562L20 16.398438C20 16.160156 19.839844 16 19.601562 16zM19.199219 19.199219L16.398438 19.199219 16.398438 16.800781 19.199219 16.800781zM19.601562 4L13.199219 4C12.960938 4 12.800781 4.160156 12.800781 4.398438L12.800781 7.601562C12.800781 7.839844 12.960938 8 13.199219 8L19.601562 8C19.839844 8 20 7.839844 20 7.601562L20 4.398438C20 4.160156 19.839844 4 19.601562 4zM13.601562 4.800781L16 4.800781 16 7.199219 13.601562 7.199219zM19.199219 7.199219L16.800781 7.199219 16.800781 4.800781 19.199219 4.800781zM10.800781 9.601562L4.398438 9.601562C4.160156 9.601562 4 9.761719 4 10L4 13.199219C4 13.441406 4.160156 13.601562 4.398438 13.601562L10.800781 13.601562C11.039062 13.601562 11.199219 13.441406 11.199219 13.199219L11.199219 10C11.199219 9.761719 11.039062 9.601562 10.800781 9.601562zM4.800781 10.398438L7.199219 10.398438 7.199219 12.800781 4.800781 12.800781zM10.398438 12.800781L8 12.800781 8 10.398438 10.398438 10.398438zM19.601562 9.601562L13.199219 9.601562C12.960938 9.601562 12.800781 9.761719 12.800781 10L12.800781 13.199219C12.800781 13.441406 12.960938 13.601562 13.199219 13.601562L19.601562 13.601562C19.839844 13.601562 20 13.441406 20 13.199219L20 10C20 9.761719 19.839844 9.601562 19.601562 9.601562zM13.601562 10.398438L16 10.398438 16 12.800781 13.601562 12.800781zM19.199219 12.800781L16.800781 12.800781 16.800781 10.398438 19.199219 10.398438zM19.199219 12.800781"/>
</svg>
