<svg xmlns="http://www.w3.org/2000/svg" width="32" height="32" viewBox="0 0 24 24">
    <path d="M4 21.594h3.2c.237 0 .398-.16.398-.403v-2.398c0-.238-.16-.398-.399-.398H4c-.238 0-.398.16-.398.398v2.398c0 .243.16.403.398.403zm.398-2.399h2.399v1.598H4.398zm0 0M16.79 21.594h3.198c.239 0 .399-.16.399-.403v-2.398c0-.238-.16-.398-.399-.398H16.79c-.238 0-.398.16-.398.398v2.398c0 .243.16.403.398.403zm.401-2.399h2.395v1.598H17.19zm0 0M4 17.594h3.2c.237 0 .398-.157.398-.399v-2.398c0-.238-.16-.399-.399-.399H4c-.238 0-.398.16-.398.399v2.398c0 .242.16.399.398.399zm.398-2.395h2.399v1.598H4.398zm0 0M16.79 17.594h3.198c.239 0 .399-.157.399-.399v-2.398c0-.238-.16-.399-.399-.399H16.79c-.238 0-.398.16-.398.399v2.398c0 .242.16.399.398.399zm.401-2.395h2.395v1.598H17.19zm0 0M4 13.598h3.2c.237 0 .398-.16.398-.399v-2.398c0-.239-.16-.399-.399-.399H4c-.238 0-.398.16-.398.399v2.398c0 .239.16.399.398.399zm.398-2.399h2.399v1.602H4.398zm0 0M16.79 13.598h3.198c.239 0 .399-.16.399-.399v-2.398c0-.239-.16-.399-.399-.399H16.79c-.238 0-.398.16-.398.399v2.398c0 .239.16.399.398.399zm.401-2.399h2.395v1.602H17.19zm0 0M4 9.602h3.2c.237 0 .398-.16.398-.399V6.805c0-.242-.16-.399-.399-.399H4c-.238 0-.398.157-.398.399v2.398c0 .238.16.399.398.399zm.398-2.399h2.399v1.598H4.398zm0 0M10.395 17.594h3.199c.238 0 .398-.157.398-.399v-2.398c0-.238-.16-.399-.398-.399h-3.2c-.238 0-.398.16-.398.399v2.398c0 .242.16.399.399.399zm.402-2.395h2.394v1.598h-2.394zm0 0M10.395 13.598h3.199c.238 0 .398-.16.398-.399v-2.398c0-.239-.16-.399-.398-.399h-3.2c-.238 0-.398.16-.398.399v2.398c0 .239.16.399.399.399zm.402-2.399h2.394v1.602h-2.394zm0 0M10.395 9.602h3.199c.238 0 .398-.16.398-.399V6.805c0-.242-.16-.399-.398-.399h-3.2c-.238 0-.398.157-.398.399v2.398c0 .238.16.399.399.399zm.402-2.399h2.394v1.598h-2.394zm0 0M16.79 9.602h3.198c.239 0 .399-.16.399-.399V6.805c0-.242-.16-.399-.399-.399H16.79c-.238 0-.398.157-.398.399v2.398c0 .238.16.399.398.399zm.401-2.399h2.395v1.598H17.19zm0 0"/>
    <path d="M23.984 5.125L22.785.328c-.039-.2-.2-.32-.398-.32H2.004c-.16 0-.32.12-.363.281L.043 5.086c-.078.121-.04.238.039.36.082.077.203.16.32.16h1.602V23.19h-.402c-.239 0-.399.16-.399.399 0 .242.16.402.399.402h20.785c.238 0 .398-.16.398-.402 0-.238-.16-.399-.398-.399h-.403V5.605h1.602c.117 0 .238 0 .32-.12.078-.118.117-.239.078-.36zm-12.39 18.066H9.996v-3.996h1.598zm.8 0v-3.996h1.598v3.996zm8.793 0h-6.394v-4.398c0-.238-.16-.398-.402-.398H9.598c-.243 0-.403.16-.403.398v4.398H2.801V5.605h18.386zm.399-18.386H.96l.266-.797H5.12c.16 0 .316-.16.316-.403 0-.238-.117-.398-.359-.398H1.492l.262-.8H6.52c.238 0 .398-.16.398-.4 0-.237-.16-.398-.398-.398h-4.5l.261-.8h19.785l.2.8h-4.278c-.238 0-.398.16-.398.399 0 .238.16.398.398.398h4.477l.2.801h-3.477c-.239 0-.399.16-.399.398 0 .243.16.403.398.403h3.676l.203.797zm0 0"/>
</svg>
