<svg xmlns="http://www.w3.org/2000/svg" width="32" height="32" viewBox="0 0 24 24">
    <path d="M5.601562 4.800781C5.839844 4.800781 6 4.640625 6 4.398438L6 2.398438 6.398438 2.398438C6.640625 2.398438 6.800781 2.238281 6.800781 2 6.800781 1.761719 6.640625 1.601562 6.398438 1.601562L6 1.601562 6 .398438C6 .160156 5.839844 0 5.601562 0 5.359375 0 5.199219.160156 5.199219.398438L5.199219 4.398438C5.199219 4.640625 5.359375 4.800781 5.601562 4.800781zM17.601562 18.800781C17.839844 18.800781 18 18.640625 18 18.398438L18 12 19.199219 12C19.359375 12 19.519531 11.921875 19.601562 11.761719 19.640625 11.601562 19.601562 11.441406 19.480469 11.320312L13.441406 5.921875C12.398438 5 10.839844 5 9.800781 5.921875L3.761719 11.320312C3.640625 11.441406 3.601562 11.640625 3.640625 11.761719 3.679688 11.878906 3.839844 12 4 12L5.199219 12 5.199219 18.398438C5.199219 18.640625 5.359375 18.800781 5.601562 18.800781zM5.039062 11.199219L10.320312 6.480469C11.039062 5.839844 12.160156 5.839844 12.878906 6.480469L18.160156 11.199219 17.601562 11.199219C17.359375 11.199219 17.199219 11.359375 17.199219 11.601562L17.199219 18 6 18 6 11.601562C6 11.359375 5.839844 11.199219 5.601562 11.199219zM23.601562 18L22.398438 18 22.398438 17.601562C22.398438 17.359375 22.238281 17.199219 22 17.199219 21.761719 17.199219 21.601562 17.359375 21.601562 17.601562L21.601562 18 19.601562 18C19.359375 18 19.199219 18.160156 19.199219 18.398438 19.199219 18.640625 19.359375 18.800781 19.601562 18.800781L23.601562 18.800781C23.839844 18.800781 24 18.640625 24 18.398438 24 18.160156 23.839844 18 23.601562 18zM4.398438 21.601562L4 21.601562C3.761719 21.601562 3.601562 21.761719 3.601562 22 3.601562 22.238281 3.761719 22.398438 4 22.398438L4.398438 22.398438C4.640625 22.398438 4.800781 22.238281 4.800781 22 4.800781 21.761719 4.640625 21.601562 4.398438 21.601562zM6.398438 21.601562L6 21.601562C5.761719 21.601562 5.601562 21.761719 5.601562 22 5.601562 22.238281 5.761719 22.398438 6 22.398438L6.398438 22.398438C6.640625 22.398438 6.800781 22.238281 6.800781 22 6.800781 21.761719 6.640625 21.601562 6.398438 21.601562zM8.398438 21.601562L8 21.601562C7.761719 21.601562 7.601562 21.761719 7.601562 22 7.601562 22.238281 7.761719 22.398438 8 22.398438L8.398438 22.398438C8.640625 22.398438 8.800781 22.238281 8.800781 22 8.800781 21.761719 8.640625 21.601562 8.398438 21.601562zM10.398438 21.601562L10 21.601562C9.761719 21.601562 9.601562 21.761719 9.601562 22 9.601562 22.238281 9.761719 22.398438 10 22.398438L10.398438 22.398438C10.640625 22.398438 10.800781 22.238281 10.800781 22 10.800781 21.761719 10.640625 21.601562 10.398438 21.601562zM12.398438 21.601562L12 21.601562C11.761719 21.601562 11.601562 21.761719 11.601562 22 11.601562 22.238281 11.761719 22.398438 12 22.398438L12.398438 22.398438C12.640625 22.398438 12.800781 22.238281 12.800781 22 12.800781 21.761719 12.640625 21.601562 12.398438 21.601562zM14.398438 21.601562L14 21.601562C13.761719 21.601562 13.601562 21.761719 13.601562 22 13.601562 22.238281 13.761719 22.398438 14 22.398438L14.398438 22.398438C14.640625 22.398438 14.800781 22.238281 14.800781 22 14.800781 21.761719 14.640625 21.601562 14.398438 21.601562zM16.398438 21.601562L16 21.601562C15.761719 21.601562 15.601562 21.761719 15.601562 22 15.601562 22.238281 15.761719 22.398438 16 22.398438L16.398438 22.398438C16.640625 22.398438 16.800781 22.238281 16.800781 22 16.800781 21.761719 16.640625 21.601562 16.398438 21.601562zM18.398438 21.601562L18 21.601562C17.761719 21.601562 17.601562 21.761719 17.601562 22 17.601562 22.238281 17.761719 22.398438 18 22.398438L18.398438 22.398438C18.640625 22.398438 18.800781 22.238281 18.800781 22 18.800781 21.761719 18.640625 21.601562 18.398438 21.601562zM20.398438 21.601562L20 21.601562C19.761719 21.601562 19.601562 21.761719 19.601562 22 19.601562 22.238281 19.761719 22.398438 20 22.398438L20.398438 22.398438C20.640625 22.398438 20.800781 22.238281 20.800781 22 20.800781 21.761719 20.640625 21.601562 20.398438 21.601562zM23.601562 21.601562L22 21.601562C21.761719 21.601562 21.601562 21.761719 21.601562 22L21.601562 23.601562C21.601562 23.839844 21.761719 24 22 24 22.238281 24 22.398438 23.839844 22.398438 23.601562L22.398438 22.398438 23.601562 22.398438C23.839844 22.398438 24 22.238281 24 22 24 21.761719 23.839844 21.601562 23.601562 21.601562zM20 2.398438L20.398438 2.398438C20.640625 2.398438 20.800781 2.238281 20.800781 2 20.800781 1.761719 20.640625 1.601562 20.398438 1.601562L20 1.601562C19.761719 1.601562 19.601562 1.761719 19.601562 2 19.601562 2.238281 19.761719 2.398438 20 2.398438zM18 2.398438L18.398438 2.398438C18.640625 2.398438 18.800781 2.238281 18.800781 2 18.800781 1.761719 18.640625 1.601562 18.398438 1.601562L18 1.601562C17.761719 1.601562 17.601562 1.761719 17.601562 2 17.601562 2.238281 17.761719 2.398438 18 2.398438zM16 2.398438L16.398438 2.398438C16.640625 2.398438 16.800781 2.238281 16.800781 2 16.800781 1.761719 16.640625 1.601562 16.398438 1.601562L16 1.601562C15.761719 1.601562 15.601562 1.761719 15.601562 2 15.601562 2.238281 15.761719 2.398438 16 2.398438zM14 2.398438L14.398438 2.398438C14.640625 2.398438 14.800781 2.238281 14.800781 2 14.800781 1.761719 14.640625 1.601562 14.398438 1.601562L14 1.601562C13.761719 1.601562 13.601562 1.761719 13.601562 2 13.601562 2.238281 13.761719 2.398438 14 2.398438zM12 2.398438L12.398438 2.398438C12.640625 2.398438 12.800781 2.238281 12.800781 2 12.800781 1.761719 12.640625 1.601562 12.398438 1.601562L12 1.601562C11.761719 1.601562 11.601562 1.761719 11.601562 2 11.601562 2.238281 11.761719 2.398438 12 2.398438zM10 2.398438L10.398438 2.398438C10.640625 2.398438 10.800781 2.238281 10.800781 2 10.800781 1.761719 10.640625 1.601562 10.398438 1.601562L10 1.601562C9.761719 1.601562 9.601562 1.761719 9.601562 2 9.601562 2.238281 9.761719 2.398438 10 2.398438zM8 2.398438L8.398438 2.398438C8.640625 2.398438 8.800781 2.238281 8.800781 2 8.800781 1.761719 8.640625 1.601562 8.398438 1.601562L8 1.601562C7.761719 1.601562 7.601562 1.761719 7.601562 2 7.601562 2.238281 7.761719 2.398438 8 2.398438zM4 2.398438C4.238281 2.398438 4.398438 2.238281 4.398438 2 4.398438 1.761719 4.238281 1.601562 4 1.601562L3.601562 1.601562C3.359375 1.601562 3.199219 1.761719 3.199219 2 3.199219 2.238281 3.359375 2.398438 3.601562 2.398438zM22 2.398438L23.601562 2.398438C23.839844 2.398438 24 2.238281 24 2 24 1.761719 23.839844 1.601562 23.601562 1.601562L22.398438 1.601562 22.398438.398438C22.398438.160156 22.238281 0 22 0 21.761719 0 21.601562.160156 21.601562.398438L21.601562 2C21.601562 2.238281 21.761719 2.398438 22 2.398438zM2 0C1.761719 0 1.601562.160156 1.601562.398438L1.601562 1.601562.398438 1.601562C.160156 1.601562 0 1.761719 0 2 0 2.238281.160156 2.398438.398438 2.398438L2 2.398438C2.238281 2.398438 2.398438 2.238281 2.398438 2L2.398438.398438C2.398438.160156 2.238281 0 2 0zM2 3.601562C1.761719 3.601562 1.601562 3.761719 1.601562 4L1.601562 4.398438C1.601562 4.640625 1.761719 4.800781 2 4.800781 2.238281 4.800781 2.398438 4.640625 2.398438 4.398438L2.398438 4C2.398438 3.761719 2.238281 3.601562 2 3.601562zM2 5.601562C1.761719 5.601562 1.601562 5.761719 1.601562 6L1.601562 6.398438C1.601562 6.640625 1.761719 6.800781 2 6.800781 2.238281 6.800781 2.398438 6.640625 2.398438 6.398438L2.398438 6C2.398438 5.761719 2.238281 5.601562 2 5.601562zM2 7.601562C1.761719 7.601562 1.601562 7.761719 1.601562 8L1.601562 8.398438C1.601562 8.640625 1.761719 8.800781 2 8.800781 2.238281 8.800781 2.398438 8.640625 2.398438 8.398438L2.398438 8C2.398438 7.761719 2.238281 7.601562 2 7.601562zM2 9.601562C1.761719 9.601562 1.601562 9.761719 1.601562 10L1.601562 10.398438C1.601562 10.640625 1.761719 10.800781 2 10.800781 2.238281 10.800781 2.398438 10.640625 2.398438 10.398438L2.398438 10C2.398438 9.761719 2.238281 9.601562 2 9.601562zM2 11.601562C1.761719 11.601562 1.601562 11.761719 1.601562 12L1.601562 12.398438C1.601562 12.640625 1.761719 12.800781 2 12.800781 2.238281 12.800781 2.398438 12.640625 2.398438 12.398438L2.398438 12C2.398438 11.761719 2.238281 11.601562 2 11.601562zM2 13.601562C1.761719 13.601562 1.601562 13.761719 1.601562 14L1.601562 14.398438C1.601562 14.640625 1.761719 14.800781 2 14.800781 2.238281 14.800781 2.398438 14.640625 2.398438 14.398438L2.398438 14C2.398438 13.761719 2.238281 13.601562 2 13.601562zM2 15.601562C1.761719 15.601562 1.601562 15.761719 1.601562 16L1.601562 16.398438C1.601562 16.640625 1.761719 16.800781 2 16.800781 2.238281 16.800781 2.398438 16.640625 2.398438 16.398438L2.398438 16C2.398438 15.761719 2.238281 15.601562 2 15.601562zM2 17.601562C1.761719 17.601562 1.601562 17.761719 1.601562 18L1.601562 18.398438C1.601562 18.640625 1.761719 18.800781 2 18.800781 2.238281 18.800781 2.398438 18.640625 2.398438 18.398438L2.398438 18C2.398438 17.761719 2.238281 17.601562 2 17.601562zM2 19.601562C1.761719 19.601562 1.601562 19.761719 1.601562 20L1.601562 20.398438C1.601562 20.640625 1.761719 20.800781 2 20.800781 2.238281 20.800781 2.398438 20.640625 2.398438 20.398438L2.398438 20C2.398438 19.761719 2.238281 19.601562 2 19.601562zM22 4.398438C22.238281 4.398438 22.398438 4.238281 22.398438 4L22.398438 3.601562C22.398438 3.359375 22.238281 3.199219 22 3.199219 21.761719 3.199219 21.601562 3.359375 21.601562 3.601562L21.601562 4C21.601562 4.238281 21.761719 4.398438 22 4.398438zM22 6.398438C22.238281 6.398438 22.398438 6.238281 22.398438 6L22.398438 5.601562C22.398438 5.359375 22.238281 5.199219 22 5.199219 21.761719 5.199219 21.601562 5.359375 21.601562 5.601562L21.601562 6C21.601562 6.238281 21.761719 6.398438 22 6.398438zM22 8.398438C22.238281 8.398438 22.398438 8.238281 22.398438 8L22.398438 7.601562C22.398438 7.359375 22.238281 7.199219 22 7.199219 21.761719 7.199219 21.601562 7.359375 21.601562 7.601562L21.601562 8C21.601562 8.238281 21.761719 8.398438 22 8.398438zM22 10.398438C22.238281 10.398438 22.398438 10.238281 22.398438 10L22.398438 9.601562C22.398438 9.359375 22.238281 9.199219 22 9.199219 21.761719 9.199219 21.601562 9.359375 21.601562 9.601562L21.601562 10C21.601562 10.238281 21.761719 10.398438 22 10.398438zM22 12.398438C22.238281 12.398438 22.398438 12.238281 22.398438 12L22.398438 11.601562C22.398438 11.359375 22.238281 11.199219 22 11.199219 21.761719 11.199219 21.601562 11.359375 21.601562 11.601562L21.601562 12C21.601562 12.238281 21.761719 12.398438 22 12.398438zM22 14.398438C22.238281 14.398438 22.398438 14.238281 22.398438 14L22.398438 13.601562C22.398438 13.359375 22.238281 13.199219 22 13.199219 21.761719 13.199219 21.601562 13.359375 21.601562 13.601562L21.601562 14C21.601562 14.238281 21.761719 14.398438 22 14.398438zM22 16.398438C22.238281 16.398438 22.398438 16.238281 22.398438 16L22.398438 15.601562C22.398438 15.359375 22.238281 15.199219 22 15.199219 21.761719 15.199219 21.601562 15.359375 21.601562 15.601562L21.601562 16C21.601562 16.238281 21.761719 16.398438 22 16.398438zM22 20.800781C22.238281 20.800781 22.398438 20.640625 22.398438 20.398438L22.398438 20C22.398438 19.761719 22.238281 19.601562 22 19.601562 21.761719 19.601562 21.601562 19.761719 21.601562 20L21.601562 20.398438C21.601562 20.640625 21.761719 20.800781 22 20.800781zM2 21.601562L.398438 21.601562C.160156 21.601562 0 21.761719 0 22 0 22.238281.160156 22.398438.398438 22.398438L1.601562 22.398438 1.601562 23.601562C1.601562 23.839844 1.761719 24 2 24 2.238281 24 2.398438 23.839844 2.398438 23.601562L2.398438 22C2.398438 21.761719 2.238281 21.601562 2 21.601562zM2 21.601562"/>
</svg>
