<svg xmlns="http://www.w3.org/2000/svg" width="32" height="32" viewBox="0 0 24 24">
    <path d="M5.602 4.8C5.84 4.8 6 4.64 6 4.399v-2h.398c.243 0 .403-.16.403-.398 0-.238-.16-.398-.403-.398H6V.398C6 .16 5.84 0 5.602 0c-.243 0-.403.16-.403.398v4c0 .243.16.403.403.403zm0 0M17.602 18.8c.238 0 .398-.16.398-.402V12h1.2c.16 0 .32-.078.402-.238.039-.16 0-.32-.122-.442l-6.039-5.398a2.742 2.742 0 0 0-3.64 0L3.76 11.32c-.12.121-.16.32-.12.442.039.117.199.238.359.238h1.2v6.398c0 .243.16.403.402.403zM5.039 11.2l5.281-4.72c.72-.64 1.84-.64 2.559 0l5.281 4.72h-.558c-.243 0-.403.16-.403.402V18H6v-6.398c0-.243-.16-.403-.398-.403zm0 0M23.602 18h-1.204v-.398c0-.243-.16-.403-.398-.403-.238 0-.398.16-.398.403V18h-2c-.243 0-.403.16-.403.398 0 .243.16.403.403.403h4c.238 0 .398-.16.398-.403 0-.238-.16-.398-.398-.398zm0 0M4.398 21.602H4c-.238 0-.398.16-.398.398 0 .238.16.398.398.398h.398c.243 0 .403-.16.403-.398 0-.238-.16-.398-.403-.398zm0 0M6.398 21.602H6c-.238 0-.398.16-.398.398 0 .238.16.398.398.398h.398c.243 0 .403-.16.403-.398 0-.238-.16-.398-.403-.398zm0 0M8.398 21.602H8c-.238 0-.398.16-.398.398 0 .238.16.398.398.398h.398c.243 0 .403-.16.403-.398 0-.238-.16-.398-.403-.398zm0 0M10.398 21.602H10c-.238 0-.398.16-.398.398 0 .238.16.398.398.398h.398c.243 0 .403-.16.403-.398 0-.238-.16-.398-.403-.398zm0 0M12.398 21.602H12c-.238 0-.398.16-.398.398 0 .238.16.398.398.398h.398c.243 0 .403-.16.403-.398 0-.238-.16-.398-.403-.398zm0 0M14.398 21.602H14c-.238 0-.398.16-.398.398 0 .238.16.398.398.398h.398c.243 0 .403-.16.403-.398 0-.238-.16-.398-.403-.398zm0 0M16.398 21.602H16c-.238 0-.398.16-.398.398 0 .238.16.398.398.398h.398c.243 0 .403-.16.403-.398 0-.238-.16-.398-.403-.398zm0 0M18.398 21.602H18c-.238 0-.398.16-.398.398 0 .238.16.398.398.398h.398c.243 0 .403-.16.403-.398 0-.238-.16-.398-.403-.398zm0 0M20.398 21.602H20c-.238 0-.398.16-.398.398 0 .238.16.398.398.398h.398c.243 0 .403-.16.403-.398 0-.238-.16-.398-.403-.398zm0 0M23.602 21.602H22c-.238 0-.398.16-.398.398v1.602c0 .238.16.398.398.398.238 0 .398-.16.398-.398v-1.204h1.204c.238 0 .398-.16.398-.398 0-.238-.16-.398-.398-.398zm0 0M20 2.398h.398c.243 0 .403-.16.403-.398 0-.238-.16-.398-.403-.398H20c-.238 0-.398.16-.398.398 0 .238.16.398.398.398zm0 0M18 2.398h.398c.243 0 .403-.16.403-.398 0-.238-.16-.398-.403-.398H18c-.238 0-.398.16-.398.398 0 .238.16.398.398.398zm0 0M16 2.398h.398c.243 0 .403-.16.403-.398 0-.238-.16-.398-.403-.398H16c-.238 0-.398.16-.398.398 0 .238.16.398.398.398zm0 0M14 2.398h.398c.243 0 .403-.16.403-.398 0-.238-.16-.398-.403-.398H14c-.238 0-.398.16-.398.398 0 .238.16.398.398.398zm0 0M12 2.398h.398c.243 0 .403-.16.403-.398 0-.238-.16-.398-.403-.398H12c-.238 0-.398.16-.398.398 0 .238.16.398.398.398zm0 0M10 2.398h.398c.243 0 .403-.16.403-.398 0-.238-.16-.398-.403-.398H10c-.238 0-.398.16-.398.398 0 .238.16.398.398.398zm0 0M8 2.398h.398c.243 0 .403-.16.403-.398 0-.238-.16-.398-.403-.398H8c-.238 0-.398.16-.398.398 0 .238.16.398.398.398zm0 0M4 2.398c.238 0 .398-.16.398-.398 0-.238-.16-.398-.398-.398h-.398c-.243 0-.403.16-.403.398 0 .238.16.398.403.398zm0 0M22 2.398h1.602c.238 0 .398-.16.398-.398 0-.238-.16-.398-.398-.398h-1.204V.398C22.398.16 22.238 0 22 0c-.238 0-.398.16-.398.398V2c0 .238.16.398.398.398zm0 0M2 0c-.238 0-.398.16-.398.398v1.204H.398C.16 1.602 0 1.762 0 2c0 .238.16.398.398.398H2c.238 0 .398-.16.398-.398V.398C2.398.16 2.238 0 2 0zm0 0M2 3.602c-.238 0-.398.16-.398.398v.398c0 .243.16.403.398.403.238 0 .398-.16.398-.403V4c0-.238-.16-.398-.398-.398zm0 0M2 5.602c-.238 0-.398.16-.398.398v.398c0 .243.16.403.398.403.238 0 .398-.16.398-.403V6c0-.238-.16-.398-.398-.398zm0 0M2 7.602c-.238 0-.398.16-.398.398v.398c0 .243.16.403.398.403.238 0 .398-.16.398-.403V8c0-.238-.16-.398-.398-.398zm0 0M2 9.602c-.238 0-.398.16-.398.398v.398c0 .243.16.403.398.403.238 0 .398-.16.398-.403V10c0-.238-.16-.398-.398-.398zm0 0M2 11.602c-.238 0-.398.16-.398.398v.398c0 .243.16.403.398.403.238 0 .398-.16.398-.403V12c0-.238-.16-.398-.398-.398zm0 0M2 13.602c-.238 0-.398.16-.398.398v.398c0 .243.16.403.398.403.238 0 .398-.16.398-.403V14c0-.238-.16-.398-.398-.398zm0 0M2 15.602c-.238 0-.398.16-.398.398v.398c0 .243.16.403.398.403.238 0 .398-.16.398-.403V16c0-.238-.16-.398-.398-.398zm0 0M2 17.602c-.238 0-.398.16-.398.398v.398c0 .243.16.403.398.403.238 0 .398-.16.398-.403V18c0-.238-.16-.398-.398-.398zm0 0M2 19.602c-.238 0-.398.16-.398.398v.398c0 .243.16.403.398.403.238 0 .398-.16.398-.403V20c0-.238-.16-.398-.398-.398zm0 0M22 4.398c.238 0 .398-.16.398-.398v-.398c0-.243-.16-.403-.398-.403-.238 0-.398.16-.398.403V4c0 .238.16.398.398.398zm0 0M22 6.398c.238 0 .398-.16.398-.398v-.398c0-.243-.16-.403-.398-.403-.238 0-.398.16-.398.403V6c0 .238.16.398.398.398zm0 0M22 8.398c.238 0 .398-.16.398-.398v-.398c0-.243-.16-.403-.398-.403-.238 0-.398.16-.398.403V8c0 .238.16.398.398.398zm0 0M22 10.398c.238 0 .398-.16.398-.398v-.398c0-.243-.16-.403-.398-.403-.238 0-.398.16-.398.403V10c0 .238.16.398.398.398zm0 0M22 12.398c.238 0 .398-.16.398-.398v-.398c0-.243-.16-.403-.398-.403-.238 0-.398.16-.398.403V12c0 .238.16.398.398.398zm0 0M22 14.398c.238 0 .398-.16.398-.398v-.398c0-.243-.16-.403-.398-.403-.238 0-.398.16-.398.403V14c0 .238.16.398.398.398zm0 0M22 16.398c.238 0 .398-.16.398-.398v-.398c0-.243-.16-.403-.398-.403-.238 0-.398.16-.398.403V16c0 .238.16.398.398.398zm0 0M22 20.8c.238 0 .398-.16.398-.402V20c0-.238-.16-.398-.398-.398-.238 0-.398.16-.398.398v.398c0 .243.16.403.398.403zm0 0M2 21.602H.398c-.238 0-.398.16-.398.398 0 .238.16.398.398.398h1.204v1.204c0 .238.16.398.398.398.238 0 .398-.16.398-.398V22c0-.238-.16-.398-.398-.398zm0 0"/>
</svg>
