<svg xmlns="http://www.w3.org/2000/svg" width="32" height="32" viewBox="0 0 24 24">
    <path d="M 23.199219 4.398438 L 22.398438 4.398438 L 22.398438 3.199219 C 22.398438 2.960938 22.238281 2.800781 22 2.800781 L 19.601562 2.800781 C 19.359375 2.800781 19.199219 2.960938 19.199219 3.199219 L 19.199219 4.398438 L 18.398438 4.398438 C 18.160156 4.398438 18 4.558594 18 4.800781 L 18 11.199219 L 17.601562 11.199219 L 17.601562 10 C 17.601562 9.761719 17.441406 9.601562 17.199219 9.601562 L 16.800781 9.601562 L 16.800781 9.199219 C 16.800781 8.960938 16.640625 8.800781 16.398438 8.800781 C 16.160156 8.800781 16 8.960938 16 9.199219 L 16 9.601562 L 15.601562 9.601562 C 15.359375 9.601562 15.199219 9.761719 15.199219 10 L 15.199219 11.199219 L 14 11.199219 L 14 3.199219 C 14 2.960938 13.839844 2.800781 13.601562 2.800781 L 12.398438 2.800781 L 12.398438 0.398438 C 12.398438 0.160156 12.238281 0 12 0 L 7.199219 0 C 6.960938 0 6.800781 0.160156 6.800781 0.398438 L 6.800781 2.800781 L 5.601562 2.800781 C 5.359375 2.800781 5.199219 2.960938 5.199219 3.199219 L 5.199219 13.601562 L 4.398438 13.601562 L 4.398438 12.398438 C 4.398438 12.160156 4.238281 12 4 12 L 1.601562 12 C 1.359375 12 1.199219 12.160156 1.199219 12.398438 L 1.199219 13.601562 L 0.800781 13.601562 C 0.558594 13.601562 0.398438 13.761719 0.398438 14 L 0.398438 23.601562 C 0.398438 23.839844 0.558594 24 0.800781 24 L 23.199219 24 C 23.441406 24 23.601562 23.839844 23.601562 23.601562 L 23.601562 4.800781 C 23.601562 4.558594 23.441406 4.398438 23.199219 4.398438 Z M 20 3.601562 L 21.601562 3.601562 L 21.601562 4.398438 L 20 4.398438 Z M 16 10.398438 L 16.800781 10.398438 L 16.800781 11.199219 L 16 11.199219 Z M 6 3.601562 L 7.199219 3.601562 C 7.441406 3.601562 7.601562 3.441406 7.601562 3.199219 L 7.601562 0.800781 L 11.601562 0.800781 L 11.601562 3.199219 C 11.601562 3.441406 11.761719 3.601562 12 3.601562 L 13.199219 3.601562 L 13.199219 11.199219 L 12.398438 11.199219 L 12.398438 4.800781 C 12.398438 4.558594 12.238281 4.398438 12 4.398438 C 11.761719 4.398438 11.601562 4.558594 11.601562 4.800781 L 11.601562 11.199219 L 10.800781 11.199219 L 10.800781 4.800781 C 10.800781 4.558594 10.640625 4.398438 10.398438 4.398438 C 10.160156 4.398438 10 4.558594 10 4.800781 L 10 11.199219 L 9.199219 11.199219 L 9.199219 4.800781 C 9.199219 4.558594 9.039062 4.398438 8.800781 4.398438 C 8.558594 4.398438 8.398438 4.558594 8.398438 4.800781 L 8.398438 13.601562 L 7.601562 13.601562 L 7.601562 4.800781 C 7.601562 4.558594 7.441406 4.398438 7.199219 4.398438 C 6.960938 4.398438 6.800781 4.558594 6.800781 4.800781 L 6.800781 13.601562 L 6 13.601562 Z M 2 12.800781 L 3.601562 12.800781 L 3.601562 13.601562 L 2 13.601562 Z M 1.199219 14.398438 L 8.398438 14.398438 L 8.398438 15.199219 L 5.601562 15.199219 C 5.359375 15.199219 5.199219 15.359375 5.199219 15.601562 L 5.199219 23.199219 L 1.199219 23.199219 Z M 6 16 L 8.398438 16 L 8.398438 16.800781 L 7.199219 16.800781 C 6.960938 16.800781 6.800781 16.960938 6.800781 17.199219 C 6.800781 17.441406 6.960938 17.601562 7.199219 17.601562 L 8.398438 17.601562 L 8.398438 18.398438 L 7.199219 18.398438 C 6.960938 18.398438 6.800781 18.558594 6.800781 18.800781 C 6.800781 19.039062 6.960938 19.199219 7.199219 19.199219 L 8.398438 19.199219 L 8.398438 20 L 7.199219 20 C 6.960938 20 6.800781 20.160156 6.800781 20.398438 C 6.800781 20.640625 6.960938 20.800781 7.199219 20.800781 L 8.398438 20.800781 L 8.398438 21.601562 L 7.199219 21.601562 C 6.960938 21.601562 6.800781 21.761719 6.800781 22 C 6.800781 22.238281 6.960938 22.398438 7.199219 22.398438 L 8.398438 22.398438 L 8.398438 23.199219 L 6 23.199219 Z M 9.199219 15.601562 L 9.199219 12 L 18 12 L 18 23.199219 L 17.199219 23.199219 L 17.199219 13.199219 C 17.199219 12.960938 17.039062 12.800781 16.800781 12.800781 C 16.558594 12.800781 16.398438 12.960938 16.398438 13.199219 L 16.398438 23.199219 L 15.601562 23.199219 L 15.601562 13.199219 C 15.601562 12.960938 15.441406 12.800781 15.199219 12.800781 C 14.960938 12.800781 14.800781 12.960938 14.800781 13.199219 L 14.800781 23.199219 L 14 23.199219 L 14 13.199219 C 14 12.960938 13.839844 12.800781 13.601562 12.800781 C 13.359375 12.800781 13.199219 12.960938 13.199219 13.199219 L 13.199219 23.199219 L 12.398438 23.199219 L 12.398438 13.199219 C 12.398438 12.960938 12.238281 12.800781 12 12.800781 C 11.761719 12.800781 11.601562 12.960938 11.601562 13.199219 L 11.601562 23.199219 L 10.800781 23.199219 L 10.800781 13.199219 C 10.800781 12.960938 10.640625 12.800781 10.398438 12.800781 C 10.160156 12.800781 10 12.960938 10 13.199219 L 10 23.199219 L 9.199219 23.199219 Z M 22.800781 23.199219 L 18.800781 23.199219 L 18.800781 5.199219 L 22.800781 5.199219 Z M 22.800781 23.199219"/>
    <path d="M20 15.601562C19.761719 15.601562 19.601562 15.761719 19.601562 16L19.601562 16.800781C19.601562 17.039062 19.761719 17.199219 20 17.199219 20.238281 17.199219 20.398438 17.039062 20.398438 16.800781L20.398438 16C20.398438 15.761719 20.238281 15.601562 20 15.601562zM20 18C19.761719 18 19.601562 18.160156 19.601562 18.398438L19.601562 19.199219C19.601562 19.441406 19.761719 19.601562 20 19.601562 20.238281 19.601562 20.398438 19.441406 20.398438 19.199219L20.398438 18.398438C20.398438 18.160156 20.238281 18 20 18zM20 20.398438C19.761719 20.398438 19.601562 20.558594 19.601562 20.800781L19.601562 21.601562C19.601562 21.839844 19.761719 22 20 22 20.238281 22 20.398438 21.839844 20.398438 21.601562L20.398438 20.800781C20.398438 20.558594 20.238281 20.398438 20 20.398438zM20 13.199219C19.761719 13.199219 19.601562 13.359375 19.601562 13.601562L19.601562 14.398438C19.601562 14.640625 19.761719 14.800781 20 14.800781 20.238281 14.800781 20.398438 14.640625 20.398438 14.398438L20.398438 13.601562C20.398438 13.359375 20.238281 13.199219 20 13.199219zM20 6C19.761719 6 19.601562 6.160156 19.601562 6.398438L19.601562 7.199219C19.601562 7.441406 19.761719 7.601562 20 7.601562 20.238281 7.601562 20.398438 7.441406 20.398438 7.199219L20.398438 6.398438C20.398438 6.160156 20.238281 6 20 6zM20 8.398438C19.761719 8.398438 19.601562 8.558594 19.601562 8.800781L19.601562 9.601562C19.601562 9.839844 19.761719 10 20 10 20.238281 10 20.398438 9.839844 20.398438 9.601562L20.398438 8.800781C20.398438 8.558594 20.238281 8.398438 20 8.398438zM20 10.800781C19.761719 10.800781 19.601562 10.960938 19.601562 11.199219L19.601562 12C19.601562 12.238281 19.761719 12.398438 20 12.398438 20.238281 12.398438 20.398438 12.238281 20.398438 12L20.398438 11.199219C20.398438 10.960938 20.238281 10.800781 20 10.800781zM21.601562 15.601562C21.359375 15.601562 21.199219 15.761719 21.199219 16L21.199219 16.800781C21.199219 17.039062 21.359375 17.199219 21.601562 17.199219 21.839844 17.199219 22 17.039062 22 16.800781L22 16C22 15.761719 21.839844 15.601562 21.601562 15.601562zM21.601562 20.398438C21.359375 20.398438 21.199219 20.558594 21.199219 20.800781L21.199219 21.601562C21.199219 21.839844 21.359375 22 21.601562 22 21.839844 22 22 21.839844 22 21.601562L22 20.800781C22 20.558594 21.839844 20.398438 21.601562 20.398438zM21.601562 8.398438C21.359375 8.398438 21.199219 8.558594 21.199219 8.800781L21.199219 9.601562C21.199219 9.839844 21.359375 10 21.601562 10 21.839844 10 22 9.839844 22 9.601562L22 8.800781C22 8.558594 21.839844 8.398438 21.601562 8.398438zM21.601562 6C21.359375 6 21.199219 6.160156 21.199219 6.398438L21.199219 7.199219C21.199219 7.441406 21.359375 7.601562 21.601562 7.601562 21.839844 7.601562 22 7.441406 22 7.199219L22 6.398438C22 6.160156 21.839844 6 21.601562 6zM21.601562 13.199219C21.359375 13.199219 21.199219 13.359375 21.199219 13.601562L21.199219 14.398438C21.199219 14.640625 21.359375 14.800781 21.601562 14.800781 21.839844 14.800781 22 14.640625 22 14.398438L22 13.601562C22 13.359375 21.839844 13.199219 21.601562 13.199219zM21.601562 18C21.359375 18 21.199219 18.160156 21.199219 18.398438L21.199219 19.199219C21.199219 19.441406 21.359375 19.601562 21.601562 19.601562 21.839844 19.601562 22 19.441406 22 19.199219L22 18.398438C22 18.160156 21.839844 18 21.601562 18zM21.601562 10.800781C21.359375 10.800781 21.199219 10.960938 21.199219 11.199219L21.199219 12C21.199219 12.238281 21.359375 12.398438 21.601562 12.398438 21.839844 12.398438 22 12.238281 22 12L22 11.199219C22 10.960938 21.839844 10.800781 21.601562 10.800781zM2.398438 20C2.160156 20 2 20.160156 2 20.398438L2 21.199219C2 21.441406 2.160156 21.601562 2.398438 21.601562 2.640625 21.601562 2.800781 21.441406 2.800781 21.199219L2.800781 20.398438C2.800781 20.160156 2.640625 20 2.398438 20zM2.398438 15.199219C2.160156 15.199219 2 15.359375 2 15.601562L2 16.398438C2 16.640625 2.160156 16.800781 2.398438 16.800781 2.640625 16.800781 2.800781 16.640625 2.800781 16.398438L2.800781 15.601562C2.800781 15.359375 2.640625 15.199219 2.398438 15.199219zM2.398438 17.601562C2.160156 17.601562 2 17.761719 2 18L2 18.800781C2 19.039062 2.160156 19.199219 2.398438 19.199219 2.640625 19.199219 2.800781 19.039062 2.800781 18.800781L2.800781 18C2.800781 17.761719 2.640625 17.601562 2.398438 17.601562zM4 17.601562C3.761719 17.601562 3.601562 17.761719 3.601562 18L3.601562 18.800781C3.601562 19.039062 3.761719 19.199219 4 19.199219 4.238281 19.199219 4.398438 19.039062 4.398438 18.800781L4.398438 18C4.398438 17.761719 4.238281 17.601562 4 17.601562zM4 20C3.761719 20 3.601562 20.160156 3.601562 20.398438L3.601562 21.199219C3.601562 21.441406 3.761719 21.601562 4 21.601562 4.238281 21.601562 4.398438 21.441406 4.398438 21.199219L4.398438 20.398438C4.398438 20.160156 4.238281 20 4 20zM4 15.199219C3.761719 15.199219 3.601562 15.359375 3.601562 15.601562L3.601562 16.398438C3.601562 16.640625 3.761719 16.800781 4 16.800781 4.238281 16.800781 4.398438 16.640625 4.398438 16.398438L4.398438 15.601562C4.398438 15.359375 4.238281 15.199219 4 15.199219zM8.800781 3.601562C9.039062 3.601562 9.199219 3.441406 9.199219 3.199219L9.199219 2C9.199219 1.761719 9.039062 1.601562 8.800781 1.601562 8.558594 1.601562 8.398438 1.761719 8.398438 2L8.398438 3.199219C8.398438 3.441406 8.558594 3.601562 8.800781 3.601562zM10.398438 3.601562C10.640625 3.601562 10.800781 3.441406 10.800781 3.199219L10.800781 2C10.800781 1.761719 10.640625 1.601562 10.398438 1.601562 10.160156 1.601562 10 1.761719 10 2L10 3.199219C10 3.441406 10.160156 3.601562 10.398438 3.601562zM10.398438 3.601562"/>
</svg>
