<svg xmlns="http://www.w3.org/2000/svg" width="32" height="32" viewBox="0 0 24 24">
    <path d="M22.914 8.848L13.72.69a2.482 2.482 0 0 0-3.438 0L7.203 3.488V2.41h.399c.238 0 .398-.16.398-.402V.41c0-.238-.16-.398-.398-.398H2.805c-.243 0-.403.16-.403.398v1.598c0 .242.16.402.403.402h.398v4.598l-2.117 1.84a.962.962 0 0 0-.242 1c.12.316.48.558.84.558h1.52v11.196h-.4c-.241 0-.402.16-.402.398v1.602c0 .238.16.398.403.398h18.39c.242 0 .403-.16.403-.441V21.96c0-.238-.16-.398-.403-.398h-.398V10.367h1.52c.398 0 .718-.203.84-.562a.875.875 0 0 0-.243-.957zm-.52.718c-.039.04-.078.04-.078.04h-1.921c-.239 0-.399.16-.399.398V22c0 .242.16.402.399.402h.402v.797H3.203v-.797h.399c.242 0 .402-.16.402-.402V10.004c0-.238-.16-.399-.402-.399H1.684c-.04 0-.04 0-.079-.039 0-.039 0-.082.04-.12l2.238-1.919a.449.449 0 0 0 .12-.32v-5.2c0-.237-.16-.398-.401-.398h-.399v-.8h4v.8h-.402c-.239 0-.399.16-.399.399v2.398c0 .16.078.32.239.442.16.039.32.039.441-.078l3.758-3.442c.64-.637 1.64-.637 2.32 0l9.195 8.156c.04 0 .082.043.04.082zm0 0"/>
    <path d="M16.398 12.406v-1.199A4.385 4.385 0 0 0 12 6.809a4.385 4.385 0 0 0-4.398 4.398v1.2c-.68 0-1.2.558-1.2 1.198v5.598c0 .68.559 1.2 1.2 1.2h8.796c.68 0 1.2-.52 1.2-1.2v-5.598c0-.68-.559-1.199-1.2-1.199zm-7.996-1.199c0-2 1.598-3.602 3.598-3.602 2 0 3.598 1.602 3.598 3.602v1.2H14.8v-1.2c0-1.562-1.242-2.8-2.801-2.8a2.78 2.78 0 0 0-2.797 2.8v1.2h-.8zm1.598 1.2v-1.2c0-1.121.879-2 2-2s2 .879 2 2v1.2zm6.797 6.796a.4.4 0 0 1-.399.399H7.602a.4.4 0 0 1-.399-.399v-5.598a.4.4 0 0 1 .399-.402h8.796c.239 0 .399.203.399.402zm0 0"/>
    <path d="M13.04 14.402a1.59 1.59 0 0 0-1.321-.359c-.637.082-1.156.64-1.278 1.281-.082.48.04.961.36 1.32v1.36c0 .437.36.797.8.797h.797c.442 0 .801-.36.801-.797v-1.36c.239-.28.399-.64.399-1.042 0-.477-.2-.88-.559-1.2zm-.56 1.801c-.082.04-.12.16-.12.281v1.52h-.801V16.44c0-.078-.04-.199-.118-.277-.199-.16-.28-.441-.242-.719a.767.767 0 0 1 .64-.64H12c.2 0 .36.078.48.199.16.16.278.36.278.601 0 .239-.117.438-.278.598zm0 0"/>
</svg>
