<svg xmlns="http://www.w3.org/2000/svg" width="32" height="32" viewBox="0 0 24 24">
    <path d="M22.914 8.848L13.72.69a2.482 2.482 0 0 0-3.438 0L7.203 3.488V2.41h.399c.238 0 .398-.16.398-.402V.41c0-.238-.16-.398-.398-.398H2.805c-.243 0-.403.16-.403.398v1.598c0 .242.16.402.403.402h.398v4.598l-2.117 1.84a.962.962 0 0 0-.242 1c.12.316.48.558.84.558h1.52v11.196h-.4c-.241 0-.402.16-.402.398v1.602c0 .238.16.398.403.398h18.39c.242 0 .403-.16.403-.441V21.96c0-.238-.16-.398-.403-.398h-.398V10.367h1.52c.398 0 .718-.203.84-.562a.875.875 0 0 0-.243-.957zm-.52.718c-.039.04-.078.04-.078.04h-1.921c-.239 0-.399.16-.399.398V22c0 .242.16.402.399.402h.402v.797H3.203v-.797h.399c.242 0 .402-.16.402-.402V10.004c0-.238-.16-.399-.402-.399H1.684c-.04 0-.04 0-.079-.039 0-.039 0-.082.04-.12l2.238-1.919a.449.449 0 0 0 .12-.32v-5.2c0-.237-.16-.398-.401-.398h-.399v-.8h4v.8h-.402c-.239 0-.399.16-.399.399v2.398c0 .16.078.32.239.442.16.039.32.039.441-.078l3.758-3.442c.64-.637 1.64-.637 2.32 0l9.195 8.156c.04 0 .082.043.04.082zm0 0"/>
    <path d="M14.277 9.645c-.957 0-1.879.52-2.437 1.402-.559-.883-1.438-1.402-2.399-1.402-.96 0-1.8.402-2.64 1.28-.957 1-1.36 3.317.36 5.04.8.797 4.398 4.277 4.44 4.316l.278.242.242-.242c.04-.039 3.676-3.558 4.438-4.316 1.718-1.68 1.32-4.04.359-5.04-.8-.84-1.68-1.28-2.64-1.28zm1.762 5.757c-.64.641-3.281 3.2-4.16 4.04-.84-.84-3.477-3.399-4.117-4.04-1.36-1.398-1.04-3.199-.32-3.957.64-.68 1.32-1.039 2.038-1.039 1.04 0 1.72.84 2.04 1.64l.359.958.36-.957c.32-.8 1.042-1.64 2.081-1.64.72 0 1.399.32 2.04 1.038.757.801 1.038 2.598-.32 3.957zm0 0"/>
</svg>
