<svg xmlns="http://www.w3.org/2000/svg" width="32" height="32" viewBox="0 0 24 24">
    <path d="M 23.601562 17.800781 L 22.800781 17.800781 L 22.800781 4.28125 C 22.800781 3.558594 22.28125 3 21.601562 3 L 2.398438 3 C 1.761719 3 1.199219 3.558594 1.199219 4.28125 L 1.199219 17.800781 L 0.398438 17.800781 C 0.160156 17.800781 0 17.960938 0 18.199219 L 0 19.640625 C 0 20.398438 0.601562 21 1.359375 21 L 22.640625 21 C 23.398438 21 24 20.398438 24 19.640625 L 24 18.199219 C 24 17.960938 23.839844 17.800781 23.601562 17.800781 Z M 2 4.28125 C 2 4 2.199219 3.800781 2.398438 3.800781 L 21.601562 3.800781 C 21.800781 3.800781 22 4 22 4.28125 L 22 17.800781 L 14.800781 17.800781 C 14.679688 17.800781 14.601562 17.839844 14.519531 17.921875 L 13.839844 18.601562 L 10.160156 18.601562 L 9.480469 17.921875 C 9.398438 17.839844 9.320312 17.800781 9.199219 17.800781 L 2 17.800781 Z M 23.199219 19.640625 C 23.199219 19.960938 22.960938 20.199219 22.640625 20.199219 L 1.359375 20.199219 C 1.039062 20.199219 0.800781 19.960938 0.800781 19.640625 L 0.800781 18.601562 L 9.039062 18.601562 L 9.71875 19.28125 C 9.800781 19.359375 9.878906 19.398438 10 19.398438 L 14 19.398438 C 14.121094 19.398438 14.199219 19.359375 14.28125 19.28125 L 14.960938 18.601562 L 23.199219 18.601562 Z M 23.199219 19.640625"/>
    <path d="M14 7L17.199219 7C17.441406 7 17.601562 6.839844 17.601562 6.601562 17.601562 6.359375 17.441406 6.199219 17.199219 6.199219L14 6.199219C13.761719 6.199219 13.601562 6.359375 13.601562 6.601562 13.601562 6.839844 13.761719 7 14 7zM14 8.601562L16 8.601562C16.238281 8.601562 16.398438 8.441406 16.398438 8.199219 16.398438 7.960938 16.238281 7.800781 16 7.800781L14 7.800781C13.761719 7.800781 13.601562 7.960938 13.601562 8.199219 13.601562 8.441406 13.761719 8.601562 14 8.601562zM20.800781 7.800781L17.601562 7.800781C17.359375 7.800781 17.199219 7.960938 17.199219 8.199219 17.199219 8.441406 17.359375 8.601562 17.601562 8.601562L20.800781 8.601562C21.039062 8.601562 21.199219 8.441406 21.199219 8.199219 21.199219 7.960938 21.039062 7.800781 20.800781 7.800781zM18.800781 7L20.800781 7C21.039062 7 21.199219 6.839844 21.199219 6.601562 21.199219 6.359375 21.039062 6.199219 20.800781 6.199219L18.800781 6.199219C18.558594 6.199219 18.398438 6.359375 18.398438 6.601562 18.398438 6.839844 18.558594 7 18.800781 7zM14 10.199219L17.199219 10.199219C17.441406 10.199219 17.601562 10.039062 17.601562 9.800781 17.601562 9.558594 17.441406 9.398438 17.199219 9.398438L14 9.398438C13.761719 9.398438 13.601562 9.558594 13.601562 9.800781 13.601562 10.039062 13.761719 10.199219 14 10.199219zM14 11.800781L16 11.800781C16.238281 11.800781 16.398438 11.640625 16.398438 11.398438 16.398438 11.160156 16.238281 11 16 11L14 11C13.761719 11 13.601562 11.160156 13.601562 11.398438 13.601562 11.640625 13.761719 11.800781 14 11.800781zM20.800781 11L17.601562 11C17.359375 11 17.199219 11.160156 17.199219 11.398438 17.199219 11.640625 17.359375 11.800781 17.601562 11.800781L20.800781 11.800781C21.039062 11.800781 21.199219 11.640625 21.199219 11.398438 21.199219 11.160156 21.039062 11 20.800781 11zM20.800781 9.398438L18.800781 9.398438C18.558594 9.398438 18.398438 9.558594 18.398438 9.800781 18.398438 10.039062 18.558594 10.199219 18.800781 10.199219L20.800781 10.199219C21.039062 10.199219 21.199219 10.039062 21.199219 9.800781 21.199219 9.558594 21.039062 9.398438 20.800781 9.398438zM14 13.398438L17.199219 13.398438C17.441406 13.398438 17.601562 13.238281 17.601562 13 17.601562 12.761719 17.441406 12.601562 17.199219 12.601562L14 12.601562C13.761719 12.601562 13.601562 12.761719 13.601562 13 13.601562 13.238281 13.761719 13.398438 14 13.398438zM14 15L16 15C16.238281 15 16.398438 14.839844 16.398438 14.601562 16.398438 14.359375 16.238281 14.199219 16 14.199219L14 14.199219C13.761719 14.199219 13.601562 14.359375 13.601562 14.601562 13.601562 14.839844 13.761719 15 14 15zM20.800781 14.199219L17.601562 14.199219C17.359375 14.199219 17.199219 14.359375 17.199219 14.601562 17.199219 14.839844 17.359375 15 17.601562 15L20.800781 15C21.039062 15 21.199219 14.839844 21.199219 14.601562 21.199219 14.359375 21.039062 14.199219 20.800781 14.199219zM20.800781 12.601562L18.800781 12.601562C18.558594 12.601562 18.398438 12.761719 18.398438 13 18.398438 13.238281 18.558594 13.398438 18.800781 13.398438L20.800781 13.398438C21.039062 13.398438 21.199219 13.238281 21.199219 13 21.199219 12.761719 21.039062 12.601562 20.800781 12.601562zM10.398438 14.601562L10.398438 12.359375 10.519531 12.480469C10.601562 12.558594 10.679688 12.601562 10.800781 12.601562 10.921875 12.601562 11 12.558594 11.078125 12.480469L12.28125 11.28125C12.359375 11.199219 12.398438 11.121094 12.398438 11 12.398438 10.878906 12.359375 10.800781 12.28125 10.71875L7.878906 6.320312C7.800781 6.238281 7.71875 6.199219 7.601562 6.199219 7.480469 6.199219 7.398438 6.238281 7.320312 6.320312L2.921875 10.71875C2.761719 10.878906 2.761719 11.121094 2.921875 11.28125L4.121094 12.480469C4.199219 12.558594 4.28125 12.601562 4.398438 12.601562 4.519531 12.601562 4.601562 12.558594 4.679688 12.480469L4.800781 12.359375 4.800781 14.601562C4.800781 14.839844 4.960938 15 5.199219 15L10 15C10.238281 15 10.398438 14.839844 10.398438 14.601562zM4.398438 11.640625L3.761719 11 7.601562 7.160156 11.441406 11 10.800781 11.640625 7.878906 8.71875C7.839844 8.640625 7.761719 8.601562 7.679688 8.601562 7.679688 8.601562 7.640625 8.601562 7.601562 8.601562 7.480469 8.601562 7.398438 8.640625 7.320312 8.71875L4.921875 11.121094zM9.601562 14.199219L5.601562 14.199219 5.601562 11.558594 7.601562 9.558594 9.601562 11.558594zM9.601562 14.199219"/>
</svg>
