<svg xmlns="http://www.w3.org/2000/svg" width="32" height="32" viewBox="0 0 24 24">
    <path d="M23.762 14.723c-.719-.957-1.438-.957-3.196-.04l-.441.27V7.965h1.598c.16 0 .32-.078.359-.238.043-.16 0-.32-.117-.442L14.765.81c-1.238-1.079-3.038-1.079-4.238 0l-7.156 6.52a.445.445 0 0 0-.121.437.414.414 0 0 0 .363.242H5.25v5.32c-.941.235-1.852.742-2.438 1.113v-.836h-2.8V24h2.8v-1.2h5.196c.8 0 1.64-.081 2.441-.16l5.2-.8c.199 0 .398-.04.558-.078.48-.082.918-.32 1.32-.68l6.035-4.758c.481-.402.563-1.12.2-1.601zM4.652 7.207l6.395-5.797c.922-.8 2.281-.8 3.16 0l6.398 5.797h-.96c-.239 0-.399.16-.399.398v7.891l-2.121 1.309c-.469.273-1.516.355-2.496.36.172-.356.086-.782-.262-1.321a3.502 3.502 0 0 0-2.879-1.48H9.93c-.84 0-1.64-.239-2.282-.72-.437-.32-.957-.48-1.597-.44V7.604c0-.238-.16-.398-.399-.398zm-2.64 15.992h-1.2v-8.797h1.2zm21.07-7.394l-6.074 4.715-.043.043c-.277.238-.559.398-.88.437h-.038c-.16.043-.281.043-.442.043l-5.277.797c-.758.12-1.558.16-2.316.16h-5.2v-6.598c.61-.43 1.731-1.101 2.754-1.312.051.012.11.012.164-.004.364-.05.684-.055.961.012.16.05.305.12.438.226a4.647 4.647 0 0 0 2.762.88h1.558c.918 0 1.719.398 2.278 1.198.109.16.16.325.171.434 0 .02-.003.035-.011.047-.078.16-.48.32-1.16.32a.405.405 0 0 0-.239.078H8.891c-1.243 0-2 .602-2 1.602 0 .238.16.398.398.398.242 0 .402-.16.402-.398 0-.2 0-.801 1.2-.801h4.117c1.879.04 3.637 0 4.558-.48l3.438-2.118c1.68-.84 1.84-.64 2.16-.16.078.121.078.36-.082.48zm0 0"/>
    <path d="M10.41 8.406c.88 0 1.598-.719 1.598-1.597 0-.883-.719-1.602-1.598-1.602-.883 0-1.601.719-1.601 1.602 0 .878.718 1.597 1.601 1.597zm0-2.398c.438 0 .797.36.797.8a.8.8 0 0 1-.797.797c-.441 0-.8-.359-.8-.796 0-.442.359-.801.8-.801zm0 0M15.207 10.004c-.879 0-1.598.723-1.598 1.601 0 .88.72 1.598 1.598 1.598.879 0 1.598-.719 1.598-1.598 0-.878-.72-1.601-1.598-1.601zm0 2.402a.802.802 0 0 1 0-1.601.802.802 0 0 1 0 1.601zm0 0M9.21 13.203c.118 0 .2-.039.278-.117l7.2-7.2a.385.385 0 0 0 0-.558.39.39 0 0 0-.563 0L8.93 12.523a.39.39 0 0 0 0 .563c.078.078.16.117.28.117zm0 0"/>
</svg>
