<svg xmlns="http://www.w3.org/2000/svg" width="32" height="32" viewBox="0 0 24 24">
    <path d="M22.398 1.602h-8.796V.398c0-.238-.16-.398-.403-.398h-2.398c-.242 0-.403.16-.403.398v1.204H1.602C.719 1.602 0 2.32 0 3.199V14c0 .879.719 1.602 1.602 1.602h8.796V18.8c0 .96-.238 1.96-.68 2.84l-.007.015a.8.8 0 0 0-.512.742v1.204c0 .238.16.398.403.398h4.796c.243 0 .403-.16.403-.398v-1.204a.8.8 0 0 0-.512-.742l-.008-.015a6.299 6.299 0 0 1-.68-2.84v-3.2h8.797C23.281 15.602 24 14.88 24 14V3.2c0-.88-.719-1.598-1.602-1.598zM11.2.8h1.602v.8h-1.602zm2.16 20.8h-2.718c.32-.761.52-1.562.558-2.402h1.602c.039.84.238 1.64.558 2.403zM14 23.2h-4v-.8h4zm-1.2-4.8h-1.6v-2.797h1.6zM23.2 14c0 .441-.36.8-.802.8H1.602C1.16 14.8.8 14.442.8 14V3.2c0-.438.36-.802.8-.802h20.797c.442 0 .801.364.801.801zm0 0"/>
    <path d="M11.16 5.762a1.363 1.363 0 0 0-.84-.403l-1.593-.148a2.409 2.409 0 0 0-2.368-2.012c-1.015 0-1.933.66-2.273 1.621A2.412 2.412 0 0 0 2 7.2c0 .706.309 1.343.8 1.784v3.977c0 .117.04.238.122.32l1.2 1.04c.077.038.198.077.276.077.082 0 .204-.039.243-.078l1.199-1.039a.455.455 0 0 0 .12-.32c0-.121-.038-.242-.16-.32l-.402-.282.48-.48a.385.385 0 0 0 0-.559l-.519-.52.52-.519A.361.361 0 0 0 6 10V8.984c.3-.27.531-.613.668-1 .223-.023.441-.074.644-.16l.047.496c.04.32.16.602.403.84l2.918 2.918c.082.082.16.121.28.121.118 0 .2-.039.278-.12l2.84-2.84a.385.385 0 0 0 0-.56zm-6.824-.16c.039.003.082.003.121 0 .836.027 1.516.71 1.543 1.546a1.654 1.654 0 0 1-.879-.59.432.432 0 0 0-.562-.078.427.427 0 0 0-.079.56c.325.444.805.757 1.344.89a1.61 1.61 0 0 1-1.426.87 1.605 1.605 0 0 1-1.597-1.6c0-.856.683-1.563 1.535-1.598zm.902 4.238l-.68.68a.385.385 0 0 0 0 .558l.52.524-.52.52a.456.456 0 0 0-.117.32c0 .117.079.199.16.277l.36.242-.563.48-.796-.68h.039v-3.28c.52.199 1.078.199 1.597 0zm1.559-2.692a2.41 2.41 0 0 0-1.852-2.285C5.215 4.336 5.75 4 6.36 4c.778 0 1.43.563 1.57 1.3a1.38 1.38 0 0 0-.37.259c-.239.28-.399.64-.36 1.043l.035.359a1.61 1.61 0 0 1-.437.187zm4.125 4.09l-2.64-2.636c-.083-.082-.16-.204-.16-.32L7.96 6.558c0-.16.039-.278.16-.399a.478.478 0 0 1 .36-.16h.039l1.718.16c.121 0 .242.078.32.16L13.2 8.96zm0 0M22 6h-6.398c-.243 0-.403.16-.403.398 0 .243.16.403.403.403H22c.238 0 .398-.16.398-.403 0-.238-.16-.398-.398-.398zm0 0M22 8.398h-3.2c-.241 0-.402.16-.402.403 0 .238.16.398.403.398H22c.238 0 .398-.16.398-.398 0-.242-.16-.403-.398-.403zm0 0M15.602 9.2h1.597c.242 0 .403-.16.403-.4 0-.241-.16-.402-.403-.402h-1.597c-.243 0-.403.16-.403.403 0 .238.16.398.403.398zm0 0M22 10.8h-2c-.238 0-.398.16-.398.4 0 .241.16.402.398.402h2c.238 0 .398-.16.398-.403 0-.238-.16-.398-.398-.398zm0 0M18.398 10.8h-2.796c-.243 0-.403.16-.403.4 0 .241.16.402.403.402h2.796c.243 0 .403-.16.403-.403 0-.238-.16-.398-.403-.398zm0 0"/>
    <path d="M10.121 7.32l-.8.801a.385.385 0 0 0 0 .559c.077.082.16.12.28.12.118 0 .2-.038.278-.12l.8-.801a.385.385 0 0 0 0-.559.385.385 0 0 0-.558 0zm0 0M10.52 9.879c.082.082.16.121.28.121.122 0 .2-.04.278-.121l.8-.8a.385.385 0 0 0 0-.56.385.385 0 0 0-.558 0l-.8.801a.385.385 0 0 0 0 .559zm0 0"/>
</svg>
