<svg xmlns="http://www.w3.org/2000/svg" width="32" height="32" viewBox="0 0 24 24">
    <path d="M19.2 10.8c-.24 0-.4.16-.4.4v.402c0 .238.16.398.4.398.241 0 .402-.16.402-.398v-.403c0-.238-.16-.398-.403-.398zm0 0M19.2 14.16c-.24 0-.4.16-.4.399v.601c0 .238.16.399.4.399a.4.4 0 0 0 .402-.399v-.601c0-.239-.16-.399-.403-.399zm0 0M19.2 12.398c-.24 0-.4.16-.4.403v.597c0 .243.16.403.4.403.241 0 .402-.2.402-.403v-.597c0-.242-.16-.403-.403-.403zm0 0M19.2 16c-.24 0-.4.16-.4.398V17c0 .238.16.398.4.398a.4.4 0 0 0 .402-.398v-.602c0-.238-.16-.398-.403-.398zm0 0M19.2 19.52c-.24 0-.4.16-.4.402v.598c0 .242.16.402.4.402a.404.404 0 0 0 .402-.402v-.598c0-.242-.16-.402-.403-.402zm0 0M19.2 17.762c-.24 0-.4.16-.4.398v.602c0 .238.16.398.4.398a.4.4 0 0 0 .402-.398v-.602c0-.238-.16-.398-.403-.398zm0 0M19.2 21.2c-.24 0-.4.16-.4.402V22c0 .238.16.398.4.398.241 0 .402-.16.402-.398v-.398c0-.243-.16-.403-.403-.403zm0 0M21.602 10.8c-.243 0-.403.16-.403.4v.402c0 .238.16.398.403.398.238 0 .398-.16.398-.398v-.403c0-.238-.16-.398-.398-.398zm0 0M21.602 12.398c-.243 0-.403.16-.403.403v.597c0 .243.16.403.403.403a.4.4 0 0 0 .398-.403v-.597c0-.242-.16-.403-.398-.403zm0 0M21.602 14.16c-.243 0-.403.16-.403.399v.601c0 .238.16.399.403.399A.4.4 0 0 0 22 15.16v-.601c0-.239-.16-.399-.398-.399zm0 0M21.602 19.52c-.243 0-.403.16-.403.402v.598c0 .242.16.402.403.402A.403.403 0 0 0 22 20.52v-.598c0-.242-.16-.402-.398-.402zm0 0M21.602 17.762c-.243 0-.403.16-.403.398v.602c0 .238.16.398.403.398a.4.4 0 0 0 .398-.398v-.602c0-.238-.16-.398-.398-.398zm0 0M21.602 16c-.243 0-.403.16-.403.398V17c0 .238.16.398.403.398A.4.4 0 0 0 22 17v-.602c0-.238-.16-.398-.398-.398zm0 0M21.602 21.2c-.243 0-.403.16-.403.402V22c0 .238.16.398.403.398.238 0 .398-.16.398-.398v-.398c0-.243-.16-.403-.398-.403zm0 0M8.398 4.8C8.16 4.8 8 4.96 8 5.2V6c0 .238.16.398.398.398.243 0 .403-.16.403-.398v-.8c0-.24-.16-.4-.403-.4zm0 0M8.398 14.398c-.238 0-.398.16-.398.403v.8c0 .239.16.399.398.399.243 0 .403-.16.403-.398V14.8c0-.242-.16-.403-.403-.403zm0 0M8.398 9.602C8.16 9.602 8 9.762 8 10v.8c0 .24.16.4.398.4.243 0 .403-.16.403-.4V10c0-.238-.16-.398-.403-.398zm0 0M8.398 7.2C8.16 7.2 8 7.36 8 7.601v.796c0 .243.16.403.398.403.243 0 .403-.16.403-.403v-.796c0-.243-.16-.403-.403-.403zm0 0M8.398 19.2c-.238 0-.398.16-.398.402v.796c0 .243.16.403.398.403.243 0 .403-.16.403-.403v-.796c0-.243-.16-.403-.403-.403zm0 0M8.398 21.602c-.238 0-.398.16-.398.398v.398c0 .243.16.403.398.403.243 0 .403-.16.403-.403V22c0-.238-.16-.398-.403-.398zm0 0M8.398 16.8c-.238 0-.398.16-.398.4v.8c0 .238.16.398.398.398.243 0 .403-.16.403-.398v-.8c0-.24-.16-.4-.403-.4zm0 0M8.398 12c-.238 0-.398.16-.398.398v.801c0 .242.16.403.398.403.243 0 .403-.16.403-.403v-.8c0-.239-.16-.399-.403-.399zm0 0M10.8 4.8c-.241 0-.402.16-.402.4V6c0 .238.16.398.403.398.238 0 .398-.16.398-.398v-.8c0-.24-.16-.4-.398-.4zm0 0M10.8 14.398c-.241 0-.402.16-.402.403v.8c0 .239.16.399.403.399.238 0 .398-.16.398-.398V14.8c0-.242-.16-.403-.398-.403zm0 0M10.8 7.2c-.241 0-.402.16-.402.402v.796c0 .243.16.403.403.403.238 0 .398-.16.398-.403v-.796c0-.243-.16-.403-.398-.403zm0 0M10.8 9.602c-.241 0-.402.16-.402.398v.8c0 .24.16.4.403.4.238 0 .398-.16.398-.4V10c0-.238-.16-.398-.398-.398zm0 0M10.8 19.2c-.241 0-.402.16-.402.402v.796c0 .243.16.403.403.403.238 0 .398-.16.398-.403v-.796c0-.243-.16-.403-.398-.403zm0 0M10.8 16.8c-.241 0-.402.16-.402.4v.8c0 .238.16.398.403.398.238 0 .398-.16.398-.398v-.8c0-.24-.16-.4-.398-.4zm0 0M10.8 21.602c-.241 0-.402.16-.402.398v.398c0 .243.16.403.403.403.238 0 .398-.16.398-.403V22c0-.238-.16-.398-.398-.398zm0 0M10.8 12c-.241 0-.402.16-.402.398v.801c0 .242.16.403.403.403.238 0 .398-.16.398-.403v-.8c0-.239-.16-.399-.398-.399zm0 0M13.2 12c-.24 0-.4.16-.4.398v.801c0 .242.16.403.4.403.241 0 .402-.16.402-.403v-.8c0-.239-.16-.399-.403-.399zm0 0M13.2 9.602c-.24 0-.4.16-.4.398v.8c0 .24.16.4.4.4.241 0 .402-.16.402-.4V10c0-.238-.16-.398-.403-.398zm0 0M13.2 4.8c-.24 0-.4.16-.4.4V6c0 .238.16.398.4.398.241 0 .402-.16.402-.398v-.8c0-.24-.16-.4-.403-.4zm0 0M13.2 7.2c-.24 0-.4.16-.4.402v.796c0 .243.16.403.4.403.241 0 .402-.16.402-.403v-.796c0-.243-.16-.403-.403-.403zm0 0M13.2 19.2c-.24 0-.4.16-.4.402v.796c0 .243.16.403.4.403.241 0 .402-.16.402-.403v-.796c0-.243-.16-.403-.403-.403zm0 0M13.2 14.398c-.24 0-.4.16-.4.403v.8c0 .239.16.399.4.399.241 0 .402-.16.402-.398V14.8c0-.242-.16-.403-.403-.403zm0 0M13.2 21.602c-.24 0-.4.16-.4.398v.398c0 .243.16.403.4.403.241 0 .402-.16.402-.403V22c0-.238-.16-.398-.403-.398zm0 0M13.2 16.8c-.24 0-.4.16-.4.4v.8c0 .238.16.398.4.398.241 0 .402-.16.402-.398v-.8c0-.24-.16-.4-.403-.4zm0 0M15.602 14.398c-.243 0-.403.16-.403.403v.8c0 .239.16.399.403.399.238 0 .398-.16.398-.398V14.8c0-.242-.16-.403-.398-.403zm0 0M15.602 4.8c-.243 0-.403.16-.403.4V6c0 .238.16.398.403.398.238 0 .398-.16.398-.398v-.8c0-.24-.16-.4-.398-.4zm0 0M15.602 9.602c-.243 0-.403.16-.403.398v.8c0 .24.16.4.403.4.238 0 .398-.16.398-.4V10c0-.238-.16-.398-.398-.398zm0 0M15.602 7.2c-.243 0-.403.16-.403.402v.796c0 .243.16.403.403.403.238 0 .398-.16.398-.403v-.796c0-.243-.16-.403-.398-.403zm0 0M15.602 21.602c-.243 0-.403.16-.403.398v.398c0 .243.16.403.403.403.238 0 .398-.16.398-.403V22c0-.238-.16-.398-.398-.398zm0 0M15.602 16.8c-.243 0-.403.16-.403.4v.8c0 .238.16.398.403.398.238 0 .398-.16.398-.398v-.8c0-.24-.16-.4-.398-.4zm0 0M15.602 19.2c-.243 0-.403.16-.403.402v.796c0 .243.16.403.403.403.238 0 .398-.16.398-.403v-.796c0-.243-.16-.403-.398-.403zm0 0M15.602 12c-.243 0-.403.16-.403.398v.801c0 .242.16.403.403.403.238 0 .398-.16.398-.403v-.8c0-.239-.16-.399-.398-.399zm0 0"/>
    <path d="M23.602 9.602H22.8V8.398c0-.238-.16-.398-.403-.398h-2V6.8c0-.241-.16-.402-.398-.402-.238 0-.398.16-.398.403V8H18V3.602c0-.243-.16-.403-.398-.403H16.8V2c0-.238-.16-.398-.403-.398h-4V.398C12.398.16 12.238 0 12 0c-.238 0-.398.16-.398.398v1.204h-4c-.243 0-.403.16-.403.398v1.2h-.8C6.16 3.2 6 3.36 6 3.601v.796H4.398V3.2c0-.238-.16-.398-.398-.398-.238 0-.398.16-.398.398v1.2h-2c-.243 0-.403.16-.403.402V6H.4C.16 6 0 6.16 0 6.398v17.204c0 .117.04.199.121.277.078.082.16.121.277.121h23.204c.238 0 .398-.16.398-.398V10c0-.238-.16-.398-.398-.398zM22 8.8v.8h-4v-.8zM8 2.398h8V3.2H8zM2 5.2h4V6H2zM.8 6.801H6v16.398H.8zm6-.403V4h10.4v19.2H6.8zM23.2 23.2H18V10.4h5.2zm0 0"/>
    <path d="M2.398 12.398c-.238 0-.398.16-.398.403v.8c0 .239.16.399.398.399.243 0 .403-.16.403-.398V12.8c0-.242-.16-.403-.403-.403zm0 0M2.398 19.602c-.238 0-.398.16-.398.398v.8c0 .24.16.4.398.4.243 0 .403-.16.403-.4V20c0-.238-.16-.398-.403-.398zm0 0M2.398 14.8c-.238 0-.398.16-.398.4v.8c0 .238.16.398.398.398.243 0 .403-.16.403-.398v-.8c0-.24-.16-.4-.403-.4zm0 0M2.398 10c-.238 0-.398.16-.398.398v.801c0 .242.16.403.398.403.243 0 .403-.16.403-.403v-.8c0-.239-.16-.399-.403-.399zm0 0M2.398 17.2c-.238 0-.398.16-.398.402v.796c0 .243.16.403.398.403.243 0 .403-.16.403-.403v-.796c0-.243-.16-.403-.403-.403zm0 0M2.398 7.602C2.16 7.602 2 7.762 2 8v.8c0 .24.16.4.398.4.243 0 .403-.16.403-.4V8c0-.238-.16-.398-.403-.398zm0 0M4.8 10c-.241 0-.402.16-.402.398v.801c0 .242.16.403.403.403.238 0 .398-.16.398-.403v-.8c0-.239-.16-.399-.398-.399zm0 0M4.8 7.602c-.241 0-.402.16-.402.398v.8c0 .24.16.4.403.4.238 0 .398-.16.398-.4V8c0-.238-.16-.398-.398-.398zm0 0M4.8 12.398c-.241 0-.402.16-.402.403v.8c0 .239.16.399.403.399.238 0 .398-.16.398-.398V12.8c0-.242-.16-.403-.398-.403zm0 0M4.8 17.2c-.241 0-.402.16-.402.402v.796c0 .243.16.403.403.403.238 0 .398-.16.398-.403v-.796c0-.243-.16-.403-.398-.403zm0 0M4.8 14.8c-.241 0-.402.16-.402.4v.8c0 .238.16.398.403.398.238 0 .398-.16.398-.398v-.8c0-.24-.16-.4-.398-.4zm0 0M4.8 19.602c-.241 0-.402.16-.402.398v.8c0 .24.16.4.403.4.238 0 .398-.16.398-.4V20c0-.238-.16-.398-.398-.398zm0 0"/>
</svg>
