<svg xmlns="http://www.w3.org/2000/svg" width="32" height="32" viewBox="0 0 24 24">
    <path d="M10.398 8.8c-.238 0-.398.16-.398.4V22c0 .238.16.398.398.398.243 0 .403-.16.403-.398V9.2c0-.24-.16-.4-.403-.4zm0 0M8.8 8.8c-.241 0-.402.16-.402.4V22c0 .238.16.398.403.398.238 0 .398-.16.398-.398V9.2c0-.24-.16-.4-.398-.4zm0 0M15.2 8.8c-.24 0-.4.16-.4.4V22c0 .238.16.398.4.398.241 0 .402-.16.402-.398V9.2c0-.24-.16-.4-.403-.4zm0 0M12 8.8c-.238 0-.398.16-.398.4V22c0 .238.16.398.398.398.238 0 .398-.16.398-.398V9.2c0-.24-.16-.4-.398-.4zm0 0M13.602 8.8c-.243 0-.403.16-.403.4V22c0 .238.16.398.403.398.238 0 .398-.16.398-.398V9.2c0-.24-.16-.4-.398-.4zm0 0M12 5.602c-.238 0-.398.16-.398.398v1.602c0 .238.16.398.398.398a.4.4 0 0 0 .398-.398V6c0-.238-.16-.398-.398-.398zm0 0M12 3.2c-.238 0-.398.16-.398.402v.796c0 .243.16.403.398.403.238 0 .398-.16.398-.403v-.796c0-.243-.16-.403-.398-.403zm0 0M10.398 5.602c-.238 0-.398.16-.398.398v1.602c0 .238.16.398.398.398a.4.4 0 0 0 .403-.398V6c0-.238-.16-.398-.403-.398zm0 0M13.602 5.602c-.243 0-.403.16-.403.398v1.602c0 .238.16.398.403.398A.4.4 0 0 0 14 7.602V6c0-.238-.16-.398-.398-.398zm0 0"/>
    <path d="M23.2 10.398H22V9.2c0-.238-.16-.398-.398-.398h-1.204V8c0-.238-.16-.398-.398-.398-.238 0-.398.16-.398.398v.8h-1.204c-.238 0-.398.16-.398.4v1.198h-.8V7.602c0-.243-.16-.403-.4-.403h-1.198V4.4c0-.239-.16-.399-.403-.399H14V2c0-.238-.16-.398-.398-.398h-1.204V.398C12.398.16 12.238 0 12 0c-.238 0-.398.16-.398.398v1.204h-1.204c-.238 0-.398.16-.398.398v2H8.8c-.241 0-.402.16-.402.398V7.2H7.2c-.238 0-.398.16-.398.403V8.8H6V7.6c0-.242-.16-.402-.398-.402H4.398v-.8C4.398 6.16 4.238 6 4 6c-.238 0-.398.16-.398.398V7.2H2.398C2.16 7.2 2 7.36 2 7.602V8.8H.8c-.241 0-.402.16-.402.398v14.403c0 .238.16.398.403.398h22.398c.242 0 .403-.16.403-.398V10.8c0-.242-.16-.403-.403-.403zm-4.4-.796h2.4v.796h-2.4zM2.8 8h2.4v.8H2.8zM1.2 9.602h5.6v13.597H1.2zm6.402-.403V8H8.8c.238 0 .398-.16.398-.398V4.8h1.2c.242 0 .402-.16.402-.403v-2h2.398v2c0 .243.16.403.403.403H14.8v2.8c0 .239.16.399.398.399h1.2v15.2H7.601zm15.199 14h-5.602v-12h5.602zm0 0"/>
    <path d="M5.602 10.398H2.398c-.238 0-.398.16-.398.403 0 .238.16.398.398.398h3.204c.238 0 .398-.16.398-.398 0-.242-.16-.403-.398-.403zm0 0M5.602 12H2.398c-.238 0-.398.16-.398.398 0 .243.16.403.398.403h3.204c.238 0 .398-.16.398-.403C6 12.16 5.84 12 5.602 12zm0 0M5.602 13.602H2.398c-.238 0-.398.16-.398.398 0 .238.16.398.398.398h3.204c.238 0 .398-.16.398-.398 0-.238-.16-.398-.398-.398zm0 0M5.602 15.2H2.398c-.238 0-.398.16-.398.402 0 .238.16.398.398.398h3.204c.238 0 .398-.16.398-.398 0-.243-.16-.403-.398-.403zm0 0M5.602 16.8H2.398c-.238 0-.398.16-.398.4 0 .241.16.402.398.402h3.204c.238 0 .398-.16.398-.403 0-.238-.16-.398-.398-.398zm0 0M5.602 18.398H2.398c-.238 0-.398.16-.398.403 0 .238.16.398.398.398h3.204c.238 0 .398-.16.398-.398 0-.242-.16-.403-.398-.403zm0 0M5.602 20H2.398c-.238 0-.398.16-.398.398 0 .243.16.403.398.403h3.204c.238 0 .398-.16.398-.403C6 20.16 5.84 20 5.602 20zm0 0M5.602 21.602H2.398c-.238 0-.398.16-.398.398 0 .238.16.398.398.398h3.204c.238 0 .398-.16.398-.398 0-.238-.16-.398-.398-.398zm0 0M18.398 12c-.238 0-.398.16-.398.398 0 .243.16.403.398.403h3.204c.238 0 .398-.16.398-.403 0-.238-.16-.398-.398-.398zm0 0M21.602 13.602h-3.204c-.238 0-.398.16-.398.398 0 .238.16.398.398.398h3.204c.238 0 .398-.16.398-.398 0-.238-.16-.398-.398-.398zm0 0M21.602 15.2h-3.204c-.238 0-.398.16-.398.402 0 .238.16.398.398.398h3.204c.238 0 .398-.16.398-.398 0-.243-.16-.403-.398-.403zm0 0M21.602 16.8h-3.204c-.238 0-.398.16-.398.4 0 .241.16.402.398.402h3.204c.238 0 .398-.16.398-.403 0-.238-.16-.398-.398-.398zm0 0M21.602 18.398h-3.204c-.238 0-.398.16-.398.403 0 .238.16.398.398.398h3.204c.238 0 .398-.16.398-.398 0-.242-.16-.403-.398-.403zm0 0M21.602 20h-3.204c-.238 0-.398.16-.398.398 0 .243.16.403.398.403h3.204c.238 0 .398-.16.398-.403 0-.238-.16-.398-.398-.398zm0 0M21.602 21.602h-3.204c-.238 0-.398.16-.398.398 0 .238.16.398.398.398h3.204c.238 0 .398-.16.398-.398 0-.238-.16-.398-.398-.398zm0 0"/>
</svg>
