<svg xmlns="http://www.w3.org/2000/svg" width="32" height="32" viewBox="0 0 24 24">
    <path d="M2 20.800781C1.761719 20.800781 1.601562 20.960938 1.601562 21.199219L1.601562 22C1.601562 22.238281 1.761719 22.398438 2 22.398438 2.238281 22.398438 2.398438 22.238281 2.398438 22L2.398438 21.199219C2.398438 20.960938 2.238281 20.800781 2 20.800781zM2 18.398438C1.761719 18.398438 1.601562 18.558594 1.601562 18.800781L1.601562 19.601562C1.601562 19.839844 1.761719 20 2 20 2.238281 20 2.398438 19.839844 2.398438 19.601562L2.398438 18.800781C2.398438 18.558594 2.238281 18.398438 2 18.398438zM2 16C1.761719 16 1.601562 16.160156 1.601562 16.398438L1.601562 17.199219C1.601562 17.441406 1.761719 17.601562 2 17.601562 2.238281 17.601562 2.398438 17.441406 2.398438 17.199219L2.398438 16.398438C2.398438 16.160156 2.238281 16 2 16zM2 13.601562C1.761719 13.601562 1.601562 13.761719 1.601562 14L1.601562 14.800781C1.601562 15.039062 1.761719 15.199219 2 15.199219 2.238281 15.199219 2.398438 15.039062 2.398438 14.800781L2.398438 14C2.398438 13.761719 2.238281 13.601562 2 13.601562zM2 11.199219C1.761719 11.199219 1.601562 11.359375 1.601562 11.601562L1.601562 12.398438C1.601562 12.640625 1.761719 12.800781 2 12.800781 2.238281 12.800781 2.398438 12.640625 2.398438 12.398438L2.398438 11.601562C2.398438 11.359375 2.238281 11.199219 2 11.199219zM2 8.800781C1.761719 8.800781 1.601562 8.960938 1.601562 9.199219L1.601562 10C1.601562 10.238281 1.761719 10.398438 2 10.398438 2.238281 10.398438 2.398438 10.238281 2.398438 10L2.398438 9.199219C2.398438 8.960938 2.238281 8.800781 2 8.800781zM4 8.800781C3.761719 8.800781 3.601562 8.960938 3.601562 9.199219L3.601562 10C3.601562 10.238281 3.761719 10.398438 4 10.398438 4.238281 10.398438 4.398438 10.238281 4.398438 10L4.398438 9.199219C4.398438 8.960938 4.238281 8.800781 4 8.800781zM4 18.398438C3.761719 18.398438 3.601562 18.558594 3.601562 18.800781L3.601562 19.601562C3.601562 19.839844 3.761719 20 4 20 4.238281 20 4.398438 19.839844 4.398438 19.601562L4.398438 18.800781C4.398438 18.558594 4.238281 18.398438 4 18.398438zM4 20.800781C3.761719 20.800781 3.601562 20.960938 3.601562 21.199219L3.601562 22C3.601562 22.238281 3.761719 22.398438 4 22.398438 4.238281 22.398438 4.398438 22.238281 4.398438 22L4.398438 21.199219C4.398438 20.960938 4.238281 20.800781 4 20.800781zM4 13.601562C3.761719 13.601562 3.601562 13.761719 3.601562 14L3.601562 14.800781C3.601562 15.039062 3.761719 15.199219 4 15.199219 4.238281 15.199219 4.398438 15.039062 4.398438 14.800781L4.398438 14C4.398438 13.761719 4.238281 13.601562 4 13.601562zM4 16C3.761719 16 3.601562 16.160156 3.601562 16.398438L3.601562 17.199219C3.601562 17.441406 3.761719 17.601562 4 17.601562 4.238281 17.601562 4.398438 17.441406 4.398438 17.199219L4.398438 16.398438C4.398438 16.160156 4.238281 16 4 16zM4 11.199219C3.761719 11.199219 3.601562 11.359375 3.601562 11.601562L3.601562 12.398438C3.601562 12.640625 3.761719 12.800781 4 12.800781 4.238281 12.800781 4.398438 12.640625 4.398438 12.398438L4.398438 11.601562C4.398438 11.359375 4.238281 11.199219 4 11.199219zM7.199219 9.199219C6.960938 9.199219 6.800781 9.359375 6.800781 9.601562L6.800781 10.398438C6.800781 10.640625 6.960938 10.800781 7.199219 10.800781 7.441406 10.800781 7.601562 10.640625 7.601562 10.398438L7.601562 9.601562C7.601562 9.359375 7.441406 9.199219 7.199219 9.199219zM7.199219 6.800781C6.960938 6.800781 6.800781 6.960938 6.800781 7.199219L6.800781 8C6.800781 8.238281 6.960938 8.398438 7.199219 8.398438 7.441406 8.398438 7.601562 8.238281 7.601562 8L7.601562 7.199219C7.601562 6.960938 7.441406 6.800781 7.199219 6.800781zM7.199219 4.398438C6.960938 4.398438 6.800781 4.558594 6.800781 4.800781L6.800781 5.601562C6.800781 5.839844 6.960938 6 7.199219 6 7.441406 6 7.601562 5.839844 7.601562 5.601562L7.601562 4.800781C7.601562 4.558594 7.441406 4.398438 7.199219 4.398438zM7.199219 21.199219C6.960938 21.199219 6.800781 21.359375 6.800781 21.601562L6.800781 22C6.800781 22.238281 6.960938 22.398438 7.199219 22.398438 7.441406 22.398438 7.601562 22.238281 7.601562 22L7.601562 21.601562C7.601562 21.359375 7.441406 21.199219 7.199219 21.199219zM7.199219 16.398438C6.960938 16.398438 6.800781 16.558594 6.800781 16.800781L6.800781 17.601562C6.800781 17.839844 6.960938 18 7.199219 18 7.441406 18 7.601562 17.839844 7.601562 17.601562L7.601562 16.800781C7.601562 16.558594 7.441406 16.398438 7.199219 16.398438zM7.199219 11.601562C6.960938 11.601562 6.800781 11.761719 6.800781 12L6.800781 12.800781C6.800781 13.039062 6.960938 13.199219 7.199219 13.199219 7.441406 13.199219 7.601562 13.039062 7.601562 12.800781L7.601562 12C7.601562 11.761719 7.441406 11.601562 7.199219 11.601562zM7.199219 18.800781C6.960938 18.800781 6.800781 18.960938 6.800781 19.199219L6.800781 20C6.800781 20.238281 6.960938 20.398438 7.199219 20.398438 7.441406 20.398438 7.601562 20.238281 7.601562 20L7.601562 19.199219C7.601562 18.960938 7.441406 18.800781 7.199219 18.800781zM7.199219 14C6.960938 14 6.800781 14.160156 6.800781 14.398438L6.800781 15.199219C6.800781 15.441406 6.960938 15.601562 7.199219 15.601562 7.441406 15.601562 7.601562 15.441406 7.601562 15.199219L7.601562 14.398438C7.601562 14.160156 7.441406 14 7.199219 14zM8.800781 9.199219C8.558594 9.199219 8.398438 9.359375 8.398438 9.601562L8.398438 10.398438C8.398438 10.640625 8.558594 10.800781 8.800781 10.800781 9.039062 10.800781 9.199219 10.640625 9.199219 10.398438L9.199219 9.601562C9.199219 9.359375 9.039062 9.199219 8.800781 9.199219zM8.800781 11.601562C8.558594 11.601562 8.398438 11.761719 8.398438 12L8.398438 12.800781C8.398438 13.039062 8.558594 13.199219 8.800781 13.199219 9.039062 13.199219 9.199219 13.039062 9.199219 12.800781L9.199219 12C9.199219 11.761719 9.039062 11.601562 8.800781 11.601562zM8.800781 6.800781C8.558594 6.800781 8.398438 6.960938 8.398438 7.199219L8.398438 8C8.398438 8.238281 8.558594 8.398438 8.800781 8.398438 9.039062 8.398438 9.199219 8.238281 9.199219 8L9.199219 7.199219C9.199219 6.960938 9.039062 6.800781 8.800781 6.800781zM8.800781 14C8.558594 14 8.398438 14.160156 8.398438 14.398438L8.398438 15.199219C8.398438 15.441406 8.558594 15.601562 8.800781 15.601562 9.039062 15.601562 9.199219 15.441406 9.199219 15.199219L9.199219 14.398438C9.199219 14.160156 9.039062 14 8.800781 14zM8.800781 18.800781C8.558594 18.800781 8.398438 18.960938 8.398438 19.199219L8.398438 20C8.398438 20.238281 8.558594 20.398438 8.800781 20.398438 9.039062 20.398438 9.199219 20.238281 9.199219 20L9.199219 19.199219C9.199219 18.960938 9.039062 18.800781 8.800781 18.800781zM8.800781 16.398438C8.558594 16.398438 8.398438 16.558594 8.398438 16.800781L8.398438 17.601562C8.398438 17.839844 8.558594 18 8.800781 18 9.039062 18 9.199219 17.839844 9.199219 17.601562L9.199219 16.800781C9.199219 16.558594 9.039062 16.398438 8.800781 16.398438zM8.800781 21.199219C8.558594 21.199219 8.398438 21.359375 8.398438 21.601562L8.398438 22C8.398438 22.238281 8.558594 22.398438 8.800781 22.398438 9.039062 22.398438 9.199219 22.238281 9.199219 22L9.199219 21.601562C9.199219 21.359375 9.039062 21.199219 8.800781 21.199219zM8.800781 4.398438C8.558594 4.398438 8.398438 4.558594 8.398438 4.800781L8.398438 5.601562C8.398438 5.839844 8.558594 6 8.800781 6 9.039062 6 9.199219 5.839844 9.199219 5.601562L9.199219 4.800781C9.199219 4.558594 9.039062 4.398438 8.800781 4.398438zM10.398438 14C10.160156 14 10 14.160156 10 14.398438L10 15.199219C10 15.441406 10.160156 15.601562 10.398438 15.601562 10.640625 15.601562 10.800781 15.441406 10.800781 15.199219L10.800781 14.398438C10.800781 14.160156 10.640625 14 10.398438 14zM10.398438 16.398438C10.160156 16.398438 10 16.558594 10 16.800781L10 17.601562C10 17.839844 10.160156 18 10.398438 18 10.640625 18 10.800781 17.839844 10.800781 17.601562L10.800781 16.800781C10.800781 16.558594 10.640625 16.398438 10.398438 16.398438zM10.398438 18.800781C10.160156 18.800781 10 18.960938 10 19.199219L10 20C10 20.238281 10.160156 20.398438 10.398438 20.398438 10.640625 20.398438 10.800781 20.238281 10.800781 20L10.800781 19.199219C10.800781 18.960938 10.640625 18.800781 10.398438 18.800781zM10.398438 21.199219C10.160156 21.199219 10 21.359375 10 21.601562L10 22C10 22.238281 10.160156 22.398438 10.398438 22.398438 10.640625 22.398438 10.800781 22.238281 10.800781 22L10.800781 21.601562C10.800781 21.359375 10.640625 21.199219 10.398438 21.199219zM10.398438 11.601562C10.160156 11.601562 10 11.761719 10 12L10 12.800781C10 13.039062 10.160156 13.199219 10.398438 13.199219 10.640625 13.199219 10.800781 13.039062 10.800781 12.800781L10.800781 12C10.800781 11.761719 10.640625 11.601562 10.398438 11.601562zM10.398438 6.800781C10.160156 6.800781 10 6.960938 10 7.199219L10 8C10 8.238281 10.160156 8.398438 10.398438 8.398438 10.640625 8.398438 10.800781 8.238281 10.800781 8L10.800781 7.199219C10.800781 6.960938 10.640625 6.800781 10.398438 6.800781zM10.398438 4.398438C10.160156 4.398438 10 4.558594 10 4.800781L10 5.601562C10 5.839844 10.160156 6 10.398438 6 10.640625 6 10.800781 5.839844 10.800781 5.601562L10.800781 4.800781C10.800781 4.558594 10.640625 4.398438 10.398438 4.398438zM10.398438 9.199219C10.160156 9.199219 10 9.359375 10 9.601562L10 10.398438C10 10.640625 10.160156 10.800781 10.398438 10.800781 10.640625 10.800781 10.800781 10.640625 10.800781 10.398438L10.800781 9.601562C10.800781 9.359375 10.640625 9.199219 10.398438 9.199219zM13.601562 8.398438C13.359375 8.398438 13.199219 8.558594 13.199219 8.800781L13.199219 9.601562C13.199219 9.839844 13.359375 10 13.601562 10 13.839844 10 14 9.839844 14 9.601562L14 8.800781C14 8.558594 13.839844 8.398438 13.601562 8.398438zM13.601562 10.800781C13.359375 10.800781 13.199219 10.960938 13.199219 11.199219L13.199219 12C13.199219 12.238281 13.359375 12.398438 13.601562 12.398438 13.839844 12.398438 14 12.238281 14 12L14 11.199219C14 10.960938 13.839844 10.800781 13.601562 10.800781zM13.601562 13.199219C13.359375 13.199219 13.199219 13.359375 13.199219 13.601562L13.199219 14.398438C13.199219 14.640625 13.359375 14.800781 13.601562 14.800781 13.839844 14.800781 14 14.640625 14 14.398438L14 13.601562C14 13.359375 13.839844 13.199219 13.601562 13.199219zM13.601562 20.398438C13.359375 20.398438 13.199219 20.558594 13.199219 20.800781L13.199219 21.601562C13.199219 21.839844 13.359375 22 13.601562 22 13.839844 22 14 21.839844 14 21.601562L14 20.800781C14 20.558594 13.839844 20.398438 13.601562 20.398438zM13.601562 15.601562C13.359375 15.601562 13.199219 15.761719 13.199219 16L13.199219 16.800781C13.199219 17.039062 13.359375 17.199219 13.601562 17.199219 13.839844 17.199219 14 17.039062 14 16.800781L14 16C14 15.761719 13.839844 15.601562 13.601562 15.601562zM13.601562 18C13.359375 18 13.199219 18.160156 13.199219 18.398438L13.199219 19.199219C13.199219 19.441406 13.359375 19.601562 13.601562 19.601562 13.839844 19.601562 14 19.441406 14 19.199219L14 18.398438C14 18.160156 13.839844 18 13.601562 18zM15.199219 10.800781C14.960938 10.800781 14.800781 10.960938 14.800781 11.199219L14.800781 12C14.800781 12.238281 14.960938 12.398438 15.199219 12.398438 15.441406 12.398438 15.601562 12.238281 15.601562 12L15.601562 11.199219C15.601562 10.960938 15.441406 10.800781 15.199219 10.800781zM15.199219 8.398438C14.960938 8.398438 14.800781 8.558594 14.800781 8.800781L14.800781 9.601562C14.800781 9.839844 14.960938 10 15.199219 10 15.441406 10 15.601562 9.839844 15.601562 9.601562L15.601562 8.800781C15.601562 8.558594 15.441406 8.398438 15.199219 8.398438zM15.199219 13.199219C14.960938 13.199219 14.800781 13.359375 14.800781 13.601562L14.800781 14.398438C14.800781 14.640625 14.960938 14.800781 15.199219 14.800781 15.441406 14.800781 15.601562 14.640625 15.601562 14.398438L15.601562 13.601562C15.601562 13.359375 15.441406 13.199219 15.199219 13.199219zM15.199219 15.601562C14.960938 15.601562 14.800781 15.761719 14.800781 16L14.800781 16.800781C14.800781 17.039062 14.960938 17.199219 15.199219 17.199219 15.441406 17.199219 15.601562 17.039062 15.601562 16.800781L15.601562 16C15.601562 15.761719 15.441406 15.601562 15.199219 15.601562zM15.199219 20.398438C14.960938 20.398438 14.800781 20.558594 14.800781 20.800781L14.800781 21.601562C14.800781 21.839844 14.960938 22 15.199219 22 15.441406 22 15.601562 21.839844 15.601562 21.601562L15.601562 20.800781C15.601562 20.558594 15.441406 20.398438 15.199219 20.398438zM15.199219 18C14.960938 18 14.800781 18.160156 14.800781 18.398438L14.800781 19.199219C14.800781 19.441406 14.960938 19.601562 15.199219 19.601562 15.441406 19.601562 15.601562 19.441406 15.601562 19.199219L15.601562 18.398438C15.601562 18.160156 15.441406 18 15.199219 18zM16.800781 13.199219C16.558594 13.199219 16.398438 13.359375 16.398438 13.601562L16.398438 14.398438C16.398438 14.640625 16.558594 14.800781 16.800781 14.800781 17.039062 14.800781 17.199219 14.640625 17.199219 14.398438L17.199219 13.601562C17.199219 13.359375 17.039062 13.199219 16.800781 13.199219zM16.800781 10.800781C16.558594 10.800781 16.398438 10.960938 16.398438 11.199219L16.398438 12C16.398438 12.238281 16.558594 12.398438 16.800781 12.398438 17.039062 12.398438 17.199219 12.238281 17.199219 12L17.199219 11.199219C17.199219 10.960938 17.039062 10.800781 16.800781 10.800781zM16.800781 8.398438C16.558594 8.398438 16.398438 8.558594 16.398438 8.800781L16.398438 9.601562C16.398438 9.839844 16.558594 10 16.800781 10 17.039062 10 17.199219 9.839844 17.199219 9.601562L17.199219 8.800781C17.199219 8.558594 17.039062 8.398438 16.800781 8.398438zM16.800781 18C16.558594 18 16.398438 18.160156 16.398438 18.398438L16.398438 19.199219C16.398438 19.441406 16.558594 19.601562 16.800781 19.601562 17.039062 19.601562 17.199219 19.441406 17.199219 19.199219L17.199219 18.398438C17.199219 18.160156 17.039062 18 16.800781 18zM16.800781 15.601562C16.558594 15.601562 16.398438 15.761719 16.398438 16L16.398438 16.800781C16.398438 17.039062 16.558594 17.199219 16.800781 17.199219 17.039062 17.199219 17.199219 17.039062 17.199219 16.800781L17.199219 16C17.199219 15.761719 17.039062 15.601562 16.800781 15.601562zM16.800781 20.398438C16.558594 20.398438 16.398438 20.558594 16.398438 20.800781L16.398438 21.601562C16.398438 21.839844 16.558594 22 16.800781 22 17.039062 22 17.199219 21.839844 17.199219 21.601562L17.199219 20.800781C17.199219 20.558594 17.039062 20.398438 16.800781 20.398438zM20 11.601562C19.761719 11.601562 19.601562 11.761719 19.601562 12L19.601562 12.800781C19.601562 13.039062 19.761719 13.199219 20 13.199219 20.238281 13.199219 20.398438 13.039062 20.398438 12.800781L20.398438 12C20.398438 11.761719 20.238281 11.601562 20 11.601562zM20 9.199219C19.761719 9.199219 19.601562 9.359375 19.601562 9.601562L19.601562 10.398438C19.601562 10.640625 19.761719 10.800781 20 10.800781 20.238281 10.800781 20.398438 10.640625 20.398438 10.398438L20.398438 9.601562C20.398438 9.359375 20.238281 9.199219 20 9.199219zM20 6.800781C19.761719 6.800781 19.601562 6.960938 19.601562 7.199219L19.601562 8C19.601562 8.238281 19.761719 8.398438 20 8.398438 20.238281 8.398438 20.398438 8.238281 20.398438 8L20.398438 7.199219C20.398438 6.960938 20.238281 6.800781 20 6.800781zM20 21.199219C19.761719 21.199219 19.601562 21.359375 19.601562 21.601562L19.601562 22C19.601562 22.238281 19.761719 22.398438 20 22.398438 20.238281 22.398438 20.398438 22.238281 20.398438 22L20.398438 21.601562C20.398438 21.359375 20.238281 21.199219 20 21.199219zM20 18.800781C19.761719 18.800781 19.601562 18.960938 19.601562 19.199219L19.601562 20C19.601562 20.238281 19.761719 20.398438 20 20.398438 20.238281 20.398438 20.398438 20.238281 20.398438 20L20.398438 19.199219C20.398438 18.960938 20.238281 18.800781 20 18.800781zM20 16.398438C19.761719 16.398438 19.601562 16.558594 19.601562 16.800781L19.601562 17.601562C19.601562 17.839844 19.761719 18 20 18 20.238281 18 20.398438 17.839844 20.398438 17.601562L20.398438 16.800781C20.398438 16.558594 20.238281 16.398438 20 16.398438zM20 14C19.761719 14 19.601562 14.160156 19.601562 14.398438L19.601562 15.199219C19.601562 15.441406 19.761719 15.601562 20 15.601562 20.238281 15.601562 20.398438 15.441406 20.398438 15.199219L20.398438 14.398438C20.398438 14.160156 20.238281 14 20 14zM22 11.601562C21.761719 11.601562 21.601562 11.761719 21.601562 12L21.601562 12.800781C21.601562 13.039062 21.761719 13.199219 22 13.199219 22.238281 13.199219 22.398438 13.039062 22.398438 12.800781L22.398438 12C22.398438 11.761719 22.238281 11.601562 22 11.601562zM22 14C21.761719 14 21.601562 14.160156 21.601562 14.398438L21.601562 15.199219C21.601562 15.441406 21.761719 15.601562 22 15.601562 22.238281 15.601562 22.398438 15.441406 22.398438 15.199219L22.398438 14.398438C22.398438 14.160156 22.238281 14 22 14zM22 9.199219C21.761719 9.199219 21.601562 9.359375 21.601562 9.601562L21.601562 10.398438C21.601562 10.640625 21.761719 10.800781 22 10.800781 22.238281 10.800781 22.398438 10.640625 22.398438 10.398438L22.398438 9.601562C22.398438 9.359375 22.238281 9.199219 22 9.199219zM22 6.800781C21.761719 6.800781 21.601562 6.960938 21.601562 7.199219L21.601562 8C21.601562 8.238281 21.761719 8.398438 22 8.398438 22.238281 8.398438 22.398438 8.238281 22.398438 8L22.398438 7.199219C22.398438 6.960938 22.238281 6.800781 22 6.800781zM22 21.199219C21.761719 21.199219 21.601562 21.359375 21.601562 21.601562L21.601562 22C21.601562 22.238281 21.761719 22.398438 22 22.398438 22.238281 22.398438 22.398438 22.238281 22.398438 22L22.398438 21.601562C22.398438 21.359375 22.238281 21.199219 22 21.199219zM22 16.398438C21.761719 16.398438 21.601562 16.558594 21.601562 16.800781L21.601562 17.601562C21.601562 17.839844 21.761719 18 22 18 22.238281 18 22.398438 17.839844 22.398438 17.601562L22.398438 16.800781C22.398438 16.558594 22.238281 16.398438 22 16.398438zM22 18.800781C21.761719 18.800781 21.601562 18.960938 21.601562 19.199219L21.601562 20C21.601562 20.238281 21.761719 20.398438 22 20.398438 22.238281 20.398438 22.398438 20.238281 22.398438 20L22.398438 19.199219C22.398438 18.960938 22.238281 18.800781 22 18.800781zM22 18.800781"/>
    <path d="M 23.601562 5.199219 L 22.800781 5.199219 L 22.800781 4 C 22.800781 3.761719 22.640625 3.601562 22.398438 3.601562 L 22 3.601562 L 22 2.398438 C 22 2.160156 21.839844 2 21.601562 2 C 21.359375 2 21.199219 2.160156 21.199219 2.398438 L 21.199219 3.601562 L 20.800781 3.601562 L 20.800781 2.398438 C 20.800781 2.160156 20.640625 2 20.398438 2 C 20.160156 2 20 2.160156 20 2.398438 L 20 3.601562 L 19.601562 3.601562 C 19.359375 3.601562 19.199219 3.761719 19.199219 4 L 19.199219 5.199219 L 18.398438 5.199219 C 18.160156 5.199219 18 5.359375 18 5.601562 L 18 6.800781 L 17.199219 6.800781 L 17.199219 5.601562 C 17.199219 5.359375 17.039062 5.199219 16.800781 5.199219 L 15.601562 5.199219 L 15.601562 4 C 15.601562 3.761719 15.441406 3.601562 15.199219 3.601562 C 14.960938 3.601562 14.800781 3.761719 14.800781 4 L 14.800781 5.199219 L 13.601562 5.199219 C 13.359375 5.199219 13.199219 5.359375 13.199219 5.601562 L 13.199219 6.800781 L 12.398438 6.800781 L 12.398438 3.199219 C 12.398438 2.960938 12.238281 2.800781 12 2.800781 L 10.800781 2.800781 L 10.800781 1.601562 C 10.800781 1.359375 10.640625 1.199219 10.398438 1.199219 L 9.199219 1.199219 L 9.199219 0.398438 C 9.199219 0.160156 9.039062 0 8.800781 0 C 8.558594 0 8.398438 0.160156 8.398438 0.398438 L 8.398438 1.199219 L 7.199219 1.199219 C 6.960938 1.199219 6.800781 1.359375 6.800781 1.601562 L 6.800781 2.800781 L 5.601562 2.800781 C 5.359375 2.800781 5.199219 2.960938 5.199219 3.199219 L 5.199219 7.199219 L 4.800781 7.199219 L 4.800781 6 C 4.800781 5.761719 4.640625 5.601562 4.398438 5.601562 L 4 5.601562 L 4 4.398438 C 4 4.160156 3.839844 4 3.601562 4 C 3.359375 4 3.199219 4.160156 3.199219 4.398438 L 3.199219 5.601562 L 2.800781 5.601562 L 2.800781 4.398438 C 2.800781 4.160156 2.640625 4 2.398438 4 C 2.160156 4 2 4.160156 2 4.398438 L 2 5.601562 L 1.601562 5.601562 C 1.359375 5.601562 1.199219 5.761719 1.199219 6 L 1.199219 7.199219 L 0.398438 7.199219 C 0.160156 7.199219 0 7.359375 0 7.601562 L 0 23.601562 C 0 23.839844 0.160156 24 0.398438 24 L 23.601562 24 C 23.839844 24 24 23.839844 24 23.601562 L 24 5.601562 C 24 5.359375 23.839844 5.199219 23.601562 5.199219 Z M 20 4.398438 L 22 4.398438 L 22 5.199219 L 20 5.199219 Z M 14 6 L 16.398438 6 L 16.398438 6.800781 L 14 6.800781 Z M 7.601562 2 L 10 2 L 10 2.800781 L 7.601562 2.800781 Z M 2 6.398438 L 4 6.398438 L 4 7.199219 L 2 7.199219 Z M 0.800781 8 L 5.199219 8 L 5.199219 23.199219 L 0.800781 23.199219 Z M 6 7.601562 L 6 3.601562 L 11.601562 3.601562 L 11.601562 23.199219 L 6 23.199219 Z M 12.398438 7.601562 L 18 7.601562 L 18 23.199219 L 12.398438 23.199219 Z M 23.199219 23.199219 L 18.800781 23.199219 L 18.800781 6 L 23.199219 6 Z M 23.199219 23.199219"/>
</svg>
