<svg xmlns="http://www.w3.org/2000/svg" width="32" height="32" viewBox="0 0 24 24">
    <path d="M2 20.8c-.238 0-.398.16-.398.4v.8c0 .238.16.398.398.398.238 0 .398-.16.398-.398v-.8c0-.24-.16-.4-.398-.4zm0 0M2 18.398c-.238 0-.398.16-.398.403v.8c0 .239.16.399.398.399.238 0 .398-.16.398-.398V18.8c0-.242-.16-.403-.398-.403zm0 0M2 16c-.238 0-.398.16-.398.398v.801c0 .242.16.403.398.403.238 0 .398-.16.398-.403v-.8c0-.239-.16-.399-.398-.399zm0 0M2 13.602c-.238 0-.398.16-.398.398v.8c0 .24.16.4.398.4.238 0 .398-.16.398-.4V14c0-.238-.16-.398-.398-.398zm0 0M2 11.2c-.238 0-.398.16-.398.402v.796c0 .243.16.403.398.403.238 0 .398-.16.398-.403v-.796c0-.243-.16-.403-.398-.403zm0 0M2 8.8c-.238 0-.398.16-.398.4v.8c0 .238.16.398.398.398.238 0 .398-.16.398-.398v-.8c0-.24-.16-.4-.398-.4zm0 0M4 8.8c-.238 0-.398.16-.398.4v.8c0 .238.16.398.398.398.238 0 .398-.16.398-.398v-.8c0-.24-.16-.4-.398-.4zm0 0M4 18.398c-.238 0-.398.16-.398.403v.8c0 .239.16.399.398.399.238 0 .398-.16.398-.398V18.8c0-.242-.16-.403-.398-.403zm0 0M4 20.8c-.238 0-.398.16-.398.4v.8c0 .238.16.398.398.398.238 0 .398-.16.398-.398v-.8c0-.24-.16-.4-.398-.4zm0 0M4 13.602c-.238 0-.398.16-.398.398v.8c0 .24.16.4.398.4.238 0 .398-.16.398-.4V14c0-.238-.16-.398-.398-.398zm0 0M4 16c-.238 0-.398.16-.398.398v.801c0 .242.16.403.398.403.238 0 .398-.16.398-.403v-.8c0-.239-.16-.399-.398-.399zm0 0M4 11.2c-.238 0-.398.16-.398.402v.796c0 .243.16.403.398.403.238 0 .398-.16.398-.403v-.796c0-.243-.16-.403-.398-.403zm0 0M7.2 9.2c-.24 0-.4.16-.4.402v.796c0 .243.16.403.4.403.241 0 .402-.16.402-.403v-.796c0-.243-.16-.403-.403-.403zm0 0M7.2 6.8c-.24 0-.4.16-.4.4V8c0 .238.16.398.4.398.241 0 .402-.16.402-.398v-.8c0-.24-.16-.4-.403-.4zm0 0M7.2 4.398c-.24 0-.4.16-.4.403v.8c0 .239.16.399.4.399.241 0 .402-.16.402-.398V4.8c0-.242-.16-.403-.403-.403zm0 0M7.2 21.2c-.24 0-.4.16-.4.402V22c0 .238.16.398.4.398.241 0 .402-.16.402-.398v-.398c0-.243-.16-.403-.403-.403zm0 0M7.2 16.398c-.24 0-.4.16-.4.403v.8c0 .239.16.399.4.399.241 0 .402-.16.402-.398V16.8c0-.242-.16-.403-.403-.403zm0 0M7.2 11.602c-.24 0-.4.16-.4.398v.8c0 .24.16.4.4.4.241 0 .402-.16.402-.4V12c0-.238-.16-.398-.403-.398zm0 0M7.2 18.8c-.24 0-.4.16-.4.4v.8c0 .238.16.398.4.398.241 0 .402-.16.402-.398v-.8c0-.24-.16-.4-.403-.4zm0 0M7.2 14c-.24 0-.4.16-.4.398v.801c0 .242.16.403.4.403.241 0 .402-.16.402-.403v-.8c0-.239-.16-.399-.403-.399zm0 0M8.8 9.2c-.241 0-.402.16-.402.402v.796c0 .243.16.403.403.403.238 0 .398-.16.398-.403v-.796c0-.243-.16-.403-.398-.403zm0 0M8.8 11.602c-.241 0-.402.16-.402.398v.8c0 .24.16.4.403.4.238 0 .398-.16.398-.4V12c0-.238-.16-.398-.398-.398zm0 0M8.8 6.8c-.241 0-.402.16-.402.4V8c0 .238.16.398.403.398.238 0 .398-.16.398-.398v-.8c0-.24-.16-.4-.398-.4zm0 0M8.8 14c-.241 0-.402.16-.402.398v.801c0 .242.16.403.403.403.238 0 .398-.16.398-.403v-.8c0-.239-.16-.399-.398-.399zm0 0M8.8 18.8c-.241 0-.402.16-.402.4v.8c0 .238.16.398.403.398.238 0 .398-.16.398-.398v-.8c0-.24-.16-.4-.398-.4zm0 0M8.8 16.398c-.241 0-.402.16-.402.403v.8c0 .239.16.399.403.399.238 0 .398-.16.398-.398V16.8c0-.242-.16-.403-.398-.403zm0 0M8.8 21.2c-.241 0-.402.16-.402.402V22c0 .238.16.398.403.398.238 0 .398-.16.398-.398v-.398c0-.243-.16-.403-.398-.403zm0 0M8.8 4.398c-.241 0-.402.16-.402.403v.8c0 .239.16.399.403.399.238 0 .398-.16.398-.398V4.8c0-.242-.16-.403-.398-.403zm0 0M10.398 14c-.238 0-.398.16-.398.398v.801c0 .242.16.403.398.403.243 0 .403-.16.403-.403v-.8c0-.239-.16-.399-.403-.399zm0 0M10.398 16.398c-.238 0-.398.16-.398.403v.8c0 .239.16.399.398.399.243 0 .403-.16.403-.398V16.8c0-.242-.16-.403-.403-.403zm0 0M10.398 18.8c-.238 0-.398.16-.398.4v.8c0 .238.16.398.398.398.243 0 .403-.16.403-.398v-.8c0-.24-.16-.4-.403-.4zm0 0M10.398 21.2c-.238 0-.398.16-.398.402V22c0 .238.16.398.398.398.243 0 .403-.16.403-.398v-.398c0-.243-.16-.403-.403-.403zm0 0M10.398 11.602c-.238 0-.398.16-.398.398v.8c0 .24.16.4.398.4.243 0 .403-.16.403-.4V12c0-.238-.16-.398-.403-.398zm0 0M10.398 6.8c-.238 0-.398.16-.398.4V8c0 .238.16.398.398.398.243 0 .403-.16.403-.398v-.8c0-.24-.16-.4-.403-.4zm0 0M10.398 4.398c-.238 0-.398.16-.398.403v.8c0 .239.16.399.398.399.243 0 .403-.16.403-.398V4.8c0-.242-.16-.403-.403-.403zm0 0M10.398 9.2c-.238 0-.398.16-.398.402v.796c0 .243.16.403.398.403.243 0 .403-.16.403-.403v-.796c0-.243-.16-.403-.403-.403zm0 0M13.602 8.398c-.243 0-.403.16-.403.403v.8c0 .239.16.399.403.399.238 0 .398-.16.398-.398V8.8c0-.242-.16-.403-.398-.403zm0 0M13.602 10.8c-.243 0-.403.16-.403.4v.8c0 .238.16.398.403.398.238 0 .398-.16.398-.398v-.8c0-.24-.16-.4-.398-.4zm0 0M13.602 13.2c-.243 0-.403.16-.403.402v.796c0 .243.16.403.403.403.238 0 .398-.16.398-.403v-.796c0-.243-.16-.403-.398-.403zm0 0M13.602 20.398c-.243 0-.403.16-.403.403v.8c0 .239.16.399.403.399.238 0 .398-.16.398-.398V20.8c0-.242-.16-.403-.398-.403zm0 0M13.602 15.602c-.243 0-.403.16-.403.398v.8c0 .24.16.4.403.4.238 0 .398-.16.398-.4V16c0-.238-.16-.398-.398-.398zm0 0M13.602 18c-.243 0-.403.16-.403.398v.801c0 .242.16.403.403.403.238 0 .398-.16.398-.403v-.8c0-.239-.16-.399-.398-.399zm0 0M15.2 10.8c-.24 0-.4.16-.4.4v.8c0 .238.16.398.4.398.241 0 .402-.16.402-.398v-.8c0-.24-.16-.4-.403-.4zm0 0M15.2 8.398c-.24 0-.4.16-.4.403v.8c0 .239.16.399.4.399.241 0 .402-.16.402-.398V8.8c0-.242-.16-.403-.403-.403zm0 0M15.2 13.2c-.24 0-.4.16-.4.402v.796c0 .243.16.403.4.403.241 0 .402-.16.402-.403v-.796c0-.243-.16-.403-.403-.403zm0 0M15.2 15.602c-.24 0-.4.16-.4.398v.8c0 .24.16.4.4.4.241 0 .402-.16.402-.4V16c0-.238-.16-.398-.403-.398zm0 0M15.2 20.398c-.24 0-.4.16-.4.403v.8c0 .239.16.399.4.399.241 0 .402-.16.402-.398V20.8c0-.242-.16-.403-.403-.403zm0 0M15.2 18c-.24 0-.4.16-.4.398v.801c0 .242.16.403.4.403.241 0 .402-.16.402-.403v-.8c0-.239-.16-.399-.403-.399zm0 0M16.8 13.2c-.241 0-.402.16-.402.402v.796c0 .243.16.403.403.403.238 0 .398-.16.398-.403v-.796c0-.243-.16-.403-.398-.403zm0 0M16.8 10.8c-.241 0-.402.16-.402.4v.8c0 .238.16.398.403.398.238 0 .398-.16.398-.398v-.8c0-.24-.16-.4-.398-.4zm0 0M16.8 8.398c-.241 0-.402.16-.402.403v.8c0 .239.16.399.403.399.238 0 .398-.16.398-.398V8.8c0-.242-.16-.403-.398-.403zm0 0M16.8 18c-.241 0-.402.16-.402.398v.801c0 .242.16.403.403.403.238 0 .398-.16.398-.403v-.8c0-.239-.16-.399-.398-.399zm0 0M16.8 15.602c-.241 0-.402.16-.402.398v.8c0 .24.16.4.403.4.238 0 .398-.16.398-.4V16c0-.238-.16-.398-.398-.398zm0 0M16.8 20.398c-.241 0-.402.16-.402.403v.8c0 .239.16.399.403.399.238 0 .398-.16.398-.398V20.8c0-.242-.16-.403-.398-.403zm0 0M20 11.602c-.238 0-.398.16-.398.398v.8c0 .24.16.4.398.4.238 0 .398-.16.398-.4V12c0-.238-.16-.398-.398-.398zm0 0M20 9.2c-.238 0-.398.16-.398.402v.796c0 .243.16.403.398.403.238 0 .398-.16.398-.403v-.796c0-.243-.16-.403-.398-.403zm0 0M20 6.8c-.238 0-.398.16-.398.4V8c0 .238.16.398.398.398.238 0 .398-.16.398-.398v-.8c0-.24-.16-.4-.398-.4zm0 0M20 21.2c-.238 0-.398.16-.398.402V22c0 .238.16.398.398.398.238 0 .398-.16.398-.398v-.398c0-.243-.16-.403-.398-.403zm0 0M20 18.8c-.238 0-.398.16-.398.4v.8c0 .238.16.398.398.398.238 0 .398-.16.398-.398v-.8c0-.24-.16-.4-.398-.4zm0 0M20 16.398c-.238 0-.398.16-.398.403v.8c0 .239.16.399.398.399.238 0 .398-.16.398-.398V16.8c0-.242-.16-.403-.398-.403zm0 0M20 14c-.238 0-.398.16-.398.398v.801c0 .242.16.403.398.403.238 0 .398-.16.398-.403v-.8c0-.239-.16-.399-.398-.399zm0 0M22 11.602c-.238 0-.398.16-.398.398v.8c0 .24.16.4.398.4.238 0 .398-.16.398-.4V12c0-.238-.16-.398-.398-.398zm0 0M22 14c-.238 0-.398.16-.398.398v.801c0 .242.16.403.398.403.238 0 .398-.16.398-.403v-.8c0-.239-.16-.399-.398-.399zm0 0M22 9.2c-.238 0-.398.16-.398.402v.796c0 .243.16.403.398.403.238 0 .398-.16.398-.403v-.796c0-.243-.16-.403-.398-.403zm0 0M22 6.8c-.238 0-.398.16-.398.4V8c0 .238.16.398.398.398.238 0 .398-.16.398-.398v-.8c0-.24-.16-.4-.398-.4zm0 0M22 21.2c-.238 0-.398.16-.398.402V22c0 .238.16.398.398.398.238 0 .398-.16.398-.398v-.398c0-.243-.16-.403-.398-.403zm0 0M22 16.398c-.238 0-.398.16-.398.403v.8c0 .239.16.399.398.399.238 0 .398-.16.398-.398V16.8c0-.242-.16-.403-.398-.403zm0 0M22 18.8c-.238 0-.398.16-.398.4v.8c0 .238.16.398.398.398.238 0 .398-.16.398-.398v-.8c0-.24-.16-.4-.398-.4zm0 0"/>
    <path d="M23.602 5.2H22.8V4c0-.238-.16-.398-.403-.398H22V2.398C22 2.16 21.84 2 21.602 2c-.243 0-.403.16-.403.398v1.204h-.398V2.398c0-.238-.16-.398-.403-.398-.238 0-.398.16-.398.398v1.204h-.398c-.243 0-.403.16-.403.398v1.2h-.8c-.239 0-.399.16-.399.402V6.8h-.8V5.6c0-.242-.16-.402-.4-.402h-1.198V4c0-.238-.16-.398-.403-.398-.238 0-.398.16-.398.398v1.2h-1.2c-.242 0-.402.16-.402.402V6.8h-.8V3.199c0-.238-.16-.398-.399-.398h-1.2V1.6c0-.242-.16-.402-.402-.402H9.2V.4C9.2.16 9.04 0 8.801 0c-.242 0-.403.16-.403.398V1.2H7.2c-.238 0-.398.16-.398.403V2.8H5.6c-.242 0-.402.16-.402.398v4h-.398V6c0-.238-.16-.398-.403-.398H4V4.398C4 4.16 3.84 4 3.602 4c-.243 0-.403.16-.403.398v1.204h-.398V4.398C2.8 4.16 2.64 4 2.398 4 2.16 4 2 4.16 2 4.398v1.204h-.398c-.243 0-.403.16-.403.398v1.2H.4C.16 7.2 0 7.36 0 7.601v16c0 .238.16.398.398.398h23.204c.238 0 .398-.16.398-.398v-18c0-.243-.16-.403-.398-.403zM20 4.397h2V5.2h-2zM14 6h2.398v.8H14zM7.602 2H10v.8H7.602zM2 6.398h2V7.2H2zM.8 8h4.4v15.2H.8zM6 7.602v-4h5.602v19.597H6zm6.398 0H18v15.597h-5.602zM23.2 23.199h-4.398V6h4.398zm0 0"/>
</svg>
