<svg xmlns="http://www.w3.org/2000/svg" width="32" height="32" viewBox="0 0 24 24">
    <path d="M 8.398438 16.804688 L 2.800781 16.804688 C 2.5625 16.804688 2.402344 16.964844 2.402344 17.203125 L 2.402344 22 C 2.402344 22.242188 2.5625 22.402344 2.800781 22.402344 L 8.398438 22.402344 C 8.636719 22.402344 8.796875 22.242188 8.796875 22 L 8.796875 17.203125 C 8.796875 16.964844 8.636719 16.804688 8.398438 16.804688 Z M 8 21.601562 L 3.199219 21.601562 L 3.199219 17.601562 L 8 17.601562 Z M 8 21.601562"/>
    <path d="M4.398438 19.203125L6.800781 19.203125C7.039062 19.203125 7.199219 19.042969 7.199219 18.800781 7.199219 18.5625 7.039062 18.402344 6.800781 18.402344L4.398438 18.402344C4.160156 18.402344 4 18.5625 4 18.800781 4 19.042969 4.160156 19.203125 4.398438 19.203125zM4.398438 20.800781L6 20.800781C6.238281 20.800781 6.398438 20.640625 6.398438 20.402344 6.398438 20.160156 6.238281 20 6 20L4.398438 20C4.160156 20 4 20.160156 4 20.402344 4 20.640625 4.160156 20.800781 4.398438 20.800781zM4.398438 20.800781"/>
    <path d="M 23.953125 9.804688 L 19.152344 0.210938 C 18.992188 -0.0703125 18.554688 -0.0703125 18.433594 0.210938 L 16.136719 4.808594 L 11.996094 4.808594 L 11.996094 4.40625 C 11.996094 4.167969 11.835938 4.007812 11.597656 4.007812 L 7.597656 4.007812 C 7.359375 4.007812 7.199219 4.167969 7.199219 4.40625 L 7.199219 4.808594 L 2 4.808594 C 0.882812 4.808594 0 5.6875 0 6.808594 L 0 22 C 0 23.121094 0.921875 24 2 24 L 17.195312 24 C 18.3125 24 19.195312 23.121094 19.195312 22 L 19.195312 10.40625 L 23.59375 10.40625 C 23.710938 10.40625 23.871094 10.324219 23.953125 10.207031 C 23.992188 10.085938 24.03125 9.925781 23.953125 9.804688 Z M 8 4.808594 L 11.195312 4.808594 L 11.195312 9.167969 L 9.835938 8.085938 C 9.757812 8.046875 9.679688 8.007812 9.597656 8.007812 C 9.519531 8.007812 9.4375 8.046875 9.359375 8.085938 L 8 9.167969 Z M 18.394531 22 C 18.394531 22.679688 17.875 23.199219 17.195312 23.199219 L 2 23.199219 C 1.320312 23.199219 0.800781 22.679688 0.800781 22 L 0.800781 6.808594 C 0.800781 6.128906 1.320312 5.609375 2 5.609375 L 7.199219 5.609375 L 7.199219 9.246094 C 7.199219 9.527344 7.359375 9.804688 7.640625 9.925781 C 7.71875 9.964844 7.839844 10.003906 7.957031 10.003906 C 8.117188 10.003906 8.277344 9.964844 8.4375 9.847656 L 9.597656 8.925781 L 10.757812 9.847656 C 10.996094 10.003906 11.277344 10.046875 11.558594 9.925781 C 11.835938 9.804688 11.996094 9.527344 11.996094 9.246094 L 11.996094 5.609375 L 15.734375 5.609375 L 13.636719 9.804688 C 13.554688 9.925781 13.554688 10.085938 13.636719 10.207031 C 13.714844 10.324219 13.875 10.40625 13.996094 10.40625 L 18.394531 10.40625 Z M 18.792969 9.605469 L 14.636719 9.605469 L 16.753906 5.40625 C 16.785156 5.359375 16.804688 5.308594 16.8125 5.253906 L 18.792969 1.289062 L 22.953125 9.605469 Z M 18.792969 9.605469"/>
    <path d="M19.195312 8.40625C19.195312 8.628906 19.015625 8.804688 18.792969 8.804688 18.574219 8.804688 18.394531 8.628906 18.394531 8.40625 18.394531 8.1875 18.574219 8.007812 18.792969 8.007812 19.015625 8.007812 19.195312 8.1875 19.195312 8.40625zM18.394531 3.609375L18.394531 6.808594C18.394531 7.046875 18.554688 7.207031 18.792969 7.207031 19.035156 7.207031 19.195312 7.046875 19.195312 6.808594L19.195312 3.609375C19.195312 3.367188 19.035156 3.207031 18.792969 3.207031 18.554688 3.207031 18.394531 3.367188 18.394531 3.609375zM18.394531 3.609375"/>
</svg>
