<svg xmlns="http://www.w3.org/2000/svg" width="32" height="32" viewBox="0 0 24 24">
    <path d="M24 10.398V1.602C24 .719 23.281 0 22.398 0h-8.796C12.719 0 12 .719 12 1.602v5.597H1.602C.719 7.2 0 7.922 0 8.801v13.597C0 23.281.719 24 1.602 24h8c.476 0 .906-.21 1.199-.547.293.336.722.547 1.199.547h10.398c.883 0 1.602-.719 1.602-1.602v-9.597c0-.477-.21-.906-.547-1.2.336-.296.547-.726.547-1.203zM19.2.801v4l-.962-.723A.57.57 0 0 0 18 4a.57.57 0 0 0-.238.078l-.961.723v-4zM8 8v4l-.96-.719a.528.528 0 0 0-.24-.082c-.081 0-.16.04-.241.082L5.602 12V8zm1.602 15.2h-8c-.442 0-.801-.36-.801-.802V8.801c0-.442.36-.801.8-.801h3.2v4.8c0 .16.078.278.238.321.121.078.281.04.402-.043l1.36-1 1.36 1.043a.57.57 0 0 0 .237.078c.082 0 .122 0 .16-.039.16-.082.243-.2.243-.36V8H12v2.398c0 .036 0 .07.004.102v.012c.008.101.023.203.05.297.036.136.087.27.145.39H12c-.879 0-1.602.723-1.602 1.64v9.56c0 .44-.359.8-.796.8zm13.597-10.4v9.598c0 .442-.36.801-.8.801H12c-.441 0-.8-.36-.8-.8v-9.56c0-.48.359-.839.84-.839h3.16v4.8c0 .16.081.278.241.321.118.078.278.04.399-.043l1.36-1 1.359 1.043c.082.04.16.078.242.078.078 0 .117 0 .16-.039.16-.082.238-.2.238-.36V12h3.2c.44 0 .8.36.8.8zM16 12h2.398v4l-.957-.719a.542.542 0 0 0-.242-.082c-.078 0-.16.04-.238.082L16 16zm2.8-.8h-5.198c-.442 0-.801-.36-.801-.802V1.602c0-.442.36-.801.8-.801H16v4.8c0 .16.078.278.238.32.121.079.282.04.403-.042l1.359-1 1.36 1.043c.081.039.16.078.242.078.078 0 .117 0 .16-.04.16-.081.238-.198.238-.358V.8h2.398c.442 0 .801.36.801.8v8.797c0 .442-.36.801-.8.801zm0 0"/>
</svg>
