<svg xmlns="http://www.w3.org/2000/svg" width="32" height="32" viewBox="0 0 24 24">
    <path d="M8.398 16.02H2.801c-.242 0-.403.16-.403.398v4.8c0 .239.16.4.403.4h5.597c.239 0 .399-.161.399-.4v-4.8c0-.238-.16-.398-.399-.398zm-.402 4.796H3.2V16.82h4.797zm0 0"/>
    <path d="M4.398 18.418h2.399c.242 0 .402-.16.402-.398 0-.243-.16-.403-.402-.403H4.398c-.238 0-.398.16-.398.403 0 .238.16.398.398.398zm0 0M4.398 20.02H6c.238 0 .398-.16.398-.403 0-.238-.16-.398-.398-.398H4.398c-.238 0-.398.16-.398.398 0 .242.16.403.398.403zm0 0"/>
    <path d="M23.992 3.621c-.16-1.598-1.437-2.797-2.996-2.797-1.043 0-1.8.84-2.16 1.52C18.273 1.582 17.434.78 16.438.78c-1.563 0-2.723 1.16-2.883 2.801-.024.047-.043.203-.028.441h-1.53v-.402c0-.238-.161-.398-.4-.398h-4c-.238 0-.398.16-.398.398v.402H1.961c-1.082 0-1.961.88-1.961 2V21.22c0 1.117.879 2 1.96 2h15.235c1.121 0 2-.883 1.961-2V10.223l3.278-3.203c.761-.637 1.28-1.438 1.48-2.317.121-.601.078-.96.078-1.082zm-15.996.402h3.2v4.36L9.835 7.3a.57.57 0 0 0-.238-.078c-.082 0-.16.039-.239.078L7.996 8.383zm9.2 18.395H1.96c-.64 0-1.16-.52-1.16-1.2V6.024c0-.683.52-1.203 1.16-1.203h5.238v3.64c0 .282.16.56.438.68.082.04.203.083.32.083.16 0 .32-.043.48-.16l1.16-.922 1.16.921c.24.16.52.2.802.079a.74.74 0 0 0 .437-.68V4.82h1.64c.239.84.759 1.6 1.438 2.16l.02.019 3.3 3.262v10.957c0 .68-.519 1.199-1.199 1.199zm5.917-17.914c-.199.719-.597 1.36-1.238 1.918L18.754 9.5l-3.156-3.078c-.602-.52-1-1.2-1.203-1.918 0-.02-.008-.043-.016-.07-.098-.438-.063-.692-.063-.692v-.039c.121-1.039.801-2.082 2.079-2.082.878 0 1.718 1.043 2.039 1.762l.363.84.36-.84c.198-.399.878-1.762 1.84-1.762 1.116 0 2.077.883 2.198 2.121 0 0 .04.281-.082.762zm0 0"/>
</svg>
