<svg xmlns="http://www.w3.org/2000/svg" width="32" height="32" viewBox="0 0 24 24">
    <path d="M 21.601562 11.601562 L 20.800781 11.601562 C 20.800781 11.359375 20.640625 11.199219 20.398438 11.199219 L 20 11.199219 L 20 2.398438 C 20 1.28125 19.121094 0.398438 18 0.398438 L 14.800781 0.398438 C 14.800781 0.160156 14.640625 0 14.398438 0 L 9.601562 0 C 9.359375 0 9.199219 0.160156 9.199219 0.398438 L 6 0.398438 C 4.878906 0.398438 4 1.28125 4 2.398438 L 4 10 L 2.398438 10 C 1.28125 10 0.398438 10.878906 0.398438 12 L 0.398438 22 C 0.398438 23.121094 1.28125 24 2.398438 24 L 11.199219 24 C 11.859375 24 12.4375 23.695312 12.800781 23.210938 C 13.164062 23.695312 13.738281 24 14.398438 24 L 21.601562 24 C 22.71875 24 23.601562 23.121094 23.601562 22 L 23.601562 13.601562 C 23.601562 12.480469 22.71875 11.601562 21.601562 11.601562 Z M 16 12 L 20 12 L 20 16.320312 L 18.238281 14.878906 C 18.199219 14.839844 18.078125 14.800781 18 14.800781 C 17.921875 14.800781 17.800781 14.839844 17.761719 14.921875 L 16 16.359375 Z M 14 0.800781 C 14 0.871094 14.015625 0.933594 14.039062 0.988281 L 14.039062 5.160156 L 12.28125 3.71875 C 12.121094 3.601562 11.921875 3.601562 11.761719 3.71875 L 10 5.160156 L 10 0.800781 Z M 4.800781 2.398438 C 4.800781 1.71875 5.320312 1.199219 6 1.199219 L 9.199219 1.199219 L 9.199219 5.238281 C 9.199219 5.519531 9.359375 5.800781 9.640625 5.921875 C 9.921875 6.039062 10.199219 6 10.441406 5.800781 L 12 4.519531 L 13.558594 5.839844 C 13.679688 5.921875 13.878906 6 14.039062 6 C 14.160156 6 14.238281 5.960938 14.359375 5.921875 C 14.640625 5.800781 14.800781 5.519531 14.800781 5.238281 L 14.800781 1.199219 L 18 1.199219 C 18.679688 1.199219 19.199219 1.71875 19.199219 2.398438 L 19.199219 11.199219 L 15.601562 11.199219 C 15.359375 11.199219 15.199219 11.359375 15.199219 11.601562 L 14.398438 11.601562 C 14.371094 11.601562 14.34375 11.601562 14.3125 11.601562 C 13.894531 11.621094 13.511719 11.761719 13.199219 11.992188 C 13.195312 10.875 12.316406 10 11.199219 10 L 9.601562 10 C 9.601562 9.761719 9.441406 9.601562 9.199219 9.601562 L 4.800781 9.601562 Z M 4.800781 10.398438 L 8.800781 10.398438 C 8.800781 10.472656 8.8125 10.535156 8.839844 10.589844 L 8.839844 14.761719 L 7.078125 13.320312 C 6.921875 13.199219 6.71875 13.199219 6.558594 13.320312 L 4.800781 14.761719 Z M 11.199219 23.199219 L 2.398438 23.199219 C 1.71875 23.199219 1.199219 22.679688 1.199219 22 L 1.199219 12 C 1.199219 11.320312 1.71875 10.800781 2.398438 10.800781 L 4 10.800781 L 4 14.839844 C 4 15.121094 4.160156 15.398438 4.441406 15.519531 C 4.558594 15.558594 4.640625 15.601562 4.761719 15.601562 C 4.921875 15.601562 5.121094 15.519531 5.238281 15.398438 L 6.800781 14.121094 L 8.359375 15.398438 C 8.601562 15.601562 8.878906 15.640625 9.160156 15.519531 C 9.441406 15.398438 9.601562 15.121094 9.601562 14.839844 L 9.601562 10.800781 L 11.199219 10.800781 C 11.878906 10.800781 12.398438 11.320312 12.398438 12 L 12.398438 22 C 12.398438 22.679688 11.878906 23.199219 11.199219 23.199219 Z M 22.800781 22 C 22.800781 22.679688 22.28125 23.199219 21.601562 23.199219 L 14.398438 23.199219 C 13.71875 23.199219 13.199219 22.679688 13.199219 22 L 13.199219 13.601562 C 13.199219 12.921875 13.71875 12.398438 14.398438 12.398438 L 15.199219 12.398438 L 15.199219 16.441406 C 15.199219 16.71875 15.359375 17 15.640625 17.121094 C 15.921875 17.238281 16.199219 17.199219 16.441406 17 L 18 15.71875 L 19.558594 17.039062 C 19.679688 17.121094 19.878906 17.199219 20.039062 17.199219 C 20.160156 17.199219 20.238281 17.160156 20.359375 17.121094 C 20.640625 17 20.800781 16.71875 20.800781 16.441406 L 20.800781 12.398438 L 21.601562 12.398438 C 22.28125 12.398438 22.800781 12.921875 22.800781 13.601562 Z M 22.800781 22"/>
    <path d="M11.199219 21.601562L10 21.601562C9.761719 21.601562 9.601562 21.761719 9.601562 22 9.601562 22.238281 9.761719 22.398438 10 22.398438L11.199219 22.398438C11.441406 22.398438 11.601562 22.238281 11.601562 22 11.601562 21.761719 11.441406 21.601562 11.199219 21.601562zM11.199219 20L9.199219 20C8.960938 20 8.800781 20.160156 8.800781 20.398438 8.800781 20.640625 8.960938 20.800781 9.199219 20.800781L11.199219 20.800781C11.441406 20.800781 11.601562 20.640625 11.601562 20.398438 11.601562 20.160156 11.441406 20 11.199219 20zM21.601562 21.601562L20.398438 21.601562C20.160156 21.601562 20 21.761719 20 22 20 22.238281 20.160156 22.398438 20.398438 22.398438L21.601562 22.398438C21.839844 22.398438 22 22.238281 22 22 22 21.761719 21.839844 21.601562 21.601562 21.601562zM21.601562 20L19.601562 20C19.359375 20 19.199219 20.160156 19.199219 20.398438 19.199219 20.640625 19.359375 20.800781 19.601562 20.800781L21.601562 20.800781C21.839844 20.800781 22 20.640625 22 20.398438 22 20.160156 21.839844 20 21.601562 20zM21.601562 20"/>
</svg>
