<svg xmlns="http://www.w3.org/2000/svg" width="32" height="32" viewBox="0 0 24 24">
    <path d="M8.855 16.418H2.961c-.254 0-.422.168-.422.422v5.055c0 .253.168.421.422.421h5.894c.254 0 .422-.168.422-.421V16.84c0-.254-.168-.422-.422-.422zm-.421 5.055H3.379v-4.211h5.055zm0 0"/>
    <path d="M4.645 18.945h2.527c.254 0 .422-.168.422-.422 0-.253-.168-.421-.422-.421H4.645c-.254 0-.422.168-.422.421 0 .254.168.422.422.422zm0 0M4.645 20.629h1.683c.254 0 .422-.168.422-.422 0-.25-.168-.418-.422-.418H4.645c-.254 0-.422.168-.422.418 0 .254.168.422.422.422zm0 0"/>
    <path d="M23.516.578L23.348.41c-.547-.547-1.477-.547-2.067 0l-3.414 3.371h-5.219V3.36c0-.254-.168-.421-.421-.421H8.016c-.254 0-.422.167-.422.421v.422h-5.52c-1.136 0-2.062.926-2.062 2.106v16.008C.012 23.075.937 24 2.074 24h16.051c1.18 0 2.105-.926 2.105-2.105V6.246l1.993-2.008a.429.429 0 0 0 .2-.2l1.093-1.1c.632-.672.632-1.727 0-2.36zm-4 5.223l-2.739 2.738-1.77.508.59-1.813 2.778-2.738c.016-.012.027-.027.04-.039l1.823-1.805 1.215 1.211zM8.434 3.78h3.37v4.59l-1.433-1.137c-.125-.125-.336-.125-.504 0L8.434 8.371zM19.387 7.11v14.786a1.24 1.24 0 0 1-1.262 1.261H2.075c-.673 0-1.223-.547-1.223-1.261V5.887c0-.715.55-1.262 1.222-1.262h5.52v3.832c0 .293.168.59.46.715.255.129.59.129.844-.082l1.223-.969 1.223.969a.813.813 0 0 0 .504.168c.125 0 .254 0 .336-.086a.776.776 0 0 0 .464-.715V4.625h4.368l-2.094 2.063a.307.307 0 0 0-.082.167l-.887 2.696c-.043.129-.043.297.086.422l.035.035a.397.397 0 0 0 .387.09l2.652-.758c.043-.04.125-.082.168-.125zm3.582-4.761l-.926.925-1.211-1.207 1.04-1.023a.611.611 0 0 1 .886 0l.21.168c.337.297.337.8 0 1.137zm0 0"/>
</svg>
