<svg xmlns="http://www.w3.org/2000/svg" width="32" height="32" viewBox="0 0 24 24">
    <path d="M23.602 16.602h-2.61a7.481 7.481 0 0 0 1.39-3.868c.02-.039.04-.086.06-.132v-.082-.32c0-.2-.044-.4-.044-.598-.078-.801-.32-1.602-.68-2.364-.003-.008-.011-.02-.015-.031-.047-.094-.094-.191-.144-.285C20.922 7.719 19.679 7 18.32 7h-5.922v-.398c0-.68-.52-1.204-1.199-1.204H8c-.68 0-1.2.524-1.2 1.204V7H3.079C2.16 7 1.36 7.441.961 8.2.32 9.397 0 10.718 0 12.2c0 1.48.32 2.8.96 4a2.49 2.49 0 0 0 2.118 1.198h4.574A1.6 1.6 0 0 0 9.2 18.602c.742 0 1.371-.512 1.551-1.204H23.2v.801c0 .242.16.403.402.403.238 0 .398-.16.398-.403V17c0-.238-.16-.398-.398-.398zM21.078 9.8c.242.64.442 1.238.48 1.879.044.16.044.36.044.52H20c-.238 0-.398-.16-.398-.4v-1.6c0-.24.16-.4.398-.4zM7.602 6.6c0-.242.16-.402.398-.402h3.2c.241 0 .402.16.402.403V7h-4zm-5.922 9.2a6.346 6.346 0 0 1-.528-1.2H12v2h-1.238a1.753 1.753 0 0 0-.274-.546l-.015-.024c-.008-.008-.016-.015-.02-.023-.012-.012-.02-.024-.031-.035 0-.004-.004-.008-.008-.012a1.497 1.497 0 0 0-.133-.137l-.02-.02-.038-.034c-.004 0-.008-.004-.012-.008a1.56 1.56 0 0 0-.844-.352s-.004 0-.008-.004c-.023 0-.043 0-.066-.004h-.016c-.023 0-.05-.004-.078-.004-.027 0-.05.004-.078.004h-.016c-.02 0-.043.004-.066.004 0 .004-.004.004-.004.004a1.582 1.582 0 0 0-1.394 1.192H3.078c-.598 0-1.117-.32-1.398-.801zm7.52 2c-.438 0-.802-.36-.802-.801a.802.802 0 1 1 .8.8zm3.6-7.2c0-.242.16-.402.4-.402h3.198c.243 0 .403.16.403.403v6h-4zm4.802 6v-6c0-.68-.524-1.203-1.204-1.203H13.2c-.68 0-1.199.524-1.199 1.204V13.8H.95a8.28 8.28 0 0 1-.15-1.602c0-1.32.278-2.558.88-3.597.28-.48.8-.801 1.398-.801H18.32c.965 0 1.836.445 2.38 1.199H20c-.68 0-1.2.52-1.2 1.2v1.6c0 .68.52 1.2 1.2 1.2h1.59A6.982 6.982 0 0 1 20 16.602zm0 0"/>
    <path d="M4.398 9H2.801c-.68 0-1.2.52-1.2 1.2v1.6c0 .68.52 1.2 1.2 1.2h1.597c.68 0 1.204-.52 1.204-1.2v-1.6c0-.68-.524-1.2-1.204-1.2zm.403 2.8c0 .24-.16.4-.403.4H2.801c-.242 0-.403-.16-.403-.4v-1.6c0-.24.16-.4.403-.4h1.597c.243 0 .403.16.403.4zm0 0M9.2 9H7.601c-.68 0-1.204.52-1.204 1.2v1.6c0 .68.524 1.2 1.204 1.2h1.597c.68 0 1.2-.52 1.2-1.2v-1.6c0-.68-.52-1.2-1.2-1.2zm.402 2.8c0 .24-.16.4-.403.4H7.602c-.243 0-.403-.16-.403-.4v-1.6c0-.24.16-.4.403-.4h1.597c.242 0 .403.16.403.4zm0 0M16 13h-.398c-.243 0-.403.16-.403.398 0 .243.16.403.403.403H16c.238 0 .398-.16.398-.403 0-.238-.16-.398-.398-.398zm0 0"/>
</svg>
