<svg xmlns="http://www.w3.org/2000/svg" width="32" height="32" viewBox="0 0 24 24">
    <path d="M23.16 15.402h-2.762V9.004c0-.441-.359-.8-.796-.8H16.8V1.8A.801.801 0 0 0 16 1.004H9.602c-.442 0-.801.36-.801.797v6.402H6c-.441 0-.8.36-.8.8v6.4h-.802V5.362c0-.761-.238-1.52-.68-2.12L2.32 1.12C2 .601 1.281.441.762.761c-.524.36-.64 1.04-.32 1.563L1.52 4.082c.32.52.48 1.082.48 1.64v9.68H.84c-.48 0-.84.399-.84.84v4.32c0 .481.36.84.84.84h1.195c.192 1.133 1.18 2 2.363 2a2.408 2.408 0 0 0 2.368-2h10.468a2.408 2.408 0 0 0 2.368 2 2.404 2.404 0 0 0 2.363-2h1.195c.48 0 .84-.359.84-.84v-4.32c0-.48-.398-.84-.84-.84zm-3.558 0h-6.403V9.004h1.602v2c0 .238.16.398.398.398h2.403c.238 0 .398-.16.398-.398v-2h1.602zm-2.403-4.8h-1.597V9.004h1.597zM13.602 1.8v1.601H12V1.801zm-4 0h1.597v2c0 .242.16.402.403.402H14c.238 0 .398-.16.398-.402v-2H16v6.402H9.602zm-.403 7.203H10v1.598H8.398V9.004zM6 9.004h1.602v2c0 .238.16.398.398.398h2.398c.243 0 .403-.16.403-.398v-2h1.597v6.398H6zm-3.8-5.32L1.12 1.922c-.121-.16-.043-.36.078-.48.16-.079.36-.04.48.12l1.4 2.122c.362.48.523 1.078.523 1.68v10.038H2.8v-9.68c0-.718-.2-1.44-.602-2.038zM.8 16.242c0-.039 0-.039.04-.039h22.32c.04 0 .04.04.04.04v.76H.8zm3.598 6.36a1.602 1.602 0 0 1-1.597-1.598c0-.883.719-1.602 1.597-1.602.883 0 1.602.72 1.602 1.602 0 .879-.719 1.598-1.602 1.598zm15.204 0A1.603 1.603 0 0 1 18 21.004c0-.883.719-1.602 1.602-1.602.878 0 1.597.72 1.597 1.602 0 .879-.719 1.598-1.597 1.598zm3.597-2.04c0 .04-.039.04-.039.04h-1.195a2.403 2.403 0 0 0-1.38-1.786l-.046-.023-.031-.012-.078-.031a.056.056 0 0 1-.024-.008c-.027-.008-.058-.02-.086-.027-.008-.004-.015-.004-.02-.008-.03-.008-.062-.02-.093-.027-.008 0-.012-.004-.02-.004-.03-.008-.062-.016-.093-.02-.008-.004-.016-.004-.024-.008-.027-.003-.058-.011-.09-.015-.007 0-.015-.004-.027-.004l-.086-.012c-.012 0-.02 0-.031-.004-.027 0-.059-.004-.09-.008h-.027c-.04-.003-.078-.003-.117-.003-.043 0-.082 0-.122.003h-.027a.763.763 0 0 1-.09.008c-.011.004-.02.004-.031.004l-.086.012c-.012 0-.02.004-.027.004-.032.004-.063.012-.09.015-.008.004-.016.004-.024.008-.03.004-.062.012-.093.02-.004 0-.012.004-.02.004-.031.008-.062.02-.094.027-.003.004-.011.004-.015.008-.031.008-.063.02-.09.027-.008.004-.016.008-.023.008-.024.012-.051.02-.079.031-.007.004-.02.008-.03.012l-.048.023a2.403 2.403 0 0 0-1.379 1.786H6.766a2.412 2.412 0 0 0-1.38-1.786l-.046-.023c-.012-.004-.024-.008-.031-.012-.028-.011-.055-.02-.079-.031-.007 0-.015-.004-.023-.008-.027-.008-.059-.02-.09-.027-.004-.004-.012-.004-.02-.008-.027-.008-.058-.02-.09-.027-.007 0-.015-.004-.019-.004-.031-.008-.062-.016-.093-.02-.008-.004-.016-.004-.024-.008-.027-.003-.059-.011-.09-.015-.008 0-.015-.004-.027-.004l-.086-.012c-.012 0-.02 0-.031-.004-.028 0-.059-.004-.09-.004-.008-.004-.02-.004-.027-.004-.04 0-.079-.003-.122-.003l-.117.003c-.008 0-.02 0-.027.004-.031 0-.063.004-.09.004-.012.004-.02.004-.031.004l-.086.012c-.012 0-.02.004-.027.004-.032.004-.063.012-.09.015-.008.004-.016.004-.024.008-.031.004-.062.012-.094.02-.007 0-.011.004-.019.004-.031.008-.063.02-.094.027-.004.004-.011.004-.02.008-.027.008-.058.02-.085.027a.056.056 0 0 1-.024.008c-.027.012-.05.023-.078.031l-.031.012-.047.023a2.403 2.403 0 0 0-1.379 1.786H.84c-.04 0-.04 0-.04-.04v-2.761h22.4zm0 0"/>
</svg>
