<svg xmlns="http://www.w3.org/2000/svg" width="32" height="32" viewBox="0 0 24 24">
    <path d="M2.398 17.602c-.238 0-.398.16-.398.398 0 .238.16.398.398.398.243 0 .403-.16.403-.398 0-.238-.16-.398-.403-.398zm0 0M4 17.602c-.238 0-.398.16-.398.398 0 .238.16.398.398.398.238 0 .398-.16.398-.398 0-.238-.16-.398-.398-.398zm0 0M5.602 17.602c-.243 0-.403.16-.403.398 0 .238.16.398.403.398.238 0 .398-.16.398-.398 0-.238-.16-.398-.398-.398zm0 0M7.2 17.602c-.24 0-.4.16-.4.398 0 .238.16.398.4.398.241 0 .402-.16.402-.398 0-.238-.16-.398-.403-.398zm0 0M8.8 17.602c-.241 0-.402.16-.402.398 0 .238.16.398.403.398.238 0 .398-.16.398-.398 0-.238-.16-.398-.398-.398zm0 0M10.398 17.602c-.238 0-.398.16-.398.398 0 .238.16.398.398.398.243 0 .403-.16.403-.398 0-.238-.16-.398-.403-.398zm0 0M12 17.602c-.238 0-.398.16-.398.398 0 .238.16.398.398.398.238 0 .398-.16.398-.398 0-.238-.16-.398-.398-.398zm0 0M13.602 17.602c-.243 0-.403.16-.403.398 0 .238.16.398.403.398.238 0 .398-.16.398-.398 0-.238-.16-.398-.398-.398zm0 0M15.2 17.602c-.24 0-.4.16-.4.398 0 .238.16.398.4.398.241 0 .402-.16.402-.398 0-.238-.16-.398-.403-.398zm0 0M16.8 17.602c-.241 0-.402.16-.402.398 0 .238.16.398.403.398.238 0 .398-.16.398-.398 0-.238-.16-.398-.398-.398zm0 0M18.398 17.602c-.238 0-.398.16-.398.398 0 .238.16.398.398.398.243 0 .403-.16.403-.398 0-.238-.16-.398-.403-.398zm0 0M20 17.602c-.238 0-.398.16-.398.398 0 .238.16.398.398.398.238 0 .398-.16.398-.398 0-.238-.16-.398-.398-.398zm0 0M21.602 17.602c-.243 0-.403.16-.403.398 0 .238.16.398.403.398.238 0 .398-.16.398-.398 0-.238-.16-.398-.398-.398zm0 0"/>
    <path d="M22 16H12V6c0-.68-.52-1.2-1.2-1.2h-2c0-.44-.359-.8-.8-.8H5.602c-.442 0-.801.36-.801.8h-2c-.68 0-1.2.52-1.2 1.2v10.04A1.973 1.973 0 0 0 0 18c0 1.121.879 2 2 2h20c1.121 0 2-.879 2-2s-.879-2-2-2zM5.602 4.8H8v3.438L6.8 7.04l-1.198 1.2zM2.398 6c0-.238.16-.398.403-.398h2V8.52c0 .28.16.52.398.64.281.078.563.04.762-.16l.84-.84.84.84c.12.121.32.2.48.2.078 0 .16 0 .238-.04.282-.12.442-.36.442-.64V5.602h2c.238 0 .398.16.398.398v10H2.4zM22 19.2H2c-.68 0-1.2-.52-1.2-1.2 0-.68.52-1.2 1.2-1.2h20c.68 0 1.2.52 1.2 1.2 0 .68-.52 1.2-1.2 1.2zm0 0"/>
    <path d="M14.398 10.8h6.477l-1.555 1.278c-.16.121-.199.402-.039.563.078.12.2.16.32.16.079 0 .2-.04.239-.04l2.398-2a.367.367 0 0 0 .16-.32v-.015-.028c0-.199-.109-.343-.285-.386l-2.273-1.89c-.16-.161-.399-.122-.559.038-.16.16-.12.399.04.559L20.874 10h-6.477c-.238 0-.398.16-.398.398 0 .243.16.403.398.403zm0 0M6.8 12H3.603c-.243 0-.403.16-.403.398v2.403c0 .238.16.398.403.398H6.8c.238 0 .398-.16.398-.398v-2.403c0-.238-.16-.398-.398-.398zm-.402 2.398H4v-1.597h2.398zm0 0"/>
</svg>
