<svg xmlns="http://www.w3.org/2000/svg" width="32" height="32" viewBox="0 0 24 24">
    <path d="M3.601562 16.800781C2.921875 16.800781 2.398438 17.320312 2.398438 18 2.398438 18.679688 2.921875 19.199219 3.601562 19.199219 4.28125 19.199219 4.800781 18.679688 4.800781 18 4.800781 17.320312 4.28125 16.800781 3.601562 16.800781zM3.601562 18.398438C3.359375 18.398438 3.199219 18.238281 3.199219 18 3.199219 17.761719 3.359375 17.601562 3.601562 17.601562 3.839844 17.601562 4 17.761719 4 18 4 18.238281 3.839844 18.398438 3.601562 18.398438zM18 16.800781C17.320312 16.800781 16.800781 17.320312 16.800781 18 16.800781 18.679688 17.320312 19.199219 18 19.199219 18.679688 19.199219 19.199219 18.679688 19.199219 18 19.199219 17.320312 18.679688 16.800781 18 16.800781zM18 18.398438C17.761719 18.398438 17.601562 18.238281 17.601562 18 17.601562 17.761719 17.761719 17.601562 18 17.601562 18.238281 17.601562 18.398438 17.761719 18.398438 18 18.398438 18.238281 18.238281 18.398438 18 18.398438zM16.71875 9.199219L20.71875 10C20.761719 10 20.761719 10 20.800781 10 20.878906 10 21 9.960938 21.039062 9.921875 21.160156 9.839844 21.199219 9.71875 21.199219 9.601562L21.199219 6.398438C21.199219 6.160156 21.039062 6 20.800781 6L16.800781 6C16.558594 6 16.398438 6.160156 16.398438 6.398438L16.398438 8.800781C16.398438 9 16.519531 9.160156 16.71875 9.199219zM17.199219 6.800781L20.398438 6.800781 20.398438 9.121094 17.199219 8.480469zM17.199219 6.800781"/>
    <path d="M 24 13.199219 L 24 11.199219 C 24 11.128906 23.984375 11.066406 23.960938 11.011719 L 23.960938 9.199219 C 23.960938 9.160156 23.960938 9.160156 23.960938 9.121094 C 23.121094 5.199219 21.359375 3.320312 18.519531 3.199219 L 15.160156 3.199219 C 15.121094 3.199219 15.121094 3.199219 15.078125 3.199219 L 13.160156 3.199219 C 12.519531 3.199219 12 3.71875 11.960938 4.359375 L 11.640625 13.519531 C 11.640625 13.691406 11.667969 13.851562 11.722656 14 L 8.398438 14 L 8.398438 12.800781 C 8.398438 12.558594 8.238281 12.398438 8 12.398438 L 4.800781 12.398438 C 4.558594 12.398438 4.398438 12.558594 4.398438 12.800781 L 4.398438 14 L 2.960938 14 C 1.320312 14 0 15.320312 0 16.960938 L 0 18 C 0 18.238281 0.160156 18.398438 0.398438 18.398438 L 0.828125 18.398438 C 1.019531 19.765625 2.175781 20.800781 3.601562 20.800781 C 5.023438 20.800781 6.179688 19.765625 6.371094 18.398438 L 6.800781 18.398438 C 7.039062 18.398438 7.199219 18.238281 7.199219 18 L 7.199219 17.199219 L 14 17.199219 L 14 18 C 14 18.238281 14.160156 18.398438 14.398438 18.398438 L 15.226562 18.398438 C 15.417969 19.765625 16.574219 20.800781 18 20.800781 C 19.425781 20.800781 20.582031 19.765625 20.773438 18.398438 L 21.601562 18.398438 C 21.839844 18.398438 22 18.238281 22 18 L 22 17.199219 L 23.199219 17.199219 C 23.398438 17.199219 23.558594 17.039062 23.601562 16.878906 L 23.839844 15.359375 C 23.875 15.039062 23.816406 14.75 23.632812 14.492188 C 23.847656 14.285156 23.980469 13.992188 23.960938 13.679688 L 23.960938 13.390625 C 23.984375 13.335938 24 13.269531 24 13.199219 Z M 23.199219 12.800781 L 22.398438 12.800781 L 22.398438 11.601562 L 23.199219 11.601562 Z M 23.199219 9.28125 L 23.199219 10.800781 L 22 10.800781 C 21.761719 10.800781 21.601562 10.960938 21.601562 11.199219 L 21.601562 13.199219 C 21.601562 13.441406 21.761719 13.601562 22 13.601562 L 23.199219 13.601562 L 23.199219 13.679688 C 23.199219 13.839844 23.078125 14 22.878906 14 L 14.839844 14 C 14.71875 14 14.601562 13.960938 14.519531 13.878906 C 14.441406 13.800781 14.398438 13.679688 14.398438 13.558594 L 14.761719 4.398438 C 14.761719 4.199219 14.921875 4.039062 15.160156 4.039062 L 18.519531 4 C 20.960938 4.121094 22.398438 5.761719 23.199219 9.28125 Z M 12.558594 13.878906 C 12.480469 13.800781 12.441406 13.679688 12.441406 13.558594 L 12.761719 4.398438 C 12.761719 4.199219 12.960938 4.039062 13.160156 4.039062 L 13.996094 4 C 13.972656 4.0625 13.953125 4.128906 13.941406 4.195312 C 13.929688 4.25 13.921875 4.304688 13.921875 4.359375 L 13.601562 13.519531 C 13.601562 13.6875 13.625 13.84375 13.675781 13.992188 C 13.679688 13.992188 13.679688 13.996094 13.679688 14 L 12.878906 14 C 12.761719 14 12.640625 13.960938 12.558594 13.878906 Z M 7.601562 14 L 6.800781 14 L 6.800781 13.199219 L 7.601562 13.199219 Z M 5.199219 13.199219 L 6 13.199219 L 6 14 L 5.199219 14 Z M 0.800781 16.960938 C 0.800781 15.761719 1.761719 14.800781 2.960938 14.800781 L 6.398438 14.800781 L 6.359375 17.53125 C 6.15625 16.28125 5.140625 15.328125 3.863281 15.210938 C 3.851562 15.210938 3.84375 15.210938 3.832031 15.210938 C 3.800781 15.207031 3.769531 15.203125 3.734375 15.203125 C 3.691406 15.199219 3.644531 15.199219 3.601562 15.199219 C 3.554688 15.199219 3.507812 15.199219 3.464844 15.203125 C 3.429688 15.203125 3.398438 15.207031 3.367188 15.210938 C 3.355469 15.210938 3.347656 15.210938 3.335938 15.210938 C 2.035156 15.332031 1.007812 16.320312 0.828125 17.601562 L 0.800781 17.601562 Z M 3.601562 20 C 2.480469 20 1.601562 19.121094 1.601562 18 C 1.601562 16.878906 2.480469 16 3.601562 16 C 4.71875 16 5.601562 16.878906 5.601562 18 C 5.601562 19.121094 4.71875 20 3.601562 20 Z M 7.199219 16.398438 L 7.199219 14.800781 L 14.558594 14.800781 C 14.546875 14.816406 14.53125 14.832031 14.519531 14.847656 C 14.210938 15.210938 14.027344 15.667969 14.003906 16.160156 C 14.003906 16.160156 14.003906 16.164062 14.003906 16.164062 C 14 16.203125 14 16.242188 14 16.28125 L 14 16.398438 Z M 18 20 C 16.878906 20 16 19.121094 16 18 C 16 16.878906 16.878906 16 18 16 C 19.121094 16 20 16.878906 20 18 C 20 19.121094 19.121094 20 18 20 Z M 21.199219 17.601562 L 20.773438 17.601562 C 20.59375 16.320312 19.5625 15.332031 18.261719 15.210938 C 18.253906 15.210938 18.242188 15.210938 18.234375 15.210938 C 18.199219 15.207031 18.167969 15.203125 18.136719 15.203125 C 18.089844 15.203125 18.046875 15.199219 18 15.199219 C 17.953125 15.199219 17.910156 15.203125 17.863281 15.203125 C 17.832031 15.203125 17.800781 15.207031 17.765625 15.210938 C 17.757812 15.210938 17.746094 15.210938 17.738281 15.210938 C 16.4375 15.332031 15.40625 16.320312 15.226562 17.601562 L 14.800781 17.601562 L 14.800781 16.28125 C 14.800781 16.253906 14.800781 16.230469 14.800781 16.207031 C 14.804688 16.15625 14.808594 16.105469 14.816406 16.058594 C 14.835938 15.9375 14.871094 15.820312 14.917969 15.710938 C 14.9375 15.667969 14.957031 15.625 14.980469 15.582031 C 15.039062 15.476562 15.109375 15.378906 15.191406 15.292969 C 15.464844 14.992188 15.855469 14.800781 16.28125 14.800781 L 19.71875 14.800781 C 19.859375 14.800781 19.992188 14.820312 20.121094 14.859375 C 20.15625 14.886719 20.195312 14.910156 20.238281 14.921875 C 20.378906 14.964844 20.507812 15.035156 20.617188 15.113281 C 20.925781 15.355469 21.140625 15.710938 21.1875 16.109375 C 21.191406 16.121094 21.191406 16.132812 21.191406 16.144531 C 21.195312 16.160156 21.195312 16.171875 21.195312 16.1875 C 21.199219 16.21875 21.199219 16.25 21.199219 16.28125 Z M 23.078125 15.238281 L 22.878906 16.398438 L 22.039062 16.398438 L 22.039062 16.28125 C 22.039062 15.71875 21.839844 15.199219 21.480469 14.800781 L 22.71875 14.800781 C 22.878906 14.800781 22.960938 14.878906 23 14.921875 C 23.039062 15 23.121094 15.078125 23.078125 15.238281 Z M 23.078125 15.238281"/>
    <path d="M 16.800781 11.601562 L 17.601562 11.601562 C 17.839844 11.601562 18 11.441406 18 11.199219 C 18 10.960938 17.839844 10.800781 17.601562 10.800781 L 16.800781 10.800781 C 16.558594 10.800781 16.398438 10.960938 16.398438 11.199219 C 16.398438 11.441406 16.558594 11.601562 16.800781 11.601562 Z M 16.800781 11.601562"/>
</svg>
