<svg xmlns="http://www.w3.org/2000/svg" width="32" height="32" viewBox="0 0 24 24">
    <path d="M22.563 2.395h-5.989l-.523-1.52c-.156-.637-.797-.996-1.438-.836L1.117 3.113c-.64.2-1 .84-.84 1.477L5.23 23.12c.079.32.278.559.56.719.198.12.397.16.597.16.082 0 .199-.04.32-.04l1.094-.28c.207.175.48.28.785.28h13.976c.68 0 1.2-.519 1.2-1.198V3.594c0-.68-.52-1.2-1.2-1.2zM6.508 23.203a.417.417 0 0 1-.32-.043c-.122-.039-.16-.117-.2-.238L1.035 4.39a.463.463 0 0 1 .281-.52L14.812.797h.122c.16 0 .32.121.441.32l.438 1.278H8.585c-.68 0-1.2.52-1.2 1.199v19.168c0 .07.005.14.016.207zm16.453-.441c0 .238-.16.398-.398.398H8.585a.388.388 0 0 1-.281-.101L8.265 23c-.038-.078-.081-.16-.081-.238V3.594c0-.078.015-.145.046-.2.063-.124.188-.203.356-.203h13.976c.239 0 .399.16.399.403zm0 0"/>
    <path d="M14.574 4.79h6.79v11.542c0 .238.16.398.398.398.242 0 .402-.16.402-.398V4.391c0-.239-.16-.399-.402-.399h-7.188c-.238 0-.398.16-.398.399 0 .238.16.398.398.398zm0 0M17.371 21.563l-7.59.042V10.023c0-.242-.16-.402-.398-.402-.238 0-.399.16-.399.402v11.98c0 .118.04.2.121.278a.348.348 0 0 0 .278.121l7.988-.039c.238 0 .399-.16.399-.398 0-.242-.16-.402-.399-.402zm0 0"/>
    <path d="M19.848 15.934c.52-.52.757-1.2.718-1.918-.039-.84-.52-1.598-1.32-2.079a2.322 2.322 0 0 0-1.156-.437c.16-.441.2-.957.078-1.52-.2-1.035-.996-1.875-2.035-2.074-.801-.199-1.598 0-2.238.52a2.673 2.673 0 0 0-.997 2.074c0 .36.04.719.16 1-.402 0-.761.16-1.16.398-.796.52-1.277 1.278-1.316 2.079-.039.68.2 1.398.719 1.918.52.558 1.238.875 1.996.875.2 0 .36 0 .558-.079l-.277.88c-.082.16-.043.359.04.519.077.16.277.277.476.277h2.957c.199 0 .36-.117.52-.238a.484.484 0 0 0 .038-.52l-.359-.879c.2.04.398.082.602.082.718 0 1.476-.32 1.996-.878zm-1.996.039a2.09 2.09 0 0 1-1.04-.32.5.5 0 0 0-.519.038l-.242.204.64 1.675h-2.316l.559-1.398c.039-.16 0-.36-.16-.48l-.278-.157-.242.156c-.316.204-.637.32-.918.32a1.935 1.935 0 0 1-1.438-.636c-.32-.402-.52-.879-.476-1.36.039-.558.398-1.078.957-1.437.48-.281.879-.36 1.355-.238l1.2.277-.797-.918c-.242-.281-.36-.68-.36-1.199 0-.559.239-1.078.68-1.438.438-.359.996-.476 1.555-.359.68.16 1.277.719 1.398 1.438.082.441.082 1.078-.32 1.558l-.797.918 1.2-.277c.437-.121.796-.121 1.355.238.597.36.918.879.96 1.438 0 .48-.16.957-.519 1.316-.402.402-.922.64-1.437.64zm0 0M9.223 7.906c.199.117.441.04.52-.16l.382-.762c.016 0 .035.004.059.004h1.593c.024 0 .043-.004.059-.004l.383.762c.078.16.199.238.36.238.077 0 .12 0 .237-.078.16-.082.243-.32.16-.52L11.38 4.192c-.117-.28-.598-.28-.719 0L9.062 7.387c-.117.199-.039.437.16.52zM10.98 5.27l.461.918h-.921zm0 0M21.965 18.45c-.203-.122-.442-.04-.52.16l-.386.765a.648.648 0 0 0-.094-.008h-1.598c-.027 0-.05.004-.078.008l-.402-.805c-.078-.16-.317-.242-.52-.16-.156.078-.238.317-.156.52l1.594 3.191.03.05c0 .005 0 .005.005.009a.392.392 0 0 0 .18.156c.035.027.078.027.148.027.039 0 .07 0 .098-.011a.44.44 0 0 0 .261-.188l1.598-3.195c.117-.2.04-.442-.16-.52zm-1.79 2.695l-.488-.977h.977zm0 0M5.59 15.176c-.442-1.68-.918-3.356-1.36-4.992-.039-.204-.277-.32-.48-.282-.2.04-.316.282-.277.48a810.93 810.93 0 0 1 1.316 4.993c.48 1.715.961 3.434 1.399 5.11.082.16.238.28.398.28h.121c.2-.038.32-.28.281-.48-.48-1.715-.922-3.394-1.398-5.11zm0 0M3.633 7.984l.172-.836h.027l1.559-.402a.265.265 0 0 0 .078-.027l.52.586c.16.16.398.203.558.043.16-.16.2-.403.039-.559L4.23 4.113c-.078-.12-.238-.16-.398-.12a.461.461 0 0 0-.281.32l-.719 3.511a.415.415 0 0 0 .32.48h.082c.157 0 .36-.12.399-.32zm1.262-1.918l-.915.23.211-1.026zm0 0"/>
</svg>
