<svg xmlns="http://www.w3.org/2000/svg" width="32" height="32" viewBox="0 0 24 24">
    <path d="M23.777 14.363c-.722-.96-1.441-.96-3.203-.043l-3.441 2.121c-.48.282-1.563.364-2.563.364.2-.364.121-.801-.242-1.325a3.398 3.398 0 0 0-.984-.933l2.668-2.668a.385.385 0 0 0 0-.559l-4.524-4.523a.39.39 0 0 0-.562 0L6.402 11.32a.391.391 0 0 0 0 .559l1.653 1.648a3.8 3.8 0 0 1-.45-.285c-1.445-1.086-3.703.094-4.804.797v-.84H0v10.41h2.8v-1.203h5.204c.8 0 1.644-.078 2.441-.12l5.207-.798c.2 0 .399-.043.559-.082.48-.078.922-.32 1.32-.68l6.043-4.765c.48-.399.563-1.117.203-1.598zm-16.53-2.761l3.96-3.965 3.965 3.965-2.59 2.585A3.551 3.551 0 0 0 11.449 14H9.887c-.082 0-.168-.004-.25-.008zM2 22.809H.8V14H2zm21.094-7.446l-6.082 4.723-.04.039a1.39 1.39 0 0 1-.921.48c-.16.04-.281.04-.442.04l-5.28.8c-.763.121-1.563.16-2.325.16H2.8v-6.601c.96-.684 3.203-1.965 4.324-1.121.68.535 1.555.847 2.45.906.105.012.206.012.312.012h1.562c.918 0 1.758.441 2.281 1.16.16.242.2.48.16.562-.12.2-.6.282-1.12.32H8.484c-1.238 0-2 .602-2 1.602 0 .239.16.399.399.399.242 0 .402-.16.402-.399 0-.199 0-.8 1.2-.8h4.523c1.883.039 3.644 0 4.562-.48l3.446-2.122c1.68-.84 1.84-.64 2.16-.16.078.12.078.36-.082.48zm0 0"/>
    <path d="M8.688 11.32a.385.385 0 0 0 0 .559c.16.16.398.16.558 0a.475.475 0 0 0 0-.559.385.385 0 0 0-.559 0zm0 0M11.488 11.879a.385.385 0 0 0 0-.559.39.39 0 0 0-.562 0 .385.385 0 0 0 0 .559c.16.16.402.16.562 0zm0 0M13.77 11.879a.385.385 0 0 0 0-.559.39.39 0 0 0-.563 0 .388.388 0 0 0 0 .559c.16.16.402.16.563 0zm0 0M15.21 7.598h6.403c.242 0 .403-.16.403-.403V.793c0-.242-.16-.402-.403-.402h-6.402c-.242 0-.402.16-.402.402v6.402c0 .242.16.403.402.403zm.4-6.407h5.605v5.606h-5.606zm0 0"/>
    <path d="M16.813 1.992c-.243 0-.403.16-.403.403 0 .238.16.398.402.398.239 0 .399-.16.399-.398 0-.243-.16-.403-.398-.403zm0 0M20.012 1.992c-.239 0-.399.16-.399.403 0 .238.16.398.399.398.242 0 .402-.16.402-.398 0-.243-.16-.403-.402-.403zm0 0M16.813 5.195c-.243 0-.403.16-.403.399 0 .242.16.402.402.402.239 0 .399-.16.399-.402 0-.239-.16-.399-.398-.399zm0 0M18.414 3.594c-.242 0-.402.16-.402.402 0 .238.16.399.402.399.238 0 .398-.16.398-.399 0-.242-.16-.402-.398-.402zm0 0M20.012 5.195c-.239 0-.399.16-.399.399 0 .242.16.402.399.402.242 0 .402-.16.402-.402 0-.239-.16-.399-.402-.399zm0 0"/>
</svg>
