<svg xmlns="http://www.w3.org/2000/svg" width="32" height="32" viewBox="0 0 24 24">
    <path d="M2 17.800781C1.761719 17.800781 1.601562 17.960938 1.601562 18.199219 1.601562 18.441406 1.761719 18.601562 2 18.601562 2.238281 18.601562 2.398438 18.441406 2.398438 18.199219 2.398438 17.960938 2.238281 17.800781 2 17.800781zM5.199219 18.601562C5.441406 18.601562 5.601562 18.441406 5.601562 18.199219 5.601562 17.960938 5.441406 17.800781 5.199219 17.800781 4.960938 17.800781 4.800781 17.960938 4.800781 18.199219 4.800781 18.441406 4.960938 18.601562 5.199219 18.601562zM2 21C1.761719 21 1.601562 21.160156 1.601562 21.398438 1.601562 21.640625 1.761719 21.800781 2 21.800781 2.238281 21.800781 2.398438 21.640625 2.398438 21.398438 2.398438 21.160156 2.238281 21 2 21zM5.199219 21.800781C5.441406 21.800781 5.601562 21.640625 5.601562 21.398438 5.601562 21.160156 5.441406 21 5.199219 21 4.960938 21 4.800781 21.160156 4.800781 21.398438 4.800781 21.640625 4.960938 21.800781 5.199219 21.800781zM5.199219 21.800781"/>
    <path d="M 9.601562 9.800781 L 7.601562 9.800781 L 7.601562 3.800781 C 7.601562 3.558594 7.441406 3.398438 7.199219 3.398438 L 0.800781 3.398438 C 0.558594 3.398438 0.398438 3.558594 0.398438 3.800781 L 0.398438 10.199219 C 0.398438 10.441406 0.558594 10.601562 0.800781 10.601562 L 2.800781 10.601562 L 2.800781 16.199219 L 0.398438 16.199219 C 0.160156 16.199219 0 16.359375 0 16.601562 L 0 23 C 0 23.238281 0.160156 23.398438 0.398438 23.398438 L 6.800781 23.398438 C 7.039062 23.398438 7.199219 23.238281 7.199219 23 L 7.199219 17 L 9.601562 17 C 9.839844 17 10 16.839844 10 16.601562 L 10 10.199219 C 10 9.960938 9.839844 9.800781 9.601562 9.800781 Z M 1.199219 4.199219 L 6.800781 4.199219 L 6.800781 9.800781 L 1.199219 9.800781 Z M 6.398438 22.601562 L 0.800781 22.601562 L 0.800781 17 L 6.398438 17 Z M 9.199219 16.199219 L 3.601562 16.199219 L 3.601562 10.601562 L 9.199219 10.601562 Z M 9.199219 16.199219"/>
    <path d="M4.800781 11.398438C4.558594 11.398438 4.398438 11.558594 4.398438 11.800781 4.398438 12.039062 4.558594 12.199219 4.800781 12.199219 5.039062 12.199219 5.199219 12.039062 5.199219 11.800781 5.199219 11.558594 5.039062 11.398438 4.800781 11.398438zM6.398438 13C6.160156 13 6 13.160156 6 13.398438 6 13.640625 6.160156 13.800781 6.398438 13.800781 6.640625 13.800781 6.800781 13.640625 6.800781 13.398438 6.800781 13.160156 6.640625 13 6.398438 13zM8 15.398438C8.238281 15.398438 8.398438 15.238281 8.398438 15 8.398438 14.761719 8.238281 14.601562 8 14.601562 7.761719 14.601562 7.601562 14.761719 7.601562 15 7.601562 15.238281 7.761719 15.398438 8 15.398438zM4 7.398438C4.238281 7.398438 4.398438 7.238281 4.398438 7 4.398438 6.761719 4.238281 6.601562 4 6.601562 3.761719 6.601562 3.601562 6.761719 3.601562 7 3.601562 7.238281 3.761719 7.398438 4 7.398438zM15.480469 10.320312L20 5.800781C20.078125 5.71875 20.121094 5.640625 20.121094 5.519531 20.121094 5.398438 20.078125 5.320312 20 5.238281L15.480469.71875C15.320312.558594 15.078125.558594 14.921875.71875L10.398438 5.238281C10.320312 5.320312 10.28125 5.398438 10.28125 5.519531 10.28125 5.640625 10.320312 5.71875 10.398438 5.800781L14.921875 10.320312C15 10.398438 15.078125 10.441406 15.199219 10.441406 15.320312 10.441406 15.398438 10.398438 15.480469 10.320312zM11.238281 5.519531L15.199219 1.558594 19.160156 5.519531 15.199219 9.480469zM11.238281 5.519531"/>
    <path d="M15.480469 3.558594C15.640625 3.398438 15.640625 3.160156 15.480469 3 15.320312 2.839844 15.078125 2.839844 14.921875 3 14.761719 3.160156 14.761719 3.398438 14.921875 3.558594 15.078125 3.71875 15.320312 3.71875 15.480469 3.558594zM17.761719 5.800781C17.921875 5.640625 17.921875 5.398438 17.761719 5.238281 17.601562 5.078125 17.359375 5.078125 17.199219 5.238281 17.039062 5.398438 17.039062 5.640625 17.199219 5.800781 17.320312 5.960938 17.601562 5.960938 17.761719 5.800781zM12.679688 5.238281C12.519531 5.398438 12.519531 5.640625 12.679688 5.800781 12.800781 5.960938 13.078125 5.960938 13.238281 5.800781 13.398438 5.640625 13.398438 5.398438 13.238281 5.238281 13.078125 5.078125 12.839844 5.078125 12.679688 5.238281zM13.800781 6.359375C13.640625 6.519531 13.640625 6.761719 13.800781 6.921875 13.960938 7.078125 14.199219 7.078125 14.359375 6.921875 14.519531 6.761719 14.519531 6.519531 14.359375 6.359375 14.199219 6.199219 13.960938 6.199219 13.800781 6.359375zM16.601562 4.679688C16.761719 4.519531 16.761719 4.28125 16.601562 4.121094 16.441406 3.960938 16.199219 3.960938 16.039062 4.121094 15.878906 4.28125 15.878906 4.519531 16.039062 4.679688 16.199219 4.839844 16.441406 4.839844 16.601562 4.679688zM15.480469 8.078125C15.640625 7.921875 15.640625 7.679688 15.480469 7.519531 15.320312 7.359375 15.078125 7.359375 14.921875 7.519531 14.761719 7.679688 14.761719 7.921875 14.921875 8.078125 15.078125 8.238281 15.320312 8.238281 15.480469 8.078125zM16.800781 18.199219C16.800781 18.441406 16.960938 18.601562 17.199219 18.601562 17.441406 18.601562 17.601562 18.441406 17.601562 18.199219 17.601562 17.960938 17.441406 17.800781 17.199219 17.800781 16.960938 17.800781 16.800781 17.960938 16.800781 18.199219zM20.398438 18.601562C20.640625 18.601562 20.800781 18.441406 20.800781 18.199219 20.800781 17.960938 20.640625 17.800781 20.398438 17.800781 20.160156 17.800781 20 17.960938 20 18.199219 20 18.441406 20.160156 18.601562 20.398438 18.601562zM17.199219 21C16.960938 21 16.800781 21.160156 16.800781 21.398438 16.800781 21.640625 16.960938 21.800781 17.199219 21.800781 17.441406 21.800781 17.601562 21.640625 17.601562 21.398438 17.601562 21.160156 17.441406 21 17.199219 21zM18.800781 20.199219C19.039062 20.199219 19.199219 20.039062 19.199219 19.800781 19.199219 19.558594 19.039062 19.398438 18.800781 19.398438 18.558594 19.398438 18.398438 19.558594 18.398438 19.800781 18.398438 20.039062 18.558594 20.199219 18.800781 20.199219zM20.398438 21.800781C20.640625 21.800781 20.800781 21.640625 20.800781 21.398438 20.800781 21.160156 20.640625 21 20.398438 21 20.160156 21 20 21.160156 20 21.398438 20 21.640625 20.160156 21.800781 20.398438 21.800781zM20.398438 21.800781"/>
    <path d="M 23.601562 9.800781 L 17.199219 9.800781 C 16.960938 9.800781 16.800781 9.960938 16.800781 10.199219 L 16.800781 16.199219 L 15.601562 16.199219 C 15.359375 16.199219 15.199219 16.359375 15.199219 16.601562 L 15.199219 23 C 15.199219 23.238281 15.359375 23.398438 15.601562 23.398438 L 22 23.398438 C 22.238281 23.398438 22.398438 23.238281 22.398438 23 L 22.398438 17 L 23.601562 17 C 23.839844 17 24 16.839844 24 16.601562 L 24 10.199219 C 24 9.960938 23.839844 9.800781 23.601562 9.800781 Z M 21.601562 22.601562 L 16 22.601562 L 16 17 L 21.601562 17 Z M 23.199219 16.199219 L 17.601562 16.199219 L 17.601562 10.601562 L 23.199219 10.601562 Z M 23.199219 16.199219"/>
    <path d="M18.800781 12.199219C19.039062 12.199219 19.199219 12.039062 19.199219 11.800781 19.199219 11.558594 19.039062 11.398438 18.800781 11.398438 18.558594 11.398438 18.398438 11.558594 18.398438 11.800781 18.398438 12.039062 18.558594 12.199219 18.800781 12.199219zM22 15.398438C22.238281 15.398438 22.398438 15.238281 22.398438 15 22.398438 14.761719 22.238281 14.601562 22 14.601562 21.761719 14.601562 21.601562 14.761719 21.601562 15 21.601562 15.238281 21.761719 15.398438 22 15.398438zM22 15.398438"/>
</svg>
