<svg xmlns="http://www.w3.org/2000/svg" width="32" height="32" viewBox="0 0 24 24">
    <path d="M 20.4375 4.03125 C 19.675781 3.390625 18.753906 3.109375 17.351562 3.109375 C 17.113281 3.109375 16.953125 3.269531 16.953125 3.507812 C 16.953125 3.75 17.113281 3.910156 17.351562 3.910156 C 18.511719 3.910156 19.3125 4.109375 19.914062 4.671875 C 21.117188 5.671875 21.71875 7.515625 21.355469 9.078125 C 21.355469 9.195312 21.316406 9.316406 21.277344 9.476562 C 21.195312 9.675781 21.355469 9.917969 21.558594 9.957031 C 21.558594 9.957031 21.597656 9.957031 21.636719 9.957031 C 21.835938 9.957031 21.996094 9.835938 22.039062 9.675781 C 22.078125 9.515625 22.117188 9.355469 22.15625 9.238281 C 22.558594 7.394531 21.835938 5.191406 20.4375 4.03125 Z M 20.4375 4.03125"/>
    <path d="M 22.359375 3.308594 C 20.714844 1.585938 18.992188 0.707031 17.113281 0.707031 C 14.988281 0.707031 13.105469 1.988281 11.984375 4.109375 C 10.902344 1.988281 8.980469 0.707031 6.898438 0.707031 C 5.015625 0.707031 3.335938 1.546875 1.652344 3.308594 C -0.269531 5.3125 -1.070312 9.917969 2.375 13.363281 C 4.015625 15.003906 11.625 22.933594 11.703125 23.015625 L 11.984375 23.292969 L 12.304688 23.015625 C 12.386719 22.933594 19.996094 15.003906 21.636719 13.363281 C 23.597656 11.359375 24 9.238281 24 7.792969 C 24 6.074219 23.359375 4.390625 22.359375 3.308594 Z M 21.078125 12.800781 C 19.632812 14.242188 13.425781 20.652344 12.023438 22.132812 C 10.625 20.691406 4.414062 14.242188 2.972656 12.800781 C -0.109375 9.71875 0.570312 5.632812 2.253906 3.871094 C 3.734375 2.308594 5.257812 1.546875 6.898438 1.546875 C 8.902344 1.546875 10.703125 2.949219 11.625 5.230469 L 11.984375 6.191406 L 12.34375 5.273438 C 13.265625 2.988281 15.070312 1.546875 17.113281 1.546875 C 18.792969 1.546875 20.316406 2.308594 21.796875 3.871094 C 23.4375 5.632812 24.121094 9.757812 21.078125 12.800781 Z M 21.078125 12.800781"/>
</svg>
