<svg xmlns="http://www.w3.org/2000/svg" width="32" height="32" viewBox="0 0 24 24">
    <path d="M19.602 0H4.398C3.718 0 3.2.52 3.2 1.2v21.6c0 .68.52 1.2 1.2 1.2h15.203c.68 0 1.199-.52 1.199-1.2V1.2c0-.68-.52-1.2-1.2-1.2zM20 22.8c0 .24-.16.4-.398.4H4.398c-.238 0-.398-.16-.398-.4V1.2c0-.24.16-.4.398-.4h15.204c.238 0 .398.16.398.4zm0 0"/>
    <path d="M16.121 12.602c-.48-.282-.96-.442-1.441-.48.242-.52.28-1.122.199-1.68a2.936 2.936 0 0 0-2.32-2.403 2.91 2.91 0 0 0-2.48.602A2.96 2.96 0 0 0 9 10.92c0 .4.078.798.238 1.157a3.17 3.17 0 0 0-1.398.48c-.88.563-1.442 1.403-1.48 2.32-.04.802.242 1.563.8 2.161.559.602 1.399.961 2.238.961.32 0 .641-.04.922-.16-.082.719-.242 1.32-.32 1.52-.04.16 0 .32.078.44.121.122.242.2.402.2h3c.16 0 .32-.078.399-.16.082-.121.121-.281.082-.442a8.125 8.125 0 0 1-.32-1.52c.28.122.597.161.918.161.84 0 1.64-.32 2.242-.96.558-.599.84-1.36.8-2.157-.081-.922-.601-1.762-1.48-2.32zm.117 3.878a2.382 2.382 0 0 1-1.68.72c-.398 0-.796-.122-1.117-.36l-.64-.442v.801c0 .762.16 1.52.277 2h-2.156c.117-.48.277-1.238.277-2v-.8l-.597.44a1.89 1.89 0 0 1-1.122.36c-.64 0-1.242-.238-1.68-.719-.402-.44-.6-1-.562-1.558.043-.64.48-1.281 1.121-1.684A2.19 2.19 0 0 1 10 12.961l1.2.277-.802-.918c-.32-.398-.52-.879-.52-1.398 0-.684.321-1.281.802-1.684a2.246 2.246 0 0 1 1.8-.437c.84.199 1.52.879 1.68 1.758.121.64-.082 1.28-.48 1.761l-.801.918 1.2-.277c.6-.16 1.16-.082 1.683.277.636.442 1.039 1.043 1.078 1.684 0 .558-.2 1.117-.602 1.558zm0 0M7.602 5.602c0-.477-.215-.907-.547-1.204.332-.293.547-.722.547-1.199 0-.879-.723-1.597-1.602-1.597-.2 0-.36.039-.52.078-.242.082-.44.242-.64.441a.385.385 0 0 0 0 .559c.16.16.398.16.558 0 .122-.121.243-.2.32-.239.083-.043.204-.043.282-.043A.802.802 0 0 1 6 4h-.398c-.243 0-.403.16-.403.398 0 .243.16.403.403.403H6c.441 0 .8.36.8.8 0 .438-.359.797-.8.797-.281 0-.48-.16-.602-.277a.385.385 0 0 0-.558 0 .385.385 0 0 0 0 .559c.32.36.719.52 1.16.52.879 0 1.602-.72 1.602-1.598zm0 0"/>
</svg>
