<svg xmlns="http://www.w3.org/2000/svg" width="32" height="32" viewBox="0 0 24 24">
    <path d="M19.602 0H4.398C3.718 0 3.2.52 3.2 1.2v21.6c0 .68.52 1.2 1.2 1.2h15.203c.68 0 1.199-.52 1.199-1.2V1.2c0-.68-.52-1.2-1.2-1.2zM20 22.8c0 .24-.16.4-.398.4H4.398c-.238 0-.398-.16-.398-.4V1.2c0-.24.16-.4.398-.4h15.204c.238 0 .398.16.398.4zm0 0"/>
    <path d="M6.68 14.398L12 21.04l5.32-6.64L12 7.761zM12 19.762l-4.281-5.364L12 9.04l4.281 5.36zm0 0M8 5.2V2.397h.398c.243 0 .403-.16.403-.398 0-.238-.16-.398-.403-.398H6.801c-.242 0-.403.16-.403.398 0 .238.16.398.403.398h.398V5.2c0 .442-.36.801-.8.801a.801.801 0 0 1-.797-.8c0-.24-.16-.4-.403-.4-.238 0-.398.16-.398.4 0 .878.719 1.6 1.597 1.6C7.281 6.8 8 6.079 8 5.2zm0 0"/>
</svg>
