<svg xmlns="http://www.w3.org/2000/svg" width="32" height="32" viewBox="0 0 24 24">
    <path d="M6.68 14.398L12 21.04l5.32-6.64L12 7.761zM12 19.762l-4.281-5.364L12 9.04l4.281 5.36zm0 0M7.602 7.2C7.84 7.2 8 7.04 8 6.8v-.402C8 6.16 7.84 6 7.602 6c-.243 0-.403.16-.403.398H5.855a14.155 14.155 0 0 1 1.625-2.32l.079-.117c.043 0 .043-.04.043-.04.32-.48.359-1.081.078-1.562-.239-.48-.72-.757-1.282-.757-.878 0-1.597.718-1.597 1.597 0 .242.16.403.398.403.242 0 .403-.16.403-.403 0-.437.359-.8.796-.8.364 0 .524.242.563.363.078.16.16.437 0 .718l-.082.122A17.243 17.243 0 0 0 4.977 6.46a.382.382 0 0 0-.176.34c0 .191.101.332.27.383.03.015.07.015.128.015zm0 0"/>
    <path d="M19.602 0H4.398C3.718 0 3.2.52 3.2 1.2v21.6c0 .68.52 1.2 1.2 1.2h15.203c.68 0 1.199-.52 1.199-1.2V1.2c0-.68-.52-1.2-1.2-1.2zM20 22.8c0 .24-.16.4-.398.4H4.398c-.238 0-.398-.16-.398-.4V1.2c0-.24.16-.4.398-.4h15.204c.238 0 .398.16.398.4zm0 0"/>
</svg>
