<svg xmlns="http://www.w3.org/2000/svg" width="32" height="32" viewBox="0 0 24 24">
    <path d="M 22.5625 2.394531 L 16.574219 2.394531 L 16.050781 0.875 C 15.894531 0.238281 15.253906 -0.121094 14.613281 0.0390625 L 1.117188 3.113281 C 0.476562 3.3125 0.117188 3.953125 0.277344 4.589844 L 5.230469 23.121094 C 5.308594 23.441406 5.507812 23.679688 5.789062 23.839844 C 5.988281 23.960938 6.1875 24 6.386719 24 C 6.46875 24 6.585938 23.960938 6.707031 23.960938 L 7.800781 23.679688 C 8.007812 23.855469 8.28125 23.960938 8.585938 23.960938 L 22.5625 23.960938 C 23.242188 23.960938 23.761719 23.441406 23.761719 22.761719 L 23.761719 3.59375 C 23.761719 2.914062 23.242188 2.394531 22.5625 2.394531 Z M 6.507812 23.203125 C 6.386719 23.242188 6.269531 23.203125 6.1875 23.160156 C 6.066406 23.121094 6.027344 23.042969 5.988281 22.921875 L 1.035156 4.390625 C 0.996094 4.152344 1.117188 3.953125 1.316406 3.871094 L 14.8125 0.796875 C 14.855469 0.796875 14.894531 0.796875 14.933594 0.796875 C 15.09375 0.796875 15.253906 0.917969 15.375 1.117188 L 15.8125 2.394531 L 8.585938 2.394531 C 7.90625 2.394531 7.386719 2.914062 7.386719 3.59375 L 7.386719 22.761719 C 7.386719 22.832031 7.390625 22.902344 7.402344 22.96875 Z M 22.960938 22.761719 C 22.960938 23 22.800781 23.160156 22.5625 23.160156 L 8.585938 23.160156 C 8.46875 23.160156 8.371094 23.125 8.304688 23.058594 L 8.265625 23 C 8.226562 22.921875 8.183594 22.839844 8.183594 22.761719 L 8.183594 3.59375 C 8.183594 3.515625 8.199219 3.449219 8.230469 3.394531 C 8.292969 3.269531 8.417969 3.191406 8.585938 3.191406 L 22.5625 3.191406 C 22.800781 3.191406 22.960938 3.351562 22.960938 3.59375 Z M 22.960938 22.761719"/>
    <path d="M14.574219 4.789062L21.363281 4.789062 21.363281 16.332031C21.363281 16.570312 21.523438 16.730469 21.761719 16.730469 22.003906 16.730469 22.164062 16.570312 22.164062 16.332031L22.164062 4.390625C22.164062 4.152344 22.003906 3.992188 21.761719 3.992188L14.574219 3.992188C14.335938 3.992188 14.175781 4.152344 14.175781 4.390625 14.175781 4.628906 14.335938 4.789062 14.574219 4.789062zM17.371094 21.5625L9.78125 21.605469 9.78125 10.023438C9.78125 9.78125 9.621094 9.621094 9.382812 9.621094 9.144531 9.621094 8.984375 9.78125 8.984375 10.023438L8.984375 22.003906C8.984375 22.121094 9.023438 22.203125 9.105469 22.28125 9.183594 22.363281 9.261719 22.402344 9.382812 22.402344L17.371094 22.363281C17.609375 22.363281 17.769531 22.203125 17.769531 21.964844 17.769531 21.722656 17.609375 21.5625 17.371094 21.5625zM17.371094 21.5625"/>
    <path d="M19.847656 15.933594C20.367188 15.414062 20.605469 14.734375 20.566406 14.015625 20.527344 13.175781 20.046875 12.417969 19.246094 11.9375 18.847656 11.660156 18.488281 11.539062 18.089844 11.5 18.25 11.058594 18.289062 10.542969 18.167969 9.980469 17.96875 8.945312 17.171875 8.105469 16.132812 7.90625 15.332031 7.707031 14.535156 7.90625 13.894531 8.425781 13.257812 8.945312 12.898438 9.703125 12.898438 10.5 12.898438 10.859375 12.9375 11.21875 13.058594 11.5 12.65625 11.5 12.296875 11.660156 11.898438 11.898438 11.101562 12.417969 10.621094 13.136719 10.582031 13.976562 10.542969 14.65625 10.78125 15.375 11.300781 15.894531 11.820312 16.453125 12.539062 16.769531 13.296875 16.769531 13.496094 16.769531 13.65625 16.769531 13.855469 16.691406L13.578125 17.570312C13.496094 17.730469 13.535156 17.929688 13.617188 18.089844 13.695312 18.25 13.894531 18.367188 14.09375 18.367188L17.050781 18.367188C17.25 18.367188 17.410156 18.25 17.570312 18.128906 17.691406 17.96875 17.691406 17.769531 17.609375 17.609375L17.25 16.730469C17.449219 16.769531 17.648438 16.8125 17.851562 16.8125 18.570312 16.8125 19.328125 16.492188 19.847656 15.933594zM17.851562 15.972656C17.53125 15.972656 17.128906 15.851562 16.8125 15.652344 16.652344 15.574219 16.453125 15.574219 16.292969 15.691406L16.050781 15.894531 16.691406 17.570312 14.375 17.570312 14.933594 16.171875C14.972656 16.011719 14.933594 15.8125 14.773438 15.691406L14.496094 15.535156 14.253906 15.691406C13.9375 15.894531 13.617188 16.011719 13.335938 16.011719 12.777344 16.011719 12.257812 15.773438 11.898438 15.375 11.578125 14.972656 11.378906 14.496094 11.421875 14.015625 11.460938 13.457031 11.820312 12.9375 12.378906 12.578125 12.859375 12.296875 13.257812 12.21875 13.734375 12.339844L14.933594 12.617188 14.136719 11.699219C13.894531 11.417969 13.777344 11.019531 13.777344 10.5 13.777344 9.941406 14.015625 9.421875 14.457031 9.0625 14.894531 8.703125 15.453125 8.585938 16.011719 8.703125 16.691406 8.863281 17.289062 9.421875 17.410156 10.140625 17.492188 10.582031 17.492188 11.21875 17.089844 11.699219L16.292969 12.617188 17.492188 12.339844C17.929688 12.21875 18.289062 12.21875 18.847656 12.578125 19.445312 12.9375 19.765625 13.457031 19.808594 14.015625 19.808594 14.496094 19.648438 14.972656 19.289062 15.332031 18.886719 15.734375 18.367188 15.972656 17.851562 15.972656zM5.589844 15.175781C5.148438 13.496094 4.671875 11.820312 4.230469 10.183594 4.191406 9.980469 3.953125 9.863281 3.75 9.902344 3.550781 9.941406 3.433594 10.183594 3.472656 10.382812 3.910156 12.019531 4.351562 13.695312 4.789062 15.375 5.269531 17.089844 5.75 18.808594 6.1875 20.484375 6.269531 20.644531 6.425781 20.765625 6.585938 20.765625 6.628906 20.765625 6.667969 20.765625 6.707031 20.765625 6.90625 20.726562 7.027344 20.484375 6.988281 20.285156 6.507812 18.570312 6.066406 16.890625 5.589844 15.175781zM3.632812 7.984375L3.804688 7.148438C3.820312 7.148438 3.832031 7.148438 3.832031 7.148438L5.390625 6.746094C5.417969 6.742188 5.445312 6.730469 5.46875 6.71875L5.988281 7.304688C6.148438 7.464844 6.386719 7.507812 6.546875 7.347656 6.707031 7.1875 6.746094 6.945312 6.585938 6.789062L4.230469 4.113281C4.152344 3.992188 3.992188 3.953125 3.832031 3.992188 3.710938 4.03125 3.59375 4.152344 3.550781 4.3125L2.832031 7.824219C2.792969 8.066406 2.953125 8.265625 3.152344 8.304688 3.191406 8.304688 3.191406 8.304688 3.234375 8.304688 3.390625 8.304688 3.59375 8.183594 3.632812 7.984375zM4.894531 6.066406L3.980469 6.296875 4.191406 5.269531zM9.382812 8.785156C9.621094 8.785156 9.78125 8.625 9.78125 8.382812L9.78125 6.972656 10.101562 6.585938 11.460938 8.625C11.539062 8.703125 11.660156 8.785156 11.777344 8.785156 11.859375 8.785156 11.9375 8.742188 12.019531 8.742188 12.21875 8.625 12.257812 8.382812 12.140625 8.183594L10.640625 5.941406 11.699219 4.671875C11.859375 4.511719 11.820312 4.269531 11.660156 4.113281 11.5 3.953125 11.261719 3.992188 11.101562 4.152344L9.78125 5.734375 9.78125 4.390625C9.78125 4.152344 9.621094 3.992188 9.382812 3.992188 9.144531 3.992188 8.984375 4.152344 8.984375 4.390625L8.984375 8.382812C8.984375 8.625 9.144531 8.785156 9.382812 8.785156zM22.164062 19.476562L22.164062 17.96875C22.164062 17.730469 22.003906 17.570312 21.761719 17.570312 21.523438 17.570312 21.363281 17.730469 21.363281 17.96875L21.363281 19.472656 21.085938 19.804688 19.726562 17.769531C19.605469 17.570312 19.367188 17.53125 19.167969 17.648438 18.96875 17.769531 18.929688 18.007812 19.046875 18.210938L20.542969 20.453125 19.488281 21.722656C19.328125 21.882812 19.367188 22.121094 19.527344 22.28125 19.566406 22.324219 19.6875 22.363281 19.765625 22.363281 19.886719 22.363281 20.007812 22.324219 20.085938 22.242188L21.363281 20.710938 21.363281 21.964844C21.363281 22.203125 21.523438 22.363281 21.761719 22.363281 22.003906 22.363281 22.164062 22.203125 22.164062 21.964844L22.164062 19.722656C22.191406 19.644531 22.191406 19.558594 22.164062 19.476562zM22.164062 19.476562"/>
</svg>
