<svg xmlns="http://www.w3.org/2000/svg" width="32" height="32" viewBox="0 0 24 24">
    <path d="M19.602 0H4.398C3.718 0 3.2.52 3.2 1.2v21.6c0 .68.52 1.2 1.2 1.2h15.203c.68 0 1.199-.52 1.199-1.2V1.2c0-.68-.52-1.2-1.2-1.2zM20 22.8c0 .24-.16.4-.398.4H4.398c-.238 0-.398-.16-.398-.4V1.2c0-.24.16-.4.398-.4h15.204c.238 0 .398.16.398.4zm0 0"/>
    <path d="M6.68 14.398L12 21.04l5.32-6.64L12 7.761zM12 19.762l-4.281-5.364L12 9.04l4.281 5.36zm0 0M8 5.602V3.199c0-.879-.719-1.597-1.602-1.597-.878 0-1.597.718-1.597 1.597 0 .88.719 1.602 1.597 1.602.293 0 .567-.078.801-.219v1.02c0 .437-.36.796-.8.796a.8.8 0 0 1-.758-.558c-.082-.2-.32-.32-.52-.238-.2.078-.32.32-.242.52.242.64.84 1.077 1.52 1.077C7.28 7.2 8 6.48 8 5.602zM6.398 4a.801.801 0 0 1 0-1.602c.442 0 .801.364.801.801 0 .442-.36.801-.8.801zm0 0"/>
</svg>
