<svg xmlns="http://www.w3.org/2000/svg" width="32" height="32" viewBox="0 0 24 24">
    <path d="M19.602 0H4.398C3.718 0 3.2.52 3.2 1.2v21.6c0 .68.52 1.2 1.2 1.2h15.203c.68 0 1.199-.52 1.199-1.2V1.2c0-.68-.52-1.2-1.2-1.2zM20 22.8c0 .24-.16.4-.398.4H4.398c-.238 0-.398-.16-.398-.4V1.2c0-.24.16-.4.398-.4h15.204c.238 0 .398.16.398.4zm0 0"/>
    <path d="M7.762 4.84a1.626 1.626 0 0 0-2.16-1.55v-.892h1.597c.242 0 .403-.16.403-.398 0-.238-.16-.398-.403-.398h-2c-.238 0-.398.16-.398.398v2c0 .168.074.293.203.355.156.118.371.07.516-.074.16-.16.359-.281.601-.281.48 0 .84.36.84.84s-.36.84-.84.84c-.242 0-.48-.078-.64-.282-.16-.16-.403-.199-.56-.039-.16.16-.202.403-.042.563.32.36.762.558 1.242.558.918 0 1.64-.718 1.64-1.64zm0 0M16.48 12.8l-3.84-3.76c-.359-.321-.878-.321-1.28 0L7.48 12.8c-1.16 1.2-1.402 2.641-.601 3.802.562.84 1.2 1.277 1.96 1.359a2.616 2.616 0 0 0 1.52-.36c-.078.797-.28 1.598-.32 1.797-.039.122 0 .282.082.403.078.12.2.199.36.199h3c.16 0 .32-.078.44-.16.079-.121.118-.238.079-.399a13.503 13.503 0 0 1-.32-1.8c.398.238.922.437 1.52.359.76-.078 1.402-.52 1.96-1.36.8-1.242.559-2.68-.68-3.84zm-.039 3.4c-.402.6-.882.96-1.363 1-.879.081-1.598-.68-1.637-.68l-.68-.68v.96c0 .802.2 1.802.317 2.4h-2.2c.161-.598.321-1.56.282-2.4v-.96l-.68.68s-.761.718-1.601.64c-.48-.039-.957-.398-1.36-1-.8-1.2.122-2.36.52-2.8l3.84-3.72c.043-.038.16-.038.2 0l3.8 3.758c.562.524 1.36 1.602.562 2.801zm0 0"/>
</svg>
