<svg xmlns="http://www.w3.org/2000/svg" width="32" height="32" viewBox="0 0 24 24">
    <path d="M19.602 0H4.398C3.718 0 3.2.52 3.2 1.2v21.6c0 .68.52 1.2 1.2 1.2h15.203c.68 0 1.199-.52 1.199-1.2V1.2c0-.68-.52-1.2-1.2-1.2zM20 22.8c0 .24-.16.4-.398.4H4.398c-.238 0-.398-.16-.398-.4V1.2c0-.24.16-.4.398-.4h15.204c.238 0 .398.16.398.4zm0 0"/>
    <path d="M6.68 14.398L12 21.04l5.32-6.64L12 7.761zM12 19.762l-4.281-5.364L12 9.04l4.281 5.36zm0 0M7.602 5.602c0-.477-.215-.907-.547-1.204.332-.293.547-.722.547-1.199 0-.879-.723-1.597-1.602-1.597-.2 0-.36.039-.52.078-.242.082-.44.242-.64.441a.385.385 0 0 0 0 .559c.16.16.398.16.558 0 .122-.121.243-.2.32-.239.083-.043.204-.043.282-.043A.802.802 0 0 1 6 4h-.398c-.243 0-.403.16-.403.398 0 .243.16.403.403.403H6c.441 0 .8.36.8.8 0 .438-.359.797-.8.797-.281 0-.48-.16-.602-.277a.385.385 0 0 0-.558 0 .385.385 0 0 0 0 .559c.32.36.719.52 1.16.52.879 0 1.602-.72 1.602-1.598zm0 0"/>
</svg>
