<svg xmlns="http://www.w3.org/2000/svg" width="32" height="32" viewBox="0 0 24 24">
    <path d="M19.602 0H4.398C3.718 0 3.2.52 3.2 1.2v21.6c0 .68.52 1.2 1.2 1.2h15.203c.68 0 1.199-.52 1.199-1.2V1.2c0-.68-.52-1.2-1.2-1.2zM20 22.8c0 .24-.16.4-.398.4H4.398c-.238 0-.398-.16-.398-.4V1.2c0-.24.16-.4.398-.4h15.204c.238 0 .398.16.398.4zm0 0"/>
    <path d="M6.68 14.398L12 21.04l5.32-6.64L12 7.761zM12 19.762l-4.281-5.364L12 9.04l4.281 5.36zm0 0M5.918 4.57L7.68 7.04c.082.12.199.16.32.16a.57.57 0 0 0 .238-.079c.16-.121.203-.402.082-.562L6.453 3.945 7.88 2.281c.16-.16.121-.402-.04-.562-.16-.16-.398-.117-.558.043l-1.68 1.957V2c0-.238-.16-.398-.402-.398-.238 0-.398.16-.398.398v2.684a.355.355 0 0 0 0 .246V6.8c0 .24.16.4.398.4.242 0 .403-.16.403-.4V4.942zm0 0"/>
</svg>
