<svg xmlns="http://www.w3.org/2000/svg" width="32" height="32" viewBox="0 0 24 24">
    <path d="M8.183594 7.832031C8.007812 7.652344 7.722656 7.652344 7.542969 7.832031L5.214844 10.160156C5.039062 10.339844 5.039062 10.625 5.214844 10.800781 5.300781 10.890625 5.417969 10.933594 5.535156 10.933594 5.652344 10.933594 5.765625 10.890625 5.855469 10.800781L8.183594 8.472656C8.363281 8.292969 8.363281 8.007812 8.183594 7.832031zM8.703125 9.574219C8.527344 9.398438 8.242188 9.398438 8.0625 9.574219L6.640625 11C6.460938 11.175781 6.460938 11.464844 6.640625 11.640625 6.726562 11.730469 6.84375 11.773438 6.960938 11.773438 7.074219 11.773438 7.191406 11.730469 7.277344 11.640625L8.703125 10.214844C8.878906 10.039062 8.878906 9.753906 8.703125 9.574219zM8.515625 11.386719L7.996094 11.90625C7.820312 12.082031 7.820312 12.371094 7.996094 12.546875 8.085938 12.636719 8.203125 12.679688 8.316406 12.679688 8.433594 12.679688 8.550781 12.636719 8.636719 12.546875L9.15625 12.027344C9.332031 11.851562 9.332031 11.5625 9.15625 11.386719 8.980469 11.210938 8.691406 11.210938 8.515625 11.386719zM8.515625 11.386719"/>
    <path d="M 19.699219 2.71875 L 15.621094 2.71875 L 15.621094 1.042969 C 15.621094 0.46875 15.15625 0 14.578125 0 L 9.421875 0 C 8.84375 0 8.378906 0.46875 8.378906 1.042969 L 8.378906 2.71875 L 4.300781 2.71875 C 3.054688 2.71875 2.039062 3.734375 2.039062 4.980469 L 2.039062 19.925781 C 2.039062 21.171875 3.054688 22.1875 4.300781 22.1875 L 5.660156 22.1875 L 5.660156 22.957031 C 5.660156 23.53125 6.128906 24 6.703125 24 L 17.296875 24 C 17.871094 24 18.339844 23.53125 18.339844 22.957031 L 18.339844 22.1875 L 19.699219 22.1875 C 20.945312 22.1875 21.960938 21.171875 21.960938 19.925781 L 21.960938 4.980469 C 21.960938 3.734375 20.945312 2.71875 19.699219 2.71875 Z M 9.28125 1.042969 C 9.28125 0.96875 9.34375 0.90625 9.421875 0.90625 L 14.578125 0.90625 C 14.65625 0.90625 14.71875 0.96875 14.71875 1.042969 L 14.71875 2.71875 L 9.28125 2.71875 Z M 17.433594 22.957031 C 17.433594 23.03125 17.371094 23.09375 17.296875 23.09375 L 6.703125 23.09375 C 6.628906 23.09375 6.566406 23.03125 6.566406 22.957031 L 6.566406 22.1875 L 17.433594 22.1875 Z M 21.054688 19.925781 C 21.054688 20.671875 20.445312 21.28125 19.699219 21.28125 L 4.300781 21.28125 C 3.554688 21.28125 2.945312 20.671875 2.945312 19.925781 L 2.945312 4.980469 C 2.945312 4.230469 3.554688 3.621094 4.300781 3.621094 L 19.699219 3.621094 C 20.445312 3.621094 21.054688 4.230469 21.054688 4.980469 Z M 21.054688 19.925781"/>
    <path d="M12.90625 17.660156L11.09375 17.660156C10.84375 17.660156 10.640625 17.863281 10.640625 18.113281 10.640625 18.363281 10.84375 18.566406 11.09375 18.566406L12.90625 18.566406C13.15625 18.566406 13.359375 18.363281 13.359375 18.113281 13.359375 17.863281 13.15625 17.660156 12.90625 17.660156zM10.285156 7.710938C9.25 5.953125 6.980469 5.363281 5.21875 6.398438 3.460938 7.433594 2.875 9.707031 3.910156 11.464844 4.710938 12.824219 7.441406 15.347656 9.417969 15.347656 9.753906 15.347656 10.070312 15.273438 10.347656 15.109375 12.265625 13.980469 11.222656 9.304688 10.285156 7.710938zM9.886719 14.328125C8.6875 15.039062 5.566406 12.496094 4.6875 11.003906 3.90625 9.675781 4.351562 7.960938 5.679688 7.179688 7.007812 6.398438 8.722656 6.84375 9.503906 8.171875 9.882812 8.8125 10.339844 10.203125 10.476562 11.613281 10.613281 13.015625 10.390625 14.03125 9.886719 14.328125zM16.457031 7.832031C16.277344 7.652344 15.992188 7.652344 15.816406 7.832031 15.636719 8.007812 15.636719 8.292969 15.816406 8.472656L18.144531 10.800781C18.234375 10.890625 18.347656 10.933594 18.464844 10.933594 18.582031 10.933594 18.699219 10.890625 18.785156 10.800781 18.960938 10.625 18.960938 10.339844 18.785156 10.160156zM15.9375 9.574219C15.757812 9.398438 15.472656 9.398438 15.296875 9.574219 15.117188 9.753906 15.117188 10.039062 15.296875 10.214844L16.722656 11.640625C16.808594 11.730469 16.925781 11.773438 17.039062 11.773438 17.15625 11.773438 17.273438 11.730469 17.359375 11.640625 17.539062 11.464844 17.539062 11.175781 17.359375 11zM15.484375 11.386719C15.304688 11.210938 15.019531 11.210938 14.84375 11.386719 14.667969 11.5625 14.667969 11.851562 14.84375 12.027344L15.363281 12.546875C15.449219 12.636719 15.566406 12.679688 15.683594 12.679688 15.796875 12.679688 15.914062 12.636719 16.003906 12.546875 16.179688 12.371094 16.179688 12.082031 16.003906 11.90625zM15.484375 11.386719"/>
    <path d="M 18.78125 6.398438 C 17.019531 5.363281 14.75 5.953125 13.714844 7.710938 C 12.777344 9.304688 11.734375 13.980469 13.652344 15.109375 C 13.933594 15.273438 14.246094 15.347656 14.582031 15.347656 C 16.558594 15.347656 19.292969 12.824219 20.09375 11.464844 C 21.125 9.707031 20.539062 7.433594 18.78125 6.398438 Z M 19.3125 11.003906 C 18.933594 11.648438 17.9375 12.722656 16.773438 13.523438 C 15.613281 14.324219 14.617188 14.625 14.113281 14.328125 C 12.914062 13.621094 13.617188 9.660156 14.496094 8.167969 C 15.015625 7.285156 15.949219 6.792969 16.90625 6.792969 C 17.390625 6.792969 17.875 6.917969 18.320312 7.179688 C 19.648438 7.960938 20.09375 9.675781 19.3125 11.003906 Z M 19.3125 11.003906"/>
</svg>
