<svg xmlns="http://www.w3.org/2000/svg" width="32" height="32" viewBox="0 0 24 24">
    <path d="M8.184 7.832a.448.448 0 0 0-.641 0L5.215 10.16a.455.455 0 0 0 .32.774c.117 0 .23-.043.32-.133l2.329-2.328a.448.448 0 0 0 0-.641zm0 0M8.703 9.574a.455.455 0 0 0-.64 0L6.64 11a.448.448 0 0 0 0 .64.44.44 0 0 0 .32.133c.113 0 .23-.043.316-.132l1.426-1.426a.455.455 0 0 0 0-.64zm0 0M8.516 11.387l-.52.52a.455.455 0 0 0 .32.773.44.44 0 0 0 .32-.133l.52-.52a.455.455 0 0 0 0-.64.455.455 0 0 0-.64 0zm0 0"/>
    <path d="M19.7 2.719H15.62V1.043C15.621.469 15.156 0 14.578 0H9.422c-.578 0-1.043.469-1.043 1.043v1.676H4.3A2.266 2.266 0 0 0 2.039 4.98v14.946a2.266 2.266 0 0 0 2.262 2.262h1.36v.769c0 .574.468 1.043 1.042 1.043h10.594c.574 0 1.043-.469 1.043-1.043v-.77h1.36a2.266 2.266 0 0 0 2.26-2.261V4.98A2.266 2.266 0 0 0 19.7 2.72zM9.28 1.043a.14.14 0 0 1 .14-.137h5.157a.14.14 0 0 1 .14.137v1.676H9.282zm8.153 21.914a.138.138 0 0 1-.137.137H6.703a.138.138 0 0 1-.137-.137v-.77h10.868zm3.62-3.031c0 .746-.609 1.355-1.355 1.355H4.301c-.746 0-1.356-.61-1.356-1.355V4.98c0-.75.61-1.359 1.356-1.359h15.398c.746 0 1.356.61 1.356 1.36zm0 0"/>
    <path d="M12.906 17.66h-1.812a.453.453 0 0 0 0 .906h1.812a.453.453 0 0 0 0-.906zm0 0M10.285 7.71A3.705 3.705 0 0 0 5.22 6.399a3.705 3.705 0 0 0-1.309 5.067c.8 1.36 3.531 3.883 5.508 3.883.336 0 .652-.075.93-.239 1.918-1.129.875-5.804-.063-7.398zm-.398 6.618c-1.2.711-4.32-1.832-5.2-3.324A2.796 2.796 0 0 1 5.68 7.18a2.796 2.796 0 0 1 3.824.992c.379.64.836 2.031.973 3.441.136 1.403-.086 2.418-.59 2.715zm0 0M16.457 7.832a.448.448 0 0 0-.64 0 .448.448 0 0 0 0 .64l2.328 2.329c.09.09.203.133.32.133a.455.455 0 0 0 .32-.773zm0 0M15.938 9.574a.455.455 0 0 0-.641 0 .448.448 0 0 0 0 .64l1.426 1.427c.086.09.203.132.316.132a.44.44 0 0 0 .32-.132.448.448 0 0 0 0-.641zm0 0M15.484 11.387a.455.455 0 0 0-.64 0 .455.455 0 0 0 0 .64l.52.52a.453.453 0 1 0 .64-.64zm0 0"/>
    <path d="M18.781 6.398a3.705 3.705 0 0 0-5.066 1.313c-.938 1.594-1.98 6.27-.063 7.398.282.164.594.239.93.239 1.977 0 4.711-2.524 5.512-3.883a3.71 3.71 0 0 0-1.313-5.067zm.532 4.606c-.38.644-1.375 1.719-2.54 2.52-1.16.8-2.156 1.101-2.66.804-1.199-.707-.496-4.668.383-6.16a2.793 2.793 0 0 1 3.824-.988 2.796 2.796 0 0 1 .992 3.824zm0 0"/>
</svg>
