<svg xmlns="http://www.w3.org/2000/svg" width="32" height="32" viewBox="0 0 24 24">
    <path d="M9.644531 11.785156C9.644531 12.613281 8.972656 13.285156 8.144531 13.285156 7.3125 13.285156 6.644531 12.613281 6.644531 11.785156 6.644531 10.957031 7.3125 10.285156 8.144531 10.285156 8.972656 10.285156 9.644531 10.957031 9.644531 11.785156zM16.5 11.785156C16.5 12.613281 15.828125 13.285156 15 13.285156 14.171875 13.285156 13.5 12.613281 13.5 11.785156 13.5 10.957031 14.171875 10.285156 15 10.285156 15.828125 10.285156 16.5 10.957031 16.5 11.785156zM16.5 15.429688C16.261719 15.429688 16.070312 15.621094 16.070312 15.855469 16.070312 18.21875 14.148438 20.144531 11.785156 20.144531 9.421875 20.144531 7.5 18.21875 7.5 15.855469 7.5 15.621094 7.308594 15.429688 7.070312 15.429688 6.835938 15.429688 6.644531 15.621094 6.644531 15.855469 6.644531 18.691406 8.949219 21 11.785156 21 14.621094 21 16.929688 18.691406 16.929688 15.855469 16.929688 15.621094 16.738281 15.429688 16.5 15.429688zM16.5 15.429688"/>
    <path d="M 21.644531 4.929688 C 21.644531 2.164062 17.40625 0 12 0 C 6.59375 0 2.355469 2.164062 2.355469 4.929688 C 2.355469 6.179688 3.222656 7.339844 4.808594 8.234375 C 3.285156 9.910156 2.355469 12.132812 2.355469 14.570312 C 2.355469 19.769531 6.585938 24 11.785156 24 C 16.984375 24 21.214844 19.769531 21.214844 14.570312 C 21.214844 12.207031 20.339844 10.046875 18.894531 8.390625 C 20.671875 7.472656 21.644531 6.257812 21.644531 4.929688 Z M 3.214844 4.929688 C 3.214844 2.722656 7.238281 0.855469 12 0.855469 C 16.761719 0.855469 20.785156 2.722656 20.785156 4.929688 C 20.785156 5.957031 19.878906 6.972656 18.28125 7.742188 C 18.257812 7.71875 18.230469 7.699219 18.207031 7.679688 C 18.039062 7.519531 17.863281 7.367188 17.683594 7.222656 C 17.625 7.175781 17.5625 7.125 17.5 7.078125 C 17.332031 6.949219 17.15625 6.824219 16.976562 6.707031 C 16.898438 6.65625 16.820312 6.605469 16.742188 6.554688 C 16.570312 6.449219 16.398438 6.347656 16.21875 6.253906 C 16.128906 6.207031 16.042969 6.160156 15.953125 6.117188 C 15.773438 6.027344 15.589844 5.945312 15.40625 5.867188 C 15.316406 5.828125 15.230469 5.796875 15.140625 5.761719 C 14.945312 5.6875 14.746094 5.617188 14.539062 5.554688 C 14.464844 5.53125 14.390625 5.511719 14.316406 5.492188 C 14.09375 5.429688 13.867188 5.371094 13.640625 5.328125 C 13.585938 5.316406 13.53125 5.308594 13.480469 5.296875 C 13.230469 5.253906 12.976562 5.214844 12.71875 5.1875 C 12.691406 5.1875 12.664062 5.183594 12.632812 5.183594 C 12.355469 5.15625 12.070312 5.144531 11.785156 5.144531 C 11.507812 5.144531 11.238281 5.15625 10.96875 5.179688 C 10.9375 5.183594 10.90625 5.183594 10.875 5.1875 C 10.621094 5.210938 10.371094 5.25 10.121094 5.292969 C 10.074219 5.300781 10.03125 5.308594 9.988281 5.316406 C 9.746094 5.363281 9.511719 5.417969 9.277344 5.484375 C 9.226562 5.5 9.171875 5.511719 9.121094 5.527344 C 8.894531 5.59375 8.671875 5.671875 8.449219 5.753906 C 8.398438 5.773438 8.34375 5.796875 8.289062 5.816406 C 8.070312 5.90625 7.855469 6 7.644531 6.101562 C 7.597656 6.125 7.550781 6.152344 7.503906 6.175781 C 7.285156 6.285156 7.074219 6.402344 6.867188 6.53125 C 6.835938 6.550781 6.800781 6.574219 6.769531 6.59375 C 6.550781 6.734375 6.332031 6.878906 6.125 7.035156 C 6.113281 7.042969 6.101562 7.054688 6.089844 7.066406 C 5.863281 7.234375 5.644531 7.414062 5.4375 7.605469 C 4.019531 6.855469 3.214844 5.890625 3.214844 4.929688 Z M 11.785156 23.144531 C 7.058594 23.144531 3.214844 19.296875 3.214844 14.570312 C 3.214844 12.070312 4.296875 9.828125 6.007812 8.257812 C 6.136719 8.140625 6.265625 8.023438 6.398438 7.914062 C 6.492188 7.835938 6.59375 7.765625 6.695312 7.691406 C 6.8125 7.601562 6.933594 7.511719 7.054688 7.429688 C 7.175781 7.347656 7.308594 7.277344 7.433594 7.199219 C 7.539062 7.136719 7.644531 7.070312 7.753906 7.011719 C 7.898438 6.933594 8.050781 6.867188 8.199219 6.796875 C 8.300781 6.75 8.398438 6.699219 8.5 6.65625 C 8.65625 6.59375 8.820312 6.535156 8.984375 6.480469 C 9.082031 6.445312 9.179688 6.40625 9.28125 6.375 C 9.449219 6.324219 9.621094 6.285156 9.792969 6.242188 C 9.894531 6.21875 9.992188 6.191406 10.09375 6.167969 C 10.277344 6.132812 10.46875 6.109375 10.65625 6.082031 C 10.75 6.070312 10.839844 6.050781 10.929688 6.042969 C 11.210938 6.015625 11.496094 6 11.785156 6 C 12.078125 6 12.371094 6.015625 12.65625 6.042969 C 12.6875 6.046875 12.71875 6.054688 12.75 6.058594 C 14.628906 6.269531 16.324219 7.09375 17.636719 8.324219 C 17.710938 8.394531 17.785156 8.457031 17.855469 8.527344 C 19.402344 10.078125 20.355469 12.214844 20.355469 14.570312 C 20.355469 19.296875 16.511719 23.144531 11.785156 23.144531 Z M 11.785156 23.144531"/>
</svg>
