<svg xmlns="http://www.w3.org/2000/svg" width="32" height="32" viewBox="0 0 24 24">
    <path d="M12 0C5.383 0 0 5.383 0 12s5.383 12 12 12 12-5.383 12-12S18.617 0 12 0zm0 22.91C5.984 22.91 1.09 18.016 1.09 12S5.984 1.09 12 1.09 22.91 5.984 22.91 12 18.016 22.91 12 22.91zm0 0"/>
    <path d="M12 12.547c-3.61 0-6.547 2.933-6.547 6.543 0 .3.246.547.547.547.3 0 .547-.246.547-.547A5.458 5.458 0 0 1 12 13.637a5.458 5.458 0 0 1 5.453 5.453c0 .3.246.547.547.547.3 0 .547-.246.547-.547 0-3.61-2.938-6.543-6.547-6.543zm0 0M9.39 8.523a.558.558 0 0 0 .77.086.55.55 0 0 0 .086-.77L8.062 5.114a.546.546 0 1 0-.851.684zm0 0M14.18 8.727c.16 0 .32-.07.43-.204l2.18-2.726a.546.546 0 1 0-.852-.684L13.753 7.84a.55.55 0 0 0 .086.77.56.56 0 0 0 .34.117zm0 0"/>
</svg>
