<svg xmlns="http://www.w3.org/2000/svg" width="32" height="32" viewBox="0 0 24 24">
    <path d="M16.398438 15.398438L7.601562 15.398438C7.378906 15.398438 7.199219 15.578125 7.199219 15.796875 7.199219 18.445312 9.351562 20.597656 12 20.597656 14.644531 20.597656 16.800781 18.445312 16.800781 15.796875 16.800781 15.578125 16.621094 15.398438 16.398438 15.398438zM15.65625 17.410156C15.636719 17.40625 15.621094 17.398438 15.597656 17.398438L14 17.398438 14 16.199219 15.980469 16.199219C15.9375 16.625 15.824219 17.03125 15.65625 17.410156zM8.339844 17.410156C8.175781 17.03125 8.0625 16.625 8.019531 16.199219L10 16.199219 10 17.398438 8.398438 17.398438C8.378906 17.398438 8.359375 17.40625 8.339844 17.410156zM10.800781 16.199219L13.199219 16.199219 13.199219 17.398438 10.800781 17.398438zM8.808594 18.199219L10 18.199219 10 19.257812C9.535156 18.988281 9.128906 18.625 8.808594 18.199219zM10.800781 19.613281L10.800781 18.199219 13.199219 18.199219 13.199219 19.613281C12.820312 19.734375 12.417969 19.796875 12 19.796875 11.582031 19.796875 11.179688 19.734375 10.800781 19.613281zM14 19.257812L14 18.199219 15.191406 18.199219C14.871094 18.625 14.464844 18.988281 14 19.257812zM6.886719 8.800781C6.730469 8.644531 6.476562 8.644531 6.320312 8.800781L5.035156 10.085938C4.878906 10.242188 4.878906 10.496094 5.035156 10.652344 5.113281 10.730469 5.214844 10.769531 5.316406 10.769531 5.417969 10.769531 5.519531 10.730469 5.597656 10.652344L6.886719 9.367188C7.042969 9.210938 7.042969 8.957031 6.886719 8.800781zM6.75 11.511719C6.828125 11.589844 6.929688 11.628906 7.035156 11.628906 7.136719 11.628906 7.238281 11.589844 7.316406 11.511719L9.460938 9.367188C9.617188 9.210938 9.617188 8.957031 9.460938 8.800781 9.304688 8.644531 9.054688 8.644531 8.898438 8.800781L6.75 10.945312C6.59375 11.101562 6.59375 11.355469 6.75 11.511719zM14.761719 10.769531C14.863281 10.769531 14.964844 10.730469 15.042969 10.652344L16.332031 9.367188C16.488281 9.210938 16.488281 8.957031 16.332031 8.800781 16.175781 8.644531 15.921875 8.644531 15.765625 8.800781L14.476562 10.085938C14.320312 10.242188 14.320312 10.496094 14.476562 10.652344 14.554688 10.730469 14.65625 10.769531 14.761719 10.769531zM16.195312 11.511719C16.273438 11.589844 16.375 11.628906 16.476562 11.628906 16.578125 11.628906 16.683594 11.589844 16.761719 11.511719L18.90625 9.367188C19.0625 9.210938 19.0625 8.957031 18.90625 8.800781 18.75 8.644531 18.496094 8.644531 18.339844 8.800781L16.195312 10.945312C16.039062 11.101562 16.039062 11.355469 16.195312 11.511719zM16.195312 11.511719"/>
    <path d="M 23.917969 10.625 C 23.757812 9.949219 23.371094 9.363281 22.886719 9.066406 C 22.5625 8.867188 22.214844 8.800781 21.882812 8.882812 C 21.808594 8.898438 21.734375 8.925781 21.664062 8.960938 C 21.640625 8.90625 21.621094 8.855469 21.597656 8.804688 L 21.597656 8.710938 L 21.546875 8.679688 C 20.609375 6.5625 19.210938 5.175781 17.773438 4.261719 L 18.316406 3.179688 C 18.414062 2.980469 18.335938 2.742188 18.136719 2.640625 C 17.941406 2.542969 17.699219 2.621094 17.601562 2.820312 L 17.082031 3.855469 C 16.835938 3.726562 16.589844 3.605469 16.347656 3.5 L 16.738281 2.324219 C 16.808594 2.117188 16.695312 1.890625 16.488281 1.820312 C 16.277344 1.75 16.050781 1.863281 15.980469 2.074219 L 15.601562 3.203125 C 15.324219 3.105469 15.058594 3.019531 14.796875 2.945312 L 15.136719 1.925781 C 15.207031 1.714844 15.09375 1.488281 14.886719 1.421875 C 14.675781 1.347656 14.449219 1.464844 14.378906 1.671875 L 14.019531 2.753906 C 13.515625 2.648438 13.078125 2.589844 12.757812 2.558594 L 12.757812 1.800781 C 12.757812 1.578125 12.582031 1.398438 12.359375 1.398438 C 12.136719 1.398438 11.960938 1.578125 11.960938 1.800781 L 11.960938 2.535156 C 11.75 2.546875 11.382812 2.574219 10.90625 2.648438 L 10.753906 1.734375 C 10.71875 1.515625 10.511719 1.367188 10.292969 1.40625 C 10.074219 1.441406 9.929688 1.648438 9.964844 1.867188 L 10.121094 2.800781 C 9.691406 2.898438 9.21875 3.03125 8.71875 3.210938 L 8.339844 2.074219 C 8.269531 1.863281 8.042969 1.75 7.832031 1.820312 C 7.625 1.890625 7.511719 2.117188 7.582031 2.328125 L 7.972656 3.503906 C 7.628906 3.65625 7.277344 3.832031 6.925781 4.035156 L 6.316406 2.820312 C 6.21875 2.625 5.980469 2.542969 5.78125 2.640625 C 5.582031 2.742188 5.503906 2.980469 5.601562 3.179688 L 6.242188 4.460938 C 5.890625 4.703125 5.542969 4.976562 5.207031 5.28125 L 4.242188 4.316406 C 4.085938 4.160156 3.832031 4.160156 3.675781 4.316406 C 3.519531 4.472656 3.519531 4.726562 3.675781 4.882812 L 4.632812 5.839844 C 3.402344 7.148438 2.375 8.972656 1.902344 11.523438 C 1.894531 11.554688 1.890625 11.589844 1.886719 11.621094 C 1.785156 11.59375 1.679688 11.574219 1.574219 11.574219 C 0.691406 11.574219 0 12.527344 0 13.742188 C 0 14.960938 0.691406 15.914062 1.574219 15.914062 C 1.738281 15.914062 1.894531 15.871094 2.046875 15.808594 C 2.328125 16.875 2.792969 17.878906 3.429688 18.757812 C 4.726562 20.546875 7.300781 22.675781 12.15625 22.597656 C 12.230469 22.601562 12.300781 22.601562 12.375 22.601562 C 17.09375 22.601562 19.605469 20.519531 20.882812 18.757812 C 22.035156 17.171875 22.621094 15.179688 22.574219 13.128906 C 22.589844 13.128906 22.601562 13.132812 22.617188 13.132812 C 22.707031 13.132812 22.796875 13.125 22.886719 13.101562 C 23.742188 12.898438 24.199219 11.808594 23.917969 10.625 Z M 5.675781 6.882812 C 5.753906 6.960938 5.855469 7 5.960938 7 C 6.0625 7 6.164062 6.960938 6.242188 6.882812 C 6.398438 6.726562 6.398438 6.472656 6.242188 6.316406 L 5.75 5.824219 C 6.023438 5.574219 6.304688 5.351562 6.585938 5.148438 L 6.800781 5.578125 C 6.871094 5.71875 7.011719 5.800781 7.160156 5.800781 C 7.21875 5.800781 7.28125 5.785156 7.339844 5.757812 C 7.535156 5.660156 7.617188 5.417969 7.515625 5.21875 L 7.265625 4.714844 C 7.582031 4.527344 7.898438 4.367188 8.214844 4.226562 L 8.378906 4.726562 C 8.4375 4.894531 8.59375 5 8.757812 5 C 8.800781 5 8.84375 4.992188 8.886719 4.980469 C 9.09375 4.910156 9.207031 4.683594 9.140625 4.472656 L 8.957031 3.929688 C 9.417969 3.765625 9.851562 3.648438 10.246094 3.558594 L 10.363281 4.265625 C 10.398438 4.460938 10.566406 4.597656 10.757812 4.597656 C 10.78125 4.597656 10.804688 4.597656 10.824219 4.59375 C 11.042969 4.558594 11.191406 4.351562 11.152344 4.132812 L 11.035156 3.417969 C 11.445312 3.359375 11.765625 3.339844 11.960938 3.332031 L 11.960938 4.199219 C 11.960938 4.421875 12.140625 4.597656 12.359375 4.597656 C 12.582031 4.597656 12.757812 4.421875 12.757812 4.199219 L 12.757812 3.355469 C 13.027344 3.378906 13.375 3.421875 13.773438 3.496094 L 13.582031 4.074219 C 13.511719 4.28125 13.625 4.507812 13.832031 4.578125 C 13.875 4.59375 13.917969 4.601562 13.960938 4.601562 C 14.125 4.601562 14.28125 4.492188 14.339844 4.328125 L 14.554688 3.675781 C 14.8125 3.746094 15.082031 3.832031 15.359375 3.929688 L 15.179688 4.472656 C 15.109375 4.683594 15.222656 4.910156 15.433594 4.980469 C 15.476562 4.992188 15.519531 5 15.558594 5 C 15.726562 5 15.882812 4.894531 15.9375 4.726562 L 16.105469 4.226562 C 16.316406 4.320312 16.527344 4.425781 16.742188 4.539062 L 16.402344 5.21875 C 16.304688 5.417969 16.382812 5.660156 16.582031 5.757812 C 16.636719 5.785156 16.699219 5.800781 16.757812 5.800781 C 16.90625 5.800781 17.046875 5.71875 17.117188 5.578125 L 17.429688 4.949219 C 18.507812 5.652344 19.554688 6.65625 20.367188 8.09375 C 17.9375 7.113281 15.148438 7.277344 12.84375 8.59375 L 12.691406 8.683594 L 12.109375 8.683594 L 11.953125 8.59375 C 9.441406 7.160156 6.347656 7.09375 3.78125 8.394531 C 4.1875 7.609375 4.664062 6.945312 5.179688 6.386719 Z M 20.796875 9.175781 C 20.777344 10.503906 20.546875 11.855469 18.824219 12.039062 C 16.707031 12.269531 15.191406 11.988281 14.320312 11.203125 C 13.785156 10.726562 13.492188 10.042969 13.449219 9.175781 C 15.734375 7.960938 18.511719 7.960938 20.796875 9.175781 Z M 11.347656 9.175781 C 11.304688 10.042969 11.011719 10.726562 10.480469 11.203125 C 9.605469 11.988281 8.089844 12.269531 5.972656 12.039062 C 4.253906 11.855469 4.023438 10.5 4 9.175781 C 6.289062 7.960938 9.0625 7.960938 11.347656 9.175781 Z M 1.871094 14.996094 C 1.789062 15.0625 1.6875 15.113281 1.574219 15.113281 C 1.207031 15.113281 0.800781 14.550781 0.800781 13.742188 C 0.800781 12.9375 1.207031 12.375 1.574219 12.375 C 1.640625 12.375 1.710938 12.394531 1.777344 12.429688 C 1.757812 12.644531 1.746094 12.855469 1.738281 13.070312 C 1.738281 13.082031 1.738281 13.097656 1.738281 13.109375 C 1.734375 13.289062 1.734375 13.464844 1.738281 13.640625 C 1.742188 13.695312 1.742188 13.75 1.746094 13.804688 C 1.753906 13.949219 1.761719 14.09375 1.777344 14.234375 C 1.78125 14.292969 1.785156 14.347656 1.789062 14.402344 C 1.808594 14.578125 1.832031 14.753906 1.859375 14.925781 C 1.863281 14.949219 1.867188 14.972656 1.871094 14.996094 Z M 20.234375 18.289062 C 18.507812 20.667969 15.796875 21.863281 12.160156 21.800781 L 12.152344 21.800781 C 8.515625 21.84375 5.804688 20.667969 4.078125 18.289062 C 3.253906 17.152344 2.746094 15.785156 2.585938 14.34375 C 2.582031 14.3125 2.582031 14.28125 2.578125 14.25 C 2.558594 14.019531 2.542969 13.789062 2.539062 13.558594 C 2.535156 13.460938 2.539062 13.359375 2.539062 13.257812 C 2.542969 13.09375 2.546875 12.933594 2.558594 12.769531 C 2.566406 12.652344 2.574219 12.535156 2.585938 12.414062 C 2.613281 12.167969 2.640625 11.917969 2.6875 11.667969 C 2.820312 10.949219 3 10.292969 3.21875 9.695312 C 3.296875 10.902344 3.710938 12.601562 5.886719 12.835938 C 6.382812 12.890625 6.851562 12.917969 7.292969 12.917969 C 8.9375 12.917969 10.183594 12.542969 11.011719 11.800781 C 11.652344 11.226562 12.023438 10.445312 12.125 9.484375 L 12.671875 9.484375 C 12.773438 10.445312 13.144531 11.226562 13.785156 11.800781 C 14.613281 12.542969 15.859375 12.917969 17.503906 12.917969 C 17.945312 12.917969 18.414062 12.890625 18.910156 12.835938 C 20.503906 12.664062 21.148438 11.707031 21.414062 10.734375 C 21.414062 10.734375 21.414062 10.738281 21.414062 10.742188 C 21.492188 11.042969 21.566406 11.351562 21.625 11.667969 C 21.671875 11.933594 21.707031 12.203125 21.730469 12.46875 C 21.738281 12.515625 21.742188 12.558594 21.746094 12.605469 C 21.917969 14.671875 21.386719 16.703125 20.234375 18.289062 Z M 22.699219 12.324219 C 22.644531 12.335938 22.585938 12.335938 22.523438 12.324219 C 22.523438 12.308594 22.519531 12.292969 22.519531 12.277344 C 22.492188 12.027344 22.457031 11.773438 22.410156 11.523438 C 22.355469 11.214844 22.285156 10.917969 22.214844 10.628906 C 22.207031 10.597656 22.195312 10.5625 22.1875 10.53125 C 22.113281 10.257812 22.035156 9.992188 21.953125 9.734375 C 21.949219 9.730469 21.949219 9.722656 21.945312 9.714844 C 21.984375 9.6875 22.027344 9.667969 22.070312 9.660156 C 22.222656 9.621094 22.371094 9.6875 22.46875 9.746094 C 22.769531 9.933594 23.027344 10.339844 23.140625 10.808594 C 23.324219 11.597656 23.054688 12.238281 22.699219 12.324219 Z M 22.699219 12.324219"/>
</svg>
