<svg xmlns="http://www.w3.org/2000/svg" width="32" height="32" viewBox="0 0 24 24">
    <path d="M 23.539062 10.070312 L 21.628906 10.070312 L 20.609375 3.082031 C 20.535156 2.558594 20.328125 2.0625 20.007812 1.644531 C 19.269531 0.679688 17.949219 0.304688 16.730469 0.707031 L 12.695312 2.039062 C 12.25 2.183594 11.765625 2.179688 11.320312 2.019531 L 7.84375 0.769531 C 7.019531 0.472656 6.109375 0.539062 5.339844 0.953125 C 4.609375 1.34375 4.105469 1.988281 3.914062 2.765625 C 3.886719 2.871094 3.867188 2.976562 3.855469 3.078125 L 2.832031 10.070312 L 0.460938 10.070312 C 0.207031 10.070312 0 10.277344 0 10.53125 C 0 10.785156 0.207031 10.992188 0.460938 10.992188 L 2.410156 10.992188 C 2.394531 11.039062 2.378906 11.082031 2.367188 11.132812 C 1.527344 11.582031 0.921875 12.570312 0.921875 13.53125 C 0.921875 14.523438 1.507812 15.417969 2.402344 15.828125 C 3.554688 20.332031 7.5625 23.453125 12.230469 23.453125 C 16.898438 23.453125 20.90625 20.332031 22.058594 15.828125 C 22.953125 15.417969 23.539062 14.523438 23.539062 13.53125 C 23.539062 12.570312 22.933594 11.582031 22.09375 11.132812 C 22.082031 11.082031 22.066406 11.039062 22.050781 10.992188 L 23.539062 10.992188 C 23.792969 10.992188 24 10.785156 24 10.53125 C 24 10.277344 23.792969 10.070312 23.539062 10.070312 Z M 4.167969 7.300781 L 20.292969 7.300781 L 20.695312 10.070312 L 3.765625 10.070312 Z M 4.765625 3.210938 C 4.777344 3.132812 4.792969 3.058594 4.808594 2.988281 C 4.9375 2.464844 5.28125 2.03125 5.773438 1.765625 C 6.316406 1.476562 6.957031 1.429688 7.535156 1.636719 L 11.007812 2.890625 C 11.644531 3.117188 12.34375 3.128906 12.988281 2.914062 L 17.019531 1.582031 C 17.871094 1.300781 18.777344 1.550781 19.277344 2.203125 C 19.5 2.496094 19.644531 2.84375 19.695312 3.214844 L 20.15625 6.378906 L 4.304688 6.378906 Z M 22.617188 13.53125 C 22.617188 14.214844 22.175781 14.828125 21.515625 15.050781 C 21.367188 15.101562 21.253906 15.230469 21.214844 15.386719 C 20.242188 19.59375 16.546875 22.53125 12.230469 22.53125 C 7.914062 22.53125 4.21875 19.59375 3.246094 15.382812 C 3.210938 15.230469 3.09375 15.101562 2.945312 15.050781 C 2.289062 14.828125 1.847656 14.214844 1.847656 13.53125 C 1.847656 12.863281 2.335938 12.121094 2.941406 11.882812 C 3.089844 11.824219 3.195312 11.691406 3.222656 11.535156 C 3.277344 11.234375 3.363281 11.070312 3.414062 10.992188 L 21.042969 10.992188 C 21.101562 11.078125 21.1875 11.242188 21.238281 11.535156 C 21.265625 11.691406 21.371094 11.824219 21.523438 11.882812 C 22.125 12.121094 22.617188 12.863281 22.617188 13.53125 Z M 22.617188 13.53125"/>
    <path d="M15.726562 13.3125C14.683594 13.3125 13.773438 13.902344 13.3125 14.765625 13.019531 14.519531 12.644531 14.363281 12.230469 14.363281 11.816406 14.363281 11.441406 14.519531 11.148438 14.765625 10.6875 13.902344 9.777344 13.3125 8.734375 13.3125 7.226562 13.3125 6 14.539062 6 16.046875 6 17.554688 7.226562 18.78125 8.734375 18.78125 10.242188 18.78125 11.46875 17.554688 11.46875 16.046875 11.46875 15.628906 11.8125 15.285156 12.230469 15.285156 12.652344 15.285156 12.992188 15.628906 12.992188 16.046875 12.992188 17.554688 14.21875 18.78125 15.726562 18.78125 17.234375 18.78125 18.460938 17.554688 18.460938 16.046875 18.460938 14.539062 17.234375 13.3125 15.726562 13.3125zM8.734375 17.859375C7.734375 17.859375 6.921875 17.046875 6.921875 16.046875 6.921875 15.050781 7.734375 14.238281 8.734375 14.238281 9.734375 14.238281 10.546875 15.050781 10.546875 16.046875 10.546875 17.046875 9.734375 17.859375 8.734375 17.859375zM15.726562 17.859375C14.730469 17.859375 13.914062 17.046875 13.914062 16.046875 13.914062 15.050781 14.730469 14.238281 15.726562 14.238281 16.726562 14.238281 17.539062 15.050781 17.539062 16.046875 17.539062 17.046875 16.726562 17.859375 15.726562 17.859375zM9.847656 19.257812C9.589844 19.257812 9.382812 19.464844 9.382812 19.71875 9.382812 19.976562 9.589844 20.179688 9.847656 20.179688 12.527344 20.179688 13.929688 20.789062 13.929688 21.117188 13.929688 21.375 14.136719 21.578125 14.390625 21.578125 14.648438 21.578125 14.851562 21.375 14.851562 21.117188 14.851562 19.347656 10.683594 19.257812 9.847656 19.257812zM8.703125 12.203125L10.800781 13.25C10.867188 13.285156 10.9375 13.300781 11.007812 13.300781 11.175781 13.300781 11.339844 13.207031 11.417969 13.042969 11.535156 12.816406 11.441406 12.539062 11.214844 12.425781L9.117188 11.375C8.886719 11.261719 8.609375 11.355469 8.496094 11.582031 8.382812 11.8125 8.472656 12.089844 8.703125 12.203125zM13.453125 13.300781C13.523438 13.300781 13.59375 13.285156 13.660156 13.25L15.757812 12.203125C15.988281 12.089844 16.078125 11.8125 15.964844 11.582031 15.851562 11.355469 15.574219 11.265625 15.34375 11.378906L13.246094 12.425781C13.019531 12.539062 12.925781 12.816406 13.042969 13.046875 13.121094 13.207031 13.285156 13.300781 13.453125 13.300781zM13.453125 13.300781"/>
</svg>
