<svg xmlns="http://www.w3.org/2000/svg" width="32" height="32" viewBox="0 0 24 24">
    <path d="M8.727 8.184c0 .902-.73 1.632-1.637 1.632a1.635 1.635 0 1 1 0-3.27c.906 0 1.637.731 1.637 1.638zm0 0"/>
    <path d="M10.91 8.184a3.826 3.826 0 0 0-3.82-3.82 3.823 3.823 0 0 0-3.817 3.82A3.822 3.822 0 0 0 7.09 12a3.825 3.825 0 0 0 3.82-3.816zm-6.547 0a2.732 2.732 0 0 1 2.727-2.73 2.729 2.729 0 0 1 0 5.457 2.729 2.729 0 0 1-2.727-2.727zm0 0M18.547 8.184c0 .902-.735 1.632-1.637 1.632a1.634 1.634 0 1 1 0-3.27c.902 0 1.637.731 1.637 1.638zm0 0"/>
    <path d="M16.91 4.363a3.826 3.826 0 0 0-3.82 3.82A3.825 3.825 0 0 0 16.91 12a3.822 3.822 0 0 0 3.817-3.816c0-2.106-1.711-3.82-3.817-3.82zm0 6.547a2.729 2.729 0 0 1 0-5.457 2.729 2.729 0 0 1 0 5.457zm0 0"/>
    <path d="M12 0C5.383 0 0 5.383 0 12s5.383 12 12 12 12-5.383 12-12S18.617 0 12 0zm0 22.91C5.984 22.91 1.09 18.016 1.09 12S5.984 1.09 12 1.09 22.91 5.984 22.91 12 18.016 22.91 12 22.91zm0 0"/>
    <path d="M17.727 15.816H4.91v3.82h12.817a1.91 1.91 0 0 0 0-3.82zm-6.274 1.094h1.637v1.637h-1.637zm-1.09 1.637H8.727V16.91h1.636zM6 16.91h1.637v1.637H6zm9.816 1.637h-1.632V16.91h1.632zm1.91 0h-.816V16.91h.817a.82.82 0 1 1 0 1.637zm0 0"/>
</svg>
