<svg xmlns="http://www.w3.org/2000/svg" width="32" height="32" viewBox="0 0 24 24">
    <path d="M5.6875 12.476562C5.679688 12.472656 4.875 13.699219 4.882812 14.160156 4.890625 14.617188 5.269531 14.988281 5.730469 14.980469 6.1875 14.972656 6.554688 14.589844 6.546875 14.132812 6.542969 13.675781 5.6875 12.476562 5.6875 12.476562zM18.296875 12.476562C18.292969 12.472656 17.484375 13.699219 17.492188 14.160156 17.5 14.617188 17.878906 14.988281 18.339844 14.980469 18.796875 14.972656 19.167969 14.589844 19.160156 14.132812 19.152344 13.675781 18.296875 12.476562 18.296875 12.476562zM20.785156 17.386719C20.777344 16.925781 19.925781 15.734375 19.925781 15.734375 19.917969 15.726562 19.109375 16.953125 19.117188 17.414062 19.125 17.871094 19.507812 18.242188 19.964844 18.234375 20.425781 18.226562 20.792969 17.84375 20.785156 17.386719zM3.214844 17.414062C3.222656 17.871094 3.601562 18.242188 4.0625 18.234375 4.519531 18.226562 4.890625 17.84375 4.882812 17.386719 4.875 16.925781 4.019531 15.734375 4.019531 15.734375 4.015625 15.726562 3.207031 16.953125 3.214844 17.414062zM6.390625 11.140625C6.773438 10.753906 7.285156 10.542969 7.828125 10.542969 8.371094 10.542969 8.882812 10.753906 9.265625 11.140625 9.34375 11.21875 9.449219 11.257812 9.554688 11.257812 9.65625 11.257812 9.761719 11.21875 9.839844 11.140625 10 10.980469 10 10.722656 9.839844 10.5625 9.304688 10.027344 8.585938 9.730469 7.828125 9.730469 7.066406 9.730469 6.351562 10.023438 5.8125 10.5625 5.65625 10.722656 5.65625 10.980469 5.8125 11.140625 5.972656 11.296875 6.230469 11.296875 6.390625 11.140625zM14.734375 11.140625C15.117188 10.753906 15.628906 10.542969 16.171875 10.542969 16.714844 10.542969 17.226562 10.753906 17.609375 11.140625 17.691406 11.21875 17.792969 11.257812 17.898438 11.257812 18.003906 11.257812 18.105469 11.21875 18.1875 11.140625 18.34375 10.980469 18.34375 10.722656 18.1875 10.5625 17.648438 10.027344 16.933594 9.730469 16.171875 9.730469 15.414062 9.730469 14.695312 10.023438 14.160156 10.5625 14 10.722656 14 10.980469 14.160156 11.140625 14.316406 11.296875 14.574219 11.296875 14.734375 11.140625zM12.203125 16.140625C9.238281 16.140625 7.320312 17.734375 7.320312 20.207031 7.320312 20.660156 7.375 21.304688 7.828125 21.632812 8.34375 22.007812 9.0625 21.773438 9.894531 21.503906 10.585938 21.277344 11.371094 21.019531 12.203125 21.019531 13.035156 21.019531 13.820312 21.277344 14.511719 21.503906 15.035156 21.671875 15.511719 21.828125 15.921875 21.828125 16.167969 21.828125 16.386719 21.773438 16.578125 21.632812 17.03125 21.304688 17.085938 20.660156 17.085938 20.207031 17.085938 17.734375 15.167969 16.140625 12.203125 16.140625zM16.101562 20.976562C15.921875 21.105469 15.308594 20.90625 14.765625 20.730469 14.582031 20.667969 14.382812 20.605469 14.175781 20.542969 13.960938 19.648438 13.164062 18.980469 12.203125 18.980469 11.242188 18.980469 10.445312 19.648438 10.230469 20.542969 10.023438 20.605469 9.824219 20.667969 9.640625 20.730469 9.101562 20.90625 8.484375 21.105469 8.304688 20.976562 8.265625 20.945312 8.136719 20.804688 8.136719 20.207031 8.136719 17.808594 10.238281 16.953125 12.203125 16.953125 14.167969 16.953125 16.269531 17.808594 16.269531 20.207031 16.269531 20.804688 16.140625 20.945312 16.101562 20.976562zM16.101562 20.976562"/>
    <path d="M 12 0 C 6.054688 0 1.21875 4.835938 1.21875 10.78125 L 1.21875 15.246094 C 1.21875 15.25 1.21875 15.25 1.21875 15.25 C 1.21875 15.25 1.21875 15.253906 1.21875 15.253906 L 1.21875 20.746094 C 1.21875 21.867188 2.132812 22.78125 3.253906 22.78125 L 5.917969 22.78125 C 5.9375 22.789062 5.957031 22.796875 5.976562 22.804688 C 7.402344 23.476562 9.121094 23.878906 11.078125 23.976562 C 11.121094 23.976562 11.164062 23.980469 11.210938 23.980469 C 11.46875 23.992188 11.730469 24 12 24 C 12.269531 24 12.53125 23.992188 12.792969 23.980469 C 12.835938 23.980469 12.878906 23.976562 12.921875 23.976562 C 14.878906 23.878906 16.597656 23.476562 18.023438 22.804688 C 18.042969 22.796875 18.0625 22.789062 18.082031 22.78125 L 20.746094 22.78125 C 21.867188 22.78125 22.78125 21.867188 22.78125 20.746094 L 22.78125 10.78125 C 22.78125 4.835938 17.945312 0 12 0 Z M 17.894531 21.964844 L 17.8125 22.007812 C 16.660156 22.566406 15.289062 22.929688 13.777344 23.089844 C 13.667969 23.101562 13.558594 23.113281 13.445312 23.125 C 13.285156 23.136719 13.125 23.148438 12.960938 23.15625 C 12.648438 23.175781 12.328125 23.1875 12 23.1875 C 11.671875 23.1875 11.351562 23.175781 11.039062 23.15625 C 10.875 23.148438 10.714844 23.136719 10.554688 23.121094 C 10.445312 23.113281 10.332031 23.101562 10.222656 23.089844 C 8.714844 22.929688 7.339844 22.566406 6.191406 22.007812 L 6.105469 21.964844 L 6.070312 21.964844 C 3.476562 20.65625 2.035156 18.34375 2.035156 15.253906 C 2.035156 15.253906 2.035156 15.25 2.035156 15.25 C 2.035156 15.25 2.035156 15.25 2.035156 15.246094 C 2.039062 10.019531 6.425781 5.550781 11.796875 5.289062 L 12.183594 5.289062 C 17.578125 5.550781 21.964844 10.023438 21.964844 15.253906 C 21.964844 18.34375 20.523438 20.65625 17.933594 21.964844 Z M 3.253906 21.964844 C 2.582031 21.964844 2.035156 21.417969 2.035156 20.746094 L 2.035156 19.027344 C 2.597656 20.195312 3.441406 21.1875 4.535156 21.964844 Z M 21.964844 20.746094 C 21.964844 21.417969 21.417969 21.964844 20.746094 21.964844 L 19.464844 21.964844 C 20.558594 21.1875 21.402344 20.195312 21.964844 19.027344 Z M 12.203125 4.472656 L 11.777344 4.476562 C 7.390625 4.691406 3.625 7.492188 2.035156 11.28125 L 2.035156 10.78125 C 2.035156 5.285156 6.503906 0.8125 12 0.8125 C 17.496094 0.8125 21.964844 5.285156 21.964844 10.78125 L 21.964844 11.265625 C 20.371094 7.484375 16.601562 4.6875 12.203125 4.472656 Z M 12.203125 4.472656"/>
</svg>
