<svg xmlns="http://www.w3.org/2000/svg" width="32" height="32" viewBox="0 0 24 24">
    <path d="M10.363 7.117c-.3 0-.547.246-.547.547 0 2.11-.968 3.274-2.726 3.274-1.414 0-2.926-.618-2.926-2.352 0-1.211.984-2.2 2.2-2.2.894 0 1.62.731 1.62 1.626 0 .644-.523 1.168-1.168 1.168a.81.81 0 0 1-.808-.809c0-.289.234-.523.523-.523a.546.546 0 1 0 0-1.09c-.89 0-1.613.722-1.613 1.613a1.9 1.9 0 0 0 1.898 1.899 2.259 2.259 0 0 0 2.258-2.258 2.716 2.716 0 0 0-2.71-2.715A3.295 3.295 0 0 0 3.07 8.586c0 2.059 1.618 3.441 4.02 3.441 2.355 0 3.82-1.672 3.82-4.363 0-.3-.246-.547-.547-.547zm0 0M16.707 4.39c-2.355 0-3.816 1.673-3.816 4.364a.545.545 0 1 0 1.09 0c0-2.11.968-3.274 2.726-3.274 1.418 0 2.93.618 2.93 2.352 0 1.211-.989 2.2-2.2 2.2-.894 0-1.625-.731-1.625-1.626 0-.644.528-1.168 1.168-1.168a.81.81 0 0 1 .81.809c0 .289-.235.523-.524.523a.545.545 0 0 0 0 1.09c.89 0 1.613-.723 1.613-1.613a1.9 1.9 0 0 0-1.899-1.899 2.261 2.261 0 0 0-2.257 2.258 2.719 2.719 0 0 0 2.714 2.715 3.294 3.294 0 0 0 3.29-3.289c0-2.059-1.614-3.441-4.02-3.441zm0 0M15.973 16.734a4.57 4.57 0 0 1-.145-.347c-.176-.45-.34-.754-1.02-.88-.753-.144-2.917-.253-3.84.927-.359.457-.655 1.285-.042 2.617.61 1.336 1.43 1.648 2.011 1.676h.09c1.461 0 2.743-1.657 3.118-2.309.347-.598.222-.922-.004-1.348-.047-.09-.106-.199-.168-.336zm-.77 1.137c-.441.762-1.457 1.79-2.215 1.766-.402-.02-.765-.371-1.074-1.04-.305-.671-.336-1.171-.086-1.492.336-.43 1.18-.597 1.95-.597a4.486 4.486 0 0 1 .96.094c.02.039.051.117.075.183.042.11.097.242.167.406.075.16.141.286.2.391.035.074.082.168.093.145 0 .003-.011.039-.07.144zm0 0"/>
    <path d="M12 0C5.383 0 0 5.383 0 12s5.383 12 12 12 12-5.383 12-12S18.617 0 12 0zm0 22.91C5.984 22.91 1.09 18.016 1.09 12S5.984 1.09 12 1.09 22.91 5.984 22.91 12 18.016 22.91 12 22.91zm0 0"/>
</svg>
