<svg xmlns="http://www.w3.org/2000/svg" width="32" height="32" viewBox="0 0 24 24">
    <path d="M10.727 10.922a.406.406 0 1 0-.813 0c0 1.574-.723 2.441-2.035 2.441-1.055 0-2.184-.46-2.184-1.754 0-.902.735-1.64 1.64-1.64.669 0 1.212.543 1.212 1.21 0 .481-.39.872-.871.872a.602.602 0 0 1-.602-.602c0-.215.172-.39.387-.39a.407.407 0 1 0 0-.813c-.66 0-1.203.54-1.203 1.203 0 .781.637 1.414 1.418 1.414.926 0 1.683-.754 1.683-1.683 0-1.114-.91-2.024-2.023-2.024a2.455 2.455 0 0 0-2.453 2.453c0 1.536 1.203 2.567 2.996 2.567 1.758 0 2.848-1.246 2.848-3.254zm0 0M16.27 8.48c-1.754 0-2.848 1.247-2.848 3.254 0 .227.183.407.41.407.223 0 .406-.18.406-.407 0-1.574.723-2.441 2.032-2.441 1.058 0 2.187.46 2.187 1.754 0 .906-.738 1.64-1.64 1.64-.669 0-1.212-.542-1.212-1.21 0-.48.391-.872.872-.872.332 0 .601.27.601.602 0 .215-.176.39-.39.39a.406.406 0 1 0 0 .813c.664 0 1.203-.539 1.203-1.203 0-.781-.633-1.414-1.414-1.414-.93 0-1.684.754-1.684 1.684 0 1.117.906 2.023 2.023 2.023a2.457 2.457 0 0 0 2.454-2.453c0-1.535-1.207-2.567-3-2.567zm0 0M12.203 15.457c-2.965 0-4.883 1.598-4.883 4.07 0 .453.055 1.094.508 1.426.516.375 1.234.14 2.067-.133.69-.226 1.476-.48 2.308-.48.832 0 1.617.254 2.309.48.523.172 1 .325 1.41.325.246 0 .465-.055.656-.192.453-.332.508-.973.508-1.426 0-2.472-1.918-4.07-4.883-4.07zm3.899 4.836c-.18.129-.793-.07-1.336-.246-.184-.059-.383-.125-.59-.188a2.032 2.032 0 0 0-1.973-1.558c-.957 0-1.758.668-1.973 1.558-.207.063-.402.13-.59.188-.538.176-1.152.379-1.335.246-.04-.027-.168-.172-.168-.766 0-2.402 2.101-3.257 4.066-3.257 1.965 0 4.067.855 4.067 3.257 0 .594-.13.739-.168.766zm0 0"/>
    <path d="M12 0C6.055 0 1.219 4.836 1.219 10.781v9.965c0 1.121.914 2.035 2.035 2.035h2.664l.059.024c1.425.672 3.144 1.074 5.101 1.172.043 0 .086.003.133.003.258.012.52.02.789.02.27 0 .531-.008.793-.02l.129-.003c1.957-.098 3.676-.5 5.101-1.172l.059-.024h2.664a2.039 2.039 0 0 0 2.035-2.035v-9.965C22.781 4.836 17.945 0 12 0zm5.895 21.965l-.082.043c-1.153.558-2.524.922-4.036 1.082l-.332.035c-.16.012-.32.023-.484.031a15.386 15.386 0 0 1-2.406-.035 9.536 9.536 0 0 1-.332-.031c-1.508-.16-2.883-.524-4.032-1.082l-.086-.043H6.07c-2.593-1.309-4.035-3.621-4.035-6.711v-.004-.004c.004-5.226 4.39-9.695 9.762-9.957h.387c5.394.262 9.78 4.734 9.78 9.965 0 3.09-1.44 5.402-4.03 6.71zm-14.641 0a1.22 1.22 0 0 1-1.219-1.219v-1.719a7.663 7.663 0 0 0 2.5 2.938zm18.71-1.219a1.22 1.22 0 0 1-1.218 1.219h-1.281a7.663 7.663 0 0 0 2.5-2.938zm-9.76-16.273l-.427.004c-4.386.214-8.152 3.015-9.742 6.804v-.5C2.035 5.285 6.504.812 12 .812c5.496 0 9.965 4.473 9.965 9.97v.484c-1.594-3.782-5.363-6.579-9.762-6.793zm0 0"/>
</svg>
