<svg xmlns="http://www.w3.org/2000/svg" width="32" height="32" viewBox="0 0 24 24">
    <path d="M9.066406 13.710938C9.148438 13.789062 9.25 13.832031 9.355469 13.832031 9.460938 13.832031 9.5625 13.789062 9.644531 13.710938 9.800781 13.550781 9.800781 13.296875 9.644531 13.136719L8.207031 11.699219 9.644531 10.257812C9.800781 10.101562 9.800781 9.84375 9.644531 9.683594 9.484375 9.523438 9.226562 9.523438 9.066406 9.683594L7.628906 11.121094 6.191406 9.683594C6.03125 9.523438 5.777344 9.523438 5.617188 9.683594 5.457031 9.84375 5.457031 10.101562 5.617188 10.257812L7.054688 11.699219 5.617188 13.136719C5.457031 13.296875 5.457031 13.550781 5.617188 13.710938 5.695312 13.789062 5.800781 13.832031 5.90625 13.832031 6.007812 13.832031 6.113281 13.789062 6.191406 13.710938L7.628906 12.273438zM18.59375 9.683594C18.433594 9.527344 18.175781 9.527344 18.015625 9.683594L16.578125 11.121094 15.140625 9.683594C14.980469 9.527344 14.726562 9.527344 14.566406 9.683594 14.40625 9.84375 14.40625 10.101562 14.566406 10.261719L16.003906 11.699219 14.566406 13.136719C14.40625 13.296875 14.40625 13.550781 14.566406 13.710938 14.644531 13.789062 14.75 13.832031 14.855469 13.832031 14.957031 13.832031 15.0625 13.789062 15.140625 13.710938L16.578125 12.273438 18.019531 13.710938C18.097656 13.789062 18.199219 13.832031 18.304688 13.832031 18.410156 13.832031 18.511719 13.789062 18.59375 13.710938 18.75 13.550781 18.75 13.296875 18.59375 13.136719L17.15625 11.699219 18.59375 10.257812C18.75 10.101562 18.75 9.84375 18.59375 9.683594zM11.796875 15.863281C9.105469 15.863281 6.914062 18.054688 6.914062 20.746094 6.914062 20.972656 7.097656 21.152344 7.320312 21.152344 7.546875 21.152344 7.730469 20.972656 7.730469 20.746094 7.730469 18.503906 9.554688 16.679688 11.796875 16.679688 14.039062 16.679688 15.863281 18.503906 15.863281 20.746094 15.863281 20.972656 16.046875 21.152344 16.269531 21.152344 16.496094 21.152344 16.679688 20.972656 16.679688 20.746094 16.679688 18.054688 14.488281 15.863281 11.796875 15.863281zM11.796875 15.863281"/>
    <path d="M 12 0 C 6.054688 0 1.21875 4.835938 1.21875 10.78125 L 1.21875 15.246094 C 1.21875 15.25 1.21875 15.25 1.21875 15.25 C 1.21875 15.25 1.21875 15.253906 1.21875 15.253906 L 1.21875 20.746094 C 1.21875 21.867188 2.132812 22.78125 3.253906 22.78125 L 5.917969 22.78125 C 5.9375 22.789062 5.957031 22.796875 5.976562 22.804688 C 7.402344 23.476562 9.121094 23.878906 11.078125 23.976562 C 11.121094 23.976562 11.164062 23.980469 11.210938 23.980469 C 11.46875 23.992188 11.730469 24 12 24 C 12.269531 24 12.53125 23.992188 12.792969 23.980469 C 12.835938 23.980469 12.878906 23.976562 12.921875 23.976562 C 14.878906 23.878906 16.597656 23.476562 18.023438 22.804688 C 18.042969 22.796875 18.0625 22.789062 18.082031 22.78125 L 20.746094 22.78125 C 21.867188 22.78125 22.78125 21.867188 22.78125 20.746094 L 22.78125 10.78125 C 22.78125 4.835938 17.945312 0 12 0 Z M 17.894531 21.964844 L 17.8125 22.007812 C 16.660156 22.566406 15.289062 22.929688 13.777344 23.089844 C 13.667969 23.101562 13.558594 23.113281 13.445312 23.125 C 13.285156 23.136719 13.125 23.148438 12.960938 23.15625 C 12.648438 23.175781 12.328125 23.1875 12 23.1875 C 11.671875 23.1875 11.351562 23.175781 11.039062 23.15625 C 10.875 23.148438 10.714844 23.136719 10.554688 23.121094 C 10.445312 23.113281 10.332031 23.101562 10.222656 23.089844 C 8.714844 22.929688 7.339844 22.566406 6.191406 22.007812 L 6.105469 21.964844 L 6.070312 21.964844 C 3.476562 20.65625 2.035156 18.34375 2.035156 15.253906 C 2.035156 15.253906 2.035156 15.25 2.035156 15.25 C 2.035156 15.25 2.035156 15.25 2.035156 15.246094 C 2.039062 10.019531 6.425781 5.550781 11.796875 5.289062 L 12.183594 5.289062 C 17.578125 5.550781 21.964844 10.023438 21.964844 15.253906 C 21.964844 18.34375 20.523438 20.65625 17.929688 21.964844 Z M 3.253906 21.964844 C 2.582031 21.964844 2.035156 21.417969 2.035156 20.746094 L 2.035156 19.027344 C 2.597656 20.195312 3.441406 21.1875 4.535156 21.964844 Z M 21.964844 20.746094 C 21.964844 21.417969 21.417969 21.964844 20.746094 21.964844 L 19.464844 21.964844 C 20.558594 21.1875 21.402344 20.195312 21.964844 19.027344 Z M 12.203125 4.472656 L 11.777344 4.476562 C 7.390625 4.691406 3.625 7.492188 2.035156 11.28125 L 2.035156 10.78125 C 2.035156 5.285156 6.503906 0.8125 12 0.8125 C 17.496094 0.8125 21.964844 5.285156 21.964844 10.78125 L 21.964844 11.265625 C 20.371094 7.484375 16.601562 4.6875 12.203125 4.472656 Z M 12.203125 4.472656"/>
</svg>
