<svg xmlns="http://www.w3.org/2000/svg" width="32" height="32" viewBox="0 0 24 24">
    <path d="M8.543 14.945a.488.488 0 0 0 .691 0 .488.488 0 0 0 0-.691l-.914-.914.914-.914a.488.488 0 1 0-.691-.692l-.914.914-.914-.914a.493.493 0 0 0-.695 0 .488.488 0 0 0 0 .692l.914.914-.914.914a.488.488 0 0 0 .347.836c.125 0 .25-.047.348-.145l.914-.914zm0 0M18.54 11.734a.488.488 0 0 0-.692 0l-.914.914-.914-.914a.488.488 0 1 0-.692.692l.914.914-.914.914a.488.488 0 0 0 0 .691.473.473 0 0 0 .344.145.475.475 0 0 0 .348-.145l.914-.914.914.914a.482.482 0 0 0 .347.145c.125 0 .25-.047.344-.145a.488.488 0 0 0 0-.691l-.914-.914.914-.914a.488.488 0 0 0 0-.692zm0 0M12.137 15.672a3.758 3.758 0 0 0-3.754 3.754.49.49 0 1 0 .98 0 2.78 2.78 0 0 1 2.774-2.778 2.78 2.78 0 0 1 2.777 2.778.49.49 0 1 0 .98 0 3.758 3.758 0 0 0-3.757-3.754zm0 0"/>
    <path d="M22.477 9.785c-.028-.133-.067-.262-.098-.394-.031-.133-.059-.266-.098-.395-.054-.203-.12-.398-.187-.598-.035-.093-.063-.187-.098-.28a10.29 10.29 0 0 0-.285-.677c-.023-.054-.047-.113-.074-.168-.11-.234-.23-.46-.36-.687-.023-.043-.047-.09-.074-.137a13.263 13.263 0 0 0-.355-.55c-.055-.083-.11-.169-.168-.25a4.272 4.272 0 0 0-.203-.262 10.729 10.729 0 0 0-8.555-4.242c-4.063 0-7.652 2.34-9.43 5.863a7.577 7.577 0 0 0-.094.18c-.082.164-.152.34-.222.511-.055.125-.11.246-.156.375-.055.14-.102.29-.149.438-.05.152-.105.308-.148.468-.04.141-.075.29-.11.438-.027.121-.062.242-.09.367-.882.48-1.523 1.52-1.523 2.54 0 1.054.621 2.003 1.57 2.437A10.721 10.721 0 0 0 12 22.855c4.953 0 9.207-3.316 10.43-8.093A2.683 2.683 0 0 0 24 12.324c0-1.02-.64-2.058-1.523-2.539zM2.59 9.543a9.758 9.758 0 0 1 .246-.84c.039-.11.078-.223.121-.332.066-.172.137-.34.211-.508.031-.066.062-.136.098-.207C4.832 4.398 8.133 2.286 12 2.286c3 0 5.664 1.269 7.438 3.362l.003.004a9.073 9.073 0 0 1 .618.828c.082.122.164.247.242.375.078.133.152.266.226.403.055.097.106.199.16.3.075.153.141.305.211.462l.13.308a12.945 12.945 0 0 1 .277.824c.043.145.082.29.117.434.015.074.031.152.05.226-2.003.649-3.495-.789-4.413-2.156a1.058 1.058 0 0 0-.723-.46c-.3-.048-.61.034-.852.23-4.558 3.64-11.152 2.672-12.941 2.32l.047-.203zm19.265 4.395a.491.491 0 0 0-.32.355A9.741 9.741 0 0 1 12 21.875a9.741 9.741 0 0 1-9.535-7.582.498.498 0 0 0-.32-.355A1.708 1.708 0 0 1 .98 12.323c0-.664.458-1.386 1.036-1.687.566.129 2.34.492 4.609.492 2.867 0 6.516-.578 9.473-2.941.035-.028.074-.028.09-.028a.092.092 0 0 1 .058.04c1.617 2.41 3.66 3.269 5.77 2.456.566.309 1.004 1.016 1.004 1.668 0 .727-.47 1.38-1.165 1.614zm0 0"/>
</svg>
