<svg xmlns="http://www.w3.org/2000/svg" width="32" height="32" viewBox="0 0 24 24">
    <path d="M23.918 10.625c-.16-.676-.547-1.262-1.031-1.559-.325-.199-.672-.265-1.004-.183a.916.916 0 0 0-.219.078c-.934-2.274-2.39-3.746-3.89-4.695l.542-1.086a.401.401 0 0 0-.175-.54.406.406 0 0 0-.54.18l-.519 1.043a9.688 9.688 0 0 0-.734-.355l.39-1.18a.402.402 0 0 0-.25-.508.4.4 0 0 0-.508.254l-.378 1.137a14.542 14.542 0 0 0-.805-.258l.344-1.027a.395.395 0 0 0-.254-.504.402.402 0 0 0-.508.25l-.363 1.09a11.811 11.811 0 0 0-1.258-.196v-.765a.398.398 0 1 0-.797 0v.738a9.6 9.6 0 0 0-1.055.113l-.152-.918a.396.396 0 0 0-.461-.328.398.398 0 0 0-.328.457l.156.938c-.43.097-.902.23-1.402.41l-.38-1.137a.4.4 0 0 0-.758.25l.392 1.18c-.344.152-.696.328-1.047.531l-.61-1.215a.4.4 0 0 0-.535-.18.403.403 0 0 0-.18.54l.641 1.28c-.351.24-.699.513-1.039.817l-.96-.96a.4.4 0 0 0-.567.566l.957.953c-1.23 1.312-2.258 3.137-2.73 5.687-.008.032-.012.067-.016.098a1.21 1.21 0 0 0-.313-.047c-.883 0-1.574.953-1.574 2.172 0 1.215.691 2.168 1.574 2.168.164 0 .32-.039.473-.105a8.885 8.885 0 0 0 1.383 2.949c1.277 1.762 3.785 3.844 8.508 3.844.074 0 .144 0 .218-.004.074.004.145.004.219.004 4.719 0 7.23-2.082 8.508-3.844 1.152-1.586 1.738-3.574 1.691-5.63.016.005.028.005.043.005.09 0 .18-.008.27-.031.86-.204 1.312-1.293 1.031-2.477zM1.871 14.996a.477.477 0 0 1-.297.117c-.367 0-.773-.562-.773-1.367 0-.809.406-1.371.773-1.371a.44.44 0 0 1 .203.055c-.02.215-.03.425-.039.636v.047c-.004.176-.004.352 0 .524.004.058.004.113.008.172.008.14.016.28.027.421.008.06.012.118.016.176.02.172.043.348.07.52l.012.07zm18.363 3.293c-1.726 2.379-4.449 3.559-8.074 3.512h-.008c-3.652.047-6.347-1.133-8.074-3.512-.824-1.137-1.332-2.504-1.492-3.945-.004-.031-.004-.063-.004-.094-.023-.23-.035-.457-.043-.691 0-.098 0-.2.004-.301 0-.164.008-.324.016-.488.007-.118.015-.239.03-.356a9.5 9.5 0 0 1 .099-.746c.44-2.371 1.374-4.066 2.496-5.281l.492.496A.405.405 0 0 0 5.96 7a.4.4 0 0 0 .281-.684l-.492-.492c.273-.246.555-.472.84-.672l.21.426a.4.4 0 0 0 .72-.355l-.254-.504c.32-.184.636-.348.949-.489l.164.497a.405.405 0 0 0 .508.253.407.407 0 0 0 .254-.507l-.184-.54c.461-.163.895-.28 1.293-.367l.113.7a.405.405 0 0 0 .395.336c.023 0 .043-.004.066-.008a.395.395 0 0 0 .328-.457l-.117-.711c.41-.059.73-.082.926-.09v.863a.398.398 0 1 0 .797 0v-.832c.27.028.61.07 1.008.149l-.188.558a.398.398 0 0 0 .254.504.37.37 0 0 0 .125.024c.168 0 .324-.11.383-.274l.207-.629c.258.07.527.156.805.254l-.172.52a.4.4 0 0 0 .379.527.397.397 0 0 0 .379-.273l.16-.473c.07.031.14.059.21.094.145.07.282.14.422.215l-.328.656a.4.4 0 1 0 .715.36l.305-.61c1.668 1.074 2.879 2.605 3.613 4.57l.074.207c.11.305.203.613.286.922a14.36 14.36 0 0 1 .23 1c.047.262.078.527.105.789.004.05.012.102.016.152.168 2.067-.36 4.094-1.512 5.68zm2.465-5.965a.443.443 0 0 1-.176 0c0-.015-.003-.027-.003-.043-.028-.25-.063-.504-.11-.754v-.004c0-.007 0-.011-.004-.015a13.888 13.888 0 0 0-.191-.88c-.008-.03-.02-.058-.027-.089a14.01 14.01 0 0 0-.235-.805c-.004-.007-.004-.011-.008-.02a.35.35 0 0 1 .125-.054c.153-.039.301.027.399.086.3.188.558.594.672 1.066.183.786-.082 1.426-.442 1.512zm0 0"/>
    <path d="M11.602 10.203c0-1.547-1.258-2.8-2.801-2.8A2.803 2.803 0 0 0 6 10.202 2.802 2.802 0 0 0 8.8 13c1.544 0 2.802-1.254 2.802-2.797zm-2.801 2a1.999 1.999 0 1 1-.002-4.002 1.999 1.999 0 0 1 .002 4.002zm0 0"/>
    <path d="M8.8 9.402a.802.802 0 0 1-1.6 0 .802.802 0 0 1 1.6 0zm0 0M16 7.402a2.803 2.803 0 0 0-2.8 2.801A2.802 2.802 0 0 0 16 13c1.543 0 2.8-1.254 2.8-2.797 0-1.547-1.257-2.8-2.8-2.8zm0 4.801c-1.102 0-2-.898-2-2 0-1.105.898-2 2-2 1.102 0 2 .895 2 2 0 1.102-.898 2-2 2zm0 0"/>
    <path d="M16 9.402a.802.802 0 0 1-1.602 0 .802.802 0 0 1 1.602 0zm0 0M14.488 15.633c-1.824-.274-4.289.926-5.61 2.73a.396.396 0 0 0 .087.559c.07.055.152.078.234.078a.393.393 0 0 0 .324-.164c1.145-1.559 3.32-2.64 4.848-2.41.645.094 1.066.414 1.25.945a.401.401 0 0 0 .758-.262c-.285-.812-.957-1.336-1.89-1.476zm0 0"/>
</svg>
