<svg xmlns="http://www.w3.org/2000/svg" width="32" height="32" viewBox="0 0 24 24">
    <path d="M 23.917969 8.9375 C 23.757812 8.257812 23.371094 7.671875 22.886719 7.375 C 22.5625 7.175781 22.21875 7.109375 21.882812 7.191406 C 21.808594 7.207031 21.734375 7.238281 21.664062 7.269531 C 21.660156 7.257812 21.652344 7.242188 21.648438 7.230469 C 21.636719 7.207031 21.632812 7.1875 21.621094 7.167969 C 20.214844 3.835938 17.671875 2.257812 15.574219 1.511719 C 15.574219 1.511719 15.574219 1.507812 15.570312 1.507812 C 15.511719 1.464844 15.441406 1.445312 15.371094 1.441406 C 13.625 0.855469 12.238281 0.839844 12.164062 0.839844 C 12.160156 0.839844 12.160156 0.839844 12.15625 0.839844 C 12.101562 0.839844 11.394531 0.847656 10.367188 1.058594 C 10.363281 1.058594 10.359375 1.054688 10.355469 1.054688 C 10.292969 1.054688 10.234375 1.074219 10.183594 1.097656 C 9.34375 1.28125 8.316406 1.601562 7.265625 2.15625 C 7.1875 2.171875 7.121094 2.207031 7.066406 2.261719 C 6.246094 2.714844 5.417969 3.320312 4.664062 4.113281 C 4.628906 4.136719 4.601562 4.167969 4.578125 4.203125 C 3.519531 5.347656 2.621094 6.878906 2.097656 8.933594 C 2.097656 8.941406 2.09375 8.949219 2.09375 8.953125 C 2.023438 9.238281 1.957031 9.527344 1.902344 9.832031 C 1.894531 9.867188 1.890625 9.898438 1.886719 9.933594 C 1.785156 9.902344 1.679688 9.882812 1.574219 9.882812 C 0.691406 9.882812 0 10.835938 0 12.054688 C 0 13.269531 0.691406 14.222656 1.574219 14.222656 C 1.738281 14.222656 1.894531 14.183594 2.046875 14.117188 C 2.328125 15.183594 2.792969 16.1875 3.429688 17.066406 C 4.707031 18.828125 7.214844 20.910156 11.925781 20.910156 C 12 20.910156 12.074219 20.910156 12.152344 20.910156 C 12.355469 20.910156 12.574219 20.90625 12.796875 20.898438 L 12.796875 21.160156 C 12.796875 22.261719 13.695312 23.160156 14.796875 23.160156 L 15.199219 23.160156 C 16.300781 23.160156 17.199219 22.261719 17.199219 21.160156 L 17.199219 19.996094 C 18.699219 19.347656 19.941406 18.367188 20.882812 17.066406 C 22.035156 15.480469 22.621094 13.488281 22.574219 11.4375 C 22.589844 11.4375 22.601562 11.441406 22.617188 11.441406 C 22.707031 11.441406 22.796875 11.433594 22.882812 11.410156 C 23.746094 11.207031 24.199219 10.121094 23.917969 8.9375 Z M 20.867188 7.417969 C 20.789062 7.753906 20.726562 7.976562 20.679688 8.117188 C 20.648438 8.070312 20.613281 8.027344 20.582031 7.988281 C 20.371094 7.703125 20.082031 7.324219 19.683594 7.003906 C 19.195312 5.652344 18.363281 4.355469 17.460938 3.304688 C 18.988281 4.296875 20.125 5.675781 20.867188 7.417969 Z M 15.144531 2.1875 C 17.109375 3.636719 19.625 7.066406 19.300781 9.828125 C 19.234375 10.386719 19.050781 10.882812 18.757812 11.328125 C 18.902344 10.65625 18.867188 9.90625 18.632812 9.085938 C 17.820312 6.1875 14.699219 2.941406 12.234375 1.640625 C 12.527344 1.644531 13.707031 1.707031 15.144531 2.1875 Z M 6.398438 6.910156 C 6.179688 6.910156 6 7.089844 6 7.3125 C 6 7.53125 6.179688 7.710938 6.398438 7.710938 C 6.414062 7.710938 6.421875 7.703125 6.433594 7.703125 C 6.25 7.882812 6.074219 8.070312 5.914062 8.273438 C 5.839844 8.175781 5.730469 8.109375 5.601562 8.109375 C 5.378906 8.109375 5.199219 8.289062 5.199219 8.511719 C 5.199219 8.640625 5.265625 8.753906 5.367188 8.824219 C 4.847656 9.246094 4.246094 9.480469 3.730469 9.441406 C 3.378906 9.414062 3.109375 9.253906 2.914062 8.984375 C 2.929688 8.929688 2.945312 8.875 2.960938 8.824219 C 3.027344 8.875 3.109375 8.910156 3.199219 8.910156 C 3.421875 8.910156 3.601562 8.730469 3.601562 8.511719 C 3.601562 8.289062 3.421875 8.109375 3.199219 8.109375 C 3.195312 8.109375 3.1875 8.113281 3.179688 8.113281 C 3.421875 7.425781 3.707031 6.808594 4.03125 6.257812 C 4.089844 6.40625 4.230469 6.511719 4.398438 6.511719 C 4.621094 6.511719 4.800781 6.332031 4.800781 6.109375 C 4.800781 5.890625 4.621094 5.710938 4.398438 5.710938 C 4.390625 5.710938 4.382812 5.714844 4.371094 5.714844 C 4.523438 5.492188 4.683594 5.285156 4.84375 5.085938 C 4.910156 5.21875 5.042969 5.3125 5.199219 5.3125 C 5.421875 5.3125 5.601562 5.132812 5.601562 4.910156 C 5.601562 4.894531 5.59375 4.878906 5.589844 4.859375 C 5.726562 4.871094 5.863281 4.890625 6 4.90625 C 6 4.90625 6 4.910156 6 4.910156 C 6 5.132812 6.179688 5.3125 6.398438 5.3125 C 6.578125 5.3125 6.722656 5.191406 6.773438 5.03125 C 6.945312 5.066406 7.113281 5.097656 7.28125 5.140625 C 7.355469 5.242188 7.464844 5.3125 7.601562 5.3125 C 7.65625 5.3125 7.710938 5.296875 7.757812 5.277344 C 8.625 5.53125 9.480469 5.878906 10.300781 6.300781 C 8.855469 6.230469 7.902344 6.53125 6.910156 7.289062 C 6.867188 7.324219 6.824219 7.367188 6.78125 7.402344 C 6.789062 7.371094 6.800781 7.34375 6.800781 7.3125 C 6.800781 7.089844 6.621094 6.910156 6.398438 6.910156 Z M 12.390625 6.625 C 12.382812 6.617188 12.371094 6.613281 12.363281 6.605469 C 10.386719 5.289062 8.058594 4.296875 5.8125 4.078125 C 6.328125 3.617188 6.871094 3.242188 7.414062 2.941406 C 9.105469 3.015625 15.097656 6.417969 16.722656 9.855469 C 17.046875 10.539062 17.160156 11.164062 17.082031 11.738281 C 16.929688 11.328125 16.699219 10.886719 16.382812 10.421875 C 15.492188 9.105469 14.070312 7.75 12.390625 6.625 Z M 10.34375 1.855469 C 10.347656 1.855469 10.351562 1.855469 10.355469 1.855469 C 12.234375 1.855469 16.878906 5.800781 17.863281 9.300781 C 18.089844 10.105469 18.097656 10.808594 17.898438 11.414062 C 17.902344 10.808594 17.757812 10.171875 17.445312 9.515625 C 16.007812 6.472656 11.226562 3.296875 8.566406 2.390625 C 9.207031 2.136719 9.816406 1.964844 10.34375 1.855469 Z M 1.871094 13.304688 C 1.789062 13.371094 1.6875 13.425781 1.574219 13.425781 C 1.207031 13.425781 0.800781 12.859375 0.800781 12.054688 C 0.800781 11.246094 1.207031 10.683594 1.574219 10.683594 C 1.640625 10.683594 1.710938 10.703125 1.777344 10.738281 C 1.757812 10.953125 1.746094 11.164062 1.738281 11.375 C 1.738281 11.394531 1.738281 11.410156 1.738281 11.429688 C 1.734375 11.601562 1.734375 11.773438 1.738281 11.941406 C 1.742188 12.003906 1.742188 12.0625 1.746094 12.121094 C 1.753906 12.257812 1.761719 12.394531 1.773438 12.527344 C 1.78125 12.59375 1.78125 12.65625 1.789062 12.71875 C 1.808594 12.890625 1.832031 13.0625 1.859375 13.234375 C 1.863281 13.257812 1.867188 13.28125 1.871094 13.304688 Z M 16.398438 21.160156 C 16.398438 21.820312 15.859375 22.359375 15.199219 22.359375 L 14.800781 22.359375 C 14.136719 22.359375 13.597656 21.820312 13.597656 21.160156 L 13.597656 18.441406 L 14.09375 18.441406 C 14.238281 18.441406 14.390625 18.441406 14.546875 18.441406 C 14.589844 18.730469 14.613281 19.324219 14.613281 20.21875 L 14.613281 20.285156 C 14.613281 20.503906 14.792969 20.683594 15.011719 20.683594 C 15.234375 20.683594 15.414062 20.503906 15.414062 20.285156 L 15.414062 20.21875 C 15.414062 19.859375 15.414062 19.3125 15.386719 18.84375 C 15.378906 18.714844 15.371094 18.578125 15.355469 18.441406 C 15.742188 18.445312 16.109375 18.445312 16.398438 18.441406 Z M 20.234375 16.597656 C 19.445312 17.6875 18.425781 18.535156 17.199219 19.125 L 17.199219 18.441406 C 17.421875 18.441406 17.597656 18.261719 17.597656 18.039062 C 17.597656 17.820312 17.421875 17.640625 17.199219 17.640625 L 17.199219 17.636719 L 16.792969 17.640625 L 8.398438 17.640625 C 8.179688 17.640625 8 17.820312 8 18.039062 C 8 18.261719 8.179688 18.441406 8.398438 18.441406 L 12.800781 18.441406 L 12.800781 20.101562 C 12.574219 20.109375 12.363281 20.113281 12.152344 20.109375 C 8.511719 20.15625 5.804688 18.980469 4.078125 16.597656 C 3.253906 15.460938 2.746094 14.097656 2.585938 12.652344 C 2.582031 12.621094 2.582031 12.589844 2.582031 12.558594 C 2.558594 12.332031 2.546875 12.101562 2.539062 11.871094 C 2.539062 11.769531 2.539062 11.667969 2.542969 11.566406 C 2.542969 11.40625 2.550781 11.242188 2.558594 11.082031 C 2.566406 10.960938 2.574219 10.839844 2.589844 10.722656 C 2.613281 10.472656 2.644531 10.226562 2.6875 9.976562 C 2.695312 9.949219 2.699219 9.925781 2.707031 9.898438 C 2.980469 10.09375 3.300781 10.210938 3.664062 10.242188 C 3.722656 10.246094 3.785156 10.25 3.847656 10.25 C 4.785156 10.25 5.828125 9.683594 6.542969 8.765625 C 6.792969 8.449219 7.082031 8.167969 7.398438 7.925781 C 8.5625 7.035156 9.648438 6.894531 12.019531 7.328125 C 13.574219 8.382812 14.890625 9.644531 15.722656 10.871094 C 16.371094 11.828125 16.628906 12.664062 16.429688 13.164062 C 16.425781 13.167969 16.425781 13.175781 16.425781 13.179688 C 16.421875 13.191406 16.417969 13.199219 16.414062 13.207031 C 16.410156 13.226562 16.410156 13.246094 16.410156 13.265625 C 16.40625 13.28125 16.402344 13.296875 16.402344 13.3125 C 16.402344 13.320312 16.402344 13.328125 16.402344 13.335938 C 16.402344 13.34375 16.402344 13.351562 16.40625 13.359375 C 16.40625 13.378906 16.414062 13.398438 16.421875 13.417969 C 16.421875 13.421875 16.421875 13.421875 16.421875 13.425781 C 16.425781 13.441406 16.425781 13.453125 16.429688 13.464844 C 16.429688 13.464844 16.429688 13.464844 16.433594 13.46875 C 16.433594 13.472656 16.4375 13.476562 16.4375 13.480469 C 16.4375 13.480469 16.441406 13.480469 16.441406 13.484375 C 16.445312 13.492188 16.449219 13.5 16.453125 13.507812 C 16.457031 13.511719 16.457031 13.515625 16.457031 13.519531 C 16.464844 13.53125 16.472656 13.539062 16.480469 13.546875 C 16.488281 13.558594 16.5 13.570312 16.507812 13.582031 C 16.511719 13.582031 16.511719 13.585938 16.511719 13.585938 C 16.515625 13.589844 16.515625 13.59375 16.519531 13.597656 C 16.527344 13.605469 16.535156 13.609375 16.539062 13.613281 C 16.542969 13.617188 16.542969 13.617188 16.546875 13.621094 C 16.550781 13.625 16.558594 13.625 16.5625 13.628906 C 16.570312 13.636719 16.582031 13.644531 16.59375 13.652344 C 16.609375 13.660156 16.621094 13.667969 16.636719 13.675781 C 16.644531 13.675781 16.644531 13.679688 16.652344 13.683594 C 16.652344 13.683594 16.65625 13.683594 16.660156 13.683594 C 16.664062 13.6875 16.671875 13.6875 16.675781 13.691406 C 16.683594 13.691406 16.6875 13.695312 16.691406 13.695312 C 16.726562 13.707031 16.761719 13.710938 16.796875 13.710938 C 16.796875 13.710938 16.796875 13.710938 16.800781 13.710938 C 16.835938 13.710938 16.875 13.707031 16.910156 13.695312 C 16.921875 13.691406 16.929688 13.6875 16.9375 13.683594 C 16.941406 13.683594 16.949219 13.683594 16.953125 13.679688 C 16.957031 13.679688 16.960938 13.675781 16.964844 13.675781 C 16.964844 13.675781 16.96875 13.671875 16.96875 13.671875 C 18.816406 12.898438 19.898438 11.601562 20.09375 9.925781 C 20.144531 9.507812 20.136719 9.082031 20.085938 8.65625 C 20.28125 8.902344 20.472656 9.09375 20.734375 9.09375 C 20.773438 9.09375 20.8125 9.089844 20.855469 9.082031 C 21.046875 9.039062 21.1875 8.910156 21.304688 8.683594 C 21.335938 8.785156 21.371094 8.882812 21.398438 8.980469 C 21.402344 9 21.40625 9.019531 21.410156 9.035156 C 21.492188 9.34375 21.566406 9.65625 21.625 9.976562 C 21.671875 10.242188 21.707031 10.503906 21.730469 10.769531 C 21.734375 10.820312 21.742188 10.867188 21.746094 10.917969 C 21.914062 12.984375 21.386719 15.015625 20.234375 16.597656 Z M 22.699219 10.632812 C 22.644531 10.644531 22.585938 10.644531 22.523438 10.632812 C 22.523438 10.617188 22.519531 10.605469 22.519531 10.589844 C 22.492188 10.335938 22.457031 10.085938 22.410156 9.832031 C 22.355469 9.523438 22.289062 9.226562 22.214844 8.941406 C 22.207031 8.910156 22.195312 8.878906 22.1875 8.847656 C 22.117188 8.570312 22.035156 8.300781 21.949219 8.042969 C 21.949219 8.039062 21.949219 8.03125 21.945312 8.027344 C 21.984375 8 22.027344 7.980469 22.070312 7.96875 C 22.222656 7.933594 22.371094 7.996094 22.46875 8.054688 C 22.769531 8.242188 23.027344 8.652344 23.140625 9.121094 C 23.324219 9.90625 23.058594 10.550781 22.699219 10.632812 Z M 22.699219 10.632812"/>
    <path d="M4.800781 8.511719C4.800781 8.730469 4.621094 8.910156 4.398438 8.910156 4.179688 8.910156 4 8.730469 4 8.511719 4 8.289062 4.179688 8.109375 4.398438 8.109375 4.621094 8.109375 4.800781 8.289062 4.800781 8.511719zM4.398438 7.3125C4.398438 7.53125 4.222656 7.710938 4 7.710938 3.777344 7.710938 3.601562 7.53125 3.601562 7.3125 3.601562 7.089844 3.777344 6.910156 4 6.910156 4.222656 6.910156 4.398438 7.089844 4.398438 7.3125zM5.601562 7.3125C5.601562 7.53125 5.421875 7.710938 5.199219 7.710938 4.980469 7.710938 4.800781 7.53125 4.800781 7.3125 4.800781 7.089844 4.980469 6.910156 5.199219 6.910156 5.421875 6.910156 5.601562 7.089844 5.601562 7.3125zM8.398438 6.109375C8.398438 6.332031 8.21875 6.511719 8 6.511719 7.777344 6.511719 7.601562 6.332031 7.601562 6.109375 7.601562 5.890625 7.777344 5.710938 8 5.710938 8.21875 5.710938 8.398438 5.890625 8.398438 6.109375zM7.199219 6.109375C7.199219 6.332031 7.019531 6.511719 6.800781 6.511719 6.578125 6.511719 6.398438 6.332031 6.398438 6.109375 6.398438 5.890625 6.578125 5.710938 6.800781 5.710938 7.019531 5.710938 7.199219 5.890625 7.199219 6.109375zM6 6.109375C6 6.332031 5.820312 6.511719 5.601562 6.511719 5.378906 6.511719 5.199219 6.332031 5.199219 6.109375 5.199219 5.890625 5.378906 5.710938 5.601562 5.710938 5.820312 5.710938 6 5.890625 6 6.109375zM12.894531 10.578125C12.007812 11.621094 11.085938 12.136719 10.148438 12.105469 8.636719 12.058594 7.53125 10.613281 7.519531 10.601562 7.386719 10.421875 7.136719 10.386719 6.960938 10.519531 6.785156 10.652344 6.746094 10.902344 6.878906 11.078125 6.933594 11.152344 8.21875 12.84375 10.117188 12.902344 10.152344 12.90625 10.1875 12.90625 10.222656 12.90625 11.378906 12.90625 12.480469 12.296875 13.503906 11.097656 13.648438 10.929688 13.628906 10.679688 13.460938 10.535156 13.292969 10.390625 13.039062 10.410156 12.894531 10.578125zM12.894531 10.578125"/>
</svg>
