<svg xmlns="http://www.w3.org/2000/svg" width="32" height="32" viewBox="0 0 24 24">
    <path d="M23.918 8.938c-.16-.68-.547-1.266-1.031-1.563-.325-.2-.668-.266-1.004-.184a1.125 1.125 0 0 0-.219.079l-.016-.04c-.011-.023-.015-.043-.027-.062-1.406-3.332-3.95-4.91-6.047-5.656 0 0 0-.004-.004-.004a.368.368 0 0 0-.199-.067C13.625.855 12.238.84 12.164.84h-.008c-.054 0-.761.008-1.789.219-.004 0-.008-.004-.012-.004a.414.414 0 0 0-.171.043 11.58 11.58 0 0 0-2.918 1.058.38.38 0 0 0-.2.106 9.945 9.945 0 0 0-2.402 1.851.314.314 0 0 0-.086.09C3.52 5.348 2.621 6.88 2.098 8.933c0 .008-.004.016-.004.02-.07.285-.137.574-.192.879a.912.912 0 0 0-.015.102 1.068 1.068 0 0 0-.313-.051C.691 9.883 0 10.836 0 12.055c0 1.215.691 2.168 1.574 2.168.164 0 .32-.04.473-.106a8.885 8.885 0 0 0 1.383 2.95c1.277 1.761 3.785 3.843 8.496 3.843h.226c.203 0 .422-.004.645-.012v.262c0 1.102.898 2 2 2h.402c1.102 0 2-.898 2-2v-1.164c1.5-.648 2.742-1.629 3.684-2.93 1.152-1.586 1.738-3.578 1.691-5.628.016 0 .028.003.043.003.09 0 .18-.007.266-.03.863-.204 1.316-1.29 1.035-2.473zm-3.05-1.52c-.079.336-.141.559-.188.7-.032-.048-.067-.09-.098-.13-.21-.285-.5-.664-.898-.984-.489-1.352-1.32-2.649-2.223-3.7 1.527.993 2.664 2.372 3.406 4.114zm-5.723-5.23c1.964 1.449 4.48 4.878 4.156 7.64a3.418 3.418 0 0 1-.543 1.5c.144-.672.11-1.422-.125-2.242-.813-2.899-3.934-6.145-6.399-7.445.293.004 1.473.066 2.91.546zM6.398 6.91a.401.401 0 0 0 0 .8c.016 0 .024-.007.036-.007-.184.18-.36.367-.52.57a.392.392 0 0 0-.312-.164.402.402 0 0 0-.403.403.38.38 0 0 0 .168.312c-.52.422-1.12.656-1.637.617a1.068 1.068 0 0 1-.816-.457l.047-.16c.066.051.148.086.238.086a.401.401 0 1 0 0-.8c-.004 0-.011.003-.02.003.243-.687.528-1.304.852-1.855.059.148.2.254.367.254a.401.401 0 0 0 0-.8c-.007-.001-.015.003-.027.003.152-.223.313-.43.473-.63a.4.4 0 0 0 .355.228c.223 0 .403-.18.403-.403 0-.015-.008-.031-.012-.05.137.011.273.03.41.046v.004c0 .223.18.402.398.402.18 0 .325-.12.375-.28.172.034.34.066.508.109a.392.392 0 0 0 .32.171c.055 0 .11-.015.157-.035.867.254 1.722.602 2.543 1.024-1.446-.07-2.399.23-3.39.988-.044.035-.087.078-.13.113.008-.03.02-.058.02-.09a.402.402 0 0 0-.403-.402zm5.993-.285c-.008-.008-.02-.012-.028-.02-1.976-1.316-4.304-2.308-6.55-2.527a8.802 8.802 0 0 1 1.601-1.137c1.691.075 7.684 3.477 9.309 6.914.324.684.437 1.31.359 1.883a6.209 6.209 0 0 0-.7-1.316c-.89-1.317-2.312-2.672-3.991-3.797zm-2.047-4.77h.011c1.88 0 6.524 3.946 7.508 7.446.227.804.235 1.508.035 2.113.004-.605-.14-1.242-.453-1.898-1.437-3.043-6.218-6.22-8.879-7.125.641-.254 1.25-.426 1.778-.536zM1.87 13.305a.481.481 0 0 1-.297.12c-.367 0-.773-.566-.773-1.37 0-.809.406-1.371.773-1.371a.44.44 0 0 1 .203.054c-.02.215-.03.426-.039.637v.055c-.004.172-.004.343 0 .511.004.063.004.121.008.18.008.137.016.274.027.406.008.067.008.13.016.192.02.172.043.344.07.515l.012.07zm14.527 7.855c0 .66-.539 1.2-1.199 1.2h-.398c-.664 0-1.203-.54-1.203-1.2v-2.719H14.547c.043.29.066.883.066 1.778v.066a.4.4 0 0 0 .801 0v-.066c0-.36 0-.907-.027-1.375-.008-.13-.016-.266-.032-.403.387.004.754.004 1.043 0zm3.836-4.562a7.953 7.953 0 0 1-3.035 2.527v-.684c.223 0 .399-.18.399-.402a.398.398 0 0 0-.399-.398v-.004l-.406.004H8.398a.4.4 0 0 0 0 .8h4.403v1.66c-.227.008-.438.012-.649.008-3.64.047-6.347-1.129-8.074-3.511-.824-1.137-1.332-2.5-1.492-3.946-.004-.03-.004-.062-.004-.093a9.99 9.99 0 0 1-.043-.688c0-.101 0-.203.004-.305 0-.16.008-.324.016-.484.007-.121.015-.242.03-.36.024-.25.056-.495.099-.745.007-.028.011-.051.019-.079a1.9 1.9 0 0 0 .957.344c.059.004.121.008.184.008.937 0 1.98-.566 2.695-1.484.25-.317.539-.598.855-.84 1.165-.89 2.25-1.031 4.622-.598 1.554 1.055 2.87 2.317 3.703 3.543.648.957.906 1.793.707 2.293-.004.004-.004.012-.004.016a.19.19 0 0 1-.012.027c-.004.02-.004.04-.004.059-.004.015-.008.03-.008.046v.024c0 .008 0 .016.004.023 0 .02.008.04.016.059v.008c.004.015.004.027.008.039l.004.004c0 .004.003.008.003.011 0 0 .004 0 .004.004l.012.024c.004.004.004.008.004.012.008.011.016.02.023.027.008.012.02.023.028.035.004 0 .004.004.004.004.004.004.004.008.008.012.007.007.015.011.02.015l.007.008c.004.004.012.004.015.008.008.008.02.016.032.023l.043.024c.008 0 .008.004.015.008h.008c.004.004.012.004.016.007.008 0 .012.004.015.004.036.012.07.016.106.016h.004a.353.353 0 0 0 .11-.016.19.19 0 0 0 .026-.011c.004 0 .012 0 .016-.004.004 0 .008-.004.012-.004l.004-.004c1.847-.774 2.93-2.07 3.125-3.746.05-.418.043-.844-.008-1.27.195.246.387.438.648.438.04 0 .078-.004.121-.012.192-.043.332-.172.45-.398.03.101.066.199.093.296l.012.055c.082.309.156.621.215.942.047.265.082.527.105.793.004.05.012.097.016.148.168 2.066-.36 4.098-1.512 5.68zm2.465-5.965a.443.443 0 0 1-.176 0c0-.016-.003-.028-.003-.043a11.501 11.501 0 0 0-.305-1.648c-.008-.032-.02-.063-.027-.094-.07-.278-.153-.547-.239-.805 0-.004 0-.012-.004-.016a.405.405 0 0 1 .125-.058c.153-.035.301.027.399.086.3.187.558.597.672 1.066.183.785-.082 1.43-.442 1.512zm0 0"/>
    <path d="M4.8 8.512A.401.401 0 1 1 4 8.507a.401.401 0 0 1 .802.005zm0 0M4.398 7.313a.398.398 0 1 1-.796 0 .398.398 0 1 1 .796 0zm0 0M5.602 7.313a.401.401 0 1 1-.802-.006.401.401 0 0 1 .802.005zm0 0M8.398 6.11a.398.398 0 0 1-.797 0 .398.398 0 1 1 .797 0zm0 0M7.2 6.11a.401.401 0 1 1-.803.002.401.401 0 0 1 .802-.003zm0 0M6 6.11a.401.401 0 1 1-.802.002A.401.401 0 0 1 6 6.11zm0 0M12.895 10.578c-.887 1.043-1.81 1.559-2.747 1.527-1.511-.046-2.617-1.492-2.628-1.503a.4.4 0 0 0-.64.477c.054.073 1.339 1.765 3.237 1.823.035.004.07.004.106.004 1.156 0 2.257-.61 3.28-1.808a.397.397 0 0 0-.042-.563.402.402 0 0 0-.566.043zm0 0"/>
</svg>
