<svg xmlns="http://www.w3.org/2000/svg" width="32" height="32" viewBox="0 0 24 24">
    <path d="M 23.917969 10.625 C 23.757812 9.949219 23.371094 9.363281 22.886719 9.066406 C 22.5625 8.867188 22.214844 8.800781 21.882812 8.882812 C 21.808594 8.898438 21.734375 8.925781 21.664062 8.960938 C 20.730469 6.6875 19.273438 5.214844 17.773438 4.265625 L 18.316406 3.179688 C 18.417969 2.980469 18.335938 2.742188 18.140625 2.640625 C 17.941406 2.542969 17.703125 2.625 17.601562 2.820312 L 17.082031 3.863281 C 16.835938 3.730469 16.589844 3.613281 16.347656 3.507812 L 16.738281 2.328125 C 16.808594 2.117188 16.695312 1.890625 16.484375 1.820312 C 16.273438 1.75 16.050781 1.863281 15.980469 2.074219 L 15.601562 3.210938 C 15.324219 3.113281 15.054688 3.027344 14.796875 2.953125 L 15.140625 1.925781 C 15.210938 1.714844 15.097656 1.488281 14.886719 1.421875 C 14.675781 1.351562 14.449219 1.464844 14.378906 1.671875 L 14.015625 2.761719 C 13.511719 2.65625 13.078125 2.597656 12.757812 2.566406 L 12.757812 1.800781 C 12.757812 1.578125 12.582031 1.398438 12.359375 1.398438 C 12.136719 1.398438 11.960938 1.578125 11.960938 1.800781 L 11.960938 2.539062 C 11.75 2.546875 11.382812 2.578125 10.90625 2.652344 L 10.753906 1.734375 C 10.71875 1.515625 10.511719 1.367188 10.292969 1.40625 C 10.074219 1.441406 9.929688 1.648438 9.964844 1.863281 L 10.121094 2.800781 C 9.691406 2.898438 9.21875 3.03125 8.71875 3.210938 L 8.339844 2.074219 C 8.269531 1.863281 8.046875 1.75 7.832031 1.820312 C 7.625 1.890625 7.511719 2.117188 7.582031 2.324219 L 7.972656 3.503906 C 7.628906 3.65625 7.277344 3.832031 6.925781 4.035156 L 6.316406 2.820312 C 6.21875 2.625 5.980469 2.542969 5.78125 2.640625 C 5.582031 2.742188 5.503906 2.980469 5.601562 3.179688 L 6.242188 4.460938 C 5.890625 4.699219 5.542969 4.972656 5.203125 5.277344 L 4.242188 4.316406 C 4.085938 4.160156 3.832031 4.160156 3.675781 4.316406 C 3.519531 4.472656 3.519531 4.726562 3.675781 4.882812 L 4.632812 5.835938 C 3.402344 7.148438 2.375 8.972656 1.902344 11.523438 C 1.894531 11.554688 1.890625 11.589844 1.886719 11.621094 C 1.785156 11.59375 1.679688 11.574219 1.574219 11.574219 C 0.691406 11.574219 0 12.527344 0 13.746094 C 0 14.960938 0.691406 15.914062 1.574219 15.914062 C 1.738281 15.914062 1.894531 15.875 2.046875 15.808594 C 2.328125 16.875 2.792969 17.878906 3.429688 18.757812 C 4.707031 20.519531 7.214844 22.601562 11.9375 22.601562 C 12.011719 22.601562 12.082031 22.601562 12.15625 22.597656 C 12.230469 22.601562 12.300781 22.601562 12.375 22.601562 C 17.09375 22.601562 19.605469 20.519531 20.882812 18.757812 C 22.035156 17.171875 22.621094 15.183594 22.574219 13.128906 C 22.589844 13.132812 22.601562 13.132812 22.617188 13.132812 C 22.707031 13.132812 22.796875 13.125 22.886719 13.101562 C 23.746094 12.898438 24.199219 11.808594 23.917969 10.625 Z M 1.871094 14.996094 C 1.789062 15.0625 1.6875 15.113281 1.574219 15.113281 C 1.207031 15.113281 0.800781 14.550781 0.800781 13.746094 C 0.800781 12.9375 1.207031 12.375 1.574219 12.375 C 1.640625 12.375 1.710938 12.394531 1.777344 12.429688 C 1.757812 12.644531 1.746094 12.855469 1.738281 13.066406 C 1.738281 13.082031 1.738281 13.097656 1.738281 13.113281 C 1.734375 13.289062 1.734375 13.464844 1.738281 13.636719 C 1.742188 13.695312 1.742188 13.75 1.746094 13.808594 C 1.75 13.949219 1.761719 14.089844 1.773438 14.230469 C 1.78125 14.289062 1.78125 14.347656 1.789062 14.40625 C 1.808594 14.578125 1.832031 14.753906 1.859375 14.925781 C 1.863281 14.949219 1.867188 14.972656 1.871094 14.996094 Z M 20.234375 18.289062 C 18.507812 20.667969 15.796875 21.863281 12.160156 21.800781 L 12.152344 21.800781 C 12.078125 21.800781 12.003906 21.800781 11.929688 21.800781 C 8.410156 21.800781 5.769531 20.621094 4.078125 18.289062 C 3.253906 17.152344 2.746094 15.785156 2.585938 14.34375 C 2.582031 14.3125 2.582031 14.28125 2.582031 14.25 C 2.558594 14.019531 2.546875 13.792969 2.539062 13.558594 C 2.539062 13.460938 2.539062 13.359375 2.542969 13.257812 C 2.542969 13.09375 2.550781 12.933594 2.558594 12.769531 C 2.566406 12.652344 2.574219 12.53125 2.589844 12.414062 C 2.613281 12.164062 2.644531 11.914062 2.6875 11.667969 C 3.128906 9.296875 4.0625 7.601562 5.183594 6.386719 L 5.675781 6.882812 C 5.753906 6.960938 5.859375 7 5.960938 7 C 6.0625 7 6.164062 6.960938 6.242188 6.882812 C 6.398438 6.726562 6.398438 6.472656 6.242188 6.316406 L 5.75 5.824219 C 6.023438 5.578125 6.304688 5.351562 6.589844 5.152344 L 6.800781 5.578125 C 6.871094 5.71875 7.015625 5.800781 7.160156 5.800781 C 7.222656 5.800781 7.28125 5.785156 7.339844 5.757812 C 7.535156 5.660156 7.617188 5.417969 7.519531 5.222656 L 7.265625 4.71875 C 7.585938 4.535156 7.902344 4.371094 8.214844 4.230469 L 8.382812 4.726562 C 8.4375 4.894531 8.59375 5 8.761719 5 C 8.800781 5 8.84375 4.992188 8.886719 4.980469 C 9.09375 4.910156 9.210938 4.683594 9.140625 4.472656 L 8.960938 3.933594 C 9.417969 3.769531 9.855469 3.652344 10.25 3.566406 L 10.367188 4.265625 C 10.398438 4.460938 10.566406 4.601562 10.757812 4.601562 C 10.78125 4.601562 10.804688 4.597656 10.824219 4.59375 C 11.042969 4.558594 11.191406 4.351562 11.152344 4.136719 L 11.035156 3.425781 C 11.445312 3.367188 11.765625 3.34375 11.960938 3.335938 L 11.960938 4.199219 C 11.960938 4.421875 12.136719 4.601562 12.359375 4.601562 C 12.582031 4.601562 12.757812 4.421875 12.757812 4.199219 L 12.757812 3.363281 C 13.027344 3.390625 13.367188 3.4375 13.765625 3.515625 L 13.582031 4.074219 C 13.511719 4.28125 13.625 4.511719 13.832031 4.578125 C 13.875 4.59375 13.917969 4.601562 13.960938 4.601562 C 14.128906 4.601562 14.28125 4.496094 14.339844 4.328125 L 14.546875 3.699219 C 14.804688 3.769531 15.074219 3.855469 15.351562 3.953125 L 15.179688 4.472656 C 15.109375 4.683594 15.222656 4.910156 15.433594 4.980469 C 15.476562 4.992188 15.515625 5 15.558594 5 C 15.726562 5 15.882812 4.894531 15.9375 4.726562 L 16.097656 4.253906 C 16.167969 4.285156 16.238281 4.3125 16.308594 4.347656 C 16.453125 4.417969 16.59375 4.488281 16.730469 4.5625 L 16.402344 5.21875 C 16.300781 5.417969 16.382812 5.660156 16.578125 5.757812 C 16.636719 5.785156 16.699219 5.800781 16.757812 5.800781 C 16.90625 5.800781 17.046875 5.71875 17.117188 5.578125 L 17.421875 4.96875 C 19.089844 6.042969 20.300781 7.574219 21.039062 9.539062 L 21.035156 9.539062 L 21.109375 9.746094 C 21.21875 10.050781 21.3125 10.359375 21.398438 10.667969 C 21.402344 10.6875 21.40625 10.707031 21.410156 10.726562 C 21.492188 11.035156 21.566406 11.347656 21.625 11.667969 C 21.671875 11.929688 21.707031 12.195312 21.730469 12.457031 C 21.734375 12.507812 21.742188 12.558594 21.746094 12.609375 C 21.914062 14.675781 21.386719 16.703125 20.234375 18.289062 Z M 22.699219 12.324219 C 22.644531 12.335938 22.585938 12.335938 22.523438 12.324219 C 22.523438 12.308594 22.519531 12.296875 22.519531 12.28125 C 22.492188 12.03125 22.457031 11.777344 22.410156 11.527344 C 22.410156 11.527344 22.410156 11.523438 22.410156 11.523438 C 22.410156 11.515625 22.410156 11.511719 22.40625 11.507812 C 22.351562 11.203125 22.285156 10.914062 22.214844 10.628906 C 22.207031 10.597656 22.195312 10.570312 22.1875 10.539062 C 22.117188 10.261719 22.035156 9.992188 21.953125 9.734375 C 21.949219 9.726562 21.949219 9.722656 21.945312 9.714844 C 21.988281 9.6875 22.027344 9.667969 22.070312 9.660156 C 22.222656 9.621094 22.371094 9.6875 22.46875 9.746094 C 22.769531 9.933594 23.027344 10.339844 23.140625 10.8125 C 23.324219 11.597656 23.058594 12.238281 22.699219 12.324219 Z M 22.699219 12.324219"/>
    <path d="M11.199219 9.34375C11.199219 9.125 11.019531 8.945312 10.800781 8.945312 10.578125 8.945312 10.398438 9.125 10.398438 9.34375 10.398438 10.890625 9.691406 11.746094 8.398438 11.746094 7.363281 11.746094 6.253906 11.292969 6.253906 10.023438 6.253906 9.132812 6.976562 8.410156 7.863281 8.410156 8.519531 8.410156 9.054688 8.941406 9.054688 9.601562 9.054688 10.070312 8.671875 10.457031 8.199219 10.457031 7.871094 10.457031 7.605469 10.191406 7.605469 9.863281 7.605469 9.652344 7.777344 9.480469 7.992188 9.480469 8.210938 9.480469 8.390625 9.300781 8.390625 9.078125 8.390625 8.859375 8.210938 8.679688 7.992188 8.679688 7.335938 8.679688 6.804688 9.210938 6.804688 9.863281 6.804688 10.632812 7.429688 11.253906 8.199219 11.253906 9.113281 11.253906 9.855469 10.511719 9.855469 9.601562 9.855469 8.503906 8.960938 7.609375 7.863281 7.609375 6.535156 7.609375 5.453125 8.691406 5.453125 10.023438 5.453125 11.53125 6.636719 12.542969 8.398438 12.542969 10.125 12.542969 11.199219 11.320312 11.199219 9.34375zM15.453125 6.945312C13.726562 6.945312 12.652344 8.171875 12.652344 10.144531 12.652344 10.367188 12.832031 10.542969 13.050781 10.542969 13.273438 10.542969 13.453125 10.367188 13.453125 10.144531 13.453125 8.597656 14.160156 7.746094 15.453125 7.746094 16.492188 7.746094 17.597656 8.199219 17.597656 9.46875 17.597656 10.355469 16.875 11.082031 15.988281 11.082031 15.332031 11.082031 14.796875 10.546875 14.796875 9.890625 14.796875 9.417969 15.179688 9.035156 15.652344 9.035156 15.980469 9.035156 16.246094 9.300781 16.246094 9.625 16.246094 9.835938 16.074219 10.011719 15.859375 10.011719 15.640625 10.011719 15.460938 10.1875 15.460938 10.410156 15.460938 10.632812 15.640625 10.808594 15.859375 10.808594 16.515625 10.808594 17.046875 10.277344 17.046875 9.625 17.046875 8.859375 16.421875 8.234375 15.652344 8.234375 14.738281 8.234375 13.996094 8.976562 13.996094 9.890625 13.996094 10.988281 14.890625 11.878906 15.988281 11.878906 17.316406 11.878906 18.398438 10.796875 18.398438 9.46875 18.398438 7.957031 17.214844 6.945312 15.453125 6.945312zM12.398438 14.203125C9.484375 14.203125 7.601562 15.773438 7.601562 18.203125 7.601562 18.652344 7.652344 19.28125 8.097656 19.605469 8.605469 19.976562 9.3125 19.746094 10.128906 19.476562 10.808594 19.257812 11.578125 19.003906 12.398438 19.003906 13.21875 19.003906 13.992188 19.257812 14.671875 19.476562 15.183594 19.644531 15.652344 19.796875 16.054688 19.796875 16.296875 19.796875 16.511719 19.746094 16.703125 19.605469 17.148438 19.28125 17.199219 18.652344 17.199219 18.203125 17.199219 15.773438 15.316406 14.203125 12.398438 14.203125zM16.230469 18.960938C16.054688 19.085938 15.453125 18.890625 14.917969 18.71875 14.738281 18.65625 14.542969 18.59375 14.339844 18.535156 14.128906 17.65625 13.34375 17 12.398438 17 11.457031 17 10.671875 17.65625 10.460938 18.535156 10.257812 18.59375 10.0625 18.65625 9.882812 18.71875 9.347656 18.890625 8.742188 19.089844 8.566406 18.960938 8.527344 18.929688 8.398438 18.792969 8.398438 18.203125 8.398438 15.84375 10.464844 15.003906 12.398438 15.003906 14.332031 15.003906 16.398438 15.84375 16.398438 18.203125 16.398438 18.792969 16.269531 18.929688 16.230469 18.960938zM16.230469 18.960938"/>
</svg>
