<svg xmlns="http://www.w3.org/2000/svg" width="32" height="32" viewBox="0 0 24 24">
    <path d="M17.535 15.605c-.355 0-.691.133-.953.36-.25-.23-.578-.36-.934-.36-.746 0-1.363.598-1.441 1.391-.012.082-.027.266.04.543.105.418.335.793.675 1.09l1.394 1.223a.39.39 0 0 0 .262.097.39.39 0 0 0 .262-.097l1.418-1.223c.34-.297.574-.672.676-1.09.066-.277.054-.46.043-.543-.079-.793-.696-1.39-1.442-1.39zm.621 1.743a1.312 1.312 0 0 1-.422.68l-1.152.992-1.133-.993a1.312 1.312 0 0 1-.422-.68c-.035-.14-.03-.222-.03-.222l.003-.04c.031-.339.266-.679.648-.679a.61.61 0 0 1 .563.383c.066.148.21.242.367.242.16 0 .305-.093.367-.238a.64.64 0 0 1 .59-.387c.383 0 .613.34.649.707 0 0 .011.082-.028.235zm0 0M10.309 13.484a.4.4 0 0 0 .27-.351c.097-1.54-1.216-3.031-2.755-3.13a.407.407 0 0 0-.426.376.407.407 0 0 0 .375.426c.793.05 1.524.636 1.84 1.375a2.804 2.804 0 0 0-3.086.41.402.402 0 0 0-.039.566c.149.164.403.18.567.035a1.995 1.995 0 0 1 1.449-.496 1.983 1.983 0 0 1 1.375.676.41.41 0 0 0 .3.137.375.375 0 0 0 .13-.024zm0 0M12.02 16.004c-.407 0-.79.183-1.051.496a.398.398 0 0 0 .054.563.398.398 0 0 0 .563-.051.552.552 0 0 1 .434-.207c.312 0 .566.254.566.566a.566.566 0 0 1-.926.434.398.398 0 0 0-.562.054.398.398 0 0 0 .054.563c.149.125.328.207.512.258a.78.78 0 0 1 .102.093.565.565 0 1 1-1.012.332.4.4 0 0 0-.387-.41h-.012a.398.398 0 0 0-.398.387c-.012.316.09.629.285.879.27.344.672.523 1.078.523.293 0 .59-.09.836-.285a1.36 1.36 0 0 0 .422-1.586 1.365 1.365 0 0 0-.559-2.61zm0 0"/>
    <path d="M22.516 7.54c-.227-1.634-.93-3.044-1.93-3.868-.258-.215-.445-.547-.563-.992-.328-1.285-1.539-2.184-3.078-2.29-.855-.058-1.597.208-2.41.536-.031.011-.062.011-.113-.02-.164-.445-.543-.75-1.063-.86-1.203-.253-3.054.524-4.543 1.88.004-.356.079-.676.278-.778L9.77.813 9.113.44c-.699-.39-2.375-.812-3.738.38-.492.433-.855 1.038-1.04 1.75-.038.148-.073.304-.108.456-.016.067-.07.086-.094.094-.043.008-.078 0-.117-.05a.954.954 0 0 0-.871-.34.899.899 0 0 0-.711.542c-.79 1.829-2.262 6.48.878 10.461v6.664c0 1.102.899 2 2 2h1.204v.68c0 .508.414.922.921.922h9.36a.924.924 0 0 0 .922-.922v-.68h1.199c1.105 0 2-.898 2-2v-6.644c.469-.527 2.09-2.645 1.598-6.215zM3.168 3.59c.008-.016.023-.059.09-.07.02 0 .086-.004.156.082.223.265.57.378.906.296a.919.919 0 0 0 .688-.695c.031-.144.066-.293.105-.43.145-.554.418-1.023.79-1.351.84-.734 1.769-.637 2.324-.477-.204.38-.262.914-.168 1.567.027.215.175.39.382.46a.581.581 0 0 0 .59-.144c1.524-1.547 3.281-2.183 4.16-1.996.38.078.457.29.48.356.083.21.243.378.454.468.223.098.48.102.707.012.746-.297 1.375-.523 2.059-.477.945.067 2.062.543 2.359 1.688.156.613.438 1.086.828 1.41.399.332 1.363 1.32 1.645 3.36.308 2.222-.278 3.808-.805 4.726v-5.48l-.602.355c-.984.578-1.84.754-2.554.523a1.827 1.827 0 0 1-.309-.128c-.023-.012-.043-.028-.066-.043a1.714 1.714 0 0 1-.2-.125c-.019-.016-.035-.032-.058-.047-.055-.047-.113-.094-.16-.137-.024-.023-.04-.043-.059-.063-.039-.043-.082-.085-.117-.128-.023-.024-.035-.047-.055-.07l-.082-.106c-.015-.028-.027-.043-.043-.067-.015-.027-.039-.058-.05-.082-.012-.015-.012-.023-.02-.035l-.059-.105-.086-.203-.218-.036c-3.84-.59-5.707 1.016-6.23 1.579C7.16 7.672 5.952 6.87 5.94 6.863l-.296-.203-.235.274a4.453 4.453 0 0 1-1.836 1.273l-.261.098v4.027C1.351 9.059 2.34 5.516 3.167 3.59zm13.75 19.488a.122.122 0 0 1-.121.121h-9.36a.123.123 0 0 1-.125-.12v-.68h9.606zm3.2-2.68a1.2 1.2 0 0 1-1.2 1.2H5.313c-.66 0-1.2-.54-1.2-1.2V8.855A5.299 5.299 0 0 0 5.793 7.7c.562.293 1.922.864 4.285 1.094l.223.02.136-.18c.063-.082 1.555-1.996 5.422-1.473.207.356.72 1.07 1.645 1.371.781.258 1.66.164 2.613-.277zm0 0"/>
    <path d="M18.188 12.004c0-1.543-1.258-2.8-2.801-2.8a2.803 2.803 0 0 0-2.801 2.8c0 1.543 1.254 2.8 2.8 2.8 1.544 0 2.802-1.257 2.802-2.8zm-4.805 0c0-1.102.898-2 2.004-2 1.101 0 2 .898 2 2 0 1.101-.899 2-2 2a2.005 2.005 0 0 1-2.004-2zm0 0"/>
    <path d="M16.184 12.004a.799.799 0 1 1-1.598 0 .8.8 0 1 1 1.598 0zm0 0"/>
</svg>
