<svg xmlns="http://www.w3.org/2000/svg" width="32" height="32" viewBox="0 0 24 24">
    <path d="M17.422 16.465l-7.598.8a.402.402 0 0 0 .043.801l.04-.003L11 17.945v1.29a.397.397 0 0 0 .398.402c.008 0 .016-.004.024-.004l2.61-.145h.003l2.168-.12a.398.398 0 0 0 .375-.4V17.36l.93-.097a.399.399 0 0 0 .355-.438.405.405 0 0 0-.441-.36zM11.8 17.867l1.808-.187v1.03l-1.808.102zm3.98.723l-1.37.078v-1.074l1.37-.145zm0 0"/>
    <path d="M23.918 10.063c-.16-.68-.547-1.266-1.031-1.563-.325-.2-.672-.266-1.004-.184a1.125 1.125 0 0 0-.219.079c-2.613-6.356-9.332-6.43-9.5-6.43h-.004c-.027 0-.824.004-1.973.254h-.007c-.36.082-.75.183-1.164.32-.012 0-.024-.004-.036-.004v.016c-2.628.87-6.085 3.031-7.078 8.406a.912.912 0 0 0-.015.102 1.068 1.068 0 0 0-.313-.051C.691 11.008 0 11.96 0 13.18c0 1.215.691 2.168 1.574 2.168.164 0 .32-.04.473-.106a8.885 8.885 0 0 0 1.383 2.95c1.297 1.788 3.863 3.91 8.726 3.843h.219c4.719 0 7.23-2.082 8.508-3.844 1.152-1.586 1.738-3.578 1.691-5.628.016 0 .028.003.043.003.09 0 .18-.007.27-.03.855-.204 1.312-1.29 1.031-2.473zM9.039 3.34c1.059.062 1.941 1.68 1.941 3.598h.801c0-1.731-.605-3.196-1.508-3.918 1.094.027 2.309.582 2.309 4.214h.797c0-.847 0-2.875-1.02-4.078 1.051.7 1.82 2.465 1.82 4.48h.801c0-1.952-.613-3.644-1.562-4.64 1.36.508 2.363 2.211 2.363 4.238h.797c0-1.55-.527-2.937-1.355-3.894.351.12.714.265 1.086.441 2.183 1.035 3.734 2.7 4.64 4.961l-1.777 1.387c-.356-1.203-1.274-2.082-2.379-2.14-.637-.032-1.254.206-1.75.675-.34.324-.605.738-.777 1.203a1.233 1.233 0 0 0-.625-.203 1.15 1.15 0 0 0-.625.184c-.47-1.246-1.555-2.145-2.848-2.215a3.08 3.08 0 0 0-2.281.863 3.577 3.577 0 0 0-.985 1.664l-3.43-1.672C4.794 5.43 7.123 4.004 9.04 3.34zm6.555 5.906c.316-.3.691-.46 1.078-.46.027 0 .05.003.078.003.98.05 1.781 1.149 1.781 2.445 0 1.293-.8 2.391-1.781 2.442-.414.023-.816-.137-1.156-.457-.492-.469-.774-1.192-.774-1.989 0-.793.282-1.52.774-1.984zm-3.13 1.988c0 1.496-1.027 2.727-2.339 2.797-.613.04-1.219-.195-1.691-.644-.559-.532-.883-1.317-.883-2.153 0-.84.324-1.625.883-2.156a2.275 2.275 0 0 1 1.691-.644c1.313.07 2.34 1.3 2.34 2.8zM1.872 14.43a.477.477 0 0 1-.297.117c-.367 0-.773-.563-.773-1.367 0-.809.406-1.371.773-1.371a.44.44 0 0 1 .203.054c-.02.215-.03.426-.039.64v.044c-.004.176-.004.351 0 .527.004.055.004.114.008.168a15.281 15.281 0 0 0 .043.598c.02.176.043.348.07.52l.012.07zm18.363 3.293c-1.726 2.379-4.43 3.558-8.074 3.511h-.008c-3.636.063-6.347-1.132-8.074-3.511-.824-1.137-1.332-2.5-1.492-3.946-.004-.03-.004-.062-.008-.09-.02-.23-.035-.46-.039-.695-.004-.097 0-.199 0-.297.004-.164.008-.328.02-.492a9.868 9.868 0 0 1 .129-1.102 12.55 12.55 0 0 1 .492-1.863l3.582 1.746c-.004.082-.012.164-.012.25 0 1.055.414 2.051 1.133 2.735.594.562 1.34.867 2.12.867.056 0 .11 0 .161-.004 1.738-.094 3.102-1.676 3.102-3.598 0-.156-.012-.308-.032-.46h.032c0-.079.058-.149.093-.184.086-.086.196-.133.262-.125.149 0 .399.187.399.324h.027a4.13 4.13 0 0 0-.027.445c0 1.012.37 1.95 1.023 2.567.465.437 1.039.68 1.629.68.039 0 .082-.004.121-.004 1.422-.079 2.539-1.504 2.539-3.243 0-.07-.008-.14-.012-.207l1.903-1.484c.058.187.12.371.172.555.007.023.011.047.02.07.077.305.148.613.206.93v.004c.05.27.086.535.11.8.003.047.011.09.015.137.172 2.066-.36 4.098-1.512 5.684zm2.465-5.965a.381.381 0 0 1-.176 0c0-.016-.003-.031-.003-.047-.028-.25-.063-.5-.11-.75v-.004l-.004-.016c-.054-.3-.12-.59-.191-.875-.008-.035-.02-.07-.031-.105-.07-.274-.149-.535-.23-.785-.005-.008-.005-.016-.009-.028a.394.394 0 0 1 .125-.054c.153-.035.297.027.395.086.305.187.562.597.672 1.066.187.785-.082 1.426-.438 1.512zm0 0"/>
    <path d="M17.781 12.234a.602.602 0 0 1-1.203 0c0-.332.27-.597.602-.597.332 0 .601.265.601.597zm0 0M11.781 11.836c0 .332-.27.598-.601.598a.595.595 0 0 1-.598-.598.598.598 0 1 1 1.2 0zm0 0"/>
</svg>
