<svg xmlns="http://www.w3.org/2000/svg" width="32" height="32" viewBox="0 0 24 24">
    <path d="M8.727 8.184c0 .902-.73 1.632-1.637 1.632a1.635 1.635 0 1 1 0-3.27c.906 0 1.637.731 1.637 1.638zm0 0"/>
    <path d="M7.09 12a3.825 3.825 0 0 0 3.82-3.816 3.826 3.826 0 0 0-3.82-3.82 3.823 3.823 0 0 0-3.817 3.82A3.822 3.822 0 0 0 7.09 12zm0-6.547a2.729 2.729 0 0 1 0 5.457 2.729 2.729 0 0 1 0-5.457zm0 0"/>
    <path d="M12 0C5.383 0 0 5.383 0 12s5.383 12 12 12 12-5.383 12-12S18.617 0 12 0zm0 22.91C5.984 22.91 1.09 18.016 1.09 12S5.984 1.09 12 1.09 22.91 5.984 22.91 12c0 .527-.05 1.04-.125 1.547-1.41-.39-2.46-1.965-2.59-3.434a3.774 3.774 0 0 0 .532-1.93c0-2.105-1.711-3.82-3.817-3.82a3.826 3.826 0 0 0-3.82 3.82A3.825 3.825 0 0 0 16.91 12c.899 0 1.727-.316 2.38-.836.46 1.59 1.69 3.05 3.288 3.453C21.402 19.371 17.113 22.91 12 22.91zm4.91-12a2.729 2.729 0 0 1 0-5.457 2.729 2.729 0 0 1 0 5.457zm0 0"/>
    <path d="M19.379 15.656h-1.152.011c-1.355-2.246-3.273-2.96-3.386-2.996-.997-.297-2.028-.004-2.86.824-.875-.828-1.906-1.12-2.937-.812-.082.027-1.942.738-3.285 2.984H4.62c-.437 0-.828.262-.992.664a1.07 1.07 0 0 0 .23 1.168l.66.66a4.5 4.5 0 0 0 3.204 1.329c1.32 0 2.578-.582 3.449-1.594.426-.496.672-.59.738-.594.035.004.09.004.121 0 .047.008.313.098.739.594a4.555 4.555 0 0 0 3.449 1.594h.058a4.5 4.5 0 0 0 3.203-1.329l.66-.66a1.07 1.07 0 0 0 .231-1.168 1.068 1.068 0 0 0-.992-.664zm-.672 1.719a3.4 3.4 0 0 1-2.43 1.008h-.058a3.461 3.461 0 0 1-2.621-1.211c-.563-.652-1.075-.973-1.563-.973h-.062c-.516-.031-1.043.29-1.63.973a3.461 3.461 0 0 1-2.62 1.21 3.4 3.4 0 0 1-2.43-1.007l-.672-.629h1.152c.372 0 .727-.203.922-.527 1.14-1.89 2.707-2.516 2.703-2.516.778-.23 1.434.184 1.844.574a1.06 1.06 0 0 0 1.457 0c.41-.39 1.067-.804 1.813-.582.015.004 1.636.606 2.793 2.524.199.328.55.531.922.531l1.14-.031zm0 0"/>
</svg>
