<svg xmlns="http://www.w3.org/2000/svg" width="32" height="32" viewBox="0 0 24 24">
    <path d="M16.363281 16.953125L7.414062 16.953125C7.1875 16.953125 7.007812 17.136719 7.007812 17.359375 7.007812 20.050781 9.195312 22.242188 11.886719 22.242188 14.578125 22.242188 16.769531 20.050781 16.769531 17.359375 16.769531 17.136719 16.585938 16.953125 16.363281 16.953125zM12.292969 17.765625L13.109375 17.765625 13.109375 18.578125 12.292969 18.578125zM11.480469 17.765625L11.480469 19.394531 10.667969 19.394531 10.667969 17.765625zM11.886719 21.425781C9.78125 21.425781 8.042969 19.820312 7.839844 17.765625L9.851562 17.765625 9.851562 19.800781C9.851562 20.023438 10.035156 20.207031 10.261719 20.207031L11.886719 20.207031C12.113281 20.207031 12.292969 20.023438 12.292969 19.800781L12.292969 19.394531 13.515625 19.394531C13.738281 19.394531 13.921875 19.210938 13.921875 18.988281L13.921875 17.765625 15.933594 17.765625C15.730469 19.820312 13.992188 21.425781 11.886719 21.425781zM11.074219 11.054688C11.074219 9.148438 9.796875 7.597656 8.226562 7.597656 6.65625 7.597656 5.378906 9.148438 5.378906 11.054688 5.378906 12.960938 6.65625 14.511719 8.226562 14.511719 9.796875 14.511719 11.074219 12.960938 11.074219 11.054688zM6.191406 11.054688C6.191406 9.597656 7.105469 8.410156 8.226562 8.410156 9.347656 8.410156 10.261719 9.597656 10.261719 11.054688 10.261719 12.511719 9.347656 13.699219 8.226562 13.699219 7.105469 13.699219 6.191406 12.511719 6.191406 11.054688zM6.191406 11.054688"/>
    <path d="M9.445312 11.054688C9.445312 10.042969 8.898438 9.222656 8.226562 9.222656 7.550781 9.222656 7.007812 10.042969 7.007812 11.054688 7.007812 12.066406 7.550781 12.886719 8.226562 12.886719 8.898438 12.886719 9.445312 12.066406 9.445312 11.054688zM15.546875 7.597656C13.980469 7.597656 12.699219 9.148438 12.699219 11.054688 12.699219 12.960938 13.980469 14.511719 15.546875 14.511719 17.117188 14.511719 18.394531 12.960938 18.394531 11.054688 18.394531 9.148438 17.117188 7.597656 15.546875 7.597656zM15.546875 13.699219C14.425781 13.699219 13.515625 12.511719 13.515625 11.054688 13.515625 9.597656 14.425781 8.410156 15.546875 8.410156 16.667969 8.410156 17.582031 9.597656 17.582031 11.054688 17.582031 12.511719 16.667969 13.699219 15.546875 13.699219zM15.546875 13.699219"/>
    <path d="M16.769531 11.054688C16.769531 10.042969 16.222656 9.222656 15.546875 9.222656 14.875 9.222656 14.328125 10.042969 14.328125 11.054688 14.328125 12.066406 14.875 12.886719 15.546875 12.886719 16.222656 12.886719 16.769531 12.066406 16.769531 11.054688zM5.539062 14.875C5.539062 15.101562 5.355469 15.28125 5.132812 15.28125 4.90625 15.28125 4.726562 15.101562 4.726562 14.875 4.726562 14.652344 4.90625 14.46875 5.132812 14.46875 5.355469 14.46875 5.539062 14.652344 5.539062 14.875zM7.328125 15.839844C7.328125 16.066406 7.148438 16.246094 6.921875 16.246094 6.699219 16.246094 6.515625 16.066406 6.515625 15.839844 6.515625 15.617188 6.699219 15.433594 6.921875 15.433594 7.148438 15.433594 7.328125 15.617188 7.328125 15.839844zM5.378906 16.546875C5.378906 16.769531 5.195312 16.953125 4.972656 16.953125 4.746094 16.953125 4.566406 16.769531 4.566406 16.546875 4.566406 16.320312 4.746094 16.140625 4.972656 16.140625 5.195312 16.140625 5.378906 16.320312 5.378906 16.546875zM18.640625 14.875C18.640625 15.101562 18.460938 15.28125 18.234375 15.28125 18.011719 15.28125 17.828125 15.101562 17.828125 14.875 17.828125 14.652344 18.011719 14.46875 18.234375 14.46875 18.460938 14.46875 18.640625 14.652344 18.640625 14.875zM16.851562 15.839844C16.851562 16.066406 16.667969 16.246094 16.445312 16.246094 16.21875 16.246094 16.039062 16.066406 16.039062 15.839844 16.039062 15.617188 16.21875 15.433594 16.445312 15.433594 16.667969 15.433594 16.851562 15.617188 16.851562 15.839844zM18.800781 16.546875C18.800781 16.769531 18.621094 16.953125 18.394531 16.953125 18.171875 16.953125 17.988281 16.769531 17.988281 16.546875 17.988281 16.320312 18.171875 16.140625 18.394531 16.140625 18.621094 16.140625 18.800781 16.320312 18.800781 16.546875zM18.800781 16.546875"/>
    <path d="M 12 0 C 6.054688 0 1.21875 4.835938 1.21875 10.78125 L 1.21875 15.246094 C 1.21875 15.25 1.21875 15.25 1.21875 15.25 C 1.21875 15.25 1.21875 15.253906 1.21875 15.253906 L 1.21875 20.746094 C 1.21875 21.867188 2.132812 22.78125 3.253906 22.78125 L 5.917969 22.78125 C 5.9375 22.789062 5.957031 22.796875 5.976562 22.804688 C 7.402344 23.476562 9.121094 23.878906 11.078125 23.976562 C 11.121094 23.976562 11.164062 23.980469 11.210938 23.980469 C 11.46875 23.992188 11.730469 24 12 24 C 12.269531 24 12.53125 23.992188 12.789062 23.980469 C 12.835938 23.980469 12.878906 23.976562 12.921875 23.976562 C 14.878906 23.878906 16.597656 23.476562 18.023438 22.804688 C 18.042969 22.796875 18.0625 22.789062 18.082031 22.777344 L 20.746094 22.777344 C 21.867188 22.777344 22.78125 21.867188 22.78125 20.746094 L 22.78125 10.78125 C 22.78125 4.835938 17.945312 0 12 0 Z M 17.894531 21.964844 L 17.8125 22.007812 C 16.660156 22.566406 15.289062 22.929688 13.777344 23.089844 C 13.667969 23.101562 13.558594 23.113281 13.445312 23.125 C 13.285156 23.136719 13.125 23.148438 12.960938 23.15625 C 12.648438 23.175781 12.328125 23.1875 12 23.1875 C 11.671875 23.1875 11.351562 23.175781 11.039062 23.15625 C 10.875 23.148438 10.714844 23.136719 10.554688 23.121094 C 10.445312 23.113281 10.332031 23.101562 10.222656 23.089844 C 8.714844 22.929688 7.339844 22.566406 6.191406 22.007812 L 6.105469 21.964844 L 6.070312 21.964844 C 3.476562 20.65625 2.035156 18.34375 2.035156 15.253906 C 2.035156 15.253906 2.035156 15.25 2.035156 15.25 C 2.035156 15.25 2.035156 15.25 2.035156 15.246094 C 2.039062 10.019531 6.425781 5.550781 11.796875 5.289062 L 12.183594 5.289062 C 17.578125 5.550781 21.964844 10.023438 21.964844 15.253906 C 21.964844 18.34375 20.523438 20.65625 17.929688 21.964844 Z M 3.253906 21.964844 C 2.582031 21.964844 2.035156 21.417969 2.035156 20.746094 L 2.035156 19.027344 C 2.597656 20.195312 3.441406 21.1875 4.535156 21.964844 Z M 21.964844 20.746094 C 21.964844 21.417969 21.417969 21.964844 20.746094 21.964844 L 19.464844 21.964844 C 20.558594 21.1875 21.402344 20.195312 21.964844 19.027344 Z M 12.203125 4.472656 L 11.777344 4.476562 C 7.390625 4.691406 3.625 7.492188 2.035156 11.28125 L 2.035156 10.78125 C 2.035156 5.285156 6.503906 0.8125 12 0.8125 C 17.496094 0.8125 21.964844 5.285156 21.964844 10.78125 L 21.964844 11.265625 C 20.371094 7.484375 16.601562 4.6875 12.203125 4.472656 Z M 12.203125 4.472656"/>
</svg>
