<svg xmlns="http://www.w3.org/2000/svg" width="32" height="32" viewBox="0 0 24 24">
    <path d="M23.918 10.426c-.16-.676-.547-1.262-1.031-1.559-.325-.199-.672-.265-1.004-.183a.916.916 0 0 0-.219.078c-.934-2.274-2.39-3.746-3.89-4.696l.542-1.086a.401.401 0 0 0-.175-.539.402.402 0 0 0-.54.18l-.519 1.043c-.246-.133-.492-.25-.734-.36l.39-1.179a.4.4 0 1 0-.758-.25l-.378 1.137a11.849 11.849 0 0 0-.805-.258l.344-1.027a.395.395 0 0 0-.254-.504.393.393 0 0 0-.504.25l-.363 1.09a12.012 12.012 0 0 0-1.262-.196v-.765a.398.398 0 1 0-.797 0v.734c-.211.012-.578.039-1.055.113l-.152-.914a.4.4 0 0 0-.79.129l.157.938c-.43.093-.902.226-1.402.406l-.38-1.133a.4.4 0 0 0-.758.25l.392 1.18c-.344.152-.696.328-1.047.527l-.61-1.21a.397.397 0 0 0-.535-.18.403.403 0 0 0-.18.538l.641 1.282c-.351.238-.699.511-1.039.816l-.96-.96a.4.4 0 0 0-.567.566l.957.953c-1.23 1.308-2.258 3.136-2.73 5.687-.008.031-.012.067-.016.098a1.21 1.21 0 0 0-.313-.047c-.883 0-1.574.953-1.574 2.172 0 1.215.691 2.168 1.574 2.168.164 0 .32-.043.473-.106a8.885 8.885 0 0 0 1.383 2.95c1.297 1.789 3.855 3.902 8.722 3.84A13.383 13.383 0 0 0 15.707 22l.215.214c.39.39.902.586 1.414.586.512 0 1.023-.196 1.414-.586l.285-.281c.52-.52.684-1.254.512-1.918.5-.438.95-.922 1.336-1.457 1.152-1.586 1.738-3.579 1.691-5.63.016 0 .028.005.043.005.09 0 .18-.008.27-.032.855-.203 1.312-1.293 1.031-2.476zm-22.047 4.37a.477.477 0 0 1-.297.118c-.367 0-.773-.562-.773-1.367 0-.809.406-1.371.773-1.371a.44.44 0 0 1 .203.054c-.02.215-.03.426-.039.641v.04c-.004.179-.004.355 0 .53.004.055.004.11.008.164.008.145.016.29.031.43l.012.168c.02.176.043.352.07.524l.012.07zm16.598 6.571l-.285.281a1.198 1.198 0 0 1-1.696 0l-1.804-1.804c.328-.18.625-.403.906-.649.008 0 .015.004.023.004.203.121.672.547 1.395 1.274l.047.047a.399.399 0 0 0 .566 0 .4.4 0 0 0 0-.567l-.047-.047c-.254-.254-.64-.64-.992-.953a5.551 5.551 0 0 0-.402-.336 5.09 5.09 0 0 0 .53-.703l1.759 1.758a1.23 1.23 0 0 1 .25.371l.02.047a1.2 1.2 0 0 1-.27 1.277zm1.765-3.277a7.94 7.94 0 0 1-1.05 1.183 2.069 2.069 0 0 0-.149-.168l-2.058-2.058a4.78 4.78 0 0 0 .222-1.445.401.401 0 1 0-.8 0 4.002 4.002 0 0 1-4 3.996c-2.204 0-4-1.793-4-3.996a.398.398 0 0 0-.797 0 4.803 4.803 0 0 0 4.796 4.796c.516 0 1.008-.082 1.473-.234l1.176 1.176c-.89.187-1.86.273-2.895.262-3.629.066-6.347-1.133-8.074-3.512-.824-1.137-1.332-2.504-1.492-3.945-.004-.032-.004-.063-.004-.094a8.21 8.21 0 0 1-.043-.692v-.3c.004-.164.008-.329.02-.489a9.769 9.769 0 0 1 .129-1.102c.437-2.37 1.375-4.066 2.496-5.28l.492.496a.399.399 0 0 0 .566 0 .4.4 0 0 0 0-.567l-.492-.492a9.26 9.26 0 0 1 .836-.672l.215.426a.4.4 0 1 0 .715-.36l-.25-.5c.316-.187.636-.351.949-.488l.164.496a.401.401 0 0 0 .508.254.402.402 0 0 0 .25-.508l-.18-.539c.461-.164.895-.28 1.29-.367l.116.7a.401.401 0 0 0 .395.331c.023 0 .043 0 .066-.003a.396.396 0 0 0 .328-.461l-.117-.711c.41-.059.73-.078.926-.086V4c0 .223.18.398.398.398A.395.395 0 0 0 12.758 4v-.84c.27.024.613.07 1.012.145l-.188.57a.4.4 0 0 0 .25.504.375.375 0 0 0 .129.023.41.41 0 0 0 .379-.273l.215-.645c.254.07.527.153.804.254l-.18.535a.4.4 0 0 0 .38.528.397.397 0 0 0 .379-.274l.164-.492c.21.094.425.2.636.313l-.336.675a.397.397 0 0 0 .356.579.4.4 0 0 0 .36-.223l.312-.621c1.406.914 2.77 2.344 3.61 4.582l-.005.004.074.203a12.097 12.097 0 0 1 .305.996c.082.305.152.61.211.926.047.265.082.535.11.8l.011.137c.172 2.067-.36 4.098-1.512 5.684zm2.465-5.965a.443.443 0 0 1-.176 0c0-.016-.003-.031-.003-.047-.028-.25-.063-.504-.11-.754a14.382 14.382 0 0 0-.195-.894c-.008-.032-.02-.067-.027-.098-.075-.273-.153-.539-.235-.793-.004-.008-.004-.016-.008-.023a.322.322 0 0 1 .125-.055c.153-.035.301.027.399.086.3.187.558.594.672 1.066.183.785-.086 1.426-.442 1.512zm0 0"/>
    <path d="M14.598 6.8c-.766 0-1.504.204-2.133.587-.41.25-.918.25-1.328 0A4.123 4.123 0 0 0 9 6.8c-2.094 0-3.8 1.523-3.8 3.398 0 1.875 1.706 3.403 3.8 3.403.766 0 1.504-.207 2.137-.59.41-.25.918-.25 1.328 0 .629.383 1.367.59 2.133.59 2.097 0 3.8-1.528 3.8-3.403s-1.703-3.398-3.8-3.398zm0 6c-.618 0-1.211-.163-1.72-.472a2.069 2.069 0 0 0-2.16 0A3.294 3.294 0 0 1 9 12.801c-1.656 0-3-1.168-3-2.602 0-1.433 1.344-2.597 3-2.597.617 0 1.215.16 1.719.468a2.067 2.067 0 0 0 2.16 0 3.291 3.291 0 0 1 1.719-.468c1.656 0 3 1.164 3 2.597 0 1.434-1.344 2.602-3 2.602zm0 0"/>
    <path d="M10.398 10.8a.8.8 0 1 1-1.597 0 .799.799 0 1 1 1.597 0zm0 0M15.598 10.398a1.2 1.2 0 0 1-1.2 1.204 1.202 1.202 0 0 1 0-2.402c.665 0 1.2.538 1.2 1.198zm0 0"/>
</svg>
