<svg xmlns="http://www.w3.org/2000/svg" width="32" height="32" viewBox="0 0 24 24">
    <path d="M18 14.727H6c-.3 0-.547.246-.547.546 0 3.61 2.938 6.543 6.547 6.543 3.61 0 6.547-2.933 6.547-6.543 0-.3-.246-.546-.547-.546zm-5.453 1.09h1.09v1.093h-1.09zm-1.094 0V18h-1.09v-2.184zm.547 4.91a5.46 5.46 0 0 1-5.426-4.91h2.7v2.73c0 .3.242.543.542.543H12c.3 0 .547-.242.547-.543V18h1.637c.3 0 .543-.246.543-.547v-1.637h2.699A5.46 5.46 0 0 1 12 20.726zm0 0"/>
    <path d="M12 0C5.383 0 0 5.383 0 12s5.383 12 12 12 12-5.383 12-12S18.617 0 12 0zm0 22.91C5.984 22.91 1.09 18.016 1.09 12S5.984 1.09 12 1.09 22.91 5.984 22.91 12 18.016 22.91 12 22.91zm0 0"/>
    <path d="M10.91 8.727A3.823 3.823 0 0 0 7.09 4.91a3.82 3.82 0 0 0-3.817 3.817c0 2.105 1.711 3.82 3.817 3.82a3.826 3.826 0 0 0 3.82-3.82zm-6.527.187a1.905 1.905 0 1 0 2.11-2.844c.19-.043.39-.07.597-.07a2.729 2.729 0 0 1 2.726 2.727 2.729 2.729 0 0 1-2.726 2.726 2.722 2.722 0 0 1-2.707-2.539zm0 0M16.91 4.91a3.823 3.823 0 0 0-3.82 3.817 3.826 3.826 0 0 0 3.82 3.82 3.823 3.823 0 0 0 3.817-3.82A3.82 3.82 0 0 0 16.91 4.91zm0 6.543a2.729 2.729 0 0 1-2.726-2.726A2.729 2.729 0 0 1 16.91 6c.207 0 .406.027.598.07a1.911 1.911 0 0 0-1.418 1.84 1.907 1.907 0 0 0 3.527 1.004 2.722 2.722 0 0 1-2.707 2.54zm0 0"/>
</svg>
