<svg xmlns="http://www.w3.org/2000/svg" width="32" height="32" viewBox="0 0 24 24">
    <path d="M9.816 7.91A1.904 1.904 0 0 1 7.91 9.816 1.907 1.907 0 1 1 7.91 6c1.055 0 1.906.855 1.906 1.91zm0 0M18.547 7.91a1.907 1.907 0 0 1-1.91 1.906 1.907 1.907 0 1 1 0-3.816 1.91 1.91 0 0 1 1.91 1.91zm0 0"/>
    <path d="M12 0C5.383 0 0 5.383 0 12s5.383 12 12 12 12-5.383 12-12S18.617 0 12 0zm0 22.91C5.984 22.91 1.09 18.016 1.09 12S5.984 1.09 12 1.09 22.91 5.984 22.91 12 18.016 22.91 12 22.91zm0 0"/>
    <path d="M18 13.09H6c-.3 0-.547.246-.547.547A6.555 6.555 0 0 0 12 20.184a6.555 6.555 0 0 0 6.547-6.547c0-.301-.246-.547-.547-.547zm-6 6a5.459 5.459 0 0 1-5.426-4.906h10.852A5.459 5.459 0 0 1 12 19.09zm0 0"/>
</svg>
