<svg xmlns="http://www.w3.org/2000/svg" width="32" height="32" viewBox="0 0 24 24">
    <path d="M12 0C6.055 0 1.219 4.836 1.219 10.781v9.965c0 1.121.914 2.035 2.035 2.035h2.664l.059.024c1.425.672 3.144 1.074 5.101 1.172.043 0 .086.003.133.003.258.012.52.02.789.02.27 0 .531-.008.793-.02l.129-.003c1.957-.098 3.676-.5 5.101-1.172l.059-.024h2.664a2.039 2.039 0 0 0 2.035-2.035v-9.965C22.781 4.836 17.945 0 12 0zM2.035 10.781C2.035 5.285 6.504.812 12 .812c5.496 0 9.965 4.473 9.965 9.97v1.382c-.293.027-.559.04-.813.04-4.234 0-7.96-2.985-9.277-7.427l-.09-.304-.32.015a10.76 10.76 0 0 0-9.43 6.649zm15.86 11.184l-.082.043c-1.153.558-2.524.922-4.036 1.082l-.332.035c-.16.012-.32.023-.484.031a15.386 15.386 0 0 1-2.406-.035 9.536 9.536 0 0 1-.332-.031c-1.508-.16-2.883-.524-4.032-1.082l-.086-.043H6.07c-2.593-1.309-4.035-3.621-4.035-6.711a9.953 9.953 0 0 1 9.156-9.934c1.5 4.617 5.465 7.696 9.961 7.696.18 0 .364-.004.555-.016a9.95 9.95 0 0 1 .258 2.254c0 3.09-1.442 5.402-4.035 6.71zm-14.641 0a1.22 1.22 0 0 1-1.219-1.219v-1.719a7.663 7.663 0 0 0 2.5 2.938zm18.71-1.219a1.22 1.22 0 0 1-1.218 1.219h-1.281a7.663 7.663 0 0 0 2.5-2.938zm0 0"/>
    <path d="M8.543 14.645c1.57 0 2.848-1.551 2.848-3.457 0-1.907-1.278-3.458-2.848-3.458-1.57 0-2.848 1.551-2.848 3.457 0 1.907 1.278 3.458 2.848 3.458zm0-6.102c1.121 0 2.035 1.187 2.035 2.645 0 1.457-.914 2.644-2.035 2.644s-2.035-1.187-2.035-2.645c0-1.457.914-2.644 2.035-2.644zm0 0"/>
    <path d="M9.762 11.188c0-1.012-.547-1.833-1.219-1.833-.676 0-1.223.82-1.223 1.832s.547 1.829 1.223 1.829c.672 0 1.219-.817 1.219-1.829zm0 0M17.082 16.27H6.508a.42.42 0 0 0-.406.421c0 1.723.976 3.313 2.484 4.051a7.374 7.374 0 0 0 3.203.727c1.125 0 2.234-.25 3.211-.727 1.516-.738 2.492-2.332 2.488-4.066a.411.411 0 0 0-.406-.406zm-2.441 3.742c-1.73.84-3.973.84-5.7 0a3.83 3.83 0 0 1-.37-.215c.19-.527 1.484-.899 3.226-.899 1.734 0 3.031.368 3.226.895-.12.078-.25.152-.382.219zm1.015-.754c-.492-.746-1.86-1.172-3.86-1.172-2.003 0-3.37.43-3.862 1.176a3.744 3.744 0 0 1-.997-2.176h9.715a3.733 3.733 0 0 1-.996 2.172zm0 0"/>
</svg>
