<svg xmlns="http://www.w3.org/2000/svg" width="32" height="32" viewBox="0 0 24 24">
    <path d="M7.804688 14.453125L9.664062 12.855469C10.089844 12.480469 10.382812 12.007812 10.511719 11.484375 10.597656 11.136719 10.578125 10.90625 10.566406 10.820312 10.46875 9.835938 9.707031 9.097656 8.792969 9.097656 8.316406 9.097656 7.871094 9.289062 7.546875 9.613281 7.226562 9.285156 6.792969 9.097656 6.320312 9.097656 5.402344 9.097656 4.644531 9.835938 4.546875 10.820312 4.535156 10.902344 4.515625 11.136719 4.601562 11.484375 4.730469 12.007812 5.023438 12.480469 5.449219 12.855469L7.273438 14.453125C7.347656 14.519531 7.445312 14.554688 7.539062 14.554688 7.636719 14.554688 7.730469 14.519531 7.804688 14.453125zM5.984375 12.242188C5.683594 11.980469 5.480469 11.652344 5.390625 11.289062 5.339844 11.074219 5.351562 10.949219 5.351562 10.949219 5.355469 10.9375 5.355469 10.921875 5.359375 10.910156 5.402344 10.414062 5.75 9.910156 6.320312 9.910156 6.695312 9.910156 7.011719 10.125 7.167969 10.488281 7.234375 10.636719 7.378906 10.730469 7.542969 10.730469 7.703125 10.730469 7.847656 10.636719 7.914062 10.488281 8.066406 10.136719 8.414062 9.910156 8.792969 9.910156 9.367188 9.910156 9.710938 10.414062 9.761719 10.9375 9.761719 10.941406 9.777344 11.066406 9.722656 11.289062 9.632812 11.652344 9.429688 11.980469 9.128906 12.238281L7.542969 13.605469zM17.273438 9.097656C16.796875 9.097656 16.351562 9.289062 16.023438 9.613281 15.707031 9.285156 15.273438 9.097656 14.800781 9.097656 13.882812 9.097656 13.125 9.835938 13.027344 10.820312 13.015625 10.90625 12.996094 11.136719 13.082031 11.484375 13.207031 12.007812 13.503906 12.480469 13.929688 12.855469L15.753906 14.453125C15.828125 14.519531 15.925781 14.554688 16.019531 14.554688 16.113281 14.554688 16.210938 14.519531 16.285156 14.453125L18.140625 12.855469C18.570312 12.480469 18.863281 12.007812 18.992188 11.484375 19.074219 11.136719 19.054688 10.902344 19.042969 10.820312 18.949219 9.835938 18.1875 9.097656 17.273438 9.097656zM18.199219 11.292969C18.113281 11.652344 17.90625 11.980469 17.609375 12.242188L16.023438 13.609375 14.464844 12.242188C14.164062 11.980469 13.960938 11.652344 13.871094 11.289062 13.820312 11.074219 13.832031 10.949219 13.832031 10.949219 13.832031 10.9375 13.835938 10.921875 13.835938 10.910156 13.882812 10.414062 14.226562 9.910156 14.800781 9.910156 15.171875 9.910156 15.488281 10.125 15.648438 10.488281 15.710938 10.636719 15.859375 10.730469 16.019531 10.730469 16.183594 10.730469 16.328125 10.636719 16.394531 10.488281 16.546875 10.136719 16.890625 9.910156 17.273438 9.910156 17.84375 9.910156 18.191406 10.414062 18.238281 10.9375 18.238281 10.941406 18.257812 11.066406 18.199219 11.292969zM16.679688 16.269531L7.730469 16.269531C7.503906 16.269531 7.320312 16.453125 7.320312 16.679688 7.320312 19.371094 9.511719 21.558594 12.203125 21.558594 14.894531 21.558594 17.085938 19.371094 17.085938 16.679688 17.085938 16.453125 16.902344 16.269531 16.679688 16.269531zM12.203125 20.746094C10.097656 20.746094 8.359375 19.136719 8.15625 17.085938L16.25 17.085938C16.046875 19.136719 14.308594 20.746094 12.203125 20.746094zM12.203125 20.746094"/>
    <path d="M 12 0 C 6.054688 0 1.21875 4.835938 1.21875 10.78125 L 1.21875 15.246094 C 1.21875 15.25 1.21875 15.25 1.21875 15.25 C 1.21875 15.25 1.21875 15.253906 1.21875 15.253906 L 1.21875 20.746094 C 1.21875 21.867188 2.132812 22.78125 3.253906 22.78125 L 5.917969 22.78125 C 5.9375 22.789062 5.957031 22.796875 5.976562 22.804688 C 7.402344 23.476562 9.121094 23.878906 11.078125 23.976562 C 11.121094 23.976562 11.164062 23.980469 11.210938 23.980469 C 11.46875 23.992188 11.730469 24 12 24 C 12.269531 24 12.53125 23.992188 12.792969 23.980469 C 12.835938 23.980469 12.878906 23.976562 12.921875 23.976562 C 14.878906 23.878906 16.597656 23.476562 18.023438 22.804688 C 18.042969 22.796875 18.0625 22.789062 18.082031 22.78125 L 20.746094 22.78125 C 21.867188 22.78125 22.78125 21.867188 22.78125 20.746094 L 22.78125 10.78125 C 22.78125 4.835938 17.945312 0 12 0 Z M 17.894531 21.964844 L 17.8125 22.007812 C 16.660156 22.566406 15.289062 22.929688 13.777344 23.089844 C 13.667969 23.101562 13.558594 23.113281 13.445312 23.125 C 13.285156 23.136719 13.125 23.148438 12.960938 23.15625 C 12.648438 23.175781 12.328125 23.1875 12 23.1875 C 11.671875 23.1875 11.351562 23.175781 11.039062 23.15625 C 10.875 23.148438 10.714844 23.136719 10.554688 23.121094 C 10.445312 23.113281 10.332031 23.101562 10.222656 23.089844 C 8.714844 22.929688 7.339844 22.566406 6.191406 22.007812 L 6.105469 21.964844 L 6.070312 21.964844 C 3.476562 20.65625 2.035156 18.34375 2.035156 15.253906 C 2.035156 15.253906 2.035156 15.25 2.035156 15.25 C 2.035156 15.25 2.035156 15.25 2.035156 15.246094 C 2.039062 10.019531 6.425781 5.550781 11.796875 5.289062 L 12.183594 5.289062 C 17.578125 5.550781 21.964844 10.023438 21.964844 15.253906 C 21.964844 18.34375 20.523438 20.65625 17.929688 21.964844 Z M 3.253906 21.964844 C 2.582031 21.964844 2.035156 21.417969 2.035156 20.746094 L 2.035156 19.027344 C 2.597656 20.195312 3.441406 21.1875 4.535156 21.964844 Z M 21.964844 20.746094 C 21.964844 21.417969 21.417969 21.964844 20.746094 21.964844 L 19.464844 21.964844 C 20.558594 21.1875 21.402344 20.195312 21.964844 19.027344 Z M 12.203125 4.472656 L 11.777344 4.476562 C 7.390625 4.691406 3.625 7.492188 2.035156 11.28125 L 2.035156 10.78125 C 2.035156 5.285156 6.503906 0.8125 12 0.8125 C 17.496094 0.8125 21.964844 5.285156 21.964844 10.78125 L 21.964844 11.265625 C 20.371094 7.484375 16.601562 4.6875 12.203125 4.472656 Z M 12.203125 4.472656"/>
</svg>
