<svg xmlns="http://www.w3.org/2000/svg" width="32" height="32" viewBox="0 0 24 24">
    <path d="M 12 0 C 5.382812 0 0 5.382812 0 12 C 0 18.617188 5.382812 24 12 24 C 18.617188 24 24 18.617188 24 12 C 24 5.382812 18.617188 0 12 0 Z M 12 22.910156 C 5.984375 22.910156 1.089844 18.015625 1.089844 12 C 1.089844 5.984375 5.984375 1.089844 12 1.089844 C 18.015625 1.089844 22.910156 5.984375 22.910156 12 C 22.910156 18.015625 18.015625 22.910156 12 22.910156 Z M 12 22.910156"/>
    <path d="M18 13.089844C17.699219 13.089844 17.453125 13.335938 17.453125 13.636719 17.453125 16.644531 15.007812 19.089844 12 19.089844 8.992188 19.089844 6.546875 16.644531 6.546875 13.636719 6.546875 13.335938 6.300781 13.089844 6 13.089844 5.699219 13.089844 5.453125 13.335938 5.453125 13.636719 5.453125 17.246094 8.390625 20.183594 12 20.183594 15.609375 20.183594 18.546875 17.246094 18.546875 13.636719 18.546875 13.335938 18.300781 13.089844 18 13.089844zM7.386719 11.257812C7.515625 11.257812 7.640625 11.210938 7.746094 11.125L9.847656 9.3125C10.34375 8.878906 10.683594 8.324219 10.832031 7.714844 10.933594 7.3125 10.914062 7.042969 10.894531 6.933594 10.78125 5.777344 9.886719 4.910156 8.808594 4.910156 8.273438 4.910156 7.773438 5.113281 7.394531 5.457031 7.023438 5.109375 6.535156 4.910156 6.003906 4.910156 4.925781 4.910156 4.03125 5.777344 3.917969 6.929688 3.898438 7.042969 3.878906 7.3125 3.976562 7.714844 4.125 8.324219 4.46875 8.878906 4.964844 9.3125L7.027344 11.121094C7.132812 11.210938 7.261719 11.257812 7.386719 11.257812zM5.039062 7.457031C4.984375 7.234375 4.992188 7.105469 4.992188 7.105469 4.992188 7.105469 4.992188 7.105469 4.992188 7.109375 4.996094 7.089844 5 7.070312 5 7.050781 5.046875 6.53125 5.410156 6 6.003906 6 6.394531 6 6.722656 6.226562 6.886719 6.601562 6.976562 6.800781 7.171875 6.929688 7.390625 6.929688 7.605469 6.929688 7.800781 6.800781 7.890625 6.601562 8.046875 6.234375 8.40625 6 8.808594 6 9.402344 6 9.761719 6.527344 9.816406 7.089844 9.816406 7.09375 9.832031 7.222656 9.773438 7.457031 9.679688 7.847656 9.457031 8.203125 9.132812 8.488281L7.390625 9.988281 5.683594 8.492188C5.355469 8.203125 5.132812 7.847656 5.039062 7.457031zM20.082031 6.929688C19.96875 5.777344 19.074219 4.910156 17.996094 4.910156 17.460938 4.910156 16.960938 5.113281 16.582031 5.457031 16.210938 5.109375 15.722656 4.910156 15.191406 4.910156 14.113281 4.910156 13.21875 5.777344 13.105469 6.929688 13.085938 7.042969 13.066406 7.3125 13.167969 7.714844 13.316406 8.324219 13.65625 8.878906 14.152344 9.3125L16.21875 11.121094C16.320312 11.210938 16.449219 11.253906 16.578125 11.253906 16.703125 11.253906 16.828125 11.210938 16.933594 11.125L19.035156 9.3125C19.53125 8.878906 19.875 8.324219 20.023438 7.714844 20.121094 7.3125 20.101562 7.042969 20.082031 6.929688zM18.960938 7.457031C18.867188 7.847656 18.644531 8.203125 18.320312 8.488281L16.578125 9.988281 14.871094 8.492188C14.542969 8.207031 14.320312 7.847656 14.226562 7.457031 14.171875 7.234375 14.183594 7.105469 14.179688 7.105469 14.179688 7.105469 14.179688 7.105469 14.179688 7.109375 14.183594 7.089844 14.1875 7.070312 14.191406 7.050781 14.238281 6.527344 14.597656 6 15.191406 6 15.582031 6 15.910156 6.226562 16.078125 6.601562 16.164062 6.800781 16.359375 6.929688 16.578125 6.929688 16.792969 6.929688 16.988281 6.800781 17.078125 6.601562 17.234375 6.234375 17.597656 6 17.996094 6 18.589844 6 18.953125 6.53125 19.003906 7.089844 19.003906 7.09375 19.019531 7.222656 18.960938 7.457031zM18.960938 7.457031"/>
</svg>
