<svg xmlns="http://www.w3.org/2000/svg" width="32" height="32" viewBox="0 0 24 24">
    <path d="M17.188 14.434H6.483a.484.484 0 0 0-.484.484 5.845 5.845 0 0 0 5.836 5.84 5.848 5.848 0 0 0 5.84-5.84.485.485 0 0 0-.488-.484zm-10.028.972h2.73v1.281c-1.343-.253-2.335-.753-2.73-1.28zm3.703 0h1.946v1.414a11.147 11.147 0 0 1-1.946 0zm2.918 0h2.735c-.395.528-1.391 1.028-2.735 1.281zm-1.945 4.38c-2 0-3.723-1.22-4.469-2.95 1.055.621 2.637 1 4.469 1 1.836 0 3.418-.379 4.473-1a4.877 4.877 0 0 1-4.473 2.95zm0 0"/>
    <path d="M23.57 12.316c-.195-.32-.593-.793-1.093-1.277-.489-5.476-5.122-9.742-10.641-9.742-5.7 0-10.34 4.418-10.664 10.09a5.78 5.78 0 0 0-.742.93 2.895 2.895 0 0 0-.348 2.206 2.9 2.9 0 0 0 2.14 2.149c1.79 3.668 5.532 6.031 9.614 6.031 4.059 0 7.781-2.336 9.582-5.969.418-.047.82-.18 1.187-.406a2.922 2.922 0 0 0 .965-4.012zM1.027 14.293a1.937 1.937 0 0 1 .23-1.469c.141-.226.403-.547.735-.886.145-.149.293-.286.442-.422a8.388 8.388 0 0 1 1.45-1.074l.003-.005c.136-.078.27-.14.394-.199.032-.011.059-.023.09-.035a2.055 2.055 0 0 1 .387-.121c.054-.012.105-.02.156-.023.02 0 .043-.004.063-.004.011 0 .023.004.035.004a.53.53 0 0 1 .191.046.55.55 0 0 1 .207.282c.348.91-.207 3.445-.832 4.468a1.724 1.724 0 0 1-.289.356 1.55 1.55 0 0 1-.191.168c-.024.02-.051.043-.075.059a1.727 1.727 0 0 1-.617.28.68.68 0 0 1-.086.02 1.46 1.46 0 0 1-.257.035c-.032.004-.063.008-.094.008-.106.004-.207 0-.313-.015-.011 0-.02 0-.031-.004h-.004a1.93 1.93 0 0 1-1.594-1.469zm10.809 7.437c-3.531 0-6.785-1.94-8.492-5.003.086-.012.168-.032.254-.051l.047-.012a2.52 2.52 0 0 0 .332-.105c.023-.012.046-.024.074-.032.078-.035.16-.07.238-.113.035-.02.07-.039.106-.062a2.46 2.46 0 0 0 .46-.336l.106-.094c.055-.055.105-.113.156-.172.028-.031.055-.059.082-.094.074-.09.145-.187.207-.293.52-.851 1.36-3.449.98-5.031a.46.46 0 0 0 .098-.277c0-.805.657-1.461 1.461-1.461a1.46 1.46 0 0 1 1.457 1.46c0 .27.22.485.489.485.27 0 .484-.215.484-.484 0-1.34-1.09-2.434-2.43-2.434A2.426 2.426 0 0 0 5.66 9.25a.974.974 0 0 0-.129-.063c-.027-.011-.054-.019-.078-.027l-.105-.035c-.04-.008-.075-.012-.11-.02l-.078-.011c-.047-.004-.09-.008-.133-.008-.02-.004-.035-.004-.054-.004-.051 0-.106.004-.157.008-.007 0-.015 0-.02.004-.316.027-.64.133-.968.281a2.727 2.727 0 0 0-.172.082c-.027.016-.054.027-.082.043l-.101.055-.188.105a8.456 8.456 0 0 0-.586.387c-.148.105-.3.223-.449.344a9.69 9.69 0 0 1 9.586-8.121c4.664 0 8.64 3.351 9.531 7.824a7.077 7.077 0 0 0-1.082-.664c-.031-.016-.062-.028-.09-.043a3.455 3.455 0 0 0-.547-.207c-.105-.032-.21-.051-.312-.07a1.735 1.735 0 0 0-.375-.023l-.043-.001a1.641 1.641 0 0 0-.309.05c-.007.005-.02.009-.027.012a.446.446 0 0 0-.102.036 2.44 2.44 0 0 0-2.265-1.563 2.439 2.439 0 0 0-2.434 2.434c0 .27.219.484.489.484s.484-.215.484-.484c0-.805.656-1.461 1.46-1.461.806 0 1.462.656 1.462 1.46 0 .008.004.02.004.028-.543 1.543.363 4.383.914 5.281a2.887 2.887 0 0 0 1.773 1.301c-1.699 3.098-4.976 5.066-8.531 5.066zm10.262-6.23c-.297.18-.63.27-.97.277-.007 0-.015-.004-.019-.004-.082.004-.16-.003-.238-.011-.016 0-.031-.004-.047-.004a1.892 1.892 0 0 1-.363-.086 1.599 1.599 0 0 1-.277-.117c-.051-.024-.094-.051-.141-.078-.063-.04-.117-.082-.176-.125a1.555 1.555 0 0 1-.168-.153 2.199 2.199 0 0 1-.277-.344c-.672-1.097-1.262-3.925-.746-4.636a.416.416 0 0 1 .12-.114c.231-.14.77 0 1.462.418.027.016.05.032.074.043.094.063.195.13.297.2.062.043.125.09.187.136.106.078.211.157.317.243l.086.07c.152.125.304.262.465.406.003.004.007.004.011.008.446.414.828.844 1.047 1.195a1.95 1.95 0 0 1-.644 2.676zm0 0"/>
</svg>
