<svg xmlns="http://www.w3.org/2000/svg" width="32" height="32" viewBox="0 0 24 24">
    <path d="M15.05 17.492a.403.403 0 0 0-.405.406 2.442 2.442 0 0 1-4.883 0 .406.406 0 1 0-.813 0 3.26 3.26 0 0 0 3.254 3.254 3.26 3.26 0 0 0 3.254-3.254.403.403 0 0 0-.406-.406zm0 0M10.168 15.05a.812.812 0 1 1-1.624.002.812.812 0 0 1 1.624-.001zm0 0M15.863 15.05a.812.812 0 1 1-1.623.002.812.812 0 0 1 1.623-.001zm0 0"/>
    <path d="M22.363 9.441C22.2 4.266 18.078.812 12 .812c-6.078 0-10.2 3.454-10.363 8.63A2.24 2.24 0 0 0 0 11.593v5.695a2.24 2.24 0 0 0 2.238 2.238c.797 0 1.5-.425 1.895-1.058A8.878 8.878 0 0 0 12 23.187c3.34 0 6.32-1.824 7.867-4.718a2.237 2.237 0 0 0 1.895 1.058A2.24 2.24 0 0 0 24 17.29v-5.695a2.24 2.24 0 0 0-1.637-2.153zM12 1.63c4.645 0 9.328 2.398 9.547 7.738a2.231 2.231 0 0 0-1.559.867 8.59 8.59 0 0 0-3.675-3.863c-1.27-.781-2.758-1.215-4.375-1.215-1.68 0-3.215.489-4.508 1.352a8.587 8.587 0 0 0-3.418 3.726 2.231 2.231 0 0 0-1.559-.867C2.672 4.027 7.355 1.63 12 1.63zM7.484 7.438A8.148 8.148 0 0 1 12 6.101c1.383 0 2.688.335 3.828.933 1.813 1.094 3.14 2.961 3.64 5.32-1.55.516-2.433-.55-3.265-1.793a.9.9 0 0 0-.601-.382.924.924 0 0 0-.707.191c-3.778 3.016-8.942 2.223-10.352 1.93.45-2.086 1.496-3.758 2.941-4.864zM2.238 18.71a1.425 1.425 0 0 1-1.425-1.422v-5.695c0-.785.64-1.426 1.425-1.426.688 0 1.262.492 1.395 1.137v.004c.02.09.027.187.027.285v5.68a.35.35 0 0 1-.008.07c0 .004.004.004.004.004a1.425 1.425 0 0 1-1.418 1.363zm17.29-1.414A8.085 8.085 0 0 1 12 22.37a8.085 8.085 0 0 1-7.527-5.074V13.12c.644.133 1.828.328 3.273.328 2.281 0 5.203-.484 7.656-2.445.032-.024.063-.024.075-.02a.066.066 0 0 1 .05.032c.664.988 1.856 2.757 4 2.168v4.113zm3.66-.008c0 .785-.641 1.422-1.426 1.422a1.425 1.425 0 0 1-1.418-1.363s.004 0 .004-.004c-.004-.024-.004-.051-.008-.055v-5.695c0-.098.008-.196.027-.285v-.004a1.429 1.429 0 0 1 1.395-1.137c.785 0 1.425.64 1.425 1.426zm0 0"/>
</svg>
