<svg xmlns="http://www.w3.org/2000/svg" width="32" height="32" viewBox="0 0 24 24">
    <path d="M 15.621094 16.753906 L 8.378906 16.753906 C 8.125 16.753906 7.925781 16.957031 7.925781 17.207031 C 7.925781 17.457031 8.125 17.660156 8.378906 17.660156 L 9.734375 17.660156 L 9.734375 19.925781 C 9.734375 20.175781 9.9375 20.378906 10.1875 20.378906 L 12 20.378906 C 12.25 20.378906 12.453125 20.175781 12.453125 19.925781 L 12.453125 19.472656 L 13.8125 19.472656 C 14.0625 19.472656 14.265625 19.269531 14.265625 19.019531 L 14.265625 17.660156 L 15.621094 17.660156 C 15.875 17.660156 16.074219 17.457031 16.074219 17.207031 C 16.074219 16.957031 15.875 16.753906 15.621094 16.753906 Z M 11.546875 19.472656 L 10.640625 19.472656 L 10.640625 17.660156 L 11.546875 17.660156 Z M 13.359375 18.566406 L 12.453125 18.566406 L 12.453125 17.660156 L 13.359375 17.660156 Z M 13.359375 18.566406"/>
    <path d="M 19.699219 2.71875 L 15.621094 2.71875 L 15.621094 1.042969 C 15.621094 0.46875 15.15625 0 14.578125 0 L 9.421875 0 C 8.84375 0 8.378906 0.46875 8.378906 1.042969 L 8.378906 2.71875 L 4.300781 2.71875 C 3.054688 2.71875 2.039062 3.734375 2.039062 4.980469 L 2.039062 19.925781 C 2.039062 21.171875 3.054688 22.1875 4.300781 22.1875 L 5.660156 22.1875 L 5.660156 22.957031 C 5.660156 23.53125 6.128906 24 6.703125 24 L 17.296875 24 C 17.871094 24 18.339844 23.53125 18.339844 22.957031 L 18.339844 22.1875 L 19.699219 22.1875 C 20.945312 22.1875 21.960938 21.171875 21.960938 19.925781 L 21.960938 4.980469 C 21.960938 3.734375 20.945312 2.71875 19.699219 2.71875 Z M 9.28125 1.042969 C 9.28125 0.96875 9.34375 0.90625 9.421875 0.90625 L 14.578125 0.90625 C 14.65625 0.90625 14.71875 0.96875 14.71875 1.042969 L 14.71875 2.71875 L 9.28125 2.71875 Z M 4.300781 3.621094 L 19.699219 3.621094 C 20.445312 3.621094 21.054688 4.230469 21.054688 4.980469 L 21.054688 7.492188 L 18.683594 9.523438 C 18.113281 8.695312 17.15625 8.152344 16.074219 8.152344 C 14.707031 8.152344 13.542969 9.023438 13.097656 10.242188 C 12.796875 10.066406 12.417969 9.960938 12 9.960938 C 11.582031 9.960938 11.203125 10.066406 10.902344 10.242188 C 10.457031 9.023438 9.292969 8.152344 7.925781 8.152344 C 6.84375 8.152344 5.886719 8.695312 5.316406 9.523438 L 2.945312 7.492188 L 2.945312 4.980469 C 2.945312 4.230469 3.554688 3.621094 4.300781 3.621094 Z M 18.339844 11.320312 C 18.339844 12.570312 17.324219 13.585938 16.074219 13.585938 C 14.828125 13.585938 13.8125 12.570312 13.8125 11.320312 C 13.8125 10.074219 14.828125 9.054688 16.074219 9.054688 C 17.324219 9.054688 18.339844 10.074219 18.339844 11.320312 Z M 7.925781 9.054688 C 9.171875 9.054688 10.1875 10.074219 10.1875 11.320312 C 10.1875 12.570312 9.171875 13.585938 7.925781 13.585938 C 6.675781 13.585938 5.660156 12.570312 5.660156 11.320312 C 5.660156 10.074219 6.675781 9.054688 7.925781 9.054688 Z M 17.433594 22.957031 C 17.433594 23.03125 17.371094 23.09375 17.296875 23.09375 L 6.703125 23.09375 C 6.628906 23.09375 6.566406 23.03125 6.566406 22.957031 L 6.566406 22.1875 L 17.433594 22.1875 Z M 19.699219 21.28125 L 4.300781 21.28125 C 3.554688 21.28125 2.945312 20.671875 2.945312 19.925781 L 2.945312 8.683594 L 4.902344 10.363281 C 4.808594 10.664062 4.753906 10.988281 4.753906 11.320312 C 4.753906 13.066406 6.175781 14.492188 7.925781 14.492188 C 9.671875 14.492188 11.09375 13.066406 11.09375 11.320312 C 11.09375 11.136719 11.445312 10.867188 12 10.867188 C 12.554688 10.867188 12.90625 11.136719 12.90625 11.320312 C 12.90625 13.066406 14.328125 14.492188 16.074219 14.492188 C 17.824219 14.492188 19.246094 13.066406 19.246094 11.320312 C 19.246094 10.988281 19.191406 10.664062 19.097656 10.363281 L 21.054688 8.683594 L 21.054688 19.925781 C 21.054688 20.671875 20.445312 21.28125 19.699219 21.28125 Z M 19.699219 21.28125"/>
    <path d="M6.023438 16.191406C6.140625 16.191406 6.257812 16.144531 6.34375 16.0625 6.425781 15.976562 6.476562 15.859375 6.476562 15.742188 6.476562 15.621094 6.425781 15.503906 6.339844 15.417969 6.171875 15.25 5.875 15.25 5.699219 15.417969 5.613281 15.503906 5.570312 15.621094 5.570312 15.742188 5.570312 15.859375 5.613281 15.976562 5.699219 16.0625 5.789062 16.148438 5.898438 16.191406 6.023438 16.191406zM5.792969 17.339844C5.710938 17.425781 5.660156 17.542969 5.660156 17.660156 5.660156 17.78125 5.710938 17.894531 5.792969 17.980469 5.878906 18.0625 5.992188 18.113281 6.113281 18.113281 6.230469 18.113281 6.347656 18.0625 6.433594 17.980469 6.515625 17.894531 6.566406 17.78125 6.566406 17.660156 6.566406 17.542969 6.515625 17.425781 6.433594 17.339844 6.261719 17.171875 5.960938 17.171875 5.792969 17.339844zM4.207031 17.738281C4.125 17.824219 4.074219 17.9375 4.074219 18.054688 4.074219 18.175781 4.125 18.292969 4.207031 18.375 4.292969 18.460938 4.410156 18.511719 4.527344 18.511719 4.644531 18.511719 4.765625 18.460938 4.851562 18.375 4.929688 18.292969 4.980469 18.175781 4.980469 18.054688 4.980469 17.9375 4.933594 17.824219 4.851562 17.734375 4.679688 17.566406 4.375 17.570312 4.207031 17.738281zM17.65625 15.417969C17.574219 15.503906 17.523438 15.621094 17.523438 15.742188 17.523438 15.859375 17.574219 15.976562 17.65625 16.0625 17.742188 16.144531 17.859375 16.191406 17.976562 16.191406 18.101562 16.191406 18.210938 16.148438 18.300781 16.0625 18.382812 15.976562 18.429688 15.859375 18.429688 15.742188 18.429688 15.621094 18.382812 15.503906 18.300781 15.417969 18.125 15.25 17.828125 15.25 17.65625 15.417969zM17.566406 17.339844C17.480469 17.425781 17.433594 17.539062 17.433594 17.660156 17.433594 17.78125 17.484375 17.898438 17.566406 17.980469 17.652344 18.0625 17.765625 18.113281 17.886719 18.113281 18.007812 18.113281 18.121094 18.0625 18.207031 17.980469 18.289062 17.894531 18.339844 17.777344 18.339844 17.660156 18.339844 17.542969 18.289062 17.425781 18.207031 17.339844 18.039062 17.171875 17.734375 17.171875 17.566406 17.339844zM19.148438 17.738281C19.0625 17.824219 19.019531 17.941406 19.019531 18.054688 19.019531 18.175781 19.0625 18.292969 19.148438 18.375 19.234375 18.460938 19.355469 18.511719 19.472656 18.511719 19.589844 18.511719 19.707031 18.460938 19.789062 18.375 19.875 18.292969 19.925781 18.175781 19.925781 18.054688 19.925781 17.9375 19.878906 17.824219 19.789062 17.734375 19.625 17.570312 19.320312 17.566406 19.148438 17.738281zM19.148438 17.738281"/>
</svg>
