<svg xmlns="http://www.w3.org/2000/svg" width="32" height="32" viewBox="0 0 24 24">
    <path d="M14.898 16.168a.447.447 0 0 0-.632.09.45.45 0 0 0 .09.633l.18.136c-.4.461-1.286 1.332-2.45 1.508-.746.113-1.496-.09-2.242-.594l.074-.054a.453.453 0 0 0 .09-.633.447.447 0 0 0-.633-.09l-.996.746a.447.447 0 0 0-.09.633c.086.117.223.18.36.18a.442.442 0 0 0 .273-.09l.164-.121c.84.636 1.707.96 2.59.96.18 0 .363-.015.547-.042 1.488-.223 2.574-1.309 3.039-1.86l.09.067a.453.453 0 0 0 .633-.09.45.45 0 0 0-.09-.633zm0 0M15.887 7.32a3.36 3.36 0 0 0-3.192 2.317 1.495 1.495 0 0 0-1.246 0A3.369 3.369 0 0 0 8.254 7.32a3.362 3.362 0 0 0-3.36 3.36 3.364 3.364 0 0 0 3.36 3.36 3.362 3.362 0 0 0 3.36-3.36c0-.13.195-.274.456-.274.262 0 .457.145.457.274a3.364 3.364 0 0 0 3.36 3.36 3.364 3.364 0 0 0 3.36-3.36 3.362 3.362 0 0 0-3.36-3.36zm-7.633 5.813A2.457 2.457 0 0 1 5.8 10.68a2.458 2.458 0 0 1 2.453-2.457 2.459 2.459 0 0 1 2.457 2.457 2.458 2.458 0 0 1-2.457 2.453zm7.633 0a2.455 2.455 0 0 1 0-4.91 2.458 2.458 0 0 1 2.453 2.457 2.457 2.457 0 0 1-2.453 2.453zm0 0"/>
    <path d="M8.793 9.094a.455.455 0 0 0-.64 0l-1.454 1.453a.455.455 0 0 0 .32.773c.118 0 .231-.043.32-.133l1.454-1.453a.455.455 0 0 0 0-.64zm0 0M9.414 10.36l-1.453 1.453a.455.455 0 0 0 .32.773.456.456 0 0 0 .32-.133L10.056 11a.448.448 0 0 0 0-.64.448.448 0 0 0-.64 0zm0 0M16.57 8.906a.448.448 0 0 0-.64 0l-1.453 1.453a.448.448 0 0 0 0 .641.456.456 0 0 0 .32.133.47.47 0 0 0 .32-.133l1.453-1.453a.455.455 0 0 0 0-.64zm0 0M16.754 10.36L15.3 11.812a.455.455 0 0 0 .32.773.456.456 0 0 0 .32-.133L17.395 11a.448.448 0 0 0 0-.64.448.448 0 0 0-.641 0zm0 0M6.93 15.348a.46.46 0 0 0 .453-.453.483.483 0 0 0-.133-.325.475.475 0 0 0-.645 0 .461.461 0 0 0-.128.325.448.448 0 0 0 .453.453zm0 0M6.703 16.492a.446.446 0 0 0 .317.77.457.457 0 0 0 .453-.45.459.459 0 0 0-.133-.32c-.172-.172-.48-.168-.637 0zm0 0M5.113 16.887a.473.473 0 0 0-.133.32c0 .117.051.234.133.32a.473.473 0 0 0 .32.133.456.456 0 0 0 .32-.773c-.163-.168-.472-.164-.64 0zm0 0M17.434 14.965a.462.462 0 0 0-.137.324.46.46 0 0 0 .457.453.45.45 0 0 0 .32-.133.47.47 0 0 0 0-.644.47.47 0 0 0-.64 0zm0 0M17.34 16.887a.473.473 0 0 0-.133.32c0 .117.05.234.133.32a.473.473 0 0 0 .32.133.456.456 0 0 0 .32-.773.47.47 0 0 0-.64 0zm0 0M18.922 17.285a.445.445 0 0 0-.129.32c0 .114.043.23.129.317a.456.456 0 0 0 .777-.316.466.466 0 0 0-.133-.32.475.475 0 0 0-.644 0zm0 0"/>
    <path d="M19.7 2.719H15.62V1.043C15.621.469 15.156 0 14.578 0H9.422c-.578 0-1.043.469-1.043 1.043v1.676H4.3A2.266 2.266 0 0 0 2.039 4.98v14.946a2.266 2.266 0 0 0 2.262 2.262h1.36v.769c0 .574.468 1.043 1.042 1.043h10.594c.574 0 1.043-.469 1.043-1.043v-.77h1.36a2.266 2.266 0 0 0 2.26-2.261V4.98A2.266 2.266 0 0 0 19.7 2.72zM9.28 1.043a.14.14 0 0 1 .14-.137h5.157a.14.14 0 0 1 .14.137v1.676H9.282zm8.153 21.914a.138.138 0 0 1-.137.137H6.703a.138.138 0 0 1-.137-.137v-.77h10.868zm3.62-3.031c0 .746-.609 1.355-1.355 1.355H4.301c-.746 0-1.356-.61-1.356-1.355V4.98c0-.75.61-1.359 1.356-1.359h15.398c.746 0 1.356.61 1.356 1.36zm0 0"/>
</svg>
