<svg xmlns="http://www.w3.org/2000/svg" width="32" height="32" viewBox="0 0 24 24">
    <path d="M23.918 10.625c-.16-.676-.547-1.262-1.031-1.559-.325-.199-.672-.265-1.004-.183a.916.916 0 0 0-.219.078c-.805-1.957-1.992-3.32-3.266-4.266l.758-1.515a.401.401 0 0 0-.176-.54.405.405 0 0 0-.539.18l-.71 1.418a11.49 11.49 0 0 0-.66-.383l.507-1.53a.398.398 0 0 0-.254-.505.396.396 0 0 0-.504.254l-.476 1.43a11.99 11.99 0 0 0-3.145-.883v-.82a.401.401 0 1 0-.8 0v.738c-.133-.008-.22-.008-.235-.008h-.008c-.043 0-.523.004-1.25.121l-.152-.918a.396.396 0 0 0-.461-.328.398.398 0 0 0-.328.457l.156.938c-.43.097-.902.23-1.402.41l-.38-1.137a.4.4 0 0 0-.758.25l.392 1.18c-.344.152-.696.328-1.047.531l-.61-1.215a.402.402 0 0 0-.535-.18.403.403 0 0 0-.18.54l.641 1.28c-.351.24-.699.513-1.039.817l-.96-.96a.4.4 0 0 0-.567.566l.957.953c-1.23 1.312-2.258 3.137-2.73 5.687-.008.032-.012.067-.016.098a1.21 1.21 0 0 0-.313-.047c-.883 0-1.574.953-1.574 2.172 0 1.215.691 2.168 1.574 2.168.164 0 .32-.039.473-.105a8.885 8.885 0 0 0 1.383 2.949c1.277 1.762 3.785 3.844 8.508 3.844.074 0 .144 0 .218-.004.074.004.145.004.219.004 4.719 0 7.23-2.082 8.508-3.844 1.152-1.586 1.738-3.574 1.691-5.63.016 0 .028.005.043.005.09 0 .18-.008.27-.031.86-.204 1.312-1.293 1.031-2.477zM5.184 6.387l.492.496a.399.399 0 0 0 .566 0 .4.4 0 0 0 0-.567l-.492-.492c.273-.246.555-.472.84-.672l.21.426a.4.4 0 0 0 .72-.355l-.254-.504a9.97 9.97 0 0 1 .949-.489l.164.497a.405.405 0 0 0 .508.253.407.407 0 0 0 .254-.507l-.184-.54c.461-.163.895-.28 1.293-.367l.113.7a.405.405 0 0 0 .395.336c.023 0 .043-.004.066-.008a.396.396 0 0 0 .328-.461l-.117-.707a8.356 8.356 0 0 1 1.11-.094h.015c.004-.004.09-.004.238.004v.863c0 .223.18.399.403.399a.398.398 0 0 0 .398-.399v-.781c.336.047.739.121 1.184.234l-4.27 4.27c-.008-.012-.011-.024-.02-.035-.292-.457-.628-.723-1.03-.813-.708-.152-1.395.293-2.192.813l-.59.375c-.804.504-1.5.937-1.66 1.644-.09.403.012.817.305 1.278.086.136.183.261.289.379l-2.652 2.359c-.008-.121-.02-.242-.024-.363 0-.098 0-.2.004-.301 0-.164.008-.324.016-.488.007-.118.015-.239.03-.356a9.5 9.5 0 0 1 .099-.746c.44-2.371 1.374-4.066 2.496-5.281zm.414 4.367c-.172-.27-.235-.488-.196-.672.086-.383.653-.734 1.305-1.145l.598-.382c.586-.38 1.097-.711 1.472-.711.04 0 .078.004.118.011.18.043.351.192.523.461.324.512.434 1.118.3 1.707a2.228 2.228 0 0 1-.991 1.422 2.244 2.244 0 0 1-1.707.301 2.252 2.252 0 0 1-1.422-.992zM1.87 14.996a.477.477 0 0 1-.297.117c-.367 0-.773-.562-.773-1.367 0-.809.406-1.371.773-1.371a.44.44 0 0 1 .203.055c-.02.215-.03.425-.039.636v.047c-.004.176-.004.352 0 .524.004.058.004.113.008.172.004.14.016.28.027.421.008.06.008.118.016.176.02.172.043.344.07.52l.012.07zm18.66 2.832a.404.404 0 0 0-.414.09.402.402 0 0 0-.117.285c0 .094.04.184.102.258-.223.293-.461.566-.72.82a.415.415 0 0 0-.468.063.413.413 0 0 0-.082.441 8.044 8.044 0 0 1-2.098 1.242.38.38 0 0 0 .067-.199c0-.11-.047-.21-.117-.285a.412.412 0 0 0-.567 0 .402.402 0 0 0-.117.285.39.39 0 0 0 .281.375c-.496.172-1.015.309-1.566.406a.367.367 0 0 0 .07-.207c0-.109-.047-.21-.117-.285-.152-.148-.426-.144-.563 0a.39.39 0 0 0-.12.285c0 .106.042.207.113.282.007.007.02.007.023.015-.293.035-.594.059-.902.078a.408.408 0 0 0-.11-.257.417.417 0 0 0-.57 0 .396.396 0 0 0-.113.277c-.09 0-.176.004-.266.004h-.23c-.11 0-.215-.004-.325-.008a.387.387 0 0 0-.113-.273c-.152-.153-.426-.149-.566 0a.388.388 0 0 0-.11.238c-.91-.07-1.757-.23-2.53-.477a.41.41 0 0 0 0-.566.425.425 0 0 0-.571.004.408.408 0 0 0-.113.285c0 .012.003.02.003.035a9.188 9.188 0 0 1-.816-.383c.004-.015.012-.035.012-.054a.426.426 0 0 0-.117-.286.417.417 0 0 0-.516-.03 7.22 7.22 0 0 1-.633-.458.37.37 0 0 0 .067-.203.424.424 0 0 0-.118-.281c-.136-.137-.367-.14-.523-.032a10.934 10.934 0 0 1-.36-.375c.028-.019.06-.03.083-.054a.409.409 0 0 0 .117-.285.415.415 0 0 0-.117-.278.412.412 0 0 0-.567 0c-.004 0-.004.008-.008.008a.153.153 0 0 1-.03-.039 7.591 7.591 0 0 1-.556-.906c.024.008.051.015.079.015a.39.39 0 0 0 .28-.117A.393.393 0 0 0 4 17a.393.393 0 0 0-.117-.281.412.412 0 0 0-.567 0 .416.416 0 0 0-.074.11 8.926 8.926 0 0 1-.262-.704.398.398 0 0 0 .22.074.4.4 0 0 0 .402-.398.41.41 0 0 0-.118-.281.413.413 0 0 0-.57 0 .4.4 0 0 0-.074.117 7.922 7.922 0 0 1-.164-.746l3.144-2.797c.309.203.653.351 1.028.433.218.051.445.075.668.075a3.063 3.063 0 0 0 2.984-2.407c.113-.5.098-1.008-.04-1.488l4.79-4.789c.273.094.559.203.844.332l-.074.223a.4.4 0 0 0 .378.527.397.397 0 0 0 .38-.273l.038-.118c.196.106.383.215.567.332l-.14.282a.397.397 0 0 0 .355.578.4.4 0 0 0 .359-.223l.086-.172c1.352 1.04 2.352 2.422 2.996 4.133l-.004.004.074.203c.11.309.203.613.29.922l.011.059c.082.308.156.62.215.941.047.262.082.527.105.789.004.05.012.102.016.152a9.07 9.07 0 0 1-.039 1.844.406.406 0 0 0-.39.09.395.395 0 0 0 0 .562c.07.075.167.114.265.118a8.57 8.57 0 0 1-.227.84.414.414 0 0 0-.44.082.41.41 0 0 0-.118.28c0 .106.047.212.117.282a.408.408 0 0 0 .164.094c-.152.36-.344.699-.547 1.027zm2.168-5.504a.443.443 0 0 1-.176 0c0-.015-.003-.027-.003-.043-.028-.25-.063-.504-.11-.754v-.004c0-.007 0-.011-.004-.015a13.888 13.888 0 0 0-.191-.88c-.008-.03-.02-.058-.027-.089a14.01 14.01 0 0 0-.235-.805c-.004-.007-.004-.011-.008-.02a.35.35 0 0 1 .125-.054c.153-.039.301.027.399.086.3.188.558.594.672 1.066.183.786-.082 1.426-.442 1.512zm0 0"/>
    <path d="M4.68 16.484a.405.405 0 0 0 .12-.285.406.406 0 0 0-.116-.281.412.412 0 0 0-.567 0 .402.402 0 0 0 .281.684c.106 0 .211-.043.282-.118zm0 0M4.516 17.117a.414.414 0 0 0-.118.281.402.402 0 1 0 .8 0 .396.396 0 0 0-.116-.28.416.416 0 0 0-.566 0zm0 0M5.715 18.32a.403.403 0 0 0 0 .563A.409.409 0 0 0 6 19a.416.416 0 0 0 .285-.117.403.403 0 0 0 0-.563.413.413 0 0 0-.57 0zm0 0M6.914 19.52a.408.408 0 0 0 0 .562.41.41 0 0 0 .285.121.407.407 0 0 0 .402-.398.428.428 0 0 0-.117-.29.425.425 0 0 0-.57.005zm0 0M9.082 19.918a.412.412 0 0 0-.566 0 .4.4 0 0 0 0 .566.398.398 0 0 0 .285.114c.105 0 .207-.04.281-.114a.416.416 0 0 0 .117-.285.406.406 0 0 0-.117-.281zm0 0M15.715 19.344a.41.41 0 0 0-.117.281c0 .105.047.21.117.285.078.074.18.117.285.117a.423.423 0 0 0 .285-.117.423.423 0 0 0 .113-.285.406.406 0 0 0-.113-.281.42.42 0 0 0-.57 0zm0 0M9.316 20.719a.395.395 0 0 0 0 .562c.075.078.18.121.286.121a.372.372 0 0 0 .277-.12.379.379 0 0 0 .121-.278.395.395 0 0 0-.117-.285.416.416 0 0 0-.567 0zm0 0M10.914 20.32a.406.406 0 0 0 0 .563.42.42 0 0 0 .285.12.403.403 0 0 0 .281-.12.403.403 0 0 0 .122-.281.41.41 0 0 0-.118-.282.42.42 0 0 0-.57 0zm0 0M12.516 20.32a.393.393 0 0 0-.118.282c0 .105.043.21.118.28.074.075.18.122.285.122a.41.41 0 0 0 .398-.402.393.393 0 0 0-.117-.282.416.416 0 0 0-.566 0zm0 0M14.117 19.918a.4.4 0 0 0 0 .566.396.396 0 0 0 .281.114c.11 0 .211-.04.286-.114a.434.434 0 0 0 .117-.285.424.424 0 0 0-.117-.281.412.412 0 0 0-.567 0zm0 0M20.684 14.941a.42.42 0 0 0-.567 0 .402.402 0 0 0 0 .567.41.41 0 0 0 .281.12c.11 0 .207-.046.286-.12a.417.417 0 0 0 .117-.281c0-.11-.047-.211-.117-.286zm0 0M19.715 16.543a.419.419 0 0 0-.117.285.407.407 0 0 0 .402.399.406.406 0 0 0 .281-.118.406.406 0 0 0 .004-.566c-.152-.148-.426-.148-.57 0zm0 0M18.398 17.625a.416.416 0 0 0 .286-.117.417.417 0 0 0 .117-.281.426.426 0 0 0-.117-.286.416.416 0 0 0-.567 0 .402.402 0 0 0 .281.684zm0 0M18.516 18.145a.406.406 0 0 0-.118.28c0 .106.043.212.118.282.074.074.18.121.285.121a.394.394 0 0 0 .281-.121.393.393 0 0 0 .117-.281.406.406 0 0 0-.117-.281.416.416 0 0 0-.566 0zm0 0M17.484 18.145a.42.42 0 0 0-.57 0 .406.406 0 0 0 0 .563.412.412 0 0 0 .285.12.403.403 0 0 0 .285-.683zm0 0M15.883 18.484a.4.4 0 0 0 0-.566.408.408 0 0 0-.567 0 .402.402 0 0 0 .282.684c.105 0 .21-.043.285-.118zm0 0M17.082 17.281a.393.393 0 0 0 .117-.281.393.393 0 0 0-.117-.281.408.408 0 0 0-.566 0 .4.4 0 0 0 0 .562c.074.078.18.117.285.117a.39.39 0 0 0 .281-.117zm0 0M13.883 18.719a.412.412 0 0 0-.567 0A.393.393 0 0 0 13.2 19c0 .105.043.21.117.281a.394.394 0 0 0 .567 0A.393.393 0 0 0 14 19a.393.393 0 0 0-.117-.281zm0 0M11.082 19.684a.416.416 0 0 0 .117-.286.414.414 0 0 0-.117-.28.42.42 0 0 0-.566 0 .406.406 0 0 0-.118.28.402.402 0 0 0 .684.285zm0 0M7.316 18.32a.39.39 0 0 0-.117.278.402.402 0 0 0 .684.285.402.402 0 0 0 .117-.285.39.39 0 0 0-.117-.278.412.412 0 0 0-.567 0zm0 0M5.715 16.719a.406.406 0 0 0 0 .563c.078.077.18.116.285.116.105 0 .207-.039.285-.117a.406.406 0 0 0 0-.562.417.417 0 0 0-.57 0zm0 0M5.715 15.117a.41.41 0 0 0 0 .567.42.42 0 0 0 .285.12.403.403 0 0 0 .281-.12.402.402 0 0 0 .117-.286.41.41 0 0 0-.113-.28.425.425 0 0 0-.57 0zm0 0M8.914 19.117a.402.402 0 0 0-.113.281c0 .11.039.207.113.286.078.074.18.117.285.117.11 0 .207-.043.285-.117a.426.426 0 0 0 .118-.286.424.424 0 0 0-.118-.28.425.425 0 0 0-.57 0zm0 0M12.285 19.117a.425.425 0 0 0-.57 0 .42.42 0 0 0-.113.281c0 .11.043.207.113.286A.402.402 0 0 0 12 19.8a.416.416 0 0 0 .285-.117.423.423 0 0 0 .113-.286.42.42 0 0 0-.113-.28zm0 0M17.316 15.52a.393.393 0 0 0-.117.28c0 .106.04.208.117.282a.39.39 0 0 0 .282.117c.105 0 .21-.039.285-.117a.39.39 0 0 0 .117-.281.393.393 0 0 0-.117-.281.416.416 0 0 0-.567 0zm0 0M18.516 15.52a.393.393 0 0 0-.118.28c0 .106.04.208.118.282.074.078.18.117.285.117a.39.39 0 0 0 .281-.117.384.384 0 0 0 .117-.281.393.393 0 0 0-.117-.281.416.416 0 0 0-.566 0zm0 0M17.715 19.344a.406.406 0 0 0-.117.281c0 .105.043.21.117.285.074.074.18.117.285.117a.423.423 0 0 0 .285-.117.413.413 0 0 0 0-.566.42.42 0 0 0-.57 0zm0 0M9.598 18.371a.399.399 0 0 0 .242-.719l-.434-.324c.719-.68 2.598-2.164 4.39-1.203l-.437.328c-.007.008-.011.016-.02.024-.007.003-.019.007-.023.015-.011.012-.02.028-.027.043a.164.164 0 0 0-.043.063.226.226 0 0 0-.023.066c-.008.027-.016.055-.02.082 0 .012-.004.02-.004.027 0 .016.008.032.008.047.004.028.008.051.02.078.007.024.02.047.03.07.009.016.013.032.024.044.004.008.012.008.016.015.008.008.012.02.02.028.019.023.046.035.074.05.015.008.027.024.046.032a.42.42 0 0 0 .122.027c.015 0 .027.008.039.008.05 0 .097-.012.144-.027.012-.008.024-.012.035-.02.02-.012.043-.02.063-.031l1.598-1.203a.395.395 0 0 0 .082-.559.399.399 0 0 0-.56-.078l-.483.36c-2.149-1.438-4.532.023-5.723 1.226l-.516-.387a.399.399 0 1 0-.476.64l1.597 1.2a.395.395 0 0 0 .239.078zm0 0M15.598 13a2.8 2.8 0 1 0 0-5.598 2.8 2.8 0 0 0 0 5.598zm0-.797a1.994 1.994 0 0 1-1.883-1.363l3.742-1.363c.09.226.14.468.14.726 0 1.102-.894 2-2 2zm0-4c.554 0 1.054.223 1.418.586l-3.399 1.234c.09-1.02.942-1.82 1.98-1.82zm0 0"/>
    <path d="M15.598 11a.398.398 0 1 1-.797 0 .398.398 0 1 1 .797 0zm0 0"/>
</svg>
