<svg xmlns="http://www.w3.org/2000/svg" width="32" height="32" viewBox="0 0 24 24">
    <path d="M17.637 18.965a.377.377 0 0 0-.117.281c0 .11.039.211.117.285a.395.395 0 0 0 .562 0 .396.396 0 0 0 .121-.285.387.387 0 0 0-.12-.281.41.41 0 0 0-.563 0zm0 0M17.8 15.574a.387.387 0 0 0-.12.281.402.402 0 0 0 .398.403c.106 0 .211-.043.285-.117a.392.392 0 0 0 .117-.286.384.384 0 0 0-.117-.28c-.152-.15-.422-.15-.562 0zm0 0M17.715 17.273a.38.38 0 0 0-.113.278c0 .11.043.21.113.285.078.074.18.117.285.117a.416.416 0 0 0 .285-.117.423.423 0 0 0 .113-.285.42.42 0 0 0-.113-.281.417.417 0 0 0-.57.003zm0 0M16.379 18.18a.423.423 0 0 0-.113.285.403.403 0 0 0 .398.398.403.403 0 0 0 .285-.684.42.42 0 0 0-.57 0zm0 0M15.441 20.117a.384.384 0 0 0-.117.281.4.4 0 0 0 .68.285.412.412 0 0 0 .121-.285.406.406 0 0 0-.117-.28.416.416 0 0 0-.567 0zm0 0M19.117 17.621a.377.377 0 0 0-.117.281c0 .106.04.211.117.282.07.074.176.12.281.12.11 0 .211-.042.282-.116a.412.412 0 0 0 .12-.286.393.393 0 0 0-.116-.28.416.416 0 0 0-.567 0zm0 0M6.32 19.508a.402.402 0 0 0 .285.683.394.394 0 0 0 .282-.12.39.39 0 0 0 .117-.278c0-.11-.043-.211-.117-.285a.412.412 0 0 0-.567 0zm0 0M6.441 16.8c.106 0 .211-.042.282-.116a.394.394 0 0 0 0-.566.41.41 0 0 0-.563 0 .41.41 0 0 0-.12.28c0 .106.046.211.12.282a.38.38 0 0 0 .281.12zm0 0M6.523 18.496a.41.41 0 0 0 .402-.398.411.411 0 0 0-.116-.286.417.417 0 0 0-.57 0 .392.392 0 0 0-.114.286c0 .101.04.207.113.277a.39.39 0 0 0 .285.121zm0 0M7.57 18.723a.417.417 0 0 0 .004.566c.074.07.18.113.285.113.106 0 .211-.043.282-.113a.412.412 0 0 0 .12-.285.403.403 0 0 0-.12-.281.413.413 0 0 0-.57 0zm0 0M8.516 20.66a.397.397 0 0 0 .285.68c.101 0 .207-.04.285-.117a.41.41 0 0 0 .113-.278c0-.11-.043-.21-.113-.285a.417.417 0 0 0-.57 0zm0 0M4.84 18.16a.426.426 0 0 0-.117.285c0 .102.047.207.117.282.074.078.18.117.285.117a.39.39 0 0 0 .281-.117.393.393 0 0 0 .117-.282c0-.11-.043-.21-.117-.28a.412.412 0 0 0-.566-.005zm0 0M15.957 16.719c-.07-.297-.219-.489-.441-.578-.403-.16-.813.105-1.387.472-.516.332-1.156.746-1.906.926-.75.18-1.508.102-2.121.04-.676-.071-1.165-.122-1.45.206-.156.18-.199.418-.129.711.149.629.758 1.3 1.586 1.758a4.23 4.23 0 0 0 2.032.547c.285 0 .566-.031.84-.098.925-.223 1.765-.824 2.359-1.703.527-.781.765-1.656.617-2.281zm-3.164 3.207a2.901 2.901 0 0 1-1.336-.004.92.92 0 0 1 .195-.238c.246-.22.621-.399 1.028-.497.617-.148 1.125-.074 1.375.067a2.908 2.908 0 0 1-1.262.672zm1.883-1.375l-.078.113c-.461-.348-1.239-.46-2.102-.254-.543.13-1.031.367-1.375.676-.2.18-.344.371-.426.57a4.597 4.597 0 0 1-.199-.101c-.703-.39-1.101-.895-1.191-1.227.164-.012.476.02.715.043.636.067 1.507.156 2.386-.055.883-.21 1.617-.687 2.156-1.03.204-.134.465-.302.618-.368.074.34-.055.969-.504 1.633zm0 0M16.398 12.398c0 .446-.355.801-.796.801a.797.797 0 0 1-.801-.8c0-.442.355-.797.8-.797.442 0 .797.355.797.796zm0 0"/>
    <path d="M15.602 15.2a2.8 2.8 0 0 0 0-5.598 2.8 2.8 0 1 0 0 5.597zm0-4.802c1.101 0 2 .899 2 2a1.999 1.999 0 1 1-2-2zm0 0"/>
    <path d="M21.602 5.2h-1.13c-.702 0-1.273-.571-1.273-1.274A3.931 3.931 0 0 0 15.273 0h-1.671a.4.4 0 0 0-.36.223l-.398.797a.37.37 0 0 0-.043.18c0 .296-.043.366-.04.366-.066.04-.335.036-.554.036h-.414c-.219 0-.492.003-.547-.028 0 0-.047-.07-.047-.375a.37.37 0 0 0-.043-.18l-.398-.796a.4.4 0 0 0-.36-.223H8.727A3.931 3.931 0 0 0 4.8 3.926c0 .703-.57 1.273-1.274 1.273H2.398c-1.101 0-2 .899-2 2 0 1.106.899 2 2 2H3.2v7.297l-.008.004.008.008v3.89c0 1.106.899 2 2 2h1.2v.68c0 .508.413.922.925.922h9.356a.924.924 0 0 0 .922-.922v-.68H18.8c1.101 0 2-.894 2-2V9.2h.8c1.102 0 2-.894 2-2 0-1.101-.898-2-2-2zM12 6.8c4.883 0 8 1.184 8 2v.36c-1.469-1.027-4.75-1.558-8-1.558s-6.531.53-8 1.558V8.8c0-.816 3.117-2 8-2zm-8 3.598c0-.812 3.117-2 8-2 .3 0 .594.008.879.016l-1.707 1.707-.02-.035c-.293-.461-.629-.727-1.03-.813-.712-.152-1.395.293-2.192.809l-.59.379c-.805.504-1.5.937-1.66 1.644-.09.403.008.817.3 1.278.09.137.188.262.293.379L4 15.785zm2.656 2.555c-.172-.27-.234-.488-.195-.672.086-.383.648-.734 1.305-1.144l.597-.383c.586-.379 1.098-.711 1.473-.711.039 0 .078.004.117.012.18.039.352.191.524.46a2.267 2.267 0 0 1-.692 3.13 2.247 2.247 0 0 1-1.707.3 2.252 2.252 0 0 1-1.422-.992zm10.145 10.125a.123.123 0 0 1-.125.121H7.324a.123.123 0 0 1-.125-.12v-.68h9.602zM20 20.398c0 .665-.54 1.204-1.2 1.204H5.2c-.66 0-1.2-.54-1.2-1.204v-3.546l2.883-2.563a3.065 3.065 0 0 0 3.332.031 3.042 3.042 0 0 0 1.344-1.925c.113-.5.097-1.008-.04-1.493l2.438-2.433C17.695 8.73 20 9.699 20 10.399zm1.602-12h-.875c-.004-.007-.008-.011-.012-.02a1.435 1.435 0 0 0-.133-.253l-.023-.031a1.73 1.73 0 0 0-.207-.246l-.016-.012a2.988 2.988 0 0 0-.285-.242h-.004a3.717 3.717 0 0 0-.344-.223c-.012-.004-.023-.012-.035-.02a5.949 5.949 0 0 0-.387-.19c-.015-.009-.035-.016-.05-.028a7.57 7.57 0 0 0-.497-.196 6.687 6.687 0 0 0-.472-.16c-.02-.007-.043-.011-.067-.02-.168-.05-.343-.097-.523-.144l-.05-.011a11.62 11.62 0 0 0-.583-.133c-.004-.004-.008-.004-.012-.004a14.782 14.782 0 0 0-.625-.117c-.011-.004-.02-.004-.03-.004-.204-.035-.419-.067-.63-.098l-.074-.012c-.207-.027-.418-.05-.629-.074a6.924 6.924 0 0 1-.098-.012 379.676 379.676 0 0 0-.742-.066c-.215-.016-.433-.027-.652-.039-.031-.004-.063-.004-.094-.008-.226-.008-.45-.02-.676-.023-.023 0-.043 0-.066-.004A42.672 42.672 0 0 0 12 6c-.238 0-.477.004-.71.008-.024 0-.048 0-.067.004a19.19 19.19 0 0 0-.676.023c-.031.004-.063.004-.094.004-.223.012-.437.027-.656.043-.031.004-.067.004-.102.008-.215.02-.425.035-.636.058l-.098.012c-.211.024-.422.047-.629.074l-.074.012c-.215.027-.426.063-.633.094-.008.004-.02.004-.027.008a13.7 13.7 0 0 0-.625.117H6.96c-.2.043-.395.086-.582.133a9.087 9.087 0 0 0-.574.16 11.18 11.18 0 0 0-.543.176c-.02.007-.043.02-.067.027-.148.055-.289.113-.425.172a.357.357 0 0 0-.055.027 5.949 5.949 0 0 0-.387.192 4.015 4.015 0 0 0-.375.238c0 .004-.004.004-.004.004-.105.078-.199.156-.285.238-.004.008-.012.012-.016.016-.082.078-.148.16-.207.246l-.023.031a1.312 1.312 0 0 0-.133.254l-.012.02h-.875a1.2 1.2 0 0 1 0-2.399h1.13c1.144 0 2.074-.93 2.074-2.074A3.13 3.13 0 0 1 8.727.8h1.425l.25.496c.008.3.055.621.278.844.27.265.648.265 1.12.261l.2-.004.2.004c.472.004.847.004 1.12-.261.223-.223.27-.543.278-.844l.25-.496h1.425a3.13 3.13 0 0 1 3.125 3.125c0 1.144.93 2.074 2.075 2.074h1.129a1.2 1.2 0 1 1 0 2.398zm0 0"/>
    <path d="M12.516 2.918L12 3.434l-.516-.516-.566.566.516.516-.516.516.566.566.516-.516.516.516.566-.566L12.566 4l.516-.516zm0 0"/>
</svg>
