<svg xmlns="http://www.w3.org/2000/svg" width="32" height="32" viewBox="0 0 24 24">
    <path d="M6.78125 8.347656C7.644531 8.347656 8.347656 9.050781 8.347656 9.914062 8.347656 10.199219 8.582031 10.433594 8.871094 10.433594 9.15625 10.433594 9.390625 10.199219 9.390625 9.914062 9.390625 8.472656 8.222656 7.304688 6.78125 7.304688 5.34375 7.304688 4.175781 8.472656 4.175781 9.914062 4.175781 10.199219 4.40625 10.433594 4.695312 10.433594 4.984375 10.433594 5.21875 10.199219 5.21875 9.914062 5.21875 9.050781 5.917969 8.347656 6.78125 8.347656zM16.175781 7.304688C14.734375 7.304688 13.566406 8.472656 13.566406 9.914062 13.566406 10.199219 13.796875 10.433594 14.085938 10.433594 14.375 10.433594 14.609375 10.199219 14.609375 9.914062 14.609375 9.050781 15.3125 8.347656 16.175781 8.347656 17.035156 8.347656 17.738281 9.050781 17.738281 9.914062 17.738281 10.199219 17.972656 10.433594 18.261719 10.433594 18.550781 10.433594 18.78125 10.199219 18.78125 9.914062 18.78125 8.472656 17.613281 7.304688 16.175781 7.304688zM17.21875 13.566406L5.738281 13.566406C5.449219 13.566406 5.21875 13.800781 5.21875 14.085938 5.21875 17.539062 8.027344 20.347656 11.476562 20.347656 14.929688 20.347656 17.738281 17.539062 17.738281 14.085938 17.738281 13.800781 17.507812 13.566406 17.21875 13.566406zM16.246094 16.1875C16.222656 16.183594 16.199219 16.175781 16.175781 16.175781L15.128906 16.175781 15.128906 14.609375 16.667969 14.609375C16.613281 15.167969 16.464844 15.695312 16.246094 16.1875zM13.042969 16.175781L13.042969 14.609375 14.085938 14.609375 14.085938 16.175781zM14.085938 17.21875L14.085938 18.597656C13.757812 18.789062 13.410156 18.945312 13.042969 19.058594L13.042969 17.21875zM8.871094 16.175781L8.871094 14.609375 9.914062 14.609375 9.914062 16.175781zM9.914062 17.21875L9.914062 19.058594C9.546875 18.945312 9.195312 18.789062 8.871094 18.597656L8.871094 17.21875zM10.957031 14.609375L12 14.609375 12 16.175781 10.957031 16.175781zM7.824219 14.609375L7.824219 16.175781 6.78125 16.175781C6.757812 16.175781 6.734375 16.183594 6.710938 16.1875 6.492188 15.695312 6.34375 15.167969 6.285156 14.609375zM7.308594 17.21875L7.824219 17.21875 7.824219 17.800781C7.640625 17.621094 7.464844 17.425781 7.308594 17.21875zM10.957031 19.277344L10.957031 17.21875 12 17.21875 12 19.277344C11.828125 19.292969 11.65625 19.304688 11.476562 19.304688 11.300781 19.304688 11.128906 19.292969 10.957031 19.277344zM15.128906 17.800781L15.128906 17.21875 15.648438 17.21875C15.492188 17.425781 15.316406 17.621094 15.128906 17.800781zM15.128906 17.800781"/>
    <path d="M 24 5.738281 C 24 4.355469 22.855469 0 20.871094 0 C 19.644531 0 18.742188 1.65625 18.226562 3.25 C 16.273438 1.828125 13.90625 1.042969 11.476562 1.042969 C 5.148438 1.042969 0 6.191406 0 12.523438 C 0 18.851562 5.148438 24 11.476562 24 C 17.808594 24 22.957031 18.851562 22.957031 12.523438 C 22.957031 11.152344 22.703125 9.820312 22.234375 8.550781 C 23.277344 8.042969 24 6.976562 24 5.738281 Z M 21.914062 12.523438 C 21.914062 18.277344 17.230469 22.957031 11.476562 22.957031 C 5.722656 22.957031 1.042969 18.277344 1.042969 12.523438 C 1.042969 6.769531 5.722656 2.085938 11.476562 2.085938 C 13.816406 2.085938 16.097656 2.878906 17.929688 4.328125 C 17.808594 4.878906 17.738281 5.371094 17.738281 5.738281 C 17.738281 7.464844 19.144531 8.871094 20.871094 8.871094 C 20.996094 8.871094 21.121094 8.859375 21.246094 8.84375 C 21.6875 10.019531 21.914062 11.253906 21.914062 12.523438 Z M 21.4375 7.738281 C 21.433594 7.738281 21.429688 7.738281 21.425781 7.738281 C 21.332031 7.765625 21.25 7.78125 21.167969 7.796875 C 21.070312 7.808594 20.972656 7.824219 20.871094 7.824219 C 19.71875 7.824219 18.78125 6.890625 18.78125 5.738281 C 18.78125 5.390625 18.871094 4.847656 19.019531 4.257812 C 19.023438 4.25 19.023438 4.238281 19.023438 4.226562 C 19.417969 2.734375 20.21875 1.042969 20.871094 1.042969 C 21.765625 1.042969 22.957031 4.265625 22.957031 5.738281 C 22.957031 6.691406 22.3125 7.488281 21.4375 7.738281 Z M 21.4375 7.738281"/>
</svg>
