<svg xmlns="http://www.w3.org/2000/svg" width="32" height="32" viewBox="0 0 24 24">
    <path d="M12 0C5.383 0 0 5.383 0 12s5.383 12 12 12 12-5.383 12-12S18.617 0 12 0zM2.816 16.172c.043 0 .086.008.125.008.032 0 .059-.004.09-.004.04-.004.078-.004.117-.008.13-.008.254-.023.38-.05 1.042-.22 2.077-.716 3.07-1.466.793-.597 1.597-.843 2.398-.722 1.504.222 2.55 1.648 2.563 1.66.101.144.273.23.441.226.176 0 .34-.082.441-.222.012-.016 1.063-1.442 2.567-1.664.199-.032.398-.035.597-.024.602.047 1.204.297 1.797.746.996.75 2.028 1.246 3.07 1.465.286.059.575.074.852.047a5.356 5.356 0 0 1-2.047 1.398c-3.164 1.223-7.004-.582-7.043-.597a.54.54 0 0 0-.469-.004c-.038.02-3.878 1.82-7.042.602a5.362 5.362 0 0 1-2.043-1.395c.047.004.093 0 .136.004zM12 1.09c5.77 0 10.492 4.508 10.871 10.18-.48-.48-1.016-.782-1.598-.895-.96-.191-1.808.07-2.214.688-.34.515-.297 1.183.117 1.789a1.809 1.809 0 0 0 1.605.78.539.539 0 0 0 .485-.585c-.024-.297-.29-.535-.582-.5a.691.691 0 0 1-.606-.309c-.094-.136-.23-.39-.11-.574.126-.184.52-.332 1.095-.219.519.102.984.446 1.425 1.051.332.457.387 1 .168 1.508-.316.64-1.11 1.226-1.957 1.047-.883-.188-1.773-.614-2.64-1.27-1.036-.785-2.122-1.097-3.223-.93-1.3.2-2.297 1.028-2.836 1.586-.535-.558-1.531-1.386-2.836-1.585-1.098-.168-2.184.144-3.223.93-.867.655-1.753 1.081-2.64 1.269-.11.023-.219.035-.324.035h-.032c-.093 0-.183-.008-.27-.02-.023-.004-.042-.011-.066-.015a2.124 2.124 0 0 1-.21-.059c-.032-.008-.063-.023-.09-.035a2.003 2.003 0 0 1-.16-.074 1.425 1.425 0 0 1-.102-.063 1.801 1.801 0 0 1-.215-.156c-.043-.039-.082-.074-.121-.113-.02-.024-.043-.043-.059-.067a1.266 1.266 0 0 1-.144-.18 1.498 1.498 0 0 1-.152-.273 1.502 1.502 0 0 1 .156-1.535c.355-.484.77-.95 1.402-1.047.434-.066.77.035.934.293.125.192.12.403.066.48-.2.31-.64.325-.64.325a.545.545 0 1 0 0 1.09c.382 0 1.144-.172 1.558-.825.3-.468.273-1.14-.07-1.664-.41-.628-1.14-.91-2.016-.777-.723.11-1.25.504-1.617.879C1.516 5.586 6.239 1.09 12 1.09zm0 21.82c-3.95 0-7.402-2.117-9.316-5.265.5.39 1.046.707 1.652.937 3.164 1.215 6.719-.125 7.664-.531.664.285 2.613 1.031 4.809 1.031.933 0 1.91-.137 2.855-.5a6.436 6.436 0 0 0 1.652-.937C19.402 20.793 15.95 22.91 12 22.91zm0 0"/>
    <path d="M5.7 6.457c1.206-.602 2.702-.008 3.874.578.078.04.16.055.242.055.204 0 .395-.11.489-.3a.54.54 0 0 0-.242-.731C8.773 5.414 6.87 4.652 5.21 5.48a.546.546 0 0 0 .488.977zm0 0M13.637 7.09a.535.535 0 0 0 .242-.055c1.172-.586 2.672-1.183 3.875-.578a.55.55 0 0 0 .734-.242.551.551 0 0 0-.246-.735c-1.656-.828-3.562-.066-4.851.579a.54.54 0 0 0-.243.73c.098.191.29.3.489.3zm0 0M16.91 8.453a.82.82 0 1 1-.82-.816.82.82 0 0 1 .82.816zm0 0M8.727 8.453a.82.82 0 1 1-1.637 0 .82.82 0 0 1 1.637 0zm0 0"/>
</svg>
