<svg xmlns="http://www.w3.org/2000/svg" width="32" height="32" viewBox="0 0 24 24">
    <path d="M18 14.727H6c-.3 0-.547.246-.547.546 0 3.61 2.938 6.543 6.547 6.543 3.61 0 6.547-2.933 6.547-6.543 0-.3-.246-.546-.547-.546zm-1.016 2.742c-.023-.004-.047-.016-.074-.016h-1.094v-1.637h1.61a5.194 5.194 0 0 1-.442 1.653zm-3.347-.016v-1.637h1.09v1.637zm1.09 1.094v1.441c-.34.2-.707.364-1.09.485v-1.926zm-5.454-1.094v-1.637h1.09v1.637zm1.09 1.094v1.926a5.353 5.353 0 0 1-1.09-.485v-1.441zm1.09-2.73h1.094v1.636h-1.094zm-3.27 0v1.636H7.09c-.027 0-.05.012-.074.016a5.298 5.298 0 0 1-.442-1.653zm-.542 2.73h.543v.61a5.712 5.712 0 0 1-.543-.61zm3.812 2.152v-2.152h1.094v2.152c-.18.02-.363.028-.547.028-.184 0-.367-.008-.547-.028zm4.363-1.543v-.61h.543a5.712 5.712 0 0 1-.543.61zm0 0"/>
    <path d="M12 0C5.383 0 0 5.383 0 12s5.383 12 12 12 12-5.383 12-12S18.617 0 12 0zm0 22.91C5.984 22.91 1.09 18.016 1.09 12S5.984 1.09 12 1.09 22.91 5.984 22.91 12 18.016 22.91 12 22.91zm0 0"/>
    <path d="M6.695 7.727c.317.156.797.324 1.43.5v3.164a2.597 2.597 0 0 1-.473-.13c-.586-.222-.847-.359-1.199-.738v-.742c0-.199-.125-.328-.324-.328-.2 0-.328.129-.328.328v2.04c0 .199.129.327.328.327.2 0 .324-.128.324-.328v-.433c.574.457.992.57 1.672.664v.465c0 .195.129.324.328.324.195 0 .324-.13.324-.324v-.426c.856-.012 1.524-.215 1.993-.61.488-.41.734-.968.734-1.66 0-.367-.098-.683-.293-.949a2.246 2.246 0 0 0-.813-.644 5.968 5.968 0 0 0-1.117-.41c-.234-.063-.402-.106-.504-.133V4.727c.149.03.293.074.426.132.547.223.871.543 1.238.95V6.5c0 .2.13.324.325.324.199 0 .328-.125.328-.324V4.457c0-.195-.13-.324-.328-.324-.196 0-.325.129-.325.324v.438c-.074-.06-.027-.13-.132-.207-.418-.297-.934-.504-1.532-.618v-.472c0-.196-.129-.325-.328-.325s-.324.13-.324.325v.43c-.848.011-1.484.206-1.89.577-.43.387-.645.915-.645 1.56 0 .343.098.651.297.917.187.254.46.473.808.645zm3.86 3.5c-.004.003-.012.007-.016.011a2.017 2.017 0 0 0 .016-.011zM8.777 8.402l.52.145c.25.07.5.16.746.273.227.102.426.25.586.438.148.18.223.383.223.625 0 .457-.176.82-.536 1.11-.351.284-.87.433-1.539.44zM6.711 5.09c.3-.262.777-.399 1.414-.41V7.5c-.113-.031-.238-.07-.375-.11a5.36 5.36 0 0 1-.7-.257 1.684 1.684 0 0 1-.585-.442.932.932 0 0 1-.223-.62c0-.391.153-.712.469-.981zm0 0M17.898 8.223a5.77 5.77 0 0 0-1.117-.407l-.504-.132V4.727c.153.03.293.074.43.132.547.223.867.543 1.234.95V6.5c0 .2.13.324.329.324s.324-.125.324-.324V4.457c0-.195-.125-.324-.324-.324-.2 0-.329.129-.329.324v.438c-.074-.06-.023-.13-.132-.207-.414-.297-.93-.504-1.532-.618v-.472c0-.196-.129-.325-.324-.325-.2 0-.328.13-.328.325v.43c-.848.011-1.484.206-1.89.577-.426.387-.645.915-.645 1.56 0 .343.101.651.297.917.191.254.465.473.812.645.313.156.793.324 1.426.5v3.164a2.597 2.597 0 0 1-.473-.13c-.586-.222-.847-.359-1.195-.738v-.742c0-.199-.129-.328-.328-.328-.2 0-.324.129-.324.328v2.04c0 .199.125.327.324.327.2 0 .328-.128.328-.328v-.433c.57.457.988.57 1.668.664v.465c0 .195.129.324.328.324.2 0 .324-.13.324-.324v-.426c.856-.012 1.528-.215 1.993-.61.488-.41.738-.968.738-1.66a1.56 1.56 0 0 0-.297-.949c-.191-.258-.465-.473-.813-.648zM15.625 7.5c-.113-.031-.238-.07-.375-.11a5.319 5.319 0 0 1-.695-.257 1.649 1.649 0 0 1-.586-.442.916.916 0 0 1-.227-.62c0-.391.156-.712.469-.981.305-.262.777-.399 1.414-.41zm2.434 3.727c-.008.003-.012.007-.02.011.047-.039.094-.078.137-.12-.035.038-.078.073-.117.109zm-.239-.235c-.355.285-.87.434-1.543.442V8.402l.524.145c.246.07.496.16.742.273.23.102.426.25.586.438.152.18.223.383.223.625 0 .457-.172.824-.532 1.11zm0 0"/>
</svg>
