<svg xmlns="http://www.w3.org/2000/svg" width="32" height="32" viewBox="0 0 24 24">
    <path d="M17.836 18.523c-.473.473-1.363.473-1.836 0-.777-.777-2.191-.777-2.965 0-.473.473-1.363.473-1.836 0-.777-.777-2.191-.777-2.969 0-.488.489-1.378.524-1.835.07a.396.396 0 0 0-.563 0 .396.396 0 0 0 0 .563c.352.356.863.555 1.41.555h.086a2.22 2.22 0 0 0 1.469-.621c.473-.473 1.363-.473 1.836 0 .37.37.914.586 1.484.586s1.11-.215 1.48-.586c.473-.473 1.364-.473 1.837 0 .375.37.914.586 1.484.586s1.11-.215 1.484-.586a.4.4 0 0 0-.566-.567zm0 0M15.719 10.402a2.8 2.8 0 1 0 0 5.602 2.8 2.8 0 0 0 0-5.602zm0 4.801a2.002 2.002 0 0 1-2.004-2c0-1.101.898-2 2.004-2 1.101 0 2 .899 2 2 0 1.106-.899 2-2 2zm0 0"/>
    <path d="M16.516 13.203a.799.799 0 1 1-1.598 0 .8.8 0 1 1 1.598 0zm0 0M8.516 16.004c1.543 0 2.8-1.254 2.8-2.8 0-1.544-1.257-2.802-2.8-2.802a2.8 2.8 0 1 0 0 5.602zm0-4.8c1.101 0 2 .898 2 2a1.999 1.999 0 1 1-2-2zm0 0"/>
    <path d="M9.316 13.203a.802.802 0 0 1-1.601 0 .802.802 0 0 1 1.601 0zm0 0"/>
    <path d="M22.516 7.54c-.227-1.634-.93-3.044-1.93-3.868-.258-.215-.445-.547-.563-.992-.328-1.285-1.539-2.184-3.078-2.29-.855-.058-1.597.208-2.41.536-.031.008-.062.008-.113-.024-.164-.441-.543-.746-1.063-.855-1.199-.25-3.054.523-4.543 1.879 0-.356.075-.676.278-.778L9.77.813 9.11.44c-.696-.39-2.372-.812-3.735.38-.496.433-.855 1.038-1.04 1.75-.038.148-.077.304-.108.456-.016.067-.07.086-.094.094-.043.008-.078 0-.121-.05a.937.937 0 0 0-.867-.344.91.91 0 0 0-.711.546c-.79 1.829-2.262 6.48.878 10.461v6.664c0 1.102.899 2 2 2h1.204v.68c0 .508.41.922.921.922h9.36a.924.924 0 0 0 .922-.922v-.68h1.199c1.105 0 2-.898 2-2v-6.644c.469-.527 2.09-2.645 1.598-6.215zM3.168 3.59c.004-.016.023-.059.09-.07.02 0 .086-.004.156.082.223.265.57.375.906.296a.93.93 0 0 0 .688-.695c.031-.144.066-.293.101-.43.145-.558.422-1.023.793-1.351.84-.734 1.766-.637 2.32-.477-.199.38-.257.91-.167 1.567.03.215.18.39.386.457.207.07.434.015.59-.14C10.555 1.28 12.312.644 13.191.831c.38.078.457.285.48.356.083.21.243.375.45.468a.934.934 0 0 0 .711.012c.746-.3 1.371-.527 2.059-.477.945.063 2.062.543 2.359 1.688.156.613.434 1.086.824 1.41.403.328 1.367 1.32 1.649 3.36.308 2.222-.278 3.808-.805 4.726v-5.48l-.602.355c-.984.578-1.843.754-2.554.523a1.702 1.702 0 0 1-.309-.128c-.023-.012-.043-.028-.066-.043a1.714 1.714 0 0 1-.2-.125l-.058-.047c-.055-.047-.113-.094-.16-.14-.024-.02-.04-.04-.059-.06a1.75 1.75 0 0 1-.117-.128c-.023-.028-.035-.047-.055-.07l-.082-.106a.49.49 0 0 0-.043-.067c-.02-.027-.039-.058-.054-.082a.247.247 0 0 1-.016-.035l-.059-.105-.09-.203-.214-.036c-3.84-.59-5.707 1.016-6.23 1.579C7.16 7.672 5.952 6.87 5.94 6.863l-.296-.203-.235.274c-.156.18-.316.34-.48.476-.489.422-.985.66-1.356.797l-.261.098v4.027c-1.961-3.277-.977-6.816-.145-8.742zm13.75 19.488a.122.122 0 0 1-.121.121h-9.36a.123.123 0 0 1-.125-.12v-.68h9.606zm3.2-2.68a1.2 1.2 0 0 1-1.2 1.2H5.313c-.66 0-1.2-.54-1.2-1.2V8.855A5.342 5.342 0 0 0 5.793 7.7c.562.293 1.922.864 4.285 1.094l.223.02.136-.18c.063-.082 1.555-1.996 5.422-1.473.207.356.72 1.07 1.645 1.371.781.258 1.66.164 2.613-.277zm0 0"/>
</svg>
