<svg xmlns="http://www.w3.org/2000/svg" width="32" height="32" viewBox="0 0 24 24">
    <path d="M13.945312 11.558594C12.925781 11.558594 12.039062 12.125 11.574219 12.957031 11.289062 12.726562 10.925781 12.585938 10.53125 12.585938 10.132812 12.585938 9.773438 12.726562 9.484375 12.957031 9.023438 12.125 8.136719 11.558594 7.117188 11.558594 5.621094 11.558594 4.40625 12.773438 4.40625 14.269531 4.40625 15.761719 5.621094 16.976562 7.117188 16.976562 8.609375 16.976562 9.824219 15.761719 9.824219 14.269531 9.824219 13.878906 10.140625 13.5625 10.53125 13.5625 10.917969 13.5625 11.234375 13.878906 11.234375 14.269531 11.234375 15.761719 12.449219 16.976562 13.945312 16.976562 15.4375 16.976562 16.652344 15.761719 16.652344 14.269531 16.652344 12.773438 15.4375 11.558594 13.945312 11.558594zM7.117188 16C6.164062 16 5.386719 15.222656 5.386719 14.269531 5.386719 13.316406 6.164062 12.539062 7.117188 12.539062 8.070312 12.539062 8.847656 13.316406 8.847656 14.269531 8.847656 15.222656 8.070312 16 7.117188 16zM13.945312 16C12.992188 16 12.214844 15.222656 12.214844 14.269531 12.214844 13.316406 12.992188 12.539062 13.945312 12.539062 14.898438 12.539062 15.671875 13.316406 15.671875 14.269531 15.671875 15.222656 14.898438 16 13.945312 16zM9.765625 18.445312C9.496094 18.445312 9.277344 18.667969 9.277344 18.9375 9.277344 19.207031 9.496094 19.425781 9.765625 19.425781 12.320312 19.425781 13.714844 20.003906 13.714844 20.300781 13.714844 20.574219 13.933594 20.792969 14.203125 20.792969 14.476562 20.792969 14.695312 20.574219 14.695312 20.300781 14.695312 18.535156 10.589844 18.445312 9.765625 18.445312zM9.765625 18.445312"/>
    <path d="M 22.476562 9.785156 C 22.449219 9.652344 22.410156 9.523438 22.378906 9.390625 C 22.347656 9.257812 22.320312 9.125 22.28125 8.996094 C 22.226562 8.792969 22.160156 8.597656 22.09375 8.398438 C 22.058594 8.304688 22.03125 8.210938 21.996094 8.117188 C 21.910156 7.886719 21.8125 7.664062 21.710938 7.441406 C 21.6875 7.386719 21.664062 7.328125 21.636719 7.273438 C 21.527344 7.039062 21.40625 6.8125 21.277344 6.585938 C 21.253906 6.542969 21.230469 6.496094 21.203125 6.449219 C 21.089844 6.261719 20.96875 6.078125 20.847656 5.898438 C 20.792969 5.816406 20.738281 5.730469 20.679688 5.648438 C 20.617188 5.558594 20.546875 5.472656 20.476562 5.386719 C 18.496094 2.785156 15.382812 1.144531 11.921875 1.144531 C 7.859375 1.144531 4.269531 3.484375 2.492188 7.007812 C 2.460938 7.066406 2.429688 7.125 2.398438 7.1875 C 2.316406 7.351562 2.246094 7.527344 2.175781 7.699219 C 2.121094 7.824219 2.066406 7.945312 2.019531 8.074219 C 1.964844 8.214844 1.917969 8.363281 1.871094 8.511719 C 1.820312 8.664062 1.765625 8.820312 1.722656 8.980469 C 1.679688 9.121094 1.648438 9.269531 1.613281 9.417969 C 1.585938 9.539062 1.546875 9.660156 1.523438 9.785156 C 0.640625 10.265625 0 11.304688 0 12.324219 C 0 13.378906 0.621094 14.328125 1.570312 14.761719 C 2.792969 19.539062 7.046875 22.855469 12 22.855469 C 16.953125 22.855469 21.207031 19.539062 22.429688 14.761719 C 23.378906 14.328125 24 13.378906 24 12.324219 C 24 11.304688 23.359375 10.265625 22.476562 9.785156 Z M 2.589844 9.542969 C 2.621094 9.410156 2.65625 9.277344 2.695312 9.148438 C 2.738281 9 2.785156 8.851562 2.835938 8.703125 C 2.875 8.59375 2.914062 8.480469 2.957031 8.371094 C 3.023438 8.199219 3.09375 8.03125 3.167969 7.863281 C 3.199219 7.796875 3.230469 7.726562 3.265625 7.65625 C 4.832031 4.398438 8.132812 2.285156 12 2.285156 C 15 2.285156 17.664062 3.554688 19.4375 5.648438 C 19.4375 5.648438 19.4375 5.648438 19.441406 5.652344 C 19.59375 5.832031 19.738281 6.023438 19.878906 6.21875 C 19.941406 6.304688 20 6.390625 20.058594 6.480469 C 20.140625 6.601562 20.222656 6.726562 20.300781 6.855469 C 20.378906 6.988281 20.453125 7.121094 20.527344 7.257812 C 20.582031 7.355469 20.636719 7.457031 20.6875 7.558594 C 20.761719 7.710938 20.828125 7.863281 20.898438 8.019531 C 20.941406 8.121094 20.984375 8.222656 21.027344 8.328125 C 21.085938 8.480469 21.140625 8.632812 21.191406 8.789062 C 21.230469 8.910156 21.269531 9.03125 21.304688 9.152344 C 21.347656 9.296875 21.386719 9.441406 21.421875 9.585938 C 21.4375 9.660156 21.453125 9.738281 21.472656 9.8125 C 19.46875 10.460938 17.976562 9.023438 17.058594 7.65625 C 16.894531 7.40625 16.628906 7.238281 16.335938 7.195312 C 16.035156 7.148438 15.726562 7.230469 15.488281 7.425781 C 10.929688 11.066406 4.335938 10.097656 2.542969 9.746094 C 2.558594 9.679688 2.574219 9.609375 2.589844 9.542969 Z M 21.855469 13.9375 C 21.695312 13.992188 21.574219 14.125 21.535156 14.292969 C 20.503906 18.757812 16.582031 21.875 12 21.875 C 7.417969 21.875 3.496094 18.757812 2.464844 14.292969 C 2.425781 14.128906 2.304688 13.992188 2.144531 13.9375 C 1.449219 13.703125 0.980469 13.050781 0.980469 12.324219 C 0.980469 11.660156 1.4375 10.9375 2.015625 10.636719 C 2.582031 10.765625 4.355469 11.128906 6.625 11.128906 C 9.492188 11.128906 13.140625 10.550781 16.097656 8.1875 C 16.132812 8.160156 16.171875 8.160156 16.1875 8.160156 C 16.222656 8.167969 16.242188 8.191406 16.246094 8.199219 C 17.863281 10.609375 19.90625 11.46875 22.015625 10.65625 C 22.582031 10.964844 23.019531 11.671875 23.019531 12.324219 C 23.019531 13.050781 22.550781 13.703125 21.855469 13.9375 Z M 21.855469 13.9375"/>
</svg>
