<svg xmlns="http://www.w3.org/2000/svg" width="32" height="32" viewBox="0 0 24 24">
    <path d="M 8.726562 8.726562 C 8.726562 9.632812 7.996094 10.363281 7.089844 10.363281 C 6.1875 10.363281 5.453125 9.632812 5.453125 8.726562 C 5.453125 7.824219 6.1875 7.089844 7.089844 7.089844 C 7.996094 7.089844 8.726562 7.824219 8.726562 8.726562 Z M 8.726562 8.726562"/>
    <path d="M10.910156 8.726562C10.910156 6.621094 9.195312 4.910156 7.089844 4.910156 4.984375 4.910156 3.273438 6.621094 3.273438 8.726562 3.273438 10.832031 4.984375 12.546875 7.089844 12.546875 9.195312 12.546875 10.910156 10.832031 10.910156 8.726562zM4.363281 8.726562C4.363281 7.222656 5.585938 6 7.089844 6 8.59375 6 9.816406 7.222656 9.816406 8.726562 9.816406 10.230469 8.59375 11.453125 7.089844 11.453125 5.585938 11.453125 4.363281 10.230469 4.363281 8.726562zM18.546875 8.726562C18.546875 9.632812 17.8125 10.363281 16.910156 10.363281 16.003906 10.363281 15.273438 9.632812 15.273438 8.726562 15.273438 7.824219 16.003906 7.089844 16.910156 7.089844 17.8125 7.089844 18.546875 7.824219 18.546875 8.726562zM18.546875 8.726562"/>
    <path d="M 16.910156 4.910156 C 14.804688 4.910156 13.089844 6.621094 13.089844 8.726562 C 13.089844 10.832031 14.804688 12.546875 16.910156 12.546875 C 19.015625 12.546875 20.726562 10.832031 20.726562 8.726562 C 20.726562 6.621094 19.015625 4.910156 16.910156 4.910156 Z M 16.910156 11.453125 C 15.40625 11.453125 14.183594 10.230469 14.183594 8.726562 C 14.183594 7.222656 15.40625 6 16.910156 6 C 18.414062 6 19.636719 7.222656 19.636719 8.726562 C 19.636719 10.230469 18.414062 11.453125 16.910156 11.453125 Z M 16.910156 11.453125"/>
    <path d="M 12 0 C 5.382812 0 0 5.382812 0 12 C 0 18.617188 5.382812 24 12 24 C 18.617188 24 24 18.617188 24 12 C 24 5.382812 18.617188 0 12 0 Z M 12 22.910156 C 5.984375 22.910156 1.089844 18.015625 1.089844 12 C 1.089844 5.984375 5.984375 1.089844 12 1.089844 C 18.015625 1.089844 22.910156 5.984375 22.910156 12 C 22.910156 18.015625 18.015625 22.910156 12 22.910156 Z M 12 22.910156"/>
    <path d="M 17.664062 14.769531 C 13.59375 13.074219 8.769531 14.957031 7.132812 18.882812 C 7.015625 19.160156 7.148438 19.476562 7.425781 19.59375 C 7.496094 19.625 7.566406 19.636719 7.636719 19.636719 C 7.851562 19.636719 8.050781 19.511719 8.140625 19.300781 C 9.546875 15.921875 13.71875 14.308594 17.246094 15.777344 C 17.523438 15.890625 17.84375 15.761719 17.957031 15.480469 C 18.074219 15.203125 17.941406 14.886719 17.664062 14.769531 Z M 17.664062 14.769531"/>
</svg>
