<svg xmlns="http://www.w3.org/2000/svg" width="32" height="32" viewBox="0 0 24 24">
    <path d="M9.273438 7.910156C9.273438 8.964844 8.417969 9.816406 7.363281 9.816406 6.308594 9.816406 5.453125 8.964844 5.453125 7.910156 5.453125 6.855469 6.308594 6 7.363281 6 8.417969 6 9.273438 6.855469 9.273438 7.910156zM18 7.910156C18 8.964844 17.144531 9.816406 16.089844 9.816406 15.035156 9.816406 14.183594 8.964844 14.183594 7.910156 14.183594 6.855469 15.035156 6 16.089844 6 17.144531 6 18 6.855469 18 7.910156zM18 7.910156"/>
    <path d="M 12 0 C 5.382812 0 0 5.382812 0 12 C 0 18.617188 5.382812 24 12 24 C 18.617188 24 24 18.617188 24 12 C 24 5.382812 18.617188 0 12 0 Z M 12 22.910156 C 5.984375 22.910156 1.089844 18.015625 1.089844 12 C 1.089844 5.984375 5.984375 1.089844 12 1.089844 C 18.015625 1.089844 22.910156 5.984375 22.910156 12 C 22.910156 18.015625 18.015625 22.910156 12 22.910156 Z M 12 22.910156"/>
    <path d="M 18 15.816406 L 6 15.816406 C 5.699219 15.816406 5.453125 16.0625 5.453125 16.363281 C 5.453125 16.664062 5.699219 16.910156 6 16.910156 L 18 16.910156 C 18.300781 16.910156 18.546875 16.664062 18.546875 16.363281 C 18.546875 16.0625 18.300781 15.816406 18 15.816406 Z M 18 15.816406"/>
</svg>
