<svg xmlns="http://www.w3.org/2000/svg" width="32" height="32" viewBox="0 0 24 24">
    <path d="M12 0C5.383 0 0 5.383 0 12s5.383 12 12 12 12-5.383 12-12S18.617 0 12 0zm0 22.91C5.984 22.91 1.09 18.016 1.09 12S5.984 1.09 12 1.09 22.91 5.984 22.91 12 18.016 22.91 12 22.91zm0 0"/>
    <path d="M18 15.816H6c-.3 0-.547.246-.547.547 0 .301.246.547.547.547h12c.3 0 .547-.246.547-.547 0-.3-.246-.547-.547-.547zm0 0M10.91 8.727A3.823 3.823 0 0 0 7.09 4.91a3.82 3.82 0 0 0-3.817 3.817c0 2.105 1.711 3.82 3.817 3.82a3.826 3.826 0 0 0 3.82-3.82zm-6.527.187a1.905 1.905 0 1 0 2.11-2.844c.19-.043.39-.07.597-.07a2.729 2.729 0 0 1 2.726 2.727 2.729 2.729 0 0 1-2.726 2.726 2.722 2.722 0 0 1-2.707-2.539zm0 0M16.91 4.91a3.823 3.823 0 0 0-3.82 3.817 3.826 3.826 0 0 0 3.82 3.82 3.823 3.823 0 0 0 3.817-3.82A3.82 3.82 0 0 0 16.91 4.91zm0 6.543a2.723 2.723 0 0 1-2.71-2.539c.34.54.933.902 1.616.902 1.055 0 1.91-.851 1.91-1.906 0-.883-.601-1.62-1.417-1.84.195-.043.394-.07.601-.07a2.729 2.729 0 0 1 2.727 2.727 2.729 2.729 0 0 1-2.727 2.726zm0 0"/>
</svg>
