<svg xmlns="http://www.w3.org/2000/svg" width="32" height="32" viewBox="0 0 24 24">
    <path d="M 12 0 C 5.382812 0 0 5.382812 0 12 C 0 18.617188 5.382812 24 12 24 C 18.617188 24 24 18.617188 24 12 C 24 5.382812 18.617188 0 12 0 Z M 12 22.910156 C 5.984375 22.910156 1.089844 18.015625 1.089844 12 C 1.089844 5.984375 5.984375 1.089844 12 1.089844 C 18.015625 1.089844 22.910156 5.984375 22.910156 12 C 22.910156 18.015625 18.015625 22.910156 12 22.910156 Z M 12 22.910156"/>
    <path d="M12 14.183594C10.195312 14.183594 8.726562 15.648438 8.726562 17.453125 8.726562 19.257812 10.195312 20.726562 12 20.726562 13.804688 20.726562 15.273438 19.257812 15.273438 17.453125 15.273438 15.648438 13.804688 14.183594 12 14.183594zM12 19.636719C10.796875 19.636719 9.816406 18.65625 9.816406 17.453125 9.816406 16.25 10.796875 15.273438 12 15.273438 13.203125 15.273438 14.183594 16.25 14.183594 17.453125 14.183594 18.65625 13.203125 19.636719 12 19.636719zM9.019531 11.425781C9.125 11.53125 9.265625 11.585938 9.40625 11.585938 9.542969 11.585938 9.683594 11.53125 9.789062 11.425781 10.003906 11.214844 10.003906 10.867188 9.789062 10.65625L7.863281 8.726562 9.789062 6.800781C10.003906 6.585938 10.003906 6.242188 9.789062 6.027344 9.578125 5.816406 9.230469 5.816406 9.019531 6.027344L7.089844 7.957031 5.164062 6.027344C4.949219 5.816406 4.605469 5.816406 4.390625 6.027344 4.179688 6.242188 4.179688 6.585938 4.390625 6.800781L6.320312 8.726562 4.390625 10.65625C4.179688 10.867188 4.179688 11.214844 4.390625 11.425781 4.496094 11.53125 4.636719 11.585938 4.777344 11.585938 4.917969 11.585938 5.054688 11.53125 5.164062 11.425781L7.089844 9.5zM19.476562 6.027344C19.261719 5.816406 18.917969 5.816406 18.707031 6.027344L16.777344 7.957031 14.847656 6.027344C14.632812 5.816406 14.289062 5.816406 14.078125 6.027344 13.863281 6.242188 13.863281 6.585938 14.078125 6.800781L16.003906 8.726562 14.078125 10.65625C13.863281 10.867188 13.863281 11.214844 14.078125 11.425781 14.183594 11.53125 14.324219 11.585938 14.460938 11.585938 14.601562 11.585938 14.742188 11.53125 14.847656 11.425781L16.777344 9.5 18.707031 11.425781C18.8125 11.53125 18.953125 11.585938 19.089844 11.585938 19.230469 11.585938 19.371094 11.53125 19.476562 11.425781 19.691406 11.214844 19.691406 10.867188 19.476562 10.65625L17.546875 8.726562 19.476562 6.800781C19.691406 6.585938 19.691406 6.242188 19.476562 6.027344zM19.476562 6.027344"/>
</svg>
