<svg xmlns="http://www.w3.org/2000/svg" width="32" height="32" viewBox="0 0 24 24">
    <path d="M12 0C5.383 0 0 5.383 0 12s5.383 12 12 12 12-5.383 12-12S18.617 0 12 0zm0 22.91C5.984 22.91 1.09 18.016 1.09 12S5.984 1.09 12 1.09 22.91 5.984 22.91 12 18.016 22.91 12 22.91zm0 0"/>
    <path d="M12 14.184a3.274 3.274 0 0 0-3.273 3.27A3.278 3.278 0 0 0 12 20.726a3.278 3.278 0 0 0 3.273-3.274A3.274 3.274 0 0 0 12 14.183zm0 5.453a2.187 2.187 0 0 1-2.184-2.184 2.184 2.184 0 0 1 4.368 0c0 1.203-.98 2.184-2.184 2.184zm0 0M9.02 11.426a.545.545 0 0 0 .77-.77l-1.927-1.93L9.79 6.802a.545.545 0 1 0-.77-.774l-1.93 1.93-1.925-1.93a.552.552 0 0 0-.773 0 .552.552 0 0 0 0 .774l1.93 1.926-1.93 1.93a.547.547 0 0 0 .386.929c.141 0 .278-.055.387-.16L7.09 9.5zm0 0M19.477 6.027a.547.547 0 0 0-.77 0l-1.93 1.93-1.93-1.93a.545.545 0 1 0-.77.773l1.927 1.927-1.926 1.93a.545.545 0 1 0 .77.77l1.93-1.927 1.929 1.926a.545.545 0 1 0 .77-.77l-1.93-1.93 1.93-1.925a.545.545 0 0 0 0-.774zm0 0"/>
</svg>
