<svg xmlns="http://www.w3.org/2000/svg" width="32" height="32" viewBox="0 0 24 24">
    <path d="M15.863 17.766a.406.406 0 1 0 0-.813c-.847 0-1.574.524-1.879 1.266-.511-.301-1.25-.453-1.984-.453s-1.473.152-1.984.453a2.034 2.034 0 0 0-1.88-1.266.406.406 0 1 0 0 .813 1.221 1.221 0 0 1 0 2.441.406.406 0 1 0 0 .813c.993 0 1.821-.72 1.997-1.665a.387.387 0 0 0 .035-.164c0-.18.645-.613 1.832-.613 1.188 0 1.832.434 1.832.613 0 .059.012.114.035.164a2.037 2.037 0 0 0 1.996 1.665.406.406 0 1 0 0-.813 1.22 1.22 0 0 1 0-2.441zm0 0M15.863 7.73c-1.57 0-2.847 1.551-2.847 3.457 0 1.907 1.277 3.458 2.847 3.458s2.848-1.551 2.848-3.457c0-1.907-1.277-3.458-2.848-3.458zm0 6.102c-1.12 0-2.031-1.187-2.031-2.645 0-1.457.91-2.644 2.031-2.644s2.035 1.187 2.035 2.645c0 1.457-.914 2.644-2.035 2.644zm0 0"/>
    <path d="M17.086 11.188c0-1.012-.547-1.833-1.223-1.833-.672 0-1.218.82-1.218 1.832s.546 1.829 1.218 1.829c.676 0 1.223-.817 1.223-1.829zm0 0M10.984 11.188c0-1.907-1.277-3.458-2.847-3.458s-2.848 1.551-2.848 3.457c0 1.907 1.277 3.458 2.848 3.458 1.57 0 2.847-1.551 2.847-3.457zm-4.882 0c0-1.458.914-2.645 2.035-2.645 1.12 0 2.031 1.187 2.031 2.645 0 1.457-.91 2.644-2.031 2.644s-2.035-1.187-2.035-2.645zm0 0"/>
    <path d="M9.355 11.188c0-1.012-.546-1.833-1.218-1.833-.676 0-1.223.82-1.223 1.832s.547 1.829 1.223 1.829c.672 0 1.218-.817 1.218-1.829zm0 0"/>
    <path d="M12 0C6.055 0 1.219 4.836 1.219 10.781v9.965c0 1.121.914 2.035 2.035 2.035h2.664l.059.024c1.425.672 3.144 1.074 5.101 1.172.043 0 .086.003.133.003.258.012.52.02.789.02.27 0 .531-.008.793-.02l.129-.003c1.957-.098 3.676-.5 5.101-1.172.02-.008.04-.016.059-.028h2.664c1.121 0 2.035-.91 2.035-2.03V10.78C22.781 4.836 17.945 0 12 0zm5.895 21.965l-.082.043c-1.153.558-2.524.922-4.036 1.082l-.332.035c-.16.012-.32.023-.484.031a15.386 15.386 0 0 1-2.406-.035c-.114-.008-.223-.02-.332-.031-1.512-.16-2.883-.524-4.036-1.082l-.082-.043h-.039c-2.59-1.309-4.03-3.621-4.03-6.711v-.004-.004c.003-5.226 4.39-9.695 9.76-9.957h.388c5.394.262 9.78 4.734 9.78 9.965 0 3.09-1.44 5.402-4.03 6.71zm-14.641 0a1.22 1.22 0 0 1-1.219-1.219v-1.719a7.663 7.663 0 0 0 2.5 2.938zm18.71-1.219a1.22 1.22 0 0 1-1.218 1.219h-1.281a7.663 7.663 0 0 0 2.5-2.938zm-9.76-16.273l-.427.004c-4.386.214-8.152 3.015-9.742 6.804v-.5C2.035 5.285 6.504.812 12 .812c5.496 0 9.965 4.473 9.965 9.97v.484c-1.594-3.782-5.363-6.579-9.762-6.793zm0 0"/>
</svg>
