<svg xmlns="http://www.w3.org/2000/svg" width="32" height="32" viewBox="0 0 24 24">
    <path d="M17.184 15.816a.545.545 0 0 0 0-1.09c-1.141 0-2.118.704-2.524 1.696-.683-.399-1.676-.606-2.66-.606-.984 0-1.977.207-2.66.606a2.729 2.729 0 0 0-2.524-1.695.545.545 0 0 0 0 1.09c.903 0 1.637.734 1.637 1.636 0 .902-.734 1.637-1.637 1.637-.3 0-.543.246-.543.547 0 .3.243.547.543.547a2.73 2.73 0 0 0 2.68-2.235.518.518 0 0 0 .05-.222c0-.239.86-.817 2.454-.817 1.594 0 2.453.578 2.453.817 0 .082.02.156.05.222a2.73 2.73 0 0 0 2.68 2.235c.301 0 .544-.247.544-.547 0-.301-.243-.547-.543-.547a1.639 1.639 0 0 1-1.637-1.637c0-.902.734-1.637 1.637-1.637zm0 0M8.727 8.727a1.636 1.636 0 1 1-3.274 0 1.636 1.636 0 0 1 3.274 0zm0 0"/>
    <path d="M10.91 8.727A3.823 3.823 0 0 0 7.09 4.91a3.82 3.82 0 0 0-3.817 3.817c0 2.105 1.711 3.82 3.817 3.82a3.826 3.826 0 0 0 3.82-3.82zm-6.547 0A2.729 2.729 0 0 1 7.09 6a2.729 2.729 0 0 1 2.726 2.727 2.729 2.729 0 0 1-2.726 2.726 2.729 2.729 0 0 1-2.727-2.726zm0 0M18.547 8.727a1.636 1.636 0 1 1-3.273 0 1.636 1.636 0 0 1 3.273 0zm0 0"/>
    <path d="M16.91 4.91a3.823 3.823 0 0 0-3.82 3.817 3.826 3.826 0 0 0 3.82 3.82 3.823 3.823 0 0 0 3.817-3.82A3.82 3.82 0 0 0 16.91 4.91zm0 6.543a2.729 2.729 0 0 1-2.726-2.726A2.729 2.729 0 0 1 16.91 6a2.729 2.729 0 0 1 2.727 2.727 2.729 2.729 0 0 1-2.727 2.726zm0 0"/>
    <path d="M12 0C5.383 0 0 5.383 0 12s5.383 12 12 12 12-5.383 12-12S18.617 0 12 0zm0 22.91C5.984 22.91 1.09 18.016 1.09 12S5.984 1.09 12 1.09 22.91 5.984 22.91 12 18.016 22.91 12 22.91zm0 0"/>
</svg>
