<svg xmlns="http://www.w3.org/2000/svg" width="32" height="32" viewBox="0 0 24 24">
    <path d="M8.727 8.727a1.636 1.636 0 1 1-3.274 0 1.636 1.636 0 0 1 3.274 0zm0 0"/>
    <path d="M7.09 4.91a3.82 3.82 0 0 0-3.817 3.817c0 2.105 1.711 3.82 3.817 3.82a3.826 3.826 0 0 0 3.82-3.82A3.823 3.823 0 0 0 7.09 4.91zm0 6.543a2.729 2.729 0 0 1-2.727-2.726A2.729 2.729 0 0 1 7.09 6a2.729 2.729 0 0 1 2.726 2.727 2.729 2.729 0 0 1-2.726 2.726zm0 0M18.547 8.727a1.636 1.636 0 1 1-3.273 0 1.636 1.636 0 0 1 3.273 0zm0 0"/>
    <path d="M16.91 4.91a3.823 3.823 0 0 0-3.82 3.817 3.826 3.826 0 0 0 3.82 3.82 3.823 3.823 0 0 0 3.817-3.82A3.82 3.82 0 0 0 16.91 4.91zm0 6.543a2.729 2.729 0 0 1-2.726-2.726A2.729 2.729 0 0 1 16.91 6a2.729 2.729 0 0 1 2.727 2.727 2.729 2.729 0 0 1-2.727 2.726zm0 0"/>
    <path d="M12 0C5.383 0 0 5.383 0 12s5.383 12 12 12 12-5.383 12-12S18.617 0 12 0zm0 22.91C5.984 22.91 1.09 18.016 1.09 12S5.984 1.09 12 1.09 22.91 5.984 22.91 12 18.016 22.91 12 22.91zm0 0"/>
</svg>
