<svg xmlns="http://www.w3.org/2000/svg" width="32" height="32" viewBox="0 0 24 24">
    <path d="M14.8 16H10a1.4 1.4 0 0 0 0 2.8h4.8c.77 0 1.4-.628 1.4-1.402 0-.77-.63-1.398-1.4-1.398zm0 2H10a.602.602 0 0 1-.602-.602c0-.328.27-.597.602-.597h4.8a.6.6 0 0 1 0 1.199zm0 0"/>
    <path d="M20.61 12.684v-.278l2.55 1.914c.07.055.156.078.238.078a.399.399 0 0 0 .242-.719l-3.027-2.269v-.625l2.157 1.54a.397.397 0 0 0 .555-.094.393.393 0 0 0-.095-.555L20.887 10c.43-.008.793-.102 1.086-.324.422-.324.629-.86.629-1.649 0-3.32-3.641-7.125-8.602-7.886l-.074-.012c-.258-.04-.516-.067-.778-.09-.046-.004-.093-.008-.14-.008-.27-.02-.535-.031-.809-.031-.27 0-.539.012-.804.031-.043.004-.09.004-.133.008a13.3 13.3 0 0 0-.793.09c-.008 0-.02.004-.031.004C5.457.883 1.8 4.699 1.8 8.027c0 .79.203 1.325.625 1.649.293.222.656.316 1.086.324l-2.344 1.676a.395.395 0 0 0-.094.554.404.404 0 0 0 .559.094l2.164-1.543v.625l-3.442 2.68a.395.395 0 0 0-.07.559.398.398 0 0 0 .317.156.375.375 0 0 0 .242-.086l2.949-2.293v.258L.676 16.965a.402.402 0 1 0 .324.637.397.397 0 0 0 .324-.168l1.746-2.399-2.05 6.445a.4.4 0 0 0 .378.52c.172 0 .329-.11.383-.277l2.012-6.32-.008 4.995c0 1.106.899 2 2 2h.817v.68c0 .508.41.922.921.922h9.356a.924.924 0 0 0 .922-.922v-.68h.8a2 2 0 0 0 2-1.996s.004-2.418.004-5.004l2.012 6.325a.406.406 0 0 0 .504.257.4.4 0 0 0 .262-.5l-2.051-6.445 1.746 2.399c.078.109.2.168.324.168a.403.403 0 0 0 .32-.637zm-7.817-1.559l-.121.074h-.535l-.14-.078a8.077 8.077 0 0 0-7.4-.3v-.938c.126-.024.25-.055.383-.082l.094-.024c.125-.027.25-.058.383-.093.04-.008.082-.02.125-.032.094-.023.188-.05.285-.074.192-.05.39-.105.598-.164.23-.062.469-.125.71-.191 1.473-.391 3.2-.793 5.024-.793 1.809 0 3.528.394 4.989.785.253.066.503.133.746.2.253.07.492.136.726.194.05.016.11.032.16.043.075.02.145.04.215.055.086.023.168.043.25.063l.156.035c.106.023.207.047.309.066.02.004.043.012.063.016v.02a.399.399 0 0 0 0 .179v.723a7.35 7.35 0 0 0-7.02.316zm7.004.574c-.027 1.473-.356 2.477-1.7 2.63-1.808.206-3.117-.036-3.882-.72-.496-.441-.77-1.086-.809-1.914a6.542 6.542 0 0 1 6.39.004zm-8.402.004c-.043.793-.313 1.414-.801 1.856-.809.722-2.215.98-4.18.77-1.437-.157-1.781-1.114-1.812-2.626a7.303 7.303 0 0 1 6.793 0zM13 .832c.02.004.043.004.066.004.012 0 .02.004.032.004a12.918 12.918 0 0 1 .808.098c1.106.18 2.18.53 3.172 1.023.016.008.027.016.043.02.223.113.445.238.66.367l.098.058c.207.125.406.258.601.395.016.011.036.023.051.035-1.847-.5-4.07-1.05-6.468-1.05-2.208 0-4.27.468-6.024.933A11.052 11.052 0 0 1 11.352.836c.023 0 .05-.004.078-.004a10.135 10.135 0 0 1 1.57 0zM3.48 5.309c.06-.094.122-.188.188-.278.027-.043.055-.086.086-.129.082-.109.164-.218.254-.324a8.85 8.85 0 0 1 .18-.219c.03-.039.066-.074.101-.113.09-.101.184-.203.281-.3.239-.067.48-.13.735-.2 1.89-.516 4.246-1.16 6.758-1.16 2.507 0 4.863.64 6.757 1.16.387.106.754.203 1.102.293.254.266.484.54.691.82l.035.051c.055.07.106.145.153.219l.129.195c.023.043.05.082.074.121-.578-.12-1.242-.3-1.973-.5-1.941-.53-4.351-1.187-6.968-1.187-2.618 0-5.032.656-6.973 1.187-.602.164-1.152.317-1.649.43.012-.02.028-.043.04-.066zm-.57 3.73c-.207-.16-.308-.492-.308-1.012 0-.566.128-1.156.37-1.738.68-.125 1.45-.332 2.329-.57 1.894-.52 4.25-1.164 6.761-1.164 2.508 0 4.864.644 6.758 1.164 1.004.273 1.88.508 2.625.613.23.57.356 1.145.356 1.695 0 .52-.102.852-.313 1.012-.246.188-.687.195-1.25.106-.078-.012-.156-.028-.238-.043-.078-.016-.156-.028-.242-.047-.043-.008-.094-.024-.14-.032-.45-.101-.942-.234-1.466-.378l-.761-.207a1.027 1.027 0 0 1-.051-.012h-.004c-1.496-.399-3.25-.797-5.137-.797-1.91 0-3.687.41-5.199.812h-.004l-.035.012c-.246.063-.484.129-.715.192a33.199 33.199 0 0 1-1.601.41c-.086.02-.16.03-.239.047a7.943 7.943 0 0 1-.238.043c-.566.09-1.012.082-1.258-.106zM17 23.08a.122.122 0 0 1-.121.12H7.523a.123.123 0 0 1-.125-.12v-.68H17zm1.602-1.477H5.785c-.66 0-1.2-.54-1.2-1.2l.009-6.078c.375.406.922.711 1.734.801.465.05.902.074 1.317.074 1.539 0 2.707-.351 3.48-1.047.598-.535.945-1.261 1.043-2.152h.46c.099.922.45 1.664 1.056 2.207.738.66 1.832.992 3.254.992.394 0 .808-.023 1.25-.074.75-.086 1.265-.375 1.62-.762l-.007 6.035c0 .665-.54 1.204-1.2 1.204zm0 0"/>
    <path d="M7.281 11.316a.396.396 0 0 0-.562 0l-1.203 1.2a.4.4 0 0 0 .566.566l1.2-1.2a.4.4 0 0 0 0-.566zm0 0M7.117 13.883a.399.399 0 0 0 .566 0l2-2a.4.4 0 0 0-.566-.567l-2 2a.4.4 0 0 0 0 .567zm0 0M14.316 13.082a.399.399 0 0 0 .567 0l1.199-1.2a.4.4 0 0 0-.566-.566l-1.2 1.2a.4.4 0 0 0 0 .566zm0 0M15.918 13.883c.078.078.18.117.281.117.102 0 .207-.04.285-.117l2-2a.4.4 0 0 0-.566-.567l-2 2a.4.4 0 0 0 0 .567zm0 0M18.484 19.086a.442.442 0 0 0 .118-.285.426.426 0 0 0-.118-.285.42.42 0 0 0-.57 0 .423.423 0 0 0-.113.285c0 .101.043.207.113.285a.43.43 0 0 0 .285.113c.11 0 .207-.043.285-.113zm0 0M18.2 18c.109 0 .21-.043.284-.117a.424.424 0 0 0 .118-.281c0-.11-.047-.211-.118-.282a.417.417 0 0 0-.57-.004.415.415 0 0 0-.113.286.42.42 0 0 0 .113.28c.078.075.18.118.285.118zm0 0M19.398 18a.402.402 0 0 0 .286-.684.416.416 0 0 0-.567 0 .395.395 0 0 0-.117.286.4.4 0 0 0 .398.398zm0 0M19.117 18.516A.409.409 0 0 0 19 18.8c0 .101.043.207.117.285a.413.413 0 0 0 .567 0 .416.416 0 0 0 .117-.285.409.409 0 0 0-.117-.285.416.416 0 0 0-.567 0zm0 0M18.316 19.715A.416.416 0 0 0 18.2 20c0 .11.043.207.117.285.075.07.18.113.286.113a.42.42 0 0 0 .28-.113A.409.409 0 0 0 19 20a.416.416 0 0 0-.117-.285.416.416 0 0 0-.567 0zm0 0M17.117 19.715A.416.416 0 0 0 17 20c0 .11.043.207.117.285a.42.42 0 0 0 .281.113c.106 0 .211-.043.286-.113A.416.416 0 0 0 17.8 20a.416.416 0 0 0-.117-.285.416.416 0 0 0-.567 0zm0 0M17.285 19.086a.438.438 0 0 0 .113-.285.423.423 0 0 0-.113-.285.42.42 0 0 0-.57 0 .423.423 0 0 0-.113.285c0 .101.043.207.113.285a.415.415 0 0 0 .57 0zm0 0M15.914 19.715a.43.43 0 0 0-.113.285.43.43 0 0 0 .113.285c.078.07.184.113.285.113a.43.43 0 0 0 .285-.113.434.434 0 0 0 .118-.285.434.434 0 0 0-.118-.285.42.42 0 0 0-.57 0zm0 0M14.715 19.715a.43.43 0 0 0-.113.285.43.43 0 0 0 .113.285.43.43 0 0 0 .285.113c.11 0 .207-.043.285-.113a.43.43 0 0 0 .113-.285.43.43 0 0 0-.113-.285.42.42 0 0 0-.57 0zm0 0M13.516 19.715a.434.434 0 0 0-.118.285c0 .105.047.207.118.285a.43.43 0 0 0 .285.113.438.438 0 0 0 .285-.113.423.423 0 0 0 .113-.285.43.43 0 0 0-.113-.285.42.42 0 0 0-.57 0zm0 0M6.883 18.516a.416.416 0 0 0-.567 0 .409.409 0 0 0-.117.285c0 .101.043.207.117.285a.413.413 0 0 0 .566 0A.423.423 0 0 0 7 18.8a.409.409 0 0 0-.117-.285zm0 0M6.602 18a.4.4 0 0 0 .28-.684.415.415 0 0 0-.562 0 .39.39 0 0 0-.12.286.395.395 0 0 0 .402.398zm0 0M5.398 18a.402.402 0 0 0 .286-.684.416.416 0 0 0-.567 0 .4.4 0 0 0 .281.684zm0 0M5.684 18.516a.416.416 0 0 0-.567 0A.409.409 0 0 0 5 18.8c0 .105.043.207.117.285a.42.42 0 0 0 .281.113c.11 0 .211-.043.286-.113A.423.423 0 0 0 5.8 18.8a.409.409 0 0 0-.117-.285zm0 0M5.914 19.715a.43.43 0 0 0-.113.285.43.43 0 0 0 .113.285c.078.07.184.113.285.113a.43.43 0 0 0 .285-.113.434.434 0 0 0 .118-.285.434.434 0 0 0-.118-.285.42.42 0 0 0-.57 0zm0 0M7.117 19.715A.416.416 0 0 0 7 20c0 .105.043.207.117.285a.42.42 0 0 0 .281.113c.106 0 .211-.043.286-.113A.416.416 0 0 0 7.8 20a.416.416 0 0 0-.117-.285.416.416 0 0 0-.567 0zm0 0M8.086 18.516a.42.42 0 0 0-.57 0 .426.426 0 0 0-.118.285c0 .105.047.207.118.285.078.07.175.113.285.113a.43.43 0 0 0 .285-.113.438.438 0 0 0 .113-.285.423.423 0 0 0-.113-.285zm0 0M8.316 19.715a.4.4 0 0 0 .285.684.413.413 0 0 0 .282-.114A.416.416 0 0 0 9 20a.416.416 0 0 0-.117-.285.416.416 0 0 0-.567 0zm0 0M9.914 19.715a.43.43 0 0 0-.113.285c0 .105.043.207.113.281.078.074.18.117.285.117.11 0 .207-.043.285-.113a.434.434 0 0 0 .118-.285.434.434 0 0 0-.118-.285.42.42 0 0 0-.57 0zm0 0M11.117 19.715A.416.416 0 0 0 11 20c0 .105.043.207.117.285a.42.42 0 0 0 .281.113c.106 0 .211-.043.286-.113A.416.416 0 0 0 11.8 20a.416.416 0 0 0-.117-.285.416.416 0 0 0-.567 0zm0 0M12.316 19.715A.416.416 0 0 0 12.2 20c0 .11.043.207.117.285.075.07.18.113.286.113a.42.42 0 0 0 .28-.113A.416.416 0 0 0 13 20a.416.416 0 0 0-.117-.285.416.416 0 0 0-.567 0zm0 0"/>
</svg>
