<svg xmlns="http://www.w3.org/2000/svg" width="32" height="32" viewBox="0 0 24 24">
    <path d="M9.316 12.676a.399.399 0 0 0 .566 0 .4.4 0 0 0 0-.567L8.47 10.695l1.414-1.414a.4.4 0 0 0-.567-.566l-1.414 1.414-1.414-1.414a.4.4 0 0 0-.566.566l1.414 1.414-1.414 1.414a.4.4 0 0 0 .566.567l1.414-1.414zm0 0M18.684 8.715a.4.4 0 0 0-.567 0l-1.414 1.414-1.414-1.414a.4.4 0 0 0-.566.566l1.414 1.414-1.414 1.414a.4.4 0 0 0 .566.567l1.414-1.414 1.414 1.414c.078.078.18.117.281.117a.4.4 0 0 0 .285-.684l-1.417-1.414 1.418-1.414a.4.4 0 0 0 0-.566zm0 0M12 14.793a4.805 4.805 0 0 0-4.8 4.8.401.401 0 0 0 .8 0c0-2.206 1.793-4 4-4 2.203 0 4 1.794 4 4a.4.4 0 0 0 .8 0c0-2.648-2.155-4.8-4.8-4.8zm0 0"/>
    <path d="M23.918 10.625c-.16-.676-.547-1.262-1.031-1.559-.325-.199-.672-.265-1.004-.183a.916.916 0 0 0-.219.078c-.934-2.274-2.39-3.746-3.89-4.695l.542-1.086a.401.401 0 0 0-.175-.54.402.402 0 0 0-.54.18l-.519 1.043c-.25-.133-.492-.25-.734-.36l.39-1.179a.4.4 0 1 0-.758-.25l-.378 1.137a11.849 11.849 0 0 0-.805-.258l.344-1.027a.4.4 0 0 0-.254-.508.395.395 0 0 0-.504.254l-.363 1.09a12.012 12.012 0 0 0-1.262-.196v-.765a.398.398 0 1 0-.797 0v.734c-.211.012-.578.04-1.055.113l-.152-.914a.396.396 0 0 0-.461-.328.398.398 0 0 0-.328.457l.156.938c-.43.094-.906.23-1.402.406l-.38-1.133a.4.4 0 0 0-.76.25l.394 1.18c-.344.152-.696.328-1.047.531l-.61-1.215a.402.402 0 0 0-.535-.18.403.403 0 0 0-.18.54l.641 1.28c-.351.24-.699.513-1.039.817l-.96-.96a.4.4 0 0 0-.567.566l.957.953c-1.23 1.309-2.258 3.137-2.73 5.687-.008.032-.012.067-.016.098a1.21 1.21 0 0 0-.313-.047c-.883 0-1.574.953-1.574 2.168 0 1.219.691 2.172 1.574 2.172.164 0 .32-.043.473-.105a8.885 8.885 0 0 0 1.383 2.949c1.297 1.789 3.87 3.918 8.726 3.84.074.004.145.004.219.004 4.719 0 7.23-2.082 8.508-3.844 1.152-1.586 1.738-3.578 1.691-5.63.016 0 .028.005.043.005.09 0 .18-.008.27-.031.855-.204 1.312-1.293 1.031-2.477zM1.871 14.996a.477.477 0 0 1-.297.117c-.367 0-.773-.562-.773-1.37 0-.806.406-1.368.773-1.368a.44.44 0 0 1 .203.055c-.02.215-.03.425-.039.64v.04c-.004.18-.004.355 0 .53.004.055.004.11.008.165.008.144.016.289.031.43l.012.167c.02.176.043.352.07.524l.012.07zm18.363 3.293c-1.726 2.379-4.437 3.574-8.074 3.512h-.008c-3.64.043-6.347-1.133-8.074-3.512-.824-1.137-1.332-2.504-1.492-3.945-.004-.031-.004-.063-.008-.094-.02-.23-.035-.46-.039-.691-.004-.098 0-.2 0-.301a10.2 10.2 0 0 1 .047-.844c.027-.246.055-.496.102-.746.437-2.371 1.374-4.066 2.492-5.281l.496.496a.399.399 0 0 0 .566 0 .4.4 0 0 0 0-.567l-.492-.492a9.26 9.26 0 0 1 .836-.672l.215.426a.4.4 0 0 0 .535.18c.2-.098.277-.34.18-.535l-.254-.504c.32-.188.636-.352.949-.489l.168.497a.397.397 0 0 0 .504.253.4.4 0 0 0 .254-.507l-.18-.543c.457-.16.895-.282 1.29-.368l.116.704a.402.402 0 0 0 .395.336c.02 0 .043-.004.066-.008a.398.398 0 0 0 .328-.457l-.12-.719c.413-.059.73-.078.925-.086v.867a.401.401 0 0 0 .8 0v-.844c.27.024.614.067 1.013.141l-.192.578a.398.398 0 1 0 .758.25l.219-.648c.258.07.527.152.804.254l-.18.543c-.07.21.044.437.25.504a.397.397 0 0 0 .508-.25l.168-.5c.207.093.422.199.637.312l-.344.68a.406.406 0 0 0 .36.582c.144 0 .289-.082.36-.223l.312-.629c1.406.918 2.77 2.348 3.61 4.586l-.005.004.074.207c.102.293.192.586.274.883.012.035.02.074.031.11.078.304.148.613.207.929.05.266.082.535.11.8.003.048.011.09.015.137.172 2.067-.36 4.098-1.512 5.684zm2.465-5.965a.443.443 0 0 1-.176 0c0-.015-.003-.031-.003-.047-.028-.25-.063-.504-.11-.754a14.382 14.382 0 0 0-.195-.894c-.008-.031-.02-.066-.027-.102a17.305 17.305 0 0 0-.235-.789c-.004-.008-.004-.015-.008-.023a.322.322 0 0 1 .125-.055c.153-.039.301.027.399.086.3.188.558.594.672 1.063.183.789-.086 1.43-.442 1.515zm0 0"/>
</svg>
