<svg xmlns="http://www.w3.org/2000/svg" width="32" height="32" viewBox="0 0 24 24">
    <path d="M12.117188 16.675781C11.011719 16.675781 10.117188 17.574219 10.117188 18.675781 10.117188 19.777344 11.011719 20.675781 12.117188 20.675781 13.21875 20.675781 14.117188 19.777344 14.117188 18.675781 14.117188 17.574219 13.21875 16.675781 12.117188 16.675781zM12.117188 19.875C11.453125 19.875 10.914062 19.335938 10.914062 18.675781 10.914062 18.015625 11.453125 17.476562 12.117188 17.476562 12.777344 17.476562 13.316406 18.015625 13.316406 18.675781 13.316406 19.335938 12.777344 19.875 12.117188 19.875zM15.71875 9.59375C14.171875 9.59375 12.917969 10.851562 12.917969 12.394531 12.917969 13.941406 14.171875 15.195312 15.71875 15.195312 17.261719 15.195312 18.519531 13.941406 18.519531 12.394531 18.519531 10.851562 17.261719 9.59375 15.71875 9.59375zM15.71875 14.394531C14.613281 14.394531 13.71875 13.5 13.71875 12.394531 13.71875 11.292969 14.613281 10.394531 15.71875 10.394531 16.820312 10.394531 17.71875 11.292969 17.71875 12.394531 17.71875 13.5 16.820312 14.394531 15.71875 14.394531zM15.71875 14.394531"/>
    <path d="M16.519531 12.394531C16.519531 12.835938 16.160156 13.195312 15.71875 13.195312 15.277344 13.195312 14.917969 12.835938 14.917969 12.394531 14.917969 11.953125 15.277344 11.59375 15.71875 11.59375 16.160156 11.59375 16.519531 11.953125 16.519531 12.394531zM11.316406 12.394531C11.316406 10.851562 10.058594 9.59375 8.515625 9.59375 6.96875 9.59375 5.714844 10.851562 5.714844 12.394531 5.714844 13.941406 6.96875 15.195312 8.515625 15.195312 10.058594 15.195312 11.316406 13.941406 11.316406 12.394531zM8.515625 14.394531C7.410156 14.394531 6.515625 13.5 6.515625 12.394531 6.515625 11.292969 7.410156 10.394531 8.515625 10.394531 9.617188 10.394531 10.515625 11.292969 10.515625 12.394531 10.515625 13.5 9.617188 14.394531 8.515625 14.394531zM8.515625 14.394531"/>
    <path d="M 9.316406 12.394531 C 9.316406 12.835938 8.957031 13.195312 8.515625 13.195312 C 8.074219 13.195312 7.714844 12.835938 7.714844 12.394531 C 7.714844 11.953125 8.074219 11.59375 8.515625 11.59375 C 8.957031 11.59375 9.316406 11.953125 9.316406 12.394531 Z M 9.316406 12.394531"/>
    <path d="M 22.515625 7.539062 C 22.289062 5.90625 21.585938 4.496094 20.585938 3.671875 C 20.328125 3.457031 20.140625 3.125 20.023438 2.679688 C 19.695312 1.394531 18.484375 0.496094 16.945312 0.390625 C 16.089844 0.332031 15.347656 0.597656 14.535156 0.925781 C 14.503906 0.9375 14.472656 0.9375 14.421875 0.90625 C 14.257812 0.460938 13.878906 0.15625 13.359375 0.046875 C 12.15625 -0.207031 10.304688 0.570312 8.816406 1.925781 C 8.820312 1.570312 8.894531 1.25 9.09375 1.148438 L 9.769531 0.8125 L 9.113281 0.441406 C 8.417969 0.0507812 6.742188 -0.371094 5.375 0.820312 C 4.882812 1.253906 4.519531 1.859375 4.335938 2.570312 C 4.296875 2.71875 4.261719 2.875 4.226562 3.027344 C 4.210938 3.09375 4.15625 3.113281 4.132812 3.121094 C 4.089844 3.128906 4.054688 3.121094 4.015625 3.070312 C 3.800781 2.808594 3.476562 2.683594 3.144531 2.730469 C 2.828125 2.773438 2.558594 2.976562 2.433594 3.273438 C 1.644531 5.101562 0.171875 9.753906 3.3125 13.734375 L 3.3125 20.398438 C 3.3125 21.5 4.210938 22.398438 5.3125 22.398438 L 6.515625 22.398438 L 6.515625 23.078125 C 6.515625 23.585938 6.929688 24 7.4375 24 L 16.796875 24 C 17.304688 24 17.71875 23.585938 17.71875 23.078125 L 17.71875 22.398438 L 18.917969 22.398438 C 20.023438 22.398438 20.917969 21.5 20.917969 20.398438 L 20.917969 13.753906 C 21.386719 13.226562 23.011719 11.109375 22.515625 7.539062 Z M 3.167969 3.589844 C 3.175781 3.574219 3.195312 3.53125 3.257812 3.519531 C 3.28125 3.519531 3.34375 3.515625 3.386719 3.570312 L 3.414062 3.601562 C 3.636719 3.867188 3.984375 3.980469 4.324219 3.898438 C 4.667969 3.8125 4.929688 3.546875 5.007812 3.203125 C 5.039062 3.058594 5.074219 2.910156 5.109375 2.773438 C 5.253906 2.21875 5.527344 1.75 5.902344 1.421875 C 6.742188 0.691406 7.671875 0.785156 8.222656 0.945312 C 8.023438 1.324219 7.964844 1.859375 8.054688 2.511719 C 8.085938 2.726562 8.234375 2.902344 8.441406 2.96875 C 8.648438 3.039062 8.875 2.984375 9.03125 2.828125 C 10.554688 1.28125 12.3125 0.644531 13.191406 0.832031 C 13.570312 0.910156 13.648438 1.121094 13.671875 1.1875 C 13.753906 1.398438 13.910156 1.5625 14.121094 1.65625 C 14.34375 1.753906 14.601562 1.757812 14.832031 1.667969 C 15.578125 1.371094 16.199219 1.144531 16.890625 1.191406 C 17.835938 1.257812 18.953125 1.734375 19.25 2.878906 C 19.40625 3.492188 19.683594 3.964844 20.074219 4.289062 C 20.476562 4.621094 21.441406 5.609375 21.722656 7.648438 C 22.03125 9.871094 21.445312 11.457031 20.917969 12.375 L 20.917969 6.894531 L 20.316406 7.25 C 19.332031 7.828125 18.472656 8.003906 17.761719 7.773438 C 17.652344 7.738281 17.546875 7.695312 17.453125 7.644531 C 17.414062 7.625 17.378906 7.597656 17.34375 7.574219 C 17.292969 7.542969 17.234375 7.511719 17.191406 7.476562 C 17.144531 7.445312 17.109375 7.410156 17.070312 7.378906 C 17.039062 7.351562 17 7.324219 16.972656 7.292969 C 16.929688 7.25 16.894531 7.210938 16.855469 7.167969 C 16.835938 7.148438 16.8125 7.125 16.796875 7.105469 C 16.753906 7.054688 16.722656 7.011719 16.6875 6.964844 C 16.679688 6.953125 16.667969 6.941406 16.660156 6.929688 C 16.625 6.875 16.59375 6.828125 16.570312 6.789062 C 16.570312 6.785156 16.566406 6.78125 16.566406 6.78125 C 16.511719 6.695312 16.488281 6.636719 16.484375 6.632812 L 16.398438 6.429688 L 16.179688 6.398438 C 12.339844 5.804688 10.472656 7.414062 9.949219 7.972656 C 7.160156 7.671875 5.953125 6.871094 5.941406 6.863281 L 5.644531 6.660156 L 5.410156 6.933594 C 4.785156 7.65625 4.066406 8.027344 3.574219 8.207031 L 3.3125 8.304688 L 3.3125 12.332031 C 1.351562 9.054688 2.339844 5.515625 3.167969 3.589844 Z M 16.917969 23.078125 C 16.917969 23.144531 16.863281 23.199219 16.796875 23.199219 L 7.4375 23.199219 C 7.371094 23.199219 7.316406 23.144531 7.316406 23.078125 L 7.316406 22.398438 L 16.917969 22.398438 Z M 20.121094 20.398438 C 20.121094 21.058594 19.582031 21.597656 18.917969 21.597656 L 5.3125 21.597656 C 4.652344 21.597656 4.113281 21.058594 4.113281 20.398438 L 4.113281 8.855469 C 4.605469 8.640625 5.222656 8.285156 5.792969 7.699219 C 6.355469 7.992188 7.714844 8.5625 10.078125 8.792969 L 10.304688 8.8125 L 10.4375 8.632812 C 10.453125 8.609375 11.957031 6.632812 15.859375 7.160156 C 16.066406 7.515625 16.578125 8.230469 17.503906 8.53125 C 18.285156 8.789062 19.160156 8.695312 20.117188 8.253906 L 20.117188 20.398438 Z M 20.121094 20.398438"/>
</svg>
