<svg xmlns="http://www.w3.org/2000/svg" width="32" height="32" viewBox="0 0 24 24">
    <path d="M16.54 16.004a.402.402 0 0 0-.403.402.73.73 0 0 1-.012.133 5.958 5.958 0 0 0-4.258-.258 5.971 5.971 0 0 0-3.3 2.57.697.697 0 0 1-.032-.206.401.401 0 0 0-.8 0c0 .84.683 1.523 1.519 1.523a.401.401 0 0 0 0-.8c-.02 0-.035-.005-.055-.009a5.145 5.145 0 0 1 2.906-2.312 5.15 5.15 0 0 1 3.332.078h-.019a.401.401 0 0 0 0 .8c.836 0 1.52-.683 1.52-1.519a.401.401 0 0 0-.399-.402zm0 0M11.336 12.004c0-1.543-1.258-2.8-2.8-2.8a2.803 2.803 0 0 0-2.802 2.8c0 1.543 1.254 2.8 2.801 2.8 1.543 0 2.8-1.257 2.8-2.8zm-.8 0c0 .137-.016.27-.04.398H9.223a.775.775 0 0 0 .113-.398.79.79 0 0 0-.113-.402h1.273c.024.132.04.265.04.402zm-2-2c.648 0 1.222.316 1.589.8h-3.18c.364-.484.938-.8 1.59-.8zm-1.962 1.598h1.27a.826.826 0 0 0-.11.402c0 .144.043.281.11.398h-1.27a1.915 1.915 0 0 1-.039-.398c0-.137.012-.27.04-.402zm.371 1.601h3.18c-.367.485-.941.8-1.59.8a1.982 1.982 0 0 1-1.59-.8zm0 0M15.738 9.203a2.803 2.803 0 0 0-2.8 2.8c0 1.544 1.253 2.802 2.8 2.802 1.543 0 2.801-1.258 2.801-2.801 0-1.543-1.258-2.8-2.8-2.8zm0 .8c.649 0 1.223.317 1.59.802h-3.183c.367-.485.94-.801 1.593-.801zm2 2c0 .138-.015.27-.039.4h-1.273a.775.775 0 0 0 .113-.4.79.79 0 0 0-.113-.401h1.273c.024.132.04.265.04.402zm-3.96-.401h1.269a.826.826 0 0 0-.11.402c0 .144.043.281.11.398h-1.27a1.915 1.915 0 0 1 0-.8zm1.96 2.402a1.982 1.982 0 0 1-1.59-.8h3.18c-.367.483-.941.8-1.59.8zm0 0"/>
    <path d="M22.516 7.54c-.227-1.634-.93-3.044-1.93-3.868-.258-.215-.45-.547-.563-.992-.332-1.285-1.539-2.184-3.078-2.29-.851-.054-1.597.208-2.414.536-.027.011-.058.008-.11-.02-.167-.445-.542-.75-1.062-.86-1.203-.253-3.054.524-4.543 1.88 0-.36.075-.676.278-.778L9.77.813 9.11.44c-.696-.39-2.368-.816-3.735.38-.496.433-.855 1.038-1.04 1.75-.038.148-.077.304-.108.456-.016.067-.07.086-.094.094-.043.008-.078-.004-.121-.05a.955.955 0 0 0-.867-.344.91.91 0 0 0-.711.546c-.79 1.829-2.262 6.48.878 10.461v6.664c0 1.102.899 2 2 2h1.204v.68c0 .508.414.922.921.922h9.36a.924.924 0 0 0 .922-.922v-.68h1.199c1.105 0 2-.898 2-2v-6.644c.469-.527 2.09-2.645 1.598-6.215zM3.168 3.59c.008-.016.023-.059.09-.07.02 0 .086-.004.156.082.223.265.57.378.906.296a.925.925 0 0 0 .688-.695c.031-.144.066-.293.101-.43.145-.554.418-1.023.793-1.351.84-.73 1.77-.637 2.32-.477-.199.38-.257.914-.167 1.567.03.215.18.39.386.457.207.07.434.015.59-.14C10.555 1.28 12.31.644 13.191.831c.38.078.457.285.48.356.079.21.24.375.45.468.223.098.48.102.707.012.75-.297 1.375-.527 2.063-.477.945.063 2.062.543 2.359 1.688.156.613.434 1.086.824 1.41.403.332 1.367 1.32 1.649 3.36.308 2.222-.278 3.808-.805 4.726v-5.48l-.602.355c-.984.578-1.843.754-2.554.523a1.827 1.827 0 0 1-.309-.128c-.047-.024-.086-.055-.129-.082-.047-.028-.094-.055-.137-.086a2.098 2.098 0 0 1-.171-.145c-.012-.016-.032-.027-.047-.039a2.362 2.362 0 0 1-.48-.656l-.005-.004-.086-.203-.218-.032c-3.84-.593-5.707 1.016-6.23 1.575-2.614-.282-3.84-1.004-3.993-1.098-.008-.008-.016-.012-.016-.012l-.296-.203-.235.274a4.514 4.514 0 0 1-1.836 1.273l-.261.098v4.027c-1.961-3.277-.977-6.816-.145-8.742zm13.75 19.488a.122.122 0 0 1-.121.121h-9.36a.125.125 0 0 1-.125-.12v-.68h9.606zm3.2-2.68a1.2 1.2 0 0 1-1.2 1.2H5.313c-.66 0-1.2-.54-1.2-1.2V8.855A5.299 5.299 0 0 0 5.793 7.7c.562.293 1.922.864 4.285 1.094l.223.02.136-.18c.063-.082 1.555-1.996 5.422-1.473.207.356.72 1.07 1.645 1.371.781.258 1.656.164 2.613-.277zm0 0"/>
</svg>
