<svg xmlns="http://www.w3.org/2000/svg" width="32" height="32" viewBox="0 0 24 24">
    <path d="M16.636719 16.699219C16.632812 16.648438 16.625 16.597656 16.605469 16.550781 16.605469 16.546875 16.601562 16.542969 16.601562 16.539062 16.589844 16.515625 16.574219 16.488281 16.558594 16.464844 16.546875 16.449219 16.535156 16.4375 16.523438 16.425781 16.515625 16.417969 16.511719 16.410156 16.503906 16.40625 16.46875 16.371094 16.429688 16.347656 16.386719 16.324219 16.378906 16.320312 16.371094 16.320312 16.359375 16.316406 16.3125 16.296875 16.261719 16.285156 16.210938 16.285156L8.496094 16.285156C8.445312 16.285156 8.394531 16.296875 8.347656 16.316406 8.335938 16.320312 8.328125 16.320312 8.320312 16.324219 8.277344 16.347656 8.238281 16.371094 8.203125 16.40625 8.195312 16.410156 8.191406 16.417969 8.183594 16.425781 8.171875 16.4375 8.160156 16.449219 8.148438 16.464844 8.132812 16.488281 8.117188 16.515625 8.105469 16.539062 8.105469 16.542969 8.101562 16.546875 8.101562 16.550781 8.082031 16.597656 8.074219 16.648438 8.070312 16.699219 8.070312 16.703125 8.066406 16.707031 8.066406 16.714844 8.066406 16.71875 8.070312 16.722656 8.070312 16.726562 8.070312 16.765625 8.074219 16.808594 8.089844 16.851562L8.945312 19.421875C9.003906 19.597656 9.167969 19.714844 9.351562 19.714844 9.539062 19.714844 9.703125 19.597656 9.757812 19.421875L10.519531 17.144531 14.1875 17.144531 14.945312 19.421875C15.003906 19.597656 15.167969 19.714844 15.351562 19.714844 15.539062 19.714844 15.703125 19.597656 15.757812 19.421875L16.617188 16.851562C16.628906 16.808594 16.636719 16.765625 16.636719 16.726562 16.636719 16.722656 16.636719 16.71875 16.636719 16.714844 16.640625 16.707031 16.636719 16.703125 16.636719 16.699219zM9.351562 17.929688L9.089844 17.144531 9.617188 17.144531zM15.351562 17.929688L15.089844 17.144531 15.617188 17.144531zM9.351562 10.929688C9.351562 10.84375 9.339844 10.761719 9.328125 10.679688 8.386719 10.824219 7.363281 10.609375 6.640625 10.050781 6.460938 10.296875 6.351562 10.597656 6.351562 10.929688 6.351562 11.757812 7.023438 12.429688 7.851562 12.429688 8.679688 12.429688 9.351562 11.757812 9.351562 10.929688zM14.949219 10.679688C14.9375 10.761719 14.925781 10.84375 14.925781 10.929688 14.925781 11.757812 15.597656 12.429688 16.425781 12.429688 17.253906 12.429688 17.925781 11.757812 17.925781 10.929688 17.925781 10.597656 17.816406 10.296875 17.636719 10.050781 16.914062 10.609375 15.894531 10.824219 14.949219 10.679688zM9.941406 10.191406C10.023438 10.253906 10.117188 10.285156 10.210938 10.285156 10.335938 10.285156 10.460938 10.230469 10.546875 10.125 10.691406 9.941406 10.664062 9.671875 10.480469 9.523438L8.335938 7.808594C8.152344 7.660156 7.882812 7.691406 7.734375 7.875 7.585938 8.058594 7.617188 8.328125 7.800781 8.476562zM14.066406 10.285156C14.160156 10.285156 14.257812 10.253906 14.335938 10.191406L16.476562 8.476562C16.664062 8.328125 16.691406 8.058594 16.546875 7.875 16.398438 7.691406 16.128906 7.660156 15.941406 7.808594L13.800781 9.523438C13.613281 9.671875 13.585938 9.941406 13.734375 10.125 13.816406 10.230469 13.941406 10.285156 14.066406 10.285156zM14.066406 10.285156"/>
    <path d="M 19.835938 0.0351562 C 19.675781 -0.03125 19.492188 0 19.363281 0.117188 C 19.238281 0.238281 19.199219 0.421875 19.261719 0.582031 C 19.597656 1.464844 19.605469 2.191406 19.285156 2.742188 C 18.792969 3.582031 17.664062 3.824219 17.480469 3.855469 L 15.351562 3.855469 L 15.351562 2.273438 C 15.351562 1.730469 14.910156 1.285156 14.367188 1.285156 L 9.484375 1.285156 C 8.941406 1.285156 8.496094 1.730469 8.496094 2.273438 L 8.496094 3.855469 L 6.542969 3.855469 C 6.355469 3.824219 5.226562 3.582031 4.738281 2.742188 C 4.417969 2.191406 4.425781 1.464844 4.761719 0.582031 C 4.824219 0.417969 4.785156 0.234375 4.65625 0.117188 C 4.53125 0 4.347656 -0.0351562 4.1875 0.0351562 C 3.921875 0.15625 2.582031 0.996094 2.519531 5.734375 C 2.507812 5.820312 2.496094 5.910156 2.496094 6 L 2.496094 20.144531 C 2.496094 21.324219 3.457031 22.285156 4.640625 22.285156 L 5.925781 22.285156 L 5.925781 23.011719 C 5.925781 23.554688 6.367188 24 6.914062 24 L 16.9375 24 C 17.480469 24 17.925781 23.558594 17.925781 23.011719 L 17.925781 22.285156 L 19.210938 22.285156 C 20.390625 22.285156 21.355469 21.324219 21.355469 20.144531 L 21.351562 9.261719 L 21.371094 9.035156 C 22.023438 1.242188 20.058594 0.136719 19.835938 0.0351562 Z M 9.351562 2.273438 C 9.351562 2.203125 9.410156 2.144531 9.484375 2.144531 L 14.367188 2.144531 C 14.4375 2.144531 14.496094 2.203125 14.496094 2.273438 L 14.496094 3.855469 L 9.355469 3.855469 L 9.355469 2.273438 Z M 17.066406 23.011719 C 17.066406 23.085938 17.007812 23.144531 16.9375 23.144531 L 6.914062 23.144531 C 6.839844 23.144531 6.78125 23.085938 6.78125 23.011719 L 6.78125 22.285156 L 17.066406 22.285156 Z M 20.519531 8.964844 L 20.5 9.179688 C 20.496094 9.195312 20.496094 9.21875 20.496094 9.230469 L 20.496094 20.144531 C 20.496094 20.851562 19.917969 21.429688 19.210938 21.429688 L 4.640625 21.429688 C 3.929688 21.429688 3.351562 20.851562 3.351562 20.144531 L 3.351562 6 C 3.351562 5.949219 3.363281 5.902344 3.371094 5.824219 C 3.375 5.804688 3.375 5.785156 3.378906 5.769531 C 3.394531 4.292969 3.542969 3.246094 3.726562 2.503906 C 3.785156 2.742188 3.878906 2.96875 4 3.179688 C 4.746094 4.449219 6.375 4.699219 6.445312 4.710938 C 6.464844 4.710938 6.484375 4.714844 6.503906 4.714844 L 17.515625 4.714844 C 17.539062 4.714844 17.558594 4.710938 17.578125 4.710938 C 17.648438 4.699219 19.277344 4.449219 20.023438 3.179688 C 20.144531 2.96875 20.238281 2.742188 20.296875 2.507812 C 20.59375 3.695312 20.792969 5.683594 20.519531 8.964844 Z M 20.519531 8.964844"/>
</svg>
