<svg xmlns="http://www.w3.org/2000/svg" width="32" height="23pt" viewBox="0 0 24 23">
    <path d="M7.906 5.887c-1.41 0-2.558 1.097-2.558 2.449 0 .273.23.492.511.492a.502.502 0 0 0 .512-.492c0-.809.688-1.469 1.535-1.469.848 0 1.535.66 1.535 1.469 0 .273.23.492.512.492a.502.502 0 0 0 .512-.492c0-1.352-1.149-2.45-2.559-2.45zm0 0M17.629 7.848c0 .812-.688 1.468-1.535 1.468-.848 0-1.535-.656-1.535-1.468 0-.813.687-1.473 1.535-1.473.847 0 1.535.66 1.535 1.473zm0 0"/>
    <path d="M16.094 4.414c-1.977 0-3.582 1.54-3.582 3.434 0 1.89 1.605 3.433 3.582 3.433 1.976 0 3.582-1.543 3.582-3.433 0-1.895-1.606-3.434-3.582-3.434zm0 5.883c-1.41 0-2.559-1.098-2.559-2.45 0-1.35 1.149-2.452 2.559-2.452 1.41 0 2.558 1.101 2.558 2.453 0 1.351-1.148 2.449-2.558 2.449zm0 0"/>
    <path d="M23.258 10.79C23.258 4.84 18.207 0 12 0 5.793 0 .742 4.84.742 10.79c0 5.065 3.703 9.444 8.84 10.523C9.918 22.288 10.872 23 12 23h.512c1.133 0 2.086-.715 2.422-1.695 4.914-1.059 8.324-5.332 8.324-10.516zm-11.602 3.92c.172.868.344 3.606.344 4.415 0 .273.23.492.512.492a.502.502 0 0 0 .511-.492c0-.453-.062-1.71-.152-2.797a21.923 21.923 0 0 0-.176-1.617h1.332a.104.104 0 0 0 .02.023v5.543c0 .895-.758 1.621-1.692 1.621h-.199c-.933 0-1.691-.726-1.691-1.62V14.71zm3.414 0h2.028c-.121 1.575-.84 2.83-2.028 3.587zm-5.629 3.75c-1.43-.784-2.37-2.167-2.535-3.75h2.535zm5.63 1.806v-.832c1.929-.934 3.07-2.856 3.07-5.211a.502.502 0 0 0-.512-.493H6.37a.502.502 0 0 0-.512.493c0 2.324 1.395 4.382 3.582 5.34v.71c-4.48-1.105-7.675-4.996-7.675-9.484C1.766 5.38 6.356.98 12 .98c5.645 0 10.234 4.399 10.234 9.81 0 4.663-2.851 8.39-7.164 9.476zm0 0"/>
</svg>
