<svg xmlns="http://www.w3.org/2000/svg" width="32" height="32" viewBox="0 0 24 24">
    <path d="M9.578 12.727c.047 0 .09-.008.133-.02a.404.404 0 0 0 .27-.355c.046-.743-.231-1.516-.766-2.122-.531-.605-1.262-.98-2.004-1.027a.403.403 0 1 0-.05.805c.53.031 1.058.308 1.452.754.168.195.301.406.399.629a2.84 2.84 0 0 0-1.067-.282c-.75-.05-1.476.2-2.039.696a.407.407 0 0 0-.039.57.406.406 0 0 0 .57.035 1.994 1.994 0 0 1 1.458-.5 2.013 2.013 0 0 1 1.382.68c.078.09.188.137.301.137zm0 0M15.25 11.11a2.82 2.82 0 0 0-1.066.28c.093-.222.23-.433.398-.628.395-.446.922-.723 1.453-.754a.403.403 0 0 0-.05-.805c-.743.047-1.473.422-2.008 1.027-.532.606-.813 1.38-.766 2.122.012.16.121.3.273.355a.404.404 0 0 0 .434-.117 2.005 2.005 0 0 1 1.383-.68c.535-.039 1.05.145 1.457.5a.403.403 0 1 0 .531-.605 2.79 2.79 0 0 0-2.039-.696zm0 0M11.8 14.05c-1.89 0-3.425 1.598-3.425 3.567 0 1.965 1.535 3.563 3.426 3.563 1.886 0 3.422-1.598 3.422-3.563 0-1.969-1.536-3.566-3.422-3.566zm-1.597 5.747c.067-.746.754-1.336 1.598-1.336.84 0 1.527.59 1.594 1.336a2.504 2.504 0 0 1-1.594.582 2.507 2.507 0 0 1-1.598-.582zm3.828-.746c-.363-.817-1.226-1.395-2.23-1.395-1.008 0-1.867.578-2.235 1.395a2.858 2.858 0 0 1-.382-1.434c0-1.523 1.171-2.762 2.617-2.762 1.441 0 2.613 1.239 2.613 2.762 0 .524-.14 1.016-.383 1.434zm0 0"/>
    <path d="M12 0c-1.824 0-3.566.379-5.184 1.129l-.191.086-.098.597c-.03-.035-.058-.074-.086-.109l-.214-.289-.309.18c-.688.394-1.32.847-1.883 1.347l-.215.196.594 1.39-1.41-.53-.184.23C1.453 5.937.727 7.957.727 10.067c0 .046.003.097.007.148l.02.629.672-.235c.3-.101.863-.296 1.316-.457v10.223c0 1.113.903 2.016 2.012 2.016h1.629v.68c0 .511.418.929.93.929h9.414c.511 0 .93-.418.93-.93v-.68h.784c1.11 0 2.012-.902 2.012-2.015V9.906c.129.055.266.114.406.176 1.27.566 1.82.77 2.176.54.149-.095.235-.255.235-.466 0-.031.003-.062.003-.09C23.273 4.516 18.215 0 12 0zm4.852 23.07c0 .07-.055.125-.125.125H7.312a.123.123 0 0 1-.125-.125v-.68h9.665zm2.796-2.695c0 .668-.543 1.21-1.207 1.21H4.754a1.209 1.209 0 0 1-1.207-1.21V8.91a5.34 5.34 0 0 0 1.687-1.16c.567.293 1.938.867 4.313 1.098l.226.02.137-.184c.016-.02 1.527-2.012 5.453-1.48.207.359.723 1.077 1.657 1.382.785.258 1.668.164 2.628-.281zm1.536-11.027c-.274-.121-.52-.235-.73-.317V6.937l-.29.172a.393.393 0 0 0-.316.04c-.989.578-1.856.757-2.57.527-.887-.285-1.274-1.125-1.286-1.149a.413.413 0 0 0-.308-.238c-3.86-.594-5.743 1.024-6.266 1.586-2.805-.3-4.023-1.11-4.031-1.113a.403.403 0 0 0-.535.066 4.509 4.509 0 0 1-1.848 1.285.401.401 0 0 0-.234.23l-.028.012v.946c-.332.117-.828.289-1.203.418.07-1.703.668-3.34 1.734-4.762l2.625.984L4.79 3.355c.379-.32.79-.613 1.223-.882l.43.582.566.77.34-2.055C8.805 1.129 10.368.805 12 .805c5.695 0 10.344 4.047 10.465 9.062-.344-.105-.93-.363-1.281-.52zm0 0"/>
</svg>
