<svg xmlns="http://www.w3.org/2000/svg" width="32" height="32" viewBox="0 0 24 24">
    <path d="M23.918 10.625c-.16-.676-.547-1.262-1.031-1.559-.325-.199-.672-.265-1.004-.183a.916.916 0 0 0-.219.078c-.934-2.274-2.39-3.746-3.89-4.695l.542-1.086a.401.401 0 0 0-.175-.54.406.406 0 0 0-.54.18l-.519 1.043a9.688 9.688 0 0 0-.734-.355l.39-1.18a.4.4 0 0 0-.254-.508.396.396 0 0 0-.504.254l-.378 1.137a14.542 14.542 0 0 0-.805-.258l.344-1.027a.395.395 0 0 0-.254-.504.399.399 0 0 0-.508.25l-.363 1.09a11.811 11.811 0 0 0-1.258-.196v-.765a.398.398 0 1 0-.797 0v.738c-.211.008-.578.035-1.055.11l-.152-.915a.396.396 0 0 0-.461-.328.398.398 0 0 0-.328.457l.156.938c-.43.097-.902.23-1.402.406l-.38-1.133a.4.4 0 1 0-.757.25l.39 1.18a10.16 10.16 0 0 0-1.046.531l-.61-1.215a.397.397 0 0 0-.535-.18.403.403 0 0 0-.18.54l.641 1.277c-.351.242-.699.516-1.039.82l-.96-.96a.4.4 0 0 0-.567.566l.957.953c-1.23 1.309-2.258 3.137-2.73 5.687-.008.032-.012.067-.016.098a1.21 1.21 0 0 0-.313-.047c-.883 0-1.574.953-1.574 2.172 0 1.215.691 2.168 1.574 2.168.164 0 .32-.039.473-.105a8.885 8.885 0 0 0 1.383 2.949c1.277 1.762 3.785 3.844 8.508 3.844.074 0 .144 0 .218-.004.074.004.145.004.219.004 4.719 0 7.23-2.082 8.508-3.844 1.152-1.586 1.738-3.574 1.691-5.63.016.005.028.005.043.005.09 0 .18-.008.27-.031.86-.204 1.312-1.293 1.031-2.477zM1.871 14.996a.477.477 0 0 1-.297.117c-.367 0-.773-.562-.773-1.367 0-.809.406-1.371.773-1.371a.44.44 0 0 1 .203.055c-.02.215-.03.425-.039.636v.047c-.004.176-.004.352 0 .524.004.058.004.113.008.172.004.14.016.28.027.421.008.06.008.118.016.176.02.172.043.348.07.52l.012.07zm18.363 3.293c-1.726 2.379-4.437 3.574-8.074 3.512h-.23c-3.52 0-6.16-1.18-7.852-3.512-.824-1.137-1.332-2.504-1.492-3.945-.004-.031-.004-.063-.004-.094-.023-.23-.035-.46-.043-.691 0-.098 0-.2.004-.301 0-.164.008-.324.016-.488.007-.118.015-.239.03-.356a9.5 9.5 0 0 1 .099-.746c.44-2.371 1.374-4.066 2.496-5.281l.492.496A.405.405 0 0 0 5.96 7a.4.4 0 0 0 .281-.684l-.492-.492c.273-.246.555-.472.84-.672l.21.426c.071.14.216.223.36.223a.402.402 0 0 0 .36-.578l-.254-.504c.32-.184.636-.348.949-.489l.168.497a.397.397 0 0 0 .504.253.404.404 0 0 0 .254-.507l-.18-.54c.457-.163.894-.28 1.289-.367l.117.7c.031.195.2.336.39.336a.344.344 0 0 0 .067-.008.395.395 0 0 0 .328-.457l-.117-.711c.41-.059.73-.082.926-.09v.863a.398.398 0 1 0 .797 0v-.832c.27.024.61.07 1.008.149l-.184.558a.398.398 0 0 0 .25.504.375.375 0 0 0 .129.024c.168 0 .32-.106.379-.274l.207-.629c.258.07.527.156.805.254l-.172.52a.4.4 0 0 0 .379.527.397.397 0 0 0 .379-.273l.16-.477c.07.035.14.063.21.098.145.066.286.14.422.215l-.328.656a.4.4 0 0 0 .18.539c.055.027.117.039.176.039.148 0 .289-.078.36-.219l.304-.61C19.09 6.044 20.3 7.575 21.039 9.54h-.004l.074.207c.11.305.203.613.29.922l.011.059c.082.308.156.62.215.941.047.262.082.527.105.789.004.05.012.102.016.152.168 2.067-.36 4.094-1.512 5.68zm2.465-5.965a.443.443 0 0 1-.176 0c0-.015-.003-.027-.003-.043-.028-.25-.063-.504-.11-.754v-.004c0-.007 0-.011-.004-.015a13.888 13.888 0 0 0-.191-.88c-.008-.03-.02-.058-.027-.089a14.01 14.01 0 0 0-.235-.805c-.004-.007-.004-.011-.008-.02a.35.35 0 0 1 .125-.054c.153-.039.301.027.399.086.3.188.558.594.672 1.066.183.786-.082 1.426-.442 1.512zm0 0"/>
    <path d="M8 11c0-1.102.898-2 2-2 .16 0 .309-.098.371-.246a.398.398 0 0 0-.09-.434c-.52-.523-1.277-.824-2.082-.824-.8 0-1.562.3-2.082.824a.396.396 0 0 0 0 .563.4.4 0 0 0 .567 0c.37-.371.925-.586 1.515-.586.254 0 .504.039.735.117A2.802 2.802 0 0 0 7.199 11a.401.401 0 0 0 .8 0zm0 0M16.2 7.496c-.802 0-1.563.3-2.083.824a.397.397 0 0 0 .281.68c1.106 0 2 .898 2 2a.401.401 0 0 0 .8 0 2.797 2.797 0 0 0-1.733-2.586c.23-.078.48-.117.734-.117.594 0 1.145.215 1.516.586a.4.4 0 0 0 .566 0 .396.396 0 0 0 0-.563c-.52-.523-1.281-.824-2.082-.824zm0 0M12 11c-2.535 0-4.602 2.156-4.602 4.8 0 2.65 2.067 4.802 4.602 4.802s4.598-2.153 4.598-4.801C16.598 13.156 14.535 11 12 11zm-2.395 7.902c.055-1.156 1.106-2.086 2.395-2.086 1.285 0 2.336.93 2.395 2.086a3.663 3.663 0 0 1-2.395.899 3.655 3.655 0 0 1-2.395-.899zm5.461-.75c-.394-1.234-1.617-2.136-3.066-2.136-1.45 0-2.676.902-3.066 2.136a4.097 4.097 0 0 1-.735-2.351c0-2.207 1.707-4 3.801-4 2.094 0 3.8 1.793 3.8 4 0 .879-.277 1.691-.734 2.351zm0 0"/>
</svg>
