<svg xmlns="http://www.w3.org/2000/svg" width="32" height="32" viewBox="0 0 24 24">
    <path d="M 12 0 C 5.382812 0 0 5.382812 0 12 C 0 18.617188 5.382812 24 12 24 C 18.617188 24 24 18.617188 24 12 C 24 5.382812 18.617188 0 12 0 Z M 12 22.910156 C 5.984375 22.910156 1.089844 18.015625 1.089844 12 C 1.089844 5.984375 5.984375 1.089844 12 1.089844 C 18.015625 1.089844 22.910156 5.984375 22.910156 12 C 22.910156 18.015625 18.015625 22.910156 12 22.910156 Z M 12 22.910156"/>
    <path d="M6.996094 9.273438C6.996094 8.019531 8.019531 6.996094 9.273438 6.996094 9.492188 6.996094 9.691406 6.863281 9.777344 6.660156 9.859375 6.457031 9.8125 6.222656 9.660156 6.066406 8.347656 4.757812 5.964844 4.753906 4.65625 6.066406 4.441406 6.277344 4.441406 6.625 4.65625 6.835938 4.867188 7.050781 5.214844 7.050781 5.425781 6.835938 6.019531 6.242188 6.96875 6.046875 7.800781 6.246094 6.679688 6.792969 5.90625 7.945312 5.90625 9.273438 5.90625 9.574219 6.148438 9.816406 6.449219 9.816406 6.753906 9.816406 6.996094 9.574219 6.996094 9.273438zM19.890625 6.160156C18.582031 4.851562 16.195312 4.851562 14.886719 6.160156 14.730469 6.316406 14.683594 6.550781 14.769531 6.753906 14.851562 6.957031 15.050781 7.089844 15.273438 7.089844 16.527344 7.089844 17.546875 8.113281 17.546875 9.367188 17.546875 9.667969 17.792969 9.914062 18.09375 9.914062 18.394531 9.914062 18.640625 9.667969 18.640625 9.367188 18.640625 8.039062 17.867188 6.886719 16.746094 6.339844 17.574219 6.140625 18.523438 6.335938 19.117188 6.929688 19.332031 7.144531 19.675781 7.144531 19.890625 6.929688 20.101562 6.71875 20.101562 6.375 19.890625 6.160156zM12.039062 9.292969C9.015625 9.292969 6.554688 11.855469 6.554688 15.007812 6.554688 18.160156 9.015625 20.726562 12.039062 20.726562 15.0625 20.726562 17.519531 18.164062 17.519531 15.011719 17.519531 11.855469 15.058594 9.292969 12.039062 9.292969zM9.308594 18.628906C9.390625 17.320312 10.578125 16.277344 12.039062 16.277344 13.496094 16.277344 14.683594 17.320312 14.769531 18.625 14.015625 19.257812 13.070312 19.636719 12.039062 19.636719 11.003906 19.636719 10.058594 19.257812 9.308594 18.628906zM15.664062 17.613281C15.148438 16.203125 13.71875 15.1875 12.035156 15.1875 10.355469 15.1875 8.925781 16.203125 8.410156 17.613281 7.929688 16.871094 7.644531 15.976562 7.644531 15.011719 7.644531 12.457031 9.617188 10.382812 12.039062 10.382812 14.460938 10.382812 16.429688 12.457031 16.429688 15.011719 16.429688 15.976562 16.148438 16.871094 15.664062 17.613281zM15.664062 17.613281"/>
</svg>
