<?xml version="1.0" encoding="UTF-8" standalone="yes"?>
<svg xmlns="http://www.w3.org/2000/svg" xmlns:xlink="http://www.w3.org/1999/xlink" width="24px" height="24px" viewBox="0 0 18 18" version="1.1">
  <g id="surface1">
    <path style=" stroke:none;fill-rule:nonzero;fill:rgb(0%,0%,0%);fill-opacity:1;" d="M 9 6.898438 C 7.828125 6.898438 6.898438 7.828125 6.898438 9 C 6.898438 9.179688 7.019531 9.300781 7.199219 9.300781 C 7.382812 9.300781 7.5 9.179688 7.5 9 C 7.5 8.160156 8.160156 7.5 9 7.5 C 9.179688 7.5 9.300781 7.382812 9.300781 7.199219 C 9.300781 7.019531 9.179688 6.898438 9 6.898438 Z M 9 6.898438 "/>
    <path style=" stroke:none;fill-rule:nonzero;fill:rgb(0%,0%,0%);fill-opacity:1;" d="M 14.699219 2.699219 C 14.882812 2.699219 15 2.578125 15 2.398438 C 15 2.070312 15.269531 1.800781 15.601562 1.800781 C 15.78125 1.800781 15.898438 1.679688 15.898438 1.5 C 15.898438 1.320312 15.78125 1.199219 15.601562 1.199219 C 14.9375 1.199219 14.398438 1.742188 14.398438 2.398438 C 14.398438 2.578125 14.519531 2.699219 14.699219 2.699219 Z M 14.699219 2.699219 "/>
    <path style=" stroke:none;fill-rule:nonzero;fill:rgb(0%,0%,0%);fill-opacity:1;" d="M 2.101562 1.199219 C 1.589844 1.199219 1.199219 1.589844 1.199219 2.101562 C 1.199219 2.28125 1.320312 2.398438 1.5 2.398438 C 1.679688 2.398438 1.800781 2.28125 1.800781 2.101562 C 1.800781 1.921875 1.921875 1.800781 2.101562 1.800781 C 2.28125 1.800781 2.398438 1.679688 2.398438 1.5 C 2.398438 1.320312 2.28125 1.199219 2.101562 1.199219 Z M 2.101562 1.199219 "/>
    <path style=" stroke:none;fill-rule:nonzero;fill:rgb(0%,0%,0%);fill-opacity:1;" d="M 15.300781 12.601562 C 14.65625 12.601562 14.070312 12.820312 13.609375 13.1875 L 11.539062 11.117188 C 12.015625 10.546875 12.300781 9.804688 12.300781 9 C 12.300781 8.171875 12 7.414062 11.496094 6.835938 L 14.078125 4.25 C 14.492188 4.59375 15.023438 4.800781 15.601562 4.800781 C 16.921875 4.800781 18 3.71875 18 2.398438 C 18 1.078125 16.921875 0 15.601562 0 C 14.28125 0 13.199219 1.078125 13.199219 2.398438 C 13.199219 2.929688 13.375 3.421875 13.671875 3.820312 L 11.066406 6.421875 C 10.5 5.96875 9.785156 5.699219 9 5.699219 C 8.1875 5.699219 7.445312 5.992188 6.867188 6.476562 L 3.796875 3.347656 C 4.050781 3 4.199219 2.570312 4.199219 2.101562 C 4.199219 0.929688 3.269531 0 2.101562 0 C 0.929688 0 0 0.929688 0 2.101562 C 0 3.269531 0.929688 4.199219 2.101562 4.199219 C 2.585938 4.199219 3.027344 4.039062 3.378906 3.773438 L 6.464844 6.882812 C 5.984375 7.453125 5.699219 8.191406 5.699219 9 C 5.699219 9.804688 5.984375 10.546875 6.460938 11.117188 L 4.898438 12.679688 C 4.382812 12.257812 3.71875 12 3 12 C 1.351562 12 0 13.351562 0 15 C 0 16.648438 1.351562 18 3 18 C 4.648438 18 6 16.648438 6 15 C 6 14.28125 5.742188 13.617188 5.320312 13.101562 L 6.882812 11.539062 C 7.453125 12.015625 8.195312 12.300781 9 12.300781 C 9.804688 12.300781 10.546875 12.015625 11.117188 11.539062 L 13.1875 13.609375 C 12.820312 14.070312 12.601562 14.65625 12.601562 15.300781 C 12.601562 16.800781 13.800781 18 15.300781 18 C 16.800781 18 18 16.800781 18 15.300781 C 18 13.800781 16.800781 12.601562 15.300781 12.601562 Z M 15.601562 0.601562 C 16.589844 0.601562 17.398438 1.410156 17.398438 2.398438 C 17.398438 3.390625 16.589844 4.199219 15.601562 4.199219 C 14.609375 4.199219 13.800781 3.390625 13.800781 2.398438 C 13.800781 1.410156 14.609375 0.601562 15.601562 0.601562 Z M 0.601562 2.101562 C 0.601562 1.257812 1.257812 0.601562 2.101562 0.601562 C 2.9375 0.601562 3.601562 1.257812 3.601562 2.101562 C 3.601562 2.9375 2.9375 3.601562 2.101562 3.601562 C 1.257812 3.601562 0.601562 2.9375 0.601562 2.101562 Z M 3 17.398438 C 1.679688 17.398438 0.601562 16.320312 0.601562 15 C 0.601562 13.679688 1.679688 12.601562 3 12.601562 C 3.621094 12.601562 4.1875 12.839844 4.617188 13.230469 C 4.632812 13.265625 4.652344 13.292969 4.679688 13.320312 C 4.710938 13.351562 4.742188 13.375 4.773438 13.386719 C 5.164062 13.8125 5.398438 14.382812 5.398438 15 C 5.398438 16.320312 4.320312 17.398438 3 17.398438 Z M 6.300781 9 C 6.300781 8.28125 6.578125 7.628906 7.03125 7.148438 C 7.046875 7.136719 7.0625 7.125 7.078125 7.109375 C 7.101562 7.09375 7.113281 7.070312 7.125 7.050781 C 7.609375 6.585938 8.269531 6.300781 9 6.300781 C 9.703125 6.300781 10.335938 6.5625 10.816406 6.996094 C 10.828125 7.015625 10.84375 7.03125 10.859375 7.050781 C 10.882812 7.070312 10.90625 7.089844 10.929688 7.105469 C 11.40625 7.59375 11.699219 8.257812 11.699219 9 C 11.699219 9.703125 11.4375 10.339844 11 10.820312 C 10.960938 10.832031 10.921875 10.855469 10.890625 10.890625 C 10.855469 10.921875 10.832031 10.960938 10.820312 11 C 10.339844 11.4375 9.703125 11.699219 9 11.699219 C 7.5 11.699219 6.300781 10.5 6.300781 9 Z M 15.300781 17.398438 C 14.132812 17.398438 13.199219 16.46875 13.199219 15.300781 C 13.199219 14.132812 14.132812 13.199219 15.300781 13.199219 C 16.46875 13.199219 17.398438 14.132812 17.398438 15.300781 C 17.398438 16.46875 16.46875 17.398438 15.300781 17.398438 Z M 15.300781 17.398438 "/>
    <path style=" stroke:none;fill-rule:nonzero;fill:rgb(0%,0%,0%);fill-opacity:1;" d="M 15.300781 13.800781 C 14.460938 13.800781 13.800781 14.460938 13.800781 15.300781 C 13.800781 15.480469 13.921875 15.601562 14.101562 15.601562 C 14.28125 15.601562 14.398438 15.480469 14.398438 15.300781 C 14.398438 14.789062 14.789062 14.398438 15.300781 14.398438 C 15.480469 14.398438 15.601562 14.28125 15.601562 14.101562 C 15.601562 13.921875 15.480469 13.800781 15.300781 13.800781 Z M 15.300781 13.800781 "/>
    <path style=" stroke:none;fill-rule:nonzero;fill:rgb(0%,0%,0%);fill-opacity:1;" d="M 3 13.199219 C 2.007812 13.199219 1.199219 14.007812 1.199219 15 C 1.199219 15.179688 1.320312 15.300781 1.5 15.300781 C 1.679688 15.300781 1.800781 15.179688 1.800781 15 C 1.800781 14.339844 2.339844 13.800781 3 13.800781 C 3.179688 13.800781 3.300781 13.679688 3.300781 13.5 C 3.300781 13.320312 3.179688 13.199219 3 13.199219 Z M 3 13.199219 "/>
  </g>
</svg>