<?xml version="1.0" encoding="UTF-8" standalone="yes"?>
<svg xmlns="http://www.w3.org/2000/svg" xmlns:xlink="http://www.w3.org/1999/xlink" width="48px" height="48px" viewBox="0 0 36 36" version="1.1">
  <g id="surface1">
    <path style=" stroke:none;fill-rule:nonzero;fill:rgb(0%,0%,0%);fill-opacity:1;" d="M 29.617188 19.839844 L 18.605469 15.558594 L 6.992188 19.835938 C 6.679688 19.953125 6.523438 20.296875 6.636719 20.609375 C 6.726562 20.851562 6.957031 21 7.199219 21 C 7.269531 21 7.339844 20.988281 7.40625 20.960938 L 18.59375 16.839844 L 29.183594 20.960938 C 29.492188 21.078125 29.839844 20.925781 29.960938 20.617188 C 30.078125 20.308594 29.925781 19.960938 29.617188 19.839844 Z M 29.617188 19.839844 "/>
    <path style=" stroke:none;fill-rule:nonzero;fill:rgb(0%,0%,0%);fill-opacity:1;" d="M 22.199219 11.398438 L 23.398438 11.398438 C 23.730469 11.398438 24 11.132812 24 10.800781 C 24 10.46875 23.730469 10.199219 23.398438 10.199219 L 22.199219 10.199219 C 21.867188 10.199219 21.601562 10.46875 21.601562 10.800781 C 21.601562 11.132812 21.867188 11.398438 22.199219 11.398438 Z M 22.199219 11.398438 "/>
    <path style=" stroke:none;fill-rule:nonzero;fill:rgb(0%,0%,0%);fill-opacity:1;" d="M 19.199219 11.398438 L 20.398438 11.398438 C 20.730469 11.398438 21 11.132812 21 10.800781 C 21 10.46875 20.730469 10.199219 20.398438 10.199219 L 19.199219 10.199219 C 18.867188 10.199219 18.601562 10.46875 18.601562 10.800781 C 18.601562 11.132812 18.867188 11.398438 19.199219 11.398438 Z M 19.199219 11.398438 "/>
    <path style=" stroke:none;fill-rule:nonzero;fill:rgb(0%,0%,0%);fill-opacity:1;" d="M 25.199219 11.398438 L 26.398438 11.398438 C 26.730469 11.398438 27 11.132812 27 10.800781 C 27 10.46875 26.730469 10.199219 26.398438 10.199219 L 25.199219 10.199219 C 24.867188 10.199219 24.601562 10.46875 24.601562 10.800781 C 24.601562 11.132812 24.867188 11.398438 25.199219 11.398438 Z M 25.199219 11.398438 "/>
    <path style=" stroke:none;fill-rule:nonzero;fill:rgb(0%,0%,0%);fill-opacity:1;" d="M 17.398438 10.199219 L 16.199219 10.199219 C 15.867188 10.199219 15.601562 10.46875 15.601562 10.800781 C 15.601562 11.132812 15.867188 11.398438 16.199219 11.398438 L 17.398438 11.398438 C 17.730469 11.398438 18 11.132812 18 10.800781 C 18 10.46875 17.730469 10.199219 17.398438 10.199219 Z M 17.398438 10.199219 "/>
    <path style=" stroke:none;fill-rule:nonzero;fill:rgb(0%,0%,0%);fill-opacity:1;" d="M 14.398438 10.199219 L 13.199219 10.199219 C 12.867188 10.199219 12.601562 10.46875 12.601562 10.800781 C 12.601562 11.132812 12.867188 11.398438 13.199219 11.398438 L 14.398438 11.398438 C 14.730469 11.398438 15 11.132812 15 10.800781 C 15 10.46875 14.730469 10.199219 14.398438 10.199219 Z M 14.398438 10.199219 "/>
    <path style=" stroke:none;fill-rule:nonzero;fill:rgb(0%,0%,0%);fill-opacity:1;" d="M 11.398438 10.199219 L 10.199219 10.199219 C 9.867188 10.199219 9.601562 10.46875 9.601562 10.800781 C 9.601562 11.132812 9.867188 11.398438 10.199219 11.398438 L 11.398438 11.398438 C 11.730469 11.398438 12 11.132812 12 10.800781 C 12 10.46875 11.730469 10.199219 11.398438 10.199219 Z M 11.398438 10.199219 "/>
    <path style=" stroke:none;fill-rule:nonzero;fill:rgb(0%,0%,0%);fill-opacity:1;" d="M 34.199219 30 L 28.433594 30 C 34.328125 23.734375 33.628906 18.726562 33.59375 18.507812 L 33.539062 18.160156 L 30.601562 17.058594 L 30.601562 9.527344 C 30.601562 8.574219 29.824219 7.800781 28.875 7.800781 L 22.199219 7.800781 L 22.199219 1.917969 C 22.199219 0.859375 21.339844 0 20.28125 0 L 16.917969 0 C 15.859375 0 15 0.859375 15 1.917969 L 15 7.800781 L 8.324219 7.800781 C 7.375 7.800781 6.601562 8.574219 6.601562 9.527344 L 6.601562 17.058594 L 3.660156 18.160156 L 3.605469 18.507812 C 3.574219 18.726562 2.871094 23.734375 8.765625 30 L 1.800781 30 C 1.46875 30 1.199219 30.269531 1.199219 30.601562 C 1.199219 30.929688 1.46875 31.199219 1.800781 31.199219 L 34.199219 31.199219 C 34.53125 31.199219 34.800781 30.929688 34.800781 30.601562 C 34.800781 30.269531 34.53125 30 34.199219 30 Z M 16.199219 1.917969 C 16.199219 1.523438 16.523438 1.199219 16.917969 1.199219 L 20.28125 1.199219 C 20.679688 1.199219 21 1.523438 21 1.917969 L 21 7.800781 L 16.199219 7.800781 Z M 7.800781 9.527344 C 7.800781 9.234375 8.035156 9 8.324219 9 L 28.875 9 C 29.164062 9 29.398438 9.234375 29.398438 9.527344 L 29.398438 16.609375 L 18.992188 12.707031 C 18.738281 12.613281 18.460938 12.613281 18.207031 12.707031 L 7.800781 16.609375 Z M 14.492188 30 L 15.507812 22.890625 C 15.515625 22.839844 15.558594 22.800781 15.613281 22.800781 L 21.589844 22.800781 C 21.640625 22.800781 21.683594 22.839844 21.691406 22.890625 L 22.707031 30 Z M 23.921875 30 L 22.878906 22.722656 C 22.789062 22.082031 22.234375 21.601562 21.589844 21.601562 L 15.609375 21.601562 C 14.964844 21.601562 14.410156 22.082031 14.320312 22.71875 L 13.277344 30 L 10.441406 30 C 5.050781 24.71875 4.742188 20.253906 4.769531 19.027344 L 18.601562 13.839844 L 32.433594 19.027344 C 32.46875 20.25 32.183594 24.6875 26.757812 30 Z M 23.921875 30 "/>
    <path style=" stroke:none;fill-rule:nonzero;fill:rgb(0%,0%,0%);fill-opacity:1;" d="M 27.601562 32.398438 L 10.199219 32.398438 C 9.867188 32.398438 9.601562 32.667969 9.601562 33 C 9.601562 33.332031 9.867188 33.601562 10.199219 33.601562 L 27.601562 33.601562 C 27.933594 33.601562 28.199219 33.332031 28.199219 33 C 28.199219 32.667969 27.933594 32.398438 27.601562 32.398438 Z M 27.601562 32.398438 "/>
    <path style=" stroke:none;fill-rule:nonzero;fill:rgb(0%,0%,0%);fill-opacity:1;" d="M 22.800781 34.800781 L 14.398438 34.800781 C 14.066406 34.800781 13.800781 35.070312 13.800781 35.398438 C 13.800781 35.730469 14.066406 36 14.398438 36 L 22.800781 36 C 23.132812 36 23.398438 35.730469 23.398438 35.398438 C 23.398438 35.070312 23.132812 34.800781 22.800781 34.800781 Z M 22.800781 34.800781 "/>
  </g>
</svg>