<?xml version="1.0" encoding="UTF-8" standalone="yes"?>
<svg xmlns="http://www.w3.org/2000/svg" xmlns:xlink="http://www.w3.org/1999/xlink" width="24px" height="24px" viewBox="0 0 18 18" version="1.1">
  <g id="surface1">
    <path style=" stroke:none;fill-rule:nonzero;fill:rgb(0%,0%,0%);fill-opacity:1;" d="M 17.132812 2.785156 C 16.757812 1.382812 13.933594 0 9 0 C 4.066406 0 1.242188 1.382812 0.867188 2.785156 C 0.835938 2.835938 0.820312 2.886719 0.820312 2.945312 L 0.820312 15.054688 C 0.820312 15.109375 0.832031 15.15625 0.859375 15.203125 C 1.242188 16.804688 4.703125 18 9 18 C 13.289062 18 16.742188 16.808594 17.140625 15.210938 C 17.167969 15.164062 17.179688 15.109375 17.179688 15.054688 L 17.179688 2.945312 C 17.179688 2.886719 17.164062 2.835938 17.132812 2.785156 Z M 16.5 11.125 C 16.492188 11.164062 16.476562 11.203125 16.460938 11.242188 C 16.453125 11.273438 16.433594 11.304688 16.414062 11.335938 C 16.394531 11.378906 16.371094 11.417969 16.34375 11.460938 C 16.320312 11.492188 16.296875 11.519531 16.269531 11.546875 C 16.234375 11.59375 16.195312 11.632812 16.148438 11.679688 C 16.125 11.703125 16.09375 11.726562 16.066406 11.757812 C 16.011719 11.804688 15.953125 11.847656 15.890625 11.894531 C 15.867188 11.914062 15.835938 11.933594 15.808594 11.953125 C 15.734375 12.003906 15.65625 12.054688 15.574219 12.105469 C 15.550781 12.117188 15.527344 12.132812 15.503906 12.144531 C 15.40625 12.199219 15.304688 12.253906 15.195312 12.304688 C 15.179688 12.3125 15.164062 12.320312 15.152344 12.328125 C 15.03125 12.382812 14.898438 12.441406 14.765625 12.496094 C 14.757812 12.5 14.757812 12.5 14.75 12.5 C 14.007812 12.796875 13.054688 13.046875 11.949219 13.210938 C 11.945312 13.210938 11.9375 13.210938 11.933594 13.214844 C 11.71875 13.246094 11.496094 13.273438 11.269531 13.296875 C 11.234375 13.304688 11.195312 13.304688 11.15625 13.308594 C 10.960938 13.328125 10.757812 13.351562 10.554688 13.363281 C 10.457031 13.371094 10.359375 13.375 10.265625 13.382812 C 10.109375 13.390625 9.953125 13.398438 9.796875 13.40625 C 9.535156 13.414062 9.273438 13.417969 9 13.417969 C 8.726562 13.417969 8.464844 13.414062 8.203125 13.40625 C 8.046875 13.398438 7.890625 13.390625 7.734375 13.378906 C 7.640625 13.375 7.539062 13.367188 7.445312 13.363281 C 7.242188 13.347656 7.039062 13.328125 6.84375 13.308594 C 6.804688 13.304688 6.765625 13.300781 6.730469 13.296875 C 6.5 13.273438 6.28125 13.242188 6.066406 13.210938 C 6.0625 13.210938 6.054688 13.210938 6.050781 13.210938 C 4.941406 13.046875 3.992188 12.796875 3.25 12.5 C 3.242188 12.5 3.242188 12.5 3.234375 12.496094 C 3.101562 12.441406 2.96875 12.382812 2.847656 12.328125 C 2.835938 12.320312 2.820312 12.3125 2.804688 12.304688 C 2.695312 12.253906 2.59375 12.199219 2.496094 12.140625 C 2.472656 12.132812 2.449219 12.117188 2.425781 12.101562 C 2.34375 12.054688 2.265625 12.003906 2.191406 11.953125 C 2.164062 11.933594 2.132812 11.914062 2.105469 11.894531 C 2.042969 11.847656 1.988281 11.800781 1.933594 11.753906 C 1.90625 11.726562 1.875 11.703125 1.851562 11.679688 C 1.804688 11.632812 1.765625 11.59375 1.730469 11.546875 C 1.703125 11.519531 1.679688 11.488281 1.65625 11.460938 C 1.628906 11.417969 1.605469 11.375 1.585938 11.335938 C 1.5625 11.304688 1.546875 11.273438 1.539062 11.242188 C 1.519531 11.203125 1.507812 11.160156 1.5 11.121094 C 1.484375 11.070312 1.472656 11.015625 1.472656 10.960938 C 1.472656 10.925781 1.476562 10.890625 1.484375 10.851562 C 1.492188 10.804688 1.484375 10.753906 1.472656 10.707031 L 1.472656 8.277344 C 1.484375 8.289062 1.492188 8.296875 1.5 8.304688 C 1.574219 8.367188 1.648438 8.429688 1.726562 8.488281 C 2.960938 9.421875 5.429688 10.144531 9 10.144531 C 12.558594 10.144531 15.015625 9.429688 16.257812 8.5 C 16.351562 8.429688 16.445312 8.351562 16.527344 8.277344 L 16.527344 10.707031 C 16.515625 10.753906 16.507812 10.804688 16.515625 10.851562 C 16.523438 10.890625 16.527344 10.925781 16.527344 10.960938 C 16.527344 11.015625 16.515625 11.070312 16.5 11.125 Z M 16.527344 4.351562 L 16.527344 6.78125 C 16.515625 6.828125 16.507812 6.875 16.515625 6.925781 C 16.523438 6.960938 16.527344 7 16.527344 7.039062 C 16.527344 7.089844 16.515625 7.140625 16.5 7.195312 C 16.492188 7.234375 16.476562 7.273438 16.460938 7.3125 C 16.453125 7.34375 16.433594 7.378906 16.414062 7.410156 C 16.394531 7.453125 16.371094 7.492188 16.34375 7.53125 C 16.320312 7.5625 16.296875 7.59375 16.269531 7.625 C 16.234375 7.664062 16.195312 7.710938 16.148438 7.75 C 16.125 7.777344 16.09375 7.804688 16.066406 7.828125 C 16.011719 7.875 15.953125 7.921875 15.890625 7.96875 C 15.867188 7.988281 15.835938 8.007812 15.808594 8.023438 C 15.734375 8.078125 15.65625 8.128906 15.574219 8.179688 C 15.550781 8.191406 15.527344 8.203125 15.503906 8.21875 C 15.40625 8.273438 15.304688 8.328125 15.195312 8.378906 C 15.179688 8.386719 15.164062 8.390625 15.152344 8.398438 C 15.03125 8.457031 14.898438 8.515625 14.765625 8.570312 C 14.757812 8.570312 14.757812 8.570312 14.75 8.574219 C 14.007812 8.871094 13.054688 9.121094 11.949219 9.285156 C 11.945312 9.285156 11.9375 9.285156 11.933594 9.289062 C 11.71875 9.320312 11.496094 9.34375 11.269531 9.371094 C 11.234375 9.375 11.195312 9.378906 11.15625 9.382812 C 10.960938 9.402344 10.757812 9.421875 10.554688 9.4375 C 10.457031 9.445312 10.359375 9.445312 10.265625 9.453125 C 10.109375 9.460938 9.953125 9.472656 9.796875 9.476562 C 9.535156 9.484375 9.273438 9.492188 9 9.492188 C 8.726562 9.492188 8.464844 9.484375 8.203125 9.476562 C 8.046875 9.46875 7.890625 9.460938 7.734375 9.453125 C 7.640625 9.445312 7.539062 9.445312 7.445312 9.4375 C 7.242188 9.421875 7.039062 9.402344 6.84375 9.382812 C 6.804688 9.375 6.765625 9.375 6.730469 9.371094 C 6.5 9.34375 6.28125 9.316406 6.066406 9.285156 C 6.0625 9.285156 6.054688 9.285156 6.050781 9.28125 C 4.941406 9.117188 3.992188 8.867188 3.25 8.570312 C 3.242188 8.570312 3.242188 8.570312 3.234375 8.570312 C 3.101562 8.515625 2.96875 8.457031 2.847656 8.398438 C 2.835938 8.390625 2.820312 8.382812 2.804688 8.378906 C 2.695312 8.328125 2.59375 8.273438 2.496094 8.21875 C 2.472656 8.203125 2.449219 8.1875 2.425781 8.179688 C 2.34375 8.125 2.265625 8.078125 2.191406 8.023438 C 2.164062 8.007812 2.132812 7.984375 2.105469 7.96875 C 2.042969 7.921875 1.988281 7.875 1.933594 7.828125 C 1.90625 7.800781 1.875 7.773438 1.851562 7.75 C 1.804688 7.707031 1.765625 7.664062 1.730469 7.621094 C 1.703125 7.59375 1.679688 7.5625 1.65625 7.53125 C 1.628906 7.492188 1.605469 7.453125 1.585938 7.410156 C 1.5625 7.375 1.546875 7.34375 1.539062 7.3125 C 1.519531 7.273438 1.507812 7.234375 1.5 7.195312 C 1.484375 7.140625 1.472656 7.089844 1.472656 7.039062 C 1.472656 7 1.476562 6.960938 1.484375 6.925781 C 1.492188 6.875 1.484375 6.828125 1.472656 6.78125 L 1.472656 4.351562 C 1.511719 4.386719 1.554688 4.421875 1.601562 4.457031 C 1.625 4.476562 1.644531 4.496094 1.671875 4.515625 C 1.765625 4.59375 1.875 4.667969 1.988281 4.742188 C 2.015625 4.757812 2.039062 4.773438 2.0625 4.789062 C 2.160156 4.851562 2.261719 4.90625 2.367188 4.964844 C 2.40625 4.984375 2.449219 5.007812 2.492188 5.027344 C 2.609375 5.089844 2.734375 5.148438 2.867188 5.203125 C 2.890625 5.214844 2.90625 5.226562 2.929688 5.234375 C 3.082031 5.296875 3.246094 5.359375 3.414062 5.421875 C 3.460938 5.4375 3.511719 5.453125 3.558594 5.46875 C 3.695312 5.515625 3.835938 5.558594 3.976562 5.601562 C 4.03125 5.617188 4.082031 5.632812 4.132812 5.648438 C 4.328125 5.699219 4.523438 5.75 4.730469 5.796875 C 4.757812 5.804688 4.789062 5.808594 4.820312 5.8125 C 5 5.855469 5.191406 5.890625 5.386719 5.925781 C 5.453125 5.9375 5.519531 5.949219 5.585938 5.960938 C 5.773438 5.992188 5.964844 6.015625 6.160156 6.046875 C 6.210938 6.050781 6.257812 6.058594 6.3125 6.0625 C 6.554688 6.09375 6.804688 6.117188 7.0625 6.140625 C 7.128906 6.148438 7.195312 6.148438 7.257812 6.15625 C 7.46875 6.171875 7.679688 6.179688 7.894531 6.191406 C 7.976562 6.195312 8.054688 6.199219 8.132812 6.203125 C 8.414062 6.210938 8.703125 6.21875 9 6.21875 C 9.296875 6.21875 9.585938 6.210938 9.867188 6.203125 C 9.945312 6.199219 10.023438 6.195312 10.105469 6.191406 C 10.320312 6.179688 10.53125 6.171875 10.742188 6.15625 C 10.804688 6.148438 10.871094 6.148438 10.9375 6.140625 C 11.195312 6.117188 11.445312 6.09375 11.6875 6.0625 C 11.742188 6.058594 11.789062 6.050781 11.839844 6.046875 C 12.035156 6.015625 12.226562 5.992188 12.414062 5.960938 C 12.480469 5.949219 12.546875 5.9375 12.613281 5.925781 C 12.808594 5.890625 13 5.855469 13.179688 5.8125 C 13.210938 5.808594 13.242188 5.804688 13.269531 5.796875 C 13.476562 5.75 13.671875 5.699219 13.867188 5.648438 C 13.917969 5.632812 13.96875 5.617188 14.023438 5.601562 C 14.164062 5.558594 14.304688 5.515625 14.441406 5.46875 C 14.488281 5.453125 14.539062 5.4375 14.585938 5.421875 C 14.753906 5.359375 14.917969 5.296875 15.070312 5.234375 C 15.09375 5.226562 15.109375 5.214844 15.132812 5.203125 C 15.265625 5.148438 15.390625 5.089844 15.507812 5.027344 C 15.550781 5.007812 15.59375 4.984375 15.632812 4.964844 C 15.738281 4.90625 15.839844 4.851562 15.9375 4.789062 C 15.960938 4.773438 15.984375 4.757812 16.011719 4.742188 C 16.125 4.667969 16.234375 4.59375 16.328125 4.515625 C 16.355469 4.496094 16.375 4.476562 16.398438 4.457031 C 16.445312 4.421875 16.488281 4.386719 16.527344 4.351562 Z M 9 0.65625 C 13.4375 0.65625 16.527344 1.945312 16.527344 3.109375 C 16.527344 4.269531 13.4375 5.5625 9 5.5625 C 4.5625 5.5625 1.472656 4.269531 1.472656 3.109375 C 1.472656 1.945312 4.5625 0.65625 9 0.65625 Z M 16.527344 14.957031 C 16.523438 14.972656 16.519531 14.984375 16.515625 15 C 16.332031 16.132812 13.265625 17.34375 9 17.34375 C 4.734375 17.34375 1.667969 16.132812 1.484375 15 C 1.480469 14.984375 1.476562 14.972656 1.472656 14.960938 L 1.472656 12.203125 C 1.484375 12.210938 1.492188 12.21875 1.5 12.230469 C 1.574219 12.292969 1.648438 12.355469 1.726562 12.414062 C 2.960938 13.347656 5.429688 14.070312 9 14.070312 C 12.558594 14.070312 15.015625 13.351562 16.257812 12.429688 C 16.351562 12.355469 16.445312 12.28125 16.527344 12.203125 Z M 16.527344 14.957031 "/>
  </g>
</svg>