<?xml version="1.0" encoding="UTF-8" standalone="yes"?>
<svg xmlns="http://www.w3.org/2000/svg" xmlns:xlink="http://www.w3.org/1999/xlink" width="48px" height="48px" viewBox="0 0 36 36" version="1.1">
  <g id="surface1">
    <path style=" stroke:none;fill-rule:nonzero;fill:rgb(0%,0%,0%);fill-opacity:1;" d="M 8.675781 18.152344 C 8.738281 18.839844 9.328125 19.378906 10.019531 19.378906 L 21.914062 19.378906 L 21.589844 22.976562 C 21.582031 23.011719 21.535156 23.066406 21.503906 23.082031 L 18.359375 23.933594 C 18.214844 23.972656 18.082031 24.007812 17.984375 24.035156 C 17.886719 24.007812 17.753906 23.972656 17.613281 23.933594 L 14.472656 23.085938 C 14.441406 23.070312 14.394531 23.015625 14.386719 22.980469 L 14.214844 21.085938 C 14.15625 20.394531 13.5625 19.855469 12.871094 19.855469 L 10.1875 19.855469 C 9.835938 19.855469 9.5 20.003906 9.265625 20.257812 C 9.035156 20.515625 8.917969 20.863281 8.949219 21.210938 L 9.382812 26.070312 C 9.4375 26.679688 9.921875 27.261719 10.511719 27.425781 L 17.234375 29.292969 C 17.738281 29.433594 17.894531 29.476562 18.003906 29.476562 C 18.050781 29.476562 18.089844 29.464844 18.144531 29.453125 C 18.167969 29.449219 18.175781 29.449219 18.75 29.289062 L 25.464844 27.425781 C 25.980469 27.285156 26.519531 26.886719 26.570312 26.320312 L 27.546875 15.414062 C 27.574219 15.078125 27.464844 14.746094 27.242188 14.503906 C 27.019531 14.257812 26.699219 14.121094 26.363281 14.121094 L 13.59375 14.121094 L 13.371094 11.636719 L 27.21875 11.636719 C 27.589844 11.636719 27.902344 11.351562 27.933594 10.984375 L 28.238281 7.671875 C 28.265625 7.34375 28.160156 7.027344 27.9375 6.78125 C 27.699219 6.523438 27.355469 6.375 26.992188 6.375 L 8.984375 6.375 C 8.621094 6.375 8.277344 6.523438 8.042969 6.78125 C 7.816406 7.027344 7.710938 7.339844 7.738281 7.671875 Z M 26.785156 7.8125 L 26.566406 10.203125 L 13.164062 10.203125 C 12.8125 10.203125 12.476562 10.347656 12.242188 10.605469 C 12.011719 10.859375 11.894531 11.207031 11.925781 11.558594 L 12.171875 14.324219 C 12.234375 15.015625 12.824219 15.554688 13.515625 15.554688 L 26.09375 15.554688 L 25.160156 26.015625 C 25.136719 26.023438 25.109375 26.035156 25.082031 26.042969 L 18.367188 27.90625 C 18.21875 27.945312 18.085938 27.984375 17.988281 28.011719 C 17.894531 27.988281 17.773438 27.953125 17.617188 27.910156 L 10.898438 26.046875 C 10.867188 26.03125 10.820312 25.972656 10.808594 25.9375 L 10.394531 21.289062 L 12.792969 21.289062 L 12.957031 23.113281 C 13.011719 23.726562 13.5 24.308594 14.09375 24.46875 L 17.238281 25.316406 C 17.886719 25.492188 17.886719 25.492188 17.984375 25.492188 C 18.082031 25.492188 18.082031 25.492188 18.730469 25.316406 L 21.882812 24.464844 C 22.476562 24.304688 22.964844 23.722656 23.019531 23.113281 L 23.359375 19.300781 C 23.390625 18.953125 23.277344 18.605469 23.042969 18.347656 C 22.808594 18.09375 22.472656 17.945312 22.121094 17.945312 L 10.097656 17.945312 L 9.191406 7.8125 Z M 26.785156 7.8125 "/>
    <path style=" stroke:none;fill-rule:nonzero;fill:rgb(0%,0%,0%);fill-opacity:1;" d="M 33.625 0.402344 C 33.390625 0.148438 33.054688 0 32.699219 0 L 3.300781 0 C 2.945312 0 2.609375 0.148438 2.378906 0.402344 C 2.144531 0.65625 2.027344 1.003906 2.058594 1.355469 L 4.738281 31.398438 C 4.789062 32.007812 5.277344 32.589844 5.867188 32.753906 L 17.230469 35.910156 C 17.449219 35.96875 17.714844 36 17.980469 36 C 18.246094 36 18.511719 35.96875 18.730469 35.910156 L 30.128906 32.75 C 30.71875 32.585938 31.203125 32.003906 31.257812 31.390625 L 33.941406 1.355469 C 33.972656 1.003906 33.855469 0.65625 33.625 0.402344 Z M 29.832031 31.257812 C 29.820312 31.292969 29.769531 31.355469 29.746094 31.367188 L 18.347656 34.527344 C 18.164062 34.578125 17.796875 34.578125 17.617188 34.527344 L 6.257812 31.375 C 6.226562 31.359375 6.171875 31.296875 6.164062 31.269531 L 3.503906 1.433594 L 32.496094 1.433594 Z M 29.832031 31.257812 "/>
    <path style=" stroke:none;fill-rule:nonzero;fill:rgb(0%,0%,0%);fill-opacity:1;" d="M 13.410156 2.4375 L 5.449219 2.4375 C 5.054688 2.4375 4.734375 2.757812 4.734375 3.15625 C 4.734375 3.550781 5.054688 3.871094 5.449219 3.871094 L 13.410156 3.871094 C 13.804688 3.871094 14.128906 3.550781 14.128906 3.15625 C 14.128906 2.757812 13.804688 2.4375 13.410156 2.4375 Z M 13.410156 2.4375 "/>
    <path style=" stroke:none;fill-rule:nonzero;fill:rgb(0%,0%,0%);fill-opacity:1;" d="M 16.351562 2.4375 L 16.0625 2.4375 C 15.667969 2.4375 15.347656 2.757812 15.347656 3.15625 C 15.347656 3.550781 15.667969 3.871094 16.0625 3.871094 L 16.351562 3.871094 C 16.746094 3.871094 17.066406 3.550781 17.066406 3.15625 C 17.066406 2.757812 16.746094 2.4375 16.351562 2.4375 Z M 16.351562 2.4375 "/>
  </g>
</svg>