<?xml version="1.0" encoding="UTF-8" standalone="yes"?>
<svg xmlns="http://www.w3.org/2000/svg" xmlns:xlink="http://www.w3.org/1999/xlink" width="48px" height="48px" viewBox="0 0 36 36" version="1.1">
  <g id="surface1">
    <path style=" stroke:none;fill-rule:nonzero;fill:rgb(0%,0%,0%);fill-opacity:1;" d="M 35.992188 6.710938 C 35.992188 6.695312 35.996094 6.683594 36 6.667969 C 36.003906 6.625 35.996094 6.578125 35.992188 6.535156 C 35.992188 6.523438 35.992188 6.511719 35.992188 6.5 C 35.980469 6.441406 35.960938 6.382812 35.929688 6.328125 C 35.925781 6.316406 35.917969 6.308594 35.914062 6.296875 C 35.914062 6.296875 35.914062 6.296875 35.914062 6.292969 C 35.910156 6.292969 35.910156 6.292969 35.910156 6.289062 C 35.90625 6.285156 35.902344 6.277344 35.898438 6.269531 C 35.859375 6.214844 35.816406 6.171875 35.765625 6.132812 C 35.753906 6.125 35.742188 6.117188 35.726562 6.109375 C 35.683594 6.082031 35.636719 6.058594 35.585938 6.042969 C 35.566406 6.035156 35.542969 6.03125 35.519531 6.027344 C 35.476562 6.019531 35.433594 6.011719 35.386719 6.015625 C 35.363281 6.015625 35.339844 6.015625 35.316406 6.019531 C 35.300781 6.023438 35.285156 6.019531 35.269531 6.023438 L 0.476562 13.214844 C 0.230469 13.265625 0.0429688 13.464844 0.0078125 13.71875 C -0.03125 13.96875 0.0976562 14.214844 0.320312 14.332031 L 10.289062 19.589844 L 12.035156 29.292969 C 12.035156 29.300781 12.039062 29.308594 12.035156 29.3125 C 12.03125 29.363281 12.03125 29.410156 12.035156 29.457031 C 12.039062 29.480469 12.042969 29.503906 12.046875 29.527344 C 12.0625 29.582031 12.085938 29.636719 12.113281 29.6875 C 12.121094 29.695312 12.121094 29.707031 12.125 29.71875 C 12.128906 29.71875 12.132812 29.722656 12.132812 29.726562 C 12.140625 29.738281 12.152344 29.746094 12.160156 29.757812 C 12.191406 29.792969 12.21875 29.824219 12.253906 29.851562 C 12.257812 29.855469 12.261719 29.859375 12.265625 29.867188 C 12.277344 29.871094 12.285156 29.875 12.296875 29.878906 C 12.332031 29.902344 12.371094 29.921875 12.410156 29.9375 C 12.425781 29.945312 12.441406 29.953125 12.457031 29.957031 C 12.511719 29.972656 12.566406 29.984375 12.625 29.984375 C 12.628906 29.984375 12.628906 29.980469 12.632812 29.980469 C 12.644531 29.984375 12.652344 29.984375 12.664062 29.984375 C 12.828125 29.984375 12.980469 29.910156 13.089844 29.792969 L 19.730469 25.367188 L 26.683594 29.886719 C 26.78125 29.949219 26.894531 29.984375 27.011719 29.984375 C 27.074219 29.984375 27.136719 29.972656 27.199219 29.953125 C 27.371094 29.894531 27.511719 29.761719 27.574219 29.589844 L 35.960938 6.820312 C 35.96875 6.800781 35.976562 6.78125 35.980469 6.757812 C 35.984375 6.75 35.984375 6.738281 35.984375 6.730469 C 35.988281 6.726562 35.988281 6.71875 35.992188 6.710938 Z M 29.046875 10.535156 L 14.667969 21.109375 C 14.644531 21.128906 14.625 21.148438 14.605469 21.167969 C 14.597656 21.175781 14.589844 21.183594 14.582031 21.191406 C 14.570312 21.203125 14.558594 21.21875 14.546875 21.234375 C 14.535156 21.246094 14.527344 21.261719 14.519531 21.277344 C 14.496094 21.3125 14.476562 21.351562 14.464844 21.390625 C 14.460938 21.398438 14.457031 21.402344 14.453125 21.410156 C 14.453125 21.414062 14.449219 21.414062 14.449219 21.417969 L 12.800781 26.773438 L 11.496094 19.527344 Z M 13.730469 27.925781 L 15.363281 22.53125 L 17.910156 24.183594 L 18.636719 24.65625 L 16.164062 26.304688 Z M 31.195312 8.089844 L 10.832031 18.519531 L 2.355469 14.050781 Z M 26.707031 28.472656 L 17.472656 22.472656 L 16.074219 21.5625 L 34.148438 8.273438 Z M 26.707031 28.472656 "/>
  </g>
</svg>