<?xml version="1.0" encoding="UTF-8" standalone="yes"?>
<svg xmlns="http://www.w3.org/2000/svg" xmlns:xlink="http://www.w3.org/1999/xlink" width="24px" height="24px" viewBox="0 0 18 18" version="1.1">
  <g id="surface1">
    <path style=" stroke:none;fill-rule:nonzero;fill:rgb(0%,0%,0%);fill-opacity:1;" d="M 17.101562 0 L 0.898438 0 C 0.390625 0 0 0.390625 0 0.898438 L 0 14.699219 C 0 14.882812 0.117188 15 0.300781 15 L 6.300781 15 L 6.300781 17.398438 L 4.800781 17.398438 L 4.800781 18 L 14.398438 18 C 14.757812 18 15 17.757812 15 17.398438 L 15 15 L 17.699219 15 C 17.882812 15 18 14.882812 18 14.699219 L 18 0.898438 C 18 0.390625 17.609375 0 17.101562 0 Z M 0.601562 0.898438 C 0.601562 0.71875 0.71875 0.601562 0.898438 0.601562 L 17.101562 0.601562 C 17.28125 0.601562 17.398438 0.71875 17.398438 0.898438 L 17.398438 11.699219 L 16.5 11.699219 L 16.5 1.800781 C 16.5 1.617188 16.382812 1.5 16.199219 1.5 L 1.800781 1.5 C 1.617188 1.5 1.5 1.617188 1.5 1.800781 L 1.5 11.699219 L 0.601562 11.699219 Z M 14.398438 10.199219 L 9.601562 10.199219 L 9.601562 8.398438 L 14.398438 8.398438 Z M 9.601562 10.800781 L 14.398438 10.800781 L 14.398438 15.601562 L 9.601562 15.601562 Z M 14.398438 7.800781 L 9.601562 7.800781 C 9.242188 7.800781 9 8.039062 9 8.398438 L 9 11.699219 L 2.101562 11.699219 L 2.101562 2.101562 L 15.898438 2.101562 L 15.898438 11.699219 L 15 11.699219 L 15 8.398438 C 15 8.039062 14.757812 7.800781 14.398438 7.800781 Z M 0.601562 12.300781 L 9 12.300781 L 9 14.398438 L 0.601562 14.398438 Z M 6.898438 17.398438 L 6.898438 15 L 9 15 L 9 17.398438 Z M 9.601562 17.398438 L 9.601562 16.199219 L 14.398438 16.199219 L 14.398438 17.398438 Z M 15 14.398438 L 15 12.300781 L 17.398438 12.300781 L 17.398438 14.398438 Z M 15 14.398438 "/>
    <path style=" stroke:none;fill-rule:nonzero;fill:rgb(0%,0%,0%);fill-opacity:1;" d="M 11.398438 9 L 12.601562 9 L 12.601562 9.601562 L 11.398438 9.601562 Z M 11.398438 9 "/>
    <path style=" stroke:none;fill-rule:nonzero;fill:rgb(0%,0%,0%);fill-opacity:1;" d="M 11.398438 16.5 L 12.601562 16.5 L 12.601562 17.101562 L 11.398438 17.101562 Z M 11.398438 16.5 "/>
  </g>
</svg>