<?xml version="1.0" encoding="UTF-8" standalone="yes"?>
<svg xmlns="http://www.w3.org/2000/svg" xmlns:xlink="http://www.w3.org/1999/xlink" width="24px" height="24px" viewBox="0 0 18 18" version="1.1">
  <g id="surface1">
    <path style=" stroke:none;fill-rule:nonzero;fill:rgb(0%,0%,0%);fill-opacity:1;" d="M 9.492188 11.398438 C 9.804688 11.375 10.085938 11.210938 10.273438 10.960938 L 13.078125 7.078125 C 13.167969 6.957031 13.15625 6.792969 13.046875 6.6875 C 12.945312 6.585938 12.78125 6.570312 12.664062 6.65625 L 8.777344 9.46875 C 8.523438 9.648438 8.367188 9.9375 8.34375 10.25 C 8.316406 10.5625 8.429688 10.867188 8.648438 11.085938 C 8.851562 11.289062 9.125 11.398438 9.40625 11.398438 C 9.433594 11.398438 9.460938 11.398438 9.492188 11.398438 Z M 8.9375 10.296875 C 8.949219 10.15625 9.019531 10.03125 9.132812 9.953125 L 11.5 8.238281 L 9.789062 10.609375 C 9.703125 10.71875 9.578125 10.789062 9.445312 10.796875 C 9.304688 10.804688 9.171875 10.757812 9.074219 10.664062 C 8.976562 10.566406 8.929688 10.429688 8.9375 10.296875 Z M 8.9375 10.296875 "/>
    <path style=" stroke:none;fill-rule:nonzero;fill:rgb(0%,0%,0%);fill-opacity:1;" d="M 16.210938 5.867188 C 16.207031 5.863281 16.207031 5.855469 16.203125 5.851562 C 16.203125 5.84375 16.195312 5.839844 16.191406 5.835938 C 15.886719 5.3125 15.53125 4.828125 15.121094 4.390625 L 15.765625 3.75 L 16.1875 4.171875 L 17.460938 2.898438 L 16.1875 1.625 L 14.914062 2.898438 L 15.34375 3.324219 L 14.695312 3.96875 C 14.257812 3.5625 13.773438 3.203125 13.253906 2.898438 C 13.25 2.894531 13.246094 2.890625 13.242188 2.882812 C 13.234375 2.882812 13.226562 2.882812 13.21875 2.878906 C 12.292969 2.34375 11.25 1.988281 10.140625 1.859375 L 10.140625 1.5 L 10.585938 1.5 C 11 1.5 11.335938 1.164062 11.335938 0.75 C 11.335938 0.335938 11 0 10.585938 0 L 7.890625 0 C 7.476562 0 7.140625 0.335938 7.140625 0.75 C 7.140625 1.164062 7.476562 1.5 7.890625 1.5 L 8.335938 1.5 L 8.335938 1.847656 C 8.015625 1.882812 7.691406 1.933594 7.371094 2.007812 C 7.210938 2.046875 7.109375 2.203125 7.144531 2.367188 C 7.179688 2.527344 7.34375 2.628906 7.503906 2.59375 C 7.78125 2.53125 8.058594 2.480469 8.335938 2.449219 L 8.660156 2.421875 C 8.757812 2.414062 8.851562 2.410156 8.9375 2.40625 L 8.9375 3 C 8.9375 3.164062 9.070312 3.300781 9.238281 3.300781 C 9.40625 3.300781 9.539062 3.164062 9.539062 3 L 9.539062 2.40625 C 10.664062 2.460938 11.726562 2.765625 12.671875 3.261719 L 12.378906 3.773438 C 12.296875 3.917969 12.34375 4.101562 12.488281 4.183594 C 12.535156 4.210938 12.585938 4.226562 12.640625 4.226562 C 12.742188 4.226562 12.84375 4.171875 12.898438 4.074219 L 13.195312 3.5625 C 14.132812 4.160156 14.929688 4.957031 15.523438 5.894531 L 15.015625 6.1875 C 14.871094 6.273438 14.820312 6.457031 14.90625 6.601562 C 14.960938 6.695312 15.0625 6.75 15.164062 6.75 C 15.21875 6.75 15.265625 6.734375 15.3125 6.710938 L 15.828125 6.414062 C 16.332031 7.375 16.636719 8.453125 16.679688 9.601562 L 16.089844 9.601562 C 15.921875 9.601562 15.789062 9.734375 15.789062 9.898438 C 15.789062 10.066406 15.921875 10.199219 16.089844 10.199219 L 16.679688 10.199219 C 16.636719 11.34375 16.332031 12.425781 15.828125 13.382812 L 15.3125 13.089844 C 15.171875 13.007812 14.988281 13.054688 14.90625 13.199219 C 14.820312 13.34375 14.871094 13.527344 15.015625 13.609375 L 15.523438 13.90625 C 14.929688 14.84375 14.132812 15.640625 13.195312 16.234375 L 12.898438 15.726562 C 12.816406 15.578125 12.632812 15.53125 12.492188 15.617188 C 12.34375 15.695312 12.296875 15.882812 12.378906 16.023438 L 12.675781 16.539062 C 11.730469 17.035156 10.664062 17.335938 9.539062 17.390625 L 9.539062 16.800781 C 9.539062 16.632812 9.40625 16.5 9.238281 16.5 C 9.070312 16.5 8.9375 16.632812 8.9375 16.800781 L 8.9375 17.390625 C 8.460938 17.375 7.976562 17.316406 7.507812 17.207031 C 7.34375 17.171875 7.183594 17.273438 7.148438 17.433594 C 7.109375 17.59375 7.210938 17.757812 7.371094 17.792969 C 7.96875 17.929688 8.582031 18 9.1875 18 C 9.203125 18 9.21875 18 9.234375 18 C 9.234375 18 9.234375 18 9.238281 18 C 9.242188 18 9.242188 18 9.242188 18 C 10.6875 17.988281 12.039062 17.601562 13.210938 16.925781 C 13.21875 16.921875 13.230469 16.921875 13.238281 16.914062 C 13.242188 16.914062 13.25 16.90625 13.253906 16.902344 C 14.464844 16.195312 15.476562 15.183594 16.1875 13.972656 C 16.191406 13.964844 16.199219 13.960938 16.203125 13.949219 C 16.207031 13.945312 16.207031 13.9375 16.210938 13.929688 C 16.894531 12.742188 17.289062 11.367188 17.289062 9.898438 C 17.289062 8.433594 16.894531 7.054688 16.210938 5.867188 Z M 16.1875 2.476562 L 16.613281 2.898438 L 16.1875 3.324219 L 15.765625 2.898438 Z M 8.9375 1.804688 L 8.9375 0.898438 L 7.890625 0.898438 C 7.804688 0.898438 7.738281 0.832031 7.738281 0.75 C 7.738281 0.667969 7.804688 0.601562 7.890625 0.601562 L 10.585938 0.601562 C 10.671875 0.601562 10.738281 0.667969 10.738281 0.75 C 10.738281 0.832031 10.671875 0.898438 10.585938 0.898438 L 9.539062 0.898438 L 9.539062 1.804688 C 9.433594 1.804688 9.335938 1.800781 9.238281 1.800781 C 9.230469 1.800781 9.21875 1.800781 9.210938 1.800781 C 9.203125 1.800781 9.195312 1.800781 9.1875 1.800781 C 9.140625 1.800781 9.089844 1.804688 9.039062 1.804688 C 9.007812 1.804688 8.976562 1.804688 8.9375 1.804688 Z M 8.9375 1.804688 "/>
    <path style=" stroke:none;fill-rule:nonzero;fill:rgb(0%,0%,0%);fill-opacity:1;" d="M 6.539062 4.199219 L 5.039062 4.199219 C 4.871094 4.199219 4.738281 4.335938 4.738281 4.5 C 4.738281 4.664062 4.871094 4.800781 5.039062 4.800781 L 6.539062 4.800781 C 6.703125 4.800781 6.835938 4.664062 6.835938 4.5 C 6.835938 4.335938 6.703125 4.199219 6.539062 4.199219 Z M 6.539062 4.199219 "/>
    <path style=" stroke:none;fill-rule:nonzero;fill:rgb(0%,0%,0%);fill-opacity:1;" d="M 6.539062 6.300781 L 3.539062 6.300781 C 3.371094 6.300781 3.238281 6.433594 3.238281 6.601562 C 3.238281 6.765625 3.371094 6.898438 3.539062 6.898438 L 6.539062 6.898438 C 6.703125 6.898438 6.835938 6.765625 6.835938 6.601562 C 6.835938 6.433594 6.703125 6.300781 6.539062 6.300781 Z M 6.539062 6.300781 "/>
    <path style=" stroke:none;fill-rule:nonzero;fill:rgb(0%,0%,0%);fill-opacity:1;" d="M 6.539062 8.398438 L 2.039062 8.398438 C 1.871094 8.398438 1.738281 8.53125 1.738281 8.699219 C 1.738281 8.867188 1.871094 9 2.039062 9 L 6.539062 9 C 6.703125 9 6.835938 8.867188 6.835938 8.699219 C 6.835938 8.53125 6.703125 8.398438 6.539062 8.398438 Z M 6.539062 8.398438 "/>
    <path style=" stroke:none;fill-rule:nonzero;fill:rgb(0%,0%,0%);fill-opacity:1;" d="M 6.539062 10.5 L 0.835938 10.5 C 0.671875 10.5 0.539062 10.632812 0.539062 10.800781 C 0.539062 10.96875 0.671875 11.101562 0.835938 11.101562 L 6.539062 11.101562 C 6.703125 11.101562 6.835938 10.96875 6.835938 10.800781 C 6.835938 10.632812 6.703125 10.5 6.539062 10.5 Z M 6.539062 10.5 "/>
    <path style=" stroke:none;fill-rule:nonzero;fill:rgb(0%,0%,0%);fill-opacity:1;" d="M 6.539062 12.601562 L 2.640625 12.601562 C 2.472656 12.601562 2.335938 12.734375 2.335938 12.898438 C 2.335938 13.066406 2.472656 13.199219 2.640625 13.199219 L 6.539062 13.199219 C 6.703125 13.199219 6.835938 13.066406 6.835938 12.898438 C 6.835938 12.734375 6.703125 12.601562 6.539062 12.601562 Z M 6.539062 12.601562 "/>
    <path style=" stroke:none;fill-rule:nonzero;fill:rgb(0%,0%,0%);fill-opacity:1;" d="M 6.539062 14.699219 L 4.4375 14.699219 C 4.273438 14.699219 4.140625 14.835938 4.140625 15 C 4.140625 15.164062 4.273438 15.300781 4.4375 15.300781 L 6.539062 15.300781 C 6.703125 15.300781 6.835938 15.164062 6.835938 15 C 6.835938 14.835938 6.703125 14.699219 6.539062 14.699219 Z M 6.539062 14.699219 "/>
  </g>
</svg>