<svg xmlns="http://www.w3.org/2000/svg" width="32" height="32" viewBox="0 0 24 24">
    <path d="M23.707 6.516c.191-.606.293-1.25.293-1.914 0-.243-.16-.403-.398-.403H7.199c-.238 0-.398.16-.398.403v.796H.398c-.238 0-.398.16-.398.403A5.19 5.19 0 0 0 5.2 11h2.648c.414.406.734.852.953 1.36.031.062.066.109.11.148.218.539.327 1.113.327 1.691a4.5 4.5 0 0 1-1.351 3.2H6.398c-.68 0-1.199.523-1.199 1.203S5.72 19.8 6.4 19.8h11.203c.68 0 1.199-.52 1.199-1.2 0-.68-.52-1.203-1.2-1.203h-1.453c-.875-.835-1.347-2.015-1.347-3.199 0-1.18.472-2.363 1.312-3.199h1.489c2.57 0 4.804-1.54 5.816-3.742a.831.831 0 0 0 .062-.098c.082-.21.16-.426.227-.644zM7.602 5h15.597a5.508 5.508 0 0 1-.36 1.602H7.603zm1.32 6h6.156c-.183.254-.348.52-.492.8H9.44c-.16-.28-.32-.562-.52-.8zM.84 6.2H6.8v4H5.239a4.4 4.4 0 0 1-4.398-4zM18 18.601c0 .238-.16.398-.398.398H6.398C6.16 19 6 18.84 6 18.602c0-.243.16-.403.398-.403h11.204c.238 0 .398.16.398.403zm-2.922-1.204H8.922C9.64 16.48 10 15.36 10 14.2a5.35 5.35 0 0 0-.242-1.597h4.5A5.125 5.125 0 0 0 14 14.199c0 1.16.398 2.281 1.078 3.2zm2.524-7.199h-10V7.4h14.867a5.617 5.617 0 0 1-4.867 2.8zm0 0"/>
</svg>
