<svg xmlns="http://www.w3.org/2000/svg" width="32" height="32" viewBox="0 0 24 24">
    <path d="M 23.601562 4.800781 L 20.398438 4.800781 L 20.398438 3.609375 C 20.886719 3.246094 21.199219 2.667969 21.199219 2 C 21.199219 0.878906 20.320312 0 19.199219 0 C 18.078125 0 17.199219 0.878906 17.199219 2 C 17.199219 2.667969 17.511719 3.246094 18 3.609375 L 18 4.800781 L 6 4.800781 L 6 3.609375 C 6.488281 3.246094 6.800781 2.667969 6.800781 2 C 6.800781 0.878906 5.921875 0 4.800781 0 C 3.679688 0 2.800781 0.878906 2.800781 2 C 2.800781 2.660156 3.117188 3.234375 3.601562 3.597656 L 3.601562 4.800781 L 0.398438 4.800781 C 0.160156 4.800781 0 4.960938 0 5.199219 L 0 10 C 0 10.238281 0.160156 10.398438 0.398438 10.398438 L 3.601562 10.398438 L 3.601562 11.199219 L 0.398438 11.199219 C 0.160156 11.199219 0 11.359375 0 11.601562 L 0 16.398438 C 0 16.640625 0.160156 16.800781 0.398438 16.800781 L 3.601562 16.800781 L 3.601562 23.601562 C 3.601562 23.839844 3.761719 24 4 24 L 5.601562 24 C 5.839844 24 6 23.839844 6 23.601562 L 6 22 L 18 22 L 18 23.601562 C 18 23.839844 18.160156 24 18.398438 24 L 20 24 C 20.238281 24 20.398438 23.839844 20.398438 23.601562 L 20.398438 16.800781 L 23.601562 16.800781 C 23.71875 16.800781 23.820312 16.761719 23.890625 16.691406 C 23.960938 16.621094 24 16.519531 24 16.398438 L 24 11.601562 C 24 11.359375 23.839844 11.199219 23.601562 11.199219 L 20.398438 11.199219 L 20.398438 10.398438 L 23.601562 10.398438 C 23.71875 10.398438 23.820312 10.359375 23.890625 10.289062 C 23.960938 10.21875 24 10.121094 24 10 L 24 5.199219 C 24 4.960938 23.839844 4.800781 23.601562 4.800781 Z M 23.199219 7.558594 L 21.160156 9.601562 L 16.640625 9.601562 L 20.640625 5.601562 L 23.199219 5.601562 Z M 18 18.800781 L 6 18.800781 L 6 16.800781 L 18 16.800781 Z M 9.320312 12 L 13.839844 12 L 9.839844 16 L 5.320312 16 Z M 15.480469 16 L 10.960938 16 L 14.960938 12 L 19.480469 12 Z M 14.800781 11.199219 L 6 11.199219 L 6 10.398438 L 18 10.398438 L 18 11.199219 Z M 14.960938 5.601562 L 19.480469 5.601562 L 15.480469 9.601562 L 10.960938 9.601562 Z M 19.199219 0.800781 C 19.878906 0.800781 20.398438 1.320312 20.398438 2 C 20.398438 2.390625 20.230469 2.726562 19.957031 2.941406 C 19.902344 2.949219 19.847656 2.96875 19.800781 3 C 19.398438 3.238281 19 3.238281 18.601562 3 C 18.550781 2.96875 18.5 2.949219 18.445312 2.941406 C 18.171875 2.726562 18 2.390625 18 2 C 18 1.320312 18.519531 0.800781 19.199219 0.800781 Z M 18.800781 3.960938 C 18.929688 3.988281 19.0625 4 19.199219 4 C 19.335938 4 19.472656 3.988281 19.601562 3.960938 L 19.601562 4.800781 L 18.800781 4.800781 Z M 9.839844 9.601562 L 5.320312 9.601562 L 9.320312 5.601562 L 13.839844 5.601562 Z M 4.800781 0.800781 C 5.480469 0.800781 6 1.320312 6 2 C 6 2.390625 5.828125 2.726562 5.554688 2.941406 C 5.5 2.949219 5.445312 2.96875 5.398438 3 C 5 3.238281 4.601562 3.238281 4.199219 3 C 4.152344 2.96875 4.097656 2.949219 4.042969 2.941406 C 3.769531 2.726562 3.601562 2.390625 3.601562 2 C 3.601562 1.320312 4.160156 0.800781 4.800781 0.800781 Z M 4.398438 3.960938 C 4.40625 3.960938 4.410156 3.960938 4.414062 3.960938 C 4.539062 3.988281 4.667969 4 4.800781 4 C 4.9375 4 5.070312 3.988281 5.199219 3.960938 L 5.199219 4.800781 L 4.398438 4.800781 Z M 0.800781 5.601562 L 2.519531 5.601562 L 0.800781 7.320312 Z M 0.800781 8.441406 L 3.640625 5.601562 L 8.160156 5.601562 L 4.160156 9.601562 L 0.800781 9.601562 Z M 4.398438 10.398438 L 5.199219 10.398438 L 5.199219 11.199219 L 4.398438 11.199219 Z M 0.800781 12 L 2.519531 12 L 0.800781 13.71875 Z M 0.800781 14.839844 L 3.640625 12 L 8.160156 12 L 4.160156 16 L 0.800781 16 Z M 5.199219 23.199219 L 4.398438 23.199219 L 4.398438 16.800781 L 5.199219 16.800781 Z M 6 21.199219 L 6 19.601562 L 18 19.601562 L 18 21.199219 Z M 19.601562 23.199219 L 18.800781 23.199219 L 18.800781 16.800781 L 19.601562 16.800781 Z M 23.199219 16 L 22.28125 16 L 23.199219 15.078125 Z M 23.199219 13.960938 L 21.160156 16 L 16.640625 16 L 20.640625 12 L 23.199219 12 Z M 19.601562 11.199219 L 18.800781 11.199219 L 18.800781 10.398438 L 19.601562 10.398438 Z M 22.28125 9.601562 L 22.738281 9.140625 L 23.199219 8.679688 L 23.199219 9.601562 Z M 22.28125 9.601562"/>
</svg>
