<svg xmlns="http://www.w3.org/2000/svg" width="32" height="32" viewBox="0 0 24 24">
    <path d="M16.398 2.398h-1.597V1.2C14.8.56 14.28 0 13.6 0h-3.203C9.762 0 9.2.52 9.2 1.2v1.198H7.602c-.68 0-1.204.524-1.204 1.204V22.8c0 .68.524 1.199 1.204 1.199h8.796c.68 0 1.204-.52 1.204-1.2V3.603c0-.68-.524-1.204-1.204-1.204zM10 1.2c0-.199.2-.398.398-.398h3.204a.4.4 0 0 1 .398.398v1.2h-4zm6.8 21.602c0 .238-.16.398-.402.398H7.602c-.243 0-.403-.16-.403-.398V3.6c0-.203.2-.402.403-.402h8.796c.243 0 .403.16.403.403zm0 0"/>
    <path d="M12.398 7.2v-.802c0-.238-.16-.398-.398-.398-.238 0-.398.16-.398.398V7.2H10.8c-.242 0-.403.16-.403.403 0 .238.16.398.403.398h.8v.8c0 .24.16.4.399.4.238 0 .398-.16.398-.4V8h.801c.242 0 .403-.16.403-.398 0-.243-.16-.403-.403-.403zm0 0"/>
    <path d="M12 4.8a2.783 2.783 0 0 0-2.8 2.802 2.783 2.783 0 0 0 2.8 2.796c1.559 0 2.8-1.238 2.8-2.796C14.8 6.039 13.56 4.8 12 4.8zm0 4.802c-1.121 0-2-.883-2-2 0-1.122.879-2 2-2s2 .878 2 2c0 1.117-.879 2-2 2zm0 0M10.8 18.398c-.241 0-.402.16-.402.403 0 .238.16.398.403.398h2.398c.242 0 .403-.16.403-.398 0-.242-.16-.403-.403-.403zm0 0"/>
    <path d="M12 16a2.783 2.783 0 0 0-2.8 2.8c0 1.56 1.241 2.802 2.8 2.802 1.559 0 2.8-1.243 2.8-2.801C14.8 17.238 13.56 16 12 16zm0 4.8c-1.121 0-2-.878-2-2 0-1.12.879-2 2-2s2 .88 2 2c0 1.122-.879 2-2 2zm0 0"/>
</svg>
