<svg xmlns="http://www.w3.org/2000/svg" width="32" height="32" viewBox="0 0 24 24">
    <path d="M 23.878906 7.199219 L 22.566406 5.886719 C 22.546875 5.84375 22.519531 5.796875 22.480469 5.761719 C 22.441406 5.722656 22.398438 5.691406 22.351562 5.671875 L 16.800781 0.121094 C 16.640625 -0.0390625 16.398438 -0.0390625 16.238281 0.121094 L 0.121094 16.238281 C -0.0390625 16.398438 -0.0390625 16.640625 0.121094 16.800781 L 7.199219 23.878906 C 7.28125 23.960938 7.359375 24 7.480469 24 C 7.601562 24 7.679688 23.960938 7.761719 23.878906 L 23.878906 7.761719 C 24.039062 7.601562 24.039062 7.359375 23.878906 7.199219 Z M 7.480469 23.039062 L 6.640625 22.199219 L 9.761719 19.078125 C 9.921875 18.921875 9.921875 18.679688 9.761719 18.519531 C 9.601562 18.359375 9.359375 18.359375 9.199219 18.519531 L 6.078125 21.640625 L 5.199219 20.761719 L 6.320312 19.640625 C 6.480469 19.480469 6.480469 19.238281 6.320312 19.078125 C 6.160156 18.921875 5.921875 18.921875 5.761719 19.078125 L 4.640625 20.199219 L 3.800781 19.359375 L 6.921875 16.238281 C 7.078125 16.078125 7.078125 15.839844 6.921875 15.679688 C 6.761719 15.519531 6.519531 15.519531 6.359375 15.679688 L 3.238281 18.800781 L 2.398438 17.960938 L 6.921875 13.441406 C 7.078125 13.28125 7.078125 13.039062 6.921875 12.878906 C 6.761719 12.71875 6.519531 12.71875 6.359375 12.878906 L 1.839844 17.398438 L 0.960938 16.519531 L 16.519531 0.960938 L 18.800781 3.238281 L 15.960938 6.078125 C 15.800781 6.238281 15.800781 6.480469 15.960938 6.640625 C 16.039062 6.71875 16.121094 6.761719 16.238281 6.761719 C 16.359375 6.761719 16.441406 6.71875 16.519531 6.640625 L 19.359375 3.800781 L 20.21875 4.660156 L 19.078125 5.800781 C 18.921875 5.960938 18.921875 6.199219 19.078125 6.359375 C 19.160156 6.441406 19.238281 6.480469 19.359375 6.480469 C 19.480469 6.480469 19.558594 6.441406 19.640625 6.359375 L 20.78125 5.21875 L 21.621094 6.058594 L 19.921875 7.761719 C 19.761719 7.921875 19.761719 8.160156 19.921875 8.320312 C 20 8.398438 20.078125 8.441406 20.199219 8.441406 C 20.320312 8.441406 20.398438 8.398438 20.480469 8.320312 L 22.179688 6.621094 L 23.039062 7.480469 Z M 7.480469 23.039062"/>
    <path d="M8.601562 11.558594C8.71875 11.558594 8.839844 11.519531 8.878906 11.441406L12.558594 7.761719C12.71875 7.601562 12.71875 7.359375 12.558594 7.199219 12.398438 7.039062 12.160156 7.039062 12 7.199219L8.320312 10.878906C8.160156 11.039062 8.160156 11.28125 8.320312 11.441406 8.398438 11.519531 8.480469 11.558594 8.601562 11.558594zM13.71875 6.480469C13.800781 6.480469 13.921875 6.441406 14 6.359375L16.558594 3.800781C16.71875 3.640625 16.71875 3.398438 16.558594 3.238281 16.398438 3.078125 16.160156 3.078125 16 3.238281L13.441406 5.800781C13.28125 5.960938 13.28125 6.199219 13.441406 6.359375 13.519531 6.441406 13.601562 6.480469 13.71875 6.480469zM14.839844 7.199219L12.558594 9.480469C12.398438 9.640625 12.398438 9.878906 12.558594 10.039062 12.640625 10.121094 12.71875 10.160156 12.839844 10.160156 12.960938 10.160156 13.078125 10.121094 13.121094 10.039062L15.398438 7.761719C15.558594 7.601562 15.558594 7.359375 15.398438 7.199219 15.238281 7.039062 15 7.039062 14.839844 7.199219zM15.679688 9.71875C15.761719 9.800781 15.839844 9.839844 15.960938 9.839844 16.078125 9.839844 16.160156 9.800781 16.238281 9.71875L18.238281 7.71875C18.398438 7.558594 18.398438 7.320312 18.238281 7.160156 18.078125 7 17.839844 7 17.679688 7.160156L15.679688 9.160156C15.519531 9.320312 15.519531 9.558594 15.679688 9.71875zM10.878906 14.558594C10.558594 14.238281 10.078125 14.238281 9.761719 14.558594 9.441406 14.878906 9.441406 15.359375 9.761719 15.679688 10.078125 16 10.558594 16 10.878906 15.679688 11.199219 15.359375 11.199219 14.878906 10.878906 14.558594zM10.878906 14.558594"/>
    <path d="M11.71875 11.441406C11.878906 11.28125 11.878906 11.039062 11.71875 10.878906 11.558594 10.71875 11.320312 10.71875 11.160156 10.878906L8.601562 13.441406C7.960938 14.078125 7.761719 15.480469 8.359375 16.519531L7.480469 17.398438C7.320312 17.558594 7.320312 17.800781 7.480469 17.960938 7.558594 18.039062 7.640625 18.078125 7.761719 18.078125 7.878906 18.078125 7.960938 18.039062 8.078125 17.921875L9.199219 16.800781C9.359375 16.679688 9.359375 16.441406 9.238281 16.28125 8.640625 15.558594 8.800781 14.398438 9.199219 14zM12.28125 13.679688L14.839844 11.121094C15 10.960938 15 10.71875 14.839844 10.558594 14.679688 10.398438 14.441406 10.398438 14.28125 10.558594L11.441406 13.398438C11.359375 13.480469 11.320312 13.558594 11.320312 13.679688 11.320312 13.800781 11.359375 13.878906 11.441406 13.960938 11.679688 14.199219 11.960938 14.601562 12 15.039062 12.039062 15.441406 11.839844 15.839844 11.441406 16.238281L10.601562 17.078125C10.441406 17.238281 10.441406 17.480469 10.601562 17.640625 10.679688 17.71875 10.761719 17.761719 10.878906 17.761719 11 17.761719 11.078125 17.71875 11.160156 17.601562L12 16.761719C12.558594 16.199219 12.839844 15.601562 12.800781 14.960938 12.761719 14.519531 12.601562 14.078125 12.28125 13.679688zM16.558594 11.160156L13.71875 14C13.558594 14.160156 13.558594 14.398438 13.71875 14.558594 13.800781 14.640625 13.878906 14.679688 14 14.679688 14.078125 14.679688 14.199219 14.640625 14.28125 14.558594L17.121094 11.71875C17.28125 11.558594 17.28125 11.320312 17.121094 11.160156 16.960938 11 16.71875 11 16.558594 11.160156zM18.519531 9.199219L17.960938 9.761719C17.800781 9.921875 17.800781 10.160156 17.960938 10.320312 18.039062 10.398438 18.121094 10.441406 18.238281 10.441406 18.320312 10.441406 18.441406 10.398438 18.519531 10.320312L19.078125 9.761719C19.238281 9.601562 19.238281 9.359375 19.078125 9.199219 18.921875 9.039062 18.679688 9.039062 18.519531 9.199219zM18.519531 9.199219"/>
</svg>
