<svg xmlns="http://www.w3.org/2000/svg" width="32" height="32" viewBox="0 0 24 24">
    <path d="M14.602 14.96a1.266 1.266 0 0 0-1.043-.562h-.36v-1.476l1.52-2.281a.542.542 0 0 0 .082-.243v-10C14.8.16 14.64 0 14.398 0H9.602c-.243 0-.403.16-.403.398v10c0 .082.04.16.082.243l1.52 2.28v1.477h-.32c-.442 0-.84.204-1.083.563-.238.32-.277.758-.117 1.16l.32.8c0 .04.04.079.04.079.437.762.48 1.68.12 2.922-.12.238-.16.558-.16.879v.918c0 1.242 1.04 2.281 2.278 2.281h.242c1.238 0 2.277-1.04 2.277-2.281V20.8c0-.32-.039-.602-.16-.88-.316-1.16-.316-2.202.121-2.921.04 0 .04-.04.04-.04l.32-.839c.16-.36.12-.8-.117-1.16zM10 .8h4v1.598h-4zm0 2.4h4v7.081l-1.398 2.117h-1.16L10 10.281zm1.602 10h.796v1.198h-.796zm2.359 2.64l-.32.8c-.52.88-.602 2.16-.16 3.56.078.198.12.402.12.6v.919c0 .8-.64 1.48-1.48 1.48h-.242a1.495 1.495 0 0 1-1.305-.8h.625c.242 0 .403-.16.403-.399 0-.238-.16-.398-.403-.398h-.8V20.8h.8c.242 0 .403-.16.403-.403 0-.238-.16-.398-.403-.398h-.636c.355-1.402.296-2.473-.204-3.36l-.32-.8c-.039-.16-.039-.32.04-.442.12-.117.241-.199.401-.199h3.079c.12 0 .28.082.363.2.078.16.078.28.039.44zm0 0"/>
</svg>
