<svg xmlns="http://www.w3.org/2000/svg" width="32" height="32" viewBox="0 0 24 24">
    <path d="M 22.9375 19.894531 C 22.53125 19.488281 22.082031 19.160156 21.636719 18.875 C 20.417969 18.105469 18.953125 16.601562 18.667969 15.664062 L 18.667969 15.625 L 18.300781 14.8125 C 18.140625 14.402344 17.773438 14.121094 17.367188 14.039062 C 16.960938 13.957031 16.511719 14.121094 16.230469 14.402344 L 16.003906 14.628906 L 11.695312 10.316406 L 13.421875 8.589844 C 13.503906 8.507812 13.546875 8.425781 13.546875 8.347656 L 14.195312 2.898438 C 14.195312 2.816406 14.195312 2.734375 14.113281 2.652344 L 13.75 2.042969 C 13.707031 1.921875 13.585938 1.839844 13.464844 1.839844 C 13.339844 1.839844 13.21875 1.882812 13.136719 1.960938 L 8.238281 6.863281 L 7.667969 6.292969 L 12.570312 1.394531 C 12.730469 1.269531 12.730469 1.027344 12.609375 0.863281 L 12.082031 0.171875 C 11.960938 0.0507812 11.835938 -0.03125 11.675781 0.0117188 L 6.144531 0.988281 C 6.0625 1.027344 5.980469 1.066406 5.941406 1.109375 L 0.492188 6.558594 C 0.410156 6.636719 0.371094 6.71875 0.371094 6.839844 C 0.371094 6.964844 0.410156 7.042969 0.492188 7.125 L 3.378906 10.011719 C 3.460938 10.09375 3.542969 10.136719 3.664062 10.136719 C 3.746094 10.136719 3.867188 10.09375 3.949219 10.011719 L 5.960938 8 L 6.53125 8.570312 L 4.519531 10.582031 C 4.355469 10.746094 4.355469 10.988281 4.519531 11.152344 L 7.40625 14.039062 C 7.488281 14.121094 7.566406 14.160156 7.691406 14.160156 C 7.8125 14.160156 7.894531 14.121094 7.976562 14.039062 L 9.988281 12.027344 L 14.296875 16.335938 L 14.03125 16.601562 C 13.707031 16.882812 13.585938 17.332031 13.667969 17.738281 C 13.75 18.144531 14.03125 18.511719 14.441406 18.671875 L 15.292969 19.039062 L 15.335938 19.039062 C 16.269531 19.324219 17.773438 20.789062 18.546875 22.007812 C 18.914062 22.535156 19.195312 22.941406 19.5625 23.308594 C 19.609375 23.355469 19.660156 23.402344 19.710938 23.445312 C 19.726562 23.46875 19.746094 23.492188 19.765625 23.511719 C 19.820312 23.566406 19.875 23.601562 19.941406 23.621094 C 20.316406 23.867188 20.742188 24 21.1875 24 C 21.800781 24 22.410156 23.757812 22.773438 23.308594 L 22.9375 23.144531 C 23.386719 22.738281 23.628906 22.128906 23.628906 21.519531 C 23.628906 20.910156 23.386719 20.339844 22.9375 19.894531 Z M 3.664062 9.160156 L 1.347656 6.839844 L 6.429688 1.757812 L 11.59375 0.863281 L 11.757812 1.066406 L 6.925781 5.898438 C 6.878906 5.917969 6.835938 5.949219 6.796875 5.988281 L 5.65625 7.125 C 5.613281 7.167969 5.582031 7.210938 5.5625 7.261719 Z M 6.550781 7.410156 L 7.121094 6.839844 L 7.691406 7.410156 L 7.121094 7.980469 Z M 7.691406 13.183594 L 5.371094 10.867188 L 13.339844 2.898438 L 13.382812 2.9375 L 12.773438 8.101562 Z M 10.878906 11.132812 L 11.144531 10.867188 L 15.457031 15.175781 L 14.886719 15.746094 L 10.578125 11.4375 Z M 22.410156 22.578125 L 22.246094 22.738281 C 21.847656 23.136719 21.269531 23.257812 20.75 23.097656 L 21.1875 22.660156 C 21.351562 22.496094 21.351562 22.25 21.1875 22.089844 C 21.027344 21.925781 20.78125 21.925781 20.621094 22.089844 L 20.050781 22.65625 C 19.871094 22.46875 19.703125 22.265625 19.550781 22.019531 L 20.050781 21.519531 C 20.214844 21.355469 20.214844 21.113281 20.050781 20.949219 C 19.886719 20.789062 19.644531 20.789062 19.480469 20.949219 L 19.132812 21.300781 C 18.34375 20.164062 16.839844 18.570312 15.660156 18.226562 L 14.847656 17.859375 C 14.683594 17.820312 14.601562 17.699219 14.5625 17.535156 C 14.519531 17.414062 14.5625 17.25 14.683594 17.128906 L 15.695312 16.113281 L 16.308594 15.503906 L 16.878906 14.933594 C 16.960938 14.8125 17.125 14.769531 17.285156 14.8125 C 17.40625 14.851562 17.53125 14.933594 17.609375 15.09375 L 17.9375 15.910156 C 18.300781 17.210938 20.089844 18.835938 21.230469 19.566406 C 21.636719 19.8125 22.042969 20.097656 22.410156 20.460938 C 22.695312 20.746094 22.855469 21.113281 22.855469 21.519531 C 22.855469 21.925781 22.695312 22.292969 22.410156 22.578125 Z M 22.410156 22.578125"/>
</svg>
