<svg xmlns="http://www.w3.org/2000/svg" width="32" height="32" viewBox="0 0 24 24">
    <path d="M5.941 20a.48.48 0 0 0-.078.008A1.263 1.263 0 0 0 5.738 20c-.758 0-1.398.64-1.398 1.398 0 .762.64 1.403 1.398 1.403.043 0 .086-.004.125-.008a.48.48 0 0 0 .078.008h11.2c.023 0 .047-.004.07-.008.043.004.086.008.129.008.762 0 1.398-.64 1.398-1.403 0-.757-.636-1.398-1.398-1.398-.043 0-.082.004-.125.008-.024-.004-.047-.008-.074-.008zm-.8 1.398c0-.32.28-.597.597-.597.301 0 .563.242.598.535v.004c.004.02.004.039.004.058 0 .02 0 .04-.004.059v.004a.62.62 0 0 1-.598.539.617.617 0 0 1-.597-.602zm2 0c0-.199-.04-.398-.121-.597h9.058a1.41 1.41 0 0 0-.137.597c0 .215.051.418.137.602H7.02c.082-.2.12-.398.12-.602zm10.8 0c0 .32-.28.602-.601.602a.623.623 0 0 1-.598-.54v-.003c0-.02-.004-.039-.004-.059 0-.02.004-.039.004-.058a.62.62 0 0 1 .598-.54c.32 0 .601.278.601.598zm0 0"/>
    <path d="M19.941 11.64v-.44h.399c.238 0 .398-.16.398-.4 0-.241-.16-.402-.398-.402h-.399V3.176a1.609 1.609 0 0 0 1.32-1.574c0-.883-.722-1.602-1.6-1.602-.794 0-1.458.586-1.579 1.344l-8.426 9.054H9.54c-.68 0-1.2.524-1.2 1.204v2.796H4.38a1.65 1.65 0 0 0-1.64 1.641V18c0 .238.16.398.402.398h6v.403H5.34a2.595 2.595 0 0 0-2.602 2.597A2.596 2.596 0 0 0 5.34 24h12.398a2.596 2.596 0 0 0 2.602-2.602 2.595 2.595 0 0 0-2.602-2.597h-3.797v-.403h1.2c.238 0 .398-.16.398-.398v-1.445a.37.37 0 0 0 .04-.157v-3.117c0-.96-.477-1.84-1.278-2.402-.07-.047-.14-.09-.215-.129l1.277-1.707a.387.387 0 0 0 .145-.191l2.605-3.48a.42.42 0 0 0 .16-.212L19.141 4v6.398h-.403c-.238 0-.398.16-.398.403 0 .238.16.398.398.398h.403V12c0 .121.039.2.12.281.079.078.16.117.278.117a.802.802 0 0 1 0 1.602c-.437 0-.8-.36-.8-.8 0-.24-.16-.4-.4-.4-.237 0-.398.16-.398.4 0 .878.72 1.6 1.598 1.6.883 0 1.602-.722 1.602-1.6 0-.759-.52-1.4-1.2-1.56zm-2.48-6.96l-1.508.187 1.41-1.508zm-2.762 3.68l-2.289.296 2.152-2.3zm.64-2.598l1.645-.203-1.52 2.027zm2.774-3.203l.149-.16c.05.078.105.148.164.218.129.156.289.29.472.387l-.683.91zM19.66.8c.442 0 .8.36.8.8a.801.801 0 0 1-1.179.704c-.004 0-.004-.004-.004-.004l-.05-.028a.834.834 0 0 1-.364-.597c0-.024-.004-.051-.004-.074 0-.442.36-.801.801-.801zm-4.922 12.386v2.614l-2.797-1c-.48-.2-.8-.64-.8-1.16v-2.442h1.52c.839 0 1.6.52 1.917 1.32.106.211.149.418.16.653v.015zM5.941 15.2c0 .442-.363.801-.8.801H3.543v-.02c.05-.433.402-.78.836-.78zm13.598 6.2c0 1-.8 1.8-1.8 1.8h-12.4c-1 0-1.8-.8-1.8-1.8s.8-1.797 1.8-1.797h12.4c1 0 1.8.796 1.8 1.796zM13.141 18.8h-3.2v-.403h3.2zm.398-1.2h-10v-.8h1.602c.879 0 1.597-.723 1.597-1.602h2c.242 0 .403-.16.403-.398v-3.2a.4.4 0 0 1 .398-.402h.84v2.442c0 .879.52 1.64 1.32 1.918l3.04 1.101v.942zm-.508-7.175a2.911 2.911 0 0 0-.37-.028h-1.88l.762-.812 2.684-.344-.918 1.227a2.158 2.158 0 0 0-.278-.043zm0 0"/>
</svg>
