<svg xmlns="http://www.w3.org/2000/svg" width="32" height="32" viewBox="0 0 24 24">
    <path d="M23.586.414H.414C.164.414 0 .578 0 .828v22.344c0 .25.164.414.414.414h23.172c.25 0 .414-.164.414-.414V.828c0-.25-.164-.414-.414-.414zM12 14.484a.829.829 0 1 1 0-1.655.829.829 0 0 1 0 1.655zm-.414-2.441a1.844 1.844 0 0 0-.563.277c-.007.008-.015.016-.023.02l-.027.02-.036.03c-.003 0-.007.005-.011.008-.04.036-.082.075-.117.114l-.024.023c-.008.008-.015.016-.02.024l-.035.039-.011.011c-.2.243-.328.54-.364.871l-.003.012c0 .02-.004.043-.004.067v.015c-.004.028-.004.055-.004.082 0 .028 0 .055.004.082v.012c0 .023.004.047.004.07 0 .004 0 .004.003.008.07.707.579 1.29 1.23 1.442v7.488h-9.1V2.898h9.1zm.828 10.715V15.27c.203-.063.395-.157.563-.282.007-.008.015-.011.023-.02.012-.003.02-.011.027-.019.012-.008.024-.02.036-.027l.011-.012c.04-.035.082-.07.117-.11.008-.007.016-.019.024-.027.008-.007.015-.011.02-.02.011-.015.023-.026.035-.042.003-.004.007-.008.011-.008.2-.242.328-.539.364-.875 0 0 .003-.004.003-.008 0-.023.004-.047.004-.066v-.02c.004-.023.004-.05.004-.078 0-.027 0-.054-.004-.082v-.015c0-.024-.004-.047-.004-.07l-.003-.005c-.07-.71-.579-1.289-1.23-1.441V2.898h9.1v19.86zm10.758 0h-.828V2.484c0-.25-.164-.414-.414-.414H2.07c-.25 0-.414.164-.414.414v20.274H.828V1.242h22.344zm0 0"/>
    <path d="M4.55 12.828h4.966c.25 0 .414-.168.414-.414V4.137c0-.246-.164-.414-.414-.414H4.55a.394.394 0 0 0-.414.414v8.277c0 .246.168.414.414.414zm.415-8.277h4.137V12H4.965zm0 0M4.55 21.93h4.966c.25 0 .414-.164.414-.414v-6.618c0-.25-.164-.414-.414-.414H4.55c-.246 0-.414.164-.414.414v6.618c0 .25.168.414.414.414zm.415-6.621h4.137v5.793H4.965zm0 0M19.45 3.723h-4.966c-.25 0-.414.168-.414.414v8.277c0 .246.164.414.414.414h4.965a.394.394 0 0 0 .414-.414V4.137a.394.394 0 0 0-.414-.414zM19.034 12h-4.137V4.55h4.137zm0 0M19.45 14.484h-4.966c-.25 0-.414.164-.414.414v6.618c0 .25.164.414.414.414h4.965c.246 0 .414-.164.414-.414v-6.618c0-.25-.168-.414-.414-.414zm-.415 6.618h-4.137v-5.793h4.137zm0 0"/>
    <path d="M7.574 5.504L5.918 7.16a.395.395 0 0 0 0 .578.375.375 0 0 0 .289.125.375.375 0 0 0 .29-.125l1.655-1.656a.401.401 0 0 0 0-.578.401.401 0 0 0-.578 0zm0 0M7.574 8.813l-1.656 1.656a.395.395 0 0 0 0 .578.363.363 0 0 0 .289.125c.125 0 .207-.04.29-.125l1.655-1.652a.406.406 0 0 0 0-.582.401.401 0 0 0-.578 0zm0 0M16.137 7.863a.375.375 0 0 0 .289-.125l1.656-1.656a.395.395 0 0 0 0-.578.401.401 0 0 0-.578 0L15.848 7.16a.401.401 0 0 0 0 .578.381.381 0 0 0 .289.125zm0 0M16.137 11.172c.125 0 .207-.04.289-.125l1.656-1.652a.4.4 0 0 0 0-.582.401.401 0 0 0-.578 0l-1.656 1.656a.401.401 0 0 0 0 .578.368.368 0 0 0 .289.125zm0 0M7.574 15.848l-1.656 1.656a.395.395 0 0 0 0 .578.375.375 0 0 0 .289.125.375.375 0 0 0 .29-.125l1.655-1.656a.401.401 0 0 0 0-.578.401.401 0 0 0-.578 0zm0 0M7.574 18.332l-1.656 1.652a.4.4 0 0 0 0 .582.375.375 0 0 0 .289.125.375.375 0 0 0 .29-.125l1.655-1.656a.401.401 0 0 0 0-.578.395.395 0 0 0-.578 0zm0 0M16.137 18.207a.375.375 0 0 0 .289-.125l1.656-1.656a.395.395 0 0 0 0-.578.401.401 0 0 0-.578 0l-1.656 1.656a.401.401 0 0 0 0 .578.381.381 0 0 0 .289.125zm0 0M16.137 20.691a.375.375 0 0 0 .289-.125l1.656-1.656a.395.395 0 0 0 0-.578.395.395 0 0 0-.578 0l-1.656 1.652a.406.406 0 0 0 0 .582.381.381 0 0 0 .289.125zm0 0"/>
</svg>
