<svg xmlns="http://www.w3.org/2000/svg" width="32" height="32" viewBox="0 0 24 24">
    <path d="M20.8 4.613h-2.402c-.238 0-.398.16-.398.403 0 .238.16.398.398.398h2.403c.238 0 .398-.16.398-.398 0-.243-.16-.403-.398-.403zm0 0M20.8 6.215h-2.402c-.238 0-.398.16-.398.398 0 .242.16.403.398.403h2.403c.238 0 .398-.16.398-.403 0-.238-.16-.398-.398-.398zm0 0"/>
    <path d="M21.52 2.656c-2.239-.52-5.48-.64-7.72-.203l-.359.082c-.52.078-1.043.2-1.562.281l-.75.118h-.008l-2 .32a1.766 1.766 0 0 0-1.476 1.36H6c-.879 0-1.602.722-1.602 1.6h-4c-.238 0-.398.161-.398.4 0 .241.16.402.398.402h4c0 .879.723 1.597 1.602 1.597h1.645c.078.34.25.645.492.883.265.262.617.45 1.023.52l3.961.597c.727.192 1.64.309 2.613.364l.664 3c.043.199.204.32.403.32h.8v2.558l-2.214 2.211a.366.366 0 0 0-.18.266c-.008.035-.012.07-.008.105v1.579c0 .437.36.8.801.8h6c.441 0 .8-.363.8-.8v-1.602c0-.105-.03-.2-.09-.266L22 17.016v-3.2l-.219-3.32C23.086 10.051 24 8.805 24 7.414V5.816c0-1.48-1-2.761-2.48-3.16zM9.28 4.055l1.52-.242v5.636l-1.563-.234a1.028 1.028 0 0 1-.84-1v-3.2a.96.96 0 0 1 .883-.96zM5.2 7.015v-.8c0-.442.36-.8.801-.8h1.602v2.401H6a.804.804 0 0 1-.8-.8zm16 6.801v2.797h-2.8V10.98A19.404 19.404 0 0 0 21 10.684zm-4.078-.32l-.52-2.402h1v2.402zm1.04 3.918h3.16l.519 1.602h-5.281zM22 21.016h-6v-1.2h6zm1.16-13.602c0 1.121-.762 2.082-1.879 2.36-2.242.562-5.84.601-8.043.042l-1.636-.246V3.684l.437-.07c.52-.079 1.082-.16 1.602-.278L14 3.254c.879-.16 1.922-.238 3.04-.238 1.519 0 3.12.12 4.28.437a2.444 2.444 0 0 1 1.84 2.363zm0 0"/>
</svg>
