<svg xmlns="http://www.w3.org/2000/svg" width="32" height="32" viewBox="0 0 24 24">
    <path d="M21.918 12.57l-2.797-3.996a.587.587 0 0 0-.144-.11c-.004-.003-.008-.007-.016-.01a.417.417 0 0 0-.375-.04H15.78l-.351-1.598h2.175c.157 0 .239-.12.317-.242a.353.353 0 0 0 0-.398l-1.598-2.399c-.078-.078-.199-.16-.32-.16h-1.277L14.007.34a.392.392 0 0 0-.25-.293.372.372 0 0 0-.308-.024H10.41c-.2 0-.36.118-.398.317l-.723 3.277H8.012c-.121 0-.239.082-.36.203L6.055 6.215a.36.36 0 0 0 0 .402c.078.117.199.2.36.2h2.17l-.35 1.597h-3.02c-.012 0-.02 0-.031.004a.517.517 0 0 0-.168.035.49.49 0 0 0-.153.203L2.098 12.61c-.078.121-.121.282-.04.403.079.117.2.199.36.199H7.18l-1.496 6.793H4.016c-.239 0-.399.16-.399.398v3.2c0 .238.16.398.399.398H20c.242 0 .402-.16.402-.398v-3.2c0-.238-.16-.398-.402-.398h-1.668l-.61-2.774v-.023c0-.102-.019-.18-.058-.246l-.828-3.75h4.766c.156 0 .277-.082.359-.242a.468.468 0 0 0-.043-.399zm-3.906-3.355l-1.508 2.469-.547-2.47zm-7.36-8.04l.743.669-1.106.992zm3.094 1.716l-1.152-1.036.765-.707zm-1.125 3.086l1.527-1.266.286 1.305h-1.762zm.695-1.559l-1.3 1.055-1.282-1.055zm-2.632-.8l1.324-1.22 1.355 1.22zm1.304-2.31L11.445.82h1.082zm-.61 4.68l-.034.028h-1.75L9.87 4.75zm1.009.828l1.945 1.598h-2.273a.402.402 0 0 0-.137 0H9.68l1.93-1.598zm-4.032 4.852l.54-2.453h2.101zm3.657-2.313l3.3 3.055H8.712zm2.441 3.856l-2.426 1.105-2.422-1.105zm-1.43-3.996h2.118l.546 2.476zM7.5 11.762L5.941 9.215H8.06zm.492 1.578l3.078 1.414-3.765 1.719zm4.035 1.851l4.22 1.934-4.22 1.453-4.214-1.453zm.957-.437l3.07-1.406.688 3.12zm1.844-6.961l-1.187-.977h.968zm2.055-1.777h-1.63l-.35-1.598h.902zm-9.711 0l1.082-1.598h.86l-.352 1.598zm3.187.8l-1.144.93.203-.93zM5.203 9.512L7 12.41H3.176zm1.832 8.199l3.754 1.293-2.898 1H6.535zm4.992 1.723l1.657.57h-3.309zm7.575 2.168h-1.598c-.242 0-.399.16-.399.398 0 .242.157.402.399.402h1.598v.797H4.414v-.797h1.602c.238 0 .398-.16.398-.402 0-.238-.16-.398-.398-.398H4.414v-.797h15.188zm-3.438-1.598l-2.894-1 3.75-1.293.503 2.293zm.813-7.594l1.816-2.926 2.047 2.926zm0 0"/>
</svg>
