<svg xmlns="http://www.w3.org/2000/svg" width="32" height="32" viewBox="0 0 24 24">
    <path d="M 20 6.398438 L 13.601562 6.398438 L 13.601562 4.398438 L 15.601562 4.398438 L 15.601562 4.800781 C 15.601562 5.039062 15.761719 5.199219 16 5.199219 C 16.238281 5.199219 16.398438 5.039062 16.398438 4.800781 L 16.398438 4.398438 L 17.601562 4.398438 C 17.839844 4.398438 18 4.238281 18 4 L 18 2.398438 C 18 2.160156 17.839844 2 17.601562 2 L 13.601562 2 L 13.601562 1.359375 C 13.601562 0.601562 13 0 12.238281 0 L 11.761719 0 C 11 0 10.398438 0.601562 10.398438 1.359375 L 10.398438 2 L 6.398438 2 C 6.160156 2 6 2.160156 6 2.398438 L 6 4 C 6 4.238281 6.160156 4.398438 6.398438 4.398438 L 7.601562 4.398438 L 7.601562 4.800781 C 7.601562 5.039062 7.761719 5.199219 8 5.199219 C 8.238281 5.199219 8.398438 5.039062 8.398438 4.800781 L 8.398438 4.398438 L 10.398438 4.398438 L 10.398438 6.398438 L 4 6.398438 C 3.761719 6.398438 3.601562 6.558594 3.601562 6.800781 L 3.601562 8.398438 C 3.601562 8.640625 3.761719 8.800781 4 8.800781 L 4.800781 8.800781 L 4.800781 9.199219 C 4.800781 9.441406 4.960938 9.601562 5.199219 9.601562 C 5.441406 9.601562 5.601562 9.441406 5.601562 9.199219 L 5.601562 8.800781 L 7.601562 8.800781 L 7.601562 9.199219 C 7.601562 9.441406 7.761719 9.601562 8 9.601562 C 8.238281 9.601562 8.398438 9.441406 8.398438 9.199219 L 8.398438 8.800781 L 10.398438 8.800781 L 10.398438 23.199219 L 9.601562 23.199219 C 9.359375 23.199219 9.199219 23.359375 9.199219 23.601562 C 9.199219 23.839844 9.359375 24 9.601562 24 L 14.398438 24 C 14.640625 24 14.800781 23.839844 14.800781 23.601562 C 14.800781 23.359375 14.640625 23.199219 14.398438 23.199219 L 13.601562 23.199219 L 13.601562 8.800781 L 15.601562 8.800781 L 15.601562 9.199219 C 15.601562 9.441406 15.761719 9.601562 16 9.601562 C 16.238281 9.601562 16.398438 9.441406 16.398438 9.199219 L 16.398438 8.800781 L 18.398438 8.800781 L 18.398438 9.199219 C 18.398438 9.441406 18.558594 9.601562 18.800781 9.601562 C 19.039062 9.601562 19.199219 9.441406 19.199219 9.199219 L 19.199219 8.800781 L 20 8.800781 C 20.238281 8.800781 20.398438 8.640625 20.398438 8.398438 L 20.398438 6.800781 C 20.398438 6.558594 20.238281 6.398438 20 6.398438 Z M 11.199219 1.359375 C 11.199219 1.039062 11.441406 0.800781 11.761719 0.800781 L 12.238281 0.800781 C 12.558594 0.800781 12.800781 1.039062 12.800781 1.359375 L 12.800781 2 L 11.199219 2 Z M 6.800781 2.800781 L 17.199219 2.800781 L 17.199219 3.601562 L 6.800781 3.601562 Z M 11.199219 4.398438 L 12.800781 4.398438 L 12.800781 6.398438 L 11.199219 6.398438 Z M 12.800781 23.199219 L 11.199219 23.199219 L 11.199219 22.398438 L 11.601562 22.398438 C 11.839844 22.398438 12 22.238281 12 22 C 12 21.761719 11.839844 21.601562 11.601562 21.601562 L 11.199219 21.601562 L 11.199219 21.199219 L 11.601562 21.199219 C 11.839844 21.199219 12 21.039062 12 20.800781 C 12 20.558594 11.839844 20.398438 11.601562 20.398438 L 11.199219 20.398438 L 11.199219 8.800781 L 12.800781 8.800781 Z M 19.601562 8 L 4.398438 8 L 4.398438 7.199219 L 19.601562 7.199219 Z M 19.601562 8"/>
</svg>
