<svg xmlns="http://www.w3.org/2000/svg" width="32" height="32" viewBox="0 0 24 24">
    <path d="M15.344 6.793l4.48-4.961c.203-.203.203-.562-.039-.8l-.879-.884c-.199-.199-.562-.199-.8 0l-4.883 4.446c-.317.316-.516.672-.52 1.11a2.432 2.432 0 0 0-1.402-.013c-.043-.43-.203-.824-.52-1.097L5.86.148c-.199-.199-.558-.199-.8.043l-.88.88c-.199.199-.199.558 0 .8l4.442 4.883c.3.3.637.492 1.07.516-.07.23-.109.472-.109.722 0 .278.047.54.133.785-.367.067-.695.223-.934.496l-4.363 4.801a.797.797 0 0 0 .043 1.043l.637.64c.12.161.32.24.523.24.2 0 .36-.04.52-.2l4.351-3.953-.875 8.953H7.98c-.238 0-.398.16-.398.402v2.403c0 .238.16.398.398.398h8.004c.239 0 .399-.16.399-.398v-2.403c0-.242-.16-.402-.399-.402h-1.636l-.88-8.996 4.395 3.996c.16.121.32.2.524.2.16 0 .36-.04.52-.24l.64-.64c.277-.281.32-.762.039-1.043l-4.363-4.8c-.282-.282-.594-.473-.97-.512.087-.242.13-.5.13-.77 0-.238-.035-.469-.102-.683.418-.051.793-.211 1.063-.516zm-1.762 1.2c0 .374-.129.718-.348.991a1.558 1.558 0 0 0-.25.211.919.919 0 0 0-.117.13l-.074.046a.381.381 0 0 0-.09.024c-.48.238-.96.238-1.441 0a.434.434 0 0 0-.106-.051 1.462 1.462 0 0 0-.45-.387 1.594 1.594 0 0 1-.323-.965c0-.879.719-1.597 1.597-1.597.883 0 1.602.718 1.602 1.597zm-4.36-1.759L4.899 1.47 5.5.87l4.762 4.32c.16.122.238.32.238.52.043.242-.04.402-.2.562-.16.122-.359.2-.558.2-.199 0-.402-.078-.52-.239zm1.16 4.641l-4.76 4.32-.602-.597 4.32-4.762a.65.65 0 0 1 .523-.242.565.565 0 0 1 .414.086c.055.054.118.11.18.164a.958.958 0 0 1 .164.511c0 .2-.078.399-.238.52zm5.2 12.324H8.379v-1.601h7.203zm-5.16-2.402l1.012-10.215c.02-.078.027-.16.027-.246a2.41 2.41 0 0 0 1.082-.008l1 10.469zm8.562-6.2l-.597.598-4.766-4.32a.656.656 0 0 1-.238-.52c-.04-.242.039-.402.199-.562a.776.776 0 0 1 1.082.043zm-4.722-8.124c-.239.039-.399-.04-.559-.2a.727.727 0 0 1-.238-.562c0-.2.078-.399.238-.52l4.762-4.32.601.598-4.28 4.765a.647.647 0 0 1-.524.239zm0 0"/>
</svg>
