<svg xmlns="http://www.w3.org/2000/svg" width="32" height="32" viewBox="0 0 24 24">
    <path d="M 18.769531 8.238281 C 18.6875 8.078125 18.566406 8 18.40625 8 L 13.6875 8 L 18.367188 0.601562 C 18.449219 0.480469 18.449219 0.320312 18.367188 0.199219 C 18.289062 0.078125 18.167969 0 18.007812 0 L 11.609375 0 C 11.449219 0 11.328125 0.078125 11.25 0.199219 L 5.25 12.199219 C 5.167969 12.320312 5.167969 12.480469 5.25 12.601562 C 5.328125 12.71875 5.488281 12.800781 5.609375 12.800781 L 9.726562 12.800781 L 5.25 23.480469 C 5.167969 23.640625 5.25 23.839844 5.40625 23.960938 C 5.449219 24 5.527344 24 5.609375 24 C 5.726562 24 5.847656 23.960938 5.929688 23.878906 L 18.726562 8.679688 C 18.808594 8.558594 18.847656 8.398438 18.769531 8.238281 Z M 7.007812 21.320312 L 10.6875 12.519531 C 10.726562 12.398438 10.726562 12.28125 10.648438 12.160156 C 10.566406 12.078125 10.449219 12 10.328125 12 L 6.25 12 L 11.847656 0.800781 L 17.289062 0.800781 L 12.566406 8.199219 C 12.488281 8.320312 12.488281 8.480469 12.566406 8.601562 C 12.648438 8.71875 12.769531 8.800781 12.929688 8.800781 L 17.566406 8.800781 Z M 7.007812 21.320312"/>
</svg>
