<svg xmlns="http://www.w3.org/2000/svg" width="32" height="32" viewBox="0 0 24 24">
    <path d="M 23.601562 0.0195312 L 20.40625 0.0195312 C 20.167969 0.0195312 20.007812 0.179688 20.007812 0.417969 L 20.007812 9.324219 C 20.007812 9.765625 19.648438 10.082031 19.246094 10.082031 L 16.371094 10.082031 C 16.140625 9.566406 15.828125 9.097656 15.445312 8.695312 C 15.425781 8.664062 15.402344 8.632812 15.375 8.605469 C 15.347656 8.578125 15.316406 8.554688 15.28125 8.535156 C 14.421875 7.714844 13.257812 7.207031 11.980469 7.207031 C 10.054688 7.207031 8.386719 8.355469 7.625 10.003906 L 3.59375 10.003906 C 1.597656 10.003906 0 11.601562 0 13.597656 L 0 23.582031 C 0 23.820312 0.160156 23.980469 0.398438 23.980469 L 3.59375 23.980469 C 3.832031 23.980469 3.992188 23.820312 3.992188 23.582031 L 3.992188 14.714844 C 3.992188 14.277344 4.351562 13.957031 4.753906 13.957031 L 7.609375 13.957031 C 7.832031 14.457031 8.140625 14.910156 8.515625 15.304688 C 8.535156 15.335938 8.558594 15.367188 8.585938 15.394531 C 8.617188 15.425781 8.648438 15.453125 8.683594 15.472656 C 9.546875 16.289062 10.707031 16.792969 11.980469 16.792969 C 13.253906 16.792969 14.414062 16.289062 15.277344 15.472656 C 15.308594 15.453125 15.34375 15.425781 15.375 15.394531 C 15.402344 15.367188 15.425781 15.335938 15.445312 15.304688 C 15.808594 14.921875 16.109375 14.480469 16.332031 13.996094 L 20.367188 13.996094 C 22.363281 13.996094 23.960938 12.398438 24 10.402344 L 24 0.417969 C 24 0.179688 23.839844 0.0195312 23.601562 0.0195312 Z M 15.066406 14.527344 L 13.351562 12.8125 C 13.496094 12.574219 13.578125 12.296875 13.578125 12 C 13.578125 11.722656 13.503906 11.460938 13.378906 11.230469 L 15.070312 9.480469 C 15.632812 10.167969 15.972656 11.046875 15.972656 12 C 15.972656 12.957031 15.632812 13.835938 15.066406 14.527344 Z M 12.539062 12.558594 C 12.523438 12.574219 12.511719 12.589844 12.5 12.601562 C 12.359375 12.722656 12.179688 12.796875 11.980469 12.796875 C 11.78125 12.796875 11.597656 12.722656 11.460938 12.601562 C 11.449219 12.589844 11.433594 12.574219 11.421875 12.558594 C 11.40625 12.546875 11.390625 12.53125 11.378906 12.519531 C 11.253906 12.382812 11.179688 12.199219 11.179688 12 C 11.179688 11.8125 11.246094 11.636719 11.359375 11.5 C 11.367188 11.496094 11.375 11.488281 11.382812 11.480469 C 11.398438 11.464844 11.414062 11.445312 11.425781 11.425781 C 11.570312 11.289062 11.765625 11.203125 11.980469 11.203125 C 12.195312 11.203125 12.390625 11.289062 12.53125 11.425781 C 12.546875 11.445312 12.5625 11.464844 12.578125 11.480469 C 12.585938 11.488281 12.59375 11.496094 12.601562 11.5 C 12.710938 11.636719 12.777344 11.8125 12.777344 12 C 12.777344 12.199219 12.703125 12.382812 12.582031 12.519531 C 12.566406 12.53125 12.554688 12.546875 12.539062 12.558594 Z M 8.894531 14.527344 C 8.640625 14.21875 8.433594 13.875 8.28125 13.5 C 8.277344 13.480469 8.273438 13.457031 8.265625 13.4375 C 8.230469 13.363281 8.203125 13.285156 8.175781 13.203125 C 8.050781 12.824219 7.988281 12.417969 7.988281 12 C 7.988281 11.039062 8.332031 10.152344 8.90625 9.460938 L 10.582031 11.230469 C 10.457031 11.457031 10.382812 11.722656 10.382812 12 C 10.382812 12.296875 10.464844 12.574219 10.605469 12.8125 Z M 14.511719 8.917969 L 12.835938 10.65625 C 12.589844 10.496094 12.296875 10.402344 11.980469 10.402344 C 11.667969 10.402344 11.375 10.496094 11.125 10.652344 L 9.46875 8.902344 C 10.15625 8.34375 11.03125 8.007812 11.980469 8.007812 C 12.9375 8.007812 13.824219 8.347656 14.511719 8.917969 Z M 4.753906 13.199219 C 3.875 13.199219 3.195312 13.917969 3.195312 14.753906 L 3.195312 23.179688 L 0.796875 23.179688 L 0.796875 13.597656 C 0.796875 12.039062 2.035156 10.800781 3.59375 10.800781 L 7.339844 10.800781 C 7.316406 10.890625 7.296875 10.976562 7.28125 11.066406 C 7.222656 11.335938 7.195312 11.605469 7.191406 11.875 C 7.1875 11.917969 7.1875 11.957031 7.1875 12 C 7.1875 12.042969 7.1875 12.082031 7.191406 12.125 C 7.195312 12.394531 7.222656 12.664062 7.28125 12.933594 C 7.296875 13.023438 7.316406 13.109375 7.339844 13.199219 Z M 9.453125 15.085938 L 11.167969 13.371094 C 11.40625 13.515625 11.683594 13.597656 11.980469 13.597656 C 12.277344 13.597656 12.554688 13.515625 12.792969 13.371094 L 14.507812 15.085938 C 13.816406 15.652344 12.9375 15.992188 11.980469 15.992188 C 11.023438 15.992188 10.144531 15.652344 9.453125 15.085938 Z M 23.160156 10.402344 C 23.160156 11.960938 21.921875 13.199219 20.367188 13.199219 L 16.621094 13.199219 C 16.640625 13.109375 16.664062 13.023438 16.679688 12.933594 C 16.738281 12.664062 16.765625 12.394531 16.769531 12.125 C 16.773438 12.082031 16.773438 12.042969 16.773438 12 C 16.773438 11.957031 16.773438 11.917969 16.769531 11.875 C 16.765625 11.605469 16.738281 11.335938 16.679688 11.066406 C 16.664062 10.976562 16.640625 10.890625 16.621094 10.800781 L 19.207031 10.800781 C 20.085938 10.800781 20.765625 10.082031 20.765625 9.246094 L 20.765625 0.820312 L 23.160156 0.820312 Z M 23.160156 10.402344"/>
</svg>
