<svg xmlns="http://www.w3.org/2000/svg" width="32" height="32" viewBox="0 0 24 24">
    <path d="M23.602.02h-3.196c-.238 0-.398.16-.398.398v8.906c0 .442-.36.758-.762.758h-2.875a4.923 4.923 0 0 0-.926-1.387.42.42 0 0 0-.164-.16 4.772 4.772 0 0 0-3.3-1.328 4.807 4.807 0 0 0-4.356 2.797H3.594A3.58 3.58 0 0 0 0 13.598v9.984c0 .238.16.398.398.398h3.196c.238 0 .398-.16.398-.398v-8.867a.76.76 0 0 1 .762-.758h2.855c.223.5.532.953.907 1.348a.508.508 0 0 0 .168.168 4.788 4.788 0 0 0 3.296 1.32 4.788 4.788 0 0 0 3.297-1.32.57.57 0 0 0 .168-.168c.364-.383.664-.825.887-1.309h4.035c1.996 0 3.594-1.598 3.633-3.594V.418c0-.238-.16-.398-.398-.398zm-8.536 14.507l-1.714-1.714a1.56 1.56 0 0 0 .226-.813c0-.277-.074-.54-.2-.77l1.692-1.75a3.971 3.971 0 0 1-.004 5.047zM12.54 12.56c-.016.015-.027.03-.039.043a.791.791 0 0 1-1.04 0 .428.428 0 0 1-.038-.043c-.016-.012-.031-.028-.043-.04a.783.783 0 0 1-.02-1.02c.008-.003.016-.01.024-.019a.295.295 0 0 0 .043-.054.806.806 0 0 1 .554-.223.79.79 0 0 1 .551.223c.016.02.031.039.047.054.008.008.016.016.024.02.109.137.175.313.175.5 0 .2-.074.383-.195.52-.016.011-.027.027-.043.039zm-3.644 1.968A3.958 3.958 0 0 1 8.28 13.5c-.004-.02-.008-.043-.015-.063a2.083 2.083 0 0 1-.09-.234 3.964 3.964 0 0 1 .73-3.742l1.676 1.77a1.593 1.593 0 0 0 .023 1.582zm5.617-5.609l-1.676 1.738a1.562 1.562 0 0 0-.856-.254c-.312 0-.605.094-.855.25l-1.656-1.75a3.973 3.973 0 0 1 5.043.016zm-9.758 4.281a1.56 1.56 0 0 0-1.559 1.555v8.426H.797v-9.582A2.78 2.78 0 0 1 3.594 10.8H7.34c-.024.09-.043.176-.059.265a4.07 4.07 0 0 0-.09.809c-.003.043-.003.082-.003.125s0 .082.003.125c.004.27.032.54.09.809.016.09.035.175.059.265zm4.7 1.887l1.714-1.715c.238.145.516.227.812.227.297 0 .575-.082.813-.227l1.715 1.715a3.974 3.974 0 0 1-5.055 0zm13.706-4.684a2.778 2.778 0 0 1-2.793 2.797h-3.746c.02-.09.043-.176.059-.265.058-.27.086-.54.09-.809.003-.043.003-.082.003-.125s0-.082-.003-.125a4.07 4.07 0 0 0-.09-.809c-.016-.09-.04-.175-.059-.265h2.586a1.56 1.56 0 0 0 1.559-1.555V.82h2.394zm0 0"/>
</svg>
