<svg xmlns="http://www.w3.org/2000/svg" width="32" height="32" viewBox="0 0 24 24">
    <path d="M10.867 11.035h.008c.055.02.11.031.168.047l.05.012c.044.011.087.02.13.027.027.008.058.012.086.02.035.004.066.011.101.015s.074.008.113.016c.028 0 .051.004.079.008l.136.011c.02 0 .04.004.063.004.066.004.133.004.199.004s.133 0 .2-.004c.023 0 .042-.004.062-.004l.136-.011c.028-.004.051-.008.079-.008.039-.008.078-.012.113-.016s.066-.011.101-.015c.028-.008.059-.012.086-.02.043-.008.086-.016.13-.027l.05-.012c.059-.016.113-.027.168-.047h.008A4.016 4.016 0 0 0 16 7.2c0-2.199-1.8-4-4-4S8 5 8 7.2a4.016 4.016 0 0 0 2.867 3.836zm1.149-.637a3.183 3.183 0 0 1-1.856-.597c.52-.403 1.2-.602 1.88-.602.667 0 1.296.196 1.847.578a3.172 3.172 0 0 1-1.871.621zm-.414-6.37v.37c0 .243.16.403.398.403a.4.4 0 0 0 .398-.403v-.37A3.216 3.216 0 0 1 15.176 6.8H14.8c-.242 0-.403.16-.403.398 0 .242.16.403.403.403h.375a3.227 3.227 0 0 1-.727 1.652A3.94 3.94 0 0 0 12 8.398a3.94 3.94 0 0 0-2.45.856 3.227 3.227 0 0 1-.726-1.652H9.2c.242 0 .403-.16.403-.403 0-.238-.16-.398-.403-.398h-.375a3.216 3.216 0 0 1 2.778-2.774zm0 0"/>
    <path d="M22.8 15.2h-6.866a1.17 1.17 0 0 0-1.133-.802h-1.16v-1.843c2.285-.707 3.96-2.844 3.96-5.356 0-3.078-2.523-5.597-5.601-5.597s-5.602 2.52-5.602 5.597c0 2.524 1.696 4.672 4 5.367v1.832H9.2c-.539 0-.976.329-1.133.801H1.2C.52 15.2 0 15.72 0 16.4v4c0 .68.52 1.203 1.2 1.203h6.866c.157.472.594.796 1.133.796h5.602c.539 0 .976-.324 1.133-.796H22.8c.68 0 1.199-.524 1.199-1.204v-4c0-.68-.52-1.199-1.2-1.199zm-15.6-8c0-2.641 2.16-4.802 4.8-4.802 2.64 0 4.8 2.16 4.8 4.801 0 2.203-1.503 4.07-3.534 4.63a.304.304 0 0 0-.145.01c-.723.161-1.441.161-2.2 0a.347.347 0 0 0-.179-.007C8.707 11.277 7.2 9.406 7.2 7.199zm4 5.542a5.405 5.405 0 0 0 1.6 0v1.656h-1.6zM.8 20.398v-2.796H2c.238 0 .398-.16.398-.403 0-.238-.16-.398-.398-.398H.8v-.403c0-.238.16-.398.4-.398H8v.8H5.2c-.24 0-.4.16-.4.4 0 .241.16.402.4.402H8V20.8H1.2c-.24 0-.4-.16-.4-.403zm14 1.204H9.2c-.24 0-.4-.16-.4-.403v-5.597c0-.243.16-.403.4-.403h5.6c.24 0 .4.16.4.403v5.597c0 .242-.16.403-.4.403zm8-.801H16v-3.2h3.602c.238 0 .398-.16.398-.402 0-.238-.16-.398-.398-.398H16V16h6.8c.24 0 .4.16.4.398v.403h-.4c-.241 0-.402.16-.402.398 0 .242.16.403.403.403h.398v2.796c0 .243-.16.403-.398.403zm0 0"/>
    <path d="M12 7.602c.121 0 .2-.043.281-.122l1.2-1.199a.39.39 0 0 0 0-.562.385.385 0 0 0-.56 0L11.72 6.922a.385.385 0 0 0 0 .558c.082.079.16.122.281.122zm0 0M3.602 16.8c-.243 0-.403.16-.403.4 0 .241.16.402.403.402.238 0 .398-.16.398-.403 0-.238-.16-.398-.398-.398zm0 0M21.2 16.8c-.24 0-.4.16-.4.4 0 .241.16.402.4.402.241 0 .402-.16.402-.403 0-.238-.16-.398-.403-.398zm0 0"/>
</svg>
