<svg xmlns="http://www.w3.org/2000/svg" width="32" height="32" viewBox="0 0 24 24">
    <path d="M23.602 16.8H18.8v-2.402h4.8c.239 0 .399-.16.399-.398 0-.238-.16-.398-.398-.398H18.8v-1.204c0-.238-.16-.398-.403-.398h-3.636v-1.98A5.187 5.187 0 0 0 18 5.2 5.19 5.19 0 0 0 12.8 0a5.19 5.19 0 0 0-5.198 5.2 5.188 5.188 0 0 0 3.199 4.804V12H7.199c-.238 0-.398.16-.398.398v1.211C3.023 13.816 0 16.934 0 20.72v2.883c0 .238.16.398.398.398.243 0 .403-.16.403-.398v-2.883c0-3.36 2.68-6.117 6-6.32v2.32c-2 .242-3.602 1.922-3.602 4v2.883c0 .238.16.398.403.398.238 0 .398-.16.398-.398v-2.883a3.208 3.208 0 0 1 2.8-3.172V18.8c0 .238.16.398.4.398h11.198c.243 0 .403-.16.403-.398v-1.2h4.8c.239 0 .399-.16.399-.402 0-.238-.16-.398-.398-.398zM8.418 5.603h.383c.238 0 .398-.16.398-.403 0-.238-.16-.398-.398-.398h-.383c.191-2.117 1.895-3.79 3.98-3.98v.378c0 .242.16.403.403.403.238 0 .398-.16.398-.403V.816a4.39 4.39 0 0 1 3.985 3.985H16.8c-.242 0-.403.16-.403.398 0 .242.16.403.403.403h.379c-.168 1.855-1.496 3.367-3.227 3.843a.472.472 0 0 0-.07.02h-.012a4.388 4.388 0 0 1-.672.113V9.2c0-.238-.16-.398-.398-.398-.242 0-.403.16-.403.398v.383c-2.085-.191-3.789-1.863-3.98-3.98zm3.184 4.66c.382.09.785.136 1.199.136.414 0 .812-.046 1.199-.136V12h-2.398zM18 18.398H7.602v-5.597H18zm0 0"/>
    <path d="M16 14H9.602c-.243 0-.403.16-.403.398v2.403c0 .238.16.398.403.398H16c.238 0 .398-.16.398-.398v-2.403c0-.238-.16-.398-.398-.398zm-.398 2.398H10v-1.597h5.602zm0 0M13.762 6.36c.117-.04.199-.122.238-.239l.8-2.402c.04-.117 0-.278-.12-.399-.078-.082-.239-.12-.399-.082l-2.402.801a.361.361 0 0 0-.238.242L10.84 6.68c-.078.12-.04.28.082.398a.348.348 0 0 0 .277.121c.04 0 .082 0 .16-.039zM12.32 4.718l1.442-.48-.48 1.44-1.442.481zm0 0"/>
</svg>
