<svg xmlns="http://www.w3.org/2000/svg" width="32" height="32" viewBox="0 0 24 24">
    <path d="M16.8 1.2H14V.397C14 .16 13.84 0 13.602 0h-3.204C10.16 0 10 .16 10 .398V1.2H7.2c-.68 0-1.2.52-1.2 1.2v4c0 .68.52 1.203 1.2 1.203H10v14.796c0 .883.719 1.602 1.602 1.602h.796c.883 0 1.602-.719 1.602-1.602V7.602h2.8c.68 0 1.2-.524 1.2-1.204v-4c0-.68-.52-1.199-1.2-1.199zm-6-.4h2.4v.4h-2.4zm2.4 21.598c0 .442-.36.801-.802.801h-.796c-.442 0-.801-.36-.801-.8V22h.8c.239 0 .399-.16.399-.398 0-.243-.16-.403-.398-.403H10.8v-.8h.8c.239 0 .399-.16.399-.399 0-.238-.16-.398-.398-.398H10.8v-7.204h2.398zm0-10.796h-2.4v-4h2.4zm4-5.204c0 .243-.16.403-.4.403H7.2c-.24 0-.4-.16-.4-.403v-4C6.8 2.2 7 2 7.2 2h9.6c.24 0 .4.16.4.398zm0 0"/>
</svg>
