<svg xmlns="http://www.w3.org/2000/svg" width="32" height="32" viewBox="0 0 24 24">
    <path d="M19.336.398h-2a.79.79 0 0 0-.559.243.79.79 0 0 0-.242.558c-.398 0-.48-.039-.719-.277-.082-.121-.242-.242-.402-.363A2.817 2.817 0 0 0 13.734 0h-2.078c-1.199 0-1.761 0-2.879.441-2.363.88-3.922 2.68-5.28 6.2-.083.16 0 .359.16.48a.31.31 0 0 0 .198.078c.083 0 .2-.039.282-.12l.36-.36C5.733 5.44 6.374 4.8 8.656 4.8c1.077 0 1.878.84 1.878 2v15.597c0 .883.719 1.602 1.602 1.602h.8c.88 0 1.598-.719 1.598-1.602V7.164c.297-.059.477-.191.68-.363.039-.04.082-.082.16-.121.2-.121.32-.239.441-.36.239-.242.32-.32.72-.32 0 .2.081.398.198.559.16.16.364.242.602.242h2c.68 0 1.2-.52 1.2-1.2v-4c0-.68-.52-1.203-1.2-1.203zM13.734 11.2h-2.398v-4h2.398zm0 11.2c0 .44-.359.8-.796.8h-.801c-.442 0-.801-.36-.801-.8V22h.8a.4.4 0 0 0 .4-.398c0-.243-.161-.403-.4-.403h-.8v-.8h.8a.4.4 0 0 0 .4-.399c0-.238-.161-.398-.4-.398h-.8V12h2.398zm6-16.797c0 .238-.16.398-.398.398h-2c0-.2-.082-.398-.242-.48a.716.716 0 0 0-.598-.282c-.68 0-.922.16-1.242.48-.078.083-.2.204-.36.321-.039.04-.117.082-.16.121-.238.2-.32.238-.597.238h-2.84C11.137 5.04 10.016 4 8.657 4c-1.802 0-2.762.398-3.602 1.078 1.082-2.078 2.32-3.277 4-3.918.96-.36 1.402-.36 2.601-.36h2.078c.442 0 .883.16 1.204.4.156.12.277.241.359.32.32.28.558.48 1.238.48.2 0 .442-.078.559-.238a.799.799 0 0 0 .242-.563h2c.238 0 .398.16.398.403zm0 0"/>
</svg>
