<svg xmlns="http://www.w3.org/2000/svg" width="32" height="32" viewBox="0 0 24 24">
    <path d="M19.035 16.965H4.965a.394.394 0 0 0-.414.414c0 .25.168.414.414.414h14.07c.246 0 .414-.164.414-.414a.394.394 0 0 0-.414-.414zm0 0"/>
    <path d="M23.586 16.965h-.828a.416.416 0 0 1-.414-.414V15.1c0-2.054-.602-4.027-1.649-5.699-.004-.004-.004-.007-.004-.007a.509.509 0 0 1-.039-.06c-1.25-1.964-3.117-3.507-5.343-4.288v-.121a1.2 1.2 0 0 0-1.2-1.203H9.93c-.702 0-1.238.539-1.238 1.203v.164c-4.14 1.406-7.035 5.379-7.035 9.808v1.653c0 .25-.207.414-.414.414H.414c-.25 0-.414.168-.414.414v2.484c0 .246.164.414.414.414h23.172c.25 0 .414-.168.414-.414V17.38c0-.246-.164-.414-.414-.414zm-4.988-8.848c.199.2.39.406.574.621.18.211.348.434.512.66l-3.297 1.114 1.11-3.336c.39.285.757.601 1.1.941zM6.496 7.2l1.117 3.352-3.308-1.117c.62-.868 1.363-1.653 2.191-2.235zm16.676 12.25H.828v-1.656h.414c.703 0 1.242-.578 1.242-1.242v-1.653c0-1.73.473-3.378 1.309-4.804l4.36 1.449c.038.043.081.043.124.043.121 0 .207-.043.328-.125.086-.082.125-.246.086-.414l-1.418-4.41a9.4 9.4 0 0 1 1.418-.664v1.476c0 .246.164.414.41.414.25 0 .415-.168.415-.414V4.926c0-.207.168-.375.414-.375h1.656v4.965c0 .25.164.414.414.414.25 0 .414-.207.414-.414V4.55h1.695c.207 0 .375.168.375.375v2.523c0 .246.164.414.414.414.247 0 .41-.168.41-.414V5.98a9.11 9.11 0 0 1 1.481.723l-1.437 4.344c-.082.125-.043.293.082.414a.381.381 0 0 0 .289.125h.125l4.304-1.461a9.822 9.822 0 0 1 1.364 4.977v1.449c0 .703.582 1.242 1.242 1.242h.414zm0 0"/>
</svg>
