<svg xmlns="http://www.w3.org/2000/svg" width="32" height="32" viewBox="0 0 24 24">
    <path d="M22 12.602h-4c-.238 0-.398.16-.398.402 0 .238.16.398.398.398h4c.238 0 .398-.16.398-.398 0-.242-.16-.402-.398-.402zm0 0M22 14.203h-3.2c-.241 0-.402.16-.402.399 0 .242.16.402.403.402H22c.238 0 .398-.16.398-.402 0-.239-.16-.399-.398-.399zm0 0M22 15.8h-2.398c-.243 0-.403.16-.403.403 0 .238.16.399.403.399H22c.238 0 .398-.16.398-.399 0-.242-.16-.402-.398-.402zm0 0"/>
    <path d="M22 1.402l-3.113-.187a.325.325 0 0 0-.086-.012L12 .801 2 .203C1.48.164 1 .363.602.723.199 1.082 0 1.602 0 2.12v3.281a22 22 0 0 0 .078 1.641l1.363 10.16c.118.8.797 1.399 1.598 1.399h1.762v.8H2.398c-.238 0-.398.16-.398.399v1.601c0 .239.16.399.398.399h2.403v1.601c0 .239.16.399.398.399.242 0 .403-.16.403-.399v-1.601h13.597c.242 0 .403-.16.403-.399v-1.601c0-.238-.16-.399-.403-.399h-2.398v-.8h6.8c.239 0 .399-.16.399-.399v-14.8c0-1.04-.879-1.919-2-2zm-3.602.602c-.039.238-.117.48-.32.637-.238.203-.52.28-.797.28l-10.68-.64a1.085 1.085 0 0 1-1-1.062l6.903.414zM5.602 18.602H8.8v.8H5.6zM2.8 21.004v-.8h2v.8zm16 0H5.6v-.8h13.2zM16 19.402H9.602v-.8H16zm7.2-1.64H3.077c-.398 0-.758-.278-.797-.68L.921 6.922a9.14 9.14 0 0 1-.12-1.52v-3.28c0-.321.12-.599.36-.798.198-.203.48-.32.76-.32H2l2.8.168v.07c0 .961.759 1.801 1.759 1.84l10.68.64h.12c.48 0 .922-.199 1.2-.519.351-.316.546-.723.593-1.168l2.809.168c.719.04 1.238.559 1.238 1.2zm0 0"/>
    <path d="M4.398 12.602c-.238 0-.398.16-.398.402v3.2c0 .237.16.398.398.398h3.204c.238 0 .398-.16.398-.399 0-1.8-1.8-3.601-3.602-3.601zm.403 3.199v-2.36c1.078.2 2.16 1.282 2.36 2.36zm0 0M6.2 10.203h11.402A2.407 2.407 0 0 0 20 7.801c0-1.317-1.078-2.399-2.36-2.399l-7.132-.46a.339.339 0 0 0-.11-.02L6 4.64a.306.306 0 0 0-.055.007l-.707-.046c-.316 0-.597.12-.84.32-.277.2-.398.562-.398.879v2.203c0 1.2 1 2.2 2.2 2.2zm3.8-4.48v.48H6.398v-.719zM4.8 5.8a.44.44 0 0 1 .122-.317c.078-.043.117-.082.238-.082l.442.028v1.172c0 .242.16.402.398.402h4.398c.243 0 .403-.16.364-.402v-.84l6.84.441c.878 0 1.597.719 1.597 1.598 0 .883-.719 1.601-1.597 1.601H6.199c-.758 0-1.398-.64-1.398-1.398zm0 0"/>
</svg>
