<svg xmlns="http://www.w3.org/2000/svg" width="32" height="32" viewBox="0 0 24 24">
    <path d="M 17.199219 21.601562 L 16.398438 21.601562 L 16.398438 0.398438 C 16.398438 0.160156 16.238281 0 16 0 L 14.398438 0 C 14.160156 0 14 0.160156 14 0.398438 L 14 2.398438 L 10 2.398438 L 10 0.398438 C 10 0.160156 9.839844 0 9.601562 0 L 8 0 C 7.761719 0 7.601562 0.160156 7.601562 0.398438 L 7.601562 21.601562 L 6.800781 21.601562 C 6.558594 21.601562 6.398438 21.761719 6.398438 22 L 6.398438 23.601562 C 6.398438 23.839844 6.558594 24 6.800781 24 L 17.199219 24 C 17.441406 24 17.601562 23.839844 17.601562 23.601562 L 17.601562 22 C 17.601562 21.761719 17.441406 21.601562 17.199219 21.601562 Z M 14.800781 0.800781 L 15.601562 0.800781 L 15.601562 21.601562 L 14.800781 21.601562 Z M 10 21.601562 L 10 19.199219 L 14 19.199219 L 14 21.601562 Z M 10 12.800781 L 14 12.800781 L 14 13.601562 L 10 13.601562 Z M 14 12 L 10 12 L 10 9.601562 L 14 9.601562 Z M 14 8.800781 L 10 8.800781 L 10 8 L 14 8 Z M 10 14.398438 L 14 14.398438 L 14 16.800781 L 10 16.800781 Z M 10 17.601562 L 14 17.601562 L 14 18.398438 L 10 18.398438 Z M 14 7.199219 L 10 7.199219 L 10 4.800781 L 14 4.800781 Z M 14 3.199219 L 14 4 L 10 4 L 10 3.199219 Z M 8.398438 0.800781 L 9.199219 0.800781 L 9.199219 21.601562 L 8.398438 21.601562 Z M 16.800781 23.199219 L 7.199219 23.199219 L 7.199219 22.398438 L 16.800781 22.398438 Z M 16.800781 23.199219"/>
</svg>
