<svg xmlns="http://www.w3.org/2000/svg" width="32" height="32" viewBox="0 0 24 24">
    <path d="M 12 2.800781 C 9.121094 2.800781 6.800781 5.121094 6.800781 8 C 6.800781 10.878906 9.121094 13.199219 12 13.199219 C 14.878906 13.199219 17.199219 10.878906 17.199219 8 C 17.199219 5.121094 14.878906 2.800781 12 2.800781 Z M 12 12.398438 C 9.558594 12.398438 7.601562 10.441406 7.601562 8 C 7.601562 5.558594 9.601562 3.601562 12 3.601562 C 14.441406 3.601562 16.398438 5.558594 16.398438 8 C 16.398438 10.441406 14.441406 12.398438 12 12.398438 Z M 12 12.398438"/>
    <path d="M 19.960938 7.28125 C 19.558594 3.480469 16.519531 0.441406 12.761719 0.0390625 C 12.519531 0.0390625 12.28125 0 12 0 C 11.71875 0 11.480469 0.0390625 11.238281 0.0390625 C 7.480469 0.480469 4.441406 3.519531 4.039062 7.28125 C 3.761719 9.839844 4.679688 12.359375 6.519531 14.121094 C 7.519531 15.078125 8.160156 16.199219 8.398438 17.28125 L 8.398438 22 C 8.398438 22.238281 8.558594 22.398438 8.800781 22.398438 L 9.398438 22.398438 L 10.121094 23.359375 C 10.441406 23.761719 10.878906 24 11.398438 24 L 12.601562 24 C 13.121094 24 13.601562 23.761719 13.878906 23.359375 L 14.601562 22.398438 L 15.199219 22.398438 C 15.441406 22.398438 15.601562 22.238281 15.601562 22 L 15.601562 17.28125 C 15.800781 16.199219 16.480469 15.078125 17.480469 14.121094 C 19.320312 12.320312 20.238281 9.839844 19.960938 7.28125 Z M 14.800781 18.398438 L 13.601562 18.398438 C 13.359375 18.398438 13.199219 18.558594 13.199219 18.800781 C 13.199219 19.039062 13.359375 19.199219 13.601562 19.199219 L 14.800781 19.199219 L 14.800781 20 L 12.398438 20 C 12.160156 20 12 20.160156 12 20.398438 C 12 20.640625 12.160156 20.800781 12.398438 20.800781 L 14.800781 20.800781 L 14.800781 21.601562 L 9.199219 21.601562 L 9.199219 20.800781 L 10.398438 20.800781 C 10.640625 20.800781 10.800781 20.640625 10.800781 20.398438 C 10.800781 20.160156 10.640625 20 10.398438 20 L 9.199219 20 L 9.199219 19.199219 L 11.601562 19.199219 C 11.839844 19.199219 12 19.039062 12 18.800781 C 12 18.558594 11.839844 18.398438 11.601562 18.398438 L 9.199219 18.398438 L 9.199219 17.601562 L 14.800781 17.601562 Z M 13.238281 22.878906 C 13.078125 23.078125 12.839844 23.199219 12.601562 23.199219 L 11.398438 23.199219 C 11.160156 23.199219 10.921875 23.078125 10.761719 22.878906 L 10.398438 22.398438 L 13.601562 22.398438 Z M 16.921875 13.519531 C 15.921875 14.519531 15.199219 15.640625 14.878906 16.800781 L 9.121094 16.800781 C 8.800781 15.640625 8.078125 14.519531 7.078125 13.519531 C 5.398438 11.921875 4.601562 9.679688 4.839844 7.359375 C 5.238281 3.960938 7.960938 1.238281 11.359375 0.839844 C 11.558594 0.839844 11.761719 0.800781 12 0.800781 C 12.238281 0.800781 12.441406 0.839844 12.640625 0.839844 C 16.039062 1.238281 18.800781 3.960938 19.160156 7.359375 C 19.398438 9.679688 18.601562 11.921875 16.921875 13.519531 Z M 16.921875 13.519531"/>
    <path d="M 12.398438 4.71875 L 12.398438 4.398438 C 12.398438 4.160156 12.238281 4 12 4 C 11.761719 4 11.601562 4.160156 11.601562 4.398438 L 11.601562 4.722656 C 11.167969 4.816406 10.789062 5.0625 10.480469 5.398438 C 10.238281 5.679688 10.121094 6.039062 10.160156 6.441406 C 10.199219 6.839844 10.398438 7.199219 10.71875 7.441406 L 12.800781 9.078125 C 12.921875 9.199219 13.039062 9.359375 13.039062 9.519531 C 13.078125 9.679688 13.039062 9.839844 12.921875 9.960938 C 12.679688 10.238281 12.359375 10.398438 12 10.398438 C 11.320312 10.398438 10.800781 9.878906 10.800781 9.199219 C 10.800781 8.960938 10.640625 8.800781 10.398438 8.800781 C 10.160156 8.800781 10 8.960938 10 9.199219 C 10 10.183594 10.675781 10.980469 11.601562 11.160156 L 11.601562 11.519531 C 11.601562 11.761719 11.761719 11.921875 12 11.921875 C 12.238281 11.921875 12.398438 11.71875 12.398438 11.519531 L 12.398438 11.164062 C 12.84375 11.078125 13.242188 10.851562 13.519531 10.480469 C 13.761719 10.199219 13.878906 9.839844 13.839844 9.441406 C 13.800781 9.039062 13.601562 8.679688 13.28125 8.441406 L 11.199219 6.800781 C 11.078125 6.679688 10.960938 6.519531 10.960938 6.359375 C 10.921875 6.199219 10.960938 6.039062 11.078125 5.921875 C 11.28125 5.683594 11.542969 5.53125 11.835938 5.492188 C 11.886719 5.511719 11.941406 5.519531 12 5.519531 C 12.054688 5.519531 12.109375 5.507812 12.152344 5.488281 C 12.757812 5.5625 13.199219 6.050781 13.199219 6.679688 C 13.199219 6.921875 13.359375 7.078125 13.601562 7.078125 C 13.839844 7.078125 14 6.921875 14 6.679688 C 14 5.699219 13.324219 4.898438 12.398438 4.71875 Z M 12.398438 4.71875"/>
</svg>
