<svg xmlns="http://www.w3.org/2000/svg" width="32" height="32" viewBox="0 0 24 24">
    <path d="M21.2 2.836V1.199C21.2.52 20.68 0 20 0H2.8c-.679 0-1.198.52-1.198 1.2v1.6h-.403c-.238 0-.398.16-.398.4 0 .241.16.402.398.402h.403v1.597c0 .54.324.977.796 1.137V8.8c0 .879.723 1.597 1.602 1.597.281 0 .559-.078.8-.199V12c0 .879.72 1.602 1.598 1.602C7.281 13.602 8 12.879 8 12V9.078c.2.082.398.121.602.121C9.359 9.2 10 8.56 10 7.801V6.398h10c.68 0 1.2-.52 1.2-1.199V3.652c.687.176 1.198.805 1.198 1.547v1.602c0 .758-.558 1.437-1.277 1.597-.32.082-5.402.524-8.723.801-.878 0-1.597.723-1.597 1.602v2.398H8.398c-.117 0-.238.082-.32.16-.078.082-.117.2-.078.32l.398 2c.043.2.204.321.403.321h.398v6c0 1.121.88 2 2 2 1.121 0 2-.879 2-2v-6h.403c.199 0 .359-.121.398-.32l.398-2a.31.31 0 0 0-.078-.32.363.363 0 0 0-.32-.16h-2.398v-2.4c0-.44.359-.8.84-.8 1.398-.121 8.476-.719 8.84-.8a2.442 2.442 0 0 0 1.917-2.4V5.2a2.404 2.404 0 0 0-2-2.364zM9.2 7.8a.61.61 0 0 1-.598.597A.614.614 0 0 1 8 7.801v-.602c0-.238-.16-.398-.398-.398-.243 0-.403.16-.403.398V12c0 .441-.36.8-.8.8a.801.801 0 0 1-.797-.8V7.602c0-.243-.16-.403-.403-.403-.238 0-.398.16-.398.403V8.8c0 .437-.36.8-.801.8a.804.804 0 0 1-.8-.8V6.398h6zm11.198-2.602c0 .242-.16.403-.398.403H2.8c-.241 0-.402-.16-.402-.403v-4c0-.199.204-.398.403-.398H20c.238 0 .398.16.398.398zm-7.117 10h-.48c-.242 0-.403.16-.403.403V22c0 .68-.52 1.2-1.199 1.2-.68 0-1.199-.52-1.199-1.2h.8c.24 0 .4-.16.4-.398 0-.243-.16-.403-.4-.403H10v-.8h.8c.24 0 .4-.16.4-.399 0-.238-.16-.398-.4-.398H10v-4c0-.243-.16-.403-.398-.403h-.48L8.878 14h4.64zm0 0"/>
    <path d="M5.879 1.719c-.16-.16-.399-.117-.559.043l-2 2.398c-.16.16-.12.399.04.559.038.043.16.082.242.082.117 0 .238-.04.32-.121l2-2.399c.156-.16.117-.402-.043-.562zm0 0M8.68 1.719c-.16-.16-.399-.117-.559.043l-2 2.398c-.16.16-.121.399.04.559.038.043.16.082.237.082.122 0 .243-.04.32-.121l2-2.399c.16-.16.122-.402-.038-.562zm0 0M11.48 1.719c-.16-.16-.402-.117-.558.043l-2 2.398c-.16.16-.121.399.039.559a.442.442 0 0 0 .559-.04l2-2.398c.16-.16.12-.402-.04-.562zm0 0M14.281 1.719c-.16-.16-.402-.117-.562.043l-2 2.398c-.16.16-.117.399.043.559.039.043.16.082.238.082.121 0 .238-.04.32-.121l2-2.399c.16-.16.121-.402-.039-.562zm0 0M17.078 1.719c-.156-.16-.398-.117-.558.043l-2 2.398c-.16.16-.122.399.039.559a.449.449 0 0 0 .563-.04l2-2.398c.16-.16.116-.402-.044-.562zm0 0M18.922 1.762l-2 2.398c-.16.16-.121.399.039.559a.442.442 0 0 0 .559-.04l2-2.398c.16-.16.12-.402-.04-.562-.16-.16-.402-.117-.558.043zm0 0"/>
</svg>
