<svg xmlns="http://www.w3.org/2000/svg" width="32" height="32" viewBox="0 0 24 24">
    <path d="M16 6.8V1.2c0-.68-.52-1.2-1.2-1.2H9.2C8.52 0 8 .52 8 1.2v5.6c-.238 0-.398.16-.398.4v3.6c0 .24.16.4.398.4v1.6c0 .72.48 1.321 1.121 1.56-.242 1.761-.32 4.718-.32 6.402 0 1.758 1.398 3.199 3.12 3.238H12c.04 0 .078 0 .04-.04 1.722 0 3.12-1.48 3.12-3.241 0-1.68-.039-4.64-.32-6.399.68-.199 1.16-.8 1.16-1.52v-1.6c.238 0 .398-.16.398-.4V7.2c0-.24-.16-.4-.398-.4zm-7.602.802h7.204v2.796H8.398zm.403-6.403C8.8 1 9 .801 9.199.801H10v3.597c0 .243.16.403.398.403.243 0 .403-.16.403-.403V.801h.8v4.8c0 .239.16.399.399.399.238 0 .398-.16.398-.398V.8h.801v3.597c0 .243.16.403.403.403.238 0 .398-.16.398-.403V.801h.8c.24 0 .4.16.4.398v5.602H8.8zm6.36 11.602c0 .437-.36.8-.802.8-.12 0-.238.079-.32.16-.078.079-.117.2-.078.317.32 1.64.398 4.883.398 6.684.04 1.316-1.039 2.398-2.32 2.437h-.117c-1.281 0-2.32-1.12-2.32-2.437 0-1.801.078-5 .398-6.64V14c0-.238-.16-.398-.398-.398A.804.804 0 0 1 8.8 12.8h2c.238 0 .398-.16.398-.403 0-.238-.16-.398-.398-.398h-2v-.8h6.36zm0 0"/>
    <path d="M10.398 20c0 .879.723 1.602 1.602 1.602.879 0 1.602-.723 1.602-1.602 0-.879-.723-1.602-1.602-1.602-.879 0-1.602.723-1.602 1.602zM12 19.2a.802.802 0 0 1 0 1.6.802.802 0 0 1 0-1.6zm0 0"/>
</svg>
