<svg xmlns="http://www.w3.org/2000/svg" width="32" height="32" viewBox="0 0 24 24">
    <path d="M11.996 21.602c.879 0 1.602-.723 1.602-1.602 0-.879-.723-1.602-1.602-1.602-.879 0-1.598.723-1.598 1.602 0 .879.72 1.602 1.598 1.602zm0-2.403a.802.802 0 0 1 0 1.602c-.437 0-.8-.36-.8-.801 0-.441.363-.8.8-.8zm0 0"/>
    <path d="M23.875.68c.121-.121.16-.282.082-.442-.039-.16-.2-.238-.36-.238h-.32c-1.601 0-3.16.879-3.879 2.16-.043.078-.082.121-.12.2-.282-.88-.68-1.481-1.16-1.919-.36-.28-.763-.441-1.2-.441H.996c-.36 0-.68.2-.84.48-.199.32-.199.72-.039 1.04.446.78.649 1.976.676 3.68-.238.003-.395.16-.395.402v3.597c0 .242.16.403.399.403v2.796c0 1.122.879 2 2 2l4.32.043c.442 0 .84.16 1.16.48.32.317.442.72.442 1.157l-.281 6.684c-.04.316.078.636.32.879.238.238.558.359.879.359h4.718c.364 0 .641-.121.883-.398.2-.243.32-.563.32-.883l-.28-6.68c-.04-.437.12-.84.44-1.16.317-.32.72-.48 1.16-.48h4.317c1.121 0 2-.88 2-2V9.601c.242 0 .403-.16.403-.403V5.602c0-.243-.16-.403-.403-.403h-.18c-.53-1.191-.12-3.46.86-4.52zM22.797 8.8H1.195V6h21.602zm-.399 3.598c0 .68-.523 1.204-1.203 1.204l-4.32.039c-.637 0-1.277.238-1.719.718a2.293 2.293 0 0 0-.68 1.762l.282 6.68c0 .078-.04.199-.121.277a.356.356 0 0 1-.282.121H9.637c-.121 0-.2-.039-.282-.12a.357.357 0 0 1-.117-.278l.278-6.723c0-.637-.239-1.277-.68-1.758a2.473 2.473 0 0 0-1.719-.718h-4.32c-.54 0-.977-.329-1.137-.801h1.137a.4.4 0 0 0 .398-.403c0-.238-.16-.398-.398-.398h-1.2v-.8h2c.239 0 .4-.16.4-.4 0-.241-.161-.402-.4-.402h-2v-.796h20.801zM19.316 5.2H1.598c-.04-1.84-.282-3.16-.762-4.039-.04-.12 0-.2 0-.238C.836.879.918.8.996.8h15.922c.238 0 .48.078.719.238.558.48.96 1.36 1.199 2.64.039.16.16.321.36.321.202 0 .363-.121.363-.281.078-.36.238-.758.476-1.16C20.56 1.64 21.598 1 22.758.839c-.723 1.24-1 3.122-.602 4.36zm0 0"/>
</svg>
