<svg xmlns="http://www.w3.org/2000/svg" width="32" height="32" viewBox="0 0 24 24">
    <path d="M 20 6.800781 L 20 1.199219 C 20 0.519531 19.480469 0 18.800781 0 L 5.199219 0 C 4.519531 0 4 0.519531 4 1.199219 L 4 6.800781 C 3.761719 6.800781 3.601562 6.960938 3.601562 7.199219 L 3.601562 10.800781 C 3.601562 11.039062 3.761719 11.199219 4 11.199219 L 4 12.800781 C 4 14.558594 5.441406 16 7.199219 16 L 9.121094 16 C 8.839844 17.640625 8.800781 19.320312 8.800781 20.761719 C 8.800781 22.519531 10.199219 23.960938 11.921875 24 C 11.921875 24 11.960938 24 12 24 C 12.039062 24 12.078125 24 12.078125 24 C 13.800781 24 15.199219 22.519531 15.199219 20.761719 C 15.199219 19.28125 15.160156 17.640625 14.878906 16 L 16.800781 16 C 18.558594 16 20 14.558594 20 12.800781 L 20 11.199219 C 20.238281 11.199219 20.398438 11.039062 20.398438 10.800781 L 20.398438 7.199219 C 20.398438 6.960938 20.238281 6.800781 20 6.800781 Z M 4.398438 7.601562 L 19.601562 7.601562 L 19.601562 10.398438 L 4.398438 10.398438 Z M 4.800781 1.199219 C 4.800781 1 5 0.800781 5.199219 0.800781 L 6 0.800781 L 6 4.398438 C 6 4.640625 6.160156 4.800781 6.398438 4.800781 C 6.640625 4.800781 6.800781 4.640625 6.800781 4.398438 L 6.800781 0.800781 L 7.601562 0.800781 L 7.601562 5.601562 C 7.601562 5.839844 7.761719 6 8 6 C 8.238281 6 8.398438 5.839844 8.398438 5.601562 L 8.398438 0.800781 L 9.199219 0.800781 L 9.199219 4.398438 C 9.199219 4.640625 9.359375 4.800781 9.601562 4.800781 C 9.839844 4.800781 10 4.640625 10 4.398438 L 10 0.800781 L 10.800781 0.800781 L 10.800781 5.601562 C 10.800781 5.839844 10.960938 6 11.199219 6 C 11.441406 6 11.601562 5.839844 11.601562 5.601562 L 11.601562 0.800781 L 12.398438 0.800781 L 12.398438 4.398438 C 12.398438 4.640625 12.558594 4.800781 12.800781 4.800781 C 13.039062 4.800781 13.199219 4.640625 13.199219 4.398438 L 13.199219 0.800781 L 14 0.800781 L 14 5.601562 C 14 5.839844 14.160156 6 14.398438 6 C 14.640625 6 14.800781 5.839844 14.800781 5.601562 L 14.800781 0.800781 L 15.601562 0.800781 L 15.601562 4.398438 C 15.601562 4.640625 15.761719 4.800781 16 4.800781 C 16.238281 4.800781 16.398438 4.640625 16.398438 4.398438 L 16.398438 0.800781 L 17.199219 0.800781 L 17.199219 5.601562 C 17.199219 5.839844 17.359375 6 17.601562 6 C 17.839844 6 18 5.839844 18 5.601562 L 18 0.800781 L 18.800781 0.800781 C 19.039062 0.800781 19.199219 0.960938 19.199219 1.199219 L 19.199219 6.800781 L 4.800781 6.800781 Z M 19.160156 12.800781 C 19.160156 14.121094 18.078125 15.199219 16.761719 15.199219 L 14.359375 15.199219 C 14.238281 15.199219 14.121094 15.28125 14.039062 15.359375 C 13.960938 15.441406 13.921875 15.558594 13.960938 15.679688 C 14.28125 17.398438 14.359375 19.199219 14.359375 20.761719 C 14.398438 22.078125 13.320312 23.160156 12.039062 23.199219 C 12.039062 23.199219 11.960938 23.199219 11.921875 23.199219 C 10.640625 23.199219 9.601562 22.078125 9.601562 20.761719 C 9.601562 19.199219 9.679688 17.398438 10 15.679688 C 10.039062 15.558594 10 15.441406 9.921875 15.359375 C 9.839844 15.238281 9.71875 15.199219 9.601562 15.199219 L 7.199219 15.199219 C 6.492188 15.199219 5.855469 14.890625 5.414062 14.398438 L 6 14.398438 C 6.238281 14.398438 6.398438 14.238281 6.398438 14 C 6.398438 13.761719 6.238281 13.601562 6 13.601562 L 4.9375 13.601562 C 4.847656 13.347656 4.800781 13.082031 4.800781 12.800781 L 6.800781 12.800781 C 7.039062 12.800781 7.199219 12.640625 7.199219 12.398438 C 7.199219 12.160156 7.039062 12 6.800781 12 L 4.800781 12 L 4.800781 11.199219 L 19.160156 11.199219 Z M 19.160156 12.800781"/>
    <path d="M 12 21.601562 C 12.878906 21.601562 13.601562 20.878906 13.601562 20 C 13.601562 19.121094 12.878906 18.398438 12 18.398438 C 11.121094 18.398438 10.398438 19.121094 10.398438 20 C 10.398438 20.878906 11.121094 21.601562 12 21.601562 Z M 12 19.199219 C 12.441406 19.199219 12.800781 19.558594 12.800781 20 C 12.800781 20.441406 12.441406 20.800781 12 20.800781 C 11.558594 20.800781 11.199219 20.441406 11.199219 20 C 11.199219 19.558594 11.558594 19.199219 12 19.199219 Z M 12 19.199219"/>
</svg>
