<svg xmlns="http://www.w3.org/2000/svg" width="32" height="32" viewBox="0 0 24 24">
    <path d="M 23.199219 7.601562 L 21.601562 7.601562 C 21.160156 7.601562 20.800781 7.960938 20.800781 8.398438 L 20.800781 8.800781 L 3.199219 8.800781 L 3.199219 8.398438 C 3.199219 7.960938 2.839844 7.601562 2.398438 7.601562 L 0.800781 7.601562 C 0.359375 7.601562 0 7.960938 0 8.398438 L 0 15.601562 C 0 16.039062 0.359375 16.398438 0.800781 16.398438 L 2.398438 16.398438 C 2.839844 16.398438 3.199219 16.039062 3.199219 15.601562 L 3.199219 15.199219 L 20.800781 15.199219 L 20.800781 15.601562 C 20.800781 16.039062 21.160156 16.398438 21.601562 16.398438 L 23.199219 16.398438 C 23.640625 16.398438 24 16.039062 24 15.601562 L 24 8.398438 C 24 7.960938 23.640625 7.601562 23.199219 7.601562 Z M 2.398438 15.601562 L 0.800781 15.601562 L 0.800781 8.398438 L 2.398438 8.398438 Z M 3.199219 14.398438 L 3.199219 11.199219 L 4.398438 11.199219 C 4.640625 11.199219 4.800781 11.039062 4.800781 10.800781 C 4.800781 10.558594 4.640625 10.398438 4.398438 10.398438 L 3.199219 10.398438 L 3.199219 9.601562 L 20.800781 9.601562 L 20.800781 10.398438 L 19.199219 10.398438 C 18.960938 10.398438 18.800781 10.558594 18.800781 10.800781 C 18.800781 11.039062 18.960938 11.199219 19.199219 11.199219 L 20.800781 11.199219 L 20.800781 14.398438 Z M 23.199219 15.601562 L 21.601562 15.601562 L 21.601562 8.398438 L 23.199219 8.398438 Z M 23.199219 15.601562"/>
    <path d="M10.800781 10.398438L7.601562 10.398438C7.359375 10.398438 7.199219 10.558594 7.199219 10.800781 7.199219 11.039062 7.359375 11.199219 7.601562 11.199219L10.800781 11.199219C11.039062 11.199219 11.199219 11.039062 11.199219 10.800781 11.199219 10.558594 11.039062 10.398438 10.800781 10.398438zM6 10.398438C5.761719 10.398438 5.601562 10.558594 5.601562 10.800781 5.601562 11.039062 5.761719 11.199219 6 11.199219 6.238281 11.199219 6.398438 11.039062 6.398438 10.800781 6.398438 10.558594 6.238281 10.398438 6 10.398438zM16.800781 10.398438L12.800781 10.398438C12.558594 10.398438 12.398438 10.558594 12.398438 10.800781 12.398438 11.039062 12.558594 11.199219 12.800781 11.199219L16.800781 11.199219C17.039062 11.199219 17.199219 11.039062 17.199219 10.800781 17.199219 10.558594 17.039062 10.398438 16.800781 10.398438zM16.800781 10.398438"/>
</svg>
