<svg xmlns="http://www.w3.org/2000/svg" width="32" height="32" viewBox="0 0 24 24">
    <path d="M11.188 4.8a.802.802 0 0 0-1.602 0c0 .438.36.802.8.802.442 0 .802-.364.802-.801zm0 0M13.586 5.602a.802.802 0 0 0 0-1.602.801.801 0 0 0 0 1.602zm0 0"/>
    <path d="M17.867 20.68l-1.48-5.602c-.004-.004-.004-.012-.008-.02l-.387-4.25c.25-.335.395-.75.395-1.206 0-.668-.313-1.25-.801-1.61V6.457c.363-.945.402-1.648.402-2.457 0-.281-.043-.602-.12-.879A3.942 3.942 0 0 0 11.987 0a3.946 3.946 0 0 0-3.883 3.121A3.376 3.376 0 0 0 7.988 4c0 .809.04 1.512.399 2.457v1.535c-.489.36-.801.942-.801 1.61 0 .457.148.87.398 1.207l-.398 4.351c0 .027.004.055.008.082L6.148 20.72c-.16.48-.203.922-.16 1.32.078 1.082.64 1.8 1.52 1.961H8.426c.64 0 1.16-.48 1.242-1.121l.758-7.2a.317.317 0 0 0-.004-.148l.285-1.25 1.3-.652 1.22.61.359 1.44c.004.008.004.02.008.028l.715 7.172c.078.64.597 1.121 1.238 1.121h.84c.039 0 .039 0 .12-.04.88-.16 1.438-.839 1.52-1.96 0-.398-.039-.84-.16-1.32zm-5.879-7.918l-1.199-.602v-.95c.152-.116.293-.253.406-.41h1.582c.118.157.254.294.41.41v.95zM8.79 4c0-.121 0-.281.04-.398h6.32c.039.117.039.277.039.398 0 .68 0 1.238-.282 2h-5.84c-.238-.762-.277-1.32-.277-2zm6.797 5.602c0 .32-.117.609-.313.82a.241.241 0 0 0-.085.058c-.16.16-.442.32-.801.32-.024 0-.043 0-.067-.003-.015 0-.03 0-.047-.004h-.015a.23.23 0 0 1-.055-.008H14.2a.994.994 0 0 1-.41-.145.296.296 0 0 0-.07-.035 1.147 1.147 0 0 1-.336-.335c-.012-.024-.02-.047-.035-.07a.97.97 0 0 1-.121-.29c-.012-.039-.02-.082-.028-.12v-.005c0-.02-.004-.039-.004-.058-.004-.004-.004-.008-.004-.012 0-.016 0-.031-.004-.047v-.066c0-.204.079-.403.2-.602a.38.38 0 0 0 .058-.156c.055-.07.117-.133.184-.188.031-.008.059-.015.078-.015.398-.243.879-.282 1.281-.04a.374.374 0 0 0 .157.055c.273.219.44.555.44.946zm-1.758-1.926l-.16-.875h1.16v.84a1.774 1.774 0 0 0-.586-.036 2.35 2.35 0 0 0-.414.07zm-.984-.875l.222 1.285c-.105.094-.203.2-.289.312h-1.582a1.887 1.887 0 0 0-.28-.304l.218-1.293zm-.422 2.41c-.035.121-.035.273-.035.39a1.456 1.456 0 0 0 .039.399h-.88c.005-.004.005-.008.005-.012.035-.117.035-.273.035-.386 0-.118 0-.27-.035-.391 0-.004 0-.008-.004-.012h.879c0 .004 0 .008-.004.012zm2.523-6.41h-2.558V.824a3.173 3.173 0 0 1 2.558 1.977zM11.585.824v1.977H9.028A3.178 3.178 0 0 1 11.586.824zM9.188 6.801h1.122l-.121.879a6.818 6.818 0 0 0-.122-.024 1.958 1.958 0 0 0-.402-.054h-.078c-.113 0-.27 0-.387.035-.004 0-.008 0-.011.004zm.399 1.597c.016 0 .031.004.043.004.215.012.422.078.598.2.035.015.07.035.105.046.102.079.191.172.262.282.008.023.02.047.035.07.055.098.094.191.121.29l.023.124c.004.02.004.04.008.059v.011c.004.016.004.032.004.051 0 .02.004.043.004.067 0 .02-.004.043-.004.066 0 .016 0 .031-.004.047v.012c-.004.02-.004.039-.008.058v.004l-.023.121a1.23 1.23 0 0 1-.121.29.296.296 0 0 0-.035.07 1.25 1.25 0 0 1-.336.335.296.296 0 0 0-.07.036 1.015 1.015 0 0 1-.415.144c-.02.004-.039.008-.058.008h-.012c-.015.004-.035.004-.05.004-.02.004-.044.004-.067.004-.36 0-.64-.16-.758-.32-.035-.016-.074-.036-.117-.047a1.196 1.196 0 0 1-.324-.832c0-.68.52-1.204 1.199-1.204zm-.719 14.403c-.039.238-.199.398-.441.398h-.797c-.524-.078-.8-.52-.84-1.199 0-.36.04-.68.117-1.078l1.36-5.242.64.12.64.13zm1.32-9.16a.672.672 0 0 0-.199.28l-.281 1.2-1.281-.242.32-3.461a2.001 2.001 0 0 0 1.242.145v.835c0 .16.078.282.2.364l.878.437zm2.72-.442l.882-.437c.156-.082.238-.203.238-.364v-.796c.399.078.84.039 1.239-.16l.316 3.421-1.285.258-.309-1.2a.304.304 0 0 0-.199-.28zm4.28 8.762c-.039.719-.32 1.16-.84 1.238h-.8c-.238 0-.399-.16-.442-.398l-.675-6.871 1.285-.258 1.351 5.207c.122.402.16.762.122 1.082zm0 0"/>
</svg>
