<svg xmlns="http://www.w3.org/2000/svg" width="32" height="32" viewBox="0 0 24 24">
    <path d="M 17.269531 11.425781 C 16.59375 10.144531 15.707031 9.109375 15.03125 8.449219 C 15.164062 8.09375 15.234375 7.710938 15.234375 7.316406 C 15.234375 6.800781 15.113281 6.3125 14.898438 5.878906 C 15.179688 5.464844 15.375 5.046875 15.480469 4.628906 C 16.007812 2.472656 15.398438 0.804688 13.8125 0.03125 C 13.6875 -0.0117188 13.566406 -0.0117188 13.445312 0.03125 C 13.324219 0.113281 13.242188 0.191406 13.199219 0.316406 L 12.269531 4.074219 C 12.175781 4.066406 12.078125 4.058594 11.980469 4.058594 C 11.90625 4.058594 11.835938 4.0625 11.765625 4.066406 L 10.800781 0.316406 C 10.757812 0.191406 10.675781 0.0703125 10.554688 0.03125 C 10.433594 -0.0117188 10.3125 -0.0117188 10.1875 0.03125 C 8.601562 0.804688 7.992188 2.472656 8.480469 4.628906 C 8.585938 5.046875 8.777344 5.464844 9.058594 5.878906 C 8.84375 6.3125 8.722656 6.800781 8.722656 7.316406 C 8.722656 7.734375 8.804688 8.136719 8.953125 8.503906 C 8.28125 9.171875 7.425781 10.183594 6.730469 11.425781 C 4.859375 14.964844 5.0625 19.320312 7.257812 22.535156 C 7.503906 22.941406 7.789062 23.226562 7.992188 23.511719 C 8.234375 23.796875 8.601562 24 8.96875 24 C 9.007812 24 9.007812 24 9.050781 24 C 9.375 24 9.742188 23.878906 9.984375 23.59375 C 10.433594 23.144531 10.472656 22.453125 10.148438 21.925781 C 8.683594 19.6875 8.316406 18.507812 8.316406 16.226562 C 8.316406 14.246094 9.964844 11.683594 10.925781 10.394531 C 11.257812 10.507812 11.613281 10.570312 11.980469 10.570312 C 12.363281 10.570312 12.730469 10.503906 13.070312 10.378906 C 13.996094 11.621094 15.683594 14.222656 15.683594 16.226562 C 15.683594 18.546875 15.316406 19.726562 13.851562 21.925781 C 13.484375 22.453125 13.566406 23.144531 14.015625 23.59375 C 14.257812 23.878906 14.585938 24 14.949219 24 C 14.949219 24 14.992188 24 15.03125 24 C 15.4375 24 15.765625 23.796875 16.007812 23.511719 C 16.210938 23.226562 16.496094 22.902344 16.742188 22.535156 C 18.9375 19.320312 19.140625 14.964844 17.269531 11.425781 Z M 13.851562 1.007812 C 14.746094 1.699219 15.03125 2.878906 14.664062 4.425781 C 14.625 4.667969 14.503906 4.875 14.378906 5.117188 C 14.015625 4.710938 13.566406 4.386719 13.039062 4.222656 Z M 9.292969 4.464844 C 8.925781 2.917969 9.210938 1.738281 10.109375 1.046875 L 10.914062 4.238281 C 10.394531 4.421875 9.929688 4.734375 9.566406 5.136719 C 9.449219 4.9375 9.332031 4.703125 9.292969 4.464844 Z M 7.503906 16.269531 C 7.503906 18.75 7.910156 20.050781 9.457031 22.371094 C 9.578125 22.574219 9.539062 22.859375 9.375 23.023438 C 9.292969 23.144531 9.171875 23.1875 9.007812 23.1875 C 8.847656 23.1875 8.722656 23.105469 8.644531 22.984375 C 8.4375 22.738281 8.195312 22.453125 7.949219 22.085938 C 5.917969 19.117188 5.710938 15.046875 7.460938 11.792969 C 8.066406 10.703125 8.792969 9.8125 9.359375 9.242188 C 9.429688 9.335938 9.507812 9.429688 9.585938 9.515625 C 9.757812 9.722656 9.964844 9.902344 10.1875 10.042969 C 9.089844 11.589844 7.503906 14.152344 7.503906 16.269531 Z M 9.539062 7.316406 C 9.539062 5.972656 10.636719 4.875 11.980469 4.875 C 12.21875 4.875 12.453125 4.910156 12.671875 4.972656 C 13.238281 5.164062 13.726562 5.542969 14.054688 6.054688 C 14.070312 6.074219 14.085938 6.09375 14.101562 6.113281 C 14.304688 6.46875 14.421875 6.878906 14.421875 7.316406 C 14.421875 8.097656 14.050781 8.792969 13.472656 9.242188 C 13.335938 9.347656 13.1875 9.4375 13.039062 9.511719 C 13.035156 9.515625 13.035156 9.515625 13.03125 9.515625 C 12.710938 9.671875 12.355469 9.757812 11.980469 9.757812 C 10.636719 9.757812 9.539062 8.65625 9.539062 7.316406 Z M 16.007812 22.128906 C 15.765625 22.453125 15.519531 22.738281 15.316406 23.023438 C 15.234375 23.144531 15.113281 23.226562 14.949219 23.226562 C 14.828125 23.226562 14.707031 23.1875 14.585938 23.0625 C 14.378906 22.902344 14.378906 22.617188 14.503906 22.414062 C 16.050781 20.050781 16.457031 18.75 16.457031 16.269531 C 16.457031 14.152344 14.910156 11.589844 13.769531 10.042969 C 14.097656 9.839844 14.378906 9.554688 14.585938 9.269531 C 15.152344 9.839844 15.925781 10.734375 16.496094 11.832031 C 18.246094 15.128906 18.042969 19.15625 16.007812 22.128906 Z M 16.007812 22.128906"/>
    <path d="M 13.609375 7.316406 C 13.609375 6.417969 12.875 5.6875 11.980469 5.6875 C 11.085938 5.6875 10.351562 6.417969 10.351562 7.316406 C 10.351562 8.210938 11.085938 8.941406 11.980469 8.941406 C 12.875 8.941406 13.609375 8.210938 13.609375 7.316406 Z M 11.164062 7.316406 C 11.164062 6.867188 11.53125 6.5 11.980469 6.5 C 12.425781 6.5 12.792969 6.867188 12.792969 7.316406 C 12.792969 7.761719 12.425781 8.128906 11.980469 8.128906 C 11.53125 8.128906 11.164062 7.761719 11.164062 7.316406 Z M 11.164062 7.316406"/>
</svg>
