<svg xmlns="http://www.w3.org/2000/svg" width="32" height="32" viewBox="0 0 24 24">
    <path d="M 19.601562 6.398438 C 19.601562 5.71875 19.078125 5.199219 18.398438 5.199219 L 17.199219 5.199219 L 17.199219 1.199219 C 17.199219 0.519531 16.679688 0 16 0 C 15.320312 0 14.800781 0.519531 14.800781 1.199219 L 14.800781 5.199219 L 9.199219 5.199219 L 9.199219 1.199219 C 9.199219 0.519531 8.679688 0 8 0 C 7.320312 0 6.800781 0.519531 6.800781 1.199219 L 6.800781 5.199219 L 5.601562 5.199219 C 4.921875 5.199219 4.398438 5.71875 4.398438 6.398438 C 4.398438 6.9375 4.726562 7.375 5.199219 7.535156 L 5.199219 14.800781 C 5.199219 16.800781 6.800781 18.398438 8.800781 18.398438 L 10 18.398438 L 10 20 C 10 20.238281 10.160156 20.398438 10.398438 20.398438 L 10.800781 20.398438 L 10.800781 22 C 10.800781 22.238281 10.960938 22.398438 11.199219 22.398438 L 11.601562 22.398438 L 11.601562 23.601562 C 11.601562 23.839844 11.761719 24 12 24 C 12.238281 24 12.398438 23.839844 12.398438 23.601562 L 12.398438 22.398438 L 12.800781 22.398438 C 13.039062 22.398438 13.199219 22.238281 13.199219 22 L 13.199219 20.398438 L 13.601562 20.398438 C 13.839844 20.398438 14 20.238281 14 20 L 14 18.398438 L 15.199219 18.398438 C 17.199219 18.398438 18.800781 16.800781 18.800781 14.800781 L 18.800781 7.535156 C 19.273438 7.375 19.601562 6.9375 19.601562 6.398438 Z M 15.601562 1.199219 C 15.601562 0.960938 15.761719 0.800781 16 0.800781 C 16.238281 0.800781 16.398438 0.960938 16.398438 1.199219 L 16.398438 5.199219 L 15.601562 5.199219 Z M 7.601562 1.199219 C 7.601562 1 7.761719 0.800781 8 0.800781 C 8.238281 0.800781 8.398438 0.960938 8.398438 1.199219 L 8.398438 5.199219 L 7.601562 5.199219 Z M 12.398438 21.601562 L 11.601562 21.601562 L 11.601562 20.398438 L 12.398438 20.398438 Z M 13.199219 19.601562 L 10.800781 19.601562 L 10.800781 18.398438 L 13.199219 18.398438 Z M 18 14.800781 C 18 16.359375 16.761719 17.601562 15.199219 17.601562 L 8.800781 17.601562 C 7.238281 17.601562 6 16.359375 6 14.800781 L 6 7.601562 L 18 7.601562 Z M 18.398438 6.800781 L 5.601562 6.800781 C 5.359375 6.800781 5.199219 6.640625 5.199219 6.398438 C 5.199219 6.160156 5.359375 6 5.601562 6 L 18.398438 6 C 18.640625 6 18.800781 6.160156 18.800781 6.398438 C 18.800781 6.640625 18.640625 6.800781 18.398438 6.800781 Z M 18.398438 6.800781"/>
    <path d="M 10.398438 12.800781 L 12.640625 12.800781 L 10.519531 14.921875 C 10.359375 15.078125 10.359375 15.320312 10.519531 15.480469 C 10.601562 15.558594 10.679688 15.601562 10.800781 15.601562 C 10.921875 15.601562 11 15.558594 11.078125 15.480469 L 13.878906 12.679688 C 14 12.558594 14.039062 12.398438 13.960938 12.238281 C 13.921875 12.078125 13.761719 12 13.601562 12 L 11.359375 12 L 13.480469 9.878906 C 13.640625 9.71875 13.640625 9.480469 13.480469 9.320312 C 13.320312 9.160156 13.078125 9.160156 12.921875 9.320312 L 10.121094 12.121094 C 10 12.238281 10 12.398438 10.039062 12.558594 C 10.078125 12.71875 10.238281 12.800781 10.398438 12.800781 Z M 10.398438 12.800781"/>
</svg>
