<svg xmlns="http://www.w3.org/2000/svg" width="32" height="32" viewBox="0 0 24 24">
    <path d="M18 8.800781C17.800781 8.800781 17.601562 9 17.601562 9.199219 17.601562 9.441406 17.761719 9.601562 18 9.601562 18.238281 9.601562 18.398438 9.441406 18.398438 9.199219 18.398438 8.960938 18.238281 8.800781 18 8.800781zM13.199219 12.398438C12.960938 12.398438 12.800781 12.558594 12.800781 12.800781L12.800781 16.800781C12.800781 17.039062 12.960938 17.199219 13.199219 17.199219 13.441406 17.199219 13.601562 17.039062 13.601562 16.800781L13.601562 12.800781C13.601562 12.558594 13.441406 12.398438 13.199219 12.398438zM13.199219 12.398438"/>
    <path d="M 23.199219 3.601562 L 21.601562 3.601562 C 21.160156 3.601562 20.800781 3.960938 20.800781 4.398438 L 20.800781 4.800781 L 15.199219 4.800781 L 15.199219 3.199219 L 15.601562 3.199219 C 16.039062 3.199219 16.398438 2.839844 16.398438 2.398438 L 16.398438 0.800781 C 16.398438 0.359375 16.039062 0 15.601562 0 L 8.398438 0 C 7.960938 0 7.601562 0.359375 7.601562 0.800781 L 7.601562 2.398438 C 7.601562 2.839844 7.960938 3.199219 8.398438 3.199219 L 8.800781 3.199219 L 8.800781 12.800781 L 3.199219 12.800781 L 3.199219 12.398438 C 3.199219 11.960938 2.839844 11.601562 2.398438 11.601562 L 0.800781 11.601562 C 0.359375 11.601562 0 11.960938 0 12.398438 L 0 19.601562 C 0 20.039062 0.359375 20.398438 0.800781 20.398438 L 2.398438 20.398438 C 2.839844 20.398438 3.199219 20.039062 3.199219 19.601562 L 3.199219 19.199219 L 8.800781 19.199219 L 8.800781 20.800781 L 8.398438 20.800781 C 7.960938 20.800781 7.601562 21.160156 7.601562 21.601562 L 7.601562 23.199219 C 7.601562 23.640625 7.960938 24 8.398438 24 L 15.601562 24 C 16.039062 24 16.398438 23.640625 16.398438 23.199219 L 16.398438 21.601562 C 16.398438 21.160156 16.039062 20.800781 15.601562 20.800781 L 15.199219 20.800781 L 15.199219 11.199219 L 20.800781 11.199219 L 20.800781 11.601562 C 20.800781 12.039062 21.160156 12.398438 21.601562 12.398438 L 23.199219 12.398438 C 23.640625 12.398438 24 12.039062 24 11.601562 L 24 4.398438 C 24 3.960938 23.640625 3.601562 23.199219 3.601562 Z M 8.398438 0.800781 L 15.601562 0.800781 L 15.601562 2.398438 L 8.398438 2.398438 Z M 2.398438 19.601562 L 0.800781 19.601562 L 0.800781 12.398438 L 2.398438 12.398438 Z M 15.601562 23.199219 L 8.398438 23.199219 L 8.398438 21.601562 L 15.601562 21.601562 Z M 14.800781 10.398438 C 14.558594 10.398438 14.398438 10.558594 14.398438 10.800781 L 14.398438 20.800781 L 13.601562 20.800781 L 13.601562 19.199219 C 13.601562 18.960938 13.441406 18.800781 13.199219 18.800781 C 12.960938 18.800781 12.800781 18.960938 12.800781 19.199219 L 12.800781 20.800781 L 9.601562 20.800781 L 9.601562 18.800781 C 9.601562 18.558594 9.441406 18.398438 9.199219 18.398438 L 3.199219 18.398438 L 3.199219 13.601562 L 9.199219 13.601562 C 9.441406 13.601562 9.601562 13.441406 9.601562 13.199219 L 9.601562 3.199219 L 14.398438 3.199219 L 14.398438 5.199219 C 14.398438 5.441406 14.558594 5.601562 14.800781 5.601562 L 20.800781 5.601562 L 20.800781 8.800781 L 19.601562 8.800781 C 19.359375 8.800781 19.199219 8.960938 19.199219 9.199219 C 19.199219 9.441406 19.359375 9.601562 19.601562 9.601562 L 20.800781 9.601562 L 20.800781 10.398438 Z M 23.199219 11.601562 L 21.601562 11.601562 L 21.601562 4.398438 L 23.199219 4.398438 Z M 23.199219 11.601562"/>
    <path d="M 16.398438 8.800781 L 13.199219 8.800781 C 12.960938 8.800781 12.800781 8.960938 12.800781 9.199219 L 12.800781 10.800781 C 12.800781 11.039062 12.960938 11.199219 13.199219 11.199219 C 13.441406 11.199219 13.601562 11.039062 13.601562 10.800781 L 13.601562 9.601562 L 16.398438 9.601562 C 16.640625 9.601562 16.800781 9.441406 16.800781 9.199219 C 16.800781 8.960938 16.640625 8.800781 16.398438 8.800781 Z M 16.398438 8.800781"/>
</svg>
