<svg xmlns="http://www.w3.org/2000/svg" width="32" height="32" viewBox="0 0 24 24">
    <path d="M14 20v-1.602h-.8V0h-2.4v18.398H10V20H5.602v3.602c0 .238.16.398.398.398.238 0 .398-.16.398-.398v-1.204h.403v1.204c0 .238.16.398.398.398.242 0 .403-.16.403-.398v-1.204H8v1.204c0 .238.16.398.398.398.243 0 .403-.16.403-.398v-1.204h.398v1.204c0 .238.16.398.403.398.238 0 .398-.16.398-.398v-1.204h.398v1.204c0 .238.16.398.403.398.238 0 .398-.16.398-.398v-1.204h.403v1.204c0 .238.156.398.398.398.238 0 .398-.16.398-.398v-1.204h.403v1.204c0 .238.16.398.398.398.242 0 .403-.16.403-.398v-1.204H14v1.204c0 .238.16.398.398.398.243 0 .403-.16.403-.398v-1.204h.398v1.204c0 .238.16.398.399.398.242 0 .402-.16.402-.398v-1.204h.398v1.204c0 .238.16.398.403.398.238 0 .398-.16.398-.398v-1.204h.399v1.204c0 .238.16.398.402.398.238 0 .398-.16.398-.398V20zM12.398 6h-.796V2.398h.796zM11.602.8h.796v.802h-.796zm0 6h.796v11.598h-.796zM10.8 19.2h2.398v.8h-2.398zm-4.403 1.6h11.204v.802H6.398zm0 0"/>
</svg>
