<svg xmlns="http://www.w3.org/2000/svg" width="32" height="32" viewBox="0 0 24 24">
    <path d="M 14 20 L 14 18.398438 L 13.199219 18.398438 L 13.199219 0 L 10.800781 0 L 10.800781 18.398438 L 10 18.398438 L 10 20 L 5.601562 20 L 5.601562 23.601562 C 5.601562 23.839844 5.761719 24 6 24 C 6.238281 24 6.398438 23.839844 6.398438 23.601562 L 6.398438 22.398438 L 6.800781 22.398438 L 6.800781 23.601562 C 6.800781 23.839844 6.960938 24 7.199219 24 C 7.441406 24 7.601562 23.839844 7.601562 23.601562 L 7.601562 22.398438 L 8 22.398438 L 8 23.601562 C 8 23.839844 8.160156 24 8.398438 24 C 8.640625 24 8.800781 23.839844 8.800781 23.601562 L 8.800781 22.398438 L 9.199219 22.398438 L 9.199219 23.601562 C 9.199219 23.839844 9.359375 24 9.601562 24 C 9.839844 24 10 23.839844 10 23.601562 L 10 22.398438 L 10.398438 22.398438 L 10.398438 23.601562 C 10.398438 23.839844 10.558594 24 10.800781 24 C 11.039062 24 11.199219 23.839844 11.199219 23.601562 L 11.199219 22.398438 L 11.601562 22.398438 L 11.601562 23.601562 C 11.601562 23.839844 11.757812 24 12 24 C 12.238281 24 12.398438 23.839844 12.398438 23.601562 L 12.398438 22.398438 L 12.800781 22.398438 L 12.800781 23.601562 C 12.800781 23.839844 12.960938 24 13.199219 24 C 13.441406 24 13.601562 23.839844 13.601562 23.601562 L 13.601562 22.398438 L 14 22.398438 L 14 23.601562 C 14 23.839844 14.160156 24 14.398438 24 C 14.640625 24 14.800781 23.839844 14.800781 23.601562 L 14.800781 22.398438 L 15.199219 22.398438 L 15.199219 23.601562 C 15.199219 23.839844 15.359375 24 15.597656 24 C 15.839844 24 16 23.839844 16 23.601562 L 16 22.398438 L 16.398438 22.398438 L 16.398438 23.601562 C 16.398438 23.839844 16.558594 24 16.800781 24 C 17.039062 24 17.199219 23.839844 17.199219 23.601562 L 17.199219 22.398438 L 17.597656 22.398438 L 17.597656 23.601562 C 17.597656 23.839844 17.757812 24 18 24 C 18.238281 24 18.398438 23.839844 18.398438 23.601562 L 18.398438 20 Z M 12.398438 6 L 11.601562 6 L 11.601562 2.398438 L 12.398438 2.398438 Z M 11.601562 0.800781 L 12.398438 0.800781 L 12.398438 1.601562 L 11.601562 1.601562 Z M 11.601562 6.800781 L 12.398438 6.800781 L 12.398438 18.398438 L 11.601562 18.398438 Z M 10.800781 19.199219 L 13.199219 19.199219 L 13.199219 20 L 10.800781 20 Z M 6.398438 20.800781 L 17.601562 20.800781 L 17.601562 21.601562 L 6.398438 21.601562 Z M 6.398438 20.800781"/>
</svg>
