<svg xmlns="http://www.w3.org/2000/svg" width="32" height="32" viewBox="0 0 24 24">
    <path d="M23.902.309a.362.362 0 0 0-.32-.164H10.586a.485.485 0 0 0-.106.011c-.03-.004-.062-.011-.093-.011h-6.54c-.199 0-.363.12-.402.28l-.48 2.329c-.012.062-.02.125-.031.187l-.93 4.504c-.02.082-.031.164-.043.242l-.899 4.418a.272.272 0 0 0-.023.075l-.96 4.734c-.204.961 0 1.926.519 2.727.523.804 1.324 1.363 2.285 1.523.242.043.484.082.722.082.723 0 1.407-.2 1.965-.601.332-.215.617-.477.856-.774.105.352.261.692.469 1.016a3.573 3.573 0 0 0 2.289 1.562c.238.04.48.082.722.082.68 0 1.364-.203 2.004-.601.313-.203.586-.45.817-.73a3.612 3.612 0 0 0 2.753 2.573c.243.04.48.082.723.082.68 0 1.363-.203 2.043-.644a3.556 3.556 0 0 0 1.567-2.285l.96-4.696a.423.423 0 0 0-.003-.171l.808-3.973a3.67 3.67 0 0 0 .16-.547l.961-4.695a.344.344 0 0 0 .008-.067l.918-4.547v-.039c.004-.035.004-.066.004-.097l.355-1.426c.04-.121 0-.242-.082-.36zM5.25 15.649c-.023.003-.047.011-.07.015l-.067.012c-.027.008-.058.011-.09.02l-.039.003c-.316.047-.644.04-.976-.027-.899-.168-1.602-.766-1.973-1.543a2.908 2.908 0 0 1-.195-1.79.403.403 0 0 0-.004-.167l.488-2.317a3.596 3.596 0 0 0 2.528 1.926c1.07.196 2.18-.074 2.976-.742l-.457 2.266a.401.401 0 0 0-.074.16l-.09.437a2.837 2.837 0 0 1-1.91 1.73c-.016.009-.031.013-.047.016zm15.406-7.2c-.437.274-.93.434-1.43.461a2.89 2.89 0 0 1-.656-.058c-1.375-.29-2.355-1.524-2.304-2.88.004-.019.004-.042.007-.062l.09-.469c.004-.02.004-.039.004-.058l.637-2.469c.02.043.043.094.074.152.027.059.055.114.086.168a3.181 3.181 0 0 0 2.168 1.688c.055.004.105.012.16.02.883.163 1.801-.005 2.567-.462.12-.043.199-.12.32-.203l-.48 2.407a2.8 2.8 0 0 1-1.243 1.765zm-8.226 8.106c-.64.398-1.403.558-2.125.398-1.332-.281-2.266-1.45-2.266-2.754.059-.16.106-.324.14-.496l.497-2.43a3.818 3.818 0 0 0 2.433 1.829c1.082.203 2.204-.079 3.008-.762l-.523 2.488a2.847 2.847 0 0 1-.739 1.395 2.76 2.76 0 0 1-.425.332zm2.129-6.5a2.872 2.872 0 0 1-1.496 1.96 2.759 2.759 0 0 1-1.754.204A2.837 2.837 0 0 1 9.043 9.46l.098-.488c.004-.024.007-.047.007-.07l.457-2.419a3.66 3.66 0 0 0 2.465 1.844c1.082.203 2.207-.078 3.008-.762zm1-4.696l-.063.329c-.469 1.277-1.828 2.093-3.226 1.8-1.391-.293-2.38-1.554-2.297-2.93l.05-.28v-.04l.516-2.57a3.662 3.662 0 0 0 2.496 1.93c.238.039.438.078.68.078.894 0 1.781-.34 2.48-.903zM9.297 3.9a.49.49 0 0 0-.035.097l-.067.34A2.7 2.7 0 0 1 8.06 5.844c-.641.398-1.403.558-2.125.398a2.877 2.877 0 0 1-1.696-1.086 2.771 2.771 0 0 1-.472-2.203l.324-1.61c.601.606 1.57 1.212 2.644 1.212.899 0 2.09-.332 2.993-.887zM4.602 6.585a3.89 3.89 0 0 0 1.171.5c1.082.2 2.207-.078 3.008-.762l-.523 2.489c-.16.718-.559 1.363-1.203 1.761-.453.285-.97.45-1.485.461-.183 0-.37-.02-.558-.058-1.528-.32-2.528-1.805-2.207-3.329A.48.48 0 0 0 2.8 7.48l.484-2.32c.3.586.758 1.078 1.317 1.426zm15.293 9.527c-.165.719-.563 1.364-1.207 1.762a2.92 2.92 0 0 1-1.485.46c-.183 0-.371-.019-.558-.058-1.43-.3-2.399-1.62-2.254-3.039.035-.105.062-.218.086-.328l.48-2.36c.043.079.102.153.16.274a3.573 3.573 0 0 0 2.29 1.563 3.69 3.69 0 0 0 2.671-.512c.031-.016.063-.031.094-.05.082-.052.16-.106.234-.165zm1-4.773a2.852 2.852 0 0 1-2.04 2.168l-.046.012c-.024.007-.047.011-.07.02l-.067.01a.614.614 0 0 1-.09.016c-.012.004-.027.004-.039.008a2.75 2.75 0 0 1-.977-.031 2.903 2.903 0 0 1-.878-.344c-.004 0-.008-.004-.012-.004l-.09-.058a4162.907 4162.907 0 0 0-.14-.098 2.574 2.574 0 0 1-.645-.7 2.924 2.924 0 0 1-.457-1.683l.066-.332c.012-.035.02-.07.031-.11l.47-2.433c.487.934 1.355 1.598 2.5 1.871 1.081.203 2.202-.078 3.007-.761l-.496 2.37c-.012.024-.02.052-.027.079zm1.953-9.387c-.012.024-.02.05-.028.078v.04a2.627 2.627 0 0 1-1.203 1.687c-.64.398-1.402.52-2.086.36-.722-.122-1.285-.563-1.644-1.243-.32-.563-.442-1.246-.36-1.926h5.535zM16.645.95c-.563 1.281-2.086 2.164-3.45 1.887-1.004-.203-1.808-.926-2.086-1.887zm-7.262 0c-.762.48-1.844.801-2.649.801-.68 0-1.402-.36-1.882-.8zM5.129 20.004c-.64.398-1.402.558-2.125.398-.723-.16-1.363-.558-1.766-1.203C.84 18.56.68 17.797.84 17.074l.52-2.488c.054.105.113.203.175.3l.024.036c0 .004.004.008.007.008.25.383.575.718.961.98.383.274.828.48 1.32.602.712.133 1.442.054 2.087-.207.234-.082.46-.188.68-.313.07-.043.132-.09.199-.137L6.335 18.2c-.008.031-.012.063-.016.094-.168.7-.566 1.32-1.191 1.71zm6.3 1.281c-.644.402-1.406.563-2.128.402-.719-.16-1.364-.562-1.762-1.203-.402-.64-.562-1.406-.402-2.125l.523-2.48c.485.957 1.363 1.637 2.445 1.879.188.039.375.062.563.07.066.004.133.008.2.008.683 0 1.362-.2 2.046-.64.078-.055.156-.11.23-.169l-.511 2.493c-.16.722-.563 1.367-1.203 1.765zm7.5-.48c-.16.722-.562 1.363-1.202 1.765-.641.403-1.403.563-2.125.403-.723-.16-1.364-.563-1.766-1.203a2.915 2.915 0 0 1-.453-1.774 3.64 3.64 0 0 0 .09-.355l.504-2.446a3.59 3.59 0 0 0 2.464 1.883c1.086.203 2.207-.078 3.012-.762zm0 0"/>
</svg>
