<svg xmlns="http://www.w3.org/2000/svg" width="32" height="32" viewBox="0 0 24 24">
    <path d="M 23.730469 19.1875 L 4.882812 0.339844 C 4.441406 -0.101562 3.640625 -0.101562 3.203125 0.339844 L 0.359375 3.179688 C -0.121094 3.621094 -0.121094 4.382812 0.359375 4.863281 L 3.480469 7.984375 L 5.722656 10.222656 L 9.125 13.625 L 12.523438 17.027344 L 19.207031 23.710938 C 19.40625 23.910156 19.648438 23.988281 19.886719 23.988281 C 20.128906 23.988281 20.367188 23.910156 20.527344 23.710938 L 23.730469 20.507812 C 24.089844 20.148438 24.089844 19.546875 23.730469 19.1875 Z M 23.167969 19.949219 L 19.96875 23.148438 C 19.886719 23.230469 19.847656 23.230469 19.769531 23.148438 L 15.625 19.007812 L 17.046875 17.585938 C 17.207031 17.425781 17.207031 17.1875 17.046875 17.027344 C 16.886719 16.867188 16.648438 16.867188 16.488281 17.027344 L 15.066406 18.449219 L 14.484375 17.867188 L 15.328125 17.027344 C 15.488281 16.867188 15.488281 16.628906 15.328125 16.46875 C 15.167969 16.308594 14.925781 16.308594 14.765625 16.46875 L 13.925781 17.308594 L 13.367188 16.746094 L 14.765625 15.347656 C 14.925781 15.1875 14.925781 14.945312 14.765625 14.785156 C 14.605469 14.625 14.367188 14.625 14.207031 14.785156 L 12.804688 16.1875 L 12.246094 15.625 L 13.085938 14.785156 C 13.246094 14.625 13.246094 14.386719 13.085938 14.226562 C 12.925781 14.066406 12.683594 14.066406 12.523438 14.226562 L 11.683594 15.066406 L 11.105469 14.484375 L 12.523438 13.066406 C 12.683594 12.90625 12.683594 12.664062 12.523438 12.503906 C 12.363281 12.34375 12.125 12.34375 11.964844 12.503906 L 10.542969 13.925781 L 9.964844 13.34375 L 10.804688 12.503906 C 10.964844 12.34375 10.964844 12.105469 10.804688 11.945312 C 10.644531 11.785156 10.40625 11.785156 10.246094 11.945312 L 9.402344 12.785156 L 8.84375 12.226562 L 10.246094 10.824219 C 10.40625 10.664062 10.40625 10.425781 10.246094 10.265625 C 10.085938 10.105469 9.84375 10.105469 9.683594 10.265625 L 8.285156 11.664062 L 7.722656 11.105469 L 8.5625 10.265625 C 8.722656 10.105469 8.722656 9.863281 8.5625 9.703125 C 8.402344 9.542969 8.164062 9.542969 8.003906 9.703125 L 7.164062 10.542969 L 6.5625 9.945312 L 7.964844 8.542969 C 8.125 8.382812 8.125 8.144531 7.964844 7.984375 C 7.804688 7.824219 7.5625 7.824219 7.402344 7.984375 L 6.003906 9.382812 L 5.441406 8.824219 L 6.28125 7.984375 C 6.441406 7.824219 6.441406 7.582031 6.28125 7.421875 C 6.121094 7.261719 5.882812 7.261719 5.722656 7.421875 L 4.882812 8.261719 L 4.320312 7.703125 L 5.722656 6.300781 C 5.882812 6.140625 5.882812 5.902344 5.722656 5.742188 C 5.5625 5.582031 5.320312 5.582031 5.164062 5.742188 L 3.761719 7.144531 L 3.179688 6.5625 L 4.042969 5.703125 C 4.203125 5.542969 4.203125 5.300781 4.042969 5.140625 C 3.882812 4.980469 3.640625 4.980469 3.480469 5.140625 L 2.621094 6.003906 L 2.039062 5.421875 L 3.441406 4.023438 C 3.601562 3.863281 3.601562 3.621094 3.441406 3.460938 C 3.28125 3.300781 3.042969 3.300781 2.882812 3.460938 L 1.480469 4.863281 L 0.921875 4.300781 C 0.839844 4.222656 0.800781 4.140625 0.800781 4.023438 C 0.800781 3.902344 0.839844 3.820312 0.921875 3.742188 L 3.761719 0.898438 C 3.839844 0.820312 3.921875 0.78125 4.042969 0.78125 C 4.160156 0.78125 4.242188 0.820312 4.320312 0.898438 L 23.167969 19.75 C 23.210938 19.789062 23.210938 19.910156 23.167969 19.949219 Z M 23.167969 19.949219"/>
    <path d="M 18.769531 18.707031 C 18.128906 19.308594 18.128906 20.308594 18.769531 20.949219 C 19.089844 21.269531 19.488281 21.429688 19.886719 21.429688 C 20.289062 21.429688 20.6875 21.308594 21.007812 20.949219 C 21.648438 20.347656 21.609375 19.347656 21.007812 18.707031 C 20.410156 18.066406 19.40625 18.109375 18.769531 18.707031 Z M 20.449219 20.429688 C 20.128906 20.75 19.648438 20.75 19.328125 20.429688 C 19.007812 20.109375 19.007812 19.628906 19.328125 19.308594 C 19.488281 19.148438 19.6875 19.066406 19.886719 19.066406 C 20.089844 19.066406 20.289062 19.148438 20.449219 19.308594 C 20.769531 19.628906 20.769531 20.109375 20.449219 20.429688 Z M 20.449219 20.429688"/>
</svg>
