<svg xmlns="http://www.w3.org/2000/svg" width="32" height="32" viewBox="0 0 24 24">
    <path d="M20.934 21.758a.385.385 0 0 0-.559 0l-.844.84a.39.39 0 0 0 0 .562c.082.078.16.117.282.117.082 0 .199-.039.28-.117l.84-.844a.385.385 0 0 0 0-.558zm0 0"/>
    <path d="M23.219 20.035l-.883-.883c-.2-.16-.398-.359-.64-.48-1.083-.602-1.801-1.363-2.005-2.164v-.04l-.359-.843c-.16-.36-.52-.64-.922-.719-.398-.082-.84.078-1.12.36l-2.165 2.164c-.32.28-.441.718-.36 1.12.079.403.36.762.762.923l.84.359h.04c.8.203 1.484.844 2.124 1.965v.039c.121.281.2.52.442.762l.84.84c.359.363.882.562 1.402.562.52 0 1.043-.2 1.484-.602l.559-.558c.363-.363.562-.883.562-1.402 0-.524-.242-1.043-.601-1.403zm-.52 2.203l-.562.559c-.48.48-1.282.523-1.762.043l-.844-.844c-.117-.078-.199-.281-.277-.48l-.043-.04v-.038c-.762-1.325-1.602-2.086-2.602-2.368l-.804-.36c-.16-.038-.239-.16-.278-.32-.043-.12 0-.28.118-.402l2.164-2.203a.47.47 0 0 1 .32-.117c.043 0 .082 0 .16-.043a.54.54 0 0 1 .32.281l.364.801c.28 1.004 1.12 1.965 2.402 2.645.121.039.242.16.402.32l.88.883c.202.238.363.52.363.84.039.32-.082.601-.32.843zm0 0"/>
    <path d="M17.25 15.785l-.844-.84a.356.356 0 0 0-.281-.12c-.117 0-.2.038-.277.12l-1.125 1.121a.39.39 0 0 0 0 .563l.843.84c.079.082.16.12.282.12.078 0 .199-.038.277-.12l1.125-1.121a.39.39 0 0 0 0-.563zm-1.402.844l-.282-.281.559-.563.281.281zm0 0"/>
    <path d="M17.809 7.852l-6.41-6.41a4.937 4.937 0 0 0-6.973 0L.539 5.327c-.238.2-.36.524-.36.844 0 .32.122.598.403.84.441.441 1.242.441 1.684 0l3.882-3.887c.965-1 2.567-1 3.567 0l6.41 6.41c.762.8.762 2.086 0 2.844l-4.246 4.25c-.48.441-.48 1.2 0 1.68.242.242.523.363.844.363.32 0 .597-.121.84-.32l4.246-4.25a4.425 4.425 0 0 0 0-6.25zm-.559 5.652L13 17.75a.385.385 0 0 1-.559 0 .39.39 0 0 1 0-.563l4.246-4.246c1.083-1.082 1.083-2.882 0-3.964l-6.41-6.415a3.37 3.37 0 0 0-2.363-.96c-.883 0-1.723.32-2.363.96L1.664 6.45a.39.39 0 0 1-.562 0 .385.385 0 0 1 0-.558l3.886-3.887C6.59.402 9.234.402 10.84 2.004l6.41 6.41a3.605 3.605 0 0 1 0 5.09zm0 0"/>
    <path d="M3.906 2.484l-1.12-1.12a.361.361 0 0 0-.282-.122c-.121 0-.2.04-.281.121L1.102 2.484a.438.438 0 0 0-.122.282c0 .078.043.199.122.28l1.12 1.122c.083.078.16.121.282.121.121 0 .2-.043.281-.121l1.121-1.121a.39.39 0 0 0 0-.563zm-1.402.84l-.563-.558.563-.563.562.563zm0 0M4.746 6.129L3.625 5.008a.385.385 0 0 0-.559 0 .39.39 0 0 0 0 .562l1.16 1.16c.083.082.16.122.282.122.078 0 .199-.04.238-.16a.39.39 0 0 0 0-.563zm0 0M13.844 15.227l-1.121-1.122a.383.383 0 0 0-.563 0 .385.385 0 0 0 0 .56l1.121 1.12c.082.082.16.121.281.121.122 0 .2-.039.282-.12a.385.385 0 0 0 0-.56zm0 0"/>
    <path d="M12.96 13.824a.385.385 0 0 0-.558 0L11 15.227a.385.385 0 0 0 0 .558c.078.082.16.121.277.121.121 0 .243-.039.282-.12l1.402-1.403a.385.385 0 0 0 0-.559zm0 0"/>
    <path d="M11.598 15.227L3.945 7.574 5.027 6.45a.385.385 0 0 0 0-.558.385.385 0 0 0-.558 0L3.066 7.293a.356.356 0 0 0-.12.281c0 .117.038.2.12.278L11 15.785c.078.082.16.121.277.121.121 0 .243-.039.32-.12a.385.385 0 0 0 0-.56zm0 0"/>
</svg>
