<svg xmlns="http://www.w3.org/2000/svg" width="32" height="32" viewBox="0 0 24 24">
    <path d="M7.988 12.797c-1.12 0-2 .879-2 2 0 1.117.88 1.996 2 1.996a1.977 1.977 0 0 0 1.996-1.996c0-1.121-.879-2-1.996-2zm0 3.195c-.68 0-1.199-.52-1.199-1.195 0-.68.52-1.2 1.2-1.2.675 0 1.195.52 1.195 1.2 0 .676-.52 1.195-1.196 1.195zm0 0"/>
    <path d="M22.77 8.934c.238-.493.062-1.082-.407-1.407l-7.59-5.03c-.078-.083-.199-.083-.277-.083l-.8.16c-.063 0-.157.055-.208.117-.425-.175-.922-.203-1.59-.035-1.675.399-3.152 1.559-4.03 3.153L7.32 6.836C3.234 7.18 0 10.629 0 14.796c0 .24.16.4.398.4h.813a6.784 6.784 0 0 0 6.777 6.39 6.788 6.788 0 0 0 5.762-3.195h4.7c3.034 0 5.51-2.477 5.55-5.551v-1.16c0-1.051-.46-2.035-1.23-2.746zm-8.313-5.68l7.547 4.953c.113.113.187.293.101.445a.336.336 0 0 0-.14.114c-.36.437-1 .558-1.48.238l-6.188-3.992a1.178 1.178 0 0 1-.55-.938c0-.23.073-.445.19-.62l.079-.118zm.316 11.941h.801c.239 0 .399-.16.399-.398v-.188-.02c-.004-.007-.004-.015-.004-.023v-.039c0-.03-.004-.066-.004-.101v-.04c-.004 0-.004-.003-.004-.003 0-.024 0-.043-.004-.067 0-.02 0-.039-.004-.062 0-.047-.004-.094-.008-.14 0-.005-.004-.012-.004-.016-.3-3.453-2.808-6.282-6.097-7.07l.539-.618c.32-.441.758-.8 1.156-1.039a3.28 3.28 0 0 0 1.36 1.676l6.19 3.996a3.742 3.742 0 0 0 2.434.52V12.878a3.12 3.12 0 0 1-3.113 3.113h-3.723a5.99 5.99 0 0 0 .086-.797zm-6.785-7.59c3.82 0 6.965 2.977 7.184 6.75h-.797a.472.472 0 0 0-.188.04h-.609c-.2-2.915-2.637-5.192-5.59-5.192-2.957 0-5.394 2.277-5.593 5.192H.797c.242-3.793 3.355-6.79 7.191-6.79zm0 13.18c-3.195 0-5.793-2.476-5.992-5.59h.8c.24 0 .4-.16.4-.398a4.806 4.806 0 0 1 4.792-4.793c2.633 0 4.79 2.156 4.79 4.793 0 .238.16.398.402.398h.777c-.031.36-.094.707-.18 1.078a.291.291 0 0 0-.015.102 6.2 6.2 0 0 1-.582 1.414.321.321 0 0 0-.047.098 5.999 5.999 0 0 1-5.145 2.898zM23.16 12.88a4.719 4.719 0 0 1-4.71 4.71h-4.274s.004-.003.004-.007c.12-.258.226-.523.312-.789h3.957c2.156 0 3.914-1.758 3.914-3.953v-1.16c0-.278-.082-.52-.16-.758-.078-.2-.281-.281-.48-.238-.758.199-1.555.039-2.196-.36L13.38 6.328c-.559-.398-1-.996-1.16-1.676-.04-.12-.078-.238-.2-.28-.078-.04-.199-.04-.32 0-.719.32-1.394.839-1.914 1.48l-.87 1.007a8.882 8.882 0 0 0-.65-.05l.32-.598c.798-1.399 2.08-2.399 3.517-2.758.398-.078.718-.117.957-.039-.282.84 0 1.797.796 2.277l6.153 3.993a1.797 1.797 0 0 0 1.262.308c.351-.043.687-.176.972-.387.602.56.918 1.317.918 2.114zm0 0"/>
</svg>
