<svg xmlns="http://www.w3.org/2000/svg" width="32" height="32" viewBox="0 0 24 24">
    <path d="M 22.800781 6 L 22 6 C 21.320312 6 20.800781 6.519531 20.800781 7.199219 L 20.800781 9.558594 C 20.800781 9.921875 20.878906 10.28125 21.039062 10.558594 C 21.160156 10.761719 21.199219 11 21.199219 11.238281 L 21.199219 11.601562 C 21.199219 11.679688 21.210938 11.753906 21.234375 11.824219 C 15.167969 13.097656 8.832031 13.097656 2.765625 11.824219 C 2.789062 11.753906 2.800781 11.679688 2.800781 11.601562 L 2.800781 11.238281 C 2.800781 11 2.878906 10.800781 2.960938 10.601562 C 3.121094 10.28125 3.199219 9.921875 3.199219 9.558594 L 3.199219 7.199219 C 3.199219 6.519531 2.679688 6 2 6 L 1.199219 6 C 0.519531 6 0 6.519531 0 7.199219 L 0 9.558594 C 0 9.921875 0.078125 10.28125 0.238281 10.558594 C 0.359375 10.761719 0.398438 11 0.398438 11.238281 L 0.398438 11.601562 C 0.398438 12.039062 0.761719 12.398438 1.199219 12.398438 L 1.199219 16 C 1.199219 16.199219 1.320312 16.359375 1.519531 16.398438 L 1.761719 16.441406 C 1.839844 16.457031 1.921875 16.476562 2 16.492188 L 2 16.519531 C 2 16.761719 2.160156 16.921875 2.398438 16.921875 C 2.585938 16.921875 2.722656 16.800781 2.773438 16.65625 C 3.050781 16.710938 3.324219 16.765625 3.601562 16.816406 L 3.601562 16.921875 C 3.601562 17.160156 3.761719 17.320312 4 17.320312 C 4.222656 17.320312 4.378906 17.144531 4.398438 16.957031 C 4.664062 17.003906 4.933594 17.046875 5.199219 17.085938 L 5.199219 17.160156 C 5.199219 17.398438 5.359375 17.558594 5.601562 17.558594 C 5.828125 17.558594 5.980469 17.417969 6 17.199219 C 6.265625 17.234375 6.53125 17.269531 6.800781 17.300781 L 6.800781 17.398438 C 6.800781 17.640625 6.960938 17.800781 7.199219 17.800781 C 7.441406 17.800781 7.601562 17.601562 7.601562 17.398438 L 7.601562 17.382812 C 7.867188 17.410156 8.132812 17.433594 8.398438 17.453125 L 8.398438 17.519531 C 8.398438 17.761719 8.558594 17.917969 8.800781 17.917969 C 9.039062 17.917969 9.199219 17.71875 9.199219 17.519531 L 9.199219 17.511719 C 9.464844 17.527344 9.734375 17.542969 10 17.554688 L 10 17.601562 C 10 17.839844 10.160156 18 10.398438 18 C 10.640625 18 10.800781 17.839844 10.800781 17.601562 L 10.800781 17.582031 C 11.066406 17.589844 11.332031 17.59375 11.601562 17.597656 L 11.601562 17.601562 C 11.601562 17.839844 11.757812 18 12 18 C 12.238281 18 12.398438 17.839844 12.398438 17.601562 L 12.398438 17.597656 C 12.667969 17.59375 12.933594 17.589844 13.199219 17.582031 L 13.199219 17.601562 C 13.199219 17.839844 13.359375 18 13.601562 18 C 13.839844 18 14 17.839844 14 17.601562 L 14 17.554688 C 14.265625 17.542969 14.53125 17.527344 14.800781 17.511719 L 14.800781 17.519531 C 14.800781 17.761719 14.960938 17.917969 15.199219 17.917969 C 15.441406 17.917969 15.601562 17.71875 15.601562 17.519531 L 15.601562 17.453125 C 15.867188 17.433594 16.132812 17.410156 16.398438 17.386719 L 16.398438 17.398438 C 16.398438 17.640625 16.558594 17.800781 16.800781 17.800781 C 17.039062 17.800781 17.199219 17.601562 17.199219 17.398438 L 17.199219 17.300781 C 17.46875 17.269531 17.734375 17.238281 18 17.199219 C 18.019531 17.417969 18.171875 17.558594 18.398438 17.558594 C 18.640625 17.558594 18.800781 17.398438 18.800781 17.160156 L 18.800781 17.089844 C 19.066406 17.046875 19.335938 17.007812 19.601562 16.960938 C 19.617188 17.179688 19.773438 17.320312 20 17.320312 C 20.238281 17.320312 20.398438 17.121094 20.398438 16.921875 L 20.398438 16.820312 C 20.675781 16.769531 20.949219 16.714844 21.21875 16.660156 C 21.269531 16.820312 21.410156 16.921875 21.597656 16.921875 C 21.839844 16.921875 22 16.71875 22 16.519531 L 22 16.492188 C 22.078125 16.476562 22.160156 16.457031 22.238281 16.441406 L 22.480469 16.398438 C 22.679688 16.359375 22.800781 16.199219 22.800781 16 L 22.800781 12.398438 L 22.839844 12.398438 C 23.238281 12.398438 23.597656 12.039062 23.597656 11.601562 L 23.597656 11.238281 C 23.597656 11 23.679688 10.800781 23.757812 10.601562 C 23.917969 10.28125 24 9.921875 24 9.558594 L 24 7.199219 C 24 6.519531 23.480469 6 22.800781 6 Z M 0.960938 10.238281 C 0.878906 10 0.800781 9.800781 0.800781 9.558594 L 0.800781 7.199219 C 0.800781 7 1 6.800781 1.199219 6.800781 L 2 6.800781 C 2.238281 6.800781 2.398438 6.960938 2.398438 7.199219 L 2.398438 9.558594 C 2.398438 9.800781 2.359375 10 2.238281 10.199219 C 2.078125 10.519531 2 10.878906 2 11.238281 L 2 11.601562 L 1.199219 11.601562 L 1.199219 11.238281 C 1.199219 10.878906 1.121094 10.519531 0.960938 10.238281 Z M 22 15.679688 C 19.246094 16.300781 16.433594 16.660156 13.613281 16.761719 C 13.609375 16.761719 13.605469 16.761719 13.601562 16.761719 C 13.582031 16.761719 13.566406 16.761719 13.550781 16.761719 C 12.515625 16.796875 11.484375 16.796875 10.449219 16.761719 C 10.433594 16.761719 10.417969 16.761719 10.398438 16.761719 C 10.394531 16.761719 10.390625 16.761719 10.386719 16.761719 C 7.566406 16.660156 4.753906 16.300781 2 15.679688 L 2 12.519531 C 8.558594 14 15.441406 14 22 12.519531 Z M 23.199219 9.558594 C 23.199219 9.800781 23.160156 10 23.039062 10.238281 C 22.878906 10.558594 22.800781 10.921875 22.800781 11.28125 L 22.800781 11.640625 L 22.589844 11.640625 C 22.515625 11.589844 22.417969 11.566406 22.320312 11.601562 L 22.078125 11.640625 L 22 11.640625 L 22 11.28125 C 22 10.921875 21.921875 10.558594 21.761719 10.238281 C 21.640625 10.039062 21.601562 9.800781 21.601562 9.558594 L 21.601562 7.199219 C 21.601562 6.960938 21.761719 6.800781 22 6.800781 L 22.800781 6.800781 C 23.039062 6.800781 23.199219 6.960938 23.199219 7.199219 Z M 23.199219 9.558594"/>
</svg>
