<svg xmlns="http://www.w3.org/2000/svg" width="32" height="32" viewBox="0 0 24 24">
    <path d="M22.8 6H22c-.68 0-1.2.52-1.2 1.2v2.359c0 .363.079.722.24 1 .12.203.16.441.16.68v.363a.7.7 0 0 0 .034.222 45.12 45.12 0 0 1-18.468 0 .7.7 0 0 0 .035-.222v-.364c0-.238.078-.437.16-.636.16-.32.238-.68.238-1.043v-2.36C3.2 6.52 2.68 6 2 6h-.8C.52 6 0 6.52 0 7.2v2.359c0 .363.078.722.238 1 .121.203.16.441.16.68v.363c0 .437.364.796.801.796V16c0 .2.121.36.32.398l.243.043c.078.016.16.036.238.051v.028c0 .242.16.402.398.402a.394.394 0 0 0 .375-.266c.278.055.551.11.829.16v.106c0 .238.16.398.398.398a.403.403 0 0 0 .398-.363c.266.047.536.09.801.129v.074c0 .238.16.399.403.399.226 0 .378-.141.398-.36.266.035.531.07.8.102v.097c0 .243.16.403.4.403.241 0 .402-.2.402-.403v-.015c.265.027.53.05.796.07v.067c0 .242.16.398.403.398a.4.4 0 0 0 .398-.398v-.008c.266.015.535.031.801.043v.047c0 .238.16.398.398.398.243 0 .403-.16.403-.398v-.02c.265.008.531.012.8.016v.004c0 .238.157.398.399.398.238 0 .398-.16.398-.398v-.004c.27-.004.536-.008.801-.016v.02c0 .238.16.398.403.398.238 0 .398-.16.398-.398v-.047c.266-.012.531-.028.8-.043v.008c0 .242.16.398.4.398a.4.4 0 0 0 .402-.398v-.067c.265-.02.53-.043.796-.066v.011c0 .243.16.403.403.403a.4.4 0 0 0 .398-.403v-.097c.27-.031.535-.063.801-.102.02.219.172.36.398.36.243 0 .403-.16.403-.399v-.07c.265-.043.535-.082.8-.13.016.22.172.36.399.36a.4.4 0 0 0 .398-.398v-.102c.278-.05.551-.105.82-.16.052.16.192.262.38.262A.404.404 0 0 0 22 16.52v-.028c.078-.015.16-.035.238-.05l.242-.044c.2-.039.32-.199.32-.398v-3.602h.04c.398 0 .758-.359.758-.796v-.364c0-.238.082-.437.16-.636.16-.32.242-.68.242-1.043v-2.36C24 6.52 23.48 6 22.8 6zM.96 10.238C.88 10 .8 9.801.8 9.558V7.2c0-.199.2-.398.4-.398H2c.238 0 .398.16.398.398v2.36c0 .242-.039.441-.16.64-.16.32-.238.68-.238 1.04v.363h-.8v-.364c0-.36-.079-.718-.24-1zM22 15.68c-2.754.62-5.566.98-8.387 1.082h-.062a45.618 45.618 0 0 1-3.102 0h-.062A45.608 45.608 0 0 1 2 15.68v-3.16a45.586 45.586 0 0 0 20 0zm1.2-6.121c0 .242-.04.441-.16.68-.161.32-.24.683-.24 1.042v.36h-.21a.296.296 0 0 0-.27-.04l-.242.04H22v-.36c0-.36-.078-.722-.238-1.043-.121-.199-.16-.437-.16-.68V7.2c0-.238.16-.398.398-.398h.8c.24 0 .4.16.4.398zm0 0"/>
</svg>
