<svg xmlns="http://www.w3.org/2000/svg" width="32" height="32" viewBox="0 0 24 24">
    <path d="M15.8 0c-.5 0-.984.105-1.413.29C14.344.112 14.199 0 14 0h-4c-.2 0-.344.113-.387.29A3.615 3.615 0 0 0 8.2 0c-1.64 0-3 1.078-3 2.398s1.36 2.403 3 2.403c.5 0 .985-.106 1.414-.29.043.176.188.29.387.29h.398v2.433L10.04 7.2a.433.433 0 0 0-.437.36c-.043.242.16.402.359.441l.437.043v.793L10.04 8.8a.433.433 0 0 0-.437.36c-.043.237.16.398.359.44l.437.044v.793l-.359-.04c-.238-.039-.398.16-.437.364-.043.238.16.398.359.437l.437.043v.793L10.04 12c-.238-.04-.398.16-.437.36-.043.242.16.402.359.44l.437.044v.793l-.359-.035a.433.433 0 0 0-.437.359c-.043.238.16.398.359.437l.437.047v.79l-.359-.036a.433.433 0 0 0-.437.36c-.043.242.16.402.359.441l.437.043v.793l-.359-.035a.433.433 0 0 0-.437.36c-.043.237.16.398.359.44l.437.044v.793l-.359-.04a.433.433 0 0 0-.437.364c-.043.238.16.398.359.437l.437.047v.79L10.04 20a.433.433 0 0 0-.437.36c-.043.242.16.402.359.44l.437.044v.793l-.359-.035a.433.433 0 0 0-.437.359c-.043.238.16.398.359.437l.437.047v1.157c0 .238.16.398.403.398h2.398c.242 0 .403-.16.403-.398v-.836l.359.035H14c.2 0 .398-.16.398-.36.043-.242-.16-.402-.359-.441l-.437-.043v-.793l.359.035H14c.2 0 .398-.16.398-.36.043-.237-.16-.398-.359-.44l-.437-.044v-.793l.359.04H14c.2 0 .398-.16.398-.364.043-.238-.16-.398-.359-.437l-.437-.043v-.793l.359.035H14c.2 0 .398-.16.398-.36.043-.242-.16-.402-.359-.44l-.437-.044v-.793l.359.035H14c.2 0 .398-.16.398-.359.043-.238-.16-.398-.359-.437l-.437-.047v-.79l.359.036H14c.2 0 .398-.16.398-.36.043-.242-.16-.402-.359-.441l-.437-.043v-.793l.359.035H14c.2 0 .398-.16.398-.36.043-.237-.16-.398-.359-.44l-.437-.044v-.793l.359.04H14c.2 0 .398-.16.398-.364.043-.238-.16-.398-.359-.437l-.441-.043v-.793l.363.035H14c.2 0 .398-.16.398-.36.043-.242-.16-.402-.359-.44l-.441-.044v-.793l.363.035H14c.2 0 .398-.16.398-.359.043-.238-.16-.398-.359-.437l-.441-.047V4.8H14c.2 0 .344-.114.387-.29.43.184.914.29 1.414.29 1.68 0 3-1.082 3-2.403 0-1.32-1.32-2.398-3-2.398zM6 2.398C6 1.52 7 .801 8.2.801c.519 0 1 .12 1.402.36v2.48C9.199 3.879 8.719 4 8.199 4 7 4 6 3.281 6 2.398zM12.8 23.2h-1.6v-.676l1.6.16zm0-1.324l-1.6-.16v-.79l1.6.16zm0-1.598l-1.6-.16v-.793l1.6.16zm0-1.601l-1.6-.16v-.793l1.6.16zm0-1.602l-1.6-.16v-.789l1.6.16zm0-1.597l-1.6-.16v-.794l1.6.16zm0-1.602l-1.6-.16v-.79l1.6.157zm0-1.598l-1.6-.16v-.793l1.6.16zm0-1.601l-1.6-.16v-.793l1.6.16zm0-1.602l-1.6-.16v-.789l1.6.16zm0-1.597l-1.6-.16V4.8h1.6zM13.603 4h-3.204V.8h3.204zM15.8 4c-.52 0-1-.121-1.403-.36V1.16c.403-.238.883-.36 1.403-.36C17 .8 18 1.52 18 2.399 18 3.281 17 4 15.8 4zm0 0"/>
</svg>
