<svg xmlns="http://www.w3.org/2000/svg" width="32" height="32" viewBox="0 0 24 24">
    <path d="M 23.601562 5.324219 L 18.710938 0.394531 C 18.144531 -0.132812 17.253906 -0.132812 16.730469 0.394531 L 7.714844 9.449219 C 7.636719 9.527344 7.59375 9.609375 7.59375 9.730469 C 7.59375 9.816406 7.617188 9.882812 7.65625 9.941406 C 7.679688 10.261719 7.667969 10.667969 7.472656 10.863281 C 7.230469 11.066406 6.625 11.023438 6.339844 11.023438 C 6.328125 11.023438 6.316406 11.027344 6.300781 11.027344 C 6.1875 11.015625 6.070312 11.054688 5.976562 11.144531 L 4.847656 12.277344 C 4.765625 12.359375 4.726562 12.441406 4.726562 12.5625 C 4.726562 12.683594 4.765625 12.761719 4.847656 12.84375 L 7.148438 15.148438 L 1.734375 20.5625 C 1.675781 20.625 1.636719 20.683594 1.621094 20.757812 L 1.207031 21.171875 C 0.761719 21.574219 0.441406 22.058594 0.15625 22.585938 L 0.117188 22.625 C -0.0859375 22.988281 -0.00390625 23.433594 0.277344 23.71875 C 0.480469 23.917969 0.722656 24 0.964844 24 C 1.085938 24 1.25 23.960938 1.410156 23.917969 C 1.976562 23.636719 2.5 23.273438 2.945312 22.828125 L 3.472656 22.300781 C 3.511719 22.261719 3.539062 22.21875 3.5625 22.171875 L 8.847656 16.847656 L 11.152344 19.148438 C 11.234375 19.230469 11.3125 19.269531 11.433594 19.269531 C 11.515625 19.269531 11.636719 19.230469 11.675781 19.109375 L 12.726562 18.058594 C 12.890625 17.976562 12.96875 17.816406 12.96875 17.652344 C 12.929688 17.332031 12.890625 16.765625 13.132812 16.523438 C 13.339844 16.347656 13.816406 16.355469 14.125 16.359375 C 14.175781 16.386719 14.234375 16.402344 14.304688 16.402344 C 14.386719 16.402344 14.507812 16.359375 14.585938 16.28125 L 23.601562 7.265625 C 24.125 6.738281 24.125 5.851562 23.601562 5.324219 Z M 2.339844 22.222656 C 1.976562 22.625 1.53125 22.949219 1.007812 23.152344 C 0.964844 23.152344 0.882812 23.152344 0.84375 23.109375 C 0.804688 23.070312 0.761719 22.988281 0.804688 22.949219 L 0.84375 22.910156 C 1.085938 22.464844 1.371094 22.058594 1.734375 21.695312 L 2.015625 21.414062 L 2.582031 22.019531 Z M 8.28125 16.28125 L 3.148438 21.414062 L 2.582031 20.847656 L 7.714844 15.714844 L 8 15.996094 Z M 11.433594 18.261719 L 5.734375 12.5625 L 6.300781 11.996094 L 12 17.695312 Z M 12.566406 15.996094 C 12.363281 16.199219 12.242188 16.480469 12.203125 16.765625 L 7.230469 11.792969 C 7.515625 11.753906 7.796875 11.632812 8 11.429688 C 8.199219 11.226562 8.320312 10.945312 8.363281 10.660156 L 13.335938 15.632812 C 13.050781 15.671875 12.769531 15.792969 12.566406 15.996094 Z M 23.035156 6.699219 L 14.324219 15.410156 L 8.605469 9.691406 L 17.335938 1 C 17.539062 0.757812 17.902344 0.757812 18.144531 1 L 23.035156 5.890625 C 23.238281 6.132812 23.238281 6.496094 23.035156 6.699219 Z M 23.035156 6.699219"/>
    <path d="M20.003906 3.992188C19.84375 3.828125 19.601562 3.828125 19.4375 3.992188L12 11.429688C11.839844 11.589844 11.839844 11.832031 12 11.996094 12.082031 12.074219 12.164062 12.117188 12.285156 12.117188 12.40625 12.117188 12.484375 12.074219 12.566406 11.996094L20.003906 4.558594C20.164062 4.394531 20.164062 4.152344 20.003906 3.992188zM18.589844 2.578125C18.425781 2.414062 18.183594 2.414062 18.023438 2.578125L10.585938 10.015625C10.425781 10.175781 10.425781 10.417969 10.585938 10.582031 10.667969 10.660156 10.746094 10.703125 10.867188 10.703125 10.949219 10.703125 11.070312 10.660156 11.152344 10.582031L18.589844 3.144531C18.75 2.980469 18.75 2.738281 18.589844 2.578125zM20.894531 5.40625L13.457031 12.84375C13.292969 13.003906 13.292969 13.246094 13.457031 13.410156 13.535156 13.492188 13.617188 13.53125 13.738281 13.53125 13.820312 13.53125 13.941406 13.492188 14.023438 13.449219L21.460938 5.972656C21.621094 5.808594 21.621094 5.566406 21.460938 5.40625 21.296875 5.246094 21.054688 5.246094 20.894531 5.40625zM20.894531 5.40625"/>
</svg>
