<svg xmlns="http://www.w3.org/2000/svg" width="32" height="32" viewBox="0 0 24 24">
    <path d="M6.800781 0L.398438 0C.160156 0 0 .160156 0 .398438L0 2.398438C0 2.640625.160156 2.800781.398438 2.800781L1.601562 2.800781 1.601562 13.601562C1.601562 13.71875 1.640625 13.800781 1.71875 13.878906L3.320312 15.480469C3.320312 15.480469 3.324219 15.484375 3.324219 15.484375 3.332031 15.492188 3.335938 15.496094 3.34375 15.5 3.382812 15.535156 3.421875 15.5625 3.464844 15.578125 3.507812 15.597656 3.566406 15.601562 3.601562 15.601562 3.628906 15.601562 3.683594 15.601562 3.726562 15.582031 3.789062 15.5625 3.847656 15.527344 3.921875 15.480469L5.519531 13.878906C5.601562 13.800781 5.640625 13.71875 5.640625 13.601562L5.640625 11.199219C5.640625 11.132812 5.625 11.074219 5.601562 11.019531L5.601562 2.800781 6.800781 2.800781C7.039062 2.800781 7.199219 2.640625 7.199219 2.398438L7.199219.398438C7.199219.160156 7.039062 0 6.800781 0zM4 14.238281L4 12.238281 4.800781 11.839844 4.800781 13.441406zM4.800781 10.960938L3.621094 11.550781 2.398438 10.941406 2.398438 2.800781 4.800781 2.800781zM4.800781 2L2.398438 2 2.398438.800781 4.800781.800781zM.800781.800781L1.601562.800781 1.601562 2 .800781 2zM2.398438 11.839844L3.199219 12.238281 3.199219 14.238281 2.398438 13.441406zM6.398438 2L5.601562 2 5.601562.800781 6.398438.800781zM15.199219 0L8.800781 0C8.558594 0 8.398438.160156 8.398438.398438L8.398438 2.398438C8.398438 2.640625 8.558594 2.800781 8.800781 2.800781L10 2.800781 10 17.601562C10 17.71875 10.039062 17.800781 10.121094 17.878906L11.71875 19.480469C11.722656 19.480469 11.722656 19.484375 11.726562 19.484375 11.730469 19.492188 11.738281 19.496094 11.742188 19.5 11.78125 19.535156 11.820312 19.5625 11.867188 19.578125 11.910156 19.597656 11.96875 19.601562 12 19.601562 12.039062 19.601562 12.121094 19.601562 12.199219 19.558594 12.285156 19.539062 12.347656 19.484375 12.386719 19.414062L13.917969 17.878906C14 17.800781 14.039062 17.71875 14.039062 17.601562L14.039062 15.199219C14.039062 15.132812 14.023438 15.074219 14 15.019531L14 2.800781 15.199219 2.800781C15.441406 2.800781 15.601562 2.640625 15.601562 2.398438L15.601562.398438C15.601562.160156 15.441406 0 15.199219 0zM12.441406 16.21875L13.199219 15.839844 13.199219 17.441406 12.441406 18.199219zM13.199219 14.960938L12.019531 15.550781 10.800781 14.941406 10.800781 2.800781 13.199219 2.800781zM13.199219 2L10.800781 2 10.800781.800781 13.199219.800781zM9.199219.800781L10 .800781 10 2 9.199219 2zM10.800781 15.839844L11.601562 16.238281 11.601562 18.238281 10.800781 17.441406zM14.800781 2L14 2 14 .800781 14.800781.800781zM23.601562 0L17.199219 0C16.960938 0 16.800781.160156 16.800781.398438L16.800781 2.398438C16.800781 2.640625 16.960938 2.800781 17.199219 2.800781L18.398438 2.800781 18.398438 22C18.398438 22.121094 18.441406 22.199219 18.519531 22.28125L20.121094 23.878906C20.121094 23.882812 20.125 23.882812 20.125 23.882812 20.128906 23.890625 20.136719 23.894531 20.144531 23.902344 20.179688 23.9375 20.222656 23.960938 20.265625 23.976562 20.308594 24 20.367188 24 20.398438 24 20.441406 24 20.519531 24 20.601562 23.960938 20.683594 23.9375 20.746094 23.882812 20.785156 23.8125L22.320312 22.28125C22.398438 22.199219 22.441406 22.121094 22.441406 22L22.441406 19.601562C22.441406 19.53125 22.425781 19.472656 22.398438 19.421875L22.398438 2.800781 23.601562 2.800781C23.839844 2.800781 24 2.640625 24 2.398438L24 .398438C24 .160156 23.839844 0 23.601562 0zM20.839844 20.621094L21.601562 20.238281 21.601562 21.839844 20.839844 22.601562zM21.601562 19.359375L20.421875 19.949219 19.199219 19.339844 19.199219 2.800781 21.601562 2.800781zM21.601562 2L19.199219 2 19.199219.800781 21.601562.800781zM17.601562.800781L18.398438.800781 18.398438 2 17.601562 2zM19.199219 20.238281L20 20.640625 20 22.640625 19.199219 21.839844zM23.199219 2L22.398438 2 22.398438.800781 23.199219.800781zM23.199219 2"/>
</svg>
