<svg xmlns="http://www.w3.org/2000/svg" width="32" height="32" viewBox="0 0 24 24">
    <path d="M 17.601562 0 L 6.398438 0 C 5.960938 0 5.601562 0.359375 5.601562 0.800781 L 5.601562 3.199219 C 5.601562 3.640625 5.960938 4 6.398438 4 L 9.601562 4 L 9.601562 10.027344 L 9.238281 10 C 9 9.960938 8.800781 10.121094 8.800781 10.359375 C 8.761719 10.601562 8.921875 10.800781 9.160156 10.800781 L 9.601562 10.832031 L 9.601562 11.625 L 9.238281 11.601562 C 9 11.558594 8.800781 11.71875 8.800781 11.960938 C 8.761719 12.199219 8.921875 12.398438 9.160156 12.398438 L 9.601562 12.429688 L 9.601562 13.226562 L 9.238281 13.199219 C 9 13.160156 8.800781 13.320312 8.800781 13.558594 C 8.761719 13.800781 8.921875 14 9.160156 14 L 9.601562 14.03125 L 9.601562 14.824219 L 9.238281 14.800781 C 9 14.761719 8.800781 14.921875 8.800781 15.160156 C 8.761719 15.398438 8.921875 15.601562 9.160156 15.601562 L 9.601562 15.632812 L 9.601562 16.425781 L 9.238281 16.398438 C 9 16.359375 8.800781 16.519531 8.800781 16.761719 C 8.761719 17 8.921875 17.199219 9.160156 17.199219 L 9.601562 17.230469 L 9.601562 18.027344 L 9.238281 18 C 9 17.960938 8.800781 18.121094 8.800781 18.359375 C 8.761719 18.601562 8.921875 18.800781 9.160156 18.800781 L 9.601562 18.832031 L 9.601562 19.625 L 9.238281 19.601562 C 9 19.558594 8.800781 19.71875 8.800781 19.960938 C 8.761719 20.199219 8.921875 20.398438 9.160156 20.398438 L 9.601562 20.429688 L 9.601562 21.226562 L 9.238281 21.199219 C 9 21.160156 8.800781 21.359375 8.800781 21.558594 C 8.761719 21.800781 8.921875 22 9.160156 22 L 9.601562 22.03125 L 9.601562 23.199219 C 9.601562 23.640625 9.960938 24 10.398438 24 L 13.601562 24 C 14.039062 24 14.398438 23.640625 14.398438 23.199219 L 14.398438 22.371094 L 14.800781 22.398438 C 15 22.398438 15.199219 22.238281 15.199219 22.039062 C 15.238281 21.800781 15.078125 21.601562 14.839844 21.601562 L 14.398438 21.570312 L 14.398438 20.773438 L 14.800781 20.800781 C 15 20.800781 15.199219 20.640625 15.199219 20.441406 C 15.238281 20.199219 15.078125 20 14.839844 20 L 14.398438 19.96875 L 14.398438 19.171875 L 14.800781 19.199219 C 15 19.199219 15.199219 19.039062 15.199219 18.839844 C 15.238281 18.601562 15.078125 18.398438 14.839844 18.398438 L 14.398438 18.367188 L 14.398438 17.570312 L 14.800781 17.601562 C 15 17.601562 15.199219 17.441406 15.199219 17.238281 C 15.238281 17 15.078125 16.800781 14.839844 16.800781 L 14.398438 16.769531 L 14.398438 15.972656 L 14.800781 16 C 15 16 15.199219 15.839844 15.199219 15.640625 C 15.238281 15.398438 15.078125 15.199219 14.839844 15.199219 L 14.398438 15.167969 L 14.398438 14.371094 L 14.800781 14.398438 C 15 14.398438 15.199219 14.238281 15.199219 14.039062 C 15.238281 13.800781 15.078125 13.601562 14.839844 13.601562 L 14.398438 13.570312 L 14.398438 12.773438 L 14.800781 12.800781 C 15 12.800781 15.199219 12.640625 15.199219 12.441406 C 15.238281 12.199219 15.078125 12 14.839844 12 L 14.398438 11.96875 L 14.398438 11.171875 L 14.800781 11.199219 C 15 11.199219 15.199219 11.039062 15.199219 10.839844 C 15.238281 10.601562 15.078125 10.398438 14.839844 10.398438 L 14.398438 10.367188 L 14.398438 4 L 17.601562 4 C 18.039062 4 18.398438 3.640625 18.398438 3.199219 L 18.398438 0.800781 C 18.398438 0.359375 18.039062 0 17.601562 0 Z M 6.398438 0.800781 L 8 0.800781 L 8 3.199219 L 6.398438 3.199219 Z M 8.800781 0.800781 L 15.199219 0.800781 L 15.199219 3.199219 L 8.800781 3.199219 Z M 13.601562 23.199219 L 10.398438 23.199219 L 10.398438 22.089844 L 13.601562 22.316406 Z M 13.601562 21.511719 L 10.398438 21.28125 L 10.398438 20.488281 L 13.601562 20.714844 Z M 13.601562 19.910156 L 10.398438 19.683594 L 10.398438 18.886719 L 13.601562 19.113281 Z M 13.601562 18.3125 L 10.398438 18.082031 L 10.398438 17.289062 L 13.601562 17.515625 Z M 13.601562 16.710938 L 10.398438 16.484375 L 10.398438 15.6875 L 13.601562 15.914062 Z M 13.601562 15.113281 L 10.398438 14.882812 L 10.398438 14.089844 L 13.601562 14.316406 Z M 13.601562 13.511719 L 10.398438 13.28125 L 10.398438 12.488281 L 13.601562 12.714844 Z M 13.601562 11.910156 L 10.398438 11.683594 L 10.398438 10.886719 L 13.601562 11.113281 Z M 13.601562 10.3125 L 10.398438 10.082031 L 10.398438 4 L 13.601562 4 Z M 17.601562 3.199219 L 16 3.199219 L 16 0.800781 L 17.601562 0.800781 Z M 17.601562 3.199219"/>
</svg>
