<svg xmlns="http://www.w3.org/2000/svg" width="32" height="32" viewBox="0 0 24 24">
    <path d="M14.078 18H13.2V2.98c.19-.156.363-.289.562-.421C14.282 2.199 14.8 1.8 14.8.8 14.8.32 14.48 0 14 0h-4c-.48 0-.8.32-.8.8 0 1 .562 1.4 1.081 1.759.16.128.348.261.52.41V18h-.879c-.32.078-.723.398-.723.8v2a3.26 3.26 0 0 0 2.36 3.122c.12.039.28.078.441.078.16 0 .32-.04.441-.078a3.26 3.26 0 0 0 2.36-3.121v-2c0-.403-.442-.723-.723-.801zM10 .8h4c0 .598-.238.759-.719 1.122a4.723 4.723 0 0 0-.64.476h-1.282c-.199-.199-.437-.359-.64-.52-.48-.32-.719-.48-.719-1.077zm1.602 2.4h.796V18h-.796zM14 20.8c0 1.079-.719 2.04-1.762 2.36a.831.831 0 0 1-.437 0C10.719 22.84 10 21.88 10 20.8V18.88c.04-.04.04-.078.078-.078h3.844c.039 0 .078 0 .078.039zm0 0"/>
</svg>
