<svg xmlns="http://www.w3.org/2000/svg" width="32" height="32" viewBox="0 0 24 24">
    <path d="M13.602 14.398v-2h-.403V5.484c1.164-.34 2-1.402 2-2.683v-2H14V0h-4v.8H8.8v2c0 1.282.837 2.345 2 2.684v6.914h-.402v2H7.2v6.641L11.88 24h.281l4.64-3v-6.602zM10.8.801h2.398v.8h-2.398zm-1.2 2V1.6H10v.797h4v-.796h.398V2.8c0 .914-.585 1.672-1.414 1.914l-.265.047a.558.558 0 0 1-.125.027 1.638 1.638 0 0 1-.196.012h-.796c-.055 0-.11-.004-.16-.008a.827.827 0 0 1-.16-.031l-.266-.047A1.971 1.971 0 0 1 9.602 2.8zm2 2.8h.797v6.797h-.796zM11.2 13.2h1.602v1.2h-1.602zM8 15.2h8v3.403l-4 2.558-4-2.558zm8 5.403l-4 2.558-4-2.558v-1.055L11.879 22h.281L16 19.55zm0 0"/>
    <path d="M13.602 16.36V16c0-.238-.16-.398-.403-.398-.238 0-.398.16-.398.398v.36c0 .242-.2.44-.442.44h-.718a.443.443 0 0 1-.442-.44V16c0-.238-.16-.398-.398-.398-.242 0-.403.16-.403.398v.36c0 .68.563 1.242 1.243 1.242h.718a1.25 1.25 0 0 0 1.243-1.243zm0 0"/>
</svg>
