<svg xmlns="http://www.w3.org/2000/svg" width="32" height="32" viewBox="0 0 24 24">
    <path d="M21.602 0H2.398A2.404 2.404 0 0 0 0 2.398v19.204A2.404 2.404 0 0 0 2.398 24h19.204A2.404 2.404 0 0 0 24 21.602V2.398A2.404 2.404 0 0 0 21.602 0zm1.597 21.602c0 .878-.719 1.597-1.597 1.597H2.398a1.602 1.602 0 0 1-1.597-1.597V2.398C.8 1.52 1.52.801 2.398.801h19.204c.878 0 1.597.719 1.597 1.597zm0 0"/>
    <path d="M21 1.602H3c-.762 0-1.398.636-1.398 1.398v18c0 .762.636 1.398 1.398 1.398h18c.762 0 1.398-.636 1.398-1.398V3c0-.762-.636-1.398-1.398-1.398zM21.602 21c0 .32-.282.602-.602.602H3A.618.618 0 0 1 2.398 21V3c0-.32.282-.602.602-.602h18c.32 0 .602.282.602.602zm0 0"/>
    <path d="M17.602 6H6.398C6.16 6 6 6.16 6 6.398v11.204c0 .238.16.398.398.398h11.204c.238 0 .398-.16.398-.398V6.398C18 6.16 17.84 6 17.602 6zm-.403 11.2H6.801V6.8h10.398zm0 0"/>
    <path d="M12.8 14v1.602c0 .238.16.398.4.398h2c.241 0 .402-.16.402-.398V14c0-.238-.16-.398-.403-.398h-2c-.238 0-.398.16-.398.398zm.802.398H14.8v.801h-1.2zm0 0M8.8 16h2c.24 0 .4-.16.4-.398V14c0-.238-.16-.398-.4-.398h-2c-.241 0-.402.16-.402.398v1.602c0 .238.16.398.403.398zm.4-1.602h1.198v.801H9.2zm0 0M11.2 11.2h1.6c.24 0 .4-.16.4-.4V8.399c0-.238-.16-.398-.4-.398h-1.6c-.24 0-.4.16-.4.398v2.403c0 .238.16.398.4.398zm.402-2.4h.796v1.598h-.796zm0 0"/>
</svg>
