<svg xmlns="http://www.w3.org/2000/svg" width="32" height="32" viewBox="0 0 24 24">
    <path d="M21.602 3.2H2.398A2.407 2.407 0 0 0 0 5.601v12.796a2.407 2.407 0 0 0 2.398 2.403h19.204A2.407 2.407 0 0 0 24 18.398V5.602a2.407 2.407 0 0 0-2.398-2.403zm1.597 15.198c0 .883-.719 1.602-1.597 1.602H2.398a1.603 1.603 0 0 1-1.597-1.602V5.602C.8 4.719 1.52 4 2.398 4h19.204c.878 0 1.597.719 1.597 1.602zm0 0"/>
    <path d="M21 4.8H3c-.762 0-1.398.641-1.398 1.4v11.6c0 .759.636 1.4 1.398 1.4h18c.762 0 1.398-.641 1.398-1.4V6.2c0-.759-.636-1.4-1.398-1.4zm.602 13c0 .321-.282.598-.602.598H3a.614.614 0 0 1-.602-.597V6.199c0-.32.282-.597.602-.597h18c.32 0 .602.277.602.597zm0 0"/>
    <path d="M15.602 11.2a.802.802 0 0 0 0 1.6.801.801 0 0 0 0-1.6zm0 0M18 11.2a.802.802 0 0 0 0 1.6.802.802 0 0 0 0-1.6zm0 0"/>
    <path d="M17.68 8c-.078-.04-.239 0-.32.078a.367.367 0 0 0-.16.32V9.2h-.802v-.8c0-.118-.078-.239-.16-.32A.31.31 0 0 0 15.922 8c-1.8.398-3.121 2.078-3.121 4 0 1.922 1.32 3.602 3.12 4 .118 0 .24 0 .317-.078a.367.367 0 0 0 .16-.32V14.8h.801v.8c0 .118.082.239.16.32.082.04.16.079.243.079h.078c1.8-.398 3.12-2.078 3.12-4 0-1.922-1.32-3.602-3.12-4zm.32 7.04v-.642c0-.238-.16-.398-.398-.398H16c-.2 0-.398.2-.398.398v.641c-1.16-.48-2-1.719-2-3.039s.84-2.559 2-3.04v.642c0 .238.16.398.398.398h1.602c.238 0 .398-.16.398-.398V8.96c1.16.48 2 1.719 2 3.039s-.84 2.559-2 3.04zm0 0M6 11.2a.802.802 0 0 0 0 1.6.802.802 0 0 0 0-1.6zm0 0M8.398 11.2a.801.801 0 0 0 0 1.6.802.802 0 0 0 0-1.6zm0 0"/>
    <path d="M8.078 8a.31.31 0 0 0-.316.078.367.367 0 0 0-.16.32V9.2H6.8v-.8c0-.118-.082-.239-.16-.32C6.559 8 6.44 7.96 6.32 8c-1.801.398-3.122 2.078-3.122 4 0 1.922 1.32 3.602 3.121 4 .121 0 .2 0 .32-.078a.367.367 0 0 0 .16-.32V14.8h.802v.8c0 .118.078.239.16.32A.57.57 0 0 0 8 16h.078c1.8-.398 3.121-2.078 3.121-4 0-1.922-1.32-3.602-3.12-4zm.32 7.04v-.642c0-.238-.16-.398-.398-.398H6.398c-.238 0-.398.16-.398.398v.641C4.84 14.56 4 13.32 4 12s.84-2.559 2-3.04v.642c0 .238.16.398.398.398H8c.238 0 .398-.16.398-.398V8.96c1.16.48 2 1.719 2 3.039s-.84 2.559-2 3.04zm0 0"/>
</svg>
