<svg xmlns="http://www.w3.org/2000/svg" width="32" height="32" viewBox="0 0 24 24">
    <path d="M 18.398438 0 L 5.601562 0 C 4.28125 0 3.199219 1.078125 3.199219 2.398438 L 3.199219 21.601562 C 3.199219 22.921875 4.28125 24 5.601562 24 L 18.398438 24 C 19.71875 24 20.800781 22.921875 20.800781 21.601562 L 20.800781 2.398438 C 20.800781 1.078125 19.71875 0 18.398438 0 Z M 20 21.601562 C 20 22.480469 19.28125 23.199219 18.398438 23.199219 L 5.601562 23.199219 C 4.71875 23.199219 4 22.480469 4 21.601562 L 4 2.398438 C 4 1.519531 4.71875 0.800781 5.601562 0.800781 L 18.398438 0.800781 C 19.28125 0.800781 20 1.519531 20 2.398438 Z M 20 21.601562"/>
    <path d="M 17.800781 1.601562 L 6.199219 1.601562 C 5.441406 1.601562 4.800781 2.238281 4.800781 3 L 4.800781 21 C 4.800781 21.761719 5.441406 22.398438 6.199219 22.398438 L 17.800781 22.398438 C 18.558594 22.398438 19.199219 21.761719 19.199219 21 L 19.199219 3 C 19.199219 2.238281 18.558594 1.601562 17.800781 1.601562 Z M 18.398438 21 C 18.398438 21.320312 18.121094 21.601562 17.800781 21.601562 L 6.199219 21.601562 C 5.878906 21.601562 5.601562 21.320312 5.601562 21 L 5.601562 3 C 5.601562 2.679688 5.878906 2.398438 6.199219 2.398438 L 17.800781 2.398438 C 18.121094 2.398438 18.398438 2.679688 18.398438 3 Z M 18.398438 21"/>
    <path d="M15.601562 3.199219L8.398438 3.199219C8.160156 3.199219 8 3.359375 8 3.601562L8 10.800781C8 11.039062 8.160156 11.199219 8.398438 11.199219L15.601562 11.199219C15.839844 11.199219 16 11.039062 16 10.800781L16 3.601562C16 3.359375 15.839844 3.199219 15.601562 3.199219zM15.199219 10.398438L8.800781 10.398438 8.800781 4 15.199219 4zM15.601562 12.800781L8.398438 12.800781C8.160156 12.800781 8 12.960938 8 13.199219L8 20.398438C8 20.640625 8.160156 20.800781 8.398438 20.800781L15.601562 20.800781C15.839844 20.800781 16 20.640625 16 20.398438L16 13.199219C16 12.960938 15.839844 12.800781 15.601562 12.800781zM15.199219 20L8.800781 20 8.800781 13.601562 15.199219 13.601562zM15.199219 20"/>
    <path d="M10.398438 6.800781C10.640625 6.800781 10.800781 6.640625 10.800781 6.398438L10.800781 5.199219C10.800781 4.960938 10.640625 4.800781 10.398438 4.800781 10.160156 4.800781 10 4.960938 10 5.199219L10 6.398438C10 6.640625 10.160156 6.800781 10.398438 6.800781zM13.601562 6.800781C13.839844 6.800781 14 6.640625 14 6.398438L14 5.199219C14 4.960938 13.839844 4.800781 13.601562 4.800781 13.359375 4.800781 13.199219 4.960938 13.199219 5.199219L13.199219 6.398438C13.199219 6.640625 13.359375 6.800781 13.601562 6.800781zM12 9.601562C12.238281 9.601562 12.398438 9.441406 12.398438 9.199219L12.398438 8.398438C12.398438 8.160156 12.238281 8 12 8 11.761719 8 11.601562 8.160156 11.601562 8.398438L11.601562 9.199219C11.601562 9.441406 11.761719 9.601562 12 9.601562zM10.398438 16.398438C10.640625 16.398438 10.800781 16.238281 10.800781 16L10.800781 14.800781C10.800781 14.558594 10.640625 14.398438 10.398438 14.398438 10.160156 14.398438 10 14.558594 10 14.800781L10 16C10 16.238281 10.160156 16.398438 10.398438 16.398438zM13.601562 16.398438C13.839844 16.398438 14 16.238281 14 16L14 14.800781C14 14.558594 13.839844 14.398438 13.601562 14.398438 13.359375 14.398438 13.199219 14.558594 13.199219 14.800781L13.199219 16C13.199219 16.238281 13.359375 16.398438 13.601562 16.398438zM12 19.199219C12.238281 19.199219 12.398438 19.039062 12.398438 18.800781L12.398438 18C12.398438 17.761719 12.238281 17.601562 12 17.601562 11.761719 17.601562 11.601562 17.761719 11.601562 18L11.601562 18.800781C11.601562 19.039062 11.761719 19.199219 12 19.199219zM12 19.199219"/>
</svg>
