<svg xmlns="http://www.w3.org/2000/svg" width="32" height="32" viewBox="0 0 24 24">
    <path d="M 22.738281 6.960938 C 22.699219 6.839844 22.539062 6.761719 22.417969 6.761719 L 22.058594 6.761719 C 20.019531 6.761719 18.257812 7.878906 17.296875 9.800781 C 17.257812 9.921875 17.257812 10.039062 17.296875 10.160156 L 17.859375 11.320312 L 16.816406 11.566406 L 16.816406 4.800781 C 16.816406 2.160156 14.65625 0 12.019531 0 C 9.402344 0 7.261719 2.117188 7.21875 4.722656 L 2.589844 11.816406 C 2.570312 11.835938 2.554688 11.855469 2.539062 11.878906 L 1.296875 13.800781 C 1.257812 13.839844 1.21875 13.921875 1.21875 14 L 1.21875 16.667969 C 1.183594 16.804688 1.203125 16.945312 1.296875 17.039062 C 1.332031 17.09375 1.375 17.128906 1.421875 17.152344 C 1.445312 17.171875 1.472656 17.1875 1.496094 17.199219 C 1.539062 17.199219 1.578125 17.199219 1.617188 17.199219 C 1.65625 17.199219 1.738281 17.199219 1.777344 17.199219 L 4.417969 16.039062 C 4.496094 16 4.539062 15.960938 4.617188 15.878906 L 7.21875 12.121094 L 7.21875 19.199219 C 7.21875 21.839844 9.378906 24 12.019531 24 C 14.65625 24 16.816406 21.839844 16.816406 19.199219 L 22.738281 7.359375 C 22.816406 7.238281 22.816406 7.078125 22.738281 6.960938 Z M 4.777344 14.199219 L 4.019531 15.320312 L 2.859375 15.847656 L 2.703125 15.914062 L 2.960938 15.507812 L 3.621094 14.480469 Z M 2.699219 13.078125 L 2.921875 13.96875 L 2.019531 15.375 L 2.019531 14.121094 Z M 5.457031 13.257812 L 3.640625 13.632812 L 3.296875 12.164062 L 7.21875 6.160156 L 7.21875 10.679688 Z M 12.019531 23.199219 C 9.816406 23.199219 8.019531 21.398438 8.019531 19.199219 L 8.019531 4.800781 C 8.019531 2.601562 9.816406 0.800781 12.019531 0.800781 C 14.21875 0.800781 16.019531 2.601562 16.019531 4.800781 L 16.019531 19.199219 C 16.019531 21.398438 14.21875 23.199219 12.019531 23.199219 Z M 16.816406 17.519531 L 16.816406 12.398438 L 18.539062 12 C 18.65625 11.960938 18.777344 11.878906 18.816406 11.761719 C 18.859375 11.640625 18.859375 11.519531 18.816406 11.398438 L 18.097656 10 C 18.859375 8.558594 20.21875 7.679688 21.777344 7.601562 Z M 16.816406 17.519531"/>
    <path d="M12.019531 17.601562C10.699219 17.601562 9.617188 18.679688 9.617188 20 9.617188 21.320312 10.699219 22.398438 12.019531 22.398438 13.335938 22.398438 14.417969 21.320312 14.417969 20 14.417969 18.679688 13.335938 17.601562 12.019531 17.601562zM12.019531 21.601562C11.136719 21.601562 10.417969 20.878906 10.417969 20 10.417969 19.121094 11.136719 18.398438 12.019531 18.398438 12.898438 18.398438 13.617188 19.121094 13.617188 20 13.617188 20.878906 12.898438 21.601562 12.019531 21.601562zM12.019531 6.398438C13.335938 6.398438 14.417969 5.320312 14.417969 4 14.417969 2.679688 13.335938 1.601562 12.019531 1.601562 10.699219 1.601562 9.617188 2.679688 9.617188 4 9.617188 5.320312 10.699219 6.398438 12.019531 6.398438zM12.019531 2.398438C12.898438 2.398438 13.617188 3.121094 13.617188 4 13.617188 4.878906 12.898438 5.601562 12.019531 5.601562 11.136719 5.601562 10.417969 4.878906 10.417969 4 10.417969 3.121094 11.136719 2.398438 12.019531 2.398438zM14.816406 10.398438L13.617188 10.398438 13.617188 9.199219C13.617188 8.960938 13.457031 8.800781 13.21875 8.800781L10.816406 8.800781C10.578125 8.800781 10.417969 8.960938 10.417969 9.199219L10.417969 10.398438 9.21875 10.398438C8.976562 10.398438 8.816406 10.558594 8.816406 10.800781L8.816406 13.199219C8.816406 13.441406 8.976562 13.601562 9.21875 13.601562L10.417969 13.601562 10.417969 14.800781C10.417969 15.039062 10.578125 15.199219 10.816406 15.199219L13.21875 15.199219C13.457031 15.199219 13.617188 15.039062 13.617188 14.800781L13.617188 13.601562 14.816406 13.601562C15.058594 13.601562 15.21875 13.441406 15.21875 13.199219L15.21875 10.800781C15.21875 10.558594 15.058594 10.398438 14.816406 10.398438zM14.417969 12.800781L13.21875 12.800781C12.976562 12.800781 12.816406 12.960938 12.816406 13.199219L12.816406 14.398438 11.21875 14.398438 11.21875 13.199219C11.21875 12.960938 11.058594 12.800781 10.816406 12.800781L9.617188 12.800781 9.617188 11.199219 10.816406 11.199219C11.058594 11.199219 11.21875 11.039062 11.21875 10.800781L11.21875 9.601562 12.816406 9.601562 12.816406 10.800781C12.816406 11.039062 12.976562 11.199219 13.21875 11.199219L14.417969 11.199219zM14.417969 12.800781"/>
</svg>
