<svg xmlns="http://www.w3.org/2000/svg" width="32" height="32" viewBox="0 0 24 24">
    <path d="M12.004 17.602A2.404 2.404 0 0 0 9.605 20a2.404 2.404 0 0 0 2.399 2.398A2.407 2.407 0 0 0 14.406 20a2.407 2.407 0 0 0-2.402-2.398zm0 4A1.605 1.605 0 0 1 10.406 20c0-.879.719-1.602 1.598-1.602.879 0 1.601.723 1.601 1.602 0 .879-.722 1.602-1.601 1.602zm0 0M12.004 6.398A2.407 2.407 0 0 0 14.406 4a2.407 2.407 0 0 0-2.402-2.398A2.404 2.404 0 0 0 9.605 4a2.404 2.404 0 0 0 2.399 2.398zm0-4c.879 0 1.601.723 1.601 1.602 0 .879-.722 1.602-1.601 1.602A1.605 1.605 0 0 1 10.406 4c0-.879.719-1.602 1.598-1.602zm0 0"/>
    <path d="M22.766 16.602L16.805 5.078v-.277c0-2.64-2.16-4.801-4.801-4.801C9.39 0 7.25 2.117 7.207 4.723l-4.629 7.093c-.02.02-.039.04-.055.063L1.285 13.8a.311.311 0 0 0-.082.199v2.668c-.031.137-.012.277.082.371a.31.31 0 0 0 .125.113c.024.02.047.035.074.047h.281l2.641-1.16a.702.702 0 0 0 .2-.16l2.597-3.758V19.2c0 2.64 2.16 4.801 4.8 4.801 2.642 0 4.802-2.16 4.802-4.8v-4.653c1.297 1.305 3.172 2.586 5.601 2.652.16 0 .278-.078.36-.199.039-.121.078-.281 0-.398zm-18-2.403l-.762 1.121-1.156.528-.157.066.258-.406.66-1.028zm-2.082-1.12l.222.89-.902 1.406v-1.254zm2.757.179l-1.812.375-.348-1.469L7.203 6.16v4.52zm10.563 5.941c0 2.2-1.8 4-4 4s-4-1.8-4-4V4.801c0-2.2 1.8-4 4-4s4 1.8 4 4zm.8-5.84v-3.242l.84 1.723c.083.16.2.238.36.238.082 0 .121-.039.16-.039.2-.078.281-.32.2-.52l-1.56-3.199V6.84l4.923 9.48c-2.204-.28-3.883-1.718-4.922-2.96zm0 0"/>
    <path d="M14.805 10.398h-1.2V9.2c0-.238-.16-.398-.402-.398h-2.398c-.239 0-.399.16-.399.398v1.2H9.203c-.238 0-.398.16-.398.402v2.398c0 .242.16.403.398.403h1.203V14.8c0 .238.16.398.399.398h2.398c.242 0 .402-.16.402-.398v-1.2h1.2c.238 0 .398-.16.398-.402v-2.398c0-.242-.16-.403-.398-.403zm-.399 2.403h-1.203c-.238 0-.398.16-.398.398v1.2h-1.602v-1.2c0-.238-.16-.398-.398-.398h-1.2v-1.602h1.2c.238 0 .398-.16.398-.398V9.6h1.602v1.2c0 .238.16.398.398.398h1.203zm0 0"/>
</svg>
