<svg xmlns="http://www.w3.org/2000/svg" width="32" height="32" viewBox="0 0 24 24">
    <path d="M22.762 16.602L16.8 5.078v-.277C16.8 2.16 14.64 0 12 0 9.36 0 7.2 2.16 7.2 4.8v6.798l-1-.239.562-1.16a.566.566 0 0 0 0-.36C5.8 7.923 4.078 6.802 2 6.802h-.398a.596.596 0 0 0-.364.16c-.039.117-.078.277 0 .398L7.2 19.281C7.246 21.883 9.387 24 12 24c2.64 0 4.8-2.16 4.8-4.8v-4.653c1.298 1.305 3.173 2.586 5.598 2.652.16 0 .282-.078.364-.199.039-.121.078-.281 0-.398zM5.96 10l-.723 1.398a.578.578 0 0 0 0 .364c.082.117.16.199.282.238l1.68.398v5.122L2.237 7.602C3.84 7.68 5.16 8.559 5.961 10zM16 19.2c0 2.198-1.8 4-4 4a4.012 4.012 0 0 1-3.996-3.825.415.415 0 0 0 .035-.176v-7.078A.426.426 0 0 0 8 11.95V4.801c0-2.2 1.8-4 4-4s4 1.8 4 4zm.8-5.84v-3.282l.84 1.684c.079.16.2.238.36.238.078 0 .121 0 .16-.078.16-.082.238-.32.16-.524L16.8 8.36V6.84l4.919 9.481c-2.2-.28-3.88-1.718-4.918-2.96zm0 0"/>
    <path d="M12 17.602A2.404 2.404 0 0 0 9.602 20 2.404 2.404 0 0 0 12 22.398 2.404 2.404 0 0 0 14.398 20 2.404 2.404 0 0 0 12 17.602zm0 4A1.609 1.609 0 0 1 10.398 20c0-.879.723-1.602 1.602-1.602.879 0 1.602.723 1.602 1.602 0 .879-.723 1.602-1.602 1.602zm0 0M12 6.398A2.404 2.404 0 0 0 14.398 4 2.404 2.404 0 0 0 12 1.602 2.404 2.404 0 0 0 9.602 4 2.404 2.404 0 0 0 12 6.398zm0-4c.879 0 1.602.723 1.602 1.602 0 .879-.723 1.602-1.602 1.602A1.609 1.609 0 0 1 10.398 4c0-.879.723-1.602 1.602-1.602zm0 0M14.8 10.398h-1.198V9.2c0-.238-.16-.398-.403-.398h-2.398c-.242 0-.403.16-.403.398v1.2H9.2c-.238 0-.398.16-.398.402v2.398c0 .242.16.403.398.403h1.2V14.8c0 .238.16.398.402.398h2.398c.242 0 .403-.16.403-.398v-1.2H14.8c.238 0 .398-.16.398-.402v-2.398c0-.242-.16-.403-.398-.403zm-.402 2.403H13.2c-.238 0-.398.16-.398.398v1.2h-1.602v-1.2c0-.238-.16-.398-.398-.398H9.6v-1.602h1.2c.238 0 .398-.16.398-.398V9.6h1.602v1.2c0 .238.16.398.398.398h1.2zm0 0"/>
</svg>
