<svg xmlns="http://www.w3.org/2000/svg" width="32" height="32" viewBox="0 0 24 24">
    <path d="M 22.398438 0 L 1.601562 0 C 0.71875 0 0 0.71875 0 1.601562 L 0 22.398438 C 0 23.28125 0.71875 24 1.601562 24 L 22.398438 24 C 23.28125 24 24 23.28125 24 22.398438 L 24 1.601562 C 24 0.71875 23.28125 0 22.398438 0 Z M 23.199219 22.398438 C 23.199219 22.839844 22.839844 23.199219 22.398438 23.199219 L 1.601562 23.199219 C 1.160156 23.199219 0.800781 22.839844 0.800781 22.398438 L 0.800781 1.601562 C 0.800781 1.160156 1.160156 0.800781 1.601562 0.800781 L 22.398438 0.800781 C 22.839844 0.800781 23.199219 1.160156 23.199219 1.601562 Z M 23.199219 22.398438"/>
    <path d="M 15.601562 4.398438 L 8.398438 4.398438 C 8.160156 4.398438 8 4.558594 8 4.800781 L 8 12 C 8 12.070312 8.015625 12.132812 8.039062 12.1875 L 8.039062 19.199219 C 8.039062 19.441406 8.199219 19.601562 8.441406 19.601562 L 15.601562 19.601562 C 15.839844 19.601562 16 19.441406 16 19.199219 L 16 4.800781 C 16 4.558594 15.839844 4.398438 15.601562 4.398438 Z M 8.800781 5.199219 L 15.199219 5.199219 L 15.199219 11.601562 L 8.800781 11.601562 Z M 15.199219 18.800781 L 8.839844 18.800781 L 8.839844 12.398438 L 15.199219 12.398438 Z M 15.199219 18.800781"/>
    <path d="M12 6.800781C11.121094 6.800781 10.398438 7.519531 10.398438 8.398438 10.398438 9.28125 11.121094 10 12 10 12.878906 10 13.601562 9.28125 13.601562 8.398438 13.601562 7.519531 12.878906 6.800781 12 6.800781zM12 9.199219C11.558594 9.199219 11.199219 8.839844 11.199219 8.398438 11.199219 7.960938 11.558594 7.601562 12 7.601562 12.441406 7.601562 12.800781 7.960938 12.800781 8.398438 12.800781 8.839844 12.441406 9.199219 12 9.199219zM12 17.199219C12.238281 17.199219 12.398438 17.039062 12.398438 16.800781L12.398438 14.398438C12.398438 14.160156 12.238281 14 12 14 11.761719 14 11.601562 14.160156 11.601562 14.398438L11.601562 16.800781C11.601562 17.039062 11.761719 17.199219 12 17.199219zM2.398438 1.601562C1.960938 1.601562 1.601562 1.960938 1.601562 2.398438 1.601562 2.839844 1.960938 3.199219 2.398438 3.199219 2.839844 3.199219 3.199219 2.839844 3.199219 2.398438 3.199219 1.960938 2.839844 1.601562 2.398438 1.601562zM2.398438 20.800781C1.960938 20.800781 1.601562 21.160156 1.601562 21.601562 1.601562 22.039062 1.960938 22.398438 2.398438 22.398438 2.839844 22.398438 3.199219 22.039062 3.199219 21.601562 3.199219 21.160156 2.839844 20.800781 2.398438 20.800781zM21.601562 1.601562C21.160156 1.601562 20.800781 1.960938 20.800781 2.398438 20.800781 2.839844 21.160156 3.199219 21.601562 3.199219 22.039062 3.199219 22.398438 2.839844 22.398438 2.398438 22.398438 1.960938 22.039062 1.601562 21.601562 1.601562zM21.601562 20.800781C21.160156 20.800781 20.800781 21.160156 20.800781 21.601562 20.800781 22.039062 21.160156 22.398438 21.601562 22.398438 22.039062 22.398438 22.398438 22.039062 22.398438 21.601562 22.398438 21.160156 22.039062 20.800781 21.601562 20.800781zM21.601562 20.800781"/>
</svg>
