<svg xmlns="http://www.w3.org/2000/svg" width="32" height="32" viewBox="0 0 24 24">
    <path d="M14.398438 4C14.480469 4 14.601562 3.960938 14.679688 3.921875L16.558594 2.398438 23.601562 2.398438C23.839844 2.398438 24 2.238281 24 2L24 .398438C24 .160156 23.839844 0 23.601562 0L15.601562 0C15.519531 0 15.441406.0390625 15.320312.078125L13.441406 1.601562 13.199219 1.601562 13.199219 1.199219C13.199219.519531 12.679688 0 12 0 11.320312 0 10.800781.519531 10.800781 1.199219L10.800781 1.601562 10.398438 1.601562C10.160156 1.601562 10 1.761719 10 2L10 4.800781 9.199219 4.800781C2.839844 4.800781 0 10.160156 0 14 0 14.238281.160156 14.398438.398438 14.398438L5.199219 14.398438C5.441406 14.398438 5.601562 14.238281 5.601562 14 5.601562 13.078125 6.28125 10.398438 9.199219 10.398438L14.800781 10.398438C15.71875 10.398438 18.398438 11.078125 18.398438 14L18.398438 23.558594C18.398438 23.800781 18.558594 23.960938 18.800781 23.960938 19.039062 23.960938 19.199219 23.800781 19.199219 23.558594L19.199219 13.960938C19.199219 10.761719 16.558594 9.761719 15.199219 9.601562L15.199219 5.601562C18.640625 5.800781 23.199219 8.441406 23.199219 14L23.199219 23.601562C23.199219 23.839844 23.359375 24 23.601562 24 23.839844 24 24 23.839844 24 23.601562L24 14C24 7.640625 18.640625 4.800781 14.800781 4.800781L14 4.800781 14 4zM11.601562 1.199219C11.601562.960938 11.761719.800781 12 .800781 12.238281.800781 12.398438.960938 12.398438 1.199219L12.398438 1.601562 11.601562 1.601562zM10.800781 2.398438L13.601562 2.398438C13.679688 2.398438 13.800781 2.359375 13.878906 2.320312L15.761719.800781 23.199219.800781 23.199219 1.601562 16.398438 1.601562C16.320312 1.601562 16.238281 1.640625 16.121094 1.679688L14.238281 3.199219 10.800781 3.199219zM8.761719 9.601562C5.839844 9.839844 4.960938 12.28125 4.800781 13.601562L.800781 13.601562C1 10.238281 3.519531 5.839844 8.761719 5.601562zM14.398438 9.601562L9.601562 9.601562 9.601562 5.601562 14.398438 5.601562zM13.199219 4.800781L10.800781 4.800781 10.800781 4 13.199219 4zM1.601562 20C1.359375 20 1.199219 20.160156 1.199219 20.398438L1.199219 21.199219C1.199219 21.441406 1.359375 21.601562 1.601562 21.601562 1.839844 21.601562 2 21.441406 2 21.199219L2 20.398438C2 20.160156 1.839844 20 1.601562 20zM1.601562 15.199219C1.359375 15.199219 1.199219 15.359375 1.199219 15.601562L1.199219 16.398438C1.199219 16.640625 1.359375 16.800781 1.601562 16.800781 1.839844 16.800781 2 16.640625 2 16.398438L2 15.601562C2 15.359375 1.839844 15.199219 1.601562 15.199219zM1.601562 22.398438C1.359375 22.398438 1.199219 22.558594 1.199219 22.800781L1.199219 23.601562C1.199219 23.839844 1.359375 24 1.601562 24 1.839844 24 2 23.839844 2 23.601562L2 22.800781C2 22.558594 1.839844 22.398438 1.601562 22.398438zM1.601562 17.601562C1.359375 17.601562 1.199219 17.761719 1.199219 18L1.199219 18.800781C1.199219 19.039062 1.359375 19.199219 1.601562 19.199219 1.839844 19.199219 2 19.039062 2 18.800781L2 18C2 17.761719 1.839844 17.601562 1.601562 17.601562zM3.601562 22.398438C3.359375 22.398438 3.199219 22.558594 3.199219 22.800781L3.199219 23.601562C3.199219 23.839844 3.359375 24 3.601562 24 3.839844 24 4 23.839844 4 23.601562L4 22.800781C4 22.558594 3.839844 22.398438 3.601562 22.398438zM3.601562 22.398438"/>
    <path d="M3.601562 15.199219C3.359375 15.199219 3.199219 15.359375 3.199219 15.601562L3.199219 16.398438C3.199219 16.640625 3.359375 16.800781 3.601562 16.800781 3.839844 16.800781 4 16.640625 4 16.398438L4 15.601562C4 15.359375 3.839844 15.199219 3.601562 15.199219zM3.601562 17.601562C3.359375 17.601562 3.199219 17.761719 3.199219 18L3.199219 18.800781C3.199219 19.039062 3.359375 19.199219 3.601562 19.199219 3.839844 19.199219 4 19.039062 4 18.800781L4 18C4 17.761719 3.839844 17.601562 3.601562 17.601562zM3.601562 20C3.359375 20 3.199219 20.160156 3.199219 20.398438L3.199219 21.199219C3.199219 21.441406 3.359375 21.601562 3.601562 21.601562 3.839844 21.601562 4 21.441406 4 21.199219L4 20.398438C4 20.160156 3.839844 20 3.601562 20zM3.601562 20"/>
</svg>
