<svg xmlns="http://www.w3.org/2000/svg" width="32" height="32" viewBox="0 0 24 24">
    <path d="M22.602 9.406c-.883-.558-1.403-1.558-1.403-2.68v-.84c0-1.437-1.039-2.679-2.398-2.84-.801-.12-1.64.122-2.242.642a2.983 2.983 0 0 0-.926 1.718H8.359C8.16 4.18 7.203 3.184 5.961 3.008c-.8-.082-1.602.16-2.2.68-.6.558-.96 1.32-.96 2.12v.919c0 1.082-.52 2.12-1.442 2.68A2.856 2.856 0 0 0 0 11.808v9.199h24v-9.2c0-1.28-1.398-2.402-1.398-2.402zM12.8 12.207h-1.602v-.398c0-.961-.52-1.84-1.398-2.403-.88-.558-1.403-1.558-1.403-2.68v-.519h7.204v.52c0 1.082-.563 2.12-1.442 2.68a2.856 2.856 0 0 0-1.36 2.402zm-2.403 8H.801v-8.398c0-.68.36-1.32 1-1.68l.039-.043c1.082-.719 1.762-2 1.762-3.36V5.81c0-.563.238-1.122.68-1.52.437-.402 1-.562 1.597-.48.96.117 1.723 1.039 1.723 2.078v.8c0 1.399.68 2.68 1.757 3.36l.04.039c.64.402 1 1.043 1 1.723zM23.2 13.809h-2.398c-.242 0-.403.16-.403.398 0 .242.16.402.403.402h2.398v.797h-2.8c-.239 0-.399.16-.399.403 0 .238.16.398.398.398H23.2v.8H18c-.238 0-.398.161-.398.4 0 .241.16.402.398.402h5.2v.796h-2.4c-.241 0-.402.16-.402.403 0 .238.16.398.403.398h2.398v.801h-12v-.8H14c.238 0 .398-.16.398-.4 0-.241-.16-.398-.398-.398h-2.8v-.8h2.402c.238 0 .398-.16.398-.403 0-.238-.16-.398-.398-.398h-2.403v-.801H16c.238 0 .398-.16.398-.398 0-.243-.16-.403-.398-.403h-4.8v-.797H14c.238 0 .398-.16.398-.402 0-.238-.16-.398-.398-.398h-2.8v-.801h12zm0-1.602h-9.597v-.36c0-.679.359-1.32 1-1.718l.039-.043c1.078-.719 1.757-2 1.757-3.36v-.519h2c.243 0 .403-.16.403-.398 0-.243-.16-.403-.403-.403h-1.957c.086-.418.305-.812.637-1.117.442-.402 1-.562 1.602-.48.96.117 1.718 1.039 1.718 2.078v.84c0 .921.84 2.12 1.364 2.84.199.28.437.519.68.722.48.399.757.957.757 1.559zm0 0"/>
    <path d="M18.8 15.406h-1.198c-.243 0-.403.16-.403.403 0 .238.16.398.403.398H18.8c.238 0 .398-.16.398-.398 0-.243-.16-.403-.398-.403zm0 0M15.602 14.61h3.597c.242 0 .403-.16.403-.403 0-.238-.16-.398-.403-.398h-3.597c-.243 0-.403.16-.403.398 0 .242.16.402.403.402zm0 0M15.2 19.008c0 .238.16.398.402.398h3.597c.242 0 .403-.16.403-.398 0-.242-.16-.399-.403-.399h-3.597c-.243 0-.403.157-.403.399zm0 0M16.398 17.809c.243 0 .403-.16.403-.403 0-.238-.16-.398-.403-.398H15.2c-.238 0-.398.16-.398.398 0 .242.16.403.398.403zm0 0"/>
</svg>
