<svg xmlns="http://www.w3.org/2000/svg" width="32" height="32" viewBox="0 0 24 24">
    <path d="M12.879.121c-.598-.16-1.2-.16-1.8 0A7.208 7.208 0 0 0 6 7.04v4.32c0 .563.398 1.04.96 1.16l1.919.442c.629.137 1.285.219 1.922.234v1.926l-.762 1.52c-.039.039-.039.078-.039.16V22c0 1.121.879 2 2 2s2-.879 2-2v-5.2c0-.081 0-.12-.04-.16l-.76-1.519v-1.926c.64-.015 1.284-.093 1.96-.234l1.918-.441c.524-.122.922-.598.922-1.16V7.04c0-3.2-2.04-5.962-5.121-6.919zm-.48 11.238v3.442h-.797v-3.442l.398-.398zm.8 10.641c0 .68-.52 1.2-1.199 1.2-.68 0-1.2-.52-1.2-1.2h.802c.238 0 .398-.16.398-.398 0-.243-.16-.403-.398-.403H10.8v-.8h.8c.239 0 .399-.16.399-.399 0-.238-.16-.398-.398-.398H10.8v-2.723l.64-1.277h1.118l.64 1.277zm4-10.64c0 .199-.12.359-.32.402l-1.918.437a8.73 8.73 0 0 1-1.762.2v-1.2c0-.12-.039-.199-.12-.277l-.798-.8A.361.361 0 0 0 12 10c-.102 0-.2.04-.281.121l-.797.8a.348.348 0 0 0-.121.278v1.2a8.73 8.73 0 0 1-1.762-.2l-1.918-.437a.396.396 0 0 1-.32-.403V7.04c0-2.84 1.84-5.32 4.558-6.16a2.523 2.523 0 0 1 1.32 0c2.68.84 4.52 3.32 4.52 6.16zm0 0"/>
    <path d="M11.48 1.602C9.238 2.32 7.72 4.32 7.602 6.8c0 .199.16.398.398.398.238 0 .398-.16.398-.398.082-2.082 1.403-3.84 3.282-4.442a.356.356 0 0 0 .28-.48.354.354 0 0 0-.48-.277zm0 0"/>
</svg>
