<svg xmlns="http://www.w3.org/2000/svg" width="32" height="32" viewBox="0 0 24 24">
    <path d="M21.586 11.578a3.86 3.86 0 0 0-.36-1.441C20.31 8.219 19.59 4.305 19.59 1.23c0-.68-.559-1.199-1.2-1.199h-.636a.32.32 0 0 0-.324.028.365.365 0 0 0-.23.304c-1.067 1.532-2.966 2.426-5.16 2.426-2.278 0-4.235-.96-5.274-2.598a.506.506 0 0 0-.477-.16h-.68c-.68 0-1.199.559-1.199 1.2 0 3.035-.719 6.949-1.637 8.867-.195.386-.351 1.039-.359 1.48v11.223c0 .68.52 1.199 1.195 1.199h16.782c.675 0 1.195-.559 1.195-1.16zM3.21 14.773v-2.398h17.578v2.398zM18.793 1.23c0 3.196.758 7.192 1.715 9.227.156.27.27.793.281 1.121H12.4V9.957c.046-.008.09-.012.132-.02.016-.003.031-.003.047-.007l.129-.024c.02-.004.043-.008.063-.015l.109-.024.082-.023.039-.012c1.754-.527 2.98-2.41 3.781-4.379.735-1.793 1.117-3.652 1.223-4.621h.387a.4.4 0 0 1 .402.398zM12 3.625c1.996 0 3.797-.676 5.035-1.914-.367 2.016-1.414 5.316-3.191 6.758 0 .004-.004.004-.004.008-.035.027-.067.05-.102.074a.104.104 0 0 1-.023.02c-.031.023-.059.046-.09.066-.012.008-.02.011-.031.02a3.225 3.225 0 0 1-.207.132l-.059.035c-.023.012-.05.024-.074.04-.02.007-.04.019-.059.027-.023.011-.05.027-.078.039-.015.008-.035.015-.055.023l-.085.035a.271.271 0 0 1-.051.02c-.04.015-.078.031-.121.043-.004.004-.012.004-.016.008-.047.011-.094.027-.14.039-.016.004-.028.007-.044.007-.035.012-.066.016-.101.024l-.05.012a.73.73 0 0 0-.099.015c-.02 0-.035.004-.054.004l-.102.012c-.015 0-.031 0-.047.004-.05 0-.101.004-.152.004-.05 0-.102-.004-.152-.004-.016-.004-.032-.004-.047-.004l-.102-.012c-.02 0-.035-.004-.054-.004a.73.73 0 0 0-.098-.015l-.05-.012c-.036-.008-.067-.012-.102-.024-.016 0-.028-.003-.043-.007-.047-.012-.094-.028-.141-.04-.004-.003-.012-.003-.016-.007a1.104 1.104 0 0 1-.12-.043.271.271 0 0 1-.052-.02l-.085-.035c-.02-.008-.04-.015-.055-.023-.028-.012-.055-.028-.078-.04-.02-.007-.04-.019-.059-.027-.023-.015-.05-.027-.074-.039l-.059-.035-.058-.035a3.225 3.225 0 0 1-.149-.098c-.011-.004-.02-.011-.031-.02-.031-.019-.059-.042-.09-.066a.104.104 0 0 1-.023-.02 1.672 1.672 0 0 1-.102-.073c0-.004-.004-.004-.004-.008C8.38 7.03 7.332 3.727 6.965 1.71 8.203 2.949 10.004 3.625 12 3.625zm-8.508 6.832C4.45 8.422 5.207 4.465 5.207 1.23a.4.4 0 0 1 .402-.398h.422c.098 1.07.547 3.23 1.434 5.188.797 1.75 1.95 3.335 3.535 3.812l.04.012.081.023.11.024c.019.007.042.011.062.015l.129.024c.015.004.031.004.047.008.043.007.086.011.133.019v1.621H3.21c.012-.328.125-.851.281-1.121zm-.281 5.113h8.39v2h-8.39zm0 5.196v-2.399h17.578v2.399zm0 2.035v-1.238h8.39v1.636H3.61c-.238 0-.398-.156-.398-.398zm17.578 0c0 .242-.16.398-.398.398h-7.993v-1.637h8.391zm0-5.23H12.4v-2h8.39zm0 0"/>
</svg>
