<svg xmlns="http://www.w3.org/2000/svg" width="32" height="32" viewBox="0 0 24 24">
    <path d="M 23.601562 9.601562 L 22.800781 9.601562 L 22.800781 8 C 23.238281 8 23.601562 7.640625 23.601562 7.199219 L 23.601562 6.398438 C 23.601562 5.960938 23.238281 5.601562 22.800781 5.601562 L 22.039062 5.601562 C 21.601562 5.601562 21.238281 5.960938 21.238281 6.398438 L 21.238281 7.199219 C 21.238281 7.625 21.578125 7.976562 22 7.996094 L 22 9.601562 L 21.199219 9.601562 C 20.960938 9.601562 20.800781 9.761719 20.800781 10 L 20 10 L 20 7.601562 C 20 7.519531 20 7.480469 19.960938 7.441406 L 18.480469 4.480469 C 18.078125 3.679688 17.320312 3.199219 16.441406 3.199219 L 14.398438 3.199219 C 14.160156 3.199219 14 3.359375 14 3.601562 L 14 5.601562 C 14 6.039062 14.359375 6.398438 14.800781 6.398438 L 15.601562 6.398438 L 15.601562 9.199219 L 13.648438 9.199219 L 13.601562 9.078125 C 13.519531 8.839844 13.28125 8.761719 13.078125 8.839844 C 12.902344 8.898438 12.8125 9.046875 12.808594 9.199219 L 12.046875 9.199219 L 12 9.078125 C 11.921875 8.839844 11.679688 8.761719 11.480469 8.839844 C 11.300781 8.898438 11.210938 9.046875 11.210938 9.199219 L 10.398438 9.199219 L 10.398438 6.398438 L 12 6.398438 C 12.441406 6.398438 12.800781 6.039062 12.800781 5.601562 L 12.800781 3.601562 C 12.800781 3.359375 12.640625 3.199219 12.398438 3.199219 L 5.199219 3.199219 C 4.960938 3.199219 4.800781 3.359375 4.800781 3.601562 L 4.800781 5.601562 C 4.800781 6.039062 5.160156 6.398438 5.601562 6.398438 L 7.199219 6.398438 L 7.199219 8 C 6.125 8 5.144531 8.449219 4.4375 9.199219 L 1.199219 9.199219 C 0.519531 9.199219 0 9.71875 0 10.398438 L 0 12 C 0 12.679688 0.519531 13.199219 1.199219 13.199219 L 2.683594 13.199219 C 2.496094 14.050781 2.398438 14.921875 2.398438 15.800781 L 2.398438 17.628906 C 1.035156 17.820312 0 18.976562 0 20.398438 C 0 20.640625 0.160156 20.800781 0.398438 20.800781 L 15.199219 20.800781 C 15.441406 20.800781 15.601562 20.640625 15.601562 20.398438 C 15.601562 18.976562 14.566406 17.820312 13.199219 17.628906 L 13.199219 14.398438 C 13.199219 14.199219 13.078125 14.039062 12.921875 14 C 12.378906 13.851562 11.894531 13.570312 11.5 13.199219 L 12.777344 13.199219 L 12.839844 13.359375 C 12.878906 13.519531 13.039062 13.601562 13.199219 13.601562 C 13.238281 13.601562 13.320312 13.601562 13.359375 13.601562 C 13.554688 13.535156 13.640625 13.367188 13.628906 13.199219 L 14.375 13.199219 L 14.441406 13.359375 C 14.480469 13.519531 14.640625 13.601562 14.800781 13.601562 C 14.839844 13.601562 14.917969 13.601562 14.960938 13.601562 C 15.152344 13.535156 15.242188 13.367188 15.226562 13.199219 L 15.601562 13.199219 L 15.601562 13.601562 C 15.601562 14.28125 16.121094 14.800781 16.800781 14.800781 L 18.800781 14.800781 C 19.480469 14.800781 20 14.28125 20 13.601562 L 20 12.398438 L 20.800781 12.398438 C 20.800781 12.640625 20.960938 12.800781 21.199219 12.800781 L 22 12.800781 L 22 17.203125 C 21.578125 17.222656 21.238281 17.574219 21.238281 18 L 21.238281 18.800781 C 21.238281 19.238281 21.601562 19.601562 22.039062 19.601562 L 22.800781 19.601562 C 23.238281 19.601562 23.601562 19.238281 23.601562 18.800781 L 23.601562 18 C 23.601562 17.558594 23.238281 17.199219 22.800781 17.199219 L 22.800781 12.800781 L 23.601562 12.800781 C 23.839844 12.800781 24 12.640625 24 12.398438 L 24 10 C 24 9.761719 23.839844 9.601562 23.601562 9.601562 Z M 22.039062 6.398438 L 22.839844 6.398438 L 22.839844 7.199219 L 22.039062 7.199219 Z M 5.601562 4 L 12 4 L 12 5.601562 L 5.601562 5.601562 Z M 2.878906 12.398438 L 1.199219 12.398438 C 0.960938 12.398438 0.800781 12.238281 0.800781 12 L 0.800781 10.398438 C 0.800781 10.160156 0.960938 10 1.199219 10 L 3.859375 10 C 3.757812 10.191406 3.664062 10.382812 3.574219 10.574219 C 3.285156 11.160156 3.058594 11.769531 2.878906 12.398438 Z M 14.761719 20 L 0.839844 20 C 1.039062 19.078125 1.839844 18.398438 2.800781 18.398438 L 12.800781 18.398438 C 13.761719 18.398438 14.558594 19.078125 14.761719 20 Z M 12.398438 17.601562 L 3.199219 17.601562 L 3.199219 16.800781 L 6 16.800781 C 6.238281 16.800781 6.398438 16.640625 6.398438 16.398438 C 6.398438 16.160156 6.238281 16 6 16 L 3.199219 16 L 3.199219 15.800781 C 3.199219 15.601562 3.207031 15.398438 3.214844 15.199219 L 4.441406 15.199219 C 4.640625 15.199219 4.800781 15.039062 4.800781 14.800781 C 4.800781 14.558594 4.679688 14.398438 4.441406 14.398438 L 3.289062 14.398438 C 3.347656 13.929688 3.433594 13.460938 3.550781 13 C 3.570312 12.972656 3.585938 12.949219 3.601562 12.921875 C 3.839844 12 4.160156 11.160156 4.601562 10.359375 C 4.679688 10.199219 4.800781 10.039062 4.960938 9.878906 C 4.988281 9.839844 5.007812 9.792969 5.023438 9.746094 C 5.597656 9.152344 6.375 8.800781 7.199219 8.800781 L 7.601562 8.800781 C 7.839844 8.800781 8 8.640625 8 8.398438 L 8 6.398438 L 9.601562 6.398438 L 9.601562 10.679688 C 9.601562 12.480469 10.71875 14.078125 12.398438 14.679688 Z M 10.878906 12.398438 C 10.726562 12.148438 10.609375 11.878906 10.53125 11.601562 C 10.523438 11.582031 10.519531 11.5625 10.511719 11.542969 C 10.507812 11.527344 10.503906 11.511719 10.5 11.496094 C 10.492188 11.460938 10.484375 11.429688 10.476562 11.394531 C 10.476562 11.386719 10.472656 11.382812 10.472656 11.375 C 10.453125 11.285156 10.4375 11.199219 10.425781 11.109375 C 10.425781 11.101562 10.425781 11.097656 10.425781 11.09375 C 10.421875 11.054688 10.417969 11.015625 10.414062 10.980469 C 10.414062 10.96875 10.410156 10.957031 10.410156 10.945312 C 10.410156 10.914062 10.40625 10.878906 10.40625 10.847656 C 10.402344 10.835938 10.402344 10.824219 10.402344 10.8125 C 10.402344 10.765625 10.398438 10.722656 10.398438 10.679688 L 10.398438 10 L 11.496094 10 L 12.457031 12.398438 Z M 13.328125 12.398438 L 12.367188 10 L 13.097656 10 L 14.054688 12.398438 Z M 15.558594 12.398438 L 14.929688 12.398438 L 13.96875 10 L 15.558594 10 Z M 22.839844 18 L 22.839844 18.800781 L 22.039062 18.800781 L 22.039062 18 Z M 19.199219 13.601562 C 19.199219 13.839844 19.039062 14 18.800781 14 L 16.800781 14 C 16.558594 14 16.398438 13.839844 16.398438 13.601562 L 16.398438 6 C 16.398438 5.761719 16.238281 5.601562 16 5.601562 L 14.800781 5.601562 L 14.800781 4 L 16.441406 4 C 17 4 17.519531 4.320312 17.761719 4.800781 L 19.199219 7.679688 Z M 20 11.601562 L 20 10.800781 L 20.800781 10.800781 L 20.800781 11.601562 Z M 23.199219 12 L 21.601562 12 L 21.601562 10.398438 L 23.199219 10.398438 Z M 23.199219 12"/>
</svg>
