<svg xmlns="http://www.w3.org/2000/svg" width="32" height="32" viewBox="0 0 24 24">
    <path d="M 18.199219 4 L 10.601562 4 L 10.601562 3.199219 C 10.839844 3.199219 11 3.039062 11 2.800781 L 11 2 L 16.640625 2 C 16.640625 2.441406 17 2.800781 17.441406 2.800781 L 18.199219 2.800781 C 18.640625 2.800781 19 2.441406 19 2 L 19 1.199219 C 19 0.761719 18.640625 0.398438 18.199219 0.398438 L 17.441406 0.398438 C 17 0.398438 16.640625 0.761719 16.640625 1.199219 L 11 1.199219 L 11 0.398438 C 11 0.160156 10.839844 0 10.601562 0 L 8.199219 0 C 7.960938 0 7.800781 0.160156 7.800781 0.398438 L 7.800781 1.199219 L 6.199219 1.199219 C 6.199219 0.761719 5.839844 0.398438 5.398438 0.398438 L 4.640625 0.398438 C 4.199219 0.398438 3.839844 0.761719 3.839844 1.199219 L 3.839844 2 C 3.839844 2.441406 4.199219 2.800781 4.640625 2.800781 L 5.398438 2.800781 C 5.839844 2.800781 6.199219 2.441406 6.199219 2 L 7.800781 2 L 7.800781 2.800781 C 7.800781 3.039062 8 3.199219 8.199219 3.199219 L 8.199219 4 L 5.398438 4 C 4.519531 4 3.800781 4.71875 3.800781 5.601562 C 3.800781 6.480469 4.519531 7.199219 5.398438 7.199219 L 8.199219 7.199219 L 8.199219 7.644531 L 7.839844 7.601562 C 7.640625 7.601562 7.441406 7.761719 7.398438 7.960938 C 7.398438 8.160156 7.519531 8.359375 7.761719 8.398438 L 8.199219 8.453125 L 8.199219 9.199219 L 7.398438 9.199219 C 7.160156 9.199219 7 9.359375 7 9.601562 L 7 11.199219 C 7 11.441406 7.160156 11.601562 7.398438 11.601562 L 11.398438 11.601562 C 11.640625 11.601562 11.800781 11.441406 11.800781 11.199219 L 11.800781 9.601562 C 11.800781 9.359375 11.640625 9.199219 11.398438 9.199219 L 10.601562 9.199219 L 10.601562 8.753906 L 10.960938 8.800781 L 11 8.800781 C 11.199219 8.800781 11.359375 8.640625 11.398438 8.441406 C 11.398438 8.238281 11.238281 8.039062 11.039062 8 L 10.601562 7.945312 L 10.601562 7.199219 L 15 7.199219 C 15.238281 7.199219 15.398438 7.359375 15.398438 7.601562 L 15.398438 20.398438 C 15.398438 20.640625 15.238281 20.800781 15 20.800781 L 10.601562 20.800781 L 10.601562 19.554688 L 10.960938 19.601562 L 11 19.601562 C 11.199219 19.601562 11.359375 19.441406 11.398438 19.238281 C 11.398438 19.039062 11.238281 18.839844 11.039062 18.800781 L 10.601562 18.746094 L 10.601562 17.953125 L 10.960938 18 L 11 18 C 11.199219 18 11.359375 17.839844 11.398438 17.640625 C 11.398438 17.441406 11.238281 17.238281 11.039062 17.199219 L 10.601562 17.144531 L 10.601562 16.355469 L 10.960938 16.398438 L 11 16.398438 C 11.199219 16.398438 11.359375 16.238281 11.398438 16.039062 C 11.398438 15.839844 11.238281 15.640625 11.039062 15.601562 L 10.601562 15.546875 L 10.601562 14.800781 L 11.398438 14.800781 C 11.640625 14.800781 11.800781 14.640625 11.800781 14.398438 L 11.800781 12.800781 C 11.800781 12.558594 11.640625 12.398438 11.398438 12.398438 L 7.398438 12.398438 C 7.160156 12.398438 7 12.558594 7 12.800781 L 7 14.398438 C 7 14.640625 7.160156 14.800781 7.398438 14.800781 L 8.199219 14.800781 L 8.199219 15.246094 L 7.839844 15.199219 C 7.640625 15.199219 7.441406 15.359375 7.398438 15.558594 C 7.398438 15.761719 7.519531 15.960938 7.761719 16 L 8.199219 16.054688 L 8.199219 16.84375 L 7.839844 16.800781 C 7.640625 16.800781 7.441406 16.960938 7.398438 17.160156 C 7.398438 17.359375 7.519531 17.558594 7.761719 17.601562 L 8.199219 17.65625 L 8.199219 18.445312 L 7.839844 18.398438 C 7.640625 18.398438 7.441406 18.558594 7.398438 18.761719 C 7.398438 18.960938 7.519531 19.160156 7.761719 19.199219 L 8.199219 19.253906 L 8.199219 20.800781 L 5.398438 20.800781 C 4.519531 20.800781 3.800781 21.519531 3.800781 22.398438 C 3.800781 23.28125 4.519531 24 5.398438 24 L 18.199219 24 C 19.320312 24 20.199219 23.121094 20.199219 22 L 20.199219 6 C 20.199219 4.878906 19.320312 4 18.199219 4 Z M 17.441406 1.199219 L 18.238281 1.199219 L 18.238281 2 L 17.441406 2 Z M 4.640625 2 L 4.640625 1.199219 L 5.441406 1.199219 L 5.441406 1.410156 C 5.414062 1.464844 5.398438 1.527344 5.398438 1.601562 C 5.398438 1.664062 5.414062 1.722656 5.441406 1.773438 L 5.441406 2 Z M 8.601562 0.800781 L 10.199219 0.800781 L 10.199219 2.398438 L 8.601562 2.398438 Z M 9 3.199219 L 9.800781 3.199219 L 9.800781 4 L 9 4 Z M 11 10.800781 L 7.800781 10.800781 L 7.800781 10 L 11 10 Z M 9.800781 9.199219 L 9 9.199219 L 9 8.554688 L 9.800781 8.65625 Z M 9.800781 7.84375 L 9 7.746094 L 9 7.199219 L 9.800781 7.199219 Z M 7.800781 13.199219 L 11 13.199219 L 11 14 L 7.800781 14 Z M 9 14.800781 L 9.800781 14.800781 L 9.800781 15.445312 L 9 15.34375 Z M 9 16.15625 L 9.800781 16.253906 L 9.800781 17.046875 L 9 16.945312 Z M 9 17.753906 L 9.800781 17.855469 L 9.800781 18.644531 L 9 18.546875 Z M 9 19.355469 L 9.800781 19.453125 L 9.800781 20.800781 L 9 20.800781 Z M 18.199219 23.199219 L 5.398438 23.199219 C 4.960938 23.199219 4.601562 22.839844 4.601562 22.398438 C 4.601562 21.960938 4.960938 21.601562 5.398438 21.601562 L 15 21.601562 C 15.679688 21.601562 16.199219 21.078125 16.199219 20.398438 L 16.199219 7.601562 C 16.199219 6.921875 15.679688 6.398438 15 6.398438 L 5.398438 6.398438 C 4.960938 6.398438 4.601562 6.039062 4.601562 5.601562 C 4.601562 5.160156 4.960938 4.800781 5.398438 4.800781 L 18.199219 4.800781 C 18.878906 4.800781 19.398438 5.320312 19.398438 6 L 19.398438 19.199219 L 18.601562 19.199219 C 18.359375 19.199219 18.199219 19.359375 18.199219 19.601562 C 18.199219 19.839844 18.359375 20 18.601562 20 L 19.398438 20 L 19.398438 20.800781 L 17.800781 20.800781 C 17.558594 20.800781 17.398438 20.960938 17.398438 21.199219 C 17.398438 21.441406 17.558594 21.601562 17.800781 21.601562 L 19.398438 21.601562 L 19.398438 22 C 19.398438 22.679688 18.878906 23.199219 18.199219 23.199219 Z M 18.199219 23.199219"/>
</svg>
