<svg xmlns="http://www.w3.org/2000/svg" width="32" height="32" viewBox="0 0 24 24">
    <path d="M22 12.387c-.2 0-.398.203-.398.402 0 .238.16.399.398.399.238 0 .398-.16.398-.399 0-.242-.16-.402-.398-.402zm0 0M23.2 11.188c-.2 0-.4.199-.4.402 0 .238.16.398.4.398.241 0 .402-.16.402-.398 0-.242-.16-.402-.403-.402zm0 0M20.8 11.188c-.198 0-.402.199-.402.402 0 .238.16.398.403.398.238 0 .398-.16.398-.398 0-.242-.16-.402-.398-.402zm0 0M19.602 12.387c-.204 0-.403.203-.403.402 0 .238.16.399.403.399.238 0 .398-.16.398-.399 0-.242-.16-.402-.398-.402zm0 0M17.2 12.387c-.2 0-.4.203-.4.402 0 .238.16.399.4.399.241 0 .402-.16.402-.399 0-.242-.16-.402-.403-.402zm0 0M18.398 11.188c-.199 0-.398.199-.398.402 0 .238.16.398.398.398.243 0 .403-.16.403-.398 0-.242-.16-.402-.403-.402zm0 0M16 11.188c-.2 0-.398.199-.398.402 0 .238.16.398.398.398.238 0 .398-.16.398-.398 0-.242-.16-.402-.398-.402zm0 0M14.8 12.387c-.198 0-.402.203-.402.402 0 .238.16.399.403.399.238 0 .398-.16.398-.399 0-.242-.16-.402-.398-.402zm0 0M12.398 12.387c-.199 0-.398.203-.398.402 0 .238.16.399.398.399.243 0 .403-.16.403-.399 0-.242-.16-.402-.403-.402zm0 0M13.602 11.188a.43.43 0 0 0-.403.402c0 .238.16.398.403.398.238 0 .398-.16.398-.398 0-.242-.16-.402-.398-.402zm0 0M22 9.988c-.2 0-.398.2-.398.399 0 .242.16.402.398.402.238 0 .398-.16.398-.402 0-.239-.16-.399-.398-.399zm0 0M22 7.59c-.2 0-.398.2-.398.398 0 .239.16.399.398.399.238 0 .398-.16.398-.399 0-.242-.16-.398-.398-.398zm0 0M23.2 8.79c-.2 0-.4.198-.4.398 0 .242.16.402.4.402.241 0 .402-.16.402-.402 0-.239-.16-.399-.403-.399zm0 0M20.8 8.79c-.198 0-.402.198-.402.398 0 .242.16.402.403.402.238 0 .398-.16.398-.402 0-.239-.16-.399-.398-.399zm0 0M19.602 9.988c-.204 0-.403.2-.403.399 0 .242.16.402.403.402.238 0 .398-.16.398-.402 0-.239-.16-.399-.398-.399zm0 0M17.2 9.988c-.2 0-.4.2-.4.399 0 .242.16.402.4.402.241 0 .402-.16.402-.402 0-.239-.16-.399-.403-.399zm0 0M19.602 7.59c-.204 0-.403.2-.403.398 0 .239.16.399.403.399.238 0 .398-.16.398-.399 0-.242-.16-.398-.398-.398zm0 0M17.2 7.59c-.2 0-.4.2-.4.398 0 .239.16.399.4.399.241 0 .402-.16.402-.399 0-.242-.16-.398-.403-.398zm0 0M18.398 8.79c-.199 0-.398.198-.398.398 0 .242.16.402.398.402.243 0 .403-.16.403-.402 0-.239-.16-.399-.403-.399zm0 0M16 8.79c-.2 0-.398.198-.398.398 0 .242.16.402.398.402.238 0 .398-.16.398-.402 0-.239-.16-.399-.398-.399zm0 0M14.8 9.988c-.198 0-.402.2-.402.399 0 .242.16.402.403.402.238 0 .398-.16.398-.402 0-.239-.16-.399-.398-.399zm0 0M12.398 9.988c-.199 0-.398.2-.398.399 0 .242.16.402.398.402.243 0 .403-.16.403-.402 0-.239-.16-.399-.403-.399zm0 0M14.8 7.59c-.198 0-.402.2-.402.398 0 .239.16.399.403.399.238 0 .398-.16.398-.399 0-.242-.16-.398-.398-.398zm0 0M12.398 7.59c-.199 0-.398.2-.398.398 0 .239.16.399.398.399.243 0 .403-.16.403-.399 0-.242-.16-.398-.403-.398zm0 0M13.602 8.79c-.204 0-.403.198-.403.398 0 .242.16.402.403.402.238 0 .398-.16.398-.402 0-.239-.16-.399-.398-.399zm0 0M22 5.188c-.2 0-.398.199-.398.402 0 .238.16.398.398.398.238 0 .398-.16.398-.398 0-.242-.16-.402-.398-.402zm0 0M23.2 6.387c-.2 0-.4.203-.4.402 0 .238.16.399.4.399.241 0 .402-.16.402-.399 0-.242-.16-.402-.403-.402zm0 0M20.8 6.387c-.198 0-.402.203-.402.402 0 .238.16.399.403.399.238 0 .398-.16.398-.399 0-.242-.16-.402-.398-.402zm0 0M23.2 3.988c-.2 0-.4.2-.4.399 0 .242.16.402.4.402.241 0 .402-.16.402-.402 0-.239-.16-.399-.403-.399zm0 0M20.8 3.988c-.198 0-.402.2-.402.399 0 .242.16.402.403.402.238 0 .398-.16.398-.402 0-.239-.16-.399-.398-.399zm0 0M19.602 5.188a.43.43 0 0 0-.403.402c0 .238.16.398.403.398.238 0 .398-.16.398-.398 0-.242-.16-.402-.398-.402zm0 0M17.2 5.188c-.2 0-.4.199-.4.402 0 .238.16.398.4.398.241 0 .402-.16.402-.398 0-.242-.16-.402-.403-.402zm0 0M18.398 6.387c-.199 0-.398.203-.398.402 0 .238.16.399.398.399.243 0 .403-.16.403-.399 0-.242-.16-.402-.403-.402zm0 0M16 6.387c-.2 0-.398.203-.398.402 0 .238.16.399.398.399.238 0 .398-.16.398-.399 0-.242-.16-.402-.398-.402zm0 0M18.398 3.988c-.199 0-.398.2-.398.399 0 .242.16.402.398.402.243 0 .403-.16.403-.402 0-.239-.16-.399-.403-.399zm0 0M16 3.988c-.2 0-.398.2-.398.399 0 .242.16.402.398.402.238 0 .398-.16.398-.402 0-.239-.16-.399-.398-.399zm0 0M14.8 5.188c-.198 0-.402.199-.402.402 0 .238.16.398.403.398.238 0 .398-.16.398-.398 0-.242-.16-.402-.398-.402zm0 0M12.398 5.188c-.199 0-.398.199-.398.402 0 .238.16.398.398.398.243 0 .403-.16.403-.398 0-.242-.16-.402-.403-.402zm0 0M13.602 6.387c-.204 0-.403.203-.403.402 0 .238.16.399.403.399.238 0 .398-.16.398-.399 0-.242-.16-.402-.398-.402zm0 0M13.602 3.988c-.204 0-.403.2-.403.399 0 .242.16.402.403.402.238 0 .398-.16.398-.402 0-.239-.16-.399-.398-.399zm0 0M22 2.79c-.2 0-.398.198-.398.397 0 .243.16.403.398.403.238 0 .398-.16.398-.402 0-.239-.16-.399-.398-.399zm0 0M22 .387c-.2 0-.398.203-.398.402 0 .238.16.398.398.398.238 0 .398-.16.398-.398 0-.242-.16-.402-.398-.402zm0 0M23.2 1.59c-.2 0-.4.2-.4.398 0 .239.16.399.4.399.241 0 .402-.16.402-.399 0-.242-.16-.398-.403-.398zm0 0M20.8 1.59c-.198 0-.402.2-.402.398 0 .239.16.399.403.399.238 0 .398-.16.398-.399 0-.242-.16-.398-.398-.398zm0 0M19.602 2.79c-.204 0-.403.198-.403.397 0 .243.16.403.403.403.238 0 .398-.16.398-.402 0-.239-.16-.399-.398-.399zm0 0M17.2 2.79c-.2 0-.4.198-.4.397 0 .243.16.403.4.403.241 0 .402-.16.402-.402 0-.239-.16-.399-.403-.399zm0 0M19.602.387c-.204 0-.403.203-.403.402 0 .238.16.398.403.398.238 0 .398-.16.398-.398 0-.242-.16-.402-.398-.402zm0 0M17.2.387c-.2 0-.4.203-.4.402 0 .238.16.398.4.398.241 0 .402-.16.402-.398 0-.242-.16-.402-.403-.402zm0 0M18.398 1.59c-.199 0-.398.2-.398.398 0 .239.16.399.398.399.243 0 .403-.16.403-.399 0-.242-.16-.398-.403-.398zm0 0M16 1.59c-.2 0-.398.2-.398.398 0 .239.16.399.398.399.238 0 .398-.16.398-.399 0-.242-.16-.398-.398-.398zm0 0M14.8 2.79c-.198 0-.402.198-.402.397 0 .243.16.403.403.403.238 0 .398-.16.398-.402 0-.239-.16-.399-.398-.399zm0 0M12.398 2.79c-.199 0-.398.198-.398.397 0 .243.16.403.398.403.243 0 .403-.16.403-.402 0-.239-.16-.399-.403-.399zm0 0M14.8.387c-.198 0-.402.203-.402.402 0 .238.16.398.403.398.238 0 .398-.16.398-.398 0-.242-.16-.402-.398-.402zm0 0M12.398.387C12.2.387 12 .59 12 .789c0 .238.16.398.398.398.243 0 .403-.16.403-.398 0-.242-.16-.402-.403-.402zm0 0M13.602 1.59c-.204 0-.403.2-.403.398 0 .239.16.399.403.399.238 0 .398-.16.398-.399 0-.242-.16-.398-.398-.398zm0 0"/>
    <path d="M24 .398C24 .16 23.84 0 23.602 0H.398C.16 0 0 .16 0 .398v23.204c0 .238.16.398.398.398H12c.238 0 .398-.16.398-.398V18.8H22c1.121 0 2-1.242 2-2.801zM12.398.801H23.2V13.75a2.059 2.059 0 0 0-.351-.293l-.055-.035-.035-.02-.047-.023-.047-.024c-.012-.007-.023-.011-.035-.015-.02-.008-.035-.02-.055-.024a.085.085 0 0 1-.02-.011 1.873 1.873 0 0 0-.288-.082c-.012 0-.02 0-.032-.004-.015-.004-.035-.004-.054-.008-.016 0-.032-.004-.047-.004-.012 0-.028-.004-.04-.004-.03 0-.062-.004-.093-.004h-9.602zm-2 17.199c-.378 0-.73-.324-.953-.813A2.914 2.914 0 0 1 9.2 16c0-.234.028-.465.074-.68.176-.758.625-1.32 1.125-1.32H20.59c-.363.508-.59 1.21-.59 2s.227 1.492.59 2zm1.204 5.2H.8V.8h10.8v12.4h-1.203c-1.117 0-2 1.241-2 2.8 0 1.559.883 2.8 2 2.8h1.204zM22 18c-.379 0-.73-.324-.953-.813A2.852 2.852 0 0 1 20.8 16c0-.234.027-.465.074-.68C21.047 14.562 21.5 14 22 14c.434 0 .828.422 1.04 1.027.1.293.16.625.16.973 0 1.078-.56 2-1.2 2zm0 0"/>
</svg>
