<svg xmlns="http://www.w3.org/2000/svg" width="32" height="32" viewBox="0 0 24 24">
    <path d="M 20.402344 15.539062 C 19.328125 15.539062 18.355469 15.984375 17.679688 16.78125 L 16.359375 16.289062 C 16.667969 16.117188 16.957031 15.910156 17.242188 15.699219 L 22.878906 10.375 C 23.5 10.316406 23.960938 9.820312 23.960938 9.179688 C 23.960938 8.5 23.441406 7.980469 22.761719 7.980469 L 21.484375 7.980469 C 21.328125 7.519531 20.976562 7.136719 20.519531 6.941406 C 20.800781 6.5 20.839844 5.980469 20.601562 5.582031 C 20.359375 5.222656 19.921875 4.941406 19.199219 5.0625 C 19.5625 4.542969 19.640625 3.941406 19.320312 3.542969 C 19.042969 3.183594 18.519531 3.101562 17.960938 3.300781 C 17.960938 3.222656 17.960938 3.140625 17.921875 3.0625 C 17.722656 2.183594 16.921875 1.582031 16 1.582031 C 15.683594 1.582031 15.402344 1.664062 15.121094 1.824219 C 15.082031 1.824219 15.042969 1.78125 15.042969 1.78125 C 14.722656 1.421875 14.242188 1.222656 13.761719 1.222656 C 12.882812 1.222656 12.164062 1.863281 12.003906 2.664062 C 11.761719 2.664062 11.441406 2.742188 11.203125 3.023438 C 10.964844 3.261719 10.882812 3.621094 10.921875 4.0625 C 10.125 3.582031 9.523438 3.820312 9.203125 4.222656 C 8.882812 4.582031 8.84375 5.140625 9.003906 5.621094 C 8.761719 5.621094 8.5625 5.703125 8.363281 5.820312 C 7.84375 6.179688 7.5625 6.980469 7.5625 7.542969 C 7.523438 7.582031 7.402344 7.660156 7.324219 7.699219 C 7.191406 7.78125 7.046875 7.859375 6.925781 7.980469 L 6.363281 7.980469 C 5.683594 7.980469 5.164062 8.5 5.164062 9.179688 C 5.164062 9.734375 5.507812 10.179688 6 10.328125 L 6.164062 11.699219 C 6.203125 12.003906 6.277344 12.296875 6.386719 12.578125 L 1.765625 10.859375 C 1.125 10.621094 0.40625 10.898438 0.125 11.5 C -0.0351562 11.820312 -0.0351562 12.21875 0.0859375 12.539062 C 0.207031 12.859375 0.484375 13.140625 0.804688 13.257812 L 6.765625 15.417969 L 6.765625 21.257812 C 6.765625 22.058594 7.484375 22.777344 8.363281 22.777344 C 8.761719 22.777344 9.164062 22.617188 9.445312 22.335938 L 13.78125 17.960938 L 16.761719 19.042969 C 16.761719 19.085938 16.761719 19.132812 16.761719 19.179688 C 16.761719 21.179688 18.363281 22.777344 20.359375 22.777344 C 22.359375 22.777344 24 21.136719 24 19.136719 C 24 17.140625 22.398438 15.539062 20.402344 15.539062 Z M 19.902344 19.929688 C 20.253906 19.832031 20.570312 19.582031 20.722656 19.21875 C 20.890625 18.796875 20.800781 18.316406 20.511719 17.984375 C 21.117188 18.058594 21.5625 18.5625 21.5625 19.179688 C 21.5625 19.859375 21.039062 20.378906 20.359375 20.378906 C 20 20.378906 19.679688 20.21875 19.480469 19.976562 C 19.625 19.988281 19.769531 19.972656 19.902344 19.929688 Z M 8.363281 7.582031 C 8.363281 7.179688 8.605469 6.660156 8.84375 6.421875 C 8.964844 6.339844 9.003906 6.382812 9.042969 6.382812 C 9.242188 6.460938 9.761719 6.621094 10.003906 6.261719 C 10.203125 5.980469 10.003906 5.660156 9.882812 5.5 C 9.683594 5.300781 9.683594 4.902344 9.84375 4.703125 C 10.042969 4.460938 10.402344 4.621094 10.601562 4.742188 L 10.683594 4.820312 C 10.882812 4.941406 11.203125 5.101562 11.484375 4.941406 C 11.761719 4.742188 11.761719 4.339844 11.722656 3.941406 C 11.722656 3.742188 11.722656 3.582031 11.804688 3.503906 C 11.921875 3.382812 12.164062 3.382812 12.28125 3.382812 C 12.402344 3.382812 12.5625 3.382812 12.683594 3.261719 L 12.800781 3.140625 L 12.800781 2.980469 C 12.800781 2.421875 13.242188 1.980469 13.800781 1.980469 C 14.042969 1.980469 14.320312 2.101562 14.523438 2.300781 C 14.523438 2.300781 15.003906 2.78125 15.402344 2.542969 C 15.601562 2.421875 15.800781 2.382812 16 2.382812 C 16.523438 2.382812 17 2.742188 17.121094 3.222656 C 17.121094 3.261719 17.160156 3.421875 17.160156 3.582031 L 17.320312 3.78125 L 17.519531 3.980469 C 17.640625 4.0625 17.882812 4.183594 18.121094 4.0625 C 18.441406 3.941406 18.640625 3.980469 18.679688 4.023438 C 18.761719 4.101562 18.761719 4.421875 18.519531 4.820312 C 18.242188 5.101562 18.359375 5.703125 18.480469 5.902344 L 18.679688 6.140625 L 18.960938 6.023438 C 19.480469 5.820312 19.839844 5.902344 19.960938 6.0625 C 20.039062 6.222656 19.960938 6.5 19.722656 6.742188 C 19.519531 6.902344 19.519531 7.140625 19.601562 7.339844 L 19.679688 7.582031 L 19.921875 7.582031 C 20.160156 7.621094 20.402344 7.78125 20.5625 7.980469 L 8.242188 7.980469 C 8.324219 7.859375 8.363281 7.742188 8.363281 7.582031 Z M 6.363281 8.78125 L 22.761719 8.78125 C 23 8.78125 23.160156 8.941406 23.160156 9.179688 C 23.160156 9.421875 23 9.582031 22.761719 9.582031 L 6.363281 9.582031 C 6.125 9.582031 5.964844 9.421875 5.964844 9.179688 C 5.964844 8.941406 6.125 8.78125 6.363281 8.78125 Z M 7.445312 12.941406 C 7.164062 12.539062 6.964844 12.101562 6.925781 11.621094 L 6.804688 10.378906 L 21.761719 10.378906 L 16.683594 15.058594 C 16.179688 15.484375 15.714844 15.757812 15.179688 15.851562 L 7.496094 12.992188 C 7.480469 12.976562 7.472656 12.96875 7.445312 12.941406 Z M 0.804688 12.261719 C 0.726562 12.101562 0.765625 11.980469 0.804688 11.859375 C 0.886719 11.699219 1.046875 11.582031 1.246094 11.582031 C 1.324219 11.582031 1.367188 11.582031 1.40625 11.621094 L 19.679688 18.417969 C 19.882812 18.5 20 18.738281 19.921875 18.9375 C 19.902344 18.984375 19.878906 19.023438 19.847656 19.058594 C 19.734375 19.152344 19.578125 19.195312 19.441406 19.136719 L 17.363281 18.378906 C 17.289062 18.355469 17.214844 18.34375 17.140625 18.359375 L 13.964844 17.207031 C 13.925781 17.175781 13.882812 17.152344 13.84375 17.140625 L 12.164062 16.539062 C 12.117188 16.507812 12.0625 16.496094 12.007812 16.5 L 9.035156 15.421875 C 8.992188 15.382812 8.941406 15.351562 8.882812 15.339844 L 7.285156 14.78125 C 7.261719 14.773438 7.238281 14.765625 7.214844 14.761719 L 1.085938 12.539062 C 0.964844 12.5 0.84375 12.378906 0.804688 12.261719 Z M 9.164062 16.289062 L 11.3125 17.066406 L 9.164062 19.21875 Z M 8.882812 21.738281 C 8.722656 21.859375 8.5625 21.9375 8.363281 21.9375 C 7.964844 21.9375 7.5625 21.617188 7.5625 21.21875 L 7.5625 15.710938 L 7.738281 15.773438 L 8.324219 16.019531 L 8.324219 19.898438 C 8.324219 20.097656 8.445312 20.257812 8.644531 20.339844 C 8.84375 20.417969 9.082031 20.378906 9.242188 20.21875 L 12.105469 17.355469 L 12.957031 17.664062 Z M 20.359375 21.976562 C 18.839844 21.976562 17.640625 20.816406 17.5625 19.339844 L 18.410156 19.640625 C 18.628906 20.542969 19.410156 21.179688 20.359375 21.179688 C 21.480469 21.179688 22.359375 20.296875 22.359375 19.179688 C 22.359375 18.058594 21.480469 17.179688 20.359375 17.179688 C 20.042969 17.179688 19.722656 17.253906 19.421875 17.429688 L 18.527344 17.09375 C 19.003906 16.617188 19.683594 16.378906 20.359375 16.378906 C 21.921875 16.378906 23.160156 17.617188 23.160156 19.179688 C 23.160156 20.738281 21.921875 21.976562 20.359375 21.976562 Z M 20.359375 21.976562"/>
</svg>
