<svg xmlns="http://www.w3.org/2000/svg" width="32" height="32" viewBox="0 0 24 24">
    <path d="M2.602 21.36c.199-.122.277-.36.16-.56-.121-.198-.364-.722-.364-1.6 0-.88.243-1.4.364-1.598.117-.204.039-.442-.16-.563-.204-.078-.442-.039-.563.16-.117.242-.437.922-.437 2 0 1.082.32 1.762.437 2a.48.48 0 0 0 .36.2c.081 0 .16 0 .203-.04zm0 0"/>
    <path d="M23.68 17.164a.42.42 0 0 0-.086-.227c-.426-1.054-1.149-1.738-1.992-1.738h-6.07c.445-.746 1.03-1.48 1.788-2.238l.102-.102.539.54c.078.081.16.12.277.12.121 0 .242-.039.282-.12l1.44-1.438a.371.371 0 0 0 .118-.281c0-.121-.039-.2-.117-.282l-.54-.539.298-.3a.385.385 0 0 0 0-.559l-3.68-3.68a.385.385 0 0 0-.559 0l-.09.09c-1.257-.68-1.898-1.355-2.43-2.531a6.534 6.534 0 0 0-.663-1.18 4.858 4.858 0 0 0-1.067-1.086c-.015-.031-.043-.062-.07-.093a.404.404 0 0 0-.25-.118A4.54 4.54 0 0 0 9.281.801C9.161.8 9.04.84 9 .879L7.281 2.602C7.2 2.68 7.161 2.84 7.2 3c.04.16.16.238.32.281 1.72.278 2.641 1.559 3.083 2.598.535 1.289 1.265 2.066 2.53 2.789l-.054.05c-.84.84-1.797 1.52-2.918 2.083l-1.52.758c-.199.082-.28.28-.199.48l.239.68c.355.914.86 1.761 1.515 2.48H2.398C1.04 15.2 0 16.961 0 19.2c0 2.242 1.04 4 2.398 4h19.204c1.359 0 2.398-1.758 2.398-4 0-.746-.117-1.441-.32-2.035zM11.28 5.56c-.64-1.48-1.68-2.438-2.96-2.88l1.077-1.038c.297.058.57.148.817.265l-.137.133a.396.396 0 0 0 0 .563c.082.078.16.117.281.117.082 0 .2 0 .282-.117l.265-.27c.223.176.414.371.586.574L11.2 3.2a.39.39 0 0 0 0 .563c.082.078.16.117.281.117.122 0 .2-.04.282-.117l.195-.196c.125.215.234.43.324.633.559 1.281 1.239 2.04 2.52 2.762L13.68 8.078c-1.239-.68-1.88-1.36-2.399-2.52zm7.84 6.082l-.883.879L18 12.28l.879-.883zm-5.52-2.36l2.118-2.16 3.12 3.117-2.12 2.121c-.918.961-1.637 1.88-2.157 2.836l-.324-.117c-1.636-.52-2.879-1.758-3.398-3.437l-.102-.286a11.073 11.073 0 0 0 2.864-2.074zm-4.203 3.117l-.105-.324.75-.375.035.14c.48 1.442 1.402 2.641 2.64 3.36H11.36a6.869 6.869 0 0 1-1.96-2.8zM.801 19.2C.8 17.32 1.64 16 2.398 16 3.16 16 4 17.32 4 19.2c0 1.878-.84 3.198-1.602 3.198-.757 0-1.597-1.32-1.597-3.199zm20.8 3.2H3.88c.176-.223.336-.497.473-.797H8c.238 0 .398-.16.398-.403 0-.238-.16-.398-.398-.398H4.633a6.133 6.133 0 0 0 .207-1.602c0-.57-.074-1.11-.207-1.597h2.969c.238 0 .398-.16.398-.403 0-.238-.16-.398-.398-.398h-3.25A3.937 3.937 0 0 0 3.879 16h17.723c.355 0 .73.293 1.03.8H17.2c-.238 0-.398.16-.398.4 0 .241.16.402.398.402h5.774c.109.355.183.757.215 1.199h-3.586c-.243 0-.403.16-.403.398 0 .242.16.403.403.403h3.585c-.109 1.664-.882 2.796-1.585 2.796zm0 0"/>
    <path d="M9.2 17.602h6.402c.238 0 .398-.16.398-.403 0-.238-.16-.398-.398-.398H9.199c-.238 0-.398.16-.398.398 0 .242.16.403.398.403zm0 0M12.398 18.8c-.238 0-.398.16-.398.4 0 .241.16.402.398.402h1.204c.238 0 .398-.16.398-.403 0-.238-.16-.398-.398-.398zm0 0M10.398 19.2c0-.24-.16-.4-.398-.4H6c-.238 0-.398.16-.398.4 0 .241.16.402.398.402h4c.238 0 .398-.16.398-.403zm0 0M14.8 19.2c0 .241.16.402.4.402h2.402c.238 0 .398-.16.398-.403 0-.238-.16-.398-.398-.398h-2.403c-.238 0-.398.16-.398.398zm0 0M21.2 20.8H18c-.238 0-.398.16-.398.4 0 .241.16.402.398.402h3.2c.241 0 .402-.16.402-.403 0-.238-.16-.398-.403-.398zm0 0M15.2 20.8h-4.802c-.238 0-.398.16-.398.4 0 .241.16.402.398.402H15.2c.242 0 .403-.16.403-.403 0-.238-.16-.398-.403-.398zm0 0"/>
</svg>
