<svg xmlns="http://www.w3.org/2000/svg" width="32" height="32" viewBox="0 0 24 24">
    <path d="M6.8 7.602c.24 0 .4-.16.4-.403 0-.238.16-.398.402-.398.238 0 .398-.16.398-.403C8 6.16 7.84 6 7.602 6c-.68 0-1.204.52-1.204 1.2 0 .241.16.402.403.402zm0 0M4 12.398c.238 0 .398-.16.398-.398 0-.238.16-.398.403-.398.238 0 .398-.16.398-.403 0-.238-.16-.398-.398-.398-.68 0-1.2.52-1.2 1.199 0 .238.16.398.399.398zm0 0M3.2 16c0-.238-.16-.398-.4-.398-.679 0-1.198.52-1.198 1.199 0 .238.16.398.398.398.238 0 .398-.16.398-.398 0-.242.16-.403.403-.403.238 0 .398-.16.398-.398zm0 0M7.602 15.602c-.68 0-1.204.52-1.204 1.199 0 .238.16.398.403.398.238 0 .398-.16.398-.398 0-.242.16-.403.403-.403.238 0 .398-.16.398-.398 0-.238-.16-.398-.398-.398zm0 0M13.602 8.398H16c.238 0 .398-.16.398-.398 0-.238-.16-.398-.398-.398h-2.398c-.243 0-.403.16-.403.398 0 .238.16.398.403.398zm0 0M14 6.8h.398c.243 0 .403-.16.403-.402 0-.238-.16-.398-.403-.398H14c-.238 0-.398.16-.398.398 0 .243.16.403.398.403zm0 0M8.8 12.398c.24 0 .4-.16.4-.398 0-.238.16-.398.402-.398.238 0 .398-.16.398-.403 0-.238-.16-.398-.398-.398-.68 0-1.204.52-1.204 1.199 0 .238.16.398.403.398zm0 0M15.602 13.2H18c.238 0 .398-.16.398-.4 0-.241-.16-.402-.398-.402h-2.398c-.243 0-.403.16-.403.403 0 .238.16.398.403.398zm0 0M16 11.602h.398c.243 0 .403-.16.403-.403 0-.238-.16-.398-.403-.398H16c-.238 0-.398.16-.398.398 0 .242.16.403.398.403zm0 0M12.398 15.602c-.68 0-1.199.52-1.199 1.199 0 .238.16.398.403.398.238 0 .398-.16.398-.398 0-.242.16-.403.398-.403.243 0 .403-.16.403-.398 0-.238-.16-.398-.403-.398zm0 0M20.8 17.2h-2.402c-.238 0-.398.16-.398.402 0 .238.16.398.398.398h2.403c.238 0 .398-.16.398-.398 0-.243-.16-.403-.398-.403zm0 0M18.8 16.398h.4c.241 0 .402-.16.402-.398 0-.238-.16-.398-.403-.398h-.398c-.242 0-.403.16-.403.398 0 .238.16.398.403.398zm0 0"/>
    <path d="M23.879 17.625a2.861 2.861 0 0 0 0-1.648.4.4 0 0 0-.086-.239A2.777 2.777 0 0 0 21.199 14h-.828c.274-.273.492-.602.637-.969a.41.41 0 0 0 .07-.207 2.841 2.841 0 0 0 0-1.648.398.398 0 0 0-.082-.239A2.786 2.786 0 0 0 18.398 9.2h-.027c.274-.27.492-.601.637-.969a.396.396 0 0 0 .07-.203 2.888 2.888 0 0 0 0-1.652.398.398 0 0 0-.082-.238 2.786 2.786 0 0 0-2.598-1.739H7.602A2.783 2.783 0 0 0 4.8 7.2c0 .903.414 1.7 1.066 2.207A2.834 2.834 0 0 0 4.801 9.2 2.783 2.783 0 0 0 2 12c0 .79.316 1.496.832 2h-.031A2.781 2.781 0 0 0 0 16.8c0 1.56 1.238 2.802 2.8 2.802h18.4c1.195 0 2.202-.73 2.609-1.774a.384.384 0 0 0 .07-.203zM18.399 10c.667 0 1.25.313 1.609.8H18c-.238 0-.398.16-.398.4 0 .241.16.402.398.402h2.36c.027.128.038.261.038.398s-.011.27-.039.398h-.757c-.243 0-.403.16-.403.403 0 .238.16.398.403.398h.406c-.36.489-.942.801-1.61.801H11.57c.23-.23.426-.5.567-.8h1.465c.238 0 .398-.16.398-.4 0-.241-.16-.402-.398-.402h-1.23a.921.921 0 0 0 .015-.109v-.02c.004-.039.008-.082.008-.124.003-.047.003-.094.003-.145 0-.05 0-.098-.003-.145 0-.043-.004-.085-.008-.125v-.02a.921.921 0 0 0-.016-.108h2.027c.243 0 .403-.16.403-.403 0-.238-.16-.398-.403-.398h-2.261c-.14-.301-.336-.57-.567-.801zm-6 8.8c-1.118 0-2-.878-2-2 0-1.12.882-2 2-2 1.12 0 2 .88 2 2 0 1.122-.88 2-2 2zm-4.797 0c-1.122 0-2-.878-2-2 0-1.12.878-2 2-2 1.117 0 2 .88 2 2 0 1.122-.883 2-2 2zm2-8.8c1.117 0 2 .879 2 2s-.883 2-2 2c-1.122 0-2-.879-2-2s.878-2 2-2zm0 4.8h.828c-.164.16-.309.345-.43.548a2.684 2.684 0 0 0-.43-.547h.032zm-1.97-.8h-.03c-.38 0-.739.074-1.067.207.262-.207.488-.46.664-.754.121.203.266.387.434.547zm8.766-8.8c.668 0 1.25.312 1.61.8H16c-.238 0-.398.16-.398.398 0 .243.16.403.398.403h2.36c.027.129.038.261.038.398s-.011.274-.039.403h-.757c-.243 0-.403.16-.403.398 0 .238.16.398.403.398h.406c-.36.489-.942.801-1.61.801H9.57c.23-.23.426-.5.567-.8h1.465c.238 0 .398-.16.398-.399 0-.238-.16-.398-.398-.398h-1.23c.003-.04.01-.075.015-.114v-.02a1.26 1.26 0 0 0 .008-.12c.003-.051.003-.098.003-.149 0-.047 0-.097-.003-.144 0-.043-.004-.082-.008-.125v-.02c-.004-.035-.012-.074-.016-.11h2.027c.243 0 .403-.16.403-.402 0-.238-.16-.398-.403-.398h-2.261c-.14-.3-.336-.57-.567-.8zm-10.796 2c0-1.122.878-2 2-2 1.117 0 2 .878 2 2 0 1.12-.883 2-2 2-1.122 0-2-.88-2-2zm2 2.8h.027a2.915 2.915 0 0 0-.43.547 2.797 2.797 0 0 0-.664-.754A2.82 2.82 0 0 0 7.602 10zM2.8 12c0-1.121.879-2 2-2 1.12 0 2 .879 2 2s-.88 2-2 2c-1.121 0-2-.879-2-2zm2 2.8c.379 0 .738-.073 1.066-.206-.265.207-.492.46-.668.754a2.684 2.684 0 0 0-.43-.547h.032zm-4 2c0-1.12.879-2 2-2 1.12 0 2 .88 2 2 0 1.122-.88 2-2 2-1.121 0-2-.878-2-2zm3.969 2c.164-.163.308-.347.43-.546.12.2.265.383.429.547zm4.8 0c.164-.163.309-.347.43-.546.121.2.266.383.43.547zm11.63 0H14.37c.23-.23.422-.5.563-.8h1.464c.243 0 .403-.16.403-.398 0-.243-.16-.403-.403-.403h-1.226c.004-.035.012-.074.015-.11v-.019c.004-.043.008-.082.008-.125.004-.047.004-.097.004-.144 0-.051 0-.098-.004-.149 0-.039-.004-.082-.008-.12v-.02c-.003-.04-.011-.075-.015-.114h2.027c.242 0 .403-.16.403-.398 0-.238-.16-.398-.403-.398h-2.265c-.141-.301-.332-.57-.563-.801H21.2c.668 0 1.25.312 1.61.8H20.8c-.242 0-.403.16-.403.399 0 .238.16.398.403.398h2.36c.026.13.038.266.038.403s-.012.27-.039.398h-.762c-.238 0-.398.16-.398.403 0 .238.16.398.398.398h.41c-.359.488-.94.8-1.609.8zm0 0"/>
</svg>
