<svg xmlns="http://www.w3.org/2000/svg" width="32" height="32" viewBox="0 0 24 24">
    <path d="M23.762 8.035l-11.602-5.2a.449.449 0 0 0-.32 0L.238 8.036c-.16.04-.238.2-.238.36v12.402c0 .238.16.398.398.398h23.204c.238 0 .398-.16.398-.398V8.395c0-.16-.078-.282-.238-.36zM4.8 19.195c0-.68.52-1.199 1.199-1.199.68 0 1.2.52 1.2 1.2 0 .679-.52 1.199-1.2 1.199-.68 0-1.2-.52-1.2-1.2zm0-3.199c0-.68.52-1.2 1.199-1.2.68 0 1.2.52 1.2 1.2 0 .68-.52 1.2-1.2 1.2-.68 0-1.2-.52-1.2-1.2zM18 17.196h-4.39c.23-.313.37-.696.386-1.114.004-.031.004-.059.004-.086 0-.031 0-.059-.004-.086a1.972 1.972 0 0 0-.387-1.113H18c.68 0 1.2.52 1.2 1.2 0 .679-.52 1.198-1.2 1.198zM7.996 19.28C8 19.254 8 19.223 8 19.195c0-.027 0-.058-.004-.086a1.972 1.972 0 0 0-.387-1.113h2.782c-.23.309-.371.692-.387 1.113-.004.028-.004.059-.004.086 0 .028 0 .059.004.086.016.418.156.801.387 1.114H7.609c.23-.313.371-.696.387-1.114zm2.805-.086c0-.68.52-1.199 1.199-1.199.68 0 1.2.52 1.2 1.2 0 .679-.52 1.199-1.2 1.199-.68 0-1.2-.52-1.2-1.2zm2.398-3.199c0 .68-.52 1.2-1.199 1.2-.68 0-1.2-.52-1.2-1.2 0-.68.52-1.2 1.2-1.2.68 0 1.2.52 1.2 1.2zm-3.195-.086c-.004.027-.004.055-.004.086 0 .027 0 .055.004.086.016.418.156.8.387 1.113H7.609c.23-.312.371-.695.387-1.113.004-.031.004-.059.004-.086 0-.031 0-.059-.004-.086a1.972 1.972 0 0 0-.387-1.113h2.782c-.23.308-.371.691-.387 1.113zm3.605 4.485c.23-.313.371-.696.387-1.114.004-.027.004-.058.004-.086 0-.027 0-.058-.004-.086a1.972 1.972 0 0 0-.387-1.113H18c.68 0 1.2.52 1.2 1.2 0 .679-.52 1.199-1.2 1.199zm6 0c.246-.332.391-.747.391-1.2 0-.66-.305-1.238-.79-1.601.485-.36.79-.938.79-1.598 0-1.121-.879-2-2-2H6c-1.121 0-2 .879-2 2 0 .66.305 1.238.79 1.598-.485.363-.79.941-.79 1.601 0 .453.145.867.39 1.2H3.2v-6.801h17.6v6.8zm1.192-7.598H3.199v-2h17.602zm2.398 7.598h-1.597v-10c0-.239-.16-.399-.403-.399H2.801c-.242 0-.403.16-.403.399v10H.801V8.637l11.199-5 11.2 5zm0 0"/>
    <path d="M10.8 5.594c-.679 0-1.198.52-1.198 1.203v1.2c0 .679.52 1.198 1.199 1.198h2.398c.68 0 1.2-.52 1.2-1.199v-1.2c0-.683-.52-1.202-1.2-1.202zm-.402 2.402v-1.2c0-.241.16-.401.403-.401h.8v2h-.8c-.242 0-.403-.16-.403-.399zm3.204-1.2v1.2c0 .238-.16.399-.403.399h-.8v-2h.8c.242 0 .403.16.403.402zm0 0"/>
</svg>
