<svg xmlns="http://www.w3.org/2000/svg" width="32" height="32" viewBox="0 0 24 24">
    <path d="M 17 7.441406 C 16.960938 7.28125 16.800781 7.199219 16.640625 7.199219 L 11.757812 7.199219 L 11.757812 3.960938 L 16.160156 3.960938 C 16.398438 3.960938 16.558594 3.800781 16.558594 3.558594 L 16.558594 2.359375 C 16.558594 2.28125 16.519531 2.160156 16.4375 2.078125 L 14.878906 0.679688 C 14.277344 0.238281 13.640625 0 12.960938 0 L 11.359375 0 C 9.597656 0 8.160156 1.441406 8.160156 3.199219 L 8.160156 7.199219 L 7.359375 7.199219 C 7.121094 7.199219 6.960938 7.359375 6.960938 7.601562 L 6.960938 10 C 6.960938 10.238281 7.121094 10.398438 7.359375 10.398438 L 8.160156 10.398438 L 8.160156 15.601562 C 8.160156 16.71875 9.039062 17.601562 10.160156 17.601562 C 10.613281 17.601562 11.027344 17.457031 11.359375 17.210938 L 11.359375 22 C 11.359375 23.121094 12.238281 24 13.359375 24 C 14.480469 24 15.359375 23.121094 15.359375 22 L 15.359375 11.558594 C 15.359375 10.199219 15.917969 8.839844 16.917969 7.878906 C 17.039062 7.761719 17.078125 7.601562 17 7.441406 Z M 8.960938 3.199219 C 8.960938 1.878906 10.039062 0.800781 11.359375 0.800781 L 12.960938 0.800781 C 13.480469 0.800781 13.917969 0.960938 14.320312 1.320312 L 15.757812 2.601562 L 15.757812 3.199219 L 11.359375 3.199219 C 11.117188 3.199219 10.960938 3.359375 10.960938 3.601562 L 10.960938 7.199219 L 8.960938 7.199219 Z M 8.960938 10.398438 L 11.359375 10.398438 L 11.359375 12 L 8.960938 12 Z M 10.160156 16.800781 C 9.480469 16.800781 8.960938 16.28125 8.960938 15.601562 L 8.960938 14.398438 L 11.359375 14.398438 L 11.359375 15.601562 C 11.359375 16.28125 10.839844 16.800781 10.160156 16.800781 Z M 14.558594 11.558594 L 14.558594 22 C 14.558594 22.679688 14.039062 23.199219 13.359375 23.199219 C 12.679688 23.199219 12.160156 22.679688 12.160156 22 L 12.960938 22 C 13.199219 22 13.359375 21.839844 13.359375 21.601562 C 13.359375 21.359375 13.199219 21.199219 12.960938 21.199219 L 12.160156 21.199219 L 12.160156 20.398438 L 12.960938 20.398438 C 13.199219 20.398438 13.359375 20.238281 13.359375 20 C 13.359375 19.761719 13.199219 19.601562 12.960938 19.601562 L 12.160156 19.601562 L 12.160156 14 C 12.160156 13.761719 12 13.601562 11.757812 13.601562 L 8.960938 13.601562 L 8.960938 12.800781 L 11.757812 12.800781 C 12 12.800781 12.160156 12.640625 12.160156 12.398438 L 12.160156 10 C 12.160156 9.761719 12 9.601562 11.757812 9.601562 L 7.757812 9.601562 L 7.757812 8 L 15.757812 8 C 15 9 14.558594 10.28125 14.558594 11.558594 Z M 14.558594 11.558594"/>
</svg>
