<svg xmlns="http://www.w3.org/2000/svg" width="32" height="32" viewBox="0 0 24 24">
    <path d="M17 7.441c-.04-.16-.2-.242-.36-.242h-4.882V3.961h4.402c.238 0 .399-.16.399-.402v-1.2c0-.078-.04-.199-.122-.28L14.88.678C14.277.24 13.64 0 12.96 0h-1.602A3.208 3.208 0 0 0 8.16 3.2v4h-.8c-.239 0-.4.16-.4.402V10c0 .238.161.398.4.398h.8v5.204c0 1.117.88 2 2 2 .453 0 .867-.145 1.2-.391V22c0 1.121.878 2 2 2 1.12 0 2-.879 2-2V11.559c0-1.36.558-2.72 1.558-3.68A.362.362 0 0 0 17 7.44zM8.96 3.2a2.404 2.404 0 0 1 2.4-2.398h1.6c.52 0 .958.16 1.36.52l1.438 1.28V3.2h-4.399c-.242 0-.398.16-.398.403v3.597h-2zm0 7.2h2.4V12h-2.4zm1.2 6.402c-.68 0-1.2-.52-1.2-1.2v-1.203h2.4v1.204c0 .68-.52 1.199-1.2 1.199zm4.399-5.242V22c0 .68-.52 1.2-1.2 1.2-.68 0-1.199-.52-1.199-1.2h.8c.24 0 .4-.16.4-.398 0-.243-.16-.403-.4-.403h-.8v-.8h.8c.24 0 .4-.16.4-.399 0-.238-.16-.398-.4-.398h-.8V14c0-.238-.16-.398-.402-.398H8.96V12.8h2.797c.242 0 .402-.16.402-.403V10c0-.238-.16-.398-.402-.398h-4V8h8c-.758 1-1.2 2.281-1.2 3.559zm0 0"/>
</svg>
