<svg xmlns="http://www.w3.org/2000/svg" width="32" height="32" viewBox="0 0 24 24">
    <path d="M17.195 4.734c0-1.918-1-3.754-2.597-4.675a.368.368 0 0 0-.399 0A.423.423 0 0 0 14 .418v3.719a6.842 6.842 0 0 1-4 0V.418a.423.423 0 0 0-.2-.36.368.368 0 0 0-.398 0C7.844.98 6.805 2.817 6.805 4.735c0 1.72.824 3.235 2.097 4.18.477 1.117.7 2.305.7 3.496v9.192A2.404 2.404 0 0 0 12 24a2.404 2.404 0 0 0 2.398-2.398V12.41c0-1.191.258-2.383.704-3.5a5.18 5.18 0 0 0 2.093-4.176zm-9.59-.039c0-1.316.637-2.675 1.598-3.515v2.957c0 .36.238.68.598.718a7.6 7.6 0 0 0 4.437 0c.32-.078.559-.398.559-.757V1.18a4.765 4.765 0 0 1 1.598 3.515A4.385 4.385 0 0 1 12 9.094a4.385 4.385 0 0 1-4.395-4.399zm5.993 7.715v9.192c0 .878-.72 1.597-1.598 1.597a1.602 1.602 0 0 1-1.598-1.597h1.2c.238 0 .398-.16.398-.399 0-.242-.16-.402-.398-.402h-1.2v-.797h1.2c.238 0 .398-.16.398-.399 0-.242-.16-.402-.398-.402h-1.2V12.41c0-.988-.156-1.937-.433-2.887a5.24 5.24 0 0 0 4.062 0c-.277.95-.433 1.899-.433 2.887zm0 0"/>
</svg>
