<svg xmlns="http://www.w3.org/2000/svg" width="32" height="32" viewBox="0 0 24 24">
    <path d="M 17.195312 4.734375 C 17.195312 2.816406 16.195312 0.980469 14.597656 0.0585938 C 14.476562 -0.0195312 14.316406 -0.0195312 14.199219 0.0585938 C 14.078125 0.140625 14 0.261719 14 0.417969 L 14 4.136719 C 12.679688 4.535156 11.320312 4.535156 10 4.136719 L 10 0.417969 C 10 0.261719 9.921875 0.140625 9.800781 0.0585938 C 9.683594 -0.0195312 9.523438 -0.0195312 9.402344 0.0585938 C 7.84375 0.980469 6.804688 2.816406 6.804688 4.734375 C 6.804688 6.453125 7.628906 7.96875 8.902344 8.914062 C 9.378906 10.03125 9.601562 11.21875 9.601562 12.410156 L 9.601562 21.601562 C 9.601562 22.921875 10.679688 24 12 24 C 13.320312 24 14.398438 22.921875 14.398438 21.601562 L 14.398438 12.410156 C 14.398438 11.21875 14.65625 10.027344 15.101562 8.910156 C 16.375 7.964844 17.195312 6.449219 17.195312 4.734375 Z M 7.605469 4.695312 C 7.605469 3.378906 8.242188 2.019531 9.203125 1.179688 L 9.203125 4.136719 C 9.203125 4.496094 9.441406 4.816406 9.800781 4.855469 C 11.242188 5.296875 12.800781 5.296875 14.238281 4.855469 C 14.558594 4.777344 14.796875 4.457031 14.796875 4.097656 L 14.796875 1.179688 C 15.757812 2.019531 16.394531 3.335938 16.394531 4.695312 C 16.394531 7.132812 14.4375 9.09375 12 9.09375 C 9.5625 9.09375 7.605469 7.132812 7.605469 4.695312 Z M 13.597656 12.410156 L 13.597656 21.601562 C 13.597656 22.480469 12.878906 23.199219 12 23.199219 C 11.121094 23.199219 10.402344 22.480469 10.402344 21.601562 L 11.601562 21.601562 C 11.839844 21.601562 12 21.441406 12 21.203125 C 12 20.960938 11.839844 20.800781 11.601562 20.800781 L 10.402344 20.800781 L 10.402344 20.003906 L 11.601562 20.003906 C 11.839844 20.003906 12 19.84375 12 19.605469 C 12 19.363281 11.839844 19.203125 11.601562 19.203125 L 10.402344 19.203125 L 10.402344 12.410156 C 10.402344 11.421875 10.246094 10.472656 9.96875 9.523438 C 10.59375 9.785156 11.277344 9.933594 12 9.933594 C 12.722656 9.933594 13.40625 9.785156 14.03125 9.523438 C 13.753906 10.472656 13.597656 11.421875 13.597656 12.410156 Z M 13.597656 12.410156"/>
</svg>
