<svg xmlns="http://www.w3.org/2000/svg" width="32" height="32" viewBox="0 0 24 24">
    <path d="M17.191 6.398H9.594V4h7.597c.122 0 .243 0 .32-.121.083-.117.122-.238.083-.36l-.242-.917A3.464 3.464 0 0 0 13.992 0h-4c-1.601 0-2.96 1.078-3.36 2.64l-.241.88c0 .12 0 .199.082.32.078.12.199.16.32.16v2.398c-.242 0-.402.16-.402.403V10c0 .238.16.398.402.398V12c0 .238.16.398.398.398h2c.243 0 .403-.16.403-.398v-1.602h.797V22c0 1.121.882 2 2 2 1.12 0 2-.879 2-2V10.398c1.402-.16 2.601-1.199 2.96-2.597l.243-.88c.039-.12 0-.241-.082-.362a.368.368 0 0 0-.32-.16zm-9.8-3.597c.32-1.16 1.363-2 2.601-2h4.04c1.198 0 2.28.8 2.562 2l.078.398h-9.36zM7.594 4h1.199v2.398h-1.2zm1.199 7.602h-1.2v-1.204h1.2zm7.8-4c-.32 1.16-1.363 2-2.6 2-.24 0-.4.16-.4.398v12c0 .68-.523 1.2-1.202 1.2-.68 0-1.2-.52-1.2-1.2h.801c.238 0 .399-.16.399-.398 0-.243-.16-.403-.399-.403h-.8v-.8h.8c.238 0 .399-.16.399-.399 0-.238-.16-.398-.399-.398h-.8V10c0-.238-.16-.398-.399-.398H7.191V7.199h9.48zm0 0"/>
</svg>
