<svg xmlns="http://www.w3.org/2000/svg" width="32" height="23pt" viewBox="0 0 24 23">
    <path d="M 5.125 8.40625 C 5.339844 9.238281 5.90625 9.878906 6.574219 10.097656 C 7.355469 12.554688 9.367188 15.113281 12.085938 15.113281 C 14.804688 15.113281 16.808594 12.566406 17.59375 10.097656 C 18.265625 9.875 18.824219 9.226562 19.042969 8.40625 C 19.355469 7.230469 18.871094 6.125 17.945312 5.855469 C 17.945312 5.804688 17.945312 5.757812 17.953125 5.714844 C 18.003906 5.464844 18.296875 5.230469 18.296875 4.964844 C 18.296875 4.695312 18.007812 4.464844 17.953125 4.210938 C 17.90625 3.957031 18.074219 3.636719 17.972656 3.394531 C 17.867188 3.152344 17.515625 3.039062 17.371094 2.820312 C 17.230469 2.605469 17.277344 2.242188 17.09375 2.042969 C 16.917969 1.851562 16.535156 1.851562 16.332031 1.679688 C 16.125 1.515625 16.066406 1.15625 15.828125 1.011719 C 15.605469 0.875 15.234375 0.96875 14.988281 0.859375 C 14.746094 0.746094 14.59375 0.414062 14.328125 0.332031 C 14.078125 0.253906 13.742188 0.425781 13.476562 0.371094 C 13.21875 0.320312 12.988281 0.0234375 12.714844 0.00390625 C 12.449219 -0.0273438 12.164062 0.214844 11.882812 0.214844 C 11.605469 0.214844 11.320312 -0.0234375 11.054688 0.00390625 C 10.777344 0.03125 10.550781 0.320312 10.292969 0.371094 C 10.023438 0.429688 9.691406 0.253906 9.441406 0.332031 C 9.179688 0.414062 9.023438 0.746094 8.78125 0.859375 C 8.527344 0.96875 8.164062 0.875 7.941406 1.011719 C 7.707031 1.152344 7.644531 1.511719 7.4375 1.679688 C 7.226562 1.847656 6.851562 1.851562 6.675781 2.042969 C 6.496094 2.242188 6.542969 2.605469 6.398438 2.820312 C 6.253906 3.042969 5.894531 3.152344 5.796875 3.394531 C 5.699219 3.636719 5.867188 3.957031 5.816406 4.210938 C 5.765625 4.460938 5.472656 4.695312 5.472656 4.964844 C 5.472656 5.230469 5.761719 5.460938 5.816406 5.714844 C 5.832031 5.828125 5.820312 5.949219 5.800781 6.070312 C 5.160156 6.511719 4.867188 7.429688 5.125 8.40625 Z M 18.152344 8.195312 C 17.976562 8.863281 17.523438 9.253906 17.164062 9.304688 L 16.863281 9.34375 L 16.785156 9.625 C 16.132812 11.917969 14.308594 14.246094 12.082031 14.246094 C 9.855469 14.246094 8.035156 11.917969 7.378906 9.621094 L 7.300781 9.339844 L 7 9.300781 C 6.640625 9.253906 6.1875 8.859375 6.011719 8.191406 C 5.882812 7.699219 5.96875 7.195312 6.1875 6.910156 C 6.277344 6.796875 6.386719 6.710938 6.515625 6.679688 C 6.546875 6.675781 6.574219 6.671875 6.613281 6.671875 C 6.640625 6.671875 6.664062 6.671875 6.691406 6.675781 L 7.117188 6.714844 L 7.183594 6.304688 C 7.617188 3.519531 9.589844 1.648438 12.082031 1.648438 C 14.578125 1.648438 16.550781 3.523438 16.984375 6.308594 L 17.050781 6.71875 L 17.480469 6.679688 C 17.546875 6.675781 17.605469 6.675781 17.652344 6.683594 C 17.703125 6.691406 17.746094 6.71875 17.792969 6.738281 C 18.148438 6.949219 18.3125 7.574219 18.152344 8.195312 Z M 18.152344 8.195312"/>
    <path d="M 10.050781 10.570312 C 9.328125 11.261719 9.402344 12.457031 9.402344 12.457031 C 9.402344 12.457031 10.652344 12.53125 11.375 11.839844 C 12.09375 11.144531 12.019531 9.949219 12.019531 9.949219 C 12.019531 9.949219 10.773438 9.878906 10.050781 10.570312 Z M 10.050781 10.570312"/>
    <path d="M12.03125 9.949219C12.03125 9.949219 11.957031 11.144531 12.679688 11.839844 13.402344 12.53125 14.648438 12.457031 14.648438 12.457031 14.648438 12.457031 14.722656 11.261719 14.003906 10.570312 13.285156 9.878906 12.03125 9.949219 12.03125 9.949219zM17.238281 13.144531C16.664062 14.074219 16.007812 14.859375 15.136719 15.285156 13.332031 16.171875 11.996094 16.886719 11.996094 16.886719L11.992188 16.878906 11.992188 16.863281 11.972656 16.871094 11.957031 16.863281 11.957031 16.878906 11.953125 16.886719C11.953125 16.886719 10.609375 16.167969 8.8125 15.285156 7.9375 14.855469 7.277344 14.074219 6.710938 13.144531 4.042969 14.183594 2.1875 16.570312 2.1875 18.65625 2.1875 20.851562 2.1875 22.980469 2.1875 22.980469L21.792969 22.980469C21.792969 22.980469 21.792969 20.851562 21.792969 18.65625 21.773438 16.574219 19.90625 14.183594 17.238281 13.144531zM17.238281 13.144531"/>
</svg>
