<svg xmlns="http://www.w3.org/2000/svg" width="32" height="32" viewBox="0 0 24 24">
    <path d="M 3.605469 6.644531 C 3.605469 6.996094 3.964844 7.3125 4.027344 7.648438 C 4.09375 7.992188 3.886719 8.417969 4.015625 8.742188 C 4.144531 9.066406 4.589844 9.226562 4.777344 9.515625 C 4.957031 9.808594 4.90625 10.28125 5.140625 10.546875 C 5.359375 10.792969 5.800781 10.8125 6.074219 11.015625 C 6.132812 11.085938 6.199219 11.148438 6.261719 11.214844 C 6.421875 11.453125 6.527344 11.773438 6.765625 11.921875 C 6.847656 11.972656 6.9375 12 7.03125 12.015625 C 7.835938 14.261719 9.628906 16.464844 12.003906 16.464844 C 14.488281 16.464844 16.339844 14.054688 17.082031 11.699219 C 17.109375 11.664062 17.128906 11.628906 17.152344 11.59375 C 17.527344 11.453125 17.863281 11.164062 18.113281 10.777344 C 18.257812 10.722656 18.394531 10.660156 18.492188 10.550781 C 18.726562 10.289062 18.671875 9.808594 18.855469 9.523438 C 19.042969 9.222656 19.492188 9.0625 19.617188 8.738281 C 19.75 8.410156 19.539062 7.988281 19.605469 7.644531 C 19.671875 7.308594 20.027344 6.996094 20.027344 6.640625 C 20.027344 6.28125 19.667969 5.972656 19.605469 5.632812 C 19.539062 5.289062 19.746094 4.867188 19.617188 4.542969 C 19.488281 4.214844 19.042969 4.054688 18.855469 3.765625 C 18.675781 3.472656 18.726562 3.003906 18.492188 2.738281 C 18.265625 2.480469 17.789062 2.46875 17.515625 2.242188 C 17.253906 2.019531 17.167969 1.550781 16.871094 1.359375 C 16.582031 1.179688 16.117188 1.292969 15.800781 1.144531 C 15.496094 1 15.292969 0.5625 14.953125 0.453125 C 14.628906 0.339844 14.207031 0.566406 13.863281 0.488281 C 13.527344 0.417969 13.234375 0.0390625 12.882812 0.00390625 C 12.539062 -0.03125 12.175781 0.273438 11.824219 0.273438 C 11.472656 0.273438 11.105469 -0.03125 10.761719 0.00390625 C 10.410156 0.0390625 10.117188 0.417969 9.785156 0.488281 C 9.441406 0.566406 9.015625 0.347656 8.691406 0.453125 C 8.359375 0.566406 8.15625 1 7.84375 1.144531 C 7.523438 1.296875 7.058594 1.179688 6.773438 1.359375 C 6.476562 1.554688 6.386719 2.019531 6.128906 2.242188 C 5.863281 2.464844 5.382812 2.480469 5.15625 2.738281 C 4.921875 3 4.976562 3.476562 4.789062 3.765625 C 4.605469 4.0625 4.152344 4.226562 4.027344 4.550781 C 3.898438 4.875 4.109375 5.300781 4.042969 5.640625 C 3.960938 5.976562 3.605469 6.289062 3.605469 6.644531 Z M 16.371094 11.148438 C 16.285156 11.460938 16.175781 11.773438 16.050781 12.078125 C 15.277344 13.960938 13.78125 15.621094 12.007812 15.621094 C 10.3125 15.621094 8.859375 14.097656 8.066406 12.308594 C 7.894531 11.929688 7.753906 11.539062 7.644531 11.140625 L 7.570312 10.871094 L 7.289062 10.835938 C 6.957031 10.789062 6.535156 10.40625 6.375 9.765625 C 6.203125 9.089844 6.417969 8.40625 6.839844 8.300781 C 6.867188 8.292969 6.890625 8.289062 6.929688 8.289062 C 6.957031 8.289062 6.972656 8.289062 7 8.292969 L 7.398438 8.332031 L 7.457031 7.9375 C 7.570312 7.207031 7.785156 6.539062 8.082031 5.957031 C 8.191406 5.929688 8.300781 5.921875 8.402344 5.941406 C 8.765625 6.011719 9.0625 6.589844 9.464844 6.640625 C 9.832031 6.679688 10.261719 6.1875 10.65625 6.210938 C 11.027344 6.230469 11.402344 6.769531 11.796875 6.769531 C 12.1875 6.769531 12.558594 6.230469 12.9375 6.210938 C 13.335938 6.191406 13.769531 6.683594 14.128906 6.640625 C 14.527344 6.59375 14.832031 6.011719 15.1875 5.941406 C 15.445312 5.890625 15.742188 6.039062 16.015625 6.132812 C 16.269531 6.675781 16.453125 7.28125 16.554688 7.941406 L 16.613281 8.335938 L 17.011719 8.300781 C 17.070312 8.292969 17.128906 8.292969 17.171875 8.304688 C 17.589844 8.410156 17.804688 9.09375 17.636719 9.769531 C 17.476562 10.410156 17.054688 10.792969 16.722656 10.839844 L 16.441406 10.875 Z M 13.960938 8.378906 C 13.25 8.378906 12.644531 8.816406 12.390625 9.445312 C 11.964844 9.265625 11.476562 9.25 11.046875 9.425781 C 10.789062 8.8125 10.179688 8.386719 9.480469 8.386719 C 8.546875 8.386719 7.785156 9.148438 7.785156 10.082031 C 7.785156 11.015625 8.546875 11.777344 9.480469 11.777344 C 10.347656 11.777344 11.054688 11.117188 11.160156 10.28125 C 11.503906 10.039062 11.964844 10.058594 12.292969 10.324219 C 12.414062 11.140625 13.117188 11.769531 13.964844 11.769531 C 14.898438 11.769531 15.664062 11.007812 15.664062 10.070312 C 15.664062 9.136719 14.898438 8.378906 13.960938 8.378906 Z M 9.476562 10.960938 C 8.988281 10.960938 8.59375 10.566406 8.59375 10.078125 C 8.59375 9.589844 8.984375 9.191406 9.476562 9.191406 C 9.964844 9.191406 10.363281 9.585938 10.363281 10.078125 C 10.363281 10.5625 9.964844 10.960938 9.476562 10.960938 Z M 13.960938 10.960938 C 13.472656 10.960938 13.078125 10.566406 13.078125 10.078125 C 13.078125 9.589844 13.46875 9.191406 13.960938 9.191406 C 14.449219 9.191406 14.847656 9.585938 14.847656 10.078125 C 14.847656 10.5625 14.449219 10.960938 13.960938 10.960938 Z M 16.746094 14.757812 C 16.230469 15.632812 15.640625 16.371094 14.851562 16.777344 C 13.226562 17.605469 12.023438 18.28125 12.023438 18.28125 L 12.015625 18.277344 L 12.015625 18.265625 L 12 18.269531 L 11.984375 18.261719 L 11.984375 18.273438 L 11.980469 18.277344 C 11.980469 18.277344 10.773438 17.605469 9.152344 16.769531 C 8.363281 16.367188 7.773438 15.628906 7.257812 14.753906 C 4.851562 15.730469 3.179688 17.980469 3.179688 19.933594 C 3.179688 22 3.179688 24.003906 3.179688 24.003906 L 20.824219 24.003906 C 20.824219 24.003906 20.824219 22 20.824219 19.933594 C 20.824219 17.980469 19.144531 15.734375 16.746094 14.757812 Z M 16.746094 14.757812"/>
</svg>
